<?xml version="1.0" encoding="UTF-8"?> <svg xmlns="http://www.w3.org/2000/svg" xmlns:xlink="http://www.w3.org/1999/xlink" id="word" viewBox="0 0 1920 3679"><defs><style>.cls-1,.cls-2,.cls-3,.cls-4,.cls-5,.cls-6,.cls-7,.cls-8,.cls-9,.cls-10,.cls-11,.cls-12{fill:none;}.cls-2{stroke-dasharray:0 0 1.66 16.57;}.cls-2,.cls-3,.cls-4,.cls-5,.cls-6,.cls-7,.cls-8,.cls-9,.cls-10,.cls-11{stroke:#a797c9;stroke-linecap:round;stroke-width:7px;}.cls-2,.cls-3,.cls-4,.cls-5,.cls-6,.cls-7,.cls-8,.cls-9,.cls-10,.cls-11,.cls-12{stroke-miterlimit:10;}.cls-13{clip-path:url(#clippath);}.cls-3{stroke-dasharray:0 0 1.58 15.8;}.cls-14{fill:#fff;}.cls-15{fill:#f1f2f2;}.cls-16{fill:#937fbb;}.cls-17{fill:#171c32;}.cls-18{fill:#947fbb;}.cls-4{stroke-dasharray:0 0 1.8 17.96;}.cls-6{stroke-dasharray:0 0 1.67 16.67;}.cls-7{stroke-dasharray:0 0 1.79 17.94;}.cls-19{clip-path:url(#clippath-1);}.cls-20{clip-path:url(#clippath-3);}.cls-21{clip-path:url(#clippath-2);}.cls-8{stroke-dasharray:0 0 1.73 17.27;}.cls-9{stroke-dasharray:0 0 1.81 18.12;}.cls-10{stroke-dasharray:0 0 1.89 18.9;}.cls-11{stroke-dasharray:0 0 1.77 17.7;}.cls-12{stroke:#57678b;stroke-width:3.5px;}</style><clipPath id="clippath"><circle class="cls-1" cx="807.61" cy="2433.7" r="101.06"></circle></clipPath><clipPath id="clippath-1"><circle class="cls-1" cx="781.01" cy="2164.58" r="58.46"></circle></clipPath><clipPath id="clippath-2"><circle class="cls-1" cx="1026.64" cy="1281.98" r="56.13"></circle></clipPath><clipPath id="clippath-3"><circle class="cls-1" cx="1487.24" cy="1176.68" r="122.63"></circle></clipPath></defs><rect class="cls-17" y="0" width="1920" height="3679"></rect><line class="cls-12" y1="1965.86" x2="1920" y2="1965.86"></line><line class="cls-12" y1="2139.67" x2="1920" y2="2139.67"></line><line class="cls-12" x1="1920" y1="2332.82" y2="2332.82"></line><line class="cls-12" y1="2497.51" x2="1920" y2="2497.51"></line><line class="cls-12" y1="2847.82" x2="1920" y2="2847.82"></line><line class="cls-12" y1="3024.63" x2="1920" y2="3024.63"></line><line class="cls-12" x1="1920" y1="3214.78" y2="3214.78"></line><line class="cls-12" y1="3384.47" x2="1920" y2="3384.47"></line><line class="cls-12" y1="1088.37" x2="1920" y2="1088.37"></line><line class="cls-12" y1="1262.18" x2="1920" y2="1262.18"></line><line class="cls-12" x1="1920" y1="1452.33" y2="1452.33"></line><line class="cls-12" y1="1617.02" x2="1920" y2="1617.02"></line><line class="cls-12" y1="202.72" x2="1920" y2="202.72"></line><line class="cls-12" y1="376.52" x2="1920" y2="376.52"></line><line class="cls-12" x1="1920" y1="566.67" y2="566.67"></line><line class="cls-12" y1="738.37" x2="1920" y2="738.37"></line><circle class="cls-18" cx="781.01" cy="2164.58" r="58.46"></circle><line class="cls-5" x1="490.32" y1="831.57" x2="490.32" y2="830.7"></line><line class="cls-9" x1="490.32" y1="812.58" x2="490.32" y2="602.42"></line><line class="cls-5" x1="490.32" y1="593.36" x2="490.32" y2="592.49"></line><line class="cls-5" x1="266.68" y1="1718.66" x2="266.68" y2="1717.78"></line><line class="cls-8" x1="266.68" y1="1700.51" x2="266.68" y2="1481.12"></line><line class="cls-5" x1="266.68" y1="1472.49" x2="266.68" y2="1471.61"></line><line class="cls-5" x1="332.52" y1="1944.55" x2="332.52" y2="1943.68"></line><line class="cls-3" x1="332.52" y1="1927.88" x2="332.52" y2="1866.27"></line><line class="cls-5" x1="332.52" y1="1858.37" x2="332.52" y2="1857.5"></line><line class="cls-5" x1="1601.36" y1="2006.96" x2="1601.36" y2="2006.09"></line><line class="cls-4" x1="1601.36" y1="1988.13" x2="1601.36" y2="1858.83"></line><line class="cls-5" x1="1601.36" y1="1849.85" x2="1601.36" y2="1848.98"></line><line class="cls-5" x1="789.31" y1="2092.69" x2="789.31" y2="2091.81"></line><line class="cls-7" x1="789.31" y1="2073.88" x2="789.31" y2="1865.8"></line><line class="cls-5" x1="789.31" y1="1856.83" x2="789.31" y2="1855.95"></line><line class="cls-5" x1="999.8" y1="1719.66" x2="999.8" y2="1718.78"></line><line class="cls-11" x1="999.8" y1="1701.08" x2="999.8" y2="1398.44"></line><line class="cls-5" x1="999.8" y1="1389.59" x2="999.8" y2="1388.72"></line><line class="cls-5" x1="1486.56" y1="1039.6" x2="1486.56" y2="1038.73"></line><line class="cls-2" x1="1486.56" y1="1022.16" x2="1486.56" y2="975.76"></line><line class="cls-5" x1="1486.56" y1="967.47" x2="1486.56" y2="966.6"></line><line class="cls-5" x1="804.17" y1="2630.47" x2="804.17" y2="2629.6"></line><line class="cls-10" x1="804.17" y1="2610.7" x2="804.17" y2="2557.76"></line><line class="cls-5" x1="804.17" y1="2548.31" x2="804.17" y2="2547.44"></line><line class="cls-5" x1="468.68" y1="2835.5" x2="468.68" y2="2834.63"></line><line class="cls-6" x1="468.68" y1="2817.96" x2="468.68" y2="2716.27"></line><line class="cls-5" x1="468.68" y1="2707.94" x2="468.68" y2="2707.06"></line><path class="cls-14" d="m950.7,792.66v-2.02h3.02v2.18c0,3.74,2.6,6.05,7.94,6.05s8.44-1.97,8.44-6.22c0-3.32-1.39-5.17-4.92-6.09l-6.64-1.72c-4.33-1.13-7.18-2.98-7.18-8.15s3.78-8.91,10.92-8.91,10.59,3.44,10.59,9.07v2.94h-3.02v-2.81c0-4.62-3.07-6.51-7.56-6.51-5.12,0-7.81,2.14-7.81,6.01,0,3.61,1.76,4.7,5.54,5.71l5.75,1.55c5.12,1.39,7.44,3.74,7.44,8.65,0,6.09-4.33,9.24-11.47,9.24-9.12,0-11.05-4.7-11.05-8.99Z"></path><path class="cls-14" d="m980.39,768.34h2.94v32.77h-2.94v-32.77Z"></path><path class="cls-14" d="m989.42,795.31c0-3.95,2.23-6.09,7.86-6.09h6.34v-1.72c0-2.98-1.26-5.42-5.46-5.42-3.95,0-5.33,1.51-5.33,4.12v.88h-2.98v-.84c0-5,4.2-6.68,8.32-6.68,5.8,0,8.4,2.86,8.4,8.44v13.11h-2.06l-.55-2.98h-.08c-1.26,1.89-3.7,3.53-7.35,3.53-4.92,0-7.1-2.31-7.1-6.34Zm14.2-1.85v-1.76h-7.02c-2.65,0-4.03.92-4.03,3.61,0,2.35,1.26,3.86,4.5,3.86,4.16,0,6.55-2.14,6.55-5.71Z"></path><path class="cls-14" d="m1013.91,780.1h2.6l.29,3.49c1.01-2.14,3.28-4.03,7.35-4.03,4.75,0,7.77,2.52,7.77,7.94v13.61h-2.94v-13.27c0-4.33-2.14-5.71-5.5-5.71-3.82,0-6.64,2.69-6.64,5.63v13.36h-2.94v-21Z"></path><path class="cls-14" d="m1050.24,798.42v2.6c-.76.21-2.14.59-4.03.59-3.82,0-6.34-1.6-6.34-6.89v-12.18h-4.16v-2.44h4.16v-6.05l2.94-1.43v7.48h5.92v2.44h-5.92v11.8c0,2.81.76,4.58,3.4,4.58,1.6,0,3.23-.29,4.03-.5Z"></path><path class="cls-14" d="m1071.7,791.61h-15.96c.17,4.79,2.48,7.48,6.93,7.48,3.82,0,5.67-1.43,5.96-4.83h2.98c-.29,4.24-3.28,7.39-9.03,7.39-7.06,0-9.83-4.66-9.83-10.88s3.23-11.22,10-11.22,8.95,3.99,8.95,10.21v1.85Zm-3.11-2.98c0-4.45-1.72-6.55-5.92-6.55s-6.55,2.65-6.89,6.97h12.81v-.42Z"></path><path class="cls-14" d="m1075.9,790.65c0-7.1,4.28-11.09,10.04-11.09,3.7,0,6.22,1.6,7.31,3.74h.04v-14.95h2.94v32.77h-1.97l-.67-3.61h-.08c-1.18,2.31-3.95,4.16-7.77,4.16-6.3,0-9.83-3.99-9.83-11.01Zm17.64-.5c0-5.5-3.36-8.07-7.35-8.07-3.11,0-7.14,1.47-7.14,8.4s3.61,8.61,7.14,8.61c4.24,0,7.35-2.73,7.35-8.95Z"></path><polygon class="cls-18" points="1230.49 201.9 1180.61 201.9 1010.93 737.81 1060.81 737.81 1230.49 201.9"></polygon><path class="cls-14" d="m66.69,2666.46c0-12.01,6.76-17.27,14.74-17.27,6.97,0,12.39,3.74,12.39,12.01v.8h-2.86v-.92c0-5.92-3.78-9.24-9.45-9.24-6.72,0-11.76,4.58-11.76,14.32s5.04,14.24,11.72,14.24c5.38,0,9.54-2.86,9.54-9.2v-.59h2.77v.42c0,8.02-5.33,12.01-12.56,12.01-7.98,0-14.53-4.87-14.53-16.59Z"></path><path class="cls-14" d="m99.7,2675.11v-13.61h2.94v13.27c0,4.33,2.14,5.71,5.42,5.71,3.74,0,6.55-2.69,6.55-5.63v-13.36h2.94v21h-2.6l-.25-3.36h-.08c-.97,2.02-3.24,3.91-7.23,3.91-4.66,0-7.69-2.52-7.69-7.94Z"></path><path class="cls-14" d="m124.9,2661.5h2.6l.29,3.91c1.01-2.14,3.07-4.45,6.76-4.45,1.26,0,2.18.21,3.02.55v3.15c-1.13-.5-2.1-.76-3.4-.76-3.74,0-6.34,2.81-6.34,5.75v12.86h-2.94v-21Z"></path><path class="cls-14" d="m140.1,2676.08v-1.18h2.94v1.13c0,2.86,2.14,4.5,5.96,4.5s5.8-1.01,5.8-3.78c0-2.06-1.01-2.81-3.87-3.32l-4.62-.84c-3.02-.55-5.54-2.02-5.54-5.5,0-3.15,2.35-6.13,8.4-6.13s8.4,3.03,8.4,7.23v.88h-2.98v-.76c0-3.44-2.14-4.91-5.42-4.91-3.95,0-5.33,1.34-5.33,3.36s1.01,2.86,3.91,3.4l4.03.76c4.12.76,6.09,1.93,6.09,5.59,0,4.58-4.12,6.55-8.78,6.55-7.31,0-8.99-3.28-8.99-6.97Z"></path><path class="cls-14" d="m163.75,2649.74h2.98v6.51h-2.98v-6.51Zm0,11.76h2.94v21h-2.94v-21Z"></path><path class="cls-14" d="m170.93,2661.54v-.04h3.36l7.35,17.98h.08l7.1-17.98h3.07v.04l-8.74,20.96h-3.02l-9.2-20.96Z"></path><path class="cls-14" d="m212.73,2673.01h-15.96c.17,4.79,2.48,7.48,6.93,7.48,3.82,0,5.67-1.43,5.97-4.83h2.98c-.29,4.24-3.28,7.39-9.03,7.39-7.06,0-9.83-4.66-9.83-10.88s3.23-11.22,10-11.22,8.95,3.99,8.95,10.21v1.85Zm-3.11-2.98c0-4.45-1.72-6.55-5.92-6.55s-6.55,2.65-6.89,6.97h12.81v-.42Z"></path><path class="cls-14" d="m227.84,2675.11v-13.61h2.94v13.27c0,4.33,2.14,5.71,5.42,5.71,3.74,0,6.55-2.69,6.55-5.63v-13.36h2.94v21h-2.6l-.25-3.36h-.08c-.97,2.02-3.23,3.91-7.23,3.91-4.66,0-7.69-2.52-7.69-7.94Z"></path><path class="cls-14" d="m253.04,2661.5h2.39l.34,3.86h.08c1.13-2.48,4.03-4.41,7.86-4.41,6.3,0,9.66,3.99,9.66,11.01s-4.29,11.09-9.87,11.09c-3.78,0-6.38-1.6-7.43-3.7h-.08v11.55h-2.94v-29.4Zm17.18,10.63c0-7.18-3.4-8.61-6.93-8.61-4.24,0-7.56,2.73-7.56,8.44,0,6.01,3.45,8.57,7.44,8.57,3.02,0,7.06-1.47,7.06-8.4Z"></path><path class="cls-14" d="m279.25,2661.5h2.39l.34,3.86h.08c1.13-2.48,4.03-4.41,7.86-4.41,6.3,0,9.66,3.99,9.66,11.01s-4.29,11.09-9.87,11.09c-3.78,0-6.38-1.6-7.43-3.7h-.08v11.55h-2.94v-29.4Zm17.18,10.63c0-7.18-3.4-8.61-6.93-8.61-4.24,0-7.56,2.73-7.56,8.44,0,6.01,3.45,8.57,7.44,8.57,3.02,0,7.06-1.47,7.06-8.4Z"></path><path class="cls-14" d="m322.72,2673.01h-15.96c.17,4.79,2.48,7.48,6.93,7.48,3.82,0,5.67-1.43,5.97-4.83h2.98c-.29,4.24-3.28,7.39-9.03,7.39-7.06,0-9.83-4.66-9.83-10.88s3.23-11.22,10-11.22,8.95,3.99,8.95,10.21v1.85Zm-3.11-2.98c0-4.45-1.72-6.55-5.92-6.55s-6.55,2.65-6.89,6.97h12.81v-.42Z"></path><path class="cls-14" d="m328.6,2661.5h2.6l.29,3.91c1.01-2.14,3.07-4.45,6.76-4.45,1.26,0,2.18.21,3.02.55v3.15c-1.13-.5-2.1-.76-3.4-.76-3.74,0-6.34,2.81-6.34,5.75v12.86h-2.94v-21Z"></path><path class="cls-14" d="m343.6,2672.17c0-6.38,3.23-11.22,10-11.22s8.95,3.91,8.95,8.95v.42h-3.11v-.63c0-3.82-1.64-6.09-5.84-6.09-4.75,0-7.02,3.11-7.02,8.4,0,5.63,2.39,8.49,6.93,8.49,3.82,0,5.84-1.85,5.92-5.67h3.02c-.08,4.66-3.15,8.23-9.03,8.23-7.22,0-9.83-4.75-9.83-10.88Z"></path><path class="cls-14" d="m366.95,2676.71c0-3.95,2.23-6.09,7.86-6.09h6.34v-1.72c0-2.98-1.26-5.42-5.46-5.42-3.95,0-5.33,1.51-5.33,4.12v.88h-2.98v-.84c0-5,4.2-6.68,8.32-6.68,5.8,0,8.4,2.86,8.4,8.44v13.11h-2.06l-.55-2.98h-.08c-1.26,1.89-3.7,3.53-7.35,3.53-4.92,0-7.1-2.31-7.1-6.34Zm14.2-1.85v-1.76h-7.01c-2.65,0-4.03.92-4.03,3.61,0,2.35,1.26,3.86,4.5,3.86,4.16,0,6.55-2.14,6.55-5.71Z"></path><path class="cls-14" d="m389.54,2676.08v-1.18h2.94v1.13c0,2.86,2.14,4.5,5.96,4.5s5.8-1.01,5.8-3.78c0-2.06-1.01-2.81-3.86-3.32l-4.62-.84c-3.02-.55-5.54-2.02-5.54-5.5,0-3.15,2.35-6.13,8.4-6.13s8.4,3.03,8.4,7.23v.88h-2.98v-.76c0-3.44-2.14-4.91-5.42-4.91-3.95,0-5.33,1.34-5.33,3.36s1.01,2.86,3.91,3.4l4.03.76c4.12.76,6.09,1.93,6.09,5.59,0,4.58-4.12,6.55-8.78,6.55-7.31,0-8.99-3.28-8.99-6.97Z"></path><path class="cls-14" d="m430.46,2673.01h-15.96c.17,4.79,2.48,7.48,6.93,7.48,3.82,0,5.67-1.43,5.97-4.83h2.98c-.29,4.24-3.28,7.39-9.03,7.39-7.06,0-9.83-4.66-9.83-10.88s3.23-11.22,10-11.22,8.95,3.99,8.95,10.21v1.85Zm-3.11-2.98c0-4.45-1.72-6.55-5.92-6.55s-6.55,2.65-6.89,6.97h12.81v-.42Z"></path><path class="cls-14" d="m445.99,2649.74h2.94v32.77h-2.94v-32.77Z"></path><path class="cls-14" d="m473.55,2673.01h-15.96c.17,4.79,2.48,7.48,6.93,7.48,3.82,0,5.67-1.43,5.97-4.83h2.98c-.29,4.24-3.28,7.39-9.03,7.39-7.06,0-9.83-4.66-9.83-10.88s3.23-11.22,10-11.22,8.95,3.99,8.95,10.21v1.85Zm-3.11-2.98c0-4.45-1.72-6.55-5.92-6.55s-6.55,2.65-6.89,6.97h12.81v-.42Z"></path><path class="cls-14" d="m480.01,2676.12v-12.18h-4.16v-2.44h4.16v-6.05l2.94-1.43v7.48h11.85v-6.05l2.94-1.43v7.48h5.92v2.44h-5.92v11.8c0,2.81.76,4.58,3.4,4.58,1.6,0,3.24-.29,4.03-.5v2.61c-.76.21-2.14.59-4.03.59-3.82,0-6.34-1.6-6.34-6.89v-12.18h-11.85v11.8c0,2.81.76,4.58,3.4,4.58,1.6,0,3.23-.29,4.03-.5v2.61c-.76.21-2.14.59-4.03.59-3.82,0-6.34-1.6-6.34-6.89Z"></path><path class="cls-14" d="m526.63,2673.01h-15.96c.17,4.79,2.48,7.48,6.93,7.48,3.82,0,5.67-1.43,5.97-4.83h2.98c-.29,4.24-3.28,7.39-9.03,7.39-7.06,0-9.83-4.66-9.83-10.88s3.23-11.22,10-11.22,8.95,3.99,8.95,10.21v1.85Zm-3.11-2.98c0-4.45-1.72-6.55-5.92-6.55s-6.55,2.65-6.89,6.97h12.81v-.42Z"></path><path class="cls-14" d="m532.51,2661.5h2.6l.29,3.91c1.01-2.14,3.07-4.45,6.76-4.45,1.26,0,2.18.21,3.02.55v3.15c-1.13-.5-2.1-.76-3.4-.76-3.74,0-6.34,2.81-6.34,5.75v12.86h-2.94v-21Z"></path><path class="cls-14" d="m547.72,2676.08v-1.18h2.94v1.13c0,2.86,2.14,4.5,5.96,4.5s5.8-1.01,5.8-3.78c0-2.06-1.01-2.81-3.86-3.32l-4.62-.84c-3.02-.55-5.54-2.02-5.54-5.5,0-3.15,2.35-6.13,8.4-6.13s8.4,3.03,8.4,7.23v.88h-2.98v-.76c0-3.44-2.14-4.91-5.42-4.91-3.95,0-5.33,1.34-5.33,3.36s1.01,2.86,3.91,3.4l4.03.76c4.12.76,6.09,1.93,6.09,5.59,0,4.58-4.12,6.55-8.78,6.55-7.31,0-8.99-3.28-8.99-6.97Z"></path><path class="cls-14" d="m172.74,1756.77h-3.36v-5.08c0-3.95.88-5.29,3.4-5.97l.67,1.85c-1.76.67-2.06,1.09-2.06,3.78v.34h1.34v5.08Zm5.92,0h-3.36v-5.08c0-3.95.88-5.29,3.4-5.97l.67,1.85c-1.76.67-2.06,1.09-2.06,3.78v.34h1.34v5.08Z"></path><path class="cls-14" d="m186.1,1746.31h3.23l11.51,20.92h.08l11.51-20.92h3.23v32.77h-2.94v-27.85h-.04l-10.75,19.91h-2.06l-10.8-19.91h-.04v27.85h-2.94v-32.77Z"></path><path class="cls-14" d="m222.38,1755.51c1.76-.67,2.06-1.09,2.06-3.78v-.34h-1.34v-5.08h3.36v5.08c0,3.95-.88,5.29-3.4,5.97l-.67-1.85Zm5.92,0c1.76-.67,2.06-1.09,2.06-3.78v-.34h-1.34v-5.08h3.36v5.08c0,3.95-.88,5.29-3.4,5.97l-.67-1.85Z"></path><path class="cls-14" d="m246.66,1773.28c0-3.95,2.23-6.09,7.86-6.09h6.34v-1.72c0-2.98-1.26-5.42-5.46-5.42-3.95,0-5.33,1.51-5.33,4.12v.88h-2.98v-.84c0-5,4.2-6.68,8.32-6.68,5.8,0,8.4,2.86,8.4,8.44v13.11h-2.06l-.55-2.98h-.08c-1.26,1.89-3.7,3.53-7.35,3.53-4.92,0-7.1-2.31-7.1-6.34Zm14.2-1.85v-1.76h-7.01c-2.65,0-4.03.92-4.03,3.61,0,2.35,1.26,3.86,4.5,3.86,4.16,0,6.55-2.14,6.55-5.71Z"></path><path class="cls-14" d="m271.15,1758.07h2.6l.29,3.49c1.01-2.14,3.28-4.03,7.35-4.03,4.75,0,7.77,2.52,7.77,7.94v13.61h-2.94v-13.27c0-4.33-2.14-5.71-5.5-5.71-3.82,0-6.64,2.69-6.64,5.63v13.36h-2.94v-21Z"></path><path class="cls-14" d="m294.83,1768.62c0-7.1,4.28-11.09,10.04-11.09,3.7,0,6.22,1.6,7.31,3.74h.04v-14.95h2.94v32.77h-1.97l-.67-3.61h-.08c-1.18,2.31-3.95,4.16-7.77,4.16-6.3,0-9.83-3.99-9.83-11.01Zm17.64-.5c0-5.5-3.36-8.07-7.35-8.07-3.11,0-7.14,1.47-7.14,8.4s3.61,8.61,7.14,8.61c4.24,0,7.35-2.73,7.35-8.95Z"></path><path class="cls-14" d="m333.85,1756.77h-3.36v-5.08c0-3.95.88-5.29,3.4-5.97l.67,1.85c-1.76.67-2.06,1.09-2.06,3.78v.34h1.34v5.08Zm5.92,0h-3.36v-5.08c0-3.95.88-5.29,3.4-5.97l.67,1.85c-1.76.67-2.06,1.09-2.06,3.78v.34h1.34v5.08Z"></path><path class="cls-14" d="m347.21,1746.31h3.15l17.69,27.6h.04v-27.6h2.94v32.77h-3.07l-17.77-27.94h-.04v27.94h-2.94v-32.77Z"></path><path class="cls-14" d="m377.74,1755.51c1.76-.67,2.06-1.09,2.06-3.78v-.34h-1.34v-5.08h3.36v5.08c0,3.95-.88,5.29-3.4,5.97l-.67-1.85Zm5.92,0c1.76-.67,2.06-1.09,2.06-3.78v-.34h-1.34v-5.08h3.36v5.08c0,3.95-.88,5.29-3.4,5.97l-.67-1.85Z"></path><path class="cls-14" d="m403.28,1746.31h2.94v15.16c1.05-2.1,3.28-3.95,7.31-3.95,4.75,0,7.77,2.52,7.77,7.94v13.61h-2.94v-13.27c0-4.33-2.14-5.71-5.5-5.71-3.82,0-6.64,2.69-6.64,5.63v13.36h-2.94v-32.77Z"></path><path class="cls-14" d="m427.39,1773.28c0-3.95,2.23-6.09,7.86-6.09h6.34v-1.72c0-2.98-1.26-5.42-5.46-5.42-3.95,0-5.33,1.51-5.33,4.12v.88h-2.98v-.84c0-5,4.2-6.68,8.32-6.68,5.8,0,8.4,2.86,8.4,8.44v13.11h-2.06l-.55-2.98h-.08c-1.26,1.89-3.7,3.53-7.35,3.53-4.92,0-7.1-2.31-7.1-6.34Zm14.2-1.85v-1.76h-7.01c-2.65,0-4.03.92-4.03,3.61,0,2.35,1.26,3.86,4.5,3.86,4.16,0,6.55-2.14,6.55-5.71Z"></path><path class="cls-14" d="m447.46,1758.12v-.04h3.36l7.35,17.98h.08l7.1-17.98h3.07v.04l-8.74,20.96h-3.02l-9.2-20.96Z"></path><path class="cls-14" d="m489.26,1769.58h-15.96c.17,4.79,2.48,7.48,6.93,7.48,3.82,0,5.67-1.43,5.97-4.83h2.98c-.29,4.24-3.28,7.39-9.03,7.39-7.06,0-9.83-4.66-9.83-10.88s3.23-11.22,10-11.22,8.95,3.99,8.95,10.21v1.85Zm-3.11-2.98c0-4.45-1.72-6.55-5.92-6.55s-6.55,2.65-6.89,6.97h12.81v-.42Z"></path><path class="cls-14" d="m145.08,1817.46c0-7.1,4.28-11.09,10.04-11.09,3.7,0,6.22,1.6,7.31,3.74h.04v-14.96h2.94v32.77h-1.97l-.67-3.61h-.08c-1.18,2.31-3.95,4.16-7.77,4.16-6.3,0-9.83-3.99-9.83-11.01Zm17.64-.5c0-5.5-3.36-8.07-7.35-8.07-3.11,0-7.14,1.47-7.14,8.4s3.61,8.61,7.14,8.61c4.24,0,7.35-2.73,7.35-8.95Z"></path><path class="cls-14" d="m172.76,1795.16h2.98v6.51h-2.98v-6.51Zm0,11.76h2.94v21h-2.94v-21Z"></path><path class="cls-14" d="m180.15,1806.92h4.16v-5.42c0-5.29,3.15-6.89,6.38-6.89,1.85,0,2.98.29,3.74.55v2.6c-.71-.21-1.89-.46-3.49-.46-2.65,0-3.7,1.76-3.7,4.58v5.04h11.13v-5.42c0-5.29,3.15-6.89,6.38-6.89,1.85,0,2.98.29,3.74.55v2.6c-.71-.21-1.89-.46-3.49-.46-2.65,0-3.7,1.76-3.7,4.58v5.04h5.92v2.44h-5.92v18.57h-2.94v-18.57h-11.13v18.57h-2.94v-18.57h-4.16v-2.44Z"></path><path class="cls-14" d="m228.08,1818.43h-15.96c.17,4.79,2.48,7.48,6.93,7.48,3.82,0,5.67-1.43,5.97-4.83h2.98c-.29,4.24-3.28,7.39-9.03,7.39-7.06,0-9.83-4.66-9.83-10.88s3.23-11.22,10-11.22,8.95,3.99,8.95,10.21v1.85Zm-3.11-2.98c0-4.45-1.72-6.55-5.92-6.55s-6.55,2.65-6.89,6.97h12.81v-.42Z"></path><path class="cls-14" d="m233.96,1806.92h2.6l.29,3.91c1.01-2.14,3.07-4.45,6.76-4.45,1.26,0,2.18.21,3.02.55v3.15c-1.13-.5-2.1-.76-3.4-.76-3.74,0-6.34,2.81-6.34,5.75v12.85h-2.94v-21Z"></path><path class="cls-14" d="m267.9,1818.43h-15.96c.17,4.79,2.48,7.48,6.93,7.48,3.82,0,5.67-1.43,5.97-4.83h2.98c-.29,4.24-3.28,7.39-9.03,7.39-7.06,0-9.83-4.66-9.83-10.88s3.23-11.22,10-11.22,8.95,3.99,8.95,10.21v1.85Zm-3.11-2.98c0-4.45-1.72-6.55-5.92-6.55s-6.55,2.65-6.89,6.97h12.81v-.42Z"></path><path class="cls-14" d="m273.77,1806.92h2.6l.29,3.49c1.01-2.14,3.28-4.03,7.35-4.03,4.75,0,7.77,2.52,7.77,7.94v13.61h-2.94v-13.27c0-4.33-2.14-5.71-5.5-5.71-3.82,0-6.64,2.69-6.64,5.63v13.36h-2.94v-21Z"></path><path class="cls-14" d="m310.1,1825.23v2.6c-.76.21-2.14.59-4.03.59-3.82,0-6.34-1.6-6.34-6.89v-12.18h-4.16v-2.44h4.16v-6.05l2.94-1.43v7.48h5.92v2.44h-5.92v11.8c0,2.81.76,4.58,3.4,4.58,1.6,0,3.23-.29,4.03-.5Z"></path><path class="cls-14" d="m322.7,1821.5v-1.18h2.94v1.13c0,2.86,2.14,4.5,5.96,4.5s5.8-1.01,5.8-3.78c0-2.06-1.01-2.81-3.86-3.32l-4.62-.84c-3.02-.55-5.54-2.02-5.54-5.5,0-3.15,2.35-6.13,8.4-6.13s8.4,3.02,8.4,7.23v.88h-2.98v-.76c0-3.44-2.14-4.92-5.42-4.92-3.95,0-5.33,1.34-5.33,3.36s1.01,2.86,3.91,3.4l4.03.76c4.12.76,6.09,1.93,6.09,5.59,0,4.58-4.12,6.55-8.78,6.55-7.31,0-8.99-3.28-8.99-6.97Z"></path><path class="cls-14" d="m357.31,1825.23v2.6c-.76.21-2.14.59-4.03.59-3.82,0-6.34-1.6-6.34-6.89v-12.18h-4.16v-2.44h4.16v-6.05l2.94-1.43v7.48h5.92v2.44h-5.92v11.8c0,2.81.76,4.58,3.4,4.58,1.6,0,3.23-.29,4.03-.5Z"></path><path class="cls-14" d="m362.14,1806.92h2.6l.29,3.91c1.01-2.14,3.07-4.45,6.76-4.45,1.26,0,2.18.21,3.02.55v3.15c-1.13-.5-2.1-.76-3.4-.76-3.74,0-6.34,2.81-6.34,5.75v12.85h-2.94v-21Z"></path><path class="cls-14" d="m379.02,1820.53v-13.61h2.94v13.27c0,4.33,2.14,5.71,5.42,5.71,3.74,0,6.55-2.69,6.55-5.63v-13.36h2.94v21h-2.6l-.25-3.36h-.08c-.97,2.02-3.23,3.91-7.23,3.91-4.66,0-7.69-2.52-7.69-7.94Z"></path><path class="cls-14" d="m402.54,1817.59c0-6.38,3.23-11.22,10-11.22s8.95,3.91,8.95,8.95v.42h-3.11v-.63c0-3.82-1.64-6.09-5.84-6.09-4.75,0-7.01,3.11-7.01,8.4,0,5.63,2.39,8.49,6.93,8.49,3.82,0,5.84-1.85,5.92-5.67h3.02c-.08,4.66-3.15,8.23-9.03,8.23-7.22,0-9.83-4.75-9.83-10.88Z"></path><path class="cls-14" d="m438.33,1825.23v2.6c-.76.21-2.14.59-4.03.59-3.82,0-6.34-1.6-6.34-6.89v-12.18h-4.16v-2.44h4.16v-6.05l2.94-1.43v7.48h5.92v2.44h-5.92v11.8c0,2.81.76,4.58,3.4,4.58,1.6,0,3.23-.29,4.03-.5Z"></path><path class="cls-14" d="m442.32,1820.53v-13.61h2.94v13.27c0,4.33,2.14,5.71,5.42,5.71,3.74,0,6.55-2.69,6.55-5.63v-13.36h2.94v21h-2.6l-.25-3.36h-.08c-.97,2.02-3.23,3.91-7.23,3.91-4.66,0-7.69-2.52-7.69-7.94Z"></path><path class="cls-14" d="m467.52,1806.92h2.6l.29,3.91c1.01-2.14,3.07-4.45,6.76-4.45,1.26,0,2.18.21,3.02.55v3.15c-1.13-.5-2.1-.76-3.4-.76-3.74,0-6.34,2.81-6.34,5.75v12.85h-2.94v-21Z"></path><path class="cls-14" d="m501.46,1818.43h-15.96c.17,4.79,2.48,7.48,6.93,7.48,3.82,0,5.67-1.43,5.97-4.83h2.98c-.29,4.24-3.28,7.39-9.03,7.39-7.06,0-9.83-4.66-9.83-10.88s3.23-11.22,10-11.22,8.95,3.99,8.95,10.21v1.85Zm-3.11-2.98c0-4.45-1.72-6.55-5.92-6.55s-6.55,2.65-6.89,6.97h12.81v-.42Z"></path><path class="cls-14" d="m505.44,1821.5v-1.18h2.94v1.13c0,2.86,2.14,4.5,5.96,4.5s5.8-1.01,5.8-3.78c0-2.06-1.01-2.81-3.86-3.32l-4.62-.84c-3.02-.55-5.54-2.02-5.54-5.5,0-3.15,2.35-6.13,8.4-6.13s8.4,3.02,8.4,7.23v.88h-2.98v-.76c0-3.44-2.14-4.92-5.42-4.92-3.95,0-5.33,1.34-5.33,3.36s1.01,2.86,3.91,3.4l4.03.76c4.12.76,6.09,1.93,6.09,5.59,0,4.58-4.12,6.55-8.78,6.55-7.31,0-8.99-3.28-8.99-6.97Z"></path><path class="cls-14" d="m166.88,874.77c0-12.01,6.76-17.27,14.74-17.27,6.97,0,12.39,3.74,12.39,12.01v.8h-2.86v-.92c0-5.92-3.78-9.24-9.45-9.24-6.72,0-11.76,4.58-11.76,14.32s5.04,14.24,11.72,14.24c5.38,0,9.54-2.86,9.54-9.2v-.59h2.77v.42c0,8.02-5.33,12.01-12.56,12.01-7.98,0-14.53-4.87-14.53-16.59Z"></path><path class="cls-14" d="m199.89,883.43v-13.61h2.94v13.27c0,4.33,2.14,5.71,5.42,5.71,3.74,0,6.55-2.69,6.55-5.63v-13.36h2.94v21h-2.6l-.25-3.36h-.08c-.97,2.02-3.23,3.91-7.23,3.91-4.66,0-7.69-2.52-7.69-7.94Z"></path><path class="cls-14" d="m225.09,869.82h2.6l.29,3.91c1.01-2.14,3.07-4.45,6.76-4.45,1.26,0,2.18.21,3.02.55v3.15c-1.13-.5-2.1-.76-3.4-.76-3.74,0-6.34,2.81-6.34,5.75v12.85h-2.94v-21Z"></path><path class="cls-14" d="m240.29,884.39v-1.18h2.94v1.13c0,2.86,2.14,4.5,5.96,4.5s5.8-1.01,5.8-3.78c0-2.06-1.01-2.81-3.86-3.32l-4.62-.84c-3.02-.55-5.54-2.02-5.54-5.5,0-3.15,2.35-6.13,8.4-6.13s8.4,3.02,8.4,7.23v.88h-2.98v-.76c0-3.44-2.14-4.91-5.42-4.91-3.95,0-5.33,1.34-5.33,3.36s1.01,2.86,3.91,3.4l4.03.76c4.12.76,6.09,1.93,6.09,5.59,0,4.58-4.12,6.55-8.78,6.55-7.31,0-8.99-3.28-8.99-6.97Z"></path><path class="cls-14" d="m263.94,858.05h2.98v6.51h-2.98v-6.51Zm0,11.76h2.94v21h-2.94v-21Z"></path><path class="cls-14" d="m271.12,869.86v-.04h3.36l7.35,17.98h.08l7.1-17.98h3.07v.04l-8.74,20.96h-3.02l-9.2-20.96Z"></path><path class="cls-14" d="m312.91,881.33h-15.96c.17,4.79,2.48,7.48,6.93,7.48,3.82,0,5.67-1.43,5.96-4.83h2.98c-.29,4.24-3.28,7.39-9.03,7.39-7.06,0-9.83-4.66-9.83-10.88s3.23-11.22,10-11.22,8.95,3.99,8.95,10.21v1.85Zm-3.11-2.98c0-4.45-1.72-6.55-5.92-6.55s-6.55,2.65-6.89,6.97h12.81v-.42Z"></path><path class="cls-14" d="m330.13,868.51h-3.36v-5.08c0-3.95.88-5.29,3.4-5.97l.67,1.85c-1.76.67-2.06,1.09-2.06,3.78v.34h1.34v5.08Zm5.92,0h-3.36v-5.08c0-3.95.88-5.29,3.4-5.97l.67,1.85c-1.76.67-2.06,1.09-2.06,3.78v.34h1.34v5.08Z"></path><path class="cls-14" d="m341.18,882.8v-3.65h2.86v3.57c0,4.41,2.6,6.01,6.68,6.01,5.25,0,7.06-2.52,7.06-7.02v-21.05h-14.37v-2.6h17.31v24.03c0,6.81-4.66,9.28-10.12,9.28-5.84,0-9.41-2.44-9.41-8.57Z"></path><path class="cls-14" d="m366.8,867.25c1.76-.67,2.06-1.09,2.06-3.78v-.34h-1.34v-5.08h3.36v5.08c0,3.95-.88,5.29-3.4,5.97l-.67-1.85Zm5.92,0c1.76-.67,2.06-1.09,2.06-3.78v-.34h-1.34v-5.08h3.36v5.08c0,3.95-.88,5.29-3.4,5.97l-.67-1.85Z"></path><path class="cls-14" d="m379.73,884.6h3.36v6.22c0,3.95-.88,5.29-3.4,5.96l-.67-1.85c1.76-.67,2.06-1.09,2.06-3.78v-.34h-1.34v-6.22Z"></path><path class="cls-14" d="m400.73,868.51h-3.36v-5.08c0-3.95.88-5.29,3.4-5.97l.67,1.85c-1.76.67-2.06,1.09-2.06,3.78v.34h1.34v5.08Zm5.92,0h-3.36v-5.08c0-3.95.88-5.29,3.4-5.97l.67,1.85c-1.76.67-2.06,1.09-2.06,3.78v.34h1.34v5.08Z"></path><path class="cls-14" d="m411.78,874.6c0-11.85,6.51-17.1,14.49-17.1,7.56,0,12.64,3.78,12.64,11.47v.5h-2.86v-.63c0-5.33-3.49-8.7-9.7-8.7-6.72,0-11.47,4.58-11.47,14.28s4.75,14.28,11.76,14.28c5.63,0,9.45-2.52,9.45-8.78v-2.73h-9.83v-2.6h12.64v16.21h-2.1l-.67-3.74c-1.6,2.48-5.17,4.28-9.75,4.28-8.32,0-14.62-4.87-14.62-16.76Z"></path><path class="cls-14" d="m443.74,867.25c1.76-.67,2.06-1.09,2.06-3.78v-.34h-1.34v-5.08h3.36v5.08c0,3.95-.88,5.29-3.4,5.97l-.67-1.85Zm5.92,0c1.76-.67,2.06-1.09,2.06-3.78v-.34h-1.34v-5.08h3.36v5.08c0,3.95-.88,5.29-3.4,5.97l-.67-1.85Z"></path><path class="cls-14" d="m468.02,885.02c0-3.95,2.23-6.09,7.86-6.09h6.34v-1.72c0-2.98-1.26-5.42-5.46-5.42-3.95,0-5.33,1.51-5.33,4.12v.88h-2.98v-.84c0-5,4.2-6.68,8.32-6.68,5.8,0,8.4,2.86,8.4,8.44v13.11h-2.06l-.55-2.98h-.08c-1.26,1.89-3.7,3.53-7.35,3.53-4.92,0-7.1-2.31-7.1-6.34Zm14.2-1.85v-1.76h-7.01c-2.65,0-4.03.92-4.03,3.61,0,2.35,1.26,3.86,4.5,3.86,4.16,0,6.55-2.14,6.55-5.71Z"></path><path class="cls-14" d="m492.5,869.82h2.6l.29,3.49c1.01-2.14,3.28-4.03,7.35-4.03,4.75,0,7.77,2.52,7.77,7.94v13.61h-2.94v-13.27c0-4.33-2.14-5.71-5.5-5.71-3.82,0-6.64,2.69-6.64,5.63v13.36h-2.94v-21Z"></path><path class="cls-14" d="m516.19,880.36c0-7.1,4.28-11.09,10.04-11.09,3.7,0,6.22,1.6,7.31,3.74h.04v-14.95h2.94v32.77h-1.97l-.67-3.61h-.08c-1.18,2.31-3.95,4.16-7.77,4.16-6.3,0-9.83-3.99-9.83-11.01Zm17.64-.5c0-5.5-3.36-8.07-7.35-8.07-3.11,0-7.14,1.47-7.14,8.4s3.61,8.61,7.14,8.61c4.24,0,7.35-2.73,7.35-8.95Z"></path><path class="cls-14" d="m555.21,868.51h-3.36v-5.08c0-3.95.88-5.29,3.4-5.97l.67,1.85c-1.76.67-2.06,1.09-2.06,3.78v.34h1.34v5.08Zm5.92,0h-3.36v-5.08c0-3.95.88-5.29,3.4-5.97l.67,1.85c-1.76.67-2.06,1.09-2.06,3.78v.34h1.34v5.08Z"></path><path class="cls-14" d="m575.66,877.76l-11.51-19.66v-.04h3.11l9.83,16.8h.08l9.87-16.8h3.11v.04l-11.55,19.66v13.06h-2.94v-13.06Z"></path><path class="cls-14" d="m592.46,867.25c1.76-.67,2.06-1.09,2.06-3.78v-.34h-1.34v-5.08h3.36v5.08c0,3.95-.88,5.29-3.4,5.97l-.67-1.85Zm5.92,0c1.76-.67,2.06-1.09,2.06-3.78v-.34h-1.34v-5.08h3.36v5.08c0,3.95-.88,5.29-3.4,5.97l-.67-1.85Z"></path><path class="cls-14" d="m207.95,918.7v-.04h2.98l5.75,17.48h.08l6.3-17.48h2.69l6.18,17.48h.08l5.75-17.48h2.86v.04l-7.18,20.96h-3.02l-5.97-17.06h-.08l-6.22,17.06h-3.02l-7.18-20.96Z"></path><path class="cls-14" d="m245.46,906.9h2.98v6.51h-2.98v-6.51Zm0,11.76h2.94v21h-2.94v-21Z"></path><path class="cls-14" d="m266.75,936.98v2.6c-.76.21-2.14.59-4.03.59-3.82,0-6.34-1.6-6.34-6.89v-12.18h-4.16v-2.44h4.16v-6.05l2.94-1.43v7.48h5.92v2.44h-5.92v11.8c0,2.81.76,4.58,3.4,4.58,1.6,0,3.23-.29,4.03-.5Z"></path><path class="cls-14" d="m271.58,906.9h2.94v15.16c1.05-2.1,3.28-3.95,7.31-3.95,4.75,0,7.77,2.52,7.77,7.94v13.61h-2.94v-13.27c0-4.33-2.14-5.71-5.5-5.71-3.82,0-6.64,2.69-6.64,5.63v13.36h-2.94v-32.77Z"></path><path class="cls-14" d="m306.61,918.66h2.6l.29,3.49c1.01-2.14,3.28-4.03,7.35-4.03,4.75,0,7.77,2.52,7.77,7.94v13.61h-2.94v-13.27c0-4.33-2.14-5.71-5.5-5.71-3.82,0-6.64,2.69-6.64,5.63v13.36h-2.94v-21Z"></path><path class="cls-14" d="m330.3,929.16c0-6.22,3.32-11.05,10.38-11.05,6.59,0,10.25,4.83,10.25,11.05s-3.7,11.05-10.29,11.05c-7.27,0-10.33-4.83-10.33-11.05Zm17.56,0c0-5.33-2.9-8.49-7.22-8.49-4.75,0-7.27,3.15-7.27,8.49s2.56,8.49,7.27,8.49c4.33,0,7.22-3.15,7.22-8.49Z"></path><path class="cls-14" d="m364.78,929.21c0-7.1,4.28-11.09,10.04-11.09,3.7,0,6.22,1.6,7.31,3.74h.04v-14.95h2.94v32.77h-1.97l-.67-3.61h-.08c-1.18,2.31-3.95,4.16-7.77,4.16-6.3,0-9.83-3.99-9.83-11.01Zm17.64-.5c0-5.5-3.36-8.07-7.35-8.07-3.11,0-7.14,1.47-7.14,8.4s3.61,8.61,7.14,8.61c4.24,0,7.35-2.73,7.35-8.95Z"></path><path class="cls-14" d="m409.72,930.17h-15.96c.17,4.79,2.48,7.48,6.93,7.48,3.82,0,5.67-1.43,5.97-4.83h2.98c-.29,4.24-3.28,7.39-9.03,7.39-7.06,0-9.83-4.66-9.83-10.88s3.23-11.22,10-11.22,8.95,3.99,8.95,10.21v1.85Zm-3.11-2.98c0-4.45-1.72-6.55-5.92-6.55s-6.55,2.65-6.89,6.97h12.81v-.42Z"></path><path class="cls-14" d="m413.71,933.24v-1.18h2.94v1.13c0,2.86,2.14,4.5,5.96,4.5s5.8-1.01,5.8-3.78c0-2.06-1.01-2.81-3.86-3.32l-4.62-.84c-3.02-.55-5.54-2.02-5.54-5.5,0-3.15,2.35-6.13,8.4-6.13s8.4,3.02,8.4,7.23v.88h-2.98v-.76c0-3.44-2.14-4.91-5.42-4.91-3.95,0-5.33,1.34-5.33,3.36s1.01,2.86,3.91,3.4l4.03.76c4.12.76,6.09,1.93,6.09,5.59,0,4.58-4.12,6.55-8.78,6.55-7.31,0-8.99-3.28-8.99-6.97Z"></path><path class="cls-14" d="m435.68,929.33c0-6.38,3.23-11.22,10-11.22s8.95,3.91,8.95,8.95v.42h-3.11v-.63c0-3.82-1.64-6.09-5.84-6.09-4.75,0-7.01,3.11-7.01,8.4,0,5.63,2.39,8.49,6.93,8.49,3.82,0,5.84-1.85,5.92-5.67h3.02c-.08,4.66-3.15,8.23-9.03,8.23-7.22,0-9.83-4.75-9.83-10.88Z"></path><path class="cls-14" d="m477.76,930.17h-15.96c.17,4.79,2.48,7.48,6.93,7.48,3.82,0,5.67-1.43,5.97-4.83h2.98c-.29,4.24-3.28,7.39-9.03,7.39-7.06,0-9.83-4.66-9.83-10.88s3.23-11.22,10-11.22,8.95,3.99,8.95,10.21v1.85Zm-3.11-2.98c0-4.45-1.72-6.55-5.92-6.55s-6.55,2.65-6.89,6.97h12.81v-.42Z"></path><path class="cls-14" d="m483.64,918.66h2.6l.29,3.49c1.01-2.14,3.28-4.03,7.35-4.03,4.75,0,7.77,2.52,7.77,7.94v13.61h-2.94v-13.27c0-4.33-2.14-5.71-5.5-5.71-3.82,0-6.64,2.69-6.64,5.63v13.36h-2.94v-21Z"></path><path class="cls-14" d="m507.33,929.21c0-7.1,4.28-11.09,10.04-11.09,3.7,0,6.22,1.6,7.31,3.74h.04v-14.95h2.94v32.77h-1.97l-.67-3.61h-.08c-1.18,2.31-3.95,4.16-7.77,4.16-6.3,0-9.83-3.99-9.83-11.01Zm17.64-.5c0-5.5-3.36-8.07-7.35-8.07-3.11,0-7.14,1.47-7.14,8.4s3.61,8.61,7.14,8.61c4.24,0,7.35-2.73,7.35-8.95Z"></path><path class="cls-14" d="m552.27,930.17h-15.96c.17,4.79,2.48,7.48,6.93,7.48,3.82,0,5.67-1.43,5.97-4.83h2.98c-.29,4.24-3.28,7.39-9.03,7.39-7.06,0-9.83-4.66-9.83-10.88s3.23-11.22,10-11.22,8.95,3.99,8.95,10.21v1.85Zm-3.11-2.98c0-4.45-1.72-6.55-5.92-6.55s-6.55,2.65-6.89,6.97h12.81v-.42Z"></path><path class="cls-14" d="m558.15,918.66h2.6l.29,3.91c1.01-2.14,3.07-4.45,6.76-4.45,1.26,0,2.18.21,3.02.55v3.15c-1.13-.5-2.1-.76-3.4-.76-3.74,0-6.34,2.81-6.34,5.75v12.85h-2.94v-21Z"></path><path class="cls-14" d="m1247.71,906.74h2.94v30.12h15.71v2.65h-18.65v-32.77Z"></path><path class="cls-14" d="m1269.51,929c0-6.22,3.32-11.05,10.38-11.05,6.6,0,10.25,4.83,10.25,11.05s-3.7,11.05-10.29,11.05c-7.27,0-10.33-4.83-10.33-11.05Zm17.56,0c0-5.33-2.9-8.49-7.23-8.49-4.75,0-7.27,3.15-7.27,8.49s2.56,8.49,7.27,8.49c4.33,0,7.23-3.15,7.23-8.49Z"></path><path class="cls-14" d="m1294.33,929c0-6.22,3.32-11.05,10.38-11.05,6.6,0,10.25,4.83,10.25,11.05s-3.7,11.05-10.29,11.05c-7.27,0-10.33-4.83-10.33-11.05Zm17.56,0c0-5.33-2.9-8.49-7.23-8.49-4.75,0-7.27,3.15-7.27,8.49s2.56,8.49,7.27,8.49c4.33,0,7.23-3.15,7.23-8.49Z"></path><path class="cls-14" d="m1320.83,918.5h2.39l.34,3.86h.08c1.13-2.48,4.03-4.41,7.86-4.41,6.3,0,9.66,3.99,9.66,11.01s-4.28,11.09-9.87,11.09c-3.78,0-6.39-1.6-7.44-3.7h-.08v11.55h-2.94v-29.41Zm17.18,10.63c0-7.18-3.4-8.61-6.93-8.61-4.24,0-7.56,2.73-7.56,8.44,0,6.01,3.44,8.57,7.44,8.57,3.02,0,7.06-1.47,7.06-8.4Z"></path><path class="cls-14" d="m1364.31,930.01h-15.96c.17,4.79,2.48,7.48,6.93,7.48,3.82,0,5.67-1.43,5.96-4.83h2.98c-.29,4.24-3.28,7.39-9.03,7.39-7.06,0-9.83-4.66-9.83-10.88s3.23-11.22,10-11.22,8.95,3.99,8.95,10.21v1.85Zm-3.11-2.98c0-4.45-1.72-6.55-5.92-6.55s-6.55,2.65-6.89,6.97h12.81v-.42Z"></path><path class="cls-14" d="m1368.5,929.04c0-7.1,4.28-11.09,10.04-11.09,3.7,0,6.22,1.6,7.31,3.74h.04v-14.95h2.94v32.77h-1.97l-.67-3.61h-.08c-1.18,2.31-3.95,4.16-7.77,4.16-6.3,0-9.83-3.99-9.83-11.01Zm17.64-.5c0-5.5-3.36-8.07-7.35-8.07-3.11,0-7.14,1.47-7.14,8.4s3.61,8.61,7.14,8.61c4.24,0,7.35-2.73,7.35-8.95Z"></path><path class="cls-14" d="m1404.58,933.7c0-3.95,2.23-6.09,7.86-6.09h6.34v-1.72c0-2.98-1.26-5.42-5.46-5.42-3.95,0-5.33,1.51-5.33,4.12v.88h-2.98v-.84c0-5,4.2-6.68,8.32-6.68,5.8,0,8.4,2.86,8.4,8.44v13.11h-2.06l-.55-2.98h-.08c-1.26,1.89-3.7,3.53-7.35,3.53-4.92,0-7.1-2.31-7.1-6.34Zm14.2-1.85v-1.76h-7.01c-2.65,0-4.03.92-4.03,3.61,0,2.35,1.26,3.86,4.5,3.86,4.16,0,6.55-2.14,6.55-5.71Z"></path><path class="cls-14" d="m1427.18,933.07v-1.18h2.94v1.13c0,2.86,2.14,4.5,5.96,4.5s5.8-1.01,5.8-3.78c0-2.06-1.01-2.81-3.86-3.32l-4.62-.84c-3.02-.55-5.54-2.02-5.54-5.5,0-3.15,2.35-6.13,8.4-6.13s8.4,3.02,8.4,7.23v.88h-2.98v-.76c0-3.44-2.14-4.91-5.42-4.91-3.95,0-5.33,1.34-5.33,3.36s1.01,2.86,3.91,3.4l4.03.76c4.12.76,6.09,1.93,6.09,5.59,0,4.58-4.12,6.55-8.78,6.55-7.31,0-8.99-3.28-8.99-6.97Z"></path><path class="cls-14" d="m1449.14,929.17c0-6.38,3.23-11.22,10-11.22s8.95,3.91,8.95,8.95v.42h-3.11v-.63c0-3.82-1.64-6.09-5.84-6.09-4.75,0-7.01,3.11-7.01,8.4,0,5.63,2.39,8.49,6.93,8.49,3.82,0,5.84-1.85,5.92-5.67h3.02c-.08,4.66-3.15,8.23-9.03,8.23-7.22,0-9.83-4.75-9.83-10.88Z"></path><path class="cls-14" d="m1491.23,930.01h-15.96c.17,4.79,2.48,7.48,6.93,7.48,3.82,0,5.67-1.43,5.97-4.83h2.98c-.29,4.24-3.28,7.39-9.03,7.39-7.06,0-9.83-4.66-9.83-10.88s3.23-11.22,10-11.22,8.95,3.99,8.95,10.21v1.85Zm-3.11-2.98c0-4.45-1.72-6.55-5.92-6.55s-6.55,2.65-6.89,6.97h12.81v-.42Z"></path><path class="cls-14" d="m1497.11,918.5h2.6l.29,3.49c1.01-2.14,3.28-4.03,7.35-4.03,4.75,0,7.77,2.52,7.77,7.94v13.61h-2.94v-13.27c0-4.33-2.14-5.71-5.5-5.71-3.82,0-6.64,2.69-6.64,5.63v13.36h-2.94v-21Z"></path><path class="cls-14" d="m1520.8,929.04c0-7.1,4.28-11.09,10.04-11.09,3.7,0,6.22,1.6,7.31,3.74h.04v-14.95h2.94v32.77h-1.97l-.67-3.61h-.08c-1.18,2.31-3.95,4.16-7.77,4.16-6.3,0-9.83-3.99-9.83-11.01Zm17.64-.5c0-5.5-3.36-8.07-7.35-8.07-3.11,0-7.14,1.47-7.14,8.4s3.61,8.61,7.14,8.61c4.24,0,7.35-2.73,7.35-8.95Z"></path><path class="cls-14" d="m1565.74,930.01h-15.96c.17,4.79,2.48,7.48,6.93,7.48,3.82,0,5.67-1.43,5.97-4.83h2.98c-.29,4.24-3.28,7.39-9.03,7.39-7.06,0-9.83-4.66-9.83-10.88s3.23-11.22,10-11.22,8.95,3.99,8.95,10.21v1.85Zm-3.11-2.98c0-4.45-1.72-6.55-5.92-6.55s-6.55,2.65-6.89,6.97h12.81v-.42Z"></path><path class="cls-14" d="m1571.62,918.5h2.6l.29,3.91c1.01-2.14,3.07-4.45,6.76-4.45,1.26,0,2.18.21,3.02.55v3.15c-1.13-.5-2.1-.76-3.4-.76-3.74,0-6.34,2.81-6.34,5.75v12.85h-2.94v-21Z"></path><path class="cls-14" d="m1586.82,933.07v-1.18h2.94v1.13c0,2.86,2.14,4.5,5.96,4.5s5.8-1.01,5.8-3.78c0-2.06-1.01-2.81-3.86-3.32l-4.62-.84c-3.02-.55-5.54-2.02-5.54-5.5,0-3.15,2.35-6.13,8.4-6.13s8.4,3.02,8.4,7.23v.88h-2.98v-.76c0-3.44-2.14-4.91-5.42-4.91-3.95,0-5.33,1.34-5.33,3.36s1.01,2.86,3.91,3.4l4.03.76c4.12.76,6.09,1.93,6.09,5.59,0,4.58-4.12,6.55-8.78,6.55-7.31,0-8.99-3.28-8.99-6.97Z"></path><path class="cls-14" d="m728.64,2649.77h2.94v30.12h15.71v2.65h-18.65v-32.77Z"></path><path class="cls-14" d="m750.44,2672.04c0-6.22,3.32-11.05,10.38-11.05,6.6,0,10.25,4.83,10.25,11.05s-3.7,11.05-10.29,11.05c-7.27,0-10.33-4.83-10.33-11.05Zm17.56,0c0-5.33-2.9-8.49-7.23-8.49-4.75,0-7.27,3.15-7.27,8.49s2.56,8.49,7.27,8.49c4.33,0,7.23-3.15,7.23-8.49Z"></path><path class="cls-14" d="m775.26,2672.04c0-6.22,3.32-11.05,10.38-11.05,6.6,0,10.25,4.83,10.25,11.05s-3.7,11.05-10.29,11.05c-7.27,0-10.33-4.83-10.33-11.05Zm17.56,0c0-5.33-2.9-8.49-7.23-8.49-4.75,0-7.27,3.15-7.27,8.49s2.56,8.49,7.27,8.49c4.33,0,7.23-3.15,7.23-8.49Z"></path><path class="cls-14" d="m801.76,2661.54h2.39l.34,3.87h.08c1.13-2.48,4.03-4.41,7.86-4.41,6.3,0,9.66,3.99,9.66,11.01s-4.28,11.09-9.87,11.09c-3.78,0-6.39-1.6-7.44-3.7h-.08v11.55h-2.94v-29.41Zm17.18,10.63c0-7.18-3.4-8.61-6.93-8.61-4.24,0-7.56,2.73-7.56,8.44,0,6.01,3.44,8.57,7.44,8.57,3.02,0,7.06-1.47,7.06-8.4Z"></path><path class="cls-14" d="m845.24,2673.05h-15.96c.17,4.79,2.48,7.48,6.93,7.48,3.82,0,5.67-1.43,5.96-4.83h2.98c-.29,4.24-3.28,7.39-9.03,7.39-7.06,0-9.83-4.66-9.83-10.88s3.23-11.22,10-11.22,8.95,3.99,8.95,10.21v1.85Zm-3.11-2.98c0-4.45-1.72-6.55-5.92-6.55s-6.55,2.65-6.89,6.97h12.81v-.42Z"></path><path class="cls-14" d="m849.43,2672.08c0-7.1,4.28-11.09,10.04-11.09,3.7,0,6.22,1.6,7.31,3.74h.04v-14.96h2.94v32.77h-1.97l-.67-3.61h-.08c-1.18,2.31-3.95,4.16-7.77,4.16-6.3,0-9.83-3.99-9.83-11.01Zm17.64-.5c0-5.5-3.36-8.07-7.35-8.07-3.11,0-7.14,1.47-7.14,8.4s3.61,8.61,7.14,8.61c4.24,0,7.35-2.73,7.35-8.95Z"></path><path class="cls-14" d="m885.09,2672.08c0-7.1,4.28-11.09,10.04-11.09,3.7,0,6.22,1.6,7.31,3.74h.04v-14.96h2.94v32.77h-1.97l-.67-3.61h-.08c-1.18,2.31-3.95,4.16-7.77,4.16-6.3,0-9.83-3.99-9.83-11.01Zm17.64-.5c0-5.5-3.36-8.07-7.35-8.07-3.11,0-7.14,1.47-7.14,8.4s3.61,8.61,7.14,8.61c4.24,0,7.35-2.73,7.35-8.95Z"></path><path class="cls-14" d="m930.03,2673.05h-15.96c.17,4.79,2.48,7.48,6.93,7.48,3.82,0,5.67-1.43,5.97-4.83h2.98c-.29,4.24-3.28,7.39-9.03,7.39-7.06,0-9.83-4.66-9.83-10.88s3.23-11.22,10-11.22,8.95,3.99,8.95,10.21v1.85Zm-3.11-2.98c0-4.45-1.72-6.55-5.92-6.55s-6.55,2.65-6.89,6.97h12.81v-.42Z"></path><path class="cls-14" d="m934.02,2676.11v-1.18h2.94v1.13c0,2.86,2.14,4.5,5.96,4.5s5.8-1.01,5.8-3.78c0-2.06-1.01-2.81-3.86-3.32l-4.62-.84c-3.02-.55-5.54-2.02-5.54-5.5,0-3.15,2.35-6.13,8.4-6.13s8.4,3.02,8.4,7.23v.88h-2.98v-.76c0-3.44-2.14-4.92-5.42-4.92-3.95,0-5.33,1.34-5.33,3.36s1.01,2.86,3.91,3.4l4.03.76c4.12.76,6.09,1.93,6.09,5.59,0,4.58-4.12,6.55-8.78,6.55-7.31,0-8.99-3.28-8.99-6.97Z"></path><path class="cls-14" d="m955.99,2672.21c0-6.38,3.23-11.22,10-11.22s8.95,3.91,8.95,8.95v.42h-3.11v-.63c0-3.82-1.64-6.09-5.84-6.09-4.75,0-7.01,3.11-7.01,8.4,0,5.63,2.39,8.49,6.93,8.49,3.82,0,5.84-1.85,5.92-5.67h3.02c-.08,4.66-3.15,8.23-9.03,8.23-7.22,0-9.83-4.75-9.83-10.88Z"></path><path class="cls-14" d="m998.07,2673.05h-15.96c.17,4.79,2.48,7.48,6.93,7.48,3.82,0,5.67-1.43,5.97-4.83h2.98c-.29,4.24-3.28,7.39-9.03,7.39-7.06,0-9.83-4.66-9.83-10.88s3.23-11.22,10-11.22,8.95,3.99,8.95,10.21v1.85Zm-3.11-2.98c0-4.45-1.72-6.55-5.92-6.55s-6.55,2.65-6.89,6.97h12.81v-.42Z"></path><path class="cls-14" d="m1003.95,2661.54h2.6l.29,3.49c1.01-2.14,3.28-4.03,7.35-4.03,4.75,0,7.77,2.52,7.77,7.94v13.61h-2.94v-13.27c0-4.33-2.14-5.71-5.5-5.71-3.82,0-6.64,2.69-6.64,5.63v13.36h-2.94v-21Z"></path><path class="cls-14" d="m1027.64,2672.08c0-7.1,4.28-11.09,10.04-11.09,3.7,0,6.22,1.6,7.31,3.74h.04v-14.96h2.94v32.77h-1.97l-.67-3.61h-.08c-1.18,2.31-3.95,4.16-7.77,4.16-6.3,0-9.83-3.99-9.83-11.01Zm17.64-.5c0-5.5-3.36-8.07-7.35-8.07-3.11,0-7.14,1.47-7.14,8.4s3.61,8.61,7.14,8.61c4.24,0,7.35-2.73,7.35-8.95Z"></path><path class="cls-14" d="m1072.58,2673.05h-15.96c.17,4.79,2.48,7.48,6.93,7.48,3.82,0,5.67-1.43,5.97-4.83h2.98c-.29,4.24-3.28,7.39-9.03,7.39-7.06,0-9.83-4.66-9.83-10.88s3.23-11.22,10-11.22,8.95,3.99,8.95,10.21v1.85Zm-3.11-2.98c0-4.45-1.72-6.55-5.92-6.55s-6.55,2.65-6.89,6.97h12.81v-.42Z"></path><path class="cls-14" d="m1078.46,2661.54h2.6l.29,3.91c1.01-2.14,3.07-4.45,6.76-4.45,1.26,0,2.18.21,3.02.55v3.15c-1.13-.5-2.1-.76-3.4-.76-3.74,0-6.34,2.81-6.34,5.75v12.85h-2.94v-21Z"></path><path class="cls-14" d="m1093.66,2676.11v-1.18h2.94v1.13c0,2.86,2.14,4.5,5.96,4.5s5.8-1.01,5.8-3.78c0-2.06-1.01-2.81-3.86-3.32l-4.62-.84c-3.02-.55-5.54-2.02-5.54-5.5,0-3.15,2.35-6.13,8.4-6.13s8.4,3.02,8.4,7.23v.88h-2.98v-.76c0-3.44-2.14-4.92-5.42-4.92-3.95,0-5.33,1.34-5.33,3.36s1.01,2.86,3.91,3.4l4.03.76c4.12.76,6.09,1.93,6.09,5.59,0,4.58-4.12,6.55-8.78,6.55-7.31,0-8.99-3.28-8.99-6.97Z"></path><path class="cls-14" d="m1521.33,1818.27v-2.02h3.02v2.18c0,3.74,2.6,6.05,7.94,6.05s8.44-1.97,8.44-6.22c0-3.32-1.39-5.17-4.92-6.09l-6.64-1.72c-4.33-1.13-7.18-2.98-7.18-8.15s3.78-8.91,10.92-8.91,10.59,3.44,10.59,9.07v2.94h-3.02v-2.81c0-4.62-3.07-6.51-7.56-6.51-5.12,0-7.81,2.14-7.81,6.01,0,3.61,1.76,4.7,5.54,5.71l5.75,1.55c5.12,1.39,7.44,3.74,7.44,8.65,0,6.09-4.33,9.24-11.47,9.24-9.12,0-11.05-4.7-11.05-8.99Z"></path><path class="cls-14" d="m1551.03,1793.94h2.94v15.16c1.05-2.1,3.28-3.95,7.31-3.95,4.75,0,7.77,2.52,7.77,7.94v13.61h-2.94v-13.27c0-4.33-2.14-5.71-5.5-5.71-3.82,0-6.64,2.69-6.64,5.63v13.36h-2.94v-32.77Z"></path><path class="cls-14" d="m1574.71,1816.21c0-6.22,3.32-11.05,10.38-11.05,6.59,0,10.25,4.83,10.25,11.05s-3.7,11.05-10.29,11.05c-7.27,0-10.33-4.83-10.33-11.05Zm17.56,0c0-5.33-2.9-8.49-7.22-8.49-4.75,0-7.27,3.15-7.27,8.49s2.56,8.49,7.27,8.49c4.33,0,7.22-3.15,7.22-8.49Z"></path><path class="cls-14" d="m1601.22,1805.71h2.6l.29,3.91c1.01-2.14,3.07-4.45,6.76-4.45,1.26,0,2.18.21,3.02.55v3.15c-1.13-.5-2.1-.76-3.4-.76-3.74,0-6.34,2.81-6.34,5.75v12.85h-2.94v-21Z"></path><path class="cls-14" d="m1629.48,1824.02v2.6c-.76.21-2.14.59-4.03.59-3.82,0-6.34-1.6-6.34-6.89v-12.18h-4.16v-2.44h4.16v-6.05l2.94-1.43v7.48h5.92v2.44h-5.92v11.8c0,2.81.76,4.58,3.4,4.58,1.6,0,3.23-.29,4.03-.5Z"></path><path class="cls-14" d="m1645.65,1804.4h-3.36v-5.08c0-3.95.88-5.29,3.4-5.97l.67,1.85c-1.76.67-2.06,1.09-2.06,3.78v.34h1.34v5.08Zm5.92,0h-3.36v-5.08c0-3.95.88-5.29,3.4-5.97l.67,1.85c-1.76.67-2.06,1.09-2.06,3.78v.34h1.34v5.08Z"></path><path class="cls-14" d="m1661.7,1800.66v5.04h5.92v2.44h-5.92v18.57h-2.94v-18.57h-4.16v-2.44h4.16v-5.42c0-5.29,3.15-6.89,6.38-6.89,1.85,0,2.98.29,3.74.55v2.6c-.71-.21-1.89-.46-3.49-.46-2.65,0-3.7,1.76-3.7,4.58Z"></path><path class="cls-14" d="m1672.24,1803.14c1.76-.67,2.06-1.09,2.06-3.78v-.34h-1.34v-5.08h3.36v5.08c0,3.95-.88,5.29-3.4,5.97l-.67-1.85Zm5.92,0c1.76-.67,2.06-1.09,2.06-3.78v-.34h-1.34v-5.08h3.36v5.08c0,3.95-.88,5.29-3.4,5.97l-.67-1.85Z"></path><path class="cls-14" d="m683.35,1761.7c0-12.01,6.76-17.27,14.74-17.27,6.97,0,12.39,3.74,12.39,12.01v.8h-2.86v-.92c0-5.92-3.78-9.24-9.45-9.24-6.72,0-11.76,4.58-11.76,14.32s5.04,14.24,11.72,14.24c5.38,0,9.54-2.86,9.54-9.2v-.59h2.77v.42c0,8.02-5.33,12.01-12.56,12.01-7.98,0-14.53-4.87-14.53-16.59Z"></path><path class="cls-14" d="m716.36,1770.35v-13.61h2.94v13.27c0,4.33,2.14,5.71,5.42,5.71,3.74,0,6.55-2.69,6.55-5.63v-13.36h2.94v21h-2.6l-.25-3.36h-.08c-.97,2.02-3.24,3.91-7.23,3.91-4.66,0-7.69-2.52-7.69-7.94Z"></path><path class="cls-14" d="m741.56,1756.74h2.6l.29,3.91c1.01-2.14,3.07-4.45,6.76-4.45,1.26,0,2.18.21,3.02.55v3.15c-1.13-.5-2.1-.76-3.4-.76-3.74,0-6.34,2.81-6.34,5.75v12.85h-2.94v-21Z"></path><path class="cls-14" d="m755.72,1756.78v-.04h3.36l7.35,17.98h.08l7.1-17.98h3.07v.04l-8.74,20.96h-3.03l-9.2-20.96Z"></path><path class="cls-14" d="m797.51,1768.25h-15.96c.17,4.79,2.48,7.48,6.93,7.48,3.82,0,5.67-1.43,5.96-4.83h2.98c-.29,4.24-3.28,7.39-9.03,7.39-7.06,0-9.83-4.66-9.83-10.88s3.23-11.22,10-11.22,8.95,3.99,8.95,10.21v1.85Zm-3.11-2.98c0-4.45-1.72-6.55-5.92-6.55s-6.55,2.65-6.89,6.97h12.81v-.42Z"></path><path class="cls-14" d="m801.71,1767.29c0-7.1,4.29-11.09,10.04-11.09,3.7,0,6.22,1.6,7.31,3.74h.04v-14.95h2.94v32.77h-1.97l-.67-3.61h-.08c-1.18,2.31-3.95,4.16-7.77,4.16-6.3,0-9.83-3.99-9.83-11.01Zm17.64-.5c0-5.5-3.36-8.07-7.35-8.07-3.11,0-7.14,1.47-7.14,8.4s3.61,8.61,7.14,8.61c4.24,0,7.35-2.73,7.35-8.95Z"></path><path class="cls-14" d="m856.31,1768.25h-15.96c.17,4.79,2.48,7.48,6.93,7.48,3.82,0,5.67-1.43,5.96-4.83h2.98c-.29,4.24-3.28,7.39-9.03,7.39-7.06,0-9.83-4.66-9.83-10.88s3.23-11.22,10-11.22,8.95,3.99,8.95,10.21v1.85Zm-3.11-2.98c0-4.45-1.72-6.55-5.92-6.55s-6.55,2.65-6.89,6.97h12.81v-.42Z"></path><path class="cls-14" d="m862.19,1756.74h2.6l.29,3.49c1.01-2.14,3.28-4.03,7.35-4.03,4.75,0,7.77,2.52,7.77,7.94v13.61h-2.94v-13.27c0-4.33-2.14-5.71-5.5-5.71-3.82,0-6.64,2.69-6.64,5.63v13.36h-2.94v-21Z"></path><path class="cls-14" d="m898.52,1775.06v2.6c-.76.21-2.14.59-4.03.59-3.82,0-6.34-1.6-6.34-6.89v-12.18h-4.16v-2.44h4.16v-6.05l2.94-1.43v7.48h5.92v2.44h-5.92v11.8c0,2.81.76,4.58,3.4,4.58,1.6,0,3.24-.29,4.03-.5Z"></path><path class="cls-14" d="m903.35,1756.74h2.6l.29,3.91c1.01-2.14,3.07-4.45,6.76-4.45,1.26,0,2.18.21,3.02.55v3.15c-1.13-.5-2.1-.76-3.4-.76-3.74,0-6.34,2.81-6.34,5.75v12.85h-2.94v-21Z"></path><path class="cls-14" d="m920.86,1756.74l6.89,17.98h.08l7.14-17.98h3.07v.04l-8.86,20.84-3.11,8.53h-2.98v-.04l3.19-8.36-8.78-20.96v-.04h3.36Z"></path><path class="cls-14" d="m950.01,1771.32v-1.18h2.94v1.13c0,2.86,2.14,4.5,5.96,4.5s5.8-1.01,5.8-3.78c0-2.06-1.01-2.81-3.86-3.32l-4.62-.84c-3.02-.55-5.54-2.02-5.54-5.5,0-3.15,2.35-6.13,8.4-6.13s8.4,3.02,8.4,7.23v.88h-2.98v-.76c0-3.44-2.14-4.91-5.42-4.91-3.95,0-5.33,1.34-5.33,3.36s1.01,2.86,3.91,3.4l4.03.76c4.12.76,6.09,1.93,6.09,5.59,0,4.58-4.12,6.55-8.78,6.55-7.31,0-8.99-3.28-8.99-6.97Z"></path><path class="cls-14" d="m984.62,1775.06v2.6c-.76.21-2.14.59-4.03.59-3.82,0-6.34-1.6-6.34-6.89v-12.18h-4.16v-2.44h4.16v-6.05l2.94-1.43v7.48h5.92v2.44h-5.92v11.8c0,2.81.76,4.58,3.4,4.58,1.6,0,3.23-.29,4.03-.5Z"></path><path class="cls-14" d="m989.45,1756.74h2.6l.29,3.91c1.01-2.14,3.07-4.45,6.76-4.45,1.26,0,2.18.21,3.02.55v3.15c-1.13-.5-2.1-.76-3.4-.76-3.74,0-6.34,2.81-6.34,5.75v12.85h-2.94v-21Z"></path><path class="cls-14" d="m1004.44,1767.24c0-6.22,3.32-11.05,10.38-11.05,6.59,0,10.25,4.83,10.25,11.05s-3.7,11.05-10.29,11.05c-7.27,0-10.33-4.83-10.33-11.05Zm17.56,0c0-5.33-2.9-8.49-7.22-8.49-4.75,0-7.27,3.15-7.27,8.49s2.56,8.49,7.27,8.49c4.33,0,7.22-3.15,7.22-8.49Z"></path><path class="cls-14" d="m1030.31,1744.98h2.94v23.23l12.14-11.47h3.65v.04l-8.4,7.86,8.78,13.06v.04h-3.36l-7.39-11.22-5.42,5.04v6.18h-2.94v-32.77Z"></path><path class="cls-14" d="m1070.68,1768.25h-15.96c.17,4.79,2.48,7.48,6.93,7.48,3.82,0,5.67-1.43,5.97-4.83h2.98c-.29,4.24-3.28,7.39-9.03,7.39-7.06,0-9.83-4.66-9.83-10.88s3.23-11.22,10-11.22,8.95,3.99,8.95,10.21v1.85Zm-3.11-2.98c0-4.45-1.72-6.55-5.92-6.55s-6.55,2.65-6.89,6.97h12.81v-.42Z"></path><path class="cls-14" d="m1074.67,1771.32v-1.18h2.94v1.13c0,2.86,2.14,4.5,5.96,4.5s5.8-1.01,5.8-3.78c0-2.06-1.01-2.81-3.86-3.32l-4.62-.84c-3.02-.55-5.54-2.02-5.54-5.5,0-3.15,2.35-6.13,8.4-6.13s8.4,3.02,8.4,7.23v.88h-2.98v-.76c0-3.44-2.14-4.91-5.42-4.91-3.95,0-5.33,1.34-5.33,3.36s1.01,2.86,3.91,3.4l4.03.76c4.12.76,6.09,1.93,6.09,5.59,0,4.58-4.12,6.55-8.78,6.55-7.31,0-8.99-3.28-8.99-6.97Z"></path><path class="cls-14" d="m730.22,1793.83h2.98v6.51h-2.98v-6.51Zm0,11.76h2.94v21h-2.94v-21Z"></path><path class="cls-14" d="m740.55,1805.59h2.6l.29,3.49c1.01-2.14,3.28-4.03,7.35-4.03,4.75,0,7.77,2.52,7.77,7.94v13.61h-2.94v-13.27c0-4.33-2.14-5.71-5.5-5.71-3.82,0-6.64,2.69-6.64,5.63v13.36h-2.94v-21Z"></path><path class="cls-14" d="m777.26,1804.29h-3.36v-5.08c0-3.95.88-5.29,3.4-5.97l.67,1.85c-1.76.67-2.06,1.09-2.06,3.78v.34h1.34v5.08Zm5.92,0h-3.36v-5.08c0-3.95.88-5.29,3.4-5.97l.67,1.85c-1.76.67-2.06,1.09-2.06,3.78v.34h1.34v5.08Z"></path><path class="cls-14" d="m820.28,1812.98v13.61h-2.94v-13.27c0-4.33-2.14-5.71-4.75-5.71-3.82,0-6.17,2.69-6.17,5.63v13.36h-2.94v-13.27c0-4.33-1.85-5.71-4.83-5.71-3.61,0-6.13,2.69-6.13,5.63v13.36h-2.94v-21h2.6l.29,3.49c1.01-2.02,3.07-4.03,6.93-4.03,2.94,0,5.38,1.39,6.43,4.28,1.22-2.39,3.57-4.28,7.14-4.28,4.29,0,7.31,2.52,7.31,7.94Z"></path><path class="cls-14" d="m824.68,1803.03c1.76-.67,2.06-1.09,2.06-3.78v-.34h-1.34v-5.08h3.36v5.08c0,3.95-.88,5.29-3.4,5.97l-.67-1.85Zm5.92,0c1.76-.67,2.06-1.09,2.06-3.78v-.34h-1.34v-5.08h3.36v5.08c0,3.95-.88,5.29-3.4,5.97l-.67-1.85Z"></path><path class="cls-14" d="m837.62,1820.38h3.36v6.22c0,3.95-.88,5.29-3.4,5.96l-.67-1.85c1.76-.67,2.06-1.09,2.06-3.78v-.34h-1.34v-6.22Z"></path><path class="cls-14" d="m858.62,1804.29h-3.36v-5.08c0-3.95.88-5.29,3.4-5.97l.67,1.85c-1.76.67-2.06,1.09-2.06,3.78v.34h1.34v5.08Zm5.92,0h-3.36v-5.08c0-3.95.88-5.29,3.4-5.97l.67,1.85c-1.76.67-2.06,1.09-2.06,3.78v.34h1.34v5.08Z"></path><path class="cls-14" d="m870.92,1805.59h2.6l.29,3.49c1.01-2.14,3.28-4.03,7.35-4.03,4.75,0,7.77,2.52,7.77,7.94v13.61h-2.94v-13.27c0-4.33-2.14-5.71-5.5-5.71-3.82,0-6.64,2.69-6.64,5.63v13.36h-2.94v-21Z"></path><path class="cls-14" d="m893.35,1803.03c1.76-.67,2.06-1.09,2.06-3.78v-.34h-1.34v-5.08h3.36v5.08c0,3.95-.88,5.29-3.4,5.97l-.67-1.85Zm5.92,0c1.76-.67,2.06-1.09,2.06-3.78v-.34h-1.34v-5.08h3.36v5.08c0,3.95-.88,5.29-3.4,5.97l-.67-1.85Z"></path><path class="cls-14" d="m917.63,1820.8c0-3.95,2.23-6.09,7.86-6.09h6.34v-1.72c0-2.98-1.26-5.42-5.46-5.42-3.95,0-5.33,1.51-5.33,4.12v.88h-2.98v-.84c0-5,4.2-6.68,8.32-6.68,5.8,0,8.4,2.86,8.4,8.44v13.11h-2.06l-.55-2.98h-.08c-1.26,1.89-3.7,3.53-7.35,3.53-4.92,0-7.1-2.31-7.1-6.34Zm14.2-1.85v-1.76h-7.01c-2.65,0-4.03.92-4.03,3.61,0,2.35,1.26,3.86,4.5,3.86,4.16,0,6.55-2.14,6.55-5.71Z"></path><path class="cls-14" d="m942.11,1805.59h2.6l.29,3.49c1.01-2.14,3.28-4.03,7.35-4.03,4.75,0,7.77,2.52,7.77,7.94v13.61h-2.94v-13.27c0-4.33-2.14-5.71-5.5-5.71-3.82,0-6.64,2.69-6.64,5.63v13.36h-2.94v-21Z"></path><path class="cls-14" d="m965.8,1816.13c0-7.1,4.28-11.09,10.04-11.09,3.7,0,6.22,1.6,7.31,3.74h.04v-14.95h2.94v32.77h-1.97l-.67-3.61h-.08c-1.18,2.31-3.95,4.16-7.77,4.16-6.3,0-9.83-3.99-9.83-11.01Zm17.64-.5c0-5.5-3.36-8.07-7.35-8.07-3.11,0-7.14,1.47-7.14,8.4s3.61,8.61,7.14,8.61c4.24,0,7.35-2.73,7.35-8.95Z"></path><path class="cls-14" d="m1004.82,1804.29h-3.36v-5.08c0-3.95.88-5.29,3.4-5.97l.67,1.85c-1.76.67-2.06,1.09-2.06,3.78v.34h1.34v5.08Zm5.92,0h-3.36v-5.08c0-3.95.88-5.29,3.4-5.97l.67,1.85c-1.76.67-2.06,1.09-2.06,3.78v.34h1.34v5.08Z"></path><path class="cls-14" d="m1017.33,1805.59l6.89,17.98h.08l7.14-17.98h3.07v.04l-8.86,20.84-3.11,8.53h-2.98v-.04l3.19-8.36-8.78-20.96v-.04h3.36Z"></path><path class="cls-14" d="m1036.82,1803.03c1.76-.67,2.06-1.09,2.06-3.78v-.34h-1.34v-5.08h3.36v5.08c0,3.95-.88,5.29-3.4,5.97l-.67-1.85Zm5.92,0c1.76-.67,2.06-1.09,2.06-3.78v-.34h-1.34v-5.08h3.36v5.08c0,3.95-.88,5.29-3.4,5.97l-.67-1.85Z"></path><path class="cls-14" d="m1362.01,2652.58h-11.51v-2.6h25.96v2.6h-11.51v30.16h-2.94v-30.16Z"></path><path class="cls-14" d="m1375.2,2676.94c0-3.95,2.23-6.09,7.86-6.09h6.34v-1.72c0-2.98-1.26-5.42-5.46-5.42-3.95,0-5.33,1.51-5.33,4.12v.88h-2.98v-.84c0-5,4.2-6.68,8.32-6.68,5.8,0,8.4,2.86,8.4,8.44v13.11h-2.06l-.55-2.98h-.08c-1.26,1.89-3.7,3.53-7.35,3.53-4.91,0-7.1-2.31-7.1-6.34Zm14.2-1.85v-1.76h-7.02c-2.65,0-4.03.92-4.03,3.61,0,2.35,1.26,3.86,4.5,3.86,4.16,0,6.55-2.14,6.55-5.71Z"></path><path class="cls-14" d="m1399.68,2649.97h2.94v32.77h-2.94v-32.77Z"></path><path class="cls-14" d="m1409.97,2649.97h2.94v32.77h-2.94v-32.77Z"></path><path class="cls-14" d="m1431.6,2660.43h-3.36v-5.08c0-3.95.88-5.29,3.4-5.97l.67,1.85c-1.76.67-2.06,1.09-2.06,3.78v.34h1.34v5.08Zm5.92,0h-3.36v-5.08c0-3.95.88-5.29,3.4-5.97l.67,1.85c-1.76.67-2.06,1.09-2.06,3.78v.34h1.34v5.08Z"></path><path class="cls-14" d="m1454.87,2680.05v2.61c-.76.21-2.14.59-4.03.59-3.82,0-6.34-1.6-6.34-6.89v-12.18h-4.16v-2.44h4.16v-6.05l2.94-1.43v7.48h5.92v2.44h-5.92v11.8c0,2.81.76,4.58,3.4,4.58,1.6,0,3.23-.29,4.03-.5Z"></path><path class="cls-14" d="m1456.76,2659.17c1.76-.67,2.06-1.09,2.06-3.78v-.34h-1.34v-5.08h3.36v5.08c0,3.95-.88,5.29-3.4,5.96l-.67-1.85Zm5.92,0c1.76-.67,2.06-1.09,2.06-3.78v-.34h-1.34v-5.08h3.36v5.08c0,3.95-.88,5.29-3.4,5.96l-.67-1.85Z"></path><line class="cls-5" x1="1421.68" y1="2835.5" x2="1421.68" y2="2834.63"></line><line class="cls-6" x1="1421.68" y1="2817.96" x2="1421.68" y2="2716.27"></line><line class="cls-5" x1="1421.68" y1="2707.94" x2="1421.68" y2="2707.06"></line><circle class="cls-18" cx="807.61" cy="2433.7" r="101.06"></circle><circle class="cls-18" cx="1026.64" cy="1281.98" r="56.13"></circle><circle class="cls-18" cx="1487.24" cy="1176.68" r="122.63"></circle><path class="cls-15" d="m453.71,491.41c7.83,0,13.71,6.36,13.71,13.7,0,1.47-.49,3.43-.98,4.89-6.36,16.15,3.43,29.37,20.56,29.37,22.03,0,49.44-21.54,74.4-63.14,21.54-35.73,41.6-85.66,56.78-131.18.49-1.47,27.9,7.83,23.49,9.3-23.98,48.46-88.59,103.28-135.58,103.28-36.71,0-64.61-30.84-64.61-90.55,0-117.96,105.72-170.33,149.29-170.33,32.79,0,41.12,20.56,37.69,38.18-12.73,60.69-128.73,105.24-188.93,105.24-47.97,0-96.91-26.92-61.67-98.87,1.96-4.41,6.85-7.83,11.75-7.83,7.83,0,13.7,6.36,13.7,13.71,0,1.96-.49,3.92-1.47,5.87-23.98,48.95,3.92,60.2,37.69,60.2,53.35,0,153.69-41.6,162.5-83.21.98-5.38-.98-6.36-11.26-6.36-32.3,0-122.37,43.56-122.37,143.41,0,45.03,16.64,63.63,37.69,63.63,34.26,0,90.06-46.01,111.11-87.13,6.85-16.64,32.3-7.83,26.43,10.28-15.17,45.52-36.22,98.38-58.74,136.07-28.88,47.97-64.12,76.36-97.89,76.36-36.71,0-58.74-32.79-45.52-66.08,1.96-5.38,6.85-8.81,12.24-8.81Zm354.38-114.05c8.81,0,15.66,8.81,12.73,17.62-34.26,114.54-57.27,168.87-113.56,168.87s-66.57-54.33-53.84-96.42c14.19-47.48,61.67-101.32,156.14-90.06,6.36.98,11.75,6.36,11.75,13.22,0,8.32-7.34,14.68-15.17,13.71-77.34-9.79-115.51,32.3-127.26,70.97-9.3,31.82-4.41,61.67,28.39,61.67,36.22,0,54.82-39.65,88.1-149.78,1.47-5.87,6.36-9.79,12.73-9.79Zm177.68,122.86c-10.28,0-15.17-10.28-12.73-17.62,15.66-46.99,15.17-77.83-3.92-77.83-28.39,0-60.2,159.08-147.33,159.08-38.18,0-68.04-40.63-51.88-99.36,1.47-5.38,6.85-9.79,12.73-9.79,9.3,0,15.17,8.81,13.22,17.13-11.26,40.63,5.87,65.1,25.94,65.1,72.44,0,87.61-159.08,147.33-159.08,48.46,0,47.48,56.29,29.37,113.07-1.47,5.38-6.85,9.3-12.73,9.3Zm326.96-7.83c7.34,0,13.22,5.87,13.22,13.22,0,4.4-1.96,8.81-5.87,11.26-40.14,27.9-66.57,46.99-91.53,46.99-34.75,0-48.95-30.35-36.22-93.49,7.83-41.11,13.7-66.08-20.56-66.08-27.9,0-53.84,48.95-87.61,149.29.98-3.43-19.09-9.79-23.49-11.75,19.09-57.76,45.03-137.54,3.43-137.54-27.9,0-52.86,41.11-86.64,150.27-1.96,5.38-6.85,9.3-13.22,9.3-8.81,0-15.66-8.81-12.73-17.62,35.73-115.03,65.59-168.87,112.58-168.87,82.23,0,39.65,120.41,20.56,178.17-10.77,15.66-31.33,4.89-25.94-10.77,34.75-104.26,65.1-167.4,113.07-167.4,65.1,0,54.82,57.27,46.99,97.89-9.79,48.46-3.43,61.67,9.79,61.67,15.66,0,36.71-14.68,76.36-42.09,1.96-1.96,4.89-2.45,7.83-2.45Zm126.28,35.24c0-7.34,6.36-13.22,13.71-13.22,2.94,0,5.87.98,8.32,2.94,56.78,45.03,106.7,3.92,55.31-131.67-2.45-1.96,23,1.47,22.03,2.94l-73.42,122.37c-25.45,42.09-55.8,53.84-77.34,53.84-101.81,0-129.71-200.68-33.77-200.68,45.03,0,57.76,58.74,47.97,84.68-10.77,27.41-38.18,43.07-72.93,66.08-2.45,1.47-4.89,2.45-7.34,2.45-7.83,0-13.7-6.36-13.7-13.7,0-4.4,2.45-8.81,5.87-11.26,34.75-23,55.8-34.75,62.65-53.35,5.38-12.73-.98-47.97-22.51-47.97-56.29,0-34.75,146.84,33.77,146.84,13.7,0,34.75-8.32,53.84-40.63l74.4-123.35c6.85-10.28,21.54-9.79,25.94,2.94,64.12,169.36-22.03,220.75-97.4,161.52-3.43-2.45-5.38-6.36-5.38-10.77Z"></path><path class="cls-15" d="m588.84,1130.85c-6.36,0-11.26-3.92-13.22-9.79-1.96-6.85-6.85-11.26-10.28-11.26-56.78,0-174.74,263.33-209,328.92-8.32,13.22-26.92,7.83-26.92-7.34v-293.68c0,10.77,15.17,17.13,22.03,7.83-38.67,71.95-155.65,303.96-231.03,303.96-24.96,0-46.5-17.62-53.84-46.01-1.96-7.83,3.92-16.64,13.22-16.64,6.36,0,11.75,4.41,13.22,10.28,3.92,16.64,15.17,25.45,27.41,25.45,54.33,0,172.29-225.16,209-292.7,9.3-12.24,26.92-6.36,26.92,7.83v293.68c0,1.47-21.54-4.89-23.49-6.36,35.73-68.04,152.71-342.14,232.5-342.14,15.17,0,30.35,11.75,36.22,30.84,2.45,8.32-3.92,17.13-12.73,17.13Zm-109.64,224.67c-7.34,0-13.22-5.87-13.22-13.22,0-1.96,0-3.43.98-5.38,22.52-54.33,45.03-71.46,65.59-71.46s35.24,12.24,35.24,33.28c0,29.86-24.47,73.42-24.47,103.77,0,15.17,5.38,20.07,15.66,20.07,20.56,0,56.29-20.56,78.31-57.76,1.96-3.92,6.36-6.85,11.26-6.85,7.83,0,13.7,6.36,13.7,13.7,0,2.45-.98,4.89-1.96,6.85-26.92,45.52-71.46,70.97-101.32,70.97-23.98,0-42.58-16.15-42.58-46.99,0-35.24,24.47-82.23,24.47-103.77,0-5.38-.98-6.36-8.32-6.36s-23,11.75-40.63,55.31c-2.45,4.41-6.85,7.83-12.73,7.83Zm283.89-17.13c7.34,0,13.22,6.36,13.22,13.7,0,2.45-.49,4.4-1.47,5.87-8.81,18.6-32.79,47.97-103.28,81.74-140.97,67.06-160.55,144.88-127.26,144.88,57.27,0,84.68-200.19,112.58-311.3,1.47-5.87,6.85-10.28,13.22-10.28,8.81,0,15.17,8.81,13.22,17.13-27.9,112.09-53.84,331.37-139.01,331.37-79.29,0-46.99-118.45,115.51-196.28,63.63-30.35,83.7-54.82,91.04-69.02,2.45-4.4,6.85-7.83,12.24-7.83Zm126.28-74.89c8.81,0,15.66,8.81,12.73,17.62-34.26,115.02-58.74,168.38-110.13,168.38-70.48,0-42.09-114.54-20.56-176.7,1.47-5.38,6.85-9.3,12.73-9.3,9.3,0,15.66,9.3,12.73,17.62-19.09,55.8-39.16,141.46-4.89,141.46,31.82,0,51.39-39.65,84.68-149.29,1.47-5.87,6.36-9.79,12.73-9.79Zm169.36,122.37c-10.28,0-15.17-10.28-12.73-17.62,15.66-46.99,15.17-77.83-3.92-77.83-27.41,0-56.29,159.08-139.01,159.08-38.18,0-67.55-40.63-51.39-99.36,1.47-5.38,6.85-9.79,12.73-9.79,9.3,0,15.17,8.81,13.22,17.13-11.75,41.12,5.38,65.1,25.45,65.1,67.06,0,79.29-159.08,139.01-159.08,48.46,0,47.48,56.29,29.37,113.07-1.47,5.38-6.85,9.3-12.73,9.3Zm537.93-40.63c7.34,0,13.22,5.87,13.22,13.22,0,4.89-2.45,9.3-6.36,11.26-12.73,7.83-23.49,10.77-35.24,10.77-66.08,0-25.45-160.06-20.07-106.21,6.36,1.96,14.19,5.38,13.7,6.36-14.19,42.58-70.48,168.87-124.81,168.87-99.36,0,10.77-366.61,78.31-366.61,130.2,0-134.6,366.61-220.75,366.61-27.9,0-42.58-26.43-29.37-93.49,7.83-41.12,13.7-66.08-20.56-66.08-27.9,0-53.84,48.95-87.61,149.29.98-3.43-19.09-9.79-23.49-11.75,19.09-57.76,45.03-137.54,3.43-137.54-27.9,0-52.86,41.11-86.64,150.27-1.96,5.38-6.85,9.3-13.22,9.3-8.81,0-15.66-8.81-12.73-17.62,35.73-115.03,65.59-168.87,112.58-168.87,82.23,0,39.65,120.41,20.56,178.17-10.77,15.66-31.33,4.89-25.94-10.77,34.75-104.26,65.1-167.4,113.07-167.4,65.1,0,54.82,57.27,46.99,97.89-9.3,47.48-3.43,61.67,2.94,61.67,66.08,0,279.49-312.77,220.75-312.77-37.2,0-126.77,312.77-78.31,312.77,32.79,0,86.15-110.62,99.36-150.76,5.87-18.11,33.77-10.28,26.43,10.77-5.38,17.62-8.81,70.97,5.38,70.97,6.85,0,12.73-1.47,21.05-6.36,1.96-1.47,4.41-1.96,7.34-1.96Zm144.88-82.23c8.81,0,15.66,8.81,12.73,17.62-34.26,114.54-57.27,168.87-113.56,168.87s-66.57-54.33-53.84-96.42c14.19-47.48,61.67-101.32,156.14-90.06,6.36.98,11.75,6.36,11.75,13.22,0,8.32-7.34,14.68-15.17,13.71-77.34-9.79-115.51,32.3-127.26,70.97-9.3,31.82-4.4,61.67,28.39,61.67,36.22,0,54.82-39.65,88.1-149.78,1.47-5.87,6.36-9.79,12.73-9.79Zm88.1,102.79c7.83,0,13.7,5.87,13.7,13.22,0,2.94-.98,4.89-1.96,7.34-20.07,32.79-46.5,63.14-86.15,63.14s-68.04-40.63-51.88-99.36c1.47-5.38,6.85-9.79,12.73-9.79,9.3,0,15.17,8.81,13.21,17.13-11.26,40.63,5.87,65.1,25.94,65.1,26.43,0,45.52-21.54,63.14-50.42,2.45-3.92,6.85-6.36,11.26-6.36Z"></path><path class="cls-15" d="m283.57,3213.15c-8.81,0-15.17-8.32-13.22-17.13l87.13-298.58c5.87-21.05,3.43-24.47-6.36-24.47-15.17,0-49.44,22.52-79.78,51.88-2.45,2.45-5.87,3.92-9.3,3.92-7.83,0-13.71-5.87-13.71-13.22,0-3.92,1.47-7.34,3.92-9.79,33.28-31.82,72.93-59.72,98.87-59.72,19.09,0,46.01,10.77,31.82,59.23l-86.64,297.6c-1.47,5.87-6.36,10.28-12.73,10.28Zm62.16-182.08c-7.34,0-13.22-6.36-13.22-13.71,0-4.4,2.45-8.32,5.87-10.77l230.54-158.1c1.96-1.47,4.89-2.45,7.83-2.45,7.34,0,13.22,6.36,13.22,13.7,0,4.41-2.45,8.32-5.87,10.77l-230.54,158.1c-1.96,1.47-4.89,2.45-7.83,2.45Zm224.18,79.78c7.83,0,13.7,6.36,13.7,13.71,0,1.96-.49,3.92-.98,5.38-26.92,60.2-62.16,83.21-95.45,83.21-61.18,0-114.54-88.59-152.22-191.38-3.43-8.32,2.94-18.11,12.24-18.11,5.87,0,10.77,3.43,12.73,8.81,36.22,97.89,84.19,173.76,127.26,173.76,22.03,0,48.46-17.13,70.48-67.06,2.45-4.89,6.85-8.32,12.24-8.32Zm127.26-83.7c8.81,0,15.66,8.81,12.73,17.62-34.26,115.02-58.74,168.38-110.13,168.38-70.48,0-42.09-114.54-20.56-176.7,1.47-5.38,6.85-9.3,12.73-9.3,9.3,0,15.66,9.3,12.73,17.62-19.09,55.8-39.16,141.46-4.89,141.46,31.82,0,51.39-39.65,84.68-149.29,1.47-5.87,6.36-9.79,12.73-9.79Zm72.44,353.4c-8.81,0-15.17-8.81-12.73-17.13l99.85-316.69c18.6,3.92,24.96,4.4,24.96,2.94-19.09,34.75-94.47,163.48-170.82,163.48-38.18,0-67.55-40.63-51.39-99.36,1.47-5.38,6.85-9.79,12.73-9.79,9.3,0,15.17,8.81,13.22,17.13-11.75,41.12,5.38,65.1,25.45,65.1,58.25,0,128.24-115.51,147.33-150.27,9.3-16.15,31.33-6.36,26.43,11.26l-101.81,323.54c-1.47,5.87-6.85,9.79-13.22,9.79Zm72.44-282.42c32.79-39.16,81.25-71.95,114.54-71.95,38.67,0,61.67,39.16,44.05,95.94-20.07,66.08-68.53,91.04-93.98,91.04-54.82,0-77.83-46.01-75.87-81.25l26.43.98c-.98,24.47,13.22,53.35,49.44,53.35,15.17,0,52.37-19.09,68.53-71.95,11.75-39.16.49-61.18-18.6-61.18-22.52,0-64.12,26.92-93.98,62.65l-20.56-17.62Zm227.11,22.03c7.34,0,13.22,5.87,13.22,13.22,0,2.94-.98,5.87-2.45,7.83-53.84,74.4-103.77,72.44-170.33,71.95-7.34,0-13.7-6.36-13.7-13.7s6.36-13.22,13.7-13.22c67.06,0,103.77,1.47,148.8-60.69,2.45-3.43,6.36-5.38,10.77-5.38Zm146.35-93.49c8.81,0,15.66,8.81,12.73,17.62-34.26,114.54-57.27,168.87-113.56,168.87s-66.57-54.33-53.84-96.42c14.19-47.48,61.67-101.32,156.14-90.06,6.36.98,11.75,6.36,11.75,13.22,0,8.32-7.34,14.68-15.17,13.71-77.34-9.79-115.51,32.3-127.26,70.97-9.3,31.82-4.4,61.67,28.39,61.67,36.22,0,54.82-39.65,88.1-149.78,1.47-5.87,6.36-9.79,12.73-9.79Zm205.09-179.63c9.3,0,15.17,9.3,13.21,17.13-22.51,79.78-57.76,190.4-66.57,212.92-38.18,94.47-84.68,136.07-138.03,136.07-38.18,0-68.04-40.63-51.88-99.36,1.47-5.38,6.85-9.79,12.73-9.79,9.3,0,15.17,8.81,13.22,17.13-11.26,40.63,5.87,65.1,25.94,65.1,39.65,0,78.32-33.28,112.58-118.94,8.81-22.03,43.56-131.18,66.08-210.47,1.47-5.38,6.85-9.79,12.73-9.79Zm42.09,193.83c0,7.34-6.36,13.22-13.7,13.22h-136.07c-7.34,0-13.22-5.87-13.22-13.22s5.87-13.7,13.22-13.7h136.07c7.34,0,13.7,6.36,13.7,13.7Zm22.52,73.42c7.83,0,13.7,6.36,13.7,13.7,0,2.45-.49,4.41-1.96,6.36-29.37,51.88-69.99,78.8-105.24,78.8-49.44,0-71.46-71.95-48.95-145.86,1.47-5.38,6.85-9.3,12.73-9.3,9.3,0,15.66,8.81,12.73,17.62-18.11,59.23-1.47,110.62,23.49,110.62s57.27-21.05,81.74-65.1c2.45-3.92,6.85-6.85,11.75-6.85Zm144.39-87.61c8.81,0,15.66,8.81,12.73,17.62-34.26,114.54-57.27,168.87-113.56,168.87s-66.57-54.33-53.84-96.42c14.19-47.48,61.67-101.32,156.14-90.06,6.36.98,11.75,6.36,11.75,13.22,0,8.32-7.34,14.68-15.17,13.71-77.34-9.79-115.51,32.3-127.26,70.97-9.3,31.82-4.4,61.67,28.39,61.67,36.22,0,54.82-39.65,88.1-149.78,1.47-5.87,6.36-9.79,12.73-9.79Zm88.1,102.79c7.83,0,13.71,5.87,13.71,13.22,0,2.94-.98,4.89-1.96,7.34-20.07,32.79-46.5,63.14-86.15,63.14s-68.04-40.63-51.88-99.36c1.47-5.38,6.85-9.79,12.73-9.79,9.3,0,15.17,8.81,13.21,17.13-11.26,40.63,5.87,65.1,25.94,65.1,26.43,0,45.52-21.54,63.14-50.42,2.45-3.92,6.85-6.36,11.26-6.36Z"></path><path class="cls-14" d="m262.57,2332.8c-8.8,0-15.15-8.31-13.19-17.1l86.98-298.09c5.86-21.01,3.42-24.43-6.35-24.43-15.15,0-49.36,22.48-79.65,51.8-2.44,2.44-5.86,3.91-9.28,3.91-7.82,0-13.68-5.86-13.68-13.19,0-3.91,1.47-7.33,3.91-9.77,33.23-31.76,72.81-59.62,98.71-59.62,19.06,0,45.94,10.75,31.76,59.13l-86.5,297.11c-1.47,5.86-6.35,10.26-12.71,10.26Zm161.26,0c-9.28,0-15.15-8.8-13.19-17.1l70.37-251.18c15.64-57.17,1.47-71.35-29.32-71.35-24.43,0-63.53,14.17-97.73,55.71-2.44,2.93-5.86,4.89-10.26,4.89-7.33,0-13.19-5.86-13.19-13.68,0-2.93.98-5.86,2.93-8.31,40.07-48.87,87.47-65.48,118.26-65.48,44.96,0,77.21,26.39,54.73,105.06l-69.88,251.18c-1.47,5.86-6.84,10.26-12.71,10.26Zm73.79-264.37c-7.33,0-13.19-5.86-13.19-13.68,0-2.93.98-5.86,2.93-8.31,39.09-48.87,87.96-80.14,123.63-80.14,41.54,0,74.28,40.56,49.85,118.75l-53.75,175.43c-11.24,37.63,9.28,45.45,21.01,45.45,24.43,0,49.84-39.09,73.79-81.12,20.52-36.16,42.51-75.74,76.23-75.74,17.59,0,32.74,11.73,32.74,33.72,0,28.34-24.43,73.3-24.43,103.11,0,15.15,5.38,20.04,15.64,20.04,20.52,0,56.2-20.52,78.19-57.66,1.95-3.91,6.35-6.84,11.24-6.84,7.82,0,13.68,6.35,13.68,13.68,0,2.44-.98,4.89-1.95,6.84-26.88,45.45-71.35,70.86-101.16,70.86-23.94,0-42.51-16.13-42.51-46.91,0-34.7,24.43-83.07,24.43-103.11,0-5.38-1.47-6.84-5.86-6.84-16.13,0-32.74,26.39-52.78,62.55-23.94,42.03-55.71,94.31-97.25,94.31-26.88,0-64.02-22.48-46.42-80.14l53.75-175.43c17.59-57.66,0-84.05-24.43-84.05-25.9,0-67.93,26.88-102.62,70.37-2.93,2.93-6.35,4.89-10.75,4.89Zm479.88,228.7c0-7.33,5.86-13.68,13.19-13.68,3.42,0,6.35,1.47,8.8,3.42,52.29,43.49,106.53,2.93,55.22-131.94-2.44-1.95,22.97,1.47,21.99,2.93l-73.3,122.17c-27.85,46.42-76.23,65.97-121.19,65.97s-100.67,71.35-108,102.62c-2.93,13.19,1.47,19.06,11.73,19.06,59.62,0,86.01-201.33,113.86-312.26,1.47-5.86,6.84-10.26,13.19-10.26,8.8,0,15.15,8.8,13.19,17.1-27.85,111.91-52.78,332.3-140.25,332.3-28.34,0-44.96-22.48-38.12-51.8,9.28-40.07,73.79-123.63,134.39-123.63,37.14,0,75.74-16.13,97.73-52.78l74.28-123.15c6.84-10.26,21.5-9.77,25.9,2.93,63.53,168.59-27.37,219.9-97.73,161.26-2.93-2.44-4.89-6.35-4.89-10.26Zm215.5-36.16c7.33,0,13.19,6.35,13.19,13.68,0,4.4-2.44,8.8-5.86,11.24-80.63,53.27-129.99,57.66-179.83,42.03-5.38-1.47-9.28-6.84-9.28-12.71,0-9.28,8.8-15.64,17.59-12.71,42.51,13.19,84.05,8.8,156.38-39.09,2.44-1.47,4.89-2.44,7.82-2.44Zm437.85-1.95c7.33,0,13.19,6.35,13.19,13.68,0,2.93-.98,5.86-2.93,7.82-29.32,38.61-92.36,65.97-141.72,33.72,10.75,6.35,24.43-6.35,18.08-17.59,39.58,63.04,29.81,179.83-41.54,179.83s-12.71-112.88,17.1-199.38c28.83-84.05,48.87-253.13,108-253.13,16.13,0,30.3,12.22,30.3,38.12,0,83.07-150.51,270.73-235.54,270.73-33.72,0-43.98-27.37-43.98-65.48,0-101.16,63.04-300.53,120.7-300.53,15.15,0,29.81,12.71,29.81,38.61,0,81.61-157.84,327.41-250.69,327.41-52.78,0-81.61-69.88-81.61-124.61,0-26.39,16.13-63.04,55.71-63.04,46.42,0,60.6,41.54,50.33,71.83-7.82,25.41-37.63,44.96-68.41,63.53-1.95.98-4.4,1.95-6.84,1.95-7.33,0-13.19-6.35-13.19-13.68,0-4.89,2.44-8.8,6.35-11.24,28.34-17.59,51.8-32.74,56.69-48.38,4.89-15.15,1.47-37.14-24.92-37.14-20.04,0-28.83,19.06-28.83,36.16,0,45.45,22.97,97.73,54.73,97.73,72.81,0,223.81-229.68,223.81-300.53,0-8.31-2.44-11.73-2.93-11.73-29.32,0-93.83,178.37-93.83,273.66,0,29.32,3.91,38.61,17.1,38.61,66.95,0,208.66-173.48,208.66-243.85,0-9.28-1.95-11.24-3.42-11.24-28.83,0-53.27,149.05-82.59,235.05-23.94,69.39-64.5,163.71-42.51,163.71,42.51,0,49.84-89.92,18.08-139.27-7.33-13.19,6.35-26.88,19.06-19.06,35.19,23.94,84.54,2.93,107.02-26.88,2.44-2.93,6.35-5.38,10.75-5.38Z"></path><path class="cls-16" d="m453.71,491.41c7.83,0,13.71,6.36,13.71,13.7,0,1.47-.49,3.43-.98,4.89-6.36,16.15,3.43,29.37,20.56,29.37,22.03,0,49.44-21.54,74.4-63.14,21.54-35.73,41.6-85.66,56.78-131.18.49-1.47,27.9,7.83,23.49,9.3-23.98,48.46-88.59,103.28-135.58,103.28-36.71,0-64.61-30.84-64.61-90.55,0-117.96,105.72-170.33,149.29-170.33,32.79,0,41.12,20.56,37.69,38.18-12.73,60.69-128.73,105.24-188.93,105.24-47.97,0-96.91-26.92-61.67-98.87,1.96-4.41,6.85-7.83,11.75-7.83,7.83,0,13.7,6.36,13.7,13.71,0,1.96-.49,3.92-1.47,5.87-23.98,48.95,3.92,60.2,37.69,60.2,53.35,0,153.69-41.6,162.5-83.21.98-5.38-.98-6.36-11.26-6.36-32.3,0-122.37,43.56-122.37,143.41,0,45.03,16.64,63.63,37.69,63.63,34.26,0,90.06-46.01,111.11-87.13,6.85-16.64,32.3-7.83,26.43,10.28-15.17,45.52-36.22,98.38-58.74,136.07-28.88,47.97-64.12,76.36-97.89,76.36-36.71,0-58.74-32.79-45.52-66.08,1.96-5.38,6.85-8.81,12.24-8.81Z"></path><path class="cls-16" d="m588.84,1130.85c-6.36,0-11.26-3.92-13.22-9.79-1.96-6.85-6.85-11.26-10.28-11.26-56.78,0-174.74,263.33-209,328.92-8.32,13.22-26.92,7.83-26.92-7.34v-293.68c0,10.77,15.17,17.13,22.03,7.83-38.67,71.95-155.65,303.96-231.03,303.96-24.96,0-46.5-17.62-53.84-46.01-1.96-7.83,3.92-16.64,13.22-16.64,6.36,0,11.75,4.41,13.22,10.28,3.92,16.64,15.17,25.45,27.41,25.45,54.33,0,172.29-225.16,209-292.7,9.3-12.24,26.92-6.36,26.92,7.83v293.68c0,1.47-21.54-4.89-23.49-6.36,35.73-68.04,152.71-342.14,232.5-342.14,15.17,0,30.35,11.75,36.22,30.84,2.45,8.32-3.92,17.13-12.73,17.13Z"></path><path class="cls-16" d="m283.57,3214.15c-8.81,0-15.17-8.34-13.22-17.18l87.13-299.39c5.87-21.1,3.43-24.54-6.36-24.54-15.17,0-49.44,22.58-79.78,52.02-2.45,2.45-5.87,3.93-9.3,3.93-7.83,0-13.71-5.89-13.71-13.25,0-3.93,1.47-7.36,3.92-9.82,33.28-31.9,72.93-59.88,98.87-59.88,19.09,0,46.01,10.8,31.82,59.39l-86.64,298.41c-1.47,5.89-6.36,10.31-12.73,10.31Z"></path><path class="cls-16" d="m345.73,3031.06c-7.34,0-13.22-6.36-13.22-13.71,0-4.4,2.45-8.32,5.87-10.77l230.54-158.1c1.96-1.47,4.89-2.45,7.83-2.45,7.34,0,13.22,6.36,13.22,13.7,0,4.41-2.45,8.32-5.87,10.77l-230.54,158.1c-1.96,1.47-4.89,2.45-7.83,2.45Z"></path><path class="cls-16" d="m569.91,3110.85c7.83,0,13.7,6.36,13.7,13.71,0,1.96-.49,3.92-.98,5.38-26.92,60.2-62.16,83.21-95.45,83.21-61.18,0-114.54-88.59-152.22-191.38-3.43-8.32,2.94-18.11,12.24-18.11,5.87,0,10.77,3.43,12.73,8.81,36.22,97.89,84.19,173.76,127.26,173.76,22.03,0,48.46-17.13,70.48-67.06,2.45-4.89,6.85-8.32,12.24-8.32Z"></path><path class="cls-15" d="m697.17,3027.15c8.81,0,15.66,8.81,12.73,17.62-34.26,115.02-58.74,168.38-110.13,168.38-70.48,0-42.09-114.54-20.56-176.7,1.47-5.38,6.85-9.3,12.73-9.3,9.3,0,15.66,9.3,12.73,17.62-19.09,55.8-39.16,141.46-4.89,141.46,31.82,0,51.39-39.65,84.68-149.29,1.47-5.87,6.36-9.79,12.73-9.79Z"></path><path class="cls-16" d="m1462.7,3040.85c0,7.34-6.36,13.22-13.7,13.22h-136.07c-7.34,0-13.22-5.87-13.22-13.22s5.87-13.7,13.22-13.7h136.07c7.34,0,13.7,6.36,13.7,13.7Z"></path><path class="cls-16" d="m1485.22,3114.27c7.83,0,13.7,6.36,13.7,13.7,0,2.45-.49,4.41-1.96,6.36-29.37,51.88-69.99,78.8-105.24,78.8-49.44,0-71.46-71.95-48.95-145.86,1.47-5.38,6.85-9.3,12.73-9.3,9.3,0,15.66,8.81,12.73,17.62-18.11,59.23-1.47,110.62,23.49,110.62s57.27-21.05,81.74-65.1c2.45-3.92,6.85-6.85,11.75-6.85Z"></path><path class="cls-15" d="m1629.61,3026.66c8.81,0,15.66,8.81,12.73,17.62-34.26,114.54-57.27,168.87-113.56,168.87s-66.57-54.33-53.84-96.42c14.19-47.48,61.67-101.32,156.14-90.06,6.36.98,11.75,6.36,11.75,13.22,0,8.32-7.34,14.68-15.17,13.71-77.34-9.79-115.51,32.3-127.26,70.97-9.3,31.82-4.4,61.67,28.39,61.67,36.22,0,54.82-39.65,88.1-149.78,1.47-5.87,6.36-9.79,12.73-9.79Z"></path><path class="cls-16" d="m1421.44,2847.02c-7.97,0-12.32,4.39-13.8,9.75-19.63,68.4-47.49,159.1-60.61,196.37h0c-1.8,5.12-3.31,9.24-4.45,12.14-4.34,14.15-9.46,40.31-7.71,76.55,11.78-18.12,22.36-39.97,32.91-65.8,8.86-22.41,44.31-132.54,66.96-211.96,1.97-7.8-3.94-17.05-13.29-17.05Z"></path><path class="cls-16" d="m1343.05,3064.97c-4.32,14.22-9.92,40.45-8.18,76.86,11.71-18.2,22.75-40.11,33.24-66.05"></path><path class="cls-16" d="m1343.05,3064.97c-4.32,14.22-9.92,40.45-8.18,76.86,11.71-18.2,22.75-40.11,33.24-66.05"></path><path class="cls-16" d="m1630.85,2259.01c-4.4,0-8.31,2.44-10.75,5.38-21.88,29.01-69.2,49.68-104.16,28.7.85-2.43,1.69-4.83,2.51-7.2,4.25-12.46,8.39-26.25,12.47-40.72,55.02-60.3,100.42-137.47,100.42-183.1,0-25.9-14.17-38.12-30.3-38.12-49.79,0-71.86,119.87-94.8,207.92,0,0,0,0,0,0l-15.91,52.96h0c-30.26,85.33-80.31,191.63-14.39,191.63,60.96,0,76.96-85.27,55.64-149.42,41.96,7.54,86.32-15.97,109.54-46.54,1.95-1.95,2.93-4.89,2.93-7.82,0-7.33-5.86-13.68-13.19-13.68Zm-29.81-208.17c1.47,0,3.42,1.95,3.42,11.24,0,28.89-23.89,75.16-56.68,119.66,17.6-67.79,34.5-130.9,53.26-130.9Zm-125.1,398.76c-17.72,0,5.18-61.26,27.28-121.36,20.48,50.44,10.48,121.36-27.28,121.36Z"></path><path class="cls-16" d="m716.55,2224.8c-9.9-3.6-14.66,0-14.66,0-23.95,42.03-49.36,81.12-73.79,81.12-11.73,0-32.25-7.82-21.01-45.45l53.75-175.43c24.43-78.19-8.31-118.75-49.85-118.75-28.09,0-64.35,19.4-97.58,51.49-3.22-37.61-29.13-51.49-61.73-51.49-22.79,0-54.68,9.12-85.96,33.67-.59-26.91-20.61-33.67-35.72-33.67-25.9,0-65.48,27.85-98.71,59.62-2.44,2.44-3.91,5.86-3.91,9.77,0,7.33,5.86,13.19,13.68,13.19,3.42,0,6.84-1.47,9.28-3.91,30.3-29.32,64.51-51.8,79.65-51.8,9.77,0,12.22,3.42,6.35,24.43l-86.98,298.09c-1.95,8.8,4.4,17.1,13.19,17.1,6.35,0,11.24-4.4,12.71-10.26l80.19-275.45c33.84-40.14,72.15-53.92,96.22-53.92,30.79,0,44.96,14.17,29.32,71.35l-70.37,251.18c-1.95,8.31,3.91,17.1,13.19,17.1,5.86,0,11.24-4.4,12.71-10.26l69.88-251.18c.79-2.75,1.5-5.44,2.15-8.06,34.66-43.35,76.57-70.12,102.42-70.12,24.43,0,42.03,26.39,24.43,84.05l-53.75,175.43c-17.59,57.66,19.55,80.14,46.42,80.14,41.54,0,73.3-52.29,97.25-94.31,0,0,1.11-10.09-8.79-13.68Z"></path><g class="cls-13"><path class="cls-17" d="m977.5,2297.13c0-7.33,5.86-13.68,13.19-13.68,3.42,0,6.35,1.47,8.8,3.42,52.29,43.49,106.53,2.93,55.22-131.94-2.44-1.95,22.97,1.47,21.99,2.93l-73.3,122.17c-27.85,46.42-76.23,65.97-121.19,65.97s-100.67,71.35-108,102.62c-2.93,13.19,1.47,19.06,11.73,19.06,59.62,0,86.01-201.33,113.86-312.26,1.47-5.86,6.84-10.26,13.19-10.26,8.8,0,15.15,8.8,13.19,17.1-27.85,111.91-52.78,332.3-140.25,332.3-28.34,0-44.96-22.48-38.12-51.8,9.28-40.07,73.79-123.63,134.39-123.63,37.14,0,75.74-16.13,97.73-52.78l74.28-123.15c6.84-10.26,21.5-9.77,25.9,2.93,63.53,168.59-27.37,219.9-97.73,161.26-2.93-2.44-4.89-6.35-4.89-10.26Z"></path></g><g class="cls-19"><path class="cls-17" d="m497.62,2068.43c-7.33,0-13.19-5.86-13.19-13.68,0-2.93.98-5.86,2.93-8.31,39.09-48.87,87.96-80.14,123.63-80.14,41.54,0,74.28,40.56,49.85,118.75l-53.75,175.43c-11.24,37.63,9.28,45.45,21.01,45.45,24.43,0,49.84-39.09,73.79-81.12,20.52-36.16,42.51-75.74,76.23-75.74,17.59,0,32.74,11.73,32.74,33.72,0,28.34-24.43,73.3-24.43,103.11,0,15.15,5.38,20.04,15.64,20.04,20.52,0,56.2-20.52,78.19-57.66,1.95-3.91,6.35-6.84,11.24-6.84,7.82,0,13.68,6.35,13.68,13.68,0,2.44-.98,4.89-1.95,6.84-26.88,45.45-71.35,70.86-101.16,70.86-23.94,0-42.51-16.13-42.51-46.91,0-34.7,24.43-83.07,24.43-103.11,0-5.38-1.47-6.84-5.86-6.84-16.13,0-32.74,26.39-52.78,62.55-23.94,42.03-55.71,94.31-97.25,94.31-26.88,0-64.02-22.48-46.42-80.14l53.75-175.43c17.59-57.66,0-84.05-24.43-84.05-25.9,0-67.93,26.88-102.62,70.37-2.93,2.93-6.35,4.89-10.75,4.89Z"></path></g><g class="cls-21"><path class="cls-17" d="m588.84,1130.85c-6.36,0-11.26-3.92-13.22-9.79-1.96-6.85-6.85-11.26-10.28-11.26-56.78,0-174.74,263.33-209,328.92-8.32,13.22-26.92,7.83-26.92-7.34v-293.68c0,10.77,15.17,17.13,22.03,7.83-38.67,71.95-155.65,303.96-231.03,303.96-24.96,0-46.5-17.62-53.84-46.01-1.96-7.83,3.92-16.64,13.22-16.64,6.36,0,11.75,4.41,13.22,10.28,3.92,16.64,15.17,25.45,27.41,25.45,54.33,0,172.29-225.16,209-292.7,9.3-12.24,26.92-6.36,26.92,7.83v293.68c0,1.47-21.54-4.89-23.49-6.36,35.73-68.04,152.71-342.14,232.5-342.14,15.17,0,30.35,11.75,36.22,30.84,2.45,8.32-3.92,17.13-12.73,17.13Zm-109.64,224.67c-7.34,0-13.22-5.87-13.22-13.22,0-1.96,0-3.43.98-5.38,22.52-54.33,45.03-71.46,65.59-71.46s35.24,12.24,35.24,33.28c0,29.86-24.47,73.42-24.47,103.77,0,15.17,5.38,20.07,15.66,20.07,20.56,0,56.29-20.56,78.31-57.76,1.96-3.92,6.36-6.85,11.26-6.85,7.83,0,13.7,6.36,13.7,13.7,0,2.45-.98,4.89-1.96,6.85-26.92,45.52-71.46,70.97-101.32,70.97-23.98,0-42.58-16.15-42.58-46.99,0-35.24,24.47-82.23,24.47-103.77,0-5.38-.98-6.36-8.32-6.36s-23,11.75-40.63,55.31c-2.45,4.41-6.85,7.83-12.73,7.83Zm283.89-17.13c7.34,0,13.22,6.36,13.22,13.7,0,2.45-.49,4.4-1.47,5.87-8.81,18.6-32.79,47.97-103.28,81.74-140.97,67.06-160.55,144.88-127.26,144.88,57.27,0,84.68-200.19,112.58-311.3,1.47-5.87,6.85-10.28,13.22-10.28,8.81,0,15.17,8.81,13.22,17.13-27.9,112.09-53.84,331.37-139.01,331.37-79.29,0-46.99-118.45,115.51-196.28,63.63-30.35,83.7-54.82,91.04-69.02,2.45-4.4,6.85-7.83,12.24-7.83Zm126.28-74.89c8.81,0,15.66,8.81,12.73,17.62-34.26,115.02-58.74,168.38-110.13,168.38-70.48,0-42.09-114.54-20.56-176.7,1.47-5.38,6.85-9.3,12.73-9.3,9.3,0,15.66,9.3,12.73,17.62-19.09,55.8-39.16,141.46-4.89,141.46,31.82,0,51.39-39.65,84.68-149.29,1.47-5.87,6.36-9.79,12.73-9.79Zm169.36,122.37c-10.28,0-15.17-10.28-12.73-17.62,15.66-46.99,15.17-77.83-3.92-77.83-27.41,0-56.29,159.08-139.01,159.08-38.18,0-67.55-40.63-51.39-99.36,1.47-5.38,6.85-9.79,12.73-9.79,9.3,0,15.17,8.81,13.22,17.13-11.75,41.12,5.38,65.1,25.45,65.1,67.06,0,79.29-159.08,139.01-159.08,48.46,0,47.48,56.29,29.37,113.07-1.47,5.38-6.85,9.3-12.73,9.3Zm537.93-40.63c7.34,0,13.22,5.87,13.22,13.22,0,4.89-2.45,9.3-6.36,11.26-12.73,7.83-23.49,10.77-35.24,10.77-66.08,0-25.45-160.06-20.07-106.21,6.36,1.96,14.19,5.38,13.7,6.36-14.19,42.58-70.48,168.87-124.81,168.87-99.36,0,10.77-366.61,78.31-366.61,130.2,0-134.6,366.61-220.75,366.61-27.9,0-42.58-26.43-29.37-93.49,7.83-41.12,13.7-66.08-20.56-66.08-27.9,0-53.84,48.95-87.61,149.29.98-3.43-19.09-9.79-23.49-11.75,19.09-57.76,45.03-137.54,3.43-137.54-27.9,0-52.86,41.11-86.64,150.27-1.96,5.38-6.85,9.3-13.22,9.3-8.81,0-15.66-8.81-12.73-17.62,35.73-115.03,65.59-168.87,112.58-168.87,82.23,0,39.65,120.41,20.56,178.17-10.77,15.66-31.33,4.89-25.94-10.77,34.75-104.26,65.1-167.4,113.07-167.4,65.1,0,54.82,57.27,46.99,97.89-9.3,47.48-3.43,61.67,2.94,61.67,66.08,0,279.49-312.77,220.75-312.77-37.2,0-126.77,312.77-78.31,312.77,32.79,0,86.15-110.62,99.36-150.76,5.87-18.11,33.77-10.28,26.43,10.77-5.38,17.62-8.81,70.97,5.38,70.97,6.85,0,12.73-1.47,21.05-6.36,1.96-1.47,4.41-1.96,7.34-1.96Zm144.88-82.23c8.81,0,15.66,8.81,12.73,17.62-34.26,114.54-57.27,168.87-113.56,168.87s-66.57-54.33-53.84-96.42c14.19-47.48,61.67-101.32,156.14-90.06,6.36.98,11.75,6.36,11.75,13.22,0,8.32-7.34,14.68-15.17,13.71-77.34-9.79-115.51,32.3-127.26,70.97-9.3,31.82-4.4,61.67,28.39,61.67,36.22,0,54.82-39.65,88.1-149.78,1.47-5.87,6.36-9.79,12.73-9.79Zm88.1,102.79c7.83,0,13.7,5.87,13.7,13.22,0,2.94-.98,4.89-1.96,7.34-20.07,32.79-46.5,63.14-86.15,63.14s-68.04-40.63-51.88-99.36c1.47-5.38,6.85-9.79,12.73-9.79,9.3,0,15.17,8.81,13.21,17.13-11.26,40.63,5.87,65.1,25.94,65.1,26.43,0,45.52-21.54,63.14-50.42,2.45-3.92,6.85-6.36,11.26-6.36Z"></path></g><g class="cls-20"><path class="cls-17" d="m1829.64,1365.8c-4.41,0-8.81,2.45-11.26,6.36-17.62,28.88-36.71,50.42-63.14,50.42-20.07,0-37.2-24.47-25.94-65.1,1.96-8.32-3.92-17.13-13.22-17.13-5.87,0-11.26,4.41-12.73,9.79-16.15,58.74,13.71,99.36,51.88,99.36s66.08-30.35,86.15-63.14c.98-2.45,1.96-4.41,1.96-7.34,0-7.34-5.87-13.22-13.7-13.22Z"></path><path class="cls-17" d="m1596.65,1345.24c-2.94,0-5.38.49-7.34,1.96-8.32,4.9-14.19,6.36-21.05,6.36-8.06,0-10.44-17.2-10-35.29-13.4.58-27.69,2.16-40.77-.67-22.27,47.19-56.7,104.97-80.4,104.97-15.72,0-16.91-32.91-10.08-77.37,91.27-108.38,172.77-262.32,88.4-262.32-42.33,0-101.37,143.95-115.12,251.45-41.27,49.86-82.49,88.24-105.63,88.24-6.36,0-12.24-14.19-2.94-61.67,7.83-40.63,18.11-97.89-46.99-97.89-23.27,0-42.4,14.86-59.89,42.07-3.35-24.7-16.57-42.07-47.79-42.07-21.36,0-39.17,11.13-55.61,34.06-3.89-20.23-15.76-33.57-39.34-33.57-59.71,0-71.95,159.08-139.01,159.08-20.07,0-37.2-23.98-25.45-65.1.18-.76.27-1.53.32-2.29,7.82-21.01,15.69-45.65,24.15-74.07,2.94-8.81-3.92-17.62-12.73-17.62-6.36,0-11.26,3.92-12.73,9.79-33.28,109.64-52.86,149.29-84.68,149.29-34.26,0-14.19-85.66,4.9-141.46,2.94-8.32-3.43-17.62-12.73-17.62-5.87,0-11.26,3.92-12.73,9.3-7.04,20.32-14.81,46.24-19.62,71.93-.34.48-.65.98-.93,1.49-7.34,14.2-27.41,38.67-91.04,69.02-2.23,1.07-4.43,2.15-6.61,3.23,11.4-49.95,20.64-100.3,30.1-138.32,1.96-8.32-4.41-17.13-13.22-17.13-6.36,0-11.75,4.41-13.22,10.28-6.85,27.3-13.68,59.97-20.92,93.73-22.11,35.8-56.82,55.56-76.97,55.56-10.28,0-15.66-4.89-15.66-20.07,0-30.35,24.47-73.91,24.47-103.77,0-21.05-13.7-33.28-35.24-33.28s-43.07,17.13-65.59,71.46c-.98,1.96-.98,3.43-.98,5.38,0,7.34,5.87,13.22,13.22,13.22,5.87,0,10.28-3.43,12.73-7.83,17.62-43.56,33.28-55.31,40.63-55.31s8.32.98,8.32,6.36c0,21.54-24.47,68.53-24.47,103.77,0,30.84,18.6,46.99,42.58,46.99,18.57,0,42.81-9.85,64.96-28.23-1.18,5.07-2.37,10.11-3.57,15.1-127.81,76.41-148.47,175.14-76.07,175.14,49.51,0,79-74.11,100.5-158.18,8.39-4.57,17.29-9.12,26.76-13.63,35.87-17.19,59.7-33.24,75.61-47.3.74,32.54,12.17,57.09,44.8,57.09,24.93,0,43.53-12.56,59.98-38.62,8.71,24.15,28.35,38.62,51.13,38.62,82.72,0,111.6-159.08,139.01-159.08,19.09,0,19.58,30.84,3.92,77.83-.11.33-.2.66-.28,1-6.97,18.39-13.99,39.25-21.26,62.63-2.94,8.81,3.92,17.62,12.73,17.62,6.36,0,11.26-3.92,13.22-9.3,33.77-109.15,58.74-150.27,86.64-150.27,33.53,0,23.19,51.82,7.92,102.17-4.39,12.05-8.81,24.84-13.3,38.31-5.38,15.66,15.17,26.43,25.94,10.77,3.77-11.4,8.45-25.26,12.91-40.14,27.48-74.59,50.12-111.11,74.21-111.11,34.26,0,28.39,24.96,20.56,66.08-13.22,67.06,1.47,93.49,29.37,93.49,24.31,0,62.84-29.19,102.7-71.09.34,41.9,11.7,71.09,39.73,71.09,35.41,0,71.65-53.65,96.53-102.8,4.36,19.04,14.59,33.79,34.65,33.79,11.75,0,22.52-2.94,35.24-10.77,3.92-1.96,6.36-6.36,6.36-11.26,0-7.34-5.87-13.22-13.22-13.22Zm-1052.36,239.35c-27.72,0-18.76-53.97,66.41-110.74-17.33,62.38-38.26,110.74-66.41,110.74Zm971.1-474.78c31.51,0-15.31,90.03-75.7,173.49,20.7-83.46,55.74-173.49,75.7-173.49Z"></path><path class="cls-17" d="m565.34,1109.81c3.43,0,8.32,4.41,10.28,11.26,1.96,5.87,6.85,9.79,13.22,9.79,8.81,0,15.17-8.81,12.73-17.13-5.87-19.09-21.05-30.84-36.22-30.84-66.75,0-159.54,191.88-209,294.4v-239.58c0-14.19-17.62-20.07-26.92-7.83-36.71,67.55-154.67,292.7-209,292.7-12.24,0-23.49-8.81-27.41-25.45-1.47-5.87-6.85-10.28-13.22-10.28-9.3,0-15.17,8.81-13.22,16.64,7.34,28.39,28.88,46.01,53.84,46.01,64.18,0,158.52-168.19,209-262.58v244.47c0,15.17,18.6,20.56,26.92,7.34,34.26-65.59,152.22-328.92,209-328.92Z"></path></g></svg> 