<?xml version="1.0" encoding="UTF-8"?> <svg xmlns="http://www.w3.org/2000/svg" id="Layer_1" viewBox="0 0 450 335"><defs><style>.cls-1{fill:#fff;}.cls-2{fill:#ececec;}.cls-3{fill:#bca5cf;}.cls-4{fill:#111035;}</style></defs><rect class="cls-1" y="-.01" width="450" height="335"></rect><rect class="cls-2" y="199.03" width="450" height="55.59"></rect><rect class="cls-2" y="74.4" width="450" height="61.24"></rect><polygon class="cls-3" points="198.12 254.63 179.48 254.63 243.13 74.4 261.76 74.4 198.12 254.63"></polygon><path class="cls-4" d="m75.23,165.85c-2.5,0-4.51-2-4.51-4.67,0-1.34.5-2.5,1.5-3.34,2.84-2.5,4.34-4.17,4.34-4.67,0-1.34-1.67-2-7.01-2-17.35,0-25.53,10.35-25.53,20.19s7.68,18.86,23.7,18.86c24.2,0,39.38-12.35,39.38-27.2,0-22.03-28.37-24.86-28.37-49.9,0-21.19,24.36-38.55,39.88-38.55,22.19,0,23.7,31.21-9.01,38.71-2.84.67-5.51-1.5-5.51-4.51,0-2.17,1.5-4,3.5-4.34,21.36-4.84,22.03-20.69,11.01-20.69s-30.7,14.18-30.7,29.37c0,19.86,28.37,22.86,28.37,49.9,0,20.53-19.69,36.38-48.56,36.38-21.69,0-32.87-13.85-32.87-28.03s11.68-29.37,34.71-29.37c12.68,0,16.19,5.51,16.19,11.18,0,3.67-2.67,7.51-7.51,11.51-.83.67-1.84,1.17-3,1.17Zm152.36,11.68c-3.17,0-5.34-3-4.34-6.01,5.01-16.19,2.84-27.37-.17-26.53-7.84,2.5-20.02,16.02-28.54-3.84-.67-1.5,6.34-.17,6.51-.67-6.01,15.85-23.86,58.91-42.22,58.91-33.88,0,3.67-124.99,26.7-124.99,41.89,0-36.21,111.47-69.75,123.99-2.67,1-6.01-1-6.01-4.17,0-2.17,1.33-3.84,3.17-4.34,25.03-7.34,91.78-106.3,72.59-106.3-12.68,0-43.22,106.63-26.7,106.63,10.01,0,26.7-34.88,33.54-53.07,2-5.01,8.34-5.01,10.51.33,4.51,10.51,9.01,1.33,17.52-1.17,13.35-4.17,19.19,13.68,11.51,38.05-.5,1.84-2.34,3.17-4.34,3.17Zm95.95-41.72c2.5,0,4.67,2.17,4.67,4.67,0,.83-.33,1.5-.67,2.17-22.03,40.38-39.38,56.74-51.56,56.74-11.51,0-17.86-10.35-13.68-23.7,1.67-5.67,10.51-30.7-6.34-30.7-9.68,0-20.36,13.85-31.37,51.06-.5,1.84-2.34,3.34-4.34,3.34-3.17,0-5.34-3-4.34-6.01,11.85-40.05,24.36-57.57,40.05-57.57,28.87,0,16.69,37.05,15.02,42.55-2.17,7.34-.17,11.85,5.01,11.85,7.18,0,22.69-13.85,43.55-51.9.83-1.5,2.34-2.5,4.01-2.5Zm29.04,27.7c2.5,0,4.67,2.17,4.67,4.67,0,1-.33,2-1,2.84-29.04,36.88-78.93,30.37-80.77,67.08-.17,5.67.67,7.34,5.01,7.34,19.52,0,29.37-68.75,38.88-106.63.5-2,2.34-3.5,4.51-3.5,3,0,5.17,3,4.51,5.84-9.51,38.21-18.86,113.47-47.89,113.47-11.01,0-14.52-7.51-14.02-16.85,2-43.72,55.4-38.21,82.6-72.42.83-1.17,2-1.84,3.5-1.84Zm-27.37-51.9c.67-4.17,3.84-7.51,7.18-7.51s5.51,3.34,4.84,7.51c-.67,4.34-3.84,7.68-7.18,7.68s-5.51-3.34-4.84-7.68Zm52.73,24.2c13.02,0,24.7,10.35,22.03,30.54-2.84,21.19-16.52,33.04-29.54,33.04s-24.53-11.85-21.53-33.71c2.5-19.69,16.19-29.87,29.04-29.87Zm-7.51,54.4c8.34,0,18.36-8.68,20.53-25.2,1.67-13.85-5.01-20.02-13.02-20.02-8.51,0-18.19,7.34-20.03,22.03-2,15.85,4.84,23.2,12.52,23.2Zm40.22-36.88c2.5,0,4.51,2,4.51,4.51,0,1.84-1.17,3.5-2.84,4.17-16.02,6.84-38.71,3.17-43.05-18.02-.67-2.84,1.5-5.51,4.51-5.51,2.17,0,4,1.5,4.34,3.67,3.34,14.68,19.36,16.35,30.7,11.51.5-.33,1.17-.33,1.84-.33Z"></path></svg> 