<?xml version="1.0" encoding="UTF-8"?> <svg xmlns="http://www.w3.org/2000/svg" id="Layer_1" data-name="Layer 1" viewBox="0 0 450 335"><defs><style>.cls-1{fill:#fff;}.cls-2{fill:#ececec;}.cls-3{fill:#bca5cf;}.cls-4{fill:#111035;}</style></defs><rect class="cls-1" x="-0.33" width="450" height="335"></rect><rect class="cls-2" x="-0.33" y="199.03" width="450" height="85.3"></rect><rect class="cls-2" x="-0.33" y="50.61" width="450" height="85.03"></rect><rect class="cls-3" x="270.94" y="50.61" width="18.64" height="233.72"></rect><path class="cls-4" d="M26.79,97.55a4.38,4.38,0,0,1-4.37-4.37C21.11,66.5,39.47,52.5,53.91,52.5c10.49,0,19.68,7.44,19.68,28v115a4.38,4.38,0,1,1-8.75,0V80.5c0-14.87-4.81-19.25-10.93-19.25-10.5,0-23.62,10.5-22.74,31.93A4.13,4.13,0,0,1,26.79,97.55Zm142.58,97.54a4.13,4.13,0,0,1-4.37,4.37c-10.5.44-27.12.88-27.12-24.93,0-24.49,0-66-.87-79.6-1.31-20.12-14.87-29.74-29.74-29.74-16.19,0-31.93,10.93-33.68,35a4.13,4.13,0,0,1-4.37,4.37,4.39,4.39,0,0,1-4.38-4.37C66.59,70,87.59,56.44,107.27,56.44c18.37,0,37.17,12.25,38.49,37.61.87,14.44.87,56,.87,80.48,0,17.49,8.75,17.08,18.37,16.64C167.62,191.17,169.37,192.9,169.37,195.09Zm-8.74,0c0-2.63,1.31-3.94,3.49-3.94,14.44,0,20.12-14,26.68-27.12-.87-6.55-6.12-64.29-6.12-82.22,0-13.12,5.69-31.05,20.12-31.05,7.43,0,11.37,5.68,14,14,3.06,10.94.43,34.12-5.25,57.3-.88,3.5-2.63,10.93-4.38,15.74a37.94,37.94,0,0,1,17.5-2.62c18.8,1.75,19.68,17.49,19.68,32.36,0,5.69-1.75,20.12,4.81,22.31a28.69,28.69,0,0,0,10.5,1.75c3.06,0,4.37,1.31,4.37,3.94s-1.31,3.93-3.94,3.93a33.22,33.22,0,0,1-14.43-2.19c-6.12-2.62-9.18-8.74-9.18-20.11,0-7.44,0-17.06-1.75-24.5-2.63-8.31-7-9.18-10.94-9.18-14.43,0-18.8,3.5-23.18,15.74-2.18,5.69-3.06,11.81-3.06,19.25,0,2.62,0,5.25.44,16.62,0,2.62-1.31,4.37-3.94,4.37a4.13,4.13,0,0,1-4.37-4.37l-.44-14.43c-5.68,11.37-12.68,18.8-27.55,18.8C161.94,199.49,160.63,197.74,160.63,195.12ZM207,114.21c3.06-13.56,4.81-27.12,4.81-37.18,0-12.68-3.94-17.93-7.87-17.93-5.25,0-10.94,8.31-10.94,22.74,0,20.56,3.5,59,4.37,66A310.85,310.85,0,0,0,207,114.21Zm51.17,80.91c.44-2.63,1.75-3.94,4.37-3.5a14.85,14.85,0,0,0,12.69-6.56c4.37-6.56,7.87-15.75,10.49-22.31V143.51c0-2.63,1.32-3.94,3.94-3.94s3.94,1.31,3.94,3.94v4.37c4.37-4.81,14.43-12.24,26.67-12.24,14.44,0,30.62,10.93,30.62,31.05,0,8.31-3.94,20.56-8.31,24.49h13.12a4.26,4.26,0,0,1,4.37,3.94q0,3.93-3.93,3.93l-26.24.44c-10.06,0-23.62-1.75-26.25-3.06-2.18-1.31-3.49-2.62-3.06-4.81s1.75-3.5,4.81-3.06c1.75.44,15.31,2.62,17.5,2.62a19.58,19.58,0,0,0,5.68-.44c11.38-3.93,14-14.87,14-23.18,0-14-8.75-24.05-21.43-24.05-11.37,0-22.74,8.75-27.55,18.37V281.72c0,3.93-8.32,3.49-7.88,0V182.43c-4.81,10.5-11.37,17.5-23.62,17.06C259.47,199.49,258.16,198.18,258.16,195.12Zm93.16.87c0-3.5.87-4.81,4.81-4.81,8.31,0,13.12-.44,18.37-3.5,3.06-1.75,10.93-7.87,10.93-21.86V139.57c0-2.62,2.19-4.37,4.81-4.37a4,4,0,0,1,3.94,4.37v23.62c0,9.19,3.06,18.81,10.5,24.06,4.37,3.06,10.06,3.93,17.49,3.93,3.5,0,4.81.88,4.81,3.5,0,3.06-1.31,4.37-7,4.37A48,48,0,0,1,403.36,196c-3.06-1.31-10.49-5.68-13.55-13.56a28.34,28.34,0,0,1-13.56,13.13c-4.81,2.18-11.37,3.49-18.81,3.49C351.76,199.05,351.32,198.18,351.32,196Zm43.73-76.54q0,5.25-5.24,5.25c-3.07,0-4.82-1.75-4.82-5.25,0-3.06,1.75-4.81,4.82-4.81C393.3,114.64,395.05,116.39,395.05,119.45Z"></path></svg> 