<?xml version="1.0" encoding="UTF-8"?> <svg xmlns="http://www.w3.org/2000/svg" id="Layer_1" data-name="Layer 1" viewBox="0 0 1920 786.15"><defs><style>.cls-1{fill:#e2dcef;}.cls-2{fill:#201b35;}</style></defs><rect class="cls-1" y="0.33" width="1920" height="785.48"></rect><path class="cls-2" d="M228.93,118.82c-3.24.81-6.48,1.05-9.71,2.27-12.7,4.61-24.76,20.71-30.42,32.36-8.9,18.2-24.43,67.39-49,67.39-10.76,0-12.78-6.47-12.78-15.86,0-12.21,14.4-35.59,20-47.32,3.56-7.45,6.56-14.41,6.56-22.82,0-9-3.48-16.34-13.51-16.34-4.21,0-8,2.26-11,2.26-1.13,0-1.61-1.05-1.61-2a1.85,1.85,0,0,1,1.13-1.86,35.21,35.21,0,0,1,12.29-2.35c12.14,0,17.08,9.31,17.08,20.31,0,8.66-3.48,17.48-7.21,25.08-5.09,10.36-19.33,34.55-19.33,45.06,0,6.64.32,11.49,8.41,11.49,21.52,0,37.06-49.35,45.39-65.53,7.12-13.83,19.09-29.53,34.38-34.63a31.07,31.07,0,0,1,8.9-1.78,2.15,2.15,0,0,1,2.43,2.19C231,118,230.14,118.5,228.93,118.82Z"></path><path class="cls-2" d="M222.37,167.61c13.43,0,11.33,16,32.44,16v4.28c-6,0-15-1.62-19.25-6.15a9.38,9.38,0,0,1,.4,3c0,16.58-11.73,36.24-30.09,36.24-10,0-15.21-5.66-15.21-15.53C190.66,188.88,204.17,167.61,222.37,167.61Zm-.57,4.28c-15.29,0-26.86,19.34-26.86,33.09,0,7.37,3.24,11.73,10.93,11.73,15.93,0,25.64-17.71,25.64-32C231.51,179,228.36,171.89,221.8,171.89Z"></path><path class="cls-2" d="M268.4,220.84c-7,0-9.79-5.91-9.79-12.22,0-5.5,11.41-23.78,14.89-29.28-4.45,4.77-12.95,8.57-19.5,8.57v-4.28c9.3,0,19-7.77,24.75-14.57.57-.73,1.46-1.78,2.43-1.78s2.35.41,2.35,1.62c0,3-20.55,33.82-20.55,39.72,0,3.73,1,7.93,5.42,7.93,10.19,0,21.11-7.93,29.45-13.1v4.85C289.19,213.8,279.08,220.84,268.4,220.84ZM294.93,139a4,4,0,0,1,4.05,3.8,3.81,3.81,0,0,1-7.61,0A3.6,3.6,0,0,1,294.93,139Z"></path><path class="cls-2" d="M355.45,221.33c-5.67,0-11.33-1.38-11.33-8.1,0-2.91,1.3-5.66,2.35-8.33-5.34,5.26-10.52,11-16.26,15.86a2.42,2.42,0,0,1-1.54.65,2.23,2.23,0,0,1-2.35-1.95,1.69,1.69,0,0,1,.57-1.21c1.94-2.1,4.12-4,6.15-6,4-3.8,7.93-7.6,11.81-11.48a80.39,80.39,0,0,0,6.39-6.4,23.64,23.64,0,0,0,5.5-14.72c0-3.72-.48-8.25-5.34-8.25-10.11,0-26,12.3-33.65,18.77-7.2,6.07-13.51,13.27-21,18.93v-4.86c6.48-5.09,12.14-11.4,18.45-16.82,8.09-7,24.92-19.74,35.76-19.74,8,0,9.95,5,9.95,11.89a26.16,26.16,0,0,1-1.13,7.44c4.12-4.29,8.41-8.41,12.62-12.62,2-1.94,4-4.2,6.14-6a2.33,2.33,0,0,1,1.7-.73,2.21,2.21,0,0,1,2.27,2,2.05,2.05,0,0,1-.57,1.37c-1.86,2.19-4.28,4.13-6.31,6.15-4.77,4.62-9.46,9.23-14.24,13.76-1.61,1.53-5.58,4.77-6.79,6.31-2.11,2.75-6.15,12.13-6.15,15.77,0,3.48,3.64,4,6.39,4,8.9,0,23.54-8.5,30.58-13.59v4.85C378.34,213.56,364.59,221.33,355.45,221.33Z"></path><path class="cls-2" d="M476.15,171.81a41.67,41.67,0,0,1,18.44-4.53c2.59,0,12.22,1,12.22,4.7,0,5.74-8,15.2-11.33,19.82-4.53,6.23-8.82,12.86-8.82,20.87,0,3.88,6.07,3.88,8.74,3.88,6.63,0,23.38-8.74,28.64-13.1v4.85c-5.66,4.69-21.52,12.54-28.64,12.54-5.83,0-13-1.29-13-8.58,0-2.75,1.54-8.65,2.67-11.24-9.62,7.93-21.11,19.82-34.54,19.82a9.22,9.22,0,0,1-9.14-9.06C441.36,196.41,463.61,178.29,476.15,171.81Zm18.2-.32a37,37,0,0,0-15.86,3.72c-11.24,5.58-32.68,23-32.68,36.57a4.87,4.87,0,0,0,4.69,4.77c10.68,0,18.77-7.36,26.29-13.91,2.43-2.11,4.94-4,7.2-6.23,5.5-5.75,16.18-15.86,17.88-23.63A19.62,19.62,0,0,0,494.35,171.49Z"></path><path class="cls-2" d="M640,221.08c-5.83,0-8.17-4-8.17-9.38,0-9.06,19.33-33,19.33-36.73,0-2.19-1.86-2.83-3.64-2.83-5.58,0-18.53,8.65-23,12.21-6.14,4.86-12,9.79-17,15.94-3.56,4.37-6.22,9.39-9.14,14.24a46.7,46.7,0,0,1-3.31,5.42,2.64,2.64,0,0,1-2,.89,2.06,2.06,0,0,1-2.18-1.86c0-1.21,23.3-39.16,23.3-43.93,0-2.19-2.19-3.07-4-3.07-3.56,0-13.26,6.14-16.58,8.33-12.54,8.33-17.56,14-25.81,26.45-2.91,4.37-5.5,9.14-8.66,13.35a2.15,2.15,0,0,1-1.86,1c-.81,0-2.34-.56-2.34-1.62,0-2.34,23.54-32.52,23.54-44,0-2.67-.65-3.56-3.4-3.56-6.55,0-12.46,4.62-17.47,8.34-3.08,2.34-6,5.5-8.9,8.17-8,7.28-16.43,15-25.81,20.71v-4.86c8.17-5.17,15.45-12.05,22.57-18.6,3.16-2.92,6.31-6.07,9.71-8.74,6.07-4.61,11.89-9.3,19.9-9.3,5,0,7.77,2.91,7.77,7.84a18.14,18.14,0,0,1-2.59,9.31c5.91-4.94,22.49-17.07,29.93-17.07,4.45,0,8.34,2.51,8.34,7.36,0,3.4-4.45,11.24-6.15,14.48,6.55-6.47,26.13-21.92,35.19-21.92,4.37,0,7.93,2.42,7.93,7.2,0,6.23-19.26,28.07-19.26,36.16,0,2.75.17,5.74,3.81,5.74,9.46,0,20.79-7.76,28.15-13.26v4.85C660.27,213.8,649.84,221.08,640,221.08Z"></path><path class="cls-2" d="M667.06,204.25c9.55-7.11,18.93-14.48,28.32-21.76l9.54-7.28a31.94,31.94,0,0,0,3.24-2.51c1.78-1.78,11.73-23.14,13.59-27.26,4.45-9.3,10.92-30.74,22.9-31h.64c6.15-.08,10.2,3.89,10.2,10.12,0,10.92-19,27.83-26.7,35.35-3.88,3.8-7.77,7.69-11.81,11.33a70.08,70.08,0,0,0-6,5.09c-2.27,2.43-8.58,14.81-10.6,18.61-3,5.5-5.9,9.39-5.9,16.1a5.82,5.82,0,0,0,5.34,5.5c9.06,0,18.12-12.13,22.89-18.85a100.78,100.78,0,0,0,8-14.48,62,62,0,0,0,3.88-9.71c.41-1.29.65-3,1.14-4.2s1.78-1.54,3-1.54a3.12,3.12,0,0,1,2.43,1,42,42,0,0,1,2.75,5.34c3.15,6.23,7,9.63,14.32,9.55v4.28c-9.23,0-16.83-5.34-19.1-14.4A96.08,96.08,0,0,1,726.93,199c-5.67,8.09-16,21.84-27.1,21.84-5,0-9.71-4.77-9.71-9.79,0-7.69,3-11.73,6.47-18.12,1.94-3.8,4-7.53,6.23-11.08-11.89,9.06-23.79,18.28-35.76,27.26Zm78.64-85.51c-8.74,0-16.51,21.6-19.58,28.56-2.67,5.83-5.42,11.65-8.41,17.39,7.2-7,33.49-31.39,33.49-40C751.2,120.93,749.58,118.74,745.7,118.74Z"></path><path class="cls-2" d="M771.82,220.84c-7,0-9.79-5.91-9.79-12.22,0-5.5,11.41-23.78,14.89-29.28-4.45,4.77-12.94,8.57-19.5,8.57v-4.28c9.31,0,19-7.77,24.76-14.57.57-.73,1.45-1.78,2.43-1.78s2.34.41,2.34,1.62c0,3-20.55,33.82-20.55,39.72,0,3.73,1.05,7.93,5.42,7.93,10.2,0,21.12-7.93,29.45-13.1v4.85C792.62,213.8,782.5,220.84,771.82,220.84ZM798.36,139a4,4,0,0,1,4,3.8,3.8,3.8,0,0,1-7.6,0A3.6,3.6,0,0,1,798.36,139Z"></path><path class="cls-2" d="M800.14,204.25c10.92-7.28,21.76-14.56,32.11-22.65,10.84-8.49,24.36-14.24,38.27-14.24,2.75,0,9.06.17,9.06,4.21,0,4.77-7.44,15.61-10,20.15-4.61,8.17-8.82,16.58-13.19,24.83,7.69-4.2,15.54-8.41,23-13.1v4.85c-8.58,5.18-17.47,9.79-26.13,14.72-6.88,13.6-14.4,26.78-21.6,40.13-3.48,6.31-7.28,11.25-15.13,11.25-4.77,0-7-4.7-7-8.9,0-8.82,6.55-15.54,12-21.76,8.34-9.71,18.85-16.43,28.8-24.28l10.52-21c-8,8-25.4,22.82-37,22.82-6,0-9.06-4-9.06-9.79s2.67-11.73,5.9-16.67c-6.79,4.85-13.51,9.71-20.46,14.24Zm13.75,61.17c0,1.94,1.21,4.53,3.48,4.53,5.58,0,8.33-5,10.6-9.31,6-11.32,12.7-22.16,18.52-33.49C836.78,234.84,813.89,252.31,813.89,265.42Zm10.68-48.54c5.26,0,12.78-4.7,17-7.77,3.32-2.35,6.15-5.34,9.46-7.85A82.11,82.11,0,0,0,870.28,181c1.29-2,3.56-5.1,3.56-7.53,0-1.94-2-2-3.4-2A55.3,55.3,0,0,0,834.6,185c-6.39,5.74-15.29,17.23-15.29,26.13C819.31,214.53,820.93,216.88,824.57,216.88Z"></path><path class="cls-2" d="M950,221c-4.93,0-9.62-4-9.62-9.06s4.85-14.64,7.2-19.42c-9.79,9.47-26.86,28.32-41.1,28.32-6.72,0-11.09-3.72-11.09-10.6,0-4.37,7.45-20.39,10-24.67a168.55,168.55,0,0,1-27.19,23.54v-4.86c10-7.76,20.31-16.18,28.56-25.88,2.91-3.4,5.1-7.45,8.25-10.52a2,2,0,0,1,1.3-.65,1.76,1.76,0,0,1,1.37,1.13,1.78,1.78,0,0,1,.73,1.3c0,1.37-4,7.68-4.77,9-2.67,4.37-4.45,9.22-7,13.67-1.86,3.32-7,14.64-7,18,0,4.53,2.35,6.31,6.72,6.31,13.1,0,25.48-14.72,34.38-23.05,8.17-7.69,13-14.41,18.61-23.95.57-1,1.37-2.11,2.67-2.11a2.19,2.19,0,0,1,2.26,2.19A3,3,0,0,1,964,171c-4.77,8-19.25,32.85-19.25,40.94,0,2.75,2.75,4.77,5.25,4.77,10.6,0,18.93-7.44,27-13.26v4.85C968.49,213.72,960.88,221,950,221Z"></path><path class="cls-2" d="M976,204.09c4.77-2.59,9.3-5.42,13.91-8.33,2.19-11.16,11.17-27.91,24.19-27.91,4.77,0,8,1.86,8,7,0,4.53-4.29,8.17-7.6,10.68-6.56,4.93-13.68,9.22-20.71,13.51-.81,3.88-1.95,7.76-1.95,11.73,0,4.12,2.75,6,6.64,6,10.11,0,23.78-7.52,31.87-13.34v4.85c-8.73,6-21,12.78-31.87,12.78-6.31,0-10.92-3.31-10.92-10,0-3.4.89-6.71,1.53-10-4.28,2.83-8.65,5.42-13.1,7.85Zm38.18-32c-10.19,0-17.31,12.94-19.58,21.6,4.37-2.59,23.14-13.76,23.14-18.53C1017.75,172.78,1016.38,172.14,1014.19,172.14Zm-7.93-27.51a3.77,3.77,0,1,1,0,7.52,3.77,3.77,0,1,1,0-7.52Zm17.88,0a3.77,3.77,0,1,1,0,7.52,3.77,3.77,0,1,1,0-7.52Z"></path><path class="cls-2" d="M1105.69,180.15c10.76-8.5,19.58-12.71,33.49-12.71a36.11,36.11,0,0,1,8.33,1.14c6.48-11.33,12.38-23,18.13-34.63,3.07-6.15,5.66-12.86,9.3-18.61a2,2,0,0,1,1.62-.89,2.39,2.39,0,0,1,2.34,2.27,3.89,3.89,0,0,1-.4,1.37c-9,17.88-17.8,35.92-27.51,53.4-5.42,9.71-11.49,19.09-16.5,29-1.7,3.24-4,8.34-4,12.06,0,4.61,4.13,4.93,7.69,4.93,7.36,0,26-9.3,31.95-14v4.85c-6.55,4.61-24.51,13.43-32.27,13.43-6.23,0-11.74-2.35-11.74-9.38,0-3.24,2.67-9.39,4-12.46-10.76,10.19-18.69,21.35-35,21.35-5.42,0-9-5.34-9-10.35C1086.11,198,1096.22,187.67,1105.69,180.15Zm33.33-8.42c-12.54,0-20.79,4-30.58,11.49-8.09,6.23-18,16.91-18,27.75,0,2.43,2.1,6,4.85,6,13.67,0,21.68-9.55,30.5-18.53,7.61-7.77,13.51-16.67,19.42-25.73A18.14,18.14,0,0,0,1139,171.73Z"></path><path class="cls-2" d="M1193.06,138a3.88,3.88,0,0,1-3.81-3.64c0-1.87,2.83-4.21,2.83-8.58,0-1-.32-2-.32-3.07a3.62,3.62,0,0,1,3.72-3.56c3.64,0,3.89,3.88,3.89,6.63C1199.37,129.1,1197.42,138,1193.06,138Z"></path><path class="cls-2" d="M1288.86,220.84c-4.85,0-9.71-3.72-9.71-8.9s4.86-14.64,7.2-19.42c-9.79,9.47-26.86,28.32-41.1,28.32-6.71,0-11.08-3.72-11.08-10.6,0-4.29,6.55-19.09,9.06-23.22-17.15,17-33.73,27.35-57.12,33.9-.16,0-.4.08-.64.08a1.92,1.92,0,0,1-1.78-2.1,2.25,2.25,0,0,1,1.78-2.27c1.21-.4,2.42-.56,3.64-.89,3.23-.89,6.39-2,9.54-3.23,18-7.28,34.23-19.58,46.93-34.14,2.75-3.08,4.85-6.72,7.6-9.79.49-.49,1-1.14,1.78-1.14a2.6,2.6,0,0,1,2.19,2.35c0,1.21-3.89,7.52-4.7,8.82-3.31,5.5-13.91,26.13-13.91,31.63,0,4.53,2.34,6.31,6.71,6.31,13.11,0,25.49-14.72,34.39-23.05a106.94,106.94,0,0,0,19.09-24.28c.48-.89,1-1.78,2.18-1.78a2.24,2.24,0,0,1,2.27,2.19,3,3,0,0,1-.4,1.37c-4.86,8.09-19.26,32.85-19.26,40.94,0,2.75,2.83,4.53,5.34,4.53,10.11,0,20.06-7.85,28.32-13v4.85C1308.68,213.64,1299.38,220.84,1288.86,220.84Z"></path><path class="cls-2" d="M1397.83,221.08c-5.67,0-9-2.67-9-8.65,0-10.85,18.77-32,18.77-37.62,0-2.43-1-3.08-3.32-3.08a18.22,18.22,0,0,0-9.47,3.24c-10.35,7-20.95,14.56-29.44,23.78-4.45,4.94-8.42,10.44-12.46,15.7-1.46,1.78-2.84,3.88-4.45,5.5a3.28,3.28,0,0,1-2.27,1.29,2.33,2.33,0,0,1-2.18-2.42,1.44,1.44,0,0,1,.4-1.14c4.29-5.74,26.94-38.67,26.94-43.76,0-1.78-1.7-2.19-3.23-2.19-6.56,0-12.3,4.61-17.32,8.33-3.15,2.35-6,5.51-8.9,8.18-8.09,7.36-16.5,15.21-25.88,20.87v-4.86c8.17-5.25,15.53-12.13,22.65-18.76,3.15-2.92,6.23-6.07,9.71-8.74,5.9-4.45,12-9.31,19.74-9.31,4,0,7.52,2.19,7.52,6.48,0,4.69-5.66,12.78-8.25,16.66,5.26-4.29,10.68-8.41,16.1-12.54,3-2.26,5.9-4.61,9.06-6.55,3.32-2.1,7.76-4.21,11.73-4.21,4.45,0,7.69,2.43,7.69,7,0,7.61-18.69,28.07-18.69,38.75,0,2.83,1.86,3.81,4.45,3.81,7.44,0,21.76-8.58,27.5-13.43v4.85C1419.67,213.4,1405.35,221.08,1397.83,221.08Z"></path><path class="cls-2" d="M1496,220.84c-8.57,0-15-5.42-15-14.24,0-.89.09-1.86.17-2.75.56-6.39,6.31-18.53,10.43-23.54,5.75-7,12.62-12.95,22.25-12.95a12.92,12.92,0,0,1,9.63,4.45c1.21,1.46,3.15,4.29,3.15,6.23,0,1.22-1.29,1.78-2.34,1.78a1.82,1.82,0,0,1-1.7-.89,19.38,19.38,0,0,0-1.13-2.59,9.67,9.67,0,0,0-7.85-4.61c-15.37,0-25.24,19.18-28.08,32.12a12.67,12.67,0,0,0-.32,2.51c0,6.63,5.91,10.19,12,10.19,11.74,0,23.87-7,33.34-13.19v4.94C1520.14,215,1508.57,220.84,1496,220.84Z"></path><path class="cls-2" d="M1529.12,204.25c6.07-4.28,16.26-13.51,21-19.17,7.12-8.57,14.64-17.47,26.86-17.47,10.36,0,12.62,9.14,13.19,17.63,4-7.52,10.11-17.63,19.82-17.63a6.7,6.7,0,0,1,7,6.87,12.69,12.69,0,0,1-.81,4.21c-1.94,5.5-6.88,8.9-11.57,12.05-6.07,4.13-12.22,8-18.45,11.9a25.65,25.65,0,0,0-1.29,7.84,6.18,6.18,0,0,0,6.47,6.56c10.6,0,22.9-7.28,31.23-13.59v4.85c-8.9,6.72-20.71,12.7-32,12.7-7,0-9.71-5.5-9.63-11.81-5,6.55-12.21,11.81-20.71,11.81-9.38,0-15-6.55-15-15.61,0-2.43,1-9.14,1.86-11.25-3.4,4.21-13.11,11.57-17.8,15Zm47.49-32.36c-15.78,0-27.27,18.94-27.27,33.26,0,6.71,3.64,11.56,10.68,11.56,14.89,0,25.81-18.6,25.81-32C1585.83,178.93,1583.57,171.89,1576.61,171.89Zm27.1,14.49c3.48-2.35,9.3-6.32,9.3-11.09,0-1.62-1.21-3.72-3.07-3.72-9.55,0-18,18-21.84,25.32Z"></path><path class="cls-2" d="M1693.1,221c-4.93,0-9.63-4-9.63-9.06s4.86-14.64,7.2-19.42c-9.78,9.47-26.85,28.32-41.09,28.32-6.72,0-11.09-3.72-11.09-10.6,0-4.37,7.45-20.39,10-24.67a168.55,168.55,0,0,1-27.19,23.54v-4.86c10-7.76,20.31-16.18,28.56-25.88,2.91-3.4,5.1-7.45,8.25-10.52a2,2,0,0,1,1.3-.65,4.45,4.45,0,0,1,2.1,2.43c0,1.37-4,7.68-4.77,9-2.67,4.37-4.45,9.22-7,13.67-1.86,3.32-7,14.64-7,18,0,4.53,2.35,6.31,6.72,6.31,13.1,0,25.48-14.72,34.38-23.05,8.17-7.69,12.94-14.41,18.61-23.95.56-1,1.37-2.11,2.67-2.11a2.19,2.19,0,0,1,2.26,2.19,3,3,0,0,1-.4,1.37c-4.77,8-19.26,32.85-19.26,40.94,0,2.75,2.75,4.77,5.26,4.77,10.6,0,18.93-7.44,27-13.26v4.85C1711.55,213.72,1703.94,221,1693.1,221Z"></path><path class="cls-2" d="M1765.83,221.33c-6.23,0-11.57-2.92-11.57-9.87,0-13,12.13-21.52,12.13-32,0-3.4-4.53-5.42-6.47-7.77-12,12.78-25.16,29.61-41,37.3v-4.86c14.08-7.92,30.18-26.13,40.62-38.83.24-.24.4-.73.81-.73l.32.16a2.16,2.16,0,0,1,1.94,1.87c0,.4-.4.89-.4,1.53,0,2.51,8.49,5.75,8.49,11.33,0,12.3-12,20.71-12,32,0,4.36,3.48,5.58,7.2,5.58,8.57,0,24.35-8.25,31.14-13.59v4.85C1789.94,213.48,1774.48,221.33,1765.83,221.33Z"></path><path class="cls-2" d="M187.34,366.42c4,0,9,.32,12.54,2.27a2.55,2.55,0,0,1,2.51,2.66,2.06,2.06,0,0,1-.32,1.14c-5.67,10.68-12.22,20.95-18,31.55-1.86,3.56-3.81,7-5.83,10.52a19.48,19.48,0,0,0,8,1.61c9.79,0,24.68-8.57,32.93-13.91v4.85c-8.74,5.59-22.49,13.43-32.93,13.43a25,25,0,0,1-8.09-1.37,56.85,56.85,0,0,1,1.54,14.32,66.58,66.58,0,0,1-1.7,15.94c-2.19,9-9.79,23.38-20.47,23.38-4.77,0-8.25-4.86-8.25-9.31,0-8.17,19.49-41,24.51-49.91,3.24-5.75,6.39-11.57,9.63-17.32-1,1.05-2.11,2-3.24,3-8.41,7.28-22,20.87-33.65,20.87-6.8,0-9.71-4.29-9.71-10.6C136.78,386.73,166.23,366.42,187.34,366.42Zm-40.85,49.35c9.71,0,23.86-13.67,31-20,8.25-7.2,13.68-14.48,19.34-23.79a31.39,31.39,0,0,0-9.47-1.21c-18.44,0-40.69,15.21-45.63,33.41a20.67,20.67,0,0,0-.81,5.42C140.9,413.34,142.44,415.77,146.49,415.77Zm27.75,5.83c-4.62,8.25-20.39,34-20.39,41.74,0,1.86,1.37,5.1,3.64,5.1,8.17,0,14.64-13.35,16.26-20.07a60.72,60.72,0,0,0,1.54-14.8A59.22,59.22,0,0,0,174.24,421.6Z"></path><path class="cls-2" d="M289.76,419.81c-4.94,0-9.63-4-9.63-9.06s4.86-14.64,7.2-19.41c-9.79,9.46-26.86,28.31-41.1,28.31-6.71,0-11.08-3.72-11.08-10.59,0-4.37,7.44-20.39,10-24.68A167.07,167.07,0,0,1,218,407.92v-4.85c10-7.77,20.31-16.18,28.56-25.89,2.91-3.4,5.09-7.44,8.25-10.52a2,2,0,0,1,1.29-.64,1.75,1.75,0,0,1,1.38,1.13,1.79,1.79,0,0,1,.73,1.29c0,1.38-4,7.69-4.78,9-2.67,4.37-4.45,9.23-7,13.67-1.86,3.32-7,14.65-7,18,0,4.53,2.34,6.31,6.71,6.31,13.11,0,25.49-14.73,34.39-23.06,8.17-7.69,12.94-14.4,18.6-23.95.57-1,1.38-2.1,2.67-2.1a2.19,2.19,0,0,1,2.27,2.18,2.92,2.92,0,0,1-.41,1.38c-4.77,8-19.25,32.84-19.25,40.93,0,2.75,2.75,4.78,5.26,4.78,10.6,0,18.93-7.45,27-13.27v4.85C308.2,412.53,300.6,419.81,289.76,419.81Z"></path><path class="cls-2" d="M348.16,419.65c-6.87,0-9.78-4.53-9.78-11,0-6,9.62-20.55,13.1-26-10.92,9.79-23.54,17.48-35.92,25.32v-4.85c17.64-11.09,29.85-20,44.25-35.19.73-.81,1.7-1.78,2.84-1.78a2.5,2.5,0,0,1,2.58,2.34c0,1.86-22.57,33.66-22.57,40.21,0,3.88,1.14,6.72,5.5,6.72,10.2,0,21-7.85,29.45-13.11v4.85C368.88,412.61,358.84,419.65,348.16,419.65ZM376,337.78a4,4,0,0,1,4.05,3.8,3.8,3.8,0,0,1-7.6,0A3.59,3.59,0,0,1,376,337.78Z"></path><path class="cls-2" d="M468.22,370.63a41.54,41.54,0,0,1,18.44-4.53c2.59,0,12.22,1,12.22,4.69,0,5.74-8,15.21-11.33,19.82-4.53,6.23-8.82,12.86-8.82,20.87,0,3.89,6.07,3.89,8.74,3.89,6.64,0,23.38-8.74,28.64-13.11v4.85c-5.66,4.7-21.52,12.54-28.64,12.54-5.82,0-13-1.29-13-8.57a39.09,39.09,0,0,1,2.67-11.25c-9.63,7.93-21.12,19.82-34.55,19.82a9.22,9.22,0,0,1-9.14-9.06C433.43,395.22,455.68,377.1,468.22,370.63Zm18.2-.33A37.22,37.22,0,0,0,470.56,374c-11.24,5.59-32.68,23-32.68,36.57a4.88,4.88,0,0,0,4.69,4.78c10.68,0,18.77-7.37,26.29-13.92,2.43-2.1,4.94-4,7.2-6.23,5.51-5.74,16.19-15.86,17.88-23.62A19.63,19.63,0,0,0,486.42,370.3Z"></path><path class="cls-2" d="M586.73,419.81c-4.93,0-9.62-4-9.62-9.06s4.85-14.64,7.2-19.41c-9.79,9.46-26.86,28.31-41.1,28.31-6.72,0-11.09-3.72-11.09-10.59,0-4.37,7.45-20.39,10-24.68A167.57,167.57,0,0,1,515,407.92v-4.85c10-7.77,20.31-16.18,28.56-25.89,2.91-3.4,5.1-7.44,8.25-10.52a2,2,0,0,1,1.3-.64,4.47,4.47,0,0,1,2.1,2.42c0,1.38-4,7.69-4.77,9-2.67,4.37-4.45,9.23-7,13.67-1.86,3.32-7,14.65-7,18,0,4.53,2.35,6.31,6.72,6.31,13.1,0,25.48-14.73,34.38-23.06,8.17-7.69,12.95-14.4,18.61-23.95.56-1,1.37-2.1,2.67-2.1a2.19,2.19,0,0,1,2.26,2.18,3,3,0,0,1-.4,1.38c-4.77,8-19.26,32.84-19.26,40.93,0,2.75,2.76,4.78,5.26,4.78,10.6,0,18.93-7.45,27-13.27v4.85C605.18,412.53,597.57,419.81,586.73,419.81Z"></path><path class="cls-2" d="M656,418A117,117,0,0,1,664.71,407c10-12,35.52-40.61,51.94-40.61,5.91,0,9.31,1.54,9.31,7.77,0,9.3-15.78,28.23-21.28,36.48a5,5,0,0,1,1.13-.08c3.24,0,4.7,1.94,6.15,4.53,6.8-4.37,13.75-8.41,20.55-12.78v4.85c-6.31,4.29-13.19,7.93-19.42,12.3a10.22,10.22,0,0,1,.17,2.27c0,13.26-18.61,51.37-33.58,51.37-5.74,0-8.74-4-8.74-9.39,0-15.93,25.89-36.81,37.79-45.79-.25-2.5-2-3.64-4.29-3.64-4.29,0-6.64,6.15-9.06,6.15a2.11,2.11,0,0,1-2.11-1.86c0-1.86,28.4-32.76,28.4-44.41,0-2.59-1.46-3.81-3.88-3.81-19.42,0-46.12,35.11-57.69,48.95a2.72,2.72,0,0,1-2,1.13,2.34,2.34,0,0,1-2.26-1.94Zm53.23,4.12c-10.27,7.69-34,28.15-34,41.5,0,2.75,1.38,5.1,4.45,5.1,11.41,0,29.53-35.27,29.53-45.63Z"></path><path class="cls-2" d="M731.45,402.91c4.78-2.59,9.31-5.42,13.92-8.34,2.18-11.16,11.16-27.91,24.19-27.91,4.77,0,8,1.86,8,7,0,4.53-4.29,8.17-7.61,10.68-6.55,4.93-13.67,9.22-20.71,13.51-.81,3.88-1.94,7.77-1.94,11.73,0,4.13,2.75,6,6.64,6,10.11,0,23.78-7.53,31.87-13.35v4.85c-8.74,6-21,12.79-31.87,12.79-6.32,0-10.93-3.32-10.93-10,0-3.39.89-6.71,1.54-10-4.29,2.83-8.66,5.42-13.11,7.85Zm38.19-32c-10.19,0-17.31,12.94-19.58,21.6C754.43,390,773.2,378.8,773.2,374,773.2,371.6,771.82,371,769.64,371Zm-4.45-24c3-1.45,25.89-13.59,27.51-13.59a2.46,2.46,0,0,1,2.26,2.43,2.12,2.12,0,0,1-1.29,1.86c-3,1.54-25.89,13.59-27.43,13.59a2.4,2.4,0,0,1-2.34-2.35A2.23,2.23,0,0,1,765.19,346.92Z"></path><path class="cls-2" d="M788,424.91c8.17-8.09,16.34-16.26,23.22-25.48,5.1-6.72,8.66-14.08,12.3-21.68-7.77,8.57-28.72,24.67-39,30.17v-4.77c12.38-6.72,26.7-19.82,36.81-29.69,1.95-1.86,3.72-3.8,5.59-5.67a4.09,4.09,0,0,1,2.58-1.37,1.61,1.61,0,0,1,1.62,1.78c0,2.35-5,14.48-6.15,17.47,8.74-10.19,19.82-19.25,34-19.25,8.26,0,12.7,9.06,12.7,16.26,0,12-10.92,24-20.3,30.26,9.06-3,19.25-5.34,27.26-10.68v4.85c-10.92,6.39-34.06,13.11-46.68,13.11-6.71,0-17.23-2-22.65-5.91-9,16.1-16.26,33.34-26.78,48.38-3.8,5.42-8.58,10.68-15.69,10.68-5.1,0-7.77-4.69-7.77-9.38C759,451.21,779.26,433.57,788,424.91Zm2.51,3.48c-8.09,8.33-27.1,23.71-27.1,35.76,0,2.26.64,4.85,3.4,4.85,5,0,9.46-5,12.13-8.81,9.39-13.27,17-30.42,24.92-45C799.25,419.41,794.88,423.94,790.51,428.39Zm43.61-13c13.59,0,33.17-19,33.17-32.69,0-4.61-2.84-11.89-8.34-11.89-11.89,0-21,7.44-28.88,15.61-4,4.21-13.43,13.68-16.1,18-.89,1.46-1.7,3-2.59,4.37C815.83,414.48,827.56,415.37,834.12,415.37Z"></path><path class="cls-2" d="M877.39,403c9-5.42,40.86-26.3,46.12-32.61,2.59-3.07,4.37-8.09,6.07-11.73,3.8-8.09,7.6-16.18,11.64-24.19s10-21.19,20.47-21.19c5.5,0,9.87,3.64,9.87,9.3,0,9.63-9.22,18.69-15.85,24.92-4.21,4-27.92,24-29.05,26.37-1.7,3.48-3.4,7-5.18,10.52,9.39-6.31,23.39-18,34.95-18,5.59,0,10.2,2.43,10.2,8.57,0,11.82-14.81,21.85-14.81,35.12,0,5.17,4.86,5.25,8.74,5.25,6.8,0,21.68-8.65,27.26-13v4.85c-6.31,4.37-19.74,12.54-27.26,12.54-6.47,0-13.11-1.94-13.11-9.62,0-13.92,14.81-25.49,14.81-35.12,0-3.56-2.91-4.2-5.83-4.2-10.11,0-26.69,12.46-35,18.6-1.94,1.38-3.48,3.16-5.34,4.7-2,3.48-13.35,25.72-15.77,25.72-1.38,0-2.27-.64-2.27-2.1l3.32-5.5c6.63-10.92,12.14-22.49,18.61-33.49-13.59,10.43-27.51,20.95-42.56,29.2Zm84.06-85.35c-7.36,0-13.67,13.18-16.42,18.93l-12.95,26.78c8.9-9.07,35.11-27.51,35.11-40.54C967.19,320,964.2,317.64,961.45,317.64Z"></path><path class="cls-2" d="M986.77,403.07c8.65-7.2,17.55-14,25.48-22,5.1-5.17,16.5-14.64,24.35-14.64,4.13,0,8.09,3.07,8.09,7.36,0,13.67-15.94,24.92-15.94,38.92,0,2.91,1.22,3.64,3.89,3.64,14.24,0,38.75-29,46.6-40a84.39,84.39,0,0,0,5.74-9.22,1.17,1.17,0,0,1,1-.57,2.42,2.42,0,0,1,2.67,2.27c0,.64-22.49,42.39-25.08,47,8-4.77,17.07-8.33,24.84-13.59v4.85c-3.56,2.19-7.36,4-11,5.91A172.61,172.61,0,0,0,1059,423.54c-1.94,3.23-4,6.47-5.74,9.79-5.58,9.95-18.61,39.56-31.8,39.56-4.37,0-9-2.19-9-7.2,0-18.77,30.58-37.3,44.34-47.09,4.93-8.41,9.71-16.83,14.16-25.48-7.85,9.46-25.41,27.5-38.35,27.5-5.26,0-8.25-2.5-8.25-7.92,0-14.08,15.93-26.62,15.93-38.92,0-1.94-2-3-3.72-3-7.68,0-17.72,8.9-22.73,14.24-8,8.49-17.8,15.85-27.1,22.89Zm30.09,62.62c0,2.42,2.91,2.83,4.61,2.83,10,0,25.49-33.33,30.58-41.67C1041.38,434.38,1016.86,451.45,1016.86,465.69Z"></path><path class="cls-2" d="M1134,420.14c-6.23,0-11.57-2.91-11.57-9.87,0-12.95,12.14-21.52,12.14-32,0-3.4-4.53-5.42-6.47-7.76-12,12.78-25.16,29.61-41,37.29V403c14.08-7.93,30.18-26.13,40.61-38.84.24-.24.41-.72.81-.72l.33.16a2.16,2.16,0,0,1,1.94,1.86c0,.4-.41.89-.41,1.54,0,2.5,8.5,5.74,8.5,11.32,0,12.3-12.06,20.71-12.06,32,0,4.37,3.48,5.58,7.2,5.58,8.58,0,24.35-8.25,31.15-13.59v4.85C1158.11,412.29,1142.66,420.14,1134,420.14Z"></path><path class="cls-2" d="M1233,424.91c8.17-8.09,16.34-16.26,23.22-25.48,5.09-6.72,8.66-14.08,12.3-21.68-18.61,20.79-32,31.87-58.42,42.06a3,3,0,0,1-.89.17,2.33,2.33,0,0,1-2.1-2.43,2,2,0,0,1,1.38-2c3.07-1.54,6.47-2.59,9.62-4a102.68,102.68,0,0,0,19.74-11.16,171.68,171.68,0,0,0,22.58-20.07c3.88-4,7.52-8.57,11.48-12.46a4.13,4.13,0,0,1,2.59-1.37,1.62,1.62,0,0,1,1.62,1.78c0,2.26-5.1,14.72-6.15,17.47,8.74-10.27,19.82-19.25,34-19.25,8.25,0,12.7,9.06,12.7,16.26,0,12-10.92,24-20.3,30.26,9.38-3.08,18.68-5.66,27.26-10.68v4.85c-11.08,6.23-34.06,13.11-46.68,13.11-6.72,0-17.23-2-22.65-5.91-9,16.1-16.18,33.34-26.78,48.38-3.8,5.42-8.58,10.68-15.7,10.68-5.09,0-7.76-4.69-7.76-9.38C1204.06,451.21,1224.28,433.57,1233,424.91Zm2.51,3.48c-8.09,8.33-27.1,23.71-27.1,35.76,0,2.26.64,4.85,3.39,4.85,5,0,9.47-5,12.14-8.81,9.38-13.27,17-30.42,24.92-45C1244.26,419.41,1239.9,423.94,1235.53,428.39Zm43.6-13c13.6,0,33.17-19,33.17-32.69,0-4.61-2.83-11.89-8.33-11.89-11.89,0-21,7.44-28.88,15.61-4,4.21-13.43,13.68-16.1,18-.89,1.46-1.7,3-2.59,4.37C1260.85,414.48,1272.58,415.37,1279.13,415.37Z"></path><path class="cls-2" d="M1369.33,420.14c-6.23,0-11.57-2.91-11.57-9.87,0-12.95,12.14-21.52,12.14-32,0-3.4-4.53-5.42-6.47-7.76-12,12.78-25.16,29.61-41,37.29V403c14.08-7.93,30.18-26.13,40.61-38.84.24-.24.41-.72.81-.72l.33.16a2.16,2.16,0,0,1,1.94,1.86c0,.4-.41.89-.41,1.54,0,2.5,8.5,5.74,8.5,11.32,0,12.3-12.06,20.71-12.06,32,0,4.37,3.48,5.58,7.2,5.58,8.58,0,24.35-8.25,31.15-13.59v4.85C1393.44,412.29,1378,420.14,1369.33,420.14Z"></path><path class="cls-2" d="M1399.42,402.91c4.78-2.59,9.31-5.42,13.92-8.34,2.18-11.16,11.16-27.91,24.19-27.91,4.77,0,8,1.86,8,7,0,4.53-4.29,8.17-7.61,10.68-6.55,4.93-13.67,9.22-20.71,13.51-.81,3.88-1.94,7.77-1.94,11.73,0,4.13,2.75,6,6.64,6,10.11,0,23.78-7.53,31.87-13.35v4.85c-8.74,6-21,12.79-31.87,12.79-6.32,0-10.93-3.32-10.93-10,0-3.39.89-6.71,1.54-10-4.29,2.83-8.66,5.42-13.11,7.85Zm38.19-32c-10.19,0-17.31,12.94-19.58,21.6,4.37-2.59,23.14-13.75,23.14-18.53C1441.17,371.6,1439.79,371,1437.61,371Zm-4.45-24c3-1.45,25.89-13.59,27.51-13.59a2.46,2.46,0,0,1,2.26,2.43,2.12,2.12,0,0,1-1.29,1.86c-3,1.54-25.89,13.59-27.43,13.59a2.4,2.4,0,0,1-2.34-2.35A2.23,2.23,0,0,1,1433.16,346.92Z"></path><path class="cls-2" d="M1455.16,446.84c11.89-21.2,22.41-43,33.9-64.48-12,8.73-24.11,17.15-36.32,25.48V403c14.07-9.79,28.15-19.5,41.82-29.86,5.18-9.06,9.79-18.52,14.16-28.07,3.88-8.74,11.41-31.79,22.9-31.79,6.47,0,10.84,3.4,10.84,10.11,0,10.76-19.74,28.56-27.19,36.08-5.66,5.67-11.16,11.41-17.39,16.51-1.86,3.15-3.8,6.23-5.5,9.46-5.1,9.71-9.55,19.82-14.65,29.53a4.8,4.8,0,0,0,2.11.49c13.67,0,23.86-5.67,34.78-13.19a23.07,23.07,0,0,0-.08,2.35c0,.8,0,1.69.08,2.5-11.4,7.93-21.84,12.95-36.08,12.54,1.14,2.35,1.22,5.83,1.14,8.42v3.31c-.09,11.09-8.18,41.91-22.25,41.91-6.15,0-8.17-3.4-8.17-9.14C1449.26,460,1453.06,450.64,1455.16,446.84Zm19-25.57c-5.09,9.22-10.11,18.53-15.21,27.75-1.45,2.67-5.34,12.22-5.34,15,0,2.51.65,4.93,3.65,4.93,7.52,0,14.64-19.49,16.26-25.32a46.76,46.76,0,0,0,1.78-12.05c0-1.7.24-3.48.24-5.18A8.61,8.61,0,0,0,1474.17,421.27Zm63.92-97.73c0-4.29-2-5.9-6.15-5.9-8.5,0-16.18,22.57-19.18,29.28-2.67,5.83-5.34,11.65-8.33,17.32C1511.39,357.44,1538.09,331.39,1538.09,323.54Z"></path><path class="cls-2" d="M1513.57,402.91c4.77-2.59,9.3-5.42,13.92-8.34,2.18-11.16,11.16-27.91,24.18-27.91,4.78,0,8,1.86,8,7,0,4.53-4.28,8.17-7.6,10.68-6.55,4.93-13.67,9.22-20.71,13.51-.81,3.88-1.94,7.77-1.94,11.73,0,4.13,2.75,6,6.63,6,10.11,0,23.79-7.53,31.88-13.35v4.85c-8.74,6-21,12.79-31.88,12.79-6.31,0-10.92-3.32-10.92-10,0-3.39.89-6.71,1.54-10-4.29,2.83-8.66,5.42-13.11,7.85Zm38.19-32c-10.2,0-17.32,12.94-19.58,21.6,4.37-2.59,23.14-13.75,23.14-18.53C1555.32,371.6,1553.94,371,1551.76,371Zm-16-37.62c1.62,0,24.51,12.14,27.5,13.59a2.24,2.24,0,0,1,1.3,1.94,2.4,2.4,0,0,1-2.35,2.35c-1.53,0-24.43-12-27.42-13.59a2.13,2.13,0,0,1-1.3-1.86A2.46,2.46,0,0,1,1535.74,333.33Z"></path><path class="cls-2" d="M1613.64,420.14c-6.23,0-11.57-2.91-11.57-9.87,0-12.95,12.14-21.52,12.14-32,0-3.4-4.53-5.42-6.47-7.76-12,12.78-25.16,29.61-41,37.29V403c14.08-7.93,30.18-26.13,40.61-38.84.25-.24.41-.72.81-.72l.33.16a2.15,2.15,0,0,1,1.94,1.86c0,.4-.41.89-.41,1.54,0,2.5,8.5,5.74,8.5,11.32,0,12.3-12.06,20.71-12.06,32,0,4.37,3.48,5.58,7.2,5.58,8.58,0,24.36-8.25,31.15-13.59v4.85C1637.75,412.29,1622.3,420.14,1613.64,420.14Z"></path><path class="cls-2" d="M1643.73,402.91c4.78-2.59,9.31-5.42,13.92-8.34,2.18-11.16,11.16-27.91,24.19-27.91,4.77,0,8,1.86,8,7,0,4.53-4.29,8.17-7.61,10.68-6.55,4.93-13.67,9.22-20.71,13.51-.81,3.88-1.94,7.77-1.94,11.73,0,4.13,2.75,6,6.64,6,10.11,0,23.78-7.53,31.87-13.35v4.85c-8.74,6-21,12.79-31.87,12.79-6.31,0-10.93-3.32-10.93-10,0-3.39.89-6.71,1.54-10-4.29,2.83-8.66,5.42-13.11,7.85Zm38.19-32c-10.19,0-17.31,12.94-19.58,21.6,4.37-2.59,23.14-13.75,23.14-18.53C1685.48,371.6,1684.1,371,1681.92,371Z"></path><path class="cls-2" d="M124.4,614.42c4.77-2.67,9.95-4.85,14.72-7.52a265.57,265.57,0,0,0,24.68-15.46c4.53-3.07,23.79-17.47,26.37-21a49.19,49.19,0,0,0,3.89-7.36c4.12-8.58,6.87-17.64,10.6-26.29,3.56-8.18,9.7-24.76,20.38-24.76,7,0,9.55,5,9.55,11.33,0,12.13-32,38.83-40.05,49.51-1.21,1.62-2,4-2.91,5.82-1.94,4-4,7.85-6,11.65-1.37,2.51-6.79,14-6.79,16.59,0,6.31,3.23,7.2,8.82,7.2,8.33,0,20.55-8.58,27.58-13.11v4.86c-8.09,5-17.63,12.62-27.58,12.62-8,0-13.19-3-13.19-11.57,0-3.72,5.66-15.29,7.52-18.77,1.46-2.67,2.51-5.74,4.13-8.33-16.1,13.51-41.1,29.85-60.19,38.59a2.2,2.2,0,0,1-1,.24,2.24,2.24,0,0,1-.57-4.29Zm100.64-98c-7.84,0-12.86,14.8-15.45,20.71-3.15,7.2-5.91,14.48-8.66,21.84,8.58-7.2,16.35-15.93,23.38-24.59,2.43-2.91,5.91-7,5.91-11S229.41,516.45,225,516.45Z"></path><path class="cls-2" d="M214.2,601.72c4.77-2.59,9.3-5.42,13.91-8.33,2.19-11.17,11.17-27.91,24.19-27.91,4.77,0,8,1.86,8,7,0,4.53-4.29,8.18-7.6,10.68-6.56,4.94-13.68,9.23-20.71,13.51-.81,3.89-1.95,7.77-1.95,11.73,0,4.13,2.75,6,6.64,6,10.11,0,23.78-7.52,31.87-13.35v4.86c-8.73,6-21,12.78-31.87,12.78-6.31,0-10.92-3.32-10.92-10,0-3.4.89-6.72,1.53-10-4.28,2.83-8.65,5.42-13.1,7.84Zm38.18-32c-10.19,0-17.31,13-19.58,21.6,4.37-2.59,23.14-13.75,23.14-18.52C255.94,570.41,254.57,569.76,252.38,569.76Z"></path><path class="cls-2" d="M267.27,601.88c11.65-6.47,22.57-15.13,32.6-24,4.37-3.88,7.77-9.3,12-12.78a2.36,2.36,0,0,1,1.46-.56c2.75,0,2,4.28,2,6,0,3.32.24,6.64.24,9.95,0,12.38-3.23,26.94-14.88,33.42,12.13-.73,24.11-5.83,34-12.87,0,.81-.08,1.62-.08,2.43s.08,1.62.08,2.43a73.52,73.52,0,0,1-41.26,12.54c-9.55,0-16.83-7.12-18.85-16.18-2.35,1.53-4.86,3-7.28,4.45Zm44-30.18c-3.48,3.48-6.56,7.2-10.2,10.52a172.84,172.84,0,0,1-22.49,17.32c1.46,5.9,5.18,13.26,12.22,13.26,3.31,0,6.47-1.61,9.22-3.48,6.39-4.28,8-9.3,9.79-16.42a51.7,51.7,0,0,0,1.7-13.1C311.52,577.13,311.36,574.46,311.28,571.7Z"></path><path class="cls-2" d="M378.26,615.15c4.12-1.62,8.49-2.67,12.7-4.21a103.62,103.62,0,0,0,22.73-11.65,152.3,152.3,0,0,0,34.95-33.41,2.45,2.45,0,0,1,1.7-1,2.39,2.39,0,0,1,2.18,2.43c0,1.61-19,41.58-21.27,45.54,6.63-3.8,13.51-7.44,19.82-11.81v4.86c-7.36,5.09-15.37,9.14-23,13.83-6.55,12.14-12.21,24.76-18.36,37-3.32,6.64-9.55,14.89-17.8,14.89a9,9,0,0,1-9.3-9.39c0-12.86,31.14-37.86,41.26-45.46,6.23-11.41,11.08-23.38,17-35-7.11,7.12-16.42,15.29-24.83,20.87-12.3,8.25-22.33,12.22-36.41,16a2.38,2.38,0,0,1-.81.16,2.12,2.12,0,0,1-2.1-2A1.82,1.82,0,0,1,378.26,615.15ZM387,662.31c0,3.08,1.86,5,4.94,5,7.52,0,13.91-12.62,16.75-18.44,4-8.09,7.6-16.43,12-24.36C412.64,630.93,387,652,387,662.31Zm78.8-125.72a3.78,3.78,0,1,1,0,7.53,3.77,3.77,0,1,1,0-7.53Z"></path><path class="cls-2" d="M449.85,601.88a308.49,308.49,0,0,0,26-18.77c11.08-9.3,22.33-18.2,37.7-18.2,2.59,0,12.22,1,12.22,4.69,0,5.75-8,15.21-11.41,19.82-4.53,6.23-8.74,12.87-8.74,20.88,0,3.88,6.07,3.88,8.66,3.88,6.71,0,23.46-8.74,28.72-13.11v4.86c-5.66,4.69-21.52,12.54-28.72,12.54-5.75,0-12.95-1.3-12.95-8.58A36.8,36.8,0,0,1,504,598.65c-11.65,9.62-17.71,19.82-34.54,19.82a9.22,9.22,0,0,1-9.14-9.06c0-4,2.1-9,4.12-12.46-4.77,3.48-9.62,6.63-14.56,9.79Zm63.43-32.76a37,37,0,0,0-15.86,3.72c-11.24,5.58-32.68,23-32.68,36.57a4.87,4.87,0,0,0,4.69,4.77c10.52,0,16.1-4.69,23.54-11.25,7.85-6.87,25.57-22.57,27.83-32.52A20.19,20.19,0,0,0,513.28,569.12Z"></path><path class="cls-2" d="M599.84,549.78h13.91a1.86,1.86,0,0,1,1.94,1.94,2.42,2.42,0,0,1-2.34,2.43H597.49c-1.62,3.07-3.23,6.23-5,9.22-3.56,6.15-6.56,12.62-10.12,18.77-2.51,4.53-5.26,8.82-7.6,13.43-1.94,3.88-3.88,8-3.88,12.46,0,4.77,5.33,6.23,9.3,6.23,6.88,0,19.74-9.14,25.48-13.19v4.86c-6.23,4.45-17.8,12.7-25.48,12.7-6.64,0-13.59-3.08-13.59-10.6,0-9.95,10-23.87,14.8-32.6a351.13,351.13,0,0,1-39.56,31.31v-4.86c11.17-7.77,26.54-19.5,36.16-29.12,3.08-3.08,6.48-5.75,9-9.39,2-3,4-6.15,5.83-9.22H578.4a2.19,2.19,0,0,1,0-4.37h16.91c4.37-8,8.41-16.26,12.38-24.51,1.86-3.89,3.47-8.09,5.58-11.81a2.28,2.28,0,0,1,2.34-1.38,1.87,1.87,0,0,1,1.95,1.94C617.56,514.67,601.7,546.14,599.84,549.78Z"></path><path class="cls-2" d="M662.61,549.78h13.92a1.87,1.87,0,0,1,1.94,1.94,2.42,2.42,0,0,1-2.35,2.43H660.27c-1.62,3.07-3.24,6.23-5,9.22-3.56,6.15-6.55,12.62-10.11,18.77-2.51,4.53-5.26,8.82-7.61,13.43-1.94,3.88-3.88,8-3.88,12.46,0,4.77,5.34,6.23,9.31,6.23,6.87,0,19.74-9.14,25.48-13.19v4.86c-6.23,4.45-17.8,12.7-25.48,12.7-6.64,0-13.6-3.08-13.6-10.6,0-9.95,10-23.87,14.81-32.6a352,352,0,0,1-39.56,31.31v-4.86c11.16-7.77,26.53-19.5,36.16-29.12,3.07-3.08,6.47-5.75,9-9.39,2-3,4-6.15,5.83-9.22h-14.4a2.19,2.19,0,0,1,0-4.37h16.9c4.37-8,8.42-16.26,12.38-24.51,1.86-3.89,3.48-8.09,5.58-11.81a2.29,2.29,0,0,1,2.35-1.38,1.87,1.87,0,0,1,1.94,1.94C680.33,514.67,664.48,546.14,662.61,549.78Z"></path><path class="cls-2" d="M667.38,601.72c4.78-2.59,9.31-5.42,13.92-8.33,2.18-11.17,11.16-27.91,24.19-27.91,4.77,0,8,1.86,8,7,0,4.53-4.29,8.18-7.61,10.68-6.55,4.94-13.67,9.23-20.71,13.51-.81,3.89-1.94,7.77-1.94,11.73,0,4.13,2.75,6,6.63,6,10.12,0,23.79-7.52,31.88-13.35v4.86c-8.74,6-21,12.78-31.88,12.78-6.31,0-10.92-3.32-10.92-10,0-3.4.89-6.72,1.54-10-4.29,2.83-8.66,5.42-13.11,7.84Zm38.19-32c-10.19,0-17.31,13-19.58,21.6,4.37-2.59,23.14-13.75,23.14-18.52C709.13,570.41,707.75,569.76,705.57,569.76Z"></path><path class="cls-2" d="M720.45,601.88c11.65-6.47,22.57-15.13,32.61-24,4.36-3.88,7.76-9.3,12-12.78a2.33,2.33,0,0,1,1.46-.56c2.75,0,2,4.28,2,6,0,3.32.24,6.64.24,9.95,0,12.38-3.24,26.94-14.88,33.42,12.13-.73,24.1-5.83,34-12.87,0,.81-.08,1.62-.08,2.43s.08,1.62.08,2.43a73.5,73.5,0,0,1-41.26,12.54c-9.54,0-16.82-7.12-18.85-16.18-2.34,1.53-4.85,3-7.28,4.45Zm44-30.18c-3.48,3.48-6.55,7.2-10.19,10.52a173.52,173.52,0,0,1-22.49,17.32c1.46,5.9,5.18,13.26,12.22,13.26,3.31,0,6.47-1.61,9.22-3.48,6.39-4.28,8-9.3,9.79-16.42a51.7,51.7,0,0,0,1.7-13.1C764.71,577.13,764.54,574.46,764.46,571.7Z"></path><path class="cls-2" d="M863.24,577.77c10.76-8.49,19.58-12.7,33.49-12.7a36.64,36.64,0,0,1,8.33,1.13c6.48-11.32,12.38-23,18.13-34.62,3.07-6.15,5.66-12.87,9.3-18.61a2,2,0,0,1,1.62-.89,2.38,2.38,0,0,1,2.34,2.27,3.89,3.89,0,0,1-.4,1.37c-9,17.88-17.8,35.92-27.51,53.4-5.42,9.7-11.49,19.09-16.5,29-1.7,3.23-4,8.33-4,12,0,4.61,4.13,4.94,7.69,4.94,7.36,0,26-9.3,32-14v4.86c-6.56,4.61-24.52,13.43-32.28,13.43-6.23,0-11.74-2.35-11.74-9.39,0-3.23,2.67-9.38,4-12.46-10.76,10.2-18.69,21.36-35,21.36-5.42,0-9-5.34-9-10.35C843.66,595.65,853.77,585.3,863.24,577.77Zm33.33-8.41c-12.54,0-20.79,4-30.58,11.49-8.09,6.23-18,16.91-18,27.75,0,2.42,2.1,6,4.85,6,13.67,0,21.68-9.54,30.5-18.52,7.61-7.77,13.51-16.67,19.42-25.73A17.9,17.9,0,0,0,896.57,569.36Z"></path><path class="cls-2" d="M926.34,601.72c4.77-2.59,9.3-5.42,13.91-8.33,2.19-11.17,11.17-27.91,24.19-27.91,4.77,0,8,1.86,8,7,0,4.53-4.29,8.18-7.6,10.68-6.56,4.94-13.68,9.23-20.72,13.51-.8,3.89-1.94,7.77-1.94,11.73,0,4.13,2.75,6,6.64,6,10.11,0,23.78-7.52,31.87-13.35v4.86c-8.74,6-21,12.78-31.87,12.78-6.31,0-10.92-3.32-10.92-10,0-3.4.88-6.72,1.53-10-4.29,2.83-8.65,5.42-13.1,7.84Zm38.18-32c-10.19,0-17.31,13-19.58,21.6,4.37-2.59,23.14-13.75,23.14-18.52C968.08,570.41,966.71,569.76,964.52,569.76Z"></path><path class="cls-2" d="M1024.22,614.5c8.42-4.12,16.75-8,24.68-13,16.26-10.36,30.74-23,45.87-34.87,4.29-10.52,21.11-54.53,34.54-54.53,6,0,10.68,2.59,10.68,9.14,0,16.59-29.53,38.67-41.58,48.62l-2.75,5.75c6-5.1,17.63-9.55,25.48-9.55,6.39,0,16.59,1.46,16.59,9.87,0,11.65-10.76,14.81-20.39,14.81-5.82,0-13.92-.33-19-3.24,4.61,14.89,6.23,26.78,25,26.78,11.08,0,19.58-7.61,28.39-13.19v4.86c-6.47,5.66-19.25,12.62-27.83,12.62-25.32,0-25.08-16.35-31.47-35.44l-5.58,9.63c-4.61,8.17-8.74,16.75-13.83,24.67a2.2,2.2,0,0,1-1.78,1.14c-.89,0-2.51-.89-2.51-1.94,0-.41,20.55-37.3,22.89-42-18.93,15.45-43,35-65.77,43.85a2.28,2.28,0,0,1-.73.08,2.37,2.37,0,0,1-2.26-2.27C1022.85,615.15,1023.33,614.91,1024.22,614.5Zm97.65-44.17c-9.71,0-18,3.88-25.32,10a5,5,0,0,0,1.54,1.94c4.61,4.05,11.73,4.13,17.55,4.13,7,0,18-.49,18-10C1133.6,570.65,1126.08,570.33,1121.87,570.33Zm13.84-48.54c0-4.37-2.43-5.5-6.4-5.5-8.49,0-24.75,38.18-28.23,46.19C1110.22,555.2,1135.71,533.76,1135.71,521.79Z"></path><path class="cls-2" d="M1183.11,618.47c-6.88,0-9.79-4.53-9.79-11,0-6,9.62-20.55,13.1-26.05-10.92,9.79-23.54,17.48-35.92,25.33v-4.86c17.64-11.08,29.86-20,44.26-35.19.72-.81,1.7-1.78,2.83-1.78a2.51,2.51,0,0,1,2.59,2.35c0,1.86-22.58,33.65-22.58,40.2,0,3.89,1.14,6.72,5.51,6.72,10.19,0,21-7.85,29.44-13.11v4.86C1203.82,611.43,1193.79,618.47,1183.11,618.47Zm27.83-81.88a4,4,0,0,1,4,3.81,3.8,3.8,0,0,1-7.6,0A3.6,3.6,0,0,1,1210.94,536.59Z"></path><path class="cls-2" d="M1332.12,571.14c-9.06,14.32-33.33,47.33-50.24,47.33-6.87,0-8.9-5.34-8.9-11.33,0-4.61,2.92-13.43,5.51-17.23-2,2.26-3.81,4.69-5.83,6.87-6.23,6.64-22.73,21.69-31.87,21.69-7.29,0-10.12-3.81-10.12-10.68,0-3.32,7.12-20.47,9.23-23.38-8.66,8.57-18.69,15.29-28.56,22.33v-4.86c8.33-5.74,20.3-14.48,27.18-21.68,4.37-4.61,7.52-10.11,11.73-14.81a1.62,1.62,0,0,1,1.3-.56c.8,0,2.42.65,2.42,1.7a1.14,1.14,0,0,1-.16.48c-4.93,7.36-8.74,15.21-12.62,23.22-2.1,4.45-6.15,13.67-6.15,18.29,0,4,1.54,5.66,5.75,5.66,8.25,0,23.13-14.73,29-20.47a140.37,140.37,0,0,0,16.18-19c1.94-2.91,3.56-6.07,5.5-9a1.93,1.93,0,0,1,1.78-1c.89,0,2,.48,2,1.53s-12.86,25-14.48,28.24a28.19,28.19,0,0,0-3.4,14c0,3,1,5.66,4.53,5.66,13.19,0,33.66-26.13,40.86-36.41,1.78-2.59,3.64-5.17,5.26-7.84.73-1.22,1.21-2.51,1.94-3.65a2.83,2.83,0,0,1,2.59-1.45,2.27,2.27,0,0,1,2.34,1.86c.57,1.7.89,3.48,1.62,5.26,3.24,7.93,9.14,9.3,17.07,9.3v4.29C1343.69,585.54,1333.58,582.22,1332.12,571.14Z"></path><path class="cls-2" d="M1367.15,618.47c-7,0-9.79-5.91-9.79-12.22,0-5.5,11.4-23.78,14.88-29.29-4.45,4.78-12.94,8.58-19.49,8.58v-4.29c9.3,0,19-7.77,24.75-14.56.57-.73,1.46-1.78,2.43-1.78s2.35.4,2.35,1.62c0,3-20.55,33.81-20.55,39.72,0,3.72,1,7.93,5.42,7.93,10.19,0,21.11-7.93,29.44-13.11v4.86C1387.94,611.43,1377.83,618.47,1367.15,618.47Zm26.53-81.88a4,4,0,0,1,4,3.81,3.81,3.81,0,0,1-7.61,0A3.6,3.6,0,0,1,1393.68,536.59Z"></path><path class="cls-2" d="M1395.3,601.88c11.65-6.47,22.57-15.13,32.6-24,4.37-3.88,7.77-9.3,12-12.78a2.38,2.38,0,0,1,1.46-.56c2.75,0,2,4.28,2,6,0,3.32.25,6.64.25,9.95,0,12.38-3.24,26.94-14.89,33.42,12.14-.73,24.11-5.83,34-12.87,0,.81-.08,1.62-.08,2.43s.08,1.62.08,2.43a73.5,73.5,0,0,1-41.26,12.54c-9.55,0-16.83-7.12-18.85-16.18-2.35,1.53-4.85,3-7.28,4.45Zm44-30.18c-3.48,3.48-6.55,7.2-10.19,10.52a173.62,173.62,0,0,1-22.5,17.32c1.46,5.9,5.18,13.26,12.22,13.26,3.32,0,6.47-1.61,9.22-3.48,6.4-4.28,8-9.3,9.79-16.42a51.26,51.26,0,0,0,1.7-13.1C1439.55,577.13,1439.39,574.46,1439.31,571.7Z"></path></svg> 