<?xml version="1.0" encoding="UTF-8"?> <svg xmlns="http://www.w3.org/2000/svg" id="Layer_1" data-name="Layer 1" viewBox="0 0 450 335"><defs><style>.cls-1{fill:#fff;}.cls-2{fill:#ececec;}.cls-3{fill:#bca5cf;}.cls-4{fill:#111035;}</style></defs><rect class="cls-1" width="450" height="335"></rect><rect class="cls-2" y="199.03" width="450" height="63.83"></rect><rect class="cls-2" y="73.13" width="450" height="62.51"></rect><polygon class="cls-3" points="172.37 262.86 153.74 262.86 249.27 73.13 267.9 73.13 172.37 262.86"></polygon><path class="cls-4" d="M23.46,131.83c5-2.41,10-4.73,14.94-7.33a192.67,192.67,0,0,0,20-12.63A105.66,105.66,0,0,0,78.51,93.26a121.86,121.86,0,0,0,9.55-13.6c1.35-2,2.51-4.24,4-6.17a2,2,0,0,1,1.74-.77,2.31,2.31,0,0,1,2.6,2.51c0,1-3.86,9-4.63,10.41,11.86-8.19,20.83-13.59,35.87-13.59,19.09,0,32.11,11.28,32.11,30.85,0,14.08-11.76,26.61-22.95,33.84-2.89,1.84-7,4.25-10.41,5,2.5,4.72,3.95,15.71,3.95,21.11,0,20.35-23.14,36-41.94,36-19.86,0-30.86-10.13-39.53-27-4,6.85-9.64,20.44-14,25.84a2.68,2.68,0,0,1-2.13,1.16c-1.63,0-2.69-.77-2.69-2.51a4.19,4.19,0,0,1,.48-1.45c9.93-18.6,20-37.21,28.92-56.4,5.31-11.19,10.51-22.37,15.91-33.55-15.52,13.2-32.11,24.58-51.2,31.91a1.17,1.17,0,0,1-.58.1c-1.34,0-1.92-1.64-1.92-2.7C21.63,132.69,22.21,132.4,23.46,131.83Zm104.32-55c-26.32,0-42.42,19-52.74,41q-10.85,23-22,45.89c5.88,8.1,18.51,12.82,28.25,12.82,5.3,0,9.55,0,13.88-3.56.78-.68.87-1.06,2-1.06a2.41,2.41,0,0,1,2.7,2.6,2.15,2.15,0,0,1-.58,1.54c-4.43,5.11-11.67,5.59-18,5.59-10.12,0-17.65-2.79-25.84-8.67,8.68,13,15.72,20.63,32.69,20.63s36.92-12,36.92-30.76c0-5.3-1.25-14.75-3.66-19.38a47.06,47.06,0,0,1-12.15,1.93c-6.75,0-16.49-1.16-16.49-9.93,0-4.72,6-8.49,10.32-8.49,6.85,0,17.16,4.34,20.54,10.61,13.79-3.08,30.85-20.25,30.85-34.9C154.49,86.51,143.6,76.87,127.78,76.87ZM108.4,140.31a34.25,34.25,0,0,0,9.93-1.06c-2.79-4.44-10.12-7.14-15.23-7.14-1.83,0-5.21,1.16-5.21,3.38C97.89,140.31,105,140.31,108.4,140.31Z"></path><path class="cls-4" d="M231.15,117H247a2.23,2.23,0,0,1,2.32,2.31,2.89,2.89,0,0,1-2.8,2.89H228.36c-6.47,12.15-29.51,52.74-29.51,64.22,0,5.69,6.36,7.42,11,7.42,8.2,0,23.39-10.86,30.47-15.67v5.74C232.79,189.2,219,199,209.84,199c-7.81,0-16.2-3.66-16.2-12.63,0-6.56,8-24.39,11.38-30.66-20.92,23.81-40.3,35.67-71.16,43.1a3.42,3.42,0,0,1-1.35.29,2.17,2.17,0,0,1-2-2.32,2.09,2.09,0,0,1,1.35-2.12c2-1,4.53-1.35,6.75-2,5.4-1.45,10.6-3.57,15.91-5.5,21.89-8,43.29-28.25,56.6-46.76,4.14-5.69,7.32-12.15,10.89-18.23H204.83a2.6,2.6,0,0,1,0-5.2H225c5.21-9.55,10-19.38,14.75-29.22,2.22-4.63,4.15-9.64,6.66-14.08a2.72,2.72,0,0,1,2.79-1.63,2.23,2.23,0,0,1,2.32,2.31C251.5,75,233.27,112.83,231.15,117Z"></path><path class="cls-4" d="M315.66,205.11c9.74-9.65,19.47-19.39,27.67-30.38,6.07-8,10.32-16.77,14.66-25.84-9.26,10.22-34.23,29.41-46.48,36l0-5.77c14.75-8,31.84-23.55,43.89-35.31,2.32-2.22,4.44-4.53,6.66-6.75a4.86,4.86,0,0,1,3.08-1.64,1.93,1.93,0,0,1,1.93,2.12c0,2.8-6,17.26-7.33,20.83,10.41-12.15,23.62-23,40.5-23,9.83,0,15.13,10.8,15.13,19.38,0,14.27-13,28.64-24.2,36.06,10.8-3.56,23-6.36,32.5-12.72v5.78c-13,7.62-40.6,15.62-55.64,15.62-8,0-20.53-2.41-27-7-10.71,19.19-19.38,39.73-31.92,57.66-4.53,6.46-10.22,12.73-18.7,12.73-6.08,0-9.26-5.59-9.26-11.19C281.14,236.44,305.24,215.42,315.66,205.11Zm3,4.14c-9.65,9.93-32.3,28.25-32.3,42.62,0,2.7.77,5.78,4,5.78,6,0,11.28-6,14.46-10.51,11.18-15.81,20.25-36.25,29.7-53.61C329.06,198.55,323.85,204,318.65,209.25Zm52-15.52c16.19,0,39.53-22.66,39.53-39,0-5.49-3.38-14.17-9.93-14.17-14.18,0-25,8.87-34.42,18.61-4.83,5-16,16.29-19.19,21.4-1.06,1.74-2,3.57-3.09,5.21C348.83,192.67,362.81,193.73,370.62,193.73Z"></path><path class="cls-4" d="M276.9,199.5c-8.21,0-11.69-5.41-11.69-13.15,0-7.15,11.5-24.54,15.66-31.11C263.79,170.18,257,172.78,238,185.55v-5.81c6.1-4.4,29.94-17.77,52.86-42.09.87-1,2-2.13,3.38-2.13a3,3,0,0,1,3.1,2.8c0,2.23-27,40.21-27,48,0,4.64,1.36,8,6.57,8,14.09,0,30.46-13.26,35.18-15.61v5.78C301.65,191.12,289.66,199.5,276.9,199.5Zm33.25-97.81a4.73,4.73,0,0,1,4.83,4.55,4.54,4.54,0,0,1-9.08,0A4.3,4.3,0,0,1,310.15,101.69Z"></path></svg> 