<?xml version="1.0" encoding="UTF-8"?> <svg xmlns="http://www.w3.org/2000/svg" id="Layer_1" data-name="Layer 1" viewBox="0 0 450 335"><defs><style>.cls-1{fill:#fff;}.cls-2{fill:#ececec;}.cls-3{fill:#bca5cf;}.cls-4{fill:#111035;}</style></defs><rect class="cls-1" x="-0.33" width="450" height="335"></rect><rect class="cls-2" x="-0.33" y="199.03" width="450" height="65.21"></rect><rect class="cls-2" x="-0.33" y="70.91" width="450" height="64.73"></rect><rect class="cls-3" x="261.56" y="70.91" width="18.64" height="193.34"></rect><path class="cls-4" d="M97.5,136a114.18,114.18,0,0,1-4.2,31.9q-4.18,14.46-11.42,23.18L95.36,207.5c1,1.2,1.15,2.33.49,3.37a3.13,3.13,0,0,1-2.79,1.56,2.73,2.73,0,0,1-2.47-1.31l-13-15.62q-6.41,5.58-13.81,5.59A20.8,20.8,0,0,1,50.23,196,42.64,42.64,0,0,1,39.62,182.1a83.24,83.24,0,0,1-6.9-20.72A124.73,124.73,0,0,1,30.25,136a133.81,133.81,0,0,1,2.3-25.48,85.52,85.52,0,0,1,6.58-20.72,40.62,40.62,0,0,1,10.44-14,21.45,21.45,0,0,1,14.06-5.1,21.78,21.78,0,0,1,14.14,5.1,40.93,40.93,0,0,1,10.6,14,85.43,85.43,0,0,1,6.74,20.72A128.91,128.91,0,0,1,97.5,136Zm-6.09,0a122,122,0,0,0-2.3-24.91A76.59,76.59,0,0,0,83,92.49a35,35,0,0,0-8.88-11.67,16.54,16.54,0,0,0-10.44-4,16.2,16.2,0,0,0-10.36,4,34.63,34.63,0,0,0-8.71,11.67,76,76,0,0,0-6,18.58A126,126,0,0,0,36.34,136a116.5,116.5,0,0,0,2.38,24.74,74.25,74.25,0,0,0,6.33,18.5,37.42,37.42,0,0,0,8.88,11.67c3.29,2.75,6.57,4.11,9.86,4.11s6.63-1.42,10-4.27l-4.77-6.08a2.7,2.7,0,0,1-.33-3.29,3,3,0,0,1,2.64-1.48A3.11,3.11,0,0,1,73.82,181l4.11,5.1q5.76-7.41,9.62-20.06T91.41,136Zm35,6.08a13.81,13.81,0,0,0-9,3.62,38.87,38.87,0,0,0-8.06,10q-2.3,3.94-4.19,6.91a32.84,32.84,0,0,1-3.86,5,16.64,16.64,0,0,1-4.36,3.29,18,18,0,0,1-5.67,1.72,1.43,1.43,0,0,1-1.56-.74,3.26,3.26,0,0,1-.5-2.05,5.44,5.44,0,0,1,.74-2.3,2.63,2.63,0,0,1,2.14-1.32,9.7,9.7,0,0,0,3.37-1.15,10.14,10.14,0,0,0,2.63-2.3,34.42,34.42,0,0,0,2.71-3.86q1.48-2.38,3.46-5.84,2-3.29,4.11-6.33a32.39,32.39,0,0,1,4.76-5.43,23,23,0,0,1,5.92-3.86,17.81,17.81,0,0,1,7.4-1.48,2.82,2.82,0,0,1,2.3,1,3,3,0,0,1,0,4.11A2.81,2.81,0,0,1,126.43,142.06Z"></path><path class="cls-4" d="M182.17,201.09a14.61,14.61,0,0,1-7-1.48,10.57,10.57,0,0,1-4.19-4,16.45,16.45,0,0,1-2-6,53.45,53.45,0,0,1-.49-7.56V150.78q0-4.93-2.47-7.32a8.59,8.59,0,0,0-6.24-2.38,17.46,17.46,0,0,0-5.43,1,36,36,0,0,0-5.92,2.63,42.75,42.75,0,0,0-5.67,3.79,54,54,0,0,0-4.85,4.27l-1.15,1.15V198a2,2,0,0,1-.91,1.89,3.67,3.67,0,0,1-2,.58,4,4,0,0,1-2.22-.58,2.06,2.06,0,0,1-.9-1.89l.16-47.18q0-4.77-1.31-6.74a3.88,3.88,0,0,0-3.29-2,2.21,2.21,0,0,1-2-1,3.71,3.71,0,0,1-.65-2.06,4,4,0,0,1,.57-2.05,2.19,2.19,0,0,1,2.06-1,10,10,0,0,1,6.57,2.3c1.87,1.54,3.07,4.06,3.62,7.57a49.51,49.51,0,0,1,5.18-3.87,63.8,63.8,0,0,1,5.92-3.45,39.68,39.68,0,0,1,6.16-2.55,20.08,20.08,0,0,1,6.09-1,16.62,16.62,0,0,1,5.42.91,13.38,13.38,0,0,1,4.77,2.88,13.85,13.85,0,0,1,3.37,4.93,18.37,18.37,0,0,1,1.23,7.07V182q0,8.05,1.65,10.52c1.09,1.64,3.07,2.46,5.92,2.46a3,3,0,0,1,2.54,1,2.93,2.93,0,0,1,.66,2.06,3.58,3.58,0,0,1-.9,2A2.83,2.83,0,0,1,182.17,201.09Zm26.14-32.72a6,6,0,0,1,.24,3.62c-.27,1.42-.52,2.63-.74,3.61A36.82,36.82,0,0,1,204,184a47.41,47.41,0,0,1-6.16,8.22,37.75,37.75,0,0,1-7.65,6.33,15.23,15.23,0,0,1-8.05,2.55,1.58,1.58,0,0,1-1.48-1,4.47,4.47,0,0,1,0-4.11,1.58,1.58,0,0,1,1.48-1,11.36,11.36,0,0,0,6.33-2.3,33.4,33.4,0,0,0,6.57-6.08,55.8,55.8,0,0,0,5.92-8.55,45.38,45.38,0,0,0,4.19-9.86c.33-1,.83-1.43,1.48-1.32A2.38,2.38,0,0,1,208.31,168.37Z"></path><path class="cls-4" d="M252.53,168.21a46.14,46.14,0,0,1-2.05,14.55A30.15,30.15,0,0,1,245,193a23.41,23.41,0,0,1-7.81,6.08,20.45,20.45,0,0,1-8.8,2.06,18.85,18.85,0,0,1-8.54-2.06,22.47,22.47,0,0,1-7.4-6.08,30.57,30.57,0,0,1-5.26-10.19,47.76,47.76,0,0,1-2-14.55q0-14.64,6.42-23.52A20.86,20.86,0,0,1,238.31,138a21.7,21.7,0,0,1,7.48,6.66A34.92,34.92,0,0,1,250.72,155,45.58,45.58,0,0,1,252.53,168.21Zm-6.08,0a38.91,38.91,0,0,0-1.56-11.68,27.53,27.53,0,0,0-4-8.22,16.64,16.64,0,0,0-5.67-4.93,14,14,0,0,0-6.5-1.64,13.85,13.85,0,0,0-6.57,1.64,16.79,16.79,0,0,0-5.59,4.93,24.79,24.79,0,0,0-3.87,8.22,43.24,43.24,0,0,0-1.39,11.68q0,13.8,4.93,20.46t12.33,6.66q7.72-.17,12.82-6.82T246.45,168.21ZM283,142.72q-2.46,3.61-6.08,8.8t-7.81,10.6q-4.2,5.43-8.64,10.2a55.29,55.29,0,0,1-8.38,7.56,3.17,3.17,0,0,1-1.64.49,2.13,2.13,0,0,1-1.65-.74,4,4,0,0,1-.9-1.72,3.72,3.72,0,0,1,.08-2.06,3,3,0,0,1,1.48-1.73,46.62,46.62,0,0,0,7.73-6.9q4.1-4.44,8.05-9.54t7.4-10.11q3.45-5,5.76-8.79a2.21,2.21,0,0,1,2.13-1.32,3.21,3.21,0,0,1,2.63,1.73A2.85,2.85,0,0,1,283,142.72Z"></path><path class="cls-4" d="M309.25,94.88a33.86,33.86,0,0,1-3,11.43,91.2,91.2,0,0,1-6.58,12.24q-3.86,6.09-8.13,11.59t-7.73,9.46l.16,122.48a2.79,2.79,0,0,1-1,2.39,3.76,3.76,0,0,1-2.3.74,3.18,3.18,0,0,1-2.06-.74,2.72,2.72,0,0,1-.9-2.22V189.74a38.24,38.24,0,0,1-7.57-1.72,43.54,43.54,0,0,1-6.9-3.05,2.62,2.62,0,0,1-1.56-1.89,4.06,4.06,0,0,1,.16-2.3,3.11,3.11,0,0,1,1.48-1.64,2.58,2.58,0,0,1,2.55.25,36.47,36.47,0,0,0,5.42,2.46,25.91,25.91,0,0,0,6.42,1.48V88.8a21,21,0,0,1,3.94-13q3.94-5.27,11.51-5.26a14.93,14.93,0,0,1,12.41,5.75Q310.08,82.06,309.25,94.88Zm27,45.7q-3.47,6.42-8.39,14.72a105.26,105.26,0,0,1-11.51,15.78,71.29,71.29,0,0,1-14.79,12.83,35,35,0,0,1-18.25,5.67,3,3,0,0,1-2.31-.91,3.19,3.19,0,0,1-.9-2,3,3,0,0,1,.66-2,2.59,2.59,0,0,1,2.22-1,32.26,32.26,0,0,0,15.95-5.18A62,62,0,0,0,312.05,167a101.09,101.09,0,0,0,10.6-14.71q4.69-7.89,8.3-14.63a2.87,2.87,0,0,1,2.47-1.65,3.27,3.27,0,0,1,2.71,1.4A2.73,2.73,0,0,1,336.22,140.58Zm-33.05-45.7a30.27,30.27,0,0,0-.08-9.29,14.13,14.13,0,0,0-2.22-5.51,7.62,7.62,0,0,0-3.62-2.71,13.1,13.1,0,0,0-4.27-.74q-4.77.16-7,3.45a15,15,0,0,0-2.22,8.55v41.76A200.83,200.83,0,0,0,297.09,111Q302.34,102.11,303.17,94.88Z"></path><path class="cls-4" d="M412.17,169.85a36.44,36.44,0,0,1-1.81,11.34,34.32,34.32,0,0,1-5,9.95,26.58,26.58,0,0,1-7.89,7.15,20.27,20.27,0,0,1-10.61,2.8,17.51,17.51,0,0,1-11-3.54,19.56,19.56,0,0,1-6.58-8.79,25.19,25.19,0,0,1-8.22,9.12,18.7,18.7,0,0,1-10.36,3.21,21.87,21.87,0,0,1-7.56-1.32,18.38,18.38,0,0,1-6.41-3.94,18.86,18.86,0,0,1-4.44-6.5,22.19,22.19,0,0,1-1.65-8.79v-41.6a2.91,2.91,0,0,1,.91-2.38,3.34,3.34,0,0,1,2.22-.74,3.12,3.12,0,0,1,2.05.74,2.91,2.91,0,0,1,.91,2.38v41.6q0,7.07,4.11,10.77a14,14,0,0,0,9.7,3.69,11.33,11.33,0,0,0,6.08-2,21.48,21.48,0,0,0,5.59-5.18,27.53,27.53,0,0,0,4-7.48,25.7,25.7,0,0,0,1.56-8.88l.17-32.55a2.91,2.91,0,0,1,.9-2.38,3.34,3.34,0,0,1,2.22-.74,3.12,3.12,0,0,1,2.05.74,2.88,2.88,0,0,1,.91,2.38v14.3q0,5.26-.08,8.31c-.06,2-.06,3.56,0,4.6s.05,2.14,0,3.29-.09,2.6-.09,4.36v7.72a12.31,12.31,0,0,0,1.07,4.93,15.56,15.56,0,0,0,2.88,4.44,14.07,14.07,0,0,0,4.11,3.13,10.48,10.48,0,0,0,4.77,1.15,14.82,14.82,0,0,0,7.64-2.06,21,21,0,0,0,6.17-5.5,26.86,26.86,0,0,0,4.11-8.06,31.39,31.39,0,0,0,1.48-9.7,55.27,55.27,0,0,0-.58-8.39,43.84,43.84,0,0,0-1.72-7.23,45.68,45.68,0,0,0-2.88-6.74,58.64,58.64,0,0,0-4.19-6.74,2.71,2.71,0,0,1-.25-3.37,3.19,3.19,0,0,1,2.71-1.56,2.9,2.9,0,0,1,2.47,1.48,78.44,78.44,0,0,1,4.77,7.56,48.68,48.68,0,0,1,3.29,7.48,44.12,44.12,0,0,1,1.89,8.14A71.13,71.13,0,0,1,412.17,169.85Zm15.29-28.61q-6.07,6.09-13.64,6.09-7.24,0-14.64-5.92a2.91,2.91,0,0,1-.9-3.62,3,3,0,0,1,2.88-2,3.62,3.62,0,0,1,2,.82q5.58,4.61,10.69,4.6a12.49,12.49,0,0,0,9.37-4.44,3,3,0,0,1,2.13-1,3.22,3.22,0,0,1,2.88,1.81C428.91,138.83,428.67,140,427.46,141.24Z"></path></svg> 