<?xml version="1.0" encoding="UTF-8"?> <svg xmlns="http://www.w3.org/2000/svg" id="ttkb" viewBox="0 0 450 335"><defs><style>.cls-1{fill:#fff;}.cls-2{fill:#ececec;}.cls-3{fill:#bca5cf;}.cls-4{fill:#111035;}</style></defs><rect class="cls-1" width="450" height="335"></rect><rect class="cls-2" y="199.03" width="450" height="51.28"></rect><rect class="cls-2" y="83.91" width="450" height="51.73"></rect><rect class="cls-3" x="142.75" y="83.75" width="18.64" height="166.55"></rect><path class="cls-4" d="M131.81,166A33.27,33.27,0,0,1,98.43,199H68.28a3.23,3.23,0,0,1-3.22-3.22V87.3a3.38,3.38,0,0,1,3.22-3.39H92.63c15.32,0,27.57,12.74,27.57,27.9a27.93,27.93,0,0,1-11.61,22.73A33.36,33.36,0,0,1,131.81,166ZM92.63,90.68h-21v42.25h21a21.13,21.13,0,0,0,0-42.25ZM125,166A26.46,26.46,0,0,0,98.43,139.7H71.67v52.72H98.43A26.49,26.49,0,0,0,125,166Z"></path><path class="cls-4" d="M164.79,138.41v57.4a3.23,3.23,0,0,1-3.23,3.22,3.27,3.27,0,0,1-3.38-3.22v-57.4h-11a3.27,3.27,0,0,1-3.38-3.22,3.3,3.3,0,0,1,3.38-3.39h11V106.16c0-10.8,8.22-22.41,20.15-22.41q8.47,0,14,7.26a3.4,3.4,0,0,1-5.48,4,10.17,10.17,0,0,0-8.55-4.52c-7.9,0-13.54,8.39-13.54,15.64V131.8H182.2a3.31,3.31,0,0,1,3.39,3.39,3.27,3.27,0,0,1-3.39,3.22Z"></path><path class="cls-4" d="M254.45,138.41v57.4a3.31,3.31,0,1,1-6.61,0v-7.9c-5.16,6.93-12.9,11.29-21.44,11.29-15.48,0-27.9-14.19-27.9-32.09,0-17.41,12.42-32.09,27.9-32.09,8.54,0,16.28,4.36,21.44,11.29v-7.9a3.31,3.31,0,1,1,6.61,0Zm-6.61,28.7c0-14-9.67-25.31-21.44-25.31-11.61,0-21.29,11.28-21.29,25.31s9.68,25.31,21.29,25.31C238.17,192.42,247.84,181.14,247.84,167.11Z"></path><path class="cls-4" d="M335.56,218.22c0,17.58-12.26,32.09-28.06,32.09-10.32,0-19.35-6.13-24.34-16.29a3.23,3.23,0,0,1,1.45-4.51,3.29,3.29,0,0,1,4.51,1.61c3.87,7.74,10.8,12.58,18.38,12.58,11.61,0,21.29-11.45,21.29-25.48V187.91c-5.16,6.93-12.74,11.29-21.29,11.29-15.8,0-28.05-14.51-28.05-32.09S292.19,135,307.5,135c8.55,0,16.13,4.36,21.29,11.29v-7.9a3.41,3.41,0,0,1,3.38-3.39,3.52,3.52,0,0,1,3.39,3.39Zm-6.77-51.11c0-14-9.68-25.31-21.29-25.31s-21.28,11.28-21.28,25.31,9.67,25.31,21.28,25.31S328.79,181.14,328.79,167.11ZM318.14,110a3.12,3.12,0,0,1,4.68-.8,3.35,3.35,0,0,1,.65,4.67c-4.36,6-9.68,9-16,9s-11.61-3.06-16.12-9a3.36,3.36,0,0,1,.81-4.67,3.11,3.11,0,0,1,4.67.8c3.06,4,6.77,6.13,10.64,6.13S315.08,114.06,318.14,110Z"></path><path class="cls-4" d="M366.05,119.38v-8.06a3.3,3.3,0,0,1,3.39-3.38,3.4,3.4,0,0,1,3.38,3.38v8.06a3.4,3.4,0,0,1-3.38,3.39A3.31,3.31,0,0,1,366.05,119.38Zm3.39,79.82a3.31,3.31,0,0,1-3.39-3.39v-57.4a3.41,3.41,0,0,1,3.39-3.39,3.52,3.52,0,0,1,3.38,3.39v57.4A3.4,3.4,0,0,1,369.44,199.2Z"></path></svg> 