<?xml version="1.0" encoding="UTF-8"?> <svg xmlns="http://www.w3.org/2000/svg" id="Layer_1" data-name="Layer 1" viewBox="0 0 450 335"><defs><style>.cls-1{fill:#fff;}.cls-2{fill:#ececec;}.cls-3{fill:#bca5cf;}.cls-4{fill:#111035;}</style></defs><rect class="cls-1" width="450" height="335"></rect><rect class="cls-2" y="199.03" width="450" height="70.33"></rect><rect class="cls-2" y="64.91" width="450" height="70.73"></rect><polygon class="cls-3" points="148.83 269.36 128.19 269.36 276.29 64.91 296.92 64.91 148.83 269.36"></polygon><path class="cls-4" d="M53.62,198.93c25,0,44.88-16.76,63.33-31.73,13.29-10.57,30.31-24.51,42.31-24.51a3.45,3.45,0,0,0,1.72-.26.69.69,0,0,0,0,.26c0,4.52-8.13,15.35-12.26,20.26-.05.07-.11.14-.16.22-9.68,9.75-19.42,20.42-29.63,29.06a3.48,3.48,0,0,0-1.17,2.71,3.58,3.58,0,0,0,3.49,3.61,3.71,3.71,0,0,0,2.32-.91C150,175.2,171.26,142.69,194,142.69c4.13,0,4.77.65,4.77,2.58,0,14.58-29.54,32.25-29.54,45.41,0,4.38,3,8.25,11,8.25,12.1,0,26.56-9.62,43.2-25.17a30.69,30.69,0,0,0-.25,3.76c0,28.58,20.64,24.88,39.85,5-.07,5.05,1.43,9.46,4.78,12.58C277,203.84,296,197,310.05,181.91a62,62,0,0,0,12.56-19.73,20.93,20.93,0,0,0,11.69,3.35c7.7,0,16.46-3.51,25.9-9.22-5.61,8-11.41,16.49-17.21,25.05-11.34,11-20.62,20.73-24.55,24.8-26.58,27.6-43.09,47.08-43.09,56.75,0,4,2.71,6.45,6.19,6.45,11.84,0,38.86-41,65.52-80.9A20.44,20.44,0,0,0,365,198.93h2.2c35.08,0,51.46-7.35,69.14-26.83a3.71,3.71,0,0,0,.9-2.32,3.5,3.5,0,0,0-3.48-3.61,3.77,3.77,0,0,0-2.71,1.16c-12.94,14.37-24.68,21.33-45.32,23.62a99.85,99.85,0,0,0,16.68-15.23c9.16-10.45,15.09-21.67,15.09-29.16,0-6.45-4.13-11-10.45-11-9.29,0-24.95,11-40.67,24.35,3.82-5.5,7.55-10.74,11.14-15.58a3,3,0,0,0,.77-2.06,3.94,3.94,0,0,0-3.87-3.74,3.53,3.53,0,0,0-2.06.64c-15.23,11.61-28.25,19.22-38.06,19.22a13.71,13.71,0,0,1-9.67-3.68c1-6.53-.2-12.27-4.26-16.05-9.54-8.91-28.51-2.2-42.57,13a65.85,65.85,0,0,0-9.59,13.18.76.76,0,0,1-.08.11c-19,27.6-37.92,35.73-37.92,12.51a34.36,34.36,0,0,1,2.35-11.43c.12-.1.24-.2.35-.31,25.93-24.38,69.92-73.65,69.92-93.9,0-4.39-1.94-7-5.16-7-1.81,0-3.74,1-6.58,3.48-4.9,4.39-12.77,13.94-21.15,25.67-18.68,25.75-35.08,48.12-42.55,65.85-19.87,20.05-35.76,31.93-47.23,31.93-3.23,0-3.87-.39-3.87-1.16,0-8.9,29.54-27.22,29.54-45.41,0-4.77-2.45-9.67-11.87-9.67-9.19,0-17.91,4.16-26.46,10.51a12.79,12.79,0,0,0,.53-3.42c0-3.48-1.93-7.09-8.77-7.09-14.83,0-33.41,15.35-46.69,26.18-18.45,15-36.51,30.06-58.95,30.06-13.94,0-28.12-5.55-28.12-19.74,0-18,22-33.76,40.58-40.45,4.35,5.62,12.49,8.08,18.62,8.08,6.71,0,11.61-2.84,11.61-8.65,0-6.19-5.54-9.93-13.93-9.93A49.37,49.37,0,0,0,70.14,123c0-.13,0-.26,0-.4,0-18.06,39.21-48.63,64.75-48.63,6.71,0,12,2.19,15.22,7.1a3.42,3.42,0,0,0,3,1.67,3.61,3.61,0,0,0,3.61-3.61,3.88,3.88,0,0,0-.64-1.93c-4.78-7.23-12.52-10.32-21.16-10.32C106.37,66.85,63,99.48,63,122.57a16.08,16.08,0,0,0,.21,2.56c-20.82,7.55-44.84,25.15-44.84,47C18.4,191.71,37.36,198.93,53.62,198.93Zm228.92,63.15c1.14-6.59,14.85-23.62,38.77-48.63C303.83,239.1,288.85,259.92,282.54,262.08ZM410.41,146.56c0,5.29-5,15.1-13.42,24.51-9.28,10.58-21.8,20.77-32,20.77-5.41,0-10.22-2.82-13-9.11,20.08-19.07,44.54-40,55.06-40C409.25,142.69,410.41,144,410.41,146.56ZM283,156.63c9.48-10.28,20.6-15.52,27.66-14.8a4,4,0,0,0,.08.48A38.62,38.62,0,0,0,317,156.78c-1.73,6.17-5.83,13.46-12.07,20.23-12.12,13-27,17.93-32.25,12.9C267,184.62,270.84,169.78,283,156.63Zm-7.35-58.44C283.87,86.88,291.13,78,295.53,74c-2.55,14.91-29.67,48.06-53,72.28C250.77,132.58,262.5,116.39,275.61,98.19ZM89.22,131.08c0,1-1.29,1.55-4.52,1.55a18.85,18.85,0,0,1-10.92-3.27,38.93,38.93,0,0,1,8.6-1.11C87.28,128.25,89.22,129.54,89.22,131.08Z"></path></svg> 