<?xml version="1.0" encoding="UTF-8"?> <svg xmlns="http://www.w3.org/2000/svg" id="grafito" viewBox="0 0 450 335"><defs><style>.cls-1{fill:#fff;}.cls-2{fill:#ececec;}.cls-3{fill:#bca5cf;}.cls-4{fill:#111035;}</style></defs><rect class="cls-1" width="450" height="335"></rect><rect class="cls-2" y="199.03" width="450" height="83.13"></rect><rect class="cls-2" y="52.17" width="450" height="83.47"></rect><polygon class="cls-3" points="236.35 282.16 217.57 282.16 224.96 52.17 243.74 52.17 236.35 282.16"></polygon><path class="cls-4" d="M87.16,139.71a54.77,54.77,0,0,1-6,1.15,11.21,11.21,0,0,1-4.82-.23c0,2.3-.23,4.82-.23,7.35-2.07,43-14.25,51.47-22.52,51.47s-22.75-7.81-20.45-51.24c3.22-63.65,24.36-97,57.44-97,24.36,0,39.29,19.76,39.29,39.52,0,23.9-14,38.83-32.62,46,20.68,8.5,22,23.44,26.65,43.66,2.07,8.27,4.59,13.09,14.47,13.09,6.67,0,19.3-9.19,31.25-37,1.61-3.67,7.13-1.38,5.52,2.3-11.72,27.8-26,40.9-36.77,40.9C103,199.68,131.73,149.13,87.16,139.71Zm-10.57-6.43c2.75-1.15,6.89-.46,10.11.23l2.29-.69c12.18-3.22,34.7-12.41,34.7-42,0-17-12.64-33.55-33.09-33.55-27.11,0-48,27.58-51.46,91.45-2.07,42.74,12.17,44.8,14.47,44.8S67.86,191,70.15,147.75C71.53,118.34,68.78,100,68.78,100a3,3,0,1,1,6-.92A272.16,272.16,0,0,1,76.59,133.28Z"></path><path class="cls-4" d="M226.38,171.19l-.92,28.95,10.34-12.87c7.81-10.34,14.7-20.91,18.38-30.56a2.68,2.68,0,0,1,2.76-1.84,2.9,2.9,0,0,1,2.75,4.14,135.47,135.47,0,0,1-18.15,31.25c-5.28,6.89-10.8,13.55-16.54,20.22l-1.61,42.73c-.46,17.92-5.74,29-17.92,29-9.19,0-14.71-9.19-14.71-19.53,0-17.92,13.33-36.3,28-54.45l.91-23.21c-6.66,9-17,14.48-26.65,14.48-14.93,0-25.73-11.72-26.42-26.66-1.15-22,17.46-37.91,34-37.91,13.56,0,23.44,9.66,26,22.29,0,.23.23.46.23.69l.46,3.68A43,43,0,0,1,226.38,171.19Zm-6-1.38.46-10.8c-1.61-10.8-9.65-18.15-20.22-18.15-13.09,0-28.95,13.33-28,31.71.69,11.94,9.19,20.68,20.45,20.68S217.19,183.82,220.4,169.81Zm-5.05,52.85c-10.8,14-18.61,27.11-18.61,40,0,9,4.59,13.56,8.73,13.56,6.43,0,11.26-5.06,11.95-23.21l1.15-34.46A50.52,50.52,0,0,0,215.35,222.66Z"></path><path class="cls-4" d="M274.86,134.65c12.17,0,13.55,17.93,13.78,26.66,6-16.55,14.48-26.43,23.9-26.43,31,0,5,58.82,23,58.82,6.67,0,19.3-9.19,31-37a2.68,2.68,0,0,1,2.76-1.84c1.84,0,3.9,1.84,2.76,4.14-11.49,27.8-25.74,40.67-36.54,40.67-27.11,0,.69-58.82-23-58.82-8.73,0-21.6,18.38-25.51,55.83a3,3,0,1,1-6-.46c.46-5.74,6-55.6-6.2-55.6-5.06,0-10.57,6.2-15.17,18.38a2.59,2.59,0,0,1-2.53,1.84,3,3,0,0,1-3-4.14C258.54,145.68,264.75,134.65,274.86,134.65Z"></path><path class="cls-4" d="M372.73,159.93v14.24c0,18.62,5.29,19.3,7.59,19.3,6.43,0,21.82-9.19,34-39.28a2.68,2.68,0,0,1,2.76-1.84c1.84,0,3.91,1.84,2.76,4.13-12.18,30.1-28.72,43.2-39.52,43.2-8.05,0-13.79-6.43-13.79-25.51V69.63c0-10.57,4.83-17.46,10.57-17.46,12.18,0,16.08,15.62,16.08,31.71A150.15,150.15,0,0,1,373,159.47C372.73,159.7,372.73,159.7,372.73,159.93Zm14.48-76.05c-.23-17.47-4.6-25.74-10.11-25.74-2.53,0-4.37,1.61-4.37,11.49v77.43C381.93,128,387.44,105.47,387.21,83.88Z"></path></svg> 