<?xml version="1.0" encoding="UTF-8"?> <svg xmlns="http://www.w3.org/2000/svg" id="Layer_1" data-name="Layer 1" viewBox="0 0 450 335"><defs><style>.cls-1{fill:#fff;}.cls-2{fill:#ececec;}.cls-3{fill:#bca5cf;}.cls-4{fill:#111035;}</style></defs><rect class="cls-1" width="450" height="335"></rect><rect class="cls-2" y="199.03" width="450" height="47.64"></rect><rect class="cls-2" y="86.73" width="450" height="48.91"></rect><polygon class="cls-3" points="116.15 246.67 97.52 246.67 124.76 86.73 143.4 86.73 116.15 246.67"></polygon><path class="cls-4" d="M73.19,88.28a2.9,2.9,0,0,1,2.75,3.22L59,197.41a2.82,2.82,0,0,1-2.74,2.39,2.89,2.89,0,0,1-2.75-3.22L70.45,90.66A2.81,2.81,0,0,1,73.19,88.28Zm42.46,1.55a2.69,2.69,0,0,1-2.74,2.74H59a2.74,2.74,0,0,1,0-5.48h53.91A2.69,2.69,0,0,1,115.65,89.83Zm-7.51,47a2.7,2.7,0,0,1-2.75,2.74H67.11a2.74,2.74,0,0,1,0-5.48h38.28A2.7,2.7,0,0,1,108.14,136.82Zm8.47,109.85a2.83,2.83,0,0,1-2.75-3.22l18.37-106a2.7,2.7,0,0,1,2.63-2.39,2.82,2.82,0,0,1,2.74,3.22l-18.37,106A2.69,2.69,0,0,1,116.61,246.67ZM125.55,199a2.78,2.78,0,0,1-2.62-3.34c8.94-43.89,23.61-61.18,41.15-61.18,7.75,0,15.26,6.44,15.26,20.39,0,27.19-16.34,45-45,45a69.11,69.11,0,0,1-8.59-.72,2.59,2.59,0,0,1-2.38-2.62,2.68,2.68,0,0,1,3-2.75,64.29,64.29,0,0,0,8,.6c25.52,0,39.48-15.15,39.48-39.48,0-10.61-4.89-14.91-9.78-14.91-14.32,0-27.32,15.27-35.79,56.77A2.9,2.9,0,0,1,125.55,199Zm86.59-64.88a2.79,2.79,0,0,1,2.63,3.58c-20.16,61.42-61.19,61.18-80.27,62.14a2.69,2.69,0,0,1-2.75-2.63,2.55,2.55,0,0,1,2.51-2.62c19.2-1,56.41-.72,75.26-58.56A2.68,2.68,0,0,1,212.14,134.08Zm84.56,1.31a2.9,2.9,0,0,1-2.26,2.74c-13.72,2.63-19.56,4.3-28.87,1.08-.23-.12.84-.84.72-.72C262.71,147.68,248.4,185,227.05,199a4.2,4.2,0,0,1-6.32-1.31c-4.53-8.11-9.42-38.64-11-60.71a2.63,2.63,0,0,1,2.62-2.86,2.57,2.57,0,0,1,2.74,2.5c1.67,21.35,6.44,50.93,10.38,58.21a15.37,15.37,0,0,0-1.55-.36c19.92-12.76,33.75-48.9,37.33-57.85.84-2.26,3-3.57,6-2.62,7.76,2.62,12.29,1.43,26.12-1.31A2.81,2.81,0,0,1,296.7,135.39Zm-29.93,56.53a2.69,2.69,0,0,1,2.74-2.74,3,3,0,0,1,2.15.95,11.48,11.48,0,0,0,9.42,4.18c7.51,0,14.31-4.65,14.31-14.07C295.39,167,282,161,282,147.68c0-9,6.33-15.51,15.87-15.51,4.53,0,8.35,1.31,10.61,3.34a3,3,0,0,1,1,2.15,2.7,2.7,0,0,1-2.75,2.74,2.86,2.86,0,0,1-1.67-.6,12.9,12.9,0,0,0-7.15-2.14c-6.44,0-10.38,3.93-10.38,10,0,10.73,13.36,17.41,13.36,32.56,0,13-9.9,19.56-19.8,19.56a17.41,17.41,0,0,1-13.72-6.09A3.24,3.24,0,0,1,266.77,191.92Zm61.3-18.36a2.78,2.78,0,0,1,2.75,2.74,2.7,2.7,0,0,1-.72,1.91c-11.33,12.16-25.17,21-46.75,21.59a2.69,2.69,0,1,1-.12-5.37c19.68-.6,32.2-8.47,42.93-19.92A2.49,2.49,0,0,1,328.07,173.56Zm47.47-18.37a2.62,2.62,0,0,1,2.51,3.58c-8.95,24.21-24,41-38.65,41-7.87,0-13.47-6.56-13.47-20.4,0-27.31,17.53-45,46-45a38.4,38.4,0,0,1,6.56.47,2.7,2.7,0,0,1,2.39,2.63,2.77,2.77,0,0,1-3.1,2.74,41.25,41.25,0,0,0-5.85-.36c-25.64,0-40.67,15.27-40.67,39.48,0,10.73,3.34,14.91,8.11,14.91,11.69,0,25.29-14.79,33.64-37.45A2.64,2.64,0,0,1,375.54,155.19Zm13.6,30.89a2.69,2.69,0,0,1,2.74,2.74,2.82,2.82,0,0,1-.83,1.91c-5.37,5.61-11.1,9.07-16.46,9.07-5.13,0-8.35-4.65-6.8-13.72l16.94-97a2.69,2.69,0,0,1,2.62-2.38A2.81,2.81,0,0,1,390.09,90L373.28,187c-1,5.49.12,7.28,1.31,7.28,3.58,0,7.87-2.62,12.52-7.39A3.11,3.11,0,0,1,389.14,186.08Z"></path></svg> 