<?xml version="1.0" encoding="UTF-8"?> <svg xmlns="http://www.w3.org/2000/svg" id="Layer_1" data-name="Layer 1" viewBox="0 0 450 335"><defs><style>.cls-1{fill:#fff;}.cls-2{fill:#ececec;}.cls-3{fill:#bca5cf;}.cls-4{fill:#111035;}</style></defs><rect class="cls-1" width="450" height="335"></rect><rect class="cls-2" y="199.03" width="450" height="28.96"></rect><rect class="cls-2" y="107.52" width="450" height="28.13"></rect><polygon class="cls-3" points="156.94 227.99 138.31 227.99 146.42 107.52 165.06 107.52 156.94 227.99"></polygon><path class="cls-4" d="M140,200.16c-3.38,0-5.54-1-6.51-1.93a4.31,4.31,0,0,1-1.08-2.29c-.85-3.61-5.06-17.71-8.19-27.22-2.53-.13-9.52-.37-16.87-.37-6.26,0-13.37.37-17.23.49-1.8,2.77-13.49,27-14.69,30.23-.37.85-.61,1.09-1.21,1.09-2.41,0-4.82-1.09-4.82-3.25a6,6,0,0,1,.6-1.45c4.22-6.75,31.81-61.08,38.55-74.69.25-.6.61-.72,1.45-.72,2.89,0,5.78,1.2,6,2.16,2.53,8.56,21.21,64.09,24.82,75.18a5.59,5.59,0,0,1,.48,1.8C141.33,199.8,141.21,200.16,140,200.16ZM110.85,129c-4.33,6.51-15.3,29.15-18.19,34.7h29.88C120.49,156.43,112.78,134.38,110.85,129Z"></path><path class="cls-4" d="M183.86,182.81c-4,5.18-14.22,17.35-19.28,17.35-1.32,0-5.3-2.65-5.9-4-.36-.72-.24-2.41-.24-5.18.24-15.42,4.09-49.15,4.7-82.52,0-.6.12-1,1.08-1,2.53,0,5.9,1.08,5.9,3.25,0,5.54-5.06,63.49-5.06,77.1,0,4.94.49,5.78,1.93,5.78,2.29,0,12.17-11.44,14.7-14.82.36-.36.48-.72.84-.72s1.69,1.93,1.69,3.5A1.79,1.79,0,0,1,183.86,182.81Z"></path><path class="cls-4" d="M199.28,159.08c-7.23,13.73-18.8,29.27-24.94,34.33-1.09,1-4.46-1.56-3.49-2.53,12-11.8,25.05-30.72,26.86-37.1C198.31,151.13,200.72,156.31,199.28,159.08Z"></path><path class="cls-4" d="M244.69,143.18C243,150.52,243,161.61,243,202c0,9-3.26,15.53-7.71,19.87S225.42,228,221.56,228c-10.84,0-22.64-5.67-27.95-8.44-.72-.36-1.2-1.8-1.2-3,0-1.69.36-2.53,1-2.53.85,0,15.06,7.83,29.16,7.83,9.75,0,13.85-3.49,13.85-28.67,0-10.12.12-26.86,1.09-37.35-8.68,17.47-29.64,44.34-37.23,44.34-1.32,0-5.42-2.65-6-4-.36-.72-.49-2.41-.49-5.18,0-9.39.37-34.33,6.51-42.64,5.9-8.08,13.37-12.89,21.44-12.89a178.39,178.39,0,0,1,24,3.37c.12,0,.48.12.48.72C246.14,141.73,245.3,143.18,244.69,143.18Zm-27.58-2.53c-10,0-16.51,17.1-16.51,47.22,0,4.94.48,5.66,1.93,5.66,4,0,31-33.37,36-50.35C228.55,141.25,221.68,140.65,217.11,140.65Z"></path><path class="cls-4" d="M284.09,165.94a62.21,62.21,0,0,1-13-1.32,48.84,48.84,0,0,0-.24,6.62c0,13.86,4.7,23.74,15.66,23.74,7.35,0,13.62-4.7,16.15-7,1.56-1.45,1.8-1.81,2.29-1.81.72,0,1.44,1.69,1.44,3.14a2.11,2.11,0,0,1-.84,1.8,27.65,27.65,0,0,1-21,9c-11.81,0-21-7.95-21-28.31,0-27.47,12.64-36.38,26.14-36.38,11.8,0,16.38,6.26,16.38,13.37C306.13,161.13,294,165.94,284.09,165.94Zm4.09-26.62c-7.11,0-13.49,6.14-15.78,19.16.6,1,5.9,2.77,11.44,2.77,9.28,0,14.46-4.58,14.46-12.77C298.3,143.66,295.29,139.32,288.18,139.32Z"></path><path class="cls-4" d="M327.94,152.09c-6,7.95-21.09,11.69-39.52,13.49-1.56.12-1.32-4.45,0-4.57,19.28-1,37.11-7.71,39.52-16.15C328.54,142.57,331.67,147.15,327.94,152.09Z"></path><path class="cls-4" d="M390.58,182.81c-4,5.18-14.22,17.35-19.27,17.35-1.33,0-5.55-2.65-6.15-4-.36-.72-.36-2.41-.36-5.18,0-9.27,2.53-34.69,2.65-43.25.12-4.94-.36-5.78-1.81-5.78-2.17,0-18.79,19.64-27.46,35.18-4.58,8.07-8,16.14-8,22,0,.61-.36,1-1.2,1-2.29,0-4.82-1.09-4.82-3.25,0-.49,3.25-44.7,3.25-60.48,0-.6.12-1,1-1,2.65,0,6,1.08,6,3.25,0,5.54-2.89,41.56-2.89,42.89,7.35-17.47,29.27-46.14,36.5-46.14,1.33,0,5.3,2.53,5.91,4,.36.72.48,2.41.48,5.18,0,9.4-2.77,34.21-2.77,43.25,0,4.94.48,5.78,2,5.78,2.29,0,12.17-11.44,14.7-14.82.36-.36.48-.72.85-.72s1.68,1.93,1.68,3.5A1.79,1.79,0,0,1,390.58,182.81Z"></path></svg> 