<?xml version="1.0" encoding="UTF-8"?><svg xmlns="http://www.w3.org/2000/svg" viewBox="0 0 1920 3160"><defs><style>.cls-1{fill:#fff;}.cls-2{fill:#171c32;}.cls-3{fill:#947fbb;}.cls-4{stroke:#a797c9;stroke-dasharray:0 0 1.74 17.45;stroke-linecap:round;stroke-width:7px;}.cls-4,.cls-5{fill:none;stroke-miterlimit:10;}.cls-5{stroke:#57678b;stroke-width:3.5px;}</style></defs><g id="Background"><rect class="cls-2" width="1920" height="3160"/></g><g id="Horizontal_Guides"><line class="cls-5" y1="203.72" x2="1920" y2="203.72"/><line class="cls-5" y1="308.48" x2="1920" y2="308.48"/><line class="cls-5" x1="1920" y1="498.63" y2="498.63"/><line class="cls-5" y1="605.86" x2="1920" y2="605.86"/><line class="cls-5" y1="956.78" x2="1920" y2="956.78"/><line class="cls-5" y1="1062.54" x2="1920" y2="1062.54"/><line class="cls-5" x1="1920" y1="1252.69" y2="1252.69"/><line class="cls-5" y1="1359.92" x2="1920" y2="1359.92"/><line class="cls-5" y1="1710.35" x2="1920" y2="1710.35"/><line class="cls-5" y1="1816.12" x2="1920" y2="1816.12"/><line class="cls-5" x1="1920" y1="2006.27" y2="2006.27"/><line class="cls-5" y1="2113.5" x2="1920" y2="2113.5"/><line class="cls-5" y1="2463.43" x2="1920" y2="2463.43"/><line class="cls-5" y1="2569.19" x2="1920" y2="2569.19"/><line class="cls-5" x1="1920" y1="2759.34" y2="2759.34"/><line class="cls-5" y1="2866.57" x2="1920" y2="2866.57"/></g><g id="Layer_1"><circle class="cls-3" cx="525.48" cy="2740.78" r="55.91"/><circle class="cls-3" cx="1300.98" cy="479.4" r="55.91"/><polygon class="cls-3" points="374.4 1253.27 493.29 979.16 519.42 1253.27 374.4 1253.27"/><polygon class="cls-3" points="228.57 1253.27 302.42 985.66 374.4 1253.27 228.57 1253.27"/><polygon class="cls-3" points="707.41 607.5 759.75 607.5 792.68 201.64 740.35 201.64 707.41 607.5"/><path class="cls-1" d="m659.78,389.01h-111.49l-50.09,104.63c-1.61,3.23-4.84,4.85-7.67,4.85-4.85,0-8.89-4.04-8.89-8.89,0-2.42,1.21-4.85,2.83-8.48l130.88-271.87c2.02-4.44,5.25-6.46,9.29-6.46,4.44,0,7.67,2.42,8.89,6.87l69.08,273.89c.81,3.64.81,4.85.81,5.66,0,5.25-3.64,9.29-8.89,9.29-2.83,0-7.68-1.21-9.29-7.67l-25.45-101.8Zm-103.41-16.16h99.38l-33.93-135.33h-.41l-65.04,135.33Z"/><path class="cls-1" d="m782.98,211.26c.4-4.85,4.04-8.48,8.89-8.48,5.25,0,9.29,4.04,9.29,9.29,0,.4,0,1.62-.4,6.46l-12.93,162.39h.4l92.91-71.1c2.42-1.62,4.04-2.02,5.65-2.02,4.85,0,8.89,4.04,8.89,8.89,0,3.23-1.61,5.25-3.64,6.87l-90.48,68.68,95.33,89.27c3.23,2.83,4.04,5.66,4.04,8.08,0,5.25-4.04,8.89-9.29,8.89-2.83,0-4.44-.81-6.46-2.42l-98.57-92.51h-.8l-6.47,86.45c-.4,5.25-4.04,8.48-9.29,8.48s-8.89-3.64-8.89-8.89c0-.81,0-1.62.4-6.87l21.41-271.46Z"/><path class="cls-1" d="m921.12,470.61c-1.21-2.02-2.02-4.04-2.02-6.06,0-4.85,3.64-8.89,8.48-8.89s6.87,3.23,9.7,6.46c10.1,11.31,23.43,21.81,48.48,21.81s44.44-12.52,44.44-34.34-15.76-31.51-38.38-44.84l-4.04-2.42c-24.64-14.54-39.59-28.28-39.59-50.5,0-25.85,20.6-45.65,50.9-45.65,21.81,0,35.15,6.46,43.63,13.33,3.64,2.83,5.25,6.06,5.25,9.29,0,4.85-4.04,8.48-8.89,8.48-2.43,0-4.04-.81-6.47-2.83-6.87-5.65-17.77-12.12-33.53-12.12-20.2,0-31.91,10.91-31.91,27.06s8.49,24.24,30.3,37.17l4.04,2.42c27.06,16.16,47.67,28.68,47.67,56.96,0,33.12-25.85,54.13-63.42,54.13-29.89,0-52.92-11.72-64.63-29.49Z"/><path class="cls-1" d="m1095.22,426.17c0-62.61,39.99-119.98,83.21-119.98,22.22,0,35.96,13.73,35.96,35.55,0,42.82-45.65,80.39-100.18,84.83.4,33.93,15.76,57.36,49.69,57.36,25.04,0,37.97-11.72,46.86-21.81,3.64-4.04,5.25-5.25,8.48-5.25,3.64,0,7.68,2.42,7.68,7.67,0,3.64-2.02,6.87-5.25,10.91-9.7,12.12-29.89,24.64-58.17,24.64-44.03,0-68.27-29.89-68.27-73.93Zm19.39-15.35c44.44-4.44,80.39-35.95,80.39-67.46,0-12.93-6.46-21.01-19.39-21.01-26.26,0-56.15,39.99-61,88.47Z"/><path class="cls-1" d="m1291.53,431.02c-.81,9.69-1.21,14.95-1.21,23.03,0,15.76,4.85,29.89,20.6,29.89,7.67,0,12.52-3.64,14.14-4.85,1.62-1.21,2.83-2.02,5.25-2.02,4.04,0,6.87,3.23,6.87,6.87,0,2.02-.4,3.23-1.62,5.25-2.82,4.85-13.33,10.91-25.85,10.91-26.26,0-37.57-18.99-37.57-45.65,0-9.29.4-14.95,1.21-25.45l18.58-217.73c.4-4.85,4.04-8.48,8.89-8.48,5.25,0,9.29,4.04,9.29,9.29,0,.4,0,1.21-.41,6.46l-18.18,212.49Z"/><path class="cls-1" d="m1392.91,316.29c.4-4.85,4.04-8.48,8.89-8.48,5.25,0,9.29,4.04,9.29,9.29,0,.4,0,1.21-.4,6.46l-12.93,166.43c-.4,5.25-4.04,8.48-9.29,8.48s-8.89-3.64-8.89-8.89c0-.81,0-1.62.4-6.87l12.93-166.43Zm13.74-67.87c6.46,0,11.72,5.25,11.72,11.72,0,6.87-5.25,11.71-11.72,11.71-6.87,0-11.72-4.85-11.72-11.71,0-6.46,4.85-11.72,11.72-11.72Z"/><path class="cls-1" d="m304.92,1000.39h-.41l-67.46,245.61c-1.21,4.44-4.45,7.27-8.49,7.27-4.85,0-8.89-4.04-8.89-8.89,0-1.62.81-4.85,3.64-13.73l73.92-267.02c1.21-4.04,5.25-6.06,8.89-6.06,4.04,0,7.68,2.02,8.89,7.27l62.21,252.07h.41l112.3-253.28c1.61-4.04,4.85-6.06,8.89-6.06,5.25,0,8.48,3.64,8.89,8.08l19.79,268.23c.4,4.04.8,8.48.8,9.7,0,5.65-3.63,9.69-8.89,9.69s-8.88-3.64-9.29-8.89l-18.18-243.19h-.41l-109.07,246.82c-1.62,3.23-4.04,5.25-8.08,5.25s-8.08-2.42-9.29-7.67l-60.19-245.21Z"/><path class="cls-1" d="m587.68,1174.9c0-59.79,33.93-113.92,86.04-113.92,40.4,0,65.04,32.72,65.04,79.98,0,59.79-33.93,113.92-86.04,113.92-40.4,0-65.04-32.72-65.04-79.98Zm18.99-1.21c0,36.76,16.56,65.04,46.45,65.04,40.4,0,66.65-46.45,66.65-96.55,0-36.76-16.56-65.04-46.45-65.04-40.4,0-66.65,46.45-66.65,96.55Z"/><path class="cls-1" d="m841.35,1144.2l49.68-63.42v-.4h-98.97c-4.85,0-8.08-3.23-8.08-8.08,0-4.44,3.23-8.08,8.08-8.08h111.09c5.65,0,9.69,3.64,9.69,8.48,0,2.02-.4,4.44-3.63,8.48l-49.29,63.02h8.08c4.45,0,8.08,3.64,8.08,8.08,0,4.85-3.63,8.08-8.08,8.08h-21.01l-58.17,74.73v.4h117.15c4.84,0,8.08,3.23,8.08,8.08,0,4.44-3.23,8.08-8.08,8.08h-129.27c-5.66,0-9.7-3.64-9.7-8.48,0-2.02.4-4.44,3.63-8.48l58.17-74.33h-8.08c-4.85,0-8.08-3.23-8.08-8.08,0-4.44,3.23-8.08,8.08-8.08h20.6Z"/><path class="cls-1" d="m1081.7,1078.35l.4-2.83c.81-5.25,3.64-8.89,8.89-8.89s9.29,4.04,9.29,9.29c0,.81,0,1.62-.41,6.87l-12.93,161.99c-.4,5.25-4.04,8.48-9.29,8.48s-8.89-3.64-8.89-8.89c0-1.21,0-3.23.4-7.27l3.23-37.17h-.41c-8.89,24.24-30.7,54.94-64.63,54.94s-53.73-25.85-53.73-70.7c0-62.21,33.53-123.21,88.47-123.21,18.58,0,32.32,7.67,39.59,17.37Zm-1.62,24.24c-5.65-14.54-18.99-25.45-36.76-25.45-46.05,0-70.69,54.13-70.69,106.24,0,33.12,12.12,55.34,35.55,55.34,38.78,0,65.04-54.54,69.48-106.65l2.42-29.49Z"/><path class="cls-1" d="m1177.82,1244.78c-.41,5.25-4.04,8.48-9.29,8.48s-8.89-3.64-8.89-8.89c0-.81,0-1.62.41-6.87l12.93-166.03c.4-5.25,3.64-8.89,8.89-8.89s9.29,4.04,9.29,9.29c0,.4,0,1.21-.4,6.46l-2.02,26.66h.4c10.91-25.85,32.72-44.03,54.94-44.03,10.91,0,18.99,2.83,25.85,8.48,2.83,2.42,4.04,5.25,4.04,7.67,0,4.85-4.04,8.48-8.48,8.48-2.02,0-3.64-.4-6.46-2.42-5.66-4.04-10.1-6.06-16.56-6.06-26.66,0-54.54,41.2-58.98,96.14l-5.65,71.5Z"/><path class="cls-1" d="m1317.58,1064.21l3.23-39.59c.4-5.25,3.63-8.89,8.88-8.89s9.29,4.04,9.29,9.29c0,.4,0,1.21-.4,6.87l-2.83,32.32h44.03c4.45,0,8.08,3.64,8.08,8.08,0,4.85-3.63,8.08-8.08,8.08h-45.24l-7.68,99.78c-1.21,13.74-1.62,18.58-1.62,24.24,0,22.62,10.9,34.34,27.87,34.34s26.26-10.5,31.51-16.16c3.23-3.64,5.66-5.65,8.88-5.65,3.64,0,7.27,2.83,7.27,7.27,0,3.23-.81,5.25-2.42,7.67-5.25,7.68-21.81,23.03-44.84,23.03-29.09,0-46.45-17.77-46.45-50.9,0-5.65.4-10.5,1.62-24.24l7.67-99.38h-19.38c-4.85,0-8.08-3.23-8.08-8.08,0-4.44,3.23-8.08,8.08-8.08h20.6Z"/><path class="cls-1" d="m1456.53,1071.08c.4-4.85,4.04-8.48,8.89-8.48,5.25,0,9.29,4.04,9.29,9.29,0,.4,0,1.21-.4,6.46l-12.92,166.43c-.4,5.25-4.04,8.48-9.29,8.48s-8.88-3.64-8.88-8.89c0-.81,0-1.62.4-6.87l12.92-166.43Zm13.74-67.87c6.46,0,11.72,5.25,11.72,11.72,0,6.87-5.25,11.71-11.72,11.71-6.86,0-11.72-4.85-11.72-11.71,0-6.46,4.85-11.72,11.72-11.72Z"/><path class="cls-1" d="m1564.38,1111.48h.4c12.12-25.45,33.53-50.49,66.66-50.49s48.87,22.62,48.87,52.92c0,7.67-.4,12.93-1.21,22.62l-8.48,108.26c-.41,5.25-4.04,8.48-9.29,8.48s-8.89-3.64-8.89-8.89c0-.81,0-1.62.41-6.87l7.68-98.16c.8-10.1,1.21-15.76,1.21-23.03,0-22.62-9.7-39.18-32.32-39.18-35.15,0-65.85,47.26-69.88,100.18l-5.25,67.46c-.4,5.25-4.04,8.48-9.29,8.48s-8.88-3.64-8.88-8.89c0-.81,0-1.62.4-6.87l12.93-166.03c.4-5.25,3.64-8.89,8.88-8.89s9.29,4.04,9.29,9.29c0,.4,0,1.21-.4,6.46l-2.83,33.13Z"/><path class="cls-1" d="m533.64,1854l-61.4,147.04c-1.62,3.64-4.45,5.65-8.08,5.65-4.85,0-8.49-3.64-8.49-8.48,0-2.02.81-4.04,2.83-8.48l56.56-135.73h-23.43c-4.85,0-8.08-3.23-8.08-8.08,0-4.44,3.23-8.08,8.08-8.08h30.3l45.65-109.07h-139.77c-4.44,0-8.08-3.64-8.08-8.08,0-4.85,3.64-8.08,8.08-8.08h152.29c4.45,0,8.49,4.04,8.49,8.48,0,2.42-.81,4.44-3.23,10.1l-44.84,106.65h22.62c4.45,0,8.08,3.64,8.08,8.08,0,4.85-3.63,8.08-8.08,8.08h-29.49Z"/><path class="cls-1" d="m626.95,1980.85c7.67,0,13.73,6.06,13.73,13.74,0,8.08-6.06,13.74-13.73,13.74-8.08,0-13.74-5.66-13.74-13.74s5.66-13.74,13.74-13.74Z"/><path class="cls-1" d="m818.82,1719.48c.4-4.85,4.04-8.48,8.89-8.48,5.25,0,9.29,4.04,9.29,9.29,0,.4,0,1.62-.4,6.46l-12.93,162.39h.4l92.91-71.1c2.42-1.62,4.04-2.02,5.65-2.02,4.85,0,8.89,4.04,8.89,8.89,0,3.23-1.61,5.25-3.64,6.87l-90.48,68.68,95.33,89.27c3.23,2.83,4.04,5.66,4.04,8.08,0,5.25-4.04,8.89-9.29,8.89-2.83,0-4.44-.81-6.46-2.42l-98.57-92.51h-.8l-6.47,86.45c-.4,5.25-4.04,8.48-9.29,8.48s-8.89-3.64-8.89-8.89c0-.81,0-1.62.4-6.87l21.41-271.46Z"/><path class="cls-1" d="m1095.11,1831.78l.4-2.83c.81-5.25,3.64-8.89,8.89-8.89s9.29,4.04,9.29,9.29c0,.81,0,1.62-.41,6.87l-12.93,161.99c-.4,5.25-4.04,8.48-9.29,8.48s-8.89-3.64-8.89-8.89c0-1.21,0-3.23.4-7.27l3.23-37.17h-.41c-8.89,24.24-30.7,54.94-64.63,54.94s-53.73-25.85-53.73-70.7c0-62.21,33.53-123.21,88.47-123.21,18.58,0,32.32,7.67,39.59,17.37Zm-1.62,24.24c-5.65-14.54-18.99-25.45-36.76-25.45-46.05,0-70.69,54.13-70.69,106.24,0,33.12,12.12,55.34,35.55,55.34,38.78,0,65.04-54.54,69.48-106.65l2.42-29.49Z"/><path class="cls-1" d="m1192.05,1817.65l3.23-39.59c.4-5.25,3.63-8.89,8.89-8.89s9.29,4.04,9.29,9.29c0,.4,0,1.21-.4,6.87l-2.83,32.32h44.03c4.45,0,8.08,3.64,8.08,8.08,0,4.85-3.63,8.08-8.08,8.08h-45.24l-7.68,99.78c-1.21,13.74-1.62,18.58-1.62,24.24,0,22.62,10.91,34.34,27.87,34.34s26.26-10.5,31.51-16.16c3.23-3.64,5.66-5.65,8.89-5.65,3.64,0,7.27,2.83,7.27,7.27,0,3.23-.81,5.25-2.42,7.67-5.25,7.68-21.81,23.03-44.84,23.03-29.09,0-46.46-17.77-46.46-50.9,0-5.65.4-10.5,1.62-24.24l7.67-99.38h-19.39c-4.85,0-8.08-3.23-8.08-8.08,0-4.44,3.23-8.08,8.08-8.08h20.6Z"/><path class="cls-1" d="m1335.85,1929.95c-.81,10.1-1.21,15.76-1.21,23.03,0,22.62,9.29,39.18,32.32,39.18,35.15,0,65.85-47.26,69.89-100.18l5.25-67.46c.4-5.25,4.04-8.48,9.29-8.48s8.89,3.64,8.89,8.89c0,1.21,0,1.62-.4,6.87l-12.93,166.03c-.4,5.25-3.64,8.89-8.88,8.89s-9.3-4.04-9.3-9.29c0-.4,0-1.21.41-6.46l2.83-33.13h-.41c-12.12,25.45-33.53,50.5-66.65,50.5s-48.88-22.62-48.88-52.92c0-7.67.4-12.93,1.21-22.62l8.89-108.26c.41-5.25,4.04-8.48,9.29-8.48s8.88,3.64,8.88,8.89c0,.81,0,1.62-.4,6.87l-8.08,98.16Z"/><path class="cls-1" d="m347.74,2634.21c0-96.14,57.77-171.69,130.48-171.69,37.57,0,58.17,14.14,67.87,23.83,2.42,2.42,3.23,4.85,3.23,7.27,0,4.85-4.04,8.49-8.89,8.49-2.02,0-4.04-.81-6.87-3.23-9.7-8.08-24.24-20.19-55.34-20.19-64.23,0-111.49,71.1-111.49,152.7,0,50.9,20.2,113.92,80.79,113.92,48.07,0,79.18-48.07,82.82-93.72l1.21-15.35h-62.61c-4.44,0-8.08-3.64-8.08-8.08s3.64-8.08,8.08-8.08h71.9c5.25,0,9.29,4.04,9.29,9.29,0,.4,0,1.21-.41,6.87l-9.29,115.13c-.4,5.25-4.04,8.49-9.29,8.49s-8.89-3.64-8.89-8.89c0,0,0-2.02.4-6.87l2.83-32.32h-.41c-12.52,26.66-40.39,49.69-77.56,49.69-74.33,0-99.78-70.29-99.78-127.25Z"/><path class="cls-1" d="m602.22,2687.53c0-62.61,39.99-119.97,83.21-119.97,22.22,0,35.96,13.73,35.96,35.55,0,42.82-45.65,80.39-100.18,84.83.4,33.93,15.76,57.36,49.69,57.36,25.04,0,37.97-11.72,46.86-21.81,3.64-4.04,5.25-5.25,8.48-5.25,3.64,0,7.68,2.42,7.68,7.68,0,3.63-2.02,6.87-5.25,10.91-9.7,12.12-29.89,24.64-58.17,24.64-44.03,0-68.27-29.9-68.27-73.93Zm19.39-15.35c44.44-4.45,80.39-35.95,80.39-67.46,0-12.93-6.46-21.01-19.39-21.01-26.26,0-56.15,39.99-61,88.47Z"/><path class="cls-1" d="m770.25,2687.53c0-62.61,39.99-119.97,83.21-119.97,22.22,0,35.96,13.73,35.96,35.55,0,42.82-45.65,80.39-100.18,84.83.4,33.93,15.76,57.36,49.69,57.36,25.04,0,37.97-11.72,46.86-21.81,3.64-4.04,5.25-5.25,8.48-5.25,3.64,0,7.68,2.42,7.68,7.68,0,3.63-2.02,6.87-5.25,10.91-9.7,12.12-29.89,24.64-58.17,24.64-44.03,0-68.27-29.9-68.27-73.93Zm19.39-15.35c44.44-4.45,80.39-35.95,80.39-67.46,0-12.93-6.46-21.01-19.39-21.01-26.26,0-56.15,39.99-61,88.47Z"/><path class="cls-1" d="m974.23,2618.05h.4c12.12-25.45,33.53-50.49,66.65-50.49s48.88,22.62,48.88,52.92c0,7.67-.41,12.93-1.21,22.62l-8.48,108.26c-.41,5.25-4.04,8.49-9.29,8.49s-8.89-3.64-8.89-8.89c0-.81,0-1.62.41-6.87l7.68-98.16c.8-10.1,1.21-15.76,1.21-23.03,0-22.62-9.7-39.18-32.32-39.18-35.14,0-65.85,47.26-69.88,100.18l-5.25,67.46c-.41,5.25-4.04,8.49-9.29,8.49s-8.89-3.64-8.89-8.89c0-.81,0-1.62.41-6.87l12.93-166.03c.4-5.25,3.64-8.89,8.89-8.89s9.29,4.04,9.29,9.29c0,.41,0,1.21-.4,6.47l-2.83,33.12Z"/><path class="cls-1" d="m1142.27,2687.53c0-62.61,39.99-119.97,83.21-119.97,22.22,0,35.96,13.73,35.96,35.55,0,42.82-45.65,80.39-100.18,84.83.4,33.93,15.76,57.36,49.69,57.36,25.04,0,37.97-11.72,46.86-21.81,3.64-4.04,5.25-5.25,8.48-5.25,3.64,0,7.68,2.42,7.68,7.68,0,3.63-2.02,6.87-5.25,10.91-9.7,12.12-29.89,24.64-58.17,24.64-44.03,0-68.27-29.9-68.27-73.93Zm19.39-15.35c44.44-4.45,80.39-35.95,80.39-67.46,0-12.93-6.46-21.01-19.39-21.01-26.26,0-56.15,39.99-61,88.47Z"/><path class="cls-1" d="m1336.55,2791.36c-3.63,50.49-19.39,73.52-54.54,73.52-14.95,0-27.87-7.27-32.72-13.74-1.21-1.62-1.61-3.23-1.61-5.25,0-4.84,3.63-8.89,8.48-8.89,2.43,0,4.04.81,6.47,2.83,5.65,4.85,12.52,8.89,21.01,8.89,24.64,0,31.91-20.2,34.74-59.38l14.95-211.68c.4-4.85,4.04-8.49,8.89-8.49,5.25,0,9.29,4.04,9.29,9.29,0,1.21,0,2.83-.4,8.08l-14.54,204.81Zm10.5-281.57c6.46,0,11.71,5.25,11.71,11.72,0,6.87-5.25,11.72-11.71,11.72-6.87,0-11.72-4.85-11.72-11.72,0-6.46,4.85-11.72,11.72-11.72Z"/><path class="cls-1" d="m1533.67,2584.93l.4-2.83c.81-5.25,3.64-8.89,8.89-8.89s9.29,4.04,9.29,9.29c0,.8,0,1.61-.41,6.86l-12.92,161.99c-.4,5.25-4.04,8.49-9.29,8.49s-8.88-3.64-8.88-8.89c0-1.21,0-3.23.4-7.27l3.23-37.17h-.41c-8.88,24.24-30.7,54.94-64.63,54.94s-53.73-25.85-53.73-70.7c0-62.21,33.53-123.21,88.46-123.21,18.59,0,32.32,7.67,39.59,17.37Zm-1.62,24.24c-5.65-14.54-18.98-25.45-36.76-25.45-46.05,0-70.7,54.13-70.7,106.24,0,33.12,12.12,55.34,35.55,55.34,38.78,0,65.04-54.54,69.48-106.65l2.42-29.49Zm-59.79-99.38c6.47,0,11.72,5.25,11.72,11.72s-5.25,11.72-11.72,11.72-11.72-5.25-11.72-11.72,5.25-11.72,11.72-11.72Zm58.18,0c6.46,0,11.71,5.25,11.71,11.72s-5.25,11.72-11.71,11.72-11.72-5.25-11.72-11.72,5.25-11.72,11.72-11.72Z"/><path class="cls-1" d="m675.89,664.26h-17.68v-2.23l16.72-23.36h3.95v22.85h4.96v2.73h-5v7.14h-2.94v-7.14Zm-13.99-2.73h14.03v-19.7l-14.03,19.7Z"/><path class="cls-1" d="m684.24,643.34c0-2.73,1.64-5.33,5.5-5.33s5.5,2.6,5.5,5.33-1.64,5.29-5.5,5.29-5.5-2.56-5.5-5.29Zm8.4,0c0-1.81-1.05-3.07-2.9-3.07s-2.9,1.26-2.9,3.07,1.05,3.02,2.9,3.02,2.9-1.18,2.9-3.02Z"/><path class="cls-1" d="m708.05,664.98v-1.18h2.94v1.13c0,2.86,2.14,4.5,5.96,4.5s5.8-1.01,5.8-3.78c0-2.06-1.01-2.81-3.87-3.32l-4.62-.84c-3.02-.55-5.54-2.02-5.54-5.5,0-3.15,2.35-6.13,8.4-6.13s8.4,3.02,8.4,7.23v.88h-2.98v-.76c0-3.44-2.14-4.91-5.42-4.91-3.95,0-5.33,1.34-5.33,3.36s1.01,2.86,3.91,3.4l4.03.76c4.12.76,6.09,1.93,6.09,5.59,0,4.58-4.12,6.55-8.78,6.55-7.31,0-8.99-3.28-8.99-6.97Z"/><path class="cls-1" d="m731.7,638.64h2.94v32.77h-2.94v-32.77Z"/><path class="cls-1" d="m740.73,665.61c0-3.95,2.23-6.09,7.86-6.09h6.34v-1.72c0-2.98-1.26-5.42-5.46-5.42-3.95,0-5.33,1.51-5.33,4.12v.88h-2.98v-.84c0-5,4.2-6.68,8.32-6.68,5.8,0,8.4,2.86,8.4,8.44v13.11h-2.06l-.55-2.98h-.08c-1.26,1.89-3.7,3.53-7.35,3.53-4.91,0-7.1-2.31-7.1-6.34Zm14.2-1.85v-1.76h-7.02c-2.65,0-4.03.92-4.03,3.61,0,2.35,1.26,3.86,4.5,3.86,4.16,0,6.55-2.14,6.55-5.71Z"/><path class="cls-1" d="m765.22,650.4h2.6l.29,3.49c1.01-2.14,3.28-4.03,7.35-4.03,4.75,0,7.77,2.52,7.77,7.94v13.61h-2.94v-13.27c0-4.33-2.14-5.71-5.5-5.71-3.82,0-6.64,2.69-6.64,5.63v13.36h-2.94v-21Z"/><path class="cls-1" d="m801.55,668.72v2.6c-.76.21-2.14.59-4.03.59-3.82,0-6.34-1.6-6.34-6.89v-12.18h-4.16v-2.44h4.16v-6.05l2.94-1.43v7.48h5.92v2.44h-5.92v11.8c0,2.81.76,4.58,3.4,4.58,1.6,0,3.23-.29,4.03-.5Z"/><line class="cls-4" x1="301.49" y1="1417.58" x2="301.49" y2="1262.01"/><path class="cls-1" d="m151.16,1461.9c0-11.72,6.76-16.93,15.46-16.93,7.94,0,14.7,5.21,14.7,16.59,0,12.48-6.76,17.26-15.08,17.26s-15.08-4.79-15.08-16.93Zm27.05,0c0-10.12-5.33-14.24-12.01-14.24s-11.93,4.12-11.93,14.24,5.33,14.2,12.01,14.2,11.93-3.74,11.93-14.2Z"/><path class="cls-1" d="m187.62,1457.28h2.39l.34,3.86h.08c1.13-2.48,4.03-4.41,7.86-4.41,6.3,0,9.66,3.99,9.66,11.01s-4.29,11.09-9.87,11.09c-3.78,0-6.38-1.6-7.44-3.7h-.08v11.55h-2.94v-29.41Zm17.18,10.63c0-7.18-3.4-8.61-6.93-8.61-4.24,0-7.56,2.73-7.56,8.44,0,6.01,3.44,8.57,7.44,8.57,3.02,0,7.06-1.47,7.06-8.4Z"/><path class="cls-1" d="m231.09,1468.79h-15.96c.17,4.79,2.48,7.48,6.93,7.48,3.82,0,5.67-1.43,5.96-4.83h2.98c-.29,4.24-3.28,7.39-9.03,7.39-7.06,0-9.83-4.66-9.83-10.88s3.23-11.22,10-11.22,8.95,3.99,8.95,10.21v1.85Zm-3.11-2.98c0-4.45-1.72-6.55-5.92-6.55s-6.55,2.65-6.89,6.97h12.81v-.42Z"/><path class="cls-1" d="m236.97,1457.28h2.6l.29,3.49c1.01-2.14,3.28-4.03,7.35-4.03,4.75,0,7.77,2.52,7.77,7.94v13.61h-2.94v-13.27c0-4.33-2.14-5.71-5.5-5.71-3.82,0-6.64,2.69-6.64,5.63v13.36h-2.94v-21Z"/><path class="cls-1" d="m272,1445.52h2.94v32.77h-2.94v-32.77Z"/><path class="cls-1" d="m299.55,1468.79h-15.96c.17,4.79,2.48,7.48,6.93,7.48,3.82,0,5.67-1.43,5.96-4.83h2.98c-.29,4.24-3.28,7.39-9.03,7.39-7.06,0-9.83-4.66-9.83-10.88s3.23-11.22,10-11.22,8.95,3.99,8.95,10.21v1.85Zm-3.11-2.98c0-4.45-1.72-6.55-5.92-6.55s-6.55,2.65-6.89,6.97h12.81v-.42Z"/><path class="cls-1" d="m304.8,1480.09v-.13h3.11v.13c0,2.9,1.93,4.33,6.13,4.33,4.79,0,7.01-2.94,7.01-7.86v-2.1h-.08c-1.09,2.18-3.65,4.07-7.48,4.07-6.3,0-9.75-3.99-9.75-10.71,0-7.1,4.37-11.09,9.96-11.09,3.78,0,6.55,1.81,7.56,4.12h.13l.29-3.57h2.31v19.16c0,5.88-2.81,10.71-10.33,10.71-6.3,0-8.86-2.98-8.86-7.06Zm16.59-12.77c0-5.5-3.36-8.07-7.35-8.07-3.02,0-7.14,1.47-7.14,8.4s3.57,8.32,7.1,8.32c4.24,0,7.39-2.73,7.39-8.65Z"/><path class="cls-1" d="m329.45,1471.85v-1.18h2.94v1.13c0,2.86,2.14,4.5,5.96,4.5s5.8-1.01,5.8-3.78c0-2.06-1.01-2.81-3.86-3.32l-4.62-.84c-3.02-.55-5.54-2.02-5.54-5.5,0-3.15,2.35-6.13,8.4-6.13s8.4,3.02,8.4,7.23v.88h-2.98v-.76c0-3.44-2.14-4.91-5.42-4.91-3.95,0-5.33,1.34-5.33,3.36s1.01,2.86,3.91,3.4l4.03.76c4.12.76,6.09,1.93,6.09,5.59,0,4.58-4.12,6.55-8.78,6.55-7.31,0-8.99-3.28-8.99-6.97Z"/><path class="cls-1" d="m362.76,1445.52h2.98v6.51h-2.98v-6.51Zm0,11.76h2.94v21h-2.94v-21Z"/><path class="cls-1" d="m373.09,1457.28h2.6l.29,3.49c1.01-2.14,3.28-4.03,7.35-4.03,4.75,0,7.77,2.52,7.77,7.94v13.61h-2.94v-13.27c0-4.33-2.14-5.71-5.5-5.71-3.82,0-6.64,2.69-6.64,5.63v13.36h-2.94v-21Z"/><path class="cls-1" d="m409.8,1455.98h-3.36v-5.08c0-3.95.88-5.29,3.4-5.97l.67,1.85c-1.76.67-2.06,1.09-2.06,3.78v.34h1.34v5.08Zm5.92,0h-3.36v-5.08c0-3.95.88-5.29,3.4-5.97l.67,1.85c-1.76.67-2.06,1.09-2.06,3.78v.34h1.34v5.08Z"/><path class="cls-1" d="m423.16,1445.52h3.23l11.51,20.92h.08l11.51-20.92h3.24v32.77h-2.94v-27.85h-.04l-10.75,19.91h-2.06l-10.8-19.91h-.04v27.85h-2.94v-32.77Z"/><path class="cls-1" d="m459.44,1454.72c1.76-.67,2.06-1.09,2.06-3.78v-.34h-1.34v-5.08h3.36v5.08c0,3.95-.88,5.29-3.4,5.97l-.67-1.85Zm5.92,0c1.76-.67,2.06-1.09,2.06-3.78v-.34h-1.34v-5.08h3.36v5.08c0,3.95-.88,5.29-3.4,5.97l-.67-1.85Z"/><path class="cls-3" d="m515.06,1854h-23.43c-4.85,0-8.08-3.23-8.08-8.08,0-4.44,3.23-8.08,8.08-8.08h71.5c4.45,0,8.08,3.64,8.08,8.08,0,4.85-3.63,8.08-8.08,8.08h-48.07Z"/><path class="cls-3" d="m841.35,1144.2h26.66c4.45,0,8.08,3.64,8.08,8.08,0,4.85-3.63,8.08-8.08,8.08h-47.26c-4.85,0-8.08-3.23-8.08-8.08,0-4.44,3.23-8.08,8.08-8.08h20.6l49.68-63.42"/><path class="cls-1" d="m624.75,1443.8h9.33c6.85,0,10,2.52,10,8.07,0,3.4-1.97,6.64-5.25,7.39v.08c3.78.55,6.85,2.73,6.85,7.9,0,6.3-3.23,9.33-11.72,9.33h-9.2v-32.77Zm8.86,14.53c6.13,0,7.44-2.9,7.44-6.51,0-3.86-2.06-5.42-7.48-5.42h-5.84v11.93h5.88Zm.13,15.63c6.47,0,8.86-1.68,8.86-6.72,0-4.12-1.97-6.39-9.03-6.39h-5.84v13.11h6.01Z"/><path class="cls-1" d="m650.71,1470.77c0-3.95,2.23-6.09,7.86-6.09h6.34v-1.72c0-2.98-1.26-5.42-5.46-5.42-3.95,0-5.33,1.51-5.33,4.12v.88h-2.98v-.84c0-5,4.2-6.68,8.32-6.68,5.8,0,8.4,2.86,8.4,8.44v13.11h-2.06l-.55-2.98h-.08c-1.26,1.89-3.7,3.53-7.35,3.53-4.92,0-7.1-2.31-7.1-6.34Zm14.2-1.85v-1.76h-7.02c-2.65,0-4.03.92-4.03,3.61,0,2.35,1.26,3.86,4.5,3.86,4.16,0,6.55-2.14,6.55-5.71Z"/><path class="cls-1" d="m675.19,1455.56h2.6l.29,3.91c1.01-2.14,3.07-4.45,6.76-4.45,1.26,0,2.18.21,3.02.55v3.15c-1.13-.5-2.1-.76-3.4-.76-3.74,0-6.34,2.81-6.34,5.75v12.85h-2.94v-21Z"/><path class="cls-1" d="m690.4,1470.14v-1.18h2.94v1.13c0,2.86,2.14,4.5,5.96,4.5s5.8-1.01,5.8-3.78c0-2.06-1.01-2.81-3.86-3.32l-4.62-.84c-3.02-.55-5.54-2.02-5.54-5.5,0-3.15,2.35-6.13,8.4-6.13s8.4,3.02,8.4,7.23v.88h-2.98v-.76c0-3.44-2.14-4.91-5.42-4.91-3.95,0-5.33,1.34-5.33,3.36s1.01,2.86,3.91,3.4l4.03.76c4.12.76,6.09,1.93,6.09,5.59,0,4.58-4.12,6.55-8.78,6.55-7.31,0-8.99-3.28-8.99-6.97Z"/><path class="cls-1" d="m723.7,1443.8h2.98v6.51h-2.98v-6.51Zm0,11.76h2.94v21h-2.94v-21Z"/><path class="cls-1" d="m734.04,1455.56h2.6l.29,3.49c1.01-2.14,3.28-4.03,7.35-4.03,4.75,0,7.77,2.52,7.77,7.94v13.61h-2.94v-13.27c0-4.33-2.14-5.71-5.5-5.71-3.82,0-6.64,2.69-6.64,5.63v13.36h-2.94v-21Z"/><path class="cls-1" d="m770.74,1454.26h-3.36v-5.08c0-3.95.88-5.29,3.4-5.97l.67,1.85c-1.76.67-2.06,1.09-2.06,3.78v.34h1.34v5.08Zm5.92,0h-3.36v-5.08c0-3.95.88-5.29,3.4-5.97l.67,1.85c-1.76.67-2.06,1.09-2.06,3.78v.34h1.34v5.08Z"/><path class="cls-1" d="m799.85,1443.8v2.27l-12.18,30.5h-3.32v-.08l12.18-29.95h-16.84v-2.73h20.16Z"/><path class="cls-1" d="m802.83,1453c1.76-.67,2.06-1.09,2.06-3.78v-.34h-1.34v-5.08h3.36v5.08c0,3.95-.88,5.29-3.4,5.97l-.67-1.85Zm5.92,0c1.76-.67,2.06-1.09,2.06-3.78v-.34h-1.34v-5.08h3.36v5.08c0,3.95-.88,5.29-3.4,5.97l-.67-1.85Z"/><path class="cls-1" d="m815.77,1470.35h3.36v6.22c0,3.95-.88,5.29-3.4,5.96l-.67-1.85c1.76-.67,2.06-1.09,2.06-3.78v-.34h-1.34v-6.22Z"/><path class="cls-1" d="m836.77,1454.26h-3.36v-5.08c0-3.95.88-5.29,3.4-5.97l.67,1.85c-1.76.67-2.06,1.09-2.06,3.78v.34h1.34v5.08Zm5.92,0h-3.36v-5.08c0-3.95.88-5.29,3.4-5.97l.67,1.85c-1.76.67-2.06,1.09-2.06,3.78v.34h1.34v5.08Z"/><path class="cls-1" d="m846.76,1474l14.7-15.88h-14.58v-2.56h18.23v2.56l-14.7,15.84h14.66v2.6h-18.32v-2.56Z"/><path class="cls-1" d="m868.48,1453c1.76-.67,2.06-1.09,2.06-3.78v-.34h-1.34v-5.08h3.36v5.08c0,3.95-.88,5.29-3.4,5.97l-.67-1.85Zm5.92,0c1.76-.67,2.06-1.09,2.06-3.78v-.34h-1.34v-5.08h3.36v5.08c0,3.95-.88,5.29-3.4,5.97l-.67-1.85Z"/><path class="cls-1" d="m892.75,1470.77c0-3.95,2.23-6.09,7.86-6.09h6.34v-1.72c0-2.98-1.26-5.42-5.46-5.42-3.95,0-5.33,1.51-5.33,4.12v.88h-2.98v-.84c0-5,4.2-6.68,8.32-6.68,5.8,0,8.4,2.86,8.4,8.44v13.11h-2.06l-.55-2.98h-.08c-1.26,1.89-3.7,3.53-7.35,3.53-4.92,0-7.1-2.31-7.1-6.34Zm14.2-1.85v-1.76h-7.02c-2.65,0-4.03.92-4.03,3.61,0,2.35,1.26,3.86,4.5,3.86,4.16,0,6.55-2.14,6.55-5.71Z"/><path class="cls-1" d="m917.24,1455.56h2.6l.29,3.49c1.01-2.14,3.28-4.03,7.35-4.03,4.75,0,7.77,2.52,7.77,7.94v13.61h-2.94v-13.27c0-4.33-2.14-5.71-5.5-5.71-3.82,0-6.64,2.69-6.64,5.63v13.36h-2.94v-21Z"/><path class="cls-1" d="m940.93,1466.1c0-7.1,4.29-11.09,10.04-11.09,3.7,0,6.22,1.6,7.31,3.74h.04v-14.95h2.94v32.77h-1.97l-.67-3.61h-.08c-1.18,2.31-3.95,4.16-7.77,4.16-6.3,0-9.83-3.99-9.83-11.01Zm17.64-.5c0-5.5-3.36-8.07-7.35-8.07-3.11,0-7.14,1.47-7.14,8.4s3.61,8.61,7.14,8.61c4.24,0,7.35-2.73,7.35-8.95Z"/><path class="cls-1" d="m979.95,1454.26h-3.36v-5.08c0-3.95.88-5.29,3.4-5.97l.67,1.85c-1.76.67-2.06,1.09-2.06,3.78v.34h1.34v5.08Zm5.92,0h-3.36v-5.08c0-3.95.88-5.29,3.4-5.97l.67,1.85c-1.76.67-2.06,1.09-2.06,3.78v.34h1.34v5.08Z"/><path class="cls-1" d="m1006.2,1473.08h-.08c-1.09,2.14-3.65,4.03-7.48,4.03-6.3,0-9.75-3.99-9.75-11.01s4.37-11.09,9.96-11.09c3.78,0,6.59,1.76,7.65,4.28h.04l.29-3.74h2.31v29.41h-2.94v-11.89Zm.34-7.48c0-5.5-3.36-8.07-7.35-8.07-3.02,0-7.14,1.47-7.14,8.4s3.57,8.61,7.1,8.61c4.24,0,7.39-2.73,7.39-8.95Z"/><path class="cls-1" d="m1013.75,1453c1.76-.67,2.06-1.09,2.06-3.78v-.34h-1.34v-5.08h3.36v5.08c0,3.95-.88,5.29-3.4,5.97l-.67-1.85Zm5.92,0c1.76-.67,2.06-1.09,2.06-3.78v-.34h-1.34v-5.08h3.36v5.08c0,3.95-.88,5.29-3.4,5.97l-.67-1.85Z"/><line class="cls-4" x1="859.44" y1="1417.58" x2="859.44" y2="1168.01"/><polyline class="cls-4" points="585.21 1845.92 719.77 1845.92 719.77 1510"/><line class="cls-4" x1="1299.59" y1="663.94" x2="1299.59" y2="548.36"/><path class="cls-1" d="m1155.26,708.25c0-11.72,6.76-16.93,15.46-16.93,7.94,0,14.7,5.21,14.7,16.59,0,12.48-6.76,17.26-15.08,17.26s-15.08-4.79-15.08-16.93Zm27.05,0c0-10.12-5.33-14.24-12.01-14.24s-11.93,4.12-11.93,14.24,5.33,14.2,12.01,14.2,11.93-3.74,11.93-14.2Z"/><path class="cls-1" d="m1191.3,717.24v-13.61h2.94v13.27c0,4.33,2.14,5.71,5.42,5.71,3.74,0,6.55-2.69,6.55-5.63v-13.36h2.94v21h-2.6l-.25-3.36h-.08c-.97,2.02-3.23,3.91-7.23,3.91-4.66,0-7.69-2.52-7.69-7.94Z"/><path class="cls-1" d="m1227.46,721.95v2.6c-.76.21-2.14.59-4.03.59-3.82,0-6.34-1.6-6.34-6.89v-12.18h-4.16v-2.44h4.16v-6.05l2.94-1.43v7.48h5.92v2.44h-5.92v11.8c0,2.81.76,4.58,3.4,4.58,1.6,0,3.23-.29,4.03-.5Z"/><path class="cls-1" d="m1230.4,718.21v-1.18h2.94v1.13c0,2.86,2.14,4.5,5.96,4.5s5.8-1.01,5.8-3.78c0-2.06-1.01-2.81-3.86-3.32l-4.62-.84c-3.02-.55-5.54-2.02-5.54-5.5,0-3.15,2.35-6.13,8.4-6.13s8.4,3.02,8.4,7.23v.88h-2.98v-.76c0-3.44-2.14-4.91-5.42-4.91-3.95,0-5.33,1.34-5.33,3.36s1.01,2.86,3.91,3.4l4.03.76c4.12.76,6.09,1.93,6.09,5.59,0,4.58-4.12,6.55-8.78,6.55-7.31,0-8.99-3.28-8.99-6.97Z"/><path class="cls-1" d="m1265.01,721.95v2.6c-.76.21-2.14.59-4.03.59-3.82,0-6.34-1.6-6.34-6.89v-12.18h-4.16v-2.44h4.16v-6.05l2.94-1.43v7.48h5.92v2.44h-5.92v11.8c0,2.81.76,4.58,3.4,4.58,1.6,0,3.23-.29,4.03-.5Z"/><path class="cls-1" d="m1269.84,703.63h2.61l.29,3.91c1.01-2.14,3.07-4.45,6.76-4.45,1.26,0,2.18.21,3.02.55v3.15c-1.13-.5-2.1-.76-3.4-.76-3.74,0-6.34,2.81-6.34,5.75v12.85h-2.94v-21Z"/><path class="cls-1" d="m1284.83,714.13c0-6.22,3.32-11.05,10.38-11.05,6.59,0,10.25,4.83,10.25,11.05s-3.7,11.05-10.29,11.05c-7.27,0-10.33-4.83-10.33-11.05Zm17.56,0c0-5.33-2.9-8.49-7.23-8.49-4.75,0-7.27,3.15-7.27,8.49s2.56,8.49,7.27,8.49c4.33,0,7.23-3.15,7.23-8.49Z"/><path class="cls-1" d="m1310.7,691.87h2.94v23.23l12.14-11.47h3.65v.04l-8.4,7.86,8.78,13.06v.04h-3.36l-7.39-11.22-5.42,5.04v6.18h-2.94v-32.77Z"/><path class="cls-1" d="m1351.07,715.14h-15.96c.17,4.79,2.48,7.48,6.93,7.48,3.82,0,5.67-1.43,5.96-4.83h2.98c-.29,4.24-3.28,7.39-9.03,7.39-7.06,0-9.83-4.66-9.83-10.88s3.23-11.22,10-11.22,8.95,3.99,8.95,10.21v1.85Zm-3.11-2.98c0-4.45-1.72-6.55-5.92-6.55s-6.55,2.65-6.89,6.97h12.81v-.42Z"/><path class="cls-1" d="m1366.6,691.87h2.98v6.51h-2.98v-6.51Zm0,11.76h2.94v21h-2.94v-21Z"/><path class="cls-1" d="m1376.94,703.63h2.6l.29,3.49c1.01-2.14,3.28-4.03,7.35-4.03,4.75,0,7.77,2.52,7.77,7.94v13.61h-2.94v-13.27c0-4.33-2.14-5.71-5.5-5.71-3.82,0-6.64,2.69-6.64,5.63v13.36h-2.94v-21Z"/><path class="cls-1" d="m1413.64,702.33h-3.36v-5.08c0-3.95.88-5.29,3.4-5.97l.67,1.85c-1.77.67-2.06,1.09-2.06,3.78v.34h1.34v5.08Zm5.92,0h-3.36v-5.08c0-3.95.88-5.29,3.4-5.97l.67,1.85c-1.76.67-2.06,1.09-2.06,3.78v.34h1.34v5.08Z"/><path class="cls-1" d="m1425.95,691.87h2.94v32.77h-2.94v-32.77Z"/><path class="cls-1" d="m1434.35,701.07c1.77-.67,2.06-1.09,2.06-3.78v-.34h-1.34v-5.08h3.36v5.08c0,3.95-.88,5.29-3.4,5.97l-.67-1.85Zm5.92,0c1.76-.67,2.06-1.09,2.06-3.78v-.34h-1.34v-5.08h3.36v5.08c0,3.95-.88,5.29-3.4,5.97l-.67-1.85Z"/><path class="cls-2" d="m1273.22,430.76c-.72,9.4-1.08,14.93-1.08,23.69,0,26.66,11.31,45.65,37.57,45.65,12.52,0,23.03-6.06,25.85-10.91,1.22-2.02,1.62-3.23,1.62-5.25,0-3.64-2.83-6.87-6.87-6.87-2.42,0-3.63.81-5.25,2.02-1.62,1.21-6.47,4.85-14.14,4.85-15.76,0-20.6-14.14-20.6-29.89,0-8.08.4-13.33,1.21-23.03l.57-6.71s-8.37.73-18.89,6.45Z"/><line class="cls-4" x1="524.09" y1="2925.31" x2="524.09" y2="2809.74"/><path class="cls-1" d="m420.67,2977.57v-2.02h3.02v2.18c0,3.74,2.6,6.05,7.94,6.05s8.44-1.97,8.44-6.22c0-3.32-1.39-5.17-4.92-6.09l-6.64-1.72c-4.33-1.13-7.18-2.98-7.18-8.15s3.78-8.91,10.92-8.91,10.59,3.45,10.59,9.07v2.94h-3.02v-2.81c0-4.62-3.07-6.51-7.56-6.51-5.12,0-7.81,2.14-7.81,6.01,0,3.61,1.76,4.7,5.54,5.71l5.75,1.55c5.12,1.39,7.44,3.74,7.44,8.65,0,6.09-4.33,9.24-11.47,9.24-9.12,0-11.05-4.71-11.05-8.99Z"/><path class="cls-1" d="m450.37,2965.01h2.39l.34,3.86h.08c1.13-2.48,4.03-4.41,7.86-4.41,6.3,0,9.66,3.99,9.66,11.01s-4.28,11.09-9.87,11.09c-3.78,0-6.39-1.6-7.44-3.7h-.08v11.55h-2.94v-29.41Zm17.18,10.63c0-7.18-3.4-8.61-6.93-8.61-4.24,0-7.56,2.73-7.56,8.44,0,6.01,3.44,8.57,7.43,8.57,3.03,0,7.06-1.47,7.06-8.4Z"/><path class="cls-1" d="m476.15,2978.62v-13.61h2.94v13.27c0,4.33,2.14,5.71,5.42,5.71,3.74,0,6.55-2.69,6.55-5.63v-13.36h2.94v21h-2.6l-.25-3.36h-.08c-.97,2.02-3.23,3.91-7.23,3.91-4.66,0-7.69-2.52-7.69-7.94Z"/><path class="cls-1" d="m501.35,2965.01h2.6l.29,3.91c1.01-2.14,3.07-4.45,6.76-4.45,1.26,0,2.18.21,3.02.55v3.15c-1.13-.5-2.1-.76-3.4-.76-3.74,0-6.34,2.81-6.34,5.75v12.85h-2.94v-21Z"/><path class="cls-1" d="m528.32,2953.25h2.98v6.51h-2.98v-6.51Zm0,11.76h2.94v21h-2.94v-21Z"/><path class="cls-1" d="m538.65,2965.01h2.6l.29,3.49c1.01-2.14,3.28-4.03,7.35-4.03,4.75,0,7.77,2.52,7.77,7.94v13.61h-2.94v-13.27c0-4.33-2.14-5.71-5.5-5.71-3.82,0-6.64,2.69-6.64,5.63v13.36h-2.94v-21Z"/><path class="cls-1" d="m575.36,2963.71h-3.36v-5.08c0-3.95.88-5.29,3.4-5.97l.67,1.85c-1.76.67-2.06,1.09-2.06,3.78v.34h1.34v5.08Zm5.92,0h-3.36v-5.08c0-3.95.88-5.29,3.4-5.97l.67,1.85c-1.76.67-2.06,1.09-2.06,3.78v.34h1.34v5.08Z"/><path class="cls-1" d="m586.4,2969.8c0-11.85,6.51-17.1,14.49-17.1,7.56,0,12.64,3.78,12.64,11.47v.5h-2.86v-.63c0-5.33-3.49-8.7-9.7-8.7-6.72,0-11.47,4.58-11.47,14.28s4.75,14.28,11.76,14.28c5.63,0,9.45-2.52,9.45-8.78v-2.73h-9.83v-2.6h12.64v16.21h-2.1l-.67-3.74c-1.6,2.48-5.17,4.29-9.75,4.29-8.32,0-14.62-4.87-14.62-16.76Z"/><path class="cls-1" d="m618.36,2962.45c1.76-.67,2.06-1.09,2.06-3.78v-.34h-1.34v-5.08h3.36v5.08c0,3.95-.88,5.29-3.4,5.97l-.67-1.85Zm5.92,0c1.76-.67,2.06-1.09,2.06-3.78v-.34h-1.34v-5.08h3.36v5.08c0,3.95-.88,5.29-3.4,5.97l-.67-1.85Z"/><path class="cls-2" d="m545.49,2688.6l-5.06,62.76c-.4,5.25-4.04,8.49-9.29,8.49s-8.89-3.64-8.89-8.89c0,0,0-2.02.4-6.87l2.83-32.32,20.01-23.18Z"/></g></svg>