<?xml version="1.0" encoding="UTF-8"?><svg xmlns="http://www.w3.org/2000/svg" xmlns:xlink="http://www.w3.org/1999/xlink" viewBox="0 0 1920 4519.48"><defs><style>.cls-1,.cls-2,.cls-3{fill:none;}.cls-4{clip-path:url(#clippath);}.cls-5{fill:#fff;}.cls-6{fill:#937fbb;}.cls-7{fill:#171c32;}.cls-8{fill:#947fbb;}.cls-2{stroke:#a797c9;stroke-dasharray:0 0 1.74 17.45;stroke-linecap:round;stroke-width:7px;}.cls-2,.cls-3{stroke-miterlimit:10;}.cls-3{stroke:#57678b;stroke-width:3.5px;}</style><clipPath id="clippath"><rect class="cls-1" x="1094.09" y="1204.43" width="134.85" height="134.85" rx="67.43" ry="67.43"/></clipPath></defs><g id="Background"><rect class="cls-7" x=".59" y="0" width="1918.81" height="4519.48"/></g><g id="guides"><line class="cls-3" x1="-.73" y1="202.72" x2="1918.72" y2="202.72"/><line class="cls-3" x1="-.73" y1="372.9" x2="1918.72" y2="372.9"/><line class="cls-3" x1="1918.72" y1="557.78" x2="-.73" y2="557.78"/><line class="cls-3" x1="-.73" y1="727.34" x2="1918.72" y2="727.34"/><line class="cls-3" x1="-.73" y1="1077.34" x2="1918.72" y2="1077.34"/><line class="cls-3" x1="-.73" y1="1247.52" x2="1918.72" y2="1247.52"/><line class="cls-3" x1="1918.72" y1="1432.4" x2="-.73" y2="1432.4"/><line class="cls-3" x1="-.73" y1="1601.96" x2="1918.72" y2="1601.96"/><line class="cls-3" x1="-.73" y1="1951.96" x2="1918.72" y2="1951.96"/><line class="cls-3" x1="-.73" y1="2122.15" x2="1918.72" y2="2122.15"/><line class="cls-3" x1="1918.72" y1="2307.03" x2="-.73" y2="2307.03"/><line class="cls-3" x1="-.73" y1="2476.58" x2="1918.72" y2="2476.58"/><line class="cls-3" x1="-.73" y1="2826.58" x2="1918.72" y2="2826.58"/><line class="cls-3" x1="-.73" y1="2996.77" x2="1918.72" y2="2996.77"/><line class="cls-3" x1="1918.72" y1="3181.65" x2="-.73" y2="3181.65"/><line class="cls-3" x1="-.73" y1="3351.21" x2="1918.72" y2="3351.21"/><line class="cls-3" x1="-.73" y1="3699.42" x2="1918.72" y2="3699.42"/><line class="cls-3" x1="-.73" y1="3869.61" x2="1918.72" y2="3869.61"/><line class="cls-3" x1="1918.72" y1="4054.48" x2="-.73" y2="4054.48"/><line class="cls-3" x1="-.73" y1="4224.04" x2="1918.72" y2="4224.04"/></g><g id="info"><path class="cls-5" d="m925.84,1707.12h2.94v30.12h15.71v2.65h-18.65v-32.77Z"/><path class="cls-5" d="m947.64,1729.39c0-6.22,3.32-11.05,10.38-11.05,6.59,0,10.25,4.83,10.25,11.05s-3.7,11.05-10.29,11.05c-7.27,0-10.33-4.83-10.33-11.05Zm17.56,0c0-5.33-2.9-8.49-7.22-8.49-4.75,0-7.27,3.15-7.27,8.49s2.56,8.49,7.27,8.49c4.33,0,7.22-3.15,7.22-8.49Z"/><path class="cls-5" d="m972.46,1729.39c0-6.22,3.32-11.05,10.38-11.05,6.59,0,10.25,4.83,10.25,11.05s-3.7,11.05-10.29,11.05c-7.27,0-10.33-4.83-10.33-11.05Zm17.56,0c0-5.33-2.9-8.49-7.22-8.49-4.75,0-7.27,3.15-7.27,8.49s2.56,8.49,7.27,8.49c4.33,0,7.22-3.15,7.22-8.49Z"/><path class="cls-5" d="m998.96,1718.88h2.39l.34,3.87h.08c1.13-2.48,4.03-4.41,7.86-4.41,6.3,0,9.66,3.99,9.66,11.01s-4.29,11.09-9.87,11.09c-3.78,0-6.38-1.6-7.43-3.7h-.08v11.55h-2.94v-29.41Zm17.18,10.63c0-7.18-3.4-8.61-6.93-8.61-4.24,0-7.56,2.73-7.56,8.44,0,6.01,3.45,8.57,7.44,8.57,3.02,0,7.06-1.47,7.06-8.4Z"/><path class="cls-5" d="m1024.54,1707.12h2.94v32.77h-2.94v-32.77Z"/><path class="cls-5" d="m1052.09,1730.39h-15.96c.17,4.79,2.48,7.48,6.93,7.48,3.82,0,5.67-1.43,5.97-4.83h2.98c-.29,4.24-3.28,7.39-9.03,7.39-7.06,0-9.83-4.66-9.83-10.88s3.23-11.22,10-11.22,8.95,3.99,8.95,10.21v1.85Zm-3.11-2.98c0-4.45-1.72-6.55-5.92-6.55s-6.55,2.65-6.89,6.97h12.81v-.42Z"/><path class="cls-5" d="m1056.08,1733.46v-1.18h2.94v1.13c0,2.86,2.14,4.49,5.96,4.49s5.8-1.01,5.8-3.78c0-2.06-1.01-2.81-3.86-3.32l-4.62-.84c-3.02-.55-5.54-2.02-5.54-5.5,0-3.15,2.35-6.13,8.4-6.13s8.4,3.02,8.4,7.23v.88h-2.98v-.76c0-3.44-2.14-4.91-5.42-4.91-3.95,0-5.33,1.34-5.33,3.36s1.01,2.86,3.91,3.4l4.03.76c4.12.76,6.09,1.93,6.09,5.59,0,4.58-4.12,6.55-8.78,6.55-7.31,0-8.99-3.28-8.99-6.97Z"/><path class="cls-5" d="m1077.84,1733.46v-1.18h2.94v1.13c0,2.86,2.14,4.49,5.96,4.49s5.8-1.01,5.8-3.78c0-2.06-1.01-2.81-3.86-3.32l-4.62-.84c-3.02-.55-5.54-2.02-5.54-5.5,0-3.15,2.35-6.13,8.4-6.13s8.4,3.02,8.4,7.23v.88h-2.98v-.76c0-3.44-2.14-4.91-5.42-4.91-3.95,0-5.33,1.34-5.33,3.36s1.01,2.86,3.91,3.4l4.03.76c4.12.76,6.09,1.93,6.09,5.59,0,4.58-4.12,6.55-8.78,6.55-7.31,0-8.99-3.28-8.99-6.97Z"/><path class="cls-5" d="m1109.46,1729.43c0-7.1,4.28-11.09,10.04-11.09,3.7,0,6.22,1.6,7.31,3.74h.04v-14.96h2.94v32.77h-1.97l-.67-3.61h-.08c-1.18,2.31-3.95,4.16-7.77,4.16-6.3,0-9.83-3.99-9.83-11.01Zm17.64-.5c0-5.5-3.36-8.07-7.35-8.07-3.11,0-7.14,1.47-7.14,8.4s3.61,8.61,7.14,8.61c4.24,0,7.35-2.73,7.35-8.95Z"/><path class="cls-5" d="m1154.41,1730.39h-15.96c.17,4.79,2.48,7.48,6.93,7.48,3.82,0,5.67-1.43,5.97-4.83h2.98c-.29,4.24-3.28,7.39-9.03,7.39-7.06,0-9.83-4.66-9.83-10.88s3.23-11.22,10-11.22,8.95,3.99,8.95,10.21v1.85Zm-3.11-2.98c0-4.45-1.72-6.55-5.92-6.55s-6.55,2.65-6.89,6.97h12.81v-.42Z"/><path class="cls-5" d="m1158.39,1733.46v-1.18h2.94v1.13c0,2.86,2.14,4.49,5.96,4.49s5.8-1.01,5.8-3.78c0-2.06-1.01-2.81-3.86-3.32l-4.62-.84c-3.02-.55-5.54-2.02-5.54-5.5,0-3.15,2.35-6.13,8.4-6.13s8.4,3.02,8.4,7.23v.88h-2.98v-.76c0-3.44-2.14-4.91-5.42-4.91-3.95,0-5.33,1.34-5.33,3.36s1.01,2.86,3.91,3.4l4.03.76c4.12.76,6.09,1.93,6.09,5.59,0,4.58-4.12,6.55-8.78,6.55-7.31,0-8.99-3.28-8.99-6.97Z"/><path class="cls-5" d="m1180.36,1729.55c0-6.38,3.23-11.22,10-11.22s8.95,3.91,8.95,8.95v.42h-3.11v-.63c0-3.82-1.64-6.09-5.84-6.09-4.75,0-7.02,3.11-7.02,8.4,0,5.63,2.39,8.49,6.93,8.49,3.82,0,5.84-1.85,5.92-5.67h3.02c-.08,4.66-3.15,8.23-9.03,8.23-7.22,0-9.83-4.75-9.83-10.88Z"/><path class="cls-5" d="m1222.45,1730.39h-15.96c.17,4.79,2.48,7.48,6.93,7.48,3.82,0,5.67-1.43,5.97-4.83h2.98c-.29,4.24-3.28,7.39-9.03,7.39-7.06,0-9.83-4.66-9.83-10.88s3.23-11.22,10-11.22,8.95,3.99,8.95,10.21v1.85Zm-3.11-2.98c0-4.45-1.72-6.55-5.92-6.55s-6.55,2.65-6.89,6.97h12.81v-.42Z"/><path class="cls-5" d="m1228.32,1718.88h2.6l.29,3.49c1.01-2.14,3.28-4.03,7.35-4.03,4.75,0,7.77,2.52,7.77,7.94v13.61h-2.94v-13.27c0-4.33-2.14-5.71-5.5-5.71-3.82,0-6.64,2.69-6.64,5.63v13.36h-2.94v-21Z"/><path class="cls-5" d="m1252.01,1729.43c0-7.1,4.28-11.09,10.04-11.09,3.7,0,6.22,1.6,7.31,3.74h.04v-14.96h2.94v32.77h-1.97l-.67-3.61h-.08c-1.18,2.31-3.95,4.16-7.77,4.16-6.3,0-9.83-3.99-9.83-11.01Zm17.64-.5c0-5.5-3.36-8.07-7.35-8.07-3.11,0-7.14,1.47-7.14,8.4s3.61,8.61,7.14,8.61c4.24,0,7.35-2.73,7.35-8.95Z"/><path class="cls-5" d="m1296.95,1730.39h-15.96c.17,4.79,2.48,7.48,6.93,7.48,3.82,0,5.67-1.43,5.97-4.83h2.98c-.29,4.24-3.28,7.39-9.03,7.39-7.06,0-9.83-4.66-9.83-10.88s3.23-11.22,10-11.22,8.95,3.99,8.95,10.21v1.85Zm-3.11-2.98c0-4.45-1.72-6.55-5.92-6.55s-6.55,2.65-6.89,6.97h12.81v-.42Z"/><path class="cls-5" d="m1302.83,1718.88h2.6l.29,3.91c1.01-2.14,3.07-4.45,6.76-4.45,1.26,0,2.18.21,3.02.55v3.15c-1.13-.5-2.1-.76-3.4-.76-3.74,0-6.34,2.81-6.34,5.75v12.85h-2.94v-21Z"/><path class="cls-5" d="m1318.03,1733.46v-1.18h2.94v1.13c0,2.86,2.14,4.49,5.96,4.49s5.8-1.01,5.8-3.78c0-2.06-1.01-2.81-3.86-3.32l-4.62-.84c-3.02-.55-5.54-2.02-5.54-5.5,0-3.15,2.35-6.13,8.4-6.13s8.4,3.02,8.4,7.23v.88h-2.98v-.76c0-3.44-2.14-4.91-5.42-4.91-3.95,0-5.33,1.34-5.33,3.36s1.01,2.86,3.91,3.4l4.03.76c4.12.76,6.09,1.93,6.09,5.59,0,4.58-4.12,6.55-8.78,6.55-7.31,0-8.99-3.28-8.99-6.97Z"/><line class="cls-2" x1="984.4" y1="1626.72" x2="984.4" y2="1700.97"/><line class="cls-2" x1="472.38" y1="567.78" x2="472.38" y2="866.31"/><line class="cls-2" x1="657.8" y1="999.04" x2="657.8" y2="1070.87"/><line class="cls-2" x1="1349.15" y1="991.2" x2="1209.15" y2="1214.14"/><path class="cls-5" d="m650.75,1805.13h2.94v30.12h15.71v2.65h-18.65v-32.77Z"/><path class="cls-5" d="m672.54,1827.39c0-6.22,3.32-11.05,10.38-11.05,6.59,0,10.25,4.83,10.25,11.05s-3.7,11.05-10.29,11.05c-7.27,0-10.33-4.83-10.33-11.05Zm17.56,0c0-5.33-2.9-8.49-7.22-8.49-4.75,0-7.27,3.15-7.27,8.49s2.56,8.49,7.27,8.49c4.33,0,7.22-3.15,7.22-8.49Z"/><path class="cls-5" d="m697.37,1827.39c0-6.22,3.32-11.05,10.38-11.05,6.59,0,10.25,4.83,10.25,11.05s-3.7,11.05-10.29,11.05c-7.27,0-10.33-4.83-10.33-11.05Zm17.56,0c0-5.33-2.9-8.49-7.22-8.49-4.75,0-7.27,3.15-7.27,8.49s2.56,8.49,7.27,8.49c4.33,0,7.22-3.15,7.22-8.49Z"/><path class="cls-5" d="m723.87,1816.89h2.39l.34,3.87h.08c1.13-2.48,4.03-4.41,7.86-4.41,6.3,0,9.66,3.99,9.66,11.01s-4.29,11.09-9.87,11.09c-3.78,0-6.38-1.6-7.43-3.7h-.08v11.55h-2.94v-29.41Zm17.18,10.63c0-7.18-3.4-8.61-6.93-8.61-4.24,0-7.56,2.73-7.56,8.44,0,6.01,3.45,8.57,7.44,8.57,3.02,0,7.06-1.47,7.06-8.4Z"/><path class="cls-5" d="m749.45,1805.13h2.94v32.77h-2.94v-32.77Z"/><path class="cls-5" d="m777,1828.4h-15.96c.17,4.79,2.48,7.48,6.93,7.48,3.82,0,5.67-1.43,5.97-4.83h2.98c-.29,4.24-3.28,7.39-9.03,7.39-7.06,0-9.83-4.66-9.83-10.88s3.23-11.22,10-11.22,8.95,3.99,8.95,10.21v1.85Zm-3.11-2.98c0-4.45-1.72-6.55-5.92-6.55s-6.55,2.65-6.89,6.97h12.81v-.42Z"/><path class="cls-5" d="m780.99,1831.47v-1.18h2.94v1.13c0,2.86,2.14,4.5,5.96,4.5s5.8-1.01,5.8-3.78c0-2.06-1.01-2.81-3.86-3.32l-4.62-.84c-3.02-.55-5.54-2.02-5.54-5.5,0-3.15,2.35-6.13,8.4-6.13s8.4,3.02,8.4,7.23v.88h-2.98v-.76c0-3.44-2.14-4.92-5.42-4.92-3.95,0-5.33,1.34-5.33,3.36s1.01,2.86,3.91,3.4l4.03.76c4.12.76,6.09,1.93,6.09,5.59,0,4.58-4.12,6.55-8.78,6.55-7.31,0-8.99-3.28-8.99-6.97Z"/><path class="cls-5" d="m802.74,1831.47v-1.18h2.94v1.13c0,2.86,2.14,4.5,5.96,4.5s5.8-1.01,5.8-3.78c0-2.06-1.01-2.81-3.86-3.32l-4.62-.84c-3.02-.55-5.54-2.02-5.54-5.5,0-3.15,2.35-6.13,8.4-6.13s8.4,3.02,8.4,7.23v.88h-2.98v-.76c0-3.44-2.14-4.92-5.42-4.92-3.95,0-5.33,1.34-5.33,3.36s1.01,2.86,3.91,3.4l4.03.76c4.12.76,6.09,1.93,6.09,5.59,0,4.58-4.12,6.55-8.78,6.55-7.31,0-8.99-3.28-8.99-6.97Z"/><path class="cls-5" d="m834.79,1832.1c0-3.95,2.23-6.09,7.86-6.09h6.34v-1.72c0-2.98-1.26-5.42-5.46-5.42-3.95,0-5.33,1.51-5.33,4.12v.88h-2.98v-.84c0-5,4.2-6.68,8.32-6.68,5.8,0,8.4,2.86,8.4,8.44v13.11h-2.06l-.55-2.98h-.08c-1.26,1.89-3.7,3.53-7.35,3.53-4.92,0-7.1-2.31-7.1-6.34Zm14.2-1.85v-1.76h-7.01c-2.65,0-4.03.92-4.03,3.61,0,2.35,1.26,3.87,4.5,3.87,4.16,0,6.55-2.14,6.55-5.71Z"/><path class="cls-5" d="m857.39,1831.47v-1.18h2.94v1.13c0,2.86,2.14,4.5,5.96,4.5s5.8-1.01,5.8-3.78c0-2.06-1.01-2.81-3.86-3.32l-4.62-.84c-3.02-.55-5.54-2.02-5.54-5.5,0-3.15,2.35-6.13,8.4-6.13s8.4,3.02,8.4,7.23v.88h-2.98v-.76c0-3.44-2.14-4.92-5.42-4.92-3.95,0-5.33,1.34-5.33,3.36s1.01,2.86,3.91,3.4l4.03.76c4.12.76,6.09,1.93,6.09,5.59,0,4.58-4.12,6.55-8.78,6.55-7.31,0-8.99-3.28-8.99-6.97Z"/><path class="cls-5" d="m879.35,1827.56c0-6.38,3.23-11.22,10-11.22s8.95,3.91,8.95,8.95v.42h-3.11v-.63c0-3.82-1.64-6.09-5.84-6.09-4.75,0-7.02,3.11-7.02,8.4,0,5.63,2.39,8.49,6.93,8.49,3.82,0,5.84-1.85,5.92-5.67h3.02c-.08,4.66-3.15,8.23-9.03,8.23-7.22,0-9.83-4.75-9.83-10.88Z"/><path class="cls-5" d="m921.44,1828.4h-15.96c.17,4.79,2.48,7.48,6.93,7.48,3.82,0,5.67-1.43,5.97-4.83h2.98c-.29,4.24-3.28,7.39-9.03,7.39-7.06,0-9.83-4.66-9.83-10.88s3.23-11.22,10-11.22,8.95,3.99,8.95,10.21v1.85Zm-3.11-2.98c0-4.45-1.72-6.55-5.92-6.55s-6.55,2.65-6.89,6.97h12.81v-.42Z"/><path class="cls-5" d="m927.32,1816.89h2.6l.29,3.49c1.01-2.14,3.28-4.03,7.35-4.03,4.75,0,7.77,2.52,7.77,7.94v13.61h-2.94v-13.27c0-4.33-2.14-5.71-5.5-5.71-3.82,0-6.64,2.69-6.64,5.63v13.36h-2.94v-21Z"/><path class="cls-5" d="m951,1827.44c0-7.1,4.28-11.09,10.04-11.09,3.7,0,6.22,1.6,7.31,3.74h.04v-14.96h2.94v32.77h-1.97l-.67-3.61h-.08c-1.18,2.31-3.95,4.16-7.77,4.16-6.3,0-9.83-3.99-9.83-11.01Zm17.64-.5c0-5.5-3.36-8.07-7.35-8.07-3.11,0-7.14,1.47-7.14,8.4s3.61,8.61,7.14,8.61c4.24,0,7.35-2.73,7.35-8.95Z"/><path class="cls-5" d="m995.95,1828.4h-15.96c.17,4.79,2.48,7.48,6.93,7.48,3.82,0,5.67-1.43,5.97-4.83h2.98c-.29,4.24-3.28,7.39-9.03,7.39-7.06,0-9.83-4.66-9.83-10.88s3.23-11.22,10-11.22,8.95,3.99,8.95,10.21v1.85Zm-3.11-2.98c0-4.45-1.72-6.55-5.92-6.55s-6.55,2.65-6.89,6.97h12.81v-.42Z"/><path class="cls-5" d="m1001.82,1816.89h2.6l.29,3.91c1.01-2.14,3.07-4.45,6.76-4.45,1.26,0,2.18.21,3.02.55v3.15c-1.13-.5-2.1-.76-3.4-.76-3.74,0-6.34,2.81-6.34,5.75v12.85h-2.94v-21Z"/><path class="cls-5" d="m1017.03,1831.47v-1.18h2.94v1.13c0,2.86,2.14,4.5,5.96,4.5s5.8-1.01,5.8-3.78c0-2.06-1.01-2.81-3.86-3.32l-4.62-.84c-3.02-.55-5.54-2.02-5.54-5.5,0-3.15,2.35-6.13,8.4-6.13s8.4,3.02,8.4,7.23v.88h-2.98v-.76c0-3.44-2.14-4.92-5.42-4.92-3.95,0-5.33,1.34-5.33,3.36s1.01,2.86,3.91,3.4l4.03.76c4.12.76,6.09,1.93,6.09,5.59,0,4.58-4.12,6.55-8.78,6.55-7.31,0-8.99-3.28-8.99-6.97Z"/><line class="cls-2" x1="806.24" y1="1867.46" x2="806.24" y2="1955.71"/><path class="cls-5" d="m134.43,1821.85c0-12.01,6.76-17.27,14.74-17.27,6.97,0,12.39,3.74,12.39,12.01v.8h-2.86v-.92c0-5.92-3.78-9.24-9.45-9.24-6.72,0-11.76,4.58-11.76,14.33s5.04,14.24,11.72,14.24c5.38,0,9.54-2.86,9.54-9.2v-.59h2.77v.42c0,8.02-5.33,12.01-12.56,12.01-7.98,0-14.53-4.87-14.53-16.59Z"/><path class="cls-5" d="m167.44,1830.5v-13.61h2.94v13.27c0,4.33,2.14,5.71,5.42,5.71,3.74,0,6.55-2.69,6.55-5.63v-13.36h2.94v21h-2.6l-.25-3.36h-.08c-.97,2.02-3.23,3.91-7.23,3.91-4.66,0-7.69-2.52-7.69-7.94Z"/><path class="cls-5" d="m192.64,1816.89h2.6l.29,3.91c1.01-2.14,3.07-4.45,6.76-4.45,1.26,0,2.18.21,3.02.55v3.15c-1.13-.5-2.1-.76-3.4-.76-3.74,0-6.34,2.81-6.34,5.75v12.85h-2.94v-21Z"/><path class="cls-5" d="m207.85,1831.47v-1.18h2.94v1.13c0,2.86,2.14,4.5,5.96,4.5s5.8-1.01,5.8-3.78c0-2.06-1.01-2.81-3.86-3.32l-4.62-.84c-3.02-.55-5.54-2.02-5.54-5.5,0-3.15,2.35-6.13,8.4-6.13s8.4,3.02,8.4,7.22v.88h-2.98v-.76c0-3.44-2.14-4.91-5.42-4.91-3.95,0-5.33,1.34-5.33,3.36s1.01,2.86,3.91,3.4l4.03.76c4.12.76,6.09,1.93,6.09,5.59,0,4.58-4.12,6.55-8.78,6.55-7.31,0-8.99-3.28-8.99-6.97Z"/><path class="cls-5" d="m231.49,1805.13h2.98v6.51h-2.98v-6.51Zm0,11.76h2.94v21h-2.94v-21Z"/><path class="cls-5" d="m238.67,1816.93v-.04h3.36l7.35,17.98h.08l7.1-17.98h3.07v.04l-8.74,20.96h-3.02l-9.2-20.96Z"/><path class="cls-5" d="m280.47,1828.4h-15.96c.17,4.79,2.48,7.48,6.93,7.48,3.82,0,5.67-1.43,5.97-4.83h2.98c-.29,4.24-3.28,7.39-9.03,7.39-7.06,0-9.83-4.66-9.83-10.88s3.23-11.22,10-11.22,8.95,3.99,8.95,10.21v1.85Zm-3.11-2.98c0-4.45-1.72-6.55-5.92-6.55s-6.55,2.65-6.89,6.97h12.81v-.42Z"/><path class="cls-5" d="m294.12,1831.47v-1.18h2.94v1.13c0,2.86,2.14,4.5,5.96,4.5s5.8-1.01,5.8-3.78c0-2.06-1.01-2.81-3.86-3.32l-4.62-.84c-3.02-.55-5.54-2.02-5.54-5.5,0-3.15,2.35-6.13,8.4-6.13s8.4,3.02,8.4,7.22v.88h-2.98v-.76c0-3.44-2.14-4.91-5.42-4.91-3.95,0-5.33,1.34-5.33,3.36s1.01,2.86,3.91,3.4l4.03.76c4.12.76,6.09,1.93,6.09,5.59,0,4.58-4.12,6.55-8.78,6.55-7.31,0-8.99-3.28-8.99-6.97Z"/><path class="cls-5" d="m317.76,1805.13h2.94v15.16c1.05-2.1,3.28-3.95,7.31-3.95,4.75,0,7.77,2.52,7.77,7.94v13.61h-2.94v-13.27c0-4.33-2.14-5.71-5.5-5.71-3.82,0-6.64,2.69-6.64,5.63v13.36h-2.94v-32.77Z"/><path class="cls-5" d="m341.87,1832.1c0-3.95,2.23-6.09,7.86-6.09h6.34v-1.72c0-2.98-1.26-5.42-5.46-5.42-3.95,0-5.33,1.51-5.33,4.12v.88h-2.98v-.84c0-5,4.2-6.68,8.32-6.68,5.8,0,8.4,2.86,8.4,8.44v13.11h-2.06l-.55-2.98h-.08c-1.26,1.89-3.7,3.53-7.35,3.53-4.92,0-7.1-2.31-7.1-6.34Zm14.2-1.85v-1.76h-7.01c-2.65,0-4.03.92-4.03,3.61,0,2.35,1.26,3.86,4.5,3.86,4.16,0,6.55-2.14,6.55-5.71Z"/><path class="cls-5" d="m366.35,1816.89h2.39l.34,3.86h.08c1.13-2.48,4.03-4.41,7.86-4.41,6.3,0,9.66,3.99,9.66,11.01s-4.29,11.09-9.87,11.09c-3.78,0-6.38-1.6-7.43-3.7h-.08v11.55h-2.94v-29.41Zm17.18,10.63c0-7.18-3.4-8.61-6.93-8.61-4.24,0-7.56,2.73-7.56,8.44,0,6.01,3.45,8.57,7.44,8.57,3.02,0,7.06-1.47,7.06-8.4Z"/><path class="cls-5" d="m409.83,1828.4h-15.96c.17,4.79,2.48,7.48,6.93,7.48,3.82,0,5.67-1.43,5.97-4.83h2.98c-.29,4.24-3.28,7.39-9.03,7.39-7.06,0-9.83-4.66-9.83-10.88s3.23-11.22,10-11.22,8.95,3.99,8.95,10.21v1.85Zm-3.11-2.98c0-4.45-1.72-6.55-5.92-6.55s-6.55,2.65-6.89,6.97h12.81v-.42Z"/><path class="cls-5" d="m423.68,1827.39c0-6.22,3.32-11.05,10.38-11.05,6.59,0,10.25,4.83,10.25,11.05s-3.7,11.05-10.29,11.05c-7.27,0-10.33-4.83-10.33-11.05Zm17.56,0c0-5.33-2.9-8.49-7.22-8.49-4.75,0-7.27,3.15-7.27,8.49s2.56,8.49,7.27,8.49c4.33,0,7.22-3.15,7.22-8.49Z"/><path class="cls-5" d="m454.35,1811.85v5.04h5.92v2.44h-5.92v18.57h-2.94v-18.57h-4.16v-2.44h4.16v-5.42c0-5.29,3.15-6.89,6.38-6.89,1.85,0,2.98.29,3.74.55v2.6c-.71-.21-1.89-.46-3.49-.46-2.65,0-3.7,1.76-3.7,4.58Z"/><path class="cls-5" d="m476.23,1815.59h-3.36v-5.08c0-3.95.88-5.29,3.4-5.97l.67,1.85c-1.76.67-2.06,1.09-2.06,3.78v.34h1.34v5.08Zm5.92,0h-3.36v-5.08c0-3.95.88-5.29,3.4-5.97l.67,1.85c-1.76.67-2.06,1.09-2.06,3.78v.34h1.34v5.08Z"/><path class="cls-5" d="m505.38,1807.73v12.77h14.62v2.6h-14.62v12.14h16.55v2.65h-19.49v-14.75h-10.38l-7.18,14.75h-3.07v-.04l16.3-32.72h23.82v2.6h-16.55Zm-2.94,12.81v-12.81h-2.81l-6.26,12.81h9.07Z"/><path class="cls-5" d="m526.12,1814.33c1.76-.67,2.06-1.09,2.06-3.78v-.34h-1.34v-5.08h3.36v5.08c0,3.95-.88,5.29-3.4,5.97l-.67-1.85Zm5.92,0c1.76-.67,2.06-1.09,2.06-3.78v-.34h-1.34v-5.08h3.36v5.08c0,3.95-.88,5.29-3.4,5.97l-.67-1.85Z"/><line class="cls-2" x1="336.93" y1="1867.46" x2="336.93" y2="1948.61"/><polyline class="cls-2" points="291.77 3711.33 291.77 3634.25 1216.47 3634.25 1216.47 3879.39"/><line class="cls-2" x1="1469.2" y1="4241.08" x2="1469.2" y2="4306.67"/><line class="cls-2" x1="228.24" y1="4070.01" x2="228.24" y2="4300.69"/><line class="cls-2" x1="754.12" y1="3581.83" x2="754.12" y2="3634.25"/><path class="cls-5" d="m1122.19,932.3l-.42,11.05h-2.31l-.42-11.05h3.15Zm5.59,0l-.42,11.05h-2.31l-.42-11.05h3.15Z"/><path class="cls-5" d="m1138.03,939.03v5.04h5.92v2.44h-5.92v18.57h-2.94v-18.57h-4.16v-2.44h4.16v-5.42c0-5.29,3.15-6.89,6.38-6.89,1.85,0,2.98.29,3.74.55v2.6c-.71-.21-1.89-.46-3.49-.46-2.65,0-3.7,1.76-3.7,4.58Z"/><path class="cls-5" d="m1152.14,932.3l-.42,11.05h-2.31l-.42-11.05h3.15Zm5.59,0l-.42,11.05h-2.31l-.42-11.05h3.15Z"/><path class="cls-5" d="m1172,954.74c0-6.38,3.23-11.22,10-11.22s8.95,3.91,8.95,8.95v.42h-3.11v-.63c0-3.82-1.64-6.09-5.84-6.09-4.75,0-7.01,3.11-7.01,8.4,0,5.63,2.39,8.49,6.93,8.49,3.82,0,5.84-1.85,5.92-5.67h3.02c-.08,4.66-3.15,8.23-9.03,8.23-7.22,0-9.83-4.75-9.83-10.88Z"/><path class="cls-5" d="m1195.15,954.57c0-6.22,3.32-11.05,10.38-11.05,6.59,0,10.25,4.83,10.25,11.05s-3.7,11.05-10.29,11.05c-7.27,0-10.33-4.83-10.33-11.05Zm17.56,0c0-5.33-2.9-8.49-7.22-8.49-4.75,0-7.27,3.15-7.27,8.49s2.56,8.49,7.27,8.49c4.33,0,7.22-3.15,7.22-8.49Z"/><path class="cls-5" d="m1221.65,944.07h2.6l.29,3.49c1.01-2.14,3.28-4.03,7.35-4.03,4.75,0,7.77,2.52,7.77,7.94v13.61h-2.94v-13.27c0-4.33-2.14-5.71-5.5-5.71-3.82,0-6.64,2.69-6.64,5.63v13.36h-2.94v-21Z"/><path class="cls-5" d="m1247.02,944.07h2.6l.29,3.49c1.01-2.14,3.28-4.03,7.35-4.03,4.75,0,7.77,2.52,7.77,7.94v13.61h-2.94v-13.27c0-4.33-2.14-5.71-5.5-5.71-3.82,0-6.64,2.69-6.64,5.63v13.36h-2.94v-21Z"/><path class="cls-5" d="m1289.65,955.58h-15.96c.17,4.79,2.48,7.48,6.93,7.48,3.82,0,5.67-1.43,5.97-4.83h2.98c-.29,4.24-3.28,7.39-9.03,7.39-7.06,0-9.83-4.66-9.83-10.88s3.23-11.22,10-11.22,8.95,3.99,8.95,10.21v1.85Zm-3.11-2.98c0-4.45-1.72-6.55-5.92-6.55s-6.55,2.65-6.89,6.97h12.81v-.42Z"/><path class="cls-5" d="m1293.85,954.74c0-6.38,3.23-11.22,10-11.22s8.95,3.91,8.95,8.95v.42h-3.11v-.63c0-3.82-1.64-6.09-5.84-6.09-4.75,0-7.01,3.11-7.01,8.4,0,5.63,2.39,8.49,6.93,8.49,3.82,0,5.84-1.85,5.92-5.67h3.02c-.08,4.66-3.15,8.23-9.03,8.23-7.22,0-9.83-4.75-9.83-10.88Z"/><path class="cls-5" d="m1329.63,962.38v2.6c-.76.21-2.14.59-4.03.59-3.82,0-6.34-1.6-6.34-6.89v-12.18h-4.16v-2.44h4.16v-6.05l2.94-1.43v7.48h5.92v2.44h-5.92v11.8c0,2.82.76,4.58,3.4,4.58,1.6,0,3.23-.29,4.03-.5Z"/><path class="cls-5" d="m1332.57,958.64v-1.18h2.94v1.13c0,2.86,2.14,4.49,5.96,4.49s5.8-1.01,5.8-3.78c0-2.06-1.01-2.81-3.86-3.32l-4.62-.84c-3.02-.55-5.54-2.02-5.54-5.5,0-3.15,2.35-6.13,8.4-6.13s8.4,3.02,8.4,7.23v.88h-2.98v-.76c0-3.44-2.14-4.91-5.42-4.91-3.95,0-5.33,1.34-5.33,3.36s1.01,2.86,3.91,3.4l4.03.76c4.12.76,6.09,1.93,6.09,5.59,0,4.58-4.12,6.55-8.78,6.55-7.31,0-8.99-3.28-8.99-6.97Z"/><path class="cls-5" d="m1370.04,939.03v5.04h5.92v2.44h-5.92v18.57h-2.94v-18.57h-4.16v-2.44h4.16v-5.42c0-5.29,3.15-6.89,6.38-6.89,1.85,0,2.98.29,3.74.55v2.6c-.71-.21-1.89-.46-3.49-.46-2.65,0-3.7,1.76-3.7,4.58Z"/><path class="cls-5" d="m1380.37,944.07h2.6l.29,3.91c1.01-2.14,3.07-4.45,6.76-4.45,1.26,0,2.18.21,3.02.55v3.15c-1.13-.5-2.1-.76-3.4-.76-3.74,0-6.34,2.81-6.34,5.75v12.85h-2.94v-21Z"/><path class="cls-5" d="m1395.36,954.57c0-6.22,3.32-11.05,10.38-11.05,6.59,0,10.25,4.83,10.25,11.05s-3.7,11.05-10.29,11.05c-7.27,0-10.33-4.83-10.33-11.05Zm17.56,0c0-5.33-2.9-8.49-7.22-8.49-4.75,0-7.27,3.15-7.27,8.49s2.56,8.49,7.27,8.49c4.33,0,7.22-3.15,7.22-8.49Z"/><path class="cls-5" d="m1452.57,951.46v13.61h-2.94v-13.27c0-4.33-2.14-5.71-4.75-5.71-3.82,0-6.17,2.69-6.17,5.63v13.36h-2.94v-13.27c0-4.33-1.85-5.71-4.83-5.71-3.61,0-6.13,2.69-6.13,5.63v13.36h-2.94v-21h2.6l.29,3.49c1.01-2.02,3.07-4.03,6.93-4.03,2.94,0,5.38,1.39,6.43,4.28,1.22-2.39,3.57-4.28,7.14-4.28,4.29,0,7.31,2.52,7.31,7.94Z"/><path class="cls-5" d="m1469.57,932.3h2.98v6.51h-2.98v-6.51Zm0,11.76h2.94v21h-2.94v-21Z"/><path class="cls-5" d="m1490.87,962.38v2.6c-.76.21-2.14.59-4.03.59-3.82,0-6.34-1.6-6.34-6.89v-12.18h-4.16v-2.44h4.16v-6.05l2.94-1.43v7.48h5.92v2.44h-5.92v11.8c0,2.82.76,4.58,3.4,4.58,1.6,0,3.23-.29,4.03-.5Z"/><path class="cls-5" d="m1493.81,958.64v-1.18h2.94v1.13c0,2.86,2.14,4.49,5.96,4.49s5.8-1.01,5.8-3.78c0-2.06-1.01-2.81-3.86-3.32l-4.62-.84c-3.02-.55-5.54-2.02-5.54-5.5,0-3.15,2.35-6.13,8.4-6.13s8.4,3.02,8.4,7.23v.88h-2.98v-.76c0-3.44-2.14-4.91-5.42-4.91-3.95,0-5.33,1.34-5.33,3.36s1.01,2.86,3.91,3.4l4.03.76c4.12.76,6.09,1.93,6.09,5.59,0,4.58-4.12,6.55-8.78,6.55-7.31,0-8.99-3.28-8.99-6.97Z"/><path class="cls-5" d="m1529.93,961.58h-.08l-.76,3.49h-1.97v-32.77h2.94v15.25h.04c1.26-2.31,4.07-4.03,7.69-4.03,6.3,0,9.66,3.99,9.66,11.01s-4.29,11.09-9.87,11.09c-3.78,0-6.55-1.64-7.65-4.03Zm14.37-6.89c0-7.18-3.4-8.61-6.93-8.61-4.24,0-7.56,2.73-7.56,8.44,0,6.01,3.45,8.57,7.44,8.57,3.02,0,7.06-1.47,7.06-8.4Z"/><path class="cls-5" d="m1551.85,959.27c0-3.95,2.23-6.09,7.86-6.09h6.34v-1.72c0-2.98-1.26-5.42-5.46-5.42-3.95,0-5.33,1.51-5.33,4.12v.88h-2.98v-.84c0-5,4.2-6.68,8.32-6.68,5.8,0,8.4,2.86,8.4,8.44v13.11h-2.06l-.55-2.98h-.08c-1.26,1.89-3.7,3.53-7.35,3.53-4.92,0-7.1-2.31-7.1-6.34Zm14.2-1.85v-1.76h-7.01c-2.65,0-4.03.92-4.03,3.61,0,2.35,1.26,3.86,4.5,3.86,4.16,0,6.55-2.14,6.55-5.71Z"/><path class="cls-5" d="m1576.34,944.07h2.6l.29,3.91c1.01-2.14,3.07-4.45,6.76-4.45,1.26,0,2.18.21,3.02.55v3.15c-1.13-.5-2.1-.76-3.4-.76-3.74,0-6.34,2.81-6.34,5.75v12.85h-2.94v-21Z"/><path class="cls-5" d="m447.38,3530.01h-3.36v-5.08c0-3.95.88-5.29,3.4-5.97l.67,1.85c-1.76.67-2.06,1.09-2.06,3.78v.34h1.34v5.08Zm5.92,0h-3.36v-5.08c0-3.95.88-5.29,3.4-5.97l.67,1.85c-1.76.67-2.06,1.09-2.06,3.78v.34h1.34v5.08Z"/><path class="cls-5" d="m458.85,3543.87v-2.02h3.03v2.18c0,3.74,2.6,6.05,7.94,6.05s8.44-1.97,8.44-6.22c0-3.32-1.39-5.17-4.92-6.09l-6.64-1.72c-4.33-1.13-7.18-2.98-7.18-8.15s3.78-8.91,10.92-8.91,10.59,3.45,10.59,9.07v2.94h-3.02v-2.81c0-4.62-3.07-6.51-7.56-6.51-5.12,0-7.81,2.14-7.81,6.01,0,3.61,1.76,4.7,5.54,5.71l5.76,1.55c5.12,1.39,7.43,3.74,7.43,8.65,0,6.09-4.33,9.24-11.47,9.24-9.12,0-11.05-4.71-11.05-8.99Z"/><path class="cls-5" d="m485.18,3528.75c1.76-.67,2.06-1.09,2.06-3.78v-.34h-1.34v-5.08h3.36v5.08c0,3.95-.88,5.29-3.4,5.97l-.67-1.85Zm5.92,0c1.77-.67,2.06-1.09,2.06-3.78v-.34h-1.34v-5.08h3.36v5.08c0,3.95-.88,5.29-3.4,5.97l-.67-1.85Z"/><path class="cls-5" d="m509.46,3546.52c0-3.95,2.23-6.09,7.86-6.09h6.34v-1.72c0-2.98-1.26-5.42-5.46-5.42-3.95,0-5.33,1.51-5.33,4.12v.88h-2.98v-.84c0-5,4.2-6.68,8.32-6.68,5.8,0,8.4,2.86,8.4,8.44v13.11h-2.06l-.55-2.98h-.08c-1.26,1.89-3.7,3.53-7.35,3.53-4.92,0-7.1-2.31-7.1-6.34Zm14.2-1.85v-1.76h-7.01c-2.65,0-4.03.92-4.03,3.61,0,2.35,1.26,3.86,4.49,3.86,4.16,0,6.55-2.14,6.55-5.71Z"/><path class="cls-5" d="m533.94,3531.31h2.61l.29,3.49c1.01-2.14,3.28-4.03,7.35-4.03,4.75,0,7.77,2.52,7.77,7.94v13.61h-2.94v-13.27c0-4.33-2.14-5.71-5.5-5.71-3.82,0-6.64,2.69-6.64,5.63v13.36h-2.94v-21Z"/><path class="cls-5" d="m557.63,3541.85c0-7.1,4.29-11.09,10.04-11.09,3.7,0,6.22,1.6,7.31,3.74h.04v-14.95h2.94v32.77h-1.97l-.67-3.61h-.08c-1.18,2.31-3.95,4.16-7.77,4.16-6.3,0-9.83-3.99-9.83-11.01Zm17.64-.5c0-5.5-3.36-8.07-7.35-8.07-3.11,0-7.14,1.47-7.14,8.4s3.61,8.61,7.14,8.61c4.24,0,7.35-2.73,7.35-8.95Z"/><path class="cls-5" d="m596.65,3530.01h-3.36v-5.08c0-3.95.88-5.29,3.4-5.97l.67,1.85c-1.76.67-2.06,1.09-2.06,3.78v.34h1.34v5.08Zm5.92,0h-3.36v-5.08c0-3.95.88-5.29,3.4-5.97l.67,1.85c-1.76.67-2.06,1.09-2.06,3.78v.34h1.34v5.08Z"/><path class="cls-5" d="m604.54,3545.89v-1.18h2.94v1.13c0,2.86,2.14,4.5,5.96,4.5s5.8-1.01,5.8-3.78c0-2.06-1.01-2.81-3.86-3.32l-4.62-.84c-3.03-.55-5.54-2.02-5.54-5.5,0-3.15,2.35-6.13,8.4-6.13s8.4,3.02,8.4,7.22v.88h-2.98v-.76c0-3.44-2.14-4.91-5.42-4.91-3.95,0-5.33,1.34-5.33,3.36s1.01,2.86,3.91,3.4l4.03.76c4.12.76,6.09,1.93,6.09,5.59,0,4.58-4.12,6.55-8.78,6.55-7.31,0-8.99-3.28-8.99-6.97Z"/><path class="cls-5" d="m624.62,3528.75c1.76-.67,2.06-1.09,2.06-3.78v-.34h-1.34v-5.08h3.36v5.08c0,3.95-.88,5.29-3.4,5.97l-.67-1.85Zm5.92,0c1.77-.67,2.06-1.09,2.06-3.78v-.34h-1.34v-5.08h3.36v5.08c0,3.95-.88,5.29-3.4,5.97l-.67-1.85Z"/><path class="cls-5" d="m650.15,3519.55h2.94v15.16c1.05-2.1,3.28-3.95,7.31-3.95,4.75,0,7.77,2.52,7.77,7.94v13.61h-2.94v-13.27c0-4.33-2.14-5.71-5.5-5.71-3.82,0-6.64,2.69-6.64,5.63v13.36h-2.94v-32.77Z"/><path class="cls-5" d="m674.26,3546.52c0-3.95,2.23-6.09,7.86-6.09h6.34v-1.72c0-2.98-1.26-5.42-5.46-5.42-3.95,0-5.33,1.51-5.33,4.12v.88h-2.98v-.84c0-5,4.2-6.68,8.32-6.68,5.8,0,8.4,2.86,8.4,8.44v13.11h-2.06l-.55-2.98h-.08c-1.26,1.89-3.7,3.53-7.35,3.53-4.92,0-7.1-2.31-7.1-6.34Zm14.2-1.85v-1.76h-7.01c-2.65,0-4.03.92-4.03,3.61,0,2.35,1.26,3.86,4.49,3.86,4.16,0,6.55-2.14,6.55-5.71Z"/><path class="cls-5" d="m694.34,3531.35v-.04h3.36l7.35,17.98h.08l7.1-17.98h3.07v.04l-8.74,20.96h-3.02l-9.2-20.96Z"/><path class="cls-5" d="m736.13,3542.82h-15.96c.17,4.79,2.48,7.48,6.93,7.48,3.82,0,5.67-1.43,5.96-4.83h2.98c-.29,4.24-3.28,7.39-9.03,7.39-7.06,0-9.83-4.66-9.83-10.88s3.23-11.22,10-11.22,8.95,3.99,8.95,10.21v1.85Zm-3.11-2.98c0-4.45-1.72-6.55-5.92-6.55s-6.55,2.65-6.89,6.97h12.81v-.42Z"/><path class="cls-5" d="m749.99,3541.85c0-7.1,4.28-11.09,10.04-11.09,3.7,0,6.22,1.6,7.31,3.74h.04v-14.95h2.94v32.77h-1.97l-.67-3.61h-.08c-1.18,2.31-3.95,4.16-7.77,4.16-6.3,0-9.83-3.99-9.83-11.01Zm17.64-.5c0-5.5-3.36-8.07-7.35-8.07-3.11,0-7.14,1.47-7.14,8.4s3.61,8.61,7.14,8.61c4.24,0,7.35-2.73,7.35-8.95Z"/><path class="cls-5" d="m777.66,3519.55h2.98v6.51h-2.98v-6.51Zm0,11.76h2.94v21h-2.94v-21Z"/><path class="cls-5" d="m785.05,3531.31h4.16v-5.42c0-5.29,3.15-6.89,6.38-6.89,1.85,0,2.98.29,3.74.55v2.6c-.71-.21-1.89-.46-3.49-.46-2.65,0-3.7,1.76-3.7,4.58v5.04h11.13v-5.42c0-5.29,3.15-6.89,6.38-6.89,1.85,0,2.98.29,3.74.55v2.6c-.71-.21-1.89-.46-3.49-.46-2.65,0-3.7,1.76-3.7,4.58v5.04h5.92v2.44h-5.92v18.57h-2.94v-18.57h-11.13v18.57h-2.94v-18.57h-4.16v-2.44Z"/><path class="cls-5" d="m832.98,3542.82h-15.96c.17,4.79,2.48,7.48,6.93,7.48,3.82,0,5.67-1.43,5.97-4.83h2.98c-.29,4.24-3.28,7.39-9.03,7.39-7.06,0-9.83-4.66-9.83-10.88s3.23-11.22,10-11.22,8.95,3.99,8.95,10.21v1.85Zm-3.11-2.98c0-4.45-1.72-6.55-5.92-6.55s-6.55,2.65-6.89,6.97h12.81v-.42Z"/><path class="cls-5" d="m838.86,3531.31h2.61l.29,3.91c1.01-2.14,3.07-4.45,6.76-4.45,1.26,0,2.19.21,3.03.55v3.15c-1.13-.5-2.1-.76-3.4-.76-3.74,0-6.34,2.81-6.34,5.75v12.85h-2.94v-21Z"/><path class="cls-5" d="m872.8,3542.82h-15.96c.17,4.79,2.48,7.48,6.93,7.48,3.82,0,5.67-1.43,5.96-4.83h2.98c-.29,4.24-3.28,7.39-9.03,7.39-7.06,0-9.83-4.66-9.83-10.88s3.23-11.22,10-11.22,8.95,3.99,8.95,10.21v1.85Zm-3.11-2.98c0-4.45-1.72-6.55-5.92-6.55s-6.55,2.65-6.89,6.97h12.81v-.42Z"/><path class="cls-5" d="m878.67,3531.31h2.6l.29,3.49c1.01-2.14,3.28-4.03,7.35-4.03,4.75,0,7.77,2.52,7.77,7.94v13.61h-2.94v-13.27c0-4.33-2.14-5.71-5.5-5.71-3.82,0-6.64,2.69-6.64,5.63v13.36h-2.94v-21Z"/><path class="cls-5" d="m915,3549.63v2.6c-.76.21-2.14.59-4.03.59-3.82,0-6.34-1.6-6.34-6.89v-12.18h-4.16v-2.44h4.16v-6.05l2.94-1.43v7.48h5.92v2.44h-5.92v11.8c0,2.81.76,4.58,3.4,4.58,1.6,0,3.23-.29,4.03-.5Z"/><path class="cls-5" d="m927.6,3545.89v-1.18h2.94v1.13c0,2.86,2.14,4.5,5.96,4.5s5.8-1.01,5.8-3.78c0-2.06-1.01-2.81-3.87-3.32l-4.62-.84c-3.02-.55-5.54-2.02-5.54-5.5,0-3.15,2.35-6.13,8.4-6.13s8.4,3.02,8.4,7.22v.88h-2.98v-.76c0-3.44-2.14-4.91-5.42-4.91-3.95,0-5.34,1.34-5.34,3.36s1.01,2.86,3.91,3.4l4.03.76c4.12.76,6.09,1.93,6.09,5.59,0,4.58-4.12,6.55-8.78,6.55-7.31,0-8.99-3.28-8.99-6.97Z"/><path class="cls-5" d="m951.25,3519.55h2.94v15.16c1.05-2.1,3.28-3.95,7.31-3.95,4.75,0,7.77,2.52,7.77,7.94v13.61h-2.94v-13.27c0-4.33-2.14-5.71-5.5-5.71-3.82,0-6.64,2.69-6.64,5.63v13.36h-2.94v-32.77Z"/><path class="cls-5" d="m975.36,3546.52c0-3.95,2.23-6.09,7.86-6.09h6.34v-1.72c0-2.98-1.26-5.42-5.46-5.42-3.95,0-5.33,1.51-5.33,4.12v.88h-2.98v-.84c0-5,4.2-6.68,8.32-6.68,5.8,0,8.4,2.86,8.4,8.44v13.11h-2.06l-.55-2.98h-.08c-1.26,1.89-3.7,3.53-7.35,3.53-4.92,0-7.1-2.31-7.1-6.34Zm14.2-1.85v-1.76h-7.01c-2.65,0-4.03.92-4.03,3.61,0,2.35,1.26,3.86,4.49,3.86,4.16,0,6.55-2.14,6.55-5.71Z"/><path class="cls-5" d="m999.84,3531.31h2.39l.34,3.86h.08c1.13-2.48,4.03-4.41,7.86-4.41,6.3,0,9.66,3.99,9.66,11.01s-4.29,11.09-9.87,11.09c-3.78,0-6.38-1.6-7.43-3.7h-.09v11.55h-2.94v-29.41Zm17.18,10.63c0-7.18-3.4-8.61-6.93-8.61-4.24,0-7.56,2.73-7.56,8.44,0,6.01,3.45,8.57,7.44,8.57,3.03,0,7.06-1.47,7.06-8.4Z"/><path class="cls-5" d="m1043.31,3542.82h-15.96c.17,4.79,2.48,7.48,6.93,7.48,3.82,0,5.67-1.43,5.97-4.83h2.98c-.29,4.24-3.28,7.39-9.03,7.39-7.06,0-9.83-4.66-9.83-10.88s3.23-11.22,10-11.22,8.95,3.99,8.95,10.21v1.85Zm-3.11-2.98c0-4.45-1.72-6.55-5.92-6.55s-6.55,2.65-6.89,6.97h12.81v-.42Z"/><path class="cls-5" d="m1047.3,3545.89v-1.18h2.94v1.13c0,2.86,2.14,4.5,5.96,4.5s5.8-1.01,5.8-3.78c0-2.06-1.01-2.81-3.87-3.32l-4.62-.84c-3.02-.55-5.54-2.02-5.54-5.5,0-3.15,2.35-6.13,8.4-6.13s8.4,3.02,8.4,7.22v.88h-2.98v-.76c0-3.44-2.14-4.91-5.42-4.91-3.95,0-5.34,1.34-5.34,3.36s1.01,2.86,3.91,3.4l4.03.76c4.12.76,6.09,1.93,6.09,5.59,0,4.58-4.12,6.55-8.78,6.55-7.31,0-8.99-3.28-8.99-6.97Z"/><path class="cls-5" d="m113.35,2712.18c0-12.01,6.76-17.27,14.74-17.27,6.97,0,12.39,3.74,12.39,12.01v.8h-2.86v-.92c0-5.92-3.78-9.24-9.45-9.24-6.72,0-11.76,4.58-11.76,14.33s5.04,14.24,11.72,14.24c5.38,0,9.54-2.86,9.54-9.2v-.59h2.77v.42c0,8.02-5.33,12.01-12.56,12.01-7.98,0-14.53-4.87-14.53-16.59Z"/><path class="cls-5" d="m146.78,2707.22h2.6l.29,3.91c1.01-2.14,3.07-4.45,6.76-4.45,1.26,0,2.18.21,3.02.55v3.15c-1.13-.5-2.1-.76-3.4-.76-3.74,0-6.34,2.81-6.34,5.75v12.85h-2.94v-21Z"/><path class="cls-5" d="m161.78,2717.72c0-6.22,3.32-11.05,10.38-11.05,6.59,0,10.25,4.83,10.25,11.05s-3.7,11.05-10.29,11.05c-7.27,0-10.33-4.83-10.33-11.05Zm17.56,0c0-5.33-2.9-8.49-7.22-8.49-4.75,0-7.27,3.15-7.27,8.49s2.56,8.49,7.27,8.49c4.33,0,7.22-3.15,7.22-8.49Z"/><path class="cls-5" d="m186.39,2721.8v-1.18h2.94v1.13c0,2.86,2.14,4.5,5.96,4.5s5.8-1.01,5.8-3.78c0-2.06-1.01-2.81-3.86-3.32l-4.62-.84c-3.02-.55-5.54-2.02-5.54-5.5,0-3.15,2.35-6.13,8.4-6.13s8.4,3.02,8.4,7.22v.88h-2.98v-.76c0-3.44-2.14-4.91-5.42-4.91-3.95,0-5.33,1.34-5.33,3.36s1.01,2.86,3.91,3.4l4.03.76c4.12.76,6.09,1.93,6.09,5.59,0,4.58-4.12,6.55-8.78,6.55-7.31,0-8.99-3.28-8.99-6.97Z"/><path class="cls-5" d="m208.14,2721.8v-1.18h2.94v1.13c0,2.86,2.14,4.5,5.96,4.5s5.8-1.01,5.8-3.78c0-2.06-1.01-2.81-3.86-3.32l-4.62-.84c-3.02-.55-5.54-2.02-5.54-5.5,0-3.15,2.35-6.13,8.4-6.13s8.4,3.02,8.4,7.22v.88h-2.98v-.76c0-3.44-2.14-4.91-5.42-4.91-3.95,0-5.33,1.34-5.33,3.36s1.01,2.86,3.91,3.4l4.03.76c4.12.76,6.09,1.93,6.09,5.59,0,4.58-4.12,6.55-8.78,6.55-7.31,0-8.99-3.28-8.99-6.97Z"/><path class="cls-5" d="m234.6,2724.74h-.08l-.76,3.49h-1.97v-32.77h2.94v15.25h.04c1.26-2.31,4.07-4.03,7.69-4.03,6.3,0,9.66,3.99,9.66,11.01s-4.29,11.09-9.87,11.09c-3.78,0-6.55-1.64-7.65-4.03Zm14.37-6.89c0-7.18-3.4-8.61-6.93-8.61-4.24,0-7.56,2.73-7.56,8.44,0,6.01,3.45,8.57,7.44,8.57,3.02,0,7.06-1.47,7.06-8.4Z"/><path class="cls-5" d="m256.53,2722.43c0-3.95,2.23-6.09,7.86-6.09h6.34v-1.72c0-2.98-1.26-5.42-5.46-5.42-3.95,0-5.33,1.51-5.33,4.12v.88h-2.98v-.84c0-5,4.2-6.68,8.32-6.68,5.8,0,8.4,2.86,8.4,8.44v13.11h-2.06l-.55-2.98h-.08c-1.26,1.89-3.7,3.53-7.35,3.53-4.92,0-7.1-2.31-7.1-6.34Zm14.2-1.85v-1.76h-7.01c-2.65,0-4.03.92-4.03,3.61,0,2.35,1.26,3.86,4.5,3.86,4.16,0,6.55-2.14,6.55-5.71Z"/><path class="cls-5" d="m281.01,2707.22h2.6l.29,3.91c1.01-2.14,3.07-4.45,6.76-4.45,1.26,0,2.18.21,3.02.55v3.15c-1.13-.5-2.1-.76-3.4-.76-3.74,0-6.34,2.81-6.34,5.75v12.85h-2.94v-21Z"/><path class="cls-5" d="m307.98,2695.46h2.98v6.51h-2.98v-6.51Zm0,11.76h2.94v21h-2.94v-21Z"/><path class="cls-5" d="m318.31,2707.22h2.6l.29,3.49c1.01-2.14,3.28-4.03,7.35-4.03,4.75,0,7.77,2.52,7.77,7.94v13.61h-2.94v-13.27c0-4.33-2.14-5.71-5.5-5.71-3.82,0-6.64,2.69-6.64,5.63v13.36h-2.94v-21Z"/><path class="cls-5" d="m355.02,2705.92h-3.36v-5.08c0-3.95.88-5.29,3.4-5.97l.67,1.85c-1.76.67-2.06,1.09-2.06,3.78v.34h1.34v5.08Zm5.92,0h-3.36v-5.08c0-3.95.88-5.29,3.4-5.97l.67,1.85c-1.76.67-2.06,1.09-2.06,3.78v.34h1.34v5.08Z"/><path class="cls-5" d="m366.06,2720.2v-3.66h2.86v3.57c0,4.41,2.6,6.01,6.68,6.01,5.25,0,7.06-2.52,7.06-7.02v-21.04h-14.37v-2.6h17.31v24.03c0,6.81-4.66,9.28-10.12,9.28-5.84,0-9.41-2.44-9.41-8.57Z"/><path class="cls-5" d="m391.68,2704.66c1.76-.67,2.06-1.09,2.06-3.78v-.34h-1.34v-5.08h3.36v5.08c0,3.95-.88,5.29-3.4,5.97l-.67-1.85Zm5.92,0c1.76-.67,2.06-1.09,2.06-3.78v-.34h-1.34v-5.08h3.36v5.08c0,3.95-.88,5.29-3.4,5.97l-.67-1.85Z"/><path class="cls-5" d="m906.47,4332.79h-3.36v-5.08c0-3.95.88-5.29,3.4-5.96l.67,1.85c-1.76.67-2.06,1.09-2.06,3.78v.34h1.34v5.08Zm5.92,0h-3.36v-5.08c0-3.95.88-5.29,3.4-5.96l.67,1.85c-1.76.67-2.06,1.09-2.06,3.78v.34h1.34v5.08Z"/><path class="cls-5" d="m916.46,4356.9v-.13h3.11v.13c0,2.9,1.93,4.33,6.13,4.33,4.79,0,7.01-2.94,7.01-7.86v-2.1h-.08c-1.09,2.18-3.65,4.07-7.48,4.07-6.3,0-9.75-3.99-9.75-10.71,0-7.1,4.37-11.09,9.96-11.09,3.78,0,6.55,1.81,7.56,4.12h.13l.29-3.57h2.31v19.16c0,5.88-2.81,10.71-10.33,10.71-6.3,0-8.86-2.98-8.86-7.06Zm16.59-12.77c0-5.5-3.36-8.07-7.35-8.07-3.03,0-7.14,1.47-7.14,8.4s3.57,8.32,7.1,8.32c4.24,0,7.39-2.73,7.39-8.65Z"/><path class="cls-5" d="m940.28,4331.53c1.76-.67,2.06-1.09,2.06-3.78v-.34h-1.34v-5.08h3.36v5.08c0,3.95-.88,5.29-3.4,5.97l-.67-1.85Zm5.92,0c1.76-.67,2.06-1.09,2.06-3.78v-.34h-1.34v-5.08h3.36v5.08c0,3.95-.88,5.29-3.4,5.97l-.67-1.85Z"/><path class="cls-5" d="m953.21,4348.87h3.36v6.22c0,3.95-.88,5.29-3.4,5.96l-.67-1.85c1.76-.67,2.06-1.09,2.06-3.78v-.34h-1.34v-6.22Z"/><path class="cls-5" d="m974.22,4332.79h-3.36v-5.08c0-3.95.88-5.29,3.4-5.96l.67,1.85c-1.76.67-2.06,1.09-2.06,3.78v.34h1.34v5.08Zm5.92,0h-3.36v-5.08c0-3.95.88-5.29,3.4-5.96l.67,1.85c-1.76.67-2.06,1.09-2.06,3.78v.34h1.34v5.08Z"/><path class="cls-5" d="m989.46,4358.12c0,3.53-1.68,5.84-5.04,5.84-1.18,0-2.02-.13-2.94-.38v-2.61c.8.17,1.47.29,2.27.29,1.93,0,2.77-1.26,2.77-3.65v-23.53h2.94v24.03Zm-2.94-35.79h2.98v6.51h-2.98v-6.51Z"/><path class="cls-5" d="m994.96,4331.53c1.76-.67,2.06-1.09,2.06-3.78v-.34h-1.34v-5.08h3.36v5.08c0,3.95-.88,5.29-3.4,5.97l-.67-1.85Zm5.92,0c1.76-.67,2.06-1.09,2.06-3.78v-.34h-1.34v-5.08h3.36v5.08c0,3.95-.88,5.29-3.4,5.97l-.67-1.85Z"/><path class="cls-5" d="m1019.24,4349.29c0-3.95,2.23-6.09,7.86-6.09h6.34v-1.72c0-2.98-1.26-5.42-5.46-5.42-3.95,0-5.33,1.51-5.33,4.12v.88h-2.98v-.84c0-5,4.2-6.68,8.32-6.68,5.8,0,8.4,2.86,8.4,8.44v13.11h-2.06l-.55-2.98h-.08c-1.26,1.89-3.7,3.53-7.35,3.53-4.92,0-7.1-2.31-7.1-6.34Zm14.2-1.85v-1.76h-7.01c-2.65,0-4.03.92-4.03,3.61,0,2.35,1.26,3.87,4.5,3.87,4.16,0,6.55-2.14,6.55-5.71Z"/><path class="cls-5" d="m1043.72,4334.09h2.6l.29,3.49c1.01-2.14,3.28-4.03,7.35-4.03,4.75,0,7.77,2.52,7.77,7.94v13.61h-2.94v-13.27c0-4.33-2.14-5.71-5.5-5.71-3.82,0-6.64,2.69-6.64,5.63v13.36h-2.94v-21Z"/><path class="cls-5" d="m1067.41,4344.63c0-7.1,4.28-11.09,10.04-11.09,3.7,0,6.22,1.6,7.31,3.74h.04v-14.96h2.94v32.77h-1.97l-.67-3.61h-.08c-1.18,2.31-3.95,4.16-7.77,4.16-6.3,0-9.83-3.99-9.83-11.01Zm17.64-.5c0-5.5-3.36-8.07-7.35-8.07-3.11,0-7.14,1.47-7.14,8.4s3.61,8.61,7.14,8.61c4.24,0,7.35-2.73,7.35-8.95Z"/><path class="cls-5" d="m1106.43,4332.79h-3.36v-5.08c0-3.95.88-5.29,3.4-5.96l.67,1.85c-1.76.67-2.06,1.09-2.06,3.78v.34h1.34v5.08Zm5.92,0h-3.36v-5.08c0-3.95.88-5.29,3.4-5.96l.67,1.85c-1.76.67-2.06,1.09-2.06,3.78v.34h1.34v5.08Z"/><path class="cls-5" d="m1118.94,4334.09l6.89,17.98h.08l7.14-17.98h3.07v.04l-8.86,20.84-3.11,8.53h-2.98v-.04l3.19-8.36-8.78-20.96v-.04h3.36Z"/><path class="cls-5" d="m1138.43,4331.53c1.76-.67,2.06-1.09,2.06-3.78v-.34h-1.34v-5.08h3.36v5.08c0,3.95-.88,5.29-3.4,5.97l-.67-1.85Zm5.92,0c1.76-.67,2.06-1.09,2.06-3.78v-.34h-1.34v-5.08h3.36v5.08c0,3.95-.88,5.29-3.4,5.97l-.67-1.85Z"/><path class="cls-5" d="m1162.29,4344.63c0-7.1,4.28-11.09,10.04-11.09,3.7,0,6.22,1.6,7.31,3.74h.04v-14.96h2.94v32.77h-1.97l-.67-3.61h-.08c-1.18,2.31-3.95,4.16-7.77,4.16-6.3,0-9.83-3.99-9.83-11.01Zm17.64-.5c0-5.5-3.36-8.07-7.35-8.07-3.11,0-7.14,1.47-7.14,8.4s3.61,8.61,7.14,8.61c4.24,0,7.35-2.73,7.35-8.95Z"/><path class="cls-5" d="m1188.28,4344.59c0-6.22,3.32-11.05,10.38-11.05,6.59,0,10.25,4.83,10.25,11.05s-3.7,11.05-10.29,11.05c-7.27,0-10.33-4.83-10.33-11.05Zm17.56,0c0-5.33-2.9-8.48-7.22-8.48-4.75,0-7.27,3.15-7.27,8.48s2.56,8.49,7.27,8.49c4.33,0,7.22-3.15,7.22-8.49Z"/><path class="cls-5" d="m1224.45,4334.09h2.6l.29,3.49c1.01-2.14,3.28-4.03,7.35-4.03,4.75,0,7.77,2.52,7.77,7.94v13.61h-2.94v-13.27c0-4.33-2.14-5.71-5.5-5.71-3.82,0-6.64,2.69-6.64,5.63v13.36h-2.94v-21Z"/><path class="cls-5" d="m1248.13,4344.59c0-6.22,3.32-11.05,10.38-11.05,6.59,0,10.25,4.83,10.25,11.05s-3.7,11.05-10.29,11.05c-7.27,0-10.33-4.83-10.33-11.05Zm17.56,0c0-5.33-2.9-8.48-7.22-8.48-4.75,0-7.27,3.15-7.27,8.48s2.56,8.49,7.27,8.49c4.33,0,7.22-3.15,7.22-8.49Z"/><path class="cls-5" d="m1285.6,4352.4v2.6c-.76.21-2.14.59-4.03.59-3.82,0-6.34-1.6-6.34-6.89v-12.18h-4.16v-2.44h4.16v-6.05l2.94-1.43v7.48h5.92v2.44h-5.92v11.8c0,2.81.76,4.58,3.4,4.58,1.6,0,3.23-.29,4.03-.5Z"/><path class="cls-5" d="m1298.41,4344.76c0-6.38,3.23-11.21,10-11.21s8.95,3.91,8.95,8.95v.42h-3.11v-.63c0-3.82-1.64-6.09-5.84-6.09-4.75,0-7.02,3.11-7.02,8.4,0,5.63,2.39,8.49,6.93,8.49,3.82,0,5.84-1.85,5.92-5.67h3.02c-.08,4.66-3.15,8.23-9.03,8.23-7.22,0-9.83-4.75-9.83-10.88Z"/><path class="cls-5" d="m1321.55,4344.59c0-6.22,3.32-11.05,10.38-11.05,6.59,0,10.25,4.83,10.25,11.05s-3.7,11.05-10.29,11.05c-7.27,0-10.33-4.83-10.33-11.05Zm17.56,0c0-5.33-2.9-8.48-7.22-8.48-4.75,0-7.27,3.15-7.27,8.48s2.56,8.49,7.27,8.49c4.33,0,7.22-3.15,7.22-8.49Z"/><path class="cls-5" d="m1348.05,4334.09h2.6l.29,3.49c1.01-2.14,3.28-4.03,7.35-4.03,4.75,0,7.77,2.52,7.77,7.94v13.61h-2.94v-13.27c0-4.33-2.14-5.71-5.5-5.71-3.82,0-6.64,2.69-6.64,5.63v13.36h-2.94v-21Z"/><path class="cls-5" d="m1373.42,4334.09h2.6l.29,3.49c1.01-2.14,3.28-4.03,7.35-4.03,4.75,0,7.77,2.52,7.77,7.94v13.61h-2.94v-13.27c0-4.33-2.14-5.71-5.5-5.71-3.82,0-6.64,2.69-6.64,5.63v13.36h-2.94v-21Z"/><path class="cls-5" d="m1416.05,4345.6h-15.96c.17,4.79,2.48,7.48,6.93,7.48,3.82,0,5.67-1.43,5.97-4.83h2.98c-.29,4.24-3.28,7.39-9.03,7.39-7.06,0-9.83-4.66-9.83-10.88s3.23-11.21,10-11.21,8.95,3.99,8.95,10.21v1.85Zm-3.11-2.98c0-4.45-1.72-6.55-5.92-6.55s-6.55,2.65-6.89,6.97h12.81v-.42Z"/><path class="cls-5" d="m1420.25,4344.76c0-6.38,3.23-11.21,10-11.21s8.95,3.91,8.95,8.95v.42h-3.11v-.63c0-3.82-1.64-6.09-5.84-6.09-4.75,0-7.01,3.11-7.01,8.4,0,5.63,2.39,8.49,6.93,8.49,3.82,0,5.84-1.85,5.92-5.67h3.02c-.08,4.66-3.15,8.23-9.03,8.23-7.22,0-9.83-4.75-9.83-10.88Z"/><path class="cls-5" d="m1456.03,4352.4v2.6c-.76.21-2.14.59-4.03.59-3.82,0-6.34-1.6-6.34-6.89v-12.18h-4.16v-2.44h4.16v-6.05l2.94-1.43v7.48h5.92v2.44h-5.92v11.8c0,2.81.76,4.58,3.4,4.58,1.6,0,3.23-.29,4.03-.5Z"/><path class="cls-5" d="m1467.79,4334.13v-.04h2.98l5.76,17.48h.08l6.3-17.48h2.69l6.17,17.48h.08l5.75-17.48h2.86v.04l-7.18,20.96h-3.02l-5.96-17.05h-.08l-6.22,17.05h-3.02l-7.18-20.96Z"/><path class="cls-5" d="m1505.29,4322.33h2.98v6.51h-2.98v-6.51Zm0,11.76h2.94v21h-2.94v-21Z"/><path class="cls-5" d="m1526.59,4352.4v2.6c-.76.21-2.14.59-4.03.59-3.82,0-6.34-1.6-6.34-6.89v-12.18h-4.16v-2.44h4.16v-6.05l2.94-1.43v7.48h5.92v2.44h-5.92v11.8c0,2.81.76,4.58,3.4,4.58,1.6,0,3.23-.29,4.03-.5Z"/><path class="cls-5" d="m1531.42,4322.33h2.94v15.17c1.05-2.1,3.28-3.95,7.31-3.95,4.75,0,7.77,2.52,7.77,7.94v13.61h-2.94v-13.27c0-4.33-2.14-5.71-5.5-5.71-3.82,0-6.64,2.69-6.64,5.63v13.36h-2.94v-32.77Z"/><path class="cls-5" d="m1577.41,4352.4v2.6c-.76.21-2.14.59-4.03.59-3.82,0-6.34-1.6-6.34-6.89v-12.18h-4.16v-2.44h4.16v-6.05l2.94-1.43v7.48h5.92v2.44h-5.92v11.8c0,2.81.76,4.58,3.4,4.58,1.6,0,3.23-.29,4.03-.5Z"/><path class="cls-5" d="m1582.24,4322.33h2.94v15.17c1.05-2.1,3.28-3.95,7.31-3.95,4.75,0,7.77,2.52,7.77,7.94v13.61h-2.94v-13.27c0-4.33-2.14-5.71-5.5-5.71-3.82,0-6.64,2.69-6.64,5.63v13.36h-2.94v-32.77Z"/><path class="cls-5" d="m1624.87,4345.6h-15.96c.17,4.79,2.48,7.48,6.93,7.48,3.82,0,5.67-1.43,5.97-4.83h2.98c-.29,4.24-3.28,7.39-9.03,7.39-7.06,0-9.83-4.66-9.83-10.88s3.23-11.21,10-11.21,8.95,3.99,8.95,10.21v1.85Zm-3.11-2.98c0-4.45-1.72-6.55-5.92-6.55s-6.55,2.65-6.89,6.97h12.81v-.42Z"/><path class="cls-5" d="m1640.41,4334.09h2.6l.29,3.49c1.01-2.14,3.28-4.03,7.35-4.03,4.75,0,7.77,2.52,7.77,7.94v13.61h-2.94v-13.27c0-4.33-2.14-5.71-5.5-5.71-3.82,0-6.64,2.69-6.64,5.63v13.36h-2.94v-21Z"/><path class="cls-5" d="m1683.04,4345.6h-15.96c.17,4.79,2.48,7.48,6.93,7.48,3.82,0,5.67-1.43,5.97-4.83h2.98c-.29,4.24-3.28,7.39-9.03,7.39-7.06,0-9.83-4.66-9.83-10.88s3.23-11.21,10-11.21,8.95,3.99,8.95,10.21v1.85Zm-3.11-2.98c0-4.45-1.72-6.55-5.92-6.55s-6.55,2.65-6.89,6.97h12.81v-.42Z"/><path class="cls-5" d="m1704.29,4334.13l-8.07,10.5,8.02,10.42v.04h-3.44l-6.34-8.44-6.43,8.44h-3.28v-.04l8.02-10.38-8.07-10.54v-.04h3.44l6.39,8.49,6.43-8.44v-.04h3.32v.04Z"/><path class="cls-5" d="m1719.79,4352.4v2.6c-.76.21-2.14.59-4.03.59-3.82,0-6.34-1.6-6.34-6.89v-12.18h-4.16v-2.44h4.16v-6.05l2.94-1.43v7.48h5.92v2.44h-5.92v11.8c0,2.81.76,4.58,3.4,4.58,1.6,0,3.23-.29,4.03-.5Z"/><path class="cls-5" d="m1734.28,4322.33h2.94v32.77h-2.94v-32.77Z"/><path class="cls-5" d="m1761.83,4345.6h-15.96c.17,4.79,2.48,7.48,6.93,7.48,3.82,0,5.67-1.43,5.97-4.83h2.98c-.29,4.24-3.28,7.39-9.03,7.39-7.06,0-9.83-4.66-9.83-10.88s3.23-11.21,10-11.21,8.95,3.99,8.95,10.21v1.85Zm-3.11-2.98c0-4.45-1.72-6.55-5.92-6.55s-6.55,2.65-6.89,6.97h12.81v-.42Z"/><path class="cls-5" d="m1768.3,4348.71v-12.18h-4.16v-2.44h4.16v-6.05l2.94-1.43v7.48h11.85v-6.05l2.94-1.43v7.48h5.92v2.44h-5.92v11.8c0,2.81.76,4.58,3.4,4.58,1.6,0,3.24-.29,4.03-.5v2.6c-.76.21-2.14.59-4.03.59-3.82,0-6.34-1.6-6.34-6.89v-12.18h-11.85v11.8c0,2.81.76,4.58,3.4,4.58,1.6,0,3.23-.29,4.03-.5v2.6c-.76.21-2.14.59-4.03.59-3.82,0-6.34-1.6-6.34-6.89Z"/><path class="cls-5" d="m1814.92,4345.6h-15.96c.17,4.79,2.48,7.48,6.93,7.48,3.82,0,5.67-1.43,5.97-4.83h2.98c-.29,4.24-3.28,7.39-9.03,7.39-7.06,0-9.83-4.66-9.83-10.88s3.23-11.21,10-11.21,8.95,3.99,8.95,10.21v1.85Zm-3.11-2.98c0-4.45-1.72-6.55-5.92-6.55s-6.55,2.65-6.89,6.97h12.81v-.42Z"/><path class="cls-5" d="m1820.79,4334.09h2.6l.29,3.91c1.01-2.14,3.07-4.45,6.76-4.45,1.26,0,2.18.21,3.02.54v3.15c-1.13-.5-2.1-.76-3.4-.76-3.74,0-6.34,2.81-6.34,5.76v12.85h-2.94v-21Z"/><path class="cls-5" d="m107.65,4348.33v-2.02h3.02v2.18c0,3.74,2.6,6.05,7.94,6.05s8.44-1.97,8.44-6.22c0-3.32-1.39-5.17-4.92-6.09l-6.64-1.72c-4.33-1.13-7.18-2.98-7.18-8.15s3.78-8.91,10.92-8.91,10.59,3.44,10.59,9.07v2.94h-3.02v-2.81c0-4.62-3.07-6.51-7.56-6.51-5.12,0-7.81,2.14-7.81,6.01,0,3.61,1.76,4.71,5.54,5.71l5.75,1.55c5.12,1.39,7.43,3.74,7.43,8.65,0,6.09-4.33,9.24-11.47,9.24-9.12,0-11.05-4.71-11.05-8.99Z"/><path class="cls-5" d="m154.19,4347.28h-15.96c.17,4.79,2.48,7.48,6.93,7.48,3.82,0,5.67-1.43,5.97-4.83h2.98c-.29,4.24-3.28,7.39-9.03,7.39-7.06,0-9.83-4.66-9.83-10.88s3.23-11.22,10-11.22,8.95,3.99,8.95,10.21v1.85Zm-3.11-2.98c0-4.45-1.72-6.55-5.92-6.55s-6.55,2.65-6.89,6.97h12.81v-.42Z"/><path class="cls-5" d="m190.78,4343.17v13.61h-2.94v-13.27c0-4.33-2.14-5.71-4.75-5.71-3.82,0-6.17,2.69-6.17,5.63v13.36h-2.94v-13.27c0-4.33-1.85-5.71-4.83-5.71-3.61,0-6.13,2.69-6.13,5.63v13.36h-2.94v-21h2.6l.29,3.49c1.01-2.02,3.07-4.03,6.93-4.03,2.94,0,5.38,1.39,6.43,4.29,1.22-2.39,3.57-4.29,7.14-4.29,4.29,0,7.31,2.52,7.31,7.94Z"/><path class="cls-5" d="m198.12,4324.01h2.98v6.51h-2.98v-6.51Zm0,11.76h2.94v21h-2.94v-21Z"/><path class="cls-5" d="m211.39,4359.8c0,3.53-1.68,5.84-5.04,5.84-1.18,0-2.02-.13-2.94-.38v-2.6c.8.17,1.47.29,2.27.29,1.93,0,2.77-1.26,2.77-3.65v-23.52h2.94v24.03Zm-2.94-35.79h2.98v6.51h-2.98v-6.51Z"/><path class="cls-5" d="m217.1,4346.27c0-6.22,3.32-11.05,10.38-11.05,6.59,0,10.25,4.83,10.25,11.05s-3.7,11.05-10.29,11.05c-7.27,0-10.33-4.83-10.33-11.05Zm17.56,0c0-5.33-2.9-8.49-7.22-8.49-4.75,0-7.27,3.15-7.27,8.49s2.56,8.49,7.27,8.49c4.33,0,7.22-3.15,7.22-8.49Z"/><path class="cls-5" d="m243.6,4324.01h2.98v6.51h-2.98v-6.51Zm0,11.76h2.94v21h-2.94v-21Z"/><path class="cls-5" d="m253.94,4335.77h2.6l.29,3.49c1.01-2.14,3.28-4.03,7.35-4.03,4.75,0,7.77,2.52,7.77,7.94v13.61h-2.94v-13.27c0-4.33-2.14-5.71-5.5-5.71-3.82,0-6.64,2.69-6.64,5.63v13.36h-2.94v-21Z"/><path class="cls-5" d="m296.57,4347.28h-15.96c.17,4.79,2.48,7.48,6.93,7.48,3.82,0,5.67-1.43,5.97-4.83h2.98c-.29,4.24-3.28,7.39-9.03,7.39-7.06,0-9.83-4.66-9.83-10.88s3.23-11.22,10-11.22,8.95,3.99,8.95,10.21v1.85Zm-3.11-2.98c0-4.45-1.72-6.55-5.92-6.55s-6.55,2.65-6.89,6.97h12.81v-.42Z"/><path class="cls-5" d="m300.76,4346.32c0-7.1,4.28-11.09,10.04-11.09,3.7,0,6.22,1.6,7.31,3.74h.04v-14.95h2.94v32.77h-1.97l-.67-3.61h-.08c-1.18,2.31-3.95,4.16-7.77,4.16-6.3,0-9.83-3.99-9.83-11.01Zm17.64-.5c0-5.5-3.36-8.07-7.35-8.07-3.11,0-7.14,1.47-7.14,8.4s3.61,8.61,7.14,8.61c4.24,0,7.35-2.73,7.35-8.95Z"/><path class="cls-5" d="m337.68,4349.38v-13.61h2.94v13.27c0,4.33,2.14,5.71,5.42,5.71,3.74,0,6.55-2.69,6.55-5.63v-13.36h2.94v21h-2.6l-.25-3.36h-.08c-.97,2.02-3.23,3.91-7.23,3.91-4.66,0-7.69-2.52-7.69-7.94Z"/><path class="cls-5" d="m362.88,4335.77h2.39l.34,3.86h.08c1.13-2.48,4.03-4.41,7.86-4.41,6.3,0,9.66,3.99,9.66,11.01s-4.29,11.09-9.87,11.09c-3.78,0-6.38-1.6-7.43-3.7h-.08v11.55h-2.94v-29.41Zm17.18,10.63c0-7.18-3.4-8.61-6.93-8.61-4.24,0-7.56,2.73-7.56,8.44,0,6.01,3.45,8.57,7.44,8.57,3.02,0,7.06-1.47,7.06-8.4Z"/><path class="cls-5" d="m389.09,4335.77h2.39l.34,3.86h.08c1.13-2.48,4.03-4.41,7.86-4.41,6.3,0,9.66,3.99,9.66,11.01s-4.29,11.09-9.87,11.09c-3.78,0-6.38-1.6-7.43-3.7h-.08v11.55h-2.94v-29.41Zm17.18,10.63c0-7.18-3.4-8.61-6.93-8.61-4.24,0-7.56,2.73-7.56,8.44,0,6.01,3.45,8.57,7.44,8.57,3.02,0,7.06-1.47,7.06-8.4Z"/><path class="cls-5" d="m432.56,4347.28h-15.96c.17,4.79,2.48,7.48,6.93,7.48,3.82,0,5.67-1.43,5.97-4.83h2.98c-.29,4.24-3.28,7.39-9.03,7.39-7.06,0-9.83-4.66-9.83-10.88s3.23-11.22,10-11.22,8.95,3.99,8.95,10.21v1.85Zm-3.11-2.98c0-4.45-1.72-6.55-5.92-6.55s-6.55,2.65-6.89,6.97h12.81v-.42Z"/><path class="cls-5" d="m438.44,4335.77h2.6l.29,3.91c1.01-2.14,3.07-4.45,6.76-4.45,1.26,0,2.18.21,3.02.55v3.15c-1.13-.5-2.1-.76-3.4-.76-3.74,0-6.34,2.81-6.34,5.75v12.85h-2.94v-21Z"/><path class="cls-5" d="m453.43,4346.44c0-6.38,3.23-11.22,10-11.22s8.95,3.91,8.95,8.95v.42h-3.11v-.63c0-3.82-1.64-6.09-5.84-6.09-4.75,0-7.01,3.11-7.01,8.4,0,5.63,2.39,8.49,6.93,8.49,3.82,0,5.84-1.85,5.92-5.67h3.02c-.08,4.66-3.15,8.23-9.03,8.23-7.22,0-9.83-4.75-9.83-10.88Z"/><path class="cls-5" d="m476.79,4350.98c0-3.95,2.23-6.09,7.86-6.09h6.34v-1.72c0-2.98-1.26-5.42-5.46-5.42-3.95,0-5.33,1.51-5.33,4.12v.88h-2.98v-.84c0-5,4.2-6.68,8.32-6.68,5.8,0,8.4,2.86,8.4,8.44v13.11h-2.06l-.55-2.98h-.08c-1.26,1.89-3.7,3.53-7.35,3.53-4.92,0-7.1-2.31-7.1-6.34Zm14.2-1.85v-1.76h-7.01c-2.65,0-4.03.92-4.03,3.61,0,2.35,1.26,3.86,4.5,3.86,4.16,0,6.55-2.14,6.55-5.71Z"/><path class="cls-5" d="m499.38,4350.35v-1.18h2.94v1.13c0,2.86,2.14,4.5,5.96,4.5s5.8-1.01,5.8-3.78c0-2.06-1.01-2.81-3.86-3.32l-4.62-.84c-3.02-.55-5.54-2.02-5.54-5.5,0-3.15,2.35-6.13,8.4-6.13s8.4,3.02,8.4,7.22v.88h-2.98v-.76c0-3.45-2.14-4.92-5.42-4.92-3.95,0-5.33,1.34-5.33,3.36s1.01,2.86,3.91,3.4l4.03.76c4.12.76,6.09,1.93,6.09,5.59,0,4.58-4.12,6.55-8.78,6.55-7.31,0-8.99-3.28-8.99-6.97Z"/><path class="cls-5" d="m540.29,4347.28h-15.96c.17,4.79,2.48,7.48,6.93,7.48,3.82,0,5.67-1.43,5.97-4.83h2.98c-.29,4.24-3.28,7.39-9.03,7.39-7.06,0-9.83-4.66-9.83-10.88s3.23-11.22,10-11.22,8.95,3.99,8.95,10.21v1.85Zm-3.11-2.98c0-4.45-1.72-6.55-5.92-6.55s-6.55,2.65-6.89,6.97h12.81v-.42Z"/><path class="cls-5" d="m555.83,4324.01h2.94v32.77h-2.94v-32.77Z"/><path class="cls-5" d="m583.38,4347.28h-15.96c.17,4.79,2.48,7.48,6.93,7.48,3.82,0,5.67-1.43,5.97-4.83h2.98c-.29,4.24-3.28,7.39-9.03,7.39-7.06,0-9.83-4.66-9.83-10.88s3.23-11.22,10-11.22,8.95,3.99,8.95,10.21v1.85Zm-3.11-2.98c0-4.45-1.72-6.55-5.92-6.55s-6.55,2.65-6.89,6.97h12.81v-.42Z"/><path class="cls-5" d="m589.85,4350.39v-12.18h-4.16v-2.44h4.16v-6.05l2.94-1.43v7.48h11.85v-6.05l2.94-1.43v7.48h5.92v2.44h-5.92v11.8c0,2.81.76,4.58,3.4,4.58,1.6,0,3.24-.29,4.03-.5v2.6c-.76.21-2.14.59-4.03.59-3.82,0-6.34-1.6-6.34-6.89v-12.18h-11.85v11.8c0,2.81.76,4.58,3.4,4.58,1.6,0,3.23-.29,4.03-.5v2.6c-.76.21-2.14.59-4.03.59-3.82,0-6.34-1.6-6.34-6.89Z"/><path class="cls-5" d="m636.47,4347.28h-15.96c.17,4.79,2.48,7.48,6.93,7.48,3.82,0,5.67-1.43,5.97-4.83h2.98c-.29,4.24-3.28,7.39-9.03,7.39-7.06,0-9.83-4.66-9.83-10.88s3.23-11.22,10-11.22,8.95,3.99,8.95,10.21v1.85Zm-3.11-2.98c0-4.45-1.72-6.55-5.92-6.55s-6.55,2.65-6.89,6.97h12.81v-.42Z"/><path class="cls-5" d="m642.35,4335.77h2.6l.29,3.91c1.01-2.14,3.07-4.45,6.76-4.45,1.26,0,2.18.21,3.02.55v3.15c-1.13-.5-2.1-.76-3.4-.76-3.74,0-6.34,2.81-6.34,5.75v12.85h-2.94v-21Z"/><path class="cls-5" d="m657.55,4350.35v-1.18h2.94v1.13c0,2.86,2.14,4.5,5.96,4.5s5.8-1.01,5.8-3.78c0-2.06-1.01-2.81-3.86-3.32l-4.62-.84c-3.02-.55-5.54-2.02-5.54-5.5,0-3.15,2.35-6.13,8.4-6.13s8.4,3.02,8.4,7.22v.88h-2.98v-.76c0-3.45-2.14-4.92-5.42-4.92-3.95,0-5.33,1.34-5.33,3.36s1.01,2.86,3.91,3.4l4.03.76c4.12.76,6.09,1.93,6.09,5.59,0,4.58-4.12,6.55-8.78,6.55-7.31,0-8.99-3.28-8.99-6.97Z"/><line class="cls-2" x1="363.41" y1="2996.77" x2="234.65" y2="2748.14"/><circle class="cls-6" cx="802.28" cy="2005.68" r="89.59"/><circle class="cls-6" cx="979.78" cy="1544.25" r="89.59"/><path class="cls-5" d="m146.68,902.2c0-12.01,6.76-17.27,14.74-17.27,6.97,0,12.39,3.74,12.39,12.01v.8h-2.86v-.92c0-5.92-3.78-9.24-9.45-9.24-6.72,0-11.76,4.58-11.76,14.32s5.04,14.24,11.72,14.24c5.38,0,9.54-2.86,9.54-9.2v-.59h2.77v.42c0,8.02-5.33,12.01-12.56,12.01-7.98,0-14.53-4.87-14.53-16.59Z"/><path class="cls-5" d="m179.69,910.85v-13.61h2.94v13.27c0,4.33,2.14,5.71,5.42,5.71,3.74,0,6.55-2.69,6.55-5.63v-13.36h2.94v21h-2.6l-.25-3.36h-.08c-.97,2.02-3.23,3.91-7.23,3.91-4.66,0-7.69-2.52-7.69-7.94Z"/><path class="cls-5" d="m204.89,897.24h2.6l.29,3.91c1.01-2.14,3.07-4.45,6.76-4.45,1.26,0,2.18.21,3.02.55v3.15c-1.13-.5-2.1-.76-3.4-.76-3.74,0-6.34,2.81-6.34,5.75v12.85h-2.94v-21Z"/><path class="cls-5" d="m220.09,911.82v-1.18h2.94v1.13c0,2.86,2.14,4.5,5.96,4.5s5.8-1.01,5.8-3.78c0-2.06-1.01-2.81-3.86-3.32l-4.62-.84c-3.02-.55-5.54-2.02-5.54-5.5,0-3.15,2.35-6.13,8.4-6.13s8.4,3.02,8.4,7.23v.88h-2.98v-.76c0-3.44-2.14-4.91-5.42-4.91-3.95,0-5.33,1.34-5.33,3.36s1.01,2.86,3.91,3.4l4.03.76c4.12.76,6.09,1.93,6.09,5.59,0,4.58-4.12,6.55-8.78,6.55-7.31,0-8.99-3.28-8.99-6.97Z"/><path class="cls-5" d="m243.74,885.48h2.98v6.51h-2.98v-6.51Zm0,11.76h2.94v21h-2.94v-21Z"/><path class="cls-5" d="m250.92,897.28v-.04h3.36l7.35,17.98h.08l7.1-17.98h3.07v.04l-8.74,20.96h-3.02l-9.2-20.96Z"/><path class="cls-5" d="m292.72,908.75h-15.96c.17,4.79,2.48,7.48,6.93,7.48,3.82,0,5.67-1.43,5.97-4.83h2.98c-.29,4.24-3.28,7.39-9.03,7.39-7.06,0-9.83-4.66-9.83-10.88s3.23-11.22,10-11.22,8.95,3.99,8.95,10.21v1.85Zm-3.11-2.98c0-4.45-1.72-6.55-5.92-6.55s-6.55,2.65-6.89,6.97h12.81v-.42Z"/><path class="cls-5" d="m307.83,910.85v-13.61h2.94v13.27c0,4.33,2.14,5.71,5.42,5.71,3.74,0,6.55-2.69,6.55-5.63v-13.36h2.94v21h-2.6l-.25-3.36h-.08c-.97,2.02-3.23,3.91-7.23,3.91-4.66,0-7.69-2.52-7.69-7.94Z"/><path class="cls-5" d="m333.03,897.24h2.39l.34,3.86h.08c1.13-2.48,4.03-4.41,7.86-4.41,6.3,0,9.66,3.99,9.66,11.01s-4.29,11.09-9.87,11.09c-3.78,0-6.38-1.6-7.43-3.7h-.08v11.55h-2.94v-29.41Zm17.18,10.63c0-7.18-3.4-8.61-6.93-8.61-4.24,0-7.56,2.73-7.56,8.44,0,6.01,3.45,8.57,7.44,8.57,3.02,0,7.06-1.47,7.06-8.4Z"/><path class="cls-5" d="m359.24,897.24h2.39l.34,3.86h.08c1.13-2.48,4.03-4.41,7.86-4.41,6.3,0,9.66,3.99,9.66,11.01s-4.29,11.09-9.87,11.09c-3.78,0-6.38-1.6-7.43-3.7h-.08v11.55h-2.94v-29.41Zm17.18,10.63c0-7.18-3.4-8.61-6.93-8.61-4.24,0-7.56,2.73-7.56,8.44,0,6.01,3.45,8.57,7.44,8.57,3.02,0,7.06-1.47,7.06-8.4Z"/><path class="cls-5" d="m402.71,908.75h-15.96c.17,4.79,2.48,7.48,6.93,7.48,3.82,0,5.67-1.43,5.97-4.83h2.98c-.29,4.24-3.28,7.39-9.03,7.39-7.06,0-9.83-4.66-9.83-10.88s3.23-11.22,10-11.22,8.95,3.99,8.95,10.21v1.85Zm-3.11-2.98c0-4.45-1.72-6.55-5.92-6.55s-6.55,2.65-6.89,6.97h12.81v-.42Z"/><path class="cls-5" d="m408.59,897.24h2.6l.29,3.91c1.01-2.14,3.07-4.45,6.76-4.45,1.26,0,2.18.21,3.02.55v3.15c-1.13-.5-2.1-.76-3.4-.76-3.74,0-6.34,2.81-6.34,5.75v12.85h-2.94v-21Z"/><path class="cls-5" d="m423.58,907.91c0-6.38,3.23-11.22,10-11.22s8.95,3.91,8.95,8.95v.42h-3.11v-.63c0-3.82-1.64-6.09-5.84-6.09-4.75,0-7.02,3.11-7.02,8.4,0,5.63,2.39,8.49,6.93,8.49,3.82,0,5.84-1.85,5.92-5.67h3.02c-.08,4.66-3.15,8.23-9.03,8.23-7.22,0-9.83-4.75-9.83-10.88Z"/><path class="cls-5" d="m446.93,912.45c0-3.95,2.23-6.09,7.86-6.09h6.34v-1.72c0-2.98-1.26-5.42-5.46-5.42-3.95,0-5.33,1.51-5.33,4.12v.88h-2.98v-.84c0-5,4.2-6.68,8.32-6.68,5.8,0,8.4,2.86,8.4,8.44v13.11h-2.06l-.55-2.98h-.08c-1.26,1.89-3.7,3.53-7.35,3.53-4.92,0-7.1-2.31-7.1-6.34Zm14.2-1.85v-1.76h-7.01c-2.65,0-4.03.92-4.03,3.61,0,2.35,1.26,3.86,4.5,3.86,4.16,0,6.55-2.14,6.55-5.71Z"/><path class="cls-5" d="m469.53,911.82v-1.18h2.94v1.13c0,2.86,2.14,4.5,5.96,4.5s5.8-1.01,5.8-3.78c0-2.06-1.01-2.81-3.86-3.32l-4.62-.84c-3.02-.55-5.54-2.02-5.54-5.5,0-3.15,2.35-6.13,8.4-6.13s8.4,3.02,8.4,7.23v.88h-2.98v-.76c0-3.44-2.14-4.91-5.42-4.91-3.95,0-5.33,1.34-5.33,3.36s1.01,2.86,3.91,3.4l4.03.76c4.12.76,6.09,1.93,6.09,5.59,0,4.58-4.12,6.55-8.78,6.55-7.31,0-8.99-3.28-8.99-6.97Z"/><path class="cls-5" d="m510.44,908.75h-15.96c.17,4.79,2.48,7.48,6.93,7.48,3.82,0,5.67-1.43,5.97-4.83h2.98c-.29,4.24-3.28,7.39-9.03,7.39-7.06,0-9.83-4.66-9.83-10.88s3.23-11.22,10-11.22,8.95,3.99,8.95,10.21v1.85Zm-3.11-2.98c0-4.45-1.72-6.55-5.92-6.55s-6.55,2.65-6.89,6.97h12.81v-.42Z"/><path class="cls-5" d="m525.98,885.48h2.94v32.77h-2.94v-32.77Z"/><path class="cls-5" d="m553.53,908.75h-15.96c.17,4.79,2.48,7.48,6.93,7.48,3.82,0,5.67-1.43,5.97-4.83h2.98c-.29,4.24-3.28,7.39-9.03,7.39-7.06,0-9.83-4.66-9.83-10.88s3.23-11.22,10-11.22,8.95,3.99,8.95,10.21v1.85Zm-3.11-2.98c0-4.45-1.72-6.55-5.92-6.55s-6.55,2.65-6.89,6.97h12.81v-.42Z"/><path class="cls-5" d="m560,911.86v-12.18h-4.16v-2.44h4.16v-6.05l2.94-1.43v7.48h11.85v-6.05l2.94-1.43v7.48h5.92v2.44h-5.92v11.8c0,2.81.76,4.58,3.4,4.58,1.6,0,3.24-.29,4.03-.5v2.6c-.76.21-2.14.59-4.03.59-3.82,0-6.34-1.6-6.34-6.89v-12.18h-11.85v11.8c0,2.81.76,4.58,3.4,4.58,1.6,0,3.23-.29,4.03-.5v2.6c-.76.21-2.14.59-4.03.59-3.82,0-6.34-1.6-6.34-6.89Z"/><path class="cls-5" d="m606.62,908.75h-15.96c.17,4.79,2.48,7.48,6.93,7.48,3.82,0,5.67-1.43,5.97-4.83h2.98c-.29,4.24-3.28,7.39-9.03,7.39-7.06,0-9.83-4.66-9.83-10.88s3.23-11.22,10-11.22,8.95,3.99,8.95,10.21v1.85Zm-3.11-2.98c0-4.45-1.72-6.55-5.92-6.55s-6.55,2.65-6.89,6.97h12.81v-.42Z"/><path class="cls-5" d="m612.5,897.24h2.6l.29,3.91c1.01-2.14,3.07-4.45,6.76-4.45,1.26,0,2.18.21,3.02.55v3.15c-1.13-.5-2.1-.76-3.4-.76-3.74,0-6.34,2.81-6.34,5.75v12.85h-2.94v-21Z"/><path class="cls-5" d="m627.7,911.82v-1.18h2.94v1.13c0,2.86,2.14,4.5,5.96,4.5s5.8-1.01,5.8-3.78c0-2.06-1.01-2.81-3.86-3.32l-4.62-.84c-3.02-.55-5.54-2.02-5.54-5.5,0-3.15,2.35-6.13,8.4-6.13s8.4,3.02,8.4,7.23v.88h-2.98v-.76c0-3.44-2.14-4.91-5.42-4.91-3.95,0-5.33,1.34-5.33,3.36s1.01,2.86,3.91,3.4l4.03.76c4.12.76,6.09,1.93,6.09,5.59,0,4.58-4.12,6.55-8.78,6.55-7.31,0-8.99-3.28-8.99-6.97Z"/><path class="cls-5" d="m659.75,912.45c0-3.95,2.23-6.09,7.86-6.09h6.34v-1.72c0-2.98-1.26-5.42-5.46-5.42-3.95,0-5.33,1.51-5.33,4.12v.88h-2.98v-.84c0-5,4.2-6.68,8.32-6.68,5.8,0,8.4,2.86,8.4,8.44v13.11h-2.06l-.55-2.98h-.08c-1.26,1.89-3.7,3.53-7.35,3.53-4.92,0-7.1-2.31-7.1-6.34Zm14.2-1.85v-1.76h-7.01c-2.65,0-4.03.92-4.03,3.61,0,2.35,1.26,3.86,4.5,3.86,4.16,0,6.55-2.14,6.55-5.71Z"/><path class="cls-5" d="m684.23,897.24h2.6l.29,3.91c1.01-2.14,3.07-4.45,6.76-4.45,1.26,0,2.18.21,3.02.55v3.15c-1.13-.5-2.1-.76-3.4-.76-3.74,0-6.34,2.81-6.34,5.75v12.85h-2.94v-21Z"/><path class="cls-5" d="m718.17,908.75h-15.96c.17,4.79,2.48,7.48,6.93,7.48,3.82,0,5.67-1.43,5.97-4.83h2.98c-.29,4.24-3.28,7.39-9.03,7.39-7.06,0-9.83-4.66-9.83-10.88s3.23-11.22,10-11.22,8.95,3.99,8.95,10.21v1.85Zm-3.11-2.98c0-4.45-1.72-6.55-5.92-6.55s-6.55,2.65-6.89,6.97h12.81v-.42Z"/><path class="cls-5" d="m732.03,907.78c0-7.1,4.28-11.09,10.04-11.09,3.7,0,6.22,1.6,7.31,3.74h.04v-14.95h2.94v32.77h-1.97l-.67-3.61h-.08c-1.18,2.31-3.95,4.16-7.77,4.16-6.3,0-9.83-3.99-9.83-11.01Zm17.64-.5c0-5.5-3.36-8.07-7.35-8.07-3.11,0-7.14,1.47-7.14,8.4s3.61,8.61,7.14,8.61c4.24,0,7.35-2.73,7.35-8.95Z"/><path class="cls-5" d="m776.97,908.75h-15.96c.17,4.79,2.48,7.48,6.93,7.48,3.82,0,5.67-1.43,5.97-4.83h2.98c-.29,4.24-3.28,7.39-9.03,7.39-7.06,0-9.83-4.66-9.83-10.88s3.23-11.22,10-11.22,8.95,3.99,8.95,10.21v1.85Zm-3.11-2.98c0-4.45-1.72-6.55-5.92-6.55s-6.55,2.65-6.89,6.97h12.81v-.42Z"/><path class="cls-5" d="m787,892.2v5.04h5.92v2.44h-5.92v18.57h-2.94v-18.57h-4.16v-2.44h4.16v-5.42c0-5.29,3.15-6.89,6.38-6.89,1.85,0,2.98.29,3.74.55v2.6c-.71-.21-1.89-.46-3.49-.46-2.65,0-3.7,1.76-3.7,4.58Z"/><path class="cls-5" d="m795.66,912.45c0-3.95,2.23-6.09,7.86-6.09h6.34v-1.72c0-2.98-1.26-5.42-5.46-5.42-3.95,0-5.33,1.51-5.33,4.12v.88h-2.98v-.84c0-5,4.2-6.68,8.32-6.68,5.8,0,8.4,2.86,8.4,8.44v13.11h-2.06l-.55-2.98h-.08c-1.26,1.89-3.7,3.53-7.35,3.53-4.92,0-7.1-2.31-7.1-6.34Zm14.2-1.85v-1.76h-7.01c-2.65,0-4.03.92-4.03,3.61,0,2.35,1.26,3.86,4.5,3.86,4.16,0,6.55-2.14,6.55-5.71Z"/><path class="cls-5" d="m819.43,910.85v-13.61h2.94v13.27c0,4.33,2.14,5.71,5.42,5.71,3.74,0,6.55-2.69,6.55-5.63v-13.36h2.94v21h-2.6l-.25-3.36h-.08c-.97,2.02-3.23,3.91-7.23,3.91-4.66,0-7.69-2.52-7.69-7.94Z"/><path class="cls-5" d="m844.63,885.48h2.94v32.77h-2.94v-32.77Z"/><path class="cls-5" d="m865.88,915.55v2.6c-.76.21-2.14.59-4.03.59-3.82,0-6.34-1.6-6.34-6.89v-12.18h-4.16v-2.44h4.16v-6.05l2.94-1.43v7.48h5.92v2.44h-5.92v11.8c0,2.81.76,4.58,3.4,4.58,1.6,0,3.23-.29,4.03-.5Z"/><path class="cls-5" d="m869.45,912.03h3.36v6.22c0,3.95-.88,5.29-3.4,5.96l-.67-1.85c1.76-.67,2.06-1.09,2.06-3.78v-.34h-1.34v-6.22Z"/><path class="cls-5" d="m887.51,912.45c0-3.95,2.23-6.09,7.86-6.09h6.34v-1.72c0-2.98-1.26-5.42-5.46-5.42-3.95,0-5.33,1.51-5.33,4.12v.88h-2.98v-.84c0-5,4.2-6.68,8.32-6.68,5.8,0,8.4,2.86,8.4,8.44v13.11h-2.06l-.55-2.98h-.08c-1.26,1.89-3.7,3.53-7.35,3.53-4.92,0-7.1-2.31-7.1-6.34Zm14.2-1.85v-1.76h-7.01c-2.65,0-4.03.92-4.03,3.61,0,2.35,1.26,3.86,4.5,3.86,4.16,0,6.55-2.14,6.55-5.71Z"/><path class="cls-5" d="m911.99,897.24h2.6l.29,3.49c1.01-2.14,3.28-4.03,7.35-4.03,4.75,0,7.77,2.52,7.77,7.94v13.61h-2.94v-13.27c0-4.33-2.14-5.71-5.5-5.71-3.82,0-6.64,2.69-6.64,5.63v13.36h-2.94v-21Z"/><path class="cls-5" d="m935.68,907.78c0-7.1,4.28-11.09,10.04-11.09,3.7,0,6.22,1.6,7.31,3.74h.04v-14.95h2.94v32.77h-1.97l-.67-3.61h-.08c-1.18,2.31-3.95,4.16-7.77,4.16-6.3,0-9.83-3.99-9.83-11.01Zm17.64-.5c0-5.5-3.36-8.07-7.35-8.07-3.11,0-7.14,1.47-7.14,8.4s3.61,8.61,7.14,8.61c4.24,0,7.35-2.73,7.35-8.95Z"/><path class="cls-5" d="m147.94,946.08h2.39l.34,3.86h.08c1.13-2.48,4.03-4.41,7.86-4.41,6.3,0,9.66,3.99,9.66,11.01s-4.29,11.09-9.87,11.09c-3.78,0-6.38-1.6-7.43-3.7h-.08v11.55h-2.94v-29.41Zm17.18,10.63c0-7.18-3.4-8.61-6.93-8.61-4.24,0-7.56,2.73-7.56,8.44,0,6.01,3.45,8.57,7.44,8.57,3.02,0,7.06-1.47,7.06-8.4Z"/><path class="cls-5" d="m174.15,946.08h2.6l.29,3.91c1.01-2.14,3.07-4.45,6.76-4.45,1.26,0,2.18.21,3.02.55v3.15c-1.13-.5-2.1-.76-3.4-.76-3.74,0-6.34,2.81-6.34,5.75v12.85h-2.94v-21Z"/><path class="cls-5" d="m191.45,934.32h2.98v6.51h-2.98v-6.51Zm0,11.76h2.94v21h-2.94v-21Z"/><path class="cls-5" d="m201.78,946.08h2.6l.29,3.49c1.01-2.14,3.28-4.03,7.35-4.03,4.75,0,7.77,2.52,7.77,7.94v13.61h-2.94v-13.27c0-4.33-2.14-5.71-5.5-5.71-3.82,0-6.64,2.69-6.64,5.63v13.36h-2.94v-21Z"/><path class="cls-5" d="m238.11,964.4v2.6c-.76.21-2.14.59-4.03.59-3.82,0-6.34-1.6-6.34-6.89v-12.18h-4.16v-2.44h4.16v-6.05l2.94-1.43v7.48h5.92v2.44h-5.92v11.8c0,2.81.76,4.58,3.4,4.58,1.6,0,3.23-.29,4.03-.5Z"/><path class="cls-5" d="m250.71,960.66v-1.18h2.94v1.13c0,2.86,2.14,4.5,5.96,4.5s5.8-1.01,5.8-3.78c0-2.06-1.01-2.81-3.86-3.32l-4.62-.84c-3.02-.55-5.54-2.02-5.54-5.5,0-3.15,2.35-6.13,8.4-6.13s8.4,3.02,8.4,7.23v.88h-2.98v-.76c0-3.44-2.14-4.91-5.42-4.91-3.95,0-5.33,1.34-5.33,3.36s1.01,2.86,3.91,3.4l4.03.76c4.12.76,6.09,1.93,6.09,5.59,0,4.58-4.12,6.55-8.78,6.55-7.31,0-8.99-3.28-8.99-6.97Z"/><path class="cls-5" d="m285.32,964.4v2.6c-.76.21-2.14.59-4.03.59-3.82,0-6.34-1.6-6.34-6.89v-12.18h-4.16v-2.44h4.16v-6.05l2.94-1.43v7.48h5.92v2.44h-5.92v11.8c0,2.81.76,4.58,3.4,4.58,1.6,0,3.23-.29,4.03-.5Z"/><path class="cls-5" d="m290.36,946.08l6.89,17.98h.08l7.14-17.98h3.07v.04l-8.86,20.84-3.11,8.53h-2.98v-.04l3.19-8.36-8.78-20.96v-.04h3.36Z"/><path class="cls-5" d="m311.74,934.32h2.94v32.77h-2.94v-32.77Z"/><path class="cls-5" d="m339.29,957.59h-15.96c.17,4.79,2.48,7.48,6.93,7.48,3.82,0,5.67-1.43,5.97-4.83h2.98c-.29,4.24-3.28,7.39-9.03,7.39-7.06,0-9.83-4.66-9.83-10.88s3.23-11.22,10-11.22,8.95,3.99,8.95,10.21v1.85Zm-3.11-2.98c0-4.45-1.72-6.55-5.92-6.55s-6.55,2.65-6.89,6.97h12.81v-.42Z"/><path class="cls-5" d="m353.15,956.59c0-6.22,3.32-11.05,10.38-11.05,6.59,0,10.25,4.83,10.25,11.05s-3.7,11.05-10.29,11.05c-7.27,0-10.33-4.83-10.33-11.05Zm17.56,0c0-5.33-2.9-8.49-7.22-8.49-4.75,0-7.27,3.15-7.27,8.49s2.56,8.49,7.27,8.49c4.33,0,7.22-3.15,7.22-8.49Z"/><path class="cls-5" d="m379.65,946.08h2.6l.29,3.49c1.01-2.14,3.28-4.03,7.35-4.03,4.75,0,7.77,2.52,7.77,7.94v13.61h-2.94v-13.27c0-4.33-2.14-5.71-5.5-5.71-3.82,0-6.64,2.69-6.64,5.63v13.36h-2.94v-21Z"/><path class="cls-5" d="m422.28,957.59h-15.96c.17,4.79,2.48,7.48,6.93,7.48,3.82,0,5.67-1.43,5.97-4.83h2.98c-.29,4.24-3.28,7.39-9.03,7.39-7.06,0-9.83-4.66-9.83-10.88s3.23-11.22,10-11.22,8.95,3.99,8.95,10.21v1.85Zm-3.11-2.98c0-4.45-1.72-6.55-5.92-6.55s-6.55,2.65-6.89,6.97h12.81v-.42Z"/><path class="cls-5" d="m426.27,960.66v-1.18h2.94v1.13c0,2.86,2.14,4.5,5.96,4.5s5.8-1.01,5.8-3.78c0-2.06-1.01-2.81-3.86-3.32l-4.62-.84c-3.02-.55-5.54-2.02-5.54-5.5,0-3.15,2.35-6.13,8.4-6.13s8.4,3.02,8.4,7.23v.88h-2.98v-.76c0-3.44-2.14-4.91-5.42-4.91-3.95,0-5.33,1.34-5.33,3.36s1.01,2.86,3.91,3.4l4.03.76c4.12.76,6.09,1.93,6.09,5.59,0,4.58-4.12,6.55-8.78,6.55-7.31,0-8.99-3.28-8.99-6.97Z"/><path class="cls-5" d="m458.31,961.29c0-3.95,2.23-6.09,7.86-6.09h6.34v-1.72c0-2.98-1.26-5.42-5.46-5.42-3.95,0-5.33,1.51-5.33,4.12v.88h-2.98v-.84c0-5,4.2-6.68,8.32-6.68,5.8,0,8.4,2.86,8.4,8.44v13.11h-2.06l-.55-2.98h-.08c-1.26,1.89-3.7,3.53-7.35,3.53-4.92,0-7.1-2.31-7.1-6.34Zm14.2-1.85v-1.76h-7.01c-2.65,0-4.03.92-4.03,3.61,0,2.35,1.26,3.86,4.5,3.86,4.16,0,6.55-2.14,6.55-5.71Z"/><path class="cls-5" d="m482.8,946.08h2.6l.29,3.91c1.01-2.14,3.07-4.45,6.76-4.45,1.26,0,2.18.21,3.02.55v3.15c-1.13-.5-2.1-.76-3.4-.76-3.74,0-6.34,2.81-6.34,5.75v12.85h-2.94v-21Z"/><path class="cls-5" d="m516.74,957.59h-15.96c.17,4.79,2.48,7.48,6.93,7.48,3.82,0,5.67-1.43,5.97-4.83h2.98c-.29,4.24-3.28,7.39-9.03,7.39-7.06,0-9.83-4.66-9.83-10.88s3.23-11.22,10-11.22,8.95,3.99,8.95,10.21v1.85Zm-3.11-2.98c0-4.45-1.72-6.55-5.92-6.55s-6.55,2.65-6.89,6.97h12.81v-.42Z"/><path class="cls-5" d="m530.59,956.59c0-6.22,3.32-11.05,10.38-11.05,6.59,0,10.25,4.83,10.25,11.05s-3.7,11.05-10.29,11.05c-7.27,0-10.33-4.83-10.33-11.05Zm17.56,0c0-5.33-2.9-8.49-7.22-8.49-4.75,0-7.27,3.15-7.27,8.49s2.56,8.49,7.27,8.49c4.33,0,7.22-3.15,7.22-8.49Z"/><path class="cls-5" d="m554.16,946.08h4.16v-5.42c0-5.29,3.15-6.89,6.38-6.89,1.85,0,2.98.29,3.74.55v2.6c-.71-.21-1.89-.46-3.49-.46-2.65,0-3.7,1.76-3.7,4.58v5.04h11.13v-5.42c0-5.29,3.15-6.89,6.38-6.89,1.85,0,2.98.29,3.74.55v2.6c-.71-.21-1.89-.46-3.49-.46-2.65,0-3.7,1.76-3.7,4.58v5.04h5.92v2.44h-5.92v18.57h-2.94v-18.57h-11.13v18.57h-2.94v-18.57h-4.16v-2.44Z"/><path class="cls-5" d="m602.08,957.59h-15.96c.17,4.79,2.48,7.48,6.93,7.48,3.82,0,5.67-1.43,5.97-4.83h2.98c-.29,4.24-3.28,7.39-9.03,7.39-7.06,0-9.83-4.66-9.83-10.88s3.23-11.22,10-11.22,8.95,3.99,8.95,10.21v1.85Zm-3.11-2.98c0-4.45-1.72-6.55-5.92-6.55s-6.55,2.65-6.89,6.97h12.81v-.42Z"/><path class="cls-5" d="m607.96,946.08h2.6l.29,3.91c1.01-2.14,3.07-4.45,6.76-4.45,1.26,0,2.18.21,3.02.55v3.15c-1.13-.5-2.1-.76-3.4-.76-3.74,0-6.34,2.81-6.34,5.75v12.85h-2.94v-21Z"/><path class="cls-5" d="m641.9,957.59h-15.96c.17,4.79,2.48,7.48,6.93,7.48,3.82,0,5.67-1.43,5.97-4.83h2.98c-.29,4.24-3.28,7.39-9.03,7.39-7.06,0-9.83-4.66-9.83-10.88s3.23-11.22,10-11.22,8.95,3.99,8.95,10.21v1.85Zm-3.11-2.98c0-4.45-1.72-6.55-5.92-6.55s-6.55,2.65-6.89,6.97h12.81v-.42Z"/><path class="cls-5" d="m646.09,956.63c0-7.1,4.28-11.09,10.04-11.09,3.7,0,6.22,1.6,7.31,3.74h.04v-14.95h2.94v32.77h-1.97l-.67-3.61h-.08c-1.18,2.31-3.95,4.16-7.77,4.16-6.3,0-9.83-3.99-9.83-11.01Zm17.64-.5c0-5.5-3.36-8.07-7.35-8.07-3.11,0-7.14,1.47-7.14,8.4s3.61,8.61,7.14,8.61c4.24,0,7.35-2.73,7.35-8.95Z"/><path class="cls-5" d="m682.17,961.29c0-3.95,2.23-6.09,7.86-6.09h6.34v-1.72c0-2.98-1.26-5.42-5.46-5.42-3.95,0-5.33,1.51-5.33,4.12v.88h-2.98v-.84c0-5,4.2-6.68,8.32-6.68,5.8,0,8.4,2.86,8.4,8.44v13.11h-2.06l-.55-2.98h-.08c-1.26,1.89-3.7,3.53-7.35,3.53-4.92,0-7.1-2.31-7.1-6.34Zm14.2-1.85v-1.76h-7.01c-2.65,0-4.03.92-4.03,3.61,0,2.35,1.26,3.86,4.5,3.86,4.16,0,6.55-2.14,6.55-5.71Z"/><path class="cls-5" d="m704.77,960.66v-1.18h2.94v1.13c0,2.86,2.14,4.5,5.96,4.5s5.8-1.01,5.8-3.78c0-2.06-1.01-2.81-3.86-3.32l-4.62-.84c-3.02-.55-5.54-2.02-5.54-5.5,0-3.15,2.35-6.13,8.4-6.13s8.4,3.02,8.4,7.23v.88h-2.98v-.76c0-3.44-2.14-4.91-5.42-4.91-3.95,0-5.33,1.34-5.33,3.36s1.01,2.86,3.91,3.4l4.03.76c4.12.76,6.09,1.93,6.09,5.59,0,4.58-4.12,6.55-8.78,6.55-7.31,0-8.99-3.28-8.99-6.97Z"/><path class="cls-5" d="m736.81,961.29c0-3.95,2.23-6.09,7.86-6.09h6.34v-1.72c0-2.98-1.26-5.42-5.46-5.42-3.95,0-5.33,1.51-5.33,4.12v.88h-2.98v-.84c0-5,4.2-6.68,8.32-6.68,5.8,0,8.4,2.86,8.4,8.44v13.11h-2.06l-.55-2.98h-.08c-1.26,1.89-3.7,3.53-7.35,3.53-4.92,0-7.1-2.31-7.1-6.34Zm14.2-1.85v-1.76h-7.01c-2.65,0-4.03.92-4.03,3.61,0,2.35,1.26,3.86,4.5,3.86,4.16,0,6.55-2.14,6.55-5.71Z"/><path class="cls-5" d="m761.3,934.32h2.94v32.77h-2.94v-32.77Z"/><path class="cls-5" d="m782.55,964.4v2.6c-.76.21-2.14.59-4.03.59-3.82,0-6.34-1.6-6.34-6.89v-12.18h-4.16v-2.44h4.16v-6.05l2.94-1.43v7.48h5.92v2.44h-5.92v11.8c0,2.81.76,4.58,3.4,4.58,1.6,0,3.23-.29,4.03-.5Z"/><path class="cls-5" d="m804.01,957.59h-15.96c.17,4.79,2.48,7.48,6.93,7.48,3.82,0,5.67-1.43,5.97-4.83h2.98c-.29,4.24-3.28,7.39-9.03,7.39-7.06,0-9.83-4.66-9.83-10.88s3.23-11.22,10-11.22,8.95,3.99,8.95,10.21v1.85Zm-3.11-2.98c0-4.45-1.72-6.55-5.92-6.55s-6.55,2.65-6.89,6.97h12.81v-.42Z"/><path class="cls-5" d="m809.89,946.08h2.6l.29,3.91c1.01-2.14,3.07-4.45,6.76-4.45,1.26,0,2.18.21,3.02.55v3.15c-1.13-.5-2.1-.76-3.4-.76-3.74,0-6.34,2.81-6.34,5.75v12.85h-2.94v-21Z"/><path class="cls-5" d="m827.19,946.08h2.6l.29,3.49c1.01-2.14,3.28-4.03,7.35-4.03,4.75,0,7.77,2.52,7.77,7.94v13.61h-2.94v-13.27c0-4.33-2.14-5.71-5.5-5.71-3.82,0-6.64,2.69-6.64,5.63v13.36h-2.94v-21Z"/><path class="cls-5" d="m851.3,961.29c0-3.95,2.23-6.09,7.86-6.09h6.34v-1.72c0-2.98-1.26-5.42-5.46-5.42-3.95,0-5.33,1.51-5.33,4.12v.88h-2.98v-.84c0-5,4.2-6.68,8.32-6.68,5.8,0,8.4,2.86,8.4,8.44v13.11h-2.06l-.55-2.98h-.08c-1.26,1.89-3.7,3.53-7.35,3.53-4.92,0-7.1-2.31-7.1-6.34Zm14.2-1.85v-1.76h-7.01c-2.65,0-4.03.92-4.03,3.61,0,2.35,1.26,3.86,4.5,3.86,4.16,0,6.55-2.14,6.55-5.71Z"/><path class="cls-5" d="m886.54,964.4v2.6c-.76.21-2.14.59-4.03.59-3.82,0-6.34-1.6-6.34-6.89v-12.18h-4.16v-2.44h4.16v-6.05l2.94-1.43v7.48h5.92v2.44h-5.92v11.8c0,2.81.76,4.58,3.4,4.58,1.6,0,3.23-.29,4.03-.5Z"/><path class="cls-5" d="m908,957.59h-15.96c.17,4.79,2.48,7.48,6.93,7.48,3.82,0,5.67-1.43,5.97-4.83h2.98c-.29,4.24-3.28,7.39-9.03,7.39-7.06,0-9.83-4.66-9.83-10.88s3.23-11.22,10-11.22,8.95,3.99,8.95,10.21v1.85Zm-3.11-2.98c0-4.45-1.72-6.55-5.92-6.55s-6.55,2.65-6.89,6.97h12.81v-.42Z"/><path class="cls-5" d="m911.99,960.66v-1.18h2.94v1.13c0,2.86,2.14,4.5,5.96,4.5s5.8-1.01,5.8-3.78c0-2.06-1.01-2.81-3.86-3.32l-4.62-.84c-3.02-.55-5.54-2.02-5.54-5.5,0-3.15,2.35-6.13,8.4-6.13s8.4,3.02,8.4,7.23v.88h-2.98v-.76c0-3.44-2.14-4.91-5.42-4.91-3.95,0-5.33,1.34-5.33,3.36s1.01,2.86,3.91,3.4l4.03.76c4.12.76,6.09,1.93,6.09,5.59,0,4.58-4.12,6.55-8.78,6.55-7.31,0-8.99-3.28-8.99-6.97Z"/></g><g id="palabras"><path class="cls-5" d="m1140.71,2519.01h3.23l11.51,20.92h.08l11.51-20.92h3.23v32.77h-2.94v-27.85h-.04l-10.75,19.91h-2.06l-10.8-19.91h-.04v27.85h-2.94v-32.77Z"/><path class="cls-5" d="m1177.21,2541.27c0-6.22,3.32-11.05,10.38-11.05,6.6,0,10.25,4.83,10.25,11.05s-3.7,11.05-10.29,11.05c-7.27,0-10.33-4.83-10.33-11.05Zm17.56,0c0-5.33-2.9-8.49-7.23-8.49-4.75,0-7.27,3.15-7.27,8.49s2.56,8.49,7.27,8.49c4.33,0,7.23-3.15,7.23-8.49Z"/><path class="cls-5" d="m1202.03,2541.32c0-7.1,4.29-11.09,10.04-11.09,3.7,0,6.22,1.6,7.31,3.74h.04v-14.95h2.94v32.77h-1.97l-.67-3.61h-.08c-1.18,2.31-3.95,4.16-7.77,4.16-6.3,0-9.83-3.99-9.83-11.01Zm17.64-.5c0-5.5-3.36-8.07-7.35-8.07-3.11,0-7.14,1.47-7.14,8.4s3.61,8.61,7.14,8.61c4.24,0,7.35-2.73,7.35-8.95Z"/><path class="cls-5" d="m1246.98,2542.28h-15.96c.17,4.79,2.48,7.48,6.93,7.48,3.82,0,5.67-1.43,5.96-4.83h2.98c-.29,4.24-3.28,7.39-9.03,7.39-7.06,0-9.83-4.66-9.83-10.88s3.23-11.22,10-11.22,8.95,3.99,8.95,10.21v1.85Zm-3.11-2.98c0-4.45-1.72-6.55-5.92-6.55s-6.55,2.65-6.89,6.97h12.81v-.42Z"/><path class="cls-5" d="m1252.85,2530.77h2.6l.29,3.91c1.01-2.14,3.07-4.45,6.76-4.45,1.26,0,2.18.21,3.02.55v3.15c-1.13-.5-2.1-.76-3.4-.76-3.74,0-6.34,2.81-6.34,5.75v12.85h-2.94v-21Z"/><path class="cls-5" d="m1268.48,2545.98c0-3.95,2.23-6.09,7.86-6.09h6.34v-1.72c0-2.98-1.26-5.42-5.46-5.42-3.95,0-5.33,1.51-5.33,4.12v.88h-2.98v-.84c0-5,4.2-6.68,8.32-6.68,5.8,0,8.4,2.86,8.4,8.44v13.11h-2.06l-.55-2.98h-.08c-1.26,1.89-3.7,3.53-7.35,3.53-4.92,0-7.1-2.31-7.1-6.34Zm14.2-1.85v-1.76h-7.01c-2.65,0-4.03.92-4.03,3.61,0,2.35,1.26,3.86,4.5,3.86,4.16,0,6.55-2.14,6.55-5.71Z"/><path class="cls-5" d="m1303.72,2549.09v2.6c-.76.21-2.14.59-4.03.59-3.82,0-6.34-1.6-6.34-6.89v-12.18h-4.16v-2.44h4.16v-6.05l2.94-1.43v7.48h5.92v2.44h-5.92v11.8c0,2.81.76,4.58,3.4,4.58,1.6,0,3.23-.29,4.03-.5Z"/><path class="cls-5" d="m1325.18,2542.28h-15.96c.17,4.79,2.48,7.48,6.93,7.48,3.82,0,5.67-1.43,5.96-4.83h2.98c-.29,4.24-3.28,7.39-9.03,7.39-7.06,0-9.83-4.66-9.83-10.88s3.23-11.22,10-11.22,8.95,3.99,8.95,10.21v1.85Zm-3.11-2.98c0-4.45-1.72-6.55-5.92-6.55s-6.55,2.65-6.89,6.97h12.81v-.42Z"/><path class="cls-5" d="m1338.83,2545.35v-1.18h2.94v1.13c0,2.86,2.14,4.5,5.96,4.5s5.8-1.01,5.8-3.78c0-2.06-1.01-2.81-3.87-3.32l-4.62-.84c-3.02-.55-5.54-2.02-5.54-5.5,0-3.15,2.35-6.13,8.4-6.13s8.4,3.02,8.4,7.22v.88h-2.98v-.76c0-3.44-2.14-4.91-5.42-4.91-3.95,0-5.33,1.34-5.33,3.36s1.01,2.86,3.91,3.4l4.03.76c4.12.76,6.09,1.93,6.09,5.59,0,4.58-4.12,6.55-8.78,6.55-7.31,0-8.99-3.28-8.99-6.97Z"/><path class="cls-5" d="m1362.47,2519.01h2.94v32.77h-2.94v-32.77Z"/><path class="cls-5" d="m1371.5,2545.98c0-3.95,2.23-6.09,7.86-6.09h6.34v-1.72c0-2.98-1.26-5.42-5.46-5.42-3.95,0-5.33,1.51-5.33,4.12v.88h-2.98v-.84c0-5,4.2-6.68,8.32-6.68,5.8,0,8.4,2.86,8.4,8.44v13.11h-2.06l-.55-2.98h-.08c-1.26,1.89-3.7,3.53-7.35,3.53-4.91,0-7.1-2.31-7.1-6.34Zm14.2-1.85v-1.76h-7.02c-2.65,0-4.03.92-4.03,3.61,0,2.35,1.26,3.86,4.5,3.86,4.16,0,6.55-2.14,6.55-5.71Z"/><path class="cls-5" d="m1395.99,2530.77h2.6l.29,3.49c1.01-2.14,3.28-4.03,7.35-4.03,4.75,0,7.77,2.52,7.77,7.94v13.61h-2.94v-13.27c0-4.33-2.14-5.71-5.5-5.71-3.82,0-6.64,2.69-6.64,5.63v13.36h-2.94v-21Z"/><path class="cls-5" d="m1432.32,2549.09v2.6c-.76.21-2.14.59-4.03.59-3.82,0-6.34-1.6-6.34-6.89v-12.18h-4.16v-2.44h4.16v-6.05l2.94-1.43v7.48h5.92v2.44h-5.92v11.8c0,2.81.76,4.58,3.4,4.58,1.6,0,3.23-.29,4.03-.5Z"/><polygon class="cls-8" points="1259.42 2474.59 1320.76 2474.59 1454.26 1953.54 1392.93 1953.54 1259.42 2474.59"/><path class="cls-6" d="m528.85,201.75c6.86,0,12.66,4.22,14.24,10.55l66.46,324.36v3.17c0,6.86-5.27,13.71-13.71,13.71-6.33,0-12.13-4.75-13.18-11.07,0,0-12.13-59.6-25.85-125.52h-123.94c-37.97,67.51-72.25,129.22-72.25,129.22-2.64,4.75-7.38,7.38-12.13,7.38-7.91,0-14.24-6.85-14.24-13.71,0-2.11,1.06-4.75,2.11-6.86l180.9-324.36c2.11-4.22,6.86-6.86,11.6-6.86Zm-80.69,187.23h102.85c-11.61-55.38-23.21-110.23-27.95-134.49l-74.89,134.49Z"/><path class="cls-5" d="m864.84,391.62c0,6.86-5.81,13.19-13.19,13.19h-116.03l-79.64,310.12c-2.11,6.33-6.86,10.02-12.66,10.02-7.91,0-13.19-5.8-13.19-13.19,0-1.05,0-1.58.53-3.16l78.06-303.79h-40.61c-7.91,0-13.19-6.33-13.19-13.19,0-7.38,5.27-13.19,13.19-13.19h47.47l26.37-95.99c14.77-53.79,37.98-79.64,77.01-79.64,13.18,0,33.75,4.75,42.19,25.84.53,1.58,1.05,3.16,1.05,4.75,0,6.86-5.27,13.19-13.18,13.19-5.81,0-10.02-3.17-12.13-8.44-4.22-10.02-17.41-8.97-18.99-8.97-23.21.53-37.97,13.71-50.1,58.54l-25.31,90.72h109.17c7.38,0,13.19,5.8,13.19,13.19Z"/><path class="cls-5" d="m820.55,547.21c-1.58,5.8-6.33,10.02-12.66,10.02-7.38,0-13.18-6.86-13.18-13.19,0-1.58,0-2.11.53-3.69l11.07-40.61c0-2.11.53-4.22,1.58-6.86l30.06-108.65c1.58-5.27,7.38-8.44,13.18-8.44,8.97,0,13.71,7.39,13.19,14.24,7.91-8.97,20.57-17.93,33.75-17.93,45.89,0,35.86,43.25,70.67,51.69,6.86,1.58,10.02,7.39,10.02,13.19,0,7.91-6.86,12.66-14.24,12.66-41.14,0-40.08-51.16-68.04-51.16-20.57,0-47.99,50.63-63.29,102.85l-12.66,45.88Z"/><path class="cls-5" d="m1103.25,526.11c0,3.69-2.11,8.44-4.75,10.55-3.69,2.64-18.98,18.99-43.25,18.99-7.91,0-41.14-7.91-41.14-63.82,0-14.24,2.11-30.59,6.86-49.05l2.11-8.44c-17.41,10.55-35.86,15.29-49.58,15.29-10.55,0-19.51-2.64-19.51-13.18,0-7.91,5.27-12.66,12.66-12.66h5.27c12.66,0,49.58.53,67.51-43.77,2.11-4.22,4.22-7.91,11.61-7.91,11.07,0,15.82,9.49,13.71,16.88l-18.46,60.13c-4.75,18.46-6.33,32.17-6.33,42.72,0,34.81,15.82,37.45,17.4,37.45,11.61,0,25.32-16.35,32.7-16.35,4.22,0,7.91,1.58,10.55,5.27,1.58,2.64,2.63,4.75,2.63,7.91Zm-48.52-214.13c0-8.44,7.91-16.35,16.87-16.35,9.5,0,16.88,7.91,16.88,16.35,0,9.49-7.38,16.88-16.88,16.88-8.97,0-16.87-7.38-16.87-16.88Z"/><path class="cls-5" d="m1306.84,530.33c0,10.55-24.79,24.79-38.5,24.79-18.98,0-33.75-16.88-53.27-52.74l-23.21-42.19-22.15,83.33c-1.58,5.8-6.86,9.49-12.66,9.49-7.39,0-13.19-5.8-13.19-13.19,0-1.05,0-2.11.53-3.17l16.35-60.12c-16.35,15.82-33.75,35.86-63.29,61.71-2.63,2.11-5.8,3.17-8.44,3.17-7.91,0-13.71-5.8-13.71-13.19,0-3.69,1.58-7.38,4.74-9.49,66.98-57.49,88.08-88.61,95.46-98.63l54.33-207.27c1.05-5.8,7.38-9.49,13.18-9.49,7.38,0,12.66,7.38,12.66,13.71v2.64l-43.25,165.08c9.49-7.38,24.26-12.66,36.92-12.66,40.61,0,44.3,30.59,44.3,35.86,0,31.12-42.72,49.58-72.78,52.74l17.94,30.59c16.87,29.54,24.26,36.92,27.95,37.97,4.75,0,9.5-3.69,19.51-10.02,2.64-1.58,5.27-2.64,7.91-2.64,3.69,0,7.38,1.05,10.02,4.22,2.11,2.64,2.64,6.33,2.64,9.49Zm-107.06-97.04c3.16,1.05,7.38,1.58,12.13,1.58,32.7,0,55.38-15.29,55.38-24.79,0-6.86-3.69-11.6-17.93-11.6-21.1,0-40.09,14.24-49.58,34.81Z"/><path class="cls-5" d="m1583.75,527.69c0,3.69-1.58,6.86-4.22,9.49-.53.53-18.98,19.51-45.35,19.51-34.81,0-42.19-22.68-43.78-42.19-30.06,30.59-58.01,42.19-79.64,42.19-33.75,0-56.43-25.32-57.49-61.71-9.49,10.02-17.93,16.35-26.9,24.26-6.33,5.8-21.1,22.15-30.06,22.15-6.33,0-13.18-5.8-13.18-13.19,0-3.17,1.58-7.38,4.74-9.49,35.86-32.17,43.25-33.75,89.66-92.3,41.14-51.69,83.86-53.79,121.3-53.79,21.1,0,35.86,3.69,36.39,3.69,8.44,2.64,10.55,10.02,9.5,16.88-.53,2.64,2.11-6.86-22.15,74.89-2.11,6.33-6.33,27.95-6.33,38.5,0,12.13.53,23.73,14.77,23.73,16.88,0,30.06-12.13,30.06-12.13,2.64-2.64,5.8-3.69,9.49-3.69,3.17,0,6.86,1.06,8.97,4.22,2.64,2.11,4.22,5.8,4.22,8.97Zm-173,3.17c21.1,0,51.69-18.46,84.39-63.29l2.11-6.86c10.55-34.81,12.66-47.99,16.88-61.71-4.22-.53-10.02-.53-15.82-.53-26.37,0-62.23-2.11-92.3,34.28-19.51,23.73-26.37,42.19-26.37,60.65,0,14.77,5.8,26.37,14.24,32.17,4.75,3.69,10.55,5.27,16.87,5.27Z"/><path class="cls-6" d="m719.82,1397.62c0,14.69-30.43,27.81-46.17,27.81-48.27,0-57.19-32-57.19-79.22,0-26.23,2.1-62.44,4.72-99.17h-49.32l-81.32,140.61c-.52,2.1-22.03,37.78-61.91,37.78-43.02,0-44.07-40.92-44.07-47.22,0-7.35,5.25-13.64,13.12-13.64,23.61,0,.52,34.63,30.95,34.63,24.66,0,39.35-24.14,39.35-24.14l73.97-128.54c-36.72,0-41.97.52-41.97-13.64,0-6.82,5.77-13.12,13.64-13.12,12.07,0,27.29.53,43.03.53l80.8-140.09c2.1-4.2,6.3-6.82,11.02-6.82,7.34,0,14.17,6.82,14.17,14.17v1.57c-4.2,38.3-8.92,86.05-13.12,131.69,24.14.52,43.03-1.57,50.89-1.57s14.69,4.72,14.69,13.12c0,16.79-19.41,14.69-67.68,14.69-3.15,39.87-5.25,77.13-5.25,100.74,0,43.02,9.97,51.42,29.38,51.42,14.17,0,26.23-14.69,35.15-14.69,3.67,0,6.82,1.05,9.44,3.67,2.62,2.62,3.67,5.77,3.67,9.44Zm-96.54-176.81c2.1-27.28,4.72-53.52,7.35-76.6l-44.07,76.6h36.72Z"/><path class="cls-5" d="m792.24,1393.95c0,4.72,3.15,9.44,9.97,9.44s16.27-3.67,28.86-13.12c2.62-1.57,5.77-2.62,8.39-2.62,6.82,0,12.6,5.77,12.6,13.12,0,14.69-33.58,28.86-51.42,28.86-21.51,0-34.63-15.21-34.63-37.78,0-7.34,4.2-22.56,13.11-58.76-19.41,26.76-43.02,56.66-67.68,77.65-2.62,2.1-5.77,3.67-8.4,3.67-7.34,0-13.64-5.77-13.64-13.12,0-3.67,1.57-7.34,4.72-9.97,54.04-47.22,105.46-139.56,105.98-140.09,0-.53.52-1.05.52-1.05l42.5-162.65c1.05-5.25,6.82-9.44,12.59-9.44,7.87,0,13.11,6.3,13.11,13.12,0,1.05,0,2.1-.52,3.15l-72.93,278.6c-2.1,8.39-3.15,12.59-3.15,20.99Z"/><path class="cls-5" d="m908.73,1375.59c-5.77,22.56,6.29,28.86,17.84,28.86s23.09-5.24,33.58-14.69c2.1-2.1,5.77-3.67,8.4-3.67,7.87,0,13.11,6.3,13.11,13.12,0,13.64-32,32-57.19,32-33.58,0-50.37-20.46-43.55-52.47-8.92,11.02-29.38,35.68-40.92,35.68-7.34,0-13.11-5.77-13.11-13.12,0-3.67,1.57-7.34,4.72-9.97,31.48-25.71,50.89-54.04,68.73-84.47l7.34-28.33h-18.88c-7.35,0-13.12-6.3-13.12-13.12,0-7.34,5.77-13.12,13.12-13.12h26.23l17.84-69.26c1.57-5.77,6.29-9.44,12.06-9.44,7.87,0,13.12,5.77,13.12,12.59v3.67l-16.26,62.43h27.28c7.34,0,13.11,5.77,13.11,13.12,0,6.82-5.77,13.12-13.11,13.12h-34.1l-26.23,97.06Z"/><path class="cls-5" d="m1193.62,1265.4c0,6.82-5.77,13.12-13.11,13.12h-115.43l-79.75,309.03c-1.57,6.3-6.82,9.97-12.59,9.97-7.34,0-13.11-5.77-13.11-13.12,0-1.05,0-1.57.52-3.15l54.57-211.97c-14.69,18.36-38.3,45.64-48.8,45.64-6.82,0-13.11-6.3-13.11-13.12,0-3.67,2.1-7.34,4.72-9.97,28.86-25.18,56.14-62.96,75.03-90.24l5.77-23.09h-40.92c-7.34,0-13.11-6.3-13.11-13.12,0-7.34,5.77-13.12,13.11-13.12h47.75l26.23-95.49c14.69-53.52,37.25-79.22,76.6-79.22,12.6,0,33.58,4.72,41.98,25.71,0,1.57.52,3.15.52,4.72,0,6.82-4.72,13.12-13.11,13.12-5.25,0-9.97-3.15-12.07-8.4-4.2-9.97-17.32-8.92-18.36-8.92-23.61.53-37.78,13.64-49.84,58.24l-25.19,90.24h108.61c7.34,0,13.11,5.77,13.11,13.12Z"/><path class="cls-5" d="m1248.2,1384.51c-17.32,22.04-52.47,46.17-82.37,46.17-15.22,0-50.89-6.3-50.89-69.26,0-29.38,9.44-57.19,30.95-80.28,21.51-22.56,47.75-35.15,75.03-35.15,24.66,0,39.35,8.92,49.84,22.56,16.79,19.94,40.4,26.76,50.89,28.86,6.29,1.05,10.49,6.3,10.49,12.59,0,9.44-6.82,13.11-14.69,13.11-9.97,0-24.66-4.2-37.25-13.64-1.05,22.04-9.97,46.7-32,75.03Zm6.3-80.8c0-2.62,0-5.24-.53-7.87v-1.05c0-2.1-3.67-22.56-33.05-22.56-30.96,0-79.75,29.38-79.75,89.19,0,43.02,18.36,43.02,24.66,43.02,20.98,0,48.27-18.89,61.38-35.68,18.89-25.18,27.29-46.17,27.29-65.06Z"/><path class="cls-5" d="m1380.43,1258.06c1.57-6.3,7.34-8.4,13.64-8.4,8.4,0,13.12,7.35,12.6,14.17,8.39-8.92,20.98-17.84,33.58-17.84,46.17,0,35.68,43.02,70.3,51.42,7.34,1.57,9.97,7.35,9.97,13.12,0,7.87-6.82,12.59-14.17,12.59-40.92,0-39.88-50.89-67.68-50.89-19.94,0-47.22,50.37-62.96,102.31l-12.07,45.64c-1.57,5.77-7.34,9.97-12.59,9.97-11.02,0-13.64-6.82-13.64-13.12,0-1.57,0-2.1.53-3.67l10.49-38.83c1.05-4.2,2.1-8.4,3.67-14.17l12.06-44.07c-10.49,4.72-23.09,6.82-38.82,6.82-11.02,0-26.76-.52-26.76-14.17,0-7.34,6.3-13.11,13.12-13.11,4.72,0,9.44,1.05,13.64,1.05,33.05,0,49.31-20.46,49.84-20.46l5.25-18.36Z"/><path class="cls-6" d="m463.38,2263.04c7.41,0,13.22,5.82,13.22,13.23,0,15.34-31.21,27.51-46.56,27.51-26.45,0-43.38-11.64-56.08-38.09-44.97,33.33-76.71,38.62-93.11,38.62-63.49,0-89.94-81.48-89.94-140.2,0-27.51,5.29-57.67,17.46-89.94,46.03-119.57,127.5-130.68,130.68-131.21,2.12-.53,5.29-.53,7.94-.53,15.87,0,39.15,5.82,54.49,24.87,16.4-15.87,30.16-24.34,43.91-24.34,22.75,0,37.56,26.45,37.56,82,0,62.96-21.16,153.96-87.82,223.79,10.58,25.93,21.16,28.57,34.92,28.57,7.41,0,17.99-4.23,24.34-10.58,2.12-2.65,5.82-3.71,8.99-3.71Zm-98.93-22.75c-7.94-25.92-20.64-75.66-20.64-118.51,0-51.85,17.46-99.47,40.74-132.79-11.11-17.99-30.16-20.11-38.1-20.11h-4.23c-2.64.53-69.84,10.58-109.51,114.81-11.11,29.1-15.34,56.61-15.34,80.95,0,66.66,33.33,113.22,57.67,113.22,38.1,0,70.37-23.81,89.42-37.56Zm92.58-215.33c0-38.09-8.99-53.44-11.11-55.55-26.98,0-76.19,77.77-76.19,152.37,0,35.98,10.58,76.71,16.41,97.35,49.73-58.73,70.89-135.97,70.89-194.17Z"/><path class="cls-5" d="m698.31,2187.91c0,7.94-6.88,12.7-14.28,12.7-41.27,0-40.21-51.32-68.25-51.32-20.64,0-48.14,50.79-63.49,103.17l-12.7,46.03c-1.59,5.82-6.35,10.05-12.7,10.05-7.41,0-13.23-6.88-13.23-13.23,0-1.59,0-2.12.53-3.7l11.11-40.74c0-2.12,1.05-4.23,1.59-6.88l7.93-29.63c-18.52,25.92-41.27,53.96-65.07,74.6-2.65,2.12-5.82,3.7-8.99,3.7-7.41,0-13.23-6.35-13.23-13.23,0-3.7,1.59-7.41,4.76-10.05,48.14-41.8,94.17-116.4,104.76-134.38,2.12-5.29,7.41-8.47,13.22-8.47,8.99,0,13.76,7.41,13.23,14.28,7.93-8.99,20.63-17.99,33.86-17.99,46.02,0,35.98,43.38,70.89,51.85,6.88,1.59,10.05,7.41,10.05,13.23Z"/><path class="cls-5" d="m932.69,2187.38c0,8.46-6.88,13.22-14.28,13.22-2.64,0-28.57,0-49.2-20.1-29.63,123.27-77.77,126.45-90.47,126.45-37.04,0-53.44-21.16-53.44-45.5,0-8.99,2.12-15.87,3.18-18.52l15.34-64.02c-13.22,12.7-29.1,21.69-47.62,21.69-8.99,0-16.4-3.7-16.4-13.22,0-7.41,6.35-12.7,13.23-12.7,37.56,0,64.54-57.14,74.6-86.77l32.8-124.86c1.59-5.82,6.35-9.52,12.7-9.52,7.94,0,13.23,5.82,13.23,12.7,0,1.06,0,2.12-.53,3.18l-33.33,126.45-39.15,155.02c-.53,2.12-1.59,6.35-1.59,10.58,0,17.46,14.81,19.05,23.28,19.05,4.23,0,42.32,4.76,69.31-107.93,2.64-7.41,1.59-52.38,20.1-52.38,7.93,0,13.22,6.88,13.22,13.76,0,2.12-1.05,6.35-1.05,8.99,10.58,30.68,38.09,30.68,44.44,31.74,6.35.53,11.64,6.35,11.64,12.7Z"/><path class="cls-5" d="m1153.32,2187.38c0,8.99-6.88,13.22-14.81,13.22-10.05,0-22.75-2.65-37.56-15.34-2.12,22.75-10.58,48.67-32.81,77.24-17.45,22.22-52.38,46.56-83.06,46.56-5.82,0-14.82-1.06-23.81-5.82l-.53.53c-2.64,3.18-5.82,4.23-10.05,4.23-7.93,0-12.7-6.35-12.7-12.7,0-3.18.53-6.35,2.65-8.47l2.64-2.65c-5.82-11.11-9.52-24.87-9.52-46.03,0-14.81,2.12-28.04,6.35-39.68-7.41,2.12-15.87,2.12-24.87,2.12-6.88,0-14.82-4.23-14.82-13.22,0-7.41,6.35-12.7,14.28-12.7h.53c31.74,0,48.14-19.58,50.26-21.69,21.16-21.69,47.61-31.74,75.65-31.74,14.28,0,27.51,4.76,35.98,10.05l4.76-5.29c2.65-3.18,6.35-4.76,10.58-4.76,6.88,0,12.7,5.82,12.7,12.7,0,3.17-1.05,6.35-3.18,8.99l-5.82,6.88c23.81,20.11,40.21,23.81,46.03,24.87,6.35.53,11.11,6.35,11.11,12.7Zm-189.93,74.07l96.82-110.05c-4.23-2.12-11.64-3.7-18.52-3.7-32.81,0-80.42,20.11-80.42,97.35,0,6.35.53,11.64,2.12,16.4Zm111.1-86.24l-94.7,106.87c2.64.53,4.76.53,5.82.53,21.16,0,48.67-19.05,62.43-35.98,21.16-28.04,26.45-51.32,26.45-71.42Z"/><path class="cls-5" d="m1377.12,2265.16c6.88,0,13.22,5.82,13.22,12.7,0,15.34-34.39,29.63-51.31,29.63-13.76,0-35.45-6.88-36.51-38.62-28.04,27.51-54.49,38.09-76.19,38.09-33.86,0-59.25-26.45-59.25-65.07,0-13.76,3.18-28.57,10.58-43.91-6.88,1.59-14.81,2.65-23.28,2.65-11.64,0-34.92,1.59-34.92-13.75,0-7.94,6.88-13.23,13.76-13.23,7.41,0,14.81,1.06,21.16,1.06,37.04,0,56.08-17.46,57.14-19.05,34.39-30.16,77.24-32.8,103.7-32.8,8.47,0,15.87.53,21.16,1.06l42.33-160.31c2.12-5.82,6.88-10.05,12.7-10.05,7.93,0,13.22,6.35,13.22,13.76,0,.53-.53,2.12-.53,2.65l-71.95,280.93c-1.06,4.23-3.7,14.28-3.7,19.05,0,6.88,5.82,10.58,10.58,10.58,7.93,0,20.1-4.23,29.1-12.7,2.64-2.12,5.82-2.65,8.99-2.65Zm-150.79,15.34c22.75,0,53.97-18.52,86.77-64.02l16.93-66.66c-4.76-.53-10.58-.53-16.93-.53-29.63,0-74.07,3.17-104.76,48.14-10.58,15.34-14.81,31.21-14.81,44.44,0,15.34,5.29,26.98,14.81,33.33,5.29,3.18,11.11,5.29,17.99,5.29Z"/><path class="cls-5" d="m1528.98,2277.32c0,3.71-1.05,7.41-4.23,9.52-4.76,4.23-23.81,20.11-39.68,20.11-12.7,0-46.03-8.99-46.03-62.96,0-2.65.53-5.29.53-7.94-26.45,33.86-52.38,52.91-53.96,53.97-2.65,1.59-5.29,2.65-7.94,2.65-6.88,0-13.22-5.82-13.22-12.7,0-4.23,2.12-8.99,5.82-11.64,1.06-.53,62.96-38.62,89.94-120.63l3.17-11.64c1.59-5.82,6.88-9.52,12.7-9.52,7.41,0,13.22,5.82,13.22,13.23,0,1.06,0,2.12-.53,3.18,0,1.06-1.06,4.23-16.41,57.14-5.29,18.52-6.35,32.8-6.35,43.38,0,15.87,3.18,25.4,6.88,29.63,4.23,6.35,10.05,7.41,10.05,7.41,10.05,0,24.87-16.4,33.33-16.4,3.18,0,6.88,1.59,9.52,4.23,2.12,2.65,3.18,5.82,3.18,8.99Zm-47.62-214.8c0-8.46,7.41-16.4,16.93-16.4,8.99,0,16.93,7.94,16.93,16.4,0,9.52-7.93,16.93-16.93,16.93-9.52,0-16.93-7.41-16.93-16.93Z"/><path class="cls-5" d="m1723.16,2250.34c-13.76,72.48-50.27,228.03-124.33,228.03-44.44,0-57.14-33.86-57.14-59.25,0-13.23,3.7-20.1,13.75-20.1,7.41,0,13.23,5.82,13.23,12.7,0,2.12-.53,4.23-.53,8.46,0,14.82,5.29,31.74,31.74,31.74,37.04,0,74.6-93.64,92.06-180.94-27.51,25.92-52.91,35.98-74.07,35.98-31.74,0-55.02-22.75-59.25-55.55-13.22,16.4-34.39,41.27-44.97,41.27-6.88,0-13.22-6.35-13.22-13.23,0-3.7,1.58-7.41,4.76-10.05,28.57-24.87,57.14-62.96,75.13-90.47q.53-.53.53-1.06c39.15-55.55,92.05-55.02,126.97-55.02,19.58,0,32.8,3.18,33.33,3.18,5.82,2.12,10.05,6.35,10.05,12.7v3.7l-28.04,107.93Zm-105.29,30.16c22.75,0,53.44-17.99,86.77-63.49l17.46-67.72c-4.76,0-10.05-.53-15.87-.53-30.16,0-73.54-1.06-106.34,48.67-10.58,15.87-15.34,31.21-15.34,44.44,0,15.34,5.82,26.98,15.34,33.33,5.29,3.18,11.64,5.29,17.99,5.29Z"/><path class="cls-5" d="m553.43,3019.55c0,6.75-5.72,12.98-12.99,12.98h-106.99l-57.65,231.65c-7.79,30.64-41.85,85.7-109.38,85.7-46.74,0-45.92-34.28-47.48-51.94-.52-6.75,5.19-14.02,12.47-14.02s12.46,4.68,13.5,12.46c.52,4.16,8.31,27.53,40.51,27.53,47.26,0,59.73-43.11,65.45-66.48l56.09-224.9h-68.04c-7.27,0-12.98-6.23-12.98-12.98,0-7.27,5.71-12.98,12.98-12.98h74.27l36.88-148.55h-5.19c-23.89,0-44.15-5.72-45.71-6.23-5.71-1.04-9.35-6.23-9.35-12.46,0-6.75,6.23-12.46,12.98-12.46,1.04,0,2.6,0,3.64.52.52,0,17.66,5.19,38.95,5.19,6.75,0,14.02-2.08,20.78-2.08,9.86,0,16.62,3.64,13.5,16.1l-39.99,159.97h100.76c7.27,0,12.99,5.71,12.99,12.98Z"/><path class="cls-5" d="m720.69,3063.7c0,8.83-6.23,12.99-14.55,12.99-7.27,0-22.33-3.12-36.35-15.06-1.56,22.33-9.87,47.78-31.69,75.83-17.14,21.82-51.94,45.71-81.54,45.71-6.75,0-18.18-1.56-28.57-9.35l-3.11,4.16c-2.6,3.11-6.23,4.15-9.87,4.15-6.75,0-12.98-5.19-12.98-12.46,0-2.6,1.04-6.23,3.11-8.31l7.79-8.83c-4.16-9.35-6.23-22.33-6.23-38.43,0-43.11,17.66-71.16,33.24-86.73,19.22-20.26,46.23-28.57,71.68-28.57,10.91,0,22.33,3.12,30.12,6.75l2.08-2.08c2.59-3.12,6.23-4.68,10.39-4.68,6.75,0,12.46,5.71,12.46,12.46,0,3.12-1.04,6.23-3.12,8.83l-2.08,2.08c25.45,27.01,42.07,27.01,48.3,29.08,6.75,1.56,10.91,6.23,10.91,12.46Zm-187.5,64.41l90.89-101.8c-4.15-.52-8.31-1.56-12.46-1.56-32.2,0-78.95,20.26-78.95,95.57,0,3.11.52,5.71.52,7.79Zm111.15-72.19c0-4.16-.52-7.79-1.04-11.95l-98.16,110.63c4.68,2.6,9.35,2.6,11.43,2.6,20.78,0,47.78-18.7,60.77-35.32,19.21-24.93,27.01-47.26,27.01-65.96Z"/><path class="cls-5" d="m768.48,3012.28c1.56-6.23,7.27-8.31,13.5-8.31,8.31,0,12.99,7.27,12.47,14.02,8.31-8.83,20.77-17.66,33.24-17.66,45.71,0,35.32,42.59,69.59,50.9,7.27,1.56,9.87,7.27,9.87,12.99,0,7.79-6.75,12.46-14.02,12.46-40.51,0-39.48-50.38-67-50.38-19.74,0-46.75,49.86-62.33,101.28l-11.95,45.19c-1.56,5.71-7.27,9.86-12.46,9.86-10.91,0-13.51-6.75-13.51-12.98,0-1.56,0-2.08.52-3.64l10.39-38.43c1.04-4.16,2.08-8.31,3.64-14.02l11.94-43.63c-10.38,4.68-22.85,6.75-38.43,6.75-10.91,0-26.49-.52-26.49-14.02,0-7.27,6.23-12.99,12.99-12.99,4.67,0,9.35,1.04,13.51,1.04,32.72,0,48.82-20.26,49.34-20.26l5.19-18.18Z"/><path class="cls-5" d="m949.23,3008.65c2.08-5.19,6.75-8.83,11.95-8.83,7.27,0,12.98,6.23,12.98,12.98,0,9.35-16.1,44.67-22.33,75.83,0,1.55-.52,2.08-1.04,3.64-3.12,12.98-4.68,24.93-4.68,33.76,0,27.53,15.06,29.61,29.61,29.61,12.46,0,54.53-23.38,75.83-90.89,15.06-50.9,16.62-55.06,16.62-55.06,2.08-6.23,7.27-9.86,12.98-9.86,8.83,0,14.02,7.79,12.47,15.58-.52,2.59-1.56,2.08-25.45,83.62-4.15,14.55-5.19,24.93-5.19,32.72,0,23.89,11.43,23.89,14.02,23.89,4.68,0,21.29-15.06,28.56-15.06,3.64,0,7.28,1.56,10.39,4.68,1.56,2.59,2.08,5.19,2.08,7.79,0,8.31-23.38,28.05-39.48,28.57,0,0-33.76,2.59-41.03-38.96-21.3,24.93-46.23,38.96-66.48,38.96-29.61,0-50.38-18.18-50.38-55.58,0-14.54,3.12-34.8,8.31-54.02-7.79,2.6-16.62,4.68-26.49,4.68-10.39,0-22.33-1.56-22.33-13.51,0-7.79,6.23-12.46,12.98-12.46,3.12,0,6.75.52,9.35.52,24.93,0,36.88-18.18,41.03-28.05,2.59-7.27,4.67-12.46,5.71-14.54Z"/><path class="cls-5" d="m1380.34,3155.12c0,4.15-1.56,7.79-4.68,10.38-4.68,4.16-22.33,17.14-37.4,17.14-27.01,0-39.47-19.22-39.47-44.66,0-30.65,16.62-65.96,16.62-99.2,0-7.27-4.67-12.46-14.02-12.46-20.25,0-61.29,5.19-106.47,86.22l-16.11,56.09c-1.56,5.72-6.75,9.35-12.46,9.35-7.27,0-12.98-6.23-12.98-12.99,0-1.56,0-2.08.52-3.64l15.06-51.94v-1.04c0-1.56,1.04-4.16,1.56-5.71l3.64-10.39c-18.7,24.93-40.51,51.94-63.37,71.68-2.59,2.08-5.19,3.11-8.83,3.11-6.75,0-12.98-5.71-12.98-12.98,0-3.12,2.08-7.27,4.68-9.35,49.86-43.63,97.12-119.98,103.88-132.45,1.56-5.71,7.27-8.31,12.98-8.31,8.83,0,14.55,7.79,11.43,17.66l-6.75,23.38c35.84-37.4,66.48-44.67,86.22-44.67,25.45,0,39.99,11.95,39.99,39.48,0,30.12-16.62,67.52-16.62,98.68,0,8.83-.52,18.7,14.02,18.7,6.75,0,20.78-14.55,28.56-14.55,4.15,0,7.79,1.56,10.39,4.16,2.08,2.59,2.6,5.71,2.6,8.31Z"/><path class="cls-5" d="m1619.28,3140.05c6.75,0,12.46,5.71,12.46,12.98,0,15.06-33.76,28.57-49.86,28.57-13.51,0-34.8-6.75-35.84-37.92-27.53,27.01-53.49,37.39-74.79,37.39-30.64,0-53.49-21.81-57.65-54.53-13.51,16.1-34.28,40.51-44.15,40.51-6.75,0-13.5-5.71-13.5-12.98,0-3.64,1.55-7.27,4.67-9.87,26.49-22.85,52.46-56.61,70.12-83.1l1.04-2.08c42.59-55.58,91.41-58.69,126.73-58.69,8.31,0,16.11,1.04,21.3,1.04l41.03-157.37c1.56-6.23,6.75-9.87,12.46-9.87,7.79,0,12.99,6.23,12.99,13.51,0,.52-.52,2.08-.52,2.59l-70.63,275.8c-1.04,4.15-3.12,14.02-3.12,16.62,0,10.91,5.71,12.47,12.46,12.47,5.19,0,17.14-4.16,25.97-12.47,2.6-2.08,5.71-2.59,8.83-2.59Zm-148.03,15.06c22.33,0,52.98-18.18,85.18-62.85l16.62-65.45c-4.16-.52-9.87-.52-16.11-.52-27.52,0-68.56,1.56-100.24,42.59-11.95,19.22-17.66,32.72-17.66,48.31,0,14.54,5.19,26.49,14.54,32.72,5.19,3.11,10.91,5.19,17.66,5.19Z"/><path class="cls-6" d="m144.1,3962.75c0-6.75,5.19-13.51,12.46-13.51,6.23,0,11.95,4.15,13.51,10.91,0,.52,10.91,64.41,72.72,64.41,36.36,0,51.94-39.48,51.94-78.95,0-42.07-15.06-61.81-37.91-88.82-20.26-23.37-44.15-49.86-47.79-91.93v-1.56c0-35.84,28.05-63.89,76.87-63.89,25.97,0,66.48,11.95,66.48,36.88,0,6.23-5.19,12.99-12.46,12.99-13.5,0-13.5-23.89-53.49-23.89-5.72,0-51.42,0-51.42,36.88,0,51.42,63.89,83.62,79.47,139.2,3.64,13.5,5.71,28.56,5.71,44.66,0,51.94-25.45,103.88-77.39,103.88-66.48,0-98.69-61.29-98.69-87.26Z"/><path class="cls-5" d="m591.32,4024.04c0,3.12-1.04,7.27-3.64,9.35-1.04,1.04-19.22,19.22-45.18,19.22-34.28,0-40.52-22.33-43.11-41.03-29.09,30.12-56.61,41.55-78.43,41.55-32.2,0-56.09-25.45-56.09-62.85,0-17.66,3.64-33.76,16.1-54.53,35.32-58.69,95.05-63.36,130.37-63.36,14.54,0,42.59,1.04,42.59,14.02,0,2.08-.52,3.64-.52,5.71l-21.82,73.75c-3.64,11.43-6.23,29.61-6.23,37.4,0,12.46,4.68,23.89,17.14,23.89,16.1,0,27.01-12.47,27.01-12.47,2.6-2.08,6.23-3.11,8.83-3.11,3.64,0,7.27,1.04,9.87,3.64,2.08,2.59,3.12,5.71,3.12,8.83Zm-169.84,3.12c21.3,0,50.9-17.66,83.62-62.33,0-2.08.52-4.15,1.56-6.23l17.66-60.25c-4.15,0-9.35-.52-15.06-.52-29.09,0-79.47,3.11-106.48,51.94-9.35,16.1-11.95,27.53-11.95,41.03,0,17.66,10.39,36.36,30.64,36.36Z"/><path class="cls-5" d="m854.66,4027.16c0,4.15-1.56,7.79-4.68,10.38-4.68,4.16-22.33,17.14-37.4,17.14-27.01,0-39.47-19.22-39.47-44.66,0-30.65,16.62-65.96,16.62-99.2,0-7.27-4.67-12.46-14.02-12.46-20.25,0-61.29,5.19-106.47,86.22l-16.11,56.09c-1.56,5.72-6.75,9.35-12.46,9.35-7.27,0-12.98-6.23-12.98-12.99,0-1.56,0-2.08.52-3.64l15.06-51.94v-1.04c0-1.56,1.04-4.16,1.56-5.71l3.64-10.39c-18.7,24.93-40.51,51.94-63.37,71.68-2.59,2.08-5.19,3.11-8.83,3.11-6.75,0-12.98-5.71-12.98-12.98,0-3.12,2.08-7.27,4.68-9.35,49.86-43.63,97.12-119.98,103.88-132.45,1.56-5.71,7.27-8.31,12.98-8.31,8.83,0,14.55,7.79,11.43,17.66l-6.75,23.38c35.84-37.4,66.48-44.67,86.22-44.67,25.45,0,39.99,11.95,39.99,39.48,0,30.12-16.62,67.52-16.62,98.68,0,8.83-.52,18.7,14.02,18.7,6.75,0,20.78-14.55,28.56-14.55,4.15,0,7.79,1.56,10.39,4.16,2.08,2.59,2.6,5.71,2.6,8.31Z"/><path class="cls-5" d="m1093.59,4012.09c6.75,0,12.46,5.71,12.46,12.98,0,15.06-33.76,28.57-49.86,28.57-13.51,0-34.8-6.75-35.84-37.92-27.53,27.01-53.49,37.39-74.79,37.39-30.64,0-53.49-21.81-57.65-54.53-13.51,16.1-34.28,40.51-44.15,40.51-6.75,0-13.5-5.71-13.5-12.98,0-3.64,1.55-7.27,4.67-9.87,26.49-22.85,52.46-56.61,70.12-83.1l1.04-2.08c42.59-55.58,91.41-58.69,126.73-58.69,8.31,0,16.11,1.04,21.3,1.04l41.03-157.37c1.56-6.23,6.75-9.87,12.46-9.87,7.79,0,12.99,6.23,12.99,13.51,0,.52-.52,2.08-.52,2.59l-70.63,275.8c-1.04,4.15-3.12,14.02-3.12,16.62,0,10.91,5.71,12.47,12.46,12.47,5.19,0,17.14-4.16,25.97-12.47,2.6-2.08,5.71-2.59,8.83-2.59Zm-148.03,15.06c22.33,0,52.98-18.18,85.18-62.85l16.62-65.45c-4.16-.52-9.87-.52-16.11-.52-27.52,0-68.56,1.56-100.24,42.59-11.95,19.22-17.66,32.72-17.66,48.31,0,14.54,5.19,26.49,14.54,32.72,5.19,3.11,10.91,5.19,17.66,5.19Z"/><path class="cls-6" d="m1290.97,4026.12c0,3.64-1.56,7.27-4.15,9.35-18.7,16.62-44.67,19.22-62.33,19.22-28.05,0-45.71-6.23-59.21-35.84-1.04-1.56-1.04-3.12-1.04-4.68,0-6.75,4.67-12.98,12.46-12.98,4.67,0,9.86,3.11,11.95,7.27,4.67,11.95,10.91,18.18,17.66,19.74,2.08,0,3.64,0,5.71.52,14.54-1.55,35.32-18.69,35.84-39.99,0-25.45-25.96-44.15-37.39-67.52-30.12,39.48-69.6,83.1-109.59,115.3-2.59,1.56-5.19,2.59-7.79,2.59-6.23,0-12.98-5.19-12.98-12.98,0-3.64,1.55-7.27,5.19-9.87,50.9-41.03,100.76-102.32,130.88-146.99,2.6-3.64,6.23-5.19,10.39-5.19,7.79,0,12.99,5.72,12.99,12.99,0,5.71-6.23,13.5-10.91,20.25,2.6,8.31,9.87,24.41,20.26,34.8,16.1,16.1,24.93,35.32,24.93,55.06,0,11.42-3.11,22.85-8.83,32.2,5.19-2.59,7.27-6.23,12.99-6.23,3.64,0,7.27,1.55,9.86,4.67,2.08,2.6,3.12,5.19,3.12,8.31Z"/><path class="cls-5" d="m1494.06,4028.19c0,10.39-24.41,24.41-37.92,24.41-18.69,0-33.24-16.62-52.46-51.94l-22.85-41.55-21.81,82.06c-1.56,5.71-6.75,9.35-12.46,9.35-7.28,0-12.99-5.71-12.99-12.99,0-1.04,0-2.08.52-3.11l16.11-59.21c-16.11,15.58-33.24,35.32-62.33,60.77-2.59,2.08-5.71,3.11-8.31,3.11-7.79,0-13.5-5.71-13.5-12.98,0-3.64,1.55-7.27,4.67-9.35,65.96-56.62,86.74-87.26,94.01-97.13l53.5-204.12c1.04-5.71,7.27-9.35,12.98-9.35,7.27,0,12.46,7.27,12.46,13.51v2.59l-42.59,162.57c9.35-7.27,23.89-12.46,36.36-12.46,39.99,0,43.62,30.12,43.62,35.32,0,30.65-42.07,48.82-71.68,51.94l17.66,30.12c16.62,29.09,23.89,36.36,27.52,37.4,4.68,0,9.35-3.64,19.22-9.87,2.6-1.56,5.19-2.6,7.79-2.6,3.64,0,7.27,1.04,9.86,4.16,2.08,2.59,2.6,6.23,2.6,9.35Zm-105.43-95.56c3.11,1.04,7.27,1.55,11.94,1.55,32.21,0,54.54-15.06,54.54-24.41,0-6.75-3.64-11.42-17.66-11.42-20.78,0-39.48,14.02-48.82,34.28Z"/><path class="cls-6" d="m1607.82,3887.96c0,.52-.52,2.08-.52,2.59l-8.31,32.72c-.52,2.08-.52,4.16-1.56,5.71l-61.81,237.36c-5.72,22.33-27.53,55.06-71.68,55.06-33.76,0-47.79-25.97-47.79-35.84,0-6.75,5.72-12.46,12.99-12.46,18.18,0,3.64,22.33,34.8,22.33,23.37,0,41.03-12.99,46.74-35.32l48.31-186.46c-15.58,16.1-37.39,36.88-67.52,62.33-2.59,2.08-5.71,3.11-8.83,3.11-6.75,0-12.98-5.71-12.98-12.98,0-3.64,2.08-7.27,4.68-9.35,69.59-59.73,93.49-90.38,99.2-98.17l8.31-34.79c1.56-5.72,7.27-9.35,12.99-9.35,1.04,0,1.55.52,3.11.52,5.72,1.55,9.87,6.75,9.87,12.98Zm-11.43-74.79c0-8.31,7.79-16.1,16.62-16.1,9.35,0,16.62,7.79,16.62,16.1,0,9.35-7.27,16.62-16.62,16.62-8.83,0-16.62-7.27-16.62-16.62Z"/><path class="cls-5" d="m1692.48,4006.38c-46.22,35.84-43.11,32.72-48.3,32.72-6.75,0-12.99-5.71-12.99-12.98,0-10.91,23.89-22.85,48.31-41.55-5.19-11.42-7.79-22.85-7.79-34.28,0-47.79,42.59-77.91,82.59-77.91,31.68,0,35.84,20.26,35.84,31.68,0,34.8-28.05,47.78-77.39,86.74,21.29,28.05,48.3,36.88,63.36,36.88,18.7,0,30.65-10.39,32.72-11.95,2.59-2.59,5.71-3.12,8.83-3.12,7.27,0,12.98,5.19,12.98,12.46,0,11.95-25.45,28.05-54.53,28.05-21.81,0-58.69-11.42-83.62-46.74Zm5.71-56.09c0,5.71.52,11.42,2.6,17.14,32.72-27.01,63.88-46.22,63.88-63.88,0-3.64-3.64-5.19-10.91-5.19-24.93,0-55.58,16.62-55.58,51.94Z"/><rect class="cls-6" x="1094.09" y="1204.43" width="134.85" height="134.85" rx="67.43" ry="67.43"/><rect class="cls-6" x="1094.09" y="1204.43" width="134.85" height="134.85" rx="67.43" ry="67.43"/><g class="cls-4"><path class="cls-7" d="m1323.32,1299.57c-10.38-2.08-33.75-8.83-50.36-28.55-10.38-13.5-24.92-22.32-49.32-22.32-12.01,0-23.8,2.47-35.08,7.17-1.51-.6-3.16-.94-4.91-.94h-107.47l24.92-89.29c11.94-44.13,25.95-57.11,49.32-57.63,1.04,0,14.02-1.04,18.17,8.83,2.08,5.19,6.75,8.31,11.94,8.31,8.31,0,12.98-6.23,12.98-12.98,0-1.56-.52-3.12-.52-4.67-8.31-20.77-29.07-25.44-41.53-25.44-38.94,0-61.26,25.44-75.79,78.39l-25.96,94.49h-47.24c-7.27,0-12.98,5.71-12.98,12.98,0,6.75,5.71,12.98,12.98,12.98h40.49l-5.71,22.84c-18.69,27-45.68,64.38-74.24,89.29-2.6,2.6-4.67,6.23-4.67,9.86,0,6.75,6.23,12.98,12.98,12.98,10.38,0,33.75-27,48.28-45.16l-53.99,209.74c-.52,1.56-.52,2.08-.52,3.11,0,7.27,5.71,12.98,12.98,12.98,5.71,0,10.9-3.63,12.46-9.86l78.92-305.78h82.51c-.86.85-1.71,1.71-2.55,2.6-21.28,22.84-30.63,50.36-30.63,79.43,0,62.3,35.3,68.53,50.36,68.53,29.59,0,64.37-23.88,81.5-45.68,21.81-28.03,30.63-52.43,31.67-74.24,12.46,9.35,27,13.5,36.86,13.5,7.79,0,14.54-3.63,14.54-12.98,0-6.23-4.16-11.42-10.38-12.46Zm-93.45,70.61c-12.98,16.61-39.98,35.3-60.74,35.3-6.23,0-24.4,0-24.4-42.57,0-59.18,48.28-88.26,78.91-88.26s32.7,20.25,32.7,22.32v1.04c.52,2.6.52,5.19.52,7.78,0,18.69-8.31,39.46-27,64.38Z"/></g><path class="cls-6" d="m553.43,3019.65c0-7.27-5.72-12.98-12.99-12.98h-201.52c-7.27,0-12.98,5.71-12.98,12.98,0,6.75,5.71,12.98,12.98,12.98h201.52c7.27,0,12.99-6.23,12.99-12.98Z"/><path class="cls-5" d="m720.69,3063.7c0,8.83-6.23,12.99-14.55,12.99-7.27,0-22.33-3.12-36.35-15.06-1.56,22.33-9.87,47.78-31.69,75.83-17.14,21.82-51.94,45.71-81.54,45.71-6.75,0-18.18-1.56-28.57-9.35l-3.11,4.16c-2.6,3.11-6.23,4.15-9.87,4.15-6.75,0-12.98-5.19-12.98-12.46,0-2.6,1.04-6.23,3.11-8.31l7.79-8.83c-4.16-9.35-6.23-22.33-6.23-38.43,0-43.11,17.66-71.16,33.24-86.73,19.22-20.26,46.23-28.57,71.68-28.57,10.91,0,22.33,3.12,30.12,6.75l2.08-2.08c2.59-3.12,6.23-4.68,10.39-4.68,6.75,0,12.46,5.71,12.46,12.46,0,3.12-1.04,6.23-3.12,8.83l-2.08,2.08c25.45,27.01,42.07,27.01,48.3,29.08,6.75,1.56,10.91,6.23,10.91,12.46Zm-187.5,64.41l90.89-101.8c-4.15-.52-8.31-1.56-12.46-1.56-32.2,0-78.95,20.26-78.95,95.57,0,3.11.52,5.71.52,7.79Zm111.15-72.19c0-4.16-.52-7.79-1.04-11.95l-98.16,110.63c4.68,2.6,9.35,2.6,11.43,2.6,20.78,0,47.78-18.7,60.77-35.32,19.21-24.93,27.01-47.26,27.01-65.96Z"/><path class="cls-5" d="m1494.06,4028.19c0,10.39-24.41,24.41-37.92,24.41-18.69,0-33.24-16.62-52.46-51.94l-22.85-41.55-21.81,82.06c-1.56,5.71-6.75,9.35-12.46,9.35-7.28,0-12.99-5.71-12.99-12.99,0-1.04,0-2.08.52-3.11l16.11-59.21c-16.11,15.58-33.24,35.32-62.33,60.77-2.59,2.08-5.71,3.11-8.31,3.11-7.79,0-13.5-5.71-13.5-12.98,0-3.64,1.55-7.27,4.67-9.35,65.96-56.62,86.74-87.26,94.01-97.13l53.5-204.12c1.04-5.71,7.27-9.35,12.98-9.35,7.27,0,12.46,7.27,12.46,13.51v2.59l-42.59,162.57c9.35-7.27,23.89-12.46,36.36-12.46,39.99,0,43.62,30.12,43.62,35.32,0,30.65-42.07,48.82-71.68,51.94l17.66,30.12c16.62,29.09,23.89,36.36,27.52,37.4,4.68,0,9.35-3.64,19.22-9.87,2.6-1.56,5.19-2.6,7.79-2.6,3.64,0,7.27,1.04,9.86,4.16,2.08,2.59,2.6,6.23,2.6,9.35Zm-105.43-95.56c3.11,1.04,7.27,1.55,11.94,1.55,32.21,0,54.54-15.06,54.54-24.41,0-6.75-3.64-11.42-17.66-11.42-20.78,0-39.48,14.02-48.82,34.28Z"/></g></svg>