<?xml version="1.0" encoding="UTF-8"?><svg xmlns="http://www.w3.org/2000/svg" xmlns:xlink="http://www.w3.org/1999/xlink" viewBox="0 0 1920 3506.59"><defs><style>.cls-1,.cls-2,.cls-3,.cls-4,.cls-5,.cls-6,.cls-7,.cls-8{fill:none;}.cls-9{clip-path:url(#clippath);}.cls-2{stroke-dasharray:0 0 1.66 16.6;}.cls-2,.cls-3,.cls-4,.cls-5,.cls-6,.cls-7,.cls-8{stroke-miterlimit:10;}.cls-2,.cls-3,.cls-4,.cls-5,.cls-6,.cls-8{stroke:#a797c9;stroke-linecap:round;stroke-width:7px;}.cls-10{fill:#fff;}.cls-11{fill:#937fbb;}.cls-12{fill:#171c32;}.cls-13{fill:#947fbb;}.cls-3{stroke-dasharray:0 0 1.76 17.61;}.cls-5{stroke-dasharray:0 0 1.74 17.42;}.cls-14{clip-path:url(#clippath-1);}.cls-6{stroke-dasharray:0 0 1.65 16.52;}.cls-7{stroke:#57678b;stroke-width:3.5px;}.cls-8{stroke-dasharray:0 0 1.83 18.26;}</style><clipPath id="clippath"><circle class="cls-1" cx="1451.42" cy="3052.72" r="58.19"/></clipPath><clipPath id="clippath-1"><circle class="cls-1" cx="856.42" cy="3052.72" r="58.19"/></clipPath></defs><g id="Background"><rect class="cls-12" width="1920" height="3506.59"/></g><g id="Horizontal_Guides"><line class="cls-7" y1="202.72" x2="1920" y2="202.72"/><line class="cls-7" y1="353.96" x2="1920" y2="353.96"/><line class="cls-7" x1="1920" y1="544.11" y2="544.11"/><line class="cls-7" y1="694.58" x2="1920" y2="694.58"/><line class="cls-7" y1="1048.53" x2="1920" y2="1048.53"/><line class="cls-7" y1="1200.82" x2="1920" y2="1200.82"/><line class="cls-7" x1="1920" y1="1390.97" y2="1390.97"/><line class="cls-7" y1="1532.2" x2="1920" y2="1532.2"/><line class="cls-7" y1="1886.14" x2="1920" y2="1886.14"/><line class="cls-7" y1="2036.93" x2="1920" y2="2036.93"/><line class="cls-7" x1="1920" y1="2227.08" y2="2227.08"/><line class="cls-7" y1="2378.01" x2="1920" y2="2378.01"/><line class="cls-7" y1="2735.97" x2="1920" y2="2735.97"/><line class="cls-7" y1="2883.47" x2="1920" y2="2883.47"/><line class="cls-7" x1="1920" y1="3073.62" y2="3073.62"/><line class="cls-7" y1="3214.85" x2="1920" y2="3214.85"/></g><g id="Info"><rect class="cls-13" x="763.55" y="202.72" width="52.23" height="491.87"/><path class="cls-10" d="m721.5,737.36v-19.95h2.94v19.95c0,9.41,4.08,10.63,8.86,10.63s8.78-1.01,8.78-10.63v-19.95h2.94v19.62c0,11.64-5.33,13.69-11.76,13.69s-11.76-2.06-11.76-13.36Z"/><path class="cls-10" d="m752.79,729.16h2.39l.34,3.86h.08c1.13-2.48,4.03-4.41,7.86-4.41,6.3,0,9.66,3.99,9.66,11.01s-4.28,11.09-9.87,11.09c-3.78,0-6.38-1.6-7.44-3.7h-.08v11.55h-2.94v-29.41Zm17.18,10.63c0-7.18-3.4-8.61-6.93-8.61-4.24,0-7.56,2.73-7.56,8.44,0,6.01,3.44,8.57,7.44,8.57,3.02,0,7.06-1.47,7.06-8.4Z"/><path class="cls-10" d="m779,729.16h2.6l.29,3.91c1.01-2.14,3.07-4.45,6.76-4.45,1.26,0,2.18.21,3.02.55v3.15c-1.13-.5-2.1-.76-3.4-.76-3.74,0-6.34,2.81-6.34,5.75v12.85h-2.94v-21Z"/><path class="cls-10" d="m796.3,717.4h2.98v6.51h-2.98v-6.51Zm0,11.76h2.94v21h-2.94v-21Z"/><path class="cls-10" d="m806,751.97v-.13h3.11v.13c0,2.9,1.93,4.33,6.13,4.33,4.79,0,7.01-2.94,7.01-7.86v-2.1h-.08c-1.09,2.18-3.65,4.07-7.48,4.07-6.3,0-9.75-3.99-9.75-10.71,0-7.1,4.37-11.09,9.96-11.09,3.78,0,6.55,1.81,7.56,4.12h.13l.29-3.57h2.31v19.16c0,5.88-2.81,10.71-10.33,10.71-6.3,0-8.86-2.98-8.86-7.06Zm16.59-12.77c0-5.5-3.36-8.07-7.35-8.07-3.03,0-7.14,1.47-7.14,8.4s3.57,8.32,7.1,8.32c4.24,0,7.39-2.73,7.39-8.65Z"/><path class="cls-10" d="m832.55,717.4h2.94v15.16c1.05-2.1,3.28-3.95,7.31-3.95,4.75,0,7.77,2.52,7.77,7.94v13.61h-2.94v-13.27c0-4.33-2.14-5.71-5.5-5.71-3.82,0-6.64,2.69-6.64,5.63v13.36h-2.94v-32.77Z"/><path class="cls-10" d="m868.88,747.48v2.6c-.76.21-2.14.59-4.03.59-3.82,0-6.34-1.6-6.34-6.89v-12.18h-4.16v-2.44h4.16v-6.05l2.94-1.43v7.48h5.92v2.44h-5.92v11.8c0,2.81.76,4.58,3.4,4.58,1.6,0,3.23-.29,4.03-.5Z"/><line class="cls-4" x1="1624.07" y1="1004.66" x2="1624.07" y2="1005.53"/><line class="cls-2" x1="1624.07" y1="1022.13" x2="1624.07" y2="1178.14"/><line class="cls-4" x1="1624.07" y1="1186.43" x2="1624.07" y2="1187.31"/><path class="cls-10" d="m1481.86,938.04h3.11l10.29,29.49h.08l10.17-29.49h3.11l-11.59,32.77h-3.57l-11.59-32.77Z"/><path class="cls-10" d="m1511.97,938.04h2.98v6.51h-2.98v-6.51Zm0,11.76h2.94v21h-2.94v-21Z"/><path class="cls-10" d="m1520.41,964.38v-1.18h2.94v1.13c0,2.86,2.14,4.5,5.96,4.5s5.8-1.01,5.8-3.78c0-2.06-1.01-2.81-3.86-3.32l-4.62-.84c-3.02-.55-5.54-2.02-5.54-5.5,0-3.15,2.35-6.13,8.4-6.13s8.4,3.02,8.4,7.23v.88h-2.98v-.76c0-3.44-2.14-4.91-5.42-4.91-3.95,0-5.33,1.34-5.33,3.36s1.01,2.86,3.91,3.4l4.03.76c4.12.76,6.09,1.93,6.09,5.59,0,4.58-4.12,6.55-8.78,6.55-7.31,0-8.99-3.28-8.99-6.97Z"/><path class="cls-10" d="m1544.06,938.04h2.98v6.51h-2.98v-6.51Zm0,11.76h2.94v21h-2.94v-21Z"/><path class="cls-10" d="m1557.21,967.32h-.08l-.76,3.49h-1.97v-32.77h2.94v15.25h.04c1.26-2.31,4.07-4.03,7.69-4.03,6.3,0,9.66,3.99,9.66,11.01s-4.28,11.09-9.87,11.09c-3.78,0-6.55-1.64-7.65-4.03Zm14.37-6.89c0-7.18-3.4-8.61-6.93-8.61-4.24,0-7.56,2.73-7.56,8.44,0,6.01,3.44,8.57,7.43,8.57,3.03,0,7.06-1.47,7.06-8.4Z"/><path class="cls-10" d="m1579.97,938.04h2.94v32.77h-2.94v-32.77Z"/><path class="cls-10" d="m1590.26,949.8l6.89,17.98h.08l7.14-17.98h3.07v.04l-8.86,20.84-3.11,8.53h-2.98v-.04l3.19-8.36-8.78-20.96v-.04h3.36Z"/><path class="cls-10" d="m1618.57,949.84v-.04h2.98l5.75,17.48h.08l6.3-17.48h2.69l6.18,17.48h.08l5.75-17.48h2.86v.04l-7.18,20.96h-3.02l-5.96-17.06h-.08l-6.22,17.06h-3.02l-7.18-20.96Z"/><path class="cls-10" d="m1656.07,938.04h2.98v6.51h-2.98v-6.51Zm0,11.76h2.94v21h-2.94v-21Z"/><path class="cls-10" d="m1664.73,960.35c0-7.1,4.28-11.09,10.04-11.09,3.7,0,6.22,1.6,7.31,3.74h.04v-14.95h2.94v32.77h-1.97l-.67-3.61h-.08c-1.18,2.31-3.95,4.16-7.77,4.16-6.3,0-9.83-3.99-9.83-11.01Zm17.64-.5c0-5.5-3.36-8.07-7.35-8.07-3.11,0-7.14,1.47-7.14,8.4s3.61,8.61,7.14,8.61c4.24,0,7.35-2.73,7.35-8.95Z"/><path class="cls-10" d="m1709.67,961.31h-15.96c.17,4.79,2.48,7.48,6.93,7.48,3.82,0,5.67-1.43,5.96-4.83h2.98c-.29,4.24-3.28,7.39-9.03,7.39-7.06,0-9.83-4.66-9.83-10.88s3.23-11.22,10-11.22,8.95,3.99,8.95,10.21v1.85Zm-3.11-2.98c0-4.45-1.72-6.55-5.92-6.55s-6.55,2.65-6.89,6.97h12.81v-.42Z"/><path class="cls-10" d="m1726.89,948.5h-3.36v-5.08c0-3.95.88-5.29,3.4-5.97l.67,1.85c-1.76.67-2.06,1.09-2.06,3.78v.34h1.34v5.08Zm5.92,0h-3.36v-5.08c0-3.95.88-5.29,3.4-5.97l.67,1.85c-1.76.67-2.06,1.09-2.06,3.78v.34h1.34v5.08Z"/><path class="cls-10" d="m1739.19,949.8h2.6l.29,3.91c1.01-2.14,3.07-4.45,6.76-4.45,1.26,0,2.18.21,3.02.55v3.15c-1.13-.5-2.1-.76-3.4-.76-3.74,0-6.34,2.81-6.34,5.75v12.85h-2.94v-21Z"/><path class="cls-10" d="m1754.6,947.24c1.76-.67,2.06-1.09,2.06-3.78v-.34h-1.34v-5.08h3.36v5.08c0,3.95-.88,5.29-3.4,5.97l-.67-1.85Zm5.92,0c1.76-.67,2.06-1.09,2.06-3.78v-.34h-1.34v-5.08h3.36v5.08c0,3.95-.88,5.29-3.4,5.97l-.67-1.85Z"/><line class="cls-4" x1="1450.23" y1="3118.54" x2="1450.23" y2="3119.41"/><line class="cls-5" x1="1450.23" y1="3136.83" x2="1450.23" y2="3300.6"/><polyline class="cls-4" points="1450.23 3309.31 1450.23 3310.18 1449.36 3310.18"/><line class="cls-3" x1="1431.75" y1="3310.18" x2="762.68" y2="3310.18"/><line class="cls-4" x1="753.88" y1="3310.18" x2="753" y2="3310.18"/><circle class="cls-13" cx="856.42" cy="3052.72" r="58.19"/><path class="cls-10" d="m295.53,3306.5c0-11.72,6.76-16.93,15.46-16.93,7.94,0,14.7,5.21,14.7,16.59,0,12.48-6.76,17.26-15.08,17.26s-15.08-4.79-15.08-16.93Zm27.05,0c0-10.12-5.33-14.24-12.01-14.24s-11.93,4.12-11.93,14.24,5.33,14.2,12.01,14.2,11.93-3.74,11.93-14.2Z"/><path class="cls-10" d="m331.57,3315.49v-13.61h2.94v13.27c0,4.33,2.14,5.71,5.42,5.71,3.74,0,6.55-2.69,6.55-5.63v-13.36h2.94v21h-2.6l-.25-3.36h-.08c-.97,2.02-3.23,3.91-7.23,3.91-4.66,0-7.69-2.52-7.69-7.94Z"/><path class="cls-10" d="m367.73,3320.2v2.6c-.76.21-2.14.59-4.03.59-3.82,0-6.34-1.6-6.34-6.89v-12.18h-4.16v-2.44h4.16v-6.05l2.94-1.43v7.48h5.92v2.44h-5.92v11.8c0,2.81.76,4.58,3.4,4.58,1.6,0,3.23-.29,4.03-.5Z"/><path class="cls-10" d="m370.67,3316.46v-1.18h2.94v1.13c0,2.86,2.14,4.5,5.96,4.5s5.8-1.01,5.8-3.78c0-2.06-1.01-2.81-3.86-3.32l-4.62-.84c-3.02-.55-5.54-2.02-5.54-5.5,0-3.15,2.35-6.13,8.4-6.13s8.4,3.02,8.4,7.23v.88h-2.98v-.76c0-3.44-2.14-4.92-5.42-4.92-3.95,0-5.33,1.34-5.33,3.36s1.01,2.86,3.91,3.4l4.03.76c4.12.76,6.09,1.93,6.09,5.59,0,4.58-4.12,6.55-8.78,6.55-7.31,0-8.99-3.28-8.99-6.97Z"/><path class="cls-10" d="m405.28,3320.2v2.6c-.76.21-2.14.59-4.03.59-3.82,0-6.34-1.6-6.34-6.89v-12.18h-4.16v-2.44h4.16v-6.05l2.94-1.43v7.48h5.92v2.44h-5.92v11.8c0,2.81.76,4.58,3.4,4.58,1.6,0,3.23-.29,4.03-.5Z"/><path class="cls-10" d="m410.11,3301.88h2.6l.29,3.91c1.01-2.14,3.07-4.45,6.76-4.45,1.26,0,2.18.21,3.02.55v3.15c-1.13-.5-2.1-.76-3.4-.76-3.74,0-6.34,2.81-6.34,5.75v12.85h-2.94v-21Z"/><path class="cls-10" d="m425.1,3312.39c0-6.22,3.32-11.05,10.38-11.05,6.6,0,10.25,4.83,10.25,11.05s-3.7,11.05-10.29,11.05c-7.27,0-10.33-4.83-10.33-11.05Zm17.56,0c0-5.33-2.9-8.49-7.23-8.49-4.75,0-7.27,3.15-7.27,8.49s2.56,8.49,7.27,8.49c4.33,0,7.23-3.15,7.23-8.49Z"/><path class="cls-10" d="m450.97,3290.12h2.94v23.23l12.14-11.47h3.66v.04l-8.4,7.86,8.78,13.06v.04h-3.36l-7.39-11.22-5.42,5.04v6.17h-2.94v-32.77Z"/><path class="cls-10" d="m491.34,3313.39h-15.96c.17,4.79,2.48,7.48,6.93,7.48,3.82,0,5.67-1.43,5.96-4.83h2.98c-.29,4.24-3.28,7.39-9.03,7.39-7.06,0-9.83-4.66-9.83-10.88s3.23-11.22,10-11.22,8.95,3.99,8.95,10.21v1.85Zm-3.11-2.98c0-4.45-1.72-6.55-5.92-6.55s-6.55,2.65-6.89,6.97h12.81v-.42Z"/><path class="cls-10" d="m506.88,3290.12h2.98v6.51h-2.98v-6.51Zm0,11.76h2.94v21h-2.94v-21Z"/><path class="cls-10" d="m517.21,3301.88h2.6l.29,3.49c1.01-2.14,3.28-4.03,7.35-4.03,4.75,0,7.77,2.52,7.77,7.94v13.61h-2.94v-13.27c0-4.33-2.14-5.71-5.5-5.71-3.82,0-6.64,2.69-6.64,5.63v13.36h-2.94v-21Z"/><path class="cls-10" d="m553.92,3300.58h-3.36v-5.08c0-3.95.88-5.29,3.4-5.96l.67,1.85c-1.76.67-2.06,1.09-2.06,3.78v.34h1.34v5.08Zm5.92,0h-3.36v-5.08c0-3.95.88-5.29,3.4-5.96l.67,1.85c-1.76.67-2.06,1.09-2.06,3.78v.34h1.34v5.08Z"/><path class="cls-10" d="m566.22,3290.12h2.94v32.77h-2.94v-32.77Z"/><path class="cls-10" d="m574.62,3299.32c1.76-.67,2.06-1.09,2.06-3.78v-.34h-1.34v-5.08h3.36v5.08c0,3.95-.88,5.29-3.4,5.96l-.67-1.85Zm5.92,0c1.76-.67,2.06-1.09,2.06-3.78v-.34h-1.34v-5.08h3.36v5.08c0,3.95-.88,5.29-3.4,5.96l-.67-1.85Z"/><path class="cls-10" d="m598.9,3317.09c0-3.95,2.23-6.09,7.86-6.09h6.34v-1.72c0-2.98-1.26-5.42-5.46-5.42-3.95,0-5.33,1.51-5.33,4.12v.88h-2.98v-.84c0-5,4.2-6.68,8.32-6.68,5.8,0,8.4,2.86,8.4,8.44v13.11h-2.06l-.55-2.98h-.08c-1.26,1.89-3.7,3.53-7.35,3.53-4.91,0-7.1-2.31-7.1-6.34Zm14.2-1.85v-1.76h-7.02c-2.65,0-4.03.92-4.03,3.61,0,2.35,1.26,3.87,4.5,3.87,4.16,0,6.55-2.14,6.55-5.71Z"/><path class="cls-10" d="m623.38,3301.88h2.6l.29,3.49c1.01-2.14,3.28-4.03,7.35-4.03,4.75,0,7.77,2.52,7.77,7.94v13.61h-2.94v-13.27c0-4.33-2.14-5.71-5.5-5.71-3.82,0-6.64,2.69-6.64,5.63v13.36h-2.94v-21Z"/><path class="cls-10" d="m647.07,3312.43c0-7.1,4.28-11.09,10.04-11.09,3.7,0,6.22,1.6,7.31,3.74h.04v-14.96h2.94v32.77h-1.97l-.67-3.61h-.08c-1.18,2.31-3.95,4.16-7.77,4.16-6.3,0-9.83-3.99-9.83-11.01Zm17.64-.5c0-5.5-3.36-8.07-7.35-8.07-3.11,0-7.14,1.47-7.14,8.4s3.61,8.61,7.14,8.61c4.24,0,7.35-2.73,7.35-8.95Z"/><path class="cls-10" d="m686.09,3300.58h-3.36v-5.08c0-3.95.88-5.29,3.4-5.96l.67,1.85c-1.76.67-2.06,1.09-2.06,3.78v.34h1.34v5.08Zm5.92,0h-3.36v-5.08c0-3.95.88-5.29,3.4-5.96l.67,1.85c-1.76.67-2.06,1.09-2.06,3.78v.34h1.34v5.08Z"/><path class="cls-10" d="m709.36,3320.2v2.6c-.76.21-2.14.59-4.03.59-3.82,0-6.34-1.6-6.34-6.89v-12.18h-4.16v-2.44h4.16v-6.05l2.94-1.43v7.48h5.92v2.44h-5.92v11.8c0,2.81.76,4.58,3.4,4.58,1.6,0,3.23-.29,4.03-.5Z"/><path class="cls-10" d="m711.25,3299.32c1.76-.67,2.06-1.09,2.06-3.78v-.34h-1.34v-5.08h3.36v5.08c0,3.95-.88,5.29-3.4,5.96l-.67-1.85Zm5.92,0c1.76-.67,2.06-1.09,2.06-3.78v-.34h-1.34v-5.08h3.36v5.08c0,3.95-.88,5.29-3.4,5.96l-.67-1.85Z"/><line class="cls-4" x1="856.42" y1="3118.54" x2="856.42" y2="3119.41"/><line class="cls-8" x1="856.42" y1="3137.66" x2="856.42" y2="3289.18"/><line class="cls-4" x1="856.42" y1="3298.31" x2="856.42" y2="3299.18"/><path class="cls-10" d="m243.07,2453.53c0-11.85,6.51-17.1,14.49-17.1,7.56,0,12.64,3.78,12.64,11.47v.5h-2.86v-.63c0-5.33-3.49-8.7-9.7-8.7-6.72,0-11.47,4.58-11.47,14.28s4.75,14.28,11.76,14.28c5.63,0,9.45-2.52,9.45-8.78v-2.73h-9.83v-2.6h12.64v16.21h-2.1l-.67-3.74c-1.6,2.48-5.17,4.29-9.75,4.29-8.32,0-14.62-4.87-14.62-16.76Z"/><path class="cls-10" d="m294.6,2460.25h-15.96c.17,4.79,2.48,7.48,6.93,7.48,3.82,0,5.67-1.43,5.96-4.83h2.98c-.29,4.24-3.28,7.39-9.03,7.39-7.06,0-9.83-4.66-9.83-10.88s3.23-11.22,10-11.22,8.95,3.99,8.95,10.21v1.85Zm-3.11-2.98c0-4.45-1.72-6.55-5.92-6.55s-6.55,2.65-6.89,6.97h12.81v-.42Z"/><path class="cls-10" d="m298.8,2459.24c0-6.22,3.32-11.05,10.38-11.05,6.6,0,10.25,4.83,10.25,11.05s-3.7,11.05-10.29,11.05c-7.27,0-10.33-4.83-10.33-11.05Zm17.56,0c0-5.33-2.9-8.49-7.23-8.49-4.75,0-7.27,3.15-7.27,8.49s2.56,8.49,7.27,8.49c4.33,0,7.23-3.15,7.23-8.49Z"/><path class="cls-10" d="m356.01,2456.14v13.61h-2.94v-13.27c0-4.33-2.14-5.71-4.75-5.71-3.82,0-6.17,2.69-6.17,5.63v13.36h-2.94v-13.27c0-4.33-1.85-5.71-4.83-5.71-3.61,0-6.13,2.69-6.13,5.63v13.36h-2.94v-21h2.6l.29,3.49c1.01-2.02,3.07-4.03,6.93-4.03,2.94,0,5.38,1.39,6.43,4.28,1.22-2.39,3.57-4.28,7.14-4.28,4.28,0,7.31,2.52,7.31,7.94Z"/><path class="cls-10" d="m380.62,2460.25h-15.96c.17,4.79,2.48,7.48,6.93,7.48,3.82,0,5.67-1.43,5.96-4.83h2.98c-.29,4.24-3.28,7.39-9.03,7.39-7.06,0-9.83-4.66-9.83-10.88s3.23-11.22,10-11.22,8.95,3.99,8.95,10.21v1.85Zm-3.11-2.98c0-4.45-1.72-6.55-5.92-6.55s-6.55,2.65-6.89,6.97h12.81v-.42Z"/><path class="cls-10" d="m397.46,2467.06v2.6c-.76.21-2.14.59-4.03.59-3.82,0-6.34-1.6-6.34-6.89v-12.18h-4.16v-2.44h4.16v-6.05l2.94-1.43v7.48h5.92v2.44h-5.92v11.8c0,2.81.76,4.58,3.4,4.58,1.6,0,3.23-.29,4.03-.5Z"/><path class="cls-10" d="m402.29,2448.74h2.6l.29,3.91c1.01-2.14,3.07-4.45,6.76-4.45,1.26,0,2.18.21,3.02.55v3.15c-1.13-.5-2.1-.76-3.4-.76-3.74,0-6.34,2.81-6.34,5.75v12.85h-2.94v-21Z"/><path class="cls-10" d="m419.59,2436.98h2.98v6.51h-2.98v-6.51Zm0,11.76h2.94v21h-2.94v-21Z"/><path class="cls-10" d="m428.24,2459.41c0-6.38,3.23-11.22,10-11.22s8.95,3.91,8.95,8.95v.42h-3.11v-.63c0-3.82-1.64-6.09-5.84-6.09-4.75,0-7.02,3.11-7.02,8.4,0,5.63,2.39,8.49,6.93,8.49,3.82,0,5.84-1.85,5.92-5.67h3.02c-.08,4.66-3.15,8.23-9.03,8.23-7.23,0-9.83-4.75-9.83-10.88Z"/><path class="cls-10" d="m451.81,2463.53h3.36v6.22c0,3.95-.88,5.29-3.4,5.96l-.67-1.85c1.77-.67,2.06-1.09,2.06-3.78v-.34h-1.34v-6.22Z"/><path class="cls-10" d="m473.94,2466.26h-.08l-.76,3.49h-1.97v-32.77h2.94v15.25h.04c1.26-2.31,4.07-4.03,7.69-4.03,6.3,0,9.66,3.99,9.66,11.01s-4.28,11.09-9.87,11.09c-3.78,0-6.55-1.64-7.64-4.03Zm14.37-6.89c0-7.18-3.4-8.61-6.93-8.61-4.24,0-7.56,2.73-7.56,8.44,0,6.01,3.45,8.57,7.44,8.57,3.03,0,7.06-1.47,7.06-8.4Z"/><path class="cls-10" d="m495.86,2463.95c0-3.95,2.23-6.09,7.86-6.09h6.34v-1.72c0-2.98-1.26-5.42-5.46-5.42-3.95,0-5.33,1.51-5.33,4.12v.88h-2.98v-.84c0-5,4.2-6.68,8.32-6.68,5.8,0,8.4,2.86,8.4,8.44v13.11h-2.06l-.55-2.98h-.08c-1.26,1.89-3.7,3.53-7.35,3.53-4.91,0-7.1-2.31-7.1-6.34Zm14.2-1.85v-1.76h-7.02c-2.65,0-4.03.92-4.03,3.61,0,2.35,1.26,3.86,4.5,3.86,4.16,0,6.55-2.14,6.55-5.71Z"/><path class="cls-10" d="m520.35,2436.98h2.94v32.77h-2.94v-32.77Z"/><path class="cls-10" d="m530.64,2436.98h2.94v32.77h-2.94v-32.77Z"/><path class="cls-10" d="m549.33,2463.95c0-3.95,2.23-6.09,7.86-6.09h6.34v-1.72c0-2.98-1.26-5.42-5.46-5.42-3.95,0-5.34,1.51-5.34,4.12v.88h-2.98v-.84c0-5,4.2-6.68,8.32-6.68,5.8,0,8.4,2.86,8.4,8.44v13.11h-2.06l-.55-2.98h-.08c-1.26,1.89-3.7,3.53-7.35,3.53-4.92,0-7.1-2.31-7.1-6.34Zm14.2-1.85v-1.76h-7.02c-2.65,0-4.03.92-4.03,3.61,0,2.35,1.26,3.86,4.5,3.86,4.16,0,6.55-2.14,6.55-5.71Z"/><path class="cls-10" d="m573.82,2448.74h2.61l.29,3.49c1.01-2.14,3.28-4.03,7.35-4.03,4.75,0,7.77,2.52,7.77,7.94v13.61h-2.94v-13.27c0-4.33-2.14-5.71-5.5-5.71-3.82,0-6.64,2.69-6.64,5.63v13.36h-2.94v-21Z"/><path class="cls-10" d="m597.5,2459.29c0-7.1,4.29-11.09,10.04-11.09,3.7,0,6.22,1.6,7.31,3.74h.04v-14.95h2.94v32.77h-1.97l-.67-3.61h-.08c-1.18,2.31-3.95,4.16-7.77,4.16-6.3,0-9.83-3.99-9.83-11.01Zm17.64-.5c0-5.5-3.36-8.07-7.35-8.07-3.11,0-7.14,1.47-7.14,8.4s3.61,8.61,7.14,8.61c4.24,0,7.35-2.73,7.35-8.95Z"/><path class="cls-10" d="m632.95,2463.32v-1.18h2.94v1.13c0,2.86,2.14,4.5,5.96,4.5s5.8-1.01,5.8-3.78c0-2.06-1.01-2.81-3.86-3.32l-4.62-.84c-3.03-.55-5.54-2.02-5.54-5.5,0-3.15,2.35-6.13,8.4-6.13s8.4,3.02,8.4,7.22v.88h-2.98v-.76c0-3.44-2.14-4.91-5.42-4.91-3.95,0-5.33,1.34-5.33,3.36s1.01,2.86,3.91,3.4l4.03.76c4.12.76,6.09,1.93,6.09,5.59,0,4.58-4.12,6.55-8.78,6.55-7.31,0-8.99-3.28-8.99-6.97Z"/><path class="cls-10" d="m667.56,2467.06v2.6c-.76.21-2.14.59-4.03.59-3.82,0-6.34-1.6-6.34-6.89v-12.18h-4.16v-2.44h4.16v-6.05l2.94-1.43v7.48h5.92v2.44h-5.92v11.8c0,2.81.76,4.58,3.4,4.58,1.6,0,3.23-.29,4.03-.5Z"/><path class="cls-10" d="m672.39,2436.98h2.98v6.51h-2.98v-6.51Zm0,11.76h2.94v21h-2.94v-21Z"/><path class="cls-10" d="m681.04,2459.41c0-6.38,3.23-11.22,10-11.22s8.95,3.91,8.95,8.95v.42h-3.11v-.63c0-3.82-1.64-6.09-5.84-6.09-4.75,0-7.01,3.11-7.01,8.4,0,5.63,2.39,8.49,6.93,8.49,3.82,0,5.84-1.85,5.92-5.67h3.03c-.08,4.66-3.15,8.23-9.03,8.23-7.23,0-9.83-4.75-9.83-10.88Z"/><path class="cls-10" d="m705.23,2436.98h2.94v23.23l12.14-11.47h3.66v.04l-8.4,7.86,8.78,13.06v.04h-3.36l-7.39-11.22-5.42,5.04v6.18h-2.94v-32.77Z"/><path class="cls-10" d="m737.15,2463.32v-1.18h2.94v1.13c0,2.86,2.14,4.5,5.96,4.5s5.8-1.01,5.8-3.78c0-2.06-1.01-2.81-3.86-3.32l-4.62-.84c-3.02-.55-5.54-2.02-5.54-5.5,0-3.15,2.35-6.13,8.4-6.13s8.4,3.02,8.4,7.22v.88h-2.98v-.76c0-3.44-2.14-4.91-5.42-4.91-3.95,0-5.33,1.34-5.33,3.36s1.01,2.86,3.91,3.4l4.03.76c4.12.76,6.09,1.93,6.09,5.59,0,4.58-4.12,6.55-8.78,6.55-7.31,0-8.99-3.28-8.99-6.97Z"/><path class="cls-10" d="m771.76,2467.06v2.6c-.76.21-2.14.59-4.03.59-3.82,0-6.34-1.6-6.34-6.89v-12.18h-4.16v-2.44h4.16v-6.05l2.94-1.43v7.48h5.92v2.44h-5.92v11.8c0,2.81.76,4.58,3.4,4.58,1.6,0,3.23-.29,4.03-.5Z"/><path class="cls-10" d="m776.8,2448.74l6.89,17.98h.08l7.14-17.98h3.07v.04l-8.86,20.84-3.11,8.53h-2.98v-.04l3.19-8.36-8.78-20.96v-.04h3.36Z"/><path class="cls-10" d="m798.18,2436.98h2.94v32.77h-2.94v-32.77Z"/><path class="cls-10" d="m825.74,2460.25h-15.96c.17,4.79,2.48,7.48,6.93,7.48,3.82,0,5.67-1.43,5.96-4.83h2.98c-.29,4.24-3.28,7.39-9.03,7.39-7.06,0-9.83-4.66-9.83-10.88s3.23-11.22,10-11.22,8.95,3.99,8.95,10.21v1.85Zm-3.11-2.98c0-4.45-1.72-6.55-5.92-6.55s-6.55,2.65-6.89,6.97h12.81v-.42Z"/><path class="cls-10" d="m293.15,2508.26c0-6.38,3.23-11.22,10-11.22s8.95,3.91,8.95,8.95v.42h-3.11v-.63c0-3.82-1.64-6.09-5.84-6.09-4.75,0-7.01,3.11-7.01,8.4,0,5.63,2.39,8.49,6.93,8.49,3.82,0,5.84-1.85,5.92-5.67h3.02c-.08,4.66-3.15,8.23-9.03,8.23-7.22,0-9.83-4.75-9.83-10.88Z"/><path class="cls-10" d="m316.29,2508.09c0-6.22,3.32-11.05,10.38-11.05,6.59,0,10.25,4.83,10.25,11.05s-3.7,11.05-10.29,11.05c-7.27,0-10.33-4.83-10.33-11.05Zm17.56,0c0-5.33-2.9-8.49-7.23-8.49-4.75,0-7.27,3.15-7.27,8.49s2.56,8.49,7.27,8.49c4.33,0,7.23-3.15,7.23-8.49Z"/><path class="cls-10" d="m342.79,2497.59h2.61l.29,3.49c1.01-2.14,3.28-4.03,7.35-4.03,4.75,0,7.77,2.52,7.77,7.94v13.61h-2.94v-13.27c0-4.33-2.14-5.71-5.5-5.71-3.82,0-6.64,2.69-6.64,5.63v13.36h-2.94v-21Z"/><path class="cls-10" d="m366.27,2512.17v-1.18h2.94v1.13c0,2.86,2.14,4.5,5.96,4.5s5.8-1.01,5.8-3.78c0-2.06-1.01-2.81-3.86-3.32l-4.62-.84c-3.02-.55-5.54-2.02-5.54-5.5,0-3.15,2.35-6.13,8.4-6.13s8.4,3.02,8.4,7.23v.88h-2.98v-.76c0-3.44-2.14-4.92-5.42-4.92-3.95,0-5.33,1.34-5.33,3.36s1.01,2.86,3.91,3.4l4.03.76c4.12.76,6.09,1.93,6.09,5.59,0,4.58-4.12,6.55-8.78,6.55-7.31,0-8.99-3.28-8.99-6.97Z"/><path class="cls-10" d="m400.88,2515.9v2.6c-.76.21-2.14.59-4.03.59-3.82,0-6.34-1.6-6.34-6.89v-12.18h-4.16v-2.44h4.16v-6.05l2.94-1.43v7.48h5.92v2.44h-5.92v11.8c0,2.81.76,4.58,3.4,4.58,1.6,0,3.23-.29,4.03-.5Z"/><path class="cls-10" d="m405.71,2497.59h2.61l.29,3.91c1.01-2.14,3.07-4.45,6.76-4.45,1.26,0,2.18.21,3.02.55v3.15c-1.13-.5-2.1-.76-3.4-.76-3.74,0-6.34,2.81-6.34,5.75v12.85h-2.94v-21Z"/><path class="cls-10" d="m422.6,2511.2v-13.61h2.94v13.27c0,4.33,2.14,5.71,5.42,5.71,3.74,0,6.55-2.69,6.55-5.63v-13.36h2.94v21h-2.61l-.25-3.36h-.08c-.97,2.02-3.23,3.91-7.22,3.91-4.66,0-7.69-2.52-7.69-7.94Z"/><path class="cls-10" d="m446.12,2508.26c0-6.38,3.23-11.22,10-11.22s8.95,3.91,8.95,8.95v.42h-3.11v-.63c0-3.82-1.64-6.09-5.84-6.09-4.75,0-7.02,3.11-7.02,8.4,0,5.63,2.39,8.49,6.93,8.49,3.82,0,5.84-1.85,5.92-5.67h3.03c-.08,4.66-3.15,8.23-9.03,8.23-7.23,0-9.83-4.75-9.83-10.88Z"/><path class="cls-10" d="m481.9,2515.9v2.6c-.76.21-2.14.59-4.03.59-3.82,0-6.34-1.6-6.34-6.89v-12.18h-4.16v-2.44h4.16v-6.05l2.94-1.43v7.48h5.92v2.44h-5.92v11.8c0,2.81.76,4.58,3.4,4.58,1.6,0,3.23-.29,4.03-.5Z"/><path class="cls-10" d="m486.73,2485.83h2.98v6.51h-2.98v-6.51Zm0,11.76h2.94v21h-2.94v-21Z"/><path class="cls-10" d="m495.38,2508.09c0-6.22,3.32-11.05,10.38-11.05,6.59,0,10.25,4.83,10.25,11.05s-3.7,11.05-10.29,11.05c-7.27,0-10.33-4.83-10.33-11.05Zm17.56,0c0-5.33-2.9-8.49-7.23-8.49-4.75,0-7.27,3.15-7.27,8.49s2.56,8.49,7.27,8.49c4.33,0,7.23-3.15,7.23-8.49Z"/><path class="cls-10" d="m521.88,2497.59h2.61l.29,3.49c1.01-2.14,3.28-4.03,7.35-4.03,4.75,0,7.77,2.52,7.77,7.94v13.61h-2.94v-13.27c0-4.33-2.14-5.71-5.5-5.71-3.82,0-6.64,2.69-6.64,5.63v13.36h-2.94v-21Z"/><path class="cls-10" d="m556.91,2485.83h2.98v6.51h-2.98v-6.51Zm0,11.76h2.94v21h-2.94v-21Z"/><path class="cls-10" d="m567.24,2497.59h2.6l.29,3.49c1.01-2.14,3.28-4.03,7.35-4.03,4.75,0,7.77,2.52,7.77,7.94v13.61h-2.94v-13.27c0-4.33-2.14-5.71-5.5-5.71-3.82,0-6.64,2.69-6.64,5.63v13.36h-2.94v-21Z"/><path class="cls-10" d="m601.01,2512.79c0-3.95,2.23-6.09,7.86-6.09h6.34v-1.72c0-2.98-1.26-5.42-5.46-5.42-3.95,0-5.33,1.51-5.33,4.12v.88h-2.98v-.84c0-5,4.2-6.68,8.32-6.68,5.8,0,8.4,2.86,8.4,8.44v13.11h-2.06l-.55-2.98h-.08c-1.26,1.89-3.7,3.53-7.35,3.53-4.92,0-7.1-2.31-7.1-6.34Zm14.2-1.85v-1.76h-7.01c-2.65,0-4.03.92-4.03,3.61,0,2.35,1.26,3.87,4.49,3.87,4.16,0,6.55-2.14,6.55-5.71Z"/><path class="cls-10" d="m625.5,2485.83h2.94v32.77h-2.94v-32.77Z"/><path class="cls-10" d="m635.79,2485.83h2.94v32.77h-2.94v-32.77Z"/><path class="cls-10" d="m655.74,2485.83h2.94v32.77h-2.94v-32.77Z"/><path class="cls-10" d="m683.29,2509.1h-15.96c.17,4.79,2.48,7.48,6.93,7.48,3.82,0,5.67-1.43,5.96-4.83h2.98c-.29,4.24-3.28,7.39-9.03,7.39-7.06,0-9.83-4.66-9.83-10.88s3.23-11.22,10-11.22,8.95,3.99,8.95,10.21v1.85Zm-3.11-2.98c0-4.45-1.72-6.55-5.92-6.55s-6.55,2.65-6.89,6.97h12.81v-.42Z"/><path class="cls-10" d="m689.76,2512.21v-12.18h-4.16v-2.44h4.16v-6.05l2.94-1.43v7.48h11.85v-6.05l2.94-1.43v7.48h5.92v2.44h-5.92v11.8c0,2.81.76,4.58,3.4,4.58,1.6,0,3.23-.29,4.03-.5v2.6c-.76.21-2.14.59-4.03.59-3.82,0-6.34-1.6-6.34-6.89v-12.18h-11.85v11.8c0,2.81.76,4.58,3.4,4.58,1.6,0,3.23-.29,4.03-.5v2.6c-.76.21-2.14.59-4.03.59-3.82,0-6.34-1.6-6.34-6.89Z"/><path class="cls-10" d="m736.38,2509.1h-15.96c.17,4.79,2.48,7.48,6.93,7.48,3.82,0,5.67-1.43,5.96-4.83h2.98c-.29,4.24-3.28,7.39-9.03,7.39-7.06,0-9.83-4.66-9.83-10.88s3.23-11.22,10-11.22,8.95,3.99,8.95,10.21v1.85Zm-3.11-2.98c0-4.45-1.72-6.55-5.92-6.55s-6.55,2.65-6.89,6.97h12.81v-.42Z"/><path class="cls-10" d="m742.26,2497.59h2.6l.29,3.91c1.01-2.14,3.07-4.45,6.76-4.45,1.26,0,2.18.21,3.02.55v3.15c-1.13-.5-2.1-.76-3.4-.76-3.74,0-6.34,2.81-6.34,5.75v12.85h-2.94v-21Z"/><path class="cls-10" d="m757.46,2512.17v-1.18h2.94v1.13c0,2.86,2.14,4.5,5.96,4.5s5.8-1.01,5.8-3.78c0-2.06-1.01-2.81-3.87-3.32l-4.62-.84c-3.02-.55-5.54-2.02-5.54-5.5,0-3.15,2.35-6.13,8.4-6.13s8.4,3.02,8.4,7.23v.88h-2.98v-.76c0-3.44-2.14-4.92-5.42-4.92-3.95,0-5.34,1.34-5.34,3.36s1.01,2.86,3.91,3.4l4.03.76c4.12.76,6.09,1.93,6.09,5.59,0,4.58-4.12,6.55-8.78,6.55-7.31,0-8.99-3.28-8.99-6.97Z"/><line class="cls-4" x1="533.95" y1="2242.81" x2="533.95" y2="2243.68"/><line class="cls-6" x1="533.95" y1="2260.2" x2="533.95" y2="2397.32"/><line class="cls-4" x1="533.95" y1="2405.58" x2="533.95" y2="2406.46"/><path class="cls-10" d="m233.87,751.17h2.94v15.12h17.56v-15.12h2.94v32.77h-2.94v-15h-17.56v15h-2.94v-32.77Z"/><path class="cls-10" d="m265.91,751.17h2.98v6.51h-2.98v-6.51Zm0,11.76h2.94v21h-2.94v-21Z"/><path class="cls-10" d="m275.62,785.74v-.13h3.11v.13c0,2.9,1.93,4.33,6.13,4.33,4.79,0,7.02-2.94,7.02-7.86v-2.1h-.08c-1.09,2.18-3.65,4.07-7.48,4.07-6.3,0-9.75-3.99-9.75-10.71,0-7.1,4.37-11.09,9.96-11.09,3.78,0,6.55,1.81,7.56,4.12h.13l.29-3.57h2.31v19.16c0,5.88-2.81,10.71-10.33,10.71-6.3,0-8.86-2.98-8.86-7.06Zm16.59-12.77c0-5.5-3.36-8.07-7.35-8.07-3.02,0-7.14,1.47-7.14,8.4s3.57,8.32,7.1,8.32c4.24,0,7.39-2.73,7.39-8.65Z"/><path class="cls-10" d="m302.16,751.17h2.94v15.16c1.05-2.1,3.28-3.95,7.31-3.95,4.75,0,7.77,2.52,7.77,7.94v13.61h-2.94v-13.27c0-4.33-2.14-5.71-5.5-5.71-3.82,0-6.64,2.69-6.64,5.63v13.36h-2.94v-32.77Z"/><path class="cls-10" d="m334.46,762.97v-.04h2.98l5.75,17.48h.08l6.3-17.48h2.69l6.18,17.48h.08l5.75-17.48h2.86v.04l-7.18,20.96h-3.02l-5.96-17.06h-.08l-6.22,17.06h-3.02l-7.18-20.96Z"/><path class="cls-10" d="m369.86,778.14c0-3.95,2.23-6.09,7.86-6.09h6.34v-1.72c0-2.98-1.26-5.42-5.46-5.42-3.95,0-5.33,1.51-5.33,4.12v.88h-2.98v-.84c0-5,4.2-6.68,8.32-6.68,5.8,0,8.4,2.86,8.4,8.44v13.11h-2.06l-.55-2.98h-.08c-1.26,1.89-3.7,3.53-7.35,3.53-4.92,0-7.1-2.31-7.1-6.34Zm14.2-1.85v-1.76h-7.02c-2.65,0-4.03.92-4.03,3.61,0,2.35,1.26,3.86,4.5,3.86,4.16,0,6.55-2.14,6.55-5.71Z"/><path class="cls-10" d="m394.35,751.17h2.98v6.51h-2.98v-6.51Zm0,11.76h2.94v21h-2.94v-21Z"/><path class="cls-10" d="m402.79,777.51v-1.18h2.94v1.13c0,2.86,2.14,4.5,5.96,4.5s5.8-1.01,5.8-3.78c0-2.06-1.01-2.81-3.87-3.32l-4.62-.84c-3.02-.55-5.54-2.02-5.54-5.5,0-3.15,2.35-6.13,8.4-6.13s8.4,3.02,8.4,7.23v.88h-2.98v-.76c0-3.44-2.14-4.91-5.42-4.91-3.95,0-5.33,1.34-5.33,3.36s1.01,2.86,3.91,3.4l4.03.76c4.12.76,6.09,1.93,6.09,5.59,0,4.58-4.12,6.55-8.78,6.55-7.31,0-8.99-3.28-8.99-6.97Z"/><path class="cls-10" d="m437.4,781.25v2.6c-.76.21-2.14.59-4.03.59-3.82,0-6.34-1.6-6.34-6.89v-12.18h-4.16v-2.44h4.16v-6.05l2.94-1.43v7.48h5.92v2.44h-5.92v11.8c0,2.81.76,4.58,3.4,4.58,1.6,0,3.23-.29,4.03-.5Z"/><path class="cls-10" d="m451.89,751.17h2.98v6.51h-2.98v-6.51Zm0,11.76h2.94v21h-2.94v-21Z"/><path class="cls-10" d="m462.22,762.93h2.6l.29,3.49c1.01-2.14,3.28-4.03,7.35-4.03,4.75,0,7.77,2.52,7.77,7.94v13.61h-2.94v-13.27c0-4.33-2.14-5.71-5.5-5.71-3.82,0-6.64,2.69-6.64,5.63v13.36h-2.94v-21Z"/><path class="cls-10" d="m188.24,825.39v-13.61h2.94v13.27c0,4.33,2.14,5.71,5.42,5.71,3.74,0,6.55-2.69,6.55-5.63v-13.36h2.94v21h-2.6l-.25-3.36h-.08c-.97,2.02-3.24,3.91-7.23,3.91-4.66,0-7.69-2.52-7.69-7.94Z"/><path class="cls-10" d="m213.44,811.78h2.39l.34,3.86h.08c1.13-2.48,4.03-4.41,7.86-4.41,6.3,0,9.66,3.99,9.66,11.01s-4.28,11.09-9.87,11.09c-3.78,0-6.39-1.6-7.44-3.7h-.08v11.55h-2.94v-29.41Zm17.18,10.63c0-7.18-3.4-8.61-6.93-8.61-4.24,0-7.56,2.73-7.56,8.44,0,6.01,3.44,8.57,7.43,8.57,3.03,0,7.06-1.47,7.06-8.4Z"/><path class="cls-10" d="m239.64,811.78h2.39l.34,3.86h.08c1.13-2.48,4.03-4.41,7.86-4.41,6.3,0,9.66,3.99,9.66,11.01s-4.28,11.09-9.87,11.09c-3.78,0-6.39-1.6-7.44-3.7h-.08v11.55h-2.94v-29.41Zm17.18,10.63c0-7.18-3.4-8.61-6.93-8.61-4.24,0-7.56,2.73-7.56,8.44,0,6.01,3.44,8.57,7.43,8.57,3.03,0,7.06-1.47,7.06-8.4Z"/><path class="cls-10" d="m283.12,823.29h-15.96c.17,4.79,2.48,7.48,6.93,7.48,3.82,0,5.67-1.43,5.96-4.83h2.98c-.29,4.24-3.28,7.39-9.03,7.39-7.06,0-9.83-4.66-9.83-10.88s3.23-11.22,10-11.22,8.95,3.99,8.95,10.21v1.85Zm-3.11-2.98c0-4.45-1.72-6.55-5.92-6.55s-6.55,2.65-6.89,6.97h12.81v-.42Z"/><path class="cls-10" d="m288.99,811.78h2.6l.29,3.91c1.01-2.14,3.07-4.45,6.76-4.45,1.26,0,2.18.21,3.02.55v3.15c-1.13-.5-2.1-.76-3.4-.76-3.74,0-6.34,2.81-6.34,5.75v12.85h-2.94v-21Z"/><path class="cls-10" d="m303.99,822.45c0-6.38,3.23-11.22,10-11.22s8.95,3.91,8.95,8.95v.42h-3.11v-.63c0-3.82-1.64-6.09-5.84-6.09-4.75,0-7.02,3.11-7.02,8.4,0,5.63,2.39,8.49,6.93,8.49,3.82,0,5.84-1.85,5.92-5.67h3.02c-.08,4.66-3.15,8.23-9.03,8.23-7.23,0-9.83-4.75-9.83-10.88Z"/><path class="cls-10" d="m327.34,826.99c0-3.95,2.23-6.09,7.86-6.09h6.34v-1.72c0-2.98-1.26-5.42-5.46-5.42-3.95,0-5.33,1.51-5.33,4.12v.88h-2.98v-.84c0-5,4.2-6.68,8.32-6.68,5.8,0,8.4,2.86,8.4,8.44v13.11h-2.06l-.55-2.98h-.08c-1.26,1.89-3.7,3.53-7.35,3.53-4.92,0-7.1-2.31-7.1-6.34Zm14.2-1.85v-1.76h-7.01c-2.65,0-4.03.92-4.03,3.61,0,2.35,1.26,3.86,4.5,3.86,4.16,0,6.55-2.14,6.55-5.71Z"/><path class="cls-10" d="m349.93,826.35v-1.18h2.94v1.13c0,2.86,2.14,4.5,5.96,4.5s5.8-1.01,5.8-3.78c0-2.06-1.01-2.81-3.87-3.32l-4.62-.84c-3.02-.55-5.54-2.02-5.54-5.5,0-3.15,2.35-6.13,8.4-6.13s8.4,3.02,8.4,7.23v.88h-2.98v-.76c0-3.44-2.14-4.91-5.42-4.91-3.95,0-5.33,1.34-5.33,3.36s1.01,2.86,3.91,3.4l4.03.76c4.12.76,6.09,1.93,6.09,5.59,0,4.58-4.12,6.55-8.78,6.55-7.31,0-8.99-3.28-8.99-6.97Z"/><path class="cls-10" d="m390.85,823.29h-15.96c.17,4.79,2.48,7.48,6.93,7.48,3.82,0,5.67-1.43,5.96-4.83h2.98c-.29,4.24-3.28,7.39-9.03,7.39-7.06,0-9.83-4.66-9.83-10.88s3.23-11.22,10-11.22,8.95,3.99,8.95,10.21v1.85Zm-3.11-2.98c0-4.45-1.72-6.55-5.92-6.55s-6.55,2.65-6.89,6.97h12.81v-.42Z"/><path class="cls-10" d="m406.38,800.02h2.94v32.77h-2.94v-32.77Z"/><path class="cls-10" d="m433.94,823.29h-15.96c.17,4.79,2.48,7.48,6.93,7.48,3.82,0,5.67-1.43,5.96-4.83h2.98c-.29,4.24-3.28,7.39-9.03,7.39-7.06,0-9.83-4.66-9.83-10.88s3.23-11.22,10-11.22,8.95,3.99,8.95,10.21v1.85Zm-3.11-2.98c0-4.45-1.72-6.55-5.92-6.55s-6.55,2.65-6.89,6.97h12.81v-.42Z"/><path class="cls-10" d="m440.4,826.4v-12.18h-4.16v-2.44h4.16v-6.05l2.94-1.43v7.48h11.85v-6.05l2.94-1.43v7.48h5.92v2.44h-5.92v11.8c0,2.81.76,4.58,3.4,4.58,1.6,0,3.23-.29,4.03-.5v2.6c-.76.21-2.14.59-4.03.59-3.82,0-6.34-1.6-6.34-6.89v-12.18h-11.85v11.8c0,2.81.76,4.58,3.4,4.58,1.6,0,3.23-.29,4.03-.5v2.6c-.76.21-2.14.59-4.03.59-3.82,0-6.34-1.6-6.34-6.89Z"/><path class="cls-10" d="m487.03,823.29h-15.96c.17,4.79,2.48,7.48,6.93,7.48,3.82,0,5.67-1.43,5.96-4.83h2.98c-.29,4.24-3.28,7.39-9.03,7.39-7.06,0-9.83-4.66-9.83-10.88s3.23-11.22,10-11.22,8.95,3.99,8.95,10.21v1.85Zm-3.11-2.98c0-4.45-1.72-6.55-5.92-6.55s-6.55,2.65-6.89,6.97h12.81v-.42Z"/><path class="cls-10" d="m492.9,811.78h2.6l.29,3.91c1.01-2.14,3.07-4.45,6.76-4.45,1.26,0,2.18.21,3.02.55v3.15c-1.13-.5-2.1-.76-3.4-.76-3.74,0-6.34,2.81-6.34,5.75v12.85h-2.94v-21Z"/><path class="cls-10" d="m508.11,826.35v-1.18h2.94v1.13c0,2.86,2.14,4.5,5.96,4.5s5.8-1.01,5.8-3.78c0-2.06-1.01-2.81-3.87-3.32l-4.62-.84c-3.02-.55-5.54-2.02-5.54-5.5,0-3.15,2.35-6.13,8.4-6.13s8.4,3.02,8.4,7.23v.88h-2.98v-.76c0-3.44-2.14-4.91-5.42-4.91-3.95,0-5.33,1.34-5.33,3.36s1.01,2.86,3.91,3.4l4.03.76c4.12.76,6.09,1.93,6.09,5.59,0,4.58-4.12,6.55-8.78,6.55-7.31,0-8.99-3.28-8.99-6.97Z"/><path class="cls-10" d="m141.07,856.02h2.94v32.77h-2.94v-32.77Z"/><path class="cls-10" d="m151.36,856.02h2.98v6.51h-2.98v-6.51Zm0,11.76h2.94v21h-2.94v-21Z"/><path class="cls-10" d="m161.69,856.02h2.94v23.23l12.14-11.47h3.65v.04l-8.4,7.86,8.78,13.06v.04h-3.36l-7.39-11.22-5.42,5.04v6.18h-2.94v-32.77Z"/><path class="cls-10" d="m202.06,879.29h-15.96c.17,4.79,2.48,7.48,6.93,7.48,3.82,0,5.67-1.43,5.96-4.83h2.98c-.29,4.24-3.28,7.39-9.03,7.39-7.06,0-9.83-4.66-9.83-10.88s3.23-11.22,10-11.22,8.95,3.99,8.95,10.21v1.85Zm-3.11-2.98c0-4.45-1.72-6.55-5.92-6.55s-6.55,2.65-6.89,6.97h12.81v-.42Z"/><path class="cls-10" d="m219.27,866.48h-3.36v-5.08c0-3.95.88-5.29,3.4-5.97l.67,1.85c-1.76.67-2.06,1.09-2.06,3.78v.34h1.34v5.08Zm5.92,0h-3.36v-5.08c0-3.95.88-5.29,3.4-5.97l.67,1.85c-1.76.67-2.06,1.09-2.06,3.78v.34h1.34v5.08Z"/><path class="cls-10" d="m232.63,856.02h19.49v2.65h-16.55v12.22h14.62v2.6h-14.62v12.6h16.55v2.69h-19.49v-32.77Z"/><path class="cls-10" d="m256.32,865.22c1.76-.67,2.06-1.09,2.06-3.78v-.34h-1.34v-5.08h3.36v5.08c0,3.95-.88,5.29-3.4,5.97l-.67-1.85Zm5.92,0c1.76-.67,2.06-1.09,2.06-3.78v-.34h-1.34v-5.08h3.36v5.08c0,3.95-.88,5.29-3.4,5.97l-.67-1.85Z"/><path class="cls-10" d="m269.25,882.56h3.36v6.22c0,3.95-.88,5.29-3.4,5.96l-.67-1.85c1.76-.67,2.06-1.09,2.06-3.78v-.34h-1.34v-6.22Z"/><path class="cls-10" d="m290.25,866.48h-3.36v-5.08c0-3.95.88-5.29,3.4-5.97l.67,1.85c-1.76.67-2.06,1.09-2.06,3.78v.34h1.34v5.08Zm5.92,0h-3.36v-5.08c0-3.95.88-5.29,3.4-5.97l.67,1.85c-1.76.67-2.06,1.09-2.06,3.78v.34h1.34v5.08Z"/><path class="cls-10" d="m303.61,856.02h9.33c6.85,0,10,2.52,10,8.07,0,3.4-1.97,6.64-5.25,7.39v.08c3.78.55,6.85,2.73,6.85,7.9,0,6.3-3.23,9.33-11.72,9.33h-9.2v-32.77Zm8.86,14.53c6.13,0,7.44-2.9,7.44-6.51,0-3.86-2.06-5.42-7.48-5.42h-5.84v11.93h5.88Zm.13,15.63c6.47,0,8.86-1.68,8.86-6.72,0-4.12-1.97-6.39-9.03-6.39h-5.84v13.11h6.01Z"/><path class="cls-10" d="m328.3,865.22c1.76-.67,2.06-1.09,2.06-3.78v-.34h-1.34v-5.08h3.36v5.08c0,3.95-.88,5.29-3.4,5.97l-.67-1.85Zm5.92,0c1.76-.67,2.06-1.09,2.06-3.78v-.34h-1.34v-5.08h3.36v5.08c0,3.95-.88,5.29-3.4,5.97l-.67-1.85Z"/><path class="cls-10" d="m341.24,882.56h3.36v6.22c0,3.95-.88,5.29-3.4,5.96l-.67-1.85c1.76-.67,2.06-1.09,2.06-3.78v-.34h-1.34v-6.22Z"/><path class="cls-10" d="m362.24,866.48h-3.36v-5.08c0-3.95.88-5.29,3.4-5.97l.67,1.85c-1.76.67-2.06,1.09-2.06,3.78v.34h1.34v5.08Zm5.92,0h-3.36v-5.08c0-3.95.88-5.29,3.4-5.97l.67,1.85c-1.76.67-2.06,1.09-2.06,3.78v.34h1.34v5.08Z"/><path class="cls-10" d="m373.29,872.57c0-11.85,6.51-17.1,14.49-17.1,7.56,0,12.64,3.78,12.64,11.47v.5h-2.86v-.63c0-5.33-3.49-8.7-9.7-8.7-6.72,0-11.47,4.58-11.47,14.28s4.75,14.28,11.76,14.28c5.63,0,9.45-2.52,9.45-8.78v-2.73h-9.83v-2.6h12.64v16.21h-2.1l-.67-3.74c-1.6,2.48-5.17,4.28-9.75,4.28-8.32,0-14.62-4.87-14.62-16.76Z"/><path class="cls-10" d="m405.25,865.22c1.76-.67,2.06-1.09,2.06-3.78v-.34h-1.34v-5.08h3.36v5.08c0,3.95-.88,5.29-3.4,5.97l-.67-1.85Zm5.92,0c1.76-.67,2.06-1.09,2.06-3.78v-.34h-1.34v-5.08h3.36v5.08c0,3.95-.88,5.29-3.4,5.97l-.67-1.85Z"/><path class="cls-10" d="m418.19,882.56h3.36v6.22c0,3.95-.88,5.29-3.4,5.96l-.67-1.85c1.76-.67,2.06-1.09,2.06-3.78v-.34h-1.34v-6.22Z"/><path class="cls-10" d="m439.19,866.48h-3.36v-5.08c0-3.95.88-5.29,3.4-5.97l.67,1.85c-1.76.67-2.06,1.09-2.06,3.78v.34h1.34v5.08Zm5.92,0h-3.36v-5.08c0-3.95.88-5.29,3.4-5.97l.67,1.85c-1.76.67-2.06,1.09-2.06,3.78v.34h1.34v5.08Z"/><path class="cls-10" d="m452.54,856.02h8.61c7.94,0,11.64,2.44,11.64,8.86,0,4.58-2.18,7.98-6.76,9.33l7.85,14.53v.04h-3.32l-7.35-14.03c-.67.04-1.34.08-2.1.08h-5.59v13.95h-2.98v-32.77Zm8.74,16.3c6.09,0,8.49-2.81,8.49-7.31,0-4.75-2.6-6.38-8.44-6.38h-5.8v13.69h5.75Z"/><path class="cls-10" d="m477.24,865.22c1.76-.67,2.06-1.09,2.06-3.78v-.34h-1.34v-5.08h3.36v5.08c0,3.95-.88,5.29-3.4,5.97l-.67-1.85Zm5.92,0c1.76-.67,2.06-1.09,2.06-3.78v-.34h-1.34v-5.08h3.36v5.08c0,3.95-.88,5.29-3.4,5.97l-.67-1.85Z"/><path class="cls-10" d="m490.17,882.56h3.36v6.22c0,3.95-.88,5.29-3.4,5.96l-.67-1.85c1.76-.67,2.06-1.09,2.06-3.78v-.34h-1.34v-6.22Z"/><path class="cls-10" d="m526.76,879.29h-15.96c.17,4.79,2.48,7.48,6.93,7.48,3.82,0,5.67-1.43,5.96-4.83h2.98c-.29,4.24-3.28,7.39-9.03,7.39-7.06,0-9.83-4.66-9.83-10.88s3.23-11.22,10-11.22,8.95,3.99,8.95,10.21v1.85Zm-3.11-2.98c0-4.45-1.72-6.55-5.92-6.55s-6.55,2.65-6.89,6.97h12.81v-.42Z"/><path class="cls-10" d="m543.6,886.09v2.6c-.76.21-2.14.59-4.03.59-3.82,0-6.34-1.6-6.34-6.89v-12.18h-4.16v-2.44h4.16v-6.05l2.94-1.43v7.48h5.92v2.44h-5.92v11.8c0,2.81.76,4.58,3.4,4.58,1.6,0,3.23-.29,4.03-.5Z"/><path class="cls-10" d="m546.12,878.45c0-6.38,3.23-11.22,10-11.22s8.95,3.91,8.95,8.95v.42h-3.11v-.63c0-3.82-1.64-6.09-5.84-6.09-4.75,0-7.02,3.11-7.02,8.4,0,5.63,2.39,8.49,6.93,8.49,3.82,0,5.84-1.85,5.92-5.67h3.02c-.08,4.66-3.15,8.23-9.03,8.23-7.23,0-9.83-4.75-9.83-10.88Z"/><path class="cls-10" d="m569.68,882.86h3.36v5.92h-3.36v-5.92Z"/><line class="cls-4" x1="356.09" y1="562" x2="356.09" y2="562.87"/><line class="cls-6" x1="356.09" y1="579.39" x2="356.09" y2="716.51"/><line class="cls-4" x1="356.09" y1="724.77" x2="356.09" y2="725.65"/><path class="cls-10" d="m591.21,1618.73h-13.99l-3.74,10.33h-3.07l12.18-32.77h3.32l12.1,32.77h-3.07l-3.74-10.33Zm-.92-2.6l-6.05-16.8h-.04l-6.05,16.8h12.14Z"/><path class="cls-10" d="m602.22,1596.3h2.94v32.77h-2.94v-32.77Z"/><path class="cls-10" d="m623.47,1626.38v2.6c-.76.21-2.14.59-4.03.59-3.82,0-6.34-1.6-6.34-6.89v-12.18h-4.16v-2.44h4.16v-6.05l2.94-1.43v7.48h5.92v2.44h-5.92v11.8c0,2.81.76,4.58,3.4,4.58,1.6,0,3.23-.29,4.03-.5Z"/><path class="cls-10" d="m644.93,1619.57h-15.96c.17,4.79,2.48,7.48,6.93,7.48,3.82,0,5.67-1.43,5.96-4.83h2.98c-.29,4.24-3.28,7.39-9.03,7.39-7.06,0-9.83-4.66-9.83-10.88s3.23-11.22,10-11.22,8.95,3.99,8.95,10.21v1.85Zm-3.11-2.98c0-4.45-1.72-6.55-5.92-6.55s-6.55,2.65-6.89,6.97h12.81v-.42Z"/><path class="cls-10" d="m650.81,1608.06h2.6l.29,3.91c1.01-2.14,3.07-4.45,6.76-4.45,1.26,0,2.19.21,3.03.55v3.15c-1.13-.5-2.1-.76-3.4-.76-3.74,0-6.34,2.81-6.34,5.75v12.85h-2.94v-21Z"/><path class="cls-10" d="m668.11,1608.06h2.61l.29,3.49c1.01-2.14,3.28-4.03,7.35-4.03,4.75,0,7.77,2.52,7.77,7.94v13.61h-2.94v-13.27c0-4.33-2.14-5.71-5.5-5.71-3.82,0-6.64,2.69-6.64,5.63v13.36h-2.94v-21Z"/><path class="cls-10" d="m692.22,1623.27c0-3.95,2.23-6.09,7.86-6.09h6.34v-1.72c0-2.98-1.26-5.42-5.46-5.42-3.95,0-5.33,1.51-5.33,4.12v.88h-2.98v-.84c0-5,4.2-6.68,8.32-6.68,5.8,0,8.4,2.86,8.4,8.44v13.11h-2.06l-.55-2.98h-.08c-1.26,1.89-3.7,3.53-7.35,3.53-4.91,0-7.1-2.31-7.1-6.34Zm14.2-1.85v-1.76h-7.02c-2.65,0-4.03.92-4.03,3.61,0,2.35,1.26,3.86,4.5,3.86,4.16,0,6.55-2.14,6.55-5.71Z"/><path class="cls-10" d="m727.46,1626.38v2.6c-.76.21-2.14.59-4.03.59-3.82,0-6.34-1.6-6.34-6.89v-12.18h-4.16v-2.44h4.16v-6.05l2.94-1.43v7.48h5.92v2.44h-5.92v11.8c0,2.81.76,4.58,3.4,4.58,1.6,0,3.23-.29,4.03-.5Z"/><path class="cls-10" d="m748.92,1619.57h-15.96c.17,4.79,2.48,7.48,6.93,7.48,3.82,0,5.67-1.43,5.96-4.83h2.98c-.29,4.24-3.28,7.39-9.03,7.39-7.06,0-9.83-4.66-9.83-10.88s3.23-11.22,10-11.22,8.95,3.99,8.95,10.21v1.85Zm-3.11-2.98c0-4.45-1.72-6.55-5.92-6.55s-6.55,2.65-6.89,6.97h12.81v-.42Z"/><path class="cls-10" d="m474.18,1667.45c0-7.1,4.28-11.09,10.04-11.09,3.7,0,6.22,1.6,7.31,3.74h.04v-14.96h2.94v32.77h-1.97l-.67-3.61h-.08c-1.18,2.31-3.95,4.16-7.77,4.16-6.3,0-9.83-3.99-9.83-11.01Zm17.64-.5c0-5.5-3.36-8.07-7.35-8.07-3.11,0-7.14,1.47-7.14,8.4s3.61,8.61,7.14,8.61c4.24,0,7.35-2.73,7.35-8.95Z"/><path class="cls-10" d="m500.18,1667.41c0-6.22,3.32-11.05,10.38-11.05,6.59,0,10.25,4.83,10.25,11.05s-3.7,11.05-10.29,11.05c-7.27,0-10.33-4.83-10.33-11.05Zm17.56,0c0-5.33-2.9-8.49-7.23-8.49-4.75,0-7.27,3.15-7.27,8.49s2.56,8.49,7.27,8.49c4.33,0,7.23-3.15,7.23-8.49Z"/><path class="cls-10" d="m526.26,1670.52v-13.61h2.94v13.27c0,4.33,2.14,5.71,5.42,5.71,3.74,0,6.55-2.69,6.55-5.63v-13.36h2.94v21h-2.6l-.25-3.36h-.08c-.97,2.02-3.24,3.91-7.23,3.91-4.66,0-7.69-2.52-7.69-7.94Z"/><path class="cls-10" d="m554.27,1674.43h-.08l-.76,3.49h-1.97v-32.77h2.94v15.25h.04c1.26-2.31,4.07-4.03,7.69-4.03,6.3,0,9.66,3.99,9.66,11.01s-4.29,11.09-9.87,11.09c-3.78,0-6.55-1.64-7.65-4.03Zm14.37-6.89c0-7.18-3.4-8.61-6.93-8.61-4.24,0-7.56,2.73-7.56,8.44,0,6.01,3.44,8.57,7.43,8.57,3.03,0,7.06-1.47,7.06-8.4Z"/><path class="cls-10" d="m577.04,1645.15h2.94v32.77h-2.94v-32.77Z"/><path class="cls-10" d="m604.59,1668.42h-15.96c.17,4.79,2.48,7.48,6.93,7.48,3.82,0,5.67-1.43,5.96-4.83h2.98c-.29,4.24-3.28,7.39-9.03,7.39-7.06,0-9.83-4.66-9.83-10.88s3.23-11.22,10-11.22,8.95,3.99,8.95,10.21v1.85Zm-3.11-2.98c0-4.45-1.72-6.55-5.92-6.55s-6.55,2.65-6.89,6.97h12.81v-.42Z"/><path class="cls-10" d="m608.79,1664.43h10.58v2.81h-10.58v-2.81Z"/><path class="cls-10" d="m623.36,1671.49v-1.18h2.94v1.13c0,2.86,2.14,4.5,5.96,4.5s5.8-1.01,5.8-3.78c0-2.06-1.01-2.81-3.86-3.32l-4.62-.84c-3.03-.55-5.54-2.02-5.54-5.5,0-3.15,2.35-6.13,8.4-6.13s8.4,3.02,8.4,7.23v.88h-2.98v-.76c0-3.44-2.14-4.92-5.42-4.92-3.95,0-5.33,1.34-5.33,3.36s1.01,2.86,3.91,3.4l4.03.76c4.12.76,6.09,1.93,6.09,5.59,0,4.58-4.12,6.55-8.78,6.55-7.31,0-8.99-3.28-8.99-6.97Z"/><path class="cls-10" d="m657.97,1675.22v2.6c-.76.21-2.14.59-4.03.59-3.82,0-6.34-1.6-6.34-6.89v-12.18h-4.16v-2.44h4.16v-6.05l2.94-1.43v7.48h5.92v2.44h-5.92v11.8c0,2.81.76,4.58,3.4,4.58,1.6,0,3.23-.29,4.03-.5Z"/><path class="cls-10" d="m660.49,1667.41c0-6.22,3.32-11.05,10.38-11.05,6.59,0,10.25,4.83,10.25,11.05s-3.7,11.05-10.29,11.05c-7.27,0-10.33-4.83-10.33-11.05Zm17.56,0c0-5.33-2.9-8.49-7.23-8.49-4.75,0-7.27,3.15-7.27,8.49s2.56,8.49,7.27,8.49c4.33,0,7.23-3.15,7.23-8.49Z"/><path class="cls-10" d="m686.99,1656.91h2.61l.29,3.91c1.01-2.14,3.07-4.45,6.76-4.45,1.26,0,2.18.21,3.02.55v3.15c-1.13-.5-2.1-.76-3.4-.76-3.74,0-6.34,2.81-6.34,5.75v12.85h-2.94v-21Z"/><path class="cls-10" d="m720.93,1668.42h-15.96c.17,4.79,2.48,7.48,6.93,7.48,3.82,0,5.67-1.43,5.96-4.83h2.98c-.29,4.24-3.28,7.39-9.03,7.39-7.06,0-9.83-4.66-9.83-10.88s3.23-11.22,10-11.22,8.95,3.99,8.95,10.21v1.85Zm-3.11-2.98c0-4.45-1.72-6.55-5.92-6.55s-6.55,2.65-6.89,6.97h12.81v-.42Z"/><path class="cls-10" d="m726.18,1656.91l6.89,17.98h.08l7.14-17.98h3.07v.04l-8.86,20.84-3.11,8.53h-2.98v-.04l3.19-8.36-8.78-20.96v-.04h3.36Z"/><path class="cls-10" d="m763.98,1668.42h-15.96c.17,4.79,2.48,7.48,6.93,7.48,3.82,0,5.67-1.43,5.96-4.83h2.98c-.29,4.24-3.28,7.39-9.03,7.39-7.06,0-9.83-4.66-9.83-10.88s3.23-11.22,10-11.22,8.95,3.99,8.95,10.21v1.85Zm-3.11-2.98c0-4.45-1.72-6.55-5.92-6.55s-6.55,2.65-6.89,6.97h12.81v-.42Z"/><path class="cls-10" d="m768.18,1667.45c0-7.1,4.28-11.09,10.04-11.09,3.7,0,6.22,1.6,7.31,3.74h.04v-14.96h2.94v32.77h-1.97l-.67-3.61h-.08c-1.18,2.31-3.95,4.16-7.77,4.16-6.3,0-9.83-3.99-9.83-11.01Zm17.64-.5c0-5.5-3.36-8.07-7.35-8.07-3.11,0-7.14,1.47-7.14,8.4s3.61,8.61,7.14,8.61c4.24,0,7.35-2.73,7.35-8.95Z"/><path class="cls-10" d="m807.2,1655.61h-3.36v-5.08c0-3.95.88-5.29,3.4-5.96l.67,1.85c-1.77.67-2.06,1.09-2.06,3.78v.34h1.34v5.08Zm5.92,0h-3.36v-5.08c0-3.95.88-5.29,3.4-5.96l.67,1.85c-1.76.67-2.06,1.09-2.06,3.78v.34h1.34v5.08Z"/><path class="cls-10" d="m816.77,1672.12c0-3.95,2.23-6.09,7.86-6.09h6.34v-1.72c0-2.98-1.26-5.42-5.46-5.42-3.95,0-5.33,1.51-5.33,4.12v.88h-2.98v-.84c0-5,4.2-6.68,8.32-6.68,5.8,0,8.4,2.86,8.4,8.44v13.11h-2.06l-.55-2.98h-.08c-1.26,1.89-3.7,3.53-7.35,3.53-4.91,0-7.1-2.31-7.1-6.34Zm14.2-1.85v-1.76h-7.02c-2.65,0-4.03.92-4.03,3.61,0,2.35,1.26,3.87,4.5,3.87,4.16,0,6.55-2.14,6.55-5.71Z"/><path class="cls-10" d="m836.85,1654.35c1.77-.67,2.06-1.09,2.06-3.78v-.34h-1.34v-5.08h3.36v5.08c0,3.95-.88,5.29-3.4,5.96l-.67-1.85Zm5.92,0c1.76-.67,2.06-1.09,2.06-3.78v-.34h-1.34v-5.08h3.36v5.08c0,3.95-.88,5.29-3.4,5.96l-.67-1.85Z"/><line class="cls-4" x1="660.18" y1="1407.13" x2="660.18" y2="1408.01"/><line class="cls-6" x1="660.18" y1="1424.53" x2="660.18" y2="1561.65"/><line class="cls-4" x1="660.18" y1="1569.91" x2="660.18" y2="1570.78"/><path class="cls-10" d="m641.38,3072.46l-142.51-157.28v150.14c0,5.72-4.77,10.01-10.01,10.01s-10.01-4.29-10.01-10.01v-319.81c0-5.24,4.77-9.53,10.01-9.53h71.97c45.76,0,81.5,36.7,81.5,80.55s-37.18,80.07-81.5,80.07h-51.95l147.28,162.53c3.81,4.29,3.34,10.49-.95,14.3-2.38,1.43-4.29,2.38-6.67,2.38-2.86,0-5.24-.95-7.15-3.34Zm-80.55-316.95h-61.96v121.54h62.91c32.89,0,61.01-27.17,61.01-60.53s-27.64-61.01-61.96-61.01Z"/><path class="cls-10" d="m720.37,2840.35v-23.83c0-5.72,4.29-10.01,10.01-10.01,5.24,0,10.01,4.29,10.01,10.01v23.83c0,5.72-4.77,10.01-10.01,10.01-5.72,0-10.01-4.29-10.01-10.01Zm10.01,235.92c-5.72,0-10.01-4.29-10.01-10.01v-169.68c0-5.24,4.29-10.01,10.01-10.01,5.24,0,10.01,4.76,10.01,10.01v169.68c0,5.72-4.77,10.01-10.01,10.01Z"/><path class="cls-10" d="m824.8,2896.59h-31.46c-5.24,0-9.53-4.29-9.53-9.53,0-5.72,4.29-10.01,9.53-10.01h31.46v-60.05c0-5.72,4.77-10.01,10.01-10.01,5.72,0,10.01,4.29,10.01,10.01v60.05h47.18c5.24,0,10.01,4.29,10.01,10.01,0,5.24-4.77,9.53-10.01,9.53h-47.18v127.26c0,18.59,11.92,32.41,27.17,32.41,5.24,0,9.53,4.77,9.53,10.01,0,5.72-4.29,10.01-9.53,10.01-26.69,0-47.19-23.35-47.19-52.43v-127.26Z"/><path class="cls-10" d="m1123.59,2896.59v170.15c0,5.24-4.29,9.53-10.01,9.53-5.24,0-10.01-4.29-10.01-9.53v-24.31c-.47.48-.95,1.43-.95,1.91-.48.48-.95,1.43-1.43,1.91-15.73,19.54-37.65,30.03-61.01,30.03-21.45,0-42.9-9.53-58.15-27.17-16.68-18.11-24.78-40.51-24.78-67.68v-84.84c0-5.72,4.29-10.01,10.01-10.01,5.24,0,9.53,4.29,9.53,10.01v84.84c0,41.47,28.6,75.3,63.39,75.3,38.13,0,63.39-39.08,63.39-75.3v-84.84c0-5.72,4.77-10.01,10.01-10.01,5.72,0,10.01,4.29,10.01,10.01Zm-129.16-56.24v-23.83c0-5.72,4.29-10.01,10.01-10.01,5.24,0,9.53,4.29,9.53,10.01v23.83c0,5.72-4.29,10.01-9.53,10.01-5.72,0-10.01-4.29-10.01-10.01Zm71.97,0v-23.83c0-5.72,4.77-10.01,10.01-10.01,5.72,0,10.01,4.29,10.01,10.01v23.83c0,5.72-4.29,10.01-10.01,10.01-5.24,0-10.01-4.29-10.01-10.01Z"/><path class="cls-10" d="m1274.56,3076.27c-46.23,0-82.46-41.47-82.46-94.85s36.22-94.85,79.59-94.85,80.07,42.89,80.07,94.85c0,5.72-4.29,10.01-10.01,10.01h-127.26c-.95,0-1.91,0-2.38-.48,3.81,37.18,30.03,65.3,62.44,65.3,18.59,0,33.84-8.1,46.71-23.83,3.34-4.29,9.53-5.24,13.82-1.91s5.24,9.53,1.91,13.82c-16.68,21.45-37.18,31.93-62.43,31.93Zm-62.44-104.38c.48,0,.95,0,1.43-.48h117.72c-3.81-36.22-28.6-64.82-59.58-64.82s-55.76,28.12-59.58,65.3Z"/><path class="cls-10" d="m1480.47,3062.73c0,5.24-4.29,10.01-10.01,10.01-31.46,0-48.14-29.08-48.14-58.62v-272.15c0-5.24,4.29-10.01,10.01-10.01,5.24,0,10.01,4.77,10.01,10.01v272.15c0,14.77,6.67,38.61,28.12,38.61,5.72,0,10.01,4.77,10.01,10.01Z"/><path class="cls-13" d="m372.76,543.02h-164.91c-5.24,0-10.01-4.76-10.01-10V212.25c0-5.24,4.77-9.53,10.01-9.53h164.91c5.24,0,10.01,4.29,10.01,9.53,0,5.72-4.76,10.01-10.01,10.01h-154.9v121.53h154.9c5.24,0,10.01,4.29,10.01,10.01,0,5.24-4.76,10.01-10.01,10.01h-154.9v159.19h154.9c5.24,0,10.01,4.76,10.01,10.01s-4.76,10-10.01,10Z"/><path class="cls-10" d="m561.09,375.73l-92.46,73.4,92.46,72.92c4.29,3.82,4.77,10.01,1.43,14.3-1.91,2.38-4.29,3.34-7.63,3.34-2.38,0-4.77-.48-6.19-1.91l-86.27-68.16v63.87c0,5.72-4.29,10-10.01,10-5.24,0-9.53-4.29-9.53-10V212.73c0-5.24,4.29-10.01,9.53-10.01,5.72,0,10.01,4.77,10.01,10.01v215.9l86.27-68.63c4.29-3.33,10.48-2.38,13.82,1.91,3.34,3.82,2.86,10.49-1.43,13.82Z"/><path class="cls-10" d="m628.87,543.5c-5.72,0-10.01-4.76-10.01-10v-169.68c0-5.72,4.29-10.01,10.01-10.01,5.24,0,9.53,4.29,9.53,10.01v12.87c12.87-15.25,30.03-22.88,51.95-22.88,20.5,0,38.13,8.1,52.43,23.83,3.81,4.29,6.67,9.06,10.01,14.3,11.44-24.31,32.41-38.13,59.58-38.13,20.97,0,40.03,8.58,53.38,23.83,11.92,13.34,19.06,31.46,19.06,49.09v106.76c0,5.24-4.29,10-10.01,10-5.24,0-10.01-4.76-10.01-10v-106.76c0-33.37-26.69-52.91-52.43-52.91-20.02,0-50.52,11.92-50.52,72.93v86.75c0,5.24-4.77,10-10.01,10-5.72,0-10.01-4.76-10.01-10v-106.76c0-27.17-21.92-52.91-51.47-52.91-44.33,0-51.95,45.76-51.95,72.93v86.75c0,5.24-4.29,10-9.53,10Z"/><path class="cls-10" d="m1024.3,543.5c-46.23,0-82.46-41.46-82.46-94.84s36.22-94.85,79.59-94.85,80.07,42.89,80.07,94.85c0,5.72-4.29,10-10.01,10h-127.26c-.95,0-1.91,0-2.38-.48,3.81,37.18,30.03,65.3,62.44,65.3,18.59,0,33.84-8.1,46.71-23.83,3.34-4.29,9.53-5.24,13.82-1.91,4.29,3.34,5.24,9.53,1.91,13.82-16.68,21.45-37.18,31.93-62.43,31.93Zm-62.44-104.38c.48,0,.95,0,1.43-.48h117.72c-3.81-36.22-28.6-64.82-59.58-64.82s-55.76,28.12-59.58,65.3Z"/><path class="cls-10" d="m1333.87,599.74c0,51.95-36.22,94.84-82.93,94.84-30.5,0-57.19-18.11-71.97-48.13-2.38-5.25-.95-10.96,4.29-13.35,5.24-2.38,10.96-.47,13.35,4.77,11.44,22.88,31.93,37.18,54.33,37.18,34.32,0,62.91-33.84,62.91-75.3v-89.6c-15.25,20.49-37.65,33.36-62.91,33.36-46.71,0-82.93-42.89-82.93-94.84s37.65-94.85,82.93-94.85c25.26,0,47.66,12.87,62.91,33.37v-23.35c0-5.25,4.29-10.01,10.01-10.01,5.24,0,10.01,4.76,10.01,10.01v235.92Zm-20.02-151.09c0-41.47-28.6-74.83-62.91-74.83s-62.91,33.37-62.91,74.83,28.6,74.83,62.91,74.83,62.91-33.37,62.91-74.83Zm-31.46-168.72c3.34-5.24,9.53-5.72,13.82-2.38,4.29,3.34,5.24,9.53,1.91,13.82-12.87,17.63-28.6,26.69-47.19,26.69s-34.32-9.06-47.66-26.69c-3.34-4.29-1.91-10.48,2.38-13.82,4.29-3.34,10.49-2.86,13.82,2.38,9.05,11.92,20.02,18.11,31.45,18.11s22.4-6.19,31.46-18.11Z"/><path class="cls-10" d="m1424.01,307.58v-23.83c0-5.72,4.29-10.01,10.01-10.01,5.24,0,10.01,4.29,10.01,10.01v23.83c0,5.72-4.77,10.01-10.01,10.01-5.72,0-10.01-4.29-10.01-10.01Zm10.01,235.92c-5.72,0-10.01-4.29-10.01-10v-169.68c0-5.25,4.29-10.01,10.01-10.01,5.24,0,10.01,4.76,10.01,10.01v169.68c0,5.72-4.77,10-10.01,10Z"/><path class="cls-10" d="m1506.95,533.96v-170.15c0-5.72,4.29-10.01,9.53-10.01,5.72,0,10.01,4.29,10.01,10.01v21.45c14.77-19.54,36.7-31.46,61.96-31.46,46.23,0,82.45,40.99,82.45,94.37v85.79c0,5.25-4.77,9.53-10.01,9.53-5.72,0-10.01-4.29-10.01-9.53v-85.79c0-42.42-27.64-74.36-62.43-74.36s-61.96,32.41-61.96,74.83v85.31c0,5.25-4.29,9.53-10.01,9.53-5.24,0-9.53-4.29-9.53-9.53Z"/><path class="cls-10" d="m1744.89,307.58v-23.83c0-5.72,4.29-10.01,10.01-10.01,5.24,0,10,4.29,10,10.01v23.83c0,5.72-4.76,10.01-10,10.01-5.72,0-10.01-4.29-10.01-10.01Zm10.01,235.92c-5.72,0-10.01-4.29-10.01-10v-169.68c0-5.25,4.29-10.01,10.01-10.01,5.24,0,10,4.76,10,10.01v169.68c0,5.72-4.76,10-10,10Z"/><path class="cls-10" d="m246.72,2226.45c-82.46,0-149.66-76.26-149.66-170.15s67.2-170.15,149.66-170.15c57.67,0,98.66,28.12,106.29,35.75,3.81,3.33,4.29,10,.48,13.82-3.81,3.81-10.01,4.29-13.82.48,0,0-11.44-8.58-24.78-15.25-15.73-7.63-39.08-15.25-68.16-15.25-71.97,0-130.12,68.16-130.12,150.61s57.67,150.14,130.12,150.14,131.54-67.68,131.54-150.14v-8.1h-112.48c-5.24,0-10.01-4.29-10.01-10,0-5.25,4.77-9.53,10.01-9.53h122.01c5.72,0,10.01,4.29,10.01,9.53v18.11c0,93.9-67.68,170.15-151.09,170.15Z"/><path class="cls-11" d="m616.88,2047.24v169.68c0,5.72-4.29,10.01-10.01,10.01-5.24,0-9.53-4.29-9.53-10.01v-23.35c-15.25,20.5-38.13,33.37-63.39,33.37-45.76,0-82.46-41.95-82.46-94.85s36.7-94.84,82.46-94.84c25.26,0,48.14,12.87,63.39,33.36v-23.35c0-5.24,4.29-10,9.53-10,5.72,0,10.01,4.76,10.01,10Zm-19.54,84.84c0-41.46-28.6-74.83-63.39-74.83s-62.91,33.37-62.91,74.83,28.6,74.83,62.91,74.83,63.39-33.37,63.39-74.83Z"/><path class="cls-10" d="m833.85,2216.92c0,5.72-4.29,10.01-10.01,10.01h-140.6c-4.29,0-7.15-1.91-8.58-5.72-2.38-3.82-1.91-7.15,1.43-10.49l126.78-153.47h-98.18c-5.24,0-10.01-4.29-10.01-10.01,0-5.24,4.77-10,10.01-10h119.15c4.29,0,7.63,1.91,9.05,5.72,1.91,4.29,1.43,7.63-1.43,10.49l-126.78,153.47h119.15c5.72,0,10.01,4.76,10.01,10Z"/><path class="cls-10" d="m943.73,2226.93c-46.23,0-82.46-41.47-82.46-94.85s36.22-94.84,79.59-94.84,80.07,42.89,80.07,94.84c0,5.72-4.29,10.01-10.01,10.01h-127.26c-.95,0-1.91,0-2.38-.48,3.81,37.18,30.03,65.3,62.44,65.3,18.59,0,33.84-8.1,46.71-23.83,3.34-4.29,9.53-5.25,13.82-1.91,4.29,3.33,5.24,9.53,1.91,13.82-16.68,21.45-37.18,31.93-62.43,31.93Zm-62.44-104.38c.48,0,.95,0,1.43-.48h117.72c-3.81-36.23-28.6-64.82-59.58-64.82s-55.76,28.12-59.58,65.3Z"/><path class="cls-10" d="m1102.07,2047.24h-31.46c-5.24,0-9.53-4.29-9.53-9.53,0-5.72,4.29-10.01,9.53-10.01h31.46v-60.05c0-5.72,4.77-10.01,10.01-10.01,5.72,0,10.01,4.29,10.01,10.01v60.05h47.18c5.24,0,10.01,4.29,10.01,10.01,0,5.24-4.77,9.53-10.01,9.53h-47.18v127.26c0,18.58,11.91,32.41,27.16,32.41,5.24,0,9.53,4.76,9.53,10,0,5.72-4.29,10.01-9.53,10.01-26.69,0-47.18-23.35-47.18-52.43v-127.26Z"/><path class="cls-10" d="m1283.9,2226.93c-46.23,0-82.46-41.47-82.46-94.85s36.22-94.84,79.59-94.84,80.07,42.89,80.07,94.84c0,5.72-4.29,10.01-10.01,10.01h-127.26c-.95,0-1.91,0-2.38-.48,3.81,37.18,30.03,65.3,62.44,65.3,18.59,0,33.84-8.1,46.71-23.83,3.34-4.29,9.53-5.25,13.82-1.91,4.29,3.33,5.24,9.53,1.91,13.82-16.68,21.45-37.18,31.93-62.43,31.93Zm-62.44-104.38c.48,0,.95,0,1.43-.48h117.72c-3.81-36.23-28.6-64.82-59.58-64.82s-55.76,28.12-59.58,65.3Z"/><path class="cls-10" d="m1455.5,2199.76c-16.2-18.11-24.31-40.51-24.31-67.68v-84.84c0-5.72,4.29-10,10.01-10,5.24,0,9.53,4.29,9.53,10v84.84c0,41.47,28.6,75.31,62.91,75.31,37.18,0,62.44-39.08,62.44-75.31v-84.84c0-5.24,4.29-10,9.53-10,5.72,0,10.01,4.76,10.01,10v237.36c0,51.48-37.65,93.42-84.84,93.42-30.5,0-58.15-18.11-73.4-47.19-2.38-5.24-.95-10.96,4.29-13.34,5.24-2.38,10.96-.95,13.34,4.29,11.44,22.41,32.89,36.23,55.77,36.23,35.27,0,65.3-32.41,65.3-73.4v-91.03c-1.43,1.43-2.38,2.38-2.86,3.34-15.25,19.54-36.7,30.03-59.58,30.03-21.45,0-42.9-9.53-58.15-27.17Z"/><path class="cls-10" d="m1745.73,2226.93c-46.23,0-82.46-41.47-82.46-94.85s36.23-94.84,79.6-94.84,80.07,42.89,80.07,94.84c0,5.72-4.29,10.01-10.01,10.01h-127.26c-.95,0-1.9,0-2.38-.48,3.81,37.18,30.03,65.3,62.44,65.3,18.58,0,33.84-8.1,46.71-23.83,3.33-4.29,9.53-5.25,13.82-1.91,4.29,3.33,5.24,9.53,1.91,13.82-16.68,21.45-37.18,31.93-62.44,31.93Zm-62.44-104.38c.48,0,.95,0,1.43-.48h117.72c-3.81-36.23-28.6-64.82-59.58-64.82s-55.77,28.12-59.58,65.3Z"/><path class="cls-10" d="m511.62,1293.82c0,52.9-43.37,97.71-98.66,97.71h-89.13c-5.24,0-9.53-4.29-9.53-9.53v-320.76c0-5.24,4.29-10.01,9.53-10.01h71.97c45.28,0,81.5,37.65,81.5,82.46,0,28.12-13.82,52.43-34.32,67.2,39.08,12.39,68.63,49.57,68.63,92.94Zm-115.82-222.58h-61.96v124.87h61.96c34.32,0,61.96-28.6,61.96-62.43s-27.64-62.44-61.96-62.44Zm95.8,222.58c0-42.9-35.27-77.69-78.64-77.69h-79.12v155.85h79.12c43.85,0,78.64-35.27,78.64-78.16Z"/><path class="cls-10" d="m936.03,1224.23l-92.46,73.4,92.46,72.92c4.29,3.81,4.77,10.01,1.43,14.3-1.91,2.38-4.29,3.34-7.63,3.34-2.38,0-4.77-.48-6.19-1.91l-86.27-68.16v63.87c0,5.72-4.29,10.01-10.01,10.01-5.24,0-9.53-4.29-9.53-10.01v-320.76c0-5.24,4.29-10.01,9.53-10.01,5.72,0,10.01,4.77,10.01,10.01v215.91l86.27-68.63c4.29-3.34,10.48-2.38,13.82,1.91,3.34,3.81,2.86,10.48-1.43,13.82Z"/><path class="cls-10" d="m1135.7,1212.31v169.67c0,5.72-4.29,10.01-10.01,10.01-5.24,0-9.53-4.29-9.53-10.01v-23.35c-15.25,20.49-38.13,33.36-63.39,33.36-45.76,0-82.46-41.94-82.46-94.85s36.7-94.85,82.46-94.85c25.26,0,48.14,12.87,63.39,33.36v-23.35c0-5.24,4.29-10.01,9.53-10.01,5.72,0,10.01,4.76,10.01,10.01Zm-19.54,84.84c0-41.47-28.6-74.83-63.39-74.83s-62.91,33.37-62.91,74.83,28.6,74.83,62.91,74.83,63.39-33.36,63.39-74.83Z"/><path class="cls-10" d="m1274.22,1381.99c0,5.24-4.29,10.01-10.01,10.01-31.46,0-48.14-29.07-48.14-58.62v-272.15c0-5.24,4.29-10.01,10.01-10.01,5.24,0,10.01,4.77,10.01,10.01v272.15c0,14.77,6.67,38.61,28.12,38.61,5.72,0,10.01,4.77,10.01,10.01Z"/><path class="cls-10" d="m1468.26,1212.31v169.67c0,5.72-4.29,10.01-10.01,10.01-5.24,0-9.53-4.29-9.53-10.01v-23.35c-15.25,20.49-38.13,33.36-63.39,33.36-45.76,0-82.46-41.94-82.46-94.85s36.7-94.85,82.46-94.85c25.26,0,48.14,12.87,63.39,33.36v-23.35c0-5.24,4.29-10.01,9.53-10.01,5.72,0,10.01,4.76,10.01,10.01Zm-19.54,84.84c0-41.47-28.6-74.83-63.39-74.83s-62.91,33.37-62.91,74.83,28.6,74.83,62.91,74.83,63.39-33.36,63.39-74.83Z"/><path class="cls-11" d="m1631.04,1219.94c-22.4,0-36.22,12.87-45.28,24.31-10.01,13.34-16.68,30.5-16.68,45.28v92.46c0,5.72-4.29,10.01-10.01,10.01-5.24,0-10.01-4.29-10.01-10.01v-169.67c0-5.24,4.76-10.01,10.01-10.01,5.72,0,10.01,4.76,10.01,10.01v21.45c.48-.47.95-1.43.95-1.91,16.68-20.5,37.65-31.93,61.01-31.93,21.45,0,41.94,9.06,56.72,25.74,3.81,4.29,3.34,10.48-.48,14.3-2.38,1.43-4.76,2.38-7.15,2.38-2.86,0-5.24-.95-7.15-3.34-10.96-11.92-26.69-19.06-41.94-19.06Z"/><path class="cls-11" d="m713.86,1336.25c7.63,0,11.92,7.63,9.53,13.82-9.53,26.69-40.99,41.94-74.83,41.94s-71.01-13.35-71.01-52.43c0-30.5,30.98-47.19,79.12-56.24,27.17-5.24,45.76-10.96,48.14-27.64.95-4.77,5.24-8.1,10.01-8.1,6.19,0,10.96,5.24,10.01,11.44-4.29,29.07-35.27,38.61-64.34,44.32-42.42,7.63-62.91,20.02-62.91,36.22,0,22.88,23.83,32.41,51,32.41s49.57-11.44,56.24-29.07c1.43-3.81,4.76-6.67,9.05-6.67Zm44.8,46.23c0,6.2-5.24,10.96-11.44,10.01-30.5-3.81-42.42-29.08-42.42-50.52v-86.74c0-20.97-18.11-34.32-51.95-33.37-28.12.95-44.8,12.87-48.14,33.84-.48,4.76-4.77,8.58-10.01,8.58-5.72,0-10.49-5.24-9.53-11.44,4.29-30.98,30.03-50.04,66.72-51,44.8-.95,72.92,19.54,72.92,53.38v86.74c0,14.3,7.15,28.12,25.26,30.5,4.77.95,8.58,4.77,8.58,10.01Z"/><circle class="cls-13" cx="1451.42" cy="3052.72" r="58.19"/><g class="cls-9"><path class="cls-12" d="m1480.47,3062.73c0,5.24-4.29,10.01-10.01,10.01-31.46,0-48.14-29.08-48.14-58.62v-272.15c0-5.24,4.29-10.01,10.01-10.01,5.24,0,10.01,4.77,10.01,10.01v272.15c0,14.77,6.67,38.61,28.12,38.61,5.72,0,10.01,4.77,10.01,10.01Z"/></g><g class="cls-14"><path class="cls-12" d="m824.8,2896.59h-31.46c-5.24,0-9.53-4.29-9.53-9.53,0-5.72,4.29-10.01,9.53-10.01h31.46v-60.05c0-5.72,4.77-10.01,10.01-10.01,5.72,0,10.01,4.29,10.01,10.01v60.05h47.18c5.24,0,10.01,4.29,10.01,10.01,0,5.24-4.77,9.53-10.01,9.53h-47.18v127.26c0,18.59,11.92,32.41,27.17,32.41,5.24,0,9.53,4.77,9.53,10.01,0,5.72-4.29,10.01-9.53,10.01-26.69,0-47.19-23.35-47.19-52.43v-127.26Z"/></g></g></svg>