<?xml version="1.0" encoding="UTF-8"?><svg xmlns="http://www.w3.org/2000/svg" xmlns:xlink="http://www.w3.org/1999/xlink" viewBox="0 0 1920 4655"><defs><style>.cls-1,.cls-2,.cls-3,.cls-4{fill:none;}.cls-5{clip-path:url(#clippath);}.cls-6{fill:#ebebeb;}.cls-7{fill:#fff;}.cls-8{fill:#937fbb;}.cls-9{fill:#171c32;}.cls-10{fill:#161c32;}.cls-11{fill:#947fbb;}.cls-12{clip-path:url(#clippath-1);}.cls-13{clip-path:url(#clippath-4);}.cls-14{clip-path:url(#clippath-3);}.cls-15{clip-path:url(#clippath-2);}.cls-2{stroke:#fff;stroke-width:2px;}.cls-2,.cls-3,.cls-4{stroke-miterlimit:10;}.cls-3{stroke:#a797c9;stroke-dasharray:0 0 1.74 17.45;stroke-linecap:round;stroke-width:7px;}.cls-4{stroke:#57678b;stroke-width:3.5px;}</style><clipPath id="clippath"><rect class="cls-1" x="1017.46" y="1887.53" width="186.22" height="186.22" rx="93.11" ry="93.11"/></clipPath><clipPath id="clippath-1"><rect class="cls-1" x="219.56" y="2310.34" width="186.22" height="186.22" rx="93.11" ry="93.11"/></clipPath><clipPath id="clippath-2"><rect class="cls-1" x="711.2" y="3853.7" width="177.04" height="177.04" rx="88.52" ry="88.52"/></clipPath><clipPath id="clippath-3"><rect class="cls-1" x="519.08" y="4217.78" width="177.04" height="177.04" rx="88.52" ry="88.52"/></clipPath><clipPath id="clippath-4"><rect class="cls-1" x="850.71" y="4217.78" width="177.04" height="177.04" rx="88.52" ry="88.52"/></clipPath></defs><g id="Background"><rect class="cls-9" x="-.32" y="0" width="1918.81" height="4655"/></g><g id="guides"><line class="cls-4" x1="-.73" y1="340.94" x2="1918.72" y2="340.94"/><line class="cls-4" x1="-.73" y1="476.9" x2="1918.72" y2="476.9"/><line class="cls-4" x1="1918.72" y1="661.78" x2="-.73" y2="661.78"/><line class="cls-4" x1="-.73" y1="797.28" x2="1918.72" y2="797.28"/><line class="cls-4" x1="-.73" y1="1147.28" x2="1918.72" y2="1147.28"/><line class="cls-4" x1="-.73" y1="1283.24" x2="1918.72" y2="1283.24"/><line class="cls-4" x1="1918.72" y1="1468.12" x2="-.73" y2="1468.12"/><line class="cls-4" x1="-.73" y1="1603.61" x2="1918.72" y2="1603.61"/><line class="cls-4" x1="-.41" y1="1958.39" x2="1919.04" y2="1958.39"/><line class="cls-4" x1="-.41" y1="2094.35" x2="1919.04" y2="2094.35"/><line class="cls-4" x1="1919.04" y1="2279.23" x2="-.41" y2="2279.23"/><line class="cls-4" x1="-.41" y1="2414.73" x2="1919.04" y2="2414.73"/><line class="cls-4" x1="-.41" y1="2766.59" x2="1919.04" y2="2766.59"/><line class="cls-4" x1="-.41" y1="2902.55" x2="1919.04" y2="2902.55"/><line class="cls-4" x1="1919.04" y1="3087.43" x2="-.41" y2="3087.43"/><line class="cls-4" x1="-.41" y1="3222.93" x2="1919.04" y2="3222.93"/><line class="cls-4" x1="-.41" y1="3899.31" x2="1919.04" y2="3902.31"/><line class="cls-4" x1="-.41" y1="4035.27" x2="1919.04" y2="4038.27"/><line class="cls-4" x1="1919.04" y1="4223.15" x2="-.41" y2="4220.15"/><line class="cls-4" x1="-.41" y1="4355.64" x2="1919.04" y2="4358.64"/></g><g id="info"><line class="cls-3" x1="1089.42" y1="2279.23" x2="1089.42" y2="2479.63"/><polyline class="cls-3" points="1017.76 3275.49 1017.76 3016.09 1035.97 2957.1"/><line class="cls-3" x1="799.73" y1="3864.59" x2="799.73" y2="3801.77"/><line class="cls-3" x1="312.67" y1="2489.4" x2="312.67" y2="2561.08"/><line class="cls-3" x1="1112.44" y1="1817" x2="1112.44" y2="1878.19"/><line class="cls-3" x1="420.58" y1="1468.12" x2="420.58" y2="1671.86"/><line class="cls-3" x1="920.51" y1="797.28" x2="920.51" y2="861.46"/><path class="cls-7" d="m615.18,899.03h-3.36v-5.08c0-3.95.88-5.29,3.4-5.97l.67,1.85c-1.76.67-2.06,1.09-2.06,3.78v.34h1.34v5.08Zm5.92,0h-3.36v-5.08c0-3.95.88-5.29,3.4-5.97l.67,1.85c-1.76.67-2.06,1.09-2.06,3.78v.34h1.34v5.08Z"/><path class="cls-7" d="m625.17,923.14v-.13h3.11v.13c0,2.9,1.93,4.33,6.13,4.33,4.79,0,7.01-2.94,7.01-7.86v-2.1h-.08c-1.09,2.18-3.65,4.07-7.48,4.07-6.3,0-9.75-3.99-9.75-10.71,0-7.1,4.37-11.09,9.96-11.09,3.78,0,6.55,1.81,7.56,4.12h.13l.29-3.57h2.31v19.16c0,5.88-2.81,10.71-10.33,10.71-6.3,0-8.86-2.98-8.86-7.06Zm16.59-12.77c0-5.5-3.36-8.07-7.35-8.07-3.03,0-7.14,1.47-7.14,8.4s3.57,8.32,7.1,8.32c4.24,0,7.39-2.73,7.39-8.65Z"/><path class="cls-7" d="m648.99,897.77c1.76-.67,2.06-1.09,2.06-3.78v-.34h-1.34v-5.08h3.36v5.08c0,3.95-.88,5.29-3.4,5.97l-.67-1.85Zm5.92,0c1.76-.67,2.06-1.09,2.06-3.78v-.34h-1.34v-5.08h3.36v5.08c0,3.95-.88,5.29-3.4,5.97l-.67-1.85Z"/><path class="cls-7" d="m661.92,915.12h3.36v6.22c0,3.95-.88,5.29-3.4,5.96l-.67-1.85c1.76-.67,2.06-1.09,2.06-3.78v-.34h-1.34v-6.22Z"/><path class="cls-7" d="m682.92,899.03h-3.36v-5.08c0-3.95.88-5.29,3.4-5.97l.67,1.85c-1.76.67-2.06,1.09-2.06,3.78v.34h1.34v5.08Zm5.92,0h-3.36v-5.08c0-3.95.88-5.29,3.4-5.97l.67,1.85c-1.76.67-2.06,1.09-2.06,3.78v.34h1.34v5.08Z"/><path class="cls-7" d="m698.17,924.36c0,3.53-1.68,5.84-5.04,5.84-1.18,0-2.02-.13-2.94-.38v-2.6c.8.17,1.47.29,2.27.29,1.93,0,2.77-1.26,2.77-3.65v-23.52h2.94v24.03Zm-2.94-35.79h2.98v6.51h-2.98v-6.51Z"/><path class="cls-7" d="m703.67,897.77c1.76-.67,2.06-1.09,2.06-3.78v-.34h-1.34v-5.08h3.36v5.08c0,3.95-.88,5.29-3.4,5.97l-.67-1.85Zm5.92,0c1.76-.67,2.06-1.09,2.06-3.78v-.34h-1.34v-5.08h3.36v5.08c0,3.95-.88,5.29-3.4,5.97l-.67-1.85Z"/><path class="cls-7" d="m716.61,915.12h3.36v6.22c0,3.95-.88,5.29-3.4,5.96l-.67-1.85c1.76-.67,2.06-1.09,2.06-3.78v-.34h-1.34v-6.22Z"/><path class="cls-7" d="m737.61,899.03h-3.36v-5.08c0-3.95.88-5.29,3.4-5.97l.67,1.85c-1.76.67-2.06,1.09-2.06,3.78v.34h1.34v5.08Zm5.92,0h-3.36v-5.08c0-3.95.88-5.29,3.4-5.97l.67,1.85c-1.76.67-2.06,1.09-2.06,3.78v.34h1.34v5.08Z"/><path class="cls-7" d="m763.86,917.85h-.08c-1.09,2.14-3.65,4.03-7.48,4.03-6.3,0-9.75-3.99-9.75-11.01s4.37-11.09,9.96-11.09c3.78,0,6.6,1.76,7.65,4.28h.04l.29-3.74h2.31v29.41h-2.94v-11.89Zm.34-7.48c0-5.5-3.36-8.07-7.35-8.07-3.03,0-7.14,1.47-7.14,8.4s3.57,8.61,7.1,8.61c4.24,0,7.39-2.73,7.39-8.95Z"/><path class="cls-7" d="m771.42,897.77c1.76-.67,2.06-1.09,2.06-3.78v-.34h-1.34v-5.08h3.36v5.08c0,3.95-.88,5.29-3.4,5.97l-.67-1.85Zm5.92,0c1.76-.67,2.06-1.09,2.06-3.78v-.34h-1.34v-5.08h3.36v5.08c0,3.95-.88,5.29-3.4,5.97l-.67-1.85Z"/><path class="cls-7" d="m795.69,915.54c0-3.95,2.23-6.09,7.86-6.09h6.34v-1.72c0-2.98-1.26-5.42-5.46-5.42-3.95,0-5.33,1.51-5.33,4.12v.88h-2.98v-.84c0-5,4.2-6.68,8.32-6.68,5.8,0,8.4,2.86,8.4,8.44v13.11h-2.06l-.55-2.98h-.08c-1.26,1.89-3.7,3.53-7.35,3.53-4.92,0-7.1-2.31-7.1-6.34Zm14.2-1.85v-1.76h-7.01c-2.65,0-4.03.92-4.03,3.61,0,2.35,1.26,3.86,4.5,3.86,4.16,0,6.55-2.14,6.55-5.71Z"/><path class="cls-7" d="m820.18,900.33h2.6l.29,3.49c1.01-2.14,3.28-4.03,7.35-4.03,4.75,0,7.77,2.52,7.77,7.94v13.61h-2.94v-13.27c0-4.33-2.14-5.71-5.5-5.71-3.82,0-6.64,2.69-6.64,5.63v13.36h-2.94v-21Z"/><path class="cls-7" d="m843.87,910.88c0-7.1,4.28-11.09,10.04-11.09,3.7,0,6.22,1.6,7.31,3.74h.04v-14.95h2.94v32.77h-1.97l-.67-3.61h-.08c-1.18,2.31-3.95,4.16-7.77,4.16-6.3,0-9.83-3.99-9.83-11.01Zm17.64-.5c0-5.5-3.36-8.07-7.35-8.07-3.11,0-7.14,1.47-7.14,8.4s3.61,8.61,7.14,8.61c4.24,0,7.35-2.73,7.35-8.95Z"/><path class="cls-7" d="m882.88,899.03h-3.36v-5.08c0-3.95.88-5.29,3.4-5.97l.67,1.85c-1.76.67-2.06,1.09-2.06,3.78v.34h1.34v5.08Zm5.92,0h-3.36v-5.08c0-3.95.88-5.29,3.4-5.97l.67,1.85c-1.76.67-2.06,1.09-2.06,3.78v.34h1.34v5.08Z"/><path class="cls-7" d="m895.4,900.33l6.89,17.98h.08l7.14-17.98h3.07v.04l-8.86,20.84-3.11,8.53h-2.98v-.04l3.19-8.36-8.78-20.96v-.04h3.36Z"/><path class="cls-7" d="m914.89,897.77c1.76-.67,2.06-1.09,2.06-3.78v-.34h-1.34v-5.08h3.36v5.08c0,3.95-.88,5.29-3.4,5.97l-.67-1.85Zm5.92,0c1.76-.67,2.06-1.09,2.06-3.78v-.34h-1.34v-5.08h3.36v5.08c0,3.95-.88,5.29-3.4,5.97l-.67-1.85Z"/><path class="cls-7" d="m938.74,910.88c0-7.1,4.28-11.09,10.04-11.09,3.7,0,6.22,1.6,7.31,3.74h.04v-14.95h2.94v32.77h-1.97l-.67-3.61h-.08c-1.18,2.31-3.95,4.16-7.77,4.16-6.3,0-9.83-3.99-9.83-11.01Zm17.64-.5c0-5.5-3.36-8.07-7.35-8.07-3.11,0-7.14,1.47-7.14,8.4s3.61,8.61,7.14,8.61c4.24,0,7.35-2.73,7.35-8.95Z"/><path class="cls-7" d="m964.74,910.83c0-6.22,3.32-11.05,10.38-11.05,6.59,0,10.25,4.83,10.25,11.05s-3.7,11.05-10.29,11.05c-7.27,0-10.33-4.83-10.33-11.05Zm17.56,0c0-5.33-2.9-8.49-7.22-8.49-4.75,0-7.27,3.15-7.27,8.49s2.56,8.49,7.27,8.49c4.33,0,7.22-3.15,7.22-8.49Z"/><path class="cls-7" d="m1000.9,900.33h2.6l.29,3.49c1.01-2.14,3.28-4.03,7.35-4.03,4.75,0,7.77,2.52,7.77,7.94v13.61h-2.94v-13.27c0-4.33-2.14-5.71-5.5-5.71-3.82,0-6.64,2.69-6.64,5.63v13.36h-2.94v-21Z"/><path class="cls-7" d="m1024.59,910.83c0-6.22,3.32-11.05,10.38-11.05,6.59,0,10.25,4.83,10.25,11.05s-3.7,11.05-10.29,11.05c-7.27,0-10.33-4.83-10.33-11.05Zm17.56,0c0-5.33-2.9-8.49-7.22-8.49-4.75,0-7.27,3.15-7.27,8.49s2.56,8.49,7.27,8.49c4.33,0,7.22-3.15,7.22-8.49Z"/><path class="cls-7" d="m1062.06,918.65v2.6c-.76.21-2.14.59-4.03.59-3.82,0-6.34-1.6-6.34-6.89v-12.18h-4.16v-2.44h4.16v-6.05l2.94-1.43v7.48h5.92v2.44h-5.92v11.8c0,2.81.76,4.58,3.4,4.58,1.6,0,3.23-.29,4.03-.5Z"/><path class="cls-7" d="m1074.87,911c0-6.38,3.23-11.22,10-11.22s8.95,3.91,8.95,8.95v.42h-3.11v-.63c0-3.82-1.64-6.09-5.84-6.09-4.75,0-7.01,3.11-7.01,8.4,0,5.63,2.39,8.49,6.93,8.49,3.82,0,5.84-1.85,5.92-5.67h3.02c-.08,4.66-3.15,8.23-9.03,8.23-7.22,0-9.83-4.75-9.83-10.88Z"/><path class="cls-7" d="m1098.01,910.83c0-6.22,3.32-11.05,10.38-11.05,6.59,0,10.25,4.83,10.25,11.05s-3.7,11.05-10.29,11.05c-7.27,0-10.33-4.83-10.33-11.05Zm17.56,0c0-5.33-2.9-8.49-7.22-8.49-4.75,0-7.27,3.15-7.27,8.49s2.56,8.49,7.27,8.49c4.33,0,7.22-3.15,7.22-8.49Z"/><path class="cls-7" d="m1124.51,900.33h2.6l.29,3.49c1.01-2.14,3.28-4.03,7.35-4.03,4.75,0,7.77,2.52,7.77,7.94v13.61h-2.94v-13.27c0-4.33-2.14-5.71-5.5-5.71-3.82,0-6.64,2.69-6.64,5.63v13.36h-2.94v-21Z"/><path class="cls-7" d="m1149.88,900.33h2.6l.29,3.49c1.01-2.14,3.28-4.03,7.35-4.03,4.75,0,7.77,2.52,7.77,7.94v13.61h-2.94v-13.27c0-4.33-2.14-5.71-5.5-5.71-3.82,0-6.64,2.69-6.64,5.63v13.36h-2.94v-21Z"/><path class="cls-7" d="m1192.51,911.84h-15.96c.17,4.79,2.48,7.48,6.93,7.48,3.82,0,5.67-1.43,5.97-4.83h2.98c-.29,4.24-3.28,7.39-9.03,7.39-7.06,0-9.83-4.66-9.83-10.88s3.23-11.22,10-11.22,8.95,3.99,8.95,10.21v1.85Zm-3.11-2.98c0-4.45-1.72-6.55-5.92-6.55s-6.55,2.65-6.89,6.97h12.81v-.42Z"/><path class="cls-7" d="m1196.71,911c0-6.38,3.23-11.22,10-11.22s8.95,3.91,8.95,8.95v.42h-3.11v-.63c0-3.82-1.64-6.09-5.84-6.09-4.75,0-7.01,3.11-7.01,8.4,0,5.63,2.39,8.49,6.93,8.49,3.82,0,5.84-1.85,5.92-5.67h3.02c-.08,4.66-3.15,8.23-9.03,8.23-7.22,0-9.83-4.75-9.83-10.88Z"/><path class="cls-7" d="m1232.49,918.65v2.6c-.76.21-2.14.59-4.03.59-3.82,0-6.34-1.6-6.34-6.89v-12.18h-4.16v-2.44h4.16v-6.05l2.94-1.43v7.48h5.92v2.44h-5.92v11.8c0,2.81.76,4.58,3.4,4.58,1.6,0,3.23-.29,4.03-.5Z"/><path class="cls-7" d="m728.63,3318.97h-3.36v-5.08c0-3.95.88-5.29,3.4-5.96l.67,1.85c-1.76.67-2.06,1.09-2.06,3.78v.34h1.34v5.08Zm5.92,0h-3.36v-5.08c0-3.95.88-5.29,3.4-5.96l.67,1.85c-1.76.67-2.06,1.09-2.06,3.78v.34h1.34v5.08Z"/><path class="cls-7" d="m744.67,3315.23v5.04h5.92v2.44h-5.92v18.57h-2.94v-18.57h-4.16v-2.44h4.16v-5.42c0-5.29,3.15-6.89,6.38-6.89,1.85,0,2.98.29,3.74.55v2.6c-.71-.21-1.89-.46-3.49-.46-2.65,0-3.7,1.76-3.7,4.58Z"/><path class="cls-7" d="m755.21,3317.71c1.76-.67,2.06-1.09,2.06-3.78v-.34h-1.34v-5.08h3.36v5.08c0,3.95-.88,5.29-3.4,5.96l-.67-1.85Zm5.92,0c1.76-.67,2.06-1.09,2.06-3.78v-.34h-1.34v-5.08h3.36v5.08c0,3.95-.88,5.29-3.4,5.96l-.67-1.85Z"/><path class="cls-7" d="m779.07,3330.94c0-6.38,3.23-11.22,10-11.22s8.95,3.91,8.95,8.95v.42h-3.11v-.63c0-3.82-1.64-6.09-5.84-6.09-4.75,0-7.01,3.11-7.01,8.4,0,5.63,2.39,8.49,6.93,8.49,3.82,0,5.84-1.85,5.92-5.67h3.02c-.08,4.66-3.15,8.23-9.03,8.23-7.22,0-9.83-4.75-9.83-10.88Z"/><path class="cls-7" d="m802.21,3330.77c0-6.22,3.32-11.05,10.38-11.05,6.59,0,10.25,4.83,10.25,11.05s-3.7,11.05-10.29,11.05c-7.27,0-10.33-4.83-10.33-11.05Zm17.56,0c0-5.33-2.9-8.49-7.22-8.49-4.75,0-7.27,3.15-7.27,8.49s2.56,8.49,7.27,8.49c4.33,0,7.22-3.15,7.22-8.49Z"/><path class="cls-7" d="m828.71,3320.27h2.6l.29,3.49c1.01-2.14,3.28-4.03,7.35-4.03,4.75,0,7.77,2.52,7.77,7.94v13.61h-2.94v-13.27c0-4.33-2.14-5.71-5.5-5.71-3.82,0-6.64,2.69-6.64,5.63v13.36h-2.94v-21Z"/><path class="cls-7" d="m854.08,3320.27h2.6l.29,3.49c1.01-2.14,3.28-4.03,7.35-4.03,4.75,0,7.77,2.52,7.77,7.94v13.61h-2.94v-13.27c0-4.33-2.14-5.71-5.5-5.71-3.82,0-6.64,2.69-6.64,5.63v13.36h-2.94v-21Z"/><path class="cls-7" d="m896.71,3331.78h-15.96c.17,4.79,2.48,7.48,6.93,7.48,3.82,0,5.67-1.43,5.97-4.83h2.98c-.29,4.24-3.28,7.39-9.03,7.39-7.06,0-9.83-4.66-9.83-10.88s3.23-11.22,10-11.22,8.95,3.99,8.95,10.21v1.85Zm-3.11-2.98c0-4.45-1.72-6.55-5.92-6.55s-6.55,2.65-6.89,6.97h12.81v-.42Z"/><path class="cls-7" d="m900.91,3330.94c0-6.38,3.23-11.22,10-11.22s8.95,3.91,8.95,8.95v.42h-3.11v-.63c0-3.82-1.64-6.09-5.84-6.09-4.75,0-7.01,3.11-7.01,8.4,0,5.63,2.39,8.49,6.93,8.49,3.82,0,5.84-1.85,5.92-5.67h3.02c-.08,4.66-3.15,8.23-9.03,8.23-7.22,0-9.83-4.75-9.83-10.88Z"/><path class="cls-7" d="m936.7,3338.59v2.6c-.76.21-2.14.59-4.03.59-3.82,0-6.34-1.6-6.34-6.89v-12.18h-4.16v-2.44h4.16v-6.05l2.94-1.43v7.48h5.92v2.44h-5.92v11.8c0,2.82.76,4.58,3.4,4.58,1.6,0,3.23-.29,4.03-.5Z"/><path class="cls-7" d="m939.63,3334.85v-1.18h2.94v1.13c0,2.86,2.14,4.49,5.96,4.49s5.8-1.01,5.8-3.78c0-2.06-1.01-2.81-3.86-3.32l-4.62-.84c-3.02-.55-5.54-2.02-5.54-5.5,0-3.15,2.35-6.13,8.4-6.13s8.4,3.02,8.4,7.23v.88h-2.98v-.76c0-3.45-2.14-4.92-5.42-4.92-3.95,0-5.33,1.34-5.33,3.36s1.01,2.86,3.91,3.4l4.03.76c4.12.76,6.09,1.93,6.09,5.59,0,4.58-4.12,6.55-8.78,6.55-7.31,0-8.99-3.28-8.99-6.97Z"/><path class="cls-7" d="m970.21,3320.31v-.04h2.98l5.76,17.48h.08l6.3-17.48h2.69l6.17,17.48h.08l5.75-17.48h2.86v.04l-7.18,20.96h-3.02l-5.96-17.05h-.08l-6.22,17.05h-3.02l-7.18-20.96Z"/><path class="cls-7" d="m1007.72,3308.51h2.98v6.51h-2.98v-6.51Zm0,11.76h2.94v21h-2.94v-21Z"/><path class="cls-7" d="m1029.01,3338.59v2.6c-.76.21-2.14.59-4.03.59-3.82,0-6.34-1.6-6.34-6.89v-12.18h-4.16v-2.44h4.16v-6.05l2.94-1.43v7.48h5.92v2.44h-5.92v11.8c0,2.82.76,4.58,3.4,4.58,1.6,0,3.23-.29,4.03-.5Z"/><path class="cls-7" d="m1033.84,3308.51h2.94v15.16c1.05-2.1,3.28-3.95,7.31-3.95,4.75,0,7.77,2.52,7.77,7.94v13.61h-2.94v-13.27c0-4.33-2.14-5.71-5.5-5.71-3.82,0-6.64,2.69-6.64,5.63v13.36h-2.94v-32.77Z"/><path class="cls-7" d="m1068.87,3308.51h2.98v6.51h-2.98v-6.51Zm0,11.76h2.94v21h-2.94v-21Z"/><path class="cls-7" d="m1090.16,3338.59v2.6c-.76.21-2.14.59-4.03.59-3.82,0-6.34-1.6-6.34-6.89v-12.18h-4.16v-2.44h4.16v-6.05l2.94-1.43v7.48h5.92v2.44h-5.92v11.8c0,2.82.76,4.58,3.4,4.58,1.6,0,3.23-.29,4.03-.5Z"/><path class="cls-7" d="m1093.1,3334.85v-1.18h2.94v1.13c0,2.86,2.14,4.49,5.96,4.49s5.8-1.01,5.8-3.78c0-2.06-1.01-2.81-3.86-3.32l-4.62-.84c-3.02-.55-5.54-2.02-5.54-5.5,0-3.15,2.35-6.13,8.4-6.13s8.4,3.02,8.4,7.23v.88h-2.98v-.76c0-3.45-2.14-4.92-5.42-4.92-3.95,0-5.33,1.34-5.33,3.36s1.01,2.86,3.91,3.4l4.03.76c4.12.76,6.09,1.93,6.09,5.59,0,4.58-4.12,6.55-8.78,6.55-7.31,0-8.99-3.28-8.99-6.97Z"/><path class="cls-7" d="m1124.73,3330.94c0-6.38,3.23-11.22,10-11.22s8.95,3.91,8.95,8.95v.42h-3.11v-.63c0-3.82-1.64-6.09-5.84-6.09-4.75,0-7.01,3.11-7.01,8.4,0,5.63,2.39,8.49,6.93,8.49,3.82,0,5.84-1.85,5.92-5.67h3.02c-.08,4.66-3.15,8.23-9.03,8.23-7.22,0-9.83-4.75-9.83-10.88Z"/><path class="cls-7" d="m1149.55,3320.27h2.6l.29,3.91c1.01-2.14,3.07-4.45,6.76-4.45,1.26,0,2.18.21,3.02.55v3.15c-1.13-.5-2.1-.76-3.4-.76-3.74,0-6.34,2.81-6.34,5.75v12.85h-2.94v-21Z"/><path class="cls-7" d="m1164.54,3330.77c0-6.22,3.32-11.05,10.38-11.05,6.59,0,10.25,4.83,10.25,11.05s-3.7,11.05-10.29,11.05c-7.27,0-10.33-4.83-10.33-11.05Zm17.56,0c0-5.33-2.9-8.49-7.22-8.49-4.75,0-7.27,3.15-7.27,8.49s2.56,8.49,7.27,8.49c4.33,0,7.22-3.15,7.22-8.49Z"/><path class="cls-7" d="m1189.16,3334.85v-1.18h2.94v1.13c0,2.86,2.14,4.49,5.96,4.49s5.8-1.01,5.8-3.78c0-2.06-1.01-2.81-3.86-3.32l-4.62-.84c-3.02-.55-5.54-2.02-5.54-5.5,0-3.15,2.35-6.13,8.4-6.13s8.4,3.02,8.4,7.23v.88h-2.98v-.76c0-3.45-2.14-4.92-5.42-4.92-3.95,0-5.33,1.34-5.33,3.36s1.01,2.86,3.91,3.4l4.03.76c4.12.76,6.09,1.93,6.09,5.59,0,4.58-4.12,6.55-8.78,6.55-7.31,0-8.99-3.28-8.99-6.97Z"/><path class="cls-7" d="m1210.91,3334.85v-1.18h2.94v1.13c0,2.86,2.14,4.49,5.96,4.49s5.8-1.01,5.8-3.78c0-2.06-1.01-2.81-3.86-3.32l-4.62-.84c-3.02-.55-5.54-2.02-5.54-5.5,0-3.15,2.35-6.13,8.4-6.13s8.4,3.02,8.4,7.23v.88h-2.98v-.76c0-3.45-2.14-4.92-5.42-4.92-3.95,0-5.33,1.34-5.33,3.36s1.01,2.86,3.91,3.4l4.03.76c4.12.76,6.09,1.93,6.09,5.59,0,4.58-4.12,6.55-8.78,6.55-7.31,0-8.99-3.28-8.99-6.97Z"/><path class="cls-7" d="m1237.37,3337.79h-.08l-.76,3.49h-1.97v-32.77h2.94v15.25h.04c1.26-2.31,4.07-4.03,7.69-4.03,6.3,0,9.66,3.99,9.66,11.01s-4.29,11.09-9.87,11.09c-3.78,0-6.55-1.64-7.65-4.03Zm14.37-6.89c0-7.18-3.4-8.61-6.93-8.61-4.24,0-7.56,2.73-7.56,8.44,0,6.01,3.45,8.57,7.44,8.57,3.02,0,7.06-1.47,7.06-8.4Z"/><path class="cls-7" d="m1259.3,3335.48c0-3.95,2.23-6.09,7.86-6.09h6.34v-1.72c0-2.98-1.26-5.42-5.46-5.42-3.95,0-5.33,1.51-5.33,4.12v.88h-2.98v-.84c0-5,4.2-6.68,8.32-6.68,5.8,0,8.4,2.86,8.4,8.44v13.11h-2.06l-.55-2.98h-.08c-1.26,1.89-3.7,3.53-7.35,3.53-4.92,0-7.1-2.31-7.1-6.34Zm14.2-1.85v-1.76h-7.01c-2.65,0-4.03.92-4.03,3.61,0,2.35,1.26,3.86,4.5,3.86,4.16,0,6.55-2.14,6.55-5.71Z"/><path class="cls-7" d="m1283.78,3320.27h2.6l.29,3.91c1.01-2.14,3.07-4.45,6.76-4.45,1.26,0,2.18.21,3.02.55v3.15c-1.13-.5-2.1-.76-3.4-.76-3.74,0-6.34,2.81-6.34,5.75v12.85h-2.94v-21Z"/><path class="cls-7" d="m921.47,1754.96h2.94v30.12h15.71v2.65h-18.65v-32.77Z"/><path class="cls-7" d="m943.27,1777.22c0-6.22,3.32-11.05,10.38-11.05,6.59,0,10.25,4.83,10.25,11.05s-3.7,11.05-10.29,11.05c-7.27,0-10.33-4.83-10.33-11.05Zm17.56,0c0-5.33-2.9-8.49-7.22-8.49-4.75,0-7.27,3.15-7.27,8.49s2.56,8.49,7.27,8.49c4.33,0,7.22-3.15,7.22-8.49Z"/><path class="cls-7" d="m968.09,1777.22c0-6.22,3.32-11.05,10.38-11.05,6.59,0,10.25,4.83,10.25,11.05s-3.7,11.05-10.29,11.05c-7.27,0-10.33-4.83-10.33-11.05Zm17.56,0c0-5.33-2.9-8.49-7.22-8.49-4.75,0-7.27,3.15-7.27,8.49s2.56,8.49,7.27,8.49c4.33,0,7.22-3.15,7.22-8.49Z"/><path class="cls-7" d="m994.59,1766.72h2.39l.34,3.87h.08c1.13-2.48,4.03-4.41,7.86-4.41,6.3,0,9.66,3.99,9.66,11.01s-4.29,11.09-9.87,11.09c-3.78,0-6.38-1.6-7.43-3.7h-.08v11.55h-2.94v-29.41Zm17.18,10.63c0-7.18-3.4-8.61-6.93-8.61-4.24,0-7.56,2.73-7.56,8.44,0,6.01,3.45,8.57,7.44,8.57,3.02,0,7.06-1.47,7.06-8.4Z"/><path class="cls-7" d="m1020.17,1754.96h2.94v32.77h-2.94v-32.77Z"/><path class="cls-7" d="m1047.72,1778.23h-15.96c.17,4.79,2.48,7.48,6.93,7.48,3.82,0,5.67-1.43,5.97-4.83h2.98c-.29,4.24-3.28,7.39-9.03,7.39-7.06,0-9.83-4.66-9.83-10.88s3.23-11.22,10-11.22,8.95,3.99,8.95,10.21v1.85Zm-3.11-2.98c0-4.45-1.72-6.55-5.92-6.55s-6.55,2.65-6.89,6.97h12.81v-.42Z"/><path class="cls-7" d="m1051.71,1781.29v-1.18h2.94v1.13c0,2.86,2.14,4.49,5.96,4.49s5.8-1.01,5.8-3.78c0-2.06-1.01-2.81-3.86-3.32l-4.62-.84c-3.02-.55-5.54-2.02-5.54-5.5,0-3.15,2.35-6.13,8.4-6.13s8.4,3.02,8.4,7.23v.88h-2.98v-.76c0-3.45-2.14-4.92-5.42-4.92-3.95,0-5.33,1.34-5.33,3.36s1.01,2.86,3.91,3.4l4.03.76c4.12.76,6.09,1.93,6.09,5.59,0,4.58-4.12,6.55-8.78,6.55-7.31,0-8.99-3.28-8.99-6.97Z"/><path class="cls-7" d="m1073.47,1781.29v-1.18h2.94v1.13c0,2.86,2.14,4.49,5.96,4.49s5.8-1.01,5.8-3.78c0-2.06-1.01-2.81-3.86-3.32l-4.62-.84c-3.02-.55-5.54-2.02-5.54-5.5,0-3.15,2.35-6.13,8.4-6.13s8.4,3.02,8.4,7.23v.88h-2.98v-.76c0-3.45-2.14-4.92-5.42-4.92-3.95,0-5.33,1.34-5.33,3.36s1.01,2.86,3.91,3.4l4.03.76c4.12.76,6.09,1.93,6.09,5.59,0,4.58-4.12,6.55-8.78,6.55-7.31,0-8.99-3.28-8.99-6.97Z"/><path class="cls-7" d="m1105.51,1781.92c0-3.95,2.23-6.09,7.86-6.09h6.34v-1.72c0-2.98-1.26-5.42-5.46-5.42-3.95,0-5.33,1.51-5.33,4.12v.88h-2.98v-.84c0-5,4.2-6.68,8.32-6.68,5.8,0,8.4,2.86,8.4,8.44v13.11h-2.06l-.55-2.98h-.08c-1.26,1.89-3.7,3.53-7.35,3.53-4.92,0-7.1-2.31-7.1-6.34Zm14.2-1.85v-1.76h-7.01c-2.65,0-4.03.92-4.03,3.61,0,2.35,1.26,3.86,4.5,3.86,4.16,0,6.55-2.14,6.55-5.71Z"/><path class="cls-7" d="m1128.11,1781.29v-1.18h2.94v1.13c0,2.86,2.14,4.49,5.96,4.49s5.8-1.01,5.8-3.78c0-2.06-1.01-2.81-3.86-3.32l-4.62-.84c-3.02-.55-5.54-2.02-5.54-5.5,0-3.15,2.35-6.13,8.4-6.13s8.4,3.02,8.4,7.23v.88h-2.98v-.76c0-3.45-2.14-4.92-5.42-4.92-3.95,0-5.33,1.34-5.33,3.36s1.01,2.86,3.91,3.4l4.03.76c4.12.76,6.09,1.93,6.09,5.59,0,4.58-4.12,6.55-8.78,6.55-7.31,0-8.99-3.28-8.99-6.97Z"/><path class="cls-7" d="m1150.07,1777.39c0-6.38,3.23-11.22,10-11.22s8.95,3.91,8.95,8.95v.42h-3.11v-.63c0-3.82-1.64-6.09-5.84-6.09-4.75,0-7.02,3.11-7.02,8.4,0,5.63,2.39,8.49,6.93,8.49,3.82,0,5.84-1.85,5.92-5.67h3.02c-.08,4.66-3.15,8.23-9.03,8.23-7.22,0-9.83-4.75-9.83-10.88Z"/><path class="cls-7" d="m1192.16,1778.23h-15.96c.17,4.79,2.48,7.48,6.93,7.48,3.82,0,5.67-1.43,5.97-4.83h2.98c-.29,4.24-3.28,7.39-9.03,7.39-7.06,0-9.83-4.66-9.83-10.88s3.23-11.22,10-11.22,8.95,3.99,8.95,10.21v1.85Zm-3.11-2.98c0-4.45-1.72-6.55-5.92-6.55s-6.55,2.65-6.89,6.97h12.81v-.42Z"/><path class="cls-7" d="m1198.04,1766.72h2.6l.29,3.49c1.01-2.14,3.28-4.03,7.35-4.03,4.75,0,7.77,2.52,7.77,7.94v13.61h-2.94v-13.27c0-4.33-2.14-5.71-5.5-5.71-3.82,0-6.64,2.69-6.64,5.63v13.36h-2.94v-21Z"/><path class="cls-7" d="m1221.73,1777.26c0-7.1,4.28-11.09,10.04-11.09,3.7,0,6.22,1.6,7.31,3.74h.04v-14.95h2.94v32.77h-1.97l-.67-3.61h-.08c-1.18,2.31-3.95,4.16-7.77,4.16-6.3,0-9.83-3.99-9.83-11.01Zm17.64-.5c0-5.5-3.36-8.07-7.35-8.07-3.11,0-7.14,1.47-7.14,8.4s3.61,8.61,7.14,8.61c4.24,0,7.35-2.73,7.35-8.95Z"/><path class="cls-7" d="m1266.67,1778.23h-15.96c.17,4.79,2.48,7.48,6.93,7.48,3.82,0,5.67-1.43,5.97-4.83h2.98c-.29,4.24-3.28,7.39-9.03,7.39-7.06,0-9.83-4.66-9.83-10.88s3.23-11.22,10-11.22,8.95,3.99,8.95,10.21v1.85Zm-3.11-2.98c0-4.45-1.72-6.55-5.92-6.55s-6.55,2.65-6.89,6.97h12.81v-.42Z"/><path class="cls-7" d="m1272.54,1766.72h2.6l.29,3.91c1.01-2.14,3.07-4.45,6.76-4.45,1.26,0,2.18.21,3.02.55v3.15c-1.13-.5-2.1-.76-3.4-.76-3.74,0-6.34,2.81-6.34,5.75v12.85h-2.94v-21Z"/><path class="cls-7" d="m1287.75,1781.29v-1.18h2.94v1.13c0,2.86,2.14,4.49,5.96,4.49s5.8-1.01,5.8-3.78c0-2.06-1.01-2.81-3.86-3.32l-4.62-.84c-3.02-.55-5.54-2.02-5.54-5.5,0-3.15,2.35-6.13,8.4-6.13s8.4,3.02,8.4,7.23v.88h-2.98v-.76c0-3.45-2.14-4.92-5.42-4.92-3.95,0-5.33,1.34-5.33,3.36s1.01,2.86,3.91,3.4l4.03.76c4.12.76,6.09,1.93,6.09,5.59,0,4.58-4.12,6.55-8.78,6.55-7.31,0-8.99-3.28-8.99-6.97Z"/><path class="cls-7" d="m108.64,2568.89h2.94v30.12h15.71v2.65h-18.65v-32.77Z"/><path class="cls-7" d="m130.44,2591.16c0-6.22,3.32-11.05,10.38-11.05,6.59,0,10.25,4.83,10.25,11.05s-3.7,11.05-10.29,11.05c-7.27,0-10.33-4.83-10.33-11.05Zm17.56,0c0-5.33-2.9-8.49-7.22-8.49-4.75,0-7.27,3.15-7.27,8.49s2.56,8.49,7.27,8.49c4.33,0,7.22-3.15,7.22-8.49Z"/><path class="cls-7" d="m155.26,2591.16c0-6.22,3.32-11.05,10.38-11.05,6.59,0,10.25,4.83,10.25,11.05s-3.7,11.05-10.29,11.05c-7.27,0-10.33-4.83-10.33-11.05Zm17.56,0c0-5.33-2.9-8.49-7.22-8.49-4.75,0-7.27,3.15-7.27,8.49s2.56,8.49,7.27,8.49c4.33,0,7.22-3.15,7.22-8.49Z"/><path class="cls-7" d="m181.76,2580.65h2.39l.34,3.87h.08c1.13-2.48,4.03-4.41,7.86-4.41,6.3,0,9.66,3.99,9.66,11.01s-4.29,11.09-9.87,11.09c-3.78,0-6.38-1.6-7.43-3.7h-.08v11.55h-2.94v-29.41Zm17.18,10.63c0-7.18-3.4-8.61-6.93-8.61-4.24,0-7.56,2.73-7.56,8.44,0,6.01,3.45,8.57,7.44,8.57,3.02,0,7.06-1.47,7.06-8.4Z"/><path class="cls-7" d="m207.34,2568.89h2.94v32.77h-2.94v-32.77Z"/><path class="cls-7" d="m234.89,2592.16h-15.96c.17,4.79,2.48,7.48,6.93,7.48,3.82,0,5.67-1.43,5.97-4.83h2.98c-.29,4.24-3.28,7.39-9.03,7.39-7.06,0-9.83-4.66-9.83-10.88s3.23-11.22,10-11.22,8.95,3.99,8.95,10.21v1.85Zm-3.11-2.98c0-4.45-1.72-6.55-5.92-6.55s-6.55,2.65-6.89,6.97h12.81v-.42Z"/><path class="cls-7" d="m238.88,2595.23v-1.18h2.94v1.13c0,2.86,2.14,4.49,5.96,4.49s5.8-1.01,5.8-3.78c0-2.06-1.01-2.81-3.86-3.32l-4.62-.84c-3.02-.55-5.54-2.02-5.54-5.5,0-3.15,2.35-6.13,8.4-6.13s8.4,3.02,8.4,7.23v.88h-2.98v-.76c0-3.45-2.14-4.92-5.42-4.92-3.95,0-5.33,1.34-5.33,3.36s1.01,2.86,3.91,3.4l4.03.76c4.12.76,6.09,1.93,6.09,5.59,0,4.58-4.12,6.55-8.78,6.55-7.31,0-8.99-3.28-8.99-6.97Z"/><path class="cls-7" d="m260.64,2595.23v-1.18h2.94v1.13c0,2.86,2.14,4.49,5.96,4.49s5.8-1.01,5.8-3.78c0-2.06-1.01-2.81-3.86-3.32l-4.62-.84c-3.02-.55-5.54-2.02-5.54-5.5,0-3.15,2.35-6.13,8.4-6.13s8.4,3.02,8.4,7.23v.88h-2.98v-.76c0-3.45-2.14-4.92-5.42-4.92-3.95,0-5.33,1.34-5.33,3.36s1.01,2.86,3.91,3.4l4.03.76c4.12.76,6.09,1.93,6.09,5.59,0,4.58-4.12,6.55-8.78,6.55-7.31,0-8.99-3.28-8.99-6.97Z"/><path class="cls-7" d="m292.26,2591.2c0-7.1,4.28-11.09,10.04-11.09,3.7,0,6.22,1.6,7.31,3.74h.04v-14.95h2.94v32.77h-1.97l-.67-3.61h-.08c-1.18,2.31-3.95,4.16-7.77,4.16-6.3,0-9.83-3.99-9.83-11.01Zm17.64-.5c0-5.5-3.36-8.07-7.35-8.07-3.11,0-7.14,1.47-7.14,8.4s3.61,8.61,7.14,8.61c4.24,0,7.35-2.73,7.35-8.95Z"/><path class="cls-7" d="m337.21,2592.16h-15.96c.17,4.79,2.48,7.48,6.93,7.48,3.82,0,5.67-1.43,5.97-4.83h2.98c-.29,4.24-3.28,7.39-9.03,7.39-7.06,0-9.83-4.66-9.83-10.88s3.23-11.22,10-11.22,8.95,3.99,8.95,10.21v1.85Zm-3.11-2.98c0-4.45-1.72-6.55-5.92-6.55s-6.55,2.65-6.89,6.97h12.81v-.42Z"/><path class="cls-7" d="m341.19,2595.23v-1.18h2.94v1.13c0,2.86,2.14,4.49,5.96,4.49s5.8-1.01,5.8-3.78c0-2.06-1.01-2.81-3.86-3.32l-4.62-.84c-3.02-.55-5.54-2.02-5.54-5.5,0-3.15,2.35-6.13,8.4-6.13s8.4,3.02,8.4,7.23v.88h-2.98v-.76c0-3.45-2.14-4.92-5.42-4.92-3.95,0-5.33,1.34-5.33,3.36s1.01,2.86,3.91,3.4l4.03.76c4.12.76,6.09,1.93,6.09,5.59,0,4.58-4.12,6.55-8.78,6.55-7.31,0-8.99-3.28-8.99-6.97Z"/><path class="cls-7" d="m363.16,2591.32c0-6.38,3.23-11.22,10-11.22s8.95,3.91,8.95,8.95v.42h-3.11v-.63c0-3.82-1.64-6.09-5.84-6.09-4.75,0-7.02,3.11-7.02,8.4,0,5.63,2.39,8.49,6.93,8.49,3.82,0,5.84-1.85,5.92-5.67h3.02c-.08,4.66-3.15,8.23-9.03,8.23-7.22,0-9.83-4.75-9.83-10.88Z"/><path class="cls-7" d="m405.25,2592.16h-15.96c.17,4.79,2.48,7.48,6.93,7.48,3.82,0,5.67-1.43,5.97-4.83h2.98c-.29,4.24-3.28,7.39-9.03,7.39-7.06,0-9.83-4.66-9.83-10.88s3.23-11.22,10-11.22,8.95,3.99,8.95,10.21v1.85Zm-3.11-2.98c0-4.45-1.72-6.55-5.92-6.55s-6.55,2.65-6.89,6.97h12.81v-.42Z"/><path class="cls-7" d="m411.12,2580.65h2.6l.29,3.49c1.01-2.14,3.28-4.03,7.35-4.03,4.75,0,7.77,2.52,7.77,7.94v13.61h-2.94v-13.27c0-4.33-2.14-5.71-5.5-5.71-3.82,0-6.64,2.69-6.64,5.63v13.36h-2.94v-21Z"/><path class="cls-7" d="m434.81,2591.2c0-7.1,4.28-11.09,10.04-11.09,3.7,0,6.22,1.6,7.31,3.74h.04v-14.95h2.94v32.77h-1.97l-.67-3.61h-.08c-1.18,2.31-3.95,4.16-7.77,4.16-6.3,0-9.83-3.99-9.83-11.01Zm17.64-.5c0-5.5-3.36-8.07-7.35-8.07-3.11,0-7.14,1.47-7.14,8.4s3.61,8.61,7.14,8.61c4.24,0,7.35-2.73,7.35-8.95Z"/><path class="cls-7" d="m479.75,2592.16h-15.96c.17,4.79,2.48,7.48,6.93,7.48,3.82,0,5.67-1.43,5.97-4.83h2.98c-.29,4.24-3.28,7.39-9.03,7.39-7.06,0-9.83-4.66-9.83-10.88s3.23-11.22,10-11.22,8.95,3.99,8.95,10.21v1.85Zm-3.11-2.98c0-4.45-1.72-6.55-5.92-6.55s-6.55,2.65-6.89,6.97h12.81v-.42Z"/><path class="cls-7" d="m485.63,2580.65h2.6l.29,3.91c1.01-2.14,3.07-4.45,6.76-4.45,1.26,0,2.18.21,3.02.55v3.15c-1.13-.5-2.1-.76-3.4-.76-3.74,0-6.34,2.81-6.34,5.75v12.85h-2.94v-21Z"/><path class="cls-7" d="m500.83,2595.23v-1.18h2.94v1.13c0,2.86,2.14,4.49,5.96,4.49s5.8-1.01,5.8-3.78c0-2.06-1.01-2.81-3.86-3.32l-4.62-.84c-3.02-.55-5.54-2.02-5.54-5.5,0-3.15,2.35-6.13,8.4-6.13s8.4,3.02,8.4,7.23v.88h-2.98v-.76c0-3.45-2.14-4.92-5.42-4.92-3.95,0-5.33,1.34-5.33,3.36s1.01,2.86,3.91,3.4l4.03.76c4.12.76,6.09,1.93,6.09,5.59,0,4.58-4.12,6.55-8.78,6.55-7.31,0-8.99-3.28-8.99-6.97Z"/><path class="cls-7" d="m425.72,4493.2h2.94v30.12h15.71v2.65h-18.65v-32.77Z"/><path class="cls-7" d="m447.52,4515.47c0-6.22,3.32-11.05,10.38-11.05,6.59,0,10.25,4.83,10.25,11.05s-3.7,11.05-10.29,11.05c-7.27,0-10.33-4.83-10.33-11.05Zm17.56,0c0-5.34-2.9-8.49-7.22-8.49-4.75,0-7.27,3.15-7.27,8.49s2.56,8.48,7.27,8.48c4.33,0,7.22-3.15,7.22-8.48Z"/><path class="cls-7" d="m472.34,4515.47c0-6.22,3.32-11.05,10.38-11.05,6.6,0,10.25,4.83,10.25,11.05s-3.7,11.05-10.29,11.05c-7.27,0-10.33-4.83-10.33-11.05Zm17.56,0c0-5.34-2.9-8.49-7.22-8.49-4.75,0-7.27,3.15-7.27,8.49s2.56,8.48,7.27,8.48c4.33,0,7.22-3.15,7.22-8.48Z"/><path class="cls-7" d="m498.84,4504.96h2.39l.34,3.86h.08c1.13-2.48,4.03-4.41,7.86-4.41,6.3,0,9.66,3.99,9.66,11.01s-4.29,11.09-9.87,11.09c-3.78,0-6.38-1.6-7.43-3.7h-.09v11.55h-2.94v-29.4Zm17.18,10.63c0-7.18-3.4-8.61-6.93-8.61-4.24,0-7.56,2.73-7.56,8.44,0,6.01,3.45,8.57,7.44,8.57,3.03,0,7.06-1.47,7.06-8.4Z"/><path class="cls-7" d="m542.32,4516.47h-15.96c.17,4.79,2.48,7.48,6.93,7.48,3.82,0,5.67-1.43,5.96-4.83h2.98c-.29,4.24-3.28,7.39-9.03,7.39-7.06,0-9.83-4.66-9.83-10.88s3.23-11.22,10-11.22,8.95,3.99,8.95,10.21v1.85Zm-3.11-2.98c0-4.45-1.72-6.55-5.92-6.55s-6.55,2.65-6.89,6.97h12.81v-.42Z"/><path class="cls-7" d="m546.51,4515.51c0-7.1,4.29-11.09,10.04-11.09,3.7,0,6.22,1.6,7.31,3.74h.04v-14.95h2.94v32.77h-1.97l-.67-3.61h-.08c-1.18,2.31-3.95,4.16-7.77,4.16-6.3,0-9.83-3.99-9.83-11.01Zm17.64-.5c0-5.5-3.36-8.06-7.35-8.06-3.11,0-7.14,1.47-7.14,8.4s3.61,8.61,7.14,8.61c4.24,0,7.35-2.73,7.35-8.95Z"/><path class="cls-7" d="m582.17,4515.51c0-7.1,4.28-11.09,10.04-11.09,3.7,0,6.22,1.6,7.31,3.74h.04v-14.95h2.94v32.77h-1.97l-.67-3.61h-.08c-1.18,2.31-3.95,4.16-7.77,4.16-6.3,0-9.83-3.99-9.83-11.01Zm17.64-.5c0-5.5-3.36-8.06-7.35-8.06-3.11,0-7.14,1.47-7.14,8.4s3.61,8.61,7.14,8.61c4.24,0,7.35-2.73,7.35-8.95Z"/><path class="cls-7" d="m627.12,4516.47h-15.96c.17,4.79,2.48,7.48,6.93,7.48,3.82,0,5.67-1.43,5.97-4.83h2.98c-.29,4.24-3.28,7.39-9.03,7.39-7.06,0-9.83-4.66-9.83-10.88s3.23-11.22,10-11.22,8.95,3.99,8.95,10.21v1.85Zm-3.11-2.98c0-4.45-1.72-6.55-5.92-6.55s-6.55,2.65-6.89,6.97h12.81v-.42Z"/><path class="cls-7" d="m631.1,4519.54v-1.18h2.94v1.13c0,2.86,2.14,4.5,5.96,4.5s5.8-1.01,5.8-3.78c0-2.06-1.01-2.81-3.87-3.32l-4.62-.84c-3.02-.55-5.54-2.02-5.54-5.5,0-3.15,2.35-6.13,8.4-6.13s8.4,3.03,8.4,7.23v.88h-2.98v-.76c0-3.44-2.14-4.91-5.42-4.91-3.95,0-5.34,1.34-5.34,3.36s1.01,2.86,3.91,3.4l4.03.76c4.12.76,6.09,1.93,6.09,5.59,0,4.58-4.12,6.55-8.78,6.55-7.31,0-8.99-3.28-8.99-6.97Z"/><path class="cls-7" d="m653.07,4515.63c0-6.38,3.23-11.22,10-11.22s8.95,3.91,8.95,8.95v.42h-3.11v-.63c0-3.82-1.64-6.09-5.84-6.09-4.75,0-7.01,3.11-7.01,8.4,0,5.63,2.39,8.48,6.93,8.48,3.82,0,5.84-1.85,5.92-5.67h3.03c-.08,4.66-3.15,8.23-9.03,8.23-7.22,0-9.83-4.75-9.83-10.88Z"/><path class="cls-7" d="m695.15,4516.47h-15.96c.17,4.79,2.48,7.48,6.93,7.48,3.82,0,5.67-1.43,5.96-4.83h2.98c-.29,4.24-3.28,7.39-9.03,7.39-7.06,0-9.83-4.66-9.83-10.88s3.23-11.22,10-11.22,8.95,3.99,8.95,10.21v1.85Zm-3.11-2.98c0-4.45-1.72-6.55-5.92-6.55s-6.55,2.65-6.89,6.97h12.81v-.42Z"/><path class="cls-7" d="m701.03,4504.96h2.61l.29,3.49c1.01-2.14,3.28-4.03,7.35-4.03,4.75,0,7.77,2.52,7.77,7.94v13.61h-2.94v-13.28c0-4.33-2.14-5.71-5.5-5.71-3.82,0-6.64,2.69-6.64,5.63v13.36h-2.94v-21Z"/><path class="cls-7" d="m724.72,4515.51c0-7.1,4.29-11.09,10.04-11.09,3.7,0,6.22,1.6,7.31,3.74h.04v-14.95h2.94v32.77h-1.97l-.67-3.61h-.08c-1.18,2.31-3.95,4.16-7.77,4.16-6.3,0-9.83-3.99-9.83-11.01Zm17.64-.5c0-5.5-3.36-8.06-7.35-8.06-3.11,0-7.14,1.47-7.14,8.4s3.61,8.61,7.14,8.61c4.24,0,7.35-2.73,7.35-8.95Z"/><path class="cls-7" d="m769.66,4516.47h-15.96c.17,4.79,2.48,7.48,6.93,7.48,3.82,0,5.67-1.43,5.96-4.83h2.98c-.29,4.24-3.28,7.39-9.03,7.39-7.06,0-9.83-4.66-9.83-10.88s3.23-11.22,10-11.22,8.95,3.99,8.95,10.21v1.85Zm-3.11-2.98c0-4.45-1.72-6.55-5.92-6.55s-6.55,2.65-6.89,6.97h12.81v-.42Z"/><path class="cls-7" d="m775.54,4504.96h2.61l.29,3.91c1.01-2.14,3.07-4.45,6.76-4.45,1.26,0,2.19.21,3.03.55v3.15c-1.13-.5-2.1-.76-3.4-.76-3.74,0-6.34,2.81-6.34,5.75v12.86h-2.94v-21Z"/><path class="cls-7" d="m790.74,4519.54v-1.18h2.94v1.13c0,2.86,2.14,4.5,5.96,4.5s5.8-1.01,5.8-3.78c0-2.06-1.01-2.81-3.86-3.32l-4.62-.84c-3.03-.55-5.54-2.02-5.54-5.5,0-3.15,2.35-6.13,8.4-6.13s8.4,3.03,8.4,7.23v.88h-2.98v-.76c0-3.44-2.14-4.91-5.42-4.91-3.95,0-5.33,1.34-5.33,3.36s1.01,2.86,3.91,3.4l4.03.76c4.12.76,6.09,1.93,6.09,5.59,0,4.58-4.12,6.55-8.78,6.55-7.31,0-8.99-3.28-8.99-6.97Z"/><path class="cls-7" d="m841.31,4516.47h-15.96c.17,4.79,2.48,7.48,6.93,7.48,3.82,0,5.67-1.43,5.96-4.83h2.98c-.29,4.24-3.28,7.39-9.03,7.39-7.06,0-9.83-4.66-9.83-10.88s3.23-11.22,10-11.22,8.95,3.99,8.95,10.21v1.85Zm-3.11-2.98c0-4.45-1.72-6.55-5.92-6.55s-6.55,2.65-6.89,6.97h12.81v-.42Z"/><path class="cls-7" d="m862.57,4505.01l-8.07,10.5,8.02,10.42v.04h-3.44l-6.34-8.44-6.43,8.44h-3.28v-.04l8.02-10.38-8.07-10.54v-.04h3.45l6.38,8.49,6.43-8.44v-.04h3.32v.04Z"/><path class="cls-7" d="m864.58,4515.63c0-6.38,3.23-11.22,10-11.22s8.95,3.91,8.95,8.95v.42h-3.11v-.63c0-3.82-1.64-6.09-5.84-6.09-4.75,0-7.01,3.11-7.01,8.4,0,5.63,2.39,8.48,6.93,8.48,3.82,0,5.84-1.85,5.92-5.67h3.03c-.08,4.66-3.15,8.23-9.03,8.23-7.22,0-9.83-4.75-9.83-10.88Z"/><path class="cls-7" d="m906.67,4516.47h-15.96c.17,4.79,2.48,7.48,6.93,7.48,3.82,0,5.67-1.43,5.97-4.83h2.98c-.29,4.24-3.28,7.39-9.03,7.39-7.06,0-9.83-4.66-9.83-10.88s3.23-11.22,10-11.22,8.95,3.99,8.95,10.21v1.85Zm-3.11-2.98c0-4.45-1.72-6.55-5.92-6.55s-6.55,2.65-6.89,6.97h12.81v-.42Z"/><path class="cls-7" d="m912.54,4504.96h2.39l.34,3.86h.08c1.13-2.48,4.03-4.41,7.86-4.41,6.3,0,9.66,3.99,9.66,11.01s-4.29,11.09-9.87,11.09c-3.78,0-6.38-1.6-7.44-3.7h-.08v11.55h-2.94v-29.4Zm17.18,10.63c0-7.18-3.4-8.61-6.93-8.61-4.24,0-7.56,2.73-7.56,8.44,0,6.01,3.45,8.57,7.44,8.57,3.02,0,7.06-1.47,7.06-8.4Z"/><path class="cls-7" d="m949.71,4523.28v2.61c-.76.21-2.14.59-4.03.59-3.82,0-6.34-1.6-6.34-6.89v-12.18h-4.16v-2.44h4.16v-6.05l2.94-1.43v7.48h5.92v2.44h-5.92v11.8c0,2.81.76,4.58,3.4,4.58,1.6,0,3.23-.29,4.03-.5Z"/><path class="cls-7" d="m964.2,4493.2h2.98v6.51h-2.98v-6.51Zm0,11.76h2.94v21h-2.94v-21Z"/><path class="cls-7" d="m974.54,4504.96h2.61l.29,3.49c1.01-2.14,3.28-4.03,7.35-4.03,4.75,0,7.77,2.52,7.77,7.94v13.61h-2.94v-13.28c0-4.33-2.14-5.71-5.5-5.71-3.82,0-6.64,2.69-6.64,5.63v13.36h-2.94v-21Z"/><path class="cls-7" d="m1011.24,4503.66h-3.36v-5.08c0-3.95.88-5.29,3.4-5.97l.67,1.85c-1.76.67-2.06,1.09-2.06,3.78v.34h1.34v5.08Zm5.92,0h-3.36v-5.08c0-3.95.88-5.29,3.4-5.97l.67,1.85c-1.76.67-2.06,1.09-2.06,3.78v.34h1.34v5.08Z"/><path class="cls-7" d="m1027.29,4499.92v5.04h5.92v2.44h-5.92v18.57h-2.94v-18.57h-4.16v-2.44h4.16v-5.42c0-5.29,3.15-6.89,6.38-6.89,1.85,0,2.98.29,3.74.55v2.6c-.71-.21-1.89-.46-3.49-.46-2.65,0-3.7,1.76-3.7,4.58Z"/><path class="cls-7" d="m1037.83,4502.4c1.76-.67,2.06-1.09,2.06-3.78v-.34h-1.34v-5.08h3.36v5.08c0,3.95-.88,5.29-3.4,5.96l-.67-1.85Zm5.92,0c1.77-.67,2.06-1.09,2.06-3.78v-.34h-1.34v-5.08h3.36v5.08c0,3.95-.88,5.29-3.4,5.96l-.67-1.85Z"/><path class="cls-7" d="m483.35,3745.24h2.94v30.12h15.71v2.65h-18.65v-32.77Z"/><path class="cls-7" d="m505.15,3767.51c0-6.22,3.32-11.05,10.38-11.05,6.59,0,10.25,4.83,10.25,11.05s-3.7,11.05-10.29,11.05c-7.27,0-10.33-4.83-10.33-11.05Zm17.56,0c0-5.33-2.9-8.48-7.22-8.48-4.75,0-7.27,3.15-7.27,8.48s2.56,8.49,7.27,8.49c4.33,0,7.22-3.15,7.22-8.49Z"/><path class="cls-7" d="m529.97,3767.51c0-6.22,3.32-11.05,10.38-11.05,6.59,0,10.25,4.83,10.25,11.05s-3.7,11.05-10.29,11.05c-7.27,0-10.33-4.83-10.33-11.05Zm17.56,0c0-5.33-2.9-8.48-7.22-8.48-4.75,0-7.27,3.15-7.27,8.48s2.56,8.49,7.27,8.49c4.33,0,7.22-3.15,7.22-8.49Z"/><path class="cls-7" d="m556.47,3757h2.39l.34,3.87h.08c1.13-2.48,4.03-4.41,7.86-4.41,6.3,0,9.66,3.99,9.66,11.01s-4.29,11.09-9.87,11.09c-3.78,0-6.38-1.6-7.43-3.7h-.08v11.55h-2.94v-29.41Zm17.18,10.63c0-7.18-3.4-8.61-6.93-8.61-4.24,0-7.56,2.73-7.56,8.44,0,6.01,3.45,8.57,7.44,8.57,3.02,0,7.06-1.47,7.06-8.4Z"/><path class="cls-7" d="m599.95,3768.51h-15.96c.17,4.79,2.48,7.48,6.93,7.48,3.82,0,5.67-1.43,5.97-4.83h2.98c-.29,4.24-3.28,7.39-9.03,7.39-7.06,0-9.83-4.66-9.83-10.88s3.23-11.21,10-11.21,8.95,3.99,8.95,10.21v1.85Zm-3.11-2.98c0-4.45-1.72-6.55-5.92-6.55s-6.55,2.65-6.89,6.97h12.81v-.42Z"/><path class="cls-7" d="m604.14,3767.55c0-7.1,4.28-11.09,10.04-11.09,3.7,0,6.22,1.6,7.31,3.74h.04v-14.96h2.94v32.77h-1.97l-.67-3.61h-.08c-1.18,2.31-3.95,4.16-7.77,4.16-6.3,0-9.83-3.99-9.83-11.01Zm17.64-.5c0-5.5-3.36-8.07-7.35-8.07-3.11,0-7.14,1.47-7.14,8.4s3.61,8.61,7.14,8.61c4.24,0,7.35-2.73,7.35-8.95Z"/><path class="cls-7" d="m640.22,3772.21c0-3.95,2.23-6.09,7.86-6.09h6.34v-1.72c0-2.98-1.26-5.42-5.46-5.42-3.95,0-5.33,1.51-5.33,4.12v.88h-2.98v-.84c0-5,4.2-6.68,8.32-6.68,5.8,0,8.4,2.86,8.4,8.44v13.11h-2.06l-.55-2.98h-.08c-1.26,1.89-3.7,3.53-7.35,3.53-4.92,0-7.1-2.31-7.1-6.34Zm14.2-1.85v-1.76h-7.01c-2.65,0-4.03.92-4.03,3.61,0,2.35,1.26,3.87,4.5,3.87,4.16,0,6.55-2.14,6.55-5.71Z"/><path class="cls-7" d="m662.82,3771.58v-1.18h2.94v1.13c0,2.86,2.14,4.5,5.96,4.5s5.8-1.01,5.8-3.78c0-2.06-1.01-2.81-3.86-3.32l-4.62-.84c-3.02-.55-5.54-2.02-5.54-5.5,0-3.15,2.35-6.13,8.4-6.13s8.4,3.02,8.4,7.22v.88h-2.98v-.76c0-3.44-2.14-4.92-5.42-4.92-3.95,0-5.33,1.34-5.33,3.36s1.01,2.86,3.91,3.4l4.03.76c4.12.76,6.09,1.93,6.09,5.59,0,4.58-4.12,6.55-8.78,6.55-7.31,0-8.99-3.28-8.99-6.97Z"/><path class="cls-7" d="m684.78,3767.67c0-6.38,3.23-11.21,10-11.21s8.95,3.91,8.95,8.95v.42h-3.11v-.63c0-3.82-1.64-6.09-5.84-6.09-4.75,0-7.01,3.11-7.01,8.4,0,5.63,2.39,8.49,6.93,8.49,3.82,0,5.84-1.85,5.92-5.67h3.02c-.08,4.66-3.15,8.23-9.03,8.23-7.22,0-9.83-4.75-9.83-10.88Z"/><path class="cls-7" d="m726.87,3768.51h-15.96c.17,4.79,2.48,7.48,6.93,7.48,3.82,0,5.67-1.43,5.97-4.83h2.98c-.29,4.24-3.28,7.39-9.03,7.39-7.06,0-9.83-4.66-9.83-10.88s3.23-11.21,10-11.21,8.95,3.99,8.95,10.21v1.85Zm-3.11-2.98c0-4.45-1.72-6.55-5.92-6.55s-6.55,2.65-6.89,6.97h12.81v-.42Z"/><path class="cls-7" d="m732.75,3757h2.6l.29,3.49c1.01-2.14,3.28-4.03,7.35-4.03,4.75,0,7.77,2.52,7.77,7.94v13.61h-2.94v-13.27c0-4.33-2.14-5.71-5.5-5.71-3.82,0-6.64,2.69-6.64,5.63v13.36h-2.94v-21Z"/><path class="cls-7" d="m756.44,3767.55c0-7.1,4.28-11.09,10.04-11.09,3.7,0,6.22,1.6,7.31,3.74h.04v-14.96h2.94v32.77h-1.97l-.67-3.61h-.08c-1.18,2.31-3.95,4.16-7.77,4.16-6.3,0-9.83-3.99-9.83-11.01Zm17.64-.5c0-5.5-3.36-8.07-7.35-8.07-3.11,0-7.14,1.47-7.14,8.4s3.61,8.61,7.14,8.61c4.24,0,7.35-2.73,7.35-8.95Z"/><path class="cls-7" d="m801.38,3768.51h-15.96c.17,4.79,2.48,7.48,6.93,7.48,3.82,0,5.67-1.43,5.97-4.83h2.98c-.29,4.24-3.28,7.39-9.03,7.39-7.06,0-9.83-4.66-9.83-10.88s3.23-11.21,10-11.21,8.95,3.99,8.95,10.21v1.85Zm-3.11-2.98c0-4.45-1.72-6.55-5.92-6.55s-6.55,2.65-6.89,6.97h12.81v-.42Z"/><path class="cls-7" d="m807.25,3757h2.6l.29,3.91c1.01-2.14,3.07-4.45,6.76-4.45,1.26,0,2.18.21,3.02.54v3.15c-1.13-.5-2.1-.76-3.4-.76-3.74,0-6.34,2.81-6.34,5.76v12.85h-2.94v-21Z"/><path class="cls-7" d="m822.46,3771.58v-1.18h2.94v1.13c0,2.86,2.14,4.5,5.96,4.5s5.8-1.01,5.8-3.78c0-2.06-1.01-2.81-3.86-3.32l-4.62-.84c-3.02-.55-5.54-2.02-5.54-5.5,0-3.15,2.35-6.13,8.4-6.13s8.4,3.02,8.4,7.22v.88h-2.98v-.76c0-3.44-2.14-4.92-5.42-4.92-3.95,0-5.33,1.34-5.33,3.36s1.01,2.86,3.91,3.4l4.03.76c4.12.76,6.09,1.93,6.09,5.59,0,4.58-4.12,6.55-8.78,6.55-7.31,0-8.99-3.28-8.99-6.97Z"/><path class="cls-7" d="m212.36,1686.87h8.36c11.05,0,17.39,4.54,17.39,16.42s-6.26,16.34-17.18,16.34h-8.57v-32.77Zm8.65,30.12c9.41,0,14.03-3.74,14.03-13.78s-4.49-13.74-14.07-13.74h-5.67v27.51h5.71Z"/><path class="cls-7" d="m261.67,1710.14h-15.96c.17,4.79,2.48,7.48,6.93,7.48,3.82,0,5.67-1.43,5.97-4.83h2.98c-.29,4.24-3.28,7.39-9.03,7.39-7.06,0-9.83-4.66-9.83-10.88s3.23-11.22,10-11.22,8.95,3.99,8.95,10.21v1.85Zm-3.11-2.98c0-4.45-1.72-6.55-5.92-6.55s-6.55,2.65-6.89,6.97h12.81v-.42Z"/><path class="cls-7" d="m271.71,1693.59v5.04h5.92v2.44h-5.92v18.57h-2.94v-18.57h-4.16v-2.44h4.16v-5.42c0-5.29,3.15-6.89,6.38-6.89,1.85,0,2.98.29,3.74.55v2.6c-.71-.21-1.89-.46-3.49-.46-2.65,0-3.7,1.76-3.7,4.58Z"/><path class="cls-7" d="m280.36,1713.84c0-3.95,2.23-6.09,7.86-6.09h6.34v-1.72c0-2.98-1.26-5.42-5.46-5.42-3.95,0-5.33,1.51-5.33,4.12v.88h-2.98v-.84c0-5,4.2-6.68,8.32-6.68,5.8,0,8.4,2.86,8.4,8.44v13.11h-2.06l-.55-2.98h-.08c-1.26,1.89-3.7,3.53-7.35,3.53-4.92,0-7.1-2.31-7.1-6.34Zm14.2-1.85v-1.76h-7.01c-2.65,0-4.03.92-4.03,3.61,0,2.35,1.26,3.86,4.5,3.86,4.16,0,6.55-2.14,6.55-5.71Z"/><path class="cls-7" d="m304.13,1712.24v-13.61h2.94v13.27c0,4.33,2.14,5.71,5.42,5.71,3.74,0,6.55-2.69,6.55-5.63v-13.36h2.94v21h-2.6l-.25-3.36h-.08c-.97,2.02-3.23,3.91-7.23,3.91-4.66,0-7.69-2.52-7.69-7.94Z"/><path class="cls-7" d="m329.33,1686.87h2.94v32.77h-2.94v-32.77Z"/><path class="cls-7" d="m350.58,1716.94v2.6c-.76.21-2.14.59-4.03.59-3.82,0-6.34-1.6-6.34-6.89v-12.18h-4.16v-2.44h4.16v-6.05l2.94-1.43v7.48h5.92v2.44h-5.92v11.8c0,2.81.76,4.58,3.4,4.58,1.6,0,3.23-.29,4.03-.5Z"/><path class="cls-7" d="m361.92,1698.67v-.04h3.36l7.35,17.98h.08l7.1-17.98h3.07v.04l-8.74,20.96h-3.02l-9.2-20.96Z"/><path class="cls-7" d="m403.72,1710.14h-15.96c.17,4.79,2.48,7.48,6.93,7.48,3.82,0,5.67-1.43,5.97-4.83h2.98c-.29,4.24-3.28,7.39-9.03,7.39-7.06,0-9.83-4.66-9.83-10.88s3.23-11.22,10-11.22,8.95,3.99,8.95,10.21v1.85Zm-3.11-2.98c0-4.45-1.72-6.55-5.92-6.55s-6.55,2.65-6.89,6.97h12.81v-.42Z"/><path class="cls-7" d="m409.59,1698.63h2.6l.29,3.91c1.01-2.14,3.07-4.45,6.76-4.45,1.26,0,2.18.21,3.02.55v3.15c-1.13-.5-2.1-.76-3.4-.76-3.74,0-6.34,2.81-6.34,5.75v12.85h-2.94v-21Z"/><path class="cls-7" d="m424.8,1713.21v-1.18h2.94v1.13c0,2.86,2.14,4.5,5.96,4.5s5.8-1.01,5.8-3.78c0-2.06-1.01-2.81-3.86-3.32l-4.62-.84c-3.02-.55-5.54-2.02-5.54-5.5,0-3.15,2.35-6.13,8.4-6.13s8.4,3.02,8.4,7.22v.88h-2.98v-.76c0-3.44-2.14-4.91-5.42-4.91-3.95,0-5.33,1.34-5.33,3.36s1.01,2.86,3.91,3.4l4.03.76c4.12.76,6.09,1.93,6.09,5.59,0,4.58-4.12,6.55-8.78,6.55-7.31,0-8.99-3.28-8.99-6.97Z"/><path class="cls-7" d="m448.44,1686.87h2.98v6.51h-2.98v-6.51Zm0,11.76h2.94v21h-2.94v-21Z"/><path class="cls-7" d="m457.1,1709.13c0-6.22,3.32-11.05,10.38-11.05,6.59,0,10.25,4.83,10.25,11.05s-3.7,11.05-10.29,11.05c-7.27,0-10.33-4.83-10.33-11.05Zm17.56,0c0-5.33-2.9-8.49-7.22-8.49-4.75,0-7.27,3.15-7.27,8.49s2.56,8.49,7.27,8.49c4.33,0,7.22-3.15,7.22-8.49Z"/><path class="cls-7" d="m483.6,1698.63h2.6l.29,3.49c1.01-2.14,3.28-4.03,7.35-4.03,4.75,0,7.77,2.52,7.77,7.94v13.61h-2.94v-13.27c0-4.33-2.14-5.71-5.5-5.71-3.82,0-6.64,2.69-6.64,5.63v13.36h-2.94v-21Z"/><path class="cls-7" d="m516.95,1709.13c0-6.22,3.32-11.05,10.38-11.05,6.59,0,10.25,4.83,10.25,11.05s-3.7,11.05-10.29,11.05c-7.27,0-10.33-4.83-10.33-11.05Zm17.56,0c0-5.33-2.9-8.49-7.22-8.49-4.75,0-7.27,3.15-7.27,8.49s2.56,8.49,7.27,8.49c4.33,0,7.22-3.15,7.22-8.49Z"/><path class="cls-7" d="m547.61,1693.59v5.04h5.92v2.44h-5.92v18.57h-2.94v-18.57h-4.16v-2.44h4.16v-5.42c0-5.29,3.15-6.89,6.38-6.89,1.85,0,2.98.29,3.74.55v2.6c-.71-.21-1.89-.46-3.49-.46-2.65,0-3.7,1.76-3.7,4.58Z"/><path class="cls-7" d="m569.49,1697.33h-3.36v-5.08c0-3.95.88-5.29,3.4-5.97l.67,1.85c-1.76.67-2.06,1.09-2.06,3.78v.34h1.34v5.08Zm5.92,0h-3.36v-5.08c0-3.95.88-5.29,3.4-5.97l.67,1.85c-1.76.67-2.06,1.09-2.06,3.78v.34h1.34v5.08Z"/><path class="cls-7" d="m580.53,1703.42c0-11.85,6.51-17.1,14.49-17.1,7.56,0,12.64,3.78,12.64,11.47v.5h-2.86v-.63c0-5.33-3.49-8.7-9.7-8.7-6.72,0-11.47,4.58-11.47,14.28s4.75,14.28,11.76,14.28c5.63,0,9.45-2.52,9.45-8.78v-2.73h-9.83v-2.6h12.64v16.21h-2.1l-.67-3.74c-1.6,2.48-5.17,4.29-9.75,4.29-8.32,0-14.62-4.87-14.62-16.76Z"/><path class="cls-7" d="m612.5,1696.07c1.76-.67,2.06-1.09,2.06-3.78v-.34h-1.34v-5.08h3.36v5.08c0,3.95-.88,5.29-3.4,5.97l-.67-1.85Zm5.92,0c1.76-.67,2.06-1.09,2.06-3.78v-.34h-1.34v-5.08h3.36v5.08c0,3.95-.88,5.29-3.4,5.97l-.67-1.85Z"/><path class="cls-7" d="m250.25,1735.71h2.94v15.17c1.05-2.1,3.28-3.95,7.31-3.95,4.75,0,7.77,2.52,7.77,7.94v13.61h-2.94v-13.27c0-4.33-2.14-5.71-5.5-5.71-3.82,0-6.64,2.69-6.64,5.63v13.36h-2.94v-32.77Z"/><path class="cls-7" d="m274.35,1762.68c0-3.95,2.23-6.09,7.86-6.09h6.34v-1.72c0-2.98-1.26-5.42-5.46-5.42-3.95,0-5.33,1.51-5.33,4.12v.88h-2.98v-.84c0-5,4.2-6.68,8.32-6.68,5.8,0,8.4,2.86,8.4,8.44v13.11h-2.06l-.55-2.98h-.08c-1.26,1.89-3.7,3.53-7.35,3.53-4.92,0-7.1-2.31-7.1-6.34Zm14.2-1.85v-1.76h-7.01c-2.65,0-4.03.92-4.03,3.61,0,2.35,1.26,3.87,4.5,3.87,4.16,0,6.55-2.14,6.55-5.71Z"/><path class="cls-7" d="m296.95,1762.05v-1.18h2.94v1.13c0,2.86,2.14,4.5,5.96,4.5s5.8-1.01,5.8-3.78c0-2.06-1.01-2.81-3.86-3.32l-4.62-.84c-3.02-.55-5.54-2.02-5.54-5.5,0-3.15,2.35-6.13,8.4-6.13s8.4,3.02,8.4,7.23v.88h-2.98v-.76c0-3.44-2.14-4.92-5.42-4.92-3.95,0-5.33,1.34-5.33,3.36s1.01,2.86,3.91,3.4l4.03.76c4.12.76,6.09,1.93,6.09,5.59,0,4.58-4.12,6.55-8.78,6.55-7.31,0-8.99-3.28-8.99-6.97Z"/><path class="cls-7" d="m330.26,1747.48h2.6l.29,3.49c1.01-2.14,3.28-4.03,7.35-4.03,4.75,0,7.77,2.52,7.77,7.94v13.61h-2.94v-13.27c0-4.33-2.14-5.71-5.5-5.71-3.82,0-6.64,2.69-6.64,5.63v13.36h-2.94v-21Z"/><path class="cls-7" d="m353.94,1757.98c0-6.22,3.32-11.05,10.38-11.05,6.59,0,10.25,4.83,10.25,11.05s-3.7,11.05-10.29,11.05c-7.27,0-10.33-4.83-10.33-11.05Zm17.56,0c0-5.33-2.9-8.49-7.22-8.49-4.75,0-7.27,3.15-7.27,8.49s2.56,8.49,7.27,8.49c4.33,0,7.22-3.15,7.22-8.49Z"/><path class="cls-7" d="m388.43,1758.02c0-7.1,4.28-11.09,10.04-11.09,3.7,0,6.22,1.6,7.31,3.74h.04v-14.96h2.94v32.77h-1.97l-.67-3.61h-.08c-1.18,2.31-3.95,4.16-7.77,4.16-6.3,0-9.83-3.99-9.83-11.01Zm17.64-.5c0-5.5-3.36-8.07-7.35-8.07-3.11,0-7.14,1.47-7.14,8.4s3.61,8.61,7.14,8.61c4.24,0,7.35-2.73,7.35-8.95Z"/><path class="cls-7" d="m433.37,1758.99h-15.96c.17,4.79,2.48,7.48,6.93,7.48,3.82,0,5.67-1.43,5.97-4.83h2.98c-.29,4.24-3.28,7.39-9.03,7.39-7.06,0-9.83-4.66-9.83-10.88s3.23-11.22,10-11.22,8.95,3.99,8.95,10.21v1.85Zm-3.11-2.98c0-4.45-1.72-6.55-5.92-6.55s-6.55,2.65-6.89,6.97h12.81v-.42Z"/><path class="cls-7" d="m437.36,1762.05v-1.18h2.94v1.13c0,2.86,2.14,4.5,5.96,4.5s5.8-1.01,5.8-3.78c0-2.06-1.01-2.81-3.86-3.32l-4.62-.84c-3.02-.55-5.54-2.02-5.54-5.5,0-3.15,2.35-6.13,8.4-6.13s8.4,3.02,8.4,7.23v.88h-2.98v-.76c0-3.44-2.14-4.92-5.42-4.92-3.95,0-5.33,1.34-5.33,3.36s1.01,2.86,3.91,3.4l4.03.76c4.12.76,6.09,1.93,6.09,5.59,0,4.58-4.12,6.55-8.78,6.55-7.31,0-8.99-3.28-8.99-6.97Z"/><path class="cls-7" d="m459.32,1758.15c0-6.38,3.23-11.22,10-11.22s8.95,3.91,8.95,8.95v.42h-3.11v-.63c0-3.82-1.64-6.09-5.84-6.09-4.75,0-7.01,3.11-7.01,8.4,0,5.63,2.39,8.49,6.93,8.49,3.82,0,5.84-1.85,5.92-5.67h3.02c-.08,4.66-3.15,8.23-9.03,8.23-7.22,0-9.83-4.75-9.83-10.88Z"/><path class="cls-7" d="m501.41,1758.99h-15.96c.17,4.79,2.48,7.48,6.93,7.48,3.82,0,5.67-1.43,5.97-4.83h2.98c-.29,4.24-3.28,7.39-9.03,7.39-7.06,0-9.83-4.66-9.83-10.88s3.23-11.22,10-11.22,8.95,3.99,8.95,10.21v1.85Zm-3.11-2.98c0-4.45-1.72-6.55-5.92-6.55s-6.55,2.65-6.89,6.97h12.81v-.42Z"/><path class="cls-7" d="m507.29,1747.48h2.6l.29,3.49c1.01-2.14,3.28-4.03,7.35-4.03,4.75,0,7.77,2.52,7.77,7.94v13.61h-2.94v-13.27c0-4.33-2.14-5.71-5.5-5.71-3.82,0-6.64,2.69-6.64,5.63v13.36h-2.94v-21Z"/><path class="cls-7" d="m530.97,1758.02c0-7.1,4.28-11.09,10.04-11.09,3.7,0,6.22,1.6,7.31,3.74h.04v-14.96h2.94v32.77h-1.97l-.67-3.61h-.08c-1.18,2.31-3.95,4.16-7.77,4.16-6.3,0-9.83-3.99-9.83-11.01Zm17.64-.5c0-5.5-3.36-8.07-7.35-8.07-3.11,0-7.14,1.47-7.14,8.4s3.61,8.61,7.14,8.61c4.24,0,7.35-2.73,7.35-8.95Z"/><path class="cls-7" d="m575.92,1758.99h-15.96c.17,4.79,2.48,7.48,6.93,7.48,3.82,0,5.67-1.43,5.97-4.83h2.98c-.29,4.24-3.28,7.39-9.03,7.39-7.06,0-9.83-4.66-9.83-10.88s3.23-11.22,10-11.22,8.95,3.99,8.95,10.21v1.85Zm-3.11-2.98c0-4.45-1.72-6.55-5.92-6.55s-6.55,2.65-6.89,6.97h12.81v-.42Z"/><path class="cls-7" d="m581.79,1747.48h2.6l.29,3.91c1.01-2.14,3.07-4.45,6.76-4.45,1.26,0,2.18.21,3.02.55v3.15c-1.13-.5-2.1-.76-3.4-.76-3.74,0-6.34,2.81-6.34,5.75v12.85h-2.94v-21Z"/><path class="cls-7" d="m815.92,2506.2h-3.36v-5.08c0-3.95.88-5.29,3.4-5.96l.67,1.85c-1.76.67-2.06,1.09-2.06,3.78v.34h1.34v5.08Zm5.92,0h-3.36v-5.08c0-3.95.88-5.29,3.4-5.96l.67,1.85c-1.76.67-2.06,1.09-2.06,3.78v.34h1.34v5.08Z"/><path class="cls-7" d="m831.04,2525.02h-.08l-.76,3.49h-1.97v-32.77h2.94v15.25h.04c1.26-2.31,4.07-4.03,7.69-4.03,6.3,0,9.66,3.99,9.66,11.01s-4.29,11.09-9.87,11.09c-3.78,0-6.55-1.64-7.65-4.03Zm14.37-6.89c0-7.18-3.4-8.61-6.93-8.61-4.24,0-7.56,2.73-7.56,8.44,0,6.01,3.45,8.57,7.44,8.57,3.02,0,7.06-1.47,7.06-8.4Z"/><path class="cls-7" d="m849.81,2504.94c1.76-.67,2.06-1.09,2.06-3.78v-.34h-1.34v-5.08h3.36v5.08c0,3.95-.88,5.29-3.4,5.96l-.67-1.85Zm5.92,0c1.76-.67,2.06-1.09,2.06-3.78v-.34h-1.34v-5.08h3.36v5.08c0,3.95-.88,5.29-3.4,5.96l-.67-1.85Z"/><path class="cls-7" d="m874.09,2522.71c0-3.95,2.23-6.09,7.86-6.09h6.34v-1.72c0-2.98-1.26-5.42-5.46-5.42-3.95,0-5.33,1.51-5.33,4.12v.88h-2.98v-.84c0-5,4.2-6.68,8.32-6.68,5.8,0,8.4,2.86,8.4,8.44v13.11h-2.06l-.55-2.98h-.08c-1.26,1.89-3.7,3.53-7.35,3.53-4.92,0-7.1-2.31-7.1-6.34Zm14.2-1.85v-1.76h-7.01c-2.65,0-4.03.92-4.03,3.61,0,2.35,1.26,3.87,4.5,3.87,4.16,0,6.55-2.14,6.55-5.71Z"/><path class="cls-7" d="m898.57,2507.5h2.6l.29,3.49c1.01-2.14,3.28-4.03,7.35-4.03,4.75,0,7.77,2.52,7.77,7.94v13.61h-2.94v-13.27c0-4.33-2.14-5.71-5.5-5.71-3.82,0-6.64,2.69-6.64,5.63v13.36h-2.94v-21Z"/><path class="cls-7" d="m922.26,2518.05c0-7.1,4.28-11.09,10.04-11.09,3.7,0,6.22,1.6,7.31,3.74h.04v-14.96h2.94v32.77h-1.97l-.67-3.61h-.08c-1.18,2.31-3.95,4.16-7.77,4.16-6.3,0-9.83-3.99-9.83-11.01Zm17.64-.5c0-5.5-3.36-8.07-7.35-8.07-3.11,0-7.14,1.47-7.14,8.4s3.61,8.61,7.14,8.61c4.24,0,7.35-2.73,7.35-8.95Z"/><path class="cls-7" d="m961.28,2506.2h-3.36v-5.08c0-3.95.88-5.29,3.4-5.96l.67,1.85c-1.76.67-2.06,1.09-2.06,3.78v.34h1.34v5.08Zm5.92,0h-3.36v-5.08c0-3.95.88-5.29,3.4-5.96l.67,1.85c-1.76.67-2.06,1.09-2.06,3.78v.34h1.34v5.08Z"/><path class="cls-7" d="m973.58,2507.5h2.39l.34,3.87h.08c1.13-2.48,4.03-4.41,7.86-4.41,6.3,0,9.66,3.99,9.66,11.01s-4.29,11.09-9.87,11.09c-3.78,0-6.38-1.6-7.43-3.7h-.08v11.55h-2.94v-29.41Zm17.18,10.63c0-7.18-3.4-8.61-6.93-8.61-4.24,0-7.56,2.73-7.56,8.44,0,6.01,3.45,8.57,7.44,8.57,3.02,0,7.06-1.47,7.06-8.4Z"/><path class="cls-7" d="m995.17,2504.94c1.76-.67,2.06-1.09,2.06-3.78v-.34h-1.34v-5.08h3.36v5.08c0,3.95-.88,5.29-3.4,5.96l-.67-1.85Zm5.92,0c1.76-.67,2.06-1.09,2.06-3.78v-.34h-1.34v-5.08h3.36v5.08c0,3.95-.88,5.29-3.4,5.96l-.67-1.85Z"/><path class="cls-7" d="m1017.98,2507.55v-.04h2.98l5.76,17.48h.08l6.3-17.48h2.69l6.17,17.48h.08l5.75-17.48h2.86v.04l-7.18,20.96h-3.02l-5.96-17.05h-.08l-6.22,17.05h-3.02l-7.18-20.96Z"/><path class="cls-7" d="m1055.49,2495.74h2.98v6.51h-2.98v-6.51Zm0,11.76h2.94v21h-2.94v-21Z"/><path class="cls-7" d="m1076.78,2525.82v2.6c-.76.21-2.14.59-4.03.59-3.82,0-6.34-1.6-6.34-6.89v-12.18h-4.16v-2.44h4.16v-6.05l2.94-1.43v7.48h5.92v2.44h-5.92v11.8c0,2.81.76,4.58,3.4,4.58,1.6,0,3.23-.29,4.03-.5Z"/><path class="cls-7" d="m1081.61,2495.74h2.94v15.17c1.05-2.1,3.28-3.95,7.31-3.95,4.75,0,7.77,2.52,7.77,7.94v13.61h-2.94v-13.27c0-4.33-2.14-5.71-5.5-5.71-3.82,0-6.64,2.69-6.64,5.63v13.36h-2.94v-32.77Z"/><path class="cls-7" d="m1114.96,2518.17c0-6.38,3.23-11.22,10-11.22s8.95,3.91,8.95,8.95v.42h-3.11v-.63c0-3.82-1.64-6.09-5.84-6.09-4.75,0-7.01,3.11-7.01,8.4,0,5.63,2.39,8.49,6.93,8.49,3.82,0,5.84-1.85,5.92-5.67h3.02c-.08,4.66-3.15,8.23-9.03,8.23-7.22,0-9.83-4.75-9.83-10.88Z"/><path class="cls-7" d="m1139.15,2495.74h2.94v32.77h-2.94v-32.77Z"/><path class="cls-7" d="m1147.76,2518.01c0-6.22,3.32-11.05,10.38-11.05,6.59,0,10.25,4.83,10.25,11.05s-3.7,11.05-10.29,11.05c-7.27,0-10.33-4.83-10.33-11.05Zm17.56,0c0-5.33-2.9-8.49-7.22-8.49-4.75,0-7.27,3.15-7.27,8.49s2.56,8.49,7.27,8.49c4.33,0,7.22-3.15,7.22-8.49Z"/><path class="cls-7" d="m1172.37,2522.08v-1.18h2.94v1.13c0,2.86,2.14,4.5,5.96,4.5s5.8-1.01,5.8-3.78c0-2.06-1.01-2.81-3.86-3.32l-4.62-.84c-3.02-.55-5.54-2.02-5.54-5.5,0-3.15,2.35-6.13,8.4-6.13s8.4,3.02,8.4,7.23v.88h-2.98v-.76c0-3.44-2.14-4.92-5.42-4.92-3.95,0-5.33,1.34-5.33,3.36s1.01,2.86,3.91,3.4l4.03.76c4.12.76,6.09,1.93,6.09,5.59,0,4.58-4.12,6.55-8.78,6.55-7.31,0-8.99-3.28-8.99-6.97Z"/><path class="cls-7" d="m1213.28,2519.02h-15.96c.17,4.79,2.48,7.48,6.93,7.48,3.82,0,5.67-1.43,5.97-4.83h2.98c-.29,4.24-3.28,7.39-9.03,7.39-7.06,0-9.83-4.66-9.83-10.88s3.23-11.22,10-11.22,8.95,3.99,8.95,10.21v1.85Zm-3.11-2.98c0-4.45-1.72-6.55-5.92-6.55s-6.55,2.65-6.89,6.97h12.81v-.42Z"/><path class="cls-7" d="m1217.48,2518.05c0-7.1,4.28-11.09,10.04-11.09,3.7,0,6.22,1.6,7.31,3.74h.04v-14.96h2.94v32.77h-1.97l-.67-3.61h-.08c-1.18,2.31-3.95,4.16-7.77,4.16-6.3,0-9.83-3.99-9.83-11.01Zm17.64-.5c0-5.5-3.36-8.07-7.35-8.07-3.11,0-7.14,1.47-7.14,8.4s3.61,8.61,7.14,8.61c4.24,0,7.35-2.73,7.35-8.95Z"/><path class="cls-7" d="m1257.63,2525.02h-.08l-.76,3.49h-1.97v-32.77h2.94v15.25h.04c1.26-2.31,4.07-4.03,7.69-4.03,6.3,0,9.66,3.99,9.66,11.01s-4.29,11.09-9.87,11.09c-3.78,0-6.55-1.64-7.65-4.03Zm14.37-6.89c0-7.18-3.4-8.61-6.93-8.61-4.24,0-7.56,2.73-7.56,8.44,0,6.01,3.45,8.57,7.44,8.57,3.02,0,7.06-1.47,7.06-8.4Z"/><path class="cls-7" d="m1279.35,2518.01c0-6.22,3.32-11.05,10.38-11.05,6.59,0,10.25,4.83,10.25,11.05s-3.7,11.05-10.29,11.05c-7.27,0-10.33-4.83-10.33-11.05Zm17.56,0c0-5.33-2.9-8.49-7.22-8.49-4.75,0-7.27,3.15-7.27,8.49s2.56,8.49,7.27,8.49c4.33,0,7.22-3.15,7.22-8.49Z"/><path class="cls-7" d="m1302.28,2507.55v-.04h2.98l5.75,17.48h.08l6.3-17.48h2.69l6.17,17.48h.08l5.75-17.48h2.86v.04l-7.18,20.96h-3.02l-5.96-17.05h-.08l-6.22,17.05h-3.02l-7.18-20.96Z"/><path class="cls-7" d="m1339.78,2495.74h2.94v32.77h-2.94v-32.77Z"/><path class="cls-7" d="m1348.18,2522.08v-1.18h2.94v1.13c0,2.86,2.14,4.5,5.96,4.5s5.8-1.01,5.8-3.78c0-2.06-1.01-2.81-3.86-3.32l-4.62-.84c-3.02-.55-5.54-2.02-5.54-5.5,0-3.15,2.35-6.13,8.4-6.13s8.4,3.02,8.4,7.23v.88h-2.98v-.76c0-3.44-2.14-4.92-5.42-4.92-3.95,0-5.33,1.34-5.33,3.36s1.01,2.86,3.91,3.4l4.03.76c4.12.76,6.09,1.93,6.09,5.59,0,4.58-4.12,6.55-8.78,6.55-7.31,0-8.99-3.28-8.99-6.97Z"/><rect class="cls-8" x="219.56" y="2310.34" width="186.22" height="186.22" rx="93.11" ry="93.11"/><rect class="cls-8" x="1017.46" y="1887.53" width="186.22" height="186.22" rx="93.11" ry="93.11"/><circle class="cls-8" cx="1062.86" cy="2911.57" r="45.53"/><line class="cls-3" x1="607.61" y1="4403.82" x2="607.61" y2="4476.68"/><polyline class="cls-3" points="939.24 4394.83 939.24 4443.75 620.35 4443.75"/></g><g id="palabras"><path class="cls-7" d="m1007.5,1101.6v-2.02h3.02v2.18c0,3.74,2.6,6.05,7.94,6.05s8.44-1.97,8.44-6.22c0-3.32-1.39-5.17-4.92-6.09l-6.64-1.72c-4.33-1.13-7.18-2.98-7.18-8.15s3.78-8.91,10.92-8.91,10.59,3.44,10.59,9.07v2.94h-3.02v-2.81c0-4.62-3.07-6.51-7.56-6.51-5.12,0-7.81,2.14-7.81,6.01,0,3.61,1.76,4.7,5.54,5.71l5.75,1.55c5.12,1.39,7.44,3.74,7.44,8.65,0,6.09-4.33,9.24-11.47,9.24-9.12,0-11.05-4.7-11.05-8.99Z"/><path class="cls-7" d="m1037.19,1077.27h2.94v32.77h-2.94v-32.77Z"/><path class="cls-7" d="m1047.48,1077.27h2.98v6.51h-2.98v-6.51Zm0,11.76h2.94v21h-2.94v-21Z"/><path class="cls-7" d="m1057.18,1111.85v-.13h3.11v.13c0,2.9,1.93,4.33,6.13,4.33,4.79,0,7.01-2.94,7.01-7.86v-2.1h-.08c-1.09,2.18-3.65,4.07-7.48,4.07-6.3,0-9.75-3.99-9.75-10.71,0-7.1,4.37-11.09,9.96-11.09,3.78,0,6.55,1.81,7.56,4.12h.13l.29-3.57h2.31v19.16c0,5.88-2.81,10.71-10.33,10.71-6.3,0-8.86-2.98-8.86-7.06Zm16.59-12.77c0-5.5-3.36-8.07-7.35-8.07-3.02,0-7.14,1.47-7.14,8.4s3.57,8.32,7.1,8.32c4.24,0,7.39-2.73,7.39-8.65Z"/><path class="cls-7" d="m1083.73,1077.27h2.94v15.16c1.05-2.1,3.28-3.95,7.31-3.95,4.75,0,7.77,2.52,7.77,7.94v13.61h-2.94v-13.27c0-4.33-2.14-5.71-5.5-5.71-3.82,0-6.64,2.69-6.64,5.63v13.36h-2.94v-32.77Z"/><path class="cls-7" d="m1120.06,1107.35v2.6c-.76.21-2.14.59-4.03.59-3.82,0-6.34-1.6-6.34-6.89v-12.18h-4.16v-2.44h4.16v-6.05l2.94-1.43v7.48h5.92v2.44h-5.92v11.8c0,2.81.76,4.58,3.4,4.58,1.6,0,3.23-.29,4.03-.5Z"/><path class="cls-7" d="m1132.66,1103.61v-1.18h2.94v1.13c0,2.86,2.14,4.5,5.96,4.5s5.8-1.01,5.8-3.78c0-2.06-1.01-2.81-3.87-3.32l-4.62-.84c-3.02-.55-5.54-2.02-5.54-5.5,0-3.15,2.35-6.13,8.4-6.13s8.4,3.02,8.4,7.23v.88h-2.98v-.76c0-3.44-2.14-4.91-5.42-4.91-3.95,0-5.33,1.34-5.33,3.36s1.01,2.86,3.91,3.4l4.03.76c4.12.76,6.09,1.93,6.09,5.59,0,4.58-4.12,6.55-8.78,6.55-7.31,0-8.99-3.28-8.99-6.97Z"/><path class="cls-7" d="m1156.3,1077.27h2.94v32.77h-2.94v-32.77Z"/><path class="cls-7" d="m1165.33,1104.24c0-3.95,2.23-6.09,7.86-6.09h6.34v-1.72c0-2.98-1.26-5.42-5.46-5.42-3.95,0-5.33,1.51-5.33,4.12v.88h-2.98v-.84c0-5,4.2-6.68,8.32-6.68,5.8,0,8.4,2.86,8.4,8.44v13.11h-2.06l-.55-2.98h-.08c-1.26,1.89-3.7,3.53-7.35,3.53-4.92,0-7.1-2.31-7.1-6.34Zm14.2-1.85v-1.76h-7.02c-2.65,0-4.03.92-4.03,3.61,0,2.35,1.26,3.86,4.5,3.86,4.16,0,6.55-2.14,6.55-5.71Z"/><path class="cls-7" d="m1189.82,1089.04h2.6l.29,3.49c1.01-2.14,3.28-4.03,7.35-4.03,4.75,0,7.77,2.52,7.77,7.94v13.61h-2.94v-13.27c0-4.33-2.14-5.71-5.5-5.71-3.82,0-6.64,2.69-6.64,5.63v13.36h-2.94v-21Z"/><path class="cls-7" d="m1226.15,1107.35v2.6c-.76.21-2.14.59-4.03.59-3.82,0-6.34-1.6-6.34-6.89v-12.18h-4.16v-2.44h4.16v-6.05l2.94-1.43v7.48h5.92v2.44h-5.92v11.8c0,2.81.76,4.58,3.4,4.58,1.6,0,3.23-.29,4.03-.5Z"/><polygon class="cls-11" points="1023.41 1601.32 1075.74 1601.32 1154.19 1147.28 1101.86 1147.28 1023.41 1601.32"/><path class="cls-7" d="m340.63,3908.19c5.03,0,8.04,4.69,7.37,9.04l-46.91,293.18c-.33.67-3.68-5.03-4.36-5.03h44.23c68.68,0,125.31-63.66,125.31-168.87,0-94.49-45.57-116.6-89.79-116.6-28.82,0-66.01,10.05-79.41,17.42-1.01.67-2.35,1-3.69,1-4.36,0-7.71-3.35-7.71-7.71,0-2.68,1.68-5.36,4.02-6.7,18.09-9.72,56.63-19.43,86.78-19.43,49.59,0,105.21,26.13,105.21,132.01,0,113.25-62.66,184.28-140.72,184.28h-44.23c-7.37,0-12.06-6.37-11.05-13.06l47.24-292.85c.67-3.69,3.69-6.7,7.71-6.7Zm226.84,129c5.7,0,8.71,6.03,7.04,10.39-71.37,183.27-162.17,173.89-232.2,173.22-4.36,0-7.71-3.35-7.71-7.71s3.35-7.71,7.71-7.71c71.03.33,151.11,8.71,218.12-163.18,1-3.02,3.68-5.03,7.04-5.03Zm1-1.34c5.03,0,8.38,4.69,7.71,9.04l-20.1,113.92c-5.7,31.16,4.36,46.57,16.75,46.57s28.15-9.05,43.89-28.15c18.09-22.11,37.86-58.97,53.94-121.29.67-3.35,3.69-5.7,7.37-5.7,5.03,0,8.71,4.69,7.37,9.71-16.42,64-37.19,103.53-56.63,126.65-18.43,22.45-38.53,33.84-55.96,33.84-23.79,0-39.2-24.46-32.17-64.33l20.44-113.58c.33-3.69,3.68-6.7,7.37-6.7Zm78.41,171.21c4.36,0,7.71,3.35,7.71,7.71,0,1.67-.67,3.68-1.68,5.03-45.57,52.27-63.66,73.04-71.03,91.13-7.04,17.42.33,29.49,7.71,29.49,19.1,0,37.19-72.37,45.23-104.87,6.37-28.15,18.09-80.42,23.79-113.58,5.36-29.49,9.72-56.96,14.75-77.07.67-3.35,3.68-6.03,7.37-6.03,5.03,0,8.71,4.69,7.37,9.38-4.69,19.77-9.04,46.57-14.07,76.39-5.7,33.84-18.09,86.11-24.46,114.25-8.04,33.84-26.14,116.93-59.98,116.93-19.1,0-33.17-23.45-21.78-50.93,8.04-20.1,27.81-42.89,73.38-95.16,1.34-1.68,3.35-2.68,5.7-2.68Zm3.68,6.7c-4.35,0-7.71-3.69-7.71-7.71,0-2.01.34-3.69,1.34-4.69,68.69-90.13,89.13-112.58,121.29-159.15,1.67-2.01,3.69-3.35,6.37-3.35,4.36,0,7.71,3.35,7.71,7.71,0,1.68-.34,3.02-1.34,4.36-32.84,47.91-53.61,70.36-121.63,159.49-1.34,2.01-3.69,3.35-6.03,3.35Zm92.82,4.69c-4.69,0-8.38-4.69-7.37-9.38,25.13-123.3,66.34-171.89,115.59-171.89,21.78,0,42.89,18.09,42.89,57.3,0,76.39-45.9,126.32-126.32,126.32-8.04,0-16.09-1-24.12-2.01-4.02-.34-6.7-3.69-6.7-7.37,0-5.03,4.36-8.38,8.38-7.71,8.04,1.01,15.42,1.68,22.45,1.68,71.7,0,110.91-42.56,110.91-110.91,0-29.82-13.74-41.88-27.48-41.88-40.21,0-76.73,42.89-100.52,159.48-1.01,3.69-4.02,6.37-7.71,6.37Zm.67-.67c-5.03,0-8.38-4.69-7.71-9.04l46.57-268.72c4.69-26.13,21.44-35.85,36.19-35.85,18.76,0,27.47,10.39,27.47,25.13,0,30.83-40.88,92.14-68.02,124.98-1.34,1.68-3.35,2.68-6.03,2.68-4.02,0-7.71-3.35-7.71-7.71,0-1.67.67-3.35,2.01-4.69,26.13-31.83,64.33-90.47,64.33-115.26,0-7.04-3.02-9.71-12.06-9.71s-18.09,5.7-20.77,23.12l-46.91,268.38c-.33,3.69-3.68,6.7-7.37,6.7Zm242.58-180.26c5.7,0,8.71,5.7,7.37,10.05-56.63,172.55-172.22,170.88-225.5,173.22-4.35,0-7.71-3.35-7.71-7.37s3.02-7.37,7.04-7.37c53.95-2.68,158.49-.67,211.43-163.18,1-3.35,4.02-5.36,7.37-5.36Zm.67,19.43c-4.02,0-7.71-3.35-7.71-7.71,0-1.67.67-3.35,2.01-4.69,26.14-31.83,64.33-90.47,64.33-115.26,0-7.04-3.01-9.71-12.06-9.71s-17.76,5.7-20.77,23.12l-75.39,404.75c-.34,3.69-3.69,6.7-7.37,6.7-5.03,0-8.38-4.36-7.71-9.05l75.05-405.09c5.03-26.13,21.44-35.85,36.18-35.85,18.76,0,27.48,10.39,27.48,25.13,0,30.83-40.88,92.14-68.02,124.98-1.34,1.68-3.35,2.68-6.03,2.68Zm-19.1,89.13c-4.36,0-7.71-3.35-7.71-7.37-1.68-40.88-18.09-63.66-35.85-88.12-5.03-7.04.34-16.08,8.71-14.4,76.06,14.4,104.2,13.4,152.12,1,5.03-1.34,9.71,2.35,9.71,7.37,0,3.69-2.34,6.7-5.7,7.71-50.26,12.73-81.08,13.74-159.48-1.01-2.35.34,8.71-8.04,7.37-10.05,17.42,24.8,36.52,51.27,38.53,96.83,0,4.36-3.69,8.04-7.71,8.04Zm91.14,74.72c-4.69,0-8.04-4.69-7.37-9.04l28.15-168.53c.33-3.69,3.68-6.7,7.71-6.7,4.69,0,8.04,4.69,7.37,9.04l-28.14,168.54c-.34,3.68-3.69,6.7-7.71,6.7Zm152.45-182.6c4.36,0,7.71,3.35,7.71,7.71,0,2.01-1.01,4.02-2.35,5.36-29.82,27.81-65.34,0-79.41,0s-35.85,18.43-57.3,83.1c-1.01,3.02-4.02,5.03-7.37,5.03-5.7,0-8.71-5.7-7.04-10.05,23.45-70.7,49.92-92.81,71.7-92.81,25.8,0,46.57,25.46,69.02,4.02,1.34-1.34,3.02-2.34,5.03-2.34Zm3.02-2.35c5.03,0,8.38,4.69,7.71,9.04l-20.1,113.92c-5.7,31.16,4.36,46.57,16.76,46.57s28.15-9.05,43.89-28.15c18.09-22.11,37.86-58.97,53.94-121.29.67-3.35,3.69-5.7,7.37-5.7,5.03,0,8.71,4.69,7.37,9.71-16.42,64-37.19,103.53-56.62,126.65-18.43,22.45-38.53,33.84-55.96,33.84-23.79,0-39.2-24.46-32.17-64.33l20.44-113.58c.34-3.69,3.69-6.7,7.37-6.7Zm78.07,171.21c4.36,0,7.71,3.35,7.71,7.71,0,1.67-.67,3.68-1.68,5.03-45.57,52.27-63.66,73.04-71.03,91.13-7.04,17.42.33,29.49,7.71,29.49,19.1,0,37.19-72.37,45.23-104.87,6.37-28.15,18.09-80.42,23.79-113.58,5.36-29.49,9.72-56.96,14.75-77.07.67-3.35,3.69-6.03,7.37-6.03,5.02,0,8.71,4.69,7.37,9.38-4.69,19.77-9.04,46.57-14.07,76.39-5.7,33.84-18.09,86.11-24.46,114.25-8.04,33.84-26.13,116.93-59.98,116.93-19.1,0-33.17-23.45-21.78-50.93,8.04-20.1,27.81-42.89,73.38-95.16,1.34-1.68,3.35-2.68,5.7-2.68Zm137.04-166.19c4.02,0,7.71,3.35,7.71,7.71,0,2.35-1,4.36-2.68,5.7-51.26,45.9-96.83,102.53-133.35,157.48-1.68,2.01-4.02,3.35-6.7,3.35-4.02,0-7.71-3.69-7.71-7.71,0-1.68.67-3.02,1.34-4.36,37.19-55.29,83.77-113.25,136.04-160.16,1.34-1.34,3.35-2.01,5.36-2.01Zm-60.64,157.81c0-4.36,3.35-7.71,7.71-7.71,2.35,0,4.36,1.01,6.03,2.68,6.7,8.04,15.41,11.73,26.47,11.73,21.11,0,40.2-13.07,40.2-39.54,0-37.19-37.52-53.94-37.52-91.47,0-15.41,6.7-28.15,17.76-35.85,1.34-1,2.68-1.34,4.36-1.34,4.36,0,7.71,3.35,7.71,7.71,0,2.68-1.34,5.03-3.35,6.37-7.04,4.69-11.06,12.74-11.06,23.12,0,30.16,37.53,48.92,37.53,91.47,0,36.52-27.81,54.95-55.62,54.95-15.42,0-28.82-5.7-38.53-17.09-1.01-1.34-1.68-3.35-1.68-5.03Zm161.84-48.58c4.02,0,7.37,3.35,7.37,7.71,0,1.68-.67,3.69-1.67,5.03-28.15,31.83-66.68,56.29-126.99,57.97-4.36,0-7.71-3.35-7.71-7.37,0-4.36,3.35-7.71,7.37-7.71,54.95-1.67,89.79-23.45,115.93-52.94,1.34-1.67,3.35-2.68,5.7-2.68Zm1,17.76c-4.02,0-7.71-3.35-7.71-7.71,0-2.35,1.34-4.69,3.02-6.03,25.8-20.77,77.73-62.99,77.73-89.46,0-7.37-3.35-13.07-12.06-13.07-27.48,0-54.62,56.29-54.62,101.19,0,31.83,13.41,52.61,34.18,52.61,12.4,0,28.48-7.04,46.91-24.8,1.67-1.34,3.35-2.01,5.36-2.01,4.36,0,7.71,3.35,7.71,7.71,0,2.01-.67,4.02-2.35,5.36-21.11,20.44-41.22,29.15-57.63,29.15-30.82,0-49.59-28.81-49.59-68.02,0-49.59,29.82-116.6,70.03-116.6,19.43,0,27.47,15.41,27.47,28.48,0,35.18-56.96,80.75-83.43,101.52-1.34,1-3.02,1.67-5.03,1.67Z"/><path class="cls-7" d="m464.37,347.64c5.03,0,8.38,4.69,7.71,9.05l-50.93,290.5c-.67,2.34-.67,3.69-.67,2.34,0,3.02-8.71-5.7-1.68-4.69,3.69.67,7.37.67,11.73.67,59.64,0,126.99-50.6,126.99-96.83,0-29.82-44.56-49.92-107.89-49.92-3.02,0-6.7.33-10.39.33l-.67-15.41c79.41-8.04,126.65-44.56,126.65-84.1,0-32.5-31.49-43.22-72.37-43.22-31.5,0-66.01,6.7-90.47,14.41-5.03,1.34-10.05-2.34-10.05-7.37,0-3.69,2.01-6.37,5.36-7.37,25.8-8.04,62.32-15.08,95.16-15.08,44.9,0,87.78,13.74,87.78,58.64,0,49.59-54.61,90.8-140.72,99.51l-.67-15.41c3.02,0,6.7-.33,10.39-.33,69.36,0,123.3,23.46,123.3,65.34,0,56.96-76.06,112.24-142.4,112.24-4.35,0-9.04,0-13.74-.67-8.38-1-11.73-4.69-11.73-10.72,0-1,.33-3.35.67-5.03l51.26-290.16c.33-3.68,3.69-6.7,7.37-6.7Zm140.72,243.25c4.02,0,7.37,3.35,7.37,7.71,0,2.01-1,4.36-2.68,5.7-54.28,46.24-104.54,55.62-172.22,56.62-4.36,0-7.71-3.35-7.71-7.71s3.35-7.71,7.71-7.71c65.67-1.01,111.91-9.72,162.5-52.94,1.34-1.01,3.02-1.68,5.03-1.68Zm3.69,13.74c-4.36,0-7.71-3.35-7.71-7.71,0-2.35,1.34-4.69,3.02-6.03,29.82-23.45,87.11-63.66,87.11-86.11,0-7.04-3.69-13.07-13.4-13.07-29.82,0-62.32,56.62-62.32,101.19,0,31.83,14.07,52.6,36.86,52.6,41.88,0,90.8-68.02,133.35-164.18,1-2.68,3.68-4.69,7.04-4.69,4.02,0,7.71,3.35,7.71,7.71,0,1.01-.33,2.01-.67,3.02-43.56,99.51-95.83,173.56-147.42,173.56-32.5,0-52.27-29.15-52.27-68.02,0-49.93,35.85-116.6,77.74-116.6,20.44,0,28.81,15.41,28.81,28.48,0,32.17-63.66,75.05-93.15,98.17-1.34,1-2.68,1.67-4.69,1.67Zm156.47,56.29c-4.69,0-8.04-4.69-7.37-9.04l28.15-168.54c.33-3.68,3.68-6.7,7.71-6.7,4.69,0,8.04,4.69,7.37,9.05l-28.14,168.53c-.33,3.69-3.68,6.7-7.71,6.7Zm199.02-171.21c0,3.01-2.01,6.03-4.69,7.04-68.35,23.12-101.86-5.36-115.93-5.36s-35.85,18.43-57.29,83.09c-1,3.02-4.02,5.03-7.37,5.03-5.7,0-8.71-5.7-7.04-10.05,23.45-70.7,49.92-92.81,71.7-92.81,27.48,0,46.91,28.14,110.91,6.03,4.36-1.67,9.72,1.34,9.72,7.04Zm97.84,149.1c0-4.36,3.35-7.71,7.71-7.71,2.34,0,4.35,1,6.03,2.68,6.7,8.04,15.41,11.73,26.47,11.73,21.11,0,40.21-13.07,40.21-39.54,0-37.19-37.53-53.94-37.53-91.47,0-25.13,17.76-43.56,44.56-43.56,12.73,0,23.45,3.69,29.82,9.38,1.67,1.67,2.68,3.68,2.68,6.03,0,4.36-3.35,7.71-7.71,7.71-1.67,0-3.35-.67-4.69-1.67-2.68-2.01-10.39-6.03-20.1-6.03-18.09,0-29.15,11.06-29.15,28.14,0,30.16,37.53,48.92,37.53,91.47,0,36.52-27.81,54.95-55.62,54.95-15.41,0-28.82-5.7-38.53-17.09-1.01-1.34-1.68-3.35-1.68-5.03Zm219.8-160.16c5.7,0,8.71,6.03,7.04,10.39-34.18,91.47-71.7,168.87-180.26,171.89-4.36,0-7.71-3.35-7.71-7.37,0-4.36,3.35-7.71,7.37-7.71,98.51-2.68,132.35-71.7,166.19-162.17,1.34-2.68,4.02-5.03,7.37-5.03Zm-28.81,182.27c-4.69,0-8.04-4.69-7.37-9.04l51.6-300.88c.33-3.69,3.69-6.7,7.71-6.7,4.69,0,8.04,4.69,7.37,9.05l-51.6,300.88c-.33,3.69-3.68,6.7-7.71,6.7Zm18.76-105.54c-4.35,0-7.71-3.35-7.71-7.71,0-1,0-2.34.67-3.01,19.1-44.56,55.62-68.35,80.08-68.35,17.42,0,27.14,12.4,27.14,27.47,0,26.47-32.5,62.99-95.49,64.67-4.36,0-7.71-3.35-7.71-7.71s3.35-7.71,7.37-7.71c53.94-1.34,80.41-31.16,80.41-49.25,0-7.71-3.69-12.06-11.73-12.06-18.43,0-49.25,20.44-66.01,58.97-1.34,2.68-4.02,4.69-7.04,4.69Zm152.12,37.53c4.02,0,7.71,3.35,7.71,7.71,0,2.35-1,4.36-2.68,5.7-49.93,44.56-65,54.61-80.08,54.61-28.15,0-42.22-39.54-69.69-90.46-.67-1.01-1-2.35-1-3.69,0-4.36,3.35-7.71,7.71-7.71,3.02,0,5.36,1.68,6.7,4.02,28.14,51.27,39.54,82.43,56.29,82.43,9.04,0,21.44-7.71,69.69-50.6,1.34-1.34,3.35-2.01,5.36-2.01Zm1.34,15.08c-4.02,0-7.71-3.35-7.71-7.71,0-2.34,1.34-4.69,3.01-6.03,25.8-20.77,77.74-62.99,77.74-89.46,0-7.37-3.35-13.07-12.06-13.07-27.47,0-54.61,56.29-54.61,101.19,0,31.83,13.4,52.6,34.18,52.6,12.4,0,28.48-7.04,46.91-24.8,1.68-1.34,3.35-2.01,5.36-2.01,4.36,0,7.71,3.35,7.71,7.71,0,2.01-.67,4.02-2.35,5.36-21.11,20.44-41.21,29.15-57.63,29.15-30.82,0-49.59-28.81-49.59-68.02,0-49.59,29.82-116.6,70.03-116.6,19.43,0,27.47,15.41,27.47,28.48,0,35.18-56.96,80.75-83.43,101.52-1.34,1-3.02,1.68-5.03,1.68Z"/><path class="cls-7" d="m718.68,1340.43c6.03,0,9.04,5.7,7.37,10.05-23.45,65-65.67,111.91-106.88,111.91-22.11,0-38.2-18.09-38.2-57.29,0-76.4,49.25-126.32,129.67-126.32,8.04,0,16.08.67,24.46,1.68,4.02.67,7.04,3.68,7.04,7.71,0,5.03-4.69,8.38-8.71,7.71-8.04-1-15.41-1.67-22.78-1.67-71.7,0-114.25,42.55-114.25,110.91,0,30.15,9.72,41.88,22.78,41.88,32.84,0,70.7-41.21,92.48-101.52,1-3.02,3.69-5.03,7.04-5.03Zm131.68-62.32c4.36,0,7.71,3.35,7.71,7.71,0,1.01,0,2.01-.67,3.02-40.54,99.18-88.46,173.22-130.67,173.56-32.84.34-32.17-61.98-.33-175.57,1-3.35,4.02-5.7,7.37-5.7,5.03,0,9.05,5.03,7.71,9.71-29.82,106.55-27.47,156.47-14.74,156.14,31.5-.34,76.73-67.35,116.6-164.18,1-2.68,4.02-4.69,7.04-4.69Zm-27.47,184.28c-4.69,0-8.04-4.69-7.37-9.04l28.14-168.54c.33-3.68,3.69-6.7,7.71-6.7,4.69,0,8.04,4.69,7.37,9.05l-28.15,168.53c-.33,3.69-3.68,6.7-7.71,6.7Zm9.38-51.26c-6.03,0-9.05-5.7-7.37-10.05,21.78-60.98,64.67-121.96,111.91-121.96,17.09,0,30.49,11.06,32.5,32.84,2.01,22.79-16.08,83.1-16.08,116.94,0,12.73,2.35,18.09,6.37,18.09,14.41,0,36.52-22.12,56.29-52.94,23.45-35.85,43.89-78.07,55.96-110.57,1-3.01,3.68-5.03,7.04-5.03,6.03,0,8.71,5.7,7.37,10.05-12.06,33.17-33.51,77.06-57.63,113.58-20.77,32.5-46.57,59.98-69.02,59.98-14.41,0-21.78-12.06-21.78-33.17,0-35.85,18.09-95.49,16.09-115.59-1.34-13.74-7.37-19.1-17.09-19.1-37.86,0-76.73,54.61-97.5,111.91-1,3.02-3.69,5.03-7.04,5.03Zm324-62.66c4.36,0,7.71,3.35,7.71,7.71,0,1.34-.33,2.68-1.01,3.68-7.04,12.4-7.37,12.06-26.47,43.22-19.77,31.5-43.22,58.97-67.68,58.97-16.42,0-25.47-15.08-20.1-47.24l45.9-262.35c.33-3.69,3.68-6.7,7.37-6.7,5.03,0,8.38,4.69,7.71,9.05l-45.57,262.69c-4.02,21.78,0,29.82,4.69,29.82,15.75,0,35.52-21.44,54.28-52.27,19.77-31.16,19.43-30.16,26.47-42.55,1.34-2.35,3.69-4.02,6.7-4.02Zm-17.09,122.63c-4.02,0-7.71-3.35-7.71-7.71,0-2.01,1-3.69,2.01-5.03l156.14-183.61c1.34-1.67,3.69-2.68,6.03-2.68,4.02,0,7.71,3.35,7.71,7.71,0,2.01-1.01,3.69-2.01,5.03l-156.14,183.61c-1.34,1.67-3.69,2.68-6.03,2.68Zm4.02-78.4c0-51.26,33.84-114.92,94.49-114.92,38.53,0,56.29,32.84,56.29,69.36,0,51.27-34.51,115.26-95.49,115.26-37.86,0-55.28-33.17-55.28-69.69Zm135.36-45.57c0-30.49-13.07-53.94-40.88-53.94-49.92,0-79.07,54.28-79.07,99.51,0,30.49,12.73,54.28,39.87,54.28,50.26,0,80.08-54.62,80.08-99.85Zm96.16-65.67c4.02,0,7.37,3.35,7.37,7.37,0,2.35-1,4.36-2.68,5.7-44.9,36.52-99.18,22.11-119.95,4.02-1.67-1.34-2.68-3.35-2.68-5.36,0-4.02,3.35-7.37,7.37-7.37,2.01,0,3.69.67,5.03,1.68,14.74,13.4,61.32,27.81,100.85-4.36,1.34-1,3.02-1.67,4.69-1.67Zm-61.65,158.82c0-4.36,3.35-7.71,7.71-7.71,2.34,0,4.36,1,6.03,2.68,6.7,8.04,15.41,11.73,26.47,11.73,21.11,0,40.21-13.07,40.21-39.54,0-37.19-37.53-53.94-37.53-91.47,0-25.13,17.76-43.56,44.56-43.56,12.73,0,23.45,3.69,29.82,9.38,1.68,1.67,2.68,3.68,2.68,6.03,0,4.36-3.35,7.71-7.71,7.71-1.67,0-3.35-.67-4.69-1.67-2.68-2.01-10.39-6.03-20.1-6.03-18.09,0-29.15,11.06-29.15,28.14,0,30.16,37.53,48.92,37.53,91.47,0,36.52-27.81,54.95-55.62,54.95-15.41,0-28.81-5.7-38.53-17.09-1-1.34-1.68-3.35-1.68-5.03Zm155.13-45.57c4.02,0,7.71,3.35,7.71,7.71,0,2.01-1,4.02-2.68,5.36-1,1.34-2.34,2.35-3.35,3.35-35.85,32.5-54.95,50.26-116.94,51.26-4.02,0-7.37-3.35-7.37-7.37,0-4.36,3.35-7.71,7.37-7.71,55.28-1.01,70.7-14.74,106.21-46.91,1.34-1.34,2.34-2.35,3.68-3.69,1.34-1.34,3.35-2.01,5.36-2.01Zm.67,16.75c-4.36,0-7.71-3.35-7.71-7.71,0-2.34,1-4.69,3.02-6.03,27.47-22.11,79.74-65,79.74-91.47,0-7.37-3.35-13.07-12.06-13.07-27.47,0-54.61,56.29-54.61,101.19,0,31.83,13.4,52.6,34.18,52.6,12.4,0,28.48-7.04,46.91-24.8,1.68-1.34,3.35-2.01,5.36-2.01,4.36,0,7.71,3.35,7.71,7.71,0,2.01-.67,4.02-2.35,5.36-21.11,20.44-41.21,29.15-57.63,29.15-30.83,0-49.59-28.81-49.59-68.02,0-49.59,29.82-116.6,70.03-116.6,19.43,0,27.47,15.41,27.47,28.48,0,35.18-57.63,81.08-85.44,103.54-1.34,1-3.01,1.67-5.02,1.67Z"/><path class="cls-7" d="m267.69,2399.84c0-4.36,3.35-7.71,7.71-7.71,1.34,0,2.68.33,3.69,1,10.72,5.36,20.1,8.04,28.81,8.04,52.27.33,67.35-59.31,80.41-183.28,4.36-39.87,10.39-78.74,17.09-108.22-1.01-1.67,14.41,2.01,14.07,3.69-22.78,115.93-74.72,169.54-118.28,169.54-37.19,0-65.67-38.53-65.67-106.88,0-88.46,50.93-209.75,122.63-209.75,16.42,0,33.84,6.03,50.93,19.1,1.68,1.34,3.02,3.69,3.02,6.03,0,4.36-3.35,7.71-7.71,7.71-1.67,0-3.35-.67-4.69-1.67-14.74-11.06-28.48-15.75-41.55-15.75-58.97,0-107.22,110.57-107.22,194.34,0,60.31,23.12,91.47,50.26,91.47,34.18,0,81.75-48.25,102.86-156.81,2.68-12.4,19.43-7.71,16.08,3.02-6.37,28.81-12.06,66.34-16.42,105.54-13.74,126.65-30.15,197.68-95.83,197.35-11.39,0-23.45-3.35-36.18-10.05-2.35-1-4.02-3.68-4.02-6.7Zm339.75-238.9c6.03,0,9.05,5.7,7.37,10.05-23.46,65-65.67,111.91-106.88,111.91-22.11,0-38.2-18.09-38.2-57.29,0-76.4,49.25-126.32,129.67-126.32,8.04,0,16.08.67,24.46,1.68,4.02.67,7.04,3.68,7.04,7.71,0,5.03-4.69,8.38-8.71,7.71-8.04-1-15.41-1.67-22.78-1.67-71.7,0-114.26,42.55-114.26,110.91,0,30.15,9.72,41.88,22.79,41.88,32.84,0,70.7-41.21,92.48-101.52,1-3.02,3.69-5.03,7.04-5.03Zm129.67-62.32c4.36,0,7.71,3.35,7.71,7.71,0,1.01,0,2.01-.67,3.02-40.54,99.18-88.46,173.22-130.67,173.56-32.84.34-30.15-62.32,1.68-175.57,1-3.35,4.02-5.7,7.37-5.7,5.03,0,9.05,5.03,7.37,9.71-29.82,106.55-29.15,156.47-16.42,156.14,31.5-.34,76.73-67.35,116.6-164.18,1-2.68,4.02-4.69,7.04-4.69Zm-27.47,184.28c-4.69,0-8.04-4.69-7.37-9.04l28.14-168.54c.33-3.68,3.69-6.7,7.71-6.7,4.69,0,8.04,4.69,7.37,9.05l-28.14,168.53c-.33,3.69-3.69,6.7-7.71,6.7Zm152.45-182.61c4.36,0,7.71,3.35,7.71,7.71,0,2.01-1,4.02-2.34,5.36-29.82,27.81-65.34,0-79.41,0s-35.85,18.43-57.3,83.09c-1,3.02-4.02,5.03-7.37,5.03-5.7,0-8.71-5.7-7.04-10.05,23.45-70.7,49.92-92.81,71.7-92.81,25.8,0,46.57,25.47,69.02,4.02,1.34-1.34,3.01-2.35,5.03-2.35Zm-26.13,182.61c-4.69,0-8.04-4.69-7.37-9.04l28.14-168.54c.33-3.68,3.68-6.7,7.71-6.7,4.69,0,8.04,4.69,7.37,9.05l-28.15,168.53c-.33,3.69-3.68,6.7-7.71,6.7Zm9.38-51.26c-6.03,0-9.05-5.7-7.37-10.05,21.78-60.98,64.67-121.96,111.91-121.96,17.09,0,30.49,11.06,32.5,32.84,2.01,22.79-16.08,83.1-16.08,116.94,0,12.73,2.35,18.09,6.37,18.09,14.41,0,36.52-22.12,56.29-52.94,23.45-35.85,43.89-78.07,55.95-110.57,1.01-3.01,3.69-5.03,7.04-5.03,6.03,0,8.71,5.7,7.37,10.05-12.06,33.17-33.51,77.06-57.63,113.58-20.77,32.5-46.57,59.98-69.02,59.98-14.41,0-21.78-12.06-21.78-33.17,0-35.85,18.09-95.49,16.08-115.59-1.34-13.74-7.37-19.1-17.09-19.1-37.86,0-76.73,54.61-97.5,111.91-1,3.02-3.69,5.03-7.04,5.03Zm217.79,48.92c-4.69,0-8.38-4.69-7.37-9.38,25.13-123.3,66.34-171.89,115.59-171.89,21.78,0,42.89,18.09,42.89,57.3,0,76.39-45.9,126.32-126.32,126.32-8.04,0-16.08-1-24.13-2.01-4.02-.33-6.7-3.69-6.7-7.37,0-5.03,4.36-8.38,8.38-7.71,8.04,1,15.41,1.68,22.45,1.68,71.7,0,110.91-42.55,110.91-110.91,0-29.82-13.74-41.88-27.48-41.88-40.21,0-76.73,42.89-100.52,159.49-1.01,3.68-4.02,6.37-7.71,6.37Zm.67-.67c-5.03,0-8.38-4.69-7.71-9.05l51.6-297.87c.33-3.69,3.68-6.7,7.37-6.7,5.03,0,8.38,4.69,7.71,9.05l-51.6,297.87c-.33,3.68-3.69,6.7-7.37,6.7Zm228.18-98.51c4.02,0,7.37,3.35,7.37,7.71,0,1.34-.33,2.68-1,3.69-63.66,104.2-159.15,88.79-210.42,90.13-4.02,0-7.37-3.35-7.37-7.37s3.35-7.37,7.04-7.37c52.94-1.34,138.71,13.4,197.69-83.1,1.34-2.34,3.68-3.69,6.7-3.69Zm125.98-20.44c6.03,0,8.71,5.7,7.37,10.05-23.46,65-65.67,111.91-106.88,111.91-22.11,0-37.86-18.43-37.86-57.29,0-76.73,49.25-126.32,129.33-126.32,8.04,0,16.08.67,24.46,1.68,4.02.67,6.7,3.68,6.7,7.71,0,5.03-4.36,8.04-8.71,7.71-7.71-1-15.08-1.67-22.45-1.67-72.04,0-114.25,42.89-114.25,110.91,0,30.15,9.38,41.88,22.78,41.88,32.84,0,70.7-41.55,92.48-101.52,1-3.02,4.02-5.03,7.04-5.03Zm-40.21-119.62c.67-14.41,13.07-26.47,27.47-26.47s25.8,12.73,24.8,27.81c-1.34,15.08-13.4,26.8-27.81,26.8s-26.13-12.4-24.46-28.15Zm37.53,0c.33-6.37-4.02-11.39-10.05-11.39-6.37,0-12.06,5.7-12.73,12.73-.33,7.04,4.02,11.73,9.71,11.73,6.37,0,12.4-5.36,13.07-13.07Zm93.82,138.71c4.36,0,7.71,3.35,7.71,7.71,0,1.34-.33,2.68-1,3.68-30.16,54.62-62.32,91.14-91.81,91.47-32.84.34-30.16-62.32,2.01-175.9.67-3.02,3.69-5.36,7.04-5.36,5.03,0,8.71,4.69,7.37,9.71-30.16,107.22-29.15,156.47-16.42,156.14,21.44-.34,49.92-31.83,78.4-83.43,1.34-2.34,4.02-4.02,6.7-4.02Zm127.66-22.45c6.03,0,8.71,5.7,7.04,10.05-25.13,68.02-67.35,115.26-108.56,115.26-22.11,0-37.86-18.43-37.86-57.29,0-76.73,49.25-126.32,129.33-126.32,6.37,0,13.07.33,18.43,1.34,3.68.34,6.7,3.69,6.7,7.37,0,5.03-4.69,8.38-8.71,7.71-4.35-.67-10.38-1-16.42-1-72.04,0-114.25,42.89-114.25,110.91,0,30.15,9.38,41.88,22.78,41.88,32.84,0,71.03-41.55,94.49-105.21,1-2.68,3.69-4.69,7.04-4.69Zm38.2,86.78c4.36,0,7.71,3.35,7.71,7.71,0,2.01-1.01,4.02-2.35,5.36-15.08,15.75-31.16,25.46-46.24,25.46s-23.46-13.07-19.1-38.53l47.58-272.4c.34-3.68,3.69-6.7,7.37-6.7,5.03,0,8.38,4.69,7.71,9.05l-47.24,272.74c-2.68,15.41.33,20.44,3.69,20.44,10.05,0,22.11-7.37,35.18-20.77,1.67-1.34,3.35-2.35,5.7-2.35Z"/><path class="cls-7" d="m340.63,2773.53c5.03,0,8.04,4.69,7.37,9.04l-46.91,293.18c-.33.67-3.68-5.03-4.35-5.03h44.23c68.69,0,125.31-63.66,125.31-168.87,0-94.49-45.57-116.6-89.8-116.6-28.81,0-66.01,10.05-79.41,17.42-1.01.67-2.35,1-3.69,1-4.36,0-7.71-3.35-7.71-7.71,0-2.68,1.68-5.36,4.02-6.7,18.09-9.72,56.63-19.43,86.78-19.43,49.59,0,105.21,26.13,105.21,132.01,0,113.25-62.66,184.28-140.72,184.28h-44.23c-7.37,0-12.06-6.37-11.06-13.06l47.24-292.85c.67-3.69,3.69-6.7,7.71-6.7Zm226.83,129c5.7,0,8.71,6.03,7.04,10.39-71.37,183.27-162.17,173.89-232.2,173.22-4.36,0-7.71-3.35-7.71-7.71s3.35-7.71,7.71-7.71c71.03.33,151.11,8.71,218.12-163.18,1-3.02,3.68-5.03,7.04-5.03Zm-39.2,271.06c0-4.02,3.35-7.71,7.71-7.71,2.68,0,5.36,1.67,6.7,4.02,14.74,26.13,29.82,33.84,43.22,33.84,35.18,0,38.2-45.57,53.27-109.23,7.37-32.17,26.8-145.09,33.84-186.63.67-3.69,3.68-6.7,7.71-6.7,5.03,0,8.04,4.69,7.37,9.04-7.04,41.89-26.47,155.47-34.18,187.64-14.41,62.32-18.76,121.29-68.02,121.29-18.43,0-38.87-10.05-56.62-41.55-.67-1.34-1-2.68-1-4.02Zm40.21-272.4c5.03,0,8.38,4.69,7.71,9.04l-20.1,113.92c-5.7,31.16,4.36,46.57,16.75,46.57s28.14-9.05,43.89-28.15c18.09-22.11,37.86-58.97,53.94-121.29.67-3.35,3.69-5.7,7.37-5.7,5.03,0,8.71,4.69,7.37,9.71-16.42,64-37.19,103.53-56.63,126.65-18.43,22.45-38.53,33.84-55.95,33.84-23.79,0-39.2-24.46-32.17-64.33l20.44-113.58c.33-3.69,3.69-6.7,7.37-6.7Zm174.9,182.6c-4.69,0-8.38-4.69-7.37-9.38,25.13-123.3,66.34-171.89,115.6-171.89,21.78,0,42.89,18.09,42.89,57.3,0,76.39-45.9,126.32-126.32,126.32-8.04,0-16.08-1-24.12-2.01-4.02-.34-6.7-3.69-6.7-7.37,0-5.03,4.36-8.38,8.38-7.71,8.04,1.01,15.41,1.68,22.45,1.68,71.7,0,110.91-42.56,110.91-110.91,0-29.82-13.74-41.88-27.47-41.88-40.21,0-76.73,42.89-100.52,159.48-1,3.69-4.02,6.37-7.71,6.37Zm.67-.67c-5.03,0-8.38-4.69-7.71-9.04l51.6-297.87c.33-3.69,3.69-6.7,7.37-6.7,5.02,0,8.38,4.69,7.71,9.05l-51.6,297.87c-.33,3.69-3.68,6.7-7.37,6.7Zm185.96-173.56c0-4.36,3.68-7.71,8.04-7.37,20.1,2.01,60.98,16.42,41.55,79.4-32.5,104.54-156.14,101.86-211.09,104.54-4.36,0-7.71-3.35-7.71-7.37s3.02-7.37,7.04-7.37c54.95-2.68,167.87-.34,197.02-94.49,15.75-50.26-14.74-58.97-28.14-59.98-3.69-.34-6.7-3.35-6.7-7.37Zm164.18-113.25c0,4.36-3.68,7.71-7.71,7.71-2.01,0-3.69-.67-5.03-1.68-14.07-12.06-25.8-17.42-35.52-17.42-18.76,0-32.84,20.77-39.87,59.31l-68.35,368.56c-.33,3.69-3.69,6.7-7.37,6.7-5.03,0-8.38-4.36-7.71-9.05l68.02-368.9c8.38-43.89,26.47-72.04,55.28-72.04,13.74,0,28.82,7.04,45.23,21.11,1.67,1.34,3.01,3.35,3.01,5.7Zm.67,112.58c0,4.36-3.35,7.71-7.71,7.71l-151.78.34c-4.36,0-7.71-3.35-7.71-7.71s3.35-7.71,7.71-7.71l151.78-.34c4.36,0,7.71,3.35,7.71,7.71Zm-35.51,177.25c-4.69,0-8.04-4.69-7.37-9.04l28.15-168.53c.33-3.69,3.68-6.7,7.71-6.7,4.69,0,8.04,4.69,7.37,9.04l-28.15,168.54c-.33,3.68-3.68,6.7-7.71,6.7Zm152.45-182.6c4.36,0,7.71,3.35,7.71,7.71,0,2.01-1.01,4.02-2.35,5.36-29.82,27.81-65.34,0-79.41,0s-35.85,18.43-57.29,83.1c-1,3.02-4.02,5.03-7.37,5.03-5.7,0-8.71-5.7-7.04-10.05,23.45-70.7,49.92-92.81,71.7-92.81,25.8,0,46.57,25.46,69.02,4.02,1.34-1.34,3.02-2.34,5.03-2.34Zm-37.19,270.06c0-4.02,3.35-7.71,7.71-7.71,2.68,0,5.36,1.67,6.7,4.02,14.74,26.13,29.82,33.84,43.22,33.84,35.18,0,38.2-45.57,53.27-109.23,7.37-32.17,26.8-145.09,33.84-186.63.67-3.69,3.69-6.7,7.71-6.7,5.03,0,8.04,4.69,7.37,9.04-7.04,41.89-26.47,155.47-34.18,187.64-14.41,62.32-18.76,121.29-68.02,121.29-18.43,0-38.87-10.05-56.63-41.55-.67-1.34-1-2.68-1-4.02Zm40.21-272.4c5.03,0,8.38,4.69,7.71,9.04l-20.1,113.92c-5.7,31.16,4.35,46.57,16.75,46.57s28.14-9.05,43.89-28.15c18.09-22.11,37.86-58.97,53.94-121.29.67-3.35,3.69-5.7,7.37-5.7,5.03,0,8.71,4.69,7.37,9.71-16.42,64-37.19,103.53-56.63,126.65-18.43,22.45-38.53,33.84-55.95,33.84-23.79,0-39.2-24.46-32.17-64.33l20.44-113.58c.33-3.69,3.69-6.7,7.37-6.7Zm148.43,162.84c0-4.36,3.35-7.71,7.71-7.71,2.34,0,4.36,1.01,6.03,2.68,6.7,8.04,15.41,11.73,26.47,11.73,21.11,0,40.21-13.07,40.21-39.54,0-37.19-37.52-53.94-37.52-91.47,0-25.13,17.76-43.56,44.56-43.56,12.73,0,23.45,3.69,29.82,9.38,1.68,1.68,2.68,3.69,2.68,6.03,0,4.36-3.35,7.71-7.71,7.71-1.67,0-3.35-.67-4.69-1.68-2.68-2.01-10.39-6.03-20.1-6.03-18.09,0-29.15,11.06-29.15,28.15,0,30.16,37.53,48.92,37.53,91.47,0,36.52-27.81,54.95-55.62,54.95-15.41,0-28.81-5.7-38.53-17.09-1-1.34-1.67-3.35-1.67-5.03Zm167.86-48.58c4.02,0,7.37,3.35,7.37,7.71,0,1.68-.67,3.69-1.67,5.03-28.14,31.83-66.68,56.29-126.99,57.97-4.36,0-7.71-3.35-7.71-7.37,0-4.36,3.35-7.71,7.37-7.71,54.95-1.67,89.8-23.45,115.93-52.94,1.34-1.67,3.35-2.68,5.7-2.68Zm1,17.76c-4.02,0-7.71-3.35-7.71-7.71,0-2.35,1.34-4.69,3.01-6.03,25.8-20.77,77.74-62.99,77.74-89.46,0-7.37-3.35-13.07-12.06-13.07-27.47,0-54.61,56.29-54.61,101.19,0,31.83,13.4,52.61,34.18,52.61,12.4,0,28.48-7.04,46.91-24.8,1.68-1.34,3.35-2.01,5.36-2.01,4.36,0,7.71,3.35,7.71,7.71,0,2.01-.67,4.02-2.35,5.36-21.11,20.44-41.21,29.15-57.63,29.15-30.83,0-49.59-28.81-49.59-68.02,0-49.59,29.82-116.6,70.03-116.6,19.43,0,27.48,15.41,27.48,28.48,0,35.18-56.96,80.75-83.43,101.52-1.34,1-3.02,1.67-5.03,1.67Z"/><path class="cls-6" d="m701.77,179.94v-35.71h4.34v36.33c0,6.08,1.8,8.93,6.2,8.93s6.08-2.85,6.08-8.93v-36.33h4.34v35.28c0,9.67-3.22,13.89-10.48,13.89s-10.48-3.72-10.48-13.45Z"/><path class="cls-6" d="m729.86,144.23h5.58l14.01,39.86h.12v-39.86h4.09v48.36h-5.08l-14.51-41.04h-.12v41.04h-4.09v-48.36Z"/><path class="cls-6" d="m761.11,144.23h4.34v44.51h14.07v3.84h-18.41v-48.36Z"/><path class="cls-6" d="m781.38,168.4c0-17.3,3.35-24.98,12.52-24.98s12.15,8.18,12.15,24.98c0,18.41-3.41,24.98-12.34,24.98s-12.34-6.51-12.34-24.98Zm20.15,0c0-14.32-1.49-20.95-7.81-20.95s-7.81,6.63-7.81,20.95,1.49,21.14,7.81,21.14,7.81-6.32,7.81-21.14Z"/><path class="cls-6" d="m811.02,168.4c0-17.3,3.35-24.98,12.52-24.98s12.15,8.18,12.15,24.98c0,18.41-3.41,24.98-12.34,24.98s-12.34-6.51-12.34-24.98Zm20.15,0c0-14.32-1.49-20.95-7.81-20.95s-7.81,6.63-7.81,20.95,1.49,21.14,7.81,21.14,7.81-6.32,7.81-21.14Z"/><path class="cls-6" d="m841.89,144.23h8.87c8.37,0,13.33,4.09,13.33,14.38,0,7.13-2.48,15.07-12.4,15.07h-5.39v18.91h-4.4v-48.36Zm9.24,25.67c6.45,0,8.49-3.91,8.49-11.35,0-7.81-3.16-10.48-8.62-10.48h-4.71v21.82h4.83Z"/><path class="cls-6" d="m869.05,144.23h16.68v3.91h-12.34v18.17h9.49v4.03h-9.49v18.35h12.34v3.91h-16.68v-48.36Z"/><path class="cls-6" d="m891,144.23h7.32c10.35,0,15.5,6.26,15.5,24.18s-5.15,24.18-15.5,24.18h-7.32v-48.36Zm7.25,44.51c7.81,0,11.04-5.02,11.04-20.33s-3.1-20.33-10.91-20.33h-3.04v40.67h2.91Z"/><path class="cls-6" d="m929.32,168.4c0-17.3,3.35-24.98,12.89-24.98,6.88,0,10.54,4.28,10.54,15.19v1.05h-4.22v-.93c0-8.37-2.11-11.41-6.39-11.41-6.7,0-8.31,6.76-8.31,21.08s1.74,21.14,8.18,21.14c4.53,0,6.51-3.04,6.51-10.48v-6.88h-8.31v-4.09h12.52v24.49h-3.04l-.74-3.84c-1.55,3.29-4.4,4.65-7.5,4.65-8.56,0-12.15-7.07-12.15-24.98Z"/><path class="cls-6" d="m959.57,144.23h9.3c8.37,0,13.21,3.97,13.21,13.08,0,4.84-1.8,10.97-7.56,13.21l8.8,22.01v.06h-4.65l-8.12-21.26h-6.57v21.26h-4.4v-48.36Zm9.49,23.37c6.45,0,8.56-4.09,8.56-10.35,0-6.63-3.04-9.18-8.49-9.18h-5.15v19.53h5.08Z"/><path class="cls-6" d="m987.66,179.94v-35.71h4.34v36.33c0,6.08,1.8,8.93,6.2,8.93s6.08-2.85,6.08-8.93v-36.33h4.34v35.28c0,9.67-3.22,13.89-10.48,13.89s-10.48-3.72-10.48-13.45Z"/><path class="cls-6" d="m1015.74,144.23h5.58l14.01,39.86h.12v-39.86h4.09v48.36h-5.08l-14.51-41.04h-.12v41.04h-4.09v-48.36Z"/><path class="cls-6" d="m1046.99,144.23h7.32c10.35,0,15.5,6.26,15.5,24.18s-5.15,24.18-15.5,24.18h-7.32v-48.36Zm7.25,44.51c7.81,0,11.04-5.02,11.04-20.33s-3.1-20.33-10.91-20.33h-3.04v40.67h2.91Z"/><path class="cls-6" d="m1073.84,178.7v-2.6h4.34v2.54c0,4.65,0,10.85,7.13,10.85,4.59,0,6.88-2.42,6.88-8.43,0-6.82-2.54-8.87-5.21-10.04l-4.59-2.05c-4.9-2.17-7.75-6.45-7.75-13.39,0-5.95,2.29-12.15,10.91-12.15,10.35,0,10.6,9.55,10.6,15v2.6h-4.34v-2.23c0-8.25-.87-11.47-6.32-11.47-4.9,0-6.39,3.1-6.39,8.74,0,6.2,2.85,8.06,5.58,9.36l4.28,2.05c3.29,1.55,7.56,4.22,7.56,13.14,0,7.75-3.22,12.77-11.22,12.77-11.16,0-11.47-9.18-11.47-14.69Z"/><path class="cls-6" d="m1102.42,144.23h4.34v24.18l14.51-24.18h4.59v.06l-11.53,18.79,12.71,29.45v.06h-4.77l-10.66-25.11-4.84,7.87v17.23h-4.34v-48.36Z"/><path class="cls-6" d="m1130.75,144.23h9.3c8.37,0,13.21,3.97,13.21,13.08,0,4.84-1.8,10.97-7.56,13.21l8.8,22.01v.06h-4.65l-8.12-21.26h-6.57v21.26h-4.4v-48.36Zm9.49,23.37c6.45,0,8.56-4.09,8.56-10.35,0-6.63-3.04-9.18-8.49-9.18h-5.15v19.53h5.08Z"/><path class="cls-6" d="m1159.15,144.23h4.34v48.36h-4.34v-48.36Z"/><path class="cls-6" d="m1170.93,144.23h17.3v3.84h-12.96v19.03h10.11v4.03h-10.11v21.45h-4.34v-48.36Z"/><path class="cls-6" d="m1200.25,148.07h-10.17v-3.84h24.67v3.84h-10.17v44.51h-4.34v-44.51Z"/><rect class="cls-2" x="666.66" y="112.14" width="579.34" height="118.22"/><path class="cls-6" d="m723.16,3552.18h4.34v44.51h14.07v3.84h-18.41v-48.36Z"/><path class="cls-6" d="m743.44,3576.36c0-17.3,3.35-24.98,12.52-24.98s12.15,8.18,12.15,24.98c0,18.41-3.41,24.99-12.34,24.99s-12.34-6.51-12.34-24.99Zm20.15,0c0-14.32-1.49-20.95-7.81-20.95s-7.81,6.63-7.81,20.95,1.49,21.14,7.81,21.14,7.81-6.32,7.81-21.14Z"/><path class="cls-6" d="m773.07,3576.36c0-17.3,3.35-24.98,12.52-24.98s12.15,8.18,12.15,24.98c0,18.41-3.41,24.99-12.34,24.99s-12.34-6.51-12.34-24.99Zm20.15,0c0-14.32-1.49-20.95-7.81-20.95s-7.81,6.63-7.81,20.95,1.49,21.14,7.81,21.14,7.81-6.32,7.81-21.14Z"/><path class="cls-6" d="m803.95,3552.18h8.87c8.37,0,13.33,4.09,13.33,14.38,0,7.13-2.48,15.07-12.4,15.07h-5.39v18.91h-4.4v-48.36Zm9.24,25.67c6.45,0,8.49-3.91,8.49-11.35,0-7.81-3.16-10.48-8.62-10.48h-4.71v21.82h4.84Z"/><path class="cls-6" d="m831.1,3552.18h16.68v3.91h-12.34v18.17h9.49v4.03h-9.49v18.35h12.34v3.91h-16.68v-48.36Z"/><path class="cls-6" d="m853.05,3552.18h7.32c10.35,0,15.5,6.26,15.5,24.18s-5.15,24.18-15.5,24.18h-7.32v-48.36Zm7.25,44.51c7.81,0,11.04-5.02,11.04-20.33s-3.1-20.33-10.91-20.33h-3.04v40.67h2.91Z"/><path class="cls-6" d="m891.37,3576.36c0-17.3,3.35-24.98,12.89-24.98,6.88,0,10.54,4.28,10.54,15.19v1.05h-4.22v-.93c0-8.37-2.11-11.41-6.39-11.41-6.7,0-8.31,6.76-8.31,21.08s1.74,21.14,8.18,21.14c4.53,0,6.51-3.04,6.51-10.48v-6.88h-8.31v-4.09h12.52v24.49h-3.04l-.74-3.84c-1.55,3.29-4.4,4.65-7.5,4.65-8.56,0-12.15-7.07-12.15-24.99Z"/><path class="cls-6" d="m921.62,3552.18h9.3c8.37,0,13.21,3.97,13.21,13.08,0,4.83-1.8,10.97-7.56,13.21l8.8,22.01v.06h-4.65l-8.12-21.26h-6.57v21.26h-4.4v-48.36Zm9.49,23.37c6.45,0,8.56-4.09,8.56-10.35,0-6.63-3.04-9.18-8.49-9.18h-5.15v19.53h5.08Z"/><path class="cls-6" d="m949.71,3587.89v-35.71h4.34v36.33c0,6.08,1.8,8.93,6.2,8.93s6.08-2.85,6.08-8.93v-36.33h4.34v35.28c0,9.67-3.22,13.89-10.48,13.89s-10.48-3.72-10.48-13.45Z"/><path class="cls-6" d="m977.8,3552.18h5.58l14.01,39.86h.12v-39.86h4.09v48.36h-5.08l-14.51-41.04h-.12v41.04h-4.09v-48.36Z"/><path class="cls-6" d="m1009.04,3552.18h7.32c10.35,0,15.5,6.26,15.5,24.18s-5.15,24.18-15.5,24.18h-7.32v-48.36Zm7.25,44.51c7.81,0,11.04-5.02,11.04-20.33s-3.1-20.33-10.91-20.33h-3.04v40.67h2.91Z"/><path class="cls-6" d="m1035.89,3586.65v-2.6h4.34v2.54c0,4.65,0,10.85,7.13,10.85,4.59,0,6.88-2.42,6.88-8.43,0-6.82-2.54-8.87-5.21-10.04l-4.59-2.05c-4.9-2.17-7.75-6.45-7.75-13.39,0-5.95,2.29-12.15,10.91-12.15,10.35,0,10.6,9.55,10.6,15v2.6h-4.34v-2.23c0-8.25-.87-11.47-6.32-11.47-4.9,0-6.39,3.1-6.39,8.74,0,6.2,2.85,8.06,5.58,9.36l4.28,2.05c3.29,1.55,7.56,4.22,7.56,13.14,0,7.75-3.22,12.77-11.22,12.77-11.16,0-11.47-9.18-11.47-14.69Z"/><path class="cls-6" d="m1064.47,3552.18h4.34v24.18l14.51-24.18h4.59v.06l-11.53,18.79,12.71,29.45v.06h-4.77l-10.66-25.11-4.84,7.87v17.23h-4.34v-48.36Z"/><path class="cls-6" d="m1092.81,3552.18h9.3c8.37,0,13.21,3.97,13.21,13.08,0,4.83-1.8,10.97-7.56,13.21l8.8,22.01v.06h-4.65l-8.12-21.26h-6.57v21.26h-4.4v-48.36Zm9.49,23.37c6.45,0,8.56-4.09,8.56-10.35,0-6.63-3.04-9.18-8.49-9.18h-5.15v19.53h5.08Z"/><path class="cls-6" d="m1121.2,3552.18h4.34v48.36h-4.34v-48.36Z"/><path class="cls-6" d="m1132.98,3552.18h17.3v3.84h-12.96v19.03h10.11v4.03h-10.11v21.45h-4.34v-48.36Z"/><path class="cls-6" d="m1162.31,3556.03h-10.17v-3.84h24.67v3.84h-10.17v44.51h-4.34v-44.51Z"/><rect class="cls-2" x="688.52" y="3520.1" width="515.25" height="118.22"/><path class="cls-8" d="m500.55,1462.73c-5.03,0-8.38-4.69-7.71-9.05,7.71-51.6,13.74-108.56,23.45-163.85.33-2.01,15.08,5.7,14.41,3.35-18.43,111.58-75.05,169.2-118.28,169.2-37.19,0-65.67-38.53-65.67-106.88,0-88.46,50.93-209.75,122.63-209.75,16.42,0,33.84,6.03,50.93,19.1,1.67,1.34,3.01,3.69,3.01,6.03,0,4.36-3.35,7.71-7.71,7.71-1.68,0-3.35-.67-4.69-1.67-14.74-11.06-28.48-15.75-41.55-15.75-58.97,0-107.22,110.57-107.22,194.34,0,60.31,23.12,91.47,50.26,91.47,34.51,0,85.78-52.27,102.87-156.81,2.68-11.73,18.43-9.04,16.42,2.35-9.72,54.95-16.08,111.58-23.46,163.51-.67,3.69-3.68,6.7-7.71,6.7Z"/><path class="cls-8" d="m864.76,744.35c0-4.02,3.35-7.71,7.71-7.71,2.68,0,5.36,1.67,6.7,4.02,14.74,27.47,27.47,37.86,39.87,37.86,24.8,0,44.23-47.58,58.64-109.23,7.71-34.51,14.07-73.04,19.77-107.22,5.36-29.48,9.72-56.96,14.74-77.06.67-3.35,3.69-6.03,7.37-6.03,5.03,0,8.71,4.69,7.37,9.38-4.69,19.77-9.05,46.57-14.07,76.4-5.7,34.18-12.06,72.71-20.44,107.89-15.08,64.33-36.19,121.29-73.38,121.29-19.43,0-36.52-14.41-53.61-45.9-.33-1-.67-2.35-.67-3.69Z"/><path class="cls-8" d="m1019.23,479.99c5.03,0,9.05,5.03,7.37,9.72-36.86,122.96-79.41,171.21-121.63,171.21-22.11,0-38.2-18.09-38.2-57.29,0-76.4,49.25-126.32,129.67-126.32,7.71,0,16.08.67,24.12,1.68,3.69.67,6.7,3.68,6.7,7.71,0,5.03-4.69,8.04-9.05,7.71-7.37-1-14.41-1.67-21.78-1.67-71.7,0-114.25,42.55-114.25,110.91,0,30.15,9.71,41.88,22.78,41.88,32.84,0,71.7-42.89,106.88-160.16,1-3.02,4.02-5.36,7.37-5.36Z"/><g class="cls-5"><path class="cls-9" d="m1063.79,2279.89c-5.03,0-8.38-4.69-7.71-9.05l51.6-297.87c.33-3.69,3.68-6.7,7.37-6.7,5.03,0,8.38,4.69,7.71,9.05l-51.6,297.87c-.33,3.68-3.69,6.7-7.37,6.7Z"/></g><path class="cls-8" d="m1088.2,2267.66c-4.96,0-10.09-.34-15.49-.89,23.81-110.87,59.6-151.9,98.92-151.9,13.74,0,27.48,12.06,27.48,41.88,0,68.35-39.2,110.91-110.91,110.91Z"/><g class="cls-12"><path class="cls-10" d="m389.11,2318.98c-4.02-4.18-8.42-7.98-13.15-11.36-12.21,63.14-30.56,93.79-68.07,93.55-8.71,0-18.09-2.68-28.81-8.04-1-.67-2.34-1-3.69-1-4.35,0-7.71,3.35-7.71,7.71,0,3.02,1.67,5.7,4.02,6.7,12.73,6.7,24.79,10.05,36.18,10.05,45.68.23,67.53-34.08,81.22-97.6Z"/></g><rect class="cls-8" x="711.2" y="3853.7" width="177.04" height="177.04" rx="88.52" ry="88.52"/><rect class="cls-8" x="519.08" y="4217.78" width="177.04" height="177.04" rx="88.52" ry="88.52"/><rect class="cls-8" x="850.71" y="4217.78" width="177.04" height="177.04" rx="88.52" ry="88.52"/><g class="cls-15"><path class="cls-9" d="m846.57,3929.3c0-14.74-8.71-25.13-27.47-25.13-14.75,0-31.5,9.72-36.19,35.85l-46.57,268.72c-.67,4.36,2.68,9.04,7.71,9.04,3.69,0,7.04-3.01,7.37-6.7l27.48-157.23c27.14-32.93,67.68-93.86,67.68-124.56Zm-48.25,13.4c2.68-17.42,12.06-23.12,20.77-23.12s12.06,2.68,12.06,9.71c0,19.54-23.72,60.09-46.57,91.99l13.74-78.58Z"/></g><g class="cls-14"><path class="cls-9" d="m680.71,4038.86c-3.69,0-6.7,2.68-7.37,6.03-5.03,20.1-9.38,47.58-14.75,77.07-4.27,24.89-11.94,60.54-18.2,88.68-45.01,51.63-64.61,74.28-72.6,94.27-11.39,27.47,2.68,50.93,21.78,50.93,33.84,0,51.93-83.09,59.98-116.93,6.37-28.15,18.76-80.42,24.46-114.25,5.03-29.82,9.38-56.63,14.07-76.39,1.34-4.69-2.35-9.38-7.37-9.38Zm-91.13,301.55c-7.37,0-14.75-12.06-7.71-29.49,6.19-15.2,19.95-32.28,51.18-68.32-8.72,34.84-25.66,97.81-43.47,97.81Z"/></g><g class="cls-13"><path class="cls-9" d="m987.29,4056.95c-4.02,0-7.71-3.35-7.71-7.71,0-1.67.67-3.35,2.01-4.69,26.14-31.83,64.33-90.47,64.33-115.26,0-7.04-3.01-9.71-12.06-9.71s-17.76,5.7-20.77,23.12l-75.39,404.75c-.34,3.69-3.69,6.7-7.37,6.7-5.03,0-8.38-4.36-7.71-9.05l75.05-405.09c5.03-26.13,21.44-35.85,36.18-35.85,18.76,0,27.48,10.39,27.48,25.13,0,30.83-40.88,92.14-68.02,124.98-1.34,1.68-3.35,2.68-6.03,2.68Z"/></g><path class="cls-9" d="m1017.69,2916.75l69.46-.15c4.36,0,7.71-3.35,7.71-7.71s-3.35-7.71-7.71-7.71l-68.65.15s-1.72,6.24-.8,15.41Z"/></g></svg>