<?xml version="1.0" encoding="UTF-8"?><svg xmlns="http://www.w3.org/2000/svg" viewBox="0 0 1920 3580"><defs><style>.cls-1{fill:#fff;}.cls-2{fill:#937fbb;}.cls-3{fill:#a797c9;}.cls-4{fill:#171c32;}.cls-5{fill:#947fbb;}.cls-6,.cls-7{stroke:#a797c9;stroke-linecap:round;stroke-width:7px;}.cls-6,.cls-7,.cls-8{fill:none;stroke-miterlimit:10;}.cls-7{stroke-dasharray:0 0 1.74 17.45;}.cls-8{stroke:#57678b;stroke-width:3.5px;}</style></defs><g id="Background"><rect class="cls-4" width="1920" height="3580"/></g><g id="Horizontal_Guides"><line class="cls-8" y1="204.72" x2="1920" y2="204.72"/><line class="cls-8" y1="363.48" x2="1920" y2="363.48"/><line class="cls-8" x1="1920" y1="553.63" y2="553.63"/><line class="cls-8" y1="712.86" x2="1920" y2="712.86"/><line class="cls-8" y1="1063.74" x2="1920" y2="1063.74"/><line class="cls-8" y1="1222.51" x2="1920" y2="1222.51"/><line class="cls-8" x1="1920" y1="1412.66" y2="1412.66"/><line class="cls-8" y1="1571.89" x2="1920" y2="1571.89"/><line class="cls-8" y1="1919.93" x2="1920" y2="1919.93"/><line class="cls-8" y1="2078.69" x2="1920" y2="2078.69"/><line class="cls-8" x1="1920" y1="2268.84" y2="2268.84"/><line class="cls-8" y1="2428.07" x2="1920" y2="2428.07"/><line class="cls-8" y1="2777.93" x2="1920" y2="2777.93"/><line class="cls-8" y1="2936.69" x2="1920" y2="2936.69"/><line class="cls-8" x1="1920" y1="3126.84" y2="3126.84"/><line class="cls-8" y1="3286.07" x2="1920" y2="3286.07"/></g><g id="Info"><circle class="cls-2" cx="826.66" cy="3107.57" r="69.33"/><rect class="cls-5" x="1324.96" y="204.79" width="59.11" height="508.14"/><path class="cls-1" d="m422.05,221.86v141.24h107.05c11.21,0,11.77,17.93.56,17.93h-107.61v161.97c0,15.69-22.98,14.57-22.98,0V215.69c0-6.16,4.48-11.77,10.65-11.77h132.83c11.21,0,11.21,17.93.56,17.93h-121.06Z"/><path class="cls-1" d="m719.04,544.12v-62.21c-23.54,47.64-56.05,71.74-96.96,71.74s-62.21-25.22-62.21-75.66c0-73.98,49.32-114.33,114.89-116.02,19.62-.56,40.35,2.8,62.21,10.09,1.68.56,2.8,2.24,2.8,5.04v166.46c0,6.73-3.36,10.65-10.09,11.21-7.29,0-10.65-3.36-10.65-10.65Zm0-158.05c-9.53-2.8-15.69-3.92-18.5-4.48-8.97-2.24-19.05-3.36-29.7-2.8-55.49,1.68-89.11,40.91-89.11,98.64,0,39.79,15.69,58.85,42.03,58.85,17.93-.56,34.19-6.73,48.2-19.06,28.58-24.1,40.35-53.8,47.08-87.43v-43.72Zm-63.33-84.63c0,7.29-5.6,14.01-14.01,14.01s-14.01-6.73-14.01-14.01,6.72-14.01,14.01-14.01,14.01,6.73,14.01,14.01Zm61.09,0c0,7.29-6.72,14.01-14.01,14.01s-13.45-6.73-13.45-14.01,6.16-14.01,13.45-14.01,14.01,6.73,14.01,14.01Z"/><path class="cls-1" d="m889.59,386.07c-5.6-2.8-11.21-3.92-17.37-3.92-31.95,0-62.77,49.88-62.77,82.95-.56,8.41-.56,21.86-.56,39.23v39.79c0,7.29-3.36,10.65-10.09,10.65-7.29,0-10.65-3.36-10.65-10.65v-172.62c0-6.16,6.16-9.53,11.21-9.53,6.17,0,9.53,3.36,9.53,9.53l.56,44.28c14.01-29.14,38.67-53.24,66.13-53.24,14.01,0,33.07,4.49,33.07,15.69,0,6.16-5.04,11.77-10.09,11.77-.56,0-3.92-1.12-8.97-3.92Z"/><path class="cls-1" d="m1102.35,622.59c0,56.05-44.84,92.48-91.36,91.91-39.79-.56-60.53-3.92-78.47-16.81-8.41-6.16,1.12-22.42,10.09-17.38,19.62,10.65,41.47,16.25,66.13,16.25,36.43,0,72.86-28.02,72.86-73.42v-141.23c-22.42,45.4-48.76,72.86-95.84,72.86-42.6,0-62.77-29.14-62.77-76.78,0-73.98,49.32-114.89,114.89-116.58,19.62,0,40.35,3.36,61.65,10.65,1.68.56,2.8,2.24,2.8,5.04v245.48Zm-20.74-235.95c-.56,0-3.36-.56-7.29-2.24-4.48-1.12-8.41-2.24-11.21-2.8-11.21-2.24-21.3-3.36-29.71-2.8-55.49,1.68-89.11,40.91-89.11,98.64,0,39.79,16.81,60.53,42.03,59.97,51.56-.56,84.07-52.12,95.28-107.61v-43.16Z"/><path class="cls-1" d="m1252.16,386.07c-5.6-2.8-11.21-3.92-17.37-3.92-31.95,0-62.77,49.88-62.77,82.95-.56,8.41-.56,21.86-.56,39.23v39.79c0,7.29-3.36,10.65-10.09,10.65-7.29,0-10.65-3.36-10.65-10.65v-172.62c0-6.16,6.16-9.53,11.21-9.53,6.16,0,9.53,3.36,9.53,9.53l.56,44.28c14.01-29.14,38.67-53.24,66.13-53.24,14.01,0,33.07,4.49,33.07,15.69,0,6.16-5.04,11.77-10.09,11.77-.56,0-3.92-1.12-8.97-3.92Z"/><path class="cls-1" d="m1306.25,302c0-8.4,6.73-14.57,14.01-14.57s14.57,6.17,14.57,14.57c0,7.29-6.17,14.01-14.57,14.01-7.29,0-14.01-5.6-14.01-14.01Zm3.36,69.5c0-7.29,3.36-10.65,10.65-10.65s10.65,3.36,10.65,10.65v173.18c0,14.57-21.3,14.57-21.3,0v-173.18Z"/><path class="cls-1" d="m1503.31,553.65l-102-92.48v85.75c0,12.89-17.93,11.77-20.18,0-.56-.56-.56-1.68-.56-2.8V212.33c0-11.77,20.74-13.45,20.74,0v233.15l87.43-82.95c10.09-8.97,24.66,3.92,14.57,15.13l-81.83,73.98,95.28,86.31c5.04,5.04,5.6,10.09,1.12,15.13-4.48,5.04-9.53,5.61-14.57.56Z"/><path class="cls-1" d="m409.4,1406.85c-5.04,11.21-16.25,11.77-20.74,0l-139.55-330.11c-6.16-14.57,14.57-21.3,20.74-7.85l130.03,307.69,124.98-306.57c2.8-7.29,7.85-9.53,15.13-7.85,6.16,2.24,8.4,6.73,6.16,12.89l-136.75,331.79Z"/><path class="cls-1" d="m693.06,1404.04v-62.21c-23.54,47.64-56.05,71.74-96.96,71.74s-62.21-25.22-62.21-75.66c0-73.98,49.32-114.33,114.89-116.02,19.62-.56,40.35,2.8,62.21,10.09,1.68.56,2.8,2.24,2.8,5.04v166.46c0,6.73-3.36,10.65-10.09,11.21-7.29,0-10.65-3.36-10.65-10.65Zm0-158.05c-9.53-2.8-15.69-3.92-18.5-4.48-8.97-2.24-19.05-3.36-29.7-2.8-55.49,1.68-89.11,40.91-89.11,98.64,0,39.79,15.69,58.85,42.03,58.85,17.93-.56,34.19-6.73,48.2-19.06,28.58-24.1,40.35-53.8,47.08-87.43v-43.72Zm-63.33-84.63c0,7.29-5.6,14.01-14.01,14.01s-14.01-6.73-14.01-14.01,6.72-14.01,14.01-14.01,14.01,6.73,14.01,14.01Zm61.09,0c0,7.29-6.72,14.01-14.01,14.01s-13.45-6.73-13.45-14.01,6.16-14.01,13.45-14.01,14.01,6.73,14.01,14.01Z"/><path class="cls-1" d="m895.56,1279.62c0-22.98-12.89-39.79-31.38-39.79-24.1,0-44.84,14.01-56.05,31.95-16.25,25.22-25.22,58.29-25.22,84.07v48.76c0,13.45-20.74,12.89-20.74,0v-172.62c0-12.89,20.74-12.89,20.74-.56v62.21c18.5-48.76,47.08-72.86,84.63-72.3,34.19.56,49.32,27.46,49.32,58.29v124.42c0,6.17-3.36,9.53-10.65,9.53s-10.65-3.36-10.65-9.53v-124.42Z"/><path class="cls-5" d="m958.55,1402.92c-9.53-6.17-1.12-22.98,10.09-16.25,11.21,7.29,20.74,10.65,29.14,10.65,24.1,0,39.79-16.25,39.79-38.11,0-11.77-7.29-21.86-21.29-31.38-5.04-3.92-9.53-6.17-12.33-7.85-7.29-4.49-12.33-8.41-16.25-11.77-7.85-6.73-17.38-20.74-17.38-36.43,0-29.71,27.46-49.88,58.29-49.88,11.77,0,21.3,2.24,29.15,7.29,8.97,5.6,1.12,19.06-10.65,14.01-5.04-2.8-11.77-4.49-19.62-4.49-22.98,0-35.87,14.57-35.87,33.07,0,10.65,7.29,20.18,21.3,29.14,1.68.56,3.92,2.24,6.72,3.92,2.8,1.68,4.49,3.36,5.6,3.92,20.74,13.45,33.63,26.34,33.63,50.44,0,33.63-29.14,54.93-62.21,54.93-12.89,0-25.22-3.92-38.11-11.21Z"/><path class="cls-1" d="m1223.09,1413.57l-102-92.48v85.75c0,12.89-17.93,11.77-20.18,0-.56-.56-.56-1.68-.56-2.8v-331.79c0-11.77,20.74-13.45,20.74,0v233.15l87.43-82.95c10.09-8.97,24.66,3.92,14.57,15.13l-81.83,73.98,95.28,86.31c5.04,5.04,5.6,10.09,1.12,15.13-4.48,5.04-9.53,5.61-14.57.56Z"/><path class="cls-1" d="m1423.57,1404.04v-62.21c-23.54,47.64-56.05,71.74-96.96,71.74s-62.21-25.22-62.21-75.66c0-73.98,49.32-114.33,114.89-116.02,19.62-.56,40.35,2.8,62.21,10.09,1.68.56,2.8,2.24,2.8,5.04v166.46c0,6.73-3.36,10.65-10.09,11.21-7.29,0-10.65-3.36-10.65-10.65Zm0-158.05c-9.53-2.8-15.69-3.92-18.5-4.48-8.97-2.24-19.05-3.36-29.7-2.8-55.49,1.68-89.11,40.91-89.11,98.64,0,39.79,15.69,58.85,42.03,58.85,17.93-.56,34.19-6.73,48.2-19.06,28.58-24.1,40.35-53.8,47.08-87.43v-43.72Z"/><path class="cls-1" d="m1513.41,1409.65v156.37c0,12.89-20.74,12.33-20.74.56v-334.03c0-7.29,3.36-10.65,10.09-10.65,7.29,0,10.65,3.36,10.65,10.65v65.01c21.86-43.16,56.05-73.42,95.84-72.86,42.6.56,62.77,29.15,62.77,76.22,0,73.98-47.64,113.77-113.21,115.45-8.97.56-24.1-1.68-45.4-6.72Zm0-59.97v41.47c8.97,3.36,15.13,5.6,18.5,6.17,9.53,1.68,19.62,2.8,29.7,2.24,55.49-1.68,89.11-40.91,89.11-98.64,0-39.79-16.81-59.97-42.03-59.41-51.56.56-83.51,52.68-95.28,108.17Z"/><path class="cls-1" d="m573.89,2252.67c10.65,11.77-7.85,25.22-17.38,14.01l-153.56-179.35v174.3c0,11.77-22.98,11.21-22.98,0v-332.35c0-6.17,3.36-9.53,10.09-9.53h58.85c13.45,0,26.34,2.24,44.28,9.53,34.75,14.57,47.64,44.27,47.64,76.22,0,52.12-42.03,85.19-104.8,89.11l137.87,158.05Zm-170.94-314.98v141.24c71.74,6.17,114.89-26.34,114.89-73.42s-36.43-67.25-70.62-67.82h-44.27Z"/><path class="cls-5" d="m601.91,2179.25c0-57.73,42.6-102,98.08-102s85.19,38.67,85.19,91.92c0,58.29-42.03,99.76-102.56,99.76-52.12,0-80.71-36.43-80.71-89.67Zm21.3,0c0,42.6,19.05,72.3,61.65,72.3,49.32,0,79.02-34.75,79.02-82.38,0-42.6-22.42-73.98-65.01-73.98-46.52,0-75.66,36.99-75.66,84.07Zm30.27-163.09c0-18.49,28.02-18.49,28.02,0s-28.02,18.49-28.02,0Zm75.1-14.01c18.5,0,18.5,28.02,0,28.02s-17.93-28.02,0-28.02Z"/><path class="cls-1" d="m929.79,2102.47c-5.6-2.8-11.21-3.92-17.37-3.92-31.95,0-62.77,49.88-62.77,82.95-.56,8.41-.56,21.86-.56,39.23v39.79c0,7.29-3.36,10.65-10.09,10.65-7.29,0-10.65-3.36-10.65-10.65v-172.62c0-6.16,6.16-9.53,11.21-9.53,6.16,0,9.53,3.36,9.53,9.53l.56,44.28c14.01-29.14,38.67-53.24,66.13-53.24,14.01,0,33.07,4.49,33.07,15.69,0,6.16-5.04,11.77-10.09,11.77-.56,0-3.92-1.12-8.97-3.92Z"/><path class="cls-5" d="m988.98,2169.73c-.56,3.92-1.12,9.53-1.12,17.38,0,37.55,32.51,62.21,71.18,63.89,11.77.56,23.54-1.12,35.87-5.04,1.68-.56,4.49-1.12,7.29-2.24,2.8-1.12,5.04-1.68,5.61-1.68,3.36-1.12,6.16-1.68,8.97-1.68,6.16,0,9.53,3.36,9.53,10.09-.56,12.89-42.6,19.05-70.06,19.05-51,.56-89.67-32.51-89.67-82.38,0-63.33,35.87-109.29,98.08-109.29,38.67,0,67.25,30.26,67.25,70.06,0,14.57-2.24,21.86-7.29,21.86h-135.63Zm2.8-17.38h118.82c.56-2.24.56-5.6.56-9.53,0-24.66-21.86-46.52-46.52-46.52-37.55,0-62.21,18.49-72.86,56.05Z"/><path class="cls-1" d="m1174.22,1927.61c0-7.29,3.36-10.65,10.65-10.65s10.65,3.36,10.65,10.65v333.47c0,7.29-3.36,10.65-10.65,10.65s-10.65-3.36-10.65-10.65v-333.47Z"/><path class="cls-1" d="m1236.59,2259.4c-9.53-6.17-1.12-22.98,10.09-16.25,11.21,7.29,20.74,10.65,29.14,10.65,24.1,0,39.79-16.25,39.79-38.11,0-11.77-7.29-21.86-21.3-31.38-5.04-3.92-9.53-6.17-12.33-7.85-7.29-4.49-12.33-8.41-16.25-11.77-7.85-6.73-17.38-20.74-17.38-36.43,0-29.71,27.46-49.88,58.29-49.88,11.77,0,21.3,2.24,29.15,7.29,8.97,5.6,1.12,19.06-10.65,14.01-5.04-2.8-11.77-4.49-19.62-4.49-22.98,0-35.87,14.57-35.87,33.07,0,10.65,7.29,20.18,21.3,29.14,1.68.56,3.92,2.24,6.72,3.92,2.8,1.68,4.49,3.36,5.61,3.92,20.74,13.45,33.63,26.34,33.63,50.44,0,33.63-29.14,54.93-62.21,54.93-12.89,0-25.22-3.92-38.11-11.21Z"/><path class="cls-1" d="m1397.11,2169.73c-.56,3.92-1.12,9.53-1.12,17.38,0,37.55,32.51,62.21,71.18,63.89,11.77.56,23.54-1.12,35.87-5.04,1.68-.56,4.49-1.12,7.29-2.24,2.8-1.12,5.04-1.68,5.61-1.68,3.36-1.12,6.16-1.68,8.97-1.68,6.16,0,9.53,3.36,9.53,10.09-.56,12.89-42.6,19.05-70.06,19.05-51,.56-89.67-32.51-89.67-82.38,0-63.33,35.87-109.29,98.08-109.29,38.67,0,67.25,30.26,67.25,70.06,0,14.57-2.24,21.86-7.29,21.86h-135.63Zm2.8-17.38h118.82c.56-2.24.56-5.6.56-9.53,0-24.66-21.86-46.52-46.52-46.52-37.55,0-62.21,18.49-72.86,56.05Z"/><path class="cls-1" d="m575.25,3122.45l-65.57-142.92h-156.37l-67.25,144.04c-7.29,13.45-26.34,4.48-20.18-8.97l155.25-329.55c2.8-5.04,6.73-7.85,12.33-7.85s9.53,2.8,12.33,7.85l151.32,330.11c2.8,6.73-1.12,12.33-6.16,14.01-7.29,2.24-12.33,0-15.69-6.73Zm-142.91-312.74l-70.62,151.88,140.11-.56-69.49-151.32Z"/><path class="cls-1" d="m694.81,3122.45c-3.92,8.41-11.21,8.97-15.69-.56l-69.5-172.06c-6.16-12.89,15.13-20.74,20.18-7.29l58.85,151.32,70.62-151.32c5.6-12.89,23.54-4.49,17.93,8.4l-82.39,171.5Z"/><path class="cls-1" d="m819.69,3117.41c-2.8-1.12-3.92-3.36-3.92-6.16v-326.75c0-6.16,3.36-9.53,10.65-9.53s11.21,3.36,11.21,9.53v222.51c21.86-43.16,48.76-68.94,96.4-71.18,42.6-2.8,62.21,26.34,62.21,75.1,0,73.98-51,116.58-116.58,116.58-19.62,0-39.79-3.36-59.97-10.09Zm65.01-146.84c-28.02,24.66-40.35,54.93-47.08,88.55v43.71c.56,0,3.36.56,7.85,1.68,3.93,1.68,7.85,2.8,10.65,3.36,9.53,1.68,19.06,2.8,29.71,2.8,55.49-1.68,89.11-42.03,89.11-99.76,0-39.79-16.25-58.85-42.6-58.29-17.93,0-33.63,6.17-47.64,17.93Z"/><path class="cls-1" d="m1140.83,2959.92c-5.6-2.8-11.21-3.92-17.37-3.92-31.95,0-62.77,49.88-62.77,82.95-.56,8.41-.56,21.86-.56,39.23v39.79c0,7.29-3.36,10.65-10.09,10.65-7.29,0-10.65-3.36-10.65-10.65v-172.62c0-6.16,6.16-9.53,11.21-9.53,6.17,0,9.53,3.36,9.53,9.53l.56,44.28c14.01-29.14,38.67-53.24,66.13-53.24,14.01,0,33.07,4.49,33.07,15.69,0,6.16-5.04,11.77-10.09,11.77-.56,0-3.92-1.12-8.97-3.92Z"/><path class="cls-1" d="m1177.6,3036.7c0-57.73,42.6-102,98.08-102s85.19,38.67,85.19,91.92c0,58.29-42.03,99.76-102.56,99.76-52.12,0-80.71-36.43-80.71-89.67Zm21.3,0c0,42.6,19.05,72.3,61.65,72.3,49.32,0,79.02-34.75,79.02-82.38,0-42.6-22.42-73.98-65.01-73.98-46.52,0-75.66,36.99-75.66,84.07Zm30.27-163.09c0-18.49,28.02-18.49,28.02,0s-28.02,18.49-28.02,0Zm75.1-14.01c18.5,0,18.5,28.02,0,28.02s-17.93-28.02,0-28.02Z"/><path class="cls-1" d="m1422.31,3082.1c0-16.25,0-37.55.56-65.01.56-26.9.56-47.08.56-59.97h-27.46c-6.17,0-8.97-2.8-8.97-8.97,0-4.49,3.92-8.41,8.97-8.41h26.9c.56-19.62.56-41.47,0-65.01,0-12.89,21.3-13.45,21.3,0v65.01h49.32c5.6,0,8.41,2.8,8.41,8.97,0,5.6-2.8,8.41-8.41,8.41h-49.32v59.97c-.56,27.46-.56,48.76-.56,65.01,0,15.13,10.09,28.58,21.3,28.58,10.09.56,19.06-1.68,26.9-6.72,6.17-5.04,10.09-4.49,12.33,1.12,2.24,4.49.56,8.97-4.48,12.89-8.97,6.73-20.74,10.09-35.87,10.09-25.22,0-41.48-21.3-41.48-45.96Z"/><path class="cls-1" d="m1541.07,3116.85c-9.53-6.17-1.12-22.98,10.09-16.25,11.21,7.29,20.74,10.65,29.14,10.65,24.1,0,39.79-16.25,39.79-38.11,0-11.77-7.29-21.86-21.3-31.38-5.04-3.92-9.53-6.17-12.33-7.85-7.29-4.49-12.33-8.41-16.25-11.77-7.85-6.73-17.38-20.74-17.38-36.43,0-29.71,27.46-49.88,58.29-49.88,11.77,0,21.3,2.24,29.15,7.29,8.97,5.6,1.12,19.06-10.65,14.01-5.04-2.8-11.77-4.49-19.62-4.49-22.98,0-35.87,14.57-35.87,33.07,0,10.65,7.29,20.18,21.3,29.14,1.68.56,3.92,2.24,6.72,3.92,2.8,1.68,4.49,3.36,5.61,3.92,20.74,13.45,33.63,26.34,33.63,50.44,0,33.63-29.14,54.93-62.21,54.93-12.89,0-25.22-3.92-38.11-11.21Z"/><path class="cls-1" d="m1287.29,772.71v-19.95h2.94v19.95c0,9.41,4.07,10.63,8.86,10.63s8.78-1.01,8.78-10.63v-19.95h2.94v19.62c0,11.64-5.33,13.69-11.76,13.69s-11.76-2.06-11.76-13.36Z"/><path class="cls-1" d="m1318.58,764.52h2.39l.34,3.86h.08c1.13-2.48,4.03-4.41,7.86-4.41,6.3,0,9.66,3.99,9.66,11.01s-4.28,11.09-9.87,11.09c-3.78,0-6.39-1.6-7.44-3.7h-.08v11.55h-2.94v-29.41Zm17.18,10.63c0-7.18-3.4-8.61-6.93-8.61-4.24,0-7.56,2.73-7.56,8.44,0,6.01,3.44,8.57,7.43,8.57,3.03,0,7.06-1.47,7.06-8.4Z"/><path class="cls-1" d="m1344.79,764.52h2.6l.29,3.91c1.01-2.14,3.07-4.45,6.76-4.45,1.26,0,2.18.21,3.02.55v3.15c-1.13-.5-2.1-.76-3.4-.76-3.74,0-6.34,2.81-6.34,5.75v12.85h-2.94v-21Z"/><path class="cls-1" d="m1362.1,752.76h2.98v6.51h-2.98v-6.51Zm0,11.76h2.94v21h-2.94v-21Z"/><path class="cls-1" d="m1371.8,787.33v-.13h3.11v.13c0,2.9,1.93,4.33,6.13,4.33,4.79,0,7.02-2.94,7.02-7.86v-2.1h-.08c-1.09,2.18-3.65,4.07-7.48,4.07-6.3,0-9.75-3.99-9.75-10.71,0-7.1,4.37-11.09,9.96-11.09,3.78,0,6.55,1.81,7.56,4.12h.13l.29-3.57h2.31v19.16c0,5.88-2.81,10.71-10.33,10.71-6.3,0-8.86-2.98-8.86-7.06Zm16.59-12.77c0-5.5-3.36-8.07-7.35-8.07-3.02,0-7.14,1.47-7.14,8.4s3.57,8.32,7.1,8.32c4.24,0,7.39-2.73,7.39-8.65Z"/><path class="cls-1" d="m1398.34,752.76h2.94v15.16c1.05-2.1,3.28-3.95,7.31-3.95,4.75,0,7.77,2.52,7.77,7.94v13.61h-2.94v-13.27c0-4.33-2.14-5.71-5.5-5.71-3.82,0-6.64,2.69-6.64,5.63v13.36h-2.94v-32.77Z"/><path class="cls-1" d="m1434.67,782.84v2.6c-.76.21-2.14.59-4.03.59-3.82,0-6.34-1.6-6.34-6.89v-12.18h-4.16v-2.44h4.16v-6.05l2.94-1.43v7.48h5.92v2.44h-5.92v11.8c0,2.81.76,4.58,3.4,4.58,1.6,0,3.23-.29,4.03-.5Z"/><line class="cls-6" x1="603.51" y1="2329.25" x2="784.07" y2="2329.25"/><polygon class="cls-3" points="626.7 2357.88 631.48 2352.76 606.19 2329.26 631.48 2305.76 626.7 2300.63 595.91 2329.26 626.7 2357.88"/><polygon class="cls-3" points="760.88 2357.88 756.1 2352.76 781.39 2329.26 756.1 2305.76 760.88 2300.63 791.66 2329.26 760.88 2357.88"/><line class="cls-6" x1="958.95" y1="2329.25" x2="1139.52" y2="2329.25"/><polygon class="cls-3" points="982.14 2357.88 986.92 2352.76 961.64 2329.26 986.92 2305.76 982.14 2300.63 951.36 2329.26 982.14 2357.88"/><polygon class="cls-3" points="1116.32 2357.88 1111.55 2352.76 1136.83 2329.26 1111.55 2305.76 1116.32 2300.63 1147.11 2329.26 1116.32 2357.88"/><line class="cls-7" x1="693.79" y1="2493.59" x2="693.79" y2="2351.01"/><polyline class="cls-7" points="1050.13 2351.01 1050.13 2506.59 595.91 2506.59"/><path class="cls-1" d="m130.25,2485.07h8.61c7.94,0,11.64,2.44,11.64,8.86,0,4.58-2.18,7.98-6.76,9.33l7.85,14.53v.04h-3.32l-7.35-14.03c-.67.04-1.34.08-2.1.08h-5.59v13.95h-2.98v-32.77Zm8.74,16.3c6.09,0,8.49-2.81,8.49-7.31,0-4.75-2.6-6.38-8.44-6.38h-5.8v13.69h5.75Z"/><path class="cls-1" d="m154.73,2507.33c0-6.22,3.32-11.05,10.38-11.05,6.6,0,10.25,4.83,10.25,11.05s-3.7,11.05-10.29,11.05c-7.27,0-10.33-4.83-10.33-11.05Zm17.56,0c0-5.33-2.9-8.49-7.23-8.49-4.75,0-7.27,3.15-7.27,8.49s2.56,8.49,7.27,8.49c4.33,0,7.23-3.15,7.23-8.49Z"/><path class="cls-1" d="m180.81,2510.44v-13.61h2.94v13.27c0,4.33,2.14,5.71,5.42,5.71,3.74,0,6.55-2.69,6.55-5.63v-13.36h2.94v21h-2.6l-.25-3.36h-.08c-.97,2.02-3.24,3.91-7.23,3.91-4.66,0-7.69-2.52-7.69-7.94Z"/><path class="cls-1" d="m206.01,2496.83h2.6l.29,3.49c1.01-2.14,3.28-4.03,7.35-4.03,4.75,0,7.77,2.52,7.77,7.94v13.61h-2.94v-13.27c0-4.33-2.14-5.71-5.5-5.71-3.82,0-6.64,2.69-6.64,5.63v13.36h-2.94v-21Z"/><path class="cls-1" d="m229.7,2507.37c0-7.1,4.28-11.09,10.04-11.09,3.7,0,6.22,1.6,7.31,3.74h.04v-14.95h2.94v32.77h-1.97l-.67-3.61h-.08c-1.18,2.31-3.95,4.16-7.77,4.16-6.3,0-9.83-3.99-9.83-11.01Zm17.64-.5c0-5.5-3.36-8.07-7.35-8.07-3.11,0-7.14,1.47-7.14,8.4s3.61,8.61,7.14,8.61c4.24,0,7.35-2.73,7.35-8.95Z"/><path class="cls-1" d="m267.04,2485.07h2.94v32.77h-2.94v-32.77Z"/><path class="cls-1" d="m294.59,2508.34h-15.96c.17,4.79,2.48,7.48,6.93,7.48,3.82,0,5.67-1.43,5.96-4.83h2.98c-.29,4.24-3.28,7.39-9.03,7.39-7.06,0-9.83-4.66-9.83-10.88s3.23-11.22,10-11.22,8.95,3.99,8.95,10.21v1.85Zm-3.11-2.98c0-4.45-1.72-6.55-5.92-6.55s-6.55,2.65-6.89,6.97h12.81v-.42Z"/><path class="cls-1" d="m301.06,2511.45v-12.18h-4.16v-2.44h4.16v-6.05l2.94-1.43v7.48h11.85v-6.05l2.94-1.43v7.48h5.92v2.44h-5.92v11.8c0,2.82.76,4.58,3.4,4.58,1.6,0,3.23-.29,4.03-.5v2.6c-.76.21-2.14.59-4.03.59-3.82,0-6.34-1.6-6.34-6.89v-12.18h-11.85v11.8c0,2.82.76,4.58,3.4,4.58,1.6,0,3.23-.29,4.03-.5v2.6c-.76.21-2.14.59-4.03.59-3.82,0-6.34-1.6-6.34-6.89Z"/><path class="cls-1" d="m347.68,2508.34h-15.96c.17,4.79,2.48,7.48,6.93,7.48,3.82,0,5.67-1.43,5.96-4.83h2.98c-.29,4.24-3.28,7.39-9.03,7.39-7.06,0-9.83-4.66-9.83-10.88s3.23-11.22,10-11.22,8.95,3.99,8.95,10.21v1.85Zm-3.11-2.98c0-4.45-1.72-6.55-5.92-6.55s-6.55,2.65-6.89,6.97h12.81v-.42Z"/><path class="cls-1" d="m353.56,2496.83h2.6l.29,3.91c1.01-2.14,3.07-4.45,6.76-4.45,1.26,0,2.18.21,3.02.55v3.15c-1.13-.5-2.1-.76-3.4-.76-3.74,0-6.34,2.81-6.34,5.75v12.85h-2.94v-21Z"/><path class="cls-1" d="m368.76,2511.41v-1.18h2.94v1.13c0,2.86,2.14,4.49,5.96,4.49s5.8-1.01,5.8-3.78c0-2.06-1.01-2.81-3.87-3.32l-4.62-.84c-3.02-.55-5.54-2.02-5.54-5.5,0-3.15,2.35-6.13,8.4-6.13s8.4,3.02,8.4,7.23v.88h-2.98v-.76c0-3.45-2.14-4.92-5.42-4.92-3.95,0-5.33,1.34-5.33,3.36s1.01,2.86,3.91,3.4l4.03.76c4.12.76,6.09,1.93,6.09,5.59,0,4.58-4.12,6.55-8.78,6.55-7.31,0-8.99-3.28-8.99-6.97Z"/><path class="cls-1" d="m410.47,2512.04c0-3.95,2.23-6.09,7.86-6.09h6.34v-1.72c0-2.98-1.26-5.42-5.46-5.42-3.95,0-5.33,1.51-5.33,4.12v.88h-2.98v-.84c0-5,4.2-6.68,8.32-6.68,5.8,0,8.4,2.86,8.4,8.44v13.11h-2.06l-.55-2.98h-.08c-1.26,1.89-3.7,3.53-7.35,3.53-4.91,0-7.1-2.31-7.1-6.34Zm14.2-1.85v-1.76h-7.02c-2.65,0-4.03.92-4.03,3.61,0,2.35,1.26,3.86,4.5,3.86,4.16,0,6.55-2.14,6.55-5.71Z"/><path class="cls-1" d="m434.95,2496.83h2.6l.29,3.91c1.01-2.14,3.07-4.45,6.76-4.45,1.26,0,2.18.21,3.02.55v3.15c-1.13-.5-2.1-.76-3.4-.76-3.74,0-6.34,2.81-6.34,5.75v12.85h-2.94v-21Z"/><path class="cls-1" d="m468.89,2508.34h-15.96c.17,4.79,2.48,7.48,6.93,7.48,3.82,0,5.67-1.43,5.96-4.83h2.98c-.29,4.24-3.28,7.39-9.03,7.39-7.06,0-9.83-4.66-9.83-10.88s3.23-11.22,10-11.22,8.95,3.99,8.95,10.21v1.85Zm-3.11-2.98c0-4.45-1.72-6.55-5.92-6.55s-6.55,2.65-6.89,6.97h12.81v-.42Z"/><path class="cls-1" d="m481.7,2496.87v-.04h2.98l5.75,17.48h.08l6.3-17.48h2.69l6.17,17.48h.08l5.75-17.48h2.86v.04l-7.18,20.96h-3.02l-5.97-17.05h-.08l-6.22,17.05h-3.02l-7.18-20.96Z"/><path class="cls-1" d="m519.2,2485.07h2.98v6.51h-2.98v-6.51Zm0,11.76h2.94v21h-2.94v-21Z"/><path class="cls-1" d="m527.85,2507.37c0-7.1,4.28-11.09,10.04-11.09,3.7,0,6.22,1.6,7.31,3.74h.04v-14.95h2.94v32.77h-1.97l-.67-3.61h-.08c-1.18,2.31-3.95,4.16-7.77,4.16-6.3,0-9.83-3.99-9.83-11.01Zm17.64-.5c0-5.5-3.36-8.07-7.35-8.07-3.11,0-7.14,1.47-7.14,8.4s3.61,8.61,7.14,8.61c4.24,0,7.35-2.73,7.35-8.95Z"/><path class="cls-1" d="m572.8,2508.34h-15.96c.17,4.79,2.48,7.48,6.93,7.48,3.82,0,5.67-1.43,5.96-4.83h2.98c-.29,4.24-3.28,7.39-9.03,7.39-7.06,0-9.83-4.66-9.83-10.88s3.23-11.22,10-11.22,8.95,3.99,8.95,10.21v1.85Zm-3.11-2.98c0-4.45-1.72-6.55-5.92-6.55s-6.55,2.65-6.89,6.97h12.81v-.42Z"/><path class="cls-5" d="m1539.95,2152.25l-21.22.1h-118.77l-21.2-.26c-1.34,5.41-2.49,11.54-3.13,17.65l21.48-.02"/><path class="cls-5" d="m1397.11,2169.74s0-.01,0-.02h135.63c4.51,0,6.77-5.84,7.2-17.48-.03,0-.05,0-.07,0"/><line class="cls-7" x1="1468.53" y1="2136.81" x2="1468.53" y2="1858.97"/><path class="cls-1" d="m1308.3,1796.47h18.86v2.6h-15.92v12.94h12.31v2.6h-12.31v14.62h-2.94v-32.77Z"/><path class="cls-1" d="m1332.4,1796.47h2.94v32.77h-2.94v-32.77Z"/><path class="cls-1" d="m1341.43,1823.44c0-3.95,2.23-6.09,7.86-6.09h6.34v-1.72c0-2.98-1.26-5.42-5.46-5.42-3.95,0-5.33,1.51-5.33,4.12v.88h-2.98v-.84c0-5,4.2-6.68,8.32-6.68,5.8,0,8.4,2.86,8.4,8.44v13.11h-2.06l-.54-2.98h-.08c-1.26,1.89-3.7,3.53-7.35,3.53-4.92,0-7.1-2.31-7.1-6.34Zm14.2-1.85v-1.76h-7.01c-2.65,0-4.03.92-4.03,3.61,0,2.35,1.26,3.86,4.5,3.86,4.16,0,6.55-2.14,6.55-5.71Z"/><path class="cls-1" d="m1376.67,1826.55v2.6c-.76.21-2.14.59-4.03.59-3.82,0-6.34-1.6-6.34-6.89v-12.18h-4.16v-2.44h4.16v-6.05l2.94-1.43v7.48h5.92v2.44h-5.92v11.8c0,2.81.76,4.58,3.4,4.58,1.6,0,3.23-.29,4.03-.5Z"/><path class="cls-1" d="m1393.98,1825.75h-.08l-.76,3.49h-1.97v-32.77h2.94v15.25h.04c1.26-2.31,4.07-4.03,7.69-4.03,6.3,0,9.66,3.99,9.66,11.01s-4.29,11.09-9.87,11.09c-3.78,0-6.55-1.64-7.65-4.03Zm14.37-6.89c0-7.18-3.4-8.61-6.93-8.61-4.24,0-7.56,2.73-7.56,8.44,0,6.01,3.44,8.57,7.43,8.57,3.03,0,7.06-1.47,7.06-8.4Z"/><path class="cls-1" d="m1415.9,1823.44c0-3.95,2.23-6.09,7.86-6.09h6.34v-1.72c0-2.98-1.26-5.42-5.46-5.42-3.95,0-5.33,1.51-5.33,4.12v.88h-2.98v-.84c0-5,4.2-6.68,8.32-6.68,5.8,0,8.4,2.86,8.4,8.44v13.11h-2.06l-.55-2.98h-.08c-1.26,1.89-3.7,3.53-7.35,3.53-4.92,0-7.1-2.31-7.1-6.34Zm14.2-1.85v-1.76h-7.01c-2.65,0-4.03.92-4.03,3.61,0,2.35,1.26,3.86,4.49,3.86,4.16,0,6.55-2.14,6.55-5.71Z"/><path class="cls-1" d="m1440.39,1808.24h2.6l.29,3.91c1.01-2.14,3.07-4.45,6.76-4.45,1.26,0,2.18.21,3.02.55v3.15c-1.13-.5-2.1-.76-3.4-.76-3.74,0-6.34,2.81-6.34,5.75v12.85h-2.94v-21Z"/><path class="cls-1" d="m1467.35,1796.47h2.98v6.51h-2.98v-6.51Zm0,11.76h2.94v21h-2.94v-21Z"/><path class="cls-1" d="m1477.68,1808.24h2.61l.29,3.49c1.01-2.14,3.28-4.03,7.35-4.03,4.75,0,7.77,2.52,7.77,7.94v13.61h-2.94v-13.27c0-4.33-2.14-5.71-5.5-5.71-3.82,0-6.64,2.69-6.64,5.63v13.36h-2.94v-21Z"/><path class="cls-1" d="m1523.67,1826.55v2.6c-.76.21-2.14.59-4.03.59-3.82,0-6.34-1.6-6.34-6.89v-12.18h-4.16v-2.44h4.16v-6.05l2.94-1.43v7.48h5.92v2.44h-5.92v11.8c0,2.81.76,4.58,3.4,4.58,1.6,0,3.23-.29,4.03-.5Z"/><path class="cls-1" d="m1528.5,1796.47h2.94v15.16c1.05-2.1,3.28-3.95,7.31-3.95,4.75,0,7.77,2.52,7.77,7.94v13.61h-2.94v-13.27c0-4.33-2.14-5.71-5.5-5.71-3.82,0-6.64,2.69-6.64,5.63v13.36h-2.94v-32.77Z"/><path class="cls-1" d="m1571.13,1819.75h-15.96c.17,4.79,2.48,7.48,6.93,7.48,3.82,0,5.67-1.43,5.96-4.83h2.98c-.29,4.24-3.28,7.39-9.03,7.39-7.06,0-9.83-4.66-9.83-10.88s3.23-11.22,10-11.22,8.95,3.99,8.95,10.21v1.85Zm-3.11-2.98c0-4.45-1.72-6.55-5.92-6.55s-6.55,2.65-6.89,6.97h12.81v-.42Z"/><path class="cls-1" d="m1588.35,1806.93h-3.36v-5.08c0-3.95.88-5.29,3.4-5.97l.67,1.85c-1.76.67-2.06,1.09-2.06,3.78v.34h1.34v5.08Zm5.92,0h-3.36v-5.08c0-3.95.88-5.29,3.4-5.97l.67,1.85c-1.76.67-2.06,1.09-2.06,3.78v.34h1.34v5.08Z"/><path class="cls-1" d="m1616.24,1819.75h-15.96c.17,4.79,2.48,7.48,6.93,7.48,3.82,0,5.67-1.43,5.96-4.83h2.98c-.29,4.24-3.28,7.39-9.03,7.39-7.06,0-9.83-4.66-9.83-10.88s3.23-11.22,10-11.22,8.95,3.99,8.95,10.21v1.85Zm-3.11-2.98c0-4.45-1.72-6.55-5.92-6.55s-6.55,2.65-6.89,6.97h12.81v-.42Z"/><path class="cls-1" d="m1617.5,1805.67c1.76-.67,2.06-1.09,2.06-3.78v-.34h-1.34v-5.08h3.36v5.08c0,3.95-.88,5.29-3.4,5.97l-.67-1.85Zm5.92,0c1.76-.67,2.06-1.09,2.06-3.78v-.34h-1.34v-5.08h3.36v5.08c0,3.95-.88,5.29-3.4,5.97l-.67-1.85Z"/><path class="cls-1" d="m625.8,3364.66h3.15l17.69,27.6h.04v-27.6h2.94v32.77h-3.07l-17.77-27.93h-.04v27.93h-2.94v-32.77Z"/><path class="cls-1" d="m656.54,3386.92c0-6.22,3.32-11.05,10.38-11.05,6.6,0,10.25,4.83,10.25,11.05s-3.7,11.05-10.29,11.05c-7.27,0-10.33-4.83-10.33-11.05Zm17.56,0c0-5.33-2.9-8.49-7.22-8.49-4.75,0-7.27,3.15-7.27,8.49s2.56,8.49,7.27,8.49c4.33,0,7.22-3.15,7.22-8.49Z"/><path class="cls-1" d="m690.81,3391v-1.18h2.94v1.13c0,2.86,2.14,4.49,5.96,4.49s5.8-1.01,5.8-3.78c0-2.06-1.01-2.81-3.87-3.32l-4.62-.84c-3.02-.55-5.54-2.02-5.54-5.5,0-3.15,2.35-6.13,8.4-6.13s8.4,3.02,8.4,7.23v.88h-2.98v-.76c0-3.45-2.14-4.92-5.42-4.92-3.95,0-5.34,1.34-5.34,3.36s1.01,2.86,3.91,3.4l4.03.76c4.12.76,6.09,1.93,6.09,5.59,0,4.58-4.12,6.55-8.78,6.55-7.31,0-8.99-3.28-8.99-6.97Z"/><path class="cls-1" d="m714.46,3376.42h2.39l.34,3.87h.08c1.13-2.48,4.03-4.41,7.86-4.41,6.3,0,9.66,3.99,9.66,11.01s-4.29,11.09-9.87,11.09c-3.78,0-6.39-1.6-7.44-3.7h-.08v11.55h-2.94v-29.41Zm17.18,10.63c0-7.18-3.4-8.61-6.93-8.61-4.24,0-7.56,2.73-7.56,8.44,0,6.01,3.44,8.57,7.43,8.57,3.03,0,7.06-1.47,7.06-8.4Z"/><path class="cls-1" d="m740.25,3390.03v-13.61h2.94v13.27c0,4.33,2.14,5.71,5.42,5.71,3.74,0,6.55-2.69,6.55-5.63v-13.36h2.94v21h-2.6l-.25-3.36h-.08c-.97,2.02-3.24,3.91-7.23,3.91-4.66,0-7.69-2.52-7.69-7.94Z"/><path class="cls-1" d="m765.45,3376.42h2.6l.29,3.91c1.01-2.14,3.07-4.45,6.76-4.45,1.26,0,2.18.21,3.02.55v3.15c-1.13-.5-2.1-.76-3.4-.76-3.74,0-6.34,2.81-6.34,5.75v12.85h-2.94v-21Z"/><path class="cls-1" d="m792.41,3364.66h2.98v6.51h-2.98v-6.51Zm0,11.76h2.94v21h-2.94v-21Z"/><path class="cls-1" d="m802.74,3376.42h2.6l.29,3.49c1.01-2.14,3.28-4.03,7.35-4.03,4.75,0,7.77,2.52,7.77,7.94v13.61h-2.94v-13.27c0-4.33-2.14-5.71-5.5-5.71-3.82,0-6.64,2.69-6.64,5.63v13.36h-2.94v-21Z"/><path class="cls-1" d="m839.45,3375.12h-3.36v-5.08c0-3.95.88-5.29,3.4-5.96l.67,1.85c-1.77.67-2.06,1.09-2.06,3.78v.34h1.34v5.08Zm5.92,0h-3.36v-5.08c0-3.95.88-5.29,3.4-5.96l.67,1.85c-1.76.67-2.06,1.09-2.06,3.78v.34h1.34v5.08Z"/><path class="cls-1" d="m854.57,3393.94h-.08l-.76,3.49h-1.97v-32.77h2.94v15.25h.04c1.26-2.31,4.08-4.03,7.69-4.03,6.3,0,9.66,3.99,9.66,11.01s-4.28,11.09-9.87,11.09c-3.78,0-6.55-1.64-7.65-4.03Zm14.37-6.89c0-7.18-3.4-8.61-6.93-8.61-4.24,0-7.56,2.73-7.56,8.44,0,6.01,3.44,8.57,7.44,8.57,3.02,0,7.06-1.47,7.06-8.4Z"/><path class="cls-1" d="m873.34,3373.86c1.77-.67,2.06-1.09,2.06-3.78v-.34h-1.34v-5.08h3.36v5.08c0,3.95-.88,5.29-3.4,5.96l-.67-1.85Zm5.92,0c1.76-.67,2.06-1.09,2.06-3.78v-.34h-1.34v-5.08h3.36v5.08c0,3.95-.88,5.29-3.4,5.96l-.67-1.85Z"/><path class="cls-1" d="m897.62,3391.62c0-3.95,2.23-6.09,7.86-6.09h6.34v-1.72c0-2.98-1.26-5.42-5.46-5.42-3.95,0-5.33,1.51-5.33,4.12v.88h-2.98v-.84c0-5,4.2-6.68,8.32-6.68,5.8,0,8.4,2.86,8.4,8.44v13.11h-2.06l-.55-2.98h-.08c-1.26,1.89-3.7,3.53-7.35,3.53-4.92,0-7.1-2.31-7.1-6.34Zm14.2-1.85v-1.76h-7.01c-2.65,0-4.03.92-4.03,3.61,0,2.35,1.26,3.86,4.49,3.86,4.16,0,6.55-2.14,6.55-5.71Z"/><path class="cls-1" d="m922.11,3376.42h2.6l.29,3.49c1.01-2.14,3.28-4.03,7.35-4.03,4.75,0,7.77,2.52,7.77,7.94v13.61h-2.94v-13.27c0-4.33-2.14-5.71-5.5-5.71-3.82,0-6.64,2.69-6.64,5.63v13.36h-2.94v-21Z"/><path class="cls-1" d="m945.79,3386.96c0-7.1,4.29-11.09,10.04-11.09,3.7,0,6.22,1.6,7.31,3.74h.04v-14.95h2.94v32.77h-1.97l-.67-3.61h-.08c-1.18,2.31-3.95,4.16-7.77,4.16-6.3,0-9.83-3.99-9.83-11.01Zm17.64-.5c0-5.5-3.36-8.07-7.35-8.07-3.11,0-7.14,1.47-7.14,8.4s3.61,8.61,7.14,8.61c4.24,0,7.35-2.73,7.35-8.95Z"/><path class="cls-1" d="m984.81,3375.12h-3.36v-5.08c0-3.95.88-5.29,3.4-5.96l.67,1.85c-1.76.67-2.06,1.09-2.06,3.78v.34h1.34v5.08Zm5.92,0h-3.36v-5.08c0-3.95.88-5.29,3.4-5.96l.67,1.85c-1.76.67-2.06,1.09-2.06,3.78v.34h1.34v5.08Z"/><path class="cls-1" d="m994.39,3391.62c0-3.95,2.23-6.09,7.86-6.09h6.34v-1.72c0-2.98-1.26-5.42-5.46-5.42-3.95,0-5.33,1.51-5.33,4.12v.88h-2.98v-.84c0-5,4.2-6.68,8.32-6.68,5.8,0,8.4,2.86,8.4,8.44v13.11h-2.06l-.54-2.98h-.08c-1.26,1.89-3.7,3.53-7.35,3.53-4.92,0-7.1-2.31-7.1-6.34Zm14.2-1.85v-1.76h-7.01c-2.65,0-4.03.92-4.03,3.61,0,2.35,1.26,3.86,4.5,3.86,4.16,0,6.55-2.14,6.55-5.71Z"/><path class="cls-1" d="m1014.46,3373.86c1.76-.67,2.06-1.09,2.06-3.78v-.34h-1.34v-5.08h3.36v5.08c0,3.95-.88,5.29-3.4,5.96l-.67-1.85Zm5.92,0c1.76-.67,2.06-1.09,2.06-3.78v-.34h-1.34v-5.08h3.36v5.08c0,3.95-.88,5.29-3.4,5.96l-.67-1.85Z"/><line class="cls-7" x1="824.44" y1="3333.43" x2="824.44" y2="3196.92"/><line class="cls-6" x1="949.11" y1="1478.04" x2="1049.67" y2="1478.04"/><polygon class="cls-3" points="972.3 1506.67 977.08 1501.54 951.79 1478.05 977.08 1454.54 972.3 1449.42 941.52 1478.05 972.3 1506.67"/><polygon class="cls-3" points="1026.48 1506.67 1021.7 1501.54 1046.99 1478.05 1021.7 1454.54 1026.48 1449.42 1057.26 1478.05 1026.48 1506.67"/><line class="cls-7" x1="999.39" y1="1644.17" x2="999.39" y2="1501.6"/><path class="cls-1" d="m901.91,1665.62h3.15l17.69,27.6h.04v-27.6h2.94v32.77h-3.07l-17.77-27.94h-.04v27.94h-2.94v-32.77Z"/><path class="cls-1" d="m933.07,1692.58c0-3.95,2.23-6.09,7.86-6.09h6.34v-1.72c0-2.98-1.26-5.42-5.46-5.42-3.95,0-5.33,1.51-5.33,4.12v.88h-2.98v-.84c0-5,4.2-6.68,8.32-6.68,5.8,0,8.4,2.86,8.4,8.44v13.11h-2.06l-.55-2.98h-.08c-1.26,1.89-3.7,3.53-7.35,3.53-4.92,0-7.1-2.31-7.1-6.34Zm14.2-1.85v-1.76h-7.01c-2.65,0-4.03.92-4.03,3.61,0,2.35,1.26,3.86,4.49,3.86,4.16,0,6.55-2.14,6.55-5.71Z"/><path class="cls-1" d="m957.56,1677.38h2.6l.29,3.91c1.01-2.14,3.07-4.45,6.76-4.45,1.26,0,2.18.21,3.02.55v3.15c-1.13-.5-2.1-.76-3.4-.76-3.74,0-6.34,2.81-6.34,5.75v12.85h-2.94v-21Z"/><path class="cls-1" d="m974.86,1677.38h2.61l.29,3.91c1.01-2.14,3.07-4.45,6.76-4.45,1.26,0,2.18.21,3.02.55v3.15c-1.13-.5-2.1-.76-3.4-.76-3.74,0-6.34,2.81-6.34,5.75v12.85h-2.94v-21Z"/><path class="cls-1" d="m989.86,1687.88c0-6.22,3.32-11.05,10.38-11.05,6.59,0,10.25,4.83,10.25,11.05s-3.7,11.05-10.29,11.05c-7.27,0-10.33-4.83-10.33-11.05Zm17.56,0c0-5.33-2.9-8.49-7.23-8.49-4.75,0-7.27,3.15-7.27,8.49s2.56,8.49,7.27,8.49c4.33,0,7.23-3.15,7.23-8.49Z"/><path class="cls-1" d="m1012.79,1677.42v-.04h2.98l5.76,17.47h.08l6.3-17.47h2.69l6.17,17.47h.08l5.76-17.47h2.86v.04l-7.18,20.96h-3.02l-5.96-17.06h-.08l-6.22,17.06h-3.02l-7.18-20.96Z"/><path class="cls-1" d="m1061.64,1676.08h-3.36v-5.08c0-3.95.88-5.29,3.4-5.97l.67,1.85c-1.76.67-2.06,1.09-2.06,3.78v.34h1.34v5.08Zm5.92,0h-3.36v-5.08c0-3.95.88-5.29,3.4-5.97l.67,1.85c-1.76.67-2.06,1.09-2.06,3.78v.34h1.34v5.08Z"/><path class="cls-1" d="m1069.53,1691.95v-1.18h2.94v1.13c0,2.86,2.14,4.5,5.96,4.5s5.8-1.01,5.8-3.78c0-2.06-1.01-2.81-3.87-3.32l-4.62-.84c-3.02-.55-5.54-2.02-5.54-5.5,0-3.15,2.35-6.13,8.4-6.13s8.4,3.02,8.4,7.22v.88h-2.98v-.76c0-3.44-2.14-4.91-5.42-4.91-3.95,0-5.34,1.34-5.34,3.36s1.01,2.86,3.91,3.4l4.03.76c4.12.76,6.09,1.93,6.09,5.59,0,4.58-4.12,6.55-8.78,6.55-7.31,0-8.99-3.28-8.99-6.97Z"/><path class="cls-1" d="m1089.61,1674.82c1.76-.67,2.06-1.09,2.06-3.78v-.34h-1.34v-5.08h3.36v5.08c0,3.95-.88,5.29-3.4,5.97l-.67-1.85Zm5.92,0c1.76-.67,2.06-1.09,2.06-3.78v-.34h-1.34v-5.08h3.36v5.08c0,3.95-.88,5.29-3.4,5.97l-.67-1.85Z"/><polygon class="cls-2" points="794.1 1246.99 807.37 1144.54 853.11 1161.8 794.1 1246.99"/><line class="cls-7" x1="831.85" y1="1140.46" x2="831.85" y2="992.62"/><path class="cls-1" d="m667.29,886.24h8.36c11.05,0,17.39,4.54,17.39,16.42s-6.26,16.34-17.18,16.34h-8.57v-32.77Zm8.65,30.12c9.41,0,14.03-3.74,14.03-13.78s-4.5-13.74-14.07-13.74h-5.67v27.51h5.71Z"/><path class="cls-1" d="m716.61,909.51h-15.96c.17,4.79,2.48,7.48,6.93,7.48,3.82,0,5.67-1.43,5.96-4.83h2.98c-.29,4.24-3.28,7.39-9.03,7.39-7.06,0-9.83-4.66-9.83-10.88s3.23-11.22,10-11.22,8.95,3.99,8.95,10.21v1.85Zm-3.11-2.98c0-4.45-1.72-6.55-5.92-6.55s-6.55,2.65-6.89,6.97h12.81v-.42Z"/><path class="cls-1" d="m739.75,909.51h-15.96c.17,4.79,2.48,7.48,6.93,7.48,3.82,0,5.67-1.43,5.96-4.83h2.98c-.29,4.24-3.28,7.39-9.03,7.39-7.06,0-9.83-4.66-9.83-10.88s3.23-11.22,10-11.22,8.95,3.99,8.95,10.21v1.85Zm-3.11-2.98c0-4.45-1.72-6.55-5.92-6.55s-6.55,2.65-6.89,6.97h12.81v-.42Z"/><path class="cls-1" d="m745.62,898h2.39l.34,3.86h.08c1.13-2.48,4.03-4.41,7.86-4.41,6.3,0,9.66,3.99,9.66,11.01s-4.29,11.09-9.87,11.09c-3.78,0-6.38-1.6-7.44-3.7h-.08v11.55h-2.94v-29.41Zm17.18,10.63c0-7.18-3.4-8.61-6.93-8.61-4.24,0-7.56,2.73-7.56,8.44,0,6.01,3.44,8.57,7.44,8.57,3.02,0,7.06-1.47,7.06-8.4Z"/><path class="cls-1" d="m779.81,908.67c0-6.38,3.23-11.22,10-11.22s8.95,3.91,8.95,8.95v.42h-3.11v-.63c0-3.82-1.64-6.09-5.84-6.09-4.75,0-7.01,3.11-7.01,8.4,0,5.63,2.39,8.49,6.93,8.49,3.82,0,5.84-1.85,5.92-5.67h3.03c-.08,4.66-3.15,8.23-9.03,8.23-7.23,0-9.83-4.75-9.83-10.88Z"/><path class="cls-1" d="m802.95,908.5c0-6.22,3.32-11.05,10.38-11.05,6.59,0,10.25,4.83,10.25,11.05s-3.7,11.05-10.29,11.05c-7.27,0-10.33-4.83-10.33-11.05Zm17.56,0c0-5.33-2.9-8.49-7.23-8.49-4.75,0-7.27,3.15-7.27,8.49s2.56,8.49,7.27,8.49c4.33,0,7.23-3.15,7.23-8.49Z"/><path class="cls-1" d="m829.46,898h2.6l.29,3.49c1.01-2.14,3.28-4.03,7.35-4.03,4.75,0,7.77,2.52,7.77,7.94v13.61h-2.94v-13.27c0-4.33-2.14-5.71-5.5-5.71-3.82,0-6.64,2.69-6.64,5.63v13.36h-2.94v-21Z"/><path class="cls-1" d="m854.82,898h2.6l.29,3.49c1.01-2.14,3.28-4.03,7.35-4.03,4.75,0,7.77,2.52,7.77,7.94v13.61h-2.94v-13.27c0-4.33-2.14-5.71-5.5-5.71-3.82,0-6.64,2.69-6.64,5.63v13.36h-2.94v-21Z"/><path class="cls-1" d="m897.46,909.51h-15.96c.17,4.79,2.48,7.48,6.93,7.48,3.82,0,5.67-1.43,5.96-4.83h2.98c-.29,4.24-3.28,7.39-9.03,7.39-7.06,0-9.83-4.66-9.83-10.88s3.23-11.22,10-11.22,8.95,3.99,8.95,10.21v1.85Zm-3.11-2.98c0-4.45-1.72-6.55-5.92-6.55s-6.55,2.65-6.89,6.97h12.81v-.42Z"/><path class="cls-1" d="m901.65,908.67c0-6.38,3.23-11.22,10-11.22s8.95,3.91,8.95,8.95v.42h-3.11v-.63c0-3.82-1.64-6.09-5.84-6.09-4.75,0-7.01,3.11-7.01,8.4,0,5.63,2.39,8.49,6.93,8.49,3.82,0,5.84-1.85,5.92-5.67h3.03c-.08,4.66-3.15,8.23-9.03,8.23-7.23,0-9.83-4.75-9.83-10.88Z"/><path class="cls-1" d="m937.44,916.31v2.6c-.76.21-2.14.59-4.03.59-3.82,0-6.34-1.6-6.34-6.89v-12.18h-4.16v-2.44h4.16v-6.05l2.94-1.43v7.48h5.92v2.44h-5.92v11.8c0,2.81.76,4.58,3.4,4.58,1.6,0,3.23-.29,4.03-.5Z"/><path class="cls-1" d="m942.27,886.24h2.98v6.51h-2.98v-6.51Zm0,11.76h2.94v21h-2.94v-21Z"/><path class="cls-1" d="m950.92,908.5c0-6.22,3.32-11.05,10.38-11.05,6.59,0,10.25,4.83,10.25,11.05s-3.7,11.05-10.29,11.05c-7.27,0-10.33-4.83-10.33-11.05Zm17.56,0c0-5.33-2.9-8.49-7.23-8.49-4.75,0-7.27,3.15-7.27,8.49s2.56,8.49,7.27,8.49c4.33,0,7.23-3.15,7.23-8.49Z"/><path class="cls-1" d="m977.42,898h2.6l.29,3.49c1.01-2.14,3.28-4.03,7.35-4.03,4.75,0,7.77,2.52,7.77,7.94v13.61h-2.94v-13.27c0-4.33-2.14-5.71-5.5-5.71-3.82,0-6.64,2.69-6.64,5.63v13.36h-2.94v-21Z"/><path class="cls-1" d="m564.39,964.36h-.08l-.76,3.49h-1.97v-32.77h2.94v15.25h.04c1.26-2.31,4.08-4.03,7.69-4.03,6.3,0,9.66,3.99,9.66,11.01s-4.29,11.09-9.87,11.09c-3.78,0-6.55-1.64-7.65-4.03Zm14.37-6.89c0-7.18-3.4-8.61-6.93-8.61-4.24,0-7.56,2.73-7.56,8.44,0,6.01,3.44,8.57,7.44,8.57,3.02,0,7.06-1.47,7.06-8.4Z"/><path class="cls-1" d="m605.05,958.36h-15.96c.17,4.79,2.48,7.48,6.93,7.48,3.82,0,5.67-1.43,5.96-4.83h2.98c-.29,4.24-3.28,7.39-9.03,7.39-7.06,0-9.83-4.66-9.83-10.88s3.23-11.22,10-11.22,8.95,3.99,8.95,10.21v1.85Zm-3.11-2.98c0-4.45-1.72-6.55-5.92-6.55s-6.55,2.65-6.89,6.97h12.81v-.42Z"/><path class="cls-1" d="m621.89,965.16v2.6c-.76.21-2.14.59-4.03.59-3.82,0-6.34-1.6-6.34-6.89v-12.18h-4.16v-2.44h4.16v-6.05l2.94-1.43v7.48h5.92v2.44h-5.92v11.8c0,2.81.76,4.58,3.4,4.58,1.6,0,3.23-.29,4.03-.5Z"/><path class="cls-1" d="m623.99,946.89v-.04h2.98l5.75,17.48h.08l6.3-17.48h2.69l6.18,17.48h.08l5.75-17.48h2.86v.04l-7.18,20.96h-3.02l-5.96-17.06h-.08l-6.22,17.06h-3.02l-7.18-20.96Z"/><path class="cls-1" d="m677.92,958.36h-15.96c.17,4.79,2.48,7.48,6.93,7.48,3.82,0,5.67-1.43,5.96-4.83h2.98c-.29,4.24-3.28,7.39-9.03,7.39-7.06,0-9.83-4.66-9.83-10.88s3.23-11.22,10-11.22,8.95,3.99,8.95,10.21v1.85Zm-3.11-2.98c0-4.45-1.72-6.55-5.92-6.55s-6.55,2.65-6.89,6.97h12.81v-.42Z"/><path class="cls-1" d="m701.07,958.36h-15.96c.17,4.79,2.48,7.48,6.93,7.48,3.82,0,5.67-1.43,5.96-4.83h2.98c-.29,4.24-3.28,7.39-9.03,7.39-7.06,0-9.83-4.66-9.83-10.88s3.23-11.22,10-11.22,8.95,3.99,8.95,10.21v1.85Zm-3.11-2.98c0-4.45-1.72-6.55-5.92-6.55s-6.55,2.65-6.89,6.97h12.81v-.42Z"/><path class="cls-1" d="m706.94,946.85h2.6l.29,3.49c1.01-2.14,3.28-4.03,7.35-4.03,4.75,0,7.77,2.52,7.77,7.94v13.61h-2.94v-13.27c0-4.33-2.14-5.71-5.5-5.71-3.82,0-6.64,2.69-6.64,5.63v13.36h-2.94v-21Z"/><path class="cls-1" d="m740.08,961.42v-1.18h2.94v1.13c0,2.86,2.14,4.5,5.96,4.5s5.8-1.01,5.8-3.78c0-2.06-1.01-2.81-3.86-3.32l-4.62-.84c-3.02-.55-5.54-2.02-5.54-5.5,0-3.15,2.35-6.13,8.4-6.13s8.4,3.02,8.4,7.23v.88h-2.98v-.76c0-3.44-2.14-4.91-5.42-4.91-3.95,0-5.33,1.34-5.33,3.36s1.01,2.86,3.91,3.4l4.03.76c4.12.76,6.09,1.93,6.09,5.59,0,4.58-4.12,6.55-8.78,6.55-7.31,0-8.99-3.28-8.99-6.97Z"/><path class="cls-1" d="m774.69,965.16v2.6c-.76.21-2.14.59-4.03.59-3.82,0-6.34-1.6-6.34-6.89v-12.18h-4.16v-2.44h4.16v-6.05l2.94-1.43v7.48h5.92v2.44h-5.92v11.8c0,2.81.76,4.58,3.4,4.58,1.6,0,3.23-.29,4.03-.5Z"/><path class="cls-1" d="m796.15,958.36h-15.96c.17,4.79,2.48,7.48,6.93,7.48,3.82,0,5.67-1.43,5.96-4.83h2.98c-.29,4.24-3.28,7.39-9.03,7.39-7.06,0-9.83-4.66-9.83-10.88s3.23-11.22,10-11.22,8.95,3.99,8.95,10.21v1.85Zm-3.11-2.98c0-4.45-1.72-6.55-5.92-6.55s-6.55,2.65-6.89,6.97h12.81v-.42Z"/><path class="cls-1" d="m832.74,954.24v13.61h-2.94v-13.27c0-4.33-2.14-5.71-4.75-5.71-3.82,0-6.18,2.69-6.18,5.63v13.36h-2.94v-13.27c0-4.33-1.85-5.71-4.83-5.71-3.61,0-6.13,2.69-6.13,5.63v13.36h-2.94v-21h2.6l.29,3.49c1.01-2.02,3.07-4.03,6.93-4.03,2.94,0,5.38,1.39,6.43,4.28,1.22-2.39,3.57-4.28,7.14-4.28,4.28,0,7.31,2.52,7.31,7.94Z"/><path class="cls-1" d="m848.48,962.05c0-3.95,2.23-6.09,7.86-6.09h6.34v-1.72c0-2.98-1.26-5.42-5.46-5.42-3.95,0-5.33,1.51-5.33,4.12v.88h-2.98v-.84c0-5,4.2-6.68,8.32-6.68,5.8,0,8.4,2.86,8.4,8.44v13.11h-2.06l-.55-2.98h-.08c-1.26,1.89-3.7,3.53-7.35,3.53-4.92,0-7.1-2.31-7.1-6.34Zm14.2-1.85v-1.76h-7.02c-2.65,0-4.03.92-4.03,3.61,0,2.35,1.26,3.86,4.5,3.86,4.16,0,6.55-2.14,6.55-5.71Z"/><path class="cls-1" d="m872.97,946.85h2.6l.29,3.49c1.01-2.14,3.28-4.03,7.35-4.03,4.75,0,7.77,2.52,7.77,7.94v13.61h-2.94v-13.27c0-4.33-2.14-5.71-5.5-5.71-3.82,0-6.64,2.69-6.64,5.63v13.36h-2.94v-21Z"/><path class="cls-1" d="m896.66,957.39c0-7.1,4.28-11.09,10.04-11.09,3.7,0,6.22,1.6,7.31,3.74h.04v-14.95h2.94v32.77h-1.97l-.67-3.61h-.08c-1.18,2.31-3.95,4.16-7.77,4.16-6.3,0-9.83-3.99-9.83-11.01Zm17.64-.5c0-5.5-3.36-8.07-7.35-8.07-3.11,0-7.14,1.47-7.14,8.4s3.61,8.61,7.14,8.61c4.24,0,7.35-2.73,7.35-8.95Z"/><path class="cls-1" d="m932.1,961.42v-1.18h2.94v1.13c0,2.86,2.14,4.5,5.96,4.5s5.8-1.01,5.8-3.78c0-2.06-1.01-2.81-3.87-3.32l-4.62-.84c-3.02-.55-5.54-2.02-5.54-5.5,0-3.15,2.35-6.13,8.4-6.13s8.4,3.02,8.4,7.23v.88h-2.98v-.76c0-3.44-2.14-4.91-5.42-4.91-3.95,0-5.33,1.34-5.33,3.36s1.01,2.86,3.91,3.4l4.03.76c4.12.76,6.09,1.93,6.09,5.59,0,4.58-4.12,6.55-8.78,6.55-7.31,0-8.99-3.28-8.99-6.97Z"/><path class="cls-1" d="m955.75,935.08h2.94v15.16c1.05-2.1,3.28-3.95,7.31-3.95,4.75,0,7.77,2.52,7.77,7.94v13.61h-2.94v-13.27c0-4.33-2.14-5.71-5.5-5.71-3.82,0-6.64,2.69-6.64,5.63v13.36h-2.94v-32.77Z"/><path class="cls-1" d="m979.44,957.35c0-6.22,3.32-11.05,10.38-11.05,6.6,0,10.25,4.83,10.25,11.05s-3.7,11.05-10.29,11.05c-7.27,0-10.33-4.83-10.33-11.05Zm17.56,0c0-5.33-2.9-8.49-7.23-8.49-4.75,0-7.27,3.15-7.27,8.49s2.56,8.49,7.27,8.49c4.33,0,7.23-3.15,7.23-8.49Z"/><path class="cls-1" d="m1005.52,960.46v-13.61h2.94v13.27c0,4.33,2.14,5.71,5.42,5.71,3.74,0,6.55-2.69,6.55-5.63v-13.36h2.94v21h-2.6l-.25-3.36h-.08c-.97,2.02-3.23,3.91-7.23,3.91-4.66,0-7.69-2.52-7.69-7.94Z"/><path class="cls-1" d="m1030.72,935.08h2.94v32.77h-2.94v-32.77Z"/><path class="cls-1" d="m1039.33,957.39c0-7.1,4.29-11.09,10.04-11.09,3.7,0,6.22,1.6,7.31,3.74h.04v-14.95h2.94v32.77h-1.97l-.67-3.61h-.08c-1.18,2.31-3.95,4.16-7.77,4.16-6.3,0-9.83-3.99-9.83-11.01Zm17.64-.5c0-5.5-3.36-8.07-7.35-8.07-3.11,0-7.14,1.47-7.14,8.4s3.61,8.61,7.14,8.61c4.24,0,7.35-2.73,7.35-8.95Z"/><path class="cls-1" d="m1084.27,958.36h-15.96c.17,4.79,2.48,7.48,6.93,7.48,3.82,0,5.67-1.43,5.96-4.83h2.98c-.29,4.24-3.28,7.39-9.03,7.39-7.06,0-9.83-4.66-9.83-10.88s3.23-11.22,10-11.22,8.95,3.99,8.95,10.21v1.85Zm-3.11-2.98c0-4.45-1.72-6.55-5.92-6.55s-6.55,2.65-6.89,6.97h12.81v-.42Z"/><path class="cls-1" d="m1090.15,946.85h2.6l.29,3.91c1.01-2.14,3.07-4.45,6.76-4.45,1.26,0,2.18.21,3.02.55v3.15c-1.13-.5-2.1-.76-3.4-.76-3.74,0-6.34,2.81-6.34,5.75v12.85h-2.94v-21Z"/></g></svg>