<?xml version="1.0" encoding="UTF-8"?><svg xmlns="http://www.w3.org/2000/svg" viewBox="0 0 1920 3470"><defs><style>.cls-1{fill:#fff;}.cls-2{fill:#937fbb;}.cls-3{fill:#171c32;}.cls-4{fill:#947fbb;}.cls-5{stroke-width:4px;}.cls-5,.cls-6{stroke:#a797c9;stroke-linecap:round;}.cls-5,.cls-6,.cls-7{fill:none;stroke-miterlimit:10;}.cls-6{stroke-dasharray:0 0 1.74 17.45;stroke-width:7px;}.cls-7{stroke:#57678b;stroke-width:3.5px;}</style></defs><g id="Background"><rect class="cls-3" width="1920" height="3470"/></g><g id="Horizontal_Guides"><line class="cls-7" y1="204.72" x2="1920" y2="204.72"/><line class="cls-7" y1="347.48" x2="1920" y2="347.48"/><line class="cls-7" x1="1920" y1="537.63" y2="537.63"/><line class="cls-7" y1="684.86" x2="1920" y2="684.86"/><line class="cls-7" y1="1035.2" x2="1920" y2="1035.2"/><line class="cls-7" y1="1177.96" x2="1920" y2="1177.96"/><line class="cls-7" x1="1920" y1="1368.11" y2="1368.11"/><line class="cls-7" y1="1515.34" x2="1920" y2="1515.34"/><line class="cls-7" y1="1865.34" x2="1920" y2="1865.34"/><line class="cls-7" y1="2008.1" x2="1920" y2="2008.1"/><line class="cls-7" x1="1920" y1="2198.25" y2="2198.25"/><line class="cls-7" y1="2345.48" x2="1920" y2="2345.48"/><line class="cls-7" y1="2695.93" x2="1920" y2="2695.93"/><line class="cls-7" y1="2838.69" x2="1920" y2="2838.69"/><line class="cls-7" x1="1920" y1="3028.84" y2="3028.84"/><line class="cls-7" y1="3176.07" x2="1920" y2="3176.07"/></g><g id="Layer_1"><circle class="cls-2" cx="1509.67" cy="2849.02" r="60.31"/><polygon class="cls-4" points="860.38 684.68 912.72 684.68 1003.65 202.82 951.32 202.82 860.38 684.68"/><path class="cls-2" d="m403.38,539.27c-4.39,0-8.04-4.02-8.04-8.41,0-1.83.37-3.29,1.1-4.75l108.92-167.04,68.35-105.26c14.62-22.3,2.92-33.63-10.6-33.63-9.87,0-20.1,6.58-23.03,21.93l-42.4,233.19c-6.58,35.45,1.83,47.88,9.5,47.88,17.18,0,33.26-23.76,39.11-47.15.73-3.29,4.02-6.21,8.04-6.21,5.11,0,9.13,5.12,8.04,10.23-7.31,28.51-27.78,59.58-55.19,59.58-19.38,0-34.36-20.83-25.59-67.25l42.4-233.19c4.39-24.85,22.66-35.45,39.11-35.45,24.85,0,47.15,24.12,24.49,58.85l-68.35,105.26-108.92,167.77c-1.46,2.19-4.02,3.66-6.95,3.66Z"/><path class="cls-2" d="m647.17,391.61c4.75,0,8.4,3.66,8.4,8.04,0,1.83-.73,3.65-1.83,5.12l-101.97,142.18c-21.56,30.7-63.6,82.97-68.71,95.03-6.21,13.52,2.92,25.95,12.79,25.95,9.14,0,22.66-11.33,28.51-49.71l40.94-264.26,16.08,2.19-40.94,264.26c-7.31,47.15-26.32,63.96-44.59,63.96-20.83,0-38.74-23.76-28.14-48.98,6.58-14.26,49.34-67.99,70.91-97.96l101.98-142.55c1.46-1.83,4.02-3.29,6.58-3.29Z"/><path class="cls-1" d="m713.33,479.69c4.75,0,8.4,3.66,8.4,8.41,0,1.46-.73,2.92-1.1,4.02-20.47,34.72-43.49,47.52-58.84,47.52-25.59,0-37.65-32.89-37.65-71.27,0-63.23,31.43-121.71,92.47-121.71,5.84,0,10.96.73,16.08,1.46,3.66.73,6.95,4.02,6.95,8.04,0,5.48-5.12,9.14-9.5,8.41s-8.77-1.46-13.52-1.46c-49.34,0-76.03,48.61-76.03,105.26,0,32.89,9.14,54.82,21.2,54.82,9.5,0,27.41-10.23,44.59-39.47,1.46-2.19,4.02-4.02,6.95-4.02Z"/><path class="cls-1" d="m793.01,470.19c4.75,0,8.41,3.65,8.41,8.41,0,1.46-.73,3.29-1.46,4.75-14.25,19.37-43.49,56.29-66.16,56.29-20.47,0-31.8-23.03-27.05-56.65l17.54-126.47c.37-4.02,4.02-6.94,8.04-6.94,5.48,0,8.77,4.39,8.41,9.14l-17.91,126.46c-3.29,25.22,3.29,38.01,10.97,38.01,13.16,0,39.11-31.07,52.63-49.71,1.46-1.83,4.02-3.29,6.58-3.29Z"/><path class="cls-1" d="m966.26,370.41c4.75,0,8.41,3.66,8.41,8.04,0,1.83-.73,3.65-1.83,5.12l-72.37,100.15c-24.85,34.72-46.42,55.92-69.45,55.92-25.59,0-42.03-22.66-45.32-67.62-6.21-81.14,29.6-124.27,62.13-124.27,15.72,0,27.05,9.87,27.05,24.85,0,27.41-41.3,78.58-73.47,111.48-1.46,1.46-3.29,2.56-5.85,2.56-4.39,0-8.04-3.65-8.04-8.04,0-2.56.73-4.39,2.19-5.85,31.43-32.53,68.71-80.41,68.71-100.15,0-5.48-4.02-8.41-10.6-8.41-21.93,0-51.54,35.09-46.05,106.36,3.29,37.28,14.25,52.63,29.24,52.63s32.16-15.72,56.28-48.98l72.37-100.51c1.46-1.83,4.02-3.29,6.58-3.29Z"/><path class="cls-1" d="m968.08,389.78c-4.39,0-8.04-3.66-8.04-8.41,0-1.83.37-3.29,1.46-4.75l79.68-119.89c16.81-25.59.73-36.55-14.62-36.55-12.79,0-24.12,6.94-27.04,21.93l-42.4,233.19c-6.58,35.45,2.56,47.88,9.14,47.88,15.35,0,48.61-52.63,94.3-116.96,1.46-1.83,4.02-3.29,6.58-3.29,4.75,0,8.4,3.66,8.4,8.41,0,1.46-.73,3.29-1.46,4.75-45.32,63.6-80.77,123.54-107.82,123.54-18.64,0-33.99-20.47-25.22-67.25l42.4-233.19c4.39-24.49,24.49-35.45,43.13-35.45,28.14,0,52.63,24.85,28.51,61.77l-80.04,120.62c-1.46,2.19-4.02,3.66-6.95,3.66Z"/><path class="cls-1" d="m1138.77,479.69c4.75,0,8.4,3.66,8.4,8.41,0,1.46-.73,2.92-1.1,4.02-20.47,34.72-43.49,47.52-58.84,47.52-25.59,0-37.65-32.89-37.65-71.27,0-63.23,31.43-121.71,92.47-121.71,5.85,0,10.97.73,16.09,1.46,3.66.73,6.94,4.02,6.94,8.04,0,5.48-5.11,9.14-9.5,8.41s-8.77-1.46-13.53-1.46c-49.34,0-76.02,48.61-76.02,105.26,0,32.89,9.13,54.82,21.2,54.82,9.5,0,27.41-10.23,44.59-39.47,1.46-2.19,4.02-4.02,6.95-4.02Z"/><path class="cls-1" d="m1266.33,388.32c4.75,0,8.41,3.65,8.41,8.04,0,1.83-.73,3.66-1.46,4.75-9.5,13.16-18.64,27.41-28.14,41.3-32.17,46.78-62.87,97.22-87.72,97.22-14.99,0-30.7-19.01-25.22-56.65l17.54-126.47c.37-4.02,4.02-6.94,8.04-6.94,5.48,0,8.77,4.39,8.4,9.14l-17.91,126.46c-3.66,25.95,5.12,38.01,9.14,38.01,13.16,0,41.67-42.4,73.83-90.28,9.5-13.89,19.01-28.14,28.51-41.3,1.46-1.83,4.02-3.29,6.58-3.29Z"/><path class="cls-1" d="m1420.21,387.95c4.75,0,8.4,3.65,8.4,8.41,0,1.46-.73,3.29-1.46,4.75l-97.59,138.89c-5.11,6.94-6.21,10.96-13.52,19.01-23.03,28.51-50.81,70.54-56.29,82.97-6.21,13.52,2.92,25.95,12.79,25.95,9.13,0,22.66-11.33,28.51-49.71l39.84-260.6c.37-4.02,4.02-6.94,8.04-6.94,5.11,0,8.77,4.75,8.04,9.14l-39.84,260.6c-7.31,47.15-26.32,63.96-44.59,63.96-20.83,0-38.74-23.76-28.14-48.98,6.21-13.89,35.46-57.39,59.21-86.62,5.48-6.58,5.84-9.14,12.79-18.27l97.22-139.26c1.46-1.83,4.02-3.29,6.58-3.29Z"/><path class="cls-1" d="m1329.2,474.57c4.39,0,8.04,3.66,8.04,8.41,0,1.46-.37,2.92-1.1,4.02-20.1,33.63-39.47,52.63-58.11,52.63-21.93,0-35.82-24.12-35.82-71.27,0-63.23,29.97-121.71,91.01-121.71,5.85,0,11.33.73,16.82,1.46,3.65.73,6.94,4.02,6.94,8.04,0,5.48-5.11,9.14-9.5,8.41-4.75-.73-9.14-1.46-14.26-1.46-49.34,0-74.56,48.61-74.56,105.26,0,39.11,9.5,54.82,19.38,54.82,10.6,0,25.95-14.26,44.23-44.59,1.1-2.56,4.02-4.02,6.94-4.02Z"/><path class="cls-1" d="m511.35,1368.92c-5.12,0-8.77-5.12-8.04-9.5l30.33-172.88c.37-2.19,13.89,3.29,5.85.73l6.21,5.48-129.02,138.89c-1.46,1.83-3.66,2.92-5.84,2.92-4.75,0-8.41-3.66-8.41-8.41,0-2.19,1.1-4.02,2.19-5.48l127.56-137.79h.37c5.48-9.5,19.01-4.75,17.18,6.58l-29.97,172.52c-.73,3.66-4.02,6.95-8.41,6.95Z"/><path class="cls-1" d="m657.55,1239.9c-36.18-23.76-53-39.11-81.87-39.11-10.24,0-25.59,7.68-33.63,14.99l-10.97-12.43c10.24-9.5,29.97-19.01,44.6-19.01,35.45,0,55.92,18.64,90.64,41.67l-8.77,13.89Z"/><path class="cls-1" d="m805.21,1300.94c-18.64,23.39-78.58,68.35-114.77,68.35s-47.52-42.4-47.52-79.68c0-47.15,15.35-112.21,59.21-112.21,21.93,0,30.34,16.45,30.34,27.41,0,39.11-39.11,52.27-73.83,35.09v-18.64c27.78,17.91,57.39,10.96,57.39-16.45,0-5.12-3.66-10.96-13.89-10.96-29.24,0-42.76,52.63-42.76,95.76,0,33.63,7.68,63.23,31.07,63.23,24.85,0,69.45-29.6,92.47-51.9h22.3Z"/><path class="cls-1" d="m942.64,1225.28c4.39,0,8.04,3.66,8.04,8.04,0,1.83-.37,3.66-1.46,5.12l-55.56,74.93c-25.59,34.72-46.05,55.92-69.45,55.92-25.59,0-42.03-22.66-45.32-67.62-6.21-81.14,29.61-124.27,62.13-124.27,15.72,0,27.05,9.87,27.05,24.85,0,27.41-41.3,78.58-73.47,111.48-1.46,1.46-3.29,2.56-5.85,2.56-4.38,0-8.04-3.65-8.04-8.04,0-2.56.73-4.39,2.19-5.85,31.43-32.53,68.71-80.41,68.71-100.15,0-5.48-4.02-8.41-10.6-8.41-21.93,0-51.54,35.09-46.05,106.36,3.29,37.28,14.26,52.63,29.24,52.63s32.17-16.45,56.28-48.98l55.56-75.29c1.46-2.19,4.02-3.29,6.58-3.29Z"/><path class="cls-1" d="m1009.16,1315.19c5.12,0,9.14,5.48,7.68,10.6-8.04,29.24-31.43,43.5-53.36,43.5-33.26,0-48.61-31.07-48.61-65.43,0-52.63,34.72-126.1,105.27-126.1,1.82,0,4.02,0,5.84.37,4.39,0,8.04,3.66,8.04,8.04,0,4.75-3.66,8.41-8.41,8.41-1.83-.37-3.66-.37-5.48-.37-58.85,0-88.82,62.87-88.82,109.65,0,28.14,10.6,48.98,32.17,48.98,15.35,0,31.8-9.87,37.65-31.43,1.1-3.66,4.02-6.21,8.04-6.21Z"/><path class="cls-1" d="m1047.54,1094.79c5.12,0,8.77,5.12,8.04,9.5l-39.11,224.78c-1.1,6.95,0,23.76,6.21,23.76,8.41,0,16.09-8.41,20.84-14.62l82.97-114.4c1.46-2.19,4.02-3.29,6.58-3.29,4.75,0,8.4,3.66,8.4,8.04,0,1.83-.73,3.65-1.83,5.12l-82.97,114.04c-5.48,7.67-17.54,21.56-33.99,21.56-21.93,0-24.49-29.97-22.3-43.13l38.75-224.42c.73-3.66,4.02-6.95,8.4-6.95Zm63.6,198.47c0-69.81,39.84-115.86,76.02-115.86,27.41,0,50.07,26.32,50.07,78.95,0,47.15-26.68,112.94-75.29,112.94-31.43,0-50.8-27.41-50.8-76.03Zm109.65-36.92c0-43.13-16.45-62.5-33.63-62.5-25.95,0-59.57,38.38-59.57,99.42,0,39.84,13.16,59.58,34.35,59.58,35.46,0,58.85-54.46,58.85-96.49Z"/><path class="cls-1" d="m1342.13,1178.13c4.39,0,8.04,4.02,8.04,8.41,0,1.46-.37,2.92-1.1,4.02-20.83,39.11-47.88,57.38-80.41,57.38-19.74,0-38.74-10.96-53.73-31.07-.73-1.46-1.46-2.92-1.46-4.75,0-4.75,3.66-8.41,8.04-8.41,2.92,0,5.12,1.46,6.95,3.29,12.06,16.45,26.31,24.49,40.2,24.49,25.95,0,47.52-14.62,66.16-48.98,1.46-2.56,4.02-4.39,7.31-4.39Z"/><path class="cls-1" d="m1312.89,1368.92c-5.12,0-8.77-5.12-8.04-9.5l29.61-173.62c.73-4.02,4.02-7.31,8.41-7.31,5.12,0,8.77,5.12,8.04,9.5l-29.6,173.61c-.73,4.02-4.02,7.31-8.41,7.31Z"/><path class="cls-1" d="m1406.83,1368.92c-5.12,0-8.77-5.12-8.04-9.5l22.66-133.41c2.92-19.01-10.6-32.53-27.77-32.53-14.62,0-33.26,10.96-48.98,29.97-1.46,1.83-3.66,2.92-6.21,2.92-4.75,0-8.41-3.66-8.41-8.41,0-1.83.73-3.66,1.83-5.12,18.64-21.93,41.67-35.82,61.77-35.82,25.95,0,48.97,21.93,43.86,51.9l-22.3,132.68c-.73,4.02-4.02,7.31-8.41,7.31Z"/><path class="cls-1" d="m1622.84,1217.6c4.75,0,8.4,3.65,8.4,8.04,0,1.83-.73,3.66-1.83,5.12l-79.68,110.01c-12.43,17.55-23.39,28.51-34.36,28.51-22.3,0-25.95-23.39-19.01-62.14l11.33-65.06c6.21-35.45-6.58-48.25-22.3-48.25-16.82,0-37.28,13.52-47.88,35.09-1.1,2.92-4.02,4.75-7.31,4.75-4.39,0-8.41-3.65-8.41-8.41,0-1.1.37-2.19,1.1-3.29,13.16-27.41,39.48-44.59,62.5-44.59,25.22,0,46.78,20.47,38.38,67.62l-11.33,65.06c-5.11,28.14-4.02,42.76,2.92,42.76,2.92,0,10.97-7.67,21.2-21.56l79.68-110.38c1.46-2.19,4.02-3.29,6.58-3.29Z"/><path class="cls-1" d="m584.45,2199.62c-5.12,0-8.77-5.12-8.04-9.5l30.34-172.88c.37-2.19,13.89,3.29,5.85.73l6.58,4.75-103.8,138.52c-1.46,2.19-4.02,3.29-6.58,3.29-4.39,0-8.04-3.66-8.04-8.04,0-1.83.37-3.65,1.46-5.12l103.43-137.79c5.48-9.5,19.01-4.75,17.18,6.58l-29.97,172.52c-.73,3.66-4.02,6.95-8.41,6.95Z"/><path class="cls-1" d="m761.71,2011.02c4.39,0,8.04,3.66,8.04,8.41,0,1.1,0,2.19-.73,3.29-11.69,27.05-22.66,47.88-41.67,47.88-30.7,0-40.94-45.69-68.71-45.69-11.33,0-26.32,7.31-40.2,22.66-1.46,1.46-3.66,2.56-6.21,2.56-4.39,0-8.04-3.66-8.04-8.04,0-2.19.73-4.38,2.19-5.85,16.81-18.28,35.82-27.78,52.27-27.78,36.18,0,50.07,45.69,68.71,45.69,8.04,0,15.72-13.16,26.68-38.38,1.46-2.56,4.39-4.75,7.67-4.75Z"/><path class="cls-1" d="m831.89,2132.73c6.58,0,9.5,6.21,7.68,10.96-17.91,48.98-45.69,56.29-64.33,56.29-23.76,0-43.86-13.52-37.28-61.4l16.45-122.44c.37-4.02,4.02-6.94,8.04-6.94,5.48,0,8.77,4.39,8.41,9.14l-16.81,122.44c-4.39,34.72,5.12,42.76,21.2,42.76,14.62,0,34.35-5.85,48.98-45.69,1.1-2.92,4.39-5.12,7.67-5.12Z"/><path class="cls-1" d="m819.83,1953.64c-4.75,0-8.41-3.66-8.41-8.41,0-2.19,1.1-4.02,2.19-5.48l40.57-43.49c1.46-1.46,3.66-2.56,5.85-2.56,4.75,0,8.41,3.66,8.41,8.41,0,2.19-1.1,4.02-2.19,5.48l-40.57,43.49c-1.46,1.46-3.66,2.56-5.85,2.56Z"/><path class="cls-1" d="m984.67,2009.19c4.39,0,8.04,3.66,8.04,8.41,0,1.46-.37,3.29-1.46,4.39-33.63,48.98-66.16,96.49-99.05,144.01-17.18,24.85-31.07,33.99-44.23,33.99-21.2,0-27.78-29.61-24.12-56.65l17.54-127.2c.37-4.02,4.02-6.94,8.04-6.94,5.48,0,8.77,4.39,8.4,9.14l-17.91,127.19c-2.56,19.37,1.83,38.01,8.04,38.01,6.58,0,16.08-5.85,31.06-27.05,32.53-47.15,65.06-94.66,98.69-143.64,1.46-2.19,4.02-3.66,6.95-3.66Z"/><path class="cls-1" d="m926.92,2344.36c-5.48,0-9.13-5.12-8.4-9.87l58.48-318.35c.73-3.65,4.02-6.94,8.04-6.94,5.48,0,9.14,5.12,8.41,9.87l-58.48,318.35c-.73,3.66-4.02,6.94-8.04,6.94Z"/><path class="cls-1" d="m1041.32,2008.1c41.31,0,59.21,41.67,59.21,84.07,0,65.06-37.65,107.82-74.93,107.82-40.57,0-72.37-56.29-61.04-113.67,12.06-60.67,52.27-78.22,76.75-78.22Z"/><path class="cls-1" d="m1025.61,2183.54c27.05,0,58.48-35.09,58.48-91.38,0-36.55-13.89-67.62-42.77-67.62-19.37,0-50.8,14.26-60.67,64.69-9.87,48.61,16.81,94.3,44.96,94.3Z"/><path class="cls-1" d="m1019.76,2191.94c0-4.75,3.66-8.41,8.04-8.41,58.12-1.1,80.05-18.27,102.71-50.07l58.48-83.33c1.46-1.83,4.02-3.29,6.58-3.29,4.75,0,8.41,3.66,8.41,8.41,0,1.46-.73,3.29-1.46,4.75l-58.85,82.97c-24.49,35.09-50.81,55.56-115.5,57.02-4.75,0-8.41-3.66-8.41-8.04Z"/><path class="cls-1" d="m1258.8,2140.04c4.75,0,8.41,3.66,8.41,8.41,0,1.46-.73,2.92-1.1,4.02-20.47,34.72-43.49,47.52-58.85,47.52-25.59,0-37.65-32.89-37.65-71.27,0-63.23,31.43-121.71,92.47-121.71,5.85,0,10.97.73,16.08,1.46,3.66.73,6.95,4.02,6.95,8.04,0,5.48-5.12,9.14-9.5,8.41-4.38-.73-8.77-1.46-13.52-1.46-49.34,0-76.03,48.61-76.03,105.26,0,32.89,9.14,54.82,21.2,54.82,9.5,0,27.41-10.23,44.59-39.47,1.46-2.19,4.02-4.02,6.95-4.02Z"/><path class="cls-1" d="m1413.77,2009.92c4.75,0,8.4,3.66,8.4,8.04,0,1.83-.73,3.66-1.83,5.12l-110.75,155.34c-10.24,14.62-21.56,21.56-32.17,21.56-14.62,0-30.7-19.01-25.22-56.65l17.55-126.47c.37-4.02,4.02-6.94,8.04-6.94,5.48,0,8.77,4.39,8.41,9.14l-17.91,126.46c-3.66,25.95,5.48,38.01,9.13,38.01,4.39,0,11.33-4.02,19.01-14.62l110.75-155.7c1.46-1.83,4.02-3.29,6.58-3.29Z"/><path class="cls-1" d="m1414.87,2009.19c5.11,0,8.4,4.39,8.04,8.77l-16.45,141.45c-1.46,15.72,2.56,24.12,8.04,24.12,4.38,0,11.33-4.38,19.01-14.62l84.06-116.96c1.46-1.83,4.02-3.29,6.58-3.29,4.75,0,8.41,3.65,8.41,8.04,0,1.83-.73,3.66-1.83,5.12l-84.07,116.6c-9.13,13.16-20.47,21.56-32.16,21.56-16.09,0-27.05-15.72-24.12-42.77l16.08-140.72c.37-4.38,4.02-7.31,8.41-7.31Z"/><path class="cls-1" d="m1410.85,1953.64c-4.75,0-8.41-3.66-8.41-8.41,0-2.19,1.1-4.02,2.19-5.48l40.57-43.49c1.46-1.46,3.66-2.56,5.85-2.56,4.75,0,8.41,3.66,8.41,8.41,0,2.19-1.1,4.02-2.19,5.48l-40.57,43.49c-1.46,1.46-3.65,2.56-5.84,2.56Z"/><path class="cls-2" d="m226.98,2693.36c23.76,0,44.23,23.39,44.23,92.84,0,116.96-55.92,239.77-105.26,239.77-27.78,0-47.52-34.36-47.52-103.07,0-120.61,59.94-229.53,108.55-229.53Zm-61.04,316.16c34.72,0,88.82-112.21,88.82-223.32,0-59.58-14.98-76.39-27.78-76.39-34.72,0-92.11,98.69-92.11,213.09,0,60.68,15.72,86.63,31.07,86.63Z"/><path class="cls-1" d="m364.78,2841.02c4.75,0,8.41,3.66,8.41,8.41,0,1.46-.73,3.29-1.46,4.75l-119.52,171.06c-1.46,2.19-4.02,3.66-6.58,3.66-4.75,0-8.4-3.66-8.4-8.41,0-1.46.73-3.29,1.46-4.75l119.52-171.05c1.46-2.19,4.02-3.66,6.58-3.66Z"/><path class="cls-1" d="m308.13,3173.99c-5.48,0-9.14-5.12-8.41-9.87l58.48-318.35c.73-3.65,4.02-6.94,8.04-6.94,5.48,0,9.14,5.12,8.41,9.87l-58.48,318.35c-.73,3.66-4.02,6.95-8.04,6.95Z"/><path class="cls-1" d="m422.53,2837.73c41.3,0,59.21,41.67,59.21,84.06,0,65.06-37.65,107.83-74.93,107.83-40.57,0-72.37-56.29-61.04-113.67,12.06-60.68,52.27-78.22,76.76-78.22Zm-15.72,175.44c27.05,0,58.48-35.09,58.48-91.38,0-36.55-13.89-67.62-42.76-67.62-19.37,0-50.81,14.26-60.68,64.7-9.87,48.61,16.82,94.3,44.96,94.3Z"/><path class="cls-1" d="m404.26,3021.58c0-4.75,3.65-8.4,8.04-8.4,55.19-1.1,63.23-16.45,86.99-50.07l85.53-122.81c1.46-2.19,4.02-3.66,6.58-3.66,4.75,0,8.4,3.66,8.4,8.41,0,1.46-.73,3.29-1.46,4.75l-85.89,122.81c-22.66,32.9-34.72,55.56-99.78,57.02-4.75,0-8.4-3.66-8.4-8.04Z"/><path class="cls-1" d="m660.11,2800.08c0,4.39-4.02,8.04-8.41,8.04h-98.69c-4.39,0-8.04-3.66-8.04-8.04s3.65-8.41,8.04-8.41h98.69c4.39,0,8.41,4.02,8.41,8.41Z"/><path class="cls-1" d="m606.74,2746.35c5.12,0,8.77,5.12,8.04,9.5l-37.28,233.56c-2.56,14.98,3.29,23.76,8.04,23.76,4.39,0,11.33-4.02,19.01-14.62l111.11-155.34c1.46-1.83,4.02-3.29,6.58-3.29,4.75,0,8.41,3.66,8.41,8.04,0,1.83-.73,3.65-1.83,5.11l-111.12,154.98c-10.23,14.62-21.56,21.56-32.16,21.56-15.35,0-28.51-16.81-24.12-43.13l37.28-232.83c.37-4.02,3.66-7.31,8.04-7.31Z"/><path class="cls-1" d="m722.97,2838.83c5.12,0,8.41,4.39,8.04,8.77l-16.45,141.45c-1.46,15.72,2.56,24.12,8.04,24.12,4.39,0,11.33-4.39,19.01-14.62l112.57-155.34c1.46-2.19,4.02-3.29,6.58-3.29,4.75,0,8.41,3.66,8.41,8.04,0,1.83-.73,3.65-1.83,5.11l-112.57,154.98c-9.14,13.16-20.47,21.56-32.17,21.56-16.08,0-27.05-15.72-24.12-42.76l16.08-140.72c.37-4.38,4.02-7.31,8.41-7.31Z"/><path class="cls-1" d="m722.24,2753.3c0-6.21,4.39-10.96,10.97-10.96,6.21,0,10.96,4.75,10.96,10.96,0,6.58-4.75,10.96-10.96,10.96-6.58,0-10.97-4.38-10.97-10.96Z"/><path class="cls-1" d="m831.52,3029.25c-5.11,0-8.77-5.12-8.04-9.5l29.6-173.62c.73-4.02,4.02-7.31,8.41-7.31,5.12,0,8.77,5.12,8.04,9.5l-29.61,173.61c-.73,4.02-4.02,7.31-8.41,7.31Z"/><path class="cls-1" d="m925.46,3029.25c-5.11,0-8.77-5.12-8.04-9.5l22.66-133.41c2.92-19.01-10.6-32.53-27.78-32.53-14.62,0-33.26,10.97-48.98,29.97-1.46,1.83-3.66,2.92-6.21,2.92-4.75,0-8.4-3.66-8.4-8.41,0-1.83.73-3.65,1.83-5.11,18.64-21.93,41.67-35.82,61.77-35.82,25.95,0,48.98,21.93,43.86,51.9l-22.3,132.68c-.73,4.02-4.02,7.31-8.41,7.31Z"/><path class="cls-1" d="m1171.08,2839.56c4.75,0,8.4,3.66,8.4,8.04,0,1.83-.73,3.65-1.82,5.11l-111.12,155.34c-10.23,14.62-21.56,21.56-32.53,21.56-21.56,0-25.95-23.03-19.01-62.13l11.33-65.06c6.21-35.45-7.31-48.25-22.3-48.25-16.81,0-37.28,13.53-47.88,35.09-1.1,2.92-4.02,4.75-7.31,4.75-4.38,0-8.4-3.66-8.4-8.41,0-1.1.37-2.19,1.1-3.29,13.16-27.41,39.47-44.59,62.5-44.59,24.49,0,46.78,20.47,38.38,67.62l-11.33,65.06c-5.12,28.51-3.29,42.77,2.92,42.77,4.75,0,11.69-4.02,19.37-14.62l111.11-155.7c1.46-1.83,4.02-3.29,6.58-3.29Z"/><path class="cls-1" d="m1171.81,2838.83c5.12,0,8.4,4.39,8.04,8.77l-16.45,141.45c-1.46,15.72,2.56,24.12,8.04,24.12,4.39,0,10.96-4.39,19.01-14.99l106.72-138.89c1.46-1.83,3.66-2.92,6.58-2.92,4.39,0,8.04,3.66,8.04,8.04,0,1.83-.73,3.66-1.83,5.12l-106.36,138.89c-9.87,12.79-20.83,21.2-32.16,21.2-16.09,0-27.05-15.72-24.12-42.76l16.08-140.72c.37-4.38,4.02-7.31,8.41-7.31Z"/><path class="cls-1" d="m1171.08,2753.3c0-5.85,4.75-10.6,10.96-10.6,5.85,0,10.6,4.75,10.6,10.6,0,6.21-4.75,10.96-10.6,10.96-6.21,0-10.96-4.75-10.96-10.96Z"/><path class="cls-1" d="m1402.44,3006.96c-4.75,0-8.41-3.66-8.41-8.04,0-1.83.73-3.66,1.83-5.12l107.83-149.85c1.46-1.83,4.02-3.29,6.58-3.29,4.75,0,8.41,3.66,8.41,8.04,0,1.83-.73,3.65-1.83,5.11l-107.82,149.86c-1.46,1.83-4.02,3.29-6.58,3.29Z"/><path class="cls-1" d="m1481.39,3029.25c-5.12,0-8.77-5.12-8.04-9.5l29.61-173.62c.73-4.02,4.02-7.31,8.4-7.31,5.12,0,8.77,5.12,8.04,9.5l-29.61,173.61c-.73,4.02-4.02,7.31-8.4,7.31Z"/><path class="cls-1" d="m1575.32,3029.25c-5.12,0-8.77-5.12-8.04-9.5l22.66-133.41c2.92-19.01-10.6-32.53-27.78-32.53-14.62,0-33.26,10.97-48.98,29.97-1.46,1.83-3.66,2.92-6.21,2.92-4.75,0-8.4-3.66-8.4-8.41,0-1.83.73-3.65,1.83-5.11,18.64-21.93,41.67-35.82,61.77-35.82,25.95,0,48.98,21.93,43.86,51.9l-22.3,132.68c-.73,4.02-4.02,7.31-8.4,7.31Z"/><path class="cls-1" d="m1793.16,2878.3c4.75,0,8.41,3.66,8.41,8.04,0,1.83-.73,3.66-1.83,5.12l-83.34,116.6c-10.23,14.62-21.56,21.56-32.53,21.56-21.56,0-25.95-23.03-19.01-62.13l11.33-65.06c6.21-35.45-7.31-48.25-22.3-48.25-16.81,0-37.28,13.53-47.88,35.09-1.1,2.92-4.02,4.75-7.31,4.75-4.39,0-8.41-3.66-8.41-8.41,0-1.1.37-2.19,1.1-3.29,13.16-27.41,39.47-44.59,62.5-44.59,24.49,0,46.78,20.47,38.38,67.62l-11.33,65.06c-5.12,28.51-3.29,42.77,2.92,42.77,4.75,0,11.69-4.02,19.37-14.62l83.34-116.96c1.46-1.83,4.02-3.29,6.58-3.29Z"/><path class="cls-2" d="m288.76,1338.58c0-4.75,3.66-8.41,8.4-8.41,2.19,0,4.39,1.1,6.21,2.92,13.16,14.62,29.24,19.74,45.32,19.74,28.51,0,55.19-19.01,60.31-48.98l43.13-258.41c9.13,5.12,11.69,6.58,11.33,5.85-38.01,25.59-73.83,31.8-126.83-5.12-2.19-1.46-3.66-4.02-3.66-6.58,0-4.75,3.66-8.41,8.04-8.41,1.82,0,3.65.73,4.75,1.46,46.78,32.53,75.29,27.78,109.29,4.75,6.58-4.02,14.25,1.1,13.52,8.77l-43.49,260.6c-6.58,38.74-40.57,62.5-76.39,62.5-19.74,0-40.94-6.58-57.75-25.22-1.46-1.46-2.19-3.66-2.19-5.48Z"/><path class="cls-2" d="m472.6,1178.49c0,4.39-3.66,8.04-8.04,8.04h-67.98c-4.39,0-8.04-3.65-8.04-8.04s3.65-8.41,8.04-8.41h67.98c4.39,0,8.04,4.02,8.04,8.41Z"/><path class="cls-2" d="m1026.3,2183.55c27.05,0,58.48-35.09,58.48-91.38,0-36.55-13.89-67.62-42.77-67.62-19.37,0-50.8,14.26-60.67,64.69-9.87,48.61,16.81,94.3,44.96,94.3Z"/><path class="cls-1" d="m781.66,741.06v-2.02h3.02v2.18c0,3.74,2.6,6.05,7.94,6.05s8.44-1.97,8.44-6.22c0-3.32-1.39-5.17-4.92-6.09l-6.64-1.72c-4.33-1.13-7.18-2.98-7.18-8.15s3.78-8.91,10.92-8.91,10.59,3.44,10.59,9.07v2.94h-3.03v-2.81c0-4.62-3.07-6.51-7.56-6.51-5.12,0-7.81,2.14-7.81,6.01,0,3.61,1.76,4.7,5.54,5.71l5.75,1.55c5.12,1.39,7.44,3.74,7.44,8.65,0,6.09-4.33,9.24-11.47,9.24-9.12,0-11.05-4.7-11.05-8.99Z"/><path class="cls-1" d="m811.35,716.74h2.94v32.77h-2.94v-32.77Z"/><path class="cls-1" d="m821.64,716.74h2.98v6.51h-2.98v-6.51Zm0,11.76h2.94v21h-2.94v-21Z"/><path class="cls-1" d="m831.34,751.31v-.13h3.11v.13c0,2.9,1.93,4.33,6.13,4.33,4.79,0,7.02-2.94,7.02-7.86v-2.1h-.08c-1.09,2.18-3.65,4.07-7.48,4.07-6.3,0-9.75-3.99-9.75-10.71,0-7.1,4.37-11.09,9.96-11.09,3.78,0,6.55,1.81,7.56,4.12h.13l.29-3.57h2.31v19.16c0,5.88-2.81,10.71-10.33,10.71-6.3,0-8.86-2.98-8.86-7.06Zm16.59-12.77c0-5.5-3.36-8.07-7.35-8.07-3.02,0-7.14,1.47-7.14,8.4s3.57,8.32,7.1,8.32c4.24,0,7.39-2.73,7.39-8.65Z"/><path class="cls-1" d="m857.89,716.74h2.94v15.16c1.05-2.1,3.28-3.95,7.31-3.95,4.75,0,7.77,2.52,7.77,7.94v13.61h-2.94v-13.27c0-4.33-2.14-5.71-5.5-5.71-3.82,0-6.64,2.69-6.64,5.63v13.36h-2.94v-32.77Z"/><path class="cls-1" d="m894.22,746.82v2.6c-.76.21-2.14.59-4.03.59-3.82,0-6.34-1.6-6.34-6.89v-12.18h-4.16v-2.44h4.16v-6.05l2.94-1.43v7.48h5.92v2.44h-5.92v11.8c0,2.81.76,4.58,3.4,4.58,1.6,0,3.23-.29,4.03-.5Z"/><path class="cls-1" d="m906.82,743.08v-1.18h2.94v1.13c0,2.86,2.14,4.5,5.96,4.5s5.8-1.01,5.8-3.78c0-2.06-1.01-2.81-3.86-3.32l-4.62-.84c-3.02-.55-5.54-2.02-5.54-5.5,0-3.15,2.35-6.13,8.4-6.13s8.4,3.02,8.4,7.23v.88h-2.98v-.76c0-3.44-2.14-4.91-5.42-4.91-3.95,0-5.33,1.34-5.33,3.36s1.01,2.86,3.91,3.4l4.03.76c4.12.76,6.09,1.93,6.09,5.59,0,4.58-4.12,6.55-8.78,6.55-7.31,0-8.99-3.28-8.99-6.97Z"/><path class="cls-1" d="m930.46,716.74h2.94v32.77h-2.94v-32.77Z"/><path class="cls-1" d="m939.49,743.71c0-3.95,2.23-6.09,7.86-6.09h6.34v-1.72c0-2.98-1.26-5.42-5.46-5.42-3.95,0-5.33,1.51-5.33,4.12v.88h-2.98v-.84c0-5,4.2-6.68,8.32-6.68,5.8,0,8.4,2.86,8.4,8.44v13.11h-2.06l-.55-2.98h-.08c-1.26,1.89-3.7,3.53-7.35,3.53-4.92,0-7.1-2.31-7.1-6.34Zm14.2-1.85v-1.76h-7.01c-2.65,0-4.03.92-4.03,3.61,0,2.35,1.26,3.86,4.5,3.86,4.16,0,6.55-2.14,6.55-5.71Z"/><path class="cls-1" d="m963.98,728.5h2.6l.29,3.49c1.01-2.14,3.28-4.03,7.35-4.03,4.75,0,7.77,2.52,7.77,7.94v13.61h-2.94v-13.27c0-4.33-2.14-5.71-5.5-5.71-3.82,0-6.64,2.69-6.64,5.63v13.36h-2.94v-21Z"/><path class="cls-1" d="m1000.31,746.82v2.6c-.76.21-2.14.59-4.03.59-3.82,0-6.34-1.6-6.34-6.89v-12.18h-4.16v-2.44h4.16v-6.05l2.94-1.43v7.48h5.92v2.44h-5.92v11.8c0,2.81.76,4.58,3.4,4.58,1.6,0,3.23-.29,4.03-.5Z"/><path class="cls-2" d="m1278.9,2995.26c0-4.75,3.66-8.4,8.41-8.4,2.19,0,4.39,1.1,5.85,2.92,14.62,15.72,36.91,23.03,58.48,23.03,25.95,0,47.15-9.87,47.15-32.9,0-29.97-18.27-35.45-47.15-42.03-28.14-6.58-61.77-14.62-61.77-52.63,0-31.43,25.95-47.52,55.19-47.52,18.28,0,39.48,6.58,54.46,19.74,1.83,1.46,2.92,3.66,2.92,6.21,0,4.39-3.66,8.04-8.41,8.04-1.83,0-3.66-.73-5.12-1.83-12.06-10.24-28.87-15.72-43.86-15.72-22.66,0-38.74,10.6-38.74,31.07,0,24.85,21.2,29.97,48.98,36.55,30.34,6.58,59.94,15.72,59.94,58.12,0,35.45-32.53,49.34-63.6,49.34-25.59,0-52.27-8.77-70.54-28.51-1.1-1.46-2.19-3.29-2.19-5.48Z"/><path class="cls-1" d="m1229.76,3258.65h8.61c7.94,0,11.64,2.73,11.64,9.62,0,6.43-2.77,10.12-11.13,10.12h-6.13v13.02h-2.98v-32.77Zm9.28,17.22c6.09,0,7.94-2.69,7.94-7.65,0-5.21-2.6-6.97-8.44-6.97h-5.8v14.62h6.3Z"/><path class="cls-1" d="m1254.63,3270.41h2.6l.29,3.91c1.01-2.14,3.07-4.45,6.76-4.45,1.26,0,2.18.21,3.02.55v3.15c-1.13-.5-2.1-.76-3.4-.76-3.74,0-6.34,2.81-6.34,5.75v12.85h-2.94v-21Z"/><path class="cls-1" d="m1271.93,3258.65h2.98v6.51h-2.98v-6.51Zm0,11.76h2.94v21h-2.94v-21Z"/><path class="cls-1" d="m1282.26,3270.41h2.6l.29,3.49c1.01-2.14,3.28-4.03,7.35-4.03,4.75,0,7.77,2.52,7.77,7.94v13.61h-2.94v-13.27c0-4.33-2.14-5.71-5.5-5.71-3.82,0-6.64,2.69-6.64,5.63v13.36h-2.94v-21Z"/><path class="cls-1" d="m1318.6,3288.73v2.6c-.76.21-2.14.59-4.03.59-3.82,0-6.34-1.6-6.34-6.89v-12.18h-4.16v-2.44h4.16v-6.05l2.94-1.43v7.48h5.92v2.44h-5.92v11.8c0,2.82.76,4.58,3.4,4.58,1.6,0,3.23-.29,4.03-.5Z"/><path class="cls-1" d="m1331.19,3284.99v-1.18h2.94v1.13c0,2.86,2.14,4.49,5.96,4.49s5.8-1.01,5.8-3.78c0-2.06-1.01-2.81-3.87-3.32l-4.62-.84c-3.02-.55-5.54-2.02-5.54-5.5,0-3.15,2.35-6.13,8.4-6.13s8.4,3.02,8.4,7.23v.88h-2.98v-.76c0-3.45-2.14-4.92-5.42-4.92-3.95,0-5.33,1.34-5.33,3.36s1.01,2.86,3.91,3.4l4.03.76c4.12.76,6.09,1.93,6.09,5.59,0,4.58-4.12,6.55-8.78,6.55-7.31,0-8.99-3.28-8.99-6.97Z"/><path class="cls-1" d="m1365.8,3288.73v2.6c-.76.21-2.14.59-4.03.59-3.82,0-6.34-1.6-6.34-6.89v-12.18h-4.16v-2.44h4.16v-6.05l2.94-1.43v7.48h5.92v2.44h-5.92v11.8c0,2.82.76,4.58,3.4,4.58,1.6,0,3.23-.29,4.03-.5Z"/><path class="cls-1" d="m1370.84,3270.41l6.89,17.98h.08l7.14-17.98h3.07v.04l-8.86,20.84-3.11,8.53h-2.98v-.04l3.19-8.36-8.78-20.96v-.04h3.36Z"/><path class="cls-1" d="m1392.22,3258.65h2.94v32.77h-2.94v-32.77Z"/><path class="cls-1" d="m1419.78,3281.92h-15.96c.17,4.79,2.48,7.48,6.93,7.48,3.82,0,5.67-1.43,5.96-4.83h2.98c-.29,4.24-3.28,7.39-9.03,7.39-7.06,0-9.83-4.66-9.83-10.88s3.23-11.22,10-11.22,8.95,3.99,8.95,10.21v1.85Zm-3.11-2.98c0-4.45-1.72-6.55-5.92-6.55s-6.55,2.65-6.89,6.97h12.81v-.42Z"/><path class="cls-1" d="m1436.99,3269.11h-3.36v-5.08c0-3.95.88-5.29,3.4-5.96l.67,1.85c-1.76.67-2.06,1.09-2.06,3.78v.34h1.34v5.08Zm5.92,0h-3.36v-5.08c0-3.95.88-5.29,3.4-5.96l.67,1.85c-1.76.67-2.06,1.09-2.06,3.78v.34h1.34v5.08Z"/><path class="cls-1" d="m1444.89,3284.99v-1.18h2.94v1.13c0,2.86,2.14,4.49,5.96,4.49s5.8-1.01,5.8-3.78c0-2.06-1.01-2.81-3.86-3.32l-4.62-.84c-3.02-.55-5.54-2.02-5.54-5.5,0-3.15,2.35-6.13,8.4-6.13s8.4,3.02,8.4,7.23v.88h-2.98v-.76c0-3.45-2.14-4.92-5.42-4.92-3.95,0-5.33,1.34-5.33,3.36s1.01,2.86,3.91,3.4l4.03.76c4.12.76,6.09,1.93,6.09,5.59,0,4.58-4.12,6.55-8.78,6.55-7.31,0-8.99-3.28-8.99-6.97Z"/><path class="cls-1" d="m1464.96,3267.85c1.76-.67,2.06-1.09,2.06-3.78v-.34h-1.34v-5.08h3.36v5.08c0,3.95-.88,5.29-3.4,5.96l-.67-1.85Zm5.92,0c1.76-.67,2.06-1.09,2.06-3.78v-.34h-1.34v-5.08h3.36v5.08c0,3.95-.88,5.29-3.4,5.96l-.67-1.85Z"/><line class="cls-6" x1="1351.67" y1="3231.43" x2="1351.67" y2="3043.92"/><path class="cls-1" d="m265.79,792.34h8.36c11.05,0,17.39,4.54,17.39,16.42s-6.26,16.34-17.18,16.34h-8.57v-32.77Zm8.65,30.12c9.41,0,14.03-3.74,14.03-13.78s-4.49-13.74-14.07-13.74h-5.67v27.51h5.71Z"/><path class="cls-1" d="m297.83,792.34h2.98v6.51h-2.98v-6.51Zm0,11.76h2.94v21h-2.94v-21Z"/><path class="cls-1" d="m306.27,818.68v-1.18h2.94v1.13c0,2.86,2.14,4.49,5.96,4.49s5.8-1.01,5.8-3.78c0-2.06-1.01-2.81-3.87-3.32l-4.62-.84c-3.02-.55-5.54-2.02-5.54-5.5,0-3.15,2.35-6.13,8.4-6.13s8.4,3.02,8.4,7.23v.88h-2.98v-.76c0-3.45-2.14-4.92-5.42-4.92-3.95,0-5.33,1.34-5.33,3.36s1.01,2.86,3.91,3.4l4.03.76c4.12.76,6.09,1.93,6.09,5.59,0,4.58-4.12,6.55-8.78,6.55-7.31,0-8.99-3.28-8.99-6.97Z"/><path class="cls-1" d="m340.88,822.42v2.6c-.76.21-2.14.59-4.03.59-3.82,0-6.34-1.6-6.34-6.89v-12.18h-4.16v-2.44h4.16v-6.05l2.94-1.43v7.48h5.92v2.44h-5.92v11.8c0,2.82.76,4.58,3.4,4.58,1.6,0,3.23-.29,4.03-.5Z"/><path class="cls-1" d="m345.71,792.34h2.98v6.51h-2.98v-6.51Zm0,11.76h2.94v21h-2.94v-21Z"/><path class="cls-1" d="m356.04,804.11h2.6l.29,3.49c1.01-2.14,3.28-4.03,7.35-4.03,4.75,0,7.77,2.52,7.77,7.94v13.61h-2.94v-13.27c0-4.33-2.14-5.71-5.5-5.71-3.82,0-6.64,2.69-6.64,5.63v13.36h-2.94v-21Z"/><path class="cls-1" d="m379.73,814.78c0-6.38,3.23-11.22,10-11.22s8.95,3.91,8.95,8.95v.42h-3.11v-.63c0-3.82-1.64-6.09-5.84-6.09-4.75,0-7.02,3.11-7.02,8.4,0,5.63,2.39,8.49,6.93,8.49,3.82,0,5.84-1.85,5.92-5.67h3.02c-.08,4.66-3.15,8.23-9.03,8.23-7.23,0-9.83-4.75-9.83-10.88Z"/><path class="cls-1" d="m415.52,822.42v2.6c-.76.21-2.14.59-4.03.59-3.82,0-6.34-1.6-6.34-6.89v-12.18h-4.16v-2.44h4.16v-6.05l2.94-1.43v7.48h5.92v2.44h-5.92v11.8c0,2.82.76,4.58,3.4,4.58,1.6,0,3.23-.29,4.03-.5Z"/><path class="cls-1" d="m420.35,792.34h2.98v6.51h-2.98v-6.51Zm0,11.76h2.94v21h-2.94v-21Z"/><path class="cls-1" d="m427.53,804.15v-.04h3.36l7.35,17.98h.08l7.1-17.98h3.07v.04l-8.74,20.96h-3.03l-9.2-20.96Z"/><path class="cls-1" d="m469.32,815.62h-15.96c.17,4.79,2.48,7.48,6.93,7.48,3.82,0,5.67-1.43,5.96-4.83h2.98c-.29,4.24-3.28,7.39-9.03,7.39-7.06,0-9.83-4.66-9.83-10.88s3.23-11.22,10-11.22,8.95,3.99,8.95,10.21v1.85Zm-3.11-2.98c0-4.45-1.72-6.55-5.92-6.55s-6.55,2.65-6.89,6.97h12.81v-.42Z"/><path class="cls-1" d="m483.18,814.65c0-7.1,4.28-11.09,10.04-11.09,3.7,0,6.22,1.6,7.31,3.74h.04v-14.95h2.94v32.77h-1.97l-.67-3.61h-.08c-1.18,2.31-3.95,4.16-7.77,4.16-6.3,0-9.83-3.99-9.83-11.01Zm17.64-.5c0-5.5-3.36-8.07-7.35-8.07-3.11,0-7.14,1.47-7.14,8.4s3.61,8.61,7.14,8.61c4.24,0,7.35-2.73,7.35-8.95Z"/><path class="cls-1" d="m528.12,815.62h-15.96c.17,4.79,2.48,7.48,6.93,7.48,3.82,0,5.67-1.43,5.97-4.83h2.98c-.29,4.24-3.28,7.39-9.03,7.39-7.06,0-9.83-4.66-9.83-10.88s3.23-11.22,10-11.22,8.95,3.99,8.95,10.21v1.85Zm-3.11-2.98c0-4.45-1.72-6.55-5.92-6.55s-6.55,2.65-6.89,6.97h12.81v-.42Z"/><path class="cls-1" d="m532.11,818.68v-1.18h2.94v1.13c0,2.86,2.14,4.49,5.96,4.49s5.8-1.01,5.8-3.78c0-2.06-1.01-2.81-3.86-3.32l-4.62-.84c-3.02-.55-5.54-2.02-5.54-5.5,0-3.15,2.35-6.13,8.4-6.13s8.4,3.02,8.4,7.23v.88h-2.98v-.76c0-3.45-2.14-4.92-5.42-4.92-3.95,0-5.33,1.34-5.33,3.36s1.01,2.86,3.91,3.4l4.03.76c4.12.76,6.09,1.93,6.09,5.59,0,4.58-4.12,6.55-8.78,6.55-7.31,0-8.99-3.28-8.99-6.97Z"/><path class="cls-1" d="m555.75,792.34h2.98v6.51h-2.98v-6.51Zm0,11.76h2.94v21h-2.94v-21Z"/><path class="cls-1" d="m565.46,826.92v-.13h3.11v.13c0,2.9,1.93,4.33,6.13,4.33,4.79,0,7.01-2.94,7.01-7.86v-2.1h-.08c-1.09,2.18-3.65,4.07-7.48,4.07-6.3,0-9.75-3.99-9.75-10.71,0-7.1,4.37-11.09,9.96-11.09,3.78,0,6.55,1.81,7.56,4.12h.13l.29-3.57h2.31v19.16c0,5.88-2.81,10.71-10.33,10.71-6.3,0-8.86-2.98-8.86-7.06Zm16.59-12.77c0-5.5-3.36-8.07-7.35-8.07-3.03,0-7.14,1.47-7.14,8.4s3.57,8.32,7.1,8.32c4.24,0,7.39-2.73,7.39-8.65Z"/><path class="cls-1" d="m592,804.11h2.6l.29,3.49c1.01-2.14,3.28-4.03,7.35-4.03,4.75,0,7.77,2.52,7.77,7.94v13.61h-2.94v-13.27c0-4.33-2.14-5.71-5.5-5.71-3.82,0-6.64,2.69-6.64,5.63v13.36h-2.94v-21Z"/><path class="cls-1" d="m625.35,814.61c0-6.22,3.32-11.05,10.38-11.05,6.59,0,10.25,4.83,10.25,11.05s-3.7,11.05-10.29,11.05c-7.27,0-10.33-4.83-10.33-11.05Zm17.56,0c0-5.33-2.9-8.49-7.22-8.49-4.75,0-7.27,3.15-7.27,8.49s2.56,8.49,7.27,8.49c4.33,0,7.22-3.15,7.22-8.49Z"/><path class="cls-1" d="m656.01,799.07v5.04h5.92v2.44h-5.92v18.57h-2.94v-18.57h-4.16v-2.44h4.16v-5.42c0-5.29,3.15-6.89,6.38-6.89,1.85,0,2.98.29,3.74.55v2.6c-.71-.21-1.89-.46-3.49-.46-2.65,0-3.7,1.76-3.7,4.58Z"/><path class="cls-1" d="m677.89,802.8h-3.36v-5.08c0-3.95.88-5.29,3.4-5.96l.67,1.85c-1.76.67-2.06,1.09-2.06,3.78v.34h1.34v5.08Zm5.92,0h-3.36v-5.08c0-3.95.88-5.29,3.4-5.96l.67,1.85c-1.76.67-2.06,1.09-2.06,3.78v.34h1.34v5.08Z"/><path class="cls-1" d="m688.94,808.9c0-11.85,6.51-17.1,14.49-17.1,7.56,0,12.64,3.78,12.64,11.47v.5h-2.86v-.63c0-5.33-3.49-8.7-9.7-8.7-6.72,0-11.47,4.58-11.47,14.28s4.75,14.28,11.76,14.28c5.63,0,9.45-2.52,9.45-8.78v-2.73h-9.83v-2.6h12.64v16.21h-2.1l-.67-3.74c-1.6,2.48-5.17,4.28-9.75,4.28-8.32,0-14.62-4.87-14.62-16.76Z"/><path class="cls-1" d="m720.9,801.54c1.76-.67,2.06-1.09,2.06-3.78v-.34h-1.34v-5.08h3.36v5.08c0,3.95-.88,5.29-3.4,5.96l-.67-1.85Zm5.92,0c1.76-.67,2.06-1.09,2.06-3.78v-.34h-1.34v-5.08h3.36v5.08c0,3.95-.88,5.29-3.4,5.96l-.67-1.85Z"/><line class="cls-6" x1="496.17" y1="698.5" x2="496.17" y2="768.37"/><polyline class="cls-5" points="399.77 1807.45 399.77 1776.1 1551.8 1776.1 1551.8 1807.45"/><path class="cls-2" d="m387.44,2169.28c0-4.75,3.66-8.41,8.41-8.41,2.19,0,4.39,1.1,6.21,2.92,13.16,14.62,29.24,19.74,45.32,19.74,28.51,0,55.19-19.01,60.31-48.98l44.23-260.97c9.14,5.12,11.7,6.58,11.33,5.85-38.01,25.59-73.83,31.8-126.83-5.12-2.19-1.46-3.65-4.02-3.65-6.58,0-4.75,3.65-8.41,8.04-8.41,1.83,0,3.66.73,4.75,1.46,46.78,32.53,75.29,27.78,109.28,4.75,6.58-4.02,14.26,1.1,13.53,8.77l-44.59,263.16c-6.58,38.74-40.57,62.5-76.39,62.5-19.74,0-40.94-6.58-57.75-25.22-1.46-1.46-2.19-3.66-2.19-5.48Z"/><path class="cls-1" d="m208.13,2435.08c0-12.01,6.76-17.26,14.75-17.26,6.97,0,12.39,3.74,12.39,12.01v.8h-2.86v-.92c0-5.92-3.78-9.24-9.45-9.24-6.72,0-11.76,4.58-11.76,14.32s5.04,14.24,11.72,14.24c5.38,0,9.54-2.86,9.54-9.2v-.59h2.77v.42c0,8.02-5.33,12.01-12.56,12.01-7.98,0-14.54-4.87-14.54-16.59Z"/><path class="cls-1" d="m241.15,2443.73v-13.61h2.94v13.27c0,4.33,2.14,5.71,5.42,5.71,3.74,0,6.55-2.69,6.55-5.63v-13.36h2.94v21h-2.6l-.25-3.36h-.08c-.97,2.02-3.23,3.91-7.23,3.91-4.66,0-7.69-2.52-7.69-7.94Z"/><path class="cls-1" d="m266.35,2430.12h2.6l.29,3.91c1.01-2.14,3.07-4.45,6.76-4.45,1.26,0,2.18.21,3.02.55v3.15c-1.13-.5-2.1-.76-3.4-.76-3.74,0-6.34,2.81-6.34,5.75v12.85h-2.94v-21Z"/><path class="cls-1" d="m281.55,2444.7v-1.18h2.94v1.13c0,2.86,2.14,4.49,5.96,4.49s5.8-1.01,5.8-3.78c0-2.06-1.01-2.81-3.86-3.32l-4.62-.84c-3.02-.55-5.54-2.02-5.54-5.5,0-3.15,2.35-6.13,8.4-6.13s8.4,3.02,8.4,7.23v.88h-2.98v-.76c0-3.45-2.14-4.92-5.42-4.92-3.95,0-5.33,1.34-5.33,3.36s1.01,2.86,3.91,3.4l4.03.76c4.12.76,6.09,1.93,6.09,5.59,0,4.58-4.12,6.55-8.78,6.55-7.31,0-8.99-3.28-8.99-6.97Z"/><path class="cls-1" d="m305.2,2418.36h2.98v6.51h-2.98v-6.51Zm0,11.76h2.94v21h-2.94v-21Z"/><path class="cls-1" d="m312.38,2430.17v-.04h3.36l7.35,17.98h.08l7.1-17.98h3.07v.04l-8.74,20.96h-3.02l-9.2-20.96Z"/><path class="cls-1" d="m354.17,2441.63h-15.96c.17,4.79,2.48,7.48,6.93,7.48,3.82,0,5.67-1.43,5.96-4.83h2.98c-.29,4.24-3.28,7.39-9.03,7.39-7.06,0-9.83-4.66-9.83-10.88s3.23-11.22,10-11.22,8.95,3.99,8.95,10.21v1.85Zm-3.11-2.98c0-4.45-1.72-6.55-5.92-6.55s-6.55,2.65-6.89,6.97h12.81v-.42Z"/><path class="cls-1" d="m371.39,2428.82h-3.36v-5.08c0-3.95.88-5.29,3.4-5.96l.67,1.85c-1.76.67-2.06,1.09-2.06,3.78v.34h1.34v5.08Zm5.92,0h-3.36v-5.08c0-3.95.88-5.29,3.4-5.96l.67,1.85c-1.76.67-2.06,1.09-2.06,3.78v.34h1.34v5.08Z"/><path class="cls-1" d="m391.84,2420.97h-11.51v-2.6h25.96v2.6h-11.51v30.16h-2.94v-30.16Z"/><path class="cls-1" d="m408.6,2427.56c1.76-.67,2.06-1.09,2.06-3.78v-.34h-1.34v-5.08h3.36v5.08c0,3.95-.88,5.29-3.4,5.96l-.67-1.85Zm5.92,0c1.76-.67,2.06-1.09,2.06-3.78v-.34h-1.34v-5.08h3.36v5.08c0,3.95-.88,5.29-3.4,5.96l-.67-1.85Z"/><path class="cls-1" d="m431.41,2430.17v-.04h2.98l5.75,17.48h.08l6.3-17.48h2.69l6.18,17.48h.08l5.75-17.48h2.86v.04l-7.18,20.96h-3.02l-5.96-17.05h-.08l-6.22,17.05h-3.02l-7.18-20.96Z"/><path class="cls-1" d="m468.91,2418.36h2.98v6.51h-2.98v-6.51Zm0,11.76h2.94v21h-2.94v-21Z"/><path class="cls-1" d="m490.21,2448.44v2.6c-.76.21-2.14.59-4.03.59-3.82,0-6.34-1.6-6.34-6.89v-12.18h-4.16v-2.44h4.16v-6.05l2.94-1.43v7.48h5.92v2.44h-5.92v11.8c0,2.82.76,4.58,3.4,4.58,1.6,0,3.23-.29,4.03-.5Z"/><path class="cls-1" d="m495.04,2418.36h2.94v15.16c1.05-2.1,3.28-3.95,7.31-3.95,4.75,0,7.77,2.52,7.77,7.94v13.61h-2.94v-13.27c0-4.33-2.14-5.71-5.5-5.71-3.82,0-6.64,2.69-6.64,5.63v13.36h-2.94v-32.77Z"/><path class="cls-1" d="m532.88,2447.64h-.08l-.76,3.49h-1.97v-32.77h2.94v15.25h.04c1.26-2.31,4.07-4.03,7.69-4.03,6.3,0,9.66,3.99,9.66,11.01s-4.28,11.09-9.87,11.09c-3.78,0-6.55-1.64-7.65-4.03Zm14.37-6.89c0-7.18-3.4-8.61-6.93-8.61-4.24,0-7.56,2.73-7.56,8.44,0,6.01,3.44,8.57,7.43,8.57,3.03,0,7.06-1.47,7.06-8.4Z"/><path class="cls-1" d="m554.8,2445.33c0-3.95,2.23-6.09,7.86-6.09h6.34v-1.72c0-2.98-1.26-5.42-5.46-5.42-3.95,0-5.33,1.51-5.33,4.12v.88h-2.98v-.84c0-5,4.2-6.68,8.32-6.68,5.8,0,8.4,2.86,8.4,8.44v13.11h-2.06l-.55-2.98h-.08c-1.26,1.89-3.7,3.53-7.35,3.53-4.92,0-7.1-2.31-7.1-6.34Zm14.2-1.85v-1.76h-7.01c-2.65,0-4.03.92-4.03,3.61,0,2.35,1.26,3.86,4.5,3.86,4.16,0,6.55-2.14,6.55-5.71Z"/><path class="cls-1" d="m579.29,2430.12h2.6l.29,3.91c1.01-2.14,3.07-4.45,6.76-4.45,1.26,0,2.18.21,3.02.55v3.15c-1.13-.5-2.1-.76-3.4-.76-3.74,0-6.34,2.81-6.34,5.75v12.85h-2.94v-21Z"/><path class="cls-1" d="m617.22,2448.44v2.6c-.76.21-2.14.59-4.03.59-3.82,0-6.34-1.6-6.34-6.89v-12.18h-4.16v-2.44h4.16v-6.05l2.94-1.43v7.48h5.92v2.44h-5.92v11.8c0,2.82.76,4.58,3.4,4.58,1.6,0,3.23-.29,4.03-.5Z"/><path class="cls-1" d="m622.04,2418.36h2.94v15.16c1.05-2.1,3.28-3.95,7.31-3.95,4.75,0,7.77,2.52,7.77,7.94v13.61h-2.94v-13.27c0-4.33-2.14-5.71-5.5-5.71-3.82,0-6.64,2.69-6.64,5.63v13.36h-2.94v-32.77Z"/><path class="cls-1" d="m646.15,2445.33c0-3.95,2.23-6.09,7.86-6.09h6.34v-1.72c0-2.98-1.26-5.42-5.46-5.42-3.95,0-5.33,1.51-5.33,4.12v.88h-2.98v-.84c0-5,4.2-6.68,8.32-6.68,5.8,0,8.4,2.86,8.4,8.44v13.11h-2.06l-.55-2.98h-.08c-1.26,1.89-3.7,3.53-7.35,3.53-4.91,0-7.1-2.31-7.1-6.34Zm14.2-1.85v-1.76h-7.02c-2.65,0-4.03.92-4.03,3.61,0,2.35,1.26,3.86,4.5,3.86,4.16,0,6.55-2.14,6.55-5.71Z"/><path class="cls-1" d="m681.39,2448.44v2.6c-.76.21-2.14.59-4.03.59-3.82,0-6.34-1.6-6.34-6.89v-12.18h-4.16v-2.44h4.16v-6.05l2.94-1.43v7.48h5.92v2.44h-5.92v11.8c0,2.82.76,4.58,3.4,4.58,1.6,0,3.23-.29,4.03-.5Z"/><path class="cls-1" d="m224.54,2489.47c0-6.22,3.32-11.05,10.38-11.05,6.59,0,10.25,4.83,10.25,11.05s-3.7,11.05-10.29,11.05c-7.27,0-10.33-4.83-10.33-11.05Zm17.56,0c0-5.33-2.9-8.49-7.23-8.49-4.75,0-7.27,3.15-7.27,8.49s2.56,8.49,7.27,8.49c4.33,0,7.23-3.15,7.23-8.49Z"/><path class="cls-1" d="m251.04,2478.97h2.6l.29,3.49c1.01-2.14,3.28-4.03,7.35-4.03,4.75,0,7.77,2.52,7.77,7.94v13.61h-2.94v-13.27c0-4.33-2.14-5.71-5.5-5.71-3.82,0-6.64,2.69-6.64,5.63v13.36h-2.94v-21Z"/><path class="cls-1" d="m276.41,2467.21h2.94v32.77h-2.94v-32.77Z"/><path class="cls-1" d="m286.7,2478.97l6.89,17.98h.08l7.14-17.98h3.07v.04l-8.86,20.84-3.11,8.53h-2.98v-.04l3.19-8.36-8.78-20.96v-.04h3.36Z"/><path class="cls-1" d="m335,2490.48h-15.96c.17,4.79,2.48,7.48,6.93,7.48,3.82,0,5.67-1.43,5.96-4.83h2.98c-.29,4.24-3.28,7.39-9.03,7.39-7.06,0-9.83-4.66-9.83-10.88s3.23-11.22,10-11.22,8.95,3.99,8.95,10.21v1.85Zm-3.11-2.98c0-4.45-1.72-6.55-5.92-6.55s-6.55,2.65-6.89,6.97h12.81v-.42Z"/><path class="cls-1" d="m356.25,2479.01l-8.07,10.5,8.02,10.42v.04h-3.44l-6.34-8.44-6.43,8.44h-3.28v-.04l8.02-10.38-8.07-10.54v-.04h3.44l6.39,8.49,6.43-8.44v-.04h3.32v.04Z"/><path class="cls-1" d="m371.75,2497.29v2.6c-.76.21-2.14.59-4.03.59-3.82,0-6.34-1.6-6.34-6.89v-12.18h-4.16v-2.44h4.16v-6.05l2.94-1.43v7.48h5.92v2.44h-5.92v11.8c0,2.82.76,4.58,3.4,4.58,1.6,0,3.23-.29,4.03-.5Z"/><path class="cls-1" d="m393.21,2490.48h-15.96c.17,4.79,2.48,7.48,6.93,7.48,3.82,0,5.67-1.43,5.96-4.83h2.98c-.29,4.24-3.28,7.39-9.03,7.39-7.06,0-9.83-4.66-9.83-10.88s3.23-11.22,10-11.22,8.95,3.99,8.95,10.21v1.85Zm-3.11-2.98c0-4.45-1.72-6.55-5.92-6.55s-6.55,2.65-6.89,6.97h12.81v-.42Z"/><path class="cls-1" d="m399.09,2478.97h2.6l.29,3.49c1.01-2.14,3.28-4.03,7.35-4.03,4.75,0,7.77,2.52,7.77,7.94v13.61h-2.94v-13.27c0-4.33-2.14-5.71-5.5-5.71-3.82,0-6.64,2.69-6.64,5.63v13.36h-2.94v-21Z"/><path class="cls-1" d="m422.78,2489.51c0-7.1,4.29-11.09,10.04-11.09,3.7,0,6.22,1.6,7.31,3.74h.04v-14.95h2.94v32.77h-1.97l-.67-3.61h-.08c-1.18,2.31-3.95,4.16-7.77,4.16-6.3,0-9.83-3.99-9.83-11.01Zm17.64-.5c0-5.5-3.36-8.07-7.35-8.07-3.11,0-7.14,1.47-7.14,8.4s3.61,8.61,7.14,8.61c4.24,0,7.35-2.73,7.35-8.95Z"/><path class="cls-1" d="m448.56,2493.55v-1.18h2.94v1.13c0,2.86,2.14,4.49,5.96,4.49s5.8-1.01,5.8-3.78c0-2.06-1.01-2.81-3.87-3.32l-4.62-.84c-3.02-.55-5.54-2.02-5.54-5.5,0-3.15,2.35-6.13,8.4-6.13s8.4,3.02,8.4,7.23v.88h-2.98v-.76c0-3.45-2.14-4.92-5.42-4.92-3.95,0-5.33,1.34-5.33,3.36s1.01,2.86,3.91,3.4l4.03.76c4.12.76,6.09,1.93,6.09,5.59,0,4.58-4.12,6.55-8.78,6.55-7.31,0-8.99-3.28-8.99-6.97Z"/><path class="cls-1" d="m492.83,2497.29v2.6c-.76.21-2.14.59-4.03.59-3.82,0-6.34-1.6-6.34-6.89v-12.18h-4.16v-2.44h4.16v-6.05l2.94-1.43v7.48h5.92v2.44h-5.92v11.8c0,2.82.76,4.58,3.4,4.58,1.6,0,3.23-.29,4.03-.5Z"/><path class="cls-1" d="m495.35,2489.47c0-6.22,3.32-11.05,10.38-11.05,6.6,0,10.25,4.83,10.25,11.05s-3.7,11.05-10.29,11.05c-7.27,0-10.33-4.83-10.33-11.05Zm17.56,0c0-5.33-2.9-8.49-7.23-8.49-4.75,0-7.27,3.15-7.27,8.49s2.56,8.49,7.27,8.49c4.33,0,7.23-3.15,7.23-8.49Z"/><path class="cls-1" d="m542.48,2497.29v2.6c-.76.21-2.14.59-4.03.59-3.82,0-6.34-1.6-6.34-6.89v-12.18h-4.16v-2.44h4.16v-6.05l2.94-1.43v7.48h5.92v2.44h-5.92v11.8c0,2.82.76,4.58,3.4,4.58,1.6,0,3.23-.29,4.03-.5Z"/><path class="cls-1" d="m547.31,2467.21h2.94v15.16c1.05-2.1,3.28-3.95,7.31-3.95,4.75,0,7.77,2.52,7.77,7.94v13.61h-2.94v-13.27c0-4.33-2.14-5.71-5.5-5.71-3.82,0-6.64,2.69-6.64,5.63v13.36h-2.94v-32.77Z"/><path class="cls-1" d="m589.94,2490.48h-15.96c.17,4.79,2.48,7.48,6.93,7.48,3.82,0,5.67-1.43,5.96-4.83h2.98c-.29,4.24-3.28,7.39-9.03,7.39-7.06,0-9.83-4.66-9.83-10.88s3.23-11.22,10-11.22,8.95,3.99,8.95,10.21v1.85Zm-3.11-2.98c0-4.45-1.72-6.55-5.92-6.55s-6.55,2.65-6.89,6.97h12.81v-.42Z"/><path class="cls-1" d="m605.48,2467.21h2.94v32.77h-2.94v-32.77Z"/><path class="cls-1" d="m633.03,2490.48h-15.96c.17,4.79,2.48,7.48,6.93,7.48,3.82,0,5.67-1.43,5.96-4.83h2.98c-.29,4.24-3.28,7.39-9.03,7.39-7.06,0-9.83-4.66-9.83-10.88s3.23-11.22,10-11.22,8.95,3.99,8.95,10.21v1.85Zm-3.11-2.98c0-4.45-1.72-6.55-5.92-6.55s-6.55,2.65-6.89,6.97h12.81v-.42Z"/><path class="cls-1" d="m643.07,2473.93v5.04h5.92v2.44h-5.92v18.57h-2.94v-18.57h-4.16v-2.44h4.16v-5.42c0-5.29,3.15-6.89,6.38-6.89,1.85,0,2.98.29,3.74.55v2.6c-.71-.21-1.89-.46-3.49-.46-2.65,0-3.7,1.76-3.7,4.58Z"/><path class="cls-1" d="m664.57,2497.29v2.6c-.76.21-2.14.59-4.03.59-3.82,0-6.34-1.6-6.34-6.89v-12.18h-4.16v-2.44h4.16v-6.05l2.94-1.43v7.48h5.92v2.44h-5.92v11.8c0,2.82.76,4.58,3.4,4.58,1.6,0,3.23-.29,4.03-.5Z"/><line class="cls-6" x1="446.7" y1="2391.14" x2="446.7" y2="2203.63"/><path class="cls-1" d="m86.47,1596.53h-3.36v-5.08c0-3.95.88-5.29,3.4-5.96l.67,1.85c-1.76.67-2.06,1.09-2.06,3.78v.34h1.34v5.08Zm5.92,0h-3.36v-5.08c0-3.95.88-5.29,3.4-5.96l.67,1.85c-1.76.67-2.06,1.09-2.06,3.78v.34h1.34v5.08Z"/><path class="cls-1" d="m99.82,1586.07h18.86v2.6h-15.92v12.94h12.31v2.6h-12.31v14.62h-2.94v-32.77Z"/><path class="cls-1" d="m122.04,1595.27c1.76-.67,2.06-1.09,2.06-3.78v-.34h-1.34v-5.08h3.36v5.08c0,3.95-.88,5.29-3.4,5.96l-.67-1.85Zm5.92,0c1.76-.67,2.06-1.09,2.06-3.78v-.34h-1.34v-5.08h3.36v5.08c0,3.95-.88,5.29-3.4,5.96l-.67-1.85Z"/><path class="cls-1" d="m147.58,1586.07h2.94v32.77h-2.94v-32.77Z"/><path class="cls-1" d="m156.19,1608.33c0-6.22,3.32-11.05,10.38-11.05,6.59,0,10.25,4.83,10.25,11.05s-3.7,11.05-10.29,11.05c-7.27,0-10.33-4.83-10.33-11.05Zm17.56,0c0-5.33-2.9-8.49-7.23-8.49-4.75,0-7.27,3.15-7.27,8.49s2.56,8.49,7.27,8.49c4.33,0,7.23-3.15,7.23-8.49Z"/><path class="cls-1" d="m181.01,1608.33c0-6.22,3.32-11.05,10.38-11.05,6.6,0,10.25,4.83,10.25,11.05s-3.7,11.05-10.29,11.05c-7.27,0-10.33-4.83-10.33-11.05Zm17.56,0c0-5.33-2.9-8.49-7.23-8.49-4.75,0-7.27,3.15-7.27,8.49s2.56,8.49,7.27,8.49c4.33,0,7.23-3.15,7.23-8.49Z"/><path class="cls-1" d="m206.88,1586.07h2.94v23.23l12.14-11.47h3.65v.04l-8.4,7.86,8.78,13.06v.04h-3.36l-7.39-11.22-5.42,5.04v6.17h-2.94v-32.77Z"/><path class="cls-1" d="m229.14,1612.41v-1.18h2.94v1.13c0,2.86,2.14,4.49,5.96,4.49s5.8-1.01,5.8-3.78c0-2.06-1.01-2.81-3.86-3.32l-4.62-.84c-3.02-.55-5.54-2.02-5.54-5.5,0-3.15,2.35-6.13,8.4-6.13s8.4,3.02,8.4,7.23v.88h-2.98v-.76c0-3.45-2.14-4.92-5.42-4.92-3.95,0-5.33,1.34-5.33,3.36s1.01,2.86,3.91,3.4l4.03.76c4.12.76,6.09,1.93,6.09,5.59,0,4.58-4.12,6.55-8.78,6.55-7.31,0-8.99-3.28-8.99-6.97Z"/><path class="cls-1" d="m260.56,1612.41v-1.18h2.94v1.13c0,2.86,2.14,4.49,5.96,4.49s5.8-1.01,5.8-3.78c0-2.06-1.01-2.81-3.86-3.32l-4.62-.84c-3.02-.55-5.54-2.02-5.54-5.5,0-3.15,2.35-6.13,8.4-6.13s8.4,3.02,8.4,7.23v.88h-2.98v-.76c0-3.45-2.14-4.92-5.42-4.92-3.95,0-5.33,1.34-5.33,3.36s1.01,2.86,3.91,3.4l4.03.76c4.12.76,6.09,1.93,6.09,5.59,0,4.58-4.12,6.55-8.78,6.55-7.31,0-8.99-3.28-8.99-6.97Z"/><path class="cls-1" d="m284.2,1586.07h2.98v6.51h-2.98v-6.51Zm0,11.76h2.94v21h-2.94v-21Z"/><path class="cls-1" d="m325.24,1605.22v13.61h-2.94v-13.27c0-4.33-2.14-5.71-4.75-5.71-3.82,0-6.17,2.69-6.17,5.63v13.36h-2.94v-13.27c0-4.33-1.85-5.71-4.83-5.71-3.61,0-6.13,2.69-6.13,5.63v13.36h-2.94v-21h2.6l.29,3.49c1.01-2.02,3.07-4.03,6.93-4.03,2.94,0,5.38,1.39,6.43,4.29,1.22-2.39,3.57-4.29,7.14-4.29,4.29,0,7.31,2.52,7.31,7.94Z"/><path class="cls-1" d="m332.59,1586.07h2.98v6.51h-2.98v-6.51Zm0,11.76h2.94v21h-2.94v-21Z"/><path class="cls-1" d="m342.92,1586.07h2.94v32.77h-2.94v-32.77Z"/><path class="cls-1" d="m351.95,1613.04c0-3.95,2.23-6.09,7.86-6.09h6.34v-1.72c0-2.98-1.26-5.42-5.46-5.42-3.95,0-5.33,1.51-5.33,4.12v.88h-2.98v-.84c0-5,4.2-6.68,8.32-6.68,5.8,0,8.4,2.86,8.4,8.44v13.11h-2.06l-.55-2.98h-.08c-1.26,1.89-3.7,3.53-7.35,3.53-4.92,0-7.1-2.31-7.1-6.34Zm14.2-1.85v-1.76h-7.01c-2.65,0-4.03.92-4.03,3.61,0,2.35,1.26,3.86,4.5,3.86,4.16,0,6.55-2.14,6.55-5.71Z"/><path class="cls-1" d="m376.43,1597.83h2.6l.29,3.91c1.01-2.14,3.07-4.45,6.76-4.45,1.26,0,2.18.21,3.02.55v3.15c-1.13-.5-2.1-.76-3.4-.76-3.74,0-6.34,2.81-6.34,5.75v12.85h-2.94v-21Z"/><path class="cls-1" d="m414.36,1616.15v2.6c-.76.21-2.14.59-4.03.59-3.82,0-6.34-1.6-6.34-6.89v-12.18h-4.16v-2.44h4.16v-6.05l2.94-1.43v7.48h5.92v2.44h-5.92v11.8c0,2.82.76,4.58,3.4,4.58,1.6,0,3.23-.29,4.03-.5Z"/><path class="cls-1" d="m416.88,1608.33c0-6.22,3.32-11.05,10.38-11.05,6.6,0,10.25,4.83,10.25,11.05s-3.7,11.05-10.29,11.05c-7.27,0-10.33-4.83-10.33-11.05Zm17.56,0c0-5.33-2.9-8.49-7.23-8.49-4.75,0-7.27,3.15-7.27,8.49s2.56,8.49,7.27,8.49c4.33,0,7.23-3.15,7.23-8.49Z"/><path class="cls-1" d="m454.72,1596.53h-3.36v-5.08c0-3.95.88-5.29,3.4-5.96l.67,1.85c-1.76.67-2.06,1.09-2.06,3.78v.34h1.34v5.08Zm5.92,0h-3.36v-5.08c0-3.95.88-5.29,3.4-5.96l.67,1.85c-1.76.67-2.06,1.09-2.06,3.78v.34h1.34v5.08Z"/><path class="cls-1" d="m475.18,1588.67h-11.51v-2.6h25.96v2.6h-11.51v30.16h-2.94v-30.16Z"/><path class="cls-1" d="m491.93,1595.27c1.76-.67,2.06-1.09,2.06-3.78v-.34h-1.34v-5.08h3.36v5.08c0,3.95-.88,5.29-3.4,5.96l-.67-1.85Zm5.92,0c1.76-.67,2.06-1.09,2.06-3.78v-.34h-1.34v-5.08h3.36v5.08c0,3.95-.88,5.29-3.4,5.96l-.67-1.85Z"/><path class="cls-1" d="m516.21,1613.04c0-3.95,2.23-6.09,7.86-6.09h6.34v-1.72c0-2.98-1.26-5.42-5.46-5.42-3.95,0-5.33,1.51-5.33,4.12v.88h-2.98v-.84c0-5,4.2-6.68,8.32-6.68,5.8,0,8.4,2.86,8.4,8.44v13.11h-2.06l-.55-2.98h-.08c-1.26,1.89-3.7,3.53-7.35,3.53-4.91,0-7.1-2.31-7.1-6.34Zm14.2-1.85v-1.76h-7.02c-2.65,0-4.03.92-4.03,3.61,0,2.35,1.26,3.86,4.5,3.86,4.16,0,6.55-2.14,6.55-5.71Z"/><path class="cls-1" d="m540.7,1597.83h2.6l.29,3.49c1.01-2.14,3.28-4.03,7.35-4.03,4.75,0,7.77,2.52,7.77,7.94v13.61h-2.94v-13.27c0-4.33-2.14-5.71-5.5-5.71-3.82,0-6.64,2.69-6.64,5.63v13.36h-2.94v-21Z"/><path class="cls-1" d="m564.38,1608.37c0-7.1,4.28-11.09,10.04-11.09,3.7,0,6.22,1.6,7.31,3.74h.04v-14.95h2.94v32.77h-1.97l-.67-3.61h-.08c-1.18,2.31-3.95,4.16-7.77,4.16-6.3,0-9.83-3.99-9.83-11.01Zm17.64-.5c0-5.5-3.36-8.07-7.35-8.07-3.11,0-7.14,1.47-7.14,8.4s3.61,8.61,7.14,8.61c4.24,0,7.35-2.73,7.35-8.95Z"/><path class="cls-1" d="m603.4,1596.53h-3.36v-5.08c0-3.95.88-5.29,3.4-5.96l.67,1.85c-1.76.67-2.06,1.09-2.06,3.78v.34h1.34v5.08Zm5.92,0h-3.36v-5.08c0-3.95.88-5.29,3.4-5.96l.67,1.85c-1.76.67-2.06,1.09-2.06,3.78v.34h1.34v5.08Z"/><path class="cls-1" d="m616.76,1586.07h2.94v32.77h-2.94v-32.77Z"/><path class="cls-1" d="m626.42,1595.27c1.76-.67,2.06-1.09,2.06-3.78v-.34h-1.34v-5.08h3.36v5.08c0,3.95-.88,5.29-3.4,5.96l-.67-1.85Zm5.92,0c1.76-.67,2.06-1.09,2.06-3.78v-.34h-1.34v-5.08h3.36v5.08c0,3.95-.88,5.29-3.4,5.96l-.67-1.85Z"/><line class="cls-6" x1="360.44" y1="1558.85" x2="360.44" y2="1371.34"/><path class="cls-1" d="m847.7,2437.37c0-12.01,6.76-17.27,14.74-17.27,6.97,0,12.39,3.74,12.39,12.01v.8h-2.86v-.92c0-5.92-3.78-9.24-9.45-9.24-6.72,0-11.76,4.58-11.76,14.32s5.04,14.24,11.72,14.24c5.38,0,9.54-2.86,9.54-9.2v-.59h2.77v.42c0,8.02-5.33,12.01-12.56,12.01-7.98,0-14.54-4.87-14.54-16.59Z"/><path class="cls-1" d="m881.13,2420.65h2.94v32.77h-2.94v-32.77Z"/><path class="cls-1" d="m889.74,2442.91c0-6.22,3.32-11.05,10.38-11.05,6.59,0,10.25,4.83,10.25,11.05s-3.7,11.05-10.29,11.05c-7.27,0-10.33-4.83-10.33-11.05Zm17.56,0c0-5.34-2.9-8.49-7.23-8.49-4.75,0-7.27,3.15-7.27,8.49s2.56,8.48,7.27,8.48c4.33,0,7.23-3.15,7.23-8.48Z"/><path class="cls-1" d="m914.36,2446.99v-1.18h2.94v1.13c0,2.86,2.14,4.49,5.96,4.49s5.8-1.01,5.8-3.78c0-2.06-1.01-2.81-3.86-3.32l-4.62-.84c-3.02-.55-5.54-2.02-5.54-5.5,0-3.15,2.35-6.13,8.4-6.13s8.4,3.03,8.4,7.23v.88h-2.98v-.76c0-3.45-2.14-4.91-5.42-4.91-3.95,0-5.33,1.34-5.33,3.36s1.01,2.86,3.91,3.4l4.03.76c4.12.76,6.09,1.93,6.09,5.59,0,4.58-4.12,6.55-8.78,6.55-7.31,0-8.99-3.28-8.99-6.97Z"/><path class="cls-1" d="m955.27,2443.92h-15.96c.17,4.79,2.48,7.48,6.93,7.48,3.82,0,5.67-1.43,5.96-4.83h2.98c-.29,4.24-3.28,7.39-9.03,7.39-7.06,0-9.83-4.66-9.83-10.88s3.23-11.22,10-11.22,8.95,3.99,8.95,10.21v1.85Zm-3.11-2.98c0-4.45-1.72-6.55-5.92-6.55s-6.55,2.65-6.89,6.97h12.81v-.42Z"/><path class="cls-1" d="m959.46,2442.96c0-7.1,4.29-11.09,10.04-11.09,3.7,0,6.22,1.6,7.31,3.74h.04v-14.95h2.94v32.77h-1.97l-.67-3.61h-.08c-1.18,2.31-3.95,4.16-7.77,4.16-6.3,0-9.83-3.99-9.83-11.01Zm17.64-.5c0-5.5-3.36-8.06-7.35-8.06-3.11,0-7.14,1.47-7.14,8.4s3.61,8.61,7.14,8.61c4.24,0,7.35-2.73,7.35-8.95Z"/><path class="cls-1" d="m999.62,2449.93h-.08l-.76,3.49h-1.97v-32.77h2.94v15.25h.04c1.26-2.31,4.08-4.03,7.69-4.03,6.3,0,9.66,3.99,9.66,11.01s-4.29,11.09-9.87,11.09c-3.78,0-6.55-1.64-7.65-4.03Zm14.37-6.89c0-7.18-3.4-8.61-6.93-8.61-4.24,0-7.56,2.73-7.56,8.44,0,6.01,3.44,8.57,7.43,8.57,3.02,0,7.06-1.47,7.06-8.4Z"/><path class="cls-1" d="m1021.33,2442.91c0-6.22,3.32-11.05,10.38-11.05,6.59,0,10.25,4.83,10.25,11.05s-3.7,11.05-10.29,11.05c-7.27,0-10.33-4.83-10.33-11.05Zm17.56,0c0-5.34-2.9-8.49-7.23-8.49-4.75,0-7.27,3.15-7.27,8.49s2.56,8.48,7.27,8.48c4.33,0,7.23-3.15,7.23-8.48Z"/><path class="cls-1" d="m1044.26,2432.45v-.04h2.98l5.75,17.47h.08l6.3-17.47h2.69l6.17,17.47h.08l5.75-17.47h2.86v.04l-7.18,20.96h-3.03l-5.96-17.05h-.08l-6.22,17.05h-3.03l-7.18-20.96Z"/><path class="cls-1" d="m1081.77,2420.65h2.94v32.77h-2.94v-32.77Z"/><path class="cls-1" d="m1101.72,2420.65h2.98v6.51h-2.98v-6.51Zm0,11.76h2.94v21h-2.94v-21Z"/><path class="cls-1" d="m1112.05,2432.41h2.61l.29,3.49c1.01-2.14,3.28-4.03,7.35-4.03,4.75,0,7.77,2.52,7.77,7.94v13.61h-2.94v-13.28c0-4.33-2.14-5.71-5.5-5.71-3.82,0-6.64,2.69-6.64,5.63v13.36h-2.94v-21Z"/><path class="cls-1" d="m1148.76,2431.11h-3.36v-5.08c0-3.95.88-5.29,3.4-5.96l.67,1.85c-1.77.67-2.06,1.09-2.06,3.78v.34h1.34v5.08Zm5.92,0h-3.36v-5.08c0-3.95.88-5.29,3.4-5.96l.67,1.85c-1.76.67-2.06,1.09-2.06,3.78v.34h1.34v5.08Z"/><path class="cls-1" d="m1161.06,2432.41h2.39l.34,3.87h.08c1.13-2.48,4.03-4.41,7.86-4.41,6.3,0,9.66,3.99,9.66,11.01s-4.28,11.09-9.87,11.09c-3.78,0-6.38-1.6-7.44-3.7h-.08v11.55h-2.94v-29.4Zm17.18,10.63c0-7.18-3.4-8.61-6.93-8.61-4.24,0-7.56,2.73-7.56,8.44,0,6.01,3.44,8.57,7.44,8.57,3.02,0,7.06-1.47,7.06-8.4Z"/><path class="cls-1" d="m1182.65,2429.85c1.77-.67,2.06-1.09,2.06-3.78v-.34h-1.34v-5.08h3.36v5.08c0,3.95-.88,5.29-3.4,5.96l-.67-1.85Zm5.92,0c1.76-.67,2.06-1.09,2.06-3.78v-.34h-1.34v-5.08h3.36v5.08c0,3.95-.88,5.29-3.4,5.96l-.67-1.85Z"/><line class="cls-6" x1="1020.64" y1="2393.43" x2="1020.64" y2="2205.92"/><path class="cls-1" d="m61.25,3258.65h8.61c7.94,0,11.64,2.73,11.64,9.62,0,6.43-2.77,10.12-11.13,10.12h-6.13v13.02h-2.98v-32.77Zm9.28,17.22c6.09,0,7.94-2.69,7.94-7.65,0-5.21-2.6-6.97-8.44-6.97h-5.8v14.62h6.3Z"/><path class="cls-1" d="m84.64,3285.62c0-3.95,2.23-6.09,7.86-6.09h6.34v-1.72c0-2.98-1.26-5.42-5.46-5.42-3.95,0-5.33,1.51-5.33,4.12v.88h-2.98v-.84c0-5,4.2-6.68,8.32-6.68,5.8,0,8.4,2.86,8.4,8.44v13.11h-2.06l-.55-2.98h-.08c-1.26,1.89-3.7,3.53-7.35,3.53-4.92,0-7.1-2.31-7.1-6.34Zm14.2-1.85v-1.76h-7.01c-2.65,0-4.03.92-4.03,3.61,0,2.35,1.26,3.86,4.5,3.86,4.16,0,6.55-2.14,6.55-5.71Z"/><path class="cls-1" d="m109.13,3270.41h2.6l.29,3.91c1.01-2.14,3.07-4.45,6.76-4.45,1.26,0,2.18.21,3.02.55v3.15c-1.13-.5-2.1-.76-3.4-.76-3.74,0-6.34,2.81-6.34,5.75v12.85h-2.94v-21Z"/><path class="cls-1" d="m137.39,3288.73v2.6c-.76.21-2.14.59-4.03.59-3.82,0-6.34-1.6-6.34-6.89v-12.18h-4.16v-2.44h4.16v-6.05l2.94-1.43v7.48h5.92v2.44h-5.92v11.8c0,2.82.76,4.58,3.4,4.58,1.6,0,3.23-.29,4.03-.5Z"/><path class="cls-1" d="m142.22,3258.65h2.98v6.51h-2.98v-6.51Zm0,11.76h2.94v21h-2.94v-21Z"/><path class="cls-1" d="m151.29,3285.62c0-3.95,2.23-6.09,7.86-6.09h6.34v-1.72c0-2.98-1.26-5.42-5.46-5.42-3.95,0-5.33,1.51-5.33,4.12v.88h-2.98v-.84c0-5,4.2-6.68,8.32-6.68,5.8,0,8.4,2.86,8.4,8.44v13.11h-2.06l-.55-2.98h-.08c-1.26,1.89-3.7,3.53-7.35,3.53-4.92,0-7.1-2.31-7.1-6.34Zm14.2-1.85v-1.76h-7.01c-2.65,0-4.03.92-4.03,3.61,0,2.35,1.26,3.86,4.5,3.86,4.16,0,6.55-2.14,6.55-5.71Z"/><path class="cls-1" d="m175.78,3258.65h2.94v32.77h-2.94v-32.77Z"/><path class="cls-1" d="m186.07,3258.65h2.94v32.77h-2.94v-32.77Z"/><path class="cls-1" d="m196.36,3270.41l6.89,17.98h.08l7.14-17.98h3.07v.04l-8.86,20.84-3.11,8.53h-2.98v-.04l3.19-8.36-8.78-20.96v-.04h3.36Z"/><path class="cls-1" d="m230.34,3294.44c0,3.53-1.68,5.84-5.04,5.84-1.18,0-2.02-.13-2.94-.38v-2.6c.8.17,1.47.29,2.27.29,1.93,0,2.77-1.26,2.77-3.65v-23.52h2.94v24.03Zm-2.94-35.79h2.98v6.51h-2.98v-6.51Z"/><path class="cls-1" d="m236.05,3280.91c0-6.22,3.32-11.05,10.38-11.05,6.59,0,10.25,4.83,10.25,11.05s-3.7,11.05-10.29,11.05c-7.27,0-10.33-4.83-10.33-11.05Zm17.56,0c0-5.33-2.9-8.49-7.23-8.49-4.75,0-7.27,3.15-7.27,8.49s2.56,8.49,7.27,8.49c4.33,0,7.23-3.15,7.23-8.49Z"/><path class="cls-1" d="m262.55,3258.65h2.98v6.51h-2.98v-6.51Zm0,11.76h2.94v21h-2.94v-21Z"/><path class="cls-1" d="m272.88,3270.41h2.6l.29,3.49c1.01-2.14,3.28-4.03,7.35-4.03,4.75,0,7.77,2.52,7.77,7.94v13.61h-2.94v-13.27c0-4.33-2.14-5.71-5.5-5.71-3.82,0-6.64,2.69-6.64,5.63v13.36h-2.94v-21Z"/><path class="cls-1" d="m298.25,3258.65h2.98v6.51h-2.98v-6.51Zm0,11.76h2.94v21h-2.94v-21Z"/><path class="cls-1" d="m308.58,3270.41h2.6l.29,3.49c1.01-2.14,3.28-4.03,7.35-4.03,4.75,0,7.77,2.52,7.77,7.94v13.61h-2.94v-13.27c0-4.33-2.14-5.71-5.5-5.71-3.82,0-6.64,2.69-6.64,5.63v13.36h-2.94v-21Z"/><path class="cls-1" d="m333.32,3293.22v-.13h3.11v.13c0,2.9,1.93,4.33,6.13,4.33,4.79,0,7.02-2.94,7.02-7.86v-2.1h-.08c-1.09,2.18-3.65,4.07-7.48,4.07-6.3,0-9.75-3.99-9.75-10.71,0-7.1,4.37-11.09,9.96-11.09,3.78,0,6.55,1.81,7.56,4.12h.13l.29-3.57h2.31v19.16c0,5.88-2.81,10.71-10.33,10.71-6.3,0-8.86-2.98-8.86-7.06Zm16.59-12.77c0-5.5-3.36-8.07-7.35-8.07-3.02,0-7.14,1.47-7.14,8.4s3.57,8.32,7.1,8.32c4.24,0,7.39-2.73,7.39-8.65Z"/><path class="cls-1" d="m369.1,3284.02v-13.61h2.94v13.27c0,4.33,2.14,5.71,5.42,5.71,3.74,0,6.55-2.69,6.55-5.63v-13.36h2.94v21h-2.6l-.25-3.36h-.08c-.97,2.02-3.24,3.91-7.23,3.91-4.66,0-7.69-2.52-7.69-7.94Z"/><path class="cls-1" d="m394.3,3270.41h2.39l.34,3.87h.08c1.13-2.48,4.03-4.41,7.86-4.41,6.3,0,9.66,3.99,9.66,11.01s-4.29,11.09-9.87,11.09c-3.78,0-6.39-1.6-7.44-3.7h-.08v11.55h-2.94v-29.41Zm17.18,10.63c0-7.18-3.4-8.61-6.93-8.61-4.24,0-7.56,2.73-7.56,8.44,0,6.01,3.44,8.57,7.43,8.57,3.02,0,7.06-1.47,7.06-8.4Z"/><path class="cls-1" d="m420.51,3270.41h2.39l.34,3.87h.08c1.13-2.48,4.03-4.41,7.86-4.41,6.3,0,9.66,3.99,9.66,11.01s-4.29,11.09-9.87,11.09c-3.78,0-6.38-1.6-7.43-3.7h-.08v11.55h-2.94v-29.41Zm17.18,10.63c0-7.18-3.4-8.61-6.93-8.61-4.24,0-7.56,2.73-7.56,8.44,0,6.01,3.45,8.57,7.44,8.57,3.02,0,7.06-1.47,7.06-8.4Z"/><path class="cls-1" d="m463.98,3281.92h-15.96c.17,4.79,2.48,7.48,6.93,7.48,3.82,0,5.67-1.43,5.97-4.83h2.98c-.29,4.24-3.28,7.39-9.03,7.39-7.06,0-9.83-4.66-9.83-10.88s3.23-11.22,10-11.22,8.95,3.99,8.95,10.21v1.85Zm-3.11-2.98c0-4.45-1.72-6.55-5.92-6.55s-6.55,2.65-6.89,6.97h12.81v-.42Z"/><path class="cls-1" d="m469.86,3270.41h2.6l.29,3.91c1.01-2.14,3.07-4.45,6.76-4.45,1.26,0,2.18.21,3.02.55v3.15c-1.13-.5-2.1-.76-3.4-.76-3.74,0-6.34,2.81-6.34,5.75v12.85h-2.94v-21Z"/><path class="cls-1" d="m484.85,3281.08c0-6.38,3.23-11.22,10-11.22s8.95,3.91,8.95,8.95v.42h-3.11v-.63c0-3.82-1.64-6.09-5.84-6.09-4.75,0-7.02,3.11-7.02,8.4,0,5.63,2.39,8.49,6.93,8.49,3.82,0,5.84-1.85,5.92-5.67h3.02c-.08,4.66-3.15,8.23-9.03,8.23-7.22,0-9.83-4.75-9.83-10.88Z"/><path class="cls-1" d="m508.2,3285.62c0-3.95,2.23-6.09,7.86-6.09h6.34v-1.72c0-2.98-1.26-5.42-5.46-5.42-3.95,0-5.33,1.51-5.33,4.12v.88h-2.98v-.84c0-5,4.2-6.68,8.32-6.68,5.8,0,8.4,2.86,8.4,8.44v13.11h-2.06l-.55-2.98h-.08c-1.26,1.89-3.7,3.53-7.35,3.53-4.92,0-7.1-2.31-7.1-6.34Zm14.2-1.85v-1.76h-7.01c-2.65,0-4.03.92-4.03,3.61,0,2.35,1.26,3.86,4.5,3.86,4.16,0,6.55-2.14,6.55-5.71Z"/><path class="cls-1" d="m530.8,3284.99v-1.18h2.94v1.13c0,2.86,2.14,4.49,5.96,4.49s5.8-1.01,5.8-3.78c0-2.06-1.01-2.81-3.86-3.32l-4.62-.84c-3.02-.55-5.54-2.02-5.54-5.5,0-3.15,2.35-6.13,8.4-6.13s8.4,3.02,8.4,7.23v.88h-2.98v-.76c0-3.45-2.14-4.92-5.42-4.92-3.95,0-5.33,1.34-5.33,3.36s1.01,2.86,3.91,3.4l4.03.76c4.12.76,6.09,1.93,6.09,5.59,0,4.58-4.12,6.55-8.78,6.55-7.31,0-8.99-3.28-8.99-6.97Z"/><path class="cls-1" d="m571.71,3281.92h-15.96c.17,4.79,2.48,7.48,6.93,7.48,3.82,0,5.67-1.43,5.97-4.83h2.98c-.29,4.24-3.28,7.39-9.03,7.39-7.06,0-9.83-4.66-9.83-10.88s3.23-11.22,10-11.22,8.95,3.99,8.95,10.21v1.85Zm-3.11-2.98c0-4.45-1.72-6.55-5.92-6.55s-6.55,2.65-6.89,6.97h12.81v-.42Z"/><path class="cls-1" d="m587.25,3258.65h2.94v32.77h-2.94v-32.77Z"/><path class="cls-1" d="m614.8,3281.92h-15.96c.17,4.79,2.48,7.48,6.93,7.48,3.82,0,5.67-1.43,5.97-4.83h2.98c-.29,4.24-3.28,7.39-9.03,7.39-7.06,0-9.83-4.66-9.83-10.88s3.23-11.22,10-11.22,8.95,3.99,8.95,10.21v1.85Zm-3.11-2.98c0-4.45-1.72-6.55-5.92-6.55s-6.55,2.65-6.89,6.97h12.81v-.42Z"/><path class="cls-1" d="m621.27,3285.03v-12.18h-4.16v-2.44h4.16v-6.05l2.94-1.43v7.48h11.85v-6.05l2.94-1.43v7.48h5.92v2.44h-5.92v11.8c0,2.82.76,4.58,3.4,4.58,1.6,0,3.24-.29,4.03-.5v2.6c-.76.21-2.14.59-4.03.59-3.82,0-6.34-1.6-6.34-6.89v-12.18h-11.85v11.8c0,2.82.76,4.58,3.4,4.58,1.6,0,3.23-.29,4.03-.5v2.6c-.76.21-2.14.59-4.03.59-3.82,0-6.34-1.6-6.34-6.89Z"/><path class="cls-1" d="m667.89,3281.92h-15.96c.17,4.79,2.48,7.48,6.93,7.48,3.82,0,5.67-1.43,5.97-4.83h2.98c-.29,4.24-3.28,7.39-9.03,7.39-7.06,0-9.83-4.66-9.83-10.88s3.23-11.22,10-11.22,8.95,3.99,8.95,10.21v1.85Zm-3.11-2.98c0-4.45-1.72-6.55-5.92-6.55s-6.55,2.65-6.89,6.97h12.81v-.42Z"/><path class="cls-1" d="m673.76,3270.41h2.6l.29,3.91c1.01-2.14,3.07-4.45,6.76-4.45,1.26,0,2.18.21,3.02.55v3.15c-1.13-.5-2.1-.76-3.4-.76-3.74,0-6.34,2.81-6.34,5.75v12.85h-2.94v-21Z"/><path class="cls-1" d="m688.97,3284.99v-1.18h2.94v1.13c0,2.86,2.14,4.49,5.96,4.49s5.8-1.01,5.8-3.78c0-2.06-1.01-2.81-3.86-3.32l-4.62-.84c-3.02-.55-5.54-2.02-5.54-5.5,0-3.15,2.35-6.13,8.4-6.13s8.4,3.02,8.4,7.23v.88h-2.98v-.76c0-3.45-2.14-4.92-5.42-4.92-3.95,0-5.33,1.34-5.33,3.36s1.01,2.86,3.91,3.4l4.03.76c4.12.76,6.09,1.93,6.09,5.59,0,4.58-4.12,6.55-8.78,6.55-7.31,0-8.99-3.28-8.99-6.97Z"/><line class="cls-6" x1="162.32" y1="3231.43" x2="162.32" y2="3043.92"/><path class="cls-1" d="m1025.99,1665.4c0-11.72,6.76-16.93,15.46-16.93,7.94,0,14.7,5.21,14.7,16.59,0,12.48-6.76,17.26-15.08,17.26s-15.08-4.79-15.08-16.93Zm27.05,0c0-10.12-5.33-14.24-12.01-14.24s-11.93,4.12-11.93,14.24,5.33,14.2,12.01,14.2,11.93-3.74,11.93-14.2Z"/><path class="cls-1" d="m1059.3,1660.82v-.04h3.36l7.35,17.98h.08l7.1-17.98h3.07v.04l-8.74,20.96h-3.02l-9.2-20.96Z"/><path class="cls-1" d="m1101.09,1672.29h-15.96c.17,4.79,2.48,7.48,6.93,7.48,3.82,0,5.67-1.43,5.96-4.83h2.98c-.29,4.24-3.28,7.39-9.03,7.39-7.06,0-9.83-4.66-9.83-10.88s3.23-11.22,10-11.22,8.95,3.99,8.95,10.21v1.85Zm-3.11-2.98c0-4.45-1.72-6.55-5.92-6.55s-6.55,2.65-6.89,6.97h12.81v-.42Z"/><path class="cls-1" d="m1106.97,1660.78h2.6l.29,3.91c1.01-2.14,3.07-4.45,6.76-4.45,1.26,0,2.18.21,3.02.55v3.15c-1.13-.5-2.1-.76-3.4-.76-3.74,0-6.34,2.81-6.34,5.75v12.85h-2.94v-21Z"/><path class="cls-1" d="m1122.59,1675.98c0-3.95,2.23-6.09,7.86-6.09h6.34v-1.72c0-2.98-1.26-5.42-5.46-5.42-3.95,0-5.33,1.51-5.33,4.12v.88h-2.98v-.84c0-5,4.2-6.68,8.32-6.68,5.8,0,8.4,2.86,8.4,8.44v13.11h-2.06l-.55-2.98h-.08c-1.26,1.89-3.7,3.53-7.35,3.53-4.92,0-7.1-2.31-7.1-6.34Zm14.2-1.85v-1.76h-7.01c-2.65,0-4.03.92-4.03,3.61,0,2.35,1.26,3.86,4.5,3.86,4.16,0,6.55-2.14,6.55-5.71Z"/><path class="cls-1" d="m1147.08,1649.02h2.94v32.77h-2.94v-32.77Z"/><path class="cls-1" d="m1157.37,1649.02h2.94v32.77h-2.94v-32.77Z"/><path class="cls-1" d="m1177.32,1660.78h2.6l.29,3.49c1.01-2.14,3.28-4.03,7.35-4.03,4.75,0,7.77,2.52,7.77,7.94v13.61h-2.94v-13.27c0-4.33-2.14-5.71-5.5-5.71-3.82,0-6.64,2.69-6.64,5.63v13.36h-2.94v-21Z"/><path class="cls-1" d="m1201.43,1675.98c0-3.95,2.23-6.09,7.86-6.09h6.34v-1.72c0-2.98-1.26-5.42-5.46-5.42-3.95,0-5.33,1.51-5.33,4.12v.88h-2.98v-.84c0-5,4.2-6.68,8.32-6.68,5.8,0,8.4,2.86,8.4,8.44v13.11h-2.06l-.55-2.98h-.08c-1.26,1.89-3.7,3.53-7.35,3.53-4.92,0-7.1-2.31-7.1-6.34Zm14.2-1.85v-1.76h-7.01c-2.65,0-4.03.92-4.03,3.61,0,2.35,1.26,3.86,4.5,3.86,4.16,0,6.55-2.14,6.55-5.71Z"/><path class="cls-1" d="m1225.91,1660.78h2.6l.29,3.91c1.01-2.14,3.07-4.45,6.76-4.45,1.26,0,2.18.21,3.02.55v3.15c-1.13-.5-2.1-.76-3.4-.76-3.74,0-6.34,2.81-6.34,5.75v12.85h-2.94v-21Z"/><path class="cls-1" d="m1243.22,1660.78h2.6l.29,3.91c1.01-2.14,3.07-4.45,6.76-4.45,1.26,0,2.18.21,3.02.55v3.15c-1.13-.5-2.1-.76-3.4-.76-3.74,0-6.34,2.81-6.34,5.75v12.85h-2.94v-21Z"/><path class="cls-1" d="m1258.21,1671.28c0-6.22,3.32-11.05,10.38-11.05,6.59,0,10.25,4.83,10.25,11.05s-3.7,11.05-10.29,11.05c-7.27,0-10.33-4.83-10.33-11.05Zm17.56,0c0-5.33-2.9-8.49-7.23-8.49-4.75,0-7.27,3.15-7.27,8.49s2.56,8.49,7.27,8.49c4.33,0,7.23-3.15,7.23-8.49Z"/><path class="cls-1" d="m1281.14,1660.82v-.04h2.98l5.75,17.48h.08l6.3-17.48h2.69l6.17,17.48h.08l5.75-17.48h2.86v.04l-7.18,20.96h-3.03l-5.96-17.05h-.08l-6.22,17.05h-3.02l-7.18-20.96Z"/><path class="cls-1" d="m1328.31,1660.78h2.39l.34,3.87h.08c1.13-2.48,4.03-4.41,7.86-4.41,6.3,0,9.66,3.99,9.66,11.01s-4.28,11.09-9.87,11.09c-3.78,0-6.39-1.6-7.44-3.7h-.08v11.55h-2.94v-29.41Zm17.18,10.63c0-7.18-3.4-8.61-6.93-8.61-4.24,0-7.56,2.73-7.56,8.44,0,6.01,3.44,8.57,7.43,8.57,3.03,0,7.06-1.47,7.06-8.4Z"/><path class="cls-1" d="m1354.52,1660.78h2.6l.29,3.91c1.01-2.14,3.07-4.45,6.76-4.45,1.26,0,2.18.21,3.02.55v3.15c-1.13-.5-2.1-.76-3.4-.76-3.74,0-6.34,2.81-6.34,5.75v12.85h-2.94v-21Z"/><path class="cls-1" d="m1369.51,1671.28c0-6.22,3.32-11.05,10.38-11.05,6.59,0,10.25,4.83,10.25,11.05s-3.7,11.05-10.29,11.05c-7.27,0-10.33-4.83-10.33-11.05Zm17.56,0c0-5.33-2.9-8.49-7.23-8.49-4.75,0-7.27,3.15-7.27,8.49s2.56,8.49,7.27,8.49c4.33,0,7.23-3.15,7.23-8.49Z"/><path class="cls-1" d="m1396.01,1660.78h2.39l.34,3.87h.08c1.13-2.48,4.03-4.41,7.86-4.41,6.3,0,9.66,3.99,9.66,11.01s-4.28,11.09-9.87,11.09c-3.78,0-6.39-1.6-7.44-3.7h-.08v11.55h-2.94v-29.41Zm17.18,10.63c0-7.18-3.4-8.61-6.93-8.61-4.24,0-7.56,2.73-7.56,8.44,0,6.01,3.44,8.57,7.43,8.57,3.03,0,7.06-1.47,7.06-8.4Z"/><path class="cls-1" d="m1420.54,1671.28c0-6.22,3.32-11.05,10.38-11.05,6.6,0,10.25,4.83,10.25,11.05s-3.7,11.05-10.29,11.05c-7.27,0-10.33-4.83-10.33-11.05Zm17.56,0c0-5.33-2.9-8.49-7.23-8.49-4.75,0-7.27,3.15-7.27,8.49s2.56,8.49,7.27,8.49c4.33,0,7.23-3.15,7.23-8.49Z"/><path class="cls-1" d="m1447.04,1660.78h2.6l.29,3.91c1.01-2.14,3.07-4.45,6.76-4.45,1.26,0,2.18.21,3.02.55v3.15c-1.13-.5-2.1-.76-3.4-.76-3.74,0-6.34,2.81-6.34,5.75v12.85h-2.94v-21Z"/><path class="cls-1" d="m1475.31,1679.09v2.6c-.76.21-2.14.59-4.03.59-3.82,0-6.34-1.6-6.34-6.89v-12.18h-4.16v-2.44h4.16v-6.05l2.94-1.43v7.48h5.92v2.44h-5.92v11.8c0,2.82.76,4.58,3.4,4.58,1.6,0,3.23-.29,4.03-.5Z"/><path class="cls-1" d="m1480.14,1649.02h2.98v6.51h-2.98v-6.51Zm0,11.76h2.94v21h-2.94v-21Z"/><path class="cls-1" d="m1488.79,1671.28c0-6.22,3.32-11.05,10.38-11.05,6.6,0,10.25,4.83,10.25,11.05s-3.7,11.05-10.29,11.05c-7.27,0-10.33-4.83-10.33-11.05Zm17.56,0c0-5.33-2.9-8.49-7.23-8.49-4.75,0-7.27,3.15-7.27,8.49s2.56,8.49,7.27,8.49c4.33,0,7.23-3.15,7.23-8.49Z"/><path class="cls-1" d="m1515.29,1660.78h2.6l.29,3.49c1.01-2.14,3.28-4.03,7.35-4.03,4.75,0,7.77,2.52,7.77,7.94v13.61h-2.94v-13.27c0-4.33-2.14-5.71-5.5-5.71-3.82,0-6.64,2.69-6.64,5.63v13.36h-2.94v-21Z"/><path class="cls-1" d="m1538.77,1675.35v-1.18h2.94v1.13c0,2.86,2.14,4.49,5.96,4.49s5.8-1.01,5.8-3.78c0-2.06-1.01-2.81-3.86-3.32l-4.62-.84c-3.02-.55-5.54-2.02-5.54-5.5,0-3.15,2.35-6.13,8.4-6.13s8.4,3.02,8.4,7.23v.88h-2.98v-.76c0-3.45-2.14-4.92-5.42-4.92-3.95,0-5.33,1.34-5.33,3.36s1.01,2.86,3.91,3.4l4.03.76c4.12.76,6.09,1.93,6.09,5.59,0,4.58-4.12,6.55-8.78,6.55-7.31,0-8.99-3.28-8.99-6.97Z"/><line class="cls-6" x1="1497.08" y1="1765.53" x2="1497.08" y2="1698.02"/><line class="cls-6" x1="1509.67" y1="2779.26" x2="1509.67" y2="2631.75"/><path class="cls-1" d="m1150.83,2527.92h2.94v32.77h-2.94v-32.77Z"/><path class="cls-1" d="m1162.38,2539.68h2.6l.29,3.49c1.01-2.14,3.28-4.03,7.35-4.03,4.75,0,7.77,2.52,7.77,7.94v13.61h-2.94v-13.27c0-4.33-2.14-5.71-5.5-5.71-3.82,0-6.64,2.69-6.64,5.63v13.36h-2.94v-21Z"/><path class="cls-1" d="m1199.09,2538.38h-3.36v-5.08c0-3.95.88-5.29,3.4-5.96l.67,1.85c-1.76.67-2.06,1.09-2.06,3.78v.34h1.34v5.08Zm5.92,0h-3.36v-5.08c0-3.95.88-5.29,3.4-5.96l.67,1.85c-1.76.67-2.06,1.09-2.06,3.78v.34h1.34v5.08Z"/><path class="cls-1" d="m1211.4,2539.68h2.6l.29,3.49c1.01-2.14,3.28-4.03,7.35-4.03,4.75,0,7.77,2.52,7.77,7.94v13.61h-2.94v-13.27c0-4.33-2.14-5.71-5.5-5.71-3.82,0-6.64,2.69-6.64,5.63v13.36h-2.94v-21Z"/><path class="cls-1" d="m1233.82,2537.12c1.76-.67,2.06-1.09,2.06-3.78v-.34h-1.34v-5.08h3.36v5.08c0,3.95-.88,5.29-3.4,5.96l-.67-1.85Zm5.92,0c1.76-.67,2.06-1.09,2.06-3.78v-.34h-1.34v-5.08h3.36v5.08c0,3.95-.88,5.29-3.4,5.96l-.67-1.85Z"/><path class="cls-1" d="m1246.76,2554.47h3.36v6.22c0,3.95-.88,5.29-3.4,5.96l-.67-1.85c1.76-.67,2.06-1.09,2.06-3.78v-.34h-1.34v-6.22Z"/><path class="cls-1" d="m1267.76,2538.38h-3.36v-5.08c0-3.95.88-5.29,3.4-5.96l.67,1.85c-1.76.67-2.06,1.09-2.06,3.78v.34h1.34v5.08Zm5.92,0h-3.36v-5.08c0-3.95.88-5.29,3.4-5.96l.67,1.85c-1.76.67-2.06,1.09-2.06,3.78v.34h1.34v5.08Z"/><path class="cls-1" d="m1310.77,2547.07v13.61h-2.94v-13.27c0-4.33-2.14-5.71-4.75-5.71-3.82,0-6.17,2.69-6.17,5.63v13.36h-2.94v-13.27c0-4.33-1.85-5.71-4.83-5.71-3.61,0-6.13,2.69-6.13,5.63v13.36h-2.94v-21h2.6l.29,3.49c1.01-2.02,3.07-4.03,6.93-4.03,2.94,0,5.38,1.39,6.43,4.29,1.22-2.39,3.57-4.29,7.14-4.29,4.29,0,7.31,2.52,7.31,7.94Z"/><path class="cls-1" d="m1315.18,2537.12c1.76-.67,2.06-1.09,2.06-3.78v-.34h-1.34v-5.08h3.36v5.08c0,3.95-.88,5.29-3.4,5.96l-.67-1.85Zm5.92,0c1.76-.67,2.06-1.09,2.06-3.78v-.34h-1.34v-5.08h3.36v5.08c0,3.95-.88,5.29-3.4,5.96l-.67-1.85Z"/><path class="cls-1" d="m1328.11,2554.47h3.36v6.22c0,3.95-.88,5.29-3.4,5.96l-.67-1.85c1.76-.67,2.06-1.09,2.06-3.78v-.34h-1.34v-6.22Z"/><path class="cls-1" d="m1349.12,2538.38h-3.36v-5.08c0-3.95.88-5.29,3.4-5.96l.67,1.85c-1.76.67-2.06,1.09-2.06,3.78v.34h1.34v5.08Zm5.92,0h-3.36v-5.08c0-3.95.88-5.29,3.4-5.96l.67,1.85c-1.76.67-2.06,1.09-2.06,3.78v.34h1.34v5.08Z"/><path class="cls-1" d="m1359.74,2553.29v-13.61h2.94v13.27c0,4.33,2.14,5.71,5.42,5.71,3.74,0,6.55-2.69,6.55-5.63v-13.36h2.94v21h-2.6l-.25-3.36h-.08c-.97,2.02-3.23,3.91-7.23,3.91-4.66,0-7.69-2.52-7.69-7.94Z"/><path class="cls-1" d="m1382.42,2537.12c1.76-.67,2.06-1.09,2.06-3.78v-.34h-1.34v-5.08h3.36v5.08c0,3.95-.88,5.29-3.4,5.96l-.67-1.85Zm5.92,0c1.76-.67,2.06-1.09,2.06-3.78v-.34h-1.34v-5.08h3.36v5.08c0,3.95-.88,5.29-3.4,5.96l-.67-1.85Z"/><path class="cls-1" d="m1395.36,2554.47h3.36v6.22c0,3.95-.88,5.29-3.4,5.96l-.67-1.85c1.76-.67,2.06-1.09,2.06-3.78v-.34h-1.34v-6.22Z"/><path class="cls-1" d="m1416.36,2538.38h-3.36v-5.08c0-3.95.88-5.29,3.4-5.96l.67,1.85c-1.76.67-2.06,1.09-2.06,3.78v.34h1.34v5.08Zm5.92,0h-3.36v-5.08c0-3.95.88-5.29,3.4-5.96l.67,1.85c-1.76.67-2.06,1.09-2.06,3.78v.34h1.34v5.08Z"/><path class="cls-1" d="m1425.51,2539.72v-.04h3.36l7.35,17.98h.08l7.1-17.98h3.07v.04l-8.74,20.96h-3.02l-9.2-20.96Z"/><path class="cls-1" d="m1448.99,2537.12c1.76-.67,2.06-1.09,2.06-3.78v-.34h-1.34v-5.08h3.36v5.08c0,3.95-.88,5.29-3.4,5.96l-.67-1.85Zm5.92,0c1.76-.67,2.06-1.09,2.06-3.78v-.34h-1.34v-5.08h3.36v5.08c0,3.95-.88,5.29-3.4,5.96l-.67-1.85Z"/><path class="cls-1" d="m1461.93,2554.47h3.36v6.22c0,3.95-.88,5.29-3.4,5.96l-.67-1.85c1.76-.67,2.06-1.09,2.06-3.78v-.34h-1.34v-6.22Z"/><path class="cls-1" d="m1482.93,2538.38h-3.36v-5.08c0-3.95.88-5.29,3.4-5.96l.67,1.85c-1.76.67-2.06,1.09-2.06,3.78v.34h1.34v5.08Zm5.92,0h-3.36v-5.08c0-3.95.88-5.29,3.4-5.96l.67,1.85c-1.76.67-2.06,1.09-2.06,3.78v.34h1.34v5.08Z"/><path class="cls-1" d="m1495.44,2539.68l6.89,17.98h.08l7.14-17.98h3.07v.04l-8.86,20.84-3.11,8.53h-2.98v-.04l3.19-8.36-8.78-20.96v-.04h3.36Z"/><path class="cls-1" d="m1514.93,2537.12c1.76-.67,2.06-1.09,2.06-3.78v-.34h-1.34v-5.08h3.36v5.08c0,3.95-.88,5.29-3.4,5.96l-.67-1.85Zm5.92,0c1.76-.67,2.06-1.09,2.06-3.78v-.34h-1.34v-5.08h3.36v5.08c0,3.95-.88,5.29-3.4,5.96l-.67-1.85Z"/><path class="cls-1" d="m1539.21,2554.89c0-3.95,2.23-6.09,7.86-6.09h6.34v-1.72c0-2.98-1.26-5.42-5.46-5.42-3.95,0-5.33,1.51-5.33,4.12v.88h-2.98v-.84c0-5,4.2-6.68,8.32-6.68,5.8,0,8.4,2.86,8.4,8.44v13.11h-2.06l-.55-2.98h-.08c-1.26,1.89-3.7,3.53-7.35,3.53-4.91,0-7.1-2.31-7.1-6.34Zm14.2-1.85v-1.76h-7.02c-2.65,0-4.03.92-4.03,3.61,0,2.35,1.26,3.86,4.5,3.86,4.16,0,6.55-2.14,6.55-5.71Z"/><path class="cls-1" d="m1563.69,2539.68h2.6l.29,3.49c1.01-2.14,3.28-4.03,7.35-4.03,4.75,0,7.77,2.52,7.77,7.94v13.61h-2.94v-13.27c0-4.33-2.14-5.71-5.5-5.71-3.82,0-6.64,2.69-6.64,5.63v13.36h-2.94v-21Z"/><path class="cls-1" d="m1587.38,2550.22c0-7.1,4.28-11.09,10.04-11.09,3.7,0,6.22,1.6,7.31,3.74h.04v-14.95h2.94v32.77h-1.97l-.67-3.61h-.08c-1.18,2.31-3.95,4.16-7.77,4.16-6.3,0-9.83-3.99-9.83-11.01Zm17.64-.5c0-5.5-3.36-8.07-7.35-8.07-3.11,0-7.14,1.47-7.14,8.4s3.61,8.61,7.14,8.61c4.24,0,7.35-2.73,7.35-8.95Z"/><path class="cls-1" d="m1626.4,2538.38h-3.36v-5.08c0-3.95.88-5.29,3.4-5.96l.67,1.85c-1.76.67-2.06,1.09-2.06,3.78v.34h1.34v5.08Zm5.92,0h-3.36v-5.08c0-3.95.88-5.29,3.4-5.96l.67,1.85c-1.76.67-2.06,1.09-2.06,3.78v.34h1.34v5.08Z"/><path class="cls-1" d="m1635.97,2539.72v-.04h2.98l5.75,17.48h.08l6.3-17.48h2.69l6.18,17.48h.08l5.75-17.48h2.86v.04l-7.18,20.96h-3.02l-5.96-17.05h-.08l-6.22,17.05h-3.02l-7.18-20.96Z"/><path class="cls-1" d="m1671.59,2537.12c1.76-.67,2.06-1.09,2.06-3.78v-.34h-1.34v-5.08h3.36v5.08c0,3.95-.88,5.29-3.4,5.96l-.67-1.85Zm5.92,0c1.76-.67,2.06-1.09,2.06-3.78v-.34h-1.34v-5.08h3.36v5.08c0,3.95-.88,5.29-3.4,5.96l-.67-1.85Z"/><path class="cls-1" d="m1684.53,2554.47h3.36v6.22c0,3.95-.88,5.29-3.4,5.96l-.67-1.85c1.76-.67,2.06-1.09,2.06-3.78v-.34h-1.34v-6.22Z"/><path class="cls-1" d="m1004.38,2600.04h-15.96c.17,4.79,2.48,7.48,6.93,7.48,3.82,0,5.67-1.43,5.96-4.83h2.98c-.29,4.24-3.28,7.39-9.03,7.39-7.06,0-9.83-4.66-9.83-10.88s3.23-11.22,10-11.22,8.95,3.99,8.95,10.21v1.85Zm-3.11-2.98c0-4.45-1.72-6.55-5.92-6.55s-6.55,2.65-6.89,6.97h12.81v-.42Z"/><path class="cls-1" d="m1010.26,2588.53h2.6l.29,3.49c1.01-2.14,3.28-4.03,7.35-4.03,4.75,0,7.77,2.52,7.77,7.94v13.61h-2.94v-13.27c0-4.33-2.14-5.71-5.5-5.71-3.82,0-6.64,2.69-6.64,5.63v13.36h-2.94v-21Z"/><path class="cls-1" d="m1046.59,2606.84v2.6c-.76.21-2.14.59-4.03.59-3.82,0-6.34-1.6-6.34-6.89v-12.18h-4.16v-2.44h4.16v-6.05l2.94-1.43v7.48h5.92v2.44h-5.92v11.8c0,2.82.76,4.58,3.4,4.58,1.6,0,3.23-.29,4.03-.5Z"/><path class="cls-1" d="m1051.42,2588.53h2.6l.29,3.91c1.01-2.14,3.07-4.45,6.76-4.45,1.26,0,2.18.21,3.02.55v3.15c-1.13-.5-2.1-.76-3.4-.76-3.74,0-6.34,2.81-6.34,5.75v12.85h-2.94v-21Z"/><path class="cls-1" d="m1068.93,2588.53l6.89,17.98h.08l7.14-17.98h3.07v.04l-8.86,20.84-3.11,8.53h-2.98v-.04l3.19-8.36-8.78-20.96v-.04h3.36Z"/><path class="cls-1" d="m1098.08,2603.1v-1.18h2.94v1.13c0,2.86,2.14,4.49,5.96,4.49s5.8-1.01,5.8-3.78c0-2.06-1.01-2.81-3.87-3.32l-4.62-.84c-3.02-.55-5.54-2.02-5.54-5.5,0-3.15,2.35-6.13,8.4-6.13s8.4,3.02,8.4,7.23v.88h-2.98v-.76c0-3.45-2.14-4.92-5.42-4.92-3.95,0-5.33,1.34-5.33,3.36s1.01,2.86,3.91,3.4l4.03.76c4.12.76,6.09,1.93,6.09,5.59,0,4.58-4.12,6.55-8.78,6.55-7.31,0-8.99-3.28-8.99-6.97Z"/><path class="cls-1" d="m1132.69,2606.84v2.6c-.76.21-2.14.59-4.03.59-3.82,0-6.34-1.6-6.34-6.89v-12.18h-4.16v-2.44h4.16v-6.05l2.94-1.43v7.48h5.92v2.44h-5.92v11.8c0,2.82.76,4.58,3.4,4.58,1.6,0,3.23-.29,4.03-.5Z"/><path class="cls-1" d="m1137.52,2588.53h2.6l.29,3.91c1.01-2.14,3.07-4.45,6.76-4.45,1.26,0,2.18.21,3.02.55v3.15c-1.13-.5-2.1-.76-3.4-.76-3.74,0-6.34,2.81-6.34,5.75v12.85h-2.94v-21Z"/><path class="cls-1" d="m1152.51,2599.03c0-6.22,3.32-11.05,10.38-11.05,6.59,0,10.25,4.83,10.25,11.05s-3.7,11.05-10.29,11.05c-7.27,0-10.33-4.83-10.33-11.05Zm17.56,0c0-5.33-2.9-8.49-7.23-8.49-4.75,0-7.27,3.15-7.27,8.49s2.56,8.49,7.27,8.49c4.33,0,7.23-3.15,7.23-8.49Z"/><path class="cls-1" d="m1178.38,2576.77h2.94v23.23l12.14-11.47h3.65v.04l-8.4,7.86,8.78,13.06v.04h-3.36l-7.39-11.22-5.42,5.04v6.17h-2.94v-32.77Z"/><path class="cls-1" d="m1218.75,2600.04h-15.96c.17,4.79,2.48,7.48,6.93,7.48,3.82,0,5.67-1.43,5.96-4.83h2.98c-.29,4.24-3.28,7.39-9.03,7.39-7.06,0-9.83-4.66-9.83-10.88s3.23-11.22,10-11.22,8.95,3.99,8.95,10.21v1.85Zm-3.11-2.98c0-4.45-1.72-6.55-5.92-6.55s-6.55,2.65-6.89,6.97h12.81v-.42Z"/><path class="cls-1" d="m1222.74,2603.1v-1.18h2.94v1.13c0,2.86,2.14,4.49,5.96,4.49s5.8-1.01,5.8-3.78c0-2.06-1.01-2.81-3.86-3.32l-4.62-.84c-3.02-.55-5.54-2.02-5.54-5.5,0-3.15,2.35-6.13,8.4-6.13s8.4,3.02,8.4,7.23v.88h-2.98v-.76c0-3.45-2.14-4.92-5.42-4.92-3.95,0-5.33,1.34-5.33,3.36s1.01,2.86,3.91,3.4l4.03.76c4.12.76,6.09,1.93,6.09,5.59,0,4.58-4.12,6.55-8.78,6.55-7.31,0-8.99-3.28-8.99-6.97Z"/><path class="cls-1" d="m1258.98,2612.56c0,3.53-1.68,5.84-5.04,5.84-1.18,0-2.02-.13-2.94-.38v-2.6c.8.17,1.47.29,2.27.29,1.93,0,2.77-1.26,2.77-3.65v-23.52h2.94v24.03Zm-2.94-35.79h2.98v6.51h-2.98v-6.51Z"/><path class="cls-1" d="m1264.69,2599.03c0-6.22,3.32-11.05,10.38-11.05,6.59,0,10.25,4.83,10.25,11.05s-3.7,11.05-10.29,11.05c-7.27,0-10.33-4.83-10.33-11.05Zm17.56,0c0-5.33-2.9-8.49-7.23-8.49-4.75,0-7.27,3.15-7.27,8.49s2.56,8.49,7.27,8.49c4.33,0,7.23-3.15,7.23-8.49Z"/><path class="cls-1" d="m1291.2,2576.77h2.98v6.51h-2.98v-6.51Zm0,11.76h2.94v21h-2.94v-21Z"/><path class="cls-1" d="m1301.53,2588.53h2.6l.29,3.49c1.01-2.14,3.28-4.03,7.35-4.03,4.75,0,7.77,2.52,7.77,7.94v13.61h-2.94v-13.27c0-4.33-2.14-5.71-5.5-5.71-3.82,0-6.64,2.69-6.64,5.63v13.36h-2.94v-21Z"/><path class="cls-1" d="m1347.52,2606.84v2.6c-.76.21-2.14.59-4.03.59-3.82,0-6.34-1.6-6.34-6.89v-12.18h-4.16v-2.44h4.16v-6.05l2.94-1.43v7.48h5.92v2.44h-5.92v11.8c0,2.82.76,4.58,3.4,4.58,1.6,0,3.23-.29,4.03-.5Z"/><path class="cls-1" d="m1352.35,2576.77h2.94v15.16c1.05-2.1,3.28-3.95,7.31-3.95,4.75,0,7.77,2.52,7.77,7.94v13.61h-2.94v-13.27c0-4.33-2.14-5.71-5.5-5.71-3.82,0-6.64,2.69-6.64,5.63v13.36h-2.94v-32.77Z"/><path class="cls-1" d="m1394.98,2600.04h-15.96c.17,4.79,2.48,7.48,6.93,7.48,3.82,0,5.67-1.43,5.96-4.83h2.98c-.29,4.24-3.28,7.39-9.03,7.39-7.06,0-9.83-4.66-9.83-10.88s3.23-11.22,10-11.22,8.95,3.99,8.95,10.21v1.85Zm-3.11-2.98c0-4.45-1.72-6.55-5.92-6.55s-6.55,2.65-6.89,6.97h12.81v-.42Z"/><path class="cls-1" d="m1410.52,2576.77h2.94v32.77h-2.94v-32.77Z"/><path class="cls-1" d="m1438.07,2600.04h-15.96c.17,4.79,2.48,7.48,6.93,7.48,3.82,0,5.67-1.43,5.96-4.83h2.98c-.29,4.24-3.28,7.39-9.03,7.39-7.06,0-9.83-4.66-9.83-10.88s3.23-11.22,10-11.22,8.95,3.99,8.95,10.21v1.85Zm-3.11-2.98c0-4.45-1.72-6.55-5.92-6.55s-6.55,2.65-6.89,6.97h12.81v-.42Z"/><path class="cls-1" d="m1444.54,2603.15v-12.18h-4.16v-2.44h4.16v-6.05l2.94-1.43v7.48h11.85v-6.05l2.94-1.43v7.48h5.92v2.44h-5.92v11.8c0,2.82.76,4.58,3.4,4.58,1.6,0,3.23-.29,4.03-.5v2.6c-.76.21-2.14.59-4.03.59-3.82,0-6.34-1.6-6.34-6.89v-12.18h-11.85v11.8c0,2.82.76,4.58,3.4,4.58,1.6,0,3.23-.29,4.03-.5v2.6c-.76.21-2.14.59-4.03.59-3.82,0-6.34-1.6-6.34-6.89Z"/><path class="cls-1" d="m1491.16,2600.04h-15.96c.17,4.79,2.48,7.48,6.93,7.48,3.82,0,5.67-1.43,5.96-4.83h2.98c-.29,4.24-3.28,7.39-9.03,7.39-7.06,0-9.83-4.66-9.83-10.88s3.23-11.22,10-11.22,8.95,3.99,8.95,10.21v1.85Zm-3.11-2.98c0-4.45-1.72-6.55-5.92-6.55s-6.55,2.65-6.89,6.97h12.81v-.42Z"/><path class="cls-1" d="m1497.04,2588.53h2.6l.29,3.91c1.01-2.14,3.07-4.45,6.76-4.45,1.26,0,2.18.21,3.02.55v3.15c-1.13-.5-2.1-.76-3.4-.76-3.74,0-6.34,2.81-6.34,5.75v12.85h-2.94v-21Z"/><path class="cls-1" d="m1524,2576.77h2.98v6.51h-2.98v-6.51Zm0,11.76h2.94v21h-2.94v-21Z"/><path class="cls-1" d="m1534.33,2588.53h2.6l.29,3.49c1.01-2.14,3.28-4.03,7.35-4.03,4.75,0,7.77,2.52,7.77,7.94v13.61h-2.94v-13.27c0-4.33-2.14-5.71-5.5-5.71-3.82,0-6.64,2.69-6.64,5.63v13.36h-2.94v-21Z"/><path class="cls-1" d="m1568.1,2603.73c0-3.95,2.23-6.09,7.86-6.09h6.34v-1.72c0-2.98-1.26-5.42-5.46-5.42-3.95,0-5.33,1.51-5.33,4.12v.88h-2.98v-.84c0-5,4.2-6.68,8.32-6.68,5.8,0,8.4,2.86,8.4,8.44v13.11h-2.06l-.55-2.98h-.08c-1.26,1.89-3.7,3.53-7.35,3.53-4.92,0-7.1-2.31-7.1-6.34Zm14.2-1.85v-1.76h-7.01c-2.65,0-4.03.92-4.03,3.61,0,2.35,1.26,3.86,4.5,3.86,4.16,0,6.55-2.14,6.55-5.71Z"/><path class="cls-1" d="m1600.36,2603.1v-1.18h2.94v1.13c0,2.86,2.14,4.49,5.96,4.49s5.8-1.01,5.8-3.78c0-2.06-1.01-2.81-3.86-3.32l-4.62-.84c-3.02-.55-5.54-2.02-5.54-5.5,0-3.15,2.35-6.13,8.4-6.13s8.4,3.02,8.4,7.23v.88h-2.98v-.76c0-3.45-2.14-4.92-5.42-4.92-3.95,0-5.33,1.34-5.33,3.36s1.01,2.86,3.91,3.4l4.03.76c4.12.76,6.09,1.93,6.09,5.59,0,4.58-4.12,6.55-8.78,6.55-7.31,0-8.99-3.28-8.99-6.97Z"/><path class="cls-1" d="m1624,2576.77h2.94v15.16c1.05-2.1,3.28-3.95,7.31-3.95,4.75,0,7.77,2.52,7.77,7.94v13.61h-2.94v-13.27c0-4.33-2.14-5.71-5.5-5.71-3.82,0-6.64,2.69-6.64,5.63v13.36h-2.94v-32.77Z"/><path class="cls-1" d="m1648.11,2603.73c0-3.95,2.23-6.09,7.86-6.09h6.34v-1.72c0-2.98-1.26-5.42-5.46-5.42-3.95,0-5.33,1.51-5.33,4.12v.88h-2.98v-.84c0-5,4.2-6.68,8.32-6.68,5.8,0,8.4,2.86,8.4,8.44v13.11h-2.06l-.55-2.98h-.08c-1.26,1.89-3.7,3.53-7.35,3.53-4.92,0-7.1-2.31-7.1-6.34Zm14.2-1.85v-1.76h-7.01c-2.65,0-4.03.92-4.03,3.61,0,2.35,1.26,3.86,4.5,3.86,4.16,0,6.55-2.14,6.55-5.71Z"/><path class="cls-1" d="m1672.6,2588.53h2.6l.29,3.91c1.01-2.14,3.07-4.45,6.76-4.45,1.26,0,2.18.21,3.02.55v3.15c-1.13-.5-2.1-.76-3.4-.76-3.74,0-6.34,2.81-6.34,5.75v12.85h-2.94v-21Z"/><path class="cls-1" d="m1689.9,2588.53h2.39l.34,3.87h.08c1.13-2.48,4.03-4.41,7.86-4.41,6.3,0,9.66,3.99,9.66,11.01s-4.28,11.09-9.87,11.09c-3.78,0-6.39-1.6-7.44-3.7h-.08v11.55h-2.94v-29.41Zm17.18,10.63c0-7.18-3.4-8.61-6.93-8.61-4.24,0-7.56,2.73-7.56,8.44,0,6.01,3.44,8.57,7.43,8.57,3.03,0,7.06-1.47,7.06-8.4Z"/><path class="cls-1" d="m1724.09,2599.2c0-6.38,3.23-11.22,10-11.22s8.95,3.91,8.95,8.95v.42h-3.11v-.63c0-3.82-1.64-6.09-5.84-6.09-4.75,0-7.01,3.11-7.01,8.4,0,5.63,2.39,8.49,6.93,8.49,3.82,0,5.84-1.85,5.92-5.67h3.03c-.08,4.66-3.15,8.23-9.03,8.23-7.22,0-9.83-4.75-9.83-10.88Z"/><path class="cls-1" d="m1747.23,2599.03c0-6.22,3.32-11.05,10.38-11.05,6.6,0,10.25,4.83,10.25,11.05s-3.7,11.05-10.29,11.05c-7.27,0-10.33-4.83-10.33-11.05Zm17.56,0c0-5.33-2.9-8.49-7.23-8.49-4.75,0-7.27,3.15-7.27,8.49s2.56,8.49,7.27,8.49c4.33,0,7.23-3.15,7.23-8.49Z"/><path class="cls-1" d="m1773.73,2588.53h2.6l.29,3.91c1.01-2.14,3.07-4.45,6.76-4.45,1.26,0,2.18.21,3.02.55v3.15c-1.13-.5-2.1-.76-3.4-.76-3.74,0-6.34,2.81-6.34,5.75v12.85h-2.94v-21Z"/><path class="cls-1" d="m1791.04,2588.53h2.6l.29,3.49c1.01-2.14,3.28-4.03,7.35-4.03,4.75,0,7.77,2.52,7.77,7.94v13.61h-2.94v-13.27c0-4.33-2.14-5.71-5.5-5.71-3.82,0-6.64,2.69-6.64,5.63v13.36h-2.94v-21Z"/><path class="cls-1" d="m1833.67,2600.04h-15.96c.17,4.79,2.48,7.48,6.93,7.48,3.82,0,5.67-1.43,5.97-4.83h2.98c-.29,4.24-3.28,7.39-9.03,7.39-7.06,0-9.83-4.66-9.83-10.88s3.23-11.22,10-11.22,8.95,3.99,8.95,10.21v1.85Zm-3.11-2.98c0-4.45-1.72-6.55-5.92-6.55s-6.55,2.65-6.89,6.97h12.81v-.42Z"/><path class="cls-1" d="m1839.55,2588.53h2.6l.29,3.91c1.01-2.14,3.07-4.45,6.76-4.45,1.26,0,2.18.21,3.02.55v3.15c-1.13-.5-2.1-.76-3.4-.76-3.74,0-6.34,2.81-6.34,5.75v12.85h-2.94v-21Z"/><circle class="cls-2" cx="1046.92" cy="1119.77" r="61.48"/><path class="cls-3" d="m1042.22,1181.08l13.36-76.79c.73-4.38-2.92-9.5-8.04-9.5-4.38,0-7.67,3.29-8.4,6.95l-13.16,76.39s7.32,2.29,16.25,2.95Z"/><line class="cls-6" x1="1049.59" y1="1050.28" x2="1049.59" y2="972.77"/><path class="cls-1" d="m836.53,922.19h-3.36v-5.08c0-3.95.88-5.29,3.4-5.96l.67,1.85c-1.76.67-2.06,1.09-2.06,3.78v.34h1.34v5.08Zm5.92,0h-3.36v-5.08c0-3.95.88-5.29,3.4-5.96l.67,1.85c-1.76.67-2.06,1.09-2.06,3.78v.34h1.34v5.08Z"/><path class="cls-1" d="m845.47,934.04c0-7.1,4.29-11.09,10.04-11.09,3.7,0,6.22,1.6,7.31,3.74h.04v-14.95h2.94v32.77h-1.97l-.67-3.61h-.08c-1.18,2.31-3.95,4.16-7.77,4.16-6.3,0-9.83-3.99-9.83-11.01Zm17.64-.5c0-5.5-3.36-8.07-7.35-8.07-3.11,0-7.14,1.47-7.14,8.4s3.61,8.61,7.14,8.61c4.24,0,7.35-2.73,7.35-8.95Z"/><path class="cls-1" d="m871.26,920.93c1.76-.67,2.06-1.09,2.06-3.78v-.34h-1.34v-5.08h3.36v5.08c0,3.95-.88,5.29-3.4,5.96l-.67-1.85Zm5.92,0c1.76-.67,2.06-1.09,2.06-3.78v-.34h-1.34v-5.08h3.36v5.08c0,3.95-.88,5.29-3.4,5.96l-.67-1.85Z"/><path class="cls-1" d="m896.79,911.73h2.94v15.16c1.05-2.1,3.28-3.95,7.31-3.95,4.75,0,7.77,2.52,7.77,7.94v13.61h-2.94v-13.27c0-4.33-2.14-5.71-5.5-5.71-3.82,0-6.64,2.69-6.64,5.63v13.36h-2.94v-32.77Z"/><path class="cls-1" d="m920.9,938.7c0-3.95,2.23-6.09,7.86-6.09h6.34v-1.72c0-2.98-1.26-5.42-5.46-5.42-3.95,0-5.33,1.51-5.33,4.12v.88h-2.98v-.84c0-5,4.2-6.68,8.32-6.68,5.8,0,8.4,2.86,8.4,8.44v13.11h-2.06l-.55-2.98h-.08c-1.26,1.89-3.7,3.53-7.35,3.53-4.92,0-7.1-2.31-7.1-6.34Zm14.2-1.85v-1.76h-7.01c-2.65,0-4.03.92-4.03,3.61,0,2.35,1.26,3.86,4.5,3.86,4.16,0,6.55-2.14,6.55-5.71Z"/><path class="cls-1" d="m943.5,938.07v-1.18h2.94v1.13c0,2.86,2.14,4.49,5.96,4.49s5.8-1.01,5.8-3.78c0-2.06-1.01-2.81-3.87-3.32l-4.62-.84c-3.02-.55-5.54-2.02-5.54-5.5,0-3.15,2.35-6.13,8.4-6.13s8.4,3.02,8.4,7.23v.88h-2.98v-.76c0-3.45-2.14-4.92-5.42-4.92-3.95,0-5.33,1.34-5.33,3.36s1.01,2.86,3.91,3.4l4.03.76c4.12.76,6.09,1.93,6.09,5.59,0,4.58-4.12,6.55-8.78,6.55-7.31,0-8.99-3.28-8.99-6.97Z"/><path class="cls-1" d="m974.91,938.07v-1.18h2.94v1.13c0,2.86,2.14,4.49,5.96,4.49s5.8-1.01,5.8-3.78c0-2.06-1.01-2.81-3.87-3.32l-4.62-.84c-3.02-.55-5.54-2.02-5.54-5.5,0-3.15,2.35-6.13,8.4-6.13s8.4,3.02,8.4,7.23v.88h-2.98v-.76c0-3.45-2.14-4.92-5.42-4.92-3.95,0-5.33,1.34-5.33,3.36s1.01,2.86,3.91,3.4l4.03.76c4.12.76,6.09,1.93,6.09,5.59,0,4.58-4.12,6.55-8.78,6.55-7.31,0-8.99-3.28-8.99-6.97Z"/><path class="cls-1" d="m998.56,911.73h2.94v15.16c1.05-2.1,3.28-3.95,7.31-3.95,4.75,0,7.77,2.52,7.77,7.94v13.61h-2.94v-13.27c0-4.33-2.14-5.71-5.5-5.71-3.82,0-6.64,2.69-6.64,5.63v13.36h-2.94v-32.77Z"/><path class="cls-1" d="m1022.25,933.99c0-6.22,3.32-11.05,10.38-11.05,6.6,0,10.25,4.83,10.25,11.05s-3.7,11.05-10.29,11.05c-7.27,0-10.33-4.83-10.33-11.05Zm17.56,0c0-5.33-2.9-8.49-7.23-8.49-4.75,0-7.27,3.15-7.27,8.49s2.56,8.49,7.27,8.49c4.33,0,7.23-3.15,7.23-8.49Z"/><path class="cls-1" d="m1048.75,923.49h2.6l.29,3.91c1.01-2.14,3.07-4.45,6.76-4.45,1.26,0,2.18.21,3.02.55v3.15c-1.13-.5-2.1-.76-3.4-.76-3.74,0-6.34,2.81-6.34,5.75v12.85h-2.94v-21Z"/><path class="cls-1" d="m1077.02,941.81v2.6c-.76.21-2.14.59-4.03.59-3.82,0-6.34-1.6-6.34-6.89v-12.18h-4.16v-2.44h4.16v-6.05l2.94-1.43v7.48h5.92v2.44h-5.92v11.8c0,2.82.76,4.58,3.4,4.58,1.6,0,3.23-.29,4.03-.5Z"/><path class="cls-1" d="m1090.25,938.7c0-3.95,2.23-6.09,7.86-6.09h6.34v-1.72c0-2.98-1.26-5.42-5.46-5.42-3.95,0-5.33,1.51-5.33,4.12v.88h-2.98v-.84c0-5,4.2-6.68,8.32-6.68,5.8,0,8.4,2.86,8.4,8.44v13.11h-2.06l-.55-2.98h-.08c-1.26,1.89-3.7,3.53-7.35,3.53-4.92,0-7.1-2.31-7.1-6.34Zm14.2-1.85v-1.76h-7.02c-2.65,0-4.03.92-4.03,3.61,0,2.35,1.26,3.86,4.5,3.86,4.16,0,6.55-2.14,6.55-5.71Z"/><path class="cls-1" d="m1112.84,938.07v-1.18h2.94v1.13c0,2.86,2.14,4.49,5.96,4.49s5.8-1.01,5.8-3.78c0-2.06-1.01-2.81-3.86-3.32l-4.62-.84c-3.02-.55-5.54-2.02-5.54-5.5,0-3.15,2.35-6.13,8.4-6.13s8.4,3.02,8.4,7.23v.88h-2.98v-.76c0-3.45-2.14-4.92-5.42-4.92-3.95,0-5.33,1.34-5.33,3.36s1.01,2.86,3.91,3.4l4.03.76c4.12.76,6.09,1.93,6.09,5.59,0,4.58-4.12,6.55-8.78,6.55-7.31,0-8.99-3.28-8.99-6.97Z"/><path class="cls-1" d="m1134.81,934.16c0-6.38,3.23-11.22,10-11.22s8.95,3.91,8.95,8.95v.42h-3.11v-.63c0-3.82-1.64-6.09-5.84-6.09-4.75,0-7.02,3.11-7.02,8.4,0,5.63,2.39,8.49,6.93,8.49,3.82,0,5.84-1.85,5.92-5.67h3.02c-.08,4.66-3.15,8.23-9.03,8.23-7.23,0-9.83-4.75-9.83-10.88Z"/><path class="cls-1" d="m1176.9,935h-15.96c.17,4.79,2.48,7.48,6.93,7.48,3.82,0,5.67-1.43,5.96-4.83h2.98c-.29,4.24-3.28,7.39-9.03,7.39-7.06,0-9.83-4.66-9.83-10.88s3.23-11.22,10-11.22,8.95,3.99,8.95,10.21v1.85Zm-3.11-2.98c0-4.45-1.72-6.55-5.92-6.55s-6.55,2.65-6.89,6.97h12.81v-.42Z"/><path class="cls-1" d="m1182.77,923.49h2.6l.29,3.49c1.01-2.14,3.28-4.03,7.35-4.03,4.75,0,7.77,2.52,7.77,7.94v13.61h-2.94v-13.27c0-4.33-2.14-5.71-5.5-5.71-3.82,0-6.64,2.69-6.64,5.63v13.36h-2.94v-21Z"/><path class="cls-1" d="m1206.46,934.04c0-7.1,4.28-11.09,10.04-11.09,3.7,0,6.22,1.6,7.31,3.74h.04v-14.95h2.94v32.77h-1.97l-.67-3.61h-.08c-1.18,2.31-3.95,4.16-7.77,4.16-6.3,0-9.83-3.99-9.83-11.01Zm17.64-.5c0-5.5-3.36-8.07-7.35-8.07-3.11,0-7.14,1.47-7.14,8.4s3.61,8.61,7.14,8.61c4.24,0,7.35-2.73,7.35-8.95Z"/><path class="cls-1" d="m1251.4,935h-15.96c.17,4.79,2.48,7.48,6.93,7.48,3.82,0,5.67-1.43,5.96-4.83h2.98c-.29,4.24-3.28,7.39-9.03,7.39-7.06,0-9.83-4.66-9.83-10.88s3.23-11.22,10-11.22,8.95,3.99,8.95,10.21v1.85Zm-3.11-2.98c0-4.45-1.72-6.55-5.92-6.55s-6.55,2.65-6.89,6.97h12.81v-.42Z"/><path class="cls-1" d="m1257.28,923.49h2.6l.29,3.91c1.01-2.14,3.07-4.45,6.76-4.45,1.26,0,2.18.21,3.02.55v3.15c-1.13-.5-2.1-.76-3.4-.76-3.74,0-6.34,2.81-6.34,5.75v12.85h-2.94v-21Z"/></g></svg>