<?xml version="1.0" encoding="UTF-8"?><svg xmlns="http://www.w3.org/2000/svg" xmlns:xlink="http://www.w3.org/1999/xlink" viewBox="0 0 1920 3757.74"><defs><style>.cls-1,.cls-2,.cls-3,.cls-4,.cls-5,.cls-6,.cls-7,.cls-8,.cls-9,.cls-10{fill:none;}.cls-11{clip-path:url(#clippath);}.cls-2{stroke-dasharray:0 0 1.74 17.36;}.cls-2,.cls-3,.cls-4,.cls-5,.cls-6,.cls-7,.cls-8,.cls-9,.cls-10{stroke-miterlimit:10;}.cls-2,.cls-3,.cls-4,.cls-5,.cls-6,.cls-7,.cls-9,.cls-10{stroke:#a797c9;stroke-linecap:round;stroke-width:7px;}.cls-12{fill:#fff;}.cls-13{fill:#937fbb;}.cls-14{fill:#171c32;}.cls-15{fill:#947fbb;}.cls-4{stroke-dasharray:0 0 1.93 19.33;}.cls-16{clip-path:url(#clippath-1);}.cls-17{clip-path:url(#clippath-2);}.cls-5{stroke-dasharray:0 0 1.7 17.01;}.cls-6{stroke-dasharray:0 0 1.8 17.98;}.cls-7{stroke-dasharray:0 0 1.74 17.42;}.cls-8{stroke:#57678b;stroke-width:3.5px;}.cls-9{stroke-dasharray:0 0 1.77 17.68;}.cls-10{stroke-dasharray:0 0 1.73 17.27;}</style><clipPath id="clippath"><rect class="cls-1" x="1256.92" y="1217.69" width="166.6" height="166.6" rx="83.3" ry="83.3"/></clipPath><clipPath id="clippath-1"><rect class="cls-1" x="1000.89" y="2111.32" width="214.6" height="214.6" rx="107.3" ry="107.3"/></clipPath><clipPath id="clippath-2"><circle class="cls-1" cx="903.51" cy="3380.95" r="143.7"/></clipPath></defs><g id="Background"><rect class="cls-14" width="1920" height="3757.74"/></g><g id="Horizontal_Guides"><line class="cls-8" y1="2910.85" x2="1920" y2="2910.85"/><line class="cls-8" y1="3090.55" x2="1920" y2="3090.55"/><line class="cls-8" x1="1920" y1="3280.7" y2="3280.7"/><line class="cls-8" y1="3463.78" x2="1920" y2="3463.78"/><line class="cls-8" y1="202.17" x2="1920" y2="202.17"/><line class="cls-8" y1="381.87" x2="1920" y2="381.87"/><line class="cls-8" x1="1920" y1="572.02" y2="572.02"/><line class="cls-8" y1="755.1" x2="1920" y2="755.1"/><line class="cls-8" y1="1104.42" x2="1920" y2="1104.42"/><line class="cls-8" y1="1284.12" x2="1920" y2="1284.12"/><line class="cls-8" x1="1920" y1="1474.27" y2="1474.27"/><line class="cls-8" y1="1657.35" x2="1920" y2="1657.35"/><line class="cls-8" y1="2007.35" x2="1920" y2="2007.35"/><line class="cls-8" y1="2187.05" x2="1920" y2="2187.05"/><line class="cls-8" x1="1920" y1="2377.21" y2="2377.21"/><line class="cls-8" y1="2560.29" x2="1920" y2="2560.29"/></g><g id="Layer_1"><circle class="cls-13" cx="903.51" cy="3380.95" r="143.7"/><rect class="cls-13" x="1256.92" y="1217.69" width="166.6" height="166.6" rx="83.3" ry="83.3"/><line class="cls-3" x1="1753.85" y1="2897.38" x2="1753.85" y2="2896.5"/><line class="cls-4" x1="1753.85" y1="2877.18" x2="1753.85" y2="2844.33"/><line class="cls-3" x1="1753.85" y1="2834.66" x2="1753.85" y2="2833.79"/><line class="cls-3" x1="350.58" y1="1780.91" x2="350.58" y2="1780.04"/><line class="cls-7" x1="350.58" y1="1762.62" x2="350.58" y2="1503.11"/><line class="cls-3" x1="350.58" y1="1494.4" x2="350.58" y2="1493.53"/><line class="cls-3" x1="1290.28" y1="1771.42" x2="1290.28" y2="1770.55"/><line class="cls-5" x1="1290.28" y1="1753.54" x2="1290.28" y2="1406.5"/><line class="cls-3" x1="1290.28" y1="1397.99" x2="1290.28" y2="1397.12"/><line class="cls-3" x1="637.34" y1="2897.38" x2="637.34" y2="2896.5"/><line class="cls-4" x1="637.34" y1="2877.18" x2="637.34" y2="2844.33"/><line class="cls-3" x1="637.34" y1="2834.66" x2="637.34" y2="2833.79"/><line class="cls-3" x1="895.76" y1="3573.08" x2="895.76" y2="3572.21"/><line class="cls-9" x1="895.76" y1="3554.53" x2="895.76" y2="3543.92"/><line class="cls-3" x1="895.76" y1="3535.08" x2="895.76" y2="3534.21"/><path class="cls-13" d="m135.81,1460.13c8.95-6.15,18.18-12.02,27.13-18.18,23.49-16.78,46.43-34.68,69.08-52.58-17.34-27.97-21.81-60.69-21.81-92.86,0-7.27.28-10.35,9.23-10.35,3.92,0,4.75.56,5.59,4.19,1.4,5.04,2.24,9.23,5.03,13.99,9.23,17.34,33.56,38.04,52.58,43.63,27.13-23.21,52.58-48.94,77.75-74.11-7.83-14.54-13.42-33.84-13.42-50.34,0-26.01,6.99-48.94,20.42-71.04,13.98-23.22,33.84-48.67,63.77-48.67,20.98,0,37.76,13.7,37.76,35.52,0,36.92-61.25,106.56-87.26,132.57,10.35,9.79,26.29,11.19,39.99,11.19,46.43,0,111.87-38.32,145.15-69.08,5.88-5.31,24.33-27.41,31.32-27.41,3.64,0,6.99,2.8,6.99,6.71,0,5.87-40.55,49.22-47.27,56.49-12.59,13.99-20.7,31.05-30.77,46.71-10.07,15.66-19.58,31.32-29.09,47.27-15.1,25.45-28.25,52.3-46.71,75.51-20.14,25.45-66.57,52.3-99.29,52.3-53.42,0-82.51-30.21-111.87-70.48-17.06,12.59-87.82,70.76-102.92,70.76-3.35,0-5.31-1.68-5.31-5.31,0-3.36,1.4-4.75,3.92-6.43Zm89.22-138.72c3.64,22.94,6.71,38.88,19.3,58.74,9.23-6.99,18.18-14.27,27.13-21.54-15.94-6.43-36.92-22.65-46.43-37.2Zm126.98,135.37c32.16,0,67.4-24.33,88.1-47.55,13.98-15.66,24.89-38.32,35.52-56.5,18.74-32.16,36.64-64.89,58.45-95.09-33.28,17.62-74.12,40.27-112.43,40.27-17.34,0-36.92-2.24-50.06-14.82-24.33,23.77-49.22,46.99-74.68,69.36,9.79,3.92,28.81,4.2,39.72,4.2,8.95,0,18.18-.84,27.13-.84,3.92,0,6.43,2.24,6.43,6.43,0,10.07-20.14,8.11-27.13,8.11-14.26,0-43.63-1.68-56.49-7.27-11.47,9.79-22.1,20.42-34.12,29.37,26.85,37.2,50.06,64.33,99.57,64.33Zm19.86-194.1c20.42-20.7,82.23-96.49,82.23-123.34,0-12.31-11.19-20.7-22.93-20.7-25.17,0-41.95,23.77-52.58,43.63-12.02,22.1-16.78,36.64-16.78,62.09,0,12.3,4.75,27.13,10.07,38.32Z"/><path class="cls-12" d="m764.56,1473.28c-21.54,0-39.99-10.07-39.99-34.12,0-44.75,41.95-74.4,41.95-110.48,0-11.75-15.66-18.74-22.37-26.85-33,35.24-63.77,73.56-102.92,102.64-53.42,39.72-87.26,63.21-152.99,68.52h-1.4c-4.47.28-8.11-3.92-8.11-8.39,0-3.91,2.24-5.59,5.87-6.15,13.42-2.8,26.57-3.08,40.27-6.71,39.72-10.07,74.68-34.96,107.12-58.45,42.51-31.05,77.75-73.28,110.76-113.55.84-.84,1.4-2.52,2.8-2.52l1.12.56c3.08-.28,6.71,3.63,6.71,6.43,0,1.4-1.12,3.08-1.12,5.31,0,8.67,29.37,19.86,29.37,39.16,0,42.51-41.95,71.6-41.95,110.48,0,15.1,12.03,19.3,24.89,19.3,29.65,0,84.19-28.53,107.96-46.99v16.78c-24.33,17.9-78.03,45.03-107.96,45.03Z"/><path class="cls-12" d="m868.34,1414.26c30.49-20.42,61.53-41.39,89.78-64.89,38.32-32.17,77.19-62.93,130.33-62.93,8.95,0,42.23,3.35,42.23,16.22,0,19.86-27.69,52.58-39.44,68.52-15.66,21.53-30.21,44.47-30.21,72.16,0,13.42,20.98,13.42,29.93,13.42,23.21,0,81.11-30.21,99.29-45.31v16.78c-19.58,16.22-74.4,43.35-99.29,43.35-19.86,0-44.75-4.47-44.75-29.65,0-9.51,5.03-29.92,9.23-38.87-40.27,33.28-61.25,68.52-119.43,68.52-17.06,0-31.6-14.26-31.6-31.32,0-13.98,7.27-31.05,14.26-43.07-16.5,12.03-33.28,22.94-50.34,33.84v-16.78Zm219.27-113.27c-18.18,0-38.6,4.75-54.82,12.87-38.88,19.3-112.99,79.43-112.99,126.42,0,8.67,7.55,16.5,16.22,16.5,36.36,0,55.66-16.22,81.39-38.88,27.13-23.77,88.38-78.03,96.21-112.43-8.39-3.36-17.34-4.47-26.01-4.47Z"/><path class="cls-12" d="m1502.12,1314.14c-19.02,25.45-36.92,51.18-57.06,75.79-23.21,27.97-59.57,81.67-99.85,81.67-13.42,0-26.01-12.31-26.01-25.73,0-27.69,58.17-97.05,58.17-128.09,0-8.67-7.55-15.94-16.22-15.94-28.81,0-66.57,45.03-87.82,63.49-27.13,23.49-55.66,44.19-85.59,64.33v-16.78c28.53-19.86,56.22-40.55,82.51-62.93,22.93-19.58,59.29-63.21,90.9-63.21,17.34,0,31.32,15.38,31.32,32.44,0,36.36-58.17,99.85-58.17,126.7,0,5.31,5.59,10.91,10.91,10.91,31.6,0,70.2-55.1,89.5-77.75,16.5-19.3,31.88-39.72,46.43-60.97,6.99-10.07,13.15-20.7,20.7-30.49,1.4-1.68,3.07-3.64,5.59-3.64,5.87,0,8.95,1.4,8.95,7.83,0,35.52,6.99,81.95,52.86,79.71v14.82h-4.75c-39.16,1.4-63.77-35.24-62.37-72.16Z"/><path class="cls-12" d="m1566.19,1371.47c3.35.28,6.99.56,10.35.56,7.83,0,15.38-.84,22.93-.56,12.03-26.85,35.8-84.46,70.76-84.46,16.78,0,29.65,13.7,29.65,30.2,0,30.49-38.88,67.97-69.09,67.97-7.55,0-15.66,1.68-23.21,1.12-7,13.98-16.78,36.92-16.78,52.58,0,13.98,7.83,19.3,20.98,19.3,32.16,0,85.3-27.69,111.59-46.71v16.78c-27.97,19.02-78.03,44.75-111.59,44.75-20.42,0-35.8-12.02-35.8-33.28,0-12.03,11.19-42.23,16.5-53.42-6.43-.28-12.59.28-19.02.28-2.52,0-4.75,0-7.27-.28v-14.82Zm104.88-69.92c-26.85,0-47.27,49.5-56.49,70.2,5.59.28,11.19-.84,16.5-.84,22.65,0,54.54-30.76,54.54-53.42,0-7.55-6.44-15.94-14.55-15.94Z"/><path class="cls-12" d="m227.41,3080.04c-5.87-12.03-6.99-30.49-6.99-43.91,0-32.72,20.42-68.52,44.19-90.06,18.74-16.78,56.22-32.72,81.67-32.72,28.25,0,49.78,3.64,71.6,23.21.84-3.64,5.59-22.37,9.79-22.37,7.83,0,10.35,3.08,10.35,10.07,0,6.43-10.35,32.45-13.15,40.27-19.86-26.01-45.31-36.92-77.47-36.92-23.77,0-54.82,14.26-72.72,29.37-20.98,17.9-39.44,49.78-39.44,77.75,0,12.87.84,28.53,6.99,39.99,8.39-2.24,17.34-3.08,26.01-3.08,20.7,0,56.22,8.39,56.22,34.68,0,16.22-22.37,19.58-34.68,19.58-26.01,0-43.63-10.35-55.94-33.28-39.99,17.34-75.23,54.26-75.23,100.13,0,52.58,51.74,74.96,97.61,74.96,34.4,0,102.64-25.73,129.77-46.71v16.78c-29.09,21.82-93.41,44.75-129.77,44.75-32.72,0-59.29-6.99-84.46-28.53-19.3-16.22-28.53-36.36-28.53-61.53,0-50.9,39.72-93.14,84.19-112.43Zm41.95,5.31c-7.27,0-14.54.56-21.53,2.24,10.35,19.58,22.93,23.77,44.19,23.77,4.75,0,17.06,0,17.06-7.27,0-12.86-29.64-18.74-39.72-18.74Z"/><path class="cls-12" d="m582.9,3043.69h48.11c3.92,0,6.71,2.8,6.71,6.71,0,4.47-3.64,8.39-8.11,8.39h-54.82c-5.59,10.63-11.19,21.54-17.34,31.88-12.3,21.26-22.65,43.63-34.96,64.89-8.67,15.66-18.18,30.49-26.29,46.43-6.71,13.42-13.42,27.69-13.42,43.07,0,16.5,18.46,21.54,32.16,21.54,23.77,0,68.24-31.6,88.1-45.59v16.78c-21.53,15.38-61.53,43.91-88.1,43.91-22.93,0-46.99-10.63-46.99-36.64,0-34.4,34.68-82.51,51.18-112.71-43.35,39.16-88.38,75.79-136.77,108.24v-16.78c38.6-26.85,91.74-67.4,125.02-100.68,10.63-10.63,22.37-19.86,31.05-32.45,6.99-10.35,13.7-21.25,20.14-31.88h-49.79c-4.2,0-7.27-3.35-7.27-7.55s3.07-7.55,7.27-7.55h58.45c15.1-27.69,29.09-56.22,42.79-84.74,6.43-13.42,12.03-27.97,19.3-40.83,2.24-3.64,3.92-4.75,8.11-4.75,3.92,0,6.71,2.8,6.71,6.71,0,2.24-54.82,111.03-61.25,123.62Z"/><path class="cls-12" d="m598.85,3223.8c30.49-20.42,61.53-41.39,89.78-64.89,38.32-32.16,77.19-62.93,130.33-62.93,8.95,0,42.23,3.35,42.23,16.22,0,19.86-27.69,52.58-39.44,68.52-15.66,21.53-30.21,44.47-30.21,72.16,0,13.42,20.98,13.42,29.93,13.42,23.21,0,81.11-30.21,99.29-45.31v16.78c-19.58,16.22-74.4,43.35-99.29,43.35-19.86,0-44.75-4.47-44.75-29.65,0-9.51,5.03-29.92,9.23-38.87-40.27,33.28-61.25,68.52-119.43,68.52-17.06,0-31.6-14.26-31.6-31.32,0-13.98,7.27-31.05,14.26-43.07-16.5,12.03-33.28,22.93-50.34,33.84v-16.78Zm219.27-113.27c-18.18,0-38.6,4.75-54.82,12.87-38.88,19.3-112.99,79.43-112.99,126.42,0,8.67,7.55,16.5,16.22,16.5,36.36,0,55.66-16.22,81.39-38.88,27.13-23.77,88.38-78.03,96.21-112.43-8.39-3.36-17.34-4.47-26.01-4.47Z"/><path class="cls-12" d="m928.06,3299.32c28.25-27.97,56.49-56.22,80.27-88.1,17.62-23.21,29.92-48.66,42.51-74.95-26.85,29.64-99.29,85.3-134.81,104.32v-16.5c42.79-23.21,92.3-68.52,127.26-102.64,6.71-6.43,12.87-13.15,19.3-19.58,2.52-2.24,5.31-4.75,8.95-4.75s5.59,2.8,5.59,6.15c0,8.11-17.34,50.06-21.26,60.41,30.21-35.24,68.52-66.57,117.47-66.57,28.53,0,43.91,31.32,43.91,56.22,0,41.4-37.76,83.07-70.2,104.6,31.32-10.35,66.56-18.46,94.25-36.92v16.78c-37.76,22.1-117.75,45.31-161.38,45.31-23.22,0-59.57-6.99-78.31-20.42-31.05,55.66-56.22,115.23-92.58,167.25-13.14,18.74-29.64,36.92-54.26,36.92-17.62,0-26.85-16.22-26.85-32.45,0-44.19,69.92-105.16,100.13-135.09Zm8.67,12.03c-27.97,28.81-93.69,81.95-93.69,123.62,0,7.83,2.24,16.78,11.75,16.78,17.34,0,32.72-17.34,41.95-30.49,32.44-45.87,58.73-105.16,86.14-155.5-15.94,14.54-31.05,30.2-46.15,45.59Zm150.75-45.03c46.99,0,114.67-65.73,114.67-112.99,0-15.94-9.79-41.11-28.81-41.11-41.12,0-72.44,25.73-99.85,53.98-13.98,14.55-46.43,47.27-55.66,62.09-3.08,5.03-5.88,10.35-8.95,15.1,15.38,19.86,55.94,22.93,78.59,22.93Z"/><path class="cls-12" d="m1237.68,3223.24c16.5-8.95,32.16-18.74,48.11-28.81,7.55-38.6,38.6-96.49,83.63-96.49,16.5,0,27.69,6.43,27.69,24.33,0,15.66-14.82,28.25-26.29,36.92-22.65,17.06-47.27,31.88-71.6,46.71-2.8,13.42-6.71,26.85-6.71,40.55s9.51,20.7,22.94,20.7c34.96,0,82.23-26.01,110.19-46.15v16.78c-30.21,20.7-72.72,44.19-110.19,44.19-21.82,0-37.76-11.47-37.76-34.4,0-11.75,3.08-23.21,5.31-34.68-14.82,9.79-29.92,18.74-45.31,27.13v-16.78Zm132.01-110.48c-35.24,0-59.85,44.75-67.68,74.68,15.1-8.95,79.99-47.55,79.99-64.05,0-8.39-4.75-10.63-12.3-10.63Z"/><path class="cls-13" d="m1758.75,2925.66l-172.84,352.12c-1.12,2.52-3.35,4.47-6.43,4.47-3.92,0-9.23-3.35-9.23-7.55,0-1.68.56-3.36,1.4-4.75l172.56-352.68c1.4-2.52,4.2-3.92,6.71-3.92,4.2,0,8.95,2.8,8.95,7.27,0,1.68-.56,3.36-1.12,5.04Z"/><path class="cls-12" d="m659.17,3584.59h3.23l11.51,20.92h.08l11.51-20.92h3.23v32.77h-2.94v-27.85h-.04l-10.75,19.91h-2.06l-10.8-19.91h-.04v27.85h-2.94v-32.77Z"/><path class="cls-12" d="m697.35,3584.59h2.98v6.51h-2.98v-6.51Zm0,11.76h2.94v21h-2.94v-21Z"/><path class="cls-12" d="m707.68,3596.35h2.6l.29,3.91c1.01-2.14,3.07-4.45,6.76-4.45,1.26,0,2.18.21,3.02.55v3.15c-1.13-.5-2.1-.76-3.4-.76-3.74,0-6.34,2.81-6.34,5.75v12.86h-2.94v-21Z"/><path class="cls-12" d="m724.98,3596.35h2.6l.29,3.91c1.01-2.14,3.07-4.45,6.76-4.45,1.26,0,2.18.21,3.02.55v3.15c-1.13-.5-2.1-.76-3.4-.76-3.74,0-6.34,2.81-6.34,5.75v12.86h-2.94v-21Z"/><path class="cls-12" d="m739.98,3606.85c0-6.22,3.32-11.05,10.38-11.05,6.59,0,10.25,4.83,10.25,11.05s-3.7,11.05-10.29,11.05c-7.27,0-10.33-4.83-10.33-11.05Zm17.56,0c0-5.34-2.9-8.49-7.22-8.49-4.75,0-7.27,3.15-7.27,8.49s2.56,8.48,7.27,8.48c4.33,0,7.22-3.15,7.22-8.48Z"/><path class="cls-12" d="m766.48,3596.35h2.6l.29,3.91c1.01-2.14,3.07-4.45,6.76-4.45,1.26,0,2.18.21,3.02.55v3.15c-1.13-.5-2.1-.76-3.4-.76-3.74,0-6.34,2.81-6.34,5.75v12.86h-2.94v-21Z"/><path class="cls-12" d="m800.42,3607.86h-15.96c.17,4.79,2.48,7.48,6.93,7.48,3.82,0,5.67-1.43,5.97-4.83h2.98c-.29,4.24-3.28,7.39-9.03,7.39-7.06,0-9.83-4.66-9.83-10.88s3.23-11.22,10-11.22,8.95,3.99,8.95,10.21v1.85Zm-3.11-2.98c0-4.45-1.72-6.55-5.92-6.55s-6.55,2.65-6.89,6.97h12.81v-.42Z"/><path class="cls-12" d="m804.62,3606.89c0-7.1,4.28-11.09,10.04-11.09,3.7,0,6.22,1.6,7.31,3.74h.04v-14.95h2.94v32.77h-1.97l-.67-3.61h-.08c-1.18,2.31-3.95,4.16-7.77,4.16-6.3,0-9.83-3.99-9.83-11.01Zm17.64-.5c0-5.5-3.36-8.06-7.35-8.06-3.11,0-7.14,1.47-7.14,8.4s3.61,8.61,7.14,8.61c4.24,0,7.35-2.73,7.35-8.95Z"/><path class="cls-12" d="m841.95,3584.59h2.94v32.77h-2.94v-32.77Z"/><path class="cls-12" d="m850.56,3606.85c0-6.22,3.32-11.05,10.38-11.05,6.59,0,10.25,4.83,10.25,11.05s-3.7,11.05-10.29,11.05c-7.27,0-10.33-4.83-10.33-11.05Zm17.56,0c0-5.34-2.9-8.49-7.22-8.49-4.75,0-7.27,3.15-7.27,8.49s2.56,8.48,7.27,8.48c4.33,0,7.22-3.15,7.22-8.48Z"/><path class="cls-12" d="m875.39,3606.85c0-6.22,3.32-11.05,10.38-11.05,6.59,0,10.25,4.83,10.25,11.05s-3.7,11.05-10.29,11.05c-7.27,0-10.33-4.83-10.33-11.05Zm17.56,0c0-5.34-2.9-8.49-7.22-8.49-4.75,0-7.27,3.15-7.27,8.49s2.56,8.48,7.27,8.48c4.33,0,7.22-3.15,7.22-8.48Z"/><path class="cls-12" d="m901.89,3596.35h2.39l.34,3.86h.08c1.13-2.48,4.03-4.41,7.86-4.41,6.3,0,9.66,3.99,9.66,11.01s-4.29,11.09-9.87,11.09c-3.78,0-6.38-1.6-7.43-3.7h-.08v11.55h-2.94v-29.4Zm17.18,10.63c0-7.18-3.4-8.61-6.93-8.61-4.24,0-7.56,2.73-7.56,8.44,0,6.01,3.45,8.57,7.44,8.57,3.02,0,7.06-1.47,7.06-8.4Z"/><path class="cls-12" d="m926.21,3610.92v-1.18h2.94v1.13c0,2.86,2.14,4.5,5.96,4.5s5.8-1.01,5.8-3.78c0-2.06-1.01-2.81-3.86-3.32l-4.62-.84c-3.02-.55-5.54-2.02-5.54-5.5,0-3.15,2.35-6.13,8.4-6.13s8.4,3.03,8.4,7.23v.88h-2.98v-.76c0-3.44-2.14-4.91-5.42-4.91-3.95,0-5.33,1.34-5.33,3.36s1.01,2.86,3.91,3.4l4.03.76c4.12.76,6.09,1.93,6.09,5.59,0,4.58-4.12,6.55-8.78,6.55-7.31,0-8.99-3.28-8.99-6.97Z"/><path class="cls-12" d="m959.51,3584.59h2.98v6.51h-2.98v-6.51Zm0,11.76h2.94v21h-2.94v-21Z"/><path class="cls-12" d="m969.84,3596.35h2.6l.29,3.49c1.01-2.14,3.28-4.03,7.35-4.03,4.75,0,7.77,2.52,7.77,7.94v13.61h-2.94v-13.28c0-4.33-2.14-5.71-5.5-5.71-3.82,0-6.64,2.69-6.64,5.63v13.36h-2.94v-21Z"/><path class="cls-12" d="m1006.55,3595.04h-3.36v-5.08c0-3.95.88-5.29,3.4-5.97l.67,1.85c-1.76.67-2.06,1.09-2.06,3.78v.34h1.34v5.08Zm5.92,0h-3.36v-5.08c0-3.95.88-5.29,3.4-5.97l.67,1.85c-1.76.67-2.06,1.09-2.06,3.78v.34h1.34v5.08Z"/><path class="cls-12" d="m1018.86,3596.35h2.39l.34,3.86h.08c1.13-2.48,4.03-4.41,7.86-4.41,6.3,0,9.66,3.99,9.66,11.01s-4.29,11.09-9.87,11.09c-3.78,0-6.38-1.6-7.43-3.7h-.08v11.55h-2.94v-29.4Zm17.18,10.63c0-7.18-3.4-8.61-6.93-8.61-4.24,0-7.56,2.73-7.56,8.44,0,6.01,3.45,8.57,7.44,8.57,3.02,0,7.06-1.47,7.06-8.4Z"/><path class="cls-12" d="m1040.45,3593.79c1.76-.67,2.06-1.09,2.06-3.78v-.34h-1.34v-5.08h3.36v5.08c0,3.95-.88,5.29-3.4,5.96l-.67-1.85Zm5.92,0c1.76-.67,2.06-1.09,2.06-3.78v-.34h-1.34v-5.08h3.36v5.08c0,3.95-.88,5.29-3.4,5.96l-.67-1.85Z"/><path class="cls-12" d="m1053.38,3611.13h3.36v6.22c0,3.95-.88,5.29-3.4,5.96l-.67-1.85c1.76-.67,2.06-1.09,2.06-3.78v-.34h-1.34v-6.22Z"/><path class="cls-12" d="m1074.38,3595.04h-3.36v-5.08c0-3.95.88-5.29,3.4-5.97l.67,1.85c-1.76.67-2.06,1.09-2.06,3.78v.34h1.34v5.08Zm5.92,0h-3.36v-5.08c0-3.95.88-5.29,3.4-5.97l.67,1.85c-1.76.67-2.06,1.09-2.06,3.78v.34h1.34v5.08Z"/><path class="cls-12" d="m1100.63,3613.86h-.08c-1.09,2.14-3.65,4.03-7.48,4.03-6.3,0-9.75-3.99-9.75-11.01s4.37-11.09,9.96-11.09c3.78,0,6.6,1.76,7.65,4.29h.04l.29-3.74h2.31v29.4h-2.94v-11.89Zm.34-7.48c0-5.5-3.36-8.06-7.35-8.06-3.03,0-7.14,1.47-7.14,8.4s3.57,8.61,7.1,8.61c4.24,0,7.39-2.73,7.39-8.95Z"/><path class="cls-12" d="m1108.19,3593.79c1.76-.67,2.06-1.09,2.06-3.78v-.34h-1.34v-5.08h3.36v5.08c0,3.95-.88,5.29-3.4,5.96l-.67-1.85Zm5.92,0c1.76-.67,2.06-1.09,2.06-3.78v-.34h-1.34v-5.08h3.36v5.08c0,3.95-.88,5.29-3.4,5.96l-.67-1.85Z"/><path class="cls-12" d="m1132.47,3611.55c0-3.95,2.23-6.09,7.86-6.09h6.34v-1.72c0-2.98-1.26-5.42-5.46-5.42-3.95,0-5.33,1.51-5.33,4.12v.88h-2.98v-.84c0-5,4.2-6.68,8.32-6.68,5.8,0,8.4,2.86,8.4,8.44v13.11h-2.06l-.55-2.98h-.08c-1.26,1.89-3.7,3.53-7.35,3.53-4.92,0-7.1-2.31-7.1-6.34Zm14.2-1.85v-1.76h-7.01c-2.65,0-4.03.92-4.03,3.61,0,2.35,1.26,3.86,4.5,3.86,4.16,0,6.55-2.14,6.55-5.71Z"/><path class="cls-12" d="m1156.95,3596.35h2.6l.29,3.49c1.01-2.14,3.28-4.03,7.35-4.03,4.75,0,7.77,2.52,7.77,7.94v13.61h-2.94v-13.28c0-4.33-2.14-5.71-5.5-5.71-3.82,0-6.64,2.69-6.64,5.63v13.36h-2.94v-21Z"/><path class="cls-12" d="m1180.64,3606.89c0-7.1,4.28-11.09,10.04-11.09,3.7,0,6.22,1.6,7.31,3.74h.04v-14.95h2.94v32.77h-1.97l-.67-3.61h-.08c-1.18,2.31-3.95,4.16-7.77,4.16-6.3,0-9.83-3.99-9.83-11.01Zm17.64-.5c0-5.5-3.36-8.06-7.35-8.06-3.11,0-7.14,1.47-7.14,8.4s3.61,8.61,7.14,8.61c4.24,0,7.35-2.73,7.35-8.95Z"/><path class="cls-12" d="m1219.66,3595.04h-3.36v-5.08c0-3.95.88-5.29,3.4-5.97l.67,1.85c-1.76.67-2.06,1.09-2.06,3.78v.34h1.34v5.08Zm5.92,0h-3.36v-5.08c0-3.95.88-5.29,3.4-5.97l.67,1.85c-1.76.67-2.06,1.09-2.06,3.78v.34h1.34v5.08Z"/><path class="cls-12" d="m1235.7,3591.31v5.04h5.92v2.44h-5.92v18.57h-2.94v-18.57h-4.16v-2.44h4.16v-5.42c0-5.29,3.15-6.89,6.38-6.89,1.85,0,2.98.29,3.74.55v2.6c-.71-.21-1.89-.46-3.49-.46-2.65,0-3.7,1.76-3.7,4.58Z"/><path class="cls-12" d="m1246.25,3593.79c1.76-.67,2.06-1.09,2.06-3.78v-.34h-1.34v-5.08h3.36v5.08c0,3.95-.88,5.29-3.4,5.96l-.67-1.85Zm5.92,0c1.76-.67,2.06-1.09,2.06-3.78v-.34h-1.34v-5.08h3.36v5.08c0,3.95-.88,5.29-3.4,5.96l-.67-1.85Z"/><path class="cls-12" d="m402.92,2785.94h-3.36v-5.08c0-3.95.88-5.29,3.4-5.97l.67,1.85c-1.76.67-2.06,1.09-2.06,3.78v.34h1.34v5.08Zm5.92,0h-3.36v-5.08c0-3.95.88-5.29,3.4-5.97l.67,1.85c-1.76.67-2.06,1.09-2.06,3.78v.34h1.34v5.08Z"/><path class="cls-12" d="m426.19,2805.56v2.61c-.76.21-2.14.59-4.03.59-3.82,0-6.34-1.6-6.34-6.89v-12.18h-4.16v-2.44h4.16v-6.05l2.94-1.43v7.48h5.92v2.44h-5.92v11.8c0,2.81.76,4.58,3.4,4.58,1.6,0,3.23-.29,4.03-.5Z"/><path class="cls-12" d="m428.07,2784.68c1.76-.67,2.06-1.09,2.06-3.78v-.34h-1.34v-5.08h3.36v5.08c0,3.95-.88,5.29-3.4,5.96l-.67-1.85Zm5.92,0c1.76-.67,2.06-1.09,2.06-3.78v-.34h-1.34v-5.08h3.36v5.08c0,3.95-.88,5.29-3.4,5.96l-.67-1.85Z"/><path class="cls-12" d="m453.61,2787.25h2.6l.29,3.91c1.01-2.14,3.07-4.45,6.76-4.45,1.26,0,2.18.21,3.02.55v3.15c-1.13-.5-2.1-.76-3.4-.76-3.74,0-6.34,2.81-6.34,5.75v12.86h-2.94v-21Z"/><path class="cls-12" d="m487.55,2798.76h-15.96c.17,4.79,2.48,7.48,6.93,7.48,3.82,0,5.67-1.43,5.97-4.83h2.98c-.29,4.24-3.28,7.39-9.03,7.39-7.06,0-9.83-4.66-9.83-10.88s3.23-11.22,10-11.22,8.95,3.99,8.95,10.21v1.85Zm-3.11-2.98c0-4.45-1.72-6.55-5.92-6.55s-6.55,2.65-6.89,6.97h12.81v-.42Z"/><path class="cls-12" d="m491.96,2802.45c0-3.95,2.23-6.09,7.86-6.09h6.34v-1.72c0-2.98-1.26-5.42-5.46-5.42-3.95,0-5.33,1.51-5.33,4.12v.88h-2.98v-.84c0-5,4.2-6.68,8.32-6.68,5.8,0,8.4,2.86,8.4,8.44v13.11h-2.06l-.55-2.98h-.08c-1.26,1.89-3.7,3.53-7.35,3.53-4.92,0-7.1-2.31-7.1-6.34Zm14.2-1.85v-1.76h-7.01c-2.65,0-4.03.92-4.03,3.61,0,2.35,1.26,3.86,4.5,3.86,4.16,0,6.55-2.14,6.55-5.71Z"/><path class="cls-12" d="m514.76,2797.92c0-6.38,3.23-11.22,10-11.22s8.95,3.91,8.95,8.95v.42h-3.11v-.63c0-3.82-1.64-6.09-5.84-6.09-4.75,0-7.01,3.11-7.01,8.4,0,5.63,2.39,8.48,6.93,8.48,3.82,0,5.84-1.85,5.92-5.67h3.02c-.08,4.66-3.15,8.23-9.03,8.23-7.22,0-9.83-4.75-9.83-10.88Z"/><path class="cls-12" d="m538.95,2775.48h2.94v15.16c1.05-2.1,3.28-3.95,7.31-3.95,4.75,0,7.77,2.52,7.77,7.94v13.61h-2.94v-13.28c0-4.33-2.14-5.71-5.5-5.71-3.82,0-6.64,2.69-6.64,5.63v13.36h-2.94v-32.77Z"/><path class="cls-12" d="m581.59,2798.76h-15.96c.17,4.79,2.48,7.48,6.93,7.48,3.82,0,5.67-1.43,5.97-4.83h2.98c-.29,4.24-3.28,7.39-9.03,7.39-7.06,0-9.83-4.66-9.83-10.88s3.23-11.22,10-11.22,8.95,3.99,8.95,10.21v1.85Zm-3.11-2.98c0-4.45-1.72-6.55-5.92-6.55s-6.55,2.65-6.89,6.97h12.81v-.42Z"/><path class="cls-12" d="m585.57,2801.82v-1.18h2.94v1.13c0,2.86,2.14,4.5,5.96,4.5s5.8-1.01,5.8-3.78c0-2.06-1.01-2.81-3.86-3.32l-4.62-.84c-3.02-.55-5.54-2.02-5.54-5.5,0-3.15,2.35-6.13,8.4-6.13s8.4,3.03,8.4,7.23v.88h-2.98v-.76c0-3.44-2.14-4.91-5.42-4.91-3.95,0-5.33,1.34-5.33,3.36s1.01,2.86,3.91,3.4l4.03.76c4.12.76,6.09,1.93,6.09,5.59,0,4.58-4.12,6.55-8.78,6.55-7.31,0-8.99-3.28-8.99-6.97Z"/><path class="cls-12" d="m617.62,2802.45c0-3.95,2.23-6.09,7.86-6.09h6.34v-1.72c0-2.98-1.26-5.42-5.46-5.42-3.95,0-5.33,1.51-5.33,4.12v.88h-2.98v-.84c0-5,4.2-6.68,8.32-6.68,5.8,0,8.4,2.86,8.4,8.44v13.11h-2.06l-.55-2.98h-.08c-1.26,1.89-3.7,3.53-7.35,3.53-4.92,0-7.1-2.31-7.1-6.34Zm14.2-1.85v-1.76h-7.01c-2.65,0-4.03.92-4.03,3.61,0,2.35,1.26,3.86,4.5,3.86,4.16,0,6.55-2.14,6.55-5.71Z"/><path class="cls-12" d="m640.22,2801.82v-1.18h2.94v1.13c0,2.86,2.14,4.5,5.96,4.5s5.8-1.01,5.8-3.78c0-2.06-1.01-2.81-3.86-3.32l-4.62-.84c-3.02-.55-5.54-2.02-5.54-5.5,0-3.15,2.35-6.13,8.4-6.13s8.4,3.03,8.4,7.23v.88h-2.98v-.76c0-3.44-2.14-4.91-5.42-4.91-3.95,0-5.33,1.34-5.33,3.36s1.01,2.86,3.91,3.4l4.03.76c4.12.76,6.09,1.93,6.09,5.59,0,4.58-4.12,6.55-8.78,6.55-7.31,0-8.99-3.28-8.99-6.97Z"/><path class="cls-12" d="m662.18,2797.92c0-6.38,3.23-11.22,10-11.22s8.95,3.91,8.95,8.95v.42h-3.11v-.63c0-3.82-1.64-6.09-5.84-6.09-4.75,0-7.01,3.11-7.01,8.4,0,5.63,2.39,8.48,6.93,8.48,3.82,0,5.84-1.85,5.92-5.67h3.02c-.08,4.66-3.15,8.23-9.03,8.23-7.22,0-9.83-4.75-9.83-10.88Z"/><path class="cls-12" d="m704.27,2798.76h-15.96c.17,4.79,2.48,7.48,6.93,7.48,3.82,0,5.67-1.43,5.97-4.83h2.98c-.29,4.24-3.28,7.39-9.03,7.39-7.06,0-9.83-4.66-9.83-10.88s3.23-11.22,10-11.22,8.95,3.99,8.95,10.21v1.85Zm-3.11-2.98c0-4.45-1.72-6.55-5.92-6.55s-6.55,2.65-6.89,6.97h12.81v-.42Z"/><path class="cls-12" d="m710.15,2787.25h2.6l.29,3.49c1.01-2.14,3.28-4.03,7.35-4.03,4.75,0,7.77,2.52,7.77,7.94v13.61h-2.94v-13.28c0-4.33-2.14-5.71-5.5-5.71-3.82,0-6.64,2.69-6.64,5.63v13.36h-2.94v-21Z"/><path class="cls-12" d="m733.83,2797.79c0-7.1,4.28-11.09,10.04-11.09,3.7,0,6.22,1.6,7.31,3.74h.04v-14.95h2.94v32.77h-1.97l-.67-3.61h-.08c-1.18,2.31-3.95,4.16-7.77,4.16-6.3,0-9.83-3.99-9.83-11.01Zm17.64-.5c0-5.5-3.36-8.06-7.35-8.06-3.11,0-7.14,1.47-7.14,8.4s3.61,8.61,7.14,8.61c4.24,0,7.35-2.73,7.35-8.95Z"/><path class="cls-12" d="m778.78,2798.76h-15.96c.17,4.79,2.48,7.48,6.93,7.48,3.82,0,5.67-1.43,5.97-4.83h2.98c-.29,4.24-3.28,7.39-9.03,7.39-7.06,0-9.83-4.66-9.83-10.88s3.23-11.22,10-11.22,8.95,3.99,8.95,10.21v1.85Zm-3.11-2.98c0-4.45-1.72-6.55-5.92-6.55s-6.55,2.65-6.89,6.97h12.81v-.42Z"/><path class="cls-12" d="m784.65,2787.25h2.6l.29,3.91c1.01-2.14,3.07-4.45,6.76-4.45,1.26,0,2.18.21,3.02.55v3.15c-1.13-.5-2.1-.76-3.4-.76-3.74,0-6.34,2.81-6.34,5.75v12.86h-2.94v-21Z"/><path class="cls-12" d="m811.62,2775.48h2.94v32.77h-2.94v-32.77Z"/><path class="cls-12" d="m821.91,2775.48h2.98v6.51h-2.98v-6.51Zm0,11.76h2.94v21h-2.94v-21Z"/><path class="cls-12" d="m832.24,2787.25h2.6l.29,3.49c1.01-2.14,3.28-4.03,7.35-4.03,4.75,0,7.77,2.52,7.77,7.94v13.61h-2.94v-13.28c0-4.33-2.14-5.71-5.5-5.71-3.82,0-6.64,2.69-6.64,5.63v13.36h-2.94v-21Z"/><path class="cls-12" d="m874.87,2798.76h-15.96c.17,4.79,2.48,7.48,6.93,7.48,3.82,0,5.67-1.43,5.97-4.83h2.98c-.29,4.24-3.28,7.39-9.03,7.39-7.06,0-9.83-4.66-9.83-10.88s3.23-11.22,10-11.22,8.95,3.99,8.95,10.21v1.85Zm-3.11-2.98c0-4.45-1.72-6.55-5.92-6.55s-6.55,2.65-6.89,6.97h12.81v-.42Z"/><path class="cls-13" d="m582.9,3043.69h48.11c3.92,0,6.71,2.8,6.71,6.71,0,4.47-3.64,8.39-8.11,8.39h-54.82c-5.59,10.63-11.19,21.54-17.34,31.88-12.3,21.26-22.65,43.63-34.96,64.89-8.67,15.66-18.18,30.49-26.29,46.43-6.71,13.42-13.42,27.69-13.42,43.07,0,16.5,18.46,21.54,32.16,21.54,23.77,0,68.24-31.6,88.1-45.59v16.78c-21.53,15.38-61.53,43.91-88.1,43.91-22.93,0-46.99-10.63-46.99-36.64,0-34.4,34.68-82.51,51.18-112.71-43.35,39.16-88.38,75.79-136.77,108.24v-16.78c38.6-26.85,91.74-67.4,125.02-100.68,10.63-10.63,22.37-19.86,31.05-32.45,6.99-10.35,13.7-21.25,20.14-31.88h-49.79c-4.2,0-7.27-3.35-7.27-7.55s3.07-7.55,7.27-7.55h58.45c15.1-27.69,29.09-56.22,42.79-84.74,6.43-13.42,12.03-27.97,19.3-40.83,2.24-3.64,3.92-4.75,8.11-4.75,3.92,0,6.71,2.8,6.71,6.71,0,2.24-54.82,111.03-61.25,123.62Z"/><path class="cls-12" d="m1499.07,2799.81v-2.02h3.02v2.18c0,3.74,2.6,6.05,7.94,6.05s8.44-1.97,8.44-6.22c0-3.32-1.39-5.17-4.92-6.09l-6.64-1.72c-4.33-1.13-7.18-2.98-7.18-8.15s3.78-8.91,10.92-8.91,10.59,3.44,10.59,9.07v2.94h-3.02v-2.81c0-4.62-3.07-6.51-7.56-6.51-5.12,0-7.81,2.14-7.81,6.01,0,3.61,1.76,4.71,5.54,5.71l5.75,1.55c5.12,1.39,7.43,3.74,7.43,8.65,0,6.09-4.33,9.24-11.47,9.24-9.12,0-11.05-4.7-11.05-8.99Z"/><path class="cls-12" d="m1528.76,2775.48h2.98v6.51h-2.98v-6.51Zm0,11.76h2.94v21h-2.94v-21Z"/><path class="cls-12" d="m1539.1,2787.25h2.6l.29,3.49c1.01-2.14,3.28-4.03,7.35-4.03,4.75,0,7.77,2.52,7.77,7.94v13.61h-2.94v-13.27c0-4.33-2.14-5.71-5.5-5.71-3.82,0-6.64,2.69-6.64,5.63v13.36h-2.94v-21Z"/><path class="cls-12" d="m1563.83,2810.06v-.13h3.11v.13c0,2.9,1.93,4.33,6.13,4.33,4.79,0,7.01-2.94,7.01-7.86v-2.1h-.08c-1.09,2.18-3.65,4.07-7.48,4.07-6.3,0-9.75-3.99-9.75-10.71,0-7.1,4.37-11.09,9.96-11.09,3.78,0,6.55,1.81,7.56,4.12h.13l.29-3.57h2.31v19.16c0,5.88-2.81,10.71-10.33,10.71-6.3,0-8.86-2.98-8.86-7.06Zm16.59-12.77c0-5.5-3.36-8.07-7.35-8.07-3.03,0-7.14,1.47-7.14,8.4s3.57,8.32,7.1,8.32c4.24,0,7.39-2.73,7.39-8.65Z"/><path class="cls-12" d="m1590.38,2775.48h2.94v32.77h-2.94v-32.77Z"/><path class="cls-12" d="m1617.93,2798.76h-15.96c.17,4.79,2.48,7.48,6.93,7.48,3.82,0,5.67-1.43,5.97-4.83h2.98c-.29,4.24-3.28,7.39-9.03,7.39-7.06,0-9.83-4.66-9.83-10.88s3.23-11.22,10-11.22,8.95,3.99,8.95,10.21v1.85Zm-3.11-2.98c0-4.45-1.72-6.55-5.92-6.55s-6.55,2.65-6.89,6.97h12.81v-.42Z"/><path class="cls-12" d="m1631.58,2801.82v-1.18h2.94v1.13c0,2.86,2.14,4.5,5.96,4.5s5.8-1.01,5.8-3.78c0-2.06-1.01-2.81-3.86-3.32l-4.62-.84c-3.02-.55-5.54-2.02-5.54-5.5,0-3.15,2.35-6.13,8.4-6.13s8.4,3.02,8.4,7.23v.88h-2.98v-.76c0-3.44-2.14-4.92-5.42-4.92-3.95,0-5.33,1.34-5.33,3.36s1.01,2.86,3.91,3.4l4.03.76c4.12.76,6.09,1.93,6.09,5.59,0,4.58-4.12,6.55-8.78,6.55-7.31,0-8.99-3.28-8.99-6.97Z"/><path class="cls-12" d="m1666.19,2805.56v2.6c-.76.21-2.14.59-4.03.59-3.82,0-6.34-1.6-6.34-6.89v-12.18h-4.16v-2.44h4.16v-6.05l2.94-1.43v7.48h5.92v2.44h-5.92v11.8c0,2.81.76,4.58,3.4,4.58,1.6,0,3.23-.29,4.03-.5Z"/><path class="cls-12" d="m1671.02,2787.25h2.6l.29,3.91c1.01-2.14,3.07-4.45,6.76-4.45,1.26,0,2.18.21,3.02.55v3.15c-1.13-.5-2.1-.76-3.4-.76-3.74,0-6.34,2.81-6.34,5.75v12.85h-2.94v-21Z"/><path class="cls-12" d="m1686.01,2797.75c0-6.22,3.32-11.05,10.38-11.05,6.59,0,10.25,4.83,10.25,11.05s-3.7,11.05-10.29,11.05c-7.27,0-10.33-4.83-10.33-11.05Zm17.56,0c0-5.33-2.9-8.49-7.22-8.49-4.75,0-7.27,3.15-7.27,8.49s2.56,8.49,7.27,8.49c4.33,0,7.22-3.15,7.22-8.49Z"/><path class="cls-12" d="m1711.88,2775.48h2.94v23.23l12.14-11.47h3.65v.04l-8.4,7.86,8.78,13.06v.04h-3.36l-7.39-11.22-5.42,5.04v6.17h-2.94v-32.77Z"/><path class="cls-12" d="m1752.25,2798.76h-15.96c.17,4.79,2.48,7.48,6.93,7.48,3.82,0,5.67-1.43,5.97-4.83h2.98c-.29,4.24-3.28,7.39-9.03,7.39-7.06,0-9.83-4.66-9.83-10.88s3.23-11.22,10-11.22,8.95,3.99,8.95,10.21v1.85Zm-3.11-2.98c0-4.45-1.72-6.55-5.92-6.55s-6.55,2.65-6.89,6.97h12.81v-.42Z"/><path class="cls-12" d="m1769.47,2785.94h-3.36v-5.08c0-3.95.88-5.29,3.4-5.96l.67,1.85c-1.76.67-2.06,1.09-2.06,3.78v.34h1.34v5.08Zm5.92,0h-3.36v-5.08c0-3.95.88-5.29,3.4-5.96l.67,1.85c-1.76.67-2.06,1.09-2.06,3.78v.34h1.34v5.08Z"/><path class="cls-12" d="m1789.84,2775.48v32.77h-2.94v-28.31c-1.43,1.13-4.92,2.1-7.69,2.1v-2.73c4.16-.34,6.6-1.47,8.44-3.82h2.18Z"/><path class="cls-12" d="m1796.56,2784.68c1.76-.67,2.06-1.09,2.06-3.78v-.34h-1.34v-5.08h3.36v5.08c0,3.95-.88,5.29-3.4,5.96l-.67-1.85Zm5.92,0c1.76-.67,2.06-1.09,2.06-3.78v-.34h-1.34v-5.08h3.36v5.08c0,3.95-.88,5.29-3.4,5.96l-.67-1.85Z"/><path class="cls-12" d="m276.29,1806.65h8.61c7.94,0,11.64,2.73,11.64,9.62,0,6.43-2.77,10.12-11.13,10.12h-6.13v13.02h-2.98v-32.77Zm9.28,17.22c6.09,0,7.94-2.69,7.94-7.65,0-5.21-2.6-6.97-8.44-6.97h-5.8v14.62h6.3Z"/><path class="cls-12" d="m299.68,1833.62c0-3.95,2.23-6.09,7.86-6.09h6.34v-1.72c0-2.98-1.26-5.42-5.46-5.42-3.95,0-5.33,1.51-5.33,4.12v.88h-2.98v-.84c0-5,4.2-6.68,8.32-6.68,5.8,0,8.4,2.86,8.4,8.44v13.11h-2.06l-.55-2.98h-.08c-1.26,1.89-3.7,3.53-7.35,3.53-4.92,0-7.1-2.31-7.1-6.34Zm14.2-1.85v-1.76h-7.01c-2.65,0-4.03.92-4.03,3.61,0,2.35,1.26,3.86,4.5,3.86,4.16,0,6.55-2.14,6.55-5.71Z"/><path class="cls-12" d="m324.16,1806.65h2.94v32.77h-2.94v-32.77Z"/><path class="cls-12" d="m365.16,1825.8v13.61h-2.94v-13.27c0-4.33-2.14-5.71-4.75-5.71-3.82,0-6.17,2.69-6.17,5.63v13.36h-2.94v-13.27c0-4.33-1.85-5.71-4.83-5.71-3.61,0-6.13,2.69-6.13,5.63v13.36h-2.94v-21h2.6l.29,3.49c1.01-2.02,3.07-4.03,6.93-4.03,2.94,0,5.38,1.39,6.43,4.28,1.22-2.39,3.57-4.28,7.14-4.28,4.29,0,7.31,2.52,7.31,7.94Z"/><path class="cls-12" d="m389.77,1829.92h-15.96c.17,4.79,2.48,7.48,6.93,7.48,3.82,0,5.67-1.43,5.97-4.83h2.98c-.29,4.24-3.28,7.39-9.03,7.39-7.06,0-9.83-4.66-9.83-10.88s3.23-11.22,10-11.22,8.95,3.99,8.95,10.21v1.85Zm-3.11-2.98c0-4.45-1.72-6.55-5.92-6.55s-6.55,2.65-6.89,6.97h12.81v-.42Z"/><path class="cls-12" d="m395.65,1818.41h2.6l.29,3.91c1.01-2.14,3.07-4.45,6.76-4.45,1.26,0,2.18.21,3.02.55v3.15c-1.13-.5-2.1-.76-3.4-.76-3.74,0-6.34,2.81-6.34,5.75v12.85h-2.94v-21Z"/><path class="cls-12" d="m410.43,1825.93h10.59v2.81h-10.59v-2.81Z"/><path class="cls-12" d="m425.01,1832.99v-1.18h2.94v1.13c0,2.86,2.14,4.5,5.96,4.5s5.8-1.01,5.8-3.78c0-2.06-1.01-2.81-3.86-3.32l-4.62-.84c-3.02-.55-5.54-2.02-5.54-5.5,0-3.15,2.35-6.13,8.4-6.13s8.4,3.02,8.4,7.22v.88h-2.98v-.76c0-3.44-2.14-4.91-5.42-4.91-3.95,0-5.33,1.34-5.33,3.36s1.01,2.86,3.91,3.4l4.03.76c4.12.76,6.09,1.93,6.09,5.59,0,4.58-4.12,6.55-8.78,6.55-7.31,0-8.99-3.28-8.99-6.97Z"/><path class="cls-12" d="m459.62,1836.73v2.6c-.76.21-2.14.59-4.03.59-3.82,0-6.34-1.6-6.34-6.89v-12.18h-4.16v-2.44h4.16v-6.05l2.94-1.43v7.48h5.92v2.44h-5.92v11.8c0,2.81.76,4.58,3.4,4.58,1.6,0,3.23-.29,4.03-.5Z"/><path class="cls-12" d="m464.65,1818.41l6.89,17.98h.08l7.14-17.98h3.07v.04l-8.86,20.84-3.11,8.53h-2.98v-.04l3.19-8.36-8.78-20.96v-.04h3.36Z"/><path class="cls-12" d="m486.03,1806.65h2.94v32.77h-2.94v-32.77Z"/><path class="cls-12" d="m513.59,1829.92h-15.96c.17,4.79,2.48,7.48,6.93,7.48,3.82,0,5.67-1.43,5.97-4.83h2.98c-.29,4.24-3.28,7.39-9.03,7.39-7.06,0-9.83-4.66-9.83-10.88s3.23-11.22,10-11.22,8.95,3.99,8.95,10.21v1.85Zm-3.11-2.98c0-4.45-1.72-6.55-5.92-6.55s-6.55,2.65-6.89,6.97h12.81v-.42Z"/><path class="cls-12" d="m530.8,1817.11h-3.36v-5.08c0-3.95.88-5.29,3.4-5.97l.67,1.85c-1.76.67-2.06,1.09-2.06,3.78v.34h1.34v5.08Zm5.92,0h-3.36v-5.08c0-3.95.88-5.29,3.4-5.97l.67,1.85c-1.76.67-2.06,1.09-2.06,3.78v.34h1.34v5.08Z"/><path class="cls-12" d="m541.85,1823.2c0-11.85,6.51-17.1,14.49-17.1,7.56,0,12.64,3.78,12.64,11.47v.5h-2.86v-.63c0-5.33-3.49-8.7-9.7-8.7-6.72,0-11.47,4.58-11.47,14.28s4.75,14.28,11.76,14.28c5.63,0,9.45-2.52,9.45-8.78v-2.73h-9.83v-2.6h12.64v16.21h-2.1l-.67-3.74c-1.6,2.48-5.17,4.29-9.75,4.29-8.32,0-14.62-4.87-14.62-16.76Z"/><path class="cls-12" d="m573.81,1815.85c1.76-.67,2.06-1.09,2.06-3.78v-.34h-1.34v-5.08h3.36v5.08c0,3.95-.88,5.29-3.4,5.97l-.67-1.85Zm5.92,0c1.76-.67,2.06-1.09,2.06-3.78v-.34h-1.34v-5.08h3.36v5.08c0,3.95-.88,5.29-3.4,5.97l-.67-1.85Z"/><g class="cls-11"><path class="cls-14" d="m1502.12,1314.14c-19.02,25.45-36.92,51.18-57.06,75.79-23.21,27.97-59.57,81.67-99.85,81.67-13.42,0-26.01-12.31-26.01-25.73,0-27.69,58.17-97.05,58.17-128.09,0-8.67-7.55-15.94-16.22-15.94-28.81,0-66.57,45.03-87.82,63.49-27.13,23.49-55.66,44.19-85.59,64.33v-16.78c28.53-19.86,56.22-40.55,82.51-62.93,22.93-19.58,59.29-63.21,90.9-63.21,17.34,0,31.32,15.38,31.32,32.44,0,36.36-58.17,99.85-58.17,126.7,0,5.31,5.59,10.91,10.91,10.91,31.6,0,70.2-55.1,89.5-77.75,16.5-19.3,31.88-39.72,46.43-60.97,6.99-10.07,13.15-20.7,20.7-30.49,1.4-1.68,3.07-3.64,5.59-3.64,5.87,0,8.95,1.4,8.95,7.83,0,35.52,6.99,81.95,52.86,79.71v14.82h-4.75c-39.16,1.4-63.77-35.24-62.37-72.16Z"/></g><path class="cls-12" d="m472.16,2643.8h18.86v2.6h-15.92v12.94h12.31v2.6h-12.31v14.62h-2.94v-32.77Z"/><path class="cls-12" d="m492.7,2669.18v-13.61h2.94v13.27c0,4.33,2.14,5.71,5.42,5.71,3.74,0,6.55-2.69,6.55-5.63v-13.36h2.94v21h-2.6l-.25-3.36h-.08c-.97,2.02-3.23,3.91-7.23,3.91-4.66,0-7.69-2.52-7.69-7.94Z"/><path class="cls-12" d="m517.9,2643.8h2.94v32.77h-2.94v-32.77Z"/><path class="cls-12" d="m528.19,2643.8h2.94v32.77h-2.94v-32.77Z"/><path class="cls-12" d="m546.46,2666.24c0-6.38,3.23-11.22,10-11.22s8.95,3.91,8.95,8.95v.42h-3.11v-.63c0-3.82-1.64-6.09-5.84-6.09-4.75,0-7.01,3.11-7.01,8.4,0,5.63,2.39,8.49,6.93,8.49,3.82,0,5.84-1.85,5.92-5.67h3.03c-.08,4.66-3.15,8.23-9.03,8.23-7.22,0-9.83-4.75-9.83-10.88Z"/><path class="cls-12" d="m570.86,2669.18v-13.61h2.94v13.27c0,4.33,2.14,5.71,5.42,5.71,3.74,0,6.55-2.69,6.55-5.63v-13.36h2.94v21h-2.6l-.25-3.36h-.08c-.97,2.02-3.23,3.91-7.23,3.91-4.66,0-7.69-2.52-7.69-7.94Z"/><path class="cls-12" d="m596.06,2655.57h2.6l.29,3.91c1.01-2.14,3.07-4.45,6.76-4.45,1.26,0,2.18.21,3.02.55v3.15c-1.13-.5-2.1-.76-3.4-.76-3.74,0-6.34,2.81-6.34,5.75v12.85h-2.94v-21Z"/><path class="cls-12" d="m611.27,2670.14v-1.18h2.94v1.13c0,2.86,2.14,4.5,5.96,4.5s5.8-1.01,5.8-3.78c0-2.06-1.01-2.81-3.87-3.32l-4.62-.84c-3.02-.55-5.54-2.02-5.54-5.5,0-3.15,2.35-6.13,8.4-6.13s8.4,3.02,8.4,7.23v.88h-2.98v-.76c0-3.44-2.14-4.92-5.42-4.92-3.95,0-5.34,1.34-5.34,3.36s1.01,2.86,3.91,3.4l4.03.76c4.12.76,6.09,1.93,6.09,5.59,0,4.58-4.12,6.55-8.78,6.55-7.31,0-8.99-3.28-8.99-6.97Z"/><path class="cls-12" d="m634.91,2643.8h2.98v6.51h-2.98v-6.51Zm0,11.76h2.94v21h-2.94v-21Z"/><path class="cls-12" d="m642.1,2655.61v-.04h3.36l7.35,17.98h.08l7.1-17.98h3.07v.04l-8.74,20.96h-3.03l-9.2-20.96Z"/><path class="cls-12" d="m683.89,2667.08h-15.96c.17,4.79,2.48,7.48,6.93,7.48,3.82,0,5.67-1.43,5.96-4.83h2.98c-.29,4.24-3.28,7.39-9.03,7.39-7.06,0-9.83-4.66-9.83-10.88s3.23-11.22,10-11.22,8.95,3.99,8.95,10.21v1.85Zm-3.11-2.98c0-4.45-1.72-6.55-5.92-6.55s-6.55,2.65-6.89,6.97h12.81v-.42Z"/><path class="cls-12" d="m701.11,2654.26h-3.36v-5.08c0-3.95.88-5.29,3.4-5.96l.67,1.85c-1.76.67-2.06,1.09-2.06,3.78v.34h1.34v5.08Zm5.92,0h-3.36v-5.08c0-3.95.88-5.29,3.4-5.96l.67,1.85c-1.76.67-2.06,1.09-2.06,3.78v.34h1.34v5.08Z"/><path class="cls-12" d="m713.41,2655.57h2.6l.29,3.91c1.01-2.14,3.07-4.45,6.76-4.45,1.26,0,2.18.21,3.02.55v3.15c-1.13-.5-2.1-.76-3.4-.76-3.74,0-6.34,2.81-6.34,5.75v12.85h-2.94v-21Z"/><path class="cls-12" d="m728.83,2653c1.76-.67,2.06-1.09,2.06-3.78v-.34h-1.34v-5.08h3.36v5.08c0,3.95-.88,5.29-3.4,5.96l-.67-1.85Zm5.92,0c1.77-.67,2.06-1.09,2.06-3.78v-.34h-1.34v-5.08h3.36v5.08c0,3.95-.88,5.29-3.4,5.96l-.67-1.85Z"/><line class="cls-3" x1="606.11" y1="2614.29" x2="606.11" y2="2613.41"/><line class="cls-6" x1="606.11" y1="2595.43" x2="606.11" y2="2386.81"/><line class="cls-3" x1="606.11" y1="2377.82" x2="606.11" y2="2376.94"/><line class="cls-3" x1="1112.15" y1="2097.4" x2="1112.15" y2="2096.53"/><line class="cls-10" x1="1112.15" y1="2079.26" x2="1112.15" y2="1878.92"/><line class="cls-3" x1="1112.15" y1="1870.29" x2="1112.15" y2="1869.42"/><path class="cls-12" d="m53.71,2186.43c9.51-6.71,33.28-16.22,44.47-21.54,29.37-13.98,58.17-28.53,85.86-45.87,30.21-18.74,59.29-39.99,87.54-62.09,12.58-9.79,26.29-19.86,38.04-30.77,4.75-4.47,13.7-18.46,20.42-18.46,4.2,0,6.71,4.47,6.71,8.11,0,5.31-8.67,13.42-11.75,17.34,28.25-15.38,63.77-25.17,95.93-25.17,55.94,0,106,36.36,106,95.93,0,38.6-28.25,68.8-56.22,91.74-31.05,26.01-74.96,44.19-115.79,44.19-52.86,0-86.14-20.42-132.01-42.51-22.1,39.99-43.91,79.71-67.12,118.87-10.63,18.18-21.26,37.48-33.28,54.82-1.68,2.24-3.92,3.92-6.99,3.92-4.47,0-8.11-3.92-8.11-8.39,0-2.52,1.12-4.47,2.24-6.71,11.47-19.3,23.5-38.32,34.96-57.61,24.61-41.95,48.39-84.46,73-126.42,22.65-39.15,47.54-77.19,72.16-115.23-74.4,62.37-137.61,97.33-225.71,136.76-1.4.56-3.07,1.12-4.75,1.12-3.64,0-8.67-2.8-8.67-6.99,0-2.24,1.4-3.64,3.08-5.03Zm367.22-163.34c-33,0-69.92,11.75-97.89,29.09-7.27,4.47-16.5,10.91-21.54,18.18-25.45,36.64-49.5,74.96-71.32,113.83,42.51,20.7,75.79,40.55,124.74,40.55,37.76,0,79.99-18.18,108.24-42.23,23.77-20.14,48.11-48.11,48.11-80.83,0-50.06-44.19-78.59-90.34-78.59Z"/><path class="cls-13" d="m606.94,2377.45c-21.54,0-39.99-10.07-39.99-34.12,0-44.75,41.95-74.4,41.95-110.48,0-11.75-15.66-18.74-22.37-26.85-33,35.24-63.77,73.56-102.92,102.64-53.42,39.72-87.26,63.21-152.99,68.52h-1.4c-4.47.28-8.11-3.92-8.11-8.39,0-3.91,2.24-5.59,5.87-6.15,13.42-2.8,26.57-3.08,40.27-6.71,39.72-10.07,74.68-34.96,107.12-58.45,42.51-31.05,77.75-73.28,110.76-113.55.84-.84,1.4-2.52,2.8-2.52l1.12.56c3.08-.28,6.71,3.63,6.71,6.43,0,1.4-1.12,3.08-1.12,5.31,0,8.67,29.37,19.86,29.37,39.16,0,42.51-41.95,71.6-41.95,110.48,0,15.1,12.03,19.3,24.89,19.3,29.65,0,84.19-28.53,107.96-46.99v16.78c-24.33,17.9-78.03,45.03-107.96,45.03Z"/><path class="cls-12" d="m710.73,2318.44c30.49-20.42,61.53-41.39,89.78-64.89,38.32-32.17,77.19-62.93,130.33-62.93,8.95,0,42.23,3.35,42.23,16.22,0,19.86-27.69,52.58-39.44,68.52-15.66,21.53-30.21,44.47-30.21,72.16,0,13.42,20.98,13.42,29.93,13.42,23.21,0,81.11-30.21,99.29-45.31v16.78c-19.58,16.22-74.4,43.35-99.29,43.35-19.86,0-44.75-4.47-44.75-29.65,0-9.51,5.03-29.92,9.23-38.87-40.27,33.28-61.25,68.52-119.43,68.52-17.06,0-31.6-14.26-31.6-31.32,0-13.98,7.27-31.05,14.26-43.07-16.5,12.03-33.28,22.94-50.34,33.84v-16.78Zm219.27-113.27c-18.18,0-38.6,4.75-54.82,12.87-38.88,19.3-112.99,79.43-112.99,126.42,0,8.67,7.55,16.5,16.22,16.5,36.36,0,55.66-16.22,81.39-38.88,27.13-23.77,88.38-78.03,96.21-112.43-8.39-3.36-17.34-4.47-26.01-4.47Z"/><path class="cls-12" d="m1446.03,2212.16c-31.32,49.51-115.23,163.62-173.68,163.62-23.77,0-30.77-18.46-30.77-39.16,0-15.94,10.07-46.43,19.02-59.57-6.99,7.83-13.15,16.22-20.14,23.77-21.54,22.93-78.59,74.96-110.2,74.96-25.17,0-34.96-13.15-34.96-36.92,0-11.47,24.61-70.76,31.88-80.83-29.92,29.64-64.61,52.86-98.73,77.19v-16.78c28.81-19.86,70.2-50.06,93.97-74.96,15.1-15.94,26.01-34.96,40.55-51.18,1.12-1.4,2.8-1.96,4.47-1.96,2.8,0,8.39,2.24,8.39,5.87,0,.56-.28,1.12-.56,1.68-17.06,25.45-30.21,52.58-43.63,80.27-7.27,15.38-21.26,47.27-21.26,63.21,0,13.7,5.32,19.58,19.86,19.58,28.53,0,79.99-50.9,100.13-70.76,20.42-20.42,39.44-41.95,55.94-65.73,6.71-10.07,12.3-20.98,19.02-31.05,1.4-2.24,3.36-3.35,6.15-3.35,3.08,0,6.99,1.68,6.99,5.31s-44.47,86.42-50.06,97.61c-8.39,16.78-11.75,29.65-11.75,48.39,0,10.35,3.36,19.58,15.66,19.58,45.59,0,116.35-90.34,141.24-125.86,6.15-8.95,12.59-17.9,18.18-27.13,2.52-4.2,4.2-8.67,6.71-12.59,1.96-3.36,5.04-5.03,8.95-5.03,4.48,0,6.71,2.24,8.11,6.43,1.95,5.87,3.07,12.03,5.59,18.18,11.19,27.41,31.6,32.16,59.01,32.16v14.83c-34.12,0-69.08-11.47-74.12-49.79Z"/><path class="cls-12" d="m1831.46,2346.13c-21.81,14.55-49.78,30.49-76.91,30.49-20.14,0-38.59-6.15-38.59-29.93,0-37.48,64.89-111.03,64.89-128.93,0-8.39-3.35-10.63-11.47-10.63-10.9,0-28.24,6.99-37.19,13.15-26.29,17.9-76.64,56.22-97.33,79.15-15.1,16.78-28.53,35.52-42.23,53.14-5.04,6.43-10.35,14.26-16.22,20.14-2.24,2.24-4.48,4.47-7.83,4.47-4.48,0-7.55-4.2-7.55-8.39,0-1.68.28-2.8,1.4-3.91,14.82-19.58,93.14-133.69,93.14-150.75,0-6.15-5.87-7.55-11.19-7.55-22.94,0-39.99,21.26-58.18,32.44-13.42,8.39-53.42,22.94-68.8,22.94v-14.83c16.5,0,46.14-11.47,60.41-20.42,21.26-13.42,39.44-34.96,66.57-34.96,13.98,0,26.01,7.55,26.01,22.37,0,16.22-19.58,43.63-28.53,57.06,16.78-13.7,33.84-26.85,51.18-39.99,10.07-7.83,20.42-16.22,31.33-22.93,11.47-7.27,31.32-16.5,45.03-16.5,15.39,0,26.57,8.39,26.57,24.33s-17.34,36.36-25.17,49.78c-12.03,20.98-39.44,59.57-39.44,83.07,0,12.31,14.26,12.59,23.21,12.59,35.52,0,69.08-26.85,97.33-45.87v16.78c-6.99,3.92-13.7,9.23-20.42,13.7Z"/><rect class="cls-13" x="1000.55" y="2110.99" width="214.94" height="214.94" rx="107.47" ry="107.47"/><g class="cls-16"><path class="cls-14" d="m1446.03,2212.16c-31.32,49.51-115.23,163.62-173.68,163.62-23.77,0-30.77-18.46-30.77-39.16,0-15.94,10.07-46.43,19.02-59.57-6.99,7.83-13.15,16.22-20.14,23.77-21.54,22.93-78.59,74.96-110.2,74.96-25.17,0-34.96-13.15-34.96-36.92,0-11.47,24.61-70.76,31.88-80.83-29.92,29.64-64.61,52.86-98.73,77.19v-16.78c28.81-19.86,70.2-50.06,93.97-74.96,15.1-15.94,26.01-34.96,40.55-51.18,1.12-1.4,2.8-1.96,4.47-1.96,2.8,0,8.39,2.24,8.39,5.87,0,.56-.28,1.12-.56,1.68-17.06,25.45-30.21,52.58-43.63,80.27-7.27,15.38-21.26,47.27-21.26,63.21,0,13.7,5.32,19.58,19.86,19.58,28.53,0,79.99-50.9,100.13-70.76,20.42-20.42,39.44-41.95,55.94-65.73,6.71-10.07,12.3-20.98,19.02-31.05,1.4-2.24,3.36-3.35,6.15-3.35,3.08,0,6.99,1.68,6.99,5.31s-44.47,86.42-50.06,97.61c-8.39,16.78-11.75,29.65-11.75,48.39,0,10.35,3.36,19.58,15.66,19.58,45.59,0,116.35-90.34,141.24-125.86,6.15-8.95,12.59-17.9,18.18-27.13,2.52-4.2,4.2-8.67,6.71-12.59,1.96-3.36,5.04-5.03,8.95-5.03,4.48,0,6.71,2.24,8.11,6.43,1.95,5.87,3.07,12.03,5.59,18.18,11.19,27.41,31.6,32.16,59.01,32.16v14.83c-34.12,0-69.08-11.47-74.12-49.79Z"/></g><path class="cls-12" d="m362.62,853.95h3.15l17.69,27.6h.04v-27.6h2.94v32.77h-3.07l-17.77-27.94h-.04v27.94h-2.94v-32.77Z"/><path class="cls-12" d="m393.37,876.21c0-6.22,3.32-11.05,10.38-11.05,6.59,0,10.25,4.83,10.25,11.05s-3.7,11.05-10.29,11.05c-7.27,0-10.33-4.83-10.33-11.05Zm17.56,0c0-5.33-2.9-8.49-7.22-8.49-4.75,0-7.27,3.15-7.27,8.49s2.56,8.49,7.27,8.49c4.33,0,7.22-3.15,7.22-8.49Z"/><path class="cls-12" d="m460.24,873.1v13.61h-2.94v-13.27c0-4.33-2.14-5.71-4.75-5.71-3.82,0-6.17,2.69-6.17,5.63v13.36h-2.94v-13.27c0-4.33-1.85-5.71-4.83-5.71-3.61,0-6.13,2.69-6.13,5.63v13.36h-2.94v-21h2.6l.29,3.49c1.01-2.02,3.07-4.03,6.93-4.03,2.94,0,5.38,1.39,6.43,4.28,1.22-2.39,3.57-4.28,7.14-4.28,4.29,0,7.31,2.52,7.31,7.94Z"/><path class="cls-12" d="m467.58,853.95h2.98v6.51h-2.98v-6.51Zm0,11.76h2.94v21h-2.94v-21Z"/><path class="cls-12" d="m476.23,876.38c0-6.38,3.23-11.22,10-11.22s8.95,3.91,8.95,8.95v.42h-3.11v-.63c0-3.82-1.64-6.09-5.84-6.09-4.75,0-7.02,3.11-7.02,8.4,0,5.63,2.39,8.49,6.93,8.49,3.82,0,5.84-1.85,5.92-5.67h3.02c-.08,4.66-3.15,8.23-9.03,8.23-7.22,0-9.83-4.75-9.83-10.88Z"/><path class="cls-12" d="m501.05,865.71h2.6l.29,3.91c1.01-2.14,3.07-4.45,6.76-4.45,1.26,0,2.18.21,3.02.55v3.15c-1.13-.5-2.1-.76-3.4-.76-3.74,0-6.34,2.81-6.34,5.75v12.85h-2.94v-21Z"/><path class="cls-12" d="m516.05,876.21c0-6.22,3.32-11.05,10.38-11.05,6.59,0,10.25,4.83,10.25,11.05s-3.7,11.05-10.29,11.05c-7.27,0-10.33-4.83-10.33-11.05Zm17.56,0c0-5.33-2.9-8.49-7.22-8.49-4.75,0-7.27,3.15-7.27,8.49s2.56,8.49,7.27,8.49c4.33,0,7.22-3.15,7.22-8.49Z"/><path class="cls-12" d="m541.92,853.95h2.94v32.77h-2.94v-32.77Z"/><path class="cls-12" d="m550.53,876.21c0-6.22,3.32-11.05,10.38-11.05,6.59,0,10.25,4.83,10.25,11.05s-3.7,11.05-10.29,11.05c-7.27,0-10.33-4.83-10.33-11.05Zm17.56,0c0-5.33-2.9-8.49-7.22-8.49-4.75,0-7.27,3.15-7.27,8.49s2.56,8.49,7.27,8.49c4.33,0,7.22-3.15,7.22-8.49Z"/><path class="cls-12" d="m575.35,876.21c0-6.22,3.32-11.05,10.38-11.05,6.59,0,10.25,4.83,10.25,11.05s-3.7,11.05-10.29,11.05c-7.27,0-10.33-4.83-10.33-11.05Zm17.56,0c0-5.33-2.9-8.49-7.22-8.49-4.75,0-7.27,3.15-7.27,8.49s2.56,8.49,7.27,8.49c4.33,0,7.22-3.15,7.22-8.49Z"/><path class="cls-12" d="m601.85,865.71h2.39l.34,3.86h.08c1.13-2.48,4.03-4.41,7.86-4.41,6.3,0,9.66,3.99,9.66,11.01s-4.29,11.09-9.87,11.09c-3.78,0-6.38-1.6-7.43-3.7h-.08v11.55h-2.94v-29.41Zm17.18,10.63c0-7.18-3.4-8.61-6.93-8.61-4.24,0-7.56,2.73-7.56,8.44,0,6.01,3.45,8.57,7.44,8.57,3.02,0,7.06-1.47,7.06-8.4Z"/><path class="cls-12" d="m626.17,880.29v-1.18h2.94v1.13c0,2.86,2.14,4.5,5.96,4.5s5.8-1.01,5.8-3.78c0-2.06-1.01-2.81-3.86-3.32l-4.62-.84c-3.02-.55-5.54-2.02-5.54-5.5,0-3.15,2.35-6.13,8.4-6.13s8.4,3.02,8.4,7.23v.88h-2.98v-.76c0-3.44-2.14-4.91-5.42-4.91-3.95,0-5.33,1.34-5.33,3.36s1.01,2.86,3.91,3.4l4.03.76c4.12.76,6.09,1.93,6.09,5.59,0,4.58-4.12,6.55-8.78,6.55-7.31,0-8.99-3.28-8.99-6.97Z"/><path class="cls-12" d="m659.47,853.95h2.98v6.51h-2.98v-6.51Zm0,11.76h2.94v21h-2.94v-21Z"/><path class="cls-12" d="m669.81,865.71h2.6l.29,3.49c1.01-2.14,3.28-4.03,7.35-4.03,4.75,0,7.77,2.52,7.77,7.94v13.61h-2.94v-13.27c0-4.33-2.14-5.71-5.5-5.71-3.82,0-6.64,2.69-6.64,5.63v13.36h-2.94v-21Z"/><path class="cls-12" d="m704.83,853.95h2.94v32.77h-2.94v-32.77Z"/><path class="cls-12" d="m713.44,876.21c0-6.22,3.32-11.05,10.38-11.05,6.59,0,10.25,4.83,10.25,11.05s-3.7,11.05-10.29,11.05c-7.27,0-10.33-4.83-10.33-11.05Zm17.56,0c0-5.33-2.9-8.49-7.22-8.49-4.75,0-7.27,3.15-7.27,8.49s2.56,8.49,7.27,8.49c4.33,0,7.22-3.15,7.22-8.49Z"/><path class="cls-12" d="m736.37,865.75v-.04h2.98l5.76,17.48h.08l6.3-17.48h2.69l6.17,17.48h.08l5.75-17.48h2.86v.04l-7.18,20.96h-3.02l-5.96-17.06h-.08l-6.22,17.06h-3.02l-7.18-20.96Z"/><path class="cls-12" d="m790.31,877.22h-15.96c.17,4.79,2.48,7.48,6.93,7.48,3.82,0,5.67-1.43,5.97-4.83h2.98c-.29,4.24-3.28,7.39-9.03,7.39-7.06,0-9.83-4.66-9.83-10.88s3.23-11.22,10-11.22,8.95,3.99,8.95,10.21v1.85Zm-3.11-2.98c0-4.45-1.72-6.55-5.92-6.55s-6.55,2.65-6.89,6.97h12.81v-.42Z"/><path class="cls-12" d="m796.18,865.71h2.6l.29,3.91c1.01-2.14,3.07-4.45,6.76-4.45,1.26,0,2.18.21,3.02.55v3.15c-1.13-.5-2.1-.76-3.4-.76-3.74,0-6.34,2.81-6.34,5.75v12.85h-2.94v-21Z"/><path class="cls-12" d="m811.18,876.38c0-6.38,3.23-11.22,10-11.22s8.95,3.91,8.95,8.95v.42h-3.11v-.63c0-3.82-1.64-6.09-5.84-6.09-4.75,0-7.02,3.11-7.02,8.4,0,5.63,2.39,8.49,6.93,8.49,3.82,0,5.84-1.85,5.92-5.67h3.02c-.08,4.66-3.15,8.23-9.03,8.23-7.22,0-9.83-4.75-9.83-10.88Z"/><path class="cls-12" d="m834.53,880.92c0-3.95,2.23-6.09,7.86-6.09h6.34v-1.72c0-2.98-1.26-5.42-5.46-5.42-3.95,0-5.33,1.51-5.33,4.12v.88h-2.98v-.84c0-5,4.2-6.68,8.32-6.68,5.8,0,8.4,2.86,8.4,8.44v13.11h-2.06l-.55-2.98h-.08c-1.26,1.89-3.7,3.53-7.35,3.53-4.92,0-7.1-2.31-7.1-6.34Zm14.2-1.85v-1.76h-7.01c-2.65,0-4.03.92-4.03,3.61,0,2.35,1.26,3.86,4.5,3.86,4.16,0,6.55-2.14,6.55-5.71Z"/><path class="cls-12" d="m857.12,880.29v-1.18h2.94v1.13c0,2.86,2.14,4.5,5.96,4.5s5.8-1.01,5.8-3.78c0-2.06-1.01-2.81-3.86-3.32l-4.62-.84c-3.02-.55-5.54-2.02-5.54-5.5,0-3.15,2.35-6.13,8.4-6.13s8.4,3.02,8.4,7.23v.88h-2.98v-.76c0-3.44-2.14-4.91-5.42-4.91-3.95,0-5.33,1.34-5.33,3.36s1.01,2.86,3.91,3.4l4.03.76c4.12.76,6.09,1.93,6.09,5.59,0,4.58-4.12,6.55-8.78,6.55-7.31,0-8.99-3.28-8.99-6.97Z"/><path class="cls-12" d="m898.04,877.22h-15.96c.17,4.79,2.48,7.48,6.93,7.48,3.82,0,5.67-1.43,5.97-4.83h2.98c-.29,4.24-3.28,7.39-9.03,7.39-7.06,0-9.83-4.66-9.83-10.88s3.23-11.22,10-11.22,8.95,3.99,8.95,10.21v1.85Zm-3.11-2.98c0-4.45-1.72-6.55-5.92-6.55s-6.55,2.65-6.89,6.97h12.81v-.42Z"/><path class="cls-12" d="m913.57,853.95h2.94v32.77h-2.94v-32.77Z"/><path class="cls-12" d="m941.13,877.22h-15.96c.17,4.79,2.48,7.48,6.93,7.48,3.82,0,5.67-1.43,5.97-4.83h2.98c-.29,4.24-3.28,7.39-9.03,7.39-7.06,0-9.83-4.66-9.83-10.88s3.23-11.22,10-11.22,8.95,3.99,8.95,10.21v1.85Zm-3.11-2.98c0-4.45-1.72-6.55-5.92-6.55s-6.55,2.65-6.89,6.97h12.81v-.42Z"/><path class="cls-12" d="m947.59,880.33v-12.18h-4.16v-2.44h4.16v-6.05l2.94-1.43v7.48h11.85v-6.05l2.94-1.43v7.48h5.92v2.44h-5.92v11.8c0,2.81.76,4.58,3.4,4.58,1.6,0,3.24-.29,4.03-.5v2.6c-.76.21-2.14.59-4.03.59-3.82,0-6.34-1.6-6.34-6.89v-12.18h-11.85v11.8c0,2.81.76,4.58,3.4,4.58,1.6,0,3.23-.29,4.03-.5v2.6c-.76.21-2.14.59-4.03.59-3.82,0-6.34-1.6-6.34-6.89Z"/><path class="cls-12" d="m994.21,877.22h-15.96c.17,4.79,2.48,7.48,6.93,7.48,3.82,0,5.67-1.43,5.97-4.83h2.98c-.29,4.24-3.28,7.39-9.03,7.39-7.06,0-9.83-4.66-9.83-10.88s3.23-11.22,10-11.22,8.95,3.99,8.95,10.21v1.85Zm-3.11-2.98c0-4.45-1.72-6.55-5.92-6.55s-6.55,2.65-6.89,6.97h12.81v-.42Z"/><path class="cls-12" d="m1000.09,865.71h2.6l.29,3.91c1.01-2.14,3.07-4.45,6.76-4.45,1.26,0,2.18.21,3.02.55v3.15c-1.13-.5-2.1-.76-3.4-.76-3.74,0-6.34,2.81-6.34,5.75v12.85h-2.94v-21Z"/><path class="cls-12" d="m1015.29,880.29v-1.18h2.94v1.13c0,2.86,2.14,4.5,5.96,4.5s5.8-1.01,5.8-3.78c0-2.06-1.01-2.81-3.86-3.32l-4.62-.84c-3.02-.55-5.54-2.02-5.54-5.5,0-3.15,2.35-6.13,8.4-6.13s8.4,3.02,8.4,7.23v.88h-2.98v-.76c0-3.44-2.14-4.91-5.42-4.91-3.95,0-5.33,1.34-5.33,3.36s1.01,2.86,3.91,3.4l4.03.76c4.12.76,6.09,1.93,6.09,5.59,0,4.58-4.12,6.55-8.78,6.55-7.31,0-8.99-3.28-8.99-6.97Z"/><polygon class="cls-15" points="1207.27 754.42 1259.61 754.42 1565.08 201.78 1512.75 201.78 1207.27 754.42"/><line class="cls-3" x1="837.93" y1="830.48" x2="837.93" y2="829.6"/><line class="cls-2" x1="837.93" y1="812.24" x2="837.93" y2="477.14"/><line class="cls-3" x1="837.93" y1="468.46" x2="837.93" y2="467.59"/><path class="cls-12" d="m209.68,512.89c17.62-25.17,48.67-39.99,79.15-39.99,6.43,0,12.87,1.4,19.02,3.64,13.7-26.85,24.33-55.1,36.64-82.23,16.5-36.08,36.08-70.48,57.06-104.04,19.02-30.2,40.83-56.22,73.56-72.44,23.49-11.46,40.27-17.34,66.84-17.34,41.95,0,76.35,26.29,94.53,63.2,40.55-6.43,92.29-28.8,119.7-59.85,1.68-1.96,3.08-3.35,6.15-3.35,3.92,0,7.83,3.35,7.83,7.27,0,1.68-.56,3.08-1.4,4.48-22.1,31.6-89.78,57.34-126.98,64.6,5.31,18.18,9.79,37.76,9.79,56.78,0,34.96-3.08,47.55-15.66,80.27-25.73,67.96-119.98,154.38-195.78,154.38-60.97,0-81.11-41.67-125.86-71.6-16.5,30.49-45.59,73.56-84.19,73.56-20.42,0-29.65-13.7-29.65-33,0-8.67,4.47-17.34,9.23-24.33Zm79.15-24.89c-25.17,0-51.74,12.58-66.57,33-3.08,4.48-6.71,10.63-6.71,16.22,0,10.63,2.52,17.9,14.54,17.9,31.32,0,57.34-40.55,70.76-65.17-3.92-.84-8.11-1.95-12.03-1.95Zm151.31,65.16c72.44,0,155.5-82.23,182.08-145.43,10.63-25.45,14.26-46.71,14.26-74.12,0-14.82-4.75-39.15-9.23-53.42-19.3,2.24-38.88,4.2-58.45,4.2-31.32,0-89.22-10.63-93.97-48.94-30.21,13.42-48.67,43.07-64.61,70.76-18.18,31.89-37.48,63.21-53.14,96.21-12.59,26.57-22.37,54.54-35.8,80.83,42.51,27.69,61.53,69.92,118.87,69.92Zm125.02-282.2c19.02,0,38.04-2.8,57.06-4.2-17.62-29.93-44.47-51.18-80.27-51.18-9.79,0-52.3,3.35-52.3,16.22,0,30.49,52.58,39.15,75.51,39.15Z"/><path class="cls-12" d="m764.87,384.23c46.43,0,39.15,55.38,112.15,55.38v14.82c-20.7,0-51.74-5.6-66.57-21.26,1.12,4.2,1.4,5.88,1.4,10.35,0,57.34-40.55,125.3-104.04,125.3-34.68,0-52.58-19.58-52.58-53.7,0-57.34,46.71-130.89,109.64-130.89Zm-1.96,14.83c-52.86,0-92.86,66.84-92.86,114.39,0,25.45,11.19,40.55,37.76,40.55,55.1,0,88.66-61.25,88.66-110.48,0-19.86-10.91-44.47-33.56-44.47Z"/><path class="cls-12" d="m874.24,439.62c39.16,0,99.57-17.9,134.25-36.36,23.77-12.59,57.34-19.86,84.19-19.86,9.51,0,31.32.56,31.32,14.54,0,16.5-25.73,53.98-34.4,69.64-15.94,28.24-30.49,57.34-45.59,85.86,26.57-14.55,53.7-29.09,79.43-45.31v16.78c-29.65,17.9-60.41,33.84-90.34,50.9-23.77,46.99-49.78,92.58-74.96,138.73-11.75,21.81-24.89,38.88-52.02,38.88-16.5,0-24.33-16.22-24.33-30.77,0-30.49,22.65-53.7,41.39-75.24,28.81-33.56,65.17-56.78,99.57-83.9l36.36-72.44c-27.69,27.69-87.82,78.87-128.1,78.87-20.98,0-31.32-13.7-31.32-33.84,0-38.59,27.69-72.44,54.54-97.61-19.86,8.67-58.17,15.94-79.99,15.94v-14.82Zm22.65,282.76c0,6.71,4.2,15.66,12.03,15.66,19.3,0,28.81-17.34,36.64-32.16,20.7-39.15,43.91-76.63,64.05-115.79-33.56,26.57-112.71,86.99-112.71,132.29Zm36.92-167.81c18.18,0,44.19-16.22,58.73-26.85,11.47-8.11,21.26-18.46,32.72-27.13,26.01-19.58,48.39-42.79,66.57-70.2,4.47-6.71,12.31-17.62,12.31-26.01,0-6.71-6.99-7-11.75-7-44.75,0-90.62,17.34-123.9,46.99-22.09,19.85-52.86,59.57-52.86,90.33,0,11.75,5.59,19.86,18.18,19.86Z"/><path class="cls-12" d="m1367.62,568.83c-17.06,0-33.28-13.7-33.28-31.32s16.78-50.63,24.89-67.13c-33.84,32.72-92.86,97.89-142.08,97.89-23.21,0-38.32-12.86-38.32-36.64,0-15.1,25.73-70.48,34.68-85.3-28.25,29.93-59.85,58.18-93.97,81.39v-16.78c34.68-26.85,70.2-55.94,98.73-89.5,10.07-11.75,17.62-25.73,28.53-36.36,1.12-1.12,2.8-2.24,4.47-2.24,1.96,0,3.91,1.96,4.75,3.91,1.4,1.12,2.52,2.8,2.52,4.48,0,4.75-13.7,26.57-16.5,31.05-9.23,15.1-15.38,31.88-24.05,47.26-6.43,11.47-24.05,50.63-24.05,62.09,0,15.66,8.11,21.82,23.21,21.82,45.31,0,88.1-50.9,118.87-79.71,28.25-26.57,44.75-49.78,64.33-82.79,1.96-3.35,4.75-7.27,9.23-7.27,4.2,0,7.83,3.08,7.83,7.55,0,1.68-.56,3.08-1.4,4.75-16.5,27.69-66.57,113.55-66.57,141.52,0,9.51,9.51,16.5,18.18,16.5,36.64,0,65.44-25.73,93.41-45.87v16.78c-29.64,18.74-55.94,43.91-93.41,43.91Z"/><path class="cls-12" d="m1457.41,510.37c16.5-8.95,32.16-18.74,48.11-28.81,7.55-38.59,38.6-96.49,83.63-96.49,16.5,0,27.69,6.43,27.69,24.33,0,15.66-14.82,28.25-26.29,36.92-22.65,17.06-47.27,31.89-71.6,46.71-2.8,13.43-6.71,26.85-6.71,40.55s9.51,20.7,22.94,20.7c34.96,0,82.23-26.01,110.19-46.14v16.78c-30.21,20.7-72.72,44.19-110.19,44.19-21.82,0-37.76-11.47-37.76-34.4,0-11.75,3.08-23.21,5.31-34.68-14.82,9.79-29.92,18.74-45.31,27.13v-16.78Zm132.01-110.48c-35.24,0-59.85,44.75-67.68,74.68,15.1-8.95,79.99-47.54,79.99-64.05,0-8.39-4.75-10.63-12.3-10.63Z"/><path class="cls-13" d="m764.87,384.23c46.43,0,39.15,55.38,112.15,55.38v14.82c-20.7,0-51.74-5.6-66.57-21.26,1.12,4.2,1.4,5.88,1.4,10.35,0,57.34-40.55,125.3-104.04,125.3-34.68,0-52.58-19.58-52.58-53.7,0-57.34,46.71-130.89,109.64-130.89Zm-1.96,14.83c-52.86,0-92.86,66.84-92.86,114.39,0,25.45,11.19,40.55,37.76,40.55,55.1,0,88.66-61.25,88.66-110.48,0-19.86-10.91-44.47-33.56-44.47Z"/><path class="cls-12" d="m1119.79,819.62v-2.02h3.02v2.18c0,3.74,2.61,6.05,7.94,6.05s8.44-1.97,8.44-6.22c0-3.32-1.39-5.17-4.92-6.09l-6.64-1.72c-4.33-1.13-7.18-2.98-7.18-8.15s3.78-8.91,10.92-8.91,10.59,3.44,10.59,9.07v2.94h-3.03v-2.81c0-4.62-3.07-6.51-7.56-6.51-5.12,0-7.81,2.14-7.81,6.01,0,3.61,1.76,4.7,5.54,5.71l5.75,1.55c5.12,1.39,7.44,3.74,7.44,8.65,0,6.09-4.33,9.24-11.47,9.24-9.12,0-11.05-4.7-11.05-8.99Z"/><path class="cls-12" d="m1160.45,825.38v2.6c-.76.21-2.14.59-4.03.59-3.82,0-6.34-1.6-6.34-6.89v-12.18h-4.16v-2.44h4.16v-6.05l2.94-1.43v7.48h5.92v2.44h-5.92v11.8c0,2.81.76,4.58,3.4,4.58,1.6,0,3.23-.29,4.03-.5Z"/><path class="cls-12" d="m1181.91,818.57h-15.96c.17,4.79,2.48,7.48,6.93,7.48,3.82,0,5.67-1.43,5.96-4.83h2.98c-.29,4.24-3.28,7.39-9.03,7.39-7.06,0-9.83-4.66-9.83-10.88s3.23-11.22,10-11.22,8.95,3.99,8.95,10.21v1.85Zm-3.11-2.98c0-4.45-1.72-6.55-5.92-6.55s-6.55,2.65-6.89,6.97h12.81v-.42Z"/><path class="cls-12" d="m1205.05,818.57h-15.96c.17,4.79,2.48,7.48,6.93,7.48,3.82,0,5.67-1.43,5.96-4.83h2.98c-.29,4.24-3.28,7.39-9.03,7.39-7.06,0-9.83-4.66-9.83-10.88s3.23-11.22,10-11.22,8.95,3.99,8.95,10.21v1.85Zm-3.11-2.98c0-4.45-1.72-6.55-5.92-6.55s-6.55,2.65-6.89,6.97h12.81v-.42Z"/><path class="cls-12" d="m1210.93,807.06h2.39l.34,3.86h.08c1.13-2.48,4.03-4.41,7.86-4.41,6.3,0,9.66,3.99,9.66,11.01s-4.28,11.09-9.87,11.09c-3.78,0-6.38-1.6-7.44-3.7h-.08v11.55h-2.94v-29.41Zm17.18,10.63c0-7.18-3.4-8.61-6.93-8.61-4.24,0-7.56,2.73-7.56,8.44,0,6.01,3.44,8.57,7.44,8.57,3.02,0,7.06-1.47,7.06-8.4Z"/><path class="cls-12" d="m1244.91,821.64v-1.18h2.94v1.13c0,2.86,2.14,4.5,5.96,4.5s5.8-1.01,5.8-3.78c0-2.06-1.01-2.81-3.87-3.32l-4.62-.84c-3.02-.55-5.54-2.02-5.54-5.5,0-3.15,2.35-6.13,8.4-6.13s8.4,3.02,8.4,7.23v.88h-2.98v-.76c0-3.44-2.14-4.91-5.42-4.91-3.95,0-5.34,1.34-5.34,3.36s1.01,2.86,3.91,3.4l4.03.76c4.12.76,6.09,1.93,6.09,5.59,0,4.58-4.12,6.55-8.78,6.55-7.31,0-8.99-3.28-8.99-6.97Z"/><path class="cls-12" d="m1268.55,795.3h2.94v32.77h-2.94v-32.77Z"/><path class="cls-12" d="m1277.58,822.27c0-3.95,2.23-6.09,7.86-6.09h6.34v-1.72c0-2.98-1.26-5.42-5.46-5.42-3.95,0-5.34,1.51-5.34,4.12v.88h-2.98v-.84c0-5,4.2-6.68,8.32-6.68,5.8,0,8.4,2.86,8.4,8.44v13.11h-2.06l-.55-2.98h-.08c-1.26,1.89-3.7,3.53-7.35,3.53-4.91,0-7.1-2.31-7.1-6.34Zm14.2-1.85v-1.76h-7.02c-2.65,0-4.03.92-4.03,3.61,0,2.35,1.26,3.86,4.5,3.86,4.16,0,6.55-2.14,6.55-5.71Z"/><path class="cls-12" d="m1302.07,807.06h2.61l.29,3.49c1.01-2.14,3.28-4.03,7.35-4.03,4.75,0,7.77,2.52,7.77,7.94v13.61h-2.94v-13.27c0-4.33-2.14-5.71-5.5-5.71-3.82,0-6.64,2.69-6.64,5.63v13.36h-2.94v-21Z"/><path class="cls-12" d="m1338.4,825.38v2.6c-.76.21-2.14.59-4.03.59-3.82,0-6.34-1.6-6.34-6.89v-12.18h-4.16v-2.44h4.16v-6.05l2.94-1.43v7.48h5.92v2.44h-5.92v11.8c0,2.81.76,4.58,3.4,4.58,1.6,0,3.23-.29,4.03-.5Z"/><path class="cls-12" d="m730.45,1820.48c0-12.01,6.76-17.27,14.74-17.27,6.97,0,12.39,3.74,12.39,12.01v.8h-2.86v-.92c0-5.92-3.78-9.24-9.45-9.24-6.72,0-11.76,4.58-11.76,14.33s5.04,14.24,11.72,14.24c5.38,0,9.54-2.86,9.54-9.2v-.59h2.77v.42c0,8.02-5.33,12.01-12.56,12.01-7.98,0-14.53-4.87-14.53-16.59Z"/><path class="cls-12" d="m763.46,1829.14v-13.61h2.94v13.27c0,4.33,2.14,5.71,5.42,5.71,3.74,0,6.55-2.69,6.55-5.63v-13.36h2.94v21h-2.6l-.25-3.36h-.08c-.97,2.02-3.23,3.91-7.23,3.91-4.66,0-7.69-2.52-7.69-7.94Z"/><path class="cls-12" d="m788.66,1815.53h2.6l.29,3.91c1.01-2.14,3.07-4.45,6.76-4.45,1.26,0,2.18.21,3.02.55v3.15c-1.13-.5-2.1-.76-3.4-.76-3.74,0-6.34,2.81-6.34,5.75v12.85h-2.94v-21Z"/><path class="cls-12" d="m802.82,1815.57v-.04h3.36l7.35,17.98h.08l7.1-17.98h3.07v.04l-8.74,20.96h-3.02l-9.2-20.96Z"/><path class="cls-12" d="m844.61,1827.04h-15.96c.17,4.79,2.48,7.48,6.93,7.48,3.82,0,5.67-1.43,5.97-4.83h2.98c-.29,4.24-3.28,7.39-9.03,7.39-7.06,0-9.83-4.66-9.83-10.88s3.23-11.22,10-11.22,8.95,3.99,8.95,10.21v1.85Zm-3.11-2.98c0-4.45-1.72-6.55-5.92-6.55s-6.55,2.65-6.89,6.97h12.81v-.42Z"/><path class="cls-12" d="m848.81,1826.07c0-7.1,4.28-11.09,10.04-11.09,3.7,0,6.22,1.6,7.31,3.74h.04v-14.95h2.94v32.77h-1.97l-.67-3.61h-.08c-1.18,2.31-3.95,4.16-7.77,4.16-6.3,0-9.83-3.99-9.83-11.01Zm17.64-.5c0-5.5-3.36-8.07-7.35-8.07-3.11,0-7.14,1.47-7.14,8.4s3.61,8.61,7.14,8.61c4.24,0,7.35-2.73,7.35-8.95Z"/><path class="cls-12" d="m903.41,1827.04h-15.96c.17,4.79,2.48,7.48,6.93,7.48,3.82,0,5.67-1.43,5.97-4.83h2.98c-.29,4.24-3.28,7.39-9.03,7.39-7.06,0-9.83-4.66-9.83-10.88s3.23-11.22,10-11.22,8.95,3.99,8.95,10.21v1.85Zm-3.11-2.98c0-4.45-1.72-6.55-5.92-6.55s-6.55,2.65-6.89,6.97h12.81v-.42Z"/><path class="cls-12" d="m909.29,1815.53h2.6l.29,3.49c1.01-2.14,3.28-4.03,7.35-4.03,4.75,0,7.77,2.52,7.77,7.94v13.61h-2.94v-13.27c0-4.33-2.14-5.71-5.5-5.71-3.82,0-6.64,2.69-6.64,5.63v13.36h-2.94v-21Z"/><path class="cls-12" d="m945.62,1833.84v2.6c-.76.21-2.14.59-4.03.59-3.82,0-6.34-1.6-6.34-6.89v-12.18h-4.16v-2.44h4.16v-6.05l2.94-1.43v7.48h5.92v2.44h-5.92v11.8c0,2.81.76,4.58,3.4,4.58,1.6,0,3.23-.29,4.03-.5Z"/><path class="cls-12" d="m950.45,1815.53h2.6l.29,3.91c1.01-2.14,3.07-4.45,6.76-4.45,1.26,0,2.18.21,3.02.55v3.15c-1.13-.5-2.1-.76-3.4-.76-3.74,0-6.34,2.81-6.34,5.75v12.85h-2.94v-21Z"/><path class="cls-12" d="m967.96,1815.53l6.89,17.98h.08l7.14-17.98h3.07v.04l-8.86,20.84-3.11,8.53h-2.98v-.04l3.19-8.36-8.78-20.96v-.04h3.36Z"/><path class="cls-12" d="m997.11,1830.1v-1.18h2.94v1.13c0,2.86,2.14,4.5,5.96,4.5s5.8-1.01,5.8-3.78c0-2.06-1.01-2.81-3.86-3.32l-4.62-.84c-3.02-.55-5.54-2.02-5.54-5.5,0-3.15,2.35-6.13,8.4-6.13s8.4,3.02,8.4,7.22v.88h-2.98v-.76c0-3.44-2.14-4.91-5.42-4.91-3.95,0-5.33,1.34-5.33,3.36s1.01,2.86,3.91,3.4l4.03.76c4.12.76,6.09,1.93,6.09,5.59,0,4.58-4.12,6.55-8.78,6.55-7.31,0-8.99-3.28-8.99-6.97Z"/><path class="cls-12" d="m1031.72,1833.84v2.6c-.76.21-2.14.59-4.03.59-3.82,0-6.34-1.6-6.34-6.89v-12.18h-4.16v-2.44h4.16v-6.05l2.94-1.43v7.48h5.92v2.44h-5.92v11.8c0,2.81.76,4.58,3.4,4.58,1.6,0,3.23-.29,4.03-.5Z"/><path class="cls-12" d="m1036.55,1815.53h2.6l.29,3.91c1.01-2.14,3.07-4.45,6.76-4.45,1.26,0,2.18.21,3.02.55v3.15c-1.13-.5-2.1-.76-3.4-.76-3.74,0-6.34,2.81-6.34,5.75v12.85h-2.94v-21Z"/><path class="cls-12" d="m1051.54,1826.03c0-6.22,3.32-11.05,10.38-11.05,6.59,0,10.25,4.83,10.25,11.05s-3.7,11.05-10.29,11.05c-7.27,0-10.33-4.83-10.33-11.05Zm17.56,0c0-5.33-2.9-8.49-7.22-8.49-4.75,0-7.27,3.15-7.27,8.49s2.56,8.49,7.27,8.49c4.33,0,7.22-3.15,7.22-8.49Z"/><path class="cls-12" d="m1077.41,1803.77h2.94v23.23l12.14-11.47h3.65v.04l-8.4,7.86,8.78,13.06v.04h-3.36l-7.39-11.22-5.42,5.04v6.18h-2.94v-32.77Z"/><path class="cls-12" d="m1117.78,1827.04h-15.96c.17,4.79,2.48,7.48,6.93,7.48,3.82,0,5.67-1.43,5.97-4.83h2.98c-.29,4.24-3.28,7.39-9.03,7.39-7.06,0-9.83-4.66-9.83-10.88s3.23-11.22,10-11.22,8.95,3.99,8.95,10.21v1.85Zm-3.11-2.98c0-4.45-1.72-6.55-5.92-6.55s-6.55,2.65-6.89,6.97h12.81v-.42Z"/><path class="cls-12" d="m1133.31,1803.77h2.98v6.51h-2.98v-6.51Zm0,11.76h2.94v21h-2.94v-21Z"/><path class="cls-12" d="m1143.65,1815.53h2.6l.29,3.49c1.01-2.14,3.28-4.03,7.35-4.03,4.75,0,7.77,2.52,7.77,7.94v13.61h-2.94v-13.27c0-4.33-2.14-5.71-5.5-5.71-3.82,0-6.64,2.69-6.64,5.63v13.36h-2.94v-21Z"/><path class="cls-12" d="m1180.35,1814.22h-3.36v-5.08c0-3.95.88-5.29,3.4-5.97l.67,1.85c-1.76.67-2.06,1.09-2.06,3.78v.34h1.34v5.08Zm5.92,0h-3.36v-5.08c0-3.95.88-5.29,3.4-5.97l.67,1.85c-1.76.67-2.06,1.09-2.06,3.78v.34h1.34v5.08Z"/><path class="cls-12" d="m1189.51,1815.57v-.04h3.36l7.35,17.98h.08l7.1-17.98h3.07v.04l-8.74,20.96h-3.02l-9.2-20.96Z"/><path class="cls-12" d="m1212.99,1812.96c1.76-.67,2.06-1.09,2.06-3.78v-.34h-1.34v-5.08h3.36v5.08c0,3.95-.88,5.29-3.4,5.97l-.67-1.85Zm5.92,0c1.76-.67,2.06-1.09,2.06-3.78v-.34h-1.34v-5.08h3.36v5.08c0,3.95-.88,5.29-3.4,5.97l-.67-1.85Z"/><path class="cls-12" d="m1225.92,1830.31h3.36v6.22c0,3.95-.88,5.29-3.4,5.96l-.67-1.85c1.76-.67,2.06-1.09,2.06-3.78v-.34h-1.34v-6.22Z"/><path class="cls-12" d="m1248.06,1833.04h-.08l-.76,3.49h-1.97v-32.77h2.94v15.25h.04c1.26-2.31,4.07-4.03,7.69-4.03,6.3,0,9.66,3.99,9.66,11.01s-4.29,11.09-9.87,11.09c-3.78,0-6.55-1.64-7.65-4.03Zm14.37-6.89c0-7.18-3.4-8.61-6.93-8.61-4.24,0-7.56,2.73-7.56,8.44,0,6.01,3.45,8.57,7.44,8.57,3.02,0,7.06-1.47,7.06-8.4Z"/><path class="cls-12" d="m1271.03,1829.14v-13.61h2.94v13.27c0,4.33,2.14,5.71,5.42,5.71,3.74,0,6.55-2.69,6.55-5.63v-13.36h2.94v21h-2.6l-.25-3.36h-.08c-.97,2.02-3.23,3.91-7.23,3.91-4.66,0-7.69-2.52-7.69-7.94Z"/><path class="cls-12" d="m1307.2,1833.84v2.6c-.76.21-2.14.59-4.03.59-3.82,0-6.34-1.6-6.34-6.89v-12.18h-4.16v-2.44h4.16v-6.05l2.94-1.43v7.48h5.92v2.44h-5.92v11.8c0,2.81.76,4.58,3.4,4.58,1.6,0,3.23-.29,4.03-.5Z"/><path class="cls-12" d="m1320.42,1830.73c0-3.95,2.23-6.09,7.86-6.09h6.34v-1.72c0-2.98-1.26-5.42-5.46-5.42-3.95,0-5.33,1.51-5.33,4.12v.88h-2.98v-.84c0-5,4.2-6.68,8.32-6.68,5.8,0,8.4,2.86,8.4,8.44v13.11h-2.06l-.55-2.98h-.08c-1.26,1.89-3.7,3.53-7.35,3.53-4.92,0-7.1-2.31-7.1-6.34Zm14.2-1.85v-1.76h-7.01c-2.65,0-4.03.92-4.03,3.61,0,2.35,1.26,3.86,4.5,3.86,4.16,0,6.55-2.14,6.55-5.71Z"/><path class="cls-12" d="m1344.91,1815.53h2.6l.29,3.49c1.01-2.14,3.28-4.03,7.35-4.03,4.75,0,7.77,2.52,7.77,7.94v13.61h-2.94v-13.27c0-4.33-2.14-5.71-5.5-5.71-3.82,0-6.64,2.69-6.64,5.63v13.36h-2.94v-21Z"/><path class="cls-12" d="m1369.65,1838.34v-.13h3.11v.13c0,2.9,1.93,4.33,6.13,4.33,4.79,0,7.01-2.94,7.01-7.86v-2.1h-.08c-1.09,2.18-3.65,4.08-7.48,4.08-6.3,0-9.75-3.99-9.75-10.71,0-7.1,4.37-11.09,9.96-11.09,3.78,0,6.55,1.81,7.56,4.12h.13l.29-3.57h2.31v19.16c0,5.88-2.81,10.71-10.33,10.71-6.3,0-8.86-2.98-8.86-7.06Zm16.59-12.77c0-5.5-3.36-8.07-7.35-8.07-3.03,0-7.14,1.47-7.14,8.4s3.57,8.32,7.1,8.32c4.24,0,7.39-2.73,7.39-8.65Z"/><path class="cls-12" d="m1395.77,1829.14v-13.61h2.94v13.27c0,4.33,2.14,5.71,5.42,5.71,3.74,0,6.55-2.69,6.55-5.63v-13.36h2.94v21h-2.6l-.25-3.36h-.08c-.97,2.02-3.23,3.91-7.23,3.91-4.66,0-7.69-2.52-7.69-7.94Z"/><path class="cls-12" d="m1420.97,1803.77h2.94v32.77h-2.94v-32.77Z"/><path class="cls-12" d="m1430,1830.73c0-3.95,2.23-6.09,7.86-6.09h6.34v-1.72c0-2.98-1.26-5.42-5.46-5.42-3.95,0-5.33,1.51-5.33,4.12v.88h-2.98v-.84c0-5,4.2-6.68,8.32-6.68,5.8,0,8.4,2.86,8.4,8.44v13.11h-2.06l-.55-2.98h-.08c-1.26,1.89-3.7,3.53-7.35,3.53-4.92,0-7.1-2.31-7.1-6.34Zm14.2-1.85v-1.76h-7.01c-2.65,0-4.03.92-4.03,3.61,0,2.35,1.26,3.86,4.5,3.86,4.16,0,6.55-2.14,6.55-5.71Z"/><path class="cls-12" d="m1454.49,1815.53h2.6l.29,3.91c1.01-2.14,3.07-4.45,6.76-4.45,1.26,0,2.18.21,3.02.55v3.15c-1.13-.5-2.1-.76-3.4-.76-3.74,0-6.34,2.81-6.34,5.75v12.85h-2.94v-21Z"/><path class="cls-12" d="m1479.77,1826.03c0-6.22,3.32-11.05,10.38-11.05,6.59,0,10.25,4.83,10.25,11.05s-3.7,11.05-10.29,11.05c-7.27,0-10.33-4.83-10.33-11.05Zm17.56,0c0-5.33-2.9-8.49-7.22-8.49-4.75,0-7.27,3.15-7.27,8.49s2.56,8.49,7.27,8.49c4.33,0,7.22-3.15,7.22-8.49Z"/><path class="cls-12" d="m1506.27,1815.53h2.6l.29,3.49c1.01-2.14,3.28-4.03,7.35-4.03,4.75,0,7.77,2.52,7.77,7.94v13.61h-2.94v-13.27c0-4.33-2.14-5.71-5.5-5.71-3.82,0-6.64,2.69-6.64,5.63v13.36h-2.94v-21Z"/><path class="cls-12" d="m1548.91,1827.04h-15.96c.17,4.79,2.48,7.48,6.93,7.48,3.82,0,5.67-1.43,5.97-4.83h2.98c-.29,4.24-3.28,7.39-9.03,7.39-7.06,0-9.83-4.66-9.83-10.88s3.23-11.22,10-11.22,8.95,3.99,8.95,10.21v1.85Zm-3.11-2.98c0-4.45-1.72-6.55-5.92-6.55s-6.55,2.65-6.89,6.97h12.81v-.42Z"/><path class="cls-12" d="m1564.44,1803.77h2.98v6.51h-2.98v-6.51Zm0,11.76h2.94v21h-2.94v-21Z"/><path class="cls-12" d="m1574.78,1815.53h2.6l.29,3.49c1.01-2.14,3.28-4.03,7.35-4.03,4.75,0,7.77,2.52,7.77,7.94v13.61h-2.94v-13.27c0-4.33-2.14-5.71-5.5-5.71-3.82,0-6.64,2.69-6.64,5.63v13.36h-2.94v-21Z"/><path class="cls-12" d="m1611.48,1814.22h-3.36v-5.08c0-3.95.88-5.29,3.4-5.97l.67,1.85c-1.76.67-2.06,1.09-2.06,3.78v.34h1.34v5.08Zm5.92,0h-3.36v-5.08c0-3.95.88-5.29,3.4-5.97l.67,1.85c-1.76.67-2.06,1.09-2.06,3.78v.34h1.34v5.08Z"/><path class="cls-12" d="m1621.06,1815.57v-.04h2.98l5.76,17.47h.08l6.3-17.47h2.69l6.17,17.47h.08l5.75-17.47h2.86v.04l-7.18,20.96h-3.02l-5.96-17.06h-.08l-6.22,17.06h-3.02l-7.18-20.96Z"/><path class="cls-12" d="m1656.68,1812.96c1.76-.67,2.06-1.09,2.06-3.78v-.34h-1.34v-5.08h3.36v5.08c0,3.95-.88,5.29-3.4,5.97l-.67-1.85Zm5.92,0c1.76-.67,2.06-1.09,2.06-3.78v-.34h-1.34v-5.08h3.36v5.08c0,3.95-.88,5.29-3.4,5.97l-.67-1.85Z"/><path class="cls-14" d="m932.99,3229.25c-.45-.12-.88-.28-1.32-.42.14.79.21,1.59.24,2.4.94-.59,1.89-1.19,2.85-1.81-.56.05-1.15,0-1.77-.17Z"/><g class="cls-17"><path class="cls-14" d="m1147.05,3257.92c32.44-21.54,70.2-63.21,70.2-104.6,0-24.89-15.38-56.21-43.91-56.21-48.94,0-87.26,31.32-117.47,66.56,3.92-10.35,21.26-52.3,21.26-60.41,0-3.35-1.96-6.15-5.59-6.15s-6.43,2.52-8.95,4.75c-6.43,6.43-12.59,13.15-19.3,19.58-30.42,29.7-71.87,67.86-110.31,92.56,2.3,2.22,4.21,5.02,5.67,7.9.87,1.72.68,3.65-.19,5.12,37.82-24.76,90.39-66.48,112.38-90.76-12.59,26.29-24.89,51.74-42.51,74.95-23.77,31.89-52.02,60.13-80.27,88.1-30.21,29.93-100.13,90.9-100.13,135.09,0,16.22,9.23,32.45,26.85,32.45,24.61,0,41.12-18.18,54.26-36.92,36.36-52.02,61.53-111.59,92.58-167.25,18.74,13.42,55.1,20.42,78.31,20.42,43.63,0,123.62-23.21,161.38-45.31v-16.78c-27.69,18.46-62.93,26.57-94.25,36.92Zm-250.32,163.33c-9.23,13.15-24.61,30.49-41.95,30.49-9.51,0-11.75-8.95-11.75-16.78,0-41.67,65.72-94.81,93.69-123.62,15.1-15.38,30.2-31.05,46.15-45.59-27.41,50.34-53.7,109.63-86.14,155.5Zm112.15-177.88c3.07-4.76,5.87-10.07,8.95-15.1,9.23-14.82,41.67-47.54,55.66-62.09,27.41-28.25,58.73-53.98,99.85-53.98,19.02,0,28.81,25.17,28.81,41.11,0,47.27-67.68,112.99-114.67,112.99-22.65,0-63.21-3.08-78.59-22.93Z"/></g></g></svg>