<?xml version="1.0" encoding="UTF-8"?><svg xmlns="http://www.w3.org/2000/svg" viewBox="0 0 1920 3275"><defs><style>.cls-1{fill:#ebebeb;}.cls-2,.cls-3{fill:#fff;}.cls-4{fill:#937fbb;}.cls-5{fill:#171c32;}.cls-6{fill:#947fbb;}.cls-7,.cls-8,.cls-9,.cls-10,.cls-11,.cls-12,.cls-3,.cls-13{stroke-miterlimit:10;}.cls-7,.cls-8,.cls-9,.cls-10,.cls-11,.cls-12,.cls-13{fill:none;}.cls-7,.cls-9,.cls-10,.cls-11,.cls-13{stroke:#a797c9;stroke-linecap:round;stroke-width:7px;}.cls-8{stroke-width:2px;}.cls-8,.cls-3{stroke:#fff;}.cls-9{stroke-dasharray:0 0 1.7 16.97;}.cls-10{stroke-dasharray:0 0 1.74 17.45;}.cls-11{stroke-dasharray:0 0 1.6 16.04;}.cls-12{stroke:#57678b;stroke-width:3.5px;}.cls-3{stroke-width:.17px;}.cls-13{stroke-dasharray:0 0 1.85 18.49;}</style></defs><g id="Background"><rect class="cls-5" width="1920" height="3275"/></g><g id="Horizontal_Guides"><line class="cls-12" y1="340.72" x2="1920" y2="340.72"/><line class="cls-12" y1="426.48" x2="1920" y2="426.48"/><line class="cls-12" x1="1920" y1="616.63" y2="616.63"/><line class="cls-12" y1="703.86" x2="1920" y2="703.86"/><line class="cls-12" y1="2661.71" x2="1920" y2="2661.71"/><line class="cls-12" y1="2747.47" x2="1920" y2="2747.47"/><line class="cls-12" x1="1920" y1="2937.62" y2="2937.62"/><line class="cls-12" y1="3024.85" x2="1920" y2="3024.85"/><line class="cls-12" y1="1235.42" x2="1920" y2="1235.42"/><line class="cls-12" y1="1321.19" x2="1920" y2="1321.19"/><line class="cls-12" x1="1920" y1="1511.34" y2="1511.34"/><line class="cls-12" y1="1598.57" x2="1920" y2="1598.57"/><line class="cls-12" y1="1948.57" x2="1920" y2="1948.57"/><line class="cls-12" y1="2034.33" x2="1920" y2="2034.33"/><line class="cls-12" x1="1920" y1="2224.48" y2="2224.48"/><line class="cls-12" y1="2311.71" x2="1920" y2="2311.71"/></g><g id="Layer_1"><path class="cls-6" d="m1074.56,585.52c0,14.65,1.47,17.22,5.86,17.22,12.09,0,94.15-101.85,109.54-153.5-30.41-5.86-51.29-7.69-65.21-7.69-30.41,0-50.19,52.02-50.19,143.61v.37Z"/><circle class="cls-6" cx="1435.35" cy="677.25" r="69.78"/><path class="cls-3" d="m1449.01,615.84,0,0c-2.56,45.79-2.93,63.75-3.3,88.66,0,1.83-.37,2.56-3.3,2.56-6.96,0-17.22-2.93-17.22-9.53,0-8.06,2.57-32.97,5.86-84.99l17.95,3.3Z"/><line class="cls-7" x1="1096.69" y1="622.44" x2="1096.69" y2="623.31"/><line class="cls-13" x1="1096.69" y1="641.8" x2="1096.69" y2="774.96"/><line class="cls-7" x1="1096.69" y1="784.21" x2="1096.69" y2="785.08"/><path class="cls-2" d="m881.34,815.72h-11.51v-2.6h25.96v2.6h-11.51v30.16h-2.94v-30.16Z"/><path class="cls-2" d="m896.63,824.88h2.6l.29,3.91c1.01-2.14,3.07-4.45,6.76-4.45,1.26,0,2.18.21,3.02.55v3.15c-1.13-.5-2.1-.76-3.4-.76-3.74,0-6.34,2.81-6.34,5.75v12.85h-2.94v-21Z"/><path class="cls-2" d="m913.93,813.12h2.98v6.51h-2.98v-6.51Zm0,11.76h2.94v21h-2.94v-21Z"/><path class="cls-2" d="m923,840.09c0-3.95,2.23-6.09,7.86-6.09h6.34v-1.72c0-2.98-1.26-5.42-5.46-5.42-3.95,0-5.33,1.51-5.33,4.12v.88h-2.98v-.84c0-5,4.2-6.68,8.32-6.68,5.8,0,8.4,2.86,8.4,8.44v13.11h-2.06l-.55-2.98h-.08c-1.26,1.89-3.7,3.53-7.35,3.53-4.92,0-7.1-2.31-7.1-6.34Zm14.2-1.85v-1.76h-7.01c-2.65,0-4.03.92-4.03,3.61,0,2.35,1.26,3.86,4.5,3.86,4.16,0,6.55-2.14,6.55-5.71Z"/><path class="cls-2" d="m947.49,824.88h2.6l.29,3.49c1.01-2.14,3.28-4.03,7.35-4.03,4.75,0,7.77,2.52,7.77,7.94v13.61h-2.94v-13.27c0-4.33-2.14-5.71-5.5-5.71-3.82,0-6.64,2.69-6.64,5.63v13.36h-2.94v-21Z"/><path class="cls-2" d="m972.22,847.69v-.13h3.11v.13c0,2.9,1.93,4.33,6.13,4.33,4.79,0,7.01-2.94,7.01-7.86v-2.1h-.08c-1.09,2.18-3.65,4.07-7.48,4.07-6.3,0-9.75-3.99-9.75-10.71,0-7.1,4.37-11.09,9.96-11.09,3.78,0,6.55,1.81,7.56,4.12h.13l.29-3.57h2.31v19.16c0,5.88-2.81,10.71-10.33,10.71-6.3,0-8.86-2.98-8.86-7.06Zm16.59-12.77c0-5.5-3.36-8.07-7.35-8.07-3.03,0-7.14,1.47-7.14,8.4s3.57,8.32,7.1,8.32c4.24,0,7.39-2.73,7.39-8.65Z"/><path class="cls-2" d="m998.35,838.49v-13.61h2.94v13.27c0,4.33,2.14,5.71,5.42,5.71,3.74,0,6.55-2.69,6.55-5.63v-13.36h2.94v21h-2.6l-.25-3.36h-.08c-.97,2.02-3.23,3.91-7.23,3.91-4.66,0-7.69-2.52-7.69-7.94Z"/><path class="cls-2" d="m1023.55,813.12h2.94v32.77h-2.94v-32.77Z"/><path class="cls-2" d="m1032.58,840.09c0-3.95,2.23-6.09,7.86-6.09h6.34v-1.72c0-2.98-1.26-5.42-5.46-5.42-3.95,0-5.33,1.51-5.33,4.12v.88h-2.98v-.84c0-5,4.2-6.68,8.32-6.68,5.8,0,8.4,2.86,8.4,8.44v13.11h-2.06l-.55-2.98h-.08c-1.26,1.89-3.7,3.53-7.35,3.53-4.92,0-7.1-2.31-7.1-6.34Zm14.2-1.85v-1.76h-7.01c-2.65,0-4.03.92-4.03,3.61,0,2.35,1.26,3.86,4.5,3.86,4.16,0,6.55-2.14,6.55-5.71Z"/><path class="cls-2" d="m1057.07,824.88h2.6l.29,3.91c1.01-2.14,3.07-4.45,6.76-4.45,1.26,0,2.18.21,3.02.55v3.15c-1.13-.5-2.1-.76-3.4-.76-3.74,0-6.34,2.81-6.34,5.75v12.85h-2.94v-21Z"/><path class="cls-2" d="m1086.84,842.4h-.08l-.76,3.49h-1.97v-32.77h2.94v15.25h.04c1.26-2.31,4.07-4.03,7.69-4.03,6.3,0,9.66,3.99,9.66,11.01s-4.29,11.09-9.87,11.09c-3.78,0-6.55-1.64-7.65-4.03Zm14.37-6.89c0-7.18-3.4-8.61-6.93-8.61-4.24,0-7.56,2.73-7.56,8.44,0,6.01,3.45,8.57,7.44,8.57,3.02,0,7.06-1.47,7.06-8.4Z"/><path class="cls-2" d="m1108.56,835.38c0-6.22,3.32-11.05,10.38-11.05,6.59,0,10.25,4.83,10.25,11.05s-3.7,11.05-10.29,11.05c-7.27,0-10.33-4.83-10.33-11.05Zm17.56,0c0-5.33-2.9-8.49-7.22-8.49-4.75,0-7.27,3.15-7.27,8.49s2.56,8.49,7.27,8.49c4.33,0,7.22-3.15,7.22-8.49Z"/><path class="cls-2" d="m1131.49,824.92v-.04h2.98l5.75,17.48h.08l6.3-17.48h2.69l6.17,17.48h.08l5.75-17.48h2.86v.04l-7.18,20.96h-3.02l-5.96-17.06h-.08l-6.22,17.06h-3.02l-7.18-20.96Z"/><path class="cls-2" d="m1169,813.12h2.94v32.77h-2.94v-32.77Z"/><path class="cls-2" d="m1177.4,839.46v-1.18h2.94v1.13c0,2.86,2.14,4.5,5.96,4.5s5.8-1.01,5.8-3.78c0-2.06-1.01-2.81-3.86-3.32l-4.62-.84c-3.02-.55-5.54-2.02-5.54-5.5,0-3.15,2.35-6.13,8.4-6.13s8.4,3.02,8.4,7.23v.88h-2.98v-.76c0-3.44-2.14-4.91-5.42-4.91-3.95,0-5.33,1.34-5.33,3.36s1.01,2.86,3.91,3.4l4.03.76c4.12.76,6.09,1.93,6.09,5.59,0,4.58-4.12,6.55-8.78,6.55-7.31,0-8.99-3.28-8.99-6.97Z"/><path class="cls-2" d="m1304.71,811.7h2.94v30.12h15.71v2.65h-18.65v-32.77Z"/><path class="cls-2" d="m1326.51,833.96c0-6.22,3.32-11.05,10.38-11.05,6.59,0,10.25,4.83,10.25,11.05s-3.7,11.05-10.29,11.05c-7.27,0-10.33-4.83-10.33-11.05Zm17.56,0c0-5.33-2.9-8.49-7.22-8.49-4.75,0-7.27,3.15-7.27,8.49s2.56,8.49,7.27,8.49c4.33,0,7.22-3.15,7.22-8.49Z"/><path class="cls-2" d="m1351.33,833.96c0-6.22,3.32-11.05,10.38-11.05,6.59,0,10.25,4.83,10.25,11.05s-3.7,11.05-10.29,11.05c-7.27,0-10.33-4.83-10.33-11.05Zm17.56,0c0-5.33-2.9-8.49-7.22-8.49-4.75,0-7.27,3.15-7.27,8.49s2.56,8.49,7.27,8.49c4.33,0,7.22-3.15,7.22-8.49Z"/><path class="cls-2" d="m1377.83,823.46h2.39l.34,3.86h.08c1.13-2.48,4.03-4.41,7.86-4.41,6.3,0,9.66,3.99,9.66,11.01s-4.29,11.09-9.87,11.09c-3.78,0-6.38-1.6-7.43-3.7h-.08v11.55h-2.94v-29.41Zm17.18,10.63c0-7.18-3.4-8.61-6.93-8.61-4.24,0-7.56,2.73-7.56,8.44,0,6.01,3.45,8.57,7.44,8.57,3.02,0,7.06-1.47,7.06-8.4Z"/><path class="cls-2" d="m1403.41,811.7h2.94v32.77h-2.94v-32.77Z"/><path class="cls-2" d="m1430.97,834.97h-15.96c.17,4.79,2.48,7.48,6.93,7.48,3.82,0,5.67-1.43,5.97-4.83h2.98c-.29,4.24-3.28,7.39-9.03,7.39-7.06,0-9.83-4.66-9.83-10.88s3.23-11.22,10-11.22,8.95,3.99,8.95,10.21v1.85Zm-3.11-2.98c0-4.45-1.72-6.55-5.92-6.55s-6.55,2.65-6.89,6.97h12.81v-.42Z"/><path class="cls-2" d="m1434.95,838.03v-1.18h2.94v1.13c0,2.86,2.14,4.5,5.96,4.5s5.8-1.01,5.8-3.78c0-2.06-1.01-2.81-3.86-3.32l-4.62-.84c-3.02-.55-5.54-2.02-5.54-5.5,0-3.15,2.35-6.13,8.4-6.13s8.4,3.02,8.4,7.23v.88h-2.98v-.76c0-3.44-2.14-4.91-5.42-4.91-3.95,0-5.33,1.34-5.33,3.36s1.01,2.86,3.91,3.4l4.03.76c4.12.76,6.09,1.93,6.09,5.59,0,4.58-4.12,6.55-8.78,6.55-7.31,0-8.99-3.28-8.99-6.97Z"/><path class="cls-2" d="m1456.71,838.03v-1.18h2.94v1.13c0,2.86,2.14,4.5,5.96,4.5s5.8-1.01,5.8-3.78c0-2.06-1.01-2.81-3.86-3.32l-4.62-.84c-3.02-.55-5.54-2.02-5.54-5.5,0-3.15,2.35-6.13,8.4-6.13s8.4,3.02,8.4,7.23v.88h-2.98v-.76c0-3.44-2.14-4.91-5.42-4.91-3.95,0-5.33,1.34-5.33,3.36s1.01,2.86,3.91,3.4l4.03.76c4.12.76,6.09,1.93,6.09,5.59,0,4.58-4.12,6.55-8.78,6.55-7.31,0-8.99-3.28-8.99-6.97Z"/><path class="cls-2" d="m1488.34,834c0-7.1,4.28-11.09,10.04-11.09,3.7,0,6.22,1.6,7.31,3.74h.04v-14.95h2.94v32.77h-1.97l-.67-3.61h-.08c-1.18,2.31-3.95,4.16-7.77,4.16-6.3,0-9.83-3.99-9.83-11.01Zm17.64-.5c0-5.5-3.36-8.07-7.35-8.07-3.11,0-7.14,1.47-7.14,8.4s3.61,8.61,7.14,8.61c4.24,0,7.35-2.73,7.35-8.95Z"/><path class="cls-2" d="m1533.28,834.97h-15.96c.17,4.79,2.48,7.48,6.93,7.48,3.82,0,5.67-1.43,5.97-4.83h2.98c-.29,4.24-3.28,7.39-9.03,7.39-7.06,0-9.83-4.66-9.83-10.88s3.23-11.22,10-11.22,8.95,3.99,8.95,10.21v1.85Zm-3.11-2.98c0-4.45-1.72-6.55-5.92-6.55s-6.55,2.65-6.89,6.97h12.81v-.42Z"/><path class="cls-2" d="m1537.27,838.03v-1.18h2.94v1.13c0,2.86,2.14,4.5,5.96,4.5s5.8-1.01,5.8-3.78c0-2.06-1.01-2.81-3.86-3.32l-4.62-.84c-3.02-.55-5.54-2.02-5.54-5.5,0-3.15,2.35-6.13,8.4-6.13s8.4,3.02,8.4,7.23v.88h-2.98v-.76c0-3.44-2.14-4.91-5.42-4.91-3.95,0-5.33,1.34-5.33,3.36s1.01,2.86,3.91,3.4l4.03.76c4.12.76,6.09,1.93,6.09,5.59,0,4.58-4.12,6.55-8.78,6.55-7.31,0-8.99-3.28-8.99-6.97Z"/><path class="cls-2" d="m1559.23,834.13c0-6.38,3.23-11.22,10-11.22s8.95,3.91,8.95,8.95v.42h-3.11v-.63c0-3.82-1.64-6.09-5.84-6.09-4.75,0-7.02,3.11-7.02,8.4,0,5.63,2.39,8.49,6.93,8.49,3.82,0,5.84-1.85,5.92-5.67h3.02c-.08,4.66-3.15,8.23-9.03,8.23-7.22,0-9.83-4.75-9.83-10.88Z"/><path class="cls-2" d="m1601.32,834.97h-15.96c.17,4.79,2.48,7.48,6.93,7.48,3.82,0,5.67-1.43,5.97-4.83h2.98c-.29,4.24-3.28,7.39-9.03,7.39-7.06,0-9.83-4.66-9.83-10.88s3.23-11.22,10-11.22,8.95,3.99,8.95,10.21v1.85Zm-3.11-2.98c0-4.45-1.72-6.55-5.92-6.55s-6.55,2.65-6.89,6.97h12.81v-.42Z"/><path class="cls-2" d="m1607.2,823.46h2.6l.29,3.49c1.01-2.14,3.28-4.03,7.35-4.03,4.75,0,7.77,2.52,7.77,7.94v13.61h-2.94v-13.27c0-4.33-2.14-5.71-5.5-5.71-3.82,0-6.64,2.69-6.64,5.63v13.36h-2.94v-21Z"/><path class="cls-2" d="m1630.88,834c0-7.1,4.28-11.09,10.04-11.09,3.7,0,6.22,1.6,7.31,3.74h.04v-14.95h2.94v32.77h-1.97l-.67-3.61h-.08c-1.18,2.31-3.95,4.16-7.77,4.16-6.3,0-9.83-3.99-9.83-11.01Zm17.64-.5c0-5.5-3.36-8.07-7.35-8.07-3.11,0-7.14,1.47-7.14,8.4s3.61,8.61,7.14,8.61c4.24,0,7.35-2.73,7.35-8.95Z"/><path class="cls-2" d="m1675.83,834.97h-15.96c.17,4.79,2.48,7.48,6.93,7.48,3.82,0,5.67-1.43,5.97-4.83h2.98c-.29,4.24-3.28,7.39-9.03,7.39-7.06,0-9.83-4.66-9.83-10.88s3.23-11.22,10-11.22,8.95,3.99,8.95,10.21v1.85Zm-3.11-2.98c0-4.45-1.72-6.55-5.92-6.55s-6.55,2.65-6.89,6.97h12.81v-.42Z"/><path class="cls-2" d="m1681.7,823.46h2.6l.29,3.91c1.01-2.14,3.07-4.45,6.76-4.45,1.26,0,2.18.21,3.02.55v3.15c-1.13-.5-2.1-.76-3.4-.76-3.74,0-6.34,2.81-6.34,5.75v12.85h-2.94v-21Z"/><path class="cls-2" d="m1696.91,838.03v-1.18h2.94v1.13c0,2.86,2.14,4.5,5.96,4.5s5.8-1.01,5.8-3.78c0-2.06-1.01-2.81-3.86-3.32l-4.62-.84c-3.02-.55-5.54-2.02-5.54-5.5,0-3.15,2.35-6.13,8.4-6.13s8.4,3.02,8.4,7.23v.88h-2.98v-.76c0-3.44-2.14-4.91-5.42-4.91-3.95,0-5.33,1.34-5.33,3.36s1.01,2.86,3.91,3.4l4.03.76c4.12.76,6.09,1.93,6.09,5.59,0,4.58-4.12,6.55-8.78,6.55-7.31,0-8.99-3.28-8.99-6.97Z"/><line class="cls-7" x1="1435.44" y1="787.6" x2="1435.44" y2="786.72"/><line class="cls-9" x1="1435.44" y1="769.75" x2="1435.44" y2="759.57"/><line class="cls-7" x1="1435.44" y1="751.08" x2="1435.44" y2="750.21"/><path class="cls-2" d="m471.46,761.29h-17.69v-2.23l16.72-23.36h3.95v22.85h4.96v2.73h-5v7.14h-2.94v-7.14Zm-13.99-2.73h14.03v-19.7l-14.03,19.7Z"/><path class="cls-2" d="m479.81,740.37c0-2.73,1.64-5.33,5.5-5.33s5.5,2.6,5.5,5.33-1.64,5.29-5.5,5.29-5.5-2.56-5.5-5.29Zm8.4,0c0-1.81-1.05-3.07-2.9-3.07s-2.9,1.26-2.9,3.07,1.05,3.02,2.9,3.02,2.9-1.18,2.9-3.02Z"/><path class="cls-2" d="m503.63,762.01v-1.18h2.94v1.13c0,2.86,2.14,4.5,5.96,4.5s5.8-1.01,5.8-3.78c0-2.06-1.01-2.81-3.86-3.32l-4.62-.84c-3.02-.55-5.54-2.02-5.54-5.5,0-3.15,2.35-6.13,8.4-6.13s8.4,3.02,8.4,7.23v.88h-2.98v-.76c0-3.44-2.14-4.91-5.42-4.91-3.95,0-5.33,1.34-5.33,3.36s1.01,2.86,3.91,3.4l4.03.76c4.12.76,6.09,1.93,6.09,5.59,0,4.58-4.12,6.55-8.78,6.55-7.31,0-8.99-3.28-8.99-6.97Z"/><path class="cls-2" d="m527.27,735.67h2.94v32.77h-2.94v-32.77Z"/><path class="cls-2" d="m536.3,762.64c0-3.95,2.23-6.09,7.86-6.09h6.34v-1.72c0-2.98-1.26-5.42-5.46-5.42-3.95,0-5.33,1.51-5.33,4.12v.88h-2.98v-.84c0-5,4.2-6.68,8.32-6.68,5.8,0,8.4,2.86,8.4,8.44v13.11h-2.06l-.55-2.98h-.08c-1.26,1.89-3.7,3.53-7.35,3.53-4.92,0-7.1-2.31-7.1-6.34Zm14.2-1.85v-1.76h-7.01c-2.65,0-4.03.92-4.03,3.61,0,2.35,1.26,3.86,4.5,3.86,4.16,0,6.55-2.14,6.55-5.71Z"/><path class="cls-2" d="m560.79,747.43h2.6l.29,3.49c1.01-2.14,3.28-4.03,7.35-4.03,4.75,0,7.77,2.52,7.77,7.94v13.61h-2.94v-13.27c0-4.33-2.14-5.71-5.5-5.71-3.82,0-6.64,2.69-6.64,5.63v13.36h-2.94v-21Z"/><path class="cls-2" d="m597.12,765.75v2.6c-.76.21-2.14.59-4.03.59-3.82,0-6.34-1.6-6.34-6.89v-12.18h-4.16v-2.44h4.16v-6.05l2.94-1.43v7.48h5.92v2.44h-5.92v11.8c0,2.81.76,4.58,3.4,4.58,1.6,0,3.23-.29,4.03-.5Z"/><path class="cls-2" d="m1190.92,2227.21c-42.13,0-72.9-19.42-72.9-85,0-84.99,40.3-111.74,86.83-111.74,41.76,0,72.9,19.42,72.9,85,0,84.99-40.3,111.74-86.83,111.74Zm11.36-183.91c-39.93,0-62.28,34.44-62.28,97.08,0,50.56,15.75,74,52.76,74,40.3,0,62.28-34.44,62.28-97.08,0-50.92-15.75-74-52.75-74Z"/><path class="cls-2" d="m1381.42,2050.63c-5.49,0-123.83,0-137.02-3.3-11.72-3.66-43.6-16.85-31.87-16.85,3.3,0,97.45,6.96,195.63,6.96,9.52,0-16.85,13.19-26.75,13.19Z"/><path class="cls-2" d="m1493.52,2053.92c-5.13,22.35-5.13,56.05-5.13,178.78,0,27.48-9.89,47.26-23.45,60.45-13.19,12.82-30.04,18.68-41.76,18.68-32.97,0-68.88-17.22-85-25.65-2.2-1.1-3.66-5.5-3.66-9.16,0-5.13,1.1-7.69,2.93-7.69,2.56,0,45.79,23.81,88.66,23.81,29.68,0,42.13-10.62,42.13-87.19,0-30.77.37-81.7,3.3-113.57-26.38,53.12-90.12,134.82-113.2,134.82-4.03,0-16.49-8.06-18.32-12.09-1.1-2.2-1.47-7.33-1.47-15.75,0-28.58,1.1-104.41,19.78-129.69,17.95-24.55,40.67-39.2,65.21-39.2,6.59,0,44.7,4.03,72.9,10.26.37,0,1.47.37,1.47,2.2,0,6.59-2.57,10.99-4.4,10.99Zm-83.9-7.69c-30.41,0-50.19,52.02-50.19,143.61,0,15.02,1.47,17.22,5.86,17.22,12.09,0,94.15-101.48,109.54-153.14-30.41-5.86-51.29-7.69-65.21-7.69Z"/><path class="cls-2" d="m1626.36,2174.46c-12.09,15.75-43.23,52.76-58.62,52.76-4.03,0-16.12-8.06-17.95-12.09-1.1-2.2-.73-7.33-.73-15.75.73-46.89,8.43-140.68,8.43-165.96,0-1.83.37-2.93,2.93-2.93,8.06,0,17.95,3.3,17.95,9.89,0,16.85-9.16,122-9.16,149.47,0,15.02,1.47,17.58,5.86,17.58,6.96,0,37-34.8,44.7-45.06,1.1-1.1,1.47-2.2,2.56-2.2,1.47,0,5.13,5.86,5.13,10.62,0,1.47-.37,2.93-1.1,3.66Zm-53.85-195.27c-7.33,0-12.46-4.03-12.46-12.82,0-12.09,8.43-20.88,16.12-20.88,5.5,0,10.63,4.4,10.63,16.85,0,7.69-6.96,16.85-14.29,16.85Z"/><circle class="cls-4" cx="1469.61" cy="2695.92" r="69.78"/><path class="cls-2" d="m365.5,2942.1c-10.26,0-16.85-2.93-19.78-5.86-1.1-1.1-2.2-2.56-3.3-6.96-2.56-10.99-15.39-53.85-24.91-82.8-7.69-.37-28.94-1.1-51.29-1.1-19.05,0-40.67,1.1-52.39,1.47-5.5,8.43-41.03,82.06-44.7,91.95-1.1,2.57-1.83,3.3-3.66,3.3-7.33,0-14.65-3.3-14.65-9.89,0-.73,1.1-2.93,1.83-4.4,12.82-20.52,96.72-185.74,117.23-227.14.73-1.83,1.83-2.2,4.4-2.2,8.79,0,17.59,3.66,18.32,6.59,7.69,26.01,64.48,194.9,75.47,228.61,1.1,3.3,1.47,4.03,1.47,5.49,0,1.83-.37,2.93-4.03,2.93Zm-88.66-216.52c-13.19,19.78-46.53,88.66-55.32,105.51h90.86c-6.23-21.98-29.68-89.03-35.54-105.51Z"/><path class="cls-2" d="m621.94,2889.34c-12.09,15.75-43.23,52.76-58.62,52.76-4.76,0-16.85-8.06-18.68-12.09-1.1-2.2-.73-7.33-.73-15.75,0-21.25,2.2-72.9,4.4-106.98-26.01,53.12-89.76,134.82-112.84,134.82-4.03,0-16.49-8.06-18.69-12.09-1.1-2.2-1.1-7.33-1.1-15.75,0-21.98,11.36-92.69,15.02-165.96,0-1.83.73-2.93,3.3-2.93,8.06,0,17.95,3.3,17.58,9.89-1.47,50.56-15.02,116.14-15.02,149.47,0,15.02,1.1,17.58,5.86,17.58,8.43,0,57.15-53.85,87.19-106.98,12.46-22.35,23.08-48.36,23.08-66.68,0-2.2.73-3.3,3.66-3.3,6.96,0,15.75,3.3,15.75,9.89,0,2.93-7.33,95.25-7.33,149.47,0,15.02,1.1,17.58,5.86,17.58,6.96,0,37-34.8,44.7-45.06,1.1-1.1,1.47-2.2,2.56-2.2,1.47,0,5.13,5.86,5.13,10.63,0,1.47-.37,2.93-1.1,3.66Z"/><path class="cls-2" d="m666.62,2823.03c-18.32,34.07-55.69,83.89-72.54,98.55-3.66,2.93-12.46-5.86-9.53-9.16,22.35-22.35,69.97-85.36,76.57-106.98,1.83-4.4,7.69,13.19,5.5,17.59Z"/><path class="cls-4" d="m727.07,2942.1c-42.5,0-72.9-19.42-72.9-85,0-85,39.57-111.74,86.83-111.74,6.23,0,16.49,0,28.21,4.03-21.98-34.44-56.05-67.04-70.71-76.57-2.2-1.47-5.5-4.03-5.5-5.13,0-2.56,12.82-7.33,19.78-7.33,3.3,0,5.13,1.1,7.69,3.3,36.27,35.9,93.42,83.16,93.42,168.16,0,67.04-29.31,110.27-86.83,110.27Zm11.36-183.91c-39.93,0-62.28,34.44-62.28,97.09,0,50.56,15.75,73.64,52.76,73.64,40.3,0,62.28-34.07,62.28-96.72,0-50.92-15.75-74.01-52.75-74.01Z"/><path class="cls-2" d="m913.17,2938.8c-1.1,2.2-2.2,3.3-4.4,3.3-5.86,0-16.85-2.56-17.95-9.52-24.18-147.64-44.7-178.05-44.7-183.91,0-2.2.73-3.3,5.5-3.3,15.02,0,17.95,2.93,22.35,14.29,6.23,16.12,24.55,99.65,32.61,142.15,1.47,7.33,2.2,13.55,2.93,17.58,20.52-37.37,45.79-90.12,55.69-133.72,2.93-13.55,4.76-26.38,4.76-37.37,0-1.83.73-2.93,2.93-2.93,5.13,0,11.36,1.83,13.92,4.76,1.1,1.47,2.2,2.93,2.2,5.13,0,36.27-35.17,114.67-75.83,183.55Z"/><path class="cls-2" d="m1069.96,2765.51c-.37,0-52.76-.73-91.59-2.56-4.76-.37-3.66-14.65.73-14.29,35.17,2.93,77.67,3.66,111.74,3.66,5.49,0-7.69,13.19-20.88,13.19Z"/><path class="cls-2" d="m1089.01,2838.05c-15.39,0-30.04-1.83-39.57-4.03-.73,2.56-.73,13.19-.73,20.15,0,42.13,14.29,72.17,47.63,72.17,22.35,0,41.4-14.29,49.09-21.25,4.76-4.4,5.5-5.5,6.96-5.5,2.2,0,4.4,5.13,4.4,9.53,0,2.2-.37,3.3-2.57,5.49-15.75,16.85-36.63,27.48-63.75,27.48-35.9,0-63.75-24.18-63.75-86.09,0-83.53,38.47-110.64,79.5-110.64,35.9,0,49.82,19.05,49.82,40.67,0,37.37-37,52.02-67.04,52.02Zm12.46-80.97c-21.62,0-41.03,18.68-47.99,58.25,1.83,2.93,17.95,8.43,34.8,8.43,28.21,0,43.96-13.92,43.96-38.83,0-14.65-9.16-27.84-30.77-27.84Z"/><path class="cls-2" d="m1222.35,2795.92c-18.32,24.18-64.11,35.54-120.16,41.03-4.76.37-4.03-13.55,0-13.92,58.62-2.93,112.84-23.45,120.16-49.09,1.83-6.96,11.36,6.96,0,21.98Z"/><path class="cls-2" d="m1289.4,2889.34c-12.09,15.75-43.23,52.76-58.62,52.76-4.03,0-16.12-8.06-17.95-12.09-1.1-2.2-.73-7.33-.73-15.75.73-46.89,12.46-149.47,14.29-250.95,0-1.83.37-2.93,3.3-2.93,7.69,0,17.95,3.3,17.95,9.89,0,16.85-15.39,193.07-15.39,234.47,0,15.02,1.47,17.58,5.86,17.58,6.96,0,37-34.8,44.7-45.06,1.1-1.1,1.47-2.2,2.56-2.2,1.47,0,5.13,5.86,5.13,10.63,0,1.47-.37,2.93-1.1,3.66Z"/><path class="cls-2" d="m1336.29,2817.17c-21.98,41.76-57.15,89.02-75.83,104.41-3.3,2.93-13.56-4.76-10.63-7.69,36.64-35.9,76.2-93.42,81.7-112.84,1.83-8.06,9.16,7.69,4.76,16.12Z"/><path class="cls-2" d="m1525.7,2889.34c-12.09,15.75-43.23,52.76-58.62,52.76-4.03,0-16.49-8.06-18.32-12.09-1.1-2.2-1.1-7.33-1.1-15.75,0-21.25,2.56-72.9,4.76-106.98-26.38,53.12-90.12,134.82-113.2,134.82-4.03,0-16.49-8.06-18.32-12.09-1.1-2.2-1.47-7.33-1.47-15.75,0-28.57,1.1-104.41,19.78-129.69,17.95-24.55,40.67-39.2,65.21-39.2,5.13,0,28.21,2.2,52.02,5.86,2.56-34.44,3.3-53.85,3.66-87.93,0-1.83.73-2.93,3.3-2.93,8.06,0,17.95,3.3,17.95,9.89,0,7.33-2.2,35.54-5.5,84.99h1.47c.73,0,1.47.73,1.47,2.56,0,6.59-2.57,10.99-4.4,10.99,0,3.3-5.86,81.7-5.86,135.92,0,15.02,1.47,17.22,5.86,17.22,6.96,0,37-34.44,44.7-44.69,1.1-1.1,1.47-2.2,2.93-2.2,1.1,0,4.76,5.86,4.76,10.63,0,1.83-.37,2.93-1.1,3.66Zm-135.19-128.23c-30.41,0-50.19,52.02-50.19,143.61,0,15.02,1.47,17.22,5.86,17.22,12.09,0,94.15-101.48,109.54-153.14-30.41-5.86-51.29-7.69-65.21-7.69Z"/><path class="cls-2" d="m1572.58,2817.17c-21.98,41.76-57.15,89.02-75.83,104.41-3.3,2.93-13.56-4.76-10.63-7.69,36.64-35.9,76.2-93.42,81.7-112.84,1.83-8.06,9.16,7.69,4.76,16.12Z"/><path class="cls-2" d="m1761.98,2889.34c-12.09,15.75-43.23,52.76-58.62,52.76-4.03,0-16.49-8.06-18.32-12.09-1.1-2.2-1.1-7.33-1.1-15.75,0-21.25,2.56-72.9,4.76-106.98-26.38,53.12-90.12,134.82-113.2,134.82-4.03,0-16.49-8.06-18.32-12.09-1.1-2.2-1.47-7.33-1.47-15.75,0-28.57,1.1-104.41,19.78-129.69,17.95-24.55,40.67-39.2,65.21-39.2,6.59,0,44.7,4.03,72.9,10.26.37,0,1.47.37,1.47,2.2,0,6.59-2.57,10.99-4.4,10.99,0,3.3-5.86,81.7-5.86,135.92,0,15.02,1.47,17.58,5.86,17.58,6.96,0,37-34.8,44.7-45.06,1.1-1.1,1.47-2.2,2.56-2.2,1.47,0,5.13,5.86,5.13,10.63,0,1.47-.37,2.93-1.1,3.66Zm-135.19-128.23c-30.41,0-50.19,52.02-50.19,143.61,0,15.02,1.47,17.58,5.86,17.58,12.09,0,94.15-101.85,109.54-153.5-30.41-5.86-51.29-7.69-65.21-7.69Z"/><path class="cls-5" d="m1456.45,2751.22c2.56-34.44,3.3-53.85,3.66-87.93,0-1.83.73-2.93,3.3-2.93,8.06,0,17.95,3.3,17.95,9.89,0,7.33-2.2,35.54-5.5,84.99l-19.42-4.03Z"/><path class="cls-2" d="m1280,2504.06h2.94v30.12h15.71v2.65h-18.65v-32.77Z"/><path class="cls-2" d="m1301.79,2526.32c0-6.22,3.32-11.05,10.38-11.05,6.59,0,10.25,4.83,10.25,11.05s-3.7,11.05-10.29,11.05c-7.27,0-10.33-4.83-10.33-11.05Zm17.56,0c0-5.33-2.9-8.49-7.22-8.49-4.75,0-7.27,3.15-7.27,8.49s2.56,8.49,7.27,8.49c4.33,0,7.22-3.15,7.22-8.49Z"/><path class="cls-2" d="m1326.62,2526.32c0-6.22,3.32-11.05,10.38-11.05,6.59,0,10.25,4.83,10.25,11.05s-3.7,11.05-10.29,11.05c-7.27,0-10.33-4.83-10.33-11.05Zm17.56,0c0-5.33-2.9-8.49-7.22-8.49-4.75,0-7.27,3.15-7.27,8.49s2.56,8.49,7.27,8.49c4.33,0,7.22-3.15,7.22-8.49Z"/><path class="cls-2" d="m1353.12,2515.82h2.39l.34,3.87h.08c1.13-2.48,4.03-4.41,7.86-4.41,6.3,0,9.66,3.99,9.66,11.01s-4.29,11.09-9.87,11.09c-3.78,0-6.38-1.6-7.43-3.7h-.08v11.55h-2.94v-29.41Zm17.18,10.63c0-7.18-3.4-8.61-6.93-8.61-4.24,0-7.56,2.73-7.56,8.44,0,6.01,3.45,8.57,7.44,8.57,3.02,0,7.06-1.47,7.06-8.4Z"/><path class="cls-2" d="m1378.7,2504.06h2.94v32.77h-2.94v-32.77Z"/><path class="cls-2" d="m1406.25,2527.33h-15.96c.17,4.79,2.48,7.48,6.93,7.48,3.82,0,5.67-1.43,5.97-4.83h2.98c-.29,4.24-3.28,7.39-9.03,7.39-7.06,0-9.83-4.66-9.83-10.88s3.23-11.22,10-11.22,8.95,3.99,8.95,10.21v1.85Zm-3.11-2.98c0-4.45-1.72-6.55-5.92-6.55s-6.55,2.65-6.89,6.97h12.81v-.42Z"/><path class="cls-2" d="m1410.24,2530.4v-1.18h2.94v1.13c0,2.86,2.14,4.49,5.96,4.49s5.8-1.01,5.8-3.78c0-2.06-1.01-2.81-3.86-3.32l-4.62-.84c-3.02-.55-5.54-2.02-5.54-5.5,0-3.15,2.35-6.13,8.4-6.13s8.4,3.02,8.4,7.23v.88h-2.98v-.76c0-3.45-2.14-4.92-5.42-4.92-3.95,0-5.33,1.34-5.33,3.36s1.01,2.86,3.91,3.4l4.03.76c4.12.76,6.09,1.93,6.09,5.59,0,4.58-4.12,6.55-8.78,6.55-7.31,0-8.99-3.28-8.99-6.97Z"/><path class="cls-2" d="m1431.99,2530.4v-1.18h2.94v1.13c0,2.86,2.14,4.49,5.96,4.49s5.8-1.01,5.8-3.78c0-2.06-1.01-2.81-3.86-3.32l-4.62-.84c-3.02-.55-5.54-2.02-5.54-5.5,0-3.15,2.35-6.13,8.4-6.13s8.4,3.02,8.4,7.23v.88h-2.98v-.76c0-3.45-2.14-4.92-5.42-4.92-3.95,0-5.33,1.34-5.33,3.36s1.01,2.86,3.91,3.4l4.03.76c4.12.76,6.09,1.93,6.09,5.59,0,4.58-4.12,6.55-8.78,6.55-7.31,0-8.99-3.28-8.99-6.97Z"/><path class="cls-2" d="m1464.04,2531.03c0-3.95,2.23-6.09,7.86-6.09h6.34v-1.72c0-2.98-1.26-5.42-5.46-5.42-3.95,0-5.33,1.51-5.33,4.12v.88h-2.98v-.84c0-5,4.2-6.68,8.32-6.68,5.8,0,8.4,2.86,8.4,8.44v13.11h-2.06l-.55-2.98h-.08c-1.26,1.89-3.7,3.53-7.35,3.53-4.92,0-7.1-2.31-7.1-6.34Zm14.2-1.85v-1.76h-7.01c-2.65,0-4.03.92-4.03,3.61,0,2.35,1.26,3.86,4.5,3.86,4.16,0,6.55-2.14,6.55-5.71Z"/><path class="cls-2" d="m1486.64,2530.4v-1.18h2.94v1.13c0,2.86,2.14,4.49,5.96,4.49s5.8-1.01,5.8-3.78c0-2.06-1.01-2.81-3.86-3.32l-4.62-.84c-3.02-.55-5.54-2.02-5.54-5.5,0-3.15,2.35-6.13,8.4-6.13s8.4,3.02,8.4,7.23v.88h-2.98v-.76c0-3.45-2.14-4.92-5.42-4.92-3.95,0-5.33,1.34-5.33,3.36s1.01,2.86,3.91,3.4l4.03.76c4.12.76,6.09,1.93,6.09,5.59,0,4.58-4.12,6.55-8.78,6.55-7.31,0-8.99-3.28-8.99-6.97Z"/><path class="cls-2" d="m1508.6,2526.49c0-6.38,3.23-11.22,10-11.22s8.95,3.91,8.95,8.95v.42h-3.11v-.63c0-3.82-1.64-6.09-5.84-6.09-4.75,0-7.02,3.11-7.02,8.4,0,5.63,2.39,8.49,6.93,8.49,3.82,0,5.84-1.85,5.92-5.67h3.02c-.08,4.66-3.15,8.23-9.03,8.23-7.22,0-9.83-4.75-9.83-10.88Z"/><path class="cls-2" d="m1550.69,2527.33h-15.96c.17,4.79,2.48,7.48,6.93,7.48,3.82,0,5.67-1.43,5.97-4.83h2.98c-.29,4.24-3.28,7.39-9.03,7.39-7.06,0-9.83-4.66-9.83-10.88s3.23-11.22,10-11.22,8.95,3.99,8.95,10.21v1.85Zm-3.11-2.98c0-4.45-1.72-6.55-5.92-6.55s-6.55,2.65-6.89,6.97h12.81v-.42Z"/><path class="cls-2" d="m1556.57,2515.82h2.6l.29,3.49c1.01-2.14,3.28-4.03,7.35-4.03,4.75,0,7.77,2.52,7.77,7.94v13.61h-2.94v-13.27c0-4.33-2.14-5.71-5.5-5.71-3.82,0-6.64,2.69-6.64,5.63v13.36h-2.94v-21Z"/><path class="cls-2" d="m1580.25,2526.36c0-7.1,4.28-11.09,10.04-11.09,3.7,0,6.22,1.6,7.31,3.74h.04v-14.95h2.94v32.77h-1.97l-.67-3.61h-.08c-1.18,2.31-3.95,4.16-7.77,4.16-6.3,0-9.83-3.99-9.83-11.01Zm17.64-.5c0-5.5-3.36-8.07-7.35-8.07-3.11,0-7.14,1.47-7.14,8.4s3.61,8.61,7.14,8.61c4.24,0,7.35-2.73,7.35-8.95Z"/><path class="cls-2" d="m1625.2,2527.33h-15.96c.17,4.79,2.48,7.48,6.93,7.48,3.82,0,5.67-1.43,5.97-4.83h2.98c-.29,4.24-3.28,7.39-9.03,7.39-7.06,0-9.83-4.66-9.83-10.88s3.23-11.22,10-11.22,8.95,3.99,8.95,10.21v1.85Zm-3.11-2.98c0-4.45-1.72-6.55-5.92-6.55s-6.55,2.65-6.89,6.97h12.81v-.42Z"/><path class="cls-2" d="m1631.07,2515.82h2.6l.29,3.91c1.01-2.14,3.07-4.45,6.76-4.45,1.26,0,2.18.21,3.02.55v3.15c-1.13-.5-2.1-.76-3.4-.76-3.74,0-6.34,2.81-6.34,5.75v12.85h-2.94v-21Z"/><path class="cls-2" d="m1646.28,2530.4v-1.18h2.94v1.13c0,2.86,2.14,4.49,5.96,4.49s5.8-1.01,5.8-3.78c0-2.06-1.01-2.81-3.86-3.32l-4.62-.84c-3.02-.55-5.54-2.02-5.54-5.5,0-3.15,2.35-6.13,8.4-6.13s8.4,3.02,8.4,7.23v.88h-2.98v-.76c0-3.45-2.14-4.92-5.42-4.92-3.95,0-5.33,1.34-5.33,3.36s1.01,2.86,3.91,3.4l4.03.76c4.12.76,6.09,1.93,6.09,5.59,0,4.58-4.12,6.55-8.78,6.55-7.31,0-8.99-3.28-8.99-6.97Z"/><line class="cls-7" x1="1471.35" y1="2621.28" x2="1471.35" y2="2620.41"/><line class="cls-11" x1="1471.35" y1="2604.37" x2="1471.35" y2="2577.09"/><line class="cls-7" x1="1471.35" y1="2569.07" x2="1471.35" y2="2568.2"/><path class="cls-2" d="m407.82,3134.49h-3.36v-5.08c0-3.95.88-5.29,3.4-5.96l.67,1.85c-1.76.67-2.06,1.09-2.06,3.78v.34h1.34v5.08Zm5.92,0h-3.36v-5.08c0-3.95.88-5.29,3.4-5.96l.67,1.85c-1.76.67-2.06,1.09-2.06,3.78v.34h1.34v5.08Z"/><path class="cls-2" d="m427.43,3128.27c-1.6-1.05-3.49-1.76-5.54-2.02v-2.69c3.4.63,6.13,1.72,8.32,3.19l4.96-2.69v2.73l-2.94,1.6c3.78,3.66,5.17,8.99,5.17,15.38,0,8.82-3.7,13.57-10.29,13.57-7.27,0-10.33-4.83-10.33-11.05s3.32-11.05,10.12-11.05c2.69,0,5.25,1.01,6.89,3.36-.42-3.4-1.97-6.47-4.28-8.7l-5,2.73v-2.77l2.94-1.6Zm-.34,26.38c4.33,0,7.14-3.15,7.14-8.36,0-5.54-2.82-8.28-7.14-8.28-4.75,0-7.14,3.15-7.14,8.28s2.44,8.36,7.14,8.36Z"/><path class="cls-2" d="m441.38,3133.23c1.76-.67,2.06-1.09,2.06-3.78v-.34h-1.34v-5.08h3.36v5.08c0,3.95-.88,5.29-3.4,5.96l-.67-1.85Zm5.92,0c1.76-.67,2.06-1.09,2.06-3.78v-.34h-1.34v-5.08h3.36v5.08c0,3.95-.88,5.29-3.4,5.96l-.67-1.85Z"/><path class="cls-2" d="m465.23,3146.33c0-7.1,4.29-11.09,10.04-11.09,3.7,0,6.22,1.6,7.31,3.74h.04v-14.95h2.94v32.77h-1.97l-.67-3.61h-.08c-1.18,2.31-3.95,4.16-7.77,4.16-6.3,0-9.83-3.99-9.83-11.01Zm17.64-.5c0-5.5-3.36-8.07-7.35-8.07-3.11,0-7.14,1.47-7.14,8.4s3.61,8.61,7.14,8.61c4.24,0,7.35-2.73,7.35-8.95Z"/><path class="cls-2" d="m491.23,3146.29c0-6.22,3.32-11.05,10.38-11.05,6.6,0,10.25,4.83,10.25,11.05s-3.7,11.05-10.29,11.05c-7.27,0-10.33-4.83-10.33-11.05Zm17.56,0c0-5.33-2.9-8.49-7.23-8.49-4.75,0-7.27,3.15-7.27,8.49s2.56,8.49,7.27,8.49c4.33,0,7.23-3.15,7.23-8.49Z"/><path class="cls-2" d="m535,3147.3h-15.96c.17,4.79,2.48,7.48,6.93,7.48,3.82,0,5.67-1.43,5.96-4.83h2.98c-.29,4.24-3.28,7.39-9.03,7.39-7.06,0-9.83-4.66-9.83-10.88s3.23-11.22,10-11.22,8.95,3.99,8.95,10.21v1.85Zm-3.11-2.98c0-4.45-1.72-6.55-5.92-6.55s-6.55,2.65-6.89,6.97h12.81v-.42Z"/><path class="cls-2" d="m538.98,3150.37v-1.18h2.94v1.13c0,2.86,2.14,4.49,5.96,4.49s5.8-1.01,5.8-3.78c0-2.06-1.01-2.81-3.86-3.32l-4.62-.84c-3.02-.55-5.54-2.02-5.54-5.5,0-3.15,2.35-6.13,8.4-6.13s8.4,3.02,8.4,7.23v.88h-2.98v-.76c0-3.45-2.14-4.92-5.42-4.92-3.95,0-5.33,1.34-5.33,3.36s1.01,2.86,3.91,3.4l4.03.76c4.12.76,6.09,1.93,6.09,5.59,0,4.58-4.12,6.55-8.78,6.55-7.31,0-8.99-3.28-8.99-6.97Z"/><path class="cls-2" d="m562.63,3135.79h2.6l.29,3.49c1.01-2.14,3.28-4.03,7.35-4.03,4.75,0,7.77,2.52,7.77,7.94v13.61h-2.94v-13.27c0-4.33-2.14-5.71-5.5-5.71-3.82,0-6.64,2.69-6.64,5.63v13.36h-2.94v-21Z"/><path class="cls-2" d="m585.05,3133.23c1.76-.67,2.06-1.09,2.06-3.78v-.34h-1.34v-5.08h3.36v5.08c0,3.95-.88,5.29-3.4,5.96l-.67-1.85Z"/><path class="cls-2" d="m605.55,3154.1v2.6c-.76.21-2.14.59-4.03.59-3.82,0-6.34-1.6-6.34-6.89v-12.18h-4.16v-2.44h4.16v-6.05l2.94-1.43v7.48h5.92v2.44h-5.92v11.8c0,2.82.76,4.58,3.4,4.58,1.6,0,3.23-.29,4.03-.5Z"/><path class="cls-2" d="m622.98,3159.82c0,3.53-1.68,5.84-5.04,5.84-1.18,0-2.02-.13-2.94-.38v-2.6c.8.17,1.47.29,2.27.29,1.93,0,2.77-1.26,2.77-3.65v-23.52h2.94v24.03Zm-2.94-35.79h2.98v6.51h-2.98v-6.51Z"/><path class="cls-2" d="m628.69,3146.29c0-6.22,3.32-11.05,10.38-11.05,6.59,0,10.25,4.83,10.25,11.05s-3.7,11.05-10.29,11.05c-7.27,0-10.33-4.83-10.33-11.05Zm17.56,0c0-5.33-2.9-8.49-7.23-8.49-4.75,0-7.27,3.15-7.27,8.49s2.56,8.49,7.27,8.49c4.33,0,7.23-3.15,7.23-8.49Z"/><path class="cls-2" d="m655.19,3124.03h2.98v6.51h-2.98v-6.51Zm0,11.76h2.94v21h-2.94v-21Z"/><path class="cls-2" d="m665.52,3135.79h2.6l.29,3.49c1.01-2.14,3.28-4.03,7.35-4.03,4.75,0,7.77,2.52,7.77,7.94v13.61h-2.94v-13.27c0-4.33-2.14-5.71-5.5-5.71-3.82,0-6.64,2.69-6.64,5.63v13.36h-2.94v-21Z"/><path class="cls-2" d="m697.82,3135.83v-.04h2.98l5.75,17.48h.08l6.3-17.48h2.69l6.17,17.48h.08l5.75-17.48h2.86v.04l-7.18,20.96h-3.02l-5.97-17.05h-.08l-6.22,17.05h-3.02l-7.18-20.96Z"/><path class="cls-2" d="m735.33,3124.03h2.98v6.51h-2.98v-6.51Zm0,11.76h2.94v21h-2.94v-21Z"/><path class="cls-2" d="m756.62,3154.1v2.6c-.76.21-2.14.59-4.03.59-3.82,0-6.34-1.6-6.34-6.89v-12.18h-4.16v-2.44h4.16v-6.05l2.94-1.43v7.48h5.92v2.44h-5.92v11.8c0,2.82.76,4.58,3.4,4.58,1.6,0,3.23-.29,4.03-.5Z"/><path class="cls-2" d="m761.45,3124.03h2.94v15.16c1.05-2.1,3.28-3.95,7.31-3.95,4.75,0,7.77,2.52,7.77,7.94v13.61h-2.94v-13.27c0-4.33-2.14-5.71-5.5-5.71-3.82,0-6.64,2.69-6.64,5.63v13.36h-2.94v-32.77Z"/><path class="cls-2" d="m807.44,3154.1v2.6c-.76.21-2.14.59-4.03.59-3.82,0-6.34-1.6-6.34-6.89v-12.18h-4.16v-2.44h4.16v-6.05l2.94-1.43v7.48h5.92v2.44h-5.92v11.8c0,2.82.76,4.58,3.4,4.58,1.6,0,3.23-.29,4.03-.5Z"/><path class="cls-2" d="m812.27,3124.03h2.94v15.16c1.05-2.1,3.28-3.95,7.31-3.95,4.75,0,7.77,2.52,7.77,7.94v13.61h-2.94v-13.27c0-4.33-2.14-5.71-5.5-5.71-3.82,0-6.64,2.69-6.64,5.63v13.36h-2.94v-32.77Z"/><path class="cls-2" d="m854.9,3147.3h-15.96c.17,4.79,2.48,7.48,6.93,7.48,3.82,0,5.67-1.43,5.96-4.83h2.98c-.29,4.24-3.28,7.39-9.03,7.39-7.06,0-9.83-4.66-9.83-10.88s3.23-11.22,10-11.22,8.95,3.99,8.95,10.21v1.85Zm-3.11-2.98c0-4.45-1.72-6.55-5.92-6.55s-6.55,2.65-6.89,6.97h12.81v-.42Z"/><path class="cls-2" d="m870.44,3135.79h2.6l.29,3.49c1.01-2.14,3.28-4.03,7.35-4.03,4.75,0,7.77,2.52,7.77,7.94v13.61h-2.94v-13.27c0-4.33-2.14-5.71-5.5-5.71-3.82,0-6.64,2.69-6.64,5.63v13.36h-2.94v-21Z"/><path class="cls-2" d="m913.07,3147.3h-15.96c.17,4.79,2.48,7.48,6.93,7.48,3.82,0,5.67-1.43,5.96-4.83h2.98c-.29,4.24-3.28,7.39-9.03,7.39-7.06,0-9.83-4.66-9.83-10.88s3.23-11.22,10-11.22,8.95,3.99,8.95,10.21v1.85Zm-3.11-2.98c0-4.45-1.72-6.55-5.92-6.55s-6.55,2.65-6.89,6.97h12.81v-.42Z"/><path class="cls-2" d="m934.32,3135.83l-8.07,10.5,8.02,10.42v.04h-3.44l-6.34-8.44-6.43,8.44h-3.28v-.04l8.02-10.38-8.07-10.54v-.04h3.44l6.39,8.49,6.43-8.44v-.04h3.32v.04Z"/><path class="cls-2" d="m949.82,3154.1v2.6c-.76.21-2.14.59-4.03.59-3.82,0-6.34-1.6-6.34-6.89v-12.18h-4.16v-2.44h4.16v-6.05l2.94-1.43v7.48h5.92v2.44h-5.92v11.8c0,2.82.76,4.58,3.4,4.58,1.6,0,3.23-.29,4.03-.5Z"/><path class="cls-2" d="m964.31,3124.03h2.94v32.77h-2.94v-32.77Z"/><path class="cls-2" d="m991.86,3147.3h-15.96c.17,4.79,2.48,7.48,6.93,7.48,3.82,0,5.67-1.43,5.97-4.83h2.98c-.29,4.24-3.28,7.39-9.03,7.39-7.06,0-9.83-4.66-9.83-10.88s3.23-11.22,10-11.22,8.95,3.99,8.95,10.21v1.85Zm-3.11-2.98c0-4.45-1.72-6.55-5.92-6.55s-6.55,2.65-6.89,6.97h12.81v-.42Z"/><path class="cls-2" d="m998.33,3150.41v-12.18h-4.16v-2.44h4.16v-6.05l2.94-1.43v7.48h11.85v-6.05l2.94-1.43v7.48h5.92v2.44h-5.92v11.8c0,2.82.76,4.58,3.4,4.58,1.6,0,3.24-.29,4.03-.5v2.6c-.76.21-2.14.59-4.03.59-3.82,0-6.34-1.6-6.34-6.89v-12.18h-11.85v11.8c0,2.82.76,4.58,3.4,4.58,1.6,0,3.23-.29,4.03-.5v2.6c-.76.21-2.14.59-4.03.59-3.82,0-6.34-1.6-6.34-6.89Z"/><path class="cls-2" d="m1044.95,3147.3h-15.96c.17,4.79,2.48,7.48,6.93,7.48,3.82,0,5.67-1.43,5.97-4.83h2.98c-.29,4.24-3.28,7.39-9.03,7.39-7.06,0-9.83-4.66-9.83-10.88s3.23-11.22,10-11.22,8.95,3.99,8.95,10.21v1.85Zm-3.11-2.98c0-4.45-1.72-6.55-5.92-6.55s-6.55,2.65-6.89,6.97h12.81v-.42Z"/><path class="cls-2" d="m1050.83,3135.79h2.6l.29,3.91c1.01-2.14,3.07-4.45,6.76-4.45,1.26,0,2.18.21,3.02.55v3.15c-1.13-.5-2.1-.76-3.4-.76-3.74,0-6.34,2.81-6.34,5.75v12.85h-2.94v-21Z"/><line class="cls-10" x1="734.03" y1="3092.8" x2="734.03" y2="2936.29"/><polygon class="cls-6" points="500.92 702.68 553.25 702.68 574.19 339.82 521.85 339.82 500.92 702.68"/><path class="cls-2" d="m471.26,487.62c.73,0,1.83,2.2,1.83,5.13,0,5.5-2.2,13.55-3.66,13.55s-26.38-2.93-78.03-2.93h-14.65c-1.83,30.77-2.56,59.72-2.56,84.26,0,14.29,4.4,16.49,32.61,16.49,66.31,0,85.36-7.69,87.93-7.69,1.83,0,1.83,2.2,1.83,5.13,0,6.59-3.66,16.12-6.23,16.12h-140.68c2.93-27.84,10.26-154.6,13.56-234.1h113.94c1.1,0,1.83,2.2,1.83,5.13,0,5.5-2.2,13.92-3.66,13.92-1.1,0-26.38-3.3-78.03-3.3h-11.72c-2.56,16.12-5.49,50.56-8.06,88.29h93.79Z"/><path class="cls-2" d="m632.08,566.38c0,1.1-.37,2.56-1.1,3.3-12.09,15.75-43.23,52.76-58.62,52.76-4.03,0-16.12-8.06-17.95-12.09-1.1-2.2-.73-7.33-.73-15.75.73-46.89,12.46-149.47,14.29-250.95,0-1.83.37-2.93,3.3-2.93,7.69,0,17.95,3.3,17.95,9.89,0,8.43-3.66,56.78-7.69,108.07-3.66,51.29-7.69,105.51-7.69,126.39,0,15.02,1.47,17.58,5.86,17.58,6.96,0,37-34.8,44.7-45.06,1.1-1.1,1.47-2.2,2.56-2.2,1.47,0,5.13,5.86,5.13,10.62v.37Z"/><path class="cls-2" d="m868.38,566.38c0,1.47-.37,2.56-1.1,3.3-12.09,15.75-43.23,52.76-58.62,52.76-4.03,0-16.49-8.06-18.32-12.09-1.1-2.2-1.1-7.33-1.1-15.75,0-21.25,2.57-72.91,4.76-106.98-26.38,53.12-90.12,134.82-113.2,134.82-4.03,0-16.49-8.06-18.32-12.09-1.1-2.2-1.47-7.33-1.47-15.75,0-28.58,1.1-104.41,19.78-129.69,17.95-24.55,40.67-39.2,65.21-39.2,5.13,0,28.21,2.2,52.02,5.86,2.56-34.44,3.3-53.85,3.66-87.93,0-1.83.73-2.93,3.3-2.93,8.06,0,17.95,3.3,17.95,9.89,0,7.33-2.2,35.54-5.5,84.99h1.47c.73,0,1.47.73,1.47,2.56,0,6.59-2.56,10.99-4.4,10.99,0,3.3-5.86,81.7-5.86,135.92,0,15.02,1.47,17.22,5.86,17.22,6.96,0,37-34.44,44.7-44.7,1.1-1.1,1.47-2.2,2.93-2.2,1.1,0,4.76,5.86,4.76,10.62v.37Zm-186.48,19.05c0,14.65,1.47,16.85,5.86,16.85,12.09,0,94.15-101.48,109.54-153.14-30.41-5.86-51.29-7.69-65.21-7.69-30.41,0-50.19,52.02-50.19,143.61v.37Z"/><path class="cls-2" d="m1017.47,435.96c0,35.9-35.17,114.3-75.83,183.18-1.1,2.2-2.2,3.3-4.4,3.3-5.86,0-16.85-2.56-17.95-9.52-24.18-147.64-44.7-178.05-44.7-183.91,0-2.2.73-3.3,5.5-3.3,15.02,0,17.95,2.93,22.35,14.29,6.23,16.12,24.55,99.65,32.61,142.15,1.47,7.33,2.2,13.55,2.93,17.58,20.52-37.37,45.79-90.12,55.69-133.72,2.93-13.55,4.76-26.38,4.76-37.37,0-1.83.73-2.93,2.93-2.93,5.13,0,11.36,1.83,13.92,4.76,1.1,1.47,2.2,2.93,2.2,5.13v.37Z"/><path class="cls-2" d="m1260.36,566.38c0,1.1-.37,2.56-1.1,3.3-12.09,15.75-43.23,52.76-58.62,52.76-4.03,0-16.49-8.06-18.32-12.09-1.1-2.2-1.1-7.33-1.1-15.75,0-21.25,2.57-72.91,4.76-106.98-26.38,53.12-90.12,134.82-113.2,134.82-4.03,0-16.49-8.06-18.32-12.09-1.1-2.2-1.47-7.33-1.47-15.75,0-28.58,1.1-104.41,19.78-129.69,17.95-24.55,40.67-39.2,65.21-39.2,6.59,0,44.7,4.03,72.9,10.26.37,0,1.47.37,1.47,2.2,0,6.59-2.56,10.99-4.4,10.99,0,3.3-5.86,81.7-5.86,135.92,0,15.02,1.47,17.58,5.86,17.58,6.96,0,37-34.8,44.7-45.06,1.1-1.1,1.47-2.2,2.56-2.2,1.47,0,5.13,5.86,5.13,10.62v.37Zm-186.48,19.05c0,14.65,1.47,17.22,5.86,17.22,12.09,0,94.15-101.85,109.54-153.5-30.41-5.86-51.29-7.69-65.21-7.69-30.41,0-50.19,52.02-50.19,143.61v.37Z"/><path class="cls-2" d="m1403.59,439.62c0,5.13.73,7.69-8.06,7.69-23.81,0-57.89,55.32-72.54,105.14-6.59,22.71-8.79,45.79-8.79,67.04,0,1.83-2.56,2.93-4.4,2.93-6.59,0-13.92-3.3-13.92-9.89,0-1.83,9.89-135.92,9.89-183.91,0-1.83.37-2.93,2.93-2.93,8.06,0,18.32,3.3,18.32,9.89,0,16.85-6.59,86.46-6.59,90.86,25.64-76.2,54.22-100.75,68.14-100.75,7.33,0,15.02,6.59,15.02,13.55v.37Z"/><path class="cls-2" d="m1580.9,496.04c0,31.87-2.56,70.34-14.29,87.19-16.85,24.18-38.83,39.2-63.38,39.2-7.33,0-31.14-2.93-54.22-6.59-2.56,45.79-2.93,63.75-3.3,88.66,0,1.83-.37,2.56-3.3,2.56-6.96,0-17.22-2.93-17.22-9.53,0-8.06,2.57-32.97,5.86-84.99l-2.93-.37c-.37,0-1.47-.37-1.47-2.2,0-6.59,2.56-11.36,4.4-11.36,2.56-41.03,8.79-133.35,8.79-169.99,0-1.83.37-2.93,2.93-2.93,8.06,0,17.95,3.3,17.95,9.89,0,14.29-5.86,93.42-8.06,121.26,23.81-53.12,82.8-131.16,105.88-131.16,4.4,0,16.85,7.69,19.05,12.09,2.2,3.66,3.3,19.42,3.3,57.88v.37Zm-20.51-3.66c0-35.17-.37-46.89-7.69-46.89-12.09,0-89.03,101.48-101.85,153.14,30.77,6.23,51.66,8.06,65.58,8.06,27.11,0,43.96-41.03,43.96-113.94v-.37Z"/><polyline class="cls-10" points="764.07 1598.25 764.07 1684.25 1351.2 1684.25"/><line class="cls-10" x1="966.21" y1="1606.97" x2="966.21" y2="1679.02"/><line class="cls-10" x1="1292.93" y1="1606.97" x2="1292.93" y2="1679.02"/><path class="cls-2" d="m1387.12,1667.28h3.15l17.69,27.6h.04v-27.6h2.94v32.77h-3.07l-17.77-27.93h-.04v27.93h-2.94v-32.77Z"/><path class="cls-2" d="m1417.86,1689.55c0-6.22,3.32-11.05,10.38-11.05,6.59,0,10.25,4.83,10.25,11.05s-3.7,11.05-10.29,11.05c-7.27,0-10.33-4.83-10.33-11.05Zm17.56,0c0-5.33-2.9-8.49-7.22-8.49-4.75,0-7.27,3.15-7.27,8.49s2.56,8.49,7.27,8.49c4.33,0,7.22-3.15,7.22-8.49Z"/><path class="cls-2" d="m1471.29,1690.56h-15.96c.17,4.79,2.48,7.48,6.93,7.48,3.82,0,5.67-1.43,5.97-4.83h2.98c-.29,4.24-3.28,7.39-9.03,7.39-7.06,0-9.83-4.66-9.83-10.88s3.23-11.22,10-11.22,8.95,3.99,8.95,10.21v1.85Zm-3.11-2.98c0-4.45-1.72-6.55-5.92-6.55s-6.55,2.65-6.89,6.97h12.81v-.42Z"/><path class="cls-2" d="m1492.54,1679.09l-8.07,10.5,8.02,10.42v.04h-3.44l-6.34-8.44-6.43,8.44h-3.28v-.04l8.02-10.38-8.07-10.54v-.04h3.44l6.39,8.49,6.43-8.44v-.04h3.32v.04Z"/><path class="cls-2" d="m1497.07,1667.28h2.98v6.51h-2.98v-6.51Zm0,11.76h2.94v21h-2.94v-21Z"/><path class="cls-2" d="m1518.37,1697.36v2.6c-.76.21-2.14.59-4.03.59-3.82,0-6.34-1.6-6.34-6.89v-12.18h-4.16v-2.44h4.16v-6.05l2.94-1.43v7.48h5.92v2.44h-5.92v11.8c0,2.82.76,4.58,3.4,4.58,1.6,0,3.23-.29,4.03-.5Z"/><path class="cls-2" d="m1530.96,1693.62v-1.18h2.94v1.13c0,2.86,2.14,4.49,5.96,4.49s5.8-1.01,5.8-3.78c0-2.06-1.01-2.81-3.86-3.32l-4.62-.84c-3.02-.55-5.54-2.02-5.54-5.5,0-3.15,2.35-6.13,8.4-6.13s8.4,3.02,8.4,7.23v.88h-2.98v-.76c0-3.45-2.14-4.92-5.42-4.92-3.95,0-5.33,1.34-5.33,3.36s1.01,2.86,3.91,3.4l4.03.76c4.12.76,6.09,1.93,6.09,5.59,0,4.58-4.12,6.55-8.78,6.55-7.31,0-8.99-3.28-8.99-6.97Z"/><path class="cls-2" d="m1565.57,1697.36v2.6c-.76.21-2.14.59-4.03.59-3.82,0-6.34-1.6-6.34-6.89v-12.18h-4.16v-2.44h4.16v-6.05l2.94-1.43v7.48h5.92v2.44h-5.92v11.8c0,2.82.76,4.58,3.4,4.58,1.6,0,3.23-.29,4.03-.5Z"/><path class="cls-2" d="m1570.4,1679.05h2.6l.29,3.91c1.01-2.14,3.07-4.45,6.76-4.45,1.26,0,2.18.21,3.02.55v3.15c-1.13-.5-2.1-.76-3.4-.76-3.74,0-6.34,2.81-6.34,5.75v12.85h-2.94v-21Z"/><path class="cls-2" d="m1585.4,1689.55c0-6.22,3.32-11.05,10.38-11.05,6.59,0,10.25,4.83,10.25,11.05s-3.7,11.05-10.29,11.05c-7.27,0-10.33-4.83-10.33-11.05Zm17.56,0c0-5.33-2.9-8.49-7.22-8.49-4.75,0-7.27,3.15-7.27,8.49s2.56,8.49,7.27,8.49c4.33,0,7.22-3.15,7.22-8.49Z"/><path class="cls-2" d="m1611.27,1667.28h2.94v23.23l12.14-11.47h3.65v.04l-8.4,7.86,8.78,13.06v.04h-3.36l-7.39-11.22-5.42,5.04v6.17h-2.94v-32.77Z"/><path class="cls-2" d="m1651.63,1690.56h-15.96c.17,4.79,2.48,7.48,6.93,7.48,3.82,0,5.67-1.43,5.97-4.83h2.98c-.29,4.24-3.28,7.39-9.03,7.39-7.06,0-9.83-4.66-9.83-10.88s3.23-11.22,10-11.22,8.95,3.99,8.95,10.21v1.85Zm-3.11-2.98c0-4.45-1.72-6.55-5.92-6.55s-6.55,2.65-6.89,6.97h12.81v-.42Z"/><path class="cls-2" d="m1655.62,1693.62v-1.18h2.94v1.13c0,2.86,2.14,4.49,5.96,4.49s5.8-1.01,5.8-3.78c0-2.06-1.01-2.81-3.86-3.32l-4.62-.84c-3.02-.55-5.54-2.02-5.54-5.5,0-3.15,2.35-6.13,8.4-6.13s8.4,3.02,8.4,7.23v.88h-2.98v-.76c0-3.45-2.14-4.92-5.42-4.92-3.95,0-5.33,1.34-5.33,3.36s1.01,2.86,3.91,3.4l4.03.76c4.12.76,6.09,1.93,6.09,5.59,0,4.58-4.12,6.55-8.78,6.55-7.31,0-8.99-3.28-8.99-6.97Z"/><path class="cls-2" d="m1688.93,1667.28h2.98v6.51h-2.98v-6.51Zm0,11.76h2.94v21h-2.94v-21Z"/><path class="cls-2" d="m1699.26,1679.05h2.6l.29,3.49c1.01-2.14,3.28-4.03,7.35-4.03,4.75,0,7.77,2.52,7.77,7.94v13.61h-2.94v-13.27c0-4.33-2.14-5.71-5.5-5.71-3.82,0-6.64,2.69-6.64,5.63v13.36h-2.94v-21Z"/><path class="cls-2" d="m1386.06,1716.13h2.94v32.77h-2.94v-32.77Z"/><path class="cls-2" d="m1413.62,1739.4h-15.96c.17,4.79,2.48,7.48,6.93,7.48,3.82,0,5.67-1.43,5.97-4.83h2.98c-.29,4.24-3.28,7.39-9.03,7.39-7.06,0-9.83-4.66-9.83-10.88s3.23-11.22,10-11.22,8.95,3.99,8.95,10.21v1.85Zm-3.11-2.98c0-4.45-1.72-6.55-5.92-6.55s-6.55,2.65-6.89,6.97h12.81v-.42Z"/><path class="cls-2" d="m1420.08,1742.51v-12.18h-4.16v-2.44h4.16v-6.05l2.94-1.43v7.48h11.85v-6.05l2.94-1.43v7.48h5.92v2.44h-5.92v11.8c0,2.82.76,4.58,3.4,4.58,1.6,0,3.24-.29,4.03-.5v2.6c-.76.21-2.14.59-4.03.59-3.82,0-6.34-1.6-6.34-6.89v-12.18h-11.85v11.8c0,2.82.76,4.58,3.4,4.58,1.6,0,3.23-.29,4.03-.5v2.6c-.76.21-2.14.59-4.03.59-3.82,0-6.34-1.6-6.34-6.89Z"/><path class="cls-2" d="m1466.71,1739.4h-15.96c.17,4.79,2.48,7.48,6.93,7.48,3.82,0,5.67-1.43,5.97-4.83h2.98c-.29,4.24-3.28,7.39-9.03,7.39-7.06,0-9.83-4.66-9.83-10.88s3.23-11.22,10-11.22,8.95,3.99,8.95,10.21v1.85Zm-3.11-2.98c0-4.45-1.72-6.55-5.92-6.55s-6.55,2.65-6.89,6.97h12.81v-.42Z"/><path class="cls-2" d="m1472.58,1727.89h2.6l.29,3.91c1.01-2.14,3.07-4.45,6.76-4.45,1.26,0,2.18.21,3.02.55v3.15c-1.13-.5-2.1-.76-3.4-.76-3.74,0-6.34,2.81-6.34,5.75v12.85h-2.94v-21Z"/><path class="cls-2" d="m1487.79,1742.47v-1.18h2.94v1.13c0,2.86,2.14,4.49,5.96,4.49s5.8-1.01,5.8-3.78c0-2.06-1.01-2.81-3.86-3.32l-4.62-.84c-3.02-.55-5.54-2.02-5.54-5.5,0-3.15,2.35-6.13,8.4-6.13s8.4,3.02,8.4,7.23v.88h-2.98v-.76c0-3.45-2.14-4.92-5.42-4.92-3.95,0-5.33,1.34-5.33,3.36s1.01,2.86,3.91,3.4l4.03.76c4.12.76,6.09,1.93,6.09,5.59,0,4.58-4.12,6.55-8.78,6.55-7.31,0-8.99-3.28-8.99-6.97Z"/><path class="cls-2" d="m1518.36,1727.93v-.04h2.98l5.76,17.48h.08l6.3-17.48h2.69l6.17,17.48h.08l5.75-17.48h2.86v.04l-7.18,20.96h-3.02l-5.96-17.05h-.08l-6.22,17.05h-3.02l-7.18-20.96Z"/><path class="cls-2" d="m1555.87,1716.13h2.98v6.51h-2.98v-6.51Zm0,11.76h2.94v21h-2.94v-21Z"/><path class="cls-2" d="m1577.17,1746.21v2.6c-.76.21-2.14.59-4.03.59-3.82,0-6.34-1.6-6.34-6.89v-12.18h-4.16v-2.44h4.16v-6.05l2.94-1.43v7.48h5.92v2.44h-5.92v11.8c0,2.82.76,4.58,3.4,4.58,1.6,0,3.23-.29,4.03-.5Z"/><path class="cls-2" d="m1581.99,1716.13h2.94v15.16c1.05-2.1,3.28-3.95,7.31-3.95,4.75,0,7.77,2.52,7.77,7.94v13.61h-2.94v-13.27c0-4.33-2.14-5.71-5.5-5.71-3.82,0-6.64,2.69-6.64,5.63v13.36h-2.94v-32.77Z"/><path class="cls-2" d="m1615.34,1738.44c0-7.1,4.28-11.09,10.04-11.09,3.7,0,6.22,1.6,7.31,3.74h.04v-14.95h2.94v32.77h-1.97l-.67-3.61h-.08c-1.18,2.31-3.95,4.16-7.77,4.16-6.3,0-9.83-3.99-9.83-11.01Zm17.64-.5c0-5.5-3.36-8.07-7.35-8.07-3.11,0-7.14,1.47-7.14,8.4s3.61,8.61,7.14,8.61c4.24,0,7.35-2.73,7.35-8.95Z"/><path class="cls-2" d="m1660.29,1739.4h-15.96c.17,4.79,2.48,7.48,6.93,7.48,3.82,0,5.67-1.43,5.97-4.83h2.98c-.29,4.24-3.28,7.39-9.03,7.39-7.06,0-9.83-4.66-9.83-10.88s3.23-11.22,10-11.22,8.95,3.99,8.95,10.21v1.85Zm-3.11-2.98c0-4.45-1.72-6.55-5.92-6.55s-6.55,2.65-6.89,6.97h12.81v-.42Z"/><path class="cls-2" d="m1664.27,1742.47v-1.18h2.94v1.13c0,2.86,2.14,4.49,5.96,4.49s5.8-1.01,5.8-3.78c0-2.06-1.01-2.81-3.86-3.32l-4.62-.84c-3.02-.55-5.54-2.02-5.54-5.5,0-3.15,2.35-6.13,8.4-6.13s8.4,3.02,8.4,7.23v.88h-2.98v-.76c0-3.45-2.14-4.92-5.42-4.92-3.95,0-5.33,1.34-5.33,3.36s1.01,2.86,3.91,3.4l4.03.76c4.12.76,6.09,1.93,6.09,5.59,0,4.58-4.12,6.55-8.78,6.55-7.31,0-8.99-3.28-8.99-6.97Z"/><path class="cls-2" d="m1686.24,1738.56c0-6.38,3.23-11.22,10-11.22s8.95,3.91,8.95,8.95v.42h-3.11v-.63c0-3.82-1.64-6.09-5.84-6.09-4.75,0-7.01,3.11-7.01,8.4,0,5.63,2.39,8.49,6.93,8.49,3.82,0,5.84-1.85,5.92-5.67h3.02c-.08,4.66-3.15,8.23-9.03,8.23-7.22,0-9.83-4.75-9.83-10.88Z"/><path class="cls-2" d="m1728.33,1739.4h-15.96c.17,4.79,2.48,7.48,6.93,7.48,3.82,0,5.67-1.43,5.97-4.83h2.98c-.29,4.24-3.28,7.39-9.03,7.39-7.06,0-9.83-4.66-9.83-10.88s3.23-11.22,10-11.22,8.95,3.99,8.95,10.21v1.85Zm-3.11-2.98c0-4.45-1.72-6.55-5.92-6.55s-6.55,2.65-6.89,6.97h12.81v-.42Z"/><path class="cls-2" d="m1734.2,1727.89h2.6l.29,3.49c1.01-2.14,3.28-4.03,7.35-4.03,4.75,0,7.77,2.52,7.77,7.94v13.61h-2.94v-13.27c0-4.33-2.14-5.71-5.5-5.71-3.82,0-6.64,2.69-6.64,5.63v13.36h-2.94v-21Z"/><path class="cls-2" d="m1757.89,1738.44c0-7.1,4.28-11.09,10.04-11.09,3.7,0,6.22,1.6,7.31,3.74h.04v-14.95h2.94v32.77h-1.97l-.67-3.61h-.08c-1.18,2.31-3.95,4.16-7.77,4.16-6.3,0-9.83-3.99-9.83-11.01Zm17.64-.5c0-5.5-3.36-8.07-7.35-8.07-3.11,0-7.14,1.47-7.14,8.4s3.61,8.61,7.14,8.61c4.24,0,7.35-2.73,7.35-8.95Z"/><path class="cls-2" d="m1802.83,1739.4h-15.96c.17,4.79,2.48,7.48,6.93,7.48,3.82,0,5.67-1.43,5.97-4.83h2.98c-.29,4.24-3.28,7.39-9.03,7.39-7.06,0-9.83-4.66-9.83-10.88s3.23-11.22,10-11.22,8.95,3.99,8.95,10.21v1.85Zm-3.11-2.98c0-4.45-1.72-6.55-5.92-6.55s-6.55,2.65-6.89,6.97h12.81v-.42Z"/><path class="cls-2" d="m1808.71,1727.89h2.6l.29,3.91c1.01-2.14,3.07-4.45,6.76-4.45,1.26,0,2.18.21,3.02.55v3.15c-1.13-.5-2.1-.76-3.4-.76-3.74,0-6.34,2.81-6.34,5.75v12.85h-2.94v-21Z"/><path class="cls-2" d="m1823.92,1742.47v-1.18h2.94v1.13c0,2.86,2.14,4.49,5.96,4.49s5.8-1.01,5.8-3.78c0-2.06-1.01-2.81-3.86-3.32l-4.62-.84c-3.02-.55-5.54-2.02-5.54-5.5,0-3.15,2.35-6.13,8.4-6.13s8.4,3.02,8.4,7.23v.88h-2.98v-.76c0-3.45-2.14-4.92-5.42-4.92-3.95,0-5.33,1.34-5.33,3.36s1.01,2.86,3.91,3.4l4.03.76c4.12.76,6.09,1.93,6.09,5.59,0,4.58-4.12,6.55-8.78,6.55-7.31,0-8.99-3.28-8.99-6.97Z"/><path class="cls-2" d="m397.73,1508.85h-57.88c2.56-27.84,9.89-154.6,13.19-234.1h52.39c45.06,0,67.78,16.85,67.78,47.26,0,41.4-39.93,54.95-49.46,58.62,38.83,3.3,56.79,28.58,56.79,56.42,0,34.44-28.94,71.81-82.8,71.81Zm1.1-117.23h-31.87c-1.47,15.39-2.93,65.21-2.93,87.19,0,14.29,4.4,16.49,32.61,16.49,37.37,0,61.91-19.78,61.91-59.35s-37-44.33-59.72-44.33Zm3.66-103.31c-6.96,0-20.15,1.47-27.11,2.2-2.56,16.49-5.13,49.82-6.96,87.56,32.97,0,50.19-2.56,65.58-14.65,10.26-8.06,17.58-23.08,17.58-38.83,0-26.38-16.85-36.27-49.09-36.27Z"/><path class="cls-2" d="m651.24,1338.5c-23.81,0-57.89,55.32-72.54,105.14-6.59,22.71-9.89,45.79-9.89,67.04,0,1.83-1.47,2.93-3.3,2.93-6.59,0-13.92-3.3-13.92-9.89,0-1.83,9.89-135.92,9.89-183.91,0-1.83.37-2.93,2.93-2.93,8.06,0,18.32,3.3,18.32,9.89,0,16.85-6.59,86.46-6.59,90.86,25.64-76.2,54.22-100.75,68.14-100.75,7.33,0,15.02,6.59,15.02,13.55,0,5.5.73,8.06-8.06,8.06Z"/><path class="cls-2" d="m713.15,1339.6c1.1,0,1.83,1.83,1.83,3.3,0,5.13-5.86,14.65-13.56,17.95-15.39,6.23-25.64,8.43-35.54,8.43-19.78,0-28.58-9.89-28.58-22.71,0-3.3.37-6.23,1.47-9.52,5.13-13.92,20.15-13.55,20.15-1.1,0,2.56-4.4,1.83-4.4,7.69,0,5.5,6.96,10.62,18.69,10.62,9.89,0,23.08-3.66,38.47-13.55.37-.37.73-1.1,1.47-1.1Z"/><path class="cls-6" d="m829.65,1519.11c0,55.32-41.4,79.13-65.58,79.13-32.61,0-68.51-17.22-84.63-25.65-2.2-1.1-3.66-5.5-3.66-9.16,0-5.13,1.1-7.69,2.93-7.69,2.57,0,45.79,23.81,88.66,23.81,29.67,0,42.13-10.62,42.13-87.19,0-16.12.37-76.57,2.93-113.57-26.01,53.12-89.76,134.82-112.84,134.82-4.03,0-16.49-8.06-18.69-12.09-1.1-2.2-1.1-7.33-1.1-15.75,0-21.98,11.36-92.69,15.02-165.96,0-1.83.73-2.93,3.3-2.93,8.06,0,17.95,3.3,17.58,9.89-1.47,50.56-15.39,116.14-15.39,149.47,0,15.02,1.47,17.58,6.23,17.58,8.43,0,57.15-53.85,87.19-106.98,12.46-22.35,23.08-48.36,23.08-66.68,0-2.2.73-3.3,3.66-3.3,6.96,0,15.75,3.3,15.75,9.89,0,2.93-6.59,64.85-6.59,192.34Z"/><path class="cls-6" d="m1040.03,1340.33c-5.13,22.35-5.13,56.05-5.13,178.78,0,27.48-9.89,47.26-23.45,60.45-13.19,12.82-30.04,18.68-41.76,18.68-32.97,0-68.88-17.22-85-25.65-2.2-1.1-3.66-5.5-3.66-9.16,0-5.13,1.1-7.69,2.93-7.69,2.56,0,45.79,23.81,88.66,23.81,29.68,0,42.13-10.62,42.13-87.19,0-30.77.37-81.7,3.3-113.57-26.38,53.12-90.12,134.82-113.2,134.82-4.03,0-16.49-8.06-18.32-12.09-1.1-2.2-1.47-7.33-1.47-15.75,0-28.58,1.1-104.41,19.78-129.69,17.95-24.55,40.67-39.2,65.21-39.2,6.59,0,44.7,4.03,72.9,10.26.37,0,1.47.37,1.47,2.2,0,6.59-2.57,10.99-4.4,10.99Zm-83.9-7.69c-30.41,0-50.19,52.02-50.19,143.61,0,15.02,1.47,17.22,5.86,17.22,12.09,0,94.15-101.48,109.54-153.14-30.41-5.86-51.29-7.69-65.21-7.69Z"/><path class="cls-2" d="m1244.34,1340.33c-5.13,22.35-5.13,56.05-5.13,178.78,0,27.48-9.89,47.26-23.45,60.45-13.19,12.82-30.04,18.68-41.76,18.68-32.97,0-68.88-17.22-85-25.65-2.2-1.1-3.66-5.5-3.66-9.16,0-5.13,1.1-7.69,2.93-7.69,2.56,0,45.79,23.81,88.66,23.81,29.68,0,42.13-10.62,42.13-87.19,0-30.77.37-81.7,3.3-113.57-26.38,53.12-90.12,134.82-113.2,134.82-4.03,0-16.49-8.06-18.32-12.09-1.1-2.2-1.47-7.33-1.47-15.75,0-28.58,1.1-104.41,19.78-129.69,17.95-24.55,40.67-39.2,65.21-39.2,6.59,0,44.7,4.03,72.9,10.26.37,0,1.47.37,1.47,2.2,0,6.59-2.57,10.99-4.4,10.99Zm-83.9-7.69c-30.41,0-50.19,52.02-50.19,143.61,0,15.02,1.47,17.22,5.86,17.22,12.09,0,94.15-101.48,109.54-153.14-30.41-5.86-51.29-7.69-65.21-7.69Z"/><path class="cls-6" d="m1360.21,1455.37c-4.76,83.53-13.19,96.35-23.08,111.74-12.46,19.42-35.9,31.14-50.92,31.14-16.49,0-33.7-5.5-37.37-7.33-2.93-1.47-3.66-4.76-3.66-11.72,0-4.76,1.1-5.13,4.03-5.13,2.2,0,20.88,5.5,40.3,5.5,10.62,0,20.51-2.93,27.11-9.16,10.99-10.62,17.95-54.59,21.62-115.04,2.56-39.93,3.66-86.46,3.66-135.55,0-1.83.37-2.93,2.93-2.93,8.06,0,17.95,3.3,17.95,9.89,0,51.66-.73,93.79-2.56,128.59Zm-3.3-189.77c-7.33,0-12.46-4.03-12.46-12.82,0-12.09,8.43-20.88,16.12-20.88,5.49,0,10.62,4.4,10.62,16.85,0,7.69-6.96,16.85-14.29,16.85Z"/><path class="cls-2" d="m1620.72,1460.86c-12.09,15.75-43.23,52.76-58.62,52.76-4.03,0-16.49-8.06-18.32-12.09-1.1-2.2-1.1-7.33-1.1-15.75,0-21.25,2.56-72.91,4.76-106.98-26.38,53.12-90.12,134.82-113.2,134.82-4.03,0-16.49-8.06-18.32-12.09-1.1-2.2-1.47-7.33-1.47-15.75,0-28.58,1.1-104.41,19.78-129.69,17.95-24.55,40.67-39.2,65.21-39.2,6.59,0,44.7,4.03,72.9,10.26.37,0,1.47.37,1.47,2.2,0,6.59-2.57,10.99-4.4,10.99,0,3.3-5.86,81.7-5.86,135.92,0,15.02,1.47,17.58,5.86,17.58,6.96,0,37-34.8,44.7-45.06,1.1-1.1,1.47-2.2,2.56-2.2,1.47,0,5.13,5.86,5.13,10.62,0,1.47-.37,2.93-1.1,3.66Zm-135.19-128.23c-30.41,0-50.19,52.02-50.19,143.61,0,15.02,1.47,17.58,5.86,17.58,12.09,0,94.15-101.85,109.54-153.5-30.41-5.86-51.29-7.69-65.21-7.69Z"/><path class="cls-5" d="m1449.01,615.84,0,0c-2.56,45.79-2.93,63.75-3.3,88.66,0,1.83-.37,2.56-3.3,2.56-6.96,0-17.22-2.93-17.22-9.53,0-8.06,2.57-32.97,5.86-84.99l17.95,3.3Z"/><path class="cls-1" d="m747.25,1036.55h7.94c7.75,0,11.96,4.03,11.96,12.03,0,5.02-1.92,9.67-6.82,10.73v.12c4.9.87,8.43,4.46,8.43,12.28,0,9.3-4.71,13.21-12.77,13.21h-8.74v-48.36Zm8.12,21.2c5.83,0,7.32-3.91,7.32-9.24s-2.42-8.12-7.25-8.12h-3.78v17.36h3.72Zm.81,23.31c5.08,0,8.06-2.48,8.06-8.99,0-7.19-2.36-10.48-8.31-10.48h-4.28v19.47h4.53Z"/><path class="cls-1" d="m774.16,1036.55h9.3c8.37,0,13.21,3.97,13.21,13.08,0,4.84-1.8,10.97-7.56,13.21l8.8,22.01v.06h-4.65l-8.12-21.26h-6.57v21.26h-4.4v-48.36Zm9.49,23.37c6.45,0,8.56-4.09,8.56-10.35,0-6.63-3.04-9.18-8.49-9.18h-5.15v19.53h5.08Z"/><path class="cls-1" d="m802.56,1036.55h4.34v48.36h-4.34v-48.36Z"/><path class="cls-1" d="m814.34,1036.55h16.68v3.91h-12.34v18.17h9.49v4.03h-9.49v18.35h12.34v3.91h-16.68v-48.36Z"/><path class="cls-1" d="m836.28,1036.55h5.39l9.86,31.31h.12l9.86-31.31h5.39v48.36h-4.09v-40.61h-.06l-9.61,30.44h-3.1l-9.61-30.44h-.06v40.61h-4.09v-48.36Z"/><path class="cls-1" d="m884.89,1036.55h4.34v21.7h12.34v-21.7h4.34v48.36h-4.34v-22.63h-12.34v22.63h-4.34v-48.36Z"/><path class="cls-1" d="m928.48,1068.17h-10.54l-3.22,16.74h-4.46l10.29-48.36h5.39l10.29,48.36h-4.4l-3.35-16.74Zm-.68-3.72l-4.65-23.31h-.06l-4.46,23.31h9.18Z"/><path class="cls-1" d="m940.57,1036.55h5.58l14.01,39.86h.12v-39.86h4.09v48.36h-5.08l-14.51-41.04h-.12v41.04h-4.09v-48.36Z"/><path class="cls-1" d="m971.82,1036.55h7.32c10.35,0,15.5,6.26,15.5,24.18s-5.15,24.18-15.5,24.18h-7.32v-48.36Zm7.25,44.51c7.81,0,11.04-5.02,11.04-20.33s-3.1-20.33-10.91-20.33h-3.04v40.67h2.91Z"/><path class="cls-1" d="m997.54,1036.55h4.22l5.95,42.84h.12l7.07-42.84h4.46l7.25,42.84h.12l5.7-42.84h4.22l-7.25,48.36h-5.52l-6.7-40.3h-.12l-6.63,40.3h-5.52l-7.38-48.36Z"/><path class="cls-1" d="m1041.01,1036.55h9.3c8.37,0,13.21,3.97,13.21,13.08,0,4.84-1.8,10.97-7.56,13.21l8.8,22.01v.06h-4.65l-8.12-21.26h-6.57v21.26h-4.4v-48.36Zm9.49,23.37c6.45,0,8.56-4.09,8.56-10.35,0-6.63-3.04-9.18-8.49-9.18h-5.15v19.53h5.08Z"/><path class="cls-1" d="m1069.4,1036.55h4.34v48.36h-4.34v-48.36Z"/><path class="cls-1" d="m1088.25,1040.4h-10.17v-3.84h24.67v3.84h-10.17v44.51h-4.34v-44.51Z"/><path class="cls-1" d="m1107.1,1036.55h4.34v48.36h-4.34v-48.36Z"/><path class="cls-1" d="m1118.88,1036.55h5.58l14.01,39.86h.12v-39.86h4.09v48.36h-5.08l-14.51-41.04h-.12v41.04h-4.09v-48.36Z"/><path class="cls-1" d="m1148.89,1060.73c0-17.3,3.35-24.98,12.9-24.98,6.88,0,10.54,4.28,10.54,15.19v1.05h-4.21v-.93c0-8.37-2.11-11.41-6.39-11.41-6.7,0-8.31,6.76-8.31,21.08s1.74,21.14,8.18,21.14c4.53,0,6.51-3.04,6.51-10.48v-6.88h-8.31v-4.09h12.52v24.49h-3.04l-.74-3.84c-1.55,3.29-4.4,4.65-7.5,4.65-8.56,0-12.15-7.07-12.15-24.98Z"/><rect class="cls-8" x="711.49" y="1004.47" width="494.68" height="118.22"/><path class="cls-1" d="m823.84,145.71h7.94c7.75,0,11.97,4.03,11.97,12.03,0,5.02-1.92,9.67-6.82,10.73v.12c4.9.87,8.43,4.46,8.43,12.28,0,9.3-4.71,13.21-12.77,13.21h-8.74v-48.36Zm8.12,21.2c5.83,0,7.32-3.91,7.32-9.24s-2.42-8.12-7.25-8.12h-3.78v17.36h3.72Zm.81,23.31c5.08,0,8.06-2.48,8.06-8.99,0-7.19-2.36-10.48-8.31-10.48h-4.28v19.47h4.53Z"/><path class="cls-1" d="m850.75,145.71h9.3c8.37,0,13.21,3.97,13.21,13.08,0,4.84-1.8,10.97-7.56,13.21l8.8,22.01v.06h-4.65l-8.12-21.26h-6.57v21.26h-4.4v-48.36Zm9.49,23.37c6.45,0,8.56-4.09,8.56-10.35,0-6.63-3.04-9.18-8.49-9.18h-5.15v19.53h5.08Z"/><path class="cls-1" d="m879.14,145.71h4.34v48.36h-4.34v-48.36Z"/><path class="cls-1" d="m890.92,145.71h16.68v3.91h-12.34v18.17h9.49v4.03h-9.49v18.35h12.34v3.91h-16.68v-48.36Z"/><path class="cls-1" d="m912.87,145.71h5.39l9.86,31.31h.12l9.86-31.31h5.39v48.36h-4.09v-40.61h-.06l-9.61,30.44h-3.1l-9.61-30.44h-.06v40.61h-4.09v-48.36Z"/><path class="cls-1" d="m959.31,180.18v-2.6h4.34v2.54c0,4.65,0,10.85,7.13,10.85,4.59,0,6.88-2.42,6.88-8.43,0-6.82-2.54-8.87-5.21-10.04l-4.59-2.05c-4.9-2.17-7.75-6.45-7.75-13.39,0-5.95,2.29-12.15,10.91-12.15,10.35,0,10.6,9.55,10.6,15v2.6h-4.34v-2.23c0-8.25-.87-11.47-6.32-11.47-4.9,0-6.39,3.1-6.39,8.74,0,6.2,2.85,8.06,5.58,9.36l4.28,2.05c3.29,1.55,7.56,4.22,7.56,13.14,0,7.75-3.22,12.77-11.22,12.77-11.16,0-11.47-9.18-11.47-14.69Z"/><path class="cls-1" d="m986.65,169.89c0-17.3,3.35-24.98,12.9-24.98,6.88,0,10.54,4.28,10.54,15.19v2.29h-4.21v-2.17c0-8.37-2.11-11.41-6.39-11.41-6.7,0-8.31,6.76-8.31,21.08s1.74,21.08,8.43,21.08c4.28,0,6.26-2.73,6.26-11.22v-2.73h4.21v2.73c0,10.85-3.6,15.13-10.6,15.13-9.49,0-12.83-7.07-12.83-24.98Z"/><path class="cls-1" d="m1016.29,145.71h9.3c8.37,0,13.21,3.97,13.21,13.08,0,4.84-1.8,10.97-7.56,13.21l8.8,22.01v.06h-4.65l-8.12-21.26h-6.57v21.26h-4.4v-48.36Zm9.49,23.37c6.45,0,8.56-4.09,8.56-10.35,0-6.63-3.04-9.18-8.49-9.18h-5.15v19.53h5.08Z"/><path class="cls-1" d="m1044.68,145.71h4.34v48.36h-4.34v-48.36Z"/><path class="cls-1" d="m1056.46,145.71h8.87c8.37,0,13.33,4.09,13.33,14.38,0,7.13-2.48,15.07-12.4,15.07h-5.39v18.91h-4.4v-48.36Zm9.24,25.67c6.45,0,8.49-3.91,8.49-11.35,0-7.81-3.16-10.48-8.62-10.48h-4.71v21.82h4.84Z"/><path class="cls-1" d="m1090.69,149.56h-10.17v-3.84h24.67v3.84h-10.17v44.51h-4.34v-44.51Z"/><rect class="cls-8" x="789.4" y="112.35" width="344.66" height="118.22"/><path class="cls-2" d="m204.5,1721.36h8.61c7.94,0,11.64,2.73,11.64,9.62,0,6.43-2.77,10.12-11.13,10.12h-6.13v13.02h-2.98v-32.77Zm9.28,17.22c6.09,0,7.94-2.69,7.94-7.65,0-5.21-2.6-6.97-8.44-6.97h-5.8v14.62h6.3Z"/><path class="cls-2" d="m229.36,1733.13h2.6l.29,3.91c1.01-2.14,3.07-4.45,6.76-4.45,1.26,0,2.18.21,3.02.55v3.15c-1.13-.5-2.1-.76-3.4-.76-3.74,0-6.34,2.81-6.34,5.75v12.85h-2.94v-21Z"/><path class="cls-2" d="m246.67,1721.36h2.98v6.51h-2.98v-6.51Zm0,11.76h2.94v21h-2.94v-21Z"/><path class="cls-2" d="m257,1733.13h2.6l.29,3.49c1.01-2.14,3.28-4.03,7.35-4.03,4.75,0,7.77,2.52,7.77,7.94v13.61h-2.94v-13.27c0-4.33-2.14-5.71-5.5-5.71-3.82,0-6.64,2.69-6.64,5.63v13.36h-2.94v-21Z"/><path class="cls-2" d="m293.33,1751.44v2.6c-.76.21-2.14.59-4.03.59-3.82,0-6.34-1.6-6.34-6.89v-12.18h-4.16v-2.44h4.16v-6.05l2.94-1.43v7.48h5.92v2.44h-5.92v11.8c0,2.82.76,4.58,3.4,4.58,1.6,0,3.23-.29,4.03-.5Z"/><path class="cls-2" d="m305.93,1747.7v-1.18h2.94v1.13c0,2.86,2.14,4.49,5.96,4.49s5.8-1.01,5.8-3.78c0-2.06-1.01-2.81-3.87-3.32l-4.62-.84c-3.02-.55-5.54-2.02-5.54-5.5,0-3.15,2.35-6.13,8.4-6.13s8.4,3.02,8.4,7.23v.88h-2.98v-.76c0-3.45-2.14-4.92-5.42-4.92-3.95,0-5.33,1.34-5.33,3.36s1.01,2.86,3.91,3.4l4.03.76c4.12.76,6.09,1.93,6.09,5.59,0,4.58-4.12,6.55-8.78,6.55-7.31,0-8.99-3.28-8.99-6.97Z"/><path class="cls-2" d="m340.54,1751.44v2.6c-.76.21-2.14.59-4.03.59-3.82,0-6.34-1.6-6.34-6.89v-12.18h-4.16v-2.44h4.16v-6.05l2.94-1.43v7.48h5.92v2.44h-5.92v11.8c0,2.82.76,4.58,3.4,4.58,1.6,0,3.23-.29,4.03-.5Z"/><path class="cls-2" d="m345.58,1733.13l6.89,17.98h.08l7.14-17.98h3.07v.04l-8.86,20.84-3.11,8.53h-2.98v-.04l3.19-8.36-8.78-20.96v-.04h3.36Z"/><path class="cls-2" d="m366.95,1721.36h2.94v32.77h-2.94v-32.77Z"/><path class="cls-2" d="m394.51,1744.64h-15.96c.17,4.79,2.48,7.48,6.93,7.48,3.82,0,5.67-1.43,5.96-4.83h2.98c-.29,4.24-3.28,7.39-9.03,7.39-7.06,0-9.83-4.66-9.83-10.88s3.23-11.22,10-11.22,8.95,3.99,8.95,10.21v1.85Zm-3.11-2.98c0-4.45-1.72-6.55-5.92-6.55s-6.55,2.65-6.89,6.97h12.81v-.42Z"/><path class="cls-2" d="m399.13,1747.91h3.36v6.22c0,3.95-.88,5.29-3.4,5.96l-.67-1.85c1.76-.67,2.06-1.09,2.06-3.78v-.34h-1.34v-6.22Z"/><path class="cls-2" d="m418.03,1746.74v-13.61h2.94v13.27c0,4.33,2.14,5.71,5.42,5.71,3.74,0,6.55-2.69,6.55-5.63v-13.36h2.94v21h-2.6l-.25-3.36h-.08c-.97,2.02-3.24,3.91-7.23,3.91-4.66,0-7.69-2.52-7.69-7.94Z"/><path class="cls-2" d="m443.23,1733.13h2.6l.29,3.49c1.01-2.14,3.28-4.03,7.35-4.03,4.75,0,7.77,2.52,7.77,7.94v13.61h-2.94v-13.27c0-4.33-2.14-5.71-5.5-5.71-3.82,0-6.64,2.69-6.64,5.63v13.36h-2.94v-21Z"/><path class="cls-2" d="m471.54,1757.15c0,3.53-1.68,5.84-5.04,5.84-1.18,0-2.02-.13-2.94-.38v-2.6c.8.17,1.47.29,2.27.29,1.93,0,2.77-1.26,2.77-3.65v-23.52h2.94v24.03Zm-2.94-35.79h2.98v6.51h-2.98v-6.51Z"/><path class="cls-2" d="m477.25,1743.63c0-6.22,3.32-11.05,10.38-11.05,6.59,0,10.25,4.83,10.25,11.05s-3.7,11.05-10.29,11.05c-7.27,0-10.33-4.83-10.33-11.05Zm17.56,0c0-5.33-2.9-8.49-7.23-8.49-4.75,0-7.27,3.15-7.27,8.49s2.56,8.49,7.27,8.49c4.33,0,7.23-3.15,7.23-8.49Z"/><path class="cls-2" d="m503.75,1721.36h2.98v6.51h-2.98v-6.51Zm0,11.76h2.94v21h-2.94v-21Z"/><path class="cls-2" d="m514.08,1733.13h2.6l.29,3.49c1.01-2.14,3.28-4.03,7.35-4.03,4.75,0,7.77,2.52,7.77,7.94v13.61h-2.94v-13.27c0-4.33-2.14-5.71-5.5-5.71-3.82,0-6.64,2.69-6.64,5.63v13.36h-2.94v-21Z"/><path class="cls-2" d="m556.71,1744.64h-15.96c.17,4.79,2.48,7.48,6.93,7.48,3.82,0,5.67-1.43,5.96-4.83h2.98c-.29,4.24-3.28,7.39-9.03,7.39-7.06,0-9.83-4.66-9.83-10.88s3.23-11.22,10-11.22,8.95,3.99,8.95,10.21v1.85Zm-3.11-2.98c0-4.45-1.72-6.55-5.92-6.55s-6.55,2.65-6.89,6.97h12.81v-.42Z"/><path class="cls-2" d="m560.91,1743.67c0-7.1,4.29-11.09,10.04-11.09,3.7,0,6.22,1.6,7.31,3.74h.04v-14.95h2.94v32.77h-1.97l-.67-3.61h-.08c-1.18,2.31-3.95,4.16-7.77,4.16-6.3,0-9.83-3.99-9.83-11.01Zm17.64-.5c0-5.5-3.36-8.07-7.35-8.07-3.11,0-7.14,1.47-7.14,8.4s3.61,8.61,7.14,8.61c4.24,0,7.35-2.73,7.35-8.95Z"/><path class="cls-2" d="m203.03,1795.58v-13.61h2.94v13.27c0,4.33,2.14,5.71,5.42,5.71,3.74,0,6.55-2.69,6.55-5.63v-13.36h2.94v21h-2.6l-.25-3.36h-.08c-.97,2.02-3.24,3.91-7.23,3.91-4.66,0-7.69-2.52-7.69-7.94Z"/><path class="cls-2" d="m228.23,1781.97h2.39l.34,3.87h.08c1.13-2.48,4.03-4.41,7.86-4.41,6.3,0,9.66,3.99,9.66,11.01s-4.28,11.09-9.87,11.09c-3.78,0-6.39-1.6-7.44-3.7h-.08v11.55h-2.94v-29.41Zm17.18,10.63c0-7.18-3.4-8.61-6.93-8.61-4.24,0-7.56,2.73-7.56,8.44,0,6.01,3.44,8.57,7.43,8.57,3.03,0,7.06-1.47,7.06-8.4Z"/><path class="cls-2" d="m254.44,1781.97h2.39l.34,3.87h.08c1.13-2.48,4.03-4.41,7.86-4.41,6.3,0,9.66,3.99,9.66,11.01s-4.28,11.09-9.87,11.09c-3.78,0-6.39-1.6-7.44-3.7h-.08v11.55h-2.94v-29.41Zm17.18,10.63c0-7.18-3.4-8.61-6.93-8.61-4.24,0-7.56,2.73-7.56,8.44,0,6.01,3.44,8.57,7.43,8.57,3.03,0,7.06-1.47,7.06-8.4Z"/><path class="cls-2" d="m297.91,1793.48h-15.96c.17,4.79,2.48,7.48,6.93,7.48,3.82,0,5.67-1.43,5.96-4.83h2.98c-.29,4.24-3.28,7.39-9.03,7.39-7.06,0-9.83-4.66-9.83-10.88s3.23-11.22,10-11.22,8.95,3.99,8.95,10.21v1.85Zm-3.11-2.98c0-4.45-1.72-6.55-5.92-6.55s-6.55,2.65-6.89,6.97h12.81v-.42Z"/><path class="cls-2" d="m303.79,1781.97h2.6l.29,3.91c1.01-2.14,3.07-4.45,6.76-4.45,1.26,0,2.18.21,3.02.55v3.15c-1.13-.5-2.1-.76-3.4-.76-3.74,0-6.34,2.81-6.34,5.75v12.85h-2.94v-21Z"/><path class="cls-2" d="m318.78,1792.64c0-6.38,3.23-11.22,10-11.22s8.95,3.91,8.95,8.95v.42h-3.11v-.63c0-3.82-1.64-6.09-5.84-6.09-4.75,0-7.02,3.11-7.02,8.4,0,5.63,2.39,8.49,6.93,8.49,3.82,0,5.84-1.85,5.92-5.67h3.02c-.08,4.66-3.15,8.23-9.03,8.23-7.23,0-9.83-4.75-9.83-10.88Z"/><path class="cls-2" d="m342.13,1797.18c0-3.95,2.23-6.09,7.86-6.09h6.34v-1.72c0-2.98-1.26-5.42-5.46-5.42-3.95,0-5.33,1.51-5.33,4.12v.88h-2.98v-.84c0-5,4.2-6.68,8.32-6.68,5.8,0,8.4,2.86,8.4,8.44v13.11h-2.06l-.55-2.98h-.08c-1.26,1.89-3.7,3.53-7.35,3.53-4.92,0-7.1-2.31-7.1-6.34Zm14.2-1.85v-1.76h-7.01c-2.65,0-4.03.92-4.03,3.61,0,2.35,1.26,3.86,4.5,3.86,4.16,0,6.55-2.14,6.55-5.71Z"/><path class="cls-2" d="m364.73,1796.55v-1.18h2.94v1.13c0,2.86,2.14,4.49,5.96,4.49s5.8-1.01,5.8-3.78c0-2.06-1.01-2.81-3.87-3.32l-4.62-.84c-3.02-.55-5.54-2.02-5.54-5.5,0-3.15,2.35-6.13,8.4-6.13s8.4,3.02,8.4,7.23v.88h-2.98v-.76c0-3.45-2.14-4.92-5.42-4.92-3.95,0-5.33,1.34-5.33,3.36s1.01,2.86,3.91,3.4l4.03.76c4.12.76,6.09,1.93,6.09,5.59,0,4.58-4.12,6.55-8.78,6.55-7.31,0-8.99-3.28-8.99-6.97Z"/><path class="cls-2" d="m405.64,1793.48h-15.96c.17,4.79,2.48,7.48,6.93,7.48,3.82,0,5.67-1.43,5.96-4.83h2.98c-.29,4.24-3.28,7.39-9.03,7.39-7.06,0-9.83-4.66-9.83-10.88s3.23-11.22,10-11.22,8.95,3.99,8.95,10.21v1.85Zm-3.11-2.98c0-4.45-1.72-6.55-5.92-6.55s-6.55,2.65-6.89,6.97h12.81v-.42Z"/><path class="cls-2" d="m421.18,1770.21h2.94v32.77h-2.94v-32.77Z"/><path class="cls-2" d="m448.73,1793.48h-15.96c.17,4.79,2.48,7.48,6.93,7.48,3.82,0,5.67-1.43,5.96-4.83h2.98c-.29,4.24-3.28,7.39-9.03,7.39-7.06,0-9.83-4.66-9.83-10.88s3.23-11.22,10-11.22,8.95,3.99,8.95,10.21v1.85Zm-3.11-2.98c0-4.45-1.72-6.55-5.92-6.55s-6.55,2.65-6.89,6.97h12.81v-.42Z"/><path class="cls-2" d="m455.2,1796.59v-12.18h-4.16v-2.44h4.16v-6.05l2.94-1.43v7.48h11.85v-6.05l2.94-1.43v7.48h5.92v2.44h-5.92v11.8c0,2.82.76,4.58,3.4,4.58,1.6,0,3.23-.29,4.03-.5v2.6c-.76.21-2.14.59-4.03.59-3.82,0-6.34-1.6-6.34-6.89v-12.18h-11.85v11.8c0,2.82.76,4.58,3.4,4.58,1.6,0,3.23-.29,4.03-.5v2.6c-.76.21-2.14.59-4.03.59-3.82,0-6.34-1.6-6.34-6.89Z"/><path class="cls-2" d="m501.82,1793.48h-15.96c.17,4.79,2.48,7.48,6.93,7.48,3.82,0,5.67-1.43,5.96-4.83h2.98c-.29,4.24-3.28,7.39-9.03,7.39-7.06,0-9.83-4.66-9.83-10.88s3.23-11.22,10-11.22,8.95,3.99,8.95,10.21v1.85Zm-3.11-2.98c0-4.45-1.72-6.55-5.92-6.55s-6.55,2.65-6.89,6.97h12.81v-.42Z"/><path class="cls-2" d="m507.7,1781.97h2.6l.29,3.91c1.01-2.14,3.07-4.45,6.76-4.45,1.26,0,2.18.21,3.02.55v3.15c-1.13-.5-2.1-.76-3.4-.76-3.74,0-6.34,2.81-6.34,5.75v12.85h-2.94v-21Z"/><path class="cls-2" d="m522.9,1796.55v-1.18h2.94v1.13c0,2.86,2.14,4.49,5.96,4.49s5.8-1.01,5.8-3.78c0-2.06-1.01-2.81-3.87-3.32l-4.62-.84c-3.02-.55-5.54-2.02-5.54-5.5,0-3.15,2.35-6.13,8.4-6.13s8.4,3.02,8.4,7.23v.88h-2.98v-.76c0-3.45-2.14-4.92-5.42-4.92-3.95,0-5.33,1.34-5.33,3.36s1.01,2.86,3.91,3.4l4.03.76c4.12.76,6.09,1.93,6.09,5.59,0,4.58-4.12,6.55-8.78,6.55-7.31,0-8.99-3.28-8.99-6.97Z"/><circle class="cls-4" cx="968.77" cy="2178.27" r="84.71"/><circle class="cls-4" cx="785.95" cy="2193.19" r="69.78"/><path class="cls-4" d="m457.52,2222.45h-124.93c2.56-27.84,10.62-156.8,13.19-236.3,0-1.83.73-2.56,3.66-2.56,8.43,0,19.42,2.93,19.42,9.52,0,2.2-12.09,111.37-12.09,199.3,0,14.29,4.4,16.49,32.61,16.49,39.93,0,72.9-7.69,73.64-7.69,1.1,0,1.1,2.2,1.1,5.13,0,6.59-3.66,16.12-6.59,16.12Z"/><path class="cls-2" d="m704.81,2174.46c-12.09,15.75-43.23,52.76-58.62,52.76-4.03,0-16.49-8.06-18.32-12.09-1.1-2.2-1.1-7.33-1.1-15.75,0-21.25,2.56-72.91,4.76-106.98-26.38,53.12-90.12,134.82-113.2,134.82-4.03,0-16.49-8.06-18.32-12.09-1.1-2.2-1.47-7.33-1.47-15.75,0-28.58,1.1-104.41,19.78-129.69,17.95-24.55,40.67-39.2,65.21-39.2,6.59,0,44.7,4.03,72.9,10.26.37,0,1.47.37,1.47,2.2,0,6.59-2.57,10.99-4.4,10.99,0,3.3-5.86,81.7-5.86,135.92,0,15.02,1.47,17.58,5.86,17.58,6.96,0,37-34.8,44.7-45.06,1.1-1.1,1.47-2.2,2.56-2.2,1.47,0,5.13,5.86,5.13,10.62,0,1.47-.37,2.93-1.1,3.66Zm-135.19-128.23c-30.41,0-50.19,52.02-50.19,143.61,0,15.02,1.47,17.58,5.86,17.58,12.09,0,94.15-101.85,109.54-153.5-30.41-5.86-51.29-7.69-65.21-7.69Zm66.31-101.85c-19.05,13.55-61.18,53.12-63.38,55.69-.73-1.1-5.5-5.5-5.5-10.62,0-1.83.73-4.03,1.83-5.86,4.76-7.69,48.73-47.99,54.95-54.22,1.83-1.83,3.3-2.2,4.76-2.2,4.4,0,8.43,8.43,8.43,12.82,0,1.83,0,3.66-1.1,4.4Z"/><path class="cls-2" d="m749.85,2103.38c-2.2,18.68-56.05,87.93-72.9,103.31-5.86,5.13-14.29-5.5-8.79-10.62,20.88-19.05,71.81-83.9,75.1-115.4.37-7.69,9.52,4.4,6.59,22.71Z"/><path class="cls-2" d="m778.06,2227.21c-14.29,0-32.61-5.13-47.26-19.42-1.1-1.1-1.83-3.3-1.83-4.76,0-5.13,2.2-15.02,5.5-15.02s17.95,24.91,50.56,24.91c15.02,0,36.27-8.79,36.27-31.51,0-21.25-15.75-31.87-38.1-45.43-28.21-17.22-41.03-31.14-41.03-57.52,0-17.58,12.46-47.99,52.75-47.99,15.75,0,32.97,5.86,45.06,19.05.37.37,1.1,1.83,1.1,3.3,0,8.06-3.66,15.02-6.96,15.02-1.47,0-16.85-23.81-46.16-23.81-10.62,0-26.74,7.69-26.74,29.31,0,19.05,11.36,29.31,43.6,49.09,24.18,14.65,34.44,27.11,34.44,49.09,0,33.71-31.87,55.69-61.18,55.69Z"/><path class="cls-2" d="m927.16,2055.39c-1.83,52.39-47.99,171.09-148.01,171.82-8.43,0,12.82-14.65,20.88-15.75,54.22-7.69,109.54-94.89,113.2-160.46.37-8.43,14.29-5.86,13.92,4.4Z"/><path class="cls-2" d="m1140.73,2111.44c-38.47,84.99-101.11,115.77-162.3,115.77-12.09,0,20.52-15.75,31.87-17.95,75.83-16.12,104.78-75.47,127.13-116.14,6.59-11.72,9.89,3.66,3.3,18.32Z"/><path class="cls-5" d="m854.2,2200.22c-20.44,16.18-45.38,26.78-75.05,27-.11,0-.2-.01-.31-.02-.26,0-.52.02-.78.02-14.29,0-32.61-5.13-47.26-19.42-1.1-1.1-1.83-3.3-1.83-4.76,0-5.13,2.2-15.02,5.5-15.02s17.95,24.91,50.56,24.91c16.95-.54,32.62-4.63,46.35-14.22,7.96-5.25,16.62-12.76,23.98-20.4.03,7.63-.33,14.95-1.14,21.91Z"/><path class="cls-2" d="m1039.26,2188.01c-16.85,24.18-38.83,39.2-63.38,39.2-9.89,0-47.26-4.4-75.1-10.26-.37,0-1.47-.37-1.47-2.2,0-6.59,2.56-11.36,4.4-11.36,3.66-56.05,13.19-198.2,14.65-254.98,0-1.83.37-2.93,3.3-2.93,7.69,0,17.95,3.3,17.95,9.89-.37,15.02-10.99,163.76-14.29,206.26,23.81-53.12,82.8-131.16,105.88-131.16,4.4,0,16.49,7.69,19.05,12.09,2.2,3.66,3.3,19.42,3.3,57.88,0,28.58-2.93,71.07-14.29,87.56Zm-13.92-137.75c-12.09,0-89.03,101.48-101.85,153.14,30.77,6.23,51.66,8.06,65.58,8.06,27.11,0,43.96-41.03,43.96-113.94,0-35.54-.37-47.26-7.69-47.26Z"/><path class="cls-5" d="m1045.94,2213.26c-21.83,9.7-44.77,13.95-67.5,13.95-.37,0-.69-.02-.97-.04-.53.01-1.05.04-1.58.04-9.89,0-47.26-4.4-75.1-10.26-.37,0-1.47-.37-1.47-2.2,0-6.59,2.56-16.59,4.4-16.59,43.62,10.97,83.44,15.83,120.57,7.49,10.24-3.13,19.24-6.94,27.71-11.55-1.78,6.97-3.79,13.39-6.06,19.16Z"/><polyline class="cls-10" points="970.67 2268.06 970.67 2402.91 572.88 2402.91"/><line class="cls-10" x1="777.21" y1="2402.91" x2="777.21" y2="2267.33"/><path class="cls-2" d="m124.2,2381.44h8.61c7.94,0,11.64,2.44,11.64,8.86,0,4.58-2.18,7.98-6.76,9.33l7.85,14.53v.04h-3.32l-7.35-14.03c-.67.04-1.34.08-2.1.08h-5.59v13.95h-2.98v-32.77Zm8.74,16.3c6.09,0,8.49-2.81,8.49-7.31,0-4.75-2.6-6.38-8.44-6.38h-5.8v13.69h5.75Z"/><path class="cls-2" d="m167.63,2404.71h-15.96c.17,4.79,2.48,7.48,6.93,7.48,3.82,0,5.67-1.43,5.96-4.83h2.98c-.29,4.24-3.28,7.39-9.03,7.39-7.06,0-9.83-4.66-9.83-10.88s3.23-11.22,10-11.22,8.95,3.99,8.95,10.21v1.85Zm-3.11-2.98c0-4.45-1.72-6.55-5.92-6.55s-6.55,2.65-6.89,6.97h12.81v-.42Z"/><path class="cls-2" d="m184.47,2411.52v2.6c-.76.21-2.14.59-4.03.59-3.82,0-6.34-1.6-6.34-6.89v-12.18h-4.16v-2.44h4.16v-6.05l2.94-1.43v7.48h5.92v2.44h-5.92v11.8c0,2.82.76,4.58,3.4,4.58,1.6,0,3.23-.29,4.03-.5Z"/><path class="cls-2" d="m189.3,2393.2h2.6l.29,3.91c1.01-2.14,3.07-4.45,6.76-4.45,1.26,0,2.18.21,3.02.55v3.15c-1.13-.5-2.1-.76-3.4-.76-3.74,0-6.34,2.81-6.34,5.75v12.85h-2.94v-21Z"/><path class="cls-2" d="m204.92,2408.41c0-3.95,2.23-6.09,7.86-6.09h6.34v-1.72c0-2.98-1.26-5.42-5.46-5.42-3.95,0-5.33,1.51-5.33,4.12v.88h-2.98v-.84c0-5,4.2-6.68,8.32-6.68,5.8,0,8.4,2.86,8.4,8.44v13.11h-2.06l-.55-2.98h-.08c-1.26,1.89-3.7,3.53-7.35,3.53-4.91,0-7.1-2.31-7.1-6.34Zm14.2-1.85v-1.76h-7.02c-2.65,0-4.03.92-4.03,3.61,0,2.35,1.26,3.86,4.5,3.86,4.16,0,6.55-2.14,6.55-5.71Z"/><path class="cls-2" d="m227.73,2403.87c0-6.38,3.23-11.22,10-11.22s8.95,3.91,8.95,8.95v.42h-3.11v-.63c0-3.82-1.64-6.09-5.84-6.09-4.75,0-7.01,3.11-7.01,8.4,0,5.63,2.39,8.49,6.93,8.49,3.82,0,5.84-1.85,5.92-5.67h3.03c-.08,4.66-3.15,8.23-9.03,8.23-7.22,0-9.83-4.75-9.83-10.88Z"/><path class="cls-2" d="m269.82,2404.71h-15.96c.17,4.79,2.48,7.48,6.93,7.48,3.82,0,5.67-1.43,5.96-4.83h2.98c-.29,4.24-3.28,7.39-9.03,7.39-7.06,0-9.83-4.66-9.83-10.88s3.23-11.22,10-11.22,8.95,3.99,8.95,10.21v1.85Zm-3.11-2.98c0-4.45-1.72-6.55-5.92-6.55s-6.55,2.65-6.89,6.97h12.81v-.42Z"/><path class="cls-2" d="m274.01,2403.74c0-7.1,4.28-11.09,10.04-11.09,3.7,0,6.22,1.6,7.31,3.74h.04v-14.95h2.94v32.77h-1.97l-.67-3.61h-.08c-1.18,2.31-3.95,4.16-7.77,4.16-6.3,0-9.83-3.99-9.83-11.01Zm17.64-.5c0-5.5-3.36-8.07-7.35-8.07-3.11,0-7.14,1.47-7.14,8.4s3.61,8.61,7.14,8.61c4.24,0,7.35-2.73,7.35-8.95Z"/><path class="cls-2" d="m309.67,2403.87c0-6.38,3.23-11.22,10-11.22s8.95,3.91,8.95,8.95v.42h-3.11v-.63c0-3.82-1.64-6.09-5.84-6.09-4.75,0-7.01,3.11-7.01,8.4,0,5.63,2.39,8.49,6.93,8.49,3.82,0,5.84-1.85,5.92-5.67h3.03c-.08,4.66-3.15,8.23-9.03,8.23-7.22,0-9.83-4.75-9.83-10.88Z"/><path class="cls-2" d="m332.81,2403.7c0-6.22,3.32-11.05,10.38-11.05,6.6,0,10.25,4.83,10.25,11.05s-3.7,11.05-10.29,11.05c-7.27,0-10.33-4.83-10.33-11.05Zm17.56,0c0-5.33-2.9-8.49-7.23-8.49-4.75,0-7.27,3.15-7.27,8.49s2.56,8.49,7.27,8.49c4.33,0,7.23-3.15,7.23-8.49Z"/><path class="cls-2" d="m359.32,2393.2h2.6l.29,3.49c1.01-2.14,3.28-4.03,7.35-4.03,4.75,0,7.77,2.52,7.77,7.94v13.61h-2.94v-13.27c0-4.33-2.14-5.71-5.5-5.71-3.82,0-6.64,2.69-6.64,5.63v13.36h-2.94v-21Z"/><path class="cls-2" d="m384.68,2393.2h2.6l.29,3.49c1.01-2.14,3.28-4.03,7.35-4.03,4.75,0,7.77,2.52,7.77,7.94v13.61h-2.94v-13.27c0-4.33-2.14-5.71-5.5-5.71-3.82,0-6.64,2.69-6.64,5.63v13.36h-2.94v-21Z"/><path class="cls-2" d="m427.32,2404.71h-15.96c.17,4.79,2.48,7.48,6.93,7.48,3.82,0,5.67-1.43,5.96-4.83h2.98c-.29,4.24-3.28,7.39-9.03,7.39-7.06,0-9.83-4.66-9.83-10.88s3.23-11.22,10-11.22,8.95,3.99,8.95,10.21v1.85Zm-3.11-2.98c0-4.45-1.72-6.55-5.92-6.55s-6.55,2.65-6.89,6.97h12.81v-.42Z"/><path class="cls-2" d="m431.51,2403.87c0-6.38,3.23-11.22,10-11.22s8.95,3.91,8.95,8.95v.42h-3.11v-.63c0-3.82-1.64-6.09-5.84-6.09-4.75,0-7.01,3.11-7.01,8.4,0,5.63,2.39,8.49,6.93,8.49,3.82,0,5.84-1.85,5.92-5.67h3.03c-.08,4.66-3.15,8.23-9.03,8.23-7.22,0-9.83-4.75-9.83-10.88Z"/><path class="cls-2" d="m467.3,2411.52v2.6c-.76.21-2.14.59-4.03.59-3.82,0-6.34-1.6-6.34-6.89v-12.18h-4.16v-2.44h4.16v-6.05l2.94-1.43v7.48h5.92v2.44h-5.92v11.8c0,2.82.76,4.58,3.4,4.58,1.6,0,3.23-.29,4.03-.5Z"/><path class="cls-2" d="m472.13,2381.44h2.98v6.51h-2.98v-6.51Zm0,11.76h2.94v21h-2.94v-21Z"/><path class="cls-2" d="m480.78,2403.7c0-6.22,3.32-11.05,10.38-11.05,6.59,0,10.25,4.83,10.25,11.05s-3.7,11.05-10.29,11.05c-7.27,0-10.33-4.83-10.33-11.05Zm17.56,0c0-5.33-2.9-8.49-7.23-8.49-4.75,0-7.27,3.15-7.27,8.49s2.56,8.49,7.27,8.49c4.33,0,7.23-3.15,7.23-8.49Z"/><path class="cls-2" d="m507.28,2393.2h2.6l.29,3.49c1.01-2.14,3.28-4.03,7.35-4.03,4.75,0,7.77,2.52,7.77,7.94v13.61h-2.94v-13.27c0-4.33-2.14-5.71-5.5-5.71-3.82,0-6.64,2.69-6.64,5.63v13.36h-2.94v-21Z"/><path class="cls-2" d="m530.76,2407.78v-1.18h2.94v1.13c0,2.86,2.14,4.49,5.96,4.49s5.8-1.01,5.8-3.78c0-2.06-1.01-2.81-3.87-3.32l-4.62-.84c-3.02-.55-5.54-2.02-5.54-5.5,0-3.15,2.35-6.13,8.4-6.13s8.4,3.02,8.4,7.23v.88h-2.98v-.76c0-3.45-2.14-4.92-5.42-4.92-3.95,0-5.33,1.34-5.33,3.36s1.01,2.86,3.91,3.4l4.03.76c4.12.76,6.09,1.93,6.09,5.59,0,4.58-4.12,6.55-8.78,6.55-7.31,0-8.99-3.28-8.99-6.97Z"/><path class="cls-2" d="m250.33,2430.29h2.98v6.51h-2.98v-6.51Zm0,11.76h2.94v21h-2.94v-21Z"/><path class="cls-2" d="m260.66,2442.05h2.6l.29,3.49c1.01-2.14,3.28-4.03,7.35-4.03,4.75,0,7.77,2.52,7.77,7.94v13.61h-2.94v-13.27c0-4.33-2.14-5.71-5.5-5.71-3.82,0-6.64,2.69-6.64,5.63v13.36h-2.94v-21Z"/><path class="cls-2" d="m297.37,2440.75h-3.36v-5.08c0-3.95.88-5.29,3.4-5.96l.67,1.85c-1.76.67-2.06,1.09-2.06,3.78v.34h1.34v5.08Zm5.92,0h-3.36v-5.08c0-3.95.88-5.29,3.4-5.96l.67,1.85c-1.76.67-2.06,1.09-2.06,3.78v.34h1.34v5.08Z"/><path class="cls-2" d="m305.26,2456.62v-1.18h2.94v1.13c0,2.86,2.14,4.49,5.96,4.49s5.8-1.01,5.8-3.78c0-2.06-1.01-2.81-3.87-3.32l-4.62-.84c-3.02-.55-5.54-2.02-5.54-5.5,0-3.15,2.35-6.13,8.4-6.13s8.4,3.02,8.4,7.23v.88h-2.98v-.76c0-3.45-2.14-4.92-5.42-4.92-3.95,0-5.33,1.34-5.33,3.36s1.01,2.86,3.91,3.4l4.03.76c4.12.76,6.09,1.93,6.09,5.59,0,4.58-4.12,6.55-8.78,6.55-7.31,0-8.99-3.28-8.99-6.97Z"/><path class="cls-2" d="m325.34,2439.48c1.76-.67,2.06-1.09,2.06-3.78v-.34h-1.34v-5.08h3.36v5.08c0,3.95-.88,5.29-3.4,5.96l-.67-1.85Zm5.92,0c1.76-.67,2.06-1.09,2.06-3.78v-.34h-1.34v-5.08h3.36v5.08c0,3.95-.88,5.29-3.4,5.96l-.67-1.85Z"/><path class="cls-2" d="m338.27,2456.83h3.36v6.22c0,3.95-.88,5.29-3.4,5.96l-.67-1.85c1.76-.67,2.06-1.09,2.06-3.78v-.34h-1.34v-6.22Z"/><path class="cls-2" d="m359.27,2440.75h-3.36v-5.08c0-3.95.88-5.29,3.4-5.96l.67,1.85c-1.76.67-2.06,1.09-2.06,3.78v.34h1.34v5.08Zm5.92,0h-3.36v-5.08c0-3.95.88-5.29,3.4-5.96l.67,1.85c-1.76.67-2.06,1.09-2.06,3.78v.34h1.34v5.08Z"/><path class="cls-2" d="m374.39,2459.56h-.08l-.76,3.49h-1.97v-32.77h2.94v15.25h.04c1.26-2.31,4.08-4.03,7.69-4.03,6.3,0,9.66,3.99,9.66,11.01s-4.29,11.09-9.87,11.09c-3.78,0-6.55-1.64-7.65-4.03Zm14.37-6.89c0-7.18-3.4-8.61-6.93-8.61-4.24,0-7.56,2.73-7.56,8.44,0,6.01,3.44,8.57,7.44,8.57,3.02,0,7.06-1.47,7.06-8.4Z"/><path class="cls-2" d="m393.17,2439.48c1.76-.67,2.06-1.09,2.06-3.78v-.34h-1.34v-5.08h3.36v5.08c0,3.95-.88,5.29-3.4,5.96l-.67-1.85Zm5.92,0c1.76-.67,2.06-1.09,2.06-3.78v-.34h-1.34v-5.08h3.36v5.08c0,3.95-.88,5.29-3.4,5.96l-.67-1.85Z"/><path class="cls-2" d="m417.44,2457.25c0-3.95,2.23-6.09,7.86-6.09h6.34v-1.72c0-2.98-1.26-5.42-5.46-5.42-3.95,0-5.33,1.51-5.33,4.12v.88h-2.98v-.84c0-5,4.2-6.68,8.32-6.68,5.8,0,8.4,2.86,8.4,8.44v13.11h-2.06l-.55-2.98h-.08c-1.26,1.89-3.7,3.53-7.35,3.53-4.91,0-7.1-2.31-7.1-6.34Zm14.2-1.85v-1.76h-7.02c-2.65,0-4.03.92-4.03,3.61,0,2.35,1.26,3.86,4.5,3.86,4.16,0,6.55-2.14,6.55-5.71Z"/><path class="cls-2" d="m441.93,2442.05h2.6l.29,3.49c1.01-2.14,3.28-4.03,7.35-4.03,4.75,0,7.77,2.52,7.77,7.94v13.61h-2.94v-13.27c0-4.33-2.14-5.71-5.5-5.71-3.82,0-6.64,2.69-6.64,5.63v13.36h-2.94v-21Z"/><path class="cls-2" d="m465.62,2452.59c0-7.1,4.29-11.09,10.04-11.09,3.7,0,6.22,1.6,7.31,3.74h.04v-14.95h2.94v32.77h-1.97l-.67-3.61h-.08c-1.18,2.31-3.95,4.16-7.77,4.16-6.3,0-9.83-3.99-9.83-11.01Zm17.64-.5c0-5.5-3.36-8.07-7.35-8.07-3.11,0-7.14,1.47-7.14,8.4s3.61,8.61,7.14,8.61c4.24,0,7.35-2.73,7.35-8.95Z"/><path class="cls-2" d="m504.64,2440.75h-3.36v-5.08c0-3.95.88-5.29,3.4-5.96l.67,1.85c-1.76.67-2.06,1.09-2.06,3.78v.34h1.34v5.08Zm5.92,0h-3.36v-5.08c0-3.95.88-5.29,3.4-5.96l.67,1.85c-1.76.67-2.06,1.09-2.06,3.78v.34h1.34v5.08Z"/><path class="cls-2" d="m516.94,2442.05h2.39l.34,3.87h.08c1.13-2.48,4.03-4.41,7.86-4.41,6.3,0,9.66,3.99,9.66,11.01s-4.29,11.09-9.87,11.09c-3.78,0-6.38-1.6-7.44-3.7h-.08v11.55h-2.94v-29.41Zm17.18,10.63c0-7.18-3.4-8.61-6.93-8.61-4.24,0-7.56,2.73-7.56,8.44,0,6.01,3.44,8.57,7.44,8.57,3.02,0,7.06-1.47,7.06-8.4Z"/><path class="cls-2" d="m538.53,2439.48c1.76-.67,2.06-1.09,2.06-3.78v-.34h-1.34v-5.08h3.36v5.08c0,3.95-.88,5.29-3.4,5.96l-.67-1.85Zm5.92,0c1.76-.67,2.06-1.09,2.06-3.78v-.34h-1.34v-5.08h3.36v5.08c0,3.95-.88,5.29-3.4,5.96l-.67-1.85Z"/><line class="cls-10" x1="356.85" y1="1970.76" x2="356.85" y2="1836.7"/></g></svg>