<?xml version="1.0" encoding="UTF-8"?> <svg xmlns="http://www.w3.org/2000/svg" id="peannaireacht" viewBox="0 0 450 335"><defs><style>.cls-1{fill:#fff;}.cls-2{fill:#ececec;}.cls-3{fill:#bca5cf;}.cls-4{fill:#111035;}</style></defs><rect class="cls-1" x="-0.33" width="450" height="335"></rect><rect class="cls-2" x="-0.33" y="199.03" width="450" height="48.79"></rect><rect class="cls-2" x="-0.33" y="86.32" width="450" height="49.32"></rect><polygon class="cls-3" points="278.59 247.82 263.02 247.82 293.99 86.32 309.56 86.32 278.59 247.82"></polygon><path class="cls-4" d="M51.48,86.57a2.75,2.75,0,0,1,2.82,2.7A3,3,0,0,1,53.69,91L22.35,134.75a3,3,0,0,1-2.21,1.11,2.76,2.76,0,0,1-2.83-2.71,2.93,2.93,0,0,1,.61-1.72L49.26,87.68A3,3,0,0,1,51.48,86.57ZM33.65,199.15A2.83,2.83,0,0,1,31,196L49.26,89.27a2.91,2.91,0,0,1,2.83-2.45A2.83,2.83,0,0,1,54.79,90L36.48,196.69A2.89,2.89,0,0,1,33.65,199.15Zm30.48,0a2.84,2.84,0,0,1-2.7-3.19l15.49-92.67C78,96,75.32,91.86,70.16,91.86c-4.55,0-12.42,4.67-18.68,18.06a2.87,2.87,0,0,1-2.59,1.6,2.73,2.73,0,0,1-2.7-2.7,3.4,3.4,0,0,1,.25-1.23C53.81,92,63.52,86.32,70.16,86.32c8.72,0,13.89,7.38,12.17,18L67,196.69A2.89,2.89,0,0,1,64.13,199.15Zm84.93-64a2.76,2.76,0,0,1,2.83,2.7,3,3,0,0,1-.61,1.72l-33.68,47c-5.29,7.38-11.92,12.79-17.45,12.79-6.89,0-10.33-7.26-8.11-20.78l11.06-69.81c2-12.16-.62-16.83-5.78-16.83-4.67,0-11.8,5.65-14.87,12.16a2.68,2.68,0,0,1-2.46,1.6,2.78,2.78,0,0,1-2.83-2.83,2.92,2.92,0,0,1,.25-1.1c4.06-8.36,12.9-15.37,19.91-15.37,9.22,0,13.64,8.12,11.19,23.36L97.44,179.49c-1.72,10.32.25,14.25,2.71,14.25,3.07,0,8.23-3.81,13-10.44l33.68-47.08A3,3,0,0,1,149.06,135.12Zm23.48,41.54a2.7,2.7,0,0,1,2.58,3.69c-6,16.47-15.36,18.93-21.63,18.93-8,0-14.75-4.55-12.54-20.65l5.53-41.18a2.68,2.68,0,0,1,2.71-2.33,2.76,2.76,0,0,1,2.82,3.07l-5.65,41.17c-1.48,11.68,1.72,14.38,7.13,14.38,4.91,0,11.55-2,16.47-15.36A2.84,2.84,0,0,1,172.54,176.66Zm50.88-40.93a2.76,2.76,0,0,1,2.71,2.83,2.5,2.5,0,0,1-.5,1.6l-32.69,47.68c-5.77,8.36-10.57,11.44-15,11.44-7.13,0-9.34-10-8.11-19.06l5.89-42.77a2.68,2.68,0,0,1,2.71-2.33,2.76,2.76,0,0,1,2.82,3.07l-6,42.77c-.86,6.52.62,12.78,2.71,12.78s5.53-2,10.32-9.09L221.09,137A2.78,2.78,0,0,1,223.42,135.73ZM204.25,247.82a2.91,2.91,0,0,1-2.83-3.32l19.67-107a2.87,2.87,0,0,1,2.7-2.33,2.91,2.91,0,0,1,2.83,3.32L207,245.49A2.87,2.87,0,0,1,204.25,247.82Zm38.47-113.07c13.89,0,19.91,14,19.91,28.27,0,21.88-12.66,36.26-25.2,36.26-13.64,0-24.33-18.93-20.52-38.23C221,140.65,234.48,134.75,242.72,134.75Zm-5.29,59c9.1,0,19.67-11.79,19.67-30.72,0-12.29-4.67-22.74-14.38-22.74-6.52,0-17.09,4.79-20.4,21.76C219,178.38,228,193.74,237.43,193.74Zm-.86,2.71a2.63,2.63,0,0,1,2.58-2.71c19.67-1.1,22.5-5.53,30.36-16.83L299,134.5a3,3,0,0,1,2.21-1.1,2.78,2.78,0,0,1,2.83,2.82,4.06,4.06,0,0,1-.49,1.6L273.94,180.1c-7.75,11.19-11.68,17.82-34.54,19.18A2.86,2.86,0,0,1,236.57,196.45Zm64.16-54.33a2.78,2.78,0,0,1-2.83-2.82,4.11,4.11,0,0,1,.49-1.6L322.12,104c5.53-8,2.33-12.16-3.08-12.16-3.81,0-6,2-7.13,7.49l-20.15,97.47a2.75,2.75,0,1,1-5.41-1l20.16-97.71c1.59-7.74,5.9-11.8,12.53-11.8,9.22,0,16.23,8.48,7.5,20.9L302.94,141A3,3,0,0,1,300.73,142.12Zm-7.37,25.69a2.77,2.77,0,0,1,2.33-2.7,77.33,77.33,0,0,1,12.66-1.6c8.85,0,12.66,4.42,11.8,13.27-.12,2.09-.12,4.18-.12,5.9,0,7.75.86,11.06,4.79,11.06,5.53,0,8-3.19,11.92-9.71l20.9-33.92a2.83,2.83,0,0,1,5.16,1.48,2,2,0,0,1-.49,1.47L341.41,187c-4.18,6.76-8.11,12.3-16.59,12.3s-10.33-7.5-10.33-16.6c0-2,.13-4.05.25-6.39.37-5.65-1-7.25-6.39-7.25a70.39,70.39,0,0,0-11.68,1.48A2.89,2.89,0,0,1,293.36,167.81Zm.24-.61a2.84,2.84,0,0,1,2.71-2.83c15.73.25,24.95-10.32,24.95-18.19,0-3.93-2.22-5.9-5.41-5.9-5.16,0-12.66,6.51-15.61,16.35a2.93,2.93,0,0,1-2.7,2A2.72,2.72,0,0,1,295,155c3.57-12.05,13.15-20.28,20.9-20.28,5.9,0,10.94,4.06,10.94,11.43,0,10.69-11.43,24.09-30.48,23.72A2.73,2.73,0,0,1,293.6,167.2ZM382,179.12A2.78,2.78,0,0,1,384.8,182a4.45,4.45,0,0,1-.37,1.35c-6.88,11.67-14.63,16-19.79,16-8.6,0-12.66-11.07-12.66-24,0-21.26,10.57-40.93,31.1-40.93a37.88,37.88,0,0,1,5.41.49,2.89,2.89,0,0,1,2.33,2.71,2.86,2.86,0,0,1-3.2,2.82,27.68,27.68,0,0,0-4.54-.49c-16.59,0-25.57,16.35-25.57,35.4,0,11.06,3.08,18.43,7.13,18.43,3.2,0,9.22-3.44,15-13.27A2.89,2.89,0,0,1,382,179.12Zm42.89-30.73a2.76,2.76,0,0,1,2.83,2.71,3,3,0,0,1-.49,1.59c-3.19,4.43-6.27,9.22-9.46,13.89-10.82,15.73-21.14,32.7-29.5,32.7-5,0-10.33-6.4-8.48-19.06l5.9-42.52a2.67,2.67,0,0,1,2.7-2.34,2.78,2.78,0,0,1,2.83,3.08l-6,42.52c-1.23,8.73,1.72,12.78,3.07,12.78,4.42,0,14-14.25,24.83-30.35,3.19-4.67,6.39-9.47,9.58-13.89A3,3,0,0,1,424.86,148.39Z"></path></svg> 