<?xml version="1.0" encoding="UTF-8"?> <svg xmlns="http://www.w3.org/2000/svg" id="Layer_1" data-name="Layer 1" viewBox="0 0 450 335"><defs><style>.cls-1{fill:#fff;}.cls-2{fill:#ececec;}.cls-3{fill:#bca5cf;}.cls-4{fill:#111035;}</style></defs><rect class="cls-1" width="450" height="335"></rect><rect class="cls-2" y="199.03" width="450" height="62.05"></rect><rect class="cls-2" y="75.49" width="450" height="60.16"></rect><polygon class="cls-3" points="200.46 261.07 180.82 261.07 273.77 75.48 293.4 75.48 200.46 261.07"></polygon><path class="cls-4" d="M116.33,201.21c-16.84,0-16.09-15.72-12.35-26.94C91.63,189.8,77,201.21,61,201.21c-5.43,0-14.41-1.69-19.46-5.61a3,3,0,1,1,3.74-4.68,1.5,1.5,0,0,0,.56.75,29.73,29.73,0,0,0,14.78,3.55c26.57,0,50.52-36.67,66.42-68.47l17-33.87a2.62,2.62,0,0,1,3.92-1.12,3,3,0,0,1,1.5,3.93l-37,73.9c-10.1,20.21-2.25,25.82,3.74,25.82,21.89,0,31.06-7.86,39.47-18.9,2.44-3.18,7.11.38,4.87,3.56C148.88,195.41,133,201.21,116.33,201.21ZM202.2,82.59a46.11,46.11,0,0,1-29.93,10.67,65.24,65.24,0,0,1-17.78-2.06,75.43,75.43,0,0,1-11.6-4.12c-9.54-4.11-15.34-5.61-25.63-5.61-13.84,0-40.6,8.61-39.1,26.57A9.82,9.82,0,0,0,81.9,115c1.5,1.31,1.69,3,.56,4.12-.93,1.12-2.62,1.12-4.11,0-1.12-1.13-2.25-2.44-3.37-3.75A16.06,16.06,0,0,1,72.55,108c-2.06-22.83,28.81-32.55,44.34-32.55,11.22,0,17.77,1.87,28.06,6.17a50.85,50.85,0,0,0,10.66,3.93,61.85,61.85,0,0,0,16.28,1.87c9.54,0,21.89-3.74,28.06-10.85,1.31-1.69,3.19-1.12,4.31-.19a2.76,2.76,0,0,1,.18,4.12A29.68,29.68,0,0,0,202.2,82.59Z"></path><path class="cls-4" d="M207.25,201c-9,0-10.48-6.36-8.79-13.47C192.1,194.47,184.05,201,176.19,201c-16.83,0-16.65-13.1-12.72-25.07-1.12,1.5-2.06,2.81-3,4.12-2.43,3.18-7.3-.56-4.87-3.74,12.54-16.28,26.57-41,50.14-41.16,7.49,0,11.79,1.87,15,4.3l1.31-2.62c1.87-3.74,7.11-.94,5.24,2.81-1.31,2.8-22.45,41.9-23.58,51.63-.18,2.25.94,3.74,3.56,3.74,11.6,0,19.46-10.85,26-18.7,2.44-3.19,7.11.56,4.68,3.74C229.89,189.8,220.53,201,207.25,201Zm10.66-55.94c-3.36-3.37-7.67-3.93-12.16-3.93-11.78,0-22.82,8.42-31.05,23.39C171,171.65,158.79,195,176.19,195c11.42,0,28.63-23.76,33.3-33.11Z"></path><path class="cls-4" d="M271.23,140.22l-16.46,19.83-3.18,6.36c-3.18,6.17-11.79,28.81,3,28.81,11.6,0,20.77-10.29,28.06-18.89,2.44-3,7.11.74,4.49,3.92-8.41,10.11-19.27,21-32.55,21-15.34,0-15.71-13.85-12.72-25.63l-3.93,4.67c-2.43,3-7.11-.93-4.49-3.92l16.28-19.46,25.07-50.14c4.49-9,12.91-31.24,24.69-31.24,13.47,0,10.67,11.41,5.8,20C299.48,105.79,287.32,121,271.23,140.22Zm28.25-58.75c-7.29,0-16.46,22.27-19.27,27.88l-13.66,27.31.19-.18c3-3.75,38.35-44.34,36.67-53.51C303.22,81.47,300.61,81.47,299.48,81.47Z"></path><path class="cls-4" d="M336.52,192.23c9,18.89-19.27,68.85-35.73,68.85-15.9,0,1.5-30.31,3.37-34l18-36.11c-5.8,5.61-12.35,10.29-18.9,10.29-17,0-16.65-13.29-12.91-25.45-.93,1.5-2.06,3-3,4.31-2.43,3.18-7.3-.38-4.87-3.56,12.73-16.65,26.38-41,50.14-41.16,7.49-.18,11.79,1.69,15,4.31l1.31-2.62a3,3,0,1,1,5.43,2.62l-22.83,46c9.17,2.06,16.28-.56,22.64-9.17a2.94,2.94,0,1,1,4.68,3.56C352.43,188.49,345.13,192.42,336.52,192.23Zm8.23-47.15c-3.55-3.55-8-3.74-12.72-3.74-11.6-.19-22.45,8.61-30.31,23.39-3.74,6.92-16.09,30.49,1.5,30.49,11.41,0,28.25-23.95,32.93-33.3ZM309.4,229.83c-.75,1.69-10.86,21.52-9.36,25.26h.75c11.22,0,42.84-52,27.69-63.42Z"></path><path class="cls-4" d="M369.82,201.21c-22.07,0-16.46-26.76-10.85-39.1,9.92-22.83,16.65-27.88,27.88-27.88,11.6,0,11,11.6,3.55,19.27-7.11,7.11-15.15,13.28-23.2,20.39-3,2.62-5.8,5.24-7.11,6.55-1.12,8.05.38,14.78,9.73,14.78,9.17,0,17.21-7.11,26.57-18.89,2.43-3,7.11.74,4.68,3.74C393.77,189.23,382.92,201.21,369.82,201.21Zm16.65-61.74c-7.85,0-12.9,2.81-22.63,25.07a46,46,0,0,0-2.81,7.29c20.58-17.39,28.25-23.57,28.62-28.81A3.06,3.06,0,0,0,386.47,139.47Z"></path></svg> 