<?xml version="1.0" encoding="UTF-8"?> <svg xmlns="http://www.w3.org/2000/svg" id="Layer_1" data-name="Layer 1" viewBox="0 0 450 335"><defs><style>.cls-1{fill:#fff;}.cls-2{fill:#ececec;}.cls-3{fill:#bca5cf;}.cls-4{fill:#111035;}</style></defs><rect class="cls-1" y="0.17" width="450" height="335"></rect><rect class="cls-2" y="199.03" width="450" height="57.03"></rect><rect class="cls-2" y="81.65" width="450" height="53.99"></rect><polygon class="cls-3" points="243.63 256.06 225 256.06 308.27 81.65 326.9 81.65 243.63 256.06"></polygon><path class="cls-4" d="M37,194.57A269.24,269.24,0,0,0,56.3,159.45h-1c-9.75,0-14.95-4-14.95-11.09,0-9.41,11.86-17.64,25.18-17.64h2c2.6-8.41,4.06-16.3,4.06-22.86C71.57,95.43,67.83,89,61.34,89,52.89,89,43,99.13,34.54,116.43a3.62,3.62,0,1,1-6.5-3.19c9.75-20,21.77-31.59,33.3-31.59,11,0,17.38,9.75,17.38,26.21,0,6.89-1.46,15.13-4.06,23.86a29,29,0,0,1,12.18,5.88c16.08-12.93,31.83-33.1,40.44-53.6a3.55,3.55,0,0,1,3.25-2.35,3.61,3.61,0,0,1,3.25,5.21c-9.1,21.84-25.18,42.85-42.23,56.46a25.3,25.3,0,0,1,3.08,12.26c0,7.4-3.89,17.31-3.89,24,0,8.74,4.38,12.44,15.59,12.44,6.82,0,11.86-1.69,17.54-4,4.22-1.68,7.15,5.21,2.6,7.06-6,2.35-12.34,4.37-20.14,4.37-14.94,0-22.74-6.72-22.74-19.83,0-7.22,3.9-18.15,3.9-24a18.07,18.07,0,0,0-1.79-7.89c-7.15,5-14.13,8.57-21,10.41a283.55,283.55,0,0,1-21.93,40.67,3.4,3.4,0,0,1-2.92,1.68A3.77,3.77,0,0,1,37,194.57Zm22.91-42.85c1.94-4.54,3.73-9.08,5.19-13.61-9.09.17-17.54,5.37-17.54,10.25,0,2,1.79,3.7,7.8,3.7A21.3,21.3,0,0,0,59.88,151.72Zm20.95-9.58a23.15,23.15,0,0,0-8.45-3.36c-1.14,3.36-2.27,6.72-3.73,10.25A69.27,69.27,0,0,0,80.83,142.14Z"></path><path class="cls-4" d="M158.3,196.75a5.12,5.12,0,0,1,.33-1.51c15.11-34.28,17.54-39.82,17.54-46.38,0-4.7-1.14-6.22-3.9-6.22-4.71,0-8.28,4-16.24,18.82-6.5,12.27-14.62,27.56-29.56,33.61-6,2.35-12.35,4.37-20.14,4.37-4.87,0-4.39-7.39,0-7.39,6.82,0,11.86-1.69,17.54-4l.33-.17c12.34-4.87,19.16-17.64,25.5-29.9,5.68-11.1,12.18-22.69,22.57-22.69,6.66,0,10.72,4.71,11,12.77,5.85-7.56,12.34-12.1,19.65-12.1,8,0,12.18,5,12.18,14.29,0,4-2.59,9.57-5.36,14.95-3.57,6.89-7,14.28-7,20.33,0,4.2,2.6,6.56,7.47,6.56,6.82,0,11.86-1.69,17.54-4,4.23-1.68,7.15,5.21,2.6,7.06-6,2.35-12.34,4.37-20.14,4.37-8.77,0-14.62-5.55-14.62-13.95,0-7.89,4.23-16.47,7.8-23.69s4.55-9.91,4.55-11.59c0-5.38-1.3-6.89-5-6.89-6.66,0-13,5-20.46,18.14-5.69,9.92-12.67,25.54-17.38,36.8a3.39,3.39,0,0,1-3.25,2.19A3.57,3.57,0,0,1,158.3,196.75Z"></path><path class="cls-4" d="M258.85,196.92a6.16,6.16,0,0,1,.32-1.68C270.38,169.36,274.6,157.1,274.6,148c0-4-1-5.38-3.25-5.38-4.06,0-6.82,4-13,18.82-5.2,12.27-13,27.56-27.94,33.61-6,2.35-12.34,4.37-20.14,4.37-4.87,0-4.39-7.39,0-7.39,6.82,0,11.86-1.69,17.54-4l.33-.17c12.34-4.87,19-17.64,23.87-29.9,4.39-11.26,10.07-22.69,19.33-22.69,6.82,0,10.4,4.87,10.4,12.77a34.52,34.52,0,0,1-.65,6.72c7.63-10.92,14.13-16.8,21.11-20a4.17,4.17,0,0,1,2-.51c2.11,0,3.41,2,3.41,3.87a3.5,3.5,0,0,1-1.46,2.85c-1.95,1.85-2.76,3.7-2.76,5.38,0,3.7,3.9,5.38,16.57,5.38,10.23,0,21.76-3.36,35.57-9.75a2.89,2.89,0,0,1,1.62-.33,3.56,3.56,0,0,1,3.74,3.52,4.12,4.12,0,0,1-2.11,3.37c-14.95,6.55-27.45,10.58-38.82,10.58-15.43,0-23.72-3.69-23.72-11.26V147c-8.93,8.74-16.89,22.52-30.53,51.25a3.54,3.54,0,0,1-6.82-1.34Z"></path><path class="cls-4" d="M315,243.29c0-16.3,17.71-46.88,33.46-73.09l.33-.5c1.62-7.73,3.09-15.8,4.71-25a3.69,3.69,0,0,1,3.57-3c2.76,0,3.9,3,3.58,4.53l-1.63,8.41c9.59-12.61,18.84-19.33,27-19.33,8.45,0,14,6.39,14,16,0,16.13-8.44,32.43-19.33,40.84h10.08c6.82,0,11.85-1.69,17.54-4,4.22-1.68,7.14,5.21,2.6,7.06-6,2.35-12.35,4.37-20.14,4.37-16.73,0-28.27,0-39-6.39-10.07,52.26-14.13,63-25.34,63C319.11,256.06,315,251.53,315,243.29ZM344.61,191c-12,20.83-22.42,41-22.42,52.25,0,4.2,1,5.38,4.22,5.38C331.94,248.67,335,239.26,344.61,191Zm48.24-39.83c0-5.54-2.44-8.57-6.83-8.57-7.95,0-18.84,10.76-30.53,30.08L353.21,185c3.09,2.85,8.45,5.21,12.35,5.21C378.88,190.2,392.85,170,392.85,151.21Z"></path></svg> 