<?xml version="1.0" encoding="UTF-8"?> <svg xmlns="http://www.w3.org/2000/svg" id="Layer_1" data-name="Layer 1" viewBox="0 0 450 335"><defs><style>.cls-1{fill:#fff;}.cls-2{fill:#ececec;}.cls-3{fill:#bca5cf;}.cls-4{fill:#111035;}</style></defs><rect class="cls-1" width="450" height="335"></rect><rect class="cls-2" y="199.03" width="450" height="65.21"></rect><rect class="cls-2" y="70.91" width="450" height="64.73"></rect><polygon class="cls-3" points="349.34 264.24 330.71 264.24 413.58 70.91 432.22 70.91 349.34 264.24"></polygon><path class="cls-4" d="M55.53,162.74l-14.5,35a3.41,3.41,0,0,1-3.29,1.93c-2.13,0-4.06-2.32-3.09-4.45l14.3-35c16.63-40.6,22.82-55.88,22.82-69.6,0-8.9-3.68-13-11.22-13-7.34,0-15.66,3.68-22.42,10.25-7.16,7-11.41,15.66-11.41,24.36,0,5.61,2.71,9.09,7,9.09,6.57,0,10.83-7.54,15.85-28.42.39-1.74,1.74-2.32,3.29-2.32,1.93,0,3.87,1.35,3.29,3.86-2.9,11.8-5.42,19-8.12,24-3.68,6.38-8.32,9.66-14.31,9.66A12.56,12.56,0,0,1,24,123.88c-2.7-2.9-4.06-7-4.06-11.6A37.16,37.16,0,0,1,23.82,96a44.46,44.46,0,0,1,9.67-13c7.92-7.74,18-12.18,27.06-12.18,4.45,0,8.12.77,11,2.9q7,5.22,7,16.82A75.36,75.36,0,0,1,76,108c9.47-16,25.91-37.12,47-37.12,10.63,0,17.79,6.57,17.79,19.33,0,20.11-26.1,67.09-26.1,88.93,0,8.13,1.93,13.73,7,13.73,7.15,0,16.62-7.73,29.58-23.59l7.34-9.08a4,4,0,0,1,2.91-1.55,2.94,2.94,0,0,1,3.09,3.09,5.22,5.22,0,0,1-1.36,3.29l-7.34,9.09c-10.64,13.34-24,25.52-34.22,25.52s-13.73-10.06-13.73-20.5c0-21.84,26.1-71.14,26.1-88.93,0-7.93-3.87-12.57-11-12.57C97.48,77.67,73.7,118.85,55.53,162.74Z"></path><path class="cls-4" d="M188.35,141.09c0,3.48-.19,7.73-.58,12.57,9.48-11,19.14-18.37,27.46-18.37,9.47,0,14.69,7.34,14.69,16.63,0,18.36-16.43,35.38-30.35,40.4,11,0,28-5.41,42.34-23l7.34-9.08a4,4,0,0,1,2.9-1.55,2.94,2.94,0,0,1,3.1,3.09,5.26,5.26,0,0,1-1.35,3.29l-7.35,9.09c-17,21.07-34.61,25.33-65.74,25.52-6.76,32.48-18,64.57-31.9,64.57-7.15,0-10.44-4.64-10.44-13,0-13.15,19.34-57.42,41.18-87.19,1-8.71,1.74-16.24,1.74-21.85-3.67,5.61-10.82,13.53-18.17,22.81l-7.35,9.09a4,4,0,0,1-2.9,1.55,2.94,2.94,0,0,1-3.09-3.1,5.28,5.28,0,0,1,1.35-3.29l7.35-9.08c11.79-14.5,19.14-24.94,25.13-24.94C187.19,135.29,188.35,137,188.35,141.09Zm-10.82,37.7c-17.4,27.45-32.29,61.87-32.29,72.5,0,4.25,1,6.19,3.67,6.19C159.74,257.48,171.53,214.36,177.53,178.79Zm8.89-13.15c-1,8.32-2.32,17.21-4.06,26.49,14.89-2.52,40.79-19.92,40.79-39.83,0-7.73-4.44-10.25-7.92-10.25C206.91,142.05,196.67,151.92,186.42,165.64Z"></path><path class="cls-4" d="M316.15,138.57c0,13.15,3.1,15.86,8.7,15.86,7.16,0,18.37-4.26,24.17-7.16l6-3.09a7.31,7.31,0,0,1,3.1-1,3,3,0,0,1,3.28,3.09,3.26,3.26,0,0,1-1.93,2.9l-6,3.09c-8.51,4.45-19.53,8.9-28.62,8.9-11,0-15.46-7.35-15.66-16.83-12.18,8.51-26.29,32.1-37.89,51.43-1.35,2.32-2.52,3.87-4.64,3.87s-2.9-1.35-2.9-3.09c0-2.52,2.9-8.9,4.06-11.41,5.22-10.63,13.92-29.78,13.92-38.86,0-3.09-1.35-4.26-3.29-4.26-5.41,0-15.27,11.41-24.55,23l-7.35,9.09a4,4,0,0,1-2.9,1.55,2.94,2.94,0,0,1-3.09-3.1,5.28,5.28,0,0,1,1.35-3.29l7.35-9.08c8.5-10.44,20.11-24.94,29.19-24.94,7.35,0,10.83,4.06,10.83,11,0,5.41-2.13,11.41-5,17.59,9.48-15.08,21.08-28.61,29.39-28.61C315.77,135.29,316.15,136.64,316.15,138.57Z"></path><path class="cls-4" d="M374.55,192.9c5.6,0,13.72-7.73,26.68-23.59l7.34-9.08a4,4,0,0,1,2.9-1.55,3,3,0,0,1,3.1,3.09,5.22,5.22,0,0,1-1.36,3.29l-7.35,9.09c-10.63,13.34-21.07,25.52-31.31,25.52-6,0-10.83-3.29-10.83-9.47a36.57,36.57,0,0,1,1.54-7.93c-8.89,13.53-18.56,17.4-24.94,17.4-7.54,0-14.5-3.87-14.5-16.63,0-9.86,6.58-21.27,18.37-31.12a74.73,74.73,0,0,1,20.69-12.77,44.72,44.72,0,0,1,16.82-3.86h1.35l14.89-34.61,11.79-27.45A3.3,3.3,0,0,1,413,70.91c1.93,0,4.25,1.54,3.09,4.44l-12,27.84c-7,16.63-33.45,74.05-33.45,84.49C370.68,190.78,371.45,192.9,374.55,192.9Zm5.79-50.85c-9.08.58-21.46,6.19-31.7,14.89A59.38,59.38,0,0,0,337,170.09c-2.9,4.64-4.45,8.89-4.45,12.95,0,4.64,1.35,9.86,7.73,9.86,13,0,29-24.17,34.8-38.28Z"></path></svg> 