<?xml version="1.0" encoding="UTF-8"?> <svg xmlns="http://www.w3.org/2000/svg" id="Layer_1" data-name="Layer 1" viewBox="0 0 450 335"><defs><style>.cls-1{fill:#fff;}.cls-2{fill:#ececec;}.cls-3{fill:#bca5cf;}.cls-4{fill:#111035;}</style></defs><rect class="cls-1" width="450" height="335"></rect><rect class="cls-2" y="199.03" width="450" height="92.93"></rect><rect class="cls-2" y="39.9" width="450" height="95.74"></rect><polygon class="cls-3" points="262.74 291.96 244.1 291.96 336.81 39.9 355.44 39.9 262.74 291.96"></polygon><path class="cls-4" d="M87.06,196.9a3.08,3.08,0,0,1,3,3,3.34,3.34,0,0,1-.81,2.09C70,222.82,37.09,258.37,37.09,281.5c0,5.11,1.28,7.55,4.88,7.55,5.46,0,9.88-4.3,16-18.71,8.13-18.94,31.38-87.85,49.5-133.17.24-.58,5.35,1.74,5.12,2.32C96.59,176,77.88,200,50.46,200c-16.62,0-34-12.2-34-46,0-56.36,49.27-114.12,86.34-114.12,15.69,0,32.31,6.51,33.93,29.06a3,3,0,0,1-6,.46C129.36,51.18,116.69,46,102.75,46,69.4,46,22.45,100.8,22.45,154c0,29.87,14.18,40,28,40,23.93,0,41-21.49,56.59-56.82a3.24,3.24,0,1,1,6,2.32c-18.13,45.09-41.37,114-49.5,133.18C56.73,288.94,50.69,295.1,42,295.1c-7.67,0-10.92-6.05-10.92-13.6,0-25.91,34.4-62.75,53.8-83.67A3.19,3.19,0,0,1,87.06,196.9ZM136,200A3,3,0,0,1,133.2,196l16.73-45.9c2.79-7.9,2.56-8.72,1.63-8.72-4.65,0-23.24,20.46-41,38-8.14,8.14-15.34,15-19.76,18.71a3.28,3.28,0,0,1-2,.82,3,3,0,0,1-3-3,2.91,2.91,0,0,1,1-2.32c4.18-3.6,11.39-10.34,19.52-18.36,17.55-17.55,36.84-39.86,45.21-39.86,5.34,0,8.6,4.18,3.95,16.85l-16.74,45.9A3,3,0,0,1,136,200Zm100.4-49.62a3,3,0,0,1,3.14,3,2.91,2.91,0,0,1-.93,2.09c-9.88,10-44,44.51-58.92,44.51-6.39,0-9.53-5.46-6.39-15.69,1-3.72,6.27-17.66,10.92-30.56.81-2.44,3.72-12.44-4.53-12.44-9.18,0-18.83,9.65-28.94,24.17a3.42,3.42,0,0,1-2.55,1.28,3.07,3.07,0,0,1-3-3,2.82,2.82,0,0,1,.58-1.74c10.57-15.11,21.73-26.73,33.93-26.73,15.69,0,11.15,17.9,10.11,20.57-4.65,12.9-9.65,26.61-10.69,30.1-1.86,6.16-1.28,8,.58,8,11.62,0,44.74-32.88,54.62-42.76A3.34,3.34,0,0,1,236.39,150.42Zm22.89-15.11c8.6,0,15.22,6.62,15.22,20.34,0,23.59-19.05,44.39-34.39,44.39-9.53,0-15-7.44-15-20.34C225.12,154.83,244.76,135.31,259.28,135.31ZM240.11,194c11.85,0,28.35-18,28.35-38.34,0-10.23-4.07-14.3-9.18-14.3-11,0-28.12,17-28.12,38.35C231.16,189.46,234.3,194,240.11,194Zm81-62.4A2.88,2.88,0,0,1,324,134.5a2.73,2.73,0,0,1-.93,2.09c-7.67,6.86-20.34,17.43-32.31,17.43-9.64,0-19.29-2.91-25.68-10.34a3.19,3.19,0,0,1-.7-2,2.88,2.88,0,0,1,2.91-2.9,2.72,2.72,0,0,1,2.21,1c5.11,6.16,12.9,8.6,21.26,8.6,9.65,0,21-9.53,28.48-16.15A2.6,2.6,0,0,1,321.1,131.59Zm60.9,50.2a3,3,0,0,1,3,3,3.06,3.06,0,0,1-1.16,2.32C374.79,194.34,366,200,360,200s-8.94-6.39-5.57-15.92c14.06-39.4,35.9-102.26,44.15-121.9,6.86-15.81,12.67-22.32,21.85-22.32,9.41,0,13.13,8.25,13.13,16,0,14.29-12.08,31.26-23.7,45.79-11.16,13.94-19.76,22.66-31.61,34.51l-2.09,2.09c-23.83,23.94-50.44,44.63-67.75,26.26a3,3,0,0,0,4.88-3.13c2.79,6.74,3.83,18,3.83,29.51,0,39.4-13.24,101-34.39,101-9.42,0-12.79-7.09-12.79-15.57,0-15.57,10.35-40.33,14.88-53,10.8-30.33,26.14-72.52,37.65-102.15,9.06-25.22,17.43-48.34,21.85-59C351.2,46.41,357,39.9,366.19,39.9c9.42,0,13.13,8.25,13.13,16,0,14.29-12.08,31.26-23.7,45.79-10.58,13.36-17.78,22.08-33.47,36.83a3.32,3.32,0,0,1-2.09.82,3.08,3.08,0,0,1-3-3,3.17,3.17,0,0,1,.93-2.21c15.45-14.53,22.42-22.89,33-36.14,11.39-14.3,22.31-29.87,22.31-42.07,0-5.69-2.09-10-7.09-10-5.92,0-10.11,4.41-16.27,18.59-4.41,10.46-12.78,33.58-21.84,58.8-11.51,29.63-26.85,71.82-37.65,102.15C285.89,238.15,276,262,276,276.39c0,6.27,1.62,9.53,6.74,9.53,14.64,0,28.35-56.6,28.35-95,0-11.15-.93-21.26-3.37-27.07a37.06,37.06,0,0,1,5.11-3.49c13.25,14.18,35.8-3,59.15-26.26l2.1-2.09c11.85-11.86,20.22-20.34,31.14-34,11.39-14.3,22.31-29.87,22.31-42.07,0-5.69-2.09-10-7.09-10-5.92,0-10.11,4.41-16.27,18.59C395.94,84,374.33,146.81,360,186.21c-1.74,5-1,7.78,0,7.78,4,0,11.62-4.88,20.11-11.62A3.26,3.26,0,0,1,382,181.79Z"></path></svg> 