<?xml version="1.0" encoding="UTF-8"?> <svg xmlns="http://www.w3.org/2000/svg" id="Layer_1" data-name="Layer 1" viewBox="0 0 450 335"><defs><style>.cls-1{fill:#fff;}.cls-2{fill:#ececec;}.cls-3{fill:#bca5cf;}.cls-4{fill:#111035;}</style></defs><rect class="cls-1" width="450" height="335"></rect><rect class="cls-2" y="199.03" width="450" height="61.94"></rect><rect class="cls-2" y="73.89" width="450" height="61.75"></rect><polygon class="cls-3" points="148.67 260.97 130.64 260.97 179.66 73.89 197.69 73.89 148.67 260.97"></polygon><path class="cls-4" d="M129.25,189.09c0,5.3-11,10-16.65,10C95.2,199.12,92,187.58,92,170.55c0-9.45.75-22.51,1.7-35.75H75.91L46.59,185.5c-.19.75-8,13.62-22.32,13.62-15.51,0-15.89-14.76-15.89-17a4.73,4.73,0,0,1,4.73-4.92c8.51,0,.18,12.49,11.16,12.49,8.89,0,14.18-8.7,14.18-8.7l26.67-46.35c-13.24,0-15.13.19-15.13-4.91A4.85,4.85,0,0,1,54.91,125c4.35,0,9.84.19,15.51.19L99.55,74.65a4.43,4.43,0,0,1,4-2.46,5.35,5.35,0,0,1,5.1,5.11v.56c-1.51,13.81-3.21,31-4.73,47.48,8.7.19,15.52-.56,18.35-.56s5.3,1.7,5.3,4.72c0,6.06-7,5.3-24.4,5.3-1.14,14.38-1.9,27.81-1.9,36.32,0,15.51,3.6,18.54,10.6,18.54,5.11,0,9.46-5.3,12.67-5.3a4.54,4.54,0,0,1,4.73,4.73ZM94.44,125.34c.76-9.83,1.71-19.29,2.65-27.61L81.2,125.34Z"></path><path class="cls-4" d="M155.36,187.77a3.33,3.33,0,0,0,3.6,3.4c2.46,0,5.86-1.32,10.4-4.73a6.36,6.36,0,0,1,3-.94,4.64,4.64,0,0,1,4.54,4.73c0,5.29-12.11,10.4-18.54,10.4-7.76,0-12.49-5.49-12.49-13.62,0-2.65,1.52-8.13,4.73-21.19-7,9.65-15.51,20.43-24.4,28a5.31,5.31,0,0,1-3,1.32,4.84,4.84,0,0,1-4.91-4.72,4.65,4.65,0,0,1,1.7-3.6c19.48-17,38-50.32,38.21-50.5a.66.66,0,0,1,.19-.38L173.71,77.3A4.73,4.73,0,0,1,183,78.62a2.41,2.41,0,0,1-.19,1.14L156.5,180.2A26.13,26.13,0,0,0,155.36,187.77Z"></path><path class="cls-4" d="M273.59,190.79a4.79,4.79,0,0,1-1.7,3.79c-1.7,1.51-8.14,6.24-13.62,6.24-9.84,0-14.38-7-14.38-16.27,0-11.16,6.05-24,6.05-36.13,0-2.65-1.7-4.54-5.1-4.54-7.38,0-22.32,1.89-38.78,31.4l-5.86,20.43a4.66,4.66,0,0,1-4.54,3.41,4.8,4.8,0,0,1-4.73-4.73,3.23,3.23,0,0,1,.19-1.33l5.48-18.91v-.38a8.49,8.49,0,0,1,.57-2.08l1.32-3.78c-6.81,9.08-14.75,18.91-23.07,26.1a4.84,4.84,0,0,1-7.95-3.59,5,5,0,0,1,1.7-3.41c18.16-15.89,35.38-43.7,37.84-48.24.56-2.08,2.64-3,4.72-3,3.22,0,5.3,2.84,4.17,6.43l-2.46,8.51c13.05-13.62,24.21-16.27,31.4-16.27,9.27,0,14.56,4.35,14.56,14.38,0,11-6,24.59-6,35.94,0,3.22-.19,6.81,5.11,6.81,2.46,0,7.56-5.3,10.4-5.3a5.26,5.26,0,0,1,3.78,1.52A4.73,4.73,0,0,1,273.59,190.79Z"></path><path class="cls-4" d="M309.92,152.2c13.62-15.13,26.29-17.78,33.86-17.78,9.08,0,13.62,4.17,13.62,14.19,0,11.16-5.68,24.78-5.68,35.94,0,3.22.38,6.81,5.3,6.81,3.21,0,7.37-5.3,10.21-5.3a4.73,4.73,0,0,1,3.78,1.71,4.14,4.14,0,0,1,.95,3,4.68,4.68,0,0,1-1.7,3.6c-1.7,1.51-7.95,6.24-13.43,6.24-10,0-14.57-6.81-14.57-16.08,0-11.16,5.68-24,5.68-36.13,0-3-1.7-4.73-4.16-4.73-7.57,0-23.08,1.89-39.92,32.54l-20.62,81.15A5,5,0,0,1,278.7,261a4.58,4.58,0,0,1-4.73-4.73,2.39,2.39,0,0,1,.19-1.13l22.7-89.29c-7,9.84-15.51,20.43-24.4,28a4.55,4.55,0,0,1-7.75-3.4,4.65,4.65,0,0,1,1.7-3.6c18-15.7,34.62-43.51,37.26-48a4.72,4.72,0,0,1,4.73-3c3.22,0,5.11,2.84,4.35,6.43Z"></path><path class="cls-4" d="M389.18,182.28c-14.57,9.08-20.43,14.57-22.32,14.57-2.46,0-4.73-3.6-4.73-6.06,0-3,3.21-3.78,22.13-16.64-1.89-4.16-1.7-7.19-1.7-11.35,0-17.41,15.32-28.38,29.88-28.38,11.73,0,13.25,7.38,13.25,11.54,0,12.68-11.16,16.27-29.32,30.46,7.94,10.21,18.72,14.56,24.21,14.56a19,19,0,0,0,11.92-4.35,4,4,0,0,1,3.21-1.13,4.48,4.48,0,0,1,4.54,4.54c0,4.35-9.08,10.21-19.67,10.21C412.44,200.25,398.07,195,389.18,182.28ZM392,162.8c0,2.08-.56,3,0,5.29,11.92-9.83,24.22-15.89,24.22-22.32,0-1.32-1.14-1.89-4-1.89C403.18,143.88,392,149.93,392,162.8Z"></path></svg> 