<?xml version="1.0" encoding="UTF-8"?> <svg xmlns="http://www.w3.org/2000/svg" id="Layer_1" data-name="Layer 1" viewBox="0 0 450 335"><defs><style>.cls-1{fill:#fff;}.cls-2{fill:#ececec;}.cls-3{fill:#bca5cf;}.cls-4{fill:#111035;}</style></defs><rect class="cls-1" width="450" height="335"></rect><rect class="cls-2" y="199.03" width="450" height="55.25"></rect><rect class="cls-2" y="75.69" width="450" height="59.96"></rect><rect class="cls-3" x="218.43" y="75.69" width="18.64" height="178.59"></rect><path class="cls-4" d="M75.1,200.92a3.92,3.92,0,0,1-4-4V72.63a4,4,0,1,1,8,0V196.92A3.92,3.92,0,0,1,75.1,200.92Zm83.44-29.81a3.92,3.92,0,0,1,3.86,4.12c-.53,14.51-4.66,25.69-17.7,25.69-10,0-14.91-10-20.9-34.07C118.88,147,114,127.59,96.39,127.59c-6,0-6.92,1.73-6.92,3.72,0,3.86,4.92,5.73,12.11,5.73,16.37,0,31.94-10.52,31.94-30.61,0-17.57-11.58-28.88-26-28.88-8.78,0-19,4.26-28.35,14.11a4.51,4.51,0,0,1-2.93,1.19,4,4,0,0,1-4-4,4.28,4.28,0,0,1,1.07-2.79c10.91-11.45,23.29-16.5,34.2-16.5,18.63,0,33.93,14.77,33.93,36.86,0,25.42-20.09,38.59-39.92,38.59-9.85,0-20.1-3.59-20.1-13.71,0-4.39,2.4-11.71,14.91-11.71,24,0,30.21,25.29,35.13,45.38,5.46,21.83,9.19,28,13.18,28,6.92,0,9.45-6.25,9.85-18A3.89,3.89,0,0,1,158.54,171.11Zm36.06-3.46a4,4,0,0,1,4,4,2.59,2.59,0,0,1-.27,1.46c-7.85,19.83-18,27.15-26.88,27.15s-16.77-7.59-16.9-18.63l-.4-43.25a4.09,4.09,0,0,1,4-4,3.92,3.92,0,0,1,4,4l.4,43.25c.13,6.52,4.26,10.65,8.92,10.65,5.32,0,12.91-5.46,19.56-22.1A3.89,3.89,0,0,1,194.6,167.65Zm42.32,86.63a3.92,3.92,0,0,1-4-4V103.63c0-20.36,3.06-27.94,13.18-27.94,7.85,0,11.31,7.72,11.31,16,0,24-30.88,108.59-53.23,108.59-7.72,0-13.05-7.19-13.18-18.63l-.4-43.25a4.09,4.09,0,0,1,4-4,3.92,3.92,0,0,1,4,4l.39,43.25c.14,7.45,2.67,10.65,5.2,10.65,14.37,0,45.24-78.79,45.24-100.61,0-4.4-1.06-8-3.32-8-3.86,0-5.19,3.86-5.19,20V250.29A3.93,3.93,0,0,1,236.92,254.28Zm33.27-111.65a4,4,0,0,1,4,4,3.62,3.62,0,0,1-.94,2.66l-42.05,49a3.52,3.52,0,0,1-2.93,1.47,4,4,0,0,1-4-4,3.67,3.67,0,0,1,.93-2.67l42.06-49A3.51,3.51,0,0,1,270.19,142.63Zm0,7.85a4,4,0,0,1-4-4,4.21,4.21,0,0,1,1.07-2.67c4.65-5,9.44-8.78,14.1-8.78,7.72,0,13,7.19,13.18,18.63l.4,43.25a4.11,4.11,0,0,1-4,4,3.92,3.92,0,0,1-4-4l-.4-43.25c-.13-7.45-2.66-10.64-5.19-10.64-1.6,0-4.52,2.12-8.12,6.12A3.84,3.84,0,0,1,270.19,150.48Zm87.17,28.88a4,4,0,0,1,4,4,4,4,0,0,1-1.06,2.79c-5.06,5.19-13.31,14.11-22.49,14.11-8.52,0-13.71-9.71-14.24-18.37l-.4-6.12L323,153.67c0-6.52-4.26-10.64-8.92-10.64-5.59,0-13.31,4.39-19.56,20.89a4.07,4.07,0,0,1-3.73,2.66,4,4,0,0,1-4-4,5,5,0,0,1,.26-1.47c7.59-20.22,18.37-26.08,27-26.08,8.92,0,16.9,7.59,16.9,18.63l.13,21.83.4,5.85c.27,5.33,3.2,10.92,6.26,10.92,5.59,0,12-6.79,16.63-11.72A4.51,4.51,0,0,1,357.36,179.36Zm47.91-14.64a3.92,3.92,0,0,1,4,4,4,4,0,0,1-.4,1.73c-6.12,12.91-18.36,29.81-33.4,29.81-14.64,0-25.55-15.57-25.55-34.07,0-21.29,13-32.34,24.09-32.34,10.24,0,15.57,8.79,15.57,16,0,9.05-8.39,19.7-25.42,34.87a4.32,4.32,0,0,1-2.66.93,4,4,0,0,1-4-4,3.85,3.85,0,0,1,1.33-2.93c16-14.11,22.76-23.29,22.76-28.88,0-3.72-2.66-8-7.58-8-6.92,0-16.11,7.85-16.11,24.35,0,14.77,8.25,26.09,17.57,26.09,10.51,0,20.76-13.84,26.22-25.29A4,4,0,0,1,405.27,164.72Z"></path></svg> 