<?xml version="1.0" encoding="UTF-8"?> <svg xmlns="http://www.w3.org/2000/svg" id="Layer_1" data-name="Layer 1" viewBox="0 0 450 335"><defs><style>.cls-1{fill:#fff;}.cls-2{fill:#ececec;}.cls-3{fill:#bca5cf;}.cls-4{fill:#111035;}</style></defs><rect class="cls-1" width="450" height="335"></rect><rect class="cls-2" y="199.03" width="450" height="84.12"></rect><rect class="cls-2" y="53.34" width="450" height="82.3"></rect><rect class="cls-3" x="215.33" y="53.34" width="18.64" height="229.81"></rect><path class="cls-4" d="M412.17,170.78a3.64,3.64,0,0,0-3.61,3.22c-1.29,11.49-10.84,18.32-17,18.32-4,0-7.1-3.48-7.1-12.64V151.94c0-15-12.52-14.59-20.46-16.27.06-1.92.08-3.94.08-6,0-4.9-3-10.71-9.42-10.71a8.66,8.66,0,0,0-8.9,8.78c0,4.53,3.35,9.69,10.9,13-1,11.6-4.77,15.61-18.9,15.61-1.8,0-3.75-.08-5.72-.24-2.76-11.19-9.81-20.53-21.5-20.53-9.22,0-16.59,7.9-19.9,18.83h-.1c-6.06.39-11.1.65-15.09.65h-.55c-.37-14-5.47-19.48-10.81-19.48-4.9,0-9,5-9,11.74a13.91,13.91,0,0,0,10.32,13.8,19.48,19.48,0,0,0,2.27.52c-1.07,14.51-6.93,30.7-19.43,30.7-7.09,0-11.61-6.7-11.48-21.67l.29-19.46c.93-2.91,1.61-5.15,2-6.34,11.23-31.1,21.29-54.32,21.29-70.7,0-11.87-4.52-20.9-12.77-20.9-8.78,0-16.77,10.32-16.9,32.89l-.26,41.42-.33,21.86c-4.71,14.27-14.92,42.9-25,42.9-3.87,0-6.06-2.45-6.06-7.86V138.78a3.69,3.69,0,0,0-3.61-3.61,3.58,3.58,0,0,0-3.49,3.61v4.76a19.3,19.3,0,0,0-15.74-8c-12.64,0-21.8,14.83-21.8,32,0,.72,0,1.42,0,2.12a289.72,289.72,0,0,0-24.82,20.45V147.56a3.7,3.7,0,0,0-3.62-3.62,3.58,3.58,0,0,0-3.48,3.62v8.77c0,18.58-13.8,36-25.67,36-12.39,0-23.74-20-23.74-58,0-5.85.28-11.35.79-16.54,35.74-1,58.43-36,58.43-57.13,0-9.81-5.16-17.55-15.49-17.55-16.73,0-42.52,20.74-49.2,67.37-10.87-1.15-18.14-6.57-18.14-17.57,0-6.45,2.32-12.12,7.61-15.35a3.16,3.16,0,0,0,1.81-3,3.5,3.5,0,0,0-3.49-3.61,2.93,2.93,0,0,0-1.8.52c-8,4.51-11.23,13-11.23,21.41,0,15.31,10.52,23,24.4,24.6-.51,5.3-.79,10.9-.79,16.82,0,41.15,13,65.15,30.84,65.15,9.63,0,19.35-7.42,25.67-18V197c-15.57,16-22.32,32.7-22.32,53,0,17.54,5,33.15,16.13,33.15,8.51,0,13.29-9.16,13.29-18.83V199.73a302.33,302.33,0,0,1,25.89-22c2.8,12.42,10.64,21.7,20.68,21.7,7.27,0,12.77-3.67,16.55-9.21a12.34,12.34,0,0,0,12.35,9.21c10.26,0,18.69-14.19,24.64-28.22-.24,17.73,6.58,28.22,18.45,28.22,17.88,0,25.21-20.57,26.5-37.29h.73c3.66,0,8.34-.21,13.67-.61a47.56,47.56,0,0,0-.39,6c0,17.16,9.16,31.87,21.81,31.87,15.35,0,22.83-16.38,22.83-32.12,0-1.33-.06-2.67-.17-4,1.64.1,3.18.14,4.56.14,18.63,0,24.17-7.32,25.74-20.41,10.2,2.64,13.87.45,13.87,8.92v27.74c0,13.16,5.93,19.74,14.19,19.74,9.42,0,22.32-9,24.13-24.64A3.6,3.6,0,0,0,412.17,170.78ZM116.85,50.15c5.94,0,8.39,4,8.39,10.45,0,17.85-19.84,48.42-50.44,50C81.11,68.42,103.74,50.15,116.85,50.15Zm-.51,225.91c-5,0-9-10.84-9-26.06,0-16.22,4.5-29.67,15.22-42.65v57C122.53,271,119.82,276.06,116.34,276.06Zm59.86-83.74c-7.74,0-14.71-10.7-14.71-24.77s7-24.9,14.71-24.9c10.32,0,15.74,11.87,15.74,24.65S186.39,192.32,176.2,192.32ZM237.61,86.14c.13-18.57,5.94-25.8,9.94-25.8,3,0,5.67,4.77,5.67,13.81,0,12.56-6.94,30.41-15.88,54.62l0-1.21Zm24.52,61.16c0-2.71,1.29-4.65,1.93-4.65.84,0,3.34,2.89,3.7,11.84l-.34-.1A6.91,6.91,0,0,1,262.13,147.3Zm56.76-.78a3.08,3.08,0,0,0,.53-.08,21.8,21.8,0,0,1,4.95,8.52c-5.18-1.16-9.22-3.13-9.22-6.11C315.15,147.69,315.8,146.91,318.89,146.52Zm7.36,20.78c0,12.9-5.55,25-15.74,25-7.74,0-14.71-10.7-14.71-24.77s6.95-24.87,14.68-24.9a8.27,8.27,0,0,0-2.42,6.2c0,8.51,8.95,12.19,17.93,13.67A44.18,44.18,0,0,1,326.25,167.3Zm26.57-39.61c0-1,.52-1.68,1.81-1.68,1.55,0,2.32,1.55,2.32,3.61,0,1.13,0,2.21,0,3.25C354,131,352.82,129,352.82,127.69Z"></path></svg> 