<?xml version="1.0" encoding="UTF-8"?> <svg xmlns="http://www.w3.org/2000/svg" id="Layer_1" data-name="Layer 1" viewBox="0 0 450 335"><defs><style>.cls-1{fill:#fff;}.cls-2{fill:#ececec;}.cls-3{fill:#bca5cf;}.cls-4{fill:#111035;}</style></defs><rect class="cls-1" width="450" height="335"></rect><rect class="cls-2" y="199.03" width="450" height="60.33"></rect><rect class="cls-2" y="75.94" width="450" height="59.7"></rect><rect class="cls-3" x="225.97" y="75.94" width="18.64" height="183.42"></rect><path class="cls-4" d="M27.66,140.6v56.68c0,3.87-5.81,3.87-5.81,0V79.57c0-2.18.73-2.9,2.9-2.9H56.24c8.23-.49,32.45,0,32,29.54,0,29.07-24.95,34.64-36.81,34.39Zm0-5.81H51.4c11.14-.24,31-4.12,31-28.58C81.91,81.51,65.68,83,56.24,82.48H27.66Z"></path><path class="cls-4" d="M159.17,161.19c5.81-.49,10.17-6.54,10.9-8a3,3,0,0,1,5.33,2.9c-2.91,4.85-9.21,10.66-16,11.14a34.94,34.94,0,0,1-5.08,17.68c-6.54,10.18-15.75,15.26-27.37,15.26A33.27,33.27,0,0,1,94,166.52c0-25.43,26.4-37.78,49.17-29.55C157,142.06,159.17,161.19,159.17,161.19Zm-29.31-21.55c-17.19-1-29.78,12.1-29.78,27.36A27.34,27.34,0,0,0,127,194.13c15.26,0,26.4-13.57,26.4-25.92-4.85.24-26.16-2.18-26.16-21.79C127.2,144,128.65,141.33,129.86,139.64Zm23.5,22.52c-2.91-13.81-7-16.47-9.69-18.65-5.09-4.36-12.59-2.18-9.93,7C136.4,159.25,145.61,162.4,153.36,162.16Z"></path><path class="cls-4" d="M250.72,153.2a2.9,2.9,0,0,1,4.11-1A2.87,2.87,0,0,1,256,156.1c-6.53,11.63-18.64,26.64-27.6,40V238c0,33.42-38.51,24.46-28.58-4.6,3.39-11.87,12.59-25.19,22.76-39.48,0-.48-.24-10.41-.24-10.41a23.06,23.06,0,0,1-3.15,4.12c-15.74,16.71-32.21,14.29-40.93,9.69-15.25-8.24-17.68-34.88-4.11-49.17,13.07-13.32,26.88-14.77,37.54-11.14a20.71,20.71,0,0,1,10.65,8.72v-7.27a2.86,2.86,0,0,1,3.15-2.9,3.13,3.13,0,0,1,2.91,2.9l-.25,47.23C236.67,174,245.63,162.4,250.72,153.2Zm-72.17-.73c-11.39,10.66-8.48,34.88,2.42,39.72,7.26,3.39,19.86,6.05,33.9-8.72,13.81-14.05,6.06-37.78-5.08-40.93H210C201.07,139.88,190.41,140.36,178.55,152.47Zm44.07,52.31c-7.75,10.17-13.8,20.83-17,30-4.84,21.56,17,26.64,17,3.15Z"></path><path class="cls-4" d="M259.92,149.56c-1.45,2.18-2.66,4.36-3.88,6.54a3.15,3.15,0,0,1-4.11,1.21,3.08,3.08,0,0,1-1.21-4.11c3.14-5.33,6-9.69,9-14.29V98.71c0-11.39,5.81-22.77,16.22-22.77,11.87.49,15.5,11.38,15.5,19.38-.24,12.59-12.35,25.42-25.67,45.28v24.22c0,13.08,7.51,29.55,22.53,29.55,11.86,0,23-12.11,23-28.58-1.69-.24-20.58-1.45-20.58-18.4,0-7.75,4.6-11.87,10.41-11.87,12.35,0,15.5,13.08,15.74,24.46a14.32,14.32,0,0,0,12.36-6.78,3,3,0,0,1,4.11-1,2.61,2.61,0,0,1,1,3.87c-3.63,5.57-9,9.69-17.19,9.93,0,9.69-6.3,34.15-28.82,34.15-17.2,0-28.34-16-28.34-35.12Zm5.81-19.37c11.14-16.23,20.35-27.61,19.86-34.87,0-7-2.42-13.08-9.93-13.57-4.12-1-9.93,7.51-9.93,17Zm35.85,11.38c-2.67,0-5.09,1.46-4.85,6.3,0,5.33,5.09,10.9,14.29,11.87C311,147.87,306.18,141.57,301.58,141.57Z"></path><path class="cls-4" d="M353.89,153.2v44.32a2.94,2.94,0,0,1-2.91,2.9,3,3,0,0,1-3.15-2.9V144c0-3.14-3.87-4.11-6.29,0,0,0-6.3,10.9-7,12.11a3,3,0,0,1-5.32-2.9c1-1.46,7-12.11,7-12.11,5.81-9.93,17.68-6.78,17.68,2.9v.49c19.86-18.65,44.8-7.75,44.8,8.23v34.88c0,7,4.85,10.9,10.42,1.21,8-13.56,19.86-34.15,20.58-35.6a2.83,2.83,0,0,1,4.12-1,2.61,2.61,0,0,1,1,3.87c-.73,1.46-13.08,22.77-20.59,35.85-7.75,13.32-21.31,10.65-21.31-4.36V152.71C392.88,142.78,372.54,130.92,353.89,153.2Z"></path></svg> 