<?xml version="1.0" encoding="UTF-8"?> <svg xmlns="http://www.w3.org/2000/svg" id="Layer_1" data-name="Layer 1" viewBox="0 0 450 335"><defs><style>.cls-1{fill:#fff;}.cls-2{fill:#ececec;}.cls-3{fill:#bca5cf;}.cls-4{fill:#111035;}</style></defs><rect class="cls-1" width="450" height="335"></rect><rect class="cls-2" y="199.03" width="450" height="77.78"></rect><rect class="cls-2" y="50.38" width="450" height="85.26"></rect><rect class="cls-3" x="208.27" y="50.38" width="18.64" height="226.43"></rect><path class="cls-4" d="M129.86,168a3.72,3.72,0,0,1,3.25-1.86,4.17,4.17,0,0,1,4.18,4.18,4.87,4.87,0,0,1-.93,2.55c-11.83,17.4-28.77,26.91-61.71,26.91-30.86,0-62.18-16-62.18-52,0-16,5.57-28.53,14.62-37.12A31.74,31.74,0,0,1,19.2,89.36c0-27.38,26.91-39,54.06-39,16.7,0,33.64,4.41,44.31,12.53a4,4,0,0,1,1.62,3,4.11,4.11,0,0,1-3.94,4.17,4.33,4.33,0,0,1-2.55-.92c-8.59-6.73-24.13-10.91-39.91-10.91-23,0-45.47,8.82-45.47,31.09a23.62,23.62,0,0,0,6,16.47c9-5.8,20.42-9,33.41-9,9.51,0,25.75,2.56,25.75,15.55,0,12.76-15.54,14.85-25.05,14.85-11.83,0-25.06-3.72-34.57-10.91-7.66,7-12.3,17.63-12.3,31.55,0,29,24.6,44.08,54.06,44.08C95.3,191.9,115.25,189.12,129.86,168ZM66.76,104.9c-10.21,0-19.49,2.09-27.14,6.27,8.12,5.57,18.79,8.12,27.84,8.12,4.41,0,16.7-.24,16.7-7C84.16,105.37,71.17,104.9,66.76,104.9Z"></path><path class="cls-4" d="M145.17,142.26a16.63,16.63,0,0,1-7-13.46c0-5.1,3.48-10.44,10.68-10.44a9.86,9.86,0,0,1,10.2,10.21,23.15,23.15,0,0,1-2.78,10,33.91,33.91,0,0,0,9.74,1.16c4.41,0,11.6-1.39,13-1.39,2.32,0,3.48.93,3.48,3.25,0,6.26-15.78,32.48-20.42,39h2.09c10.21,0,17.86,5.34,22.73,14.39,9.28-8.12,16-17.63,21.35-25.75L209,168a3.72,3.72,0,0,1,3.25-1.86,4.17,4.17,0,0,1,4.18,4.18,5.8,5.8,0,0,1-.93,2.55l-1.39,2.32A127.42,127.42,0,0,1,190,204c1.39,7.19,1.62,10.44,1.62,22.5,0,21.58-7,50.34-23.66,50.34-12.53,0-15.54-12.52-15.54-21.34,0-20.88,15.31-40.6,28.53-54.29-3-7.89-9.28-12.76-17.86-12.76-4.64,0-9,2.55-11.83,2.55a3.48,3.48,0,0,1-3.72-3.48,4.51,4.51,0,0,1,1.63-3.47c9.51-10.91,16.7-23.2,22.73-36.66a41.33,41.33,0,0,1-5.33.23,45.43,45.43,0,0,1-13.69-1.85c-1.62,3.94-15.54,25.52-15.54,25.52l-.7,1.16a4.09,4.09,0,0,1-3.48,1.85,3.77,3.77,0,0,1-3.94-3.94,6.66,6.66,0,0,1,.92-2.79C140.3,151.3,142.39,147.13,145.17,142.26Zm3.48-16c-1.39,0-2.32,1.39-2.32,3a8.22,8.22,0,0,0,2.79,6,13.1,13.1,0,0,0,1.85-6C151,127.87,150.28,126.25,148.65,126.25ZM183,210.7c-10.67,11.36-22.5,27.6-22.5,44.77,0,3.48.69,13.46,7.42,13.46,10.44,0,15.54-26.92,15.54-42.46C183.45,216.5,183.22,216,183,210.7Z"></path><path class="cls-4" d="M215.7,172.42a4.09,4.09,0,0,1-3.48,1.85,3.78,3.78,0,0,1-3.95-3.94,5.61,5.61,0,0,1,.93-2.79l7.19-11.6c3.25-5.33,4.88-7.88,7-12.06V81.94c0-10.67,0-31.56,15.07-31.56,11.84,0,15.78,15.32,15.78,26.69,0,24.12-13.92,51.5-23,68.67v12.52c9.28-11.83,20.65-23.2,35.5-23.2,13.92,0,16,11.83,16,19.26v21.34c0,6,.69,16.24,8.81,16.24,11.6,0,19.72-15.31,25.06-22.73l.69-1.16a3.72,3.72,0,0,1,3.25-1.86,4.17,4.17,0,0,1,4.18,4.18,5.8,5.8,0,0,1-.93,2.55l-.93,1.62c-1.16,1.86-3.25,5.11-6.26,9.28-6,8.35-15.08,16-25.06,16-13.45,0-16.7-13.22-16.7-24.13V154.32c0-2.32,0-11.37-8.12-11.37-14.62,0-28.07,15.08-35.5,28.54v24.36a3.94,3.94,0,0,1-7.88,0V160.12c-2.33,4.17-4.65,7.42-7,11.14ZM238.43,58.27c-7.19,0-7.19,16-7.19,20.88v48.72c5.57-11.6,14.85-30.85,14.85-50.8C246.09,68.94,243.77,58.27,238.43,58.27Z"></path><path class="cls-4" d="M323.58,173.18A4.09,4.09,0,0,1,320.1,175a3.78,3.78,0,0,1-4-3.94,6.59,6.59,0,0,1,.93-2.78l15.83-24.89c4.18-6.5,7.43-8.36,12.07-8.36,8.35,0,8.81,11.6,8.81,18.8,4.88-9.05,13.23-18.8,23.67-18.8,13.22,0,16.7,10.44,16.7,20.19v21.34c0,7.19.7,15.31,9.28,15.31,11.37,0,21.58-17.63,24.59-22.73l.7-1.16a3.72,3.72,0,0,1,3.25-1.86,4.16,4.16,0,0,1,4.17,4.18,5.77,5.77,0,0,1-.92,2.55l-1.4,2.32c-1.39,2.09-3.24,5.33-5.8,8.58-6.49,9.28-14.15,16-24.59,16-11.83,0-17.17-8.12-17.17-23.2V155.25c0-4.87-1.39-12.3-9.28-12.3-9.74,0-20.88,19.26-23.2,26.91v25.76c0,2.31-1.39,4.17-3.94,4.17a4,4,0,0,1-3.94-4.17V152c0-3.48-.24-7.19-2.09-7.19-1.39,0-2.78,1.85-4.64,4.41-3.94,5.56-10.73,16.07-14.44,22.1Z"></path></svg> 