<?xml version="1.0" encoding="UTF-8"?> <svg xmlns="http://www.w3.org/2000/svg" id="Layer_1" data-name="Layer 1" viewBox="0 0 450 335"><defs><style>.cls-1{fill:#fff;}.cls-2{fill:#ececec;}.cls-3{fill:#bca5cf;}.cls-4{fill:#111035;}</style></defs><rect class="cls-1" width="450" height="335"></rect><rect class="cls-2" y="199.03" width="450" height="65.21"></rect><rect class="cls-2" y="71.66" width="450" height="63.98"></rect><rect class="cls-3" x="369.65" y="71.47" width="18.64" height="192.78"></rect><path class="cls-4" d="M113.68,97.18c-7.43-12-18.29-19.43-30.29-19.43-22.47,0-40.38,26.1-40.38,58.1s17.91,57.91,40.38,57.91c20.77,0,37.91-22.67,40.2-51.62H83v-6.29h47.05c0,35.43-21,64.39-46.67,64.39-25.9,0-46.86-29-46.86-64.39,0-35.62,21-64.38,46.86-64.38,13.91,0,26.67,8.38,35.24,21.9Z"></path><path class="cls-4" d="M230.26,162.9c-6.29,10.48-16.76,12.38-29.14,10.29a17.67,17.67,0,0,1-3.05-.76c-1.91,15-12.38,27-25.15,27-14.28,0-25.9-14.29-26.28-32.2l-.2-9.9-3,5.52-5.53-3.24L146.44,145V94.33c0-14.1,7.43-22.67,13.91-22.67s12.19,9,12.19,21.14c0,20.57-10.09,37.53-19.62,53.53v20.95c0,13.34,8.38,25.91,20,25.91,8.57,0,17.91-8.95,19.05-23.05-5.14-2.47-11.05-5.71-15.43-11.24-4.19-5.14-9.9-16.38-4-22.29,7.05-6.85,23.43,6.86,25.72,29.34a29.49,29.49,0,0,0,4.38,1.14c11.43,1.91,17.91-.19,22.29-7.43Zm-77.53-28.57c9.91-17.91,13.91-29,13.72-41.34,0-10.09-4.19-15-6.1-15-2.29,0-7.62,5.53-7.62,16.39Zm28.38,20.19a41.31,41.31,0,0,0,10.67,8.38,33.08,33.08,0,0,0-6.28-15.43c-3.24-4-7.43-7.24-8.77-5.71C175.21,143.28,178.26,151.47,181.11,154.52Z"></path><path class="cls-4" d="M281.5,141.38v43.43c0,2.67,1.52,8.76,6.67,8.76a9.55,9.55,0,0,0,8.76-5.14l16.38-28.77,5.53,3.24-16.39,28.58a15.77,15.77,0,0,1-14.28,8.38c-9.34,0-13.15-10.1-13-15.05-6.09,8.76-16.19,15.05-26.09,15.05-14.86,0-26.1-12.38-26.1-28.39,0-20.57,16.57-36.38,32.38-36.38,8.58,0,15.24,3.24,19.81,9.53v-3.24Zm-52,29.33c0,13.72,8.19,22.86,18.85,22.86,12,0,26.86-11.43,26.86-26.1,0-16.95-7.23-26.28-20-26.28C243.78,141.19,229.5,153.57,229.5,170.71Z"></path><path class="cls-4" d="M373.12,135.85v57a79,79,0,0,0,12-10.48c3.43-3.81,7.05-9,14.86-22.67l5.34,3.24c-11.05,19.81-16.2,26.48-32,37.53v41.15c0,14.09-7.62,22.66-14.28,22.66-6.48,0-12.19-9-12.19-21.14,0-20.19,10.28-35,20-45.72V182.9c-4.57,7.43-12,16.58-23.24,16.58-10.1,0-21-8.39-21-24.2V155.85l-3.81,7.05-5.52-3.24c8-14.28,8.95-15.23,9.52-23.81h6.1v38.86c0,7,1.9,10.86,4.38,13.72a13.17,13.17,0,0,0,10.29,4.76c6.09,0,12.19-4.38,18.29-13.9,2.85-4.2,4.95-9.34,4.95-14.1V135.85ZM367,206.72c-9.91,12.76-14.1,23.62-13.91,36.19,0,10.1,4.19,15,5.91,15,2.47,0,8-5.34,8-16.38Z"></path></svg> 