<?xml version="1.0" encoding="UTF-8"?> <svg xmlns="http://www.w3.org/2000/svg" id="Layer_1" data-name="Layer 1" viewBox="0 0 450 335"><defs><style>.cls-1{fill:#fff;}.cls-2{fill:#ececec;}.cls-3{fill:#bca5cf;}.cls-4{fill:#111035;}</style></defs><rect class="cls-1" width="450" height="335"></rect><rect class="cls-2" y="199.03" width="450" height="55.6"></rect><rect class="cls-2" y="80.34" width="450" height="55.3"></rect><rect class="cls-3" x="265.6" y="80.34" width="18.64" height="174.29"></rect><path class="cls-4" d="M126,194c3.61,4-2.65,8.53-5.88,4.74L68.13,138v59c0,4-7.78,3.79-7.78,0V84.52c0-2.09,1.14-3.23,3.42-3.23H83.68a37.42,37.42,0,0,1,15,3.23c11.76,4.93,16.12,15,16.12,25.79,0,17.64-14.22,28.83-35.46,30.15ZM68.13,87.36v47.79C92.4,137.24,107,126.24,107,110.31c0-15.74-12.33-22.76-23.9-23Z"></path><path class="cls-4" d="M142.83,165.88a42.78,42.78,0,0,0-.37,5.88c0,12.7,11,21.05,24.08,21.62a34.14,34.14,0,0,0,12.14-1.71c.57-.19,1.52-.38,2.46-.76a8.14,8.14,0,0,1,1.9-.57,9.45,9.45,0,0,1,3-.57c2.08,0,3.22,1.14,3.22,3.42-.19,4.36-14.41,6.45-23.71,6.45-17.26.19-30.34-11-30.34-27.88,0-21.43,12.14-37,33.19-37,13.08,0,22.76,10.25,22.76,23.71,0,4.93-.76,7.4-2.47,7.4Zm.95-5.88H184a15.42,15.42,0,0,0,.19-3.23A16.21,16.21,0,0,0,168.44,141C155.73,141,147.39,147.29,143.78,160Z"></path><path class="cls-4" d="M203.58,169.1c0-19.53,14.42-34.52,33.19-34.52,18,0,28.83,13.09,28.83,31.11,0,19.72-14.23,33.76-34.71,33.76C213.25,199.45,203.58,187.12,203.58,169.1Zm7.21,0c0,14.41,6.45,24.47,20.86,24.47,16.69,0,26.74-11.76,26.74-27.88,0-14.42-7.58-25-22-25C220.65,140.65,210.79,153.17,210.79,169.1ZM221,113.91c0-6.26,9.48-6.26,9.48,0S221,120.17,221,113.91Zm25.41-4.74c6.26,0,6.26,9.48,0,9.48C240.37,118.65,240.37,109.17,246.44,109.17Z"></path><path class="cls-4" d="M287.22,198.5v52.91c0,4.36-7,4.17-7,.19v-113c0-2.47,1.14-3.61,3.42-3.61,2.46,0,3.6,1.14,3.6,3.61v22c7.4-14.61,19-24.85,32.43-24.66,14.42.19,21.24,9.86,21.24,25.79,0,25-16.12,38.5-38.31,39.07Q298,201.06,287.22,198.5Zm0-20.29v14a45.78,45.78,0,0,0,6.26,2.09,44,44,0,0,0,10,.75c18.78-.57,30.16-13.84,30.16-33.38,0-13.46-5.69-20.29-14.23-20.1C302,141.79,291.2,159.43,287.22,178.21Z"></path><path class="cls-4" d="M355.5,84c0-2.47,1.14-3.61,3.6-3.61s3.61,1.14,3.61,3.61V196.79c0,2.47-1.14,3.6-3.61,3.6s-3.6-1.13-3.6-3.6Z"></path></svg> 