<?xml version="1.0" encoding="UTF-8"?> <svg xmlns="http://www.w3.org/2000/svg" id="Layer_1" data-name="Layer 1" viewBox="0 0 1920 1243.73"><defs><style>.cls-1{fill:#e2dcef;}.cls-2{fill:#1f1b35;}</style></defs><rect class="cls-1" width="1920" height="1245.05"></rect><path class="cls-2" d="M282.27,279.09c0,5.22-10.81,9.88-16.4,9.88-17.15,0-20.32-11.37-20.32-28.14,0-9.32.75-22.18,1.68-35.23H229.71l-28.89,50c-.18.74-7.83,13.42-22,13.42-15.28,0-15.65-14.54-15.65-16.78a4.65,4.65,0,0,1,4.65-4.84c8.39,0,.19,12.3,11,12.3,8.76,0,14-8.57,14-8.57l26.28-45.67c-13.05,0-14.91.19-14.91-4.84a4.78,4.78,0,0,1,4.84-4.66c4.29,0,9.69.19,15.28.19L253,166.34a4.32,4.32,0,0,1,3.91-2.43,5.27,5.27,0,0,1,5,5v.56c-1.49,13.61-3.17,30.57-4.66,46.78,8.58.19,15.28-.56,18.08-.56s5.22,1.68,5.22,4.66c0,6-6.9,5.22-24,5.22-1.12,14.17-1.87,27.4-1.87,35.78,0,15.29,3.54,18.27,10.44,18.27,5,0,9.32-5.22,12.49-5.22a4.48,4.48,0,0,1,4.66,4.66ZM248,216.28c.75-9.69,1.68-19,2.61-27.21l-15.65,27.21Z"></path><path class="cls-2" d="M351.6,222.81c17,7.26,25.34,16.4,25.34,31.12,0,30.75-24.79,35-47.15,35a122.81,122.81,0,0,1-18.64-1.31,4.85,4.85,0,0,1-2.23.56,4.46,4.46,0,0,1-4.66-4.47,3.8,3.8,0,0,1,.18-1.31l28.15-109c-11,.56-11.56,1.49-11.75,1.49a5,5,0,0,1-4.84-4.66,4.62,4.62,0,0,1,3.73-4.66,82.61,82.61,0,0,1,16.58-1.49c14.54,0,44.55,6.34,44.55,29.45C380.86,208.83,365.2,217.77,351.6,222.81Zm-23.11,3.54L314.88,278.9a107.45,107.45,0,0,0,14.54.94c21.43,0,38.2-3.92,38.2-25.91C367.62,234.55,345.63,229.33,328.49,226.35Zm43.23-32.8c0-13.24-18.63-19.2-29.82-20.13l-11,43.79C344.33,217,371.72,210,371.72,193.55Z"></path><path class="cls-2" d="M495.1,191.31a4.86,4.86,0,0,1-4.66,4.66A4.74,4.74,0,0,1,486,192.8c-3.17-8.57-10.63-19.38-24.23-19.38-35.22,0-44,44-44,62.62,0,21.43,9.69,43.61,28.88,43.61,20.13,0,30.75-17.15,31.13-18.08a5,5,0,0,1,4.1-2.05,4.57,4.57,0,0,1,4.47,4.66,4.46,4.46,0,0,1-.56,2.24c-.56.93-13.6,22.55-39.14,22.55-27.39,0-38.2-30.38-38.2-53.68,0-25.53,12.86-71.19,53.3-71.19,18.26,0,29.07,14.16,33,25.72A4.53,4.53,0,0,1,495.1,191.31Z"></path><path class="cls-2" d="M598.72,217c0,41.56-21.43,71.94-67.84,71.94h-6.33a6.13,6.13,0,0,1-2.61.74,4.46,4.46,0,0,1-4.66-4.47,3.23,3.23,0,0,1,.18-1.3l28.33-110.52c-2.79,0-5.4-.19-7.64-.19-1.86,0-3.35.19-4.47.19a4.67,4.67,0,0,1-4.48-4.48c0-3.72,2-4.84,6.71-4.84h2.24C578.41,166,598.72,176.4,598.72,217Zm-9.13.37c0-26.84-10.62-40.63-34.67-43.05l-26.83,105.3h3C571.88,279.65,589.59,252.25,589.59,217.4Z"></path><path class="cls-2" d="M694.51,180.13a4.37,4.37,0,0,1-4.28,4.47,4,4,0,0,1-3-1.12c-5.41-6.15-13-10.44-21.06-10.44-13.42,0-22.37,8.2-22.37,19.39,0,11.92,11,20.68,22.92,22a4.22,4.22,0,0,1,3.55,4.29c0,5.4-6.53,4.65-11.56,5.4-16.77,2-33.73,9.32-33.73,30,0,17.51,13.42,28.88,33.54,28.88,12.86,0,18.45-3,25.91-7.45,2.42-1.31,6.15,1.12,6.15,3.91,0,1.49-.93,3.17-3,4.48-6,3.91-16,7.64-29.82,7.64-21.43,0-42.12-11.56-42.12-36.16,0-18.45,9.32-31.68,31.68-38.58-8.76-6.89-12.86-17-12.86-24.79,0-15.84,13-28,31.5-28,10.62,0,20.69,5.78,27.77,13.42A3.56,3.56,0,0,1,694.51,180.13Z"></path><path class="cls-2" d="M824.41,168.76a4.55,4.55,0,0,1-4.66,4.84c-.18,0-25.71-.18-47.89-.18l-14,54h49.57a4.77,4.77,0,0,1,4.66,4.85,4.61,4.61,0,0,1-4.84,4.47H755.46L745.21,275c-1.68,6-7.09,15.1-19.2,15.1-15.28,0-15.65-14.35-15.65-16.78a4.55,4.55,0,0,1,4.65-4.84c8.39,0,.19,12.3,11,12.3,7.83,0,9.88-6.71,10.25-8.2L746,236.78H733.09a4.66,4.66,0,0,1,0-9.32h15.28l13.8-54c-33.74,0-33.74,5.59-33.74,8.94,0,8.2,5.41,4.66,5.41,9.69a4.58,4.58,0,0,1-4.48,4.66c-2.42,0-10.25-4.1-10.25-14.35,0-15.84,14.73-18.26,46.78-18.26,22,0,53.68.37,54.05.37A4.38,4.38,0,0,1,824.41,168.76Z"></path><path class="cls-2" d="M918.53,216.28a3.14,3.14,0,0,1-.19,1.31l-4.66,19.19-22.17,88.53c-2.43,10.06-8.39,25.16-30.38,25.16-15.28,0-23.3-13.79-23.3-20.13,0-2.42,1.68-4.84,4.29-4.84s4.84,1.49,5,4.28c.19,1.68,3.73,11.37,14,11.37,14.35,0,18.64-7.64,21.24-18.08l12.12-48.83c-12.12,13.05-25,14.73-30.75,14.73-21.62,0-30.94-19.57-30.94-47.15,0-30.57,20.13-77.72,55.35-77.72,9.88,0,25.53,4.1,31.13,21.06a4.53,4.53,0,0,1,.37,1.49,4.74,4.74,0,0,1-4.66,4.66,4.81,4.81,0,0,1-4.47-3.36c-4.29-13-16.78-14.53-22.18-14.53-28.14,0-46.22,41.56-46.22,68.21,0,19.57,5,38.21,21.62,38.21,6.52,0,29.07-3.36,41-45.48l4.66-19a4.75,4.75,0,0,1,4.47-3.54c.56,0,.75.19,1.31.19A4.52,4.52,0,0,1,918.53,216.28Z"></path><path class="cls-2" d="M1060.54,167.64a4.76,4.76,0,0,1-4.84,4.66c-1.49,0-2.8-.37-4.1-.37-6.71,0-8.58,5-8.76,6l-7.46,32.8c2.8,0,4.85-.37,6.15-.37,3,0,5.22,1.86,5.22,4.84,0,4.85-4.1,4.48-13.42,4.85-4.47,22.18-7.64,41.37-7.64,49.39,0,7.08,2.42,12.11,10.63,11.93,4.47-.19,8.94-5.22,11.74-5.22a4.74,4.74,0,0,1,4.66,4.66c0,5.4-11.19,9.69-16.4,9.69-18.46.18-19.76-13.42-19.76-20.88,0-10.43,3.35-30.56,7.27-49.38-10.63,0-23.67.18-34.48-.19l-14,55.35c-1.3,5.41-7.08,15.1-19.19,15.1-15.29,0-15.66-14.17-15.66-16.78a4.65,4.65,0,0,1,4.66-4.84c8.39,0,0,12.49,11,12.49,7.82,0,10.25-8.2,10.25-8.2L979.84,220c-6-.19-10.06-.19-10.62-.19a4.61,4.61,0,0,1-4.66-4.66,4.67,4.67,0,0,1,4.47-4.47h13.24l9.32-36.34a95.15,95.15,0,0,1-17.34-2.42,4.55,4.55,0,0,1-3.54-4.29,4.78,4.78,0,0,1,4.66-4.85c.37,0,.75.19,1.12.19.19,0,8.39,2.24,15.84,2.24.93,0,2-.19,3-.19,3,0,6.71,1.49,6.71,5a2.43,2.43,0,0,1-.18,1.12l-10.07,39.51c5.41.19,11.37.19,17.34.19,5.77,0,11.55,0,16.77-.19,3.17-15.65,6.52-29.26,7.83-35,.56-2.42,4.28-12.86,18.26-12.86a35.18,35.18,0,0,1,4.47.19A4.92,4.92,0,0,1,1060.54,167.64Z"></path><path class="cls-2" d="M1147.2,170.25l-27,104.74c-1.3,5.22-7.27,15.1-19.19,15.1-20.32,0-26.66-18.08-27.21-27.59a4.66,4.66,0,1,1,9.31-.37c0,1.86,1.49,18.64,17.9,18.64,8,0,10.25-8.2,10.25-8.2l25.34-98.22c-9.69,0-17.7-2.61-18.08-3a4.63,4.63,0,0,1,1.68-9,7.27,7.27,0,0,1,1.68.37,42.65,42.65,0,0,0,13.6,2.43c2.24,0,4.66-.75,6.9-.75,1.12,0,4.84,0,4.84,4.47Z"></path><path class="cls-2" d="M1254.37,232.12a4.73,4.73,0,0,1-4.66,4.66h-38.39l-20.69,83.12c-2.8,11-8.2,30.76-32.43,30.76-16.77,0-23.29-12.3-23.85-18.64a4.77,4.77,0,0,1,4.47-5,4.71,4.71,0,0,1,4.84,4.47c.19,1.49,3,9.88,14.54,9.88,17,0,21.43-15.47,23.48-23.86l20.13-80.7H1177.4a4.73,4.73,0,0,1-4.66-4.66,4.61,4.61,0,0,1,4.66-4.66h26.65l13.23-53.3h-1.86a63.49,63.49,0,0,1-16.4-2.23,4.31,4.31,0,0,1-3.36-4.48,4.7,4.7,0,0,1,4.66-4.47,3.16,3.16,0,0,1,1.31.19,57.08,57.08,0,0,0,14,1.86c2.43,0,5-.75,7.46-.75,3.54,0,6,1.31,4.84,5.78l-14.35,57.4h36.16A4.61,4.61,0,0,1,1254.37,232.12Z"></path><path class="cls-2" d="M1365.45,166.71a4.62,4.62,0,0,1-4.66,4.66,34.42,34.42,0,0,0-4.48-.38c-3.35,0-8.38.94-11.18,7.09-5.59,9.69-13,31.87-29.82,43.42,7.83,2.61,14.35,8.57,14.35,17.52a23.33,23.33,0,0,1-.18,3.54,101,101,0,0,0-2,18.64c0,11.37,2.61,18.82,8.94,18.82,4.48,0,8.76-5.22,11.74-5.22a4.86,4.86,0,0,1,4.66,4.66c0,5.59-11.18,9.88-16.4,9.88-13.79,0-18.08-14.16-18.08-28.14,0-8.39,2.24-16.78,2.24-22.18,0-9.32-17-11.18-22.18-11.18h-1.49l-11.93,47c-.18.56-6,14.54-20.68,14.54-20.69,0-23.67-18.08-23.67-22.74,0-3,1.86-5.22,4.66-5.22a4.85,4.85,0,0,1,4.66,4.48c0,.93-.56,14.16,14.35,14.16,7.82,0,11.37-7.08,11.93-8.39l25-98.4a95,95,0,0,1-17.33-2.42,4.75,4.75,0,0,1-3.54-4.66,4.8,4.8,0,0,1,4.47-4.47,3.25,3.25,0,0,1,1.3.18,81,81,0,0,0,15.84,2c.94,0,2-.18,3.17-.18,3.36,0,6.71,1.3,6.71,4.47a6.53,6.53,0,0,1-.18,1.86l-12.49,48.27c19-3.17,29.82-27,35.78-40.44,5.22-12.86,13.61-16.21,21.62-16.21a22.66,22.66,0,0,1,5.41.56A4.74,4.74,0,0,1,1365.45,166.71Z"></path><path class="cls-2" d="M1451.18,178.82a4.62,4.62,0,0,1-4.66,4.66,4.71,4.71,0,0,1-4.29-3.17c-.37-.74-3.54-8.38-13.79-8.38-10.62,0-16.21,16.4-18.08,23.85l-20.5,79.58-.37,1.68a14.22,14.22,0,0,1,5.22,1.68c3.16,2,9.87,3.54,16.58,3.54,15.1,0,15.66-6.15,20.69-6.15a4.74,4.74,0,0,1,4.66,4.66,4.63,4.63,0,0,1-1.49,3.17c-6,5.77-14.35,7.45-23.11,7.45-7.27,0-16.4-1.3-22-4.66a8.36,8.36,0,0,0-3.73-.74c-5.59,0-10.06,4.47-19.2,4.47a4.57,4.57,0,1,1,0-9.13c3.92,0,5.59-1.31,9.88-2.8,2.42-1.12,3.73-5.22,3.73-5.22l20.5-79.58c1.12-4.29,7.64-30.94,27.4-30.75,13.23,0,20.31,9,22.17,14.16A6.86,6.86,0,0,1,1451.18,178.82Z"></path><path class="cls-2" d="M1602.7,279.28c0,5.4-11,9.69-16.41,9.69-15.28,0-19.94-10.44-19.94-23.11,0-15.66,4.66-47,8.39-70.26-12.67,18.45-32.24,51.81-38.39,89.08,0,.75,0,3.91-4.66,3.91a4.64,4.64,0,0,1-4.48-3.54c-1.67-5.77-2.23-15.84-2.23-27.58,0-18.45,1.49-41.19,3.17-58.71l-35.23,76c-.18.19-6,14.17-19,14.17-15.28,0-17.14-11-17.14-17.15,0-12.49,3.17-14,6.15-14a4.78,4.78,0,0,1,4.66,4.85c0,.93-1.49,4.66-1.49,9.13,0,2.8.74,8,7.82,8,6.71,0,10.44-8.76,10.44-8.76l49.2-105.86a4.88,4.88,0,0,1,4.1-2.8,4.6,4.6,0,0,1,4.66,4.66,6.75,6.75,0,0,1-.37,1.86l-2,4.29c-1.87,17.52-5.41,54.79-5.78,82,14-41.93,39-73.61,43.8-79.76,1.12-5.78,1.3-9.51,5.78-9.51a4.7,4.7,0,0,1,4.47,4.66,31.16,31.16,0,0,1-1.12,7.27c-6.15,36.16-11.55,74-11.55,88.15,0,11.19,4.09,13.8,10.8,13.8,4.66,0,8.76-5.22,11.75-5.22a4.47,4.47,0,0,1,4.66,4.66Z"></path><path class="cls-2" d="M316.93,389.61a4.46,4.46,0,0,1-4.66,4.47h-2.61c-4.47,0-15.84,1.68-23.29,17.15-10.81,22.18-38.21,97.66-38.58,98.4a4.6,4.6,0,0,1-4.29,3,4.53,4.53,0,0,1-4.66-4.1,7.41,7.41,0,0,1,.75-3.54l-2.24-88.71L204,498.45c-.19.56-6.15,14.54-19,14.54-19.2,0-21.62-17.52-21.62-22.55,0-2.61,1.68-5,4.47-5a4.47,4.47,0,0,1,4.66,4.48v.37c0,1.86,0,13.42,12.49,13.42,6.71,0,9.88-7.27,10.62-8.76l43.06-106.42a4.18,4.18,0,0,1,4.1-2.79,4.46,4.46,0,0,1,4.65,4.47,2.79,2.79,0,0,1-.37,1.68l-.93,3,2.24,86.47c9.13-24.23,22.55-59.63,29.63-74.17,9.69-20.13,25.35-22.37,32.06-22.37,1.86,0,2.79.19,3.16.19A4.62,4.62,0,0,1,316.93,389.61Z"></path><path class="cls-2" d="M321.59,469.19c0-31.87,23.48-80.33,60.94-80.33,6.9,0,20.69,2.61,20.69,28.52,0,57.21-30.56,95.23-56.28,95.23C331.65,512.61,321.59,497,321.59,469.19Zm9.32.19c0,20.31,6.15,34.1,16,34.1,23.29,0,47-37.46,47-85.91,0-17.52-5.78-19.57-11.74-19.57C350.85,398,330.91,440.3,330.91,469.38Z"></path><path class="cls-2" d="M522.31,421.48c0,11.37-9.88,37.65-34.66,37.65-4.66,0-13-.56-19.2-4.1l-10.81,42.49c-1.3,5.4-7.08,15.09-19.2,15.09-15.09,0-15.65-14.16-15.65-16.58,0-2.8,1.86-5,4.66-5,8.38,0,0,12.49,11,12.49,7.64,0,10.07-7.45,10.25-8.2l24.42-96.17A53.64,53.64,0,0,0,455,409.74a5,5,0,0,1-3.35,1.49,4.86,4.86,0,0,1-4.66-4.66,5.41,5.41,0,0,1,1.3-3.36,66.56,66.56,0,0,1,29.26-15.09,6.53,6.53,0,0,1,1.87-.37H480a60.22,60.22,0,0,1,8.58-.75c18.08,0,32.05,11,33.54,31.68C522.12,419.61,522.31,420.55,522.31,421.48Zm-9.32-.19c0-16.4-11-25-23.48-25-2.24,0-4.29.19-6.15.37l-12.49,48.64c3,3.17,10.63,4.66,16.59,4.66C502,450,513,435.08,513,421.29Z"></path><path class="cls-2" d="M543.56,469.19c0-31.87,23.48-80.33,60.94-80.33,6.89,0,20.69,2.61,20.69,28.52,0,25.16-6,46.22-14.73,62.43a6.15,6.15,0,0,1,.93,2.8c1.12,9.69,1.31,22.55,9,22.55,2.24,0,5-1.12,9.13-4.1a4.56,4.56,0,0,1,3-1.12,4.84,4.84,0,0,1,4.66,4.47c0,5.78-10.62,10.07-17.14,10.07-11.19,0-15.29-11.56-17.15-22.74-10.25,13.42-22.55,20.87-33.92,20.87C553.62,512.61,543.56,497,543.56,469.19Zm9.31.19c0,20.31,6.15,34.1,16,34.1,10.81,0,21.43-8,30-21.24a45.13,45.13,0,0,0-8.76-.56h-5.59c-2.8,0-4.1-2.24-4.1-4.66,0-4.1,2.61-4.66,8-4.66,4.29,0,10.25.37,14.91,2.05,7.64-15.1,12.49-34.85,12.49-56.84,0-17.52-5.78-19.57-11.74-19.57C572.82,398,552.87,440.3,552.87,469.38Z"></path><path class="cls-2" d="M767.2,504.41c0,5.41-11.18,9.69-16.4,9.69-20.32,0-20.32-33.54-20.32-53.67,0-5.22-2.23-8.57-6.7-10.25a38.69,38.69,0,0,1-8.21.56,68.55,68.55,0,0,1-10.43-.75l-12.49,49c-1.3,5.4-7.08,15.09-19.2,15.09-15.09,0-15.65-14.16-15.65-16.58,0-2.8,1.86-5,4.66-5a4.94,4.94,0,0,1,4.66,5v.56c0,2.61.93,6.89,6.33,6.89,7.83,0,10.07-7.45,10.25-8.2l26.1-101c-3.73-.19-7.27-.19-10.63-.19h-7.26a4.45,4.45,0,0,1-4.66-4.47c0-5.22,4.1-4.85,12.48-4.85,4.66,0,10.44,0,16.59.56,16.4,1.49,45.85,5.59,45.85,28.15,0,12.48-7.09,24.6-26.84,32.24a20.83,20.83,0,0,1,4.29,13.23c0,12.11,0,44.54,11,44.54,4.66,0,8.95-5.22,11.93-5.22a5.1,5.1,0,0,1,3.35,1.31A4.46,4.46,0,0,1,767.2,504.41ZM752.85,415c0-13-14-16.78-33.55-18.64l-11.37,42.86c1.31,0,2.8-.18,4.48-.18a47.69,47.69,0,0,1,12.11,1.67C736.45,438.25,752.85,429.12,752.85,415Z"></path><path class="cls-2" d="M788.44,481.3a4.74,4.74,0,0,1,4.48-4.84,5,5,0,0,1,4.84,3.91c0,.19,3.92,23.11,26.09,23.11,13,0,18.64-14.16,18.64-28.33,0-15.09-5.4-22.17-13.6-31.87-7.27-8.38-15.85-17.89-17.15-33v-.56c0-12.86,10.06-22.93,27.58-22.93,9.32,0,23.86,4.29,23.86,13.24a4.7,4.7,0,0,1-4.47,4.66c-4.85,0-4.85-8.58-19.2-8.58-2,0-18.45,0-18.45,13.23,0,18.46,22.92,30,28.51,49.95a61.61,61.61,0,0,1,2,16c0,18.64-9.13,37.27-27.77,37.27C800,512.61,788.44,490.62,788.44,481.3Z"></path><path class="cls-2" d="M991.77,392.59a4.77,4.77,0,0,1-4.84,4.66c-.37,0-22.74-.19-43.61-.19l-25,101.39c-1.3,5.22-7.08,15.1-19.19,15.1-15.1,0-15.66-14.36-15.66-16.78a4.55,4.55,0,0,1,4.66-4.84c8.39,0,0,12.48,11,12.48,7.64,0,9.88-7.45,10.25-8.38l24.41-99c-33.92,0-33.92,5.6-33.92,9.14,0,7.64,5.41,4.28,5.41,9.5a4.58,4.58,0,0,1-4.48,4.66c-2.79,0-10.25-4.29-10.25-14.16,0-15.85,18.46-18.08,32.25-18.27,7.45-.18,17-.18,26.46-.18,19,0,37.46.18,37.83.18A5,5,0,0,1,991.77,392.59Z"></path><path class="cls-2" d="M1104.53,503.67c0,5.59-11,9.88-16.4,9.88-15.28,0-19.94-11.37-19.94-18.64,0-.56.18-.93.18-1.68-11.37,17.71-23.67,20.5-31.31,20.5-19,0-24.78-13.23-24.78-31.12,0-15.47,3.72-36.9,10.8-64.49a52.17,52.17,0,0,0,2.24-14.35c0-9.5-4.47-8.38-4.84-8.38-7.46,0-8.39,10.81-13.42,10.81a4.78,4.78,0,0,1-4.85-4.66,5,5,0,0,1,.56-2.24c.75-1.3,7.46-13.23,17.71-13.23,10.43,0,14.16,8.76,14.16,17.7a76.82,76.82,0,0,1-2.42,16.78c-7.64,29.44-10.63,49.57-10.63,62.62,0,11.18,1.49,21.24,15.47,21.24,9,0,25.16-6.15,36-46.22,4.85-26.83,12.49-58.89,14.73-68.21a4.53,4.53,0,0,1,4.28-3.54,4.66,4.66,0,0,1,4.85,4.66c0,.19-.19.75-.19.93-9.88,41.75-19.2,88-19.2,101,0,8,3.36,11.19,10.63,11.19,4.66,0,8.57-5,11.74-5a4.78,4.78,0,0,1,3.35,1.31A5.26,5.26,0,0,1,1104.53,503.67Z"></path><path class="cls-2" d="M1225.67,402.1a4.57,4.57,0,0,1-4.47,4.66,4.64,4.64,0,0,1-4.66-4.1c-.19-1.12-1.31-7.09-8-7.09-9.69,0-17.14,17.52-19.57,23.86l-36.9,91.32a4.54,4.54,0,0,1-4.1,3,4.93,4.93,0,0,1-4.84-4.84,7.77,7.77,0,0,1,.37-1.49c2.8-34.11,5-70.64,5-92.26,0-16-1.12-19.75-4.84-19.75-7.27,0-8.39,10.81-13.61,10.81a4.62,4.62,0,0,1-4.66-4.66,5,5,0,0,1,.56-2.24c.56-1.12,7.46-13.42,17.52-13.42,15.65,0,14.35,18.45,14.35,30.75,0,11.74-1.12,38.95-3,62.25l25.35-62.43c1.86-5,11.36-30.2,28.14-30.2,12.3,0,16.77,10.07,17.33,15.29Z"></path><path class="cls-2" d="M1391.54,402.28a4.41,4.41,0,0,1-4.47,4.48,4.34,4.34,0,0,1-4.48-4.1c-.18-1.12-1.49-7.09-8.2-7.09-9.13,0-17,17.71-19.38,23.86l-36.9,91.51a4.93,4.93,0,0,1-4.29,2.79,4.54,4.54,0,0,1-4.66-4.84v-1.31l-.74-88.52-34.85,91.69a4.43,4.43,0,0,1-4.29,3,4.81,4.81,0,0,1-4.85-4.84c0-.19.19-.38.19-.75,2.8-34.11,5-71,5-92.63,0-16.21-1.12-19.94-4.84-19.94-7.27,0-8.58,10.81-13.79,10.81a4.57,4.57,0,0,1-4.48-4.66,5,5,0,0,1,.56-2.23c.56-1.49,7.46-13.42,17.52-13.42,15.47,0,14.35,17.7,14.35,30,0,11.56-.93,37.84-3,61.88l33.92-89.09a4.89,4.89,0,0,1,4.29-3,4.72,4.72,0,0,1,4.65,4.66,4.38,4.38,0,0,1-.37,1.68l-.18,2.79v90.58l28-69.14c2-5,11.18-30,28-30,12.3,0,16.77,9.88,17.33,15.1Z"></path><path class="cls-2" d="M1457.89,453.53l-3.92,4.66v.19c4.66,22.18,9.51,45.1,19.39,45.1,4.65,0,8.57-5.22,11.74-5.22a4.9,4.9,0,0,1,4.84,4.66c0,5.59-11.18,9.69-16.58,9.69-15.85,0-21.44-20.12-26.84-45.1-38.58,46-44.36,46-47.53,46.22a4.67,4.67,0,0,1-.56-9.32c5.22-1.67,23.3-21.62,45.67-48.45L1436.45,406c-.37-2.61-.93-11-9.5-11-6.52,0-13.79,9.32-16,12.68a4.87,4.87,0,0,1-3.91,2.05,4.75,4.75,0,0,1-4.85-4.48,5.92,5.92,0,0,1,.75-2.6c1.3-1.87,11.18-16.78,24.23-16.78,14.35,0,17.89,13.42,18.82,19.94l6,40.45c14.35-17.71,30-37.46,44.73-57a4.53,4.53,0,0,1,8.2,2.79,4.5,4.5,0,0,1-.74,2.8C1503.92,395.2,1481.56,424.46,1457.89,453.53Z"></path><path class="cls-2" d="M1625.44,391.1v1.12l-31.69,128c-1.3,5.6-8.38,30.94-33.92,30.94-16.58,0-22.36-12.3-22.36-18.82a4.62,4.62,0,0,1,4.47-4.85,4.74,4.74,0,0,1,4.85,4.48c.18,1.49,1.3,9.87,13,9.87,18.45,0,23.86-19.56,25-23.85l4.28-17.89c-9.32,10.25-18.26,12.48-25.16,12.48-15.84,0-24.23-8.2-24.23-30.93,0-15.29,3.55-36.9,10.81-64.49,1.68-6.71,2.24-11.18,2.24-14.53,0-9.14-4.47-8.2-4.84-8.2-7.27,0-8.58,10.8-13.8,10.8a4.52,4.52,0,0,1-4.47-4.47,5,5,0,0,1,.56-2.23c.56-1.5,7.46-13.42,17.52-13.42,9.32,0,14.35,8.38,14.35,17.52a68.45,68.45,0,0,1-2.61,16.77c-7.64,29.44-10.62,49.76-10.62,62.62,0,11,1.49,21.43,15.28,21.43,8.57,0,24.6-6.15,35.41-46.22l.56-.93,16.4-66.35a4.44,4.44,0,0,1,4.47-3.54c.19,0,.75.19.93.19A4.76,4.76,0,0,1,1625.44,391.1Z"></path><path class="cls-2" d="M1701.1,452.42c-16,20.5-28.14,33.54-36.53,42.49a35.26,35.26,0,0,1,4.48-.19c16.58,0,25.34,11.18,43,11.18,9.69,0,15.09-1.67,19.57-5.59a3.55,3.55,0,0,1,3-1.12,4.87,4.87,0,0,1,4.66,4.66c0,2-2.24,4.29-5.41,6.34-6.33,3.91-14.72,5-21.62,5-22.73,0-30.19-11.18-43-11.18-9.13,0-18.45,4.66-18.64,4.66-4.1,4.1-7.82,3.91-8.38,3.91a4.51,4.51,0,0,1-4.85-4.47,4.68,4.68,0,0,1,4.29-4.66c8.57-2.79,52.18-55.16,92.07-107.16-14,1.12-38.21,0-49.21,1.12-13.23,1.12-16.58,5.59-16.77,5.77a4.84,4.84,0,0,1-3.91,2.05,4.7,4.7,0,0,1-4.48-4.65,4.25,4.25,0,0,1,.75-2.61c.75-1.31,6-8.2,23.48-9.88,16-1.49,59.27-1.68,59.64-1.68,3.73,0,5.22,1.68,5.22,4.47a5.38,5.38,0,0,1-1.12,3Z"></path><path class="cls-2" d="M246.59,700.36a5.05,5.05,0,0,1,5,3.73l23.48,114.62v1.12a4.79,4.79,0,0,1-9.5.93s-4.29-21.06-9.14-44.36H212.68c-13.42,23.86-25.54,45.67-25.54,45.67a5,5,0,0,1-4.28,2.6,5.1,5.1,0,0,1-5-4.84,6.07,6.07,0,0,1,.75-2.42l63.92-114.62A4.65,4.65,0,0,1,246.59,700.36Zm-28.51,66.17h36.34c-4.1-19.57-8.2-39-9.87-47.53Z"></path><path class="cls-2" d="M351.34,699.43c24.6,0,40.81,7.64,40.81,26.1,0,16-10.44,28.14-28.14,34.1,16.77,5.41,26.65,14.91,26.65,28.33s-9.13,37.83-61.69,37.83c-8.94,0-15.47-.74-15.84-.93a4.6,4.6,0,0,1-4.29-4.84,8,8,0,0,0,.19-.94l20.13-114.43a5.16,5.16,0,0,1,4.1-4.1A161.57,161.57,0,0,1,351.34,699.43Zm-31.69,116.3c2.24.18,5.22.37,8.76.37,31.13,0,52.37-9.32,52.37-28.14,0-13.61-23.11-23.86-52.18-23.86ZM350,709.31a97.1,97.1,0,0,0-11.74.56c-1.12,5.59-6.52,36.53-7.83,44.36,30.38,0,52-9.32,52-28.89,0-10.44-10.44-15.47-29.07-16Z"></path><path class="cls-2" d="M524.29,708.57a4.87,4.87,0,0,1,2.05,3.91,5,5,0,0,1-5,4.84,3.92,3.92,0,0,1-2.8-.93c-.19,0-9.32-6.33-29.45-6.33-35.22,0-63.55,28-63.55,65,0,26.09,17,41.75,43.43,41.75,15.65,0,30.56-9,40.81-20.5a4.57,4.57,0,0,1,3.73-1.87,4.81,4.81,0,0,1,4.84,4.85,5.1,5.1,0,0,1-1.11,3.17c-12.49,13.41-28.52,24.22-48.46,24.22-32.61,0-53.12-20.68-53.12-51.81,0-43,33.18-74.17,73.43-74.73C512.92,700.18,523.92,708.19,524.29,708.57Z"></path><path class="cls-2" d="M574.24,700.55c14.35,0,29.26,0,42.68,2.24,16,2.61,27.21,8,34.47,16.58a39.88,39.88,0,0,1,8.2,18.45,49.47,49.47,0,0,1,.94,10.81,83.22,83.22,0,0,1-1.31,14.73c-2.61,14.35-8,26.46-16,35.78q-10.62,12-27.39,18.45c-20.13,7.46-43.24,7.46-61.69,7.46a4.87,4.87,0,0,1-3.73-1.87,4.33,4.33,0,0,1-1.12-3.91l20.13-114.62A4.83,4.83,0,0,1,574.24,700.55ZM559.89,815.17c16.58,0,36-.75,52.37-6.9,20.87-7.82,33.17-22.92,37.27-46.59a71,71,0,0,0,1.3-13.42c0-9.5-2.42-17-7.08-22.55-5.59-6.71-14.91-11-28.33-13.23-11.55-1.87-24.41-2.05-37.08-2.05Z"></path><path class="cls-2" d="M695,760.38v-.19l9.7-54.42a4.82,4.82,0,0,1,4.84-4.1h57.22a4.94,4.94,0,0,1,0,9.88H713.64c-.74,3.35-4.29,23.67-8,45.28h42.86a4.94,4.94,0,0,1,4.85,4.85,4.82,4.82,0,0,1-4.85,4.85H703.76l-8.2,47.52H747a4.94,4.94,0,0,1,0,9.88H689.6a5.1,5.1,0,0,1-4.85-5v-.75l10.07-56.66A2.4,2.4,0,0,1,695,760.38Z"></path><path class="cls-2" d="M813.91,701.67h57.21a4.94,4.94,0,0,1,0,9.88H818l-8,45.1h42.68a4.94,4.94,0,1,1,0,9.88H808.32c-4.85,27.39-9.7,54.42-9.7,54.42a5.15,5.15,0,0,1-4.84,4.1,4.85,4.85,0,0,1-5-4.85c0-.37.18-.56.18-.93l20.13-113.5A4.83,4.83,0,0,1,813.91,701.67Z"></path><path class="cls-2" d="M957,700a78.66,78.66,0,0,1,36.71,8.58,3.81,3.81,0,0,1,1.87,3.54,4.94,4.94,0,0,1-5,5.21c-4.48,0-8.21-7.45-33.55-7.45-9.88,0-24.23,1.68-36.9,10.06-15.1,10.07-26.65,30-26.65,54.42,0,30.94,25.53,42.5,43.23,42.5,30.2,0,42.12-12.86,44.92-15.66l5.78-33.92H947a4.86,4.86,0,0,1-5-4.84,5,5,0,0,1,5-4.85h46.22a4.86,4.86,0,0,1,4.85,5v.75L991,804.17a3.89,3.89,0,0,1-.75,1.87c-.56.93-18.08,20.68-53.49,20.68-28.51,0-53.11-19.38-53.11-52.37,0-27.77,13.23-50.88,31.12-62.62C929.46,702,945.86,700,957,700Z"></path><path class="cls-2" d="M1136.33,700.18A4.9,4.9,0,0,1,1141,705V706l-20.13,115.36a5.15,5.15,0,0,1-4.85,4.1,4.86,4.86,0,0,1-5-4.85c0-.37.19-.55.19-.93l9.13-52.93h-74.55l-9.5,54.61a5.16,5.16,0,0,1-4.85,4.1,5,5,0,0,1-5-4.85c0-.37.19-.55.19-.93l20.12-115.36a5.18,5.18,0,0,1,5-4.1,4.89,4.89,0,0,1,4.65,4.84V706l-8.94,50.87h74.73l9.14-52.55A5.17,5.17,0,0,1,1136.33,700.18Z"></path><path class="cls-2" d="M1194.48,700.18a4.89,4.89,0,0,1,4.65,4.84V706L1179,821.32a5.16,5.16,0,0,1-4.85,4.1,4.86,4.86,0,0,1-5-4.85c0-.37.19-.55.19-.93l20.12-115.36A5.18,5.18,0,0,1,1194.48,700.18Z"></path><path class="cls-2" d="M1285.05,700.18A5,5,0,0,1,1289,706l-16.59,94.11c-.75,3.92-3.36,9.14-6.15,12.86A31.85,31.85,0,0,1,1240,825.79c-13.79,0-20.69-5.77-23.86-10.62a20.77,20.77,0,0,1-3.91-11,4.94,4.94,0,1,1,9.88-.18,12.39,12.39,0,0,0,2.23,6c3,3.91,8.2,6,15.66,6a22.36,22.36,0,0,0,18.26-8.57,26.18,26.18,0,0,0,4.48-9.13c.18-.37,16.58-93.93,16.58-93.93A5,5,0,0,1,1285.05,700.18Z"></path><path class="cls-2" d="M1408.43,700.36a4.93,4.93,0,0,1,4.84,4.85,4.67,4.67,0,0,1-2.23,4.1s-64.3,42.12-73.06,47.9c7.46,7.45,59.64,59.82,59.64,59.82a4,4,0,0,1,1.49,3.36,4.86,4.86,0,0,1-4.85,5,5.12,5.12,0,0,1-3.54-1.49l-57.21-57.22L1324,821.32a5.15,5.15,0,0,1-4.84,4.1,5,5,0,0,1-5-4.85c0-.37.19-.55.19-.93l11-63v-.19a3.37,3.37,0,0,1,.37-1.86l8.76-50.32a5.17,5.17,0,0,1,5-4.1,4.93,4.93,0,0,1,4.66,5V706L1337.05,746l68.77-44.92A4.29,4.29,0,0,1,1408.43,700.36Z"></path><path class="cls-2" d="M1458.75,700.18a5.06,5.06,0,0,1,4.84,4.84c0,1.87-17.33,98.41-19.19,109.22h59.08a4.85,4.85,0,1,1,0,9.69h-65a4.93,4.93,0,0,1-4.84-4.85v-.74l20.31-114.06A4.84,4.84,0,0,1,1458.75,700.18Z"></path><path class="cls-2" d="M1685.38,700.18a5,5,0,0,1,5,5.4L1676.8,821a5,5,0,0,1-9.88-.56c0-1.12,8.2-69.15,11.37-96.36-16.4,23.49-65.41,93.93-65.41,93.93a5,5,0,0,1-4.1,2.06,4.6,4.6,0,0,1-4.48-3.36s-24.41-70.45-32.42-93.93C1566.1,747,1549,821.51,1549,821.51a5.16,5.16,0,0,1-4.84,3.91,4.82,4.82,0,0,1-4.85-4.85,3.09,3.09,0,0,1,.19-1.3l26.65-115.36a5.2,5.2,0,0,1,4.66-3.73,5,5,0,0,1,4.84,3.35s29.45,85.55,34.85,100.83c9.51-13.61,71-102.13,71-102.13A4.84,4.84,0,0,1,1685.38,700.18Z"></path><path class="cls-2" d="M297.47,923.82a5,5,0,0,1,4.85,5v.74L281.82,1045a4.88,4.88,0,0,1-9.13,1.49s-47-84.24-57.78-103.44c-3.73,21.06-18.08,102-18.08,102a5,5,0,0,1-4.65,4.1,5,5,0,0,1-5-5v-.74l20.5-115.36a4.79,4.79,0,0,1,4.48-4.11,5.85,5.85,0,0,1,4.66,2.43s47.15,83.86,58,102.87c3.72-20.87,17.89-101.19,17.89-101.19A4.82,4.82,0,0,1,297.47,923.82Z"></path><path class="cls-2" d="M392.15,923.45c28.14,0,46.78,20.13,46.78,49.76,0,42.68-31.31,77.16-67.09,77.16-28.89,0-47-21.25-47-50.13C324.87,963.52,352.27,923.45,392.15,923.45Zm-57.4,76.79c0,24.41,14.16,40.25,37.09,40.25,31.49,0,57.4-31.68,57.4-67.28,0-24.41-14.72-39.88-37.09-39.88C359,933.33,334.75,967.25,334.75,1000.24Z"></path><path class="cls-2" d="M504.35,923.27c25.34,0,40.25,9.69,40.25,27.76,0,29.82-26.65,41.75-51.62,41.75a87.46,87.46,0,0,1-10.81-.74c-1.31,7.45-9.32,52.93-9.32,52.93a5.34,5.34,0,0,1-4.85,4.1,5,5,0,0,1-5-4.85c0-.37.19-.56.19-.93l20.13-114.62a4.74,4.74,0,0,1,3.91-3.91A87.31,87.31,0,0,1,504.35,923.27Zm-.38,9.87a89.86,89.86,0,0,0-11.55.75c-1.12,5.59-7.08,40.26-8.57,48.46a84.19,84.19,0,0,0,9.5.55c22.92,0,41.56-10.06,41.56-31.68,0-12.3-10.25-17.7-28.7-18.08Z"></path><path class="cls-2" d="M627,923.45c28.14,0,46.78,20.13,46.78,49.76,0,25-10.62,47-26.65,61.13l9.69,9.88a5,5,0,0,1-.19,7.08,5,5,0,0,1-6.89-.18l-10.44-10.81c-9.88,6.33-21.06,10.06-32.62,10.06-28.88,0-47-21.25-47-50.13C559.7,963.52,587.1,923.45,627,923.45Zm-57.4,76.79c0,24.41,14.16,40.25,37.08,40.25a48.59,48.59,0,0,0,25.72-7.45l-12.48-13a4.77,4.77,0,0,1,0-6.89,4.93,4.93,0,0,1,6.89,0l13.61,14.16c14.35-12.67,23.67-32.61,23.67-54,0-24.41-14.73-39.88-37.09-39.88C593.8,933.33,569.58,967.25,569.58,1000.24Z"></path><path class="cls-2" d="M744.58,922.52c23.11,0,36.34,9.51,36.34,26.47,0,33.73-31.68,39.88-49.76,39.88,13,13.6,50.51,53.49,50.51,53.49a4.49,4.49,0,0,1,1.3,3.35,4.93,4.93,0,0,1-4.85,4.85,5.12,5.12,0,0,1-3.54-1.49s-50.13-53.31-56.09-59.46c-.75,3.54-9.88,55.36-9.88,55.36a4.88,4.88,0,0,1-9.69-.75c0-.37.18-.56.18-.93l20.13-114.62a4.75,4.75,0,0,1,3.73-3.91,93.18,93.18,0,0,1,19.2-2.24ZM728.36,933.7c-.93,4.85-5.77,31.87-7.82,44.17A70.48,70.48,0,0,0,733.4,979c16.4,0,37.83-6.71,37.83-30,0-12.12-10.25-16.78-28.7-16.78A103.8,103.8,0,0,0,728.36,933.7Z"></path><path class="cls-2" d="M868.51,923.45c13,0,29.82,7.08,29.82,16.22a4.8,4.8,0,0,1-4.84,4.84c-5.41,0-5.78-11.18-25-11.18-20.5,0-32.61,9.5-32.61,25.35,0,8.57,7.64,14.35,17.33,20.5,18.45,11.74,32.62,17,32.62,33.54,0,23.49-19.39,37.65-47,37.65-16.59,0-29.07-6-36.16-17.15a4.41,4.41,0,0,1-.93-2.61,5,5,0,0,1,5-4.84,4.89,4.89,0,0,1,4.1,2.24c6.71,10.43,18.83,12.48,28,12.48,22.18,0,37.09-10.06,37.09-27.77,0-7.64-3.73-10.06-12.86-15.65C846.89,987.38,826,975.26,826,958.68,826,935.57,844.84,923.45,868.51,923.45Z"></path><path class="cls-2" d="M1003.44,925.32a4.94,4.94,0,0,1,0,9.87h-38L946,1045a4.88,4.88,0,0,1-9.69-.75c0-.37.19-.56.19-.93l18.82-108.1H919.2a4.94,4.94,0,0,1,0-9.87Z"></path><path class="cls-2" d="M1116.38,923.82a4.78,4.78,0,0,1,4.85,4.66v.94l-10.44,59.45c-6.15,35-26.09,61.5-58.14,61.5-35.23,0-43.43-32.61-38-63.18l10.43-59.45a4.85,4.85,0,0,1,4.85-3.92,4.77,4.77,0,0,1,4.84,4.66v.94l-10.43,59.45c-3.92,22,.37,51.62,28.33,51.62,27,0,43-22.92,48.45-53.3l10.44-59.45A5.15,5.15,0,0,1,1116.38,923.82Z"></path><path class="cls-2" d="M1141.91,924.38a5,5,0,0,1,4.85,3.73s17.15,81.63,21.43,101.95c10.25-18.64,58-103.25,58-103.25a4.57,4.57,0,0,1,4.28-2.43,4.94,4.94,0,0,1,4.85,4.85,5.74,5.74,0,0,1-.56,2.42l-64.49,114.43a5,5,0,0,1-4.47,2.61,4.6,4.6,0,0,1-4.47-3.91l-24-114.62a2,2,0,0,1-.19-.93,5.16,5.16,0,0,1,3.91-4.85Z"></path><path class="cls-2" d="M1405.07,924.38a4.94,4.94,0,0,1,4.85,4.85,5.74,5.74,0,0,1-.56,2.42l-64.3,114.62a4.85,4.85,0,0,1-4.1,2.42c-2.8,0-4.85-1.67-5-4.28l-11.56-99.53-56.84,101.39a4.85,4.85,0,0,1-4.1,2.42c-2.8,0-4.85-1.67-5-4.28l-13.24-114.62c0-3.17,1.87-5.41,5-5.41a4.83,4.83,0,0,1,4.84,4.29s8.76,76.79,11.37,99.52c11.56-20.68,56.84-101.38,56.84-101.38l.38-.56a5,5,0,0,1,4.1-1.87,4.83,4.83,0,0,1,4.84,4.29s8.76,76.79,11.37,99.52c11.56-20.68,56.84-101.38,56.84-101.38A4.78,4.78,0,0,1,1405.07,924.38Z"></path><path class="cls-2" d="M1508.69,924.38a4.94,4.94,0,0,1,4.85,4.85,4.38,4.38,0,0,1-1.31,3.17L1467.13,984l30,57.59a4.83,4.83,0,0,1-4.48,7.08,4.94,4.94,0,0,1-4.28-2.61l-28.14-54-47.9,55a4.72,4.72,0,0,1-3.73,1.67,4.88,4.88,0,0,1-3.54-8.2l50.32-57.77-26.46-51.25a4.89,4.89,0,0,1-.56-2.24,5,5,0,0,1,2.61-4.47,3.93,3.93,0,0,1,2-.38,5.32,5.32,0,0,1,4.65,2.61l24.79,47.9L1505,926.06A5,5,0,0,1,1508.69,924.38Z"></path><path class="cls-2" d="M1533.29,924.38a4.84,4.84,0,0,1,4.48,2.61s22.36,45.85,27.58,56.66c8-9.5,48.27-57.59,48.27-57.59a5,5,0,0,1,3.73-1.68,5.24,5.24,0,0,1,5,4.85,5,5,0,0,1-1.12,3.17l-52.37,62.25-9,50.32a4.8,4.8,0,0,1-4.84,4.1,5.08,5.08,0,0,1-4.85-4.85c0-.37.19-.56.19-.93l8.57-49.76-30-62.25a4.77,4.77,0,0,1-.56-2,5.2,5.2,0,0,1,2.79-4.47A4.3,4.3,0,0,1,1533.29,924.38Z"></path><path class="cls-2" d="M1726.56,925.32a5,5,0,0,1,3.73,8.2s-78.65,90.2-90.77,104.18h68.77a4.94,4.94,0,1,1,0,9.87h-79.58a5.1,5.1,0,0,1-5-4.84,5.36,5.36,0,0,1,1.31-3.36s78.46-90.2,90.76-104.18h-69a4.94,4.94,0,0,1,0-9.87Z"></path></svg> 