<?xml version="1.0" encoding="UTF-8"?> <svg xmlns="http://www.w3.org/2000/svg" id="icons" viewBox="0 0 800 800"><defs><style>.cls-1{fill:#65d7e7;}.cls-2{fill:#e7bb86;}.cls-3{fill:#a0e6b4;}.cls-4{fill:#b08fe3;}</style></defs><path class="cls-2" d="m252.78,127.13c-5.25-3.21-10.89-5.63-16.81-7.24,1.36-5.3,1.81-10.85,1.04-16.08,4.7-2.34,9.67-4.04,14.85-5.05l-1.17-5.98c-5.27,1.03-10.36,2.7-15.2,4.98-1.09-2.95-2.68-5.69-4.83-8.09l-.28-.32c-.57-.64-1.31-1.46-2.23-2.36,3.65-4.9,8-9.18,12.98-12.74,1.37-.98,1.69-2.88.71-4.25-.98-1.37-2.88-1.69-4.25-.71-5.47,3.9-10.25,8.59-14.27,13.97-3.33-1.98-7.76-3.51-13.53-3.22-.62-5.97-2.06-11.82-4.33-17.45-.63-1.56-2.4-2.29-3.96-1.66-1.56.63-2.3,2.42-1.68,3.98,2.07,5.15,3.38,10.53,3.93,16.03-1,.24-2.04.53-3.11.88-3.88,1.27-7.82,3.54-11.22,6.64-4.88-4.35-10.37-7.93-16.37-10.64-1.53-.69-3.32,0-4.01,1.53-.69,1.53,0,3.34,1.54,4.04,5.41,2.44,10.37,5.68,14.79,9.61-2.64,3.63-4.51,7.98-5.1,12.95-7.17-.37-14.29.44-21.22,2.43-1.62.47-2.53,2.15-2.07,3.76.38,1.33,1.61,2.2,2.94,2.2.28,0,.56-.04.84-.12,6.29-1.81,12.8-2.54,19.33-2.19.27,4.84,1.42,9.93,3.37,14.56-3.66,5.38-8.16,10.09-13.38,13.99-1.35,1.01-1.62,2.92-.62,4.26.6.8,1.51,1.22,2.44,1.22.63,0,1.27-.2,1.82-.61,4.9-3.66,9.22-7.98,12.91-12.87,2.63,4,6.01,7.27,10.09,9.13.32.15.65.28.98.42-3.28,5.33-5.76,11.09-7.39,17.17l5.89,1.56c1.61-6.04,4.17-11.73,7.59-16.95,1.69.3,3.41.46,5.14.46,3.31,0,6.63-.58,9.76-1.81,2.25,5.18,5.16,10.04,8.72,14.52.6.74,1.47,1.11,2.34,1.11.67,0,1.35-.22,1.92-.68,1.31-1.05,1.51-2.97.46-4.28-3.31-4.16-6-8.73-8.06-13.6,2.65-1.92,5.02-4.46,6.93-7.7,1.16-1.97,2.19-4.08,3.07-6.29,5.47,1.45,10.68,3.68,15.52,6.64.5.3,1.05.45,1.59.45,1.03,0,2.03-.52,2.6-1.46.88-1.44.43-3.31-1.01-4.19Zm-27.02,1.77c-1.34,2.28-2.95,4.09-4.72,5.49-.68-.29-1.45-.35-2.2-.09-1.15.4-1.9,1.43-2.02,2.57-5.72,2.39-12.31,1.74-17.56-.65-8.95-4.08-13.76-17.88-13.08-28.33.68-10.51,8.71-17.75,16.37-20.26,1.19-.39,2.31-.69,3.39-.92.34.13.71.21,1.1.21.05,0,.1,0,.15,0,.68-.03,1.29-.29,1.78-.7,9.53-.98,14.17,4.19,16.86,7.2l.3.33c1.65,1.83,2.98,4.21,3.89,6.98-1.09.94-1.38,2.54-.63,3.83.4.69,1.05,1.15,1.76,1.37.8,6.75-.63,14.88-5.38,22.97Z"></path><path class="cls-2" d="m219.55,116.71c-1.58-.57-3.33.24-3.9,1.82-.66,1.81-1.64,2.98-3,3.6-2.39,1.08-5.64.26-6.67-.15-1.56-.63-3.34.13-3.96,1.69-.63,1.56.13,3.34,1.69,3.96.41.16,2.96,1.14,6.13,1.14,1.66,0,3.5-.27,5.28-1.06,2.88-1.28,5.05-3.74,6.27-7.09.58-1.58-.24-3.33-1.82-3.9Z"></path><path class="cls-2" d="m193.91,107.14c-1.64.38-2.66,2.01-2.29,3.65.05.22.12.43.21.62l-.02.43.58.38c.34.35.76.62,1.23.78.6.29,1.36.42,2.09.42.79,0,1.57-.15,2.1-.43,1.36-.7,2.03-2.36,1.5-3.81-1.1-3-5.37-2.06-5.41-2.05Z"></path><path class="cls-2" d="m210.13,105.27c.64,1.1,1.83,1.77,3.22,1.82.05,0,.1,0,.15,0,1.4,0,2.62-.64,3.29-1.74.84-1.37.58-3.1-.63-4.22-1.31-1.21-3.87-1.65-5.59-.4-1.36.99-1.66,2.9-.67,4.26.07.1.15.19.23.28Z"></path><path class="cls-4" d="m531.38,290.06c-.56.12-1.15.02-1.67-.31-1.03-.67-1.33-2.05-.66-3.09.28-.43.65-.75,1.11-1.16,1.61-1.41,4.95-4.34,4.04-11.58-.15-1.22.72-2.34,1.94-2.49,1.22-.15,2.34.71,2.49,1.94,1.2,9.59-3.68,13.88-5.52,15.49-.16.14-.3.25-.39.35-.34.45-.82.74-1.34.85Zm1.42-.97s-.03.05-.05.07c.02-.03.04-.05.05-.07Z"></path><path class="cls-4" d="m535.89,270.06s-.1.02-.15.03c-1.22.17-2.34-.68-2.51-1.9-.19-1.3-1.21-5.23-3.4-6.24-1.12-.51-1.61-1.84-1.1-2.96.51-1.12,1.84-1.61,2.96-1.1,4.8,2.2,5.86,8.92,5.96,9.68.16,1.17-.62,2.25-1.76,2.49Z"></path><path class="cls-4" d="m526.83,259c-.79.16-1.63-.11-2.18-.77-.31-.36-.87-.73-1.02-.66-1.15.46-2.44-.1-2.9-1.24-.46-1.14.1-2.44,1.24-2.9,2.71-1.08,5.13.74,6.14,1.99.77.96.62,2.36-.33,3.14-.29.23-.61.38-.95.45Z"></path><path class="cls-1" d="m245.56,268.11c-10.37-3.77-18.05-10.26-20.37-14.94-4-8.07-16.18-32.63,9.05-52.92,4.83-3.89,21.98-15.83,39.82-6.16,2.21,1.19,7.3,4.38,6.92,8.15-.19,1.92-1.91,3.33-3.83,3.14-1.52-.15-2.72-1.26-3.06-2.67-.88-1.03-4.56-3.87-10.51-4.88-5.71-.97-14.67-.39-24.95,7.89-18.48,14.86-13.53,31.51-7.16,44.36,1.65,3.32,12.04,12.33,26.79,13.87,15.93,1.66,31.23-6.16,44.22-22.63,31.52-39.93.3-68.16-1.04-69.34-1.45-1.27-1.6-3.48-.33-4.94,1.27-1.45,3.47-1.6,4.93-.34.39.34,9.64,8.51,14.52,22.36,8.18,23.22-2.33,43.59-12.59,56.59-18.39,23.3-37.58,26.6-50.44,25.26-4.25-.44-8.28-1.44-11.97-2.78Z"></path><path class="cls-1" d="m205.16,246.22c-3.53-1.28-4.44-6.02-4.67-8-.22-1.92,1.15-3.66,3.07-3.88,1.92-.22,3.66,1.16,3.88,3.07.11.88.41,1.99.66,2.48,1.44.83,2.13,2.6,1.54,4.23-.66,1.82-2.67,2.76-4.48,2.1Zm2.39-6.58h0s0,0,0,0Z"></path><path class="cls-1" d="m207.6,221.99c-.3-.11-.59-.26-.86-.46-1.57-1.13-1.92-3.32-.78-4.89,1.14-1.58,4.49-7.94,6.09-11.29.84-1.74,2.93-2.47,4.67-1.64,1.74.84,2.48,2.93,1.64,4.67-1.28,2.67-5.04,10.02-6.73,12.36-.94,1.29-2.6,1.76-4.03,1.24Z"></path><path class="cls-2" d="m520.4,687.84c7.3-8.28,16.15-13.05,21.35-13.5,8.97-.78,36.28-3.14,45.96,27.76,1.85,5.92,6.7,26.24-8.81,39.32-1.92,1.62-6.75,5.19-10.12,3.47-1.72-.88-2.4-2.99-1.52-4.71.7-1.36,2.17-2.08,3.61-1.87,1.28-.44,5.27-2.83,8.39-8,2.99-4.96,5.72-13.51,1.78-26.11-7.09-22.63-24.39-24.11-38.67-22.87-3.7.32-15.87,6.7-22.7,19.87-7.37,14.23-5.67,31.32,4.91,49.43,25.66,43.93,63.33,25.18,64.92,24.37,1.72-.88,3.83-.21,4.71,1.5.89,1.71.22,3.82-1.49,4.71-.46.24-11.44,5.86-26.12,5.34-24.61-.87-39.73-18.1-48.08-32.39-14.97-25.64-11.03-44.7-5.08-56.18,1.97-3.79,4.36-7.18,6.96-10.13Z"></path><path class="cls-2" d="m555.53,658.23c2.48-2.82,7.23-1.94,9.15-1.43,1.87.49,2.98,2.41,2.49,4.28-.5,1.87-2.41,2.98-4.28,2.49-.86-.22-2-.35-2.56-.29-1.3,1.04-3.2,1.03-4.5-.11-1.45-1.28-1.59-3.49-.31-4.94Zm5.25,4.63h0s0,0,0,0Z"></path><path class="cls-2" d="m577.2,669.35c.21-.24.46-.45.74-.63,1.63-1.04,3.79-.57,4.84,1.06,1.05,1.64,5.75,7.08,8.28,9.8,1.32,1.41,1.23,3.63-.18,4.95-1.42,1.32-3.63,1.24-4.95-.18-2.02-2.17-7.49-8.36-9.04-10.78-.86-1.35-.69-3.06.32-4.2Z"></path><path class="cls-3" d="m780.51,523.49c-.89-2.87-1.86-6.5-2.71-9.82l-1.7-7.2c-.23-6.16-1.35-10.37-1.83-11.9-1.14-3.67-2.32-5.7-3.71-6.38-.67-.33-1.39-.26-2.2-.04-.16.04-9.05,2.2-9.05,2.2l-1.44-6.27c-.24-1.06-.9-1.98-1.83-2.55-.93-.57-2.05-.74-3.1-.48-8.12,2.03-16.88,5.72-26.04,10.97-7.36,4.22-13.1,8.39-15.86,10.5-9.31-2.93-20.68-3.63-26.64-3.79-9.5-.25-17.66.49-21.84,1.98-2.11.75-3.12,3.04-2.45,5.18.86,2.78,3.63,2.79,5.55,2.33-.03.65-.03,2.59.04,3.59l-11.2,2.57c-2.15.49-2.73,2.32-2.26,4.22l15.39,67.08c.4,1.75,1.92,3.02,3.71,3.1,19.74.93,56.07-2.8,58.61-3.06,1.88-.13,3.07-.6,4.47-1.08,1.16-.37,6.76-2.28,15.77-5.83,16.36-6.44,28.62-12.71,36.03-16.83,1.56-.87,2.36-2.67,1.95-4.41l-6.25-26.47c-.01-.1-.03-.19-.04-.29-.37-2.63-.75-5.36-1.37-7.34Zm-107.4-16.4c3.06-.24,6.8-.35,11.08-.23,9.41.25,18.86,1.41,24.97,3.33,2.51.79,4.71.4,6.8-1.2,4.36-3.33,18.99-13.89,34.96-18.92l13.38,58.34c-6.25,3.33-21.39,11.85-32.26,21.66l-4.81-20.98c2.44-1.95,15.25-11.97,23.05-15.34,2.23-.96,3.4-2.35,2.9-4.24-.53-2.02-2.6-2.92-4.61-2.35-6.58,1.88-15.88,8.81-22.7,13.71-.15.11-.31.22-.46.33l-1.97-8.58c1.19-.84,2.57-2.1,4.07-3.21,5.35-3.94,13.19-9.65,18.04-11.82,1.97-.88,3.02-2.27,2.58-4.03-.5-2.02-2.66-3.17-4.66-2.6-5.9,1.67-13.91,7.82-20.38,12.59-.5.37-1.18.96-1.66,1.31l-2.46-10.39c-.46-2-1.9-3.48-4.19-3.01-2.01.41-3.17,2.44-2.58,4.77l2.32,10.7c-.07-.01-.14-.02-.21-.04-8.07-1.36-20.32-3.63-26.85-2.47-2.05.36-3.42,2.32-3.06,4.37.36,2.05,2.02,2.62,4.1,2.5,7.24-.4,17.92,1.93,24.56,3.05,1.14.19,2.21.37,3.13.52.05,0,.11.02.16.02l1.93,8.43c-7.99-1.2-21.05-3.35-28.35-2.08-2.05.36-3.43,2.31-3.07,4.36.36,2.05,2.35,3.11,4.42,2.85,6.29-.79,19.27,1.44,26.28,2.5.96.14,1.8.27,2.56.38l5.25,22.87c-8.2-2.42-25.83-7.14-39.57-7.36-2.79-10.58-12.17-45.73-12.39-57.61-.01-.73-.05-1.29-.28-2.11Zm-12.08,14.02l5.72-1.31c3.16,19.39,11.59,50.57,12.03,52.16.5,1.83,1.96,3.03,4.08,2.99,8.62-.16,20.91,1.99,30.19,4.29-11.47.92-27.02,1.91-38.3,1.67l-13.72-59.8Zm78.44,53.22c12.82-10.84,30.9-19.94,31.3-20.16,1.82-.97,2.56-2.71,2.14-4.53l-11.81-51.49,4.58-1.05,14.01,59.35c-15.51,8.37-31.05,14.53-40.22,17.88Z"></path><path class="cls-3" d="m735.39,482.23c1.04-.79,3.03-2.13,4.14-2.76,1.14-.65,1.87-.64,3.11-1.15.86-.36,2.03-1.05,2.92-1.35,1.61-.55,3.24-1.04,4.83-1.47,2.27-.63,3.46-1.75,3.2-3.95-.26-2.42-2.67-3.99-4.97-3.26-2.29.66-4.54,1.53-6.71,2.59-1.33.65-2.81,2-4.06,2.81-1.99,1.3-2.02.81-5.87,4.65-1.49,1.49-.94,3-.6,3.59.7,1.24,2.87,1.19,4,.31Z"></path><path class="cls-1" d="m194.01,705.6c-.86,0-1.71-.36-2.3-1.07-1.06-1.27-.9-3.16.37-4.22h0c.15-.12,14.86-12.67,14.31-26.31-.26-6.5-4.06-12.41-11.28-17.55-8.08-5.76-16.69-1.89-22.05,3.65-5.94,6.14-9.29,15.84-4.2,22.5,2.19,2.86,5.51,4.56,8.92,4.56.05,0,.09,0,.14,0,3.34-.05,6.38-1.73,8.54-4.73,1.63-2.25,1.13-3.99.7-4.82-.59-1.13-1.71-1.83-2.88-1.82-1.69.04-3.38,1.59-4.65,4.27-.71,1.5-2.5,2.14-3.99,1.43s-2.14-2.5-1.43-3.99c2.27-4.81,5.9-7.62,9.94-7.71,3.51-.06,6.65,1.85,8.32,5.03,1.82,3.46,1.39,7.62-1.14,11.12-3.31,4.59-8.04,7.15-13.33,7.22-5.38.06-10.55-2.51-13.91-6.92-7.15-9.36-3.07-22.34,4.65-30.32,8.92-9.22,20.63-10.93,29.84-4.37,8.82,6.28,13.46,13.76,13.79,22.22.65,16.6-15.75,30.54-16.45,31.12-.56.47-1.25.7-1.92.7Z"></path><path class="cls-1" d="m284.85,159.97c-.45-.16-.88-.35-1.3-.55-6.52-3.21-4.57-8.68-3.4-11.95.51-1.43,1.04-2.91,1.24-4.47.28-2.18,1.37-4.03,3.13-5.34,4.22-3.13,11.05-2.2,12.38-1.99l1.29.21.83,1c.74.89,7.13,8.84,4.7,15.54-1.12,3.09-3.86,5.71-7.52,7.18-3.75,1.51-7.89,1.63-11.35.37Zm1.06-7.29c.09.08.3.24.73.46,1.9.94,4.57.93,6.95-.03,1.79-.72,3.11-1.87,3.55-3.07.65-1.8-1.02-5.24-2.69-7.6-2.04-.14-4.65.01-5.76.84-.24.18-.32.32-.36.62-.3,2.3-1.02,4.31-1.59,5.92-.33.93-.83,2.32-.83,2.85Z"></path><path class="cls-1" d="m259.12,169.12c-.87-.32-1.69-.68-2.45-1.1-4.41-2.41-6.82-6.29-6.61-10.64.35-6.97,8.48-11.29,24.19-12.83,5.13-.51,10,1.75,12.7,5.88h0c3.43,5.25,2,10.86-3.82,15.02-7.83,5.59-17.44,6.06-24.01,3.67Zm18.92-17.22c-.96-.35-2.02-.49-3.1-.38-12.96,1.27-17.79,4.41-17.88,6.21-.1,2.03,1.56,3.38,2.97,4.15,4.4,2.41,12.57,2.48,19.03-2.13,3.83-2.74,2.75-4.4,2.03-5.5-.71-1.08-1.79-1.9-3.05-2.36Z"></path><path class="cls-1" d="m277.08,148.32c-1.79-.65-3.57-1.82-5.28-3.5-7.77-7.65-9.45-18.68-7.09-25.62,1.62-4.76,5.02-7.8,9.35-8.34,10.36-1.28,20.32,21,21.68,25.88,1.47,5.31-3.58,7.16-5.73,7.96-1.04.38-2.22.82-2.74,1.31h0c-3.05,2.85-6.62,3.61-10.18,2.32Zm-1.48-30.41c-.25-.09-.48-.13-.68-.1-2.02.25-3.06,2.12-3.58,3.64-1.61,4.76-.28,12.81,5.37,18.38,3.36,3.3,4.8,1.95,5.76,1.06,1.56-1.46,3.53-2.18,5.11-2.76.34-.12.76-.28,1.13-.43-2.45-7.6-9.78-18.57-13.11-19.78Z"></path><path class="cls-1" d="m300.35,150.1c-2.58-.94-3.83-3.91-4.47-5.43-.43-1.02-.92-2.18-1.43-2.68-4.48-4.38-4.3-10.17.48-15.49,7.29-8.1,18.23-10.28,25.27-8.24,4.83,1.4,8.02,4.67,8.75,8.96,1.75,10.29-20.07,21.25-24.87,22.82-1.48.49-2.72.43-3.74.06Zm18.5-24.93c-.2-.07-.4-.14-.59-.19-4.82-1.4-12.81.3-18.12,6.2-3.15,3.5-1.73,4.89-.8,5.8h0c1.53,1.49,2.34,3.43,2.99,4.98.14.33.31.75.48,1.11,8.05-2.99,19.73-11.81,19.24-14.68-.3-1.76-1.8-2.71-3.21-3.22Z"></path><path class="cls-1" d="m287.12,191.13c-.13-.05-.26-.1-.4-.15-4.06-1.66-6.48-6.97-7.2-15.79-.49-5.97-.1-13.12.94-17.37,1.31-5.35,6.62-4.5,8.89-4.14,1.09.17,2.34.37,3.03.2,6.08-1.5,10.91,1.71,12.91,8.58,3.04,10.47-.88,20.91-6.33,25.82-3.62,3.26-7.91,4.29-11.83,2.86Zm-.07-30.72c-1.83,8.93-.17,23.08,2.32,24.09,1.9.77,3.71-.35,4.9-1.43,3.73-3.36,6.51-11.04,4.29-18.66-1.32-4.53-3.24-4.05-4.51-3.74h0c-2.07.51-4.14.18-5.81-.09-.35-.06-.8-.13-1.2-.18Z"></path><path class="cls-1" d="m314.97,174.3c-6.05-2.2-11.87-7.78-15.77-11.51-1.25-1.2-2.34-2.24-3.17-2.94-.54-.45-2.17-1.82-2.23-4-.06-2.1,1.3-3.38,2.11-4.15.66-.63.94-.93,1.04-1.39h0c1.35-6.12,6.37-9.02,13.41-7.77,10.82,1.92,17.82,9.58,19.97,16.32,1.58,4.95.69,9.61-2.44,12.79-3.98,4.05-8.51,4.25-12.93,2.65Zm-13.13-18.66c.68.62,1.41,1.33,2.21,2.09,7.22,6.92,14.62,13.32,18.86,9.01,1.71-1.74,1.21-4.35.77-5.76-1.46-4.58-6.63-10.15-14.53-11.55-4.64-.83-5.07,1.11-5.35,2.39h0c-.38,1.71-1.18,2.94-1.95,3.82Z"></path><path class="cls-1" d="m287.68,160.18c-6.21-2.25-9.43-9.14-7.17-15.35,2.25-6.21,9.14-9.43,15.35-7.17,6.21,2.25,9.43,9.14,7.17,15.35-2.25,6.21-9.14,9.43-15.35,7.17Zm5.79-15.94c-2.58-.94-5.44.4-6.38,2.98s.4,5.44,2.98,6.38c2.58.94,5.44-.4,6.38-2.98s-.4-5.44-2.98-6.38Z"></path><path class="cls-4" d="m511.08,152.66c-.29-.17-.58-.36-.85-.56-4.19-3.09-2.12-6.7-.88-8.85.54-.94,1.1-1.92,1.44-2.99.48-1.5,1.47-2.67,2.88-3.37,3.37-1.67,8.07-.15,8.98.17l.88.31.46.81c.41.72,3.91,7.13,1.34,11.55-1.18,2.04-3.45,3.53-6.21,4.11-2.83.59-5.77.15-8.05-1.18Zm1.67-5.01c.05.07.18.21.46.42,1.22.9,3.1,1.23,4.9.86,1.35-.28,2.43-.92,2.89-1.71.69-1.19-.06-3.82-.93-5.7-1.42-.36-3.28-.58-4.17-.14-.19.1-.27.19-.34.39-.5,1.58-1.26,2.91-1.87,3.97-.35.62-.88,1.53-.94,1.91Z"></path><path class="cls-4" d="m491.78,155.86c-.58-.33-1.11-.7-1.59-1.08-2.81-2.26-4.01-5.3-3.31-8.34,1.13-4.87,7.41-6.88,18.68-5.98,3.68.29,6.83,2.5,8.21,5.75h0c1.75,4.13.03,7.91-4.6,10.11-6.23,2.95-13.06,2.06-17.39-.45Zm15.52-9.74c-.63-.37-1.36-.6-2.14-.66-9.29-.75-13.1.86-13.39,2.11-.33,1.42.67,2.58,1.57,3.3,2.8,2.26,8.55,3.34,13.69.91,3.05-1.44,2.5-2.75,2.13-3.62-.36-.85-1.02-1.57-1.85-2.05Z"></path><path class="cls-4" d="m507.07,143.47c-1.18-.68-2.29-1.73-3.28-3.13-4.51-6.38-4.29-14.37-1.75-18.96,1.74-3.15,4.53-4.86,7.65-4.69,7.47.41,11.66,17.38,12,20.99.37,3.93-3.43,4.6-5.05,4.88-.78.14-1.67.29-2.1.57h0c-2.51,1.62-5.13,1.7-7.47.34Zm2.81-21.62c-.17-.1-.32-.15-.47-.16-1.46-.08-2.43,1.11-2.98,2.11-1.74,3.15-1.82,9,1.46,13.64,1.95,2.76,3.14,1.99,3.93,1.48,1.28-.83,2.76-1.09,3.95-1.3.25-.04.57-.1.85-.16-.76-5.67-4.54-14.33-6.74-15.61Z"></path><path class="cls-4" d="m523.26,147.68c-1.7-.99-2.21-3.25-2.46-4.4-.17-.77-.37-1.65-.67-2.07-2.61-3.66-1.74-7.72,2.31-10.86,6.17-4.79,14.16-4.93,18.86-2.6,3.23,1.6,5.06,4.31,5.03,7.43-.07,7.48-16.84,12.43-20.43,12.93-1.11.15-1.97-.04-2.64-.43Zm16.21-15.23c-.13-.08-.26-.15-.39-.21-3.22-1.6-9.07-1.42-13.56,2.07-2.67,2.07-1.84,3.23-1.3,3.99h0c.89,1.25,1.21,2.71,1.48,3.89.06.25.13.57.2.84,6.05-1.09,15.41-5.82,15.43-7.91.01-1.28-.93-2.14-1.85-2.68Z"></path><path class="cls-4" d="m508.73,174.92c-.09-.05-.17-.1-.26-.16-2.65-1.68-3.69-5.74-3.08-12.05.41-4.27,1.59-9.26,2.86-12.13,1.6-3.61,5.24-2.33,6.79-1.79.75.26,1.6.56,2.11.53,4.48-.28,7.47,2.59,8.01,7.69.82,7.77-3.27,14.63-7.74,17.4-2.96,1.84-6.12,2.02-8.71.52Zm3.84-21.67c-2.42,6.06-3.04,16.25-1.42,17.28,1.24.79,2.66.22,3.64-.39,3.06-1.9,5.99-6.96,5.39-12.61-.35-3.36-1.77-3.27-2.71-3.21h0c-1.53.1-2.94-.4-4.08-.8-.24-.08-.55-.19-.82-.28Z"></path><path class="cls-4" d="m530.49,166.59c-3.99-2.31-7.38-6.99-9.65-10.12-.73-1.01-1.36-1.88-1.86-2.48-.32-.38-1.3-1.56-1.06-3.1.22-1.48,1.35-2.22,2.02-2.66.55-.36.78-.53.91-.84h0c1.73-4.14,5.63-5.55,10.44-3.78,7.38,2.73,11.35,9.02,12.01,14.04.49,3.69-.73,6.86-3.35,8.71-3.32,2.35-6.54,1.92-9.45.23Zm-6.89-14.82c.4.53.83,1.11,1.29,1.76,4.21,5.79,8.62,11.24,12.15,8.74,1.43-1.01,1.41-2.92,1.27-3.96-.45-3.41-3.39-7.99-8.78-9.99-3.17-1.17-3.71.14-4.07,1.01h0c-.48,1.16-1.21,1.92-1.86,2.45Z"></path><path class="cls-4" d="m513.05,153.17c-4.09-2.38-5.49-7.64-3.11-11.73,2.38-4.09,7.64-5.49,11.73-3.11s5.49,7.64,3.11,11.73-7.64,5.49-11.73,3.11Zm6.1-10.5c-1.7-.99-3.89-.41-4.88,1.29-.99,1.7-.41,3.89,1.29,4.88,1.7.99,3.89.41,4.88-1.29.99-1.7.41-3.89-1.29-4.88Z"></path><path class="cls-2" d="m692.72,637.8c-.29-.17-.58-.36-.85-.56-4.19-3.09-2.12-6.7-.88-8.85.54-.94,1.1-1.92,1.44-2.99.48-1.5,1.47-2.67,2.88-3.37,3.37-1.67,8.07-.15,8.98.17l.88.31.46.81c.41.72,3.91,7.13,1.34,11.55-1.18,2.04-3.45,3.53-6.21,4.11-2.83.59-5.77.15-8.05-1.18Zm1.67-5.01c.05.07.18.21.46.42,1.22.9,3.1,1.23,4.9.86,1.35-.28,2.43-.92,2.89-1.71.69-1.19-.06-3.82-.93-5.7-1.42-.36-3.28-.58-4.17-.14-.19.1-.27.19-.34.39-.5,1.58-1.26,2.91-1.87,3.97-.35.62-.88,1.53-.94,1.91Z"></path><path class="cls-2" d="m673.41,641c-.58-.33-1.11-.7-1.59-1.08-2.81-2.26-4.01-5.3-3.31-8.34,1.13-4.87,7.41-6.88,18.68-5.98,3.68.29,6.83,2.5,8.21,5.75h0c1.75,4.13.03,7.91-4.6,10.11-6.23,2.95-13.06,2.06-17.39-.45Zm15.52-9.74c-.63-.37-1.36-.6-2.14-.66-9.29-.75-13.1.86-13.39,2.11-.33,1.42.67,2.58,1.57,3.3,2.8,2.26,8.55,3.34,13.69.91,3.05-1.44,2.5-2.75,2.13-3.62-.36-.85-1.02-1.57-1.85-2.05Z"></path><path class="cls-2" d="m688.71,628.61c-1.18-.68-2.29-1.73-3.28-3.13-4.51-6.38-4.29-14.37-1.75-18.96,1.74-3.15,4.53-4.86,7.65-4.69,7.47.41,11.66,17.38,12,20.99.37,3.93-3.43,4.6-5.05,4.88-.78.14-1.67.29-2.1.57h0c-2.51,1.62-5.13,1.7-7.47.34Zm2.81-21.62c-.17-.1-.32-.15-.47-.16-1.46-.08-2.43,1.11-2.98,2.11-1.74,3.15-1.82,9,1.46,13.64,1.95,2.76,3.14,1.99,3.93,1.48,1.28-.83,2.76-1.09,3.95-1.3.25-.04.57-.1.85-.16-.76-5.67-4.54-14.33-6.74-15.61Z"></path><path class="cls-2" d="m704.89,632.82c-1.7-.99-2.21-3.25-2.46-4.4-.17-.77-.37-1.65-.67-2.07-2.61-3.66-1.74-7.72,2.31-10.86,6.17-4.79,14.16-4.93,18.86-2.6,3.23,1.6,5.06,4.31,5.03,7.43-.07,7.48-16.84,12.43-20.43,12.93-1.11.15-1.97-.04-2.64-.43Zm16.21-15.23c-.13-.08-.26-.15-.39-.21-3.22-1.6-9.07-1.42-13.56,2.07-2.67,2.07-1.84,3.23-1.3,3.99h0c.89,1.25,1.21,2.71,1.48,3.89.06.25.13.57.2.84,6.05-1.09,15.41-5.82,15.43-7.91.01-1.28-.93-2.14-1.85-2.68Z"></path><path class="cls-2" d="m690.36,660.06c-.09-.05-.17-.1-.26-.16-2.65-1.68-3.69-5.74-3.08-12.05.41-4.27,1.59-9.26,2.86-12.13,1.6-3.61,5.24-2.33,6.79-1.79.75.26,1.6.56,2.11.53,4.48-.28,7.47,2.59,8.01,7.69.82,7.77-3.27,14.63-7.74,17.4-2.96,1.84-6.12,2.02-8.71.52Zm3.84-21.67c-2.42,6.06-3.04,16.25-1.42,17.28,1.24.79,2.66.22,3.64-.39,3.06-1.9,5.99-6.96,5.39-12.61-.35-3.36-1.77-3.27-2.71-3.21h0c-1.53.1-2.94-.4-4.08-.8-.24-.08-.55-.19-.82-.28Z"></path><path class="cls-2" d="m712.13,651.73c-3.99-2.31-7.38-6.99-9.65-10.12-.73-1.01-1.36-1.88-1.86-2.48-.32-.38-1.3-1.56-1.06-3.1.22-1.48,1.35-2.22,2.02-2.66.55-.36.78-.53.91-.84h0c1.73-4.14,5.63-5.55,10.44-3.78,7.38,2.73,11.35,9.02,12.01,14.04.49,3.69-.73,6.86-3.35,8.71-3.32,2.35-6.54,1.92-9.45.23Zm-6.89-14.82c.4.53.83,1.11,1.29,1.76,4.21,5.79,8.62,11.24,12.15,8.74,1.43-1.01,1.41-2.92,1.27-3.96-.45-3.41-3.39-7.99-8.78-9.99-3.17-1.17-3.71.14-4.07,1.01h0c-.48,1.16-1.21,1.92-1.86,2.45Z"></path><path class="cls-2" d="m694.68,638.31c-4.09-2.38-5.49-7.64-3.11-11.73,2.38-4.09,7.64-5.49,11.73-3.11,4.09,2.38,5.49,7.64,3.11,11.73-2.38,4.09-7.64,5.49-11.73,3.11Zm6.1-10.5c-1.7-.99-3.89-.41-4.88,1.29-.99,1.7-.41,3.89,1.29,4.88s3.89.41,4.88-1.29.41-3.89-1.29-4.88Z"></path><path class="cls-3" d="m529.02,58.77c-.29-.17-.58-.36-.85-.56-4.19-3.09-2.12-6.7-.88-8.85.54-.94,1.1-1.92,1.44-2.99.48-1.5,1.47-2.67,2.88-3.37,3.37-1.67,8.07-.15,8.98.17l.88.31.46.81c.41.72,3.91,7.13,1.34,11.55-1.18,2.04-3.45,3.53-6.21,4.11-2.83.59-5.77.15-8.05-1.18Zm1.67-5.01c.05.07.18.21.46.42,1.22.9,3.1,1.23,4.9.86,1.35-.28,2.43-.92,2.89-1.71.69-1.19-.06-3.82-.93-5.7-1.42-.36-3.28-.58-4.17-.14-.19.1-.27.19-.34.39-.5,1.58-1.26,2.91-1.87,3.97-.35.62-.88,1.53-.94,1.91Z"></path><path class="cls-3" d="m509.72,61.96c-.58-.33-1.11-.7-1.59-1.08-2.81-2.26-4.01-5.3-3.31-8.34,1.13-4.87,7.41-6.88,18.68-5.98,3.68.29,6.83,2.5,8.21,5.75h0c1.75,4.13.03,7.91-4.6,10.11-6.23,2.95-13.06,2.06-17.39-.45Zm15.52-9.74c-.63-.37-1.36-.6-2.14-.66-9.29-.75-13.1.86-13.39,2.11-.33,1.42.67,2.58,1.57,3.3,2.8,2.26,8.55,3.34,13.69.91,3.05-1.44,2.5-2.75,2.13-3.62-.36-.85-1.02-1.57-1.85-2.05Z"></path><path class="cls-3" d="m525.02,49.58c-1.18-.68-2.29-1.73-3.28-3.13-4.51-6.38-4.29-14.37-1.75-18.96,1.74-3.15,4.53-4.86,7.65-4.69,7.47.41,11.66,17.38,12,20.99.37,3.93-3.43,4.6-5.05,4.88-.78.14-1.67.29-2.1.57h0c-2.51,1.62-5.13,1.7-7.47.34Zm2.81-21.62c-.17-.1-.32-.15-.47-.16-1.46-.08-2.43,1.11-2.98,2.11-1.74,3.15-1.82,9,1.46,13.64,1.95,2.76,3.14,1.99,3.93,1.48,1.28-.83,2.76-1.09,3.95-1.3.25-.04.57-.1.85-.16-.76-5.67-4.54-14.33-6.74-15.61Z"></path><path class="cls-3" d="m541.2,53.78c-1.7-.99-2.21-3.25-2.46-4.4-.17-.77-.37-1.65-.67-2.07-2.61-3.66-1.74-7.72,2.31-10.86,6.17-4.79,14.16-4.93,18.86-2.6,3.23,1.6,5.06,4.31,5.03,7.43-.07,7.48-16.84,12.43-20.43,12.93-1.11.15-1.97-.04-2.64-.43Zm16.21-15.23c-.13-.08-.26-.15-.39-.21-3.22-1.6-9.07-1.42-13.56,2.07-2.67,2.07-1.84,3.23-1.3,3.99h0c.89,1.25,1.21,2.71,1.48,3.89.06.25.13.57.2.84,6.05-1.09,15.41-5.82,15.43-7.91.01-1.28-.93-2.14-1.85-2.68Z"></path><path class="cls-3" d="m526.67,81.03c-.09-.05-.17-.1-.26-.16-2.65-1.68-3.69-5.74-3.08-12.05.41-4.27,1.59-9.26,2.86-12.13,1.6-3.61,5.24-2.33,6.79-1.79.75.26,1.6.56,2.11.53,4.48-.28,7.47,2.59,8.01,7.69.82,7.77-3.27,14.63-7.74,17.4-2.96,1.84-6.12,2.02-8.71.52Zm3.84-21.67c-2.42,6.06-3.04,16.25-1.42,17.28,1.24.79,2.66.22,3.64-.39,3.06-1.9,5.99-6.96,5.39-12.61-.35-3.36-1.77-3.27-2.71-3.21h0c-1.53.1-2.94-.4-4.08-.8-.24-.08-.55-.19-.82-.28Z"></path><path class="cls-3" d="m548.43,72.7c-3.99-2.31-7.38-6.99-9.65-10.12-.73-1.01-1.36-1.88-1.86-2.48-.32-.38-1.3-1.56-1.06-3.1.22-1.48,1.35-2.22,2.02-2.66.55-.36.78-.53.91-.84h0c1.73-4.14,5.63-5.55,10.44-3.78,7.38,2.73,11.35,9.02,12.01,14.04.49,3.69-.73,6.86-3.35,8.71-3.32,2.35-6.54,1.92-9.45.23Zm-6.89-14.82c.4.53.83,1.11,1.29,1.76,4.21,5.79,8.62,11.24,12.15,8.74,1.43-1.01,1.41-2.92,1.27-3.96-.45-3.41-3.39-7.99-8.78-9.99-3.17-1.17-3.71.14-4.07,1.01h0c-.48,1.16-1.21,1.92-1.86,2.45Z"></path><path class="cls-3" d="m530.99,59.28c-4.09-2.38-5.49-7.64-3.11-11.73s7.64-5.49,11.73-3.11c4.09,2.38,5.49,7.64,3.11,11.73-2.38,4.09-7.64,5.49-11.73,3.11Zm6.1-10.5c-1.7-.99-3.89-.41-4.88,1.29-.99,1.7-.41,3.89,1.29,4.88s3.89.41,4.88-1.29.41-3.89-1.29-4.88Z"></path><path class="cls-3" d="m524.75,400.82c-5.99,0-10.86-4.87-10.86-10.86s4.87-10.86,10.86-10.86c7.77,0,7.77,8.17,7.77,10.86s0,10.86-7.77,10.86Zm0-18.22c-4.06,0-7.36,3.3-7.36,7.36s3.3,7.36,7.36,7.36c2.64,0,4.28-1.23,4.28-7.36s-1.64-7.36-4.28-7.36Z"></path><path class="cls-4" d="m550.87,344c-4.86,0-8.82-3.96-8.82-8.82s3.96-8.82,8.82-8.82c6.32,0,6.32,6.64,6.32,8.82s0,8.82-6.32,8.82Zm0-14.8c-3.3,0-5.98,2.68-5.98,5.98s2.68,5.98,5.98,5.98c2.15,0,3.47-1,3.47-5.98s-1.33-5.98-3.47-5.98Z"></path><path class="cls-2" d="m669.57,118.03c-4.86,0-8.82-3.96-8.82-8.82s3.96-8.82,8.82-8.82c6.32,0,6.32,6.64,6.32,8.82s0,8.82-6.32,8.82Zm0-14.8c-3.3,0-5.98,2.68-5.98,5.98s2.68,5.98,5.98,5.98c2.15,0,3.47-1,3.47-5.98s-1.33-5.98-3.47-5.98Z"></path><path class="cls-1" d="m681.15,154.49c-8.31,0-15.08-6.76-15.08-15.08s6.76-15.08,15.08-15.08c10.79,0,10.79,11.35,10.79,15.08s0,15.08-10.79,15.08Zm0-25.3c-5.64,0-10.22,4.59-10.22,10.22s4.59,10.22,10.22,10.22c3.67,0,5.94-1.71,5.94-10.22s-2.27-10.22-5.94-10.22Z"></path><path class="cls-2" d="m348.53,706.03c-5.99,0-10.86-4.87-10.86-10.86s4.87-10.86,10.86-10.86c7.77,0,7.77,8.17,7.77,10.86s0,10.86-7.77,10.86Zm0-18.22c-4.06,0-7.36,3.3-7.36,7.36s3.3,7.36,7.36,7.36c2.64,0,4.28-1.23,4.28-7.36s-1.64-7.36-4.28-7.36Z"></path><path class="cls-2" d="m218.94,747.84c-9.45,0-17.14-6.75-17.14-15.05s7.69-15.05,17.14-15.05c12.27,0,12.27,11.33,12.27,15.05s0,15.05-12.27,15.05Zm0-25.25c-6.41,0-11.62,4.58-11.62,10.2s5.21,10.2,11.62,10.2c4.17,0,6.75-1.71,6.75-10.2s-2.58-10.2-6.75-10.2Z"></path><path class="cls-3" d="m169.96,525.86c-7.65,0-13.87-5.47-13.87-12.18s6.22-12.18,13.87-12.18c9.93,0,9.93,9.17,9.93,12.18s0,12.18-9.93,12.18Zm0-20.44c-5.19,0-9.41,3.71-9.41,8.26s4.22,8.26,9.41,8.26c3.37,0,5.46-1.38,5.46-8.26s-2.09-8.26-5.46-8.26Z"></path><path class="cls-4" d="m130.88,511.97c-10.45,0-18.96-7.47-18.96-16.65s8.5-16.65,18.96-16.65c13.57,0,13.57,12.53,13.57,16.65s0,16.65-13.57,16.65Zm0-27.93c-7.09,0-12.85,5.06-12.85,11.29s5.77,11.29,12.85,11.29c4.61,0,7.47-1.89,7.47-11.29s-2.86-11.29-7.47-11.29Z"></path><path class="cls-1" d="m164.79,612.45c12.4,0,22.49-8.36,22.49-18.64s-10.09-18.64-22.49-18.64c-16.1,0-16.1,14.03-16.1,18.64s0,18.64,16.1,18.64Zm0-31.27c8.41,0,15.25,5.67,15.25,12.64s-6.84,12.64-15.25,12.64c-5.47,0-8.86-2.11-8.86-12.64s3.39-12.64,8.86-12.64Z"></path></svg> 