<?xml version="1.0" encoding="UTF-8"?> <svg xmlns="http://www.w3.org/2000/svg" id="icons" viewBox="0 0 800 800"><defs><style>.cls-1{fill:none;stroke:#6e16e7;stroke-miterlimit:10;stroke-width:6px;}.cls-2{fill:#65d7e7;}.cls-3{fill:#e7bb86;}.cls-4{fill:#6e16e7;}</style></defs><path class="cls-4" d="m599.83,96.03l.35.02,16.77,1.95c1.65.19,2.82,1.68,2.63,3.33-.19,1.65-1.68,2.83-3.33,2.63l-12.46-1.45,2.82,3.71c11.33,16.77,14.29,34.32,8.52,49.14,4.41,5.83,7.68,14.04,7.95,25.63.93,39.32-31.71,52.83-32.04,52.96-1.54.61-3.28-.13-3.9-1.67-.61-1.54.13-3.28,1.67-3.9h0c1.19-.48,29.1-12.19,28.27-47.25-.18-7.8-1.85-14.34-4.98-19.58-6.34,10.67-17.28,17.61-26.73,16.92-6.19-.46-10.92-4.02-13.31-10.05-2.87-7.24-1.39-14.36,4.08-19.54,6.58-6.23,17.32-8,25.54-4.2,2.87,1.33,5.92,3.16,8.79,5.68,3.63-12.35.6-26.76-8.81-40.72l-5.22-6.83c-.98-1.29-1.15-2.98-.43-4.44.72-1.45,2.17-2.35,3.79-2.35Zm8.3,60.32c-2.47-2.54-5.45-4.61-8.94-6.22-5.98-2.77-14.11-1.43-18.9,3.11-2.11,2-5.26,6.34-2.63,12.96,1.54,3.88,4.29,5.99,8.17,6.28,8.2.6,16.94-6.75,21.32-14.32.34-.59.67-1.2.98-1.8Z"></path><path class="cls-4" d="m606.41,90.3c4.46,0,10.46.48,18.57,1.72,1.64.25,2.76,1.78,2.51,3.42-.25,1.64-1.78,2.76-3.42,2.51-11.01-1.68-22.27-2.08-24.98-.93-.43,2.9-1.83,14.27-2.69,21.43-.2,1.64-1.69,2.82-3.34,2.62-1.65-.2-2.82-1.69-2.62-3.34.41-3.45,2.49-20.74,2.87-22.54.29-1.4,1.03-4.9,13.08-4.9Z"></path><path class="cls-4" d="m610.15,555.38c-.23-.08-.45-.17-.67-.28-5.31-2.66-4.9-11.93,1.38-30.99,4.07-12.36,9.24-24.35,9.29-24.47.66-1.52,2.43-2.23,3.94-1.56,1.52.66,2.22,2.42,1.56,3.94-.05.11-4.76,11.04-8.66,22.65-6.06,18.06-5.4,23.36-4.93,24.73,3.91-2.64,11.81-20.83,16.14-30.81,7.82-18.01,10.45-24.07,14.99-22.56,4.37,1.46,3.71,7.54-1.01,32.92-1.4,7.52-3.34,17.97-3.81,23.69,4.25-5.26,11.56-16.82,16.34-24.36,12.07-19.09,14.29-22.02,16.97-22.4,1.1-.16,2.21.24,2.96,1.06,1.96,2.12,1.53,5.63-3.28,26.81-1.57,6.91-3.7,16.29-4.58,22.21,2.98-4.42,7.06-11.44,10.09-16.66,11.15-19.21,14.14-23.65,17.9-23.18.99.13,1.88.65,2.48,1.48,1.72,2.38.94,6.88-1.55,19.53-2.11,10.72-6.5,33.01-2.1,36.16,1.35.96,1.66,2.84.7,4.19-.96,1.35-2.84,1.66-4.18.7-7-5-4.41-21.35-.3-42.21.61-3.1,1.3-6.58,1.77-9.47-2.89,4.37-6.68,10.9-9.53,15.81-10.42,17.95-13.71,22.89-17.05,23.47-1.08.19-2.17-.1-2.99-.8-2.89-2.45-1.91-8.76,3.49-32.57,1.06-4.69,2.35-10.33,3.22-14.82-2.69,3.98-6.02,9.25-8.95,13.89-13.82,21.85-18.73,28.78-22.5,29.59-1.02.22-2.05.03-2.89-.53-3.36-2.24-2.59-8.6,1.89-32.69,1.16-6.22,2.69-14.45,3.44-20.31-1.87,3.88-4.07,8.96-6.02,13.44-8.41,19.38-14.36,32.24-20.11,34.32-1.17.43-2.35.45-3.45.09Zm2.12-5.57h.01s-.01,0-.01,0Z"></path><path class="cls-4" d="m588.71,522.03c-1.31-.44-2.19-1.75-2.03-3.18.19-1.65,1.67-2.83,3.32-2.64,3.83.43,94.27,10.84,126.29,30.47,1.41.87,1.86,2.71.99,4.13-.87,1.41-2.72,1.86-4.13.99-30.89-18.93-122.9-29.52-123.83-29.62-.21-.02-.42-.07-.62-.14Z"></path><path class="cls-2" d="m195.75,598.56c-7.21-1.43-16.63-15.61-30.18-37.08-3.13-4.96-6.68-10.59-9.61-14.85,1.96,6.82,5.29,16.32,7.81,23.49,9.74,27.79,11.82,35.19,8.24,38.48-.89.82-2.07,1.22-3.33,1.15-4.63-.26-11.73-7.59-32.15-31.01-4.33-4.97-9.26-10.62-13.18-14.86,1.86,5.17,4.42,11.63,6.54,17.01,10.79,27.28,13.1,34.6,10.12,38.04-.85.97-2.09,1.52-3.41,1.5-4.06-.07-8.88-5.34-24.55-24.75-4.28-5.31-9.98-12.37-14.21-17.03,1.1,3.35,2.55,7.36,3.84,10.93,8.7,24.01,14.77,42.96,7.38,50.18-1.43,1.4-3.71,1.36-5.1-.06-1.39-1.42-1.37-3.71.06-5.1,4.66-4.55-4.65-30.23-9.12-42.57-5.28-14.57-7.03-19.78-5.42-22.91.56-1.1,1.51-1.88,2.67-2.22,4.38-1.25,8.75,3.48,25.51,24.25,4.55,5.64,10.68,13.23,15.03,17.94-2.14-6.88-6.39-17.63-9.52-25.54-9.6-24.27-10.75-28.35-8.82-31.23.75-1.11,1.99-1.78,3.33-1.8,3.25-.04,6.43,3.04,24.27,23.49,7.05,8.08,17.86,20.48,23.87,25.94-1.6-6.7-5.82-18.76-8.87-27.43-10.26-29.28-12.16-36.38-7.24-38.91s9.36,4.09,21.94,24.04c6.98,11.06,19.7,31.22,24.82,33.63.31-1.71.12-8.13-10.39-28.46-6.76-13.07-14.36-25.19-14.44-25.31-1.06-1.69-.55-3.91,1.13-4.97,1.68-1.07,3.91-.55,4.97,1.13.08.13,8.42,13.43,15.52,27.36,10.95,21.5,13.14,32.43,7.32,36.56-.24.17-.49.32-.75.45-1.23.64-2.64.82-4.11.53Zm.56-6.75h.01s-.01,0-.01,0Z"></path><path class="cls-2" d="m219.21,554.49c1.48-.76,2.28-2.48,1.83-4.15-.52-1.92-2.5-3.05-4.43-2.53-4.47,1.22-109.97,30.17-144.4,59.35-1.52,1.29-1.71,3.56-.42,5.08,1.29,1.52,3.57,1.71,5.08.42,33.22-28.15,140.55-57.6,141.63-57.89.25-.07.48-.16.71-.27Z"></path><path class="cls-3" d="m666.59,432.23c-.28,0-.56-.03-.84-.11-1.81-.47-2.9-2.31-2.43-4.11.61-2.36,1.94-4.32,3.87-5.69,1.71-1.22,3.82-1.87,5.94-1.86,1.93.02,3.74.58,5.23,1.63,1.69,1.19,2.84,2.9,3.33,4.96.43,1.81-.68,3.64-2.5,4.07-1.82.43-3.64-.68-4.07-2.5-.29-1.2-1.41-1.39-2.05-1.4,0,0-.02,0-.03,0-1.18,0-2.7.65-3.17,2.48-.39,1.52-1.77,2.54-3.27,2.54Z"></path><path class="cls-3" d="m695.15,414.62l20.82,4.21c4.82,26.95-27.57,20.16-20.82-4.21Z"></path><path class="cls-3" d="m690.61,479.93c-10.19,0-19.99-4.15-27.65-11.71-4.28-4.23-7.66-9.27-10.05-14.98-2.46-5.9-3.71-12.18-3.71-18.67,0-6.13,1.21-12.17,3.59-17.93,2.3-5.57,5.58-10.61,9.75-14.97,4.21-4.41,9.08-7.88,14.49-10.33,5.68-2.57,11.67-3.87,17.82-3.87,2.27,0,4.11,1.84,4.11,4.11,0,.82-.24,1.58-.65,2.22,2.89.27,5.72.91,8.47,1.93,4.43,1.63,8.55,4.2,12.25,7.62,4.63,4.28,8.45,9.81,11.06,15.98,2.56,6.06,3.84,12.45,3.69,18.49-.14,6.09-1.4,11.85-3.75,17.12-2.24,5.04-5.4,9.51-9.41,13.29-7.85,7.4-18.35,11.55-29.55,11.7-.16,0-.32,0-.48,0Zm-2.35-83.6c-2.68.52-5.3,1.36-7.84,2.51-4.44,2.01-8.45,4.87-11.93,8.51-3.46,3.63-6.19,7.81-8.1,12.44-1.97,4.76-2.97,9.73-2.97,14.78,0,10.57,4.12,20.7,11.31,27.8,6.2,6.12,14.1,9.44,22.25,9.33,9.14-.12,17.66-3.47,24.01-9.46,3.21-3.02,5.74-6.6,7.53-10.64,1.9-4.28,2.92-8.98,3.04-13.98.24-10.12-4.52-21.21-12.12-28.24-4.22-3.9-11.28-8.35-20.98-7.36-2.26.23-4.28-1.42-4.51-3.67-.07-.71.04-1.4.3-2.02Z"></path><path class="cls-3" d="m686.05,460.72c-2.57,0-5.02-.78-7.21-2.33-3.79-2.67-6.54-7.56-7-12.47-.14-1.46.88-2.78,2.32-3.04l22.46-3.89c1.44-.25,2.83.64,3.2,2.05.89,3.36.94,8.48-1.58,12.78-1.89,3.22-4.94,5.45-8.81,6.44-1.14.29-2.28.44-3.38.44Zm-8.05-12.78c.71,2.15,2.08,4.44,4.08,5.85,1.77,1.25,3.78,1.6,5.96,1.04,2.42-.62,4.22-1.91,5.35-3.84,1.1-1.87,1.43-4.06,1.36-5.95l-16.74,2.9Z"></path><path class="cls-3" d="m725.69,427.48c-.3,0-.61-.03-.92-.11l-59.3-13.8c-2.18-.51-3.54-2.69-3.03-4.87.51-2.18,2.69-3.54,4.87-3.03l59.3,13.8c2.18.51,3.54,2.69,3.03,4.87-.44,1.87-2.1,3.14-3.95,3.14Z"></path><path class="cls-3" d="m738.05,402.05c-.16,0-.32.02-.47.05-.99.15-1.96.52-2.83.97-4.14,2.14-7.93,4.5-9.56,6.43-1.14,1.48-1.43,2.93-.58,4.58s3.04,3.11,4.55,2.03c3.93-2.75,8.2-4.96,12.04-7.82,1.15-.86.24-3.03-.49-4.4-.39-.73-.97-1.39-1.66-1.66-.33-.13-.67-.17-1.01-.16Z"></path><path class="cls-3" d="m721.81,387.58c0,.14,0,.28-.01.42-.07.89-.36,1.78-.71,2.58-1.7,3.82-3.63,7.33-5.29,8.87-1.29,1.09-2.59,1.41-4.14.72-1.63-.73-3.02-2.6-2.13-4,2.27-3.65,4.03-7.59,6.41-11.16.72-1.07,2.76-.35,4.05.25.69.32,1.33.81,1.62,1.42.14.29.2.6.21.9Z"></path><path class="cls-3" d="m659.59,383.06c.15.05.3.11.45.18.93.43,1.8,1.07,2.54,1.75,3.54,3.27,6.69,6.64,7.81,8.98.76,1.76.69,3.24-.55,4.58-1.3,1.41-3.74,2.11-4.95.63-3.19-3.79-6.84-7.16-9.91-11.04-.92-1.16.5-3,1.55-4.1.56-.59,1.29-1.06,2.03-1.12.36-.03.7.03,1.03.14Z"></path><path class="cls-3" d="m749.29,428.96c-.14-.08-.28-.14-.42-.2-.92-.38-1.95-.58-2.93-.68-4.68-.43-9.17-.52-11.59.15-1.77.57-2.79,1.54-2.94,3.23s.92,3.92,2.79,3.85c4.82-.14,9.64.31,14.45.03,1.44-.08,1.83-2.22,1.94-3.64.06-.76-.08-1.56-.52-2.11-.21-.27-.48-.47-.77-.63Z"></path><path class="cls-3" d="m651.31,419.24c-.12-.1-.24-.18-.37-.27-.81-.53-1.76-.91-2.68-1.18-4.4-1.28-8.68-2.2-11.12-2.03-1.79.2-2.94.91-3.39,2.47-.47,1.63.19,3.83,1.98,4.11,4.64.77,9.17,2.09,13.82,2.72,1.39.19,2.15-1.73,2.5-3.03.19-.69.2-1.47-.12-2.07-.16-.29-.38-.53-.63-.73Z"></path><path class="cls-3" d="m652.73,451.41c-.16,0-.33,0-.49.02-1.04.09-2.09.41-3.05.8-4.56,1.86-8.8,3.94-10.73,5.72-1.38,1.37-1.87,2.73-1.21,4.35s2.72,3.11,4.42,2.14c4.43-2.45,9.13-4.37,13.48-6.93,1.3-.77.66-2.89.09-4.23-.3-.71-.81-1.37-1.49-1.66-.33-.14-.67-.19-1.02-.2Z"></path><path class="cls-3" d="m669,473.36c-.12.1-.22.2-.33.31-.66.69-1.18,1.55-1.58,2.4-1.93,4.06-3.47,8.08-3.62,10.5-.04,1.79.54,3.05,2.09,3.78s3.99.53,4.52-1.17c1.43-4.39,3.42-8.58,4.72-13.01.39-1.33-1.49-2.42-2.79-3.02-.69-.32-1.49-.47-2.16-.27-.32.1-.6.27-.84.48Z"></path><path class="cls-3" d="m725.14,463.11c.09.13.19.24.3.36.67.72,1.51,1.29,2.36,1.73,4.05,2.11,8.07,3.81,10.55,3.99,1.84.05,3.18-.57,4.05-2.24.91-1.75.85-4.32-.87-4.91-4.42-1.58-8.6-3.75-13.07-5.19-1.34-.43-2.61,1.6-3.32,3.01-.38.75-.59,1.61-.44,2.33.08.35.24.65.43.92Z"></path><path class="cls-3" d="m705.83,476.72c0,.14,0,.28.02.41.08.87.37,1.74.72,2.52,1.7,3.72,3.61,7.13,5.25,8.63,1.26,1.06,2.53,1.36,4.03.68s2.89-2.55,2.01-3.92c-2.25-3.55-4-7.38-6.36-10.86-.71-1.04-2.68-.33-3.92.27-.66.31-1.28.8-1.55,1.39-.13.29-.18.59-.19.88Z"></path><path class="cls-1" d="m585.67,232.65c-15.65,6.92-32.86,4.18-32.42-8.51.22-6.35,5.06-11.39,10.22-10.74,6.23.79,11.79,4.16,15.57,9.05,8.58,11.14,22.51,35.28,1.3,54.9-43.42,40.17-87.86-46.46-90.6-50.3-4.88-6.84-22.21-7.02-37.28-7.03-25.27-.02-45,19.62-66.73,18.95s-39.02-12.97-64.87-15.63c-45.54-4.69-51.06,20.18-51.06,20.18,0,0-57.92,130.26-63.2,140.68-13.4,26.42,19.98,45.38,34.14,25.47,0,0,29.06-43.7-56.31-41.97-73.25,1.48-116.61,38.51-137.89,110.33"></path><path class="cls-1" d="m273.11,254.99s2.22,35.65,15.08,44.71c12.86,9.06,57.2,5.46,66.06,2.66,8.87-2.8,22.17-40.4,16.41-53.82-5.76-13.41-42.57-29.41-79.81-20.79-10.79,2.5-15.96,9.88-17.74,27.24Z"></path><path class="cls-1" d="m498.78,253.88s-2.22,34.31-15.08,43.03c-12.86,8.72-57.2,5.25-66.06,2.56-8.87-2.7-22.17-38.88-16.41-51.79s42.57-28.3,79.81-20.01c10.79,2.4,15.96,9.51,17.74,26.21Z"></path></svg> 