<?xml version="1.0" encoding="UTF-8"?> <svg xmlns="http://www.w3.org/2000/svg" id="icons" viewBox="0 0 800 800"><defs><style>.cls-1{fill:#65d7e7;}.cls-2{fill:#e94f43;}.cls-3{fill:#a0e6b4;}.cls-4{fill:#e09585;}.cls-5{fill:#6e16e7;}</style></defs><path class="cls-2" d="m603.73,141.66c-1.4-4.69-5.32-8.49-9.75-9.47h-.05c-7.75-1.69-14.74,1.5-20.07,5.5-1.57-4.24-5.17-11.98-11.48-15.28-3.39-1.77-7.18-2-10.94-.67-4.97,1.75-8.59,5.14-10.49,9.8-2.33,5.73-1.77,13.1,1.49,19.72,3.44,6.98,13.74,24.65,18.25,32.33-1.66,1.4-2.67,2.25-2.72,2.29-1.47,1.23-1.66,3.42-.43,4.89.51.61,1.19,1,1.91,1.16,1.02.22,2.12,0,2.98-.73.19-.16,1.2-1.01,2.78-2.35.79.14,1.62.02,2.37-.42,1.11-.66,1.7-1.83,1.69-3.04,7.99-6.84,21.03-18.22,28.53-25.85,7.53-7.66,6.95-14.5,5.93-17.89Zm-10.88,13.03c-6.85,6.97-18.82,17.46-26.8,24.32-4.74-8.08-14.23-24.43-17.39-30.82-2.4-4.86-2.88-10.11-1.29-14.03,1.14-2.81,3.29-4.78,6.37-5.87,1.98-.7,3.7-.61,5.41.28,4.87,2.53,8.09,10.78,8.92,13.75.04.14.1.26.15.39-2.9,3.02-4.65,5.56-4.84,5.84-1.07,1.59-.66,3.74.93,4.81,1.58,1.07,3.74.66,4.82-.92.11-.16,11.13-16.11,23.33-13.47h.02c1.7.38,3.82,2.1,4.6,4.68,1,3.33-.51,7.25-4.23,11.04Z"></path><path class="cls-2" d="m543.37,121.01c-.89-.2-1.7-.74-2.22-1.59l-6.5-10.69c-.99-1.64-.47-3.77,1.16-4.77s3.77-.48,4.77,1.16l6.5,10.69c.99,1.64.47,3.77-1.16,4.77-.8.48-1.71.61-2.55.42Z"></path><path class="cls-2" d="m604.86,134.61c-.95-.21-1.81-.82-2.31-1.75-.9-1.69-.27-3.79,1.42-4.7l14.5-7.76c1.69-.9,3.79-.27,4.7,1.42.9,1.69.27,3.79-1.42,4.7l-14.5,7.76c-.76.41-1.6.5-2.39.33Z"></path><path class="cls-2" d="m528.1,127.68c-1.57-.35-2.74-1.76-2.72-3.43.02-1.92,1.6-3.45,3.51-3.43l7.17.09c1.92.02,3.45,1.6,3.43,3.51-.02,1.92-1.6,3.45-3.51,3.43l-7.17-.09c-.24,0-.48-.03-.71-.08Z"></path><path class="cls-2" d="m610.37,145.54c-1.23-.27-2.27-1.21-2.61-2.51-.49-1.85.62-3.75,2.47-4.24l10.3-2.7c1.85-.49,3.75.62,4.24,2.48.49,1.85-.62,3.75-2.47,4.24l-10.3,2.7c-.55.15-1.11.15-1.63.03Z"></path><path class="cls-3" d="m527.98,604.99c-.48,0-.96-.09-1.43-.29-.92-.39-22.59-9.77-29.15-40.09-1.33-6.13-1.67-12.81-1.02-19.85.15-1.61.08-3.35-.23-5.1-8.57,2.09-15.22,2.77-18.64-1.56-3.2-4.05-2.88-10.14.75-14.18,2.99-3.32,8.57-5.37,15.26-1.15,3.07,1.94,5.57,4.7,7.34,7.98.24-.07.48-.13.71-.19,4.38-1.19,9.05-2.45,13.69-3.38-.18-.49-.37-.99-.55-1.49-4.21-11.36-10.42-28.1-15.44-38.33-9.46,1.1-17.09.36-19.84-6.02-1.77-4.1-.97-8.12,2.07-10.49,4.13-3.22,11.05-2.36,16.84,2.08,1.58,1.21,3.23,3.36,4.99,6.33,3.01-.48,5.97-1.04,8.46-1.51,3.19-.6,6.33-1.19,9.34-1.67-2.28-5.47-4.34-11.86-6.02-18.91-2.37-9.96-5.7-17.6-8.95-22.85-2.46.72-4.63,1.11-6.41.99-7.99-.52-10.29-4.67-10.91-6.44-1-2.84-.21-5.98,2.01-8,2.61-2.38,5.92-3.12,9.31-2.08,2.97.91,5.96,3.24,8.8,6.67,3.45-1.38,7.3-3.14,10.75-4.72,1.51-.69,2.93-1.34,4.29-1.94-9.1-10.83-19.15-28.4-24.15-52.54-.42-2.01.88-3.98,2.88-4.39,2.01-.42,3.98.88,4.39,2.88,5.16,24.91,15.87,41.73,24.07,50.99,4.34-1.68,7.61-2.5,10.1-2.16,4.14.56,7.42,2.97,8.79,6.42,1.2,3.03.73,6.4-1.21,8.8-1.98,2.44-5.16,3.49-8.7,2.88-2.36-.41-6.27-2.79-10.81-7.13-2.29,1-4.59,2.05-6.56,2.95-3.29,1.5-6.51,2.98-9.53,4.23,3.68,6.32,6.87,14.5,9.07,23.72,1.98,8.29,4.26,14.77,6.48,19.72,5.14-.33,9.52.13,12.55,2.13,6.38,4.22,7.04,9.76,5.67,13.21-1.55,3.9-5.68,6.09-10.05,5.33-4.15-.72-8.55-5.35-12.54-12.74-3.69.51-7.66,1.26-11.28,1.94-2.09.39-4.17.79-6.21,1.15,4.26,8.99,9.1,21.74,14.72,36.9.37.98.73,1.96,1.09,2.93,9.79-.94,18.59.8,23.14,9.49,6.77,12.93,3.74,20.46-1.34,23.2-5.72,3.08-15,.18-20.64-10-1.45-2.63-3.5-7.78-6.03-14.5-4.68.88-9.63,2.22-14.37,3.51-.05.01-.09.03-.14.04.49,2.47.64,5.06.4,7.68-.58,6.29-.28,12.21.89,17.6,2.39,11.07,7.28,20.28,14.51,27.38,5.42,5.32,10.21,7.41,10.26,7.43,1.88.81,2.76,2.98,1.97,4.87-.6,1.42-1.97,2.27-3.42,2.27Zm-2.52-71.74c2.06,5.44,3.84,9.85,4.95,11.86,3.38,6.1,8.46,8.22,10.62,7.06,1.63-.88,2.52-5.12-1.72-13.22-2.44-4.66-7.58-6-13.85-5.71Zm-39.35-5.42c-.84,0-1.65.29-2.33,1.04-1.05,1.17-1.48,3.3-.45,4.61.99.96,5.39.24,9.99-.82-.99-1.41-2.24-2.66-3.77-3.62-1.01-.64-2.26-1.21-3.44-1.21Zm46.56-45.35c2.53,4,4.62,5.84,5.57,6.04.9.16,1.64-.14,1.88-.75.36-.91-.38-2.63-2.87-4.27-.98-.65-2.59-.95-4.58-1.01Zm-45.02-6.17c-.75,0-1.31.16-1.6.39-.32.25-.03,1.18.19,1.69.77,1.78,4.36,2.13,8.89,1.84-.48-.62-.93-1.1-1.34-1.42-2.46-1.89-4.68-2.5-6.15-2.5Zm9.52-50.56c-.48,0-.89.19-1.34.6.14.38,1.23,1.33,4.38,1.53.25.02.52,0,.83-.02-1.15-1.04-2.2-1.7-3.08-1.98-.29-.09-.55-.13-.78-.13Zm39.88-4.23c2.04,1.71,3.59,2.64,4.39,2.82.8.14,1.42.04,1.66-.25.2-.24.3-.78.07-1.38-.38-.95-1.4-1.59-2.88-1.79-.65-.09-1.79.15-3.23.6Z"></path><path class="cls-5" d="m455.28,758.54c-2.1,0-3.94-.49-5.41-1.46-4.22-2.81-4.86-9.45-5.55-16.49-.29-2.93-.74-7.65-1.56-9.31-1.96,1.37-4.97,7.48-8.98,18.18-2.36,6.3-3.07,8.21-5.91,8.21h-1.46l-1.11-1.08c-1.32-1.34-1.3-2.77-1.23-7.52.21-14.43-1.46-16.83-2.18-17.2-2.73.11-5.92,5.72-9.55,16.68-1.34,4.04-1.89,5.71-4.18,6.17-3.01.6-4.3-2.26-5.16-4.15-.65-1.43-1.43-3.33-2.33-5.53-1.12-2.72-3-7.29-4.62-10.65-1.46,5.99-4.41,15.51-15.02,18.07-2.98.72-5.84.29-8.27-1.25-6.22-3.93-8.31-13.96-10-22.02-.18-.87-.39-1.86-.6-2.8-1.88,3.13-4.22,7.85-5.57,10.57-3.94,7.94-4.88,9.83-7.65,9.83-3.69,0-4.14-3.09-5.46-12.28-.32-2.23-.8-5.52-1.31-8.26-1.87,3.62-4.15,8.69-5.61,11.96-4.3,9.57-4.85,10.8-7.21,11.19l-1.48.25-1.29-.92c-1.65-1.23-1.84-2.85-2.78-10.59-.47-3.91-1.35-11.19-2.38-14.9-1.63,1.7-3.92,4.55-5.73,6.81-7.2,8.98-14.63,18.27-22.13,17.39-3.46-.4-4.09-3.06-7.29-18.97-.5-2.47-1.11-5.51-1.71-8.22-1.25,3.74-2.54,8.29-3.35,11.11-2.58,9.04-2.91,10.2-5.41,10.7l-1.46.29-1.29-.86c-1.64-1.14-1.89-2.61-3.24-10.78-.44-2.65-1.15-6.96-1.89-10.46-1.43,4.11-3.03,9.65-4.07,13.26-3.11,10.79-3.68,12.61-5.75,13.59-.95.45-2.04.47-3,.06-2.8-1.2-2.75-3.49-2.44-16.19.17-6.81.47-19.28-.54-22.28-4-2.6-11.17,3.64-11.24,3.7-1.43,1.3-3.64,1.2-4.94-.23-1.3-1.43-1.2-3.64.23-4.94,4.46-4.06,13.85-9.4,20.77-3.65,2.37,1.97,3,6.61,2.88,18.9,3.39-10.89,5.27-13.88,8.81-13.71,3.81.19,5.19,4.16,7.24,15.83,3.78-12.8,5.64-16.49,9.21-16.72,4.09-.29,4.86,3.48,8.03,19.22.84,4.19,2.03,10.09,2.87,13.06,4.03-1.76,10.52-9.86,14.23-14.49,5.92-7.39,8.68-10.65,12.05-10.71.03,0,.06,0,.1,0,5.1,0,6.45,6.79,8.06,19.79,7.19-16,9.33-19.68,13.27-19.08,4.05.62,4.93,5.61,6.7,17.84,0,.04.01.08.02.12,6.39-12.87,9.22-17.65,13.57-16.84,3.46.65,4.23,4.31,5.62,10.97,1.26,6.05,3.17,15.18,6.88,17.53.56.35,1.39.72,2.88.36,6.68-1.62,8.55-7.37,10.16-14.16.86-3.66,1.61-6.82,4.74-7.53,4.43-1.01,6.9,3.92,12.81,18.27,2.73-7.67,7.01-17.05,14.43-17.37,2.02-.09,3.88.62,5.34,2.05,2.4,2.34,3.48,6.3,3.94,11.06,3.48-8.03,7.15-13.77,12.04-13.92.09,0,.18,0,.26,0,6.65,0,7.47,8.42,8.2,15.85.33,3.37,1.01,10.37,2.46,11.34.6.4,3.14.64,7.15-1.21,6.29-2.9,14.09-10.04,15.37-20.66.23-1.92,1.98-3.29,3.89-3.06,1.92.23,3.29,1.97,3.06,3.89-1.62,13.48-11.46,22.53-19.39,26.18-3.08,1.42-6.01,2.14-8.55,2.14Z"></path><path class="cls-1" d="m700.65,111.58c-.09.18-.19.36-.31.52-1.18,1.65-3.48,2.03-5.13.85-.88-.63-2.52-1.8-5.91-11.38-2.7,7.74-5.66,15.25-7.89,18.26-2.66,3.6-7.94,6.38-12.6,8.83-2.21,1.16-5.44,2.86-6.49,3.85-.21,2.72,3.11,11.74,4.73,16.15,1.64,4.47,2.51,6.87,2.72,8.46.18,1.33-.21,2.63-1.09,3.66-2.21,2.58-6.86,2.81-14.9,2.99-1.81.04-4.25.1-5.95.24.42,2,1.26,5.03,1.87,7.25,2.91,10.52,3.91,15.09,1.96,17.95-2.18,3.21-7.57,4.48-18.07,5.97-.31.04-.62.09-.92.13,1.17,3.95,4.81,12.01,8.26,18.65.94,1.8.24,4.02-1.56,4.96-1.8.94-4.02.24-4.96-1.56-11.23-21.56-9.66-24.92-8.99-26.36.57-1.22,1.68-2.14,3-2.44.94-.21,2.35-.41,4.14-.66,2.95-.42,10.46-1.49,12.77-2.75-.04-2.29-1.69-8.25-2.71-11.94-2.35-8.48-3.08-11.54-1.7-13.82,1.66-2.73,5.35-2.82,12.69-2.99,2.41-.06,6.03-.14,8.26-.44-.47-1.4-1.14-3.21-1.72-4.78-4.88-13.27-6.51-19.38-3.98-22.81,1.68-2.28,5.01-4.03,9.22-6.24,3.76-1.98,8.44-4.44,10.1-6.69,1.88-2.54,5.64-12.18,9.81-25.15.58-1.78,2.21-2.96,4.07-2.94,1.86.02,3.48,1.22,4.02,3.01,2.98,9.85,5.33,15.54,6.29,16.75,1.32,1.09,1.7,2.94.96,4.45Zm-1.17-4.6h0s0,0,0,0Zm-53.73,77.91h0s0,0,0,0Zm-.45.81h0Zm17.06-53.46-14.78,29.96"></path><path class="cls-1" d="m690.69,89.77c-.1.21-.23.42-.38.62-4.43,5.79-19.63,7.54-24.18,7.93-2.02.18-3.81-1.32-3.98-3.34-.18-2.02,1.32-3.81,3.34-3.98,7.82-.69,17.31-2.89,18.98-5.08,1.23-1.61,3.54-1.92,5.15-.69,1.42,1.08,1.83,2.99,1.07,4.53Z"></path><path class="cls-1" d="m691.91,89.52c-.48.99-1.41,1.75-2.57,1.99l-18.3,3.74c-1.99.41-3.93-.88-4.34-2.87-.41-1.99.88-3.93,2.87-4.34l18.3-3.74c1.99-.41,3.93.88,4.34,2.87.17.83.05,1.65-.3,2.35Z"></path><path class="cls-3" d="m150.97,546.57c2.29,1.2,4.71,3.73,6.22,6.04,1.47,2.23,2.74,4.81,3.08,7.57.13,1.06.2,2.02.04,3.07-.14.87-.4,1.73-.89,2.4-.66.92-2.29,1.03-3.28.89-1.55-.22-2.54-3.84-2.55-5.25-.01-1.49.38-2.6-.45-3.99-.16-.27-.36-.53-.5-.82-.14-.3-.22-.64-.33-.96-.28-.79-.96-1.97-1.5-2.59-.7-.8-1.45-1.53-2.18-2.3-.88-.93-1.42-2.58-.84-3.79.69-1.43,2.09-.84,3.18-.26Z"></path><path class="cls-3" d="m66.12,549.43c3.05-4.41,12.16-7.76,15.22-8.6-1.87-.76-4.43-1.81-7-2.89-2.9-1.23-5.23-2.26-6.93-3.07-3.22-1.53-4.59-2.34-5.19-4.18-.33-1.02-.49-2.62.66-4.43.37-.58.88-1.15,1.5-1.81,2.23-2.36,9.95-4.7,12.2-5.15-1.33-.65-3.52-1.74-5.75-2.91-2.08-1.09-3.76-2.02-4.99-2.76-2.09-1.26-3.61-2.3-4.06-4.25-.24-1.05-.25-2.65,1.06-4.31.42-.53.96-1.07,1.66-1.62,2.62-2.02,7.83-3.06,9.85-3.36-.59-.95-1.23-1.99-1.87-3.06-1.3-2.15-2.33-3.93-3.06-5.29-1.23-2.3-2.06-4.07-1.53-5.92.29-1,1.04-2.3,2.98-2.83.62-.17,1.35-.33,2.23-.29,4.22.19,11.94,4.19,13.87,5.42-.01-1.27-.03-4.65.03-8.11.05-2.56.13-4.64.25-6.17.08-1.02.18-1.82.3-2.45.13-.67.52-2.7,2.35-3.35,3.16-1.12,6.44,2.31,8.97,5.12,2.11,2.35,3.66,4.68,3.72,4.79,1.02,1.72,1.03,3.81-.41,4.88-1.21.89-2.57,1.13-3.98-.78-.01-.02-1.53-1.74-3.07-3.52-.62-.72-1.16-1.3-1.61-1.76-.12,2.62-.17,6.27-.16,9.79,3.52-1.6,7.68-2.57,11.89-3.15.15-.13.34-.25.56-.36,2.44-1.23,4.57-2.03,7.01-1.94.9.03,1.81.18,2.69.33.33.05.66.11.98.16,4.56-.32,8.4.6,10.69,1.15.23.06.45.11.66.16.79.18,1.53.36,2.2.55,5.4.61,10.66,1.58,15.2,2.79,6.73,1.8,11.51,4.02,14.2,6.58,6.19,5.88,9.23,13.61,8.8,22.33-.37,7.55-3.09,13.64-4.37,15.81-1.2,2.03-3.17,3.7-6.99,5.81-2.58,1.43-5.93,3-9.96,4.67-6.78,2.82-13.11,4.94-13.37,5.03-.13.04-.19.06-.32.09-.15.04-1.34.37-2.34,1.25-1.14,1-1.85,2.02-1.92,4.66-.04,1.4.03,2.55-.5,2.94.1.05.2.1.31.15,3.77,1.87,8.7,5.15,8.92,5.33,1.51,1.21,3.05,1.37,3.67.84.46-.4.61-1.04.55-1.65-.4-4.05-7.82-5.8-7.84-5.81-1.34-.47-3.15-.76-3.06-2.84.1-2.09,1.67-3.59,3.52-3.35.29.04,2.87.39,5.73,1.63,5.64,2.44,7.55,6.23,8.15,8.98.76,3.48-.33,7.1-2.79,9.21-.44.37-.9.69-1.38.95,2.35,5.4.4,8.79-.62,10.05-1.15,1.43-2.85,2.44-4.84,2.9-.27.06-.54.11-.82.15-2.11.31-4.2,0-5.73-.88-.73-.41-1.63-1.03-2.76-1.81-3.5-2.4-10.02-6.86-14.6-6.75-1.85.04-3.47-1.62-3.62-3.72-.15-2.1,1.22-3.84,3.07-3.89,6.58-.16,13.95,4.89,18.36,7.91.95.65,1.78,1.22,2.25,1.49,2.59,1.67,4.32-1,2.99-3.12-1.54-2.45-5.55-5.71-11.45-8.65-4.94-2.45-9.45-3.96-9.5-3.98-1.81-.6-2.93-2.72-2.51-4.73.42-2.01,2.22-3.16,4.03-2.56.11.04,1.73.58,4.1,1.53,0-.06-.02-.11-.03-.17-.64-4.77.8-8.88,4.04-11.55,1.94-1.6,3.98-2.22,4.67-2.4.89-.3,6.59-2.25,12.57-4.72,11.82-4.88,13.7-7.2,13.9-7.51.38-.71,1.17-2.31,1.89-4.48-.06-.02-1.46-.58-2.12-.32-1.67.65-2.57,3.57-4.79,3.91-1.28.19-3.29-1.25-4.15-2.49-.67-.97-1.46-1.58-2.01-1.64-.76-.09-1.49.46-1.97.88-.31.28-1.89,1.4-2,1.49-.35.29-.71.6-1.15.7-.47.11-1.07.19-1.57-.21-.3-.23-.6-.48-.9-.71l-.31-.25c-.07-.06-.14-.11-.22-.17-.28-.22-.59-.46-.82-.72-.09-.1-.16-.21-.24-.32-.2-.29-.39-.56-.75-.53-.2.02-.38.16-.53.29-.45.37-.92.75-1.32,1.19-.05.06-.11.12-.16.18-.43.48-.91,1.02-1.55.97-.49-.04-.9-.42-1.32-.84-.39-.4-.77-.82-1.13-1.23-.16-.18-.33-.37-.5-.55-.1-.11-.19-.24-.28-.37-.27-.4-.51-.75-.94-.47-.68.44-1.1,1-1.5,1.6-.46.68-1.51.8-2.25.52-.8-.3-1.52-1.06-1.9-2.03-.9-2.26-.67-4.16.65-5.5,1.35-1.36,3.39-1.19,5.36-.89l9.57,1.45c.28.04.57.11.88.17.66.14,1.34.29,1.94.23.61-.07,1.27-.04,1.91,0,.85.04,1.73.09,2.51-.11,5.59-1.41,9.68-1.35,11.18-1.27,1.51.09,2.76.26,3.78.53.04-.41.07-.82.09-1.25.14-2.78-.21-5.39-1.04-7.76-.98-2.8-2.67-5.35-5.03-7.59-3.15-2.99-14.81-6.76-30.23-7.85-7.24-.51-14.02-.31-19.61.58-7.46,1.19-10.95,3.28-12.56,4.82-2.36,2.26-3.95,6.89-4.61,13.4-.54,5.34-.22,9.98-.21,10.03.09,1.22,2.11,29.91,2.5,37.04.4,7.42-.64,21.51-1.22,27.4-.18,1.79-1.76,3.88-3.75,3.46s-3.06-2.47-2.95-4.81c.19-4.04.96-13.12.96-20.22-1.7-.63-4.08-1.53-6.45-2.46-2.63-1.03-4.75-1.9-6.31-2.6-2.9-1.3-4.24-2.04-4.91-3.75-.39-1-.83-2.74.38-4.49Zm4.58-20.73c2.82,1.29,6.9,3.02,11.02,4.71-.19-2.8-.38-5.41-.53-7.57-.31.16-.65.26-1.01.29-.04,0-4.1.38-9.49,2.58Zm-.15-20.33c2.63,1.45,6.27,3.31,9.52,4.88.22.11.43.24.63.4.04-1.53.14-3.25.31-5.06.06-.62.13-1.22.2-1.81-.32.12-.67.18-1.03.16-.04,0-4.15-.08-9.63,1.43Zm14.03-13.64c-1.21-.8-4.26-2.7-8.54-4.35,2.1,4.87,6.07,10.74,6.16,10.93.59-2.26,1.49-4.85,2.38-6.58Zm-1.41,60.4c-.11-1.83-.27-4.29-.46-7.08-2.52.72-5.93,1.84-8.95,3.36,2.43,1.04,5.89,2.4,9.4,3.72Z"></path><path class="cls-3" d="m100.84,504.73c1.05-1.75,2.57-2.98,4.27-3.47,3.49-.99,7.07,1.12,9.58,5.64.9,1.61.6,3.84-.85,4.58-1.35.69-2.73-.32-3.72-1.63-.45-.6-1.8-2.41-3.25-2.07-1.66.38-2.15,1.94-2.36,3.18-.33,1.96-1.23,3.11-2.4,3.08-1.63-.05-2.73-1.54-2.77-3.39-.05-2.13.48-4.23,1.49-5.92Z"></path><path class="cls-4" d="m131.03,137.75c-1.84.29-3.52-1.14-3.72-2.99-.56-5.21,1.4-9.25,5.26-10.82,1.89-.77,4.08-.83,6.18-.17,2.01.63,3.84,1.92,5.17,3.61,1.15,1.47.86,3.6-.43,4.61-1.37,1.07-3.3.76-4.85-.68-1.13-1.05-2.12-1.72-3.52-1.11-1.56.68-1.28,2.8-1.26,3.92.04,1.68-.96,3.34-2.82,3.63Z"></path><path class="cls-4" d="m165.47,122.01c-2.01.32-3.52-1.14-3.72-2.99-.56-5.21,1.4-9.25,5.26-10.82,1.89-.77,4.08-.83,6.18-.17,2.01.63,3.84,1.92,5.17,3.61,1.15,1.47.98,3.47-.49,4.62-1.47,1.15-3.19.79-4.62-.45-1.57-1.36-2.45-1.89-3.7-1.35-1.49.65-1.37,2.5-1.36,3.93,0,1.61-.6,3.29-2.72,3.62Z"></path><path class="cls-4" d="m174.52,172.83c-9.27,4.24-19.91,4.54-30.02.85-5.66-2.07-10.82-5.24-15.36-9.44-4.69-4.34-8.44-9.54-11.14-15.44-2.55-5.58-3.96-11.57-4.19-17.8-.22-6.02.67-11.97,2.64-17.67,1.99-5.76,4.98-10.95,8.88-15.42,4.1-4.69,9.01-8.37,14.6-10.93,2.06-.94,4.5-.04,5.45,2.03.34.74.44,1.54.33,2.29,2.74-.96,5.58-1.55,8.5-1.77,4.71-.35,9.52.26,14.31,1.84,5.99,1.97,11.76,5.41,16.7,9.93,4.84,4.44,8.66,9.73,11.05,15.28,2.4,5.6,3.65,11.36,3.71,17.13.06,5.52-.96,10.9-3.03,15.99-4.06,10-11.88,18.14-22.01,22.92-.14.07-.29.13-.43.2Zm-36.89-75.05c-2.22,1.58-4.25,3.44-6.09,5.54-3.2,3.67-5.66,7.94-7.31,12.7-1.64,4.74-2.38,9.68-2.2,14.68.19,5.15,1.35,10.08,3.45,14.68,4.39,9.61,12.36,17.11,21.85,20.58,8.18,2.99,16.75,2.72,24.11-.76,8.26-3.9,14.62-10.5,17.91-18.59,1.66-4.08,2.48-8.39,2.43-12.81-.05-4.68-1.08-9.38-3.05-13.98-3.99-9.31-12.93-17.41-22.76-20.64-5.46-1.8-13.73-2.9-22.15,2.03-1.96,1.15-4.48.49-5.63-1.47-.36-.62-.55-1.29-.56-1.96Z"></path><path class="cls-4" d="m185.55,82.16c-.14.07-.28.15-.41.24-.84.54-1.57,1.29-2.17,2.05-2.88,3.67-5.35,7.39-6.02,9.82-.42,1.82-.08,3.26,1.38,4.4,1.53,1.2,4.05,1.56,4.98-.05,2.43-4.13,5.4-7.92,7.7-12.12.69-1.26-1.04-2.86-2.28-3.8-.66-.5-1.46-.86-2.2-.82-.36.02-.68.13-.98.28Z"></path><path class="cls-4" d="m164.76,75.75c.06.13.12.26.16.39.31.84.42,1.77.43,2.64.04,4.18-.25,8.17-1.12,10.27-.72,1.53-1.77,2.36-3.47,2.38s-3.83-1.11-3.6-2.75c.55-4.27.51-8.58,1.19-12.82.2-1.27,2.36-1.46,3.79-1.46.76,0,1.54.19,2.06.62.25.21.43.46.56.73Z"></path><path class="cls-4" d="m106.3,97.51c.16-.02.32-.02.48-.02,1.03,0,2.08.23,3.04.54,4.58,1.5,8.84,3.26,10.84,4.92,1.42,1.29,1.97,2.66,1.41,4.39-.59,1.82-2.52,3.47-4.24,2.64-4.47-2.12-9.2-3.67-13.6-5.92-1.32-.68-.79-2.93-.29-4.38.26-.77.73-1.5,1.38-1.86.31-.18.65-.26.99-.3Z"></path><path class="cls-4" d="m206.96,101.96c-.16-.01-.31-.01-.47,0-1,.03-2.01.28-2.94.6-4.43,1.55-8.56,3.34-10.48,4.95-1.37,1.25-1.9,2.56-1.33,4.17s2.47,3.18,4.14,2.34c4.33-2.13,8.9-3.73,13.15-5.98,1.28-.68.75-2.78.25-4.12-.26-.71-.72-1.38-1.35-1.71-.31-.16-.64-.23-.97-.25Z"></path><path class="cls-4" d="m113.81,133.86c-.15-.04-.3-.07-.45-.09-.96-.15-1.98-.09-2.93.04-4.53.67-8.81,1.61-10.95,2.78-1.55.93-2.29,2.05-2.06,3.65.25,1.68,1.76,3.41,3.51,2.91,4.54-1.23,9.21-1.92,13.7-3.27,1.35-.41,1.24-2.46,1.02-3.8-.12-.71-.43-1.42-.97-1.83-.26-.2-.57-.32-.88-.4Z"></path><path class="cls-4" d="m128.48,162.52c-.15.07-.3.14-.44.22-.91.52-1.73,1.24-2.44,1.99-3.38,3.59-6.36,7.24-7.39,9.66-.68,1.82-.56,3.26.71,4.46,1.33,1.25,3.76,1.7,4.91.11,3.01-4.07,6.49-7.77,9.38-11.91.87-1.24-.6-2.9-1.68-3.89-.57-.52-1.31-.91-2.04-.9-.36,0-.69.1-1.01.25Z"></path><path class="cls-4" d="m152.4,175.72c-.06.14-.12.28-.17.42-.31.91-.43,1.9-.44,2.84-.06,4.5.2,8.79,1.07,11.05.71,1.64,1.76,2.55,3.47,2.57s3.85-1.17,3.63-2.95c-.52-4.59-.46-9.23-1.12-13.79-.2-1.37-2.36-1.58-3.79-1.58-.76,0-1.55.19-2.07.65-.25.22-.43.5-.57.79Z"></path><path class="cls-4" d="m199.19,143.05c.14.08.28.14.42.2.91.38,1.91.54,2.86.59,4.56.24,8.93.11,11.26-.76,1.7-.72,2.66-1.84,2.76-3.72.1-1.97-1.02-4.28-2.83-4.1-4.68.4-9.38.16-14.04.72-1.4.17-1.71,2.54-1.77,4.12-.03.84.13,1.71.57,2.3.22.29.49.49.77.65Z"></path><path class="cls-4" d="m187.29,163.47c.06.13.12.25.19.37.44.76,1.06,1.43,1.7,1.99,3.09,2.67,6.25,4.99,8.36,5.67,1.59.44,2.86.19,3.94-1.06,1.13-1.31,1.57-3.52.2-4.4-3.52-2.3-6.71-5.05-10.3-7.23-1.08-.65-2.57.82-3.46,1.87-.47.56-.83,1.26-.83,1.91,0,.32.08.61.2.88Z"></path><path class="cls-4" d="m160.38,142.59c-1.25.57-2.64.94-4.07,1.08-2.35.22-4.72-.22-6.65-1.25-1.65-.87-2.28-2.91-1.41-4.57.87-1.65,2.7-1.99,4.61-1.32s4.2.43,5.71-.62c2-1.4,2.6-3,2.91-5.88.21-1.95,1.48-3.32,3.34-3.2,1.86.13,3.27,1.74,3.14,3.6-.33,4.81-2.06,8.26-5.44,10.87-.65.5-1.37.93-2.14,1.28Z"></path></svg> 