<?xml version="1.0" encoding="UTF-8"?> <svg xmlns="http://www.w3.org/2000/svg" id="icons" viewBox="0 0 800 800"><defs><style>.cls-1{fill:none;stroke:#a0e6b4;stroke-miterlimit:10;stroke-width:6px;}.cls-2{fill:#e94f43;}.cls-3{fill:#e7bb86;}.cls-4{fill:#a0e6b4;}</style></defs><path class="cls-4" d="m282.46,551.6c-.48,0-.96-.09-1.43-.29-.92-.39-22.59-9.77-29.15-40.09-1.33-6.13-1.67-12.81-1.02-19.85.15-1.61.08-3.35-.23-5.1-8.57,2.09-15.22,2.77-18.64-1.56-3.2-4.05-2.88-10.14.75-14.18,2.99-3.32,8.57-5.37,15.26-1.15,3.07,1.94,5.57,4.7,7.34,7.98.24-.07.48-.13.71-.19,4.38-1.19,9.05-2.45,13.69-3.38-.18-.49-.37-.99-.55-1.49-4.21-11.36-10.42-28.1-15.44-38.33-9.46,1.1-17.09.36-19.84-6.02-1.77-4.1-.97-8.12,2.07-10.49,4.13-3.22,11.05-2.36,16.84,2.08,1.58,1.21,3.23,3.36,4.99,6.33,3.01-.48,5.97-1.04,8.46-1.51,3.19-.6,6.33-1.19,9.34-1.67-2.28-5.47-4.34-11.86-6.02-18.91-2.37-9.96-5.7-17.6-8.95-22.85-2.46.72-4.63,1.11-6.41.99-7.99-.52-10.29-4.67-10.91-6.44-1-2.84-.21-5.98,2.01-8,2.61-2.38,5.92-3.12,9.31-2.08,2.97.91,5.96,3.24,8.8,6.67,3.45-1.38,7.3-3.14,10.75-4.72,1.51-.69,2.93-1.34,4.29-1.94-9.1-10.83-19.15-28.4-24.15-52.54-.42-2.01.88-3.98,2.88-4.39,2.01-.42,3.98.88,4.39,2.88,5.16,24.91,15.87,41.73,24.07,50.99,4.34-1.68,7.61-2.5,10.1-2.16,4.14.56,7.42,2.97,8.79,6.42,1.2,3.03.73,6.4-1.21,8.8-1.98,2.44-5.16,3.49-8.7,2.88-2.36-.41-6.27-2.79-10.81-7.13-2.29,1-4.59,2.05-6.56,2.95-3.29,1.5-6.51,2.98-9.53,4.23,3.68,6.32,6.87,14.5,9.07,23.72,1.98,8.29,4.26,14.77,6.48,19.72,5.14-.33,9.52.13,12.55,2.13,6.38,4.22,7.04,9.76,5.67,13.21-1.55,3.9-5.68,6.09-10.05,5.33-4.15-.72-8.55-5.35-12.54-12.74-3.69.51-7.66,1.26-11.28,1.94-2.09.39-4.17.79-6.21,1.15,4.26,8.99,9.1,21.74,14.72,36.9.37.98.73,1.96,1.09,2.93,9.79-.94,18.59.8,23.14,9.49,6.77,12.93,3.74,20.46-1.34,23.2-5.72,3.08-15,.18-20.64-10-1.45-2.63-3.5-7.78-6.03-14.5-4.68.88-9.63,2.22-14.37,3.51-.05.01-.09.03-.14.04.49,2.47.64,5.06.4,7.68-.58,6.29-.28,12.21.89,17.6,2.39,11.07,7.28,20.28,14.51,27.38,5.42,5.32,10.21,7.41,10.26,7.43,1.88.81,2.76,2.98,1.97,4.87-.6,1.42-1.97,2.27-3.42,2.27Zm-2.52-71.74c2.06,5.44,3.84,9.85,4.95,11.86,3.38,6.1,8.46,8.22,10.62,7.06,1.63-.88,2.52-5.12-1.72-13.22-2.44-4.66-7.58-6-13.85-5.71Zm-39.35-5.42c-.84,0-1.65.29-2.33,1.04-1.05,1.17-1.48,3.3-.45,4.61.99.96,5.39.24,9.99-.82-.99-1.41-2.24-2.66-3.77-3.62-1.01-.64-2.26-1.21-3.44-1.21Zm46.56-45.35c2.53,4,4.62,5.84,5.57,6.04.9.16,1.64-.14,1.88-.75.36-.91-.38-2.63-2.87-4.27-.98-.65-2.59-.95-4.58-1.01Zm-45.02-6.17c-.75,0-1.31.16-1.6.39-.32.25-.03,1.18.19,1.69.77,1.78,4.36,2.13,8.89,1.84-.48-.62-.93-1.1-1.34-1.42-2.46-1.89-4.68-2.5-6.15-2.5Zm9.52-50.56c-.48,0-.89.19-1.34.6.14.38,1.23,1.33,4.38,1.53.25.02.52,0,.83-.02-1.15-1.04-2.2-1.7-3.08-1.98-.29-.09-.55-.13-.78-.13Zm39.88-4.23c2.04,1.71,3.59,2.64,4.39,2.82.8.14,1.42.04,1.66-.25.2-.24.3-.78.07-1.38-.38-.95-1.4-1.59-2.88-1.79-.65-.09-1.79.15-3.23.6Z"></path><path class="cls-3" d="m636.66,109.21c.48-1.64.08-3-.98-3.97l-25.43-23.86c.72-4.55,1.76-14.04,1-23.4-.07-.82-.22-1.93-.5-3.18.56-.15,1.11-.23,1.63-.4,1.74-.57,3.66-2.67,3.08-4.84-.64-2.41-3.2-3.06-5.38-2.58-14.31,3.17-30.44,14.71-36.5,19.38-17.37-10.82-31.08-13.51-31.68-13.62-1.48-.28-2.96-.01-3.89,1.16-.94,1.18-1.08,2.76-.59,4.08.04.1,2.47,5.77,6.09,13.63-3.03-1.14-6.74-2.31-10.96-3.18-7.05-1.44-14.17-2.05-21.12-2.01-8.72.05-17.16,1.19-25.02,4.03-2.35.85-3.83,2.93-2.96,5.15,1.13,2.89,3.68,2.88,5.57,2.53,7.41-1.37,14.41-3.03,22.3-3.09,6.35-.05,12.86.56,19.34,1.8,9.2,1.76,15.76,4.33,17.78,5.17.92,1.9,1.88,3.84,2.85,5.79l-28.24,27.07c-1.16,1.1-1.96,2.98-1.4,4.48.76,2.01,3.27,2.57,3.88,2.62,4.77.4,9.87-.01,15.67-.52,7.75-.68,16.46-1.44,24.87-.19l2.03,3.26c.26,1.78,1.54,3.74,2.52,5.11,1.03,1.45,2.02,2.9,2.69,4.76.54,1.49,1.49,2.85,2.41,4.16.22.31.44.63.65.94,2.11,4.98,4.97,8.55,6.67,10.68.17.22.35.42.49.61,3.44,4.82,5.65,5.25,6.95,4.87,1.34-.22,2.5-1.1,3.06-2.36,6.11-13.82,7.24-31.08,7.42-38.7l32.68-2.65c1.58-.11,2.68-1.46,3.06-2.74Zm-40.04-2.45c-2.22.25-3.66,1.72-3.78,4.14,0,.19.31,16.64-4.03,31.53l-16.86-27.01c-.6-.9-1.83-1.7-2.71-1.84-10.05-1.65-19.98-.97-28.78-.21-1.6.14-3.17.28-4.7.39l23.26-22.17c1.3-1.24,1.88-2.44,1.07-4.04-4.46-8.77-8.87-18.36-11.67-24.48.35.12.71.26,1.08.39,5.15,1.9,13.16,5.4,22.07,11.25,1.48.97,2.53.96,3.99.04.06-.04,6.01-4.55,13.08-9.14,5.33-3.45,10.33-6.21,14.83-8.19,0,.07,0,.13.01.2.89,10.99-1.5,25.07-1.5,25.2-.07,1.55.15,2.12,1.17,3.1l21.22,18.95-27.78,1.87Z"></path><path class="cls-3" d="m487.79,55.79c1.12,2.82,3.96,2.92,5.74,2.68,6.2-.84,12.34-1.58,19.58-1.31,6.72.25,12.8,1.51,16.94,2.65,2.49.69,4.7-.39,5.35-2.37.61-1.87-.48-3.8-2.77-4.82-10.1-4.5-28.51-5.42-42.15-2.17-1.7.41-3.68,2.82-2.68,5.35Z"></path><path class="cls-3" d="m481.51,79.49c.08-1.15-.35-2.29-.95-3.28-.58-.95-1.33-1.8-2.2-2.49-.55-.44-.71-.35-1.37-.15-.49.15-.99.32-1.46.53-2.33,1.03-3.97,2.65-4.18,4.64-.26,2.51,1.23,4.46,3.53,4.7,1.05.11,2.36-.39,3.89-.87,1.31-.46,2.34-1.16,2.65-2.48.04-.19.07-.39.09-.61Z"></path><path class="cls-3" d="m498.87,88.7c-.95-.38-2-.43-3.02-.38-1.37.07-2.68.25-4.02.46-2.73.41-5.41,1.08-7.98,1.95-2.64.82-3.86,3.86-2.52,6.3,1.26,2.32,3.95,1.22,6.01.56,3.04-.97,6.16-1.71,9.32-2.21,1.2-.19,2.53-.38,3.58-1.04,1.37-.85,1.26-1.46.96-2.87-.26-1.24-1.09-2.29-2.32-2.77Z"></path><path class="cls-3" d="m521.84,86.31c-.38-.56-.94-.81-1.59-.89-.32-.04-.64,0-.96-.04-.35-.03-.63-.2-.98-.27-.38-.08-.76-.11-1.15-.13-1.26-.08-2.55-.1-3.81.03-2.06.17-5.84.37-7.7,2.04-2.39,2.13-.77,5.56,2.3,5.23,1.21-.13,2.43-.27,3.64-.4.89-.1,1.79-.2,2.69-.14,1.43.08,2.81.54,4.24.65,1.09.08,2.33-.07,3.23-.74,1.15-.86.86-1.91.72-3.21-.08-.74-.22-1.5-.64-2.12Z"></path><path class="cls-3" d="m542.73,87.13c-1.32-.98-3.05-1.34-4.63-1.66-2.73-.6-5.51-.94-8.28-1.06-4.28-.17-5.23,4.25-2.67,7.06.29.31.61.6,1,.76.9.38,1.89.04,2.82.18,3.91.57,7.82-.23,11.65-.93,2.38-.44,1.53-3.28.1-4.35Z"></path><path class="cls-1" d="m52.93,163.71s14.96,119.45,124.7,150.51c109.74,31.06,177.51-128.12,173.59-171.5-3.29-36.44-15.3-57.32-36.91-48.85-31.15,12.21-14.36,106.93,71.63,120.08,271.55,41.54,314.45-76.86,332.4-120.91"></path><path class="cls-2" d="m259.33,225.41c-.48,0-.95-.03-1.41-.08-7.23-.8-7.26-6.6-7.28-10.07,0-1.52-.02-3.09-.36-4.62-.48-2.15-.09-4.25,1.12-6.09,2.89-4.38,9.64-5.84,10.96-6.09l1.28-.24,1.13.66c.99.58,9.72,5.87,9.72,13,0,3.29-1.68,6.68-4.62,9.31-3.01,2.7-6.86,4.22-10.55,4.22Zm-1.49-7.22c.11.05.36.13.84.18,2.11.23,4.61-.69,6.52-2.4,1.43-1.28,2.29-2.82,2.29-4.1,0-1.92-2.75-4.57-5.12-6.23-1.97.56-4.37,1.6-5.13,2.76-.16.25-.19.42-.13.71.5,2.26.51,4.39.52,6.11,0,.99.01,2.46.2,2.97Z"></path><path class="cls-2" d="m238.26,242.8c-.93,0-1.82-.07-2.67-.2-4.97-.76-8.56-3.59-9.84-7.75-2.05-6.67,4.12-13.51,18.36-20.32,4.65-2.23,9.99-1.77,13.94,1.19h0c5.01,3.76,5.59,9.53,1.53,15.42-5.45,7.93-14.32,11.65-21.31,11.65Zm11.91-22.64c-1.02,0-2.07.23-3.05.7-11.74,5.62-15.22,10.22-14.69,11.94.6,1.95,2.62,2.65,4.21,2.89,4.96.76,12.67-1.96,17.16-8.5,2.67-3.88,1.08-5.07.04-5.86-1.04-.78-2.33-1.17-3.67-1.17Z"></path><path class="cls-2" d="m248.04,217.12c-1.9,0-3.98-.49-6.15-1.49-9.91-4.54-15.25-14.33-15.41-21.66-.11-5.03,2.06-9.05,5.94-11.03,9.3-4.74,26.27,12.81,29.2,16.93,3.2,4.48-.92,7.95-2.67,9.44-.85.71-1.81,1.52-2.13,2.16h0c-1.89,3.72-4.99,5.65-8.78,5.65Zm-11.77-28.08c-.27,0-.49.04-.68.14-1.81.92-2.15,3.04-2.12,4.64.11,5.02,4.11,12.14,11.32,15.44,4.28,1.96,5.18.2,5.78-.97.97-1.9,2.57-3.25,3.86-4.34.27-.23.62-.52.91-.79-4.89-6.31-15.53-14.12-19.08-14.12Z"></path><path class="cls-2" d="m270.53,210.85c-2.75,0-4.94-2.37-6.05-3.58-.75-.81-1.6-1.74-2.26-2.03-5.71-2.59-7.52-8.09-4.83-14.73,4.09-10.11,13.63-15.88,20.95-16.37,5.02-.33,9.13,1.65,11.28,5.44,5.15,9.08-11.61,26.82-15.59,29.94-1.23.96-2.4,1.33-3.49,1.33Zm8.89-29.75c-.21,0-.42,0-.62.02-5.01.33-11.94,4.65-14.92,12.01-1.77,4.37.04,5.19,1.23,5.73h0c1.94.88,3.37,2.42,4.51,3.66.24.26.55.6.83.88,6.54-5.56,14.52-17.83,13.08-20.36-.88-1.55-2.62-1.93-4.11-1.93Z"></path><path class="cls-2" d="m272.1,253.93c-.14,0-.28,0-.42,0-4.38-.17-8.47-4.34-12.16-12.39-2.5-5.45-4.57-12.29-5.05-16.65-.6-5.47,4.69-6.49,6.94-6.93,1.09-.21,2.32-.45,2.92-.85,5.21-3.48,10.84-2.12,15.06,3.66,6.43,8.8,6.31,19.96,2.86,26.43-2.29,4.29-5.97,6.73-10.15,6.73Zm-10.55-28.86c1.33,9.02,7.72,21.75,10.4,21.85,2.05.08,3.36-1.6,4.12-3.02,2.36-4.43,2.35-12.6-2.33-19.01-2.78-3.81-4.43-2.7-5.52-1.97h0c-1.77,1.19-3.83,1.58-5.49,1.9-.35.07-.8.15-1.19.24Z"></path><path class="cls-2" d="m292.53,228.61c-6.43,0-13.82-3.26-18.75-5.44-1.59-.7-2.96-1.31-3.99-1.68-.66-.24-2.66-.97-3.46-3-.77-1.95.07-3.62.57-4.62.41-.82.57-1.19.51-1.66h0c-.82-6.21,2.91-10.66,9.96-11.88,10.82-1.88,20.02,2.93,24.34,8.52,3.17,4.11,3.92,8.8,2.07,12.86-2.36,5.17-6.55,6.9-11.25,6.9Zm-18.71-13.06c.85.36,1.78.77,2.79,1.21,9.15,4.04,18.29,7.53,20.8,2.03,1.01-2.22-.34-4.51-1.24-5.67-2.93-3.81-9.69-7.27-17.6-5.9-4.64.81-4.38,2.77-4.21,4.07h0c.23,1.74-.11,3.16-.53,4.26Z"></path><path class="cls-2" d="m262.06,224.64c-6.61,0-11.98-5.37-11.98-11.98s5.37-11.98,11.98-11.98,11.98,5.37,11.98,11.98-5.37,11.98-11.98,11.98Zm0-16.96c-2.75,0-4.98,2.23-4.98,4.98s2.23,4.98,4.98,4.98,4.98-2.23,4.98-4.98-2.23-4.98-4.98-4.98Z"></path><path class="cls-3" d="m644.21,729.59c-.48,0-.95-.03-1.41-.08-7.23-.8-7.26-6.6-7.28-10.07,0-1.52-.02-3.09-.36-4.62-.48-2.15-.09-4.25,1.12-6.09,2.89-4.38,9.64-5.84,10.96-6.09l1.28-.24,1.13.66c.99.58,9.72,5.87,9.72,13,0,3.29-1.68,6.68-4.62,9.31-3.01,2.7-6.86,4.22-10.55,4.22Zm-1.49-7.22c.11.05.36.13.84.18,2.11.23,4.61-.69,6.52-2.4,1.43-1.28,2.29-2.82,2.29-4.1,0-1.92-2.75-4.57-5.12-6.23-1.97.56-4.37,1.6-5.13,2.76-.16.25-.19.42-.13.71.5,2.26.51,4.39.52,6.11,0,.99.01,2.46.2,2.97Z"></path><path class="cls-3" d="m623.14,746.98c-.93,0-1.82-.07-2.67-.2-4.97-.76-8.56-3.59-9.84-7.75-2.05-6.67,4.12-13.51,18.36-20.32,4.65-2.23,9.99-1.77,13.94,1.19h0c5.01,3.76,5.59,9.53,1.53,15.42-5.45,7.93-14.32,11.65-21.31,11.65Zm11.91-22.64c-1.02,0-2.07.23-3.05.7-11.74,5.62-15.22,10.22-14.69,11.94.6,1.95,2.62,2.65,4.21,2.89,4.96.76,12.67-1.96,17.16-8.5,2.67-3.88,1.08-5.07.04-5.86-1.04-.78-2.33-1.17-3.67-1.17Z"></path><path class="cls-3" d="m632.93,721.3c-1.9,0-3.98-.49-6.15-1.49-9.91-4.54-15.25-14.33-15.41-21.66-.11-5.03,2.06-9.05,5.94-11.03,9.3-4.74,26.27,12.81,29.2,16.93,3.2,4.48-.92,7.95-2.67,9.44-.85.71-1.81,1.52-2.13,2.16h0c-1.89,3.72-4.99,5.65-8.78,5.65Zm-11.77-28.08c-.27,0-.49.04-.68.14-1.81.92-2.15,3.04-2.12,4.64.11,5.02,4.11,12.14,11.32,15.44,4.28,1.96,5.18.2,5.78-.97.97-1.9,2.57-3.25,3.86-4.34.27-.23.62-.52.91-.79-4.89-6.31-15.53-14.12-19.08-14.12Z"></path><path class="cls-3" d="m655.41,715.03c-2.75,0-4.94-2.37-6.05-3.58-.75-.81-1.6-1.74-2.26-2.03-5.71-2.59-7.52-8.09-4.83-14.73,4.09-10.11,13.63-15.88,20.95-16.37,5.02-.33,9.13,1.65,11.28,5.44,5.15,9.08-11.61,26.82-15.59,29.94-1.23.96-2.4,1.33-3.49,1.33Zm8.89-29.75c-.21,0-.42,0-.62.02-5.01.33-11.94,4.65-14.92,12.01-1.77,4.37.04,5.19,1.23,5.73h0c1.94.88,3.37,2.42,4.51,3.66.24.26.55.6.83.88,6.54-5.56,14.52-17.83,13.08-20.36-.88-1.55-2.62-1.93-4.11-1.93Z"></path><path class="cls-3" d="m656.98,758.1c-.14,0-.28,0-.42,0-4.38-.17-8.47-4.34-12.16-12.39-2.5-5.45-4.57-12.29-5.05-16.65-.6-5.47,4.69-6.49,6.94-6.93,1.09-.21,2.32-.45,2.92-.85,5.21-3.48,10.84-2.12,15.06,3.66,6.43,8.8,6.31,19.96,2.86,26.43-2.29,4.29-5.97,6.73-10.15,6.73Zm-10.55-28.86c1.33,9.02,7.72,21.75,10.4,21.85,2.05.08,3.36-1.6,4.12-3.02,2.36-4.43,2.35-12.6-2.33-19.01-2.78-3.81-4.43-2.7-5.52-1.97h0c-1.77,1.19-3.83,1.58-5.49,1.9-.35.07-.8.15-1.19.24Z"></path><path class="cls-3" d="m677.41,732.79c-6.43,0-13.82-3.26-18.75-5.44-1.59-.7-2.96-1.31-3.99-1.68-.66-.24-2.66-.97-3.46-3-.77-1.95.07-3.62.57-4.62.41-.82.57-1.19.51-1.66h0c-.82-6.21,2.91-10.66,9.96-11.88,10.82-1.88,20.02,2.93,24.34,8.52,3.17,4.11,3.92,8.8,2.07,12.86-2.36,5.17-6.55,6.9-11.25,6.9Zm-18.71-13.06c.85.36,1.78.77,2.79,1.21,9.15,4.04,18.29,7.53,20.8,2.03,1.01-2.22-.34-4.51-1.24-5.67-2.93-3.81-9.69-7.27-17.6-5.9-4.64.81-4.38,2.77-4.21,4.07h0c.23,1.74-.11,3.16-.53,4.26Z"></path><path class="cls-3" d="m646.94,728.82c-6.61,0-11.98-5.37-11.98-11.98s5.37-11.98,11.98-11.98,11.98,5.37,11.98,11.98-5.37,11.98-11.98,11.98Zm0-16.96c-2.75,0-4.98,2.23-4.98,4.98s2.23,4.98,4.98,4.98,4.98-2.23,4.98-4.98-2.23-4.98-4.98-4.98Z"></path><path class="cls-3" d="m230.12,279.82c-.28,0-.55-.01-.83-.04-4.23-.47-4.25-3.86-4.26-5.89,0-.89,0-1.81-.21-2.7-.28-1.26-.05-2.49.66-3.56,1.69-2.57,5.64-3.42,6.41-3.56l.75-.14.66.38c.58.34,5.69,3.44,5.69,7.61,0,1.92-.98,3.91-2.7,5.45-1.76,1.58-4.02,2.47-6.17,2.47Zm-.87-4.22c.06.03.21.07.49.11,1.23.14,2.7-.4,3.82-1.4.84-.75,1.34-1.65,1.34-2.4,0-1.12-1.61-2.68-2.99-3.64-1.15.33-2.56.94-3,1.62-.1.15-.11.24-.07.42.29,1.32.3,2.57.31,3.57,0,.58,0,1.44.12,1.74Z"></path><path class="cls-3" d="m217.8,290c-.54,0-1.07-.04-1.56-.11-2.91-.45-5.01-2.1-5.76-4.53-1.2-3.9,2.41-7.9,10.74-11.89,2.72-1.3,5.85-1.04,8.16.7h0c2.93,2.2,3.27,5.57.9,9.02-3.19,4.64-8.38,6.81-12.47,6.81Zm6.97-13.25c-.6,0-1.21.13-1.78.41-6.87,3.29-8.9,5.98-8.59,6.99.35,1.14,1.53,1.55,2.46,1.69,2.9.45,7.41-1.15,10.04-4.97,1.56-2.27.63-2.97.02-3.43-.61-.45-1.37-.69-2.15-.69Z"></path><path class="cls-3" d="m223.52,274.97c-1.11,0-2.33-.29-3.6-.87-5.8-2.66-8.93-8.39-9.02-12.67-.06-2.94,1.21-5.3,3.48-6.45,5.44-2.78,15.37,7.49,17.09,9.9,1.87,2.62-.54,4.65-1.56,5.52-.5.42-1.06.89-1.25,1.27h0c-1.11,2.17-2.92,3.31-5.13,3.31Zm-6.89-16.43c-.16,0-.29.03-.4.08-1.06.54-1.26,1.78-1.24,2.72.06,2.94,2.4,7.1,6.63,9.04,2.51,1.15,3.03.11,3.38-.57.57-1.11,1.5-1.9,2.26-2.54.16-.14.36-.31.54-.46-2.86-3.69-9.09-8.26-11.16-8.26Z"></path><path class="cls-3" d="m236.68,271.3c-1.61,0-2.89-1.39-3.54-2.1-.44-.48-.94-1.02-1.32-1.19-3.34-1.51-4.4-4.74-2.83-8.62,2.39-5.91,7.98-9.29,12.26-9.58,2.93-.2,5.34.97,6.6,3.18,3.02,5.31-6.79,15.69-9.12,17.52-.72.56-1.41.78-2.04.78Zm5.2-17.4c-.12,0-.25,0-.36.01-2.93.19-6.99,2.72-8.73,7.03-1.03,2.56.02,3.03.72,3.35h0c1.14.52,1.97,1.42,2.64,2.14.14.15.32.35.49.51,3.83-3.25,8.49-10.43,7.65-11.91-.51-.91-1.53-1.13-2.41-1.13Z"></path><path class="cls-3" d="m237.59,296.51c-.08,0-.17,0-.25,0-2.56-.1-4.96-2.54-7.12-7.25-1.46-3.19-2.68-7.19-2.95-9.74-.35-3.2,2.74-3.8,4.06-4.05.64-.12,1.36-.26,1.71-.49,3.05-2.04,6.34-1.24,8.81,2.14,3.76,5.15,3.69,11.68,1.67,15.46-1.34,2.51-3.49,3.94-5.94,3.94Zm-6.18-16.88c.78,5.28,4.52,12.72,6.09,12.79,1.2.05,1.97-.93,2.41-1.76,1.38-2.59,1.37-7.37-1.37-11.12-1.63-2.23-2.59-1.58-3.23-1.16h0c-1.04.69-2.24.93-3.21,1.11-.21.04-.47.09-.69.14Z"></path><path class="cls-3" d="m249.55,281.69c-3.76,0-8.08-1.91-10.97-3.18-.93-.41-1.73-.77-2.33-.99-.38-.14-1.55-.57-2.02-1.75-.45-1.14.04-2.12.33-2.71.24-.48.33-.7.3-.97h0c-.48-3.64,1.7-6.23,5.83-6.95,6.33-1.1,11.72,1.71,14.24,4.99,1.86,2.4,2.3,5.15,1.21,7.52-1.38,3.02-3.83,4.04-6.58,4.04Zm-10.95-7.64c.5.21,1.04.45,1.63.71,5.35,2.37,10.7,4.41,12.17,1.19.59-1.3-.2-2.64-.73-3.32-1.72-2.23-5.67-4.26-10.3-3.45-2.72.47-2.57,1.62-2.47,2.38h0c.13,1.02-.06,1.85-.31,2.49Z"></path><path class="cls-3" d="m231.72,279.37c-3.87,0-7.01-3.14-7.01-7.01s3.14-7.01,7.01-7.01,7.01,3.14,7.01,7.01-3.14,7.01-7.01,7.01Zm0-9.92c-1.61,0-2.91,1.31-2.91,2.91s1.31,2.91,2.91,2.91,2.91-1.31,2.91-2.91-1.31-2.91-2.91-2.91Z"></path></svg> 