<?xml version="1.0" encoding="UTF-8"?> <svg xmlns="http://www.w3.org/2000/svg" id="icons" viewBox="0 0 800 800"><defs><style>.cls-1{stroke:#e94f43;}.cls-1,.cls-2,.cls-3{fill:none;stroke-miterlimit:10;stroke-width:6px;}.cls-1,.cls-3{stroke-linecap:round;}.cls-2{stroke:#a0e6b4;}.cls-4{fill:#65d7e7;}.cls-3{stroke:#65d7e7;stroke-dasharray:0 0 0 0 0 0 5 15 5 15 5 15;}</style></defs><path class="cls-4" d="m155.6,135.19c-.96-.91-2.04-1.11-3.08-.73l-25.41,9.05c-2.87-2.1-9.04-6.18-15.74-8.96-.59-.24-1.41-.53-2.36-.78.09-.44.23-.85.3-1.26.22-1.4-.54-3.46-2.24-3.83-1.88-.41-3.24,1.11-3.68,2.79-2.88,10.96-.65,26.14.41,31.96-13.59,8.12-20.28,16.6-20.57,16.97-.71.92-1.06,2.03-.58,3.09.48,1.06,1.52,1.72,2.6,1.85.08,0,4.84.34,11.53.63-1.86,1.68-3.97,3.82-6.06,6.41-3.49,4.34-6.42,9.02-8.85,13.81-3.05,6.02-5.25,12.22-6.08,18.63-.25,1.92.66,3.67,2.5,3.86,2.39.25,3.28-1.51,3.71-2.94,1.68-5.58,3.01-10.98,5.76-16.42,2.22-4.39,4.93-8.65,8.08-12.66,4.47-5.7,8.55-9.31,9.85-10.4,1.64.04,3.31.07,4.99.09l8.63,29c.35,1.18,1.36,2.4,2.58,2.54,1.65.19,2.93-1.34,3.17-1.74,1.96-3.14,3.48-6.79,5.19-10.96,2.27-5.57,4.83-11.83,8.67-17.17l2.96-.25c1.31.45,3.12.26,4.4.08,1.36-.2,2.71-.36,4.22-.17,1.21.16,2.48-.02,3.71-.18.29-.04.59-.08.88-.11,4.17.31,7.63-.39,9.7-.81.21-.04.41-.09.59-.12,4.53-.66,5.61-2.03,5.81-3.06.33-1,.13-2.11-.54-2.94-7.34-9.09-18.81-15.97-23.98-18.79l9.74-23.41c.49-1.13-.06-2.36-.8-3.07Zm-15.85,26.67c-.61,1.61-.12,3.13,1.51,4.06.13.07,11.55,5.67,20.26,13.92l-24.53,2.04c-.83.09-1.82.66-2.22,1.21-4.69,6.33-7.74,13.4-10.32,19.72-.47,1.15-.93,2.28-1.39,3.37l-7.02-23.84c-.39-1.33-1.01-2.16-2.4-2.16-7.61-.03-15.76-.4-20.96-.64.21-.2.43-.4.65-.6,3.13-2.87,8.37-7.14,15.54-11.2,1.19-.68,1.55-1.4,1.44-2.73,0-.05-1-5.75-1.66-12.23-.49-4.88-.62-9.3-.39-13.1.05.02.09.04.14.06,7.87,3.27,16.71,9.89,16.8,9.95,1.04.6,1.51.64,2.55.29l20.54-7.89-8.54,19.77Z"></path><path class="cls-4" d="m66.21,218.67c2.33.23,3.41-1.69,3.87-3,1.62-4.56,3.28-9.05,6.02-13.93,2.55-4.53,5.57-8.27,7.81-10.71,1.35-1.47,1.4-3.37.26-4.51-1.07-1.08-2.79-1.02-4.3.2-6.67,5.35-13.81,17.69-16.4,28.22-.32,1.31.64,3.53,2.73,3.73Z"></path><path class="cls-4" d="m80.28,231.37c-.77-.46-1.7-.57-2.59-.51-.86.06-1.71.28-2.49.63-.49.22-.49.36-.59.89-.07.39-.13.79-.15,1.19-.12,1.96.42,3.67,1.71,4.51,1.63,1.07,3.5.73,4.48-.77.44-.68.57-1.76.78-2.98.15-1.07.03-2.02-.77-2.7-.11-.1-.24-.19-.39-.28Z"></path><path class="cls-4" d="m92.76,222.69c-.6.52-1,1.22-1.33,1.94-.44.97-.77,1.93-1.11,2.93-.68,2.02-1.17,4.1-1.48,6.18-.37,2.11,1.29,4.02,3.44,3.96,2.04-.04,2.24-2.28,2.51-3.93.41-2.44,1-4.85,1.78-7.19.3-.89.63-1.87.55-2.83-.1-1.24-.56-1.38-1.63-1.67-.95-.26-1.96-.06-2.73.62Z"></path><path class="cls-4" d="m99.24,206.06c-.52.06-.89.36-1.17.78-.14.21-.23.44-.36.65-.15.23-.36.36-.53.57-.19.23-.34.49-.5.74-.5.84-.97,1.72-1.33,2.63-.61,1.47-1.81,4.15-1.32,6.02.62,2.4,3.55,2.49,4.41.26.34-.88.68-1.76,1.01-2.64.25-.65.5-1.3.85-1.9.56-.95,1.37-1.74,1.95-2.68.44-.72.78-1.63.64-2.48-.18-1.1-1.01-1.27-1.95-1.63-.54-.21-1.11-.38-1.68-.31Z"></path><path class="cls-4" d="m107.19,191.98c-1.14.56-2,1.62-2.78,2.6-1.38,1.66-2.6,3.45-3.65,5.32-1.63,2.88,1.07,5.1,3.91,4.33.32-.09.63-.21.88-.42.58-.48.7-1.28,1.12-1.88,1.78-2.48,2.61-5.46,3.48-8.34.54-1.79-1.72-2.21-2.96-1.61Z"></path><path class="cls-3" d="m548.89,440.5c26.24,30.07,27.1,94.65,24.66,146.32-3.1,65.43,25.93,160.17,18.44,198.28"></path><path class="cls-1" d="m556.76,413.38c32.32,24.9,57,48.06,52.26,146.83-1.93,40.16,16.29,51.97,17.74,110.85,2.2,89.74-6.65,89.74,12.8,99.75"></path><path class="cls-3" d="m100.26,754.13c2.72,2.16,44.61-7.07,44.14-157.34-.65-207.72,114.35-208.65,114.35-208.65"></path><path class="cls-1" d="m186.4,754.25c1.54.98-1.93-39.92,13.38-176.36,12.63-112.56,70.94-137.39,70.94-137.39"></path><path class="cls-2" d="m765.99,650.75c-95.44-19.32-122.34-97.01-109.61-178.56,8.74-55.96,55.83-88.76.42-196.63-55.41-107.87-9.9-132.52,9.26-121.65,21.34,12.11,24.64,40.19-1.76,62.64-.12.1-65.29,41.31-94.86-33.95-5.53-14.08-7.61-29.26-6.64-44.36,1.99-30.89-2.54-98.53-76.12-120.09"></path></svg> 