<?xml version="1.0" encoding="UTF-8"?> <svg xmlns="http://www.w3.org/2000/svg" id="icons" viewBox="0 0 800 800"><defs><style>.cls-1{fill:#65d7e7;}.cls-2{fill:#e94f43;}.cls-3{fill:#e7bb86;}.cls-4{fill:#e09585;}</style></defs><path class="cls-4" d="m693.65,486.38c-.06,0-.12,0-.18,0-20.41-.12-28.52-19.95-29.95-30.42-.22-1.64.92-3.15,2.57-3.38,1.64-.23,3.15.92,3.38,2.56h0c.14,1.03,3.75,25.12,24.04,25.24.05,0,.1,0,.14,0,4.96,0,9-1.51,12.01-4.5,6.42-6.37,6.53-17.45,6.53-17.56,0-1.65,1.35-2.99,3-2.99h0c1.65,0,3,1.34,3,3,0,.55-.08,13.64-8.28,21.79-4.18,4.16-9.65,6.27-16.26,6.27Z"></path><path class="cls-4" d="m697.24,454.46c-1.66,0-3-1.34-3-3v-12.06c0-1.66,1.34-3,3-3s3,1.34,3,3v12.06c0,1.66-1.34,3-3,3Z"></path><path class="cls-4" d="m684.44,453.53c-1.66,0-3-1.34-3-3v-14.66c0-1.66,1.34-3,3-3s3,1.34,3,3v14.66c0,1.66-1.34,3-3,3Z"></path><path class="cls-3" d="m649.99,488.84c.18.13.34.28.5.44,3.85,3.88.76,11.85-10.33,26.65-7.19,9.59-15.24,18.53-15.32,18.62-1.02,1.13-2.78,1.22-3.9.2-1.13-1.02-1.22-2.77-.2-3.9.07-.08,7.4-8.23,14.23-17.22,10.61-13.97,11.6-18.8,11.59-20.13-4.19,1.15-16.44,14.7-23.16,22.14-12.13,13.41-16.22,17.93-19.73,15.27-3.38-2.56-1.02-7.67,10.58-28.43,3.44-6.15,8.21-14.7,10.3-19.55-5.26,3.33-15.05,11.27-21.44,16.45-16.16,13.1-18.96,15.01-21.41,14.55-1.01-.19-1.86-.86-2.28-1.8-1.08-2.43.33-5.36,10.76-22.43,3.4-5.56,8.03-13.12,10.54-18.04-3.91,2.98-9.53,7.91-13.71,11.57-15.39,13.48-19.31,16.48-22.45,14.95-.83-.4-1.44-1.12-1.72-2.02-.8-2.58,1.2-6.28,7.11-16.59,5-8.73,15.4-26.9,12.48-30.94-.89-1.24-.61-2.96.63-3.86,1.24-.89,2.96-.61,3.86.63,4.63,6.43-2.44,19.93-12.17,36.92-1.45,2.52-3.07,5.36-4.34,7.75,3.81-2.96,9.04-7.54,12.97-10.99,14.38-12.6,18.72-15.94,21.8-15.46,1,.16,1.86.73,2.37,1.58,1.8,2.99-.91,8.21-12.64,27.39-2.31,3.78-5.09,8.33-7.18,11.99,3.52-2.68,7.98-6.3,11.91-9.49,18.5-15,24.83-19.6,28.36-19.19.96.11,1.8.58,2.36,1.31,2.27,2.95-.27,8.27-11.28,27.97-2.84,5.09-6.6,11.82-8.98,16.71,2.77-2.83,6.2-6.62,9.21-9.96,13.05-14.43,22.03-23.9,27.66-24.03,1.15-.03,2.19.3,3.04.94Zm-3.49,4.24h0s0,0,0,0Z"></path><path class="cls-3" d="m656.49,528.48c1.18.48,2.56.15,3.27-.86.82-1.17.46-2.79-.81-3.63-2.96-1.96-72.77-47.99-106.71-54.05-1.5-.27-2.88.66-3.09,2.07-.21,1.41.84,2.78,2.34,3.04,32.75,5.84,103.77,52.68,104.48,53.16.17.11.34.2.51.27Z"></path><path class="cls-2" d="m238.23,578c-.67-.17-1.17-.42-1.66-.75-1.93-1.32-3.32-2.28-5.01-38.88-.8-17.34-1.24-34.65-1.25-34.82-.05-1.79,1.59-3.16,3.65-3.07,2.07.1,3.77,1.62,3.82,3.41.71,28.08,2.2,59.51,3.7,67.76,4.19-.4,13.39-2.05,21.03-3.43,21.85-3.93,37.79-6.6,43.99-5.06,2.02.5,3.31,2.3,2.89,4.02-.43,1.72-2.41,2.71-4.43,2.21-4.87-1.21-26.26,2.64-40.41,5.19-18.18,3.27-23.63,4.1-26.34,3.43Zm1.36-6.28h0Z"></path><path class="cls-2" d="m225.79,598.47c-1-.25-1.92-.8-2.57-1.86-.71-1.15-.9-2.52-1.79-13.32-.48-5.81-1.27-15.41-1.94-17.54-.84-1.28-.66-2.88.55-3.87,1.44-1.18,3.81-1.05,5.28.3,1.62,1.48,2.11,3.46,3.57,21.13.22,2.69.48,5.77.71,8.03,1.79-.6,4-1.4,5.7-2.03,8.59-3.15,11.56-4.1,14.02-3.34,1.99.61,3.14,2.47,2.58,4.16-.49,1.47-2.13,2.32-3.87,2.1-1.56.22-6.44,2.01-9.4,3.09-2.64.97-5.14,1.88-7.16,2.5-1.36.42-3.69,1.13-5.67.64Zm-5.7-32.01s0,0,0,0c0,0,0,0,0,0Zm0,0h0Z"></path><path class="cls-2" d="m262.52,592.52c-.14-.04-.28-.08-.41-.12-1.95-.71-2.99-2.61-2.32-4.26.59-1.46,2.33-2.22,4.08-1.89,1.61-.08,6.46-1.46,8.04-2.26.61-.8,1.67-1.32,2.9-1.31,2.05,0,3.84,1.47,3.99,3.26.11,1.32-.59,2.44-2.06,3.32-1.75,1.05-10.32,4.22-14.21,3.26Zm8.82-6.62s0,0,0,0c0,0,0,0,0,0Zm0,0s0,0,0,0c0,0,0,0,0,0Z"></path><path class="cls-1" d="m116.91,475.59c.54-2.41.06-5.12-1.73-7.47.58-.21,1.14-.46,1.67-.76,2.48-1.38,4.23-3.64,4.81-6.21.9-3.99-1.01-8.81-7.04-11.43-2.06-.81-9.65-3.09-12.87-3.46-.43-.76-1.11-1.22-1.98-1.73-1.99-1.17-3.1-3.59-3.52-5.73-.57-2.92-.46-6.67.27-9.56,1.61-6.32,2.27-12.14,1.98-17.28-.28-4.83-1.43-8.99-3.34-12.05-1.87-2.99-4.39-4.9-7.3-5.51-2.7-.57-5.42.17-7.65,2.07-1.75,1.5-3.11,3.65-3.81,6.07-.65,2.25-1.2,4.57-1.73,6.81-1.47,6.24-3,12.69-6.95,18.31-3.6,5.12-8.92,7.61-14.55,10.24-5.22,2.44-10.62,4.96-14.74,9.71-4.65,5.37-7,12.72-6.54,22.45.08,1.82,1.24,3.23,2.85,3.69.38.11.78.16,1.19.15,2.18-.06,3.79-1.88,3.84-4.04.17-7.79,1.27-13.22,4.62-17.08,3.02-3.48,7.44-5.55,12.12-7.73,6.03-2.81,12.86-6,17.66-12.85,2.18-3.1,3.93-6.6,5.34-10.68,1.21-3.5,2.03-6.98,2.83-10.35.53-2.25,1.03-4.37,1.63-6.43.43-1.5,1.01-2.54,1.75-2.63.95-.11,2.05.87,2.75,1.98,1.53,2.45,2.02,5.89,2.16,8.34.25,4.34-.34,9.35-1.75,14.89-1.03,4.05-1.17,8.91-.37,13.01.42,2.16,1.1,4.09,2,5.75-.98.25-1.74.58-2.36.91-2.76,1.46-3.72,3.73-4.2,5.31-.68,2.21-.38,4.42.86,6.41.37.59.82,1.16,1.35,1.71-1.17.26-2.05.63-2.75,1-2.76,1.46-3.72,3.73-4.2,5.31-.68,2.21-.38,4.43.86,6.41.39.63.87,1.23,1.45,1.81-1.16.2-2.16.52-3.04.99-2.74,1.45-3.48,3.86-3.8,4.89-.68,2.23-.38,4.49.86,6.54-4.42.47-6.13,3.19-6.76,4.81-.67,1.74-.52,4.45.35,6.45-6.52-.41-13.36-2.44-18.1-5.04-6.28-3.44-9.19-8.96-10.16-15.11-.36-2.26-2.15-3.75-4.31-3.53-2.17.22-3.69,2.03-3.53,4.31.63,8.83,5.87,15.95,14.45,20.64,2.65,1.45,5.6,2.64,8.76,3.54,5.1,1.46,10.76,2.2,16.58,2.11.59,0,1.15-.15,1.65-.39,2.66,1.95,5.99,3.56,9.64,4.61.41.12.82.23,1.23.33,5.36,1.32,9.67,1.02,12.8-.9,2.02-1.24,3.47-3.17,3.96-5.29h0c.32-1.36.36-3.36-.97-5.57,2.19-.03,4.22-.55,5.98-1.52,2.48-1.38,4.23-3.64,4.81-6.21.57-2.55,0-5.43-2.05-7.86.79-.24,1.54-.56,2.24-.95,2.48-1.38,4.23-3.64,4.81-6.21Zm-12.71,1.28s-.1-.02-.19-.03c-14.53-2.24-19.58-5.48-18.77-8.29.75-2.63,3.51-2.42,6.83-2.16,3.19.25,13.62,2.96,13.64,2.96,3.46.99,5.5,2.7,5.05,4.85-.48,2.31-3.78,3.14-6.56,2.66Zm4.9-22.38c.24.08,6.95,2.31,6.41,5.29-.43,2.38-3.78,3.14-6.56,2.66-.04,0-.1-.02-.19-.03-9.45-1.54-19.86-4.5-18.69-8.59,1.11-3.88,9.23-2.55,19.03.67Zm-14.27,49.34c-.92.57-3.19,1.34-7.99.15-5.38-1.33-10.39-4.41-11.91-7.33-.58-1.11-.43-1.79-.27-2.2.11-.28.29-.76,1.84-.85,1.45-.09,3.45.24,5.98.96.62.18,1.27.38,1.95.6,1.38.46,4.89,1.7,7.8,3.45,2.81,1.69,3.91,3.16,3.74,3.87-.03.13-.23.8-1.12,1.35Zm4.36-11.94s-4.99-.65-9.53-2.2c-4.97-1.69-9.95-3.65-9.04-6.83.54-1.87,2.58-2.38,5.98-1.95,3.09.39,14.07,3.46,14.09,3.47,3.46.99,5.48,2.93,5.05,4.85-.53,2.36-3.78,3.14-6.56,2.66Z"></path><path class="cls-1" d="m106.19,405.34c.11.94-.01,2.3.04,3.24.07,1.36.4,2.01.3,3.33-.09,1.28-.44,3.67-.71,4.96-.31,1.4.58,3.4,2.02,3.49.68.05,2.29-.11,3-2.11,1.82-5.17,1.36-4.98,1.68-7.35.19-1.48.77-3.41.79-4.9.03-2.43-.17-4.85-.56-7.22-.34-2.41-2.81-3.92-5.12-3.1-2.11.72-2.62,2.29-2.2,4.63.29,1.63.56,3.33.76,5.03Z"></path><path class="cls-2" d="m619.07,94.34c.49.31.84.64,1.15,1.02,1.24,1.51,2.14,2.6-4.42,29.7-3.11,12.84-6.49,25.56-6.52,25.69-.35,1.31-1.94,1.85-3.56,1.2-1.62-.65-2.64-2.25-2.29-3.56,5.49-20.63,11.09-43.92,11.68-50.34-3.41-.9-11.05-2.29-17.4-3.45-18.15-3.31-31.36-5.87-35.94-8.74-1.49-.93-2.13-2.61-1.42-3.74s2.49-1.29,3.98-.36c3.6,2.26,21.37,5.49,33.13,7.64,15.11,2.75,19.6,3.69,21.6,4.95Zm-2.43,4.18h0Z"></path><path class="cls-2" d="m633.33,82.96c.74.46,1.34,1.13,1.64,2.08.32,1.04.17,2.09-1.46,10.19-.87,4.36-2.32,11.57-2.24,13.31.39,1.17-.1,2.28-1.27,2.66-1.4.45-3.25-.31-4.12-1.71-.97-1.54-.92-3.12,1.73-16.38.4-2.02.87-4.33,1.17-6.04-1.55-.07-3.47-.11-4.95-.13-7.48-.14-10.05-.28-11.83-1.53-1.44-1.01-1.96-2.69-1.15-3.75.71-.93,2.19-1.09,3.52-.43,1.29.28,5.53.36,8.11.41,2.3.04,4.48.08,6.21.2,1.16.08,3.16.22,4.63,1.14Zm-2.39,24.9s0,0,0,0c0,0,0,0,0,0Zm0,0h0Z"></path><path class="cls-2" d="m602.95,76.91c.11.07.21.13.3.21,1.39,1.07,1.81,2.75.92,3.75-.78.89-2.32.96-3.64.22-1.29-.39-5.43-.77-6.86-.63-.66.41-1.6.49-2.58.13-1.62-.59-2.73-2.15-2.46-3.5.2-.99.99-1.61,2.35-1.83,1.61-.27,9.08-.16,11.96,1.64Zm-8.41,2.32s0,0,0,0c0,0,0,0,0,0Zm0,0s0,0,0,0c0,0,0,0,0,0Z"></path></svg> 