<?xml version="1.0" encoding="UTF-8"?> <svg xmlns="http://www.w3.org/2000/svg" id="icons" viewBox="0 0 800 800"><defs><style>.cls-1{fill:#65d7e7;}.cls-2{fill:#e94f43;}.cls-3{fill:#6e16e7;}</style></defs><path class="cls-2" d="m566.86,182.07c-.45,0-.91-.08-1.35-.25-1.56-.6-2.52-2.12-2.37-3.79,1.12-12.78,1.41-20.45,1.22-23.05-1.83-.72-6.23-1.78-8.75-2.4-6.46-1.57-7.71-1.9-8.62-3.27l-.81-1.22.45-1.47c.5-1.52.87-2.63,23.67-10.92l5.48-19.36c.46-1.63,1.9-2.77,3.59-2.86,1.69-.08,3.24.91,3.86,2.48l7.65,19.3,22.71,3.07c1.62.29,2.81,1.58,2.97,3.22.16,1.63-.76,3.14-2.29,3.74l-15.63,6.22,5.53,17.62c.5,1.58-.13,3.29-1.53,4.18-1.35.85-3.09.73-4.3-.29l-14.43-11.27-14.08,18.81c-.73.97-1.83,1.5-2.97,1.5Zm-9.12-35.15c7.95,1.94,10.49,2.78,11.68,4.36.73.98,1.62,2.17.35,19.37l11.09-14.82c.55-.72,1.36-1.17,2.24-1.25.82-.07,1.63.18,2.26.69l10.83,8.46-4.07-12.98c-.48-1.56.33-3.24,1.84-3.83l9.72-3.87-15.48-2.1-1.59-.31-.66-1.54-6.05-15.26-4.22,14.9c-.27.97-1,1.76-1.94,2.1-5.56,2.01-11.6,4.29-16,6.07Zm38.45,5.57l-.04.02s.03-.01.04-.02Zm15.88-12.78s-.01,0-.02,0h.02Z"></path><path class="cls-1" d="m531.2,139.95c-.26,0-.53-.05-.78-.15-.91-.35-1.46-1.23-1.38-2.2.65-7.43.82-11.88.71-13.39-1.06-.42-3.62-1.04-5.08-1.39-3.75-.91-4.48-1.11-5.01-1.9l-.47-.71.26-.85c.29-.88.5-1.53,13.75-6.34l3.18-11.25c.27-.94,1.11-1.61,2.09-1.66.98-.05,1.88.53,2.24,1.44l4.44,11.21,13.19,1.78c.94.17,1.63.92,1.73,1.87.09.95-.44,1.82-1.33,2.17l-9.08,3.62,3.21,10.24c.29.92-.08,1.91-.89,2.43-.78.5-1.8.42-2.5-.17l-8.38-6.55-8.18,10.93c-.42.56-1.06.87-1.73.87Zm-5.3-20.42c4.62,1.13,6.1,1.62,6.78,2.53.43.57.94,1.26.2,11.26l6.44-8.61c.32-.42.79-.68,1.3-.73.47-.04.95.1,1.31.4l6.3,4.92-2.37-7.54c-.28-.91.19-1.88,1.07-2.22l5.65-2.25-8.99-1.22-.92-.18-.38-.89-3.51-8.87-2.45,8.66c-.16.57-.58,1.02-1.13,1.22-3.23,1.17-6.74,2.5-9.3,3.53Zm22.34,3.24h-.02s.02,0,.02,0Zm9.23-7.42s0,0-.01,0h.01Z"></path><path class="cls-3" d="m302.41,254.3c-1.45,0-2.72-1.05-2.96-2.52-.26-1.64.85-3.18,2.48-3.44,15.01-2.42,26.22-8.75,30-16.92,2.43-5.26,2.83-10.02,1.21-14.15-2.73-6.93-10.17-10.05-10.25-10.08-1.53-.63-2.27-2.38-1.64-3.91.63-1.53,2.38-2.27,3.91-1.64.4.17,9.9,4.15,13.56,13.44,2.25,5.71,1.79,12.06-1.34,18.86-4.61,9.99-17.5,17.59-34.49,20.33-.16.03-.32.04-.48.04Z"></path><path class="cls-3" d="m310.39,265.61c-1.17,0-2.29-.69-2.77-1.84-.64-1.53.08-3.29,1.61-3.93l9.53-3.99c1.53-.64,3.29.08,3.93,1.61.64,1.53-.08,3.29-1.61,3.93l-9.53,3.99c-.38.16-.77.23-1.16.23Z"></path><path class="cls-3" d="m330.01,257.62c-.92,0-1.82-.42-2.41-1.21-.99-1.33-.71-3.21.62-4.2l8.98-6.65c1.33-.99,3.21-.71,4.2.62.99,1.33.71,3.21-.62,4.2l-8.98,6.65c-.54.4-1.16.59-1.78.59Z"></path><path class="cls-3" d="m347.02,240.91c-.26,0-.52-.03-.78-.1-1.6-.43-2.55-2.07-2.12-3.67l2.26-8.48c.43-1.6,2.07-2.55,3.67-2.12,1.6.43,2.55,2.07,2.12,3.67l-2.26,8.48c-.36,1.34-1.57,2.23-2.9,2.23Z"></path><path class="cls-3" d="m347.02,217.39c-1.09,0-2.13-.59-2.67-1.62l-3.09-5.96c-.76-1.47-.19-3.28,1.28-4.04,1.47-.76,3.28-.19,4.04,1.28l3.09,5.96c.76,1.47.19,3.28-1.28,4.04-.44.23-.91.34-1.38.34Z"></path><path class="cls-1" d="m706.7,750.85c-.95,0-1.91-.3-2.71-.93-22.72-17.63-40.04-67.08-40.76-69.18-.8-2.31.42-4.84,2.74-5.64,2.31-.8,4.83.42,5.64,2.74.17.49,17.18,49.06,37.82,65.08,1.93,1.5,2.28,4.28.78,6.22-.87,1.13-2.18,1.71-3.5,1.71Z"></path><path class="cls-1" d="m706.7,742.45c-.95,0-1.91-.3-2.71-.93-22.72-17.63-40.04-67.08-40.76-69.18-.8-2.31.42-4.84,2.74-5.64,2.31-.8,4.83.42,5.64,2.74.17.49,17.18,49.06,37.82,65.08,1.93,1.5,2.28,4.28.78,6.22-.87,1.13-2.18,1.71-3.5,1.71Z"></path><path class="cls-1" d="m654.79,714.55c-1.67,0-3.28-.95-4.03-2.57-1.03-2.22-.06-4.85,2.17-5.88.5-.23,49.72-23.16,62.41-45.86,1.2-2.14,3.9-2.9,6.03-1.7,2.14,1.2,2.9,3.89,1.7,6.03-14.1,25.2-64.3,48.59-66.43,49.57-.6.28-1.23.41-1.85.41Z"></path><path class="cls-1" d="m650.39,716.97c-1.59,0-3.13-.86-3.93-2.37-1.14-2.17-.3-4.84,1.86-5.98.46-.24,45.94-24.32,58.7-47.12,1.2-2.14,3.9-2.9,6.03-1.7,2.14,1.2,2.9,3.9,1.7,6.03-14.04,25.1-60.35,49.61-62.31,50.64-.66.34-1.36.51-2.06.51Z"></path><path class="cls-1" d="m731.59,742.45c-.95,0-1.91-.3-2.71-.93-22.7-17.62-43.43-75.18-44.31-77.62-.82-2.3.38-4.84,2.68-5.66,2.3-.83,4.84.38,5.66,2.68.2.57,20.73,57.56,41.39,73.6,1.93,1.5,2.28,4.28.78,6.22-.87,1.13-2.18,1.71-3.5,1.71Z"></path><path class="cls-1" d="m656.47,750.85c-1.6,0-3.15-.87-3.94-2.39-1.13-2.17-.28-4.85,1.9-5.97,8.82-4.57,26.83-19.81,41.78-33.11.05-1.53.96-2.55,2.14-3.87,1.21-1.36,1.35-1.49,1.66-1.73l1.36-1.14,28.18-28.02c1.73-1.73,4.54-1.72,6.27.02,1.73,1.74,1.72,4.54-.02,6.27l-5.44,5.41,1.25,1.23-2.16,3.09c-.25.35-.47.61-1.85,1.98-.42.42-.85.85-1.31,1.23l.03.03c-2.04,1.93-50.19,47.35-67.8,56.47-.65.34-1.35.5-2.03.5Z"></path><path class="cls-2" d="m134.32,723.22c-3.95,1.76-7.84,1.07-10.02.01-1.74-.84-2.46-2.94-1.62-4.68.84-1.72,2.9-2.45,4.63-1.64.79.35,4.82,1.72,8.24-4.26,1.25-2.18,1.73-5.82,2.24-9.68.97-7.3,2.17-16.38,10.05-20.25,2.95-1.45,9.09-4.47,14.81-.24,1.55,1.15,1.88,3.34.73,4.9-1.15,1.55-3.34,1.88-4.9.73-1.69-1.25-3.68-1.01-7.56.89-4.52,2.22-5.33,8.37-6.2,14.88-.6,4.56-1.17,8.86-3.11,12.24-2.16,3.77-4.75,5.94-7.31,7.08Z"></path><path class="cls-2" d="m177.42,704.77c-.25.11-.5.21-.76.31-3.8,1.36-6.68.44-8.42-.57-.31-.18-.61-.38-.9-.59-.46.77-1.02,1.54-1.71,2.3-7.38,8.13-16.95,6.88-20.98,5.07-1.76-.79-2.55-2.86-1.76-4.62.79-1.76,2.84-2.55,4.6-1.78.35.15,7.23,2.94,12.96-3.38,1.66-1.83,1.91-3.72,1.55-5.63-.35-.99-.62-1.94-.82-2.77-.05-.14-.11-.28-.16-.42-.14-.37-.27-.7-.36-.98l-.68-2.02,1.49-1.61c.94-.98,2.35-1.34,3.67-.94,1.31.4,2.28,1.48,2.53,2.82.07.36.14.73.23,1.1.28.78.61,1.75.85,2.86.76,2.06,1.8,3.83,3.01,4.53.48.27,1.2.53,2.56.04,3.22-1.15,4.34-7.23,5.44-13.11,1.18-6.29,2.39-12.8,6.6-16.41,3.79-3.25,9.61-7.06,16.32-2.67,1.62,1.06,2.07,3.23,1.01,4.85-1.06,1.62-3.23,2.07-4.84,1.01-1.38-.9-3.09-2.02-7.93,2.13-2.34,2-3.32,7.28-4.27,12.38-1.34,7.18-2.86,15.28-9.2,18.11Z"></path><path class="cls-2" d="m203.5,692.51c-10.28,4.58-19.82-3.36-20.25-3.72-1.47-1.25-1.65-3.46-.4-4.93,1.25-1.47,3.45-1.65,4.92-.41h0c.3.25,7.44,6.09,14.09,2.04,5.85-3.55,1.04-11.77.83-12.12l-2.46-4.13,4.69-1.07c2.7-.62,3.93,1.74,4.46,2.75.79,1.53,3.21,6.17,5.92,6.87.56.15,1.47.22,2.96-.75,4.84-3.19,5.61-10.54,6.22-16.45.37-3.56.66-6.38,1.79-8.42,2.02-3.7,6.58-6.91,11.33-8,3.61-.83,6.94-.33,9.37,1.41,1.57,1.12,1.94,3.31.82,4.88-1.12,1.57-3.31,1.94-4.88.82-.77-.55-2.14-.66-3.75-.29-2.78.64-5.69,2.59-6.76,4.54-.44.81-.73,3.57-.96,5.79-.73,6.99-1.73,16.56-9.34,21.57-3.51,2.31-6.6,2.19-8.56,1.68-.77-.2-1.5-.49-2.19-.84-.71,2.92-2.45,5.69-5.86,7.75-.67.4-1.33.75-1.99,1.05Z"></path><path class="cls-2" d="m244.31,676.18c-2.19.97-4.43,1.34-6.71,1.1-6.92-.73-11.13-6.82-11.59-7.51-1.07-1.61-.63-3.78.99-4.85,1.61-1.07,3.77-.63,4.84.97.77,1.13,3.43,4.12,6.53,4.43,2.1.21,4.34-.83,6.66-3.1,1.3-1.27,2.05-2.91,2.41-4.7-1.44-3.44-2.42-7.81-3.35-12.37l-.25-1.24c-.4-1.92.66-3.85,2.47-4.56,1.83-.72,3.9-.03,4.92,1.65,2,3.3,3.9,9.46,3.4,15.47.29.52.58.88.86,1.1.11-.06.27-.16.48-.34,2.54-2.08,3.84-7.4,5.1-12.55,0,0,0-.02,0-.03-.4-1.26-.06-2.65.9-3.58,2.3-8.62,6.19-18.13,18.32-16.37,7.77,1.13,11.32,5.28,12.93,8.56,2.35,4.79,1.83,10.39.11,13.44-1.7,3.02-8.25,7.52-15.63,7.77-3.14.11-7.19-.52-11.06-3.38-1.29,4.61-3,8.9-6.25,11.56-2.92,2.39-5.49,2.2-7.13,1.61-.28-.1-.55-.22-.81-.35-.67,1.18-1.5,2.3-2.53,3.3-1.82,1.78-3.69,3.1-5.61,3.96Zm24.3-27.79c2.35,2.75,5.21,4.13,8.52,4.11,5.12-.03,9.49-3.27,10.12-4.24.55-.97,1.06-4.12-.31-6.9-1.26-2.57-3.84-4.16-7.66-4.71-6.19-.9-8.33,2.87-10.68,11.74Zm-17.92-.89v.02s0-.01,0-.02Z"></path><path class="cls-2" d="m310.84,645.12c-2.47,1.1-5.11,1.56-7.95,1.9l-1.13.14c-8.11,1.05-18.73-11.03-20.78-13.46-1.24-1.48-1.05-3.68.42-4.93,1.48-1.24,3.68-1.06,4.93.42,5.87,6.96,12.25,11.33,14.53,11.03.4-.05.79-.1,1.19-.15,5.81-.7,10-1.21,14.15-13.62.61-1.83,2.6-2.82,4.43-2.21,1.83.61,2.82,2.6,2.21,4.43-3.36,10.04-7.36,14.37-12,16.44Z"></path><path class="cls-1" d="m709.91,457.84l-.37.17-18.44,7.3c-1.81.72-3.86-.17-4.57-1.98-.72-1.81.17-3.85,1.98-4.57l13.7-5.42-4.98-2.26c-21.04-11.05-33.86-27.57-36.12-46.1-7.8-3.58-15.75-10.26-22.47-22.1-22.8-40.16,3.45-72.27,3.72-72.59,1.25-1.49,3.47-1.69,4.96-.44,1.49,1.25,1.69,3.47.44,4.96h0c-.96,1.16-23.33,28.78-3,64.59,4.52,7.97,9.88,13.81,16.02,17.49.64-14.57,8.07-27.8,18.26-32.35,6.66-2.97,13.53-1.9,19.35,3,6.99,5.89,9.41,14.08,6.63,22.48-3.35,10.1-13.48,17.9-24.1,18.53-3.71.22-7.88.02-12.25-.99,3.1,14.8,14.24,28.02,31.73,37.23l9.2,4.17c1.73.78,2.84,2.45,2.91,4.35.06,1.9-.94,3.64-2.61,4.53Zm-42.1-57.8c3.97,1.25,8.2,1.74,12.7,1.47,7.73-.46,15.39-6.36,17.83-13.72,1.07-3.24,1.92-9.49-4.48-14.87-3.75-3.16-7.77-3.82-11.94-1.96-8.82,3.93-13.77,16.39-14.1,26.67-.03.81-.03,1.61,0,2.41Z"></path><path class="cls-1" d="m706.28,467.42c-4.61,2.48-11.09,5.32-20.17,8.54-1.83.65-3.85-.31-4.5-2.14-.65-1.83.31-3.85,2.14-4.5,12.32-4.38,24.2-10.23,26.35-12.92-1.16-3.24-6.03-15.78-9.13-23.66-.71-1.81.18-3.85,1.99-4.56,1.81-.71,3.86.18,4.57,1.99,1.49,3.8,8.94,22.84,9.55,24.91.48,1.61,1.66,5.64-10.82,12.34Z"></path><path class="cls-2" d="m279.26,389.37c-.05-.33-.04-.67.04-1.01.33-1.47,1.79-2.39,3.26-2.06,2.31.52,5.71.91,9.24,1.17-3.31-1.02-5.44-1.69-6.47-2.15-1.27-.56-2-1.92-1.8-3.29.06-.41.2-.79.41-1.13-3.16-.95-5.06-2.06-5.93-3.52-.68-1.15-.66-2.51.07-3.55,1.5-2.15,4.51-2.49,20.83.31-6.6-2.35-8.89-3.78-8.91-6.31,0-1,.44-1.93,1.23-2.56,1.78-1.42,4.92-1.19,14.02.87-3.67-1.82-4.36-2.54-4.78-3.53-.42-1.01-.24-2.14.46-2.96,1.26-1.46,2.03-2.35,29.22,4.58,1.46.37,2.34,1.86,1.97,3.32-.37,1.46-1.86,2.34-3.32,1.97-2.16-.55-4.38-1.1-6.56-1.63,4.77,2.18,5.16,2.65,5.39,4.09.15.99-.2,1.99-.94,2.67-1.37,1.26-3.24,1.26-9.89-.21,6.43,2.39,8.7,4.05,8.11,6.87-.59,2.83-3.38,2.38-6.9,1.8-.26-.04-.53-.09-.81-.14l-.32,1.07c-.76,2.35-3.16,2.24-6.78,2.08-1.58-.07-3.48-.2-5.53-.35,3.44,1.19,6.31,2.3,5.57,5.11-.66,2.56-3.19,2.74-12.85,2.37-2.46-.1-10.9-.5-15.92-1.63-1.13-.25-1.93-1.17-2.1-2.25Zm3.34-14.93h0Z"></path><path class="cls-2" d="m508.45,390.19c-.18.33-.43.63-.73.88-1.31,1.09-3.26.9-4.35-.41-1.71-2.06-4.49-4.76-7.46-7.43,2.26,3.2,3.7,5.28,4.3,6.39.74,1.38.47,3.1-.67,4.19-.34.32-.73.57-1.15.73,2.17,3.04,3.11,5.35,2.87,7.25-.18,1.5-1.15,2.7-2.52,3.13-2.83.89-5.76-.88-18.43-14.68,4.28,6.66,5.34,9.52,3.61,11.81-.68.9-1.73,1.43-2.87,1.44-2.57.04-5.22-2.33-11.94-10.47,2.03,4.17,2.15,5.29,1.84,6.46-.32,1.19-1.26,2.08-2.46,2.33-2.14.44-3.44.7-22.98-24.3-1.05-1.34-.81-3.28.53-4.33,1.34-1.05,3.28-.81,4.33.53,1.55,1.98,3.16,4.01,4.75,6-2.76-5.25-2.79-5.94-1.99-7.39.55-.99,1.56-1.65,2.69-1.74,2.09-.18,3.77,1.11,8.71,7.03-4.11-6.59-4.99-9.64-2.51-11.75,2.49-2.12,4.67.21,7.42,3.16.2.22.42.45.63.68l1.02-.74c2.31-1.58,4.38.17,7.51,2.83,1.36,1.16,2.97,2.58,4.71,4.14-2.26-3.44-4.06-6.42-1.46-8.43,2.36-1.83,4.75-.25,13.13,6.76,2.14,1.79,9.41,7.98,13.12,12.46.83,1.01.92,2.39.32,3.47Zm-13.31,11.05h0Z"></path></svg> 