<?xml version="1.0" encoding="UTF-8"?> <svg xmlns="http://www.w3.org/2000/svg" id="icons" viewBox="0 0 800 800"><defs><style>.cls-1{fill:none;stroke:#6e16e7;stroke-linecap:round;stroke-miterlimit:10;stroke-width:6px;}.cls-2{fill:#e94f43;}.cls-3{fill:#6e16e7;}</style></defs><path class="cls-2" d="m142.88,399.69c3.61-2,7.8-2.84,11.55.43,1.95,1.7,5.19,5.78,4.95,10.26-.12,2.19-1.16,5.31-5.46,7.69-7.91,4.39-6.93,6.15-4.79,10.02.4.73.89,1.14,1.58,1.35,2.14.65,5.38-.9,6.5-1.59.9-.72,5.25-3.94,9.8-2.86,1.64.39,3.97,1.53,5.75,4.72,4.2,7.57,1.06,12.39-1.18,13.87l-.3.2-.34.09c-.32.08-7.88,2.16-7.22,8.95.06.6.89,3.1,2.88,4.27,1.84,1.08,4.28.79,7.31-.94,4.98-2.81,12.27-3.52,16.59,3.73,1.61,2.69,2.08,5.47,1.4,8.25-1.65,6.77-9.85,10.97-10.2,11.15-1.12.56-2.53.04-3.15-1.17-.62-1.21-.22-2.66.9-3.21,1.89-.97,6.99-4.31,7.95-8.27.36-1.47.1-2.91-.79-4.4-3.07-5.15-8.23-2.99-10.28-1.79-5.51,3.15-9.47,2.19-11.78.83-3.58-2.1-5.23-6.2-5.44-8.29-.8-8.29,5.94-12.48,9.99-13.69.68-.63,2.26-2.75-.31-7.37-.92-1.66-1.86-2.06-2.49-2.21-2.29-.55-5.23,1.34-6.17,2.11l-.21.15c-.56.36-5.64,3.48-10.18,2.11-1.93-.58-3.51-1.89-4.56-3.8-4.12-7.43-2.52-11.6,6.37-16.53,2.06-1.14,3.14-2.48,3.22-3.99.13-2.37-2.06-5.08-3.14-6.03-3.88-3.39-10.78,3.45-13.04,5.69-.89.89-2.36.79-3.28-.21-.91-1-.93-2.53-.03-3.42,1.56-1.55,4.36-4.31,7.62-6.12Z"></path><path class="cls-2" d="m167.92,449.43c1.25-.69,2.83-.18,3.75,1.21.75,1.14.52,2.63-.52,3.33-.78.52-1.78.46-2.56-.08-.59-.19-1.12-.61-1.46-1.21-.66-1.19-.31-2.65.79-3.25Zm2.39,4.31h0s0,0,0,0Z"></path><path class="cls-2" d="m153.03,421.75c1.03-.57,2.41-.17,3.12.89.75,1.13.53,2.63-.51,3.34-.67.46-1.53.48-2.26.11-.46-.22-.87-.59-1.14-1.09-.66-1.19-.31-2.65.79-3.25Z"></path><path class="cls-2" d="m218.05,364.38c3.86-1.48,8.13-1.72,11.38,2.05,1.69,1.96,4.33,6.45,3.46,10.85-.43,2.16-1.9,5.09-6.48,6.85-8.45,3.23-7.73,5.12-6.15,9.25.3.78.72,1.26,1.37,1.56,2.02.94,5.45-.14,6.66-.66.99-.59,5.75-3.16,10.1-1.46,1.57.62,3.72,2.07,5.03,5.48,3.09,8.09-.69,12.41-3.12,13.57l-.32.15-.35.04c-.32.04-8.11,1.03-8.41,7.85-.03.6.45,3.19,2.25,4.63,1.67,1.33,4.12,1.38,7.37.09,5.32-2.08,12.64-1.77,15.9,6.03,1.21,2.89,1.29,5.7.23,8.36-2.58,6.47-11.29,9.48-11.66,9.6-1.19.4-2.51-.32-2.95-1.6-.44-1.29.16-2.67,1.34-3.06,2.01-.69,7.53-3.29,9.03-7.07.56-1.41.5-2.87-.17-4.46-2.32-5.53-7.73-4.11-9.93-3.22-5.9,2.35-9.68.84-11.79-.83-3.25-2.58-4.31-6.88-4.22-8.97.37-8.32,7.64-11.53,11.81-12.15.76-.53,2.62-2.4.73-7.34-.68-1.78-1.56-2.3-2.16-2.54-2.19-.87-5.37.59-6.41,1.22l-.23.12c-.61.28-6.07,2.65-10.38.66-1.83-.84-3.21-2.37-3.98-4.4-3.04-7.94-.86-11.84,8.62-15.47,2.2-.84,3.46-2.02,3.75-3.5.46-2.32-1.33-5.32-2.27-6.41-3.36-3.9-11.15,1.9-13.71,3.8-1.01.75-2.45.46-3.21-.66-.76-1.12-.56-2.63.45-3.39,1.76-1.31,4.92-3.66,8.41-4.99Z"></path><path class="cls-2" d="m235.87,417.13c1.34-.51,2.83.22,3.54,1.73.58,1.23.14,2.67-.98,3.23-.85.41-1.83.21-2.52-.44-.56-.27-1.03-.76-1.28-1.41-.49-1.27.07-2.66,1.24-3.11Zm1.76,4.6h0s0,0,0,0Z"></path><path class="cls-2" d="m225.01,387.64c1.1-.42,2.41.17,2.96,1.32.59,1.23.15,2.67-.97,3.23-.73.36-1.59.26-2.25-.2-.43-.28-.78-.71-.98-1.24-.49-1.27.07-2.66,1.24-3.11Z"></path><path class="cls-2" d="m177.78,280.9c3.87-1.45,8.14-1.65,11.36,2.14,1.68,1.98,4.27,6.49,3.37,10.88-.44,2.15-1.94,5.08-6.54,6.8-8.48,3.16-7.77,5.06-6.22,9.2.29.78.71,1.26,1.36,1.57,2.02.96,5.45-.09,6.66-.6,1-.58,5.77-3.12,10.11-1.37,1.57.63,3.7,2.1,4.98,5.53,3.03,8.11-.79,12.41-3.23,13.54l-.32.15-.35.04c-.32.04-8.12.96-8.47,7.78-.03.6.42,3.2,2.21,4.65,1.66,1.34,4.11,1.41,7.36.15,5.34-2.04,12.65-1.67,15.85,6.15,1.19,2.9,1.24,5.71.16,8.36-2.64,6.45-11.37,9.39-11.74,9.51-1.19.39-2.51-.34-2.94-1.63-.43-1.29.18-2.67,1.37-3.04,2.01-.67,7.56-3.23,9.09-6.99.57-1.4.53-2.86-.13-4.47-2.27-5.55-7.69-4.17-9.9-3.3-5.92,2.3-9.69.76-11.78-.92-3.23-2.61-4.26-6.91-4.15-9.01.43-8.32,7.73-11.46,11.91-12.05.77-.52,2.64-2.38.79-7.34-.67-1.78-1.54-2.31-2.14-2.55-2.18-.88-5.37.54-6.42,1.17l-.23.12c-.61.27-6.09,2.6-10.38.58-1.82-.86-3.19-2.39-3.95-4.43-2.97-7.96-.77-11.85,8.75-15.4,2.2-.82,3.48-1.99,3.78-3.47.48-2.32-1.29-5.33-2.21-6.42-3.33-3.92-11.17,1.81-13.74,3.69-1.02.74-2.45.44-3.21-.69-.75-1.12-.54-2.64.47-3.38,1.78-1.3,4.95-3.62,8.45-4.93Z"></path><path class="cls-2" d="m195.16,333.8c1.34-.5,2.82.24,3.53,1.76.57,1.23.12,2.67-1.01,3.22-.85.4-1.83.19-2.52-.46-.56-.27-1.02-.77-1.27-1.42-.48-1.27.09-2.66,1.26-3.1Zm1.72,4.62h0s0,0,0,0Z"></path><path class="cls-2" d="m184.54,304.22c1.1-.41,2.41.19,2.95,1.35.58,1.23.13,2.67-.99,3.22-.73.36-1.59.25-2.25-.22-.42-.29-.77-.71-.97-1.25-.48-1.27.09-2.66,1.26-3.1Z"></path><path class="cls-2" d="m143.13,196.18c3.87-1.45,8.14-1.65,11.36,2.14,1.68,1.98,4.27,6.49,3.37,10.88-.44,2.15-1.94,5.08-6.54,6.8-8.48,3.16-7.77,5.06-6.22,9.2.29.78.71,1.26,1.36,1.57,2.02.96,5.45-.09,6.66-.6,1-.58,5.77-3.12,10.11-1.37,1.57.63,3.7,2.1,4.98,5.53,3.03,8.11-.79,12.41-3.23,13.54l-.32.15-.35.04c-.32.04-8.12.96-8.47,7.78-.03.6.42,3.2,2.21,4.65,1.66,1.34,4.11,1.41,7.36.15,5.34-2.04,12.65-1.67,15.85,6.15,1.19,2.9,1.24,5.71.16,8.36-2.64,6.45-11.37,9.39-11.74,9.51-1.19.39-2.51-.34-2.94-1.63-.43-1.29.18-2.67,1.37-3.04,2.01-.67,7.56-3.23,9.09-6.99.57-1.4.53-2.86-.13-4.47-2.27-5.55-7.69-4.17-9.9-3.3-5.92,2.3-9.69.76-11.78-.92-3.23-2.61-4.26-6.91-4.15-9.01.43-8.32,7.73-11.46,11.91-12.05.77-.52,2.64-2.38.79-7.34-.67-1.78-1.54-2.31-2.14-2.55-2.18-.88-5.37.54-6.42,1.17l-.23.12c-.61.27-6.09,2.6-10.38.58-1.82-.86-3.19-2.39-3.95-4.43-2.97-7.96-.77-11.85,8.75-15.4,2.2-.82,3.48-1.99,3.78-3.47.48-2.32-1.29-5.33-2.21-6.42-3.33-3.92-11.17,1.81-13.74,3.69-1.02.74-2.45.44-3.21-.69-.75-1.12-.54-2.64.47-3.38,1.78-1.3,4.95-3.62,8.45-4.93Z"></path><path class="cls-2" d="m160.52,249.08c1.34-.5,2.82.24,3.53,1.76.57,1.23.12,2.67-1.01,3.22-.85.4-1.83.19-2.52-.46-.56-.27-1.02-.77-1.27-1.42-.48-1.27.09-2.66,1.26-3.1Zm1.72,4.62h0s0,0,0,0Z"></path><path class="cls-2" d="m149.9,219.51c1.1-.41,2.41.19,2.95,1.35.58,1.23.13,2.67-.99,3.22-.73.36-1.59.25-2.25-.22-.42-.29-.77-.71-.97-1.25-.48-1.27.09-2.66,1.26-3.1Z"></path><path class="cls-2" d="m107.63,112.52c3.87-1.45,8.14-1.65,11.36,2.14,1.68,1.98,4.27,6.49,3.37,10.88-.44,2.15-1.94,5.08-6.54,6.8-8.48,3.16-7.77,5.06-6.22,9.2.29.78.71,1.26,1.36,1.57,2.02.96,5.45-.09,6.66-.6,1-.58,5.77-3.12,10.11-1.37,1.57.63,3.7,2.1,4.98,5.53,3.03,8.11-.79,12.41-3.23,13.54l-.32.15-.35.04c-.32.04-8.12.96-8.47,7.78-.03.6.42,3.2,2.21,4.65,1.66,1.34,4.11,1.41,7.36.15,5.34-2.04,12.65-1.67,15.85,6.15,1.19,2.9,1.24,5.71.16,8.36-2.64,6.45-11.37,9.39-11.74,9.51-1.19.39-2.51-.34-2.94-1.63-.43-1.29.18-2.67,1.37-3.04,2.01-.67,7.56-3.23,9.09-6.99.57-1.4.53-2.86-.13-4.47-2.27-5.55-7.69-4.17-9.9-3.3-5.92,2.3-9.69.76-11.78-.92-3.23-2.61-4.26-6.91-4.15-9.01.43-8.32,7.73-11.46,11.91-12.05.77-.52,2.64-2.38.79-7.34-.67-1.78-1.54-2.31-2.14-2.55-2.18-.88-5.37.54-6.42,1.17l-.23.12c-.61.27-6.09,2.6-10.38.58-1.82-.86-3.19-2.39-3.95-4.43-2.97-7.96-.77-11.85,8.75-15.4,2.2-.82,3.48-1.99,3.78-3.47.48-2.32-1.29-5.33-2.21-6.42-3.33-3.92-11.17,1.81-13.74,3.69-1.02.74-2.45.44-3.21-.69-.75-1.12-.54-2.64.47-3.38,1.78-1.3,4.95-3.62,8.45-4.93Z"></path><path class="cls-2" d="m125.02,165.42c1.34-.5,2.82.24,3.53,1.76.57,1.23.12,2.67-1.01,3.22-.85.4-1.83.19-2.52-.46-.56-.27-1.02-.77-1.27-1.42-.48-1.27.09-2.66,1.26-3.1Zm1.72,4.62h0s0,0,0,0Z"></path><path class="cls-2" d="m114.4,135.84c1.1-.41,2.41.19,2.95,1.35.58,1.23.13,2.67-.99,3.22-.73.36-1.59.25-2.25-.22-.42-.29-.77-.71-.97-1.25-.48-1.27.09-2.66,1.26-3.1Z"></path><path class="cls-2" d="m67.62,30.26c3.87-1.45,8.14-1.65,11.36,2.14,1.68,1.98,4.27,6.49,3.37,10.88-.44,2.15-1.94,5.08-6.54,6.8-8.48,3.16-7.77,5.06-6.22,9.2.29.78.71,1.26,1.36,1.57,2.02.96,5.45-.09,6.66-.6,1-.58,5.77-3.12,10.11-1.37,1.57.63,3.7,2.1,4.98,5.53,3.03,8.11-.79,12.41-3.23,13.54l-.32.15-.35.04c-.32.04-8.12.96-8.47,7.78-.03.6.42,3.2,2.21,4.65,1.66,1.34,4.11,1.41,7.36.15,5.34-2.04,12.65-1.67,15.85,6.15,1.19,2.9,1.24,5.71.16,8.36-2.64,6.45-11.37,9.39-11.74,9.51-1.19.39-2.51-.34-2.94-1.63-.43-1.29.18-2.67,1.37-3.04,2.01-.67,7.56-3.23,9.09-6.99.57-1.4.53-2.86-.13-4.47-2.27-5.55-7.69-4.17-9.9-3.3-5.92,2.3-9.69.76-11.78-.92-3.23-2.61-4.26-6.91-4.15-9.01.43-8.32,7.73-11.46,11.91-12.05.77-.52,2.64-2.38.79-7.34-.67-1.78-1.54-2.31-2.14-2.55-2.18-.88-5.37.54-6.42,1.17l-.23.12c-.61.27-6.09,2.6-10.38.58-1.82-.86-3.19-2.39-3.95-4.43-2.97-7.96-.77-11.85,8.75-15.4,2.2-.82,3.48-1.99,3.78-3.47.48-2.32-1.29-5.33-2.21-6.42-3.33-3.92-11.17,1.81-13.74,3.69-1.02.74-2.45.44-3.21-.69-.75-1.12-.54-2.64.47-3.38,1.78-1.3,4.95-3.62,8.45-4.93Z"></path><path class="cls-2" d="m85,83.16c1.34-.5,2.82.24,3.53,1.76.57,1.23.12,2.67-1.01,3.22-.85.4-1.83.19-2.52-.46-.56-.27-1.02-.77-1.27-1.42-.48-1.27.09-2.66,1.26-3.1Zm1.72,4.62h0s0,0,0,0Z"></path><path class="cls-2" d="m74.38,53.58c1.1-.41,2.41.19,2.95,1.35.58,1.23.13,2.67-.99,3.22-.73.36-1.59.25-2.25-.22-.42-.29-.77-.71-.97-1.25-.48-1.27.09-2.66,1.26-3.1Z"></path><path class="cls-2" d="m295.95,310.66c4.1-.53,8.3.24,10.58,4.66,1.19,2.3,2.69,7.29.82,11.36-.92,2-3.04,4.51-7.91,5.14-8.97,1.16-8.71,3.16-8.15,7.55.11.82.4,1.39.97,1.84,1.75,1.39,5.33,1.14,6.63.92,1.1-.34,6.33-1.73,10.16.95,1.38.97,3.13,2.88,3.6,6.51,1.11,8.59-3.58,11.91-6.21,12.46l-.35.07-.35-.05c-.32-.04-8.12-.9-10.02,5.66-.17.58-.31,3.21,1.1,5.03,1.31,1.68,3.68,2.31,7.14,1.82,5.66-.78,12.7,1.25,14.05,9.59.5,3.09-.09,5.85-1.74,8.18-4.03,5.68-13.2,6.57-13.59,6.6-1.25.11-2.36-.9-2.49-2.25-.13-1.35.78-2.56,2.02-2.65,2.11-.2,8.09-1.43,10.44-4.75.87-1.23,1.16-2.67.89-4.38-.95-5.92-6.55-5.81-8.89-5.45-6.28.9-9.61-1.45-11.26-3.57-2.55-3.27-2.58-7.7-2-9.71,2.31-8,10.13-9.41,14.33-9.04.87-.33,3.11-1.72,2.43-6.97-.24-1.89-.97-2.6-1.5-2.97-1.92-1.36-5.36-.69-6.51-.31l-.25.06c-.66.13-6.52,1.15-10.24-1.79-1.58-1.25-2.56-3.05-2.84-5.21-1.09-8.43,1.94-11.71,12.01-13.02,2.33-.3,3.84-1.15,4.47-2.52.99-2.15-.04-5.48-.7-6.76-2.35-4.58-11.29-.77-14.22.48-1.16.49-2.49-.13-2.97-1.4-.48-1.27.07-2.69,1.23-3.19,2.02-.86,5.64-2.4,9.34-2.88Z"></path><path class="cls-2" d="m300.89,366.12c1.42-.18,2.7.87,3.04,2.51.28,1.33-.49,2.63-1.71,2.91-.92.2-1.83-.23-2.35-1.02-.48-.39-.82-.98-.91-1.67-.17-1.35.69-2.57,1.93-2.73Zm.63,4.89h0s0,0,0,0Z"></path><path class="cls-2" d="m297.25,334.9c1.17-.15,2.3.73,2.57,1.98.28,1.33-.48,2.63-1.7,2.91-.79.18-1.6-.12-2.14-.73-.35-.37-.59-.87-.66-1.43-.17-1.35.69-2.57,1.93-2.73Z"></path><path class="cls-2" d="m276.38,220.06c4.1-.5,8.3.31,10.54,4.75,1.17,2.31,2.63,7.31.72,11.37-.94,1.99-3.08,4.48-7.95,5.07-8.98,1.09-8.74,3.09-8.21,7.48.1.82.39,1.39.95,1.85,1.74,1.4,5.32,1.19,6.62.98,1.1-.33,6.34-1.67,10.15,1.04,1.38.98,3.11,2.91,3.55,6.54,1.04,8.59-3.67,11.88-6.31,12.41l-.35.07-.35-.05c-.32-.04-8.12-.97-10.06,5.58-.17.58-.34,3.21,1.06,5.04,1.3,1.7,3.67,2.34,7.12,1.87,5.67-.73,12.69,1.35,13.97,9.7.47,3.1-.13,5.85-1.81,8.17-4.07,5.65-13.25,6.46-13.64,6.49-1.25.1-2.36-.92-2.48-2.27-.12-1.35.8-2.55,2.05-2.64,2.11-.18,8.1-1.36,10.48-4.67.88-1.23,1.18-2.66.92-4.37-.91-5.92-6.5-5.86-8.85-5.53-6.29.84-9.6-1.53-11.23-3.66-2.52-3.3-2.52-7.72-1.92-9.73,2.37-7.98,10.21-9.33,14.41-8.92.87-.33,3.13-1.69,2.49-6.95-.23-1.89-.95-2.61-1.48-2.98-1.91-1.37-5.35-.73-6.51-.37l-.25.06c-.66.12-6.53,1.1-10.23-1.88-1.57-1.26-2.54-3.07-2.8-5.23-1.02-8.44,2.04-11.7,12.12-12.92,2.33-.28,3.85-1.12,4.49-2.49,1.01-2.14,0-5.48-.65-6.77-2.32-4.6-11.28-.86-14.23.36-1.16.48-2.49-.15-2.96-1.42-.47-1.27.09-2.69,1.25-3.18,2.03-.85,5.66-2.36,9.37-2.81Z"></path><path class="cls-2" d="m280.87,275.56c1.42-.17,2.69.89,3.02,2.54.27,1.33-.51,2.63-1.74,2.89-.92.19-1.83-.24-2.34-1.03-.48-.39-.81-.98-.9-1.67-.16-1.35.71-2.57,1.96-2.72Zm.59,4.89h0s0,0,0,0Z"></path><path class="cls-2" d="m277.49,244.32c1.17-.14,2.29.75,2.55,2,.27,1.33-.5,2.63-1.72,2.9-.79.18-1.6-.13-2.13-.74-.34-.38-.58-.87-.65-1.44-.16-1.35.71-2.57,1.96-2.72Z"></path><path class="cls-2" d="m262.58,129.58c4.1-.5,8.3.31,10.54,4.75,1.17,2.31,2.63,7.31.72,11.37-.94,1.99-3.08,4.48-7.95,5.07-8.98,1.09-8.74,3.09-8.21,7.48.1.82.39,1.39.95,1.85,1.74,1.4,5.32,1.19,6.62.98,1.1-.33,6.34-1.67,10.15,1.04,1.38.98,3.11,2.91,3.55,6.54,1.04,8.59-3.67,11.88-6.31,12.41l-.35.07-.35-.05c-.32-.04-8.12-.97-10.06,5.58-.17.58-.34,3.21,1.06,5.04,1.3,1.7,3.67,2.34,7.12,1.87,5.67-.73,12.69,1.35,13.97,9.7.47,3.1-.13,5.85-1.81,8.17-4.07,5.65-13.25,6.46-13.64,6.49-1.25.1-2.36-.92-2.48-2.27-.12-1.35.8-2.55,2.05-2.64,2.11-.18,8.1-1.36,10.48-4.67.88-1.23,1.18-2.66.92-4.37-.91-5.92-6.5-5.86-8.85-5.53-6.29.84-9.6-1.53-11.23-3.66-2.52-3.3-2.52-7.72-1.92-9.73,2.37-7.98,10.21-9.33,14.41-8.92.87-.33,3.13-1.69,2.49-6.95-.23-1.89-.95-2.61-1.48-2.98-1.91-1.37-5.35-.73-6.51-.37l-.25.06c-.66.12-6.53,1.1-10.23-1.88-1.57-1.26-2.54-3.07-2.8-5.23-1.02-8.44,2.04-11.7,12.12-12.92,2.33-.28,3.85-1.12,4.49-2.49,1.01-2.14,0-5.48-.65-6.77-2.32-4.6-11.28-.86-14.23.36-1.16.48-2.49-.15-2.96-1.42-.47-1.27.09-2.69,1.25-3.18,2.03-.85,5.66-2.36,9.37-2.81Z"></path><path class="cls-2" d="m267.07,185.08c1.42-.17,2.69.89,3.02,2.54.27,1.33-.51,2.63-1.74,2.89-.92.19-1.83-.24-2.34-1.03-.48-.39-.81-.98-.9-1.67-.16-1.35.71-2.57,1.96-2.72Zm.59,4.89h0s0,0,0,0Z"></path><path class="cls-2" d="m263.68,153.84c1.17-.14,2.29.75,2.55,2,.27,1.33-.5,2.63-1.72,2.9-.79.18-1.6-.13-2.13-.74-.34-.38-.58-.87-.65-1.44-.16-1.35.71-2.57,1.96-2.72Z"></path><path class="cls-2" d="m247.69,39.92c4.1-.5,8.3.31,10.54,4.75,1.17,2.31,2.63,7.31.72,11.37-.94,1.99-3.08,4.48-7.95,5.07-8.98,1.09-8.74,3.09-8.21,7.48.1.82.39,1.39.95,1.85,1.74,1.4,5.32,1.19,6.62.98,1.1-.33,6.34-1.67,10.15,1.04,1.38.98,3.11,2.91,3.55,6.54,1.04,8.59-3.67,11.88-6.31,12.41l-.35.07-.35-.05c-.32-.04-8.12-.97-10.06,5.58-.17.58-.34,3.21,1.06,5.04,1.3,1.7,3.67,2.34,7.12,1.87,5.67-.73,12.69,1.35,13.97,9.7.47,3.1-.13,5.85-1.81,8.17-4.07,5.65-13.25,6.46-13.64,6.49-1.25.1-2.36-.92-2.48-2.27-.12-1.35.8-2.55,2.05-2.64,2.11-.18,8.1-1.36,10.48-4.67.88-1.23,1.18-2.66.92-4.37-.91-5.92-6.5-5.86-8.85-5.53-6.29.84-9.6-1.53-11.23-3.66-2.52-3.3-2.52-7.72-1.92-9.73,2.37-7.98,10.21-9.33,14.41-8.92.87-.33,3.13-1.69,2.49-6.95-.23-1.89-.95-2.61-1.48-2.98-1.91-1.37-5.35-.73-6.51-.37l-.25.06c-.66.12-6.53,1.1-10.23-1.88-1.57-1.26-2.54-3.07-2.8-5.23-1.02-8.44,2.04-11.7,12.12-12.92,2.33-.28,3.85-1.12,4.49-2.49,1.01-2.14,0-5.48-.65-6.77-2.32-4.6-11.28-.86-14.23.36-1.16.48-2.49-.15-2.96-1.42-.47-1.27.09-2.69,1.25-3.18,2.03-.85,5.66-2.36,9.37-2.81Z"></path><path class="cls-2" d="m252.19,95.43c1.42-.17,2.69.89,3.02,2.54.27,1.33-.51,2.63-1.74,2.89-.92.19-1.83-.24-2.34-1.03-.48-.39-.81-.98-.9-1.67-.16-1.35.71-2.57,1.96-2.72Zm.59,4.89h0s0,0,0,0Z"></path><path class="cls-2" d="m248.8,64.18c1.17-.14,2.29.75,2.55,2,.27,1.33-.5,2.63-1.72,2.9-.79.18-1.6-.13-2.13-.74-.34-.38-.58-.87-.65-1.44-.16-1.35.71-2.57,1.96-2.72Z"></path><path class="cls-2" d="m600.37,317.18c4.03.92,7.71,3.1,8.31,8.04.31,2.57,0,7.77-3.17,10.94-1.55,1.55-4.41,3.18-9.2,2.08-8.82-2.02-9.27-.05-10.26,4.26-.19.81-.1,1.45.27,2.06,1.16,1.91,4.61,2.92,5.9,3.16,1.15.06,6.54.57,9.2,4.42.96,1.39,1.94,3.79,1.12,7.35-1.93,8.44-7.48,9.93-10.14,9.54l-.35-.05-.31-.16c-.29-.15-7.31-3.66-11.36,1.84-.36.49-1.41,2.9-.71,5.1.65,2.04,2.66,3.44,6.07,4.18,5.58,1.23,11.48,5.57,9.86,13.86-.6,3.08-2.11,5.46-4.47,7.07-5.75,3.94-14.66,1.59-15.03,1.49-1.21-.33-1.91-1.66-1.56-2.98.35-1.31,1.61-2.13,2.82-1.79,2.05.54,8.08,1.46,11.44-.84,1.25-.86,2.01-2.1,2.35-3.8,1.15-5.88-4.13-7.72-6.45-8.2-6.21-1.34-8.51-4.69-9.33-7.25-1.26-3.96.25-8.11,1.49-9.8,4.94-6.71,12.76-5.32,16.58-3.51.93-.01,3.52-.53,4.7-5.69.42-1.85-.01-2.78-.38-3.31-1.34-1.94-4.79-2.5-6-2.55l-.26-.03c-.66-.11-6.52-1.18-8.99-5.23-1.05-1.72-1.35-3.75-.86-5.87,1.9-8.28,5.88-10.32,15.78-8.05,2.29.52,4,.25,5.07-.82,1.68-1.68,1.86-5.16,1.68-6.58-.62-5.11-10.32-4.63-13.51-4.48-1.26.06-2.29-.99-2.3-2.34-.01-1.35,1-2.5,2.26-2.56,2.2-.11,6.12-.3,9.76.53Z"></path><path class="cls-2" d="m585.79,370.93c1.39.32,2.23,1.75,1.98,3.41-.2,1.35-1.37,2.3-2.61,2.13-.93-.13-1.64-.85-1.85-1.77-.31-.53-.43-1.2-.28-1.88.3-1.33,1.54-2.18,2.76-1.9Zm-1.1,4.8h0s0,0,0,0Z"></path><path class="cls-2" d="m593.19,340.38c1.15.26,1.91,1.48,1.72,2.75-.19,1.35-1.36,2.31-2.6,2.14-.81-.1-1.46-.67-1.75-1.42-.2-.47-.25-1.02-.12-1.57.3-1.33,1.54-2.18,2.76-1.9Z"></path><path class="cls-2" d="m613.4,225.42c4.02.95,7.68,3.16,8.24,8.1.29,2.57-.06,7.77-3.26,10.91-1.57,1.54-4.44,3.14-9.22,2.01-8.8-2.09-9.27-.13-10.29,4.17-.19.81-.11,1.44.25,2.06,1.14,1.92,4.58,2.96,5.87,3.21,1.15.07,6.53.63,9.16,4.49.95,1.4,1.91,3.81,1.06,7.36-2,8.42-7.56,9.87-10.22,9.45l-.35-.05-.31-.17c-.29-.15-7.28-3.72-11.37,1.75-.36.48-1.43,2.89-.75,5.09.63,2.04,2.63,3.46,6.03,4.23,5.57,1.28,11.44,5.66,9.74,13.94-.63,3.07-2.15,5.44-4.53,7.03-5.78,3.89-14.67,1.47-15.05,1.36-1.21-.34-1.89-1.68-1.54-2.99.36-1.31,1.63-2.11,2.83-1.77,2.05.56,8.07,1.53,11.44-.75,1.25-.85,2.03-2.08,2.38-3.78,1.2-5.87-4.07-7.75-6.39-8.25-6.19-1.39-8.48-4.76-9.27-7.33-1.23-3.97.31-8.11,1.57-9.79,4.99-6.67,12.81-5.22,16.61-3.38.93,0,3.52-.51,4.74-5.66.44-1.85,0-2.78-.35-3.31-1.32-1.95-4.77-2.54-5.98-2.6l-.26-.03c-.66-.11-6.51-1.23-8.95-5.3-1.03-1.73-1.31-3.76-.81-5.88,1.96-8.27,5.96-10.27,15.84-7.92,2.29.54,3.99.28,5.07-.78,1.69-1.66,1.9-5.14,1.74-6.57-.58-5.11-10.28-4.72-13.47-4.59-1.26.05-2.28-1.01-2.28-2.36,0-1.35,1.02-2.49,2.28-2.55,2.2-.09,6.12-.25,9.76.61Z"></path><path class="cls-2" d="m598.39,279.04c1.39.33,2.21,1.77,1.95,3.42-.21,1.34-1.39,2.29-2.63,2.11-.93-.14-1.63-.86-1.84-1.78-.31-.53-.42-1.21-.26-1.88.31-1.32,1.56-2.16,2.78-1.87Zm-1.14,4.79h0s0,0,0,0Z"></path><path class="cls-2" d="m606.03,248.56c1.14.27,1.89,1.5,1.7,2.76-.21,1.34-1.38,2.3-2.62,2.12-.81-.11-1.46-.68-1.74-1.44-.19-.47-.24-1.02-.11-1.57.31-1.32,1.56-2.16,2.78-1.87Z"></path><path class="cls-2" d="m631.79,135.76c4.02.95,7.68,3.16,8.24,8.1.29,2.57-.06,7.77-3.26,10.91-1.57,1.54-4.44,3.14-9.22,2.01-8.8-2.09-9.27-.13-10.29,4.17-.19.81-.11,1.44.25,2.06,1.14,1.92,4.58,2.96,5.87,3.21,1.15.07,6.53.63,9.16,4.49.95,1.4,1.91,3.81,1.06,7.36-2,8.42-7.56,9.87-10.22,9.45l-.35-.05-.31-.17c-.29-.15-7.28-3.72-11.37,1.75-.36.48-1.43,2.89-.75,5.09.63,2.04,2.63,3.46,6.03,4.23,5.57,1.28,11.44,5.66,9.74,13.94-.63,3.07-2.15,5.44-4.53,7.03-5.78,3.89-14.67,1.47-15.05,1.36-1.21-.34-1.89-1.68-1.54-2.99.36-1.31,1.63-2.11,2.83-1.77,2.05.56,8.07,1.53,11.44-.75,1.25-.85,2.03-2.08,2.38-3.78,1.2-5.87-4.07-7.75-6.39-8.25-6.19-1.39-8.48-4.76-9.27-7.33-1.23-3.97.31-8.11,1.57-9.79,4.99-6.67,12.81-5.22,16.61-3.38.93,0,3.52-.51,4.74-5.66.44-1.85,0-2.78-.35-3.31-1.32-1.95-4.77-2.54-5.98-2.6l-.26-.03c-.66-.11-6.51-1.23-8.95-5.3-1.03-1.73-1.31-3.76-.81-5.88,1.96-8.27,5.96-10.27,15.84-7.92,2.29.54,3.99.28,5.07-.78,1.69-1.66,1.9-5.14,1.74-6.57-.58-5.11-10.28-4.72-13.47-4.59-1.26.05-2.28-1.01-2.28-2.36,0-1.35,1.02-2.49,2.28-2.55,2.2-.09,6.12-.25,9.76.61Z"></path><path class="cls-2" d="m616.78,189.38c1.39.33,2.21,1.77,1.95,3.42-.21,1.34-1.39,2.29-2.63,2.11-.93-.14-1.63-.86-1.84-1.78-.31-.53-.42-1.21-.26-1.88.31-1.32,1.56-2.16,2.78-1.87Zm-1.14,4.79h0s0,0,0,0Z"></path><path class="cls-2" d="m624.43,158.9c1.14.27,1.89,1.5,1.7,2.76-.21,1.34-1.38,2.3-2.62,2.12-.81-.11-1.46-.68-1.74-1.44-.19-.47-.24-1.02-.11-1.57.31-1.32,1.56-2.16,2.78-1.87Z"></path><path class="cls-2" d="m648.89,46.5c4.02.95,7.68,3.16,8.24,8.1.29,2.57-.06,7.77-3.26,10.91-1.57,1.54-4.44,3.14-9.22,2.01-8.8-2.09-9.27-.13-10.29,4.17-.19.81-.11,1.44.25,2.06,1.14,1.92,4.58,2.96,5.87,3.21,1.15.07,6.53.63,9.16,4.49.95,1.4,1.91,3.81,1.06,7.36-2,8.42-7.56,9.87-10.22,9.45l-.35-.05-.31-.17c-.29-.15-7.28-3.72-11.37,1.75-.36.48-1.43,2.89-.75,5.09.63,2.04,2.63,3.46,6.03,4.23,5.57,1.28,11.44,5.66,9.74,13.94-.63,3.07-2.15,5.44-4.53,7.03-5.78,3.89-14.67,1.47-15.05,1.36-1.21-.34-1.89-1.68-1.54-2.99.36-1.31,1.63-2.11,2.83-1.77,2.05.56,8.07,1.53,11.44-.75,1.25-.85,2.03-2.08,2.38-3.78,1.2-5.87-4.07-7.75-6.39-8.25-6.19-1.39-8.48-4.76-9.27-7.33-1.23-3.97.31-8.11,1.57-9.79,4.99-6.67,12.81-5.22,16.61-3.38.93,0,3.52-.51,4.74-5.66.44-1.85,0-2.78-.35-3.31-1.32-1.95-4.77-2.54-5.98-2.6l-.26-.03c-.66-.11-6.51-1.23-8.95-5.3-1.03-1.73-1.31-3.76-.81-5.88,1.96-8.27,5.96-10.27,15.84-7.92,2.29.54,3.99.28,5.07-.78,1.69-1.66,1.9-5.14,1.74-6.57-.58-5.11-10.28-4.72-13.47-4.59-1.26.05-2.28-1.01-2.28-2.36,0-1.35,1.02-2.49,2.28-2.55,2.2-.09,6.12-.25,9.76.61Z"></path><path class="cls-2" d="m633.88,100.12c1.39.33,2.21,1.77,1.95,3.42-.21,1.34-1.39,2.29-2.63,2.11-.93-.14-1.63-.86-1.84-1.78-.31-.53-.42-1.21-.26-1.88.31-1.32,1.56-2.16,2.78-1.87Zm-1.14,4.79h0s0,0,0,0Z"></path><path class="cls-2" d="m641.52,69.64c1.14.27,1.89,1.5,1.7,2.76-.21,1.34-1.38,2.3-2.62,2.12-.81-.11-1.46-.68-1.74-1.44-.19-.47-.24-1.02-.11-1.57.31-1.32,1.56-2.16,2.78-1.87Z"></path><path class="cls-2" d="m90.75,320.99c3.61-2,7.8-2.84,11.55.43,1.95,1.7,5.19,5.78,4.95,10.26-.12,2.19-1.16,5.31-5.46,7.69-7.91,4.39-6.93,6.15-4.79,10.02.4.73.89,1.14,1.58,1.35,2.14.65,5.38-.9,6.5-1.59.9-.72,5.25-3.94,9.8-2.86,1.64.39,3.97,1.53,5.75,4.72,4.2,7.57,1.06,12.39-1.18,13.87l-.3.2-.34.09c-.32.08-7.88,2.16-7.22,8.95.06.6.89,3.1,2.88,4.27,1.84,1.08,4.28.79,7.31-.94,4.98-2.81,12.27-3.52,16.59,3.73,1.61,2.69,2.08,5.47,1.4,8.25-1.65,6.77-9.85,10.97-10.2,11.15-1.12.56-2.53.04-3.15-1.17-.62-1.21-.22-2.66.9-3.21,1.89-.97,6.99-4.31,7.95-8.27.36-1.47.1-2.91-.79-4.4-3.07-5.15-8.23-2.99-10.28-1.79-5.51,3.15-9.47,2.19-11.78.83-3.58-2.1-5.23-6.2-5.44-8.29-.8-8.29,5.94-12.48,9.99-13.69.68-.63,2.26-2.75-.31-7.37-.92-1.66-1.86-2.06-2.49-2.21-2.29-.55-5.23,1.34-6.17,2.11l-.21.15c-.56.36-5.64,3.48-10.18,2.11-1.93-.58-3.51-1.89-4.56-3.8-4.12-7.43-2.52-11.6,6.37-16.53,2.06-1.14,3.14-2.48,3.22-3.99.13-2.37-2.06-5.08-3.14-6.03-3.88-3.39-10.78,3.45-13.04,5.69-.89.89-2.36.79-3.28-.21-.91-1-.93-2.53-.03-3.42,1.56-1.55,4.36-4.31,7.62-6.12Z"></path><path class="cls-2" d="m115.8,370.73c1.25-.69,2.83-.18,3.75,1.21.75,1.14.52,2.63-.52,3.33-.78.52-1.78.46-2.56-.08-.59-.19-1.12-.61-1.46-1.21-.66-1.19-.31-2.65.79-3.25Zm2.39,4.31h0s0,0,0,0Z"></path><path class="cls-2" d="m100.9,343.05c1.03-.57,2.41-.17,3.12.89.75,1.13.53,2.63-.51,3.34-.67.46-1.53.48-2.26.11-.46-.22-.87-.59-1.14-1.09-.66-1.19-.31-2.65.79-3.25Z"></path><path class="cls-2" d="m45.7,240.2c3.61-2,7.8-2.84,11.55.43,1.95,1.7,5.19,5.78,4.95,10.26-.12,2.19-1.16,5.31-5.46,7.69-7.91,4.39-6.93,6.15-4.79,10.02.4.73.89,1.14,1.58,1.35,2.14.65,5.38-.9,6.5-1.59.9-.72,5.25-3.94,9.8-2.86,1.64.39,3.97,1.53,5.75,4.72,4.2,7.57,1.06,12.39-1.18,13.87l-.3.2-.34.09c-.32.08-7.88,2.16-7.22,8.95.06.6.89,3.1,2.88,4.27,1.84,1.08,4.28.79,7.31-.94,4.98-2.81,12.27-3.52,16.59,3.73,1.61,2.69,2.08,5.47,1.4,8.25-1.65,6.77-9.85,10.97-10.2,11.15-1.12.56-2.53.04-3.15-1.17-.62-1.21-.22-2.66.9-3.21,1.89-.97,6.99-4.31,7.95-8.27.36-1.47.1-2.91-.79-4.4-3.07-5.15-8.23-2.99-10.28-1.79-5.51,3.15-9.47,2.19-11.78.83-3.58-2.1-5.23-6.2-5.44-8.29-.8-8.29,5.94-12.48,9.99-13.69.68-.63,2.26-2.75-.31-7.37-.92-1.66-1.86-2.06-2.49-2.21-2.29-.55-5.23,1.34-6.17,2.11l-.21.15c-.56.36-5.64,3.48-10.18,2.11-1.93-.58-3.51-1.89-4.56-3.8-4.12-7.43-2.52-11.6,6.37-16.53,2.06-1.14,3.14-2.48,3.22-3.99.13-2.37-2.06-5.08-3.14-6.03-3.88-3.39-10.78,3.45-13.04,5.69-.89.89-2.36.79-3.28-.21-.91-1-.93-2.53-.03-3.42,1.56-1.55,4.36-4.31,7.62-6.12Z"></path><path class="cls-2" d="m70.75,289.93c1.25-.69,2.83-.18,3.75,1.21.75,1.14.52,2.63-.52,3.33-.78.52-1.78.46-2.56-.08-.59-.19-1.12-.61-1.46-1.21-.66-1.19-.31-2.65.79-3.25Zm2.39,4.31h0s0,0,0,0Z"></path><path class="cls-2" d="m55.86,262.26c1.03-.57,2.41-.17,3.12.89.75,1.13.53,2.63-.51,3.34-.67.46-1.53.48-2.26.11-.46-.22-.87-.59-1.14-1.09-.66-1.19-.31-2.65.79-3.25Z"></path><path class="cls-2" d="m85.5,462.82c3.02-2.82,6.89-4.64,11.31-2.37,2.31,1.18,6.43,4.36,7.27,8.76.41,2.16.15,5.43-3.44,8.78-6.62,6.17-5.25,7.64-2.23,10.88.57.61,1.14.9,1.86.93,2.23.11,5-2.17,5.93-3.11.7-.91,4.14-5.09,8.82-5.14,1.69-.02,4.22.52,6.72,3.2,5.9,6.34,4.02,11.76,2.2,13.75l-.24.26-.31.17c-.29.16-7.13,3.99-4.85,10.43.2.57,1.61,2.79,3.82,3.45,2.05.61,4.34-.27,6.86-2.68,4.15-3.93,11.05-6.38,17-.38,2.21,2.23,3.33,4.81,3.34,7.67.03,6.97-6.91,13.02-7.21,13.28-.95.82-2.44.65-3.34-.38-.89-1.03-.86-2.53.1-3.34,1.6-1.39,5.75-5.87,5.72-9.94,0-1.51-.61-2.85-1.83-4.08-4.22-4.26-8.71-.91-10.41.74-4.59,4.39-8.66,4.41-11.24,3.65-3.98-1.18-6.58-4.76-7.28-6.74-2.78-7.85,2.76-13.55,6.4-15.69.51-.77,1.53-3.21-2.08-7.08-1.3-1.39-2.3-1.55-2.95-1.54-2.35.02-4.75,2.56-5.48,3.54l-.17.2c-.46.49-4.64,4.73-9.38,4.5-2.01-.1-3.86-.99-5.34-2.59-5.79-6.22-5.24-10.65,2.19-17.58,1.72-1.6,2.45-3.17,2.17-4.65-.45-2.33-3.23-4.43-4.5-5.09-4.58-2.35-9.63,5.94-11.29,8.67-.65,1.08-2.1,1.34-3.23.59-1.13-.75-1.51-2.23-.86-3.31,1.14-1.88,3.19-5.24,5.92-7.78Z"></path><path class="cls-2" d="m121.79,505.05c1.05-.97,2.7-.86,3.93.27,1,.92,1.13,2.42.3,3.36-.63.7-1.62.88-2.5.54-.62-.04-1.24-.32-1.71-.83-.93-1-.94-2.5-.02-3.35Zm3.36,3.61h0s0,0,0,0Z"></path><path class="cls-2" d="m100.67,481.78c.86-.8,2.3-.74,3.24.12,1,.92,1.15,2.42.31,3.36-.54.61-1.37.83-2.16.65-.5-.1-.99-.36-1.37-.78-.93-1-.94-2.5-.02-3.35Z"></path><path class="cls-2" d="m738.04,437.1c2.5,3.29,3.93,7.32,1.22,11.49-1.41,2.18-4.98,5.96-9.45,6.36-2.19.2-5.42-.39-8.39-4.3-5.47-7.2-7.08-5.98-10.6-3.31-.66.5-1,1.04-1.11,1.75-.34,2.21,1.66,5.19,2.5,6.21.84.79,4.65,4.63,4.23,9.29-.15,1.68-.94,4.15-3.86,6.36-6.89,5.24-12.11,2.82-13.9.81l-.24-.26-.14-.33c-.13-.3-3.26-7.5-9.89-5.87-.59.14-2.94,1.32-3.81,3.46-.81,1.98-.17,4.35,1.98,7.1,3.49,4.53,5.24,11.64-1.33,16.96-2.44,1.97-5.11,2.84-7.96,2.56-6.93-.67-12.26-8.18-12.49-8.5-.72-1.03-.4-2.5.71-3.28,1.11-.79,2.6-.6,3.31.43,1.23,1.73,5.27,6.31,9.32,6.69,1.51.14,2.89-.32,4.24-1.41,4.66-3.77,1.78-8.57.3-10.43-3.9-5-3.52-9.06-2.51-11.54,1.57-3.84,5.39-6.07,7.43-6.57,8.09-1.98,13.21,4.1,14.97,7.93.72.59,3.04,1.84,7.25-1.36,1.51-1.15,1.77-2.14,1.83-2.78.22-2.34-2.07-4.99-2.97-5.81l-.18-.19c-.44-.51-4.25-5.09-3.54-9.78.3-1.99,1.37-3.74,3.11-5.06,6.77-5.14,11.12-4.15,17.27,3.94,1.42,1.87,2.91,2.75,4.41,2.62,2.36-.21,4.73-2.77,5.51-3.97,2.8-4.32-4.95-10.17-7.5-12.1-1.01-.76-1.12-2.22-.26-3.27.86-1.05,2.37-1.28,3.38-.52,1.76,1.33,4.89,3.7,7.15,6.67Z"></path><path class="cls-2" d="m692.39,468.99c.87,1.14.58,2.77-.67,3.88-1.02.9-2.53.89-3.37-.04-.63-.7-.71-1.7-.29-2.54.1-.61.44-1.2.99-1.62,1.08-.82,2.58-.68,3.33.32Zm-3.92,2.98h0s0,0,0,0Z"></path><path class="cls-2" d="m717.65,450.3c.71.94.51,2.36-.44,3.21-1.01.91-2.52.9-3.37-.02-.55-.6-.69-1.45-.43-2.22.15-.49.46-.94.91-1.29,1.08-.82,2.58-.68,3.33.32Z"></path><path class="cls-2" d="m810.7,378.63c2.39,3.37,3.69,7.44.85,11.53-1.48,2.13-5.17,5.8-9.65,6.05-2.19.12-5.41-.57-8.25-4.57-5.24-7.38-6.88-6.21-10.49-3.65-.68.48-1.04,1.01-1.17,1.72-.41,2.19,1.49,5.25,2.3,6.28.81.81,4.5,4.78,3.93,9.42-.21,1.68-1.08,4.12-4.06,6.23-7.06,5.01-12.19,2.43-13.92.36l-.23-.27-.13-.33c-.12-.3-3.02-7.6-9.7-6.19-.59.12-2.98,1.23-3.92,3.34-.87,1.95-.31,4.34,1.75,7.16,3.34,4.64,4.86,11.8-1.87,16.9-2.5,1.89-5.2,2.67-8.04,2.3-6.91-.89-11.99-8.57-12.21-8.9-.68-1.05-.32-2.51.82-3.26,1.13-.75,2.62-.51,3.29.54,1.17,1.77,5.06,6.47,9.1,6.99,1.5.19,2.9-.23,4.28-1.27,4.78-3.62,2.06-8.51.64-10.41-3.74-5.13-3.23-9.17-2.14-11.62,1.69-3.79,5.59-5.89,7.64-6.32,8.15-1.72,13.07,4.52,14.71,8.41.7.61,2.98,1.94,7.29-1.12,1.55-1.1,1.84-2.08,1.92-2.72.29-2.34-1.91-5.05-2.78-5.9l-.17-.19c-.42-.52-4.08-5.22-3.23-9.89.36-1.98,1.49-3.69,3.27-4.95,6.93-4.92,11.25-3.79,17.13,4.5,1.36,1.92,2.82,2.85,4.33,2.76,2.37-.13,4.82-2.61,5.64-3.79,2.94-4.23-4.62-10.33-7.1-12.33-.98-.79-1.05-2.26-.16-3.28.89-1.02,2.41-1.2,3.39-.41,1.71,1.38,4.77,3.85,6.93,6.9Z"></path><path class="cls-2" d="m764.05,409.04c.83,1.17.5,2.79-.79,3.86-1.05.87-2.55.8-3.37-.15-.61-.72-.66-1.72-.21-2.55.12-.61.48-1.18,1.04-1.59,1.11-.79,2.6-.6,3.32.42Zm-4.02,2.85h0s0,0,0,0Z"></path><path class="cls-2" d="m789.9,391.17c.68.96.43,2.37-.54,3.2-1.04.88-2.55.82-3.37-.13-.53-.61-.65-1.47-.36-2.23.17-.48.49-.93.95-1.26,1.11-.79,2.6-.6,3.32.42Z"></path><path class="cls-2" d="m774.83,501.22c1.4,3.89,1.55,8.16-2.29,11.33-2,1.65-6.54,4.19-10.92,3.23-2.15-.47-5.05-2-6.71-6.62-3.06-8.52-4.96-7.83-9.12-6.34-.78.28-1.27.69-1.59,1.34-.98,2,.03,5.45.52,6.67.57,1,3.04,5.81,1.24,10.13-.65,1.56-2.15,3.68-5.59,4.91-8.15,2.92-12.4-.94-13.5-3.4l-.15-.32-.03-.35c-.03-.33-.86-8.13-7.67-8.57-.6-.04-3.2.38-4.68,2.16-1.36,1.64-1.47,4.09-.24,7.36,1.97,5.37,1.5,12.67-6.36,15.77-2.92,1.15-5.73,1.17-8.36.05-6.41-2.72-9.24-11.48-9.36-11.86-.38-1.19.37-2.5,1.66-2.92,1.29-.42,2.66.21,3.03,1.41.65,2.02,3.13,7.6,6.88,9.18,1.39.59,2.85.56,4.47-.07,5.57-2.2,4.27-7.64,3.42-9.86-2.22-5.95-.64-9.7,1.07-11.77,2.65-3.19,6.97-4.17,9.06-4.03,8.31.54,11.36,7.88,11.9,12.07.51.77,2.35,2.67,7.33.88,1.79-.64,2.33-1.51,2.58-2.1.91-2.17-.48-5.38-1.09-6.43l-.12-.23c-.26-.62-2.52-6.13-.44-10.39.88-1.81,2.43-3.16,4.48-3.89,8-2.87,11.86-.61,15.29,8.94.79,2.21,1.95,3.5,3.42,3.82,2.31.51,5.35-1.22,6.45-2.13,3.97-3.28-1.67-11.19-3.52-13.79-.73-1.03-.4-2.46.73-3.2,1.13-.74,2.65-.51,3.38.52,1.28,1.79,3.56,4.99,4.82,8.51Z"></path><path class="cls-2" d="m721.71,517.93c.48,1.35-.27,2.82-1.8,3.51-1.24.56-2.68.09-3.2-1.05-.39-.85-.17-1.84.49-2.51.28-.55.78-1.01,1.43-1.25,1.28-.46,2.66.12,3.09,1.3Zm-4.64,1.66h0s0,0,0,0Z"></path><path class="cls-2" d="m751.42,507.68c.4,1.11-.22,2.4-1.38,2.93-1.24.56-2.68.1-3.21-1.04-.35-.74-.23-1.59.25-2.24.29-.42.72-.76,1.26-.95,1.28-.46,2.66.12,3.09,1.3Z"></path><path class="cls-2" d="m17.6,398.3c3.02-2.82,6.89-4.64,11.31-2.37,2.31,1.18,6.43,4.36,7.27,8.76.41,2.16.15,5.43-3.44,8.78-6.62,6.17-5.25,7.64-2.23,10.88.57.61,1.14.9,1.86.93,2.23.11,5-2.17,5.93-3.11.7-.91,4.14-5.09,8.82-5.14,1.69-.02,4.22.52,6.72,3.2,5.9,6.34,4.02,11.76,2.2,13.75l-.24.26-.31.17c-.29.16-7.13,3.99-4.85,10.43.2.57,1.61,2.79,3.82,3.45,2.05.61,4.34-.27,6.86-2.68,4.15-3.93,11.05-6.38,17-.38,2.21,2.23,3.33,4.81,3.34,7.67.03,6.97-6.91,13.02-7.21,13.28-.95.82-2.44.65-3.34-.38-.89-1.03-.86-2.53.1-3.34,1.6-1.39,5.75-5.87,5.72-9.94,0-1.51-.61-2.85-1.83-4.08-4.22-4.26-8.71-.91-10.41.74-4.59,4.39-8.66,4.41-11.24,3.65-3.98-1.18-6.58-4.76-7.28-6.74-2.78-7.85,2.76-13.55,6.4-15.69.51-.77,1.53-3.21-2.08-7.08-1.3-1.39-2.3-1.55-2.95-1.54-2.35.02-4.75,2.56-5.48,3.54l-.17.2c-.46.49-4.64,4.73-9.38,4.5-2.01-.1-3.86-.99-5.34-2.59-5.79-6.22-5.24-10.65,2.19-17.58,1.72-1.6,2.45-3.17,2.17-4.65-.45-2.33-3.23-4.43-4.5-5.09-4.58-2.35-9.63,5.94-11.29,8.67-.65,1.08-2.1,1.34-3.23.59-1.13-.75-1.51-2.23-.86-3.31,1.14-1.88,3.19-5.24,5.92-7.78Z"></path><path class="cls-2" d="m53.89,440.53c1.05-.97,2.7-.86,3.93.27,1,.92,1.13,2.42.3,3.36-.63.7-1.62.88-2.5.54-.62-.04-1.24-.32-1.71-.83-.93-1-.94-2.5-.02-3.35Zm3.36,3.61h0s0,0,0,0Z"></path><path class="cls-2" d="m32.77,417.26c.86-.8,2.3-.74,3.24.12,1,.92,1.15,2.42.31,3.36-.54.61-1.37.83-2.16.65-.5-.1-.99-.36-1.37-.78-.93-1-.94-2.5-.02-3.35Z"></path><path class="cls-3" d="m314.38,95.09c-.33,0-.67-.05-1-.16-1.66-.55-2.55-2.34-2-3.99,1.54-4.65,4.79-7.32,8.68-7.15,1.91.08,3.79.88,5.32,2.26,1.46,1.32,2.52,3.12,2.99,5.08.41,1.7-.64,3.4-2.34,3.81-1.7.41-3.4-.64-3.81-2.34-.28-1.16-1.29-2.45-2.43-2.5-1.35-.06-2.19,2.15-2.41,2.83-.44,1.33-1.67,2.16-3,2.16Z"></path><path class="cls-3" d="m347.35,94.86c-1.76-.87-2.42-2.9-1.48-4.44.68-1.1,1.94-1.95,3.61-1.48.82.23,2.1.71,3.06.73,2,.04,3.18-.25,4.67-1.16s3.26-.59,4.27.83c1.01,1.42.67,3.4-.74,4.41-4.33,3.1-10.35,2.63-13.39,1.12Z"></path><path class="cls-3" d="m336.72,141.66c-9.53,0-18.69-3.88-25.85-10.95-4.01-3.96-7.17-8.67-9.39-14-2.3-5.52-3.47-11.39-3.47-17.46,0-5.74,1.13-11.37,3.36-16.76,2.15-5.21,5.22-9.91,9.12-14,3.93-4.12,8.49-7.37,13.55-9.66,5.31-2.4,10.91-3.62,16.66-3.62,2.12,0,3.84,1.72,3.84,3.84,0,.76-.22,1.48-.61,2.07,2.7.25,5.35.85,7.92,1.8,4.14,1.53,7.99,3.92,11.45,7.12,4.33,4,7.9,9.17,10.34,14.94,2.39,5.66,3.59,11.64,3.45,17.28-.13,5.69-1.31,11.08-3.5,16.01-2.09,4.71-5.05,8.89-8.8,12.42-7.34,6.92-17.15,10.8-27.62,10.94-.15,0-.3,0-.44,0Zm-2.19-78.16c-2.5.49-4.95,1.27-7.33,2.34-4.15,1.88-7.9,4.55-11.15,7.96-3.24,3.39-5.79,7.3-7.57,11.63-1.84,4.45-2.77,9.1-2.77,13.82,0,9.88,3.85,19.35,10.58,25.99,5.8,5.72,13.18,8.82,20.8,8.73,8.54-.11,16.51-3.25,22.45-8.84,3-2.82,5.37-6.17,7.04-9.95,1.78-4,2.73-8.4,2.84-13.07.22-9.46-4.22-19.83-11.33-26.4-3.94-3.65-10.55-7.81-19.62-6.88-2.11.21-4-1.32-4.21-3.43-.07-.67.04-1.31.28-1.89Z"></path><path class="cls-3" d="m337.12,119.17c-2.4,0-4.69-.73-6.74-2.18-3.55-2.5-6.11-7.07-6.54-11.66-.13-1.37.82-2.6,2.17-2.84l21-3.64c1.35-.23,2.65.6,2.99,1.92.83,3.14.88,7.93-1.48,11.95-1.77,3.01-4.61,5.1-8.23,6.02-1.07.27-2.13.41-3.16.41Zm-7.53-11.95c.67,2.01,1.94,4.15,3.81,5.47,1.66,1.17,3.53,1.49,5.57.97,2.26-.58,3.94-1.79,5-3.59,1.03-1.75,1.34-3.79,1.27-5.56l-15.65,2.71Z"></path><path class="cls-3" d="m381.85,68.85c-.15,0-.29.02-.44.04-.92.14-1.83.49-2.64.9-3.87,2-7.42,4.2-8.94,6.01-1.07,1.39-1.34,2.74-.54,4.28s2.84,2.9,4.25,1.9c3.67-2.57,7.67-4.63,11.25-7.31,1.08-.8.23-2.84-.46-4.12-.36-.68-.91-1.3-1.55-1.55-.31-.12-.63-.16-.94-.15Z"></path><path class="cls-3" d="m366.66,55.32c0,.13,0,.27-.01.4-.07.84-.33,1.67-.67,2.41-1.59,3.57-3.39,6.85-4.95,8.3-1.2,1.02-2.42,1.32-3.87.67s-2.83-2.43-1.99-3.74c2.12-3.42,3.77-7.1,6-10.44.67-1,2.58-.33,3.79.23.64.3,1.24.76,1.51,1.33.13.28.18.56.19.84Z"></path><path class="cls-3" d="m308.49,51.1c.14.05.28.11.42.17.87.4,1.68,1,2.37,1.64,3.31,3.05,6.25,6.21,7.3,8.39.71,1.65.64,3.03-.51,4.28s-3.49,1.98-4.63.59c-2.98-3.54-6.39-6.69-9.26-10.32-.86-1.09.47-2.8,1.45-3.84.52-.55,1.21-.99,1.9-1.05.34-.03.66.03.96.13Z"></path><path class="cls-3" d="m392.35,94c-.13-.07-.26-.13-.4-.19-.86-.36-1.82-.55-2.74-.63-4.37-.41-8.57-.49-10.84.14-1.65.53-2.61,1.44-2.75,3.02-.15,1.66.86,3.66,2.61,3.6,4.51-.13,9.02.29,13.51.02,1.35-.08,1.71-2.07,1.82-3.4.05-.71-.08-1.46-.49-1.98-.2-.25-.45-.44-.72-.59Z"></path><path class="cls-3" d="m300.75,84.92c-.11-.09-.23-.17-.35-.25-.76-.5-1.65-.85-2.51-1.1-4.11-1.19-8.12-2.06-10.39-1.89-1.68.19-2.75.85-3.17,2.31s.18,3.58,1.86,3.84c4.34.72,8.58,1.95,12.92,2.55,1.3.18,2.01-1.61,2.34-2.84.18-.65.18-1.37-.12-1.93-.15-.27-.35-.49-.59-.68Z"></path><path class="cls-3" d="m302.08,115c-.15,0-.31,0-.46.02-.97.09-1.96.38-2.85.75-4.27,1.74-8.22,3.68-10.04,5.34-1.29,1.28-1.75,2.56-1.13,4.07.64,1.58,2.54,2.9,4.13,2,4.14-2.29,8.54-4.08,12.6-6.48,1.22-.72.62-2.7.08-3.96-.28-.67-.76-1.28-1.39-1.56-.31-.13-.63-.18-.95-.18Z"></path><path class="cls-3" d="m317.29,135.51c-.11.09-.21.19-.31.29-.62.65-1.11,1.45-1.48,2.25-1.8,3.8-3.24,7.55-3.39,9.81-.04,1.67.5,2.85,1.95,3.53s3.73.5,4.23-1.1c1.34-4.11,3.2-8.02,4.41-12.16.36-1.24-1.39-2.26-2.61-2.82-.65-.29-1.39-.44-2.02-.25-.3.09-.56.25-.79.45Z"></path><path class="cls-3" d="m369.77,125.93c.09.12.18.23.28.33.62.67,1.41,1.21,2.2,1.62,3.78,1.97,7.55,3.56,9.87,3.73,1.72.05,2.97-.53,3.79-2.09s.79-4.03-.81-4.59c-4.14-1.48-8.04-3.51-12.22-4.85-1.25-.4-2.44,1.49-3.1,2.81-.35.7-.55,1.51-.41,2.18.07.33.22.61.4.86Z"></path><path class="cls-3" d="m351.73,138.66c0,.13,0,.26.02.39.08.82.34,1.63.68,2.35,1.59,3.47,3.38,6.67,4.9,8.07,1.18.99,2.36,1.27,3.76.63s2.71-2.38,1.88-3.66c-2.1-3.32-3.74-6.9-5.95-10.15-.66-.97-2.5-.3-3.67.25-.62.29-1.19.75-1.45,1.3-.13.27-.17.55-.18.82Z"></path><path class="cls-1" d="m97.81,730.26s10.72-238.85,116.91-198.16c43.35,16.61,108.27,55.86,197.78,46.71,89.51-9.15,155.19-95.86,144.1-159.06-6.33-36.09,58.1-5.67,74.67,32.43,12.36,28.42-32.21,51.04-31.22,8.47.63-27.2,27.05-47.16,86.05-74.1,41.13-18.78,71.71-59.03,39.65-178.39"></path></svg> 