<?xml version="1.0" encoding="UTF-8"?> <svg xmlns="http://www.w3.org/2000/svg" id="icons" viewBox="0 0 800 800"><defs><style>.cls-1{fill:#e94f43;}.cls-2{fill:#b08fe3;}.cls-3{fill:#6e16e7;}</style></defs><path class="cls-2" d="m114.59,448.98c-1.46,0-3.23-1.66-15.48-13.14-3.02-2.83-6.8-6.37-10.72-10-9.25,7.08-17.61,13.37-21.68,16.3h0c-1.4,1.01-3.27.9-4.55-.25-1.28-1.16-1.57-3.01-.7-4.51,2.49-4.29,7.85-13.49,13.73-23.48-4.38-3.82-7.85-6.63-9.19-7.17-1.61-.34-2.39-1.51-2.58-2.52-.19-1.03.13-2.46,1.61-3.34,1.89-1.13,11.09-3.31,21.08-5.45,12.13-20.39,12.52-20.46,14.19-20.73,3.08-.51,3.7,1.98,5.18,8.02.54,2.21,1.2,5.05,1.94,8.38,19.88-3.87,20.54-3.34,21.63-2.48l1.16.93-.02,1.52c-.04,1.63-.06,2.31-19.12,17.23,1.74,8.48,3.44,17.2,4.71,24.09.74,4.02,1.28,7.19,1.62,9.44.54,3.6.97,6.45-2.05,7.06-.28.06-.51.1-.76.1Zm-49.64-9.27h0,0Zm28.26-17.57c2.98,2.76,6.3,5.86,10,9.32,2.66,2.49,5.35,5.01,7.61,7.1-1.12-6.44-3.03-16.29-5.03-26.14-1.12.87-2.29,1.78-3.52,2.74-2.97,2.31-6.03,4.66-9.05,6.99Zm-30.01,15.13s0,0,0,0h0Zm16.56-19.31c-2.3,3.91-4.73,8.06-7.28,12.43,3.41-2.57,7.32-5.53,11.43-8.67-1.4-1.28-2.79-2.54-4.15-3.76Zm3.1-5.27c1.76,1.58,3.72,3.35,5.88,5.33,5.29-4.06,10.71-8.26,15.7-12.15-.55-2.66-1.11-5.27-1.64-7.75-4.26.84-8.67,1.74-12.87,2.62-2.14,3.6-4.51,7.59-7.08,11.95Zm-9.6-8.2c1.39,1.09,3.05,2.46,5.02,4.16,1.22-2.06,2.44-4.13,3.64-6.16,0,0,.01-.02.02-.03-3.35.74-6.33,1.44-8.68,2.03Zm-7.18,2.26s.04,0,.07.01c-.02,0-.04,0-.07-.01Zm42.63-9.79c.01.06.03.12.04.18.32,1.49.64,3.02.97,4.58,3.03-2.39,5.78-4.58,8.08-6.44-2.67.48-5.77,1.05-9.09,1.69Zm-8.96-12.46c-1.45,2.32-3.34,5.43-5.64,9.24,1.08-.22,2.16-.44,3.21-.65,1.47-.3,2.87-.58,4.2-.85-.66-2.98-1.26-5.62-1.78-7.75Z"></path><path class="cls-3" d="m217.27,503.36c-.89-2.87-1.86-6.5-2.71-9.82l-1.7-7.2c-.23-6.16-1.35-10.37-1.83-11.9-1.14-3.67-2.32-5.7-3.71-6.38-.67-.33-1.39-.26-2.2-.04-.16.04-9.05,2.2-9.05,2.2l-1.44-6.27c-.24-1.06-.9-1.98-1.83-2.55-.93-.57-2.05-.74-3.1-.48-8.12,2.03-16.88,5.72-26.04,10.97-7.36,4.22-13.1,8.39-15.86,10.5-9.31-2.93-20.68-3.63-26.64-3.79-9.5-.25-17.66.49-21.84,1.98-2.11.75-3.12,3.04-2.45,5.18.86,2.78,3.63,2.79,5.55,2.33-.03.65-.03,2.59.04,3.59l-11.2,2.57c-2.15.49-2.73,2.32-2.26,4.22l15.39,67.08c.4,1.75,1.92,3.02,3.71,3.1,19.74.93,56.07-2.8,58.61-3.06,1.88-.13,3.07-.6,4.47-1.08,1.16-.37,6.76-2.28,15.77-5.83,16.36-6.44,28.62-12.71,36.03-16.83,1.56-.87,2.36-2.67,1.95-4.41l-6.25-26.47c-.01-.1-.03-.19-.04-.29-.37-2.63-.75-5.36-1.37-7.34Zm-107.4-16.4c3.06-.24,6.8-.35,11.08-.23,9.41.25,18.86,1.41,24.97,3.33,2.51.79,4.71.4,6.8-1.2,4.36-3.33,18.99-13.89,34.96-18.92l13.38,58.34c-6.25,3.33-21.39,11.85-32.26,21.66l-4.81-20.98c2.44-1.95,15.25-11.97,23.05-15.34,2.23-.96,3.4-2.35,2.9-4.24-.53-2.02-2.6-2.92-4.61-2.35-6.58,1.88-15.88,8.81-22.7,13.71-.15.11-.31.22-.46.33l-1.97-8.58c1.19-.84,2.57-2.1,4.07-3.21,5.35-3.94,13.19-9.65,18.04-11.82,1.97-.88,3.02-2.27,2.58-4.03-.5-2.02-2.66-3.17-4.66-2.6-5.9,1.67-13.91,7.82-20.38,12.59-.5.37-1.18.96-1.66,1.31l-2.46-10.39c-.46-2-1.9-3.48-4.19-3.01-2.01.41-3.17,2.44-2.58,4.77l2.32,10.7c-.07-.01-.14-.02-.21-.04-8.07-1.36-20.32-3.63-26.85-2.47-2.05.36-3.42,2.32-3.06,4.37.36,2.05,2.02,2.62,4.1,2.5,7.24-.4,17.92,1.93,24.56,3.05,1.14.19,2.21.37,3.13.52.05,0,.11.02.16.02l1.93,8.43c-7.99-1.2-21.05-3.35-28.35-2.08-2.05.36-3.43,2.31-3.07,4.36.36,2.05,2.35,3.11,4.42,2.85,6.29-.79,19.27,1.44,26.28,2.5.96.14,1.8.27,2.56.38l5.25,22.87c-8.2-2.42-25.83-7.14-39.57-7.36-2.79-10.58-12.17-45.73-12.39-57.61-.01-.73-.05-1.29-.28-2.11Zm-12.08,14.02l5.72-1.31c3.16,19.39,11.59,50.57,12.03,52.16.5,1.83,1.96,3.03,4.08,2.99,8.62-.16,20.91,1.99,30.19,4.29-11.47.92-27.02,1.91-38.3,1.67l-13.72-59.8Zm78.44,53.22c12.82-10.84,30.9-19.94,31.3-20.16,1.82-.97,2.56-2.71,2.14-4.53l-11.81-51.49,4.58-1.05,14.01,59.35c-15.51,8.37-31.05,14.53-40.22,17.88Z"></path><path class="cls-3" d="m172.16,462.1c1.04-.79,3.03-2.13,4.14-2.76,1.14-.65,1.87-.64,3.11-1.15.86-.36,2.03-1.05,2.92-1.35,1.61-.55,3.24-1.04,4.83-1.47,2.27-.63,3.46-1.75,3.2-3.95-.26-2.42-2.67-3.99-4.97-3.26-2.29.66-4.54,1.53-6.71,2.59-1.33.65-2.81,2-4.06,2.81-1.99,1.3-2.02.81-5.87,4.65-1.49,1.49-.94,3-.6,3.59.7,1.24,2.87,1.19,4,.31Z"></path><path class="cls-1" d="m533.89,756.15c-1.1,0-2.16-.61-2.69-1.67-.74-1.48-.13-3.28,1.35-4.02.15-.07,11.33-5.66,19.71-11.8-.44-.87-.78-1.73-1.05-2.55-2.81-8.64.69-19.77,5.72-24.74,3.09-3.06,5.82-2.75,7.17-2.3,3.07,1.03,5.24,3.46,6.1,6.84,1.6,6.25-1.38,15.05-7.24,21.42-.69.74-1.45,1.5-2.29,2.25,1.75,1.28,4.01,2.13,6.78,2.55,9.53,1.46,15.89-4.9,20.12-12.77-4.58-5.1-6.95-12.91-6.24-21.57.65-7.95,3.69-13.59,8.33-15.47,2.99-1.21,6.22-.66,8.65,1.47,3.21,2.81,4.32,7.63,2.97,12.89-.13.52-.29,1.24-.49,2.13-.94,4.16-2.62,11.65-5.8,19.01.28.17.56.32.84.46,4.32,2.12,9.17,1.02,13.67-3.09,1.98-1.81,3.78-3.78,5.41-5.84-.1-.13-.19-.26-.28-.39-6.75-9.88-4.47-28.48,2.21-35.69,3.25-3.51,7.36-4.22,11.26-1.96,1.6.92,3.61,2.99,4.11,7.58.96,8.8-3.37,20.27-9.45,29.61,2.7,1.41,6.24,1.23,10.7-.53,7.59-2.99,12.82-7.48,16.41-12.02-2.82-3.61-4.53-8.65-4.85-14.69-.49-9.01,2.33-19.49,7.9-21.43,4.19-1.47,8.09.77,9.92,5.69,2.5,6.72,1.56,18.73-4.96,29.53.67.34,1.41.62,2.22.81,3.65.85,7.58-.85,9.78-4.23,3.39-5.21,6.31-9.84,8.79-13.92-1-3.46-1.57-7.57-1.71-12.33-.37-12.3,5.08-16.91,7.43-18.32,2.95-1.77,6.41-1.93,9.03-.42,2.36,1.36,3.7,3.8,3.66,6.7-.04,3.68-4.01,12.09-11.82,25.09,1.12,2.71,2.75,4.9,5.1,5.97,7.3,3.32,19.4-4.55,23.44-7.86,1.28-1.05,3.17-.86,4.22.42,1.05,1.28.86,3.17-.42,4.22-.71.58-17.57,14.22-29.73,8.68-2.52-1.14-4.6-2.98-6.26-5.49-2.04,3.27-4.28,6.79-6.72,10.54-3.57,5.49-10.07,8.22-16.17,6.8-1.55-.36-2.99-.94-4.32-1.72-4.45,5.5-10.59,10.35-18.75,13.57-7.62,3-12.89,1.97-16.41-.15-1.84,2.34-3.77,4.45-5.71,6.22-6.35,5.8-13.77,7.28-20.36,4.05-.29-.14-.57-.29-.86-.45-4.63,8.26-11.55,15.15-21.95,15.16-1.24,0-2.52-.1-3.86-.3-4.84-.74-8.25-2.5-10.64-4.63-8.81,6.49-20.07,12.11-20.69,12.42-.43.21-.88.31-1.33.31Zm28.41-41.36c-1.78.43-6.07,7.11-6.08,14.66,0,1.99.28,3.76.85,5.3.54-.5,1.03-1,1.49-1.49,5.04-5.47,6.77-12.25,5.84-15.87-.45-1.77-1.39-2.34-2.09-2.6Zm30.56-17.12c-.28,0-.59.06-.92.19-1.88.76-4.08,3.9-4.61,10.4-.47,5.71.71,11,3.1,14.86,2.39-6.12,3.75-12.2,4.53-15.65.22-.96.39-1.74.54-2.31.92-3.56.03-5.89-1.11-6.88-.35-.31-.87-.61-1.53-.61Zm30.78-11.67c-.67,0-1.44.33-2.38,1.33-4.64,5-6.43,18.81-2.59,26.62,5.67-9.25,8.17-19.15,7.6-24.43-.2-1.87-.74-2.8-1.15-3.03-.44-.25-.92-.49-1.48-.49Zm31.74-10.63c-.19,0-.35.06-.46.1-1.42.5-4.35,6.84-3.89,15.45.12,2.24.61,6.26,2.44,9.61.55-1,1.03-1.98,1.44-2.91,3.66-8.22,3.77-16.14,2.33-20.03-.69-1.86-1.38-2.22-1.86-2.22Zm34.07-13.79c-.54,0-1.22.16-1.95.6-1.13.68-4.8,3.62-4.52,12.99.04,1.52.14,3.12.32,4.73,5.55-9.68,7.78-14.96,7.8-16.67.01-1.04-.49-1.33-.65-1.43-.24-.14-.58-.23-1-.23Z"></path><path class="cls-1" d="m423.67,407.57c-.52,0-1.05-.08-1.56-.25-2.63-.86-4.07-3.69-3.22-6.32.45-1.44,1.35-6.08-.36-8.57-.93-1.35-2.8-2.11-5.58-2.27-6.82-.43-11.68,3.64-16.36,7.55-3.97,3.31-7.71,6.44-12.54,6.73-6.15.37-12.35-2.44-16.62-7.53-4.53-5.4-6.14-12.63-4.42-19.81.65-2.7,3.37-4.36,6.06-3.71,2.7.65,4.36,3.36,3.71,6.06-1.33,5.55.9,9.28,2.35,11.01,2.19,2.62,5.37,4.1,8.3,3.95,1.53-.09,4.16-2.29,6.71-4.41,5.31-4.43,12.6-10.5,23.4-9.87,7.55.45,11.41,3.87,13.31,6.67,4.77,7.01,1.94,16.28,1.61,17.32-.69,2.12-2.66,3.47-4.78,3.47Z"></path><path class="cls-1" d="m381.87,411.55h-.16c-7.47-.05-13.81-2.71-17.4-7.29-2.28-2.92-4.6-8.07-2.68-16.06.65-2.7,3.37-4.36,6.06-3.71,2.7.65,4.36,3.36,3.71,6.06-.79,3.28-.51,5.81.82,7.52,1.66,2.12,5.23,3.4,9.55,3.43,3.85-.03,5.33-1.53,8.02-4.37,3.19-3.36,7.56-7.97,16.64-8.13.16,0,.31,0,.47,0,13.49,0,20.63,10.29,20.93,10.73,1.56,2.3.96,5.42-1.33,6.98-2.29,1.55-5.39.97-6.96-1.3-.22-.31-4.61-6.35-12.65-6.35-.09,0-.19,0-.28,0-4.86.08-6.72,2.04-9.52,4.99-3.01,3.17-7.12,7.5-15.22,7.5Z"></path><path class="cls-1" d="m493.93,420.34c-1.46,0-2.98-.17-4.53-.56-7.55-1.9-10.06-8.36-12.07-13.56-2.26-5.81-3.91-9.43-9.3-10.78-6.24-1.54-17.49,6.39-21.97,10.47-2.05,1.87-5.23,1.73-7.1-.32-1.87-2.05-1.73-5.22.31-7.1,1.81-1.66,18.06-16.09,31.19-12.81,10.72,2.67,13.91,10.89,16.24,16.9,1.88,4.84,2.87,6.87,5.15,7.44,7.74,1.96,15.43-8.18,15.5-8.28,1.64-2.24,4.78-2.73,7.02-1.1,2.24,1.63,2.74,4.76,1.12,7-.42.58-9.34,12.69-21.56,12.69Z"></path><path class="cls-1" d="m493.09,430.64c-2.18,0-4.48-.29-6.89-.87-7.47-1.79-10.41-7.97-13.01-13.43-2.87-6.02-4.91-9.78-10.38-11.07-9.12-2.14-18.1,1.53-18.19,1.56-2.56,1.07-5.5-.14-6.58-2.69-1.07-2.55.11-5.49,2.66-6.57.48-.2,12.02-5.01,24.4-2.09,10.45,2.46,14.32,10.59,17.16,16.53,2.22,4.66,3.61,7.33,6.28,7.98,4.56,1.1,8.15.65,10.95-1.36,4.94-3.55,6.67-11.57,6.92-14.37.25-2.76,2.67-4.8,5.44-4.57,2.76.24,4.81,2.65,4.58,5.42-.05.59-1.31,14.63-11.01,21.65-3.57,2.58-7.7,3.88-12.33,3.88Z"></path></svg> 