<?xml version="1.0" encoding="UTF-8"?> <svg xmlns="http://www.w3.org/2000/svg" id="icons" viewBox="0 0 800 800"><defs><style>.cls-1{fill:none;stroke:#65d7e7;stroke-miterlimit:10;stroke-width:6px;}.cls-2{fill:#65d7e7;}.cls-3{fill:#e09585;}.cls-4{fill:#6e16e7;}</style></defs><path class="cls-4" d="m342.84,85.26c-.57-1.67-2.21-3.63-6.85-3.57h-.56s-4.72,1.64-4.72,1.64l3.77-2.47c1.62-1.06,2.07-3.23,1.02-4.85-1.06-1.62-3.23-2.07-4.85-1.02l-26.09,17.05c-.17.11-.32.23-.47.36-2.25-6.06-6.24-16.6-10.72-27.22-12.67-30.06-18.21-35.39-21.96-36.64-12.2-4.07-58.89,19.46-65.97,26.8-3.18,3.3-4.52,9.69,20.01,44,2.47,3.46,4.99,6.89,7.44,10.17-1.19,5.87-.63,7.87.84,9.25,1.17,1.1,2.88,1.39,4.44.75.52-.21,1.05-.53,1.59-.93,6.61,8.61,11.54,14.7,11.63,14.8.8.99,2.04,1.42,3.21,1.26l-18.75,15.76c-1.06.86-3.86,3.16-2.44,6.08.47.97,1.14,1.55,1.94,1.86-3.21,3.16-5.63,5.56-5.08,8.29-5.73,5.15-9.94,8.94-11.62,10.46-1.44,1.29-1.55,3.51-.26,4.94.69.77,1.64,1.16,2.6,1.16.84,0,1.67-.3,2.34-.9,3.55-3.2,7.3-6.57,11.16-10.05.19.03.37.06.56.06.85,0,1.7-.26,2.48-.78l.09-.06,100.64-77.07c.25-.19,6.1-4.63,4.56-9.15Zm-36.25,13.6s-.07.06-.11.09l-.03-.08s.1-.01.14-.01Zm-75.12-51.07c-7.52,17.76-10.69,26.24-11.75,30.57-8.35-13.29-8.96-17.44-8.93-18.44,3.1-2.98,11.31-7.64,20.68-12.13Zm-5.04,40.73c-.9-1.31-1.76-2.57-2.56-3.77,1.35-.35,2.42-1.16,5.61-5.74-1.38,4.06-2.37,7.14-3.05,9.51Zm6.26,8.88c-.05-.07-.1-.13-.15-.2,1.56-1.73,3.61-4.9,6.89-10.5-1.81,5.67-3.22,10.28-4.3,14.06-.81-1.11-1.63-2.23-2.44-3.35Zm11.78,15.8c1.71-2.54,3.6-5.83,5.79-9.95-1.35,6.03-2.19,10.28-2.27,12.6-.06,1.78,1.09,3.39,2.79,3.92,1.7.53,3.56-.14,4.52-1.64.93-1.45,2.83-4.16,5.03-7.17-.69,1.73-1.34,3.36-1.89,4.75-.91,2.29-1.76,4.4-2.43,6.13-.7,1.8.19,3.83,1.99,4.54.42.16.85.24,1.27.24,1.4,0,2.72-.84,3.26-2.23.67-1.71,1.51-3.81,2.41-6.08,1.96-4.91,4.18-10.48,5.85-14.98,2.67-7.21,4.01-10.82.38-12.38-2.92-1.25-4.81.33-12.57,10.6-.37.49-.74.98-1.11,1.48.38-1.67.77-3.34,1.13-4.92.97-4.19,1.88-8.15,2.5-11.21.91-4.57,1.52-7.58-1.32-9-.87-.43-1.85-.5-2.78-.19-1.99.66-2.7,1.97-7.67,11.96-1.87,3.76-5.18,10.41-8.21,15.68,2.27-8.36,6.07-19.95,8.31-26.78,1.55-4.73,2.89-8.82,3.82-11.87.51-1.67.86-2.92,1.06-3.81.67-2.87-.02-4.71-2.05-5.47-3.15-1.18-4.8,1.56-7.31,5.7-1.64,2.72-3.74,6.41-5.96,10.31-.14.25-.29.51-.44.77.51-1.45.99-2.81,1.41-4,1.24-3.52,2.41-6.84,3.22-9.28,1.35-4.06,1.86-5.58.66-7.27l-1.08-1.5h-1.81c-1.88,0-2.54.41-6.23,6.04,1.09-2.67,2.22-5.38,3.34-8.01.75-1.78-.08-3.84-1.86-4.59,0,0,0,0-.01,0,13.99-6.36,29.02-11.72,33-10.4,3.97,1.68,16.24,25.96,29.4,62.5l-41.13,34.58c.35-1.09.16-2.33-.61-3.28-.08-.1-5.4-6.66-12.38-15.78Zm1.32,38.02l27.76-23.34c-8.92,7.95-18.39,16.43-26.95,24.11-.25-.32-.52-.57-.82-.77Zm44.76-29.09c11.95-10.6,20.53-18.09,21.9-19.02,1.62-1.05,2.09-3.22,1.04-4.84-.32-.5-.76-.88-1.25-1.15l19.99-6.92-41.69,31.93Z"></path><path class="cls-2" d="m230.42,486.34c-.16.04-.32.07-.49.09-1.65.17-3.12-1.02-3.3-2.67-.09-.88-.27-2.52,3.74-9.77-6.18,2.55-12.37,4.81-15.42,5.08-3.64.33-8.19-1.39-12.21-2.9-1.9-.72-4.69-1.77-5.86-1.88-1.78,1.35-5.48,8.25-7.29,11.63-1.84,3.42-2.83,5.26-3.69,6.25-.72.83-1.72,1.29-2.82,1.31-2.77.05-5.43-2.67-9.9-7.47-1.01-1.08-2.36-2.54-3.37-3.5-.99,1.34-2.39,3.49-3.41,5.07-4.84,7.48-7.09,10.56-9.89,10.92-3.14.41-6.83-2.19-13.43-7.79-.2-.17-.39-.33-.58-.49-1.77,2.85-4.73,9.44-6.9,15.14-.59,1.55-2.33,2.32-3.87,1.73-1.55-.59-2.32-2.32-1.73-3.87,7.07-18.53,9.97-19.39,11.21-19.76,1.05-.31,2.22-.14,3.11.51.64.46,1.52,1.21,2.65,2.17,1.86,1.57,6.58,5.58,8.59,6.3,1.38-1.26,4.12-5.5,5.82-8.12,3.9-6.03,5.38-8.13,7.52-8.52,2.57-.47,4.62,1.74,8.69,6.12,1.34,1.44,3.35,3.6,4.74,4.8.6-1.05,1.34-2.43,1.99-3.64,5.45-10.17,8.3-14.47,11.76-14.78,2.3-.21,5.17.87,8.8,2.25,3.24,1.22,7.28,2.75,9.55,2.54,2.57-.23,10.49-3.16,20.66-7.64,1.4-.61,3-.25,4,.89,1,1.14,1.14,2.78.34,4.08-4.4,7.15-6.6,11.67-6.81,12.91.05,1.4-.87,2.63-2.19,3Zm2.18-3.21h0s0,0,0,0Zm-76.65,9.41h0s0,0,0,0Zm-.74.17h0Zm41.86-18.55-26.29,7.21"></path><path class="cls-2" d="m238.33,468.46c-.19.05-.38.09-.59.1-5.93.43-15.23-7.89-17.94-10.46-1.2-1.14-1.26-3.04-.12-4.24,1.14-1.2,3.04-1.26,4.24-.12,4.65,4.4,11.14,9,13.38,8.83,1.65-.12,3.09,1.12,3.21,2.77.11,1.45-.84,2.73-2.19,3.11Z"></path><path class="cls-2" d="m239.14,469.07c-.86.24-1.83.09-2.6-.49l-12.19-9.14c-1.33-.99-1.59-2.87-.6-4.2.99-1.33,2.87-1.6,4.2-.6l12.19,9.14c1.33.99,1.59,2.87.6,4.2-.41.55-.98.92-1.6,1.09Z"></path><path class="cls-2" d="m658.07,491.33c-.16-.05-.31-.12-.46-.2-1.46-.78-2.01-2.6-1.23-4.06.42-.78,1.2-2.23,8.59-5.98-6.54-1.37-12.93-2.98-15.6-4.47-3.2-1.78-5.99-5.76-8.46-9.27-1.17-1.66-2.89-4.1-3.79-4.85-2.22.11-9.17,3.74-12.57,5.52-3.44,1.8-5.3,2.75-6.56,3.09-1.06.28-2.15.1-3.07-.5-2.32-1.51-2.99-5.26-3.99-11.74-.22-1.46-.52-3.43-.82-4.79-1.57.55-3.94,1.55-5.67,2.28-8.21,3.46-11.8,4.74-14.32,3.47-2.82-1.43-4.42-5.65-6.73-13.99-.07-.25-.14-.5-.2-.73-3.07,1.36-9.22,5.15-14.22,8.64-1.36.95-3.23.61-4.18-.74-.95-1.36-.61-3.23.74-4.18,16.27-11.34,19.15-10.43,20.39-10.04,1.04.33,1.91,1.13,2.29,2.18.27.74.58,1.86.97,3.28.65,2.35,2.3,8.31,3.56,10.04,1.85-.27,6.5-2.23,9.38-3.44,6.62-2.79,9.02-3.7,11.01-2.82,2.39,1.06,2.84,4.03,3.75,9.95.3,1.95.75,4.86,1.22,6.64,1.08-.53,2.47-1.26,3.69-1.89,10.22-5.34,15-7.3,18.04-5.61,2.02,1.12,3.78,3.63,6.01,6.8,1.99,2.84,4.48,6.37,6.47,7.47,2.25,1.25,10.45,3.28,21.38,5.3,1.5.28,2.62,1.48,2.81,2.99.18,1.51-.63,2.94-2.01,3.57-7.66,3.44-12.02,5.94-12.9,6.85-.74,1.18-2.2,1.69-3.5,1.25Zm3.6-1.43h0s0,0,0,0Zm-68.68-35.31h0s0,0,0,0Zm-.7-.28h0Zm45.05,8.2-25.79-8.82"></path><path class="cls-2" d="m674.67,480.99c-.18-.06-.37-.14-.54-.25-5.15-2.98-8.16-15.09-8.96-18.74-.36-1.62.67-3.22,2.29-3.57,1.62-.36,3.22.67,3.57,2.29,1.38,6.25,4.15,13.7,6.1,14.83,1.43.83,1.93,2.66,1.1,4.1-.73,1.26-2.23,1.79-3.56,1.34Z"></path><path class="cls-2" d="m675,481.95c-.85-.29-1.56-.95-1.88-1.87l-4.94-14.41c-.54-1.57.3-3.27,1.86-3.81,1.57-.54,3.27.3,3.81,1.86l4.94,14.41c.54,1.57-.3,3.27-1.86,3.81-.65.22-1.33.21-1.93,0Z"></path><path class="cls-3" d="m580.27,401.71c-1.76-.17-3.26-1.46-3.63-3.25l-2.95-14.08c-.47-2.22,1-3.73,3.22-4.19,2.22-.47,4.36.28,4.83,2.51l2,10.62c.07.33.38.55.72.51l15.33-1.56c.39-.05.69-.36.72-.75l.52-9.43c.16-2.27,1.92-3.06,4.19-2.9,2.26.16,4.17,1.21,4.01,3.47l-.87,12.44c-.14,1.97-1.66,3.56-3.62,3.8l-23.59,2.81c-.3.04-.59.04-.88.01Z"></path><path class="cls-3" d="m664.01,344.58c-2.72-13.17-10.08-25.65-20.96-33.74-.36-.26-.73-.52-1.11-.78.79-1.24.96-3.05.06-4.4-2.37-3.57-5.65-2.13-9.4-.54-32.3,13.73-63.82,40.25-77.91,58.27l5.59,5.29c28.79-34.31,61.37-47.74,74.22-54.08.36.72.92,1.42,1.74,2.02,5.5,4.07,11.45,9.86,15.53,17.4,13.92,25.74,1.08,46.1,1.08,46.1-26.18,1.17-76.33-.59-89.08-1.07.03,3.34-.21,8.19-.21,8.19,0,0,32.42,1.22,48.07,1.71,14.39.42,28.84.4,43.23-.12,1.59-.04,3.11-.98,3.9-2.47l.1-.18s.19-.34.19-.34c3.27-6.21,5.11-13.1,5.94-20.03.81-7.07.48-14.28-.97-21.24Z"></path><path class="cls-3" d="m558.7,391.1c-1.86-.18-4.09-1.02-6.46-3.24-2.2-2.06-3.82-4.63-4.58-5.98-3.92-6.91-5.65-16.12-.68-21.11,1.54-1.54,4.01-1.52,5.58-.01,1.31,1.27,1.45,3.53.01,5.58-.52.74-.89,2.14-.68,4.03.26,2.35,1.04,5.52,2.4,8.04,1.73,3.21,4.24,7.2,6.06,6.48,1.18-.46,1.24-3.65-.77-8.95-.5-1.31-2.15-4.28-4.28-6.22-1.7-1.55-2.38-3.54-1.29-5.43,1.09-1.89,3.25-2.4,5.14-1.32,4.37,2.52,6.29,7.17,7.44,9.62.49,1.03,1.75,4.58,1.57,7.59-.39,6.57-3.38,9.43-5.46,10.31-.93.39-2.31.77-3.99.61Z"></path><path class="cls-3" d="m601.41,384.5c-.33-.03-.63-.08-.9-.16-1.29-.36-1.98-1.2-2.11-2.59-.08-.88.11-1.57.58-2.1,1.16-1.31,3.89-1.49,7.63-1.59.25,0,.51-.02.79-.03,2.77-.09,7.39-.25,12.72,1.04,1.81.08,4.17.23,6.67.39,3.97.25,8.46.53,11.99.63,2.41.06,4.8.32,7.21.44,2.07.1,4.67-.24,6.55.83,1.19.68,2.33,2.64.65,3.28-.73.28-1.51.44-2.27.58-3.26.6-6.63.65-9.93.72-3.12.06-6.07.02-9.85-.13-.21-.01-.42-.02-.62-.03-.92-.04-1.87-.08-2.78-.11-1.83-.06-3.71-.13-5.56-.27-2.12-.16-17.41-.78-20.21-.85-.19,0-.37-.02-.55-.03Z"></path><path class="cls-3" d="m589.45,384.33c-1.99-.19-3.25-1.71-3.44-3.77-.4-4.46-2.65-13.67-8.28-21.83-1.71-2.48-1.23-4.9.45-6.26,1.53-1.25,4.44-.98,6.5,1.76,4.62,6.14,7.68,15.36,8.83,25.79.25,2.32-.89,4.06-3.21,4.31-.29.03-.57.03-.85,0Z"></path><path class="cls-3" d="m683.02,310.32c-1.76,1.61-3.67,3.08-5.7,4.38-1.25.79-3.17,1.36-4.51,2-2.15,1.03-1.74,1.3-7.03,2.59-2.04.5-3.04-.76-3.38-1.35-.7-1.25.48-3.07,1.81-3.57,1.22-.48,3.39-1.48,4.51-2.1,1.15-.64,1.52-1.26,2.61-2.06.75-.55,1.95-1.19,2.68-1.79,1.31-1.09,2.57-2.23,3.77-3.36,1.72-1.61,3.29-2.04,5.04-.68,1.93,1.48,2.02,4.35.19,5.94h0Z"></path><path class="cls-3" d="m693.15,361.62c-2.16-.99-4.43-1.82-6.77-2.43-1.43-.37-3.43-.33-4.9-.53-2.36-.32-2.05-.71-7.48-.32-2.1.15-2.67,1.65-2.8,2.32-.28,1.4,1.4,2.78,2.82,2.85,1.31.08,3.68.37,4.93.62,1.29.26,1.83.74,3.11,1.17.89.3,2.22.54,3.1.89,1.58.63,3.13,1.34,4.62,2.05,2.13,1.01,3.76.94,5.01-.89,1.38-2,.59-4.76-1.63-5.72h0Z"></path><path class="cls-3" d="m690.39,331.31c-2.38.08-4.78.36-7.14.86-1.45.31-3.22,1.24-4.62,1.72-.96.33-1.94.25-2.87.55-1.14.36-2.25.88-3.36,1.32-.8.32-2.07.75-2.38,1.64-.21.63-.03,1.76.17,2.37.52,1.56,1.35,1.59,2.81,1.5,1.54-.09,3.08-.25,4.61-.46,2.19-.31,4.37-.74,6.51-1.3,2.12-.55,4-.73,6.2-.78,2.36-.05,3.78-.85,4.08-3.04.34-2.41-1.61-4.52-4.02-4.38Z"></path><path class="cls-1" d="m28.92,380.08s11.75-108.39,95.17-130.99c83.41-22.6,233.94,29.81,317.44-72.51,83.5-102.32-23.84-95.38-7.15-52.07,11.87,30.81,72.61,26.88,93.43,18.72,20.81-8.16,129.76-48.79,91.2-122.05"></path></svg> 