<?xml version="1.0" encoding="UTF-8"?> <svg xmlns="http://www.w3.org/2000/svg" id="icons" viewBox="0 0 800 800"><defs><style>.cls-1{fill:#65d7e7;}.cls-2{fill:#e94f43;}.cls-3{fill:#a0e6b4;}.cls-4{fill:#b08fe3;}</style></defs><path class="cls-3" d="m68.7,439.52c-.63.13-1.31.06-1.93-.25-17.47-8.59-35.7-39.02-36.47-40.31-.85-1.42-.38-3.26,1.05-4.11,1.42-.85,3.26-.38,4.11,1.04.18.3,18.09,30.19,33.96,38,1.49.73,2.1,2.53,1.37,4.02-.43.87-1.21,1.43-2.09,1.61Z"></path><path class="cls-3" d="m67.56,433.94c-.63.13-1.31.06-1.93-.25-17.47-8.59-35.7-39.02-36.47-40.31-.85-1.42-.38-3.26,1.05-4.11,1.42-.85,3.26-.38,4.11,1.04.18.3,18.09,30.19,33.96,38,1.49.73,2.1,2.53,1.37,4.02-.43.87-1.21,1.43-2.09,1.61Z"></path><path class="cls-3" d="m29.32,422.53c-1.11.23-2.3-.19-3.02-1.16-.98-1.33-.7-3.21.63-4.2.3-.22,29.81-22.14,35.13-38.92.5-1.58,2.19-2.45,3.77-1.95,1.58.5,2.45,2.19,1.95,3.77-5.91,18.64-36.01,41-37.29,41.94-.36.27-.76.44-1.17.52Z"></path><path class="cls-3" d="m26.74,424.73c-1.06.22-2.2-.14-2.93-1.04-1.05-1.28-.86-3.17.42-4.22.27-.22,27.15-22.39,32.5-39.25.5-1.58,2.19-2.45,3.77-1.95,1.58.5,2.45,2.19,1.95,3.77-5.89,18.56-33.25,41.13-34.41,42.08-.39.32-.83.52-1.29.62Z"></path><path class="cls-3" d="m84.06,430.55c-.63.13-1.31.06-1.93-.25-17.46-8.59-39.06-43.93-39.97-45.43-.86-1.42-.41-3.26,1.01-4.12,1.41-.86,3.26-.41,4.12,1.01.21.35,21.6,35.35,37.49,43.16,1.49.73,2.1,2.53,1.37,4.02-.43.87-1.21,1.43-2.09,1.61Z"></path><path class="cls-3" d="m35.39,446.37c-1.06.22-2.21-.15-2.94-1.05-1.04-1.29-.84-3.18.44-4.22,5.23-4.23,15.09-16.8,23.19-27.65-.17-1.02.29-1.82.89-2.86.62-1.07.69-1.17.86-1.37l.75-.94,14.86-22.43c.91-1.38,2.78-1.76,4.16-.84,1.38.92,1.76,2.78.84,4.16l-2.87,4.33.99.64-1.01,2.35c-.12.27-.23.47-.96,1.57-.22.33-.45.68-.7,1l.02.02c-1.09,1.56-26.82,38.25-37.26,46.7-.39.31-.83.51-1.28.61Z"></path><path class="cls-4" d="m783.03,426.55c-.94-1.33-2.52-1.8-4.11-1.46-2.07.45-50.9,10.92-69.73,16.43-7.21,2.11-13.19,3.77-18.46,5.23-14.97,4.16-22.46,6.08-30.77,11.06-.73.44-2.09,1.61-2.35,2.16-1.76-1.32-4.28-1.07-5.73.63-1.52,1.77-1.32,4.44.45,5.96,7.05,6.06,21.4,11.48,26.78,13.38l9.25,29.34c.54,1.7,2.09,2.88,3.87,2.95.05,0,.11,0,.16,0,.88.06,5.56-1.09,9.01-2.98,4.84-2.66,9.47-6.94,13.78-12.73l16.96,7.96c1.03.4,1.64.66,2.64.62,1.35-.07,2.82-.92,3.58-2.15l44.63-72.14c.86-1.38.98-2.94.04-4.27Zm-36.92,48.63c-.18.25-.36.5-.54.74-1.33,1.82-2.58,3.54-3.51,4.88-3.55,3.41-5.67,7.01-6.93,9.15-.13.22-.25.42-.36.61-1.12,1.87-2.01,3.44-2.38,4.73l-23.66-10.97,50.45-30.12-13.07,20.98Zm-59.59.2c-.41-1.3-1.42-2.32-2.71-2.74-3.73-1.23-12.46-4.47-19.31-8.14,7.02-3.98,14.4-6.03,28.4-9.92,5.3-1.47,11.31-3.14,18.57-5.27,4-1.17,9.45-2.59,15.56-4.11-2.04,1.13-4.13,2.28-6.22,3.45-31.1,17.3-33.39,19.78-34.37,20.84-1.44,1.55-1.35,3.98.21,5.42.74.68,1.67,1.02,2.6,1.02,1.03,0,2.35-.89,3.41-1.66.74-.54,4.27-3.57,32.05-19.02,15.02-8.35,30.21-16.53,30.4-16.69,6.08-1.39,12.2-3.94,16.59-4.92l-3.58,6.22-68.46,41.37c-.79.53-1.58,1.19-2.15,2.63l-4.65,11.63-6.34-20.09Zm11.56,27.21l5.28-11.74,5.06,2.47c-1.9,3.11-6.16,7.8-10.35,9.27Z"></path><path class="cls-4" d="m680.68,509.81c-1.86.33-3.78.63-5.71.85-.96.11-1.96.06-2.92.02-1.07-.04-2.12-.16-3.22-.12-.94.04-1.9.05-2.62.67-1.1.94-.9,2.07-.89,3.34,0,.73.07,1.49.42,2.13.32.58.84.89,1.47,1.02.31.07.63.07.93.13.34.07.6.26.93.36.36.12.74.18,1.11.24,1.22.2,2.49.35,3.73.35,2.74.04,5.49-.18,8.18-.61,2.74-.38,4.55-3.21,3.73-5.85-.73-2.42-2.48-3-5.13-2.54Z"></path><path class="cls-4" d="m655.97,507.22c-1.86-.29-3.78-.62-5.68-1.03-.94-.21-1.87-.58-2.77-.92-1-.39-1.94-.89-3-1.21-.91-.27-1.83-.5-2.7-.15-1.34.54-1.52,1.67-1.92,2.88-.23.7-.41,1.43-.29,2.15.11.65.51,1.11,1.06,1.44.27.16.57.26.84.42.3.17.48.43.76.64.3.23.64.41.97.59,1.09.59,2.24,1.13,3.42,1.53,2.58.92,5.25,1.6,7.94,2.05,2.72.52,5.34-1.57,5.41-4.34.09-2.53-1.38-3.64-4.04-4.05Z"></path><path class="cls-4" d="m634.87,498.93c-1.69-.83-3.43-1.71-5.12-2.67-.84-.48-1.61-1.12-2.37-1.7-2.02-1.53-3.16-1.79-4.1-1.47-.81.27-1.54.77-2.05,1.45-.84,1.14-1.64,3.07-.7,4.36.22.31.49.58.76.85.87.88,1.81,1.75,2.81,2.48,2.19,1.65,4.54,3.09,6.97,4.32,2.44,1.31,5.56.08,6.46-2.54.84-2.39-.23-3.89-2.66-5.07Z"></path><path class="cls-1" d="m152.21,480.04c-1.72-2.46-3.76-5.62-5.58-8.52l-3.82-6.33c-2.11-5.8-4.46-9.46-5.38-10.77-2.21-3.15-3.95-4.72-5.48-4.94-.74-.11-1.4.18-2.11.63-.14.09-7.95,4.87-7.95,4.87l-3.29-5.53c-.56-.94-1.47-1.61-2.52-1.87-1.06-.26-2.18-.08-3.1.49-7.11,4.41-14.33,10.61-21.44,18.41-5.72,6.27-9.9,11.99-11.88,14.85-9.76.06-20.8,2.87-26.52,4.54-9.12,2.66-16.67,5.86-20.19,8.56-1.78,1.36-2.04,3.85-.75,5.69,1.67,2.38,4.31,1.55,6,.52.17.63.76,2.48,1.13,3.41l-9.88,5.87c-1.9,1.13-1.89,3.04-.86,4.71l35.16,59.16c.92,1.54,2.75,2.29,4.48,1.82,19.08-5.15,52.53-19.81,54.86-20.84,1.75-.7,2.74-1.52,3.93-2.39.99-.71,5.74-4.24,13.23-10.37,13.61-11.13,23.37-20.85,29.16-27.04,1.22-1.31,1.43-3.26.5-4.8l-14.04-23.29c-.04-.09-.08-.17-.13-.26-1.16-2.39-2.36-4.87-3.55-6.57Zm-107.28,17.22c2.84-1.16,6.37-2.41,10.48-3.61,9.04-2.64,18.39-4.43,24.79-4.47,2.63-.02,4.6-1.06,6.11-3.22,3.13-4.5,13.83-19.03,27.5-28.71l30.58,51.45c-4.94,5.08-16.74,17.82-24.09,30.49l-10.99-18.5c1.73-2.6,10.86-16.05,17.26-21.65,1.83-1.6,2.52-3.28,1.47-4.93-1.12-1.76-3.37-1.98-5.1-.83-5.69,3.8-12.42,13.24-17.42,19.99-.11.15-.22.3-.33.45l-4.5-7.57c.88-1.16,1.8-2.79,2.89-4.3,3.89-5.39,9.61-13.22,13.56-16.77,1.6-1.44,2.18-3.09,1.22-4.63-1.1-1.77-3.5-2.21-5.23-1.05-5.1,3.4-10.85,11.7-15.56,18.22-.37.51-.83,1.27-1.18,1.75l-5.52-9.14c-1.05-1.76-2.88-2.73-4.91-1.59-1.79,1-2.27,3.29-1,5.33l5.48,9.48c-.07.01-.14.02-.21.03-8.1,1.18-20.45,2.76-26.32,5.85-1.84.97-2.55,3.25-1.58,5.1.97,1.84,2.73,1.87,4.67,1.13,6.77-2.6,17.65-3.64,24.31-4.61,1.14-.17,2.22-.32,3.13-.46.05,0,.11-.02.16-.03l4.42,7.43c-7.98,1.3-21.07,3.25-27.63,6.69-1.84.97-2.56,3.25-1.59,5.09.97,1.85,3.19,2.24,5.08,1.36,5.75-2.68,18.79-4.52,25.78-5.66.96-.16,1.8-.29,2.55-.42l11.99,20.17c-8.55.2-26.78,1.1-39.93,5.09-5.89-9.21-25.57-39.82-29.41-51.06-.24-.69-.44-1.22-.92-1.92Zm-7.22,17.04l5.04-3c8.93,17.49,26.5,44.6,27.4,45.99,1.03,1.59,2.79,2.28,4.8,1.6,8.16-2.79,20.52-4.5,30.06-5.14-10.64,4.38-25.14,10.08-35.96,13.3l-31.34-52.74Zm90.96,26.69c8.89-14.24,23.32-28.44,23.64-28.76,1.44-1.48,1.61-3.36.65-4.97l-26.99-45.41,4.04-2.4,31.49,52.23c-12.2,12.71-25.12,23.33-32.83,29.32Z"></path><path class="cls-1" d="m96.65,454.55c.75-1.07,2.23-2.95,3.1-3.89.89-.97,1.58-1.18,2.61-2.05.71-.6,1.62-1.62,2.37-2.18,1.36-1.02,2.77-1.98,4.15-2.88,1.97-1.29,2.76-2.72,1.84-4.74-.99-2.22-3.76-2.98-5.73-1.58-1.97,1.33-3.86,2.84-5.59,4.52-1.07,1.03-2.07,2.76-3,3.91-1.5,1.84-1.68,1.38-4.16,6.22-.96,1.87.03,3.14.52,3.6,1.05.97,3.1.25,3.9-.92Z"></path><path class="cls-2" d="m622.53,275.3c-3.22-3.85-9.04-5.37-14.5-3.79l-68.93,19.96c-3.18-18.21-13.87-38.79-35.88-38.89-24.92-.11-37.59,13.11-43.08,21.42-.56-.74-1.46-1.27-2.54-1.41-2.09-.27-4.07,1.01-4.43,2.86-1.83,9.38-1.24,21.69,1.82,33.51-.18-.01-.35-.03-.53-.02-7.96.33-22.55,3.09-32.8,5.22-.81-17.56-8.91-42.13-36.42-44.07-26.16-1.84-39.6,14.47-45.73,25.81-.24-.08-.49-.14-.76-.18-2.08-.29-4.08.97-4.46,2.82-1.81,8.78-1.84,17.63-.28,25.95-6.62,1.08-22.28,3.66-37.96,6.46-43.13,7.69-44.31,9.33-45.55,11.07-2.97,4.14-4.13,18.23-1.79,21.55.79,1.11,2.2,1.66,3.6,1.52.57-.06,1.15-.23,1.67-.53,1.72-.98,2.31-2.93,1.39-4.47-.73-2.21-.03-11.13,1.27-14.01,6.23-2.47,44.18-9.36,78.97-14.98,2.69,8.93,7.31,17,13.67,23.31,9.81,9.74,22.6,14.42,36.99,13.54.64-.04,1.27-.09,1.9-.15,8.87-.89,16.18-4.2,21.75-9.85,12.73-12.91,11.81-33.67,11.64-36.33.01-.16.02-.34.03-.51,10.02-2.1,25.29-5.06,33.03-5.39.81-.03,1.56-.28,2.17-.69,2.99,8.83,7.43,17.05,13.37,23.11,7.4,7.57,16.36,11.27,26.61,11,1.64-.04,3.23-.14,4.79-.3,14.88-1.5,26.03-8.17,32.41-19.47,4-7.08,6.14-16.07,6.18-25.98,0-1.62-.06-3.32-.2-5.08l70.3-20.36c2.3-.66,4.8-.06,6.08,1.47,1.91,2.28,2.73,4.67,2.17,5.21-1.45,1.39-1.38,3.53.16,4.78,1.54,1.25,3.96,1.13,5.42-.26,3.49-3.35,2.92-8.53-1.54-13.86Zm-218.35,78.27c-4.6,4.65-10.57,7.15-18.24,7.61-11.98.73-22.65-3.2-30.88-11.36-9.88-9.8-15.07-24.44-14.5-39.83.99-.46,1.76-1.28,2.02-2.31.02-.08,2.25-8.46,8.65-16.51,8.32-10.47,19.49-15.29,33.19-14.32,13.39.95,22.42,8.52,26.82,22.53,1.92,6.11,2.53,12.19,2.69,16.43-2.11.46-3.48.78-3.73.83-2.06.47-3.34,2.32-2.86,4.13.44,1.65,2.2,2.7,4.07,2.51.18-.02.36-.05.54-.09.05-.01.77-.17,1.98-.44.14,3.72.21,20.74-9.75,30.82Zm128.3-50.04c-.06,14.16-4.82,38.02-35.75,38.84-7.88.21-14.85-2.73-20.72-8.73-11.93-12.2-16.53-33.52-16.14-48.73,1.76.13,3.48-.85,4.05-2.42.34-.95,8.8-23.26,39.07-23.12,9.95.04,17.74,5.6,23.15,16.52,4.73,9.53,6.37,20.85,6.34,27.65Z"></path></svg> 