<?xml version="1.0" encoding="UTF-8"?> <svg xmlns="http://www.w3.org/2000/svg" id="icons" viewBox="0 0 800 800"><defs><style>.cls-1{fill:#65d7e7;}.cls-2{fill:#a0e6b4;}.cls-3{fill:#6e16e7;}</style></defs><path class="cls-1" d="m699.53,579.5c9.6-5.45,19.52-7.06,24.59-5.79,8.74,2.19,35.32,8.87,34.38,41.24-.18,6.2-2.23,26.99-21.16,34.29-2.34.9-8.07,2.71-10.7-.03-1.34-1.39-1.29-3.61.1-4.95,1.1-1.06,2.73-1.25,4.02-.59,1.35,0,5.91-.96,10.54-4.83,4.44-3.71,9.82-10.9,10.2-24.1.69-23.7-15.18-30.75-29.09-34.24-3.6-.9-17.19,1.15-27.94,11.38-11.61,11.04-15.58,27.75-11.5,48.33,9.91,49.9,51.64,44.48,53.42,44.22,1.91-.28,3.69,1.05,3.97,2.96.28,1.91-1.03,3.68-2.95,3.97-.51.08-12.73,1.81-26.43-3.48-22.98-8.85-31.64-30.07-34.87-46.31-5.78-29.12,4.17-45.85,13.54-54.77,3.1-2.95,6.47-5.37,9.88-7.3Z"></path><path class="cls-1" d="m742.41,562.98c3.26-1.85,7.46.53,9.12,1.64,1.6,1.08,2.03,3.25.96,4.86-1.08,1.61-3.25,2.03-4.86.96-.74-.49-1.78-.98-2.32-1.11-1.57.56-3.36-.07-4.21-1.57-.95-1.68-.36-3.82,1.32-4.77Zm3.45,6.09h0s0,0,0,0Z"></path><path class="cls-1" d="m759.26,580.57c.28-.16.58-.28.9-.36,1.88-.46,3.77.7,4.23,2.58.46,1.9,3.12,8.56,4.63,11.96.78,1.77-.02,3.83-1.78,4.62-1.77.78-3.83-.02-4.62-1.78-1.2-2.71-4.35-10.34-5.03-13.15-.38-1.55.35-3.12,1.67-3.87Z"></path><path class="cls-3" d="m409.98,172.01c-.28,0-.56-.03-.84-.11-1.81-.47-2.9-2.31-2.43-4.11.61-2.36,1.94-4.32,3.87-5.69,1.71-1.22,3.82-1.87,5.94-1.86,1.93.02,3.74.58,5.23,1.63,1.69,1.19,2.84,2.9,3.33,4.96.43,1.81-.68,3.64-2.5,4.07-1.82.43-3.64-.68-4.07-2.5-.29-1.2-1.41-1.39-2.05-1.4,0,0-.02,0-.03,0-1.18,0-2.7.65-3.17,2.48-.39,1.52-1.77,2.54-3.27,2.54Z"></path><path class="cls-3" d="m438.55,154.4l20.82,4.21c4.82,26.95-27.57,20.16-20.82-4.21Z"></path><path class="cls-3" d="m434.01,219.72c-10.19,0-19.99-4.15-27.65-11.71-4.28-4.23-7.66-9.27-10.05-14.98-2.46-5.9-3.71-12.18-3.71-18.67,0-6.13,1.21-12.17,3.59-17.93,2.3-5.57,5.58-10.61,9.75-14.97,4.21-4.41,9.08-7.88,14.49-10.33,5.68-2.57,11.67-3.87,17.82-3.87,2.27,0,4.11,1.84,4.11,4.11,0,.82-.24,1.58-.65,2.22,2.89.27,5.72.91,8.47,1.93,4.43,1.63,8.55,4.2,12.25,7.62,4.63,4.28,8.45,9.81,11.06,15.98,2.56,6.06,3.84,12.45,3.69,18.49-.14,6.09-1.4,11.85-3.75,17.12-2.24,5.04-5.4,9.51-9.41,13.29-7.85,7.4-18.35,11.55-29.55,11.7-.16,0-.32,0-.48,0Zm-2.35-83.6c-2.68.52-5.3,1.36-7.84,2.51-4.44,2.01-8.45,4.87-11.93,8.51-3.46,3.63-6.19,7.81-8.1,12.44-1.97,4.76-2.97,9.73-2.97,14.78,0,10.57,4.12,20.7,11.31,27.8,6.2,6.12,14.1,9.44,22.25,9.33,9.14-.12,17.66-3.47,24.01-9.46,3.21-3.02,5.74-6.6,7.53-10.64,1.9-4.28,2.92-8.98,3.04-13.98.24-10.12-4.52-21.21-12.12-28.24-4.22-3.9-11.28-8.35-20.98-7.36-2.26.23-4.28-1.42-4.51-3.67-.07-.71.04-1.4.3-2.02Z"></path><path class="cls-3" d="m429.45,200.5c-2.57,0-5.02-.78-7.21-2.33-3.79-2.67-6.54-7.56-7-12.47-.14-1.46.88-2.78,2.32-3.04l22.46-3.89c1.44-.25,2.83.64,3.2,2.05.89,3.36.94,8.48-1.58,12.78-1.89,3.22-4.94,5.45-8.81,6.44-1.14.29-2.28.44-3.38.44Zm-8.05-12.78c.71,2.15,2.08,4.44,4.08,5.85,1.77,1.25,3.78,1.6,5.96,1.04,2.42-.62,4.22-1.91,5.35-3.84,1.1-1.87,1.43-4.06,1.36-5.95l-16.74,2.9Z"></path><path class="cls-3" d="m469.08,167.27c-.3,0-.61-.03-.92-.11l-59.3-13.8c-2.18-.51-3.54-2.69-3.03-4.87.51-2.18,2.69-3.54,4.87-3.03l59.3,13.8c2.18.51,3.54,2.69,3.03,4.87-.44,1.87-2.1,3.14-3.95,3.14Z"></path><path class="cls-3" d="m481.45,141.84c-.16,0-.32.02-.47.05-.99.15-1.96.52-2.83.97-4.14,2.14-7.93,4.5-9.56,6.43-1.14,1.48-1.43,2.93-.58,4.58s3.04,3.11,4.55,2.03c3.93-2.75,8.2-4.96,12.04-7.82,1.15-.86.24-3.03-.49-4.4-.39-.73-.97-1.39-1.66-1.66-.33-.13-.67-.17-1.01-.16Z"></path><path class="cls-3" d="m465.2,127.37c0,.14,0,.28-.01.42-.07.89-.36,1.78-.71,2.58-1.7,3.82-3.63,7.33-5.29,8.87-1.29,1.09-2.59,1.41-4.14.72s-3.02-2.6-2.13-4c2.27-3.65,4.03-7.59,6.41-11.16.72-1.07,2.76-.35,4.05.25.69.32,1.33.81,1.62,1.42.14.29.2.6.21.9Z"></path><path class="cls-3" d="m402.98,122.85c.15.05.3.11.45.18.93.43,1.8,1.07,2.54,1.75,3.54,3.27,6.69,6.64,7.81,8.98.76,1.76.69,3.24-.55,4.58-1.3,1.41-3.74,2.11-4.95.63-3.19-3.79-6.84-7.16-9.91-11.04-.92-1.16.5-3,1.55-4.1.56-.59,1.29-1.06,2.03-1.12.36-.03.7.03,1.03.14Z"></path><path class="cls-3" d="m492.68,168.74c-.14-.08-.28-.14-.42-.2-.92-.38-1.95-.58-2.93-.68-4.68-.43-9.17-.52-11.59.15-1.77.57-2.79,1.54-2.94,3.23s.92,3.92,2.79,3.85c4.82-.14,9.64.31,14.45.03,1.44-.08,1.83-2.22,1.94-3.64.06-.76-.08-1.56-.52-2.11-.21-.27-.48-.47-.77-.63Z"></path><path class="cls-3" d="m394.71,159.03c-.12-.1-.24-.18-.37-.27-.81-.53-1.76-.91-2.68-1.18-4.4-1.28-8.68-2.2-11.12-2.03-1.79.2-2.94.91-3.39,2.47s.19,3.83,1.98,4.11c4.64.77,9.17,2.09,13.82,2.72,1.39.19,2.15-1.73,2.5-3.03.19-.69.2-1.47-.12-2.07-.16-.29-.38-.53-.63-.73Z"></path><path class="cls-3" d="m396.13,191.19c-.16,0-.33,0-.49.02-1.04.09-2.09.41-3.05.8-4.56,1.86-8.8,3.94-10.73,5.72-1.38,1.37-1.87,2.73-1.21,4.35.69,1.69,2.72,3.11,4.42,2.14,4.43-2.45,9.13-4.37,13.48-6.93,1.3-.77.66-2.89.09-4.23-.3-.71-.81-1.37-1.49-1.66-.33-.14-.67-.19-1.02-.2Z"></path><path class="cls-3" d="m412.39,213.14c-.12.1-.22.2-.33.31-.66.69-1.18,1.55-1.58,2.4-1.93,4.06-3.47,8.08-3.62,10.5-.04,1.79.54,3.05,2.09,3.78s3.99.53,4.52-1.17c1.43-4.39,3.42-8.58,4.72-13.01.39-1.33-1.49-2.42-2.79-3.02-.69-.32-1.49-.47-2.16-.27-.32.1-.6.27-.84.48Z"></path><path class="cls-3" d="m468.53,202.89c.09.13.19.24.3.36.67.72,1.51,1.29,2.36,1.73,4.05,2.11,8.07,3.81,10.55,3.99,1.84.05,3.18-.57,4.05-2.24s.85-4.32-.87-4.91c-4.42-1.58-8.6-3.75-13.07-5.19-1.34-.43-2.61,1.6-3.32,3.01-.38.75-.59,1.61-.44,2.33.08.35.24.65.43.92Z"></path><path class="cls-3" d="m449.23,216.51c0,.14,0,.28.02.41.08.87.37,1.74.72,2.52,1.7,3.72,3.61,7.13,5.25,8.63,1.26,1.06,2.53,1.36,4.03.68,1.57-.72,2.89-2.55,2.01-3.92-2.25-3.55-4-7.38-6.36-10.86-.71-1.04-2.68-.33-3.92.27-.66.31-1.28.8-1.55,1.39-.13.29-.18.59-.19.88Z"></path><path class="cls-1" d="m661.22,442c12.4,0,22.49-8.36,22.49-18.64s-10.09-18.64-22.49-18.64c-16.1,0-16.1,14.03-16.1,18.64s0,18.64,16.1,18.64Zm0-31.27c8.41,0,15.25,5.67,15.25,12.64s-6.84,12.64-15.25,12.64c-5.47,0-8.86-2.11-8.86-12.64s3.39-12.64,8.86-12.64Z"></path><path class="cls-2" d="m699.37,391.14c12.4,0,22.49-8.36,22.49-18.64s-10.09-18.64-22.49-18.64c-16.1,0-16.1,14.03-16.1,18.64s0,18.64,16.1,18.64Zm0-31.27c8.41,0,15.25,5.67,15.25,12.64s-6.84,12.64-15.25,12.64c-5.47,0-8.86-2.11-8.86-12.64s3.39-12.64,8.86-12.64Z"></path><path class="cls-1" d="m123.38,190.01c12.4,0,22.49-8.36,22.49-18.64s-10.09-18.64-22.49-18.64c-16.1,0-16.1,14.03-16.1,18.64s0,18.64,16.1,18.64Zm0-31.27c8.41,0,15.25,5.67,15.25,12.64s-6.84,12.64-15.25,12.64c-5.47,0-8.86-2.11-8.86-12.64s3.39-12.64,8.86-12.64Z"></path><path class="cls-3" d="m150,242.24c12.4,0,22.49-8.36,22.49-18.64s-10.09-18.64-22.49-18.64c-16.1,0-16.1,14.03-16.1,18.64s0,18.64,16.1,18.64Zm0-31.27c8.41,0,15.25,5.67,15.25,12.64s-6.84,12.64-15.25,12.64c-5.47,0-8.86-2.11-8.86-12.64s3.39-12.64,8.86-12.64Z"></path><path class="cls-3" d="m414.14,418.31c-.51.07-1.05.07-1.58-.03-2.73-.48-4.55-3.07-4.09-5.8.24-1.48.47-6.21-1.58-8.43-1.11-1.2-3.07-1.69-5.85-1.46-6.81.54-11.04,5.26-15.13,9.79-3.46,3.84-6.72,7.47-11.46,8.44-6.03,1.24-12.57-.66-17.52-5.09-5.25-4.71-7.87-11.63-7.19-18.99.26-2.77,2.72-4.8,5.47-4.54,2.76.26,4.8,2.71,4.54,5.47-.53,5.69,2.21,9.06,3.88,10.56,2.54,2.28,5.89,3.3,8.78,2.73,1.5-.31,3.79-2.86,6.01-5.32,4.63-5.14,10.98-12.19,21.76-13.09,7.54-.63,11.84,2.21,14.12,4.71,5.72,6.26,4.24,15.84,4.05,16.91-.39,2.2-2.14,3.81-4.24,4.11Z"></path><path class="cls-3" d="m373.33,428.18l-.16.02c-7.4,1.01-14.06-.72-18.26-4.74-2.67-2.56-5.7-7.34-4.94-15.52.26-2.76,2.72-4.8,5.47-4.54,2.76.26,4.8,2.71,4.54,5.47-.31,3.36.32,5.82,1.88,7.32,1.94,1.86,5.66,2.62,9.94,2.04,3.81-.57,5.05-2.27,7.31-5.46,2.68-3.78,6.35-8.96,15.32-10.41.15-.02.31-.05.46-.07,13.35-1.92,21.88,7.25,22.24,7.65,1.87,2.05,1.72,5.23-.33,7.1-2.05,1.86-5.2,1.73-7.08-.3-.26-.28-5.47-5.64-13.42-4.49-.09.01-.18.03-.28.04-4.8.77-6.36,2.97-8.72,6.3-2.53,3.57-5.98,8.44-14,9.59Z"></path><path class="cls-3" d="m485.5,420.96c-1.45.21-2.97.25-4.56.09-7.74-.8-11.14-6.85-13.88-11.7-3.06-5.43-5.21-8.78-10.74-9.35-6.4-.64-16.4,8.81-20.26,13.49-1.77,2.15-4.93,2.45-7.07.69-2.14-1.76-2.46-4.92-.7-7.07,1.55-1.9,15.59-18.49,29.06-17.11,10.99,1.12,15.31,8.81,18.47,14.42,2.55,4.53,3.82,6.39,6.15,6.64,7.94.84,14.11-10.29,14.17-10.4,1.3-2.45,4.35-3.38,6.79-2.08,2.45,1.3,3.39,4.32,2.1,6.77-.33.63-7.44,13.89-19.54,15.62Z"></path><path class="cls-3" d="m486.13,431.28c-2.16.31-4.48.35-6.94.12-7.64-.71-11.44-6.41-14.79-11.44-3.7-5.56-6.25-8.99-11.85-9.48-9.33-.83-17.7,4.08-17.78,4.13-2.38,1.42-5.46.65-6.89-1.73-1.43-2.38-.67-5.45,1.7-6.89.45-.27,11.18-6.66,23.86-5.53,10.69.95,15.68,8.45,19.33,13.93,2.86,4.3,4.62,6.75,7.35,7,4.67.44,8.16-.51,10.64-2.9,4.38-4.22,4.96-12.4,4.8-15.2-.15-2.76,1.97-5.13,4.73-5.3,2.77-.16,5.14,1.94,5.31,4.71.04.6.78,14.67-7.83,22.99-3.16,3.06-7.07,4.93-11.65,5.59Z"></path><path class="cls-1" d="m625.73,795.95c-.42-.44-10.3-10.93-19.16-34.59-8.08-21.59-16.81-58.85-12.5-113.71,2.47-31.46,5.81-57.74,8.5-78.86,2.58-20.31,4.62-36.34,4.46-46.56-.3-20.04-10.17-36.46-29.34-48.82-14.5-9.35-29.03-12.69-29.17-12.72l-2.78-.63.48-2.81c1.52-8.91,2.52-24.86-1.28-29.74-.75-.96-1.46-1.13-1.99-1.18l.48-5.98c2.47.2,4.64,1.4,6.25,3.47,5.58,7.18,3.84,24.7,2.87,31.71,5.11,1.45,16.66,5.27,28.39,12.83,20.66,13.32,31.76,31.91,32.09,53.77.16,10.64-1.8,26.06-4.51,47.41-2.68,21.05-6.01,47.26-8.46,78.58-8.06,102.61,29.63,143.28,30.01,143.68l-4.33,4.15Z"></path><path class="cls-1" d="m314.4,793.99l-6-.21c.07-2.02,6.94-202.46-17.21-273.57-19.39-57.11-43.23-96.52-70.84-117.12-21.71-16.2-39.71-15.99-47.4-15.91-3.47.04-6,.07-6.93-2.4-.95-2.49,1.21-4.37,2.79-5.73,14.93-12.95,69.73-29.88,76.13-26.98l-2.48,5.46c.23.11.39.13.39.13-1.96-.27-14.22,2.15-31.63,7.93-15.62,5.19-28.13,10.73-35.3,15.58,9.46.08,27.18,1.58,48,17.11,28.6,21.34,53.14,61.72,72.93,120,10.3,30.34,16.38,85.99,18.07,165.39,1.25,59.01-.53,109.81-.54,110.32Z"></path></svg> 