<?xml version="1.0" encoding="UTF-8"?> <svg xmlns="http://www.w3.org/2000/svg" id="icons" viewBox="0 0 800 800"><defs><style>.cls-1,.cls-2,.cls-3,.cls-4{fill:none;stroke-linecap:round;stroke-miterlimit:10;}.cls-1,.cls-2,.cls-4{stroke:#65d7e7;stroke-width:6px;}.cls-2{stroke-dasharray:0 0 0 0 0 0 4.87 14.6 4.87 14.6 4.87 14.6;}.cls-5{fill:#65d7e7;}.cls-6{fill:#e94f43;}.cls-3{stroke:#b08fe3;stroke-width:5px;}.cls-4{stroke-dasharray:0 0 0 0 4.87 14.6 4.87 14.6;}</style></defs><path class="cls-5" d="m199.47,478.73l-5.26-1.53c-.78-.2-1.6-.03-2.23.46-.63.49-1,1.25-1,2.05,0,2.1-.52,3.62-1.54,4.51-1.21,1.05-3.28,1.44-5.83,1.08-.11-.02-.19-.03-.24-.03-.69-.07-1.37.14-1.9.58-.53.44-.87,1.08-.93,1.76l-.38,5.61c-.13,1.42.95,2.55,2.33,2.59,1.44.05,2.42-.92,2.57-1.99l.4-3.22c1.62-.01,3.11-.27,4.44-.77l1.62,2.23c.69,1.05,2.07,1.71,3.45.77,1.1-.75,1.45-2.12.64-3.3l-1.62-2.62c.87-1.11,1.48-2.43,1.83-3.95l2.5.51c1.43.22,2.67-.38,3.01-1.77.28-1.13-.47-2.62-1.85-2.98Z"></path><path class="cls-5" d="m246.63,455.38c-1.59-3.35-5-8.96-11.03-12.18-4.1-2.19-7.03-2.68-8.97-2.61-1.63-1.78-3.52-3.3-5.63-4.49-11.44-6.46-20.15-.74-20.55-.51-1.87,1.12-2.82,3.14-1.7,5,1.12,1.87,2.87,2.39,5.41,1.36,6.45-2.62,9.78-.78,12.97,1.02,3.3,1.86,5.83,4.96,7.34,8.97,1.51,4.03,1.82,8.68.86,13.09-1.76,8.16-8.57,14-11.6,16.25.93-3.19,2.03-7.89,1.58-12.92-.27-3.01-1.08-5.77-2.41-8.2-1.57-2.86-4.8-6.02-7.97-7.5-.64-.3-1.26-.48-1.84-.55-.08-3.23-1.13-6.36-3.11-9.22-4.7-6.78-10.44-7.69-11.08-7.77-.92-.12-1.63.1-2.39.63-3.93,2.76-6.68,6.62-7.54,11.14-.15.8-.25,1.61-.3,2.43-5.8-3.55-11.85-5.83-16.34-7.2-3.57-1.09-6.43-1.68-8.19-2.02-4.38-.85-7.04.49-7.94,2.01-.92,1.56-1.13,3.4.81,6l13.04,18.03c-3.12,1.32-6.59,1.57-9.07,1.74-.94.07-1.75.12-2.44.23-.65.1-2.99.64-3.77,2.4-.53,1.19-.3,2.5.29,3.73.85,1.77,3.24,3.87,5.47,5.37,1.83,1.23,4.46,2.73,7.63,3.77-2.38,4.44-4.77,10.92-6.63,18.05-.99,3.8-1.71,7.35-2.09,10.28-.65,5-.1,6.85.53,8,2.95,5.42,7.15,9.97,11.85,12.8,2.52,1.53,5.14,2.54,7.77,3.02,2.87.52,5.7.39,8.42-.38,1.99-.57,7.38-2.31,14.43-6.18,5.39-2.96,10.75-7.3,15.11-11.1,3.76,6.97,3.61,12.64,3.13,20.4-.14,2.3.91,4.02,3.07,4.29.78.1,1.54-.04,2.2-.36,1.17-.56,1.88-1.64,2.05-3.02,2.28-18.23-6.91-28.64-7.31-29.07-.73-.79-1.74-1.24-2.81-1.27s-2.1.39-2.86,1.14c-4.01,3.96-8.38,7.23-12.58,9.85-.16-.22-.35-.47-.53-.71-3.19-4.34-12.4-16-24.23-19.7-2.02-.63-4.09.4-4.76,2.4-.68,2,.45,3.25,2.46,4.08,4.17,1.74,9.04,4.73,13.2,8.79,3.53,3.45,5.91,6.44,7.45,8.53.04.05.07.1.11.15-4.18,2.11-7.83,3.49-10.3,4.19-3.91,1.12-7.57-.36-9.95-1.8-3.44-2.08-6.57-5.46-8.84-9.54-.18-1.46.43-6.62,2.39-13.84,2.01-7.42,4.56-13.85,6.81-17.2.13-.19.24-.39.33-.59,2.9-.12,5.69-.83,8.34-2.11,2.48-1.19,4.82-2.89,6.99-5.06,3.58-3.59,5.49-7.69,5.84-12.53.28-3.97-.54-7.66-1.27-10.92-.46-2.05-.53-3.98-.19-5.72.34-1.76,1.22-3.43,2.36-4.74.41-.47.61-.62,1.14-.29,1.09.68,2.79,2,4.09,3.87,1.59,2.29,2.2,4.77,1.58,7.33-.26,1.06-.73,2.05-1.23,2.89-.95,1.59-.55,3.64.93,4.75h0c1.68,1.26,4.08.84,5.22-.93.3-.47.61-.97.89-1.48,3.15,2.18,5.83,5.45,6.18,9.37.35,3.86-.63,7.74-1.39,10.31-1.16,3.94-.01,6.39,1.16,7.74,1.08,1.25,2.43,1.9,3.71,2.23-.08,2.14.54,4.21,1.81,5.91,1.46,1.97,3.67,3.33,6.24,3.85-.07.84-.06,1.71.02,2.6.21,2.17.88,4.24,1.94,6,1.26,2.08,3.05,3.67,5.17,4.59,2.67,1.17,6.78,1.7,12.44-1.03.56-.27,1.13-.57,1.72-.91.7,1.31,1.59,2.74,2.73,4.15,2.1,2.59,4.57,4.53,7.35,5.74,3.49,1.52,7.37,1.88,11.53,1.05,2.16-.43,4.06-1.09,5.72-1.89,4.41-2.13,7.17-5.27,8.81-7.88,3.28-5.2,3.93-10.94,3.13-14.07-.36-1.43-1.49-2.53-2.92-2.87-7.43-1.75-9.88-3.76-10.62-5.13-.79-1.48-.42-3.56.26-6.83.7-3.39,1.58-7.61.39-12.09-1.21-4.58-3.53-8.22-6.87-10.8-3.43-2.66-7.86-4.11-13.19-4.34Zm-69.88,17.2c-3.29,3.43-7.81,4.91-12.23,4.57-2.83-.22-5.51-1.24-7.71-2.42,4.98-.85,11.8-3.02,14.87-8.61,1.27-2.32.51-5.11-1.8-5.93-1.52-.54-3.21-.01-4.21,1.23l-9.74-13.46c2.19.48,12.86,2.96,23.82,10.16,1.01,5.02,1.31,9.96-3.01,14.46Zm82.31-.04c.71,2.68.13,5.49-.49,8.47-.79,3.79-1.68,8.09.51,12.17,1.17,2.18,3.03,3.97,5.7,5.47,1.92,1.08,4.26,2.02,7.12,2.84-.2,1.54-.78,3.68-2.13,5.82-2.1,3.32-5.26,5.42-9.41,6.25-4.55.9-8.17-.36-11.08-3.85-2.38-2.85-3.77-6.58-3.84-6.75-.63-1.49-1.3-1.83-2.01-2.05-1.16-.35-2.63.45-3.69,1.13-6.63,4.22-8.73,3.6-10.25,2.99-1.58-.64-2.73-2.49-2.88-4.03-.12-1.24.26-2.46.57-3.22.5-.2,1.01-.43,1.54-.69.83-.4,1.7-.87,2.58-1.42,3.24-2,6.07-4.63,8.42-7.83,2.86-3.91,5.06-8.29,6.02-13.83.41-2.36-.62-4.48-2.7-4.85-2.05-.36-3.27,1.37-3.82,3.39-2.14,7.8-6.23,12.94-11.61,16.39-2.13,1.36-4.12,2.1-5.54,2.48-1.67.27-2.55-.35-2.98-.88-.83-1.01-.89-2.41.25-3.62,4.2-3.28,11.55-10.27,13.7-20.23,1.28-5.94.84-11.9-1.04-17.12.16.08.33.17.5.27,5.91,3.3,7.85,9.53,8.47,10.91.69,1.52,1.32,2.24,3.09,2.18,4.69-.16,8.41,1.08,10.93,3.03,1.94,1.5,3.31,3.72,4.07,6.59Z"></path><path class="cls-5" d="m271.4,457.51c-3.24-5.04-3.38-4.52-5.22-6.38-3.03-3.06-5.86-6.08-10.28-7.04-1.57-.34-3.16-.36-4.76.33-.9.39-1.76,1.02-2.06,1.95-.21.65-.1,1.37.13,2.01,1.41,3.94,5.21,3.14,8.23,4.66.91.46,1.66,1.37,2.5,1.95,1.22.85,2,1.01,3.08,1.97,1.05.94,2.87,2.84,3.81,3.94,1,1.21,3.32,1.78,4.37.6.5-.56,1.45-2.05.19-4Z"></path><path class="cls-3" d="m505.48,41.01c-137.66-66.51-164.33,25.43-165.58,76.94-2.67,109.98-142.36,139.72-54.29,229.4,82.38,83.9,59.53,165.81,31.22,208.94-26.75,40.74-105.89,58.34-104.63,114.81,1.56,69.52,45.4,53.18,23.75,109.71"></path><path class="cls-1" d="m464.92,46.6c-.77-.32-1.54-.65-2.31-.96"></path><path class="cls-4" d="m449.04,40.25c-10.85-4.11-20.83-7.38-30.03-9.9"></path><path class="cls-2" d="m411.94,28.52c-98.29-23.88-100.03,43.42-101.12,88.02-2.67,109.98-142.36,139.72-54.29,229.4,82.38,83.9,59.53,165.81,31.22,208.94-26.75,40.74-105.89,58.34-104.63,114.81,1.47,65.42,40.38,54.81,26.91,100.44"></path><path class="cls-1" d="m207.75,777.07c-.28.77-.57,1.55-.88,2.34"></path><path class="cls-1" d="m539.98,16.81c17.73,21.27,31.97,46.96,36.24,76.86,13.97,97.77,27.51,118.55,40.9,139.67,25.94,40.9,10.97,76.82-16.96,101.76-18.86,16.84-90.51,97.49-30.96,190.56,13.09,20.46,38.65,29.63,61.29,20.82,7.52-2.93,14.07-7.57,17.56-14.85,11.97-24.94-1-85.9-55.87-63.85-67.52,27.13-72.78,172.91,1,217.48,44.87,27.11,59.25,63.51,61.4,95.55"></path><path class="cls-6" d="m769.32,537.6c-.77-.08-1.52-.46-2.04-1.12-.43-.54-8.24-10.41-13.46-20.02-3.07.92-6.9,1.06-11.6-.32-12.21-3.6-16.3-13.83-17.07-24.4-.32.02-.64.04-.96.04-7.33.12-13.43-4.36-16.72-12.3-1-2.43-1.85-5.15-2.53-8.06-4.09.43-9.3-.88-14.92-6.83-6.03-6.38-9.53-13.38-11.22-20.25-1.53.14-3.08.05-4.64-.28-6.13-1.3-10.85-6.54-11.76-13.02-.62-4.43-1.15-8.56-1.61-12.39-2.56,1.57-5.23,2.35-7.99,2.32-13.35-.13-22.84-19.65-23.23-20.48-.71-1.49-.08-3.29,1.41-4,1.5-.71,3.29-.08,4,1.41,2.27,4.72,9.9,16.98,17.89,17.07,2.58.03,4.98-1.26,7.15-3.24-1.55-15.08-1.58-24.38-.06-27.73,1.2-2.64,3.44-4.29,6.16-4.51,3-.26,6.07,1.36,7.99,4.21,1.54,2.28,4.51,8.76-1.04,19.74-2.15,4.24-4.41,7.72-6.78,10.43.52,4.75,1.2,10.18,2.05,16.34.55,3.99,3.39,7.2,7.06,7.98.81.17,1.59.24,2.35.21-1.32-12.55,2.93-23.82,8.04-28.84,3.75-3.68,8.23-4.06,11.4-.94,3.31,3.24,3.48,12.64-1.95,22.76-2.86,5.33-6.55,9.17-10.63,11.24,1.32,5.63,4.15,11.91,9.76,17.85,3.29,3.49,6.42,5.16,9.47,5.02-1.54-11.03-.6-23.25,4.01-30.82,2.4-3.95,5.1-4.96,6.94-5.12,4.49-.39,7.91,2,9.36,6.56,3,9.37-2.84,27.17-13.14,33.25-.13.08-.27.16-.42.24.6,2.56,1.39,5.1,2.42,7.58,2.33,5.63,6.24,8.67,11.06,8.59.32,0,.64-.03.96-.06.25-8.01,1.9-15.51,2.82-19.68.19-.88.36-1.61.46-2.13,1.01-5.34,4.06-9.24,8.16-10.42,3.11-.89,6.27-.02,8.46,2.35,3.41,3.68,3.77,10.07.98,17.55-3.02,8.11-8.44,14.16-14.73,16.85.78,16.62,9.33,19.14,12.72,20.14,2.69.79,5.1.98,7.22.57-.43-1.03-.81-2.04-1.11-3-2.61-8.25-1.57-17.5,2.53-22.47,2.19-2.66,5.15-3.94,8.33-3.61h.1c1.41.17,4.01,1.05,5.51,5.14,2.44,6.64.88,18.2-5.32,24.83-.59.63-1.27,1.26-2.03,1.86,4.98,9.12,12.74,18.93,12.84,19.05,1.03,1.3.81,3.18-.48,4.21-.64.51-1.42.71-2.18.64Zm-9.14-49.77c-.75-.07-1.84.06-3,1.47-2.37,2.88-3.68,9.76-1.44,16.85.2.64.44,1.3.71,1.98,1.17-1.15,2.17-2.63,3.02-4.44,3.2-6.84,2.14-14.71.71-15.85Zm-21.08-28.65c-.35-.04-.69.02-.96.1-1.45.42-3.24,2.15-3.92,5.76-.11.57-.28,1.35-.49,2.31-1.37,6.21-2.14,11.51-2.44,16.03,3.76-2.49,7.03-6.75,9.01-12.07,2.28-6.12,1.62-9.88.24-11.37-.46-.5-.97-.7-1.43-.75Zm-22.97-23.64c-.27-.03-.55-.02-.81,0-.46.04-1.35.66-2.32,2.26-2.76,4.54-4.7,14.56-3.49,25.35,6.79-5.44,11.03-18.7,8.95-25.2-.59-1.83-1.45-2.32-2.32-2.41Zm-23.8-22.98c-.47-.05-1.18.2-2.31,1.31-2.96,2.9-6.22,10.13-6.39,19.12-.02,1.02,0,2.1.07,3.24,3.08-2.25,5.22-5.68,6.28-7.66,4.07-7.59,4.11-14.59,3.04-15.64-.13-.13-.34-.33-.69-.37Zm-25.41-27.07c-.1-.01-.2-.01-.28,0-.19.02-.77.06-1.2,1.01-.71,1.56-.93,7.28,0,18.4.85-1.38,1.62-2.79,2.3-4.15,4.23-8.37,2.16-12.59,1.42-13.68-.73-1.08-1.6-1.52-2.23-1.58Z"></path><path class="cls-6" d="m712.01,756.05c-.76-.15-1.47-.6-1.93-1.3-.38-.58-7.23-11.13-11.54-21.19-3.14.63-6.97.41-11.52-1.4-11.82-4.72-14.93-15.29-14.71-25.89-.32,0-.64-.02-.96-.05-7.31-.56-12.96-5.59-15.49-13.81-.77-2.51-1.36-5.3-1.76-8.26-4.11.04-9.17-1.74-14.22-8.19-5.4-6.91-8.24-14.21-9.28-21.2-1.54,0-3.07-.24-4.59-.71-5.98-1.87-10.2-7.52-10.49-14.06-.2-4.47-.35-8.63-.45-12.48-2.7,1.33-5.43,1.85-8.17,1.56-13.28-1.38-20.9-21.7-21.22-22.56-.57-1.56.23-3.28,1.78-3.85,1.56-.57,3.28.23,3.85,1.78,1.81,4.91,8.27,17.83,16.22,18.66,2.56.27,5.08-.79,7.42-2.56-.14-15.16.71-24.42,2.53-27.62,1.44-2.52,3.83-3.95,6.55-3.92,3.02.02,5.92,1.92,7.57,4.94,1.32,2.41,3.67,9.15-2.88,19.56-2.53,4.02-5.11,7.28-7.73,9.75.07,4.78.24,10.25.52,16.46.18,4.03,2.71,7.48,6.29,8.6.79.25,1.56.38,2.32.43-.14-12.61,5.14-23.45,10.7-27.97,4.08-3.32,8.57-3.27,11.44.12,2.99,3.53,2.29,12.91-4.06,22.48-3.35,5.04-7.38,8.51-11.63,10.2.79,5.73,3.02,12.25,8.05,18.68,2.95,3.78,5.92,5.73,8.96,5.88-.5-11.13,1.58-23.21,6.87-30.31,2.76-3.7,5.54-4.46,7.38-4.45,4.51.04,7.68,2.73,8.71,7.4,2.11,9.6-5.36,26.79-16.19,31.88-.14.07-.29.13-.44.2.36,2.6.91,5.21,1.7,7.77,1.79,5.82,5.41,9.22,10.21,9.59.32.02.64.03.96.03.99-7.95,3.34-15.26,4.65-19.33.28-.86.5-1.57.65-2.08,1.5-5.22,4.9-8.82,9.1-9.61,3.18-.6,6.24.57,8.2,3.12,3.05,3.98,2.81,10.38-.66,17.56-3.77,7.79-9.73,13.31-16.23,15.4-.78,16.62,7.5,19.93,10.79,21.24,2.6,1.04,4.98,1.45,7.13,1.24-.34-1.07-.62-2.11-.83-3.09-1.83-8.46.07-17.57,4.62-22.13,2.43-2.45,5.49-3.44,8.63-2.82l.1.02c1.39.29,3.9,1.41,5.01,5.62,1.81,6.84-.82,18.21-7.62,24.23-.65.57-1.38,1.14-2.2,1.67,4.11,9.55,10.92,20.03,11.01,20.17.91,1.39.51,3.25-.87,4.15-.68.45-1.48.58-2.23.43Zm-4.45-50.41c-.74-.13-1.84-.11-3.12,1.18-2.63,2.64-4.58,9.37-3.01,16.64.14.65.32,1.33.52,2.04,1.27-1.04,2.41-2.42,3.42-4.14,3.82-6.51,3.51-14.45,2.19-15.72Zm-18.31-30.5c-.35-.07-.68-.05-.97,0-1.48.28-3.43,1.84-4.44,5.37-.16.56-.41,1.32-.7,2.26-1.94,6.05-3.2,11.26-3.92,15.73,3.97-2.13,7.63-6.07,10.1-11.18,2.84-5.88,2.53-9.69,1.3-11.3-.41-.54-.9-.79-1.36-.88Zm-20.67-25.68c-.27-.05-.54-.07-.81-.07-.46,0-1.4.53-2.53,2.03-3.17,4.26-6.04,14.06-5.84,24.91,7.27-4.78,12.73-17.59,11.26-24.26-.41-1.87-1.23-2.45-2.08-2.62Zm-21.55-25.11c-.46-.09-1.2.09-2.42,1.08-3.22,2.62-7.14,9.5-8.15,18.44-.11,1.01-.2,2.09-.23,3.23,3.27-1.95,5.73-5.17,6.97-7.04,4.76-7.18,5.45-14.14,4.48-15.29-.12-.14-.31-.36-.65-.43Zm-22.77-29.33c-.1-.02-.19-.03-.28-.03-.19,0-.77,0-1.29.9-.85,1.48-1.61,7.16-1.73,18.32.97-1.3,1.87-2.63,2.68-3.92,5-7.94,3.32-12.33,2.69-13.49-.63-1.15-1.45-1.66-2.08-1.79Z"></path></svg> 