<?xml version="1.0" encoding="UTF-8"?> <svg xmlns="http://www.w3.org/2000/svg" id="icons" viewBox="0 0 800 800"><defs><style>.cls-1{fill:#e94f43;}.cls-2{fill:#6e16e7;}</style></defs><path class="cls-2" d="m108.92,559.88c-.83,0-1.68-.27-2.39-.82-19.97-15.5-35.2-58.97-35.84-60.81-.7-2.03.37-4.25,2.41-4.96,2.03-.7,4.25.37,4.96,2.4.15.43,15.11,43.13,33.25,57.21,1.7,1.32,2.01,3.77.69,5.47-.77.99-1.92,1.51-3.08,1.51Z"></path><path class="cls-2" d="m108.92,552.49c-.83,0-1.68-.27-2.39-.82-19.97-15.5-35.2-58.97-35.84-60.81-.7-2.03.37-4.25,2.41-4.96,2.03-.71,4.25.37,4.96,2.4.15.43,15.11,43.13,33.25,57.21,1.7,1.32,2.01,3.77.69,5.47-.77.99-1.92,1.51-3.08,1.51Z"></path><path class="cls-2" d="m63.27,527.97c-1.47,0-2.88-.84-3.54-2.26-.9-1.95-.05-4.27,1.9-5.17.44-.2,43.71-20.36,54.87-40.31,1.05-1.88,3.42-2.55,5.3-1.5,1.88,1.05,2.55,3.42,1.5,5.3-12.39,22.16-56.53,42.72-58.4,43.58-.53.24-1.08.36-1.63.36Z"></path><path class="cls-2" d="m59.41,530.09c-1.4,0-2.76-.76-3.45-2.09-1-1.9-.27-4.26,1.64-5.26.4-.21,40.39-21.38,51.6-41.42,1.05-1.88,3.42-2.55,5.3-1.5,1.88,1.05,2.55,3.42,1.5,5.3-12.34,22.06-53.05,43.61-54.78,44.52-.58.3-1.2.45-1.81.45Z"></path><path class="cls-2" d="m130.79,552.49c-.83,0-1.68-.27-2.39-.82-19.96-15.49-38.18-66.09-38.95-68.24-.72-2.03.33-4.25,2.36-4.98,2.02-.73,4.25.33,4.98,2.36.18.5,18.22,50.61,36.39,64.7,1.7,1.32,2.01,3.77.69,5.47-.77.99-1.92,1.51-3.08,1.51Z"></path><path class="cls-2" d="m64.75,559.88c-1.41,0-2.77-.77-3.46-2.1-.99-1.91-.24-4.26,1.67-5.25,7.75-4.01,23.59-17.42,36.73-29.1.05-1.35.84-2.24,1.88-3.4,1.07-1.2,1.19-1.31,1.46-1.52l1.2-1,24.77-24.64c1.52-1.52,3.99-1.51,5.51.02,1.52,1.53,1.51,3.99-.02,5.51l-4.78,4.76,1.1,1.08-1.9,2.72c-.22.31-.41.54-1.62,1.74-.37.37-.75.74-1.16,1.08l.03.03c-1.79,1.7-44.12,41.63-59.61,49.65-.57.3-1.19.44-1.79.44Z"></path><path class="cls-1" d="m628.14,626.98c.48-1.65,1.53-3.1,2.89-3.83,2.04-1.09,4.18-.23,5.03,2.03l9.76,25.79-4.33-23.27c-.49-2.65.77-5.66,2.91-6.92,2.14-1.26,4.42-.35,5.26,2.1l8.35,24.43-3.55-20.15c-.49-2.82.98-5.98,3.3-7.06,2.32-1.08,4.6.32,5.1,3.14l14,79.45c.47,2.65-.81,5.64-2.94,6.88-2.13,1.24-4.41.33-5.24-2.11l-7.09-20.75,2.25,12.13c.48,2.61-.74,5.59-2.84,6.88-2.1,1.29-4.38.47-5.27-1.89l-16.46-43.48,4.97,58.18c.25,2.91-1.46,5.91-3.82,6.69-2.36.78-4.47-.95-4.72-3.87l-7.83-91.77c-.07-.87.03-1.75.27-2.58Z"></path><path class="cls-1" d="m615.87,627.25c.58-1.99,1.98-3.66,3.69-4.16,2.36-.69,4.42,1.14,4.59,4.08l5.36,91.48c.17,2.94-1.6,5.88-3.97,6.56-2.36.69-4.42-1.14-4.59-4.08l-5.36-91.48c-.05-.82.06-1.64.28-2.41Z"></path><path class="cls-1" d="m250.18,270.38c-.8-10.1.11-20.57,4.11-30.31,6.04-14.71,18.12-25.23,35.89-31.27,22.1-7.5,41.23-6.25,56.86,3.71,30.1,19.19,35.25,63.68,35.45,65.56.36,3.12-1.44,6.01-4.18,7.2.66,23.34-13.28,42.41-38.22,51.15-27.08,9.49-63.89,4.56-76.16-19.93-4.45-8.88-12.22-26.82-13.75-46.11Zm116.49-.76c-3.04-12.81-10.48-34.65-27.21-45.3-11.86-7.54-26.92-8.29-44.77-2.23-13.95,4.74-22.92,12.36-27.42,23.31-9.72,23.65,4.59,55.58,9.21,64.81,7.63,15.24,35.19,21.31,58.97,12.97,10.52-3.69,34.27-15.54,27.79-45.98-.66-3.08.82-6.12,3.43-7.58Z"></path><path class="cls-1" d="m171.82,404.7c-.05-.64-.08-1.29-.1-1.97l-.07-3.35,59.22-50.08c1.23-1.65,2.39-3.23,3.49-4.72,25.65-34.66,30.72-41.09,38.38-38.15,1.36.52,5.74,2.77,5.07,9.72-.31,3.15-2.65,5.61-5.6,6.2.22.2.43.42.63.65,2.5,2.96,2.13,7.39-.83,9.89l-30.85,26.09c-35.2,47.29-49.37,62.51-61.04,58.8-4.94-1.57-7.72-5.97-8.28-13.08Z"></path><path class="cls-1" d="m282.17,257.44c-.05-.65-.01-1.32.13-2,.66-3.15,4.56-13.53,27.02-14.77,3.87-.22,7.13,2.7,7.4,6.62.22,3.87-2.74,7.17-6.61,7.39h0c-5.88.34-12.76,2.25-14.13,3.9-.9,3.65-4.54,5.95-8.25,5.18-3.12-.65-5.32-3.29-5.56-6.31Z"></path></svg> 