<?xml version="1.0" encoding="UTF-8"?> <svg xmlns="http://www.w3.org/2000/svg" id="icons" viewBox="0 0 800 800"><defs><style>.cls-1{fill:#65d7e7;}.cls-2{fill:#e7bb86;}.cls-3{fill:none;stroke:#65d7e7;stroke-linecap:round;stroke-linejoin:round;stroke-width:6px;}</style></defs><path class="cls-2" d="m379.45,244.93c-1.46,0-3.23-1.66-15.48-13.14-3.02-2.83-6.8-6.37-10.72-10-9.25,7.08-17.61,13.37-21.68,16.3h0c-1.4,1.01-3.27.9-4.55-.25-1.28-1.16-1.57-3.01-.7-4.51,2.49-4.29,7.85-13.49,13.73-23.48-4.38-3.82-7.85-6.63-9.19-7.17-1.61-.34-2.39-1.51-2.58-2.52-.19-1.03.13-2.46,1.61-3.34,1.89-1.13,11.09-3.31,21.08-5.45,12.13-20.39,12.52-20.46,14.19-20.73,3.08-.51,3.7,1.98,5.18,8.02.54,2.21,1.2,5.05,1.94,8.38,19.88-3.87,20.54-3.34,21.63-2.48l1.16.93-.02,1.52c-.04,1.63-.06,2.31-19.12,17.23,1.74,8.48,3.44,17.2,4.71,24.09.74,4.02,1.28,7.19,1.62,9.44.54,3.6.97,6.45-2.05,7.06-.28.06-.51.1-.76.1Zm-49.64-9.27h0,0Zm28.26-17.57c2.98,2.76,6.3,5.86,10,9.32,2.66,2.49,5.35,5.01,7.61,7.1-1.12-6.44-3.03-16.29-5.03-26.14-1.12.87-2.29,1.78-3.52,2.74-2.97,2.31-6.03,4.66-9.05,6.99Zm-30.01,15.13s0,0,0,0h0Zm16.56-19.31c-2.3,3.91-4.73,8.06-7.28,12.43,3.41-2.57,7.32-5.53,11.43-8.67-1.4-1.28-2.79-2.54-4.15-3.76Zm3.1-5.27c1.76,1.58,3.72,3.35,5.88,5.33,5.29-4.06,10.71-8.26,15.7-12.15-.55-2.66-1.11-5.27-1.64-7.75-4.26.84-8.67,1.74-12.87,2.62-2.14,3.6-4.51,7.59-7.08,11.95Zm-9.6-8.2c1.39,1.09,3.05,2.46,5.02,4.16,1.22-2.06,2.44-4.13,3.64-6.16,0,0,.01-.02.02-.03-3.35.74-6.33,1.44-8.68,2.03Zm-7.18,2.26s.04,0,.07.01c-.02,0-.04,0-.07-.01Zm42.63-9.79c.01.06.03.12.04.18.32,1.49.64,3.02.97,4.58,3.03-2.39,5.78-4.58,8.08-6.44-2.67.48-5.77,1.05-9.09,1.69Zm-8.96-12.46c-1.45,2.32-3.34,5.43-5.64,9.24,1.08-.22,2.16-.44,3.21-.65,1.47-.3,2.87-.58,4.2-.85-.66-2.98-1.26-5.62-1.78-7.75Z"></path><path class="cls-1" d="m665.59,573.63c-.06-.02-.11-.05-.17-.07-18.87-7.78-18.94-29.2-16.33-39.44.41-1.61,2.04-2.58,3.65-2.17,1.61.4,2.57,2.04,2.17,3.64h0c-.25,1-5.96,24.69,12.8,32.42.04.02.09.04.13.05,4.59,1.86,8.91,1.97,12.82.34,8.34-3.49,12.61-13.72,12.65-13.82.63-1.53,2.37-2.27,3.9-1.65h0c1.53.62,2.27,2.37,1.65,3.9-.21.51-5.2,12.61-15.86,17.09-5.44,2.29-11.3,2.19-17.42-.29Z"></path><path class="cls-1" d="m680.91,545.39c-1.54-.62-2.28-2.37-1.65-3.91l4.53-11.18c.62-1.54,2.37-2.28,3.91-1.65,1.54.62,2.28,2.37,1.65,3.91l-4.53,11.18c-.62,1.54-2.37,2.28-3.91,1.65Z"></path><path class="cls-1" d="m669.39,539.72c-1.54-.62-2.28-2.37-1.65-3.91l5.5-13.58c.62-1.54,2.37-2.28,3.91-1.65s2.28,2.37,1.65,3.91l-5.5,13.58c-.62,1.54-2.37,2.28-3.91,1.65Z"></path><path class="cls-1" d="m245.72,344.7l.34-.06,16.78-1.91c1.65-.19,3.13.99,3.32,2.64.19,1.65-1,3.13-2.64,3.32l-12.47,1.42,3.59,2.97c14.85,13.75,21.73,30.17,19.48,45.91,5.62,4.67,10.68,11.93,13.58,23.15,9.85,38.07-18.85,58.66-19.14,58.86-1.36.95-3.23.62-4.18-.74-.95-1.36-.62-3.22.73-4.17h0c1.05-.74,25.56-18.49,16.77-52.44-1.95-7.55-5.07-13.54-9.3-17.93-3.75,11.84-12.82,21.08-22.18,22.56-6.13.97-11.54-1.43-15.24-6.75-4.45-6.39-4.62-13.67-.47-19.95,4.99-7.56,15.05-11.73,23.92-9.9,3.1.64,6.48,1.73,9.85,3.53.73-12.86-5.5-26.19-17.84-37.65l-6.64-5.47c-1.25-1.03-1.8-2.65-1.43-4.22.37-1.57,1.58-2.78,3.15-3.15Zm21.81,56.85c-2.99-1.91-6.36-3.25-10.12-4.02-6.46-1.33-14.07,1.82-17.7,7.33-1.6,2.43-3.68,7.37.39,13.22,2.38,3.43,5.54,4.86,9.39,4.25,8.12-1.28,14.96-10.43,17.5-18.8.2-.66.38-1.32.54-1.98Z"></path><path class="cls-1" d="m250.83,337.63c4.34-1.01,10.3-1.92,18.47-2.56,1.65-.13,3.1,1.11,3.22,2.76.13,1.65-1.11,3.09-2.76,3.23-11.1.87-22.16,3.05-24.53,4.78.24,2.92,1.47,14.31,2.26,21.48.18,1.65-1,3.13-2.65,3.31-1.65.18-3.13-1-3.31-2.65-.38-3.45-2.29-20.76-2.34-22.6-.03-1.43-.11-5,11.63-7.75Z"></path><path class="cls-3" d="m568.11,593.52s92.8,36.84,101.82,52.78c9.02,15.94-8.26,67.33-8.26,67.33,0,0-.38-64.24-12.69-49.15-12.31,15.09-19.86,42-14.45,87.12"></path><path class="cls-3" d="m237.83,570.28c-1.77-5.96,15.56-63.72,15.56-63.72,0,0,31,3.68,42.53,12.78,11.53,9.1,150.31,114.7,150.31,114.7-11.97-2.27-83.36,93.63-83.36,93.63-81.14-141.69-130.43-148.95-130.43-148.95-22.68,13.86-113.51,102.03-113.51,102.03"></path><path class="cls-3" d="m540.69,765.24s-26.85-85.68-37.82-89.78c0,0-6.74-21.79-21.7-27.6-14.96-5.81-34.94-13.82-34.94-13.82"></path><path class="cls-3" d="m452.92,670.31h0c-5.49-2.28-8.14-8.7-5.91-14.34h0c2.22-5.64,8.48-8.35,13.97-6.07h0c5.49,2.28,8.14,8.7,5.91,14.34h0c-2.22,5.64-8.48,8.35-13.97,6.07Z"></path></svg> 