<?xml version="1.0" encoding="UTF-8"?> <svg xmlns="http://www.w3.org/2000/svg" id="icons" viewBox="0 0 800 800"><defs><style>.cls-1,.cls-2,.cls-3{stroke-miterlimit:10;}.cls-1,.cls-2,.cls-3,.cls-4{fill:none;stroke-width:6px;}.cls-1,.cls-3{stroke:#e94f43;}.cls-1,.cls-4{stroke-linecap:round;}.cls-2,.cls-4{stroke:#65d7e7;}.cls-5{fill:#b08fe3;}.cls-6{fill:#e09585;}.cls-4{stroke-linejoin:round;}</style></defs><path class="cls-6" d="m620.24,717.57c-2.1,0-3.94-.49-5.41-1.46-4.22-2.81-4.86-9.45-5.55-16.49-.29-2.93-.74-7.65-1.56-9.31-1.96,1.37-4.97,7.48-8.98,18.18-2.36,6.3-3.07,8.21-5.91,8.21h-1.46l-1.11-1.08c-1.32-1.34-1.3-2.77-1.23-7.52.21-14.43-1.46-16.83-2.18-17.2-2.73.11-5.92,5.72-9.55,16.68-1.34,4.04-1.89,5.71-4.18,6.17-3.01.6-4.3-2.26-5.16-4.15-.65-1.43-1.43-3.33-2.33-5.53-1.12-2.72-3-7.29-4.62-10.65-1.46,5.99-4.41,15.51-15.02,18.07-2.98.72-5.84.29-8.27-1.25-6.22-3.93-8.31-13.96-10-22.02-.18-.87-.39-1.86-.6-2.8-1.88,3.13-4.22,7.85-5.57,10.57-3.94,7.94-4.88,9.83-7.65,9.83-3.69,0-4.14-3.09-5.46-12.28-.32-2.23-.8-5.52-1.31-8.26-1.87,3.62-4.15,8.69-5.61,11.96-4.3,9.57-4.85,10.8-7.21,11.19l-1.48.25-1.29-.92c-1.65-1.23-1.84-2.85-2.78-10.59-.47-3.91-1.35-11.19-2.38-14.9-1.63,1.7-3.92,4.55-5.73,6.81-7.2,8.98-14.63,18.27-22.13,17.39-3.46-.4-4.09-3.06-7.29-18.97-.5-2.47-1.11-5.51-1.71-8.22-1.25,3.74-2.54,8.29-3.35,11.11-2.58,9.04-2.91,10.2-5.41,10.7l-1.46.29-1.29-.86c-1.64-1.14-1.89-2.61-3.24-10.78-.44-2.65-1.15-6.96-1.89-10.46-1.43,4.11-3.03,9.65-4.07,13.26-3.11,10.79-3.68,12.61-5.75,13.59-.95.45-2.04.47-3,.06-2.8-1.2-2.75-3.49-2.44-16.19.17-6.81.47-19.28-.54-22.28-4-2.6-11.17,3.64-11.24,3.7-1.43,1.3-3.64,1.2-4.94-.23-1.3-1.43-1.2-3.64.23-4.94,4.46-4.06,13.85-9.4,20.77-3.65,2.37,1.97,3,6.61,2.88,18.9,3.39-10.89,5.27-13.88,8.81-13.71,3.81.19,5.19,4.16,7.24,15.83,3.78-12.8,5.64-16.49,9.21-16.72,4.09-.29,4.86,3.48,8.03,19.22.84,4.19,2.03,10.09,2.87,13.06,4.03-1.76,10.52-9.86,14.23-14.49,5.92-7.39,8.68-10.65,12.05-10.71.03,0,.06,0,.1,0,5.1,0,6.45,6.79,8.06,19.79,7.19-16,9.33-19.68,13.27-19.08,4.05.62,4.93,5.61,6.7,17.84,0,.04.01.08.02.12,6.39-12.87,9.22-17.65,13.57-16.84,3.46.65,4.23,4.31,5.62,10.97,1.26,6.05,3.17,15.18,6.88,17.53.56.35,1.39.72,2.88.36,6.68-1.62,8.55-7.37,10.16-14.16.86-3.66,1.61-6.82,4.74-7.53,4.43-1.01,6.9,3.92,12.81,18.27,2.73-7.67,7.01-17.05,14.43-17.37,2.02-.09,3.88.62,5.34,2.05,2.4,2.34,3.48,6.3,3.94,11.06,3.48-8.03,7.15-13.77,12.04-13.92.09,0,.18,0,.26,0,6.65,0,7.47,8.42,8.2,15.85.33,3.37,1.01,10.37,2.46,11.34.6.4,3.14.64,7.15-1.21,6.29-2.9,14.09-10.04,15.37-20.66.23-1.92,1.98-3.29,3.89-3.06,1.92.23,3.29,1.97,3.06,3.89-1.62,13.48-11.46,22.53-19.39,26.18-3.08,1.42-6.01,2.14-8.55,2.14Z"></path><path class="cls-5" d="m171.41,650.77c.58-2.4.14-5.12-1.62-7.49.58-.2,1.14-.44,1.68-.73,2.5-1.34,4.28-3.58,4.9-6.13.96-3.98-.88-8.83-6.86-11.53-2.05-.84-9.61-3.23-12.82-3.66-.42-.77-1.09-1.24-1.96-1.76-1.98-1.19-3.04-3.63-3.43-5.78-.53-2.93-.36-6.68.41-9.55,1.7-6.3,2.45-12.1,2.24-17.25-.2-4.83-1.3-9.02-3.16-12.1-1.82-3.02-4.32-4.97-7.22-5.62-2.69-.61-5.42.09-7.68,1.96-1.78,1.47-3.16,3.61-3.9,6.01-.69,2.24-1.27,4.55-1.83,6.79-1.57,6.21-3.19,12.64-7.22,18.2-3.67,5.07-9.03,7.47-14.7,10.02-5.26,2.36-10.7,4.8-14.89,9.49-4.73,5.3-7.19,12.61-6.88,22.35.06,1.83,1.19,3.25,2.8,3.73.38.11.77.17,1.19.17,2.18-.02,3.82-1.82,3.9-3.98.29-7.78,1.47-13.2,4.88-17.01,3.07-3.44,7.52-5.44,12.24-7.55,6.07-2.72,12.94-5.81,17.85-12.58,2.23-3.07,4.02-6.54,5.5-10.6,1.26-3.48,2.14-6.95,2.98-10.3.56-2.24,1.1-4.36,1.73-6.41.46-1.49,1.05-2.53,1.79-2.6.95-.1,2.04.9,2.72,2.02,1.49,2.48,1.93,5.92,2.03,8.37.18,4.34-.48,9.34-1.97,14.86-1.09,4.03-1.3,8.9-.56,13,.39,2.17,1.03,4.11,1.92,5.78-.98.24-1.75.55-2.37.87-2.78,1.42-3.78,3.67-4.28,5.24-.71,2.2-.45,4.42.76,6.42.36.6.8,1.18,1.33,1.73-1.18.24-2.06.6-2.77.96-2.78,1.42-3.78,3.67-4.28,5.24-.71,2.2-.45,4.42.76,6.42.38.63.86,1.24,1.42,1.83-1.16.18-2.17.49-3.06.94-2.76,1.41-3.54,3.81-3.87,4.83-.72,2.22-.45,4.48.76,6.55-4.43.41-6.18,3.1-6.83,4.71-.7,1.73-.59,4.44.26,6.46-6.51-.51-13.32-2.64-18.02-5.31-6.23-3.53-9.05-9.1-9.93-15.26-.32-2.27-2.09-3.78-4.26-3.6-2.17.18-3.72,1.97-3.6,4.26.49,8.84,5.64,16.03,14.14,20.86,2.62,1.49,5.56,2.72,8.71,3.67,5.08,1.54,10.72,2.36,16.54,2.36.59,0,1.15-.13,1.65-.36,2.63,1.99,5.94,3.65,9.57,4.75.41.12.82.24,1.23.35,5.34,1.4,9.65,1.16,12.81-.71,2.04-1.21,3.52-3.12,4.04-5.23h0c.34-1.36.41-3.35-.89-5.58,2.19,0,4.23-.48,6-1.43,2.5-1.34,4.28-3.58,4.9-6.13.61-2.54.08-5.43-1.93-7.89.79-.23,1.55-.53,2.26-.92,2.5-1.34,4.28-3.58,4.9-6.13Zm-12.73,1.09s-.1-.02-.19-.03c-14.49-2.45-19.5-5.77-18.65-8.57.79-2.61,3.54-2.36,6.86-2.06,3.19.3,13.57,3.16,13.6,3.17,3.44,1.04,5.46,2.78,4.98,4.92-.52,2.3-3.82,3.08-6.6,2.56Zm5.24-22.31c.24.08,6.91,2.41,6.33,5.39-.47,2.38-3.82,3.08-6.6,2.56-.04,0-.1-.02-.19-.03-9.43-1.68-19.79-4.8-18.55-8.87,1.17-3.86,9.27-2.41,19.01.96Zm-15,49.12c-.93.55-3.21,1.29-7.99.03-5.36-1.41-10.33-4.57-11.8-7.51-.56-1.12-.41-1.8-.24-2.21.11-.28.31-.75,1.85-.82,1.45-.06,3.45.29,5.96,1.05.61.19,1.26.4,1.94.63,1.37.48,4.86,1.78,7.75,3.56,2.79,1.73,3.86,3.22,3.68,3.92-.03.13-.24.8-1.14,1.33Zm4.54-11.87s-4.98-.72-9.5-2.34c-4.94-1.76-9.89-3.8-8.93-6.96.56-1.86,2.62-2.34,6.01-1.86,3.09.44,14.01,3.67,14.04,3.68,3.44,1.04,5.44,3.02,4.98,4.92-.57,2.35-3.82,3.08-6.6,2.56Z"></path><path class="cls-5" d="m161.75,580.37c.09.94-.05,2.3,0,3.24.05,1.36.37,2.02.25,3.34-.11,1.28-.5,3.66-.78,4.95-.33,1.39.53,3.41,1.97,3.52.68.06,2.29-.07,3.03-2.06,1.9-5.14,1.44-4.96,1.79-7.33.22-1.48.82-3.4.86-4.89.06-2.43-.1-4.86-.45-7.23-.3-2.42-2.75-3.96-5.07-3.18-2.12.69-2.65,2.25-2.27,4.59.27,1.64.51,3.33.68,5.04Z"></path><path class="cls-2" d="m235.18,328.23s1.93,30.99,13.1,38.87c11.18,7.88,49.72,4.75,57.42,2.31s19.27-35.12,14.26-46.78c-5.01-11.66-37-25.56-69.37-18.07-9.38,2.17-13.87,8.59-15.42,23.67Z"></path><path class="cls-2" d="m433.89,326.35s-1.93,29.82-13.1,37.4-49.72,4.57-57.42,2.22c-7.71-2.34-19.27-33.8-14.26-45.02s37-24.6,69.37-17.39c9.38,2.09,13.87,8.26,15.42,22.78Z"></path><path class="cls-3" d="m433.89,171.81c12.37-27.2,9.38-53.49.17-70.28-21.6-39.38-77.74-42.29-112.3-3.99-39.56,43.84-9.38,137.3,158.45,160.38,167.83,23.09,126.04,139.99,150.77,175,34.79,49.25,110.61,42.6,169.01,39.06"></path><path class="cls-1" d="m17.14,548.97s-21.06-109.41,68.52-191.4c64.41-58.96,128.73-52.08,139.83-55.14"></path><path class="cls-4" d="m312.28,338.18s15.79-16.3,39.73,0"></path><path class="cls-4" d="m433.89,326.35s46.35-23.92,55.3-23.92c7.65,0,19.49,1.23,13.24,34.84"></path><line class="cls-4" x1="254.42" y1="323.05" x2="274.04" y2="353.31"></line><line class="cls-4" x1="251.15" y1="341.02" x2="264.23" y2="361.2"></line><line class="cls-4" x1="412.49" y1="323.79" x2="421.75" y2="338.08"></line><line class="cls-4" x1="417.69" y1="314.65" x2="422.32" y2="321.79"></line></svg> 