<?xml version="1.0" encoding="UTF-8"?> <svg xmlns="http://www.w3.org/2000/svg" xmlns:xlink="http://www.w3.org/1999/xlink" id="icons" viewBox="0 0 800 800"><defs><style>.cls-1{fill:none;}.cls-2{clip-path:url(#clippath);}.cls-3{fill:#e94f43;}.cls-4{fill:#b08fe3;}.cls-5{fill:#6e16e7;}.cls-6{clip-path:url(#clippath-1);}</style><clipPath id="clippath"><path class="cls-1" d="m549.41,421.48l-2.44,10.86-1.77,2.66s1.66,15.69,0,18.13,168.71-21.91,168.71-21.91l123.71-201.29-219.48,65.84-68.73,125.7Z"></path></clipPath><clipPath id="clippath-1"><path class="cls-1" d="m220.69,504.33s-1.34,19.29,1.88,43.68c3.24,24.46,3.99,33.77,3.99,33.77l-131.01,30.07-104.43-43.5,37.02-47.45,171.5-41.7,21.05,25.13Z"></path></clipPath></defs><path class="cls-5" d="m149.94,405.55c-.63-.21-1.33-.13-1.96.08-3.86,1.28-3.17,4.98-4.72,7.88-.47.87-1.37,1.58-1.96,2.38-.85,1.17-1.03,1.92-1.99,2.94-.93.99-2.83,2.72-3.91,3.6-1.19.94-1.8,3.18-.69,4.23.53.5,1.96,1.45,3.88.28,4.97-3.02,4.47-3.17,6.32-4.92,3.05-2.86,6.04-5.54,7.08-9.81.36-1.51.43-3.06-.21-4.62-.36-.88-.95-1.74-1.85-2.04Z"></path><path class="cls-5" d="m182.93,355.87c-1.34-3.22-4.13-5.67-8.29-7.29-3.93-1.53-9.05-2.34-15.66-2.48-8.63-.18-18.73,1.11-30.15,3.82-.02-.01-.03-.03-.05-.05-3.91-3.49-8.25-6.11-12.89-7.76-3.15-1.12-6.4-1.79-9.72-2,.79-.71,1.28-1.74,1.25-2.88-.06-2.08-1.72-3.45-3.92-3.54-12.18-.54-23.92,4.51-33.08,13.34-4.38,4.22-7.95,9.14-10.63,14.61-2.75,5.62-4.42,11.57-4.98,17.7-.03.32-.02.64.03.95-2.85,1.72-5.73,3.53-8.56,5.41-7.08,4.7-12.93,9.2-17.37,13.37-5.73,5.37-9.13,10.15-10.4,14.62-1.08,3.78-.59,7.37,1.43,10.38,3.02,4.53,8.15,7.35,15.24,8.39,2.08.3,4.33.46,6.76.46,3.59,0,7.55-.33,11.85-1,11.98-1.85,22.47-5.61,22.91-5.77.13-.05.25-.1.37-.16,6.55,4.1,14.05,6.4,21.86,6.4.17,0,.34,0,.5,0,12-.15,23.24-4.6,31.64-12.52,4.28-4.04,7.67-8.82,10.07-14.22,1.35-3.04,2.36-6.22,3.03-9.54,1,1.3,3.11,1.56,4.92.88.78-.29,13.43-6.26,24.8-18.23,3.6-3.79,6.26-7.42,7.9-10.8,2.2-4.53,2.58-8.61,1.12-12.11Zm-116.13,9.2c2.28-4.66,5.32-8.84,9.04-12.43,6.16-5.94,13.7-9.75,21.67-11.03-.65.78-1,1.8-.89,2.89.22,2.14,2,3.34,4.15,3.28,7.34-.21,13.71,1.92,18.39,4.69-2.3.66-4.65,1.38-7.05,2.15-14.87,4.76-27.86,10.37-34.28,13.29-3.2,1.45-8.49,4.12-14.57,7.51.73-3.56,1.91-7.02,3.54-10.35Zm70.58,22.07c-.13,5.49-1.25,10.66-3.34,15.36-1.97,4.44-4.76,8.38-8.29,11.71-6.98,6.58-16.36,10.27-26.4,10.4-.14,0-.27,0-.4,0-14.44,0-27.66-9.77-33.48-24.6,30.93-17.73,54.07-25.45,68.84-28.8,2.11,5.24,3.19,10.82,3.07,15.92Zm-78.7,16.88c.76,1.81,1.62,3.55,2.56,5.22-1.48.28-3.65.67-5.97.98-2.8.37-4.81.5-6.22.52,1.65-1.42,4.56-3.59,9.64-6.72Zm83.39-34.32c1.12-.18,2.16-.33,3.12-.45,4.34-.56,7.13-.51,8.75-.31-.31.32-.71.71-1.22,1.15-3.12,2.73-6.26,4.85-8.67,6.31-.5-2.24-1.16-4.48-1.98-6.69Zm26.19,3.71c-10.37,10.92-22.48,16.96-22.6,17.02-.26.13-.49.28-.71.45.11-1.17.18-2.36.21-3.56.02-.85.01-1.71-.02-2.58,2.74-1.48,7.71-4.43,12.7-8.8,1.85-1.62,3.14-3.1,3.93-4.52,1.45-2.6,1.07-4.66.49-5.94-1.83-4.05-7.57-5.31-18.07-3.97-13.52,1.73-42.58,8.36-85.28,33.27-7.07,4.12-12.02,7.46-15.16,10.21-1.64,1.44-2.79,2.73-3.52,3.95-1.4,2.34-1.15,4.24-.69,5.42.41,1.05,1.36,2.48,3.56,3.33,1.01.39,2.21.63,3.67.75.62.05,1.29.07,2.02.07,1.66,0,3.6-.12,5.8-.37,5.15-.58,10.01-1.65,10.22-1.69.38-.08.73-.22,1.06-.4,1.21,1.48,2.49,2.88,3.84,4.19-4.04,1.23-10.44,2.97-17.22,4.01-6.41.98-11.88,1.15-16.24.51-4.79-.71-8.1-2.39-9.84-5-.5-.75-1-1.88-.42-3.92.96-3.37,5.44-10.92,24.6-23.63,11.79-7.82,24.67-14.57,30.45-17.2,6.26-2.85,18.94-8.32,33.43-12.96,17.65-5.65,32.56-8.39,44.34-8.15,13.51.28,16.33,3.57,16.92,4.98,1.19,2.86-1.67,8.43-7.48,14.55Z"></path><path class="cls-4" d="m578.92,197.95c12.4,0,22.49-8.36,22.49-18.64s-10.09-18.64-22.49-18.64c-16.1,0-16.1,14.03-16.1,18.64s0,18.64,16.1,18.64Zm0-31.27c8.41,0,15.25,5.67,15.25,12.64s-6.84,12.64-15.25,12.64c-5.47,0-8.86-2.11-8.86-12.64s3.39-12.64,8.86-12.64Z"></path><path class="cls-5" d="m552.05,146.1c12.4,0,22.49-8.36,22.49-18.64s-10.09-18.64-22.49-18.64c-16.1,0-16.1,14.03-16.1,18.64s0,18.64,16.1,18.64Zm0-31.27c8.41,0,15.25,5.67,15.25,12.64s-6.84,12.64-15.25,12.64c-5.47,0-8.86-2.11-8.86-12.64s3.39-12.64,8.86-12.64Z"></path><g class="cls-2"><path class="cls-3" d="m756.01,334.7c.17.44.26.93.25,1.44-.03,1-.94,24.6-26.83,41.68-5.24,3.45-11.34,6.19-18.14,8.13-1.55.44-3.15,1.14-4.67,2.06,5.05,7.24,8.08,13.19,5.29,17.94-2.61,4.45-8.42,6.35-13.49,4.43-4.18-1.59-8.11-6.05-6.59-13.81.69-3.56,2.37-6.89,4.78-9.73-.15-.2-.3-.4-.44-.59-2.69-3.65-5.56-7.55-8.1-11.54-.39.35-.79.7-1.19,1.06-9.06,8.03-22.43,19.88-30.15,28.26,4.44,8.42,6.52,15.8,1.57,20.67-3.19,3.13-7.22,3.85-10.53,1.86-4.49-2.69-6.2-9.45-4.15-16.45.56-1.91,1.96-4.23,4.09-6.94-1.53-2.63-3.12-5.19-4.46-7.34-1.71-2.75-3.4-5.47-4.93-8.1-4.28,4.11-9.49,8.33-15.45,12.45-8.43,5.82-14.35,11.68-18.07,16.61,1.56,2.03,2.7,3.91,3.24,5.62,2.41,7.64-.63,11.29-2.05,12.5-2.28,1.95-5.5,2.36-8.18,1.02-3.17-1.57-5.05-4.39-5.31-7.93-.22-3.1.86-6.73,3.03-10.62-2.54-2.71-5.57-5.67-8.29-8.31-1.19-1.15-2.31-2.25-3.36-3.29-6.8,12.4-19.55,28.12-40.25,41.52-1.72,1.11-4.02.62-5.14-1.1-1.12-1.73-.62-4.02,1.1-5.14,21.36-13.82,33.16-29.89,38.83-40.89-3.13-3.43-5.09-6.19-5.67-8.63-.97-4.06.08-7.99,2.81-10.52,2.39-2.21,5.71-3,8.64-2.05,2.99.97,5.12,3.55,5.83,7.07.47,2.35-.33,6.86-2.74,12.66,1.76,1.77,3.57,3.54,5.12,5.05,2.59,2.52,5.13,4.99,7.39,7.35,4.56-5.72,11.03-11.65,18.83-17.03,7.01-4.84,12.23-9.31,16.05-13.17-2.17-4.68-3.33-8.92-2.55-12.47,1.63-7.47,6.55-10.09,10.27-10.06,4.19.03,7.73,3.09,8.61,7.44.83,4.13-1.9,9.9-7.35,16.3,1.81,3.26,3.95,6.69,5.89,9.82,1.13,1.81,2.24,3.61,3.31,5.38,6.84-7.23,16.97-16.35,29.08-27.07.79-.7,1.57-1.39,2.34-2.07-4.41-8.79-5.98-17.62.47-25,9.61-10.98,17.72-10.89,22.12-7.14,4.94,4.22,5.59,13.92-1.86,22.86-1.92,2.31-5.99,6.08-11.34,10.86,2.52,4.05,5.56,8.17,8.47,12.13.03.04.06.08.08.11,2.12-1.35,4.48-2.43,7.02-3.15,6.07-1.74,11.48-4.15,16.09-7.19,9.45-6.23,16.27-14.12,20.28-23.43,3-6.98,3.21-12.2,3.22-12.26.07-2.04,1.78-3.66,3.83-3.59,1.54.05,2.83,1.02,3.35,2.37Zm-65.97,28.3c4.32-3.89,7.8-7.14,9.27-8.9,4.47-5.36,4.61-10.86,2.74-12.45-1.41-1.2-5.68-.49-11.7,6.38-3.46,3.96-2.85,9.24-.31,14.98Zm9.19,38.65c.3.78.86,1.43,1.82,1.79,1.47.56,3.61.19,4.46-1.25.53-1.27-1.72-5.11-4.38-9.02-.96,1.44-1.67,3.05-2.01,4.82-.23,1.17-.32,2.54.11,3.65Zm-59.12-27.01c2.81-3.8,3.77-6.42,3.61-7.38-.18-.89-.72-1.48-1.38-1.48-.98,0-2.31,1.31-2.95,4.22-.25,1.15.05,2.76.71,4.64Zm10.53,44.2c.27.7.62,1.16.94,1.35.34.21,1.11-.4,1.5-.79,1.38-1.36.41-4.84-1.5-8.96-.41.67-.69,1.26-.84,1.76-.87,2.98-.64,5.26-.1,6.63Zm-50.58,9.41c.17.45.5.76,1.04,1.03.3-.26.79-1.63-.15-4.63-.08-.24-.18-.49-.32-.76-.56,1.45-.79,2.66-.73,3.59.02.3.07.56.16.78Zm-18.37-35.65c.86-2.52,1.17-4.3,1.05-5.11-.16-.79-.47-1.34-.83-1.46-.3-.1-.84,0-1.31.44-.75.7-.98,1.88-.63,3.34.15.64.79,1.62,1.72,2.79Z"></path></g><g class="cls-6"><path class="cls-3" d="m250.07,492.6c.17.44.26.93.25,1.44-.03,1-.94,24.6-26.83,41.68-5.24,3.45-11.34,6.19-18.14,8.13-1.55.44-3.15,1.14-4.67,2.06,5.05,7.24,8.08,13.19,5.29,17.94-2.61,4.45-8.42,6.35-13.49,4.43-4.18-1.59-8.11-6.05-6.59-13.81.69-3.56,2.37-6.89,4.78-9.73-.15-.2-.3-.4-.44-.59-2.69-3.65-5.56-7.55-8.1-11.54-.39.35-.79.7-1.19,1.06-9.06,8.03-22.43,19.88-30.15,28.26,4.44,8.42,6.52,15.8,1.57,20.67-3.19,3.13-7.22,3.85-10.53,1.86-4.49-2.69-6.2-9.45-4.15-16.45.56-1.91,1.96-4.23,4.09-6.94-1.53-2.63-3.12-5.19-4.46-7.34-1.71-2.75-3.4-5.47-4.93-8.1-4.28,4.11-9.49,8.33-15.45,12.45-8.43,5.82-14.35,11.68-18.07,16.61,1.56,2.03,2.7,3.91,3.24,5.62,2.41,7.64-.63,11.29-2.05,12.5-2.28,1.95-5.5,2.36-8.18,1.02-3.17-1.57-5.05-4.39-5.31-7.93-.22-3.1.86-6.73,3.03-10.62-2.54-2.71-5.57-5.67-8.29-8.31-1.19-1.15-2.31-2.25-3.36-3.29-6.8,12.4-19.55,28.12-40.25,41.52-1.72,1.11-4.02.62-5.14-1.1-1.12-1.73-.62-4.02,1.1-5.14,21.36-13.82,33.16-29.89,38.83-40.89-3.13-3.43-5.09-6.19-5.67-8.63-.97-4.06.08-7.99,2.81-10.52,2.39-2.21,5.71-3,8.64-2.05,2.99.97,5.12,3.55,5.83,7.07.47,2.35-.33,6.86-2.74,12.66,1.76,1.77,3.57,3.54,5.12,5.05,2.59,2.52,5.13,4.99,7.39,7.35,4.56-5.72,11.03-11.65,18.83-17.03,7.01-4.84,12.23-9.31,16.05-13.17-2.17-4.68-3.33-8.92-2.55-12.47,1.63-7.47,6.55-10.09,10.27-10.06,4.19.03,7.73,3.09,8.61,7.44.83,4.13-1.9,9.9-7.35,16.3,1.81,3.26,3.95,6.69,5.89,9.82,1.13,1.81,2.24,3.61,3.31,5.38,6.84-7.23,16.97-16.35,29.08-27.07.79-.7,1.57-1.39,2.34-2.07-4.41-8.79-5.98-17.62.47-25,9.61-10.98,17.72-10.89,22.12-7.14,4.94,4.22,5.59,13.92-1.86,22.86-1.92,2.31-5.99,6.08-11.34,10.86,2.52,4.05,5.56,8.17,8.47,12.13.03.04.06.08.08.11,2.12-1.35,4.48-2.43,7.02-3.15,6.07-1.74,11.48-4.15,16.09-7.19,9.45-6.23,16.27-14.12,20.28-23.43,3-6.98,3.21-12.2,3.22-12.26.07-2.04,1.78-3.66,3.83-3.59,1.54.05,2.83,1.02,3.35,2.37Zm-65.97,28.3c4.32-3.89,7.8-7.14,9.27-8.9,4.47-5.36,4.61-10.86,2.74-12.45-1.41-1.2-5.68-.49-11.7,6.38-3.46,3.96-2.85,9.24-.31,14.98Zm9.19,38.65c.3.78.86,1.43,1.82,1.79,1.47.56,3.61.19,4.46-1.25.53-1.27-1.72-5.11-4.38-9.02-.96,1.44-1.67,3.05-2.01,4.82-.23,1.17-.32,2.54.11,3.65Zm-59.12-27.01c2.81-3.8,3.77-6.42,3.61-7.38-.18-.89-.72-1.48-1.38-1.48-.98,0-2.31,1.31-2.95,4.22-.25,1.15.05,2.76.71,4.64Zm10.53,44.2c.27.7.62,1.16.94,1.35.34.21,1.11-.4,1.5-.79,1.38-1.36.41-4.84-1.5-8.96-.41.67-.69,1.26-.84,1.76-.87,2.98-.64,5.26-.1,6.63Zm-50.58,9.41c.17.45.5.76,1.04,1.03.3-.26.79-1.63-.15-4.63-.08-.24-.18-.49-.32-.76-.56,1.45-.79,2.66-.73,3.59.02.3.07.56.16.78Zm-18.37-35.65c.86-2.52,1.17-4.3,1.05-5.11-.16-.79-.47-1.34-.83-1.46-.3-.1-.84,0-1.31.44-.75.7-.98,1.88-.63,3.34.15.64.79,1.62,1.72,2.79Z"></path></g></svg> 