<?xml version="1.0" encoding="UTF-8"?> <svg xmlns="http://www.w3.org/2000/svg" id="icons" viewBox="0 0 799.21 799.39"><defs><style>.cls-1{fill:#e94f43;}.cls-2{fill:#e7bb86;}.cls-3{fill:#e09585;}.cls-4{fill:none;stroke:#65d7e7;stroke-linecap:round;stroke-linejoin:round;stroke-width:6px;}</style></defs><path class="cls-1" d="m645.47,158.42c-1.49-4.96-5.63-8.98-10.32-10.02h-.06c-8.21-1.79-15.6,1.59-21.25,5.82-1.66-4.49-5.47-12.69-12.15-16.17-3.59-1.87-7.6-2.12-11.58-.71-5.26,1.86-9.1,5.44-11.11,10.38-2.47,6.07-1.88,13.87,1.58,20.87,3.65,7.39,14.55,26.1,19.32,34.23-1.75,1.49-2.82,2.39-2.87,2.43-1.55,1.3-1.76,3.62-.46,5.17.54.65,1.26,1.06,2.02,1.23,1.08.24,2.25,0,3.15-.77.2-.17,1.27-1.06,2.94-2.48.83.15,1.72.02,2.51-.44,1.17-.69,1.8-1.94,1.79-3.21,8.46-7.24,22.27-19.29,30.2-27.37,7.97-8.11,7.35-15.35,6.28-18.94Zm-11.52,13.79c-7.25,7.38-19.92,18.49-28.37,25.75-5.01-8.56-15.07-25.86-18.41-32.63-2.54-5.15-3.05-10.7-1.36-14.85,1.21-2.97,3.48-5.06,6.75-6.22,2.1-.74,3.92-.65,5.73.29,5.16,2.68,8.56,11.41,9.44,14.56.04.14.1.28.16.41-3.07,3.2-4.92,5.88-5.13,6.18-1.14,1.68-.7,3.96.98,5.1,1.67,1.14,3.96.7,5.1-.97.12-.17,11.78-17.05,24.7-14.27h.02c1.8.4,4.05,2.23,4.87,4.96,1.05,3.52-.54,7.67-4.48,11.68Z"></path><path class="cls-1" d="m581.57,136.56c-.94-.21-1.8-.79-2.35-1.68l-6.88-11.32c-1.05-1.73-.5-3.99,1.23-5.05s3.99-.5,5.05,1.23l6.88,11.32c1.05,1.73.5,3.99-1.23,5.05-.84.51-1.81.64-2.7.45Z"></path><path class="cls-1" d="m646.66,150.96c-1.01-.22-1.92-.87-2.45-1.85-.96-1.79-.28-4.01,1.5-4.97l15.35-8.22c1.79-.96,4.01-.29,4.97,1.5.96,1.79.28,4.01-1.5,4.97l-15.35,8.22c-.81.43-1.7.53-2.53.35Z"></path><path class="cls-1" d="m565.41,143.62c-1.66-.37-2.9-1.86-2.88-3.63.03-2.03,1.69-3.65,3.72-3.63l7.59.09c2.03.02,3.65,1.69,3.63,3.72-.03,2.03-1.69,3.65-3.72,3.63l-7.59-.09c-.26,0-.51-.03-.75-.09Z"></path><path class="cls-1" d="m652.5,162.53c-1.3-.29-2.4-1.28-2.76-2.66-.52-1.96.66-3.97,2.62-4.49l10.9-2.86c1.96-.51,3.97.66,4.49,2.62.52,1.96-.66,3.97-2.62,4.49l-10.9,2.86c-.58.15-1.17.16-1.72.04Z"></path><path class="cls-1" d="m266.64,764.2c-.65,1.79-2.56,2.82-4.44,2.34l-47.41-12.33c-1.99-.52-3.19-2.55-2.67-4.55.5-1.99,2.55-3.19,4.55-2.67l47.41,12.33c1.99.52,3.19,2.55,2.67,4.55-.03.11-.06.23-.1.33Z"></path><path class="cls-1" d="m271.98,749.44c-.65,1.79-2.56,2.82-4.44,2.34l-43.77-11.38c-1.99-.52-3.19-2.55-2.67-4.55.5-1.99,2.55-3.19,4.55-2.67l43.77,11.38c1.99.52,3.19,2.55,2.67,4.55-.03.11-.06.23-.1.33Z"></path><path class="cls-1" d="m276.13,737.98c-.65,1.79-2.56,2.82-4.44,2.34l-40.19-10.45c-1.99-.52-3.19-2.55-2.67-4.55.5-2,2.55-3.19,4.55-2.67l40.19,10.45c1.99.52,3.19,2.55,2.67,4.55-.03.11-.06.23-.1.33Z"></path><path class="cls-1" d="m281.48,770.16c-.63,1.73-2.46,2.78-4.31,2.37-2.01-.44-3.28-2.43-2.84-4.44l7.1-32.16c.45-2,2.43-3.28,4.44-2.84,2.01.44,3.28,2.43,2.84,4.44l-7.1,32.16c-.04.16-.08.32-.14.47Z"></path><path class="cls-1" d="m297.42,772.27c-.57,1.56-2.13,2.61-3.86,2.44-2.05-.2-3.55-2.02-3.36-4.07l2.97-30.87c.2-2.05,2.02-3.55,4.07-3.36,2.05.2,3.55,2.02,3.36,4.07l-2.97,30.87c-.03.32-.1.63-.21.91Z"></path><path class="cls-1" d="m313.2,774.02c-.53,1.46-1.93,2.48-3.57,2.46-2.06-.03-3.7-1.73-3.67-3.79l.48-30.89c.03-2.06,1.73-3.7,3.79-3.67s3.7,1.73,3.67,3.79l-.48,30.89c0,.42-.08.83-.22,1.21Z"></path><path class="cls-1" d="m361.44,775.95c-.55,1.51-2.03,2.55-3.71,2.45l-33.75-1.88c-2.06-.11-3.63-1.87-3.52-3.93.11-2.06,1.87-3.63,3.93-3.52l33.75,1.88c2.06.11,3.63,1.87,3.52,3.93-.02.37-.1.73-.22,1.06Z"></path><path class="cls-1" d="m363.61,764.28c-.56,1.55-2.11,2.6-3.84,2.44l-34.64-3.08c-2.05-.18-3.57-1.99-3.38-4.04.19-2.05,1.99-3.57,4.04-3.38l34.64,3.08c2.05.18,3.57,1.99,3.38,4.04-.03.33-.1.65-.21.94Z"></path><path class="cls-1" d="m362.26,750.61c-.57,1.58-2.17,2.63-3.91,2.43l-31.42-3.46c-2.05-.23-3.52-2.07-3.3-4.11.23-2.05,2.07-3.52,4.11-3.3l31.42,3.46c2.05.23,3.52,2.07,3.3,4.11-.03.3-.1.59-.2.86Z"></path><path class="cls-3" d="m116.14,687.06c-1.46,0-3.23-1.66-15.48-13.14-3.02-2.83-6.8-6.37-10.72-10-9.25,7.08-17.61,13.37-21.68,16.3h0c-1.4,1.01-3.27.9-4.55-.25-1.28-1.16-1.57-3.01-.7-4.51,2.49-4.29,7.85-13.49,13.73-23.48-4.38-3.82-7.85-6.63-9.19-7.17-1.61-.34-2.39-1.51-2.58-2.52-.19-1.03.13-2.46,1.61-3.34,1.89-1.13,11.09-3.31,21.08-5.45,12.13-20.39,12.52-20.46,14.19-20.73,3.08-.51,3.7,1.98,5.18,8.02.54,2.21,1.2,5.05,1.94,8.38,19.88-3.87,20.54-3.34,21.63-2.48l1.16.93-.02,1.52c-.04,1.63-.06,2.31-19.12,17.23,1.74,8.48,3.44,17.2,4.71,24.09.74,4.02,1.28,7.19,1.62,9.44.54,3.6.97,6.45-2.05,7.06-.28.06-.51.1-.76.1Zm-49.64-9.27h0,0Zm28.26-17.57c2.98,2.76,6.3,5.86,10,9.32,2.66,2.49,5.35,5.01,7.61,7.1-1.12-6.44-3.03-16.29-5.03-26.14-1.12.87-2.29,1.78-3.52,2.74-2.97,2.31-6.03,4.66-9.05,6.99Zm-30.01,15.13s0,0,0,0h0Zm16.56-19.31c-2.3,3.91-4.73,8.06-7.28,12.43,3.41-2.57,7.32-5.53,11.43-8.67-1.4-1.28-2.79-2.54-4.15-3.76Zm3.1-5.27c1.76,1.58,3.72,3.35,5.88,5.33,5.29-4.06,10.71-8.26,15.7-12.15-.55-2.66-1.11-5.27-1.64-7.75-4.26.84-8.67,1.74-12.87,2.62-2.14,3.6-4.51,7.59-7.08,11.95Zm-9.6-8.2c1.39,1.09,3.05,2.46,5.02,4.16,1.22-2.06,2.44-4.13,3.64-6.16,0,0,.01-.02.02-.03-3.35.74-6.33,1.44-8.68,2.03Zm-7.18,2.26s.04,0,.07.01c-.02,0-.04,0-.07-.01Zm42.63-9.79c.01.06.03.12.04.18.32,1.49.64,3.02.97,4.58,3.03-2.39,5.78-4.58,8.08-6.44-2.67.48-5.77,1.05-9.09,1.69Zm-8.96-12.46c-1.45,2.32-3.34,5.43-5.64,9.24,1.08-.22,2.16-.44,3.21-.65,1.47-.3,2.87-.58,4.2-.85-.66-2.98-1.26-5.62-1.78-7.75Z"></path><path class="cls-2" d="m86.34,130.17c-.39,0-.79-.06-1.18-.19-1.96-.65-3.03-2.77-2.37-4.74,1.83-5.51,5.68-8.68,10.29-8.48,2.26.1,4.5,1.05,6.3,2.68,1.73,1.56,2.99,3.7,3.55,6.02.48,2.01-.76,4.03-2.77,4.51-2.01.48-4.03-.76-4.51-2.77-.33-1.38-1.53-2.9-2.89-2.96-1.6-.07-2.59,2.55-2.86,3.36-.52,1.57-1.98,2.57-3.55,2.57Z"></path><path class="cls-2" d="m125.43,129.9c-2.09-1.03-2.87-3.44-1.75-5.27.8-1.31,2.29-2.31,4.27-1.75.97.27,2.49.84,3.62.86,2.37.04,3.77-.29,5.54-1.38,1.76-1.08,3.87-.7,5.07.98,1.2,1.68.79,4.03-.88,5.22-5.13,3.68-12.27,3.12-15.88,1.33Z"></path><path class="cls-2" d="m112.83,185.39c-11.3,0-22.16-4.6-30.65-12.98-4.75-4.69-8.5-10.27-11.14-16.6-2.73-6.54-4.11-13.5-4.11-20.7,0-6.8,1.34-13.48,3.98-19.87,2.55-6.17,6.19-11.75,10.81-16.59,4.66-4.89,10.07-8.74,16.06-11.45,6.29-2.84,12.94-4.29,19.76-4.29,2.52,0,4.56,2.04,4.56,4.56,0,.91-.26,1.75-.72,2.46,3.2.3,6.34,1.01,9.39,2.13,4.91,1.81,9.47,4.65,13.57,8.45,5.13,4.75,9.37,10.87,12.26,17.71,2.84,6.71,4.25,13.8,4.09,20.49-.16,6.75-1.56,13.13-4.15,18.98-2.48,5.59-5.99,10.54-10.43,14.73-8.7,8.2-20.33,12.81-32.75,12.96-.18,0-.35,0-.53,0Zm-2.6-92.66c-2.97.58-5.87,1.5-8.69,2.78-4.92,2.22-9.37,5.4-13.22,9.44-3.84,4.02-6.86,8.66-8.98,13.79-2.18,5.27-3.29,10.79-3.29,16.39,0,11.71,4.57,22.94,12.54,30.81,6.87,6.79,15.63,10.46,24.66,10.35,10.13-.13,19.58-3.85,26.62-10.48,3.55-3.35,6.36-7.32,8.35-11.79,2.11-4.74,3.24-9.95,3.37-15.5.26-11.22-5.01-23.51-13.43-31.3-4.68-4.33-12.51-9.25-23.26-8.16-2.5.25-4.74-1.57-4.99-4.07-.08-.79.05-1.55.34-2.24Z"></path><path class="cls-2" d="m113.3,158.72c-2.85,0-5.57-.87-8-2.58-4.21-2.96-7.25-8.39-7.75-13.82-.15-1.62.97-3.09,2.58-3.36l24.89-4.31c1.59-.28,3.14.71,3.55,2.28.99,3.72,1.04,9.4-1.75,14.17-2.1,3.57-5.47,6.04-9.76,7.14-1.27.32-2.52.49-3.75.49Zm-8.92-14.17c.79,2.39,2.3,4.92,4.52,6.48,1.96,1.38,4.19,1.77,6.6,1.15,2.68-.69,4.68-2.12,5.93-4.25,1.22-2.08,1.58-4.5,1.51-6.59l-18.56,3.21Z"></path><path class="cls-2" d="m166.33,99.06c-.18,0-.35.03-.52.05-1.09.16-2.17.58-3.13,1.07-4.59,2.37-8.79,4.98-10.59,7.13-1.26,1.65-1.58,3.24-.64,5.07.99,1.91,3.37,3.44,5.04,2.25,4.36-3.05,9.09-5.49,13.34-8.67,1.27-.95.27-3.36-.54-4.88-.43-.81-1.07-1.54-1.84-1.84-.37-.15-.75-.19-1.12-.17Z"></path><path class="cls-2" d="m148.32,83.02c0,.16,0,.32-.01.47-.08.99-.39,1.98-.79,2.86-1.89,4.23-4.02,8.12-5.87,9.84-1.43,1.21-2.87,1.56-4.59.79-1.81-.81-3.35-2.88-2.36-4.44,2.52-4.05,4.46-8.41,7.11-12.37.79-1.19,3.06-.39,4.49.28.76.35,1.47.9,1.79,1.57.16.33.22.66.23,1Z"></path><path class="cls-2" d="m79.35,78.02c.17.06.34.13.5.2,1.04.47,1.99,1.19,2.81,1.94,3.93,3.62,7.41,7.36,8.66,9.95.84,1.95.76,3.59-.61,5.08s-4.14,2.34-5.49.7c-3.53-4.2-7.58-7.94-10.98-12.24-1.02-1.29.56-3.32,1.72-4.55.62-.65,1.43-1.17,2.25-1.24.4-.04.78.04,1.14.16Z"></path><path class="cls-2" d="m178.78,128.89c-.15-.08-.31-.16-.47-.22-1.02-.43-2.16-.65-3.24-.75-5.18-.48-10.16-.58-12.85.16-1.96.63-3.09,1.7-3.26,3.59-.18,1.97,1.02,4.34,3.09,4.27,5.34-.16,10.69.34,16.02.03,1.6-.09,2.03-2.46,2.15-4.03.06-.84-.09-1.73-.58-2.34-.24-.3-.54-.52-.86-.7Z"></path><path class="cls-2" d="m70.18,118.12c-.13-.11-.27-.2-.41-.3-.9-.59-1.95-1.01-2.97-1.3-4.87-1.42-9.62-2.44-12.32-2.25-1.99.22-3.26,1.01-3.76,2.74s.21,4.25,2.2,4.56c5.14.85,10.17,2.31,15.32,3.02,1.54.21,2.38-1.91,2.78-3.36.21-.77.22-1.63-.14-2.29-.17-.32-.42-.59-.7-.81Z"></path><path class="cls-2" d="m71.76,153.77c-.18,0-.36,0-.54.02-1.15.1-2.32.45-3.38.88-5.06,2.06-9.75,4.37-11.9,6.34-1.53,1.52-2.07,3.03-1.34,4.82.76,1.87,3.01,3.44,4.9,2.38,4.91-2.72,10.13-4.84,14.94-7.69,1.44-.85.73-3.2.1-4.69-.34-.79-.9-1.52-1.65-1.84-.36-.16-.75-.21-1.13-.22Z"></path><path class="cls-2" d="m89.79,178.1c-.13.11-.25.23-.36.35-.73.77-1.31,1.72-1.76,2.66-2.13,4.5-3.85,8.96-4.02,11.63-.04,1.99.6,3.38,2.31,4.19s4.42.59,5.01-1.3c1.59-4.87,3.79-9.51,5.23-14.42.43-1.47-1.65-2.69-3.09-3.34-.77-.35-1.65-.52-2.39-.3-.36.11-.66.3-.93.53Z"></path><path class="cls-2" d="m152.01,166.74c.1.14.21.27.33.39.74.8,1.68,1.43,2.61,1.92,4.48,2.34,8.95,4.22,11.7,4.42,2.04.06,3.53-.63,4.49-2.48s.94-4.78-.97-5.44c-4.9-1.75-9.53-4.16-14.48-5.75-1.48-.48-2.89,1.77-3.68,3.33-.42.83-.66,1.79-.48,2.59.08.39.26.72.48,1.01Z"></path><path class="cls-2" d="m130.61,181.83c0,.15,0,.31.02.46.09.97.41,1.93.8,2.79,1.89,4.12,4,7.91,5.82,9.57,1.4,1.17,2.8,1.51,4.46.75s3.21-2.83,2.23-4.34c-2.49-3.94-4.44-8.19-7.05-12.04-.78-1.15-2.97-.36-4.35.3-.73.35-1.41.89-1.72,1.54-.15.32-.2.65-.21.97Z"></path><path class="cls-2" d="m196.61,659.15c1.5-.85,3.26-1.16,4.74-.74,2.23.64,3.16,2.74,2.21,4.96l-10.91,25.32,13.07-19.74c1.49-2.24,4.49-3.53,6.9-2.95,2.41.58,3.42,2.83,2.32,5.16l-10.99,23.36,11.46-16.95c1.6-2.37,4.86-3.62,7.28-2.78,2.42.83,3.08,3.43,1.48,5.8l-45.17,66.84c-1.51,2.23-4.5,3.49-6.89,2.9-2.39-.59-3.39-2.83-2.3-5.16l9.33-19.84-6.81,10.28c-1.47,2.21-4.42,3.5-6.82,2.97-2.4-.53-3.47-2.71-2.47-5.03l18.4-42.69-36.88,45.27c-1.85,2.27-5.16,3.23-7.4,2.16-2.24-1.08-2.55-3.79-.7-6.06l58.18-71.41c.55-.68,1.23-1.24,1.99-1.67Z"></path><path class="cls-2" d="m187.6,650.81c1.81-1.03,3.97-1.25,5.54-.42,2.18,1.15,2.38,3.89.46,6.13l-59.75,69.47c-1.92,2.23-5.24,3.11-7.42,1.96-2.18-1.15-2.38-3.89-.46-6.13l59.75-69.47c.53-.62,1.18-1.14,1.87-1.53Z"></path><path class="cls-4" d="m656.72,774.32c-173.07-30.1-47.52-487.27-181.53-600.25-26.04-21.96-73.26-42.62-108.93-7.86-22.42,21.85-10.04,57.35,15.49,65.36,53.87,16.9,132.35-142.07-176.25-192.6"></path></svg> 