<?xml version="1.0" encoding="UTF-8"?> <svg xmlns="http://www.w3.org/2000/svg" id="icons" viewBox="0 0 799.03 799.39"><defs><style>.cls-1{fill:#e7bb86;}.cls-2{fill:#a0e6b4;}.cls-3{fill:#b08fe3;}.cls-4{fill:#e09585;}.cls-5{fill:none;stroke:#65d7e7;stroke-dasharray:0 0 0 0 0 0 5 15 5 15 5 15;stroke-linecap:round;stroke-miterlimit:10;stroke-width:6px;}</style></defs><path class="cls-4" d="m194.95,595.86c-2.07-2.95-4.51-6.74-6.69-10.21l-4.58-7.59c-2.53-6.95-5.35-11.34-6.45-12.91-2.65-3.77-4.73-5.65-6.57-5.92-.89-.13-1.68.21-2.53.76-.17.11-9.53,5.83-9.53,5.83l-3.94-6.63c-.67-1.12-1.76-1.93-3.03-2.24-1.27-.31-2.61-.09-3.72.59-8.53,5.29-17.17,12.72-25.7,22.07-6.86,7.52-11.87,14.38-14.25,17.8-11.7.07-24.94,3.44-31.8,5.44-10.93,3.19-19.98,7.03-24.2,10.26-2.13,1.63-2.44,4.62-.9,6.82,2,2.85,5.16,1.86,7.19.62.2.75.91,2.97,1.36,4.08l-11.84,7.04c-2.28,1.35-2.27,3.65-1.03,5.64l42.15,70.93c1.1,1.85,3.29,2.74,5.37,2.18,22.87-6.18,62.98-23.75,65.77-24.98,2.1-.84,3.29-1.82,4.71-2.87,1.18-.85,6.88-5.09,15.87-12.44,16.31-13.35,28.01-25,34.95-32.42,1.46-1.57,1.71-3.91.6-5.75l-16.83-27.92c-.05-.1-.1-.21-.15-.31-1.39-2.87-2.82-5.84-4.25-7.87Zm-128.61,20.65c3.41-1.39,7.64-2.89,12.56-4.33,10.83-3.16,22.04-5.31,29.72-5.36,3.15-.02,5.52-1.27,7.32-3.86,3.76-5.4,16.58-22.82,32.97-34.42l36.66,61.69c-5.92,6.1-20.07,21.37-28.89,36.55l-13.18-22.18c2.07-3.12,13.02-19.25,20.69-25.96,2.19-1.91,3.02-3.93,1.76-5.91-1.34-2.11-4.04-2.38-6.12-.99-6.82,4.56-14.89,15.88-20.89,23.97-.14.18-.27.36-.4.54l-5.39-9.07c1.06-1.4,2.16-3.34,3.46-5.15,4.66-6.46,11.52-15.85,16.26-20.1,1.92-1.72,2.61-3.7,1.47-5.55-1.31-2.12-4.19-2.65-6.27-1.26-6.12,4.07-13.01,14.03-18.65,21.84-.44.61-1,1.53-1.42,2.1l-6.62-10.96c-1.26-2.12-3.45-3.27-5.89-1.9-2.15,1.2-2.72,3.95-1.2,6.39l6.57,11.36c-.09.01-.17.02-.26.04-9.71,1.41-24.52,3.31-31.56,7.02-2.21,1.16-3.06,3.9-1.89,6.11,1.17,2.21,3.27,2.25,5.6,1.35,8.11-3.11,21.16-4.37,29.15-5.53,1.37-.2,2.66-.39,3.76-.55.06,0,.13-.02.19-.03l5.3,8.91c-9.56,1.56-25.26,3.9-33.12,8.02-2.21,1.16-3.07,3.89-1.91,6.11,1.16,2.21,3.83,2.68,6.09,1.63,6.89-3.21,22.52-5.42,30.91-6.78,1.15-.19,2.16-.35,3.06-.5l14.37,24.19c-10.25.24-32.1,1.32-47.87,6.1-7.07-11.05-30.66-47.74-35.26-61.22-.28-.83-.53-1.46-1.1-2.31Zm-8.65,20.43l6.04-3.59c10.71,20.97,31.77,53.47,32.85,55.13,1.24,1.9,3.34,2.74,5.76,1.91,9.78-3.34,24.6-5.39,36.04-6.17-12.76,5.26-30.14,12.09-43.11,15.94l-37.58-63.23Zm109.05,32c10.66-17.07,27.96-34.09,28.34-34.48,1.72-1.77,1.92-4.03.78-5.96l-32.36-54.44,4.84-2.88,37.75,62.61c-14.63,15.24-30.12,27.97-39.36,35.15Z"></path><path class="cls-4" d="m128.33,565.31c.9-1.29,2.68-3.54,3.71-4.66,1.07-1.16,1.9-1.41,3.13-2.46.85-.72,1.94-1.94,2.84-2.62,1.64-1.22,3.32-2.37,4.97-3.45,2.36-1.55,3.31-3.26,2.21-5.69-1.18-2.66-4.51-3.57-6.87-1.9-2.37,1.6-4.63,3.41-6.7,5.42-1.28,1.23-2.48,3.31-3.6,4.69-1.8,2.21-2.01,1.66-4.99,7.46-1.15,2.24.03,3.76.63,4.32,1.26,1.16,3.72.3,4.68-1.11Z"></path><path class="cls-2" d="m376.25,75.42c-.6-.22-1.18-.46-1.74-.74-8.73-4.3-6.12-11.62-4.56-15.99.68-1.92,1.39-3.9,1.66-5.98.38-2.92,1.83-5.39,4.19-7.15,5.64-4.2,14.8-2.95,16.58-2.66l1.72.28,1.12,1.34c.99,1.18,9.54,11.83,6.29,20.8-1.5,4.14-5.17,7.64-10.06,9.61-5.02,2.02-10.56,2.18-15.2.49Zm1.42-9.76c.12.11.4.33.98.61,2.55,1.26,6.12,1.24,9.31-.04,2.39-.96,4.17-2.5,4.75-4.11.88-2.41-1.37-7.01-3.6-10.17-2.73-.19-6.23.02-7.72,1.13-.32.24-.43.43-.49.84-.4,3.08-1.36,5.76-2.13,7.92-.45,1.25-1.11,3.11-1.11,3.82Z"></path><path class="cls-2" d="m341.79,87.68c-1.17-.42-2.27-.92-3.28-1.47-5.91-3.23-9.13-8.42-8.84-14.25.46-9.33,11.36-15.12,32.38-17.18,6.87-.68,13.39,2.34,17,7.87h0c4.59,7.02,2.68,14.54-5.12,20.11-10.48,7.49-23.35,8.11-32.14,4.92Zm25.33-23.06c-1.29-.47-2.71-.66-4.15-.51-17.34,1.7-23.82,5.91-23.94,8.32-.14,2.72,2.09,4.53,3.98,5.56,5.9,3.22,16.84,3.32,25.48-2.85,5.13-3.67,3.68-5.89,2.72-7.36-.95-1.45-2.4-2.54-4.09-3.15Z"></path><path class="cls-2" d="m365.83,59.83c-2.39-.87-4.78-2.43-7.07-4.68-10.4-10.24-12.65-25-9.49-34.3,2.17-6.38,6.73-10.45,12.51-11.16,13.87-1.72,27.21,28.12,29.02,34.64,1.97,7.1-4.79,9.59-7.68,10.65-1.39.51-2.97,1.09-3.67,1.75h0c-4.08,3.81-8.87,4.83-13.62,3.1Zm-1.98-40.71c-.34-.12-.64-.17-.91-.14-2.71.33-4.1,2.84-4.79,4.88-2.16,6.37-.37,17.16,7.19,24.61,4.5,4.42,6.43,2.61,7.71,1.42,2.09-1.95,4.72-2.92,6.84-3.7.45-.17,1.02-.38,1.51-.58-3.27-10.18-13.09-24.86-17.56-26.49Z"></path><path class="cls-2" d="m397,62.21c-3.46-1.25-5.13-5.24-5.98-7.27-.57-1.37-1.23-2.92-1.91-3.59-6-5.86-5.76-13.62.65-20.74,9.76-10.85,24.41-13.76,33.84-11.03,6.46,1.87,10.74,6.25,11.72,12,2.34,13.78-26.86,28.45-33.3,30.55-1.99.65-3.64.58-5,.08Zm24.77-33.37c-.27-.1-.54-.18-.79-.26-6.46-1.87-17.16.4-24.26,8.3-4.22,4.69-2.32,6.54-1.07,7.77h0c2.04,2,3.13,4.59,4,6.67.19.44.42,1,.64,1.48,10.77-4.01,26.42-15.81,25.76-19.65-.4-2.35-2.41-3.63-4.29-4.31Z"></path><path class="cls-2" d="m379.28,117.13c-.18-.06-.35-.13-.53-.2-5.43-2.22-8.68-9.33-9.64-21.15-.65-8-.14-17.56,1.25-23.26,1.75-7.16,8.86-6.03,11.9-5.54,1.47.23,3.13.5,4.06.27,8.15-2.01,14.61,2.29,17.28,11.49,4.07,14.02-1.18,28-8.48,34.56-4.84,4.36-10.58,5.74-15.84,3.83Zm-.1-41.13c-2.45,11.96-.22,30.89,3.11,32.25,2.54,1.04,4.96-.47,6.56-1.91,5-4.5,8.71-14.78,5.75-24.99-1.76-6.06-4.34-5.42-6.04-5h0c-2.77.68-5.55.24-7.78-.11-.47-.08-1.08-.17-1.6-.23Z"></path><path class="cls-2" d="m416.56,94.61c-8.1-2.94-15.9-10.42-21.11-15.41-1.68-1.61-3.13-3-4.25-3.94-.72-.6-2.9-2.43-2.99-5.35-.08-2.81,1.74-4.53,2.83-5.56.89-.84,1.26-1.24,1.4-1.86h0c1.81-8.19,8.52-12.08,17.96-10.4,14.48,2.58,23.86,12.83,26.74,21.85,2.11,6.62.92,12.86-3.27,17.13-5.33,5.42-11.4,5.7-17.31,3.55Zm-17.58-24.98c.91.84,1.89,1.78,2.96,2.8,9.66,9.26,19.57,17.83,25.24,12.06,2.29-2.33,1.63-5.83,1.03-7.71-1.95-6.13-8.87-13.58-19.45-15.47-6.21-1.11-6.78,1.48-7.16,3.2h0c-.51,2.29-1.58,3.93-2.62,5.12Z"></path><path class="cls-2" d="m380.03,75.7c-8.31-3.02-12.62-12.24-9.6-20.55,3.02-8.31,12.24-12.62,20.55-9.6,8.31,3.02,12.62,12.24,9.6,20.55-3.02,8.31-12.24,12.62-20.55,9.6Zm7.75-21.34c-3.46-1.25-7.29.54-8.54,3.99-1.25,3.46.54,7.29,3.99,8.54,3.46,1.25,7.29-.54,8.54-3.99s-.54-7.29-3.99-8.54Z"></path><path class="cls-3" d="m462.56,51.09c-.29-.17-.58-.36-.85-.56-4.19-3.09-2.12-6.7-.88-8.85.54-.94,1.1-1.92,1.44-2.99.48-1.5,1.47-2.67,2.88-3.37,3.37-1.67,8.07-.15,8.98.17l.88.31.46.81c.41.72,3.91,7.13,1.34,11.55-1.18,2.04-3.45,3.53-6.21,4.11-2.83.59-5.77.15-8.05-1.18Zm1.67-5.01c.05.07.18.21.46.42,1.22.9,3.1,1.23,4.9.86,1.35-.28,2.43-.92,2.89-1.71.69-1.19-.06-3.82-.93-5.7-1.42-.36-3.28-.58-4.17-.14-.19.1-.27.19-.34.39-.5,1.58-1.26,2.91-1.87,3.97-.35.62-.88,1.53-.94,1.91Z"></path><path class="cls-3" d="m443.25,54.28c-.58-.33-1.11-.7-1.59-1.08-2.81-2.26-4.01-5.3-3.31-8.34,1.13-4.87,7.41-6.88,18.68-5.98,3.68.29,6.83,2.5,8.21,5.75h0c1.75,4.13.03,7.91-4.6,10.11-6.23,2.95-13.06,2.06-17.39-.45Zm15.52-9.74c-.63-.37-1.36-.6-2.14-.66-9.29-.75-13.1.86-13.39,2.11-.33,1.42.67,2.58,1.57,3.3,2.8,2.26,8.55,3.34,13.69.91,3.05-1.44,2.5-2.75,2.13-3.62-.36-.85-1.02-1.57-1.85-2.05Z"></path><path class="cls-3" d="m458.55,41.89c-1.18-.68-2.29-1.73-3.28-3.13-4.51-6.38-4.29-14.37-1.75-18.96,1.74-3.15,4.53-4.86,7.65-4.69,7.47.41,11.66,17.38,12,20.99.37,3.93-3.43,4.6-5.05,4.88-.78.14-1.67.29-2.1.57h0c-2.51,1.62-5.13,1.7-7.47.34Zm2.81-21.62c-.17-.1-.32-.15-.47-.16-1.46-.08-2.43,1.11-2.98,2.11-1.74,3.15-1.82,9,1.46,13.64,1.95,2.76,3.14,1.99,3.93,1.48,1.28-.83,2.76-1.09,3.95-1.3.25-.04.57-.1.85-.16-.76-5.67-4.54-14.33-6.74-15.61Z"></path><path class="cls-3" d="m474.74,46.1c-1.7-.99-2.21-3.25-2.46-4.4-.17-.77-.37-1.65-.67-2.07-2.61-3.66-1.74-7.72,2.31-10.86,6.17-4.79,14.16-4.93,18.86-2.6,3.23,1.6,5.06,4.31,5.03,7.43-.07,7.48-16.84,12.43-20.43,12.93-1.11.15-1.97-.04-2.64-.43Zm16.21-15.23c-.13-.08-.26-.15-.39-.21-3.22-1.6-9.07-1.42-13.56,2.07-2.67,2.07-1.84,3.23-1.3,3.99h0c.89,1.25,1.21,2.71,1.48,3.89.06.25.13.57.2.84,6.05-1.09,15.41-5.82,15.43-7.91.01-1.28-.93-2.14-1.85-2.68Z"></path><path class="cls-3" d="m460.21,73.34c-.09-.05-.17-.1-.26-.16-2.65-1.68-3.69-5.74-3.08-12.05.41-4.27,1.59-9.26,2.86-12.13,1.6-3.61,5.24-2.33,6.79-1.79.75.26,1.6.56,2.11.53,4.48-.28,7.47,2.59,8.01,7.69.82,7.77-3.27,14.63-7.74,17.4-2.96,1.84-6.12,2.02-8.71.52Zm3.84-21.67c-2.42,6.06-3.04,16.25-1.42,17.28,1.24.79,2.66.22,3.64-.39,3.06-1.9,5.99-6.96,5.39-12.61-.35-3.36-1.77-3.27-2.71-3.21h0c-1.53.1-2.94-.4-4.08-.8-.24-.08-.55-.19-.82-.28Z"></path><path class="cls-3" d="m481.97,65.01c-3.99-2.31-7.38-6.99-9.65-10.12-.73-1.01-1.36-1.88-1.86-2.48-.32-.38-1.3-1.56-1.06-3.1.22-1.48,1.35-2.22,2.02-2.66.55-.36.78-.53.91-.84h0c1.73-4.14,5.63-5.55,10.44-3.78,7.38,2.73,11.35,9.02,12.01,14.04.49,3.69-.73,6.86-3.35,8.71-3.32,2.35-6.54,1.92-9.45.23Zm-6.89-14.82c.4.53.83,1.11,1.29,1.76,4.21,5.79,8.62,11.24,12.15,8.74,1.43-1.01,1.41-2.92,1.27-3.96-.45-3.41-3.39-7.99-8.78-9.99-3.17-1.17-3.71.14-4.07,1.01h0c-.48,1.16-1.21,1.92-1.86,2.45Z"></path><path class="cls-3" d="m464.53,51.59c-4.09-2.38-5.49-7.64-3.11-11.73,2.38-4.09,7.64-5.49,11.73-3.11,4.09,2.38,5.49,7.64,3.11,11.73s-7.64,5.49-11.73,3.11Zm6.1-10.5c-1.7-.99-3.89-.41-4.88,1.29-.99,1.7-.41,3.89,1.29,4.88,1.7.99,3.89.41,4.88-1.29.99-1.7.41-3.89-1.29-4.88Z"></path><path class="cls-1" d="m612.9,729.17c-.86,0-1.71-.36-2.3-1.07-1.06-1.27-.9-3.16.37-4.22h0c.15-.12,14.86-12.67,14.31-26.31-.26-6.5-4.06-12.41-11.28-17.55-8.08-5.76-16.69-1.89-22.05,3.65-5.94,6.14-9.29,15.84-4.2,22.5,2.19,2.86,5.51,4.56,8.92,4.56.05,0,.09,0,.14,0,3.34-.05,6.38-1.73,8.54-4.73,1.63-2.25,1.13-3.99.7-4.82-.59-1.13-1.71-1.83-2.88-1.82-1.69.04-3.38,1.59-4.65,4.27-.71,1.5-2.5,2.14-3.99,1.43s-2.14-2.5-1.43-3.99c2.27-4.81,5.9-7.62,9.94-7.71,3.51-.06,6.65,1.85,8.32,5.03,1.82,3.46,1.39,7.62-1.14,11.12-3.31,4.59-8.04,7.15-13.33,7.22-5.38.06-10.55-2.51-13.91-6.92-7.15-9.36-3.07-22.34,4.65-30.32,8.92-9.22,20.63-10.93,29.84-4.37,8.82,6.28,13.46,13.76,13.79,22.22.65,16.6-15.75,30.54-16.45,31.12-.56.47-1.25.7-1.92.7Z"></path><path class="cls-1" d="m71.67,748.43c-8.4,0-15.24-6.46-15.24-14.41s6.84-14.41,15.24-14.41c10.91,0,10.91,10.85,10.91,14.41s0,14.41-10.91,14.41Zm0-24.18c-5.7,0-10.33,4.38-10.33,9.77s4.64,9.77,10.33,9.77c3.71,0,6-1.63,6-9.77s-2.3-9.77-6-9.77Z"></path><path class="cls-4" d="m98.72,774.32c-9.45,0-17.14-6.75-17.14-15.05s7.69-15.05,17.14-15.05c12.27,0,12.27,11.33,12.27,15.05s0,15.05-12.27,15.05Zm0-25.25c-6.41,0-11.62,4.58-11.62,10.2s5.21,10.2,11.62,10.2c4.17,0,6.75-1.71,6.75-10.2s-2.58-10.2-6.75-10.2Z"></path><path class="cls-1" d="m545.52,790.19c-.85,0-1.7-.36-2.29-1.07-.48-.57-11.82-14.26-19.06-41.67-6.62-25.08-10.87-66.96,6.51-124.03,16.47-54.07,54.33-91.24,90.94-127.18,26.12-25.65,50.8-49.87,66.53-78.89,17.6-32.47,21.23-66.04,11.42-105.64-6.24-25.18-15.4-51.77-24.25-77.49-26.1-75.81-53.1-154.2-14.83-216.81.86-1.41,2.71-1.86,4.12-1,1.41.86,1.86,2.71,1,4.12-36.8,60.2-10.27,137.23,15.38,211.73,8.9,25.84,18.1,52.56,24.4,78,22.35,90.2-27.16,138.8-79.57,190.25-36.08,35.42-73.38,72.04-89.4,124.64-16.91,55.51-12.9,96.09-6.56,120.36,6.86,26.25,17.85,39.6,17.96,39.73,1.06,1.27.9,3.16-.37,4.22-.56.47-1.25.7-1.93.7Z"></path><path class="cls-5" d="m700.64,18.98c-50.55,82.68-54.45,192.36-30.08,290.68,37.24,150.31-59.89,184.85-99.42,314.63-33.25,109.18,11.97,162.9,11.97,162.9"></path></svg> 