<?xml version="1.0" encoding="UTF-8"?> <svg xmlns="http://www.w3.org/2000/svg" id="Layer_1" viewBox="0 0 450 335"><defs><style>.cls-1{fill:#fff;}.cls-2{fill:#ececec;}.cls-3{fill:#bca5cf;}.cls-4{fill:#111035;}</style></defs><rect class="cls-1" width="450" height="335"></rect><rect class="cls-2" y="199.03" width="450" height="64.08"></rect><rect class="cls-2" y="72.05" width="450" height="63.59"></rect><polygon class="cls-3" points="330.94 263.11 312.31 263.11 332.04 72.05 350.68 72.05 330.94 263.11"></polygon><path class="cls-4" d="m92.22,175.8c-9.74,14.9-26.94,23.5-38.98,23.5h-15.86c-1.91,0-3.44-1.72-3.25-3.63l12.61-120.75c.19-1.53,1.72-2.87,3.25-2.87h15.48c18.92,0,29.23,8.02,35.35,20.63,5.92,12.23,6.88,28.47,5.35,43.37-1.53,15.09-6.88,28.85-13.95,39.74Zm2.67-80.44c-4.78-10.89-12.99-16.81-29.42-16.81h-12.42l-12.04,114.26h12.23c9.55,0,24.65-6.88,33.63-20.63,8.6-13.18,13.37-30.76,13.37-47.96,0-10.13-1.53-20.06-5.35-28.85Z"></path><path class="cls-4" d="m146.48,193.56l-17.2-23.12-2.67,25.98c-.38,4.2-6.88,3.63-6.5-.76l12.8-120.75c.57-4.39,6.88-3.44,6.5.76l-9.17,85.41,30.95-24.65c3.63-3.06,7.83,2.29,4.01,5.16l-30.76,24.46,17.39,23.5c2.29,3.06,4.2,4.01,6.31,4.01,2.29,0,4.39-1.15,8.6-6.88,10.51-14.33,17.2-26.75,29.62-49.49,1.72-3.06,7.83-1.15,5.35,3.44-5.92,11.46-19.3,36.3-29.81,50.06-3.63,4.78-7.64,9.36-13.37,9.36-4.97,0-8.41-1.53-12.04-6.5Z"></path><path class="cls-4" d="m242.97,182.1c-.57,4.97-.96,11.46,3.44,11.46,2.87,0,5.73-3.06,7.83-5.73,8.6-10.7,16.62-23.31,22.93-32.86,1.72-2.67,4.39-6.88,6.69-9.55,1.91-2.48,6.31.38,4.59,3.25-9.17,14.71-20.83,32.67-29.62,43.75-4.78,5.92-8.6,7.64-13.37,7.64-3.06,0-5.54-1.34-7.07-3.44-2.87-4.01-2.48-9.94-1.91-15.29l2.48-23.69c.76-7.07.19-15.86-6.88-15.86-12.04,0-26.37,24.07-31.72,36.3-1.15,2.48-2.48,7.07-2.87,9.94l-1.15,8.41c-.57,4.2-6.88,3.63-6.5-.76l6.11-57.13c.38-4.2,6.88-3.63,6.5.76l-2.87,26.18c5.73-11.46,19.49-30.57,32.86-30.57,11.27,0,14.14,12.04,12.99,22.74l-2.48,24.46Z"></path><path class="cls-4" d="m318.63,168.34c-1.53,3.25-5.54,10.89-9.55,17.39-5.16,8.22-10.89,14.33-18.72,14.33-4.59,0-8.41-2.29-11.08-5.73-4.01-5.16-5.16-13.18-5.16-19.87,0-9.74,2.48-20.06,9.74-29.04,2.29-2.87,5.73-5.73,10.13-7.83,3.82-1.72,7.45-2.29,10.89-2.29,5.73,0,11.65,2.1,16.24,7.26l.38-4.01c.38-4.39,6.88-3.63,6.5.76l-5.54,51.59s31.91-40.12,37.83-47.19c2.29-2.67,7.45.57,4.39,4.39l-43.56,54.84-2.87,27.32c-1.34,12.99-3.63,32.86-18.53,32.86-5.54,0-10.51-5.16-10.13-15.67.57-16.24,14.14-34.01,25.41-47.58l2.1-18.53,1.53-12.99Zm-37.83,6.11c0,11.08,3.82,18.92,9.55,18.92,4.59,0,8.6-4.01,13.37-11.27,7.64-11.85,15.09-29.04,16.05-32.29-4.2-5.54-9.55-8.22-14.9-8.22-16.24,0-24.07,18.53-24.07,32.86Zm15.29,73.37c-.19,5.54,1.72,8.79,4.59,8.79,8.41,0,10.32-19.87,11.08-27.13l2.1-18.15c-8.6,10.51-17.39,24.84-17.77,36.49Z"></path><path class="cls-4" d="m370.4,200.06c-15.48,0-20.25-16.24-19.68-28.85.38-8.98,3.44-20.06,9.55-27.51,2.1-2.67,4.97-4.97,8.02-6.5,3.25-1.53,6.5-2.29,9.94-2.29,4.39,0,8.02,1.15,10.89,3.25,7.07,5.16,12.61,5.54,17.58,5.16,4.01-.19,6.31,4.59.57,6.5-2.48.76-6.69,1.34-10.51.38,1.15,4.01,1.53,8.22,1.34,12.42-.57,15.48-10.51,37.45-27.7,37.45Zm7.64-58.66c-5.35,0-9.36,2.48-12.61,6.31-5.35,6.5-7.83,16.43-8.02,23.69-.38,9.17,2.29,22.16,13.57,22.16,12.8,0,20.06-20.25,20.44-30.95.38-9.17-2.1-21.21-13.37-21.21Z"></path></svg> 