<?xml version="1.0" encoding="UTF-8"?> <svg xmlns="http://www.w3.org/2000/svg" id="Layer_1" viewBox="0 0 450 335"><defs><style>.cls-1{fill:#fff;}.cls-2{fill:#ececec;}.cls-3{fill:#bca5cf;}.cls-4{fill:#111035;}</style></defs><rect class="cls-1" width="450" height="335"></rect><rect class="cls-2" y="199.03" width="450" height="66.83"></rect><rect class="cls-2" y="69.29" width="450" height="66.35"></rect><polygon class="cls-3" points="329.94 265.86 311.3 265.86 345.96 69.29 364.59 69.29 329.94 265.86"></polygon><path class="cls-4" d="m108.35,152.92c4.72-6.3,10.43-14.17,13.97-19.68.59-.98,1.57-1.77,2.95-1.77,1.77,0,3.34,1.57,3.34,3.34,0,.98-.2,1.97-.39,3.15l-10.43,59.42c-.39,2.16-1.97,2.95-3.34,2.95-2.36,0-3.74-1.97-3.34-4.13l6.69-38.17,1.77-9.05h-.2l-5.9,8.46c-22.23,30.69-38.17,42.89-52.34,42.89-6.1,0-11.81-1.57-16.13-6.1-8.26-8.85-5.9-23.61-4.13-32.86,1.38-7.08,5.71-25.19,8.46-35.02,8.66-30.5,12.79-41.32,28.53-50.37,6.89-3.94,16.13-5.9,25.78-6.3,4.13-.2,18.69-.39,27.74-.39,1.77,0,3.34,1.57,3.34,3.34s-1.57,3.34-3.34,3.34c-8.46,0-21.84,0-27.15.39-9.05.59-16.72,1.97-23.02,5.51-12.79,7.28-16.92,17.51-25.19,46.44-2.16,7.67-7.08,27.74-8.46,35.02-1.57,8.26-3.15,20.46,2.36,26.17,2.95,2.95,6.89,4.13,11.22,4.13,16.72,0,36.4-26.17,47.22-40.73Z"></path><path class="cls-4" d="m202.01,182.82c-.39,1.97-.79,4.92-.79,6.49,0,2.56.79,4.33,3.34,4.33,3.15,0,5.9-2.36,12.59-9.05l48.4-48.4c.98-.98,1.77-1.38,2.95-1.38,1.77,0,3.15,1.57,3.15,3.34,0,.79-.2,1.77-1.18,2.75l-48.4,48.4c-8.07,8.07-12,11.02-17.32,11.02-7.67,0-10.43-4.33-10.43-11.02,0-1.97.39-5.12.98-8.46l3.74-21.45c.59-3.15,1.38-8.26,1.38-11.81,0-3.94-.79-6.1-3.74-6.1-11.02,0-28.73,24.6-36.99,38.57-2.75,4.72-7.67,13.77-9.25,17.31-.98,2.16-2.16,2.95-3.54,2.95-2.36,0-3.74-1.97-3.34-4.13l21.64-124.16c.39-1.97,1.97-2.75,3.34-2.75,2.36,0,3.74,1.97,3.34,3.94l-16.13,92.48-2.16,10.63h.2c7.67-12,26.56-41.91,43.09-41.52,3.15,0,5.51.98,7.28,2.56,2.36,2.16,3.15,5.51,3.15,9.64s-.79,9.84-1.38,13.18l-3.94,22.63Z"></path><path class="cls-4" d="m294.88,168.46c3.74-6.1,9.44-17.51,14.56-31.09.79-2.16,2.36-2.56,3.34-2.56.79,0,1.38.2,1.77.39,6.3,2.56,11.81,3.34,17.31,3.34,11.22,0,17.71-3.74,20.07-3.74,1.77,0,3.15,1.38,3.15,3.34,0,1.38-.59,2.56-2.16,3.15-6.3,2.36-13.38,4.13-21.05,4.13-4.33,0-9.64-.2-16.92-1.97-4.53,11.02-10.82,23.02-14.17,28.53-12.79,21.45-22.63,28.33-31.68,28.33-6.89,0-11.81-4.13-11.81-12.79,0-3.54.98-9.84,1.77-14.56l6.1-35.42c.39-1.97,1.97-2.75,3.34-2.75,2.36,0,3.74,1.97,3.34,3.94l-6.3,36.79c-.59,3.54-1.38,8.46-1.38,11.41,0,4.53,1.77,6.69,4.92,6.69,6.3,0,14.56-6.49,25.78-25.19Z"></path><path class="cls-4" d="m348.59,137.57c.39-1.97,1.97-2.75,3.34-2.75,2.36,0,3.74,1.97,3.34,3.94l-3.74,21.25c-.79,4.33-1.77,10.03-2.95,15.74h.2c.59-.79,6.69-10.03,11.61-15.94,7.28-8.66,14.56-16.33,19.87-20.27,4.53-3.34,8.26-4.72,12.2-4.72,4.92,0,9.84,2.95,9.84,11.61,0,4.92-.79,11.22-2.36,19.09-2.56,12.2-5.9,19.68-11.22,24.99-2.75,2.75-6.3,5.31-10.03,6.89-5.12,2.16-11.41,2.95-19.48,2.95h-14.56l-11.02,62.57c-.39,2.16-1.97,2.95-3.34,2.95-2.36,0-3.74-1.97-3.34-4.13l21.64-124.16Zm43.48,3.94c-2.36,0-5.31,1.57-9.44,4.92-5.71,4.72-12.59,12.2-16.92,17.71-8.07,10.03-16.33,22.23-19.87,29.51h15.54c5.9,0,10.03-.59,13.77-2.16,2.75-1.18,5.71-2.95,8.46-5.71,5.31-5.31,7.67-13.18,9.84-23.22,1.38-6.3,1.97-12.99,1.97-15.15,0-4.13-.98-5.9-3.34-5.9Z"></path></svg> 