<?xml version="1.0" encoding="UTF-8"?> <svg xmlns="http://www.w3.org/2000/svg" id="Layer_1" viewBox="0 0 450 335"><defs><style>.cls-1{fill:#fff;}.cls-2{fill:#ececec;}.cls-3{fill:#bca5cf;}.cls-4{fill:#111035;}</style></defs><rect class="cls-1" width="450" height="335"></rect><rect class="cls-2" y="199.03" width="450" height="67.91"></rect><rect class="cls-2" y="69.46" width="450" height="66.18"></rect><polygon class="cls-3" points="246.34 266.94 227.7 266.94 263.07 69.29 281.7 69.29 246.34 266.94"></polygon><path class="cls-4" d="m100.36,167.91c-13.84,19.97-29.45,33.41-46.26,33.41-15.62,0-20.16-14.63-20.16-28.86,0-7.71.99-16.01,1.98-20.76l14.04-79.27c.2-1.78,1.38-2.96,3.16-2.96,2.17,0,3.76,2.17,3.36,4.15l-13.84,78.87c-.59,3.95-1.98,12.85-1.98,20.16,0,8.1,1.98,21.74,13.44,21.74,14.43,0,28.07-12.45,40.92-30.44,11.07-16.01,22.93-39.14,31.23-58.12,5.53-13.05,8.3-21.15,11.66-33.6.4-1.78,1.98-2.77,3.16-2.77,2.37,0,3.95,2.17,3.56,4.15l-22.14,124.74c-.2,1.58-1.58,2.77-3.16,2.77-2.17,0-3.76-1.98-3.36-3.95l12.65-72.35,3.76-16.41c-8.3,19.37-20.36,43.29-32.02,59.5Z"></path><path class="cls-4" d="m212.45,193.01c-5.73,6.72-9.88,8.3-14.04,8.3-3.16,0-5.93-1.58-7.31-3.76-2.77-4.15-2.17-10.08-.99-15.42l5.34-23.72c1.19-5.14,2.57-16.61-4.74-16.61-9.69,0-20.36,17.4-24.91,24.51-7.31,11.86-10.48,21.55-13.24,31.83l-11.66,65.83c-.2,1.98-1.58,2.97-3.36,2.97-2.17,0-3.76-1.98-3.36-3.95l22.14-124.74c.2-1.78,1.58-2.97,3.36-2.97,2.17,0,3.56,1.98,3.16,4.15l-3.16,18.58-2.17,9.88h.2c4.74-9.49,18.38-33.01,33.41-33.01,5.34,0,8.3,2.37,10.28,6.13,2.57,5.53,1.98,12.85.59,19.17l-5.53,24.91c-.59,2.77-1.78,9.49,2.37,9.49,2.37,0,4.35-1.19,7.51-4.74l38.35-44.08c1.38-1.58,3.36-3.76,3.95-4.15,1.98-1.98,5.53,3.36.59,9.09l-36.77,42.3Z"></path><path class="cls-4" d="m260.48,193.01c-5.73,6.72-9.88,8.3-14.04,8.3-3.16,0-5.93-1.58-7.31-3.76-2.97-4.15-2.17-10.28-1.19-15.62l7.71-43.69c.2-1.78,1.58-2.97,3.36-2.97,2.17,0,3.56,1.98,3.16,4.15l-7.91,45.47c-.59,2.77-1.58,9.69,2.57,9.69,2.37,0,4.35-1.19,7.51-4.74l38.35-44.08c1.38-1.58,3.36-3.76,3.95-4.15,1.98-1.98,5.53,3.36.59,9.09l-36.77,42.3Zm-8.5-79.67c2.57,0,4.55,1.98,4.55,4.55,0,2.37-1.98,4.35-4.55,4.35-2.37,0-4.35-1.98-4.35-4.35,0-2.57,1.98-4.55,4.35-4.55Z"></path><path class="cls-4" d="m324.14,176.8l26.29-29.85c1.38-1.58,2.77-2.77,2.77-2.77,1.98-1.98,6.33,2.57,1.58,7.91l-25.7,29.45c-16.01,18.38-22.93,19.97-29.26,19.97-5.14,0-9.49-2.77-12.26-7.12-2.57-3.95-3.95-10.28-3.95-17.59,0-9.29,2.77-19.77,7.51-28.47,3.95-6.92,10.67-13.44,17.99-13.44,5.53,0,9.09,3.36,9.09,9.49,0,11.47-14.23,26.29-27.48,27.67-.2,1.98-.2,3.36-.2,4.74,0,11.27,3.36,17.99,9.88,17.99,3.95,0,9.09-1.38,23.72-17.99Zm-32.02-12.06c8.3-1.38,19.37-12.26,19.37-20.36,0-1.78-.79-2.97-2.57-2.97-4.55,0-9.09,5.34-11.86,10.28-2.37,4.55-4.15,8.9-4.94,13.05Z"></path><path class="cls-4" d="m383.64,168.5c-4.94,10.28-18.38,32.81-33.01,32.81-4.15,0-6.72-1.78-8.7-4.74-2.57-4.15-2.97-9.29-2.97-14.23,0-12.26,4.15-28.66,14.23-38.15,6.72-6.13,14.83-9.09,24.12-9.09,3.76,0,7.51,0,11.86.59l11.07-63.26c.4-1.78,1.58-2.96,3.16-2.96,2.37,0,3.95,2.17,3.56,4.15l-19.77,111.49c0,.79-.2,2.57-.2,3.56,0,3.36.99,5.73,4.55,5.73,3.16,0,6.33-2.57,9.88-6.33l8.9-9.09c.99-.99,1.98-1.19,2.57-1.19,1.78,0,3.16,1.58,3.16,3.36,0,.79,0,1.58-1.19,2.77l-8.9,9.09c-5.73,5.93-10.67,8.1-14.63,8.1-4.55,0-7.71-1.58-9.29-4.55-2.17-3.76-1.98-8.9-.99-14.63l.59-3.36,2.17-10.08h-.2Zm-37.95,14.83c0,5.53.99,11.27,5.73,11.27,8.9,0,19.77-17.59,24.12-24.71,5.14-8.5,9.29-17.79,12.06-27.28-3.76-.59-6.92-.79-11.47-.79-5.34,0-12.85,1.58-18.58,7.71-8.3,8.7-11.86,21.94-11.86,33.8Z"></path></svg> 