<?xml version="1.0" encoding="UTF-8"?> <svg xmlns="http://www.w3.org/2000/svg" id="Layer_1" viewBox="0 0 450 335"><defs><style>.cls-1{fill:#fff;}.cls-2{fill:#ececec;}.cls-3{fill:#bca5cf;}.cls-4{fill:#111035;}</style></defs><rect class="cls-1" x="0" width="450" height="335"></rect><rect class="cls-2" x="0" y="199.03" width="450" height="67"></rect><rect class="cls-2" x="0" y="69.73" width="450" height="65.92"></rect><polygon class="cls-3" points="160.39 266.03 141.76 266.03 193.7 69.71 212.34 69.71 160.39 266.03"></polygon><path class="cls-4" d="m59.47,73.65c.59-2.55.98-3.33,4.31-3.73,4.12-.39,9.41-.59,14.32-.59,17.06,0,36.87,5.69,36.87,26.08,0,25.89-27.06,39.03-56.28,42.16l36.87,57.07c.59.98.78,1.57.78,2.55,0,1.77-1.37,3.33-3.33,3.33-.78,0-1.96-.2-2.75-1.57l-40.01-61.97-15.69,60.6c-.39,1.77-1.77,2.94-3.53,2.94-1.57,0-3.73-1.77-2.94-4.51l31.38-122.37Zm18.63,2.35c-3.92,0-8.43.2-12.36.59l-14.12,54.52c23.93-.59,56.87-10.98,56.48-36.28-.2-14.71-16.28-18.83-30.01-18.83Z"></path><path class="cls-4" d="m143.21,135.23c6.86,0,13.14,2.55,17.45,8.24.78.98,1.77,2.55,1.77,3.92,0,1.77-1.57,3.33-3.33,3.33-.98,0-2.16-.39-3.14-1.96-3.14-4.71-7.65-7.06-12.75-7.06-8.04,0-15.89,5.49-15.89,12.94,0,4.31,2.94,6.86,6.47,7.65l8.63,1.96c7.84,1.77,14.9,5.3,14.9,15.3,0,12.75-10.98,21.18-23.93,21.18-6.86,0-14.32-3.14-18.63-9.02-1.18-1.57-1.96-3.33-1.96-4.31,0-2.16,1.57-3.53,3.33-3.53,1.18,0,2.35.59,3.33,2.35,2.75,4.9,7.65,8.04,13.53,8.04,8.83,0,17.45-5.3,17.45-14.32,0-6.08-4.12-8.43-9.02-9.41l-9.02-1.96c-6.86-1.57-11.77-5.88-11.77-13.92,0-3.53,1.18-6.86,2.94-9.61l1.37-1.77c2.16-2.55,4.71-4.51,8.04-5.88,3.14-1.37,6.67-2.16,10.2-2.16Z"></path><path class="cls-4" d="m207.92,72.67c.39-1.77,1.77-2.75,3.33-2.75,2.16,0,3.73,1.96,3.14,4.31l-19.61,76.29c10.98-12.16,21.96-15.49,29.42-15.49,11.96,0,19.42,7.65,19.42,19.81,0,21.18-16.87,45.89-37.07,45.89-7.84,0-16.28-3.73-21.38-12.94l-2.55,9.81c-.39,1.77-1.77,2.94-3.53,2.94-1.57,0-3.73-1.77-2.94-4.51l14.9-57.85,16.87-65.5Zm16.28,69.03c-13.53,0-29.22,15.89-34.52,28.63l-1.57,6.28c1.77,9.41,9.22,17.45,17.85,17.45,16.67,0,30.59-21.96,30.59-39.03,0-8.24-4.71-13.34-12.36-13.34Z"></path><path class="cls-4" d="m319.9,138.17c.39-1.77,1.77-2.94,3.33-2.94,2.16,0,3.73,1.96,3.14,4.51l-10.59,41.18c-.39,1.57-1.37,4.71-1.37,7.45,0,3.14,1.18,5.69,4.51,5.69,13.14,0,43.93-34.71,49.42-55.7.39-1.77,1.37-3.14,3.33-3.14,2.16,0,2.94,1.57,2.94,3.33,0,.78-.2,1.57-.39,2.35-3.73,10.98-12.94,28.04-25.89,41.38-11.18,11.57-20.98,18.43-29.42,18.43-7.84,0-11.18-5.69-11.18-11.96,0-2.16.39-5.1,1.57-9.41l.98-3.53h-.2c-2.75,3.53-5.69,6.67-8.04,9.02-11.57,10.98-21.57,15.89-29.81,15.89s-13.53-5.49-13.53-15.69c0-12.55,5.69-25.3,14.32-35.1l2.35-2.55c3.92-3.92,8.83-7.45,13.92-9.61,3.73-1.57,8.43-2.55,12.55-2.55,5.3,0,11.37,1.77,16.87,7.45l1.18-4.51Zm-47.07,55.89c6.47,0,15.89-5.69,25.1-14.51,8.43-8.04,15.69-18.24,18.83-29.02-3.53-5.3-9.02-8.63-15.49-8.63-6.86,0-13.73,3.73-18.63,8.04-9.61,8.63-16.87,22.16-16.87,35.1,0,6.28,2.75,9.02,7.06,9.02Z"></path><path class="cls-4" d="m341.48,239.95c3.14-10,7.26-26.08,8.04-29.02l17.85-69.03h-13.92c-1.96,0-3.33-1.57-3.33-3.33s1.37-3.33,3.33-3.33h15.69l3.92-15.3c.98-3.73,5.49-21.18,7.45-27.26,4.31-13.73,10-22.95,21.57-22.95,5.3,0,10,1.77,13.34,6.47,2.35,3.33,4.51,9.22,4.51,12.36,0,2.16-1.57,3.53-3.33,3.53-1.57,0-2.94-.98-3.33-2.55-1.37-6.28-3.92-13.14-10.98-13.14-7.45,0-11.77,7.26-15.3,18.24-1.96,5.88-6.47,22.95-7.26,26.08l-3.73,14.51h18.04c1.96,0,3.33,1.57,3.33,3.33s-1.37,3.33-3.33,3.33h-19.81l-18.24,71.19c-.78,3.14-5.69,21.96-8.04,29.81-4.12,13.53-10.2,23.14-24.32,23.14-7.06,0-13.92-3.92-20-9.61-.59-.59-2.16-1.96-2.16-4.12,0-1.96,1.57-3.53,3.33-3.53,1.57,0,2.55.78,3.92,2.16,4.71,4.51,9.61,8.24,15.1,8.24,11.77,0,15.69-13.14,17.65-19.22Z"></path></svg> 