<?xml version="1.0" encoding="UTF-8"?> <svg xmlns="http://www.w3.org/2000/svg" id="Layer_1" viewBox="0 0 450 335"><defs><style>.cls-1{fill:#fff;}.cls-2{fill:#ececec;}.cls-3{fill:#bca5cf;}.cls-4{fill:#111035;}</style></defs><rect class="cls-1" width="450" height="335"></rect><rect class="cls-2" y="199.03" width="450" height="66.12"></rect><rect class="cls-2" y="69.71" width="450" height="65.93"></rect><polygon class="cls-3" points="346.98 265.15 328.35 265.15 348.52 69.71 367.16 69.71 346.98 265.15"></polygon><path class="cls-4" d="m117.61,196.57c-.2,2.15-1.76,3.52-3.52,3.52-1.96,0-3.52-1.76-3.33-3.72l6.66-64.8,1.76-16.05c-7.64,21.53-14.49,37.59-20.56,50.12-6.85,14.1-17.82,34.46-33.28,34.46-10.18,0-14.29-9.2-14.29-22.12,0-3.52.2-8.61.78-13.12l9.59-92.01c.2-2.15,1.76-3.13,3.33-3.13s3.72,1.17,3.33,3.92l-9.59,92.01c-.59,4.7-.78,8.61-.78,12.14,0,11.75,3.13,15.66,8.22,15.66,10.57,0,19.97-16.25,27.41-31.52,6.46-13.9,12.73-29.17,16.64-39.74,6.46-17.62,11.55-37,13.51-49.33.39-2.15,1.96-3.13,3.33-3.13,1.57,0,3.72,1.17,3.52,3.92l-12.73,122.94Z"></path><path class="cls-4" d="m229.78,135.49c2.55.39,4.7,1.37,4.31,5.09l-3.92,37.78c-.39,2.94-.59,6.07-.59,7.83,0,4.11.39,7.24,3.13,7.24,4.31,0,8.61-7.64,13.7-18.4,4.11-8.42,12.33-28.39,15.66-37.59.78-1.96,1.96-2.55,3.33-2.55,1.57,0,3.72,1.17,3.33,3.92,0,.39-.2.78-.2.98-1.76,4.7-9.4,23.49-16.25,37.98-3.92,8.42-10.18,22.32-19.77,22.32-7.05,0-9.59-6.07-9.59-13.31,0-1.76,0-3.92.2-6.07l1.37-9.59h-.2c-5.87,17.82-12.73,28.97-21.73,28.97s-11.16-12.33-11.16-19.58c0-8.81,1.37-19.58,5.09-28.39.59-1.37,1.76-3.52,2.35-4.5,2.15-3.52,4.5-6.26,7.83-8.61,3.92-2.74,8.22-4.11,12.92-4.11,3.72,0,6.46,0,10.18.59Zm-2.74,6.46c-2.94-.39-4.89-.39-7.44-.39-2.74,0-6.26.98-9.01,2.74-4.11,2.94-6.07,6.46-8.03,10.77-3.72,8.61-4.5,19.38-4.5,26.23s1.57,11.94,4.89,11.94c6.66,0,13.51-18.99,15.86-24.86,2.94-7.64,6.85-18.4,8.22-26.43Z"></path><path class="cls-4" d="m323.75,156.63c.39-2.94.59-5.87.59-8.03,0-4.11-.78-7.05-4.11-7.05-5.09,0-10.38,9.98-13.12,15.27-2.74,5.68-6.07,14.49-8.61,22.12-1.37,4.7-3.72,14.49-3.92,17.62-.2,2.15-1.57,3.52-3.52,3.52s-3.52-1.76-3.33-3.72l4.31-39.74c.2-2.94.59-5.87.59-7.83,0-4.31-.98-7.24-4.11-7.24-5.29,0-10.57,10.18-13.12,15.47-2.94,5.48-6.26,14.29-8.61,22.12-1.57,4.7-3.52,14.29-3.92,17.42-.2,2.15-1.76,3.52-3.52,3.52-1.96,0-3.52-1.76-3.33-3.72l6.07-58.34c.2-2.15,1.96-3.13,3.33-3.13,1.57,0,3.72,1.17,3.52,3.92l-1.96,16.64-1.37,8.03h.2c.78-2.35,2.35-5.87,3.52-8.81,4.7-10.57,10.96-19.77,19.97-19.77,4.31,0,7.64,2.55,8.81,6.66.78,1.96.98,4.5.98,7.24,0,2.15-.2,5.87-1.57,14.68h.2c.78-2.55,2.15-6.07,3.52-8.81,4.5-10.57,10.77-19.77,19.77-19.77,4.5,0,7.64,2.55,9.01,6.66.59,1.76.98,4.5.98,7.05s-.39,6.26-.59,9.01l-2.15,20.75c-.2,2.94-.59,6.26-.59,7.83,0,4.11.59,7.24,3.33,7.24,10.38,0,27.6-45.03,29.37-55.99.78-4.31,7.44-2.55,6.26,2.35-1.37,4.7-18.4,60.3-35.63,60.3-7.24,0-9.98-6.07-9.98-13.31,0-1.57,0-3.33.39-6.07l2.35-24.08Z"></path><path class="cls-4" d="m387.57,134.9c8.42,0,11.94,5.68,11.94,11.75,0,13.7-13.12,21.93-26.23,23.88,5.29,7.24,10.96,14.1,16.84,20.75,2.15,2.35,4.31,2.94,7.24.59,1.96-1.76,4.31-4.89,6.26-7.64.59-.78,1.57-1.57,2.74-1.57,1.76,0,3.33,1.57,3.33,3.33,0,.59-.2,1.37-.39,1.76-2.15,3.13-4.31,6.26-7.05,8.61-2.94,2.55-5.48,3.72-8.42,3.72-3.13,0-5.87-.98-8.22-3.92-6.66-7.44-12.73-14.88-18.79-22.91-2.74,6.85-5.09,17.82-5.87,23.3-.39,2.35-1.76,3.52-3.52,3.52-1.96,0-3.52-1.76-3.33-3.72l12.92-123.53c.2-2.15,1.76-3.13,3.33-3.13s3.72,1.17,3.33,3.92l-8.22,79.68-1.37,9.01h.2c1.57-5.68,4.5-12.14,7.05-16.25,3.92-5.87,9.4-11.16,16.25-11.16Zm-18.21,30.54c9.59-1.37,23.1-6.85,23.1-18.79,0-3.13-1.76-5.09-4.89-5.09-6.85,0-13.9,11.35-18.21,23.88Z"></path><path class="cls-4" d="m137.96,261.63c-.2,2.15-1.57,3.52-3.33,3.52-2.15,0-3.72-1.76-3.52-3.72l12.91-123.46c.2-2.15,1.96-3.13,3.33-3.13,1.57,0,3.72,1.17,3.52,3.91l-1.96,16.63-1.17,8.61h.2c5.87-17.81,12.52-29.15,21.52-29.15,9.59,0,11.35,12.33,11.35,19.76,0,14.09-3.52,33.46-15.26,41.48-4.7,3.13-9.59,4.11-15.65,4.11-1.76,0-2.54,0-5.48-.2l-6.46,61.63Zm11.54-68.09c5.09,0,8.61-.59,11.94-2.93,10.57-7.83,12.52-26.61,12.52-36.98,0-6.85-1.37-11.94-4.89-11.94-6.46,0-13.5,18.98-15.85,24.85-2.93,7.63-6.46,18.39-8.02,26.61.78.2,3.33.39,4.3.39Z"></path></svg> 