<?xml version="1.0" encoding="UTF-8"?><svg xmlns="http://www.w3.org/2000/svg" xmlns:xlink="http://www.w3.org/1999/xlink" viewBox="0 0 1920 4118.67"><defs><style>.cls-1,.cls-2,.cls-3,.cls-4,.cls-5,.cls-6,.cls-7,.cls-8,.cls-9{fill:none;}.cls-2{stroke-dasharray:0 0 1.87 18.68;}.cls-2,.cls-3,.cls-4,.cls-5,.cls-6,.cls-7,.cls-8{stroke:#a797c9;stroke-linecap:round;stroke-width:7px;}.cls-2,.cls-3,.cls-4,.cls-5,.cls-6,.cls-7,.cls-8,.cls-9{stroke-miterlimit:10;}.cls-10{clip-path:url(#clippath);}.cls-11{fill:#fff;}.cls-12{fill:#937fbb;}.cls-13{fill:#a797c9;}.cls-14{fill:#171c32;}.cls-4{stroke-dasharray:0 0 1.79 17.89;}.cls-15{clip-path:url(#clippath-1);}.cls-5{stroke-dasharray:0 0 1.62 16.22;}.cls-6{stroke-dasharray:0 0 1.49 14.93;}.cls-7{stroke-dasharray:0 0 1.74 17.45;}.cls-8{stroke-dasharray:0 0 1.9 19.02;}.cls-9{stroke:#57678b;stroke-width:3.5px;}</style><clipPath id="clippath"><rect class="cls-1" x="933.91" y="1642.33" width="214.32" height="214.32" rx="107.16" ry="107.16"/></clipPath><clipPath id="clippath-1"><circle class="cls-1" cx="770.77" cy="2264.47" r="118.27"/></clipPath></defs><g id="Background"><rect class="cls-14" x=".6" y="0" width="1918.81" height="4118.67"/></g><g id="Horizontal_Guides"><line class="cls-9" x1=".6" y1="1196.54" x2="1916.42" y2="1196.54"/><line class="cls-9" x1="2.38" y1="1420.73" x2="1918.2" y2="1420.73"/><line class="cls-9" x1="1916.42" y1="1604.88" x2=".6" y2="1604.88"/><line class="cls-9" x1=".6" y1="1835.15" x2="1916.42" y2="1835.15"/><line class="cls-9" y1="2185.15" x2="1918.21" y2="2185.15"/><line class="cls-9" x1="1.79" y1="2407.34" x2="1920" y2="2407.34"/><line class="cls-9" x1="1918.21" y1="2595.5" y2="2595.5"/><line class="cls-9" y1="2823.76" x2="1918.21" y2="2823.76"/><line class="cls-9" x1="-6.02" y1="3179.56" x2="1918.2" y2="3179.56"/><line class="cls-9" x1="-4.23" y1="3401.76" x2="1920" y2="3401.76"/><line class="cls-9" x1="1918.2" y1="3589.91" x2="-6.02" y2="3589.91"/><line class="cls-9" x1="-6.02" y1="3818.18" x2="1918.2" y2="3818.18"/><line class="cls-9" x1=".6" y1="202.72" x2="1918.2" y2="202.72"/><line class="cls-9" x1=".6" y1="431.33" x2="1918.2" y2="431.33"/><line class="cls-9" x1="1918.2" y1="611.21" x2=".6" y2="611.21"/><line class="cls-9" x1=".6" y1="842.72" x2="1918.2" y2="842.72"/><circle class="cls-12" cx="770.77" cy="2264.47" r="118.27"/><line class="cls-3" x1="1043.86" y1="1908.87" x2="1043.83" y2="1908"/><line class="cls-2" x1="1043.29" y1="1889.32" x2="1042.36" y2="1857.57"/><line class="cls-3" x1="1042.09" y1="1848.23" x2="1042.07" y2="1847.36"/><line class="cls-3" x1="1293.8" y1="1106.71" x2="1293.77" y2="1105.84"/><line class="cls-6" x1="1293.23" y1="1090.92" x2="1292.31" y2="1065.56"/><line class="cls-3" x1="1292.04" y1="1058.1" x2="1292.01" y2="1057.23"/><line class="cls-7" x1="436.99" y1="631.56" x2="436.99" y2="925.05"/><polyline class="cls-7" points="960.29 1405.73 960.29 1123.1 1615.52 1123.1 1615.52 1409.73"/><rect class="cls-12" x="886.77" y="1430.01" width="146.07" height="161.22" rx="73.04" ry="73.04" transform="translate(232.65 -124.75) rotate(8.46)"/><rect class="cls-12" x="1535.89" y="1433.32" width="146.07" height="161.22" rx="73.04" ry="73.04" transform="translate(240.2 -220.2) rotate(8.46)"/></g><g id="info"><path class="cls-11" d="m1155.43,2057.91h-3.36v-5.08c0-3.95.88-5.29,3.4-5.96l.67,1.85c-1.76.67-2.06,1.09-2.06,3.78v.34h1.34v5.08Zm5.92,0h-3.36v-5.08c0-3.95.88-5.29,3.4-5.96l.67,1.85c-1.77.67-2.06,1.09-2.06,3.78v.34h1.34v5.08Z"/><path class="cls-11" d="m1178.7,2077.53v2.6c-.76.21-2.14.59-4.03.59-3.82,0-6.34-1.6-6.34-6.89v-12.18h-4.16v-2.44h4.16v-6.05l2.94-1.43v7.48h5.92v2.44h-5.92v11.8c0,2.81.76,4.58,3.4,4.58,1.6,0,3.23-.29,4.03-.5Z"/><path class="cls-11" d="m1180.59,2056.65c1.76-.67,2.06-1.09,2.06-3.78v-.34h-1.34v-5.08h3.36v5.08c0,3.95-.88,5.29-3.4,5.96l-.67-1.85Zm5.92,0c1.77-.67,2.06-1.09,2.06-3.78v-.34h-1.34v-5.08h3.36v5.08c0,3.95-.88,5.29-3.4,5.96l-.67-1.85Z"/><path class="cls-11" d="m1206.12,2059.21h2.6l.29,3.91c1.01-2.14,3.07-4.45,6.76-4.45,1.26,0,2.18.21,3.02.55v3.15c-1.13-.5-2.1-.76-3.4-.76-3.74,0-6.34,2.81-6.34,5.75v12.85h-2.94v-21Z"/><path class="cls-11" d="m1240.06,2070.73h-15.96c.17,4.79,2.48,7.48,6.93,7.48,3.82,0,5.67-1.43,5.97-4.83h2.98c-.29,4.24-3.28,7.39-9.03,7.39-7.06,0-9.83-4.66-9.83-10.88s3.23-11.22,10-11.22,8.95,3.99,8.95,10.21v1.85Zm-3.11-2.98c0-4.45-1.72-6.55-5.92-6.55s-6.55,2.65-6.89,6.97h12.81v-.42Z"/><path class="cls-11" d="m1244.47,2074.42c0-3.95,2.23-6.09,7.86-6.09h6.34v-1.72c0-2.98-1.26-5.42-5.46-5.42-3.95,0-5.33,1.51-5.33,4.12v.88h-2.98v-.84c0-5,4.2-6.68,8.32-6.68,5.8,0,8.4,2.86,8.4,8.44v13.11h-2.06l-.55-2.98h-.08c-1.26,1.89-3.7,3.53-7.35,3.53-4.92,0-7.1-2.31-7.1-6.34Zm14.2-1.85v-1.76h-7.01c-2.65,0-4.03.92-4.03,3.61,0,2.35,1.26,3.87,4.49,3.87,4.16,0,6.55-2.14,6.55-5.71Z"/><path class="cls-11" d="m1267.27,2069.88c0-6.38,3.23-11.22,10-11.22s8.95,3.91,8.95,8.95v.42h-3.11v-.63c0-3.82-1.64-6.09-5.84-6.09-4.75,0-7.02,3.11-7.02,8.4,0,5.63,2.39,8.49,6.93,8.49,3.82,0,5.84-1.85,5.92-5.67h3.02c-.08,4.66-3.15,8.23-9.03,8.23-7.22,0-9.83-4.75-9.83-10.88Z"/><path class="cls-11" d="m1291.46,2047.45h2.94v15.17c1.05-2.1,3.28-3.95,7.31-3.95,4.75,0,7.77,2.52,7.77,7.94v13.61h-2.94v-13.27c0-4.33-2.14-5.71-5.5-5.71-3.82,0-6.64,2.69-6.64,5.63v13.36h-2.94v-32.77Z"/><path class="cls-11" d="m1334.1,2070.73h-15.96c.17,4.79,2.48,7.48,6.93,7.48,3.82,0,5.67-1.43,5.96-4.83h2.98c-.29,4.24-3.28,7.39-9.03,7.39-7.06,0-9.83-4.66-9.83-10.88s3.23-11.22,10-11.22,8.95,3.99,8.95,10.21v1.85Zm-3.11-2.98c0-4.45-1.72-6.55-5.92-6.55s-6.55,2.65-6.89,6.97h12.81v-.42Z"/><path class="cls-11" d="m1338.08,2073.79v-1.18h2.94v1.13c0,2.86,2.14,4.5,5.96,4.5s5.8-1.01,5.8-3.78c0-2.06-1.01-2.81-3.87-3.32l-4.62-.84c-3.02-.55-5.54-2.02-5.54-5.5,0-3.15,2.35-6.13,8.4-6.13s8.4,3.02,8.4,7.23v.88h-2.98v-.76c0-3.44-2.14-4.92-5.42-4.92-3.95,0-5.34,1.34-5.34,3.36s1.01,2.86,3.91,3.4l4.03.76c4.12.76,6.09,1.93,6.09,5.59,0,4.58-4.12,6.55-8.78,6.55-7.31,0-8.99-3.28-8.99-6.97Z"/><path class="cls-11" d="m1370.13,2074.42c0-3.95,2.23-6.09,7.86-6.09h6.34v-1.72c0-2.98-1.26-5.42-5.46-5.42-3.95,0-5.33,1.51-5.33,4.12v.88h-2.98v-.84c0-5,4.2-6.68,8.32-6.68,5.8,0,8.4,2.86,8.4,8.44v13.11h-2.06l-.55-2.98h-.08c-1.26,1.89-3.7,3.53-7.35,3.53-4.92,0-7.1-2.31-7.1-6.34Zm14.2-1.85v-1.76h-7.01c-2.65,0-4.03.92-4.03,3.61,0,2.35,1.26,3.87,4.49,3.87,4.16,0,6.55-2.14,6.55-5.71Z"/><path class="cls-11" d="m1392.73,2073.79v-1.18h2.94v1.13c0,2.86,2.14,4.5,5.96,4.5s5.8-1.01,5.8-3.78c0-2.06-1.01-2.81-3.86-3.32l-4.62-.84c-3.03-.55-5.54-2.02-5.54-5.5,0-3.15,2.35-6.13,8.4-6.13s8.4,3.02,8.4,7.23v.88h-2.98v-.76c0-3.44-2.14-4.92-5.42-4.92-3.95,0-5.33,1.34-5.33,3.36s1.01,2.86,3.91,3.4l4.03.76c4.12.76,6.09,1.93,6.09,5.59,0,4.58-4.12,6.55-8.78,6.55-7.31,0-8.99-3.28-8.99-6.97Z"/><path class="cls-11" d="m1414.69,2069.88c0-6.38,3.23-11.22,10-11.22s8.95,3.91,8.95,8.95v.42h-3.11v-.63c0-3.82-1.64-6.09-5.84-6.09-4.75,0-7.02,3.11-7.02,8.4,0,5.63,2.39,8.49,6.93,8.49,3.82,0,5.84-1.85,5.92-5.67h3.02c-.08,4.66-3.15,8.23-9.03,8.23-7.22,0-9.83-4.75-9.83-10.88Z"/><path class="cls-11" d="m1456.78,2070.73h-15.96c.17,4.79,2.48,7.48,6.93,7.48,3.82,0,5.67-1.43,5.97-4.83h2.98c-.29,4.24-3.28,7.39-9.03,7.39-7.06,0-9.83-4.66-9.83-10.88s3.23-11.22,10-11.22,8.95,3.99,8.95,10.21v1.85Zm-3.11-2.98c0-4.45-1.72-6.55-5.92-6.55s-6.55,2.65-6.89,6.97h12.81v-.42Z"/><path class="cls-11" d="m1462.65,2059.21h2.61l.29,3.49c1.01-2.14,3.28-4.03,7.35-4.03,4.75,0,7.77,2.52,7.77,7.94v13.61h-2.94v-13.27c0-4.33-2.14-5.71-5.5-5.71-3.82,0-6.64,2.69-6.64,5.63v13.36h-2.94v-21Z"/><path class="cls-11" d="m1486.34,2069.76c0-7.1,4.29-11.09,10.04-11.09,3.7,0,6.22,1.6,7.31,3.74h.04v-14.96h2.94v32.77h-1.97l-.67-3.61h-.08c-1.18,2.31-3.95,4.16-7.77,4.16-6.3,0-9.83-3.99-9.83-11.01Zm17.64-.5c0-5.5-3.36-8.07-7.35-8.07-3.11,0-7.14,1.47-7.14,8.4s3.61,8.61,7.14,8.61c4.24,0,7.35-2.73,7.35-8.95Z"/><path class="cls-11" d="m1531.29,2070.73h-15.96c.17,4.79,2.48,7.48,6.93,7.48,3.82,0,5.67-1.43,5.97-4.83h2.98c-.29,4.24-3.28,7.39-9.03,7.39-7.06,0-9.83-4.66-9.83-10.88s3.23-11.22,10-11.22,8.95,3.99,8.95,10.21v1.85Zm-3.11-2.98c0-4.45-1.72-6.55-5.92-6.55s-6.55,2.65-6.89,6.97h12.81v-.42Z"/><path class="cls-11" d="m1537.16,2059.21h2.61l.29,3.91c1.01-2.14,3.07-4.45,6.76-4.45,1.26,0,2.19.21,3.03.55v3.15c-1.13-.5-2.1-.76-3.4-.76-3.74,0-6.34,2.81-6.34,5.75v12.85h-2.94v-21Z"/><path class="cls-11" d="m1564.12,2047.45h2.94v32.77h-2.94v-32.77Z"/><path class="cls-11" d="m1574.41,2047.45h2.98v6.51h-2.98v-6.51Zm0,11.76h2.94v21h-2.94v-21Z"/><path class="cls-11" d="m1584.75,2059.21h2.6l.29,3.49c1.01-2.14,3.28-4.03,7.35-4.03,4.75,0,7.77,2.52,7.77,7.94v13.61h-2.94v-13.27c0-4.33-2.14-5.71-5.5-5.71-3.82,0-6.64,2.69-6.64,5.63v13.36h-2.94v-21Z"/><path class="cls-11" d="m1627.38,2070.73h-15.96c.17,4.79,2.48,7.48,6.93,7.48,3.82,0,5.67-1.43,5.97-4.83h2.98c-.29,4.24-3.28,7.39-9.03,7.39-7.06,0-9.83-4.66-9.83-10.88s3.23-11.22,10-11.22,8.95,3.99,8.95,10.21v1.85Zm-3.11-2.98c0-4.45-1.72-6.55-5.92-6.55s-6.55,2.65-6.89,6.97h12.81v-.42Z"/><path class="cls-11" d="m711.16,3122.19v-2.02h3.02v2.18c0,3.74,2.6,6.05,7.94,6.05s8.44-1.97,8.44-6.22c0-3.32-1.39-5.17-4.92-6.09l-6.64-1.72c-4.33-1.13-7.18-2.98-7.18-8.15s3.78-8.91,10.92-8.91,10.59,3.44,10.59,9.07v2.94h-3.02v-2.81c0-4.62-3.07-6.51-7.56-6.51-5.12,0-7.81,2.14-7.81,6.01,0,3.61,1.76,4.71,5.54,5.71l5.75,1.55c5.12,1.39,7.43,3.74,7.43,8.65,0,6.09-4.33,9.24-11.47,9.24-9.12,0-11.05-4.7-11.05-8.99Z"/><path class="cls-11" d="m740.85,3097.87h2.94v32.77h-2.94v-32.77Z"/><path class="cls-11" d="m751.14,3097.87h2.98v6.51h-2.98v-6.51Zm0,11.76h2.94v21h-2.94v-21Z"/><path class="cls-11" d="m760.84,3132.44v-.13h3.11v.13c0,2.9,1.93,4.33,6.13,4.33,4.79,0,7.01-2.94,7.01-7.86v-2.1h-.08c-1.09,2.18-3.65,4.07-7.48,4.07-6.3,0-9.75-3.99-9.75-10.71,0-7.1,4.37-11.09,9.96-11.09,3.78,0,6.55,1.81,7.56,4.12h.13l.29-3.57h2.31v19.16c0,5.88-2.81,10.71-10.33,10.71-6.3,0-8.86-2.98-8.86-7.06Zm16.59-12.77c0-5.5-3.36-8.07-7.35-8.07-3.03,0-7.14,1.47-7.14,8.4s3.57,8.32,7.1,8.32c4.24,0,7.39-2.73,7.39-8.65Z"/><path class="cls-11" d="m787.38,3097.87h2.94v15.17c1.05-2.1,3.28-3.95,7.31-3.95,4.75,0,7.77,2.52,7.77,7.94v13.61h-2.94v-13.27c0-4.33-2.14-5.71-5.5-5.71-3.82,0-6.64,2.69-6.64,5.63v13.36h-2.94v-32.77Z"/><path class="cls-11" d="m823.71,3127.95v2.6c-.76.21-2.14.59-4.03.59-3.82,0-6.34-1.6-6.34-6.89v-12.18h-4.16v-2.44h4.16v-6.05l2.94-1.43v7.48h5.92v2.44h-5.92v11.8c0,2.81.76,4.58,3.4,4.58,1.6,0,3.23-.29,4.03-.5Z"/><path class="cls-11" d="m828.54,3097.87h2.94v32.77h-2.94v-32.77Z"/><path class="cls-11" d="m838.83,3109.63l6.89,17.98h.08l7.14-17.98h3.07v.04l-8.86,20.84-3.11,8.53h-2.98v-.04l3.19-8.36-8.78-20.96v-.04h3.36Z"/><path class="cls-11" d="m867.98,3124.21v-1.18h2.94v1.13c0,2.86,2.14,4.5,5.96,4.5s5.8-1.01,5.8-3.78c0-2.06-1.01-2.81-3.86-3.32l-4.62-.84c-3.02-.55-5.54-2.02-5.54-5.5,0-3.15,2.35-6.13,8.4-6.13s8.4,3.02,8.4,7.23v.88h-2.98v-.76c0-3.44-2.14-4.92-5.42-4.92-3.95,0-5.33,1.34-5.33,3.36s1.01,2.86,3.91,3.4l4.03.76c4.12.76,6.09,1.93,6.09,5.59,0,4.58-4.12,6.55-8.78,6.55-7.31,0-8.99-3.28-8.99-6.97Z"/><path class="cls-11" d="m891.63,3097.87h2.94v32.77h-2.94v-32.77Z"/><path class="cls-11" d="m900.66,3124.84c0-3.95,2.23-6.09,7.86-6.09h6.34v-1.72c0-2.98-1.26-5.42-5.46-5.42-3.95,0-5.33,1.51-5.33,4.12v.88h-2.98v-.84c0-5,4.2-6.68,8.32-6.68,5.8,0,8.4,2.86,8.4,8.44v13.11h-2.06l-.55-2.98h-.08c-1.26,1.89-3.7,3.53-7.35,3.53-4.92,0-7.1-2.31-7.1-6.34Zm14.2-1.85v-1.76h-7.01c-2.65,0-4.03.92-4.03,3.61,0,2.35,1.26,3.87,4.5,3.87,4.16,0,6.55-2.14,6.55-5.71Z"/><path class="cls-11" d="m925.14,3109.63h2.6l.29,3.49c1.01-2.14,3.28-4.03,7.35-4.03,4.75,0,7.77,2.52,7.77,7.94v13.61h-2.94v-13.27c0-4.33-2.14-5.71-5.5-5.71-3.82,0-6.64,2.69-6.64,5.63v13.36h-2.94v-21Z"/><path class="cls-11" d="m961.47,3127.95v2.6c-.76.21-2.14.59-4.03.59-3.82,0-6.34-1.6-6.34-6.89v-12.18h-4.16v-2.44h4.16v-6.05l2.94-1.43v7.48h5.92v2.44h-5.92v11.8c0,2.81.76,4.58,3.4,4.58,1.6,0,3.23-.29,4.03-.5Z"/><path class="cls-11" d="m982.94,3121.14h-15.96c.17,4.79,2.48,7.48,6.93,7.48,3.82,0,5.67-1.43,5.97-4.83h2.98c-.29,4.24-3.28,7.39-9.03,7.39-7.06,0-9.83-4.66-9.83-10.88s3.23-11.22,10-11.22,8.95,3.99,8.95,10.21v1.85Zm-3.11-2.98c0-4.45-1.72-6.55-5.92-6.55s-6.55,2.65-6.89,6.97h12.81v-.42Z"/><path class="cls-11" d="m987.13,3120.17c0-7.1,4.28-11.09,10.04-11.09,3.7,0,6.22,1.6,7.31,3.74h.04v-14.96h2.94v32.77h-1.97l-.67-3.61h-.08c-1.18,2.31-3.95,4.16-7.77,4.16-6.3,0-9.83-3.99-9.83-11.01Zm17.64-.5c0-5.5-3.36-8.07-7.35-8.07-3.11,0-7.14,1.47-7.14,8.4s3.61,8.61,7.14,8.61c4.24,0,7.35-2.73,7.35-8.95Z"/><path class="cls-11" d="m974.51,999.63h8.61c7.94,0,11.64,2.44,11.64,8.86,0,4.58-2.18,7.98-6.76,9.33l7.86,14.53v.04h-3.32l-7.35-14.03c-.67.04-1.34.08-2.1.08h-5.59v13.95h-2.98v-32.77Zm8.74,16.3c6.09,0,8.49-2.81,8.49-7.31,0-4.75-2.6-6.38-8.44-6.38h-5.8v13.69h5.75Z"/><path class="cls-11" d="m998.99,1021.89c0-6.22,3.32-11.05,10.38-11.05,6.59,0,10.25,4.83,10.25,11.05s-3.7,11.05-10.29,11.05c-7.27,0-10.33-4.83-10.33-11.05Zm17.56,0c0-5.33-2.9-8.49-7.22-8.49-4.75,0-7.27,3.15-7.27,8.49s2.56,8.49,7.27,8.49c4.33,0,7.22-3.15,7.22-8.49Z"/><path class="cls-11" d="m1025.07,1025v-13.61h2.94v13.27c0,4.33,2.14,5.71,5.42,5.71,3.74,0,6.55-2.69,6.55-5.63v-13.36h2.94v21h-2.6l-.25-3.36h-.08c-.97,2.02-3.23,3.91-7.23,3.91-4.66,0-7.69-2.52-7.69-7.94Z"/><path class="cls-11" d="m1050.27,1011.39h2.6l.29,3.49c1.01-2.14,3.28-4.03,7.35-4.03,4.75,0,7.77,2.52,7.77,7.94v13.61h-2.94v-13.27c0-4.33-2.14-5.71-5.5-5.71-3.82,0-6.64,2.69-6.64,5.63v13.36h-2.94v-21Z"/><path class="cls-11" d="m1073.96,1021.94c0-7.1,4.28-11.09,10.04-11.09,3.7,0,6.22,1.6,7.31,3.74h.04v-14.95h2.94v32.77h-1.97l-.67-3.61h-.08c-1.18,2.31-3.95,4.16-7.77,4.16-6.3,0-9.83-3.99-9.83-11.01Zm17.64-.5c0-5.5-3.36-8.07-7.35-8.07-3.11,0-7.14,1.47-7.14,8.4s3.61,8.61,7.14,8.61c4.24,0,7.35-2.73,7.35-8.95Z"/><path class="cls-11" d="m1114.11,1028.91h-.08l-.76,3.49h-1.97v-32.77h2.94v15.25h.04c1.26-2.31,4.07-4.03,7.69-4.03,6.3,0,9.66,3.99,9.66,11.01s-4.29,11.09-9.87,11.09c-3.78,0-6.55-1.64-7.65-4.03Zm14.37-6.89c0-7.18-3.4-8.61-6.93-8.61-4.24,0-7.56,2.73-7.56,8.44,0,6.01,3.45,8.57,7.44,8.57,3.02,0,7.06-1.47,7.06-8.4Z"/><path class="cls-11" d="m1135.83,1021.89c0-6.22,3.32-11.05,10.38-11.05,6.59,0,10.25,4.83,10.25,11.05s-3.7,11.05-10.29,11.05c-7.27,0-10.33-4.83-10.33-11.05Zm17.56,0c0-5.33-2.9-8.49-7.22-8.49-4.75,0-7.27,3.15-7.27,8.49s2.56,8.49,7.27,8.49c4.33,0,7.22-3.15,7.22-8.49Z"/><path class="cls-11" d="m1158.76,1011.43v-.04h2.98l5.76,17.48h.08l6.3-17.48h2.69l6.17,17.48h.08l5.75-17.48h2.86v.04l-7.18,20.96h-3.02l-5.96-17.06h-.08l-6.22,17.06h-3.02l-7.18-20.96Z"/><path class="cls-11" d="m1196.26,999.63h2.94v32.77h-2.94v-32.77Z"/><path class="cls-11" d="m1204.66,1025.97v-1.18h2.94v1.13c0,2.86,2.14,4.5,5.96,4.5s5.8-1.01,5.8-3.78c0-2.06-1.01-2.81-3.86-3.32l-4.62-.84c-3.02-.55-5.54-2.02-5.54-5.5,0-3.15,2.35-6.13,8.4-6.13s8.4,3.02,8.4,7.23v.88h-2.98v-.76c0-3.44-2.14-4.91-5.42-4.91-3.95,0-5.33,1.34-5.33,3.36s1.01,2.86,3.91,3.4l4.03.76c4.12.76,6.09,1.93,6.09,5.59,0,4.58-4.12,6.55-8.78,6.55-7.31,0-8.99-3.28-8.99-6.97Z"/><path class="cls-11" d="m1237.97,999.63h2.98v6.51h-2.98v-6.51Zm0,11.76h2.94v21h-2.94v-21Z"/><path class="cls-11" d="m1248.3,1011.39h2.6l.29,3.49c1.01-2.14,3.28-4.03,7.35-4.03,4.75,0,7.77,2.52,7.77,7.94v13.61h-2.94v-13.27c0-4.33-2.14-5.71-5.5-5.71-3.82,0-6.64,2.69-6.64,5.63v13.36h-2.94v-21Z"/><path class="cls-11" d="m1285.01,1010.09h-3.36v-5.08c0-3.95.88-5.29,3.4-5.97l.67,1.85c-1.76.67-2.06,1.09-2.06,3.78v.34h1.34v5.08Zm5.92,0h-3.36v-5.08c0-3.95.88-5.29,3.4-5.97l.67,1.85c-1.76.67-2.06,1.09-2.06,3.78v.34h1.34v5.08Z"/><path class="cls-11" d="m1294.58,1026.6c0-3.95,2.23-6.09,7.86-6.09h6.34v-1.72c0-2.98-1.26-5.42-5.46-5.42-3.95,0-5.33,1.51-5.33,4.12v.88h-2.98v-.84c0-5,4.2-6.68,8.32-6.68,5.8,0,8.4,2.86,8.4,8.44v13.11h-2.06l-.55-2.98h-.08c-1.26,1.89-3.7,3.53-7.35,3.53-4.92,0-7.1-2.31-7.1-6.34Zm14.2-1.85v-1.76h-7.01c-2.65,0-4.03.92-4.03,3.61,0,2.35,1.26,3.86,4.5,3.86,4.16,0,6.55-2.14,6.55-5.71Z"/><path class="cls-11" d="m1314.66,1008.83c1.76-.67,2.06-1.09,2.06-3.78v-.34h-1.34v-5.08h3.36v5.08c0,3.95-.88,5.29-3.4,5.97l-.67-1.85Zm5.92,0c1.76-.67,2.06-1.09,2.06-3.78v-.34h-1.34v-5.08h3.36v5.08c0,3.95-.88,5.29-3.4,5.97l-.67-1.85Z"/><path class="cls-11" d="m1327.59,1026.18h3.36v6.22c0,3.95-.88,5.29-3.4,5.96l-.67-1.85c1.76-.67,2.06-1.09,2.06-3.78v-.34h-1.34v-6.22Z"/><path class="cls-11" d="m1348.59,1010.09h-3.36v-5.08c0-3.95.88-5.29,3.4-5.97l.67,1.85c-1.76.67-2.06,1.09-2.06,3.78v.34h1.34v5.08Zm5.92,0h-3.36v-5.08c0-3.95.88-5.29,3.4-5.97l.67,1.85c-1.76.67-2.06,1.09-2.06,3.78v.34h1.34v5.08Z"/><path class="cls-11" d="m1357.54,1021.94c0-7.1,4.28-11.09,10.04-11.09,3.7,0,6.22,1.6,7.31,3.74h.04v-14.95h2.94v32.77h-1.97l-.67-3.61h-.08c-1.18,2.31-3.95,4.16-7.77,4.16-6.3,0-9.83-3.99-9.83-11.01Zm17.64-.5c0-5.5-3.36-8.07-7.35-8.07-3.11,0-7.14,1.47-7.14,8.4s3.61,8.61,7.14,8.61c4.24,0,7.35-2.73,7.35-8.95Z"/><path class="cls-11" d="m1383.33,1008.83c1.76-.67,2.06-1.09,2.06-3.78v-.34h-1.34v-5.08h3.36v5.08c0,3.95-.88,5.29-3.4,5.97l-.67-1.85Zm5.92,0c1.76-.67,2.06-1.09,2.06-3.78v-.34h-1.34v-5.08h3.36v5.08c0,3.95-.88,5.29-3.4,5.97l-.67-1.85Z"/><path class="cls-11" d="m1396.26,1026.18h3.36v6.22c0,3.95-.88,5.29-3.4,5.96l-.67-1.85c1.76-.67,2.06-1.09,2.06-3.78v-.34h-1.34v-6.22Z"/><path class="cls-11" d="m1417.26,1010.09h-3.36v-5.08c0-3.95.88-5.29,3.4-5.97l.67,1.85c-1.76.67-2.06,1.09-2.06,3.78v.34h1.34v5.08Zm5.92,0h-3.36v-5.08c0-3.95.88-5.29,3.4-5.97l.67,1.85c-1.76.67-2.06,1.09-2.06,3.78v.34h1.34v5.08Z"/><path class="cls-11" d="m1427.26,1034.2v-.13h3.11v.13c0,2.9,1.93,4.33,6.13,4.33,4.79,0,7.01-2.94,7.01-7.86v-2.1h-.08c-1.09,2.18-3.65,4.07-7.48,4.07-6.3,0-9.75-3.99-9.75-10.71,0-7.1,4.37-11.09,9.96-11.09,3.78,0,6.55,1.81,7.56,4.12h.13l.29-3.57h2.31v19.16c0,5.88-2.81,10.71-10.33,10.71-6.3,0-8.86-2.98-8.86-7.06Zm16.59-12.77c0-5.5-3.36-8.07-7.35-8.07-3.03,0-7.14,1.47-7.14,8.4s3.57,8.32,7.1,8.32c4.24,0,7.39-2.73,7.39-8.65Z"/><path class="cls-11" d="m1451.07,1008.83c1.76-.67,2.06-1.09,2.06-3.78v-.34h-1.34v-5.08h3.36v5.08c0,3.95-.88,5.29-3.4,5.97l-.67-1.85Zm5.92,0c1.76-.67,2.06-1.09,2.06-3.78v-.34h-1.34v-5.08h3.36v5.08c0,3.95-.88,5.29-3.4,5.97l-.67-1.85Z"/><path class="cls-11" d="m1464.01,1026.18h3.36v6.22c0,3.95-.88,5.29-3.4,5.96l-.67-1.85c1.76-.67,2.06-1.09,2.06-3.78v-.34h-1.34v-6.22Z"/><path class="cls-11" d="m1482.07,1026.6c0-3.95,2.23-6.09,7.86-6.09h6.34v-1.72c0-2.98-1.26-5.42-5.46-5.42-3.95,0-5.33,1.51-5.33,4.12v.88h-2.98v-.84c0-5,4.2-6.68,8.32-6.68,5.8,0,8.4,2.86,8.4,8.44v13.11h-2.06l-.55-2.98h-.08c-1.26,1.89-3.7,3.53-7.35,3.53-4.92,0-7.1-2.31-7.1-6.34Zm14.2-1.85v-1.76h-7.01c-2.65,0-4.03.92-4.03,3.61,0,2.35,1.26,3.86,4.5,3.86,4.16,0,6.55-2.14,6.55-5.71Z"/><path class="cls-11" d="m1506.55,1011.39h2.6l.29,3.49c1.01-2.14,3.28-4.03,7.35-4.03,4.75,0,7.77,2.52,7.77,7.94v13.61h-2.94v-13.27c0-4.33-2.14-5.71-5.5-5.71-3.82,0-6.64,2.69-6.64,5.63v13.36h-2.94v-21Z"/><path class="cls-11" d="m1530.24,1021.94c0-7.1,4.28-11.09,10.04-11.09,3.7,0,6.22,1.6,7.31,3.74h.04v-14.95h2.94v32.77h-1.97l-.67-3.61h-.08c-1.18,2.31-3.95,4.16-7.77,4.16-6.3,0-9.83-3.99-9.83-11.01Zm17.64-.5c0-5.5-3.36-8.07-7.35-8.07-3.11,0-7.14,1.47-7.14,8.4s3.61,8.61,7.14,8.61c4.24,0,7.35-2.73,7.35-8.95Z"/><path class="cls-11" d="m1569.26,1010.09h-3.36v-5.08c0-3.95.88-5.29,3.4-5.97l.67,1.85c-1.76.67-2.06,1.09-2.06,3.78v.34h1.34v5.08Zm5.92,0h-3.36v-5.08c0-3.95.88-5.29,3.4-5.97l.67,1.85c-1.76.67-2.06,1.09-2.06,3.78v.34h1.34v5.08Z"/><path class="cls-11" d="m1595.51,1028.91h-.08c-1.09,2.14-3.65,4.03-7.48,4.03-6.3,0-9.75-3.99-9.75-11.01s4.37-11.09,9.96-11.09c3.78,0,6.6,1.76,7.65,4.28h.04l.29-3.74h2.31v29.41h-2.94v-11.89Zm.34-7.48c0-5.5-3.36-8.07-7.35-8.07-3.03,0-7.14,1.47-7.14,8.4s3.57,8.61,7.1,8.61c4.24,0,7.39-2.73,7.39-8.95Z"/><path class="cls-11" d="m1603.07,1008.83c1.76-.67,2.06-1.09,2.06-3.78v-.34h-1.34v-5.08h3.36v5.08c0,3.95-.88,5.29-3.4,5.97l-.67-1.85Zm5.92,0c1.76-.67,2.06-1.09,2.06-3.78v-.34h-1.34v-5.08h3.36v5.08c0,3.95-.88,5.29-3.4,5.97l-.67-1.85Z"/><path class="cls-11" d="m545.06,2047.45h3.15l17.69,27.6h.04v-27.6h2.94v32.77h-3.07l-17.77-27.93h-.04v27.93h-2.94v-32.77Z"/><path class="cls-11" d="m576.23,2074.42c0-3.95,2.23-6.09,7.86-6.09h6.34v-1.72c0-2.98-1.26-5.42-5.46-5.42-3.95,0-5.33,1.51-5.33,4.12v.88h-2.98v-.84c0-5,4.2-6.68,8.32-6.68,5.8,0,8.4,2.86,8.4,8.44v13.11h-2.06l-.55-2.98h-.08c-1.26,1.89-3.7,3.53-7.35,3.53-4.92,0-7.1-2.31-7.1-6.34Zm14.2-1.85v-1.76h-7.01c-2.65,0-4.03.92-4.03,3.61,0,2.35,1.26,3.87,4.5,3.87,4.16,0,6.55-2.14,6.55-5.71Z"/><path class="cls-11" d="m600.71,2059.21h2.6l.29,3.91c1.01-2.14,3.07-4.45,6.76-4.45,1.26,0,2.18.21,3.02.55v3.15c-1.13-.5-2.1-.76-3.4-.76-3.74,0-6.34,2.81-6.34,5.75v12.85h-2.94v-21Z"/><path class="cls-11" d="m618.02,2059.21h2.6l.29,3.91c1.01-2.14,3.07-4.45,6.76-4.45,1.26,0,2.18.21,3.02.55v3.15c-1.13-.5-2.1-.76-3.4-.76-3.74,0-6.34,2.81-6.34,5.75v12.85h-2.94v-21Z"/><path class="cls-11" d="m633.01,2069.72c0-6.22,3.32-11.05,10.38-11.05,6.59,0,10.25,4.83,10.25,11.05s-3.7,11.05-10.29,11.05c-7.27,0-10.33-4.83-10.33-11.05Zm17.56,0c0-5.33-2.9-8.49-7.22-8.49-4.75,0-7.27,3.15-7.27,8.49s2.56,8.49,7.27,8.49c4.33,0,7.22-3.15,7.22-8.49Z"/><path class="cls-11" d="m655.94,2059.26v-.04h2.98l5.76,17.48h.08l6.3-17.48h2.69l6.17,17.48h.08l5.75-17.48h2.86v.04l-7.18,20.96h-3.02l-5.96-17.05h-.08l-6.22,17.05h-3.02l-7.18-20.96Z"/><path class="cls-11" d="m701.85,2074.42c0-3.95,2.23-6.09,7.86-6.09h6.34v-1.72c0-2.98-1.26-5.42-5.46-5.42-3.95,0-5.33,1.51-5.33,4.12v.88h-2.98v-.84c0-5,4.2-6.68,8.32-6.68,5.8,0,8.4,2.86,8.4,8.44v13.11h-2.06l-.55-2.98h-.08c-1.26,1.89-3.7,3.53-7.35,3.53-4.92,0-7.1-2.31-7.1-6.34Zm14.2-1.85v-1.76h-7.01c-2.65,0-4.03.92-4.03,3.61,0,2.35,1.26,3.87,4.5,3.87,4.16,0,6.55-2.14,6.55-5.71Z"/><path class="cls-11" d="m724.44,2073.79v-1.18h2.94v1.13c0,2.86,2.14,4.5,5.96,4.5s5.8-1.01,5.8-3.78c0-2.06-1.01-2.81-3.86-3.32l-4.62-.84c-3.02-.55-5.54-2.02-5.54-5.5,0-3.15,2.35-6.13,8.4-6.13s8.4,3.02,8.4,7.23v.88h-2.98v-.76c0-3.44-2.14-4.92-5.42-4.92-3.95,0-5.33,1.34-5.33,3.36s1.01,2.86,3.91,3.4l4.03.76c4.12.76,6.09,1.93,6.09,5.59,0,4.58-4.12,6.55-8.78,6.55-7.31,0-8.99-3.28-8.99-6.97Z"/><path class="cls-11" d="m746.41,2069.88c0-6.38,3.23-11.22,10-11.22s8.95,3.91,8.95,8.95v.42h-3.11v-.63c0-3.82-1.64-6.09-5.84-6.09-4.75,0-7.01,3.11-7.01,8.4,0,5.63,2.39,8.49,6.93,8.49,3.82,0,5.84-1.85,5.92-5.67h3.02c-.08,4.66-3.15,8.23-9.03,8.23-7.22,0-9.83-4.75-9.83-10.88Z"/><path class="cls-11" d="m788.5,2070.73h-15.96c.17,4.79,2.48,7.48,6.93,7.48,3.82,0,5.67-1.43,5.97-4.83h2.98c-.29,4.24-3.28,7.39-9.03,7.39-7.06,0-9.83-4.66-9.83-10.88s3.23-11.22,10-11.22,8.95,3.99,8.95,10.21v1.85Zm-3.11-2.98c0-4.45-1.72-6.55-5.92-6.55s-6.55,2.65-6.89,6.97h12.81v-.42Z"/><path class="cls-11" d="m794.37,2059.21h2.6l.29,3.49c1.01-2.14,3.28-4.03,7.35-4.03,4.75,0,7.77,2.52,7.77,7.94v13.61h-2.94v-13.27c0-4.33-2.14-5.71-5.5-5.71-3.82,0-6.64,2.69-6.64,5.63v13.36h-2.94v-21Z"/><path class="cls-11" d="m818.06,2069.76c0-7.1,4.28-11.09,10.04-11.09,3.7,0,6.22,1.6,7.31,3.74h.04v-14.96h2.94v32.77h-1.97l-.67-3.61h-.08c-1.18,2.31-3.95,4.16-7.77,4.16-6.3,0-9.83-3.99-9.83-11.01Zm17.64-.5c0-5.5-3.36-8.07-7.35-8.07-3.11,0-7.14,1.47-7.14,8.4s3.61,8.61,7.14,8.61c4.24,0,7.35-2.73,7.35-8.95Z"/><path class="cls-11" d="m863,2070.73h-15.96c.17,4.79,2.48,7.48,6.93,7.48,3.82,0,5.67-1.43,5.97-4.83h2.98c-.29,4.24-3.28,7.39-9.03,7.39-7.06,0-9.83-4.66-9.83-10.88s3.23-11.22,10-11.22,8.95,3.99,8.95,10.21v1.85Zm-3.11-2.98c0-4.45-1.72-6.55-5.92-6.55s-6.55,2.65-6.89,6.97h12.81v-.42Z"/><path class="cls-11" d="m868.88,2059.21h2.6l.29,3.91c1.01-2.14,3.07-4.45,6.76-4.45,1.26,0,2.18.21,3.02.55v3.15c-1.13-.5-2.1-.76-3.4-.76-3.74,0-6.34,2.81-6.34,5.75v12.85h-2.94v-21Z"/><path class="cls-11" d="m895.84,2047.45h2.94v32.77h-2.94v-32.77Z"/><path class="cls-11" d="m904.45,2069.72c0-6.22,3.32-11.05,10.38-11.05,6.59,0,10.25,4.83,10.25,11.05s-3.7,11.05-10.29,11.05c-7.27,0-10.33-4.83-10.33-11.05Zm17.56,0c0-5.33-2.9-8.49-7.22-8.49-4.75,0-7.27,3.15-7.27,8.49s2.56,8.49,7.27,8.49c4.33,0,7.22-3.15,7.22-8.49Z"/><path class="cls-11" d="m929.27,2069.72c0-6.22,3.32-11.05,10.38-11.05,6.59,0,10.25,4.83,10.25,11.05s-3.7,11.05-10.29,11.05c-7.27,0-10.33-4.83-10.33-11.05Zm17.56,0c0-5.33-2.9-8.49-7.22-8.49-4.75,0-7.27,3.15-7.27,8.49s2.56,8.49,7.27,8.49c4.33,0,7.22-3.15,7.22-8.49Z"/><path class="cls-11" d="m955.77,2059.21h2.39l.34,3.87h.08c1.13-2.48,4.03-4.41,7.86-4.41,6.3,0,9.66,3.99,9.66,11.01s-4.29,11.09-9.87,11.09c-3.78,0-6.38-1.6-7.43-3.7h-.08v11.55h-2.94v-29.41Zm17.18,10.63c0-7.18-3.4-8.61-6.93-8.61-4.24,0-7.56,2.73-7.56,8.44,0,6.01,3.45,8.57,7.44,8.57,3.02,0,7.06-1.47,7.06-8.4Z"/><path class="cls-11" d="m980.09,2073.79v-1.18h2.94v1.13c0,2.86,2.14,4.5,5.96,4.5s5.8-1.01,5.8-3.78c0-2.06-1.01-2.81-3.86-3.32l-4.62-.84c-3.02-.55-5.54-2.02-5.54-5.5,0-3.15,2.35-6.13,8.4-6.13s8.4,3.02,8.4,7.23v.88h-2.98v-.76c0-3.44-2.14-4.92-5.42-4.92-3.95,0-5.33,1.34-5.33,3.36s1.01,2.86,3.91,3.4l4.03.76c4.12.76,6.09,1.93,6.09,5.59,0,4.58-4.12,6.55-8.78,6.55-7.31,0-8.99-3.28-8.99-6.97Z"/><path class="cls-11" d="m149.95,3959.98v-2.02h3.02v2.18c0,3.74,2.6,6.05,7.94,6.05s8.44-1.97,8.44-6.22c0-3.32-1.39-5.17-4.92-6.09l-6.64-1.72c-4.33-1.13-7.18-2.98-7.18-8.15s3.78-8.91,10.92-8.91,10.59,3.45,10.59,9.07v2.94h-3.02v-2.81c0-4.62-3.07-6.51-7.56-6.51-5.12,0-7.81,2.14-7.81,6.01,0,3.61,1.76,4.7,5.54,5.71l5.75,1.55c5.12,1.39,7.43,3.74,7.43,8.65,0,6.09-4.33,9.24-11.47,9.24-9.12,0-11.05-4.7-11.05-8.99Z"/><path class="cls-11" d="m179.64,3935.66h2.98v6.51h-2.98v-6.51Zm0,11.76h2.94v21h-2.94v-21Z"/><path class="cls-11" d="m220.68,3954.81v13.61h-2.94v-13.27c0-4.33-2.14-5.71-4.75-5.71-3.82,0-6.17,2.69-6.17,5.63v13.36h-2.94v-13.27c0-4.33-1.85-5.71-4.83-5.71-3.61,0-6.13,2.69-6.13,5.63v13.36h-2.94v-21h2.6l.29,3.49c1.01-2.02,3.07-4.03,6.93-4.03,2.94,0,5.38,1.39,6.43,4.28,1.22-2.39,3.57-4.28,7.14-4.28,4.29,0,7.31,2.52,7.31,7.94Z"/><path class="cls-11" d="m228.02,3947.42h2.39l.34,3.87h.08c1.13-2.48,4.03-4.41,7.86-4.41,6.3,0,9.66,3.99,9.66,11.01s-4.29,11.09-9.87,11.09c-3.78,0-6.38-1.6-7.43-3.7h-.08v11.55h-2.94v-29.41Zm17.18,10.63c0-7.18-3.4-8.61-6.93-8.61-4.24,0-7.56,2.73-7.56,8.44,0,6.01,3.45,8.57,7.44,8.57,3.02,0,7.06-1.47,7.06-8.4Z"/><path class="cls-11" d="m253.6,3935.66h2.94v32.77h-2.94v-32.77Z"/><path class="cls-11" d="m263.89,3935.66h2.98v6.51h-2.98v-6.51Zm0,11.76h2.94v21h-2.94v-21Z"/><path class="cls-11" d="m271.28,3947.42h4.16v-5.42c0-5.29,3.15-6.89,6.38-6.89,1.85,0,2.98.29,3.74.55v2.6c-.71-.21-1.89-.46-3.49-.46-2.65,0-3.7,1.76-3.7,4.58v5.04h14.07v21h-2.94v-18.57h-11.13v18.57h-2.94v-18.57h-4.16v-2.44Zm18.23-11.76h2.98v6.51h-2.98v-6.51Z"/><path class="cls-11" d="m317.11,3958.93h-15.96c.17,4.79,2.48,7.48,6.93,7.48,3.82,0,5.67-1.43,5.97-4.83h2.98c-.29,4.24-3.28,7.39-9.03,7.39-7.06,0-9.83-4.66-9.83-10.88s3.23-11.22,10-11.22,8.95,3.99,8.95,10.21v1.85Zm-3.11-2.98c0-4.45-1.72-6.55-5.92-6.55s-6.55,2.65-6.89,6.97h12.81v-.42Z"/><path class="cls-11" d="m321.3,3957.96c0-7.1,4.28-11.09,10.04-11.09,3.7,0,6.22,1.6,7.31,3.74h.04v-14.96h2.94v32.77h-1.97l-.67-3.61h-.08c-1.18,2.31-3.95,4.16-7.77,4.16-6.3,0-9.83-3.99-9.83-11.01Zm17.64-.5c0-5.5-3.36-8.07-7.35-8.07-3.11,0-7.14,1.47-7.14,8.4s3.61,8.61,7.14,8.61c4.24,0,7.35-2.73,7.35-8.95Z"/><path class="cls-11" d="m358.64,3947.42h2.39l.34,3.87h.08c1.13-2.48,4.03-4.41,7.86-4.41,6.3,0,9.66,3.99,9.66,11.01s-4.29,11.09-9.87,11.09c-3.78,0-6.38-1.6-7.43-3.7h-.08v11.55h-2.94v-29.41Zm17.18,10.63c0-7.18-3.4-8.61-6.93-8.61-4.24,0-7.56,2.73-7.56,8.44,0,6.01,3.45,8.57,7.44,8.57,3.02,0,7.06-1.47,7.06-8.4Z"/><path class="cls-11" d="m384.85,3947.42h2.6l.29,3.91c1.01-2.14,3.07-4.45,6.76-4.45,1.26,0,2.18.21,3.02.55v3.15c-1.13-.5-2.1-.76-3.4-.76-3.74,0-6.34,2.81-6.34,5.75v12.85h-2.94v-21Z"/><path class="cls-11" d="m402.15,3935.66h2.98v6.51h-2.98v-6.51Zm0,11.76h2.94v21h-2.94v-21Z"/><path class="cls-11" d="m412.48,3947.42h2.6l.29,3.49c1.01-2.14,3.28-4.03,7.35-4.03,4.75,0,7.77,2.52,7.77,7.94v13.61h-2.94v-13.27c0-4.33-2.14-5.71-5.5-5.71-3.82,0-6.64,2.69-6.64,5.63v13.36h-2.94v-21Z"/><path class="cls-11" d="m448.81,3965.74v2.6c-.76.21-2.14.59-4.03.59-3.82,0-6.34-1.6-6.34-6.89v-12.18h-4.16v-2.44h4.16v-6.05l2.94-1.43v7.48h5.92v2.44h-5.92v11.8c0,2.81.76,4.58,3.4,4.58,1.6,0,3.23-.29,4.03-.5Z"/><path class="cls-11" d="m461.41,3962v-1.18h2.94v1.13c0,2.86,2.14,4.49,5.96,4.49s5.8-1.01,5.8-3.78c0-2.06-1.01-2.81-3.86-3.32l-4.62-.84c-3.02-.55-5.54-2.02-5.54-5.5,0-3.15,2.35-6.13,8.4-6.13s8.4,3.02,8.4,7.23v.88h-2.98v-.76c0-3.44-2.14-4.91-5.42-4.91-3.95,0-5.33,1.34-5.33,3.36s1.01,2.86,3.91,3.4l4.03.76c4.12.76,6.09,1.93,6.09,5.59,0,4.58-4.12,6.55-8.78,6.55-7.31,0-8.99-3.28-8.99-6.97Z"/><path class="cls-11" d="m496.02,3965.74v2.6c-.76.21-2.14.59-4.03.59-3.82,0-6.34-1.6-6.34-6.89v-12.18h-4.16v-2.44h4.16v-6.05l2.94-1.43v7.48h5.92v2.44h-5.92v11.8c0,2.81.76,4.58,3.4,4.58,1.6,0,3.23-.29,4.03-.5Z"/><path class="cls-11" d="m501.06,3947.42l6.89,17.98h.08l7.14-17.98h3.07v.04l-8.86,20.84-3.11,8.53h-2.98v-.04l3.19-8.36-8.78-20.96v-.04h3.36Z"/><path class="cls-11" d="m522.44,3935.66h2.94v32.77h-2.94v-32.77Z"/><path class="cls-11" d="m549.99,3958.93h-15.96c.17,4.79,2.48,7.48,6.93,7.48,3.82,0,5.67-1.43,5.97-4.83h2.98c-.29,4.24-3.28,7.39-9.03,7.39-7.06,0-9.83-4.66-9.83-10.88s3.23-11.22,10-11.22,8.95,3.99,8.95,10.21v1.85Zm-3.11-2.98c0-4.45-1.72-6.55-5.92-6.55s-6.55,2.65-6.89,6.97h12.81v-.42Z"/><path class="cls-11" d="m565.53,3947.42h2.6l.29,3.49c1.01-2.14,3.28-4.03,7.35-4.03,4.75,0,7.77,2.52,7.77,7.94v13.61h-2.94v-13.27c0-4.33-2.14-5.71-5.5-5.71-3.82,0-6.64,2.69-6.64,5.63v13.36h-2.94v-21Z"/><path class="cls-11" d="m590.27,3961.03v-13.61h2.94v13.27c0,4.33,2.14,5.71,5.42,5.71,3.74,0,6.55-2.69,6.55-5.63v-13.36h2.94v21h-2.6l-.25-3.36h-.08c-.97,2.02-3.23,3.91-7.23,3.91-4.66,0-7.69-2.52-7.69-7.94Z"/><path class="cls-11" d="m646.18,3954.81v13.61h-2.94v-13.27c0-4.33-2.14-5.71-4.75-5.71-3.82,0-6.17,2.69-6.17,5.63v13.36h-2.94v-13.27c0-4.33-1.85-5.71-4.83-5.71-3.61,0-6.13,2.69-6.13,5.63v13.36h-2.94v-21h2.6l.29,3.49c1.01-2.02,3.07-4.03,6.93-4.03,2.94,0,5.38,1.39,6.43,4.28,1.22-2.39,3.57-4.28,7.14-4.28,4.29,0,7.31,2.52,7.31,7.94Z"/><path class="cls-11" d="m670.79,3958.93h-15.96c.17,4.79,2.48,7.48,6.93,7.48,3.82,0,5.67-1.43,5.97-4.83h2.98c-.29,4.24-3.28,7.39-9.03,7.39-7.06,0-9.83-4.66-9.83-10.88s3.23-11.22,10-11.22,8.95,3.99,8.95,10.21v1.85Zm-3.11-2.98c0-4.45-1.72-6.55-5.92-6.55s-6.55,2.65-6.89,6.97h12.81v-.42Z"/><path class="cls-11" d="m676.66,3947.42h2.6l.29,3.91c1.01-2.14,3.07-4.45,6.76-4.45,1.26,0,2.18.21,3.02.55v3.15c-1.13-.5-2.1-.76-3.4-.76-3.74,0-6.34,2.81-6.34,5.75v12.85h-2.94v-21Z"/><path class="cls-11" d="m692.29,3962.63c0-3.95,2.23-6.09,7.86-6.09h6.34v-1.72c0-2.98-1.26-5.42-5.46-5.42-3.95,0-5.33,1.51-5.33,4.12v.88h-2.98v-.84c0-5,4.2-6.68,8.32-6.68,5.8,0,8.4,2.86,8.4,8.44v13.11h-2.06l-.55-2.98h-.08c-1.26,1.89-3.7,3.53-7.35,3.53-4.92,0-7.1-2.31-7.1-6.34Zm14.2-1.85v-1.76h-7.01c-2.65,0-4.03.92-4.03,3.61,0,2.35,1.26,3.87,4.5,3.87,4.16,0,6.55-2.14,6.55-5.71Z"/><path class="cls-11" d="m716.77,3935.66h2.94v32.77h-2.94v-32.77Z"/><path class="cls-11" d="m725.17,3962v-1.18h2.94v1.13c0,2.86,2.14,4.49,5.96,4.49s5.8-1.01,5.8-3.78c0-2.06-1.01-2.81-3.86-3.32l-4.62-.84c-3.02-.55-5.54-2.02-5.54-5.5,0-3.15,2.35-6.13,8.4-6.13s8.4,3.02,8.4,7.23v.88h-2.98v-.76c0-3.44-2.14-4.91-5.42-4.91-3.95,0-5.33,1.34-5.33,3.36s1.01,2.86,3.91,3.4l4.03.76c4.12.76,6.09,1.93,6.09,5.59,0,4.58-4.12,6.55-8.78,6.55-7.31,0-8.99-3.28-8.99-6.97Z"/><path class="cls-11" d="m225.01,953.82h-3.36v-5.08c0-3.95.88-5.29,3.4-5.97l.67,1.85c-1.76.67-2.06,1.09-2.06,3.78v.34h1.34v5.08Zm5.92,0h-3.36v-5.08c0-3.95.88-5.29,3.4-5.97l.67,1.85c-1.76.67-2.06,1.09-2.06,3.78v.34h1.34v5.08Z"/><path class="cls-11" d="m236.06,973.86l19.45-27.89h-18.86v-2.6h22.47v2.23l-19.41,27.94h19.7v2.6h-23.36v-2.27Z"/><path class="cls-11" d="m263.82,952.56c1.76-.67,2.06-1.09,2.06-3.78v-.34h-1.34v-5.08h3.36v5.08c0,3.95-.88,5.29-3.4,5.97l-.67-1.85Zm5.92,0c1.76-.67,2.06-1.09,2.06-3.78v-.34h-1.34v-5.08h3.36v5.08c0,3.95-.88,5.29-3.4,5.97l-.67-1.85Z"/><path class="cls-11" d="m286.62,955.16v-.04h2.98l5.75,17.48h.08l6.3-17.48h2.69l6.17,17.48h.08l5.75-17.48h2.86v.04l-7.18,20.96h-3.02l-5.96-17.06h-.08l-6.22,17.06h-3.02l-7.18-20.96Z"/><path class="cls-11" d="m324.13,943.36h2.98v6.51h-2.98v-6.51Zm0,11.76h2.94v21h-2.94v-21Z"/><path class="cls-11" d="m345.42,973.44v2.6c-.76.21-2.14.59-4.03.59-3.82,0-6.34-1.6-6.34-6.89v-12.18h-4.16v-2.44h4.16v-6.05l2.94-1.43v7.48h5.92v2.44h-5.92v11.8c0,2.81.76,4.58,3.4,4.58,1.6,0,3.23-.29,4.03-.5Z"/><path class="cls-11" d="m350.25,943.36h2.94v15.16c1.05-2.1,3.28-3.95,7.31-3.95,4.75,0,7.77,2.52,7.77,7.94v13.61h-2.94v-13.27c0-4.33-2.14-5.71-5.5-5.71-3.82,0-6.64,2.69-6.64,5.63v13.36h-2.94v-32.77Z"/><path class="cls-11" d="m373.94,965.62c0-6.22,3.32-11.05,10.38-11.05,6.59,0,10.25,4.83,10.25,11.05s-3.7,11.05-10.29,11.05c-7.27,0-10.33-4.83-10.33-11.05Zm17.56,0c0-5.33-2.9-8.49-7.22-8.49-4.75,0-7.27,3.15-7.27,8.49s2.56,8.49,7.27,8.49c4.33,0,7.22-3.15,7.22-8.49Z"/><path class="cls-11" d="m400.02,968.73v-13.61h2.94v13.27c0,4.33,2.14,5.71,5.42,5.71,3.74,0,6.55-2.69,6.55-5.63v-13.36h2.94v21h-2.6l-.25-3.36h-.08c-.97,2.02-3.23,3.91-7.23,3.91-4.66,0-7.69-2.52-7.69-7.94Z"/><path class="cls-11" d="m436.18,973.44v2.6c-.76.21-2.14.59-4.03.59-3.82,0-6.34-1.6-6.34-6.89v-12.18h-4.16v-2.44h4.16v-6.05l2.94-1.43v7.48h5.92v2.44h-5.92v11.8c0,2.81.76,4.58,3.4,4.58,1.6,0,3.23-.29,4.03-.5Z"/><path class="cls-11" d="m448.99,965.67c0-7.1,4.28-11.09,10.04-11.09,3.7,0,6.22,1.6,7.31,3.74h.04v-14.95h2.94v32.77h-1.97l-.67-3.61h-.08c-1.18,2.31-3.95,4.16-7.77,4.16-6.3,0-9.83-3.99-9.83-11.01Zm17.64-.5c0-5.5-3.36-8.07-7.35-8.07-3.11,0-7.14,1.47-7.14,8.4s3.61,8.61,7.14,8.61c4.24,0,7.35-2.73,7.35-8.95Z"/><path class="cls-11" d="m493.93,966.63h-15.96c.17,4.79,2.48,7.48,6.93,7.48,3.82,0,5.67-1.43,5.97-4.83h2.98c-.29,4.24-3.28,7.39-9.03,7.39-7.06,0-9.83-4.66-9.83-10.88s3.23-11.22,10-11.22,8.95,3.99,8.95,10.21v1.85Zm-3.11-2.98c0-4.45-1.72-6.55-5.92-6.55s-6.55,2.65-6.89,6.97h12.81v-.42Z"/><path class="cls-11" d="m497.92,969.7v-1.18h2.94v1.13c0,2.86,2.14,4.5,5.96,4.5s5.8-1.01,5.8-3.78c0-2.06-1.01-2.81-3.86-3.32l-4.62-.84c-3.02-.55-5.54-2.02-5.54-5.5,0-3.15,2.35-6.13,8.4-6.13s8.4,3.02,8.4,7.23v.88h-2.98v-.76c0-3.44-2.14-4.91-5.42-4.91-3.95,0-5.33,1.34-5.33,3.36s1.01,2.86,3.91,3.4l4.03.76c4.12.76,6.09,1.93,6.09,5.59,0,4.58-4.12,6.55-8.78,6.55-7.31,0-8.99-3.28-8.99-6.97Z"/><path class="cls-11" d="m519.89,965.79c0-6.38,3.23-11.22,10-11.22s8.95,3.91,8.95,8.95v.42h-3.11v-.63c0-3.82-1.64-6.09-5.84-6.09-4.75,0-7.02,3.11-7.02,8.4,0,5.63,2.39,8.49,6.93,8.49,3.82,0,5.84-1.85,5.92-5.67h3.02c-.08,4.66-3.15,8.23-9.03,8.23-7.22,0-9.83-4.75-9.83-10.88Z"/><path class="cls-11" d="m561.97,966.63h-15.96c.17,4.79,2.48,7.48,6.93,7.48,3.82,0,5.67-1.43,5.97-4.83h2.98c-.29,4.24-3.28,7.39-9.03,7.39-7.06,0-9.83-4.66-9.83-10.88s3.23-11.22,10-11.22,8.95,3.99,8.95,10.21v1.85Zm-3.11-2.98c0-4.45-1.72-6.55-5.92-6.55s-6.55,2.65-6.89,6.97h12.81v-.42Z"/><path class="cls-11" d="m567.85,955.12h2.6l.29,3.49c1.01-2.14,3.28-4.03,7.35-4.03,4.75,0,7.77,2.52,7.77,7.94v13.61h-2.94v-13.27c0-4.33-2.14-5.71-5.5-5.71-3.82,0-6.64,2.69-6.64,5.63v13.36h-2.94v-21Z"/><path class="cls-11" d="m591.54,965.67c0-7.1,4.28-11.09,10.04-11.09,3.7,0,6.22,1.6,7.31,3.74h.04v-14.95h2.94v32.77h-1.97l-.67-3.61h-.08c-1.18,2.31-3.95,4.16-7.77,4.16-6.3,0-9.83-3.99-9.83-11.01Zm17.64-.5c0-5.5-3.36-8.07-7.35-8.07-3.11,0-7.14,1.47-7.14,8.4s3.61,8.61,7.14,8.61c4.24,0,7.35-2.73,7.35-8.95Z"/><path class="cls-11" d="m636.48,966.63h-15.96c.17,4.79,2.48,7.48,6.93,7.48,3.82,0,5.67-1.43,5.97-4.83h2.98c-.29,4.24-3.28,7.39-9.03,7.39-7.06,0-9.83-4.66-9.83-10.88s3.23-11.22,10-11.22,8.95,3.99,8.95,10.21v1.85Zm-3.11-2.98c0-4.45-1.72-6.55-5.92-6.55s-6.55,2.65-6.89,6.97h12.81v-.42Z"/><path class="cls-11" d="m642.36,955.12h2.6l.29,3.91c1.01-2.14,3.07-4.45,6.76-4.45,1.26,0,2.18.21,3.02.55v3.15c-1.13-.5-2.1-.76-3.4-.76-3.74,0-6.34,2.81-6.34,5.75v12.85h-2.94v-21Z"/><path class="cls-11" d="m790.69,1936.39h3.23l11.51,20.92h.08l11.51-20.92h3.23v32.77h-2.94v-27.85h-.04l-10.75,19.91h-2.06l-10.8-19.91h-.04v27.85h-2.94v-32.77Z"/><path class="cls-11" d="m828.87,1936.39h2.98v6.51h-2.98v-6.51Zm0,11.76h2.94v21h-2.94v-21Z"/><path class="cls-11" d="m839.2,1948.16h2.6l.29,3.91c1.01-2.14,3.07-4.45,6.76-4.45,1.26,0,2.18.21,3.02.55v3.15c-1.13-.5-2.1-.76-3.4-.76-3.74,0-6.34,2.81-6.34,5.75v12.85h-2.94v-21Z"/><path class="cls-11" d="m856.5,1948.16h2.6l.29,3.91c1.01-2.14,3.07-4.45,6.76-4.45,1.26,0,2.18.21,3.02.55v3.15c-1.13-.5-2.1-.76-3.4-.76-3.74,0-6.34,2.81-6.34,5.75v12.85h-2.94v-21Z"/><path class="cls-11" d="m871.49,1958.66c0-6.22,3.32-11.05,10.38-11.05,6.59,0,10.25,4.83,10.25,11.05s-3.7,11.05-10.29,11.05c-7.27,0-10.33-4.83-10.33-11.05Zm17.56,0c0-5.33-2.9-8.49-7.22-8.49-4.75,0-7.27,3.15-7.27,8.49s2.56,8.49,7.27,8.49c4.33,0,7.22-3.15,7.22-8.49Z"/><path class="cls-11" d="m898,1948.16h2.6l.29,3.91c1.01-2.14,3.07-4.45,6.76-4.45,1.26,0,2.18.21,3.02.55v3.15c-1.13-.5-2.1-.76-3.4-.76-3.74,0-6.34,2.81-6.34,5.75v12.85h-2.94v-21Z"/><path class="cls-11" d="m931.93,1959.66h-15.96c.17,4.79,2.48,7.48,6.93,7.48,3.82,0,5.67-1.43,5.97-4.83h2.98c-.29,4.24-3.28,7.39-9.03,7.39-7.06,0-9.83-4.66-9.83-10.88s3.23-11.22,10-11.22,8.95,3.99,8.95,10.21v1.85Zm-3.11-2.98c0-4.45-1.72-6.55-5.92-6.55s-6.55,2.65-6.89,6.97h12.81v-.42Z"/><path class="cls-11" d="m936.13,1958.7c0-7.1,4.28-11.09,10.04-11.09,3.7,0,6.22,1.6,7.31,3.74h.04v-14.95h2.94v32.77h-1.97l-.67-3.61h-.08c-1.18,2.31-3.95,4.16-7.77,4.16-6.3,0-9.83-3.99-9.83-11.01Zm17.64-.5c0-5.5-3.36-8.07-7.35-8.07-3.11,0-7.14,1.47-7.14,8.4s3.61,8.61,7.14,8.61c4.24,0,7.35-2.73,7.35-8.95Z"/><path class="cls-11" d="m973.47,1936.39h2.94v32.77h-2.94v-32.77Z"/><path class="cls-11" d="m982.08,1958.66c0-6.22,3.32-11.05,10.38-11.05,6.59,0,10.25,4.83,10.25,11.05s-3.7,11.05-10.29,11.05c-7.27,0-10.33-4.83-10.33-11.05Zm17.56,0c0-5.33-2.9-8.49-7.22-8.49-4.75,0-7.27,3.15-7.27,8.49s2.56,8.49,7.27,8.49c4.33,0,7.22-3.15,7.22-8.49Z"/><path class="cls-11" d="m1006.9,1958.66c0-6.22,3.32-11.05,10.38-11.05,6.59,0,10.25,4.83,10.25,11.05s-3.7,11.05-10.29,11.05c-7.27,0-10.33-4.83-10.33-11.05Zm17.56,0c0-5.33-2.9-8.49-7.22-8.49-4.75,0-7.27,3.15-7.27,8.49s2.56,8.49,7.27,8.49c4.33,0,7.22-3.15,7.22-8.49Z"/><path class="cls-11" d="m1033.4,1948.16h2.39l.34,3.86h.08c1.13-2.48,4.03-4.41,7.86-4.41,6.3,0,9.66,3.99,9.66,11.01s-4.29,11.09-9.87,11.09c-3.78,0-6.38-1.6-7.43-3.7h-.08v11.55h-2.94v-29.41Zm17.18,10.63c0-7.18-3.4-8.61-6.93-8.61-4.24,0-7.56,2.73-7.56,8.44,0,6.01,3.45,8.57,7.44,8.57,3.02,0,7.06-1.47,7.06-8.4Z"/><path class="cls-11" d="m1069.27,1936.39h2.98v6.51h-2.98v-6.51Zm0,11.76h2.94v21h-2.94v-21Z"/><path class="cls-11" d="m1079.6,1948.16h2.6l.29,3.49c1.01-2.14,3.28-4.03,7.35-4.03,4.75,0,7.77,2.52,7.77,7.94v13.61h-2.94v-13.27c0-4.33-2.14-5.71-5.5-5.71-3.82,0-6.64,2.69-6.64,5.63v13.36h-2.94v-21Z"/><path class="cls-11" d="m1116.31,1946.85h-3.36v-5.08c0-3.95.88-5.29,3.4-5.97l.67,1.85c-1.76.67-2.06,1.09-2.06,3.78v.34h1.34v5.08Zm5.92,0h-3.36v-5.08c0-3.95.88-5.29,3.4-5.97l.67,1.85c-1.76.67-2.06,1.09-2.06,3.78v.34h1.34v5.08Z"/><path class="cls-11" d="m1132.35,1943.11v5.04h5.92v2.44h-5.92v18.57h-2.94v-18.57h-4.16v-2.44h4.16v-5.42c0-5.29,3.15-6.89,6.38-6.89,1.85,0,2.98.29,3.74.55v2.6c-.71-.21-1.89-.46-3.49-.46-2.65,0-3.7,1.76-3.7,4.58Z"/><path class="cls-11" d="m1142.89,1945.59c1.76-.67,2.06-1.09,2.06-3.78v-.34h-1.34v-5.08h3.36v5.08c0,3.95-.88,5.29-3.4,5.97l-.67-1.85Zm5.92,0c1.76-.67,2.06-1.09,2.06-3.78v-.34h-1.34v-5.08h3.36v5.08c0,3.95-.88,5.29-3.4,5.97l-.67-1.85Z"/><path class="cls-11" d="m1167.17,1963.36c0-3.95,2.23-6.09,7.86-6.09h6.34v-1.72c0-2.98-1.26-5.42-5.46-5.42-3.95,0-5.33,1.51-5.33,4.12v.88h-2.98v-.84c0-5,4.2-6.68,8.32-6.68,5.8,0,8.4,2.86,8.4,8.44v13.11h-2.06l-.55-2.98h-.08c-1.26,1.89-3.7,3.53-7.35,3.53-4.92,0-7.1-2.31-7.1-6.34Zm14.2-1.85v-1.76h-7.01c-2.65,0-4.03.92-4.03,3.61,0,2.35,1.26,3.86,4.5,3.86,4.16,0,6.55-2.14,6.55-5.71Z"/><path class="cls-11" d="m1191.65,1948.16h2.6l.29,3.49c1.01-2.14,3.28-4.03,7.35-4.03,4.75,0,7.77,2.52,7.77,7.94v13.61h-2.94v-13.27c0-4.33-2.14-5.71-5.5-5.71-3.82,0-6.64,2.69-6.64,5.63v13.36h-2.94v-21Z"/><path class="cls-11" d="m1215.34,1958.7c0-7.1,4.28-11.09,10.04-11.09,3.7,0,6.22,1.6,7.31,3.74h.04v-14.95h2.94v32.77h-1.97l-.67-3.61h-.08c-1.18,2.31-3.95,4.16-7.77,4.16-6.3,0-9.83-3.99-9.83-11.01Zm17.64-.5c0-5.5-3.36-8.07-7.35-8.07-3.11,0-7.14,1.47-7.14,8.4s3.61,8.61,7.14,8.61c4.24,0,7.35-2.73,7.35-8.95Z"/><path class="cls-11" d="m1254.36,1946.85h-3.36v-5.08c0-3.95.88-5.29,3.4-5.97l.67,1.85c-1.76.67-2.06,1.09-2.06,3.78v.34h1.34v5.08Zm5.92,0h-3.36v-5.08c0-3.95.88-5.29,3.4-5.97l.67,1.85c-1.76.67-2.06,1.09-2.06,3.78v.34h1.34v5.08Z"/><path class="cls-11" d="m1280.61,1965.67h-.08c-1.09,2.14-3.65,4.03-7.48,4.03-6.3,0-9.75-3.99-9.75-11.01s4.37-11.09,9.96-11.09c3.78,0,6.6,1.76,7.65,4.28h.04l.29-3.74h2.31v29.41h-2.94v-11.89Zm.34-7.48c0-5.5-3.36-8.07-7.35-8.07-3.03,0-7.14,1.47-7.14,8.4s3.57,8.61,7.1,8.61c4.24,0,7.39-2.73,7.39-8.95Z"/><path class="cls-11" d="m1288.17,1945.59c1.76-.67,2.06-1.09,2.06-3.78v-.34h-1.34v-5.08h3.36v5.08c0,3.95-.88,5.29-3.4,5.97l-.67-1.85Zm5.92,0c1.76-.67,2.06-1.09,2.06-3.78v-.34h-1.34v-5.08h3.36v5.08c0,3.95-.88,5.29-3.4,5.97l-.67-1.85Z"/><path class="cls-11" d="m70.22,1946.85h-3.36v-5.08c0-3.95.88-5.29,3.4-5.97l.67,1.85c-1.76.67-2.06,1.09-2.06,3.78v.34h1.34v5.08Zm5.92,0h-3.36v-5.08c0-3.95.88-5.29,3.4-5.97l.67,1.85c-1.76.67-2.06,1.09-2.06,3.78v.34h1.34v5.08Z"/><path class="cls-11" d="m90.67,1939h-11.51v-2.6h25.96v2.6h-11.51v30.16h-2.94v-30.16Z"/><path class="cls-11" d="m107.43,1945.59c1.76-.67,2.06-1.09,2.06-3.78v-.34h-1.34v-5.08h3.36v5.08c0,3.95-.88,5.29-3.4,5.97l-.67-1.85Zm5.92,0c1.76-.67,2.06-1.09,2.06-3.78v-.34h-1.34v-5.08h3.36v5.08c0,3.95-.88,5.29-3.4,5.97l-.67-1.85Z"/><path class="cls-11" d="m130.23,1948.2v-.04h2.98l5.76,17.47h.08l6.3-17.47h2.69l6.17,17.47h.08l5.75-17.47h2.86v.04l-7.18,20.96h-3.02l-5.96-17.06h-.08l-6.22,17.06h-3.02l-7.18-20.96Z"/><path class="cls-11" d="m167.74,1936.39h2.98v6.51h-2.98v-6.51Zm0,11.76h2.94v21h-2.94v-21Z"/><path class="cls-11" d="m189.03,1966.47v2.6c-.76.21-2.14.59-4.03.59-3.82,0-6.34-1.6-6.34-6.89v-12.18h-4.16v-2.44h4.16v-6.05l2.94-1.43v7.48h5.92v2.44h-5.92v11.8c0,2.81.76,4.58,3.4,4.58,1.6,0,3.23-.29,4.03-.5Z"/><path class="cls-11" d="m193.86,1936.39h2.94v15.16c1.05-2.1,3.28-3.95,7.31-3.95,4.75,0,7.77,2.52,7.77,7.94v13.61h-2.94v-13.27c0-4.33-2.14-5.71-5.5-5.71-3.82,0-6.64,2.69-6.64,5.63v13.36h-2.94v-32.77Z"/><path class="cls-11" d="m227.21,1958.83c0-6.38,3.23-11.22,10-11.22s8.95,3.91,8.95,8.95v.42h-3.11v-.63c0-3.82-1.64-6.09-5.84-6.09-4.75,0-7.02,3.11-7.02,8.4,0,5.63,2.39,8.49,6.93,8.49,3.82,0,5.84-1.85,5.92-5.67h3.02c-.08,4.66-3.15,8.23-9.03,8.23-7.22,0-9.83-4.75-9.83-10.88Z"/><path class="cls-11" d="m252.03,1948.16h2.6l.29,3.91c1.01-2.14,3.07-4.45,6.76-4.45,1.26,0,2.18.21,3.02.55v3.15c-1.13-.5-2.1-.76-3.4-.76-3.74,0-6.34,2.81-6.34,5.75v12.85h-2.94v-21Z"/><path class="cls-11" d="m267.03,1958.66c0-6.22,3.32-11.05,10.38-11.05,6.59,0,10.25,4.83,10.25,11.05s-3.7,11.05-10.29,11.05c-7.27,0-10.33-4.83-10.33-11.05Zm17.56,0c0-5.33-2.9-8.49-7.22-8.49-4.75,0-7.27,3.15-7.27,8.49s2.56,8.49,7.27,8.49c4.33,0,7.22-3.15,7.22-8.49Z"/><path class="cls-11" d="m291.64,1962.73v-1.18h2.94v1.13c0,2.86,2.14,4.5,5.96,4.5s5.8-1.01,5.8-3.78c0-2.06-1.01-2.81-3.86-3.32l-4.62-.84c-3.02-.55-5.54-2.02-5.54-5.5,0-3.15,2.35-6.13,8.4-6.13s8.4,3.02,8.4,7.22v.88h-2.98v-.76c0-3.44-2.14-4.91-5.42-4.91-3.95,0-5.33,1.34-5.33,3.36s1.01,2.86,3.91,3.4l4.03.76c4.12.76,6.09,1.93,6.09,5.59,0,4.58-4.12,6.55-8.78,6.55-7.31,0-8.99-3.28-8.99-6.97Z"/><path class="cls-11" d="m313.39,1962.73v-1.18h2.94v1.13c0,2.86,2.14,4.5,5.96,4.5s5.8-1.01,5.8-3.78c0-2.06-1.01-2.81-3.86-3.32l-4.62-.84c-3.02-.55-5.54-2.02-5.54-5.5,0-3.15,2.35-6.13,8.4-6.13s8.4,3.02,8.4,7.22v.88h-2.98v-.76c0-3.44-2.14-4.91-5.42-4.91-3.95,0-5.33,1.34-5.33,3.36s1.01,2.86,3.91,3.4l4.03.76c4.12.76,6.09,1.93,6.09,5.59,0,4.58-4.12,6.55-8.78,6.55-7.31,0-8.99-3.28-8.99-6.97Z"/><path class="cls-11" d="m349.51,1965.67h-.08l-.76,3.49h-1.97v-32.77h2.94v15.25h.04c1.26-2.31,4.07-4.03,7.69-4.03,6.3,0,9.66,3.99,9.66,11.01s-4.29,11.09-9.87,11.09c-3.78,0-6.55-1.64-7.65-4.03Zm14.37-6.89c0-7.18-3.4-8.61-6.93-8.61-4.24,0-7.56,2.73-7.56,8.44,0,6.01,3.45,8.57,7.44,8.57,3.02,0,7.06-1.47,7.06-8.4Z"/><path class="cls-11" d="m371.44,1963.36c0-3.95,2.23-6.09,7.86-6.09h6.34v-1.72c0-2.98-1.26-5.42-5.46-5.42-3.95,0-5.33,1.51-5.33,4.12v.88h-2.98v-.84c0-5,4.2-6.68,8.32-6.68,5.8,0,8.4,2.86,8.4,8.44v13.11h-2.06l-.55-2.98h-.08c-1.26,1.89-3.7,3.53-7.35,3.53-4.92,0-7.1-2.31-7.1-6.34Zm14.2-1.85v-1.76h-7.01c-2.65,0-4.03.92-4.03,3.61,0,2.35,1.26,3.86,4.5,3.86,4.16,0,6.55-2.14,6.55-5.71Z"/><path class="cls-11" d="m395.92,1948.16h2.6l.29,3.91c1.01-2.14,3.07-4.45,6.76-4.45,1.26,0,2.18.21,3.02.55v3.15c-1.13-.5-2.1-.76-3.4-.76-3.74,0-6.34,2.81-6.34,5.75v12.85h-2.94v-21Z"/><rect class="cls-12" x="935.8" y="1642.33" width="214.32" height="214.32" rx="107.16" ry="107.16"/><line class="cls-3" x1="770.77" y1="2146.2" x2="770.72" y2="2145.33"/><line class="cls-5" x1="769.91" y1="2129.13" x2="769.43" y2="2119.41"/><line class="cls-3" x1="769.02" y1="2111.31" x2="768.98" y2="2110.44"/><line class="cls-3" x1="1359.24" y1="2173.02" x2="1359.21" y2="2172.15"/><line class="cls-8" x1="1358.67" y1="2153.14" x2="1357.75" y2="2120.82"/><line class="cls-3" x1="1357.47" y1="2111.32" x2="1357.45" y2="2110.44"/><line class="cls-3" x1="211.54" y1="3900.57" x2="211.53" y2="3899.7"/><line class="cls-4" x1="211.42" y1="3881.81" x2="209.81" y2="3615.27"/><line class="cls-3" x1="209.75" y1="3606.32" x2="209.75" y2="3605.45"/><line class="cls-7" x1="208.16" y1="1386.88" x2="208.16" y2="1908.25"/><polygon class="cls-12" points="842.03 3816.18 791.33 3816.18 827.65 3179.56 878.35 3179.56 842.03 3816.18"/><line class="cls-3" x1="824.01" y1="2667" x2="924.57" y2="2667"/><polygon class="cls-13" points="847.2 2695.63 851.97 2690.5 826.69 2667.01 851.97 2643.5 847.2 2638.38 816.41 2667.01 847.2 2695.63"/><polygon class="cls-13" points="901.38 2695.63 896.6 2690.5 921.88 2667.01 896.6 2643.5 901.38 2638.38 932.16 2667.01 901.38 2695.63"/><line class="cls-7" x1="874.29" y1="2883.13" x2="874.29" y2="2690.56"/><path class="cls-11" d="m776.22,2904.58h3.15l17.68,27.6h.04v-27.6h2.94v32.77h-3.07l-17.77-27.94h-.04v27.94h-2.94v-32.77Z"/><path class="cls-11" d="m807.38,2931.54c0-3.95,2.23-6.09,7.86-6.09h6.34v-1.72c0-2.98-1.26-5.42-5.46-5.42-3.95,0-5.33,1.51-5.33,4.12v.88h-2.98v-.84c0-5,4.2-6.68,8.32-6.68,5.8,0,8.4,2.86,8.4,8.44v13.11h-2.06l-.55-2.98h-.08c-1.26,1.89-3.7,3.53-7.35,3.53-4.92,0-7.1-2.31-7.1-6.34Zm14.2-1.85v-1.76h-7.01c-2.65,0-4.03.92-4.03,3.61,0,2.35,1.26,3.86,4.5,3.86,4.16,0,6.55-2.14,6.55-5.71Z"/><path class="cls-11" d="m831.87,2916.34h2.6l.29,3.91c1.01-2.14,3.07-4.45,6.76-4.45,1.26,0,2.18.21,3.02.55v3.15c-1.13-.5-2.1-.76-3.4-.76-3.74,0-6.34,2.81-6.34,5.75v12.85h-2.94v-21Z"/><path class="cls-11" d="m849.17,2916.34h2.6l.29,3.91c1.01-2.14,3.07-4.45,6.76-4.45,1.26,0,2.18.21,3.02.55v3.15c-1.13-.5-2.1-.76-3.4-.76-3.74,0-6.34,2.81-6.34,5.75v12.85h-2.94v-21Z"/><path class="cls-11" d="m864.17,2926.84c0-6.22,3.32-11.05,10.38-11.05,6.59,0,10.25,4.83,10.25,11.05s-3.7,11.05-10.29,11.05c-7.27,0-10.33-4.83-10.33-11.05Zm17.56,0c0-5.33-2.9-8.49-7.23-8.49-4.75,0-7.27,3.15-7.27,8.49s2.56,8.49,7.27,8.49c4.33,0,7.23-3.15,7.23-8.49Z"/><path class="cls-11" d="m887.1,2916.38v-.04h2.98l5.75,17.47h.08l6.3-17.47h2.69l6.17,17.47h.08l5.75-17.47h2.86v.04l-7.18,20.96h-3.03l-5.96-17.06h-.08l-6.22,17.06h-3.02l-7.18-20.96Z"/><path class="cls-11" d="m935.95,2915.04h-3.36v-5.08c0-3.95.88-5.29,3.4-5.97l.67,1.85c-1.76.67-2.06,1.09-2.06,3.78v.34h1.34v5.08Zm5.92,0h-3.36v-5.08c0-3.95.88-5.29,3.4-5.97l.67,1.85c-1.76.67-2.06,1.09-2.06,3.78v.34h1.34v5.08Z"/><path class="cls-11" d="m963.84,2927.85h-15.96c.17,4.79,2.48,7.48,6.93,7.48,3.82,0,5.67-1.43,5.96-4.83h2.98c-.29,4.24-3.28,7.39-9.03,7.39-7.06,0-9.83-4.66-9.83-10.88s3.23-11.22,10-11.22,8.95,3.99,8.95,10.21v1.85Zm-3.11-2.98c0-4.45-1.72-6.55-5.92-6.55s-6.55,2.65-6.89,6.97h12.81v-.42Z"/><path class="cls-11" d="m965.09,2913.78c1.76-.67,2.06-1.09,2.06-3.78v-.34h-1.34v-5.08h3.36v5.08c0,3.95-.88,5.29-3.4,5.97l-.67-1.85Zm5.92,0c1.76-.67,2.06-1.09,2.06-3.78v-.34h-1.34v-5.08h3.36v5.08c0,3.95-.88,5.29-3.4,5.97l-.67-1.85Z"/></g><g id="palabras"><path class="cls-12" d="m515.2,275.33l-83.87,112.46h47.02c5.72,0,8.26,4.45,8.26,8.9s-2.54,8.26-8.26,8.26h-59.09l-129.62,179.18c3.81-.64,7.62-.64,11.44-.64,62.9,0,119.45,22.24,188.08,22.24s120.09-35.58,148.68-112.46c1.27-3.18,4.45-3.81,6.99-3.81,4.45,0,8.9,3.81,8.9,8.26,0,1.27-.63,3.18-1.27,4.45-29.23,76.25-81.97,120.09-163.3,120.09-70.53,0-123.27-22.24-188.71-22.24-12.71,0-24.78,1.91-28.59,8.26-1.27,2.54-5.08,4.45-8.26,4.45-5.08,0-8.9-3.81-8.9-7.62,0-6.35,5.08-9.53,5.08-9.53,47.02-62.9,92.77-126.44,139.15-190.62h-57.82c-5.72,0-8.9-3.81-8.9-8.26s3.18-8.9,8.9-8.9h70.53c29.86-40.67,59.73-81.97,90.23-122.63l27.32-36.85c-18.43,3.81-36.85,5.08-55.28,5.08-51.47,0-104.84-20.97-155.67-20.97-34.95,0-39.39,24.14-48.92,24.14-4.45,0-8.9-3.81-8.9-8.26,0-17.79,31.77-32.41,57.82-32.41,55.91,0,104.2,20.97,160.75,20.97,20.97,0,46.38-1.91,68.62-10.17,4.45-3.18,6.35-3.81,8.9-3.81,4.45,0,8.26,3.18,8.26,6.99,0,6.99-5.72,10.17-5.72,10.17-7.62,4.45-40.03,50.2-43.84,55.28Z"/><path class="cls-11" d="m796.05,531.39v2.54c-3.81,44.48,19.7,62.27,30.5,62.27,17.79,0,52.1-26.05,84.51-102.3,1.91-4.45,4.45-5.08,7.62-5.08,5.08,0,10.8,5.08,7.62,11.44-32.41,76.88-71.16,112.46-101.03,112.46-19.7,0-38.12-17.16-44.48-45.75-18.43,27.32-49.56,44.48-77.52,44.48-41.94,0-71.8-32.4-73.71-73.71-3.18-61,48.92-105.48,94.67-105.48,41.94,0,71.8,33.04,73.71,74.34,0,8.9-.63,16.52-1.91,24.78Zm-71.8-81.33c-36.22,0-79.42,36.22-76.88,87.05,1.27,33.04,24.78,57.19,55.91,57.19,36.22,0,79.42-37.49,76.88-87.05-1.27-33.68-24.78-57.19-55.91-57.19Z"/><path class="cls-11" d="m1053.38,493.9c1.27-3.81,4.45-5.08,7.62-5.08,3.81,0,8.26,3.18,8.26,7.62,0,1.27,0,2.54-.64,3.81-17.16,51.47-54.01,91.5-97.85,111.19,5.08,18.43,6.35,38.76,6.35,54.64,0,27.32-10.8,175.37-62.9,175.37-30.5,0-47.65-33.68-47.65-119.45,0-10.17,1.27-20.97,13.98-376.15,3.18-92.13,13.98-139.79,55.28-139.79,28.59,0,42.57,38.76,42.57,75.61,0,80.69-42.57,213.49-77.52,269.41,3.18-.64,5.72-.64,8.9-.64,25.42,0,45.11,19.06,55.91,44.48,39.39-18.43,72.43-54.01,87.68-101.03Zm-170.29,226.2c0,90.23,18.43,104.84,31.13,104.84,15.25,0,27.96-38.76,31.13-48.93,9.53-31.13,15.25-71.8,15.25-109.92,0-13.34-1.27-31.77-5.72-49.56-6.99,2.54-13.98,3.81-21.6,3.81-16.52,0-33.04-5.72-46.38-15.88-3.81,96.58-3.81,106.11-3.81,115.64Zm78.79-438.42c0-39.39-14.61-59.09-26.05-59.09-22.24,0-34.95,23.51-38.76,123.9l-7.62,190.62c37.49-62.27,72.43-189.35,72.43-255.43Zm-54.01,285.29c-8.26,0-16.52,5.08-16.52,14.61,0,13.98,26.05,20.33,45.11,20.33,5.08,0,10.17,0,13.98-1.27,0-17.16-24.78-33.68-42.57-33.68Z"/><path class="cls-11" d="m1073.72,437.99c3.81-8.9,17.16-4.45,16.52,3.18-3.18,43.21-2.54,82.6-2.54,101.03,0,51.47,14.61,53.37,26.69,53.37s52.74-24.78,85.78-101.66c1.91-3.81,3.81-5.08,7.62-5.08,5.08,0,10.17,4.45,7.62,11.44-31.77,76.25-76.88,112.46-101.03,112.46-27.96,0-43.84-17.79-43.84-70.53,0-10.8.64-29.23,1.27-50.2l-3.18,8.26c-1.91,4.45-5.08,5.08-6.99,5.08-5.72,0-10.8-5.72-8.26-11.44,8.26-18.43,20.33-55.91,20.33-55.91Zm40.67-100.39c0,9.53-8.26,17.16-17.16,17.16-10.17,0-17.16-7.62-17.16-17.16s7.62-17.16,17.16-17.16,17.16,7.62,17.16,17.16Z"/><path class="cls-11" d="m1244.64,477.38c-6.35,0-12.71-1.27-18.43-3.18l-10.8,26.05c-1.27,3.81-4.45,5.08-7.62,5.08-4.45,0-8.26-3.81-8.26-8.26,0-1.27,0-1.91.64-3.18,0,0,6.35-15.88,12.07-29.23-3.18-3.81-5.72-9.53-5.72-16.52,0-8.9,6.35-15.88,14.61-15.88,9.53,0,15.88,7.62,15.88,15.88,0,2.54-.63,4.45-1.91,6.99l-1.91,3.81c3.18,1.27,6.99,1.91,11.44,1.91,17.79,0,41.94-9.53,52.1-24.78,1.27-1.91,3.81-3.18,6.35-3.18,4.45,0,9.53,2.54,9.53,6.35-3.18,10.17-7.62,27.96-9.53,36.22-3.81,14.61-9.53,41.3-9.53,66.08,0,28.59,8.26,54.01,38.12,54.01,18.43,0,54.01-25.42,85.78-101.66,1.27-3.81,4.45-5.08,7.62-5.08,3.81,0,8.26,3.18,8.26,7.62,0,1.27,0,2.54-.64,3.81-33.04,76.25-70.53,111.83-101.03,111.83-43.21,0-55.28-34.31-55.28-71.16,0-27.32,6.35-55.91,11.44-74.34-10.17,5.72-27.32,10.8-43.21,10.8Z"/><path class="cls-11" d="m1571.86,540.92c6.99.64,13.34,1.27,19.06,1.27,26.69,0,49.56-9.53,66.72-48.29,2.54-5.72,5.08-6.99,8.9-6.99,5.72,0,9.53,5.72,6.35,13.34-18.43,44.48-50.2,59.73-81.97,59.73-7.62,0-17.16-.64-26.05-2.54-17.79,32.4-51.47,54.01-83.24,54.01-41.94,0-74.34-33.04-74.34-74.98,0-61,48.92-106.11,95.31-106.11,41.94,0,74.98,30.5,74.98,76.88,0,12.07-1.91,22.87-5.72,33.68Zm-90.86-88.95c-30.5,10.8-55.91,43.21-55.91,83.87,0,33.68,24.78,58.46,56.55,58.46,23.51,0,50.83-15.88,65.45-41.3-38.12-12.07-70.53-39.39-70.53-76.25,0-7.62,1.27-16.52,4.45-24.78Zm21.6-3.81h-.64c-6.35,10.17-8.26,19.7-8.26,28.59,0,26.05,26.05,50.2,61,60.36,3.18-9.53,5.08-18.43,5.08-29.23,0-38.12-25.42-59.73-57.19-59.73Z"/><path class="cls-11" d="m251.05,1442.21c13.4-12.76,31.89-19.77,50.39-19.77,29.34,0,59.96,22.96,61.87,60.6,4.46,88.03-81.01,119.92-128.85,119.92-29.98,0-109.08-16.58-114.18-114.82-1.91-35.72,15.95-77.18,42.74-117.37l-40.82-.64c-10.84,0-10.84-17.22,0-17.22l52.94.64c38.27-52.31,89.94-102.06,133.32-136.51-56.77,3.19-161.38,0-183.71-5.1-11.48-2.55-7.65-19.14,3.19-16.58,11.48,2.55,65.06,5.1,116.09,5.1,9.57,0,73.99.64,91.22-3.83,9.57-6.38,24.24,7.65,8.93,14.67-42.74,29.98-103.34,84.2-147.99,142.25h65.06c11.48,0,11.48,17.22,0,17.22h-77.82c-28.7,40.82-47.84,82.29-45.93,116.73,3.83,84.84,70.8,98.23,96.96,98.23,123.75,0,143.52-146.07,66.98-146.07-14.03,0-31.89,6.38-41.46,17.22-7.02,8.93-19.77-1.28-12.76-10.21,0,0,1.28-1.91,3.83-4.46Z"/><path class="cls-11" d="m434.12,1467.09c-6.38,0-12.76-1.28-18.5-3.19l-10.84,26.15c-1.28,3.83-4.47,5.1-7.66,5.1-4.46,0-8.29-3.83-8.29-8.29,0-1.28,0-1.91.64-3.19,0,0,6.38-15.95,12.12-29.34-3.19-3.83-5.74-9.57-5.74-16.58,0-8.93,6.38-15.95,14.67-15.95,9.57,0,15.95,7.65,15.95,15.95,0,2.55-.64,4.47-1.91,7.02l-1.91,3.83c3.19,1.28,7.02,1.91,11.48,1.91,17.86,0,42.1-9.57,52.31-24.88,1.28-1.91,3.83-3.19,6.38-3.19,4.47,0,9.57,2.55,9.57,6.38-3.19,10.21-7.65,28.07-9.57,36.36-3.83,14.67-9.57,41.46-9.57,66.34,0,28.7,8.29,54.22,38.27,54.22,18.5,0,54.22-25.52,86.11-102.06,1.28-3.83,4.46-5.1,7.65-5.1,3.83,0,8.29,3.19,8.29,7.65,0,1.28,0,2.55-.64,3.83-33.17,76.55-70.8,112.27-101.42,112.27-43.38,0-55.5-34.45-55.5-71.44,0-27.43,6.38-56.13,11.48-74.63-10.21,5.74-27.43,10.84-43.38,10.84Z"/><path class="cls-11" d="m766.45,1521.31v2.55c-3.83,44.65,19.77,62.51,30.62,62.51,17.86,0,52.31-26.15,84.84-102.7,1.91-4.47,4.46-5.1,7.65-5.1,5.1,0,10.84,5.1,7.65,11.48-32.53,77.18-71.44,112.9-101.42,112.9-19.77,0-38.27-17.22-44.65-45.93-18.5,27.43-49.75,44.65-77.82,44.65-42.1,0-72.08-32.53-73.99-73.99-3.19-61.24,49.12-105.89,95.04-105.89,42.1,0,72.08,33.17,73.99,74.63,0,8.93-.64,16.58-1.91,24.88Zm-72.08-81.65c-36.36,0-79.74,36.36-77.18,87.39,1.28,33.17,24.88,57.41,56.13,57.41,36.36,0,79.74-37.63,77.18-87.39-1.28-33.81-24.88-57.41-56.13-57.41Zm69.53-134.59c4.46-10.21,19.77-3.19,15.31,7.02-14.03,31.26-27.43,54.86-40.19,70.8-7.02,8.93-20.41-1.28-13.4-10.21,11.48-14.67,24.24-36.36,38.27-67.62Z"/><path class="cls-11" d="m1035,1611.89c58.05-17.86,96.96-73.36,120.56-128.21,1.28-3.83,4.47-5.1,7.66-5.1,5.1,0,10.84,5.1,7.65,11.48-24.88,58.68-69.53,121.2-135.23,139.7,35.08,14.67,48.48,40.19,48.48,80.37,0,22.33,3.83,122.47-38.27,122.47s-38.91-70.17-37-96.32l7.02-96.32c-7.65-2.55-15.95-3.83-24.24-5.1-11.48-1.91-10.21-16.58,1.28-16.58,8.29,0,16.58-.64,24.24-1.91l4.46-53.58c-19.14,24.88-47.84,40.19-74.63,40.19-41.46,0-71.44-32.53-73.36-73.99-2.55-61.24,49.12-105.25,95.04-105.25,41.46,0,71.44,32.53,73.36,73.99v12.76l-7.02,101.42Zm-66.34-171.59c-37,0-80.37,37-77.82,88.03,1.28,33.17,24.88,57.41,56.13,57.41,37,0,80.37-37,78.46-87.39-1.91-33.81-25.51-58.05-56.77-58.05Zm63.79,205.4v.64l-7.02,91.22c-.64,13.4-5.74,78.46,20.41,78.46,22.96,0,21.69-96.96,21.69-105.89,0-36.36-13.4-54.22-35.08-64.43Z"/><path class="cls-11" d="m1163.85,1495.16c-5.74,0-10.84-5.1-8.29-11.48,10.21-24.88,17.86-44.01,21.69-57.41,3.19-11.48,19.14-7.02,17.22,4.47-7.65,42.1-11.48,74.63-11.48,99.51,0,43.38,12.76,55.5,37.63,55.5,39.55,0,56.77-69.53,65.06-119.28l5.1-33.81,1.28-5.1c1.91-12.12,18.5-8.29,16.58,3.19l-1.91,11.48c-5.74,37-19.77,143.52,18.5,143.52,12.76,0,59.96-23.6,84.84-102.06,1.28-3.83,4.46-5.1,7.65-5.1,5.1,0,10.84,5.1,7.65,11.48-27.43,77.82-75.27,112.9-100.15,112.9-30.62,0-40.19-24.88-42.74-55.5-12.76,31.26-31.26,55.5-61.87,55.5-45.93,0-54.86-37-54.86-73.36,0-12.12,1.28-24.88,2.55-35.72-1.28.64-3.19,1.28-4.47,1.28Z"/><path class="cls-11" d="m1396.04,1548.74c9.57,20.41,22.96,37,43.38,37,26.79,0,61.87-25.52,94.41-102.06,1.28-3.83,4.47-5.1,7.66-5.1,3.83,0,8.29,3.19,8.29,7.65,0,1.28,0,2.55-.64,3.83-32.53,77.18-72.08,112.9-109.71,112.9-52.94,0-73.99-74.63-73.99-116.09,0-24.88,3.83-64.43,37.63-64.43,20.41,0,30.62,13.4,30.62,33.81,0,9.57-2.55,22.33-7.02,34.45-10.21,23.6-19.77,42.74-30.62,58.05Zm-13.4-70.8c0,19.77,4.46,41.46,6.38,51.03,8.93-14.03,15.95-29.98,22.33-45.93,5.1-12.12,6.38-20.41,6.38-26.79,0-14.03-8.29-17.22-14.67-17.22-15.95,0-20.41,18.5-20.41,38.91Z"/><path class="cls-11" d="m1691.37,1521.31v2.55c-3.83,44.65,19.77,62.51,30.62,62.51,17.86,0,52.31-26.15,84.84-102.7,1.91-4.47,4.46-5.1,7.65-5.1,5.1,0,10.84,5.1,7.65,11.48-32.53,77.18-71.44,112.9-101.42,112.9-19.77,0-38.27-17.22-44.65-45.93-18.5,27.43-49.75,44.65-77.82,44.65-42.1,0-72.08-32.53-73.99-73.99-3.19-61.24,49.12-105.89,95.04-105.89,42.1,0,72.08,33.17,73.99,74.63,0,8.93-.64,16.58-1.91,24.88Zm-72.08-81.65c-36.36,0-79.74,36.36-77.18,87.39,1.28,33.17,24.88,57.41,56.13,57.41,36.36,0,79.74-37.63,77.18-87.39-1.28-33.81-24.88-57.41-56.13-57.41Z"/><path class="cls-11" d="m353.76,2428.07c-1.28,43.45-8.31,165.5-63.9,165.5-22.36,0-63.26-22.36-56.87-143.13,8.95-176.36,65.82-269.65,157.83-269.65,70.93,0,101.6,53.68,104.16,106.07,4.47,88.82-46.65,139.94-141.22,141.22Zm0-16.61c111.82-1.92,127.16-74.12,124.6-123.96-2.56-46.65-28.75-90.1-87.54-90.1-75.4,0-131.63,76.68-140.58,254.32-6.39,118.85,33.23,124.6,39.62,124.6s39.62-7.03,46.01-127.16c3.83-81.79-3.83-132.91-3.83-132.91-1.92-11.5,15.34-14.06,16.61-2.56,0,0,5.75,37.06,5.11,97.77Z"/><path class="cls-11" d="m649.61,2521.36c7.03.64,13.42,1.28,19.17,1.28,26.84,0,49.84-9.58,67.09-48.56,2.56-5.75,5.11-7.03,8.95-7.03,5.75,0,9.58,5.75,6.39,13.42-18.53,44.73-50.48,60.07-82.43,60.07-7.67,0-17.25-.64-26.2-2.56-17.89,32.59-51.76,54.31-83.71,54.31-42.17,0-74.76-33.23-74.76-75.4,0-61.34,49.2-106.71,95.85-106.71,42.17,0,75.4,30.67,75.4,77.32,0,12.14-1.92,23-5.75,33.87Zm-91.38-89.46c-30.67,10.86-56.23,43.45-56.23,84.35,0,33.87,24.92,58.79,56.87,58.79,23.64,0,51.12-15.97,65.82-41.53-38.34-12.14-70.93-39.62-70.93-76.68,0-7.67,1.28-16.61,4.47-24.92Zm21.73-3.83h-.64c-6.39,10.22-8.31,19.81-8.31,28.75,0,26.2,26.2,50.48,61.34,60.7,3.2-9.58,5.11-18.53,5.11-29.39,0-38.34-25.56-60.07-57.51-60.07Z"/><path class="cls-11" d="m753.77,2483.02v39.62c0,51.76,14.7,53.67,21.09,53.67,17.89,0,60.7-25.56,94.57-109.27,1.28-3.83,4.47-5.11,7.67-5.11,5.11,0,10.86,5.11,7.67,11.5-33.87,83.71-79.87,120.13-109.91,120.13-22.37,0-38.34-17.89-38.34-70.93v-290.74c0-29.39,13.42-48.56,29.39-48.56,33.87,0,44.73,43.45,44.73,88.18.64,60.06-14.06,138.02-56.23,210.23q-.64.64-.64,1.28Zm40.26-211.51c-.64-48.56-12.78-71.57-28.12-71.57-7.03,0-12.14,4.47-12.14,31.95v215.34c25.56-53.04,40.9-115.66,40.26-175.72Z"/><path class="cls-11" d="m852.81,2539.25c9.58,20.45,23,37.06,43.45,37.06,26.84,0,61.98-25.56,94.57-102.24,1.28-3.83,4.47-5.11,7.67-5.11,3.83,0,8.31,3.2,8.31,7.67,0,1.28,0,2.56-.64,3.83-32.59,77.32-72.21,113.1-109.91,113.1-53.04,0-74.12-74.76-74.12-116.3,0-24.92,3.83-64.54,37.7-64.54,20.45,0,30.67,13.42,30.67,33.87,0,9.58-2.56,22.36-7.03,34.5-10.22,23.64-19.81,42.81-30.67,58.15Zm-13.42-70.93c0,19.81,4.47,41.53,6.39,51.12,8.95-14.06,15.97-30.03,22.37-46.01,5.11-12.14,6.39-20.45,6.39-26.84,0-14.06-8.31-17.25-14.7-17.25-15.97,0-20.45,18.53-20.45,38.98Z"/><path class="cls-11" d="m1047.07,2412.73c33.87,0,37.7,49.84,38.34,74.12,16.61-46.01,40.26-73.48,66.46-73.48,86.26,0,14.06,163.58,63.9,163.58,18.53,0,53.68-25.56,86.26-102.88,1.28-3.83,4.47-5.11,7.67-5.11,5.11,0,10.86,5.11,7.67,11.5-31.95,77.32-71.57,113.1-101.6,113.1-75.4,0,1.92-163.58-63.9-163.58-24.28,0-60.06,51.12-70.93,155.28-1.28,12.14-17.25,10.22-16.61-1.28,1.28-15.97,16.61-154.64-17.25-154.64-14.06,0-29.39,17.25-42.17,51.12-1.28,3.83-4.47,5.11-7.03,5.11-5.11,0-10.86-4.47-8.31-11.5,12.14-30.67,29.39-61.34,57.51-61.34Z"/><path class="cls-12" d="m1350.59,2191c.64-11.5,17.25-10.86,17.25.64l-3.83,67.73-1.92,31.31h83.07c10.86,0,10.86,16.61,0,16.61h-83.71c-3.2,74.12-7.03,180.83-7.03,215.34,0,51.76,14.7,53.67,20.45,53.67,18.53,0,53.68-25.56,86.26-102.24,1.28-3.83,4.47-5.11,7.67-5.11,5.11,0,10.86,5.11,7.67,11.5-32.59,76.68-70.93,113.1-101.6,113.1-21.73,0-37.7-17.89-37.7-70.93,0-18.53,1.28-59.43,3.2-104.16-7.03,23-14.7,41.53-23,61.98-1.28,3.83-4.47,5.11-7.67,5.11-4.47,0-10.22-5.11-7.67-11.5,17.25-42.17,31.31-75.4,40.26-166.78h-52.4c-11.5.64-11.5-16.61,0-16.61h54.31c2.56-28.12,4.47-60.7,6.39-99.68Z"/><path class="cls-11" d="m1620.24,2511.78v2.56c-3.83,44.73,19.81,62.62,30.67,62.62,17.89,0,52.4-26.2,84.99-102.88,1.92-4.47,4.47-5.11,7.67-5.11,5.11,0,10.86,5.11,7.67,11.5-32.59,77.32-71.57,113.1-101.6,113.1-19.81,0-38.34-17.25-44.73-46.01-18.53,27.48-49.84,44.73-77.96,44.73-42.17,0-72.21-32.59-74.12-74.12-3.2-61.34,49.2-106.07,95.21-106.07,42.17,0,72.21,33.23,74.12,74.76,0,8.95-.64,16.61-1.92,24.92Zm-72.21-81.79c-36.42,0-79.87,36.42-77.32,87.54,1.28,33.23,24.92,57.51,56.23,57.51,36.42,0,79.87-37.7,77.32-87.54-1.28-33.87-24.92-57.51-56.23-57.51Z"/><path class="cls-11" d="m229.79,3176.92c50.39,0,94.41,39.55,94.41,96.96,0,38.91-16.58,84.2-91.22,167.12l-114.82,127.58h189.45c5.74,0,8.29,4.46,8.29,8.93s-2.55,8.93-8.29,8.93H98.38c-6.38,0-9.57-3.19-9.57-7.65,0-2.55.64-4.47,3.19-7.02l128.21-142.88c72.72-81.65,86.11-123.11,86.11-155.64,0-47.2-35.72-79.1-76.55-79.1-45.93,0-91.85,42.74-91.85,100.79,0,5.74-5.1,9.57-9.57,9.57-3.83,0-7.65-2.55-7.65-8.29,0-69.53,53.58-119.28,109.08-119.28Z"/><path class="cls-11" d="m565.31,3372.75l11.48-187.54c0-5.74,4.46-8.29,8.29-8.29,4.46,0,8.93,3.19,8.93,9.57l-10.84,186.26h18.5c5.74,0,8.29,4.47,8.29,8.93s-2.55,8.93-8.29,8.93h-19.14l-10.84,187.54c0,5.74-3.83,8.29-8.29,8.29-5.1,0-10.21-3.19-10.21-9.57l10.84-186.26h-166.49c-5.1,0-8.93-3.83-8.29-10.21l24.24-195.83c.64-5.1,4.46-7.02,8.29-7.02,4.46,0,9.57,3.19,8.93,9.57l-22.96,185.62h157.56Z"/><path class="cls-11" d="m796.86,3412.93c1.28-5.1,4.46-7.02,7.65-7.02,4.47,0,8.93,3.83,8.93,10.21l-4.46,80.37c16.58-48.48,44.01-91.22,87.39-91.22s52.31,24.24,52.31,54.86c0,26.79-7.66,58.68-7.66,81.01,0,17.86,4.47,28.07,26.79,28.07,19.77,0,54.86-23.6,88.03-102.06,1.28-3.83,4.46-5.1,7.65-5.1,3.83,0,8.29,3.19,8.29,7.65,0,1.28,0,2.55-.64,3.83-33.17,78.46-70.17,112.9-107.8,112.9-31.89,0-40.19-18.5-40.19-43.38s8.29-56.13,8.29-81.01-7.66-40.82-38.91-40.82c-61.24,0-88.03,148.62-90.58,194.55v2.55l-10.21,189.45c0,5.74-4.47,8.29-8.29,8.29-4.46,0-8.29-3.19-8.29-8.93l18.5-338.71c-2.55,8.93-5.1,10.21-8.93,10.21-4.46,0-8.93-3.19-8.93-8.29,0-1.28,0-1.91.64-3.19,3.83-8.93,15.31-38.91,20.41-54.22Z"/><path class="cls-11" d="m1041.8,3532.22c9.57,20.41,22.96,37,43.38,37,26.79,0,61.87-25.51,94.41-102.06,1.28-3.83,4.47-5.1,7.66-5.1,3.83,0,8.29,3.19,8.29,7.65,0,1.28,0,2.55-.64,3.83-32.53,77.18-72.08,112.9-109.71,112.9-52.94,0-73.99-74.63-73.99-116.09,0-24.88,3.83-64.43,37.63-64.43,20.41,0,30.62,13.4,30.62,33.81,0,9.57-2.55,22.33-7.02,34.45-10.21,23.6-19.77,42.74-30.62,58.05Zm-13.4-70.8c0,19.77,4.46,41.46,6.38,51.03,8.93-14.03,15.95-29.98,22.33-45.93,5.1-12.12,6.38-20.41,6.38-26.79,0-14.03-8.29-17.22-14.67-17.22-15.95,0-20.41,18.5-20.41,38.91Z"/><path class="cls-11" d="m1235.71,3569.21h2.55c22.96-1.28,38.27-19.77,36.36-52.94-1.91-29.98-38.27-63.15-65.06-85.48-3.19,12.12-10.21,27.43-15.95,42.74-1.91,4.46-5.1,5.1-7.02,5.1-5.1,0-10.84-4.46-8.29-11.48,7.65-19.14,15.31-37,17.86-49.75v-.64c-2.55-5.74,1.28-10.84,8.29-10.84,3.83,0,5.74,1.28,7.02,3.83,29.34,27.43,77.82,64.43,79.73,105.89,1.28,19.77-3.19,37-12.12,49.75,33.17-8.29,66.34-32.53,95.68-98.23,1.28-3.83,4.46-5.1,7.65-5.1,5.1,0,10.84,5.1,7.65,11.48-44.01,97.59-98.87,111.63-146.71,112.27-2.55.64-5.1.64-7.65.64-8.29,0-24.88-1.91-31.89-8.29-8.93-7.02,1.91-20.41,10.84-13.4,6.38,3.83,14.03,4.47,21.05,4.47Z"/><path class="cls-11" d="m1529.78,3514.36c7.02.64,13.4,1.28,19.14,1.28,26.79,0,49.75-9.57,66.98-48.48,2.55-5.74,5.1-7.02,8.93-7.02,5.74,0,9.57,5.74,6.38,13.4-18.5,44.65-50.39,59.96-82.29,59.96-7.65,0-17.22-.64-26.15-2.55-17.86,32.53-51.67,54.22-83.56,54.22-42.1,0-74.63-33.17-74.63-75.27,0-61.24,49.12-106.53,95.68-106.53,42.1,0,75.27,30.62,75.27,77.18,0,12.12-1.91,22.96-5.74,33.81Zm-91.22-89.3c-30.62,10.84-56.13,43.38-56.13,84.2,0,33.81,24.88,58.68,56.77,58.68,23.6,0,51.03-15.95,65.7-41.46-38.27-12.12-70.8-39.55-70.8-76.55,0-7.66,1.28-16.58,4.47-24.88Zm21.69-3.83h-.64c-6.38,10.21-8.29,19.77-8.29,28.7,0,26.15,26.15,50.39,61.24,60.6,3.19-9.57,5.1-18.5,5.1-29.34,0-38.27-25.52-59.96-57.41-59.96Z"/><path class="cls-11" d="m1673.93,3569.21h2.55c22.96-1.28,38.27-19.77,36.36-52.94-1.91-29.98-38.27-63.15-65.06-85.48-3.19,12.12-10.21,27.43-15.95,42.74-1.91,4.46-5.1,5.1-7.02,5.1-5.1,0-10.84-4.46-8.29-11.48,7.65-19.14,15.31-37,17.86-49.75v-.64c-2.55-5.74,1.28-10.84,8.29-10.84,3.83,0,5.74,1.28,7.02,3.83,29.34,27.43,77.82,64.43,79.73,105.89,1.28,19.77-3.19,37-12.12,49.75,33.17-8.29,66.34-32.53,95.68-98.23,1.28-3.83,4.46-5.1,7.65-5.1,5.1,0,10.84,5.1,7.65,11.48-44.01,97.59-98.87,111.63-146.71,112.27-2.55.64-5.1.64-7.65.64-8.29,0-24.88-1.91-31.89-8.29-8.93-7.02,1.91-20.41,10.84-13.4,6.38,3.83,14.03,4.47,21.05,4.47Z"/><path class="cls-12" d="m122.15,1370.37l40.82.64h98.23c11.48,0,11.48-17.22,0-17.22h-86.11l-52.94-.64c-10.84,0-10.84,17.22,0,17.22Z"/><g class="cls-10"><path class="cls-14" d="m1035.3,1611.69c58.05-17.86,96.96-73.36,120.56-128.21,1.28-3.83,4.47-5.1,7.66-5.1,5.1,0,10.84,5.1,7.65,11.48-24.88,58.68-69.53,121.2-135.23,139.7,35.08,14.67,48.48,40.19,48.48,80.37,0,22.33,3.83,122.47-38.27,122.47s-38.91-70.17-37-96.32l7.02-96.32c-7.65-2.55-15.95-3.83-24.24-5.1-11.48-1.91-10.21-16.58,1.28-16.58,8.29,0,16.59-.64,24.24-1.91l4.46-53.58c-19.14,24.88-47.84,40.19-74.63,40.19-41.46,0-71.44-32.53-73.36-73.99-2.55-61.24,49.12-105.25,95.04-105.25,41.46,0,71.44,32.53,73.36,73.99v12.76l-7.02,101.42Zm-66.34-171.59c-37,0-80.37,37-77.82,88.03,1.28,33.17,24.88,57.41,56.13,57.41,37,0,80.37-37,78.46-87.39-1.91-33.81-25.51-58.05-56.77-58.05Zm63.79,205.4v.64l-7.02,91.22c-.64,13.4-5.74,78.46,20.41,78.46,22.96,0,21.69-96.96,21.69-105.89,0-36.36-13.4-54.22-35.08-64.43Z"/></g><polygon class="cls-14" points="809.44 2421.43 809.44 2493.26 844.02 2531.84 866.63 2572.16 922.5 2432.07 809.44 2421.43"/><path class="cls-12" d="m852.6,2539.35c9.57,20.41,22.96,37,43.38,37,26.79,0,61.87-25.52,94.41-102.06,1.28-3.83,4.47-5.1,7.66-5.1,3.83,0,8.29,3.19,8.29,7.66,0,1.28,0,2.55-.64,3.83-32.53,77.18-72.08,112.9-109.71,112.9-52.94,0-73.99-74.63-73.99-116.09,0-24.88,3.83-64.43,37.63-64.43,20.41,0,30.62,13.4,30.62,33.81,0,9.57-2.55,22.33-7.02,34.45-10.21,23.6-19.77,42.74-30.62,58.05Zm-13.4-70.8c0,19.77,4.46,41.46,6.38,51.03,8.93-14.03,15.95-29.98,22.33-45.93,5.1-12.12,6.38-20.41,6.38-26.79,0-14.03-8.29-17.22-14.67-17.22-15.95,0-20.41,18.5-20.41,38.91Z"/><g class="cls-15"><path class="cls-14" d="m754.06,2482.95v39.62c0,51.76,14.7,53.68,21.09,53.68,17.89,0,60.7-25.56,94.57-109.27,1.28-3.83,4.47-5.11,7.67-5.11,5.11,0,10.86,5.11,7.67,11.5-33.87,83.71-79.87,120.13-109.91,120.13-22.37,0-38.34-17.89-38.34-70.93v-290.74c0-29.39,13.42-48.56,29.39-48.56,33.87,0,44.73,43.45,44.73,88.18.64,60.06-14.06,138.02-56.23,210.23q-.64.64-.64,1.28Zm40.26-211.51c-.64-48.56-12.78-71.57-28.12-71.57-7.03,0-12.14,4.47-12.14,31.95v215.34c25.56-53.04,40.9-115.66,40.26-175.72Z"/></g></g></svg>