<?xml version="1.0" encoding="UTF-8"?> <svg xmlns="http://www.w3.org/2000/svg" id="Layer_1" viewBox="0 0 450 335"><defs><style>.cls-1{fill:#fff;}.cls-2{fill:#ececec;}.cls-3{fill:#bca5cf;}.cls-4{fill:#231f20;}</style></defs><rect class="cls-1" width="450" height="335"></rect><rect class="cls-2" y="199.03" width="450" height="38.47"></rect><rect class="cls-2" y="98.34" width="450" height="37.31"></rect><rect class="cls-3" x="250.97" y="98.34" width="18.64" height="139.17"></rect><path class="cls-4" d="m84.91,103.58c.14,5.67.28,23.64.14,40.09h29.86c1.52,0,2.63.97,2.63,2.49s-1.11,2.49-2.63,2.49h-29.86c0,8.29-.55,30-.69,47.97,0,1.24-.83,2.35-2.63,2.35-1.52,0-2.63-1.11-2.63-2.63.69-33.18,1.11-72.72.55-92.9l-7.47-.14c-1.52,0-2.63-.97-2.63-2.49s1.11-2.49,2.63-2.49c10.51.28,38.16.41,46.86,0,1.52,0,2.63.97,2.63,2.49s-1.11,2.49-2.63,2.49c-4.56.41-24.75.55-34.15.28Z"></path><path class="cls-4" d="m180.3,149.75c0,8.99-1.38,27.37-1.38,38.57,0,3.87.97,5.39,3.59,5.39,3.59,0,8.29-3.46,10.64-7.33.97-1.52,2.07-2.07,3.32-1.24s1.52,2.07.28,4.01c-4.29,6.22-10.09,9.54-14.79,9.54-5.53,0-8.29-3.32-8.29-9.68,0-12.03,1.38-30.28,1.38-39.12,0-7.47-1.8-10.09-7.88-10.09-10.09,0-27.1,23.36-27.1,56.27,0,1.52-1.11,2.63-2.63,2.63s-2.63-1.11-2.63-2.63c.69-21.15.55-77,0-95.8,0-.97.69-2.76,2.63-2.76,1.38,0,2.63,1.11,2.63,2.63.14,20.32.55,46.04-.14,68.02,8.29-25.3,18.66-33.32,28.62-33.32,7.05,0,11.75,5.12,11.75,14.93Z"></path><path class="cls-4" d="m250.8,234.78c-.69.69-1.11,1.38-2.63,1.38-1.38,0-2.35-1.24-2.35-2.63-.55-13.13-.55-58.2.28-67.6-8.29,25.3-20.05,32.76-30,32.76s-13.69-12.17-13.69-28.89c0-26.96,16.17-34.98,27.37-34.98,7.33,0,12.17,1.52,16.17,3.73,2.63,1.38,4.01,2.35,4.84,4.15.69,1.38.55,3.32.55,4.7-.55,8.29-.97,60-.55,80.46,5.39-5.67,7.19-7.6,9.54-10.51,1.11-1.11,2.35-1.24,3.46-.28s1.24,2.35.28,3.59c-3.18,3.87-8.99,9.95-13.27,14.1Zm-20.6-94.97c-10.51,0-22.53,6.77-22.53,29.45,0,10.51,1.52,24.47,9.82,24.47,10.37,0,25.85-20.74,28.2-49.35-3.04-2.07-8.57-4.56-15.48-4.56Z"></path><path class="cls-4" d="m315.09,149.75c0,8.99-1.52,27.37-1.52,38.57,0,3.87.97,5.39,3.59,5.39,3.59,0,8.57-3.46,10.78-7.33.83-1.52,2.35-1.94,3.59-1.11,1.11.97,1.24,1.94,0,3.87-4.29,6.22-10.09,9.54-14.79,9.54-5.53,0-8.29-3.32-8.29-9.68,0-12.03,1.38-30.28,1.38-39.12,0-7.47-1.8-10.09-7.88-10.09-10.51,0-27.1,23.36-27.1,56.27,0,1.52-1.11,2.63-2.63,2.63s-2.63-1.11-2.63-2.63c.41-12.17.55-38.16.41-58.62,0-1.94,1.52-2.63,2.63-2.63,1.38,0,2.63,1.11,2.63,2.63.14,9.68-.28,21.43-.55,30.69,7.33-25.3,18.66-33.32,28.62-33.32,7.47,0,11.75,5.12,11.75,14.93Z"></path><path class="cls-4" d="m381.03,150.31c0,14.93-14.79,20.87-33.46,20.87h-4.84c1.24,14.24,8.99,22.95,19.22,22.95,7.05,0,12.03-4.42,15.21-8.99.83-1.24,2.63-1.52,3.87-.55,1.24.83,1.11,2.49.41,3.59-4.29,6.08-10.92,10.92-20.05,10.92-14.1,0-24.05-12.58-24.05-31.66s10.92-32.63,26.96-32.63c9.95,0,16.73,6.5,16.73,15.48Zm-38.43,15.9h4.7c18.11,0,28.48-5.94,28.48-15.76,0-6.5-4.56-10.64-12.03-10.64-12.17,0-20.74,10.92-21.15,26.4Z"></path></svg> 