<?xml version="1.0" encoding="UTF-8"?> <svg xmlns="http://www.w3.org/2000/svg" xmlns:xlink="http://www.w3.org/1999/xlink" id="palabras" viewBox="0 0 1920 3248"><defs><style>.cls-1,.cls-2,.cls-3,.cls-4,.cls-5,.cls-6,.cls-7,.cls-8,.cls-9,.cls-10,.cls-11{fill:none;}.cls-2{stroke-dasharray:0 0 1.73 17.33;}.cls-2,.cls-3,.cls-4,.cls-5,.cls-6,.cls-7,.cls-8,.cls-9,.cls-10,.cls-11{stroke-miterlimit:10;}.cls-2,.cls-3,.cls-4,.cls-5,.cls-6,.cls-7,.cls-8,.cls-10,.cls-11{stroke:#a797c9;stroke-linecap:round;stroke-width:7px;}.cls-3{stroke-dasharray:0 0 1.68 16.75;}.cls-12{clip-path:url(#clippath);}.cls-13{letter-spacing:-.02em;}.cls-14{fill:#010101;}.cls-15,.cls-16{fill:#fff;}.cls-17{fill:#937eb9;}.cls-18{fill:#171c32;}.cls-19{fill:#151c31;}.cls-4{stroke-dasharray:0 0 1.69 16.93;}.cls-20{clip-path:url(#clippath-1);}.cls-21{clip-path:url(#clippath-4);}.cls-22{clip-path:url(#clippath-3);}.cls-23{clip-path:url(#clippath-2);}.cls-24{clip-path:url(#clippath-5);}.cls-6{stroke-dasharray:0 0 1.74 17.42;}.cls-25{letter-spacing:0em;}.cls-16{font-family:BelariusSans-WideLight, 'Belarius Sans';font-size:42px;font-weight:300;}.cls-7{stroke-dasharray:0 0 1.64 16.42;}.cls-8{stroke-dasharray:0 0 1.8 17.97;}.cls-26{letter-spacing:-.01em;}.cls-9{stroke:#576889;stroke-width:3.5px;}.cls-10{stroke-dasharray:0 0 1.67 16.7;}.cls-11{stroke-dasharray:0 0 1.64 16.43;}</style><clipPath id="clippath"><rect class="cls-1" x="558.84" y="1264.16" width="124.46" height="124.46" rx="62.23" ry="62.23"></rect></clipPath><clipPath id="clippath-1"><rect class="cls-1" x="972.03" y="1262.8" width="124.46" height="124.46" rx="62.23" ry="62.23"></rect></clipPath><clipPath id="clippath-2"><rect class="cls-1" x="1429.51" y="2071.17" width="159.36" height="159.36" rx="79.68" ry="79.68"></rect></clipPath><clipPath id="clippath-3"><rect class="cls-1" x="1134.22" y="2477.16" width="159.36" height="159.36" rx="79.68" ry="79.68"></rect></clipPath><clipPath id="clippath-4"><rect class="cls-1" x="1183.76" y="2757.75" width="95.77" height="95.77" rx="47.89" ry="47.89"></rect></clipPath><clipPath id="clippath-5"><circle class="cls-1" cx="1587.68" cy="1249.53" r="47.23"></circle></clipPath></defs><path class="cls-18" d="m811.31,3004.18c4.46,1.3,8.95,2.9,13.5,4.89"></path><rect class="cls-19" width="1920" height="3248"></rect><line class="cls-9" y1="208" x2="1920" y2="208"></line><line class="cls-9" y1="324.02" x2="1920" y2="324.02"></line><line class="cls-9" x1="1920" y1="514.17" y2="514.17"></line><line class="cls-9" y1="630.24" x2="1920" y2="630.24"></line><line class="cls-9" y1="977.13" x2="1920" y2="977.13"></line><line class="cls-9" y1="1093.14" x2="1920" y2="1093.14"></line><line class="cls-9" x1="1920" y1="1283.29" y2="1283.29"></line><line class="cls-9" y1="1399.37" x2="1920" y2="1399.37"></line><line class="cls-9" y1="1749.72" x2="1920" y2="1749.72"></line><line class="cls-9" y1="1865.73" x2="1920" y2="1865.73"></line><line class="cls-9" x1="1920" y1="2055.88" y2="2055.88"></line><line class="cls-9" y1="2171.96" x2="1920" y2="2171.96"></line><line class="cls-9" y1="2522.31" x2="1920" y2="2522.31"></line><line class="cls-9" y1="2638.32" x2="1920" y2="2638.32"></line><line class="cls-9" x1="1920" y1="2828.47" y2="2828.47"></line><line class="cls-9" y1="2944.55" x2="1920" y2="2944.55"></line><line class="cls-5" x1="1509.19" y1="2246.4" x2="1509.19" y2="2247.27"></line><line class="cls-11" x1="1509.19" y1="2263.7" x2="1509.19" y2="2309.71"></line><line class="cls-5" x1="1509.19" y1="2317.92" x2="1509.19" y2="2318.79"></line><line class="cls-5" x1="476.64" y1="2072.92" x2="476.64" y2="2073.79"></line><line class="cls-8" x1="476.64" y1="2091.76" x2="476.64" y2="2240.91"></line><line class="cls-5" x1="476.64" y1="2249.89" x2="476.64" y2="2250.76"></line><line class="cls-5" x1="1213.9" y1="2390.7" x2="1213.9" y2="2391.57"></line><line class="cls-11" x1="1213.9" y1="2408" x2="1213.9" y2="2454"></line><line class="cls-5" x1="1213.9" y1="2462.22" x2="1213.9" y2="2463.09"></line><line class="cls-5" x1="1231.65" y1="2867.51" x2="1231.65" y2="2868.38"></line><line class="cls-10" x1="1231.65" y1="2885.08" x2="1231.65" y2="2986.96"></line><line class="cls-5" x1="1231.65" y1="2995.31" x2="1231.65" y2="2996.18"></line><line class="cls-5" x1="620.71" y1="1399.37" x2="620.71" y2="1400.24"></line><line class="cls-6" x1="620.71" y1="1417.66" x2="620.71" y2="1447.27"></line><line class="cls-5" x1="620.71" y1="1455.97" x2="620.71" y2="1456.85"></line><line class="cls-5" x1="1034.26" y1="1399.37" x2="1034.26" y2="1400.24"></line><line class="cls-6" x1="1034.26" y1="1417.66" x2="1034.26" y2="1447.27"></line><line class="cls-5" x1="1034.26" y1="1455.97" x2="1034.26" y2="1456.85"></line><line class="cls-5" x1="621.07" y1="532.33" x2="621.07" y2="533.21"></line><line class="cls-2" x1="621.07" y1="550.54" x2="621.07" y2="675.34"></line><line class="cls-5" x1="621.07" y1="684.01" x2="621.07" y2="684.88"></line><line class="cls-5" x1="923.24" y1="449.25" x2="923.24" y2="450.12"></line><line class="cls-4" x1="923.24" y1="467.04" x2="923.24" y2="663.38"></line><line class="cls-5" x1="923.24" y1="671.84" x2="923.24" y2="672.71"></line><text class="cls-16" transform="translate(863.57 745.08)"><tspan x="0" y="0">Unjoined lowercase leters</tspan></text><text class="cls-16" transform="translate(1034.12 2365.58)"><tspan x="0" y="0">Short ascenders and descenders</tspan></text><text class="cls-16" transform="translate(292.46 2318.79)"><tspan x="0" y="0">Splayed legs of “M”</tspan></text><text class="cls-16" transform="translate(1176.38 3052.25)"><tspan x="0" y="0">Serifed “I”</tspan></text><text class="cls-16" transform="translate(258.77 1516.4)"><tspan x="0" y="0">Short descender on “G”</tspan></text><text class="cls-16" transform="translate(255.05 745.08)"><tspan x="0" y="0">Print style uppercase leters</tspan></text><text class="cls-16" transform="translate(936.24 1516.4)"><tspan x="0" y="0">No descender in “f”</tspan></text><rect class="cls-17" x="558.48" y="1264.16" width="124.46" height="124.46" rx="62.23" ry="62.23"></rect><rect class="cls-17" x="1429.51" y="2071.17" width="159.36" height="159.36" rx="79.68" ry="79.68"></rect><rect class="cls-17" x="1134.22" y="2477.16" width="159.36" height="159.36" rx="79.68" ry="79.68"></rect><rect class="cls-17" x="1183.76" y="2757.75" width="95.77" height="95.77" rx="47.89" ry="47.89"></rect><path class="cls-17" d="m557.42,2053.12c-1.67,3.34-4.18,5.01-7.1,5.01-3.34,0-5.43-1.67-7.1-5.01-31.32-65.56-100.22-220.9-114.83-263.07-2.09,46.77-16.7,179.56-28.81,260.98-.84,4.59-3.76,7.1-8.35,7.1s-7.93-4.18-7.1-8.77c12.94-83.1,29.23-243.44,32.57-289.79,0-5.01,3.34-8.35,7.52-8.35s5.85,2.09,7.1,4.59c23.38,62.22,81.84,195.01,119.01,275.18,36.75-77.67,100.22-228.41,117.76-275.18,1.25-2.92,4.18-4.59,6.68-4.59s7.1,1.25,7.93,7.1c2.51,41.76,19.21,203.77,32.99,291.05.84,4.59-2.51,8.77-7.52,8.77-5.43,0-7.93-2.51-8.77-7.1-10.86-72.24-26.72-216.72-28.81-262.65-15.87,43.01-77.25,189.99-113.16,264.74Z"></path><path class="cls-15" d="m891.05,1911.98c0,45.1-44.68,63.05-101.05,63.05h-14.61c3.76,43.01,27.14,69.32,58.04,69.32,21.3,0,36.33-13.36,45.93-27.14,2.51-3.76,7.93-4.59,11.69-1.67,3.76,2.51,3.34,7.52,1.25,10.86-12.94,18.37-32.99,32.99-60.55,32.99-42.59,0-72.66-38-72.66-95.62s32.99-98.55,81.43-98.55c30.07,0,50.53,19.63,50.53,46.77Zm-116.08,48.02h14.2c54.7,0,86.02-17.96,86.02-47.6,0-19.63-13.78-32.15-36.33-32.15-36.75,0-62.64,32.99-63.89,79.76Z"></path><path class="cls-15" d="m914.85,1876.07c0-4.59,3.76-7.52,7.93-7.52,8.35.42,15.45.42,26.31.42.42-19.63.42-36.75.42-48.86,0-4.59,3.34-7.93,7.93-7.93s7.93,3.34,7.93,7.93c0,12.11,0,29.23-.42,48.86,9.19,0,35.91,0,43.43-.42,4.18,0,6.68,3.34,6.68,7.52,0,3.76-2.51,7.52-6.68,7.52-7.52.42-32.57.42-43.43.42-.42,56.79,0,124.44.84,142.81.42,11.69,2.51,16.29,10.44,16.29,9.6,0,25.47-11.69,31.32-23.38,2.51-4.59,7.52-5.01,11.27-2.51,3.34,2.92,4.59,6.26.84,12.11-12.11,18.79-30.48,28.81-44.68,28.81-16.7,0-24.22-10.02-25.05-29.23-.84-19.21-1.25-88.11-.84-144.9-12.11,0-17.12,0-26.31-.42-4.59,0-7.93-2.92-7.93-7.52Z"></path><path class="cls-15" d="m1199.63,1957.5c0,58.04-32.57,101.89-79.76,101.89s-78.92-35.49-78.92-93.54c0-61.8,33.82-100.63,80.17-100.63s78.5,30.48,78.5,92.28Zm-142.81,8.35c0,50.11,25.89,78.5,63.05,78.5s63.89-37.58,63.89-86.85c0-53.03-27.14-77.25-63.47-77.25s-63.47,32.57-63.47,85.6Z"></path><path class="cls-15" d="m1370.42,1752.47c4.18,0,7.93,3.34,7.93,7.93-2.09,52.61-5.43,192.08-5.43,237.6,0,27.56.42,45.52,12.94,45.52,9.6,0,23.38-9.6,30.48-23.38,1.67-2.92,4.18-4.18,6.68-4.18,3.34,0,7.1,2.51,7.1,6.68,0,1.67-.42,4.59-2.09,7.1-12.11,18.79-30.07,28.81-44.26,28.81-25.47,0-26.31-25.05-26.31-60.13,0-15.03,1.67-35.08,2.51-44.68-16.7,72.66-54.7,104.39-84.77,104.39s-41.76-33.82-41.76-82.26c0-83.51,45.93-110.66,83.93-110.66,18.79,0,30.9,2.92,43.01,9.6,0-24.64,1.67-84.77,2.51-114.41,0-2.09,1.25-7.93,7.52-7.93Zm-53.03,127.78c-35.91,0-68.06,23.38-68.06,94.79,0,38,4.59,68.06,29.65,68.06,31.32,0,73.49-64.31,80.59-150.74-9.19-6.26-21.3-12.11-42.17-12.11Z"></path><path class="cls-15" d="m1468.96,1864.8c4.18,0,7.93,3.34,7.93,7.93,2.09,37.16-2.51,110.66-3.34,139.47-.42,21.3,5.85,30.48,23.8,30.48,31.74,0,86.02-70.57,86.02-169.95,0-4.59,3.34-7.93,7.93-7.93s7.93,3.34,7.93,7.93c.42,16.7,2.09,99.8.42,158.68-2.09,75.58-25.05,139.05-97.71,139.05-15.87,0-27.98-2.92-38.42-6.26-3.76-1.25-5.43-3.34-5.43-7.52,0-6.26,5.85-8.77,10.44-7.52,9.6,3.76,24.64,6.68,33.82,6.68,27.98,0,78.5-13.78,81.43-118.59.84-31.74,1.25-56.37,1.25-83.93-25.05,80.59-61.8,104.39-91.87,104.39-21.3,0-36.75-15.45-35.49-45.1s5.01-112.74,3.34-139.89c0-5.85,4.18-7.93,7.93-7.93Z"></path><path class="cls-17" d="m641.17,516.7c-82.5,0-141.78-65.5-141.78-155.88s59.28-156.29,141.78-156.29c38.97,0,72.55,14.1,97.42,38.97,2.9,2.9,4.15,9.12,0,12.44-3.32,2.49-7.88,2.49-10.78-.41-21.97-22.8-52.24-36.07-86.64-36.07-73.38,0-126.03,60.11-126.03,141.37s52.65,140.95,126.03,140.95c34.41,0,64.67-13.27,86.23-35.65,2.9-2.9,7.46-3.73,10.78-.83,3.73,2.9,4.15,7.88.83,11.61-24.87,25.7-58.87,39.8-97.84,39.8Z"></path><path class="cls-15" d="m841.82,514.63c-4.15,0-7.46-1.66-9.12-5.39-25.29-59.7-53.48-131-73.79-173.7-2.49-4.97.41-9.53,3.73-11.19,5.39-2.9,9.53.83,11.19,4.15,24.04,53.06,50.58,117.74,67.57,164.17,21.97-48.09,53.48-124.78,64.26-163.34.83-2.9,3.73-5.8,7.88-5.8,4.56,0,7.88,3.32,7.88,7.88,0,1.66-.41,4.15-.83,4.97-10.36,33.58-42.7,114.01-70.89,172.87-1.66,3.32-4.15,5.39-7.88,5.39Z"></path><path class="cls-15" d="m982.35,269.21c0,6.63-5.8,12.44-12.44,12.44s-12.44-5.8-12.44-12.44,5.8-12.44,12.44-12.44,12.44,5.8,12.44,12.44Zm-8.71,212.67c0,11.61,2.49,16.17,10.36,16.17,9.53,0,23.63-8.71,30.68-23.22,2.49-4.97,7.46-4.97,11.19-2.49,3.32,2.9,4.15,6.22.41,12.02-12.02,18.66-29.43,28.6-43.53,28.6-16.58,0-24.87-9.95-24.87-29.02,0-57.62,1.66-114.42,2.9-154.63.41-7.05,6.22-7.88,8.29-7.88,4.56,0,7.46,3.32,7.46,7.88-1.66,49.75-2.9,100.32-2.9,152.56Z"></path><path class="cls-15" d="m1124.55,321.44c21.56,0,43.11,7.46,55.97,25.7,2.49,3.32,2.49,8.29-1.24,10.78-3.73,2.9-8.71,2.07-11.61-1.66-10.36-13.68-26.95-19.9-44.77-19.9-37.31,0-63.84,32.34-63.84,80.84s25.29,82.08,62.6,82.08c18.24,0,31.09-4.56,46.85-24.46,2.9-3.73,7.46-4.97,11.19-2.07,3.73,2.49,3.32,7.46,1.24,10.78-15.75,23.22-37.31,30.68-58.87,30.68-48.09,0-78.77-39.8-78.77-97.01s33.17-95.76,81.25-95.76Zm5.39-36.48c-1.24,1.66-2.9,3.32-5.8,3.32-3.32,0-4.56-.83-6.22-3.32-9.12-12.44-35.65-48.5-44.77-59.7-2.9-3.32-2.9-7.46.41-10.36,3.73-2.49,8.71-2.07,11.61,1.66,8.29,10.36,31.09,41.87,39.38,53.06,7.88-11.19,29.02-40.63,38.14-52.24,2.9-3.73,7.46-4.15,11.19-1.66,3.32,2.49,2.9,6.63,0,9.95-8.71,11.19-34.82,46.85-43.94,59.28Z"></path><path class="cls-15" d="m1249.33,269.21c0,6.63-5.8,12.44-12.44,12.44s-12.44-5.8-12.44-12.44,5.8-12.44,12.44-12.44,12.44,5.8,12.44,12.44Zm-8.71,212.67c0,11.61,2.49,16.17,10.36,16.17,9.53,0,23.63-8.71,30.68-23.22,2.49-4.97,7.46-4.97,11.19-2.49,3.32,2.9,4.15,6.22.41,12.02-12.02,18.66-29.43,28.6-43.53,28.6-16.58,0-24.87-9.95-24.87-29.02,0-57.62,1.66-114.42,2.9-154.63.41-7.05,6.22-7.88,8.29-7.88,4.56,0,7.46,3.32,7.46,7.88-1.66,49.75-2.9,100.32-2.9,152.56Z"></path><path class="cls-15" d="m1299.91,332.22c0-4.56,3.73-7.46,7.88-7.46,8.29.41,15.34.41,26.12.41.41-19.48.41-36.48.41-48.5,0-4.56,3.32-7.88,7.88-7.88s7.88,3.32,7.88,7.88c0,12.02,0,29.02-.41,48.5,9.12,0,35.65,0,43.11-.41,4.15,0,6.63,3.32,6.63,7.46,0,3.73-2.49,7.46-6.63,7.46-7.46.41-32.34.41-43.11.41-.41,56.38,0,123.54.83,141.78.41,11.61,2.49,16.17,10.36,16.17,9.53,0,25.29-11.61,31.09-23.22,2.49-4.56,7.46-4.97,11.19-2.49,3.32,2.9,4.56,6.22.83,12.02-12.02,18.66-30.26,28.6-44.36,28.6-16.58,0-24.04-9.95-24.87-29.02-.83-19.07-1.24-87.47-.83-143.85-12.02,0-17,0-26.12-.41-4.56,0-7.88-2.9-7.88-7.46Z"></path><path class="cls-15" d="m521.54,1285.47c-82.16,0-139.96-65.23-139.96-155.23s59.04-155.65,141.2-155.65c38.81,0,73.08,14.45,97.43,39.22,2.89,2.89,3.3,8.67-.41,11.97-3.3,2.48-7.84,2.48-10.73-.41-23.53-22.71-52.02-35.92-86.29-35.92-73.08,0-125.51,59.86-125.51,140.78s51.19,140.37,124.27,140.37c32.62,0,62.75-11.97,87.53-33.03,0-22.71.41-45.41,0-67.71,0-4.54,3.3-7.84,7.84-7.84s7.84,3.3,7.84,7.84v164.32c0,4.54-3.3,7.84-7.84,7.84s-7.84-3.3-7.84-7.84c.41-26.01.41-52.02,0-77.62-16.1,14.86-51.61,28.9-87.53,28.9Z"></path><path class="cls-15" d="m691.22,1091.01c4.13,0,7.43,2.89,7.43,7.84.41,5.78,1.24,21.06.41,31.38,14.86-26.42,33.85-39.22,55.32-39.22,14.45,0,25.6,5.78,35.09,18.17,2.48,3.3,2.89,8.26-.41,10.73-3.72,3.3-8.67,2.89-11.56-.83-6.61-9.5-13.62-13.21-27.25-13.21-19.4,0-50.37,26.01-50.37,77.62,0,12.39,0,62.34-1.24,90.42,0,4.54-3.3,7.84-7.84,7.84s-8.26-3.3-7.84-7.84c1.65-33.03,1.65-143.67,0-175.05.41-4.95,3.72-7.84,8.26-7.84Z"></path><path class="cls-15" d="m839.02,1281.75c-28.9,0-41.29-33.44-41.29-81.33,0-82.57,45.41-109.41,82.98-109.41,18.58,0,31.38,2.89,43.35,9.5,7.84,4.13,11.97,6.19,14.45,11.56,1.65,3.3,2.06,6.61,1.65,10.73-2.06,20.23-4.54,67.71-4.54,99.5,0,27.25.41,45,12.8,45,9.5,0,23.12-9.5,30.14-23.12,1.65-2.89,4.13-4.13,6.61-4.13,3.3,0,7.02,2.48,7.02,6.61,0,1.65-.41,4.54-2.06,7.02-11.97,18.58-28.9,28.49-42.94,28.49-25.18,0-26.84-24.77-26.84-59.45,0-14.86,2.06-34.27,2.89-43.76-16.51,71.84-52.85,102.8-84.22,102.8Zm41.7-175.88c-35.51,0-67.3,23.12-67.3,93.72,0,37.57,4.54,67.3,29.31,67.3,30.96,0,73.49-63.58,80.51-149.04-9.08-6.19-21.88-11.97-42.52-11.97Z"></path><path class="cls-15" d="m1043.8,1311.89c0,4.54-3.3,7.84-7.84,7.84s-7.02-3.3-7.02-7.84c1.24-42.52.83-163.49-.83-201.47-6.19,0-17.75,0-28.49-.41-4.54,0-7.84-2.89-7.84-7.43s3.3-7.43,7.84-7.43c10.32.41,21.88.41,28.49.41v-35.51c0-56.56,31.38-85.05,63.99-85.05,15.28,0,27.66,5.37,33.85,10.73,1.24,1.24,2.06,3.3,2.06,5.37,0,4.54-3.72,7.84-7.84,7.84-2.89,0-4.95-1.65-5.78-2.48-4.95-3.3-12.8-6.61-21.47-6.61-26.42,0-49.13,26.01-49.13,65.64v40.05c5.78,0,34.27,0,43.76-.41,4.54,0,7.84,2.89,7.84,7.43s-3.3,7.43-7.84,7.43c-9.91.41-37.57.41-43.76.41,1.24,37.16,1.24,158.95,0,201.47Z"></path><path class="cls-15" d="m1149.07,1038.99c0,6.61-5.78,12.39-12.39,12.39s-12.39-5.78-12.39-12.39,5.78-12.39,12.39-12.39,12.39,5.78,12.39,12.39Zm-8.67,211.79c0,11.56,2.48,16.1,10.32,16.1,9.5,0,23.53-8.67,30.55-23.12,2.48-4.95,7.43-4.95,11.15-2.48,3.3,2.89,4.13,6.19.41,11.97-11.97,18.58-29.31,28.49-43.35,28.49-16.51,0-24.77-9.91-24.77-28.9,0-57.39,1.65-113.95,2.89-153.99.41-7.02,6.19-7.84,8.26-7.84,4.54,0,7.43,3.3,7.43,7.84-1.65,49.54-2.89,99.91-2.89,151.93Z"></path><path class="cls-15" d="m1237.83,1273.91c-.41,4.54-3.3,7.84-7.84,7.84s-7.84-3.3-7.84-7.84c1.65-42.94,1.24-246.06,0-286.52,0-3.3,1.65-7.84,7.84-7.84,4.13,0,7.84,3.3,7.84,7.84.83,35.92.41,128.4-.41,174.64,17.34-45,48.3-71.01,86.29-71.01,25.6,0,36.74,18.17,36.74,37.16,0,34.27-25.18,72.66-103.63,72.66,32.62,38.81,57.39,66.47,74.31,66.47s26.84-11.56,34.68-23.12c2.06-2.89,4.13-3.72,6.61-3.72,4.54,0,7.84,3.3,7.84,7.84,0,2.06-.83,3.72-1.65,4.95-14.04,18.17-26.84,28.49-47.48,28.49-25.18,0-34.27-13.21-93.31-78.86.41,11.56,1.24,54.5,0,71.01Zm107.76-144.5c0-14.04-7.43-23.53-23.95-23.53-31.38,0-60.28,25.18-80.51,81.75,92.07,5.78,104.45-41.7,104.45-58.21Z"></path><path class="cls-15" d="m1443.85,1281.75c-28.9,0-41.29-33.44-41.29-81.33,0-82.57,45.41-109.41,82.98-109.41,18.58,0,31.38,2.89,43.35,9.5,7.84,4.13,11.97,6.19,14.45,11.56,1.65,3.3,2.06,6.61,1.65,10.73-2.06,20.23-4.54,67.71-4.54,99.5,0,27.25.41,45,12.8,45,9.5,0,23.12-9.5,30.14-23.12,1.65-2.89,4.13-4.13,6.61-4.13,3.3,0,7.02,2.48,7.02,6.61,0,1.65-.41,4.54-2.06,7.02-11.97,18.58-28.9,28.49-42.94,28.49-25.18,0-26.84-24.77-26.84-59.45,0-14.86,2.06-34.27,2.89-43.76-16.51,71.84-52.85,102.8-84.22,102.8Zm41.7-175.88c-35.51,0-67.3,23.12-67.3,93.72,0,37.57,4.54,67.3,29.31,67.3,30.96,0,73.49-63.58,80.51-149.04-9.08-6.19-21.88-11.97-42.52-11.97Z"></path><path class="cls-15" d="m426.9,2534.85c0,4.56-3.32,7.47-7.88,7.47-6.22,0-15.77.41-24.48.41.83,34.44.41,216.21,0,266.84,9.13,0,17.01,0,24.48.41,4.56,0,7.88,2.9,7.88,7.47s-2.9,7.47-7.47,7.47c-17.43-.41-48.14-.41-65.15,0-4.56,0-7.88-2.9-7.88-7.47s3.32-7.47,7.88-7.47c6.64-.41,16.18-.41,24.48-.41,1.24-50.63.83-229.91,0-266.84-9.96,0-19.5-.41-24.48-.41-4.56,0-7.88-2.9-7.88-7.47s3.32-7.47,7.88-7.47c12.86.41,53.12.41,64.74,0,4.56,0,7.88,2.9,7.88,7.47Z"></path><path class="cls-15" d="m712.83,2681.76c0,24.07-3.73,77.19-3.73,115.78,0,11.62,2.07,16.18,9.96,16.18,9.54,0,23.65-9.13,31.12-23.24,2.9-5.39,7.05-5.39,10.79-2.9,3.73,2.49,3.32,6.64-.41,12.45-12.03,18.67-28.63,28.63-42.74,28.63-16.6,0-24.9-9.96-24.9-29.05,0-34.86,4.15-93.79,4.15-117.44,0-22.41-4.98-30.29-21.58-30.29-28.63,0-73.04,70.13-73.04,168.9,0,4.56-3.32,7.88-7.88,7.88s-7.47-2.9-7.88-7.88c-2.9-35.27,0-112.05,0-138.61,0-22.41-4.98-30.29-21.58-30.29-28.63,0-70.13,70.13-70.13,168.9,0,4.56-3.32,7.88-7.88,7.88s-8.3-3.32-7.88-7.88c2.07-33.61,1.66-144.42,0-175.54,0-7.05,5.39-8.3,7.88-8.3,4.15,0,7.88,3.32,7.88,7.88,1.24,19.5.41,63.08-.83,90.47,16.6-75.11,48.55-98.35,75.94-98.35,19.09,0,32.37,16.18,32.37,44.82,0,14.94-1.66,38.18-1.66,55.61,16.6-76.36,52.29-100.43,79.68-100.43,19.92,0,32.37,15.35,32.37,44.82Z"></path><path class="cls-15" d="m799.97,2636.94c4.15,0,7.47,2.9,7.47,7.88.83,21.16,1.66,59.34,0,90.47,24.9-75.94,59.76-98.35,89.64-98.35s41.08,36.52,41.08,86.73c0,80.92-48.55,104.99-82.17,104.99-21.99,0-36.52-4.56-48.55-11.2,0,22.41.83,80.92-.41,115.78,0,4.56-3.32,7.88-7.88,7.88s-8.3-3.32-7.88-7.88c2.9-48.97,1.66-235.3.41-288.42.41-4.98,3.73-7.88,8.3-7.88Zm54.78,176.79c31.54,0,67.64-20.33,67.64-88.39,0-31.54-4.56-73.45-29.46-73.45-31.12,0-77.6,62.25-84.66,148.15,9.13,6.22,25.73,13.69,46.48,13.69Z"></path><path class="cls-15" d="m1000,2783.43c0,22.41,5.39,30.29,23.65,30.29,31.54,0,81.34-70.13,81.34-168.9,0-4.56,3.32-7.88,7.88-7.88s7.88,3.32,7.88,7.88c-1.24,36.52-1.66,90.88-1.66,152.3,0,11.62,2.49,16.18,10.37,16.18,10.79,0,25.73-10.37,32.37-21.99,2.49-4.56,6.22-6.22,9.96-3.73,3.32,2.9,4.56,6.22.83,12.03-12.86,18.67-30.29,28.63-44.41,28.63-16.6,0-24.9-9.96-24.9-29.05,0-20.75.83-42.74,1.66-70.55-24.9,75.94-55.61,100.01-85.49,100.01-21.16,0-35.27-15.35-35.27-44.82,0-26.97,3.32-105.82,3.32-139.44,0-5.39,3.73-7.88,7.88-7.88s7.88,3.32,7.88,7.88c0,36.1-3.32,112.46-3.32,139.02Z"></path><path class="cls-15" d="m1212.06,2524.89c4.15,0,7.88,3.32,7.88,7.88,0,91.3-2.07,212.48-2.07,264.77,0,11.62,2.49,16.18,10.37,16.18,9.54,0,23.65-9.96,31.12-23.24,2.49-4.56,7.47-4.98,11.2-2.49,3.32,2.9,4.15,6.22.41,12.03-12.03,18.67-29.88,28.63-43.99,28.63-16.6,0-24.9-9.96-24.9-29.05.41-54.36,2.07-201.27,2.07-266.84,0-4.15,2.07-7.88,7.88-7.88Z"></path><path class="cls-15" d="m1334.48,2814.97c26.56,0,41.08-11.2,41.08-32.78,0-44.4-78.43-51.04-78.43-98.35,0-25.31,21.99-46.89,48.55-46.89,14.94,0,28.63,4.98,36.93,11.2,2.49,1.66,3.73,3.73,3.73,6.64,0,4.56-3.32,7.88-7.88,7.88-2.49,0-4.56-1.24-5.39-2.07-5.39-4.15-16.18-8.71-27.39-8.71-20.33,0-32.78,10.37-32.78,28.63,0,39.42,78.43,47.31,78.43,99.18,0,29.05-22.82,50.21-56.44,50.21-19.5,0-34.86-7.05-48.97-19.5-1.66-1.66-2.49-3.32-2.49-5.81,0-4.56,3.32-7.88,7.88-7.88,2.07,0,3.32.41,4.98,2.07,10.79,11.2,26.97,16.18,38.18,16.18Z"></path><path class="cls-15" d="m1450.27,2783.43c0,22.41,5.39,30.29,23.65,30.29,31.54,0,81.34-70.13,81.34-168.9,0-4.56,3.32-7.88,7.88-7.88s7.88,3.32,7.88,7.88c-1.24,36.52-1.66,90.88-1.66,152.3,0,11.62,2.49,16.18,10.37,16.18,10.79,0,25.73-10.37,32.37-21.99,2.49-4.56,6.22-6.22,9.96-3.73,3.32,2.9,4.56,6.22.83,12.03-12.86,18.67-30.29,28.63-44.4,28.63-16.6,0-24.9-9.96-24.9-29.05,0-20.75.83-42.74,1.66-70.55-24.9,75.94-55.61,100.01-85.49,100.01-21.16,0-35.27-15.35-35.27-44.82,0-26.97,3.32-105.82,3.32-139.44,0-5.39,3.73-7.88,7.88-7.88s7.88,3.32,7.88,7.88c0,36.1-3.32,112.46-3.32,139.02Zm102.09-214.14c0,24.9-18.26,43.16-43.16,43.16s-43.16-18.26-43.16-43.16,18.26-43.16,43.16-43.16,43.16,18.26,43.16,43.16Zm-71.79,0c0,17.43,11.2,29.88,28.63,29.88s28.63-12.45,28.63-29.88-11.2-29.88-28.63-29.88-28.63,12.45-28.63,29.88Z"></path><g class="cls-12"><path class="cls-19" d="m521.54,1285.47c-82.16,0-139.96-65.23-139.96-155.23s59.04-155.65,141.2-155.65c38.81,0,73.08,14.45,97.43,39.22,2.89,2.89,3.3,8.67-.41,11.97-3.3,2.48-7.84,2.48-10.73-.41-23.53-22.71-52.02-35.92-86.29-35.92-73.08,0-125.51,59.86-125.51,140.78s51.19,140.37,124.27,140.37c32.62,0,62.75-11.97,87.53-33.03,0-22.71.41-45.41,0-67.71,0-4.54,3.3-7.84,7.84-7.84s7.84,3.3,7.84,7.84v164.32c0,4.54-3.3,7.84-7.84,7.84s-7.84-3.3-7.84-7.84c.41-26.01.41-52.02,0-77.62-16.1,14.86-51.61,28.9-87.53,28.9Z"></path></g><rect class="cls-17" x="972.03" y="1262.8" width="124.46" height="124.46" rx="62.23" ry="62.23"></rect><g class="cls-20"><path class="cls-14" d="m1043.8,1311.89c0,4.54-3.3,7.84-7.84,7.84s-7.02-3.3-7.02-7.84c1.24-42.52.83-163.49-.83-201.47-6.19,0-17.75,0-28.49-.41-4.54,0-7.84-2.89-7.84-7.43s3.3-7.43,7.84-7.43c10.32.41,21.88.41,28.49.41v-35.51c0-56.56,31.38-85.05,63.99-85.05,15.28,0,27.66,5.37,33.85,10.73,1.24,1.24,2.06,3.3,2.06,5.37,0,4.54-3.72,7.84-7.84,7.84-2.89,0-4.95-1.65-5.78-2.48-4.95-3.3-12.8-6.61-21.47-6.61-26.42,0-49.13,26.01-49.13,65.64v40.05c5.78,0,34.27,0,43.76-.41,4.54,0,7.84,2.89,7.84,7.43s-3.3,7.43-7.84,7.43c-9.91.41-37.57.41-43.76.41,1.24,37.16,1.24,158.95,0,201.47Z"></path></g><g class="cls-23"><path class="cls-19" d="m1468.96,1864.8c4.18,0,7.93,3.34,7.93,7.93,2.09,37.16-2.51,110.66-3.34,139.47-.42,21.3,5.85,30.48,23.8,30.48,31.74,0,86.02-70.57,86.02-169.95,0-4.59,3.34-7.93,7.93-7.93s7.93,3.34,7.93,7.93c.42,16.7,2.09,99.8.42,158.68-2.09,75.58-25.05,139.05-97.71,139.05-15.87,0-27.98-2.92-38.42-6.26-3.76-1.25-5.43-3.34-5.43-7.52,0-6.26,5.85-8.77,10.44-7.52,9.6,3.76,24.64,6.68,33.82,6.68,27.98,0,78.5-13.78,81.43-118.59.84-31.74,1.25-56.37,1.25-83.93-25.05,80.59-61.8,104.39-91.87,104.39-21.3,0-36.75-15.45-35.49-45.1s5.01-112.74,3.34-139.89c0-5.85,4.18-7.93,7.93-7.93Z"></path></g><g class="cls-22"><path class="cls-19" d="m1212.06,2524.89c4.15,0,7.88,3.32,7.88,7.88,0,91.3-2.07,212.48-2.07,264.77,0,11.62,2.49,16.18,10.37,16.18,9.54,0,23.65-9.96,31.12-23.24,2.49-4.56,7.47-4.98,11.2-2.49,3.32,2.9,4.15,6.22.41,12.03-12.03,18.67-29.88,28.63-43.99,28.63-16.6,0-24.9-9.96-24.9-29.05.41-54.36,2.07-201.27,2.07-266.84,0-4.15,2.07-7.88,7.88-7.88Z"></path></g><g class="cls-21"><path class="cls-19" d="m1212.06,2524.89c4.15,0,7.88,3.32,7.88,7.88,0,91.3-2.07,212.48-2.07,264.77,0,11.62,2.49,16.18,10.37,16.18,9.54,0,23.65-9.96,31.12-23.24,2.49-4.56,7.47-4.98,11.2-2.49,3.32,2.9,4.15,6.22.41,12.03-12.03,18.67-29.88,28.63-43.99,28.63-16.6,0-24.9-9.96-24.9-29.05.41-54.36,2.07-201.27,2.07-266.84,0-4.15,2.07-7.88,7.88-7.88Z"></path></g><circle class="cls-17" cx="1587.68" cy="1249.53" r="47.23"></circle><g class="cls-24"><path class="cls-19" d="m1443.85,1281.75c-28.9,0-41.29-33.44-41.29-81.33,0-82.57,45.41-109.41,82.98-109.41,18.58,0,31.38,2.89,43.35,9.5,7.84,4.13,11.97,6.19,14.45,11.56,1.65,3.3,2.06,6.61,1.65,10.73-2.06,20.23-4.54,67.71-4.54,99.5,0,27.25.41,45,12.8,45,9.5,0,23.12-9.5,30.14-23.12,1.65-2.89,4.13-4.13,6.61-4.13,3.3,0,7.02,2.48,7.02,6.61,0,1.65-.41,4.54-2.06,7.02-11.97,18.58-28.9,28.49-42.94,28.49-25.18,0-26.84-24.77-26.84-59.45,0-14.86,2.06-34.27,2.89-43.76-16.51,71.84-52.85,102.8-84.22,102.8Zm41.7-175.88c-35.51,0-67.3,23.12-67.3,93.72,0,37.57,4.54,67.3,29.31,67.3,30.96,0,73.49-63.58,80.51-149.04-9.08-6.19-21.88-11.97-42.52-11.97Z"></path></g><line class="cls-5" x1="1591.62" y1="1309.99" x2="1591.62" y2="1310.86"></line><line class="cls-3" x1="1591.62" y1="1327.61" x2="1591.62" y2="1448.22"></line><line class="cls-5" x1="1591.62" y1="1456.59" x2="1591.62" y2="1457.47"></line><text class="cls-16" transform="translate(1481.66 1517.02)"><tspan x="0" y="0">Exit strokes </tspan><tspan x="0" y="48.85">on baseline fnials</tspan></text><polygon class="cls-17" points="508.5 2663.68 511.28 2577.28 556.92 2592.75 508.5 2663.68"></polygon><text class="cls-16" transform="translate(115.77 2452.37)"><tspan x="0" y="0">Deep connection bet</tspan><tspan class="cls-13" x="411.34" y="0">w</tspan><tspan class="cls-25" x="445.28" y="0">een shoulder and s</tspan><tspan class="cls-26" x="815.71" y="0">t</tspan><tspan x="830.87" y="0">em</tspan></text><line class="cls-5" x1="535.03" y1="2476.7" x2="535.03" y2="2477.57"></line><line class="cls-7" x1="535.03" y1="2493.99" x2="535.03" y2="2558.02"></line><line class="cls-5" x1="535.03" y1="2566.23" x2="535.03" y2="2567.1"></line></svg> 