<?xml version="1.0" encoding="UTF-8"?> <svg xmlns="http://www.w3.org/2000/svg" xmlns:xlink="http://www.w3.org/1999/xlink" viewBox="0 0 1920 3622"><defs><style>.cls-1,.cls-2,.cls-3,.cls-4,.cls-5,.cls-6,.cls-7,.cls-8,.cls-9,.cls-10,.cls-11,.cls-12,.cls-13{fill:none;}.cls-2{stroke-dasharray:0 0 1.83 18.33;}.cls-2,.cls-3,.cls-4,.cls-5,.cls-6,.cls-7,.cls-8,.cls-9,.cls-10,.cls-11,.cls-12,.cls-13{stroke-miterlimit:10;}.cls-2,.cls-3,.cls-4,.cls-5,.cls-6,.cls-7,.cls-8,.cls-9,.cls-10,.cls-11,.cls-13{stroke:#a797c9;stroke-linecap:round;stroke-width:7px;}.cls-14{clip-path:url(#clippath);}.cls-3{stroke-dasharray:0 0 1.7 17.04;}.cls-4{stroke-dasharray:0 0 1.8 17.97;}.cls-15{fill:#fff;}.cls-16{fill:#937fbb;}.cls-17{fill:#a797c9;}.cls-18{fill:#171c32;}.cls-19{fill:#947fbb;}.cls-5{stroke-dasharray:0 0 1.72 17.21;}.cls-20{clip-path:url(#clippath-1);}.cls-21{clip-path:url(#clippath-3);}.cls-22{clip-path:url(#clippath-2);}.cls-7{stroke-dasharray:0 0 1.67 16.75;}.cls-8{stroke-dasharray:0 0 1.64 16.42;}.cls-9{stroke-dasharray:0 0 1.74 17.42;}.cls-10{stroke-dasharray:0 0 1.9 19;}.cls-11{stroke-dasharray:0 0 1.8 17.98;}.cls-12{stroke:#57678b;stroke-width:3.5px;}.cls-13{stroke-dasharray:0 0 1.81 18.08;}</style><clipPath id="clippath"><circle class="cls-1" cx="1386.29" cy="1255.32" r="49.13"></circle></clipPath><clipPath id="clippath-1"><circle class="cls-1" cx="715.74" cy="1518.61" r="110.63"></circle></clipPath><clipPath id="clippath-2"><circle class="cls-1" cx="926.21" cy="1405.21" r="67.17"></circle></clipPath><clipPath id="clippath-3"><circle class="cls-1" cx="951.07" cy="2027.01" r="117.74"></circle></clipPath></defs><g id="Background"><rect class="cls-18" width="1920" height="3622"></rect></g><g id="Horizontal_Guides"><line class="cls-12" y1="1071.49" x2="1920" y2="1071.49"></line><line class="cls-12" y1="1243.99" x2="1920" y2="1243.99"></line><line class="cls-12" x1="1920" y1="1427.87" y2="1427.87"></line><line class="cls-12" y1="1586.32" x2="1920" y2="1586.32"></line><line class="cls-12" y1="1941.08" x2="1920" y2="1941.08"></line><line class="cls-12" y1="2113.58" x2="1920" y2="2113.58"></line><line class="cls-12" x1="1920" y1="2297.46" y2="2297.46"></line><line class="cls-12" y1="2455.91" x2="1920" y2="2455.91"></line><line class="cls-12" y1="2807.13" x2="1920" y2="2807.13"></line><line class="cls-12" y1="2979.63" x2="1920" y2="2979.63"></line><line class="cls-12" x1="1920" y1="3163.51" y2="3163.51"></line><line class="cls-12" y1="3321.96" x2="1920" y2="3321.96"></line><line class="cls-12" y1="205" x2="1920" y2="205"></line><line class="cls-12" y1="377.5" x2="1920" y2="377.5"></line><line class="cls-12" x1="1920" y1="561.38" y2="561.38"></line><line class="cls-12" y1="719.83" x2="1920" y2="719.83"></line></g><g id="info"><circle class="cls-19" cx="926.21" cy="1405.21" r="67.17"></circle><polygon class="cls-19" points="979.03 719.83 1031.36 719.83 1253.93 205 1201.59 205 979.03 719.83"></polygon><path class="cls-15" d="m884.71,780.25v-2.02h3.02v2.18c0,3.74,2.6,6.05,7.94,6.05s8.44-1.97,8.44-6.22c0-3.32-1.39-5.17-4.92-6.09l-6.64-1.72c-4.33-1.13-7.18-2.98-7.18-8.15s3.78-8.91,10.92-8.91,10.59,3.44,10.59,9.07v2.94h-3.02v-2.81c0-4.62-3.07-6.51-7.56-6.51-5.12,0-7.81,2.14-7.81,6.01,0,3.61,1.76,4.7,5.54,5.71l5.75,1.55c5.12,1.39,7.44,3.74,7.44,8.65,0,6.09-4.33,9.24-11.47,9.24-9.12,0-11.05-4.7-11.05-8.99Z"></path><path class="cls-15" d="m925.37,786v2.6c-.76.21-2.14.59-4.03.59-3.82,0-6.34-1.6-6.34-6.89v-12.18h-4.16v-2.44h4.16v-6.05l2.94-1.43v7.48h5.92v2.44h-5.92v11.8c0,2.81.76,4.58,3.4,4.58,1.6,0,3.23-.29,4.03-.5Z"></path><path class="cls-15" d="m946.83,779.2h-15.96c.17,4.79,2.48,7.48,6.93,7.48,3.82,0,5.67-1.43,5.96-4.83h2.98c-.29,4.24-3.28,7.39-9.03,7.39-7.06,0-9.83-4.66-9.83-10.88s3.23-11.22,10-11.22,8.95,3.99,8.95,10.21v1.85Zm-3.11-2.98c0-4.45-1.72-6.55-5.92-6.55s-6.55,2.65-6.89,6.97h12.81v-.42Z"></path><path class="cls-15" d="m969.98,779.2h-15.96c.17,4.79,2.48,7.48,6.93,7.48,3.82,0,5.67-1.43,5.96-4.83h2.98c-.29,4.24-3.28,7.39-9.03,7.39-7.06,0-9.83-4.66-9.83-10.88s3.23-11.22,10-11.22,8.95,3.99,8.95,10.21v1.85Zm-3.11-2.98c0-4.45-1.72-6.55-5.92-6.55s-6.55,2.65-6.89,6.97h12.81v-.42Z"></path><path class="cls-15" d="m975.85,767.69h2.39l.34,3.86h.08c1.13-2.48,4.03-4.41,7.86-4.41,6.3,0,9.66,3.99,9.66,11.01s-4.29,11.09-9.87,11.09c-3.78,0-6.38-1.6-7.44-3.7h-.08v11.55h-2.94v-29.41Zm17.18,10.63c0-7.18-3.4-8.61-6.93-8.61-4.24,0-7.56,2.73-7.56,8.44,0,6.01,3.44,8.57,7.44,8.57,3.02,0,7.06-1.47,7.06-8.4Z"></path><path class="cls-15" d="m1009.83,782.26v-1.18h2.94v1.13c0,2.86,2.14,4.5,5.96,4.5s5.8-1.01,5.8-3.78c0-2.06-1.01-2.81-3.87-3.32l-4.62-.84c-3.02-.55-5.54-2.02-5.54-5.5,0-3.15,2.35-6.13,8.4-6.13s8.4,3.02,8.4,7.23v.88h-2.98v-.76c0-3.44-2.14-4.91-5.42-4.91-3.95,0-5.33,1.34-5.33,3.36s1.01,2.86,3.91,3.4l4.03.76c4.12.76,6.09,1.93,6.09,5.59,0,4.58-4.12,6.55-8.78,6.55-7.31,0-8.99-3.28-8.99-6.97Z"></path><path class="cls-15" d="m1033.48,755.93h2.94v32.77h-2.94v-32.77Z"></path><path class="cls-15" d="m1042.51,782.89c0-3.95,2.23-6.09,7.86-6.09h6.34v-1.72c0-2.98-1.26-5.42-5.46-5.42-3.95,0-5.33,1.51-5.33,4.12v.88h-2.98v-.84c0-5,4.2-6.68,8.32-6.68,5.8,0,8.4,2.86,8.4,8.44v13.11h-2.06l-.55-2.98h-.08c-1.26,1.89-3.7,3.53-7.35,3.53-4.92,0-7.1-2.31-7.1-6.34Zm14.2-1.85v-1.76h-7.02c-2.65,0-4.03.92-4.03,3.61,0,2.35,1.26,3.86,4.5,3.86,4.16,0,6.55-2.14,6.55-5.71Z"></path><path class="cls-15" d="m1066.99,767.69h2.6l.29,3.49c1.01-2.14,3.28-4.03,7.35-4.03,4.75,0,7.77,2.52,7.77,7.94v13.61h-2.94v-13.27c0-4.33-2.14-5.71-5.5-5.71-3.82,0-6.64,2.69-6.64,5.63v13.36h-2.94v-21Z"></path><path class="cls-15" d="m1103.32,786v2.6c-.76.21-2.14.59-4.03.59-3.82,0-6.34-1.6-6.34-6.89v-12.18h-4.16v-2.44h4.16v-6.05l2.94-1.43v7.48h5.92v2.44h-5.92v11.8c0,2.81.76,4.58,3.4,4.58,1.6,0,3.23-.29,4.03-.5Z"></path><line class="cls-6" x1="672.75" y1="1745.58" x2="672.75" y2="1744.71"></line><line class="cls-10" x1="672.75" y1="1725.71" x2="672.75" y2="1651.62"></line><line class="cls-6" x1="672.75" y1="1642.12" x2="672.75" y2="1641.25"></line><line class="cls-6" x1="985.99" y1="1899.98" x2="985.99" y2="1899.11"></line><line class="cls-8" x1="985.99" y1="1882.69" x2="985.99" y2="1836.72"></line><line class="cls-6" x1="985.99" y1="1828.51" x2="985.99" y2="1827.64"></line><line class="cls-6" x1="1390.51" y1="1923.36" x2="1390.51" y2="1922.49"></line><line class="cls-4" x1="1390.51" y1="1904.52" x2="1390.51" y2="1834.46"></line><line class="cls-6" x1="1390.51" y1="1825.48" x2="1390.51" y2="1824.6"></line><line class="cls-6" x1="1674.27" y1="2794.89" x2="1674.27" y2="2794.02"></line><line class="cls-2" x1="1674.27" y1="2775.69" x2="1674.27" y2="2744.54"></line><line class="cls-6" x1="1674.27" y1="2735.37" x2="1674.27" y2="2734.5"></line><line class="cls-6" x1="1075.45" y1="3409.17" x2="1075.45" y2="3408.29"></line><line class="cls-13" x1="1075.45" y1="3390.22" x2="1075.45" y2="3200.39"></line><line class="cls-6" x1="1075.45" y1="3191.35" x2="1075.45" y2="3190.47"></line><line class="cls-6" x1="1389.41" y1="1187.29" x2="1389.41" y2="1186.41"></line><line class="cls-7" x1="1389.41" y1="1169.66" x2="1389.41" y2="993.81"></line><line class="cls-6" x1="1389.41" y1="985.43" x2="1389.41" y2="984.56"></line><line class="cls-6" x1="519.13" y1="790.41" x2="519.13" y2="789.54"></line><line class="cls-9" x1="519.13" y1="772.12" x2="519.13" y2="589.24"></line><line class="cls-6" x1="519.13" y1="580.53" x2="519.13" y2="579.66"></line><line class="cls-6" x1="636.59" y1="1061.56" x2="636.59" y2="1060.69"></line><line class="cls-11" x1="636.59" y1="1042.71" x2="636.59" y2="992.37"></line><line class="cls-6" x1="636.59" y1="983.38" x2="636.59" y2="982.5"></line><path class="cls-15" d="m363.83,927.55c0-12.01,6.76-17.27,14.74-17.27,6.97,0,12.39,3.74,12.39,12.01v.8h-2.86v-.92c0-5.92-3.78-9.24-9.45-9.24-6.72,0-11.76,4.58-11.76,14.32s5.04,14.24,11.72,14.24c5.38,0,9.54-2.86,9.54-9.2v-.59h2.77v.42c0,8.02-5.33,12.01-12.56,12.01-7.98,0-14.53-4.87-14.53-16.59Z"></path><path class="cls-15" d="m396.84,936.21v-13.61h2.94v13.27c0,4.33,2.14,5.71,5.42,5.71,3.74,0,6.55-2.69,6.55-5.63v-13.36h2.94v21h-2.6l-.25-3.36h-.08c-.97,2.02-3.23,3.91-7.23,3.91-4.66,0-7.69-2.52-7.69-7.94Z"></path><path class="cls-15" d="m422.04,922.6h2.6l.29,3.91c1.01-2.14,3.07-4.45,6.76-4.45,1.26,0,2.18.21,3.02.55v3.15c-1.13-.5-2.1-.76-3.4-.76-3.74,0-6.34,2.81-6.34,5.75v12.85h-2.94v-21Z"></path><path class="cls-15" d="m437.24,937.17v-1.18h2.94v1.13c0,2.86,2.14,4.5,5.96,4.5s5.8-1.01,5.8-3.78c0-2.06-1.01-2.81-3.86-3.32l-4.62-.84c-3.02-.55-5.54-2.02-5.54-5.5,0-3.15,2.35-6.13,8.4-6.13s8.4,3.02,8.4,7.23v.88h-2.98v-.76c0-3.44-2.14-4.91-5.42-4.91-3.95,0-5.33,1.34-5.33,3.36s1.01,2.86,3.91,3.4l4.03.76c4.12.76,6.09,1.93,6.09,5.59,0,4.58-4.12,6.55-8.78,6.55-7.31,0-8.99-3.28-8.99-6.97Z"></path><path class="cls-15" d="m460.89,910.83h2.98v6.51h-2.98v-6.51Zm0,11.76h2.94v21h-2.94v-21Z"></path><path class="cls-15" d="m468.07,922.64v-.04h3.36l7.35,17.98h.08l7.1-17.98h3.07v.04l-8.74,20.96h-3.02l-9.2-20.96Z"></path><path class="cls-15" d="m509.86,934.11h-15.96c.17,4.79,2.48,7.48,6.93,7.48,3.82,0,5.67-1.43,5.97-4.83h2.98c-.29,4.24-3.28,7.39-9.03,7.39-7.06,0-9.83-4.66-9.83-10.88s3.23-11.22,10-11.22,8.95,3.99,8.95,10.21v1.85Zm-3.11-2.98c0-4.45-1.72-6.55-5.92-6.55s-6.55,2.65-6.89,6.97h12.81v-.42Z"></path><path class="cls-15" d="m524.98,936.21v-13.61h2.94v13.27c0,4.33,2.14,5.71,5.42,5.71,3.74,0,6.55-2.69,6.55-5.63v-13.36h2.94v21h-2.6l-.25-3.36h-.08c-.97,2.02-3.23,3.91-7.23,3.91-4.66,0-7.69-2.52-7.69-7.94Z"></path><path class="cls-15" d="m550.18,922.6h2.39l.34,3.86h.08c1.13-2.48,4.03-4.41,7.86-4.41,6.3,0,9.66,3.99,9.66,11.01s-4.29,11.09-9.87,11.09c-3.78,0-6.38-1.6-7.43-3.7h-.08v11.55h-2.94v-29.41Zm17.18,10.63c0-7.18-3.4-8.61-6.93-8.61-4.24,0-7.56,2.73-7.56,8.44,0,6.01,3.45,8.57,7.44,8.57,3.02,0,7.06-1.47,7.06-8.4Z"></path><path class="cls-15" d="m576.39,922.6h2.39l.34,3.86h.08c1.13-2.48,4.03-4.41,7.86-4.41,6.3,0,9.66,3.99,9.66,11.01s-4.29,11.09-9.87,11.09c-3.78,0-6.38-1.6-7.43-3.7h-.08v11.55h-2.94v-29.41Zm17.18,10.63c0-7.18-3.4-8.61-6.93-8.61-4.24,0-7.56,2.73-7.56,8.44,0,6.01,3.45,8.57,7.44,8.57,3.02,0,7.06-1.47,7.06-8.4Z"></path><path class="cls-15" d="m619.86,934.11h-15.96c.17,4.79,2.48,7.48,6.93,7.48,3.82,0,5.67-1.43,5.97-4.83h2.98c-.29,4.24-3.28,7.39-9.03,7.39-7.06,0-9.83-4.66-9.83-10.88s3.23-11.22,10-11.22,8.95,3.99,8.95,10.21v1.85Zm-3.11-2.98c0-4.45-1.72-6.55-5.92-6.55s-6.55,2.65-6.89,6.97h12.81v-.42Z"></path><path class="cls-15" d="m625.74,922.6h2.6l.29,3.91c1.01-2.14,3.07-4.45,6.76-4.45,1.26,0,2.18.21,3.02.55v3.15c-1.13-.5-2.1-.76-3.4-.76-3.74,0-6.34,2.81-6.34,5.75v12.85h-2.94v-21Z"></path><path class="cls-15" d="m640.73,933.27c0-6.38,3.23-11.22,10-11.22s8.95,3.91,8.95,8.95v.42h-3.11v-.63c0-3.82-1.64-6.09-5.84-6.09-4.75,0-7.02,3.11-7.02,8.4,0,5.63,2.39,8.49,6.93,8.49,3.82,0,5.84-1.85,5.92-5.67h3.02c-.08,4.66-3.15,8.23-9.03,8.23-7.22,0-9.83-4.75-9.83-10.88Z"></path><path class="cls-15" d="m664.08,937.8c0-3.95,2.23-6.09,7.86-6.09h6.34v-1.72c0-2.98-1.26-5.42-5.46-5.42-3.95,0-5.33,1.51-5.33,4.12v.88h-2.98v-.84c0-5,4.2-6.68,8.32-6.68,5.8,0,8.4,2.86,8.4,8.44v13.11h-2.06l-.55-2.98h-.08c-1.26,1.89-3.7,3.53-7.35,3.53-4.92,0-7.1-2.31-7.1-6.34Zm14.2-1.85v-1.76h-7.01c-2.65,0-4.03.92-4.03,3.61,0,2.35,1.26,3.86,4.5,3.86,4.16,0,6.55-2.14,6.55-5.71Z"></path><path class="cls-15" d="m686.68,937.17v-1.18h2.94v1.13c0,2.86,2.14,4.5,5.96,4.5s5.8-1.01,5.8-3.78c0-2.06-1.01-2.81-3.86-3.32l-4.62-.84c-3.02-.55-5.54-2.02-5.54-5.5,0-3.15,2.35-6.13,8.4-6.13s8.4,3.02,8.4,7.23v.88h-2.98v-.76c0-3.44-2.14-4.91-5.42-4.91-3.95,0-5.33,1.34-5.33,3.36s1.01,2.86,3.91,3.4l4.03.76c4.12.76,6.09,1.93,6.09,5.59,0,4.58-4.12,6.55-8.78,6.55-7.31,0-8.99-3.28-8.99-6.97Z"></path><path class="cls-15" d="m727.59,934.11h-15.96c.17,4.79,2.48,7.48,6.93,7.48,3.82,0,5.67-1.43,5.97-4.83h2.98c-.29,4.24-3.28,7.39-9.03,7.39-7.06,0-9.83-4.66-9.83-10.88s3.23-11.22,10-11.22,8.95,3.99,8.95,10.21v1.85Zm-3.11-2.98c0-4.45-1.72-6.55-5.92-6.55s-6.55,2.65-6.89,6.97h12.81v-.42Z"></path><path class="cls-15" d="m743.13,910.83h2.94v32.77h-2.94v-32.77Z"></path><path class="cls-15" d="m770.68,934.11h-15.96c.17,4.79,2.48,7.48,6.93,7.48,3.82,0,5.67-1.43,5.97-4.83h2.98c-.29,4.24-3.28,7.39-9.03,7.39-7.06,0-9.83-4.66-9.83-10.88s3.23-11.22,10-11.22,8.95,3.99,8.95,10.21v1.85Zm-3.11-2.98c0-4.45-1.72-6.55-5.92-6.55s-6.55,2.65-6.89,6.97h12.81v-.42Z"></path><path class="cls-15" d="m777.15,937.21v-12.18h-4.16v-2.44h4.16v-6.05l2.94-1.43v7.48h11.85v-6.05l2.94-1.43v7.48h5.92v2.44h-5.92v11.8c0,2.81.76,4.58,3.4,4.58,1.6,0,3.24-.29,4.03-.5v2.6c-.76.21-2.14.59-4.03.59-3.82,0-6.34-1.6-6.34-6.89v-12.18h-11.85v11.8c0,2.81.76,4.58,3.4,4.58,1.6,0,3.23-.29,4.03-.5v2.6c-.76.21-2.14.59-4.03.59-3.82,0-6.34-1.6-6.34-6.89Z"></path><path class="cls-15" d="m823.77,934.11h-15.96c.17,4.79,2.48,7.48,6.93,7.48,3.82,0,5.67-1.43,5.97-4.83h2.98c-.29,4.24-3.28,7.39-9.03,7.39-7.06,0-9.83-4.66-9.83-10.88s3.23-11.22,10-11.22,8.95,3.99,8.95,10.21v1.85Zm-3.11-2.98c0-4.45-1.72-6.55-5.92-6.55s-6.55,2.65-6.89,6.97h12.81v-.42Z"></path><path class="cls-15" d="m829.65,922.6h2.6l.29,3.91c1.01-2.14,3.07-4.45,6.76-4.45,1.26,0,2.18.21,3.02.55v3.15c-1.13-.5-2.1-.76-3.4-.76-3.74,0-6.34,2.81-6.34,5.75v12.85h-2.94v-21Z"></path><path class="cls-15" d="m844.85,937.17v-1.18h2.94v1.13c0,2.86,2.14,4.5,5.96,4.5s5.8-1.01,5.8-3.78c0-2.06-1.01-2.81-3.86-3.32l-4.62-.84c-3.02-.55-5.54-2.02-5.54-5.5,0-3.15,2.35-6.13,8.4-6.13s8.4,3.02,8.4,7.23v.88h-2.98v-.76c0-3.44-2.14-4.91-5.42-4.91-3.95,0-5.33,1.34-5.33,3.36s1.01,2.86,3.91,3.4l4.03.76c4.12.76,6.09,1.93,6.09,5.59,0,4.58-4.12,6.55-8.78,6.55-7.31,0-8.99-3.28-8.99-6.97Z"></path><path class="cls-15" d="m367.87,3441.26h3.15l17.69,27.6h.04v-27.6h2.94v32.77h-3.07l-17.77-27.93h-.04v27.93h-2.94v-32.77Z"></path><path class="cls-15" d="m399.03,3468.23c0-3.95,2.23-6.09,7.86-6.09h6.34v-1.72c0-2.98-1.26-5.42-5.46-5.42-3.95,0-5.33,1.51-5.33,4.12v.88h-2.98v-.84c0-5,4.2-6.68,8.32-6.68,5.8,0,8.4,2.86,8.4,8.44v13.11h-2.06l-.55-2.98h-.08c-1.26,1.89-3.7,3.53-7.35,3.53-4.92,0-7.1-2.31-7.1-6.34Zm14.2-1.85v-1.76h-7.01c-2.65,0-4.03.92-4.03,3.61,0,2.35,1.26,3.86,4.5,3.86,4.16,0,6.55-2.14,6.55-5.71Z"></path><path class="cls-15" d="m423.51,3453.02h2.6l.29,3.91c1.01-2.14,3.07-4.45,6.76-4.45,1.26,0,2.18.21,3.02.55v3.15c-1.13-.5-2.1-.76-3.4-.76-3.74,0-6.34,2.81-6.34,5.75v12.85h-2.94v-21Z"></path><path class="cls-15" d="m440.82,3453.02h2.6l.29,3.91c1.01-2.14,3.07-4.45,6.76-4.45,1.26,0,2.18.21,3.02.55v3.15c-1.13-.5-2.1-.76-3.4-.76-3.74,0-6.34,2.81-6.34,5.75v12.85h-2.94v-21Z"></path><path class="cls-15" d="m455.81,3463.52c0-6.22,3.32-11.05,10.38-11.05,6.59,0,10.25,4.83,10.25,11.05s-3.7,11.05-10.29,11.05c-7.27,0-10.33-4.83-10.33-11.05Zm17.56,0c0-5.33-2.9-8.49-7.22-8.49-4.75,0-7.27,3.15-7.27,8.49s2.56,8.49,7.27,8.49c4.33,0,7.22-3.15,7.22-8.49Z"></path><path class="cls-15" d="m478.74,3453.06v-.04h2.98l5.75,17.48h.08l6.3-17.48h2.69l6.17,17.48h.08l5.75-17.48h2.86v.04l-7.18,20.96h-3.02l-5.96-17.06h-.08l-6.22,17.06h-3.02l-7.18-20.96Z"></path><path class="cls-15" d="m525.91,3453.02h2.39l.34,3.86h.08c1.13-2.48,4.03-4.41,7.86-4.41,6.3,0,9.66,3.99,9.66,11.01s-4.29,11.09-9.87,11.09c-3.78,0-6.38-1.6-7.43-3.7h-.08v11.55h-2.94v-29.41Zm17.18,10.63c0-7.18-3.4-8.61-6.93-8.61-4.24,0-7.56,2.73-7.56,8.44,0,6.01,3.45,8.57,7.44,8.57,3.02,0,7.06-1.47,7.06-8.4Z"></path><path class="cls-15" d="m552.12,3453.02h2.6l.29,3.91c1.01-2.14,3.07-4.45,6.76-4.45,1.26,0,2.18.21,3.02.55v3.15c-1.13-.5-2.1-.76-3.4-.76-3.74,0-6.34,2.81-6.34,5.75v12.85h-2.94v-21Z"></path><path class="cls-15" d="m567.11,3463.52c0-6.22,3.32-11.05,10.38-11.05,6.59,0,10.25,4.83,10.25,11.05s-3.7,11.05-10.29,11.05c-7.27,0-10.33-4.83-10.33-11.05Zm17.56,0c0-5.33-2.9-8.49-7.22-8.49-4.75,0-7.27,3.15-7.27,8.49s2.56,8.49,7.27,8.49c4.33,0,7.22-3.15,7.22-8.49Z"></path><path class="cls-15" d="m593.61,3453.02h2.39l.34,3.86h.08c1.13-2.48,4.03-4.41,7.86-4.41,6.3,0,9.66,3.99,9.66,11.01s-4.29,11.09-9.87,11.09c-3.78,0-6.38-1.6-7.43-3.7h-.08v11.55h-2.94v-29.41Zm17.18,10.63c0-7.18-3.4-8.61-6.93-8.61-4.24,0-7.56,2.73-7.56,8.44,0,6.01,3.45,8.57,7.44,8.57,3.02,0,7.06-1.47,7.06-8.4Z"></path><path class="cls-15" d="m618.14,3463.52c0-6.22,3.32-11.05,10.38-11.05,6.59,0,10.25,4.83,10.25,11.05s-3.7,11.05-10.29,11.05c-7.27,0-10.33-4.83-10.33-11.05Zm17.56,0c0-5.33-2.9-8.49-7.22-8.49-4.75,0-7.27,3.15-7.27,8.49s2.56,8.49,7.27,8.49c4.33,0,7.22-3.15,7.22-8.49Z"></path><path class="cls-15" d="m644.64,3453.02h2.6l.29,3.91c1.01-2.14,3.07-4.45,6.76-4.45,1.26,0,2.18.21,3.02.55v3.15c-1.13-.5-2.1-.76-3.4-.76-3.74,0-6.34,2.81-6.34,5.75v12.85h-2.94v-21Z"></path><path class="cls-15" d="m672.91,3471.33v2.6c-.76.21-2.14.59-4.03.59-3.82,0-6.34-1.6-6.34-6.89v-12.18h-4.16v-2.44h4.16v-6.05l2.94-1.43v7.48h5.92v2.44h-5.92v11.8c0,2.81.76,4.58,3.4,4.58,1.6,0,3.23-.29,4.03-.5Z"></path><path class="cls-15" d="m677.74,3441.26h2.98v6.51h-2.98v-6.51Zm0,11.76h2.94v21h-2.94v-21Z"></path><path class="cls-15" d="m686.39,3463.52c0-6.22,3.32-11.05,10.38-11.05,6.59,0,10.25,4.83,10.25,11.05s-3.7,11.05-10.29,11.05c-7.27,0-10.33-4.83-10.33-11.05Zm17.56,0c0-5.33-2.9-8.49-7.22-8.49-4.75,0-7.27,3.15-7.27,8.49s2.56,8.49,7.27,8.49c4.33,0,7.22-3.15,7.22-8.49Z"></path><path class="cls-15" d="m712.89,3453.02h2.6l.29,3.49c1.01-2.14,3.28-4.03,7.35-4.03,4.75,0,7.77,2.52,7.77,7.94v13.61h-2.94v-13.27c0-4.33-2.14-5.71-5.5-5.71-3.82,0-6.64,2.69-6.64,5.63v13.36h-2.94v-21Z"></path><path class="cls-15" d="m736.37,3467.6v-1.18h2.94v1.13c0,2.86,2.14,4.5,5.96,4.5s5.8-1.01,5.8-3.78c0-2.06-1.01-2.81-3.86-3.32l-4.62-.84c-3.02-.55-5.54-2.02-5.54-5.5,0-3.15,2.35-6.13,8.4-6.13s8.4,3.02,8.4,7.22v.88h-2.98v-.76c0-3.45-2.14-4.92-5.42-4.92-3.95,0-5.33,1.34-5.33,3.36s1.01,2.86,3.91,3.4l4.03.76c4.12.76,6.09,1.93,6.09,5.59,0,4.58-4.12,6.55-8.78,6.55-7.31,0-8.99-3.28-8.99-6.97Z"></path><path class="cls-15" d="m317.93,1796.83v-2.02h3.02v2.18c0,3.74,2.61,6.05,7.94,6.05s8.44-1.97,8.44-6.22c0-3.32-1.38-5.17-4.91-6.09l-6.64-1.72c-4.33-1.13-7.18-2.98-7.18-8.15s3.78-8.91,10.92-8.91,10.59,3.44,10.59,9.07v2.94h-3.03v-2.81c0-4.62-3.07-6.51-7.56-6.51-5.12,0-7.81,2.14-7.81,6.01,0,3.61,1.77,4.71,5.55,5.71l5.75,1.55c5.12,1.39,7.44,3.74,7.44,8.65,0,6.09-4.33,9.24-11.47,9.24-9.12,0-11.05-4.7-11.05-8.99Z"></path><path class="cls-15" d="m378.33,1791.66v13.61h-2.94v-13.27c0-4.33-2.14-5.71-4.75-5.71-3.82,0-6.17,2.69-6.17,5.63v13.36h-2.94v-13.27c0-4.33-1.85-5.71-4.83-5.71-3.61,0-6.13,2.69-6.13,5.63v13.36h-2.94v-21h2.6l.29,3.49c1.01-2.02,3.07-4.03,6.93-4.03,2.94,0,5.38,1.39,6.43,4.29,1.22-2.39,3.57-4.29,7.14-4.29,4.29,0,7.31,2.52,7.31,7.94Z"></path><path class="cls-15" d="m384.42,1799.48c0-3.95,2.23-6.09,7.86-6.09h6.34v-1.72c0-2.98-1.26-5.42-5.46-5.42-3.95,0-5.33,1.51-5.33,4.12v.88h-2.98v-.84c0-5,4.2-6.68,8.32-6.68,5.8,0,8.4,2.86,8.4,8.44v13.11h-2.06l-.55-2.98h-.08c-1.26,1.89-3.7,3.53-7.35,3.53-4.92,0-7.1-2.31-7.1-6.34Zm14.2-1.85v-1.76h-7.01c-2.65,0-4.03.92-4.03,3.61,0,2.35,1.26,3.87,4.49,3.87,4.16,0,6.55-2.14,6.55-5.71Z"></path><path class="cls-15" d="m408.9,1772.51h2.94v32.77h-2.94v-32.77Z"></path><path class="cls-15" d="m419.19,1772.51h2.94v32.77h-2.94v-32.77Z"></path><path class="cls-15" d="m439.14,1772.51h2.94v32.77h-2.94v-32.77Z"></path><path class="cls-15" d="m447.75,1794.77c0-6.22,3.32-11.05,10.38-11.05,6.6,0,10.25,4.83,10.25,11.05s-3.7,11.05-10.29,11.05c-7.27,0-10.33-4.83-10.33-11.05Zm17.56,0c0-5.33-2.9-8.49-7.22-8.49-4.75,0-7.27,3.15-7.27,8.49s2.56,8.49,7.27,8.49c4.33,0,7.22-3.15,7.22-8.49Z"></path><path class="cls-15" d="m472.58,1794.77c0-6.22,3.32-11.05,10.38-11.05,6.6,0,10.25,4.83,10.25,11.05s-3.7,11.05-10.29,11.05c-7.27,0-10.33-4.83-10.33-11.05Zm17.56,0c0-5.33-2.9-8.49-7.22-8.49-4.75,0-7.27,3.15-7.27,8.49s2.56,8.49,7.27,8.49c4.33,0,7.22-3.15,7.22-8.49Z"></path><path class="cls-15" d="m499.08,1784.27h2.39l.34,3.87h.08c1.13-2.48,4.03-4.41,7.86-4.41,6.3,0,9.66,3.99,9.66,11.01s-4.29,11.09-9.87,11.09c-3.78,0-6.38-1.6-7.44-3.7h-.08v11.55h-2.94v-29.41Zm17.18,10.63c0-7.18-3.4-8.61-6.93-8.61-4.24,0-7.56,2.73-7.56,8.44,0,6.01,3.45,8.57,7.44,8.57,3.02,0,7.06-1.47,7.06-8.4Z"></path><path class="cls-15" d="m523.39,1798.85v-1.18h2.94v1.13c0,2.86,2.14,4.5,5.96,4.5s5.8-1.01,5.8-3.78c0-2.06-1.01-2.81-3.87-3.32l-4.62-.84c-3.02-.55-5.54-2.02-5.54-5.5,0-3.15,2.35-6.13,8.4-6.13s8.4,3.02,8.4,7.23v.88h-2.98v-.76c0-3.44-2.14-4.92-5.42-4.92-3.95,0-5.34,1.34-5.34,3.36s1.01,2.86,3.91,3.4l4.03.76c4.12.76,6.09,1.93,6.09,5.59,0,4.58-4.12,6.55-8.78,6.55-7.31,0-8.99-3.28-8.99-6.97Z"></path><path class="cls-15" d="m556.7,1772.51h2.98v6.51h-2.98v-6.51Zm0,11.76h2.94v21h-2.94v-21Z"></path><path class="cls-15" d="m567.03,1784.27h2.6l.29,3.49c1.01-2.14,3.28-4.03,7.35-4.03,4.75,0,7.77,2.52,7.77,7.94v13.61h-2.94v-13.27c0-4.33-2.14-5.71-5.5-5.71-3.82,0-6.64,2.69-6.64,5.63v13.36h-2.94v-21Z"></path><path class="cls-15" d="m600.8,1799.48c0-3.95,2.23-6.09,7.86-6.09h6.34v-1.72c0-2.98-1.26-5.42-5.46-5.42-3.95,0-5.34,1.51-5.34,4.12v.88h-2.98v-.84c0-5,4.2-6.68,8.32-6.68,5.8,0,8.4,2.86,8.4,8.44v13.11h-2.06l-.55-2.98h-.08c-1.26,1.89-3.7,3.53-7.35,3.53-4.91,0-7.1-2.31-7.1-6.34Zm14.2-1.85v-1.76h-7.02c-2.65,0-4.03.92-4.03,3.61,0,2.35,1.26,3.87,4.5,3.87,4.16,0,6.55-2.14,6.55-5.71Z"></path><path class="cls-15" d="m623.4,1798.85v-1.18h2.94v1.13c0,2.86,2.14,4.5,5.96,4.5s5.8-1.01,5.8-3.78c0-2.06-1.01-2.81-3.87-3.32l-4.62-.84c-3.02-.55-5.54-2.02-5.54-5.5,0-3.15,2.35-6.13,8.4-6.13s8.4,3.02,8.4,7.23v.88h-2.98v-.76c0-3.44-2.14-4.92-5.42-4.92-3.95,0-5.34,1.34-5.34,3.36s1.01,2.86,3.91,3.4l4.03.76c4.12.76,6.09,1.93,6.09,5.59,0,4.58-4.12,6.55-8.78,6.55-7.31,0-8.99-3.28-8.99-6.97Z"></path><path class="cls-15" d="m645.36,1794.94c0-6.38,3.23-11.22,10-11.22s8.95,3.91,8.95,8.95v.42h-3.11v-.63c0-3.82-1.64-6.09-5.84-6.09-4.75,0-7.02,3.11-7.02,8.4,0,5.63,2.39,8.49,6.93,8.49,3.82,0,5.84-1.85,5.92-5.67h3.02c-.08,4.66-3.15,8.23-9.03,8.23-7.22,0-9.83-4.75-9.83-10.88Z"></path><path class="cls-15" d="m687.45,1795.78h-15.96c.17,4.79,2.48,7.48,6.93,7.48,3.82,0,5.67-1.43,5.97-4.83h2.98c-.29,4.24-3.28,7.39-9.03,7.39-7.06,0-9.83-4.66-9.83-10.88s3.23-11.22,10-11.22,8.95,3.99,8.95,10.21v1.85Zm-3.11-2.98c0-4.45-1.72-6.55-5.92-6.55s-6.55,2.65-6.89,6.97h12.81v-.42Z"></path><path class="cls-15" d="m693.33,1784.27h2.61l.29,3.49c1.01-2.14,3.28-4.03,7.35-4.03,4.75,0,7.77,2.52,7.77,7.94v13.61h-2.94v-13.27c0-4.33-2.14-5.71-5.5-5.71-3.82,0-6.64,2.69-6.64,5.63v13.36h-2.94v-21Z"></path><path class="cls-15" d="m717.01,1794.81c0-7.1,4.28-11.09,10.04-11.09,3.7,0,6.22,1.6,7.31,3.74h.04v-14.96h2.94v32.77h-1.97l-.67-3.61h-.08c-1.18,2.31-3.95,4.16-7.77,4.16-6.3,0-9.83-3.99-9.83-11.01Zm17.64-.5c0-5.5-3.36-8.07-7.35-8.07-3.11,0-7.14,1.47-7.14,8.4s3.61,8.61,7.14,8.61c4.24,0,7.35-2.73,7.35-8.95Z"></path><path class="cls-15" d="m761.96,1795.78h-15.96c.17,4.79,2.48,7.48,6.93,7.48,3.82,0,5.67-1.43,5.97-4.83h2.98c-.29,4.24-3.28,7.39-9.03,7.39-7.06,0-9.83-4.66-9.83-10.88s3.23-11.22,10-11.22,8.95,3.99,8.95,10.21v1.85Zm-3.11-2.98c0-4.45-1.72-6.55-5.92-6.55s-6.55,2.65-6.89,6.97h12.81v-.42Z"></path><path class="cls-15" d="m767.84,1784.27h2.6l.29,3.91c1.01-2.14,3.07-4.45,6.76-4.45,1.26,0,2.18.21,3.02.55v3.15c-1.13-.5-2.1-.76-3.4-.76-3.74,0-6.34,2.81-6.34,5.75v12.85h-2.94v-21Z"></path><path class="cls-15" d="m783.04,1798.85v-1.18h2.94v1.13c0,2.86,2.14,4.5,5.96,4.5s5.8-1.01,5.8-3.78c0-2.06-1.01-2.81-3.87-3.32l-4.62-.84c-3.02-.55-5.54-2.02-5.54-5.5,0-3.15,2.35-6.13,8.4-6.13s8.4,3.02,8.4,7.23v.88h-2.98v-.76c0-3.44-2.14-4.92-5.42-4.92-3.95,0-5.34,1.34-5.34,3.36s1.01,2.86,3.91,3.4l4.03.76c4.12.76,6.09,1.93,6.09,5.59,0,4.58-4.12,6.55-8.78,6.55-7.31,0-8.99-3.28-8.99-6.97Z"></path><path class="cls-15" d="m815.09,1799.48c0-3.95,2.23-6.09,7.86-6.09h6.34v-1.72c0-2.98-1.26-5.42-5.46-5.42-3.95,0-5.33,1.51-5.33,4.12v.88h-2.98v-.84c0-5,4.2-6.68,8.32-6.68,5.8,0,8.4,2.86,8.4,8.44v13.11h-2.06l-.55-2.98h-.08c-1.26,1.89-3.7,3.53-7.35,3.53-4.92,0-7.1-2.31-7.1-6.34Zm14.2-1.85v-1.76h-7.01c-2.65,0-4.03.92-4.03,3.61,0,2.35,1.26,3.87,4.49,3.87,4.16,0,6.55-2.14,6.55-5.71Z"></path><path class="cls-15" d="m839.57,1784.27h2.61l.29,3.49c1.01-2.14,3.28-4.03,7.35-4.03,4.75,0,7.77,2.52,7.77,7.94v13.61h-2.94v-13.27c0-4.33-2.14-5.71-5.5-5.71-3.82,0-6.64,2.69-6.64,5.63v13.36h-2.94v-21Z"></path><path class="cls-15" d="m863.26,1794.81c0-7.1,4.28-11.09,10.04-11.09,3.7,0,6.22,1.6,7.31,3.74h.04v-14.96h2.94v32.77h-1.97l-.67-3.61h-.08c-1.18,2.31-3.95,4.16-7.77,4.16-6.3,0-9.83-3.99-9.83-11.01Zm17.64-.5c0-5.5-3.36-8.07-7.35-8.07-3.11,0-7.14,1.47-7.14,8.4s3.61,8.61,7.14,8.61c4.24,0,7.35-2.73,7.35-8.95Z"></path><path class="cls-15" d="m898.92,1794.81c0-7.1,4.28-11.09,10.04-11.09,3.7,0,6.22,1.6,7.31,3.74h.04v-14.96h2.94v32.77h-1.97l-.67-3.61h-.08c-1.18,2.31-3.95,4.16-7.77,4.16-6.3,0-9.83-3.99-9.83-11.01Zm17.64-.5c0-5.5-3.36-8.07-7.35-8.07-3.11,0-7.14,1.47-7.14,8.4s3.61,8.61,7.14,8.61c4.24,0,7.35-2.73,7.35-8.95Z"></path><path class="cls-15" d="m943.86,1795.78h-15.96c.17,4.79,2.48,7.48,6.93,7.48,3.82,0,5.67-1.43,5.97-4.83h2.98c-.29,4.24-3.28,7.39-9.03,7.39-7.06,0-9.83-4.66-9.83-10.88s3.23-11.22,10-11.22,8.95,3.99,8.95,10.21v1.85Zm-3.11-2.98c0-4.45-1.72-6.55-5.92-6.55s-6.55,2.65-6.89,6.97h12.81v-.42Z"></path><path class="cls-15" d="m947.85,1798.85v-1.18h2.94v1.13c0,2.86,2.14,4.5,5.96,4.5s5.8-1.01,5.8-3.78c0-2.06-1.01-2.81-3.86-3.32l-4.62-.84c-3.03-.55-5.54-2.02-5.54-5.5,0-3.15,2.35-6.13,8.4-6.13s8.4,3.02,8.4,7.23v.88h-2.98v-.76c0-3.44-2.14-4.92-5.42-4.92-3.95,0-5.33,1.34-5.33,3.36s1.01,2.86,3.91,3.4l4.03.76c4.12.76,6.09,1.93,6.09,5.59,0,4.58-4.12,6.55-8.78,6.55-7.31,0-8.99-3.28-8.99-6.97Z"></path><path class="cls-15" d="m969.81,1794.94c0-6.38,3.23-11.22,10-11.22s8.95,3.91,8.95,8.95v.42h-3.11v-.63c0-3.82-1.64-6.09-5.84-6.09-4.75,0-7.02,3.11-7.02,8.4,0,5.63,2.39,8.49,6.93,8.49,3.82,0,5.84-1.85,5.92-5.67h3.02c-.08,4.66-3.15,8.23-9.03,8.23-7.22,0-9.83-4.75-9.83-10.88Z"></path><path class="cls-15" d="m1011.9,1795.78h-15.96c.17,4.79,2.48,7.48,6.93,7.48,3.82,0,5.67-1.43,5.96-4.83h2.98c-.29,4.24-3.28,7.39-9.03,7.39-7.06,0-9.83-4.66-9.83-10.88s3.23-11.22,10-11.22,8.95,3.99,8.95,10.21v1.85Zm-3.11-2.98c0-4.45-1.72-6.55-5.92-6.55s-6.55,2.65-6.89,6.97h12.81v-.42Z"></path><path class="cls-15" d="m1017.78,1784.27h2.6l.29,3.49c1.01-2.14,3.28-4.03,7.35-4.03,4.75,0,7.77,2.52,7.77,7.94v13.61h-2.94v-13.27c0-4.33-2.14-5.71-5.5-5.71-3.82,0-6.64,2.69-6.64,5.63v13.36h-2.94v-21Z"></path><path class="cls-15" d="m1041.46,1794.81c0-7.1,4.29-11.09,10.04-11.09,3.7,0,6.22,1.6,7.31,3.74h.04v-14.96h2.94v32.77h-1.97l-.67-3.61h-.08c-1.18,2.31-3.95,4.16-7.77,4.16-6.3,0-9.83-3.99-9.83-11.01Zm17.64-.5c0-5.5-3.36-8.07-7.35-8.07-3.11,0-7.14,1.47-7.14,8.4s3.61,8.61,7.14,8.61c4.24,0,7.35-2.73,7.35-8.95Z"></path><path class="cls-15" d="m1086.41,1795.78h-15.96c.17,4.79,2.48,7.48,6.93,7.48,3.82,0,5.67-1.43,5.96-4.83h2.98c-.29,4.24-3.28,7.39-9.03,7.39-7.06,0-9.83-4.66-9.83-10.88s3.23-11.22,10-11.22,8.95,3.99,8.95,10.21v1.85Zm-3.11-2.98c0-4.45-1.72-6.55-5.92-6.55s-6.55,2.65-6.89,6.97h12.81v-.42Z"></path><path class="cls-15" d="m1092.28,1784.27h2.6l.29,3.91c1.01-2.14,3.07-4.45,6.76-4.45,1.26,0,2.18.21,3.02.55v3.15c-1.13-.5-2.1-.76-3.4-.76-3.74,0-6.34,2.81-6.34,5.75v12.85h-2.94v-21Z"></path><path class="cls-15" d="m1107.49,1798.85v-1.18h2.94v1.13c0,2.86,2.14,4.5,5.96,4.5s5.8-1.01,5.8-3.78c0-2.06-1.01-2.81-3.86-3.32l-4.62-.84c-3.03-.55-5.54-2.02-5.54-5.5,0-3.15,2.35-6.13,8.4-6.13s8.4,3.02,8.4,7.23v.88h-2.98v-.76c0-3.44-2.14-4.92-5.42-4.92-3.95,0-5.33,1.34-5.33,3.36s1.01,2.86,3.91,3.4l4.03.76c4.12.76,6.09,1.93,6.09,5.59,0,4.58-4.12,6.55-8.78,6.55-7.31,0-8.99-3.28-8.99-6.97Z"></path><path class="cls-15" d="m212.59,834.57v-19.95h2.94v19.95c0,9.41,4.07,10.63,8.86,10.63s8.78-1.01,8.78-10.63v-19.95h2.94v19.62c0,11.64-5.33,13.69-11.76,13.69s-11.76-2.06-11.76-13.36Z"></path><path class="cls-15" d="m244.3,826.38h2.6l.29,3.49c1.01-2.14,3.28-4.03,7.35-4.03,4.75,0,7.77,2.52,7.77,7.94v13.61h-2.94v-13.27c0-4.33-2.14-5.71-5.5-5.71-3.82,0-6.64,2.69-6.64,5.63v13.36h-2.94v-21Z"></path><path class="cls-15" d="m269.04,839.99v-13.61h2.94v13.27c0,4.33,2.14,5.71,5.42,5.71,3.74,0,6.55-2.69,6.55-5.63v-13.36h2.94v21h-2.6l-.25-3.36h-.08c-.97,2.02-3.23,3.91-7.23,3.91-4.66,0-7.69-2.52-7.69-7.94Z"></path><path class="cls-15" d="m292.35,840.96v-1.18h2.94v1.13c0,2.86,2.14,4.5,5.96,4.5s5.8-1.01,5.8-3.78c0-2.06-1.01-2.81-3.86-3.32l-4.62-.84c-3.02-.55-5.54-2.02-5.54-5.5,0-3.15,2.35-6.13,8.4-6.13s8.4,3.02,8.4,7.23v.88h-2.98v-.76c0-3.44-2.14-4.91-5.42-4.91-3.95,0-5.33,1.34-5.33,3.36s1.01,2.86,3.91,3.4l4.03.76c4.12.76,6.09,1.93,6.09,5.59,0,4.58-4.12,6.55-8.78,6.55-7.31,0-8.99-3.28-8.99-6.97Z"></path><path class="cls-15" d="m315.57,839.99v-13.61h2.94v13.27c0,4.33,2.14,5.71,5.42,5.71,3.74,0,6.55-2.69,6.55-5.63v-13.36h2.94v21h-2.6l-.25-3.36h-.08c-.97,2.02-3.23,3.91-7.23,3.91-4.66,0-7.69-2.52-7.69-7.94Z"></path><path class="cls-15" d="m339.51,841.59c0-3.95,2.23-6.09,7.86-6.09h6.34v-1.72c0-2.98-1.26-5.42-5.46-5.42-3.95,0-5.33,1.51-5.33,4.12v.88h-2.98v-.84c0-5,4.2-6.68,8.32-6.68,5.8,0,8.4,2.86,8.4,8.44v13.11h-2.06l-.55-2.98h-.08c-1.26,1.89-3.7,3.53-7.35,3.53-4.92,0-7.1-2.31-7.1-6.34Zm14.2-1.85v-1.76h-7.01c-2.65,0-4.03.92-4.03,3.61,0,2.35,1.26,3.86,4.5,3.86,4.16,0,6.55-2.14,6.55-5.71Z"></path><path class="cls-15" d="m364,814.62h2.94v32.77h-2.94v-32.77Z"></path><path class="cls-15" d="m382.27,836.93c0-7.1,4.28-11.09,10.04-11.09,3.7,0,6.22,1.6,7.31,3.74h.04v-14.95h2.94v32.77h-1.97l-.67-3.61h-.08c-1.18,2.31-3.95,4.16-7.77,4.16-6.3,0-9.83-3.99-9.83-11.01Zm17.64-.5c0-5.5-3.36-8.07-7.35-8.07-3.11,0-7.14,1.47-7.14,8.4s3.61,8.61,7.14,8.61c4.24,0,7.35-2.73,7.35-8.95Z"></path><path class="cls-15" d="m427.21,837.89h-15.96c.17,4.79,2.48,7.48,6.93,7.48,3.82,0,5.67-1.43,5.97-4.83h2.98c-.29,4.24-3.28,7.39-9.03,7.39-7.06,0-9.83-4.66-9.83-10.88s3.23-11.22,10-11.22,8.95,3.99,8.95,10.21v1.85Zm-3.11-2.98c0-4.45-1.72-6.55-5.92-6.55s-6.55,2.65-6.89,6.97h12.81v-.42Z"></path><path class="cls-15" d="m431.2,840.96v-1.18h2.94v1.13c0,2.86,2.14,4.5,5.96,4.5s5.8-1.01,5.8-3.78c0-2.06-1.01-2.81-3.86-3.32l-4.62-.84c-3.02-.55-5.54-2.02-5.54-5.5,0-3.15,2.35-6.13,8.4-6.13s8.4,3.02,8.4,7.23v.88h-2.98v-.76c0-3.44-2.14-4.91-5.42-4.91-3.95,0-5.33,1.34-5.33,3.36s1.01,2.86,3.91,3.4l4.03.76c4.12.76,6.09,1.93,6.09,5.59,0,4.58-4.12,6.55-8.78,6.55-7.31,0-8.99-3.28-8.99-6.97Z"></path><path class="cls-15" d="m454.84,814.62h2.98v6.51h-2.98v-6.51Zm0,11.76h2.94v21h-2.94v-21Z"></path><path class="cls-15" d="m464.55,849.19v-.13h3.11v.13c0,2.9,1.93,4.33,6.13,4.33,4.79,0,7.01-2.94,7.01-7.86v-2.1h-.08c-1.09,2.18-3.65,4.07-7.48,4.07-6.3,0-9.75-3.99-9.75-10.71,0-7.1,4.37-11.09,9.96-11.09,3.78,0,6.55,1.81,7.56,4.12h.13l.29-3.57h2.31v19.16c0,5.88-2.81,10.71-10.33,10.71-6.3,0-8.86-2.98-8.86-7.06Zm16.59-12.77c0-5.5-3.36-8.07-7.35-8.07-3.03,0-7.14,1.47-7.14,8.4s3.57,8.32,7.1,8.32c4.24,0,7.39-2.73,7.39-8.65Z"></path><path class="cls-15" d="m491.09,826.38h2.6l.29,3.49c1.01-2.14,3.28-4.03,7.35-4.03,4.75,0,7.77,2.52,7.77,7.94v13.61h-2.94v-13.27c0-4.33-2.14-5.71-5.5-5.71-3.82,0-6.64,2.69-6.64,5.63v13.36h-2.94v-21Z"></path><path class="cls-15" d="m524.44,836.88c0-6.22,3.32-11.05,10.38-11.05,6.59,0,10.25,4.83,10.25,11.05s-3.7,11.05-10.29,11.05c-7.27,0-10.33-4.83-10.33-11.05Zm17.56,0c0-5.33-2.9-8.49-7.22-8.49-4.75,0-7.27,3.15-7.27,8.49s2.56,8.49,7.27,8.49c4.33,0,7.22-3.15,7.22-8.49Z"></path><path class="cls-15" d="m555.1,821.34v5.04h5.92v2.44h-5.92v18.57h-2.94v-18.57h-4.16v-2.44h4.16v-5.42c0-5.29,3.15-6.89,6.38-6.89,1.85,0,2.98.29,3.74.55v2.6c-.71-.21-1.89-.46-3.49-.46-2.65,0-3.7,1.76-3.7,4.58Z"></path><path class="cls-15" d="m576.98,825.08h-3.36v-5.08c0-3.95.88-5.29,3.4-5.97l.67,1.85c-1.76.67-2.06,1.09-2.06,3.78v.34h1.34v5.08Zm5.92,0h-3.36v-5.08c0-3.95.88-5.29,3.4-5.97l.67,1.85c-1.76.67-2.06,1.09-2.06,3.78v.34h1.34v5.08Z"></path><path class="cls-15" d="m588.45,838.94v-2.02h3.02v2.18c0,3.74,2.6,6.05,7.94,6.05s8.44-1.97,8.44-6.22c0-3.32-1.39-5.17-4.92-6.09l-6.64-1.72c-4.33-1.13-7.18-2.98-7.18-8.15s3.78-8.91,10.92-8.91,10.59,3.44,10.59,9.07v2.94h-3.02v-2.81c0-4.62-3.07-6.51-7.56-6.51-5.12,0-7.81,2.14-7.81,6.01,0,3.61,1.76,4.7,5.54,5.71l5.75,1.55c5.12,1.39,7.43,3.74,7.43,8.65,0,6.09-4.33,9.24-11.47,9.24-9.12,0-11.05-4.7-11.05-8.99Z"></path><path class="cls-15" d="m614.78,823.82c1.76-.67,2.06-1.09,2.06-3.78v-.34h-1.34v-5.08h3.36v5.08c0,3.95-.88,5.29-3.4,5.97l-.67-1.85Zm5.92,0c1.76-.67,2.06-1.09,2.06-3.78v-.34h-1.34v-5.08h3.36v5.08c0,3.95-.88,5.29-3.4,5.97l-.67-1.85Z"></path><path class="cls-15" d="m1209.9,879.87c0-12.01,6.76-17.27,14.74-17.27,6.97,0,12.39,3.74,12.39,12.01v.8h-2.86v-.92c0-5.92-3.78-9.24-9.45-9.24-6.72,0-11.76,4.58-11.76,14.32s5.04,14.24,11.72,14.24c5.38,0,9.54-2.86,9.54-9.2v-.59h2.77v.42c0,8.02-5.33,12.01-12.56,12.01-7.98,0-14.53-4.87-14.53-16.59Z"></path><path class="cls-15" d="m1242.91,888.53v-13.61h2.94v13.27c0,4.33,2.14,5.71,5.42,5.71,3.74,0,6.55-2.69,6.55-5.63v-13.36h2.94v21h-2.6l-.25-3.36h-.08c-.97,2.02-3.23,3.91-7.23,3.91-4.66,0-7.69-2.52-7.69-7.94Z"></path><path class="cls-15" d="m1268.11,874.92h2.6l.29,3.91c1.01-2.14,3.07-4.45,6.76-4.45,1.26,0,2.18.21,3.02.55v3.15c-1.13-.5-2.1-.76-3.4-.76-3.74,0-6.34,2.81-6.34,5.75v12.85h-2.94v-21Z"></path><path class="cls-15" d="m1282.26,874.96v-.04h3.36l7.35,17.98h.08l7.1-17.98h3.07v.04l-8.74,20.96h-3.02l-9.2-20.96Z"></path><path class="cls-15" d="m1324.05,886.43h-15.96c.17,4.79,2.48,7.48,6.93,7.48,3.82,0,5.67-1.43,5.97-4.83h2.98c-.29,4.24-3.28,7.39-9.03,7.39-7.06,0-9.83-4.66-9.83-10.88s3.23-11.22,10-11.22,8.95,3.99,8.95,10.21v1.85Zm-3.11-2.98c0-4.45-1.72-6.55-5.92-6.55s-6.55,2.65-6.89,6.97h12.81v-.42Z"></path><path class="cls-15" d="m1328.25,885.46c0-7.1,4.28-11.09,10.04-11.09,3.7,0,6.22,1.6,7.31,3.74h.04v-14.95h2.94v32.77h-1.97l-.67-3.61h-.08c-1.18,2.31-3.95,4.16-7.77,4.16-6.3,0-9.83-3.99-9.83-11.01Zm17.64-.5c0-5.5-3.36-8.07-7.35-8.07-3.11,0-7.14,1.47-7.14,8.4s3.61,8.61,7.14,8.61c4.24,0,7.35-2.73,7.35-8.95Z"></path><path class="cls-15" d="m1382.85,886.43h-15.96c.17,4.79,2.48,7.48,6.93,7.48,3.82,0,5.67-1.43,5.97-4.83h2.98c-.29,4.24-3.28,7.39-9.03,7.39-7.06,0-9.83-4.66-9.83-10.88s3.23-11.22,10-11.22,8.95,3.99,8.95,10.21v1.85Zm-3.11-2.98c0-4.45-1.72-6.55-5.92-6.55s-6.55,2.65-6.89,6.97h12.81v-.42Z"></path><path class="cls-15" d="m1388.73,874.92h2.6l.29,3.49c1.01-2.14,3.28-4.03,7.35-4.03,4.75,0,7.77,2.52,7.77,7.94v13.61h-2.94v-13.27c0-4.33-2.14-5.71-5.5-5.71-3.82,0-6.64,2.69-6.64,5.63v13.36h-2.94v-21Z"></path><path class="cls-15" d="m1425.06,893.23v2.6c-.76.21-2.14.59-4.03.59-3.82,0-6.34-1.6-6.34-6.89v-12.18h-4.16v-2.44h4.16v-6.05l2.94-1.43v7.48h5.92v2.44h-5.92v11.8c0,2.81.76,4.58,3.4,4.58,1.6,0,3.23-.29,4.03-.5Z"></path><path class="cls-15" d="m1429.89,874.92h2.6l.29,3.91c1.01-2.14,3.07-4.45,6.76-4.45,1.26,0,2.18.21,3.02.55v3.15c-1.13-.5-2.1-.76-3.4-.76-3.74,0-6.34,2.81-6.34,5.75v12.85h-2.94v-21Z"></path><path class="cls-15" d="m1447.41,874.92l6.89,17.98h.08l7.14-17.98h3.07v.04l-8.86,20.84-3.11,8.53h-2.98v-.04l3.19-8.36-8.78-20.96v-.04h3.36Z"></path><path class="cls-15" d="m1476.55,889.49v-1.18h2.94v1.13c0,2.86,2.14,4.5,5.96,4.5s5.8-1.01,5.8-3.78c0-2.06-1.01-2.81-3.86-3.32l-4.62-.84c-3.02-.55-5.54-2.02-5.54-5.5,0-3.15,2.35-6.13,8.4-6.13s8.4,3.02,8.4,7.23v.88h-2.98v-.76c0-3.44-2.14-4.91-5.42-4.91-3.95,0-5.33,1.34-5.33,3.36s1.01,2.86,3.91,3.4l4.03.76c4.12.76,6.09,1.93,6.09,5.59,0,4.58-4.12,6.55-8.78,6.55-7.31,0-8.99-3.28-8.99-6.97Z"></path><path class="cls-15" d="m1511.16,893.23v2.6c-.76.21-2.14.59-4.03.59-3.82,0-6.34-1.6-6.34-6.89v-12.18h-4.16v-2.44h4.16v-6.05l2.94-1.43v7.48h5.92v2.44h-5.92v11.8c0,2.81.76,4.58,3.4,4.58,1.6,0,3.23-.29,4.03-.5Z"></path><path class="cls-15" d="m1515.99,874.92h2.6l.29,3.91c1.01-2.14,3.07-4.45,6.76-4.45,1.26,0,2.18.21,3.02.55v3.15c-1.13-.5-2.1-.76-3.4-.76-3.74,0-6.34,2.81-6.34,5.75v12.85h-2.94v-21Z"></path><path class="cls-15" d="m1530.99,885.42c0-6.22,3.32-11.05,10.38-11.05,6.59,0,10.25,4.83,10.25,11.05s-3.7,11.05-10.29,11.05c-7.27,0-10.33-4.83-10.33-11.05Zm17.56,0c0-5.33-2.9-8.49-7.22-8.49-4.75,0-7.27,3.15-7.27,8.49s2.56,8.49,7.27,8.49c4.33,0,7.22-3.15,7.22-8.49Z"></path><path class="cls-15" d="m1556.86,863.16h2.94v23.23l12.14-11.47h3.65v.04l-8.4,7.86,8.78,13.06v.04h-3.36l-7.39-11.22-5.42,5.04v6.18h-2.94v-32.77Z"></path><path class="cls-15" d="m1597.22,886.43h-15.96c.17,4.79,2.48,7.48,6.93,7.48,3.82,0,5.67-1.43,5.97-4.83h2.98c-.29,4.24-3.28,7.39-9.03,7.39-7.06,0-9.83-4.66-9.83-10.88s3.23-11.22,10-11.22,8.95,3.99,8.95,10.21v1.85Zm-3.11-2.98c0-4.45-1.72-6.55-5.92-6.55s-6.55,2.65-6.89,6.97h12.81v-.42Z"></path><path class="cls-15" d="m1601.21,889.49v-1.18h2.94v1.13c0,2.86,2.14,4.5,5.96,4.5s5.8-1.01,5.8-3.78c0-2.06-1.01-2.81-3.86-3.32l-4.62-.84c-3.02-.55-5.54-2.02-5.54-5.5,0-3.15,2.35-6.13,8.4-6.13s8.4,3.02,8.4,7.23v.88h-2.98v-.76c0-3.44-2.14-4.91-5.42-4.91-3.95,0-5.33,1.34-5.33,3.36s1.01,2.86,3.91,3.4l4.03.76c4.12.76,6.09,1.93,6.09,5.59,0,4.58-4.12,6.55-8.78,6.55-7.31,0-8.99-3.28-8.99-6.97Z"></path><path class="cls-15" d="m1634.52,863.16h2.98v6.51h-2.98v-6.51Zm0,11.76h2.94v21h-2.94v-21Z"></path><path class="cls-15" d="m1644.85,874.92h2.6l.29,3.49c1.01-2.14,3.28-4.03,7.35-4.03,4.75,0,7.77,2.52,7.77,7.94v13.61h-2.94v-13.27c0-4.33-2.14-5.71-5.5-5.71-3.82,0-6.64,2.69-6.64,5.63v13.36h-2.94v-21Z"></path><path class="cls-15" d="m1275.35,922.46h-3.36v-5.08c0-3.95.88-5.29,3.4-5.97l.67,1.85c-1.76.67-2.06,1.09-2.06,3.78v.34h1.34v5.08Zm5.92,0h-3.36v-5.08c0-3.95.88-5.29,3.4-5.97l.67,1.85c-1.76.67-2.06,1.09-2.06,3.78v.34h1.34v5.08Z"></path><path class="cls-15" d="m1318.37,931.16v13.61h-2.94v-13.27c0-4.33-2.14-5.71-4.75-5.71-3.82,0-6.17,2.69-6.17,5.63v13.36h-2.94v-13.27c0-4.33-1.85-5.71-4.83-5.71-3.61,0-6.13,2.69-6.13,5.63v13.36h-2.94v-21h2.6l.29,3.49c1.01-2.02,3.07-4.03,6.93-4.03,2.94,0,5.38,1.39,6.43,4.28,1.22-2.39,3.57-4.28,7.14-4.28,4.29,0,7.31,2.52,7.31,7.94Z"></path><path class="cls-15" d="m1322.77,921.2c1.76-.67,2.06-1.09,2.06-3.78v-.34h-1.34v-5.08h3.36v5.08c0,3.95-.88,5.29-3.4,5.97l-.67-1.85Zm5.92,0c1.76-.67,2.06-1.09,2.06-3.78v-.34h-1.34v-5.08h3.36v5.08c0,3.95-.88,5.29-3.4,5.97l-.67-1.85Z"></path><path class="cls-15" d="m1335.71,938.55h3.36v6.22c0,3.95-.88,5.29-3.4,5.96l-.67-1.85c1.76-.67,2.06-1.09,2.06-3.78v-.34h-1.34v-6.22Z"></path><path class="cls-15" d="m1356.71,922.46h-3.36v-5.08c0-3.95.88-5.29,3.4-5.97l.67,1.85c-1.76.67-2.06,1.09-2.06,3.78v.34h1.34v5.08Zm5.92,0h-3.36v-5.08c0-3.95.88-5.29,3.4-5.97l.67,1.85c-1.76.67-2.06,1.09-2.06,3.78v.34h1.34v5.08Z"></path><path class="cls-15" d="m1369.01,923.76h2.6l.29,3.49c1.01-2.14,3.28-4.03,7.35-4.03,4.75,0,7.77,2.52,7.77,7.94v13.61h-2.94v-13.27c0-4.33-2.14-5.71-5.5-5.71-3.82,0-6.64,2.69-6.64,5.63v13.36h-2.94v-21Z"></path><path class="cls-15" d="m1391.44,921.2c1.76-.67,2.06-1.09,2.06-3.78v-.34h-1.34v-5.08h3.36v5.08c0,3.95-.88,5.29-3.4,5.97l-.67-1.85Zm5.92,0c1.76-.67,2.06-1.09,2.06-3.78v-.34h-1.34v-5.08h3.36v5.08c0,3.95-.88,5.29-3.4,5.97l-.67-1.85Z"></path><path class="cls-15" d="m1404.38,938.55h3.36v6.22c0,3.95-.88,5.29-3.4,5.96l-.67-1.85c1.76-.67,2.06-1.09,2.06-3.78v-.34h-1.34v-6.22Z"></path><path class="cls-15" d="m1425.38,922.46h-3.36v-5.08c0-3.95.88-5.29,3.4-5.97l.67,1.85c-1.76.67-2.06,1.09-2.06,3.78v.34h1.34v5.08Zm5.92,0h-3.36v-5.08c0-3.95.88-5.29,3.4-5.97l.67,1.85c-1.76.67-2.06,1.09-2.06,3.78v.34h1.34v5.08Z"></path><path class="cls-15" d="m1434.53,923.81v-.04h3.36l7.35,17.98h.08l7.1-17.98h3.07v.04l-8.74,20.96h-3.02l-9.2-20.96Z"></path><path class="cls-15" d="m1458.01,921.2c1.76-.67,2.06-1.09,2.06-3.78v-.34h-1.34v-5.08h3.36v5.08c0,3.95-.88,5.29-3.4,5.97l-.67-1.85Zm5.92,0c1.76-.67,2.06-1.09,2.06-3.78v-.34h-1.34v-5.08h3.36v5.08c0,3.95-.88,5.29-3.4,5.97l-.67-1.85Z"></path><path class="cls-15" d="m1482.29,938.97c0-3.95,2.23-6.09,7.86-6.09h6.34v-1.72c0-2.98-1.26-5.42-5.46-5.42-3.95,0-5.33,1.51-5.33,4.12v.88h-2.98v-.84c0-5,4.2-6.68,8.32-6.68,5.8,0,8.4,2.86,8.4,8.44v13.11h-2.06l-.55-2.98h-.08c-1.26,1.89-3.7,3.53-7.35,3.53-4.92,0-7.1-2.31-7.1-6.34Zm14.2-1.85v-1.76h-7.01c-2.65,0-4.03.92-4.03,3.61,0,2.35,1.26,3.86,4.5,3.86,4.16,0,6.55-2.14,6.55-5.71Z"></path><path class="cls-15" d="m1506.77,923.76h2.6l.29,3.49c1.01-2.14,3.28-4.03,7.35-4.03,4.75,0,7.77,2.52,7.77,7.94v13.61h-2.94v-13.27c0-4.33-2.14-5.71-5.5-5.71-3.82,0-6.64,2.69-6.64,5.63v13.36h-2.94v-21Z"></path><path class="cls-15" d="m1530.46,934.31c0-7.1,4.28-11.09,10.04-11.09,3.7,0,6.22,1.6,7.31,3.74h.04v-14.95h2.94v32.77h-1.97l-.67-3.61h-.08c-1.18,2.31-3.95,4.16-7.77,4.16-6.3,0-9.83-3.99-9.83-11.01Zm17.64-.5c0-5.5-3.36-8.07-7.35-8.07-3.11,0-7.14,1.47-7.14,8.4s3.61,8.61,7.14,8.61c4.24,0,7.35-2.73,7.35-8.95Z"></path><path class="cls-15" d="m1569.48,922.46h-3.36v-5.08c0-3.95.88-5.29,3.4-5.97l.67,1.85c-1.76.67-2.06,1.09-2.06,3.78v.34h1.34v5.08Zm5.92,0h-3.36v-5.08c0-3.95.88-5.29,3.4-5.97l.67,1.85c-1.76.67-2.06,1.09-2.06,3.78v.34h1.34v5.08Z"></path><path class="cls-15" d="m1582,923.76l6.89,17.98h.08l7.14-17.98h3.07v.04l-8.86,20.84-3.11,8.53h-2.98v-.04l3.19-8.36-8.78-20.96v-.04h3.36Z"></path><path class="cls-15" d="m1601.48,921.2c1.76-.67,2.06-1.09,2.06-3.78v-.34h-1.34v-5.08h3.36v5.08c0,3.95-.88,5.29-3.4,5.97l-.67-1.85Zm5.92,0c1.76-.67,2.06-1.09,2.06-3.78v-.34h-1.34v-5.08h3.36v5.08c0,3.95-.88,5.29-3.4,5.97l-.67-1.85Z"></path><path class="cls-15" d="m1293.27,2618.4h3.15l17.69,27.6h.04v-27.6h2.94v32.77h-3.07l-17.77-27.93h-.04v27.93h-2.94v-32.77Z"></path><path class="cls-15" d="m1324.02,2640.67c0-6.22,3.32-11.05,10.38-11.05,6.59,0,10.25,4.83,10.25,11.05s-3.7,11.05-10.29,11.05c-7.27,0-10.33-4.83-10.33-11.05Zm17.56,0c0-5.33-2.9-8.48-7.22-8.48-4.75,0-7.27,3.15-7.27,8.48s2.56,8.49,7.27,8.49c4.33,0,7.22-3.15,7.22-8.49Z"></path><path class="cls-15" d="m1350.52,2630.16h2.6l.29,3.49c1.01-2.14,3.28-4.03,7.35-4.03,4.75,0,7.77,2.52,7.77,7.94v13.61h-2.94v-13.27c0-4.33-2.14-5.71-5.5-5.71-3.82,0-6.64,2.69-6.64,5.63v13.36h-2.94v-21Z"></path><path class="cls-15" d="m1374.21,2637.68h10.59v2.81h-10.59v-2.81Z"></path><path class="cls-15" d="m1401.63,2648.48v2.6c-.76.21-2.14.59-4.03.59-3.82,0-6.34-1.6-6.34-6.89v-12.18h-4.16v-2.44h4.16v-6.05l2.94-1.43v7.48h5.92v2.44h-5.92v11.8c0,2.81.76,4.58,3.4,4.58,1.6,0,3.23-.29,4.03-.5Z"></path><path class="cls-15" d="m1406.67,2630.16l6.89,17.98h.08l7.14-17.98h3.07v.04l-8.86,20.84-3.11,8.53h-2.98v-.04l3.19-8.36-8.78-20.96v-.04h3.36Z"></path><path class="cls-15" d="m1428.05,2630.16h2.39l.34,3.87h.08c1.13-2.48,4.03-4.41,7.86-4.41,6.3,0,9.66,3.99,9.66,11.01s-4.29,11.09-9.87,11.09c-3.78,0-6.38-1.6-7.43-3.7h-.08v11.55h-2.94v-29.41Zm17.18,10.63c0-7.18-3.4-8.61-6.93-8.61-4.24,0-7.56,2.73-7.56,8.44,0,6.01,3.45,8.57,7.44,8.57,3.02,0,7.06-1.47,7.06-8.4Z"></path><path class="cls-15" d="m1452.58,2640.67c0-6.22,3.32-11.05,10.38-11.05,6.59,0,10.25,4.83,10.25,11.05s-3.7,11.05-10.29,11.05c-7.27,0-10.33-4.83-10.33-11.05Zm17.56,0c0-5.33-2.9-8.48-7.22-8.48-4.75,0-7.27,3.15-7.27,8.48s2.56,8.49,7.27,8.49c4.33,0,7.22-3.15,7.22-8.49Z"></path><path class="cls-15" d="m1478.45,2652.97v-.13h3.11v.13c0,2.9,1.93,4.33,6.13,4.33,4.79,0,7.01-2.94,7.01-7.86v-2.1h-.08c-1.09,2.18-3.65,4.07-7.48,4.07-6.3,0-9.75-3.99-9.75-10.71,0-7.1,4.37-11.09,9.96-11.09,3.78,0,6.55,1.81,7.56,4.12h.13l.29-3.57h2.31v19.16c0,5.88-2.81,10.71-10.33,10.71-6.3,0-8.86-2.98-8.86-7.06Zm16.59-12.77c0-5.5-3.36-8.07-7.35-8.07-3.03,0-7.14,1.47-7.14,8.4s3.57,8.32,7.1,8.32c4.24,0,7.39-2.73,7.39-8.65Z"></path><path class="cls-15" d="m1504.99,2630.16h2.6l.29,3.91c1.01-2.14,3.07-4.45,6.76-4.45,1.26,0,2.18.21,3.02.54v3.15c-1.13-.5-2.1-.76-3.4-.76-3.74,0-6.34,2.81-6.34,5.76v12.85h-2.94v-21Z"></path><path class="cls-15" d="m1520.61,2645.37c0-3.95,2.23-6.09,7.86-6.09h6.34v-1.72c0-2.98-1.26-5.42-5.46-5.42-3.95,0-5.33,1.51-5.33,4.12v.88h-2.98v-.84c0-5,4.2-6.68,8.32-6.68,5.8,0,8.4,2.86,8.4,8.44v13.11h-2.06l-.55-2.98h-.08c-1.26,1.89-3.7,3.53-7.35,3.53-4.92,0-7.1-2.31-7.1-6.34Zm14.2-1.85v-1.76h-7.01c-2.65,0-4.03.92-4.03,3.61,0,2.35,1.26,3.87,4.5,3.87,4.16,0,6.55-2.14,6.55-5.71Z"></path><path class="cls-15" d="m1545.1,2630.16h2.39l.34,3.87h.08c1.13-2.48,4.03-4.41,7.86-4.41,6.3,0,9.66,3.99,9.66,11.01s-4.29,11.09-9.87,11.09c-3.78,0-6.38-1.6-7.43-3.7h-.08v11.55h-2.94v-29.41Zm17.18,10.63c0-7.18-3.4-8.61-6.93-8.61-4.24,0-7.56,2.73-7.56,8.44,0,6.01,3.45,8.57,7.44,8.57,3.02,0,7.06-1.47,7.06-8.4Z"></path><path class="cls-15" d="m1570.68,2618.4h2.94v15.17c1.05-2.1,3.28-3.95,7.31-3.95,4.75,0,7.77,2.52,7.77,7.94v13.61h-2.94v-13.27c0-4.33-2.14-5.71-5.5-5.71-3.82,0-6.64,2.69-6.64,5.63v13.36h-2.94v-32.77Z"></path><path class="cls-15" d="m1596.05,2618.4h2.98v6.51h-2.98v-6.51Zm0,11.76h2.94v21h-2.94v-21Z"></path><path class="cls-15" d="m1604.7,2640.83c0-6.38,3.23-11.21,10-11.21s8.95,3.91,8.95,8.95v.42h-3.11v-.63c0-3.82-1.64-6.09-5.84-6.09-4.75,0-7.02,3.11-7.02,8.4,0,5.63,2.39,8.49,6.93,8.49,3.82,0,5.84-1.85,5.92-5.67h3.02c-.08,4.66-3.15,8.23-9.03,8.23-7.22,0-9.83-4.75-9.83-10.88Z"></path><path class="cls-15" d="m1637.5,2640.83c0-6.38,3.23-11.21,10-11.21s8.95,3.91,8.95,8.95v.42h-3.11v-.63c0-3.82-1.64-6.09-5.84-6.09-4.75,0-7.01,3.11-7.01,8.4,0,5.63,2.39,8.49,6.93,8.49,3.82,0,5.84-1.85,5.92-5.67h3.02c-.08,4.66-3.15,8.23-9.03,8.23-7.22,0-9.83-4.75-9.83-10.88Z"></path><path class="cls-15" d="m1660.85,2645.37c0-3.95,2.23-6.09,7.86-6.09h6.34v-1.72c0-2.98-1.26-5.42-5.46-5.42-3.95,0-5.33,1.51-5.33,4.12v.88h-2.98v-.84c0-5,4.2-6.68,8.32-6.68,5.8,0,8.4,2.86,8.4,8.44v13.11h-2.06l-.55-2.98h-.08c-1.26,1.89-3.7,3.53-7.35,3.53-4.92,0-7.1-2.31-7.1-6.34Zm14.2-1.85v-1.76h-7.01c-2.65,0-4.03.92-4.03,3.61,0,2.35,1.26,3.87,4.5,3.87,4.16,0,6.55-2.14,6.55-5.71Z"></path><path class="cls-15" d="m1685.34,2630.16h2.6l.29,3.91c1.01-2.14,3.07-4.45,6.76-4.45,1.26,0,2.18.21,3.02.54v3.15c-1.13-.5-2.1-.76-3.4-.76-3.74,0-6.34,2.81-6.34,5.76v12.85h-2.94v-21Z"></path><path class="cls-15" d="m1700.33,2640.67c0-6.22,3.32-11.05,10.38-11.05,6.59,0,10.25,4.83,10.25,11.05s-3.7,11.05-10.29,11.05c-7.27,0-10.33-4.83-10.33-11.05Zm17.56,0c0-5.33-2.9-8.48-7.22-8.48-4.75,0-7.27,3.15-7.27,8.48s2.56,8.49,7.27,8.49c4.33,0,7.22-3.15,7.22-8.49Z"></path><path class="cls-15" d="m1726.83,2630.16h2.6l.29,3.49c1.01-2.14,3.28-4.03,7.35-4.03,4.75,0,7.77,2.52,7.77,7.94v13.61h-2.94v-13.27c0-4.33-2.14-5.71-5.5-5.71-3.82,0-6.64,2.69-6.64,5.63v13.36h-2.94v-21Z"></path><path class="cls-15" d="m1772.82,2648.48v2.6c-.76.21-2.14.59-4.03.59-3.82,0-6.34-1.6-6.34-6.89v-12.18h-4.16v-2.44h4.16v-6.05l2.94-1.43v7.48h5.92v2.44h-5.92v11.8c0,2.81.76,4.58,3.4,4.58,1.6,0,3.23-.29,4.03-.5Z"></path><path class="cls-15" d="m1777.65,2618.4h2.94v15.17c1.05-2.1,3.28-3.95,7.31-3.95,4.75,0,7.77,2.52,7.77,7.94v13.61h-2.94v-13.27c0-4.33-2.14-5.71-5.5-5.71-3.82,0-6.64,2.69-6.64,5.63v13.36h-2.94v-32.77Z"></path><path class="cls-15" d="m1801.76,2645.37c0-3.95,2.23-6.09,7.86-6.09h6.34v-1.72c0-2.98-1.26-5.42-5.46-5.42-3.95,0-5.33,1.51-5.33,4.12v.88h-2.98v-.84c0-5,4.2-6.68,8.32-6.68,5.8,0,8.4,2.86,8.4,8.44v13.11h-2.06l-.55-2.98h-.08c-1.26,1.89-3.7,3.53-7.35,3.53-4.92,0-7.1-2.31-7.1-6.34Zm14.2-1.85v-1.76h-7.01c-2.65,0-4.03.92-4.03,3.61,0,2.35,1.26,3.87,4.5,3.87,4.16,0,6.55-2.14,6.55-5.71Z"></path><path class="cls-15" d="m1837,2648.48v2.6c-.76.21-2.14.59-4.03.59-3.82,0-6.34-1.6-6.34-6.89v-12.18h-4.16v-2.44h4.16v-6.05l2.94-1.43v7.48h5.92v2.44h-5.92v11.8c0,2.81.76,4.58,3.4,4.58,1.6,0,3.23-.29,4.03-.5Z"></path><path class="cls-15" d="m1240.48,2679.01h2.6l.29,3.91c1.01-2.14,3.07-4.45,6.76-4.45,1.26,0,2.18.21,3.02.55v3.15c-1.13-.5-2.1-.76-3.4-.76-3.74,0-6.34,2.81-6.34,5.75v12.85h-2.94v-21Z"></path><path class="cls-15" d="m1274.42,2690.52h-15.96c.17,4.79,2.48,7.48,6.93,7.48,3.82,0,5.67-1.43,5.97-4.83h2.98c-.29,4.24-3.28,7.39-9.03,7.39-7.06,0-9.83-4.66-9.83-10.88s3.23-11.22,10-11.22,8.95,3.99,8.95,10.21v1.85Zm-3.11-2.98c0-4.45-1.72-6.55-5.92-6.55s-6.55,2.65-6.89,6.97h12.81v-.42Z"></path><path class="cls-15" d="m1278.4,2693.59v-1.18h2.94v1.13c0,2.86,2.14,4.5,5.96,4.5s5.8-1.01,5.8-3.78c0-2.06-1.01-2.81-3.86-3.32l-4.62-.84c-3.02-.55-5.54-2.02-5.54-5.5,0-3.15,2.35-6.13,8.4-6.13s8.4,3.02,8.4,7.22v.88h-2.98v-.76c0-3.45-2.14-4.92-5.42-4.92-3.95,0-5.33,1.34-5.33,3.36s1.01,2.86,3.91,3.4l4.03.76c4.12.76,6.09,1.93,6.09,5.59,0,4.58-4.12,6.55-8.78,6.55-7.31,0-8.99-3.28-8.99-6.97Z"></path><path class="cls-15" d="m1319.32,2690.52h-15.96c.17,4.79,2.48,7.48,6.93,7.48,3.82,0,5.67-1.43,5.97-4.83h2.98c-.29,4.24-3.28,7.39-9.03,7.39-7.06,0-9.83-4.66-9.83-10.88s3.23-11.22,10-11.22,8.95,3.99,8.95,10.21v1.85Zm-3.11-2.98c0-4.45-1.72-6.55-5.92-6.55s-6.55,2.65-6.89,6.97h12.81v-.42Z"></path><path class="cls-15" d="m1355.9,2686.4v13.61h-2.94v-13.27c0-4.33-2.14-5.71-4.75-5.71-3.82,0-6.17,2.69-6.17,5.63v13.36h-2.94v-13.27c0-4.33-1.85-5.71-4.83-5.71-3.61,0-6.13,2.69-6.13,5.63v13.36h-2.94v-21h2.6l.29,3.49c1.01-2.02,3.07-4.03,6.93-4.03,2.94,0,5.38,1.39,6.43,4.29,1.22-2.39,3.57-4.29,7.14-4.29,4.29,0,7.31,2.52,7.31,7.94Z"></path><path class="cls-15" d="m1366.06,2696.53h-.08l-.76,3.49h-1.97v-32.77h2.94v15.25h.04c1.26-2.31,4.07-4.03,7.69-4.03,6.3,0,9.66,3.99,9.66,11.01s-4.29,11.09-9.87,11.09c-3.78,0-6.55-1.64-7.65-4.03Zm14.37-6.89c0-7.18-3.4-8.61-6.93-8.61-4.24,0-7.56,2.73-7.56,8.44,0,6.01,3.45,8.57,7.44,8.57,3.02,0,7.06-1.47,7.06-8.4Z"></path><path class="cls-15" d="m1388.82,2667.25h2.94v32.77h-2.94v-32.77Z"></path><path class="cls-15" d="m1416.38,2690.52h-15.96c.17,4.79,2.48,7.48,6.93,7.48,3.82,0,5.67-1.43,5.97-4.83h2.98c-.29,4.24-3.28,7.39-9.03,7.39-7.06,0-9.83-4.66-9.83-10.88s3.23-11.22,10-11.22,8.95,3.99,8.95,10.21v1.85Zm-3.11-2.98c0-4.45-1.72-6.55-5.92-6.55s-6.55,2.65-6.89,6.97h12.81v-.42Z"></path><path class="cls-15" d="m1420.36,2693.59v-1.18h2.94v1.13c0,2.86,2.14,4.5,5.96,4.5s5.8-1.01,5.8-3.78c0-2.06-1.01-2.81-3.86-3.32l-4.62-.84c-3.02-.55-5.54-2.02-5.54-5.5,0-3.15,2.35-6.13,8.4-6.13s8.4,3.02,8.4,7.22v.88h-2.98v-.76c0-3.45-2.14-4.92-5.42-4.92-3.95,0-5.33,1.34-5.33,3.36s1.01,2.86,3.91,3.4l4.03.76c4.12.76,6.09,1.93,6.09,5.59,0,4.58-4.12,6.55-8.78,6.55-7.31,0-8.99-3.28-8.99-6.97Z"></path><path class="cls-15" d="m1453.67,2679.01h2.6l.29,3.91c1.01-2.14,3.07-4.45,6.76-4.45,1.26,0,2.18.21,3.02.55v3.15c-1.13-.5-2.1-.76-3.4-.76-3.74,0-6.34,2.81-6.34,5.75v12.85h-2.94v-21Z"></path><path class="cls-15" d="m1487.61,2690.52h-15.96c.17,4.79,2.48,7.48,6.93,7.48,3.82,0,5.67-1.43,5.97-4.83h2.98c-.29,4.24-3.28,7.39-9.03,7.39-7.06,0-9.83-4.66-9.83-10.88s3.23-11.22,10-11.22,8.95,3.99,8.95,10.21v1.85Zm-3.11-2.98c0-4.45-1.72-6.55-5.92-6.55s-6.55,2.65-6.89,6.97h12.81v-.42Z"></path><path class="cls-15" d="m1489.49,2679.05v-.04h3.36l7.35,17.98h.08l7.1-17.98h3.07v.04l-8.74,20.96h-3.02l-9.2-20.96Z"></path><path class="cls-15" d="m1531.29,2690.52h-15.96c.17,4.79,2.48,7.48,6.93,7.48,3.82,0,5.67-1.43,5.97-4.83h2.98c-.29,4.24-3.28,7.39-9.03,7.39-7.06,0-9.83-4.66-9.83-10.88s3.23-11.22,10-11.22,8.95,3.99,8.95,10.21v1.85Zm-3.11-2.98c0-4.45-1.72-6.55-5.92-6.55s-6.55,2.65-6.89,6.97h12.81v-.42Z"></path><path class="cls-15" d="m1537.16,2679.01h2.6l.29,3.91c1.01-2.14,3.07-4.45,6.76-4.45,1.26,0,2.18.21,3.02.55v3.15c-1.13-.5-2.1-.76-3.4-.76-3.74,0-6.34,2.81-6.34,5.75v12.85h-2.94v-21Z"></path><path class="cls-15" d="m1552.37,2693.59v-1.18h2.94v1.13c0,2.86,2.14,4.5,5.96,4.5s5.8-1.01,5.8-3.78c0-2.06-1.01-2.81-3.86-3.32l-4.62-.84c-3.02-.55-5.54-2.02-5.54-5.5,0-3.15,2.35-6.13,8.4-6.13s8.4,3.02,8.4,7.22v.88h-2.98v-.76c0-3.45-2.14-4.92-5.42-4.92-3.95,0-5.33,1.34-5.33,3.36s1.01,2.86,3.91,3.4l4.03.76c4.12.76,6.09,1.93,6.09,5.59,0,4.58-4.12,6.55-8.78,6.55-7.31,0-8.99-3.28-8.99-6.97Z"></path><path class="cls-15" d="m1593.28,2690.52h-15.96c.17,4.79,2.48,7.48,6.93,7.48,3.82,0,5.67-1.43,5.97-4.83h2.98c-.29,4.24-3.28,7.39-9.03,7.39-7.06,0-9.83-4.66-9.83-10.88s3.23-11.22,10-11.22,8.95,3.99,8.95,10.21v1.85Zm-3.11-2.98c0-4.45-1.72-6.55-5.92-6.55s-6.55,2.65-6.89,6.97h12.81v-.42Z"></path><path class="cls-15" d="m1597.48,2689.55c0-7.1,4.28-11.09,10.04-11.09,3.7,0,6.22,1.6,7.31,3.74h.04v-14.95h2.94v32.77h-1.97l-.67-3.61h-.08c-1.18,2.31-3.95,4.16-7.77,4.16-6.3,0-9.83-3.99-9.83-11.01Zm17.64-.5c0-5.5-3.36-8.07-7.35-8.07-3.11,0-7.14,1.47-7.14,8.4s3.61,8.61,7.14,8.61c4.24,0,7.35-2.73,7.35-8.95Z"></path><path class="cls-15" d="m1633.13,2689.68c0-6.38,3.23-11.22,10-11.22s8.95,3.91,8.95,8.95v.42h-3.11v-.63c0-3.82-1.64-6.09-5.84-6.09-4.75,0-7.02,3.11-7.02,8.4,0,5.63,2.39,8.49,6.93,8.49,3.82,0,5.84-1.85,5.92-5.67h3.02c-.08,4.66-3.15,8.23-9.03,8.23-7.22,0-9.83-4.75-9.83-10.88Z"></path><path class="cls-15" d="m1657.96,2667.25h2.98v6.51h-2.98v-6.51Zm0,11.76h2.94v21h-2.94v-21Z"></path><path class="cls-15" d="m1668.29,2679.01h2.6l.29,3.91c1.01-2.14,3.07-4.45,6.76-4.45,1.26,0,2.18.21,3.02.55v3.15c-1.13-.5-2.1-.76-3.4-.76-3.74,0-6.34,2.81-6.34,5.75v12.85h-2.94v-21Z"></path><path class="cls-15" d="m1683.28,2689.68c0-6.38,3.23-11.22,10-11.22s8.95,3.91,8.95,8.95v.42h-3.11v-.63c0-3.82-1.64-6.09-5.84-6.09-4.75,0-7.02,3.11-7.02,8.4,0,5.63,2.39,8.49,6.93,8.49,3.82,0,5.84-1.85,5.92-5.67h3.02c-.08,4.66-3.15,8.23-9.03,8.23-7.22,0-9.83-4.75-9.83-10.88Z"></path><path class="cls-15" d="m1707.68,2692.62v-13.61h2.94v13.27c0,4.33,2.14,5.71,5.42,5.71,3.74,0,6.55-2.69,6.55-5.63v-13.36h2.94v21h-2.6l-.25-3.36h-.08c-.97,2.02-3.23,3.91-7.23,3.91-4.66,0-7.69-2.52-7.69-7.94Z"></path><path class="cls-15" d="m1763.59,2686.4v13.61h-2.94v-13.27c0-4.33-2.14-5.71-4.75-5.71-3.82,0-6.17,2.69-6.17,5.63v13.36h-2.94v-13.27c0-4.33-1.85-5.71-4.83-5.71-3.61,0-6.13,2.69-6.13,5.63v13.36h-2.94v-21h2.6l.29,3.49c1.01-2.02,3.07-4.03,6.93-4.03,2.94,0,5.38,1.39,6.43,4.29,1.22-2.39,3.57-4.29,7.14-4.29,4.29,0,7.31,2.52,7.31,7.94Z"></path><path class="cls-15" d="m1767.99,2679.01h4.16v-5.42c0-5.29,3.15-6.89,6.38-6.89,1.85,0,2.98.29,3.74.55v2.6c-.71-.21-1.89-.46-3.49-.46-2.65,0-3.7,1.77-3.7,4.58v5.04h5.92v2.44h-5.92v18.57h-2.94v-18.57h-4.16v-2.44Zm18.82-11.76h2.94v32.77h-2.94v-32.77Z"></path><path class="cls-15" d="m1795.42,2689.51c0-6.22,3.32-11.05,10.38-11.05,6.59,0,10.25,4.83,10.25,11.05s-3.7,11.05-10.29,11.05c-7.27,0-10.33-4.83-10.33-11.05Zm17.56,0c0-5.33-2.9-8.49-7.22-8.49-4.75,0-7.27,3.15-7.27,8.49s2.56,8.49,7.27,8.49c4.33,0,7.22-3.15,7.22-8.49Z"></path><path class="cls-15" d="m1837.3,2679.05l-8.07,10.5,8.02,10.42v.04h-3.44l-6.34-8.44-6.43,8.44h-3.28v-.04l8.02-10.38-8.07-10.54v-.04h3.44l6.39,8.49,6.43-8.44v-.04h3.32v.04Z"></path><path class="cls-15" d="m977.4,1688.56h2.94v18.65l17.05-18.65h3.61v.04l-12.31,13.53,13.36,19.16v.04h-3.65l-11.68-17.05-6.38,7.02v10.04h-2.94v-32.77Z"></path><path class="cls-15" d="m1006.25,1700.32h2.61l.29,3.49c1.01-2.14,3.28-4.03,7.35-4.03,4.75,0,7.77,2.52,7.77,7.94v13.61h-2.94v-13.27c0-4.33-2.14-5.71-5.5-5.71-3.82,0-6.64,2.69-6.64,5.63v13.36h-2.94v-21Z"></path><path class="cls-15" d="m1029.94,1710.82c0-6.22,3.32-11.05,10.38-11.05,6.6,0,10.25,4.83,10.25,11.05s-3.7,11.05-10.29,11.05c-7.27,0-10.33-4.83-10.33-11.05Zm17.56,0c0-5.33-2.9-8.49-7.22-8.49-4.75,0-7.27,3.15-7.27,8.49s2.56,8.49,7.27,8.49c4.33,0,7.22-3.15,7.22-8.49Z"></path><path class="cls-15" d="m1067.41,1718.63v2.6c-.76.21-2.14.59-4.03.59-3.82,0-6.34-1.6-6.34-6.89v-12.18h-4.16v-2.44h4.16v-6.05l2.94-1.43v7.48h5.92v2.44h-5.92v11.8c0,2.81.76,4.58,3.4,4.58,1.6,0,3.23-.29,4.03-.5Z"></path><path class="cls-15" d="m1070.35,1714.9v-1.18h2.94v1.13c0,2.86,2.14,4.5,5.96,4.5s5.8-1.01,5.8-3.78c0-2.06-1.01-2.81-3.87-3.32l-4.62-.84c-3.02-.55-5.54-2.02-5.54-5.5,0-3.15,2.35-6.13,8.4-6.13s8.4,3.02,8.4,7.23v.88h-2.98v-.76c0-3.44-2.14-4.92-5.42-4.92-3.95,0-5.34,1.34-5.34,3.36s1.01,2.86,3.91,3.4l4.03.76c4.12.76,6.09,1.93,6.09,5.59,0,4.58-4.12,6.55-8.78,6.55-7.31,0-8.99-3.28-8.99-6.97Z"></path><path class="cls-15" d="m1103.65,1688.56h2.98v6.51h-2.98v-6.51Zm0,11.76h2.94v21h-2.94v-21Z"></path><path class="cls-15" d="m1113.98,1700.32h2.6l.29,3.49c1.01-2.14,3.28-4.03,7.35-4.03,4.75,0,7.77,2.52,7.77,7.94v13.61h-2.94v-13.27c0-4.33-2.14-5.71-5.5-5.71-3.82,0-6.64,2.69-6.64,5.63v13.36h-2.94v-21Z"></path><path class="cls-15" d="m1150.69,1699.02h-3.36v-5.08c0-3.95.88-5.29,3.4-5.96l.67,1.85c-1.76.67-2.06,1.09-2.06,3.78v.34h1.34v5.08Zm5.92,0h-3.36v-5.08c0-3.95.88-5.29,3.4-5.96l.67,1.85c-1.76.67-2.06,1.09-2.06,3.78v.34h1.34v5.08Z"></path><path class="cls-15" d="m1166.74,1695.28v5.04h5.92v2.44h-5.92v18.57h-2.94v-18.57h-4.16v-2.44h4.16v-5.42c0-5.29,3.15-6.89,6.38-6.89,1.85,0,2.98.29,3.74.55v2.6c-.71-.21-1.89-.46-3.49-.46-2.65,0-3.7,1.76-3.7,4.58Z"></path><path class="cls-15" d="m1177.28,1697.76c1.76-.67,2.06-1.09,2.06-3.78v-.34h-1.34v-5.08h3.36v5.08c0,3.95-.88,5.29-3.4,5.96l-.67-1.85Zm5.92,0c1.77-.67,2.06-1.09,2.06-3.78v-.34h-1.34v-5.08h3.36v5.08c0,3.95-.88,5.29-3.4,5.96l-.67-1.85Z"></path><path class="cls-15" d="m1201.55,1715.53c0-3.95,2.23-6.09,7.86-6.09h6.34v-1.72c0-2.98-1.26-5.42-5.46-5.42-3.95,0-5.33,1.51-5.33,4.12v.88h-2.98v-.84c0-5,4.2-6.68,8.32-6.68,5.8,0,8.4,2.86,8.4,8.44v13.11h-2.06l-.55-2.98h-.08c-1.26,1.89-3.7,3.53-7.35,3.53-4.92,0-7.1-2.31-7.1-6.34Zm14.2-1.85v-1.76h-7.01c-2.65,0-4.03.92-4.03,3.61,0,2.35,1.26,3.87,4.49,3.87,4.16,0,6.55-2.14,6.55-5.71Z"></path><path class="cls-15" d="m1226.04,1700.32h2.6l.29,3.49c1.01-2.14,3.28-4.03,7.35-4.03,4.75,0,7.77,2.52,7.77,7.94v13.61h-2.94v-13.27c0-4.33-2.14-5.71-5.5-5.71-3.82,0-6.64,2.69-6.64,5.63v13.36h-2.94v-21Z"></path><path class="cls-15" d="m1249.73,1710.86c0-7.1,4.28-11.09,10.04-11.09,3.7,0,6.22,1.6,7.31,3.74h.04v-14.96h2.94v32.77h-1.97l-.67-3.61h-.08c-1.18,2.31-3.95,4.16-7.77,4.16-6.3,0-9.83-3.99-9.83-11.01Zm17.64-.5c0-5.5-3.36-8.07-7.35-8.07-3.11,0-7.14,1.47-7.14,8.4s3.61,8.61,7.14,8.61c4.24,0,7.35-2.73,7.35-8.95Z"></path><path class="cls-15" d="m1288.75,1699.02h-3.36v-5.08c0-3.95.88-5.29,3.4-5.96l.67,1.85c-1.76.67-2.06,1.09-2.06,3.78v.34h1.34v5.08Zm5.92,0h-3.36v-5.08c0-3.95.88-5.29,3.4-5.96l.67,1.85c-1.76.67-2.06,1.09-2.06,3.78v.34h1.34v5.08Z"></path><path class="cls-15" d="m1301.05,1688.56h2.94v23.23l12.14-11.47h3.65v.04l-8.4,7.86,8.78,13.06v.04h-3.36l-7.39-11.22-5.42,5.04v6.17h-2.94v-32.77Z"></path><path class="cls-15" d="m1323.31,1697.76c1.76-.67,2.06-1.09,2.06-3.78v-.34h-1.34v-5.08h3.36v5.08c0,3.95-.88,5.29-3.4,5.96l-.67-1.85Zm5.92,0c1.77-.67,2.06-1.09,2.06-3.78v-.34h-1.34v-5.08h3.36v5.08c0,3.95-.88,5.29-3.4,5.96l-.67-1.85Z"></path><path class="cls-15" d="m1012.09,3440.72h2.94v32.77h-2.94v-32.77Z"></path><path class="cls-15" d="m1034.61,3470.79v2.6c-.76.21-2.14.59-4.03.59-3.82,0-6.34-1.6-6.34-6.89v-12.18h-4.16v-2.44h4.16v-6.05l2.94-1.43v7.48h5.92v2.44h-5.92v11.8c0,2.81.76,4.58,3.4,4.58,1.6,0,3.23-.29,4.03-.5Z"></path><path class="cls-15" d="m1038.18,3467.69c0-3.95,2.23-6.09,7.86-6.09h6.34v-1.72c0-2.98-1.26-5.42-5.46-5.42-3.95,0-5.33,1.51-5.33,4.12v.88h-2.98v-.84c0-5,4.2-6.68,8.32-6.68,5.8,0,8.4,2.86,8.4,8.44v13.11h-2.06l-.55-2.98h-.08c-1.26,1.89-3.7,3.53-7.35,3.53-4.92,0-7.1-2.31-7.1-6.34Zm14.2-1.85v-1.76h-7.01c-2.65,0-4.03.92-4.03,3.61,0,2.35,1.26,3.86,4.5,3.86,4.16,0,6.55-2.14,6.55-5.71Z"></path><path class="cls-15" d="m1062.66,3440.72h2.94v32.77h-2.94v-32.77Z"></path><path class="cls-15" d="m1072.95,3440.72h2.98v6.51h-2.98v-6.51Zm0,11.76h2.94v21h-2.94v-21Z"></path><path class="cls-15" d="m1081.6,3463.15c0-6.38,3.23-11.22,10-11.22s8.95,3.91,8.95,8.95v.42h-3.11v-.63c0-3.82-1.64-6.09-5.84-6.09-4.75,0-7.01,3.11-7.01,8.4,0,5.63,2.39,8.49,6.93,8.49,3.82,0,5.84-1.85,5.92-5.67h3.02c-.08,4.66-3.15,8.23-9.03,8.23-7.22,0-9.83-4.75-9.83-10.88Z"></path><path class="cls-15" d="m1114.2,3467.06v-1.18h2.94v1.13c0,2.86,2.14,4.5,5.96,4.5s5.8-1.01,5.8-3.78c0-2.06-1.01-2.81-3.86-3.32l-4.62-.84c-3.02-.55-5.54-2.02-5.54-5.5,0-3.15,2.35-6.13,8.4-6.13s8.4,3.02,8.4,7.22v.88h-2.98v-.76c0-3.45-2.14-4.92-5.42-4.92-3.95,0-5.33,1.34-5.33,3.36s1.01,2.86,3.91,3.4l4.03.76c4.12.76,6.09,1.93,6.09,5.59,0,4.58-4.12,6.55-8.78,6.55-7.31,0-8.99-3.28-8.99-6.97Z"></path><path class="cls-15" d="m1148.8,3470.79v2.6c-.76.21-2.14.59-4.03.59-3.82,0-6.34-1.6-6.34-6.89v-12.18h-4.16v-2.44h4.16v-6.05l2.94-1.43v7.48h5.92v2.44h-5.92v11.8c0,2.81.76,4.58,3.4,4.58,1.6,0,3.23-.29,4.03-.5Z"></path><path class="cls-15" d="m1153.84,3452.48l6.89,17.98h.08l7.14-17.98h3.07v.04l-8.86,20.84-3.11,8.53h-2.98v-.04l3.19-8.36-8.78-20.96v-.04h3.36Z"></path><path class="cls-15" d="m1175.22,3440.72h2.94v32.77h-2.94v-32.77Z"></path><path class="cls-15" d="m1202.78,3463.99h-15.96c.17,4.79,2.48,7.48,6.93,7.48,3.82,0,5.67-1.43,5.97-4.83h2.98c-.29,4.24-3.28,7.39-9.03,7.39-7.06,0-9.83-4.66-9.83-10.88s3.23-11.22,10-11.22,8.95,3.99,8.95,10.21v1.85Zm-3.11-2.98c0-4.45-1.72-6.55-5.92-6.55s-6.55,2.65-6.89,6.97h12.81v-.42Z"></path><path class="cls-15" d="m1219.99,3451.18h-3.36v-5.08c0-3.95.88-5.29,3.4-5.97l.67,1.85c-1.76.67-2.06,1.09-2.06,3.78v.34h1.34v5.08Zm5.92,0h-3.36v-5.08c0-3.95.88-5.29,3.4-5.97l.67,1.85c-1.76.67-2.06,1.09-2.06,3.78v.34h1.34v5.08Z"></path><path class="cls-15" d="m1229.99,3470.92l14.7-15.88h-14.58v-2.56h18.23v2.56l-14.7,15.84h14.66v2.6h-18.31v-2.56Z"></path><path class="cls-15" d="m1251.7,3449.92c1.76-.67,2.06-1.09,2.06-3.78v-.34h-1.34v-5.08h3.36v5.08c0,3.95-.88,5.29-3.4,5.96l-.67-1.85Zm5.92,0c1.76-.67,2.06-1.09,2.06-3.78v-.34h-1.34v-5.08h3.36v5.08c0,3.95-.88,5.29-3.4,5.96l-.67-1.85Z"></path><path class="cls-15" d="m1365.52,1788.7c0-11.85,6.51-17.1,14.49-17.1,7.56,0,12.64,3.78,12.64,11.47v.5h-2.86v-.63c0-5.33-3.49-8.7-9.71-8.7-6.72,0-11.47,4.58-11.47,14.28s4.75,14.28,11.76,14.28c5.63,0,9.45-2.52,9.45-8.78v-2.73h-9.83v-2.6h12.64v16.21h-2.1l-.67-3.74c-1.6,2.48-5.17,4.28-9.75,4.28-8.32,0-14.62-4.87-14.62-16.76Z"></path><path class="cls-15" d="m1417.06,1795.42h-15.96c.17,4.79,2.48,7.48,6.93,7.48,3.82,0,5.67-1.43,5.96-4.83h2.98c-.29,4.24-3.28,7.39-9.03,7.39-7.06,0-9.83-4.66-9.83-10.88s3.23-11.22,10-11.22,8.95,3.99,8.95,10.21v1.85Zm-3.11-2.98c0-4.45-1.72-6.55-5.92-6.55s-6.55,2.65-6.89,6.97h12.81v-.42Z"></path><path class="cls-15" d="m1422.94,1783.91h2.61l.29,3.91c1.01-2.14,3.07-4.45,6.76-4.45,1.26,0,2.19.21,3.03.55v3.15c-1.13-.5-2.1-.76-3.4-.76-3.74,0-6.34,2.81-6.34,5.75v12.85h-2.94v-21Z"></path><path class="cls-15" d="m1470.95,1791.3v13.61h-2.94v-13.27c0-4.33-2.14-5.71-4.75-5.71-3.82,0-6.17,2.69-6.17,5.63v13.36h-2.94v-13.27c0-4.33-1.85-5.71-4.83-5.71-3.61,0-6.13,2.69-6.13,5.63v13.36h-2.94v-21h2.6l.29,3.49c1.01-2.02,3.07-4.03,6.93-4.03,2.94,0,5.38,1.39,6.43,4.29,1.22-2.39,3.57-4.29,7.14-4.29,4.29,0,7.31,2.52,7.31,7.94Z"></path><path class="cls-15" d="m1477.03,1799.12c0-3.95,2.23-6.09,7.86-6.09h6.34v-1.72c0-2.98-1.26-5.42-5.46-5.42-3.95,0-5.34,1.51-5.34,4.12v.88h-2.98v-.84c0-5,4.2-6.68,8.32-6.68,5.8,0,8.4,2.86,8.4,8.44v13.11h-2.06l-.55-2.98h-.08c-1.26,1.89-3.7,3.53-7.35,3.53-4.91,0-7.1-2.31-7.1-6.34Zm14.2-1.85v-1.76h-7.02c-2.65,0-4.03.92-4.03,3.61,0,2.35,1.26,3.87,4.5,3.87,4.16,0,6.55-2.14,6.55-5.71Z"></path><path class="cls-15" d="m1501.52,1783.91h2.61l.29,3.49c1.01-2.14,3.28-4.03,7.35-4.03,4.75,0,7.77,2.52,7.77,7.94v13.61h-2.94v-13.27c0-4.33-2.14-5.71-5.5-5.71-3.82,0-6.64,2.69-6.64,5.63v13.36h-2.94v-21Z"></path><path class="cls-15" d="m1534.66,1798.49v-1.18h2.94v1.13c0,2.86,2.14,4.5,5.96,4.5s5.8-1.01,5.8-3.78c0-2.06-1.01-2.81-3.86-3.32l-4.62-.84c-3.03-.55-5.54-2.02-5.54-5.5,0-3.15,2.35-6.13,8.4-6.13s8.4,3.02,8.4,7.23v.88h-2.98v-.76c0-3.44-2.14-4.92-5.42-4.92-3.95,0-5.33,1.34-5.33,3.36s1.01,2.86,3.91,3.4l4.03.76c4.12.76,6.09,1.93,6.09,5.59,0,4.58-4.12,6.55-8.78,6.55-7.31,0-8.99-3.28-8.99-6.97Z"></path><path class="cls-15" d="m1569.27,1802.22v2.6c-.76.21-2.14.59-4.03.59-3.82,0-6.34-1.6-6.34-6.89v-12.18h-4.16v-2.44h4.16v-6.05l2.94-1.43v7.48h5.92v2.44h-5.92v11.8c0,2.81.76,4.58,3.4,4.58,1.6,0,3.23-.29,4.03-.5Z"></path><path class="cls-15" d="m1574.31,1783.91l6.89,17.98h.08l7.14-17.98h3.07v.04l-8.86,20.84-3.11,8.53h-2.98v-.04l3.19-8.36-8.78-20.96v-.04h3.36Z"></path><path class="cls-15" d="m1595.68,1772.15h2.94v32.77h-2.94v-32.77Z"></path><path class="cls-15" d="m1623.24,1795.42h-15.96c.17,4.79,2.48,7.48,6.93,7.48,3.82,0,5.67-1.43,5.97-4.83h2.98c-.29,4.24-3.28,7.39-9.03,7.39-7.06,0-9.83-4.66-9.83-10.88s3.23-11.22,10-11.22,8.95,3.99,8.95,10.21v1.85Zm-3.11-2.98c0-4.45-1.72-6.55-5.92-6.55s-6.55,2.65-6.89,6.97h12.81v-.42Z"></path><path class="cls-15" d="m1640.46,1782.61h-3.36v-5.08c0-3.95.88-5.29,3.4-5.96l.67,1.85c-1.76.67-2.06,1.09-2.06,3.78v.34h1.34v5.08Zm5.92,0h-3.36v-5.08c0-3.95.88-5.29,3.4-5.96l.67,1.85c-1.76.67-2.06,1.09-2.06,3.78v.34h1.34v5.08Z"></path><path class="cls-15" d="m1663.73,1802.22v2.6c-.76.21-2.14.59-4.03.59-3.82,0-6.34-1.6-6.34-6.89v-12.18h-4.16v-2.44h4.16v-6.05l2.94-1.43v7.48h5.92v2.44h-5.92v11.8c0,2.81.76,4.58,3.4,4.58,1.6,0,3.23-.29,4.03-.5Z"></path><path class="cls-15" d="m1665.61,1781.35c1.76-.67,2.06-1.09,2.06-3.78v-.34h-1.34v-5.08h3.36v5.08c0,3.95-.88,5.29-3.4,5.96l-.67-1.85Zm5.92,0c1.76-.67,2.06-1.09,2.06-3.78v-.34h-1.35v-5.08h3.36v5.08c0,3.95-.88,5.29-3.4,5.96l-.67-1.85Z"></path><line class="cls-6" x1="1233.46" y1="1663.15" x2="1232.78" y2="1662.6"></line><line class="cls-5" x1="1219.37" y1="1651.81" x2="1004.79" y2="1479.14"></line><line class="cls-6" x1="998.09" y1="1473.74" x2="997.41" y2="1473.19"></line><circle class="cls-16" cx="951.07" cy="2027.01" r="117.74"></circle><line class="cls-6" x1="565.39" y1="3228.51" x2="665.95" y2="3228.51"></line><polygon class="cls-17" points="588.58 3257.13 593.36 3252.01 568.07 3228.51 593.36 3205.01 588.58 3199.88 557.79 3228.51 588.58 3257.13"></polygon><polygon class="cls-17" points="642.76 3257.13 637.98 3252.01 663.27 3228.51 637.98 3205.01 642.76 3199.88 673.54 3228.51 642.76 3257.13"></polygon><line class="cls-6" x1="614.45" y1="3419.17" x2="614.45" y2="3418.29"></line><line class="cls-3" x1="614.45" y1="3401.26" x2="614.45" y2="3259.86"></line><line class="cls-6" x1="614.45" y1="3251.35" x2="614.45" y2="3250.47"></line></g><g id="palabras"><circle class="cls-16" cx="715.74" cy="1518.61" r="110.63"></circle><path class="cls-15" d="m659.43,208.55c4.55,0,8.02,3.74,8.02,8.02,0,2.94-1.6,5.35-3.74,6.95-46,28.88-67.93,60.44-67.93,81.3,0,17.38,13.37,24.61,33.97,24.61,64.99,0,115-69.54,115-99.49,0-6.69-1.87-9.09-7.76-9.09-33.16,0-70.87,106.44-92,168.22-15.78,46-66.59,171.43-127.57,171.43-29.42,0-45.2-32.9-20.33-74.88,1.34-2.41,4.01-4.01,6.95-4.01,4.28,0,8.02,3.48,8.02,8.02,0,1.34-.53,2.94-1.34,4.01-17.65,29.69-10.43,50.81,6.69,50.81,48.14,0,97.35-115.8,112.59-160.73,21.13-62.85,59.91-178.92,106.98-178.92,16.05,0,23.8,10.96,23.8,25.14,0,38.51-56.43,115.54-131.05,115.54-28.08,0-50.01-12.84-50.01-40.65s25.41-63.38,75.42-94.94c1.34-.8,2.67-1.34,4.28-1.34Zm-57.23,348.21c-4.55,0-8.02-3.74-8.02-8.02,0-2.94,1.34-5.35,3.74-6.95,52.15-33.16,127.84-100.83,194.7-159.93,1.34-1.07,3.21-1.87,5.35-1.87,4.28,0,8.02,3.48,8.02,8.02,0,2.41-1.07,4.55-2.67,5.88-66.86,59.11-143.35,127.57-196.84,161.54-1.34.8-2.67,1.34-4.28,1.34Zm182.4-148.97c-4.28,0-8.02-3.48-8.02-8.02,0-2.41,1.07-4.55,2.94-5.88.8-1.07,1.87-1.87,2.94-2.67,38.78-33.16,146.83-122.49,146.83-165.82,0-3.74-.8-4.55-4.01-4.55-6.42,0-16.31,4.55-25.67,12.57-14.98,12.84-30.49,33.43-46.54,58.57-50.28,79.97-97.08,198.98-102.7,223.05-1.07,5.88-1.87,10.97-1.87,15.24,0,10.16,2.94,14.17,8.56,14.17,24.87,0,85.05-41.45,137.73-88.52,1.34-1.34,3.21-2.14,5.35-2.14,4.55,0,8.02,3.74,8.02,8.02,0,2.41-1.07,4.55-2.67,5.88-53.22,47.87-116.87,92.8-148.43,92.8-16.05,0-24.61-12.84-24.61-30.22,0-5.35.8-12.03,2.41-18.45,5.62-25.67,53.49-146.83,104.84-228.4,16.05-25.67,33.16-48.41,49.21-62.31,12.03-10.16,25.67-16.31,36.37-16.31,12.84,0,20.06,8.56,20.06,20.59,0,52.95-113.4,144.69-152.18,177.58-1.07,1.07-2.14,2.14-3.21,2.94-1.34,1.34-3.21,1.87-5.35,1.87Zm115.8,63.92c-4.28,0-8.02-3.48-8.02-8.02,0-2.94,1.6-5.35,4.01-6.69,69.27-41.45,69.8-64.99,61.78-64.99s-25.41,13.64-39.05,47.34c-15.51,36.37-25.94,65.26-28.35,75.69-1.07,5.88-1.87,10.97-1.87,15.24,0,10.16,2.94,14.17,8.56,14.17,33.97,0,101.63-50.01,156.45-100.29,1.34-1.34,3.21-2.14,5.35-2.14,4.55,0,8.02,3.74,8.02,8.02,0,2.41-1.07,4.55-2.67,5.88-55.36,50.81-126.23,104.57-167.15,104.57-16.05,0-24.6-12.84-24.6-30.22,0-5.35.8-12.03,2.41-18.45,2.41-11.5,13.37-41.99,28.88-78.9,16.31-39.31,37.71-56.97,54.02-56.97,29.95,0,35.3,41.19-53.49,94.67-1.34.8-2.67,1.07-4.28,1.07Zm455.99-83.18c4.28,0,8.02,3.48,8.02,8.02,0,2.94-1.6,5.62-4.28,6.95-28.35,16.05-85.85,39.85-120.88,39.85-19.52,0-34.5-8.29-34.5-27.28s12.03-40.12,28.08-40.38c8.83,0,15.78,5.62,15.78,17.12,0,37.17-81.3,167.69-124.36,167.69-9.09,0-18.72-7.22-18.72-23.8,0-31.56,38.51-106.44,51.88-132.92,5.08-9.9,3.48-11.77-.27-11.77-14.44,0-59.37,33.16-99.76,70.6-1.34,1.34-3.21,2.41-5.35,2.41-4.55,0-8.02-3.74-8.02-8.02,0-2.41.8-4.55,2.41-5.88,40.92-38.24,88.79-75.15,110.72-75.15,12.57,0,27.01,10.7,14.71,35.3-13.37,26.21-50.28,98.69-50.28,125.43,0,5.62,1.6,7.76,2.67,7.76,30.49,0,108.32-121.15,108.32-151.64,0-4.01,4.28-1.07.27-1.07-4.55,0-12.03,12.57-12.03,24.34,0,8.02,5.88,11.23,18.45,11.23,31.56,0,86.12-22.73,113.13-37.71,1.07-.8,2.41-1.07,4.01-1.07Zm13.64,79.97c4.55,0,8.02,3.48,8.02,8.02,0,1.34-.27,2.67-.8,3.74-9.63,17.65-23.27,36.64-35.84,51.62-14.71,16.58-31.83,28.62-45.73,28.62s-22.73-10.43-22.73-29.95c0-27.28,21.13-68.73,34.23-89.33,17.12-27.81,49.21-65.26,81.04-65.26,8.56,0,16.58,3.48,22.73,8.02,5.62,4.28,6.42,12.04,4.28,17.65-9.63,23-53.22,97.88-53.22,131.05,0,7.76,1.87,11.77,5.35,11.77,26.48.27,109.12-71.14,188.81-160.47,1.34-1.6,3.48-2.67,5.88-2.67,4.55,0,8.02,3.74,8.02,8.02,0,2.14-.8,4.01-2.14,5.35-80.5,90.4-165.28,166.08-200.58,165.82-14.44,0-21.4-12.84-21.4-27.81,0-38.24,45.2-115.27,54.29-136.93.54-1.07.54.53,1.07,1.07-4.01-2.94-8.29-4.81-13.1-4.81-23.27,0-51.62,32.09-67.66,57.77-12.03,19.52-31.56,57.77-31.56,80.77,0,10.7,2.67,13.91,6.69,13.91,7.76,0,21.13-8.83,33.43-23.27,12.3-14.17,24.87-32.09,33.97-48.67,1.34-2.41,4.01-4.01,6.95-4.01Z"></path><path class="cls-15" d="m604.99,1085.67c4.55,0,8.02,3.74,8.02,8.02,0,2.14-.8,4.01-2.14,5.35-30.22,33.43-56.16,108.85-72.48,156.72-15.78,46-66.59,171.43-121.95,171.43-31.29,0-41.72-52.42-17.38-95.21,1.34-2.41,4.01-4.01,6.95-4.01,4.28,0,8.02,3.48,8.02,8.02,0,1.34-.53,2.67-1.07,4.01-19.26,33.7-11.5,71.14,3.48,71.14,42.26,0,91.47-115.8,106.98-160.73,16.05-47.6,42.79-125.7,75.69-162.07,1.34-1.6,3.48-2.67,5.88-2.67Zm151.37-2.41c4.28,0,8.02,3.48,8.02,8.02,0,2.94-1.87,5.62-4.28,6.95-14.71,8.29-34.23,10.96-54.83,10.96-44.93,0-96.28-12.57-114.47-12.57-33.43,0-61.51,14.17-81.04,31.56-23,20.59-31.83,44.4-27.81,50.28,7.76,11.23,36.1-18.72,46-39.58,1.34-2.67,4.01-4.55,7.22-4.55,4.28,0,8.02,3.48,8.02,8.02,0,1.34-.27,2.41-.8,3.48-13.37,27.81-53.49,70.87-73.81,41.72-10.7-15.51,3.21-46.8,30.49-71.14,21.66-19.52,53.49-35.84,91.73-35.84,20.33,0,71.68,12.57,114.47,12.57,18.99,0,35.57-2.41,47.07-8.83,1.07-.8,2.41-1.07,4.01-1.07Zm-85.58,251.93c4.55,0,8.02,3.48,8.02,8.02,0,1.34-.27,2.67-.8,3.74-10.16,17.92-23.27,36.64-35.84,51.62-14.71,16.58-31.83,28.62-45.73,28.62s-22.73-10.43-22.73-29.95c0-27.28,21.13-68.73,34.23-89.33,17.12-27.81,49.21-65.26,81.04-65.26,8.56,0,16.58,3.48,22.73,8.02,5.62,4.28,6.42,12.04,4.28,17.65-9.63,23-53.22,97.88-53.22,131.05,0,7.76,1.87,11.77,5.35,11.77,26.48,0,108.85-71.67,189.88-162.34,1.34-1.6,3.48-2.67,5.88-2.67,4.55,0,8.02,3.74,8.02,8.02,0,2.14-.8,4.01-2.14,5.35-81.84,91.73-166.35,167.69-201.65,167.69-14.44,0-21.4-12.84-21.4-27.81,0-38.24,45.2-115.27,54.29-136.93.54-1.07.54.53,1.07,1.07-4.01-2.94-8.29-4.81-13.1-4.81-23.27,0-51.62,32.09-67.66,57.77-12.03,19.52-31.56,57.77-31.56,80.77,0,10.7,2.67,13.91,6.69,13.91,7.76,0,21.13-8.83,33.43-23.27,12.3-14.17,24.6-31.56,33.97-48.67,1.34-2.41,4.01-4.01,6.95-4.01Zm194.7-90.66c4.55,0,8.02,3.48,8.02,8.02,0,1.07-.27,2.14-.53,2.94-2.14,5.08-4.55,10.97-8.29,20.33-37.71,89.59-128.11,310.23-194.97,310.23-12.03,0-23.8-8.29-23.8-21.4,0-60.98,277.87-258.62,347.14-317.99,1.34-1.07,3.21-1.87,5.35-1.87,4.28,0,8.02,3.48,8.02,8.02,0,2.41-1.07,4.55-2.94,6.15-69.54,59.91-341.53,256.48-341.53,305.69,0,3.21,3.74,5.35,7.76,5.35,52.42,0,142.55-210.75,179.99-300.61,4.01-9.09,6.42-14.98,8.56-20.06,1.07-2.94,4.01-4.81,7.22-4.81Zm276.8,9.9c4.28,0,8.02,3.48,8.02,8.02,0,1.87-.8,3.74-2.14,5.08-108.58,127.04-189.35,151.64-230.54,151.64-21.93,0-32.09-7.49-32.09-17.38,0-8.56,9.36-19.79,29.69-19.79,31.29,0,45.47,26.48,45.47,59.64,0,59.64-43.59,144.69-82.1,144.69-12.84,0-21.4-8.56-21.4-22.2,0-5.08,1.34-11.23,3.21-17.65,11.5-35.3,98.69-233.48,135.59-314.51,2.67-6.42,5.88-14.44,10.43-25.67,9.36-23,29.69-73.81,47.87-101.36,16.31-25.14,31.83-33.43,44.4-33.43,15.78,0,25.94,12.3,25.94,27.28,0,35.57-61.51,110.72-127.57,167.15-1.34,1.34-3.21,2.14-5.08,2.14-4.55,0-8.02-3.74-8.02-8.02,0-2.67,1.07-4.81,2.67-6.15,64.45-55.36,121.95-127.3,121.95-155.12,0-6.95-3.74-11.23-9.9-11.23-6.95,0-17.92,5.88-31.02,25.94-17.12,26.48-36.91,75.69-46.27,98.69-4.55,11.23-7.76,19.79-10.96,26.21-36.91,81.04-123.56,278.68-134.52,312.91-1.87,5.88-2.67,9.36-2.67,12.84,0,4.81,1.34,6.15,5.35,6.15,25.41,0,66.06-74.88,66.06-128.64,0-25.94-9.09-43.59-29.42-43.59-10.7,0-13.64,2.94-13.64,3.74,0-2.41,2.14,1.34,16.05,1.34,37.44,0,113.66-23.8,218.5-146.02,1.34-1.6,3.48-2.67,6.15-2.67Zm-248.19-105.37c4.01-9.09,12.3-13.37,17.92-10.43,5.35,2.67,7.49,11.77,3.74,20.06-3.21,7.49-10.7,13.37-17.12,10.96-6.42-2.67-8.29-11.77-4.55-20.59Zm254.87,93.34c4.28,0,8.02,3.74,8.02,8.02,0,1.34-.27,2.67-1.07,3.74-1.07,2.41-2.67,5.08-4.28,8.56-18.72,36.64-58.04,113.66-58.04,140.68,0,5.62,1.6,7.76,2.67,7.76,13.1,0,50.55-37.98,69.8-69.27,1.34-2.41,4.01-4.01,6.69-4.01,4.55,0,8.02,3.74,8.02,8.02,0,1.6-.27,2.94-1.07,4.28-20.33,33.43-60.71,77.02-83.44,77.02-9.09,0-18.72-7.22-18.72-23.8,0-31.83,40.92-111.26,59.64-148.16,1.87-3.48,3.48-6.15,4.55-8.56,1.34-2.41,4.01-4.28,7.22-4.28Zm70.6.27c4.55,0,8.02,3.74,8.02,8.02,0,1.34-.27,2.67-.8,3.74-17.12,35.04-61.24,112.86-61.24,144.95,0,8.02,1.6,11.77,5.08,11.77,25.41,0,70.61-49.48,125.7-100.29,1.34-1.34,3.21-2.14,5.35-2.14,4.55,0,8.02,3.74,8.02,8.02,0,2.41-1.07,4.55-2.67,5.88-54.29,50.28-102.43,104.57-136.4,104.57-14.44,0-21.13-12.57-21.13-27.81,0-37.17,46-117.41,62.85-152.18,1.34-2.67,4.28-4.55,7.22-4.55Zm109.65,184.54c-4.55,0-8.02-3.74-8.02-8.02,0-1.6.54-2.94,1.07-4.28l68.47-113.93c15.51-25.94,12.57-42.52,6.15-42.52-14.17,0-63.38,39.31-104.04,77.29-1.34,1.34-3.21,2.14-5.35,2.14-4.55,0-8.02-3.48-8.02-8.02,0-2.14.8-4.28,2.41-5.62,41.19-38.78,92.8-81.84,115-81.84s30.49,28.88,7.76,66.59l-68.73,114.47c-1.34,2.14-3.74,3.74-6.69,3.74Zm71.14-118.48c-4.28,0-8.02-3.48-8.02-8.02,0-1.87.8-3.74,1.87-5.08,26.21-31.02,52.95-53.22,69.8-53.22,18.99,0,26.48,19.26,8.56,58.3-8.29,18.45-26.21,54.29-41.19,87.19-7.49,17.12-5.08,23.27,2.41,23.27,40.92,0,207.8-123.02,253.8-161.8,1.34-1.34,3.21-1.87,5.35-1.87,4.28,0,8.02,3.48,8.02,8.02,0,2.41-1.34,4.55-2.94,6.15-46.8,39.58-215.56,165.55-264.23,165.55-22.47,0-28.08-20.06-16.85-45.73,14.98-33.43,32.89-69.27,41.19-87.19,12.04-26.74,9.9-35.84,5.88-35.84-9.09,0-32.9,18.45-57.5,47.6-1.34,1.6-3.74,2.67-6.15,2.67Z"></path><path class="cls-15" d="m347.37,2892.11c-4.55,0-8.02-3.48-8.02-8.02,0-2.67,1.34-5.08,3.48-6.69,24.07-16.05,100.29-68.73,139.07-68.73,30.76,0,11.5,33.16-5.35,73.28-2.14,5.08-9.36,22.2-12.84,30.76-41.45,101.09-105.11,253-186.94,253-52.42,0-25.14-51.88,7.76-85.85,76.49-79.16,233.48-144.69,300.87-199.78,39.31-32.09,40.65-53.49,18.19-54.56-22.47-1.07-45.2,19.52-60.98,56.7-12.3,28.62-112.59,224.39-112.59,262.09,0,5.08,1.6,8.83,6.95,8.83,25.41,0,124.09-58.57,209.68-147.09,1.34-1.6,3.48-2.41,5.62-2.41,4.55,0,8.02,3.48,8.02,8.02,0,2.14-.8,4.01-2.14,5.35-87.19,90.4-188.82,152.18-221.18,152.18-16.05,0-23-12.84-23-24.87,0-43.33,101.9-240.7,113.66-268.51,17.92-41.99,46-67.93,76.49-66.33,33.97,1.6,48.94,36.1-8.56,82.91-69,56.7-225.45,121.69-299.27,198.71-31.29,32.36-45.2,58.57-19.52,58.57,69.27,0,131.05-142.55,171.97-242.84,3.48-8.56,10.7-26.21,12.84-31.29,13.1-30.22,25.14-50.81,20.33-50.81-32.9,0-105.64,50.01-130.25,66.06-1.07.8-2.67,1.34-4.28,1.34Zm330.03,181.59c4.55,0,8.02,3.48,8.02,8.02,0,1.34-.27,2.67-1.07,3.74-9.9,18.19-23.53,37.44-35.57,51.62-14.71,16.58-31.83,28.62-45.73,28.62s-22.73-10.43-22.73-29.95c0-27.28,21.13-68.73,34.23-89.33,17.12-27.81,49.21-65.26,81.04-65.26,8.56,0,16.58,3.48,22.73,8.02,5.62,4.28,6.42,12.04,4.28,17.65-9.63,23-53.22,97.88-53.22,131.05,0,7.76,1.87,11.77,5.35,11.77,27.01,0,91.47-53.22,174.91-138.8,1.34-1.6,3.48-2.67,5.62-2.67,4.55,0,8.02,3.74,8.02,8.02,0,2.41-.8,4.28-2.14,5.62-83.98,86.65-151.37,143.88-186.41,143.88-14.44,0-21.4-12.84-21.4-27.81,0-38.24,45.2-115.27,54.29-136.93.53-1.07.53.53,1.07,1.07-4.01-2.94-8.29-4.81-13.11-4.81-23.27,0-51.62,32.09-67.66,57.77-12.04,19.52-31.56,57.77-31.56,80.77,0,10.7,2.67,13.91,6.69,13.91,7.76,0,21.13-8.83,33.43-23.27,11.77-13.37,24.6-31.56,33.97-48.67,1.34-2.41,4.01-4.01,6.95-4.01Zm40.92-161c-4.55,0-8.02-3.74-8.02-8.02,0-1.34.27-2.67.8-3.74l41.99-87.45c1.07-2.67,4.01-4.55,6.95-4.55,4.55,0,8.02,3.74,8.02,8.02,0,1.34-.27,2.67-.8,3.74l-41.99,87.45c-1.07,2.67-4.01,4.55-6.95,4.55Zm169.29,161c4.55,0,8.02,3.48,8.02,8.02,0,1.34-.27,2.67-1.07,4.01-10.43,17.92-26.21,37.17-38.24,51.35-14.71,16.58-31.83,28.62-45.73,28.62s-22.73-10.43-22.73-29.95c0-27.28,21.13-68.73,34.23-89.33,17.12-27.81,49.21-65.26,81.04-65.26,6.42,0,12.3,1.87,18.72,5.35,2.41,1.34,4.28,4.01,4.28,6.95,0,4.55-3.74,8.02-8.02,8.02-1.34,0-2.67-.27-3.74-.8-4.55-2.41-7.76-3.48-11.23-3.48-23.27,0-51.62,32.09-67.66,57.77-12.03,19.52-31.56,57.77-31.56,80.77,0,10.7,2.67,13.91,6.69,13.91,7.76,0,21.13-8.83,33.43-23.27,12.3-13.91,27.01-31.83,36.64-48.67,1.34-2.41,4.01-4.01,6.95-4.01Zm125.7-263.7c4.28,0,8.02,3.48,8.02,8.02,0,1.07-.27,2.41-.8,3.21-23,48.14-143.62,286.7-143.62,316.65,0,7.76,1.87,11.77,5.35,11.77,26.21,0,105.11-76.22,186.14-167.15,1.34-1.6,3.48-2.67,5.88-2.67,4.55,0,8.02,3.74,8.02,8.02,0,2.14-.8,4.01-2.14,5.35-81.57,91.73-162.34,172.5-197.91,172.5-14.44,0-21.4-12.84-21.4-27.81,0-35.84,123.02-277.34,145.22-323.34,1.07-2.94,4.01-4.55,7.22-4.55Zm202.99,221.18c4.28,0,7.76,3.48,7.76,7.76,0,1.87-.54,3.48-1.6,4.81-56.16,74.08-111.52,121.95-148.16,121.95-23.27,0-60.44-20.33-74.88-20.33-6.42,0-10.97,2.67-10.97,4.01,0-.27,1.07.27,10.43.27,8.56,0,17.38-4.81,29.15-19.79,32.09-41.19,80.23-123.83,94.67-146.02.54-1.07,14.71,7.76,12.3,8.29-35.04,52.95-91.73,27.28-69.53-5.62,1.34-2.14,3.74-3.48,6.42-3.48,4.28,0,8.02,3.48,8.02,8.02,0,1.34-.54,2.94-1.34,4.28-10.16,15.78,23,18.45,43.33-11.5,5.62-9.63,20.59-1.6,13.64,8.56-13.91,22.2-62.58,105.37-95.21,147.09-14.98,19.26-28.08,26.21-41.45,26.21-16.05,0-25.94-6.69-25.94-16.31,0-10.16,12.3-20.06,26.48-20.06,19.26,0,54.56,20.33,74.88,20.33,29.42,0,81.57-44.13,135.86-115.54,1.34-1.87,3.74-2.94,6.15-2.94Zm48.41,42.52c4.55,0,8.02,3.48,8.02,8.02,0,1.34-.27,2.67-1.07,3.74-9.9,18.19-23.53,37.44-35.57,51.62-14.71,16.58-31.83,28.62-45.73,28.62s-22.73-10.43-22.73-29.95c0-27.28,21.13-68.73,34.23-89.33,17.12-27.81,49.21-65.26,81.04-65.26,8.56,0,16.58,3.48,22.73,8.02,5.62,4.28,6.42,12.04,4.28,17.65-9.63,23-53.22,97.88-53.22,131.05,0,9.63,2.14,11.77,7.76,11.77,54.29,0,267.71-220.11,332.7-315.58,1.6-2.14,4.01-3.74,6.69-3.74,4.55,0,8.02,3.74,8.02,8.02,0,1.87-.53,3.48-1.34,4.55-65.79,96.55-281.35,322.8-346.07,322.8-14.71,0-23.8-9.09-23.8-27.81,0-38.24,45.2-115.27,54.29-136.93.54-1.07.54.53,1.07,1.07-4.01-2.94-8.29-4.81-13.1-4.81-23.27,0-51.62,32.09-67.66,57.77-12.04,19.52-31.56,57.77-31.56,80.77,0,10.7,2.67,13.91,6.69,13.91,7.76,0,21.13-8.83,33.43-23.27,11.77-13.37,24.6-31.56,33.97-48.67,1.34-2.41,4.01-4.01,6.95-4.01Zm40.92-161c-4.55,0-8.02-3.74-8.02-8.02,0-1.34.27-2.67.8-3.74l41.99-87.45c1.07-2.67,4.01-4.55,6.95-4.55,4.55,0,8.02,3.74,8.02,8.02,0,1.34-.27,2.67-.8,3.74l-41.99,87.45c-1.07,2.67-4.01,4.55-6.95,4.55Zm159.93,247.12c-4.55,0-8.02-3.48-8.02-8.02,0-1.07,0-2.14.54-2.94,14.44-35.04,11.77-44.13,10.7-44.13-11.23,0-24.61,20.33-24.61,35.04,0,6.42,2.67,9.9,9.63,9.9,46.54,0,168.76-86.65,246.85-167.42,1.34-1.6,3.48-2.41,5.62-2.41,4.55,0,8.02,3.48,8.02,8.02,0,2.14-.8,4.01-2.14,5.35-78.9,81.84-204.33,172.5-258.35,172.5-17.92,0-25.67-12.57-25.67-25.94,0-21.66,18.45-51.08,40.65-51.08,17.38,0,24.34,16.58,4.01,66.33-1.07,2.67-4.01,4.81-7.22,4.81Zm0,0c-4.28,0-8.02-3.48-8.02-8.02,0-1.07.27-2.14.8-3.21,23.27-55.9,127.57-288.3,147.9-333.77,1.07-2.94,4.01-4.81,7.22-4.81,4.55,0,8.02,3.48,8.02,8.02,0,1.07-.27,2.14-.53,3.21-20.59,45.73-124.63,278.14-147.9,333.77-1.34,2.67-4.01,4.81-7.49,4.81Zm243.11-351.15c4.28,0,8.02,3.48,8.02,8.02,0,1.6-.54,2.94-1.34,4.28-18.99,30.22-47.34,76.49-77.56,76.49-19.52,0-22.73-20.59-14.71-39.85l12.04-27.55c1.34-2.67,4.01-4.55,7.22-4.55,4.55,0,8.02,3.48,8.02,8.02,0,1.07-.27,2.14-.54,3.21l-11.77,27.28c-4.55,10.16-4.01,17.38-.27,17.38,20.06,0,44.93-39.05,63.92-69,1.6-2.41,4.01-3.74,6.95-3.74Z"></path><path class="cls-15" d="m511.38,2116.5c4.55,0,8.02,3.74,8.02,8.02,0,1.07,0,2.14-.54,2.94-1.87,5.08-4.01,10.7-7.49,20.06-34.23,88.79-103.5,305.15-170.09,307.29-12.03.53-24.07-7.76-24.6-20.59-1.87-59.64,250.59-259.15,316.92-319.86,1.34-1.34,3.21-2.14,5.35-2.14,4.55,0,8.02,3.74,8.02,8.02,0,2.41-1.07,4.55-2.41,6.15-66.86,60.98-313.44,259.15-311.84,307.29,0,2.67,4.01,5.35,8.02,5.08,52.15-1.6,121.42-208.87,155.65-297.13,3.48-9.09,5.62-14.71,7.49-19.79,1.34-3.21,4.01-5.35,7.49-5.35Zm.54-.27c5.08,0,8.83,4.81,7.49,9.9-11.23,45.2-83.71,170.9-147.09,170.9-19.79,0-28.88-16.85-28.88-40.12,0-87.19,116.07-315.58,197.64-315.58,20.86,0,30.76,16.85,30.76,37.44,0,39.58-37.17,74.35-58.84,74.35-11.5,0-18.99-8.29-18.99-21.66s6.69-29.95,16.31-39.31c1.34-1.6,3.21-2.41,5.62-2.41,4.28,0,8.02,3.48,8.02,8.02,0,2.14-1.07,4.28-2.41,5.62-5.35,5.35-11.5,18.45-11.5,28.08,0,4.55,1.07,5.62,2.94,5.62,11.77,0,42.79-26.74,42.79-58.3,0-13.1-4.28-21.4-14.71-21.4-67.93,0-181.59,217.43-181.59,299.54,0,16.85,4.28,24.07,12.84,24.07,52.69,0,122.49-120.35,131.85-158.59.8-3.74,3.74-6.15,7.76-6.15Zm128.11-4.01c4.28,0,8.02,3.74,8.02,8.02,0,1.34-.27,2.67-1.07,3.74-1.07,2.41-2.67,5.08-4.28,8.56-18.72,36.64-58.04,113.66-58.04,140.68,0,5.62,1.6,7.76,2.67,7.76,13.11,0,50.55-37.98,69.8-69.27,1.34-2.41,4.01-4.01,6.69-4.01,4.55,0,8.02,3.74,8.02,8.02,0,1.6-.27,2.94-1.07,4.28-20.33,33.43-60.71,77.02-83.44,77.02-9.09,0-18.72-7.22-18.72-23.8,0-31.83,40.92-111.26,59.64-148.16,1.87-3.48,3.48-6.15,4.55-8.56,1.34-2.41,4.01-4.28,7.22-4.28Zm70.61.27c4.55,0,8.02,3.74,8.02,8.02,0,1.34-.27,2.67-.8,3.74-17.12,35.04-61.24,112.86-61.24,144.95,0,8.29,1.87,11.77,9.63,11.77,32.63,0,125.97-99.22,196.57-162.34,1.34-1.34,3.21-2.14,5.35-2.14,4.28,0,8.02,3.48,8.02,8.02,0,2.41-1.07,4.55-2.67,5.88-69.8,62.58-165.28,166.62-207.27,166.62-20.33,0-25.67-14.98-25.67-27.81,0-37.17,46-117.41,62.85-152.18,1.34-2.67,4.28-4.55,7.22-4.55Zm149.77,31.83c-4.28,0-8.02-3.48-8.02-8.02,0-2.41,1.07-4.55,2.94-5.88.8-1.07,1.87-1.87,2.94-2.67,38.78-33.16,146.83-122.49,146.83-165.82,0-3.74-.8-4.55-4.01-4.55-6.42,0-16.31,4.55-25.67,12.57-14.98,12.84-30.49,33.43-46.54,58.57-50.28,79.97-97.08,198.98-102.7,223.05-1.07,5.88-1.87,10.97-1.87,15.24,0,10.16,2.94,14.17,8.56,14.17,24.87,0,86.65-42.52,162.34-115.54,1.34-1.34,3.48-2.14,5.62-2.14,4.28,0,8.02,3.48,8.02,8.02,0,2.14-1.07,4.28-2.67,5.62-76.49,74.08-141.21,120.08-173.3,120.08-16.05,0-24.6-12.84-24.6-30.22,0-5.35.8-12.03,2.41-18.45,5.62-25.67,53.49-146.83,104.84-228.4,16.05-25.67,33.16-48.41,49.21-62.31,12.04-10.16,25.67-16.31,36.37-16.31,12.84,0,20.06,8.56,20.06,20.59,0,52.95-113.4,144.69-152.18,177.58-1.07,1.07-2.14,2.14-3.21,2.94-1.34,1.34-3.21,1.87-5.35,1.87Zm189.62,60.71c4.55,0,8.02,3.48,8.02,8.02,0,1.34-.27,2.67-1.07,3.74-9.9,18.19-23.53,37.44-35.57,51.62-14.71,16.58-31.83,28.62-45.73,28.62s-22.73-10.43-22.73-29.95c0-27.28,21.13-68.73,34.23-89.33,17.12-27.81,49.21-65.26,81.04-65.26,8.56,0,16.58,3.48,22.73,8.02,5.62,4.28,6.42,12.04,4.28,17.65-9.63,23-53.22,97.88-53.22,131.05,0,9.63,2.14,11.77,7.76,11.77,54.29,0,267.71-220.11,332.7-315.58,1.61-2.14,4.01-3.74,6.69-3.74,4.55,0,8.02,3.74,8.02,8.02,0,1.87-.54,3.48-1.34,4.55-65.79,96.55-281.35,322.8-346.07,322.8-14.71,0-23.8-9.09-23.8-27.81,0-38.24,45.2-115.27,54.29-136.93.53-1.07.53.53,1.07,1.07-4.01-2.94-8.29-4.81-13.1-4.81-23.27,0-51.62,32.09-67.66,57.77-12.04,19.52-31.56,57.77-31.56,80.77,0,10.7,2.67,13.91,6.69,13.91,7.76,0,21.13-8.83,33.43-23.27,11.77-13.37,24.6-31.56,33.97-48.67,1.34-2.41,4.01-4.01,6.95-4.01Zm69.8-265.04c4.28,0,8.02,3.48,8.02,8.02,0,1.6-.54,2.94-1.34,4.28-18.99,30.22-47.34,76.49-77.56,76.49-19.79,0-23-21.13-14.44-39.85l11.77-27.55c1.34-2.67,4.01-4.55,7.22-4.55,4.55,0,8.02,3.48,8.02,8.02,0,1.07-.27,2.14-.54,3.21l-12.03,27.28c-4.01,9.36-4.55,17.38,0,17.38,20.06,0,44.93-39.05,63.92-69,1.6-2.41,4.01-3.74,6.95-3.74Zm131.05,351.15c-4.55,0-8.02-3.48-8.02-8.02,0-1.07,0-2.14.53-2.94,14.44-35.04,11.77-44.13,10.7-44.13-11.23,0-24.6,20.33-24.6,35.04,0,6.42,2.67,9.9,9.63,9.9,68.73,0,99.22-34.5,170.63-97.62,1.34-1.07,3.21-1.87,5.35-1.87,4.28,0,8.02,3.48,8.02,8.02,0,2.41-1.07,4.55-2.67,5.88-70.87,62.31-105.37,101.63-181.33,101.63-17.92,0-25.68-12.57-25.68-25.94,0-21.66,18.45-51.08,40.65-51.08,17.38,0,24.34,16.58,4.01,66.33-1.07,2.67-4.01,4.81-7.22,4.81Zm0,0c-4.28,0-8.02-3.48-8.02-8.02,0-1.07.27-2.14.8-3.21,23.27-55.9,127.57-288.3,147.9-333.77,1.07-2.94,4.01-4.81,7.22-4.81,4.55,0,8.02,3.48,8.02,8.02,0,1.07-.27,2.14-.54,3.21-20.59,45.73-124.63,278.14-147.9,333.77-1.34,2.67-4.01,4.81-7.49,4.81Zm353.56-176.78c4.55,0,8.02,3.48,8.02,8.02,0,1.07-.27,2.14-.53,2.94-2.14,5.08-4.55,10.97-8.29,20.33-37.71,89.59-128.11,309.16-194.97,309.16-11.77,0-23.8-6.95-23.8-20.33,0-60.98,277.87-258.62,347.14-317.99,1.34-1.07,3.21-1.87,5.35-1.87,4.28,0,8.02,3.48,8.02,8.02,0,2.41-1.07,4.55-2.94,6.15-69.53,59.91-341.53,256.48-341.53,305.69,0,2.67,3.21,4.28,7.76,4.28,52.95,0,142.81-210.48,179.99-299.54,4.01-9.09,6.42-14.98,8.56-20.06,1.07-2.94,4.01-4.81,7.22-4.81Zm-39.58,93.34c4.28,0,8.02,3.48,8.02,8.02,0,1.6-.53,3.21-1.34,4.28-22.2,33.7-69.27,77.02-93.87,77.02-9.36,0-19.79-7.22-19.79-23.8,0-28.08,35.57-92.8,58.57-132.92,4.81-9.9,3.21-11.77-.54-11.77-14.44,0-60.17,33.7-100.56,71.14-1.34,1.34-3.21,2.41-5.35,2.41-4.55,0-8.02-3.74-8.02-8.02,0-2.41.8-4.55,2.41-5.88,40.92-38.24,89.59-75.69,111.52-75.69,12.57,0,27.01,10.7,14.44,35.3-22.47,40.12-56.43,102.7-56.43,125.43,0,5.88,1.87,7.76,3.74,7.76,16.31,0,60.18-38.78,80.5-69.8,1.34-2.14,3.74-3.48,6.69-3.48Zm23.8-163.68c-4.55,0-8.02-3.74-8.02-8.02,0-1.34.27-2.67.8-3.74l41.99-87.45c1.07-2.67,4.01-4.55,6.95-4.55,4.55,0,8.02,3.74,8.02,8.02,0,1.34-.27,2.67-.8,3.74l-41.99,87.45c-1.07,2.67-4.01,4.55-6.95,4.55Z"></path><path class="cls-16" d="m1708.66,2808.75c4.28,0,8.02,3.48,8.02,8.02,0,1.6-.54,2.94-1.34,4.28-18.99,30.22-47.34,76.49-77.56,76.49-19.52,0-22.73-20.59-14.71-39.85l12.04-27.55c1.34-2.67,4.01-4.55,7.22-4.55,4.55,0,8.02,3.48,8.02,8.02,0,1.07-.27,2.14-.54,3.21l-11.77,27.28c-4.55,10.16-4.01,17.38-.27,17.38,20.06,0,44.93-39.05,63.92-69,1.6-2.41,4.01-3.74,6.95-3.74Z"></path><path class="cls-16" d="m1216.29,3031.01c4.28,0,7.76,3.48,7.76,7.76,0,1.87-.54,3.48-1.6,4.81-56.16,74.08-111.52,121.95-148.16,121.95-23.27,0-60.44-20.33-74.88-20.33-6.42,0-10.97,2.67-10.97,4.01,0-.27,1.07.27,10.43.27,8.56,0,17.38-4.81,29.15-19.79,32.09-41.19,80.23-123.83,94.67-146.02.54-1.07,14.71,7.76,12.3,8.29-35.04,52.95-91.82,27.04-69.62-5.85,1.34-2.14,3.76-5.51,7.36-6.12,5.53-.95,9.57,3.15,9.57,7.87,0,.61-.03,2.04-.78,3.44-.89,1.67-2.53,3.32-2.97,4.05-10.16,15.78,23,18.28,43.33-11.67,5.62-9.63,20.59-1.6,13.64,8.56-13.91,22.2-62.58,105.37-95.21,147.09-14.98,19.26-28.08,26.21-41.45,26.21-16.05,0-25.94-6.69-25.94-16.31,0-10.16,12.3-20.06,26.48-20.06,19.26,0,54.56,20.33,74.88,20.33,29.42,0,81.57-44.13,135.86-115.54,1.34-1.87,3.74-2.94,6.15-2.94Z"></path><path class="cls-16" d="m659.43,208.55c4.55,0,8.02,3.74,8.02,8.02,0,2.94-1.6,5.35-3.74,6.95-46,28.88-67.93,60.44-67.93,81.3,0,17.38,13.37,24.61,33.97,24.61,64.99,0,115-69.54,115-99.49,0-6.69-1.87-9.09-7.76-9.09-33.16,0-70.87,106.44-92,168.22-15.78,46-66.59,171.43-127.57,171.43-29.42,0-45.2-32.9-20.33-74.88,1.34-2.41,4.01-4.01,6.95-4.01,4.28,0,8.02,3.48,8.02,8.02,0,1.34-.53,2.94-1.34,4.01-17.65,29.69-10.43,50.81,6.69,50.81,48.14,0,97.35-115.8,112.59-160.73,21.13-62.85,59.91-178.92,106.98-178.92,16.05,0,23.8,10.96,23.8,25.14,0,38.51-56.43,115.54-131.05,115.54-28.08,0-50.01-12.84-50.01-40.65s25.41-63.38,75.42-94.94c1.34-.8,2.67-1.34,4.28-1.34Z"></path><path class="cls-15" d="m1264.7,3073.71c4.55,0,8.02,3.48,8.02,8.02,0,1.34-.27,2.67-1.07,3.74-9.9,18.19-23.53,37.44-35.57,51.62-14.71,16.58-31.83,28.62-45.73,28.62s-22.73-10.43-22.73-29.95c0-27.28,21.13-68.73,34.23-89.33,17.12-27.81,49.21-65.26,81.04-65.26,8.56,0,16.58,3.48,22.73,8.02,5.62,4.28,6.42,12.04,4.28,17.65-9.63,23-53.22,97.88-53.22,131.05,0,9.63,2.14,11.77,7.76,11.77,54.29,0,267.71-220.11,332.7-315.58,1.6-2.14,4.01-3.74,6.69-3.74,4.55,0,8.02,3.74,8.02,8.02,0,1.87-.53,3.48-1.34,4.55-65.79,96.55-281.35,322.8-346.07,322.8-14.71,0-23.8-9.09-23.8-27.81,0-38.24,45.2-115.27,54.29-136.93.54-1.07.54.53,1.07,1.07-4.01-2.94-8.29-4.81-13.1-4.81-23.27,0-51.62,32.09-67.66,57.77-12.04,19.52-31.56,57.77-31.56,80.77,0,10.7,2.67,13.91,6.69,13.91,7.76,0,21.13-8.83,33.43-23.27,11.77-13.37,24.6-31.56,33.97-48.67,1.34-2.41,4.01-4.01,6.95-4.01Z"></path><path class="cls-19" d="m604.99,1085.67c4.55,0,8.02,3.74,8.02,8.02,0,2.14-.8,4.01-2.14,5.35-30.22,33.43-56.16,108.85-72.48,156.72-15.78,46-66.59,171.43-121.95,171.43-31.29,0-41.72-52.42-17.38-95.21,1.34-2.41,4.01-4.01,6.95-4.01,4.28,0,8.02,3.48,8.02,8.02,0,1.34-.53,2.67-1.07,4.01-19.26,33.7-11.5,71.14,3.48,71.14,42.26,0,91.47-115.8,106.98-160.73,16.05-47.6,42.79-125.7,75.69-162.07,1.34-1.6,3.48-2.67,5.88-2.67Z"></path><path class="cls-19" d="m756.36,1083.26c4.28,0,8.02,3.48,8.02,8.02,0,2.94-1.87,5.62-4.28,6.95-14.71,8.29-34.23,10.96-54.83,10.96-44.93,0-96.28-12.57-114.47-12.57-33.43,0-61.51,14.17-81.04,31.56-23,20.59-31.83,44.4-27.81,50.28,7.76,11.23,36.1-18.72,46-39.58,1.34-2.67,4.01-4.55,7.22-4.55,4.28,0,8.02,3.48,8.02,8.02,0,1.34-.27,2.41-.8,3.48-13.37,27.81-53.49,70.87-73.81,41.72-10.7-15.51,3.21-46.8,30.49-71.14,21.66-19.52,53.49-35.84,91.73-35.84,20.33,0,71.68,12.57,114.47,12.57,18.99,0,35.57-2.41,47.07-8.83,1.07-.8,2.41-1.07,4.01-1.07Z"></path><circle class="cls-19" cx="1386.29" cy="1255.32" r="49.13"></circle><g class="cls-14"><path class="cls-18" d="m1692.95,1247.47c-2.14,0-4.01.53-5.35,1.87-46,38.78-212.88,161.8-253.8,161.8-7.49,0-9.9-6.15-2.41-23.27,14.98-32.9,32.9-68.73,41.19-87.19,17.92-39.05,10.43-58.3-8.56-58.3-11.74,0-28.27,10.78-46.09,27.8.62-17-7.8-27.8-21.04-27.8-22.2,0-73.81,43.06-115,81.84-1.6,1.34-2.41,3.48-2.41,5.62,0,4.55,3.48,8.02,8.02,8.02,2.14,0,4.01-.8,5.35-2.14,40.65-37.98,89.86-77.29,104.04-77.29,6.42,0,9.36,16.58-6.15,42.52l-68.47,113.93c-.53,1.34-1.07,2.67-1.07,4.28,0,4.28,3.48,8.02,8.02,8.02,2.94,0,5.35-1.6,6.69-3.74l68.73-114.47c.51-.84.98-1.67,1.46-2.51.14-.14.29-.28.42-.43,24.6-29.15,48.41-47.6,57.5-47.6,4.01,0,6.15,9.09-5.88,35.84-8.29,17.92-26.21,53.76-41.19,87.19-11.23,25.67-5.62,45.73,16.85,45.73,48.67,0,217.43-125.97,264.23-165.55,1.6-1.6,2.94-3.74,2.94-6.15,0-4.55-3.74-8.02-8.02-8.02Z"></path></g><g class="cls-20"><path class="cls-18" d="m865.48,1244.53c4.55,0,8.02,3.48,8.02,8.02,0,1.07-.27,2.14-.53,2.94-2.14,5.08-4.55,10.97-8.29,20.33-37.71,89.59-128.11,310.23-194.97,310.23-12.03,0-23.8-8.29-23.8-21.4,0-60.98,277.87-258.62,347.14-317.99,1.34-1.07,3.21-1.87,5.35-1.87,4.28,0,8.02,3.48,8.02,8.02,0,2.41-1.07,4.55-2.94,6.15-69.54,59.91-341.53,256.48-341.53,305.69,0,3.21,3.74,5.35,7.76,5.35,52.42,0,142.55-210.75,179.99-300.61,4.01-9.09,6.42-14.98,8.56-20.06,1.07-2.94,4.01-4.81,7.22-4.81Z"></path></g><g class="cls-22"><path class="cls-18" d="m1142.28,1254.42c4.28,0,8.02,3.48,8.02,8.02,0,1.87-.8,3.74-2.14,5.08-108.58,127.04-189.35,151.64-230.54,151.64-21.93,0-32.09-7.49-32.09-17.38,0-8.56,9.36-19.79,29.69-19.79,31.29,0,45.47,26.48,45.47,59.64,0,59.64-43.59,144.69-82.1,144.69-12.84,0-21.4-8.56-21.4-22.2,0-5.08,1.34-11.23,3.21-17.65,11.5-35.3,98.69-233.48,135.59-314.51,2.67-6.42,5.88-14.44,10.43-25.67,9.36-23,29.69-73.81,47.87-101.36,16.31-25.14,31.83-33.43,44.4-33.43,15.78,0,25.94,12.3,25.94,27.28,0,35.57-61.51,110.72-127.57,167.15-1.34,1.34-3.21,2.14-5.08,2.14-4.55,0-8.02-3.74-8.02-8.02,0-2.67,1.07-4.81,2.67-6.15,64.45-55.36,121.95-127.3,121.95-155.12,0-6.95-3.74-11.23-9.9-11.23-6.95,0-17.92,5.88-31.02,25.94-17.12,26.48-36.91,75.69-46.27,98.69-4.55,11.23-7.76,19.79-10.96,26.21-36.91,81.04-123.56,278.68-134.52,312.91-1.87,5.88-2.67,9.36-2.67,12.84,0,4.81,1.34,6.15,5.35,6.15,25.41,0,66.06-74.88,66.06-128.64,0-25.94-9.09-43.59-29.42-43.59-10.7,0-13.64,2.94-13.64,3.74,0-2.41,2.14,1.34,16.05,1.34,37.44,0,113.66-23.8,218.5-146.02,1.34-1.6,3.48-2.67,6.15-2.67Z"></path></g><g class="cls-21"><path class="cls-18" d="m860.39,2144.31c-4.28,0-8.02-3.48-8.02-8.02,0-2.41,1.07-4.55,2.94-5.88.8-1.07,1.87-1.87,2.94-2.67,38.78-33.16,146.83-122.49,146.83-165.82,0-3.74-.8-4.55-4.01-4.55-6.42,0-16.31,4.55-25.67,12.57-14.98,12.84-30.49,33.43-46.54,58.57-50.28,79.97-97.08,198.98-102.7,223.05-1.07,5.88-1.87,10.97-1.87,15.24,0,10.16,2.94,14.17,8.56,14.17,24.87,0,86.65-42.52,162.34-115.54,1.34-1.34,3.48-2.14,5.62-2.14,4.28,0,8.02,3.48,8.02,8.02,0,2.14-1.07,4.28-2.67,5.62-76.49,74.08-141.21,120.08-173.3,120.08-16.05,0-24.6-12.84-24.6-30.22,0-5.35.8-12.03,2.41-18.45,5.62-25.67,53.49-146.83,104.84-228.4,16.05-25.67,33.16-48.41,49.21-62.31,12.04-10.16,25.67-16.31,36.37-16.31,12.84,0,20.06,8.56,20.06,20.59,0,52.95-113.4,144.69-152.18,177.58-1.07,1.07-2.14,2.14-3.21,2.94-1.34,1.34-3.21,1.87-5.35,1.87Z"></path></g><path class="cls-16" d="m1415.07,2181.48c-2.14,0-4.01.8-5.35,1.87-63.29,55.94-94.44,89.4-148.55,96.28,27.83-65.44,125.22-283,145.07-327.09.27-1.07.54-2.14.54-3.21,0-4.55-3.48-8.02-8.02-8.02-3.21,0-6.15,1.87-7.22,4.81-1.97,4.4-4.73,10.56-8.12,18.14-.35.35-.68.72-.97,1.11-49.44,72.64-184.78,217.39-270.61,282.5,3.74,3.71,7.15,7.83,10.28,12.09,71.96-53.95,170.42-156.01,232.86-232.14-27.53,61.57-63.42,142.01-87.92,197.88-2.87-3.99-7.38-5.72-12.98-5.72-22.2,0-40.65,29.42-40.65,51.08,0,13.37,7.76,25.94,25.67,25.94,75.95,0,110.45-39.31,181.33-101.63,1.61-1.34,2.67-3.48,2.67-5.88,0-4.55-3.74-8.02-8.02-8.02Zm-171.7,98.69c-.15.23-.25.49-.33.76-1.3.03-2.61.04-3.95.04-6.95,0-9.63-3.48-9.63-9.9,0-14.71,13.37-35.03,24.6-35.03,1.07,0,3.74,9.09-10.7,44.13Z"></path><path class="cls-18" d="m1009.09,2257.71c-12.3,14.44-25.67,23.27-33.43,23.27-4.01,0-6.69-3.21-6.69-13.91,0-23,19.52-61.24,31.56-80.77,16.05-25.67,44.4-57.77,67.66-57.77,4.35,0,8.25,1.54,11.93,4-5.46,12.87-23.07,44.42-36.76,76.03-.1.16-.22.31-.31.48-9.36,17.12-22.2,35.3-33.97,48.67Z"></path></g></svg> 