<?xml version="1.0" encoding="UTF-8"?> <svg xmlns="http://www.w3.org/2000/svg" id="icons" viewBox="0 0 800 800"><defs><style>.cls-1{stroke:#e7bb86;stroke-width:3px;}.cls-1,.cls-2{fill:none;stroke-linecap:round;stroke-miterlimit:10;}.cls-3{fill:#65d7e7;}.cls-4{fill:#a0e6b4;}.cls-5{fill:#e09585;}.cls-2{stroke:#65d7e7;stroke-dasharray:0 0 0 0 0 0 5 15 5 15 5 15;stroke-width:6px;}</style></defs><path class="cls-3" d="m228.42,179.21c-4.45-2.66-10.22-2.83-14.38-.43l-.05.03c-7.25,4.23-10.43,11.72-11.74,18.65-4.25-2.19-12.6-5.67-19.88-3.73-3.92,1.04-7.04,3.56-9.03,7.29-2.63,4.92-3.04,10.16-1.19,15.15,2.27,6.14,7.98,11.5,15.25,14.34,7.67,2.99,28.35,9.44,37.36,12.22-.29,2.28-.47,3.67-.48,3.73-.27,2.01,1.14,3.86,3.16,4.13.84.11,1.64-.07,2.32-.46.95-.55,1.65-1.52,1.81-2.7.03-.26.22-1.64.49-3.82.71-.45,1.28-1.15,1.55-2.02.4-1.31.02-2.65-.85-3.58,1.35-11.05,3.41-29.26,3.82-40.58.41-11.36-4.93-16.29-8.15-18.21Zm.81,17.95c-.37,10.33-2.22,27.09-3.55,38.15-9.47-2.93-28.57-8.91-35.61-11.65-5.35-2.08-9.47-5.84-11.03-10.04-1.11-3.01-.85-6.08.78-9.14,1.05-1.96,2.45-3.12,4.43-3.65,5.61-1.5,14.02,2.64,16.79,4.37.13.08.26.13.39.2-.11,4.43.34,7.66.39,8.02.3,2.01,2.16,3.39,4.16,3.1,2-.29,3.39-2.16,3.11-4.16-.03-.21-2.82-20.54,8.6-27.2h.02c1.6-.93,4.49-1.1,6.93.36,3.16,1.89,4.78,6.02,4.58,11.64Z"></path><path class="cls-3" d="m166.51,206.21c-.84.48-1.86.64-2.86.34l-12.72-3.71c-1.95-.57-3.07-2.61-2.5-4.56s2.61-3.07,4.56-2.5l12.72,3.71c1.95.57,3.07,2.61,2.5,4.56-.28.95-.9,1.7-1.69,2.15Z"></path><path class="cls-3" d="m224.26,172.9c-.9.52-2,.65-3.06.28-1.91-.67-2.92-2.77-2.25-4.68l5.78-16.43c.67-1.91,2.77-2.92,4.68-2.25,1.91.67,2.92,2.77,2.25,4.68l-5.78,16.43c-.3.86-.89,1.54-1.63,1.96Z"></path><path class="cls-3" d="m159.35,222.33c-1.48.85-3.4.58-4.57-.74-1.35-1.51-1.22-3.84.3-5.19l5.66-5.05c1.51-1.35,3.84-1.22,5.19.3,1.35,1.51,1.22,3.84-.3,5.19l-5.66,5.05c-.19.17-.4.32-.61.44Z"></path><path class="cls-3" d="m236.38,177.5c-1.15.67-2.63.68-3.83-.09-1.7-1.1-2.19-3.37-1.09-5.08l6.11-9.47c1.1-1.7,3.37-2.19,5.08-1.09,1.7,1.1,2.19,3.37,1.09,5.08l-6.11,9.47c-.33.51-.76.91-1.25,1.19Z"></path><path class="cls-5" d="m113.75,259.96c-1.46,0-3.23-1.66-15.48-13.14-3.02-2.83-6.8-6.37-10.72-10-9.25,7.08-17.61,13.37-21.68,16.3h0c-1.4,1.01-3.27.9-4.55-.25-1.28-1.16-1.57-3.01-.7-4.51,2.49-4.29,7.85-13.49,13.73-23.48-4.38-3.82-7.85-6.63-9.19-7.17-1.61-.34-2.39-1.51-2.58-2.52-.19-1.03.13-2.46,1.61-3.34,1.89-1.13,11.09-3.31,21.08-5.45,12.13-20.39,12.52-20.46,14.19-20.73,3.08-.51,3.7,1.98,5.18,8.02.54,2.21,1.2,5.05,1.94,8.38,19.88-3.87,20.54-3.34,21.63-2.48l1.16.93-.02,1.52c-.04,1.63-.06,2.31-19.12,17.23,1.74,8.48,3.44,17.2,4.71,24.09.74,4.02,1.28,7.19,1.62,9.44.54,3.6.97,6.45-2.05,7.06-.28.06-.51.1-.76.1Zm-49.64-9.27h0,0Zm28.26-17.57c2.98,2.76,6.3,5.86,10,9.32,2.66,2.49,5.35,5.01,7.61,7.1-1.12-6.44-3.03-16.29-5.03-26.14-1.12.87-2.29,1.78-3.52,2.74-2.97,2.31-6.03,4.66-9.05,6.99Zm-30.01,15.13s0,0,0,0h0Zm16.56-19.31c-2.3,3.91-4.73,8.06-7.28,12.43,3.41-2.57,7.32-5.53,11.43-8.67-1.4-1.28-2.79-2.54-4.15-3.76Zm3.1-5.27c1.76,1.58,3.72,3.35,5.88,5.33,5.29-4.06,10.71-8.26,15.7-12.15-.55-2.66-1.11-5.27-1.64-7.75-4.26.84-8.67,1.74-12.87,2.62-2.14,3.6-4.51,7.59-7.08,11.95Zm-9.6-8.2c1.39,1.09,3.05,2.46,5.02,4.16,1.22-2.06,2.44-4.13,3.64-6.16,0,0,.01-.02.02-.03-3.35.74-6.33,1.44-8.68,2.03Zm-7.18,2.26s.04,0,.07.01c-.02,0-.04,0-.07-.01Zm42.63-9.79c.01.06.03.12.04.18.32,1.49.64,3.02.97,4.58,3.03-2.39,5.78-4.58,8.08-6.44-2.67.48-5.77,1.05-9.09,1.69Zm-8.96-12.46c-1.45,2.32-3.34,5.43-5.64,9.24,1.08-.22,2.16-.44,3.21-.65,1.47-.3,2.87-.58,4.2-.85-.66-2.98-1.26-5.62-1.78-7.75Z"></path><path class="cls-4" d="m161.07,746.89c-10.97-1.23-19.95-5.75-23.3-9.75-5.78-6.91-23.38-27.93-3.61-53.57,3.79-4.91,17.66-20.53,37.27-15.32,2.43.64,8.12,2.55,8.64,6.3.26,1.91-1.07,3.68-2.99,3.95-1.52.21-2.94-.59-3.6-1.88-1.09-.8-5.34-2.7-11.36-2.28-5.77.39-14.35,3.06-22.41,13.51-14.48,18.78-5.77,33.81,3.43,44.8,2.38,2.85,14.59,9.16,29.29,7.2,15.88-2.12,28.91-13.31,37.69-32.36,21.28-46.21-15.68-66.33-17.26-67.16-1.71-.9-2.37-3.01-1.47-4.72.9-1.71,3-2.37,4.71-1.48.46.24,11.36,6.01,19.35,18.34,13.39,20.66,7.95,42.92,1.02,57.96-12.42,26.97-30.3,34.66-43.12,36.37-4.24.57-8.39.54-12.29.11Z"></path><path class="cls-4" d="m116.67,735.08c-3.73-.42-5.73-4.81-6.42-6.68-.67-1.81.26-3.83,2.08-4.49,1.82-.67,3.83.27,4.49,2.08.31.83.86,1.84,1.23,2.26,1.6.47,2.68,2.03,2.49,3.75-.22,1.92-1.95,3.3-3.87,3.09Zm.78-6.96h0s0,0,0,0Z"></path><path class="cls-4" d="m113.35,710.95c-.32-.04-.63-.12-.94-.24-1.79-.73-2.64-2.78-1.91-4.57.74-1.8,2.5-8.77,3.28-12.4.4-1.89,2.27-3.09,4.16-2.69,1.89.41,3.09,2.27,2.69,4.16-.62,2.9-2.55,10.93-3.65,13.59-.61,1.48-2.11,2.32-3.63,2.15Z"></path><path class="cls-4" d="m570.36,486.29l-2.05-5.08c-.32-.73-.97-1.28-1.74-1.47-.78-.19-1.6-.02-2.23.48-1.65,1.3-3.17,1.83-4.5,1.58-1.57-.3-3.15-1.69-4.45-3.92-.06-.1-.1-.17-.13-.21-.37-.58-.96-.99-1.64-1.14-.67-.15-1.38-.02-1.96.36l-4.64,3.17c-1.2.78-1.42,2.32-.6,3.44.85,1.16,2.22,1.34,3.16.8l2.78-1.67c1.01,1.26,2.14,2.28,3.34,3.02l-.75,2.65c-.4,1.19-.06,2.68,1.53,3.19,1.27.4,2.56-.17,3-1.53l1.06-2.89c1.41,0,2.82-.33,4.24-1.01l1.14,2.28c.71,1.26,1.95,1.86,3.25,1.27,1.06-.48,1.77-1.99,1.2-3.3Z"></path><path class="cls-4" d="m617.86,508.96c1.65-3.32,3.96-9.47,2.77-16.2-.81-4.57-2.23-7.19-3.49-8.67.39-2.38.42-4.8.05-7.2-1.99-12.99-11.86-16.31-12.29-16.48-2.03-.78-4.21-.28-4.99,1.75-.78,2.03-.11,3.73,2.27,5.09,6.04,3.45,6.66,7.21,7.21,10.83.57,3.74-.3,7.65-2.52,11.31-2.23,3.67-5.7,6.79-9.76,8.76-7.51,3.65-16.3,1.91-19.94.91,3.08-1.24,7.46-3.28,11.14-6.73,2.2-2.07,3.87-4.41,4.96-6.96,1.28-3,1.77-7.49.98-10.9-.16-.69-.4-1.29-.7-1.79,2.49-2.06,4.31-4.81,5.33-8.13,2.43-7.89-.4-12.96-.73-13.52-.48-.8-1.09-1.22-1.97-1.49-4.6-1.39-9.33-1.16-13.42.95-.72.37-1.42.8-2.1,1.27-.78-6.75-2.73-12.92-4.42-17.3-1.35-3.48-2.65-6.09-3.47-7.69-2.04-3.96-4.74-5.23-6.49-5-1.8.24-3.37,1.21-4.22,4.35l-6.13,21.39c-2.96-1.64-5.3-4.22-6.97-6.06-.63-.7-1.18-1.3-1.69-1.78-.48-.45-2.35-1.95-4.22-1.48-1.26.32-2.15,1.31-2.75,2.53-.87,1.76-1.04,4.94-.85,7.61.16,2.2.6,5.19,1.75,8.33-4.96.87-11.53,2.99-18.29,5.93-3.6,1.57-6.84,3.19-9.38,4.7-4.33,2.58-5.45,4.15-5.97,5.36-2.44,5.66-3.42,11.78-2.75,17.23.36,2.93,1.18,5.61,2.43,7.98,1.36,2.58,3.22,4.73,5.5,6.38,1.68,1.21,6.38,4.38,13.78,7.53,5.66,2.41,12.38,3.94,18.06,5.03-3.16,7.26-7.71,10.64-14.11,15.06-1.9,1.31-2.6,3.2-1.48,5.07.41.67.98,1.18,1.64,1.51,1.16.57,2.45.47,3.64-.25,15.75-9.47,18.25-23.12,18.35-23.7.17-1.06-.1-2.14-.74-2.99s-1.6-1.41-2.66-1.55c-5.59-.7-10.86-2.12-15.52-3.81.07-.26.16-.57.24-.85,1.44-5.18,4.93-19.64.53-31.22-.75-1.98-2.84-2.97-4.83-2.26-1.99.71-2.27,2.36-1.69,4.45,1.21,4.35,1.86,10.04,1.24,15.81-.53,4.91-1.41,8.63-2.11,11.13-.02.06-.03.12-.05.18-4.24-1.98-7.58-4.01-9.66-5.51-3.29-2.38-4.39-6.17-4.73-8.93-.49-3.98.24-8.53,2.04-12.85,1.04-1.04,5.47-3.75,12.36-6.67,7.08-3,13.71-4.97,17.73-5.27.23-.02.45-.05.66-.11,1.89,2.2,4.17,3.96,6.8,5.26,2.47,1.21,5.25,2.01,8.3,2.37,5.04.6,9.44-.43,13.46-3.14,3.3-2.23,5.69-5.16,7.8-7.74,1.33-1.63,2.81-2.87,4.38-3.69,1.59-.82,3.45-1.16,5.19-1.07.63.03.86.1.93.72.14,1.28.15,3.43-.52,5.61-.82,2.66-2.39,4.67-4.79,5.77-.99.45-2.06.7-3.03.82-1.84.23-3.2,1.82-3.16,3.67h0c.04,2.1,1.86,3.72,3.95,3.53.55-.05,1.13-.12,1.71-.21.23,3.83-.69,7.96-3.55,10.65-2.82,2.66-6.47,4.29-8.97,5.28-3.82,1.52-5.03,3.94-5.37,5.69-.31,1.62,0,3.09.54,4.3-1.74,1.26-2.97,3.03-3.53,5.07-.64,2.36-.35,4.94.83,7.28-.7.47-1.39,1.01-2.03,1.62-1.58,1.5-2.79,3.31-3.52,5.23-.86,2.28-1,4.66-.42,6.9.73,2.82,2.86,6.38,8.49,9.15.56.27,1.15.54,1.78.8-.6,1.35-1.17,2.95-1.58,4.71-.74,3.25-.73,6.39.03,9.32.96,3.69,3.08,6.96,6.3,9.72,1.67,1.44,3.36,2.52,5.02,3.33,4.4,2.16,8.58,2.38,11.64,2.06,6.12-.63,11.03-3.67,13-6.23.9-1.16,1.07-2.73.45-4.07-3.22-6.93-3.14-10.09-2.52-11.52.67-1.53,2.54-2.52,5.54-4.01,3.1-1.54,6.96-3.46,9.75-7.16,2.85-3.79,4.29-7.85,4.25-12.08-.03-4.34-1.62-8.72-4.73-13.05Zm-56.69-44.33c-4.73-.47-8.69-3.11-11.15-6.79-1.58-2.36-2.43-5.1-2.85-7.56,3.74,3.39,9.67,7.42,15.96,6.37,2.61-.43,4.33-2.75,3.55-5.07-.51-1.53-1.97-2.53-3.57-2.55l4.57-15.97c.97,2.02,5.62,11.94,6.72,25-3.33,3.89-7.02,7.18-13.23,6.57Zm50.87,64.72c-1.67,2.21-4.24,3.49-6.96,4.84-3.47,1.72-7.4,3.68-9.25,7.91-.99,2.26-1.25,4.84-.78,7.86.33,2.18,1.04,4.6,2.16,7.35-1.34.79-3.38,1.66-5.9,1.92-3.91.4-7.51-.79-10.72-3.54-3.52-3.02-4.77-6.65-3.81-11.1.78-3.63,2.85-7.03,2.94-7.19.78-1.42.64-2.16.37-2.84-.44-1.13-1.98-1.79-3.17-2.21-7.41-2.61-8.22-4.65-8.68-6.22-.47-1.63.27-3.69,1.39-4.75.9-.86,2.1-1.32,2.89-1.54.47.27.96.53,1.49.79.83.41,1.73.8,2.71,1.16,3.57,1.32,7.39,1.91,11.36,1.78,4.84-.16,9.64-1.14,14.59-3.8,2.11-1.13,3.14-3.26,2.14-5.12-.98-1.83-3.1-1.72-5.03-.91-7.46,3.13-14.03,3.09-20.07.99-2.39-.83-4.2-1.95-5.37-2.83-1.24-1.15-1.3-2.22-1.15-2.89.28-1.28,1.34-2.19,3.01-2.04,5.17,1.27,15.21,2.74,24.38-1.72,5.47-2.66,9.88-6.69,12.82-11.39.04.18.07.37.1.56,1.05,6.69-2.65,12.07-3.34,13.4-.77,1.48-.95,2.42.19,3.77,3.02,3.59,4.34,7.28,4.37,10.47.02,2.46-.88,4.9-2.67,7.27Z"></path><path class="cls-4" d="m631.48,529.75c1.97-5.66,1.47-5.45,1.79-8.05.54-4.27,1.17-8.36-.82-12.43-.7-1.44-1.67-2.71-3.2-3.54-.86-.46-1.89-.76-2.81-.41-.64.24-1.14.77-1.5,1.35-2.23,3.54.75,6.04,1.42,9.35.2.99-.05,2.16,0,3.18.09,1.49.45,2.2.35,3.64-.09,1.4-.46,4.01-.75,5.43-.33,1.53.66,3.71,2.23,3.81.75.05,2.51-.13,3.27-2.32Z"></path><path class="cls-4" d="m172.99,626.23c-.39-.11-.77-.25-1.14-.4-5.74-2.4-4.36-7.16-3.54-10.01.36-1.25.73-2.54.82-3.88.13-1.88.95-3.51,2.39-4.72,3.43-2.9,9.31-2.46,10.46-2.35l1.11.11.77.81c.68.72,6.55,7.16,4.83,13.01-.79,2.7-2.99,5.07-6.03,6.52-3.12,1.49-6.65,1.8-9.67.92Zm.52-6.28c.08.06.27.19.65.35,1.67.7,3.95.55,5.93-.39,1.49-.71,2.56-1.76,2.87-2.81.46-1.57-1.15-4.41-2.69-6.34-1.75-.01-3.97.26-4.87,1.02-.19.17-.26.29-.28.55-.13,1.98-.64,3.73-1.05,5.13-.24.81-.58,2.02-.55,2.48Z"></path><path class="cls-4" d="m151.52,635.4c-.76-.22-1.48-.49-2.15-.81-3.89-1.82-6.15-5.01-6.2-8.73-.07-5.97,6.64-10.08,19.96-12.23,4.35-.7,8.62.96,11.14,4.34h0c3.2,4.29,2.28,9.16-2.47,13.02-6.38,5.19-14.56,6.09-20.29,4.4Zm15.23-15.69c-.84-.25-1.75-.31-2.67-.16-10.99,1.77-14.95,4.71-14.93,6.25.02,1.74,1.51,2.8,2.75,3.39,3.89,1.82,10.86,1.45,16.12-2.82,3.13-2.54,2.11-3.9,1.44-4.8-.66-.89-1.63-1.52-2.73-1.85Z"></path><path class="cls-4" d="m165.74,616.7c-1.56-.46-3.14-1.36-4.69-2.7-7.03-6.11-9.05-15.44-7.41-21.48,1.13-4.15,3.87-6.92,7.53-7.61,8.77-1.64,18.45,16.84,19.86,20.93,1.54,4.45-2.67,6.3-4.47,7.09-.87.38-1.85.81-2.27,1.26h0c-2.45,2.59-5.46,3.43-8.56,2.51Zm-2.87-25.86c-.22-.06-.42-.08-.59-.05-1.71.32-2.5,1.97-2.86,3.3-1.13,4.14.44,10.95,5.56,15.4,3.04,2.64,4.2,1.41,4.97.6,1.25-1.33,2.89-2.05,4.21-2.63.28-.12.64-.28.94-.43-2.49-6.36-9.32-15.33-12.23-16.18Z"></path><path class="cls-4" d="m185.69,616.99c-2.25-.66-3.48-3.14-4.1-4.4-.42-.85-.9-1.81-1.36-2.21-4.06-3.5-4.21-8.45-.41-13.24,5.79-7.3,15.01-9.73,21.13-8.37,4.19.94,7.09,3.56,7.94,7.18,2.04,8.69-16,19.19-20.02,20.78-1.24.49-2.29.51-3.19.25Zm14.47-22.25c-.17-.05-.35-.1-.52-.13-4.19-.94-10.92.93-15.13,6.25-2.5,3.16-1.22,4.26-.37,4.99h0c1.38,1.19,2.18,2.8,2.81,4.09.14.27.31.62.47.92,6.71-2.98,16.21-11.12,15.64-13.54-.35-1.48-1.68-2.21-2.91-2.58Z"></path><path class="cls-4" d="m176.58,652.69c-.12-.03-.23-.07-.35-.11-3.55-1.2-5.9-5.6-6.98-13.09-.73-5.07-.78-11.19-.12-14.87.83-4.63,5.41-4.19,7.37-4,.94.09,2.01.19,2.6.01,5.11-1.6,9.4.88,11.47,6.64,3.15,8.77.35,17.89-4.04,22.36-2.91,2.97-6.52,4.07-9.94,3.07Zm-1.69-26.21c-1.09,7.72,1.08,19.7,3.25,20.43,1.66.56,3.14-.5,4.11-1.48,3.01-3.06,4.97-9.77,2.68-16.15-1.36-3.79-2.98-3.29-4.05-2.95h0c-1.74.55-3.53.37-4.96.23-.31-.03-.69-.07-1.03-.09Z"></path><path class="cls-4" d="m199.44,636.86c-5.28-1.55-10.54-6.01-14.06-8.99-1.13-.96-2.11-1.79-2.86-2.34-.48-.36-1.94-1.44-2.11-3.29-.16-1.78.93-2.96,1.58-3.65.53-.57.76-.84.82-1.24h0c.83-5.29,4.96-8.04,11.03-7.34,9.33,1.07,15.71,7.23,17.9,12.87,1.61,4.14,1.09,8.16-1.41,11.04-3.18,3.67-7.04,4.08-10.89,2.95Zm-12.19-15.23c.61.5,1.27,1.06,2,1.67,6.52,5.52,13.18,10.59,16.56,6.69,1.37-1.58.81-3.78.35-4.95-1.49-3.83-6.19-8.3-13.01-9.09-4-.46-4.26,1.21-4.44,2.32h0c-.23,1.48-.85,2.57-1.47,3.37Z"></path><path class="cls-4" d="m175.42,626.25c-5.42-1.59-8.53-7.3-6.93-12.72s7.3-8.53,12.72-6.93c5.42,1.59,8.53,7.3,6.93,12.72-1.59,5.42-7.3,8.53-12.72,6.93Zm4.09-13.91c-2.25-.66-4.62.63-5.29,2.88s.63,4.62,2.88,5.29c2.25.66,4.62-.63,5.29-2.88.66-2.25-.63-4.62-2.88-5.29Z"></path><path class="cls-1" d="m669.39,14.33s-32.35,112.73-18.81,166.45c13.54,53.72,68.75,103.78,75.41,163.31,6.66,59.53-55.32,141.1-53.85,224.44s65.5,123.02,63.53,206"></path><path class="cls-2" d="m628.98,8.6c116.49,79.35-33.67,190.51,18.29,281.08,68.39,119.21,94.55,140.13,21.21,304.76-46.45,104.26,104.43,171.81,104.43,171.81"></path></svg> 