<?xml version="1.0" encoding="UTF-8"?> <svg xmlns="http://www.w3.org/2000/svg" xmlns:xlink="http://www.w3.org/1999/xlink" viewBox="0 0 1920 5120.69"><defs><style>.cls-1,.cls-2,.cls-3,.cls-4{fill:none;}.cls-5{clip-path:url(#clippath);}.cls-6{fill:#fff;}.cls-7{fill:#937fbb;}.cls-8{fill:#171c32;}.cls-9{fill:#947fbb;}.cls-10{clip-path:url(#clippath-1);}.cls-11{clip-path:url(#clippath-4);}.cls-12{clip-path:url(#clippath-3);}.cls-13{clip-path:url(#clippath-2);}.cls-14{clip-path:url(#clippath-7);}.cls-15{clip-path:url(#clippath-8);}.cls-16{clip-path:url(#clippath-6);}.cls-17{clip-path:url(#clippath-5);}.cls-2{stroke-dasharray:0 0 1.74 17.45;stroke-width:7px;}.cls-2,.cls-3,.cls-4{stroke-miterlimit:10;}.cls-2,.cls-4{stroke:#a797c9;stroke-linecap:round;}.cls-3{stroke:#57678b;stroke-width:3.5px;}.cls-4{stroke-dasharray:0 0 2 19.99;stroke-width:8.02px;}</style><clipPath id="clippath"><circle class="cls-1" cx="880.81" cy="4684.99" r="165.77"></circle></clipPath><clipPath id="clippath-1"><circle class="cls-1" cx="883.09" cy="4077.04" r="172.8"></circle></clipPath><clipPath id="clippath-2"><circle class="cls-1" cx="1684.34" cy="4393.98" r="38.96"></circle></clipPath><clipPath id="clippath-3"><circle class="cls-1" cx="1811.08" cy="4385.88" r="38.96"></circle></clipPath><clipPath id="clippath-4"><circle class="cls-1" cx="1134.33" cy="4119.01" r="71.15"></circle></clipPath><clipPath id="clippath-5"><rect class="cls-1" x="1132.2" y="782.97" width="163" height="163" rx="81.5" ry="81.5"></rect></clipPath><clipPath id="clippath-6"><rect class="cls-1" x="952.31" y="1722.99" width="191.39" height="191.39" rx="95.7" ry="95.7"></rect></clipPath><clipPath id="clippath-7"><circle class="cls-1" cx="929.59" cy="3397.73" r="125.95"></circle></clipPath><clipPath id="clippath-8"><circle class="cls-1" cx="742.16" cy="1822.23" r="66.64"></circle></clipPath></defs><g id="Background"><rect class="cls-8" y="0" width="1920" height="5120.69"></rect></g><g id="guides"><line class="cls-3" x1="-.73" y1="202.53" x2="1918.72" y2="202.53"></line><line class="cls-3" x1="-.73" y1="561.55" x2="1918.72" y2="561.55"></line><line class="cls-3" x1="1918.72" y1="746.43" x2="-.73" y2="746.43"></line><line class="cls-3" x1=".27" y1="1094.94" x2="1919.73" y2="1094.94"></line><line class="cls-3" x1="-.73" y1="1444.94" x2="1918.72" y2="1444.94"></line><line class="cls-3" x1="-.73" y1="1803.95" x2="1918.72" y2="1803.95"></line><line class="cls-3" x1="1918.72" y1="1988.83" x2="-.73" y2="1988.83"></line><line class="cls-3" x1="-.73" y1="2339.36" x2="1918.72" y2="2339.36"></line><line class="cls-3" x1="-.73" y1="2694.73" x2="1918.72" y2="2694.73"></line><line class="cls-3" x1="-.73" y1="3053.75" x2="1918.72" y2="3053.75"></line><line class="cls-3" x1="1918.72" y1="3238.62" x2="-.73" y2="3238.62"></line><line class="cls-3" x1="-.73" y1="3575.93" x2="1918.72" y2="3575.93"></line><line class="cls-3" x1="-.73" y1="3936.35" x2="1918.72" y2="3936.35"></line><line class="cls-3" x1="-.73" y1="4295.36" x2="1918.72" y2="4295.36"></line><line class="cls-3" x1="1918.72" y1="4480.24" x2="-.73" y2="4480.24"></line><line class="cls-3" x1="-.73" y1="4825.25" x2="1918.72" y2="4825.25"></line></g><g id="info"><circle class="cls-9" cx="1134.33" cy="4119.01" r="71.15"></circle><circle class="cls-9" cx="1811.08" cy="4385.88" r="38.96"></circle><circle class="cls-9" cx="1684.34" cy="4393.98" r="38.96"></circle><circle class="cls-9" cx="883.09" cy="4077.04" r="172.8"></circle><circle class="cls-9" cx="880.81" cy="4684.99" r="165.77"></circle><circle class="cls-7" cx="929.59" cy="3397.73" r="125.95"></circle><rect class="cls-7" x="1537.99" y="2692.37" width="74.39" height="886.19"></rect><rect class="cls-7" x="952.31" y="1722.99" width="191.39" height="191.39" rx="95.7" ry="95.7"></rect><line class="cls-2" x1="920.01" y1="3542.92" x2="920.01" y2="3661.84"></line><line class="cls-2" x1="328.58" y1="768.2" x2="328.58" y2="1170.15"></line><line class="cls-2" x1="1120.74" y1="1900.06" x2="1280.74" y2="2405.23"></line><line class="cls-2" x1="873.28" y1="4869.98" x2="873.28" y2="4961.06"></line><line class="cls-2" x1="1213.7" y1="965.97" x2="1213.7" y2="1170.15"></line><path class="cls-6" d="m820.47,4728.72v-122.46h40.34v122.46c0,51.86,11.89,63.75,33.14,63.75,33.86,0,52.22-36.74,52.22-81.76,0-32.06-9.72-69.52-29.54-99.77-10.09-15.85-22.69-31.33-39.62-47.54l-45.02-43.22,12.97-12.96c30.61,25.93,60.87,53.3,83.2,83.56,26.65,35.66,40.7,83.92,40.7,127.14,0,57.99-25.21,107.33-80.32,107.33-23.77,0-68.07-21.25-68.07-96.53Zm-693.35-287.78c0-42.5,81.04-92.93,258.6-116.7,54.03-7.21,119.58-12.61,163.16-14.77,8.28-.36,11.53,3.24,11.53,8.28,0,5.76-4.32,9.72-9.36,10.08-57.99,3.96-103.37,6.84-163.88,15.13-175.05,24.49-241.32,72.03-241.32,96.53,0,11.88,15.85,21.25,50.78,21.25,94.36,0,202.78-67.71,202.78-238.79s-117.06-266.89-216.82-266.89H51.13c-5.04,0-9.36-4.32-9.36-9.36s4.32-9.36,9.36-9.36h131.46c186.93,0,263.28,111.65,263.28,268.33,0,222.59-154.51,274.81-245.28,274.81-48.26,0-73.47-14.77-73.47-38.54Zm-35.3-490.91h41.06v525.13h-41.06v-525.13Zm391.51,453.81c0-61.59,50.78-106.61,131.82-106.61,14.41,0,23.77,1.44,30.98,3.24l-24.13,14.41c-4.68-.36-9.36-.72-14.05-.72-63.03,0-91.12,47.91-91.12,87.52,0,27.01,13.32,52.22,46.46,52.22,18.37,0,33.5-7.56,46.82-22.33l3.96,29.17c-24.85,12.61-43.58,18.01-61.23,18.01-46.1,0-69.51-33.14-69.51-74.92Zm123.18,39.98v-143.35h39.62l.72,126.42c0,10.81,0,19.81,12.25,19.81,32.05,0,134.36-103.01,153.81-135.78,2.52-4.32,5.76-11.16,8.29-14.41,2.16-2.52,5.4-4.68,10.44-2.52l2.88,27.74c-3.6-1.8-7.92-2.16-10.44,1.8-27.73,41.78-113.83,120.3-153.81,144.07-16.21,9.73-27.37,9.73-29.53,9.73-24.49,0-34.22-16.93-34.22-33.5Zm160.29,18.37c47.18-32.77,140.11-113.45,222.59-197.73,53.3-54.39,88.96-95.09,119.94-144.79l15.13,10.08c-27.37,46.1-77.08,100.85-130.74,155.95-76.36,78.52-159.56,150.92-198.09,178.29-2.52,1.8-1.8,3.6,0,5.04l49.34,38.18-12.97,12.96-65.55-52.59c-1.8-1.44-1.8-3.96.36-5.4Zm65.19-204.94l5.4-7.2c35.66-47.54,92.57-170.36,92.57-249.6,0-29.18-16.21-45.02-32.77-45.02-21.61,0-36.38,25.93-36.38,90.4v9.36h-40.34v-9.36c0-75.27,44.3-109.13,76.72-109.13,27.01,0,51.5,23.77,51.5,63.75,0,83.92-58.71,211.42-96.17,260.4l-5.76,7.57-14.76-11.17Zm-11.53-216.1h40.34v570.51h-40.34v-570.51Zm239.87,230.87l141.91-11.89c1.08,0,1.8.72,1.8,1.8v19.45c0,1.08-.72,1.8-1.8,1.8l-141.91,11.89c-1.08,0-1.8-.72-1.8-1.8v-19.45c0-1.08.72-1.8,1.8-1.8Zm51.15-122.46l-2.16-29.89c11.16-19.45,16.21-20.89,22.69-20.89,14.77,0,18.01,9.01,18.01,15.49l1.08,71.31-39.62,3.24v-39.26Zm0,294.26v-260.76h39.62l.72,243.83c0,10.81,0,19.81,12.25,19.81,34.94,0,123.18-96.88,137.23-112.37l5.4,9.36c-25.21,37.82-117.78,133.63-161,133.63-24.49,0-34.22-16.93-34.22-33.5Zm161.72-39.98c0-61.59,50.78-106.61,131.82-106.61,14.4,0,23.77,1.44,30.98,3.24l-24.13,14.41c-4.68-.36-9.36-.72-14.05-.72-63.03,0-91.12,47.91-91.12,87.52,0,27.01,13.32,52.22,46.46,52.22,18.37,0,33.5-7.56,46.82-22.33l3.96,29.17c-24.85,12.61-43.58,18.01-61.23,18.01-46.1,0-69.51-33.14-69.51-74.92Zm123.18,39.98v-143.35h39.62l.72,126.42c0,10.81,0,19.81,12.25,19.81,32.06,0,85.73-103.01,105.18-135.78,2.52-4.32,5.76-11.16,8.28-14.41,1.44-1.8,5.4-5.04,10.45-2.52,23.41,11.89,36.74,15.49,45.74,15.49,19.09,0,47.18-15.13,64.83-15.13,10.09,0,20.89,4.68,20.89,19.09v46.46l-39.98,3.96-.72-26.65c.36-6.84-2.16-8.28-7.92-7.2-6.13,1.08-16.93,6.84-33.5,6.84-23.77,0-33.86-9.01-46.46-15.13-3.6-1.8-7.92-2.16-10.45,1.8-27.73,41.78-65.19,120.3-105.18,144.07-16.2,9.73-27.37,9.73-29.53,9.73-24.49,0-34.22-16.93-34.22-33.5Zm267.61,0v-96.53h40.34v79.59c0,10.81,0,23.77,12.96,23.77,22.33,0,61.23-42.14,90.4-78.16,22.69-27.73,51.15-64.11,57.27-70.23,5.4-5.4,17.29,6.48,11.89,14.05-9.36,12.96-38.9,49.71-60.15,75.64-34.22,41.78-76,85.36-119.94,85.36-23.05,0-32.77-16.93-32.77-33.5Z"></path><path class="cls-6" d="m87.94,1188.46h18.86v2.6h-15.92v12.94h12.31v2.6h-12.31v14.62h-2.94v-32.77Z"></path><path class="cls-6" d="m108.47,1213.83v-13.61h2.94v13.27c0,4.33,2.14,5.71,5.42,5.71,3.74,0,6.55-2.69,6.55-5.63v-13.36h2.94v21h-2.6l-.25-3.36h-.08c-.97,2.02-3.23,3.91-7.23,3.91-4.66,0-7.69-2.52-7.69-7.94Z"></path><path class="cls-6" d="m133.67,1188.46h2.94v32.77h-2.94v-32.77Z"></path><path class="cls-6" d="m143.96,1188.46h2.94v32.77h-2.94v-32.77Z"></path><path class="cls-6" d="m154.25,1200.22l6.89,17.98h.08l7.14-17.98h3.07v.04l-8.86,20.84-3.11,8.53h-2.98v-.04l3.19-8.36-8.78-20.96v-.04h3.36Z"></path><path class="cls-6" d="m183.61,1210.89c0-6.38,3.23-11.22,10-11.22s8.95,3.91,8.95,8.95v.42h-3.11v-.63c0-3.82-1.64-6.09-5.84-6.09-4.75,0-7.01,3.11-7.01,8.4,0,5.63,2.39,8.49,6.93,8.49,3.82,0,5.84-1.85,5.92-5.67h3.02c-.08,4.66-3.15,8.23-9.03,8.23-7.22,0-9.83-4.75-9.83-10.88Z"></path><path class="cls-6" d="m206.75,1210.72c0-6.22,3.32-11.05,10.38-11.05,6.59,0,10.25,4.83,10.25,11.05s-3.7,11.05-10.29,11.05c-7.27,0-10.33-4.83-10.33-11.05Zm17.56,0c0-5.33-2.9-8.49-7.22-8.49-4.75,0-7.27,3.15-7.27,8.49s2.56,8.49,7.27,8.49c4.33,0,7.22-3.15,7.22-8.49Z"></path><path class="cls-6" d="m233.25,1200.22h2.6l.29,3.49c1.01-2.14,3.28-4.03,7.35-4.03,4.75,0,7.77,2.52,7.77,7.94v13.61h-2.94v-13.27c0-4.33-2.14-5.71-5.5-5.71-3.82,0-6.64,2.69-6.64,5.63v13.36h-2.94v-21Z"></path><path class="cls-6" d="m258.62,1200.22h2.6l.29,3.49c1.01-2.14,3.28-4.03,7.35-4.03,4.75,0,7.77,2.52,7.77,7.94v13.61h-2.94v-13.27c0-4.33-2.14-5.71-5.5-5.71-3.82,0-6.64,2.69-6.64,5.63v13.36h-2.94v-21Z"></path><path class="cls-6" d="m301.25,1211.73h-15.96c.17,4.79,2.48,7.48,6.93,7.48,3.82,0,5.67-1.43,5.97-4.83h2.98c-.29,4.24-3.28,7.39-9.03,7.39-7.06,0-9.83-4.66-9.83-10.88s3.23-11.22,10-11.22,8.95,3.99,8.95,10.21v1.85Zm-3.11-2.98c0-4.45-1.72-6.55-5.92-6.55s-6.55,2.65-6.89,6.97h12.81v-.42Z"></path><path class="cls-6" d="m305.45,1210.89c0-6.38,3.23-11.22,10-11.22s8.95,3.91,8.95,8.95v.42h-3.11v-.63c0-3.82-1.64-6.09-5.84-6.09-4.75,0-7.02,3.11-7.02,8.4,0,5.63,2.39,8.49,6.93,8.49,3.82,0,5.84-1.85,5.92-5.67h3.02c-.08,4.66-3.15,8.23-9.03,8.23-7.22,0-9.83-4.75-9.83-10.88Z"></path><path class="cls-6" d="m341.24,1218.54v2.6c-.76.21-2.14.59-4.03.59-3.82,0-6.34-1.6-6.34-6.89v-12.18h-4.16v-2.44h4.16v-6.05l2.94-1.43v7.48h5.92v2.44h-5.92v11.8c0,2.81.76,4.58,3.4,4.58,1.6,0,3.23-.29,4.03-.5Z"></path><path class="cls-6" d="m362.7,1211.73h-15.96c.17,4.79,2.48,7.48,6.93,7.48,3.82,0,5.67-1.43,5.97-4.83h2.98c-.29,4.24-3.28,7.39-9.03,7.39-7.06,0-9.83-4.66-9.83-10.88s3.23-11.22,10-11.22,8.95,3.99,8.95,10.21v1.85Zm-3.11-2.98c0-4.45-1.72-6.55-5.92-6.55s-6.55,2.65-6.89,6.97h12.81v-.42Z"></path><path class="cls-6" d="m366.9,1210.76c0-7.1,4.28-11.09,10.04-11.09,3.7,0,6.22,1.6,7.31,3.74h.04v-14.95h2.94v32.77h-1.97l-.67-3.61h-.08c-1.18,2.31-3.95,4.16-7.77,4.16-6.3,0-9.83-3.99-9.83-11.01Zm17.64-.5c0-5.5-3.36-8.07-7.35-8.07-3.11,0-7.14,1.47-7.14,8.4s3.61,8.61,7.14,8.61c4.24,0,7.35-2.73,7.35-8.95Z"></path><path class="cls-6" d="m403.81,1213.83v-13.61h2.94v13.27c0,4.33,2.14,5.71,5.42,5.71,3.74,0,6.55-2.69,6.55-5.63v-13.36h2.94v21h-2.6l-.25-3.36h-.08c-.97,2.02-3.23,3.91-7.23,3.91-4.66,0-7.69-2.52-7.69-7.94Z"></path><path class="cls-6" d="m429.01,1200.22h2.39l.34,3.86h.08c1.13-2.48,4.03-4.41,7.86-4.41,6.3,0,9.66,3.99,9.66,11.01s-4.29,11.09-9.87,11.09c-3.78,0-6.38-1.6-7.43-3.7h-.08v11.55h-2.94v-29.41Zm17.18,10.63c0-7.18-3.4-8.61-6.93-8.61-4.24,0-7.56,2.73-7.56,8.44,0,6.01,3.45,8.57,7.44,8.57,3.02,0,7.06-1.47,7.06-8.4Z"></path><path class="cls-6" d="m455.22,1200.22h2.39l.34,3.86h.08c1.13-2.48,4.03-4.41,7.86-4.41,6.3,0,9.66,3.99,9.66,11.01s-4.29,11.09-9.87,11.09c-3.78,0-6.38-1.6-7.43-3.7h-.08v11.55h-2.94v-29.41Zm17.18,10.63c0-7.18-3.4-8.61-6.93-8.61-4.24,0-7.56,2.73-7.56,8.44,0,6.01,3.45,8.57,7.44,8.57,3.02,0,7.06-1.47,7.06-8.4Z"></path><path class="cls-6" d="m498.7,1211.73h-15.96c.17,4.79,2.48,7.48,6.93,7.48,3.82,0,5.67-1.43,5.97-4.83h2.98c-.29,4.24-3.28,7.39-9.03,7.39-7.06,0-9.83-4.66-9.83-10.88s3.23-11.22,10-11.22,8.95,3.99,8.95,10.21v1.85Zm-3.11-2.98c0-4.45-1.72-6.55-5.92-6.55s-6.55,2.65-6.89,6.97h12.81v-.42Z"></path><path class="cls-6" d="m504.57,1200.22h2.6l.29,3.91c1.01-2.14,3.07-4.45,6.76-4.45,1.26,0,2.18.21,3.02.55v3.15c-1.13-.5-2.1-.76-3.4-.76-3.74,0-6.34,2.81-6.34,5.75v12.85h-2.94v-21Z"></path><path class="cls-6" d="m519.57,1210.89c0-6.38,3.23-11.22,10-11.22s8.95,3.91,8.95,8.95v.42h-3.11v-.63c0-3.82-1.64-6.09-5.84-6.09-4.75,0-7.01,3.11-7.01,8.4,0,5.63,2.39,8.49,6.93,8.49,3.82,0,5.84-1.85,5.92-5.67h3.02c-.08,4.66-3.15,8.23-9.03,8.23-7.22,0-9.83-4.75-9.83-10.88Z"></path><path class="cls-6" d="m542.92,1215.43c0-3.95,2.23-6.09,7.86-6.09h6.34v-1.72c0-2.98-1.26-5.42-5.46-5.42-3.95,0-5.33,1.51-5.33,4.12v.88h-2.98v-.84c0-5,4.2-6.68,8.32-6.68,5.8,0,8.4,2.86,8.4,8.44v13.11h-2.06l-.55-2.98h-.08c-1.26,1.89-3.7,3.53-7.35,3.53-4.92,0-7.1-2.31-7.1-6.34Zm14.2-1.85v-1.76h-7.01c-2.65,0-4.03.92-4.03,3.61,0,2.35,1.26,3.86,4.5,3.86,4.16,0,6.55-2.14,6.55-5.71Z"></path><path class="cls-6" d="m565.51,1214.8v-1.18h2.94v1.13c0,2.86,2.14,4.5,5.96,4.5s5.8-1.01,5.8-3.78c0-2.06-1.01-2.81-3.86-3.32l-4.62-.84c-3.02-.55-5.54-2.02-5.54-5.5,0-3.15,2.35-6.13,8.4-6.13s8.4,3.02,8.4,7.23v.88h-2.98v-.76c0-3.44-2.14-4.91-5.42-4.91-3.95,0-5.33,1.34-5.33,3.36s1.01,2.86,3.91,3.4l4.03.76c4.12.76,6.09,1.93,6.09,5.59,0,4.58-4.12,6.55-8.78,6.55-7.31,0-8.99-3.28-8.99-6.97Z"></path><path class="cls-6" d="m606.42,1211.73h-15.96c.17,4.79,2.48,7.48,6.93,7.48,3.82,0,5.67-1.43,5.97-4.83h2.98c-.29,4.24-3.28,7.39-9.03,7.39-7.06,0-9.83-4.66-9.83-10.88s3.23-11.22,10-11.22,8.95,3.99,8.95,10.21v1.85Zm-3.11-2.98c0-4.45-1.72-6.55-5.92-6.55s-6.55,2.65-6.89,6.97h12.81v-.42Z"></path><path class="cls-6" d="m621.96,1188.46h2.94v32.77h-2.94v-32.77Z"></path><path class="cls-6" d="m649.52,1211.73h-15.96c.17,4.79,2.48,7.48,6.93,7.48,3.82,0,5.67-1.43,5.97-4.83h2.98c-.29,4.24-3.28,7.39-9.03,7.39-7.06,0-9.83-4.66-9.83-10.88s3.23-11.22,10-11.22,8.95,3.99,8.95,10.21v1.85Zm-3.11-2.98c0-4.45-1.72-6.55-5.92-6.55s-6.55,2.65-6.89,6.97h12.81v-.42Z"></path><path class="cls-6" d="m655.98,1214.84v-12.18h-4.16v-2.44h4.16v-6.05l2.94-1.43v7.48h11.85v-6.05l2.94-1.43v7.48h5.92v2.44h-5.92v11.8c0,2.81.76,4.58,3.4,4.58,1.6,0,3.24-.29,4.03-.5v2.6c-.76.21-2.14.59-4.03.59-3.82,0-6.34-1.6-6.34-6.89v-12.18h-11.85v11.8c0,2.81.76,4.58,3.4,4.58,1.6,0,3.23-.29,4.03-.5v2.6c-.76.21-2.14.59-4.03.59-3.82,0-6.34-1.6-6.34-6.89Z"></path><path class="cls-6" d="m702.6,1211.73h-15.96c.17,4.79,2.48,7.48,6.93,7.48,3.82,0,5.67-1.43,5.97-4.83h2.98c-.29,4.24-3.28,7.39-9.03,7.39-7.06,0-9.83-4.66-9.83-10.88s3.23-11.22,10-11.22,8.95,3.99,8.95,10.21v1.85Zm-3.11-2.98c0-4.45-1.72-6.55-5.92-6.55s-6.55,2.65-6.89,6.97h12.81v-.42Z"></path><path class="cls-6" d="m708.48,1200.22h2.6l.29,3.91c1.01-2.14,3.07-4.45,6.76-4.45,1.26,0,2.18.21,3.02.55v3.15c-1.13-.5-2.1-.76-3.4-.76-3.74,0-6.34,2.81-6.34,5.75v12.85h-2.94v-21Z"></path><path class="cls-6" d="m723.68,1214.8v-1.18h2.94v1.13c0,2.86,2.14,4.5,5.96,4.5s5.8-1.01,5.8-3.78c0-2.06-1.01-2.81-3.86-3.32l-4.62-.84c-3.02-.55-5.54-2.02-5.54-5.5,0-3.15,2.35-6.13,8.4-6.13s8.4,3.02,8.4,7.23v.88h-2.98v-.76c0-3.44-2.14-4.91-5.42-4.91-3.95,0-5.33,1.34-5.33,3.36s1.01,2.86,3.91,3.4l4.03.76c4.12.76,6.09,1.93,6.09,5.59,0,4.58-4.12,6.55-8.78,6.55-7.31,0-8.99-3.28-8.99-6.97Z"></path><path class="cls-6" d="m394.63,3681.14h8.36c11.05,0,17.39,4.54,17.39,16.42s-6.26,16.34-17.18,16.34h-8.57v-32.77Zm8.65,30.12c9.41,0,14.03-3.74,14.03-13.78s-4.49-13.74-14.07-13.74h-5.67v27.51h5.71Z"></path><path class="cls-6" d="m443.94,3704.41h-15.96c.17,4.79,2.48,7.48,6.93,7.48,3.82,0,5.67-1.43,5.97-4.83h2.98c-.29,4.24-3.28,7.39-9.03,7.39-7.06,0-9.83-4.66-9.83-10.88s3.23-11.22,10-11.22,8.95,3.99,8.95,10.21v1.85Zm-3.11-2.98c0-4.45-1.72-6.55-5.92-6.55s-6.55,2.65-6.89,6.97h12.81v-.42Z"></path><path class="cls-6" d="m448.14,3703.57c0-6.38,3.23-11.22,10-11.22s8.95,3.91,8.95,8.95v.42h-3.11v-.63c0-3.82-1.64-6.09-5.84-6.09-4.75,0-7.01,3.11-7.01,8.4,0,5.63,2.39,8.49,6.93,8.49,3.82,0,5.84-1.85,5.92-5.67h3.02c-.08,4.66-3.15,8.23-9.03,8.23-7.22,0-9.83-4.75-9.83-10.88Z"></path><path class="cls-6" d="m471.28,3703.41c0-6.22,3.32-11.05,10.38-11.05,6.59,0,10.25,4.83,10.25,11.05s-3.7,11.05-10.29,11.05c-7.27,0-10.33-4.83-10.33-11.05Zm17.56,0c0-5.33-2.9-8.49-7.22-8.49-4.75,0-7.27,3.15-7.27,8.49s2.56,8.49,7.27,8.49c4.33,0,7.22-3.15,7.22-8.49Z"></path><path class="cls-6" d="m497.78,3692.9h2.6l.29,3.91c1.01-2.14,3.07-4.45,6.76-4.45,1.26,0,2.18.21,3.02.55v3.15c-1.13-.5-2.1-.76-3.4-.76-3.74,0-6.34,2.81-6.34,5.75v12.85h-2.94v-21Z"></path><path class="cls-6" d="m513.41,3708.11c0-3.95,2.23-6.09,7.86-6.09h6.34v-1.72c0-2.98-1.26-5.42-5.46-5.42-3.95,0-5.33,1.51-5.33,4.12v.88h-2.98v-.84c0-5,4.2-6.68,8.32-6.68,5.8,0,8.4,2.86,8.4,8.44v13.11h-2.06l-.55-2.98h-.08c-1.26,1.89-3.7,3.53-7.35,3.53-4.92,0-7.1-2.31-7.1-6.34Zm14.2-1.85v-1.76h-7.01c-2.65,0-4.03.92-4.03,3.61,0,2.35,1.26,3.86,4.5,3.86,4.16,0,6.55-2.14,6.55-5.71Z"></path><path class="cls-6" d="m548.65,3711.22v2.6c-.76.21-2.14.59-4.03.59-3.82,0-6.34-1.6-6.34-6.89v-12.18h-4.16v-2.44h4.16v-6.05l2.94-1.43v7.48h5.92v2.44h-5.92v11.8c0,2.81.76,4.58,3.4,4.58,1.6,0,3.23-.29,4.03-.5Z"></path><path class="cls-6" d="m553.48,3681.14h2.98v6.51h-2.98v-6.51Zm0,11.76h2.94v21h-2.94v-21Z"></path><path class="cls-6" d="m560.66,3692.95v-.04h3.36l7.35,17.98h.08l7.1-17.98h3.07v.04l-8.74,20.96h-3.02l-9.2-20.96Z"></path><path class="cls-6" d="m602.45,3704.41h-15.96c.17,4.79,2.48,7.48,6.93,7.48,3.82,0,5.67-1.43,5.97-4.83h2.98c-.29,4.24-3.28,7.39-9.03,7.39-7.06,0-9.83-4.66-9.83-10.88s3.23-11.22,10-11.22,8.95,3.99,8.95,10.21v1.85Zm-3.11-2.98c0-4.45-1.72-6.55-5.92-6.55s-6.55,2.65-6.89,6.97h12.81v-.42Z"></path><path class="cls-6" d="m607.07,3707.69h3.36v6.22c0,3.95-.88,5.29-3.4,5.96l-.67-1.85c1.76-.67,2.06-1.09,2.06-3.78v-.34h-1.34v-6.22Z"></path><path class="cls-6" d="m624.5,3707.48v-1.18h2.94v1.13c0,2.86,2.14,4.5,5.96,4.5s5.8-1.01,5.8-3.78c0-2.06-1.01-2.81-3.86-3.32l-4.62-.84c-3.02-.55-5.54-2.02-5.54-5.5,0-3.15,2.35-6.13,8.4-6.13s8.4,3.02,8.4,7.22v.88h-2.98v-.76c0-3.44-2.14-4.91-5.42-4.91-3.95,0-5.33,1.34-5.33,3.36s1.01,2.86,3.91,3.4l4.03.76c4.12.76,6.09,1.93,6.09,5.59,0,4.58-4.12,6.55-8.78,6.55-7.31,0-8.99-3.28-8.99-6.97Z"></path><path class="cls-6" d="m648.14,3681.14h2.94v15.16c1.05-2.1,3.28-3.95,7.31-3.95,4.75,0,7.77,2.52,7.77,7.94v13.61h-2.94v-13.27c0-4.33-2.14-5.71-5.5-5.71-3.82,0-6.64,2.69-6.64,5.63v13.36h-2.94v-32.77Z"></path><path class="cls-6" d="m671.83,3703.41c0-6.22,3.32-11.05,10.38-11.05,6.59,0,10.25,4.83,10.25,11.05s-3.7,11.05-10.29,11.05c-7.27,0-10.33-4.83-10.33-11.05Zm17.56,0c0-5.33-2.9-8.49-7.22-8.49-4.75,0-7.27,3.15-7.27,8.49s2.56,8.49,7.27,8.49c4.33,0,7.22-3.15,7.22-8.49Z"></path><path class="cls-6" d="m698.33,3692.9h2.6l.29,3.91c1.01-2.14,3.07-4.45,6.76-4.45,1.26,0,2.18.21,3.02.55v3.15c-1.13-.5-2.1-.76-3.4-.76-3.74,0-6.34,2.81-6.34,5.75v12.85h-2.94v-21Z"></path><path class="cls-6" d="m726.6,3711.22v2.6c-.76.21-2.14.59-4.03.59-3.82,0-6.34-1.6-6.34-6.89v-12.18h-4.16v-2.44h4.16v-6.05l2.94-1.43v7.48h5.92v2.44h-5.92v11.8c0,2.81.76,4.58,3.4,4.58,1.6,0,3.23-.29,4.03-.5Z"></path><path class="cls-6" d="m739.41,3703.45c0-7.1,4.28-11.09,10.04-11.09,3.7,0,6.22,1.6,7.31,3.74h.04v-14.95h2.94v32.77h-1.97l-.67-3.61h-.08c-1.18,2.31-3.95,4.16-7.77,4.16-6.3,0-9.83-3.99-9.83-11.01Zm17.64-.5c0-5.5-3.36-8.07-7.35-8.07-3.11,0-7.14,1.47-7.14,8.4s3.61,8.61,7.14,8.61c4.24,0,7.35-2.73,7.35-8.95Z"></path><path class="cls-6" d="m784.35,3704.41h-15.96c.17,4.79,2.48,7.48,6.93,7.48,3.82,0,5.67-1.43,5.97-4.83h2.98c-.29,4.24-3.28,7.39-9.03,7.39-7.06,0-9.83-4.66-9.83-10.88s3.23-11.22,10-11.22,8.95,3.99,8.95,10.21v1.85Zm-3.11-2.98c0-4.45-1.72-6.55-5.92-6.55s-6.55,2.65-6.89,6.97h12.81v-.42Z"></path><path class="cls-6" d="m788.33,3707.48v-1.18h2.94v1.13c0,2.86,2.14,4.5,5.96,4.5s5.8-1.01,5.8-3.78c0-2.06-1.01-2.81-3.86-3.32l-4.62-.84c-3.02-.55-5.54-2.02-5.54-5.5,0-3.15,2.35-6.13,8.4-6.13s8.4,3.02,8.4,7.22v.88h-2.98v-.76c0-3.44-2.14-4.91-5.42-4.91-3.95,0-5.33,1.34-5.33,3.36s1.01,2.86,3.91,3.4l4.03.76c4.12.76,6.09,1.93,6.09,5.59,0,4.58-4.12,6.55-8.78,6.55-7.31,0-8.99-3.28-8.99-6.97Z"></path><path class="cls-6" d="m810.3,3703.57c0-6.38,3.23-11.22,10-11.22s8.95,3.91,8.95,8.95v.42h-3.11v-.63c0-3.82-1.64-6.09-5.84-6.09-4.75,0-7.01,3.11-7.01,8.4,0,5.63,2.39,8.49,6.93,8.49,3.82,0,5.84-1.85,5.92-5.67h3.02c-.08,4.66-3.15,8.23-9.03,8.23-7.22,0-9.83-4.75-9.83-10.88Z"></path><path class="cls-6" d="m852.39,3704.41h-15.96c.17,4.79,2.48,7.48,6.93,7.48,3.82,0,5.67-1.43,5.97-4.83h2.98c-.29,4.24-3.28,7.39-9.03,7.39-7.06,0-9.83-4.66-9.83-10.88s3.23-11.22,10-11.22,8.95,3.99,8.95,10.21v1.85Zm-3.11-2.98c0-4.45-1.72-6.55-5.92-6.55s-6.55,2.65-6.89,6.97h12.81v-.42Z"></path><path class="cls-6" d="m858.26,3692.9h2.6l.29,3.49c1.01-2.14,3.28-4.03,7.35-4.03,4.75,0,7.77,2.52,7.77,7.94v13.61h-2.94v-13.27c0-4.33-2.14-5.71-5.5-5.71-3.82,0-6.64,2.69-6.64,5.63v13.36h-2.94v-21Z"></path><path class="cls-6" d="m881.95,3703.45c0-7.1,4.28-11.09,10.04-11.09,3.7,0,6.22,1.6,7.31,3.74h.04v-14.95h2.94v32.77h-1.97l-.67-3.61h-.08c-1.18,2.31-3.95,4.16-7.77,4.16-6.3,0-9.83-3.99-9.83-11.01Zm17.64-.5c0-5.5-3.36-8.07-7.35-8.07-3.11,0-7.14,1.47-7.14,8.4s3.61,8.61,7.14,8.61c4.24,0,7.35-2.73,7.35-8.95Z"></path><path class="cls-6" d="m926.89,3704.41h-15.96c.17,4.79,2.48,7.48,6.93,7.48,3.82,0,5.67-1.43,5.97-4.83h2.98c-.29,4.24-3.28,7.39-9.03,7.39-7.06,0-9.83-4.66-9.83-10.88s3.23-11.22,10-11.22,8.95,3.99,8.95,10.21v1.85Zm-3.11-2.98c0-4.45-1.72-6.55-5.92-6.55s-6.55,2.65-6.89,6.97h12.81v-.42Z"></path><path class="cls-6" d="m932.77,3692.9h2.6l.29,3.91c1.01-2.14,3.07-4.45,6.76-4.45,1.26,0,2.18.21,3.02.55v3.15c-1.13-.5-2.1-.76-3.4-.76-3.74,0-6.34,2.81-6.34,5.75v12.85h-2.94v-21Z"></path><path class="cls-6" d="m959.73,3681.14h2.98v6.51h-2.98v-6.51Zm0,11.76h2.94v21h-2.94v-21Z"></path><path class="cls-6" d="m970.06,3692.9h2.6l.29,3.49c1.01-2.14,3.28-4.03,7.35-4.03,4.75,0,7.77,2.52,7.77,7.94v13.61h-2.94v-13.27c0-4.33-2.14-5.71-5.5-5.71-3.82,0-6.64,2.69-6.64,5.63v13.36h-2.94v-21Z"></path><path class="cls-6" d="m1006.77,3691.6h-3.36v-5.08c0-3.95.88-5.29,3.4-5.97l.67,1.85c-1.76.67-2.06,1.09-2.06,3.78v.34h1.34v5.08Zm5.92,0h-3.36v-5.08c0-3.95.88-5.29,3.4-5.97l.67,1.85c-1.76.67-2.06,1.09-2.06,3.78v.34h1.34v5.08Z"></path><path class="cls-6" d="m1033.02,3710.42h-.08c-1.09,2.14-3.65,4.03-7.48,4.03-6.3,0-9.75-3.99-9.75-11.01s4.37-11.09,9.96-11.09c3.78,0,6.6,1.76,7.65,4.28h.04l.29-3.74h2.31v29.41h-2.94v-11.89Zm.34-7.48c0-5.5-3.36-8.07-7.35-8.07-3.03,0-7.14,1.47-7.14,8.4s3.57,8.61,7.1,8.61c4.24,0,7.39-2.73,7.39-8.95Z"></path><path class="cls-6" d="m1040.58,3690.34c1.76-.67,2.06-1.09,2.06-3.78v-.34h-1.34v-5.08h3.36v5.08c0,3.95-.88,5.29-3.4,5.97l-.67-1.85Zm5.92,0c1.76-.67,2.06-1.09,2.06-3.78v-.34h-1.34v-5.08h3.36v5.08c0,3.95-.88,5.29-3.4,5.97l-.67-1.85Z"></path><path class="cls-6" d="m1495.78,2641.4v-19.95h2.94v19.95c0,9.41,4.07,10.63,8.86,10.63s8.78-1.01,8.78-10.63v-19.95h2.94v19.62c0,11.64-5.33,13.69-11.76,13.69s-11.76-2.06-11.76-13.36Z"></path><path class="cls-6" d="m1527.06,2633.21h2.39l.34,3.86h.08c1.13-2.48,4.03-4.41,7.86-4.41,6.3,0,9.66,3.99,9.66,11.01s-4.29,11.09-9.87,11.09c-3.78,0-6.38-1.6-7.43-3.7h-.08v11.55h-2.94v-29.41Zm17.18,10.63c0-7.18-3.4-8.61-6.93-8.61-4.24,0-7.56,2.73-7.56,8.44,0,6.01,3.45,8.57,7.44,8.57,3.02,0,7.06-1.47,7.06-8.4Z"></path><path class="cls-6" d="m1553.27,2633.21h2.6l.29,3.91c1.01-2.14,3.07-4.45,6.76-4.45,1.26,0,2.18.21,3.02.55v3.15c-1.13-.5-2.1-.76-3.4-.76-3.74,0-6.34,2.81-6.34,5.75v12.85h-2.94v-21Z"></path><path class="cls-6" d="m1570.58,2621.45h2.98v6.51h-2.98v-6.51Zm0,11.76h2.94v21h-2.94v-21Z"></path><path class="cls-6" d="m1580.28,2656.02v-.13h3.11v.13c0,2.9,1.93,4.33,6.13,4.33,4.79,0,7.01-2.94,7.01-7.86v-2.1h-.08c-1.09,2.18-3.65,4.08-7.48,4.08-6.3,0-9.75-3.99-9.75-10.71,0-7.1,4.37-11.09,9.96-11.09,3.78,0,6.55,1.81,7.56,4.12h.13l.29-3.57h2.31v19.16c0,5.88-2.81,10.71-10.33,10.71-6.3,0-8.86-2.98-8.86-7.06Zm16.59-12.77c0-5.5-3.36-8.07-7.35-8.07-3.03,0-7.14,1.47-7.14,8.4s3.57,8.32,7.1,8.32c4.24,0,7.39-2.73,7.39-8.65Z"></path><path class="cls-6" d="m1606.82,2621.45h2.94v15.16c1.05-2.1,3.28-3.95,7.31-3.95,4.75,0,7.77,2.52,7.77,7.94v13.61h-2.94v-13.27c0-4.33-2.14-5.71-5.5-5.71-3.82,0-6.64,2.69-6.64,5.63v13.36h-2.94v-32.77Z"></path><path class="cls-6" d="m1643.15,2651.52v2.6c-.76.21-2.14.59-4.03.59-3.82,0-6.34-1.6-6.34-6.89v-12.18h-4.16v-2.44h4.16v-6.05l2.94-1.43v7.48h5.92v2.44h-5.92v11.8c0,2.81.76,4.58,3.4,4.58,1.6,0,3.23-.29,4.03-.5Z"></path><path class="cls-6" d="m1135.14,1212.78v-2.02h3.02v2.18c0,3.74,2.6,6.05,7.94,6.05s8.44-1.97,8.44-6.22c0-3.32-1.39-5.17-4.92-6.09l-6.64-1.72c-4.33-1.13-7.18-2.98-7.18-8.15s3.78-8.91,10.92-8.91,10.59,3.44,10.59,9.07v2.94h-3.02v-2.81c0-4.62-3.07-6.51-7.56-6.51-5.12,0-7.81,2.14-7.81,6.01,0,3.61,1.76,4.71,5.55,5.71l5.75,1.55c5.12,1.39,7.43,3.74,7.43,8.65,0,6.09-4.33,9.24-11.47,9.24-9.12,0-11.05-4.71-11.05-8.99Z"></path><path class="cls-6" d="m1164.83,1188.46h2.94v15.16c1.05-2.1,3.28-3.95,7.31-3.95,4.75,0,7.77,2.52,7.77,7.94v13.61h-2.94v-13.27c0-4.33-2.14-5.71-5.5-5.71-3.82,0-6.64,2.69-6.64,5.63v13.36h-2.94v-32.77Z"></path><path class="cls-6" d="m1188.52,1210.72c0-6.22,3.32-11.05,10.38-11.05,6.59,0,10.25,4.83,10.25,11.05s-3.7,11.05-10.29,11.05c-7.27,0-10.33-4.83-10.33-11.05Zm17.56,0c0-5.33-2.9-8.49-7.22-8.49-4.75,0-7.27,3.15-7.27,8.49s2.56,8.49,7.27,8.49c4.33,0,7.22-3.15,7.22-8.49Z"></path><path class="cls-6" d="m1215.02,1200.22h2.6l.29,3.91c1.01-2.14,3.07-4.45,6.76-4.45,1.26,0,2.18.21,3.02.55v3.15c-1.13-.5-2.1-.76-3.4-.76-3.74,0-6.34,2.81-6.34,5.75v12.85h-2.94v-21Z"></path><path class="cls-6" d="m1243.29,1218.54v2.6c-.76.21-2.14.59-4.03.59-3.82,0-6.34-1.6-6.34-6.89v-12.18h-4.16v-2.44h4.16v-6.05l2.94-1.43v7.48h5.92v2.44h-5.92v11.8c0,2.82.76,4.58,3.4,4.58,1.6,0,3.23-.29,4.03-.5Z"></path><path class="cls-6" d="m1256.1,1210.76c0-7.1,4.28-11.09,10.04-11.09,3.7,0,6.22,1.6,7.31,3.74h.04v-14.95h2.94v32.77h-1.97l-.67-3.61h-.08c-1.18,2.31-3.95,4.16-7.77,4.16-6.3,0-9.83-3.99-9.83-11.01Zm17.64-.5c0-5.5-3.36-8.07-7.35-8.07-3.11,0-7.14,1.47-7.14,8.4s3.61,8.61,7.14,8.61c4.24,0,7.35-2.73,7.35-8.95Z"></path><path class="cls-6" d="m1301.04,1211.73h-15.96c.17,4.79,2.48,7.48,6.93,7.48,3.82,0,5.67-1.43,5.97-4.83h2.98c-.29,4.24-3.28,7.39-9.03,7.39-7.06,0-9.83-4.66-9.83-10.88s3.23-11.22,10-11.22,8.95,3.99,8.95,10.21v1.85Zm-3.11-2.98c0-4.45-1.72-6.55-5.92-6.55s-6.55,2.65-6.89,6.97h12.81v-.42Z"></path><path class="cls-6" d="m1305.03,1214.8v-1.18h2.94v1.13c0,2.86,2.14,4.49,5.96,4.49s5.8-1.01,5.8-3.78c0-2.06-1.01-2.81-3.86-3.32l-4.62-.84c-3.02-.55-5.54-2.02-5.54-5.5,0-3.15,2.35-6.13,8.4-6.13s8.4,3.02,8.4,7.23v.88h-2.98v-.76c0-3.45-2.14-4.92-5.42-4.92-3.95,0-5.33,1.34-5.33,3.36s1.01,2.86,3.91,3.4l4.03.76c4.12.76,6.09,1.93,6.09,5.59,0,4.58-4.12,6.55-8.78,6.55-7.31,0-8.99-3.28-8.99-6.97Z"></path><path class="cls-6" d="m1326.99,1210.89c0-6.38,3.23-11.22,10-11.22s8.95,3.91,8.95,8.95v.42h-3.11v-.63c0-3.82-1.64-6.09-5.84-6.09-4.75,0-7.02,3.11-7.02,8.4,0,5.63,2.39,8.49,6.93,8.49,3.82,0,5.84-1.85,5.92-5.67h3.02c-.08,4.66-3.15,8.23-9.03,8.23-7.22,0-9.83-4.75-9.83-10.88Z"></path><path class="cls-6" d="m1369.08,1211.73h-15.96c.17,4.79,2.48,7.48,6.93,7.48,3.82,0,5.67-1.43,5.97-4.83h2.98c-.29,4.24-3.28,7.39-9.03,7.39-7.06,0-9.83-4.66-9.83-10.88s3.23-11.22,10-11.22,8.95,3.99,8.95,10.21v1.85Zm-3.11-2.98c0-4.45-1.72-6.55-5.92-6.55s-6.55,2.65-6.89,6.97h12.81v-.42Z"></path><path class="cls-6" d="m1374.96,1200.22h2.6l.29,3.49c1.01-2.14,3.28-4.03,7.35-4.03,4.75,0,7.77,2.52,7.77,7.94v13.61h-2.94v-13.27c0-4.33-2.14-5.71-5.5-5.71-3.82,0-6.64,2.69-6.64,5.63v13.36h-2.94v-21Z"></path><path class="cls-6" d="m1398.64,1210.76c0-7.1,4.28-11.09,10.04-11.09,3.7,0,6.22,1.6,7.31,3.74h.04v-14.95h2.94v32.77h-1.97l-.67-3.61h-.08c-1.18,2.31-3.95,4.16-7.77,4.16-6.3,0-9.83-3.99-9.83-11.01Zm17.64-.5c0-5.5-3.36-8.07-7.35-8.07-3.11,0-7.14,1.47-7.14,8.4s3.61,8.61,7.14,8.61c4.24,0,7.35-2.73,7.35-8.95Z"></path><path class="cls-6" d="m1443.59,1211.73h-15.96c.17,4.79,2.48,7.48,6.93,7.48,3.82,0,5.67-1.43,5.97-4.83h2.98c-.29,4.24-3.28,7.39-9.03,7.39-7.06,0-9.83-4.66-9.83-10.88s3.23-11.22,10-11.22,8.95,3.99,8.95,10.21v1.85Zm-3.11-2.98c0-4.45-1.72-6.55-5.92-6.55s-6.55,2.65-6.89,6.97h12.81v-.42Z"></path><path class="cls-6" d="m1449.46,1200.22h2.6l.29,3.91c1.01-2.14,3.07-4.45,6.76-4.45,1.26,0,2.18.21,3.02.55v3.15c-1.13-.5-2.1-.76-3.4-.76-3.74,0-6.34,2.81-6.34,5.75v12.85h-2.94v-21Z"></path><path class="cls-6" d="m1476.43,1188.46h2.98v6.51h-2.98v-6.51Zm0,11.76h2.94v21h-2.94v-21Z"></path><path class="cls-6" d="m1486.76,1200.22h2.6l.29,3.49c1.01-2.14,3.28-4.03,7.35-4.03,4.75,0,7.77,2.52,7.77,7.94v13.61h-2.94v-13.27c0-4.33-2.14-5.71-5.5-5.71-3.82,0-6.64,2.69-6.64,5.63v13.36h-2.94v-21Z"></path><path class="cls-6" d="m1523.46,1198.92h-3.36v-5.08c0-3.95.88-5.29,3.4-5.96l.67,1.85c-1.76.67-2.06,1.09-2.06,3.78v.34h1.34v5.08Zm5.92,0h-3.36v-5.08c0-3.95.88-5.29,3.4-5.96l.67,1.85c-1.76.67-2.06,1.09-2.06,3.78v.34h1.34v5.08Z"></path><path class="cls-6" d="m1535.77,1200.22h2.39l.34,3.87h.08c1.13-2.48,4.03-4.41,7.86-4.41,6.3,0,9.66,3.99,9.66,11.01s-4.29,11.09-9.87,11.09c-3.78,0-6.38-1.6-7.43-3.7h-.08v11.55h-2.94v-29.41Zm17.18,10.63c0-7.18-3.4-8.61-6.93-8.61-4.24,0-7.56,2.73-7.56,8.44,0,6.01,3.45,8.57,7.44,8.57,3.02,0,7.06-1.47,7.06-8.4Z"></path><path class="cls-6" d="m1557.36,1197.66c1.76-.67,2.06-1.09,2.06-3.78v-.34h-1.34v-5.08h3.36v5.08c0,3.95-.88,5.29-3.4,5.96l-.67-1.85Zm5.92,0c1.76-.67,2.06-1.09,2.06-3.78v-.34h-1.34v-5.08h3.36v5.08c0,3.95-.88,5.29-3.4,5.96l-.67-1.85Z"></path><rect class="cls-7" x="1132.2" y="782.97" width="163" height="163" rx="81.5" ry="81.5"></rect><path class="cls-6" d="m1071.58,2427.65h2.94v18.65l17.05-18.65h3.61v.04l-12.31,13.53,13.36,19.16v.04h-3.65l-11.68-17.05-6.38,7.01v10.04h-2.94v-32.77Z"></path><path class="cls-6" d="m1100.44,2439.41h2.6l.29,3.49c1.01-2.14,3.28-4.03,7.35-4.03,4.75,0,7.77,2.52,7.77,7.94v13.61h-2.94v-13.27c0-4.33-2.14-5.71-5.5-5.71-3.82,0-6.64,2.69-6.64,5.63v13.36h-2.94v-21Z"></path><path class="cls-6" d="m1124.12,2449.92c0-6.22,3.32-11.05,10.38-11.05,6.59,0,10.25,4.83,10.25,11.05s-3.7,11.05-10.29,11.05c-7.27,0-10.33-4.83-10.33-11.05Zm17.56,0c0-5.33-2.9-8.49-7.22-8.49-4.75,0-7.27,3.15-7.27,8.49s2.56,8.49,7.27,8.49c4.33,0,7.22-3.15,7.22-8.49Z"></path><path class="cls-6" d="m1161.59,2457.73v2.6c-.76.21-2.14.59-4.03.59-3.82,0-6.34-1.6-6.34-6.89v-12.18h-4.16v-2.44h4.16v-6.05l2.94-1.43v7.48h5.92v2.44h-5.92v11.8c0,2.82.76,4.58,3.4,4.58,1.6,0,3.23-.29,4.03-.5Z"></path><path class="cls-6" d="m1164.53,2453.99v-1.18h2.94v1.13c0,2.86,2.14,4.49,5.96,4.49s5.8-1.01,5.8-3.78c0-2.06-1.01-2.81-3.86-3.32l-4.62-.84c-3.02-.55-5.54-2.02-5.54-5.5,0-3.15,2.35-6.13,8.4-6.13s8.4,3.02,8.4,7.23v.88h-2.98v-.76c0-3.45-2.14-4.92-5.42-4.92-3.95,0-5.33,1.34-5.33,3.36s1.01,2.86,3.91,3.4l4.03.76c4.12.76,6.09,1.93,6.09,5.59,0,4.58-4.12,6.55-8.78,6.55-7.31,0-8.99-3.28-8.99-6.97Z"></path><path class="cls-6" d="m1197.83,2427.65h2.98v6.51h-2.98v-6.51Zm0,11.76h2.94v21h-2.94v-21Z"></path><path class="cls-6" d="m1208.16,2439.41h2.6l.29,3.49c1.01-2.14,3.28-4.03,7.35-4.03,4.75,0,7.77,2.52,7.77,7.94v13.61h-2.94v-13.27c0-4.33-2.14-5.71-5.5-5.71-3.82,0-6.64,2.69-6.64,5.63v13.36h-2.94v-21Z"></path><path class="cls-6" d="m1244.87,2438.11h-3.36v-5.08c0-3.95.88-5.29,3.4-5.96l.67,1.85c-1.76.67-2.06,1.09-2.06,3.78v.34h1.34v5.08Zm5.92,0h-3.36v-5.08c0-3.95.88-5.29,3.4-5.96l.67,1.85c-1.76.67-2.06,1.09-2.06,3.78v.34h1.34v5.08Z"></path><path class="cls-6" d="m1259.99,2456.93h-.08l-.76,3.49h-1.97v-32.77h2.94v15.25h.04c1.26-2.31,4.07-4.03,7.69-4.03,6.3,0,9.66,3.99,9.66,11.01s-4.29,11.09-9.87,11.09c-3.78,0-6.55-1.64-7.65-4.03Zm14.37-6.89c0-7.18-3.4-8.61-6.93-8.61-4.24,0-7.56,2.73-7.56,8.44,0,6.01,3.45,8.57,7.44,8.57,3.02,0,7.06-1.47,7.06-8.4Z"></path><path class="cls-6" d="m1278.77,2436.85c1.76-.67,2.06-1.09,2.06-3.78v-.34h-1.34v-5.08h3.36v5.08c0,3.95-.88,5.29-3.4,5.96l-.67-1.85Zm5.92,0c1.76-.67,2.06-1.09,2.06-3.78v-.34h-1.34v-5.08h3.36v5.08c0,3.95-.88,5.29-3.4,5.96l-.67-1.85Z"></path><path class="cls-6" d="m1303.04,2454.62c0-3.95,2.23-6.09,7.86-6.09h6.34v-1.72c0-2.98-1.26-5.42-5.46-5.42-3.95,0-5.33,1.51-5.33,4.12v.88h-2.98v-.84c0-5,4.2-6.68,8.32-6.68,5.8,0,8.4,2.86,8.4,8.44v13.11h-2.06l-.55-2.98h-.08c-1.26,1.89-3.7,3.53-7.35,3.53-4.92,0-7.1-2.31-7.1-6.34Zm14.2-1.85v-1.76h-7.01c-2.65,0-4.03.92-4.03,3.61,0,2.35,1.26,3.86,4.5,3.86,4.16,0,6.55-2.14,6.55-5.71Z"></path><path class="cls-6" d="m1327.53,2439.41h2.6l.29,3.49c1.01-2.14,3.28-4.03,7.35-4.03,4.75,0,7.77,2.52,7.77,7.94v13.61h-2.94v-13.27c0-4.33-2.14-5.71-5.5-5.71-3.82,0-6.64,2.69-6.64,5.63v13.36h-2.94v-21Z"></path><path class="cls-6" d="m1351.21,2449.96c0-7.1,4.28-11.09,10.04-11.09,3.7,0,6.22,1.6,7.31,3.74h.04v-14.95h2.94v32.77h-1.97l-.67-3.61h-.08c-1.18,2.31-3.95,4.16-7.77,4.16-6.3,0-9.83-3.99-9.83-11.01Zm17.64-.5c0-5.5-3.36-8.07-7.35-8.07-3.11,0-7.14,1.47-7.14,8.4s3.61,8.61,7.14,8.61c4.24,0,7.35-2.73,7.35-8.95Z"></path><path class="cls-6" d="m1390.23,2438.11h-3.36v-5.08c0-3.95.88-5.29,3.4-5.96l.67,1.85c-1.76.67-2.06,1.09-2.06,3.78v.34h1.34v5.08Zm5.92,0h-3.36v-5.08c0-3.95.88-5.29,3.4-5.96l.67,1.85c-1.76.67-2.06,1.09-2.06,3.78v.34h1.34v5.08Z"></path><path class="cls-6" d="m1399.18,2449.92c0-6.22,3.32-11.05,10.38-11.05,6.59,0,10.25,4.83,10.25,11.05s-3.7,11.05-10.29,11.05c-7.27,0-10.33-4.83-10.33-11.05Zm17.56,0c0-5.33-2.9-8.49-7.22-8.49-4.75,0-7.27,3.15-7.27,8.49s2.56,8.49,7.27,8.49c4.33,0,7.22-3.15,7.22-8.49Z"></path><path class="cls-6" d="m1421.06,2436.85c1.76-.67,2.06-1.09,2.06-3.78v-.34h-1.34v-5.08h3.36v5.08c0,3.95-.88,5.29-3.4,5.96l-.67-1.85Zm5.92,0c1.76-.67,2.06-1.09,2.06-3.78v-.34h-1.34v-5.08h3.36v5.08c0,3.95-.88,5.29-3.4,5.96l-.67-1.85Z"></path><path class="cls-6" d="m1738.82,3059.6c-13.23,15.8-91.52,110.63-111.36,127.9-3.31,3.31-19.85,19.85-36.75,19.85-12.5,0-12.86-9.19-12.86-20.21v-72.04h-.21l-.16-56.97c-7.35-1.84-16.91-3.31-31.61-3.31-62.86,0-107.88,26.55-125.86,66.89-25.32,32.71-68.88,85.63-92.09,85.63-12.5,0-12.5-9.19-12.5-20.21l-.74-129.01h-40.43v121.03c-19.25,20.41-50.13,40.32-70.2,40.32-17.64,0-28.3-9.92-28.67-30.14l-1.84-104.38c-.37-31.24-17.64-32.34-33.45-32.34-14.33,0-22.05,4.41-29.04,18.74-15.07,30.51-45.94,130.84-67.99,204.72-16.91,56.23-21.68,72.77-28.67,92.25-6.25,16.91-15.44,27.2-24.26,27.2-7.35,0-9.92-6.98-15.07-18.01-9.19-19.11-18.01-32.71-34.92-32.71-12.86,0-26.46,12.86-37.12,22.79-7.35,6.98-13.6,12.86-17.64,12.86-2.94,0-5.15-1.84-4.78-12.13l-1.84-314.61-42.27-.74c-50.53-.9-85.68,22.63-105.39,52.13-28.62,29.55-57.03,58.61-85.73,85.69-11.76,11.03-23.15,17.64-33.81,17.64-9.19,0-12.5-7.35-12.5-23.15v-475.96c0-13.6-14.7-19.48-26.1-19.48-72.77,0-141.5,15.44-200.31,47.04-109.53,58.44-180.46,166.13-180.46,283.74,0,153.63,92.99,218.32,223.46,218.32,60.64,0,92.62-15.44,136.36-36.75,0,23.15,15.44,36.39,36.75,36.39s38.96-7.72,54.4-20.21c25.58-20.93,47.91-43.91,70.09-67.65-.66,4.5-.99,8.94-.99,13.26,0,42.27,23.89,76.08,70.93,76.08,17.85,0,36.98-5.45,54.4-15.75v169.38c0,13.6,14.33,26.1,28.67,26.1s30.14-11.76,46.31-31.24c10.29-12.5,18.01-21.68,26.83-21.68,6.98,0,13.97,5.51,20.21,20.58,10.29,24.62,21.68,32.34,31.61,32.34,21.68,0,30.14-27.57,36.75-45.21,10.29-28.3,8.82-24.63,31.61-100.34,20.58-68.73,40.43-142.24,63.58-188.55,5.15-10.29,12.5-2.57,12.5,5.88v108.06c0,27.57,26.09,40.43,56.23,40.43s64.25-12.53,82.33-36.23v.58c0,16.91,9.92,34.18,34.92,34.18,2.21,0,13.6,0,30.14-9.92,21.73-12.92,48.15-41.58,72.26-72.05-.15,2.31-.23,4.64-.23,7,0,42.63,23.89,76.45,70.93,76.45,17.3,0,35.63-5.11,59.52-16.9,5.18,8.93,14.83,15.43,30.16,15.43,2.94,0,15.8,0,33.08-9.92,42.63-24.62,114.67-115.04,146.28-158.41,6.98-8.82-5.88-19.11-12.5-10.66Zm-1323.5,145.18c-115.04,0-179.73-84.17-179.73-187.44,0-169.07,161.72-300.65,315.71-300.65l.74,450.97c-45.57,26.83-89.31,37.12-136.72,37.12Zm378.56,9.92c-33.81,0-47.41-24.99-47.41-55.13,0-38.73,29.79-87.25,91.15-87.83v123.57c-14.88,11.61-25.09,19.39-43.74,19.39Zm651.64-53.29c0-40.12,28.24-88.55,91.52-89.29v123.62c-12.7,12.54-27.03,18.97-44.1,18.97-33.81,0-47.41-25.73-47.41-53.29Z"></path><path class="cls-6" d="m1139.76,3052.9c-14.33,0-22.04,4.41-29.02,18.74-15.06,30.5-45.92,130.79-67.97,204.63-16.9,56.21-21.67,72.74-28.66,92.22-6.25,16.9-15.43,27.19-24.25,27.19-7.35,0-9.92-6.98-15.06-18-9.18-19.11-18-32.7-34.9-32.7-12.86,0-26.45,12.86-37.11,22.78-7.35,6.98-13.59,12.86-17.64,12.86-2.94,0-5.14-1.84-4.78-12.13l-1.84-314.48-42.25-.73c-82.66-1.47-124.18,62.45-124.18,110.95,0,42.25,23.88,76.05,70.91,76.05,17.84,0,36.96-5.45,54.37-15.74v169.31c0,13.59,14.33,26.09,28.66,26.09s30.12-11.75,46.29-31.22c10.29-12.49,18-21.68,26.82-21.68,6.98,0,13.96,5.51,20.21,20.57,10.29,24.62,21.67,32.33,31.59,32.33,21.68,0,30.13-27.55,36.74-45.19,10.29-28.29,8.82-24.62,31.6-100.3,20.57-68.7,40.41-142.18,63.56-188.47,5.14-10.29,12.49-2.57,12.49,5.88l12.86-30.12c-2.2-2.94-5.51-5.51-8.45-8.82Zm-346.08,162.02c-33.8,0-47.39-24.98-47.39-55.11,0-38.71,29.77-87.21,91.11-87.79v123.51c-14.87,11.6-25.08,19.38-43.72,19.38Z"></path><path class="cls-6" d="m784,4968.53h3.23l11.51,20.92h.08l11.51-20.92h3.23v32.77h-2.94v-27.85h-.04l-10.75,19.91h-2.06l-10.8-19.91h-.04v27.85h-2.94v-32.77Z"></path><path class="cls-6" d="m822.18,4968.53h2.98v6.51h-2.98v-6.51Zm0,11.76h2.94v21h-2.94v-21Z"></path><path class="cls-6" d="m832.51,4980.29h2.6l.29,3.91c1.01-2.14,3.07-4.45,6.76-4.45,1.26,0,2.18.21,3.02.55v3.15c-1.13-.5-2.1-.76-3.4-.76-3.74,0-6.34,2.81-6.34,5.75v12.85h-2.94v-21Z"></path><path class="cls-6" d="m849.81,4980.29h2.6l.29,3.91c1.01-2.14,3.07-4.45,6.76-4.45,1.26,0,2.18.21,3.02.55v3.15c-1.13-.5-2.1-.76-3.4-.76-3.74,0-6.34,2.81-6.34,5.75v12.85h-2.94v-21Z"></path><path class="cls-6" d="m864.81,4990.79c0-6.22,3.32-11.05,10.38-11.05,6.59,0,10.25,4.83,10.25,11.05s-3.7,11.05-10.29,11.05c-7.27,0-10.33-4.83-10.33-11.05Zm17.56,0c0-5.33-2.9-8.49-7.22-8.49-4.75,0-7.27,3.15-7.27,8.49s2.56,8.49,7.27,8.49c4.33,0,7.22-3.15,7.22-8.49Z"></path><path class="cls-6" d="m891.31,4980.29h2.6l.29,3.91c1.01-2.14,3.07-4.45,6.76-4.45,1.26,0,2.18.21,3.02.55v3.15c-1.13-.5-2.1-.76-3.4-.76-3.74,0-6.34,2.81-6.34,5.75v12.85h-2.94v-21Z"></path><path class="cls-6" d="m925.25,4991.8h-15.96c.17,4.79,2.48,7.48,6.93,7.48,3.82,0,5.67-1.43,5.97-4.83h2.98c-.29,4.24-3.28,7.39-9.03,7.39-7.06,0-9.83-4.66-9.83-10.88s3.23-11.22,10-11.22,8.95,3.99,8.95,10.21v1.85Zm-3.11-2.98c0-4.45-1.72-6.55-5.92-6.55s-6.55,2.65-6.89,6.97h12.81v-.42Z"></path><path class="cls-6" d="m929.45,4990.84c0-7.1,4.28-11.09,10.04-11.09,3.7,0,6.22,1.6,7.31,3.74h.04v-14.95h2.94v32.77h-1.97l-.67-3.61h-.08c-1.18,2.31-3.95,4.16-7.77,4.16-6.3,0-9.83-3.99-9.83-11.01Zm17.64-.5c0-5.5-3.36-8.07-7.35-8.07-3.11,0-7.14,1.47-7.14,8.4s3.61,8.61,7.14,8.61c4.24,0,7.35-2.73,7.35-8.95Z"></path><path class="cls-6" d="m966.78,4968.53h2.94v32.77h-2.94v-32.77Z"></path><path class="cls-6" d="m975.39,4990.79c0-6.22,3.32-11.05,10.38-11.05,6.59,0,10.25,4.83,10.25,11.05s-3.7,11.05-10.29,11.05c-7.27,0-10.33-4.83-10.33-11.05Zm17.56,0c0-5.33-2.9-8.49-7.22-8.49-4.75,0-7.27,3.15-7.27,8.49s2.56,8.49,7.27,8.49c4.33,0,7.22-3.15,7.22-8.49Z"></path><path class="cls-6" d="m1000.21,4990.79c0-6.22,3.32-11.05,10.38-11.05,6.59,0,10.25,4.83,10.25,11.05s-3.7,11.05-10.29,11.05c-7.27,0-10.33-4.83-10.33-11.05Zm17.56,0c0-5.33-2.9-8.49-7.22-8.49-4.75,0-7.27,3.15-7.27,8.49s2.56,8.49,7.27,8.49c4.33,0,7.22-3.15,7.22-8.49Z"></path><path class="cls-6" d="m1026.71,4980.29h2.39l.34,3.87h.08c1.13-2.48,4.03-4.41,7.86-4.41,6.3,0,9.66,3.99,9.66,11.01s-4.29,11.09-9.87,11.09c-3.78,0-6.38-1.6-7.43-3.7h-.08v11.55h-2.94v-29.41Zm17.18,10.63c0-7.18-3.4-8.61-6.93-8.61-4.24,0-7.56,2.73-7.56,8.44,0,6.01,3.45,8.57,7.44,8.57,3.02,0,7.06-1.47,7.06-8.4Z"></path><path class="cls-6" d="m1062.58,4968.53h2.98v6.51h-2.98v-6.51Zm0,11.76h2.94v21h-2.94v-21Z"></path><path class="cls-6" d="m1072.91,4980.29h2.6l.29,3.49c1.01-2.14,3.28-4.03,7.35-4.03,4.75,0,7.77,2.52,7.77,7.94v13.61h-2.94v-13.27c0-4.33-2.14-5.71-5.5-5.71-3.82,0-6.64,2.69-6.64,5.63v13.36h-2.94v-21Z"></path><path class="cls-6" d="m1109.62,4978.99h-3.36v-5.08c0-3.95.88-5.29,3.4-5.96l.67,1.85c-1.76.67-2.06,1.09-2.06,3.78v.34h1.34v5.08Zm5.92,0h-3.36v-5.08c0-3.95.88-5.29,3.4-5.96l.67,1.85c-1.76.67-2.06,1.09-2.06,3.78v.34h1.34v5.08Z"></path><path class="cls-6" d="m1125.67,4975.25v5.04h5.92v2.44h-5.92v18.57h-2.94v-18.57h-4.16v-2.44h4.16v-5.42c0-5.29,3.15-6.89,6.38-6.89,1.85,0,2.98.29,3.74.55v2.6c-.71-.21-1.89-.46-3.49-.46-2.65,0-3.7,1.76-3.7,4.58Z"></path><path class="cls-6" d="m1136.21,4977.73c1.76-.67,2.06-1.09,2.06-3.78v-.34h-1.34v-5.08h3.36v5.08c0,3.95-.88,5.29-3.4,5.96l-.67-1.85Zm5.92,0c1.76-.67,2.06-1.09,2.06-3.78v-.34h-1.34v-5.08h3.36v5.08c0,3.95-.88,5.29-3.4,5.96l-.67-1.85Z"></path><path class="cls-6" d="m1475.61,1765.59c12.61,0,23.05-10.44,23.05-23.77,0-12.6-10.44-23.05-23.05-23.05-13.32,0-23.77,10.45-23.77,23.05,0,13.33,10.45,23.77,23.77,23.77Z"></path><path class="cls-6" d="m1660.38,1811.69c-12.97,15.49-89.68,108.41-109.13,125.34-3.24,3.24-19.45,19.45-36.02,19.45-12.25,0-12.25-9-12.25-19.81v-105.89c0-23.41-12.25-32.06-27.73-32.06-34.58,0-54.03,33.5-71.68,64.11-7.2,12.61-53.3,95.8-73.12,95.8-5.4,0-8.64-6.48-8.64-21.97l-.72-126.42c-7.2-1.8-16.57-3.24-30.98-3.24-21.05,0-40.05,3.04-56.65,8.62-37.86,9.92-109.42,21.06-156.93,27.4-11.53-25.57-41.06-38.54-71.68-38.54-23.77,0-42.14,15.49-42.14,30.98,0,14.41,16.57,28.45,60.51,28.45,10.81,0,20.89-.72,27.01-1.08,2.52,8.64,3.96,19.45,3.96,30.26,0,35.66-15.85,71.31-49.34,72.75-14.41.36-57.27,0-57.27-59.79v-147.03c37.18-55.26,87.55-170.51,87.88-248.79,0-39.98-24.49-63.75-51.5-63.75-31.73,0-74.85,32.46-76.65,104.45h-.07v256.42c-2.64,3.93-5.25,9.39-7.56,13.35-19.45,32.77-89.96,135.78-122.02,135.78-12.25,0-12.25-9-12.25-19.81l-.72-126.42c-7.2-1.8-16.57-3.24-30.98-3.24-50.29,0-88.93,17.34-111.01,45.22-64.5,67.83-131.35,97.41-190.46,97.41-105.17,0-185.85-94.36-185.85-234.83s83.92-238.8,192.33-238.8c55.11,0,68.43,23.77,91.12,52.95,2.52,3.24,7.2,5.04,12.25,5.04,9.73,0,21.25-7.2,21.25-22.69,0-7.56-3.24-14.77-7.92-19.81-25.57-26.29-66.99-45.74-121.74-45.74-129.66,0-228.71,110.21-228.71,265.45,0,180.09,102.65,277.33,218.26,277.33,60.18,0,123.97-24.98,178.83-81.15-.12,2.06-.18,4.14-.18,6.24,0,41.78,23.41,74.91,69.51,74.91,16.95,0,34.91-5,58.32-16.56,5.07,8.75,14.53,15.12,29.56,15.12,2.52,0,13.32,0,29.53-9.72,38.24-22.74,90.9-97.53,118.42-138.67v67.35c0,38.9,28.45,82.48,87.16,82.48,65.19,0,90.04-56.19,90.04-103.37,0-9.36-1.08-18.37-2.88-26.29,29.41-3.34,61.13-8.2,106.52-16.54-19.22,18.5-29.81,43.17-29.81,71.28,0,41.78,23.41,74.91,69.51,74.91,16.94,0,34.9-5,58.3-16.55,6.19,10.73,17.83,16.55,30.31,16.55,10.08,0,20.17-4.32,28.81-11.16,25.93-20.89,60.51-81.76,80.68-117.06.36-.72,1.08-1.8,1.44-2.52,6.12-10.8,14.77-26.29,26.65-26.29,5.76,0,8.64,6.12,8.64,16.57v105.53c0,16.57,9.73,33.49,34.22,33.49,2.88,0,15.49,0,32.42-9.72,41.78-24.13,112.37-112.73,143.35-155.23,6.84-8.64-5.76-18.73-12.25-10.45Zm-642.55,36.74c-16.57,0-35.3-2.16-35.3-11.53,0-5.04,7.56-7.92,17.29-7.92,14.04,0,32.05,5.04,41.06,18.01-3.24.36-12.6,1.44-23.05,1.44Zm-382.42,63.03c0-39.32,27.67-86.78,89.68-87.5v121.14c-12.44,12.28-26.48,18.58-43.22,18.58-33.14,0-46.46-25.21-46.46-52.22Zm312.19-355.85c0-64.47,14.77-90.4,36.38-90.4,16.57,0,32.78,15.85,32.78,45.02-.29,63.31-36.44,154.43-69.15,212.76v-167.38Zm244.2,355.85c0-39.32,27.67-86.78,89.68-87.5v121.14c-12.44,12.29-26.48,18.59-43.22,18.59-33.14,0-46.46-25.21-46.46-52.22Z"></path><g class="cls-5"><path class="cls-8" d="m1864.97,4302.28c-6.12,6.13-34.57,42.5-57.27,70.23-29.18,36.02-68.07,78.16-90.41,78.16-12.96,0-12.96-12.97-12.96-23.77v-113.45c0-14.41-10.81-19.09-20.89-19.09-17.65,0-45.74,15.13-64.83,15.13-9,0-22.33-3.6-45.74-15.49-5.04-2.52-9.01.72-10.45,2.52-2.52,3.25-5.76,10.09-8.28,14.41-19.45,32.77-73.12,135.78-105.18,135.78-12.25,0-12.25-9.01-12.25-19.81l-.72-126.42c-7.21-1.8-16.57-3.24-30.98-3.24-49.52,0-87.74,16.81-109.98,43.94-24.78,26.92-99.5,105.53-130.98,105.53-12.25,0-12.25-9.01-12.25-19.81l-.41-139.45,50.84-4.26c1.08,0,1.8-.72,1.8-1.8v-19.45c0-1.08-.72-1.8-1.8-1.8l-50.91,4.26-.24-81.34h-.04l-1.04-68.79c0-6.48-3.24-15.49-18.01-15.49-6.48,0-11.53,1.44-22.69,20.89-30.98,49.7-66.63,90.4-119.94,144.79-42.66,43.59-88.11,86.21-128.58,121.75v-136.95c37.23-55.3,87.88-170.84,87.88-248.8,0-39.98-24.49-63.75-51.5-63.75-31.74,0-74.85,32.46-76.65,104.45h-.07v256.36c-2.4,3.5-5.28,9.49-7.57,13.41-19.45,32.77-121.76,135.78-153.81,135.78-12.25,0-12.25-9.01-12.25-19.81l-.72-126.42c-7.2-1.8-16.57-3.24-30.98-3.24-25.24,0-47.55,4.37-66.3,12.25-32.41,1.61-76.97,5.01-119.9,9.61,10.69-31.91,16.92-69.73,16.92-114.42,0-156.68-76.35-268.33-263.28-268.33H51.13c-5.04,0-9.36,4.32-9.36,9.36s4.32,9.36,9.36,9.36h40.7v520.09h41.06v-16.66c9.98,13.26,32.81,20.99,67.71,20.99,68.67,0,173.82-29.89,220.95-140.84,32.8-3.78,62.25-6.12,94.04-8.36-20.76,18.73-32.25,44.27-32.25,73.56,0,41.78,23.41,74.92,69.51,74.92,16.95,0,34.91-5,58.32-16.57,5.07,8.75,14.53,15.13,29.56,15.13,2.16,0,13.32,0,29.53-9.73,38.38-22.82,119.27-96.1,150.21-138.89v91.95c-21.02,17.4-39.43,31.65-53.67,41.54-2.16,1.45-2.16,3.96-.36,5.4l54.03,43.34v217.79c0,75.28,44.3,96.53,68.07,96.53,55.11,0,80.32-49.34,80.32-107.33,0-43.22-14.04-91.48-40.7-127.14-18.46-25.01-42.34-48.04-67.35-69.93v-109.51c39.46-34.21,87.4-78.83,132.9-125.62,46.05-47.28,89.17-94.3,117.78-135.82v117.85l-51.15,4.28c-1.08,0-1.8.72-1.8,1.8v19.45c0,1.08.72,1.8,1.8,1.8l51.15-4.28v153.04c0,16.57,9.72,33.5,34.22,33.5,31.98,0,90.96-52.44,129.7-95.05-1.45,6.91-2.2,14.12-2.2,21.57,0,41.78,23.41,74.92,69.51,74.92,16.95,0,34.91-5,58.32-16.57,5.07,8.75,14.53,15.13,29.56,15.13,2.16,0,13.33,0,29.53-9.73,39.98-23.77,77.44-102.29,105.18-144.07,2.52-3.96,6.84-3.6,10.45-1.8,12.6,6.12,22.69,15.13,46.46,15.13,16.57,0,27.37-5.76,33.5-6.84,5.76-1.08,8.28.36,7.92,7.2l.36,13.33v93.29c0,16.57,9.72,33.5,32.77,33.5,43.94,0,85.72-43.59,119.94-85.36,21.25-25.93,50.78-62.67,60.15-75.64,5.4-7.57-6.48-19.45-11.89-14.05Zm-1732.09,118.71v-465.92h49.7c99.77,0,216.82,89.32,216.82,266.89,0,39.59-5.81,73.64-15.91,102.6-148.95,20.22-229.4,59.26-250.62,96.44Zm63.75,39.76c-34.94,0-50.78-9.37-50.78-21.25,0-23.94,63.32-69.88,229.59-94.82-37.2,81.67-111.56,116.07-178.8,116.07Zm320.19-59.07c0-39.31,27.67-86.78,89.68-87.51v121.15c-12.44,12.29-26.48,18.58-43.22,18.58-33.14,0-46.46-25.21-46.46-52.22Zm343.98-355.85c0-64.47,14.77-90.4,36.38-90.4,16.57,0,32.77,15.84,32.77,45.02,0,63.33-36.35,154.5-69.15,212.82v-167.44Zm16.21,517.57c16.93,16.21,29.53,31.69,39.62,47.54,19.81,30.25,29.54,67.71,29.54,99.77,0,45.02-18.37,81.76-52.22,81.76-21.25,0-33.14-11.89-33.14-63.75v-180.88l16.21,15.56Zm-56.55-75.14l-24.85-19.23c-1.8-1.44-2.52-3.24,0-5.04,6.94-4.93,15.32-11.32,24.85-18.93v43.2Zm486.23-86.58c0-39.31,27.67-86.78,89.68-87.51v121.15c-12.44,12.29-26.48,18.58-43.22,18.58-33.14,0-46.46-25.21-46.46-52.22Z"></path></g><g class="cls-10"><path class="cls-8" d="m1864.97,4302.28c-6.12,6.13-34.57,42.5-57.27,70.23-29.18,36.02-68.07,78.16-90.41,78.16-12.96,0-12.96-12.97-12.96-23.77v-113.45c0-14.41-10.81-19.09-20.89-19.09-17.65,0-45.74,15.13-64.83,15.13-9,0-22.33-3.6-45.74-15.49-5.04-2.52-9.01.72-10.45,2.52-2.52,3.25-5.76,10.09-8.28,14.41-19.45,32.77-73.12,135.78-105.18,135.78-12.25,0-12.25-9.01-12.25-19.81l-.72-126.42c-7.21-1.8-16.57-3.24-30.98-3.24-49.52,0-87.74,16.81-109.98,43.94-24.78,26.92-99.5,105.53-130.98,105.53-12.25,0-12.25-9.01-12.25-19.81l-.41-139.45,50.84-4.26c1.08,0,1.8-.72,1.8-1.8v-19.45c0-1.08-.72-1.8-1.8-1.8l-50.91,4.26-.24-81.34h-.04l-1.04-68.79c0-6.48-3.24-15.49-18.01-15.49-6.48,0-11.53,1.44-22.69,20.89-30.98,49.7-66.63,90.4-119.94,144.79-42.66,43.59-88.11,86.21-128.58,121.75v-136.95c37.23-55.3,87.88-170.84,87.88-248.8,0-39.98-24.49-63.75-51.5-63.75-31.74,0-74.85,32.46-76.65,104.45h-.07v256.36c-2.4,3.5-5.28,9.49-7.57,13.41-19.45,32.77-121.76,135.78-153.81,135.78-12.25,0-12.25-9.01-12.25-19.81l-.72-126.42c-7.2-1.8-16.57-3.24-30.98-3.24-25.24,0-47.55,4.37-66.3,12.25-32.41,1.61-76.97,5.01-119.9,9.61,10.69-31.91,16.92-69.73,16.92-114.42,0-156.68-76.35-268.33-263.28-268.33H51.13c-5.04,0-9.36,4.32-9.36,9.36s4.32,9.36,9.36,9.36h40.7v520.09h41.06v-16.66c9.98,13.26,32.81,20.99,67.71,20.99,68.67,0,173.82-29.89,220.95-140.84,32.8-3.78,62.25-6.12,94.04-8.36-20.76,18.73-32.25,44.27-32.25,73.56,0,41.78,23.41,74.92,69.51,74.92,16.95,0,34.91-5,58.32-16.57,5.07,8.75,14.53,15.13,29.56,15.13,2.16,0,13.32,0,29.53-9.73,38.38-22.82,119.27-96.1,150.21-138.89v91.95c-21.02,17.4-39.43,31.65-53.67,41.54-2.16,1.45-2.16,3.96-.36,5.4l54.03,43.34v217.79c0,75.28,44.3,96.53,68.07,96.53,55.11,0,80.32-49.34,80.32-107.33,0-43.22-14.04-91.48-40.7-127.14-18.46-25.01-42.34-48.04-67.35-69.93v-109.51c39.46-34.21,87.4-78.83,132.9-125.62,46.05-47.28,89.17-94.3,117.78-135.82v117.85l-51.15,4.28c-1.08,0-1.8.72-1.8,1.8v19.45c0,1.08.72,1.8,1.8,1.8l51.15-4.28v153.04c0,16.57,9.72,33.5,34.22,33.5,31.98,0,90.96-52.44,129.7-95.05-1.45,6.91-2.2,14.12-2.2,21.57,0,41.78,23.41,74.92,69.51,74.92,16.95,0,34.91-5,58.32-16.57,5.07,8.75,14.53,15.13,29.56,15.13,2.16,0,13.33,0,29.53-9.73,39.98-23.77,77.44-102.29,105.18-144.07,2.52-3.96,6.84-3.6,10.45-1.8,12.6,6.12,22.69,15.13,46.46,15.13,16.57,0,27.37-5.76,33.5-6.84,5.76-1.08,8.28.36,7.92,7.2l.36,13.33v93.29c0,16.57,9.72,33.5,32.77,33.5,43.94,0,85.72-43.59,119.94-85.36,21.25-25.93,50.78-62.67,60.15-75.64,5.4-7.57-6.48-19.45-11.89-14.05Zm-1732.09,118.71v-465.92h49.7c99.77,0,216.82,89.32,216.82,266.89,0,39.59-5.81,73.64-15.91,102.6-148.95,20.22-229.4,59.26-250.62,96.44Zm63.75,39.76c-34.94,0-50.78-9.37-50.78-21.25,0-23.94,63.32-69.88,229.59-94.82-37.2,81.67-111.56,116.07-178.8,116.07Zm320.19-59.07c0-39.31,27.67-86.78,89.68-87.51v121.15c-12.44,12.29-26.48,18.58-43.22,18.58-33.14,0-46.46-25.21-46.46-52.22Zm343.98-355.85c0-64.47,14.77-90.4,36.38-90.4,16.57,0,32.77,15.84,32.77,45.02,0,63.33-36.35,154.5-69.15,212.82v-167.44Zm16.21,517.57c16.93,16.21,29.53,31.69,39.62,47.54,19.81,30.25,29.54,67.71,29.54,99.77,0,45.02-18.37,81.76-52.22,81.76-21.25,0-33.14-11.89-33.14-63.75v-180.88l16.21,15.56Zm-56.55-75.14l-24.85-19.23c-1.8-1.44-2.52-3.24,0-5.04,6.94-4.93,15.32-11.32,24.85-18.93v43.2Zm486.23-86.58c0-39.31,27.67-86.78,89.68-87.51v121.15c-12.44,12.29-26.48,18.58-43.22,18.58-33.14,0-46.46-25.21-46.46-52.22Z"></path></g><path class="cls-6" d="m216.97,3784.8h-11.51v-2.6h25.96v2.6h-11.51v30.16h-2.94v-30.16Z"></path><path class="cls-6" d="m230.15,3809.16c0-3.95,2.23-6.09,7.86-6.09h6.34v-1.72c0-2.98-1.26-5.42-5.46-5.42-3.95,0-5.33,1.51-5.33,4.12v.88h-2.98v-.84c0-5,4.2-6.68,8.32-6.68,5.8,0,8.4,2.86,8.4,8.44v13.11h-2.06l-.55-2.98h-.08c-1.26,1.89-3.7,3.53-7.35,3.53-4.92,0-7.1-2.31-7.1-6.34Zm14.2-1.85v-1.76h-7.01c-2.65,0-4.03.92-4.03,3.61,0,2.35,1.26,3.86,4.5,3.86,4.16,0,6.55-2.14,6.55-5.71Z"></path><path class="cls-6" d="m254.64,3782.19h2.94v32.77h-2.94v-32.77Z"></path><path class="cls-6" d="m264.93,3782.19h2.94v32.77h-2.94v-32.77Z"></path><path class="cls-6" d="m283.62,3809.16c0-3.95,2.23-6.09,7.86-6.09h6.34v-1.72c0-2.98-1.26-5.42-5.46-5.42-3.95,0-5.33,1.51-5.33,4.12v.88h-2.98v-.84c0-5,4.2-6.68,8.32-6.68,5.8,0,8.4,2.86,8.4,8.44v13.11h-2.06l-.55-2.98h-.08c-1.26,1.89-3.7,3.53-7.35,3.53-4.92,0-7.1-2.31-7.1-6.34Zm14.2-1.85v-1.76h-7.01c-2.65,0-4.03.92-4.03,3.61,0,2.35,1.26,3.86,4.5,3.86,4.16,0,6.55-2.14,6.55-5.71Z"></path><path class="cls-6" d="m308.11,3793.95h2.6l.29,3.49c1.01-2.14,3.28-4.03,7.35-4.03,4.75,0,7.77,2.52,7.77,7.94v13.61h-2.94v-13.27c0-4.33-2.14-5.71-5.5-5.71-3.82,0-6.64,2.69-6.64,5.63v13.36h-2.94v-21Z"></path><path class="cls-6" d="m331.79,3804.5c0-7.1,4.28-11.09,10.04-11.09,3.7,0,6.22,1.6,7.31,3.74h.04v-14.95h2.94v32.77h-1.97l-.67-3.61h-.08c-1.18,2.31-3.95,4.16-7.77,4.16-6.3,0-9.83-3.99-9.83-11.01Zm17.64-.5c0-5.5-3.36-8.07-7.35-8.07-3.11,0-7.14,1.47-7.14,8.4s3.61,8.61,7.14,8.61c4.24,0,7.35-2.73,7.35-8.95Z"></path><path class="cls-6" d="m369.13,3782.19h2.94v32.77h-2.94v-32.77Z"></path><path class="cls-6" d="m377.74,3804.45c0-6.22,3.32-11.05,10.38-11.05,6.59,0,10.25,4.83,10.25,11.05s-3.7,11.05-10.29,11.05c-7.27,0-10.33-4.83-10.33-11.05Zm17.56,0c0-5.33-2.9-8.49-7.22-8.49-4.75,0-7.27,3.15-7.27,8.49s2.56,8.49,7.27,8.49c4.33,0,7.22-3.15,7.22-8.49Z"></path><path class="cls-6" d="m402.56,3804.45c0-6.22,3.32-11.05,10.38-11.05,6.59,0,10.25,4.83,10.25,11.05s-3.7,11.05-10.29,11.05c-7.27,0-10.33-4.83-10.33-11.05Zm17.56,0c0-5.33-2.9-8.49-7.22-8.49-4.75,0-7.27,3.15-7.27,8.49s2.56,8.49,7.27,8.49c4.33,0,7.22-3.15,7.22-8.49Z"></path><path class="cls-6" d="m429.06,3793.95h2.39l.34,3.87h.08c1.13-2.48,4.03-4.41,7.86-4.41,6.3,0,9.66,3.99,9.66,11.01s-4.29,11.09-9.87,11.09c-3.78,0-6.38-1.6-7.43-3.7h-.08v11.55h-2.94v-29.41Zm17.18,10.63c0-7.18-3.4-8.61-6.93-8.61-4.24,0-7.56,2.73-7.56,8.44,0,6.01,3.45,8.57,7.44,8.57,3.02,0,7.06-1.47,7.06-8.4Z"></path><path class="cls-6" d="m472.54,3805.46h-15.96c.17,4.79,2.48,7.48,6.93,7.48,3.82,0,5.67-1.43,5.97-4.83h2.98c-.29,4.24-3.28,7.39-9.03,7.39-7.06,0-9.83-4.66-9.83-10.88s3.23-11.22,10-11.22,8.95,3.99,8.95,10.21v1.85Zm-3.11-2.98c0-4.45-1.72-6.55-5.92-6.55s-6.55,2.65-6.89,6.97h12.81v-.42Z"></path><path class="cls-6" d="m476.73,3804.5c0-7.1,4.28-11.09,10.04-11.09,3.7,0,6.22,1.6,7.31,3.74h.04v-14.95h2.94v32.77h-1.97l-.67-3.61h-.08c-1.18,2.31-3.95,4.16-7.77,4.16-6.3,0-9.83-3.99-9.83-11.01Zm17.64-.5c0-5.5-3.36-8.07-7.35-8.07-3.11,0-7.14,1.47-7.14,8.4s3.61,8.61,7.14,8.61c4.24,0,7.35-2.73,7.35-8.95Z"></path><path class="cls-6" d="m512.81,3809.16c0-3.95,2.23-6.09,7.86-6.09h6.34v-1.72c0-2.98-1.26-5.42-5.46-5.42-3.95,0-5.33,1.51-5.33,4.12v.88h-2.98v-.84c0-5,4.2-6.68,8.32-6.68,5.8,0,8.4,2.86,8.4,8.44v13.11h-2.06l-.55-2.98h-.08c-1.26,1.89-3.7,3.53-7.35,3.53-4.92,0-7.1-2.31-7.1-6.34Zm14.2-1.85v-1.76h-7.01c-2.65,0-4.03.92-4.03,3.61,0,2.35,1.26,3.86,4.5,3.86,4.16,0,6.55-2.14,6.55-5.71Z"></path><path class="cls-6" d="m535.41,3808.53v-1.18h2.94v1.13c0,2.86,2.14,4.49,5.96,4.49s5.8-1.01,5.8-3.78c0-2.06-1.01-2.81-3.86-3.32l-4.62-.84c-3.02-.55-5.54-2.02-5.54-5.5,0-3.15,2.35-6.13,8.4-6.13s8.4,3.02,8.4,7.23v.88h-2.98v-.76c0-3.45-2.14-4.92-5.42-4.92-3.95,0-5.33,1.34-5.33,3.36s1.01,2.86,3.91,3.4l4.03.76c4.12.76,6.09,1.93,6.09,5.59,0,4.58-4.12,6.55-8.78,6.55-7.31,0-8.99-3.28-8.99-6.97Z"></path><path class="cls-6" d="m557.37,3804.62c0-6.38,3.23-11.22,10-11.22s8.95,3.91,8.95,8.95v.42h-3.11v-.63c0-3.82-1.64-6.09-5.84-6.09-4.75,0-7.01,3.11-7.01,8.4,0,5.63,2.39,8.49,6.93,8.49,3.82,0,5.84-1.85,5.92-5.67h3.02c-.08,4.66-3.15,8.23-9.03,8.23-7.22,0-9.83-4.75-9.83-10.88Z"></path><path class="cls-6" d="m599.46,3805.46h-15.96c.17,4.79,2.48,7.48,6.93,7.48,3.82,0,5.67-1.43,5.97-4.83h2.98c-.29,4.24-3.28,7.39-9.03,7.39-7.06,0-9.83-4.66-9.83-10.88s3.23-11.22,10-11.22,8.95,3.99,8.95,10.21v1.85Zm-3.11-2.98c0-4.45-1.72-6.55-5.92-6.55s-6.55,2.65-6.89,6.97h12.81v-.42Z"></path><path class="cls-6" d="m605.33,3793.95h2.6l.29,3.49c1.01-2.14,3.28-4.03,7.35-4.03,4.75,0,7.77,2.52,7.77,7.94v13.61h-2.94v-13.27c0-4.33-2.14-5.71-5.5-5.71-3.82,0-6.64,2.69-6.64,5.63v13.36h-2.94v-21Z"></path><path class="cls-6" d="m629.02,3804.5c0-7.1,4.28-11.09,10.04-11.09,3.7,0,6.22,1.6,7.31,3.74h.04v-14.95h2.94v32.77h-1.97l-.67-3.61h-.08c-1.18,2.31-3.95,4.16-7.77,4.16-6.3,0-9.83-3.99-9.83-11.01Zm17.64-.5c0-5.5-3.36-8.07-7.35-8.07-3.11,0-7.14,1.47-7.14,8.4s3.61,8.61,7.14,8.61c4.24,0,7.35-2.73,7.35-8.95Z"></path><path class="cls-6" d="m673.96,3805.46h-15.96c.17,4.79,2.48,7.48,6.93,7.48,3.82,0,5.67-1.43,5.97-4.83h2.98c-.29,4.24-3.28,7.39-9.03,7.39-7.06,0-9.83-4.66-9.83-10.88s3.23-11.22,10-11.22,8.95,3.99,8.95,10.21v1.85Zm-3.11-2.98c0-4.45-1.72-6.55-5.92-6.55s-6.55,2.65-6.89,6.97h12.81v-.42Z"></path><path class="cls-6" d="m679.84,3793.95h2.6l.29,3.91c1.01-2.14,3.07-4.45,6.76-4.45,1.26,0,2.18.21,3.02.55v3.15c-1.13-.5-2.1-.76-3.4-.76-3.74,0-6.34,2.81-6.34,5.75v12.85h-2.94v-21Z"></path><path class="cls-6" d="m695.04,3808.53v-1.18h2.94v1.13c0,2.86,2.14,4.49,5.96,4.49s5.8-1.01,5.8-3.78c0-2.06-1.01-2.81-3.86-3.32l-4.62-.84c-3.02-.55-5.54-2.02-5.54-5.5,0-3.15,2.35-6.13,8.4-6.13s8.4,3.02,8.4,7.23v.88h-2.98v-.76c0-3.45-2.14-4.92-5.42-4.92-3.95,0-5.33,1.34-5.33,3.36s1.01,2.86,3.91,3.4l4.03.76c4.12.76,6.09,1.93,6.09,5.59,0,4.58-4.12,6.55-8.78,6.55-7.31,0-8.99-3.28-8.99-6.97Z"></path><path class="cls-6" d="m727.09,3809.16c0-3.95,2.23-6.09,7.86-6.09h6.34v-1.72c0-2.98-1.26-5.42-5.46-5.42-3.95,0-5.33,1.51-5.33,4.12v.88h-2.98v-.84c0-5,4.2-6.68,8.32-6.68,5.8,0,8.4,2.86,8.4,8.44v13.11h-2.06l-.55-2.98h-.08c-1.26,1.89-3.7,3.53-7.35,3.53-4.92,0-7.1-2.31-7.1-6.34Zm14.2-1.85v-1.76h-7.01c-2.65,0-4.03.92-4.03,3.61,0,2.35,1.26,3.86,4.5,3.86,4.16,0,6.55-2.14,6.55-5.71Z"></path><path class="cls-6" d="m751.58,3793.95h2.6l.29,3.49c1.01-2.14,3.28-4.03,7.35-4.03,4.75,0,7.77,2.52,7.77,7.94v13.61h-2.94v-13.27c0-4.33-2.14-5.71-5.5-5.71-3.82,0-6.64,2.69-6.64,5.63v13.36h-2.94v-21Z"></path><path class="cls-6" d="m775.26,3804.5c0-7.1,4.28-11.09,10.04-11.09,3.7,0,6.22,1.6,7.31,3.74h.04v-14.95h2.94v32.77h-1.97l-.67-3.61h-.08c-1.18,2.31-3.95,4.16-7.77,4.16-6.3,0-9.83-3.99-9.83-11.01Zm17.64-.5c0-5.5-3.36-8.07-7.35-8.07-3.11,0-7.14,1.47-7.14,8.4s3.61,8.61,7.14,8.61c4.24,0,7.35-2.73,7.35-8.95Z"></path><path class="cls-6" d="m810.92,3804.5c0-7.1,4.28-11.09,10.04-11.09,3.7,0,6.22,1.6,7.31,3.74h.04v-14.95h2.94v32.77h-1.97l-.67-3.61h-.08c-1.18,2.31-3.95,4.16-7.77,4.16-6.3,0-9.83-3.99-9.83-11.01Zm17.64-.5c0-5.5-3.36-8.07-7.35-8.07-3.11,0-7.14,1.47-7.14,8.4s3.61,8.61,7.14,8.61c4.24,0,7.35-2.73,7.35-8.95Z"></path><path class="cls-6" d="m855.86,3805.46h-15.96c.17,4.79,2.48,7.48,6.93,7.48,3.82,0,5.67-1.43,5.97-4.83h2.98c-.29,4.24-3.28,7.39-9.03,7.39-7.06,0-9.83-4.66-9.83-10.88s3.23-11.22,10-11.22,8.95,3.99,8.95,10.21v1.85Zm-3.11-2.98c0-4.45-1.72-6.55-5.92-6.55s-6.55,2.65-6.89,6.97h12.81v-.42Z"></path><path class="cls-6" d="m859.85,3808.53v-1.18h2.94v1.13c0,2.86,2.14,4.49,5.96,4.49s5.8-1.01,5.8-3.78c0-2.06-1.01-2.81-3.86-3.32l-4.62-.84c-3.02-.55-5.54-2.02-5.54-5.5,0-3.15,2.35-6.13,8.4-6.13s8.4,3.02,8.4,7.23v.88h-2.98v-.76c0-3.45-2.14-4.92-5.42-4.92-3.95,0-5.33,1.34-5.33,3.36s1.01,2.86,3.91,3.4l4.03.76c4.12.76,6.09,1.93,6.09,5.59,0,4.58-4.12,6.55-8.78,6.55-7.31,0-8.99-3.28-8.99-6.97Z"></path><path class="cls-6" d="m881.81,3804.62c0-6.38,3.23-11.22,10-11.22s8.95,3.91,8.95,8.95v.42h-3.11v-.63c0-3.82-1.64-6.09-5.84-6.09-4.75,0-7.01,3.11-7.01,8.4,0,5.63,2.39,8.49,6.93,8.49,3.82,0,5.84-1.85,5.92-5.67h3.02c-.08,4.66-3.15,8.23-9.03,8.23-7.22,0-9.83-4.75-9.83-10.88Z"></path><path class="cls-6" d="m923.9,3805.46h-15.96c.17,4.79,2.48,7.48,6.93,7.48,3.82,0,5.67-1.43,5.97-4.83h2.98c-.29,4.24-3.28,7.39-9.03,7.39-7.06,0-9.83-4.66-9.83-10.88s3.23-11.22,10-11.22,8.95,3.99,8.95,10.21v1.85Zm-3.11-2.98c0-4.45-1.72-6.55-5.92-6.55s-6.55,2.65-6.89,6.97h12.81v-.42Z"></path><path class="cls-6" d="m929.78,3793.95h2.6l.29,3.49c1.01-2.14,3.28-4.03,7.35-4.03,4.75,0,7.77,2.52,7.77,7.94v13.61h-2.94v-13.27c0-4.33-2.14-5.71-5.5-5.71-3.82,0-6.64,2.69-6.64,5.63v13.36h-2.94v-21Z"></path><path class="cls-6" d="m953.46,3804.5c0-7.1,4.28-11.09,10.04-11.09,3.7,0,6.22,1.6,7.31,3.74h.04v-14.95h2.94v32.77h-1.97l-.67-3.61h-.08c-1.18,2.31-3.95,4.16-7.77,4.16-6.3,0-9.83-3.99-9.83-11.01Zm17.64-.5c0-5.5-3.36-8.07-7.35-8.07-3.11,0-7.14,1.47-7.14,8.4s3.61,8.61,7.14,8.61c4.24,0,7.35-2.73,7.35-8.95Z"></path><path class="cls-6" d="m998.41,3805.46h-15.96c.17,4.79,2.48,7.48,6.93,7.48,3.82,0,5.67-1.43,5.97-4.83h2.98c-.29,4.24-3.28,7.39-9.03,7.39-7.06,0-9.83-4.66-9.83-10.88s3.23-11.22,10-11.22,8.95,3.99,8.95,10.21v1.85Zm-3.11-2.98c0-4.45-1.72-6.55-5.92-6.55s-6.55,2.65-6.89,6.97h12.81v-.42Z"></path><path class="cls-6" d="m1004.28,3793.95h2.6l.29,3.91c1.01-2.14,3.07-4.45,6.76-4.45,1.26,0,2.18.21,3.02.55v3.15c-1.13-.5-2.1-.76-3.4-.76-3.74,0-6.34,2.81-6.34,5.75v12.85h-2.94v-21Z"></path><path class="cls-6" d="m1019.49,3808.53v-1.18h2.94v1.13c0,2.86,2.14,4.49,5.96,4.49s5.8-1.01,5.8-3.78c0-2.06-1.01-2.81-3.86-3.32l-4.62-.84c-3.02-.55-5.54-2.02-5.54-5.5,0-3.15,2.35-6.13,8.4-6.13s8.4,3.02,8.4,7.23v.88h-2.98v-.76c0-3.45-2.14-4.92-5.42-4.92-3.95,0-5.33,1.34-5.33,3.36s1.01,2.86,3.91,3.4l4.03.76c4.12.76,6.09,1.93,6.09,5.59,0,4.58-4.12,6.55-8.78,6.55-7.31,0-8.99-3.28-8.99-6.97Z"></path><line class="cls-2" x1="920.01" y1="3844.78" x2="920.01" y2="3893.7"></line><g class="cls-13"><path class="cls-8" d="m1864.97,4302.28c-6.12,6.13-34.57,42.5-57.27,70.23-29.18,36.02-68.07,78.16-90.41,78.16-12.96,0-12.96-12.97-12.96-23.77v-113.45c0-14.41-10.81-19.09-20.89-19.09-17.65,0-45.74,15.13-64.83,15.13-9,0-22.33-3.6-45.74-15.49-5.04-2.52-9.01.72-10.45,2.52-2.52,3.25-5.76,10.09-8.28,14.41-19.45,32.77-73.12,135.78-105.18,135.78-12.25,0-12.25-9.01-12.25-19.81l-.72-126.42c-7.21-1.8-16.57-3.24-30.98-3.24-49.52,0-87.74,16.81-109.98,43.94-24.78,26.92-99.5,105.53-130.98,105.53-12.25,0-12.25-9.01-12.25-19.81l-.41-139.45,50.84-4.26c1.08,0,1.8-.72,1.8-1.8v-19.45c0-1.08-.72-1.8-1.8-1.8l-50.91,4.26-.24-81.34h-.04l-1.04-68.79c0-6.48-3.24-15.49-18.01-15.49-6.48,0-11.53,1.44-22.69,20.89-30.98,49.7-66.63,90.4-119.94,144.79-42.66,43.59-88.11,86.21-128.58,121.75v-136.95c37.23-55.3,87.88-170.84,87.88-248.8,0-39.98-24.49-63.75-51.5-63.75-31.74,0-74.85,32.46-76.65,104.45h-.07v256.36c-2.4,3.5-5.28,9.49-7.57,13.41-19.45,32.77-121.76,135.78-153.81,135.78-12.25,0-12.25-9.01-12.25-19.81l-.72-126.42c-7.2-1.8-16.57-3.24-30.98-3.24-25.24,0-47.55,4.37-66.3,12.25-32.41,1.61-76.97,5.01-119.9,9.61,10.69-31.91,16.92-69.73,16.92-114.42,0-156.68-76.35-268.33-263.28-268.33H51.13c-5.04,0-9.36,4.32-9.36,9.36s4.32,9.36,9.36,9.36h40.7v520.09h41.06v-16.66c9.98,13.26,32.81,20.99,67.71,20.99,68.67,0,173.82-29.89,220.95-140.84,32.8-3.78,62.25-6.12,94.04-8.36-20.76,18.73-32.25,44.27-32.25,73.56,0,41.78,23.41,74.92,69.51,74.92,16.95,0,34.91-5,58.32-16.57,5.07,8.75,14.53,15.13,29.56,15.13,2.16,0,13.32,0,29.53-9.73,38.38-22.82,119.27-96.1,150.21-138.89v91.95c-21.02,17.4-39.43,31.65-53.67,41.54-2.16,1.45-2.16,3.96-.36,5.4l54.03,43.34v100.73h40.34v-200.34c39.46-34.21,87.4-78.83,132.9-125.62,46.05-47.28,89.17-94.3,117.78-135.82v117.85l-51.15,4.28c-1.08,0-1.8.72-1.8,1.8v19.45c0,1.08.72,1.8,1.8,1.8l51.15-4.28v153.04c0,16.57,9.72,33.5,34.22,33.5,31.98,0,90.96-52.44,129.7-95.05-1.45,6.91-2.2,14.12-2.2,21.57,0,41.78,23.41,74.92,69.51,74.92,16.95,0,34.91-5,58.32-16.57,5.07,8.75,14.53,15.13,29.56,15.13,2.16,0,13.33,0,29.53-9.73,39.98-23.77,77.44-102.29,105.18-144.07,2.52-3.96,6.84-3.6,10.45-1.8,12.6,6.12,22.69,15.13,46.46,15.13,16.57,0,27.37-5.76,33.5-6.84,5.76-1.08,8.28.36,7.92,7.2l.36,13.33v93.29c0,16.57,9.72,33.5,32.77,33.5,43.94,0,85.72-43.59,119.94-85.36,21.25-25.93,50.78-62.67,60.15-75.64,5.4-7.57-6.48-19.45-11.89-14.05Zm-1732.09,118.71v-465.92h49.7c99.77,0,216.82,89.32,216.82,266.89,0,39.59-5.81,73.64-15.91,102.6-148.95,20.22-229.4,59.26-250.62,96.44Zm63.75,39.76c-34.94,0-50.78-9.37-50.78-21.25,0-23.94,63.32-69.88,229.59-94.82-37.2,81.67-111.56,116.07-178.8,116.07Zm320.19-59.07c0-39.31,27.67-86.78,89.68-87.51v121.15c-12.44,12.29-26.48,18.58-43.22,18.58-33.14,0-46.46-25.21-46.46-52.22Zm343.98-355.85c0-64.47,14.77-90.4,36.38-90.4,16.57,0,32.77,15.84,32.77,45.02,0,63.33-36.35,154.5-69.15,212.82v-167.44Zm-40.34,442.43l-24.85-19.23c-1.8-1.44-2.52-3.24,0-5.04,6.94-4.93,15.32-11.32,24.85-18.93v43.2Zm486.23-86.58c0-39.31,27.67-86.78,89.68-87.51v121.15c-12.44,12.29-26.48,18.58-43.22,18.58-33.14,0-46.46-25.21-46.46-52.22Z"></path></g><g class="cls-12"><path class="cls-8" d="m1864.97,4302.28c-6.12,6.13-34.57,42.5-57.27,70.23-29.18,36.02-68.07,78.16-90.41,78.16-12.96,0-12.96-12.97-12.96-23.77v-113.45c0-14.41-10.81-19.09-20.89-19.09-17.65,0-45.74,15.13-64.83,15.13-9,0-22.33-3.6-45.74-15.49-5.04-2.52-9.01.72-10.45,2.52-2.52,3.25-5.76,10.09-8.28,14.41-19.45,32.77-73.12,135.78-105.18,135.78-12.25,0-12.25-9.01-12.25-19.81l-.72-126.42c-7.21-1.8-16.57-3.24-30.98-3.24-49.52,0-87.74,16.81-109.98,43.94-24.78,26.92-99.5,105.53-130.98,105.53-12.25,0-12.25-9.01-12.25-19.81l-.41-139.45,50.84-4.26c1.08,0,1.8-.72,1.8-1.8v-19.45c0-1.08-.72-1.8-1.8-1.8l-50.91,4.26-.24-81.34h-.04l-1.04-68.79c0-6.48-3.24-15.49-18.01-15.49-6.48,0-11.53,1.44-22.69,20.89-30.98,49.7-66.63,90.4-119.94,144.79-42.66,43.59-88.11,86.21-128.58,121.75v-136.95c37.23-55.3,87.88-170.84,87.88-248.8,0-39.98-24.49-63.75-51.5-63.75-31.74,0-74.85,32.46-76.65,104.45h-.07v256.36c-2.4,3.5-5.28,9.49-7.57,13.41-19.45,32.77-121.76,135.78-153.81,135.78-12.25,0-12.25-9.01-12.25-19.81l-.72-126.42c-7.2-1.8-16.57-3.24-30.98-3.24-25.24,0-47.55,4.37-66.3,12.25-32.41,1.61-76.97,5.01-119.9,9.61,10.69-31.91,16.92-69.73,16.92-114.42,0-156.68-76.35-268.33-263.28-268.33H51.13c-5.04,0-9.36,4.32-9.36,9.36s4.32,9.36,9.36,9.36h40.7v520.09h41.06v-16.66c9.98,13.26,32.81,20.99,67.71,20.99,68.67,0,173.82-29.89,220.95-140.84,32.8-3.78,62.25-6.12,94.04-8.36-20.76,18.73-32.25,44.27-32.25,73.56,0,41.78,23.41,74.92,69.51,74.92,16.95,0,34.91-5,58.32-16.57,5.07,8.75,14.53,15.13,29.56,15.13,2.16,0,13.32,0,29.53-9.73,38.38-22.82,119.27-96.1,150.21-138.89v91.95c-21.02,17.4-39.43,31.65-53.67,41.54-2.16,1.45-2.16,3.96-.36,5.4l54.03,43.34v100.73h40.34v-200.34c39.46-34.21,87.4-78.83,132.9-125.62,46.05-47.28,89.17-94.3,117.78-135.82v117.85l-51.15,4.28c-1.08,0-1.8.72-1.8,1.8v19.45c0,1.08.72,1.8,1.8,1.8l51.15-4.28v153.04c0,16.57,9.72,33.5,34.22,33.5,31.98,0,90.96-52.44,129.7-95.05-1.45,6.91-2.2,14.12-2.2,21.57,0,41.78,23.41,74.92,69.51,74.92,16.95,0,34.91-5,58.32-16.57,5.07,8.75,14.53,15.13,29.56,15.13,2.16,0,13.33,0,29.53-9.73,39.98-23.77,77.44-102.29,105.18-144.07,2.52-3.96,6.84-3.6,10.45-1.8,12.6,6.12,22.69,15.13,46.46,15.13,16.57,0,27.37-5.76,33.5-6.84,5.76-1.08,8.28.36,7.92,7.2l.36,13.33v93.29c0,16.57,9.72,33.5,32.77,33.5,43.94,0,85.72-43.59,119.94-85.36,21.25-25.93,50.78-62.67,60.15-75.64,5.4-7.57-6.48-19.45-11.89-14.05Zm-1732.09,118.71v-465.92h49.7c99.77,0,216.82,89.32,216.82,266.89,0,39.59-5.81,73.64-15.91,102.6-148.95,20.22-229.4,59.26-250.62,96.44Zm63.75,39.76c-34.94,0-50.78-9.37-50.78-21.25,0-23.94,63.32-69.88,229.59-94.82-37.2,81.67-111.56,116.07-178.8,116.07Zm320.19-59.07c0-39.31,27.67-86.78,89.68-87.51v121.15c-12.44,12.29-26.48,18.58-43.22,18.58-33.14,0-46.46-25.21-46.46-52.22Zm343.98-355.85c0-64.47,14.77-90.4,36.38-90.4,16.57,0,32.77,15.84,32.77,45.02,0,63.33-36.35,154.5-69.15,212.82v-167.44Zm-40.34,442.43l-24.85-19.23c-1.8-1.44-2.52-3.24,0-5.04,6.94-4.93,15.32-11.32,24.85-18.93v43.2Zm486.23-86.58c0-39.31,27.67-86.78,89.68-87.51v121.15c-12.44,12.29-26.48,18.58-43.22,18.58-33.14,0-46.46-25.21-46.46-52.22Z"></path></g><polyline class="cls-4" points="1694 4501.32 1694 4760.85 1811.45 4760.85 1811.45 4437.41"></polyline><line class="cls-2" x1="1694" y1="4947.5" x2="1694" y2="4774.04"></line><path class="cls-6" d="m1397.23,4968.53h3.11l10.29,29.49h.08l10.17-29.49h3.11l-11.59,32.77h-3.57l-11.59-32.77Z"></path><path class="cls-6" d="m1427.34,4968.53h2.98v6.51h-2.98v-6.51Zm0,11.76h2.94v21h-2.94v-21Z"></path><path class="cls-6" d="m1435.79,4994.87v-1.18h2.94v1.13c0,2.86,2.14,4.49,5.96,4.49s5.8-1.01,5.8-3.78c0-2.06-1.01-2.81-3.86-3.32l-4.62-.84c-3.02-.55-5.54-2.02-5.54-5.5,0-3.15,2.35-6.13,8.4-6.13s8.4,3.02,8.4,7.23v.88h-2.98v-.76c0-3.45-2.14-4.92-5.42-4.92-3.95,0-5.33,1.34-5.33,3.36s1.01,2.86,3.91,3.4l4.03.76c4.12.76,6.09,1.93,6.09,5.59,0,4.58-4.12,6.55-8.78,6.55-7.31,0-8.99-3.28-8.99-6.97Z"></path><path class="cls-6" d="m1459.43,4968.53h2.98v6.51h-2.98v-6.51Zm0,11.76h2.94v21h-2.94v-21Z"></path><path class="cls-6" d="m1472.58,4997.81h-.08l-.76,3.49h-1.97v-32.77h2.94v15.25h.04c1.26-2.31,4.07-4.03,7.69-4.03,6.3,0,9.66,3.99,9.66,11.01s-4.29,11.09-9.87,11.09c-3.78,0-6.55-1.64-7.65-4.03Zm14.37-6.89c0-7.18-3.4-8.61-6.93-8.61-4.24,0-7.56,2.73-7.56,8.44,0,6.01,3.45,8.57,7.44,8.57,3.02,0,7.06-1.47,7.06-8.4Z"></path><path class="cls-6" d="m1495.34,4968.53h2.94v32.77h-2.94v-32.77Z"></path><path class="cls-6" d="m1522.9,4991.8h-15.96c.17,4.79,2.48,7.48,6.93,7.48,3.82,0,5.67-1.43,5.97-4.83h2.98c-.29,4.24-3.28,7.39-9.03,7.39-7.06,0-9.83-4.66-9.83-10.88s3.23-11.22,10-11.22,8.95,3.99,8.95,10.21v1.85Zm-3.11-2.98c0-4.45-1.72-6.55-5.92-6.55s-6.55,2.65-6.89,6.97h12.81v-.42Z"></path><path class="cls-6" d="m1536.54,4994.87v-1.18h2.94v1.13c0,2.86,2.14,4.49,5.96,4.49s5.8-1.01,5.8-3.78c0-2.06-1.01-2.81-3.86-3.32l-4.62-.84c-3.02-.55-5.54-2.02-5.54-5.5,0-3.15,2.35-6.13,8.4-6.13s8.4,3.02,8.4,7.23v.88h-2.98v-.76c0-3.45-2.14-4.92-5.42-4.92-3.95,0-5.33,1.34-5.33,3.36s1.01,2.86,3.91,3.4l4.03.76c4.12.76,6.09,1.93,6.09,5.59,0,4.58-4.12,6.55-8.78,6.55-7.31,0-8.99-3.28-8.99-6.97Z"></path><path class="cls-6" d="m1571.15,4998.61v2.6c-.76.21-2.14.59-4.03.59-3.82,0-6.34-1.6-6.34-6.89v-12.18h-4.16v-2.44h4.16v-6.05l2.94-1.43v7.48h5.92v2.44h-5.92v11.8c0,2.82.76,4.58,3.4,4.58,1.6,0,3.23-.29,4.03-.5Z"></path><path class="cls-6" d="m1575.98,4980.29h2.6l.29,3.91c1.01-2.14,3.07-4.45,6.76-4.45,1.26,0,2.18.21,3.02.55v3.15c-1.13-.5-2.1-.76-3.4-.76-3.74,0-6.34,2.81-6.34,5.75v12.85h-2.94v-21Z"></path><path class="cls-6" d="m1590.97,4990.79c0-6.22,3.32-11.05,10.38-11.05,6.59,0,10.25,4.83,10.25,11.05s-3.7,11.05-10.29,11.05c-7.27,0-10.33-4.83-10.33-11.05Zm17.56,0c0-5.33-2.9-8.49-7.22-8.49-4.75,0-7.27,3.15-7.27,8.49s2.56,8.49,7.27,8.49c4.33,0,7.22-3.15,7.22-8.49Z"></path><path class="cls-6" d="m1616.84,4968.53h2.94v23.23l12.14-11.47h3.65v.04l-8.4,7.86,8.78,13.06v.04h-3.36l-7.39-11.22-5.42,5.04v6.17h-2.94v-32.77Z"></path><path class="cls-6" d="m1657.21,4991.8h-15.96c.17,4.79,2.48,7.48,6.93,7.48,3.82,0,5.67-1.43,5.97-4.83h2.98c-.29,4.24-3.28,7.39-9.03,7.39-7.06,0-9.83-4.66-9.83-10.88s3.23-11.22,10-11.22,8.95,3.99,8.95,10.21v1.85Zm-3.11-2.98c0-4.45-1.72-6.55-5.92-6.55s-6.55,2.65-6.89,6.97h12.81v-.42Z"></path><path class="cls-6" d="m1671.07,4990.96c0-6.38,3.23-11.22,10-11.22s8.95,3.91,8.95,8.95v.42h-3.11v-.63c0-3.82-1.64-6.09-5.84-6.09-4.75,0-7.01,3.11-7.01,8.4,0,5.63,2.39,8.49,6.93,8.49,3.82,0,5.84-1.85,5.92-5.67h3.02c-.08,4.66-3.15,8.23-9.03,8.23-7.22,0-9.83-4.75-9.83-10.88Z"></path><path class="cls-6" d="m1694.21,4990.79c0-6.22,3.32-11.05,10.38-11.05,6.59,0,10.25,4.83,10.25,11.05s-3.7,11.05-10.29,11.05c-7.27,0-10.33-4.83-10.33-11.05Zm17.56,0c0-5.33-2.9-8.49-7.22-8.49-4.75,0-7.27,3.15-7.27,8.49s2.56,8.49,7.27,8.49c4.33,0,7.22-3.15,7.22-8.49Z"></path><path class="cls-6" d="m1720.71,4980.29h2.6l.29,3.49c1.01-2.14,3.28-4.03,7.35-4.03,4.75,0,7.77,2.52,7.77,7.94v13.61h-2.94v-13.27c0-4.33-2.14-5.71-5.5-5.71-3.82,0-6.64,2.69-6.64,5.63v13.36h-2.94v-21Z"></path><path class="cls-6" d="m1757.04,4998.61v2.6c-.76.21-2.14.59-4.03.59-3.82,0-6.34-1.6-6.34-6.89v-12.18h-4.16v-2.44h4.16v-6.05l2.94-1.43v7.48h5.92v2.44h-5.92v11.8c0,2.82.76,4.58,3.4,4.58,1.6,0,3.23-.29,4.03-.5Z"></path><path class="cls-6" d="m1761.87,4980.29h2.6l.29,3.91c1.01-2.14,3.07-4.45,6.76-4.45,1.26,0,2.18.21,3.02.55v3.15c-1.13-.5-2.1-.76-3.4-.76-3.74,0-6.34,2.81-6.34,5.75v12.85h-2.94v-21Z"></path><path class="cls-6" d="m1777.49,4995.5c0-3.95,2.23-6.09,7.86-6.09h6.34v-1.72c0-2.98-1.26-5.42-5.46-5.42-3.95,0-5.33,1.51-5.33,4.12v.88h-2.98v-.84c0-5,4.2-6.68,8.32-6.68,5.8,0,8.4,2.86,8.4,8.44v13.11h-2.06l-.55-2.98h-.08c-1.26,1.89-3.7,3.53-7.35,3.53-4.92,0-7.1-2.31-7.1-6.34Zm14.2-1.85v-1.76h-7.01c-2.65,0-4.03.92-4.03,3.61,0,2.35,1.26,3.86,4.5,3.86,4.16,0,6.55-2.14,6.55-5.71Z"></path><path class="cls-6" d="m1800.09,4994.87v-1.18h2.94v1.13c0,2.86,2.14,4.49,5.96,4.49s5.8-1.01,5.8-3.78c0-2.06-1.01-2.81-3.86-3.32l-4.62-.84c-3.02-.55-5.54-2.02-5.54-5.5,0-3.15,2.35-6.13,8.4-6.13s8.4,3.02,8.4,7.23v.88h-2.98v-.76c0-3.45-2.14-4.92-5.42-4.92-3.95,0-5.33,1.34-5.33,3.36s1.01,2.86,3.91,3.4l4.03.76c4.12.76,6.09,1.93,6.09,5.59,0,4.58-4.12,6.55-8.78,6.55-7.31,0-8.99-3.28-8.99-6.97Z"></path><path class="cls-6" d="m1834.7,4998.61v2.6c-.76.21-2.14.59-4.03.59-3.82,0-6.34-1.6-6.34-6.89v-12.18h-4.16v-2.44h4.16v-6.05l2.94-1.43v7.48h5.92v2.44h-5.92v11.8c0,2.82.76,4.58,3.4,4.58,1.6,0,3.23-.29,4.03-.5Z"></path><circle class="cls-7" cx="742.16" cy="1822.23" r="66.64"></circle><path class="cls-6" d="m396.61,1359.66v-2.02h3.02v2.18c0,3.74,2.6,6.05,7.94,6.05s8.44-1.97,8.44-6.22c0-3.32-1.39-5.17-4.92-6.09l-6.64-1.72c-4.33-1.13-7.18-2.98-7.18-8.15s3.78-8.91,10.92-8.91,10.59,3.44,10.59,9.07v2.94h-3.02v-2.81c0-4.62-3.07-6.51-7.56-6.51-5.12,0-7.81,2.14-7.81,6.01,0,3.61,1.76,4.7,5.54,5.71l5.75,1.55c5.12,1.39,7.43,3.74,7.43,8.65,0,6.09-4.33,9.24-11.47,9.24-9.12,0-11.05-4.7-11.05-8.99Z"></path><path class="cls-6" d="m426.3,1347.09h2.39l.34,3.86h.08c1.13-2.48,4.03-4.41,7.86-4.41,6.3,0,9.66,3.99,9.66,11.01s-4.29,11.09-9.87,11.09c-3.78,0-6.38-1.6-7.43-3.7h-.08v11.55h-2.94v-29.41Zm17.18,10.63c0-7.18-3.4-8.61-6.93-8.61-4.24,0-7.56,2.73-7.56,8.44,0,6.01,3.45,8.57,7.44,8.57,3.02,0,7.06-1.47,7.06-8.4Z"></path><path class="cls-6" d="m452.09,1360.71v-13.61h2.94v13.27c0,4.33,2.14,5.71,5.42,5.71,3.74,0,6.55-2.69,6.55-5.63v-13.36h2.94v21h-2.6l-.25-3.36h-.08c-.97,2.02-3.23,3.91-7.23,3.91-4.66,0-7.69-2.52-7.69-7.94Z"></path><path class="cls-6" d="m477.29,1347.09h2.6l.29,3.91c1.01-2.14,3.07-4.45,6.76-4.45,1.26,0,2.18.21,3.02.55v3.15c-1.13-.5-2.1-.76-3.4-.76-3.74,0-6.34,2.81-6.34,5.75v12.85h-2.94v-21Z"></path><path class="cls-6" d="m494.59,1335.33h2.94v32.77h-2.94v-32.77Z"></path><path class="cls-6" d="m522.15,1358.61h-15.96c.17,4.79,2.48,7.48,6.93,7.48,3.82,0,5.67-1.43,5.97-4.83h2.98c-.29,4.24-3.28,7.39-9.03,7.39-7.06,0-9.83-4.66-9.83-10.88s3.23-11.22,10-11.22,8.95,3.99,8.95,10.21v1.85Zm-3.11-2.98c0-4.45-1.72-6.55-5.92-6.55s-6.55,2.65-6.89,6.97h12.81v-.42Z"></path><path class="cls-6" d="m526.13,1361.67v-1.18h2.94v1.13c0,2.86,2.14,4.5,5.96,4.5s5.8-1.01,5.8-3.78c0-2.06-1.01-2.81-3.86-3.32l-4.62-.84c-3.02-.55-5.54-2.02-5.54-5.5,0-3.15,2.35-6.13,8.4-6.13s8.4,3.02,8.4,7.23v.88h-2.98v-.76c0-3.44-2.14-4.91-5.42-4.91-3.95,0-5.33,1.34-5.33,3.36s1.01,2.86,3.91,3.4l4.03.76c4.12.76,6.09,1.93,6.09,5.59,0,4.58-4.12,6.55-8.78,6.55-7.31,0-8.99-3.28-8.99-6.97Z"></path><path class="cls-6" d="m547.89,1361.67v-1.18h2.94v1.13c0,2.86,2.14,4.5,5.96,4.5s5.8-1.01,5.8-3.78c0-2.06-1.01-2.81-3.86-3.32l-4.62-.84c-3.02-.55-5.54-2.02-5.54-5.5,0-3.15,2.35-6.13,8.4-6.13s8.4,3.02,8.4,7.23v.88h-2.98v-.76c0-3.44-2.14-4.91-5.42-4.91-3.95,0-5.33,1.34-5.33,3.36s1.01,2.86,3.91,3.4l4.03.76c4.12.76,6.09,1.93,6.09,5.59,0,4.58-4.12,6.55-8.78,6.55-7.31,0-8.99-3.28-8.99-6.97Z"></path><path class="cls-6" d="m582.88,1345.79h-3.36v-5.08c0-3.95.88-5.29,3.4-5.97l.67,1.85c-1.76.67-2.06,1.09-2.06,3.78v.34h1.34v5.08Zm5.92,0h-3.36v-5.08c0-3.95.88-5.29,3.4-5.97l.67,1.85c-1.76.67-2.06,1.09-2.06,3.78v.34h1.34v5.08Z"></path><path class="cls-6" d="m592.45,1362.3c0-3.95,2.23-6.09,7.86-6.09h6.34v-1.72c0-2.98-1.26-5.42-5.46-5.42-3.95,0-5.33,1.51-5.33,4.12v.88h-2.98v-.84c0-5,4.2-6.68,8.32-6.68,5.8,0,8.4,2.86,8.4,8.44v13.11h-2.06l-.55-2.98h-.08c-1.26,1.89-3.7,3.53-7.35,3.53-4.92,0-7.1-2.31-7.1-6.34Zm14.2-1.85v-1.76h-7.01c-2.65,0-4.03.92-4.03,3.61,0,2.35,1.26,3.86,4.5,3.86,4.16,0,6.55-2.14,6.55-5.71Z"></path><path class="cls-6" d="m612.53,1344.53c1.76-.67,2.06-1.09,2.06-3.78v-.34h-1.34v-5.08h3.36v5.08c0,3.95-.88,5.29-3.4,5.97l-.67-1.85Zm5.92,0c1.76-.67,2.06-1.09,2.06-3.78v-.34h-1.34v-5.08h3.36v5.08c0,3.95-.88,5.29-3.4,5.97l-.67-1.85Z"></path><path class="cls-6" d="m625.46,1361.88h3.36v6.22c0,3.95-.88,5.29-3.4,5.96l-.67-1.85c1.76-.67,2.06-1.09,2.06-3.78v-.34h-1.34v-6.22Z"></path><path class="cls-6" d="m646.46,1345.79h-3.36v-5.08c0-3.95.88-5.29,3.4-5.97l.67,1.85c-1.76.67-2.06,1.09-2.06,3.78v.34h1.34v5.08Zm5.92,0h-3.36v-5.08c0-3.95.88-5.29,3.4-5.97l.67,1.85c-1.76.67-2.06,1.09-2.06,3.78v.34h1.34v5.08Z"></path><path class="cls-6" d="m656.46,1369.9v-.13h3.11v.13c0,2.9,1.93,4.33,6.13,4.33,4.79,0,7.01-2.94,7.01-7.86v-2.1h-.08c-1.09,2.18-3.65,4.07-7.48,4.07-6.3,0-9.75-3.99-9.75-10.71,0-7.1,4.37-11.09,9.96-11.09,3.78,0,6.55,1.81,7.56,4.12h.13l.29-3.57h2.31v19.16c0,5.88-2.81,10.71-10.33,10.71-6.3,0-8.86-2.98-8.86-7.06Zm16.59-12.77c0-5.5-3.36-8.07-7.35-8.07-3.03,0-7.14,1.47-7.14,8.4s3.57,8.32,7.1,8.32c4.24,0,7.39-2.73,7.39-8.65Z"></path><path class="cls-6" d="m680.27,1344.53c1.76-.67,2.06-1.09,2.06-3.78v-.34h-1.34v-5.08h3.36v5.08c0,3.95-.88,5.29-3.4,5.97l-.67-1.85Zm5.92,0c1.76-.67,2.06-1.09,2.06-3.78v-.34h-1.34v-5.08h3.36v5.08c0,3.95-.88,5.29-3.4,5.97l-.67-1.85Z"></path><path class="cls-6" d="m704.55,1362.3c0-3.95,2.23-6.09,7.86-6.09h6.34v-1.72c0-2.98-1.26-5.42-5.46-5.42-3.95,0-5.33,1.51-5.33,4.12v.88h-2.98v-.84c0-5,4.2-6.68,8.32-6.68,5.8,0,8.4,2.86,8.4,8.44v13.11h-2.06l-.55-2.98h-.08c-1.26,1.89-3.7,3.53-7.35,3.53-4.92,0-7.1-2.31-7.1-6.34Zm14.2-1.85v-1.76h-7.01c-2.65,0-4.03.92-4.03,3.61,0,2.35,1.26,3.86,4.5,3.86,4.16,0,6.55-2.14,6.55-5.71Z"></path><path class="cls-6" d="m729.03,1347.09h2.6l.29,3.49c1.01-2.14,3.28-4.03,7.35-4.03,4.75,0,7.77,2.52,7.77,7.94v13.61h-2.94v-13.27c0-4.33-2.14-5.71-5.5-5.71-3.82,0-6.64,2.69-6.64,5.63v13.36h-2.94v-21Z"></path><path class="cls-6" d="m752.72,1357.64c0-7.1,4.28-11.09,10.04-11.09,3.7,0,6.22,1.6,7.31,3.74h.04v-14.95h2.94v32.77h-1.97l-.67-3.61h-.08c-1.18,2.31-3.95,4.16-7.77,4.16-6.3,0-9.83-3.99-9.83-11.01Zm17.64-.5c0-5.5-3.36-8.07-7.35-8.07-3.11,0-7.14,1.47-7.14,8.4s3.61,8.61,7.14,8.61c4.24,0,7.35-2.73,7.35-8.95Z"></path><path class="cls-6" d="m791.74,1345.79h-3.36v-5.08c0-3.95.88-5.29,3.4-5.97l.67,1.85c-1.76.67-2.06,1.09-2.06,3.78v.34h1.34v5.08Zm5.92,0h-3.36v-5.08c0-3.95.88-5.29,3.4-5.97l.67,1.85c-1.76.67-2.06,1.09-2.06,3.78v.34h1.34v5.08Z"></path><path class="cls-6" d="m817.99,1364.61h-.08c-1.09,2.14-3.65,4.03-7.48,4.03-6.3,0-9.75-3.99-9.75-11.01s4.37-11.09,9.96-11.09c3.78,0,6.6,1.76,7.65,4.28h.04l.29-3.74h2.31v29.41h-2.94v-11.89Zm.34-7.48c0-5.5-3.36-8.07-7.35-8.07-3.03,0-7.14,1.47-7.14,8.4s3.57,8.61,7.1,8.61c4.24,0,7.39-2.73,7.39-8.95Z"></path><path class="cls-6" d="m825.55,1344.53c1.76-.67,2.06-1.09,2.06-3.78v-.34h-1.34v-5.08h3.36v5.08c0,3.95-.88,5.29-3.4,5.97l-.67-1.85Zm5.92,0c1.76-.67,2.06-1.09,2.06-3.78v-.34h-1.34v-5.08h3.36v5.08c0,3.95-.88,5.29-3.4,5.97l-.67-1.85Z"></path><line class="cls-2" x1="741.45" y1="1393.14" x2="741.45" y2="1747.31"></line><g class="cls-11"><path class="cls-8" d="m1864.97,4302.28c-6.12,6.13-34.57,42.5-57.27,70.23-29.18,36.02-68.07,78.16-90.41,78.16-12.96,0-12.96-12.97-12.96-23.77v-113.45c0-14.41-10.81-19.09-20.89-19.09-17.65,0-45.74,15.13-64.83,15.13-9,0-22.33-3.6-45.74-15.49-5.04-2.52-9.01.72-10.45,2.52-2.52,3.25-5.76,10.09-8.28,14.41-19.45,32.77-73.12,135.78-105.18,135.78-12.25,0-12.25-9.01-12.25-19.81l-.72-126.42c-7.21-1.8-16.57-3.24-30.98-3.24-49.52,0-87.74,16.81-109.98,43.94-24.78,26.92-99.5,105.53-130.98,105.53-12.25,0-12.25-9.01-12.25-19.81l-.41-139.45,50.84-4.26c1.08,0,1.8-.72,1.8-1.8v-19.45c0-1.08-.72-1.8-1.8-1.8l-50.91,4.26-.24-81.34h-.04l-1.04-68.79c0-6.48-3.24-15.49-18.01-15.49-6.48,0-11.53,1.44-22.69,20.89-30.98,49.7-66.63,90.4-119.94,144.79-42.66,43.59-88.11,86.21-128.58,121.75v-136.95c37.23-55.3,87.88-170.84,87.88-248.8,0-39.98-24.49-63.75-51.5-63.75-31.74,0-74.85,32.46-76.65,104.45h-.07v256.36c-2.4,3.5-5.28,9.49-7.57,13.41-19.45,32.77-121.76,135.78-153.81,135.78-12.25,0-12.25-9.01-12.25-19.81l-.72-126.42c-7.2-1.8-16.57-3.24-30.98-3.24-25.24,0-47.55,4.37-66.3,12.25-32.41,1.61-76.97,5.01-119.9,9.61,10.69-31.91,16.92-69.73,16.92-114.42,0-156.68-76.35-268.33-263.28-268.33H51.13c-5.04,0-9.36,4.32-9.36,9.36s4.32,9.36,9.36,9.36h40.7v520.09h41.06v-16.66c9.98,13.26,32.81,20.99,67.71,20.99,68.67,0,173.82-29.89,220.95-140.84,32.8-3.78,62.25-6.12,94.04-8.36-20.76,18.73-32.25,44.27-32.25,73.56,0,41.78,23.41,74.92,69.51,74.92,16.95,0,34.91-5,58.32-16.57,5.07,8.75,14.53,15.13,29.56,15.13,2.16,0,13.32,0,29.53-9.73,38.38-22.82,119.27-96.1,150.21-138.89v91.95c-21.02,17.4-39.43,31.65-53.67,41.54-2.16,1.45-2.16,3.96-.36,5.4l54.03,43.34v217.79c0,75.28,44.3,96.53,68.07,96.53,55.11,0,80.32-49.34,80.32-107.33,0-43.22-14.04-91.48-40.7-127.14-18.46-25.01-42.34-48.04-67.35-69.93v-109.51c39.46-34.21,87.4-78.83,132.9-125.62,46.05-47.28,89.17-94.3,117.78-135.82v117.85l-51.15,4.28c-1.08,0-1.8.72-1.8,1.8v19.45c0,1.08.72,1.8,1.8,1.8l51.15-4.28v153.04c0,16.57,9.72,33.5,34.22,33.5,31.98,0,90.96-52.44,129.7-95.05-1.45,6.91-2.2,14.12-2.2,21.57,0,41.78,23.41,74.92,69.51,74.92,16.95,0,34.91-5,58.32-16.57,5.07,8.75,14.53,15.13,29.56,15.13,2.16,0,13.33,0,29.53-9.73,39.98-23.77,77.44-102.29,105.18-144.07,2.52-3.96,6.84-3.6,10.45-1.8,12.6,6.12,22.69,15.13,46.46,15.13,16.57,0,27.37-5.76,33.5-6.84,5.76-1.08,8.28.36,7.92,7.2l.36,13.33v93.29c0,16.57,9.72,33.5,32.77,33.5,43.94,0,85.72-43.59,119.94-85.36,21.25-25.93,50.78-62.67,60.15-75.64,5.4-7.57-6.48-19.45-11.89-14.05Zm-1732.09,118.71v-465.92h49.7c99.77,0,216.82,89.32,216.82,266.89,0,39.59-5.81,73.64-15.91,102.6-148.95,20.22-229.4,59.26-250.62,96.44Zm63.75,39.76c-34.94,0-50.78-9.37-50.78-21.25,0-23.94,63.32-69.88,229.59-94.82-37.2,81.67-111.56,116.07-178.8,116.07Zm320.19-59.07c0-39.31,27.67-86.78,89.68-87.51v121.15c-12.44,12.29-26.48,18.58-43.22,18.58-33.14,0-46.46-25.21-46.46-52.22Zm343.98-355.85c0-64.47,14.77-90.4,36.38-90.4,16.57,0,32.77,15.84,32.77,45.02,0,63.33-36.35,154.5-69.15,212.82v-167.44Zm16.21,517.57c16.93,16.21,29.53,31.69,39.62,47.54,19.81,30.25,29.54,67.71,29.54,99.77,0,45.02-18.37,81.76-52.22,81.76-21.25,0-33.14-11.89-33.14-63.75v-180.88l16.21,15.56Zm-56.55-75.14l-24.85-19.23c-1.8-1.44-2.52-3.24,0-5.04,6.94-4.93,15.32-11.32,24.85-18.93v43.2Zm486.23-86.58c0-39.31,27.67-86.78,89.68-87.51v121.15c-12.44,12.29-26.48,18.58-43.22,18.58-33.14,0-46.46-25.21-46.46-52.22Z"></path></g><path class="cls-6" d="m1177.98,3806.51v-2.02h3.02v2.18c0,3.74,2.6,6.05,7.94,6.05s8.44-1.97,8.44-6.22c0-3.32-1.39-5.17-4.92-6.09l-6.64-1.72c-4.33-1.13-7.18-2.98-7.18-8.15s3.78-8.91,10.92-8.91,10.59,3.44,10.59,9.07v2.94h-3.02v-2.81c0-4.62-3.07-6.51-7.56-6.51-5.12,0-7.81,2.14-7.81,6.01,0,3.61,1.76,4.71,5.55,5.71l5.75,1.55c5.12,1.39,7.43,3.74,7.43,8.65,0,6.09-4.33,9.24-11.47,9.24-9.12,0-11.05-4.71-11.05-8.99Z"></path><path class="cls-6" d="m1207.67,3782.19h2.94v15.16c1.05-2.1,3.28-3.95,7.31-3.95,4.75,0,7.77,2.52,7.77,7.94v13.61h-2.94v-13.27c0-4.33-2.14-5.71-5.5-5.71-3.82,0-6.64,2.69-6.64,5.63v13.36h-2.94v-32.77Z"></path><path class="cls-6" d="m1231.36,3804.45c0-6.22,3.32-11.05,10.38-11.05,6.59,0,10.25,4.83,10.25,11.05s-3.7,11.05-10.29,11.05c-7.27,0-10.33-4.83-10.33-11.05Zm17.56,0c0-5.33-2.9-8.49-7.22-8.49-4.75,0-7.27,3.15-7.27,8.49s2.56,8.49,7.27,8.49c4.33,0,7.22-3.15,7.22-8.49Z"></path><path class="cls-6" d="m1257.86,3793.95h2.6l.29,3.91c1.01-2.14,3.07-4.45,6.76-4.45,1.26,0,2.18.21,3.02.55v3.15c-1.13-.5-2.1-.76-3.4-.76-3.74,0-6.34,2.81-6.34,5.75v12.85h-2.94v-21Z"></path><path class="cls-6" d="m1286.13,3812.27v2.6c-.76.21-2.14.59-4.03.59-3.82,0-6.34-1.6-6.34-6.89v-12.18h-4.16v-2.44h4.16v-6.05l2.94-1.43v7.48h5.92v2.44h-5.92v11.8c0,2.82.76,4.58,3.4,4.58,1.6,0,3.23-.29,4.03-.5Z"></path><path class="cls-6" d="m1299.36,3809.16c0-3.95,2.23-6.09,7.86-6.09h6.34v-1.72c0-2.98-1.26-5.42-5.46-5.42-3.95,0-5.33,1.51-5.33,4.12v.88h-2.98v-.84c0-5,4.2-6.68,8.32-6.68,5.8,0,8.4,2.86,8.4,8.44v13.11h-2.06l-.55-2.98h-.08c-1.26,1.89-3.7,3.53-7.35,3.53-4.92,0-7.1-2.31-7.1-6.34Zm14.2-1.85v-1.76h-7.01c-2.65,0-4.03.92-4.03,3.61,0,2.35,1.26,3.86,4.5,3.86,4.16,0,6.55-2.14,6.55-5.71Z"></path><path class="cls-6" d="m1321.95,3808.53v-1.18h2.94v1.13c0,2.86,2.14,4.49,5.96,4.49s5.8-1.01,5.8-3.78c0-2.06-1.01-2.81-3.86-3.32l-4.62-.84c-3.02-.55-5.54-2.02-5.54-5.5,0-3.15,2.35-6.13,8.4-6.13s8.4,3.02,8.4,7.23v.88h-2.98v-.76c0-3.45-2.14-4.92-5.42-4.92-3.95,0-5.33,1.34-5.33,3.36s1.01,2.86,3.91,3.4l4.03.76c4.12.76,6.09,1.93,6.09,5.59,0,4.58-4.12,6.55-8.78,6.55-7.31,0-8.99-3.28-8.99-6.97Z"></path><path class="cls-6" d="m1343.92,3804.62c0-6.38,3.23-11.22,10-11.22s8.95,3.91,8.95,8.95v.42h-3.11v-.63c0-3.82-1.64-6.09-5.84-6.09-4.75,0-7.01,3.11-7.01,8.4,0,5.63,2.39,8.49,6.93,8.49,3.82,0,5.84-1.85,5.92-5.67h3.02c-.08,4.66-3.15,8.23-9.03,8.23-7.22,0-9.83-4.75-9.83-10.88Z"></path><path class="cls-6" d="m1386,3805.46h-15.96c.17,4.79,2.48,7.48,6.93,7.48,3.82,0,5.67-1.43,5.97-4.83h2.98c-.29,4.24-3.28,7.39-9.03,7.39-7.06,0-9.83-4.66-9.83-10.88s3.23-11.22,10-11.22,8.95,3.99,8.95,10.21v1.85Zm-3.11-2.98c0-4.45-1.72-6.55-5.92-6.55s-6.55,2.65-6.89,6.97h12.81v-.42Z"></path><path class="cls-6" d="m1391.88,3793.95h2.6l.29,3.49c1.01-2.14,3.28-4.03,7.35-4.03,4.75,0,7.77,2.52,7.77,7.94v13.61h-2.94v-13.27c0-4.33-2.14-5.71-5.5-5.71-3.82,0-6.64,2.69-6.64,5.63v13.36h-2.94v-21Z"></path><path class="cls-6" d="m1415.57,3804.5c0-7.1,4.28-11.09,10.04-11.09,3.7,0,6.22,1.6,7.31,3.74h.04v-14.95h2.94v32.77h-1.97l-.67-3.61h-.08c-1.18,2.31-3.95,4.16-7.77,4.16-6.3,0-9.83-3.99-9.83-11.01Zm17.64-.5c0-5.5-3.36-8.07-7.35-8.07-3.11,0-7.14,1.47-7.14,8.4s3.61,8.61,7.14,8.61c4.24,0,7.35-2.73,7.35-8.95Z"></path><path class="cls-6" d="m1460.51,3805.46h-15.96c.17,4.79,2.48,7.48,6.93,7.48,3.82,0,5.67-1.43,5.97-4.83h2.98c-.29,4.24-3.28,7.39-9.03,7.39-7.06,0-9.83-4.66-9.83-10.88s3.23-11.22,10-11.22,8.95,3.99,8.95,10.21v1.85Zm-3.11-2.98c0-4.45-1.72-6.55-5.92-6.55s-6.55,2.65-6.89,6.97h12.81v-.42Z"></path><path class="cls-6" d="m1466.39,3793.95h2.6l.29,3.91c1.01-2.14,3.07-4.45,6.76-4.45,1.26,0,2.18.21,3.02.55v3.15c-1.13-.5-2.1-.76-3.4-.76-3.74,0-6.34,2.81-6.34,5.75v12.85h-2.94v-21Z"></path><path class="cls-6" d="m1491.67,3804.45c0-6.22,3.32-11.05,10.38-11.05,6.59,0,10.25,4.83,10.25,11.05s-3.7,11.05-10.29,11.05c-7.27,0-10.33-4.83-10.33-11.05Zm17.56,0c0-5.33-2.9-8.49-7.22-8.49-4.75,0-7.27,3.15-7.27,8.49s2.56,8.49,7.27,8.49c4.33,0,7.22-3.15,7.22-8.49Z"></path><path class="cls-6" d="m1522.33,3788.91v5.04h5.92v2.44h-5.92v18.57h-2.94v-18.57h-4.16v-2.44h4.16v-5.42c0-5.29,3.15-6.89,6.38-6.89,1.85,0,2.98.29,3.74.55v2.6c-.71-.21-1.89-.46-3.49-.46-2.65,0-3.7,1.76-3.7,4.58Z"></path><path class="cls-6" d="m1544.21,3792.65h-3.36v-5.08c0-3.95.88-5.29,3.4-5.96l.67,1.85c-1.76.67-2.06,1.09-2.06,3.78v.34h1.34v5.08Zm5.92,0h-3.36v-5.08c0-3.95.88-5.29,3.4-5.96l.67,1.85c-1.76.67-2.06,1.09-2.06,3.78v.34h1.34v5.08Z"></path><path class="cls-6" d="m1567.48,3812.27v2.6c-.76.21-2.14.59-4.03.59-3.82,0-6.34-1.6-6.34-6.89v-12.18h-4.16v-2.44h4.16v-6.05l2.94-1.43v7.48h5.92v2.44h-5.92v11.8c0,2.82.76,4.58,3.4,4.58,1.6,0,3.23-.29,4.03-.5Z"></path><path class="cls-6" d="m1569.37,3791.39c1.76-.67,2.06-1.09,2.06-3.78v-.34h-1.34v-5.08h3.36v5.08c0,3.95-.88,5.29-3.4,5.96l-.67-1.85Zm5.92,0c1.76-.67,2.06-1.09,2.06-3.78v-.34h-1.34v-5.08h3.36v5.08c0,3.95-.88,5.29-3.4,5.96l-.67-1.85Z"></path><path class="cls-6" d="m1593.64,3809.16c0-3.95,2.23-6.09,7.86-6.09h6.34v-1.72c0-2.98-1.26-5.42-5.46-5.42-3.95,0-5.33,1.51-5.33,4.12v.88h-2.98v-.84c0-5,4.2-6.68,8.32-6.68,5.8,0,8.4,2.86,8.4,8.44v13.11h-2.06l-.55-2.98h-.08c-1.26,1.89-3.7,3.53-7.35,3.53-4.92,0-7.1-2.31-7.1-6.34Zm14.2-1.85v-1.76h-7.01c-2.65,0-4.03.92-4.03,3.61,0,2.35,1.26,3.86,4.5,3.86,4.16,0,6.55-2.14,6.55-5.71Z"></path><path class="cls-6" d="m1618.13,3793.95h2.6l.29,3.49c1.01-2.14,3.28-4.03,7.35-4.03,4.75,0,7.77,2.52,7.77,7.94v13.61h-2.94v-13.27c0-4.33-2.14-5.71-5.5-5.71-3.82,0-6.64,2.69-6.64,5.63v13.36h-2.94v-21Z"></path><path class="cls-6" d="m1641.82,3804.5c0-7.1,4.28-11.09,10.04-11.09,3.7,0,6.22,1.6,7.31,3.74h.04v-14.95h2.94v32.77h-1.97l-.67-3.61h-.08c-1.18,2.31-3.95,4.16-7.77,4.16-6.3,0-9.83-3.99-9.83-11.01Zm17.64-.5c0-5.5-3.36-8.07-7.35-8.07-3.11,0-7.14,1.47-7.14,8.4s3.61,8.61,7.14,8.61c4.24,0,7.35-2.73,7.35-8.95Z"></path><path class="cls-6" d="m1680.83,3792.65h-3.36v-5.08c0-3.95.88-5.29,3.4-5.96l.67,1.85c-1.76.67-2.06,1.09-2.06,3.78v.34h1.34v5.08Zm5.92,0h-3.36v-5.08c0-3.95.88-5.29,3.4-5.96l.67,1.85c-1.76.67-2.06,1.09-2.06,3.78v.34h1.34v5.08Z"></path><path class="cls-6" d="m1689.78,3804.5c0-7.1,4.28-11.09,10.04-11.09,3.7,0,6.22,1.6,7.31,3.74h.04v-14.95h2.94v32.77h-1.97l-.67-3.61h-.08c-1.18,2.31-3.95,4.16-7.77,4.16-6.3,0-9.83-3.99-9.83-11.01Zm17.64-.5c0-5.5-3.36-8.07-7.35-8.07-3.11,0-7.14,1.47-7.14,8.4s3.61,8.61,7.14,8.61c4.24,0,7.35-2.73,7.35-8.95Z"></path><path class="cls-6" d="m1715.57,3791.39c1.76-.67,2.06-1.09,2.06-3.78v-.34h-1.34v-5.08h3.36v5.08c0,3.95-.88,5.29-3.4,5.96l-.67-1.85Zm5.92,0c1.76-.67,2.06-1.09,2.06-3.78v-.34h-1.34v-5.08h3.36v5.08c0,3.95-.88,5.29-3.4,5.96l-.67-1.85Z"></path><line class="cls-2" x1="1417.98" y1="3844.78" x2="1197.98" y2="4071.15"></line></g><g id="palabras"><path class="cls-7" d="m131.84,698.85c14.77,0,50.43-100.49,103.01-100.49,57.27,0,68.07,118.5,100.85,118.5,23.77,0,76.36-61.59,89.32-73.84,9-10.09,17.65-19.45,34.58-39.26,1.08-1.08,2.16-1.44,3.24-1.44,4.32,0,10.08,6.12,10.08,11.89,0,1.44-.36,3.24-1.8,4.68-55.11,63.03-111.29,125.7-144.79,125.7-18.37,0-29.17-19.09-49.7-59.07-20.17-39.26-34.22-58.35-49.7-58.35-39.62,0-69.15,119.58-113.09,119.58-13.33,0-24.85-11.16-24.85-44.3v-292.46c0-145.87,82.12-207.46,152.35-207.46,33.14,0,67.35,13.69,83.2,32.78,4.68,5.4,5.04,9.36,5.04,12.6,0,9.01-7.56,16.21-16.93,16.21s-18.01-8.28-22.69-25.57c-1.8-6.48-17.29-12.61-40.34-12.61-76.36,0-119.22,47.9-119.22,171.08v300.02c0,1.44.36,1.8,1.44,1.8Z"></path><path class="cls-6" d="m594.66,569.91l-24.13,14.41c-4.68-.36-9.36-.72-14.04-.72-63.03,0-91.13,47.9-91.13,87.52,0,27.01,13.33,52.22,46.46,52.22,18.37,0,33.49-7.57,46.82-22.33l3.96,29.17c-24.85,12.6-43.58,18.01-61.23,18.01-46.1,0-69.51-33.14-69.51-74.91,0-61.59,50.78-106.61,131.82-106.61,14.41,0,23.77,1.44,30.98,3.24Zm-38.9,143.35v-130.02l38.9-13.33v126.42c0,10.81,0,19.81,8.64,19.81,27.37,0,57.27-45.02,85-86.8,24.13-36.74,46.82-70.95,65.19-70.95,15.85,0,27.37,12.97,27.73,31.7l1.8,154.51h-38.9v-141.91c0-6.48-1.44-9.36-3.6-9.36-4.68,0-23.05,25.21-43.94,53.67-27.73,37.46-70.23,99.77-112.37,99.77-18.73,0-28.45-16.93-28.45-33.49Zm299.66-131.82c-25.21,0-56.91,26.29-75.64,42.14l-2.52-25.93c23.41-21.25,60.51-39.26,91.85-39.26,29.53,0,53.67,14.77,53.67,46.1v140.11h-40.34v-129.66c0-23.77-10.8-33.5-27.01-33.5Zm135.42,0c-25.21,0-56.91,26.29-75.63,42.14l-2.52-25.93c23.41-21.25,60.51-39.26,91.85-39.26,29.53,0,53.67,14.77,53.67,46.1v59.43h-40.34v-48.98c0-23.77-10.81-33.5-27.01-33.5Zm27.01,131.82v-87.52h40.34v70.59c0,5.04,0,19.81,8.64,19.81,16.93,0,54.03-54.03,81.04-94.01,10.09-14.41,36.38-63.75,65.19-63.75,15.49,0,19.09,21.25,19.09,32.06v329.56h-40.34v-307.23c0-10.45,0-16.57-1.8-16.57-2.88,0-24.13,32.05-25.57,34.22-35.3,51.14-80.32,116.33-117.77,116.33-18.73,0-28.82-16.57-28.82-33.49Zm282.74-131.82c-25.21,0-56.91,26.29-75.63,42.14l-2.52-25.93c23.41-21.25,60.51-39.26,91.84-39.26,29.54,0,53.67,14.77,53.67,46.1v59.43h-40.34v-48.98c0-23.77-10.81-33.5-27.01-33.5Zm27.01,131.82v-87.52h40.34v70.59c0,10.81,0,19.81,9,19.81,12.97,0,47.18-38.18,76.35-74.19,23.41-28.45,40.7-52.22,46.1-59.07l11.89,14.05c-9.36,12.97-27.73,38.54-48.98,64.47-34.22,41.78-76,85.36-105.17,85.36-19.81,0-29.54-16.93-29.54-33.49Zm203.14-149.83c15.49,0,29.54,10.81,29.9,32.77l1.8,102.29c.36,19.81,10.81,29.54,28.09,29.54,20.17,0,51.5-20.53,70.23-41.06v23.77c-17.28,24.49-51.86,37.46-82.12,37.46s-55.11-12.6-55.11-39.62v-105.89c0-8.29-6.12-14.05-12.25-5.76l-11.89-14.05c8.65-11.16,19.09-19.45,31.33-19.45Zm124.62,149.83v-148.39h40.34v131.46c0,10.81,0,23.77,12.97,23.77,22.33,0,61.23-42.14,90.4-78.16,23.42-28.45,51.15-64.11,57.27-70.23,5.4-5.4,17.29,6.48,11.89,14.05-9.36,12.97-38.89,49.7-60.15,75.63-34.22,41.78-76,85.36-119.94,85.36-23.05,0-32.77-16.93-32.77-33.49Z"></path><g class="cls-17"><path class="cls-8" d="m1017.87,713.26v-87.52h40.34v70.59c0,5.04,0,19.81,8.64,19.81,16.93,0,54.03-54.03,81.04-94.01,10.09-14.41,36.38-63.75,65.19-63.75,15.49,0,19.09,21.25,19.09,32.06v329.56h-40.34v-307.23c0-10.45,0-16.57-1.8-16.57-2.88,0-24.13,32.05-25.57,34.22-35.3,51.14-80.32,116.33-117.77,116.33-18.73,0-28.82-16.57-28.82-33.49Z"></path></g><path class="cls-6" d="m1475.61,1765.59c12.61,0,23.05-10.44,23.05-23.77,0-12.6-10.44-23.05-23.05-23.05-13.32,0-23.77,10.45-23.77,23.05,0,13.33,10.45,23.77,23.77,23.77Z"></path><path class="cls-6" d="m1660.38,1811.69c-12.97,15.49-89.68,108.41-109.13,125.34-3.24,3.24-19.45,19.45-36.02,19.45-12.25,0-12.25-9-12.25-19.81v-105.89c0-23.41-12.25-32.06-27.73-32.06-34.58,0-54.03,33.5-71.68,64.11-7.2,12.61-53.3,95.8-73.12,95.8-5.4,0-8.64-6.48-8.64-21.97l-.72-126.42c-7.2-1.8-16.57-3.24-30.98-3.24-21.05,0-40.05,3.04-56.65,8.62-37.86,9.92-109.42,21.06-156.93,27.4-11.53-25.57-41.06-38.54-71.68-38.54-23.77,0-42.14,15.49-42.14,30.98,0,14.41,16.57,28.45,60.51,28.45,10.81,0,20.89-.72,27.01-1.08,2.52,8.64,3.96,19.45,3.96,30.26,0,35.66-15.85,71.31-49.34,72.75-14.41.36-57.27,0-57.27-59.79v-147.03c37.18-55.26,87.55-170.51,87.88-248.79,0-39.98-24.49-63.75-51.5-63.75-31.73,0-74.85,32.46-76.65,104.45h-.07v256.42c-2.64,3.93-5.25,9.39-7.56,13.35-19.45,32.77-89.96,135.78-122.02,135.78-12.25,0-12.25-9-12.25-19.81l-.72-126.42c-7.2-1.8-16.57-3.24-30.98-3.24-50.29,0-88.93,17.34-111.01,45.22-64.5,67.83-131.35,97.41-190.46,97.41-105.17,0-185.85-94.36-185.85-234.83s83.92-238.8,192.33-238.8c55.11,0,68.43,23.77,91.12,52.95,2.52,3.24,7.2,5.04,12.25,5.04,9.73,0,21.25-7.2,21.25-22.69,0-7.56-3.24-14.77-7.92-19.81-25.57-26.29-66.99-45.74-121.74-45.74-129.66,0-228.71,110.21-228.71,265.45,0,180.09,102.65,277.33,218.26,277.33,60.18,0,123.97-24.98,178.83-81.15-.12,2.06-.18,4.14-.18,6.24,0,41.78,23.41,74.91,69.51,74.91,16.95,0,34.91-5,58.32-16.56,5.07,8.75,14.53,15.12,29.56,15.12,2.52,0,13.32,0,29.53-9.72,38.24-22.74,90.9-97.53,118.42-138.67v67.35c0,38.9,28.45,82.48,87.16,82.48,65.19,0,90.04-56.19,90.04-103.37,0-9.36-1.08-18.37-2.88-26.29,29.41-3.34,61.13-8.2,106.52-16.54-19.22,18.5-29.81,43.17-29.81,71.28,0,41.78,23.41,74.91,69.51,74.91,16.94,0,34.9-5,58.3-16.55,6.19,10.73,17.83,16.55,30.31,16.55,10.08,0,20.17-4.32,28.81-11.16,25.93-20.89,60.51-81.76,80.68-117.06.36-.72,1.08-1.8,1.44-2.52,6.12-10.8,14.77-26.29,26.65-26.29,5.76,0,8.64,6.12,8.64,16.57v105.53c0,16.57,9.73,33.49,34.22,33.49,2.88,0,15.49,0,32.42-9.72,41.78-24.13,112.37-112.73,143.35-155.23,6.84-8.64-5.76-18.73-12.25-10.45Zm-642.55,36.74c-16.57,0-35.3-2.16-35.3-11.53,0-5.04,7.56-7.92,17.29-7.92,14.04,0,32.05,5.04,41.06,18.01-3.24.36-12.6,1.44-23.05,1.44Zm-382.42,63.03c0-39.32,27.67-86.78,89.68-87.5v121.14c-12.44,12.28-26.48,18.58-43.22,18.58-33.14,0-46.46-25.21-46.46-52.22Zm312.19-355.85c0-64.47,14.77-90.4,36.38-90.4,16.57,0,32.78,15.85,32.78,45.02-.29,63.31-36.44,154.43-69.15,212.76v-167.38Zm244.2,355.85c0-39.32,27.67-86.78,89.68-87.5v121.14c-12.44,12.29-26.48,18.59-43.22,18.59-33.14,0-46.46-25.21-46.46-52.22Z"></path><g class="cls-16"><path class="cls-8" d="m1475.61,1765.59c12.61,0,23.05-10.44,23.05-23.77,0-12.6-10.44-23.05-23.05-23.05-13.32,0-23.77,10.45-23.77,23.05,0,13.33,10.45,23.77,23.77,23.77Z"></path><path class="cls-8" d="m1660.38,1811.69c-12.97,15.49-89.68,108.41-109.13,125.34-3.24,3.24-19.45,19.45-36.02,19.45-12.25,0-12.25-9-12.25-19.81v-105.89c0-23.41-12.25-32.06-27.73-32.06-34.58,0-54.03,33.5-71.68,64.11-7.2,12.61-53.3,95.8-73.12,95.8-5.4,0-8.64-6.48-8.64-21.97l-.72-126.42c-7.2-1.8-16.57-3.24-30.98-3.24-21.05,0-40.05,3.04-56.65,8.62-37.86,9.92-109.42,21.06-156.93,27.4-11.53-25.57-41.06-38.54-71.68-38.54-23.77,0-42.14,15.49-42.14,30.98,0,14.41,16.57,28.45,60.51,28.45,10.81,0,20.89-.72,27.01-1.08,2.52,8.64,3.96,19.45,3.96,30.26,0,35.66-15.85,71.31-49.34,72.75-14.41.36-57.27,0-57.27-59.79v-147.03c37.18-55.26,87.55-170.51,87.88-248.79,0-39.98-24.49-63.75-51.5-63.75-31.73,0-74.85,32.46-76.65,104.45h-.07v256.42c-2.64,3.93-5.25,9.39-7.56,13.35-19.45,32.77-89.96,135.78-122.02,135.78-12.25,0-12.25-9-12.25-19.81l-.72-126.42c-7.2-1.8-16.57-3.24-30.98-3.24-50.29,0-88.93,17.34-111.01,45.22-64.5,67.83-131.35,97.41-190.46,97.41-105.17,0-185.85-94.36-185.85-234.83s83.92-238.8,192.33-238.8c55.11,0,68.43,23.77,91.12,52.95,2.52,3.24,7.2,5.04,12.25,5.04,9.73,0,21.25-7.2,21.25-22.69,0-7.56-3.24-14.77-7.92-19.81-25.57-26.29-66.99-45.74-121.74-45.74-129.66,0-228.71,110.21-228.71,265.45,0,180.09,102.65,277.33,218.26,277.33,60.18,0,123.97-24.98,178.83-81.15-.12,2.06-.18,4.14-.18,6.24,0,41.78,23.41,74.91,69.51,74.91,16.95,0,34.91-5,58.32-16.56,5.07,8.75,14.53,15.12,29.56,15.12,2.52,0,13.32,0,29.53-9.72,38.24-22.74,90.9-97.53,118.42-138.67v67.35c0,38.9,28.45,82.48,87.16,82.48,65.19,0,90.04-56.19,90.04-103.37,0-9.36-1.08-18.37-2.88-26.29,29.41-3.34,61.13-8.2,106.52-16.54-19.22,18.5-29.81,43.17-29.81,71.28,0,41.78,23.41,74.91,69.51,74.91,16.94,0,34.9-5,58.3-16.55,6.19,10.73,17.83,16.55,30.31,16.55,10.08,0,20.17-4.32,28.81-11.16,25.93-20.89,60.51-81.76,80.68-117.06.36-.72,1.08-1.8,1.44-2.52,6.12-10.8,14.77-26.29,26.65-26.29,5.76,0,8.64,6.12,8.64,16.57v105.53c0,16.57,9.73,33.49,34.22,33.49,2.88,0,15.49,0,32.42-9.72,41.78-24.13,112.37-112.73,143.35-155.23,6.84-8.64-5.76-18.73-12.25-10.45Zm-642.55,36.74c-16.57,0-35.3-2.16-35.3-11.53,0-5.04,7.56-7.92,17.29-7.92,14.04,0,32.05,5.04,41.06,18.01-3.24.36-12.6,1.44-23.05,1.44Zm-382.42,63.03c0-39.32,27.67-86.78,89.68-87.5v121.14c-12.44,12.28-26.48,18.58-43.22,18.58-33.14,0-46.46-25.21-46.46-52.22Zm312.19-355.85c0-64.47,14.77-90.4,36.38-90.4,16.57,0,32.78,15.85,32.78,45.02-.29,63.31-36.44,154.43-69.15,212.76v-167.38Zm244.2,355.85c0-39.32,27.67-86.78,89.68-87.5v121.14c-12.44,12.29-26.48,18.59-43.22,18.59-33.14,0-46.46-25.21-46.46-52.22Z"></path></g><g class="cls-14"><path class="cls-8" d="m1139.76,3052.9c-14.33,0-22.04,4.41-29.02,18.74-15.06,30.5-45.92,130.79-67.97,204.63-16.9,56.21-21.67,72.74-28.66,92.22-6.25,16.9-15.43,27.19-24.25,27.19-7.35,0-9.92-6.98-15.06-18-9.18-19.11-18-32.7-34.9-32.7-12.86,0-26.45,12.86-37.11,22.78-7.35,6.98-13.59,12.86-17.64,12.86-2.94,0-5.14-1.84-4.78-12.13l-1.84-314.48-42.25-.73c-82.66-1.47-124.18,62.45-124.18,110.95,0,42.25,23.88,76.05,70.91,76.05,17.84,0,36.96-5.45,54.37-15.74v169.31c0,13.59,14.33,26.09,28.66,26.09s30.12-11.75,46.29-31.22c10.29-12.49,18-21.68,26.82-21.68,6.98,0,13.96,5.51,20.21,20.57,10.29,24.62,21.67,32.33,31.59,32.33,21.68,0,30.13-27.55,36.74-45.19,10.29-28.29,8.82-24.62,31.6-100.3,20.57-68.7,40.41-142.18,63.56-188.47,5.14-10.29,12.49-2.57,12.49,5.88l12.86-30.12c-2.2-2.94-5.51-5.51-8.45-8.82Z"></path></g><g class="cls-15"><path class="cls-8" d="m1475.61,1765.59c12.61,0,23.05-10.44,23.05-23.77,0-12.6-10.44-23.05-23.05-23.05-13.32,0-23.77,10.45-23.77,23.05,0,13.33,10.45,23.77,23.77,23.77Z"></path><path class="cls-8" d="m1660.38,1811.69c-12.97,15.49-89.68,108.41-109.13,125.34-3.24,3.24-19.45,19.45-36.02,19.45-12.25,0-12.25-9-12.25-19.81v-105.89c0-23.41-12.25-32.06-27.73-32.06-34.58,0-54.03,33.5-71.68,64.11-7.2,12.61-53.3,95.8-73.12,95.8-5.4,0-8.64-6.48-8.64-21.97l-.72-126.42c-7.2-1.8-16.57-3.24-30.98-3.24-21.05,0-40.05,3.04-56.65,8.62-37.86,9.92-109.42,21.06-156.93,27.4-11.53-25.57-41.06-38.54-71.68-38.54-23.77,0-42.14,15.49-42.14,30.98,0,14.41,16.57,28.45,60.51,28.45,10.81,0,20.89-.72,27.01-1.08,2.52,8.64,3.96,19.45,3.96,30.26,0,35.66-15.85,71.31-49.34,72.75-14.41.36-57.27,0-57.27-59.79v-147.03c37.18-55.26,87.55-170.51,87.88-248.79,0-39.98-24.49-63.75-51.5-63.75-31.73,0-74.85,32.46-76.65,104.45h-.07v256.42c-2.64,3.93-5.25,9.39-7.56,13.35-19.45,32.77-89.96,135.78-122.02,135.78-12.25,0-12.25-9-12.25-19.81l-.72-126.42c-7.2-1.8-16.57-3.24-30.98-3.24-50.29,0-88.93,17.34-111.01,45.22-64.5,67.83-131.35,97.41-190.46,97.41-105.17,0-185.85-94.36-185.85-234.83s83.92-238.8,192.33-238.8c55.11,0,68.43,23.77,91.12,52.95,2.52,3.24,7.2,5.04,12.25,5.04,9.73,0,21.25-7.2,21.25-22.69,0-7.56-3.24-14.77-7.92-19.81-25.57-26.29-66.99-45.74-121.74-45.74-129.66,0-228.71,110.21-228.71,265.45,0,180.09,102.65,277.33,218.26,277.33,60.18,0,123.97-24.98,178.83-81.15-.12,2.06-.18,4.14-.18,6.24,0,41.78,23.41,74.91,69.51,74.91,16.95,0,34.91-5,58.32-16.56,5.07,8.75,14.53,15.12,29.56,15.12,2.52,0,13.32,0,29.53-9.72,38.24-22.74,90.9-97.53,118.42-138.67v67.35c0,38.9,28.45,82.48,87.16,82.48,65.19,0,90.04-56.19,90.04-103.37,0-9.36-1.08-18.37-2.88-26.29,29.41-3.34,61.13-8.2,106.52-16.54-19.22,18.5-29.81,43.17-29.81,71.28,0,41.78,23.41,74.91,69.51,74.91,16.94,0,34.9-5,58.3-16.55,6.19,10.73,17.83,16.55,30.31,16.55,10.08,0,20.17-4.32,28.81-11.16,25.93-20.89,60.51-81.76,80.68-117.06.36-.72,1.08-1.8,1.44-2.52,6.12-10.8,14.77-26.29,26.65-26.29,5.76,0,8.64,6.12,8.64,16.57v105.53c0,16.57,9.73,33.49,34.22,33.49,2.88,0,15.49,0,32.42-9.72,41.78-24.13,112.37-112.73,143.35-155.23,6.84-8.64-5.76-18.73-12.25-10.45Zm-642.55,36.74c-16.57,0-35.3-2.16-35.3-11.53,0-5.04,7.56-7.92,17.29-7.92,14.04,0,32.05,5.04,41.06,18.01-3.24.36-12.6,1.44-23.05,1.44Zm-382.42,63.03c0-39.32,27.67-86.78,89.68-87.5v121.14c-12.44,12.28-26.48,18.58-43.22,18.58-33.14,0-46.46-25.21-46.46-52.22Zm312.19-355.85c0-64.47,14.77-90.4,36.38-90.4,16.57,0,32.78,15.85,32.78,45.02-.29,63.31-36.44,154.43-69.15,212.76v-167.38Zm244.2,355.85c0-39.32,27.67-86.78,89.68-87.5v121.14c-12.44,12.29-26.48,18.59-43.22,18.59-33.14,0-46.46-25.21-46.46-52.22Z"></path></g></g></svg> 