<?xml version="1.0" encoding="UTF-8"?> <svg xmlns="http://www.w3.org/2000/svg" xmlns:xlink="http://www.w3.org/1999/xlink" id="palabras" viewBox="0 0 1920 4085"><defs><style>.cls-1,.cls-2,.cls-3,.cls-4,.cls-5,.cls-6,.cls-7,.cls-8,.cls-9,.cls-10{fill:none;}.cls-11{clip-path:url(#clippath);}.cls-12{fill:#fff;}.cls-13{fill:#937eb9;}.cls-14{fill:#161b31;}.cls-2{stroke-dasharray:0 0 1.74 17.42;}.cls-2,.cls-3,.cls-4,.cls-5,.cls-6,.cls-7,.cls-8,.cls-9,.cls-10{stroke-miterlimit:10;}.cls-2,.cls-3,.cls-4,.cls-5,.cls-6,.cls-7,.cls-8,.cls-10{stroke:#b3a0cd;stroke-linecap:round;stroke-width:7px;}.cls-15{clip-path:url(#clippath-1);}.cls-16{clip-path:url(#clippath-4);}.cls-17{clip-path:url(#clippath-3);}.cls-18{clip-path:url(#clippath-2);}.cls-4{stroke-dasharray:0 0 1.71 17.14;}.cls-5{stroke-dasharray:0 0 2.05 20.47;}.cls-6{stroke-dasharray:0 0 1.75 17.47;}.cls-7{stroke-dasharray:0 0 1.7 17.05;}.cls-8{stroke-dasharray:0 0 1.8 18.03;}.cls-9{stroke:#566789;stroke-width:3.5px;}.cls-10{stroke-dasharray:0 0 1.63 16.29;}</style><clipPath id="clippath"><rect class="cls-1" x="591.05" y="1731.47" width="152.21" height="152.21" rx="76.1" ry="76.1"></rect></clipPath><clipPath id="clippath-1"><rect class="cls-1" x="879.3" y="2180.72" width="261.84" height="261.84" rx="130.92" ry="130.92"></rect></clipPath><clipPath id="clippath-2"><rect class="cls-1" x="927.83" y="1190.63" width="261.84" height="261.84" rx="130.92" ry="130.92"></rect></clipPath><clipPath id="clippath-3"><rect class="cls-1" x="613.92" y="2535.81" width="117.72" height="117.72" rx="58.86" ry="58.86"></rect></clipPath><clipPath id="clippath-4"><rect class="cls-1" x="1304.84" y="2519.98" width="114.07" height="114.07" rx="57.04" ry="57.04"></rect></clipPath></defs><rect class="cls-14" x="1.29" y=".82" width="1920" height="4085"></rect><line class="cls-9" x1=".59" y1="204.66" x2="1920.59" y2="204.66"></line><line class="cls-9" x1="3.28" y1="429.42" x2="1923.28" y2="429.42"></line><line class="cls-9" x1="1923.28" y1="619.57" x2="3.28" y2="619.57"></line><line class="cls-9" x1="3.28" y1="848.81" x2="1923.28" y2="848.81"></line><line class="cls-9" x1="-1.4" y1="1197.34" x2="1918.6" y2="1197.34"></line><line class="cls-9" x1="1.29" y1="1422.1" x2="1921.29" y2="1422.1"></line><line class="cls-9" x1="1921.29" y1="1612.25" x2="1.29" y2="1612.25"></line><line class="cls-9" x1="1.29" y1="1841.49" x2="1921.29" y2="1841.49"></line><line class="cls-9" x1="-1.4" y1="2190.03" x2="1918.6" y2="2190.03"></line><line class="cls-9" x1="1.29" y1="2414.78" x2="1921.29" y2="2414.78"></line><line class="cls-9" x1="1921.29" y1="2604.93" x2="1.29" y2="2604.93"></line><line class="cls-9" x1="1.29" y1="2834.17" x2="1921.29" y2="2834.17"></line><line class="cls-9" x1="-1.4" y1="3191.75" x2="1918.6" y2="3191.75"></line><line class="cls-9" x1="1.29" y1="3416.51" x2="1921.29" y2="3416.51"></line><line class="cls-9" x1="1921.29" y1="3606.66" x2="1.29" y2="3606.66"></line><line class="cls-9" x1="1.29" y1="3835.9" x2="1921.29" y2="3835.9"></line><line class="cls-3" x1="1228.77" y1="3627.67" x2="1228.77" y2="3628.54"></line><line class="cls-2" x1="1228.77" y1="3645.96" x2="1228.77" y2="3886.3"></line><line class="cls-3" x1="1228.77" y1="3895.01" x2="1228.77" y2="3895.88"></line><path class="cls-12" d="m389.85,3530.91c0-39.86,31.06-77.14,74.03-109.75-.52-64.71,1.55-130.46,26.4-187.4-32.61,19.15-93.7,36.24-84.9,84.9,1.55,10.35-13.46,12.94-15.53,3.11-12.94-75.58,85.94-80.76,120.62-124.76,6.73-8.8,18.64.52,12.42,9.32-38.31,53.84-43.49,130.46-43.49,203.45,14.5-9.84,30.03-19.67,45.56-28.99,22.78-12.94,55.39-32.61,84.38-56.95,5.69-49.18,17.6-99.91,39.34-120.1,11.39-9.84,44-19.67,44,14.5,0,42.45-31.06,81.28-68.85,113.89-3.62,32.61-4.66,63.16-4.66,80.24,0,66.78,18.64,174.46,96.29,174.46,10.35,0,10.35,15.53,0,15.53-95.25,0-111.82-128.39-111.82-189.99,0-16.57,1.04-40.9,3.11-66.78-25.37,19.67-52.29,36.24-74.03,48.66-19.15,11.39-37.27,22.78-53.32,34.68,0,26.4,1.04,52.29.52,75.58,0,30.54.52,97.84-44.52,97.84-35.2,0-45.56-44.52-45.56-71.44Zm74.55-26.4c.52-20.71,0-41.93-.52-63.68-35.72,28.99-58.5,59.53-58.5,90.08,0,17.6,6.21,55.91,30.03,55.91,30.54,0,28.99-62.12,28.99-82.31Zm212.77-286.28c0-7.25-5.69-13.98-17.6-3.11-16.57,15.01-26.4,53.32-32.61,93.18,28.47-26.92,50.22-57.98,50.22-90.08Z"></path><path class="cls-12" d="m715.46,3586.82c28.47,0,57.46-28.47,57.46-75.58v-85.94c0-10.35,15.53-10.35,15.53,0v85.94c0,47.11,28.99,75.58,56.95,75.58,10.35,0,10.35,15.53,0,15.53-27.96,0-52.8-19.15-64.71-49.18-12.42,30.03-37.27,49.18-65.23,49.18-10.35,0-10.35-15.53,0-15.53Zm54.36-222.09c0-7.77,6.73-10.87,10.87-10.87,3.62,0,10.35,3.11,10.35,10.87,0,7.25-6.73,10.35-10.35,10.35-4.14,0-10.87-3.11-10.87-10.35Z"></path><path class="cls-12" d="m845.39,3586.82c23.81,0,48.66-23.81,48.66-64.71v-11.91c0-49.18,38.83-92.67,83.35-92.67s82.31,44,82.31,92.67v11.91c0,40.9,24.85,64.71,49.18,64.71,10.35,0,10.35,15.53,0,15.53-26.4,0-49.7-19.15-59.53-48.14-13.98,27.96-41.41,48.14-71.96,48.14s-57.98-20.19-72.48-48.66c-9.84,29.51-33.13,48.66-59.53,48.66-10.35,0-10.35-15.53,0-15.53Zm198.79-76.62c0-41.93-32.1-77.14-66.78-77.14s-67.82,35.2-67.82,77.14,33.13,76.62,67.82,76.62,66.78-34.68,66.78-76.62Z"></path><path class="cls-12" d="m1108.88,3586.82c31.06,0,62.12-31.06,62.12-81.79v-180.15h-66.26c-10.35,0-10.35-15.53,0-15.53h66.26v-107.68c0-10.35,15.53-10.35,15.53,0v107.68h66.26c10.35,0,10.35,15.53,0,15.53h-66.26v180.15c0,50.73,31.58,81.79,62.64,81.79,10.35,0,10.35,15.53,0,15.53-30.54,0-57.46-21.23-70.41-53.84-12.42,32.61-39.34,53.84-69.89,53.84-10.35,0-10.35-15.53,0-15.53Z"></path><path class="cls-12" d="m1249.17,3586.82c23.81,0,48.66-23.81,48.66-64.71v-12.42c0-50.73,42.45-92.15,83.35-92.15,42.97,0,82.31,42.45,82.31,92.15s-37.27,92.67-82.31,92.67c-30.03,0-57.98-19.15-72.48-48.14-10.35,28.99-33.13,48.14-59.53,48.14-10.35,0-10.35-15.53,0-15.53Zm198.79-76.62c0-39.34-30.03-77.14-67.3-77.14s-67.3,38.31-67.3,77.14,29.51,76.62,67.3,76.62,67.3-37.27,67.3-76.62Z"></path><path class="cls-12" d="m1538.54,3556.79c-1.55-10.35,13.46-12.42,15.01-2.59,2.59,18.12,24.33,32.61,37.27,32.61s33.65-9.32,33.65-40.9-34.68-45.04-55.91-60.05c-17.08-12.42-32.1-26.4-42.97-44.52-24.85,37.27-64.71,54.36-106.64,54.36-38.83,0-78.17-15.01-78.17-48.14,0-1.55,0-3.62.52-5.18l9.84-14.5h20.71v5.18c-11.39,0-15.53,6.73-15.53,14.5,0,17.6,22.78,32.61,62.64,32.61,41.93,0,80.24-19.67,99.91-57.98,3.62-7.25,10.87-7.25,13.98,0,13.46,30.03,35.72,45.56,62.12,62.64,22.26,14.5,45.04,29.51,45.04,61.09,0,18.64-5.69,32.1-13.98,40.9h27.96c10.35,0,10.35,15.53,0,15.53h-63.16c-22.26,0-49.18-22.26-52.29-45.56Z"></path><path class="cls-12" d="m916.08,3927.15h-3.36v-5.08c0-3.95.88-5.29,3.4-5.96l.67,1.85c-1.76.67-2.06,1.09-2.06,3.78v.34h1.34v5.08Zm5.92,0h-3.36v-5.08c0-3.95.88-5.29,3.4-5.96l.67,1.85c-1.76.67-2.06,1.09-2.06,3.78v.34h1.34v5.08Z"></path><path class="cls-12" d="m939.35,3946.77v2.6c-.76.21-2.14.59-4.03.59-3.82,0-6.34-1.6-6.34-6.89v-12.18h-4.16v-2.44h4.16v-6.05l2.94-1.43v7.48h5.92v2.44h-5.92v11.8c0,2.81.76,4.58,3.4,4.58,1.6,0,3.23-.29,4.03-.5Z"></path><path class="cls-12" d="m941.24,3925.89c1.76-.67,2.06-1.09,2.06-3.78v-.34h-1.34v-5.08h3.36v5.08c0,3.95-.88,5.29-3.4,5.96l-.67-1.85Zm5.92,0c1.76-.67,2.06-1.09,2.06-3.78v-.34h-1.34v-5.08h3.36v5.08c0,3.95-.88,5.29-3.4,5.96l-.67-1.85Z"></path><path class="cls-12" d="m966.77,3928.45h2.6l.29,3.91c1.01-2.14,3.07-4.45,6.76-4.45,1.26,0,2.19.21,3.03.55v3.15c-1.13-.5-2.1-.76-3.4-.76-3.74,0-6.34,2.81-6.34,5.75v12.85h-2.94v-21Z"></path><path class="cls-12" d="m1000.71,3939.96h-15.96c.17,4.79,2.48,7.48,6.93,7.48,3.82,0,5.67-1.43,5.96-4.83h2.98c-.29,4.24-3.28,7.39-9.03,7.39-7.06,0-9.83-4.66-9.83-10.88s3.23-11.22,10-11.22,8.95,3.99,8.95,10.21v1.85Zm-3.11-2.98c0-4.45-1.72-6.55-5.92-6.55s-6.55,2.65-6.89,6.97h12.81v-.42Z"></path><path class="cls-12" d="m1005.12,3943.66c0-3.95,2.23-6.09,7.86-6.09h6.34v-1.72c0-2.98-1.26-5.42-5.46-5.42-3.95,0-5.33,1.51-5.33,4.12v.88h-2.98v-.84c0-5,4.2-6.68,8.32-6.68,5.8,0,8.4,2.86,8.4,8.44v13.11h-2.06l-.55-2.98h-.08c-1.26,1.89-3.7,3.53-7.35,3.53-4.91,0-7.1-2.31-7.1-6.34Zm14.2-1.85v-1.76h-7.02c-2.65,0-4.03.92-4.03,3.61,0,2.35,1.26,3.87,4.5,3.87,4.16,0,6.55-2.14,6.55-5.71Z"></path><path class="cls-12" d="m1027.93,3939.12c0-6.38,3.23-11.22,10-11.22s8.95,3.91,8.95,8.95v.42h-3.11v-.63c0-3.82-1.64-6.09-5.84-6.09-4.75,0-7.02,3.11-7.02,8.4,0,5.63,2.39,8.49,6.93,8.49,3.82,0,5.84-1.85,5.92-5.67h3.02c-.08,4.66-3.15,8.23-9.03,8.23-7.23,0-9.83-4.75-9.83-10.88Z"></path><path class="cls-12" d="m1052.12,3916.69h2.94v15.17c1.05-2.1,3.28-3.95,7.31-3.95,4.75,0,7.77,2.52,7.77,7.94v13.61h-2.94v-13.27c0-4.33-2.14-5.71-5.5-5.71-3.82,0-6.64,2.69-6.64,5.63v13.36h-2.94v-32.77Z"></path><path class="cls-12" d="m1094.75,3939.96h-15.96c.17,4.79,2.48,7.48,6.93,7.48,3.82,0,5.67-1.43,5.96-4.83h2.98c-.29,4.24-3.28,7.39-9.03,7.39-7.06,0-9.83-4.66-9.83-10.88s3.23-11.22,10-11.22,8.95,3.99,8.95,10.21v1.85Zm-3.11-2.98c0-4.45-1.72-6.55-5.92-6.55s-6.55,2.65-6.89,6.97h12.81v-.42Z"></path><path class="cls-12" d="m1098.74,3943.03v-1.18h2.94v1.13c0,2.86,2.14,4.5,5.96,4.5s5.8-1.01,5.8-3.78c0-2.06-1.01-2.81-3.86-3.32l-4.62-.84c-3.02-.55-5.54-2.02-5.54-5.5,0-3.15,2.35-6.13,8.4-6.13s8.4,3.02,8.4,7.23v.88h-2.98v-.76c0-3.44-2.14-4.92-5.42-4.92-3.95,0-5.33,1.34-5.33,3.36s1.01,2.86,3.91,3.4l4.03.76c4.12.76,6.09,1.93,6.09,5.59,0,4.58-4.12,6.55-8.78,6.55-7.31,0-8.99-3.28-8.99-6.97Z"></path><path class="cls-12" d="m1130.78,3943.66c0-3.95,2.23-6.09,7.86-6.09h6.34v-1.72c0-2.98-1.26-5.42-5.46-5.42-3.95,0-5.33,1.51-5.33,4.12v.88h-2.98v-.84c0-5,4.2-6.68,8.32-6.68,5.8,0,8.4,2.86,8.4,8.44v13.11h-2.06l-.55-2.98h-.08c-1.26,1.89-3.7,3.53-7.35,3.53-4.91,0-7.1-2.31-7.1-6.34Zm14.2-1.85v-1.76h-7.02c-2.65,0-4.03.92-4.03,3.61,0,2.35,1.26,3.87,4.5,3.87,4.16,0,6.55-2.14,6.55-5.71Z"></path><path class="cls-12" d="m1153.38,3943.03v-1.18h2.94v1.13c0,2.86,2.14,4.5,5.96,4.5s5.8-1.01,5.8-3.78c0-2.06-1.01-2.81-3.86-3.32l-4.62-.84c-3.03-.55-5.54-2.02-5.54-5.5,0-3.15,2.35-6.13,8.4-6.13s8.4,3.02,8.4,7.23v.88h-2.98v-.76c0-3.44-2.14-4.92-5.42-4.92-3.95,0-5.33,1.34-5.33,3.36s1.01,2.86,3.91,3.4l4.03.76c4.12.76,6.09,1.93,6.09,5.59,0,4.58-4.12,6.55-8.78,6.55-7.31,0-8.99-3.28-8.99-6.97Z"></path><path class="cls-12" d="m1175.35,3939.12c0-6.38,3.23-11.22,10-11.22s8.95,3.91,8.95,8.95v.42h-3.11v-.63c0-3.82-1.64-6.09-5.84-6.09-4.75,0-7.02,3.11-7.02,8.4,0,5.63,2.39,8.49,6.93,8.49,3.82,0,5.84-1.85,5.92-5.67h3.02c-.08,4.66-3.15,8.23-9.03,8.23-7.23,0-9.83-4.75-9.83-10.88Z"></path><path class="cls-12" d="m1217.43,3939.96h-15.96c.17,4.79,2.48,7.48,6.93,7.48,3.82,0,5.67-1.43,5.96-4.83h2.98c-.29,4.24-3.28,7.39-9.03,7.39-7.06,0-9.83-4.66-9.83-10.88s3.23-11.22,10-11.22,8.95,3.99,8.95,10.21v1.85Zm-3.11-2.98c0-4.45-1.72-6.55-5.92-6.55s-6.55,2.65-6.89,6.97h12.81v-.42Z"></path><path class="cls-12" d="m1223.31,3928.45h2.6l.29,3.49c1.01-2.14,3.28-4.03,7.35-4.03,4.75,0,7.77,2.52,7.77,7.94v13.61h-2.94v-13.27c0-4.33-2.14-5.71-5.5-5.71-3.82,0-6.64,2.69-6.64,5.63v13.36h-2.94v-21Z"></path><path class="cls-12" d="m1247,3939c0-7.1,4.29-11.09,10.04-11.09,3.7,0,6.22,1.6,7.31,3.74h.04v-14.96h2.94v32.77h-1.97l-.67-3.61h-.08c-1.18,2.31-3.95,4.16-7.77,4.16-6.3,0-9.83-3.99-9.83-11.01Zm17.64-.5c0-5.5-3.36-8.07-7.35-8.07-3.11,0-7.14,1.47-7.14,8.4s3.61,8.61,7.14,8.61c4.24,0,7.35-2.73,7.35-8.95Z"></path><path class="cls-12" d="m1291.94,3939.96h-15.96c.17,4.79,2.48,7.48,6.93,7.48,3.82,0,5.67-1.43,5.96-4.83h2.98c-.29,4.24-3.28,7.39-9.03,7.39-7.06,0-9.83-4.66-9.83-10.88s3.23-11.22,10-11.22,8.95,3.99,8.95,10.21v1.85Zm-3.11-2.98c0-4.45-1.72-6.55-5.92-6.55s-6.55,2.65-6.89,6.97h12.81v-.42Z"></path><path class="cls-12" d="m1297.82,3928.45h2.6l.29,3.91c1.01-2.14,3.07-4.45,6.76-4.45,1.26,0,2.18.21,3.02.55v3.15c-1.13-.5-2.1-.76-3.4-.76-3.74,0-6.34,2.81-6.34,5.75v12.85h-2.94v-21Z"></path><path class="cls-12" d="m1324.78,3916.69h2.94v15.17c1.05-2.1,3.28-3.95,7.31-3.95,4.75,0,7.77,2.52,7.77,7.94v13.61h-2.94v-13.27c0-4.33-2.14-5.71-5.5-5.71-3.82,0-6.64,2.69-6.64,5.63v13.36h-2.94v-32.77Z"></path><path class="cls-12" d="m1367.42,3939.96h-15.96c.17,4.79,2.48,7.48,6.93,7.48,3.82,0,5.67-1.43,5.96-4.83h2.98c-.29,4.24-3.28,7.39-9.03,7.39-7.06,0-9.83-4.66-9.83-10.88s3.23-11.22,10-11.22,8.95,3.99,8.95,10.21v1.85Zm-3.11-2.98c0-4.45-1.72-6.55-5.92-6.55s-6.55,2.65-6.89,6.97h12.81v-.42Z"></path><path class="cls-12" d="m1373.29,3916.69h2.98v6.51h-2.98v-6.51Zm0,11.76h2.94v21h-2.94v-21Z"></path><path class="cls-12" d="m1382.99,3951.26v-.13h3.11v.13c0,2.9,1.93,4.33,6.13,4.33,4.79,0,7.01-2.94,7.01-7.86v-2.1h-.08c-1.09,2.18-3.65,4.07-7.48,4.07-6.3,0-9.75-3.99-9.75-10.71,0-7.1,4.37-11.09,9.96-11.09,3.78,0,6.55,1.81,7.56,4.12h.13l.29-3.57h2.31v19.16c0,5.88-2.81,10.71-10.33,10.71-6.3,0-8.86-2.98-8.86-7.06Zm16.59-12.77c0-5.5-3.36-8.07-7.35-8.07-3.03,0-7.14,1.47-7.14,8.4s3.57,8.32,7.1,8.32c4.24,0,7.39-2.73,7.39-8.65Z"></path><path class="cls-12" d="m1409.54,3916.69h2.94v15.17c1.05-2.1,3.28-3.95,7.31-3.95,4.75,0,7.77,2.52,7.77,7.94v13.61h-2.94v-13.27c0-4.33-2.14-5.71-5.5-5.71-3.82,0-6.64,2.69-6.64,5.63v13.36h-2.94v-32.77Z"></path><path class="cls-12" d="m1445.87,3946.77v2.6c-.76.21-2.14.59-4.03.59-3.82,0-6.34-1.6-6.34-6.89v-12.18h-4.16v-2.44h4.16v-6.05l2.94-1.43v7.48h5.92v2.44h-5.92v11.8c0,2.81.76,4.58,3.4,4.58,1.6,0,3.23-.29,4.03-.5Z"></path><path class="cls-13" d="m1108.88,3586.82c31.06,0,62.12-31.06,62.12-81.79v-180.15h-66.26c-10.35,0-10.35-15.53,0-15.53h66.26v-107.68c0-10.35,15.53-10.35,15.53,0v107.68h66.26c10.35,0,10.35,15.53,0,15.53h-66.26v180.15c0,50.73,31.58,81.79,62.64,81.79,10.35,0,10.35,15.53,0,15.53-30.54,0-57.46-21.23-70.41-53.84-12.42,32.61-39.34,53.84-69.89,53.84-10.35,0-10.35-15.53,0-15.53Z"></path><rect class="cls-13" x="1319.19" y="202.66" width="54.52" height="647.54"></rect><path class="cls-12" d="m1270.44,907.58v-19.95h2.94v19.95c0,9.41,4.07,10.63,8.86,10.63s8.78-1.01,8.78-10.63v-19.95h2.94v19.62c0,11.64-5.33,13.69-11.76,13.69s-11.76-2.06-11.76-13.36Z"></path><path class="cls-12" d="m1301.73,899.39h2.39l.34,3.86h.08c1.13-2.48,4.03-4.41,7.86-4.41,6.3,0,9.66,3.99,9.66,11.01s-4.29,11.09-9.87,11.09c-3.78,0-6.38-1.6-7.43-3.7h-.08v11.55h-2.94v-29.41Zm17.18,10.63c0-7.18-3.4-8.61-6.93-8.61-4.24,0-7.56,2.73-7.56,8.44,0,6.01,3.45,8.57,7.44,8.57,3.02,0,7.06-1.47,7.06-8.4Z"></path><path class="cls-12" d="m1327.93,899.39h2.6l.29,3.91c1.01-2.14,3.07-4.45,6.76-4.45,1.26,0,2.18.21,3.02.55v3.15c-1.13-.5-2.1-.76-3.4-.76-3.74,0-6.34,2.81-6.34,5.75v12.85h-2.94v-21Z"></path><path class="cls-12" d="m1345.24,887.63h2.98v6.51h-2.98v-6.51Zm0,11.76h2.94v21h-2.94v-21Z"></path><path class="cls-12" d="m1354.94,922.2v-.13h3.11v.13c0,2.9,1.93,4.33,6.13,4.33,4.79,0,7.01-2.94,7.01-7.86v-2.1h-.08c-1.09,2.18-3.65,4.07-7.48,4.07-6.3,0-9.75-3.99-9.75-10.71,0-7.1,4.37-11.09,9.96-11.09,3.78,0,6.55,1.81,7.56,4.12h.13l.29-3.57h2.31v19.16c0,5.88-2.81,10.71-10.33,10.71-6.3,0-8.86-2.98-8.86-7.06Zm16.59-12.77c0-5.5-3.36-8.07-7.35-8.07-3.03,0-7.14,1.47-7.14,8.4s3.57,8.32,7.1,8.32c4.24,0,7.39-2.73,7.39-8.65Z"></path><path class="cls-12" d="m1381.48,887.63h2.94v15.16c1.05-2.1,3.28-3.95,7.31-3.95,4.75,0,7.77,2.52,7.77,7.94v13.61h-2.94v-13.27c0-4.33-2.14-5.71-5.5-5.71-3.82,0-6.64,2.69-6.64,5.63v13.36h-2.94v-32.77Z"></path><path class="cls-12" d="m1417.82,917.7v2.6c-.76.21-2.14.59-4.03.59-3.82,0-6.34-1.6-6.34-6.89v-12.18h-4.16v-2.44h4.16v-6.05l2.94-1.43v7.48h5.92v2.44h-5.92v11.8c0,2.81.76,4.58,3.4,4.58,1.6,0,3.23-.29,4.03-.5Z"></path><line class="cls-3" x1="562.87" y1="635.02" x2="562.87" y2="635.89"></line><line class="cls-8" x1="562.87" y1="653.92" x2="562.87" y2="902.71"></line><line class="cls-3" x1="562.87" y1="911.73" x2="562.87" y2="912.6"></line><path class="cls-12" d="m192.22,544.91c0-19.15,12.94-33.65,21.74-39.34,8.8-5.69,17.08,7.25,8.8,12.94-6.21,4.14-15.01,14.5-15.01,26.4,0,32.61,34.17,55.39,79.72,55.39,34.68,0,67.3-11.39,86.97-35.72h.52c11.91-14.5,18.64-34.17,18.64-58.5,0-123.73-15.53-133.56-15.53-187.92,0-28.47,4.14-56.43,12.42-78.69-13.98,6.21-29.51,9.32-47.63,9.32-37.27,0-63.68-25.88-99.4-25.88-30.03,0-46.07,27.96-46.07,58.5,0,10.35-15.53,10.35-15.53,0,0-33.65,18.12-74.03,61.6-74.03,36.76,0,63.16,25.88,99.4,25.88,26.4,0,45.04-6.21,64.71-23.81,7.77-7.25,17.6,2.07,11.39,10.35-16.57,21.23-25.37,57.46-25.37,98.36,0,54.36,15.53,64.19,15.53,187.92,0,26.4-7.25,47.63-19.15,64.19,9.32,19.67,25.37,30.03,41.41,30.03,10.35,0,10.35,15.53,0,15.53-21.23,0-40.38-12.42-52.29-33.13-23.3,22.78-57.98,33.13-91.63,33.13-48.14,0-95.25-24.85-95.25-70.92Z"></path><path class="cls-13" d="m431.38,600.3c23.81,0,48.66-23.81,48.66-64.71v-11.91c0-49.18,38.83-92.67,83.35-92.67s82.31,44,82.31,92.67v11.91c0,40.9,24.85,64.71,49.18,64.71,10.35,0,10.35,15.53,0,15.53-26.4,0-49.7-19.15-59.53-48.14-13.98,27.96-41.41,48.14-71.96,48.14s-57.98-20.19-72.48-48.66c-9.84,29.51-33.13,48.66-59.53,48.66-10.35,0-10.35-15.53,0-15.53Zm198.79-76.62c0-41.93-32.1-77.14-66.78-77.14s-67.82,35.2-67.82,77.14,33.13,76.62,67.82,76.62,66.78-34.68,66.78-76.62Z"></path><path class="cls-12" d="m743.53,588.4c-11.91,17.08-29.51,27.44-48.66,27.44-10.35,0-10.35-15.53,0-15.53,23.81,0,48.66-23.81,48.66-64.19v-97.32c0-10.35,15.53-10.35,15.53,0v34.68c17.08-25.37,45.04-42.45,75.58-42.45,44.52,0,82.31,44,82.31,92.67,0,31.06-15.01,59.53-37.79,76.62h44c10.35,0,10.35,15.53,0,15.53h-88.52c-25.88,0-50.73-18.12-50.73-42.45,0-10.35,15.53-10.35,15.53,0,0,12.94,14.5,26.92,35.2,26.92,34.17,0,66.78-34.68,66.78-76.62s-32.61-77.14-66.78-77.14c-39.34,0-75.58,35.72-75.58,77.14v313.2c0,10.35-15.53,10.35-15.53,0v-248.49Z"></path><path class="cls-12" d="m923.16,600.3c23.81,0,48.66-23.81,48.66-64.71v-96.81c0-10.35,15.53-10.35,15.53,0v85.94c0,47.11,28.99,75.58,57.46,75.58s57.46-28.47,57.46-75.58v-85.94c0-10.35,15.53-10.35,15.53,0v96.81c0,40.9,24.85,64.71,48.66,64.71,10.35,0,10.35,15.53,0,15.53-25.37,0-47.63-18.12-57.98-45.56-12.94,27.96-36.76,45.56-63.68,45.56s-50.73-17.6-63.16-45.56c-10.35,27.44-33.13,45.56-58.5,45.56-10.35,0-10.35-15.53,0-15.53Z"></path><path class="cls-12" d="m1166.46,600.3c23.81,0,48.66-23.81,48.66-64.71v-41.93c0-32.1,20.19-62.64,57.46-62.64,21.23,0,41.41,12.42,50.22,36.24,13.98-22.78,38.83-36.24,63.16-36.24s45.56,12.94,56.43,39.34c12.94-24.85,39.34-39.34,64.71-39.34,33.13,0,63.16,24.85,63.16,77.14v27.44c0,40.9,24.85,64.71,48.66,64.71,10.35,0,10.35,15.53,0,15.53-35.2,0-64.19-34.17-64.19-80.24v-27.44c0-45.04-24.33-61.6-47.63-61.6-28.47,0-57.46,23.3-57.98,59.53v101.98c0,10.35-15.53,10.35-15.53,0v-99.91c0-45.04-24.33-61.6-47.63-61.6-28.47,0-57.98,23.3-57.98,59.53v101.98c0,10.35-15.53,10.35-15.53,0v-112.86c0-34.17-20.71-48.66-39.86-48.66-26.4,0-41.93,20.71-41.93,47.11v41.93c0,46.07-28.99,80.24-64.19,80.24-10.35,0-10.35-15.53,0-15.53Z"></path><path class="cls-12" d="m1618.9,600.3c23.3,0,45.04-10.35,62.64-25.88-19.67-22.26-32.1-51.25-32.61-79.72-1.04-26.92,13.46-63.68,44-63.68s44.52,36.76,44,63.68c-1.04,28.47-13.46,57.46-33.13,79.72,17.6,15.53,39.34,25.88,62.64,25.88,10.35,0,10.35,15.53,0,15.53-27.44,0-53.32-11.91-73.51-30.03-20.71,18.12-46.59,30.03-74.03,30.03-10.35,0-10.35-15.53,0-15.53Zm102.5-106.13c.52-25.88-12.94-47.63-28.47-47.63s-29.51,21.74-28.47,47.63c.52,24.85,11.39,49.7,28.47,69.37,16.57-19.67,27.44-44.52,28.47-69.37Z"></path><path class="cls-12" d="m337.43,954.59h-3.36v-5.08c0-3.95.88-5.29,3.4-5.97l.67,1.85c-1.76.67-2.06,1.09-2.06,3.78v.34h1.34v5.08Zm5.92,0h-3.36v-5.08c0-3.95.88-5.29,3.4-5.97l.67,1.85c-1.76.67-2.06,1.09-2.06,3.78v.34h1.34v5.08Z"></path><path class="cls-12" d="m347.01,971.1c0-3.95,2.23-6.09,7.86-6.09h6.34v-1.72c0-2.98-1.26-5.42-5.46-5.42-3.95,0-5.33,1.51-5.33,4.12v.88h-2.98v-.84c0-5,4.2-6.68,8.32-6.68,5.8,0,8.4,2.86,8.4,8.44v13.11h-2.06l-.55-2.98h-.08c-1.26,1.89-3.7,3.53-7.35,3.53-4.92,0-7.1-2.31-7.1-6.34Zm14.2-1.85v-1.76h-7.02c-2.65,0-4.03.92-4.03,3.61,0,2.35,1.26,3.86,4.5,3.86,4.16,0,6.55-2.14,6.55-5.71Z"></path><path class="cls-12" d="m367.08,953.33c1.76-.67,2.06-1.09,2.06-3.78v-.34h-1.34v-5.08h3.36v5.08c0,3.95-.88,5.29-3.4,5.97l-.67-1.85Zm5.92,0c1.76-.67,2.06-1.09,2.06-3.78v-.34h-1.34v-5.08h3.36v5.08c0,3.95-.88,5.29-3.4,5.97l-.67-1.85Z"></path><path class="cls-12" d="m380.02,970.68h3.36v6.22c0,3.95-.88,5.29-3.4,5.96l-.67-1.85c1.76-.67,2.06-1.09,2.06-3.78v-.34h-1.34v-6.22Z"></path><path class="cls-12" d="m401.02,954.59h-3.36v-5.08c0-3.95.88-5.29,3.4-5.97l.67,1.85c-1.76.67-2.06,1.09-2.06,3.78v.34h1.34v5.08Zm5.92,0h-3.36v-5.08c0-3.95.88-5.29,3.4-5.97l.67,1.85c-1.76.67-2.06,1.09-2.06,3.78v.34h1.34v5.08Z"></path><path class="cls-12" d="m411.02,978.7v-.13h3.11v.13c0,2.9,1.93,4.33,6.13,4.33,4.79,0,7.02-2.94,7.02-7.86v-2.1h-.08c-1.09,2.18-3.65,4.07-7.48,4.07-6.3,0-9.75-3.99-9.75-10.71,0-7.1,4.37-11.09,9.96-11.09,3.78,0,6.55,1.81,7.56,4.12h.13l.29-3.57h2.31v19.16c0,5.88-2.81,10.71-10.33,10.71-6.3,0-8.86-2.98-8.86-7.06Zm16.59-12.77c0-5.5-3.36-8.07-7.35-8.07-3.02,0-7.14,1.47-7.14,8.4s3.57,8.32,7.1,8.32c4.24,0,7.39-2.73,7.39-8.65Z"></path><path class="cls-12" d="m434.83,953.33c1.76-.67,2.06-1.09,2.06-3.78v-.34h-1.34v-5.08h3.36v5.08c0,3.95-.88,5.29-3.4,5.97l-.67-1.85Zm5.92,0c1.76-.67,2.06-1.09,2.06-3.78v-.34h-1.34v-5.08h3.36v5.08c0,3.95-.88,5.29-3.4,5.97l-.67-1.85Z"></path><path class="cls-12" d="m459.11,971.1c0-3.95,2.23-6.09,7.86-6.09h6.34v-1.72c0-2.98-1.26-5.42-5.46-5.42-3.95,0-5.33,1.51-5.33,4.12v.88h-2.98v-.84c0-5,4.2-6.68,8.32-6.68,5.8,0,8.4,2.86,8.4,8.44v13.11h-2.06l-.55-2.98h-.08c-1.26,1.89-3.7,3.53-7.35,3.53-4.92,0-7.1-2.31-7.1-6.34Zm14.2-1.85v-1.76h-7.02c-2.65,0-4.03.92-4.03,3.61,0,2.35,1.26,3.86,4.5,3.86,4.16,0,6.55-2.14,6.55-5.71Z"></path><path class="cls-12" d="m483.59,955.89h2.6l.29,3.49c1.01-2.14,3.28-4.03,7.35-4.03,4.75,0,7.77,2.52,7.77,7.94v13.61h-2.94v-13.27c0-4.33-2.14-5.71-5.5-5.71-3.82,0-6.64,2.69-6.64,5.63v13.36h-2.94v-21Z"></path><path class="cls-12" d="m507.28,966.44c0-7.1,4.29-11.09,10.04-11.09,3.7,0,6.22,1.6,7.31,3.74h.04v-14.95h2.94v32.77h-1.97l-.67-3.61h-.08c-1.18,2.31-3.95,4.16-7.77,4.16-6.3,0-9.83-3.99-9.83-11.01Zm17.64-.5c0-5.5-3.36-8.07-7.35-8.07-3.11,0-7.14,1.47-7.14,8.4s3.61,8.61,7.14,8.61c4.24,0,7.35-2.73,7.35-8.95Z"></path><path class="cls-12" d="m546.3,954.59h-3.36v-5.08c0-3.95.88-5.29,3.4-5.97l.67,1.85c-1.76.67-2.06,1.09-2.06,3.78v.34h1.34v5.08Zm5.92,0h-3.36v-5.08c0-3.95.88-5.29,3.4-5.97l.67,1.85c-1.76.67-2.06,1.09-2.06,3.78v.34h1.34v5.08Z"></path><path class="cls-12" d="m572.55,973.41h-.08c-1.09,2.14-3.65,4.03-7.48,4.03-6.3,0-9.75-3.99-9.75-11.01s4.37-11.09,9.96-11.09c3.78,0,6.59,1.76,7.65,4.28h.04l.29-3.74h2.31v29.41h-2.94v-11.89Zm.34-7.48c0-5.5-3.36-8.07-7.35-8.07-3.02,0-7.14,1.47-7.14,8.4s3.57,8.61,7.1,8.61c4.24,0,7.39-2.73,7.39-8.95Z"></path><path class="cls-12" d="m580.11,953.33c1.76-.67,2.06-1.09,2.06-3.78v-.34h-1.34v-5.08h3.36v5.08c0,3.95-.88,5.29-3.4,5.97l-.67-1.85Zm5.92,0c1.76-.67,2.06-1.09,2.06-3.78v-.34h-1.34v-5.08h3.36v5.08c0,3.95-.88,5.29-3.4,5.97l-.67-1.85Z"></path><path class="cls-12" d="m605.64,944.13h2.94v15.16c1.05-2.1,3.28-3.95,7.31-3.95,4.75,0,7.77,2.52,7.77,7.94v13.61h-2.94v-13.27c0-4.33-2.14-5.71-5.5-5.71-3.82,0-6.64,2.69-6.64,5.63v13.36h-2.94v-32.77Z"></path><path class="cls-12" d="m629.75,971.1c0-3.95,2.23-6.09,7.86-6.09h6.34v-1.72c0-2.98-1.26-5.42-5.46-5.42-3.95,0-5.33,1.51-5.33,4.12v.88h-2.98v-.84c0-5,4.2-6.68,8.32-6.68,5.8,0,8.4,2.86,8.4,8.44v13.11h-2.06l-.55-2.98h-.08c-1.26,1.89-3.7,3.53-7.35,3.53-4.92,0-7.1-2.31-7.1-6.34Zm14.2-1.85v-1.76h-7.01c-2.65,0-4.03.92-4.03,3.61,0,2.35,1.26,3.86,4.5,3.86,4.16,0,6.55-2.14,6.55-5.71Z"></path><path class="cls-12" d="m649.83,955.94v-.04h3.36l7.35,17.98h.08l7.1-17.98h3.07v.04l-8.74,20.96h-3.03l-9.2-20.96Z"></path><path class="cls-12" d="m691.62,967.4h-15.96c.17,4.79,2.48,7.48,6.93,7.48,3.82,0,5.67-1.43,5.96-4.83h2.98c-.29,4.24-3.28,7.39-9.03,7.39-7.06,0-9.83-4.66-9.83-10.88s3.23-11.22,10-11.22,8.95,3.99,8.95,10.21v1.85Zm-3.11-2.98c0-4.45-1.72-6.55-5.92-6.55s-6.55,2.65-6.89,6.97h12.81v-.42Z"></path><path class="cls-12" d="m707.16,955.89h2.6l.29,3.91c1.01-2.14,3.07-4.45,6.76-4.45,1.26,0,2.18.21,3.02.55v3.15c-1.13-.5-2.1-.76-3.4-.76-3.74,0-6.34,2.81-6.34,5.75v12.85h-2.94v-21Z"></path><path class="cls-12" d="m722.15,966.4c0-6.22,3.32-11.05,10.38-11.05,6.59,0,10.25,4.83,10.25,11.05s-3.7,11.05-10.29,11.05c-7.27,0-10.33-4.83-10.33-11.05Zm17.56,0c0-5.33-2.9-8.49-7.23-8.49-4.75,0-7.27,3.15-7.27,8.49s2.56,8.49,7.27,8.49c4.33,0,7.23-3.15,7.23-8.49Z"></path><path class="cls-12" d="m748.23,969.5v-13.61h2.94v13.27c0,4.33,2.14,5.71,5.42,5.71,3.74,0,6.55-2.69,6.55-5.63v-13.36h2.94v21h-2.6l-.25-3.36h-.08c-.97,2.02-3.24,3.91-7.23,3.91-4.66,0-7.69-2.52-7.69-7.94Z"></path><path class="cls-12" d="m773.43,955.89h2.6l.29,3.49c1.01-2.14,3.28-4.03,7.35-4.03,4.75,0,7.77,2.52,7.77,7.94v13.61h-2.94v-13.27c0-4.33-2.14-5.71-5.5-5.71-3.82,0-6.64,2.69-6.64,5.63v13.36h-2.94v-21Z"></path><path class="cls-12" d="m797.12,966.44c0-7.1,4.29-11.09,10.04-11.09,3.7,0,6.22,1.6,7.31,3.74h.04v-14.95h2.94v32.77h-1.97l-.67-3.61h-.08c-1.18,2.31-3.95,4.16-7.77,4.16-6.3,0-9.83-3.99-9.83-11.01Zm17.64-.5c0-5.5-3.36-8.07-7.35-8.07-3.11,0-7.14,1.47-7.14,8.4s3.61,8.61,7.14,8.61c4.24,0,7.35-2.73,7.35-8.95Z"></path><path class="cls-12" d="m832.57,970.47v-1.18h2.94v1.13c0,2.86,2.14,4.5,5.96,4.5s5.8-1.01,5.8-3.78c0-2.06-1.01-2.81-3.86-3.32l-4.62-.84c-3.02-.55-5.54-2.02-5.54-5.5,0-3.15,2.35-6.13,8.4-6.13s8.4,3.02,8.4,7.23v.88h-2.98v-.76c0-3.44-2.14-4.91-5.42-4.91-3.95,0-5.33,1.34-5.33,3.36s1.01,2.86,3.91,3.4l4.03.76c4.12.76,6.09,1.93,6.09,5.59,0,4.58-4.12,6.55-8.78,6.55-7.31,0-8.99-3.28-8.99-6.97Z"></path><path class="cls-12" d="m856.22,944.13h2.94v15.16c1.05-2.1,3.28-3.95,7.31-3.95,4.75,0,7.77,2.52,7.77,7.94v13.61h-2.94v-13.27c0-4.33-2.14-5.71-5.5-5.71-3.82,0-6.64,2.69-6.64,5.63v13.36h-2.94v-32.77Z"></path><path class="cls-12" d="m880.32,971.1c0-3.95,2.23-6.09,7.86-6.09h6.34v-1.72c0-2.98-1.26-5.42-5.46-5.42-3.95,0-5.33,1.51-5.33,4.12v.88h-2.98v-.84c0-5,4.2-6.68,8.32-6.68,5.8,0,8.4,2.86,8.4,8.44v13.11h-2.06l-.55-2.98h-.08c-1.26,1.89-3.7,3.53-7.35,3.53-4.92,0-7.1-2.31-7.1-6.34Zm14.2-1.85v-1.76h-7.01c-2.65,0-4.03.92-4.03,3.61,0,2.35,1.26,3.86,4.5,3.86,4.16,0,6.55-2.14,6.55-5.71Z"></path><path class="cls-12" d="m904.81,955.89h2.39l.34,3.86h.08c1.13-2.48,4.03-4.41,7.86-4.41,6.3,0,9.66,3.99,9.66,11.01s-4.29,11.09-9.87,11.09c-3.78,0-6.38-1.6-7.44-3.7h-.08v11.55h-2.94v-29.41Zm17.18,10.63c0-7.18-3.4-8.61-6.93-8.61-4.24,0-7.56,2.73-7.56,8.44,0,6.01,3.44,8.57,7.44,8.57,3.02,0,7.06-1.47,7.06-8.4Z"></path><path class="cls-12" d="m948.28,967.4h-15.96c.17,4.79,2.48,7.48,6.93,7.48,3.82,0,5.67-1.43,5.96-4.83h2.98c-.29,4.24-3.28,7.39-9.03,7.39-7.06,0-9.83-4.66-9.83-10.88s3.23-11.22,10-11.22,8.95,3.99,8.95,10.21v1.85Zm-3.11-2.98c0-4.45-1.72-6.55-5.92-6.55s-6.55,2.65-6.89,6.97h12.81v-.42Z"></path><path class="cls-12" d="m952.27,970.47v-1.18h2.94v1.13c0,2.86,2.14,4.5,5.96,4.5s5.8-1.01,5.8-3.78c0-2.06-1.01-2.81-3.86-3.32l-4.62-.84c-3.02-.55-5.54-2.02-5.54-5.5,0-3.15,2.35-6.13,8.4-6.13s8.4,3.02,8.4,7.23v.88h-2.98v-.76c0-3.44-2.14-4.91-5.42-4.91-3.95,0-5.33,1.34-5.33,3.36s1.01,2.86,3.91,3.4l4.03.76c4.12.76,6.09,1.93,6.09,5.59,0,4.58-4.12,6.55-8.78,6.55-7.31,0-8.99-3.28-8.99-6.97Z"></path><line class="cls-3" x1="1023.81" y1="2023.03" x2="1023.81" y2="2023.9"></line><line class="cls-4" x1="1023.81" y1="2041.04" x2="1023.81" y2="2183.3"></line><line class="cls-3" x1="1023.81" y1="2191.87" x2="1023.81" y2="2192.74"></line><line class="cls-3" x1="1056.81" y1="1127.47" x2="1056.81" y2="1128.35"></line><line class="cls-5" x1="1056.81" y1="1148.82" x2="1056.81" y2="1161.1"></line><line class="cls-3" x1="1056.81" y1="1171.34" x2="1056.81" y2="1172.21"></line><line class="cls-3" x1="667.15" y1="1849.5" x2="667.15" y2="1850.37"></line><line class="cls-10" x1="667.15" y1="1866.66" x2="667.15" y2="1930.21"></line><line class="cls-3" x1="667.15" y1="1938.36" x2="667.15" y2="1939.23"></line><line class="cls-3" x1="1319.2" y1="2636.02" x2="1318.7" y2="2636.74"></line><line class="cls-7" x1="1308.99" y1="2650.75" x2="1121.55" y2="2921.15"></line><line class="cls-3" x1="1116.69" y1="2928.16" x2="1116.2" y2="2928.87"></line><line class="cls-3" x1="672.78" y1="2653.53" x2="672.78" y2="2654.4"></line><line class="cls-6" x1="672.78" y1="2671.88" x2="672.78" y2="2913.03"></line><line class="cls-3" x1="672.78" y1="2921.76" x2="672.78" y2="2922.64"></line><path class="cls-12" d="m320.71,1959.67h2.94v30.12h15.71v2.65h-18.65v-32.77Z"></path><path class="cls-12" d="m342.5,1981.93c0-6.22,3.32-11.05,10.38-11.05,6.6,0,10.25,4.83,10.25,11.05s-3.7,11.05-10.29,11.05c-7.27,0-10.33-4.83-10.33-11.05Zm17.56,0c0-5.33-2.9-8.49-7.23-8.49-4.75,0-7.27,3.15-7.27,8.49s2.56,8.49,7.27,8.49c4.33,0,7.23-3.15,7.23-8.49Z"></path><path class="cls-12" d="m367.33,1981.93c0-6.22,3.32-11.05,10.38-11.05,6.6,0,10.25,4.83,10.25,11.05s-3.7,11.05-10.29,11.05c-7.27,0-10.33-4.83-10.33-11.05Zm17.56,0c0-5.33-2.9-8.49-7.23-8.49-4.75,0-7.27,3.15-7.27,8.49s2.56,8.49,7.27,8.49c4.33,0,7.23-3.15,7.23-8.49Z"></path><path class="cls-12" d="m393.83,1971.43h2.39l.34,3.86h.08c1.13-2.48,4.03-4.41,7.86-4.41,6.3,0,9.66,3.99,9.66,11.01s-4.28,11.09-9.87,11.09c-3.78,0-6.39-1.6-7.44-3.7h-.08v11.55h-2.94v-29.41Zm17.18,10.63c0-7.18-3.4-8.61-6.93-8.61-4.24,0-7.56,2.73-7.56,8.44,0,6.01,3.44,8.57,7.43,8.57,3.03,0,7.06-1.47,7.06-8.4Z"></path><path class="cls-12" d="m419.41,1959.67h2.94v32.77h-2.94v-32.77Z"></path><path class="cls-12" d="m446.96,1982.94h-15.96c.17,4.79,2.48,7.48,6.93,7.48,3.82,0,5.67-1.43,5.96-4.83h2.98c-.29,4.24-3.28,7.39-9.03,7.39-7.06,0-9.83-4.66-9.83-10.88s3.23-11.22,10-11.22,8.95,3.99,8.95,10.21v1.85Zm-3.11-2.98c0-4.45-1.72-6.55-5.92-6.55s-6.55,2.65-6.89,6.97h12.81v-.42Z"></path><path class="cls-12" d="m450.95,1986.01v-1.18h2.94v1.13c0,2.86,2.14,4.5,5.96,4.5s5.8-1.01,5.8-3.78c0-2.06-1.01-2.81-3.86-3.32l-4.62-.84c-3.02-.55-5.54-2.02-5.54-5.5,0-3.15,2.35-6.13,8.4-6.13s8.4,3.02,8.4,7.23v.88h-2.98v-.76c0-3.44-2.14-4.91-5.42-4.91-3.95,0-5.33,1.34-5.33,3.36s1.01,2.86,3.91,3.4l4.03.76c4.12.76,6.09,1.93,6.09,5.59,0,4.58-4.12,6.55-8.78,6.55-7.31,0-8.99-3.28-8.99-6.97Z"></path><path class="cls-12" d="m472.7,1986.01v-1.18h2.94v1.13c0,2.86,2.14,4.5,5.96,4.5s5.8-1.01,5.8-3.78c0-2.06-1.01-2.81-3.86-3.32l-4.62-.84c-3.02-.55-5.54-2.02-5.54-5.5,0-3.15,2.35-6.13,8.4-6.13s8.4,3.02,8.4,7.23v.88h-2.98v-.76c0-3.44-2.14-4.91-5.42-4.91-3.95,0-5.33,1.34-5.33,3.36s1.01,2.86,3.91,3.4l4.03.76c4.12.76,6.09,1.93,6.09,5.59,0,4.58-4.12,6.55-8.78,6.55-7.31,0-8.99-3.28-8.99-6.97Z"></path><path class="cls-12" d="m504.33,1981.97c0-7.1,4.28-11.09,10.04-11.09,3.7,0,6.22,1.6,7.31,3.74h.04v-14.95h2.94v32.77h-1.97l-.67-3.61h-.08c-1.18,2.31-3.95,4.16-7.77,4.16-6.3,0-9.83-3.99-9.83-11.01Zm17.64-.5c0-5.5-3.36-8.07-7.35-8.07-3.11,0-7.14,1.47-7.14,8.4s3.61,8.61,7.14,8.61c4.24,0,7.35-2.73,7.35-8.95Z"></path><path class="cls-12" d="m549.27,1982.94h-15.96c.17,4.79,2.48,7.48,6.93,7.48,3.82,0,5.67-1.43,5.97-4.83h2.98c-.29,4.24-3.28,7.39-9.03,7.39-7.06,0-9.83-4.66-9.83-10.88s3.23-11.22,10-11.22,8.95,3.99,8.95,10.21v1.85Zm-3.11-2.98c0-4.45-1.72-6.55-5.92-6.55s-6.55,2.65-6.89,6.97h12.81v-.42Z"></path><path class="cls-12" d="m553.26,1986.01v-1.18h2.94v1.13c0,2.86,2.14,4.5,5.96,4.5s5.8-1.01,5.8-3.78c0-2.06-1.01-2.81-3.86-3.32l-4.62-.84c-3.02-.55-5.54-2.02-5.54-5.5,0-3.15,2.35-6.13,8.4-6.13s8.4,3.02,8.4,7.23v.88h-2.98v-.76c0-3.44-2.14-4.91-5.42-4.91-3.95,0-5.33,1.34-5.33,3.36s1.01,2.86,3.91,3.4l4.03.76c4.12.76,6.09,1.93,6.09,5.59,0,4.58-4.12,6.55-8.78,6.55-7.31,0-8.99-3.28-8.99-6.97Z"></path><path class="cls-12" d="m575.22,1982.1c0-6.38,3.23-11.22,10-11.22s8.95,3.91,8.95,8.95v.42h-3.11v-.63c0-3.82-1.64-6.09-5.84-6.09-4.75,0-7.02,3.11-7.02,8.4,0,5.63,2.39,8.49,6.93,8.49,3.82,0,5.84-1.85,5.92-5.67h3.02c-.08,4.66-3.15,8.23-9.03,8.23-7.22,0-9.83-4.75-9.83-10.88Z"></path><path class="cls-12" d="m617.31,1982.94h-15.96c.17,4.79,2.48,7.48,6.93,7.48,3.82,0,5.67-1.43,5.97-4.83h2.98c-.29,4.24-3.28,7.39-9.03,7.39-7.06,0-9.83-4.66-9.83-10.88s3.23-11.22,10-11.22,8.95,3.99,8.95,10.21v1.85Zm-3.11-2.98c0-4.45-1.72-6.55-5.92-6.55s-6.55,2.65-6.89,6.97h12.81v-.42Z"></path><path class="cls-12" d="m623.19,1971.43h2.6l.29,3.49c1.01-2.14,3.28-4.03,7.35-4.03,4.75,0,7.77,2.52,7.77,7.94v13.61h-2.94v-13.27c0-4.33-2.14-5.71-5.5-5.71-3.82,0-6.64,2.69-6.64,5.63v13.36h-2.94v-21Z"></path><path class="cls-12" d="m646.88,1981.97c0-7.1,4.28-11.09,10.04-11.09,3.7,0,6.22,1.6,7.31,3.74h.04v-14.95h2.94v32.77h-1.97l-.67-3.61h-.08c-1.18,2.31-3.95,4.16-7.77,4.16-6.3,0-9.83-3.99-9.83-11.01Zm17.64-.5c0-5.5-3.36-8.07-7.35-8.07-3.11,0-7.14,1.47-7.14,8.4s3.61,8.61,7.14,8.61c4.24,0,7.35-2.73,7.35-8.95Z"></path><path class="cls-12" d="m691.82,1982.94h-15.96c.17,4.79,2.48,7.48,6.93,7.48,3.82,0,5.67-1.43,5.97-4.83h2.98c-.29,4.24-3.28,7.39-9.03,7.39-7.06,0-9.83-4.66-9.83-10.88s3.23-11.22,10-11.22,8.95,3.99,8.95,10.21v1.85Zm-3.11-2.98c0-4.45-1.72-6.55-5.92-6.55s-6.55,2.65-6.89,6.97h12.81v-.42Z"></path><path class="cls-12" d="m697.7,1971.43h2.6l.29,3.91c1.01-2.14,3.07-4.45,6.76-4.45,1.26,0,2.18.21,3.02.55v3.15c-1.13-.5-2.1-.76-3.4-.76-3.74,0-6.34,2.81-6.34,5.75v12.85h-2.94v-21Z"></path><path class="cls-12" d="m724.66,1959.67h2.98v6.51h-2.98v-6.51Zm0,11.76h2.94v21h-2.94v-21Z"></path><path class="cls-12" d="m734.99,1971.43h2.6l.29,3.49c1.01-2.14,3.28-4.03,7.35-4.03,4.75,0,7.77,2.52,7.77,7.94v13.61h-2.94v-13.27c0-4.33-2.14-5.71-5.5-5.71-3.82,0-6.64,2.69-6.64,5.63v13.36h-2.94v-21Z"></path><path class="cls-12" d="m771.7,1970.13h-3.36v-5.08c0-3.95.88-5.29,3.4-5.97l.67,1.85c-1.76.67-2.06,1.09-2.06,3.78v.34h1.34v5.08Zm5.92,0h-3.36v-5.08c0-3.95.88-5.29,3.4-5.97l.67,1.85c-1.76.67-2.06,1.09-2.06,3.78v.34h1.34v5.08Z"></path><path class="cls-12" d="m787.75,1966.39v5.04h5.92v2.44h-5.92v18.57h-2.94v-18.57h-4.16v-2.44h4.16v-5.42c0-5.29,3.15-6.89,6.38-6.89,1.85,0,2.98.29,3.74.55v2.6c-.71-.21-1.89-.46-3.49-.46-2.65,0-3.7,1.76-3.7,4.58Z"></path><path class="cls-12" d="m798.29,1968.87c1.76-.67,2.06-1.09,2.06-3.78v-.34h-1.34v-5.08h3.36v5.08c0,3.95-.88,5.29-3.4,5.97l-.67-1.85Zm5.92,0c1.76-.67,2.06-1.09,2.06-3.78v-.34h-1.34v-5.08h3.36v5.08c0,3.95-.88,5.29-3.4,5.97l-.67-1.85Z"></path><path class="cls-12" d="m1006.1,2957.71h19.49v2.65h-16.55v12.22h14.62v2.6h-14.62v12.6h16.55v2.69h-19.49v-32.77Z"></path><path class="cls-12" d="m1047.89,2969.51l-8.07,10.5,8.02,10.42v.04h-3.44l-6.34-8.44-6.43,8.44h-3.28v-.04l8.02-10.38-8.07-10.54v-.04h3.44l6.39,8.49,6.43-8.44v-.04h3.32v.04Z"></path><path class="cls-12" d="m1063.39,2987.79v2.6c-.76.21-2.14.59-4.03.59-3.82,0-6.34-1.6-6.34-6.89v-12.18h-4.16v-2.44h4.16v-6.05l2.94-1.43v7.48h5.92v2.44h-5.92v11.8c0,2.81.76,4.58,3.4,4.58,1.6,0,3.23-.29,4.03-.5Z"></path><path class="cls-12" d="m1084.85,2980.98h-15.96c.17,4.79,2.48,7.48,6.93,7.48,3.82,0,5.67-1.43,5.97-4.83h2.98c-.29,4.24-3.28,7.39-9.03,7.39-7.06,0-9.83-4.66-9.83-10.88s3.23-11.21,10-11.21,8.95,3.99,8.95,10.21v1.85Zm-3.11-2.98c0-4.45-1.72-6.55-5.92-6.55s-6.55,2.65-6.89,6.97h12.81v-.42Z"></path><path class="cls-12" d="m1090.73,2969.47h2.6l.29,3.49c1.01-2.14,3.28-4.03,7.35-4.03,4.75,0,7.77,2.52,7.77,7.94v13.61h-2.94v-13.27c0-4.33-2.14-5.71-5.5-5.71-3.82,0-6.64,2.69-6.64,5.63v13.36h-2.94v-21Z"></path><path class="cls-12" d="m1114.21,2984.05v-1.18h2.94v1.13c0,2.86,2.14,4.5,5.96,4.5s5.8-1.01,5.8-3.78c0-2.06-1.01-2.81-3.86-3.32l-4.62-.84c-3.02-.55-5.54-2.02-5.54-5.5,0-3.15,2.35-6.13,8.4-6.13s8.4,3.02,8.4,7.22v.88h-2.98v-.76c0-3.44-2.14-4.92-5.42-4.92-3.95,0-5.33,1.34-5.33,3.36s1.01,2.86,3.91,3.4l4.03.76c4.12.76,6.09,1.93,6.09,5.59,0,4.58-4.12,6.55-8.78,6.55-7.31,0-8.99-3.28-8.99-6.97Z"></path><path class="cls-12" d="m1137.85,2957.71h2.98v6.51h-2.98v-6.51Zm0,11.76h2.94v21h-2.94v-21Z"></path><path class="cls-12" d="m1145.03,2969.51v-.04h3.36l7.35,17.98h.08l7.1-17.98h3.07v.04l-8.74,20.96h-3.02l-9.2-20.96Z"></path><path class="cls-12" d="m1186.83,2980.98h-15.96c.17,4.79,2.48,7.48,6.93,7.48,3.82,0,5.67-1.43,5.97-4.83h2.98c-.29,4.24-3.28,7.39-9.03,7.39-7.06,0-9.83-4.66-9.83-10.88s3.23-11.21,10-11.21,8.95,3.99,8.95,10.21v1.85Zm-3.11-2.98c0-4.45-1.72-6.55-5.92-6.55s-6.55,2.65-6.89,6.97h12.81v-.42Z"></path><path class="cls-12" d="m1202.37,2957.71h2.94v23.23l12.14-11.47h3.65v.04l-8.4,7.86,8.78,13.06v.04h-3.36l-7.39-11.21-5.42,5.04v6.17h-2.94v-32.77Z"></path><path class="cls-12" d="m1226.51,2969.47h2.6l.29,3.49c1.01-2.14,3.28-4.03,7.35-4.03,4.75,0,7.77,2.52,7.77,7.94v13.61h-2.94v-13.27c0-4.33-2.14-5.71-5.5-5.71-3.82,0-6.64,2.69-6.64,5.63v13.36h-2.94v-21Z"></path><path class="cls-12" d="m1250.2,2979.97c0-6.22,3.32-11.05,10.38-11.05,6.59,0,10.25,4.83,10.25,11.05s-3.7,11.05-10.29,11.05c-7.27,0-10.33-4.83-10.33-11.05Zm17.56,0c0-5.33-2.9-8.48-7.22-8.48-4.75,0-7.27,3.15-7.27,8.48s2.56,8.49,7.27,8.49c4.33,0,7.22-3.15,7.22-8.49Z"></path><path class="cls-12" d="m1287.67,2987.79v2.6c-.76.21-2.14.59-4.03.59-3.82,0-6.34-1.6-6.34-6.89v-12.18h-4.16v-2.44h4.16v-6.05l2.94-1.43v7.48h5.92v2.44h-5.92v11.8c0,2.81.76,4.58,3.4,4.58,1.6,0,3.23-.29,4.03-.5Z"></path><path class="cls-12" d="m1290.61,2984.05v-1.18h2.94v1.13c0,2.86,2.14,4.5,5.96,4.5s5.8-1.01,5.8-3.78c0-2.06-1.01-2.81-3.86-3.32l-4.62-.84c-3.02-.55-5.54-2.02-5.54-5.5,0-3.15,2.35-6.13,8.4-6.13s8.4,3.02,8.4,7.22v.88h-2.98v-.76c0-3.44-2.14-4.92-5.42-4.92-3.95,0-5.33,1.34-5.33,3.36s1.01,2.86,3.91,3.4l4.03.76c4.12.76,6.09,1.93,6.09,5.59,0,4.58-4.12,6.55-8.78,6.55-7.31,0-8.99-3.28-8.99-6.97Z"></path><path class="cls-12" d="m1323.91,2957.71h2.98v6.51h-2.98v-6.51Zm0,11.76h2.94v21h-2.94v-21Z"></path><path class="cls-12" d="m1334.25,2969.47h2.6l.29,3.49c1.01-2.14,3.28-4.03,7.35-4.03,4.75,0,7.77,2.52,7.77,7.94v13.61h-2.94v-13.27c0-4.33-2.14-5.71-5.5-5.71-3.82,0-6.64,2.69-6.64,5.63v13.36h-2.94v-21Z"></path><path class="cls-12" d="m1370.95,2968.17h-3.36v-5.08c0-3.95.88-5.29,3.4-5.96l.67,1.85c-1.76.67-2.06,1.09-2.06,3.78v.34h1.34v5.08Zm5.92,0h-3.36v-5.08c0-3.95.88-5.29,3.4-5.96l.67,1.85c-1.76.67-2.06,1.09-2.06,3.78v.34h1.34v5.08Z"></path><path class="cls-12" d="m1383.26,2957.71h2.94v23.23l12.14-11.47h3.65v.04l-8.4,7.86,8.78,13.06v.04h-3.36l-7.39-11.21-5.42,5.04v6.17h-2.94v-32.77Z"></path><path class="cls-12" d="m1405.52,2966.91c1.76-.67,2.06-1.09,2.06-3.78v-.34h-1.34v-5.08h3.36v5.08c0,3.95-.88,5.29-3.4,5.97l-.67-1.85Zm5.92,0c1.76-.67,2.06-1.09,2.06-3.78v-.34h-1.34v-5.08h3.36v5.08c0,3.95-.88,5.29-3.4,5.97l-.67-1.85Z"></path><path class="cls-12" d="m1418.46,2984.26h3.36v6.22c0,3.95-.88,5.29-3.4,5.96l-.67-1.85c1.76-.67,2.06-1.09,2.06-3.78v-.34h-1.34v-6.22Z"></path><path class="cls-12" d="m1439.46,2968.17h-3.36v-5.08c0-3.95.88-5.29,3.4-5.96l.67,1.85c-1.76.67-2.06,1.09-2.06,3.78v.34h1.34v5.08Zm5.92,0h-3.36v-5.08c0-3.95.88-5.29,3.4-5.96l.67,1.85c-1.76.67-2.06,1.09-2.06,3.78v.34h1.34v5.08Z"></path><path class="cls-12" d="m1454.58,2986.99h-.08l-.76,3.49h-1.97v-32.77h2.94v15.25h.04c1.26-2.31,4.07-4.03,7.69-4.03,6.3,0,9.66,3.99,9.66,11.01s-4.29,11.09-9.87,11.09c-3.78,0-6.55-1.64-7.65-4.03Zm14.37-6.89c0-7.18-3.4-8.61-6.93-8.61-4.24,0-7.56,2.73-7.56,8.44,0,6.01,3.45,8.57,7.44,8.57,3.02,0,7.06-1.47,7.06-8.4Z"></path><path class="cls-12" d="m1473.35,2966.91c1.76-.67,2.06-1.09,2.06-3.78v-.34h-1.34v-5.08h3.36v5.08c0,3.95-.88,5.29-3.4,5.97l-.67-1.85Zm5.92,0c1.76-.67,2.06-1.09,2.06-3.78v-.34h-1.34v-5.08h3.36v5.08c0,3.95-.88,5.29-3.4,5.97l-.67-1.85Z"></path><path class="cls-12" d="m1486.29,2984.26h3.36v6.22c0,3.95-.88,5.29-3.4,5.96l-.67-1.85c1.76-.67,2.06-1.09,2.06-3.78v-.34h-1.34v-6.22Z"></path><path class="cls-12" d="m1507.29,2968.17h-3.36v-5.08c0-3.95.88-5.29,3.4-5.96l.67,1.85c-1.76.67-2.06,1.09-2.06,3.78v.34h1.34v5.08Zm5.92,0h-3.36v-5.08c0-3.95.88-5.29,3.4-5.96l.67,1.85c-1.76.67-2.06,1.09-2.06,3.78v.34h1.34v5.08Z"></path><path class="cls-12" d="m1516.44,2969.51v-.04h3.36l7.35,17.98h.08l7.1-17.98h3.07v.04l-8.74,20.96h-3.02l-9.2-20.96Z"></path><path class="cls-12" d="m1539.92,2966.91c1.76-.67,2.06-1.09,2.06-3.78v-.34h-1.34v-5.08h3.36v5.08c0,3.95-.88,5.29-3.4,5.97l-.67-1.85Zm5.92,0c1.76-.67,2.06-1.09,2.06-3.78v-.34h-1.34v-5.08h3.36v5.08c0,3.95-.88,5.29-3.4,5.97l-.67-1.85Z"></path><path class="cls-12" d="m1552.86,2984.26h3.36v6.22c0,3.95-.88,5.29-3.4,5.96l-.67-1.85c1.76-.67,2.06-1.09,2.06-3.78v-.34h-1.34v-6.22Z"></path><path class="cls-12" d="m1573.86,2968.17h-3.36v-5.08c0-3.95.88-5.29,3.4-5.96l.67,1.85c-1.76.67-2.06,1.09-2.06,3.78v.34h1.34v5.08Zm5.92,0h-3.36v-5.08c0-3.95.88-5.29,3.4-5.96l.67,1.85c-1.76.67-2.06,1.09-2.06,3.78v.34h1.34v5.08Z"></path><path class="cls-12" d="m1583.43,2969.51v-.04h2.98l5.75,17.48h.08l6.3-17.48h2.69l6.17,17.48h.08l5.75-17.48h2.86v.04l-7.18,20.96h-3.02l-5.96-17.05h-.08l-6.22,17.05h-3.02l-7.18-20.96Z"></path><path class="cls-12" d="m1619.05,2966.91c1.76-.67,2.06-1.09,2.06-3.78v-.34h-1.34v-5.08h3.36v5.08c0,3.95-.88,5.29-3.4,5.97l-.67-1.85Zm5.92,0c1.76-.67,2.06-1.09,2.06-3.78v-.34h-1.34v-5.08h3.36v5.08c0,3.95-.88,5.29-3.4,5.97l-.67-1.85Z"></path><path class="cls-12" d="m1643.32,2984.68c0-3.95,2.23-6.09,7.86-6.09h6.34v-1.72c0-2.98-1.26-5.42-5.46-5.42-3.95,0-5.33,1.51-5.33,4.12v.88h-2.98v-.84c0-5,4.2-6.68,8.32-6.68,5.8,0,8.4,2.86,8.4,8.44v13.11h-2.06l-.55-2.98h-.08c-1.26,1.89-3.7,3.53-7.35,3.53-4.92,0-7.1-2.31-7.1-6.34Zm14.2-1.85v-1.76h-7.01c-2.65,0-4.03.92-4.03,3.61,0,2.35,1.26,3.87,4.5,3.87,4.16,0,6.55-2.14,6.55-5.71Z"></path><path class="cls-12" d="m1667.81,2969.47h2.6l.29,3.49c1.01-2.14,3.28-4.03,7.35-4.03,4.75,0,7.77,2.52,7.77,7.94v13.61h-2.94v-13.27c0-4.33-2.14-5.71-5.5-5.71-3.82,0-6.64,2.69-6.64,5.63v13.36h-2.94v-21Z"></path><path class="cls-12" d="m1691.5,2980.02c0-7.1,4.28-11.09,10.04-11.09,3.7,0,6.22,1.6,7.31,3.74h.04v-14.96h2.94v32.77h-1.97l-.67-3.61h-.08c-1.18,2.31-3.95,4.16-7.77,4.16-6.3,0-9.83-3.99-9.83-11.01Zm17.64-.5c0-5.5-3.36-8.07-7.35-8.07-3.11,0-7.14,1.47-7.14,8.4s3.61,8.61,7.14,8.61c4.24,0,7.35-2.73,7.35-8.95Z"></path><path class="cls-12" d="m1730.52,2968.17h-3.36v-5.08c0-3.95.88-5.29,3.4-5.96l.67,1.85c-1.76.67-2.06,1.09-2.06,3.78v.34h1.34v5.08Zm5.92,0h-3.36v-5.08c0-3.95.88-5.29,3.4-5.96l.67,1.85c-1.76.67-2.06,1.09-2.06,3.78v.34h1.34v5.08Z"></path><path class="cls-12" d="m1740.51,2987.91l14.7-15.88h-14.58v-2.56h18.23v2.56l-14.7,15.84h14.66v2.6h-18.31v-2.56Z"></path><path class="cls-12" d="m1762.23,2966.91c1.76-.67,2.06-1.09,2.06-3.78v-.34h-1.34v-5.08h3.36v5.08c0,3.95-.88,5.29-3.4,5.97l-.67-1.85Zm5.92,0c1.76-.67,2.06-1.09,2.06-3.78v-.34h-1.34v-5.08h3.36v5.08c0,3.95-.88,5.29-3.4,5.97l-.67-1.85Z"></path><rect class="cls-13" x="927.83" y="1190.63" width="261.84" height="261.84" rx="130.92" ry="130.92"></rect><rect class="cls-13" x="879.3" y="2180.72" width="261.84" height="261.84" rx="130.92" ry="130.92"></rect><rect class="cls-13" x="591.05" y="1731.47" width="152.21" height="152.21" rx="76.1" ry="76.1"></rect><rect class="cls-13" x="613.92" y="2535.81" width="117.72" height="117.72" rx="58.86" ry="58.86"></rect><rect class="cls-13" x="1304.84" y="2519.98" width="114.07" height="114.07" rx="57.04" ry="57.04"></rect><path class="cls-12" d="m198.65,1400.71c0-95.25,63.16-200.34,171.35-200.34,61.09,0,99.91,21.23,123.21,58.5,5.18,8.8-7.77,17.08-13.46,8.28-19.15-31.58-52.8-51.25-109.75-51.25-96.29,0-155.82,94.22-155.82,184.81,0,105.09,70.92,189.99,155.82,192.58,81.79,2.59,134.6-35.72,134.6-159.96,0-10.35,15.53-10.35,15.53,0,0,53.32,2.59,159.96,78.69,159.96,10.35,0,10.35,15.53,0,15.53-56.43,0-79.21-46.07-88.01-95.25-20.19,70.92-71.44,97.32-141.33,95.25-95.77-2.59-170.84-97.32-170.84-208.11Z"></path><path class="cls-12" d="m659.9,1575.68c-18.12,24.33-39.86,33.13-61.09,33.13-10.35,0-10.35-15.53,0-15.53,22.78,0,43.49-12.94,61.09-40.38v-211.22c0-30.54-5.18-141.33,48.14-141.33s53.32,75.58,53.32,110.27c0,68.85-39.34,193.61-84.9,248.49,16.57,19.67,42.97,34.17,80.76,34.17,10.35,0,10.35,15.53,0,15.53-30.03,0-57.46-7.77-81.28-28.47l-1.04,254.7c0,10.35-15.53,10.35-15.53,0l.52-259.36Zm85.94-265.05c0-23.3,0-94.74-37.79-94.74s-32.61,107.16-32.61,125.8v193.61c46.59-65.75,70.41-184.81,70.41-224.68Z"></path><path class="cls-12" d="m757.22,1593.28c23.81,0,48.66-23.81,48.66-64.71v-12.42c0-50.73,42.45-92.15,83.35-92.15,42.97,0,82.31,42.45,82.31,92.15s-37.27,92.67-82.31,92.67c-30.03,0-57.98-19.15-72.48-48.14-10.35,28.99-33.13,48.14-59.53,48.14-10.35,0-10.35-15.53,0-15.53Zm198.79-76.62c0-39.34-30.03-77.14-67.3-77.14s-67.3,38.31-67.3,77.14,29.51,76.62,67.3,76.62,67.3-37.27,67.3-76.62Z"></path><path class="cls-12" d="m1027.95,1477.84c-17.6,10.35-37.27,17.6-59.02,21.74l-15.01,2.07c-6.21.52-12.42.52-18.64.52-38.83,0-78.17-15.01-78.17-48.14,0-1.55,0-3.62.52-5.18l2.07-12.42h28.47v3.11c-11.39,0-15.53,6.73-15.53,14.5,0,17.6,22.78,32.61,62.64,32.61,4.66,0,9.32,0,13.98-.52l16.05-1.55c21.23-3.62,41.41-11.39,59.02-22.26-11.91-49.18-16.05-99.4-16.05-129.42,0-28.47,3.11-132.53,50.73-132.53s50.22,104.05,50.22,132.53c0,58.5-26.4,106.64-67.3,136.15,16.57,64.71,46.07,124.24,95.77,124.24,40.9,0,62.64-50.22,62.64-91.11,0-4.66-1.04-10.87-3.11-17.6-6.21.52-11.91,1.04-17.08,1.04-16.57,0-38.31-6.73-38.31-27.44-.52-16.05,12.94-25.37,26.4-25.37,18.64,0,32.1,16.05,39.86,34.68,42.45-7.25,99.91-27.44,132.53-37.27l-43.49,30.54c-27.44,8.28-57.98,16.57-83.87,21.23,1.55,7.25,2.59,13.98,2.59,20.19,0,41.41-22.26,106.64-78.17,106.64s-91.11-62.64-109.75-130.97Zm65.75-144.95c0-17.08-3.11-117-34.68-117s-35.2,99.91-35.2,117c0,26.92,4.14,73.51,13.98,119.59,34.68-26.92,55.91-68.85,55.91-119.59Zm98.36,136.67c-5.18-11.39-13.46-21.23-23.81-21.23-6.73,0-10.87,4.14-10.87,9.84,0,10.35,15.53,11.91,22.78,11.91,3.62,0,7.77,0,11.91-.52Z"></path><path class="cls-12" d="m1279.54,1516.15c0-50.73,42.45-92.15,83.35-92.15,42.97,0,82.31,42.45,82.31,92.15v12.42c0,40.9,24.85,64.71,48.66,64.71,10.35,0,10.35,15.53,0,15.53-25.88,0-49.18-18.64-59.02-48.66-14.5,28.47-41.41,48.66-71.96,48.66-44,0-83.35-41.41-83.35-92.67Zm150.13.52c0-39.34-30.03-77.14-67.3-77.14s-67.3,38.31-67.3,77.14,29.51,76.62,67.3,76.62,67.3-37.27,67.3-76.62Z"></path><path class="cls-12" d="m1493.85,1593.28c48.14,0,46.07-84.9,46.07-122.17-17.6-2.07-34.68-10.87-34.68-29.51,0-13.98,10.35-22.78,21.74-22.78,19.67,0,26.4,20.19,27.96,37.27,32.61-1.55,88.52-13.98,104.05-29.51,5.69-6.21,12.94-3.62,12.94,5.18v39.86c0,34.68-3.11,121.66,50.22,121.66,10.35,0,10.35,15.53,0,15.53-66.78,0-65.75-91.11-65.75-137.19v-24.85c-24.33,13.98-70.41,23.81-100.95,24.85,0,46.59,1.04,137.19-61.6,137.19-10.35,0-10.35-15.53,0-15.53Zm33.13-158.93c-3.11,0-6.21,2.07-6.21,7.25,0,8.8,9.84,12.42,18.12,13.98-1.04-9.84-4.14-21.23-11.91-21.23Z"></path><path class="cls-12" d="m641.22,2531.04v-262.83c0-78.59-168.63-77.55-168.63,4.16v323.21c0,10.41-15.61,10.41-15.61,0v-323.21c0-88.48-169.15-81.71-169.15,3.12v320.08c0,10.93-15.61,10.93-15.61,0v-320.08c0-46.84-36.95-67.14-69.22-67.14s-61.93,21.86-61.93,72.86c0,10.41-15.61,10.41-15.61,0,0-59.33,34.35-88.48,77.55-88.48,28.63,0,63.5,14.57,78.07,47.36,33.31-59.33,152.5-64.54,184.24-1.04,37.47-67.66,191.53-58.81,191.53,29.15v262.83c0,36.95,22.9,56.73,55.17,56.73,10.41,0,10.41,15.61,0,15.61-40.6,0-70.78-26.02-70.78-72.34Z"></path><path class="cls-12" d="m711.98,2587.77c23.94,0,48.92-23.94,48.92-65.06v-12.49c0-51.01,42.68-92.64,83.79-92.64,43.2,0,82.75,42.68,82.75,92.64s-37.47,93.16-82.75,93.16c-30.19,0-58.29-19.26-72.86-48.4-10.41,29.15-33.31,48.4-59.85,48.4-10.41,0-10.41-15.61,0-15.61Zm199.86-77.03c0-39.56-30.19-77.55-67.66-77.55s-67.66,38.51-67.66,77.55,29.67,77.03,67.66,77.03,67.66-37.47,67.66-77.03Z"></path><path class="cls-12" d="m1084.62,2603.38c-53.61,0-86.4-61.41-103.57-136.88-23.94,18.22-54.13,29.67-90.04,29.67-39.03,0-78.59-15.09-78.59-48.4,0-1.56,0-3.64.52-5.2l7.29-14.05h23.42v4.68c-11.45,0-15.61,6.77-15.61,14.57,0,17.7,22.9,32.79,62.98,32.79,34.87,0,64.02-11.97,86.4-31.75-7.29-40.08-10.93-83.27-10.93-122.83,0-27.58,7.29-133.24,48.92-133.24s38.51,77.55,38.51,100.45c0,61.41-19.78,122.83-59.85,161.86,15.09,74.95,44.76,132.72,90.56,132.72,10.41,0,10.41,15.61,0,15.61Zm-102.53-277.41c0,36.95,2.6,74.43,8.33,109.3,31.75-35.91,47.88-90.04,47.88-146.25,0-25.5,2.08-80.67-22.9-80.67s-33.31,101.49-33.31,117.62Z"></path><path class="cls-12" d="m1084.62,2587.77c23.42,0,45.28-10.41,62.98-26.02-19.78-22.38-32.27-51.53-32.79-80.15-1.04-27.06,13.53-64.02,44.24-64.02s44.76,36.95,44.24,64.02c-1.04,28.63-13.53,57.77-33.31,80.15,17.7,15.61,39.56,26.02,62.98,26.02,10.41,0,10.41,15.61,0,15.61-27.58,0-53.61-11.97-73.91-30.19-20.82,18.22-46.84,30.19-74.43,30.19-10.41,0-10.41-15.61,0-15.61Zm103.05-106.69c.52-26.02-13.01-47.88-28.63-47.88s-29.67,21.86-28.63,47.88c.52,24.98,11.45,49.96,28.63,69.74,16.65-19.78,27.58-44.76,28.63-69.74Z"></path><path class="cls-12" d="m1354.2,2739.22c0-61.41,30.71-91.08,68.18-116.06-4.68-9.89-9.89-19.78-15.61-27.58-10.93,5.2-22.9,7.81-35.39,7.81-14.57,0-33.31-5.73-33.31-23.42,0-16.65,16.65-22.9,30.19-22.9,16.13,0,30.19,7.29,41.64,18.74,20.82-14.05,34.35-38.51,34.35-65.06,0-42.68-33.31-77.03-73.39-77.03-110.86,0-37.99,169.67-137.92,169.67-10.41,0-10.41-15.61,0-15.61,81.71,0,12.49-169.67,137.92-169.67,49.44,0,89,41.64,89,92.64,0,31.23-15.61,60.37-40.08,77.03,6.25,8.33,11.45,17.18,15.61,27.06,46.84-29.15,97.85-56.21,118.67-127.51l-.52,44.76c-27.06,49.96-72.86,72.86-111.9,97.33,17.18,43.72,23.42,94.72,23.42,118.67,0,44.24-19.26,85.88-55.69,85.88-43.2,0-55.17-53.09-55.17-94.72Zm41.12-155.62c-7.81-6.77-17.18-10.93-27.06-10.93-4.16,0-14.57,1.04-14.57,6.77,0,7.29,13.01,8.33,17.7,8.33,8.33,0,16.65-1.56,23.94-4.16Zm54.13,164.47c0-19.26-6.25-68.7-21.34-109.82-32.79,22.38-58.29,49.44-58.29,100.97,0,45.28,13.01,79.11,39.56,79.11,21.34,0,40.08-27.06,40.08-70.26Z"></path><path class="cls-12" d="m1550.93,2510.22c0-51.01,42.68-92.64,83.79-92.64,43.2,0,82.75,42.68,82.75,92.64v12.49c0,41.12,24.98,65.06,48.92,65.06,10.41,0,10.41,15.61,0,15.61-26.02,0-49.44-18.74-59.33-48.92-14.57,28.63-41.64,48.92-72.34,48.92-44.24,0-83.79-41.64-83.79-93.16Zm150.93.52c0-39.56-30.19-77.55-67.66-77.55s-67.66,38.51-67.66,77.55,29.67,77.03,67.66,77.03,67.66-37.47,67.66-77.03Z"></path><g class="cls-11"><path class="cls-14" d="m659.9,1575.68c-18.12,24.33-39.86,33.13-61.09,33.13-10.35,0-10.35-15.53,0-15.53,22.78,0,43.49-12.94,61.09-40.38v-211.22c0-30.54-5.18-141.33,48.14-141.33s53.32,75.58,53.32,110.27c0,68.85-39.34,193.61-84.9,248.49,16.57,19.67,42.97,34.17,80.76,34.17,10.35,0,10.35,15.53,0,15.53-30.03,0-57.46-7.77-81.28-28.47l-1.04,254.7c0,10.35-15.53,10.35-15.53,0l.52-259.36Zm85.94-265.05c0-23.3,0-94.74-37.79-94.74s-32.61,107.16-32.61,125.8v193.61c46.59-65.75,70.41-184.81,70.41-224.68Z"></path></g><path class="cls-12" d="m137.57,2957.71h18.86v2.6h-15.92v12.94h12.31v2.6h-12.31v14.62h-2.94v-32.77Z"></path><path class="cls-12" d="m158.1,2983.08v-13.61h2.94v13.27c0,4.33,2.14,5.71,5.42,5.71,3.74,0,6.55-2.69,6.55-5.63v-13.36h2.94v21h-2.6l-.25-3.36h-.08c-.97,2.02-3.24,3.91-7.23,3.91-4.66,0-7.69-2.52-7.69-7.94Z"></path><path class="cls-12" d="m183.3,2957.71h2.94v32.77h-2.94v-32.77Z"></path><path class="cls-12" d="m193.59,2957.71h2.94v32.77h-2.94v-32.77Z"></path><path class="cls-12" d="m203.88,2969.47l6.89,17.98h.08l7.14-17.98h3.07v.04l-8.86,20.84-3.11,8.53h-2.98v-.04l3.19-8.36-8.78-20.96v-.04h3.36Z"></path><path class="cls-12" d="m233.24,2980.14c0-6.38,3.23-11.22,10-11.22s8.95,3.91,8.95,8.95v.42h-3.11v-.63c0-3.82-1.64-6.09-5.84-6.09-4.75,0-7.02,3.11-7.02,8.4,0,5.63,2.39,8.49,6.93,8.49,3.82,0,5.84-1.85,5.92-5.67h3.03c-.08,4.66-3.15,8.23-9.03,8.23-7.23,0-9.83-4.75-9.83-10.88Z"></path><path class="cls-12" d="m256.38,2979.97c0-6.22,3.32-11.05,10.38-11.05,6.6,0,10.25,4.83,10.25,11.05s-3.7,11.05-10.29,11.05c-7.27,0-10.33-4.83-10.33-11.05Zm17.56,0c0-5.33-2.9-8.49-7.23-8.49-4.75,0-7.27,3.15-7.27,8.49s2.56,8.49,7.27,8.49c4.33,0,7.23-3.15,7.23-8.49Z"></path><path class="cls-12" d="m282.89,2969.47h2.6l.29,3.49c1.01-2.14,3.28-4.03,7.35-4.03,4.75,0,7.77,2.52,7.77,7.94v13.61h-2.94v-13.27c0-4.33-2.14-5.71-5.5-5.71-3.82,0-6.64,2.69-6.64,5.63v13.36h-2.94v-21Z"></path><path class="cls-12" d="m308.25,2969.47h2.61l.29,3.49c1.01-2.14,3.28-4.03,7.35-4.03,4.75,0,7.77,2.52,7.77,7.94v13.61h-2.94v-13.27c0-4.33-2.14-5.71-5.5-5.71-3.82,0-6.64,2.69-6.64,5.63v13.36h-2.94v-21Z"></path><path class="cls-12" d="m350.89,2980.98h-15.96c.17,4.79,2.48,7.48,6.93,7.48,3.82,0,5.67-1.43,5.96-4.83h2.98c-.29,4.24-3.28,7.39-9.03,7.39-7.06,0-9.83-4.66-9.83-10.88s3.23-11.22,10-11.22,8.95,3.99,8.95,10.21v1.85Zm-3.11-2.98c0-4.45-1.72-6.55-5.92-6.55s-6.55,2.65-6.89,6.97h12.81v-.42Z"></path><path class="cls-12" d="m355.08,2980.14c0-6.38,3.23-11.22,10-11.22s8.95,3.91,8.95,8.95v.42h-3.11v-.63c0-3.82-1.64-6.09-5.84-6.09-4.75,0-7.02,3.11-7.02,8.4,0,5.63,2.39,8.49,6.93,8.49,3.82,0,5.84-1.85,5.92-5.67h3.02c-.08,4.66-3.15,8.23-9.03,8.23-7.23,0-9.83-4.75-9.83-10.88Z"></path><path class="cls-12" d="m390.87,2987.79v2.6c-.76.21-2.14.59-4.03.59-3.82,0-6.34-1.6-6.34-6.89v-12.18h-4.16v-2.44h4.16v-6.05l2.94-1.43v7.48h5.92v2.44h-5.92v11.8c0,2.81.76,4.58,3.4,4.58,1.6,0,3.23-.29,4.03-.5Z"></path><path class="cls-12" d="m412.33,2980.98h-15.96c.17,4.79,2.48,7.48,6.93,7.48,3.82,0,5.67-1.43,5.96-4.83h2.98c-.29,4.24-3.28,7.39-9.03,7.39-7.06,0-9.83-4.66-9.83-10.88s3.23-11.22,10-11.22,8.95,3.99,8.95,10.21v1.85Zm-3.11-2.98c0-4.45-1.72-6.55-5.92-6.55s-6.55,2.65-6.89,6.97h12.81v-.42Z"></path><path class="cls-12" d="m416.53,2980.01c0-7.1,4.28-11.09,10.04-11.09,3.7,0,6.22,1.6,7.31,3.74h.04v-14.96h2.94v32.77h-1.97l-.67-3.61h-.08c-1.18,2.31-3.95,4.16-7.77,4.16-6.3,0-9.83-3.99-9.83-11.01Zm17.64-.5c0-5.5-3.36-8.07-7.35-8.07-3.11,0-7.14,1.47-7.14,8.4s3.61,8.61,7.14,8.61c4.24,0,7.35-2.73,7.35-8.95Z"></path><path class="cls-12" d="m453.45,2983.08v-13.61h2.94v13.27c0,4.33,2.14,5.71,5.42,5.71,3.74,0,6.55-2.69,6.55-5.63v-13.36h2.94v21h-2.6l-.25-3.36h-.08c-.97,2.02-3.23,3.91-7.23,3.91-4.66,0-7.69-2.52-7.69-7.94Z"></path><path class="cls-12" d="m478.65,2969.47h2.39l.34,3.87h.08c1.13-2.48,4.03-4.41,7.86-4.41,6.3,0,9.66,3.99,9.66,11.01s-4.29,11.09-9.87,11.09c-3.78,0-6.39-1.6-7.44-3.7h-.08v11.55h-2.94v-29.41Zm17.18,10.63c0-7.18-3.4-8.61-6.93-8.61-4.24,0-7.56,2.73-7.56,8.44,0,6.01,3.44,8.57,7.43,8.57,3.03,0,7.06-1.47,7.06-8.4Z"></path><path class="cls-12" d="m504.86,2969.47h2.39l.34,3.87h.08c1.13-2.48,4.03-4.41,7.86-4.41,6.3,0,9.66,3.99,9.66,11.01s-4.28,11.09-9.87,11.09c-3.78,0-6.38-1.6-7.44-3.7h-.08v11.55h-2.94v-29.41Zm17.18,10.63c0-7.18-3.4-8.61-6.93-8.61-4.24,0-7.56,2.73-7.56,8.44,0,6.01,3.44,8.57,7.44,8.57,3.02,0,7.06-1.47,7.06-8.4Z"></path><path class="cls-12" d="m548.33,2980.98h-15.96c.17,4.79,2.48,7.48,6.93,7.48,3.82,0,5.67-1.43,5.96-4.83h2.98c-.29,4.24-3.28,7.39-9.03,7.39-7.06,0-9.83-4.66-9.83-10.88s3.23-11.22,10-11.22,8.95,3.99,8.95,10.21v1.85Zm-3.11-2.98c0-4.45-1.72-6.55-5.92-6.55s-6.55,2.65-6.89,6.97h12.81v-.42Z"></path><path class="cls-12" d="m554.21,2969.47h2.6l.29,3.91c1.01-2.14,3.07-4.45,6.76-4.45,1.26,0,2.18.21,3.02.55v3.15c-1.13-.5-2.1-.76-3.4-.76-3.74,0-6.34,2.81-6.34,5.75v12.85h-2.94v-21Z"></path><path class="cls-12" d="m569.2,2980.14c0-6.38,3.23-11.22,10-11.22s8.95,3.91,8.95,8.95v.42h-3.11v-.63c0-3.82-1.64-6.09-5.84-6.09-4.75,0-7.01,3.11-7.01,8.4,0,5.63,2.39,8.49,6.93,8.49,3.82,0,5.84-1.85,5.92-5.67h3.02c-.08,4.66-3.15,8.23-9.03,8.23-7.22,0-9.83-4.75-9.83-10.88Z"></path><path class="cls-12" d="m592.55,2984.68c0-3.95,2.23-6.09,7.86-6.09h6.34v-1.72c0-2.98-1.26-5.42-5.46-5.42-3.95,0-5.33,1.51-5.33,4.12v.88h-2.98v-.84c0-5,4.2-6.68,8.32-6.68,5.8,0,8.4,2.86,8.4,8.44v13.11h-2.06l-.55-2.98h-.08c-1.26,1.89-3.7,3.53-7.35,3.53-4.92,0-7.1-2.31-7.1-6.34Zm14.2-1.85v-1.76h-7.01c-2.65,0-4.03.92-4.03,3.61,0,2.35,1.26,3.87,4.49,3.87,4.16,0,6.55-2.14,6.55-5.71Z"></path><path class="cls-12" d="m615.15,2984.05v-1.18h2.94v1.13c0,2.86,2.14,4.5,5.96,4.5s5.8-1.01,5.8-3.78c0-2.06-1.01-2.81-3.86-3.32l-4.62-.84c-3.02-.55-5.54-2.02-5.54-5.5,0-3.15,2.35-6.13,8.4-6.13s8.4,3.02,8.4,7.23v.88h-2.98v-.76c0-3.44-2.14-4.92-5.42-4.92-3.95,0-5.33,1.34-5.33,3.36s1.01,2.86,3.91,3.4l4.03.76c4.12.76,6.09,1.93,6.09,5.59,0,4.58-4.12,6.55-8.78,6.55-7.31,0-8.99-3.28-8.99-6.97Z"></path><path class="cls-12" d="m656.06,2980.98h-15.96c.17,4.79,2.48,7.48,6.93,7.48,3.82,0,5.67-1.43,5.96-4.83h2.98c-.29,4.24-3.28,7.39-9.03,7.39-7.06,0-9.83-4.66-9.83-10.88s3.23-11.22,10-11.22,8.95,3.99,8.95,10.21v1.85Zm-3.11-2.98c0-4.45-1.72-6.55-5.92-6.55s-6.55,2.65-6.89,6.97h12.81v-.42Z"></path><path class="cls-12" d="m671.6,2957.71h2.94v32.77h-2.94v-32.77Z"></path><path class="cls-12" d="m699.15,2980.98h-15.96c.17,4.79,2.48,7.48,6.93,7.48,3.82,0,5.67-1.43,5.96-4.83h2.98c-.29,4.24-3.28,7.39-9.03,7.39-7.06,0-9.83-4.66-9.83-10.88s3.23-11.22,10-11.22,8.95,3.99,8.95,10.21v1.85Zm-3.11-2.98c0-4.45-1.72-6.55-5.92-6.55s-6.55,2.65-6.89,6.97h12.81v-.42Z"></path><path class="cls-12" d="m705.62,2984.09v-12.18h-4.16v-2.44h4.16v-6.05l2.94-1.43v7.48h11.85v-6.05l2.94-1.43v7.48h5.92v2.44h-5.92v11.8c0,2.81.76,4.58,3.4,4.58,1.6,0,3.23-.29,4.03-.5v2.6c-.76.21-2.14.59-4.03.59-3.82,0-6.34-1.6-6.34-6.89v-12.18h-11.85v11.8c0,2.81.76,4.58,3.4,4.58,1.6,0,3.23-.29,4.03-.5v2.6c-.76.21-2.14.59-4.03.59-3.82,0-6.34-1.6-6.34-6.89Z"></path><path class="cls-12" d="m752.24,2980.98h-15.96c.17,4.79,2.48,7.48,6.93,7.48,3.82,0,5.67-1.43,5.96-4.83h2.98c-.29,4.24-3.28,7.39-9.03,7.39-7.06,0-9.83-4.66-9.83-10.88s3.23-11.22,10-11.22,8.95,3.99,8.95,10.21v1.85Zm-3.11-2.98c0-4.45-1.72-6.55-5.92-6.55s-6.55,2.65-6.89,6.97h12.81v-.42Z"></path><path class="cls-12" d="m758.12,2969.47h2.6l.29,3.91c1.01-2.14,3.07-4.45,6.76-4.45,1.26,0,2.18.21,3.02.55v3.15c-1.13-.5-2.1-.76-3.4-.76-3.74,0-6.34,2.81-6.34,5.75v12.85h-2.94v-21Z"></path><path class="cls-12" d="m773.32,2984.05v-1.18h2.94v1.13c0,2.86,2.14,4.5,5.96,4.5s5.8-1.01,5.8-3.78c0-2.06-1.01-2.81-3.86-3.32l-4.62-.84c-3.02-.55-5.54-2.02-5.54-5.5,0-3.15,2.35-6.13,8.4-6.13s8.4,3.02,8.4,7.23v.88h-2.98v-.76c0-3.44-2.14-4.92-5.42-4.92-3.95,0-5.33,1.34-5.33,3.36s1.01,2.86,3.91,3.4l4.03.76c4.12.76,6.09,1.93,6.09,5.59,0,4.58-4.12,6.55-8.78,6.55-7.31,0-8.99-3.28-8.99-6.97Z"></path><path class="cls-12" d="m931.45,1983.99v-2.02h3.02v2.18c0,3.74,2.61,6.05,7.94,6.05s8.44-1.97,8.44-6.22c0-3.32-1.39-5.17-4.92-6.09l-6.64-1.72c-4.33-1.13-7.18-2.98-7.18-8.15s3.78-8.91,10.92-8.91,10.59,3.44,10.59,9.07v2.94h-3.03v-2.81c0-4.62-3.07-6.51-7.56-6.51-5.12,0-7.81,2.14-7.81,6.01,0,3.61,1.76,4.7,5.54,5.71l5.75,1.55c5.12,1.39,7.44,3.74,7.44,8.65,0,6.09-4.33,9.24-11.47,9.24-9.12,0-11.05-4.7-11.05-8.99Z"></path><path class="cls-12" d="m960.51,1971.43l6.89,17.98h.08l7.14-17.98h3.07v.04l-8.86,20.84-3.11,8.53h-2.98v-.04l3.19-8.36-8.78-20.96v-.04h3.36Z"></path><path class="cls-12" d="m1012.59,1978.82v13.61h-2.94v-13.27c0-4.33-2.14-5.71-4.75-5.71-3.82,0-6.17,2.69-6.17,5.63v13.36h-2.94v-13.27c0-4.33-1.85-5.71-4.83-5.71-3.61,0-6.13,2.69-6.13,5.63v13.36h-2.94v-21h2.61l.29,3.49c1.01-2.02,3.07-4.03,6.93-4.03,2.94,0,5.38,1.39,6.43,4.28,1.22-2.39,3.57-4.28,7.14-4.28,4.29,0,7.31,2.52,7.31,7.94Z"></path><path class="cls-12" d="m1050.65,1978.82v13.61h-2.94v-13.27c0-4.33-2.14-5.71-4.75-5.71-3.82,0-6.18,2.69-6.18,5.63v13.36h-2.94v-13.27c0-4.33-1.85-5.71-4.83-5.71-3.61,0-6.13,2.69-6.13,5.63v13.36h-2.94v-21h2.6l.29,3.49c1.01-2.02,3.07-4.03,6.93-4.03,2.94,0,5.38,1.39,6.43,4.28,1.22-2.39,3.57-4.28,7.14-4.28,4.28,0,7.31,2.52,7.31,7.94Z"></path><path class="cls-12" d="m1075.26,1982.94h-15.96c.17,4.79,2.48,7.48,6.93,7.48,3.82,0,5.67-1.43,5.96-4.83h2.98c-.29,4.24-3.28,7.39-9.03,7.39-7.06,0-9.83-4.66-9.83-10.88s3.23-11.22,10-11.22,8.95,3.99,8.95,10.21v1.85Zm-3.11-2.98c0-4.45-1.72-6.55-5.92-6.55s-6.55,2.65-6.89,6.97h12.81v-.42Z"></path><path class="cls-12" d="m1092.1,1989.74v2.6c-.76.21-2.14.59-4.03.59-3.82,0-6.34-1.6-6.34-6.89v-12.18h-4.16v-2.44h4.16v-6.05l2.94-1.43v7.48h5.92v2.44h-5.92v11.8c0,2.81.76,4.58,3.4,4.58,1.6,0,3.23-.29,4.03-.5Z"></path><path class="cls-12" d="m1096.93,1971.43h2.6l.29,3.91c1.01-2.14,3.07-4.45,6.76-4.45,1.26,0,2.18.21,3.02.55v3.15c-1.13-.5-2.1-.76-3.4-.76-3.74,0-6.34,2.81-6.34,5.75v12.85h-2.94v-21Z"></path><path class="cls-12" d="m1114.23,1959.67h2.98v6.51h-2.98v-6.51Zm0,11.76h2.94v21h-2.94v-21Z"></path><path class="cls-12" d="m1122.88,1982.1c0-6.38,3.23-11.22,10-11.22s8.95,3.91,8.95,8.95v.42h-3.11v-.63c0-3.82-1.64-6.09-5.84-6.09-4.75,0-7.02,3.11-7.02,8.4,0,5.63,2.39,8.49,6.93,8.49,3.82,0,5.84-1.85,5.92-5.67h3.03c-.08,4.66-3.15,8.23-9.03,8.23-7.23,0-9.83-4.75-9.83-10.88Z"></path><path class="cls-12" d="m1157.36,1959.67h2.94v32.77h-2.94v-32.77Z"></path><path class="cls-12" d="m1165.97,1981.93c0-6.22,3.32-11.05,10.38-11.05,6.59,0,10.25,4.83,10.25,11.05s-3.7,11.05-10.29,11.05c-7.27,0-10.33-4.83-10.33-11.05Zm17.56,0c0-5.33-2.9-8.49-7.23-8.49-4.75,0-7.27,3.15-7.27,8.49s2.56,8.49,7.27,8.49c4.33,0,7.23-3.15,7.23-8.49Z"></path><path class="cls-12" d="m1190.79,1981.93c0-6.22,3.32-11.05,10.38-11.05,6.6,0,10.25,4.83,10.25,11.05s-3.7,11.05-10.29,11.05c-7.27,0-10.33-4.83-10.33-11.05Zm17.56,0c0-5.33-2.9-8.49-7.22-8.49-4.75,0-7.27,3.15-7.27,8.49s2.56,8.49,7.27,8.49c4.33,0,7.22-3.15,7.22-8.49Z"></path><path class="cls-12" d="m1217.3,1971.43h2.39l.34,3.86h.08c1.13-2.48,4.03-4.41,7.86-4.41,6.3,0,9.66,3.99,9.66,11.01s-4.29,11.09-9.87,11.09c-3.78,0-6.39-1.6-7.44-3.7h-.08v11.55h-2.94v-29.41Zm17.18,10.63c0-7.18-3.4-8.61-6.93-8.61-4.24,0-7.56,2.73-7.56,8.44,0,6.01,3.44,8.57,7.43,8.57,3.02,0,7.06-1.47,7.06-8.4Z"></path><path class="cls-12" d="m1253.17,1959.67h2.98v6.51h-2.98v-6.51Zm0,11.76h2.94v21h-2.94v-21Z"></path><path class="cls-12" d="m1263.5,1971.43h2.6l.29,3.49c1.01-2.14,3.28-4.03,7.35-4.03,4.75,0,7.77,2.52,7.77,7.94v13.61h-2.94v-13.27c0-4.33-2.14-5.71-5.5-5.71-3.82,0-6.64,2.69-6.64,5.63v13.36h-2.94v-21Z"></path><path class="cls-12" d="m1300.21,1970.13h-3.36v-5.08c0-3.95.88-5.29,3.4-5.97l.67,1.85c-1.76.67-2.06,1.09-2.06,3.78v.34h1.34v5.08Zm5.92,0h-3.36v-5.08c0-3.95.88-5.29,3.4-5.97l.67,1.85c-1.76.67-2.06,1.09-2.06,3.78v.34h1.34v5.08Z"></path><path class="cls-12" d="m1312.51,1959.67h2.94v32.77h-2.94v-32.77Z"></path><path class="cls-12" d="m1320.91,1968.87c1.77-.67,2.06-1.09,2.06-3.78v-.34h-1.34v-5.08h3.36v5.08c0,3.95-.88,5.29-3.4,5.97l-.67-1.85Zm5.92,0c1.76-.67,2.06-1.09,2.06-3.78v-.34h-1.34v-5.08h3.36v5.08c0,3.95-.88,5.29-3.4,5.97l-.67-1.85Z"></path><g class="cls-15"><path class="cls-14" d="m1084.62,2603.38c-53.61,0-86.4-61.41-103.57-136.88-23.94,18.22-54.13,29.67-90.04,29.67-39.03,0-78.59-15.09-78.59-48.4,0-1.56,0-3.64.52-5.2l7.29-14.05h23.42v4.68c-11.45,0-15.61,6.77-15.61,14.57,0,17.7,22.9,32.79,62.98,32.79,34.87,0,64.02-11.97,86.4-31.75-7.29-40.08-10.93-83.27-10.93-122.83,0-27.58,7.29-133.24,48.92-133.24s38.51,77.55,38.51,100.45c0,61.41-19.78,122.83-59.85,161.86,15.09,74.95,44.76,132.72,90.56,132.72,10.41,0,10.41,15.61,0,15.61Zm-102.53-277.41c0,36.95,2.6,74.43,8.33,109.3,31.75-35.91,47.88-90.04,47.88-146.25,0-25.5,2.08-80.67-22.9-80.67s-33.31,101.49-33.31,117.62Z"></path></g><g class="cls-18"><path class="cls-14" d="m1027.95,1477.84c-17.6,10.35-37.27,17.6-59.02,21.74l-15.01,2.07c-6.21.52-12.42.52-18.64.52-38.83,0-78.17-15.01-78.17-48.14,0-1.55,0-3.62.52-5.18l2.07-12.42h28.47v3.11c-11.39,0-15.53,6.73-15.53,14.5,0,17.6,22.78,32.61,62.64,32.61,4.66,0,9.32,0,13.98-.52l16.05-1.55c21.23-3.62,41.41-11.39,59.02-22.26-11.91-49.18-16.05-99.4-16.05-129.42,0-28.47,3.11-132.53,50.73-132.53s50.22,104.05,50.22,132.53c0,58.5-26.4,106.64-67.3,136.15,16.57,64.71,46.07,124.24,95.77,124.24,40.9,0,62.64-50.22,62.64-91.11,0-4.66-1.04-10.87-3.11-17.6-6.21.52-11.91,1.04-17.08,1.04-16.57,0-38.31-6.73-38.31-27.44-.52-16.05,12.94-25.37,26.4-25.37,18.64,0,32.1,16.05,39.86,34.68,42.45-7.25,99.91-27.44,132.53-37.27l-43.49,30.54c-27.44,8.28-57.98,16.57-83.87,21.23,1.55,7.25,2.59,13.98,2.59,20.19,0,41.41-22.26,106.64-78.17,106.64s-91.11-62.64-109.75-130.97Zm65.75-144.95c0-17.08-3.11-117-34.68-117s-35.2,99.91-35.2,117c0,26.92,4.14,73.51,13.98,119.59,34.68-26.92,55.91-68.85,55.91-119.59Zm98.36,136.67c-5.18-11.39-13.46-21.23-23.81-21.23-6.73,0-10.87,4.14-10.87,9.84,0,10.35,15.53,11.91,22.78,11.91,3.62,0,7.77,0,11.91-.52Z"></path></g><g class="cls-17"><path class="cls-14" d="m844.7,2417.58c-41.12,0-83.79,41.64-83.79,92.64v12.49c0,41.11-24.98,65.05-48.92,65.06-32.26,0-55.16-19.78-55.16-56.73v-262.83c0-87.96-154.06-96.81-191.53-29.15-31.75-63.5-150.93-58.29-184.24,1.04-14.57-32.79-49.44-47.36-78.07-47.36-43.2,0-77.55,29.15-77.55,88.48,0,10.41,15.61,10.41,15.61,0,0-51.01,28.1-72.86,61.93-72.86s69.22,20.3,69.22,67.14v320.08c0,10.93,15.61,10.93,15.61,0v-320.08c0-84.84,169.15-91.6,169.15-3.12v323.21c0,10.41,15.61,10.41,15.61,0v-323.21c0-81.71,168.63-82.75,168.63-4.16v262.83c0,46.31,30.17,72.33,70.75,72.34,0,0,0,0,.01,0,0,0,0,0,0,0,0,0,0,0,0,0,0,0,.01,0,.02,0,26.53-.02,49.41-19.27,59.82-48.4,14.57,29.15,42.68,48.4,72.86,48.4,45.28,0,82.75-44.24,82.75-93.16s-39.56-92.64-82.75-92.64Zm-.52,170.19c-37.99,0-67.66-39.03-67.66-77.03s29.67-77.55,67.66-77.55,67.66,37.99,67.66,77.55-30.19,77.03-67.66,77.03Z"></path></g><g class="cls-16"><path class="cls-14" d="m1354.2,2739.22c0-61.41,30.71-91.08,68.18-116.06-4.68-9.89-9.89-19.78-15.61-27.58-10.93,5.2-22.9,7.81-35.39,7.81-14.57,0-33.31-5.73-33.31-23.42,0-16.65,16.65-22.9,30.19-22.9,16.13,0,30.19,7.29,41.64,18.74,20.82-14.05,34.35-38.51,34.35-65.06,0-42.68-33.31-77.03-73.39-77.03-110.86,0-37.99,169.67-137.92,169.67-10.41,0-10.41-15.61,0-15.61,81.71,0,12.49-169.67,137.92-169.67,49.44,0,89,41.64,89,92.64,0,31.23-15.61,60.37-40.08,77.03,6.25,8.33,11.45,17.18,15.61,27.06,46.84-29.15,97.85-56.21,118.67-127.51l-.52,44.76c-27.06,49.96-72.86,72.86-111.9,97.33,17.18,43.72,23.42,94.72,23.42,118.67,0,44.24-19.26,85.88-55.69,85.88-43.2,0-55.17-53.09-55.17-94.72Zm41.12-155.62c-7.81-6.77-17.18-10.93-27.06-10.93-4.16,0-14.57,1.04-14.57,6.77,0,7.29,13.01,8.33,17.7,8.33,8.33,0,16.65-1.56,23.94-4.16Zm54.13,164.47c0-19.26-6.25-68.7-21.34-109.82-32.79,22.38-58.29,49.44-58.29,100.97,0,45.28,13.01,79.11,39.56,79.11,21.34,0,40.08-27.06,40.08-70.26Z"></path></g><path class="cls-12" d="m855.24,1096.71v-2.02h3.02v2.18c0,3.74,2.6,6.05,7.94,6.05s8.44-1.97,8.44-6.22c0-3.32-1.39-5.17-4.92-6.09l-6.64-1.72c-4.33-1.13-7.18-2.98-7.18-8.15s3.78-8.91,10.92-8.91,10.59,3.44,10.59,9.07v2.94h-3.02v-2.81c0-4.62-3.07-6.51-7.56-6.51-5.12,0-7.81,2.14-7.81,6.01,0,3.61,1.76,4.7,5.54,5.71l5.75,1.55c5.12,1.39,7.44,3.74,7.44,8.65,0,6.09-4.33,9.24-11.47,9.24-9.12,0-11.05-4.7-11.05-8.99Z"></path><path class="cls-12" d="m884.3,1084.15l6.89,17.98h.08l7.14-17.98h3.07v.04l-8.86,20.84-3.11,8.53h-2.98v-.04l3.19-8.36-8.78-20.96v-.04h3.36Z"></path><path class="cls-12" d="m936.39,1091.54v13.61h-2.94v-13.27c0-4.33-2.14-5.71-4.75-5.71-3.82,0-6.18,2.69-6.18,5.63v13.36h-2.94v-13.27c0-4.33-1.85-5.71-4.83-5.71-3.61,0-6.13,2.69-6.13,5.63v13.36h-2.94v-21h2.6l.29,3.49c1.01-2.02,3.07-4.03,6.93-4.03,2.94,0,5.38,1.39,6.43,4.28,1.22-2.39,3.57-4.28,7.14-4.28,4.29,0,7.31,2.52,7.31,7.94Z"></path><path class="cls-12" d="m974.44,1091.54v13.61h-2.94v-13.27c0-4.33-2.14-5.71-4.75-5.71-3.82,0-6.17,2.69-6.17,5.63v13.36h-2.94v-13.27c0-4.33-1.85-5.71-4.83-5.71-3.61,0-6.13,2.69-6.13,5.63v13.36h-2.94v-21h2.6l.29,3.49c1.01-2.02,3.07-4.03,6.93-4.03,2.94,0,5.38,1.39,6.43,4.28,1.22-2.39,3.57-4.28,7.14-4.28,4.28,0,7.31,2.52,7.31,7.94Z"></path><path class="cls-12" d="m999.05,1095.66h-15.96c.17,4.79,2.48,7.48,6.93,7.48,3.82,0,5.67-1.43,5.96-4.83h2.98c-.29,4.24-3.28,7.39-9.03,7.39-7.06,0-9.83-4.66-9.83-10.88s3.23-11.22,10-11.22,8.95,3.99,8.95,10.21v1.85Zm-3.11-2.98c0-4.45-1.72-6.55-5.92-6.55s-6.55,2.65-6.89,6.97h12.81v-.42Z"></path><path class="cls-12" d="m1015.89,1102.46v2.6c-.76.21-2.14.59-4.03.59-3.82,0-6.34-1.6-6.34-6.89v-12.18h-4.16v-2.44h4.16v-6.05l2.94-1.43v7.48h5.92v2.44h-5.92v11.8c0,2.81.76,4.58,3.4,4.58,1.6,0,3.23-.29,4.03-.5Z"></path><path class="cls-12" d="m1020.72,1084.15h2.6l.29,3.91c1.01-2.14,3.07-4.45,6.76-4.45,1.26,0,2.18.21,3.02.55v3.15c-1.13-.5-2.1-.76-3.4-.76-3.74,0-6.34,2.81-6.34,5.75v12.85h-2.94v-21Z"></path><path class="cls-12" d="m1038.02,1072.39h2.98v6.51h-2.98v-6.51Zm0,11.76h2.94v21h-2.94v-21Z"></path><path class="cls-12" d="m1046.67,1094.82c0-6.38,3.23-11.22,10-11.22s8.95,3.91,8.95,8.95v.42h-3.11v-.63c0-3.82-1.64-6.09-5.84-6.09-4.75,0-7.02,3.11-7.02,8.4,0,5.63,2.39,8.49,6.93,8.49,3.82,0,5.84-1.85,5.92-5.67h3.02c-.08,4.66-3.15,8.23-9.03,8.23-7.22,0-9.83-4.75-9.83-10.88Z"></path><path class="cls-12" d="m1081.15,1072.39h2.94v32.77h-2.94v-32.77Z"></path><path class="cls-12" d="m1089.76,1094.65c0-6.22,3.32-11.05,10.38-11.05,6.59,0,10.25,4.83,10.25,11.05s-3.7,11.05-10.29,11.05c-7.27,0-10.33-4.83-10.33-11.05Zm17.56,0c0-5.33-2.9-8.49-7.23-8.49-4.75,0-7.27,3.15-7.27,8.49s2.56,8.49,7.27,8.49c4.33,0,7.23-3.15,7.23-8.49Z"></path><path class="cls-12" d="m1114.59,1094.65c0-6.22,3.32-11.05,10.38-11.05,6.59,0,10.25,4.83,10.25,11.05s-3.7,11.05-10.29,11.05c-7.27,0-10.33-4.83-10.33-11.05Zm17.56,0c0-5.33-2.9-8.49-7.23-8.49-4.75,0-7.27,3.15-7.27,8.49s2.56,8.49,7.27,8.49c4.33,0,7.23-3.15,7.23-8.49Z"></path><path class="cls-12" d="m1141.09,1084.15h2.39l.34,3.86h.08c1.13-2.48,4.03-4.41,7.86-4.41,6.3,0,9.66,3.99,9.66,11.01s-4.28,11.09-9.87,11.09c-3.78,0-6.38-1.6-7.44-3.7h-.08v11.55h-2.94v-29.41Zm17.18,10.63c0-7.18-3.4-8.61-6.93-8.61-4.24,0-7.56,2.73-7.56,8.44,0,6.01,3.44,8.57,7.44,8.57,3.02,0,7.06-1.47,7.06-8.4Z"></path><path class="cls-12" d="m1176.96,1072.39h2.98v6.51h-2.98v-6.51Zm0,11.76h2.94v21h-2.94v-21Z"></path><path class="cls-12" d="m1187.29,1084.15h2.6l.29,3.49c1.01-2.14,3.28-4.03,7.35-4.03,4.75,0,7.77,2.52,7.77,7.94v13.61h-2.94v-13.27c0-4.33-2.14-5.71-5.5-5.71-3.82,0-6.64,2.69-6.64,5.63v13.36h-2.94v-21Z"></path><path class="cls-12" d="m1224,1082.85h-3.36v-5.08c0-3.95.88-5.29,3.4-5.97l.67,1.85c-1.76.67-2.06,1.09-2.06,3.78v.34h1.34v5.08Zm5.92,0h-3.36v-5.08c0-3.95.88-5.29,3.4-5.97l.67,1.85c-1.76.67-2.06,1.09-2.06,3.78v.34h1.34v5.08Z"></path><path class="cls-12" d="m1239.12,1101.67h-.08l-.76,3.49h-1.97v-32.77h2.94v15.25h.04c1.26-2.31,4.07-4.03,7.69-4.03,6.3,0,9.66,3.99,9.66,11.01s-4.29,11.09-9.87,11.09c-3.78,0-6.55-1.64-7.65-4.03Zm14.37-6.89c0-7.18-3.4-8.61-6.93-8.61-4.24,0-7.56,2.73-7.56,8.44,0,6.01,3.44,8.57,7.43,8.57,3.03,0,7.06-1.47,7.06-8.4Z"></path><path class="cls-12" d="m1257.89,1081.59c1.76-.67,2.06-1.09,2.06-3.78v-.34h-1.34v-5.08h3.36v5.08c0,3.95-.88,5.29-3.4,5.97l-.67-1.85Zm5.92,0c1.76-.67,2.06-1.09,2.06-3.78v-.34h-1.34v-5.08h3.36v5.08c0,3.95-.88,5.29-3.4,5.97l-.67-1.85Z"></path></svg> 