<?xml version="1.0" encoding="UTF-8"?> <svg xmlns="http://www.w3.org/2000/svg" id="icons" viewBox="0 0 800 800"><defs><style>.cls-1{fill:#65d7e7;}.cls-2{fill:#e94f43;}.cls-3{fill:#a0e6b4;}.cls-4{fill:#6e16e7;}</style></defs><path class="cls-3" d="m454.32,167.63c-.64-1.87-2.48-4.06-7.66-3.99h-.62s-5.28,1.84-5.28,1.84l4.22-2.76c1.81-1.18,2.32-3.61,1.14-5.42-1.18-1.81-3.61-2.32-5.42-1.14l-29.18,19.07c-.19.12-.36.26-.52.41-2.51-6.78-6.98-18.57-11.99-30.44-14.17-33.63-20.37-39.59-24.56-40.98-13.64-4.55-65.87,21.76-73.79,29.98-3.56,3.69-5.06,10.84,22.39,49.22,2.77,3.87,5.58,7.71,8.32,11.37-1.33,6.56-.71,8.8.95,10.35,1.31,1.23,3.22,1.55,4.97.84.58-.24,1.17-.59,1.78-1.04,7.4,9.63,12.91,16.44,13,16.55.9,1.11,2.28,1.59,3.59,1.41l-20.97,17.63c-1.18.97-4.32,3.53-2.72,6.81.53,1.09,1.28,1.73,2.17,2.08-3.59,3.53-6.29,6.22-5.69,9.28-6.4,5.76-11.11,10-12.99,11.7-1.61,1.45-1.74,3.92-.29,5.53.77.86,1.84,1.29,2.91,1.29.94,0,1.87-.33,2.62-1.01,3.97-3.58,8.16-7.35,12.48-11.24.21.03.42.06.63.06.95,0,1.91-.3,2.77-.88l.1-.07,112.57-86.21c.28-.21,6.83-5.18,5.1-10.23Zm-40.55,15.22s-.08.07-.13.11l-.03-.09c.05,0,.11-.01.16-.01Zm-84.03-57.12c-8.42,19.87-11.95,29.35-13.14,34.2-9.34-14.86-10.02-19.51-9.99-20.63,3.47-3.33,12.66-8.54,23.13-13.57Zm-5.64,45.56c-1.01-1.47-1.96-2.87-2.86-4.21,1.51-.39,2.71-1.3,6.27-6.42-1.54,4.54-2.65,7.98-3.41,10.64Zm7.01,9.93c-.06-.08-.11-.15-.16-.23,1.74-1.94,4.04-5.48,7.71-11.75-2.02,6.34-3.61,11.5-4.81,15.73-.91-1.24-1.82-2.49-2.73-3.75Zm13.17,17.68c1.91-2.84,4.03-6.52,6.48-11.13-1.51,6.74-2.45,11.5-2.54,14.1-.06,1.99,1.22,3.79,3.12,4.38,1.9.59,3.98-.16,5.06-1.84,1.04-1.62,3.17-4.65,5.62-8.02-.77,1.94-1.49,3.76-2.11,5.31-1.02,2.56-1.96,4.93-2.72,6.85-.79,2.01.21,4.29,2.22,5.07.47.18.95.27,1.43.27,1.57,0,3.04-.95,3.65-2.49.75-1.91,1.68-4.26,2.7-6.81,2.19-5.49,4.67-11.72,6.54-16.75,2.99-8.06,4.49-12.1.43-13.84-3.27-1.4-5.37.37-14.06,11.85-.41.55-.83,1.1-1.24,1.65.42-1.87.86-3.74,1.27-5.5,1.08-4.69,2.11-9.12,2.79-12.54,1.02-5.11,1.7-8.48-1.48-10.07-.97-.48-2.07-.56-3.11-.21-2.22.74-3.02,2.2-8.58,13.38-2.09,4.2-5.8,11.64-9.19,17.54,2.54-9.35,6.79-22.32,9.29-29.96,1.73-5.29,3.23-9.86,4.27-13.27.57-1.87.96-3.26,1.19-4.26.75-3.21-.02-5.27-2.3-6.12-3.52-1.32-5.37,1.74-8.18,6.37-1.84,3.04-4.18,7.17-6.67,11.54-.16.28-.32.57-.49.86.57-1.62,1.1-3.14,1.58-4.48,1.39-3.94,2.7-7.65,3.61-10.38,1.51-4.54,2.08-6.24.74-8.13l-1.21-1.67h-2.03c-2.1,0-2.84.46-6.97,6.75,1.22-2.99,2.49-6.01,3.73-8.96.84-1.99-.09-4.29-2.08-5.13,0,0,0,0-.01,0,15.64-7.12,32.46-13.11,36.91-11.63,4.44,1.88,18.17,29.04,32.88,69.91l-46.01,38.67c.39-1.22.18-2.6-.69-3.67-.09-.11-6.04-7.45-13.85-17.65Zm1.47,42.53l31.06-26.11c-9.98,8.9-20.57,18.38-30.14,26.97-.28-.35-.58-.64-.91-.86Zm50.07-32.54c13.37-11.86,22.96-20.24,24.5-21.27,1.82-1.17,2.34-3.6,1.16-5.41-.36-.56-.85-.98-1.4-1.28l22.36-7.74-46.63,35.71Z"></path><path class="cls-1" d="m273.38,613.12c-.22.05-.44.09-.66.11-5.44.51-9.64-6.94-14.03-24.9-2.84-11.64-4.65-23.54-4.66-23.66-.23-1.51.82-2.92,2.32-3.14,1.51-.23,2.92.81,3.14,2.32.02.11,1.66,10.95,4.27,21.92,4.06,17.07,7.16,20.9,8.19,21.73,1.77-3.97-.92-22.04-2.4-31.95-2.66-17.89-3.56-23.91.73-24.94s6.57,4.09,15.25,26.22c2.57,6.56,6.14,15.68,8.57,20.37.76-6.18.85-18.78.9-27.01.14-20.8.44-24.18,2.35-25.78.79-.66,1.84-.89,2.83-.62,2.56.71,3.94,3.66,10.5,22.56,2.14,6.16,5.04,14.53,7.24,19.6.18-4.91-.06-12.39-.23-17.94-.64-20.45-.47-25.38,2.7-26.84.84-.39,1.78-.4,2.66-.05,2.5,1.02,4.09,4.92,8.31,16.03,3.57,9.4,11,28.97,15.98,29.29,1.52.1,2.68,1.41,2.58,2.93-.1,1.52-1.41,2.68-2.93,2.58-7.91-.5-13.85-14.54-20.8-32.84-1.03-2.72-2.19-5.78-3.23-8.27-.13,4.82.09,11.77.26,17,.6,19.11.44,24.58-1.89,26.66-.75.67-1.75.98-2.73.83-3.45-.5-5.76-5.92-13.14-27.16-1.45-4.18-3.2-9.22-4.7-13.15-.16,4.42-.2,10.17-.23,15.22-.16,23.82-.61,31.63-3.17,34.09-.7.67-1.59,1.03-2.51,1-3.72-.11-6.22-5.46-14.45-26.48-2.13-5.42-4.94-12.61-7.21-17.55.43,3.94,1.18,8.99,1.84,13.44,2.86,19.25,4.48,32.19,1.01,36.63-.71.91-1.62,1.5-2.65,1.75Zm-1.06-5.39h0s0,0,0,0Z"></path><path class="cls-1" d="m238.63,592.97c-1.12.61-1.74,1.88-1.41,3.08.38,1.38,1.87,2.13,3.32,1.68,3.39-1.04,83.28-25.75,109.5-48.13,1.16-.99,1.32-2.64.36-3.7-.96-1.06-2.68-1.11-3.83-.13-25.31,21.59-106.58,46.73-107.4,46.98-.19.06-.37.13-.54.22Z"></path><path class="cls-4" d="m602.27,465.7c-.04-.17-.06-.35-.07-.53-.09-1.77,1.27-3.27,3.04-3.36.94-.05,2.7-.14,10.21,4.56-2.36-6.74-4.41-13.47-4.53-16.74-.14-3.9,1.96-8.66,3.81-12.86.88-1.99,2.16-4.91,2.34-6.15-1.33-1.97-8.49-6.32-11.99-8.45-3.55-2.16-5.44-3.33-6.45-4.3-.84-.81-1.28-1.91-1.24-3.09.11-2.96,3.16-5.64,8.54-10.13,1.21-1.01,2.85-2.37,3.93-3.39-1.37-1.14-3.59-2.75-5.21-3.93-7.7-5.6-10.85-8.17-11.08-11.19-.25-3.37,2.73-7.16,9.09-13.88.19-.2.38-.4.56-.59-2.94-2.06-9.8-5.59-15.76-8.24-1.62-.72-2.34-2.62-1.62-4.23.72-1.62,2.61-2.35,4.23-1.62,19.36,8.62,20.12,11.76,20.44,13.11.27,1.14.02,2.37-.73,3.29-.53.65-1.38,1.56-2.46,2.7-1.79,1.89-6.33,6.69-7.22,8.8,1.27,1.54,5.63,4.71,8.33,6.68,6.2,4.51,8.37,6.21,8.66,8.51.35,2.77-2.12,4.82-7.04,8.92-1.62,1.35-4.04,3.37-5.4,4.78,1.08.7,2.52,1.57,3.77,2.33,10.53,6.4,14.96,9.69,15.09,13.41.09,2.47-1.23,5.46-2.9,9.26-1.49,3.39-3.35,7.61-3.27,10.04.1,2.75,2.76,11.37,6.95,22.49.57,1.53.1,3.22-1.18,4.22-1.28,1-3.04,1.05-4.37.13-7.38-5.1-12.07-7.71-13.39-8.02-1.49-.02-2.76-1.08-3.07-2.51Zm3.29,2.51h0s0,0,0,0Zm-5.61-82.33h0s0,0,0,0Zm-.13-.8h0Zm17.37,45.74-6.17-28.47"></path><path class="cls-4" d="m620.89,475.18c-.04-.2-.07-.41-.07-.63-.12-6.36,9.3-15.8,12.2-18.54,1.28-1.22,3.31-1.17,4.53.12,1.22,1.28,1.16,3.31-.12,4.53-4.96,4.71-10.24,11.37-10.2,13.76.03,1.77-1.37,3.23-3.15,3.27-1.55.03-2.87-1.05-3.19-2.51Z"></path><path class="cls-4" d="m620.2,476.01c-.21-.94,0-1.96.67-2.75l10.46-12.48c1.14-1.36,3.16-1.54,4.52-.4,1.36,1.14,1.54,3.16.4,4.52l-10.46,12.48c-1.14,1.36-3.16,1.54-4.52.4-.56-.47-.93-1.1-1.07-1.77Z"></path><path class="cls-2" d="m178.89,704.56c-.67-.17-1.17-.42-1.66-.75-1.93-1.32-3.32-2.28-5.01-38.88-.8-17.34-1.24-34.65-1.25-34.82-.05-1.79,1.59-3.16,3.65-3.07,2.07.1,3.77,1.62,3.82,3.41.71,28.08,2.2,59.51,3.7,67.76,4.19-.4,13.39-2.05,21.03-3.43,21.85-3.93,37.79-6.6,43.99-5.06,2.02.5,3.31,2.3,2.89,4.02-.43,1.72-2.41,2.71-4.43,2.21-4.87-1.21-26.26,2.64-40.41,5.19-18.18,3.27-23.63,4.1-26.34,3.43Zm1.36-6.28h0Z"></path><path class="cls-2" d="m166.46,725.04c-1-.25-1.92-.8-2.57-1.86-.71-1.15-.9-2.52-1.79-13.32-.48-5.81-1.27-15.41-1.94-17.54-.84-1.28-.66-2.88.55-3.87,1.44-1.18,3.81-1.05,5.28.3,1.62,1.48,2.11,3.46,3.57,21.13.22,2.69.48,5.77.71,8.03,1.79-.6,4-1.4,5.7-2.03,8.59-3.15,11.56-4.1,14.02-3.34,1.99.61,3.14,2.47,2.58,4.16-.49,1.47-2.13,2.32-3.87,2.1-1.56.22-6.44,2.01-9.4,3.09-2.64.97-5.14,1.88-7.16,2.5-1.36.42-3.69,1.13-5.67.64Zm-5.7-32.01s0,0,0,0c0,0,0,0,0,0Zm0,0h0Z"></path><path class="cls-2" d="m203.18,719.09c-.14-.04-.28-.08-.41-.12-1.95-.71-2.99-2.61-2.32-4.26.59-1.46,2.33-2.22,4.08-1.89,1.61-.08,6.46-1.46,8.04-2.26.61-.8,1.67-1.32,2.9-1.31,2.05,0,3.84,1.47,3.99,3.26.11,1.32-.59,2.44-2.06,3.32-1.75,1.05-10.32,4.22-14.21,3.26Zm8.82-6.62s0,0,0,0c0,0,0,0,0,0Zm0,0s0,0,0,0c0,0,0,0,0,0Z"></path><path class="cls-2" d="m603.9,126.36c.57.12,1.01.3,1.43.55,1.69.97,2.92,1.68,6.32,29.35,1.61,13.11,2.92,26.21,2.94,26.34.14,1.35-1.17,2.42-2.91,2.37-1.75-.04-3.26-1.17-3.4-2.53-2.12-21.24-5.08-45.01-6.79-51.23-3.51.36-11.15,1.75-17.5,2.9-18.16,3.29-31.42,5.54-36.72,4.47-1.72-.35-2.91-1.69-2.64-3,.26-1.31,1.88-2.08,3.6-1.74,4.16.84,21.94-2.38,33.7-4.51,15.11-2.74,19.64-3.44,21.96-2.97Zm-.81,4.77h0Z"></path><path class="cls-2" d="m613.24,110.69c.86.17,1.65.58,2.26,1.37.66.86.89,1.89,2.23,10.05.72,4.39,1.9,11.65,2.59,13.25.77.96.71,2.17-.25,2.94-1.15.92-3.15.85-4.46-.15-1.45-1.1-1.96-2.59-4.14-15.95-.33-2.03-.71-4.36-1.03-6.07-1.48.48-3.28,1.12-4.68,1.62-7.05,2.5-9.5,3.27-11.61,2.73-1.7-.44-2.78-1.83-2.4-3.11.33-1.12,1.67-1.79,3.14-1.64,1.3-.19,5.31-1.61,7.74-2.48,2.17-.77,4.22-1.5,5.89-2,1.12-.33,3.04-.91,4.73-.56Zm6.53,24.15s0,0,0,0c0,0,0,0,0,0Zm0,0h0Z"></path><path class="cls-2" d="m582.68,115.72c.12.02.24.05.35.09,1.68.51,2.66,1.93,2.18,3.19-.42,1.11-1.84,1.72-3.33,1.49-1.35.09-5.35,1.19-6.64,1.83-.47.61-1.33,1.02-2.37,1.03-1.73.02-3.31-1.06-3.53-2.41-.16-1,.36-1.85,1.55-2.54,1.41-.82,8.45-3.34,11.77-2.67Zm-7.05,5.14s0,0,0,0c0,0,0,0,0,0Zm0,0s0,0,0,0c0,0,0,0,0,0Z"></path><path class="cls-4" d="m660.82,707.27c-10.53-3.3-18.49-9.45-21.01-14.02-4.36-7.88-17.62-31.87,6.68-53.27,4.66-4.1,21.25-16.79,39.5-7.93,2.26,1.1,7.49,4.05,7.28,7.84-.11,1.93-1.75,3.41-3.69,3.3-1.53-.08-2.78-1.14-3.18-2.54-.92-.99-4.73-3.67-10.72-4.41-5.74-.71-14.67.27-24.58,8.99-17.79,15.67-12.11,32.08-5.18,44.63,1.79,3.25,12.57,11.78,27.38,12.66,15.99.95,30.92-7.55,43.17-24.58,29.71-41.3-2.74-68.1-4.13-69.22-1.5-1.21-1.75-3.41-.55-4.92,1.21-1.51,3.4-1.76,4.91-.55.41.32,10.01,8.07,15.5,21.69,9.21,22.84-.38,43.65-10.05,57.09-17.34,24.1-36.36,28.25-49.27,27.48-4.27-.25-8.34-1.07-12.08-2.24Z"></path><path class="cls-4" d="m619.49,687.21c-3.58-1.12-4.71-5.82-5.02-7.78-.31-1.91.99-3.7,2.9-4.01,1.91-.31,3.71.99,4.01,2.9.15.87.5,1.97.77,2.45,1.48.77,2.24,2.51,1.73,4.15-.58,1.84-2.54,2.87-4.39,2.29Zm2.09-6.68h0s0,0,0,0Z"></path><path class="cls-4" d="m620.84,662.89c-.3-.1-.6-.23-.88-.42-1.62-1.06-2.06-3.23-1-4.85,1.07-1.63,4.13-8.13,5.59-11.55.76-1.78,2.82-2.6,4.59-1.85,1.78.76,2.6,2.81,1.85,4.59-1.16,2.73-4.59,10.24-6.18,12.65-.88,1.34-2.52,1.87-3.97,1.42Z"></path></svg> 