<?xml version="1.0" encoding="UTF-8"?><svg id="info" xmlns="http://www.w3.org/2000/svg" xmlns:xlink="http://www.w3.org/1999/xlink" viewBox="0 0 1920 3583"><defs><style>.cls-1,.cls-2,.cls-3,.cls-4,.cls-5,.cls-6,.cls-7,.cls-8,.cls-9,.cls-10,.cls-11,.cls-12{fill:none;}.cls-2{stroke-dasharray:0 0 1.72 17.16;}.cls-2,.cls-3,.cls-4,.cls-5,.cls-6,.cls-7,.cls-8,.cls-9,.cls-10,.cls-11{stroke:#a797c9;stroke-linecap:round;stroke-width:7px;}.cls-2,.cls-3,.cls-4,.cls-5,.cls-6,.cls-7,.cls-8,.cls-9,.cls-10,.cls-11,.cls-12{stroke-miterlimit:10;}.cls-3{stroke-dasharray:0 0 1.71 17.15;}.cls-13{clip-path:url(#clippath);}.cls-14{fill:#fff;}.cls-15{fill:#937fbb;}.cls-16{fill:#171c32;}.cls-17{fill:#947fbb;}.cls-5{stroke-dasharray:0 0 1.8 17.98;}.cls-6{stroke-dasharray:0 0 1.78 17.81;}.cls-18{clip-path:url(#clippath-3);}.cls-19{clip-path:url(#clippath-2);}.cls-7{stroke-dasharray:0 0 1.71 17.05;}.cls-8{stroke-dasharray:0 0 1.74 17.39;}.cls-9{stroke-dasharray:0 0 1.49 14.89;}.cls-10{stroke-dasharray:0 0 1.69 16.85;}.cls-11{stroke-dasharray:0 0 1.61 16.13;}.cls-12{stroke:#57678b;stroke-width:3.5px;}</style><clipPath id="clippath"><circle class="cls-1" cx="855.19" cy="1509.12" r="113.35"/></clipPath><clipPath id="clippath-2"><circle class="cls-1" cx="1611.22" cy="1251.4" r="73.56"/></clipPath><clipPath id="clippath-3"><circle class="cls-1" cx="1082.78" cy="2848.35" r="118.27"/></clipPath></defs><rect class="cls-16" x=".79" width="1918.81" height="3583.74"/><line class="cls-12" x1="-.03" y1="1921.83" x2="1919.43" y2="1921.83"/><line class="cls-12" x1="-.03" y1="2092" x2="1919.43" y2="2092"/><line class="cls-12" x1="1919.43" y1="2284.15" x2="-.03" y2="2284.15"/><line class="cls-12" x1="-.03" y1="2448.58" x2="1919.43" y2="2448.58"/><line class="cls-12" x1="-1.22" y1="2779.45" x2="1918.24" y2="2779.45"/><line class="cls-12" x1="-.03" y1="2936.54" x2="1919.43" y2="2936.54"/><line class="cls-12" x1="1919.43" y1="3126.69" x2="-.03" y2="3126.69"/><line class="cls-12" x1="-.03" y1="3283.25" x2="1919.43" y2="3283.25"/><line class="cls-12" x1="-.03" y1="1057.65" x2="1919.43" y2="1057.65"/><line class="cls-12" x1="1.76" y1="1220.73" x2="1921.22" y2="1220.73"/><line class="cls-12" x1="1919.43" y1="1408.88" x2="-.03" y2="1408.88"/><line class="cls-12" x1="-.03" y1="1570.44" x2="1919.43" y2="1570.44"/><line class="cls-12" x1="-.03" y1="202.72" x2="1919.43" y2="202.72"/><line class="cls-12" x1="-.03" y1="357.68" x2="1919.43" y2="357.68"/><line class="cls-12" x1="1919.43" y1="542.56" x2="-.03" y2="542.56"/><line class="cls-12" x1="-.03" y1="704.12" x2="1919.43" y2="704.12"/><line class="cls-4" x1="229.97" y1="1644.44" x2="229.97" y2="1643.57"/><line class="cls-10" x1="229.97" y1="1626.72" x2="229.97" y2="1431.23"/><line class="cls-4" x1="229.97" y1="1422.8" x2="229.97" y2="1421.93"/><line class="cls-4" x1="849.61" y1="1654.44" x2="849.61" y2="1653.57"/><line class="cls-11" x1="849.61" y1="1637.44" x2="849.61" y2="1627.77"/><line class="cls-4" x1="849.61" y1="1619.71" x2="849.61" y2="1618.83"/><polygon class="cls-17" points="1369.51 3282.01 1421.85 3282.01 1644.87 2778.23 1592.54 2778.23 1369.51 3282.01"/><path class="cls-14" d="m149.04,1695.46h-13.99l-3.74,10.33h-3.07l12.18-32.77h3.32l12.1,32.77h-3.07l-3.74-10.33Zm-.92-2.6l-6.05-16.8h-.04l-6.05,16.8h12.14Z"/><path class="cls-14" d="m160.04,1673.02h2.94v32.77h-2.94v-32.77Z"/><path class="cls-14" d="m170.33,1673.02h2.94v32.77h-2.94v-32.77Z"/><path class="cls-14" d="m189.86,1698.4v-13.61h2.94v13.27c0,4.33,2.14,5.71,5.42,5.71,3.74,0,6.55-2.69,6.55-5.63v-13.36h2.94v21h-2.61l-.25-3.36h-.08c-.97,2.02-3.23,3.91-7.22,3.91-4.66,0-7.69-2.52-7.69-7.94Z"/><path class="cls-14" d="m215.06,1684.79h2.39l.34,3.86h.08c1.13-2.48,4.03-4.41,7.86-4.41,6.3,0,9.66,3.99,9.66,11.01s-4.29,11.09-9.87,11.09c-3.78,0-6.38-1.6-7.44-3.7h-.08v11.55h-2.94v-29.41Zm17.18,10.63c0-7.18-3.4-8.61-6.93-8.61-4.24,0-7.56,2.73-7.56,8.44,0,6.01,3.45,8.57,7.44,8.57,3.02,0,7.06-1.47,7.06-8.4Z"/><path class="cls-14" d="m241.27,1684.79h2.39l.34,3.86h.08c1.13-2.48,4.03-4.41,7.86-4.41,6.3,0,9.66,3.99,9.66,11.01s-4.29,11.09-9.87,11.09c-3.78,0-6.38-1.6-7.43-3.7h-.09v11.55h-2.94v-29.41Zm17.18,10.63c0-7.18-3.4-8.61-6.93-8.61-4.24,0-7.56,2.73-7.56,8.44,0,6.01,3.45,8.57,7.44,8.57,3.03,0,7.06-1.47,7.06-8.4Z"/><path class="cls-14" d="m284.75,1696.3h-15.96c.17,4.79,2.48,7.48,6.93,7.48,3.82,0,5.67-1.43,5.96-4.83h2.98c-.29,4.24-3.28,7.39-9.03,7.39-7.06,0-9.83-4.66-9.83-10.88s3.23-11.22,10-11.22,8.95,3.99,8.95,10.21v1.85Zm-3.11-2.98c0-4.45-1.72-6.55-5.92-6.55s-6.55,2.65-6.89,6.97h12.81v-.42Z"/><path class="cls-14" d="m290.62,1684.79h2.6l.29,3.91c1.01-2.14,3.07-4.45,6.76-4.45,1.26,0,2.18.21,3.02.55v3.15c-1.13-.5-2.1-.76-3.4-.76-3.74,0-6.34,2.81-6.34,5.75v12.85h-2.94v-21Z"/><path class="cls-14" d="m305.62,1695.46c0-6.38,3.23-11.22,10-11.22s8.95,3.91,8.95,8.95v.42h-3.11v-.63c0-3.82-1.64-6.09-5.84-6.09-4.75,0-7.01,3.11-7.01,8.4,0,5.63,2.39,8.49,6.93,8.49,3.82,0,5.84-1.85,5.92-5.67h3.03c-.08,4.66-3.15,8.23-9.03,8.23-7.22,0-9.83-4.75-9.83-10.88Z"/><path class="cls-14" d="m328.97,1699.99c0-3.95,2.23-6.09,7.86-6.09h6.34v-1.72c0-2.98-1.26-5.42-5.46-5.42-3.95,0-5.33,1.51-5.33,4.12v.88h-2.98v-.84c0-5,4.2-6.68,8.32-6.68,5.8,0,8.4,2.86,8.4,8.44v13.11h-2.06l-.55-2.98h-.08c-1.26,1.89-3.7,3.53-7.35,3.53-4.92,0-7.1-2.31-7.1-6.34Zm14.2-1.85v-1.76h-7.01c-2.65,0-4.03.92-4.03,3.61,0,2.35,1.26,3.86,4.49,3.86,4.16,0,6.55-2.14,6.55-5.71Z"/><path class="cls-14" d="m351.56,1699.36v-1.18h2.94v1.13c0,2.86,2.14,4.5,5.96,4.5s5.8-1.01,5.8-3.78c0-2.06-1.01-2.81-3.86-3.32l-4.62-.84c-3.03-.55-5.54-2.02-5.54-5.5,0-3.15,2.35-6.13,8.4-6.13s8.4,3.02,8.4,7.22v.88h-2.98v-.76c0-3.44-2.14-4.91-5.42-4.91-3.95,0-5.33,1.34-5.33,3.36s1.01,2.86,3.91,3.4l4.03.76c4.12.76,6.09,1.93,6.09,5.59,0,4.58-4.12,6.55-8.78,6.55-7.31,0-8.99-3.28-8.99-6.97Z"/><path class="cls-14" d="m392.47,1696.3h-15.96c.17,4.79,2.48,7.48,6.93,7.48,3.82,0,5.67-1.43,5.96-4.83h2.98c-.29,4.24-3.28,7.39-9.03,7.39-7.06,0-9.83-4.66-9.83-10.88s3.23-11.22,10-11.22,8.95,3.99,8.95,10.21v1.85Zm-3.11-2.98c0-4.45-1.72-6.55-5.92-6.55s-6.55,2.65-6.89,6.97h12.81v-.42Z"/><path class="cls-14" d="m408.01,1673.02h2.94v32.77h-2.94v-32.77Z"/><path class="cls-14" d="m435.57,1696.3h-15.96c.17,4.79,2.48,7.48,6.93,7.48,3.82,0,5.67-1.43,5.96-4.83h2.98c-.29,4.24-3.28,7.39-9.03,7.39-7.06,0-9.83-4.66-9.83-10.88s3.23-11.22,10-11.22,8.95,3.99,8.95,10.21v1.85Zm-3.11-2.98c0-4.45-1.72-6.55-5.92-6.55s-6.55,2.65-6.89,6.97h12.81v-.42Z"/><path class="cls-14" d="m442.03,1699.4v-12.18h-4.16v-2.44h4.16v-6.05l2.94-1.43v7.48h11.85v-6.05l2.94-1.43v7.48h5.92v2.44h-5.92v11.8c0,2.81.76,4.58,3.4,4.58,1.6,0,3.24-.29,4.03-.5v2.6c-.76.21-2.14.59-4.03.59-3.82,0-6.34-1.6-6.34-6.89v-12.18h-11.85v11.8c0,2.81.76,4.58,3.4,4.58,1.6,0,3.23-.29,4.03-.5v2.6c-.76.21-2.14.59-4.03.59-3.82,0-6.34-1.6-6.34-6.89Z"/><path class="cls-14" d="m488.65,1696.3h-15.96c.17,4.79,2.48,7.48,6.93,7.48,3.82,0,5.67-1.43,5.96-4.83h2.98c-.29,4.24-3.28,7.39-9.03,7.39-7.06,0-9.83-4.66-9.83-10.88s3.23-11.22,10-11.22,8.95,3.99,8.95,10.21v1.85Zm-3.11-2.98c0-4.45-1.72-6.55-5.92-6.55s-6.55,2.65-6.89,6.97h12.81v-.42Z"/><path class="cls-14" d="m494.53,1684.79h2.6l.29,3.91c1.01-2.14,3.07-4.45,6.76-4.45,1.26,0,2.18.21,3.02.55v3.15c-1.13-.5-2.1-.76-3.4-.76-3.74,0-6.34,2.81-6.34,5.75v12.85h-2.94v-21Z"/><path class="cls-14" d="m509.74,1699.36v-1.18h2.94v1.13c0,2.86,2.14,4.5,5.96,4.5s5.8-1.01,5.8-3.78c0-2.06-1.01-2.81-3.86-3.32l-4.62-.84c-3.03-.55-5.54-2.02-5.54-5.5,0-3.15,2.35-6.13,8.4-6.13s8.4,3.02,8.4,7.22v.88h-2.98v-.76c0-3.44-2.14-4.91-5.42-4.91-3.95,0-5.33,1.34-5.33,3.36s1.01,2.86,3.91,3.4l4.03.76c4.12.76,6.09,1.93,6.09,5.59,0,4.58-4.12,6.55-8.78,6.55-7.31,0-8.99-3.28-8.99-6.97Z"/><path class="cls-14" d="m148.88,1745.14h-15.96c.17,4.79,2.48,7.48,6.93,7.48,3.82,0,5.67-1.43,5.97-4.83h2.98c-.29,4.24-3.28,7.39-9.03,7.39-7.06,0-9.83-4.66-9.83-10.88s3.23-11.22,10-11.22,8.95,3.99,8.95,10.21v1.85Zm-3.11-2.98c0-4.45-1.72-6.55-5.92-6.55s-6.55,2.65-6.89,6.97h12.81v-.42Z"/><path class="cls-14" d="m170.13,1733.67l-8.06,10.5,8.02,10.42v.04h-3.45l-6.34-8.44-6.43,8.44h-3.28v-.04l8.02-10.38-8.06-10.54v-.04h3.44l6.39,8.49,6.43-8.44v-.04h3.32v.04Z"/><path class="cls-14" d="m172.14,1744.3c0-6.38,3.23-11.22,10-11.22s8.95,3.91,8.95,8.95v.42h-3.11v-.63c0-3.82-1.64-6.09-5.84-6.09-4.75,0-7.02,3.11-7.02,8.4,0,5.63,2.39,8.49,6.93,8.49,3.82,0,5.84-1.85,5.92-5.67h3.02c-.08,4.66-3.15,8.23-9.03,8.23-7.22,0-9.83-4.75-9.83-10.88Z"/><path class="cls-14" d="m214.23,1745.14h-15.96c.17,4.79,2.48,7.48,6.93,7.48,3.82,0,5.67-1.43,5.97-4.83h2.98c-.29,4.24-3.28,7.39-9.03,7.39-7.06,0-9.83-4.66-9.83-10.88s3.23-11.22,10-11.22,8.95,3.99,8.95,10.21v1.85Zm-3.11-2.98c0-4.45-1.72-6.55-5.92-6.55s-6.55,2.65-6.89,6.97h12.81v-.42Z"/><path class="cls-14" d="m220.1,1733.63h2.39l.34,3.87h.08c1.13-2.48,4.03-4.41,7.86-4.41,6.3,0,9.66,3.99,9.66,11.01s-4.29,11.09-9.87,11.09c-3.78,0-6.38-1.6-7.44-3.7h-.08v11.55h-2.94v-29.41Zm17.18,10.63c0-7.18-3.4-8.61-6.93-8.61-4.24,0-7.56,2.73-7.56,8.44,0,6.01,3.45,8.57,7.44,8.57,3.02,0,7.06-1.47,7.06-8.4Z"/><path class="cls-14" d="m257.27,1751.95v2.6c-.76.21-2.14.59-4.03.59-3.82,0-6.34-1.6-6.34-6.89v-12.18h-4.16v-2.44h4.16v-6.05l2.94-1.43v7.48h5.92v2.44h-5.92v11.8c0,2.81.76,4.58,3.4,4.58,1.6,0,3.23-.29,4.03-.5Z"/><path class="cls-14" d="m273.44,1732.33h-3.36v-5.08c0-3.95.88-5.29,3.4-5.96l.67,1.85c-1.76.67-2.06,1.09-2.06,3.78v.34h1.34v5.08Zm5.92,0h-3.36v-5.08c0-3.95.88-5.29,3.4-5.96l.67,1.85c-1.76.67-2.06,1.09-2.06,3.78v.34h1.34v5.08Z"/><path class="cls-14" d="m286.8,1721.87h2.94v32.77h-2.94v-32.77Z"/><path class="cls-14" d="m296.46,1731.07c1.76-.67,2.06-1.09,2.06-3.78v-.34h-1.34v-5.08h3.36v5.08c0,3.95-.88,5.29-3.4,5.96l-.67-1.85Zm5.92,0c1.76-.67,2.06-1.09,2.06-3.78v-.34h-1.35v-5.08h3.36v5.08c0,3.95-.88,5.29-3.4,5.96l-.67-1.85Z"/><path class="cls-14" d="m309.39,1748.42h3.36v6.22c0,3.95-.88,5.29-3.4,5.96l-.67-1.85c1.76-.67,2.06-1.09,2.06-3.78v-.34h-1.34v-6.22Z"/><path class="cls-14" d="m330.39,1732.33h-3.36v-5.08c0-3.95.88-5.29,3.4-5.96l.67,1.85c-1.76.67-2.06,1.09-2.06,3.78v.34h1.34v5.08Zm5.92,0h-3.36v-5.08c0-3.95.88-5.29,3.4-5.96l.67,1.85c-1.76.67-2.06,1.09-2.06,3.78v.34h1.34v5.08Z"/><path class="cls-14" d="m343.75,1721.87h8.61c7.94,0,11.64,2.73,11.64,9.62,0,6.43-2.77,10.12-11.13,10.12h-6.13v13.02h-2.98v-32.77Zm9.28,17.22c6.09,0,7.94-2.69,7.94-7.64,0-5.21-2.6-6.97-8.44-6.97h-5.8v14.62h6.3Z"/><path class="cls-14" d="m367.35,1731.07c1.76-.67,2.06-1.09,2.06-3.78v-.34h-1.34v-5.08h3.36v5.08c0,3.95-.88,5.29-3.4,5.96l-.67-1.85Zm5.92,0c1.76-.67,2.06-1.09,2.06-3.78v-.34h-1.35v-5.08h3.36v5.08c0,3.95-.88,5.29-3.4,5.96l-.67-1.85Z"/><path class="cls-14" d="m380.29,1748.42h3.36v6.22c0,3.95-.88,5.29-3.4,5.96l-.67-1.85c1.76-.67,2.06-1.09,2.06-3.78v-.34h-1.34v-6.22Z"/><path class="cls-14" d="m401.29,1732.33h-3.36v-5.08c0-3.95.88-5.29,3.4-5.96l.67,1.85c-1.76.67-2.06,1.09-2.06,3.78v.34h1.34v5.08Zm5.92,0h-3.36v-5.08c0-3.95.88-5.29,3.4-5.96l.67,1.85c-1.76.67-2.06,1.09-2.06,3.78v.34h1.34v5.08Z"/><path class="cls-14" d="m410.23,1721.87h3.11l10.29,29.49h.08l10.17-29.49h3.11l-11.59,32.77h-3.57l-11.59-32.77Z"/><path class="cls-14" d="m439.3,1731.07c1.76-.67,2.06-1.09,2.06-3.78v-.34h-1.34v-5.08h3.36v5.08c0,3.95-.88,5.29-3.4,5.96l-.67-1.85Zm5.92,0c1.77-.67,2.06-1.09,2.06-3.78v-.34h-1.34v-5.08h3.36v5.08c0,3.95-.88,5.29-3.4,5.96l-.67-1.85Z"/><path class="cls-14" d="m463.57,1748.84c0-3.95,2.23-6.09,7.86-6.09h6.34v-1.72c0-2.98-1.26-5.42-5.46-5.42-3.95,0-5.33,1.51-5.33,4.12v.88h-2.98v-.84c0-5,4.2-6.68,8.32-6.68,5.8,0,8.4,2.86,8.4,8.44v13.11h-2.06l-.55-2.98h-.08c-1.26,1.89-3.7,3.53-7.35,3.53-4.92,0-7.1-2.31-7.1-6.34Zm14.2-1.85v-1.76h-7.01c-2.65,0-4.03.92-4.03,3.61,0,2.35,1.26,3.87,4.49,3.87,4.16,0,6.55-2.14,6.55-5.71Z"/><path class="cls-14" d="m488.06,1733.63h2.61l.29,3.49c1.01-2.14,3.28-4.03,7.35-4.03,4.75,0,7.77,2.52,7.77,7.94v13.61h-2.94v-13.27c0-4.33-2.14-5.71-5.5-5.71-3.82,0-6.64,2.69-6.64,5.63v13.36h-2.94v-21Z"/><path class="cls-14" d="m511.75,1744.18c0-7.1,4.29-11.09,10.04-11.09,3.7,0,6.22,1.6,7.31,3.74h.04v-14.96h2.94v32.77h-1.97l-.67-3.61h-.08c-1.18,2.31-3.95,4.16-7.77,4.16-6.3,0-9.83-3.99-9.83-11.01Zm17.64-.5c0-5.5-3.36-8.07-7.35-8.07-3.11,0-7.14,1.47-7.14,8.4s3.61,8.61,7.14,8.61c4.24,0,7.35-2.73,7.35-8.95Z"/><path class="cls-14" d="m550.76,1732.33h-3.36v-5.08c0-3.95.88-5.29,3.4-5.96l.67,1.85c-1.76.67-2.06,1.09-2.06,3.78v.34h1.34v5.08Zm5.92,0h-3.36v-5.08c0-3.95.88-5.29,3.4-5.96l.67,1.85c-1.76.67-2.06,1.09-2.06,3.78v.34h1.34v5.08Z"/><path class="cls-14" d="m559.75,1721.87h2.9l6.89,29.36h.08l7.81-29.36h3.19l8.19,29.36h.08l6.51-29.36h2.9l-7.6,32.77h-3.53l-8.11-29.07h-.08l-7.77,29.07h-3.53l-7.94-32.77Z"/><path class="cls-14" d="m600.66,1731.07c1.76-.67,2.06-1.09,2.06-3.78v-.34h-1.34v-5.08h3.36v5.08c0,3.95-.88,5.29-3.4,5.96l-.67-1.85Zm5.92,0c1.76-.67,2.06-1.09,2.06-3.78v-.34h-1.35v-5.08h3.36v5.08c0,3.95-.88,5.29-3.4,5.96l-.67-1.85Z"/><path class="cls-14" d="m129.93,1793.15c0-6.38,3.23-11.22,10-11.22s8.95,3.91,8.95,8.95v.42h-3.11v-.63c0-3.82-1.64-6.09-5.84-6.09-4.75,0-7.01,3.11-7.01,8.4,0,5.63,2.39,8.49,6.93,8.49,3.82,0,5.84-1.85,5.92-5.67h3.03c-.08,4.66-3.15,8.23-9.03,8.23-7.22,0-9.83-4.75-9.83-10.88Z"/><path class="cls-14" d="m153.07,1792.98c0-6.22,3.32-11.05,10.38-11.05,6.59,0,10.25,4.83,10.25,11.05s-3.7,11.05-10.29,11.05c-7.27,0-10.33-4.83-10.33-11.05Zm17.56,0c0-5.33-2.9-8.49-7.22-8.49-4.75,0-7.27,3.15-7.27,8.49s2.56,8.49,7.27,8.49c4.33,0,7.22-3.15,7.22-8.49Z"/><path class="cls-14" d="m179.57,1782.48h2.6l.29,3.49c1.01-2.14,3.28-4.03,7.35-4.03,4.75,0,7.77,2.52,7.77,7.94v13.61h-2.94v-13.27c0-4.33-2.14-5.71-5.5-5.71-3.82,0-6.64,2.69-6.64,5.63v13.36h-2.94v-21Z"/><path class="cls-14" d="m204.94,1782.48h2.6l.29,3.49c1.01-2.14,3.28-4.03,7.35-4.03,4.75,0,7.77,2.52,7.77,7.94v13.61h-2.94v-13.27c0-4.33-2.14-5.71-5.5-5.71-3.82,0-6.64,2.69-6.64,5.63v13.36h-2.94v-21Z"/><path class="cls-14" d="m247.57,1793.99h-15.96c.17,4.79,2.48,7.48,6.93,7.48,3.82,0,5.67-1.43,5.97-4.83h2.98c-.29,4.24-3.28,7.39-9.03,7.39-7.06,0-9.83-4.66-9.83-10.88s3.23-11.22,10-11.22,8.95,3.99,8.95,10.21v1.85Zm-3.11-2.98c0-4.45-1.72-6.55-5.92-6.55s-6.55,2.65-6.89,6.97h12.81v-.42Z"/><path class="cls-14" d="m251.77,1793.15c0-6.38,3.23-11.22,10-11.22s8.95,3.91,8.95,8.95v.42h-3.11v-.63c0-3.82-1.64-6.09-5.84-6.09-4.75,0-7.02,3.11-7.02,8.4,0,5.63,2.39,8.49,6.93,8.49,3.82,0,5.84-1.85,5.92-5.67h3.02c-.08,4.66-3.15,8.23-9.03,8.23-7.22,0-9.83-4.75-9.83-10.88Z"/><path class="cls-14" d="m287.55,1800.79v2.6c-.76.21-2.14.59-4.03.59-3.82,0-6.34-1.6-6.34-6.89v-12.18h-4.16v-2.44h4.16v-6.05l2.94-1.43v7.48h5.92v2.44h-5.92v11.8c0,2.81.76,4.58,3.4,4.58,1.6,0,3.23-.29,4.03-.5Z"/><path class="cls-14" d="m299.31,1782.52v-.04h2.98l5.76,17.47h.08l6.3-17.47h2.69l6.17,17.47h.08l5.76-17.47h2.86v.04l-7.18,20.96h-3.03l-5.96-17.06h-.08l-6.22,17.06h-3.03l-7.18-20.96Z"/><path class="cls-14" d="m336.82,1770.72h2.98v6.51h-2.98v-6.51Zm0,11.76h2.94v21h-2.94v-21Z"/><path class="cls-14" d="m358.11,1800.79v2.6c-.76.21-2.14.59-4.03.59-3.82,0-6.34-1.6-6.34-6.89v-12.18h-4.16v-2.44h4.16v-6.05l2.94-1.43v7.48h5.92v2.44h-5.92v11.8c0,2.81.76,4.58,3.4,4.58,1.6,0,3.23-.29,4.03-.5Z"/><path class="cls-14" d="m362.94,1770.72h2.94v15.16c1.05-2.1,3.28-3.95,7.31-3.95,4.75,0,7.77,2.52,7.77,7.94v13.61h-2.94v-13.27c0-4.33-2.14-5.71-5.5-5.71-3.82,0-6.64,2.69-6.64,5.63v13.36h-2.94v-32.77Z"/><path class="cls-14" d="m408.93,1800.79v2.6c-.76.21-2.14.59-4.03.59-3.82,0-6.34-1.6-6.34-6.89v-12.18h-4.16v-2.44h4.16v-6.05l2.94-1.43v7.48h5.92v2.44h-5.92v11.8c0,2.81.76,4.58,3.4,4.58,1.6,0,3.23-.29,4.03-.5Z"/><path class="cls-14" d="m413.76,1770.72h2.94v15.16c1.05-2.1,3.28-3.95,7.31-3.95,4.75,0,7.77,2.52,7.77,7.94v13.61h-2.94v-13.27c0-4.33-2.14-5.71-5.5-5.71-3.82,0-6.64,2.69-6.64,5.63v13.36h-2.94v-32.77Z"/><path class="cls-14" d="m456.39,1793.99h-15.96c.17,4.79,2.48,7.48,6.93,7.48,3.82,0,5.67-1.43,5.97-4.83h2.98c-.29,4.24-3.28,7.39-9.03,7.39-7.06,0-9.83-4.66-9.83-10.88s3.23-11.22,10-11.22,8.95,3.99,8.95,10.21v1.85Zm-3.11-2.98c0-4.45-1.72-6.55-5.92-6.55s-6.55,2.65-6.89,6.97h12.81v-.42Z"/><path class="cls-14" d="m471.93,1770.72h2.94v32.77h-2.94v-32.77Z"/><path class="cls-14" d="m480.54,1792.98c0-6.22,3.32-11.05,10.38-11.05,6.6,0,10.25,4.83,10.25,11.05s-3.7,11.05-10.29,11.05c-7.27,0-10.33-4.83-10.33-11.05Zm17.56,0c0-5.33-2.9-8.49-7.22-8.49-4.75,0-7.27,3.15-7.27,8.49s2.56,8.49,7.27,8.49c4.33,0,7.22-3.15,7.22-8.49Z"/><path class="cls-14" d="m503.47,1782.52v-.04h2.98l5.76,17.47h.08l6.3-17.47h2.69l6.17,17.47h.08l5.76-17.47h2.86v.04l-7.18,20.96h-3.03l-5.96-17.06h-.08l-6.22,17.06h-3.03l-7.18-20.96Z"/><path class="cls-14" d="m557.4,1793.99h-15.96c.17,4.79,2.48,7.48,6.93,7.48,3.82,0,5.67-1.43,5.97-4.83h2.98c-.29,4.24-3.28,7.39-9.03,7.39-7.06,0-9.83-4.66-9.83-10.88s3.23-11.22,10-11.22,8.95,3.99,8.95,10.21v1.85Zm-3.11-2.98c0-4.45-1.72-6.55-5.92-6.55s-6.55,2.65-6.89,6.97h12.81v-.42Z"/><path class="cls-14" d="m561.6,1793.15c0-6.38,3.23-11.22,10-11.22s8.95,3.91,8.95,8.95v.42h-3.11v-.63c0-3.82-1.64-6.09-5.84-6.09-4.75,0-7.02,3.11-7.02,8.4,0,5.63,2.39,8.49,6.93,8.49,3.82,0,5.84-1.85,5.92-5.67h3.02c-.08,4.66-3.15,8.23-9.03,8.23-7.22,0-9.83-4.75-9.83-10.88Z"/><path class="cls-14" d="m584.95,1797.69c0-3.95,2.23-6.09,7.86-6.09h6.34v-1.72c0-2.98-1.26-5.42-5.46-5.42-3.95,0-5.34,1.51-5.34,4.12v.88h-2.98v-.84c0-5,4.2-6.68,8.32-6.68,5.8,0,8.4,2.86,8.4,8.44v13.11h-2.06l-.55-2.98h-.08c-1.26,1.89-3.7,3.53-7.35,3.53-4.91,0-7.1-2.31-7.1-6.34Zm14.2-1.85v-1.76h-7.02c-2.65,0-4.03.92-4.03,3.61,0,2.35,1.26,3.86,4.5,3.86,4.16,0,6.55-2.14,6.55-5.71Z"/><path class="cls-14" d="m607.55,1797.05v-1.18h2.94v1.13c0,2.86,2.14,4.5,5.96,4.5s5.8-1.01,5.8-3.78c0-2.06-1.01-2.81-3.87-3.32l-4.62-.84c-3.02-.55-5.54-2.02-5.54-5.5,0-3.15,2.35-6.13,8.4-6.13s8.4,3.02,8.4,7.22v.88h-2.98v-.76c0-3.44-2.14-4.91-5.42-4.91-3.95,0-5.34,1.34-5.34,3.36s1.01,2.86,3.91,3.4l4.03.76c4.12.76,6.09,1.93,6.09,5.59,0,4.58-4.12,6.55-8.78,6.55-7.31,0-8.99-3.28-8.99-6.97Z"/><path class="cls-14" d="m648.46,1793.99h-15.96c.17,4.79,2.48,7.48,6.93,7.48,3.82,0,5.67-1.43,5.97-4.83h2.98c-.29,4.24-3.28,7.39-9.03,7.39-7.06,0-9.83-4.66-9.83-10.88s3.23-11.22,10-11.22,8.95,3.99,8.95,10.21v1.85Zm-3.11-2.98c0-4.45-1.72-6.55-5.92-6.55s-6.55,2.65-6.89,6.97h12.81v-.42Z"/><path class="cls-14" d="m788.74,1673.02h3.23l11.51,20.92h.08l11.51-20.92h3.23v32.77h-2.94v-27.85h-.04l-10.75,19.91h-2.06l-10.8-19.91h-.04v27.85h-2.94v-32.77Z"/><path class="cls-14" d="m826.91,1673.02h2.98v6.51h-2.98v-6.51Zm0,11.76h2.94v21h-2.94v-21Z"/><path class="cls-14" d="m837.25,1684.79h2.6l.29,3.91c1.01-2.14,3.07-4.45,6.76-4.45,1.26,0,2.18.21,3.02.55v3.15c-1.13-.5-2.1-.76-3.4-.76-3.74,0-6.34,2.81-6.34,5.75v12.85h-2.94v-21Z"/><path class="cls-14" d="m854.55,1684.79h2.6l.29,3.91c1.01-2.14,3.07-4.45,6.76-4.45,1.26,0,2.18.21,3.02.55v3.15c-1.13-.5-2.1-.76-3.4-.76-3.74,0-6.34,2.81-6.34,5.75v12.85h-2.94v-21Z"/><path class="cls-14" d="m869.54,1695.29c0-6.22,3.32-11.05,10.38-11.05,6.59,0,10.25,4.83,10.25,11.05s-3.7,11.05-10.29,11.05c-7.27,0-10.33-4.83-10.33-11.05Zm17.56,0c0-5.33-2.9-8.49-7.22-8.49-4.75,0-7.27,3.15-7.27,8.49s2.56,8.49,7.27,8.49c4.33,0,7.22-3.15,7.22-8.49Z"/><path class="cls-14" d="m896.04,1684.79h2.6l.29,3.91c1.01-2.14,3.07-4.45,6.76-4.45,1.26,0,2.18.21,3.02.55v3.15c-1.13-.5-2.1-.76-3.4-.76-3.74,0-6.34,2.81-6.34,5.75v12.85h-2.94v-21Z"/><path class="cls-14" d="m929.98,1696.3h-15.96c.17,4.79,2.48,7.48,6.93,7.48,3.82,0,5.67-1.43,5.97-4.83h2.98c-.29,4.24-3.28,7.39-9.03,7.39-7.06,0-9.83-4.66-9.83-10.88s3.23-11.22,10-11.22,8.95,3.99,8.95,10.21v1.85Zm-3.11-2.98c0-4.45-1.72-6.55-5.92-6.55s-6.55,2.65-6.89,6.97h12.81v-.42Z"/><path class="cls-14" d="m934.18,1695.33c0-7.1,4.28-11.09,10.04-11.09,3.7,0,6.22,1.6,7.31,3.74h.04v-14.95h2.94v32.77h-1.97l-.67-3.61h-.08c-1.18,2.31-3.95,4.16-7.77,4.16-6.3,0-9.83-3.99-9.83-11.01Zm17.64-.5c0-5.5-3.36-8.07-7.35-8.07-3.11,0-7.14,1.47-7.14,8.4s3.61,8.61,7.14,8.61c4.24,0,7.35-2.73,7.35-8.95Z"/><path class="cls-14" d="m971.52,1673.02h2.94v32.77h-2.94v-32.77Z"/><path class="cls-14" d="m980.13,1695.29c0-6.22,3.32-11.05,10.38-11.05,6.59,0,10.25,4.83,10.25,11.05s-3.7,11.05-10.29,11.05c-7.27,0-10.33-4.83-10.33-11.05Zm17.56,0c0-5.33-2.9-8.49-7.22-8.49-4.75,0-7.27,3.15-7.27,8.49s2.56,8.49,7.27,8.49c4.33,0,7.22-3.15,7.22-8.49Z"/><path class="cls-14" d="m1004.95,1695.29c0-6.22,3.32-11.05,10.38-11.05,6.59,0,10.25,4.83,10.25,11.05s-3.7,11.05-10.29,11.05c-7.27,0-10.33-4.83-10.33-11.05Zm17.56,0c0-5.33-2.9-8.49-7.22-8.49-4.75,0-7.27,3.15-7.27,8.49s2.56,8.49,7.27,8.49c4.33,0,7.22-3.15,7.22-8.49Z"/><path class="cls-14" d="m1031.45,1684.79h2.39l.34,3.86h.08c1.13-2.48,4.03-4.41,7.86-4.41,6.3,0,9.66,3.99,9.66,11.01s-4.29,11.09-9.87,11.09c-3.78,0-6.38-1.6-7.43-3.7h-.08v11.55h-2.94v-29.41Zm17.18,10.63c0-7.18-3.4-8.61-6.93-8.61-4.24,0-7.56,2.73-7.56,8.44,0,6.01,3.45,8.57,7.44,8.57,3.02,0,7.06-1.47,7.06-8.4Z"/><path class="cls-14" d="m1055.77,1699.36v-1.18h2.94v1.13c0,2.86,2.14,4.5,5.96,4.5s5.8-1.01,5.8-3.78c0-2.06-1.01-2.81-3.86-3.32l-4.62-.84c-3.02-.55-5.54-2.02-5.54-5.5,0-3.15,2.35-6.13,8.4-6.13s8.4,3.02,8.4,7.22v.88h-2.98v-.76c0-3.44-2.14-4.91-5.42-4.91-3.95,0-5.33,1.34-5.33,3.36s1.01,2.86,3.91,3.4l4.03.76c4.12.76,6.09,1.93,6.09,5.59,0,4.58-4.12,6.55-8.78,6.55-7.31,0-8.99-3.28-8.99-6.97Z"/><path class="cls-14" d="m1089.07,1673.02h2.98v6.51h-2.98v-6.51Zm0,11.76h2.94v21h-2.94v-21Z"/><path class="cls-14" d="m1099.4,1684.79h2.6l.29,3.49c1.01-2.14,3.28-4.03,7.35-4.03,4.75,0,7.77,2.52,7.77,7.94v13.61h-2.94v-13.27c0-4.33-2.14-5.71-5.5-5.71-3.82,0-6.64,2.69-6.64,5.63v13.36h-2.94v-21Z"/><path class="cls-14" d="m1136.11,1683.48h-3.36v-5.08c0-3.95.88-5.29,3.4-5.97l.67,1.85c-1.76.67-2.06,1.09-2.06,3.78v.34h1.34v5.08Zm5.92,0h-3.36v-5.08c0-3.95.88-5.29,3.4-5.97l.67,1.85c-1.76.67-2.06,1.09-2.06,3.78v.34h1.34v5.08Z"/><path class="cls-14" d="m1148.42,1684.79h2.39l.34,3.86h.08c1.13-2.48,4.03-4.41,7.86-4.41,6.3,0,9.66,3.99,9.66,11.01s-4.29,11.09-9.87,11.09c-3.78,0-6.38-1.6-7.43-3.7h-.08v11.55h-2.94v-29.41Zm17.18,10.63c0-7.18-3.4-8.61-6.93-8.61-4.24,0-7.56,2.73-7.56,8.44,0,6.01,3.45,8.57,7.44,8.57,3.02,0,7.06-1.47,7.06-8.4Z"/><path class="cls-14" d="m1170.01,1682.22c1.76-.67,2.06-1.09,2.06-3.78v-.34h-1.34v-5.08h3.36v5.08c0,3.95-.88,5.29-3.4,5.97l-.67-1.85Zm5.92,0c1.76-.67,2.06-1.09,2.06-3.78v-.34h-1.34v-5.08h3.36v5.08c0,3.95-.88,5.29-3.4,5.97l-.67-1.85Z"/><path class="cls-14" d="m1182.94,1699.57h3.36v6.22c0,3.95-.88,5.29-3.4,5.96l-.67-1.85c1.76-.67,2.06-1.09,2.06-3.78v-.34h-1.34v-6.22Z"/><path class="cls-14" d="m1203.94,1683.48h-3.36v-5.08c0-3.95.88-5.29,3.4-5.97l.67,1.85c-1.76.67-2.06,1.09-2.06,3.78v.34h1.34v5.08Zm5.92,0h-3.36v-5.08c0-3.95.88-5.29,3.4-5.97l.67,1.85c-1.76.67-2.06,1.09-2.06,3.78v.34h1.34v5.08Z"/><path class="cls-14" d="m1230.19,1702.3h-.08c-1.09,2.14-3.65,4.03-7.48,4.03-6.3,0-9.75-3.99-9.75-11.01s4.37-11.09,9.96-11.09c3.78,0,6.6,1.76,7.65,4.28h.04l.29-3.74h2.31v29.41h-2.94v-11.89Zm.34-7.48c0-5.5-3.36-8.07-7.35-8.07-3.03,0-7.14,1.47-7.14,8.4s3.57,8.61,7.1,8.61c4.24,0,7.39-2.73,7.39-8.95Z"/><path class="cls-14" d="m1237.75,1682.22c1.76-.67,2.06-1.09,2.06-3.78v-.34h-1.34v-5.08h3.36v5.08c0,3.95-.88,5.29-3.4,5.97l-.67-1.85Zm5.92,0c1.76-.67,2.06-1.09,2.06-3.78v-.34h-1.34v-5.08h3.36v5.08c0,3.95-.88,5.29-3.4,5.97l-.67-1.85Z"/><path class="cls-14" d="m1262.03,1699.99c0-3.95,2.23-6.09,7.86-6.09h6.34v-1.72c0-2.98-1.26-5.42-5.46-5.42-3.95,0-5.33,1.51-5.33,4.12v.88h-2.98v-.84c0-5,4.2-6.68,8.32-6.68,5.8,0,8.4,2.86,8.4,8.44v13.11h-2.06l-.55-2.98h-.08c-1.26,1.89-3.7,3.53-7.35,3.53-4.92,0-7.1-2.31-7.1-6.34Zm14.2-1.85v-1.76h-7.01c-2.65,0-4.03.92-4.03,3.61,0,2.35,1.26,3.86,4.5,3.86,4.16,0,6.55-2.14,6.55-5.71Z"/><path class="cls-14" d="m1286.51,1684.79h2.6l.29,3.49c1.01-2.14,3.28-4.03,7.35-4.03,4.75,0,7.77,2.52,7.77,7.94v13.61h-2.94v-13.27c0-4.33-2.14-5.71-5.5-5.71-3.82,0-6.64,2.69-6.64,5.63v13.36h-2.94v-21Z"/><path class="cls-14" d="m1310.2,1695.33c0-7.1,4.28-11.09,10.04-11.09,3.7,0,6.22,1.6,7.31,3.74h.04v-14.95h2.94v32.77h-1.97l-.67-3.61h-.08c-1.18,2.31-3.95,4.16-7.77,4.16-6.3,0-9.83-3.99-9.83-11.01Zm17.64-.5c0-5.5-3.36-8.07-7.35-8.07-3.11,0-7.14,1.47-7.14,8.4s3.61,8.61,7.14,8.61c4.24,0,7.35-2.73,7.35-8.95Z"/><path class="cls-14" d="m1349.22,1683.48h-3.36v-5.08c0-3.95.88-5.29,3.4-5.97l.67,1.85c-1.76.67-2.06,1.09-2.06,3.78v.34h1.34v5.08Zm5.92,0h-3.36v-5.08c0-3.95.88-5.29,3.4-5.97l.67,1.85c-1.76.67-2.06,1.09-2.06,3.78v.34h1.34v5.08Z"/><path class="cls-14" d="m1365.26,1679.75v5.04h5.92v2.44h-5.92v18.57h-2.94v-18.57h-4.16v-2.44h4.16v-5.42c0-5.29,3.15-6.89,6.38-6.89,1.85,0,2.98.29,3.74.55v2.6c-.71-.21-1.89-.46-3.49-.46-2.65,0-3.7,1.76-3.7,4.58Z"/><path class="cls-14" d="m1375.8,1682.22c1.76-.67,2.06-1.09,2.06-3.78v-.34h-1.34v-5.08h3.36v5.08c0,3.95-.88,5.29-3.4,5.97l-.67-1.85Zm5.92,0c1.76-.67,2.06-1.09,2.06-3.78v-.34h-1.34v-5.08h3.36v5.08c0,3.95-.88,5.29-3.4,5.97l-.67-1.85Z"/><circle class="cls-15" cx="855.19" cy="1502.58" r="106.81"/><circle class="cls-15" cx="1082.78" cy="2848.35" r="118.27"/><line class="cls-4" x1="1142.31" y1="2074.38" x2="1142.31" y2="2073.51"/><line class="cls-6" x1="1142.31" y1="2055.7" x2="1142.31" y2="1888.31"/><line class="cls-4" x1="1142.31" y1="1879.41" x2="1142.31" y2="1878.53"/><line class="cls-4" x1="1224.48" y1="774.06" x2="1224.46" y2="773.19"/><line class="cls-3" x1="1223.96" y1="756.05" x2="1218.76" y2="576.05"/><line class="cls-4" x1="1218.51" y1="567.48" x2="1218.48" y2="566.61"/><line class="cls-4" x1="1611.22" y1="1191.26" x2="1611.2" y2="1190.39"/><line class="cls-2" x1="1610.65" y1="1173.24" x2="1605.52" y2="1011.99"/><line class="cls-4" x1="1605.25" y1="1003.41" x2="1605.22" y2="1002.54"/><line class="cls-4" x1="264.83" y1="774.06" x2="264.83" y2="773.19"/><line class="cls-5" x1="264.83" y1="755.22" x2="264.83" y2="566.47"/><line class="cls-4" x1="264.83" y1="557.48" x2="264.83" y2="556.61"/><line class="cls-4" x1="225.95" y1="2516.96" x2="225.95" y2="2516.09"/><line class="cls-8" x1="225.95" y1="2498.7" x2="225.95" y2="2316.09"/><line class="cls-4" x1="225.95" y1="2307.39" x2="225.95" y2="2306.52"/><line class="cls-4" x1="1090.55" y1="2720.09" x2="1090.55" y2="2719.21"/><line class="cls-9" x1="1090.55" y1="2704.32" x2="1090.55" y2="2679"/><line class="cls-4" x1="1090.55" y1="2671.55" x2="1090.55" y2="2670.68"/><line class="cls-4" x1="540.68" y1="3353.06" x2="540.68" y2="3352.19"/><line class="cls-7" x1="540.68" y1="3335.14" x2="540.68" y2="3156.09"/><line class="cls-4" x1="540.68" y1="3147.56" x2="540.68" y2="3146.69"/><path class="cls-14" d="m120.3,2558.64c0-11.72,6.76-16.93,15.46-16.93,7.94,0,14.7,5.21,14.7,16.59,0,12.48-6.76,17.26-15.08,17.26s-15.08-4.79-15.08-16.93Zm27.05,0c0-10.12-5.33-14.24-12.01-14.24s-11.93,4.12-11.93,14.24,5.33,14.2,12.01,14.2,11.93-3.74,11.93-14.2Z"/><path class="cls-14" d="m156.76,2554.02h2.39l.34,3.87h.08c1.13-2.48,4.03-4.41,7.86-4.41,6.3,0,9.66,3.99,9.66,11.01s-4.29,11.09-9.87,11.09c-3.78,0-6.39-1.6-7.44-3.7h-.08v11.55h-2.94v-29.41Zm17.18,10.63c0-7.18-3.4-8.61-6.93-8.61-4.24,0-7.56,2.73-7.56,8.44,0,6.01,3.44,8.57,7.43,8.57,3.03,0,7.06-1.47,7.06-8.4Z"/><path class="cls-14" d="m200.23,2565.53h-15.96c.17,4.79,2.48,7.48,6.93,7.48,3.82,0,5.67-1.43,5.96-4.83h2.98c-.29,4.24-3.28,7.39-9.03,7.39-7.06,0-9.83-4.66-9.83-10.88s3.23-11.22,10-11.22,8.95,3.99,8.95,10.21v1.85Zm-3.11-2.98c0-4.45-1.72-6.55-5.92-6.55s-6.55,2.65-6.89,6.97h12.81v-.42Z"/><path class="cls-14" d="m206.1,2554.02h2.6l.29,3.49c1.01-2.14,3.28-4.03,7.35-4.03,4.75,0,7.77,2.52,7.77,7.94v13.61h-2.94v-13.27c0-4.33-2.14-5.71-5.5-5.71-3.82,0-6.64,2.69-6.64,5.63v13.36h-2.94v-21Z"/><path class="cls-14" d="m239.45,2564.56c0-7.1,4.28-11.09,10.04-11.09,3.7,0,6.22,1.6,7.31,3.74h.04v-14.96h2.94v32.77h-1.97l-.67-3.61h-.08c-1.18,2.31-3.95,4.16-7.77,4.16-6.3,0-9.83-3.99-9.83-11.01Zm17.64-.5c0-5.5-3.36-8.07-7.35-8.07-3.11,0-7.14,1.47-7.14,8.4s3.61,8.61,7.14,8.61c4.24,0,7.35-2.73,7.35-8.95Z"/><path class="cls-14" d="m284.39,2565.53h-15.96c.17,4.79,2.48,7.48,6.93,7.48,3.82,0,5.67-1.43,5.96-4.83h2.98c-.29,4.24-3.28,7.39-9.03,7.39-7.06,0-9.83-4.66-9.83-10.88s3.23-11.22,10-11.22,8.95,3.99,8.95,10.21v1.85Zm-3.11-2.98c0-4.45-1.72-6.55-5.92-6.55s-6.55,2.65-6.89,6.97h12.81v-.42Z"/><path class="cls-14" d="m288.38,2568.59v-1.18h2.94v1.13c0,2.86,2.14,4.5,5.96,4.5s5.8-1.01,5.8-3.78c0-2.06-1.01-2.81-3.87-3.32l-4.62-.84c-3.02-.55-5.54-2.02-5.54-5.5,0-3.15,2.35-6.13,8.4-6.13s8.4,3.02,8.4,7.23v.88h-2.98v-.76c0-3.44-2.14-4.92-5.42-4.92-3.95,0-5.34,1.34-5.34,3.36s1.01,2.86,3.91,3.4l4.03.76c4.12.76,6.09,1.93,6.09,5.59,0,4.58-4.12,6.55-8.78,6.55-7.31,0-8.99-3.28-8.99-6.97Z"/><path class="cls-14" d="m312.03,2542.25h2.98v6.51h-2.98v-6.51Zm0,11.76h2.94v21h-2.94v-21Z"/><path class="cls-14" d="m321.73,2576.83v-.13h3.11v.13c0,2.9,1.93,4.33,6.13,4.33,4.79,0,7.01-2.94,7.01-7.86v-2.1h-.08c-1.09,2.18-3.65,4.07-7.48,4.07-6.3,0-9.75-3.99-9.75-10.71,0-7.1,4.37-11.09,9.96-11.09,3.78,0,6.55,1.81,7.56,4.12h.13l.29-3.57h2.31v19.16c0,5.88-2.81,10.71-10.33,10.71-6.3,0-8.86-2.98-8.86-7.06Zm16.59-12.77c0-5.5-3.36-8.07-7.35-8.07-3.02,0-7.14,1.47-7.14,8.4s3.57,8.32,7.1,8.32c4.24,0,7.39-2.73,7.39-8.65Z"/><path class="cls-14" d="m348.27,2554.02h2.61l.29,3.49c1.01-2.14,3.28-4.03,7.35-4.03,4.75,0,7.77,2.52,7.77,7.94v13.61h-2.94v-13.27c0-4.33-2.14-5.71-5.5-5.71-3.82,0-6.64,2.69-6.64,5.63v13.36h-2.94v-21Z"/><path class="cls-14" d="m381.62,2564.52c0-6.22,3.32-11.05,10.38-11.05,6.6,0,10.25,4.83,10.25,11.05s-3.7,11.05-10.29,11.05c-7.27,0-10.33-4.83-10.33-11.05Zm17.56,0c0-5.33-2.9-8.49-7.22-8.49-4.75,0-7.27,3.15-7.27,8.49s2.56,8.49,7.27,8.49c4.33,0,7.22-3.15,7.22-8.49Z"/><path class="cls-14" d="m412.28,2548.98v5.04h5.92v2.44h-5.92v18.57h-2.94v-18.57h-4.16v-2.44h4.16v-5.42c0-5.29,3.15-6.89,6.38-6.89,1.85,0,2.98.29,3.74.55v2.6c-.71-.21-1.89-.46-3.49-.46-2.65,0-3.7,1.76-3.7,4.58Z"/><path class="cls-14" d="m434.37,2542.25l-.42,11.05h-2.31l-.42-11.05h3.15Zm5.59,0l-.42,11.05h-2.31l-.42-11.05h3.15Z"/><path class="cls-14" d="m457.93,2575.48c-7.73-.59-13.36-5.54-13.36-16.84s6.76-16.93,15.46-16.93c7.94,0,14.7,5.21,14.7,16.59s-6.13,16.76-13.86,17.22l-.38,7.31h-2.18l-.38-7.35Zm13.69-16.84c0-10.12-5.33-14.24-12.01-14.24s-11.93,4.12-11.93,14.24,5.33,14.2,12.01,14.2,11.93-3.74,11.93-14.2Z"/><path class="cls-14" d="m482.5,2542.25l-.42,11.05h-2.31l-.42-11.05h3.15Zm5.59,0l-.42,11.05h-2.31l-.42-11.05h3.15Z"/><path class="cls-14" d="m1127.19,826.73c0-12.01,6.76-17.27,14.74-17.27,6.97,0,12.39,3.74,12.39,12.01v.8h-2.86v-.92c0-5.92-3.78-9.24-9.45-9.24-6.72,0-11.76,4.58-11.76,14.32s5.04,14.24,11.72,14.24c5.38,0,9.54-2.86,9.54-9.2v-.59h2.77v.42c0,8.02-5.33,12.01-12.56,12.01-7.98,0-14.53-4.87-14.53-16.59Z"/><path class="cls-14" d="m1160.63,810.01h2.94v32.77h-2.94v-32.77Z"/><path class="cls-14" d="m1169.24,832.27c0-6.22,3.32-11.05,10.38-11.05,6.59,0,10.25,4.83,10.25,11.05s-3.7,11.05-10.29,11.05c-7.27,0-10.33-4.83-10.33-11.05Zm17.56,0c0-5.33-2.9-8.49-7.23-8.49-4.75,0-7.27,3.15-7.27,8.49s2.56,8.49,7.27,8.49c4.33,0,7.23-3.15,7.23-8.49Z"/><path class="cls-14" d="m1193.85,836.35v-1.18h2.94v1.13c0,2.86,2.14,4.5,5.96,4.5s5.8-1.01,5.8-3.78c0-2.06-1.01-2.81-3.86-3.32l-4.62-.84c-3.03-.55-5.54-2.02-5.54-5.5,0-3.15,2.35-6.13,8.4-6.13s8.4,3.02,8.4,7.23v.88h-2.98v-.76c0-3.44-2.14-4.91-5.42-4.91-3.95,0-5.33,1.34-5.33,3.36s1.01,2.86,3.91,3.4l4.03.76c4.12.76,6.09,1.93,6.09,5.59,0,4.58-4.12,6.55-8.78,6.55-7.31,0-8.99-3.28-8.99-6.97Z"/><path class="cls-14" d="m1234.76,833.28h-15.96c.17,4.79,2.48,7.48,6.93,7.48,3.82,0,5.67-1.43,5.96-4.83h2.98c-.29,4.24-3.28,7.39-9.03,7.39-7.06,0-9.83-4.66-9.83-10.88s3.23-11.22,10-11.22,8.95,3.99,8.95,10.21v1.85Zm-3.11-2.98c0-4.45-1.72-6.55-5.92-6.55s-6.55,2.65-6.89,6.97h12.81v-.42Z"/><path class="cls-14" d="m1238.96,832.31c0-7.1,4.29-11.09,10.04-11.09,3.7,0,6.22,1.6,7.31,3.74h.04v-14.95h2.94v32.77h-1.97l-.67-3.61h-.08c-1.18,2.31-3.95,4.16-7.77,4.16-6.3,0-9.83-3.99-9.83-11.01Zm17.64-.5c0-5.5-3.36-8.07-7.35-8.07-3.11,0-7.14,1.47-7.14,8.4s3.61,8.61,7.14,8.61c4.24,0,7.35-2.73,7.35-8.95Z"/><path class="cls-14" d="m1279.11,839.29h-.08l-.76,3.49h-1.97v-32.77h2.94v15.25h.04c1.26-2.31,4.07-4.03,7.69-4.03,6.3,0,9.66,3.99,9.66,11.01s-4.29,11.09-9.87,11.09c-3.78,0-6.55-1.64-7.65-4.03Zm14.37-6.89c0-7.18-3.4-8.61-6.93-8.61-4.24,0-7.56,2.73-7.56,8.44,0,6.01,3.44,8.57,7.43,8.57,3.03,0,7.06-1.47,7.06-8.4Z"/><path class="cls-14" d="m1300.82,832.27c0-6.22,3.32-11.05,10.38-11.05,6.59,0,10.25,4.83,10.25,11.05s-3.7,11.05-10.29,11.05c-7.27,0-10.33-4.83-10.33-11.05Zm17.56,0c0-5.33-2.9-8.49-7.23-8.49-4.75,0-7.27,3.15-7.27,8.49s2.56,8.49,7.27,8.49c4.33,0,7.23-3.15,7.23-8.49Z"/><path class="cls-14" d="m1323.75,821.81v-.04h2.98l5.76,17.48h.08l6.3-17.48h2.69l6.17,17.48h.08l5.76-17.48h2.86v.04l-7.18,20.96h-3.02l-5.96-17.06h-.08l-6.22,17.06h-3.02l-7.18-20.96Z"/><path class="cls-14" d="m1361.26,810.01h2.94v32.77h-2.94v-32.77Z"/><path class="cls-14" d="m1381.21,810.01h2.98v6.51h-2.98v-6.51Zm0,11.76h2.94v21h-2.94v-21Z"/><path class="cls-14" d="m1391.54,821.77h2.6l.29,3.49c1.01-2.14,3.28-4.03,7.35-4.03,4.75,0,7.77,2.52,7.77,7.94v13.61h-2.94v-13.27c0-4.33-2.14-5.71-5.5-5.71-3.82,0-6.64,2.69-6.64,5.63v13.36h-2.94v-21Z"/><path class="cls-14" d="m1428.25,820.47h-3.36v-5.08c0-3.95.88-5.29,3.4-5.97l.67,1.85c-1.76.67-2.06,1.09-2.06,3.78v.34h1.34v5.08Zm5.92,0h-3.36v-5.08c0-3.95.88-5.29,3.4-5.97l.67,1.85c-1.76.67-2.06,1.09-2.06,3.78v.34h1.34v5.08Z"/><path class="cls-14" d="m1443.37,839.29h-.08l-.76,3.49h-1.97v-32.77h2.94v15.25h.04c1.26-2.31,4.08-4.03,7.69-4.03,6.3,0,9.66,3.99,9.66,11.01s-4.29,11.09-9.87,11.09c-3.78,0-6.55-1.64-7.65-4.03Zm14.37-6.89c0-7.18-3.4-8.61-6.93-8.61-4.24,0-7.56,2.73-7.56,8.44,0,6.01,3.44,8.57,7.43,8.57,3.02,0,7.06-1.47,7.06-8.4Z"/><path class="cls-14" d="m1462.14,819.21c1.76-.67,2.06-1.09,2.06-3.78v-.34h-1.34v-5.08h3.36v5.08c0,3.95-.88,5.29-3.4,5.97l-.67-1.85Zm5.92,0c1.76-.67,2.06-1.09,2.06-3.78v-.34h-1.34v-5.08h3.36v5.08c0,3.95-.88,5.29-3.4,5.97l-.67-1.85Z"/><path class="cls-14" d="m1185.58,956.29h-3.36v-5.08c0-3.95.88-5.29,3.4-5.97l.67,1.85c-1.77.67-2.06,1.09-2.06,3.78v.34h1.34v5.08Zm5.92,0h-3.36v-5.08c0-3.95.88-5.29,3.4-5.97l.67,1.85c-1.76.67-2.06,1.09-2.06,3.78v.34h1.34v5.08Z"/><path class="cls-14" d="m1194.52,968.09c0-6.22,3.32-11.05,10.38-11.05,6.59,0,10.25,4.83,10.25,11.05s-3.7,11.05-10.29,11.05c-7.27,0-10.33-4.83-10.33-11.05Zm17.56,0c0-5.33-2.9-8.49-7.23-8.49-4.75,0-7.27,3.15-7.27,8.49s2.56,8.49,7.27,8.49c4.33,0,7.23-3.15,7.23-8.49Z"/><path class="cls-14" d="m1216.4,955.03c1.76-.67,2.06-1.09,2.06-3.78v-.34h-1.34v-5.08h3.36v5.08c0,3.95-.88,5.29-3.4,5.97l-.67-1.85Zm5.92,0c1.76-.67,2.06-1.09,2.06-3.78v-.34h-1.34v-5.08h3.36v5.08c0,3.95-.88,5.29-3.4,5.97l-.67-1.85Z"/><path class="cls-14" d="m1241.94,945.83h2.98v6.51h-2.98v-6.51Zm0,11.76h2.94v21h-2.94v-21Z"/><path class="cls-14" d="m1250.38,972.17v-1.18h2.94v1.13c0,2.86,2.14,4.5,5.96,4.5s5.8-1.01,5.8-3.78c0-2.06-1.01-2.81-3.86-3.32l-4.62-.84c-3.02-.55-5.54-2.02-5.54-5.5,0-3.15,2.35-6.13,8.4-6.13s8.4,3.02,8.4,7.23v.88h-2.98v-.76c0-3.44-2.14-4.91-5.42-4.91-3.95,0-5.33,1.34-5.33,3.36s1.01,2.86,3.91,3.4l4.03.76c4.12.76,6.09,1.93,6.09,5.59,0,4.58-4.12,6.55-8.78,6.55-7.31,0-8.99-3.28-8.99-6.97Z"/><path class="cls-14" d="m1294.65,975.91v2.6c-.76.21-2.14.59-4.03.59-3.82,0-6.34-1.6-6.34-6.89v-12.18h-4.16v-2.44h4.16v-6.05l2.94-1.43v7.48h5.92v2.44h-5.92v11.8c0,2.81.76,4.58,3.4,4.58,1.6,0,3.23-.29,4.03-.5Z"/><path class="cls-14" d="m1299.48,945.83h2.94v15.16c1.05-2.1,3.28-3.95,7.31-3.95,4.75,0,7.77,2.52,7.77,7.94v13.61h-2.94v-13.27c0-4.33-2.14-5.71-5.5-5.71-3.82,0-6.64,2.69-6.64,5.63v13.36h-2.94v-32.77Z"/><path class="cls-14" d="m1342.11,969.1h-15.96c.17,4.79,2.48,7.48,6.93,7.48,3.82,0,5.67-1.43,5.96-4.83h2.98c-.29,4.24-3.28,7.39-9.03,7.39-7.06,0-9.83-4.66-9.83-10.88s3.23-11.22,10-11.22,8.95,3.99,8.95,10.21v1.85Zm-3.11-2.98c0-4.45-1.72-6.55-5.92-6.55s-6.55,2.65-6.89,6.97h12.81v-.42Z"/><path class="cls-14" d="m1355.97,968.09c0-6.22,3.32-11.05,10.38-11.05,6.6,0,10.25,4.83,10.25,11.05s-3.7,11.05-10.29,11.05c-7.27,0-10.33-4.83-10.33-11.05Zm17.56,0c0-5.33-2.9-8.49-7.23-8.49-4.75,0-7.27,3.15-7.27,8.49s2.56,8.49,7.27,8.49c4.33,0,7.23-3.15,7.23-8.49Z"/><path class="cls-14" d="m1382.47,957.59h2.6l.29,3.49c1.01-2.14,3.28-4.03,7.35-4.03,4.75,0,7.77,2.52,7.77,7.94v13.61h-2.94v-13.27c0-4.33-2.14-5.71-5.5-5.71-3.82,0-6.64,2.69-6.64,5.63v13.36h-2.94v-21Z"/><path class="cls-14" d="m1407.84,945.83h2.94v32.77h-2.94v-32.77Z"/><path class="cls-14" d="m1418.12,957.59l6.89,17.98h.08l7.14-17.98h3.07v.04l-8.86,20.84-3.11,8.53h-2.98v-.04l3.19-8.36-8.78-20.96v-.04h3.36Z"/><path class="cls-14" d="m1449.16,945.83h2.94v32.77h-2.94v-32.77Z"/><path class="cls-14" d="m1476.72,969.1h-15.96c.17,4.79,2.48,7.48,6.93,7.48,3.82,0,5.67-1.43,5.96-4.83h2.98c-.29,4.24-3.28,7.39-9.03,7.39-7.06,0-9.83-4.66-9.83-10.88s3.23-11.22,10-11.22,8.95,3.99,8.95,10.21v1.85Zm-3.11-2.98c0-4.45-1.72-6.55-5.92-6.55s-6.55,2.65-6.89,6.97h12.81v-.42Z"/><path class="cls-14" d="m1483.18,972.21v-12.18h-4.16v-2.44h4.16v-6.05l2.94-1.43v7.48h11.85v-6.05l2.94-1.43v7.48h5.92v2.44h-5.92v11.8c0,2.81.76,4.58,3.4,4.58,1.6,0,3.23-.29,4.03-.5v2.6c-.76.21-2.14.59-4.03.59-3.82,0-6.34-1.6-6.34-6.89v-12.18h-11.85v11.8c0,2.81.76,4.58,3.4,4.58,1.6,0,3.23-.29,4.03-.5v2.6c-.76.21-2.14.59-4.03.59-3.82,0-6.34-1.6-6.34-6.89Z"/><path class="cls-14" d="m1529.8,969.1h-15.96c.17,4.79,2.48,7.48,6.93,7.48,3.82,0,5.67-1.43,5.96-4.83h2.98c-.29,4.24-3.28,7.39-9.03,7.39-7.06,0-9.83-4.66-9.83-10.88s3.23-11.22,10-11.22,8.95,3.99,8.95,10.21v1.85Zm-3.11-2.98c0-4.45-1.72-6.55-5.92-6.55s-6.55,2.65-6.89,6.97h12.81v-.42Z"/><path class="cls-14" d="m1535.68,957.59h2.6l.29,3.91c1.01-2.14,3.07-4.45,6.76-4.45,1.26,0,2.18.21,3.02.55v3.15c-1.13-.5-2.1-.76-3.4-.76-3.74,0-6.34,2.81-6.34,5.75v12.85h-2.94v-21Z"/><path class="cls-14" d="m1559.91,957.63v-.04h2.98l5.75,17.48h.08l6.3-17.48h2.69l6.18,17.48h.08l5.75-17.48h2.86v.04l-7.18,20.96h-3.02l-5.97-17.06h-.08l-6.22,17.06h-3.02l-7.18-20.96Z"/><path class="cls-14" d="m1597.42,945.83h2.98v6.51h-2.98v-6.51Zm0,11.76h2.94v21h-2.94v-21Z"/><path class="cls-14" d="m1618.71,975.91v2.6c-.76.21-2.14.59-4.03.59-3.82,0-6.34-1.6-6.34-6.89v-12.18h-4.16v-2.44h4.16v-6.05l2.94-1.43v7.48h5.92v2.44h-5.92v11.8c0,2.81.76,4.58,3.4,4.58,1.6,0,3.23-.29,4.03-.5Z"/><path class="cls-14" d="m1623.54,945.83h2.94v15.16c1.05-2.1,3.28-3.95,7.31-3.95,4.75,0,7.77,2.52,7.77,7.94v13.61h-2.94v-13.27c0-4.33-2.14-5.71-5.5-5.71-3.82,0-6.64,2.69-6.64,5.63v13.36h-2.94v-32.77Z"/><path class="cls-14" d="m1657.31,972.8c0-3.95,2.23-6.09,7.86-6.09h6.34v-1.72c0-2.98-1.26-5.42-5.46-5.42-3.95,0-5.33,1.51-5.33,4.12v.88h-2.98v-.84c0-5,4.2-6.68,8.32-6.68,5.8,0,8.4,2.86,8.4,8.44v13.11h-2.06l-.55-2.98h-.08c-1.26,1.89-3.7,3.53-7.35,3.53-4.92,0-7.1-2.31-7.1-6.34Zm14.2-1.85v-1.76h-7.01c-2.65,0-4.03.92-4.03,3.61,0,2.35,1.26,3.86,4.49,3.86,4.16,0,6.55-2.14,6.55-5.71Z"/><path class="cls-14" d="m1691.45,945.83h2.94v23.23l12.14-11.47h3.66v.04l-8.4,7.86,8.78,13.06v.04h-3.36l-7.39-11.22-5.42,5.04v6.18h-2.94v-32.77Z"/><path class="cls-14" d="m1715.6,957.59h2.6l.29,3.49c1.01-2.14,3.28-4.03,7.35-4.03,4.75,0,7.77,2.52,7.77,7.94v13.61h-2.94v-13.27c0-4.33-2.14-5.71-5.5-5.71-3.82,0-6.64,2.69-6.64,5.63v13.36h-2.94v-21Z"/><path class="cls-14" d="m1739.29,968.09c0-6.22,3.32-11.05,10.38-11.05,6.6,0,10.25,4.83,10.25,11.05s-3.7,11.05-10.29,11.05c-7.27,0-10.33-4.83-10.33-11.05Zm17.56,0c0-5.33-2.9-8.49-7.22-8.49-4.75,0-7.27,3.15-7.27,8.49s2.56,8.49,7.27,8.49c4.33,0,7.22-3.15,7.22-8.49Z"/><path class="cls-14" d="m1776.76,975.91v2.6c-.76.21-2.14.59-4.03.59-3.82,0-6.34-1.6-6.34-6.89v-12.18h-4.16v-2.44h4.16v-6.05l2.94-1.43v7.48h5.92v2.44h-5.92v11.8c0,2.81.76,4.58,3.4,4.58,1.6,0,3.23-.29,4.03-.5Z"/><path class="cls-14" d="m132.66,810.01h8.61c7.94,0,11.64,2.73,11.64,9.62,0,6.43-2.77,10.12-11.13,10.12h-6.13v13.02h-2.98v-32.77Zm9.28,17.22c6.09,0,7.94-2.69,7.94-7.65,0-5.21-2.6-6.97-8.44-6.97h-5.8v14.62h6.3Z"/><path class="cls-14" d="m156.05,836.98c0-3.95,2.23-6.09,7.86-6.09h6.34v-1.72c0-2.98-1.26-5.42-5.46-5.42-3.95,0-5.33,1.51-5.33,4.12v.88h-2.98v-.84c0-5,4.2-6.68,8.32-6.68,5.8,0,8.4,2.86,8.4,8.44v13.11h-2.06l-.55-2.98h-.08c-1.26,1.89-3.7,3.53-7.35,3.53-4.91,0-7.1-2.31-7.1-6.34Zm14.2-1.85v-1.76h-7.02c-2.65,0-4.03.92-4.03,3.61,0,2.35,1.26,3.86,4.5,3.86,4.16,0,6.55-2.14,6.55-5.71Z"/><path class="cls-14" d="m180.54,810.01h2.94v32.77h-2.94v-32.77Z"/><path class="cls-14" d="m221.53,829.16v13.61h-2.94v-13.27c0-4.33-2.14-5.71-4.75-5.71-3.82,0-6.17,2.69-6.17,5.63v13.36h-2.94v-13.27c0-4.33-1.85-5.71-4.83-5.71-3.61,0-6.13,2.69-6.13,5.63v13.36h-2.94v-21h2.6l.29,3.49c1.01-2.02,3.07-4.03,6.93-4.03,2.94,0,5.38,1.39,6.43,4.28,1.22-2.39,3.57-4.28,7.14-4.28,4.28,0,7.31,2.52,7.31,7.94Z"/><path class="cls-14" d="m246.14,833.28h-15.96c.17,4.79,2.48,7.48,6.93,7.48,3.82,0,5.67-1.43,5.96-4.83h2.98c-.29,4.24-3.28,7.39-9.03,7.39-7.06,0-9.83-4.66-9.83-10.88s3.23-11.22,10-11.22,8.95,3.99,8.95,10.21v1.85Zm-3.11-2.98c0-4.45-1.72-6.55-5.92-6.55s-6.55,2.65-6.89,6.97h12.81v-.42Z"/><path class="cls-14" d="m252.02,821.77h2.61l.29,3.91c1.01-2.14,3.07-4.45,6.76-4.45,1.26,0,2.18.21,3.02.55v3.15c-1.13-.5-2.1-.76-3.4-.76-3.74,0-6.34,2.81-6.34,5.75v12.85h-2.94v-21Z"/><path class="cls-14" d="m277.1,836.35v-1.18h2.94v1.13c0,2.86,2.14,4.5,5.96,4.5s5.8-1.01,5.8-3.78c0-2.06-1.01-2.81-3.86-3.32l-4.62-.84c-3.02-.55-5.54-2.02-5.54-5.5,0-3.15,2.35-6.13,8.4-6.13s8.4,3.02,8.4,7.23v.88h-2.98v-.76c0-3.44-2.14-4.91-5.42-4.91-3.95,0-5.33,1.34-5.33,3.36s1.01,2.86,3.91,3.4l4.03.76c4.12.76,6.09,1.93,6.09,5.59,0,4.58-4.12,6.55-8.78,6.55-7.31,0-8.99-3.28-8.99-6.97Z"/><path class="cls-14" d="m311.7,840.08v2.6c-.76.21-2.14.59-4.03.59-3.82,0-6.34-1.6-6.34-6.89v-12.18h-4.16v-2.44h4.16v-6.05l2.94-1.43v7.48h5.92v2.44h-5.92v11.8c0,2.81.76,4.58,3.4,4.58,1.6,0,3.23-.29,4.03-.5Z"/><path class="cls-14" d="m316.74,821.77l6.89,17.98h.08l7.14-17.98h3.07v.04l-8.86,20.84-3.11,8.53h-2.98v-.04l3.19-8.36-8.78-20.96v-.04h3.36Z"/><path class="cls-14" d="m338.12,810.01h2.94v32.77h-2.94v-32.77Z"/><path class="cls-14" d="m365.68,833.28h-15.96c.17,4.79,2.48,7.48,6.93,7.48,3.82,0,5.67-1.43,5.96-4.83h2.98c-.29,4.24-3.28,7.39-9.03,7.39-7.06,0-9.83-4.66-9.83-10.88s3.23-11.22,10-11.22,8.95,3.99,8.95,10.21v1.85Zm-3.11-2.98c0-4.45-1.72-6.55-5.92-6.55s-6.55,2.65-6.89,6.97h12.81v-.42Z"/><path class="cls-14" d="m382.89,820.47h-3.36v-5.08c0-3.95.88-5.29,3.4-5.97l.67,1.85c-1.76.67-2.06,1.09-2.06,3.78v.34h1.34v5.08Zm5.92,0h-3.36v-5.08c0-3.95.88-5.29,3.4-5.97l.67,1.85c-1.76.67-2.06,1.09-2.06,3.78v.34h1.34v5.08Z"/><path class="cls-14" d="m396.25,810.01h18.86v2.6h-15.92v12.94h12.31v2.6h-12.31v14.62h-2.94v-32.77Z"/><path class="cls-14" d="m418.47,819.21c1.77-.67,2.06-1.09,2.06-3.78v-.34h-1.34v-5.08h3.36v5.08c0,3.95-.88,5.29-3.4,5.97l-.67-1.85Zm5.92,0c1.76-.67,2.06-1.09,2.06-3.78v-.34h-1.34v-5.08h3.36v5.08c0,3.95-.88,5.29-3.4,5.97l-.67-1.85Z"/><path class="cls-14" d="m442.74,836.98c0-3.95,2.23-6.09,7.86-6.09h6.34v-1.72c0-2.98-1.26-5.42-5.46-5.42-3.95,0-5.33,1.51-5.33,4.12v.88h-2.98v-.84c0-5,4.2-6.68,8.32-6.68,5.8,0,8.4,2.86,8.4,8.44v13.11h-2.06l-.55-2.98h-.08c-1.26,1.89-3.7,3.53-7.35,3.53-4.92,0-7.1-2.31-7.1-6.34Zm14.2-1.85v-1.76h-7.01c-2.65,0-4.03.92-4.03,3.61,0,2.35,1.26,3.86,4.49,3.86,4.16,0,6.55-2.14,6.55-5.71Z"/><path class="cls-14" d="m467.23,821.77h2.6l.29,3.49c1.01-2.14,3.28-4.03,7.35-4.03,4.75,0,7.77,2.52,7.77,7.94v13.61h-2.94v-13.27c0-4.33-2.14-5.71-5.5-5.71-3.82,0-6.64,2.69-6.64,5.63v13.36h-2.94v-21Z"/><path class="cls-14" d="m490.92,832.31c0-7.1,4.29-11.09,10.04-11.09,3.7,0,6.22,1.6,7.31,3.74h.04v-14.95h2.94v32.77h-1.97l-.67-3.61h-.08c-1.18,2.31-3.95,4.16-7.77,4.16-6.3,0-9.83-3.99-9.83-11.01Zm17.64-.5c0-5.5-3.36-8.07-7.35-8.07-3.11,0-7.14,1.47-7.14,8.4s3.61,8.61,7.14,8.61c4.24,0,7.35-2.73,7.35-8.95Z"/><path class="cls-14" d="m529.93,820.47h-3.36v-5.08c0-3.95.88-5.29,3.4-5.97l.67,1.85c-1.76.67-2.06,1.09-2.06,3.78v.34h1.34v5.08Zm5.92,0h-3.36v-5.08c0-3.95.88-5.29,3.4-5.97l.67,1.85c-1.76.67-2.06,1.09-2.06,3.78v.34h1.34v5.08Z"/><path class="cls-14" d="m540.98,826.56c0-11.85,6.51-17.1,14.49-17.1,7.56,0,12.64,3.78,12.64,11.47v.5h-2.86v-.63c0-5.33-3.49-8.7-9.7-8.7-6.72,0-11.47,4.58-11.47,14.28s4.75,14.28,11.76,14.28c5.63,0,9.45-2.52,9.45-8.78v-2.73h-9.83v-2.6h12.64v16.21h-2.1l-.67-3.74c-1.6,2.48-5.17,4.28-9.75,4.28-8.32,0-14.62-4.87-14.62-16.76Z"/><path class="cls-14" d="m572.94,819.21c1.76-.67,2.06-1.09,2.06-3.78v-.34h-1.34v-5.08h3.36v5.08c0,3.95-.88,5.29-3.4,5.97l-.67-1.85Zm5.92,0c1.76-.67,2.06-1.09,2.06-3.78v-.34h-1.34v-5.08h3.36v5.08c0,3.95-.88,5.29-3.4,5.97l-.67-1.85Z"/><path class="cls-14" d="m304.14,3405.09v-2.02h3.02v2.18c0,3.74,2.6,6.05,7.94,6.05s8.44-1.97,8.44-6.22c0-3.32-1.39-5.17-4.92-6.09l-6.64-1.72c-4.33-1.13-7.18-2.98-7.18-8.15s3.78-8.91,10.92-8.91,10.59,3.44,10.59,9.07v2.94h-3.02v-2.81c0-4.62-3.07-6.51-7.56-6.51-5.12,0-7.81,2.14-7.81,6.01,0,3.61,1.76,4.71,5.55,5.71l5.75,1.55c5.12,1.39,7.43,3.74,7.43,8.65,0,6.09-4.33,9.24-11.47,9.24-9.12,0-11.05-4.7-11.05-8.99Z"/><path class="cls-14" d="m333.83,3380.76h2.98v6.51h-2.98v-6.51Zm0,11.76h2.94v21h-2.94v-21Z"/><path class="cls-14" d="m344.16,3392.53h2.6l.29,3.49c1.01-2.14,3.28-4.03,7.35-4.03,4.75,0,7.77,2.52,7.77,7.94v13.61h-2.94v-13.27c0-4.33-2.14-5.71-5.5-5.71-3.82,0-6.64,2.69-6.64,5.63v13.36h-2.94v-21Z"/><path class="cls-14" d="m368.9,3415.34v-.13h3.11v.13c0,2.9,1.93,4.33,6.13,4.33,4.79,0,7.01-2.94,7.01-7.86v-2.1h-.08c-1.09,2.18-3.65,4.07-7.48,4.07-6.3,0-9.75-3.99-9.75-10.71,0-7.1,4.37-11.09,9.96-11.09,3.78,0,6.55,1.81,7.56,4.12h.13l.29-3.57h2.31v19.16c0,5.88-2.81,10.71-10.33,10.71-6.3,0-8.86-2.98-8.86-7.06Zm16.59-12.77c0-5.5-3.36-8.07-7.35-8.07-3.03,0-7.14,1.47-7.14,8.4s3.57,8.32,7.1,8.32c4.24,0,7.39-2.73,7.39-8.65Z"/><path class="cls-14" d="m395.44,3380.76h2.94v32.77h-2.94v-32.77Z"/><path class="cls-14" d="m423,3404.04h-15.96c.17,4.79,2.48,7.48,6.93,7.48,3.82,0,5.67-1.43,5.97-4.83h2.98c-.29,4.24-3.28,7.39-9.03,7.39-7.06,0-9.83-4.66-9.83-10.88s3.23-11.22,10-11.22,8.95,3.99,8.95,10.21v1.85Zm-3.11-2.98c0-4.45-1.72-6.55-5.92-6.55s-6.55,2.65-6.89,6.97h12.81v-.42Z"/><path class="cls-14" d="m436.64,3407.1v-1.18h2.94v1.13c0,2.86,2.14,4.5,5.96,4.5s5.8-1.01,5.8-3.78c0-2.06-1.01-2.81-3.86-3.32l-4.62-.84c-3.02-.55-5.54-2.02-5.54-5.5,0-3.15,2.35-6.13,8.4-6.13s8.4,3.02,8.4,7.23v.88h-2.98v-.76c0-3.44-2.14-4.92-5.42-4.92-3.95,0-5.33,1.34-5.33,3.36s1.01,2.86,3.91,3.4l4.03.76c4.12.76,6.09,1.93,6.09,5.59,0,4.58-4.12,6.55-8.78,6.55-7.31,0-8.99-3.28-8.99-6.97Z"/><path class="cls-14" d="m471.25,3410.84v2.6c-.76.21-2.14.59-4.03.59-3.82,0-6.34-1.6-6.34-6.89v-12.18h-4.16v-2.44h4.16v-6.05l2.94-1.43v7.48h5.92v2.44h-5.92v11.8c0,2.81.76,4.58,3.4,4.58,1.6,0,3.23-.29,4.03-.5Z"/><path class="cls-14" d="m476.08,3392.53h2.6l.29,3.91c1.01-2.14,3.07-4.45,6.76-4.45,1.26,0,2.18.21,3.02.55v3.15c-1.13-.5-2.1-.76-3.4-.76-3.74,0-6.34,2.81-6.34,5.75v12.85h-2.94v-21Z"/><path class="cls-14" d="m491.08,3403.03c0-6.22,3.32-11.05,10.38-11.05,6.59,0,10.25,4.83,10.25,11.05s-3.7,11.05-10.29,11.05c-7.27,0-10.33-4.83-10.33-11.05Zm17.56,0c0-5.33-2.9-8.49-7.22-8.49-4.75,0-7.27,3.15-7.27,8.49s2.56,8.49,7.27,8.49c4.33,0,7.22-3.15,7.22-8.49Z"/><path class="cls-14" d="m516.95,3380.76h2.94v23.23l12.14-11.47h3.65v.04l-8.4,7.86,8.78,13.06v.04h-3.36l-7.39-11.22-5.42,5.04v6.17h-2.94v-32.77Z"/><path class="cls-14" d="m557.31,3404.04h-15.96c.17,4.79,2.48,7.48,6.93,7.48,3.82,0,5.67-1.43,5.97-4.83h2.98c-.29,4.24-3.28,7.39-9.03,7.39-7.06,0-9.83-4.66-9.83-10.88s3.23-11.22,10-11.22,8.95,3.99,8.95,10.21v1.85Zm-3.11-2.98c0-4.45-1.72-6.55-5.92-6.55s-6.55,2.65-6.89,6.97h12.81v-.42Z"/><path class="cls-14" d="m572.85,3392.53h2.6l.29,3.49c1.01-2.14,3.28-4.03,7.35-4.03,4.75,0,7.77,2.52,7.77,7.94v13.61h-2.94v-13.27c0-4.33-2.14-5.71-5.5-5.71-3.82,0-6.64,2.69-6.64,5.63v13.36h-2.94v-21Z"/><path class="cls-14" d="m597.59,3406.14v-13.61h2.94v13.27c0,4.33,2.14,5.71,5.42,5.71,3.74,0,6.55-2.69,6.55-5.63v-13.36h2.94v21h-2.6l-.25-3.36h-.08c-.97,2.02-3.23,3.91-7.23,3.91-4.66,0-7.69-2.52-7.69-7.94Z"/><path class="cls-14" d="m653.49,3399.92v13.61h-2.94v-13.27c0-4.33-2.14-5.71-4.75-5.71-3.82,0-6.17,2.69-6.17,5.63v13.36h-2.94v-13.27c0-4.33-1.85-5.71-4.83-5.71-3.61,0-6.13,2.69-6.13,5.63v13.36h-2.94v-21h2.6l.29,3.49c1.01-2.02,3.07-4.03,6.93-4.03,2.94,0,5.38,1.39,6.43,4.29,1.22-2.39,3.57-4.29,7.14-4.29,4.29,0,7.31,2.52,7.31,7.94Z"/><path class="cls-14" d="m678.1,3404.04h-15.96c.17,4.79,2.48,7.48,6.93,7.48,3.82,0,5.67-1.43,5.97-4.83h2.98c-.29,4.24-3.28,7.39-9.03,7.39-7.06,0-9.83-4.66-9.83-10.88s3.23-11.22,10-11.22,8.95,3.99,8.95,10.21v1.85Zm-3.11-2.98c0-4.45-1.72-6.55-5.92-6.55s-6.55,2.65-6.89,6.97h12.81v-.42Z"/><path class="cls-14" d="m683.98,3392.53h2.6l.29,3.91c1.01-2.14,3.07-4.45,6.76-4.45,1.26,0,2.18.21,3.02.55v3.15c-1.13-.5-2.1-.76-3.4-.76-3.74,0-6.34,2.81-6.34,5.75v12.85h-2.94v-21Z"/><path class="cls-14" d="m699.6,3407.73c0-3.95,2.23-6.09,7.86-6.09h6.34v-1.72c0-2.98-1.26-5.42-5.46-5.42-3.95,0-5.33,1.51-5.33,4.12v.88h-2.98v-.84c0-5,4.2-6.68,8.32-6.68,5.8,0,8.4,2.86,8.4,8.44v13.11h-2.06l-.55-2.98h-.08c-1.26,1.89-3.7,3.53-7.35,3.53-4.92,0-7.1-2.31-7.1-6.34Zm14.2-1.85v-1.76h-7.01c-2.65,0-4.03.92-4.03,3.61,0,2.35,1.26,3.87,4.5,3.87,4.16,0,6.55-2.14,6.55-5.71Z"/><path class="cls-14" d="m724.09,3380.76h2.94v32.77h-2.94v-32.77Z"/><path class="cls-14" d="m745.72,3391.22h-3.36v-5.08c0-3.95.88-5.29,3.4-5.96l.67,1.85c-1.76.67-2.06,1.09-2.06,3.78v.34h1.34v5.08Zm5.92,0h-3.36v-5.08c0-3.95.88-5.29,3.4-5.96l.67,1.85c-1.76.67-2.06,1.09-2.06,3.78v.34h1.34v5.08Z"/><path class="cls-14" d="m766.09,3380.76v32.77h-2.94v-28.31c-1.43,1.13-4.92,2.1-7.69,2.1v-2.73c4.16-.34,6.6-1.47,8.44-3.82h2.18Z"/><path class="cls-14" d="m772.81,3389.96c1.76-.67,2.06-1.09,2.06-3.78v-.34h-1.34v-5.08h3.36v5.08c0,3.95-.88,5.29-3.4,5.96l-.67-1.85Zm5.92,0c1.76-.67,2.06-1.09,2.06-3.78v-.34h-1.34v-5.08h3.36v5.08c0,3.95-.88,5.29-3.4,5.96l-.67-1.85Z"/><path class="cls-14" d="m824.58,1833.55c0-12.01,6.76-17.26,14.74-17.26,6.97,0,12.39,3.74,12.39,12.01v.8h-2.86v-.92c0-5.92-3.78-9.24-9.45-9.24-6.72,0-11.76,4.58-11.76,14.33s5.04,14.24,11.72,14.24c5.38,0,9.54-2.86,9.54-9.2v-.59h2.77v.42c0,8.02-5.33,12.01-12.56,12.01-7.98,0-14.53-4.87-14.53-16.59Z"/><path class="cls-14" d="m857.59,1842.2v-13.61h2.94v13.28c0,4.33,2.14,5.71,5.42,5.71,3.74,0,6.55-2.69,6.55-5.63v-13.36h2.94v21h-2.6l-.25-3.36h-.08c-.97,2.02-3.23,3.91-7.23,3.91-4.66,0-7.69-2.52-7.69-7.94Z"/><path class="cls-14" d="m882.79,1828.59h2.6l.29,3.91c1.01-2.14,3.07-4.45,6.76-4.45,1.26,0,2.18.21,3.02.54v3.15c-1.13-.5-2.1-.76-3.4-.76-3.74,0-6.34,2.81-6.34,5.76v12.85h-2.94v-21Z"/><path class="cls-14" d="m896.95,1828.63v-.04h3.36l7.35,17.98h.08l7.1-17.98h3.07v.04l-8.74,20.96h-3.02l-9.2-20.96Z"/><path class="cls-14" d="m938.74,1840.1h-15.96c.17,4.79,2.48,7.48,6.93,7.48,3.82,0,5.67-1.43,5.97-4.83h2.98c-.29,4.24-3.28,7.39-9.03,7.39-7.06,0-9.83-4.66-9.83-10.88s3.23-11.21,10-11.21,8.95,3.99,8.95,10.21v1.85Zm-3.11-2.98c0-4.45-1.72-6.55-5.92-6.55s-6.55,2.65-6.89,6.97h12.81v-.42Z"/><path class="cls-14" d="m942.94,1839.13c0-7.1,4.28-11.09,10.04-11.09,3.7,0,6.22,1.6,7.31,3.74h.04v-14.96h2.94v32.77h-1.97l-.67-3.61h-.08c-1.18,2.31-3.95,4.16-7.77,4.16-6.3,0-9.83-3.99-9.83-11.01Zm17.64-.5c0-5.5-3.36-8.07-7.35-8.07-3.11,0-7.14,1.47-7.14,8.4s3.61,8.61,7.14,8.61c4.24,0,7.35-2.73,7.35-8.95Z"/><path class="cls-14" d="m997.54,1840.1h-15.96c.17,4.79,2.48,7.48,6.93,7.48,3.82,0,5.67-1.43,5.97-4.83h2.98c-.29,4.24-3.28,7.39-9.03,7.39-7.06,0-9.83-4.66-9.83-10.88s3.23-11.21,10-11.21,8.95,3.99,8.95,10.21v1.85Zm-3.11-2.98c0-4.45-1.72-6.55-5.92-6.55s-6.55,2.65-6.89,6.97h12.81v-.42Z"/><path class="cls-14" d="m1003.42,1828.59h2.6l.29,3.49c1.01-2.14,3.28-4.03,7.35-4.03,4.75,0,7.77,2.52,7.77,7.94v13.61h-2.94v-13.27c0-4.33-2.14-5.71-5.5-5.71-3.82,0-6.64,2.69-6.64,5.63v13.36h-2.94v-21Z"/><path class="cls-14" d="m1039.75,1846.91v2.6c-.76.21-2.14.59-4.03.59-3.82,0-6.34-1.6-6.34-6.89v-12.18h-4.16v-2.44h4.16v-6.05l2.94-1.43v7.48h5.92v2.44h-5.92v11.8c0,2.81.76,4.58,3.4,4.58,1.6,0,3.23-.29,4.03-.5Z"/><path class="cls-14" d="m1044.57,1828.59h2.6l.29,3.91c1.01-2.14,3.07-4.45,6.76-4.45,1.26,0,2.18.21,3.02.54v3.15c-1.13-.5-2.1-.76-3.4-.76-3.74,0-6.34,2.81-6.34,5.76v12.85h-2.94v-21Z"/><path class="cls-14" d="m1062.09,1828.59l6.89,17.98h.08l7.14-17.98h3.07v.04l-8.86,20.84-3.11,8.53h-2.98v-.04l3.19-8.36-8.78-20.96v-.04h3.36Z"/><path class="cls-14" d="m1091.24,1843.17v-1.18h2.94v1.13c0,2.86,2.14,4.5,5.96,4.5s5.8-1.01,5.8-3.78c0-2.06-1.01-2.81-3.86-3.32l-4.62-.84c-3.02-.55-5.54-2.02-5.54-5.5,0-3.15,2.35-6.13,8.4-6.13s8.4,3.02,8.4,7.22v.88h-2.98v-.76c0-3.44-2.14-4.92-5.42-4.92-3.95,0-5.33,1.34-5.33,3.36s1.01,2.86,3.91,3.4l4.03.76c4.12.76,6.09,1.93,6.09,5.59,0,4.58-4.12,6.55-8.78,6.55-7.31,0-8.99-3.28-8.99-6.97Z"/><path class="cls-14" d="m1125.85,1846.91v2.6c-.76.21-2.14.59-4.03.59-3.82,0-6.34-1.6-6.34-6.89v-12.18h-4.16v-2.44h4.16v-6.05l2.94-1.43v7.48h5.92v2.44h-5.92v11.8c0,2.81.76,4.58,3.4,4.58,1.6,0,3.23-.29,4.03-.5Z"/><path class="cls-14" d="m1130.67,1828.59h2.6l.29,3.91c1.01-2.14,3.07-4.45,6.76-4.45,1.26,0,2.18.21,3.02.54v3.15c-1.13-.5-2.1-.76-3.4-.76-3.74,0-6.34,2.81-6.34,5.76v12.85h-2.94v-21Z"/><path class="cls-14" d="m1145.67,1839.09c0-6.22,3.32-11.05,10.38-11.05,6.59,0,10.25,4.83,10.25,11.05s-3.7,11.05-10.29,11.05c-7.27,0-10.33-4.83-10.33-11.05Zm17.56,0c0-5.33-2.9-8.48-7.22-8.48-4.75,0-7.27,3.15-7.27,8.48s2.56,8.49,7.27,8.49c4.33,0,7.22-3.15,7.22-8.49Z"/><path class="cls-14" d="m1171.54,1816.83h2.94v23.23l12.14-11.47h3.65v.04l-8.4,7.86,8.78,13.06v.04h-3.36l-7.39-11.21-5.42,5.04v6.17h-2.94v-32.77Z"/><path class="cls-14" d="m1211.9,1840.1h-15.96c.17,4.79,2.48,7.48,6.93,7.48,3.82,0,5.67-1.43,5.97-4.83h2.98c-.29,4.24-3.28,7.39-9.03,7.39-7.06,0-9.83-4.66-9.83-10.88s3.23-11.21,10-11.21,8.95,3.99,8.95,10.21v1.85Zm-3.11-2.98c0-4.45-1.72-6.55-5.92-6.55s-6.55,2.65-6.89,6.97h12.81v-.42Z"/><path class="cls-14" d="m1227.44,1816.83h2.98v6.51h-2.98v-6.51Zm0,11.76h2.94v21h-2.94v-21Z"/><path class="cls-14" d="m1237.77,1828.59h2.6l.29,3.49c1.01-2.14,3.28-4.03,7.35-4.03,4.75,0,7.77,2.52,7.77,7.94v13.61h-2.94v-13.27c0-4.33-2.14-5.71-5.5-5.71-3.82,0-6.64,2.69-6.64,5.63v13.36h-2.94v-21Z"/><path class="cls-14" d="m1274.48,1827.29h-3.36v-5.08c0-3.95.88-5.29,3.4-5.96l.67,1.85c-1.76.67-2.06,1.09-2.06,3.78v.34h1.34v5.08Zm5.92,0h-3.36v-5.08c0-3.95.88-5.29,3.4-5.96l.67,1.85c-1.76.67-2.06,1.09-2.06,3.78v.34h1.34v5.08Z"/><path class="cls-14" d="m1286.99,1828.59l6.89,17.98h.08l7.14-17.98h3.07v.04l-8.86,20.84-3.11,8.53h-2.98v-.04l3.19-8.36-8.78-20.96v-.04h3.36Z"/><path class="cls-14" d="m1306.48,1826.03c1.76-.67,2.06-1.09,2.06-3.78v-.34h-1.34v-5.08h3.36v5.08c0,3.95-.88,5.29-3.4,5.97l-.67-1.85Zm5.92,0c1.76-.67,2.06-1.09,2.06-3.78v-.34h-1.34v-5.08h3.36v5.08c0,3.95-.88,5.29-3.4,5.97l-.67-1.85Z"/><path class="cls-14" d="m1330.76,1843.8c0-3.95,2.23-6.09,7.86-6.09h6.34v-1.72c0-2.98-1.26-5.42-5.46-5.42-3.95,0-5.33,1.51-5.33,4.12v.88h-2.98v-.84c0-5,4.2-6.68,8.32-6.68,5.8,0,8.4,2.86,8.4,8.44v13.11h-2.06l-.55-2.98h-.08c-1.26,1.89-3.7,3.53-7.35,3.53-4.92,0-7.1-2.31-7.1-6.34Zm14.2-1.85v-1.76h-7.01c-2.65,0-4.03.92-4.03,3.61,0,2.35,1.26,3.87,4.5,3.87,4.16,0,6.55-2.14,6.55-5.71Z"/><path class="cls-14" d="m1355.24,1828.59h2.6l.29,3.49c1.01-2.14,3.28-4.03,7.35-4.03,4.75,0,7.77,2.52,7.77,7.94v13.61h-2.94v-13.27c0-4.33-2.14-5.71-5.5-5.71-3.82,0-6.64,2.69-6.64,5.63v13.36h-2.94v-21Z"/><path class="cls-14" d="m1378.93,1839.13c0-7.1,4.28-11.09,10.04-11.09,3.7,0,6.22,1.6,7.31,3.74h.04v-14.96h2.94v32.77h-1.97l-.67-3.61h-.08c-1.18,2.31-3.95,4.16-7.77,4.16-6.3,0-9.83-3.99-9.83-11.01Zm17.64-.5c0-5.5-3.36-8.07-7.35-8.07-3.11,0-7.14,1.47-7.14,8.4s3.61,8.61,7.14,8.61c4.24,0,7.35-2.73,7.35-8.95Z"/><path class="cls-14" d="m1417.95,1827.29h-3.36v-5.08c0-3.95.88-5.29,3.4-5.96l.67,1.85c-1.76.67-2.06,1.09-2.06,3.78v.34h1.34v5.08Zm5.92,0h-3.36v-5.08c0-3.95.88-5.29,3.4-5.96l.67,1.85c-1.76.67-2.06,1.09-2.06,3.78v.34h1.34v5.08Z"/><path class="cls-14" d="m1427.94,1847.03l14.7-15.88h-14.58v-2.56h18.23v2.56l-14.7,15.84h14.66v2.6h-18.31v-2.56Z"/><path class="cls-14" d="m1449.66,1826.03c1.76-.67,2.06-1.09,2.06-3.78v-.34h-1.34v-5.08h3.36v5.08c0,3.95-.88,5.29-3.4,5.97l-.67-1.85Zm5.92,0c1.76-.67,2.06-1.09,2.06-3.78v-.34h-1.34v-5.08h3.36v5.08c0,3.95-.88,5.29-3.4,5.97l-.67-1.85Z"/><path class="cls-14" d="m916.41,2638.74h-13.99l-3.74,10.33h-3.07l12.18-32.77h3.32l12.1,32.77h-3.07l-3.74-10.33Zm-.92-2.6l-6.05-16.8h-.04l-6.05,16.8h12.14Z"/><path class="cls-14" d="m925.52,2642.65v-1.18h2.94v1.13c0,2.86,2.14,4.49,5.96,4.49s5.8-1.01,5.8-3.78c0-2.06-1.01-2.81-3.86-3.32l-4.62-.84c-3.02-.55-5.54-2.02-5.54-5.5,0-3.15,2.35-6.13,8.4-6.13s8.4,3.02,8.4,7.23v.88h-2.98v-.76c0-3.44-2.14-4.91-5.42-4.91-3.95,0-5.33,1.34-5.33,3.36s1.01,2.86,3.91,3.4l4.03.76c4.12.76,6.09,1.93,6.09,5.59,0,4.58-4.12,6.55-8.78,6.55-7.31,0-8.99-3.28-8.99-6.97Z"/><path class="cls-14" d="m947.49,2638.74c0-6.38,3.23-11.22,10-11.22s8.95,3.91,8.95,8.95v.42h-3.11v-.63c0-3.82-1.64-6.09-5.84-6.09-4.75,0-7.02,3.11-7.02,8.4,0,5.63,2.39,8.49,6.93,8.49,3.82,0,5.84-1.85,5.92-5.67h3.02c-.08,4.66-3.15,8.23-9.03,8.23-7.22,0-9.83-4.75-9.83-10.88Z"/><path class="cls-14" d="m989.58,2639.58h-15.96c.17,4.79,2.48,7.48,6.93,7.48,3.82,0,5.67-1.43,5.97-4.83h2.98c-.29,4.24-3.28,7.39-9.03,7.39-7.06,0-9.83-4.66-9.83-10.88s3.23-11.22,10-11.22,8.95,3.99,8.95,10.21v1.85Zm-3.11-2.98c0-4.45-1.72-6.55-5.92-6.55s-6.55,2.65-6.89,6.97h12.81v-.42Z"/><path class="cls-14" d="m995.45,2628.07h2.6l.29,3.49c1.01-2.14,3.28-4.03,7.35-4.03,4.75,0,7.77,2.52,7.77,7.94v13.61h-2.94v-13.27c0-4.33-2.14-5.71-5.5-5.71-3.82,0-6.64,2.69-6.64,5.63v13.36h-2.94v-21Z"/><path class="cls-14" d="m1019.14,2638.62c0-7.1,4.28-11.09,10.04-11.09,3.7,0,6.22,1.6,7.31,3.74h.04v-14.96h2.94v32.77h-1.97l-.67-3.61h-.08c-1.18,2.31-3.95,4.16-7.77,4.16-6.3,0-9.83-3.99-9.83-11.01Zm17.64-.5c0-5.5-3.36-8.07-7.35-8.07-3.11,0-7.14,1.47-7.14,8.4s3.61,8.61,7.14,8.61c4.24,0,7.35-2.73,7.35-8.95Z"/><path class="cls-14" d="m1064.09,2639.58h-15.96c.17,4.79,2.48,7.48,6.93,7.48,3.82,0,5.67-1.43,5.97-4.83h2.98c-.29,4.24-3.28,7.39-9.03,7.39-7.06,0-9.83-4.66-9.83-10.88s3.23-11.22,10-11.22,8.95,3.99,8.95,10.21v1.85Zm-3.11-2.98c0-4.45-1.72-6.55-5.92-6.55s-6.55,2.65-6.89,6.97h12.81v-.42Z"/><path class="cls-14" d="m1069.96,2628.07h2.6l.29,3.91c1.01-2.14,3.07-4.45,6.76-4.45,1.26,0,2.18.21,3.02.55v3.15c-1.13-.5-2.1-.76-3.4-.76-3.74,0-6.34,2.81-6.34,5.75v12.85h-2.94v-21Z"/><path class="cls-14" d="m1096.93,2616.31h2.94v32.77h-2.94v-32.77Z"/><path class="cls-14" d="m1105.54,2638.58c0-6.22,3.32-11.05,10.38-11.05,6.59,0,10.25,4.83,10.25,11.05s-3.7,11.05-10.29,11.05c-7.27,0-10.33-4.83-10.33-11.05Zm17.56,0c0-5.33-2.9-8.49-7.22-8.49-4.75,0-7.27,3.15-7.27,8.49s2.56,8.49,7.27,8.49c4.33,0,7.22-3.15,7.22-8.49Z"/><path class="cls-14" d="m1130.36,2638.58c0-6.22,3.32-11.05,10.38-11.05,6.59,0,10.25,4.83,10.25,11.05s-3.7,11.05-10.29,11.05c-7.27,0-10.33-4.83-10.33-11.05Zm17.56,0c0-5.33-2.9-8.49-7.22-8.49-4.75,0-7.27,3.15-7.27,8.49s2.56,8.49,7.27,8.49c4.33,0,7.22-3.15,7.22-8.49Z"/><path class="cls-14" d="m1156.86,2628.07h2.39l.34,3.87h.08c1.13-2.48,4.03-4.41,7.86-4.41,6.3,0,9.66,3.99,9.66,11.01s-4.29,11.09-9.87,11.09c-3.78,0-6.38-1.6-7.43-3.7h-.08v11.55h-2.94v-29.41Zm17.18,10.63c0-7.18-3.4-8.61-6.93-8.61-4.24,0-7.56,2.73-7.56,8.44,0,6.01,3.45,8.57,7.44,8.57,3.02,0,7.06-1.47,7.06-8.4Z"/><path class="cls-14" d="m1192.73,2616.31h2.98v6.51h-2.98v-6.51Zm0,11.76h2.94v21h-2.94v-21Z"/><path class="cls-14" d="m1203.06,2628.07h2.6l.29,3.49c1.01-2.14,3.28-4.03,7.35-4.03,4.75,0,7.77,2.52,7.77,7.94v13.61h-2.94v-13.27c0-4.33-2.14-5.71-5.5-5.71-3.82,0-6.64,2.69-6.64,5.63v13.36h-2.94v-21Z"/><path class="cls-14" d="m1239.77,2626.77h-3.36v-5.08c0-3.95.88-5.29,3.4-5.96l.67,1.85c-1.76.67-2.06,1.09-2.06,3.78v.34h1.34v5.08Zm5.92,0h-3.36v-5.08c0-3.95.88-5.29,3.4-5.96l.67,1.85c-1.76.67-2.06,1.09-2.06,3.78v.34h1.34v5.08Z"/><path class="cls-14" d="m1248.72,2638.62c0-7.1,4.28-11.09,10.04-11.09,3.7,0,6.22,1.6,7.31,3.74h.04v-14.96h2.94v32.77h-1.97l-.67-3.61h-.08c-1.18,2.31-3.95,4.16-7.77,4.16-6.3,0-9.83-3.99-9.83-11.01Zm17.64-.5c0-5.5-3.36-8.07-7.35-8.07-3.11,0-7.14,1.47-7.14,8.4s3.61,8.61,7.14,8.61c4.24,0,7.35-2.73,7.35-8.95Z"/><path class="cls-14" d="m1274.5,2625.51c1.76-.67,2.06-1.09,2.06-3.78v-.34h-1.34v-5.08h3.36v5.08c0,3.95-.88,5.29-3.4,5.97l-.67-1.85Zm5.92,0c1.76-.67,2.06-1.09,2.06-3.78v-.34h-1.34v-5.08h3.36v5.08c0,3.95-.88,5.29-3.4,5.97l-.67-1.85Z"/><path class="cls-14" d="m1478.05,2710.9h3.23l11.51,20.92h.08l11.51-20.92h3.24v32.77h-2.94v-27.85h-.04l-10.75,19.91h-2.06l-10.8-19.91h-.04v27.85h-2.94v-32.77Z"/><path class="cls-14" d="m1514.55,2733.16c0-6.22,3.32-11.05,10.38-11.05,6.6,0,10.25,4.83,10.25,11.05s-3.7,11.05-10.29,11.05c-7.27,0-10.33-4.83-10.33-11.05Zm17.56,0c0-5.33-2.9-8.49-7.22-8.49-4.75,0-7.27,3.15-7.27,8.49s2.56,8.49,7.27,8.49c4.33,0,7.22-3.15,7.22-8.49Z"/><path class="cls-14" d="m1539.37,2733.2c0-7.1,4.28-11.09,10.04-11.09,3.7,0,6.22,1.6,7.31,3.74h.04v-14.95h2.94v32.77h-1.97l-.67-3.61h-.08c-1.18,2.31-3.95,4.16-7.77,4.16-6.3,0-9.83-3.99-9.83-11.01Zm17.64-.5c0-5.5-3.36-8.07-7.35-8.07-3.11,0-7.14,1.47-7.14,8.4s3.61,8.61,7.14,8.61c4.24,0,7.35-2.73,7.35-8.95Z"/><path class="cls-14" d="m1584.31,2734.17h-15.96c.17,4.79,2.48,7.48,6.93,7.48,3.82,0,5.67-1.43,5.96-4.83h2.98c-.29,4.24-3.28,7.39-9.03,7.39-7.06,0-9.83-4.66-9.83-10.88s3.23-11.22,10-11.22,8.95,3.99,8.95,10.21v1.85Zm-3.11-2.98c0-4.45-1.72-6.55-5.92-6.55s-6.55,2.65-6.89,6.97h12.81v-.42Z"/><path class="cls-14" d="m1590.19,2722.66h2.6l.29,3.91c1.01-2.14,3.07-4.45,6.76-4.45,1.26,0,2.18.21,3.02.55v3.15c-1.13-.5-2.1-.76-3.4-.76-3.74,0-6.34,2.81-6.34,5.75v12.85h-2.94v-21Z"/><path class="cls-14" d="m1605.81,2737.87c0-3.95,2.23-6.09,7.86-6.09h6.34v-1.72c0-2.98-1.26-5.42-5.46-5.42-3.95,0-5.34,1.51-5.34,4.12v.88h-2.98v-.84c0-5,4.2-6.68,8.32-6.68,5.8,0,8.4,2.86,8.4,8.44v13.11h-2.06l-.55-2.98h-.08c-1.26,1.89-3.7,3.53-7.35,3.53-4.92,0-7.1-2.31-7.1-6.34Zm14.2-1.85v-1.76h-7.02c-2.65,0-4.03.92-4.03,3.61,0,2.35,1.26,3.86,4.5,3.86,4.16,0,6.55-2.14,6.55-5.71Z"/><path class="cls-14" d="m1641.05,2740.97v2.6c-.76.21-2.14.59-4.03.59-3.82,0-6.34-1.6-6.34-6.89v-12.18h-4.16v-2.44h4.16v-6.05l2.94-1.43v7.48h5.92v2.44h-5.92v11.8c0,2.81.76,4.58,3.4,4.58,1.6,0,3.23-.29,4.03-.5Z"/><path class="cls-14" d="m1662.52,2734.17h-15.96c.17,4.79,2.48,7.48,6.93,7.48,3.82,0,5.67-1.43,5.96-4.83h2.98c-.29,4.24-3.28,7.39-9.03,7.39-7.06,0-9.83-4.66-9.83-10.88s3.23-11.22,10-11.22,8.95,3.99,8.95,10.21v1.85Zm-3.11-2.98c0-4.45-1.72-6.55-5.92-6.55s-6.55,2.65-6.89,6.97h12.81v-.42Z"/><path class="cls-14" d="m1676.16,2737.24v-1.18h2.94v1.13c0,2.86,2.14,4.5,5.96,4.5s5.8-1.01,5.8-3.78c0-2.06-1.01-2.81-3.87-3.32l-4.62-.84c-3.02-.55-5.54-2.02-5.54-5.5,0-3.15,2.35-6.13,8.4-6.13s8.4,3.02,8.4,7.22v.88h-2.98v-.76c0-3.44-2.14-4.91-5.42-4.91-3.95,0-5.33,1.34-5.33,3.36s1.01,2.86,3.91,3.4l4.03.76c4.12.76,6.09,1.93,6.09,5.59,0,4.58-4.12,6.55-8.78,6.55-7.31,0-8.99-3.28-8.99-6.97Z"/><path class="cls-14" d="m1699.81,2710.9h2.94v32.77h-2.94v-32.77Z"/><path class="cls-14" d="m1708.84,2737.87c0-3.95,2.23-6.09,7.86-6.09h6.34v-1.72c0-2.98-1.26-5.42-5.46-5.42-3.95,0-5.33,1.51-5.33,4.12v.88h-2.98v-.84c0-5,4.2-6.68,8.32-6.68,5.8,0,8.4,2.86,8.4,8.44v13.11h-2.06l-.55-2.98h-.08c-1.26,1.89-3.7,3.53-7.35,3.53-4.91,0-7.1-2.31-7.1-6.34Zm14.2-1.85v-1.76h-7.02c-2.65,0-4.03.92-4.03,3.61,0,2.35,1.26,3.86,4.5,3.86,4.16,0,6.55-2.14,6.55-5.71Z"/><path class="cls-14" d="m1733.32,2722.66h2.6l.29,3.49c1.01-2.14,3.28-4.03,7.35-4.03,4.75,0,7.77,2.52,7.77,7.94v13.61h-2.94v-13.27c0-4.33-2.14-5.71-5.5-5.71-3.82,0-6.64,2.69-6.64,5.63v13.36h-2.94v-21Z"/><path class="cls-14" d="m1769.66,2740.97v2.6c-.76.21-2.14.59-4.03.59-3.82,0-6.34-1.6-6.34-6.89v-12.18h-4.16v-2.44h4.16v-6.05l2.94-1.43v7.48h5.92v2.44h-5.92v11.8c0,2.81.76,4.58,3.4,4.58,1.6,0,3.23-.29,4.03-.5Z"/><circle class="cls-17" cx="1611.22" cy="1251.4" r="73.56"/><path class="cls-17" d="m348.85,1352.3c0-12.1,2.9-26.62,8.23-42.59-45.97,62.43-89.53,94.85-131.63,94.85s-71.14-33.39-71.14-84.69c0-139.86,168.89-259.87,295.68-259.87,13.07,0,23.23,1.45,36.78,3.87-11.13,26.62-56.62,128.73-71.14,160.67-24.68,53.72-45.49,98.72-45.49,127.76,0,23.71,11.62,33.39,39.68,33.39,19.84,0,34.84-4.84,51.78-11.61,12.58-4.84,21.29,15,7.74,20.33-17.91,6.77-36.29,12.58-59.52,12.58h-.97c-39.2-.48-60.01-19.36-60.01-54.68Zm107.43-271h-6.29c-120.02,0-274.39,109.37-274.39,238.58,0,39.68,18.87,63.4,49.85,63.4,65.33,0,145.18-105.98,230.84-301.97Z"/><path class="cls-14" d="m554.03,1399.73c0-1.45.48-3.39.97-4.84,33.39-74.53,45.97-109.85,45.97-135.99,0-11.61-2.9-15.49-9.68-15.49-12.1,0-20.33,11.61-38.71,54.2-15.49,35.33-38.71,79.36-83.24,96.79-17.91,6.77-36.78,12.58-60.01,12.58-14.52,0-13.07-21.29,0-21.29,20.32,0,35.33-4.84,52.26-11.61l.97-.48c36.78-14.03,56.62-50.81,71.14-86.14,13.06-32.42,30-65.33,57.59-65.33,20.32,0,30.97,14.03,30.97,36.78,0,5.81-.48,12.1-1.94,19.36,22.74-31.46,42.1-48.39,62.91-57.59,1.94-.97,3.87-1.45,5.81-1.45,6.29,0,10.16,5.81,10.16,11.13,0,2.9-.97,5.32-4.36,8.23-5.81,5.32-8.23,10.65-8.23,15.49,0,10.65,11.62,15.49,49.36,15.49,30.49,0,64.85-9.68,105.98-28.07,1.45-.97,3.39-.97,4.84-.97,5.81,0,11.13,3.87,11.13,10.16-.48,4.35-2.9,8.23-6.29,9.68-44.52,18.87-81.79,30.49-115.66,30.49-45.97,0-70.65-10.65-70.65-32.42v-2.42c-26.62,25.16-50.33,64.85-90.98,147.6-1.94,3.87-5.32,6.29-9.68,6.29-5.81,0-10.65-4.35-10.65-10.16Z"/><path class="cls-14" d="m810.03,1535.23c0-33.39,14.52-75.98,47.91-165.99-18.88,22.74-36.78,34.36-54.69,34.36-29.04,0-45.97-17.91-45.97-48.39,0-72.11,99.21-146.63,177.6-129.69-14.52,37.26-27.1,70.17-38.23,99.69l-18.39,49.36.48-.48c9.68,7.74,31.94,11.61,71.14,11.61,20.32,0,35.33-4.84,52.26-11.61,12.58-4.84,21.29,15,7.74,20.33-17.91,6.77-36.78,12.58-60.01,12.58-24.68,0-43.55-1.45-58.07-4.84,5.32,18.39,8.71,40.65,8.71,63.4,0,52.75-27.58,105.5-57.59,105.5-19.84,0-32.91-14.52-32.91-35.81Zm94.37-290.36c-60.01,4.35-125.82,59.52-125.82,110.34,0,18.87,7.74,27.1,24.68,27.1,25.65,0,62.43-48.88,101.14-137.44Zm-25.16,220.67c0-24.68-3.87-47.91-10.65-65.33-26.62,73.07-37.26,107.92-37.26,135.02,0,9.68,3.87,14.52,11.62,14.52,15,0,36.29-45.49,36.29-84.2Z"/><path class="cls-14" d="m1053.44,1369.24v-2.42c-13.07,12.58-28.07,21.78-43.55,27.58-17.9,6.77-36.78,12.58-60.01,12.58-14.52,0-13.07-21.29,0-21.29,20.33,0,35.33-4.36,52.75-11.61,24.68-10.16,49.84-30.49,64.36-63.4,9.68-21.78,20.33-48.39,34.36-79.36,1.45-3.87,5.32-6.29,9.68-6.29,7.26,0,13.55,6.77,9.68,15-28.55,62.91-45.97,102.11-45.97,129.21,0,10.16,7.74,17.91,17.42,17.91,32.91,0,57.1-35.33,77.91-84.2l30.49-71.62c1.94-3.87,5.32-6.29,9.68-6.29,7.26,0,14.52,3.87,9.68,15l-27.1,63.4c-10.16,23.23-16.46,43.07-16.46,58.07,0,16.94,9.2,24.2,34.84,24.2,20.32,0,35.33-4.84,52.26-11.61,1.45-.48,2.9-.97,4.36-.97,10.16,0,15.97,16.45,3.87,21.29-17.91,6.77-36.78,12.58-60.49,12.58-32.91,0-51.78-12.58-55.65-36.78-17.42,23.23-37.75,38.23-63.39,38.23-21.29,0-38.71-17.42-38.71-39.2Z"/><path class="cls-14" d="m1211.69,1385.7c20.33,0,35.33-4.84,52.27-11.61l.97-.48c18.39-6.77,35.33-15,51.3-23.71-1.45-7.74-2.42-15.97-2.42-25.16,0-46.94,41.13-102.59,76.46-102.59,24.68,0,37.75,11.61,37.75,33.88,0,40.65-43.55,77.43-86.14,103.08,10.16,18.39,30.49,26.62,64.36,26.62,20.33,0,35.33-4.84,52.27-11.61,12.58-4.84,21.29,15,7.74,20.33-17.9,6.77-36.78,12.58-60.01,12.58-41.62,0-69.2-12.1-82.75-37.26-21.29,12.1-40.65,20.33-51.78,24.68-17.9,6.77-36.78,12.58-60.01,12.58-14.52,0-13.07-21.29,0-21.29Zm195.03-129.69c0-9.68-3.39-12.58-16.45-12.58-22.75,0-55.17,46.46-55.17,81.3,0,4.84.48,9.68.97,14.03,42.59-27.1,70.65-57.59,70.65-82.75Z"/><path class="cls-14" d="m1532.05,1352.79c-18.87,17.42-42.1,32.91-65.81,41.62-17.9,6.77-36.78,12.58-60.01,12.58-14.52,0-13.07-21.29,0-21.29,20.33,0,35.33-4.84,52.27-11.61l.97-.48c29.52-10.65,57.11-31.94,74.53-54.68,9.2-47.43,45.01-96.79,93.4-96.79,32.42,0,51.3,23.71,52.26,64.85,60.49-4.84,116.63-26.13,154.86-45.49,6.78-3.39,15.49.97,15.49,9.19,0,4.35-2.42,7.74-5.81,9.68-40.17,20.32-100.66,43.07-165.99,47.91-6.78,52.26-44.52,101.63-91.95,101.63-27.1,0-50.33-18.87-54.2-57.1Zm124.37-43.55h-2.42c-29.52,0-69.69-7.74-73.56-40.17-16.46,20.33-27.58,48.88-27.58,73.07,0,31.46,15,45.49,33.88,45.49,34.36,0,62.91-39.2,69.69-78.4Zm-29.04-65.81c-16.94,0-25.65,9.19-25.65,18.39,0,22.74,36.78,26.13,52.26,26.13h4.36c-.48-30.49-11.13-44.52-30.97-44.52Z"/><g class="cls-13"><path class="cls-16" d="m810.3,1534.95c0-33.32,14.49-75.81,47.81-165.63-18.83,22.7-36.7,34.29-54.57,34.29-28.01,0-44.91-16.9-45.88-45.88-16.42,15.94-36.22,28.49-56.02,36.7-17.87,7.24-36.7,12.56-59.88,12.56-14.49,0-13.04-21.25,0-21.25,20.28,0,35.25-4.83,52.15-11.59l.96-.48c30.42-11.59,57.95-33.32,74.37-62.29,30.9-54.57,103.34-98.99,165.63-85.47-14.49,37.18-27.04,70.02-38.15,99.48l-18.35,49.26.48-.48c9.66,7.73,31.87,11.59,70.99,11.59,20.28,0,35.25-4.83,52.15-11.59,12.56-4.83,21.25,14.97,7.73,20.28-17.87,6.76-36.7,12.56-59.88,12.56-24.63,0-43.46-1.45-57.95-4.83,5.31,18.35,8.69,40.56,8.69,63.26,0,52.64-27.52,105.27-57.46,105.27-19.8,0-32.84-14.49-32.84-35.73Zm94.16-289.74c-59.88,4.35-125.55,59.4-125.55,110.1,0,18.83,7.73,27.04,24.63,27.04,25.59,0,62.29-48.77,100.92-137.14Zm-25.11,220.2c0-24.63-3.86-47.81-10.62-65.19-26.56,72.92-37.18,107.69-37.18,134.73,0,9.66,3.86,14.49,11.59,14.49,14.97,0,36.22-45.39,36.22-84.02Z"/></g><path class="cls-15" d="m171.27,2247.01c0-43.81,63.45-96.69,114.82-96.69,37.27,0,55.4,21.15,68.49,43.81,44.82-49.35,76.04-117.34,76.04-182.3,0-42.81-18.13-64.96-53.38-64.96-49.86,0-100.72,41.29-129.43,105.76-2.01,4.03-5.54,6.55-10.07,6.55-8.06,0-14.1-7.55-10.07-16.12,32.73-72.01,90.65-118.35,149.57-118.35,47.34,0,75.54,33.24,75.54,87.12,0,65.97-34.24,145.04-86.62,201.94,14.6,25.18,29.71,45.83,70.5,45.83,21.15,0,36.76-5.04,54.39-12.09,13.09-5.04,22.16,15.61,8.06,21.15-18.63,7.05-38.27,13.09-62.45,13.09-49.35,0-71.01-26.19-86.62-51.87-37.77,35.25-84.1,58.92-132.45,58.92-25.18,0-46.33-19.14-46.33-41.8Zm167.7-36.76c-13.09-22.16-24.68-37.77-52.88-37.77-39.28,0-92.66,43.81-92.66,74.53,0,10.07,11.58,19.64,24.17,19.64,41.8,0,85.11-22.16,121.37-56.4Z"/><path class="cls-14" d="m544.44,2242.48v-2.52c-13.6,13.09-29.21,22.66-45.32,28.71-18.63,7.05-38.27,13.09-62.45,13.09-15.11,0-13.6-22.16,0-22.16,21.15,0,36.76-4.53,54.89-12.09,25.68-10.58,51.87-31.73,66.98-65.97,10.07-22.66,21.15-50.36,35.76-82.59,1.51-4.03,5.54-6.55,10.07-6.55,7.55,0,14.1,7.05,10.07,15.61-29.71,65.47-47.84,106.26-47.84,134.46,0,10.58,8.06,18.63,18.13,18.63,34.25,0,59.42-36.76,81.08-87.63l31.73-74.53c2.01-4.03,5.54-6.55,10.07-6.55,7.55,0,15.11,4.03,10.07,15.61l-28.2,65.97c-10.58,24.17-17.12,44.82-17.12,60.43,0,17.63,9.57,25.18,36.26,25.18,21.15,0,36.76-5.04,54.39-12.09,1.51-.5,3.02-1.01,4.53-1.01,10.58,0,16.62,17.12,4.03,22.16-18.63,7.05-38.27,13.09-62.95,13.09-34.25,0-53.89-13.09-57.91-38.27-18.13,24.17-39.28,39.78-65.97,39.78-22.16,0-40.29-18.13-40.29-40.79Z"/><path class="cls-14" d="m709.12,2259.6c21.15,0,36.76-5.04,54.39-12.09h.5c40.29-16.12,62.45-38.78,81.58-91.15,5.54-15.11,12.09-34.25,18.63-55.9,1.51-4.53,5.54-8.06,10.58-8.06,9.06,0,12.09,10.07,10.58,14.6l-19.64,57.91c-12.59,36.76-15.11,47.34-15.11,58.92,0,22.66,17.12,35.76,48.35,35.76,21.15,0,36.76-5.04,54.39-12.09,13.09-5.04,22.16,15.61,8.06,21.15-18.63,7.05-38.27,13.09-62.45,13.09-40.79,0-67.48-19.64-70-51.37-15.61,16.62-33.74,29.21-57.41,38.27-18.63,7.05-38.27,13.09-62.45,13.09-15.11,0-13.6-22.16,0-22.16Zm171.73-224.61c0-9.06,8.06-24.17,20.65-24.17,7.05,0,9.57,4.03,9.57,9.06,0,9.07-8.06,24.17-20.65,24.17-7.05,0-9.57-4.03-9.57-9.06Z"/><path class="cls-14" d="m1026.9,2407.66c0-58.42,55.9-121.37,117.84-141.51-7.55-8.56-20.14-14.1-37.27-16.62-12.09,7.55-25.18,14.6-39.28,20.65-8.06,3.53-15.61-1.51-15.61-9.57,0-4.53,2.52-8.56,6.55-10.58,63.45-32.73,113.81-79.57,113.81-109.79,0-18.63-8.56-28.71-24.17-28.71-28.2,0-47.34,24.17-73.02,57.91-26.19,34.75-58.92,78.06-114.32,99.21-18.63,7.05-38.27,13.09-62.45,13.09-15.11,0-13.6-22.16,0-22.16,21.15,0,36.76-5.04,54.39-12.09h.5c48.85-19.64,78.06-56.91,104.75-91.66,25.68-33.74,50.86-66.48,90.14-66.48,28.2,0,46.33,20.14,46.33,50.86,0,27.19-24.68,62.95-63.45,92.66,16.12,6.04,28.71,15.11,36.26,27.7,5.54-1.01,10.58-1.01,16.12-1.01h13.6c21.15,0,36.76-5.04,54.39-12.09,13.09-5.04,22.16,15.61,8.06,21.15-18.63,7.05-38.27,13.6-62.45,13.6h-21.15c1.01,5.54,1.51,11.08,1.51,17.63,0,69.5-58.42,149.57-111.3,149.57-24.68,0-39.79-15.61-39.79-41.8Zm128.92-107.77c0-5.04-.5-9.57-1.01-13.6-53.88,16.12-105.76,72.52-105.76,121.37,0,13.6,5.54,19.64,17.63,19.64,39.78,0,89.14-70.5,89.14-127.41Z"/><path class="cls-14" d="m1317.98,2231.91c-16.62,15.61-36.76,28.2-57.91,36.76-18.63,7.05-38.27,13.09-62.45,13.09-15.11,0-13.6-22.16,0-22.16,21.15,0,36.76-5.04,54.39-12.09l1.01-.5c34.25-13.09,61.94-38.27,79.57-69.5,35.76-59.93,126.4-99.71,170.22-84.61-13.6,34.75-25.18,59.93-43.81,97.2-9.07,17.63-13.6,32.23-13.6,42.3,0,18.13,10.58,27.2,31.73,27.2s36.76-5.04,54.39-12.09c13.09-5.54,22.16,15.61,8.06,21.15-18.63,7.05-38.27,13.09-62.45,13.09-28.71,0-47.84-13.6-52.88-37.27-20.14,25.68-39.28,38.78-58.42,38.78-29.71,0-46.33-18.63-47.84-51.37Zm122.38-53.89c13.6-26.19,22.16-45.32,30.72-65.97-60.43,5.04-130.94,64.46-130.94,115.83,0,23.17,8.06,33.24,25.68,33.24,19.64,0,46.33-28.71,74.53-83.09Zm-2.52-131.44c0-3.53,1.51-6.55,4.03-8.56,29.21-23.17,50.36-42.81,68.49-63.96,2.01-2.01,5.04-3.53,8.56-3.53,6.04,0,11.08,5.04,11.08,11.08,0,3.02-1.01,5.54-2.52,7.55-19.14,21.65-41.29,41.8-71.51,65.97-2.01,1.51-4.53,2.52-7.05,2.52-6.04,0-11.08-5.04-11.08-11.08Z"/><path class="cls-14" d="m1783.31,2258.6c0,4.03-2.01,8.06-7.05,10.07-17.12,7.05-36.26,13.6-68.99,13.6-51.37,0-91.15-6.55-110.79-25.18-2.01-2.01-3.02-4.03-3.02-6.55,0-6.04,6.04-12.09,12.59-12.09,2.01,0,4.03.5,5.54,2.01,10.07,9.57,29.71,15.61,43.31,15.61,27.7,0,32.23-24.68,32.23-55.9,0-21.15-3.02-37.27-3.53-54.89-42.3,56.91-90.14,100.72-144.03,123.38-18.13,7.05-38.27,13.09-62.45,13.09-7.55,0-10.58-5.04-10.58-10.58s3.53-11.58,10.58-11.58c21.15,0,36.76-5.04,54.39-12.09,52.88-21.15,111.3-77.05,156.62-149.57,2.52-4.03,6.04-5.54,10.07-5.54,10.07,0,14.1,8.06,11.08,13.6-2.01,3.53-2.52,11.08-2.52,20.65,0,25.18,4.03,64.96,4.03,81.08,0,21.65-2.01,39.78-15.11,51.37,6.55.5,13.6.5,18.13.5,21.15,0,36.76-5.04,54.39-12.09,1.51-.5,3.53-1.01,4.53-1.01,7.05,0,10.58,6.55,10.58,12.09Z"/><path class="cls-17" d="m188.41,483.38c-31.34,23.27-65.53,42.74-100.19,54.13-5.22,1.9-13.77-2.37-13.77-9.97,0-4.75,3.32-8.55,7.12-9.97,36.56-12.35,72.18-33.24,104.47-57.93,0-8.07.95-15.67,3.32-24.69,1.42-5.22,3.8-8.07,6.65-8.07,1.42,0,3.32.95,4.75,3.32l8.07,10.45c33.71-28.97,63.16-61.73,86.9-92.6-.48-3.8-.48-7.12-.48-10.92,0-63.16,28.97-131.53,58.88-131.53,14.25,0,22.79,9.97,22.79,25.17,0,23.74-22.32,70.75-59.83,121.56,2.85,15.2,9.97,22.79,20.89,22.79,29.92,0,79.78-41.31,90.22-97.82.95-5.7,5.22-8.07,9.97-8.07,4.27,0,10.45,3.32,10.45,9.97,0,1.42,0,2.85-.47,4.27-26.12,91.65-41.79,189.47-102.57,234.1,8.07.95,16.14,1.42,24.22,1.42h.48c19.94,0,34.66-4.75,51.28-11.4,12.35-4.75,20.89,14.72,7.6,19.94-17.57,6.65-36.09,12.35-58.88,12.35h-.48c-19.47,0-37.51-1.9-54.61-5.7-15.2,5.7-32.77,8.55-52.71,8.55-37.99,0-66-24.69-74.08-59.36Zm88.8,38.46c-26.12-11.87-49.86-29.44-70.75-52.23,3.8,31.34,25.17,52.71,56.51,52.71,5.22,0,9.97,0,14.25-.47Zm128.69-164.3c-21.37,23.27-46.06,38.46-67.9,38.46-16.62,0-28.97-8.55-36.09-23.74-22.79,28.97-49.86,57.93-79.78,84.05,25.64,26.59,56.51,46.06,92.6,55.56,50.33-23.27,71.23-82.62,91.17-154.33Zm-49.86-126.79c0-2.85-.47-4.75-2.37-4.75-12.35,0-31.34,48.44-36.09,91.17,24.22-37.04,38.46-69.33,38.46-86.42Z"/><path class="cls-14" d="m483.77,492.88c-15.67,14.72-34.67,26.59-54.61,34.66-17.57,6.65-36.09,12.35-58.88,12.35-14.25,0-12.82-20.89,0-20.89,19.94,0,34.66-4.75,51.28-11.4l.95-.48c32.29-12.35,57.93-36.56,75.03-65.53,33.24-56.51,119.19-94.02,160.5-79.78-12.82,32.76-23.74,56.51-41.31,91.65-8.55,16.62-12.82,30.39-12.82,39.89,0,17.09,9.97,25.64,29.92,25.64s34.67-4.75,51.29-11.4c12.35-5.22,20.89,14.72,7.6,19.94-17.57,6.65-36.09,12.35-58.88,12.35-27.07,0-45.11-12.82-49.86-35.14-18.99,24.22-37.04,36.56-55.08,36.56-28.02,0-43.69-17.57-45.11-48.43Zm115.39-50.81c12.35-24.69,20.89-42.74,28.97-62.21-56.98,4.75-123.46,60.78-123.46,109.22,0,21.84,7.6,31.34,24.22,31.34,18.52,0,44.64-27.07,70.28-78.35Z"/><path class="cls-14" d="m785.78,532.29c0-1.42.47-2.85.95-4.27,44.16-96.87,51.28-112.54,51.28-131.06,0-13.3-3.32-17.57-11.4-17.57-13.77,0-24.22,11.4-47.49,53.18-18.99,34.66-42.74,77.88-86.42,94.97-17.57,6.65-36.09,12.35-58.88,12.35-14.25,0-12.82-20.89,0-20.89,19.94,0,34.66-4.75,51.28-11.4l.95-.48c36.09-13.77,56.03-50.33,74.55-84.52,17.09-31.34,35.61-64.11,66-64.11,19.94,0,31.82,13.77,32.29,36.56,17.57-24.22,36.09-34.66,56.98-34.66s34.19,12.35,35.61,35.61c19.47-25.17,37.99-35.61,59.36-35.61,23.27,0,35.61,14.25,35.61,40.36,0,11.4-7.6,27.07-15.67,42.26-10.45,19.47-20.42,40.36-20.42,57.46,0,11.87,7.6,18.52,21.84,18.52h.95c19.94,0,34.66-4.75,51.28-11.4,12.35-4.75,20.89,14.72,7.6,19.94-17.57,6.65-36.09,12.35-58.88,12.35h-.95c-25.64,0-42.74-15.67-42.74-39.41,0-22.32,12.35-47.49,22.79-66.95,10.92-20.42,13.3-28.02,13.3-32.77,0-15.2-3.8-19.47-14.72-19.47-26.12,0-51.76,27.07-85.95,104.47l-22.32,50.33c-1.42,3.8-5.22,6.65-9.5,6.65-7.12,0-13.77-5.7-9.97-14.25l26.12-58.88c15.67-35.14,21.84-56.98,21.84-68.85,0-15.2-4.27-19.47-15.2-19.47-18.99,0-37.51,14.25-59.36,51.28-16.62,28.02-37.04,72.18-50.81,103.99-1.42,3.8-5.22,6.17-9.5,6.17-6.17,0-10.45-4.75-10.45-10.45Z"/><path class="cls-14" d="m1168.03,502.37c0-9.5,1.9-19.94,4.75-30.39-28.02,26.12-56.51,46.54-80.72,55.56-17.57,6.65-36.09,12.35-58.88,12.35-14.25,0-12.82-20.89,0-20.89,19.94,0,34.66-4.75,51.28-11.4l.95-.48c29.92-10.92,66.95-41.79,101.14-78.83l42.74-142.93c17.09-56.51,31.82-79.78,55.56-79.78,17.57,0,30.39,16.62,30.39,37.04,0,31.34-21.37,77.4-52.71,123.94,7.12-2.85,13.77-4.27,20.42-4.27,9.97,0,18.04,3.32,24.22,9.02,16.62,14.72,47.49,24.22,77.4,24.22s70.28-8.07,89.75-18.04c6.65-3.32,15.2.95,15.2,9.02,0,4.27-2.37,7.6-5.7,9.5-22.32,11.4-66.48,20.42-99.24,20.42-22.79,0-45.59-4.75-65.06-13.3l.48,8.07c0,65.53-52.71,135.33-104.47,135.33-28.02,0-47.49-18.04-47.49-44.16Zm131.06-91.17c0-19.47-5.7-28.02-16.15-28.02-37.51,0-94.02,71.7-94.02,119.19,0,14.25,9.97,23.27,26.59,23.27,39.41,0,83.57-60.31,83.57-114.44Zm-4.75-168.57c0-9.5-4.27-16.15-9.5-16.15-10.45,0-20.89,18.52-35.61,65.06l-30.39,98.77c42.74-53.66,75.5-113.02,75.5-147.68Z"/><path class="cls-14" d="m1392.16,489.08c0-73.13,93.07-143.88,174.75-128.21-10.92,28.02-31.82,72.65-42.74,94.5-8.07,15.67-11.87,28.97-11.87,37.99,0,17.09,9.97,25.64,29.92,25.64s34.66-4.75,51.28-11.4c12.35-4.75,20.89,14.72,7.6,19.94-17.57,6.65-36.09,12.35-58.88,12.35-27.07,0-45.11-12.82-49.86-35.14-18.99,24.22-37.51,36.56-55.08,36.56-28.97,0-45.11-18.99-45.11-52.23Zm115.39-47.01c13.3-24.69,20.89-42.74,28.97-62.21-60.78,3.8-123.46,56.98-123.46,109.22,0,21.84,7.6,31.34,24.22,31.34,18.52,0,43.21-27.54,70.28-78.35Z"/><path class="cls-14" d="m1830.92,518.04c0,3.8-1.9,7.6-6.65,9.5-16.14,6.65-34.19,12.82-65.05,12.82-48.44,0-85.95-6.17-104.47-23.74-1.9-1.9-2.85-3.8-2.85-6.17,0-5.7,5.7-11.4,11.87-11.4,1.9,0,3.8.47,5.22,1.9,9.5,9.02,28.02,14.72,40.84,14.72,26.12,0,30.39-23.27,30.39-52.71,0-19.94-2.85-35.14-3.32-51.76-39.89,53.66-85,94.97-135.81,116.34-17.09,6.65-36.09,12.35-58.88,12.35-7.12,0-9.97-4.75-9.97-9.97s3.32-10.92,9.97-10.92c19.94,0,34.66-4.75,51.28-11.4,49.86-19.94,104.94-72.65,147.68-141.03,2.38-3.8,5.7-5.22,9.5-5.22,9.5,0,13.29,7.6,10.45,12.82-1.9,3.32-2.37,10.45-2.37,19.47,0,23.74,3.8,61.26,3.8,76.45,0,20.42-1.9,37.51-14.25,48.43,6.17.48,12.82.48,17.09.48,19.94,0,34.67-4.75,51.28-11.4,1.42-.48,3.32-.95,4.27-.95,6.65,0,9.97,6.17,9.97,11.4Z"/><path class="cls-17" d="m1298.75,410.97c0-19.31-5.65-27.79-16.02-27.79-37.22,0-93.28,71.14-93.28,118.25,0,14.13,9.89,23.08,26.38,23.08,39.1,0,82.91-59.83,82.91-113.54Z"/><path class="cls-15" d="m922.19,2279.85c14.19-2.33,26.94-6.53,39.24-11.18,55.4-21.15,88.13-64.46,114.32-99.21,25.68-33.74,44.82-57.91,73.02-57.91,6.49,0,11.76,1.75,15.7,5.12,4.61-5.78,9.46-11.37,14.39-16.9-7.76-6.66-18-10.38-30.1-10.38-39.28,0-64.46,32.73-90.14,66.48-26.69,34.75-55.9,72.01-104.75,91.66h-.5c-13.04,5.22-25,9.32-38.9,11.11"/><path class="cls-16" d="m1066.68,2427.3c-12.09,0-17.63-6.04-17.63-19.64,0-48.85,51.87-105.25,105.76-121.37.5,4.03,1.01,8.56,1.01,13.6,0,56.91-49.35,127.41-89.14,127.41Z"/><path class="cls-14" d="m183.97,3111.32c0-3.52,1.51-6.55,4.53-9.57,148.06-134.96,219.57-203.96,219.57-256.33,0-34.75-16.12-53.38-45.32-53.38-44.32,0-79.07,33.74-84.61,84.1-.5,5.54-5.54,9.57-11.58,9.57-7.05,0-11.08-5.54-10.58-12.59,6.55-60.94,50.86-103.24,106.76-103.24,41.8,0,67.48,28.71,67.48,75.54,0,58.42-69.5,128.92-200.94,250.29,17.12-1.51,33.24-2.01,48.35-2.01,47.34,0,82.09,6.04,124.39,6.04,14.1,0,28.2-.5,43.31-2.01,8.56-1.01,12.09,5.54,12.09,11.08,0,6.04-4.53,10.58-10.07,11.08-15.11,1.51-29.21,2.01-42.81,2.01-31.22,0-97.2-6.04-128.92-6.04-23.67,0-48.85,1.01-75.04,9.57-9.57,3.02-16.62-7.55-16.62-14.1Z"/><path class="cls-15" d="m529.95,3114.84c.5-15.61,18.13-124.39,23.67-154.61,11.58-61.94,21.15-116.83,25.68-179.79.5-6.04,5.04-10.58,11.08-10.58s11.08,4.53,11.08,10.58v1.01c-4.53,64.46-14.1,120.36-25.68,182.81-9.06,48.85-16.62,95.68-23.67,152.09-.5,5.54-5.54,9.57-11.58,9.57s-10.58-5.04-10.58-11.08Z"/><path class="cls-14" d="m847.72,3072.54c-17.12,17.12-37.27,29.71-58.42,37.27-18.63,6.55-38.27,13.09-62.45,13.09-15.11,0-13.6-22.16,0-22.16,21.15,0,36.76-5.04,54.39-12.09l1.51-.5c32.73-11.58,60.43-37.27,79.57-70,27.7-47.84,91.66-82.09,135.47-86.62,24.17-78.06,59.93-163.17,96.69-163.17,22.16,0,32.23,14.6,32.23,40.29,0,52.88-67.99,173.24-135.97,249.28.5,29.71,13.09,42.81,41.29,42.81,21.15,0,36.76-5.04,54.39-12.09,13.09-5.04,22.16,15.61,8.06,21.15-18.63,7.05-38.27,13.09-62.45,13.09-33.24,0-54.39-15.61-60.94-44.32-28.2,27.7-54.89,45.83-75.54,45.83-29.71,0-46.83-18.63-47.84-51.87Zm121.37-22.66c2.01-16.62,9.57-53.38,21.66-95.18-57.41,10.58-120.86,60.43-120.86,114.32,0,23.17,8.06,33.24,25.68,33.24s44.82-21.15,73.53-52.38Zm135.47-241.22c0-15.11-2.52-18.13-10.07-18.13-36.76,0-80.58,150.58-97.2,226.12,54.89-68.99,107.27-162.16,107.27-207.99Z"/><path class="cls-14" d="m1032.04,3100.74c21.15,0,36.76-5.04,54.39-12.09h.5c40.29-16.12,62.45-38.78,81.58-91.15,5.54-15.11,12.09-34.25,18.63-55.9,1.51-4.53,5.54-8.06,10.58-8.06,9.06,0,12.09,10.07,10.58,14.6l-19.64,57.91c-12.59,36.76-15.11,47.34-15.11,58.92,0,22.66,17.12,35.75,48.35,35.75,21.15,0,36.76-5.04,54.39-12.09,13.09-5.04,22.16,15.61,8.06,21.15-18.63,7.05-38.27,13.09-62.45,13.09-40.79,0-67.48-19.64-70-51.37-15.61,16.62-33.74,29.21-57.41,38.27-18.63,7.05-38.27,13.09-62.45,13.09-15.11,0-13.6-22.16,0-22.16Zm165.18-213.02c0-3.53,1.51-6.55,4.03-8.56,29.21-23.17,50.36-42.81,68.49-63.96,2.01-2.01,5.04-3.53,8.56-3.53,6.04,0,11.08,5.04,11.08,11.08,0,3.02-1.01,5.54-2.52,7.55-19.14,21.66-41.3,41.8-71.51,65.97-2.01,1.51-4.53,2.52-7.05,2.52-6.04,0-11.08-5.04-11.08-11.08Z"/><path class="cls-14" d="m1342.26,3073.04c-16.62,15.61-36.76,28.2-57.91,36.76-18.63,7.05-38.27,13.09-62.45,13.09-15.11,0-13.6-22.16,0-22.16,21.15,0,36.76-5.04,54.39-12.09l1.01-.5c34.25-13.09,61.44-38.78,79.57-69.5,35.25-59.93,126.4-99.71,170.22-84.61-13.6,34.75-25.18,59.93-43.81,97.2-9.07,17.63-13.6,32.23-13.6,42.3,0,18.13,10.58,27.19,31.73,27.19s36.76-5.04,54.39-12.09c13.09-5.54,22.16,15.61,8.06,21.15-18.63,7.05-38.27,13.09-62.45,13.09-28.71,0-47.84-13.6-52.88-37.27-20.14,25.68-39.28,38.78-58.42,38.78-29.71,0-46.33-18.63-47.84-51.37Zm122.38-53.88c13.09-26.19,22.16-45.32,30.72-65.97-60.43,5.04-130.94,64.46-130.94,115.83,0,23.17,8.06,33.24,25.68,33.24,19.64,0,47.34-28.71,74.53-83.09Z"/><path class="cls-14" d="m1807.59,3099.73c0,4.03-2.01,8.06-7.05,10.07-17.12,7.05-36.26,13.6-68.99,13.6-51.37,0-91.15-6.55-110.79-25.18-2.01-2.01-3.02-4.03-3.02-6.55,0-6.04,6.04-12.09,12.59-12.09,2.01,0,4.03.5,5.54,2.01,10.07,9.57,29.71,15.61,43.31,15.61,27.7,0,32.23-24.68,32.23-55.9,0-21.15-3.02-37.27-3.53-54.89-42.3,56.91-90.14,100.72-144.03,123.38-18.13,7.05-38.27,13.09-62.45,13.09-7.55,0-10.58-5.04-10.58-10.58s3.53-11.58,10.58-11.58c21.15,0,36.76-5.04,54.39-12.09,52.88-21.15,111.3-77.05,156.62-149.57,2.52-4.03,6.04-5.54,10.07-5.54,10.07,0,14.1,8.06,11.08,13.6-2.01,3.53-2.52,11.08-2.52,20.65,0,25.18,4.03,64.96,4.03,81.08,0,21.65-2.01,39.78-15.11,51.37,6.55.5,13.6.5,18.13.5,21.15,0,36.76-5.04,54.39-12.09,1.51-.5,3.53-1.01,4.53-1.01,7.05,0,10.58,6.55,10.58,12.09Z"/><g class="cls-19"><path class="cls-16" d="m1532,1352.79c-18.87,17.42-42.1,32.91-65.81,41.62-17.91,6.77-36.78,12.58-60.01,12.58-14.52,0-13.07-21.29,0-21.29,20.32,0,35.33-4.84,52.26-11.61l.97-.48c29.52-10.65,57.1-31.94,74.53-54.68,9.2-47.43,45.01-96.79,93.4-96.79,32.42,0,51.3,23.71,52.27,64.85,60.49-4.84,116.63-26.13,154.86-45.49,6.78-3.39,15.49.97,15.49,9.19,0,4.35-2.42,7.74-5.81,9.68-40.17,20.32-100.66,43.07-165.99,47.91-6.77,52.26-44.52,101.63-91.95,101.63-27.1,0-50.33-18.87-54.2-57.1Zm124.37-43.55h-2.42c-29.52,0-69.69-7.74-73.56-40.17-16.45,20.33-27.58,48.88-27.58,73.07,0,31.46,15,45.49,33.88,45.49,34.36,0,62.91-39.2,69.69-78.4Zm-29.04-65.81c-16.94,0-25.65,9.19-25.65,18.39,0,22.74,36.78,26.13,52.27,26.13h4.36c-.48-30.49-11.13-44.52-30.97-44.52Z"/></g><g class="cls-18"><path class="cls-16" d="m847.72,3072.54c-17.12,17.12-37.27,29.71-58.42,37.27-18.63,6.55-38.27,13.09-62.45,13.09-15.11,0-13.6-22.16,0-22.16,21.15,0,36.76-5.04,54.39-12.09l1.51-.5c32.73-11.58,60.43-37.27,79.57-70,27.7-47.84,91.66-82.09,135.47-86.62,24.17-78.06,59.93-163.17,96.69-163.17,22.16,0,32.23,14.6,32.23,40.29,0,52.88-67.99,173.24-135.97,249.28.5,29.71,13.09,42.81,41.29,42.81,21.15,0,36.76-5.04,54.39-12.09,13.09-5.04,22.16,15.61,8.06,21.15-18.63,7.05-38.27,13.09-62.45,13.09-33.24,0-54.39-15.61-60.94-44.32-28.2,27.7-54.89,45.83-75.54,45.83-29.71,0-46.83-18.63-47.84-51.87Zm121.37-22.66c2.01-16.62,9.57-53.38,21.66-95.18-57.41,10.58-120.86,60.43-120.86,114.32,0,23.17,8.06,33.24,25.68,33.24s44.82-21.15,73.53-52.38Zm135.47-241.22c0-15.11-2.52-18.13-10.07-18.13-36.76,0-80.58,150.58-97.2,226.12,54.89-68.99,107.27-162.16,107.27-207.99Z"/></g></svg>