<?xml version="1.0" encoding="UTF-8"?> <svg xmlns="http://www.w3.org/2000/svg" width="176" height="39" viewBox="0 0 176 39" fill="none"><g clip-path="url(#clip0_1413_3905)"><path d="M46.3399 35.7259V36.5567H30.62V35.7259C34.0373 35.0335 34.7208 34.0643 34.4474 31.5718L33.4904 24.7867H23.7851C18.3173 34.2026 13.2595 38.2183 7.79167 38.2183C2.87062 38.2183 0 34.6181 0 29.2177C0 27.1407 0.683479 24.7867 1.91374 22.7095H2.59723C2.05044 24.0944 1.77705 25.0636 1.77705 26.0329C1.77705 28.9408 4.23757 30.464 8.47515 30.464C16.2668 30.464 21.8713 26.1714 29.2529 9.00096H18.8641C13.3962 9.00096 9.9788 10.8011 9.56872 15.6476H8.88523C8.88523 8.03166 13.6696 2.49282 21.1878 2.49282H39.2317L43.1959 31.9872C43.606 34.4797 44.4263 35.1721 46.3399 35.7259ZM33.2171 22.5712L31.5768 9.13943H31.1667C28.9795 14.4013 26.9291 18.8324 25.0153 22.5712H33.2171ZM48.8008 34.8946L48.2539 27.6941L48.664 27.5557C50.8512 32.679 54.4053 35.1715 57.8226 35.1715C60.1465 35.1715 61.5135 34.0637 61.5135 31.8483C61.5135 30.3251 60.83 29.3559 58.2327 27.8326L53.8584 25.3402C50.3043 23.2631 48.5272 21.1859 48.5272 17.8627C48.5272 12.1853 53.3117 9.69287 58.5061 9.69287C61.3767 9.69287 63.4271 10.2467 65.6143 11.216L66.1611 18.2781L65.751 18.4166C63.974 13.9855 60.83 11.493 57.8226 11.493C55.7722 11.493 54.4053 12.6008 54.4053 14.4009C54.4053 16.0625 55.3621 16.8934 57.686 18.1396L62.3335 20.7707C65.8876 22.8477 67.5281 24.9247 67.5281 27.971C67.5281 33.7868 63.017 36.9716 57.4125 36.9716C54.1319 37.1102 51.3979 36.4178 48.8008 34.8946ZM99.9231 36.0026V36.5564H86.3902V36.0026C88.4406 35.3102 89.2608 35.0331 89.2608 32.2638V18.6936C89.2608 15.6472 87.8939 14.1241 85.0232 14.1241C83.6563 14.1241 82.0158 14.6779 80.3755 15.6472V32.4023C80.3755 35.1717 81.3324 35.4486 83.2462 36.1409V36.6949H69.7132V36.0026C71.7636 35.3102 72.7205 35.0331 72.7205 32.2638V6.64662C72.7205 4.56956 72.037 3.60026 69.85 2.9079V2.354C74.4975 2.354 78.0516 1.38471 79.8287 0H80.2388V13.9856H80.5121C83.1094 10.9392 86.5267 9.69299 89.5341 9.69299C93.7717 9.69299 96.9157 12.4624 96.9157 17.4474V32.2638C97.0525 35.0331 98.0093 35.3102 99.9231 36.0026ZM101.428 36.0026C103.478 35.3102 104.435 35.0331 104.435 32.2638V6.64662C104.435 4.56956 103.752 3.60026 101.564 2.9079V2.354C106.349 2.21553 109.903 1.38471 111.817 0H112.227V32.2638C112.227 35.0331 113.184 35.3102 115.234 36.0026V36.5564H101.564V36.0026H101.428ZM141.342 22.5713H125.349C125.349 29.2179 128.219 31.9874 133.004 31.9874C135.738 31.9874 138.608 30.8796 140.249 28.2486L140.796 28.3872C139.428 33.7876 134.918 36.9724 129.586 36.9724C122.752 36.9724 117.147 31.8489 117.147 23.5406C117.147 15.6478 121.932 9.55504 130.27 9.55504C138.062 9.69351 141.479 15.7862 141.342 22.5713ZM125.486 20.6327H134.644C134.644 14.54 133.004 11.4936 130.27 11.4936C127.673 11.4936 125.759 13.7092 125.486 20.6327ZM176.337 9.00107C175.517 14.8169 173.33 18.4171 169.502 18.4171C167.178 18.4171 165.401 17.5863 163.624 16.8939C161.847 16.0631 160.07 15.3708 157.883 15.3708C156.653 15.3708 155.696 15.6477 154.329 16.617V31.9872C154.329 34.7568 155.149 35.1721 158.43 35.726V36.4184H143.53V35.726C145.58 35.1721 146.537 34.7568 146.537 31.9872V16.7555C146.537 14.263 145.854 13.2937 143.667 12.4629V11.7705C148.314 11.632 151.868 10.5243 153.782 9.13954H154.466V14.6784H154.876C156.379 11.7705 158.84 9.41649 162.394 9.41649C164.445 9.41649 166.358 10.2473 167.998 10.9397C169.775 11.632 171.143 12.1859 172.236 12.1859C174.15 12.1859 175.107 11.0781 175.927 8.58566L176.337 9.00107Z" fill="#F70000"></path></g><defs><clipPath id="clip0_1413_3905"><rect width="176" height="39" fill="white"></rect></clipPath></defs></svg> 