<?xml version="1.0" encoding="UTF-8"?> <svg xmlns="http://www.w3.org/2000/svg" width="255" height="44" viewBox="0 0 255 44" fill="none"><path d="M77.2238 7.49383C68.9164 7.49383 64.9081 14.1224 64.9081 20.751C64.9081 27.3796 68.2882 32.4719 77.0791 32.4719C81.8603 32.4719 85.4821 30.5988 87.9936 28.0044C89.2487 31.1272 91.6645 32.4719 96.301 32.4719C99.0542 32.4719 101.806 31.752 103.352 30.8868L101.469 24.9781C100.696 25.3625 99.9228 25.6029 99.2959 25.6029C97.9439 25.6029 96.7845 24.883 96.7845 22.6242V15.3707H102.194V8.26131H96.7845V0H87.3667V15.6112C87.3667 23.7285 82.2468 25.8909 78.722 25.8909C76.0657 25.8909 74.8106 24.8817 74.3272 23.4894C79.1084 23.105 85.773 21.5198 85.773 15.2756C85.773 9.89534 82.2468 7.49383 77.2252 7.49383H77.2238ZM138.511 44C145.659 44 149.281 39.6289 149.812 32.3755C149.909 31.3663 149.909 28.2449 149.909 27.4761V9.27053C147.301 8.02222 143.148 7.49383 140.25 7.49383C132.86 7.49383 127.548 11.7685 127.548 19.6467C127.548 25.1221 130.688 28.6293 134.357 29.2541C131.314 31.608 129.818 34.25 129.818 37.3714C129.818 41.3581 132.716 44 138.51 44H138.511ZM38.0574 25.1221V8.26263H28.7366V22.4815C28.7366 23.8751 28.2532 24.739 27.2398 24.739C26.1295 24.739 25.9848 23.8738 25.9848 22.3851V8.26263H16.7118V22.4815C16.7118 26.3717 18.0638 28.8697 22.0721 29.7349C18.9324 32.1364 17.8221 34.6344 17.8221 37.4692C17.8221 41.5047 20.7201 44.0013 26.1295 44.0013C33.664 44.0013 37.6723 39.4863 37.914 31.5116C38.0588 30.118 38.0588 25.9873 38.0588 25.1234L38.0574 25.1221ZM49.9853 41.3581V32.2315C50.6135 32.3755 51.7238 32.4719 52.4968 32.4719C59.0166 32.4719 63.1696 28.1009 63.1696 19.8871C63.1696 11.6734 59.1122 7.49383 51.7238 7.49383C49.3571 7.49383 44.6728 7.87823 40.6645 9.36696V41.3581H49.9853ZM191.974 31.8471H201.295V16.236C201.295 15.1316 201.633 14.5068 202.647 14.5068C203.66 14.5068 203.902 15.2756 203.902 16.5239V31.8471H213.222V15.8991C213.222 10.1344 210.566 7.49251 206.558 7.49251C203.805 7.49251 202.163 8.50173 201.293 9.36564V0H191.972V31.8471H191.974ZM102.966 20.2702C102.966 28.6279 107.216 32.4706 114.025 32.4706C120.834 32.4706 125.954 28.0031 125.954 19.5014C125.954 8.64571 118.517 7.49251 114.75 7.49251C109.485 7.49251 102.966 10.6153 102.966 20.2702ZM164.349 7.49383C156.091 7.49383 152.033 14.1224 152.033 20.751C152.033 27.764 155.318 32.4719 163.721 32.4719C169.372 32.4719 173.138 29.8776 173.041 29.974L170.772 23.8738C168.985 24.9781 167.005 25.7469 165.12 25.7469C163.092 25.7469 161.836 24.8817 161.45 23.4894C166.231 23.105 172.895 21.5198 172.895 15.2756C172.895 9.89534 169.274 7.49383 164.347 7.49383H164.349ZM227.761 7.49383C219.503 7.49383 215.446 14.1224 215.446 20.751C215.446 27.764 218.73 32.4719 227.133 32.4719C232.784 32.4719 236.551 29.8776 236.454 29.974L234.184 23.8738C232.398 24.9781 230.418 25.7469 228.533 25.7469C226.505 25.7469 225.249 24.8817 224.862 23.4894C229.643 23.105 236.308 21.5198 236.308 15.2756C236.308 9.89534 232.686 7.49383 227.76 7.49383H227.761ZM184.054 0H174.781V23.105C174.781 27.62 175.265 32.4719 183.571 32.4719C186.324 32.4719 189.076 31.752 190.622 30.8868L188.739 24.9781C187.966 25.3625 187.193 25.6029 186.566 25.6029C185.214 25.6029 184.054 24.883 184.054 22.6242V15.3707H189.464V8.26131H184.054V0ZM9.27297 8.26263V0H0V23.105C0 27.62 0.483437 32.4719 8.78953 32.4719C11.6875 32.4719 14.2946 31.8471 16.1792 30.8868L14.2959 24.9781C13.6677 25.3625 12.6544 25.6029 11.6875 25.6029C9.80422 25.6029 9.27297 24.883 9.27297 22.6242V15.3707H14.5377V8.26131H9.27297V8.26263ZM247.755 31.8471V17.6283C247.755 15.8991 248.721 15.2743 250.508 15.2743C251.619 15.2743 252.875 15.6112 253.888 15.9942L254.999 8.4053C253.888 7.78048 252.39 7.49251 251.135 7.49251C249.638 7.49251 247.224 8.26131 245.967 11.3827L245.244 8.25999H237.806L238.579 13.1119V31.8458H247.755V31.8471ZM49.9853 25.9873V14.3628C50.227 14.2664 50.7091 14.1224 51.4821 14.1224C53.6071 14.1224 53.7519 16.38 53.7519 20.2715C53.7519 23.3943 53.7519 26.2277 51.3373 26.2277C50.8539 26.2277 50.3227 26.1313 49.9853 25.9873ZM114.364 25.8909C112.625 25.8909 112.48 23.0086 112.48 19.2623C112.48 15.9956 113.011 14.026 114.364 14.026C115.909 14.026 116.392 15.7551 116.392 20.1262C116.392 24.4973 115.908 25.8909 114.364 25.8909ZM140.733 14.026V22.6242C140.733 24.2569 139.864 24.8817 138.995 24.8817C137.112 24.8817 136.87 22.2398 136.87 19.6454C136.87 16.763 137.594 13.4963 140.733 14.0247V14.026ZM25.7417 35.5934C25.7417 33.0954 27.722 30.9819 28.8814 29.9727V34.6317C28.8814 36.6013 28.4949 37.4652 27.2398 37.4652C26.3699 37.4652 25.743 36.9844 25.743 35.5921L25.7417 35.5934ZM137.739 35.5934C137.739 33.0954 139.767 30.9819 140.878 29.9727V34.2473C140.878 36.6013 140.492 37.4652 139.237 37.4652C138.367 37.4652 137.74 36.9844 137.74 35.5921L137.739 35.5934ZM77.852 15.1316C77.852 16.38 76.4509 17.87 73.9407 18.1104C74.0855 15.1316 75.3419 13.8833 76.597 13.8833C77.3208 13.8833 77.852 14.3642 77.852 15.1316ZM228.39 15.1316C228.39 16.38 226.893 17.87 224.526 18.1104C224.623 15.1316 225.878 13.8833 227.135 13.8833C227.908 13.8833 228.39 14.3642 228.39 15.1316ZM164.977 15.1316C164.977 16.38 163.48 17.87 161.114 18.1104C161.21 15.1316 162.466 13.8833 163.722 13.8833C164.495 13.8833 164.977 14.3642 164.977 15.1316Z" fill="black"></path></svg> 