<?xml version="1.0" encoding="UTF-8"?> <svg xmlns="http://www.w3.org/2000/svg" viewBox="0 0 1920 1266.03"><defs><style>.cls-1{fill:#e2dcef;}.cls-2{fill:#29235c;}</style></defs><g id="background"><rect class="cls-1" width="1920" height="1266.03"></rect></g><g id="Capa_2"><path class="cls-2" d="m838.34,825.76c-1.71,0-3.1.73-4.15,2.17-4.95,6.64-8.27,9.92-10.01,9.88-3.76-.03-6.56-1.47-8.38-4.34l-13.06-20.57c5.14-2.11,9.79-5.77,13.95-10.98,4.15-5.21,6.23-10.45,6.23-15.73,0-9.62-4.16-14.44-12.46-14.44-7.65,0-14.05,4.95-19.19,14.83v-66.46c0-3.17-1.58-4.75-4.75-4.75-.07,0-.11.02-.17.02-.04,0-.07-.02-.11-.02-3.16,0-4.74,1.65-4.74,4.95.13,21.1.07,37.32-.2,48.66-1.19,13.98-4.48,27.56-9.89,40.74-8.98,18.62-20.29,28.01-33.91,28.24-15.8-.23-24.27-6.99-25.3-20.33-.26-3.43-.39-5.87-.39-7.32,0-3.75.86-7.51,2.42-11.27.4-.85.77-1.66,1.1-2.43.56-1.11,1.13-2.21,1.82-3.32,4.88-7.78,10.74-11.67,17.6-11.67,3.17,0,5.41.2,6.73.59,3.69,1.85,6.2,2.77,7.52,2.77,1.19,0,2.24-.52,3.17-1.58.92-1.06,1.39-2.18,1.39-3.36,0-1.85-.86-3.23-2.57-4.16-5.01-2.64-10.42-3.96-16.22-3.96-10.55,0-19.18,5.54-25.91,16.61-2.46,4.06-4.18,8.07-5.29,12.04-2.02,4.43-4.18,8.71-6.65,12.69-12.65,17.67-21.85,25.91-27.59,24.73-.1,0-.16.03-.25.04-.06,0-.11-.03-.17-.04-2.37-.26-3.56-3.56-3.56-9.89v-51.43c0-3.17-1.58-4.75-4.75-4.75s-4.74,1.58-4.74,4.75v.22c-.08.32-.16.6-.23.96-3.3,14.11-10.74,29.48-22.35,46.09-5.88,8.24-10.72,12.89-14.53,14-2.34-.21-3.53-3.47-3.53-9.85v-51.43c0-3.17-1.65-4.75-4.95-4.75-3.03,0-4.55,1.52-4.55,4.55-6.86,41.01-16.29,61.52-28.29,61.52-3.56,0-6.33-1.78-8.31-5.34-1.58-2.9-2.37-6.33-2.37-10.29v-45.69c0-3.17-1.58-4.75-4.75-4.75s-4.74,1.58-4.74,4.75v45.69c0,6.99,1.58,12.73,4.74,17.21,3.7,5.27,8.84,7.91,15.43,7.91,10.68,0,19.19-7.65,25.52-22.95l2.77-6.72v12.66c0,11.34,4.42,17.01,13.25,17.01,0,0,.01,0,.02,0,.01,0,.02,0,.03,0,4.35,0,9.3-3.17,14.83-9.49,9.4-11.32,16.66-23.06,21.99-35.16v27.64c0,11.34,4.42,17.01,13.25,17.01.05,0,.1-.03.15-.03.1,0,.17.04.27.04,5.87,0,11.68-2.57,17.42-7.71,4.55-3.59,9.87-10.39,15.95-20.26.95,9.16,4.62,16.21,11.12,21.05,5.7,4.25,13.1,6.45,22.04,6.79.33.04.6.14.97.14.26,0,.5-.03.75-.03.2,0,.37.03.57.03.24,0,.4-.07.62-.09,19.5-.8,33.79-13.59,42.85-38.45v33.58c0,3.17,1.65,4.75,4.95,4.75,3.03,0,4.55-1.58,4.55-4.75,0-10.42.66-19.32,1.98-26.7l14.44,22.74c3.7,5.8,9.23,8.7,16.61,8.7,3.83.13,7.58-2.17,11.28-6.92,4.61-6.07,6.92-9.69,6.92-10.88,0-2.51-1.38-3.76-4.15-3.76Zm-39.17-33.23c2.9-7.39,6.66-11.08,11.28-11.08,1.98,0,2.96,1.58,2.96,4.74,0,4.09-2.04,8.44-6.13,13.05-4.09,4.62-8.17,6.92-12.26,6.92,1.05-4.74,2.44-9.3,4.15-13.65Zm-532.65-72.79c0,3.17-1.58,4.75-4.74,4.75h-43.71l-.2,118.48c0,3.04-1.58,4.55-4.74,4.55s-4.95-1.52-4.95-4.55v-118.48h-43.71c-3.17,0-4.75-1.58-4.75-4.75s1.58-4.55,4.75-4.55h97.12c3.3,0,4.94,1.52,4.94,4.55Zm152.29,105.43c-.79,0-1.71.39-2.77,1.18l-9.89,7.92c-3.83,2.5-7.58,3.76-11.27,3.76-6.2,0-10.95-3.43-14.24-10.29,19.91-15.69,29.87-29.47,29.87-41.34,0-3.56-1.65-6.86-4.94-9.89-3.3-3.04-6.73-4.55-10.29-4.55-9.1,0-16.15,4.42-21.17,13.26-4.22,7.38-6.33,15.96-6.33,25.71,0,3.43.52,7.39,1.58,11.87.07.32.18.58.26.9-4.73,4.04-8.8,7.01-12.13,8.8-6.72,3.69-14.04,5.54-21.95,5.54-2.37-.27-3.56-3.56-3.56-9.89v-37.98c0-5.01-1.61-9.3-4.85-12.86-3.23-3.56-7.35-5.34-12.36-5.34-8.7,0-16.94,5.48-24.72,16.42l-.2.4c-3.17,5.14-5.28,8.64-6.33,10.48v-78.92c0-3.17-1.58-4.75-4.75-4.75s-4.74,1.58-4.74,4.75v122.44c0,3.17,1.65,4.75,4.95,4.75,3.03,0,4.55-1.58,4.55-4.75,0-18.72,4.88-35.08,14.64-49.05,2.9-4.08,5.27-6.92,7.12-8.5,2.9-2.38,6.07-3.56,9.49-3.56,2.24,0,4.09.86,5.54,2.57,1.45,1.71,2.18,3.69,2.18,5.93v40.36c0,11.33,4.41,16.99,13.22,17.01,0,0,.01,0,.02,0,0,0,0,0,0,0,0,0,0,0,0,0s0,0,0,0c13.17,0,25.61-4.66,37.34-13.93,4.6,9.29,11.8,13.93,21.6,13.93,5.54,0,10.48-1.45,14.83-4.35,1.18-.79,5.34-3.96,12.46-9.5,1.18-.92,1.78-2.11,1.78-3.56,0-3.3-1.65-4.94-4.95-4.94Zm-37.98-33.04c3.17-6.99,7.98-10.48,14.44-10.48,3.69,0,5.54,1.58,5.54,4.74,0,5.14-2.17,10.42-6.53,15.83-6.33,6.2-11.8,11.34-16.42,15.43-.39-1.84-.59-4.08-.59-6.72,0-7.39,1.19-13.65,3.56-18.79Zm177.77,93.96l-5.14,4.35c-3.3,2.77-6.07,4.15-8.31,4.15-3.69,0-6.06-2.05-7.12-6.13-.53-1.98-.79-5.54-.79-10.68v-101.08c0-3.17-1.58-4.75-4.75-4.75s-4.74,1.72-4.74,5.14c-6.07-3.43-11.14-5.14-15.23-5.14-11.87,0-21.03,5.54-27.49,16.61-5.01,8.57-7.52,17.41-7.52,26.51v4.75l.59,2.96c.53,6.46,2.77,12.07,6.73,16.82,4.35,5.27,9.63,7.91,15.83,7.91,10.95,0,19.98-6.92,27.1-20.77v46.48c0,9.63.73,16.42,2.17,20.37,2.51,6.99,7.58,10.48,15.23,10.48,4.35,0,8.57-1.78,12.66-5.34,1.45-1.05,3.17-2.77,5.14-5.14.53-.92.79-1.84.79-2.77,0-1.19-.56-2.27-1.68-3.26-1.12-.99-2.27-1.48-3.46-1.48Zm-37.78-67.84c-5.41,13.18-12.13,19.78-20.18,19.78-4.88,0-8.51-2.83-10.88-8.51-1.71-4.09-2.57-8.97-2.57-14.64,0-7.65,1.98-14.7,5.94-21.17,4.88-8.05,11.34-12.06,19.38-12.06,3.17,0,8.11,2.04,14.84,6.13,0,9.63-2.18,19.78-6.53,30.46Zm134.38-69.03c0-3.56,1.78-5.34,5.34-5.34s5.54,1.78,5.54,5.34-1.85,5.34-5.54,5.34-5.34-1.78-5.34-5.34Zm273.86,22.74c-7.91,0-14.64,3.36-20.18,10.09v-61.71c0-3.17-1.58-4.75-4.75-4.75s-4.74,1.58-4.74,4.75v122.44c0,3.17,1.58,4.75,4.74,4.75s4.75-1.58,4.75-4.75v-3.16c5.14,5.27,10.88,7.91,17.21,7.91,9.49,0,16.88-3.96,22.15-11.87,4.61-6.86,6.92-15.3,6.92-25.32s-1.78-18.59-5.34-25.32c-4.61-8.7-11.54-13.05-20.77-13.05Zm12.26,56.57c-3.43,6.33-8.51,9.5-15.23,9.5-5.01,0-9.1-2.44-12.26-7.32-2.64-3.96-4.29-8.7-4.95-14.24v-6.53c0-7.25,1.52-13.52,4.55-18.79,3.56-6.33,8.77-9.49,15.62-9.49,10.95,0,16.42,9.36,16.42,28.09,0,7.39-1.38,13.65-4.15,18.79Zm371.64-2.57c-1.71,0-3.1.73-4.15,2.17-5.01,6.73-8.37,10.02-10.09,9.89-2.37,0-3.56-3.3-3.56-9.89v-32.24c0-6.86-1.71-12.56-5.14-17.11-3.43-4.55-8.51-6.83-15.23-6.83-5.54,0-10.88,2.7-16.02,8.11-4.74,4.88-7.84,10.22-9.3,16.02v-19.39c0-3.17-1.58-4.75-4.75-4.75-2.49,0-3.96,1.02-4.49,2.98-.06.02-.11.02-.16.04-5.34,7.85-11.52,10.81-18.53,8.87-3.36-.99-7.59-4.24-12.63-9.59-.54-2.03-2.14-3.09-4.89-3.09-1.98,0-3.36,1.05-4.15,3.17l-19.58,52.81-16.42-52.62c-.79-2.64-2.24-3.96-4.35-3.96s-3.63,1.26-4.55,3.76l-19.78,52.81-16.42-52.62c-.66-2.24-2.11-3.36-4.35-3.36-1.19,0-2.31.46-3.36,1.39h0c-.2.08-.38.11-.59.2-6.33,8.57-13.65,12.39-21.96,11.47-4.22-.53-9.56-3.36-16.02-8.51-.16-.06-.28-.08-.43-.14-3.5-2.39-7.65-3.62-12.49-3.62-6.91,0-12.67,2.29-17.29,6.87-5.73,3.35-12.07,4.99-19.09,4.74-10.19-.55-17.62-11.81-23.32-11.81-1.32,0-2.64.2-3.96.59-1.05.26-2.05.66-2.97,1.19-.79.53-1.52,1.12-2.17,1.78-3.17,2.77-6.07,7.45-8.7,14.05-1.71,4.22-3.56,9.03-5.54,14.44v-27.1c0-3.17-1.58-4.75-4.75-4.75s-4.74,1.58-4.74,4.75v66.06c0,3.17,1.58,4.75,4.74,4.75,2.77,0,4.48-1.65,5.14-4.95,1.85-10.02,3.1-16.74,3.76-20.18.79-4.48,1.72-8.83,2.77-13.05,5.8-18.33,13.01-30.69,16.05-27.79,6.74,6.42,14.26,11.32,22.63,11.71,4.38.13,8.36-.21,12.01-.93-1.85,5.12-2.87,10.75-2.87,17.01,0,25.45,8.11,38.18,24.33,38.18,9.23,0,16.61-4.02,22.15-12.07,4.88-6.99,7.32-15.36,7.32-25.12,0-6.46-.77-12.15-2.16-17.22,2.34.73,4.66,1.16,6.97,1.2,9.05.19,16.6-2.33,22.64-7.57l17.51,56.62c.79,2.77,2.31,4.15,4.55,4.15,2.11,0,3.63-1.32,4.55-3.96l19.78-52.81,16.22,52.62c.79,2.77,2.31,4.15,4.55,4.15,2.11,0,3.63-1.32,4.55-3.96l22.31-59.9c5.49,5.57,10.82,7.61,16.08,8.48,6.8,1.15,12.57-.06,17.35-3.52v54.14c0,3.17,1.58,4.75,4.74,4.75s4.75-1.58,4.75-4.75c0-11.08,1.78-22.88,5.34-35.4,4.88-17.14,11.54-25.71,19.98-25.71,7.12,0,10.68,4.74,10.68,14.24v34.62c0,11.34,4.42,17.01,13.25,17.01,3.96.13,7.78-2.17,11.48-6.92,4.61-6.07,6.92-9.69,6.92-10.88,0-2.51-1.38-3.76-4.15-3.76Zm-241.93,2.37c-3.69,6.46-8.83,9.7-15.43,9.7-9.89,0-14.83-9.43-14.83-28.29,0-7.25,1.32-13.39,3.96-18.39,3.3-6.46,8.24-9.69,14.83-9.69,10.68,0,16.02,9.36,16.02,28.09,0,7.12-1.52,13.32-4.55,18.59Zm464.21-51.62c0-3.17-1.65-4.75-4.95-4.75-1.58,0-2.83.66-3.76,1.98l-18.99,27.3-18.79-27.3c-.92-1.32-2.17-1.98-3.76-1.98-1.76,0-3.05.43-3.9,1.26,0,0-.01,0-.02,0-.18.31-.37.57-.55.87-.11.19-.27.34-.35.56-4.27,6.72-9.69,9.76-16.31,9.03-2.76-.34-6.22-1.91-10.36-4.67-4.15-4.69-9.6-7.06-16.37-7.06-5.15,0-9.65,1.32-13.52,3.87-.22.03-.4.05-.67.1-7.57,3.5-20.46,3-34.08,0v-40.26c0-11.87,5.8-17.8,17.41-17.8,1.32,0,3.23.43,5.74,1.29,2.51.86,4.35,1.29,5.54,1.29,3.17,0,4.75-1.72,4.75-5.14,0-1.72-.79-3.04-2.38-3.96-3.3-1.98-7.84-2.97-13.65-2.97-8.57,0-15.23,2.41-19.98,7.22-4.75,4.81-7.12,11.51-7.12,20.08v37.74c-9.91-2.97-19.65-7.08-27.5-11.8-.82-.36-1.4-.56-1.75-.6-2.92-.34-4.38,1.2-4.38,4.63,0,1.98.94,3.46,2.63,4.46,11.1,6.53,21.61,10.83,31,13.64v70.21c0,6.33-1.52,12.2-4.55,17.61-3.56,6.46-8.24,9.7-14.05,9.7-2.64,0-6.06-.66-10.28-1.98-.92-.26-2.84-1.42-5.74-3.46-2.9-2.05-4.55-3.07-4.95-3.07-3.3,0-4.95,1.65-4.95,4.95,0,1.05.39,2.04,1.19,2.96,5.8,6.86,14.05,10.29,24.72,10.29,8.31,0,15.23-4.22,20.77-12.66,5.01-7.52,7.52-15.63,7.52-24.33v-67.73c10.73,2.27,19.29,2.5,24.57,2.01-3,6.13-4.58,13.13-4.58,21.11,0,25.45,8.11,38.18,24.33,38.18,9.23,0,16.61-4.02,22.15-12.07,4.88-6.99,7.32-15.36,7.32-25.12,0-7.65-.98-14.33-2.93-20.03,2.08.43,4.11.63,6.11.65,7.6.12,13.65-2.19,18.16-6.9l17.63,25.69-20.77,30.27c-.66.92-.99,1.85-.99,2.77,0,3.3,1.71,4.95,5.14,4.95,1.45,0,2.7-.73,3.76-2.17l18.79-27.3,18.99,27.3c1.05,1.45,2.31,2.17,3.76,2.17,3.17,0,4.75-1.65,4.75-4.95,0-1.05-.26-1.98-.79-2.77l-20.96-30.27,20.96-30.27c.66-.92.99-1.84.99-2.77Zm-86.65,51.62c-3.69,6.46-8.83,9.7-15.43,9.7-9.89,0-14.83-9.43-14.83-28.29,0-7.25,1.32-13.39,3.96-18.39,3.3-6.46,8.24-9.69,14.83-9.69,10.68,0,16.02,9.36,16.02,28.09,0,7.12-1.52,13.32-4.55,18.59Z"></path><path class="cls-2" d="m917.33,1046.05c-1.32.13-2.64.66-3.96,1.58-1.32.92-3.49,1.39-6.53,1.39s-5.77-1.98-8.21-5.94c-2.44-3.96-4.78-5.93-7.02-5.93-1.32,0-2.64.2-3.96.59-1.05.26-2.05.66-2.97,1.19-.79.53-1.52,1.12-2.17,1.78-3.17,2.77-6.07,7.45-8.7,14.05-1.71,4.22-3.56,9.03-5.54,14.44v-27.1c0-2.94-1.43-4.46-4.17-4.67-.83-.13-1.62-.15-2.33.05-.08.02-.15.11-.22.15-1.84.57-2.78,2.05-2.78,4.47v2.05c-3.43,13.78-10.75,28.73-22.02,44.87-5.88,8.23-10.71,12.89-14.52,14-.48-.01-.89-.11-1.4-.09-5.67,0-10.16-2.18-13.45-6.53-2.9-3.83-4.35-8.7-4.35-14.64,3.17,1.05,6.33,1.58,9.49,1.58,1.32,0,2.97-.13,4.95-.39,7.12-.92,12.89-4.02,17.3-9.3,4.42-5.27,6.63-11.54,6.63-18.79,0-4.88-1.78-9.1-5.34-12.66-3.56-3.56-7.78-5.34-12.66-5.34-9.76,0-17.41,4.75-22.95,14.24-2.96,5.03-4.89,10.57-6.01,16.52-6.01-2.8-11.09-6.36-15.16-10.78-3.84-4.47-6.41-8.13-7.77-10.99l.79-1.66c.26-1.32.39-2.11.39-2.37,0-3.04-1.65-4.55-4.95-4.55-1.98,0-3.43.92-4.35,2.77l-26.51,56.18-23.93-55.98c-.02-.05-.05-.09-.08-.14-.13-.32-.32-.61-.51-.92-.06-.09-.11-.2-.18-.28-.14-.21-.23-.44-.4-.64-1.07-1.18-2.79-1.39-5.08-.74-.25.06-.48.14-.7.23-.32.11-.6.17-.94.31-.1.14-.21.25-.31.38-.03.03-.05.06-.07.09-6.25,8.22-13.43,11.91-21.58,11-4.22-.53-9.56-3.36-16.02-8.51-.16-.06-.28-.08-.43-.14-3.5-2.39-7.65-3.62-12.49-3.62-9.23,0-16.42,4.09-21.56,12.26-4.48,6.99-6.73,15.36-6.73,25.12,0,25.45,8.11,38.18,24.33,38.18,9.23,0,16.61-4.02,22.15-12.07,4.88-6.99,7.32-15.36,7.32-25.12,0-6.46-.77-12.15-2.16-17.22,2.34.73,4.66,1.16,6.97,1.2,9.12.2,16.71-2.36,22.77-7.67l24.87,57.91c1.06,2.51,2.51,3.76,4.35,3.76,1.71,0,3.17-1.18,4.35-3.56l26.58-55.65c.2.71.39,1.42.57,2.04,1.98,2.9,4.85,6.36,8.61,10.39,3.54,3.79,9.19,7.43,16.77,10.93,0,.35-.06.68-.06,1.03,0,9.76,2.11,17.61,6.33,23.54,4.75,6.73,11.87,10.09,21.36,10.09.11,0,.22-.03.33-.02.38.06.71.16,1.15.16,4.35,0,9.3-3.17,14.83-9.49,9.05-10.9,16.15-22.17,21.43-33.79v38.89c0,3.17,1.58,4.75,4.74,4.75,2.77,0,4.48-1.65,5.14-4.95,1.85-10.02,3.1-16.74,3.76-20.18.79-4.48,1.72-8.83,2.77-13.05,5.8-18.33,10.81-27.43,15.03-27.3.66.52,1.32,1.25,1.98,2.17,4.48,5.93,9.36,8.9,14.64,8.9,8.84-.66,13.58-3.49,14.24-8.51,0-2.64-1.25-3.96-3.76-3.96Zm-93.92.49c5.67,0,8.51,2.77,8.51,8.31s-1.88,10.09-5.64,13.65c-3.76,3.56-8.41,5.34-13.95,5.34-2.9,0-5.87-.66-8.9-1.98,2.37-16.88,9.03-25.32,19.98-25.32Zm-157.73,47.09c-3.69,6.46-8.83,9.7-15.43,9.7-9.89,0-14.83-9.43-14.83-28.29,0-7.25,1.32-13.39,3.96-18.39,3.3-6.46,8.24-9.69,14.83-9.69,10.68,0,16.02,9.36,16.02,28.09,0,7.12-1.52,13.32-4.55,18.59Zm-459.14-51.62v93.56c0,9.36-3.2,17.24-9.59,23.64-6.39,6.39-14.27,9.59-23.64,9.59-8.17,0-16.48-3.1-24.92-9.3-1.32-.92-1.98-2.24-1.98-3.96,0-3.17,1.52-4.75,4.55-4.75,1.05,0,2.11.33,3.16.99,6.46,5.01,12.86,7.52,19.19,7.52,6.86,0,12.49-2.24,16.91-6.73,4.42-4.48,6.63-10.15,6.63-17.01v-93.56c0-3.17,1.58-4.75,4.75-4.75s4.94,1.58,4.94,4.75Zm.6-27.49c0,3.56-1.85,5.34-5.54,5.34-3.43,0-5.14-1.78-5.14-5.34s1.71-5.34,5.14-5.34c3.69,0,5.54,1.78,5.54,5.34Zm281.96,22.74c-7.91,0-15.03,3.56-21.36,10.68v-5.93c0-.18-.06-.3-.07-.47,0-1.34-.32-2.32-1-2.9-.79-.9-1.99-1.38-3.68-1.38-3.16,0-4.74,1.58-4.74,4.75v4.38c-3.62,13.23-10.76,27.52-21.5,42.89-5.58,7.81-10.21,12.37-13.92,13.77-1.42-.09-2.54-.75-3.27-2.1-.53-1.05-.79-3.56-.79-7.52v-32.24c0-6.86-1.71-12.56-5.14-17.11-3.43-4.55-8.5-6.83-15.23-6.83-9.49,0-17.14,6.07-22.95,18.2-1.84-12.13-8.24-18.2-19.18-18.2-5.94,0-11.54,3.04-16.82,9.1-4.61,5.14-7.78,10.95-9.49,17.41v-21.76c0-3.17-1.58-4.75-4.75-4.75s-4.74,1.58-4.74,4.75v1.61c-3.35,14-10.75,29.21-22.24,45.66-5.88,8.24-10.72,12.89-14.53,14-2.34-.21-3.52-3.47-3.52-9.85v-51.43c0-3.17-1.65-4.75-4.95-4.75-3.03,0-4.55,1.52-4.55,4.55-6.86,41.01-16.29,61.52-28.29,61.52-3.56,0-6.33-1.78-8.31-5.34-1.58-2.9-2.37-6.33-2.37-10.29v-45.69c0-3.17-1.58-4.75-4.75-4.75s-4.74,1.58-4.74,4.75v45.69c0,6.99,1.58,12.73,4.74,17.21,3.7,5.27,8.84,7.91,15.43,7.91,10.68,0,19.19-7.65,25.52-22.95l2.77-6.72v12.66c0,11.34,4.42,17.01,13.25,17.01,0,0,.01,0,.02,0,.01,0,.02,0,.03,0,4.35,0,9.3-3.17,14.83-9.49,9.18-11.06,16.34-22.5,21.64-34.3v39.05c0,3.17,1.58,4.75,4.74,4.75s4.75-1.58,4.75-4.75c0-11.34,1.91-23.21,5.74-35.6,5.28-17.01,12.14-25.52,20.57-25.52,6.46,0,9.69,4.74,9.69,14.24v46.88c0,3.17,1.65,4.75,4.95,4.75s4.74-1.58,4.74-4.75c0-13.18,1.12-24.99,3.36-35.4,3.7-17.14,10.15-25.71,19.39-25.71,7.25,0,10.88,4.74,10.88,14.24v34.62c0,11.34,4.35,17.01,13.05,17.01.04,0,.06-.01.09-.01.04,0,.06.01.09.01.26,0,.55-.12.81-.14.4-.06.83-.08,1.16-.2,3.86-.79,8.13-3.74,12.86-9.15,8.72-10.5,15.69-21.34,20.9-32.51v93.83c0,3.16,1.58,4.74,4.74,4.74s4.75-1.58,4.75-4.74v-59.54c5.01,5.14,11.14,7.71,18.39,7.71,9.1,0,16.61-4.02,22.55-12.07,5.54-7.38,8.3-15.76,8.3-25.12,0-10.02-2.11-18.59-6.33-25.71-5.01-8.44-12.2-12.66-21.56-12.66Zm13.05,56.57c-3.96,6.33-9.3,9.5-16.02,9.5-5.67,0-10.22-2.38-13.65-7.12-3.17-4.22-4.75-9.23-4.75-15.03v-5.94c0-7.25,1.71-13.58,5.14-18.99,3.96-6.2,9.36-9.3,16.22-9.3,6.46,0,11.27,3.23,14.44,9.69,2.51,5.01,3.76,11.14,3.76,18.39s-1.71,13.39-5.14,18.79Zm61.01-18.79c4.29,4.22,6.43,9.23,6.43,15.03,0,6.86-2.21,12.36-6.63,16.52-4.42,4.15-10.05,6.23-16.91,6.23-4.09,0-8.64-1.39-13.65-4.15-5.67-3.04-8.5-6.4-8.5-10.09,0-3.03,1.65-4.55,4.94-4.55,1.32,0,2.84.92,4.55,2.77,2.11,2.24,3.76,3.7,4.95,4.35,2.64,1.45,5.21,2.17,7.71,2.17,4.08,0,7.42-1.19,9.99-3.56,2.57-2.38,3.86-5.61,3.86-9.7,0-3.16-1.19-5.93-3.56-8.3-2.38-2.37-5.14-3.56-8.31-3.56-5.93,0-10.91-1.85-14.93-5.54-4.02-3.7-6.04-8.51-6.04-14.44s2.05-10.75,6.14-14.83c4.08-4.09,9.03-6.14,14.83-6.14,7.12,0,12.99,2.83,17.61,8.51.79.92,1.18,1.98,1.18,3.17,0,3.16-1.58,4.74-4.74,4.74-1.19,0-2.57-.66-4.16-1.98-2.37-1.98-3.76-3.1-4.15-3.36-1.71-.92-3.63-1.38-5.74-1.38-3.3,0-6.03,1.05-8.21,3.16-2.17,2.11-3.26,4.82-3.26,8.11,0,3.03,1.12,5.54,3.36,7.52,2.24,1.98,4.94,2.97,8.11,2.97,5.8,0,10.85,2.11,15.13,6.33Zm792.6,16.22c-1.71,0-3.1.73-4.15,2.17-5.01,6.73-8.37,10.02-10.08,9.89-2.38-.26-3.56-3.56-3.56-9.89v-51.43c0-3.17-1.58-4.75-4.75-4.75s-4.75,1.45-4.75,4.35c-4.88-2.9-9.49-4.35-13.84-4.35-12,0-21.23,5.54-27.7,16.61-1.42,2.43-2.59,4.89-3.6,7.37-2.51,6.04-5.36,11.72-8.66,16.96-12.12,16.75-21.07,24.92-26.91,24.73,0,0,0,0,0,0-2.51,0-3.76-3.3-3.76-9.89v-107.8c0-3.17-1.58-4.75-4.75-4.75s-4.74,1.58-4.74,4.75v110.18c0,10.41,3.76,15.98,11.2,16.83.42.07.79.18,1.28.18.11,0,.23-.04.34-.04.15,0,.28.04.43.04.27,0,.51-.12.77-.17,5.41-.41,10.76-2.85,16.06-7.55,4.29-3.35,9.27-9.49,14.91-18.32.06.63.16,1.22.32,1.71,2.24,16.48,9.04,24.73,20.38,24.73,5.01,0,10.08-2.7,15.23-8.11,3.96-4.09,7.39-9.04,10.29-14.84l2.77-5.54v11.48c0,11.34,4.42,17.01,13.26,17.01,3.82.13,7.58-2.17,11.27-6.92,4.61-6.07,6.92-9.69,6.92-10.88,0-2.51-1.39-3.76-4.16-3.76Zm-38.57-5.93c-6.46,12-12.13,18-17.01,18-7.39,0-11.08-7.72-11.08-23.14,0-8.17,2.17-15.56,6.52-22.15,4.88-7.39,11.21-11.08,18.99-11.08,2.5,0,6.72,1.65,12.66,4.94-2.38,14.24-5.74,25.39-10.09,33.43Zm101.66-40.55l-39.36,58.55h35.4c3.17,0,4.75,1.58,4.75,4.74s-1.58,4.75-4.75,4.75h-44.31c-3.56,0-5.34-1.25-5.34-3.76,0-1.19.46-2.44,1.39-3.76l39.36-58.35h-35.4c-3.17,0-4.75-1.65-4.75-4.95s1.58-4.75,4.75-4.75h44.31c3.56,0,5.34,1.32,5.34,3.96,0,1.06-.46,2.24-1.39,3.56Zm70.41-2.77v94.15c0,9.63-3.1,17.57-9.3,23.83-6.2,6.26-14.11,9.39-23.74,9.39-4.61,0-9.3-.86-14.05-2.57-5.27-1.85-9.23-4.35-11.87-7.52-.79-.92-1.18-1.98-1.18-3.17,0-3.17,1.65-4.75,4.94-4.75.92,0,2.84.99,5.74,2.97,2.9,1.98,4.74,3.1,5.54,3.36,4.22,1.45,7.84,2.17,10.88,2.17,6.72,0,12.3-2.27,16.71-6.83,4.42-4.55,6.63-10.18,6.63-16.91v-53.01l-2.97,6.72c-6.73,15.3-15.17,22.95-25.32,22.95-6.59,0-11.74-2.64-15.43-7.91-3.16-4.48-4.74-10.22-4.74-17.21v-45.69c0-3.17,1.58-4.75,4.74-4.75s4.75,1.58,4.75,4.75v45.69c0,3.96.79,7.39,2.37,10.29,1.98,3.56,4.75,5.34,8.31,5.34,12,0,21.43-20.51,28.29-61.52,0-2.9,1.58-4.35,4.74-4.35s4.95,1.52,4.95,4.55Zm189.21-4.75c-9.23,0-16.42,4.09-21.56,12.26-1.17,1.82-2.17,3.74-3.03,5.75-.89,1.31-1.78,2.94-2.69,4.93-2.64,6.59-5.74,12.73-9.3,18.39-12.48,17.25-21.61,25.44-27.44,24.73,0,0,0,0,0,0-2.24,0-3.36-3.3-3.36-9.89v-107.8c0-3.17-1.65-4.75-4.95-4.75s-4.75,1.58-4.75,4.75v5.14c0,5.67-.13,14.08-.39,25.21-.26,11.14-.39,19.55-.39,25.22-4.22-2.64-8.57-3.96-13.05-3.96-10.82,0-19.52,4.61-26.11,13.85-5.93,8.17-8.9,17.93-8.9,29.27v2.17c0,7.65,1.52,14.24,4.55,19.78,3.69,6.99,9.03,10.48,16.02,10.48,10.02,0,19.45-7.58,28.28-22.75v5.74c0,11.27,4.24,16.92,12.7,17,.04,0,.06.01.1.01,0,0,.02,0,.02,0,.01,0,.02,0,.03,0,.08,0,.13-.03.21-.03,5.84-.07,11.63-2.62,17.34-7.69,5.22-4.07,11.44-12.25,18.64-24.41,1.26,21.33,9.23,32.13,24.08,32.13,9.23,0,16.61-4.02,22.15-12.07,4.88-6.99,7.32-15.36,7.32-25.12s-1.71-18.59-5.14-25.32c-4.35-8.7-11.14-13.05-20.37-13.05Zm-82.22,38.77c-2.24,7.91-6.13,15.03-11.67,21.36-3.43,3.96-7.25,5.94-11.47,5.94-7.26,0-10.88-7.72-10.88-23.14,0-8.31,2.11-15.69,6.33-22.15,4.75-7.39,11.08-11.08,18.99-11.08,3.43,0,7.52,1.52,12.26,4.55-.79,10.81-1.98,18.99-3.56,24.53Zm93.69,17.6c-3.69,6.46-8.83,9.7-15.43,9.7-9.89,0-14.83-9.43-14.83-28.29,0-7.25,1.32-13.39,3.96-18.39,3.3-6.46,8.24-9.69,14.83-9.69,10.68,0,16.02,9.36,16.02,28.09,0,7.12-1.52,13.32-4.55,18.59Zm78.91-56.37c-3.3,0-4.95,1.72-4.95,5.14-6.07-3.43-11.08-5.14-15.03-5.14-11.87,0-21.1,5.54-27.7,16.61-4.88,8.31-7.32,17.14-7.32,26.51v4.75c.13,1.45.26,2.44.39,2.96.92,6.73,3.17,12.33,6.73,16.82,4.22,5.27,9.49,7.91,15.83,7.91,9.76,0,18.86-7.12,27.3-21.36v44.7c0,6.73-2.27,12.36-6.83,16.91-4.55,4.55-10.18,6.83-16.91,6.83-3.04,0-6.33-.59-9.89-1.78-4.08-1.32-6.92-2.97-8.5-4.95-.92-1.18-2.11-1.78-3.56-1.78-3.3,0-4.95,1.58-4.95,4.75,0,1.19.39,2.24,1.19,3.17,2.64,3.16,6.59,5.67,11.87,7.52,4.75,1.71,9.36,2.57,13.85,2.57,9.36,0,17.24-3.2,23.64-9.59,6.39-6.39,9.59-14.27,9.59-23.64v-94.15c0-3.17-1.58-4.75-4.74-4.75Zm-4.75,22.75c-.53,4.74-1.32,8.9-2.37,12.46-2.9,9.76-7.39,18.06-13.45,24.92-3.56,3.96-7.39,5.94-11.47,5.94-4.75,0-8.31-2.83-10.68-8.51-1.71-4.09-2.57-8.97-2.57-14.64,0-8.31,2.11-15.69,6.33-22.15,4.75-7.39,11.08-11.08,18.99-11.08,3.82,0,8.9,2.11,15.23,6.33v6.73Zm-590.1,30.46c-.79,0-1.71.39-2.77,1.18l-9.89,7.92c-3.83,2.5-7.58,3.76-11.27,3.76-6.2,0-10.95-3.43-14.24-10.29,19.91-15.69,29.87-29.47,29.87-41.34,0-3.56-1.65-6.86-4.94-9.89-3.3-3.04-6.73-4.55-10.29-4.55-9.1,0-16.15,4.42-21.17,13.26-4.22,7.38-6.33,15.96-6.33,25.71,0,3.43.52,7.39,1.58,11.87.07.32.18.58.26.9-4.73,4.04-8.8,7.01-12.13,8.8-6.72,3.69-14.04,5.54-21.95,5.54-2.37-.27-3.56-3.56-3.56-9.89v-37.98c0-5.01-1.61-9.3-4.85-12.86-3.23-3.56-7.35-5.34-12.36-5.34-8.7,0-16.94,5.48-24.72,16.42l-.2.4c-3.17,5.14-5.28,8.64-6.33,10.48v-51.5c.23-8.24.35-17.37.35-27.42-.13-3.17-1.71-4.75-4.75-4.75-.06,0-.1.02-.16.02-.07,0-.12-.03-.19-.03-3.16,0-4.74,1.58-4.74,4.75v50.1c-1.28,13.54-4.49,26.71-9.74,39.5-9.07,18.8-20.51,28.23-34.3,28.28-2.33-.05-3.51-3.34-3.51-9.88v-57.36h16.82c1.18,0,2.27-.5,3.26-1.48.99-.99,1.48-2.08,1.48-3.26,0-3.17-1.58-4.75-4.74-4.75h-16.82v-21.56c0-3.3-1.58-4.94-4.74-4.94s-4.75,1.65-4.75,4.94l-.2,21.56h-15.03c-3.17,0-4.75,1.58-4.75,4.75s1.58,4.75,4.75,4.75h15.03l.2,59.74c0,11.15,4.22,16.78,12.63,16.97.09,0,.16.04.25.04.04,0,.07,0,.11,0,.02,0,.04,0,.06,0,.03,0,.05-.01.08-.01,19.93-.1,34.56-12.42,43.91-36.88v31.95c0,3.17,1.65,4.75,4.95,4.75,3.03,0,4.55-1.58,4.55-4.75,0-18.72,4.88-35.08,14.64-49.05,2.9-4.08,5.27-6.92,7.12-8.5,2.9-2.38,6.07-3.56,9.49-3.56,2.24,0,4.09.86,5.54,2.57,1.45,1.71,2.18,3.69,2.18,5.93v40.36c0,11.33,4.41,16.99,13.22,17.01,0,0,.01,0,.02,0,0,0,0,0,0,0,0,0,0,0,0,0s0,0,0,0c13.17,0,25.61-4.66,37.34-13.93,4.6,9.29,11.8,13.93,21.6,13.93,5.54,0,10.48-1.45,14.83-4.35,1.18-.79,5.34-3.96,12.46-9.5,1.18-.92,1.78-2.11,1.78-3.56,0-3.3-1.65-4.94-4.95-4.94Zm-37.98-33.04c3.17-6.99,7.98-10.48,14.44-10.48,3.69,0,5.54,1.58,5.54,4.74,0,5.14-2.17,10.42-6.53,15.83-6.33,6.2-11.8,11.34-16.42,15.43-.39-1.84-.59-4.08-.59-6.72,0-7.39,1.19-13.65,3.56-18.79Z"></path><path class="cls-2" d="m266.52,105.47c0,3.17-1.58,4.75-4.74,4.75h-43.71l-.2,118.48c0,3.04-1.58,4.55-4.74,4.55s-4.95-1.52-4.95-4.55v-118.48h-43.71c-3.17,0-4.75-1.58-4.75-4.75s1.58-4.55,4.75-4.55h97.12c3.3,0,4.94,1.52,4.94,4.55Z"></path><path class="cls-2" d="m558.6,271.82l-5.14,4.35c-3.3,2.77-6.07,4.15-8.31,4.15-3.69,0-6.06-2.05-7.12-6.13-.53-1.98-.79-5.54-.79-10.68v-101.08c0-3.17-1.58-4.75-4.75-4.75s-4.74,1.72-4.74,5.14c-6.07-3.43-11.14-5.14-15.23-5.14-11.87,0-21.03,5.54-27.49,16.61-5.01,8.57-7.52,17.41-7.52,26.51v4.75l.59,2.96c.53,6.46,2.77,12.07,6.73,16.82,4.35,5.27,9.63,7.91,15.83,7.91,10.95,0,19.98-6.92,27.1-20.77v46.48c0,9.63.73,16.42,2.17,20.37,2.51,6.99,7.58,10.48,15.23,10.48,4.35,0,8.57-1.78,12.66-5.34,1.45-1.05,3.17-2.77,5.14-5.14.53-.92.79-1.84.79-2.77,0-1.19-.56-2.27-1.68-3.26-1.12-.99-2.27-1.48-3.46-1.48Zm-37.78-67.84c-5.41,13.18-12.13,19.78-20.18,19.78-4.88,0-8.51-2.83-10.88-8.51-1.71-4.09-2.57-8.97-2.57-14.64,0-7.65,1.98-14.7,5.94-21.17,4.88-8.05,11.34-12.06,19.38-12.06,3.17,0,8.11,2.04,14.84,6.13,0,9.63-2.18,19.78-6.53,30.46Z"></path><path class="cls-2" d="m929.07,157.69c-7.91,0-14.64,3.36-20.18,10.09v-61.71c0-3.17-1.58-4.75-4.75-4.75s-4.74,1.58-4.74,4.75v122.44c0,3.17,1.58,4.75,4.74,4.75s4.75-1.58,4.75-4.75v-3.16c5.14,5.27,10.88,7.91,17.21,7.91,9.49,0,16.88-3.96,22.15-11.87,4.61-6.86,6.92-15.3,6.92-25.32s-1.78-18.59-5.34-25.32c-4.61-8.7-11.54-13.05-20.77-13.05Zm12.26,56.57c-3.43,6.33-8.51,9.5-15.23,9.5-5.01,0-9.1-2.44-12.26-7.32-2.64-3.96-4.29-8.7-4.95-14.24v-6.53c0-7.25,1.52-13.52,4.55-18.79,3.56-6.33,8.77-9.49,15.62-9.49,10.95,0,16.42,9.36,16.42,28.09,0,7.39-1.38,13.65-4.15,18.79Z"></path><path class="cls-2" d="m740.86,169.21c-.92,1.05-1.96,1.57-3.14,1.57-1.31,0-3.8-.92-7.46-2.75-1.31-.39-3.54-.59-6.68-.59-6.81,0-12.64,3.86-17.48,11.59-3.54,5.63-5.3,11.26-5.3,16.9,0,1.44.13,3.86.39,7.27,1.05,13.49,9.69,20.23,25.93,20.23,3.14,0,4.72,1.57,4.72,4.71s-1.57,4.71-4.72,4.71c-9.95,0-18.01-2.29-24.16-6.87-6.68-4.98-10.41-12.25-11.2-21.81-.39-4.71-.59-7.46-.59-8.25,0-7.07,2.23-14.28,6.68-21.61,6.68-11,15.26-16.5,25.73-16.5,5.76,0,11.13,1.31,16.11,3.93,1.7.92,2.55,2.29,2.55,4.13,0,1.18-.46,2.29-1.38,3.34Zm-3.73,51.67c1.83-1.18,4.32-3.67,7.46-7.46,1.05-1.18,2.36-1.77,3.93-1.77,3.14,0,4.65,1.57,4.52,4.72-.39,1.05-.79,1.9-1.18,2.55-6.02,9.3-14.21,13.95-24.56,13.95-2.1-.13-3.21-1.7-3.34-4.71.13-2.23,1.18-3.8,3.14-4.71,4.19,0,7.53-.85,10.02-2.55Z"></path><path class="cls-2" d="m375.2,213.21c3.27,6.81,7.99,10.22,14.14,10.22,3.14,0,4.72,1.57,4.72,4.71s-1.64,4.71-4.91,4.71c-12.97,0-21.35-8.18-25.15-24.56-1.05-4.45-1.57-8.38-1.57-11.79,0-9.69,2.1-18.2,6.29-25.54,4.98-8.78,11.98-13.16,21.02-13.16,3.54,0,6.94,1.51,10.22,4.52s4.91,6.29,4.91,9.82c0,11.79-9.89,25.47-29.66,41.06Zm14.54-45.77c-6.42,0-11.2,3.47-14.34,10.41-2.36,5.11-3.54,11.33-3.54,18.66,0,2.62.2,4.85.59,6.68,4.58-4.06,10.02-9.17,16.3-15.32,4.32-5.37,6.48-10.61,6.48-15.72,0-3.14-1.83-4.71-5.5-4.71Zm10.81,52.25l9.82-7.86c1.05-.78,1.96-1.18,2.75-1.18,3.27,0,4.91,1.64,4.91,4.91,0,1.44-.59,2.62-1.77,3.53-7.07,5.5-11.2,8.64-12.38,9.43-4.32,2.88-9.23,4.32-14.73,4.32-2.62-.52-3.86-1.96-3.73-4.32-.26-2.36.98-4.06,3.73-5.11,3.8,0,7.6-1.24,11.39-3.73Z"></path><path class="cls-2" d="m1419.4,108.61c-1.18,0-3.01-.42-5.5-1.28-2.49-.85-4.39-1.28-5.7-1.28-11.52,0-17.29,5.89-17.29,17.68v117.48c0,8.64-2.49,16.7-7.46,24.16-5.5,8.38-12.38,12.57-20.63,12.57-10.61,0-18.79-3.41-24.56-10.22-.79-.92-1.18-1.9-1.18-2.95,0-3.27,1.64-4.91,4.91-4.91.39,0,2.03,1.02,4.91,3.05,2.88,2.03,4.78,3.17,5.7,3.44,4.19,1.31,7.6,1.96,10.22,1.96,5.76,0,10.41-3.21,13.95-9.63,3.01-5.37,4.52-11.2,4.52-17.48v-117.48c0-8.51,2.36-15.16,7.07-19.94,4.71-4.78,11.33-7.17,19.84-7.17,5.76,0,10.28.98,13.55,2.95,1.57.92,2.36,2.23,2.36,3.93,0,3.41-1.57,5.11-4.71,5.11Zm3.54,53.04l-13.16,5.5c-4.98,2.1-12.84,3.14-23.57,3.14-6.94,0-13.42-.92-19.45-2.75-3.14-.92-8.45-2.88-15.91-5.89-1.97-.78-2.95-2.16-2.95-4.12,0-3.41,1.64-5.11,4.91-5.11.39,0,1.05.13,1.96.39,11.79,5.37,22.26,8.05,31.43,8.05s20.23-2.69,32.81-8.05c1.05-.26,1.7-.39,1.97-.39,3.14,0,4.71,1.64,4.71,4.91,0,2.1-.92,3.54-2.75,4.32Z"></path><path class="cls-2" d="m338.89,231.38c-.98.98-2.06,1.47-3.24,1.47-8.78,0-13.16-5.63-13.16-16.89v-40.07c0-2.23-.72-4.19-2.16-5.89s-3.27-2.55-5.5-2.55c-3.41,0-6.55,1.18-9.43,3.54-1.83,1.57-4.19,4.39-7.07,8.45-9.69,13.88-14.54,30.12-14.54,48.72,0,3.14-1.51,4.71-4.52,4.71-3.27,0-4.91-1.57-4.91-4.71v-121.6c0-3.14,1.57-4.71,4.71-4.71s4.71,1.57,4.71,4.71v78.38c1.05-1.83,3.14-5.3,6.29-10.41l.2-.39c7.73-10.87,15.91-16.3,24.56-16.3,4.98,0,9.07,1.77,12.28,5.3,3.21,3.53,4.81,7.79,4.81,12.77v37.72c0,6.29,1.18,9.56,3.54,9.82,3.27.39,4.91,1.96,4.91,4.71,0,1.18-.49,2.26-1.47,3.24Zm-3.44-7.96c1.7.13,5.04-3.14,10.02-9.82,1.05-1.44,2.42-2.16,4.13-2.16,2.75,0,4.12,1.24,4.12,3.73,0,1.18-2.29,4.78-6.87,10.81-3.67,4.71-7.4,7.01-11.2,6.87-3.93-3.8-4-6.94-.2-9.43Z"></path><path class="cls-2" d="m655.58,140.52c-3.54,0-5.3-1.77-5.3-5.3s1.77-5.3,5.3-5.3,5.5,1.77,5.5,5.3-1.83,5.3-5.5,5.3Zm11.69,90.86c-.98.98-2.06,1.47-3.24,1.47-8.77,0-13.16-5.63-13.16-16.89v-53.43c0-3.14,1.57-4.71,4.71-4.71s4.71,1.57,4.71,4.71v51.08c0,6.29,1.18,9.56,3.54,9.82,3.27.39,4.91,1.96,4.91,4.71,0,1.18-.49,2.26-1.47,3.24Zm-3.44-7.96c1.7.13,5.04-3.14,10.02-9.82,1.05-1.44,2.42-2.16,4.13-2.16,2.75,0,4.13,1.24,4.13,3.73,0,1.18-2.29,4.78-6.88,10.81-3.67,4.71-7.4,7.01-11.2,6.87-3.93-3.8-3.99-6.94-.2-9.43Z"></path><path class="cls-2" d="m812.11,231.38c-.98.98-2.06,1.47-3.24,1.47-7.33,0-12.84-2.88-16.5-8.64l-14.34-22.59c-1.31,7.34-1.96,16.17-1.96,26.52,0,3.14-1.51,4.71-4.52,4.71-3.27,0-4.91-1.57-4.91-4.71v-121.6c0-3.14,1.57-4.71,4.71-4.71s4.71,1.57,4.71,4.71v66.01c5.11-9.82,11.46-14.73,19.06-14.73,8.25,0,12.38,4.78,12.38,14.34,0,5.24-2.06,10.45-6.19,15.62s-8.74,8.81-13.85,10.9l12.97,20.43c1.83,2.88,4.65,4.32,8.45,4.32,3.14,0,4.71,1.57,4.71,4.71,0,1.18-.49,2.26-1.47,3.24Zm-16.99-63.94c-4.58,0-8.32,3.67-11.2,11-1.7,4.32-3.08,8.84-4.13,13.55,4.06,0,8.12-2.29,12.18-6.87s6.09-8.91,6.09-12.97c0-3.14-.98-4.71-2.95-4.71Zm13.55,55.99c1.7.13,5.04-3.14,10.02-9.82,1.05-1.44,2.42-2.16,4.13-2.16,2.75,0,4.13,1.24,4.13,3.73,0,1.18-2.29,4.78-6.88,10.81-3.67,4.71-7.4,7.01-11.2,6.87-3.93-3.8-4-6.94-.2-9.43Z"></path><path class="cls-2" d="m1269.79,231.38c-.98.98-2.06,1.47-3.24,1.47-8.77,0-13.16-5.63-13.16-16.89v-34.38c0-9.43-3.54-14.14-10.61-14.14-8.38,0-15,8.51-19.84,25.54-3.54,12.44-5.3,24.16-5.3,35.16,0,3.14-1.57,4.71-4.71,4.71s-4.71-1.57-4.71-4.71v-65.61c0-3.14,1.57-4.71,4.71-4.71s4.71,1.57,4.71,4.71v19.25c1.44-5.76,4.52-11.07,9.23-15.91,5.11-5.37,10.41-8.05,15.91-8.05,6.68,0,11.72,2.26,15.13,6.78s5.11,10.18,5.11,16.99v32.02c0,6.55,1.18,9.82,3.54,9.82,3.14,0,4.71,1.57,4.71,4.71,0,1.18-.49,2.26-1.47,3.24Zm-3.24-7.96c1.7.13,5.04-3.14,10.02-9.82,1.05-1.44,2.42-2.16,4.13-2.16,2.75,0,4.13,1.24,4.13,3.73,0,1.18-2.29,4.78-6.88,10.81-3.67,4.71-7.46,7.01-11.39,6.87-3.8-3.8-3.8-6.94,0-9.43Z"></path><path class="cls-2" d="m1077.76,220.87c-5.5,7.99-12.84,11.98-22,11.98-16.11,0-24.16-12.64-24.16-37.91,0-9.69,2.23-18.01,6.68-24.95,5.11-8.12,12.25-12.18,21.41-12.18s15.91,4.32,20.23,12.97c3.41,6.68,5.11,15.06,5.11,25.15s-2.42,18.01-7.27,24.95Zm-18.07-53.43c-6.55,0-11.46,3.21-14.73,9.63-2.62,4.98-3.93,11.07-3.93,18.27,0,18.73,4.91,28.09,14.73,28.09,6.55,0,11.66-3.21,15.32-9.63,3.01-5.24,4.52-11.4,4.52-18.47,0-18.6-5.3-27.9-15.91-27.9Z"></path><path class="cls-2" d="m1470.2,220.87c-5.5,7.99-12.84,11.98-22,11.98-16.11,0-24.16-12.64-24.16-37.91,0-9.69,2.23-18.01,6.68-24.95,5.11-8.12,12.25-12.18,21.41-12.18s15.91,4.32,20.23,12.97c3.41,6.68,5.11,15.06,5.11,25.15s-2.42,18.01-7.27,24.95Zm-18.07-53.43c-6.55,0-11.46,3.21-14.73,9.63-2.62,4.98-3.93,11.07-3.93,18.27,0,18.73,4.91,28.09,14.73,28.09,6.55,0,11.66-3.21,15.32-9.63,3.01-5.24,4.52-11.4,4.52-18.47,0-18.6-5.3-27.9-15.91-27.9Z"></path><path class="cls-2" d="m992.84,159.39c.92-.52,1.9-.92,2.95-1.18,1.31-.39,2.62-.59,3.93-.59,2.23,0,4.55,1.96,6.97,5.89,2.42,3.93,5.14,5.89,8.15,5.89s5.17-.46,6.48-1.37c1.31-.92,2.62-1.44,3.93-1.57,2.49,0,3.73,1.31,3.73,3.93-.65,4.98-5.37,7.79-14.14,8.45-5.24,0-10.08-2.94-14.54-8.84-.65-.92-1.31-1.64-1.96-2.16-4.19-.13-9.17,8.91-14.93,27.11-1.05,4.19-1.97,8.51-2.75,12.97-.65,3.41-1.9,10.08-3.73,20.04-.65,3.27-2.36,4.91-5.11,4.91-3.14,0-4.71-1.57-4.71-4.71v-65.61c0-3.14,1.57-4.71,4.71-4.71s4.71,1.57,4.71,4.71v26.91c1.96-5.37,3.8-10.15,5.5-14.34,2.62-6.55,5.5-11.2,8.64-13.95.65-.66,1.38-1.24,2.16-1.77Z"></path><path class="cls-2" d="m621.91,231.38c-.98.98-2.06,1.47-3.24,1.47-8.78,0-13.16-5.63-13.16-16.89v-12.57l-2.75,6.68c-6.29,15.19-14.73,22.79-25.34,22.79-6.55,0-11.66-2.62-15.32-7.86-3.14-4.45-4.71-10.15-4.71-17.09v-45.38c0-3.14,1.57-4.71,4.71-4.71s4.71,1.57,4.71,4.71v45.38c0,3.93.79,7.33,2.36,10.22,1.97,3.53,4.71,5.3,8.25,5.3,11.92,0,21.28-20.37,28.09-61.1,0-3.01,1.51-4.52,4.52-4.52,3.27,0,4.91,1.57,4.91,4.71v51.08c0,6.55,1.24,9.82,3.73,9.82,3.14,0,4.71,1.57,4.71,4.71,0,1.18-.49,2.26-1.47,3.24Zm-3.24-7.96c1.7.13,5.04-3.14,10.02-9.82,1.05-1.44,2.42-2.16,4.13-2.16,2.75,0,4.12,1.24,4.12,3.73,0,1.18-2.29,4.78-6.87,10.81-3.67,4.71-7.46,7.01-11.39,6.87-3.8-3.8-3.8-6.94,0-9.43Z"></path><path class="cls-2" d="m206.54,427.74v93.56c0,9.36-3.2,17.24-9.59,23.64-6.39,6.39-14.27,9.59-23.64,9.59-8.17,0-16.48-3.1-24.92-9.3-1.32-.92-1.98-2.24-1.98-3.96,0-3.17,1.52-4.75,4.55-4.75,1.05,0,2.11.33,3.16.99,6.46,5.01,12.86,7.52,19.19,7.52,6.86,0,12.49-2.24,16.91-6.73,4.42-4.48,6.63-10.15,6.63-17.01v-93.56c0-3.17,1.58-4.75,4.75-4.75s4.94,1.58,4.94,4.75Z"></path><path class="cls-2" d="m207.14,400.25c0,3.56-1.85,5.34-5.54,5.34-3.43,0-5.14-1.78-5.14-5.34s1.71-5.34,5.14-5.34c3.69,0,5.54,1.78,5.54,5.34Z"></path><path class="cls-2" d="m551.54,460.77c4.29,4.22,6.43,9.23,6.43,15.03,0,6.86-2.21,12.36-6.63,16.52-4.42,4.15-10.05,6.23-16.91,6.23-4.09,0-8.64-1.39-13.65-4.15-5.67-3.04-8.5-6.4-8.5-10.09,0-3.03,1.65-4.55,4.94-4.55,1.32,0,2.84.92,4.55,2.77,2.11,2.24,3.76,3.7,4.95,4.35,2.64,1.45,5.21,2.17,7.71,2.17,4.08,0,7.42-1.19,9.99-3.56,2.57-2.38,3.86-5.61,3.86-9.7,0-3.16-1.19-5.93-3.56-8.3-2.38-2.37-5.14-3.56-8.31-3.56-5.93,0-10.91-1.85-14.93-5.54-4.02-3.7-6.04-8.51-6.04-14.44s2.05-10.75,6.14-14.83c4.08-4.09,9.03-6.14,14.83-6.14,7.12,0,12.99,2.83,17.61,8.51.79.92,1.18,1.98,1.18,3.17,0,3.16-1.58,4.74-4.74,4.74-1.19,0-2.57-.66-4.16-1.98-2.37-1.98-3.76-3.1-4.15-3.36-1.71-.92-3.63-1.38-5.74-1.38-3.3,0-6.03,1.05-8.21,3.16-2.17,2.11-3.26,4.82-3.26,8.11,0,3.03,1.12,5.54,3.36,7.52,2.24,1.98,4.94,2.97,8.11,2.97,5.8,0,10.85,2.11,15.13,6.33Z"></path><path class="cls-2" d="m1416.01,430.51l-39.36,58.55h35.4c3.17,0,4.75,1.58,4.75,4.74s-1.58,4.75-4.75,4.75h-44.31c-3.56,0-5.34-1.25-5.34-3.76,0-1.19.46-2.44,1.39-3.76l39.36-58.35h-35.4c-3.17,0-4.75-1.65-4.75-4.95s1.58-4.75,4.75-4.75h44.31c3.56,0,5.34,1.32,5.34,3.96,0,1.06-.46,2.24-1.39,3.56Z"></path><path class="cls-2" d="m1486.42,427.74v94.15c0,9.63-3.1,17.57-9.3,23.83-6.2,6.26-14.11,9.39-23.74,9.39-4.61,0-9.3-.86-14.05-2.57-5.27-1.85-9.23-4.35-11.87-7.52-.79-.92-1.18-1.98-1.18-3.17,0-3.17,1.65-4.75,4.94-4.75.92,0,2.84.99,5.74,2.97,2.9,1.98,4.74,3.1,5.54,3.36,4.22,1.45,7.84,2.17,10.88,2.17,6.72,0,12.3-2.27,16.71-6.83,4.42-4.55,6.63-10.18,6.63-16.91v-53.01l-2.97,6.72c-6.73,15.3-15.17,22.95-25.32,22.95-6.59,0-11.74-2.64-15.43-7.91-3.16-4.48-4.74-10.22-4.74-17.21v-45.69c0-3.17,1.58-4.75,4.74-4.75s4.75,1.58,4.75,4.75v45.69c0,3.96.79,7.39,2.37,10.29,1.98,3.56,4.75,5.34,8.31,5.34,12,0,21.43-20.51,28.29-61.52,0-2.9,1.58-4.35,4.74-4.35s4.95,1.52,4.95,4.55Z"></path><path class="cls-2" d="m1760.34,422.99c-3.3,0-4.95,1.72-4.95,5.14-6.07-3.43-11.08-5.14-15.03-5.14-11.87,0-21.1,5.54-27.7,16.61-4.88,8.31-7.32,17.14-7.32,26.51v4.75c.13,1.45.26,2.44.39,2.96.92,6.73,3.17,12.33,6.73,16.82,4.22,5.27,9.49,7.91,15.83,7.91,9.76,0,18.86-7.12,27.3-21.36v44.7c0,6.73-2.27,12.36-6.83,16.91-4.55,4.55-10.18,6.83-16.91,6.83-3.04,0-6.33-.59-9.89-1.78-4.08-1.32-6.92-2.97-8.5-4.95-.92-1.18-2.11-1.78-3.56-1.78-3.3,0-4.95,1.58-4.95,4.75,0,1.19.39,2.24,1.19,3.17,2.64,3.16,6.59,5.67,11.87,7.52,4.75,1.71,9.36,2.57,13.85,2.57,9.36,0,17.24-3.2,23.64-9.59,6.39-6.39,9.59-14.27,9.59-23.64v-94.15c0-3.17-1.58-4.75-4.74-4.75Zm-4.75,22.75c-.53,4.74-1.32,8.9-2.37,12.46-2.9,9.76-7.39,18.06-13.45,24.92-3.56,3.96-7.39,5.94-11.47,5.94-4.75,0-8.31-2.83-10.68-8.51-1.71-4.09-2.57-8.97-2.57-14.64,0-8.31,2.11-15.69,6.33-22.15,4.75-7.39,11.08-11.08,18.99-11.08,3.82,0,8.9,2.11,15.23,6.33v6.73Z"></path><path class="cls-2" d="m1342.86,496.88c-.98.98-2.06,1.47-3.24,1.47-8.78,0-13.16-5.63-13.16-16.89v-11.4l-2.75,5.5c-2.88,5.76-6.29,10.67-10.22,14.73-5.11,5.37-10.15,8.05-15.13,8.05-11.26,0-18.01-8.18-20.23-24.56-.26-.79-.39-1.77-.39-2.95v-4.71c0-9.04,2.49-17.81,7.46-26.32,6.42-11,15.58-16.5,27.5-16.5,4.32,0,8.91,1.44,13.75,4.32,0-2.88,1.57-4.32,4.71-4.32s4.72,1.57,4.72,4.71v51.08c0,6.29,1.18,9.56,3.54,9.82,3.27.39,4.91,1.96,4.91,4.71,0,1.18-.49,2.26-1.47,3.24Zm-30.15-63.94c-7.73,0-14.01,3.67-18.86,11-4.32,6.55-6.48,13.88-6.48,22,0,15.32,3.67,22.98,11,22.98,4.85,0,10.48-5.96,16.89-17.88,4.32-7.99,7.66-19.06,10.02-33.2-5.89-3.27-10.08-4.91-12.57-4.91Zm26.72,55.99c1.7.13,5.04-3.14,10.02-9.82,1.05-1.44,2.42-2.16,4.13-2.16,2.75,0,4.12,1.24,4.12,3.73,0,1.18-2.29,4.78-6.87,10.81-3.67,4.71-7.4,7.01-11.2,6.87-3.93-3.8-4-6.94-.2-9.43Z"></path><path class="cls-2" d="m1613.45,498.31c-8.51,0-12.77-5.63-12.77-16.89v-5.7c-8.77,15.06-18.14,22.59-28.09,22.59-6.94,0-12.25-3.47-15.91-10.41-3.01-5.5-4.52-12.05-4.52-19.64v-2.16c0-11.26,2.95-20.96,8.84-29.08,6.55-9.17,15.19-13.75,25.93-13.75,4.45,0,8.78,1.31,12.97,3.93,0-5.63.13-13.98.39-25.05.26-11.07.39-19.41.39-25.05v-5.11c0-3.14,1.57-4.71,4.72-4.71s4.91,1.57,4.91,4.71v107.06c0,6.55,1.11,9.82,3.34,9.82,3.14,0,4.71,1.57,4.71,4.71s-1.64,4.71-4.91,4.71Zm-26.52-65.42c-7.86,0-14.14,3.67-18.86,11-4.19,6.42-6.29,13.75-6.29,22,0,15.32,3.6,22.98,10.81,22.98,4.19,0,7.99-1.96,11.39-5.89,5.5-6.29,9.36-13.36,11.59-21.21,1.57-5.5,2.75-13.62,3.54-24.36-4.72-3.01-8.78-4.52-12.18-4.52Zm26.72,55.99c1.7.13,5.04-3.14,10.02-9.82,1.05-1.44,2.42-2.16,4.13-2.16,2.75,0,4.12,1.24,4.12,3.73,0,1.18-2.29,4.78-6.87,10.81-3.67,4.71-7.4,7.01-11.2,6.87-3.93-3.8-4-6.94-.2-9.43Z"></path><path class="cls-2" d="m786.75,478.81c3.27,6.81,7.99,10.22,14.14,10.22,3.14,0,4.72,1.57,4.72,4.71s-1.64,4.71-4.91,4.71c-12.97,0-21.35-8.18-25.15-24.56-1.05-4.45-1.57-8.38-1.57-11.79,0-9.69,2.1-18.2,6.29-25.54,4.98-8.78,11.98-13.16,21.02-13.16,3.54,0,6.94,1.51,10.22,4.52s4.91,6.29,4.91,9.82c0,11.79-9.89,25.47-29.66,41.06Zm14.54-45.77c-6.42,0-11.2,3.47-14.34,10.41-2.36,5.11-3.54,11.33-3.54,18.66,0,2.62.2,4.85.59,6.68,4.58-4.06,10.02-9.17,16.3-15.32,4.32-5.37,6.48-10.61,6.48-15.72,0-3.14-1.83-4.71-5.5-4.71Zm10.81,52.25l9.82-7.86c1.05-.78,1.96-1.18,2.75-1.18,3.27,0,4.91,1.64,4.91,4.91,0,1.44-.59,2.62-1.77,3.53-7.07,5.5-11.2,8.64-12.38,9.43-4.32,2.88-9.23,4.32-14.73,4.32-2.62-.52-3.86-1.96-3.73-4.32-.26-2.36.98-4.06,3.73-5.11,3.8,0,7.6-1.24,11.39-3.73Z"></path><path class="cls-2" d="m1124.75,478.72c3.27,6.81,7.99,10.22,14.14,10.22,3.14,0,4.72,1.57,4.72,4.71s-1.64,4.71-4.91,4.71c-12.97,0-21.35-8.18-25.15-24.56-1.05-4.45-1.57-8.38-1.57-11.79,0-9.69,2.1-18.2,6.29-25.54,4.98-8.78,11.98-13.16,21.02-13.16,3.54,0,6.94,1.51,10.22,4.52s4.91,6.29,4.91,9.82c0,11.79-9.89,25.47-29.66,41.06Zm14.54-45.77c-6.42,0-11.2,3.47-14.34,10.41-2.36,5.11-3.54,11.33-3.54,18.66,0,2.62.2,4.85.59,6.68,4.58-4.06,10.02-9.17,16.3-15.32,4.32-5.37,6.48-10.61,6.48-15.72,0-3.14-1.83-4.71-5.5-4.71Zm10.81,52.25l9.82-7.86c1.05-.78,1.96-1.18,2.75-1.18,3.27,0,4.91,1.64,4.91,4.91,0,1.44-.59,2.62-1.77,3.53-7.07,5.5-11.2,8.64-12.38,9.43-4.32,2.88-9.23,4.32-14.73,4.32-2.62-.52-3.86-1.96-3.73-4.32-.26-2.36.98-4.06,3.73-5.11,3.8,0,7.6-1.24,11.39-3.73Z"></path><path class="cls-2" d="m1088.44,496.88c-.98.98-2.06,1.47-3.24,1.47-8.78,0-13.16-5.63-13.16-16.89v-40.07c0-2.23-.72-4.19-2.16-5.89s-3.27-2.55-5.5-2.55c-3.41,0-6.55,1.18-9.43,3.54-1.83,1.57-4.19,4.39-7.07,8.45-9.69,13.88-14.54,30.12-14.54,48.72,0,3.14-1.51,4.71-4.52,4.71-3.27,0-4.91-1.57-4.91-4.71v-121.6c0-3.14,1.57-4.71,4.71-4.71s4.71,1.57,4.71,4.71v78.38c1.05-1.83,3.14-5.3,6.29-10.41l.2-.39c7.73-10.87,15.91-16.3,24.56-16.3,4.98,0,9.07,1.77,12.28,5.3,3.21,3.53,4.81,7.79,4.81,12.77v37.72c0,6.29,1.18,9.56,3.54,9.82,3.27.39,4.91,1.96,4.91,4.71,0,1.18-.49,2.26-1.47,3.24Zm-3.44-7.96c1.7.13,5.04-3.14,10.02-9.82,1.05-1.44,2.42-2.16,4.13-2.16,2.75,0,4.12,1.24,4.12,3.73,0,1.18-2.29,4.78-6.87,10.81-3.67,4.71-7.4,7.01-11.2,6.87-3.93-3.8-4-6.94-.2-9.43Z"></path><path class="cls-2" d="m1250.96,496.55c-.98.98-2.06,1.47-3.24,1.47-8.77,0-13.16-5.63-13.16-16.89v-109.42c0-3.14,1.57-4.71,4.71-4.71s4.71,1.57,4.71,4.71v107.06c0,6.55,1.24,9.82,3.73,9.82,3.14,0,4.71,1.57,4.71,4.71,0,1.18-.49,2.26-1.47,3.24Zm-3.44-7.96c1.7.13,5.04-3.14,10.02-9.82,1.05-1.44,2.42-2.16,4.13-2.16,2.75,0,4.13,1.24,4.13,3.73,0,1.18-2.29,4.78-6.88,10.81-3.67,4.71-7.4,7.01-11.2,6.87-3.93-3.8-3.99-6.94-.2-9.43Z"></path><path class="cls-2" d="m416.23,498.45c-8.64,0-12.97-5.63-12.97-16.89v-34.38c0-9.43-3.6-14.14-10.8-14.14-9.17,0-15.58,8.51-19.25,25.54-2.23,10.34-3.34,22.07-3.34,35.16,0,3.14-1.57,4.71-4.71,4.71s-4.91-1.57-4.91-4.71v-46.56c0-9.43-3.21-14.14-9.63-14.14-8.38,0-15.19,8.45-20.43,25.34-3.8,12.31-5.7,24.1-5.7,35.36,0,3.14-1.57,4.71-4.71,4.71s-4.71-1.57-4.71-4.71v-65.61c0-3.14,1.57-4.71,4.71-4.71s4.71,1.57,4.71,4.71v21.61c1.7-6.42,4.85-12.18,9.43-17.29,5.24-6.02,10.8-9.04,16.7-9.04,10.87,0,17.22,6.02,19.06,18.07,5.76-12.05,13.36-18.07,22.79-18.07,6.68,0,11.72,2.26,15.13,6.78s5.11,10.18,5.11,16.99v32.02c0,3.93.26,6.42.79,7.46.79,1.44,1.97,2.16,3.54,2.16,2.62,1.83,3.93,3.47,3.93,4.91,0,3.14-1.57,4.71-4.71,4.71Zm-.39-9.43c1.7.13,5.04-3.14,10.02-9.82,1.05-1.44,2.42-2.16,4.13-2.16,2.75,0,4.13,1.24,4.13,3.73,0,1.18-2.29,4.78-6.88,10.81-3.67,4.71-7.4,7.01-11.2,6.87-3.93-3.8-3.99-6.94-.2-9.43Z"></path><path class="cls-2" d="m672.39,486.48c-5.5,7.99-12.84,11.98-22,11.98-16.11,0-24.16-12.64-24.16-37.91,0-9.69,2.23-18.01,6.68-24.95,5.11-8.12,12.25-12.18,21.41-12.18s15.91,4.32,20.23,12.97c3.41,6.68,5.11,15.06,5.11,25.15s-2.42,18.01-7.27,24.95Zm-18.07-53.43c-6.55,0-11.46,3.21-14.73,9.63-2.62,4.98-3.93,11.07-3.93,18.27,0,18.73,4.91,28.09,14.73,28.09,6.55,0,11.66-3.21,15.32-9.63,3.01-5.24,4.52-11.4,4.52-18.47,0-18.6-5.3-27.9-15.91-27.9Z"></path><path class="cls-2" d="m1688.08,486.31c-5.5,7.99-12.84,11.98-22,11.98-16.11,0-24.16-12.64-24.16-37.91,0-9.69,2.23-18.01,6.68-24.95,5.11-8.12,12.25-12.18,21.41-12.18s15.91,4.32,20.23,12.97c3.41,6.68,5.11,15.06,5.11,25.15s-2.42,18.01-7.27,24.95Zm-18.07-53.43c-6.55,0-11.46,3.21-14.73,9.63-2.62,4.98-3.93,11.07-3.93,18.27,0,18.73,4.91,28.09,14.73,28.09,6.55,0,11.66-3.21,15.32-9.63,3.01-5.24,4.52-11.4,4.52-18.47,0-18.6-5.3-27.9-15.91-27.9Z"></path><path class="cls-2" d="m496.78,486.52c-5.89,7.99-13.36,11.98-22.4,11.98-7.2,0-13.29-2.55-18.27-7.66v59.13c0,3.14-1.57,4.71-4.71,4.71s-4.71-1.57-4.71-4.71v-121.8c0-3.14,1.57-4.71,4.71-4.71s4.71,1.57,4.71,4.71v5.89c6.29-7.07,13.36-10.61,21.22-10.61,9.3,0,16.44,4.19,21.41,12.57,4.19,7.07,6.29,15.58,6.29,25.54,0,9.3-2.75,17.61-8.25,24.95Zm-5.11-43.81c-3.14-6.42-7.92-9.63-14.34-9.63-6.81,0-12.18,3.08-16.11,9.23-3.41,5.37-5.11,11.66-5.11,18.86v5.89c0,5.76,1.57,10.74,4.71,14.93,3.41,4.71,7.92,7.07,13.55,7.07,6.68,0,11.98-3.14,15.91-9.43,3.41-5.37,5.11-11.59,5.11-18.66s-1.24-13.29-3.73-18.27Z"></path><path class="cls-2" d="m868.32,424.99c.92-.52,1.9-.92,2.95-1.18,1.31-.39,2.62-.59,3.93-.59,2.23,0,4.55,1.96,6.97,5.89,2.42,3.93,5.14,5.89,8.15,5.89s5.17-.46,6.48-1.37c1.31-.92,2.62-1.44,3.93-1.57,2.49,0,3.73,1.31,3.73,3.93-.65,4.98-5.37,7.79-14.14,8.45-5.24,0-10.08-2.94-14.54-8.84-.65-.92-1.31-1.64-1.96-2.16-4.19-.13-9.17,8.91-14.93,27.11-1.05,4.19-1.97,8.51-2.75,12.97-.65,3.41-1.9,10.08-3.73,20.04-.65,3.27-2.36,4.91-5.11,4.91-3.14,0-4.71-1.57-4.71-4.71v-65.61c0-3.14,1.57-4.71,4.71-4.71s4.71,1.57,4.71,4.71v26.91c1.96-5.37,3.8-10.15,5.5-14.34,2.62-6.55,5.5-11.2,8.64-13.95.65-.66,1.38-1.24,2.16-1.77Z"></path><path class="cls-2" d="m1001.79,420.66c-.98.98-2.06,1.47-3.24,1.47h-16.7v56.97c0,6.55,1.18,9.82,3.54,9.82,3.14,0,4.71,1.57,4.71,4.71s-1.57,4.71-4.71,4.71c-8.64,0-12.97-5.63-12.97-16.89l-.2-59.33h-14.93c-3.14,0-4.71-1.57-4.71-4.71s1.57-4.71,4.71-4.71h14.93l.2-21.41c0-3.28,1.57-4.91,4.71-4.91s4.72,1.64,4.72,4.91v21.41h16.7c3.14,0,4.72,1.57,4.72,4.71,0,1.18-.49,2.26-1.47,3.24Zm-16.4,68.27c1.7.13,5.04-3.14,10.02-9.82,1.05-1.44,2.42-2.16,4.13-2.16,2.75,0,4.12,1.24,4.12,3.73,0,1.18-2.29,4.78-6.87,10.81-3.67,4.71-7.46,7.01-11.39,6.87-3.8-3.8-3.8-6.94,0-9.43Z"></path><path class="cls-2" d="m286.81,496.98c-.98.98-2.06,1.47-3.24,1.47-8.78,0-13.16-5.63-13.16-16.89v-12.57l-2.75,6.68c-6.29,15.19-14.73,22.79-25.34,22.79-6.55,0-11.66-2.62-15.32-7.86-3.14-4.45-4.71-10.15-4.71-17.09v-45.38c0-3.14,1.57-4.71,4.71-4.71s4.71,1.57,4.71,4.71v45.38c0,3.93.79,7.33,2.36,10.22,1.97,3.53,4.71,5.3,8.25,5.3,11.92,0,21.28-20.37,28.09-61.1,0-3.01,1.51-4.52,4.52-4.52,3.27,0,4.91,1.57,4.91,4.71v51.08c0,6.55,1.24,9.82,3.73,9.82,3.14,0,4.71,1.57,4.71,4.71,0,1.18-.49,2.26-1.47,3.24Zm-3.24-7.96c1.7.13,5.04-3.14,10.02-9.82,1.05-1.44,2.42-2.16,4.13-2.16,2.75,0,4.12,1.24,4.12,3.73,0,1.18-2.29,4.78-6.87,10.81-3.67,4.71-7.46,7.01-11.39,6.87-3.8-3.8-3.8-6.94,0-9.43Z"></path><path class="cls-2" d="m760.19,429.51l-31.23,65.42c-1.18,2.36-2.62,3.54-4.32,3.54-1.83,0-3.27-1.24-4.32-3.73l-28.09-65.42c-.26-.65-.39-1.31-.39-1.96,0-3.14,1.7-4.71,5.11-4.71,2.1,0,3.54.98,4.32,2.95l23.77,55.59,26.32-55.79c.92-1.83,2.36-2.75,4.32-2.75,3.27,0,4.91,1.51,4.91,4.52,0,.26-.13,1.05-.39,2.36Z"></path><path class="cls-2" d="m1194.57,163.51l-24.36,65.42c-.92,2.62-2.42,3.93-4.52,3.93-2.23,0-3.73-1.38-4.52-4.13l-16.11-52.25-19.64,52.45c-.92,2.62-2.42,3.93-4.52,3.93-2.23,0-3.73-1.38-4.52-4.13l-20.23-65.42c-.13-.13-.2-.72-.2-1.77,0-1.18.52-2.23,1.57-3.14,1.05-.92,2.16-1.37,3.34-1.37,2.23,0,3.67,1.11,4.32,3.34l16.3,52.25,19.64-52.45c.92-2.49,2.42-3.73,4.52-3.73s3.54,1.31,4.32,3.93l16.3,52.25,19.45-52.45c.79-2.1,2.16-3.14,4.13-3.14,3.4,0,5.11,1.57,5.11,4.71,0,.52-.13,1.11-.39,1.77Z"></path><path class="cls-2" d="m1536.9,165.08l-20.82,30.06,20.82,30.06c.52.79.79,1.7.79,2.75,0,3.27-1.57,4.91-4.71,4.91-1.44,0-2.69-.72-3.73-2.16l-18.86-27.11-18.66,27.11c-1.05,1.44-2.29,2.16-3.73,2.16-3.41,0-5.11-1.64-5.11-4.91,0-.92.33-1.83.98-2.75l20.63-30.06-20.63-30.06c-.65-.92-.98-1.83-.98-2.75,0-3.14,1.7-4.71,5.11-4.71,1.57,0,2.82.65,3.73,1.96l18.66,27.11,18.86-27.11c.92-1.31,2.16-1.96,3.73-1.96,3.27,0,4.91,1.57,4.91,4.71,0,.92-.33,1.83-.98,2.75Z"></path></g></svg> 