<?xml version="1.0" encoding="UTF-8"?> <svg xmlns="http://www.w3.org/2000/svg" id="Layer_1" viewBox="0 0 450 335"><defs><style>.cls-1{fill:#fff;}.cls-2{fill:#ececec;}.cls-3{fill:#bca5cf;}.cls-4{fill:#111035;}</style></defs><rect class="cls-1" x="-.33" width="450" height="335"></rect><rect class="cls-2" x="-.33" y="199.03" width="450" height="51.63"></rect><rect class="cls-2" x="-.33" y="89.63" width="450" height="46.01"></rect><polygon class="cls-3" points="300.65 250.66 282.01 250.66 301.89 89.63 320.53 89.63 300.65 250.66"></polygon><path class="cls-4" d="m150.13,163.06h-8.88c-.11,5.36-.75,10.36-1.93,14.99-1.17,4.63-3.04,8.65-5.61,12.05-2.57,3.41-5.92,6.09-10.05,8.04-4.13,1.95-9.15,2.93-15.07,2.93-5.58,0-10.33-.95-14.23-2.85-3.91-1.9-7.06-4.5-9.46-7.8-2.4-3.3-4.13-7.16-5.19-11.57-1.06-4.42-1.59-9.2-1.59-14.34,0-6.6.79-13.2,2.39-19.79,1.59-6.6,4.07-12.52,7.45-17.78,3.37-5.26,7.77-9.53,13.18-12.83,5.41-3.3,11.92-4.95,19.51-4.95,5.69,0,10.63,1.17,14.82,3.5,4.19,2.34,7.62,6.03,10.3,11.06l-7.2,5.69c-1.9-3.35-4.27-6.22-7.12-8.62-2.85-2.4-6.34-3.6-10.46-3.6-5.92,0-10.94,1.56-15.07,4.69-4.13,3.13-7.51,7.06-10.13,11.8-2.62,4.74-4.52,9.91-5.69,15.49-1.17,5.58-1.76,10.83-1.76,15.74,0,3.57.34,7.03,1.01,10.38.67,3.35,1.82,6.34,3.45,8.96,1.62,2.63,3.81,4.72,6.56,6.28,2.75,1.57,6.19,2.35,10.34,2.35,4.48,0,8.09-.84,10.84-2.51,2.75-1.68,4.9-3.91,6.47-6.7,1.57-2.79,2.63-5.94,3.2-9.46.56-3.52.9-7.12,1.01-10.8h-10.89l1.17-8.03h29.8l-1.17,7.7Z"></path><path class="cls-4" d="m362.34,196.95c-3.35,2.12-6.81,3.18-10.38,3.18-3.79,0-6.5-1.06-8.12-3.18-1.62-2.12-2.43-4.96-2.43-8.54,0-5.47.55-11.16,1.67-17.08,1.12-5.91,1.68-11.61,1.68-17.08,0-2.9-.53-5.21-1.59-6.95-1.06-1.73-3.32-2.59-6.78-2.59-3.13,0-5.92.84-8.37,2.51-2.46,1.67-4.55,3.77-6.28,6.28-1.73,2.51-3.13,5.27-4.19,8.29-1.06,3.01-1.76,5.86-2.09,8.54l-3.52,28.63h-10.05l13.06-109.34h10.04l-6.53,56.26c2.57-3.24,5.55-5.89,8.96-7.95s7.23-3.1,11.47-3.1c5.8,0,9.99,1.59,12.56,4.77,2.57,3.18,3.85,7.51,3.85,12.98s-.62,11.28-1.84,16.75c-1.23,5.47-1.84,11.05-1.84,16.74,0,1.57.36,2.91,1.09,4.02.73,1.12,1.98,1.68,3.77,1.68,1,0,2.06-.39,3.18-1.17l2.68-2.01c8.82-8.48,16.07-18.47,21.77-29.97l5.02,3.85c-7.81,15.07-16.74,26.52-26.79,34.33v.16Z"></path><path class="cls-4" d="m220.63,156.72c0,4.69-.64,9.6-1.93,14.73-1.29,5.14-3.27,9.82-5.95,14.07-.56.78-1.12,1.54-1.67,2.26-.56.73-1.12,1.48-1.68,2.26,4.8-2.01,9.49-5.13,14.07-9.37,4.24-4.24,8.03-8.79,11.38-13.65,3.35-4.86,6.42-9.51,9.21-13.98l5.69,2.51c-2.34,4.69-5.13,9.57-8.37,14.65s-7.03,9.96-11.39,14.65c-4.24,4.47-9.68,8.12-16.32,10.97-6.64,2.85-14.48,4.27-23.52,4.27h-1.84c-5.8,0-10.61-2.01-14.4-6.03l-6.87,56.59h-9.88l11.72-97.93c.22-1.12.39-2.29.5-3.52.11-1.23.16-2.46.16-3.69,0-1.68-.05-3.36-.16-5.03-.11-1.68-.34-3.35-.67-5.03h10.05c.34,1.48.53,2.96.59,4.44.05,1.48.08,2.96.08,4.43,2.68-3.12,5.78-5.69,9.29-7.7,3.52-2.01,7.39-3.02,11.64-3.02,3.46,0,6.45.61,8.96,1.84,2.51,1.23,4.6,2.9,6.28,5.02s2.93,4.58,3.77,7.37c.84,2.79,1.26,5.75,1.26,8.87Zm-10.71,2.01c0-4.13-.81-7.7-2.43-10.72-1.62-3.01-4.71-4.52-9.29-4.52-5.02,0-8.96,1.45-11.8,4.36-2.84,2.9-5.02,6.45-6.53,10.63-1.51,4.19-2.57,8.63-3.18,13.31-.61,4.69-1.2,8.82-1.76,12.39,1.45,2.12,3.15,3.93,5.11,5.44,1.95,1.51,4.33,2.26,7.12,2.26,3.79,0,7.12-1.12,9.97-3.35,2.84-2.23,5.21-5.02,7.11-8.38,1.9-3.35,3.32-6.95,4.27-10.8.95-3.85,1.43-7.39,1.43-10.63Z"></path><path class="cls-4" d="m318.75,114.36v.17l-.5,4.36c-.23,1.9-.42,3.88-.59,5.95-.17,2.07-.53,4.61-1.09,7.62-1.9,2.91-4.49,5.39-7.79,7.46-3.29,2.07-6.56,3.1-9.8,3.1h-5.53c-.11.56-.23,1.09-.34,1.59-.11.5-.28,1.03-.5,1.59-1.57,5.02-3.6,10.67-6.12,16.92-2.51,6.26-5.36,12.12-8.54,17.59-3.18,5.47-6.62,10.08-10.3,13.82-3.69,3.74-7.54,5.61-11.56,5.61s-7.1-1.09-9.02-3.27c-1.92-2.18-3.1-5.28-3.54-9.3-.45-4.24-.75-8.51-.92-12.82-.17-4.3-.25-8.63-.25-12.98v-25.97h9.88v8.32c0,2.85.06,5.85.17,8.99.11,3.14.17,5.94.17,8.4v6.55c0,3.69.05,6.81.17,9.33.11,2.52.28,5.29.5,8.32.11,1.01.3,2.27.59,3.78.28,1.51,1.25,2.27,2.93,2.27,2.01,0,4.04-1.15,6.11-3.44s4.05-5.21,5.95-8.74c1.9-3.53,3.74-7.48,5.53-11.85,1.79-4.37,3.41-8.62,4.86-12.77,1.45-4.14,2.7-7.92,3.77-11.34,1.06-3.42,1.87-6.02,2.43-7.81h12.4c2.46,0,4.78-.56,6.95-1.67,2.18-1.12,4.13-2.6,5.87-4.44,1.73-1.84,3.15-3.91,4.27-6.2,1.11-2.29,1.84-4.55,2.18-6.79l.34-2.35v-.17l1.34.17Z"></path></svg> 