<?xml version="1.0" encoding="UTF-8"?> <svg xmlns="http://www.w3.org/2000/svg" id="Layer_1" viewBox="0 0 450 335"><defs><style>.cls-1{fill:#fff;}.cls-2{fill:#ececec;}.cls-3{fill:#bca5cf;}.cls-4{fill:#111035;}</style></defs><rect class="cls-1" x="-.33" width="450" height="335"></rect><rect class="cls-2" x="-.33" y="199.03" width="450" height="50.5"></rect><rect class="cls-2" x="-.33" y="81.98" width="450" height="53.66"></rect><rect class="cls-3" x="278.79" y="82.12" width="18.64" height="167.41"></rect><path class="cls-4" d="m50.61,199.21c-6.21,0-6.21-8.39,0-8.39h20.46v-100.29h-20.46c-6.37,0-6.71-8.22,0-8.55h49.64c6.37,0,6.54,8.22,0,8.55h-20.63v100.29h20.63c6.54,0,6.54,8.39,0,8.39h-49.64Z"></path><path class="cls-4" d="m122.23,189.66c7.21,0,12.58-8.22,15.93-24.49.84-13.25,10.9-25.16,22.47-29.35,2.01-.5,3.69-.67,5.2-.17.5-.34,1.17-.5,2.18-.5,4.53,0,9.06,1.01,13.25,3.19,10.06,4.53,29.52,4.86,35.72-1.68,3.19-3.52,9.06.5,5.53,5.37-6.54,6.71-16.27,8.89-29.01,6.71,3.35,5.37,5.03,11.4,5.03,18.28,0,18.95-13.58,31.7-31.19,32.2-12.58,0-21.47-5.53-26.5-16.77-4.19,10.06-10.4,15.09-18.62,15.09-6.37,0-6.54-7.88,0-7.88Zm43.1-46.46c-10.57,2.68-19.29,12.91-19.29,23.82,0,15.26,9.9,24.32,21.47,24.32,13.58,0,23.14-11.74,23.14-24.32,0-11.91-8.05-23.98-22.14-23.98-1.17,0-1.84-.17-2.18-.34-.34.34-.67.5-.84.5h-.17Z"></path><path class="cls-4" d="m289.15,182.44c4.7-11.4,3.86-15.6,6.21-22.64,1.34-5.87,8.05-5.03,7.21,1.17-2.18,12.24-4.7,20.96-7.21,25.83-4.02,8.22-9.56,12.24-16.77,12.24-9.9,0-14.93-7.21-14.93-21.47v-10.4c0-14.26-6.21-23.98-19.12-23.98-9.22,0-19.12,7.55-20.29,20.96v30.19c0,6.21-7.71,6.71-7.71,0,0-19.45,0-37.74-.17-54.67,0-5.87,7.88-5.87,7.88,0v5.87c3.19-5.53,13.08-10.4,20.29-10.4,16.94,0,26.83,12.08,26.83,32.03v10.4c0,9.39,1.68,13.75,7.21,13.75,4.53,0,8.05-2.68,10.57-8.89Z"></path><path class="cls-4" d="m302.74,194.35c0,6.04-7.88,6.88-7.88,0v-49.98c-.17-25.49-.17-44.78-.17-57.69,0-5.37,7.71-6.37,8.39-1.01,1.17,6.88,1.17,27.17-.34,60.88,5.53-7.55,12.58-11.4,21.13-11.4,10.73,0,15.26,6.21,15.26,12.75,0,7.55-7.71,16.94-20.63,21.13,2.52,2.18,5.2,5.2,7.71,9.06,5.03,8.05,8.55,13.25,14.09,13.25,4.7,0,8.22-2.85,10.73-8.89,3.86-9.56,3.02-10.23,6.04-22.64,1.34-6.04,8.22-4.86,7.21,1.17-.5,3.02-.84,5.03-1.01,6.04-1.51,6.88-2.35,11.24-3.52,14.09-1.34,3.35-4.36,9.9-7.04,12.58-2.85,2.68-7.55,5.37-12.41,5.37-7.21,0-12.41-4.36-15.93-9.9-1.84-2.68-3.52-5.37-5.37-8.05-3.52-5.37-9.06-9.73-16.27-9.73v22.98Zm28.51-46.29c0-3.35-2.52-5.03-7.38-5.03-8.89,0-18.28,6.54-21.13,20.63,15.93,0,28.51-9.06,28.51-15.6Z"></path><path class="cls-4" d="m356.91,139.68c0-6.04,7.04-5.87,7.71,0,1.01,6.54,1.01,13.92,0,22.14v28.34c9.56-7.55,16.27-17.78,19.96-30.52.84-2.68,2.35-4.02,4.53-3.86,1.84.17,2.85,1.17,3.02,3.02,0,.67-.17,1.34-.34,2.01-5.2,17.78-14.26,30.69-27.17,38.74v23.65c0,14.93-6.88,26.33-19.62,26.33-11.4,0-19.12-9.22-19.12-20.8,0-5.87,2.85-11.24,5.7-14.93,1.51-1.84,3.86-4.02,7.04-6.54,6.71-4.86,8.89-6.37,18.28-11.91v-55.68Zm0,83.52v-19.12c-16.77,9.56-23.82,15.26-23.82,24.65,0,7.38,4.02,12.91,11.91,12.91s11.91-7.04,11.91-18.45Zm3.86-96.77c-6.54,0-6.37-11.24,0-11.24s6.71,11.24,0,11.24Z"></path></svg> 