<?xml version="1.0" encoding="UTF-8"?> <svg xmlns="http://www.w3.org/2000/svg" id="Layer_1" viewBox="0 0 450 335"><defs><style>.cls-1{fill:#fff;}.cls-2{fill:#ececec;}.cls-3{fill:#bca5cf;}.cls-4{fill:#111035;}</style></defs><rect class="cls-1" x="-.33" width="450" height="335"></rect><rect class="cls-2" x="-.33" y="199.03" width="450" height="37.67"></rect><rect class="cls-2" x="-.33" y="101.4" width="450" height="34.24"></rect><polygon class="cls-3" points="289.21 236.7 270.58 236.7 274.1 101 292.73 101 289.21 236.7"></polygon><path class="cls-4" d="m87.16,158.78c0-30.88,14.05-49.96,40.02-49.96,11.13,0,20.01,4.64,25.18,9.94,1.72,1.59,1.59,3.45.4,4.9-.93,1.06-1.86,2.39-2.92,3.45-1.59,1.46-3.05,1.19-4.77-.4-4.51-4.64-10.2-7.95-18.29-7.95-16.56,0-26.77,12.85-26.77,39.89,0,20.28,8.88,31.41,22.66,31.41,12.06,0,18.82-8.61,24.12-16.17,1.59-1.99,2.52-1.72,4.11-.8,1.33.8,2.78,1.99,3.98,2.92,1.46,1.59,1.06,3.05,0,4.77-5.04,7.82-15.37,19.22-32.73,19.22-25.97,0-34.98-19.48-34.98-41.21Z"></path><path class="cls-4" d="m235.44,167.53c-6.36,17.62-21.2,32.47-45.72,32.47-10.07,0-17.36-2.92-22.4-7.69-1.19-1.06-1.06-1.72-.27-2.92.8-1.33,2.12-3.45,3.05-4.37.8-.93,1.46-.66,2.92.4,4.24,3.45,8.48,5.83,15.24,5.83s11.79-4.11,11.79-9.94c0-13.78-31.54-6.23-31.54-28.62,0-12.59,9.54-18.29,21.87-18.29,7.42,0,13.78,2.78,18.42,7.69.93,1.06,1.59,2.12.93,3.31-.93,1.72-2.12,3.45-3.18,4.37-1.06.8-1.99.66-3.18-.8-2.52-2.78-6.36-6.23-13.52-6.23-5.43,0-10.6,2.39-10.73,8.48-.13,5.96,4.77,7.82,13.38,10.47,9.54,3.05,18.42,6.63,18.42,17.76,0,3.98-1.59,8.35-5.3,11.66,12.19-4.77,19.75-14.71,25.44-26.37.53-1.06.93-1.33,1.72-1.19s1.59.27,2.25.8c.93.66.93,1.46.4,3.18Z"></path><path class="cls-4" d="m271.49,169.38c-6.36,16.17-17.89,29.95-30.74,29.95-7.95,0-11.26-4.64-11-15.24l2.39-78.45c0-2.12.27-3.98,2.39-4.24,1.99-.4,6.63-.4,7.95-.4,1.19,0,1.72.8,1.59,2.39-.4,4.37-.8,12.46-.93,16.7l-1.99,62.42c-.13,5.04.4,7.69,3.58,7.69,5.43,0,14.58-6.89,22.4-24.12.4-.93.8-1.19,1.46-1.19,1.46.13,2.39.66,3.05,1.19.66.66.66,1.46-.13,3.31Z"></path><path class="cls-4" d="m307.53,167.93c-4.51,14.58-14.31,27.83-30.74,34.06-1.06,24.52-10.87,34.72-26.11,34.72-10.87,0-17.36-5.17-17.36-15.11,0-8.88,5.57-14.84,18.02-19.35,3.98-1.59,9.28-3.31,14.58-5.17l.93-58.04c0-2.25.27-3.58,2.25-3.84,2.12-.27,6.49-.53,7.82-.53,1.19,0,1.86.93,1.86,2.52-.13,4.11-.4,7.82-.66,13.38l-1.06,43.6c12.72-5.7,20.41-16.56,25.18-28.49.4-1.19.93-1.59,1.99-1.59.93.13,2.25.4,2.92.93.93.53.8,1.33.4,2.92Zm-42.01,39.76c.27-2.12.27-2.92.27-3.18-4.24,1.46-8.61,2.92-11.66,4.11-7.69,3.18-10.47,6.49-10.47,11.53,0,4.77,2.52,8.08,8.35,8.08,9.01,0,12.99-8.48,13.52-20.54Zm1.19-94.49c.27-6.1,2.65-7.69,7.02-7.69s6.63,1.33,6.36,7.42-2.65,7.69-7.02,7.69-6.63-1.46-6.36-7.42Z"></path><path class="cls-4" d="m317.07,199.99c-11.53,0-17.49-6.1-17.09-21.6l.8-22.53c.27-5.7.27-12.85.27-17.89,0-1.33.27-2.25,1.59-2.52,1.06-.27,5.43-.66,7.95-.66,1.59,0,2.25.4,2.39,2.25,0,2.78-.13,9.28-.53,16.83l-.8,23.19c-.27,9.94,2.52,13.52,9.28,13.52s13.12-5.7,16.43-11c1.46-2.12,1.86-4.24,1.99-7.82l.93-34.19c0-1.72.53-2.25,2.12-2.39,1.19-.27,3.98-.53,7.29-.53,1.46,0,2.12.8,2.12,2.52l-1.33,45.19c-.27,5.43.4,7.82,3.71,7.82,5.43,0,12.99-6.36,20.67-23.19.4-.93.8-1.59,1.59-1.59,1.19,0,2.25.4,3.05.93s.8,1.46.13,3.31c-5.57,17.23-16.7,29.68-29.55,29.68-7.42,0-11-3.84-10.47-12.72-6.63,9.14-14.05,13.38-22.53,13.38Z"></path></svg> 