<?xml version="1.0" encoding="UTF-8"?> <svg xmlns="http://www.w3.org/2000/svg" id="Layer_1" viewBox="0 0 450 335"><defs><style>.cls-1{fill:#fff;}.cls-2{fill:#ececec;}.cls-3{fill:#bca5cf;}.cls-4{fill:#111035;}</style></defs><rect class="cls-1" x="-.33" width="450" height="335"></rect><rect class="cls-2" x="-.33" y="199.03" width="450" height="48.47"></rect><rect class="cls-2" x="-.33" y="87.84" width="450" height="47.81"></rect><rect class="cls-3" x="261.37" y="87.84" width="18.64" height="159.66"></rect><path class="cls-4" d="m158.09,198.88c-2.66,0-3.99-1.28-3.99-3.83v-84.34l-35.6,82.01c-.89,2-2.11,2.99-3.66,2.99-1.66,0-2.94-1-3.83-2.99l-35.6-82.01v84.34c0,2.55-1.33,3.83-3.99,3.83s-3.99-1.28-3.99-3.83v-103.63c0-2.88,1.28-4.33,3.83-4.33,1.89,0,3.22.94,3.99,2.83l39.59,90.99,39.59-90.99c.78-1.89,2.11-2.83,3.99-2.83,2.55,0,3.83,1.44,3.83,4.33v103.63c0,2.55-1.39,3.83-4.16,3.83Z"></path><path class="cls-4" d="m376.29,139.47c0-2.51-1.32-3.86-4.13-3.86-1.65,0-2.81.84-3.64,2.35l-22.14,47.61-20-47.45c-.66-1.68-1.82-2.51-3.64-2.51-2.81,0-4.3,1.17-4.3,4.02,0,.5.17,1.17.33,1.68l23.63,55.83c.83,2.18,2.15,3.19,3.64,3.19s2.64-1.01,3.64-3.02l26.27-55.83c.17-1.17.33-1.84.33-2.01Zm-51.39,2.68c.83-3.52.33-5.36-1.32-5.87-3.64-1.34-4.79.17-5.45,4.36-2.81,11.9-9.09,24.98-18.67,39.06-4.96,7.04-9.09,11.07-12.23,11.9-1.82.5-2.81.84-2.97,1.01-.66.5-.83,1.51-.83,3.02,0,2.68,1.32,4.02,4.13,4.02,3.64,0,7.77-2.68,12.39-8.05,9.58-11.9,16.69-24.14,21.32-37.05,1.98-5.7,3.14-9.89,3.64-12.41Zm-133.92,53.48c0-2.35-1.49-3.69-4.13-4.02-1.98-.17-2.97-3.02-2.97-8.38v-43.59c0-2.68-1.32-4.02-3.97-4.02s-3.97,1.34-3.97,4.02v45.6c0,9.56,3.64,14.42,11.07,14.42.99,0,1.82-.5,2.64-1.34s1.32-1.68,1.32-2.68Zm-6.44-79.3c0-3.02-1.65-4.53-4.63-4.53s-4.46,1.51-4.46,4.53,1.49,4.53,4.46,4.53,4.63-1.51,4.63-4.53Zm37.68,47.28c5.12-9.39,6.44-14.59,3.97-15.42-2.64-1.84-5.45.5-8.1,6.87-2.31,5.53-4.96,10.73-7.93,15.59-10.74,14.92-17.68,20.96-23.3,20.96-2.64,0-3.97,1.34-3.97,4.02s1.32,4.02,4.13,4.02c4.96,0,9.91-2.18,14.87-6.37,5.29-4.53,12.23-14.42,20.33-29.67Zm34.21-14.42v5.7c-.5,4.02-1.16,7.54-1.98,10.56-2.48,8.22-6.28,15.26-11.24,21.12-2.97,3.35-6.28,5.03-9.58,5.03-3.97,0-6.94-2.35-8.92-7.21-1.49-3.52-2.15-7.54-2.15-12.41,0-7.04,1.65-13.24,5.29-18.78,3.97-6.2,9.25-9.39,15.86-9.39,3.14,0,7.44,1.84,12.72,5.36Zm7.93,70.25v-79.8c0-2.68-1.32-4.02-3.97-4.02-2.81,0-4.13,1.51-4.13,4.36-5.12-2.85-9.25-4.36-12.56-4.36-9.91,0-17.68,4.69-23.13,14.08-4.13,7.04-6.11,14.59-6.11,22.47v4.02c0,1.17.17,2.01.33,2.51.66,5.7,2.64,10.39,5.62,14.25,3.47,4.53,7.93,6.71,13.22,6.71,8.1,0,15.7-6.04,22.8-18.11v37.89c0,5.7-1.98,10.39-5.78,14.25-3.8,3.86-8.43,5.87-14.05,5.87-2.64,0-5.29-.5-8.26-1.51-3.47-1.17-5.78-2.51-7.11-4.19-.83-1.01-1.82-1.51-2.97-1.51-2.81,0-4.13,1.34-4.13,4.02,0,1.01.33,1.84.99,2.68,2.15,2.68,5.45,4.86,9.91,6.37,3.97,1.51,7.77,2.18,11.57,2.18,7.77,0,14.38-2.68,19.66-8.22,5.45-5.36,8.1-12.07,8.1-19.95Zm27.17-23.81c0-2.68-1.32-4.02-3.97-4.02-2.15,0-3.14-2.85-3.14-8.38v-91.37c0-2.68-1.32-4.02-3.97-4.02s-3.97,1.34-3.97,4.02v93.38c0,9.56,3.64,14.42,11.07,14.42.99,0,1.98-.5,2.81-1.34s1.16-1.68,1.16-2.68Z"></path></svg> 