<?xml version="1.0" encoding="UTF-8"?> <svg xmlns="http://www.w3.org/2000/svg" id="Layer_1" viewBox="0 0 450 335"><defs><style>.cls-1{fill:#fff;}.cls-2{fill:#ececec;}.cls-3{fill:#bca5cf;}.cls-4{fill:#111035;}</style></defs><rect class="cls-1" x="-.33" width="450" height="335"></rect><rect class="cls-2" x="-.33" y="199.03" width="450" height="62.1"></rect><rect class="cls-2" x="-.33" y="73.5" width="450" height="62.14"></rect><polygon class="cls-3" points="232.79 261.13 214.16 261.13 225.97 73.86 244.61 73.86 232.79 261.13"></polygon><path class="cls-4" d="m16.44,200.63c-2.65,0-4.81-2.04-4.81-4.81,0-.84.24-1.68.72-2.29l64.59-117.27c.84-1.44,2.41-2.41,4.21-2.41,2.65,0,4.81,2.04,4.81,4.81,0,.84-.24,1.68-.72,2.29L20.65,198.22c-.84,1.44-2.41,2.41-4.21,2.41Zm26.94-59.9c0-2.65,2.16-4.81,4.81-4.81h55.45c2.65,0,4.81,2.17,4.81,4.81s-2.16,4.81-4.81,4.81h-55.45c-2.65,0-4.81-2.17-4.81-4.81Zm90.21,54.97c0,2.65-2.16,4.81-4.81,4.81-2.04,0-3.73-1.32-4.45-3.01l-44.86-112.94c-1.92-4.57-2.04-5.17-2.04-5.89,0-2.65,2.17-4.81,4.81-4.81,2.04,0,3.73,1.32,4.45,3.01l44.86,112.94c1.92,4.57,2.04,5.17,2.04,5.89Zm10.82-22.73c0-17.32,12.03-36.8,34.76-36.8,18.52,0,27.06,13.11,27.06,27.42,0,17.68-13.11,38.49-34.88,38.49-18.04,0-26.94-14.31-26.94-29.11Zm52.2-9.38c0-9.98-5.17-17.8-17.44-17.8-16.36,0-25.14,13.95-25.14,27.18,0,10.7,5.53,19.48,17.32,19.48,15.4,0,25.26-15.28,25.26-28.87Zm-7.82-18.28c0-2.65,2.17-4.81,4.81-4.81.84,0,1.68.24,2.41.72,14.43,8.54,21.05,7.82,40.29-5.77.72-.48,1.68-.84,2.77-.84,2.65,0,4.81,2.17,4.81,4.81,0,1.68-.84,3.01-2.04,3.97-22.13,15.52-32.6,16.72-50.64,6.01-1.44-.84-2.41-2.29-2.41-4.09Zm47.75,54.73c-2.89,0-5.05-2.65-4.81-5.29,1.44-14.31,3.25-26.7,3.25-41.01,0-4.69-.12-9.26-.6-14.19-.24-2.77,1.92-5.29,4.81-5.29,2.53,0,4.57,1.92,4.81,4.33.48,5.41.6,10.46.6,15.15,0,15.03-1.8,27.9-3.25,41.98-.24,2.41-2.29,4.33-4.81,4.33Zm.84-7.34c-2.77,0-4.93-2.41-4.81-5.17,1.44-20.21,14.91-40.29,25.98-53.52.96-.96,2.29-1.68,3.73-1.68,2.65,0,4.81,2.17,4.81,4.81,0,1.2-.48,2.29-1.08,3.13-10.58,12.51-22.61,30.67-23.81,47.99-.24,2.53-2.29,4.45-4.81,4.45Zm-3.01,44.98c0-2.65,2.17-4.81,4.81-4.81,2.04,0,3.85,1.32,4.57,3.13,3.49,9.5,12.15,15.52,22.85,15.52,23.33,0,26.22-30.67,28.02-56.77,1.32-18.76,2.41-42.58,3.13-59.3,1.8-46.67,15.03-61.94,29.23-61.94,12.75,0,23.94,13.11,25.5,24.18.36,2.77-1.8,5.41-4.81,5.41-2.41,0-4.45-1.8-4.81-4.21-.84-6.98-8.66-15.76-15.88-15.76-7.82,0-18.04,11.67-19.61,52.8-.72,16.72-1.8,40.65-3.13,59.54-1.8,26.82-5.29,65.67-37.65,65.67-14.55,0-27.06-8.42-31.99-21.77-.12-.48-.24-1.08-.24-1.68Zm23.09-100.43c0-2.65,2.17-4.81,4.81-4.81.96,0,1.92.24,2.65.72,1.32.96,2.29,1.08,3.73,1.08,6.49,0,24.18-17.44,36.08-41.25.84-1.56,2.41-2.65,4.33-2.65,2.65,0,4.81,2.17,4.81,4.81,0,.72-.24,1.56-.48,2.17-12.99,25.86-32.47,46.55-44.74,46.55-2.41,0-5.53-.36-9.02-2.53-1.32-.96-2.17-2.41-2.17-4.09Zm31.63,2.17c0-2.65,2.29-4.81,4.93-4.81,11.55.24,15.76.6,46.67-.6,2.77-.12,5.05,2.04,5.05,4.81s-2.04,4.69-4.57,4.81c-31.63,1.2-36.08.84-47.39.6-2.65,0-4.69-2.17-4.69-4.81Zm49.55,60.62c-2.89,0-5.05-2.65-4.81-5.29,1.92-18.88,4.45-34.4,2.65-55.33-.24-2.65,1.92-5.17,4.81-5.17,2.53,0,4.57,1.92,4.81,4.45,1.8,21.89-.72,38.37-2.65,57.01-.24,2.41-2.29,4.33-4.81,4.33Zm90.45-34.16c2.65,0,4.81,2.16,4.81,4.81,0,.72-.12,1.44-.48,2.16-11.43,23.21-21.65,29.11-30.31,29.11-19.24,0-18.88-19.73-18.64-34.16.12-12.99.24-21.41-6.5-21.41-14.19,0-32.47,26.46-34.16,46.07-.24,2.53-2.29,4.45-4.81,4.45-2.89,0-5.05-2.53-4.81-5.17,1.92-23.21,22.97-54.97,43.78-54.97,15.03,0,16.24,14.07,16.12,31.27-.24,14.43-.36,24.3,9.02,24.3,4.69,0,12.15-4.33,21.65-23.81.84-1.56,2.41-2.65,4.33-2.65Z"></path></svg> 