<?xml version="1.0" encoding="UTF-8"?> <svg xmlns="http://www.w3.org/2000/svg" id="Layer_1" viewBox="0 0 450 335"><defs><style>.cls-1{fill:#fff;}.cls-2{fill:#ececec;}.cls-3{fill:#bca5cf;}.cls-4{fill:#111035;}</style></defs><rect class="cls-1" x="-.33" width="450" height="335"></rect><rect class="cls-2" x="-.33" y="199.03" width="450" height="52.83"></rect><rect class="cls-2" x="-.33" y="82.62" width="450" height="53.02"></rect><rect class="cls-3" x="316.98" y="82.62" width="18.64" height="169.23"></rect><path class="cls-4" d="m76.77,197.84c.96-.96,1.55-2.27,1.55-3.7s-.6-2.63-1.55-3.7c-1.08-1.08-2.27-1.55-3.7-1.55h-10.28v-95.73h10.28c1.43,0,2.63-.48,3.7-1.43.96-1.08,1.55-2.27,1.55-3.82,0-1.43-.6-2.63-1.55-3.7-1.08-.96-2.27-1.55-3.7-1.55h-30.95c-1.43,0-2.75.6-3.7,1.55-1.08,1.08-1.55,2.27-1.55,3.7,0,1.55.48,2.75,1.55,3.82.96.96,2.27,1.43,3.7,1.43h10.16v95.73h-10.16c-1.43,0-2.75.48-3.7,1.55-1.08,1.08-1.55,2.27-1.55,3.7s.48,2.75,1.55,3.7c.96,1.08,2.27,1.55,3.7,1.55h30.95c1.43,0,2.63-.48,3.7-1.55h0Zm80.07.96l9.8-4.54c.6-.36,1.2-.72,1.79-1.2.96-1.08,1.55-2.27,1.55-3.7,0-1.55-.6-2.75-1.55-3.7-1.08-1.08-2.27-1.55-3.7-1.55-.96,0-1.91.24-2.63.6-.48.24-3.35,1.55-8.72,4.06-.36.12-.72.12-1.08.12-1.55,0-2.27-1.31-2.27-3.82v-17.21h.12l-.12-3.59c0-7.65-1.79-14.46-5.38-20.08-4.54-5.98-10.52-8.96-17.93-8.96-7.89,0-14.22,2.27-18.64,6.93v-1.67c0-1.43-.48-2.75-1.55-3.7-1.08-1.08-2.27-1.55-3.7-1.55s-2.75.48-3.7,1.55c-1.08.96-1.55,2.27-1.55,3.7v53.66c0,1.43.48,2.63,1.55,3.7.96,1.08,2.27,1.55,3.7,1.55s2.63-.48,3.7-1.55c1.08-1.08,1.55-2.27,1.55-3.7v-32.51c.72-3.47,2.03-6.69,3.94-9.56,3.47-4.3,8.37-6.33,14.7-6.33,4.42,0,7.65,1.91,9.8,5.86,2.03,3.94,2.99,8.61,2.99,13.86v19.48c.24,9.68,4.54,14.46,12.91,14.46h1.67c1.08,0,1.91-.24,2.75-.6h0Zm0,0l13.15-6.1c11-6.33,20.8-19,29.64-37.89l-9.08-4.9c-8.13,17.45-17.21,28.8-27.01,34.06l-11.35,5.38c-.6.24-1.2.6-1.79,1.08-.96,1.08-1.55,2.27-1.55,3.82,0,1.43.6,2.63,1.55,3.59,1.08,1.08,2.27,1.55,3.7,1.55,1.08,0,1.91-.24,2.75-.6h0Zm44.58-16.25c-3.35-4.18-5.14-9.32-5.14-15.3s1.79-11,5.14-15.18c3.47-4.3,7.65-6.33,12.43-6.33s8.96,2.03,12.31,6.33c3.47,4.18,5.14,9.32,5.14,15.18s-1.67,11.11-5.14,15.3c-3.35,4.18-7.53,6.33-12.31,6.33s-8.96-2.15-12.43-6.33h0Zm32.27,7.41c5.38-6.21,8.13-13.74,8.13-22.71,0-7.05-1.79-13.39-5.26-18.88,4.42.36,7.17.48,8.37.48,1.43,0,2.75-.48,3.7-1.55,1.08-.96,1.55-2.15,1.55-3.7,0-1.43-.48-2.63-1.55-3.7-.96-.96-2.27-1.55-3.7-1.55-6.21,0-15.18-.96-26.89-2.87-1.2-.12-2.63-.24-4.18-.24-7.77,0-14.34,3.11-19.84,9.32-5.5,6.33-8.13,13.86-8.13,22.71s2.63,16.49,8.13,22.71c5.5,6.33,12.07,9.44,19.84,9.44s14.34-3.11,19.84-9.44h0Zm19.83-41.23c4.66,0,8.84-.36,12.31-1.2,5.5-1.2,8.61-2.39,9.68-3.35,1.08-1.08,1.55-2.27,1.55-3.7,0-1.55-.48-2.75-1.55-3.7-1.08-1.08-2.27-1.55-3.7-1.55-.84,0-1.67.24-2.39.6-6.81,1.67-13.15,2.51-19.12,2.51-1.31.12-2.75.12-4.06.12-6.69,0-14.82-.84-24.62-2.39-.6-.12-1.31-.24-2.03-.24-1.43,0-2.75.48-3.7,1.43-1.08,1.08-1.55,2.27-1.55,3.7s.48,2.63,1.55,3.59c.96.96,2.27,1.55,3.94,1.79,1.55.36,4.3.72,8.25,1.2,2.75.24,5.74.6,8.84.84,3.23.36,6.57.48,10.16.48,2.03,0,4.3,0,6.45-.12h0Zm45.77,90.47c-1.43-1.43-2.27-3.11-2.51-5.02v-2.27c.36-8.96,5.5-17.69,15.3-26.17v28.44c0,1.91-.84,3.59-2.27,5.02-1.43,1.55-3.11,2.27-5.26,2.27s-3.82-.72-5.26-2.27h0Zm17.93,7.53c3.59-3.59,5.38-7.77,5.38-12.55v-36.57l9.68-4.66c2.27-.84,3.35-2.51,3.35-4.78,0-1.43-.48-2.63-1.43-3.7-1.08-.96-2.27-1.43-3.82-1.43-.96,0-1.79.24-2.63.72-.36.12-2.15.84-5.14,2.27v-45.54c0-1.43-.48-2.75-1.55-3.7-.96-1.08-2.27-1.55-3.7-1.55s-2.63.48-3.7,1.55c-.96.96-1.55,2.27-1.55,3.7v27.37c0,5.98-1.67,10.88-5.14,14.7-3.47,4.18-7.53,6.33-12.31,6.33s-8.96-2.15-12.43-6.33c-3.47-4.18-5.14-9.32-5.14-15.3v-26.77c0-1.43-.48-2.75-1.55-3.7-1.08-1.08-2.27-1.55-3.7-1.55s-2.75.48-3.7,1.55c-1.08.96-1.55,2.27-1.55,3.7v27.61c.12,8.49,2.87,15.9,8.25,21.87,5.5,6.33,12.07,9.44,19.84,9.44,5.14,0,9.8-1.43,13.98-4.3,1.2-.72,2.39-1.43,3.47-2.03v.48c-17.09,11.35-25.58,24.26-25.58,38.96v1.67c0,4.78,1.79,8.96,5.38,12.55,3.47,3.47,7.65,5.14,12.67,5.14s9.2-1.67,12.67-5.14h0Zm2.98-47.93l13.15-6.1c11-6.33,20.8-19,29.64-37.89l-9.08-4.9c-8.13,17.45-17.21,28.8-27.01,34.06l-11.35,5.38c-.6.24-1.2.6-1.79,1.08-.96,1.08-1.55,2.27-1.55,3.82,0,1.43.6,2.63,1.55,3.59,1.08,1.08,2.27,1.55,3.7,1.55,1.08,0,1.91-.24,2.75-.6h0Zm44.22-38.72v-1.55c0-1.67,1.79-4.18,5.14-7.65,3.35-3.47,7.29-5.14,11.95-5.14,3.11,0,5.62.48,7.53,1.43,2.99,1.67,4.42,3.82,4.42,6.57,0,.36,0,.6-.12.84-.24,1.43-.72,2.39-1.31,2.99-1.2,1.2-3.47,2.15-6.69,2.99s-5.98,1.2-8.37,1.2c-3.47,0-7.65-.48-12.55-1.67h0Zm37.05,39.32c1.08,0,1.91-.24,2.75-.6l9.8-4.54c.72-.36,1.31-.72,1.79-1.2,1.08-1.08,1.55-2.27,1.55-3.7,0-1.55-.48-2.75-1.55-3.7-.96-1.08-2.27-1.55-3.7-1.55-.96,0-1.91.24-2.63.6-.48.24-3.35,1.55-8.61,4.06h-1.55c-3.11,0-5.38-.72-6.81-2.27-1.67-1.79-5.86-6.69-12.43-14.7,1.79-.12,3.47-.24,5.02-.6,4.42-.96,7.41-1.79,9.08-2.63,1.67-.72,3.11-1.67,4.42-2.75,1.31-.96,2.51-2.15,3.47-3.59s1.67-3.94,2.03-7.41v-.48c0-3.59-1.2-7.05-3.59-10.52-5.14-5.74-11.47-8.61-18.76-8.61-6.69,0-12.55,2.27-17.57,6.93v-54.26c0-1.43-.48-2.63-1.55-3.7-1.08-.96-2.27-1.55-3.7-1.55s-2.75.6-3.7,1.55c-1.08,1.08-1.55,2.27-1.55,3.7v106.25c0,1.43.48,2.63,1.55,3.7.96,1.08,2.27,1.55,3.7,1.55s2.63-.48,3.7-1.55c1.08-1.08,1.55-2.27,1.55-3.7v-23.43c1.55.12,5.5,4.18,11.83,12.19,6.33,8.13,10.64,12.91,12.67,14.34,2.15,1.55,5.38,2.27,9.8,2.27.96,0,2.03,0,2.99-.12h0Z"></path></svg> 