<?xml version="1.0" encoding="UTF-8"?> <svg xmlns="http://www.w3.org/2000/svg" id="Layer_1" viewBox="0 0 450 335"><defs><style>.cls-1{fill:#fff;}.cls-2{fill:#ececec;}.cls-3{fill:#bca5cf;}.cls-4{fill:#231f20;}</style></defs><rect class="cls-1" x="-.33" width="450" height="335"></rect><rect class="cls-2" x="-.33" y="199.03" width="450" height="36.54"></rect><rect class="cls-2" x="-.33" y="97.59" width="450" height="38.05"></rect><polygon class="cls-3" points="130.73 235.61 112.09 235.61 130.57 97.59 149.2 97.59 130.73 235.61"></polygon><path class="cls-4" d="m108.21,166.6c2.2,0,3.88,1.68,3.88,3.88,0,.91-.26,1.68-.78,2.33-14.88,19.93-30.93,26.92-42.45,26.92-15.27,0-23.82-17.47-23.04-42.58,1.16-32.88,19.8-62.13,48.54-62.13,4.66,0,9.58,1.04,14.63,3.11,1.42.52,2.46,1.94,2.46,3.49,0,2.2-1.81,3.88-3.88,3.88-.65,0-1.04,0-1.55-.26-4.14-1.68-7.9-2.46-11.65-2.46-23.56,0-39.61,25.11-40.77,54.62-.78,21.87,5.95,34.56,15.27,34.56s23.04-5.95,36.24-23.82c.78-.91,1.81-1.55,3.11-1.55Zm-3.37,33c-2.46,0-4.14-2.2-3.88-4.4l7.64-54.1c.26-1.94,1.94-3.37,3.88-3.37,2.46,0,4.14,2.2,3.88,4.4l-7.64,54.1c-.26,1.94-1.94,3.37-3.88,3.37Zm30.93.13c-2.46,0-4.14-2.2-3.88-4.4l13.72-94.48c.26-1.94,1.94-3.37,3.88-3.37,2.46,0,4.14,2.2,3.88,4.4l-13.72,94.48c-.26,1.94-1.94,3.37-3.88,3.37Zm94.23-59.28c2.2,0,3.88,1.68,3.88,3.88,0,.52-.13.91-.26,1.29-10.48,28.35-30.16,54.1-48.67,54.1-5.82,0-10.48-3.49-8.02-17.73l3.75-21.74c1.42-7.9,1.81-15.79-3.11-15.79-18.12,0-35.33,35.33-37.41,48.28-.39,1.81-1.94,3.24-3.88,3.24-2.46,0-4.14-2.2-3.88-4.53,2.33-14.5,21.1-54.75,45.17-54.75,12.43,0,12.68,13.85,10.87,24.85l-3.75,21.74c-1.42,7.64-1.04,8.67.26,8.67,13.59,0,31.45-22.39,41.42-48.93.52-1.55,1.94-2.59,3.62-2.59Zm35.85,20.06c2.2,0,3.88,1.68,3.88,3.88,0,.65-.13,1.42-.52,1.94-5.95,10.35-25.11,33.39-43.23,33.39-5.69,0-9.19-4.4-6.34-17.86l7.51-43.49c.26-1.81,1.81-3.24,3.75-3.24,2.59,0,4.27,2.2,3.88,4.4l-7.64,43.88q-1.81,8.54-1.16,8.54c13.98,0,31.06-20.19,36.5-29.51.65-1.17,1.94-1.94,3.37-1.94Zm-34.17-57.86c.39-2.59,2.85-4.66,5.44-4.66s4.27,2.07,3.88,4.66c-.39,2.59-2.85,4.66-5.44,4.66s-4.27-2.07-3.88-4.66Zm68.86,32.1c8.8,0,14.88,4.01,13.98,10.74l-.26,1.81c-4.27,27.31-22.91,52.42-38.83,52.42-6.6,0-15.66-4.92-15.66-21.62,0-26.27,22.26-43.36,40.77-43.36Zm-25.11,57.21c10.74,0,27.31-21.36,31.06-45.95l.26-1.55c.13-.91-1.68-1.94-6.21-1.94-14.88,0-33,14.24-33,35.59,0,11,4.53,13.85,7.9,13.85Zm37.02,26.53c2.2,0,3.88,1.68,3.88,3.88,0,1.42-.78,2.59-1.81,3.24-5.57,3.49-10.35,6.73-14.37,9.45-3.11,1.68-6.73-.78-6.47-4.14l13.07-87.11c.26-1.94,1.94-3.37,3.88-3.37,2.46,0,4.14,2.2,3.88,4.4l-13.07,86.72c0-2.98-2.98-4.53-5.31-3.24,4.01-2.59,8.67-5.82,14.24-9.19.65-.39,1.29-.65,2.07-.65Zm57.86-83.74c8.8,0,14.88,4.01,13.98,10.74l-.26,1.81c-4.27,27.31-22.91,52.42-38.83,52.42-6.6,0-15.66-4.92-15.66-21.62,0-26.27,22.26-43.36,40.77-43.36Zm-25.11,57.21c10.74,0,27.31-21.36,31.06-45.95l.26-1.55c.13-.91-1.68-1.94-6.21-1.94-14.88,0-33,14.24-33,35.59,0,11,4.53,13.85,7.9,13.85Zm50.35-11.91c2.2,0,3.88,1.68,3.88,3.88,0,1.17-.52,2.2-1.29,2.85-7.38,6.86-14.88,12.94-20.58,12.94s-9.06-4.01-6.99-17.73l5.95-36.89c.39-1.81,1.94-3.24,3.88-3.24,2.46,0,4.14,2.33,3.88,4.53l-5.95,36.89q-1.42,8.67-.78,8.67c2.2,0,8.15-4.27,15.4-10.87.65-.65,1.55-1.04,2.59-1.04Z"></path></svg> 