<?xml version="1.0" encoding="UTF-8"?> <svg xmlns="http://www.w3.org/2000/svg" viewBox="0 0 1920 1266.03"><defs><style>.cls-1{fill:#e2dcef;}.cls-2{fill:#29235c;}</style></defs><g id="background"><rect class="cls-1" width="1920" height="1266.03"></rect></g><g id="Capa_2"><path class="cls-2" d="m129.75,836.25c-1.53,0-2.82-.53-3.86-1.6-1.05-1.07-1.57-2.34-1.57-3.83v-104.39h-29.57c-1.49,0-2.77-.52-3.83-1.57-1.07-1.05-1.6-2.33-1.6-3.86s.53-2.77,1.6-3.83c1.07-1.07,2.34-1.6,3.83-1.6h69.99c1.49,0,2.77.53,3.83,1.6,1.07,1.07,1.6,2.34,1.6,3.83s-.53,2.82-1.6,3.86c-1.07,1.05-2.34,1.57-3.83,1.57h-29.57v104.39c0,1.49-.53,2.77-1.6,3.83s-2.34,1.6-3.83,1.6Z"></path><path class="cls-2" d="m249.16,836.25h-1.75c-8.69,0-13.13-4.99-13.34-14.96v-19.61c-.32-5.71-1.96-10.63-4.92-14.75-2.96-4.12-6.73-6.18-11.31-6.18s-8.65,2.17-12.19,6.52c-3.02,4.63-4.59,9.88-4.71,15.75v27.82c0,1.49-.53,2.77-1.6,3.83-1.07,1.07-2.34,1.6-3.83,1.6s-2.82-.53-3.86-1.6c-1.05-1.07-1.57-2.34-1.57-3.83v-109.82c0-1.49.52-2.77,1.57-3.83,1.05-1.07,2.33-1.6,3.86-1.6s2.77.53,3.83,1.6c1.06,1.07,1.6,2.34,1.6,3.83v56.72c4.75-5.23,10.38-7.84,16.9-7.84,7.6,0,13.97,3.08,19.1,9.23,5.13,6.16,7.79,13.44,8,21.84l.06,2.66h-.06c0,11.22-.02,17.16-.06,17.8,0,2.66.78,3.98,2.35,3.98.36,0,.76-.06,1.21-.18,5.51-2.57,8.49-3.94,8.93-4.1.8-.44,1.71-.66,2.72-.66,1.53,0,2.82.52,3.86,1.57,1.05,1.05,1.57,2.31,1.57,3.8s-.52,2.78-1.57,3.86c-.56.52-1.19.93-1.87,1.21l-10.14,4.71c-.81.44-1.73.66-2.78.66Z"></path><path class="cls-2" d="m249.22,836.25c-1.53,0-2.82-.52-3.86-1.57-1.05-1.05-1.57-2.31-1.57-3.8s.52-2.78,1.57-3.86c.56-.52,2.94-1.75,7.12-3.68,11.59-5.23,21.26-9.98,29.02-14.24l3.74,9.66c-7.72,4.18-15.15,8.08-22.27,11.71l-10.98,5.13c-.8.44-1.73.66-2.78.66Z"></path><path class="cls-2" d="m308.9,836.85c-3.78,0-6.77-.08-8.96-.24-2.19-.16-5.06-.86-8.6-2.11-4.63-2.13-8.71-5.73-12.25-10.8-.48-.68-1.17-2.02-2.05-4.01-.89-1.99-1.57-4.54-2.05-7.66-.48-3.12-.72-6.16-.72-9.14,0-9.17,2.84-17,8.51-23.47,2.61-3.02,5.49-5.33,8.63-6.94,3.26-1.45,6.9-2.31,10.92-2.59,13.96.72,20.94,7.22,20.94,19.49,0,7.16-3.48,12.73-10.44,16.71l-24.86,11.22c1.57,2.7,3.02,4.51,4.34,5.43,1.33.93,2.81,1.67,4.46,2.23,2.29.8,5.51,1.29,9.65,1.45,4.3,0,9.77-1.73,16.41-5.19,1.01-.52,2.01-.78,3.02-.78,1.53,0,2.82.52,3.86,1.57,1.05,1.05,1.57,2.31,1.57,3.8s-.52,2.78-1.57,3.86c-.56.52-1.19.93-1.87,1.21l-10.14,4.71c-2.09.84-5.03,1.27-8.81,1.27Zm-23.59-30.23c14.96-5.79,23.19-10.02,24.68-12.67.88-1.65,1.33-3.28,1.33-4.89,0-5.23-3.22-7.84-9.65-7.84-3.3,0-6.48,1.53-9.53,4.59-2.33,2.33-4.08,4.65-5.25,6.94-1.17,2.29-1.75,5.67-1.75,10.14,0,1.33.06,2.58.18,3.74Z"></path><path class="cls-2" d="m460.59,890.55c-1.53,0-2.82-.53-3.86-1.6-1.05-1.07-1.57-2.34-1.57-3.83v-56.12c-5.15,4.83-11.18,7.24-18.1,7.24-8.01,0-14.83-3.24-20.49-9.71-5.65-6.48-8.48-14.3-8.48-23.47s2.83-17,8.48-23.47c5.65-6.48,12.48-9.71,20.49-9.71,6.92,0,12.95,2.41,18.1,7.24v-3.56c1.41-2.45,3.22-3.68,5.43-3.68,1.53,0,2.81.52,3.86,1.57.68.72,1.15,1.53,1.39,2.41v85.02l23.53-56.54c.56-1.41,1.55-2.41,2.96-3.02.64-.28,1.31-.42,1.99-.42.72,0,1.45.16,2.17.48,1.37.56,2.35,1.53,2.96,2.9.28.68.42,1.39.42,2.11,0,.68-.14,1.37-.42,2.05l-33.97,81.16c-1.05,1.97-2.68,2.96-4.89,2.96Zm-23.71-65.17c4.99,0,9.25-2.18,12.79-6.55,3.54-4.36,5.31-9.62,5.31-15.78s-1.77-11.41-5.31-15.78c-3.54-4.36-7.8-6.55-12.79-6.55s-9.25,2.18-12.79,6.55c-3.54,4.37-5.31,9.62-5.31,15.78s1.77,11.41,5.31,15.78c3.54,4.37,7.8,6.55,12.79,6.55Z"></path><path class="cls-2" d="m548.93,836.25h-1.69c-6.44,0-10.56-2.71-12.37-8.15-4.63,5.43-10.6,8.15-17.92,8.15-9.21,0-16.23-3.24-21.06-9.71-3.98-5.91-6.21-12.93-6.7-21.06v-30.17c0-1.49.53-2.77,1.6-3.83s2.34-1.6,3.83-1.6,2.82.53,3.86,1.6c1.04,1.07,1.57,2.34,1.57,3.83v27.76c0,6.15,1.27,11.41,3.8,15.78,2.53,4.37,6.9,6.55,13.09,6.55,4.99,0,9.05-2.18,12.19-6.55,3.14-4.36,4.71-9.62,4.71-15.78v-27.76c0-1.49.52-2.77,1.57-3.83,1.05-1.07,2.33-1.6,3.86-1.6s2.76.53,3.83,1.6c1.07,1.07,1.6,2.34,1.6,3.83,0,30.09-.02,45.46-.06,46.1,0,2.66.78,3.98,2.35,3.98.36,0,.76-.06,1.21-.18,5.51-2.57,8.49-3.94,8.93-4.1.8-.44,1.71-.66,2.72-.66,1.53,0,2.81.52,3.86,1.57,1.05,1.05,1.57,2.31,1.57,3.8s-.52,2.78-1.57,3.86c-.56.52-1.19.93-1.87,1.21l-10.14,4.71c-.8.44-1.73.66-2.78.66Z"></path><path class="cls-2" d="m548.99,836.25c-1.53,0-2.82-.52-3.86-1.57s-1.57-2.31-1.57-3.8.52-2.78,1.57-3.86c.56-.52,1.19-.93,1.87-1.21l11.65-5.49c10.22-5.43,19.55-17.18,28-35.24l9.35,5.07c-9.09,19.59-19.31,32.64-30.65,39.16l-13.58,6.28c-.8.44-1.73.66-2.78.66Z"></path><path class="cls-2" d="m591.83,757.8c-1.97,0-3.62-.68-4.95-2.05-1.33-1.37-1.99-3-1.99-4.89s.66-3.52,1.99-4.89c1.33-1.37,2.98-2.05,4.95-2.05s3.52.68,4.89,2.05c1.37,1.37,2.05,3,2.05,4.89s-.68,3.52-2.05,4.89-3,2.05-4.89,2.05Zm9.65,78.44h-1.75c-8.69,0-13.13-4.99-13.34-14.96v-45.98c0-1.49.52-2.77,1.57-3.83,1.04-1.07,2.33-1.6,3.86-1.6s2.77.53,3.83,1.6c1.07,1.07,1.6,2.34,1.6,3.83,0,30.09-.02,45.46-.06,46.1,0,2.66.79,3.98,2.35,3.98.36,0,.76-.06,1.21-.18,5.51-2.57,8.49-3.94,8.93-4.1.8-.44,1.71-.66,2.71-.66,1.53,0,2.82.52,3.86,1.57,1.04,1.05,1.57,2.31,1.57,3.8s-.52,2.78-1.57,3.86c-.56.52-1.19.93-1.87,1.21l-10.14,4.71c-.81.44-1.73.66-2.78.66Z"></path><path class="cls-2" d="m601.55,836.25c-1.53,0-2.82-.52-3.86-1.57s-1.57-2.31-1.57-3.8.52-2.78,1.57-3.86c.56-.52,1.19-.93,1.87-1.21l11.65-5.49c10.22-5.43,19.55-17.18,28-35.24l9.35,5.07c-9.09,19.59-19.31,32.64-30.65,39.16l-13.58,6.28c-.8.44-1.73.66-2.78.66Z"></path><path class="cls-2" d="m669.07,836.85c-3.78,0-6.77-.08-8.96-.24-2.19-.16-5.06-.86-8.6-2.11-5.07-2.33-9.2-5.86-12.4-10.59-3.2-4.73-4.8-11.68-4.8-20.85s2.84-17,8.51-23.47c2.61-3.02,5.49-5.33,8.63-6.94,3.94-1.77,8.47-2.66,13.58-2.66,8.25,0,15,2.56,20.27,7.66,1.05,1.09,1.57,2.37,1.57,3.86s-.53,2.77-1.6,3.83-2.34,1.6-3.83,1.6-2.82-.54-3.86-1.63l-.48-.48c-4.26-2.53-8.25-3.8-11.95-3.8-1.53,0-3.49.24-5.88.72-2.39.48-4.75,1.94-7.06,4.38-2.31,2.43-4.06,4.75-5.25,6.94s-1.78,5.52-1.78,9.99c.08,10.42,3.16,17.32,9.23,20.7,3.14,1.57,7.2,2.45,12.19,2.66,4.3,0,9.78-1.73,16.41-5.19,1-.52,2.01-.78,3.02-.78,1.53,0,2.82.52,3.86,1.57,1.04,1.05,1.57,2.31,1.57,3.8s-.52,2.78-1.57,3.86c-.56.52-1.19.93-1.87,1.21l-10.14,4.71c-2.09.84-5.03,1.27-8.81,1.27Z"></path><path class="cls-2" d="m675.16,836.25c-1.53,0-2.82-.52-3.86-1.57s-1.57-2.31-1.57-3.8.52-2.78,1.57-3.86c.56-.52,1.19-.93,1.87-1.21l11.65-5.49c10.22-5.43,19.55-17.18,28-35.24l9.35,5.07c-9.09,19.59-19.31,32.64-30.65,39.16l-13.58,6.28c-.8.44-1.73.66-2.78.66Z"></path><path class="cls-2" d="m758.92,836.37c-4.55,0-7.92-.77-10.11-2.32-2.19-1.55-6.58-6.49-13.15-14.81s-10.65-12.55-12.22-12.67v24.26c0,1.49-.53,2.77-1.6,3.83s-2.34,1.6-3.83,1.6-2.82-.53-3.86-1.6c-1.05-1.07-1.57-2.34-1.57-3.83v-109.82c0-1.49.52-2.77,1.57-3.83,1.04-1.07,2.33-1.6,3.86-1.6s2.77.53,3.83,1.6c1.07,1.07,1.6,2.34,1.6,3.83v56.12c5.19-4.83,11.22-7.24,18.1-7.24,7.64,0,14.14,2.96,19.49,8.87,2.45,3.58,3.68,7.2,3.68,10.86v.54c-.36,3.62-1.06,6.17-2.08,7.63-1.03,1.47-2.21,2.74-3.56,3.8-1.35,1.07-2.89,2.01-4.62,2.84-1.73.83-4.87,1.7-9.41,2.62-1.57.36-3.3.56-5.19.6,6.84,8.29,11.12,13.36,12.85,15.21,1.49,1.61,3.86,2.41,7.12,2.41l1.51-.06c5.51-2.57,8.49-3.94,8.93-4.1.8-.44,1.71-.66,2.72-.66,1.53,0,2.81.52,3.86,1.57,1.05,1.05,1.57,2.31,1.57,3.8s-.52,2.78-1.57,3.86c-.56.52-1.19.93-1.87,1.21l-10.14,4.71c-.8.44-1.74.68-2.81.72-1.07.04-2.1.06-3.11.06Zm-22.21-39.04c2.41,0,5.29-.42,8.63-1.27s5.65-1.87,6.94-3.08c.6-.6,1.05-1.61,1.33-3.02.08-.28.12-.6.12-.96,0-2.78-1.53-5.01-4.59-6.7-1.93-1.04-4.55-1.57-7.84-1.57-4.71,0-8.81,1.78-12.31,5.34-3.5,3.56-5.25,6.21-5.25,7.93v1.63c4.95,1.13,9.27,1.69,12.97,1.69Z"></path><path class="cls-2" d="m904.09,837.45c-9.65,0-17.16-.75-22.51-2.23-3.86-1-7.48-3.08-10.86-6.21v1.81c0,1.49-.53,2.77-1.6,3.83s-2.34,1.6-3.83,1.6-2.82-.53-3.86-1.6c-1.05-1.07-1.57-2.34-1.57-3.83v-109.82c0-1.49.52-2.77,1.57-3.83,1.04-1.07,2.33-1.6,3.86-1.6s2.77.53,3.83,1.6c1.07,1.07,1.6,2.34,1.6,3.83v56.12c5.15-4.83,11.18-7.24,18.1-7.24,8,0,14.83,3.24,20.49,9.71,5.65,6.48,8.48,14.3,8.48,23.47l.06,1.81c0,8.57-2.71,15.77-8.15,21.6,4.5-1.01,9.21-2.76,14.12-5.25,1-.52,2.01-.78,3.02-.78,1.53,0,2.81.52,3.86,1.57,1.05,1.05,1.57,2.31,1.57,3.8s-.52,2.78-1.57,3.86c-.56.52-1.19.93-1.87,1.21l-9.59,4.53c-2.9,1.37-7.95,2.05-15.15,2.05Zm-15.08-12.07c4.99,0,9.25-2.18,12.79-6.55,3.54-4.36,5.31-9.62,5.31-15.78s-1.77-11.41-5.31-15.78c-3.54-4.36-7.8-6.55-12.79-6.55s-9.25,2.18-12.79,6.55c-3.54,4.37-5.31,9.62-5.31,15.78s1.77,11.41,5.31,15.78c3.54,4.37,7.8,6.55,12.79,6.55Z"></path><path class="cls-2" d="m915.98,836.25c-1.53,0-2.82-.52-3.86-1.57s-1.57-2.31-1.57-3.8.52-2.78,1.57-3.86c.56-.52,1.19-.93,1.87-1.21l11.65-5.49c10.22-5.43,19.55-17.18,28-35.24l9.35,5.07c-9.09,19.59-19.31,32.64-30.65,39.16l-13.58,6.28c-.8.44-1.73.66-2.78.66Z"></path><path class="cls-2" d="m957.98,836.25c-1.53,0-2.82-.53-3.86-1.6-1.05-1.07-1.57-2.34-1.57-3.83v-55.51c0-1.49.52-2.77,1.57-3.83,1.04-1.07,2.33-1.6,3.86-1.6s2.77.53,3.83,1.6c1.07,1.07,1.6,2.34,1.6,3.83v5.97c4.34-7.48,9.69-11.26,16.05-11.34,2.49,0,4.89.6,7.18,1.81,2.13.72,4.12,1.15,5.97,1.27l1.69-.06c1.49,0,2.77.53,3.83,1.6,1.07,1.07,1.6,2.34,1.6,3.83s-.53,2.82-1.6,3.86c-1.07,1.05-2.34,1.57-3.83,1.57-4.3-.28-7.52-.92-9.65-1.93-1.33-.64-2.72-.97-4.16-.97-.48,0-1.36.09-2.62.27-1.27.18-3.17,2.11-5.7,5.79-2.53,3.68-5.45,10.71-8.75,21.09v22.75c0,1.49-.53,2.77-1.6,3.83s-2.34,1.6-3.83,1.6Z"></path><path class="cls-2" d="m1004.68,784.11c-2.98,0-5.97-.08-8.99-.24-2.45-.04-4.2-.59-5.25-1.66-1.05-1.07-1.57-2.34-1.57-3.83s.52-2.77,1.57-3.83c1.05-1.07,2.74-1.6,5.07-1.6,4.26.4,8.53.6,12.79.6,10.3,0,20.72-1.17,31.26-3.5,1.49,0,2.77.53,3.83,1.6,1.07,1.07,1.6,2.28,1.6,3.65,0,1.53-.53,2.78-1.6,3.74-1.07.96-2.34,1.45-3.83,1.45-11.5,2.41-23.13,3.62-34.88,3.62Z"></path><path class="cls-2" d="m1040.95,836.25c-8.01,0-14.83-3.24-20.49-9.71-5.65-6.48-8.48-14.3-8.48-23.47s2.83-17,8.48-23.47c5.65-6.48,12.48-9.71,20.49-9.71,1.65,0,3.08.1,4.28.3,12.11,1.97,21.4,2.96,27.88,2.96,1.49,0,2.77.53,3.83,1.6,1.07,1.07,1.6,2.34,1.6,3.83s-.53,2.81-1.6,3.83c-1.07,1.03-2.34,1.54-3.83,1.54-1.21,0-4.1-.14-8.69-.42,3.66,5.63,5.49,12.15,5.49,19.55,0,9.17-2.83,17-8.48,23.47-5.65,6.48-12.48,9.71-20.49,9.71Zm0-10.86c4.99,0,9.25-2.18,12.79-6.55,3.54-4.36,5.31-9.62,5.31-15.78s-1.77-11.41-5.31-15.78c-3.54-4.36-7.8-6.55-12.79-6.55s-9.25,2.18-12.79,6.55c-3.54,4.37-5.31,9.62-5.31,15.78s1.77,11.41,5.31,15.78c3.54,4.37,7.8,6.55,12.79,6.55Z"></path><path class="cls-2" d="m1077.94,783.81c-1.33,0-2.75-.02-4.28-.06-1.53-.04-2.8-.56-3.8-1.57s-1.51-2.25-1.51-3.74.52-2.78,1.57-3.86c1.05-1.09,2.33-1.63,3.86-1.63,2.57.08,4.93.12,7.06.12,5.79-.08,10.26-.63,13.4-1.66,3.14-1.03,5.15-1.54,6.03-1.54,1.49,0,2.77.52,3.83,1.57,1.07,1.05,1.6,2.33,1.6,3.86s-.53,2.77-1.6,3.83-4.21,2.14-9.44,3.23c-4.46.93-10.04,1.41-16.71,1.45Z"></path><path class="cls-2" d="m1158.25,836.25c-.68,0-1.39-.14-2.11-.42-1.37-.56-2.33-1.55-2.9-2.96l-14.3-41.27-14.3,41.27c-.6,1.41-1.59,2.39-2.96,2.96-.72.28-1.43.42-2.11.42s-1.39-.14-2.11-.42c-1.37-.56-2.33-1.55-2.9-2.96-.12-.2-3.36-9.55-9.71-28.06-6.68-18.99-10.02-28.82-10.02-29.51,0-2.37,1.13-4.04,3.38-5.01.72-.28,1.43-.42,2.11-.42,2.41,0,4.08,1.13,5.01,3.38l14.24,42.18,14.24-42.18c.56-1.37,1.55-2.35,2.96-2.96.68-.28,1.41-.42,2.17-.42,2.45,0,4.14,1.13,5.07,3.38l14.24,42.18,14.78-42.18c.44-1.13,1.19-1.99,2.23-2.59.8-.52,1.71-.78,2.72-.78.64,0,1.23.08,1.75.24,1.61.24,3.3.7,5.07,1.39,2.17.81,4.42,1.27,6.76,1.39h3.8c1.49,0,2.77.53,3.83,1.6,1.07,1.07,1.6,2.34,1.6,3.83s-.53,2.81-1.6,3.83c-1.07,1.03-2.34,1.54-3.83,1.54l-3.8.06c-3.62-.12-7.18-.72-10.68-1.81l-17.56,50.93c-.6,1.41-1.59,2.39-2.96,2.96-.72.28-1.43.42-2.11.42Z"></path><path class="cls-2" d="m1200.19,783.81c-1.33,0-2.75-.02-4.28-.06-1.53-.04-2.8-.56-3.8-1.57s-1.51-2.25-1.51-3.74.52-2.78,1.57-3.86c1.05-1.09,2.33-1.63,3.86-1.63,2.57.08,4.93.12,7.06.12,5.79-.08,10.26-.63,13.4-1.66,3.14-1.03,5.15-1.54,6.03-1.54,1.49,0,2.77.52,3.83,1.57,1.07,1.05,1.6,2.33,1.6,3.86s-.53,2.77-1.6,3.83-4.21,2.14-9.44,3.23c-4.46.93-10.04,1.41-16.71,1.45Z"></path><path class="cls-2" d="m1276.15,836.25h-1.75c-8.69,0-13.13-4.99-13.33-14.96v-20.15c0-5.47-1.06-10.24-3.17-14.3-2.11-4.06-5.46-6.09-10.05-6.09-6.6,0-11.67,2.17-15.21,6.52-1.97,3.06-3.34,6.38-4.1,9.96v33.61c0,1.49-.53,2.77-1.6,3.83s-2.34,1.6-3.83,1.6-2.82-.53-3.86-1.6c-1.05-1.07-1.57-2.34-1.57-3.83v-55.51c0-1.49.52-2.77,1.57-3.83,1.04-1.07,2.33-1.6,3.86-1.6s2.77.53,3.83,1.6c1.07,1.07,1.6,2.34,1.6,3.83v1.75c4.63-4.79,11.06-7.18,19.31-7.18,7.6,0,13.78,3.08,18.52,9.23,3.7,5.91,5.55,12.85,5.55,20.82l.06,3.68h-.06c0,11.22-.02,17.16-.06,17.8,0,2.66.79,3.98,2.35,3.98.36,0,.76-.06,1.21-.18,5.51-2.57,8.49-3.94,8.93-4.1.8-.44,1.71-.66,2.71-.66,1.53,0,2.82.52,3.86,1.57,1.04,1.05,1.57,2.31,1.57,3.8s-.52,2.78-1.57,3.86c-.56.52-1.19.93-1.87,1.21l-10.14,4.71c-.81.44-1.73.66-2.78.66Z"></path><path class="cls-2" d="m1395.33,890.55c-5.15,0-9.53-1.81-13.15-5.43-3.62-3.62-5.47-7.93-5.55-12.91v-1.75c0-15.12,8.83-28.56,26.49-40.31v-22.69c-6.56,10.22-13.64,17.5-21.24,21.84l-13.58,6.28c-.8.44-1.73.66-2.78.66-1.53,0-2.82-.52-3.86-1.57s-1.57-2.31-1.57-3.8.52-2.78,1.57-3.86c.56-.52,1.19-.93,1.87-1.21l11.65-5.49c10.18-5.43,19.49-17.14,27.94-35.12v-53.94c0-4.3,1.53-8,4.59-11.07,3.06-3.08,6.76-4.62,11.1-4.62s8,1.53,11.07,4.59c3.08,3.06,4.62,6.96,4.62,11.71l.06,3.62c0,21.04-6.84,40.51-20.52,58.41l-.06,30.71c3.14-1.49,4.93-2.31,5.37-2.47.8-.44,1.71-.66,2.72-.66,1.53,0,2.82.5,3.86,1.51,1.05,1.01,1.57,2.25,1.57,3.74,0,2.41-1.15,4.08-3.44,5.01l-10.02,4.95v35.54c-.08,4.99-1.93,9.29-5.55,12.91-3.62,3.62-8,5.43-13.15,5.43Zm0-10.86c2.17,0,4-.75,5.49-2.23,1.49-1.49,2.27-3.24,2.35-5.25v-29.45c-10.18,8.77-15.49,17.82-15.93,27.15l.06,2.29c.2,2.01,1.04,3.76,2.53,5.25s3.32,2.23,5.49,2.23Zm18.71-107.53c6.23-11.79,9.45-25.22,9.65-40.31-.04-1.73-.53-3.07-1.48-4.01-.95-.94-2.08-1.42-3.41-1.42s-2.46.47-3.41,1.42-1.42,2.08-1.42,3.41l.06,40.91Z"></path><path class="cls-2" d="m1413.49,836.25c-1.53,0-2.82-.52-3.86-1.57s-1.57-2.31-1.57-3.8.52-2.78,1.57-3.86c.56-.52,1.19-.93,1.87-1.21l11.65-5.49c10.22-5.43,19.55-17.18,28-35.24l9.35,5.07c-9.09,19.59-19.31,32.64-30.65,39.16l-13.58,6.28c-.8.44-1.73.66-2.78.66Z"></path><path class="cls-2" d="m1475.22,836.25c-8.01,0-14.83-3.24-20.49-9.71-5.65-6.48-8.48-14.3-8.48-23.47s2.83-17,8.48-23.47c5.65-6.48,12.48-9.71,20.49-9.71,1.65,0,3.08.1,4.28.3,12.11,1.97,21.4,2.96,27.88,2.96,1.49,0,2.77.53,3.83,1.6,1.07,1.07,1.6,2.34,1.6,3.83s-.53,2.81-1.6,3.83c-1.07,1.03-2.34,1.54-3.83,1.54-1.21,0-4.1-.14-8.69-.42,3.66,5.63,5.49,12.15,5.49,19.55,0,9.17-2.83,17-8.48,23.47-5.65,6.48-12.48,9.71-20.49,9.71Zm0-10.86c4.99,0,9.25-2.18,12.79-6.55,3.54-4.36,5.31-9.62,5.31-15.78s-1.77-11.41-5.31-15.78c-3.54-4.36-7.8-6.55-12.79-6.55s-9.25,2.18-12.79,6.55c-3.54,4.37-5.31,9.62-5.31,15.78s1.77,11.41,5.31,15.78c3.54,4.37,7.8,6.55,12.79,6.55Z"></path><path class="cls-2" d="m1512.21,783.81c-1.33,0-2.75-.02-4.28-.06-1.53-.04-2.8-.56-3.8-1.57s-1.51-2.25-1.51-3.74.52-2.78,1.57-3.86c1.05-1.09,2.33-1.63,3.86-1.63,2.57.08,4.93.12,7.06.12,5.79-.08,10.26-.63,13.4-1.66,3.14-1.03,5.15-1.54,6.03-1.54,1.49,0,2.77.52,3.83,1.57,1.07,1.05,1.6,2.33,1.6,3.86s-.53,2.77-1.6,3.83-4.21,2.14-9.44,3.23c-4.46.93-10.04,1.41-16.71,1.45Z"></path><path class="cls-2" d="m1577.19,836.25c-.24,0-.81-.06-1.69-.18-.89-.12-1.77-.76-2.66-1.93l-17.08-22.27-16.83,22.27c-1.13,1.41-2.59,2.11-4.41,2.11-1.17,0-2.25-.38-3.26-1.15-1.41-1.09-2.11-2.55-2.11-4.4,0-1.13.38-2.19,1.15-3.2l18.58-24.56-18.65-24.32c-.76-1-1.15-2.09-1.15-3.26,0-.24.05-.79.15-1.66.1-.86.75-1.76,1.96-2.68,1-.76,2.09-1.15,3.26-1.15.24,0,.8.06,1.69.18.88.12,1.79.76,2.71,1.93l16.83,21.96,16.65-21.96c1.09-1.41,2.53-2.11,4.34-2.11,1.17,0,2.25.38,3.26,1.15,1.41,1.09,2.11,2.55,2.11,4.4,0,1.17-.36,2.23-1.09,3.2l-18.4,24.26,18.89,24.62c.72.97,1.09,2.03,1.09,3.2,0,.24-.06.81-.18,1.72-.12.91-.76,1.8-1.93,2.68-1.01.76-2.09,1.15-3.26,1.15Z"></path><path class="cls-2" d="m90.65,1070.55c-5.15,0-9.53-1.81-13.15-5.43-3.62-3.62-5.47-7.93-5.55-12.91v-1.75c0-15.12,8.81-28.54,26.43-40.25l.06-54.91c0-1.49.52-2.77,1.57-3.83,1.05-1.07,2.33-1.6,3.86-1.6s2.77.53,3.83,1.6c1.07,1.07,1.6,2.34,1.6,3.83v47.19c3.14-1.49,4.93-2.31,5.37-2.47.8-.44,1.71-.66,2.72-.66,1.53,0,2.82.5,3.86,1.51,1.05,1.01,1.57,2.25,1.57,3.74,0,2.41-1.15,4.08-3.44,5.01l-10.02,4.77v37.83c-.08,4.99-1.93,9.29-5.55,12.91-3.62,3.62-8.01,5.43-13.15,5.43Zm0-10.86c2.17,0,4-.75,5.49-2.23,1.49-1.49,2.27-3.24,2.35-5.25v-29.45c-10.18,8.77-15.49,17.82-15.93,27.15l.06,2.29c.2,2.01,1.05,3.76,2.53,5.25,1.49,1.49,3.32,2.23,5.49,2.23Zm14.36-121.89c-1.97,0-3.62-.68-4.95-2.05-1.33-1.37-1.99-3-1.99-4.89s.66-3.52,1.99-4.89c1.33-1.37,2.98-2.05,4.95-2.05s3.52.68,4.89,2.05c1.37,1.37,2.05,3,2.05,4.89s-.68,3.52-2.05,4.89c-1.37,1.37-3,2.05-4.89,2.05Z"></path><path class="cls-2" d="m104.1,1016.25c-1.53,0-2.82-.52-3.86-1.57-1.05-1.05-1.57-2.31-1.57-3.8s.52-2.78,1.57-3.86c.56-.52,1.19-.93,1.87-1.21l11.65-5.49c10.22-5.43,19.55-17.18,28-35.24l9.35,5.07c-9.09,19.59-19.31,32.64-30.65,39.16l-13.58,6.28c-.8.44-1.73.66-2.78.66Z"></path><path class="cls-2" d="m201.25,1016.25h-1.69c-6.44,0-10.56-2.71-12.37-8.15-4.63,5.43-10.6,8.15-17.92,8.15-9.21,0-16.23-3.24-21.06-9.71-3.98-5.91-6.22-12.93-6.7-21.06v-30.17c0-1.49.53-2.77,1.6-3.83s2.34-1.6,3.83-1.6,2.82.53,3.86,1.6c1.05,1.07,1.57,2.34,1.57,3.83v27.76c0,6.15,1.27,11.41,3.8,15.78,2.53,4.37,6.9,6.55,13.09,6.55,4.99,0,9.05-2.18,12.19-6.55,3.14-4.36,4.71-9.62,4.71-15.78v-27.76c0-1.49.52-2.77,1.57-3.83,1.05-1.07,2.33-1.6,3.86-1.6s2.77.53,3.83,1.6c1.07,1.07,1.6,2.34,1.6,3.83,0,30.09-.02,45.46-.06,46.1,0,2.66.78,3.98,2.35,3.98.36,0,.76-.06,1.21-.18,5.51-2.57,8.49-3.94,8.93-4.1.8-.44,1.71-.66,2.72-.66,1.53,0,2.82.52,3.86,1.57,1.05,1.05,1.57,2.31,1.57,3.8s-.52,2.78-1.57,3.86c-.56.52-1.19.93-1.87,1.21l-10.14,4.71c-.81.44-1.73.66-2.78.66Z"></path><path class="cls-2" d="m201.31,1016.25c-1.53,0-2.82-.52-3.86-1.57-1.05-1.05-1.57-2.31-1.57-3.8s.52-2.78,1.57-3.86c.56-.52,1.19-.93,1.87-1.21l11.65-5.49c10.22-5.43,19.55-17.18,28-35.24l9.35,5.07c-9.09,19.59-19.31,32.64-30.65,39.16l-13.58,6.28c-.8.44-1.73.66-2.78.66Z"></path><path class="cls-2" d="m318.97,1016.25h-1.75c-8.69,0-13.13-4.99-13.33-14.96v-29.69c0-3.02-1.06-5.58-3.17-7.69-2.11-2.11-4.68-3.17-7.69-3.17s-5.58,1.06-7.69,3.17c-2.11,2.11-3.17,4.68-3.17,7.69v39.22c0,1.49-.53,2.77-1.6,3.83s-2.34,1.6-3.83,1.6-2.82-.53-3.86-1.6c-1.05-1.07-1.57-2.34-1.57-3.83v-39.22c0-3.02-.96-5.48-2.87-7.39-1.91-1.91-4.37-2.87-7.39-2.87s-5.68,1.46-8,4.37c-2.31,2.92-3.47,5.88-3.47,8.9v36.2c0,1.49-.53,2.77-1.6,3.83-1.07,1.07-2.34,1.6-3.83,1.6s-2.82-.53-3.86-1.6c-1.05-1.07-1.57-2.34-1.57-3.83v-55.51c0-1.49.52-2.77,1.57-3.83,1.05-1.07,2.33-1.6,3.86-1.6s2.78.52,3.86,1.57c.44.48.8,2.01,1.09,4.59,3.34-4.1,7.12-6.15,11.34-6.15,6.6,0,12.03,2.43,16.29,7.3l.97-.96c4.22-4.22,9.33-6.34,15.33-6.34s11.12,2.11,15.39,6.34c4.06,4.1,6.17,9.01,6.34,14.72,0,19.67-.02,29.83-.06,30.47,0,2.66.78,3.98,2.35,3.98.36,0,.76-.06,1.21-.18,5.51-2.57,8.49-3.94,8.93-4.1.8-.44,1.71-.66,2.72-.66,1.53,0,2.81.52,3.86,1.57,1.04,1.05,1.57,2.31,1.57,3.8s-.52,2.78-1.57,3.86c-.56.52-1.19.93-1.87,1.21l-10.14,4.71c-.8.44-1.73.66-2.78.66Z"></path><path class="cls-2" d="m319.03,1016.25c-1.53,0-2.82-.52-3.86-1.57-1.05-1.05-1.57-2.31-1.57-3.8s.52-2.78,1.57-3.86c.56-.52,1.19-.93,1.87-1.21l11.65-5.49c10.22-5.43,19.55-17.18,28-35.24l9.35,5.07c-9.09,19.59-19.31,32.64-30.65,39.16l-13.58,6.28c-.8.44-1.73.66-2.78.66Z"></path><path class="cls-2" d="m361.88,1070.55c-1.49,0-2.77-.53-3.83-1.6s-1.6-2.34-1.6-3.83v-110.54c.12-1.17.62-2.21,1.51-3.14,1.05-1.04,2.33-1.57,3.86-1.57s2.78.52,3.86,1.57c.88.93,1.39,1.97,1.51,3.14v2.53c5.23-4.83,11.3-7.24,18.22-7.24,8,0,14.83,3.24,20.49,9.71,5.65,6.48,8.48,14.3,8.48,23.47v1.27c0,8.21-3,15.73-8.99,22.57,4.38-1.29,9.03-3.18,13.94-5.67,1-.52,2.01-.78,3.02-.78,1.53,0,2.82.52,3.86,1.57,1.04,1.05,1.57,2.31,1.57,3.8s-.52,2.78-1.57,3.86c-.56.52-1.19.93-1.87,1.21l-9.59,4.53c-2.9,1.37-7.95,2.05-15.15,2.05-3.42,0-7.36-.14-11.83-.42-8.41-.52-15.23-3.2-20.46-8.03v56.12c0,1.49-.52,2.77-1.57,3.83-1.05,1.07-2.33,1.6-3.86,1.6Zm23.71-65.17c4.99,0,9.25-2.18,12.79-6.55,3.54-4.36,5.31-9.62,5.31-15.78s-1.77-11.41-5.31-15.78c-3.54-4.36-7.8-6.55-12.79-6.55s-9.25,2.18-12.79,6.55c-3.54,4.37-5.31,9.62-5.31,15.78s1.77,11.41,5.31,15.78c3.54,4.37,7.8,6.55,12.79,6.55Z"></path><path class="cls-2" d="m411.48,1016.25c-1.53,0-2.82-.52-3.86-1.57s-1.57-2.31-1.57-3.8.52-2.78,1.57-3.86c.56-.52,1.19-.93,1.87-1.21l11.65-5.49c10.22-5.43,19.55-17.18,28-35.24l9.35,5.07c-9.09,19.59-19.31,32.64-30.65,39.16l-13.58,6.28c-.8.44-1.73.66-2.78.66Z"></path><path class="cls-2" d="m481.05,1017.45c-3.42,0-7.36-.14-11.83-.42-9.29-.6-16.15-3.5-20.58-8.69-1.05-1.05-1.57-2.31-1.57-3.8s.52-2.76,1.57-3.83c1.05-1.07,2.33-1.6,3.86-1.6s2.78.52,3.86,1.57c.52.56,1.13,1.17,1.81,1.81,1.53,2.17,5.17,3.26,10.92,3.26h.91c2.61,0,5.05-.82,7.3-2.47,1.89-1.69,2.84-3.88,2.84-6.58,0-2.33-.52-3.97-1.57-4.92-1.05-.94-3.5-2.07-7.36-3.38-3.86-1.31-8.59-2.93-14.18-4.86-5.59-1.93-8.75-6.64-9.47-14.12,0-5.39,2.62-10,7.87-13.82,5.25-3.82,10.87-5.73,16.87-5.73s11.65,2.33,16.96,7c1.04,1.09,1.57,2.37,1.57,3.86s-.53,2.77-1.6,3.83-2.34,1.6-3.83,1.6-2.82-.54-3.86-1.63c-.52-.52-1.53-1.31-3.02-2.35-1.37-.88-3.3-1.33-5.79-1.33-.28,0-1.24.03-2.87.09-1.63.06-3.76,1.01-6.4,2.84-2.63,1.83-3.97,4.11-4.01,6.85,0,2.58,2.44,4.62,7.33,6.12,4.89,1.51,8.98,2.59,12.28,3.26,3.3.66,6.11,2.36,8.45,5.1,2.33,2.74,3.5,6.6,3.5,11.59,0,3.5-1.13,7.02-3.38,10.56,3.86-1.53,8.13-3.5,12.79-5.91l.66-.24c.8-.44,1.71-.66,2.72-.66,1.53,0,2.82.52,3.86,1.57,1.05,1.05,1.57,2.31,1.57,3.8s-.52,2.78-1.57,3.86c-.56.52-1.19.93-1.87,1.21l-9.59,4.53c-2.9,1.37-7.94,2.05-15.14,2.05Z"></path><path class="cls-2" d="m615,1016.25c-8.01,0-14.83-3.24-20.49-9.71-5.65-6.48-8.48-14.3-8.48-23.47s2.83-17,8.48-23.47c5.65-6.48,12.48-9.71,20.49-9.71,1.65,0,3.08.1,4.28.3,12.11,1.97,21.4,2.96,27.88,2.96,1.49,0,2.77.53,3.83,1.6,1.07,1.07,1.6,2.34,1.6,3.83s-.53,2.81-1.6,3.83c-1.07,1.03-2.34,1.54-3.83,1.54-1.21,0-4.1-.14-8.69-.42,3.66,5.63,5.49,12.15,5.49,19.55,0,9.17-2.83,17-8.48,23.47-5.65,6.48-12.48,9.71-20.49,9.71Zm0-10.86c4.99,0,9.25-2.18,12.79-6.55,3.54-4.36,5.31-9.62,5.31-15.78s-1.77-11.41-5.31-15.78c-3.54-4.36-7.8-6.55-12.79-6.55s-9.25,2.18-12.79,6.55c-3.54,4.37-5.31,9.62-5.31,15.78s1.77,11.41,5.31,15.78c3.54,4.37,7.8,6.55,12.79,6.55Z"></path><path class="cls-2" d="m651.99,963.81c-1.33,0-2.75-.02-4.28-.06-1.53-.04-2.8-.56-3.8-1.57s-1.51-2.25-1.51-3.74.52-2.78,1.57-3.86c1.05-1.09,2.33-1.63,3.86-1.63,2.57.08,4.93.12,7.06.12,5.79-.08,10.26-.63,13.4-1.66,3.14-1.03,5.15-1.54,6.03-1.54,1.49,0,2.77.52,3.83,1.57,1.07,1.05,1.6,2.33,1.6,3.86s-.53,2.77-1.6,3.83-4.21,2.14-9.44,3.23c-4.46.93-10.04,1.41-16.71,1.45Z"></path><path class="cls-2" d="m697.25,1016.25c-.68,0-1.39-.14-2.11-.42-1.37-.56-2.33-1.55-2.9-2.96l-22.27-55.45c-.32-.72-.48-1.43-.48-2.11,0-2.37,1.13-4.04,3.38-5.01.68-.28,1.39-.42,2.11-.42,2.41,0,4.08,1.13,5.01,3.38l17.26,42.18,17.26-42.18c.36-.88.91-1.61,1.63-2.17.92-.8,2.09-1.21,3.5-1.21s2.69.52,3.74,1.57l26.61,22.02c1.25,1.01,1.89,2.39,1.93,4.16,0,1.29-.4,2.43-1.21,3.44-1.01,1.29-2.39,1.95-4.16,1.99-1.29,0-2.45-.42-3.5-1.27l-21.24-17.62c-12.95,32.26-19.45,48.49-19.49,48.69-.6,1.41-1.59,2.39-2.96,2.96-.72.28-1.43.42-2.11.42Z"></path><path class="cls-2" d="m775.09,1016.67c-3.78,0-6.77-.08-8.96-.24-2.19-.16-5.06-.87-8.6-2.11-9.33-4.3-14.82-11.75-16.47-22.33-.48-3.1-.72-6.13-.72-9.11,0-9.17,2.84-17,8.51-23.47,2.61-3.02,5.49-5.33,8.63-6.94,3.26-1.45,6.9-2.31,10.92-2.59,13.96.72,20.94,7.22,20.94,19.49,0,7.56-3.48,13.33-10.44,17.32l-.42.18-.06-.06c-4.91,2.82-10.16,4.22-15.75,4.22-3.66,0-7.38-.6-11.16-1.81.44,2.37,1.17,4.59,2.17,6.64,1.81,3.66,4.06,6.24,6.76,7.72,3.14,1.57,7.2,2.45,12.19,2.65,4.3,0,9.77-1.73,16.41-5.19,1-.52,2.01-.79,3.02-.79,1.53,0,2.81.52,3.86,1.57,1.05,1.05,1.57,2.31,1.57,3.8s-.52,2.78-1.57,3.86c-.56.52-1.19.93-1.87,1.21l-10.14,4.71c-2.09.84-5.03,1.27-8.81,1.27Zm-11.46-36.39c2.86,0,5.52-.69,8-2.08,2.47-1.39,3.95-2.69,4.44-3.89.88-1.65,1.33-3.28,1.33-4.89,0-5.47-3.22-8.21-9.65-8.21-.93,0-1.73.12-2.41.36-2.41.48-4.79,1.89-7.12,4.22s-4.08,4.65-5.25,6.94c-.6,1.21-1.07,2.76-1.39,4.65,3.62,1.93,7.64,2.9,12.07,2.9Z"></path><path class="cls-2" d="m781.18,1016.25c-1.53,0-2.82-.52-3.86-1.57s-1.57-2.31-1.57-3.8.52-2.78,1.57-3.86c.56-.52,1.19-.93,1.87-1.21l11.65-5.49c10.22-5.43,19.55-17.18,28-35.24l9.35,5.07c-9.09,19.59-19.31,32.64-30.65,39.16l-13.58,6.28c-.8.44-1.73.66-2.78.66Z"></path><path class="cls-2" d="m823.18,1016.25c-1.53,0-2.82-.53-3.86-1.6-1.05-1.07-1.57-2.34-1.57-3.83v-55.51c0-1.49.52-2.77,1.57-3.83,1.04-1.07,2.33-1.6,3.86-1.6s2.77.53,3.83,1.6c1.07,1.07,1.6,2.34,1.6,3.83v5.97c4.34-7.48,9.69-11.26,16.05-11.34,2.49,0,4.89.6,7.18,1.81,2.13.72,4.12,1.15,5.97,1.27l1.69-.06c1.49,0,2.77.53,3.83,1.6,1.07,1.07,1.6,2.34,1.6,3.83s-.53,2.82-1.6,3.86c-1.07,1.05-2.34,1.57-3.83,1.57-4.3-.28-7.52-.92-9.65-1.93-1.33-.64-2.72-.97-4.16-.97-.48,0-1.36.09-2.62.27-1.27.18-3.17,2.11-5.7,5.79-2.53,3.68-5.45,10.71-8.75,21.09v22.75c0,1.49-.53,2.77-1.6,3.83s-2.34,1.6-3.83,1.6Z"></path><path class="cls-2" d="m961.24,1016.61c-1.41,0-3.66-.19-6.76-.57s-5.93-2.47-8.51-6.28c-2.58-3.8-3.86-8.7-3.86-14.69l.06-31.32h-7.84c-1.49,0-2.77-.52-3.83-1.57-1.07-1.05-1.6-2.33-1.6-3.86s.53-2.76,1.6-3.83,2.34-1.6,3.83-1.6h7.84v-33.79c0-1.49.52-2.77,1.57-3.83,1.04-1.07,2.33-1.6,3.86-1.6s2.77.53,3.83,1.6c1.07,1.07,1.6,2.34,1.6,3.83v33.79h11.46c1.49,0,2.77.53,3.83,1.6,1.07,1.07,1.6,2.34,1.6,3.83s-.53,2.82-1.6,3.86c-1.07,1.05-2.34,1.57-3.83,1.57h-11.46v30.89c0,6.84,2.61,10.26,7.84,10.26,1.09,0,2.27-.14,3.56-.42,4.47-2.09,6.92-3.22,7.36-3.38.8-.44,1.71-.66,2.72-.66,1.53,0,2.82.52,3.86,1.57,1.05,1.05,1.57,2.31,1.57,3.8,0,2.41-1.19,4.12-3.56,5.13-5.43,2.82-9.07,4.53-10.92,5.13-1.05.36-2.45.54-4.22.54Z"></path><path class="cls-2" d="m963.65,1016.25c-1.53,0-2.82-.52-3.86-1.57s-1.57-2.31-1.57-3.8.52-2.78,1.57-3.86c.56-.52,1.19-.93,1.87-1.21l11.65-5.49c10.22-5.43,19.55-17.18,28-35.24l9.35,5.07c-9.09,19.59-19.31,32.64-30.65,39.16l-13.58,6.28c-.8.44-1.73.66-2.78.66Z"></path><path class="cls-2" d="m1060.13,1016.25h-1.75c-8.69,0-13.13-4.99-13.33-14.96v-19.61c-.32-5.71-1.96-10.63-4.92-14.75-2.96-4.12-6.73-6.18-11.31-6.18s-8.65,2.17-12.19,6.52c-3.02,4.63-4.59,9.88-4.71,15.75v27.82c0,1.49-.53,2.77-1.6,3.83s-2.34,1.6-3.83,1.6-2.82-.53-3.86-1.6c-1.05-1.07-1.57-2.34-1.57-3.83v-109.82c0-1.49.52-2.77,1.57-3.83,1.04-1.07,2.33-1.6,3.86-1.6s2.77.53,3.83,1.6c1.07,1.07,1.6,2.34,1.6,3.83v56.72c4.75-5.23,10.38-7.84,16.9-7.84,7.6,0,13.97,3.08,19.1,9.23,5.13,6.16,7.79,13.44,8,21.84l.06,2.66h-.06c0,11.22-.02,17.16-.06,17.8,0,2.66.78,3.98,2.35,3.98.36,0,.76-.06,1.21-.18,5.51-2.57,8.49-3.94,8.93-4.1.8-.44,1.71-.66,2.72-.66,1.53,0,2.82.52,3.86,1.57,1.05,1.05,1.57,2.31,1.57,3.8s-.52,2.78-1.57,3.86c-.56.52-1.19.93-1.87,1.21l-10.14,4.71c-.81.44-1.73.66-2.78.66Z"></path><path class="cls-2" d="m1060.2,1016.25c-1.53,0-2.82-.52-3.86-1.57s-1.57-2.31-1.57-3.8.52-2.78,1.57-3.86c.56-.52,2.94-1.75,7.12-3.68,11.58-5.23,21.26-9.98,29.02-14.24l3.74,9.66c-7.72,4.18-15.15,8.08-22.27,11.71l-10.98,5.13c-.8.44-1.73.66-2.78.66Z"></path><path class="cls-2" d="m1119.87,1016.85c-3.78,0-6.77-.08-8.96-.24-2.19-.16-5.06-.86-8.6-2.11-4.63-2.13-8.71-5.73-12.25-10.8-.48-.68-1.17-2.02-2.05-4.01-.89-1.99-1.57-4.54-2.05-7.66-.48-3.12-.72-6.16-.72-9.14,0-9.17,2.84-17,8.51-23.47,2.61-3.02,5.49-5.33,8.63-6.94,3.26-1.45,6.9-2.31,10.92-2.59,13.96.72,20.94,7.22,20.94,19.49,0,7.16-3.48,12.73-10.44,16.71l-24.86,11.22c1.57,2.7,3.02,4.51,4.34,5.43,1.33.93,2.82,1.67,4.47,2.23,2.29.8,5.51,1.29,9.65,1.45,4.3,0,9.78-1.73,16.41-5.19,1.01-.52,2.01-.78,3.02-.78,1.53,0,2.82.52,3.86,1.57,1.05,1.05,1.57,2.31,1.57,3.8s-.52,2.78-1.57,3.86c-.56.52-1.19.93-1.87,1.21l-10.14,4.71c-2.09.84-5.03,1.27-8.81,1.27Zm-23.59-30.23c14.96-5.79,23.19-10.02,24.68-12.67.88-1.65,1.33-3.28,1.33-4.89,0-5.23-3.22-7.84-9.65-7.84-3.3,0-6.48,1.53-9.53,4.59-2.33,2.33-4.08,4.65-5.25,6.94s-1.75,5.67-1.75,10.14c0,1.33.06,2.58.18,3.74Z"></path><path class="cls-2" d="m1238.8,1016.25h-1.75c-8.69,0-13.13-4.99-13.34-14.96v-100.41c0-1.49.52-2.77,1.57-3.83,1.04-1.07,2.33-1.6,3.86-1.6s2.77.53,3.83,1.6c1.07,1.07,1.6,2.34,1.6,3.83,0,66.37-.02,99.88-.06,100.53,0,2.66.79,3.98,2.35,3.98.36,0,.76-.06,1.21-.18,5.51-2.57,8.49-3.94,8.93-4.1.8-.44,1.71-.66,2.71-.66,1.53,0,2.82.52,3.86,1.57,1.04,1.05,1.57,2.31,1.57,3.8s-.52,2.78-1.57,3.86c-.56.52-1.19.93-1.87,1.21l-10.14,4.71c-.81.44-1.73.66-2.78.66Z"></path><path class="cls-2" d="m1238.86,1016.25c-1.53,0-2.82-.52-3.86-1.57s-1.57-2.31-1.57-3.8.52-2.78,1.57-3.86c.56-.52,1.19-.93,1.87-1.21l11.65-5.49c10.22-5.43,19.55-17.18,28-35.24l9.35,5.07c-9.09,19.59-19.31,32.64-30.65,39.16l-13.58,6.28c-.8.44-1.73.66-2.78.66Z"></path><path class="cls-2" d="m1333.78,1016.25h-1.81c-6.4,0-10.48-2.74-12.25-8.21-5.39,5.47-11.77,8.21-19.13,8.21-8.01,0-14.83-3.24-20.49-9.71-5.65-6.48-8.48-14.3-8.48-23.47s2.83-17,8.48-23.47c5.65-6.48,12.48-9.71,20.49-9.71,6.92,0,12.95,2.41,18.1,7.24v-1.81c0-1.49.52-2.77,1.57-3.83,1.05-1.07,2.33-1.6,3.86-1.6s2.76.53,3.83,1.6c1.07,1.07,1.6,2.34,1.6,3.83,0,30.09-.02,45.46-.06,46.1,0,2.66.78,3.98,2.35,3.98.36,0,.76-.06,1.21-.18,5.51-2.57,8.49-3.94,8.93-4.1.8-.44,1.71-.66,2.71-.66,1.53,0,2.82.52,3.86,1.57,1.05,1.05,1.57,2.31,1.57,3.8s-.52,2.78-1.57,3.86c-.56.52-1.19.93-1.87,1.21l-10.14,4.71c-.8.44-1.73.66-2.78.66Zm-33.19-10.86c4.99,0,9.25-2.18,12.79-6.55,3.54-4.36,5.31-9.62,5.31-15.78s-1.77-11.41-5.31-15.78c-3.54-4.36-7.8-6.55-12.79-6.55s-9.25,2.18-12.79,6.55c-3.54,4.37-5.31,9.62-5.31,15.78s1.77,11.41,5.31,15.78c3.54,4.37,7.8,6.55,12.79,6.55Z"></path><path class="cls-2" d="m1333.84,1016.25c-1.53,0-2.82-.52-3.86-1.57s-1.57-2.31-1.57-3.8.52-2.78,1.57-3.86c.56-.52,1.19-.93,1.87-1.21l10.74-5.01c14.56-6.15,24.14-21.42,28.72-45.8h9.78c-4.59,27.88-14.72,45.9-30.41,54.06l-14.06,6.52c-.8.44-1.73.66-2.78.66Z"></path><path class="cls-2" d="m1419.52,1016.25h-43.38c-1.61,0-2.93-.52-3.95-1.57s-1.54-2.33-1.54-3.86.54-2.78,1.63-3.86l36.08-46.22h-32.28c-1.49,0-2.77-.52-3.83-1.57-1.07-1.04-1.6-2.33-1.6-3.86s.53-2.77,1.6-3.83,2.34-1.6,3.83-1.6h42.78c.24-.04.5-.06.79-.06,1.17,0,2.25.4,3.26,1.21,1.41,1.09,2.11,2.49,2.11,4.22,0,1.45-.5,2.71-1.51,3.8l-36.2,46.34h32.22c1.49,0,2.77.53,3.83,1.6,1.07,1.07,1.6,2.34,1.6,3.83s-.53,2.82-1.6,3.86c-1.07,1.05-2.34,1.57-3.83,1.57Z"></path><path class="cls-2" d="m1419.58,1016.25c-1.53,0-2.82-.52-3.86-1.57s-1.57-2.31-1.57-3.8.52-2.78,1.57-3.86c.56-.52,1.19-.93,1.87-1.21l11.65-5.49c10.22-5.43,19.55-17.18,28-35.24l9.35,5.07c-9.09,19.59-19.31,32.64-30.65,39.16l-13.58,6.28c-.8.44-1.73.66-2.78.66Z"></path><path class="cls-2" d="m1496.28,1070.55c-5.15,0-9.53-1.81-13.15-5.43-3.62-3.62-5.47-7.93-5.55-12.91v-1.75c0-15.12,8.83-28.56,26.49-40.31v-.48c-1.17.64-2.35,1.37-3.56,2.17-4.3,2.94-9.15,4.4-14.54,4.4-8.01,0-14.82-3.24-20.46-9.71-5.51-6.28-8.35-13.84-8.51-22.69v-28.54c0-1.49.52-2.77,1.57-3.83,1.04-1.07,2.33-1.6,3.86-1.6s2.77.53,3.83,1.6c1.07,1.07,1.6,2.34,1.6,3.83v27.76c0,6.15,1.77,11.41,5.31,15.78,3.54,4.37,7.8,6.55,12.79,6.55s9.25-2.19,12.79-6.58c3.54-3.94,5.31-8.99,5.31-15.15l.06-28.36c0-1.49.52-2.77,1.57-3.83,1.04-1.07,2.33-1.6,3.86-1.6s2.77.53,3.83,1.6c1.07,1.07,1.6,2.34,1.6,3.83v47.13c3.1-1.45,4.87-2.25,5.31-2.41.8-.44,1.71-.66,2.72-.66,1.53,0,2.82.5,3.86,1.51,1.05,1.01,1.57,2.25,1.57,3.74,0,2.41-1.15,4.08-3.44,5.01l-10.02,4.77v37.83c-.08,4.99-1.93,9.29-5.55,12.91-3.62,3.62-8,5.43-13.15,5.43Zm0-10.86c2.17,0,4-.75,5.49-2.23,1.49-1.49,2.27-3.24,2.35-5.25v-29.45c-10.18,8.77-15.49,17.82-15.93,27.15l.06,2.29c.2,2.01,1.04,3.76,2.53,5.25s3.32,2.23,5.49,2.23Z"></path><path class="cls-2" d="m1664.99,1016.25h-1.81c-6.4,0-10.48-2.74-12.25-8.21-5.39,5.47-11.77,8.21-19.13,8.21-8.01,0-14.83-3.24-20.49-9.71-5.65-6.48-8.48-14.3-8.48-23.47s2.83-17,8.48-23.47c5.65-6.48,12.48-9.71,20.49-9.71,6.92,0,12.95,2.41,18.1,7.24v-56.12c0-1.49.52-2.77,1.57-3.83,1.05-1.07,2.33-1.6,3.86-1.6s2.76.53,3.83,1.6c1.07,1.07,1.6,2.34,1.6,3.83,0,66.29-.02,99.76-.06,100.41,0,2.66.78,3.98,2.35,3.98.36,0,.76-.06,1.21-.18,5.51-2.57,8.49-3.94,8.93-4.1.8-.44,1.71-.66,2.71-.66,1.53,0,2.82.52,3.86,1.57,1.05,1.05,1.57,2.31,1.57,3.8s-.52,2.78-1.57,3.86c-.56.52-1.19.93-1.87,1.21l-10.14,4.71c-.8.44-1.73.66-2.78.66Zm-33.19-10.86c4.99,0,9.25-2.18,12.79-6.55,3.54-4.36,5.31-9.62,5.31-15.78s-1.77-11.41-5.31-15.78c-3.54-4.36-7.8-6.55-12.79-6.55s-9.25,2.18-12.79,6.55c-3.54,4.37-5.31,9.62-5.31,15.78s1.77,11.41,5.31,15.78c3.54,4.37,7.8,6.55,12.79,6.55Z"></path><path class="cls-2" d="m1665.05,1016.25c-1.53,0-2.82-.52-3.86-1.57s-1.57-2.31-1.57-3.8.52-2.78,1.57-3.86c.56-.52,1.19-.93,1.87-1.21l11.65-5.49c10.22-5.43,19.55-17.18,28-35.24l9.35,5.07c-9.09,19.59-19.31,32.64-30.65,39.16l-13.58,6.28c-.8.44-1.73.66-2.78.66Z"></path><path class="cls-2" d="m1726.78,1016.25c-8.01,0-14.83-3.24-20.49-9.71-5.65-6.48-8.48-14.3-8.48-23.47s2.83-17,8.48-23.47c5.65-6.48,12.48-9.71,20.49-9.71,1.65,0,3.08.1,4.28.3,12.11,1.97,21.4,2.96,27.88,2.96,1.49,0,2.77.53,3.83,1.6,1.07,1.07,1.6,2.34,1.6,3.83s-.53,2.81-1.6,3.83c-1.07,1.03-2.34,1.54-3.83,1.54-1.21,0-4.1-.14-8.69-.42,3.66,5.63,5.49,12.15,5.49,19.55,0,9.17-2.83,17-8.48,23.47-5.65,6.48-12.48,9.71-20.49,9.71Zm0-10.86c4.99,0,9.25-2.18,12.79-6.55,3.54-4.36,5.31-9.62,5.31-15.78s-1.77-11.41-5.31-15.78c-3.54-4.36-7.8-6.55-12.79-6.55s-9.25,2.18-12.79,6.55c-3.54,4.37-5.31,9.62-5.31,15.78s1.77,11.41,5.31,15.78c3.54,4.37,7.8,6.55,12.79,6.55Z"></path><path class="cls-2" d="m1760.08,964.17c-6.88,0-12.31-.36-16.29-1.09-4.06-.48-6.92-.88-8.57-1.18s-3.01-.95-4.07-1.93c-1.07-.98-1.6-2.22-1.6-3.71s.53-2.76,1.6-3.83c1.07-1.07,2.34-1.6,3.83-1.6.76,0,1.49.1,2.17.3,8.33,1.41,17.3,2.11,26.91,2.11,12.71,0,24.08-.72,34.09-2.17,1.49,0,2.77.53,3.83,1.6,1.07,1.07,1.6,2.26,1.6,3.59,0,1.53-.53,2.82-1.6,3.86-1.07,1.05-2.34,1.57-3.83,1.57-10.1,1.65-22.79,2.47-38.08,2.47Z"></path><path class="cls-2" d="m1815.9,1070.55c-5.15,0-9.53-1.81-13.15-5.43s-5.47-7.93-5.55-12.91v-1.75c0-15.12,8.85-28.58,26.55-40.37v-.48l-3.62,2.23c-4.3,2.94-9.15,4.4-14.54,4.4-8.01,0-14.83-3.24-20.49-9.71-5.65-6.48-8.48-14.3-8.48-23.47s2.83-17,8.48-23.47c5.65-6.48,12.48-9.71,20.49-9.71,4.75,0,9.07,1.13,12.97,3.38,1.81,1.05,3.54,2.53,5.19,4.46v-2.41c0-1.49.52-2.77,1.57-3.83,1.05-1.07,2.33-1.6,3.86-1.6s2.77.53,3.83,1.6c1.07,1.07,1.6,2.34,1.6,3.83v47.13c3.1-1.45,4.87-2.25,5.31-2.41.8-.44,1.71-.66,2.71-.66,1.53,0,2.82.5,3.86,1.51,1.04,1.01,1.57,2.25,1.57,3.74,0,2.41-1.15,4.08-3.44,5.01l-10.02,4.77v37.83c-.08,4.99-1.93,9.29-5.55,12.91-3.62,3.62-8.01,5.43-13.15,5.43Zm-10.32-65.17c4.99,0,9.25-2.19,12.79-6.58,3.54-3.94,5.31-8.99,5.31-15.15s-1.77-11.62-5.31-16.41c-3.54-4.34-7.8-6.52-12.79-6.52s-9.25,2.18-12.79,6.55c-3.54,4.37-5.31,9.62-5.31,15.78s1.77,11.41,5.31,15.78c3.54,4.37,7.8,6.55,12.79,6.55Zm10.32,54.31c2.17,0,4-.75,5.49-2.23,1.49-1.49,2.27-3.24,2.35-5.25v-29.45c-10.18,8.77-15.49,17.82-15.93,27.15l.06,2.29c.2,2.01,1.05,3.76,2.53,5.25,1.49,1.49,3.32,2.23,5.49,2.23Z"></path><path class="cls-2" d="m129.75,316.15c-1.53,0-2.82-.53-3.86-1.6-1.05-1.07-1.57-2.34-1.57-3.83v-104.39h-29.57c-1.49,0-2.77-.52-3.83-1.57-1.07-1.05-1.6-2.33-1.6-3.86s.53-2.77,1.6-3.83,2.34-1.6,3.83-1.6h69.99c1.49,0,2.77.53,3.83,1.6,1.07,1.07,1.6,2.34,1.6,3.83s-.53,2.82-1.6,3.86c-1.07,1.05-2.34,1.57-3.83,1.57h-29.57v104.39c0,1.49-.53,2.77-1.6,3.83s-2.34,1.6-3.83,1.6Z"></path><path class="cls-2" d="m249.16,316.15h-1.75c-8.69,0-13.13-4.99-13.34-14.96v-19.61c-.32-5.71-1.96-10.63-4.92-14.75-2.96-4.12-6.73-6.19-11.31-6.19s-8.65,2.17-12.19,6.52c-3.02,4.63-4.59,9.88-4.71,15.75v27.82c0,1.49-.53,2.77-1.6,3.83-1.07,1.07-2.34,1.6-3.83,1.6s-2.82-.53-3.86-1.6c-1.05-1.07-1.57-2.34-1.57-3.83v-109.82c0-1.49.52-2.77,1.57-3.83,1.05-1.07,2.33-1.6,3.86-1.6s2.77.53,3.83,1.6c1.06,1.07,1.6,2.34,1.6,3.83v56.72c4.75-5.23,10.38-7.84,16.9-7.84,7.6,0,13.97,3.08,19.1,9.23s7.79,13.44,8,21.84l.06,2.66h-.06c0,11.22-.02,17.16-.06,17.8,0,2.65.78,3.98,2.35,3.98.36,0,.76-.06,1.21-.18,5.51-2.57,8.49-3.94,8.93-4.1.8-.44,1.71-.66,2.72-.66,1.53,0,2.82.52,3.86,1.57,1.05,1.05,1.57,2.31,1.57,3.8s-.52,2.78-1.57,3.86c-.56.52-1.19.93-1.87,1.21l-10.14,4.71c-.81.44-1.73.66-2.78.66Z"></path><path class="cls-2" d="m249.22,316.15c-1.53,0-2.82-.52-3.86-1.57-1.05-1.04-1.57-2.51-1.57-4.4,0-1.49.52-2.78,1.57-3.86.56-.52,6.21-2.75,16.93-6.7s19.46-7.94,26.22-12.01l3.74,9.65c-6.52,4.26-19.93,10.34-40.25,18.22-.8.44-1.73.66-2.78.66Z"></path><path class="cls-2" d="m313.85,317.78h-.72c-12.67,0-21.76-5.15-27.27-15.45-2.57-5.27-3.86-10.6-3.86-15.99,0-1.17.06-2.35.18-3.56,0-9.17,2.84-17,8.51-23.47,2.61-3.02,5.49-5.33,8.63-6.94,3.26-1.45,6.9-2.31,10.92-2.59,13.96.72,20.94,7.22,20.94,19.49,0,7.16-3.48,12.73-10.44,16.71-6.92,3.58-14.84,7.34-23.77,11.28,2.01,5.35,6.92,8.53,14.72,9.53h.97c3.66,0,7.8-1.03,12.43-3.08,1.73-.96,3.1-1.45,4.1-1.45,1.53,0,2.82.52,3.86,1.57,1.04,1.05,1.57,2.31,1.57,3.8s-.52,2.78-1.57,3.86c-6.2,4.1-12.59,6.19-19.19,6.28Zm-20.27-30.95c13.8-4.99,21.9-9.31,24.32-12.97.88-1.65,1.33-3.28,1.33-4.89,0-5.23-3.22-7.84-9.65-7.84-3.3,0-6.48,1.53-9.53,4.59-2.33,2.33-4.06,4.85-5.19,7.54-.89,2.17-1.33,5.51-1.33,10.02l.06,3.56Z"></path><path class="cls-2" d="m468.14,370.46c-1.53,0-2.82-.53-3.86-1.6-1.05-1.07-1.57-2.34-1.57-3.83v-56.12c-5.15,4.83-11.18,7.24-18.1,7.24-8.01,0-14.83-3.24-20.49-9.71-5.65-6.48-8.48-14.3-8.48-23.47s2.83-17,8.48-23.47c5.65-6.48,12.48-9.71,20.49-9.71,6.92,0,12.95,2.41,18.1,7.24v-3.56c1.41-2.45,3.22-3.68,5.43-3.68,1.53,0,2.81.52,3.86,1.57.68.72,1.15,1.53,1.39,2.41h.18v98.17l9.05-9.17c1.04-1.09,2.33-1.63,3.86-1.63s2.77.53,3.83,1.6,1.6,2.34,1.6,3.83c-.04,1.53-.58,2.82-1.63,3.86l-18.28,18.4c-1.09,1.09-2.37,1.63-3.86,1.63Zm-23.71-65.17c4.99,0,9.25-2.18,12.79-6.55,3.54-4.36,5.31-9.62,5.31-15.78s-1.77-11.41-5.31-15.78c-3.54-4.36-7.8-6.55-12.79-6.55s-9.25,2.18-12.79,6.55c-3.54,4.37-5.31,9.62-5.31,15.78s1.77,11.42,5.31,15.78c3.54,4.37,7.8,6.55,12.79,6.55Z"></path><path class="cls-2" d="m556.47,316.15h-1.69c-6.44,0-10.56-2.72-12.37-8.15-4.63,5.43-10.6,8.15-17.92,8.15-9.21,0-16.23-3.24-21.06-9.71-3.98-5.91-6.21-12.93-6.7-21.06v-30.17c0-1.49.53-2.76,1.6-3.83s2.34-1.6,3.83-1.6,2.82.53,3.86,1.6c1.04,1.07,1.57,2.34,1.57,3.83v27.76c0,6.15,1.27,11.42,3.8,15.78,2.53,4.37,6.9,6.55,13.09,6.55,4.99,0,9.05-2.18,12.19-6.55,3.14-4.36,4.71-9.62,4.71-15.78v-27.76c0-1.49.52-2.76,1.57-3.83,1.05-1.07,2.33-1.6,3.86-1.6s2.76.53,3.83,1.6c1.07,1.07,1.6,2.34,1.6,3.83,0,30.09-.02,45.46-.06,46.1,0,2.65.78,3.98,2.35,3.98.36,0,.76-.06,1.21-.18,5.51-2.57,8.49-3.94,8.93-4.1.8-.44,1.71-.66,2.72-.66,1.53,0,2.81.52,3.86,1.57,1.05,1.05,1.57,2.31,1.57,3.8s-.52,2.78-1.57,3.86c-.56.52-1.19.93-1.87,1.21l-10.14,4.71c-.8.44-1.73.66-2.78.66Z"></path><path class="cls-2" d="m556.53,316.15c-1.53,0-2.82-.52-3.86-1.57-1.05-1.04-1.57-2.31-1.57-3.8s.52-2.78,1.57-3.86c.56-.52,1.19-.92,1.87-1.21l11.65-5.49c10.22-5.43,19.55-17.18,28-35.24l9.35,5.07c-9.09,19.59-19.31,32.64-30.65,39.16l-13.58,6.28c-.8.44-1.73.66-2.78.66Z"></path><path class="cls-2" d="m599.38,237.71c-1.97,0-3.62-.68-4.95-2.05-1.33-1.37-1.99-3-1.99-4.89s.66-3.52,1.99-4.89c1.33-1.37,2.98-2.05,4.95-2.05s3.52.68,4.89,2.05c1.37,1.37,2.05,3,2.05,4.89s-.68,3.52-2.05,4.89-3,2.05-4.89,2.05Zm9.65,78.44h-1.75c-8.69,0-13.13-4.99-13.34-14.96v-45.98c0-1.49.52-2.76,1.57-3.83,1.04-1.07,2.33-1.6,3.86-1.6s2.77.53,3.83,1.6c1.07,1.07,1.6,2.34,1.6,3.83,0,30.09-.02,45.46-.06,46.1,0,2.65.79,3.98,2.35,3.98.36,0,.76-.06,1.21-.18,5.51-2.57,8.49-3.94,8.93-4.1.8-.44,1.71-.66,2.71-.66,1.53,0,2.82.52,3.86,1.57,1.04,1.05,1.57,2.31,1.57,3.8s-.52,2.78-1.57,3.86c-.56.52-1.19.93-1.87,1.21l-10.14,4.71c-.81.44-1.73.66-2.78.66Z"></path><path class="cls-2" d="m609.09,316.15c-1.53,0-2.82-.52-3.86-1.57-1.05-1.04-1.57-2.31-1.57-3.8s.52-2.78,1.57-3.86c.56-.52,1.19-.92,1.87-1.21l11.65-5.49c10.22-5.43,19.55-17.18,28-35.24l9.35,5.07c-9.09,19.59-19.31,32.64-30.65,39.16l-13.58,6.28c-.8.44-1.73.66-2.78.66Z"></path><path class="cls-2" d="m676.61,316.76c-3.78,0-6.77-.08-8.96-.24-2.19-.16-5.06-.86-8.6-2.11-5.07-2.33-9.2-5.86-12.4-10.59-3.2-4.73-4.8-11.68-4.8-20.85s2.84-17,8.51-23.47c2.61-3.02,5.49-5.33,8.63-6.94,3.94-1.77,8.47-2.66,13.58-2.66,8.25,0,15,2.55,20.27,7.66,1.05,1.09,1.57,2.37,1.57,3.86s-.53,2.77-1.6,3.83-2.34,1.6-3.83,1.6-2.82-.54-3.86-1.63l-.48-.48c-4.26-2.53-8.25-3.8-11.95-3.8-1.53,0-3.49.24-5.88.72-2.39.48-4.75,1.94-7.06,4.37-2.31,2.43-4.06,4.75-5.25,6.94-1.19,2.19-1.78,5.52-1.78,9.99.08,10.42,3.16,17.32,9.23,20.7,3.14,1.57,7.2,2.45,12.19,2.65,4.3,0,9.78-1.73,16.41-5.19,1-.52,2.01-.78,3.02-.78,1.53,0,2.82.52,3.86,1.57,1.04,1.05,1.57,2.31,1.57,3.8s-.52,2.78-1.57,3.86c-.56.52-1.19.93-1.87,1.21l-10.14,4.71c-2.09.84-5.03,1.27-8.81,1.27Z"></path><path class="cls-2" d="m682.71,316.15c-1.53,0-2.82-.52-3.86-1.57-1.05-1.04-1.57-2.31-1.57-3.8s.52-2.78,1.57-3.86c.56-.52,1.19-.92,1.87-1.21l11.65-5.49c10.22-5.43,19.55-17.18,28-35.24l9.35,5.07c-9.09,19.59-19.31,32.64-30.65,39.16l-13.58,6.28c-.8.44-1.73.66-2.78.66Z"></path><path class="cls-2" d="m766.46,316.27c-4.55,0-7.92-.77-10.11-2.32-2.19-1.55-6.58-6.49-13.15-14.81-6.58-8.33-10.65-12.55-12.22-12.67v24.26c0,1.49-.53,2.77-1.6,3.83s-2.34,1.6-3.83,1.6-2.82-.53-3.86-1.6c-1.05-1.07-1.57-2.34-1.57-3.83v-109.82c0-1.49.52-2.77,1.57-3.83,1.04-1.07,2.33-1.6,3.86-1.6s2.77.53,3.83,1.6c1.07,1.07,1.6,2.34,1.6,3.83v56.12c5.19-4.83,11.22-7.24,18.1-7.24,7.64,0,14.14,2.96,19.49,8.87,2.45,3.58,3.68,7.2,3.68,10.86v.54c-.36,3.62-1.06,6.17-2.08,7.63-1.03,1.47-2.21,2.74-3.56,3.8-1.35,1.07-2.89,2.01-4.62,2.84-1.73.83-4.87,1.7-9.41,2.62-1.57.36-3.3.56-5.19.6,6.84,8.29,11.12,13.36,12.85,15.21,1.49,1.61,3.86,2.41,7.12,2.41l1.51-.06c5.51-2.57,8.49-3.94,8.93-4.1.8-.44,1.71-.66,2.72-.66,1.53,0,2.81.52,3.86,1.57,1.05,1.05,1.57,2.31,1.57,3.8s-.52,2.78-1.57,3.86c-.56.52-1.19.93-1.87,1.21l-10.14,4.71c-.8.44-1.74.68-2.81.72-1.07.04-2.1.06-3.11.06Zm-22.21-39.04c2.41,0,5.29-.42,8.63-1.27s5.65-1.87,6.94-3.08c.6-.6,1.05-1.61,1.33-3.02.08-.28.12-.6.12-.97,0-2.78-1.53-5.01-4.59-6.7-1.93-1.05-4.55-1.57-7.84-1.57-4.71,0-8.81,1.78-12.31,5.34-3.5,3.56-5.25,6.21-5.25,7.93v1.63c4.95,1.13,9.27,1.69,12.97,1.69Z"></path><path class="cls-2" d="m896.37,316.15c-6.92,0-12.95-2.41-18.1-7.24v1.81c0,1.49-.53,2.77-1.6,3.83s-2.34,1.6-3.83,1.6-2.82-.53-3.86-1.6c-1.05-1.07-1.57-2.34-1.57-3.83v-109.82c0-1.49.52-2.77,1.57-3.83,1.04-1.07,2.33-1.6,3.86-1.6s2.77.53,3.83,1.6c1.07,1.07,1.6,2.34,1.6,3.83v56.12c5.15-4.83,11.18-7.24,18.1-7.24,8,0,14.83,3.24,20.49,9.71,5.65,6.48,8.48,14.3,8.48,23.47s-2.83,17-8.48,23.47c-5.65,6.48-12.48,9.71-20.49,9.71Zm.18-10.86c4.99,0,9.25-2.18,12.79-6.55,3.54-4.36,5.31-9.62,5.31-15.78s-1.77-11.41-5.31-15.78c-3.54-4.36-7.8-6.55-12.79-6.55s-9.25,2.18-12.79,6.55c-3.54,4.37-5.31,9.62-5.31,15.78s1.77,11.42,5.31,15.78c3.54,4.37,7.8,6.55,12.79,6.55Z"></path><path class="cls-2" d="m949.83,316.15c-1.53,0-2.82-.53-3.86-1.6-1.05-1.07-1.57-2.34-1.57-3.83v-55.51c0-1.49.52-2.76,1.57-3.83,1.04-1.07,2.33-1.6,3.86-1.6s2.77.53,3.83,1.6c1.07,1.07,1.6,2.34,1.6,3.83v5.97c4.3-7.4,9.65-11.18,16.05-11.34,1.77,0,3.48.31,5.13.94,1.65.62,3.7,1.32,6.15,2.08,1.01.2,1.89.68,2.66,1.45,1.05,1.09,1.57,2.37,1.57,3.86s-.48,2.77-1.45,3.83c-.97,1.07-2.19,1.6-3.68,1.6-.72,0-3.44-.66-8.15-1.99-.6-.16-1.21-.24-1.81-.24-2.62,0-5.19,1.84-7.72,5.52-2.53,3.68-5.45,10.71-8.75,21.09v22.75c0,1.49-.53,2.77-1.6,3.83s-2.34,1.6-3.83,1.6Z"></path><path class="cls-2" d="m988.45,263.66h-4.37c-1.47,0-2.73-.53-3.77-1.6-1.05-1.07-1.57-2.34-1.57-3.83s.52-2.77,1.57-3.83c1.05-1.07,2.33-1.6,3.86-1.6.28,0,4.67-.03,13.15-.09,8.49-.06,19.27-.96,32.34-2.69,1.49,0,2.77.53,3.83,1.6,1.07,1.07,1.6,2.34,1.6,3.83,0,1.37-.53,2.5-1.6,3.41-1.07.9-2.34,1.42-3.83,1.54-11.14,2.13-24.88,3.22-41.21,3.26Z"></path><path class="cls-2" d="m1031.05,316.15c-8.01,0-14.83-3.24-20.49-9.71-5.65-6.48-8.48-14.3-8.48-23.47s2.83-17,8.48-23.47c5.65-6.48,12.48-9.71,20.49-9.71s14.83,3.24,20.49,9.71c5.65,6.48,8.48,14.3,8.48,23.47s-2.83,17-8.48,23.47c-5.65,6.48-12.48,9.71-20.49,9.71Zm0-10.86c4.99,0,9.25-2.18,12.79-6.55,3.54-4.36,5.31-9.62,5.31-15.78s-1.77-11.41-5.31-15.78c-3.54-4.36-7.8-6.55-12.79-6.55s-9.25,2.18-12.79,6.55c-3.54,4.37-5.31,9.62-5.31,15.78s1.77,11.42,5.31,15.78c3.54,4.37,7.8,6.55,12.79,6.55Z"></path><path class="cls-2" d="m1066.47,263.78c-2.57,0-6.68-.22-12.31-.66s-9.9-.8-12.79-1.09c-4.06-.48-6.92-.88-8.57-1.18-1.65-.3-3.01-.95-4.07-1.93-1.07-.99-1.6-2.22-1.6-3.71s.53-2.76,1.6-3.83c1.07-1.07,2.34-1.6,3.83-1.6.76,0,1.49.1,2.17.3,12.15,1.97,21.62,2.96,28.42,2.96,6.11,0,12.69-.88,19.73-2.66.76-.4,1.59-.6,2.47-.6,1.49,0,2.77.52,3.83,1.57,1.07,1.05,1.6,2.33,1.6,3.86s-.53,2.77-1.6,3.83-4.4,2.22-9.99,3.47c-3.66.84-7.91,1.27-12.73,1.27Z"></path><path class="cls-2" d="m1142.74,316.15c-.68,0-1.39-.14-2.11-.42-1.37-.56-2.33-1.55-2.9-2.96l-14.3-41.27-14.12,40.67c-.52,1.73-1.57,2.92-3.14,3.56-.72.28-1.43.42-2.11.42s-1.39-.14-2.11-.42c-1.37-.56-2.33-1.55-2.9-2.96-.12-.2-3.36-9.55-9.71-28.06-6.68-18.99-10.02-28.82-10.02-29.51,0-2.37,1.13-4.04,3.38-5.01.72-.28,1.43-.42,2.11-.42,2.41,0,4.08,1.13,5.01,3.38l14.24,42.18,14.24-42.18c.56-1.37,1.55-2.35,2.96-2.96.68-.28,1.41-.42,2.17-.42,2.45,0,4.14,1.13,5.07,3.38l14.24,42.18,14.24-42.18c.56-1.37,1.55-2.35,2.96-2.96.68-.28,1.37-.42,2.05-.42.72,0,1.43.14,2.11.42,2.21.96,3.32,2.62,3.32,4.95,0,.72-.14,1.45-.42,2.17l-19.19,55.45c-.6,1.41-1.59,2.39-2.96,2.96-.72.28-1.43.42-2.11.42Z"></path><path class="cls-2" d="m1170.14,263.78l-5.37-.12c-1.53,0-2.82-.53-3.86-1.6-1.05-1.07-1.57-2.34-1.57-3.83s.52-2.77,1.57-3.83c1.05-1.07,2.33-1.6,3.86-1.6,1.97.08,3.84.12,5.61.12,5.67-.04,10.5-.57,14.48-1.6s6.42-1.54,7.3-1.54c1.49,0,2.77.52,3.83,1.57,1.07,1.05,1.6,2.33,1.6,3.86s-.53,2.77-1.6,3.83-4.6,2.18-10.59,3.35c-4.59.89-9.67,1.35-15.27,1.39Z"></path><path class="cls-2" d="m1245.8,316.15h-1.75c-8.69,0-13.13-4.99-13.33-14.96v-20.15c0-5.47-1.06-10.24-3.17-14.3-2.11-4.06-5.46-6.09-10.05-6.09-6.6,0-11.67,2.17-15.21,6.52-1.97,3.06-3.34,6.38-4.1,9.96v33.61c0,1.49-.53,2.77-1.6,3.83s-2.34,1.6-3.83,1.6-2.82-.53-3.86-1.6c-1.05-1.07-1.57-2.34-1.57-3.83v-55.51c0-1.49.52-2.76,1.57-3.83,1.04-1.07,2.33-1.6,3.86-1.6s2.77.53,3.83,1.6c1.07,1.07,1.6,2.34,1.6,3.83v1.75c4.63-4.79,11.06-7.18,19.31-7.18,7.6,0,13.78,3.08,18.52,9.23,3.7,5.91,5.55,12.85,5.55,20.82l.06,3.68h-.06c0,11.22-.02,17.16-.06,17.8,0,2.65.79,3.98,2.35,3.98.36,0,.76-.06,1.21-.18,5.51-2.57,8.49-3.94,8.93-4.1.8-.44,1.71-.66,2.71-.66,1.53,0,2.82.52,3.86,1.57,1.04,1.05,1.57,2.31,1.57,3.8s-.52,2.78-1.57,3.86c-.56.52-1.19.93-1.87,1.21l-10.14,4.71c-.81.44-1.73.66-2.78.66Z"></path><path class="cls-2" d="m1332.75,370.46c-4.1,0-7.78-.99-11.04-2.96-1.89-1.21-2.84-2.82-2.84-4.83,0-1.49.52-2.77,1.57-3.83,1.05-1.07,2.33-1.6,3.86-1.6,1.21,0,2.29.36,3.26,1.09,1.53.84,3.26,1.27,5.19,1.27,3.02,0,5.58-1.06,7.69-3.17s3.17-4.68,3.17-7.69v-85.08h-9.05c-1.49,0-2.77-.52-3.83-1.57-1.07-1.04-1.6-2.33-1.6-3.86s.53-2.77,1.6-3.83,2.34-1.6,3.83-1.6h9.05v-38.01c.24-4.79,2.27-9.15,6.09-13.09,4.42-4.14,9.63-6.21,15.63-6.21,4.1,0,7.78.99,11.04,2.96,1.65,1.21,2.47,2.74,2.47,4.59,0,1.49-.53,2.77-1.6,3.83s-2.34,1.6-3.83,1.6c-1.21,0-2.25-.32-3.14-.96-1.49-.76-3.14-1.15-4.95-1.15-3.02,0-5.58,1.06-7.69,3.17-2.11,2.11-3.17,4.68-3.17,7.69v35.6h12.07c1.49,0,2.77.53,3.83,1.6,1.07,1.07,1.6,2.34,1.6,3.83s-.53,2.82-1.6,3.86c-1.07,1.05-2.34,1.57-3.83,1.57h-12.07v86.35h-.06c-.28,5.47-2.37,10.16-6.28,14.06-4.26,4.26-9.39,6.4-15.39,6.4Z"></path><path class="cls-2" d="m1370.83,263.66h-4.37c-1.47,0-2.73-.53-3.77-1.6-1.05-1.07-1.57-2.34-1.57-3.83s.52-2.77,1.57-3.83c1.05-1.07,2.33-1.6,3.86-1.6.28,0,4.67-.03,13.15-.09,8.49-.06,19.27-.96,32.34-2.69,1.49,0,2.77.53,3.83,1.6,1.07,1.07,1.6,2.34,1.6,3.83,0,1.37-.53,2.5-1.6,3.41-1.07.9-2.34,1.42-3.83,1.54-11.14,2.13-24.88,3.22-41.21,3.26Z"></path><path class="cls-2" d="m1413.43,316.15c-8.01,0-14.83-3.24-20.49-9.71-5.65-6.48-8.48-14.3-8.48-23.47s2.83-17,8.48-23.47c5.65-6.48,12.48-9.71,20.49-9.71s14.83,3.24,20.49,9.71c5.65,6.48,8.48,14.3,8.48,23.47s-2.83,17-8.48,23.47c-5.65,6.48-12.48,9.71-20.49,9.71Zm0-10.86c4.99,0,9.25-2.18,12.79-6.55,3.54-4.36,5.31-9.62,5.31-15.78s-1.77-11.41-5.31-15.78c-3.54-4.36-7.8-6.55-12.79-6.55s-9.25,2.18-12.79,6.55c-3.54,4.37-5.31,9.62-5.31,15.78s1.77,11.42,5.31,15.78c3.54,4.37,7.8,6.55,12.79,6.55Z"></path><path class="cls-2" d="m1448.85,263.78c-2.57,0-6.68-.22-12.31-.66s-9.9-.8-12.79-1.09c-4.06-.48-6.92-.88-8.57-1.18-1.65-.3-3.01-.95-4.07-1.93-1.07-.99-1.6-2.22-1.6-3.71s.53-2.76,1.6-3.83c1.07-1.07,2.34-1.6,3.83-1.6.76,0,1.49.1,2.17.3,12.15,1.97,21.62,2.96,28.42,2.96,6.11,0,12.69-.88,19.73-2.66.76-.4,1.59-.6,2.47-.6,1.49,0,2.77.52,3.83,1.57,1.07,1.05,1.6,2.33,1.6,3.86s-.53,2.77-1.6,3.83-4.4,2.22-9.99,3.47c-3.66.84-7.91,1.27-12.73,1.27Z"></path><path class="cls-2" d="m1509.79,316.15c-.24,0-.81-.06-1.69-.18-.89-.12-1.77-.76-2.66-1.93l-17.08-22.27-16.83,22.27c-1.13,1.41-2.59,2.11-4.41,2.11-1.17,0-2.25-.38-3.26-1.15-1.41-1.09-2.11-2.55-2.11-4.41,0-1.13.38-2.19,1.15-3.2l18.58-24.56-18.65-24.32c-.76-1-1.15-2.09-1.15-3.26,0-.24.05-.79.15-1.66.1-.86.75-1.76,1.96-2.69,1-.76,2.09-1.15,3.26-1.15.24,0,.8.06,1.69.18.88.12,1.79.76,2.71,1.93l16.83,21.96,16.65-21.96c1.09-1.41,2.53-2.11,4.34-2.11,1.17,0,2.25.38,3.26,1.15,1.41,1.09,2.11,2.56,2.11,4.41,0,1.17-.36,2.23-1.09,3.2l-18.4,24.26,18.89,24.62c.72.97,1.09,2.03,1.09,3.2,0,.24-.06.81-.18,1.72-.12.91-.76,1.8-1.93,2.69-1.01.76-2.09,1.15-3.26,1.15Z"></path><path class="cls-2" d="m87.51,550.46c-4.1,0-7.78-.99-11.04-2.96-1.89-1.21-2.84-2.82-2.84-4.83,0-1.49.52-2.77,1.57-3.83,1.05-1.07,2.33-1.6,3.86-1.6,1.21,0,2.29.36,3.26,1.09,1.53.84,3.26,1.27,5.19,1.27,3.02,0,5.58-1.06,7.69-3.17,2.11-2.11,3.17-4.68,3.17-7.69l.06-93.53c0-1.49.52-2.76,1.57-3.83,1.05-1.07,2.33-1.6,3.86-1.6s2.77.53,3.83,1.6c1.07,1.07,1.6,2.34,1.6,3.83v60.4h-.06v34.39h-.06c-.28,5.47-2.37,10.16-6.28,14.06-4.26,4.26-9.39,6.4-15.39,6.4Zm16.35-132.75c-1.53,0-2.82-.53-3.86-1.6-1.05-1.07-1.57-2.34-1.57-3.83s.52-2.77,1.57-3.83c1.05-1.07,2.33-1.6,3.86-1.6s2.77.53,3.83,1.6c1.07,1.07,1.6,2.34,1.6,3.83s-.53,2.77-1.6,3.83-2.34,1.6-3.83,1.6Z"></path><path class="cls-2" d="m196.18,496.15h-1.69c-6.44,0-10.56-2.72-12.37-8.15-4.63,5.43-10.6,8.15-17.92,8.15-9.21,0-16.23-3.24-21.06-9.71-3.98-5.91-6.22-12.93-6.7-21.06v-30.17c0-1.49.53-2.76,1.6-3.83s2.34-1.6,3.83-1.6,2.82.53,3.86,1.6c1.05,1.07,1.57,2.34,1.57,3.83v27.76c0,6.15,1.27,11.42,3.8,15.78,2.53,4.37,6.9,6.55,13.09,6.55,4.99,0,9.05-2.18,12.19-6.55,3.14-4.36,4.71-9.62,4.71-15.78v-27.76c0-1.49.52-2.76,1.57-3.83,1.05-1.07,2.33-1.6,3.86-1.6s2.77.53,3.83,1.6c1.07,1.07,1.6,2.34,1.6,3.83,0,30.09-.02,45.46-.06,46.1,0,2.65.78,3.98,2.35,3.98.36,0,.76-.06,1.21-.18,5.51-2.57,8.49-3.94,8.93-4.1.8-.44,1.71-.66,2.72-.66,1.53,0,2.82.52,3.86,1.57,1.05,1.05,1.57,2.31,1.57,3.8s-.52,2.78-1.57,3.86c-.56.52-1.19.93-1.87,1.21l-10.14,4.71c-.81.44-1.73.66-2.78.66Z"></path><path class="cls-2" d="m196.24,496.15c-1.53,0-2.82-.52-3.86-1.57-1.05-1.04-1.57-2.31-1.57-3.8s.52-2.78,1.57-3.86c.56-.52,1.19-.92,1.87-1.21l11.65-5.49c10.22-5.43,19.55-17.18,28-35.24l9.35,5.07c-9.09,19.59-19.31,32.64-30.65,39.16l-13.58,6.28c-.8.44-1.73.66-2.78.66Z"></path><path class="cls-2" d="m313.91,496.15h-1.75c-8.69,0-13.13-4.99-13.33-14.96v-29.69c0-3.02-1.06-5.58-3.17-7.69-2.11-2.11-4.68-3.17-7.69-3.17s-5.58,1.06-7.69,3.17c-2.11,2.11-3.17,4.68-3.17,7.69v39.22c0,1.49-.53,2.77-1.6,3.83s-2.34,1.6-3.83,1.6-2.82-.53-3.86-1.6c-1.05-1.07-1.57-2.34-1.57-3.83v-39.22c0-3.02-.96-5.48-2.87-7.39-1.91-1.91-4.37-2.87-7.39-2.87s-5.68,1.46-8,4.38c-2.31,2.92-3.47,5.88-3.47,8.9v36.2c0,1.49-.53,2.77-1.6,3.83-1.07,1.07-2.34,1.6-3.83,1.6s-2.82-.53-3.86-1.6c-1.05-1.07-1.57-2.34-1.57-3.83v-55.51c0-1.49.52-2.76,1.57-3.83,1.05-1.07,2.33-1.6,3.86-1.6s2.78.52,3.86,1.57c.44.48.8,2.01,1.09,4.59,3.34-4.1,7.12-6.16,11.34-6.16,6.6,0,12.03,2.43,16.29,7.3l.97-.97c4.22-4.22,9.33-6.34,15.33-6.34s11.12,2.11,15.39,6.34c4.06,4.1,6.17,9.01,6.34,14.72,0,19.67-.02,29.83-.06,30.47,0,2.65.78,3.98,2.35,3.98.36,0,.76-.06,1.21-.18,5.51-2.57,8.49-3.94,8.93-4.1.8-.44,1.71-.66,2.72-.66,1.53,0,2.81.52,3.86,1.57,1.04,1.05,1.57,2.31,1.57,3.8s-.52,2.78-1.57,3.86c-.56.52-1.19.93-1.87,1.21l-10.14,4.71c-.81.44-1.73.66-2.78.66Z"></path><path class="cls-2" d="m313.97,496.15c-1.53,0-2.82-.52-3.86-1.57-1.05-1.04-1.57-2.31-1.57-3.8s.52-2.78,1.57-3.86c.56-.52,1.19-.92,1.87-1.21l11.65-5.49c10.22-5.43,19.55-17.18,28-35.24l9.35,5.07c-9.09,19.59-19.31,32.64-30.65,39.16l-13.58,6.28c-.8.44-1.73.66-2.78.66Z"></path><path class="cls-2" d="m356.81,550.46c-1.49,0-2.77-.53-3.83-1.6s-1.6-2.34-1.6-3.83v-110.54c.12-1.17.62-2.21,1.51-3.14,1.05-1.05,2.33-1.57,3.86-1.57s2.78.52,3.86,1.57c.88.93,1.39,1.97,1.51,3.14v2.53c5.23-4.83,11.3-7.24,18.22-7.24,8,0,14.83,3.24,20.49,9.71,5.65,6.48,8.48,14.3,8.48,23.47s-2.83,17-8.48,23.47c-5.65,6.48-12.48,9.71-20.49,9.71-6.92,0-12.95-2.41-18.1-7.24v56.12c0,1.49-.52,2.77-1.57,3.83-1.05,1.07-2.33,1.6-3.86,1.6Zm23.71-65.17c4.99,0,9.25-2.18,12.79-6.55,3.54-4.36,5.31-9.62,5.31-15.78s-1.77-11.41-5.31-15.78c-3.54-4.36-7.8-6.55-12.79-6.55s-9.25,2.18-12.79,6.55c-3.54,4.37-5.31,9.62-5.31,15.78s1.77,11.42,5.31,15.78c3.54,4.37,7.8,6.55,12.79,6.55Z"></path><path class="cls-2" d="m449.61,496.15c-9.25,0-16.13-2.63-20.64-7.91-1.05-1.04-1.57-2.31-1.57-3.8s.52-2.77,1.57-3.83c1.05-1.07,2.33-1.6,3.86-1.6s2.78.52,3.86,1.57c.52.56,1.13,1.17,1.81,1.81,1.57,2.25,5.47,3.38,11.71,3.38,3.02,0,5.48-.85,7.39-2.56,1.91-1.71,2.87-3.91,2.87-6.61,0-2.33-.52-3.97-1.57-4.92-1.05-.94-3.5-2.07-7.36-3.38-3.86-1.31-8.59-2.93-14.18-4.86-5.59-1.93-8.75-6.64-9.47-14.12,0-5.39,2.62-10,7.87-13.82,5.25-3.82,10.87-5.73,16.87-5.73s11.65,2.33,16.96,7c1.04,1.09,1.57,2.37,1.57,3.86s-.53,2.77-1.6,3.83-2.34,1.6-3.83,1.6-2.82-.54-3.86-1.63c-.52-.52-1.54-1.37-3.05-2.53-1.51-1.17-3.77-1.75-6.79-1.75s-5.78.84-8.3,2.53-3.77,3.9-3.77,6.64c0,2.57,2.41,4.82,7.24,6.73,4.83,1.91,8.89,3.2,12.19,3.86,3.3.66,6.11,2.36,8.45,5.1,2.33,2.74,3.5,6.6,3.5,11.58,0,5.39-2.12,10-6.37,13.82-4.24,3.82-9.36,5.73-15.36,5.73Z"></path><path class="cls-2" d="m575.9,496.15c-8.01,0-14.83-3.24-20.49-9.71-5.65-6.48-8.48-14.3-8.48-23.47s2.83-17,8.48-23.47c5.65-6.48,12.48-9.71,20.49-9.71,1.65,0,3.08.1,4.28.3,12.11,1.97,21.4,2.96,27.88,2.96,1.49,0,2.77.53,3.83,1.6,1.07,1.07,1.6,2.34,1.6,3.83s-.53,2.81-1.6,3.83c-1.07,1.03-2.34,1.54-3.83,1.54-1.21,0-4.1-.14-8.69-.42,3.66,5.63,5.49,12.15,5.49,19.55,0,9.17-2.83,17-8.48,23.47-5.65,6.48-12.48,9.71-20.49,9.71Zm0-10.86c4.99,0,9.25-2.18,12.79-6.55,3.54-4.36,5.31-9.62,5.31-15.78s-1.77-11.41-5.31-15.78c-3.54-4.36-7.8-6.55-12.79-6.55s-9.25,2.18-12.79,6.55c-3.54,4.37-5.31,9.62-5.31,15.78s1.77,11.42,5.31,15.78c3.54,4.37,7.8,6.55,12.79,6.55Z"></path><path class="cls-2" d="m612.89,443.72c-1.33,0-2.75-.02-4.28-.06-1.53-.04-2.8-.56-3.8-1.57s-1.51-2.25-1.51-3.74.52-2.78,1.57-3.86,2.33-1.63,3.86-1.63c2.57.08,4.93.12,7.06.12,5.79-.08,10.26-.63,13.4-1.66s5.15-1.54,6.03-1.54c1.49,0,2.77.52,3.83,1.57,1.07,1.05,1.6,2.33,1.6,3.86s-.53,2.77-1.6,3.83-4.21,2.14-9.44,3.23c-4.46.93-10.04,1.41-16.71,1.45Z"></path><path class="cls-2" d="m658.15,496.15c-.68,0-1.39-.14-2.11-.42-1.37-.56-2.33-1.55-2.9-2.96l-22.27-55.45c-.32-.72-.48-1.43-.48-2.11,0-2.37,1.13-4.04,3.38-5.01.68-.28,1.39-.42,2.11-.42,2.41,0,4.08,1.13,5.01,3.38l17.26,42.18,17.26-42.18c.36-.88.91-1.61,1.63-2.17.92-.8,2.09-1.21,3.5-1.21s2.69.52,3.74,1.57l26.61,22.02c1.25,1.01,1.89,2.39,1.93,4.16,0,1.29-.4,2.43-1.21,3.44-1.01,1.29-2.39,1.95-4.16,1.99-1.29,0-2.45-.42-3.5-1.27l-21.24-17.62c-12.95,32.26-19.45,48.49-19.49,48.7-.6,1.41-1.59,2.39-2.96,2.96-.72.28-1.43.42-2.11.42Z"></path><path class="cls-2" d="m735.99,496.58c-3.78,0-6.77-.08-8.96-.24-2.19-.16-5.06-.86-8.6-2.11-9.33-4.3-14.82-11.75-16.47-22.33-.48-3.1-.72-6.13-.72-9.11,0-9.17,2.84-17,8.51-23.47,2.61-3.02,5.49-5.33,8.63-6.94,3.26-1.45,6.9-2.31,10.92-2.59,13.96.72,20.94,7.22,20.94,19.49,0,7.56-3.48,13.33-10.44,17.32l-.42.18-.06-.06c-4.91,2.82-10.16,4.22-15.75,4.22-3.66,0-7.38-.6-11.16-1.81.44,2.37,1.17,4.59,2.17,6.64,1.81,3.66,4.06,6.24,6.76,7.72,3.14,1.57,7.2,2.45,12.19,2.66,4.3,0,9.77-1.73,16.41-5.19,1-.52,2.01-.78,3.02-.78,1.53,0,2.81.52,3.86,1.57,1.05,1.05,1.57,2.31,1.57,3.8s-.52,2.78-1.57,3.86c-.56.52-1.19.93-1.87,1.21l-10.14,4.71c-2.09.84-5.03,1.27-8.81,1.27Zm-11.46-36.38c2.86,0,5.52-.69,8-2.08,2.47-1.39,3.95-2.69,4.44-3.89.88-1.65,1.33-3.28,1.33-4.89,0-5.47-3.22-8.21-9.65-8.21-.93,0-1.73.12-2.41.36-2.41.48-4.79,1.89-7.12,4.22s-4.08,4.65-5.25,6.94c-.6,1.21-1.07,2.76-1.39,4.65,3.62,1.93,7.64,2.9,12.07,2.9Z"></path><path class="cls-2" d="m742.08,496.15c-1.53,0-2.82-.52-3.86-1.57-1.05-1.04-1.57-2.31-1.57-3.8s.52-2.78,1.57-3.86c.56-.52,1.19-.92,1.87-1.21l11.65-5.49c10.22-5.43,19.55-17.18,28-35.24l9.35,5.07c-9.09,19.59-19.31,32.64-30.65,39.16l-13.58,6.28c-.8.44-1.73.66-2.78.66Z"></path><path class="cls-2" d="m784.08,496.15c-1.53,0-2.82-.53-3.86-1.6-1.05-1.07-1.57-2.34-1.57-3.83v-55.51c0-1.49.52-2.76,1.57-3.83,1.04-1.07,2.33-1.6,3.86-1.6s2.77.53,3.83,1.6c1.07,1.07,1.6,2.34,1.6,3.83v5.97c4.34-7.48,9.69-11.26,16.05-11.34,2.49,0,4.89.6,7.18,1.81,2.13.72,4.12,1.15,5.97,1.27l1.69-.06c1.49,0,2.77.53,3.83,1.6,1.07,1.07,1.6,2.34,1.6,3.83s-.53,2.82-1.6,3.86c-1.07,1.05-2.34,1.57-3.83,1.57-4.3-.28-7.52-.92-9.65-1.93-1.33-.64-2.72-.96-4.16-.96-.48,0-1.36.09-2.62.27-1.27.18-3.17,2.11-5.7,5.79-2.53,3.68-5.45,10.71-8.75,21.09v22.75c0,1.49-.53,2.77-1.6,3.83s-2.34,1.6-3.83,1.6Z"></path><path class="cls-2" d="m922.14,496.51c-1.41,0-3.66-.19-6.76-.57s-5.93-2.47-8.51-6.28c-2.58-3.8-3.86-8.7-3.86-14.69l.06-31.32h-7.84c-1.49,0-2.77-.52-3.83-1.57-1.07-1.04-1.6-2.33-1.6-3.86s.53-2.77,1.6-3.83,2.34-1.6,3.83-1.6h7.84v-33.79c0-1.49.52-2.76,1.57-3.83,1.04-1.07,2.33-1.6,3.86-1.6s2.77.53,3.83,1.6c1.07,1.07,1.6,2.34,1.6,3.83v33.79h11.46c1.49,0,2.77.53,3.83,1.6,1.07,1.07,1.6,2.34,1.6,3.83s-.53,2.82-1.6,3.86c-1.07,1.05-2.34,1.57-3.83,1.57h-11.46v30.89c0,6.84,2.61,10.26,7.84,10.26,1.09,0,2.27-.14,3.56-.42,4.47-2.09,6.92-3.22,7.36-3.38.8-.44,1.71-.66,2.72-.66,1.53,0,2.82.52,3.86,1.57s1.57,2.31,1.57,3.8c0,2.41-1.19,4.12-3.56,5.13-5.43,2.82-9.07,4.53-10.92,5.13-1.05.36-2.45.54-4.22.54Z"></path><path class="cls-2" d="m924.55,496.15c-1.53,0-2.82-.52-3.86-1.57-1.05-1.04-1.57-2.31-1.57-3.8s.52-2.78,1.57-3.86c.56-.52,1.19-.92,1.87-1.21l11.65-5.49c10.22-5.43,19.55-17.18,28-35.24l9.35,5.07c-9.09,19.59-19.31,32.64-30.65,39.16l-13.58,6.28c-.8.44-1.73.66-2.78.66Z"></path><path class="cls-2" d="m1021.03,496.15h-1.75c-8.69,0-13.13-4.99-13.33-14.96v-19.61c-.32-5.71-1.96-10.63-4.92-14.75-2.96-4.12-6.73-6.19-11.31-6.19s-8.65,2.17-12.19,6.52c-3.02,4.63-4.59,9.88-4.71,15.75v27.82c0,1.49-.53,2.77-1.6,3.83s-2.34,1.6-3.83,1.6-2.82-.53-3.86-1.6c-1.05-1.07-1.57-2.34-1.57-3.83v-109.82c0-1.49.52-2.77,1.57-3.83,1.04-1.07,2.33-1.6,3.86-1.6s2.77.53,3.83,1.6c1.07,1.07,1.6,2.34,1.6,3.83v56.72c4.75-5.23,10.38-7.84,16.9-7.84,7.6,0,13.97,3.08,19.1,9.23s7.79,13.44,8,21.84l.06,2.66h-.06c0,11.22-.02,17.16-.06,17.8,0,2.65.78,3.98,2.35,3.98.36,0,.76-.06,1.21-.18,5.51-2.57,8.49-3.94,8.93-4.1.8-.44,1.71-.66,2.72-.66,1.53,0,2.82.52,3.86,1.57s1.57,2.31,1.57,3.8-.52,2.78-1.57,3.86c-.56.52-1.19.93-1.87,1.21l-10.14,4.71c-.81.44-1.73.66-2.78.66Z"></path><path class="cls-2" d="m1021.09,496.15c-1.53,0-2.82-.52-3.86-1.57-1.05-1.04-1.57-2.51-1.57-4.4,0-1.49.52-2.78,1.57-3.86.56-.52,6.21-2.75,16.93-6.7,10.72-3.94,19.46-7.94,26.22-12.01l3.74,9.65c-6.52,4.26-19.93,10.34-40.25,18.22-.8.44-1.73.66-2.78.66Z"></path><path class="cls-2" d="m1085.72,497.78h-.72c-12.67,0-21.76-5.15-27.27-15.45-2.58-5.27-3.86-10.6-3.86-15.99,0-1.17.06-2.35.18-3.56,0-9.17,2.84-17,8.51-23.47,2.61-3.02,5.49-5.33,8.63-6.94,3.26-1.45,6.9-2.31,10.92-2.59,13.96.72,20.94,7.22,20.94,19.49,0,7.16-3.48,12.73-10.44,16.71-6.92,3.58-14.84,7.34-23.77,11.28,2.01,5.35,6.92,8.53,14.72,9.53h.97c3.66,0,7.8-1.03,12.43-3.08,1.73-.96,3.1-1.45,4.1-1.45,1.53,0,2.82.52,3.86,1.57,1.04,1.05,1.57,2.31,1.57,3.8s-.52,2.78-1.57,3.86c-6.2,4.1-12.59,6.19-19.19,6.28Zm-20.27-30.95c13.8-4.99,21.9-9.31,24.32-12.97.88-1.65,1.33-3.28,1.33-4.89,0-5.23-3.22-7.84-9.65-7.84-3.3,0-6.48,1.53-9.53,4.59-2.33,2.33-4.06,4.85-5.19,7.54-.88,2.17-1.33,5.51-1.33,10.02l.06,3.56Z"></path><path class="cls-2" d="m1207.24,496.15h-1.75c-8.69,0-13.13-4.99-13.34-14.96v-100.41c0-1.49.52-2.77,1.57-3.83,1.04-1.07,2.33-1.6,3.86-1.6s2.77.53,3.83,1.6c1.07,1.07,1.6,2.34,1.6,3.83,0,66.37-.02,99.88-.06,100.53,0,2.65.79,3.98,2.35,3.98.36,0,.76-.06,1.21-.18,5.51-2.57,8.49-3.94,8.93-4.1.8-.44,1.71-.66,2.71-.66,1.53,0,2.82.52,3.86,1.57,1.04,1.05,1.57,2.31,1.57,3.8s-.52,2.78-1.57,3.86c-.56.52-1.19.93-1.87,1.21l-10.14,4.71c-.81.44-1.73.66-2.78.66Z"></path><path class="cls-2" d="m1207.31,496.15c-1.53,0-2.82-.52-3.86-1.57-1.05-1.04-1.57-2.31-1.57-3.8s.52-2.78,1.57-3.86c.56-.52,1.19-.92,1.87-1.21l11.65-5.49c10.22-5.43,19.55-17.18,28-35.24l9.35,5.07c-9.09,19.59-19.31,32.64-30.65,39.16l-13.58,6.28c-.8.44-1.73.66-2.78.66Z"></path><path class="cls-2" d="m1302.22,496.15h-1.81c-6.4,0-10.48-2.74-12.25-8.21-5.39,5.47-11.77,8.21-19.13,8.21-8.01,0-14.83-3.24-20.49-9.71-5.65-6.48-8.48-14.3-8.48-23.47s2.83-17,8.48-23.47c5.65-6.48,12.48-9.71,20.49-9.71,6.92,0,12.95,2.41,18.1,7.24v-1.81c0-1.49.52-2.76,1.57-3.83,1.05-1.07,2.33-1.6,3.86-1.6s2.76.53,3.83,1.6c1.07,1.07,1.6,2.34,1.6,3.83,0,30.09-.02,45.46-.06,46.1,0,2.65.78,3.98,2.35,3.98.36,0,.76-.06,1.21-.18,5.51-2.57,8.49-3.94,8.93-4.1.8-.44,1.71-.66,2.71-.66,1.53,0,2.82.52,3.86,1.57,1.05,1.05,1.57,2.31,1.57,3.8s-.52,2.78-1.57,3.86c-.56.52-1.19.93-1.87,1.21l-10.14,4.71c-.8.44-1.73.66-2.78.66Zm-33.19-10.86c4.99,0,9.25-2.18,12.79-6.55,3.54-4.36,5.31-9.62,5.31-15.78s-1.77-11.41-5.31-15.78c-3.54-4.36-7.8-6.55-12.79-6.55s-9.25,2.18-12.79,6.55c-3.54,4.37-5.31,9.62-5.31,15.78s1.77,11.42,5.31,15.78c3.54,4.37,7.8,6.55,12.79,6.55Z"></path><path class="cls-2" d="m1302.28,496.15c-1.53,0-2.82-.52-3.86-1.57-1.05-1.04-1.57-2.31-1.57-3.8s.52-2.78,1.57-3.86c.56-.52,1.19-.92,1.87-1.21l10.74-5.01c14.56-6.16,24.14-21.42,28.72-45.8h9.78c-4.59,27.88-14.72,45.9-30.41,54.07l-14.06,6.52c-.8.44-1.73.66-2.78.66Z"></path><path class="cls-2" d="m1387.96,496.15h-43.38c-1.61,0-2.93-.52-3.95-1.57-1.03-1.04-1.54-2.33-1.54-3.86s.54-2.78,1.63-3.86l36.08-46.22h-32.28c-1.49,0-2.77-.52-3.83-1.57-1.07-1.05-1.6-2.33-1.6-3.86s.53-2.76,1.6-3.83,2.34-1.6,3.83-1.6h42.78c.24-.04.5-.06.79-.06,1.17,0,2.25.4,3.26,1.21,1.41,1.09,2.11,2.5,2.11,4.22,0,1.45-.5,2.71-1.51,3.8l-36.2,46.34h32.22c1.49,0,2.77.53,3.83,1.6,1.07,1.07,1.6,2.34,1.6,3.83s-.53,2.82-1.6,3.86c-1.07,1.05-2.34,1.57-3.83,1.57Z"></path><path class="cls-2" d="m1445.47,550.46c-8.49,0-15.85-2.8-22.08-8.39-.24-.16-.46-.36-.66-.6-1.05-1.05-1.57-2.31-1.57-3.8s.52-2.77,1.57-3.83c1.05-1.07,2.33-1.6,3.86-1.6s2.76.52,3.8,1.57c4.18,3.86,9.13,5.79,14.84,5.79,5.11,0,9.43-2.18,12.97-6.55,3.54-4.37,5.31-9.62,5.31-15.78v-27.76c-1.17.68-2.37,1.43-3.62,2.23-4.3,2.94-9.15,4.41-14.54,4.41-8.01,0-14.82-3.24-20.46-9.71-5.51-6.28-8.35-13.84-8.51-22.69v-28.54c0-1.49.52-2.76,1.57-3.83,1.04-1.07,2.33-1.6,3.86-1.6s2.77.53,3.83,1.6c1.07,1.07,1.6,2.34,1.6,3.83v27.76c0,6.15,1.77,11.42,5.31,15.78,3.54,4.37,7.8,6.55,12.79,6.55s9.25-2.19,12.79-6.58c3.54-3.94,5.31-8.99,5.31-15.15l.06-28.36c0-1.49.52-2.76,1.57-3.83,1.04-1.07,2.33-1.6,3.86-1.6s2.77.53,3.83,1.6c1.07,1.07,1.6,2.34,1.6,3.83v83.75h-.06c-.32,8.45-3.12,15.71-8.39,21.78-5.67,6.48-12.49,9.71-20.46,9.71Z"></path><path class="cls-2" d="m1619.37,496.15h-1.81c-6.4,0-10.48-2.74-12.25-8.21-5.39,5.47-11.77,8.21-19.13,8.21-8.01,0-14.83-3.24-20.49-9.71-5.65-6.48-8.48-14.3-8.48-23.47s2.83-17,8.48-23.47c5.65-6.48,12.48-9.71,20.49-9.71,6.92,0,12.95,2.41,18.1,7.24v-56.12c0-1.49.52-2.77,1.57-3.83,1.05-1.07,2.33-1.6,3.86-1.6s2.76.53,3.83,1.6c1.07,1.07,1.6,2.34,1.6,3.83,0,66.29-.02,99.76-.06,100.41,0,2.65.78,3.98,2.35,3.98.36,0,.76-.06,1.21-.18,5.51-2.57,8.49-3.94,8.93-4.1.8-.44,1.71-.66,2.71-.66,1.53,0,2.82.52,3.86,1.57,1.05,1.05,1.57,2.31,1.57,3.8s-.52,2.78-1.57,3.86c-.56.52-1.19.93-1.87,1.21l-10.14,4.71c-.8.44-1.73.66-2.78.66Zm-33.19-10.86c4.99,0,9.25-2.18,12.79-6.55,3.54-4.36,5.31-9.62,5.31-15.78s-1.77-11.41-5.31-15.78c-3.54-4.36-7.8-6.55-12.79-6.55s-9.25,2.18-12.79,6.55c-3.54,4.37-5.31,9.62-5.31,15.78s1.77,11.42,5.31,15.78c3.54,4.37,7.8,6.55,12.79,6.55Z"></path><path class="cls-2" d="m1619.43,496.15c-1.53,0-2.82-.52-3.86-1.57-1.05-1.04-1.57-2.31-1.57-3.8s.52-2.78,1.57-3.86c.56-.52,1.19-.92,1.87-1.21l11.65-5.49c10.22-5.43,19.55-17.18,28-35.24l9.35,5.07c-9.09,19.59-19.31,32.64-30.65,39.16l-13.58,6.28c-.8.44-1.73.66-2.78.66Z"></path><path class="cls-2" d="m1681.16,496.15c-8.01,0-14.83-3.24-20.49-9.71-5.65-6.48-8.48-14.3-8.48-23.47s2.83-17,8.48-23.47c5.65-6.48,12.48-9.71,20.49-9.71s14.83,3.24,20.49,9.71c5.65,6.48,8.48,14.3,8.48,23.47s-2.83,17-8.48,23.47c-5.65,6.48-12.48,9.71-20.49,9.71Zm0-10.86c4.99,0,9.25-2.18,12.79-6.55,3.54-4.36,5.31-9.62,5.31-15.78s-1.77-11.41-5.31-15.78c-3.54-4.36-7.8-6.55-12.79-6.55s-9.25,2.18-12.79,6.55c-3.54,4.37-5.31,9.62-5.31,15.78s1.77,11.42,5.31,15.78c3.54,4.37,7.8,6.55,12.79,6.55Z"></path><path class="cls-2" d="m1716.64,443.84c-10.3-.12-18.68-.72-25.16-1.81-4.06-.48-6.92-.88-8.57-1.18-1.65-.3-3.01-.95-4.07-1.93-1.07-.99-1.6-2.22-1.6-3.71s.53-2.76,1.6-3.83c1.07-1.07,2.34-1.6,3.83-1.6.76,0,1.49.1,2.17.3,10.74,1.73,21.34,2.72,31.8,2.96,12.11-.2,22.21-.88,30.29-2.05,1.49,0,2.77.53,3.83,1.6,1.07,1.07,1.6,2.26,1.6,3.59,0,1.13-.53,2.21-1.6,3.26-1.07,1.05-2.34,1.57-3.83,1.57-8.09,1.73-18.18,2.68-30.29,2.84Z"></path><path class="cls-2" d="m1754.47,550.46c-8.49,0-15.85-2.8-22.08-8.39-.24-.16-.46-.36-.66-.6-1.05-1.05-1.57-2.31-1.57-3.8s.52-2.77,1.57-3.83c1.05-1.07,2.33-1.6,3.86-1.6s2.75.52,3.8,1.57c4.18,3.86,9.13,5.79,14.84,5.79,5.11,0,9.43-2.18,12.97-6.55,3.54-4.37,5.31-9.62,5.31-15.78v-27.76c-1.17.68-2.37,1.43-3.62,2.23-4.3,2.94-9.15,4.41-14.54,4.41-8.01,0-14.83-3.24-20.49-9.71-5.65-6.48-8.48-14.3-8.48-23.47s2.83-17,8.48-23.47c5.65-6.48,12.48-9.71,20.49-9.71,4.75,0,9.07,1.13,12.97,3.38,1.81,1.05,3.54,2.54,5.19,4.47v-2.41c0-1.49.52-2.76,1.57-3.83,1.05-1.07,2.33-1.6,3.86-1.6s2.77.53,3.83,1.6c1.07,1.07,1.6,2.34,1.6,3.83v83.75h-.06c-.32,8.45-3.12,15.71-8.39,21.78-5.67,6.48-12.49,9.71-20.46,9.71Zm-.12-65.17c4.99,0,9.25-2.19,12.79-6.58,3.54-3.94,5.31-8.99,5.31-15.15s-1.77-11.62-5.31-16.41c-3.54-4.34-7.8-6.52-12.79-6.52s-9.25,2.18-12.79,6.55c-3.54,4.37-5.31,9.62-5.31,15.78s1.77,11.42,5.31,15.78c3.54,4.37,7.8,6.55,12.79,6.55Z"></path></g></svg> 