<?xml version="1.0" encoding="UTF-8"?> <svg xmlns="http://www.w3.org/2000/svg" viewBox="0 0 1920 1266.03"><defs><style>.cls-1{fill:#e2dcef;}.cls-2{fill:#29235c;}</style></defs><g id="background"><rect class="cls-1" width="1920" height="1266.03"></rect></g><g id="Capa_2"><path class="cls-2" d="m177.87,153.55h-34.68l.68-12.92h84.31l-.68,12.92h-34.68l-5.61,108.78h-14.96l5.61-108.78Z"></path><path class="cls-2" d="m249.09,127.89h12.92l-3.4,61.19h.34c2.38-3.74,6-7.19,10.88-10.37,4.87-3.17,9.91-4.76,15.13-4.76,7.93,0,14.05,2.55,18.36,7.65,4.31,5.1,6.46,11.22,6.46,18.36,0,3.51-.34,10.09-1.02,19.72-.34,5.1-.62,9.43-.85,13-.23,3.57-.34,6.83-.34,9.77,0,6.69,2.38,10.03,7.14,10.03,2.83,0,5.84-1.02,9.01-3.06l-.51,10.2c-2.15,1.36-4.48,2.49-6.97,3.4-2.49.91-4.76,1.36-6.8,1.36-5.1,0-9.01-1.7-11.73-5.1-2.72-3.4-4.08-7.93-4.08-13.6,0-2.27.11-5.41.34-9.43.23-4.02.57-9.72,1.02-17.08.22-3.4.42-6.54.59-9.43.17-2.89.25-4.79.25-5.69,0-4.99-1.08-8.92-3.23-11.81-2.15-2.89-5.44-4.33-9.86-4.33-2.61,0-5.38.74-8.33,2.21-2.95,1.47-5.78,3.88-8.5,7.22-2.72,3.34-5.02,7.71-6.88,13.09-1.87,5.38-3.03,11.76-3.48,19.12l-1.7,32.81h-12.92l8.16-134.45Z"></path><path class="cls-2" d="m397.3,256.56c-3.51,2.61-7.45,4.56-11.81,5.86-4.36,1.3-8.92,1.95-13.68,1.95s-9.21-.76-13.34-2.29c-4.14-1.53-7.79-3.88-10.96-7.05-3.17-3.17-5.67-7.19-7.48-12.07-1.81-4.87-2.72-10.59-2.72-17.17s.88-12.6,2.63-18.78c1.76-6.17,4.42-11.75,7.99-16.74,3.57-4.98,7.99-8.95,13.26-11.9,5.27-2.95,11.24-4.42,17.93-4.42,8.27,0,14.7,2.21,19.29,6.63,4.59,4.42,6.88,10.2,6.88,17.34,0,4.76-1.16,9.01-3.48,12.75-2.32,3.74-5.55,6.88-9.69,9.43-4.14,2.55-8.78,4.48-13.94,5.78-5.16,1.3-10.45,1.95-15.89,1.95-3.06,0-6.74-.23-11.05-.68,0,7.03,2.1,13,6.29,17.93,4.19,4.93,9.74,7.39,16.66,7.39,3.97,0,7.73-.74,11.3-2.21,3.57-1.47,7.68-3.68,12.32-6.63l-.51,12.92Zm-9.69-67.31c-2.49-2.27-5.5-3.4-9.01-3.4s-7.03.96-10.2,2.89c-3.17,1.93-5.95,4.42-8.33,7.48-2.38,3.06-4.28,6.32-5.69,9.77-1.42,3.46-2.29,6.66-2.63,9.6,4.76.23,8.39.34,10.88.34,9.29,0,16.4-1.76,21.33-5.27,4.93-3.51,7.39-7.65,7.39-12.41,0-3.74-1.25-6.74-3.74-9.01Z"></path><path class="cls-2" d="m473.11,175.99h12.92v-7.14c0-12.8,2.46-23,7.39-30.6,4.93-7.59,12.49-11.39,22.69-11.39,3.63,0,6.35.23,8.16.68,1.81.45,3.68,1.25,5.61,2.38l-1.53,12.75c-3.4-1.93-7.25-2.89-11.56-2.89-6.01,0-10.31,2.8-12.92,8.41-2.61,5.61-3.91,14.14-3.91,25.58v2.21h17.51l-.68,11.9h-16.83c-.23,11.22-.62,22.95-1.19,35.19-.57,12.24-1.19,22.5-1.87,30.77v.17c-.68,8.27-1.47,15.07-2.38,20.4-.91,5.33-2.55,10.42-4.93,15.3-2.72,5.78-6.57,10.25-11.56,13.43-4.99,3.17-10.54,4.76-16.66,4.76-1.7,0-3.43-.14-5.18-.43-1.76-.28-3.77-.65-6.03-1.1-.79-.23-1.25-.34-1.36-.34l.85-11.22c1.59.34,3.37.62,5.35.85,1.98.23,3.6.34,4.84.34,4.19,0,7.7-.91,10.54-2.72,2.83-1.81,5.07-4.22,6.71-7.22,1.64-3,2.89-6.4,3.74-10.2.85-3.8,1.56-8.07,2.12-12.83.45-3.74.85-8.53,1.19-14.36.34-5.83.62-12.01.85-18.53.22-6.51.42-13.23.59-20.14.17-6.91.31-14.28.43-22.1h-13.6l.68-11.9Z"></path><path class="cls-2" d="m563.03,259.96c-4.31,2.95-9.01,4.42-14.11,4.42s-9.24-1.78-11.73-5.35c-2.49-3.57-3.74-8.3-3.74-14.19,0-1.59.14-4.9.43-9.94.28-5.04.59-10.05.93-15.04.34-6.57.74-13.96,1.19-22.18.45-8.21.79-15.44,1.02-21.67h13.94c-.34,5.44-.74,12.13-1.19,20.06-.57,10.99-1.11,21.05-1.61,30.17-.51,9.12-.76,14.87-.76,17.25,0,2.72.54,4.9,1.61,6.54,1.08,1.64,2.63,2.46,4.67,2.46,1.58,0,3-.23,4.25-.68,1.25-.45,2.72-1.13,4.42-2.04.45-.23.91-.45,1.36-.68l-.68,10.88Zm-23.46-116.77c1.7-1.7,3.8-2.55,6.29-2.55s4.59.85,6.29,2.55c1.7,1.7,2.55,3.8,2.55,6.29s-.85,4.59-2.55,6.29c-1.7,1.7-3.8,2.55-6.29,2.55s-4.59-.85-6.29-2.55c-1.7-1.7-2.55-3.8-2.55-6.29s.85-4.59,2.55-6.29Z"></path><path class="cls-2" d="m625.75,246.36c-2.95,7.14-5.35,11.93-7.22,14.36-1.87,2.44-4.73,3.65-8.58,3.65-4.31,0-7.22-.91-8.75-2.72-1.53-1.81-2.98-5.04-4.34-9.69l-21.93-75.98h14.45l20.4,73.43h.34l29.92-73.43h14.96l-29.24,70.37Z"></path><path class="cls-2" d="m724.68,256.56c-3.51,2.61-7.45,4.56-11.81,5.86-4.36,1.3-8.92,1.95-13.68,1.95s-9.21-.76-13.34-2.29c-4.14-1.53-7.79-3.88-10.96-7.05-3.17-3.17-5.67-7.19-7.48-12.07-1.81-4.87-2.72-10.59-2.72-17.17s.88-12.6,2.63-18.78c1.76-6.17,4.42-11.75,7.99-16.74,3.57-4.98,7.99-8.95,13.26-11.9,5.27-2.95,11.24-4.42,17.93-4.42,8.27,0,14.7,2.21,19.29,6.63,4.59,4.42,6.88,10.2,6.88,17.34,0,4.76-1.16,9.01-3.48,12.75-2.32,3.74-5.55,6.88-9.69,9.43-4.14,2.55-8.78,4.48-13.94,5.78-5.16,1.3-10.45,1.95-15.89,1.95-3.06,0-6.74-.23-11.05-.68,0,7.03,2.1,13,6.29,17.93,4.19,4.93,9.74,7.39,16.66,7.39,3.97,0,7.73-.74,11.3-2.21,3.57-1.47,7.68-3.68,12.32-6.63l-.51,12.92Zm-9.69-67.31c-2.49-2.27-5.5-3.4-9.01-3.4s-7.03.96-10.2,2.89c-3.17,1.93-5.95,4.42-8.33,7.48-2.38,3.06-4.28,6.32-5.69,9.77-1.42,3.46-2.29,6.66-2.63,9.6,4.76.23,8.39.34,10.88.34,9.29,0,16.4-1.76,21.33-5.27,4.93-3.51,7.39-7.65,7.39-12.41,0-3.74-1.25-6.74-3.74-9.01Z"></path><path class="cls-2" d="m810.68,127.89h13.94l-3.57,59.49.34.34c3.74-4.76,7.76-8.24,12.07-10.45,4.31-2.21,9.29-3.31,14.96-3.31,10.54,0,18.19,3.37,22.95,10.11,4.76,6.74,7.14,16.18,7.14,28.3,0,7.14-.91,13.85-2.72,20.14-1.81,6.29-4.56,11.84-8.24,16.66-3.68,4.82-8.24,8.56-13.68,11.22-5.44,2.66-11.73,3.99-18.87,3.99-5.21,0-10.62-.74-16.23-2.21-5.61-1.47-10.68-3.46-15.21-5.95l7.14-128.33Zm6.63,120.17c2.83,1.47,5.44,2.58,7.82,3.31,2.38.74,5.72,1.1,10.03,1.1,8.61,0,15.66-3.74,21.16-11.22,5.49-7.48,8.24-17.28,8.24-29.41,0-7.48-1.36-13.51-4.08-18.1-2.72-4.59-7.14-6.88-13.26-6.88-8.5,0-15.19,3.51-20.06,10.54-4.87,7.03-7.65,16.09-8.33,27.2l-1.53,23.46Z"></path><path class="cls-2" d="m901.36,204.12c1.64-5.83,4.14-11.02,7.48-15.55,3.34-4.53,7.56-8.1,12.66-10.71,5.1-2.61,10.99-3.91,17.68-3.91,11.56,0,20.4,3.82,26.52,11.47,6.12,7.65,9.18,18.27,9.18,31.87,0,6.12-.74,11.98-2.21,17.59-1.47,5.61-3.8,10.62-6.97,15.04-3.17,4.42-7.22,7.93-12.15,10.54s-10.68,3.91-17.25,3.91c-12.35,0-21.67-3.63-27.96-10.88-6.29-7.25-9.43-17.51-9.43-30.77,0-6.57.82-12.77,2.46-18.61Zm12.75,29.83c.85,3.51,2.18,6.69,3.99,9.52,1.81,2.83,4.22,5.04,7.22,6.63,3,1.59,6.54,2.38,10.62,2.38,4.64,0,8.61-1.05,11.9-3.14,3.29-2.1,5.86-4.9,7.73-8.41,1.87-3.51,3.23-7.28,4.08-11.3.85-4.02,1.28-8.13,1.28-12.32,0-4.42-.37-8.5-1.11-12.24-.74-3.74-1.98-7.05-3.74-9.94-1.76-2.89-4.11-5.15-7.05-6.8-2.95-1.64-6.46-2.46-10.54-2.46-7.82,0-14.05,3.31-18.7,9.94-4.65,6.63-6.97,15.61-6.97,26.94,0,3.97.43,7.71,1.27,11.22Z"></path><path class="cls-2" d="m1019.41,217.29l-24.65-41.3h15.98l17.51,29.75,20.23-29.75h17.17l-30.09,41.3,27.37,45.04h-16.32l-19.72-33.49-23.8,33.49h-16.66l32.98-45.04Z"></path><path class="cls-2" d="m1114.09,259.96c-4.31,2.95-9.01,4.42-14.11,4.42s-9.24-1.78-11.73-5.35c-2.49-3.57-3.74-8.3-3.74-14.19,0-1.59.14-4.9.43-9.94.28-5.04.59-10.05.93-15.04.34-6.57.74-13.96,1.19-22.18.45-8.21.79-15.44,1.02-21.67h13.94c-.34,5.44-.74,12.13-1.19,20.06-.57,10.99-1.11,21.05-1.61,30.17-.51,9.12-.76,14.87-.76,17.25,0,2.72.54,4.9,1.61,6.54,1.08,1.64,2.63,2.46,4.67,2.46,1.58,0,3-.23,4.25-.68,1.25-.45,2.72-1.13,4.42-2.04.45-.23.91-.45,1.36-.68l-.68,10.88Zm-23.46-116.77c1.7-1.7,3.8-2.55,6.29-2.55s4.59.85,6.29,2.55c1.7,1.7,2.55,3.8,2.55,6.29s-.85,4.59-2.55,6.29c-1.7,1.7-3.8,2.55-6.29,2.55s-4.59-.85-6.29-2.55c-1.7-1.7-2.55-3.8-2.55-6.29s.85-4.59,2.55-6.29Z"></path><path class="cls-2" d="m1214.2,259.62c-2.15,1.36-4.48,2.49-6.97,3.4-2.49.91-4.76,1.36-6.8,1.36-5.1,0-9.01-1.7-11.73-5.1-2.72-3.4-4.08-7.93-4.08-13.6,0-2.27.11-5.41.34-9.43.23-4.02.57-9.72,1.02-17.08.22-3.4.42-6.54.59-9.43.17-2.89.25-4.79.25-5.69,0-4.99-1.08-8.92-3.23-11.81-2.15-2.89-5.44-4.33-9.86-4.33-2.61,0-5.38.74-8.33,2.21-2.95,1.47-5.78,3.88-8.5,7.22-2.72,3.34-5.02,7.71-6.88,13.09-1.87,5.38-3.03,11.76-3.48,19.12l-1.7,32.81h-13.43c.45-7.02.85-13.48,1.19-19.38.34-5.89.65-11.64.93-17.25.28-5.61.54-11.27.76-17,.23-5.72.34-10.06.34-13,0-4.19-.11-7.76-.34-10.71-.23-2.95-.62-5.95-1.19-9.01h13.43c.22,1.13.54,3.14.93,6.03.4,2.89.76,5.86,1.1,8.92h.34c2.49-4.53,6.29-8.5,11.39-11.9,5.1-3.4,10.31-5.1,15.64-5.1,7.93,0,14.05,2.55,18.36,7.65,4.31,5.1,6.46,11.22,6.46,18.36,0,3.51-.34,10.09-1.02,19.72-.34,5.1-.62,9.43-.85,13-.23,3.57-.34,6.83-.34,9.77,0,6.69,2.38,10.03,7.14,10.03,2.83,0,5.84-1.02,9.01-3.06l-.51,10.2Z"></path><path class="cls-2" d="m1239.02,291.57c2.95,1.25,6.03,2.29,9.26,3.14,3.23.85,6.14,1.27,8.75,1.27,4.87,0,9.09-.85,12.66-2.55,3.57-1.7,6.49-3.99,8.75-6.88,2.27-2.89,3.99-6.2,5.18-9.94,1.19-3.74,1.9-7.65,2.12-11.73l.68-13.77-.34-.34c-3.06,3.63-6.77,6.8-11.13,9.52-4.36,2.72-9.6,4.08-15.72,4.08-3.17,0-6.49-.48-9.94-1.44-3.46-.96-6.8-2.72-10.03-5.27-3.23-2.55-5.86-6.15-7.9-10.79-2.04-4.65-3.06-10.42-3.06-17.34,0-7.82,1.11-15.1,3.31-21.84,2.21-6.74,5.44-12.63,9.69-17.68,4.25-5.04,9.49-8.98,15.72-11.81,6.23-2.83,13.26-4.25,21.08-4.25,4.19,0,8.47.37,12.83,1.11,4.36.74,8.53,1.61,12.49,2.63l-3.4,65.44c-.45,11.67-1.02,20.37-1.7,26.09-.68,5.72-1.93,10.85-3.74,15.38-3.06,7.48-7.68,13.23-13.85,17.25-6.18,4.02-13.12,6.03-20.82,6.03-7.14,0-14.28-1.25-21.42-3.74l.51-12.58Zm50.65-102.84c-2.38-.68-4.48-1.16-6.29-1.44-1.81-.28-4.02-.42-6.63-.42-5.33,0-10.09,1.1-14.28,3.31-4.19,2.21-7.73,5.24-10.62,9.09-2.89,3.85-5.04,8.22-6.46,13.09-1.42,4.87-2.12,9.97-2.12,15.3,0,7.25,1.39,13.03,4.16,17.34,2.78,4.31,7.28,6.46,13.51,6.46,4.87,0,9.01-1.02,12.41-3.06,3.4-2.04,6.12-4.82,8.16-8.33,2.04-3.51,3.54-7.42,4.5-11.73.96-4.31,1.61-8.89,1.96-13.77l1.7-25.84Z"></path><path class="cls-2" d="m237.53,459.34c-1.25,3.51-2.49,5.89-3.74,7.14-1.25,1.25-3.57,1.87-6.97,1.87-3.97,0-6.57-.71-7.82-2.12-1.25-1.42-2.38-4.16-3.4-8.24l-12.58-52.69h-.34l-18.7,52.69c-1.47,4.08-2.95,6.83-4.42,8.24-1.47,1.41-3.85,2.12-7.14,2.12s-5.81-.68-7.22-2.04c-1.42-1.36-2.63-4.13-3.65-8.33l-19.04-78.02h13.43l17.17,71.73h.34l24.82-71.73h11.39l17.34,71.73h.34l24.31-71.73h14.96l-29.07,79.38Z"></path><path class="cls-2" d="m314.36,463.93c-4.31,2.95-9.01,4.42-14.11,4.42s-9.24-1.79-11.73-5.35c-2.49-3.57-3.74-8.3-3.74-14.19,0-1.59.14-4.9.43-9.94.28-5.04.59-10.05.93-15.04.34-6.57.74-13.96,1.19-22.18.45-8.21.79-15.44,1.02-21.67h13.94c-.34,5.44-.74,12.13-1.19,20.06-.57,10.99-1.11,21.05-1.61,30.17-.51,9.12-.76,14.87-.76,17.25,0,2.72.54,4.9,1.61,6.54,1.08,1.64,2.63,2.46,4.67,2.46,1.58,0,3-.23,4.25-.68,1.25-.45,2.72-1.13,4.42-2.04.45-.23.91-.45,1.36-.68l-.68,10.88Zm-23.46-116.77c1.7-1.7,3.8-2.55,6.29-2.55s4.59.85,6.29,2.55c1.7,1.7,2.55,3.8,2.55,6.29s-.85,4.59-2.55,6.29c-1.7,1.7-3.8,2.55-6.29,2.55s-4.59-.85-6.29-2.55c-1.7-1.7-2.55-3.8-2.55-6.29s.85-4.59,2.55-6.29Z"></path><path class="cls-2" d="m325.23,454.41l48.61-62.55h-41.47l.51-11.9h60.34l-.51,10.54-50.65,63.91h36.72c2.72,0,5.07-.09,7.05-.25,1.98-.17,3.6-.43,4.84-.77l-.85,11.9c-1.47.34-3.23.59-5.27.76-2.04.17-4.19.25-6.46.25h-53.37l.51-11.9Z"></path><path class="cls-2" d="m495.38,464.27c-2.04,1.36-3.97,2.38-5.78,3.06-1.81.68-3.91,1.02-6.29,1.02-4.31,0-7.82-1.39-10.54-4.16-2.72-2.78-4.42-6.54-5.1-11.3-3.17,4.76-7.05,8.53-11.64,11.3-4.59,2.78-9.55,4.16-14.87,4.16s-10.2-.93-14.28-2.8c-4.08-1.87-7.39-4.48-9.94-7.82-2.55-3.34-4.42-7.2-5.61-11.56-1.19-4.36-1.79-9.15-1.79-14.36,0-7.7,1.05-14.84,3.14-21.42,2.1-6.57,5.24-12.29,9.43-17.17,4.19-4.87,9.38-8.64,15.55-11.3,6.17-2.66,13.17-3.99,20.99-3.99,4.08,0,8.38.4,12.92,1.19,4.53.79,8.67,1.93,12.41,3.4-.23,3.85-.45,7.82-.68,11.9-.23,4.08-.51,8.84-.85,14.28-.57,8.05-.99,14.59-1.28,19.63-.28,5.04-.42,8.98-.42,11.81,0,5.89.54,10.09,1.61,12.58,1.08,2.49,2.86,3.74,5.35,3.74,2.15,0,4.7-.85,7.65-2.55v10.37Zm-25.33-71.22c-2.27-.68-4.59-1.22-6.97-1.61-2.38-.4-4.59-.59-6.63-.59-5.55,0-10.43,1.13-14.62,3.4-4.19,2.27-7.65,5.35-10.37,9.26-2.72,3.91-4.73,8.3-6.03,13.17-1.3,4.87-1.95,9.86-1.95,14.96,0,6.57,1.56,12.18,4.67,16.83,3.12,4.65,7.85,6.97,14.19,6.97,3.17,0,6.23-.68,9.18-2.04,2.95-1.36,5.67-3.57,8.16-6.63,2.49-3.06,4.56-7.14,6.2-12.24,1.64-5.1,2.63-11.22,2.97-18.36l1.19-23.12Z"></path><path class="cls-2" d="m563.37,392.2c-2.49-.91-5.1-1.36-7.82-1.36-3.06,0-6.03.85-8.92,2.55-2.89,1.7-5.81,4.08-8.75,7.14-3.63,3.85-6.12,8.07-7.48,12.66-1.36,4.59-2.27,10-2.72,16.23l-2.21,36.88h-12.92c.45-7.03.85-13.48,1.19-19.38.34-5.89.65-11.64.93-17.25.28-5.61.54-11.27.76-17,.23-5.72.34-10.06.34-13,0-4.19-.11-7.76-.34-10.71-.23-2.95-.62-5.95-1.19-9.01h12.92c1.02,3.97,1.53,10.14,1.53,18.53l.34.34c1.13-2.49,2.38-4.93,3.74-7.31,1.36-2.38,3.03-4.59,5.01-6.63,1.98-2.04,4.25-3.71,6.8-5.01,2.55-1.3,5.35-1.95,8.41-1.95,3.51,0,7.42.68,11.73,2.04l-1.36,12.24Z"></path><path class="cls-2" d="m646.66,408.18c-.11,2.27-.28,5.5-.51,9.69-.45,5.33-.76,10.11-.93,14.36s-.25,8.64-.25,13.17c0,3.97.51,6.8,1.53,8.5,1.02,1.7,2.66,2.55,4.93,2.55,1.93,0,4.48-.9,7.65-2.72v9.86c-1.93,1.36-3.91,2.49-5.95,3.4-2.04.91-4.08,1.36-6.12,1.36-8.95,0-14.17-5.16-15.64-15.47-3.85,5.55-7.85,9.52-11.98,11.9-4.14,2.38-9.43,3.57-15.89,3.57-3.85,0-7.56-.65-11.13-1.96-3.57-1.3-6.8-3.43-9.69-6.37-2.89-2.95-5.18-6.82-6.88-11.64-1.7-4.81-2.55-10.51-2.55-17.08s.93-13,2.8-19.29,4.64-12.01,8.33-17.17c3.68-5.15,8.27-9.26,13.77-12.32,5.5-3.06,11.7-4.59,18.61-4.59,3.29,0,6.26.25,8.92.77,2.66.51,5.58,1.33,8.75,2.46l2.72-49.29h13.6l-4.08,76.32Zm-54.22,40.2c2.83,4.7,7.14,7.05,12.92,7.05,4.42,0,8.27-1.05,11.56-3.14,3.29-2.1,5.98-4.93,8.07-8.5,2.1-3.57,3.71-7.59,4.84-12.07,1.13-4.48,1.87-9.26,2.21-14.36l1.53-23.8c-5.21-1.81-10.37-2.72-15.47-2.72-5.44,0-10.11,1.36-14.02,4.08-3.91,2.72-7.03,6.2-9.35,10.45-2.32,4.25-3.99,8.7-5.01,13.34-1.02,4.65-1.53,9.01-1.53,13.09,0,6.35,1.42,11.87,4.25,16.57Z"></path><path class="cls-2" d="m673.68,447.78c6.34,5.78,14.84,8.67,25.5,8.67,5.44,0,9.35-1.22,11.73-3.65,2.38-2.44,3.57-5.18,3.57-8.24,0-2.04-.62-3.97-1.87-5.78-1.25-1.81-2.89-3.4-4.93-4.76l-15.47-10.71c-5.1-3.51-8.75-6.91-10.96-10.2-2.21-3.29-3.31-7.19-3.31-11.73,0-3.97.79-7.45,2.38-10.45,1.58-3,3.74-5.47,6.46-7.39,2.72-1.93,5.72-3.34,9.01-4.25,3.29-.91,6.68-1.36,10.2-1.36,4.08,0,7.85.48,11.3,1.44,3.46.96,7.34,2.35,11.64,4.16l-1.19,12.41c-4.65-2.04-8.64-3.57-11.98-4.59-3.34-1.02-6.77-1.53-10.28-1.53-4.53,0-7.93,1.05-10.2,3.14-2.27,2.1-3.4,4.56-3.4,7.39,0,3.85,2.38,7.31,7.14,10.37l14.62,9.69c4.53,2.95,8.13,6.37,10.79,10.28,2.66,3.91,3.99,8.19,3.99,12.83,0,7.93-2.63,14.05-7.9,18.36-5.27,4.31-11.81,6.46-19.63,6.46-5.89,0-11.22-.6-15.98-1.79s-8.67-2.86-11.73-5.01l.51-13.77Z"></path><path class="cls-2" d="m774.3,498.27c2.04.57,3.82.99,5.35,1.28,1.53.28,3.31.43,5.35.43,6.12,0,10.59-2.44,13.43-7.31,2.83-4.87,4.53-13.54,5.1-26.01l4.08-86.69h13.94l-5.1,97.57c-.23,4.98-.93,9.52-2.12,13.6-1.19,4.08-3,7.68-5.44,10.79-2.44,3.12-5.61,5.55-9.52,7.31-3.91,1.76-8.58,2.63-14.02,2.63-4.19,0-8.1-.57-11.73-1.7l.68-11.9Zm35.87-151.11c1.7-1.7,3.8-2.55,6.29-2.55s4.59.85,6.29,2.55c1.7,1.7,2.55,3.8,2.55,6.29s-.85,4.59-2.55,6.29c-1.7,1.7-3.8,2.55-6.29,2.55s-4.59-.85-6.29-2.55c-1.7-1.7-2.55-3.8-2.55-6.29s.85-4.59,2.55-6.29Z"></path><path class="cls-2" d="m930.51,463.59c-4.65,3.17-9.46,4.76-14.45,4.76-1.47,0-2.95-.2-4.42-.6-1.47-.4-2.92-1.13-4.33-2.21-1.42-1.08-2.61-2.63-3.57-4.67-.96-2.04-1.5-4.53-1.61-7.48h-.34c-3.17,4.65-6.91,8.3-11.22,10.96-4.31,2.66-9.29,3.99-14.96,3.99-8.73,0-15.3-2.38-19.72-7.14-4.42-4.76-6.63-11.1-6.63-19.04,0-1.25.08-3.14.25-5.69.17-2.55.43-6.15.76-10.79.45-6.35.82-12.15,1.11-17.42.28-5.27.43-9.83.43-13.68,0-2.27-.23-5.95-.68-11.05-.23-1.81-.34-3-.34-3.57h13.94l.17,2.04c.57,5.1.85,9.29.85,12.58,0,1.02-.28,5.33-.85,12.92-.57,7.82-.99,14.25-1.27,19.29-.28,5.04-.43,9.55-.43,13.51,0,4.99,1.22,8.92,3.66,11.81,2.44,2.89,5.52,4.33,9.26,4.33,3.17,0,6.23-.71,9.18-2.12,2.95-1.42,5.66-3.65,8.16-6.71,2.49-3.06,4.59-7.2,6.29-12.41,1.7-5.21,2.77-11.39,3.23-18.53l2.21-36.72h13.26l-2.89,50.65c-.11,2.49-.17,4.02-.17,4.59-.34,6.01-.51,9.8-.51,11.39,0,6.57,2.32,9.86,6.97,9.86,3.4,0,6.46-1.02,9.18-3.06l-.51,10.2Z"></path><path class="cls-2" d="m1078.39,463.59c-2.15,1.36-4.48,2.49-6.97,3.4-2.49.91-4.76,1.36-6.8,1.36-5.1,0-9.01-1.7-11.73-5.1-2.72-3.4-4.08-7.93-4.08-13.6,0-2.26.11-5.41.34-9.43.23-4.02.57-9.71,1.02-17.08.23-3.4.43-6.54.6-9.43.17-2.89.25-4.79.25-5.69,0-4.99-1.08-9.09-3.23-12.32-2.15-3.23-5.44-4.84-9.86-4.84-3.74,0-7,.88-9.77,2.63-2.78,1.76-5.04,4.05-6.8,6.88-1.76,2.83-3.09,5.86-3.99,9.09-.91,3.23-1.47,6.37-1.7,9.43l-3.06,47.42h-13.43c.23-6.91.54-13.74.93-20.48.4-6.74.82-13.91,1.27-21.5.57-9.74.85-15.75.85-18.02,0-5.21-1.22-9.09-3.65-11.64-2.44-2.55-5.52-3.82-9.26-3.82-2.27,0-4.7.51-7.31,1.53-2.61,1.02-5.16,2.78-7.65,5.27s-4.62,5.89-6.37,10.2c-1.76,4.31-2.86,9.58-3.31,15.81l-2.72,42.66h-13.43c.45-7.03.85-13.48,1.19-19.38.34-5.89.65-11.64.93-17.25.28-5.61.54-11.27.76-17,.23-5.72.34-10.06.34-13,0-4.19-.11-7.76-.34-10.71-.23-2.95-.62-5.95-1.19-9.01h13.43c.68,3.85,1.25,8.05,1.7,12.58h.34c3.06-4.53,6.85-8.1,11.39-10.71,4.53-2.61,9.4-3.91,14.62-3.91s9.94,1.36,13.85,4.08c3.91,2.72,6.71,6.23,8.41,10.54,2.95-4.42,6.6-7.96,10.96-10.62,4.36-2.66,9.43-3.99,15.21-3.99,7.93,0,14.05,2.55,18.36,7.65,4.31,5.1,6.46,11.22,6.46,18.36,0,3.51-.34,10.09-1.02,19.72-.34,5.1-.62,9.43-.85,13-.23,3.57-.34,6.83-.34,9.77,0,6.69,2.38,10.03,7.14,10.03,2.83,0,5.83-1.02,9.01-3.06l-.51,10.2Z"></path><path class="cls-2" d="m1097.76,432.99c.11-1.93.23-3.85.34-5.78.45-7.02.82-13.14,1.1-18.36.28-5.21.43-8.89.43-11.05,0-2.95-.25-5.98-.76-9.09-.51-3.12-1.16-6.03-1.95-8.75h13.94c.45,1.7.88,3.65,1.27,5.86.4,2.21.65,4.5.76,6.88,4.19-5.21,8.5-8.98,12.92-11.3,4.42-2.32,9.46-3.48,15.13-3.48,10.54,0,18.19,3.37,22.95,10.11,4.76,6.74,7.14,16.18,7.14,28.3,0,6.8-.88,13.34-2.64,19.63-1.76,6.29-4.39,11.87-7.9,16.74-3.51,4.87-7.82,8.7-12.92,11.47-5.1,2.78-10.82,4.16-17.17,4.16-4.19,0-7.9-.65-11.13-1.96-3.23-1.3-6.37-3.09-9.43-5.35l-2.72,49.8h-13.94l4.59-77.85Zm12.92,14.62c2.04,2.72,4.42,4.87,7.14,6.46,2.72,1.59,6.01,2.38,9.86,2.38,8.61,0,15.66-3.74,21.16-11.22,5.49-7.48,8.24-17.28,8.24-29.41,0-7.48-1.36-13.51-4.08-18.1-2.72-4.59-7.14-6.88-13.26-6.88-4.19,0-7.93.93-11.22,2.8-3.29,1.87-6.06,4.39-8.33,7.56-2.27,3.17-4.02,6.8-5.27,10.88-1.25,4.08-2.04,8.33-2.38,12.75l-1.87,22.78Z"></path><path class="cls-2" d="m1308.7,510.84h-13.43l3.23-55.58-.34-.34c-3.29,4.08-7.14,7.34-11.56,9.77-4.42,2.44-9.58,3.66-15.47,3.66-8.84,0-16.18-2.92-22.01-8.75-5.84-5.84-8.75-14.47-8.75-25.92,0-8.5,1.13-16.17,3.4-23.03,2.27-6.85,5.49-12.72,9.69-17.59,4.19-4.87,9.29-8.61,15.3-11.22,6-2.61,12.69-3.91,20.06-3.91,5.21,0,9.89.28,14.02.85,4.13.57,8.36,1.53,12.66,2.89l-6.8,129.18Zm-49.38-62.13c2.66,4.48,7.39,6.71,14.19,6.71,4.19,0,7.93-1.02,11.22-3.06,3.29-2.04,6-4.81,8.16-8.33,2.15-3.51,3.83-7.51,5.02-11.98,1.19-4.48,1.95-9.21,2.29-14.19l1.53-26.01c-3.17-.68-7.54-1.02-13.09-1.02-10.65,0-18.87,3.71-24.65,11.13-5.78,7.42-8.67,16.86-8.67,28.3,0,7.82,1.33,13.97,3.99,18.44Z"></path><path class="cls-2" d="m1424.62,463.59c-4.65,3.17-9.46,4.76-14.45,4.76-1.47,0-2.95-.2-4.42-.6-1.47-.4-2.92-1.13-4.33-2.21-1.42-1.08-2.61-2.63-3.57-4.67-.96-2.04-1.5-4.53-1.61-7.48h-.34c-3.17,4.65-6.91,8.3-11.22,10.96-4.31,2.66-9.29,3.99-14.96,3.99-8.73,0-15.3-2.38-19.72-7.14-4.42-4.76-6.63-11.1-6.63-19.04,0-1.25.08-3.14.25-5.69.17-2.55.43-6.15.76-10.79.45-6.35.82-12.15,1.11-17.42.28-5.27.43-9.83.43-13.68,0-2.27-.23-5.95-.68-11.05-.23-1.81-.34-3-.34-3.57h13.94l.17,2.04c.57,5.1.85,9.29.85,12.58,0,1.02-.28,5.33-.85,12.92-.57,7.82-.99,14.25-1.27,19.29-.28,5.04-.43,9.55-.43,13.51,0,4.99,1.22,8.92,3.66,11.81,2.44,2.89,5.52,4.33,9.26,4.33,3.17,0,6.23-.71,9.18-2.12,2.95-1.42,5.66-3.65,8.16-6.71,2.49-3.06,4.59-7.2,6.29-12.41,1.7-5.21,2.77-11.39,3.23-18.53l2.21-36.72h13.26l-2.89,50.65c-.11,2.49-.17,4.02-.17,4.59-.34,6.01-.51,9.8-.51,11.39,0,6.57,2.32,9.86,6.97,9.86,3.4,0,6.46-1.02,9.18-3.06l-.51,10.2Z"></path><path class="cls-2" d="m1472.55,463.93c-4.31,2.95-9.01,4.42-14.11,4.42s-9.24-1.79-11.73-5.35c-2.49-3.57-3.74-8.3-3.74-14.19,0-1.59.14-4.9.43-9.94.28-5.04.59-10.05.93-15.04.34-6.57.74-13.96,1.19-22.18.45-8.21.79-15.44,1.02-21.67h13.94c-.34,5.44-.74,12.13-1.19,20.06-.57,10.99-1.11,21.05-1.61,30.17-.51,9.12-.76,14.87-.76,17.25,0,2.72.54,4.9,1.61,6.54,1.08,1.64,2.63,2.46,4.67,2.46,1.58,0,3-.23,4.25-.68,1.25-.45,2.72-1.13,4.42-2.04.45-.23.91-.45,1.36-.68l-.68,10.88Zm-23.46-116.77c1.7-1.7,3.8-2.55,6.29-2.55s4.59.85,6.29,2.55c1.7,1.7,2.55,3.8,2.55,6.29s-.85,4.59-2.55,6.29c-1.7,1.7-3.8,2.55-6.29,2.55s-4.59-.85-6.29-2.55c-1.7-1.7-2.55-3.8-2.55-6.29s.85-4.59,2.55-6.29Z"></path><path class="cls-2" d="m1549.38,394.92c-6.46-2.72-12.52-4.08-18.19-4.08-4.99,0-9.41,1.02-13.26,3.06-3.85,2.04-7.03,4.84-9.52,8.41-2.49,3.57-4.36,7.56-5.61,11.98-1.25,4.42-1.87,9.07-1.87,13.94,0,3.74.4,7.31,1.19,10.71.79,3.4,2.04,6.4,3.74,9.01,1.7,2.61,3.97,4.67,6.8,6.2,2.83,1.53,6.17,2.29,10.03,2.29,4.08,0,8.24-.82,12.49-2.46,4.25-1.64,8.3-3.82,12.15-6.54l-1.02,14.62c-3.29,1.93-7.28,3.46-11.98,4.59-4.7,1.13-9.32,1.7-13.85,1.7-4.76,0-9.21-.77-13.34-2.29-4.14-1.53-7.79-3.88-10.96-7.05-3.17-3.17-5.67-7.19-7.48-12.07-1.81-4.87-2.72-10.59-2.72-17.17s.91-12.75,2.72-18.87c1.81-6.12,4.53-11.67,8.16-16.66,3.63-4.98,8.19-8.95,13.68-11.9,5.49-2.95,11.75-4.42,18.78-4.42,3.63,0,7.22.25,10.79.77,3.57.51,6.94,1.5,10.11,2.97l-.85,13.26Z"></path><path class="cls-2" d="m1575.9,331.86h13.43l-4.42,80.23,35.69-32.13h20.57l-42.66,37.05,18.7,27.37c.23.23.51.62.85,1.19,2.26,3.4,4.33,6.06,6.2,7.99,1.87,1.93,3.99,2.89,6.37,2.89,1.36,0,2.78-.34,4.25-1.02,1.47-.68,3.06-1.59,4.76-2.72l-.51,10.88c-5.33,3.17-9.92,4.76-13.77,4.76-2.72,0-5.3-.77-7.73-2.29-2.44-1.53-5.01-4.22-7.73-8.07l-25.33-36.72h-.34l-2.21,45.04h-13.43l7.31-134.45Z"></path><path class="cls-2" d="m1688.93,464.44c-4.19,2.61-8.67,3.91-13.43,3.91-5.1,0-8.92-1.67-11.47-5.02-2.55-3.34-3.82-8.07-3.82-14.19,0-2.49.08-6.03.25-10.62s.43-10.08.76-16.49c.34-6.4,1.08-20.76,2.21-43.09.45-8.04.93-16.46,1.44-25.24.51-8.78.88-16.06,1.1-21.84h12.92c-.45,9.63-1.42,27.25-2.89,52.86-.79,15.3-1.47,28.24-2.04,38.84-.57,10.6-.85,17.59-.85,20.99,0,8.61,2.44,12.92,7.31,12.92,2.95,0,6-1.13,9.18-3.4l-.68,10.37Z"></path><path class="cls-2" d="m1713.75,496.91c2.6.9,5.55,1.64,8.84,2.21,3.29.57,6.06.85,8.33.85,6.57,0,11.87-1.3,15.89-3.91,4.02-2.61,6.97-6.04,8.84-10.28,1.87-4.25,3.06-8.67,3.57-13.26.51-4.59.82-10.17.93-16.74l-.34-.34c-3.51,4.19-7.39,7.39-11.64,9.6-4.25,2.21-9.04,3.31-14.36,3.31-7.71,0-13.83-2.18-18.36-6.54-4.53-4.36-6.8-11.02-6.8-19.97,0-7.25.45-17.62,1.36-31.11.68-10.31,1.02-17.39,1.02-21.25,0-1.47-.08-3.12-.25-4.93-.17-1.81-.37-3.34-.6-4.59h12.92c.57,2.38.85,6.63.85,12.75,0,2.15-.09,4.62-.25,7.39-.17,2.78-.43,7.05-.77,12.83-.45,6.57-.79,12.01-1.02,16.32-.23,4.31-.34,8.33-.34,12.07,0,4.76,1.13,8.47,3.4,11.13,2.27,2.66,5.67,3.99,10.2,3.99,2.95,0,6.37-1.13,10.28-3.4,3.91-2.27,7.34-5.61,10.28-10.03,1.93-3.06,3.43-6.85,4.51-11.39,1.08-4.53,1.78-10.42,2.12-17.68l1.7-34h13.43l-4.42,86.69c-.68,14.84-4.19,26.09-10.54,33.74-6.35,7.65-16.6,11.47-30.77,11.47-2.49,0-5.55-.25-9.18-.76-3.63-.51-6.86-1.22-9.69-2.12l.85-12.07Z"></path><path class="cls-2" d="m145.87,732.4h77.36l-1.56,11.26h-31.88l-12.93,107.18h-12.71l12.71-107.18h-32.33l1.34-11.26Z"></path><path class="cls-2" d="m244.63,704.25h13.38l-8.69,75.43c6.91-8.78,15.83-14.86,27.2-14.86,15.38,0,21.85,9.23,21.85,23.87-1.11,14.41-4.68,29.72-4.9,45.04,0,4.28.89,7.66,5.57,7.66,2.01,0,4.46-1.13,7.36-3.15l18.95-14.19,2.9,9.68-21.18,14.86c-4.68,2.7-9.14,4.05-13.15,4.05-10.03,0-14.05-6.08-14.05-15.76.22-14.64,4.46-31.3,4.46-45.94,0-7.88-3.34-13.29-11.15-13.29-16.72,0-26.08,20.72-27.87,34.9l-4.68,38.5h-13.38l17.39-146.81Z"></path><path class="cls-2" d="m324.44,816.84c0-26.34,15.83-52.01,44.37-52.01,11.59,0,19.84,6.75,19.84,18.69,0,8.56-6.24,17.34-18.95,26.57-12.48,9.01-24.52,15.54-29.65,19.82,1.56,7.21,8.25,13.06,18.28,13.06s18.28-2.93,26.53-9.01l-1.56,11.48c-8.7,6.3-16.5,8.11-26.98,8.11-19.62-.9-31.66-14.19-31.88-36.7Zm13.15,1.13c4.24-2.93,13.15-7.88,23.19-15.76,10.48-7.88,15.16-13.06,15.16-18.24,0-4.73-4.01-7.66-9.59-7.66-9.14,0-17.84,6.53-22.52,15.54-4.46,9.01-6.91,18.01-6.24,26.12Z"></path><path class="cls-2" d="m416.07,912.32l5.57-10.58c3.57,4.73,8.03,8.56,14.04,8.56,13.82,0,19.62-15.31,22.52-26.8,2.45-9.01,4.01-23.87,6.02-46.61,2.9-29.95,4.68-49.99,5.57-60.12h-14.27l.89-9.68h14.05c1.56-16.44,3.34-29.27,7.8-40.76,4.24-11.71,13.6-22.07,25.86-22.07,8.25,0,14.49,3.83,18.5,11.48l-6.02,9.91c-2.45-5.18-6.69-9.23-12.71-9.23-6.91,0-12.93,9.23-15.38,18.46-2.45,9.01-3.57,19.59-4.68,32.2h49.49v9.68h-49.94l-7.58,77.46c-2.01,23.42-7.8,67.55-39.02,67.55-10.03,0-15.61-4.28-20.73-9.46Z"></path><path class="cls-2" d="m519.07,835.98v-4.5c2.45-21.62,5.57-42.78,8.03-64.4h13.15l-7.36,63.05c-.22,1.58-.45,2.7-.45,4.28,0,3.38,1.11,6.98,5.57,6.98,1.56,0,3.34-.45,4.91-1.35l3.57-2.25c12.04-11.26,21.85-24.99,29.65-40.98l6.69,5.18c-10.48,20.72-22.74,36.48-36.79,47.06-3.79,2.48-8.25,3.6-12.93,3.6-10.7,0-14.05-6.98-14.05-16.66Zm18.28-104.48c5.13,0,9.14,4.05,9.14,9.23s-4.01,9.01-9.14,9.01-8.92-3.83-8.92-9.01,3.79-9.23,8.92-9.23Z"></path><path class="cls-2" d="m589.3,767.08c0,14.41.22,28.82.45,43.23.22,6.98.22,11.71.22,14.19l.67,9.46c.22,2.7.22,8.11,4.68,8.11,12.71,0,28.54-42.56,35-64.17l3.12-11.26h12.71c2.01,13.51,4.46,22.29,6.91,27.02,5.35,9.46,7.8,11.03,15.38,11.03l-4.9,11.48h-.45c-14.04,0-20.73-18.01-21.62-29.95l-4.91,12.83c-9.59,25.22-25.19,54.49-42.14,54.49-10.92,0-15.83-6.08-16.94-16.89-1.11-11.48-1.56-22.97-1.56-34.68v-34.9h13.38Z"></path><path class="cls-2" d="m661.98,818.19c0-26.8,14.49-53.37,43.92-53.37,13.38,0,23.85,7.43,23.85,21.84,0,26.8-33.44,32.2-54.18,30.4,0,13.29,6.91,24.99,21.63,24.99,9.81,0,18.73-2.48,26.75-8.56l-1.78,11.71c-8.03,6.08-18.06,8.33-28.09,8.33-20.07,0-32.1-16.21-32.1-35.35Zm14.94-12.38c2.45.45,4.68.68,6.91.68,12.04,0,32.33-4.05,32.33-19.59,0-6.53-5.35-11.48-11.82-11.48-14.27,0-25.64,17.34-27.42,30.4Z"></path><path class="cls-2" d="m814.7,703.8h12.71l-9.36,77.01c6.91-10.13,15.83-16.21,28.31-16.21,18.73,0,26.98,12.61,26.98,30.62,0,15.09-5.13,34-16.05,45.03,21.18-8.78,34.78-30.85,46.37-49.76l7.58,3.38c-6.24,12.61-14.71,26.8-26.31,39.41-11.37,11.93-28.98,20.49-53.06,20.49h-4.68c-10.48,0-20.29-3.15-29.43-8.56l16.94-141.41Zm-3.12,133.53c4.46,2.93,9.14,5.18,14.49,5.18,23.41,0,33.22-25.22,33.22-45.49,0-10.81-4.01-18.91-15.83-18.91-28.09,0-28.98,39.41-31.88,59.22Z"></path><path class="cls-2" d="m939.32,764.6c5.13,0,10.03.9,14.49,2.48h53.95v9.68h-42.14c4.01,6.08,6.02,13.96,6.02,23.19,0,26.35-13.38,53.82-42.81,53.82-22.07,0-32.33-14.64-32.33-35.58,0-26.57,13.6-53.59,42.81-53.59Zm-29.21,53.37c0,13.51,4.91,23.87,19.84,23.87,20.51,0,28.31-23.64,28.31-40.98,0-10.81-3.34-21.84-15.16-24.09-1.56-.22-3.34-.45-5.13-.45-21.4,0-27.87,24.32-27.87,41.66Z"></path><path class="cls-2" d="m980.35,851.07l35.45-44.36-20.96-39.63h15.61l14.27,29.5,22.96-29.5h15.83l-32.55,39.86,23.19,44.13h-15.38l-16.72-33.55-25.64,33.55h-16.05Z"></path><path class="cls-2" d="m1075.99,835.98v-4.5c2.45-21.62,5.57-42.78,8.03-64.4h13.15l-7.36,63.05c-.22,1.58-.45,2.7-.45,4.28,0,3.38,1.11,6.98,5.57,6.98,1.56,0,3.34-.45,4.91-1.35l3.57-2.25c12.04-11.26,21.85-24.99,29.65-40.98l6.69,5.18c-10.48,20.72-22.74,36.48-36.79,47.06-3.79,2.48-8.25,3.6-12.93,3.6-10.7,0-14.05-6.98-14.05-16.66Zm18.28-104.48c5.13,0,9.14,4.05,9.14,9.23s-4.01,9.01-9.14,9.01-8.92-3.83-8.92-9.01,3.79-9.23,8.92-9.23Z"></path><path class="cls-2" d="m1130.39,794.1c.67-4.73.89-9.91.89-14.64,0-3.83-.45-7.88-1.11-12.38h12.71c.67,2.7,1.11,5.18,1.11,7.66v7.88c6.91-10.13,15.38-17.79,28.76-17.79,14.49,0,21.63,9.23,21.63,23.64,0,15.31-4.9,30.4-4.9,45.71,0,4.28,1.56,7.21,6.02,7.21,2.01,0,3.57-.45,5.13-1.58.45-.22.89-.45,1.56-1.13,12.71-11.71,22.96-25.67,30.77-41.88l6.69,5.18c-10.48,20.04-22.29,35.58-35.45,46.16-4.24,2.93-9.14,4.5-14.49,4.5-10.03,0-14.05-6.08-14.05-15.99,0-15.54,4.91-30.17,4.91-45.71,0-7.21-2.45-12.83-10.7-12.83-18.95,0-27.2,23.19-28.98,38.73l-4.68,34.23h-12.93l7.13-56.97Z"></path><path class="cls-2" d="m1225.14,822.47c0-31.75,22.52-57.42,54.85-57.42,7.13,0,14.27,1.13,21.18,3.38l-10.92,96.15c-3.57,26.57-12.04,57.19-44.37,57.19-6.24,0-12.71-.9-18.73-3.83l1.34-12.16c5.57,2.93,11.82,4.5,18.5,4.5,18.73,0,25.64-20.94,28.09-36.48,1.11-7.43,3.79-27.92,4.24-34.23-7.13,8.78-16.28,13.29-27.2,13.29-18.06,0-26.98-13.29-26.98-30.4Zm29.65,17.56c29.21,0,29.43-40.98,32.33-61.47-3.57-.9-6.91-1.35-9.81-1.35-22.52,0-38.12,21.62-38.12,43.46,0,10.81,3.79,19.37,15.61,19.37Z"></path><path class="cls-2" d="m149.21,987.08h12.93c0,14.64,1.11,29.27,2.01,43.68.89,8.11,1.11,15.99,2.01,24.32,0,1.58.22,5.85,3.12,5.85,2.68,0,4.46-4.05,5.13-5.85l26.31-68h13.38l6.02,68.68c.22,2.48.89,5.85,3.79,5.85,9.14,0,28.31-67.55,31.66-74.53h36.34l3.34,9.68h-30.32l-.89,3.15c-7.13,26.34-24.52,72.96-42.14,72.96-7.8,0-12.04-3.83-12.93-11.48l-4.9-51.34-19.84,51.79c-2.9,7.21-8.03,11.48-16.28,11.48s-12.71-6.08-14.05-13.74c-2.68-22.52-4.68-49.76-4.68-72.51Z"></path><path class="cls-2" d="m290.78,987.08h13.15l-7.36,63.05c-.22,1.58-.45,2.7-.45,4.28,0,3.38,1.11,6.98,5.57,6.98,3.57,0,6.69-2.48,9.36-4.5l-.89,11.71c-4.01,2.7-8.47,4.05-13.38,4.05-10.7,0-14.05-6.98-14.05-16.66v-4.5c2.45-21.62,5.57-42.78,8.03-64.4Zm1.34-26.35c0-5.18,3.79-9.23,8.92-9.23s9.14,4.05,9.14,9.23-4.01,9.01-9.14,9.01-8.92-3.83-8.92-9.01Z"></path><path class="cls-2" d="m317.98,1070.84l2.01-11.71,51.05-61.02h-40.58l1.56-11.03h58.41l-1.56,9.91-52.62,62.15c5.13.23,9.81.45,14.94.45h15.16c5.35,0,11.15-.45,16.5-1.58l-1.78,12.16c-4.68,1.13-9.36,1.35-14.49,1.35-16.27,0-32.33-.22-48.6-.68Z"></path><path class="cls-2" d="m452.19,985.05c7.36,0,15.16,2.25,22.52,4.28l-8.47,66.2c-.22,3.83,1.12,5.85,4.46,5.85,2.68,0,4.91-.68,6.91-2.25.22-.22.45-.67,1.12-1.35l.45-.45v.22c11.82-11.48,21.63-24.99,29.43-40.76l6.69,5.18c-7.36,14.41-29.21,50.66-48.16,50.66-8.92,0-14.04-6.53-14.04-14.86-6.47,8.78-15.38,15.76-26.98,15.76-18.06,0-25.64-14.19-25.64-30.62,0-29.72,20.51-57.87,51.72-57.87Zm-23.41,74.98c8.92,0,15.16-5.4,19.84-12.38,8.92-13.29,9.81-32.2,11.59-47.74-3.34-1.35-6.91-2.03-10.48-2.03-20.73,0-35.67,24.09-35.67,43.01,0,10.13,3.34,19.14,14.71,19.14Z"></path><path class="cls-2" d="m507.26,1014.78c.67-6.08,1.34-12.16,1.34-18.24,0-2.93-.22-6.53-.89-9.46h12.48c.67,2.93.67,6.53.67,9.46,0,3.38,0,5.85-.67,9.23,5.57-10.58,13.6-20.04,26.98-20.04,2.01,0,3.57.23,4.91.9,3.57,1.58,5.13,3.83,6.91,5.4l2.68,2.03c2.45,1.58,5.35,2.25,8.47,2.03,10.48-.23,21.63-3.6,32.1-6.98,2.67-.9,4.9-1.13,7.58-1.8l.22.9-11.59,7.43c-3.57,2.25-27.87,10.81-31.66,10.81-4.68,0-8.92-1.58-12.71-4.28-2.23-2.25-4.46-3.38-6.91-3.38-19.17,0-28.54,23.19-30.32,39.41l-4.01,32.88h-12.49l6.91-56.29Z"></path><path class="cls-2" d="m565,1041.57c0-26.12,18.28-56.74,46.6-56.74,5.35,0,10.25,1.58,15.38,3.15l7.8-64.17h12.71l-14.27,118.44c-.67,3.38-.89,7.43-.89,11.03s1.34,7.66,5.57,7.66c3.57,0,6.24-2.25,8.69-4.28v.23c2.68-2.48,5.35-5.85,8.03-9.68,4.46-6.53,9.14-13.51,13.82-20.94,13.15-21.17,26.53-41.66,39.24-41.66l3.57,6.08-4.46,2.25c-8.03,0-27.65,34.23-35.45,46.16-6.91,10.58-14.04,21.39-25.42,29.72l-.22-.22c-4.24,2.7-8.69,4.05-13.15,4.05-9.14,0-12.71-6.3-13.6-14.41-6.91,9.91-15.83,15.31-27.42,15.31-19.17,0-26.53-14.86-26.53-31.97Zm28.31,18.69c28.09,0,29.43-39.63,32.1-60.12-4.46-2.03-8.69-3.15-12.93-3.15-20.29,0-33.22,25.67-33.22,43.68,0,9.68,2.45,19.59,14.04,19.59Z"></path><path class="cls-2" d="m667.11,1051.7c6.02,7.43,10.03,10.58,20.07,10.58,8.25,0,15.83-6.3,15.83-15.31,0-11.93-15.38-27.7-15.38-40.31,0-13.51,11.59-22.52,24.08-22.52,2.23,0,4.68.9,7.58,2.48l.67,9.01c-2.9-1.13-5.57-1.58-8.03-1.58-6.24,0-10.92,4.73-10.92,11.03,0,5.85,15.61,26.8,15.61,41.21,0,18.01-14.71,27.25-31.66,27.25-7.36,0-14.27-2.48-19.62-8.11l1.78-13.74Z"></path><path class="cls-2" d="m762.75,1096.74c9.14-4.73,19.62-10.13,28.54-17.34,4.24-33.33,7.8-61.92,11.37-92.32h12.93l-10.48,81.96c14.27-13.74,29.65-40.98,39.24-57.19l7.8,2.93c-8.25,16.44-18.06,32.2-25.86,43.01-7.8,10.58-14.27,16.44-22.96,24.32-2.45,20.04-14.27,59.45-39.24,59.45-10.03,0-18.95-5.85-19.62-18.46,0-10.81,9.14-20.94,18.28-26.35Zm2.01,35.13c8.03,0,12.93-6.53,16.72-14.41,3.79-7.21,6.69-20.72,7.8-25.67-3.34,2.7-6.91,4.95-10.48,6.98l-11.15,6.08c-7.36,4.28-12.71,10.36-12.71,17.34.67,7.21,5.13,9.68,9.81,9.68Zm38.57-171.13c0-5.18,3.79-9.23,8.92-9.23s9.14,4.05,9.14,9.23-4.01,9.01-9.14,9.01-8.92-3.83-8.92-9.01Z"></path><path class="cls-2" d="m835.88,1049.68c0-5.63,1.12-11.71,2.01-17.11,2.01-9.91,2.9-18.01,3.57-24.32.67-6.53.45-13.29.22-21.17h13.38v2.25c.22,14.64-1.78,29.05-4.24,43.46-.67,5.4-1.56,10.36-1.56,15.76,0,8.56,4.01,12.83,12.26,12.83,15.61,0,24.08-14.41,26.31-27.92l5.8-46.38h13.15l-7.8,63.5c-.22.45-.22,1.58-.22,3.6,0,3.6,1.11,7.66,5.57,7.43.89.22,2.45-.45,4.68-1.58.45-.23,1.11-.45,2.01-1.13,12.71-11.93,23.19-25.9,30.99-42.11l6.69,5.18c-10.48,20.04-22.29,35.58-35.45,46.16-3.57,2.93-6.91,4.5-13.38,4.5-8.92,0-13.6-4.73-13.82-13.96-6.91,9.01-15.61,14.64-26.98,14.64-15.38,0-23.19-7.88-23.19-23.64Z"></path><path class="cls-2" d="m939.99,1016.58c.67-5.4,1.56-10.81,1.56-16.21,0-4.5-.89-8.78-1.56-13.29h13.15c.89,4.5,1.12,8.33,1.12,12.83,6.24-9.23,14.49-15.09,25.86-15.09,10.03,0,16.94,4.73,20.96,14.41,6.91-9.01,15.61-14.41,27.2-14.41,13.38,0,20.96,9.23,20.96,22.74,0,15.99-5.13,30.62-5.13,46.61,0,3.6,1.12,7.66,5.57,7.66,1.56,0,3.34-.67,5.35-1.8l2.01-1.35c12.71-11.93,22.96-25.89,30.77-41.88l6.69,5.18c-10.25,20.04-22.07,35.35-35.23,45.94-4.24,3.38-8.92,4.95-14.27,4.95-9.14,0-14.49-7.66-14.49-16.44,0-15.09,5.57-31.07,5.57-46.16,0-8.11-3.79-12.16-11.15-12.16-14.94,0-22.29,14.64-24.08,27.92l-5.8,45.03h-13.15l6.02-50.89c.67-2.03.67-4.05.67-6.53,0-7.88-2.45-15.54-11.15-15.54-15.38,0-23.85,16.44-25.64,29.72l-5.57,43.23h-12.93l6.69-54.49Z"></path><path class="cls-2" d="m1070.64,1141.77l15.61-131.5c.67-2.93.89-6.3.89-9.68,0-4.5-.22-9.01-1.12-13.51h13.38c.89,3.83.89,7.88.89,11.71,7.13-8.33,16.5-14.41,27.87-14.41,18.28,0,26.98,14.19,26.98,31.07,0,25.45-13.6,58.32-43.03,58.32-7.8,0-14.05-2.7-19.17-8.11l-9.14,76.11h-13.15Zm23.63-89.39c3.79,5.63,8.92,10.36,16.28,10.36,20.29,0,30.32-27.25,30.32-44.58,0-11.03-3.34-20.49-15.61-20.49-26.75,0-28.09,35.58-30.99,54.72Z"></path><path class="cls-2" d="m1228.71,1042.47c0-30.62,20.29-57.87,52.17-57.87,8.25,0,16.05,1.35,23.63,3.83l-14.27,110.56c17.17-43.68,41.47-83.76,58.19-103.58l6.91,4.5c-17.39,20.49-44.37,71.6-71.57,141.63l-10.25-.9,9.59-80.84c-7.8,7.88-16.72,13.06-27.64,13.06-18.73,0-26.75-13.29-26.75-30.4Zm13.82-.68c0,11.03,4.01,18.24,15.83,18.24,28.54,0,29.65-40.98,32.1-61.25-3.34-.9-7.13-1.8-10.48-1.8-23.19,0-37.46,23.19-37.46,44.81Z"></path><path class="cls-2" d="m1335.94,1049.68c0-5.63,1.12-11.71,2.01-17.11,2.01-9.91,2.9-18.01,3.57-24.32.67-6.53.45-13.29.22-21.17h13.38v2.25c.22,14.64-1.78,29.05-4.24,43.46-.67,5.4-1.56,10.36-1.56,15.76,0,8.56,4.01,12.83,12.26,12.83,15.61,0,24.08-14.41,26.31-27.92l5.8-46.38h13.15l-7.8,63.5c-.22.45-.22,1.58-.22,3.6,0,3.6,1.11,7.66,5.57,7.43.89.22,2.45-.45,4.68-1.58.45-.23,1.11-.45,2.01-1.13,12.71-11.93,23.19-25.9,30.99-42.11l6.69,5.18c-10.48,20.04-22.29,35.58-35.45,46.16-3.57,2.93-6.91,4.5-13.38,4.5-8.92,0-13.6-4.73-13.82-13.96-6.91,9.01-15.61,14.64-26.98,14.64-15.38,0-23.19-7.88-23.19-23.64Z"></path><path class="cls-2" d="m1436.72,1055.98v-4.5c2.45-21.62,5.57-42.78,8.03-64.4h13.15l-7.36,63.05c-.22,1.58-.45,2.7-.45,4.28,0,3.38,1.11,6.98,5.57,6.98,1.56,0,3.34-.45,4.91-1.35l3.57-2.25c12.04-11.26,21.85-24.99,29.65-40.98l6.69,5.18c-10.48,20.72-22.74,36.48-36.79,47.06-3.79,2.48-8.25,3.6-12.93,3.6-10.7,0-14.05-6.98-14.05-16.66Zm18.28-104.48c5.13,0,9.14,4.05,9.14,9.23s-4.01,9.01-9.14,9.01-8.92-3.83-8.92-9.01,3.79-9.23,8.92-9.23Z"></path><path class="cls-2" d="m1531.69,984.6c8.92,0,16.05,3.38,21.18,9.91l-4.9,11.03c-4.01-5.85-9.59-9.01-16.5-9.46-20.73,0-31.66,24.54-31.66,42.56,0,11.48,5.57,23.19,18.73,23.19,4.68,0,9.14-.9,13.15-2.7,1.12-.67,2.45-.9,3.57-1.58,17.39-11.48,28.76-29.27,39.24-47.06l7.58,3.38c-11.82,24.09-33,56.07-61.98,59.22-.67.23-1.78.23-3.12.23h-3.34c-2.45-.23-4.68-.45-7.13-1.13-1.56-.45-3.57-1.35-5.8-2.48-10.48-6.53-14.94-19.14-14.94-31.07,0-26.8,17.17-54.04,45.93-54.04Z"></path><path class="cls-2" d="m1561.79,1071.07l17.61-147.04h12.93l-8.92,75.21c7.13-8.11,16.94-14.64,27.87-14.64s18.28,6.76,18.28,17.34c0,17.11-18.73,24.54-32.55,26.34,4.68,7.66,18.28,32.42,31.21,32.42,3.12,0,6.47-1.58,9.81-4.73v.23c11.37-11.26,20.73-24.32,28.09-39.41l6.69,5.18c-10.26,19.59-21.85,34.9-34.78,45.49v.22c-4.24,3.6-7.13,4.28-14.05,4.28-17.84,0-35.45-31.3-41.91-43.91h-2.01l-5.35,43.01h-12.93Zm18.73-51.34c9.36,0,34.33-3.15,35-15.31-.22-4.95-2.9-7.43-7.8-7.66-11.82.45-23.41,12.16-27.2,22.97Z"></path><path class="cls-2" d="m1661.89,1054.41c0-2.93.22-6.3.67-9.68l14.05-120.47h12.93l-13.82,120.47c-.45,2.93-.67,5.85-.67,8.78s.22,8.78,4.46,8.78c3.34,0,5.57-1.35,8.03-3.83,13.15-13.29,22.29-26.35,29.65-41.66l6.69,5.18c-7.8,14.41-28.76,50.66-48.38,50.66-11.37,0-13.6-9.01-13.6-18.24Z"></path><path class="cls-2" d="m1709.15,1139.3l1.56-11.71c5.35,1.58,11.15,2.25,17.17,2.25,23.86,0,28.98-28.82,31.44-47.51l2.9-23.19c-7.13,8.33-16.5,14.41-27.42,14.41-16.72,0-22.07-11.93-22.07-27.25,0-19.81,6.69-39.63,5.57-59.22h13.38v1.12c0,18.69-6.02,37.15-6.02,55.84,0,9.23,1.12,16.89,11.59,16.89,20.29,0,27.2-22.52,28.98-39.18l4.01-34.68h13.15l-12.49,103.13c-2.9,25.67-14.94,51.57-44.37,51.57-5.35,0-11.15-.9-17.39-2.48Z"></path></g></svg> 