<?xml version="1.0" encoding="UTF-8"?> <svg xmlns="http://www.w3.org/2000/svg" id="Layer_1" viewBox="0 0 450 335"><defs><style>.cls-1{fill:#fff;}.cls-2{fill:#ececec;}.cls-3{fill:#bca5cf;}.cls-4{fill:#111035;}</style></defs><rect class="cls-1" width="450" height="335"></rect><rect class="cls-2" y="199.03" width="450" height="51.18"></rect><rect class="cls-2" y="86.67" width="450" height="48.97"></rect><polygon class="cls-3" points="308.78 250.21 290.14 250.21 337.09 86.67 355.72 86.67 308.78 250.21"></polygon><path class="cls-4" d="m109.94,184.7c-.2.4-.6.8-1,1l-22.44,15.83c-5.41,18.23-10.22,30.25-14.82,37.26-5.01,8.41-10.82,11.22-16.43,11.42-7.61-.2-11.42-3.81-11.42-11.62-.2-6.41,4.01-16.43,28.05-33.86l9.42-6.61s.2-1,.4-1.6l7.81-27.65c-13.02,17.23-31.45,31.25-43.27,31.45-10.22,0-18.63-4.41-18.83-26.04.2-27.25,10.42-53.49,24.64-70.52,10.42-11.82,22.84-18.83,35.86-18.83,10.62,0,19.43,4.01,26.64,12.42,2.4,3-2.4,7.01-4.81,4.21-6.21-7.21-13.42-10.42-22.24-10.42-11.22-.2-22.04,6.41-30.85,16.43-13.42,16.03-22.84,40.67-23.04,66.11.2,16.63,5.61,20.43,13.02,20.43,16.03,0,43.87-28.85,50.68-52.49,1.2-4.21,7.41-3,6.21,1.2l-14.42,49.88,15.02-10.62c.2-.4.6-.8,1.2-1.2,17.83-12.62,35.26-28.05,45.07-43.87,2-3.81,7.41-1,5.21,2.6-9.62,16.43-27.65,32.05-45.68,45.07Zm-34.66,24.84c-20.63,15.02-25.24,22.84-25.24,28.45,0,4.01,1.8,6.21,5.61,6.01,4.01-.2,7.61-2.6,10.82-8.01,3.61-6.01,7.81-15.02,12.02-28.85l-3.21,2.4Z"></path><path class="cls-4" d="m230.54,148.44c-3,0-5.81,0-8.01-.2-1.6,8.61-12.82,30.45-25.44,42.27-6.01,5.81-12.22,9.22-17.43,9.42-4.81.2-7.61-2.4-7.81-8.21.2-3.21.6-9.01,2.4-18.23-4.01,6.81-8.41,12.82-12.82,17.23-5.81,6.01-11.42,9.22-16.63,9.22-5.21.4-8.01-2.6-7.81-8.21,0-4.61.8-13.22,4.61-28.05,2-6.81,4.81-15.63,8.41-26.04,1.2-3.81,7.01-2.4,5.81,1.2-3.61,10.42-6.41,19.03-8.41,26.04-3.41,14.02-4.41,22.24-4.21,26.24,0,1.8.6,2.8,2,2.8,3.81.2,7.81-3,11.82-7.21,10.82-10.82,21.64-32.05,27.65-49.08,1.6-3.81,7.21-2.6,6.01,1.4-3.81,11.02-6.61,19.63-8.41,27.04-3.61,13.02-4.21,21.24-4.01,25.24-.2,1.6.4,2.6,1.8,2.4,4.01.2,8.61-2.8,13.02-7.41,11.82-11.22,23.44-32.25,23.24-39.06v-.2c-3.61-1-5.61-2.8-5.81-5.21v-.6c0-4.41,1.8-6.01,5.41-6.01,2.8,0,5.41,2,6.41,7.01h8.81c6.21,0,19.83-3.21,25.24-6.61,3.61-2.2,6.41,3.21,2.8,5.41-6.21,3.41-21.64,7.21-28.65,7.41Z"></path><path class="cls-4" d="m247.17,199.93c-4.01-.2-6.61-2.4-6.01-8.01-.2-7.01,4.01-26.84,13.62-54.29,1.2-3.81,7.01-2.4,5.81,1.2-9.22,26.84-13.42,45.88-13.42,52.49,0,1.4-.2,2.4.6,2.6,3.81,0,7.61-2.8,17.63-12.82,3-2.8,7.21,1.4,4.01,4.21-12.22,12.42-17.63,14.42-22.24,14.62Zm19.83-85.74c-1.2,3.81-7.01,2.6-5.81-1.2l3.81-12.82c1.4-3.81,7.21-2.6,6.01,1.2l-4.01,12.82Z"></path><path class="cls-4" d="m335.31,185.3c-.6.6-1,.8-1.6,1-5.41,4.81-14.22,7.61-23.44,8.01l-.8,3.21c-1.2,3.81-7.21,2.8-6.21-1.2l.8-2.8c-8.21-2.4-14.42-8.61-14.42-14.22-.4-6.81,3.21-10.02,10.02-10.02,3.81.2,7.41,2,9.82,4.61,5.21-18.43,15.23-53.69,15.23-53.69-13.42,21.03-33.86,43.87-54.89,65.11-3,3-7.41-1-4.41-4.01,31.05-30.85,60.1-65.31,68.11-92.15,1.2-4.01,7.21-2.8,6.01,1.2l-27.45,97.76c7.41-.4,14.82-2.8,18.63-6.81.4-.4.6-.6,1-.8,7.41-7.81,18.63-21.64,26.64-30.65,2.8-3,7.41.6,4.61,3.81-8.41,9.42-20.23,24.04-27.65,31.65Zm-36.26-10.02c-2.2,0-3.41,1-3.41,3.41-.2,3.61,4.41,7.41,10.02,8.81,0,0,.8-2.8.8-2.6,1.4-5.01-2.8-9.62-7.41-9.62Z"></path><path class="cls-4" d="m409.23,151.65c-5.81,0-10.02-2.2-11.82-7.01-2,1.6-3.81,3.41-5.61,5.41-5.21,5.81-8.01,11.42-21.24,47.68-1.2,4.01-7.21,2.6-5.81-1.4,9.42-26.84,13.62-44.87,13.42-52.29,0-1.4,1-2.6,0-2.8-2.8,0-8.21,4.81-14.82,12.62-2.8,3.21-7.41-.4-4.81-3.81,9.02-10.22,16.63-15.23,20.23-14.82,4.21,0,5.81,2,5.61,8.41-.2,1.8-.2,4.61-.6,7.61,1-1.6,2.4-3.81,3.41-5.01,3.61-4.21,7.41-7.01,11.02-9.22,2.6-1.4,5.01,1.2,4.41,3.41,1,3.41,3.61,5.21,7.41,5.21,5.41,0,11.82-3.81,15.63-8.21,2.6-3.21,7.21.8,4.41,4.01-5.01,5.21-13.22,10.22-20.83,10.22Z"></path></svg> 