<?xml version="1.0" encoding="UTF-8"?> <svg xmlns="http://www.w3.org/2000/svg" id="Layer_1" viewBox="0 0 450 335"><defs><style>.cls-1{fill:#fff;}.cls-2{fill:#ececec;}.cls-3{fill:#bca5cf;}.cls-4{fill:#111035;}</style></defs><rect class="cls-1" width="450" height="335"></rect><rect class="cls-2" y="199.03" width="450" height="42.79"></rect><rect class="cls-2" y="83.51" width="450" height="52.13"></rect><rect class="cls-3" x="186.88" y="83.4" width="18.64" height="158.42"></rect><path class="cls-4" d="m106.93,109.96c0,26.1,1.69,84.28-.46,97.79-2,12.89-10.44,23.33-23.64,23.33-8.9,0-25.48-13.66-22.26-17.81,1.07-1.38,1.38-1.23,2.61-2.76,3.07-3.53,8.9,11.21,19.8,11.21,8.14,0,13.2-8.29,14.12-13.2,1.38-7.06.31-88.12.15-101.62-.31-27.02-.31-27.63,4.14-27.63,6.91,0,5.53-.31,5.53,30.7Z"></path><path class="cls-4" d="m173.55,157.55c0,10.29-4.14,33.31,11.05,33.31,2.92,0,5.53-5.37,5.53-.46,0,5.83-5.68,8.9-7.06,8.9-4.45,0-10.75-1.38-12.59-5.99-.46-1.23-1.23-3.99-2.92-3.99-2.76,0-11.36,10.29-25.94,10.29s-22.11-12.9-22.11-26.86c0-17.35,11.82-36.69,32.7-36.69,14.89,0,21.34,7.21,21.34,21.49Zm-19.96-13.05c-13.66,0-25.33,11.67-25.33,27.32,0,5.68,3.38,17.81,9.67,19.04,6.91,1.38,14.12-.77,19.34-5.53,6.91-6.45,6.29-9.52,6.29-18.73.46-10.59,1.69-22.11-9.98-22.11Z"></path><path class="cls-4" d="m209.93,121.32l.15,36.38c0,3.84,27.94-23.33,35-23.33,6.29,0,4.3,3.22,3.68,4.61-.92,2-30.24,23.49-30.24,26.86s28.55,23.33,32.85,23.33c5.99,0,10.44-5.68,10.44,0,0,4.14-6.6,8.9-10.29,8.9-9.36,0-33.47-23.33-39.3-23.33-3.53,0-2.76,4.91-2.76,14.43,0,8.44-.61,9.21-4.14,9.21-4.45,0-3.84,1.69-3.84-57.57,0-46.51-.77-57.41,2.3-57.41,8.29,0,6.14,1.84,6.14,37.92Z"></path><path class="cls-4" d="m293.13,133.75c12.13.31,16.27,3.68,14.58,7.52-.77,1.84-2.76,2.61-4.14,2.15-15.35-5.22-25.18.77-25.18,9.52,0,11.67,33.16,7.83,33.16,27.94,0,13.2-10.9,20.26-22.11,20.26-14.12,0-28.71-15.35-18.11-15.35,5.07,0,10.44,7.06,18.57,7.06,5.22,0,12.59-2.92,13.05-9.98.92-14.74-33.31-9.98-33.31-29.32,0-10.59,7.83-20.26,23.49-19.8Z"></path><path class="cls-4" d="m326.14,135.9c.77-.92,1.84-2,3.22-2,5.07,0,4.91,1.54,4.91,9.36,0,1.23-.61,9.67,1.23,9.67,1.07,0,2-1.69,2.3-2.3,3.99-9.21,16.73-16.73,26.71-16.73,11.97,0,25.33,14.58,25.33,26.4,0,17.19-16.73,38.84-34.23,38.84-9.67,0-16.89-7.22-20.57-7.22-1.07,0-.77,5.68-.92,6.29-.46,6.75-.46,13.51-.46,20.26,0,20.57.31,23.33-4.14,23.33-5.99,0-4.45-2.61-4.45-64.17,0-3.53,0-40.53,1.07-41.76Zm9.98,40.22c0,6.45,13.36,14.28,19.8,14.28,12.74,0,25.02-16.27,25.02-28.25,0-10.75-8.29-18.57-16.89-18.57-14.89,0-27.94,19.19-27.94,32.54Z"></path></svg> 