<?xml version="1.0" encoding="UTF-8"?> <svg xmlns="http://www.w3.org/2000/svg" id="Layer_1" viewBox="0 0 450 335"><defs><style>.cls-1{fill:#fff;}.cls-2{fill:#ececec;}.cls-3{fill:#bca5cf;}.cls-4{fill:#111035;}</style></defs><rect class="cls-1" x="0" width="450" height="335"></rect><rect class="cls-2" x="0" y="199.03" width="450" height="59.38"></rect><rect class="cls-2" x="0" y="75.7" width="450" height="59.94"></rect><polygon class="cls-3" points="229.3 258.41 210.67 258.41 241.47 75.7 260.11 75.7 229.3 258.41"></polygon><path class="cls-4" d="m121.92,178.9c-13.48,14.82-18.1,20.99-28.11,20.99-8.28,0-17.71-4.81-29.46-5.01-10.01,0-17.71,2.12-25.8,4.81-.58.19-1.35.38-1.93.38-1.54,0-2.31-.77-2.31-2.12,0-.77.38-1.54.96-2.31,7.89-10.59,12.51-29.65,19.83-74.51,3.47-21.18,7.7-30.8,11.36-36,2.12-2.89,4.81-5.58,7.89-7.51,2.5-1.54,6.55-3.47,8.28-3.47,2.89,0,3.85,4.62.19,5.78-5.2,1.54-8.86,4.24-11.74,8.28-5.2,7.32-8.47,23.49-9.82,31.57-8.86,52.18-10.78,59.88-17.33,72.2,6.55-1.73,13.67-2.89,20.99-2.89,11.74,0,21.18,4.81,29.26,4.81s10.59-5.01,26.95-22.53c8.09-8.47,18.68-19.06,25.8-26.18,2.31-2.31,5.2-.58,5.2,1.73,0,.96-.39,1.54-.96,2.12-10.2,9.82-19.45,19.06-29.26,29.84Z"></path><path class="cls-4" d="m200.08,190.06c-4.24,4.43-10.4,9.63-16.56,9.63-5.58,0-9.43-3.66-9.63-10.01,0-2.31.19-4.81.58-7.7-4.04,6.93-13.67,17.52-22.53,17.52-10.4,0-16.56-10.59-16.56-20.99,0-11.55,3.66-23.49,10.4-31.77,5.2-6.35,12.32-10.4,20.99-10.59,8.28,0,12.13,3.47,15.21,8.66l1.35-6.35c.39-1.73,1.73-2.31,3.08-2.31,1.54,0,2.89,1.16,2.5,3.08l-7.12,34.46c-1.16,5.2-1.93,11.17-1.93,15.21,0,3.08,1.54,4.81,4.24,4.81,4.62,0,9.05-4.43,11.94-7.51l40.43-41.01c2.12-2.12,5.01-.58,5.01,1.73,0,.77-.19,1.35-.96,2.12l-40.43,41.01Zm-33.69-47.94c-6.74,0-11.94,3.27-15.98,8.28-5.97,7.32-8.86,17.71-8.86,27.53,0,7.51,3.66,15.59,11.17,15.59,9.43,0,25.99-22.14,25.99-38.31,0-7.7-4.04-13.09-12.32-13.09Zm-8.66-17.33c-2.89,0-4.81-2.31-4.81-5.01,0-3.27,2.7-5.78,5.58-5.78,2.7,0,5.2,1.93,5.2,5.39,0,3.27-2.7,5.39-5.97,5.39Zm26.76,0c-2.89,0-4.81-2.31-4.81-5.01,0-3.27,2.7-5.78,5.58-5.78,2.7,0,5.2,1.93,5.2,5.39,0,3.27-2.7,5.39-5.97,5.39Z"></path><path class="cls-4" d="m296.53,162.72c.96,2.5,1.54,7.7,1.54,10.97,0,15.79-8.28,25.99-19.83,25.99-7.12,0-11.36-6.93-11.36-13.48s1.93-14.25,22.14-25.99c-1.16-3.47-6.93-12.71-19.45-20.02-2.5-1.54-2.5-3.47.19-5.01,10.59-6.55,18.29-12.51,23.87-20.02,4.43-6.16,7.32-13.09,7.32-21.37,0-6.93-3.08-12.32-9.05-12.32-6.55.19-12.71,3.66-18.1,10.2-12.13,15.02-20.6,43.13-25.22,71.24l-15.4,92.61c-.39,1.93-1.73,2.89-3.27,2.89-1.35,0-2.89-.96-2.7-2.7,1.73-13.28,14.44-82.4,14.44-89.33,0-5.58-1.73-13.28-4.43-19.06-.19-.58-.19-1.16-.19-1.35,0-2.7,4.43-4.43,5.58-1.35.96,2.12,1.54,4.04,2.12,6.16,5.39-25.22,13.67-49.09,24.64-62.57,6.55-8.09,14.44-12.51,23.1-12.51,9.24,0,14.63,7.12,14.63,18.29,0,7.7-3.27,17.33-8.86,24.45-5.2,6.93-13.09,13.09-21.76,18.87,9.82,6.55,16.17,15.02,18.1,20.02l39.28-20.99c2.5-1.35,4.43.39,4.43,2.31,0,1.16-.58,2.12-1.93,2.89l-39.85,21.18Zm-5.58,3.08c-14.05,7.51-18.1,12.51-18.1,19.25,0,4.04,1.93,8.66,5.97,8.66,8.09,0,13.09-7.7,13.09-18.87,0-2.12,0-5.97-.96-9.05Z"></path><path class="cls-4" d="m392.8,187.56c-5.58,5.97-11.94,11.94-17.71,11.94-5.01,0-8.47-4.81-8.47-10.01,0-4.81.77-7.7,1.73-12.71l4.24-20.6c.58-2.89,1.73-7.12,1.73-9.63,0-2.31-.77-5.01-2.89-5.01-4.62,0-13.09,6.16-21.37,14.63-10.2,10.59-20.6,25.8-23.3,40.62-.19,1.93-1.73,2.7-3.08,2.7-1.54,0-3.27-.96-2.89-3.08l11.36-57.76c.38-1.73,1.93-2.5,3.27-2.5,1.54,0,3.08.96,2.7,3.08l-5.97,30.8c4.04-6.74,8.86-12.51,13.67-17.52,10.2-10.2,20.6-16.75,26.38-16.75,5.01,0,8.09,4.81,8.09,10.2,0,2.89-1.16,7.7-1.73,10.78l-4.24,20.6c-.96,4.43-1.93,7.32-1.93,11.55,0,2.12,1.16,4.62,3.27,4.62,4.04,0,10.11-6.64,12.9-9.63l17.14-18.68c2.12-2.31,5.01-.58,5.01,1.73,0,.77-.39,1.35-.96,2.12l-16.94,18.48Z"></path></svg> 