<?xml version="1.0" encoding="UTF-8"?> <svg xmlns="http://www.w3.org/2000/svg" id="Layer_1" viewBox="0 0 450 335"><defs><style>.cls-1{fill:#fff;}.cls-2{fill:#ececec;}.cls-3{fill:#bca5cf;}.cls-4{fill:#111035;}</style></defs><rect class="cls-1" width="450" height="335"></rect><rect class="cls-2" y="199.03" width="450" height="57"></rect><rect class="cls-2" y="80.12" width="450" height="55.52"></rect><polygon class="cls-3" points="158.95 256.03 140.32 256.03 198.92 80.23 217.55 80.23 158.95 256.03"></polygon><path class="cls-4" d="m139.73,187.71c7.87-1.49,14.88-4.25,21.69-9.14,3.61-2.55,7.23,2.34,3.61,4.89-8.51,6.38-17.44,9.78-27.64,11.06l-1.7,4.89c-1.49,4.25-8.29,2.76-6.38-1.49.43-.85.64-1.91,1.06-2.76h-2.55c-13.82-.21-28.92-6.59-38.7-16.16-14.46,16.58-23.81,21.05-32.32,20.84-7.23.21-13.18-2.34-18.5-7.23-2.98-2.55,1.91-7.65,4.89-4.68,3.83,3.61,8.51,5.53,14.25,5.32,7.44,0,14.88-4.25,27.64-18.92-3.61-4.89-5.74-10.42-5.74-16.16,0-12.33,7.23-22.54,22.33-22.33,4.04,0,8.08.64,11.69,1.7,11.69-15.73,20.84-27.64,28.7-36.57,11.06-12.55,19.77-19.35,29.34-21.9,3.19-.85,4.89.64,3.83,3.83l-35.51,104.83Zm-38.7-45.29c-10.21-.21-15.31,6.59-15.1,15.1,0,4.25,1.28,8.08,3.61,11.69,3.61-4.25,7.44-9.36,11.91-15.31,2.76-3.61,5.32-7.23,7.65-10.42-2.55-.64-5.32-1.06-8.08-1.06Zm14.25,3.19c-2.76,3.61-5.74,7.65-8.72,11.69-4.89,6.59-9.14,12.12-13.18,16.8,8.51,8.72,22.54,14.46,35.08,14.46,1.49,0,2.98,0,4.25-.21,1.7-5.32,2.98-10.21,2.98-13.61,0-11.48-8.51-23.6-20.41-29.13Zm31.68-40.82c-7.87,8.72-16.37,20.41-27.64,35.3,10.42,5.1,18.29,14.46,21.48,24.66l26.15-77.18c-6.38,3.4-12.33,9.14-19.99,17.22Z"></path><path class="cls-4" d="m225.84,199.83c-4.04.21-6.8-2.76-7.02-8.29,0-4.68,1.49-8.51,2.98-13.18l7.87-19.99c1.7-5.1,3.83-10.63,3.83-14.03-.21-1.06,0-2.55-1.28-2.34-6.17,0-15.31,6.59-24.24,16.16-10.63,11.06-21.26,25.94-26.37,39.12l-.21.64-18.71,55.71c-1.28,4.25-7.44,2.76-6.17-1.28l28.7-85.48c.43-1.28.85-2.76,1.49-4.04-5.95,7.23-12.55,12.97-21.48,20.84-3.4,2.76-7.44-2.13-4.04-4.89,9.99-8.51,17.01-14.67,23.6-23.6,4.25-5.95,7.02-10.63,9.57-18.92.64-2.98,3.61-3.4,5.32-2.34.85.64,1.28,1.7,1.06,3.19-2.55,10.42-5.74,20.63-9.14,30.83,3.61-4.89,7.65-9.57,11.91-13.82,10.63-11.48,22.11-18.71,29.13-18.71,5.53,0,7.65,3.83,7.23,8.51,0,4.04-2.13,10.63-4.04,16.16l-7.65,20.2c-1.49,4.04-2.76,7.02-2.98,10.42,0,1.49,0,2.76,1.28,2.55,3.19,0,11.91-6.38,21.05-14.46,3.19-3.19,7.65,1.49,4.25,4.47-11.06,9.57-21.9,16.8-25.94,16.59Z"></path><path class="cls-4" d="m285.38,198.55h-.43c-2.34.85-5.32,1.28-8.29,1.28-7.23,0-12.55-2.98-16.8-8.08-2.76-3.19,2.55-7.44,5.1-4.47,3.19,3.83,6.8,5.95,12.12,5.95,9.78,0,14.88-5.74,14.88-17.22,0-9.14-3.19-19.77-3.4-25.73,0-.64.21-1.49,0-2.34-10.84,11.27-24.88,24.88-37,35.72-3.4,2.76-7.44-2.13-4.04-4.89,15.1-13.18,33.6-31.47,44.86-43.16,2.76-3.4,6.8-1.06,5.32,2.98-1.49,3.4-2.55,7.23-2.34,11.06,0,6.17,3.4,16.59,3.19,25.73,0,5.32-.85,9.78-2.55,13.4,6.59-2.55,11.69-5.74,15.95-9.99,3.19-3.19,7.44,1.28,4.25,4.47-7.65,7.44-17.01,12.33-30.83,15.31Z"></path><path class="cls-4" d="m375.1,199.83c-2.98,0-5.53-1.91-8.08-12.12-1.06-4.47-2.34-13.4-3.19-20.41-.21-2.13.64-3.4,2.76-3.83,14.46-4.47,20.41-9.14,20.2-16.16,0-3.61-1.49-5.53-4.89-5.53-3.61.21-11.69,5.95-19.99,14.46-10.63,10.42-21.9,25.52-28.07,41.46-1.49,4.04-7.44,2.55-6.17-1.7l12.33-34.66c-7.44,7.23-14.67,14.03-24.03,22.33-3.4,2.76-7.44-2.13-4.04-4.89,13.18-11.69,22.11-19.99,32.96-31.26l5.1-14.67c5.95-17.22,11.06-32.32,17.01-41.89,4.68-7.02,9.57-10.84,15.31-10.84,7.87,0,10.21,4.25,10.21,12.54.21,11.06-11.91,27.22-38.49,54.22-1.28,1.28-2.55,2.55-3.61,3.83l-5.32,15.1c3.83-5.1,8.08-9.99,12.12-14.03,10.63-9.99,20.84-16.37,25.09-16.37,7.44.21,11.27,3.61,11.27,11.27,0,8.51-5.95,15.95-22.75,21.9.85,6.59,1.91,14.03,2.55,17.44.64,3.4,1.49,7.02,2.76,7.02,3.4,0,11.27-5.95,20.41-14.03,3.19-2.98,7.44,1.49,4.25,4.47-11.06,9.78-21.9,16.37-25.73,16.37Zm6.8-113.12c-3.83-.21-6.59,2.98-9.14,7.44-5.74,8.93-11.06,23.6-16.58,39.97l-1.06,2.76c20.84-21.26,31.04-34.02,30.83-43.59,0-4.04-.43-6.8-4.04-6.59Z"></path></svg> 