<?xml version="1.0" encoding="UTF-8"?> <svg xmlns="http://www.w3.org/2000/svg" xmlns:xlink="http://www.w3.org/1999/xlink" viewBox="0 0 1920 3635"><defs><style>.cls-1,.cls-2,.cls-3,.cls-4,.cls-5{fill:none;}.cls-6{clip-path:url(#clippath);}.cls-7{fill:#ebebeb;}.cls-8{fill:#fff;}.cls-9{fill:#937fbb;}.cls-10{fill:#171c32;}.cls-11{clip-path:url(#clippath-1);}.cls-12{clip-path:url(#clippath-4);}.cls-13{clip-path:url(#clippath-2);}.cls-14{clip-path:url(#clippath-7);}.cls-15{clip-path:url(#clippath-6);}.cls-16{clip-path:url(#clippath-5);}.cls-2{stroke:#a797c9;stroke-dasharray:0 0 1.74 17.45;stroke-linecap:round;stroke-width:7px;}.cls-2,.cls-3,.cls-4,.cls-5{stroke-miterlimit:10;}.cls-3{stroke:#57678b;stroke-width:3.5px;}.cls-4{stroke-width:1.94px;}.cls-4,.cls-5{stroke:#fff;}.cls-5{stroke-width:1.96px;}</style><clipPath id="clippath"><rect class="cls-1" x="1414.09" y="401.03" width="151.64" height="151.64" rx="75.82" ry="75.82"></rect></clipPath><clipPath id="clippath-1"><rect class="cls-1" x="801.98" y="2429.73" width="195.18" height="195.18" rx="97.59" ry="97.59"></rect></clipPath><clipPath id="clippath-2"><rect class="cls-1" x="1529.55" y="2179.24" width="123.06" height="123.06" rx="61.53" ry="61.53"></rect></clipPath><clipPath id="clippath-4"><rect class="cls-1" x="1041.78" y="2867.7" width="138.34" height="138.34" rx="69.17" ry="69.17"></rect></clipPath><clipPath id="clippath-5"><circle class="cls-1" cx="872.1" cy="1674.89" r="92.31"></circle></clipPath><clipPath id="clippath-6"><circle class="cls-1" cx="1131.79" cy="3344.28" r="80"></circle></clipPath><clipPath id="clippath-7"><circle class="cls-1" cx="1313.58" cy="3072.45" r="53.98"></circle></clipPath></defs><g id="Background"><rect class="cls-10" y="0" width="1920" height="3635"></rect></g><g id="guides"><line class="cls-3" x1="-.73" y1="2094.78" x2="1918.72" y2="2094.78"></line><line class="cls-3" x1="-.73" y1="2225.09" x2="1918.72" y2="2225.09"></line><line class="cls-3" x1="1918.72" y1="2409.97" x2="-.73" y2="2409.97"></line><line class="cls-3" x1="-.73" y1="2558.02" x2="1918.72" y2="2558.02"></line><line class="cls-3" x1="-.73" y1="2918.91" x2="1918.72" y2="2918.91"></line><line class="cls-3" x1="-.73" y1="3049.22" x2="1918.72" y2="3049.22"></line><line class="cls-3" x1="1918.72" y1="3234.1" x2="-.73" y2="3234.1"></line><line class="cls-3" x1="-.73" y1="3382.15" x2="1918.72" y2="3382.15"></line><line class="cls-3" x1="-.73" y1="1270.65" x2="1918.72" y2="1270.65"></line><line class="cls-3" x1="-.73" y1="1400.96" x2="1918.72" y2="1400.96"></line><line class="cls-3" x1="1918.72" y1="1585.84" x2="-.73" y2="1585.84"></line><line class="cls-3" x1="-.73" y1="1738.9" x2="1918.72" y2="1738.9"></line><line class="cls-3" x1=".27" y1="338.75" x2="1919.72" y2="338.75"></line><line class="cls-3" x1=".27" y1="443.19" x2="1919.72" y2="443.19"></line><line class="cls-3" x1="1919.72" y1="625.07" x2=".27" y2="625.07"></line><line class="cls-3" x1=".27" y1="742.82" x2="1919.72" y2="742.82"></line></g><g id="info"><rect class="cls-5" x="758.62" y="1043.78" width="402.75" height="118.22"></rect><path class="cls-7" d="m784.45,1114.75v-2.6h4.34v2.54c0,4.65,0,10.85,7.13,10.85,4.59,0,6.88-2.42,6.88-8.43,0-6.82-2.54-8.87-5.21-10.04l-4.59-2.05c-4.9-2.17-7.75-6.45-7.75-13.39,0-5.95,2.29-12.15,10.91-12.15,10.35,0,10.6,9.55,10.6,15v2.6h-4.34v-2.23c0-8.25-.87-11.47-6.32-11.47-4.9,0-6.39,3.1-6.39,8.74,0,6.2,2.85,8.06,5.58,9.36l4.28,2.05c3.29,1.55,7.56,4.22,7.56,13.14,0,7.75-3.22,12.77-11.22,12.77-11.16,0-11.47-9.18-11.47-14.69Z"></path><path class="cls-7" d="m828.16,1111.9h-10.54l-3.22,16.74h-4.46l10.29-48.36h5.39l10.29,48.36h-4.4l-3.35-16.74Zm-.68-3.72l-4.65-23.31h-.06l-4.46,23.31h9.18Z"></path><path class="cls-7" d="m838.08,1114.75v-2.6h4.34v2.54c0,4.65,0,10.85,7.13,10.85,4.59,0,6.88-2.42,6.88-8.43,0-6.82-2.54-8.87-5.21-10.04l-4.59-2.05c-4.9-2.17-7.75-6.45-7.75-13.39,0-5.95,2.29-12.15,10.91-12.15,10.35,0,10.6,9.55,10.6,15v2.6h-4.34v-2.23c0-8.25-.87-11.47-6.32-11.47-4.9,0-6.39,3.1-6.39,8.74,0,6.2,2.85,8.06,5.58,9.36l4.28,2.05c3.29,1.55,7.56,4.22,7.56,13.14,0,7.75-3.22,12.77-11.22,12.77-11.16,0-11.47-9.18-11.47-14.69Z"></path><path class="cls-7" d="m864.49,1114.75v-2.6h4.34v2.54c0,4.65,0,10.85,7.13,10.85,4.59,0,6.88-2.42,6.88-8.43,0-6.82-2.54-8.87-5.21-10.04l-4.59-2.05c-4.9-2.17-7.75-6.45-7.75-13.39,0-5.95,2.29-12.15,10.91-12.15,10.35,0,10.6,9.55,10.6,15v2.6h-4.34v-2.23c0-8.25-.87-11.47-6.32-11.47-4.9,0-6.39,3.1-6.39,8.74,0,6.2,2.85,8.06,5.58,9.36l4.28,2.05c3.29,1.55,7.56,4.22,7.56,13.14,0,7.75-3.22,12.77-11.22,12.77-11.16,0-11.47-9.18-11.47-14.69Z"></path><path class="cls-7" d="m891.83,1104.46c0-17.3,3.35-24.98,12.52-24.98s12.15,8.18,12.15,24.98c0,18.41-3.41,24.98-12.34,24.98s-12.34-6.51-12.34-24.98Zm20.15,0c0-14.32-1.49-20.96-7.81-20.96s-7.81,6.63-7.81,20.96,1.49,21.14,7.81,21.14,7.81-6.32,7.81-21.14Z"></path><path class="cls-7" d="m921.47,1104.46c0-17.3,3.35-24.98,12.52-24.98s12.15,8.18,12.15,24.98c0,18.41-3.41,24.98-12.34,24.98s-12.34-6.51-12.34-24.98Zm20.15,0c0-14.32-1.49-20.96-7.81-20.96s-7.81,6.63-7.81,20.96,1.49,21.14,7.81,21.14,7.81-6.32,7.81-21.14Z"></path><path class="cls-7" d="m952.34,1080.28h5.58l14.01,39.86h.12v-39.86h4.09v48.36h-5.08l-14.51-41.04h-.12v41.04h-4.09v-48.36Z"></path><path class="cls-7" d="m992.27,1119.03v-5.21h4.22v4.59c0,5.08.62,7.13,4.53,7.13s4.71-2.91,4.71-8.18v-33.23h-11.41v-3.84h15.75v37.14c0,9.24-3.6,12.03-9.11,12.03-6.51,0-8.68-3.04-8.68-10.42Z"></path><path class="cls-7" d="m1015.96,1104.46c0-17.3,3.35-24.98,12.52-24.98s12.15,8.18,12.15,24.98c0,18.41-3.41,24.98-12.34,24.98s-12.34-6.51-12.34-24.98Zm20.15,0c0-14.32-1.49-20.96-7.81-20.96s-7.81,6.63-7.81,20.96,1.49,21.14,7.81,21.14,7.81-6.32,7.81-21.14Z"></path><path class="cls-7" d="m1046.83,1080.28h4.34v48.36h-4.34v-48.36Z"></path><path class="cls-7" d="m1058.61,1080.28h5.58l14.01,39.86h.12v-39.86h4.09v48.36h-5.08l-14.51-41.04h-.12v41.04h-4.09v-48.36Z"></path><path class="cls-7" d="m1089.86,1080.28h16.68v3.91h-12.34v18.17h9.49v4.03h-9.49v18.35h12.34v3.91h-16.68v-48.36Z"></path><path class="cls-7" d="m1111.81,1080.28h7.32c10.35,0,15.5,6.26,15.5,24.18s-5.15,24.18-15.5,24.18h-7.32v-48.36Zm7.25,44.51c7.81,0,11.04-5.02,11.04-20.33s-3.1-20.33-10.91-20.33h-3.04v40.67h2.91Z"></path><rect class="cls-4" x="757.12" y="111.6" width="405.76" height="118.22"></rect><path class="cls-7" d="m784.66,180.17v-2.6h4.34v2.54c0,4.65,0,10.85,7.13,10.85,4.59,0,6.88-2.42,6.88-8.43,0-6.82-2.54-8.87-5.21-10.04l-4.59-2.05c-4.9-2.17-7.75-6.45-7.75-13.39,0-5.95,2.29-12.15,10.91-12.15,10.35,0,10.6,9.55,10.6,15v2.6h-4.34v-2.23c0-8.25-.87-11.47-6.32-11.47-4.9,0-6.39,3.1-6.39,8.74,0,6.2,2.85,8.06,5.58,9.36l4.28,2.05c3.29,1.55,7.56,4.22,7.56,13.14,0,7.75-3.22,12.77-11.22,12.77-11.16,0-11.47-9.18-11.47-14.69Z"></path><path class="cls-7" d="m828.37,177.32h-10.54l-3.22,16.74h-4.46l10.29-48.36h5.39l10.29,48.36h-4.4l-3.35-16.74Zm-.68-3.72l-4.65-23.31h-.06l-4.46,23.31h9.18Z"></path><path class="cls-7" d="m838.29,180.17v-2.6h4.34v2.54c0,4.65,0,10.85,7.13,10.85,4.59,0,6.88-2.42,6.88-8.43,0-6.82-2.54-8.87-5.21-10.04l-4.59-2.05c-4.9-2.17-7.75-6.45-7.75-13.39,0-5.95,2.29-12.15,10.91-12.15,10.35,0,10.6,9.55,10.6,15v2.6h-4.34v-2.23c0-8.25-.87-11.47-6.32-11.47-4.9,0-6.38,3.1-6.38,8.74,0,6.2,2.85,8.06,5.58,9.36l4.28,2.05c3.29,1.55,7.56,4.22,7.56,13.14,0,7.75-3.22,12.77-11.22,12.77-11.16,0-11.47-9.18-11.47-14.69Z"></path><path class="cls-7" d="m864.71,180.17v-2.6h4.34v2.54c0,4.65,0,10.85,7.13,10.85,4.59,0,6.88-2.42,6.88-8.43,0-6.82-2.54-8.87-5.21-10.04l-4.59-2.05c-4.9-2.17-7.75-6.45-7.75-13.39,0-5.95,2.29-12.15,10.91-12.15,10.35,0,10.6,9.55,10.6,15v2.6h-4.34v-2.23c0-8.25-.87-11.47-6.32-11.47-4.9,0-6.38,3.1-6.38,8.74,0,6.2,2.85,8.06,5.58,9.36l4.28,2.05c3.29,1.55,7.56,4.22,7.56,13.14,0,7.75-3.22,12.77-11.22,12.77-11.16,0-11.47-9.18-11.47-14.69Z"></path><path class="cls-7" d="m892.05,169.88c0-17.3,3.35-24.98,12.52-24.98s12.15,8.18,12.15,24.98c0,18.41-3.41,24.98-12.34,24.98s-12.34-6.51-12.34-24.98Zm20.15,0c0-14.32-1.49-20.95-7.81-20.95s-7.81,6.63-7.81,20.95,1.49,21.14,7.81,21.14,7.81-6.32,7.81-21.14Z"></path><path class="cls-7" d="m921.68,169.88c0-17.3,3.35-24.98,12.52-24.98s12.15,8.18,12.15,24.98c0,18.41-3.41,24.98-12.34,24.98s-12.34-6.51-12.34-24.98Zm20.15,0c0-14.32-1.49-20.95-7.81-20.95s-7.81,6.63-7.81,20.95,1.49,21.14,7.81,21.14,7.81-6.32,7.81-21.14Z"></path><path class="cls-7" d="m952.56,145.7h5.58l14.01,39.86h.12v-39.86h4.09v48.36h-5.08l-14.51-41.04h-.12v41.04h-4.09v-48.36Z"></path><path class="cls-7" d="m994.35,145.7h4.34v48.36h-4.34v-48.36Z"></path><path class="cls-7" d="m1006.13,145.7h5.58l14.01,39.86h.12v-39.86h4.09v48.36h-5.08l-14.51-41.04h-.12v41.04h-4.09v-48.36Z"></path><path class="cls-7" d="m1037.38,145.7h17.3v3.84h-12.96v19.03h10.11v4.03h-10.11v21.45h-4.34v-48.36Z"></path><path class="cls-7" d="m1071.35,177.32h-10.54l-3.22,16.74h-4.46l10.29-48.36h5.39l10.29,48.36h-4.4l-3.35-16.74Zm-.68-3.72l-4.65-23.31h-.06l-4.46,23.31h9.18Z"></path><path class="cls-7" d="m1083.44,145.7h5.58l14.01,39.86h.12v-39.86h4.09v48.36h-5.08l-14.51-41.04h-.12v41.04h-4.09v-48.36Z"></path><path class="cls-7" d="m1121.76,149.55h-10.17v-3.84h24.67v3.84h-10.17v44.51h-4.34v-44.51Z"></path><line class="cls-2" x1="766.28" y1="1606.73" x2="596.28" y2="1799.48"></line><line class="cls-2" x1="1114.49" y1="2788.56" x2="1114.49" y2="2861.92"></line><line class="cls-2" x1="400.8" y1="647.41" x2="400.8" y2="819.4"></line><path class="cls-8" d="m972.11,854.54h8.61c7.94,0,11.64,2.73,11.64,9.62,0,6.43-2.77,10.12-11.13,10.12h-6.13v13.02h-2.98v-32.77Zm9.28,17.22c6.09,0,7.94-2.69,7.94-7.65,0-5.21-2.6-6.97-8.44-6.97h-5.8v14.62h6.3Z"></path><path class="cls-8" d="m996.97,866.3h2.6l.29,3.91c1.01-2.14,3.07-4.45,6.76-4.45,1.26,0,2.19.21,3.03.55v3.15c-1.13-.5-2.1-.76-3.4-.76-3.74,0-6.34,2.81-6.34,5.75v12.85h-2.94v-21Z"></path><path class="cls-8" d="m1030.91,877.81h-15.96c.17,4.79,2.48,7.48,6.93,7.48,3.82,0,5.67-1.43,5.96-4.83h2.98c-.29,4.24-3.28,7.39-9.03,7.39-7.06,0-9.83-4.66-9.83-10.88s3.23-11.22,10-11.22,8.95,3.99,8.95,10.21v1.85Zm-3.11-2.98c0-4.45-1.72-6.55-5.92-6.55s-6.55,2.65-6.89,6.97h12.81v-.42Z"></path><path class="cls-8" d="m1035.11,873.82h10.59v2.81h-10.59v-2.81Z"></path><path class="cls-8" d="m1049.89,876.97c0-6.38,3.23-11.22,10-11.22s8.95,3.91,8.95,8.95v.42h-3.11v-.63c0-3.82-1.64-6.09-5.84-6.09-4.75,0-7.01,3.11-7.01,8.4,0,5.63,2.39,8.49,6.93,8.49,3.82,0,5.84-1.85,5.92-5.67h3.02c-.08,4.66-3.15,8.23-9.03,8.23-7.22,0-9.83-4.75-9.83-10.88Z"></path><path class="cls-8" d="m1074.29,879.91v-13.61h2.94v13.27c0,4.33,2.14,5.71,5.42,5.71,3.74,0,6.55-2.69,6.55-5.63v-13.36h2.94v21h-2.6l-.25-3.36h-.08c-.97,2.02-3.24,3.91-7.23,3.91-4.66,0-7.69-2.52-7.69-7.94Z"></path><path class="cls-8" d="m1099.49,866.3h2.6l.29,3.91c1.01-2.14,3.07-4.45,6.76-4.45,1.26,0,2.18.21,3.02.55v3.15c-1.13-.5-2.1-.76-3.4-.76-3.74,0-6.34,2.81-6.34,5.75v12.85h-2.94v-21Z"></path><path class="cls-8" d="m1114.7,880.87v-1.18h2.94v1.13c0,2.86,2.14,4.5,5.96,4.5s5.8-1.01,5.8-3.78c0-2.06-1.01-2.81-3.86-3.32l-4.62-.84c-3.02-.55-5.54-2.02-5.54-5.5,0-3.15,2.35-6.13,8.4-6.13s8.4,3.02,8.4,7.23v.88h-2.98v-.76c0-3.44-2.14-4.91-5.42-4.91-3.95,0-5.33,1.34-5.33,3.36s1.01,2.86,3.91,3.4l4.03.76c4.12.76,6.09,1.93,6.09,5.59,0,4.58-4.12,6.55-8.78,6.55-7.31,0-8.99-3.28-8.99-6.97Z"></path><path class="cls-8" d="m1138.34,854.54h2.98v6.51h-2.98v-6.51Zm0,11.76h2.94v21h-2.94v-21Z"></path><path class="cls-8" d="m1145.53,866.34v-.04h3.36l7.35,17.98h.08l7.1-17.98h3.07v.04l-8.74,20.96h-3.03l-9.2-20.96Z"></path><path class="cls-8" d="m1187.32,877.81h-15.96c.17,4.79,2.48,7.48,6.93,7.48,3.82,0,5.67-1.43,5.96-4.83h2.98c-.29,4.24-3.28,7.39-9.03,7.39-7.06,0-9.83-4.66-9.83-10.88s3.23-11.22,10-11.22,8.95,3.99,8.95,10.21v1.85Zm-3.11-2.98c0-4.45-1.72-6.55-5.92-6.55s-6.55,2.65-6.89,6.97h12.81v-.42Z"></path><path class="cls-8" d="m1200.96,880.87v-1.18h2.94v1.13c0,2.86,2.14,4.5,5.96,4.5s5.8-1.01,5.8-3.78c0-2.06-1.01-2.81-3.87-3.32l-4.62-.84c-3.02-.55-5.54-2.02-5.54-5.5,0-3.15,2.35-6.13,8.4-6.13s8.4,3.02,8.4,7.23v.88h-2.98v-.76c0-3.44-2.14-4.91-5.42-4.91-3.95,0-5.34,1.34-5.34,3.36s1.01,2.86,3.91,3.4l4.03.76c4.12.76,6.09,1.93,6.09,5.59,0,4.58-4.12,6.55-8.78,6.55-7.31,0-8.99-3.28-8.99-6.97Z"></path><path class="cls-8" d="m1235.58,884.61v2.6c-.76.21-2.14.59-4.03.59-3.82,0-6.34-1.6-6.34-6.89v-12.18h-4.16v-2.44h4.16v-6.05l2.94-1.43v7.48h5.92v2.44h-5.92v11.8c0,2.81.76,4.58,3.4,4.58,1.6,0,3.23-.29,4.03-.5Z"></path><path class="cls-8" d="m1240.61,866.3l6.89,17.98h.08l7.14-17.98h3.07v.04l-8.86,20.84-3.11,8.53h-2.98v-.04l3.19-8.36-8.78-20.96v-.04h3.36Z"></path><path class="cls-8" d="m1261.99,854.54h2.94v32.77h-2.94v-32.77Z"></path><path class="cls-8" d="m1289.55,877.81h-15.96c.17,4.79,2.48,7.48,6.93,7.48,3.82,0,5.67-1.43,5.96-4.83h2.98c-.29,4.24-3.28,7.39-9.03,7.39-7.06,0-9.83-4.66-9.83-10.88s3.23-11.22,10-11.22,8.95,3.99,8.95,10.21v1.85Zm-3.11-2.98c0-4.45-1.72-6.55-5.92-6.55s-6.55,2.65-6.89,6.97h12.81v-.42Z"></path><path class="cls-8" d="m808.57,2727.3h2.94v30.12h15.71v2.65h-18.65v-32.77Z"></path><path class="cls-8" d="m830.37,2749.56c0-6.22,3.32-11.05,10.38-11.05,6.6,0,10.25,4.83,10.25,11.05s-3.7,11.05-10.29,11.05c-7.27,0-10.33-4.83-10.33-11.05Zm17.56,0c0-5.33-2.9-8.49-7.23-8.49-4.75,0-7.27,3.15-7.27,8.49s2.56,8.49,7.27,8.49c4.33,0,7.23-3.15,7.23-8.49Z"></path><path class="cls-8" d="m855.19,2749.56c0-6.22,3.32-11.05,10.38-11.05,6.6,0,10.25,4.83,10.25,11.05s-3.7,11.05-10.29,11.05c-7.27,0-10.33-4.83-10.33-11.05Zm17.56,0c0-5.33-2.9-8.49-7.23-8.49-4.75,0-7.27,3.15-7.27,8.49s2.56,8.49,7.27,8.49c4.33,0,7.23-3.15,7.23-8.49Z"></path><path class="cls-8" d="m881.69,2739.06h2.39l.34,3.87h.08c1.13-2.48,4.03-4.41,7.86-4.41,6.3,0,9.66,3.99,9.66,11.01s-4.28,11.09-9.87,11.09c-3.78,0-6.38-1.6-7.44-3.7h-.08v11.55h-2.94v-29.41Zm17.18,10.63c0-7.18-3.4-8.61-6.93-8.61-4.24,0-7.56,2.73-7.56,8.44,0,6.01,3.45,8.57,7.44,8.57,3.03,0,7.06-1.47,7.06-8.4Z"></path><path class="cls-8" d="m907.27,2727.3h2.94v32.77h-2.94v-32.77Z"></path><path class="cls-8" d="m934.83,2750.57h-15.96c.17,4.79,2.48,7.48,6.93,7.48,3.82,0,5.67-1.43,5.96-4.83h2.98c-.29,4.24-3.28,7.39-9.03,7.39-7.06,0-9.83-4.66-9.83-10.88s3.23-11.22,10-11.22,8.95,3.99,8.95,10.21v1.85Zm-3.11-2.98c0-4.45-1.72-6.55-5.92-6.55s-6.55,2.65-6.89,6.97h12.81v-.42Z"></path><path class="cls-8" d="m938.81,2753.64v-1.18h2.94v1.13c0,2.86,2.14,4.5,5.96,4.5s5.8-1.01,5.8-3.78c0-2.06-1.01-2.81-3.87-3.32l-4.62-.84c-3.02-.55-5.54-2.02-5.54-5.5,0-3.15,2.35-6.13,8.4-6.13s8.4,3.02,8.4,7.23v.88h-2.98v-.76c0-3.44-2.14-4.92-5.42-4.92-3.95,0-5.34,1.34-5.34,3.36s1.01,2.86,3.91,3.4l4.03.76c4.12.76,6.09,1.93,6.09,5.59,0,4.58-4.12,6.55-8.78,6.55-7.31,0-8.99-3.28-8.99-6.97Z"></path><path class="cls-8" d="m960.57,2753.64v-1.18h2.94v1.13c0,2.86,2.14,4.5,5.96,4.5s5.8-1.01,5.8-3.78c0-2.06-1.01-2.81-3.87-3.32l-4.62-.84c-3.02-.55-5.54-2.02-5.54-5.5,0-3.15,2.35-6.13,8.4-6.13s8.4,3.02,8.4,7.23v.88h-2.98v-.76c0-3.44-2.14-4.92-5.42-4.92-3.95,0-5.34,1.34-5.34,3.36s1.01,2.86,3.91,3.4l4.03.76c4.12.76,6.09,1.93,6.09,5.59,0,4.58-4.12,6.55-8.78,6.55-7.31,0-8.99-3.28-8.99-6.97Z"></path><path class="cls-8" d="m992.62,2754.27c0-3.95,2.23-6.09,7.86-6.09h6.34v-1.72c0-2.98-1.26-5.42-5.46-5.42-3.95,0-5.33,1.51-5.33,4.12v.88h-2.98v-.84c0-5,4.2-6.68,8.32-6.68,5.8,0,8.4,2.86,8.4,8.44v13.11h-2.06l-.55-2.98h-.08c-1.26,1.89-3.7,3.53-7.35,3.53-4.92,0-7.1-2.31-7.1-6.34Zm14.2-1.85v-1.76h-7.01c-2.65,0-4.03.92-4.03,3.61,0,2.35,1.26,3.87,4.49,3.87,4.16,0,6.55-2.14,6.55-5.71Z"></path><path class="cls-8" d="m1015.21,2753.64v-1.18h2.94v1.13c0,2.86,2.14,4.5,5.96,4.5s5.8-1.01,5.8-3.78c0-2.06-1.01-2.81-3.86-3.32l-4.62-.84c-3.02-.55-5.54-2.02-5.54-5.5,0-3.15,2.35-6.13,8.4-6.13s8.4,3.02,8.4,7.23v.88h-2.98v-.76c0-3.44-2.14-4.92-5.42-4.92-3.95,0-5.33,1.34-5.33,3.36s1.01,2.86,3.91,3.4l4.03.76c4.12.76,6.09,1.93,6.09,5.59,0,4.58-4.12,6.55-8.78,6.55-7.31,0-8.99-3.28-8.99-6.97Z"></path><path class="cls-8" d="m1037.18,2749.73c0-6.38,3.23-11.22,10-11.22s8.95,3.91,8.95,8.95v.42h-3.11v-.63c0-3.82-1.64-6.09-5.84-6.09-4.75,0-7.01,3.11-7.01,8.4,0,5.63,2.39,8.49,6.93,8.49,3.82,0,5.84-1.85,5.92-5.67h3.02c-.08,4.66-3.15,8.23-9.03,8.23-7.22,0-9.83-4.75-9.83-10.88Z"></path><path class="cls-8" d="m1079.26,2750.57h-15.96c.17,4.79,2.48,7.48,6.93,7.48,3.82,0,5.67-1.43,5.96-4.83h2.98c-.29,4.24-3.28,7.39-9.03,7.39-7.06,0-9.83-4.66-9.83-10.88s3.23-11.22,10-11.22,8.95,3.99,8.95,10.21v1.85Zm-3.11-2.98c0-4.45-1.72-6.55-5.92-6.55s-6.55,2.65-6.89,6.97h12.81v-.42Z"></path><path class="cls-8" d="m1085.14,2739.06h2.61l.29,3.49c1.01-2.14,3.28-4.03,7.35-4.03,4.75,0,7.77,2.52,7.77,7.94v13.61h-2.94v-13.27c0-4.33-2.14-5.71-5.5-5.71-3.82,0-6.64,2.69-6.64,5.63v13.36h-2.94v-21Z"></path><path class="cls-8" d="m1108.83,2749.6c0-7.1,4.29-11.09,10.04-11.09,3.7,0,6.22,1.6,7.31,3.74h.04v-14.96h2.94v32.77h-1.97l-.67-3.61h-.08c-1.18,2.31-3.95,4.16-7.77,4.16-6.3,0-9.83-3.99-9.83-11.01Zm17.64-.5c0-5.5-3.36-8.07-7.35-8.07-3.11,0-7.14,1.47-7.14,8.4s3.61,8.61,7.14,8.61c4.24,0,7.35-2.73,7.35-8.95Z"></path><path class="cls-8" d="m1153.77,2750.57h-15.96c.17,4.79,2.48,7.48,6.93,7.48,3.82,0,5.67-1.43,5.96-4.83h2.98c-.29,4.24-3.28,7.39-9.03,7.39-7.06,0-9.83-4.66-9.83-10.88s3.23-11.22,10-11.22,8.95,3.99,8.95,10.21v1.85Zm-3.11-2.98c0-4.45-1.72-6.55-5.92-6.55s-6.55,2.65-6.89,6.97h12.81v-.42Z"></path><path class="cls-8" d="m1159.65,2739.06h2.61l.29,3.91c1.01-2.14,3.07-4.45,6.76-4.45,1.26,0,2.18.21,3.02.55v3.15c-1.13-.5-2.1-.76-3.4-.76-3.74,0-6.34,2.81-6.34,5.75v12.85h-2.94v-21Z"></path><path class="cls-8" d="m1174.85,2753.64v-1.18h2.94v1.13c0,2.86,2.14,4.5,5.96,4.5s5.8-1.01,5.8-3.78c0-2.06-1.01-2.81-3.86-3.32l-4.62-.84c-3.03-.55-5.54-2.02-5.54-5.5,0-3.15,2.35-6.13,8.4-6.13s8.4,3.02,8.4,7.23v.88h-2.98v-.76c0-3.44-2.14-4.92-5.42-4.92-3.95,0-5.33,1.34-5.33,3.36s1.01,2.86,3.91,3.4l4.03.76c4.12.76,6.09,1.93,6.09,5.59,0,4.58-4.12,6.55-8.78,6.55-7.31,0-8.99-3.28-8.99-6.97Z"></path><path class="cls-8" d="m187.45,1845.8c0-12.01,6.76-17.26,14.74-17.26,6.97,0,12.39,3.74,12.39,12.01v.8h-2.86v-.92c0-5.92-3.78-9.24-9.45-9.24-6.72,0-11.76,4.58-11.76,14.32s5.04,14.24,11.72,14.24c5.38,0,9.54-2.86,9.54-9.2v-.59h2.77v.42c0,8.02-5.33,12.01-12.56,12.01-7.98,0-14.54-4.87-14.54-16.59Z"></path><path class="cls-8" d="m220.88,1829.08h2.94v32.77h-2.94v-32.77Z"></path><path class="cls-8" d="m229.49,1851.35c0-6.22,3.32-11.05,10.38-11.05,6.59,0,10.25,4.83,10.25,11.05s-3.7,11.05-10.29,11.05c-7.27,0-10.33-4.83-10.33-11.05Zm17.56,0c0-5.33-2.9-8.49-7.23-8.49-4.75,0-7.27,3.15-7.27,8.49s2.56,8.49,7.27,8.49c4.33,0,7.23-3.15,7.23-8.49Z"></path><path class="cls-8" d="m254.1,1855.42v-1.18h2.94v1.13c0,2.86,2.14,4.5,5.96,4.5s5.8-1.01,5.8-3.78c0-2.06-1.01-2.81-3.86-3.32l-4.62-.84c-3.02-.55-5.54-2.02-5.54-5.5,0-3.15,2.35-6.13,8.4-6.13s8.4,3.02,8.4,7.23v.88h-2.98v-.76c0-3.44-2.14-4.92-5.42-4.92-3.95,0-5.33,1.34-5.33,3.36s1.01,2.86,3.91,3.4l4.03.76c4.12.76,6.09,1.93,6.09,5.59,0,4.58-4.12,6.55-8.78,6.55-7.31,0-8.99-3.28-8.99-6.97Z"></path><path class="cls-8" d="m295.01,1852.36h-15.96c.17,4.79,2.48,7.48,6.93,7.48,3.82,0,5.67-1.43,5.96-4.83h2.98c-.29,4.24-3.28,7.39-9.03,7.39-7.06,0-9.83-4.66-9.83-10.88s3.23-11.22,10-11.22,8.95,3.99,8.95,10.21v1.85Zm-3.11-2.98c0-4.45-1.72-6.55-5.92-6.55s-6.55,2.65-6.89,6.97h12.81v-.42Z"></path><path class="cls-8" d="m299.21,1851.39c0-7.1,4.29-11.09,10.04-11.09,3.7,0,6.22,1.6,7.31,3.74h.04v-14.96h2.94v32.77h-1.97l-.67-3.61h-.08c-1.18,2.31-3.95,4.16-7.77,4.16-6.3,0-9.83-3.99-9.83-11.01Zm17.64-.5c0-5.5-3.36-8.07-7.35-8.07-3.11,0-7.14,1.47-7.14,8.4s3.61,8.61,7.14,8.61c4.24,0,7.35-2.73,7.35-8.95Z"></path><path class="cls-8" d="m339.36,1858.36h-.08l-.76,3.49h-1.97v-32.77h2.94v15.25h.04c1.26-2.31,4.08-4.03,7.69-4.03,6.3,0,9.66,3.99,9.66,11.01s-4.29,11.09-9.87,11.09c-3.78,0-6.55-1.64-7.65-4.03Zm14.37-6.89c0-7.18-3.4-8.61-6.93-8.61-4.24,0-7.56,2.73-7.56,8.44,0,6.01,3.44,8.57,7.43,8.57,3.02,0,7.06-1.47,7.06-8.4Z"></path><path class="cls-8" d="m361.08,1851.35c0-6.22,3.32-11.05,10.38-11.05,6.59,0,10.25,4.83,10.25,11.05s-3.7,11.05-10.29,11.05c-7.27,0-10.33-4.83-10.33-11.05Zm17.56,0c0-5.33-2.9-8.49-7.23-8.49-4.75,0-7.27,3.15-7.27,8.49s2.56,8.49,7.27,8.49c4.33,0,7.23-3.15,7.23-8.49Z"></path><path class="cls-8" d="m384.01,1840.89v-.04h2.98l5.75,17.48h.08l6.3-17.48h2.69l6.17,17.48h.08l5.75-17.48h2.86v.04l-7.18,20.96h-3.03l-5.96-17.05h-.08l-6.22,17.05h-3.03l-7.18-20.96Z"></path><path class="cls-8" d="m421.51,1829.08h2.94v32.77h-2.94v-32.77Z"></path><path class="cls-8" d="m429.91,1855.42v-1.18h2.94v1.13c0,2.86,2.14,4.5,5.96,4.5s5.8-1.01,5.8-3.78c0-2.06-1.01-2.81-3.86-3.32l-4.62-.84c-3.03-.55-5.54-2.02-5.54-5.5,0-3.15,2.35-6.13,8.4-6.13s8.4,3.02,8.4,7.23v.88h-2.98v-.76c0-3.44-2.14-4.92-5.42-4.92-3.95,0-5.33,1.34-5.33,3.36s1.01,2.86,3.91,3.4l4.03.76c4.12.76,6.09,1.93,6.09,5.59,0,4.58-4.12,6.55-8.78,6.55-7.31,0-8.99-3.28-8.99-6.97Z"></path><path class="cls-8" d="m463.22,1829.08h2.98v6.51h-2.98v-6.51Zm0,11.76h2.94v21h-2.94v-21Z"></path><path class="cls-8" d="m473.55,1840.84h2.61l.29,3.49c1.01-2.14,3.28-4.03,7.35-4.03,4.75,0,7.77,2.52,7.77,7.94v13.61h-2.94v-13.27c0-4.33-2.14-5.71-5.5-5.71-3.82,0-6.64,2.69-6.64,5.63v13.36h-2.94v-21Z"></path><path class="cls-8" d="m510.26,1839.54h-3.36v-5.08c0-3.95.88-5.29,3.4-5.96l.67,1.85c-1.77.67-2.06,1.09-2.06,3.78v.34h1.34v5.08Zm5.92,0h-3.36v-5.08c0-3.95.88-5.29,3.4-5.96l.67,1.85c-1.76.67-2.06,1.09-2.06,3.78v.34h1.34v5.08Z"></path><path class="cls-8" d="m525.38,1858.36h-.08l-.76,3.49h-1.97v-32.77h2.94v15.25h.04c1.26-2.31,4.08-4.03,7.69-4.03,6.3,0,9.66,3.99,9.66,11.01s-4.28,11.09-9.87,11.09c-3.78,0-6.55-1.64-7.65-4.03Zm14.37-6.89c0-7.18-3.4-8.61-6.93-8.61-4.24,0-7.56,2.73-7.56,8.44,0,6.01,3.44,8.57,7.44,8.57,3.02,0,7.06-1.47,7.06-8.4Z"></path><path class="cls-8" d="m544.15,1838.28c1.77-.67,2.06-1.09,2.06-3.78v-.34h-1.34v-5.08h3.36v5.08c0,3.95-.88,5.29-3.4,5.96l-.67-1.85Zm5.92,0c1.76-.67,2.06-1.09,2.06-3.78v-.34h-1.34v-5.08h3.36v5.08c0,3.95-.88,5.29-3.4,5.96l-.67-1.85Z"></path><path class="cls-8" d="m568.43,1856.05c0-3.95,2.23-6.09,7.86-6.09h6.34v-1.72c0-2.98-1.26-5.42-5.46-5.42-3.95,0-5.33,1.51-5.33,4.12v.88h-2.98v-.84c0-5,4.2-6.68,8.32-6.68,5.8,0,8.4,2.86,8.4,8.44v13.11h-2.06l-.55-2.98h-.08c-1.26,1.89-3.7,3.53-7.35,3.53-4.92,0-7.1-2.31-7.1-6.34Zm14.2-1.85v-1.76h-7.01c-2.65,0-4.03.92-4.03,3.61,0,2.35,1.26,3.87,4.49,3.87,4.16,0,6.55-2.14,6.55-5.71Z"></path><path class="cls-8" d="m592.92,1840.84h2.6l.29,3.49c1.01-2.14,3.28-4.03,7.35-4.03,4.75,0,7.77,2.52,7.77,7.94v13.61h-2.94v-13.27c0-4.33-2.14-5.71-5.5-5.71-3.82,0-6.64,2.69-6.64,5.63v13.36h-2.94v-21Z"></path><path class="cls-8" d="m616.6,1851.39c0-7.1,4.29-11.09,10.04-11.09,3.7,0,6.22,1.6,7.31,3.74h.04v-14.96h2.94v32.77h-1.97l-.67-3.61h-.08c-1.18,2.31-3.95,4.16-7.77,4.16-6.3,0-9.83-3.99-9.83-11.01Zm17.64-.5c0-5.5-3.36-8.07-7.35-8.07-3.11,0-7.14,1.47-7.14,8.4s3.61,8.61,7.14,8.61c4.24,0,7.35-2.73,7.35-8.95Z"></path><path class="cls-8" d="m655.62,1839.54h-3.36v-5.08c0-3.95.88-5.29,3.4-5.96l.67,1.85c-1.76.67-2.06,1.09-2.06,3.78v.34h1.34v5.08Zm5.92,0h-3.36v-5.08c0-3.95.88-5.29,3.4-5.96l.67,1.85c-1.76.67-2.06,1.09-2.06,3.78v.34h1.34v5.08Z"></path><path class="cls-8" d="m667.93,1840.84h2.39l.34,3.87h.08c1.13-2.48,4.03-4.41,7.86-4.41,6.3,0,9.66,3.99,9.66,11.01s-4.29,11.09-9.87,11.09c-3.78,0-6.39-1.6-7.44-3.7h-.08v11.55h-2.94v-29.41Zm17.18,10.63c0-7.18-3.4-8.61-6.93-8.61-4.24,0-7.56,2.73-7.56,8.44,0,6.01,3.44,8.57,7.43,8.57,3.03,0,7.06-1.47,7.06-8.4Z"></path><path class="cls-8" d="m689.52,1838.28c1.76-.67,2.06-1.09,2.06-3.78v-.34h-1.34v-5.08h3.36v5.08c0,3.95-.88,5.29-3.4,5.96l-.67-1.85Zm5.92,0c1.76-.67,2.06-1.09,2.06-3.78v-.34h-1.34v-5.08h3.36v5.08c0,3.95-.88,5.29-3.4,5.96l-.67-1.85Z"></path><path class="cls-8" d="m1306.17,2739.54h-3.36v-5.08c0-3.95.88-5.29,3.4-5.96l.67,1.85c-1.76.67-2.06,1.09-2.06,3.78v.34h1.34v5.08Zm5.92,0h-3.36v-5.08c0-3.95.88-5.29,3.4-5.96l.67,1.85c-1.76.67-2.06,1.09-2.06,3.78v.34h1.34v5.08Z"></path><path class="cls-8" d="m1322.21,2735.8v5.04h5.92v2.44h-5.92v18.57h-2.94v-18.57h-4.16v-2.44h4.16v-5.42c0-5.29,3.15-6.89,6.38-6.89,1.85,0,2.98.29,3.74.55v2.6c-.71-.21-1.89-.46-3.49-.46-2.65,0-3.7,1.76-3.7,4.58Z"></path><path class="cls-8" d="m1332.75,2738.28c1.77-.67,2.06-1.09,2.06-3.78v-.34h-1.34v-5.08h3.36v5.08c0,3.95-.88,5.29-3.4,5.97l-.67-1.85Zm5.92,0c1.76-.67,2.06-1.09,2.06-3.78v-.34h-1.34v-5.08h3.36v5.08c0,3.95-.88,5.29-3.4,5.97l-.67-1.85Z"></path><path class="cls-8" d="m1356.61,2751.51c0-6.38,3.23-11.22,10-11.22s8.95,3.91,8.95,8.95v.42h-3.11v-.63c0-3.82-1.64-6.09-5.84-6.09-4.75,0-7.01,3.11-7.01,8.4,0,5.63,2.39,8.49,6.93,8.49,3.82,0,5.84-1.85,5.92-5.67h3.03c-.08,4.66-3.15,8.23-9.03,8.23-7.23,0-9.83-4.75-9.83-10.88Z"></path><path class="cls-8" d="m1379.75,2751.35c0-6.22,3.32-11.05,10.38-11.05,6.59,0,10.25,4.83,10.25,11.05s-3.7,11.05-10.29,11.05c-7.27,0-10.33-4.83-10.33-11.05Zm17.56,0c0-5.33-2.9-8.49-7.23-8.49-4.75,0-7.27,3.15-7.27,8.49s2.56,8.49,7.27,8.49c4.33,0,7.23-3.15,7.23-8.49Z"></path><path class="cls-8" d="m1406.26,2740.84h2.6l.29,3.49c1.01-2.14,3.28-4.03,7.35-4.03,4.75,0,7.77,2.52,7.77,7.94v13.61h-2.94v-13.27c0-4.33-2.14-5.71-5.5-5.71-3.82,0-6.64,2.69-6.64,5.63v13.36h-2.94v-21Z"></path><path class="cls-8" d="m1431.62,2740.84h2.6l.29,3.49c1.01-2.14,3.28-4.03,7.35-4.03,4.75,0,7.77,2.52,7.77,7.94v13.61h-2.94v-13.27c0-4.33-2.14-5.71-5.5-5.71-3.82,0-6.64,2.69-6.64,5.63v13.36h-2.94v-21Z"></path><path class="cls-8" d="m1474.26,2752.35h-15.96c.17,4.79,2.48,7.48,6.93,7.48,3.82,0,5.67-1.43,5.96-4.83h2.98c-.29,4.24-3.28,7.39-9.03,7.39-7.06,0-9.83-4.66-9.83-10.88s3.23-11.22,10-11.22,8.95,3.99,8.95,10.21v1.85Zm-3.11-2.98c0-4.45-1.72-6.55-5.92-6.55s-6.55,2.65-6.89,6.97h12.81v-.42Z"></path><path class="cls-8" d="m1478.45,2751.51c0-6.38,3.23-11.22,10-11.22s8.95,3.91,8.95,8.95v.42h-3.11v-.63c0-3.82-1.64-6.09-5.84-6.09-4.75,0-7.02,3.11-7.02,8.4,0,5.63,2.39,8.49,6.93,8.49,3.82,0,5.84-1.85,5.92-5.67h3.03c-.08,4.66-3.15,8.23-9.03,8.23-7.23,0-9.83-4.75-9.83-10.88Z"></path><path class="cls-8" d="m1514.24,2759.16v2.6c-.76.21-2.14.59-4.03.59-3.82,0-6.34-1.6-6.34-6.89v-12.18h-4.16v-2.44h4.16v-6.05l2.94-1.43v7.48h5.92v2.44h-5.92v11.8c0,2.81.76,4.58,3.4,4.58,1.6,0,3.23-.29,4.03-.5Z"></path><path class="cls-8" d="m1517.18,2755.42v-1.18h2.94v1.13c0,2.86,2.14,4.49,5.96,4.49s5.8-1.01,5.8-3.78c0-2.06-1.01-2.81-3.86-3.32l-4.62-.84c-3.03-.55-5.54-2.02-5.54-5.5,0-3.15,2.35-6.13,8.4-6.13s8.4,3.02,8.4,7.23v.88h-2.98v-.76c0-3.44-2.14-4.91-5.42-4.91-3.95,0-5.33,1.34-5.33,3.36s1.01,2.86,3.91,3.4l4.03.76c4.12.76,6.09,1.93,6.09,5.59,0,4.58-4.12,6.55-8.78,6.55-7.31,0-8.99-3.28-8.99-6.97Z"></path><path class="cls-8" d="m1547.75,2740.89v-.04h2.98l5.75,17.47h.08l6.3-17.47h2.69l6.17,17.47h.08l5.75-17.47h2.86v.04l-7.18,20.96h-3.03l-5.96-17.05h-.08l-6.22,17.05h-3.03l-7.18-20.96Z"></path><path class="cls-8" d="m1585.26,2729.08h2.98v6.51h-2.98v-6.51Zm0,11.76h2.94v21h-2.94v-21Z"></path><path class="cls-8" d="m1606.55,2759.16v2.6c-.76.21-2.14.59-4.03.59-3.82,0-6.34-1.6-6.34-6.89v-12.18h-4.16v-2.44h4.16v-6.05l2.94-1.43v7.48h5.92v2.44h-5.92v11.8c0,2.81.76,4.58,3.4,4.58,1.6,0,3.23-.29,4.03-.5Z"></path><path class="cls-8" d="m1611.38,2729.08h2.94v15.16c1.05-2.1,3.28-3.95,7.31-3.95,4.75,0,7.77,2.52,7.77,7.94v13.61h-2.94v-13.27c0-4.33-2.14-5.71-5.5-5.71-3.82,0-6.64,2.69-6.64,5.63v13.36h-2.94v-32.77Z"></path><path class="cls-8" d="m1644.73,2751.51c0-6.38,3.23-11.22,10-11.22s8.95,3.91,8.95,8.95v.42h-3.11v-.63c0-3.82-1.64-6.09-5.84-6.09-4.75,0-7.02,3.11-7.02,8.4,0,5.63,2.39,8.49,6.93,8.49,3.82,0,5.84-1.85,5.92-5.67h3.02c-.08,4.66-3.15,8.23-9.03,8.23-7.22,0-9.83-4.75-9.83-10.88Z"></path><path class="cls-8" d="m1669.55,2740.84h2.61l.29,3.91c1.01-2.14,3.07-4.45,6.76-4.45,1.26,0,2.18.21,3.02.55v3.15c-1.13-.5-2.1-.76-3.4-.76-3.74,0-6.34,2.81-6.34,5.75v12.85h-2.94v-21Z"></path><path class="cls-8" d="m1684.55,2751.35c0-6.22,3.32-11.05,10.38-11.05,6.6,0,10.25,4.83,10.25,11.05s-3.7,11.05-10.29,11.05c-7.27,0-10.33-4.83-10.33-11.05Zm17.56,0c0-5.33-2.9-8.49-7.22-8.49-4.75,0-7.27,3.15-7.27,8.49s2.56,8.49,7.27,8.49c4.33,0,7.22-3.15,7.22-8.49Z"></path><path class="cls-8" d="m1709.16,2755.42v-1.18h2.94v1.13c0,2.86,2.14,4.49,5.96,4.49s5.8-1.01,5.8-3.78c0-2.06-1.01-2.81-3.87-3.32l-4.62-.84c-3.02-.55-5.54-2.02-5.54-5.5,0-3.15,2.35-6.13,8.4-6.13s8.4,3.02,8.4,7.23v.88h-2.98v-.76c0-3.44-2.14-4.91-5.42-4.91-3.95,0-5.33,1.34-5.33,3.36s1.01,2.86,3.91,3.4l4.03.76c4.12.76,6.09,1.93,6.09,5.59,0,4.58-4.12,6.55-8.78,6.55-7.31,0-8.99-3.28-8.99-6.97Z"></path><path class="cls-8" d="m1730.91,2755.42v-1.18h2.94v1.13c0,2.86,2.14,4.49,5.96,4.49s5.8-1.01,5.8-3.78c0-2.06-1.01-2.81-3.87-3.32l-4.62-.84c-3.02-.55-5.54-2.02-5.54-5.5,0-3.15,2.35-6.13,8.4-6.13s8.4,3.02,8.4,7.23v.88h-2.98v-.76c0-3.44-2.14-4.91-5.42-4.91-3.95,0-5.33,1.34-5.33,3.36s1.01,2.86,3.91,3.4l4.03.76c4.12.76,6.09,1.93,6.09,5.59,0,4.58-4.12,6.55-8.78,6.55-7.31,0-8.99-3.28-8.99-6.97Z"></path><path class="cls-8" d="m1757.38,2758.36h-.08l-.76,3.49h-1.97v-32.77h2.94v15.25h.04c1.26-2.31,4.08-4.03,7.69-4.03,6.3,0,9.66,3.99,9.66,11.01s-4.29,11.09-9.87,11.09c-3.78,0-6.55-1.64-7.65-4.03Zm14.37-6.89c0-7.18-3.4-8.61-6.93-8.61-4.24,0-7.56,2.73-7.56,8.44,0,6.01,3.44,8.57,7.43,8.57,3.02,0,7.06-1.47,7.06-8.4Z"></path><path class="cls-8" d="m1779.3,2756.05c0-3.95,2.23-6.09,7.86-6.09h6.34v-1.72c0-2.98-1.26-5.42-5.46-5.42-3.95,0-5.33,1.51-5.33,4.12v.88h-2.98v-.84c0-5,4.2-6.68,8.32-6.68,5.8,0,8.4,2.86,8.4,8.44v13.11h-2.06l-.54-2.98h-.08c-1.26,1.89-3.7,3.53-7.35,3.53-4.92,0-7.1-2.31-7.1-6.34Zm14.2-1.85v-1.76h-7.01c-2.65,0-4.03.92-4.03,3.61,0,2.35,1.26,3.87,4.5,3.87,4.16,0,6.55-2.14,6.55-5.71Z"></path><path class="cls-8" d="m1803.79,2740.84h2.6l.29,3.91c1.01-2.14,3.07-4.45,6.76-4.45,1.26,0,2.18.21,3.02.55v3.15c-1.13-.5-2.1-.76-3.4-.76-3.74,0-6.34,2.81-6.34,5.75v12.85h-2.94v-21Z"></path><line class="cls-2" x1="1559.01" y1="533.9" x2="1719.01" y2="834.4"></line><line class="cls-2" x1="1180.8" y1="647.41" x2="1180.8" y2="834.4"></line><polygon class="cls-9" points="1407.88 1740.05 1361 1740.05 1412.92 1269.65 1459.8 1269.65 1407.88 1740.05"></polygon><path class="cls-8" d="m1277.03,1795.08v-2.02h3.02v2.18c0,3.74,2.6,6.05,7.94,6.05s8.44-1.97,8.44-6.22c0-3.32-1.39-5.17-4.92-6.09l-6.64-1.72c-4.33-1.13-7.18-2.98-7.18-8.15s3.78-8.91,10.92-8.91,10.59,3.44,10.59,9.07v2.94h-3.02v-2.81c0-4.62-3.07-6.51-7.56-6.51-5.12,0-7.81,2.14-7.81,6.01,0,3.61,1.76,4.71,5.54,5.71l5.75,1.55c5.12,1.39,7.44,3.74,7.44,8.65,0,6.09-4.33,9.24-11.47,9.24-9.12,0-11.05-4.71-11.05-8.99Z"></path><path class="cls-8" d="m1306.73,1770.76h2.94v32.77h-2.94v-32.77Z"></path><path class="cls-8" d="m1317.02,1770.76h2.98v6.51h-2.98v-6.51Zm0,11.76h2.94v21h-2.94v-21Z"></path><path class="cls-8" d="m1326.72,1805.33v-.12h3.11v.12c0,2.9,1.93,4.33,6.13,4.33,4.79,0,7.02-2.94,7.02-7.86v-2.1h-.08c-1.09,2.19-3.65,4.08-7.48,4.08-6.3,0-9.75-3.99-9.75-10.71,0-7.1,4.37-11.09,9.96-11.09,3.78,0,6.55,1.81,7.56,4.12h.13l.29-3.57h2.31v19.16c0,5.88-2.81,10.71-10.33,10.71-6.3,0-8.86-2.98-8.86-7.06Zm16.59-12.77c0-5.5-3.36-8.07-7.35-8.07-3.02,0-7.14,1.47-7.14,8.4s3.57,8.32,7.1,8.32c4.24,0,7.39-2.73,7.39-8.65Z"></path><path class="cls-8" d="m1353.26,1770.76h2.94v15.17c1.05-2.1,3.28-3.95,7.31-3.95,4.75,0,7.77,2.52,7.77,7.94v13.61h-2.94v-13.27c0-4.33-2.14-5.71-5.5-5.71-3.82,0-6.64,2.69-6.64,5.63v13.36h-2.94v-32.77Z"></path><path class="cls-8" d="m1389.6,1800.84v2.6c-.76.21-2.14.59-4.03.59-3.82,0-6.34-1.6-6.34-6.89v-12.18h-4.16v-2.44h4.16v-6.05l2.94-1.43v7.48h5.92v2.44h-5.92v11.8c0,2.81.76,4.58,3.4,4.58,1.6,0,3.23-.29,4.03-.5Z"></path><path class="cls-8" d="m1402.19,1797.1v-1.18h2.94v1.13c0,2.86,2.14,4.5,5.96,4.5s5.8-1.01,5.8-3.78c0-2.06-1.01-2.81-3.86-3.32l-4.62-.84c-3.02-.55-5.54-2.02-5.54-5.5,0-3.15,2.35-6.13,8.4-6.13s8.4,3.02,8.4,7.22v.88h-2.98v-.76c0-3.45-2.14-4.92-5.42-4.92-3.95,0-5.33,1.34-5.33,3.36s1.01,2.86,3.91,3.4l4.03.76c4.12.76,6.09,1.93,6.09,5.59,0,4.58-4.12,6.55-8.78,6.55-7.31,0-8.99-3.28-8.99-6.97Z"></path><path class="cls-8" d="m1425.84,1770.76h2.94v32.77h-2.94v-32.77Z"></path><path class="cls-8" d="m1434.87,1797.73c0-3.95,2.23-6.09,7.86-6.09h6.34v-1.72c0-2.98-1.26-5.42-5.46-5.42-3.95,0-5.33,1.51-5.33,4.12v.88h-2.98v-.84c0-5,4.2-6.68,8.32-6.68,5.8,0,8.4,2.86,8.4,8.44v13.11h-2.06l-.54-2.98h-.08c-1.26,1.89-3.7,3.53-7.35,3.53-4.92,0-7.1-2.31-7.1-6.34Zm14.2-1.85v-1.76h-7.01c-2.65,0-4.03.92-4.03,3.61,0,2.35,1.26,3.86,4.5,3.86,4.16,0,6.55-2.14,6.55-5.71Z"></path><path class="cls-8" d="m1459.36,1782.52h2.6l.29,3.49c1.01-2.14,3.28-4.03,7.35-4.03,4.75,0,7.77,2.52,7.77,7.94v13.61h-2.94v-13.27c0-4.33-2.14-5.71-5.5-5.71-3.82,0-6.64,2.69-6.64,5.63v13.36h-2.94v-21Z"></path><path class="cls-8" d="m1495.69,1800.84v2.6c-.76.21-2.14.59-4.03.59-3.82,0-6.34-1.6-6.34-6.89v-12.18h-4.16v-2.44h4.16v-6.05l2.94-1.43v7.48h5.92v2.44h-5.92v11.8c0,2.81.76,4.58,3.4,4.58,1.6,0,3.23-.29,4.03-.5Z"></path><path class="cls-8" d="m78.97,2667.73c0-12.01,6.76-17.26,14.75-17.26,6.97,0,12.39,3.74,12.39,12.01v.8h-2.86v-.92c0-5.92-3.78-9.24-9.45-9.24-6.72,0-11.76,4.58-11.76,14.32s5.04,14.24,11.72,14.24c5.38,0,9.54-2.86,9.54-9.2v-.59h2.77v.42c0,8.02-5.33,12.01-12.56,12.01-7.98,0-14.54-4.87-14.54-16.59Z"></path><path class="cls-8" d="m111.14,2677.98c0-3.95,2.23-6.09,7.86-6.09h6.34v-1.72c0-2.98-1.26-5.42-5.46-5.42-3.95,0-5.33,1.51-5.33,4.12v.88h-2.98v-.84c0-5,4.2-6.68,8.32-6.68,5.8,0,8.4,2.86,8.4,8.44v13.11h-2.06l-.55-2.98h-.08c-1.26,1.89-3.7,3.53-7.35,3.53-4.92,0-7.1-2.31-7.1-6.34Zm14.2-1.85v-1.76h-7.01c-2.65,0-4.03.92-4.03,3.61,0,2.35,1.26,3.87,4.5,3.87,4.16,0,6.55-2.14,6.55-5.71Z"></path><path class="cls-8" d="m135.63,2662.77h2.39l.34,3.87h.08c1.13-2.48,4.03-4.41,7.86-4.41,6.3,0,9.66,3.99,9.66,11.01s-4.29,11.09-9.87,11.09c-3.78,0-6.38-1.6-7.44-3.7h-.08v11.55h-2.94v-29.41Zm17.18,10.63c0-7.18-3.4-8.61-6.93-8.61-4.24,0-7.56,2.73-7.56,8.44,0,6.01,3.44,8.57,7.44,8.57,3.02,0,7.06-1.47,7.06-8.4Z"></path><path class="cls-8" d="m161.83,2651.01h2.98v6.51h-2.98v-6.51Zm0,11.76h2.94v21h-2.94v-21Z"></path><path class="cls-8" d="m183.13,2681.09v2.6c-.76.21-2.14.59-4.03.59-3.82,0-6.34-1.6-6.34-6.89v-12.18h-4.16v-2.44h4.16v-6.05l2.94-1.43v7.48h5.92v2.44h-5.92v11.8c0,2.81.76,4.58,3.4,4.58,1.6,0,3.23-.29,4.03-.5Z"></path><path class="cls-8" d="m186.7,2677.98c0-3.95,2.23-6.09,7.86-6.09h6.34v-1.72c0-2.98-1.26-5.42-5.46-5.42-3.95,0-5.33,1.51-5.33,4.12v.88h-2.98v-.84c0-5,4.2-6.68,8.32-6.68,5.8,0,8.4,2.86,8.4,8.44v13.11h-2.06l-.55-2.98h-.08c-1.26,1.89-3.7,3.53-7.35,3.53-4.92,0-7.1-2.31-7.1-6.34Zm14.2-1.85v-1.76h-7.02c-2.65,0-4.03.92-4.03,3.61,0,2.35,1.26,3.87,4.5,3.87,4.16,0,6.55-2.14,6.55-5.71Z"></path><path class="cls-8" d="m211.19,2651.01h2.94v32.77h-2.94v-32.77Z"></path><path class="cls-8" d="m219.58,2677.35v-1.18h2.94v1.13c0,2.86,2.14,4.5,5.96,4.5s5.8-1.01,5.8-3.78c0-2.06-1.01-2.81-3.86-3.32l-4.62-.84c-3.02-.55-5.54-2.02-5.54-5.5,0-3.15,2.35-6.13,8.4-6.13s8.4,3.02,8.4,7.23v.88h-2.98v-.76c0-3.44-2.14-4.92-5.42-4.92-3.95,0-5.33,1.34-5.33,3.36s1.01,2.86,3.91,3.4l4.03.76c4.12.76,6.09,1.93,6.09,5.59,0,4.58-4.12,6.55-8.78,6.55-7.31,0-8.99-3.28-8.99-6.97Z"></path><path class="cls-8" d="m251.63,2677.98c0-3.95,2.23-6.09,7.86-6.09h6.34v-1.72c0-2.98-1.26-5.42-5.46-5.42-3.95,0-5.33,1.51-5.33,4.12v.88h-2.98v-.84c0-5,4.2-6.68,8.32-6.68,5.8,0,8.4,2.86,8.4,8.44v13.11h-2.06l-.55-2.98h-.08c-1.26,1.89-3.7,3.53-7.35,3.53-4.92,0-7.1-2.31-7.1-6.34Zm14.2-1.85v-1.76h-7.01c-2.65,0-4.03.92-4.03,3.61,0,2.35,1.26,3.87,4.5,3.87,4.16,0,6.55-2.14,6.55-5.71Z"></path><path class="cls-8" d="m276.12,2662.77h2.6l.29,3.91c1.01-2.14,3.07-4.45,6.76-4.45,1.26,0,2.18.21,3.02.55v3.15c-1.13-.5-2.1-.76-3.4-.76-3.74,0-6.34,2.81-6.34,5.75v12.85h-2.94v-21Z"></path><path class="cls-8" d="m310.06,2674.28h-15.96c.17,4.79,2.48,7.48,6.93,7.48,3.82,0,5.67-1.43,5.96-4.83h2.98c-.29,4.24-3.28,7.39-9.03,7.39-7.06,0-9.83-4.66-9.83-10.88s3.23-11.22,10-11.22,8.95,3.99,8.95,10.21v1.85Zm-3.11-2.98c0-4.45-1.72-6.55-5.92-6.55s-6.55,2.65-6.89,6.97h12.81v-.42Z"></path><path class="cls-8" d="m323.7,2677.35v-1.18h2.94v1.13c0,2.86,2.14,4.5,5.96,4.5s5.8-1.01,5.8-3.78c0-2.06-1.01-2.81-3.87-3.32l-4.62-.84c-3.02-.55-5.54-2.02-5.54-5.5,0-3.15,2.35-6.13,8.4-6.13s8.4,3.02,8.4,7.23v.88h-2.98v-.76c0-3.44-2.14-4.92-5.42-4.92-3.95,0-5.33,1.34-5.33,3.36s1.01,2.86,3.91,3.4l4.03.76c4.12.76,6.09,1.93,6.09,5.59,0,4.58-4.12,6.55-8.78,6.55-7.31,0-8.99-3.28-8.99-6.97Z"></path><path class="cls-8" d="m347.35,2651.01h2.94v15.17c1.05-2.1,3.28-3.95,7.31-3.95,4.75,0,7.77,2.52,7.77,7.94v13.61h-2.94v-13.27c0-4.33-2.14-5.71-5.5-5.71-3.82,0-6.64,2.69-6.64,5.63v13.36h-2.94v-32.77Z"></path><path class="cls-8" d="m371.04,2673.27c0-6.22,3.32-11.05,10.38-11.05,6.6,0,10.25,4.83,10.25,11.05s-3.7,11.05-10.29,11.05c-7.27,0-10.33-4.83-10.33-11.05Zm17.56,0c0-5.33-2.9-8.49-7.23-8.49-4.75,0-7.27,3.15-7.27,8.49s2.56,8.49,7.27,8.49c4.33,0,7.23-3.15,7.23-8.49Z"></path><path class="cls-8" d="m397.54,2662.77h2.6l.29,3.91c1.01-2.14,3.07-4.45,6.76-4.45,1.26,0,2.18.21,3.02.55v3.15c-1.13-.5-2.1-.76-3.4-.76-3.74,0-6.34,2.81-6.34,5.75v12.85h-2.94v-21Z"></path><path class="cls-8" d="m425.81,2681.09v2.6c-.76.21-2.14.59-4.03.59-3.82,0-6.34-1.6-6.34-6.89v-12.18h-4.16v-2.44h4.16v-6.05l2.94-1.43v7.48h5.92v2.44h-5.92v11.8c0,2.81.76,4.58,3.4,4.58,1.6,0,3.23-.29,4.03-.5Z"></path><path class="cls-8" d="m447.27,2674.28h-15.96c.17,4.79,2.48,7.48,6.93,7.48,3.82,0,5.67-1.43,5.96-4.83h2.98c-.29,4.24-3.28,7.39-9.03,7.39-7.06,0-9.83-4.66-9.83-10.88s3.23-11.22,10-11.22,8.95,3.99,8.95,10.21v1.85Zm-3.11-2.98c0-4.45-1.72-6.55-5.92-6.55s-6.55,2.65-6.89,6.97h12.81v-.42Z"></path><path class="cls-8" d="m453.15,2662.77h2.6l.29,3.91c1.01-2.14,3.07-4.45,6.76-4.45,1.26,0,2.18.21,3.02.55v3.15c-1.13-.5-2.1-.76-3.4-.76-3.74,0-6.34,2.81-6.34,5.75v12.85h-2.94v-21Z"></path><path class="cls-8" d="m187.04,2729.93v2.6c-.76.21-2.14.59-4.03.59-3.82,0-6.34-1.6-6.34-6.89v-12.18h-4.16v-2.44h4.16v-6.05l2.94-1.43v7.48h5.92v2.44h-5.92v11.8c0,2.82.76,4.58,3.4,4.58,1.6,0,3.23-.29,4.03-.5Z"></path><path class="cls-8" d="m191.87,2699.86h2.94v15.16c1.05-2.1,3.28-3.95,7.31-3.95,4.75,0,7.77,2.52,7.77,7.94v13.61h-2.94v-13.27c0-4.33-2.14-5.71-5.5-5.71-3.82,0-6.64,2.69-6.64,5.63v13.36h-2.94v-32.77Z"></path><path class="cls-8" d="m215.97,2726.82c0-3.95,2.23-6.09,7.86-6.09h6.34v-1.72c0-2.98-1.26-5.42-5.46-5.42-3.95,0-5.33,1.51-5.33,4.12v.88h-2.98v-.84c0-5,4.2-6.68,8.32-6.68,5.8,0,8.4,2.86,8.4,8.44v13.11h-2.06l-.55-2.98h-.08c-1.26,1.89-3.7,3.53-7.35,3.53-4.92,0-7.1-2.31-7.1-6.34Zm14.2-1.85v-1.76h-7.01c-2.65,0-4.03.92-4.03,3.61,0,2.35,1.26,3.86,4.5,3.86,4.16,0,6.55-2.14,6.55-5.71Z"></path><path class="cls-8" d="m240.46,2711.62h2.6l.29,3.49c1.01-2.14,3.28-4.03,7.35-4.03,4.75,0,7.77,2.52,7.77,7.94v13.61h-2.94v-13.27c0-4.33-2.14-5.71-5.5-5.71-3.82,0-6.64,2.69-6.64,5.63v13.36h-2.94v-21Z"></path><path class="cls-8" d="m274.23,2726.82c0-3.95,2.23-6.09,7.86-6.09h6.34v-1.72c0-2.98-1.26-5.42-5.46-5.42-3.95,0-5.33,1.51-5.33,4.12v.88h-2.98v-.84c0-5,4.2-6.68,8.32-6.68,5.8,0,8.4,2.86,8.4,8.44v13.11h-2.06l-.55-2.98h-.08c-1.26,1.89-3.7,3.53-7.35,3.53-4.92,0-7.1-2.31-7.1-6.34Zm14.2-1.85v-1.76h-7.01c-2.65,0-4.03.92-4.03,3.61,0,2.35,1.26,3.86,4.5,3.86,4.16,0,6.55-2.14,6.55-5.71Z"></path><path class="cls-8" d="m296.82,2726.19v-1.18h2.94v1.13c0,2.86,2.14,4.49,5.96,4.49s5.8-1.01,5.8-3.78c0-2.06-1.01-2.81-3.87-3.32l-4.62-.84c-3.02-.55-5.54-2.02-5.54-5.5,0-3.15,2.35-6.13,8.4-6.13s8.4,3.02,8.4,7.23v.88h-2.98v-.76c0-3.45-2.14-4.92-5.42-4.92-3.95,0-5.33,1.34-5.33,3.36s1.01,2.86,3.91,3.4l4.03.76c4.12.76,6.09,1.93,6.09,5.59,0,4.58-4.12,6.55-8.78,6.55-7.31,0-8.99-3.28-8.99-6.97Z"></path><path class="cls-8" d="m318.79,2722.29c0-6.38,3.23-11.22,10-11.22s8.95,3.91,8.95,8.95v.42h-3.11v-.63c0-3.82-1.64-6.09-5.84-6.09-4.75,0-7.01,3.11-7.01,8.4,0,5.63,2.39,8.49,6.93,8.49,3.82,0,5.84-1.85,5.92-5.67h3.03c-.08,4.66-3.15,8.23-9.03,8.23-7.23,0-9.83-4.75-9.83-10.88Z"></path><path class="cls-8" d="m360.88,2723.13h-15.96c.17,4.79,2.48,7.48,6.93,7.48,3.82,0,5.67-1.43,5.96-4.83h2.98c-.29,4.24-3.28,7.39-9.03,7.39-7.06,0-9.83-4.66-9.83-10.88s3.23-11.22,10-11.22,8.95,3.99,8.95,10.21v1.85Zm-3.11-2.98c0-4.45-1.72-6.55-5.92-6.55s-6.55,2.65-6.89,6.97h12.81v-.42Z"></path><path class="cls-8" d="m366.75,2711.62h2.6l.29,3.49c1.01-2.14,3.28-4.03,7.35-4.03,4.75,0,7.77,2.52,7.77,7.94v13.61h-2.94v-13.27c0-4.33-2.14-5.71-5.5-5.71-3.82,0-6.64,2.69-6.64,5.63v13.36h-2.94v-21Z"></path><path class="cls-8" d="m390.44,2722.16c0-7.1,4.29-11.09,10.04-11.09,3.7,0,6.22,1.6,7.31,3.74h.04v-14.95h2.94v32.77h-1.97l-.67-3.61h-.08c-1.18,2.31-3.95,4.16-7.77,4.16-6.3,0-9.83-3.99-9.83-11.01Zm17.64-.5c0-5.5-3.36-8.07-7.35-8.07-3.11,0-7.14,1.47-7.14,8.4s3.61,8.61,7.14,8.61c4.24,0,7.35-2.73,7.35-8.95Z"></path><path class="cls-8" d="m435.38,2723.13h-15.96c.17,4.79,2.48,7.48,6.93,7.48,3.82,0,5.67-1.43,5.96-4.83h2.98c-.29,4.24-3.28,7.39-9.03,7.39-7.06,0-9.83-4.66-9.83-10.88s3.23-11.22,10-11.22,8.95,3.99,8.95,10.21v1.85Zm-3.11-2.98c0-4.45-1.72-6.55-5.92-6.55s-6.55,2.65-6.89,6.97h12.81v-.42Z"></path><path class="cls-8" d="m441.26,2711.62h2.6l.29,3.91c1.01-2.14,3.07-4.45,6.76-4.45,1.26,0,2.18.21,3.02.55v3.15c-1.13-.5-2.1-.76-3.4-.76-3.74,0-6.34,2.81-6.34,5.75v12.85h-2.94v-21Z"></path><path class="cls-8" d="m456.46,2726.19v-1.18h2.94v1.13c0,2.86,2.14,4.49,5.96,4.49s5.8-1.01,5.8-3.78c0-2.06-1.01-2.81-3.86-3.32l-4.62-.84c-3.02-.55-5.54-2.02-5.54-5.5,0-3.15,2.35-6.13,8.4-6.13s8.4,3.02,8.4,7.23v.88h-2.98v-.76c0-3.45-2.14-4.92-5.42-4.92-3.95,0-5.33,1.34-5.33,3.36s1.01,2.86,3.91,3.4l4.03.76c4.12.76,6.09,1.93,6.09,5.59,0,4.58-4.12,6.55-8.78,6.55-7.31,0-8.99-3.28-8.99-6.97Z"></path><line class="cls-2" x1="1139.49" y1="3437.95" x2="1139.49" y2="3481.31"></line><path class="cls-8" d="m1008.37,3493.75h2.94v30.12h15.71v2.65h-18.65v-32.77Z"></path><path class="cls-8" d="m1030.17,3516.02c0-6.22,3.32-11.05,10.38-11.05,6.59,0,10.25,4.83,10.25,11.05s-3.7,11.05-10.29,11.05c-7.27,0-10.33-4.83-10.33-11.05Zm17.56,0c0-5.33-2.9-8.49-7.23-8.49-4.75,0-7.27,3.15-7.27,8.49s2.56,8.49,7.27,8.49c4.33,0,7.23-3.15,7.23-8.49Z"></path><path class="cls-8" d="m1054.99,3516.02c0-6.22,3.32-11.05,10.38-11.05,6.59,0,10.25,4.83,10.25,11.05s-3.7,11.05-10.29,11.05c-7.27,0-10.33-4.83-10.33-11.05Zm17.56,0c0-5.33-2.9-8.49-7.23-8.49-4.75,0-7.27,3.15-7.27,8.49s2.56,8.49,7.27,8.49c4.33,0,7.23-3.15,7.23-8.49Z"></path><path class="cls-8" d="m1081.49,3505.51h2.39l.34,3.86h.08c1.13-2.48,4.03-4.41,7.86-4.41,6.3,0,9.66,3.99,9.66,11.01s-4.28,11.09-9.87,11.09c-3.78,0-6.38-1.6-7.44-3.7h-.08v11.55h-2.94v-29.41Zm17.18,10.63c0-7.18-3.4-8.61-6.93-8.61-4.24,0-7.56,2.73-7.56,8.44,0,6.01,3.44,8.57,7.44,8.57,3.02,0,7.06-1.47,7.06-8.4Z"></path><path class="cls-8" d="m1107.07,3493.75h2.94v32.77h-2.94v-32.77Z"></path><path class="cls-8" d="m1134.62,3517.02h-15.96c.17,4.79,2.48,7.48,6.93,7.48,3.82,0,5.67-1.43,5.96-4.83h2.98c-.29,4.24-3.28,7.39-9.03,7.39-7.06,0-9.83-4.66-9.83-10.88s3.23-11.22,10-11.22,8.95,3.99,8.95,10.21v1.85Zm-3.11-2.98c0-4.45-1.72-6.55-5.92-6.55s-6.55,2.65-6.89,6.97h12.81v-.42Z"></path><path class="cls-8" d="m1138.61,3520.09v-1.18h2.94v1.13c0,2.86,2.14,4.5,5.96,4.5s5.8-1.01,5.8-3.78c0-2.06-1.01-2.81-3.86-3.32l-4.62-.84c-3.02-.55-5.54-2.02-5.54-5.5,0-3.15,2.35-6.13,8.4-6.13s8.4,3.02,8.4,7.22v.88h-2.98v-.76c0-3.45-2.14-4.92-5.42-4.92-3.95,0-5.33,1.34-5.33,3.36s1.01,2.86,3.91,3.4l4.03.76c4.12.76,6.09,1.93,6.09,5.59,0,4.58-4.12,6.55-8.78,6.55-7.31,0-8.99-3.28-8.99-6.97Z"></path><path class="cls-8" d="m1160.37,3520.09v-1.18h2.94v1.13c0,2.86,2.14,4.5,5.96,4.5s5.8-1.01,5.8-3.78c0-2.06-1.01-2.81-3.86-3.32l-4.62-.84c-3.02-.55-5.54-2.02-5.54-5.5,0-3.15,2.35-6.13,8.4-6.13s8.4,3.02,8.4,7.22v.88h-2.98v-.76c0-3.45-2.14-4.92-5.42-4.92-3.95,0-5.33,1.34-5.33,3.36s1.01,2.86,3.91,3.4l4.03.76c4.12.76,6.09,1.93,6.09,5.59,0,4.58-4.12,6.55-8.78,6.55-7.31,0-8.99-3.28-8.99-6.97Z"></path><path class="cls-8" d="m1195.35,3504.21h-3.36v-5.08c0-3.95.88-5.29,3.4-5.97l.67,1.85c-1.77.67-2.06,1.09-2.06,3.78v.34h1.34v5.08Zm5.92,0h-3.36v-5.08c0-3.95.88-5.29,3.4-5.97l.67,1.85c-1.76.67-2.06,1.09-2.06,3.78v.34h1.34v5.08Z"></path><path class="cls-8" d="m1211.4,3500.47v5.04h5.92v2.44h-5.92v18.57h-2.94v-18.57h-4.16v-2.44h4.16v-5.42c0-5.29,3.15-6.89,6.38-6.89,1.85,0,2.98.29,3.74.55v2.6c-.71-.21-1.89-.46-3.49-.46-2.65,0-3.7,1.77-3.7,4.58Z"></path><path class="cls-8" d="m1221.94,3502.95c1.76-.67,2.06-1.09,2.06-3.78v-.34h-1.34v-5.08h3.36v5.08c0,3.95-.88,5.29-3.4,5.96l-.67-1.85Zm5.92,0c1.76-.67,2.06-1.09,2.06-3.78v-.34h-1.34v-5.08h3.36v5.08c0,3.95-.88,5.29-3.4,5.96l-.67-1.85Z"></path><line class="cls-2" x1="1348.82" y1="3009.22" x2="1433.57" y2="2777.9"></line></g><g id="palabras"><circle class="cls-9" cx="1313.58" cy="3072.45" r="53.98"></circle><circle class="cls-9" cx="1131.79" cy="3344.28" r="80"></circle><circle class="cls-9" cx="872.1" cy="1674.89" r="92.31"></circle><path class="cls-9" d="m351.55,623.23v-24.01h33.78v-236.46h-33.78v-24.01h98.49v24.01h-33.78v236.46h33.78v24.01h-98.49Z"></path><path class="cls-8" d="m561.96,628.12c-49.65,0-78.55-32.56-78.55-87.91,0-62.27,32.15-100.93,84.65-100.93,17.5,0,25.23,2.03,43.14,9.77l-4.88,26.86c-15.87-7.33-21.98-8.95-35.41-8.95-34.59,0-57.79,28.08-57.79,72.85,0,37.44,19.13,62.68,48.43,62.68,15.47,0,28.9-4.48,48.02-15.47l2.03,27.27c-17.5,9.77-32.97,13.84-49.65,13.84Z"></path><path class="cls-8" d="m722.32,628.12c-46.4,0-75.29-33.37-75.29-86.69,0-59.83,33.37-101.75,81.4-101.75,36.22,0,58.61,19.54,58.61,51.69,0,37.85-33.78,59.83-90.76,59.83-7.33,0-10.17.41-19.94-.41,3.26,32.56,21.16,51.69,48.43,51.69,15.87,0,31.74-5.7,48.84-17.5v28.08c-17.09,10.99-32.15,15.06-51.28,15.06Zm6.92-164.42c-27.27,0-49.65,30.93-52.5,62.68,8.95,1.22,13.02.81,19.94.81,36.63,0,60.64-14.65,60.64-36.63,0-14.24-10.99-26.86-28.08-26.86Z"></path><path class="cls-8" d="m916.45,438.46c41.11,0,68.78,32.97,68.78,85.47,0,63.08-31.34,101.75-79.36,101.75-17.09,0-33.37-3.66-44.36-14.24v129.83h-28.49v-247.86c0-11.8-3.26-34.59-7.73-49.25h28.9c2.44,7.33,3.26,10.99,4.88,24.83,15.87-20.76,34.59-30.52,57.39-30.52Zm-16.69,163.2c30.52,0,55.76-32.56,55.76-75.29,0-38.26-15.87-60.23-41.92-60.23-31.75,0-52.09,29.3-52.09,76.51v41.11c9.36,11.4,26.05,17.91,38.26,17.91Z"></path><path class="cls-8" d="m1176.52,449.04v130.64c0,15.87,4.88,22.38,16.69,22.38,5.29,0,8.55-.81,14.24-5.29v21.98c-9.36,7.33-13.84,8.95-24.42,8.95-19.13,0-30.93-11.8-33.78-32.97-13.84,21.98-32.15,32.97-54.13,32.97-37.44,0-64.71-29.71-64.71-86.28,0-61.46,37.04-101.75,94.83-101.75,20.76,0,30.12,2.03,51.28,9.36Zm-54.54,18.31c-39.07,0-61.86,28.9-61.86,78.96,0,34.59,13.43,53.72,38.26,53.72,30.52,0,49.65-29.71,49.65-76.51v-52.09c-11.4-3.66-15.87-4.07-26.05-4.07Z"></path><path class="cls-8" d="m1312.05,628.12c-49.65,0-78.55-32.56-78.55-87.91,0-62.27,32.15-100.93,84.65-100.93,17.5,0,25.23,2.03,43.14,9.77l-4.88,26.86c-15.87-7.33-21.98-8.95-35.41-8.95-34.59,0-57.79,28.08-57.79,72.85,0,37.44,19.13,62.68,48.43,62.68,15.47,0,28.9-4.48,48.02-15.47l2.03,27.27c-17.5,9.77-32.97,13.84-49.65,13.84Z"></path><path class="cls-8" d="m1431.29,338.75v131.46c9.77-21.57,24.83-32.56,45.18-32.56,26.45,0,47.21,18.31,47.21,42.73s-20.76,43.55-56.16,50.87l38.26,50.87c7.73,10.58,17.09,15.87,25.64,15.87,6.51,0,11.4-1.22,19.13-6.92v24.83c-8.55,6.51-16.69,9.77-26.86,9.77-15.06,0-27.27-9.36-43.96-31.75l-48.43-64.3v93.61h-27.27v-284.49h27.27Zm43.14,124.54c-18.31,0-35.41,22.79-41.51,54.94,32.97-1.63,61.05-16.69,61.05-35,0-11.8-8.14-19.94-19.54-19.94Z"></path><path class="cls-8" d="m681.71,3214.35c17.78,0,34.46-4.01,50.03-12.03,11.12-6.09,22.23-12.82,33.35-20.19,11.12-7.37,21.6-14.26,31.45-20.67l6.19,20.49-25.24,16.2c-7.32,4.45-14.94,9.05-22.88,13.82-7.94,4.76-15.25,8.9-21.92,12.39-20.01,9.21-39.06,13.82-57.17,13.82-10.81,0-21.29-2.07-31.45-6.19-10.17-4.13-18.28-9.53-24.3-16.2-5.73-6.67-10.17-14.53-13.35-23.59-3.18-9.05-4.76-18.66-4.76-28.82,0-14.29,1.9-28.19,5.71-41.69,3.81-13.5,9.68-25.49,17.63-35.98,7.94-10.48,17.71-18.97,29.3-25.49,11.59-6.51,25.33-9.77,41.22-9.77,14.29,0,26.37,3.91,36.22,11.71,9.84,7.81,14.76,19.35,14.76,34.65,0,14.33-3.97,25.88-11.9,34.65-7.95,8.76-17.71,15.53-29.3,20.31-11.61,4.78-24.14,7.8-37.65,9.07-13.49,1.28-25.81,1.43-36.93.48,0,14.97,3.81,27.4,11.44,37.28,3.81,4.78,9.45,8.6,16.92,11.47,7.46,2.86,15.01,4.3,22.63,4.3Zm35.74-116.91c0-6.93-2.47-12.69-7.39-17.26-4.92-4.57-10.88-6.86-17.86-6.86-7.63,0-14.77,2.06-21.44,6.15-6.67,4.1-12.63,9.31-17.86,15.61-5.25,6.31-9.54,13.16-12.87,20.57-3.33,7.41-5.48,14.58-6.42,21.52,5.07.95,10,1.43,14.76,1.43,6.36,0,13.58-.63,21.69-1.89,8.09-1.25,15.64-3.39,22.63-6.38,6.98-2.99,12.86-7.18,17.63-12.54,4.76-5.36,7.15-12.14,7.15-20.34Z"></path><path class="cls-8" d="m969.96,3105.85c-6.67,11.12-14.21,23.1-22.62,35.95-8.42,12.86-17.87,25-28.34,36.44-4.44,4.44-8.97,8.73-13.56,12.85-2.22,1.99-4.5,3.9-6.83,5.75-8.34,5.95-17,10.47-25.98,13.54-.25.08-.51.16-.76.24v.02c-9.35,3.11-19.05,4.67-29.11,4.67-10.81,0-19.62-2.69-26.44-8.08-6.84-5.38-11.05-11.87-12.63-19.47,5.39-4.44,13.97-10.15,25.72-17.11,11.75-6.97,24.3-15.2,37.65-24.7,26.99-19.32,40.49-38.01,40.49-56.06,0-12.67-3.98-22.41-11.92-29.22-7.94-6.8-18.09-10.22-30.49-10.22-15.25,0-28.74,3.1-40.49,9.29-11.76,6.19-21.69,14.46-29.78,24.78-8.1,10.33-14.22,22.08-18.35,35.26-4.12,13.18-6.19,26.76-6.19,40.73.31,23.83,6.51,42.49,18.59,55.98,12.07,13.51,28.59,20.73,49.55,21.68,11.12,0,21.2-1.22,30.26-3.64,3.57-.96,7.16-2.28,10.76-3.92h0s1.31-.62,1.31-.62c.61-.29,1.22-.57,1.82-.89l3.54-1.72c11.42-5.55,21.9-12.5,31.43-20.88,9.52-8.37,18.33-17.56,26.43-27.56,8.09-10,15.63-20.63,22.62-31.91,6.98-11.26,13.49-22.45,19.52-33.57l-16.19-7.62Zm-168.9,29.65c2.38-9.37,5.96-18.82,10.71-28.35,5.08-9.53,11.92-17.39,20.5-23.59,8.57-6.19,17.78-9.29,27.63-9.29,6.02,0,10.96,1.43,14.76,4.28,3.81,2.86,5.73,6.84,5.73,11.91,0,5.41-2.62,11.12-7.86,17.16-5.25,6.04-13.43,13.18-24.54,21.44-10.81,8.27-20.65,15.09-29.55,20.49-8.89,5.4-15.56,9.69-20.01,12.86-.63-8.58.25-17.55,2.62-26.92Z"></path><path class="cls-8" d="m1201.79,3129.15c-22.51,43.75-48.67,76.89-78.46,99.39h-.48c-7.93,5.07-16.81,7.61-26.64,7.61s-16.87-2.93-21.16-8.8c-4.28-5.86-6.9-13.07-7.84-21.63-7.3,10.46-15.78,18.47-25.45,24.01-9.68,5.54-20.68,8.32-33.05,8.32-10.15,0-18.86-1.83-26.15-5.47-7.3-3.64-13.16-8.56-17.6-14.74-4.45-6.19-7.69-13.32-9.75-21.4-2.06-8.09-3.1-16.72-3.1-25.92,0-13.63,2.39-27.59,7.13-41.85,4.76-14.27,11.42-27.18,19.98-38.76,8.55-11.57,18.94-21,31.14-28.3,12.2-7.29,25.92-10.94,41.14-10.94,5.7,0,11.25.72,16.64,2.14,5.39,1.43,10.77,2.93,16.18,4.52l16.64-135.53h27.1l-30.43,250.15c-.65,3.49-1.12,7.3-1.43,11.41-.31,4.13-.48,8.09-.48,11.89s.88,7.46,2.62,10.94c1.74,3.5,4.84,5.23,9.28,5.23,3.81,0,7.21-.95,10.23-2.85,3.01-1.9,5.78-3.96,8.32-6.19v.48c25.36-24.41,45.81-52.62,61.34-84.65l14.27,10.93Zm-120.79-46.13c-9.52-4.44-18.72-6.66-27.58-6.66-10.78,0-20.54,3.02-29.26,9.04-8.72,6.03-16.16,13.64-22.34,22.83-6.18,9.2-10.94,19.19-14.27,29.96-3.33,10.78-4.99,20.92-4.99,30.44,0,5.08.39,10.07,1.19,14.98.79,4.92,2.3,9.36,4.52,13.32,2.22,3.97,5.24,7.13,9.04,9.51,3.79,2.38,8.86,3.57,15.21,3.57,9.83,0,18.23-2.14,25.21-6.42,6.97-4.28,12.91-9.91,17.83-16.89,4.92-6.97,8.8-14.98,11.66-24.01,2.85-9.04,5.15-18.23,6.89-27.58,1.74-9.35,3.1-18.54,4.04-27.58.95-9.04,1.91-17.2,2.86-24.49Z"></path><path class="cls-8" d="m1291.35,2967.08c-2.55-5.4-6.13-10.01-10.73-13.82-4.6-3.81-10.08-5.73-16.44-5.73-3.81,0-7.38,1.12-10.72,3.34-3.34,2.24-6.44,5.17-9.29,8.82-2.86,3.66-5.4,7.87-7.63,12.63-2.22,4.77-3.97,9.54-5.24,14.3-2.55,9.53-4.54,19.95-5.96,31.22-1.43,11.27-2.79,23.59-4.05,36.93h105.78v20.49h-106.74l-16.21,163.93c-1.27,14.3-3.18,29.62-5.71,45.98-2.55,16.37-6.99,31.7-13.34,46-6.04,14.3-14.47,26.36-25.26,36.22-10.81,9.84-23.83,14.76-39.08,14.76-10.79,0-19.53-1.95-26.2-5.83-6.67-3.9-12.71-8.51-18.11-13.78l11.91-22.33c3.81,5.08,8.18,9.37,13.11,12.88,4.94,3.49,10.57,5.24,16.92,5.24,7.32,0,13.66-1.84,19.05-5.48,5.4-3.67,10.02-8.27,13.83-13.85,3.8-5.57,6.9-11.7,9.28-18.38,2.39-6.7,4.37-13.04,5.96-19.09,2.55-9.55,4.77-22.36,6.67-38.42,1.91-16.08,3.97-36.21,6.19-60.4,3.18-31.83,5.73-58.32,7.63-79.48,1.91-21.16,3.34-37.15,4.29-47.97h-30.5l1.9-20.49h30.03c1.58-17.48,3.57-33.2,5.95-47.19,2.39-13.97,5.96-26.99,10.73-39.08,2.22-6.02,5.16-11.91,8.82-17.63,3.65-5.71,7.78-10.72,12.38-15.01,4.6-4.29,9.77-7.69,15.49-10.24,5.73-2.55,11.92-3.81,18.59-3.81,17.79,0,30.97,8.09,39.56,24.3l-12.86,20.97Z"></path><path class="cls-8" d="m1462.02,3227.08c-3.84,3.19-7.83,5.59-11.98,7.18-4.16,1.6-9.75,2.4-16.79,2.4-19.17,0-29.08-9.9-29.71-29.72-7.36,9.59-15.83,17.18-25.41,22.77-9.58,5.59-20.45,8.39-32.6,8.39-33.24,0-49.86-16.77-49.86-50.33,0-6.07.48-12.22,1.44-18.46.96-6.23,1.91-12.22,2.87-17.97,2.24-10.55,3.91-20.14,5.03-28.76,1.12-8.63,1.99-16.3,2.64-23.01.64-7.03.96-14.22.96-21.57s-.17-15.18-.48-23.49h28.76v4.8c.31,15.66-.48,31.16-2.41,46.49-1.91,15.34-4.15,30.68-6.71,46.02-.64,5.75-1.37,11.35-2.16,16.78-.79,5.44-1.2,11.02-1.2,16.77,0,18.22,8.79,27.33,26.37,27.33,8.31,0,15.73-1.76,22.29-5.27,6.54-3.52,12.15-8.07,16.77-13.67,4.63-5.59,8.39-11.9,11.26-18.93,2.89-7.02,4.95-14.21,6.24-21.57l12.46-98.75h28.28l-16.77,135.19c-.33.96-.48,3.52-.48,7.67,0,3.84.79,7.52,2.39,11.03,1.6,3.52,4.8,5.12,9.6,4.79,1.91.33,5.27-.79,10.06-3.35.96-.31,2.39-1.11,4.32-2.39,13.73-12.78,26.19-26.61,37.39-41.47,11.18-14.86,20.92-30.92,29.25-48.17l14.38,11.02c-22.38,42.83-47.79,75.58-76.23,98.28Z"></path><path class="cls-8" d="m1572.75,3226.12c-7.98,7.04-17.58,10.55-28.76,10.55-5.98,0-10.86-1.12-14.63-3.35-3.77-2.23-6.67-5.11-8.71-8.63-2.04-3.51-3.46-7.67-4.24-12.46-.78-4.79-1.17-9.59-1.17-14.38,0-6.39.47-13.26,1.43-20.61l29.73-256.47h27.8l-29.73,256.47c-.95,6.4-1.43,12.63-1.43,18.69,0,3.2.48,6.88,1.43,11.03.96,4.15,3.68,6.23,8.15,6.23,4.15,0,7.91-1.2,11.26-3.6,3.35-2.39,6.48-5.03,9.35-7.91l-.48,24.45Z"></path><path class="cls-8" d="m543.15,3233.49h-29.17l-85.11-172.6c-6.38-11.79-12.11-24.22-17.21-37.3-1.91,35.71-4.94,70.77-9.08,105.2-4.15,34.42-8.3,69.32-12.44,104.7h-27.25l29.17-252.45h29.64l84.63,172.6c2.87,6.06,5.66,12.28,8.37,18.65,2.71,6.38,5.19,12.91,7.42,19.6.31-8.6,1.12-17.37,2.39-26.29s2.23-17.69,2.87-26.3l18.17-158.26h27.73l-30.12,252.45Z"></path><path class="cls-8" d="m1090.3,1562.76c17.93,0,34.74-4.04,50.44-12.12,11.21-6.14,22.41-12.93,33.62-20.35,11.21-7.43,21.77-14.37,31.7-20.84l6.24,20.65-25.45,16.33c-7.37,4.49-15.06,9.13-23.06,13.93-8,4.8-15.37,8.97-22.1,12.49-20.17,9.28-39.37,13.93-57.63,13.93-10.89,0-21.46-2.08-31.7-6.24-10.25-4.16-18.42-9.61-24.5-16.33-5.77-6.72-10.25-14.65-13.46-23.78-3.21-9.13-4.79-18.81-4.79-29.06,0-14.41,1.92-28.42,5.76-42.03,3.84-13.61,9.76-25.7,17.77-36.27,8-10.57,17.85-19.13,29.54-25.69,11.69-6.56,25.54-9.85,41.55-9.85,14.41,0,26.58,3.94,36.51,11.8,9.92,7.87,14.88,19.5,14.88,34.93,0,14.45-4,26.09-12,34.93-8.01,8.83-17.85,15.65-29.54,20.48-11.7,4.81-24.34,7.86-37.95,9.15-13.6,1.29-26.02,1.45-37.22.48,0,15.09,3.84,27.62,11.53,37.58,3.84,4.81,9.52,8.67,17.06,11.56,7.52,2.89,15.13,4.33,22.81,4.33Zm36.03-117.86c0-6.99-2.49-12.79-7.45-17.4-4.96-4.61-10.97-6.92-18.01-6.92-7.69,0-14.89,2.07-21.62,6.2-6.72,4.13-12.73,9.38-18.01,15.73-5.29,6.36-9.62,13.27-12.98,20.74-3.36,7.47-5.52,14.7-6.48,21.69,5.11.96,10.08,1.44,14.88,1.44,6.41,0,13.69-.63,21.86-1.91,8.16-1.26,15.77-3.41,22.81-6.43,7.04-3.02,12.96-7.24,17.77-12.64,4.79-5.4,7.21-12.24,7.21-20.51Z"></path><path class="cls-8" d="m677.81,1433.02c0,17.77-2.08,35.86-6.2,54.25-4.12,18.4-10.7,35.06-19.74,49.96-9.05,14.92-20.88,27.06-35.46,36.41-14.6,9.36-32.52,14.05-53.77,14.05-15.56,0-28.8-2.7-39.75-8.09-10.95-5.38-19.91-12.77-26.88-22.13-6.98-9.36-12.07-20.29-15.23-32.84-3.18-12.53-4.76-25.77-4.76-39.74,0-18.09,2.07-36.48,6.18-55.2,4.13-18.72,10.72-35.61,19.75-50.68,9.05-15.07,20.94-27.37,35.7-36.88,14.76-9.52,32.75-14.28,54.02-14.28,15.87,0,29.27,2.85,40.21,8.57s19.83,13.41,26.66,23.08c6.82,9.68,11.74,20.86,14.74,33.55,3.02,12.69,4.53,26.01,4.53,39.98Zm-28.56,1.9c0-9.52-.96-19.27-2.85-29.27-1.91-9.99-5.09-18.95-9.53-26.89-4.44-7.93-10.55-14.43-18.32-19.51-7.77-5.07-17.53-7.62-29.27-7.62-16.5,0-30.07,4.52-40.69,13.56-10.64,9.04-19.12,20.31-25.46,33.79-6.35,13.49-10.79,28.08-13.32,43.78-2.54,15.7-3.81,30.07-3.81,43.07,0,10.16.79,19.99,2.38,29.51,1.59,9.51,4.52,17.93,8.8,25.21,4.29,7.31,10.24,13.17,17.84,17.61,7.62,4.45,17.45,6.66,29.51,6.66,16.18,0,29.67-4.35,40.45-13.08,10.79-8.73,19.43-19.59,25.94-32.6,6.51-13,11.19-27.04,14.05-42.11,2.85-15.07,4.29-29.11,4.29-42.12Z"></path><path class="cls-8" d="m873.63,1463.99c0,14.6-2.07,29.2-6.19,43.79-4.12,14.6-10.32,27.92-18.56,39.98-2.54,3.8-5.71,7.6-9.52,11.41,13.96-5.71,27.44-14.59,40.45-26.65,12.06-12.06,22.84-24.98,32.37-38.79,9.51-13.8,18.24-27.03,26.17-39.74l16.18,7.14c-6.67,13.32-14.6,27.21-23.8,41.65-9.2,14.43-19.98,28.31-32.36,41.63-12.06,12.7-27.53,23.08-46.4,31.18-18.88,8.09-41.16,12.14-66.87,12.14h-9.99c-11.11,0-21.89-1.59-32.36-4.76-10.47-3.16-20.63-7.6-30.46-13.32l36.17-298.87h27.13l-19.99,162.76c7.29-10.78,15.86-19.18,25.7-25.23,9.82-6.02,21.41-9.04,34.74-9.04,19.98,0,34.57,6.03,43.78,18.09,9.2,12.06,13.8,27.6,13.8,46.63Zm-29.98,4.14c0-11.37-2.46-20.86-7.38-28.44-4.93-7.59-13.72-11.39-26.41-11.39-14.92,0-26.58,4.51-34.98,13.52-8.41,9.01-14.83,20.08-19.27,33.19-4.45,13.13-7.46,26.8-9.04,41.03-1.59,14.23-3.18,26.56-4.76,36.99,4.76,3.16,9.68,5.77,14.76,7.82,5.07,2.05,10.47,3.09,16.18,3.09,12.37,0,23.08-3,32.13-9.01,9.04-6,16.42-13.67,22.13-22.99,5.71-9.32,9.91-19.61,12.61-30.83,2.69-11.22,4.05-22.22,4.05-32.97Z"></path><path class="cls-8" d="m1314.73,1443.53c-8.57-12.66-20.31-19.48-35.22-20.46-11.42,0-21.42,3.11-29.98,9.31-8.57,6.21-15.87,14.24-21.89,24.1-5.71,9.86-9.76,19.34-12.14,28.4-2.38,9.08-3.57,18.54-3.57,28.4,0,6.04.79,12.01,2.38,17.91,1.59,5.89,3.96,11.13,7.14,15.75,3.17,4.61,7.29,8.34,12.37,11.21,5.07,2.88,11.1,4.3,18.09,4.3,10.15,0,19.51-1.91,28.08-5.73,1.27-.63,2.54-1.19,3.81-1.67,1.26-.48,2.53-1.03,3.8-1.68,5.4-3.49,10.47-7.23,15.23-11.21,4.76-3.98,9.35-8.2,13.8-12.65,11.1-11.14,21.18-23.47,30.22-37,9.04-13.52,17.2-26.48,24.51-38.9l16.18,7.17c-5.08,10.19-10.87,20.69-17.37,31.5-6.51,10.82-13.72,21.31-21.65,31.5-7.94,10.19-16.66,19.74-26.17,28.65-9.52,8.91-19.68,16.38-30.46,22.42-11.43,6.05-23.64,9.86-36.64,11.46-1.59.31-3.81.46-6.66.46h-7.14c-2.54-.31-5.08-.63-7.62-.94-2.54-.32-5.08-.8-7.62-1.43-3.49-.96-7.61-2.69-12.37-5.23-6.35-3.81-11.59-8.57-15.7-14.28-5.4-6.66-9.45-14.43-12.14-23.33-2.7-8.87-4.04-18.24-4.04-28.08,0-15.22,2.45-29.65,7.38-43.3,4.91-13.65,11.33-25.54,19.27-35.7,8.24-10.15,17.92-18.56,29.03-25.23,11.1-6.66,25.23-9.99,42.36-9.99,19.04,0,34.1,6.98,45.21,20.94l-10.47,23.32Z"></path><path class="cls-8" d="m1044.95,1463.05c-6.03,11.74-12.21,23.01-18.55,33.79-6.35,10.79-12.7,21.11-19.04,30.93-6.35,9.84-12.3,18.56-17.84,26.18-5.56,7.62-10.88,14.12-15.94,19.51-5.09,5.4-10.32,10.72-15.71,15.94-5.4,5.24-11.1,10.55-17.13,15.94-1.9,15.23-4.92,29.51-9.04,42.84-4.13,13.32-9.68,26.17-16.67,38.55-6.66,12.37-14.68,22.84-24.03,31.41-9.36,8.56-20.71,12.85-34.03,12.85-10.78,0-20.31-3.18-28.56-9.51-8.25-6.35-12.69-16.18-13.32-29.51,0-5.71,1.11-11.26,3.33-16.65,2.22-5.4,5.16-10.55,8.8-15.47,3.65-4.92,7.85-9.36,12.61-13.32,4.76-3.98,9.51-7.38,14.28-10.24,9.84-5.07,20.06-10.55,30.7-16.42,10.62-5.87,20.69-12.6,30.21-20.22,4.44-35.22,8.65-68.54,12.61-99.95,3.96-31.41,7.86-63.13,11.66-95.19h27.61l-22.37,173.24c7.62-7.29,15.3-16.02,23.08-26.18,7.77-10.15,15.3-20.85,22.61-32.12,7.29-11.26,14.19-22.36,20.69-33.31,6.51-10.95,12.3-20.71,17.38-29.27l16.65,6.18Zm-134.2,162.76c-7.31,5.72-14.76,10.62-22.37,14.76l-23.79,12.85c-7.93,4.44-14.43,9.84-19.52,16.19-5.06,6.34-7.6,13.16-7.6,20.46.63,7.62,3.01,12.92,7.14,15.94,4.12,3.01,8.73,4.52,13.8,4.52,8.56,0,15.62-3.02,21.17-9.04,5.55-6.04,10.39-13.17,14.51-21.42,2.22-4.13,4.12-8.65,5.72-13.57,1.58-4.92,3.16-10.07,4.75-15.47,1.59-5.4,2.87-10.24,3.81-14.51.96-4.29,1.74-7.86,2.39-10.72Zm29.98-276.98c0-5.38,1.82-9.99,5.47-13.8,3.64-3.81,8.16-5.71,13.57-5.71s9.99,1.9,13.8,5.71c3.81,3.81,5.71,8.42,5.71,13.8s-1.9,9.93-5.71,13.57c-3.81,3.65-8.42,5.47-13.8,5.47s-9.93-1.82-13.57-5.47c-3.65-3.64-5.47-8.16-5.47-13.57Z"></path><path class="cls-8" d="m1453.82,1424.98h-51.41l-11.89,95.17c-.65,5.41-1.03,9.68-1.19,12.86-.17,3.18-.25,6.03-.25,8.56,0,6.98,1.34,12.38,4.04,16.19,2.7,3.81,7.69,5.71,15,5.71,2.85,0,6.02-.96,9.51-2.85,3.49-1.91,6.97-4.12,10.47-6.66l2.38-1.43c25.06-24.1,45.69-52.5,61.88-85.18l14.28,10.93c-18.73,36.5-39.67,65.36-62.83,86.63-2.22,1.9-4.44,3.81-6.66,5.71s-4.6,3.81-7.14,5.71l-1.9,1.43-2.85,1.9c-7.31,4.76-14.6,7.14-21.9,7.14-27.92,0-41.88-14.59-41.88-43.78,0-2.85.08-5.55.23-8.09.17-2.53.4-5.86.72-9.99l12.85-99.94h-33.31l2.85-20.48h33.79l8.09-57.1h27.12l-8.09,57.1h51.41l-3.33,20.48Z"></path><path class="cls-8" d="m278.25,858h-3.36v-5.08c0-3.95.88-5.29,3.4-5.97l.67,1.85c-1.76.67-2.06,1.09-2.06,3.78v.34h1.34v5.08Zm5.92,0h-3.36v-5.08c0-3.95.88-5.29,3.4-5.97l.67,1.85c-1.76.67-2.06,1.09-2.06,3.78v.34h1.34v5.08Z"></path><path class="cls-8" d="m291.6,847.54h2.94v32.77h-2.94v-32.77Z"></path><path class="cls-8" d="m301.26,856.74c1.76-.67,2.06-1.09,2.06-3.78v-.34h-1.34v-5.08h3.36v5.08c0,3.95-.88,5.29-3.4,5.97l-.67-1.85Zm5.92,0c1.76-.67,2.06-1.09,2.06-3.78v-.34h-1.34v-5.08h3.36v5.08c0,3.95-.88,5.29-3.4,5.97l-.67-1.85Z"></path><path class="cls-8" d="m324.07,859.34v-.04h2.98l5.75,17.48h.08l6.3-17.48h2.69l6.18,17.48h.08l5.75-17.48h2.86v.04l-7.18,20.96h-3.02l-5.96-17.06h-.08l-6.22,17.06h-3.02l-7.18-20.96Z"></path><path class="cls-8" d="m361.57,847.54h2.98v6.51h-2.98v-6.51Zm0,11.76h2.94v21h-2.94v-21Z"></path><path class="cls-8" d="m382.87,877.61v2.6c-.76.21-2.14.59-4.03.59-3.82,0-6.34-1.6-6.34-6.89v-12.18h-4.16v-2.44h4.16v-6.05l2.94-1.43v7.48h5.92v2.44h-5.92v11.8c0,2.81.76,4.58,3.4,4.58,1.6,0,3.23-.29,4.03-.5Z"></path><path class="cls-8" d="m387.7,847.54h2.94v15.16c1.05-2.1,3.28-3.95,7.31-3.95,4.75,0,7.77,2.52,7.77,7.94v13.61h-2.94v-13.27c0-4.33-2.14-5.71-5.5-5.71-3.82,0-6.64,2.69-6.64,5.63v13.36h-2.94v-32.77Z"></path><path class="cls-8" d="m420.83,873.87v-1.18h2.94v1.13c0,2.86,2.14,4.5,5.96,4.5s5.8-1.01,5.8-3.78c0-2.06-1.01-2.81-3.87-3.32l-4.62-.84c-3.02-.55-5.54-2.02-5.54-5.5,0-3.15,2.35-6.13,8.4-6.13s8.4,3.02,8.4,7.23v.88h-2.98v-.76c0-3.44-2.14-4.91-5.42-4.91-3.95,0-5.33,1.34-5.33,3.36s1.01,2.86,3.91,3.4l4.03.76c4.12.76,6.09,1.93,6.09,5.59,0,4.58-4.12,6.55-8.78,6.55-7.31,0-8.99-3.28-8.99-6.97Z"></path><path class="cls-8" d="m461.75,870.81h-15.96c.17,4.79,2.48,7.48,6.93,7.48,3.82,0,5.67-1.43,5.96-4.83h2.98c-.29,4.24-3.28,7.39-9.03,7.39-7.06,0-9.83-4.66-9.83-10.88s3.23-11.22,10-11.22,8.95,3.99,8.95,10.21v1.85Zm-3.11-2.98c0-4.45-1.72-6.55-5.92-6.55s-6.55,2.65-6.89,6.97h12.81v-.42Z"></path><path class="cls-8" d="m467.62,859.3h2.6l.29,3.91c1.01-2.14,3.07-4.45,6.76-4.45,1.26,0,2.18.21,3.02.55v3.15c-1.13-.5-2.1-.76-3.4-.76-3.74,0-6.34,2.81-6.34,5.75v12.85h-2.94v-21Z"></path><path class="cls-8" d="m484.93,847.54h2.98v6.51h-2.98v-6.51Zm0,11.76h2.94v21h-2.94v-21Z"></path><path class="cls-8" d="m499.42,854.26v5.04h5.92v2.44h-5.92v18.57h-2.94v-18.57h-4.16v-2.44h4.16v-5.42c0-5.29,3.15-6.89,6.38-6.89,1.85,0,2.98.29,3.74.55v2.6c-.71-.21-1.89-.46-3.49-.46-2.65,0-3.7,1.76-3.7,4.58Z"></path><path class="cls-8" d="m507.44,873.87v-1.18h2.94v1.13c0,2.86,2.14,4.5,5.96,4.5s5.8-1.01,5.8-3.78c0-2.06-1.01-2.81-3.86-3.32l-4.62-.84c-3.02-.55-5.54-2.02-5.54-5.5,0-3.15,2.35-6.13,8.4-6.13s8.4,3.02,8.4,7.23v.88h-2.98v-.76c0-3.44-2.14-4.91-5.42-4.91-3.95,0-5.33,1.34-5.33,3.36s1.01,2.86,3.91,3.4l4.03.76c4.12.76,6.09,1.93,6.09,5.59,0,4.58-4.12,6.55-8.78,6.55-7.31,0-8.99-3.28-8.99-6.97Z"></path><path class="cls-8" d="m1523.52,865h-3.36v-5.08c0-3.95.88-5.29,3.4-5.97l.67,1.85c-1.77.67-2.06,1.09-2.06,3.78v.34h1.34v5.08Zm5.92,0h-3.36v-5.08c0-3.95.88-5.29,3.4-5.97l.67,1.85c-1.76.67-2.06,1.09-2.06,3.78v.34h1.34v5.08Z"></path><path class="cls-8" d="m1535.83,854.54h2.94v23.23l12.14-11.47h3.65v.04l-8.4,7.86,8.78,13.06v.04h-3.36l-7.39-11.22-5.42,5.04v6.18h-2.94v-32.77Z"></path><path class="cls-8" d="m1558.09,863.74c1.76-.67,2.06-1.09,2.06-3.78v-.34h-1.34v-5.08h3.36v5.08c0,3.95-.88,5.29-3.4,5.97l-.67-1.85Zm5.92,0c1.76-.67,2.06-1.09,2.06-3.78v-.34h-1.34v-5.08h3.36v5.08c0,3.95-.88,5.29-3.4,5.97l-.67-1.85Z"></path><path class="cls-8" d="m1580.89,866.34v-.04h2.98l5.76,17.48h.08l6.3-17.48h2.69l6.17,17.48h.08l5.76-17.48h2.86v.04l-7.18,20.96h-3.02l-5.96-17.06h-.08l-6.22,17.06h-3.02l-7.18-20.96Z"></path><path class="cls-8" d="m1618.4,854.54h2.98v6.51h-2.98v-6.51Zm0,11.76h2.94v21h-2.94v-21Z"></path><path class="cls-8" d="m1639.7,884.61v2.6c-.76.21-2.14.59-4.03.59-3.82,0-6.34-1.6-6.34-6.89v-12.18h-4.16v-2.44h4.16v-6.05l2.94-1.43v7.48h5.92v2.44h-5.92v11.8c0,2.81.76,4.58,3.4,4.58,1.6,0,3.23-.29,4.03-.5Z"></path><path class="cls-8" d="m1644.53,854.54h2.94v15.16c1.05-2.1,3.28-3.95,7.31-3.95,4.75,0,7.77,2.52,7.77,7.94v13.61h-2.94v-13.27c0-4.33-2.14-5.71-5.5-5.71-3.82,0-6.64,2.69-6.64,5.63v13.36h-2.94v-32.77Z"></path><path class="cls-8" d="m1678.29,881.51c0-3.95,2.23-6.09,7.86-6.09h6.34v-1.72c0-2.98-1.26-5.42-5.46-5.42-3.95,0-5.33,1.51-5.33,4.12v.88h-2.98v-.84c0-5,4.2-6.68,8.32-6.68,5.8,0,8.4,2.86,8.4,8.44v13.11h-2.06l-.54-2.98h-.08c-1.26,1.89-3.7,3.53-7.35,3.53-4.92,0-7.1-2.31-7.1-6.34Zm14.2-1.85v-1.76h-7.01c-2.65,0-4.03.92-4.03,3.61,0,2.35,1.26,3.86,4.5,3.86,4.16,0,6.55-2.14,6.55-5.71Z"></path><path class="cls-8" d="m1715.25,883.82h-.08l-.76,3.49h-1.97v-32.77h2.94v15.25h.04c1.26-2.31,4.07-4.03,7.69-4.03,6.3,0,9.66,3.99,9.66,11.01s-4.29,11.09-9.87,11.09c-3.78,0-6.55-1.64-7.65-4.03Zm14.37-6.89c0-7.18-3.4-8.61-6.93-8.61-4.24,0-7.56,2.73-7.56,8.44,0,6.01,3.44,8.57,7.43,8.57,3.03,0,7.06-1.47,7.06-8.4Z"></path><path class="cls-8" d="m1736.97,876.8c0-6.22,3.32-11.05,10.38-11.05,6.59,0,10.25,4.83,10.25,11.05s-3.7,11.05-10.29,11.05c-7.27,0-10.33-4.83-10.33-11.05Zm17.56,0c0-5.33-2.9-8.49-7.23-8.49-4.75,0-7.27,3.15-7.27,8.49s2.56,8.49,7.27,8.49c4.33,0,7.23-3.15,7.23-8.49Z"></path><path class="cls-8" d="m1759.9,866.34v-.04h2.98l5.76,17.48h.08l6.3-17.48h2.69l6.17,17.48h.08l5.76-17.48h2.86v.04l-7.18,20.96h-3.02l-5.96-17.06h-.08l-6.22,17.06h-3.02l-7.18-20.96Z"></path><path class="cls-8" d="m1797.41,854.54h2.94v32.77h-2.94v-32.77Z"></path><rect class="cls-9" x="1414.09" y="401.03" width="151.64" height="151.64" rx="75.82" ry="75.82"></rect><g class="cls-6"><path class="cls-10" d="m1432.18,338.75v131.46c9.77-21.57,24.83-32.56,45.18-32.56,26.45,0,47.21,18.31,47.21,42.73s-20.76,43.55-56.16,50.87l38.26,50.87c7.73,10.58,17.09,15.87,25.64,15.87,6.51,0,11.4-1.22,19.13-6.92v24.83c-8.55,6.51-16.69,9.77-26.86,9.77-15.06,0-27.27-9.36-43.96-31.75l-48.43-64.3v93.61h-27.27v-284.49h27.27Zm43.14,124.54c-18.31,0-35.41,22.79-41.51,54.94,32.97-1.63,61.05-16.69,61.05-35,0-11.8-8.14-19.94-19.54-19.94Z"></path></g><line class="cls-2" x1="1593.95" y1="2042.02" x2="1593.95" y2="2175.86"></line><line class="cls-2" x1="930.02" y1="2043.09" x2="930.02" y2="2206.51"></line><path class="cls-8" d="m586.46,1976.64h8.36c11.05,0,17.39,4.54,17.39,16.42s-6.26,16.34-17.18,16.34h-8.57v-32.77Zm8.65,30.12c9.41,0,14.03-3.74,14.03-13.78s-4.49-13.74-14.07-13.74h-5.67v27.51h5.71Z"></path><path class="cls-8" d="m635.77,1999.91h-15.96c.17,4.79,2.48,7.48,6.93,7.48,3.82,0,5.67-1.43,5.96-4.83h2.98c-.29,4.24-3.28,7.39-9.03,7.39-7.06,0-9.83-4.66-9.83-10.88s3.23-11.22,10-11.22,8.95,3.99,8.95,10.21v1.85Zm-3.11-2.98c0-4.45-1.72-6.55-5.92-6.55s-6.55,2.65-6.89,6.97h12.81v-.42Z"></path><path class="cls-8" d="m639.76,2002.98v-1.18h2.94v1.13c0,2.86,2.14,4.5,5.96,4.5s5.8-1.01,5.8-3.78c0-2.06-1.01-2.81-3.87-3.32l-4.62-.84c-3.02-.55-5.54-2.02-5.54-5.5,0-3.15,2.35-6.13,8.4-6.13s8.4,3.02,8.4,7.22v.88h-2.98v-.76c0-3.44-2.14-4.91-5.42-4.91-3.95,0-5.33,1.34-5.33,3.36s1.01,2.86,3.91,3.4l4.03.76c4.12.76,6.09,1.93,6.09,5.59,0,4.58-4.12,6.55-8.78,6.55-7.31,0-8.99-3.28-8.99-6.97Z"></path><path class="cls-8" d="m661.73,1999.07c0-6.38,3.23-11.22,10-11.22s8.95,3.91,8.95,8.95v.42h-3.11v-.63c0-3.82-1.64-6.09-5.84-6.09-4.75,0-7.02,3.11-7.02,8.4,0,5.63,2.39,8.49,6.93,8.49,3.82,0,5.84-1.85,5.92-5.67h3.02c-.08,4.66-3.15,8.23-9.03,8.23-7.23,0-9.83-4.75-9.83-10.88Z"></path><path class="cls-8" d="m703.81,1999.91h-15.96c.17,4.79,2.48,7.48,6.93,7.48,3.82,0,5.67-1.43,5.96-4.83h2.98c-.29,4.24-3.28,7.39-9.03,7.39-7.06,0-9.83-4.66-9.83-10.88s3.23-11.22,10-11.22,8.95,3.99,8.95,10.21v1.85Zm-3.11-2.98c0-4.45-1.72-6.55-5.92-6.55s-6.55,2.65-6.89,6.97h12.81v-.42Z"></path><path class="cls-8" d="m709.69,1988.4h2.6l.29,3.49c1.01-2.14,3.28-4.03,7.35-4.03,4.75,0,7.77,2.52,7.77,7.94v13.61h-2.94v-13.27c0-4.33-2.14-5.71-5.5-5.71-3.82,0-6.64,2.69-6.64,5.63v13.36h-2.94v-21Z"></path><path class="cls-8" d="m733.38,1998.94c0-7.1,4.28-11.09,10.04-11.09,3.7,0,6.22,1.6,7.31,3.74h.04v-14.95h2.94v32.77h-1.97l-.67-3.61h-.08c-1.18,2.31-3.95,4.16-7.77,4.16-6.3,0-9.83-3.99-9.83-11.01Zm17.64-.5c0-5.5-3.36-8.07-7.35-8.07-3.11,0-7.14,1.47-7.14,8.4s3.61,8.61,7.14,8.61c4.24,0,7.35-2.73,7.35-8.95Z"></path><path class="cls-8" d="m778.32,1999.91h-15.96c.17,4.79,2.48,7.48,6.93,7.48,3.82,0,5.67-1.43,5.96-4.83h2.98c-.29,4.24-3.28,7.39-9.03,7.39-7.06,0-9.83-4.66-9.83-10.88s3.23-11.22,10-11.22,8.95,3.99,8.95,10.21v1.85Zm-3.11-2.98c0-4.45-1.72-6.55-5.92-6.55s-6.55,2.65-6.89,6.97h12.81v-.42Z"></path><path class="cls-8" d="m784.2,1988.4h2.6l.29,3.91c1.01-2.14,3.07-4.45,6.76-4.45,1.26,0,2.18.21,3.02.55v3.15c-1.13-.5-2.1-.76-3.4-.76-3.74,0-6.34,2.81-6.34,5.75v12.85h-2.94v-21Z"></path><path class="cls-8" d="m811.16,1976.64h2.94v32.77h-2.94v-32.77Z"></path><path class="cls-8" d="m819.77,1998.9c0-6.22,3.32-11.05,10.38-11.05,6.59,0,10.25,4.83,10.25,11.05s-3.7,11.05-10.29,11.05c-7.27,0-10.33-4.83-10.33-11.05Zm17.56,0c0-5.33-2.9-8.49-7.23-8.49-4.75,0-7.27,3.15-7.27,8.49s2.56,8.49,7.27,8.49c4.33,0,7.23-3.15,7.23-8.49Z"></path><path class="cls-8" d="m844.59,1998.9c0-6.22,3.32-11.05,10.38-11.05,6.6,0,10.25,4.83,10.25,11.05s-3.7,11.05-10.29,11.05c-7.27,0-10.33-4.83-10.33-11.05Zm17.56,0c0-5.33-2.9-8.49-7.23-8.49-4.75,0-7.27,3.15-7.27,8.49s2.56,8.49,7.27,8.49c4.33,0,7.23-3.15,7.23-8.49Z"></path><path class="cls-8" d="m871.1,1988.4h2.39l.34,3.86h.08c1.13-2.48,4.03-4.41,7.86-4.41,6.3,0,9.66,3.99,9.66,11.01s-4.29,11.09-9.87,11.09c-3.78,0-6.38-1.6-7.44-3.7h-.08v11.55h-2.94v-29.41Zm17.18,10.63c0-7.18-3.4-8.61-6.93-8.61-4.24,0-7.56,2.73-7.56,8.44,0,6.01,3.44,8.57,7.44,8.57,3.02,0,7.06-1.47,7.06-8.4Z"></path><path class="cls-8" d="m895.41,2002.98v-1.18h2.94v1.13c0,2.86,2.14,4.5,5.96,4.5s5.8-1.01,5.8-3.78c0-2.06-1.01-2.81-3.87-3.32l-4.62-.84c-3.02-.55-5.54-2.02-5.54-5.5,0-3.15,2.35-6.13,8.4-6.13s8.4,3.02,8.4,7.22v.88h-2.98v-.76c0-3.44-2.14-4.91-5.42-4.91-3.95,0-5.33,1.34-5.33,3.36s1.01,2.86,3.91,3.4l4.03.76c4.12.76,6.09,1.93,6.09,5.59,0,4.58-4.12,6.55-8.78,6.55-7.31,0-8.99-3.28-8.99-6.97Z"></path><path class="cls-8" d="m928.72,1976.64h2.98v6.51h-2.98v-6.51Zm0,11.76h2.94v21h-2.94v-21Z"></path><path class="cls-8" d="m939.05,1988.4h2.6l.29,3.49c1.01-2.14,3.28-4.03,7.35-4.03,4.75,0,7.77,2.52,7.77,7.94v13.61h-2.94v-13.27c0-4.33-2.14-5.71-5.5-5.71-3.82,0-6.64,2.69-6.64,5.63v13.36h-2.94v-21Z"></path><path class="cls-8" d="m975.76,1987.1h-3.36v-5.08c0-3.95.88-5.29,3.4-5.97l.67,1.85c-1.76.67-2.06,1.09-2.06,3.78v.34h1.34v5.08Zm5.92,0h-3.36v-5.08c0-3.95.88-5.29,3.4-5.97l.67,1.85c-1.76.67-2.06,1.09-2.06,3.78v.34h1.34v5.08Z"></path><path class="cls-8" d="m988.28,1988.4l6.89,17.98h.08l7.14-17.98h3.07v.04l-8.86,20.84-3.11,8.53h-2.98v-.04l3.19-8.36-8.78-20.96v-.04h3.36Z"></path><path class="cls-8" d="m1007.76,1985.84c1.76-.67,2.06-1.09,2.06-3.78v-.34h-1.34v-5.08h3.36v5.08c0,3.95-.88,5.29-3.4,5.97l-.67-1.85Zm5.92,0c1.76-.67,2.06-1.09,2.06-3.78v-.34h-1.34v-5.08h3.36v5.08c0,3.95-.88,5.29-3.4,5.97l-.67-1.85Z"></path><path class="cls-8" d="m1020.7,2003.19h3.36v6.22c0,3.95-.88,5.29-3.4,5.96l-.67-1.85c1.76-.67,2.06-1.09,2.06-3.78v-.34h-1.34v-6.22Z"></path><path class="cls-8" d="m1041.7,1987.1h-3.36v-5.08c0-3.95.88-5.29,3.4-5.97l.67,1.85c-1.76.67-2.06,1.09-2.06,3.78v.34h1.34v5.08Zm5.92,0h-3.36v-5.08c0-3.95.88-5.29,3.4-5.97l.67,1.85c-1.76.67-2.06,1.09-2.06,3.78v.34h1.34v5.08Z"></path><path class="cls-8" d="m1056.95,2012.43c0,3.53-1.68,5.84-5.04,5.84-1.18,0-2.02-.13-2.94-.38v-2.6c.8.17,1.47.29,2.27.29,1.93,0,2.77-1.26,2.77-3.65v-23.52h2.94v24.03Zm-2.94-35.79h2.98v6.51h-2.98v-6.51Z"></path><path class="cls-8" d="m1062.45,1985.84c1.76-.67,2.06-1.09,2.06-3.78v-.34h-1.34v-5.08h3.36v5.08c0,3.95-.88,5.29-3.4,5.97l-.67-1.85Zm5.92,0c1.76-.67,2.06-1.09,2.06-3.78v-.34h-1.34v-5.08h3.36v5.08c0,3.95-.88,5.29-3.4,5.97l-.67-1.85Z"></path><path class="cls-8" d="m1086.72,2003.61c0-3.95,2.23-6.09,7.86-6.09h6.34v-1.72c0-2.98-1.26-5.42-5.46-5.42-3.95,0-5.33,1.51-5.33,4.12v.88h-2.98v-.84c0-5,4.2-6.68,8.32-6.68,5.8,0,8.4,2.86,8.4,8.44v13.11h-2.06l-.55-2.98h-.08c-1.26,1.89-3.7,3.53-7.35,3.53-4.91,0-7.1-2.31-7.1-6.34Zm14.2-1.85v-1.76h-7.02c-2.65,0-4.03.92-4.03,3.61,0,2.35,1.26,3.86,4.5,3.86,4.16,0,6.55-2.14,6.55-5.71Z"></path><path class="cls-8" d="m1111.21,1988.4h2.6l.29,3.49c1.01-2.14,3.28-4.03,7.35-4.03,4.75,0,7.77,2.52,7.77,7.94v13.61h-2.94v-13.27c0-4.33-2.14-5.71-5.5-5.71-3.82,0-6.64,2.69-6.64,5.63v13.36h-2.94v-21Z"></path><path class="cls-8" d="m1134.9,1998.94c0-7.1,4.29-11.09,10.04-11.09,3.7,0,6.22,1.6,7.31,3.74h.04v-14.95h2.94v32.77h-1.97l-.67-3.61h-.08c-1.18,2.31-3.95,4.16-7.77,4.16-6.3,0-9.83-3.99-9.83-11.01Zm17.64-.5c0-5.5-3.36-8.07-7.35-8.07-3.11,0-7.14,1.47-7.14,8.4s3.61,8.61,7.14,8.61c4.24,0,7.35-2.73,7.35-8.95Z"></path><path class="cls-8" d="m1173.92,1987.1h-3.36v-5.08c0-3.95.88-5.29,3.4-5.97l.67,1.85c-1.76.67-2.06,1.09-2.06,3.78v.34h1.34v5.08Zm5.92,0h-3.36v-5.08c0-3.95.88-5.29,3.4-5.97l.67,1.85c-1.76.67-2.06,1.09-2.06,3.78v.34h1.34v5.08Z"></path><path class="cls-8" d="m1183.91,2011.21v-.13h3.11v.13c0,2.9,1.93,4.33,6.13,4.33,4.79,0,7.01-2.94,7.01-7.86v-2.1h-.08c-1.09,2.18-3.65,4.08-7.48,4.08-6.3,0-9.75-3.99-9.75-10.71,0-7.1,4.37-11.09,9.96-11.09,3.78,0,6.55,1.81,7.56,4.12h.13l.29-3.57h2.31v19.16c0,5.88-2.81,10.71-10.33,10.71-6.3,0-8.86-2.98-8.86-7.06Zm16.59-12.77c0-5.5-3.36-8.07-7.35-8.07-3.02,0-7.14,1.47-7.14,8.4s3.57,8.32,7.1,8.32c4.24,0,7.39-2.73,7.39-8.65Z"></path><path class="cls-8" d="m1207.73,1985.84c1.76-.67,2.06-1.09,2.06-3.78v-.34h-1.34v-5.08h3.36v5.08c0,3.95-.88,5.29-3.4,5.97l-.67-1.85Zm5.92,0c1.76-.67,2.06-1.09,2.06-3.78v-.34h-1.34v-5.08h3.36v5.08c0,3.95-.88,5.29-3.4,5.97l-.67-1.85Z"></path><path class="cls-8" d="m1436.93,1988.55h-3.36v-5.08c0-3.95.88-5.29,3.4-5.97l.67,1.85c-1.76.67-2.06,1.09-2.06,3.78v.34h1.34v5.08Zm5.92,0h-3.36v-5.08c0-3.95.88-5.29,3.4-5.97l.67,1.85c-1.76.67-2.06,1.09-2.06,3.78v.34h1.34v5.08Z"></path><path class="cls-8" d="m1444.82,2004.43v-1.18h2.94v1.13c0,2.86,2.14,4.5,5.96,4.5s5.8-1.01,5.8-3.78c0-2.06-1.01-2.81-3.86-3.32l-4.62-.84c-3.02-.55-5.54-2.02-5.54-5.5,0-3.15,2.35-6.13,8.4-6.13s8.4,3.03,8.4,7.23v.88h-2.98v-.76c0-3.44-2.14-4.91-5.42-4.91-3.95,0-5.33,1.34-5.33,3.36s1.01,2.86,3.91,3.4l4.03.76c4.12.76,6.09,1.93,6.09,5.59,0,4.58-4.12,6.55-8.78,6.55-7.31,0-8.99-3.28-8.99-6.97Z"></path><path class="cls-8" d="m1464.9,1987.29c1.76-.67,2.06-1.09,2.06-3.78v-.34h-1.34v-5.08h3.36v5.08c0,3.95-.88,5.29-3.4,5.96l-.67-1.85Zm5.92,0c1.76-.67,2.06-1.09,2.06-3.78v-.34h-1.34v-5.08h3.36v5.08c0,3.95-.88,5.29-3.4,5.96l-.67-1.85Z"></path><path class="cls-8" d="m1487.7,1989.9v-.04h2.98l5.75,17.47h.08l6.3-17.47h2.69l6.17,17.47h.08l5.75-17.47h2.86v.04l-7.18,20.96h-3.03l-5.96-17.06h-.08l-6.22,17.06h-3.03l-7.18-20.96Z"></path><path class="cls-8" d="m1525.21,1978.09h2.98v6.51h-2.98v-6.51Zm0,11.76h2.94v21h-2.94v-21Z"></path><path class="cls-8" d="m1546.51,2008.17v2.61c-.76.21-2.14.59-4.03.59-3.82,0-6.34-1.6-6.34-6.89v-12.18h-4.16v-2.44h4.16v-6.05l2.94-1.43v7.48h5.92v2.44h-5.92v11.8c0,2.81.76,4.58,3.4,4.58,1.6,0,3.23-.29,4.03-.5Z"></path><path class="cls-8" d="m1551.33,1978.09h2.94v15.16c1.05-2.1,3.28-3.95,7.31-3.95,4.75,0,7.77,2.52,7.77,7.94v13.61h-2.94v-13.28c0-4.33-2.14-5.71-5.5-5.71-3.82,0-6.64,2.69-6.64,5.63v13.36h-2.94v-32.77Z"></path><path class="cls-8" d="m1585.1,2005.06c0-3.95,2.23-6.09,7.86-6.09h6.34v-1.72c0-2.98-1.26-5.42-5.46-5.42-3.95,0-5.33,1.51-5.33,4.12v.88h-2.98v-.84c0-5,4.2-6.68,8.32-6.68,5.8,0,8.4,2.86,8.4,8.44v13.11h-2.06l-.55-2.98h-.08c-1.26,1.89-3.7,3.53-7.35,3.53-4.91,0-7.1-2.31-7.1-6.34Zm14.2-1.85v-1.76h-7.02c-2.65,0-4.03.92-4.03,3.61,0,2.35,1.26,3.86,4.5,3.86,4.16,0,6.55-2.14,6.55-5.71Z"></path><path class="cls-8" d="m1617.36,2004.43v-1.18h2.94v1.13c0,2.86,2.14,4.5,5.96,4.5s5.8-1.01,5.8-3.78c0-2.06-1.01-2.81-3.87-3.32l-4.62-.84c-3.02-.55-5.54-2.02-5.54-5.5,0-3.15,2.35-6.13,8.4-6.13s8.4,3.03,8.4,7.23v.88h-2.98v-.76c0-3.44-2.14-4.91-5.42-4.91-3.95,0-5.33,1.34-5.33,3.36s1.01,2.86,3.91,3.4l4.03.76c4.12.76,6.09,1.93,6.09,5.59,0,4.58-4.12,6.55-8.78,6.55-7.31,0-8.99-3.28-8.99-6.97Z"></path><path class="cls-8" d="m1671.71,1997.25v13.61h-2.94v-13.28c0-4.33-2.14-5.71-4.75-5.71-3.82,0-6.17,2.69-6.17,5.63v13.36h-2.94v-13.28c0-4.33-1.85-5.71-4.83-5.71-3.61,0-6.13,2.69-6.13,5.63v13.36h-2.94v-21h2.61l.29,3.49c1.01-2.02,3.07-4.03,6.93-4.03,2.94,0,5.38,1.39,6.43,4.29,1.22-2.39,3.57-4.29,7.14-4.29,4.29,0,7.31,2.52,7.31,7.94Z"></path><path class="cls-8" d="m1677.8,2005.06c0-3.95,2.23-6.09,7.86-6.09h6.34v-1.72c0-2.98-1.26-5.42-5.46-5.42-3.95,0-5.33,1.51-5.33,4.12v.88h-2.98v-.84c0-5,4.2-6.68,8.32-6.68,5.8,0,8.4,2.86,8.4,8.44v13.11h-2.06l-.55-2.98h-.08c-1.26,1.89-3.7,3.53-7.35,3.53-4.92,0-7.1-2.31-7.1-6.34Zm14.2-1.85v-1.76h-7.01c-2.65,0-4.03.92-4.03,3.61,0,2.35,1.26,3.86,4.49,3.86,4.16,0,6.55-2.14,6.55-5.71Z"></path><path class="cls-8" d="m1702.28,1978.09h2.94v32.77h-2.94v-32.77Z"></path><path class="cls-8" d="m1712.57,1978.09h2.94v32.77h-2.94v-32.77Z"></path><path class="cls-8" d="m1730.84,2000.52c0-6.38,3.23-11.22,10-11.22s8.95,3.91,8.95,8.95v.42h-3.11v-.63c0-3.82-1.64-6.09-5.84-6.09-4.75,0-7.02,3.11-7.02,8.4,0,5.63,2.39,8.48,6.93,8.48,3.82,0,5.84-1.85,5.92-5.67h3.02c-.08,4.66-3.15,8.23-9.03,8.23-7.22,0-9.83-4.75-9.83-10.88Z"></path><path class="cls-8" d="m1755.24,2003.46v-13.61h2.94v13.27c0,4.33,2.14,5.71,5.42,5.71,3.74,0,6.55-2.69,6.55-5.63v-13.36h2.94v21h-2.6l-.25-3.36h-.08c-.97,2.02-3.24,3.91-7.23,3.91-4.66,0-7.69-2.52-7.69-7.94Z"></path><path class="cls-8" d="m1780.44,1989.85h2.6l.29,3.91c1.01-2.14,3.07-4.45,6.76-4.45,1.26,0,2.19.21,3.03.55v3.15c-1.13-.5-2.1-.76-3.4-.76-3.74,0-6.34,2.81-6.34,5.75v12.86h-2.94v-21Z"></path><path class="cls-8" d="m1794.6,1989.9v-.04h3.36l7.35,17.98h.08l7.1-17.98h3.07v.04l-8.74,20.96h-3.03l-9.2-20.96Z"></path><path class="cls-8" d="m1836.39,2001.36h-15.96c.17,4.79,2.48,7.48,6.93,7.48,3.82,0,5.67-1.43,5.96-4.83h2.98c-.29,4.24-3.28,7.39-9.03,7.39-7.06,0-9.83-4.66-9.83-10.88s3.23-11.22,10-11.22,8.95,3.99,8.95,10.21v1.85Zm-3.11-2.98c0-4.45-1.72-6.55-5.92-6.55s-6.55,2.65-6.89,6.97h12.81v-.42Z"></path><rect class="cls-9" x="1529.55" y="2179.24" width="123.06" height="123.06" rx="61.53" ry="61.53"></rect><path class="cls-8" d="m1305.06,2400.81c-11.86,7.04-22.28,10.58-31.25,10.58-9.94,0-17.63-3.53-23.07-10.58-5.45-7.04-8.18-15.22-8.18-24.52,0-8.01.64-16.19,1.93-24.52,1.28-8.33,2.63-16.59,4.08-24.77,1.45-8.16,2.8-16.42,4.08-24.76,1.28-8.33,1.93-16.51,1.93-24.52,0-17.31-8.02-25.97-24.04-25.97-8.02,0-15.08,1.76-21.16,5.3-6.1,3.52-11.23,8.16-15.39,13.94-4.17,5.76-7.54,12.18-10.1,19.23-2.57,7.06-4.33,14.11-5.3,21.16l-12.49,96.16h-28.37l12.98-108.66c.64-2.24,1.04-4.49,1.2-6.73.16-2.24.25-4.64.25-7.21,0-8.33-1.68-15.95-5.05-22.84-3.37-6.9-9.7-10.34-18.99-10.34-8.35,0-15.72,2.01-22.12,6.01-6.42,4-11.95,9.06-16.59,15.14-4.66,6.09-8.33,12.91-11.06,20.44-2.73,7.54-4.56,14.83-5.53,21.87l-12.01,92.32h-27.9l14.43-116.35,2.41-17.31c.31-2.88.55-5.78.72-8.66.16-2.88.23-5.76.23-8.65,0-2.57-.08-4.97-.23-7.21-.17-2.24-.4-4.49-.72-6.73l-2.41-14.43h28.37c.97,4.8,1.6,9.38,1.93,13.69.31,4.33.48,8.9.48,13.71,6.73-9.93,14.66-17.79,23.79-23.56,9.14-5.78,19.8-8.66,31.98-8.66,21.47,0,36.55,10.26,45.19,30.77,7.37-9.61,15.87-17.14,25.49-22.59,9.61-5.45,20.67-8.18,33.17-8.18,14.37,0,25.42,4.5,33.14,13.46,7.72,8.99,11.58,20.67,11.58,35.1,0,8.35-.55,16.67-1.62,25-1.07,8.35-2.3,16.59-3.68,24.77-1.38,8.16-2.61,16.34-3.68,24.52-1.07,8.18-1.6,16.59-1.6,25.24,0,3.85.8,7.54,2.4,11.06,1.6,3.53,4.81,5.3,9.61,5.3,4.49,0,10.26-2.57,17.32-7.7l41.35-30.3,6.25,20.67-43.76,30.3Z"></path><path class="cls-8" d="m1587.78,2241.66c-5.13,0-10.02,1.53-14.66,4.56-4.66,3.05-8.9,6.9-12.74,11.54-3.85,4.64-7.38,9.61-10.58,14.91-3.21,5.28-5.93,10.17-8.18,14.66-6.73,13.46-14.83,27.57-24.27,42.31-9.47,14.75-20.28,29.02-32.46,42.79-11.86,13.79-24.76,23.96-38.7,30.53-13.94,6.56-28.13,9.86-42.56,9.86-40.38-.97-61.71-27.09-63.95-78.37,0-14.1,2.09-27.81,6.26-41.11,4.16-13.3,10.33-25.16,18.51-35.58,8.18-10.41,18.18-18.76,30.05-25,11.86-6.25,25.49-9.38,40.86-9.38,12.18,0,22.36,3.44,30.53,10.3,8.18,6.87,12.26,16.71,12.26,29.49,0,6.08-2.01,12.31-6.01,18.7-4,6.39-9.3,12.7-15.86,18.94-6.57,6.23-13.79,12.3-21.64,18.22-7.86,5.91-15.7,11.5-23.56,16.77-7.86,5.27-15.16,10.15-21.89,14.62-6.73,4.49-12.01,8.31-15.86,11.5,1.6,7.67,5.44,14.23,11.54,19.66,6.08,5.44,13.62,8.15,22.59,8.15,14.1-.95,26.61-4.63,37.51-11.02,10.89-6.39,20.74-14.46,29.57-24.21,8.8-9.76,16.83-20.54,24.04-32.37,7.21-11.82,14.18-23.65,20.91-35.48,3.21-6.39,6.98-13.26,11.31-20.61,4.33-7.36,10.02-14.87,17.06-22.54,7.06-8,14.11-13.5,21.16-16.54,7.06-3.04,14.27-4.56,21.64-4.56l5.3,14.43-8.18,4.81Zm-137.03,22.12c0-5.13-1.93-9.14-5.76-12.03-3.85-2.88-8.83-4.33-14.91-4.33-10.26,0-19.32,2.82-27.17,8.41-7.86,5.62-14.43,12.68-19.71,21.16-5.3,8.5-9.22,17.63-11.79,27.42-2.57,9.78-3.85,18.68-3.85,26.69,0,1.28.08,2.4.25,3.37.16.95.23,1.92.23,2.88,4.81-3.21,11.78-7.93,20.92-14.19,9.13-6.25,18.27-12.98,27.4-20.19,9.14-7.21,17.15-14.35,24.04-21.39,6.9-7.06,10.34-12.99,10.34-17.79Z"></path><path class="cls-8" d="m1612.78,2245.99c-6.1-2.24-11.87-3.37-17.32-3.37-6.73,0-12.34,2.24-16.83,6.74-4.49,4.5-6.73,10.13-6.73,16.88,0,3.22,1.76,8.13,5.3,14.71,3.52,6.59,7.37,14.06,11.53,22.42,4.16,8.36,8.01,17.03,11.54,26.03,3.52,9,5.3,17.36,5.3,25.07,0,9.65-1.85,18.09-5.53,25.32-3.69,7.24-8.66,13.34-14.91,18.33-6.25,4.98-13.55,8.69-21.87,11.09-8.35,2.41-16.99,3.63-25.97,3.63-8.02,0-15.63-1.37-22.84-4.1-7.21-2.71-13.71-7.12-19.47-13.23l3.85-29.32c6.4,8.01,12.49,13.79,18.27,17.31,5.76,3.53,14.1,5.28,25,5.28,8.96,0,16.9-3.04,23.79-9.13,6.9-6.09,10.34-13.94,10.34-23.56,0-6.42-1.76-13.23-5.3-20.44-3.52-7.21-7.29-14.58-11.3-22.12-4.02-7.53-7.77-14.97-11.3-22.36-3.53-7.37-5.3-14.43-5.3-21.16s1.45-13.54,4.33-19.47,6.73-11.06,11.54-15.39c4.8-4.33,10.33-7.6,16.59-9.85,6.25-2.24,12.73-3.38,19.47-3.38,4.8,0,10.25,1.73,16.34,5.18l1.45,18.87Z"></path><path class="cls-9" d="m443.77,2177.86h-102.33l-10.62,88.81h93.64l-3.38,23.17h-92.67l-11.59,94.6h103.78l-3.38,23.65h-131.29l30.4-254.36h130.81l-3.38,24.14Z"></path><path class="cls-8" d="m651.06,2402.15c-9.34,6.43-19.8,9.65-31.37,9.65-10.78,0-18.45-3.06-23.04-9.17-4.6-6.11-6.89-14.48-6.89-25.1,0-8.37.56-16.58,1.69-24.62,1.13-8.04,2.33-16.17,3.63-24.38,1.27-8.21,2.49-16.33,3.61-24.38,1.13-8.04,1.69-16.24,1.69-24.62,0-7.72-1.61-14.23-4.83-19.55-3.22-5.3-9.34-7.96-18.33-7.96-10.3,0-19.16,2.74-26.55,8.21-7.41,5.47-13.68,12.39-18.83,20.75-5.15,8.37-9.09,17.37-11.82,27.02-2.74,9.66-4.58,18.67-5.55,27.04l-10.13,73.36h-27.99l15.45-122.12c.64-5.13,1.11-10.37,1.44-15.69.31-5.3.48-10.53.48-15.69,0-4.18-.24-8.45-.72-12.79-.48-4.33-1.05-8.93-1.69-13.75h27.51c1.61,5.79,2.41,11.26,2.41,16.41v16.89c7.4-10.93,16.01-20.03,25.83-27.26,9.81-7.24,21.96-10.87,36.44-10.87,15.69,0,27.34,4.58,34.93,13.76,7.59,9.17,11.4,21.47,11.4,36.92,0,16.41-1.78,32.75-5.32,48.99-3.54,16.25-5.3,32.58-5.3,48.98,0,4.52.96,8.21,2.89,11.1,1.92,2.89,5.3,4.35,10.13,4.35,3.86,0,7.55-1.13,11.1-3.38,3.54-2.25,6.59-4.83,9.17-7.72l-1.44,25.58Z"></path><path class="cls-8" d="m822.75,2249.56l-113.91,132.79c5.47.33,10.85.58,16.17.73,5.3.16,10.7.24,16.17.24h32.82c5.79,0,11.74-.24,17.86-.72,6.1-.48,12.06-1.36,17.86-2.66l-3.86,26.55c-5.16,1.28-10.3,2.08-15.45,2.41-5.15.31-10.46.48-15.92.48-35.08,0-70.15-.48-105.23-1.45l4.35-25.1,110.53-130.8h-87.84l3.38-23.65h126.45l-3.38,21.17Z"></path><path class="cls-8" d="m1070.06,2291.5c-9.68,24.19-22.34,47.35-37.99,69.45-15.65,22.11-35.56,44.92-59.76,68.47-2.9,19.04-6.87,36.53-11.85,52.51-5.01,15.96-11.46,29.76-19.36,41.38-7.9,11.62-17.5,20.73-28.79,27.34-11.3,6.6-24.68,9.91-40.17,9.91s-27.99-3.62-37.51-10.88c-9.52-7.26-14.28-17.67-14.28-31.22s4.44-23.88,13.31-32.91c8.87-9.03,19.68-16.93,32.43-23.71,12.75-6.77,26.29-13.15,40.66-19.11,14.35-5.97,27.17-12.34,38.46-19.11.33-2.26.74-4.53,1.22-6.77.47-2.27.96-4.92,1.44-7.99.49-3.06,1.05-6.6,1.69-10.65.64-4.03,1.29-9.11,1.94-15.24-8.07,9.04-16.95,16.46-26.62,22.26-9.68,5.8-20.49,8.72-32.43,8.72-15.48,0-27.5-4.61-36.05-13.8-8.56-9.2-12.83-21.21-12.83-36.05,0-10,.64-19.6,1.93-28.8,1.29-9.19,2.82-18.55,4.61-28.07,1.76-9.52,3.3-19.36,4.59-29.52,1.29-10.16,1.93-21.04,1.93-32.66v-8.23c0-2.9-.16-5.8-.49-8.7h28.55c.33,2.59.49,5.16.49,7.75v7.73c0,10.33-.72,20.33-2.18,30.01-1.44,9.68-2.98,19.28-4.59,28.79-1.61,9.53-3.14,19.05-4.59,28.55-1.46,9.53-2.18,19.11-2.18,28.8,0,18.06,8.39,27.1,25.17,27.1,10.96,0,20.24-2.73,27.83-8.23,7.57-5.47,13.86-12.34,18.86-20.56,5-8.23,8.87-17.26,11.62-27.11,2.74-9.83,4.59-19.27,5.57-28.3l8.23-74.53h28.55l-21.29,171.79c13.55-14.19,27.58-31.36,42.1-51.54,14.52-20.15,26.45-41.85,35.81-65.09l15.96,8.23Zm-128.73,156.8c-5.49,3.54-13.55,7.57-24.19,12.09-10.65,4.52-21.29,9.69-31.94,15.49-10.65,5.8-20.01,12.1-28.07,18.88-8.06,6.77-12.09,14.03-12.09,21.78,0,8.38,2.57,14.35,7.73,17.91,5.16,3.54,12.26,5.32,21.29,5.32,9.69,0,18.16-2.51,25.42-7.5,7.26-5.01,13.55-11.7,18.86-20.09,5.33-8.39,9.85-18.08,13.56-29.04,3.7-10.97,6.84-22.58,9.43-34.84Z"></path><rect class="cls-9" x="801.98" y="2429.73" width="195.18" height="195.18" rx="97.59" ry="97.59"></rect><g class="cls-11"><path class="cls-10" d="m1070.06,2291.5c-9.68,24.19-22.34,47.35-37.99,69.45-15.65,22.11-35.56,44.92-59.76,68.47-2.9,19.04-6.87,36.53-11.85,52.51-5.01,15.96-11.46,29.76-19.36,41.38-7.9,11.62-17.5,20.73-28.79,27.34-11.3,6.6-24.68,9.91-40.17,9.91s-27.99-3.62-37.51-10.88c-9.52-7.26-14.28-17.67-14.28-31.22s4.44-23.88,13.31-32.91c8.87-9.03,19.68-16.93,32.43-23.71,12.75-6.77,26.29-13.15,40.66-19.11,14.35-5.97,27.17-12.34,38.46-19.11.33-2.26.74-4.53,1.22-6.77.47-2.27.96-4.92,1.44-7.99.49-3.06,1.05-6.6,1.69-10.65.64-4.03,1.29-9.11,1.94-15.24-8.07,9.04-16.95,16.46-26.62,22.26-9.68,5.8-20.49,8.72-32.43,8.72-15.48,0-27.5-4.61-36.05-13.8-8.56-9.2-12.83-21.21-12.83-36.05,0-10,.64-19.6,1.93-28.8,1.29-9.19,2.82-18.55,4.61-28.07,1.76-9.52,3.3-19.36,4.59-29.52,1.29-10.16,1.93-21.04,1.93-32.66v-8.23c0-2.9-.16-5.8-.49-8.7h28.55c.33,2.59.49,5.16.49,7.75v7.73c0,10.33-.72,20.33-2.18,30.01-1.44,9.68-2.98,19.28-4.59,28.79-1.61,9.53-3.14,19.05-4.59,28.55-1.46,9.53-2.18,19.11-2.18,28.8,0,18.06,8.39,27.1,25.17,27.1,10.96,0,20.24-2.73,27.83-8.23,7.57-5.47,13.86-12.34,18.86-20.56,5-8.23,8.87-17.26,11.62-27.11,2.74-9.83,4.59-19.27,5.57-28.3l8.23-74.53h28.55l-21.29,171.79c13.55-14.19,27.58-31.36,42.1-51.54,14.52-20.15,26.45-41.85,35.81-65.09l15.96,8.23Zm-128.73,156.8c-5.49,3.54-13.55,7.57-24.19,12.09-10.65,4.52-21.29,9.69-31.94,15.49-10.65,5.8-20.01,12.1-28.07,18.88-8.06,6.77-12.09,14.03-12.09,21.78,0,8.38,2.57,14.35,7.73,17.91,5.16,3.54,12.26,5.32,21.29,5.32,9.69,0,18.16-2.51,25.42-7.5,7.26-5.01,13.55-11.7,18.86-20.09,5.33-8.39,9.85-18.08,13.56-29.04,3.7-10.97,6.84-22.58,9.43-34.84Z"></path></g><path class="cls-10" d="m1367.81,2334.46c-.17-.97-.25-2.09-.25-3.37,0-8.01,1.28-16.9,3.85-26.69,2.57-9.78,6.5-18.91,11.79-27.42,5.28-8.48,11.84-15.53,19.71-21.16,7.85-5.6,16.9-8.41,27.17-8.41,6.08,0,11.06,1.45,14.91,4.33,3.83,2.88,5.76,6.9,5.76,12.03,0,4.8-3.44,10.73-10.34,17.79-6.89,7.04-14.89,14.18-24.04,21.39-9.13,7.21-18.27,13.94-27.4,20.19-9.14,6.26-16.11,10.98-20.92,14.19,0-.97-.08-1.93-.23-2.88Z"></path><g class="cls-13"><path class="cls-10" d="m1588.73,2303.38c-4.16-8.36-8.01-15.83-11.53-22.42-3.53-6.59-5.3-11.49-5.3-14.71,0-6.74,2.24-12.38,6.73-16.88,4.49-4.5,10.1-6.74,16.83-6.74,5.45,0,11.22,1.12,17.32,3.37l-1.45-18.87c-6.09-3.44-11.54-5.18-16.34-5.18-3.03,0-6.01.24-8.94.7-5.77.51-11.45,1.95-17.03,4.35-7.04,3.04-14.1,8.54-21.16,16.54-7.04,7.67-12.73,15.18-17.06,22.54-4.33,7.34-8.1,14.22-11.31,20.61-6.73,11.83-13.69,23.66-20.91,35.48-7.21,11.83-15.23,22.62-24.04,32.37-8.83,9.74-18.68,17.82-29.57,24.21-10.9,6.39-23.41,10.07-37.51,11.02-8.97,0-16.51-2.71-22.59-8.15-6.1-5.43-9.94-11.99-11.54-19.66,3.85-3.2,9.13-7.02,15.86-11.5,6.73-4.47,14.02-9.35,21.89-14.62,7.85-5.27,15.69-10.86,23.56-16.77,7.85-5.92,15.06-11.99,21.64-18.22,6.56-6.23,11.86-12.55,15.86-18.94,4-6.39,6.01-12.63,6.01-18.7,0-12.78-4.08-22.62-12.26-29.49-8.18-6.86-18.35-10.3-30.53-10.3-15.38,0-29.01,3.13-40.86,9.38-11.87,6.25-21.87,14.59-30.05,25-8.18,10.42-14.35,22.28-18.51,35.58-4.17,13.3-6.26,27.01-6.26,41.11,2.24,51.28,23.57,77.41,63.95,78.37,14.43,0,28.62-3.3,42.56-9.86,13.94-6.57,26.84-16.75,38.7-30.53,12.18-13.77,22.99-28.04,32.46-42.79,9.44-14.74,17.54-28.85,24.27-42.31.93-1.87,1.97-3.82,3.07-5.83.87,3.16,2.08,6.39,3.66,9.68,3.52,7.38,7.28,14.83,11.3,22.36,4,7.54,7.77,14.91,11.29,22.12,3.53,7.21,5.3,14.02,5.3,20.44,0,9.61-3.44,17.46-10.34,23.56-6.89,6.09-14.83,9.13-23.79,9.13-10.9,0-19.24-1.75-25-5.28-5.78-3.52-11.87-9.3-18.27-17.31l-3.85,29.32c5.76,6.1,12.26,10.51,19.47,13.23,7.21,2.73,14.82,4.1,22.84,4.1,8.97,0,17.62-1.21,25.97-3.63,8.32-2.4,15.63-6.1,21.87-11.09,6.25-4.98,11.22-11.09,14.91-18.33,3.68-7.23,5.53-15.66,5.53-25.32,0-7.71-1.77-16.07-5.3-25.07-3.53-9-7.38-17.67-11.54-26.03Z"></path></g><path class="cls-9" d="m843.65,1468.13c0-11.37-2.46-20.86-7.38-28.44-4.93-7.59-13.72-11.39-26.41-11.39-14.92,0-26.58,4.51-34.98,13.52-8.41,9.01-14.83,20.08-19.27,33.19-4.45,13.13-7.46,26.8-9.04,41.03-1.59,14.23-3.18,26.56-4.76,36.99,4.76,3.16,9.68,5.77,14.76,7.82,5.07,2.05,10.47,3.09,16.18,3.09,12.37,0,23.08-3,32.13-9.01,9.04-6,16.42-13.67,22.13-22.99,5.71-9.32,9.91-19.61,12.61-30.83,2.69-11.22,4.05-22.22,4.05-32.97Z"></path><rect class="cls-9" x="1041.78" y="2867.7" width="138.34" height="138.34" rx="69.17" ry="69.17"></rect><g class="cls-12"><path class="cls-10" d="m1201.79,3129.15c-22.51,43.75-48.67,76.89-78.46,99.39h-.48c-7.93,5.07-16.81,7.61-26.64,7.61s-16.87-2.93-21.16-8.8c-4.28-5.86-6.9-13.07-7.84-21.63-7.3,10.46-15.78,18.47-25.45,24.01-9.68,5.54-20.68,8.32-33.05,8.32-10.15,0-18.86-1.83-26.15-5.47-7.3-3.64-13.16-8.56-17.6-14.74-4.45-6.19-7.69-13.32-9.75-21.4-2.06-8.09-3.1-16.72-3.1-25.92,0-13.63,2.39-27.59,7.13-41.85,4.76-14.27,11.42-27.18,19.98-38.76,8.55-11.57,18.94-21,31.14-28.3,12.2-7.29,25.92-10.94,41.14-10.94,5.7,0,11.25.72,16.64,2.14,5.39,1.43,10.77,2.93,16.18,4.52l16.64-135.53h27.1l-30.43,250.15c-.65,3.49-1.12,7.3-1.43,11.41-.31,4.13-.48,8.09-.48,11.89s.88,7.46,2.62,10.94c1.74,3.5,4.84,5.23,9.28,5.23,3.81,0,7.21-.95,10.23-2.85,3.01-1.9,5.78-3.96,8.32-6.19v.48c25.36-24.41,45.81-52.62,61.34-84.65l14.27,10.93Zm-120.79-46.13c-9.52-4.44-18.72-6.66-27.58-6.66-10.78,0-20.54,3.02-29.26,9.04-8.72,6.03-16.16,13.64-22.34,22.83-6.18,9.2-10.94,19.19-14.27,29.96-3.33,10.78-4.99,20.92-4.99,30.44,0,5.08.39,10.07,1.19,14.98.79,4.92,2.3,9.36,4.52,13.32,2.22,3.97,5.24,7.13,9.04,9.51,3.79,2.38,8.86,3.57,15.21,3.57,9.83,0,18.23-2.14,25.21-6.42,6.97-4.28,12.91-9.91,17.83-16.89,4.92-6.97,8.8-14.98,11.66-24.01,2.85-9.04,5.15-18.23,6.89-27.58,1.74-9.35,3.1-18.54,4.04-27.58.95-9.04,1.91-17.2,2.86-24.49Z"></path></g><line class="cls-2" x1="347.03" y1="2429.73" x2="347.03" y2="2627.57"></line><g class="cls-16"><path class="cls-10" d="m1044.95,1463.05c-6.03,11.74-12.21,23.01-18.55,33.79-6.35,10.79-12.7,21.11-19.04,30.93-6.35,9.84-12.3,18.56-17.84,26.18-5.56,7.62-10.88,14.12-15.94,19.51-5.09,5.4-10.32,10.72-15.71,15.94-5.4,5.24-11.1,10.55-17.13,15.94-1.9,15.23-4.92,29.51-9.04,42.84-4.13,13.32-9.68,26.17-16.67,38.55-6.66,12.37-14.68,22.84-24.03,31.41-9.36,8.56-20.71,12.85-34.03,12.85-10.78,0-20.31-3.18-28.56-9.51-8.25-6.35-12.69-16.18-13.32-29.51,0-5.71,1.11-11.26,3.33-16.65,2.22-5.4,5.16-10.55,8.8-15.47,3.65-4.92,7.85-9.36,12.61-13.32,4.76-3.98,9.51-7.38,14.28-10.24,9.84-5.07,20.06-10.55,30.7-16.42,10.62-5.87,20.69-12.6,30.21-20.22,4.44-35.22,8.65-68.54,12.61-99.95,3.96-31.41,7.86-63.13,11.66-95.19h27.61l-22.37,173.24c7.62-7.29,15.3-16.02,23.08-26.18,7.77-10.15,15.3-20.85,22.61-32.12,7.29-11.26,14.19-22.36,20.69-33.31,6.51-10.95,12.3-20.71,17.38-29.27l16.65,6.18Zm-134.2,162.76c-7.31,5.72-14.76,10.62-22.37,14.76l-23.79,12.85c-7.93,4.44-14.43,9.84-19.52,16.19-5.06,6.34-7.6,13.16-7.6,20.46.63,7.62,3.01,12.92,7.14,15.94,4.12,3.01,8.73,4.52,13.8,4.52,8.56,0,15.62-3.02,21.17-9.04,5.55-6.04,10.39-13.17,14.51-21.42,2.22-4.13,4.12-8.65,5.72-13.57,1.58-4.92,3.16-10.07,4.75-15.47,1.59-5.4,2.87-10.24,3.81-14.51.96-4.29,1.74-7.86,2.39-10.72Zm29.98-276.98c0-5.38,1.82-9.99,5.47-13.8,3.64-3.81,8.16-5.71,13.57-5.71s9.99,1.9,13.8,5.71c3.81,3.81,5.71,8.42,5.71,13.8s-1.9,9.93-5.71,13.57c-3.81,3.65-8.42,5.47-13.8,5.47s-9.93-1.82-13.57-5.47c-3.65-3.64-5.47-8.16-5.47-13.57Z"></path></g><line class="cls-2" x1="891.41" y1="1780.14" x2="891.41" y2="1965.56"></line><g class="cls-15"><path class="cls-10" d="m1291.35,2967.08c-2.55-5.4-6.13-10.01-10.73-13.82-4.6-3.81-10.08-5.73-16.44-5.73-3.81,0-7.38,1.12-10.72,3.34-3.34,2.24-6.44,5.17-9.29,8.82-2.86,3.66-5.4,7.87-7.63,12.63-2.22,4.77-3.97,9.54-5.24,14.3-2.55,9.53-4.54,19.95-5.96,31.22-1.43,11.27-2.79,23.59-4.05,36.93h105.78v20.49h-106.74l-16.21,163.93c-1.27,14.3-3.18,29.62-5.71,45.98-2.55,16.37-6.99,31.7-13.34,46-6.04,14.3-14.47,26.36-25.26,36.22-10.81,9.84-23.83,14.76-39.08,14.76-10.79,0-19.53-1.95-26.2-5.83-6.67-3.9-12.71-8.51-18.11-13.78l11.91-22.33c3.81,5.08,8.18,9.37,13.11,12.88,4.94,3.49,10.57,5.24,16.92,5.24,7.32,0,13.66-1.84,19.05-5.48,5.4-3.67,10.02-8.27,13.83-13.85,3.8-5.57,6.9-11.7,9.28-18.38,2.39-6.7,4.37-13.04,5.96-19.09,2.55-9.55,4.77-22.36,6.67-38.42,1.91-16.08,3.97-36.21,6.19-60.4,3.18-31.83,5.73-58.32,7.63-79.48,1.91-21.16,3.34-37.15,4.29-47.97h-30.5l1.9-20.49h30.03c1.58-17.48,3.57-33.2,5.95-47.19,2.39-13.97,5.96-26.99,10.73-39.08,2.22-6.02,5.16-11.91,8.82-17.63,3.65-5.71,7.78-10.72,12.38-15.01,4.6-4.29,9.77-7.69,15.49-10.24,5.73-2.55,11.92-3.81,18.59-3.81,17.79,0,30.97,8.09,39.56,24.3l-12.86,20.97Z"></path><path class="cls-10" d="m1462.02,3227.08c-3.84,3.19-7.83,5.59-11.98,7.18-4.16,1.6-9.75,2.4-16.79,2.4-19.17,0-29.08-9.9-29.71-29.72-7.36,9.59-15.83,17.18-25.41,22.77-9.58,5.59-20.45,8.39-32.6,8.39-33.24,0-49.86-16.77-49.86-50.33,0-6.07.48-12.22,1.44-18.46.96-6.23,1.91-12.22,2.87-17.97,2.24-10.55,3.91-20.14,5.03-28.76,1.12-8.63,1.99-16.3,2.64-23.01.64-7.03.96-14.22.96-21.57s-.17-15.18-.48-23.49h28.76v4.8c.31,15.66-.48,31.16-2.41,46.49-1.91,15.34-4.15,30.68-6.71,46.02-.64,5.75-1.37,11.35-2.16,16.78-.79,5.44-1.2,11.02-1.2,16.77,0,18.22,8.79,27.33,26.37,27.33,8.31,0,15.73-1.76,22.29-5.27,6.54-3.52,12.15-8.07,16.77-13.67,4.63-5.59,8.39-11.9,11.26-18.93,2.89-7.02,4.95-14.21,6.24-21.57l12.46-98.75h28.28l-16.77,135.19c-.33.96-.48,3.52-.48,7.67,0,3.84.79,7.52,2.39,11.03,1.6,3.52,4.8,5.12,9.6,4.79,1.91.33,5.27-.79,10.06-3.35.96-.31,2.39-1.11,4.32-2.39,13.73-12.78,26.19-26.61,37.39-41.47,11.18-14.86,20.92-30.92,29.25-48.17l14.38,11.02c-22.38,42.83-47.79,75.58-76.23,98.28Z"></path><path class="cls-10" d="m1572.75,3226.12c-7.98,7.04-17.58,10.55-28.76,10.55-5.98,0-10.86-1.12-14.63-3.35-3.77-2.23-6.67-5.11-8.71-8.63-2.04-3.51-3.46-7.67-4.24-12.46-.78-4.79-1.17-9.59-1.17-14.38,0-6.39.47-13.26,1.43-20.61l29.73-256.47h27.8l-29.73,256.47c-.95,6.4-1.43,12.63-1.43,18.69,0,3.2.48,6.88,1.43,11.03.96,4.15,3.68,6.23,8.15,6.23,4.15,0,7.91-1.2,11.26-3.6,3.35-2.39,6.48-5.03,9.35-7.91l-.48,24.45Z"></path></g><g class="cls-14"><path class="cls-10" d="m1201.79,3129.15c-22.51,43.75-48.67,76.89-78.46,99.39h-.48c-7.93,5.07-16.81,7.61-26.64,7.61s-16.87-2.93-21.16-8.8c-4.28-5.86-6.9-13.07-7.84-21.63-7.3,10.46-15.78,18.47-25.45,24.01-9.68,5.54-20.68,8.32-33.05,8.32-10.15,0-18.86-1.83-26.15-5.47-7.3-3.64-13.16-8.56-17.6-14.74-4.45-6.19-7.69-13.32-9.75-21.4-2.06-8.09-3.1-16.72-3.1-25.92,0-13.63,2.39-27.59,7.13-41.85,4.76-14.27,11.42-27.18,19.98-38.76,8.55-11.57,18.94-21,31.14-28.3,12.2-7.29,25.92-10.94,41.14-10.94,5.7,0,11.25.72,16.64,2.14,5.39,1.43,10.77,2.93,16.18,4.52l16.64-135.53h27.1l-30.43,250.15c-.65,3.49-1.12,7.3-1.43,11.41-.31,4.13-.48,8.09-.48,11.89s.88,7.46,2.62,10.94c1.74,3.5,4.84,5.23,9.28,5.23,3.81,0,7.21-.95,10.23-2.85,3.01-1.9,5.78-3.96,8.32-6.19v.48c25.36-24.41,45.81-52.62,61.34-84.65l14.27,10.93Zm-120.79-46.13c-9.52-4.44-18.72-6.66-27.58-6.66-10.78,0-20.54,3.02-29.26,9.04-8.72,6.03-16.16,13.64-22.34,22.83-6.18,9.2-10.94,19.19-14.27,29.96-3.33,10.78-4.99,20.92-4.99,30.44,0,5.08.39,10.07,1.19,14.98.79,4.92,2.3,9.36,4.52,13.32,2.22,3.97,5.24,7.13,9.04,9.51,3.79,2.38,8.86,3.57,15.21,3.57,9.83,0,18.23-2.14,25.21-6.42,6.97-4.28,12.91-9.91,17.83-16.89,4.92-6.97,8.8-14.98,11.66-24.01,2.85-9.04,5.15-18.23,6.89-27.58,1.74-9.35,3.1-18.54,4.04-27.58.95-9.04,1.91-17.2,2.86-24.49Z"></path><path class="cls-10" d="m1291.35,2967.08c-2.55-5.4-6.13-10.01-10.73-13.82-4.6-3.81-10.08-5.73-16.44-5.73-3.81,0-7.38,1.12-10.72,3.34-3.34,2.24-6.44,5.17-9.29,8.82-2.86,3.66-5.4,7.87-7.63,12.63-2.22,4.77-3.97,9.54-5.24,14.3-2.55,9.53-4.54,19.95-5.96,31.22-1.43,11.27-2.79,23.59-4.05,36.93h105.78v20.49h-106.74l-16.21,163.93c-1.27,14.3-3.18,29.62-5.71,45.98-2.55,16.37-6.99,31.7-13.34,46-6.04,14.3-14.47,26.36-25.26,36.22-10.81,9.84-23.83,14.76-39.08,14.76-10.79,0-19.53-1.95-26.2-5.83-6.67-3.9-12.71-8.51-18.11-13.78l11.91-22.33c3.81,5.08,8.18,9.37,13.11,12.88,4.94,3.49,10.57,5.24,16.92,5.24,7.32,0,13.66-1.84,19.05-5.48,5.4-3.67,10.02-8.27,13.83-13.85,3.8-5.57,6.9-11.7,9.28-18.38,2.39-6.7,4.37-13.04,5.96-19.09,2.55-9.55,4.77-22.36,6.67-38.42,1.91-16.08,3.97-36.21,6.19-60.4,3.18-31.83,5.73-58.32,7.63-79.48,1.91-21.16,3.34-37.15,4.29-47.97h-30.5l1.9-20.49h30.03c1.58-17.48,3.57-33.2,5.95-47.19,2.39-13.97,5.96-26.99,10.73-39.08,2.22-6.02,5.16-11.91,8.82-17.63,3.65-5.71,7.78-10.72,12.38-15.01,4.6-4.29,9.77-7.69,15.49-10.24,5.73-2.55,11.92-3.81,18.59-3.81,17.79,0,30.97,8.09,39.56,24.3l-12.86,20.97Z"></path><path class="cls-10" d="m1462.02,3227.08c-3.84,3.19-7.83,5.59-11.98,7.18-4.16,1.6-9.75,2.4-16.79,2.4-19.17,0-29.08-9.9-29.71-29.72-7.36,9.59-15.83,17.18-25.41,22.77-9.58,5.59-20.45,8.39-32.6,8.39-33.24,0-49.86-16.77-49.86-50.33,0-6.07.48-12.22,1.44-18.46.96-6.23,1.91-12.22,2.87-17.97,2.24-10.55,3.91-20.14,5.03-28.76,1.12-8.63,1.99-16.3,2.64-23.01.64-7.03.96-14.22.96-21.57s-.17-15.18-.48-23.49h28.76v4.8c.31,15.66-.48,31.16-2.41,46.49-1.91,15.34-4.15,30.68-6.71,46.02-.64,5.75-1.37,11.35-2.16,16.78-.79,5.44-1.2,11.02-1.2,16.77,0,18.22,8.79,27.33,26.37,27.33,8.31,0,15.73-1.76,22.29-5.27,6.54-3.52,12.15-8.07,16.77-13.67,4.63-5.59,8.39-11.9,11.26-18.93,2.89-7.02,4.95-14.21,6.24-21.57l12.46-98.75h28.28l-16.77,135.19c-.33.96-.48,3.52-.48,7.67,0,3.84.79,7.52,2.39,11.03,1.6,3.52,4.8,5.12,9.6,4.79,1.91.33,5.27-.79,10.06-3.35.96-.31,2.39-1.11,4.32-2.39,13.73-12.78,26.19-26.61,37.39-41.47,11.18-14.86,20.92-30.92,29.25-48.17l14.38,11.02c-22.38,42.83-47.79,75.58-76.23,98.28Z"></path><path class="cls-10" d="m1572.75,3226.12c-7.98,7.04-17.58,10.55-28.76,10.55-5.98,0-10.86-1.12-14.63-3.35-3.77-2.23-6.67-5.11-8.71-8.63-2.04-3.51-3.46-7.67-4.24-12.46-.78-4.79-1.17-9.59-1.17-14.38,0-6.39.47-13.26,1.43-20.61l29.73-256.47h27.8l-29.73,256.47c-.95,6.4-1.43,12.63-1.43,18.69,0,3.2.48,6.88,1.43,11.03.96,4.15,3.68,6.23,8.15,6.23,4.15,0,7.91-1.2,11.26-3.6,3.35-2.39,6.48-5.03,9.35-7.91l-.48,24.45Z"></path></g></g></svg> 