<?xml version="1.0" encoding="UTF-8"?> <svg xmlns="http://www.w3.org/2000/svg" xmlns:xlink="http://www.w3.org/1999/xlink" id="Layer_1" viewBox="0 0 1920 3818"><defs><style>.cls-1,.cls-2,.cls-3,.cls-4,.cls-5,.cls-6,.cls-7,.cls-8,.cls-9,.cls-10,.cls-11,.cls-12{fill:none;}.cls-2{stroke-dasharray:0 0 1.74 17.4;}.cls-2,.cls-3,.cls-4,.cls-5,.cls-6,.cls-7,.cls-8,.cls-9,.cls-10,.cls-11,.cls-12{stroke-miterlimit:10;}.cls-2,.cls-3,.cls-4,.cls-5,.cls-6,.cls-7,.cls-8,.cls-9,.cls-11,.cls-12{stroke:#a797c9;stroke-linecap:round;stroke-width:7px;}.cls-13{clip-path:url(#clippath);}.cls-3{stroke-dasharray:0 0 1.75 17.51;}.cls-4{stroke-dasharray:0 0 1.72 17.16;}.cls-5{stroke-dasharray:0 0 1.85 18.51;}.cls-14{fill:#fff;}.cls-15{fill:#937eb9;}.cls-16{fill:#937fbb;}.cls-17{fill:#161b31;}.cls-6{stroke-dasharray:0 0 1.78 17.84;}.cls-7{stroke-dasharray:0 0 1.78 17.76;}.cls-18{clip-path:url(#clippath-1);}.cls-19{clip-path:url(#clippath-4);}.cls-20{clip-path:url(#clippath-3);}.cls-21{clip-path:url(#clippath-2);}.cls-9{stroke-dasharray:0 0 1.7 16.98;}.cls-10{stroke:#566789;stroke-width:3.5px;}.cls-11{stroke-dasharray:0 0 1.71 17.14;}.cls-12{stroke-dasharray:0 0 1.78 17.79;}</style><clipPath id="clippath"><polygon class="cls-1" points="450.13 470.6 457.11 468.27 487.09 468.27 508.66 488.22 576.83 459.62 551.22 432.35 427.85 423.04 399.25 452.31 429.18 475 450.13 470.6"></polygon></clipPath><clipPath id="clippath-1"><rect class="cls-1" x="769.31" y="2538.6" width="109.21" height="109.21" rx="54.6" ry="54.6"></rect></clipPath><clipPath id="clippath-2"><polygon class="cls-1" points="417.44 3109.32 466.75 3097.35 528.92 3097.35 536.9 3060.77 334.71 3060.77 347.35 3105.33 417.44 3109.32"></polygon></clipPath><clipPath id="clippath-3"><rect class="cls-1" x="872.43" y="3175.72" width="118.31" height="118.31" rx="59.16" ry="59.16"></rect></clipPath><clipPath id="clippath-4"><circle class="cls-1" cx="796.75" cy="1327.1" r="62.2"></circle></clipPath></defs><rect class="cls-17" width="1920" height="3818"></rect><line class="cls-10" y1="200.16" x2="1920" y2="200.16"></line><line class="cls-10" y1="387.2" x2="1920" y2="387.2"></line><line class="cls-10" x1="1920" y1="577.35" y2="577.35"></line><line class="cls-10" y1="766.16" x2="1920" y2="766.16"></line><line class="cls-10" y1="1128.73" x2="1920" y2="1128.73"></line><line class="cls-10" y1="1315.76" x2="1920" y2="1315.76"></line><line class="cls-10" x1="1920" y1="1505.91" y2="1505.91"></line><line class="cls-10" y1="1694.73" x2="1920" y2="1694.73"></line><line class="cls-10" y1="2042.64" x2="1920" y2="2042.64"></line><line class="cls-10" y1="2229.68" x2="1920" y2="2229.68"></line><line class="cls-10" x1="1920" y1="2419.83" y2="2419.83"></line><line class="cls-10" y1="2608.64" x2="1920" y2="2608.64"></line><line class="cls-10" y1="2957.42" x2="1920" y2="2957.42"></line><line class="cls-10" y1="3144.46" x2="1920" y2="3144.46"></line><line class="cls-10" x1="1920" y1="3334.61" y2="3334.61"></line><line class="cls-10" y1="3523.42" x2="1920" y2="3523.42"></line><line class="cls-8" x1="514.95" y1="837.77" x2="514.95" y2="836.9"></line><line class="cls-6" x1="514.95" y1="819.06" x2="514.95" y2="494.39"></line><line class="cls-8" x1="514.95" y1="485.47" x2="514.95" y2="484.59"></line><line class="cls-8" x1="796.23" y1="1250.61" x2="796.23" y2="1249.74"></line><line class="cls-2" x1="796.23" y1="1232.34" x2="796.23" y2="1068.75"></line><line class="cls-8" x1="796.23" y1="1060.05" x2="796.23" y2="1059.18"></line><line class="cls-8" x1="569.01" y1="2097.52" x2="569.01" y2="2096.65"></line><line class="cls-12" x1="569.01" y1="2078.86" x2="569.01" y2="1970.34"></line><line class="cls-8" x1="569.01" y1="1961.45" x2="569.01" y2="1960.58"></line><line class="cls-8" x1="433.29" y1="3056.41" x2="433.29" y2="3055.53"></line><line class="cls-4" x1="433.29" y1="3038.37" x2="433.29" y2="2895.92"></line><line class="cls-8" x1="433.29" y1="2887.33" x2="433.29" y2="2886.46"></line><line class="cls-8" x1="244.9" y1="1774.56" x2="244.9" y2="1773.68"></line><line class="cls-3" x1="244.9" y1="1756.17" x2="244.9" y2="1533.75"></line><line class="cls-8" x1="244.9" y1="1525" x2="244.9" y2="1524.12"></line><line class="cls-8" x1="853.62" y1="2021.55" x2="853.62" y2="2020.68"></line><line class="cls-5" x1="853.62" y1="2002.17" x2="853.62" y2="1970.7"></line><line class="cls-8" x1="853.62" y1="1961.45" x2="853.62" y2="1960.58"></line><line class="cls-8" x1="823.91" y1="2702.95" x2="823.91" y2="2702.07"></line><line class="cls-11" x1="823.91" y1="2684.93" x2="823.91" y2="2618.08"></line><line class="cls-8" x1="823.91" y1="2609.51" x2="823.91" y2="2608.64"></line><line class="cls-8" x1="911.34" y1="3588.18" x2="911.34" y2="3587.31"></line><line class="cls-7" x1="911.34" y1="3569.55" x2="911.34" y2="3324.47"></line><line class="cls-8" x1="911.34" y1="3315.6" x2="911.34" y2="3314.72"></line><line class="cls-8" x1="1126.83" y1="837.77" x2="1126.83" y2="836.9"></line><line class="cls-9" x1="1126.83" y1="819.92" x2="1126.83" y2="604.28"></line><line class="cls-8" x1="1126.83" y1="595.79" x2="1126.83" y2="594.91"></line><polygon class="cls-15" points="1462.69 2607.77 1515.03 2607.77 1571.67 2043.5 1519.33 2043.5 1462.69 2607.77"></polygon><path class="cls-14" d="m126.38,1904.16h8.61c7.94,0,11.64,2.73,11.64,9.62,0,6.43-2.77,10.12-11.13,10.12h-6.13v13.02h-2.98v-32.77Zm9.28,17.22c6.09,0,7.94-2.69,7.94-7.65,0-5.21-2.6-6.97-8.44-6.97h-5.8v14.62h6.3Z"></path><path class="cls-14" d="m151.24,1915.92h2.6l.29,3.91c1.01-2.14,3.07-4.45,6.76-4.45,1.26,0,2.18.21,3.02.55v3.15c-1.13-.5-2.1-.76-3.4-.76-3.74,0-6.34,2.81-6.34,5.75v12.85h-2.94v-21Z"></path><path class="cls-14" d="m168.54,1904.16h2.98v6.51h-2.98v-6.51Zm0,11.76h2.94v21h-2.94v-21Z"></path><path class="cls-14" d="m178.88,1915.92h2.6l.29,3.49c1.01-2.14,3.28-4.03,7.35-4.03,4.75,0,7.77,2.52,7.77,7.94v13.61h-2.94v-13.27c0-4.33-2.14-5.71-5.5-5.71-3.82,0-6.64,2.69-6.64,5.63v13.36h-2.94v-21Z"></path><path class="cls-14" d="m215.21,1934.24v2.6c-.76.21-2.14.59-4.03.59-3.82,0-6.34-1.6-6.34-6.89v-12.18h-4.16v-2.44h4.16v-6.05l2.94-1.43v7.48h5.92v2.44h-5.92v11.8c0,2.82.76,4.58,3.4,4.58,1.6,0,3.23-.29,4.03-.5Z"></path><path class="cls-14" d="m227.81,1930.5v-1.18h2.94v1.13c0,2.86,2.14,4.49,5.96,4.49s5.8-1.01,5.8-3.78c0-2.06-1.01-2.81-3.86-3.32l-4.62-.84c-3.02-.55-5.54-2.02-5.54-5.5,0-3.15,2.35-6.13,8.4-6.13s8.4,3.02,8.4,7.23v.88h-2.98v-.76c0-3.45-2.14-4.92-5.42-4.92-3.95,0-5.33,1.34-5.33,3.36s1.01,2.86,3.91,3.4l4.03.76c4.12.76,6.09,1.93,6.09,5.59,0,4.58-4.12,6.55-8.78,6.55-7.31,0-8.99-3.28-8.99-6.97Z"></path><path class="cls-14" d="m262.42,1934.24v2.6c-.76.21-2.14.59-4.03.59-3.82,0-6.34-1.6-6.34-6.89v-12.18h-4.16v-2.44h4.16v-6.05l2.94-1.43v7.48h5.92v2.44h-5.92v11.8c0,2.82.76,4.58,3.4,4.58,1.6,0,3.23-.29,4.03-.5Z"></path><path class="cls-14" d="m267.45,1915.92l6.89,17.98h.08l7.14-17.98h3.07v.04l-8.86,20.84-3.11,8.53h-2.98v-.04l3.19-8.36-8.78-20.96v-.04h3.36Z"></path><path class="cls-14" d="m288.83,1904.16h2.94v32.77h-2.94v-32.77Z"></path><path class="cls-14" d="m316.39,1927.43h-15.96c.17,4.79,2.48,7.48,6.93,7.48,3.82,0,5.67-1.43,5.97-4.83h2.98c-.29,4.24-3.28,7.39-9.03,7.39-7.06,0-9.83-4.66-9.83-10.88s3.23-11.22,10-11.22,8.95,3.99,8.95,10.21v1.85Zm-3.11-2.98c0-4.45-1.72-6.55-5.92-6.55s-6.55,2.65-6.89,6.97h12.81v-.42Z"></path><path class="cls-14" d="m331.5,1929.53v-13.61h2.94v13.27c0,4.33,2.14,5.71,5.42,5.71,3.74,0,6.55-2.69,6.55-5.63v-13.36h2.94v21h-2.6l-.25-3.36h-.08c-.97,2.02-3.23,3.91-7.23,3.91-4.66,0-7.69-2.52-7.69-7.94Z"></path><path class="cls-14" d="m356.7,1915.92h2.39l.34,3.87h.08c1.13-2.48,4.03-4.41,7.86-4.41,6.3,0,9.66,3.99,9.66,11.01s-4.29,11.09-9.87,11.09c-3.78,0-6.38-1.6-7.43-3.7h-.08v11.55h-2.94v-29.41Zm17.18,10.63c0-7.18-3.4-8.61-6.93-8.61-4.24,0-7.56,2.73-7.56,8.44,0,6.01,3.45,8.57,7.44,8.57,3.02,0,7.06-1.47,7.06-8.4Z"></path><path class="cls-14" d="m382.91,1915.92h2.39l.34,3.87h.08c1.13-2.48,4.03-4.41,7.86-4.41,6.3,0,9.66,3.99,9.66,11.01s-4.29,11.09-9.87,11.09c-3.78,0-6.38-1.6-7.43-3.7h-.08v11.55h-2.94v-29.41Zm17.18,10.63c0-7.18-3.4-8.61-6.93-8.61-4.24,0-7.56,2.73-7.56,8.44,0,6.01,3.45,8.57,7.44,8.57,3.02,0,7.06-1.47,7.06-8.4Z"></path><path class="cls-14" d="m426.38,1927.43h-15.96c.17,4.79,2.48,7.48,6.93,7.48,3.82,0,5.67-1.43,5.97-4.83h2.98c-.29,4.24-3.28,7.39-9.03,7.39-7.06,0-9.83-4.66-9.83-10.88s3.23-11.22,10-11.22,8.95,3.99,8.95,10.21v1.85Zm-3.11-2.98c0-4.45-1.72-6.55-5.92-6.55s-6.55,2.65-6.89,6.97h12.81v-.42Z"></path><path class="cls-14" d="m432.26,1915.92h2.6l.29,3.91c1.01-2.14,3.07-4.45,6.76-4.45,1.26,0,2.18.21,3.02.55v3.15c-1.13-.5-2.1-.76-3.4-.76-3.74,0-6.34,2.81-6.34,5.75v12.85h-2.94v-21Z"></path><path class="cls-14" d="m447.26,1926.59c0-6.38,3.23-11.22,10-11.22s8.95,3.91,8.95,8.95v.42h-3.11v-.63c0-3.82-1.64-6.09-5.84-6.09-4.75,0-7.01,3.11-7.01,8.4,0,5.63,2.39,8.49,6.93,8.49,3.82,0,5.84-1.85,5.92-5.67h3.02c-.08,4.66-3.15,8.23-9.03,8.23-7.22,0-9.83-4.75-9.83-10.88Z"></path><path class="cls-14" d="m470.61,1931.13c0-3.95,2.23-6.09,7.86-6.09h6.34v-1.72c0-2.98-1.26-5.42-5.46-5.42-3.95,0-5.33,1.51-5.33,4.12v.88h-2.98v-.84c0-5,4.2-6.68,8.32-6.68,5.8,0,8.4,2.86,8.4,8.44v13.11h-2.06l-.55-2.98h-.08c-1.26,1.89-3.7,3.53-7.35,3.53-4.92,0-7.1-2.31-7.1-6.34Zm14.2-1.85v-1.76h-7.01c-2.65,0-4.03.92-4.03,3.61,0,2.35,1.26,3.86,4.5,3.86,4.16,0,6.55-2.14,6.55-5.71Z"></path><path class="cls-14" d="m493.2,1930.5v-1.18h2.94v1.13c0,2.86,2.14,4.49,5.96,4.49s5.8-1.01,5.8-3.78c0-2.06-1.01-2.81-3.86-3.32l-4.62-.84c-3.02-.55-5.54-2.02-5.54-5.5,0-3.15,2.35-6.13,8.4-6.13s8.4,3.02,8.4,7.23v.88h-2.98v-.76c0-3.45-2.14-4.92-5.42-4.92-3.95,0-5.33,1.34-5.33,3.36s1.01,2.86,3.91,3.4l4.03.76c4.12.76,6.09,1.93,6.09,5.59,0,4.58-4.12,6.55-8.78,6.55-7.31,0-8.99-3.28-8.99-6.97Z"></path><path class="cls-14" d="m534.12,1927.43h-15.96c.17,4.79,2.48,7.48,6.93,7.48,3.82,0,5.67-1.43,5.97-4.83h2.98c-.29,4.24-3.28,7.39-9.03,7.39-7.06,0-9.83-4.66-9.83-10.88s3.23-11.22,10-11.22,8.95,3.99,8.95,10.21v1.85Zm-3.11-2.98c0-4.45-1.72-6.55-5.92-6.55s-6.55,2.65-6.89,6.97h12.81v-.42Z"></path><path class="cls-14" d="m549.65,1904.16h2.94v32.77h-2.94v-32.77Z"></path><path class="cls-14" d="m577.21,1927.43h-15.96c.17,4.79,2.48,7.48,6.93,7.48,3.82,0,5.67-1.43,5.97-4.83h2.98c-.29,4.24-3.28,7.39-9.03,7.39-7.06,0-9.83-4.66-9.83-10.88s3.23-11.22,10-11.22,8.95,3.99,8.95,10.21v1.85Zm-3.11-2.98c0-4.45-1.72-6.55-5.92-6.55s-6.55,2.65-6.89,6.97h12.81v-.42Z"></path><path class="cls-14" d="m583.67,1930.54v-12.18h-4.16v-2.44h4.16v-6.05l2.94-1.43v7.48h11.85v-6.05l2.94-1.43v7.48h5.92v2.44h-5.92v11.8c0,2.82.76,4.58,3.4,4.58,1.6,0,3.24-.29,4.03-.5v2.6c-.76.21-2.14.59-4.03.59-3.82,0-6.34-1.6-6.34-6.89v-12.18h-11.85v11.8c0,2.82.76,4.58,3.4,4.58,1.6,0,3.23-.29,4.03-.5v2.6c-.76.21-2.14.59-4.03.59-3.82,0-6.34-1.6-6.34-6.89Z"></path><path class="cls-14" d="m630.29,1927.43h-15.96c.17,4.79,2.48,7.48,6.93,7.48,3.82,0,5.67-1.43,5.97-4.83h2.98c-.29,4.24-3.28,7.39-9.03,7.39-7.06,0-9.83-4.66-9.83-10.88s3.23-11.22,10-11.22,8.95,3.99,8.95,10.21v1.85Zm-3.11-2.98c0-4.45-1.72-6.55-5.92-6.55s-6.55,2.65-6.89,6.97h12.81v-.42Z"></path><path class="cls-14" d="m636.17,1915.92h2.6l.29,3.91c1.01-2.14,3.07-4.45,6.76-4.45,1.26,0,2.18.21,3.02.55v3.15c-1.13-.5-2.1-.76-3.4-.76-3.74,0-6.34,2.81-6.34,5.75v12.85h-2.94v-21Z"></path><path class="cls-14" d="m651.38,1930.5v-1.18h2.94v1.13c0,2.86,2.14,4.49,5.96,4.49s5.8-1.01,5.8-3.78c0-2.06-1.01-2.81-3.86-3.32l-4.62-.84c-3.02-.55-5.54-2.02-5.54-5.5,0-3.15,2.35-6.13,8.4-6.13s8.4,3.02,8.4,7.23v.88h-2.98v-.76c0-3.45-2.14-4.92-5.42-4.92-3.95,0-5.33,1.34-5.33,3.36s1.01,2.86,3.91,3.4l4.03.76c4.12.76,6.09,1.93,6.09,5.59,0,4.58-4.12,6.55-8.78,6.55-7.31,0-8.99-3.28-8.99-6.97Z"></path><path class="cls-14" d="m124.49,1818.87v-2.02h3.02v2.18c0,3.74,2.6,6.05,7.94,6.05s8.44-1.97,8.44-6.22c0-3.32-1.39-5.17-4.92-6.09l-6.64-1.72c-4.33-1.13-7.18-2.98-7.18-8.15s3.78-8.91,10.92-8.91,10.59,3.44,10.59,9.07v2.94h-3.02v-2.81c0-4.62-3.07-6.51-7.56-6.51-5.12,0-7.81,2.14-7.81,6.01,0,3.61,1.76,4.71,5.54,5.71l5.75,1.55c5.12,1.39,7.44,3.74,7.44,8.65,0,6.09-4.33,9.24-11.47,9.24-9.12,0-11.05-4.71-11.05-8.99Z"></path><path class="cls-14" d="m154.18,1806.31h2.39l.34,3.87h.08c1.13-2.48,4.03-4.41,7.86-4.41,6.3,0,9.66,3.99,9.66,11.01s-4.28,11.09-9.87,11.09c-3.78,0-6.39-1.6-7.44-3.7h-.08v11.55h-2.94v-29.41Zm17.18,10.63c0-7.18-3.4-8.61-6.93-8.61-4.24,0-7.56,2.73-7.56,8.44,0,6.01,3.44,8.57,7.43,8.57,3.03,0,7.06-1.47,7.06-8.4Z"></path><path class="cls-14" d="m179.76,1794.54h2.94v32.77h-2.94v-32.77Z"></path><path class="cls-14" d="m188.79,1821.51c0-3.95,2.23-6.09,7.86-6.09h6.34v-1.72c0-2.98-1.26-5.42-5.46-5.42-3.95,0-5.33,1.51-5.33,4.12v.88h-2.98v-.84c0-5,4.2-6.68,8.32-6.68,5.8,0,8.4,2.86,8.4,8.44v13.11h-2.06l-.55-2.98h-.08c-1.26,1.89-3.7,3.53-7.35,3.53-4.92,0-7.1-2.31-7.1-6.34Zm14.2-1.85v-1.76h-7.01c-2.65,0-4.03.92-4.03,3.61,0,2.35,1.26,3.86,4.5,3.86,4.16,0,6.55-2.14,6.55-5.71Z"></path><path class="cls-14" d="m212.22,1806.31l6.89,17.98h.08l7.14-17.98h3.07v.04l-8.86,20.84-3.11,8.53h-2.98v-.04l3.19-8.36-8.78-20.96v-.04h3.36Z"></path><path class="cls-14" d="m250.03,1817.81h-15.96c.17,4.79,2.48,7.48,6.93,7.48,3.82,0,5.67-1.43,5.97-4.83h2.98c-.29,4.24-3.28,7.39-9.03,7.39-7.06,0-9.83-4.66-9.83-10.88s3.23-11.22,10-11.22,8.95,3.99,8.95,10.21v1.85Zm-3.11-2.98c0-4.45-1.72-6.55-5.92-6.55s-6.55,2.65-6.89,6.97h12.81v-.42Z"></path><path class="cls-14" d="m254.22,1816.85c0-7.1,4.28-11.09,10.04-11.09,3.7,0,6.22,1.6,7.31,3.74h.04v-14.95h2.94v32.77h-1.97l-.67-3.61h-.08c-1.18,2.31-3.95,4.16-7.77,4.16-6.3,0-9.83-3.99-9.83-11.01Zm17.64-.5c0-5.5-3.36-8.07-7.35-8.07-3.11,0-7.14,1.47-7.14,8.4s3.61,8.61,7.14,8.61c4.24,0,7.35-2.73,7.35-8.95Z"></path><path class="cls-14" d="m291.56,1794.54h2.94v32.77h-2.94v-32.77Z"></path><path class="cls-14" d="m319.12,1817.81h-15.96c.17,4.79,2.48,7.48,6.93,7.48,3.82,0,5.67-1.43,5.97-4.83h2.98c-.29,4.24-3.28,7.39-9.03,7.39-7.06,0-9.83-4.66-9.83-10.88s3.23-11.22,10-11.22,8.95,3.99,8.95,10.21v1.85Zm-3.11-2.98c0-4.45-1.72-6.55-5.92-6.55s-6.55,2.65-6.89,6.97h12.81v-.42Z"></path><path class="cls-14" d="m324.36,1829.12v-.13h3.11v.13c0,2.9,1.93,4.33,6.13,4.33,4.79,0,7.01-2.94,7.01-7.86v-2.1h-.08c-1.09,2.18-3.65,4.07-7.48,4.07-6.3,0-9.75-3.99-9.75-10.71,0-7.1,4.37-11.09,9.96-11.09,3.78,0,6.55,1.81,7.56,4.12h.13l.29-3.57h2.31v19.16c0,5.88-2.81,10.71-10.33,10.71-6.3,0-8.86-2.98-8.86-7.06Zm16.59-12.77c0-5.5-3.36-8.07-7.35-8.07-3.03,0-7.14,1.47-7.14,8.4s3.57,8.32,7.1,8.32c4.24,0,7.39-2.73,7.39-8.65Z"></path><path class="cls-14" d="m349.02,1820.88v-1.18h2.94v1.13c0,2.86,2.14,4.49,5.96,4.49s5.8-1.01,5.8-3.78c0-2.06-1.01-2.81-3.86-3.32l-4.62-.84c-3.02-.55-5.54-2.02-5.54-5.5,0-3.15,2.35-6.13,8.4-6.13s8.4,3.02,8.4,7.23v.88h-2.98v-.76c0-3.45-2.14-4.92-5.42-4.92-3.95,0-5.33,1.34-5.33,3.36s1.01,2.86,3.91,3.4l4.03.76c4.12.76,6.09,1.93,6.09,5.59,0,4.58-4.12,6.55-8.78,6.55-7.31,0-8.99-3.28-8.99-6.97Z"></path><path class="cls-14" d="m382.32,1794.54h2.98v6.51h-2.98v-6.51Zm0,11.76h2.94v21h-2.94v-21Z"></path><path class="cls-14" d="m392.65,1806.31h2.6l.29,3.49c1.01-2.14,3.28-4.03,7.35-4.03,4.75,0,7.77,2.52,7.77,7.94v13.61h-2.94v-13.27c0-4.33-2.14-5.71-5.5-5.71-3.82,0-6.64,2.69-6.64,5.63v13.36h-2.94v-21Z"></path><path class="cls-14" d="m429.36,1805h-3.36v-5.08c0-3.95.88-5.29,3.4-5.96l.67,1.85c-1.76.67-2.06,1.09-2.06,3.78v.34h1.34v5.08Zm5.92,0h-3.36v-5.08c0-3.95.88-5.29,3.4-5.96l.67,1.85c-1.76.67-2.06,1.09-2.06,3.78v.34h1.34v5.08Z"></path><path class="cls-14" d="m442.72,1794.54h3.23l11.51,20.92h.08l11.51-20.92h3.23v32.77h-2.94v-27.85h-.04l-10.75,19.91h-2.06l-10.8-19.91h-.04v27.85h-2.94v-32.77Z"></path><path class="cls-14" d="m479.01,1803.74c1.76-.67,2.06-1.09,2.06-3.78v-.34h-1.34v-5.08h3.36v5.08c0,3.95-.88,5.29-3.4,5.96l-.67-1.85Zm5.92,0c1.76-.67,2.06-1.09,2.06-3.78v-.34h-1.34v-5.08h3.36v5.08c0,3.95-.88,5.29-3.4,5.96l-.67-1.85Z"></path><path class="cls-14" d="m300.82,861.73h2.94v30.12h15.71v2.65h-18.65v-32.77Z"></path><path class="cls-14" d="m322.62,883.99c0-6.22,3.32-11.05,10.38-11.05,6.59,0,10.25,4.83,10.25,11.05s-3.7,11.05-10.29,11.05c-7.27,0-10.33-4.83-10.33-11.05Zm17.56,0c0-5.33-2.9-8.49-7.22-8.49-4.75,0-7.27,3.15-7.27,8.49s2.56,8.49,7.27,8.49c4.33,0,7.22-3.15,7.22-8.49Z"></path><path class="cls-14" d="m349.12,873.49h2.6l.29,3.49c1.01-2.14,3.28-4.03,7.35-4.03,4.75,0,7.77,2.52,7.77,7.94v13.61h-2.94v-13.27c0-4.33-2.14-5.71-5.5-5.71-3.82,0-6.64,2.69-6.64,5.63v13.36h-2.94v-21Z"></path><path class="cls-14" d="m373.86,896.3v-.13h3.11v.13c0,2.9,1.93,4.33,6.13,4.33,4.79,0,7.01-2.94,7.01-7.86v-2.1h-.08c-1.09,2.18-3.65,4.07-7.48,4.07-6.3,0-9.75-3.99-9.75-10.71,0-7.1,4.37-11.09,9.96-11.09,3.78,0,6.55,1.81,7.56,4.12h.13l.29-3.57h2.31v19.16c0,5.88-2.81,10.71-10.33,10.71-6.3,0-8.86-2.98-8.86-7.06Zm16.59-12.77c0-5.5-3.36-8.07-7.35-8.07-3.03,0-7.14,1.47-7.14,8.4s3.57,8.32,7.1,8.32c4.24,0,7.39-2.73,7.39-8.65Z"></path><path class="cls-14" d="m412.87,891h-.08l-.76,3.49h-1.97v-32.77h2.94v15.25h.04c1.26-2.31,4.07-4.03,7.69-4.03,6.3,0,9.66,3.99,9.66,11.01s-4.29,11.09-9.87,11.09c-3.78,0-6.55-1.64-7.65-4.03Zm14.37-6.89c0-7.18-3.4-8.61-6.93-8.61-4.24,0-7.56,2.73-7.56,8.44,0,6.01,3.45,8.57,7.44,8.57,3.02,0,7.06-1.47,7.06-8.4Z"></path><path class="cls-14" d="m434.8,888.69c0-3.95,2.23-6.09,7.86-6.09h6.34v-1.72c0-2.98-1.26-5.42-5.46-5.42-3.95,0-5.33,1.51-5.33,4.12v.88h-2.98v-.84c0-5,4.2-6.68,8.32-6.68,5.8,0,8.4,2.86,8.4,8.44v13.11h-2.06l-.55-2.98h-.08c-1.26,1.89-3.7,3.53-7.35,3.53-4.92,0-7.1-2.31-7.1-6.34Zm14.2-1.85v-1.76h-7.01c-2.65,0-4.03.92-4.03,3.61,0,2.35,1.26,3.86,4.5,3.86,4.16,0,6.55-2.14,6.55-5.71Z"></path><path class="cls-14" d="m459.28,873.49h2.6l.29,3.91c1.01-2.14,3.07-4.45,6.76-4.45,1.26,0,2.18.21,3.02.55v3.15c-1.13-.5-2.1-.76-3.4-.76-3.74,0-6.34,2.81-6.34,5.75v12.85h-2.94v-21Z"></path><path class="cls-14" d="m486.25,861.73h2.98v6.51h-2.98v-6.51Zm0,11.76h2.94v21h-2.94v-21Z"></path><path class="cls-14" d="m496.58,873.49h2.6l.29,3.49c1.01-2.14,3.28-4.03,7.35-4.03,4.75,0,7.77,2.52,7.77,7.94v13.61h-2.94v-13.27c0-4.33-2.14-5.71-5.5-5.71-3.82,0-6.64,2.69-6.64,5.63v13.36h-2.94v-21Z"></path><path class="cls-14" d="m533.29,872.19h-3.36v-5.08c0-3.95.88-5.29,3.4-5.96l.67,1.85c-1.76.67-2.06,1.09-2.06,3.78v.34h1.34v5.08Zm5.92,0h-3.36v-5.08c0-3.95.88-5.29,3.4-5.96l.67,1.85c-1.76.67-2.06,1.09-2.06,3.78v.34h1.34v5.08Z"></path><path class="cls-14" d="m544.33,878.28c0-11.85,6.51-17.1,14.49-17.1,7.56,0,12.64,3.78,12.64,11.47v.5h-2.86v-.63c0-5.33-3.49-8.7-9.7-8.7-6.72,0-11.47,4.58-11.47,14.28s4.75,14.28,11.76,14.28c5.63,0,9.45-2.52,9.45-8.78v-2.73h-9.83v-2.6h12.64v16.21h-2.1l-.67-3.74c-1.6,2.48-5.17,4.28-9.75,4.28-8.32,0-14.62-4.87-14.62-16.76Z"></path><path class="cls-14" d="m576.3,870.92c1.76-.67,2.06-1.09,2.06-3.78v-.34h-1.34v-5.08h3.36v5.08c0,3.95-.88,5.29-3.4,5.96l-.67-1.85Zm5.92,0c1.76-.67,2.06-1.09,2.06-3.78v-.34h-1.34v-5.08h3.36v5.08c0,3.95-.88,5.29-3.4,5.96l-.67-1.85Z"></path><path class="cls-14" d="m907.98,884.4v-2.02h3.02v2.18c0,3.74,2.6,6.05,7.94,6.05s8.44-1.97,8.44-6.22c0-3.32-1.39-5.17-4.92-6.09l-6.64-1.72c-4.33-1.13-7.18-2.98-7.18-8.15s3.78-8.91,10.92-8.91,10.59,3.44,10.59,9.07v2.94h-3.02v-2.81c0-4.62-3.07-6.51-7.56-6.51-5.12,0-7.81,2.14-7.81,6.01,0,3.61,1.76,4.71,5.54,5.71l5.75,1.55c5.12,1.39,7.44,3.74,7.44,8.65,0,6.09-4.33,9.24-11.47,9.24-9.12,0-11.05-4.71-11.05-8.99Z"></path><path class="cls-14" d="m954.52,883.35h-15.96c.17,4.79,2.48,7.48,6.93,7.48,3.82,0,5.67-1.43,5.96-4.83h2.98c-.29,4.24-3.28,7.39-9.03,7.39-7.06,0-9.83-4.66-9.83-10.88s3.23-11.22,10-11.22,8.95,3.99,8.95,10.21v1.85Zm-3.11-2.98c0-4.45-1.72-6.55-5.92-6.55s-6.55,2.65-6.89,6.97h12.81v-.42Z"></path><path class="cls-14" d="m991.1,879.23v13.61h-2.94v-13.27c0-4.33-2.14-5.71-4.75-5.71-3.82,0-6.18,2.69-6.18,5.63v13.36h-2.94v-13.27c0-4.33-1.85-5.71-4.83-5.71-3.61,0-6.13,2.69-6.13,5.63v13.36h-2.94v-21h2.6l.29,3.49c1.01-2.02,3.07-4.03,6.93-4.03,2.94,0,5.38,1.39,6.43,4.29,1.22-2.39,3.57-4.29,7.14-4.29,4.28,0,7.31,2.52,7.31,7.94Z"></path><path class="cls-14" d="m998.44,860.07h2.98v6.51h-2.98v-6.51Zm0,11.76h2.94v21h-2.94v-21Z"></path><path class="cls-14" d="m1007.1,879.36h10.59v2.81h-10.59v-2.81Z"></path><path class="cls-14" d="m1021.88,882.51c0-6.38,3.23-11.22,10-11.22s8.95,3.91,8.95,8.95v.42h-3.11v-.63c0-3.82-1.64-6.09-5.84-6.09-4.75,0-7.02,3.11-7.02,8.4,0,5.63,2.39,8.49,6.93,8.49,3.82,0,5.84-1.85,5.92-5.67h3.02c-.08,4.66-3.15,8.23-9.03,8.23-7.23,0-9.83-4.75-9.83-10.88Z"></path><path class="cls-14" d="m1045.02,882.34c0-6.22,3.32-11.05,10.38-11.05,6.6,0,10.25,4.83,10.25,11.05s-3.7,11.05-10.29,11.05c-7.27,0-10.33-4.83-10.33-11.05Zm17.56,0c0-5.33-2.9-8.49-7.23-8.49-4.75,0-7.27,3.15-7.27,8.49s2.56,8.49,7.27,8.49c4.33,0,7.23-3.15,7.23-8.49Z"></path><path class="cls-14" d="m1071.52,871.84h2.6l.29,3.49c1.01-2.14,3.28-4.03,7.35-4.03,4.75,0,7.77,2.52,7.77,7.94v13.61h-2.94v-13.27c0-4.33-2.14-5.71-5.5-5.71-3.82,0-6.64,2.69-6.64,5.63v13.36h-2.94v-21Z"></path><path class="cls-14" d="m1096.89,871.84h2.6l.29,3.49c1.01-2.14,3.28-4.03,7.35-4.03,4.75,0,7.77,2.52,7.77,7.94v13.61h-2.94v-13.27c0-4.33-2.14-5.71-5.5-5.71-3.82,0-6.64,2.69-6.64,5.63v13.36h-2.94v-21Z"></path><path class="cls-14" d="m1139.53,883.35h-15.96c.17,4.79,2.48,7.48,6.93,7.48,3.82,0,5.67-1.43,5.97-4.83h2.98c-.29,4.24-3.28,7.39-9.03,7.39-7.06,0-9.83-4.66-9.83-10.88s3.23-11.22,10-11.22,8.95,3.99,8.95,10.21v1.85Zm-3.11-2.98c0-4.45-1.72-6.55-5.92-6.55s-6.55,2.65-6.89,6.97h12.81v-.42Z"></path><path class="cls-14" d="m1143.72,882.51c0-6.38,3.23-11.22,10-11.22s8.95,3.91,8.95,8.95v.42h-3.11v-.63c0-3.82-1.64-6.09-5.84-6.09-4.75,0-7.02,3.11-7.02,8.4,0,5.63,2.39,8.49,6.93,8.49,3.82,0,5.84-1.85,5.92-5.67h3.02c-.08,4.66-3.15,8.23-9.03,8.23-7.22,0-9.83-4.75-9.83-10.88Z"></path><path class="cls-14" d="m1179.51,890.15v2.6c-.76.21-2.14.59-4.03.59-3.82,0-6.34-1.6-6.34-6.89v-12.18h-4.16v-2.44h4.16v-6.05l2.94-1.43v7.48h5.92v2.44h-5.92v11.8c0,2.82.76,4.58,3.4,4.58,1.6,0,3.23-.29,4.03-.5Z"></path><path class="cls-14" d="m1200.97,883.35h-15.96c.17,4.79,2.48,7.48,6.93,7.48,3.82,0,5.67-1.43,5.97-4.83h2.98c-.29,4.24-3.28,7.39-9.03,7.39-7.06,0-9.83-4.66-9.83-10.88s3.23-11.22,10-11.22,8.95,3.99,8.95,10.21v1.85Zm-3.11-2.98c0-4.45-1.72-6.55-5.92-6.55s-6.55,2.65-6.89,6.97h12.81v-.42Z"></path><path class="cls-14" d="m1205.17,882.38c0-7.1,4.28-11.09,10.04-11.09,3.7,0,6.22,1.6,7.31,3.74h.04v-14.95h2.94v32.77h-1.97l-.67-3.61h-.08c-1.18,2.31-3.95,4.16-7.77,4.16-6.3,0-9.83-3.99-9.83-11.01Zm17.64-.5c0-5.5-3.36-8.07-7.35-8.07-3.11,0-7.14,1.47-7.14,8.4s3.61,8.61,7.14,8.61c4.24,0,7.35-2.73,7.35-8.95Z"></path><path class="cls-14" d="m1242.51,860.07h2.94v32.77h-2.94v-32.77Z"></path><path class="cls-14" d="m1251.12,882.34c0-6.22,3.32-11.05,10.38-11.05,6.59,0,10.25,4.83,10.25,11.05s-3.7,11.05-10.29,11.05c-7.27,0-10.33-4.83-10.33-11.05Zm17.56,0c0-5.33-2.9-8.49-7.22-8.49-4.75,0-7.27,3.15-7.27,8.49s2.56,8.49,7.27,8.49c4.33,0,7.22-3.15,7.22-8.49Z"></path><path class="cls-14" d="m1274.05,871.88v-.04h2.98l5.75,17.48h.08l6.3-17.48h2.69l6.17,17.48h.08l5.75-17.48h2.86v.04l-7.18,20.96h-3.02l-5.96-17.05h-.08l-6.22,17.05h-3.02l-7.18-20.96Z"></path><path class="cls-14" d="m1327.98,883.35h-15.96c.17,4.79,2.48,7.48,6.93,7.48,3.82,0,5.67-1.43,5.97-4.83h2.98c-.29,4.24-3.28,7.39-9.03,7.39-7.06,0-9.83-4.66-9.83-10.88s3.23-11.22,10-11.22,8.95,3.99,8.95,10.21v1.85Zm-3.11-2.98c0-4.45-1.72-6.55-5.92-6.55s-6.55,2.65-6.89,6.97h12.81v-.42Z"></path><path class="cls-14" d="m1333.86,871.84h2.6l.29,3.91c1.01-2.14,3.07-4.45,6.76-4.45,1.26,0,2.18.21,3.02.55v3.15c-1.13-.5-2.1-.76-3.4-.76-3.74,0-6.34,2.81-6.34,5.75v12.85h-2.94v-21Z"></path><path class="cls-14" d="m1359.14,882.51c0-6.38,3.23-11.22,10-11.22s8.95,3.91,8.95,8.95v.42h-3.11v-.63c0-3.82-1.64-6.09-5.84-6.09-4.75,0-7.02,3.11-7.02,8.4,0,5.63,2.39,8.49,6.93,8.49,3.82,0,5.84-1.85,5.92-5.67h3.02c-.08,4.66-3.15,8.23-9.03,8.23-7.22,0-9.83-4.75-9.83-10.88Z"></path><path class="cls-14" d="m1382.49,887.04c0-3.95,2.23-6.09,7.86-6.09h6.34v-1.72c0-2.98-1.26-5.42-5.46-5.42-3.95,0-5.33,1.51-5.33,4.12v.88h-2.98v-.84c0-5,4.2-6.68,8.32-6.68,5.8,0,8.4,2.86,8.4,8.44v13.11h-2.06l-.55-2.98h-.08c-1.26,1.89-3.7,3.53-7.35,3.53-4.92,0-7.1-2.31-7.1-6.34Zm14.2-1.85v-1.76h-7.01c-2.65,0-4.03.92-4.03,3.61,0,2.35,1.26,3.86,4.5,3.86,4.16,0,6.55-2.14,6.55-5.71Z"></path><path class="cls-14" d="m1405.09,886.41v-1.18h2.94v1.13c0,2.86,2.14,4.49,5.96,4.49s5.8-1.01,5.8-3.78c0-2.06-1.01-2.81-3.86-3.32l-4.62-.84c-3.02-.55-5.54-2.02-5.54-5.5,0-3.15,2.35-6.13,8.4-6.13s8.4,3.02,8.4,7.23v.88h-2.98v-.76c0-3.45-2.14-4.92-5.42-4.92-3.95,0-5.33,1.34-5.33,3.36s1.01,2.86,3.91,3.4l4.03.76c4.12.76,6.09,1.93,6.09,5.59,0,4.58-4.12,6.55-8.78,6.55-7.31,0-8.99-3.28-8.99-6.97Z"></path><path class="cls-14" d="m1446,883.35h-15.96c.17,4.79,2.48,7.48,6.93,7.48,3.82,0,5.67-1.43,5.97-4.83h2.98c-.29,4.24-3.28,7.39-9.03,7.39-7.06,0-9.83-4.66-9.83-10.88s3.23-11.22,10-11.22,8.95,3.99,8.95,10.21v1.85Zm-3.11-2.98c0-4.45-1.72-6.55-5.92-6.55s-6.55,2.65-6.89,6.97h12.81v-.42Z"></path><path class="cls-14" d="m1449.99,886.41v-1.18h2.94v1.13c0,2.86,2.14,4.49,5.96,4.49s5.8-1.01,5.8-3.78c0-2.06-1.01-2.81-3.86-3.32l-4.62-.84c-3.02-.55-5.54-2.02-5.54-5.5,0-3.15,2.35-6.13,8.4-6.13s8.4,3.02,8.4,7.23v.88h-2.98v-.76c0-3.45-2.14-4.92-5.42-4.92-3.95,0-5.33,1.34-5.33,3.36s1.01,2.86,3.91,3.4l4.03.76c4.12.76,6.09,1.93,6.09,5.59,0,4.58-4.12,6.55-8.78,6.55-7.31,0-8.99-3.28-8.99-6.97Z"></path><path class="cls-14" d="m709.59,2733.21h2.94v30.12h15.71v2.65h-18.65v-32.77Z"></path><path class="cls-14" d="m731.39,2755.47c0-6.22,3.32-11.05,10.38-11.05,6.6,0,10.25,4.83,10.25,11.05s-3.7,11.05-10.29,11.05c-7.27,0-10.33-4.83-10.33-11.05Zm17.56,0c0-5.33-2.9-8.49-7.23-8.49-4.75,0-7.27,3.15-7.27,8.49s2.56,8.49,7.27,8.49c4.33,0,7.23-3.15,7.23-8.49Z"></path><path class="cls-14" d="m756.21,2755.47c0-6.22,3.32-11.05,10.38-11.05,6.6,0,10.25,4.83,10.25,11.05s-3.7,11.05-10.29,11.05c-7.27,0-10.33-4.83-10.33-11.05Zm17.56,0c0-5.33-2.9-8.49-7.23-8.49-4.75,0-7.27,3.15-7.27,8.49s2.56,8.49,7.27,8.49c4.33,0,7.23-3.15,7.23-8.49Z"></path><path class="cls-14" d="m782.71,2744.97h2.39l.34,3.87h.08c1.13-2.48,4.03-4.41,7.86-4.41,6.3,0,9.66,3.99,9.66,11.01s-4.28,11.09-9.87,11.09c-3.78,0-6.39-1.6-7.44-3.7h-.08v11.55h-2.94v-29.41Zm17.18,10.63c0-7.18-3.4-8.61-6.93-8.61-4.24,0-7.56,2.73-7.56,8.44,0,6.01,3.44,8.57,7.44,8.57,3.02,0,7.06-1.47,7.06-8.4Z"></path><path class="cls-14" d="m808.29,2733.21h2.94v32.77h-2.94v-32.77Z"></path><path class="cls-14" d="m835.85,2756.48h-15.96c.17,4.79,2.48,7.48,6.93,7.48,3.82,0,5.67-1.43,5.96-4.83h2.98c-.29,4.24-3.28,7.39-9.03,7.39-7.06,0-9.83-4.66-9.83-10.88s3.23-11.22,10-11.22,8.95,3.99,8.95,10.21v1.85Zm-3.11-2.98c0-4.45-1.72-6.55-5.92-6.55s-6.55,2.65-6.89,6.97h12.81v-.42Z"></path><path class="cls-14" d="m839.83,2759.55v-1.18h2.94v1.13c0,2.86,2.14,4.49,5.96,4.49s5.8-1.01,5.8-3.78c0-2.06-1.01-2.81-3.86-3.32l-4.62-.84c-3.02-.55-5.54-2.02-5.54-5.5,0-3.15,2.35-6.13,8.4-6.13s8.4,3.02,8.4,7.23v.88h-2.98v-.76c0-3.45-2.14-4.92-5.42-4.92-3.95,0-5.33,1.34-5.33,3.36s1.01,2.86,3.91,3.4l4.03.76c4.12.76,6.09,1.93,6.09,5.59,0,4.58-4.12,6.55-8.78,6.55-7.31,0-8.99-3.28-8.99-6.97Z"></path><path class="cls-14" d="m861.59,2759.55v-1.18h2.94v1.13c0,2.86,2.14,4.49,5.96,4.49s5.8-1.01,5.8-3.78c0-2.06-1.01-2.81-3.86-3.32l-4.62-.84c-3.02-.55-5.54-2.02-5.54-5.5,0-3.15,2.35-6.13,8.4-6.13s8.4,3.02,8.4,7.23v.88h-2.98v-.76c0-3.45-2.14-4.92-5.42-4.92-3.95,0-5.33,1.34-5.33,3.36s1.01,2.86,3.91,3.4l4.03.76c4.12.76,6.09,1.93,6.09,5.59,0,4.58-4.12,6.55-8.78,6.55-7.31,0-8.99-3.28-8.99-6.97Z"></path><path class="cls-14" d="m893.64,2760.18c0-3.95,2.23-6.09,7.86-6.09h6.34v-1.72c0-2.98-1.26-5.42-5.46-5.42-3.95,0-5.33,1.51-5.33,4.12v.88h-2.98v-.84c0-5,4.2-6.68,8.32-6.68,5.8,0,8.4,2.86,8.4,8.44v13.11h-2.06l-.55-2.98h-.08c-1.26,1.89-3.7,3.53-7.35,3.53-4.92,0-7.1-2.31-7.1-6.34Zm14.2-1.85v-1.76h-7.02c-2.65,0-4.03.92-4.03,3.61,0,2.35,1.26,3.86,4.5,3.86,4.16,0,6.55-2.14,6.55-5.71Z"></path><path class="cls-14" d="m916.23,2759.55v-1.18h2.94v1.13c0,2.86,2.14,4.49,5.96,4.49s5.8-1.01,5.8-3.78c0-2.06-1.01-2.81-3.86-3.32l-4.62-.84c-3.02-.55-5.54-2.02-5.54-5.5,0-3.15,2.35-6.13,8.4-6.13s8.4,3.02,8.4,7.23v.88h-2.98v-.76c0-3.45-2.14-4.92-5.42-4.92-3.95,0-5.33,1.34-5.33,3.36s1.01,2.86,3.91,3.4l4.03.76c4.12.76,6.09,1.93,6.09,5.59,0,4.58-4.12,6.55-8.78,6.55-7.31,0-8.99-3.28-8.99-6.97Z"></path><path class="cls-14" d="m938.2,2755.64c0-6.38,3.23-11.22,10-11.22s8.95,3.91,8.95,8.95v.42h-3.11v-.63c0-3.82-1.64-6.09-5.84-6.09-4.75,0-7.01,3.11-7.01,8.4,0,5.63,2.39,8.49,6.93,8.49,3.82,0,5.84-1.85,5.92-5.67h3.02c-.08,4.66-3.15,8.23-9.03,8.23-7.22,0-9.83-4.75-9.83-10.88Z"></path><path class="cls-14" d="m980.29,2756.48h-15.96c.17,4.79,2.48,7.48,6.93,7.48,3.82,0,5.67-1.43,5.97-4.83h2.98c-.29,4.24-3.28,7.39-9.03,7.39-7.06,0-9.83-4.66-9.83-10.88s3.23-11.22,10-11.22,8.95,3.99,8.95,10.21v1.85Zm-3.11-2.98c0-4.45-1.72-6.55-5.92-6.55s-6.55,2.65-6.89,6.97h12.81v-.42Z"></path><path class="cls-14" d="m986.16,2744.97h2.6l.29,3.49c1.01-2.14,3.28-4.03,7.35-4.03,4.75,0,7.77,2.52,7.77,7.94v13.61h-2.94v-13.27c0-4.33-2.14-5.71-5.5-5.71-3.82,0-6.64,2.69-6.64,5.63v13.36h-2.94v-21Z"></path><path class="cls-14" d="m1009.85,2755.52c0-7.1,4.28-11.09,10.04-11.09,3.7,0,6.22,1.6,7.31,3.74h.04v-14.95h2.94v32.77h-1.97l-.67-3.61h-.08c-1.18,2.31-3.95,4.16-7.77,4.16-6.3,0-9.83-3.99-9.83-11.01Zm17.64-.5c0-5.5-3.36-8.07-7.35-8.07-3.11,0-7.14,1.47-7.14,8.4s3.61,8.61,7.14,8.61c4.24,0,7.35-2.73,7.35-8.95Z"></path><path class="cls-14" d="m1054.79,2756.48h-15.96c.17,4.79,2.48,7.48,6.93,7.48,3.82,0,5.67-1.43,5.97-4.83h2.98c-.29,4.24-3.28,7.39-9.03,7.39-7.06,0-9.83-4.66-9.83-10.88s3.23-11.22,10-11.22,8.95,3.99,8.95,10.21v1.85Zm-3.11-2.98c0-4.45-1.72-6.55-5.92-6.55s-6.55,2.65-6.89,6.97h12.81v-.42Z"></path><path class="cls-14" d="m1060.67,2744.97h2.6l.29,3.91c1.01-2.14,3.07-4.45,6.76-4.45,1.26,0,2.18.21,3.02.55v3.15c-1.13-.5-2.1-.76-3.4-.76-3.74,0-6.34,2.81-6.34,5.75v12.85h-2.94v-21Z"></path><path class="cls-14" d="m1075.87,2759.55v-1.18h2.94v1.13c0,2.86,2.14,4.49,5.96,4.49s5.8-1.01,5.8-3.78c0-2.06-1.01-2.81-3.86-3.32l-4.62-.84c-3.02-.55-5.54-2.02-5.54-5.5,0-3.15,2.35-6.13,8.4-6.13s8.4,3.02,8.4,7.23v.88h-2.98v-.76c0-3.45-2.14-4.92-5.42-4.92-3.95,0-5.33,1.34-5.33,3.36s1.01,2.86,3.91,3.4l4.03.76c4.12.76,6.09,1.93,6.09,5.59,0,4.58-4.12,6.55-8.78,6.55-7.31,0-8.99-3.28-8.99-6.97Z"></path><path class="cls-14" d="m1107.92,2760.18c0-3.95,2.23-6.09,7.86-6.09h6.34v-1.72c0-2.98-1.26-5.42-5.46-5.42-3.95,0-5.33,1.51-5.33,4.12v.88h-2.98v-.84c0-5,4.2-6.68,8.32-6.68,5.8,0,8.4,2.86,8.4,8.44v13.11h-2.06l-.55-2.98h-.08c-1.26,1.89-3.7,3.53-7.35,3.53-4.92,0-7.1-2.31-7.1-6.34Zm14.2-1.85v-1.76h-7.01c-2.65,0-4.03.92-4.03,3.61,0,2.35,1.26,3.86,4.5,3.86,4.16,0,6.55-2.14,6.55-5.71Z"></path><path class="cls-14" d="m1132.41,2744.97h2.6l.29,3.49c1.01-2.14,3.28-4.03,7.35-4.03,4.75,0,7.77,2.52,7.77,7.94v13.61h-2.94v-13.27c0-4.33-2.14-5.71-5.5-5.71-3.82,0-6.64,2.69-6.64,5.63v13.36h-2.94v-21Z"></path><path class="cls-14" d="m1156.09,2755.52c0-7.1,4.28-11.09,10.04-11.09,3.7,0,6.22,1.6,7.31,3.74h.04v-14.95h2.94v32.77h-1.97l-.67-3.61h-.08c-1.18,2.31-3.95,4.16-7.77,4.16-6.3,0-9.83-3.99-9.83-11.01Zm17.64-.5c0-5.5-3.36-8.07-7.35-8.07-3.11,0-7.14,1.47-7.14,8.4s3.61,8.61,7.14,8.61c4.24,0,7.35-2.73,7.35-8.95Z"></path><path class="cls-14" d="m1191.75,2755.52c0-7.1,4.28-11.09,10.04-11.09,3.7,0,6.22,1.6,7.31,3.74h.04v-14.95h2.94v32.77h-1.97l-.67-3.61h-.08c-1.18,2.31-3.95,4.16-7.77,4.16-6.3,0-9.83-3.99-9.83-11.01Zm17.64-.5c0-5.5-3.36-8.07-7.35-8.07-3.11,0-7.14,1.47-7.14,8.4s3.61,8.61,7.14,8.61c4.24,0,7.35-2.73,7.35-8.95Z"></path><path class="cls-14" d="m1236.7,2756.48h-15.96c.17,4.79,2.48,7.48,6.93,7.48,3.82,0,5.67-1.43,5.97-4.83h2.98c-.29,4.24-3.28,7.39-9.03,7.39-7.06,0-9.83-4.66-9.83-10.88s3.23-11.22,10-11.22,8.95,3.99,8.95,10.21v1.85Zm-3.11-2.98c0-4.45-1.72-6.55-5.92-6.55s-6.55,2.65-6.89,6.97h12.81v-.42Z"></path><path class="cls-14" d="m1240.68,2759.55v-1.18h2.94v1.13c0,2.86,2.14,4.49,5.96,4.49s5.8-1.01,5.8-3.78c0-2.06-1.01-2.81-3.86-3.32l-4.62-.84c-3.02-.55-5.54-2.02-5.54-5.5,0-3.15,2.35-6.13,8.4-6.13s8.4,3.02,8.4,7.23v.88h-2.98v-.76c0-3.45-2.14-4.92-5.42-4.92-3.95,0-5.33,1.34-5.33,3.36s1.01,2.86,3.91,3.4l4.03.76c4.12.76,6.09,1.93,6.09,5.59,0,4.58-4.12,6.55-8.78,6.55-7.31,0-8.99-3.28-8.99-6.97Z"></path><path class="cls-14" d="m1262.65,2755.64c0-6.38,3.23-11.22,10-11.22s8.95,3.91,8.95,8.95v.42h-3.11v-.63c0-3.82-1.64-6.09-5.84-6.09-4.75,0-7.02,3.11-7.02,8.4,0,5.63,2.39,8.49,6.93,8.49,3.82,0,5.84-1.85,5.92-5.67h3.02c-.08,4.66-3.15,8.23-9.03,8.23-7.22,0-9.83-4.75-9.83-10.88Z"></path><path class="cls-14" d="m1304.74,2756.48h-15.96c.17,4.79,2.48,7.48,6.93,7.48,3.82,0,5.67-1.43,5.97-4.83h2.98c-.29,4.24-3.28,7.39-9.03,7.39-7.06,0-9.83-4.66-9.83-10.88s3.23-11.22,10-11.22,8.95,3.99,8.95,10.21v1.85Zm-3.11-2.98c0-4.45-1.72-6.55-5.92-6.55s-6.55,2.65-6.89,6.97h12.81v-.42Z"></path><path class="cls-14" d="m1310.61,2744.97h2.6l.29,3.49c1.01-2.14,3.28-4.03,7.35-4.03,4.75,0,7.77,2.52,7.77,7.94v13.61h-2.94v-13.27c0-4.33-2.14-5.71-5.5-5.71-3.82,0-6.64,2.69-6.64,5.63v13.36h-2.94v-21Z"></path><path class="cls-14" d="m1334.3,2755.52c0-7.1,4.28-11.09,10.04-11.09,3.7,0,6.22,1.6,7.31,3.74h.04v-14.95h2.94v32.77h-1.97l-.67-3.61h-.08c-1.18,2.31-3.95,4.16-7.77,4.16-6.3,0-9.83-3.99-9.83-11.01Zm17.64-.5c0-5.5-3.36-8.07-7.35-8.07-3.11,0-7.14,1.47-7.14,8.4s3.61,8.61,7.14,8.61c4.24,0,7.35-2.73,7.35-8.95Z"></path><path class="cls-14" d="m1379.24,2756.48h-15.96c.17,4.79,2.48,7.48,6.93,7.48,3.82,0,5.67-1.43,5.97-4.83h2.98c-.29,4.24-3.28,7.39-9.03,7.39-7.06,0-9.83-4.66-9.83-10.88s3.23-11.22,10-11.22,8.95,3.99,8.95,10.21v1.85Zm-3.11-2.98c0-4.45-1.72-6.55-5.92-6.55s-6.55,2.65-6.89,6.97h12.81v-.42Z"></path><path class="cls-14" d="m1385.12,2744.97h2.6l.29,3.91c1.01-2.14,3.07-4.45,6.76-4.45,1.26,0,2.18.21,3.02.55v3.15c-1.13-.5-2.1-.76-3.4-.76-3.74,0-6.34,2.81-6.34,5.75v12.85h-2.94v-21Z"></path><path class="cls-14" d="m1400.32,2759.55v-1.18h2.94v1.13c0,2.86,2.14,4.49,5.96,4.49s5.8-1.01,5.8-3.78c0-2.06-1.01-2.81-3.86-3.32l-4.62-.84c-3.02-.55-5.54-2.02-5.54-5.5,0-3.15,2.35-6.13,8.4-6.13s8.4,3.02,8.4,7.23v.88h-2.98v-.76c0-3.45-2.14-4.92-5.42-4.92-3.95,0-5.33,1.34-5.33,3.36s1.01,2.86,3.91,3.4l4.03.76c4.12.76,6.09,1.93,6.09,5.59,0,4.58-4.12,6.55-8.78,6.55-7.31,0-8.99-3.28-8.99-6.97Z"></path><path class="cls-14" d="m787.3,1904.16h2.9l6.89,29.36h.08l7.81-29.36h3.19l8.19,29.36h.08l6.51-29.36h2.9l-7.6,32.77h-3.53l-8.11-29.07h-.08l-7.77,29.07h-3.53l-7.94-32.77Z"></path><path class="cls-14" d="m830.09,1904.16h2.98v6.51h-2.98v-6.51Zm0,11.76h2.94v21h-2.94v-21Z"></path><path class="cls-14" d="m838.75,1926.47c0-7.1,4.28-11.09,10.04-11.09,3.7,0,6.22,1.6,7.31,3.74h.04v-14.95h2.94v32.77h-1.97l-.67-3.61h-.08c-1.18,2.31-3.95,4.16-7.77,4.16-6.3,0-9.83-3.99-9.83-11.01Zm17.64-.5c0-5.5-3.36-8.07-7.35-8.07-3.11,0-7.14,1.47-7.14,8.4s3.61,8.61,7.14,8.61c4.24,0,7.35-2.73,7.35-8.95Z"></path><path class="cls-14" d="m883.69,1927.43h-15.96c.17,4.79,2.48,7.48,6.93,7.48,3.82,0,5.67-1.43,5.97-4.83h2.98c-.29,4.24-3.28,7.39-9.03,7.39-7.06,0-9.83-4.66-9.83-10.88s3.23-11.22,10-11.22,8.95,3.99,8.95,10.21v1.85Zm-3.11-2.98c0-4.45-1.72-6.55-5.92-6.55s-6.55,2.65-6.89,6.97h12.81v-.42Z"></path><path class="cls-14" d="m900.91,1914.62h-3.36v-5.08c0-3.95.88-5.29,3.4-5.96l.67,1.85c-1.76.67-2.06,1.09-2.06,3.78v.34h1.34v5.08Zm5.92,0h-3.36v-5.08c0-3.95.88-5.29,3.4-5.96l.67,1.85c-1.76.67-2.06,1.09-2.06,3.78v.34h1.34v5.08Z"></path><path class="cls-14" d="m916.95,1910.88v5.04h5.92v2.44h-5.92v18.57h-2.94v-18.57h-4.16v-2.44h4.16v-5.42c0-5.29,3.15-6.89,6.38-6.89,1.85,0,2.98.29,3.74.55v2.6c-.71-.21-1.89-.46-3.49-.46-2.65,0-3.7,1.76-3.7,4.58Z"></path><path class="cls-14" d="m927.49,1913.36c1.76-.67,2.06-1.09,2.06-3.78v-.34h-1.34v-5.08h3.36v5.08c0,3.95-.88,5.29-3.4,5.96l-.67-1.85Zm5.92,0c1.76-.67,2.06-1.09,2.06-3.78v-.34h-1.34v-5.08h3.36v5.08c0,3.95-.88,5.29-3.4,5.96l-.67-1.85Z"></path><path class="cls-14" d="m1406.74,1968.53h3.23l11.51,20.92h.08l11.51-20.92h3.23v32.77h-2.94v-27.85h-.04l-10.75,19.91h-2.06l-10.8-19.91h-.04v27.85h-2.94v-32.77Z"></path><path class="cls-14" d="m1443.23,1990.8c0-6.22,3.32-11.05,10.38-11.05,6.59,0,10.25,4.83,10.25,11.05s-3.7,11.05-10.29,11.05c-7.27,0-10.33-4.83-10.33-11.05Zm17.56,0c0-5.33-2.9-8.49-7.22-8.49-4.75,0-7.27,3.15-7.27,8.49s2.56,8.49,7.27,8.49c4.33,0,7.22-3.15,7.22-8.49Z"></path><path class="cls-14" d="m1468.05,1990.84c0-7.1,4.28-11.09,10.04-11.09,3.7,0,6.22,1.6,7.31,3.74h.04v-14.95h2.94v32.77h-1.97l-.67-3.61h-.08c-1.18,2.31-3.95,4.16-7.77,4.16-6.3,0-9.83-3.99-9.83-11.01Zm17.64-.5c0-5.5-3.36-8.07-7.35-8.07-3.11,0-7.14,1.47-7.14,8.4s3.61,8.61,7.14,8.61c4.24,0,7.35-2.73,7.35-8.95Z"></path><path class="cls-14" d="m1513,1991.8h-15.96c.17,4.79,2.48,7.48,6.93,7.48,3.82,0,5.67-1.43,5.97-4.83h2.98c-.29,4.24-3.28,7.39-9.03,7.39-7.06,0-9.83-4.66-9.83-10.88s3.23-11.22,10-11.22,8.95,3.99,8.95,10.21v1.85Zm-3.11-2.98c0-4.45-1.72-6.55-5.92-6.55s-6.55,2.65-6.89,6.97h12.81v-.42Z"></path><path class="cls-14" d="m1518.87,1980.29h2.6l.29,3.91c1.01-2.14,3.07-4.45,6.76-4.45,1.26,0,2.18.21,3.02.55v3.15c-1.13-.5-2.1-.76-3.4-.76-3.74,0-6.34,2.81-6.34,5.75v12.85h-2.94v-21Z"></path><path class="cls-14" d="m1534.5,1995.5c0-3.95,2.23-6.09,7.86-6.09h6.34v-1.72c0-2.98-1.26-5.42-5.46-5.42-3.95,0-5.33,1.51-5.33,4.12v.88h-2.98v-.84c0-5,4.2-6.68,8.32-6.68,5.8,0,8.4,2.86,8.4,8.44v13.11h-2.06l-.55-2.98h-.08c-1.26,1.89-3.7,3.53-7.35,3.53-4.92,0-7.1-2.31-7.1-6.34Zm14.2-1.85v-1.76h-7.01c-2.65,0-4.03.92-4.03,3.61,0,2.35,1.26,3.86,4.5,3.86,4.16,0,6.55-2.14,6.55-5.71Z"></path><path class="cls-14" d="m1569.74,1998.61v2.6c-.76.21-2.14.59-4.03.59-3.82,0-6.34-1.6-6.34-6.89v-12.18h-4.16v-2.44h4.16v-6.05l2.94-1.43v7.48h5.92v2.44h-5.92v11.8c0,2.82.76,4.58,3.4,4.58,1.6,0,3.23-.29,4.03-.5Z"></path><path class="cls-14" d="m1591.2,1991.8h-15.96c.17,4.79,2.48,7.48,6.93,7.48,3.82,0,5.67-1.43,5.97-4.83h2.98c-.29,4.24-3.28,7.39-9.03,7.39-7.06,0-9.83-4.66-9.83-10.88s3.23-11.22,10-11.22,8.95,3.99,8.95,10.21v1.85Zm-3.11-2.98c0-4.45-1.72-6.55-5.92-6.55s-6.55,2.65-6.89,6.97h12.81v-.42Z"></path><path class="cls-14" d="m1604.85,1994.87v-1.18h2.94v1.13c0,2.86,2.14,4.49,5.96,4.49s5.8-1.01,5.8-3.78c0-2.06-1.01-2.81-3.86-3.32l-4.62-.84c-3.02-.55-5.54-2.02-5.54-5.5,0-3.15,2.35-6.13,8.4-6.13s8.4,3.02,8.4,7.23v.88h-2.98v-.76c0-3.45-2.14-4.92-5.42-4.92-3.95,0-5.33,1.34-5.33,3.36s1.01,2.86,3.91,3.4l4.03.76c4.12.76,6.09,1.93,6.09,5.59,0,4.58-4.12,6.55-8.78,6.55-7.31,0-8.99-3.28-8.99-6.97Z"></path><path class="cls-14" d="m1628.49,1968.53h2.94v32.77h-2.94v-32.77Z"></path><path class="cls-14" d="m1637.52,1995.5c0-3.95,2.23-6.09,7.86-6.09h6.34v-1.72c0-2.98-1.26-5.42-5.46-5.42-3.95,0-5.33,1.51-5.33,4.12v.88h-2.98v-.84c0-5,4.2-6.68,8.32-6.68,5.8,0,8.4,2.86,8.4,8.44v13.11h-2.06l-.55-2.98h-.08c-1.26,1.89-3.7,3.53-7.35,3.53-4.92,0-7.1-2.31-7.1-6.34Zm14.2-1.85v-1.76h-7.01c-2.65,0-4.03.92-4.03,3.61,0,2.35,1.26,3.86,4.5,3.86,4.16,0,6.55-2.14,6.55-5.71Z"></path><path class="cls-14" d="m1662.01,1980.29h2.6l.29,3.49c1.01-2.14,3.28-4.03,7.35-4.03,4.75,0,7.77,2.52,7.77,7.94v13.61h-2.94v-13.27c0-4.33-2.14-5.71-5.5-5.71-3.82,0-6.64,2.69-6.64,5.63v13.36h-2.94v-21Z"></path><path class="cls-14" d="m1698.34,1998.61v2.6c-.76.21-2.14.59-4.03.59-3.82,0-6.34-1.6-6.34-6.89v-12.18h-4.16v-2.44h4.16v-6.05l2.94-1.43v7.48h5.92v2.44h-5.92v11.8c0,2.82.76,4.58,3.4,4.58,1.6,0,3.23-.29,4.03-.5Z"></path><path class="cls-14" d="m586.69,999.67h8.61c7.94,0,11.64,2.73,11.64,9.62,0,6.43-2.77,10.12-11.13,10.12h-6.13v13.02h-2.98v-32.77Zm9.28,17.22c6.09,0,7.94-2.69,7.94-7.65,0-5.21-2.6-6.97-8.44-6.97h-5.8v14.62h6.3Z"></path><path class="cls-14" d="m609.66,1021.93c0-6.22,3.32-11.05,10.38-11.05,6.6,0,10.25,4.83,10.25,11.05s-3.7,11.05-10.29,11.05c-7.27,0-10.33-4.83-10.33-11.05Zm17.56,0c0-5.33-2.9-8.49-7.23-8.49-4.75,0-7.27,3.15-7.27,8.49s2.56,8.49,7.27,8.49c4.33,0,7.23-3.15,7.23-8.49Z"></path><path class="cls-14" d="m636.16,999.67h2.98v6.51h-2.98v-6.51Zm0,11.76h2.94v21h-2.94v-21Z"></path><path class="cls-14" d="m646.49,1011.43h2.6l.29,3.49c1.01-2.14,3.28-4.03,7.35-4.03,4.75,0,7.77,2.52,7.77,7.94v13.61h-2.94v-13.27c0-4.33-2.14-5.71-5.5-5.71-3.82,0-6.64,2.69-6.64,5.63v13.36h-2.94v-21Z"></path><path class="cls-14" d="m682.82,1029.74v2.6c-.76.21-2.14.59-4.03.59-3.82,0-6.34-1.6-6.34-6.89v-12.18h-4.16v-2.44h4.16v-6.05l2.94-1.43v7.48h5.92v2.44h-5.92v11.8c0,2.82.76,4.58,3.4,4.58,1.6,0,3.23-.29,4.03-.5Z"></path><path class="cls-14" d="m704.29,1022.94h-15.96c.17,4.79,2.48,7.48,6.93,7.48,3.82,0,5.67-1.43,5.97-4.83h2.98c-.29,4.24-3.28,7.39-9.03,7.39-7.06,0-9.83-4.66-9.83-10.88s3.23-11.22,10-11.22,8.95,3.99,8.95,10.21v1.85Zm-3.11-2.98c0-4.45-1.72-6.55-5.92-6.55s-6.55,2.65-6.89,6.97h12.81v-.42Z"></path><path class="cls-14" d="m708.48,1021.97c0-7.1,4.28-11.09,10.04-11.09,3.7,0,6.22,1.6,7.31,3.74h.04v-14.95h2.94v32.77h-1.97l-.67-3.61h-.08c-1.18,2.31-3.95,4.16-7.77,4.16-6.3,0-9.83-3.99-9.83-11.01Zm17.64-.5c0-5.5-3.36-8.07-7.35-8.07-3.11,0-7.14,1.47-7.14,8.4s3.61,8.61,7.14,8.61c4.24,0,7.35-2.73,7.35-8.95Z"></path><path class="cls-14" d="m763.09,1022.94h-15.96c.17,4.79,2.48,7.48,6.93,7.48,3.82,0,5.67-1.43,5.97-4.83h2.98c-.29,4.24-3.28,7.39-9.03,7.39-7.06,0-9.83-4.66-9.83-10.88s3.23-11.22,10-11.22,8.95,3.99,8.95,10.21v1.85Zm-3.11-2.98c0-4.45-1.72-6.55-5.92-6.55s-6.55,2.65-6.89,6.97h12.81v-.42Z"></path><path class="cls-14" d="m768.96,1011.43h2.6l.29,3.49c1.01-2.14,3.28-4.03,7.35-4.03,4.75,0,7.77,2.52,7.77,7.94v13.61h-2.94v-13.27c0-4.33-2.14-5.71-5.5-5.71-3.82,0-6.64,2.69-6.64,5.63v13.36h-2.94v-21Z"></path><path class="cls-14" d="m805.3,1029.74v2.6c-.76.21-2.14.59-4.03.59-3.82,0-6.34-1.6-6.34-6.89v-12.18h-4.16v-2.44h4.16v-6.05l2.94-1.43v7.48h5.92v2.44h-5.92v11.8c0,2.82.76,4.58,3.4,4.58,1.6,0,3.23-.29,4.03-.5Z"></path><path class="cls-14" d="m810.12,1011.43h2.6l.29,3.91c1.01-2.14,3.07-4.45,6.76-4.45,1.26,0,2.18.21,3.02.55v3.15c-1.13-.5-2.1-.76-3.4-.76-3.74,0-6.34,2.81-6.34,5.75v12.85h-2.94v-21Z"></path><path class="cls-14" d="m827.64,1011.43l6.89,17.98h.08l7.14-17.98h3.07v.04l-8.86,20.84-3.11,8.53h-2.98v-.04l3.19-8.36-8.78-20.96v-.04h3.36Z"></path><path class="cls-14" d="m856.79,1026v-1.18h2.94v1.13c0,2.86,2.14,4.49,5.96,4.49s5.8-1.01,5.8-3.78c0-2.06-1.01-2.81-3.86-3.32l-4.62-.84c-3.02-.55-5.54-2.02-5.54-5.5,0-3.15,2.35-6.13,8.4-6.13s8.4,3.02,8.4,7.23v.88h-2.98v-.76c0-3.45-2.14-4.92-5.42-4.92-3.95,0-5.33,1.34-5.33,3.36s1.01,2.86,3.91,3.4l4.03.76c4.12.76,6.09,1.93,6.09,5.59,0,4.58-4.12,6.55-8.78,6.55-7.31,0-8.99-3.28-8.99-6.97Z"></path><path class="cls-14" d="m891.4,1029.74v2.6c-.76.21-2.14.59-4.03.59-3.82,0-6.34-1.6-6.34-6.89v-12.18h-4.16v-2.44h4.16v-6.05l2.94-1.43v7.48h5.92v2.44h-5.92v11.8c0,2.82.76,4.58,3.4,4.58,1.6,0,3.23-.29,4.03-.5Z"></path><path class="cls-14" d="m896.23,1011.43h2.6l.29,3.91c1.01-2.14,3.07-4.45,6.76-4.45,1.26,0,2.18.21,3.02.55v3.15c-1.13-.5-2.1-.76-3.4-.76-3.74,0-6.34,2.81-6.34,5.75v12.85h-2.94v-21Z"></path><path class="cls-14" d="m911.22,1021.93c0-6.22,3.32-11.05,10.38-11.05,6.59,0,10.25,4.83,10.25,11.05s-3.7,11.05-10.29,11.05c-7.27,0-10.33-4.83-10.33-11.05Zm17.56,0c0-5.33-2.9-8.49-7.22-8.49-4.75,0-7.27,3.15-7.27,8.49s2.56,8.49,7.27,8.49c4.33,0,7.22-3.15,7.22-8.49Z"></path><path class="cls-14" d="m937.09,999.67h2.94v23.23l12.14-11.47h3.65v.04l-8.4,7.86,8.78,13.06v.04h-3.36l-7.39-11.22-5.42,5.04v6.17h-2.94v-32.77Z"></path><path class="cls-14" d="m977.46,1022.94h-15.96c.17,4.79,2.48,7.48,6.93,7.48,3.82,0,5.67-1.43,5.97-4.83h2.98c-.29,4.24-3.28,7.39-9.03,7.39-7.06,0-9.83-4.66-9.83-10.88s3.23-11.22,10-11.22,8.95,3.99,8.95,10.21v1.85Zm-3.11-2.98c0-4.45-1.72-6.55-5.92-6.55s-6.55,2.65-6.89,6.97h12.81v-.42Z"></path><path class="cls-14" d="m981.44,1026v-1.18h2.94v1.13c0,2.86,2.14,4.49,5.96,4.49s5.8-1.01,5.8-3.78c0-2.06-1.01-2.81-3.86-3.32l-4.62-.84c-3.02-.55-5.54-2.02-5.54-5.5,0-3.15,2.35-6.13,8.4-6.13s8.4,3.02,8.4,7.23v.88h-2.98v-.76c0-3.45-2.14-4.92-5.42-4.92-3.95,0-5.33,1.34-5.33,3.36s1.01,2.86,3.91,3.4l4.03.76c4.12.76,6.09,1.93,6.09,5.59,0,4.58-4.12,6.55-8.78,6.55-7.31,0-8.99-3.28-8.99-6.97Z"></path><path class="cls-14" d="m825.38,3614.68h8.36c11.05,0,17.39,4.54,17.39,16.42s-6.26,16.34-17.18,16.34h-8.57v-32.77Zm8.65,30.12c9.41,0,14.03-3.74,14.03-13.78s-4.49-13.74-14.07-13.74h-5.67v27.51h5.71Z"></path><path class="cls-14" d="m857.42,3614.68h2.98v6.51h-2.98v-6.51Zm0,11.76h2.94v21h-2.94v-21Z"></path><path class="cls-14" d="m865.87,3641.02v-1.18h2.94v1.13c0,2.86,2.14,4.49,5.96,4.49s5.8-1.01,5.8-3.78c0-2.06-1.01-2.81-3.86-3.32l-4.62-.84c-3.02-.55-5.54-2.02-5.54-5.5,0-3.15,2.35-6.13,8.4-6.13s8.4,3.02,8.4,7.23v.88h-2.98v-.76c0-3.45-2.14-4.92-5.42-4.92-3.95,0-5.33,1.34-5.33,3.36s1.01,2.86,3.91,3.4l4.03.76c4.12.76,6.09,1.93,6.09,5.59,0,4.58-4.12,6.55-8.78,6.55-7.31,0-8.99-3.28-8.99-6.97Z"></path><path class="cls-14" d="m887.83,3637.12c0-6.38,3.23-11.22,10-11.22s8.95,3.91,8.95,8.95v.42h-3.11v-.63c0-3.82-1.64-6.09-5.84-6.09-4.75,0-7.02,3.11-7.02,8.4,0,5.63,2.39,8.49,6.93,8.49,3.82,0,5.84-1.85,5.92-5.67h3.02c-.08,4.66-3.15,8.23-9.03,8.23-7.23,0-9.83-4.75-9.83-10.88Z"></path><path class="cls-14" d="m910.97,3636.95c0-6.22,3.32-11.05,10.38-11.05,6.6,0,10.25,4.83,10.25,11.05s-3.7,11.05-10.29,11.05c-7.27,0-10.33-4.83-10.33-11.05Zm17.56,0c0-5.33-2.9-8.49-7.23-8.49-4.75,0-7.27,3.15-7.27,8.49s2.56,8.49,7.27,8.49c4.33,0,7.23-3.15,7.23-8.49Z"></path><path class="cls-14" d="m937.48,3626.45h2.6l.29,3.49c1.01-2.14,3.28-4.03,7.35-4.03,4.75,0,7.77,2.52,7.77,7.94v13.61h-2.94v-13.27c0-4.33-2.14-5.71-5.5-5.71-3.82,0-6.64,2.69-6.64,5.63v13.36h-2.94v-21Z"></path><path class="cls-14" d="m973.81,3644.76v2.6c-.76.21-2.14.59-4.03.59-3.82,0-6.34-1.6-6.34-6.89v-12.18h-4.16v-2.44h4.16v-6.05l2.94-1.43v7.48h5.92v2.44h-5.92v11.8c0,2.82.76,4.58,3.4,4.58,1.6,0,3.23-.29,4.03-.5Z"></path><path class="cls-14" d="m978.64,3614.68h2.98v6.51h-2.98v-6.51Zm0,11.76h2.94v21h-2.94v-21Z"></path><path class="cls-14" d="m988.97,3626.45h2.6l.29,3.49c1.01-2.14,3.28-4.03,7.35-4.03,4.75,0,7.77,2.52,7.77,7.94v13.61h-2.94v-13.27c0-4.33-2.14-5.71-5.5-5.71-3.82,0-6.64,2.69-6.64,5.63v13.36h-2.94v-21Z"></path><path class="cls-14" d="m1013.71,3640.06v-13.61h2.94v13.27c0,4.33,2.14,5.71,5.42,5.71,3.74,0,6.55-2.69,6.55-5.63v-13.36h2.94v21h-2.6l-.25-3.36h-.08c-.97,2.02-3.23,3.91-7.23,3.91-4.66,0-7.69-2.52-7.69-7.94Z"></path><path class="cls-14" d="m1037.23,3636.95c0-6.22,3.32-11.05,10.38-11.05,6.59,0,10.25,4.83,10.25,11.05s-3.7,11.05-10.29,11.05c-7.27,0-10.33-4.83-10.33-11.05Zm17.56,0c0-5.33-2.9-8.49-7.22-8.49-4.75,0-7.27,3.15-7.27,8.49s2.56,8.49,7.27,8.49c4.33,0,7.22-3.15,7.22-8.49Z"></path><path class="cls-14" d="m1063.31,3640.06v-13.61h2.94v13.27c0,4.33,2.14,5.71,5.42,5.71,3.74,0,6.55-2.69,6.55-5.63v-13.36h2.94v21h-2.6l-.25-3.36h-.08c-.97,2.02-3.23,3.91-7.23,3.91-4.66,0-7.69-2.52-7.69-7.94Z"></path><path class="cls-14" d="m1086.62,3641.02v-1.18h2.94v1.13c0,2.86,2.14,4.49,5.96,4.49s5.8-1.01,5.8-3.78c0-2.06-1.01-2.81-3.86-3.32l-4.62-.84c-3.02-.55-5.54-2.02-5.54-5.5,0-3.15,2.35-6.13,8.4-6.13s8.4,3.02,8.4,7.23v.88h-2.98v-.76c0-3.45-2.14-4.92-5.42-4.92-3.95,0-5.33,1.34-5.33,3.36s1.01,2.86,3.91,3.4l4.03.76c4.12.76,6.09,1.93,6.09,5.59,0,4.58-4.12,6.55-8.78,6.55-7.31,0-8.99-3.28-8.99-6.97Z"></path><path class="cls-14" d="m1118.24,3637.12c0-6.38,3.23-11.22,10-11.22s8.95,3.91,8.95,8.95v.42h-3.11v-.63c0-3.82-1.64-6.09-5.84-6.09-4.75,0-7.01,3.11-7.01,8.4,0,5.63,2.39,8.49,6.93,8.49,3.82,0,5.84-1.85,5.92-5.67h3.02c-.08,4.66-3.15,8.23-9.03,8.23-7.22,0-9.83-4.75-9.83-10.88Z"></path><path class="cls-14" d="m1141.39,3636.95c0-6.22,3.32-11.05,10.38-11.05,6.59,0,10.25,4.83,10.25,11.05s-3.7,11.05-10.29,11.05c-7.27,0-10.33-4.83-10.33-11.05Zm17.56,0c0-5.33-2.9-8.49-7.22-8.49-4.75,0-7.27,3.15-7.27,8.49s2.56,8.49,7.27,8.49c4.33,0,7.22-3.15,7.22-8.49Z"></path><path class="cls-14" d="m1167.89,3626.45h2.6l.29,3.49c1.01-2.14,3.28-4.03,7.35-4.03,4.75,0,7.77,2.52,7.77,7.94v13.61h-2.94v-13.27c0-4.33-2.14-5.71-5.5-5.71-3.82,0-6.64,2.69-6.64,5.63v13.36h-2.94v-21Z"></path><path class="cls-14" d="m1193.25,3626.45h2.6l.29,3.49c1.01-2.14,3.28-4.03,7.35-4.03,4.75,0,7.77,2.52,7.77,7.94v13.61h-2.94v-13.27c0-4.33-2.14-5.71-5.5-5.71-3.82,0-6.64,2.69-6.64,5.63v13.36h-2.94v-21Z"></path><path class="cls-14" d="m1235.89,3637.96h-15.96c.17,4.79,2.48,7.48,6.93,7.48,3.82,0,5.67-1.43,5.97-4.83h2.98c-.29,4.24-3.28,7.39-9.03,7.39-7.06,0-9.83-4.66-9.83-10.88s3.23-11.22,10-11.22,8.95,3.99,8.95,10.21v1.85Zm-3.11-2.98c0-4.45-1.72-6.55-5.92-6.55s-6.55,2.65-6.89,6.97h12.81v-.42Z"></path><path class="cls-14" d="m1240.08,3637.12c0-6.38,3.23-11.22,10-11.22s8.95,3.91,8.95,8.95v.42h-3.11v-.63c0-3.82-1.64-6.09-5.84-6.09-4.75,0-7.01,3.11-7.01,8.4,0,5.63,2.39,8.49,6.93,8.49,3.82,0,5.84-1.85,5.92-5.67h3.02c-.08,4.66-3.15,8.23-9.03,8.23-7.22,0-9.83-4.75-9.83-10.88Z"></path><path class="cls-14" d="m1275.87,3644.76v2.6c-.76.21-2.14.59-4.03.59-3.82,0-6.34-1.6-6.34-6.89v-12.18h-4.16v-2.44h4.16v-6.05l2.94-1.43v7.48h5.92v2.44h-5.92v11.8c0,2.82.76,4.58,3.4,4.58,1.6,0,3.23-.29,4.03-.5Z"></path><path class="cls-14" d="m1280.7,3614.68h2.98v6.51h-2.98v-6.51Zm0,11.76h2.94v21h-2.94v-21Z"></path><path class="cls-14" d="m1289.35,3636.95c0-6.22,3.32-11.05,10.38-11.05,6.59,0,10.25,4.83,10.25,11.05s-3.7,11.05-10.29,11.05c-7.27,0-10.33-4.83-10.33-11.05Zm17.56,0c0-5.33-2.9-8.49-7.22-8.49-4.75,0-7.27,3.15-7.27,8.49s2.56,8.49,7.27,8.49c4.33,0,7.22-3.15,7.22-8.49Z"></path><path class="cls-14" d="m1315.85,3626.45h2.6l.29,3.49c1.01-2.14,3.28-4.03,7.35-4.03,4.75,0,7.77,2.52,7.77,7.94v13.61h-2.94v-13.27c0-4.33-2.14-5.71-5.5-5.71-3.82,0-6.64,2.69-6.64,5.63v13.36h-2.94v-21Z"></path><path class="cls-14" d="m1348.15,3626.49v-.04h2.98l5.76,17.48h.08l6.3-17.48h2.69l6.17,17.48h.08l5.75-17.48h2.86v.04l-7.18,20.96h-3.02l-5.96-17.05h-.08l-6.22,17.05h-3.02l-7.18-20.96Z"></path><path class="cls-14" d="m1385.66,3614.68h2.98v6.51h-2.98v-6.51Zm0,11.76h2.94v21h-2.94v-21Z"></path><path class="cls-14" d="m1406.95,3644.76v2.6c-.76.21-2.14.59-4.03.59-3.82,0-6.34-1.6-6.34-6.89v-12.18h-4.16v-2.44h4.16v-6.05l2.94-1.43v7.48h5.92v2.44h-5.92v11.8c0,2.82.76,4.58,3.4,4.58,1.6,0,3.23-.29,4.03-.5Z"></path><path class="cls-14" d="m1411.78,3614.68h2.94v15.16c1.05-2.1,3.28-3.95,7.31-3.95,4.75,0,7.77,2.52,7.77,7.94v13.61h-2.94v-13.27c0-4.33-2.14-5.71-5.5-5.71-3.82,0-6.64,2.69-6.64,5.63v13.36h-2.94v-32.77Z"></path><path class="cls-14" d="m1448.49,3625.14h-3.36v-5.08c0-3.95.88-5.29,3.4-5.96l.67,1.85c-1.76.67-2.06,1.09-2.06,3.78v.34h1.34v5.08Zm5.92,0h-3.36v-5.08c0-3.95.88-5.29,3.4-5.96l.67,1.85c-1.76.67-2.06,1.09-2.06,3.78v.34h1.34v5.08Z"></path><path class="cls-14" d="m1476.38,3637.96h-15.96c.17,4.79,2.48,7.48,6.93,7.48,3.82,0,5.67-1.43,5.97-4.83h2.98c-.29,4.24-3.28,7.39-9.03,7.39-7.06,0-9.83-4.66-9.83-10.88s3.23-11.22,10-11.22,8.95,3.99,8.95,10.21v1.85Zm-3.11-2.98c0-4.45-1.72-6.55-5.92-6.55s-6.55,2.65-6.89,6.97h12.81v-.42Z"></path><path class="cls-14" d="m1477.64,3623.88c1.76-.67,2.06-1.09,2.06-3.78v-.34h-1.34v-5.08h3.36v5.08c0,3.95-.88,5.29-3.4,5.96l-.67-1.85Zm5.92,0c1.76-.67,2.06-1.09,2.06-3.78v-.34h-1.34v-5.08h3.36v5.08c0,3.95-.88,5.29-3.4,5.96l-.67-1.85Z"></path><path class="cls-14" d="m350.43,2830.54h18.86v2.6h-15.92v12.94h12.31v2.6h-12.31v14.62h-2.94v-32.77Z"></path><path class="cls-14" d="m374.54,2830.54h2.94v32.77h-2.94v-32.77Z"></path><path class="cls-14" d="m383.57,2857.5c0-3.95,2.23-6.09,7.86-6.09h6.34v-1.72c0-2.98-1.26-5.42-5.46-5.42-3.95,0-5.33,1.51-5.33,4.12v.88h-2.98v-.84c0-5,4.2-6.68,8.32-6.68,5.8,0,8.4,2.86,8.4,8.44v13.11h-2.06l-.55-2.98h-.08c-1.26,1.89-3.7,3.53-7.35,3.53-4.92,0-7.1-2.31-7.1-6.34Zm14.2-1.85v-1.76h-7.01c-2.65,0-4.03.92-4.03,3.61,0,2.35,1.26,3.86,4.5,3.86,4.16,0,6.55-2.14,6.55-5.71Z"></path><path class="cls-14" d="m418.81,2860.61v2.6c-.76.21-2.14.59-4.03.59-3.82,0-6.34-1.6-6.34-6.89v-12.18h-4.16v-2.44h4.16v-6.05l2.94-1.43v7.48h5.92v2.44h-5.92v11.8c0,2.82.76,4.58,3.4,4.58,1.6,0,3.23-.29,4.03-.5Z"></path><path class="cls-14" d="m444.26,2860.61v2.6c-.76.21-2.14.59-4.03.59-3.82,0-6.34-1.6-6.34-6.89v-12.18h-4.16v-2.44h4.16v-6.05l2.94-1.43v7.48h5.92v2.44h-5.92v11.8c0,2.82.76,4.58,3.4,4.58,1.6,0,3.23-.29,4.03-.5Z"></path><path class="cls-14" d="m446.78,2852.8c0-6.22,3.32-11.05,10.38-11.05,6.59,0,10.25,4.83,10.25,11.05s-3.7,11.05-10.29,11.05c-7.27,0-10.33-4.83-10.33-11.05Zm17.56,0c0-5.33-2.9-8.49-7.22-8.49-4.75,0-7.27,3.15-7.27,8.49s2.56,8.49,7.27,8.49c4.33,0,7.22-3.15,7.22-8.49Z"></path><path class="cls-14" d="m473.28,2842.3h2.39l.34,3.87h.08c1.13-2.48,4.03-4.41,7.86-4.41,6.3,0,9.66,3.99,9.66,11.01s-4.29,11.09-9.87,11.09c-3.78,0-6.38-1.6-7.43-3.7h-.08v11.55h-2.94v-29.41Zm17.18,10.63c0-7.18-3.4-8.61-6.93-8.61-4.24,0-7.56,2.73-7.56,8.44,0,6.01,3.45,8.57,7.44,8.57,3.02,0,7.06-1.47,7.06-8.4Z"></path><path class="cls-14" d="m509.15,2830.54h2.98v6.51h-2.98v-6.51Zm0,11.76h2.94v21h-2.94v-21Z"></path><path class="cls-14" d="m519.48,2842.3h2.6l.29,3.49c1.01-2.14,3.28-4.03,7.35-4.03,4.75,0,7.77,2.52,7.77,7.94v13.61h-2.94v-13.27c0-4.33-2.14-5.71-5.5-5.71-3.82,0-6.64,2.69-6.64,5.63v13.36h-2.94v-21Z"></path><path class="cls-14" d="m556.19,2841h-3.36v-5.08c0-3.95.88-5.29,3.4-5.96l.67,1.85c-1.76.67-2.06,1.09-2.06,3.78v.34h1.34v5.08Zm5.92,0h-3.36v-5.08c0-3.95.88-5.29,3.4-5.96l.67,1.85c-1.76.67-2.06,1.09-2.06,3.78v.34h1.34v5.08Z"></path><path class="cls-14" d="m566.39,2856.12v-1.26h2.98v1.26c0,3.24,2.23,5,6.55,5,4.58,0,7.44-2.73,7.44-7.01s-2.86-6.43-8.57-6.43h-2.94v-2.73h2.18c5.5,0,8.7-2.52,8.7-6.93,0-3.49-2.27-5.38-6.51-5.38s-6.34,1.64-6.34,5.17v1.26h-2.94v-1.26c0-5.25,3.23-7.86,9.28-7.86s9.58,2.98,9.58,8.07c0,3.78-2.35,7.01-6.47,7.98v.13c4.62.67,7.06,3.49,7.06,7.98,0,5.84-4.2,9.7-10.54,9.7s-9.45-2.86-9.45-7.69Z"></path><path class="cls-14" d="m589.96,2839.73c1.76-.67,2.06-1.09,2.06-3.78v-.34h-1.34v-5.08h3.36v5.08c0,3.95-.88,5.29-3.4,5.96l-.67-1.85Zm5.92,0c1.76-.67,2.06-1.09,2.06-3.78v-.34h-1.34v-5.08h3.36v5.08c0,3.95-.88,5.29-3.4,5.96l-.67-1.85Z"></path><rect class="cls-16" x="769.31" y="2538.6" width="109.21" height="109.21" rx="54.6" ry="54.6"></rect><circle class="cls-16" cx="796.75" cy="1327.1" r="62.2"></circle><path class="cls-14" d="m525.36,467.11c-29.98.57-38.46,1.13-38.46,1.13-4.52,40.72-51.47,110.29-117.64,108.59-26.58-.57-49.77-19.23-69.57-52.6-20.36-33.37-29.97-70.13-27.71-109.16,2.83-40.72,14.14-73.53,33.37-98.41,22.06-27.71,52.03-42.42,90.49-42.98,39.59-.57,70.7,8.48,91.62,28.84,3.39,2.83,5.09,6.22,5.09,9.05,0,6.79-3.96,10.18-11.31,10.18-2.26,0-9.05-2.83-18.66-9.05-18.66-11.31-40.72-16.97-65.61-16.4-29.97.57-53.73,10.18-71.26,29.41-19.79,20.93-29.98,51.47-30.54,91.62-1.13,34.5,6.22,65.04,21.49,92.19,12.44,21.49,33.93,42.42,54.3,44.12,47.51,3.96,78.61-44.12,89.93-75.22,1.13-2.26,1.7-10.18-3.96-10.18h-18.1c-7.92,0-11.88-3.96-11.88-11.31s3.96-10.75,10.18-10.75c0,0,85.4-1.7,95.58-1.13,29.41,1.7,22.62,24.32,11.88,24.32-5.65,0-10.18-2.26-19.23-2.26Z"></path><path class="cls-14" d="m842.65,433.18c1.7-17.53-10.18-3.39-13.57.57-13.01,14.14-28.85,36.2-48.08,65.61-15.84,23.19-26.58,39.02-32.8,46.94-9.05,11.88-27.71,30.54-43.55,30.54-13.01,0-18.67-11.88-16.4-35.63,1.13-10.18,2.26-20.36,3.39-31.11-28.85,43.55-54.86,66.17-78.62,66.17-18.1,0-29.97-18.1-35.06-54.86-1.13-6.22-1.13-12.44-1.13-19.8,0-18.1,2.26-36.2,6.79-54.3,5.09-18.66,10.75-31.67,17.53-38.46,14.71-14.71,40.16-22.06,76.35-22.06,11.88,0,23.19.57,32.8,2.26,9.62,1.7,14.71,2.83,14.14,4.52l-1.7,18.1-13.01,125.56c-.56,7.92.56,11.88,2.26,11.88,2.83,0,10.18-4.52,19.8-15.27,9.61-10.75,18.66-23.19,28.28-37.33,18.67-28.28,37.33-53.73,54.86-76.92,15.84-20.36,28.84-31.67,40.72-31.67,24.32-.57-14.14,55.99-13.01,45.25Zm-174.77-23.75c-24.32,0-41.29,5.09-50.9,16.4-11.88,13.57-17.53,39.59-17.53,76.92,0,34.5,6.22,51.47,19.23,51.47,11.31,0,26.01-13.01,44.68-39.02,7.92-10.75,13.57-20.36,16.97-28.84,7.92-17.53,14.71-42.98,20.36-75.22-15.84-1.13-26.58-1.7-32.8-1.7Z"></path><path class="cls-14" d="m1100.56,550.82c-15.27,16.97-28.28,26.02-39.59,26.02-13.57,0-19.8-11.88-17.53-35.63,1.7-16.97,4.52-33.93,6.79-50.34,3.96-31.67,5.66-50.9,5.09-57.69-.56-14.14-6.22-21.49-16.97-21.49-13.57,0-27.15,9.05-40.72,27.15-10.75,14.71-18.67,27.15-22.62,37.89-6.79,18.66-12.44,48.07-16.97,88.8-.56,7.35-5.09,11.31-12.44,11.31-7.92,0-11.88-3.39-10.75-9.61l1.7-12.44c9.61-70.13,11.88-110.85,10.74-121.6-1.7-14.14-6.79-20.93-16.4-20.93-11.88,0-24.89,9.05-39.59,26.58-11.88,14.14-19.8,27.15-24.32,37.89-7.35,18.66-12.44,48.64-16.4,88.8-.57,7.35-5.09,11.31-12.44,11.31-7.92,0-11.88-3.39-10.74-9.61l1.7-12.44,15.84-156.1c.57-7.35,2.83-10.75,10.75-10.18,6.79,0,10.18,5.66,10.18,18.1,0,4.52-1.13,12.44-3.96,37.33,9.61-12.44,20.93-29.41,34.5-39.59,14.14-10.18,27.15-15.84,39.59-15.84,22.06-.57,32.8,14.14,32.8,42.98,0,3.96-.56,8.48-1.13,12.44,25.45-36.76,50.9-55.43,75.79-55.43,13.01,0,22.06,5.09,28.28,15.84,4.52,7.35,6.22,16.97,6.22,28.84,0,13.57-3.39,41.85-9.05,84.84-1.7,12.44-2.26,20.36-2.26,24.32,0,5.66,1.7,7.92,4.52,6.22,2.83-1.13,8.48-6.22,16.97-15.27,3.39-3.39,6.79-5.09,10.74-5.09,5.66,0,8.48,2.83,8.48,8.48,0,4.52-2.26,9.05-6.79,14.14Z"></path><path class="cls-14" d="m1420.11,433.18c1.7-17.53-10.74-3.96-14.14.57-11.88,15.27-33.93,46.94-52.03,70.7-14.71,19.23-40.72,44.12-54.3,52.6-32.24,19.8-69,22.62-105.76,19.8l-16.4-1.13c-7.35-.57-5.66-5.09-5.09-14.14l.56-7.92,32.24-330.86,2.26-13.57c1.7-11.88,23.76-12.44,22.06.57l-1.7,13.01-20.93,224.54c16.4-24.89,40.72-58.25,75.79-58.82,26.58,0,32.24,31.67,35.63,54.86,3.4,23.75,0,55.99-7.92,80.88,8.48-8.48,18.66-19.23,28.84-32.24,16.4-21.49,27.71-38.46,53.16-72.39,15.84-20.36,28.85-31.67,40.72-31.67,24.32-.57-14.14,55.99-13.01,45.25Zm-186.64,11.31c-18.1,23.75-30.54,35.07-37.89,110.29,28.28.57,63.91,6.22,83.14-14.71,16.97-18.1,21.49-82.57,15.84-107.46-6.22-26.58-24.32-36.2-61.08,11.88Z"></path><path class="cls-14" d="m1551.33,447.32l-9.05,12.44c-10.74,14.71-24.32,31.11-42.42,52.6-11.31,13.01-22.62,26.02-33.37,38.46-15.27,16.97-28.28,26.02-39.59,26.02-13.57,0-19.79-11.88-17.53-35.07,0-1.13,0-5.66,1.13-13.57l12.44-129.52c1.13-6.79,5.09-10.18,11.88-10.18,7.35,0,11.31,3.96,10.18,11.31l-1.13,12.44-11.88,124.99c-1.13,7.92,0,11.88,2.26,11.88,2.83,0,13.57-9.05,19.23-15.27,20.36-23.19,51.47-58.82,88.79-107.46,3.96-5.09,9.05-11.88,10.18-17.53h2.26l-3.4,38.46Zm-96.71-99.54c-1.7,3.39-10.74,10.18-21.49,0-6.79-6.22,18.1-47.51,24.89-45.25,11.88,3.96,2.83,32.8-3.39,45.25Z"></path><path class="cls-14" d="m1600.54,410.56c-7.92,0-16.4,0-23.75-.57,0,0-10.75,111.42-11.88,118.21-1.13,19.8,7.92,28.28,22.62,25.45,20.36-3.96,27.15-25.45,37.33-28.28,6.22-1.7,11.31,5.09,10.75,12.44-1.13,8.48-16.4,23.19-22.06,27.71-10.74,7.35-21.49,11.31-33.93,11.31-30.54,0-39.59-28.84-36.76-54.86l10.75-111.98-14.14.57c-11.31.57-15.84-20.36,1.13-20.93h14.71l5.66-47.51c1.13-11.88,23.19-13.57,22.06,1.13l-5.09,45.81h57.69c16.4,0,16.97,20.93,1.7,20.93l-36.76.57Z"></path><path class="cls-16" d="m533.11,1505.31c-6.28,0-9.71-2.85-10.85-7.99-6.85-34.83-17.13-89.07-31.98-162.73-5.14-25.69-11.99-55.39-19.99-88.5-10.85,22.27-28.55,58.81-52.53,110.77-25.12,54.82-43.97,102.21-59.38,141.61-1.71,4.57-5.71,6.85-10.85,6.85-6.28,0-9.71-2.85-10.85-7.99-5.14-24.55-13.13-57.67-23.98-98.78-2.85-11.99-18.84-61.1-46.82-146.17-7.42,19.98-29.69,98.78-79.37,231.25l-5.14,13.7c-1.71,5.14-5.71,7.99-11.99,7.99-7.42,0-10.85-3.43-10.85-10.28,0-1.71.57-3.43,1.14-5.14l95.93-279.79c1.71-5.71,5.71-8.56,11.42-8.56s9.71,2.85,11.42,7.99c13.7,40.54,32.55,101.64,55.96,182.72,6.85,24.55,11.99,46.25,16.56,64.52,14.27-35.4,29.12-71.94,45.68-109.06,21.7-49.68,44.54-97.07,67.95-142.18,1.71-2.85,4.57-4.57,9.71-4.57,6.28,0,10.28,2.28,11.42,6.85l26.26,122.19c13.13,61.1,23.41,115.34,31.98,162.73,1.71,8.56-2.28,12.56-10.85,12.56Z"></path><path class="cls-14" d="m802.63,1360.28c1.71-17.7-10.28-3.43-13.7.57-13.13,14.27-29.12,36.54-48.54,66.24-10.85,16.56-27.41,41.11-36.54,51.96-12.56,14.85-28.55,26.27-39.97,26.27-13.7,0-19.41-11.99-17.7-35.4,0-1.14.57-5.71,1.14-13.7l9.14-95.93c.57-5.14.57-7.42-.57-7.42-.57,0-3.43,2.28-6.85,6.28-4,4.57-8.56,6.85-12.56,6.85-5.14,0-7.99-2.28-7.99-7.42,0-3.43,1.71-7.42,5.14-11.99,15.99-21.13,28.55-31.4,37.68-31.4,7.42,0,11.42,6.28,11.42,18.27,0,1.71-1.71,14.27-4,37.69l-9.71,94.21c-.57,7.99.57,11.99,2.28,11.99,2.86,0,9.71-5.14,19.42-15.42,9.71-10.85,18.84-23.41,28.55-37.69,18.84-28.55,37.69-54.24,55.39-77.65,15.99-20.56,29.12-31.98,41.11-31.98,24.55-.57-14.28,56.53-13.13,45.68Zm-110.77-86.22c-1.71,3.43-10.85,10.28-21.7,0-6.85-6.28,18.27-47.96,25.12-45.68,11.99,4,2.85,33.12-3.43,45.68Z"></path><path class="cls-14" d="m1056.72,1360.28c1.71-17.7-10.28-3.43-13.7.57-13.13,14.27-29.12,36.54-48.54,66.24-12.56,18.84-27.41,39.4-33.12,47.39-13.7,19.41-31.98,30.83-43.97,30.83-13.7,0-19.41-11.99-16.56-35.97,2.28-16.56,4.57-33.69,6.85-50.82,4-31.4,6.28-50.82,5.14-58.24-2.28-14.27-7.99-21.7-17.13-21.7-6.85,0-14.85,4-24.55,11.42-15.42,11.99-27.98,26.27-36.54,42.82-12.56,24.55-20.56,58.24-25.12,101.07-.57,7.42-5.14,11.42-12.56,11.42s-10.85-3.43-9.71-9.71l1.71-12.56,15.42-157.59c.57-7.42,3.43-10.85,9.71-10.85,7.42,0,11.42,6.28,11.42,18.84,0,4.57-1.71,17.13-4,37.69,8.56-12.56,19.41-24.55,32.55-35.4,16.56-14.27,31.4-21.7,43.4-20.56,13.7,1.14,23.41,6.85,30.26,17.13,5.14,7.99,7.99,17.13,7.99,27.98,0,11.42-3.43,39.97-9.71,85.65-1.71,13.13-2.85,21.13-2.85,24.55,0,5.71,1.71,7.99,4.57,6.28,2.85-1.14,8.57-6.28,17.13-14.85,10.28-10.85,18.84-23.41,28.55-37.69,18.84-28.55,37.69-54.24,55.39-77.65,15.42-20.56,29.12-31.98,41.11-31.98,24.55-.57-14.27,56.53-13.13,45.68Z"></path><path class="cls-14" d="m1303.96,1374.56l-9.14,12.56c-23.98,32.55-51.39,62.81-77.65,93.64-14.85,17.7-27.98,25.69-39.4,25.12-13.7-.57-17.13-10.85-15.99-35.4.57-10.28,2.85-21.7,4-32.55-32.55,46.25-51.39,66.81-81.08,67.38-22.27.57-35.4-17.7-35.97-54.82,0-18.84,2.86-71.94,6.85-102.21,1.71-15.42,1.71-32.55,15.42-32.55,7.99,0,10.85,3.43,10.28,10.85,0,0-3.43,26.84-4.57,45.11-4,57.67-13.13,112.49,12.56,110.77,25.12-1.71,57.1-49.68,65.67-70.8,7.99-19.98,15.42-45.68,19.41-78.23,1.71-11.42,6.28-18.27,13.7-18.27s10.85,4.57,10.28,11.99c0,2.85-.57,7.42-1.14,12.56l-13.7,126.76c-2.85,24.55,13.7,4,21.7-4.57,22.27-24.55,61.1-71.37,89.64-108.49,4-5.14,9.14-11.99,10.28-17.7h2.28l-3.43,38.83Z"></path><path class="cls-14" d="m1353.64,1337.44c-7.99,0-16.56,0-23.98-.57,0,0-10.85,112.49-11.99,119.34-1.14,19.98,8,28.55,22.84,25.69,20.56-4,27.41-25.69,37.69-28.55,6.28-1.71,11.42,5.14,10.85,12.56-1.14,8.56-16.56,23.41-22.27,27.98-10.85,7.42-21.7,11.42-34.26,11.42-30.84,0-39.97-29.12-37.12-55.39l10.85-113.06-14.27.57c-11.42.57-15.99-20.56,1.14-21.13h14.85l5.71-47.96c1.14-11.99,23.41-13.7,22.27,1.14l-5.14,46.25h58.24c16.56,0,17.13,21.13,1.71,21.13l-37.11.57Z"></path><path class="cls-14" d="m1638,1381.41c-11.42,14.27-34.83,50.25-73.66,88.5-23.41,23.41-45.11,35.4-77.08,35.97-36.54.57-58.81-50.25-55.96-103.35,4-67.95,50.25-90.79,84.51-89.07,18.27.57,46.82,17.13,38.83,51.39-6.85,33.12-52.53,53.67-101.07,51.39,0,0-1.71,27.98,10.85,49.11,22.27,35.97,67.38,5.71,85.08-11.99,37.12-37.11,77.08-90.22,88.5-104.49,17.13-22.27,18.84-17.13,9.14,19.98l-9.14,12.56Zm-149.03-40.54c-33.69,16.56-34.26,54.24-34.26,54.24,27.41,0,47.39-2.28,66.81-16.56,28.55-21.13,8.57-57.67-32.55-37.69Z"></path><path class="cls-14" d="m1744.2,1341.44c-41.68-13.13-80.51-5.14-79.94,20.56.57,34.83,88.5,47.39,87.93,97.07-1.14,29.12-31.98,45.68-59.38,46.25-22.27.57-47.39-7.99-57.1-17.13-9.71-8.56-2.28-28.55,10.28-18.84,29.69,23.41,82.22,14.85,83.36-9.71,1.71-35.97-92.5-51.96-87.93-99.92,2.85-30.26,26.26-44.54,57.67-46.25,20.56-1.14,39.97,0,58.81,11.42,6.85,4.57,4.57,22.27-13.7,16.56Z"></path><path class="cls-16" d="m670.01,2419.88c-5.09,0-8.48-2.26-10.17-6.22l-5.09-12.43-28.26-78.56c-1.69-5.09-5.09-7.91-9.04-7.91h-118.11c-5.09,0-8.48,2.26-10.74,6.22l-38.43,78.55-5.65,13.56c-2.26,5.09-5.65,7.35-11.3,7.35-8.48,0-12.44-3.39-12.44-9.61,0-1.7.57-2.82,1.13-4.52l7.35-15.26,132.24-265.61c2.83-5.65,5.65-8.48,7.91-8.48s4.52,2.26,6.22,7.35l3.95,10.17,101.16,271.83c.57,1.7.57,2.82.57,3.96,0,6.22-3.95,9.61-11.3,9.61Zm-103.42-254.88l-64.43,127.72h114.16l-49.73-127.72Z"></path><path class="cls-14" d="m902.85,2070.06c-18.08-2.26-40.12-7.91-62.16,2.26-28.82,13.56-45.78,43.52-48.04,97.2,0,2.83-.57,34.47-2.83,62.73,46.34,1.13,105.12,0,113.03,0,11.3,0,12.44,20.34-.56,20.34-7.91,0-15.82.57-20.91.57-31.08,1.13-61.6,1.13-92.68.57l-2.83,38.99-11.87,187.63-1.13,12.43c-1.7,16.96-2.83,27.13-6.22,39.56-6.22,23.73-16.39,40.69-35.04,55.95-23.74,19.21-62.17,27.13-98.33,10.17-6.78-3.39-9.04-25.43,9.61-19.21,14.7,4.52,39,9.04,60.47-1.13,27.69-13.56,45.78-43.51,48.04-97.2,0-5.65,5.09-74.03,7.91-122.63l5.65-105.12h-14.13c-11.3,0-15.82-20.91,1.13-20.91h15.26l2.83-61.6,1.13-12.43c1.7-16.95,3.39-27.13,6.78-40.12,6.22-23.74,16.39-40.12,35.04-54.82,24.3-19.21,62.17-26,99.46-13.56,7.35,2.26,10.17,23.17-9.61,20.34Z"></path><path class="cls-14" d="m1019.27,2070.06c-18.08-2.26-40.12-7.91-62.16,2.26-28.82,13.56-45.78,43.52-48.04,97.2,0,2.83-.57,34.47-2.83,62.73,41.82,1.7,54.25,2.26,76.29,1.7,22.61-.57,55.95-.57,68.95-2.26,2.83-.57-18.65,20.34-21.48,20.34-50.86,4.52-90.42,2.83-124.89,1.7l-2.83,38.99-11.87,187.63-1.13,12.43c-1.7,16.96-2.83,27.13-6.22,39.56-6.22,23.73-16.39,40.69-35.04,55.95-23.74,19.21-62.17,27.13-98.33,10.17-6.78-3.39-9.04-25.43,9.61-19.21,14.7,4.52,39,9.04,60.47-1.13,27.69-13.56,45.78-43.51,48.04-97.2,0-5.65,5.09-74.03,7.91-122.63l5.65-105.12h-14.13c-11.87,0-15.82-20.91,1.13-20.91h15.26l2.83-61.6,1.13-12.43c1.7-16.95,3.39-27.13,6.78-40.12,6.22-23.74,16.39-40.12,35.04-54.82,24.3-19.21,62.17-26,99.46-13.56,7.35,2.26,10.17,23.17-9.61,20.34Z"></path><path class="cls-14" d="m1218.77,2263.91c0-10.17-6.78-9.61-10.74-10.17-33.34,1.7-51.43,1.13-84.21-1.7,12.43,13,16.95,34.47,14.69,64.99-1.7,27.13-11.3,50.86-28.26,71.21-17.52,21.48-38.43,32.21-62.73,32.21-17.52,0-32.78-10.74-45.21-31.65-12.44-20.91-17.52-44.08-16.39-69.51,3.95-60.47,31.08-89.86,81.38-88.73,30.52,1.13,68.38,1.7,113.03,2.83,9.61,0,38.43-1.7,49.17-2.26,16.39-1.13,12.44,22.04-.56,21.48-6.78-.57-10.17,11.3-10.17,11.3Zm-152.59-11.87c-37.3.57-56.51,23.74-58.21,68.38-.56,18.65,2.83,35.6,9.61,50.86,8.48,17.52,19.78,26,32.78,27.69,9.61,1.13,20.91-2.83,33.91-14.13,18.65-15.26,29.39-38.43,32.21-68.38.57-3.96.57-7.91.57-11.87,0-35.6-16.95-53.12-50.86-52.56Z"></path><path class="cls-14" d="m1291.11,2254.3c-9.61.57-29.95,24.3-48.6,66.69-10.74,24.87-14.13,63.29-16.39,87.6-1.13,16.39-24.87,13.56-23.17,1.7l1.69-12.44,14.13-142.41,1.13-13.56c1.13-13,24.3-14.69,22.61,1.13,0,0-1.13,13.56-4.52,44.08,14.69-25.43,33.34-55.38,53.69-55.38,32.21,0,32.78,43.52,58.77,4.52,9.04-13.56,24.3,6.22,5.09,24.3-36.17,32.78-44.65-7.91-64.43-6.22Z"></path><path class="cls-14" d="m1469.69,2384.28c1.13-7.35,3.39-30.52,2.82-31.08-16.39,24.87-43.51,65.56-78.55,66.12-26,0-31.65-31.65-35.04-54.25-5.09-36.74,5.65-94.94,23.74-113.03,24.3-23.74,66.69-22.61,100.59-20.34l15.82-165.59,2.26-13.56c2.26-11.87,23.74-12.43,22.04.57l-1.7,13-17.52,188.76s-11.87,108.51-13.56,125.46c-.56,12.43-1.69,20.91,22.04-3.95,11.3-11.87,29.39-1.13,12.43,18.08-31.08,36.17-59.9,35.6-55.38-10.17Zm-71.21-115.29c-11.87,13.56-24.3,66.69-16.39,106.24,5.65,28.26,24.87,36.17,62.73-16.95,9.61-13,23.74-29.39,37.3-103.99-31.65-1.7-63.86-7.35-83.64,14.69Z"></path><path class="cls-14" d="m463.41,3125.24c-26.21,18.96-56.33,36.81-56.33,36.81,38.48-1.12,70.83,9.48,86.45,32.91,23.42,36.25,10.04,73.62,2.23,87.01-16.73,30.12-51.87,49.08-80.31,51.87-30.67,2.79-62.47-1.12-84.22-15.06-7.25-5.02-2.23-25.65,13.39-17.85,45.73,23.98,136.09,15.62,140.55-61.35,4.46-69.72-97.05-59.12-123.82-47.97-10.04,3.91-17.85-13.94-8.92-18.96,27.89-15.62,113.78-74.74,114.34-75.29,0,0-33.46,0-57.45.56-16.18,0-30.68,1.12-41.83,1.12-12.83,0-15.06-21.2-1.67-21.75,0,0,30.68-1.67,43.5-2.23,14.5-.56,52.98,0,73.62.56,10.6.56,23.98-.56,23.98,11.15,0,7.25-21.75,22.87-43.5,38.48Z"></path><path class="cls-14" d="m920.19,3256.31c-2.79,0-9.48,5.58-16.73,12.27-13.94,12.83-47.41,38.48-60.79,46.85-31.79,19.52-67.49,22.31-104.29,19.52l-16.18,163.42-1.67,13.39c-1.12,11.71-23.98,12.27-22.31-1.12l1.67-12.27,29-291.14,1.12-13.94c1.12-12.27-1.67-7.81-8.92.56-8.37,10.04-27.33,5.02-12.83-13.94,8.92-11.15,22.31-30.68,36.25-31.23,11.71,0,8.92,37.37,7.25,58.56,16.17-24.54,40.16-57.45,74.18-58,26.21,0,31.79,31.23,35.14,54.1,3.34,22.87-1.12,70.27-8.92,80.87,14.5-11.15,39.6-29,52.42-40.16,5.02-4.46,7.25-7.81,11.15-11.71,2.79-2.79,7.81-5.58,8.37-1.12,1.12,8.37,2.23,24.54-3.91,25.1Zm-142.22-51.87c-17.85,23.42-30.12,34.58-37.37,108.76,27.88.56,63.02,6.13,81.99-14.5,16.73-17.85,21.19-81.43,15.62-105.97-5.58-26.21-23.98-35.69-60.23,11.71Z"></path><path class="cls-14" d="m1123.21,3213.92c-11.15,13.94-34.02,49.08-71.95,86.45-22.87,22.87-44.06,34.58-75.29,35.14-35.69.56-57.45-49.08-54.66-100.95,3.91-66.37,49.08-88.68,82.54-87.01,17.85.56,45.73,16.73,37.93,50.2-6.69,32.35-51.31,52.43-98.72,50.2,0,0-1.67,27.33,10.6,47.96,21.75,35.14,65.81,5.58,83.1-11.71,36.25-36.25,75.29-88.12,86.45-102.07,16.73-21.75,18.41-16.73,8.92,19.52l-8.92,12.27Zm-145.57-39.6c-32.91,16.18-33.46,52.98-33.46,52.98,26.77,0,46.29-2.23,65.26-16.17,27.89-20.64,8.36-56.33-31.79-36.81Z"></path><path class="cls-14" d="m1372.52,3193.28c1.67-17.29-10.04-3.35-13.39.56-12.83,13.94-28.45,35.69-47.41,64.7-15.62,22.87-26.21,38.48-32.35,46.29-8.92,11.71-27.33,30.12-42.94,30.12-12.83,0-18.41-11.71-16.18-35.14,1.12-10.04,2.23-20.08,3.35-30.68-28.45,42.94-54.1,65.25-77.53,65.25-17.85,0-29.56-17.85-34.58-54.1-1.12-6.14-1.12-12.27-1.12-19.52,0-17.85,2.23-35.69,6.69-53.54,5.02-18.4,10.6-31.23,17.29-37.93,14.5-14.5,39.6-21.75,75.29-21.75,11.71,0,22.87.56,32.35,2.23,9.48,1.67,14.5,2.79,13.94,4.46l-1.67,17.85-12.83,123.82c-.56,7.81.56,11.71,2.23,11.71,2.79,0,10.04-4.46,19.52-15.06,9.48-10.6,18.4-22.87,27.88-36.81,18.41-27.89,36.81-52.99,54.1-75.85,15.62-20.08,28.44-31.23,40.16-31.23,23.98-.56-13.94,55.22-12.83,44.62Zm-172.34-23.42c-23.98,0-40.72,5.02-50.2,16.18-11.71,13.39-17.29,39.04-17.29,75.85,0,34.02,6.14,50.75,18.96,50.75,11.15,0,25.65-12.83,44.06-38.48,7.81-10.6,13.39-20.08,16.73-28.44,7.81-17.29,14.5-42.39,20.08-74.18-15.62-1.11-26.21-1.67-32.35-1.67Z"></path><path class="cls-14" d="m1444.47,3171.53c-9.48.56-29.56,23.98-47.96,65.81-10.6,24.54-13.94,62.47-16.18,86.45-1.11,16.18-24.54,13.39-22.87,1.67l1.67-12.27,13.94-140.55,1.12-13.39c1.12-12.83,23.98-14.5,22.31,1.11,0,0-1.12,13.39-4.46,43.5,14.5-25.1,32.91-54.66,52.98-54.66,31.79,0,32.35,42.95,58,4.46,8.92-13.39,23.98,6.14,5.02,23.98-35.69,32.35-44.06-7.81-63.58-6.14Z"></path><path class="cls-14" d="m1623.5,3174.88c-40.72-12.83-78.64-5.02-78.08,20.08.56,34.02,86.45,46.29,85.89,94.81-1.11,28.45-31.23,44.62-58,45.18-21.75.56-46.29-7.81-55.77-16.73-9.48-8.37-2.23-27.89,10.04-18.4,29,22.87,80.31,14.5,81.43-9.48,1.67-35.14-90.35-50.75-85.89-97.6,2.79-29.56,25.65-43.5,56.33-45.18,20.08-1.12,39.04,0,57.45,11.15,6.69,4.46,4.46,21.75-13.39,16.18Z"></path><g class="cls-13"><path class="cls-16" d="m525.55,467.14c-29.98.57-38.46,1.13-38.46,1.13-4.52,40.72-51.47,110.29-117.64,108.59-26.58-.57-49.77-19.23-69.57-52.6-20.36-33.37-29.97-70.13-27.71-109.16,2.83-40.72,14.14-73.53,33.37-98.41,22.06-27.71,52.03-42.42,90.49-42.98,39.59-.57,70.7,8.48,91.62,28.84,3.39,2.83,5.09,6.22,5.09,9.05,0,6.79-3.96,10.18-11.31,10.18-2.26,0-9.05-2.83-18.66-9.05-18.66-11.31-40.72-16.97-65.61-16.4-29.97.57-53.73,10.18-71.26,29.41-19.79,20.93-29.98,51.47-30.54,91.62-1.13,34.5,6.22,65.04,21.49,92.19,12.44,21.49,33.93,42.42,54.3,44.12,47.51,3.96,78.61-44.12,89.93-75.22,1.13-2.26,1.7-10.18-3.96-10.18h-18.1c-7.92,0-11.88-3.96-11.88-11.31s3.96-10.75,10.18-10.75c0,0,85.4-1.7,95.58-1.13,29.41,1.7,22.62,24.32,11.88,24.32-5.65,0-10.18-2.26-19.23-2.26Z"></path></g><path class="cls-16" d="m902.85,2070.06c-18.08-2.26-40.12-7.91-62.16,2.26-28.82,13.56-45.78,43.52-48.04,97.2,0,2.83-.57,34.47-2.83,62.73,46.34,1.13,105.12,0,113.03,0,11.3,0,12.44,20.34-.56,20.34-7.91,0-15.82.57-20.91.57-31.08,1.13-61.6,1.13-92.68.57l-2.83,38.99-11.87,187.63-1.13,12.43c-1.7,16.96-2.83,27.13-6.22,39.56-6.22,23.73-16.39,40.69-35.04,55.95-23.74,19.21-62.17,27.13-98.33,10.17-6.78-3.39-9.04-25.43,9.61-19.21,14.7,4.52,39,9.04,60.47-1.13,27.69-13.56,45.78-43.51,48.04-97.2,0-5.65,5.09-74.03,7.91-122.63l5.65-105.12h-14.13c-11.3,0-15.82-20.91,1.13-20.91h15.26l2.83-61.6,1.13-12.43c1.7-16.95,3.39-27.13,6.78-40.12,6.22-23.74,16.39-40.12,35.04-54.82,24.3-19.21,62.17-26,99.46-13.56,7.35,2.26,10.17,23.17-9.61,20.34Z"></path><path class="cls-14" d="m1019.27,2070.06c-18.08-2.26-40.12-7.91-62.16,2.26-28.82,13.56-45.78,43.52-48.04,97.2,0,2.83-.57,34.47-2.83,62.73,41.82,1.7,54.25,2.26,76.29,1.7,22.61-.57,55.95-.57,68.95-2.26,2.83-.57-18.65,20.34-21.48,20.34-50.86,4.52-90.42,2.83-124.89,1.7l-2.83,38.99-11.87,187.63-1.13,12.43c-1.7,16.96-2.83,27.13-6.22,39.56-6.22,23.73-16.39,40.69-35.04,55.95-23.74,19.21-62.17,27.13-98.33,10.17-6.78-3.39-9.04-25.43,9.61-19.21,14.7,4.52,39,9.04,60.47-1.13,27.69-13.56,45.78-43.51,48.04-97.2,0-5.65,5.09-74.03,7.91-122.63l5.65-105.12h-14.13c-11.87,0-15.82-20.91,1.13-20.91h15.26l2.83-61.6,1.13-12.43c1.7-16.95,3.39-27.13,6.78-40.12,6.22-23.74,16.39-40.12,35.04-54.82,24.3-19.21,62.17-26,99.46-13.56,7.35,2.26,10.17,23.17-9.61,20.34Z"></path><g class="cls-18"><path class="cls-17" d="m1019.27,2070.06c-18.08-2.26-40.12-7.91-62.16,2.26-28.82,13.56-45.78,43.52-48.04,97.2,0,2.83-.57,34.47-2.83,62.73,41.82,1.7,54.25,2.26,76.29,1.7,22.61-.57,55.95-.57,68.95-2.26,2.83-.57-18.65,20.34-21.48,20.34-50.86,4.52-90.42,2.83-124.89,1.7l-2.83,38.99-11.87,187.63-1.13,12.43c-1.7,16.96-2.83,27.13-6.22,39.56-6.22,23.73-16.39,40.69-35.04,55.95-23.74,19.21-62.17,27.13-98.33,10.17-6.78-3.39-9.04-25.43,9.61-19.21,14.7,4.52,39,9.04,60.47-1.13,27.69-13.56,45.78-43.51,48.04-97.2,0-5.65,5.09-74.03,7.91-122.63l5.65-105.12h-14.13c-11.87,0-15.82-20.91,1.13-20.91h15.26l2.83-61.6,1.13-12.43c1.7-16.95,3.39-27.13,6.78-40.12,6.22-23.74,16.39-40.12,35.04-54.82,24.3-19.21,62.17-26,99.46-13.56,7.35,2.26,10.17,23.17-9.61,20.34Z"></path></g><g class="cls-21"><path class="cls-16" d="m463.41,3125.24c-26.21,18.96-56.33,36.81-56.33,36.81,38.48-1.12,70.83,9.48,86.45,32.91,23.42,36.25,10.04,73.62,2.23,87.01-16.73,30.12-51.87,49.08-80.31,51.87-30.67,2.79-62.47-1.12-84.22-15.06-7.25-5.02-2.23-25.65,13.39-17.85,45.73,23.98,136.09,15.62,140.55-61.35,4.46-69.72-97.05-59.12-123.82-47.97-10.04,3.91-17.85-13.94-8.92-18.96,27.89-15.62,113.78-74.74,114.34-75.29,0,0-33.46,0-57.45.56-16.18,0-30.68,1.12-41.83,1.12-12.83,0-15.06-21.2-1.67-21.75,0,0,30.68-1.67,43.5-2.23,14.5-.56,52.98,0,73.62.56,10.6.56,23.98-.56,23.98,11.15,0,7.25-21.75,22.87-43.5,38.48Z"></path></g><rect class="cls-16" x="872.43" y="3175.72" width="118.31" height="118.31" rx="59.16" ry="59.16"></rect><g class="cls-20"><path class="cls-17" d="m1123.21,3182.13c-11.15,13.94-50.2,65.81-86.45,102.07-17.29,17.29-61.35,46.85-83.1,11.71-12.27-20.64-10.6-47.96-10.6-47.96,47.41,2.23,92.02-17.85,98.72-50.2,7.81-33.46-20.08-49.64-37.93-50.2-32.49-1.62-76.02,19.36-82.1,81.33-1.84.08-4.34,1.76-6.03,3.45-3.9,3.9-6.13,7.25-11.15,11.71-12.83,11.15-37.93,29-52.42,40.16,7.81-10.6,12.27-58,8.92-80.87-3.35-22.87-8.92-54.1-35.14-54.1-34.02.56-58,33.46-74.18,58,1.67-21.19,4.46-58.56-7.25-58.56-13.94.56-27.33,20.08-36.25,31.23-14.5,18.96,4.46,23.98,12.83,13.94,7.25-8.36,10.04-12.83,8.92-.56l-1.12,13.94-29,291.14-1.67,12.27c-1.67,13.39,21.19,12.83,22.31,1.12l1.67-13.39,16.18-163.42c36.81,2.79,72.5,0,104.29-19.52,13.39-8.37,46.85-34.02,60.79-46.85,7.25-6.69,13.94-12.27,16.73-12.27.5-.05.94-.2,1.35-.44,3.28,43.35,23.68,80.12,54.43,79.64,31.23-.56,52.43-12.27,75.29-35.14,37.93-37.37,60.79-72.5,71.95-86.45l8.92-12.27c9.48-36.25,7.81-41.27-8.92-19.52Zm-145.57-7.81c40.16-19.52,59.68,16.18,31.79,36.81-18.96,13.94-38.48,16.17-65.26,16.17,0,0,.56-36.81,33.46-52.98Zm-155.05,124.37c-18.96,20.64-54.1,15.06-81.99,14.5,7.25-74.18,19.52-85.33,37.37-108.76,36.25-47.41,54.66-37.93,60.23-11.71,5.58,24.54,1.12,88.12-15.62,105.97Z"></path></g><g class="cls-19"><path class="cls-17" d="m691.85,1274.06c6.28-12.56,15.42-41.68,3.43-45.68-6.85-2.28-31.98,39.4-25.12,45.68,10.85,10.28,19.98,3.43,21.7,0Z"></path><path class="cls-17" d="m1069.85,1314.6c-11.99,0-25.69,11.42-41.11,31.98-17.7,23.41-36.54,49.11-55.39,77.65-9.71,14.27-18.27,26.84-28.55,37.69-8.56,8.56-14.28,13.7-17.13,14.85-2.85,1.71-4.57-.57-4.57-6.28,0-3.43,1.14-11.42,2.85-24.55,6.28-45.68,9.71-74.23,9.71-85.65s-2.86-19.98-7.99-27.98c-6.85-10.28-16.56-15.99-30.26-17.13-11.99-1.14-26.84,6.28-43.4,20.56-13.13,10.85-23.98,22.84-32.55,35.4,2.28-20.56,4-33.12,4-37.69s-.53-8.28-1.56-11.19c-.07-4.68-2.32-7.79-8.15-7.66-.37,0-.74.01-1.11.03-.2,0-.4-.03-.6-.03-2.14,0-3.87.41-5.26,1.22-10.11,3.45-21.19,14.1-34.14,30.75-17.7,23.41-36.54,49.11-55.39,77.65-9.71,14.27-18.84,26.84-28.55,37.69-9.71,10.28-16.56,15.42-19.42,15.42-1.71,0-2.85-4-2.28-11.99l9.71-94.21c2.28-23.41,4-35.97,4-37.69,0-11.99-4-18.27-11.42-18.27-9.14,0-21.7,10.28-37.68,31.4-3.43,4.57-5.14,8.56-5.14,11.99,0,5.14,2.86,7.42,7.99,7.42,4,0,8.57-2.28,12.56-6.85,3.43-4,6.28-6.28,6.85-6.28,1.14,0,1.14,2.28.57,7.42l-9.14,95.93c-.57,7.99-1.14,12.56-1.14,13.7-1.71,23.41,4,35.4,17.7,35.4,11.42,0,27.41-11.42,39.97-26.27,9.14-10.85,25.7-35.4,36.54-51.96,19.41-29.69,35.4-51.96,48.54-66.24,2.57-3,9.99-11.81,12.78-8.48l-12.78,130.68-1.71,12.56c-1.14,6.28,2.28,9.71,9.71,9.71s11.99-4,12.56-11.42c4.57-42.82,12.56-76.51,25.12-101.07,8.57-16.56,21.13-30.83,36.54-42.82,9.71-7.42,17.7-11.42,24.55-11.42,9.14,0,14.85,7.42,17.13,21.7,1.14,7.42-1.14,26.84-5.14,58.24-2.28,17.13-4.57,34.26-6.85,50.82-2.85,23.98,2.86,35.97,16.56,35.97,11.99,0,30.26-11.42,43.97-30.83,5.71-7.99,20.56-28.55,33.12-47.39,19.42-29.69,35.4-51.96,48.54-66.24,3.43-4,15.42-18.27,13.7-.57-1.14,10.85,37.69-46.25,13.13-45.68Z"></path></g></svg> 