<?xml version="1.0" encoding="UTF-8"?> <svg xmlns="http://www.w3.org/2000/svg" xmlns:xlink="http://www.w3.org/1999/xlink" id="Layer_1" viewBox="0 0 1920 3670"><defs><style>.cls-1,.cls-2,.cls-3{fill:none;}.cls-4{clip-path:url(#clippath);}.cls-5{fill:#fff;}.cls-6{fill:#937eb9;}.cls-7{fill:#937fbb;}.cls-8{fill:#161b31;}.cls-9{clip-path:url(#clippath-1);}.cls-10{clip-path:url(#clippath-2);}.cls-2{stroke:#a797c9;stroke-dasharray:0 0 1.74 17.45;stroke-linecap:round;stroke-width:7px;}.cls-2,.cls-3{stroke-miterlimit:10;}.cls-3{stroke:#566789;stroke-width:3.5px;}</style><clipPath id="clippath"><rect class="cls-1" x="1507.43" y="1206.19" width="118.06" height="118.06" rx="59.03" ry="59.03"></rect></clipPath><clipPath id="clippath-1"><circle class="cls-1" cx="1379.31" cy="1561.89" r="83.58"></circle></clipPath><clipPath id="clippath-2"><circle class="cls-1" cx="1134.22" cy="2022.13" r="96.56"></circle></clipPath></defs><rect class="cls-8" width="1920" height="3670"></rect><line class="cls-3" y1="200.82" x2="1920" y2="200.82"></line><line class="cls-3" y1="369.46" x2="1920" y2="369.46"></line><line class="cls-3" x1="1920" y1="564.29" y2="564.29"></line><line class="cls-3" y1="731.84" x2="1920" y2="731.84"></line><line class="cls-3" y1="1082.41" x2="1920" y2="1082.41"></line><line class="cls-3" y1="1250.04" x2="1920" y2="1250.04"></line><line class="cls-3" x1="1920" y1="1445.87" y2="1445.87"></line><line class="cls-3" y1="1613.43" x2="1920" y2="1613.43"></line><line class="cls-3" y1="1963.99" x2="1920" y2="1963.99"></line><line class="cls-3" y1="2132.63" x2="1920" y2="2132.63"></line><line class="cls-3" x1="1920" y1="2327.46" y2="2327.46"></line><line class="cls-3" y1="2495.02" x2="1920" y2="2495.02"></line><line class="cls-3" y1="2845.58" x2="1920" y2="2845.58"></line><line class="cls-3" y1="3014.22" x2="1920" y2="3014.22"></line><line class="cls-3" x1="1920" y1="3209.05" y2="3209.05"></line><line class="cls-3" y1="3375.6" x2="1920" y2="3375.6"></line><path class="cls-6" d="m911.62,3202.78l131.47-150.41,26.1,56.34s44.98,32.61,37.03,55.94c-7.95,23.33-59.34,43.62-59.34,43.62l-111.39,1.07c-3.62.03-12.67-.76-15.88-2.43l-7.99-4.13Z"></path><polygon class="cls-6" points="1089.71 733.86 1152.01 733.86 1270.48 199.33 1208.18 199.33 1089.71 733.86"></polygon><rect class="cls-7" x="1507.43" y="1206.19" width="118.06" height="118.06" rx="59.03" ry="59.03"></rect><line class="cls-2" x1="1571.52" y1="1188.43" x2="1570.34" y2="1003.87"></line><line class="cls-2" x1="885.63" y1="1726.17" x2="884.45" y2="1628.69"></line><line class="cls-2" x1="1378.73" y1="1737.1" x2="1377.55" y2="1639.8"></line><line class="cls-2" x1="1149.38" y1="1931.49" x2="1148.2" y2="1850.69"></line><line class="cls-2" x1="1103.55" y1="2593.57" x2="1102.36" y2="2292.12"></line><line class="cls-2" x1="370.28" y1="2590" x2="369.09" y2="2338.85"></line><line class="cls-2" x1="989.18" y1="3453.6" x2="987.99" y2="3222.27"></line><line class="cls-2" x1="1298.38" y1="2829.65" x2="1297.19" y2="2747.22"></line><path class="cls-5" d="m981.28,770.28h3.23l11.51,20.92h.08l11.51-20.92h3.23v32.77h-2.94v-27.85h-.04l-10.75,19.91h-2.06l-10.8-19.91h-.04v27.85h-2.94v-32.77Z"></path><path class="cls-5" d="m1017.77,792.55c0-6.22,3.32-11.05,10.38-11.05,6.59,0,10.25,4.83,10.25,11.05s-3.7,11.05-10.29,11.05c-7.27,0-10.33-4.83-10.33-11.05Zm17.56,0c0-5.33-2.9-8.49-7.22-8.49-4.75,0-7.27,3.15-7.27,8.49s2.56,8.49,7.27,8.49c4.33,0,7.22-3.15,7.22-8.49Z"></path><path class="cls-5" d="m1042.59,792.59c0-7.1,4.28-11.09,10.04-11.09,3.7,0,6.22,1.6,7.31,3.74h.04v-14.95h2.94v32.77h-1.97l-.67-3.61h-.08c-1.18,2.31-3.95,4.16-7.77,4.16-6.3,0-9.83-3.99-9.83-11.01Zm17.64-.5c0-5.5-3.36-8.07-7.35-8.07-3.11,0-7.14,1.47-7.14,8.4s3.61,8.61,7.14,8.61c4.24,0,7.35-2.73,7.35-8.95Z"></path><path class="cls-5" d="m1087.54,793.55h-15.96c.17,4.79,2.48,7.48,6.93,7.48,3.82,0,5.67-1.43,5.97-4.83h2.98c-.29,4.24-3.28,7.39-9.03,7.39-7.06,0-9.83-4.66-9.83-10.88s3.23-11.22,10-11.22,8.95,3.99,8.95,10.21v1.85Zm-3.11-2.98c0-4.45-1.72-6.55-5.92-6.55s-6.55,2.65-6.89,6.97h12.81v-.42Z"></path><path class="cls-5" d="m1093.42,782.04h2.6l.29,3.91c1.01-2.14,3.07-4.45,6.76-4.45,1.26,0,2.18.21,3.02.55v3.15c-1.13-.5-2.1-.76-3.4-.76-3.74,0-6.34,2.81-6.34,5.75v12.85h-2.94v-21Z"></path><path class="cls-5" d="m1109.04,797.25c0-3.95,2.23-6.09,7.86-6.09h6.34v-1.72c0-2.98-1.26-5.42-5.46-5.42-3.95,0-5.33,1.51-5.33,4.12v.88h-2.98v-.84c0-5,4.2-6.68,8.32-6.68,5.8,0,8.4,2.86,8.4,8.44v13.11h-2.06l-.55-2.98h-.08c-1.26,1.89-3.7,3.53-7.35,3.53-4.92,0-7.1-2.31-7.1-6.34Zm14.2-1.85v-1.76h-7.01c-2.65,0-4.03.92-4.03,3.61,0,2.35,1.26,3.86,4.5,3.86,4.16,0,6.55-2.14,6.55-5.71Z"></path><path class="cls-5" d="m1144.28,800.36v2.6c-.76.21-2.14.59-4.03.59-3.82,0-6.34-1.6-6.34-6.89v-12.18h-4.16v-2.44h4.16v-6.05l2.94-1.43v7.48h5.92v2.44h-5.92v11.8c0,2.81.76,4.58,3.4,4.58,1.6,0,3.23-.29,4.03-.5Z"></path><path class="cls-5" d="m1165.74,793.55h-15.96c.17,4.79,2.48,7.48,6.93,7.48,3.82,0,5.67-1.43,5.97-4.83h2.98c-.29,4.24-3.28,7.39-9.03,7.39-7.06,0-9.83-4.66-9.83-10.88s3.23-11.22,10-11.22,8.95,3.99,8.95,10.21v1.85Zm-3.11-2.98c0-4.45-1.72-6.55-5.92-6.55s-6.55,2.65-6.89,6.97h12.81v-.42Z"></path><path class="cls-5" d="m1179.39,796.62v-1.18h2.94v1.13c0,2.86,2.14,4.5,5.96,4.5s5.8-1.01,5.8-3.78c0-2.06-1.01-2.81-3.86-3.32l-4.62-.84c-3.02-.55-5.54-2.02-5.54-5.5,0-3.15,2.35-6.13,8.4-6.13s8.4,3.02,8.4,7.23v.88h-2.98v-.76c0-3.44-2.14-4.91-5.42-4.91-3.95,0-5.33,1.34-5.33,3.36s1.01,2.86,3.91,3.4l4.03.76c4.12.76,6.09,1.93,6.09,5.59,0,4.58-4.12,6.55-8.78,6.55-7.31,0-8.99-3.28-8.99-6.97Z"></path><path class="cls-5" d="m1203.03,770.28h2.94v32.77h-2.94v-32.77Z"></path><path class="cls-5" d="m1212.06,797.25c0-3.95,2.23-6.09,7.86-6.09h6.34v-1.72c0-2.98-1.26-5.42-5.46-5.42-3.95,0-5.33,1.51-5.33,4.12v.88h-2.98v-.84c0-5,4.2-6.68,8.32-6.68,5.8,0,8.4,2.86,8.4,8.44v13.11h-2.06l-.55-2.98h-.08c-1.26,1.89-3.7,3.53-7.35,3.53-4.92,0-7.1-2.31-7.1-6.34Zm14.2-1.85v-1.76h-7.01c-2.65,0-4.03.92-4.03,3.61,0,2.35,1.26,3.86,4.5,3.86,4.16,0,6.55-2.14,6.55-5.71Z"></path><path class="cls-5" d="m1236.55,782.04h2.6l.29,3.49c1.01-2.14,3.28-4.03,7.35-4.03,4.75,0,7.77,2.52,7.77,7.94v13.61h-2.94v-13.27c0-4.33-2.14-5.71-5.5-5.71-3.82,0-6.64,2.69-6.64,5.63v13.36h-2.94v-21Z"></path><path class="cls-5" d="m1272.88,800.36v2.6c-.76.21-2.14.59-4.03.59-3.82,0-6.34-1.6-6.34-6.89v-12.18h-4.16v-2.44h4.16v-6.05l2.94-1.43v7.48h5.92v2.44h-5.92v11.8c0,2.81.76,4.58,3.4,4.58,1.6,0,3.23-.29,4.03-.5Z"></path><path class="cls-5" d="m316.76,884.4v-2.02h3.02v2.18c0,3.74,2.6,6.05,7.94,6.05s8.44-1.97,8.44-6.22c0-3.32-1.39-5.17-4.92-6.09l-6.64-1.72c-4.33-1.13-7.18-2.98-7.18-8.15s3.78-8.91,10.92-8.91,10.59,3.44,10.59,9.07v2.94h-3.02v-2.81c0-4.62-3.07-6.51-7.56-6.51-5.12,0-7.81,2.14-7.81,6.01,0,3.61,1.76,4.7,5.55,5.71l5.75,1.55c5.12,1.39,7.43,3.74,7.43,8.65,0,6.09-4.33,9.24-11.47,9.24-9.12,0-11.05-4.7-11.05-8.99Z"></path><path class="cls-5" d="m346.46,860.08h2.98v6.51h-2.98v-6.51Zm0,11.76h2.94v21h-2.94v-21Z"></path><path class="cls-5" d="m387.5,879.23v13.61h-2.94v-13.27c0-4.33-2.14-5.71-4.75-5.71-3.82,0-6.17,2.69-6.17,5.63v13.36h-2.94v-13.27c0-4.33-1.85-5.71-4.83-5.71-3.61,0-6.13,2.69-6.13,5.63v13.36h-2.94v-21h2.6l.29,3.49c1.01-2.02,3.07-4.03,6.93-4.03,2.94,0,5.38,1.39,6.43,4.28,1.22-2.39,3.57-4.28,7.14-4.28,4.29,0,7.31,2.52,7.31,7.94Z"></path><path class="cls-5" d="m394.84,871.84h2.39l.34,3.86h.08c1.13-2.48,4.03-4.41,7.86-4.41,6.3,0,9.66,3.99,9.66,11.01s-4.29,11.09-9.87,11.09c-3.78,0-6.38-1.6-7.43-3.7h-.08v11.55h-2.94v-29.41Zm17.18,10.63c0-7.18-3.4-8.61-6.93-8.61-4.24,0-7.56,2.73-7.56,8.44,0,6.01,3.45,8.57,7.44,8.57,3.02,0,7.06-1.47,7.06-8.4Z"></path><path class="cls-5" d="m420.42,860.08h2.94v32.77h-2.94v-32.77Z"></path><path class="cls-5" d="m430.71,860.08h2.98v6.51h-2.98v-6.51Zm0,11.76h2.94v21h-2.94v-21Z"></path><path class="cls-5" d="m438.1,871.84h4.16v-5.42c0-5.29,3.15-6.89,6.38-6.89,1.85,0,2.98.29,3.74.55v2.6c-.71-.21-1.89-.46-3.49-.46-2.65,0-3.7,1.76-3.7,4.58v5.04h14.07v21h-2.94v-18.57h-11.13v18.57h-2.94v-18.57h-4.16v-2.44Zm18.23-11.76h2.98v6.51h-2.98v-6.51Z"></path><path class="cls-5" d="m483.93,883.35h-15.96c.17,4.79,2.48,7.48,6.93,7.48,3.82,0,5.67-1.43,5.97-4.83h2.98c-.29,4.24-3.28,7.39-9.03,7.39-7.06,0-9.83-4.66-9.83-10.88s3.23-11.22,10-11.22,8.95,3.99,8.95,10.21v1.85Zm-3.11-2.98c0-4.45-1.72-6.55-5.92-6.55s-6.55,2.65-6.89,6.97h12.81v-.42Z"></path><path class="cls-5" d="m488.12,882.38c0-7.1,4.28-11.09,10.04-11.09,3.7,0,6.22,1.6,7.31,3.74h.04v-14.95h2.94v32.77h-1.97l-.67-3.61h-.08c-1.18,2.31-3.95,4.16-7.77,4.16-6.3,0-9.83-3.99-9.83-11.01Zm17.64-.5c0-5.5-3.36-8.07-7.35-8.07-3.11,0-7.14,1.47-7.14,8.4s3.61,8.61,7.14,8.61c4.24,0,7.35-2.73,7.35-8.95Z"></path><path class="cls-5" d="m523.78,882.51c0-6.38,3.23-11.22,10-11.22s8.95,3.91,8.95,8.95v.42h-3.11v-.63c0-3.82-1.64-6.09-5.84-6.09-4.75,0-7.02,3.11-7.02,8.4,0,5.63,2.39,8.49,6.93,8.49,3.82,0,5.84-1.85,5.92-5.67h3.02c-.08,4.66-3.15,8.23-9.03,8.23-7.22,0-9.83-4.75-9.83-10.88Z"></path><path class="cls-5" d="m548.18,885.45v-13.61h2.94v13.27c0,4.33,2.14,5.71,5.42,5.71,3.74,0,6.55-2.69,6.55-5.63v-13.36h2.94v21h-2.6l-.25-3.36h-.08c-.97,2.02-3.23,3.91-7.23,3.91-4.66,0-7.69-2.52-7.69-7.94Z"></path><path class="cls-5" d="m573.38,871.84h2.6l.29,3.91c1.01-2.14,3.07-4.45,6.76-4.45,1.26,0,2.18.21,3.02.55v3.15c-1.13-.5-2.1-.76-3.4-.76-3.74,0-6.34,2.81-6.34,5.75v12.85h-2.94v-21Z"></path><path class="cls-5" d="m588.59,886.42v-1.18h2.94v1.13c0,2.86,2.14,4.5,5.96,4.5s5.8-1.01,5.8-3.78c0-2.06-1.01-2.81-3.86-3.32l-4.62-.84c-3.02-.55-5.54-2.02-5.54-5.5,0-3.15,2.35-6.13,8.4-6.13s8.4,3.02,8.4,7.23v.88h-2.98v-.76c0-3.44-2.14-4.91-5.42-4.91-3.95,0-5.33,1.34-5.33,3.36s1.01,2.86,3.91,3.4l4.03.76c4.12.76,6.09,1.93,6.09,5.59,0,4.58-4.12,6.55-8.78,6.55-7.31,0-8.99-3.28-8.99-6.97Z"></path><path class="cls-5" d="m612.23,860.08h2.98v6.51h-2.98v-6.51Zm0,11.76h2.94v21h-2.94v-21Z"></path><path class="cls-5" d="m619.42,871.88v-.04h3.36l7.35,17.98h.08l7.1-17.98h3.07v.04l-8.74,20.96h-3.02l-9.2-20.96Z"></path><path class="cls-5" d="m661.21,883.35h-15.96c.17,4.79,2.48,7.48,6.93,7.48,3.82,0,5.67-1.43,5.97-4.83h2.98c-.29,4.24-3.28,7.39-9.03,7.39-7.06,0-9.83-4.66-9.83-10.88s3.23-11.22,10-11.22,8.95,3.99,8.95,10.21v1.85Zm-3.11-2.98c0-4.45-1.72-6.55-5.92-6.55s-6.55,2.65-6.89,6.97h12.81v-.42Z"></path><path class="cls-5" d="m676.33,885.45v-13.61h2.94v13.27c0,4.33,2.14,5.71,5.42,5.71,3.74,0,6.55-2.69,6.55-5.63v-13.36h2.94v21h-2.6l-.25-3.36h-.08c-.97,2.02-3.23,3.91-7.23,3.91-4.66,0-7.69-2.52-7.69-7.94Z"></path><path class="cls-5" d="m701.53,871.84h2.39l.34,3.86h.08c1.13-2.48,4.03-4.41,7.86-4.41,6.3,0,9.66,3.99,9.66,11.01s-4.29,11.09-9.87,11.09c-3.78,0-6.38-1.6-7.43-3.7h-.08v11.55h-2.94v-29.41Zm17.18,10.63c0-7.18-3.4-8.61-6.93-8.61-4.24,0-7.56,2.73-7.56,8.44,0,6.01,3.45,8.57,7.44,8.57,3.02,0,7.06-1.47,7.06-8.4Z"></path><path class="cls-5" d="m727.73,871.84h2.39l.34,3.86h.08c1.13-2.48,4.03-4.41,7.86-4.41,6.3,0,9.66,3.99,9.66,11.01s-4.29,11.09-9.87,11.09c-3.78,0-6.38-1.6-7.43-3.7h-.08v11.55h-2.94v-29.41Zm17.18,10.63c0-7.18-3.4-8.61-6.93-8.61-4.24,0-7.56,2.73-7.56,8.44,0,6.01,3.45,8.57,7.44,8.57,3.02,0,7.06-1.47,7.06-8.4Z"></path><path class="cls-5" d="m771.21,883.35h-15.96c.17,4.79,2.48,7.48,6.93,7.48,3.82,0,5.67-1.43,5.97-4.83h2.98c-.29,4.24-3.28,7.39-9.03,7.39-7.06,0-9.83-4.66-9.83-10.88s3.23-11.22,10-11.22,8.95,3.99,8.95,10.21v1.85Zm-3.11-2.98c0-4.45-1.72-6.55-5.92-6.55s-6.55,2.65-6.89,6.97h12.81v-.42Z"></path><path class="cls-5" d="m777.08,871.84h2.6l.29,3.91c1.01-2.14,3.07-4.45,6.76-4.45,1.26,0,2.18.21,3.02.55v3.15c-1.13-.5-2.1-.76-3.4-.76-3.74,0-6.34,2.81-6.34,5.75v12.85h-2.94v-21Z"></path><path class="cls-5" d="m792.08,882.51c0-6.38,3.23-11.22,10-11.22s8.95,3.91,8.95,8.95v.42h-3.11v-.63c0-3.82-1.64-6.09-5.84-6.09-4.75,0-7.01,3.11-7.01,8.4,0,5.63,2.39,8.49,6.93,8.49,3.82,0,5.84-1.85,5.92-5.67h3.02c-.08,4.66-3.15,8.23-9.03,8.23-7.22,0-9.83-4.75-9.83-10.88Z"></path><path class="cls-5" d="m815.43,887.05c0-3.95,2.23-6.09,7.86-6.09h6.34v-1.72c0-2.98-1.26-5.42-5.46-5.42-3.95,0-5.33,1.51-5.33,4.12v.88h-2.98v-.84c0-5,4.2-6.68,8.32-6.68,5.8,0,8.4,2.86,8.4,8.44v13.11h-2.06l-.55-2.98h-.08c-1.26,1.89-3.7,3.53-7.35,3.53-4.92,0-7.1-2.31-7.1-6.34Zm14.2-1.85v-1.76h-7.01c-2.65,0-4.03.92-4.03,3.61,0,2.35,1.26,3.86,4.5,3.86,4.16,0,6.55-2.14,6.55-5.71Z"></path><path class="cls-5" d="m838.03,886.42v-1.18h2.94v1.13c0,2.86,2.14,4.5,5.96,4.5s5.8-1.01,5.8-3.78c0-2.06-1.01-2.81-3.86-3.32l-4.62-.84c-3.02-.55-5.54-2.02-5.54-5.5,0-3.15,2.35-6.13,8.4-6.13s8.4,3.02,8.4,7.23v.88h-2.98v-.76c0-3.44-2.14-4.91-5.42-4.91-3.95,0-5.33,1.34-5.33,3.36s1.01,2.86,3.91,3.4l4.03.76c4.12.76,6.09,1.93,6.09,5.59,0,4.58-4.12,6.55-8.78,6.55-7.31,0-8.99-3.28-8.99-6.97Z"></path><path class="cls-5" d="m878.94,883.35h-15.96c.17,4.79,2.48,7.48,6.93,7.48,3.82,0,5.67-1.43,5.97-4.83h2.98c-.29,4.24-3.28,7.39-9.03,7.39-7.06,0-9.83-4.66-9.83-10.88s3.23-11.22,10-11.22,8.95,3.99,8.95,10.21v1.85Zm-3.11-2.98c0-4.45-1.72-6.55-5.92-6.55s-6.55,2.65-6.89,6.97h12.81v-.42Z"></path><path class="cls-5" d="m388.54,908.92h2.94v32.77h-2.94v-32.77Z"></path><path class="cls-5" d="m416.1,932.2h-15.96c.17,4.79,2.48,7.48,6.93,7.48,3.82,0,5.67-1.43,5.97-4.83h2.98c-.29,4.24-3.28,7.39-9.03,7.39-7.06,0-9.83-4.66-9.83-10.88s3.23-11.22,10-11.22,8.95,3.99,8.95,10.21v1.85Zm-3.11-2.98c0-4.45-1.72-6.55-5.92-6.55s-6.55,2.65-6.89,6.97h12.81v-.42Z"></path><path class="cls-5" d="m422.56,935.31v-12.18h-4.16v-2.44h4.16v-6.05l2.94-1.43v7.48h11.85v-6.05l2.94-1.43v7.48h5.92v2.44h-5.92v11.8c0,2.81.76,4.58,3.4,4.58,1.6,0,3.24-.29,4.03-.5v2.6c-.76.21-2.14.59-4.03.59-3.82,0-6.34-1.6-6.34-6.89v-12.18h-11.85v11.8c0,2.81.76,4.58,3.4,4.58,1.6,0,3.23-.29,4.03-.5v2.6c-.76.21-2.14.59-4.03.59-3.82,0-6.34-1.6-6.34-6.89Z"></path><path class="cls-5" d="m469.18,932.2h-15.96c.17,4.79,2.48,7.48,6.93,7.48,3.82,0,5.67-1.43,5.97-4.83h2.98c-.29,4.24-3.28,7.39-9.03,7.39-7.06,0-9.83-4.66-9.83-10.88s3.23-11.22,10-11.22,8.95,3.99,8.95,10.21v1.85Zm-3.11-2.98c0-4.45-1.72-6.55-5.92-6.55s-6.55,2.65-6.89,6.97h12.81v-.42Z"></path><path class="cls-5" d="m475.06,920.69h2.6l.29,3.91c1.01-2.14,3.07-4.45,6.76-4.45,1.26,0,2.18.21,3.02.55v3.15c-1.13-.5-2.1-.76-3.4-.76-3.74,0-6.34,2.81-6.34,5.75v12.85h-2.94v-21Z"></path><path class="cls-5" d="m490.27,935.26v-1.18h2.94v1.13c0,2.86,2.14,4.5,5.96,4.5s5.8-1.01,5.8-3.78c0-2.06-1.01-2.81-3.86-3.32l-4.62-.84c-3.02-.55-5.54-2.02-5.54-5.5,0-3.15,2.35-6.13,8.4-6.13s8.4,3.02,8.4,7.23v.88h-2.98v-.76c0-3.44-2.14-4.91-5.42-4.91-3.95,0-5.33,1.34-5.33,3.36s1.01,2.86,3.91,3.4l4.03.76c4.12.76,6.09,1.93,6.09,5.59,0,4.58-4.12,6.55-8.78,6.55-7.31,0-8.99-3.28-8.99-6.97Z"></path><path class="cls-5" d="m523.57,920.69h2.39l.34,3.86h.08c1.13-2.48,4.03-4.41,7.86-4.41,6.3,0,9.66,3.99,9.66,11.01s-4.29,11.09-9.87,11.09c-3.78,0-6.38-1.6-7.43-3.7h-.08v11.55h-2.94v-29.41Zm17.18,10.63c0-7.18-3.4-8.61-6.93-8.61-4.24,0-7.56,2.73-7.56,8.44,0,6.01,3.45,8.57,7.44,8.57,3.02,0,7.06-1.47,7.06-8.4Z"></path><path class="cls-5" d="m548.31,935.89c0-3.95,2.23-6.09,7.86-6.09h6.34v-1.72c0-2.98-1.26-5.42-5.46-5.42-3.95,0-5.33,1.51-5.33,4.12v.88h-2.98v-.84c0-5,4.2-6.68,8.32-6.68,5.8,0,8.4,2.86,8.4,8.44v13.11h-2.06l-.55-2.98h-.08c-1.26,1.89-3.7,3.53-7.35,3.53-4.92,0-7.1-2.31-7.1-6.34Zm14.2-1.85v-1.76h-7.01c-2.65,0-4.03.92-4.03,3.61,0,2.35,1.26,3.86,4.5,3.86,4.16,0,6.55-2.14,6.55-5.71Z"></path><path class="cls-5" d="m572.79,920.69h2.6l.29,3.91c1.01-2.14,3.07-4.45,6.76-4.45,1.26,0,2.18.21,3.02.55v3.15c-1.13-.5-2.1-.76-3.4-.76-3.74,0-6.34,2.81-6.34,5.75v12.85h-2.94v-21Z"></path><path class="cls-5" d="m601.06,939v2.6c-.76.21-2.14.59-4.03.59-3.82,0-6.34-1.6-6.34-6.89v-12.18h-4.16v-2.44h4.16v-6.05l2.94-1.43v7.48h5.92v2.44h-5.92v11.8c0,2.81.76,4.58,3.4,4.58,1.6,0,3.23-.29,4.03-.5Z"></path><path class="cls-5" d="m605.89,908.92h2.98v6.51h-2.98v-6.51Zm0,11.76h2.94v21h-2.94v-21Z"></path><path class="cls-5" d="m614.96,935.89c0-3.95,2.23-6.09,7.86-6.09h6.34v-1.72c0-2.98-1.26-5.42-5.46-5.42-3.95,0-5.33,1.51-5.33,4.12v.88h-2.98v-.84c0-5,4.2-6.68,8.32-6.68,5.8,0,8.4,2.86,8.4,8.44v13.11h-2.06l-.55-2.98h-.08c-1.26,1.89-3.7,3.53-7.35,3.53-4.92,0-7.1-2.31-7.1-6.34Zm14.2-1.85v-1.76h-7.01c-2.65,0-4.03.92-4.03,3.61,0,2.35,1.26,3.86,4.5,3.86,4.16,0,6.55-2.14,6.55-5.71Z"></path><path class="cls-5" d="m639.45,908.92h2.94v32.77h-2.94v-32.77Z"></path><path class="cls-5" d="m649.74,908.92h2.94v32.77h-2.94v-32.77Z"></path><path class="cls-5" d="m660.03,920.69l6.89,17.98h.08l7.14-17.98h3.07v.04l-8.86,20.84-3.11,8.53h-2.98v-.04l3.19-8.36-8.78-20.96v-.04h3.36Z"></path><path class="cls-5" d="m694.01,944.71c0,3.53-1.68,5.84-5.04,5.84-1.18,0-2.02-.13-2.94-.38v-2.6c.8.17,1.47.29,2.27.29,1.93,0,2.77-1.26,2.77-3.65v-23.52h2.94v24.03Zm-2.94-35.79h2.98v6.51h-2.98v-6.51Z"></path><path class="cls-5" d="m699.72,931.19c0-6.22,3.32-11.05,10.38-11.05,6.59,0,10.25,4.83,10.25,11.05s-3.7,11.05-10.29,11.05c-7.27,0-10.33-4.83-10.33-11.05Zm17.56,0c0-5.33-2.9-8.49-7.22-8.49-4.75,0-7.27,3.15-7.27,8.49s2.56,8.49,7.27,8.49c4.33,0,7.22-3.15,7.22-8.49Z"></path><path class="cls-5" d="m726.22,908.92h2.98v6.51h-2.98v-6.51Zm0,11.76h2.94v21h-2.94v-21Z"></path><path class="cls-5" d="m736.55,920.69h2.6l.29,3.49c1.01-2.14,3.28-4.03,7.35-4.03,4.75,0,7.77,2.52,7.77,7.94v13.61h-2.94v-13.27c0-4.33-2.14-5.71-5.5-5.71-3.82,0-6.64,2.69-6.64,5.63v13.36h-2.94v-21Z"></path><path class="cls-5" d="m761.92,908.92h2.98v6.51h-2.98v-6.51Zm0,11.76h2.94v21h-2.94v-21Z"></path><path class="cls-5" d="m772.25,920.69h2.6l.29,3.49c1.01-2.14,3.28-4.03,7.35-4.03,4.75,0,7.77,2.52,7.77,7.94v13.61h-2.94v-13.27c0-4.33-2.14-5.71-5.5-5.71-3.82,0-6.64,2.69-6.64,5.63v13.36h-2.94v-21Z"></path><path class="cls-5" d="m796.99,943.5v-.13h3.11v.13c0,2.9,1.93,4.33,6.13,4.33,4.79,0,7.01-2.94,7.01-7.86v-2.1h-.08c-1.09,2.18-3.65,4.07-7.48,4.07-6.3,0-9.75-3.99-9.75-10.71,0-7.1,4.37-11.09,9.96-11.09,3.78,0,6.55,1.81,7.56,4.12h.13l.29-3.57h2.31v19.16c0,5.88-2.81,10.71-10.33,10.71-6.3,0-8.86-2.98-8.86-7.06Zm16.59-12.77c0-5.5-3.36-8.07-7.35-8.07-3.03,0-7.14,1.47-7.14,8.4s3.57,8.32,7.1,8.32c4.24,0,7.39-2.73,7.39-8.65Z"></path><path class="cls-5" d="m1137.14,1768.2h-13.99l-3.74,10.33h-3.07l12.18-32.77h3.32l12.1,32.77h-3.07l-3.74-10.33Zm-.92-2.61l-6.05-16.8h-.04l-6.05,16.8h12.14Z"></path><path class="cls-5" d="m1146.25,1772.11v-1.18h2.94v1.13c0,2.86,2.14,4.5,5.96,4.5s5.8-1.01,5.8-3.78c0-2.06-1.01-2.81-3.86-3.32l-4.62-.84c-3.02-.55-5.54-2.02-5.54-5.5,0-3.15,2.35-6.13,8.4-6.13s8.4,3.03,8.4,7.23v.88h-2.98v-.76c0-3.44-2.14-4.91-5.42-4.91-3.95,0-5.33,1.34-5.33,3.36s1.01,2.86,3.91,3.4l4.03.76c4.12.76,6.09,1.93,6.09,5.59,0,4.58-4.12,6.55-8.78,6.55-7.31,0-8.99-3.28-8.99-6.97Z"></path><path class="cls-5" d="m1168.22,1768.2c0-6.38,3.23-11.22,10-11.22s8.95,3.91,8.95,8.95v.42h-3.11v-.63c0-3.82-1.64-6.09-5.84-6.09-4.75,0-7.02,3.11-7.02,8.4,0,5.63,2.39,8.49,6.93,8.49,3.82,0,5.84-1.85,5.92-5.67h3.02c-.08,4.66-3.15,8.23-9.03,8.23-7.22,0-9.83-4.75-9.83-10.88Z"></path><path class="cls-5" d="m1210.3,1769.04h-15.96c.17,4.79,2.48,7.48,6.93,7.48,3.82,0,5.67-1.43,5.97-4.83h2.98c-.29,4.24-3.28,7.39-9.03,7.39-7.06,0-9.83-4.66-9.83-10.88s3.23-11.22,10-11.22,8.95,3.99,8.95,10.21v1.85Zm-3.11-2.98c0-4.45-1.72-6.55-5.92-6.55s-6.55,2.65-6.89,6.97h12.81v-.42Z"></path><path class="cls-5" d="m1216.18,1757.53h2.6l.29,3.49c1.01-2.14,3.28-4.03,7.35-4.03,4.75,0,7.77,2.52,7.77,7.94v13.61h-2.94v-13.28c0-4.33-2.14-5.71-5.5-5.71-3.82,0-6.64,2.69-6.64,5.63v13.36h-2.94v-21Z"></path><path class="cls-5" d="m1239.87,1768.07c0-7.1,4.28-11.09,10.04-11.09,3.7,0,6.22,1.6,7.31,3.74h.04v-14.95h2.94v32.77h-1.97l-.67-3.61h-.08c-1.18,2.31-3.95,4.16-7.77,4.16-6.3,0-9.83-3.99-9.83-11.01Zm17.64-.5c0-5.5-3.36-8.06-7.35-8.06-3.11,0-7.14,1.47-7.14,8.4s3.61,8.61,7.14,8.61c4.24,0,7.35-2.73,7.35-8.95Z"></path><path class="cls-5" d="m1284.81,1769.04h-15.96c.17,4.79,2.48,7.48,6.93,7.48,3.82,0,5.67-1.43,5.97-4.83h2.98c-.29,4.24-3.28,7.39-9.03,7.39-7.06,0-9.83-4.66-9.83-10.88s3.23-11.22,10-11.22,8.95,3.99,8.95,10.21v1.85Zm-3.11-2.98c0-4.45-1.72-6.55-5.92-6.55s-6.55,2.65-6.89,6.97h12.81v-.42Z"></path><path class="cls-5" d="m1290.69,1757.53h2.6l.29,3.91c1.01-2.14,3.07-4.45,6.76-4.45,1.26,0,2.18.21,3.02.55v3.15c-1.13-.5-2.1-.76-3.4-.76-3.74,0-6.34,2.81-6.34,5.75v12.86h-2.94v-21Z"></path><path class="cls-5" d="m1305.89,1772.11v-1.18h2.94v1.13c0,2.86,2.14,4.5,5.96,4.5s5.8-1.01,5.8-3.78c0-2.06-1.01-2.81-3.86-3.32l-4.62-.84c-3.02-.55-5.54-2.02-5.54-5.5,0-3.15,2.35-6.13,8.4-6.13s8.4,3.03,8.4,7.23v.88h-2.98v-.76c0-3.44-2.14-4.91-5.42-4.91-3.95,0-5.33,1.34-5.33,3.36s1.01,2.86,3.91,3.4l4.03.76c4.12.76,6.09,1.93,6.09,5.59,0,4.58-4.12,6.55-8.78,6.55-7.31,0-8.99-3.28-8.99-6.97Z"></path><path class="cls-5" d="m1368.98,1779.58l-7.1-5.71c-2.44,3.19-6.3,5.29-12.27,5.29s-11.26-3.11-11.26-9.16c0-5,3.44-7.39,7.39-9.12-2.14-1.97-3.82-4.28-3.82-7.48,0-3.61,2.56-8.28,10.08-8.28,6.01,0,8.57,3.65,8.57,6.6,0,5.71-4.91,7.81-9.7,9.7l10.29,8.36c1.05-2.56,1.39-5.67,1.18-8.99h2.94c.13,3.7-.38,7.52-1.93,10.71l5.76,4.66-.13,3.4Zm-9.2-7.35l-11.93-9.58c-3.49,1.55-6.3,3.36-6.3,7.06,0,4.54,3.57,6.72,8.65,6.72,4.54,0,7.64-1.6,9.58-4.2Zm-11.05-12.56c4.5-1.72,8.7-3.28,8.7-7.31,0-1.93-1.64-4.58-5.84-4.58-2.86,0-6.47,1.09-6.47,5.63,0,2.44,1.6,4.37,3.61,6.26Z"></path><path class="cls-5" d="m1382.54,1768.07c0-7.1,4.28-11.09,10.04-11.09,3.7,0,6.22,1.6,7.31,3.74h.04v-14.95h2.94v32.77h-1.97l-.67-3.61h-.08c-1.18,2.31-3.95,4.16-7.77,4.16-6.3,0-9.83-3.99-9.83-11.01Zm17.64-.5c0-5.5-3.36-8.06-7.35-8.06-3.11,0-7.14,1.47-7.14,8.4s3.61,8.61,7.14,8.61c4.24,0,7.35-2.73,7.35-8.95Z"></path><path class="cls-5" d="m1427.49,1769.04h-15.96c.17,4.79,2.48,7.48,6.93,7.48,3.82,0,5.67-1.43,5.97-4.83h2.98c-.29,4.24-3.28,7.39-9.03,7.39-7.06,0-9.83-4.66-9.83-10.88s3.23-11.22,10-11.22,8.95,3.99,8.95,10.21v1.85Zm-3.11-2.98c0-4.45-1.72-6.55-5.92-6.55s-6.55,2.65-6.89,6.97h12.81v-.42Z"></path><path class="cls-5" d="m1431.47,1772.11v-1.18h2.94v1.13c0,2.86,2.14,4.5,5.96,4.5s5.8-1.01,5.8-3.78c0-2.06-1.01-2.81-3.86-3.32l-4.62-.84c-3.02-.55-5.54-2.02-5.54-5.5,0-3.15,2.35-6.13,8.4-6.13s8.4,3.03,8.4,7.23v.88h-2.98v-.76c0-3.44-2.14-4.91-5.42-4.91-3.95,0-5.33,1.34-5.33,3.36s1.01,2.86,3.91,3.4l4.03.76c4.12.76,6.09,1.93,6.09,5.59,0,4.58-4.12,6.55-8.78,6.55-7.31,0-8.99-3.28-8.99-6.97Z"></path><path class="cls-5" d="m1453.44,1768.2c0-6.38,3.23-11.22,10-11.22s8.95,3.91,8.95,8.95v.42h-3.11v-.63c0-3.82-1.64-6.09-5.84-6.09-4.75,0-7.01,3.11-7.01,8.4,0,5.63,2.39,8.49,6.93,8.49,3.82,0,5.84-1.85,5.92-5.67h3.02c-.08,4.66-3.15,8.23-9.03,8.23-7.22,0-9.83-4.75-9.83-10.88Z"></path><path class="cls-5" d="m1495.53,1769.04h-15.96c.17,4.79,2.48,7.48,6.93,7.48,3.82,0,5.67-1.43,5.97-4.83h2.98c-.29,4.24-3.28,7.39-9.03,7.39-7.06,0-9.83-4.66-9.83-10.88s3.23-11.22,10-11.22,8.95,3.99,8.95,10.21v1.85Zm-3.11-2.98c0-4.45-1.72-6.55-5.92-6.55s-6.55,2.65-6.89,6.97h12.81v-.42Z"></path><path class="cls-5" d="m1501.4,1757.53h2.6l.29,3.49c1.01-2.14,3.28-4.03,7.35-4.03,4.75,0,7.77,2.52,7.77,7.94v13.61h-2.94v-13.28c0-4.33-2.14-5.71-5.5-5.71-3.82,0-6.64,2.69-6.64,5.63v13.36h-2.94v-21Z"></path><path class="cls-5" d="m1525.09,1768.07c0-7.1,4.28-11.09,10.04-11.09,3.7,0,6.22,1.6,7.31,3.74h.04v-14.95h2.94v32.77h-1.97l-.67-3.61h-.08c-1.18,2.31-3.95,4.16-7.77,4.16-6.3,0-9.83-3.99-9.83-11.01Zm17.64-.5c0-5.5-3.36-8.06-7.35-8.06-3.11,0-7.14,1.47-7.14,8.4s3.61,8.61,7.14,8.61c4.24,0,7.35-2.73,7.35-8.95Z"></path><path class="cls-5" d="m1570.03,1769.04h-15.96c.17,4.79,2.48,7.48,6.93,7.48,3.82,0,5.67-1.43,5.97-4.83h2.98c-.29,4.24-3.28,7.39-9.03,7.39-7.06,0-9.83-4.66-9.83-10.88s3.23-11.22,10-11.22,8.95,3.99,8.95,10.21v1.85Zm-3.11-2.98c0-4.45-1.72-6.55-5.92-6.55s-6.55,2.65-6.89,6.97h12.81v-.42Z"></path><path class="cls-5" d="m1575.91,1757.53h2.6l.29,3.91c1.01-2.14,3.07-4.45,6.76-4.45,1.26,0,2.18.21,3.02.55v3.15c-1.13-.5-2.1-.76-3.4-.76-3.74,0-6.34,2.81-6.34,5.75v12.86h-2.94v-21Z"></path><path class="cls-5" d="m1591.11,1772.11v-1.18h2.94v1.13c0,2.86,2.14,4.5,5.96,4.5s5.8-1.01,5.8-3.78c0-2.06-1.01-2.81-3.86-3.32l-4.62-.84c-3.02-.55-5.54-2.02-5.54-5.5,0-3.15,2.35-6.13,8.4-6.13s8.4,3.03,8.4,7.23v.88h-2.98v-.76c0-3.44-2.14-4.91-5.42-4.91-3.95,0-5.33,1.34-5.33,3.36s1.01,2.86,3.91,3.4l4.03.76c4.12.76,6.09,1.93,6.09,5.59,0,4.58-4.12,6.55-8.78,6.55-7.31,0-8.99-3.28-8.99-6.97Z"></path><path class="cls-5" d="m1058.81,1794.62h2.94v15.16c1.05-2.1,3.28-3.95,7.31-3.95,4.75,0,7.77,2.52,7.77,7.94v13.61h-2.94v-13.27c0-4.33-2.14-5.71-5.5-5.71-3.82,0-6.64,2.69-6.64,5.63v13.36h-2.94v-32.77Z"></path><path class="cls-5" d="m1082.91,1821.58c0-3.95,2.23-6.09,7.86-6.09h6.34v-1.72c0-2.98-1.26-5.42-5.46-5.42-3.95,0-5.33,1.51-5.33,4.12v.88h-2.98v-.84c0-5,4.2-6.68,8.32-6.68,5.8,0,8.4,2.86,8.4,8.44v13.11h-2.06l-.55-2.98h-.08c-1.26,1.89-3.7,3.53-7.35,3.53-4.92,0-7.1-2.31-7.1-6.34Zm14.2-1.85v-1.76h-7.01c-2.65,0-4.03.92-4.03,3.61,0,2.35,1.26,3.87,4.5,3.87,4.16,0,6.55-2.14,6.55-5.71Z"></path><path class="cls-5" d="m1102.99,1806.42v-.04h3.36l7.35,17.98h.08l7.1-17.98h3.07v.04l-8.74,20.96h-3.02l-9.2-20.96Z"></path><path class="cls-5" d="m1144.78,1817.89h-15.96c.17,4.79,2.48,7.48,6.93,7.48,3.82,0,5.67-1.43,5.97-4.83h2.98c-.29,4.24-3.28,7.39-9.03,7.39-7.06,0-9.83-4.66-9.83-10.88s3.23-11.22,10-11.22,8.95,3.99,8.95,10.21v1.85Zm-3.11-2.98c0-4.45-1.72-6.55-5.92-6.55s-6.55,2.65-6.89,6.97h12.81v-.42Z"></path><path class="cls-5" d="m1160.32,1794.62h2.94v32.77h-2.94v-32.77Z"></path><path class="cls-5" d="m1168.93,1816.88c0-6.22,3.32-11.05,10.38-11.05,6.59,0,10.25,4.83,10.25,11.05s-3.7,11.05-10.29,11.05c-7.27,0-10.33-4.83-10.33-11.05Zm17.56,0c0-5.33-2.9-8.49-7.22-8.49-4.75,0-7.27,3.15-7.27,8.49s2.56,8.49,7.27,8.49c4.33,0,7.22-3.15,7.22-8.49Z"></path><path class="cls-5" d="m1193.75,1816.88c0-6.22,3.32-11.05,10.38-11.05,6.59,0,10.25,4.83,10.25,11.05s-3.7,11.05-10.29,11.05c-7.27,0-10.33-4.83-10.33-11.05Zm17.56,0c0-5.33-2.9-8.49-7.22-8.49-4.75,0-7.27,3.15-7.27,8.49s2.56,8.49,7.27,8.49c4.33,0,7.22-3.15,7.22-8.49Z"></path><path class="cls-5" d="m1220.25,1806.38h2.39l.34,3.87h.08c1.13-2.48,4.03-4.41,7.86-4.41,6.3,0,9.66,3.99,9.66,11.01s-4.29,11.09-9.87,11.09c-3.78,0-6.38-1.6-7.43-3.7h-.08v11.55h-2.94v-29.41Zm17.18,10.63c0-7.18-3.4-8.61-6.93-8.61-4.24,0-7.56,2.73-7.56,8.44,0,6.01,3.45,8.57,7.44,8.57,3.02,0,7.06-1.47,7.06-8.4Z"></path><path class="cls-5" d="m1244.57,1820.95v-1.18h2.94v1.13c0,2.86,2.14,4.49,5.96,4.49s5.8-1.01,5.8-3.78c0-2.06-1.01-2.81-3.86-3.32l-4.62-.84c-3.02-.55-5.54-2.02-5.54-5.5,0-3.15,2.35-6.13,8.4-6.13s8.4,3.02,8.4,7.23v.88h-2.98v-.76c0-3.44-2.14-4.91-5.42-4.91-3.95,0-5.33,1.34-5.33,3.36s1.01,2.86,3.91,3.4l4.03.76c4.12.76,6.09,1.93,6.09,5.59,0,4.58-4.12,6.55-8.78,6.55-7.31,0-8.99-3.28-8.99-6.97Z"></path><path class="cls-5" d="m1295.14,1817.89h-15.96c.17,4.79,2.48,7.48,6.93,7.48,3.82,0,5.67-1.43,5.97-4.83h2.98c-.29,4.24-3.28,7.39-9.03,7.39-7.06,0-9.83-4.66-9.83-10.88s3.23-11.22,10-11.22,8.95,3.99,8.95,10.21v1.85Zm-3.11-2.98c0-4.45-1.72-6.55-5.92-6.55s-6.55,2.65-6.89,6.97h12.81v-.42Z"></path><path class="cls-5" d="m1316.39,1806.42l-8.07,10.5,8.02,10.42v.04h-3.44l-6.34-8.44-6.43,8.44h-3.28v-.04l8.02-10.38-8.07-10.54v-.04h3.44l6.39,8.49,6.43-8.44v-.04h3.32v.04Z"></path><path class="cls-5" d="m1318.41,1817.05c0-6.38,3.23-11.22,10-11.22s8.95,3.91,8.95,8.95v.42h-3.11v-.63c0-3.82-1.64-6.09-5.84-6.09-4.75,0-7.02,3.11-7.02,8.4,0,5.63,2.39,8.49,6.93,8.49,3.82,0,5.84-1.85,5.92-5.67h3.02c-.08,4.66-3.15,8.23-9.03,8.23-7.22,0-9.83-4.75-9.83-10.88Z"></path><path class="cls-5" d="m1360.5,1817.89h-15.96c.17,4.79,2.48,7.48,6.93,7.48,3.82,0,5.67-1.43,5.97-4.83h2.98c-.29,4.24-3.28,7.39-9.03,7.39-7.06,0-9.83-4.66-9.83-10.88s3.23-11.22,10-11.22,8.95,3.99,8.95,10.21v1.85Zm-3.11-2.98c0-4.45-1.72-6.55-5.92-6.55s-6.55,2.65-6.89,6.97h12.81v-.42Z"></path><path class="cls-5" d="m1366.37,1806.38h2.39l.34,3.87h.08c1.13-2.48,4.03-4.41,7.86-4.41,6.3,0,9.66,3.99,9.66,11.01s-4.29,11.09-9.87,11.09c-3.78,0-6.38-1.6-7.43-3.7h-.08v11.55h-2.94v-29.41Zm17.18,10.63c0-7.18-3.4-8.61-6.93-8.61-4.24,0-7.56,2.73-7.56,8.44,0,6.01,3.45,8.57,7.44,8.57,3.02,0,7.06-1.47,7.06-8.4Z"></path><path class="cls-5" d="m1403.54,1824.69v2.6c-.76.21-2.14.59-4.03.59-3.82,0-6.34-1.6-6.34-6.89v-12.18h-4.16v-2.44h4.16v-6.05l2.94-1.43v7.48h5.92v2.44h-5.92v11.8c0,2.81.76,4.58,3.4,4.58,1.6,0,3.23-.29,4.03-.5Z"></path><path class="cls-5" d="m1419.71,1805.07h-3.36v-5.08c0-3.95.88-5.29,3.4-5.96l.67,1.85c-1.76.67-2.06,1.09-2.06,3.78v.34h1.34v5.08Zm5.92,0h-3.36v-5.08c0-3.95.88-5.29,3.4-5.96l.67,1.85c-1.76.67-2.06,1.09-2.06,3.78v.34h1.34v5.08Z"></path><path class="cls-5" d="m1432.02,1806.38h2.39l.34,3.87h.08c1.13-2.48,4.03-4.41,7.86-4.41,6.3,0,9.66,3.99,9.66,11.01s-4.29,11.09-9.87,11.09c-3.78,0-6.38-1.6-7.43-3.7h-.08v11.55h-2.94v-29.41Zm17.18,10.63c0-7.18-3.4-8.61-6.93-8.61-4.24,0-7.56,2.73-7.56,8.44,0,6.01,3.45,8.57,7.44,8.57,3.02,0,7.06-1.47,7.06-8.4Z"></path><path class="cls-5" d="m1453.61,1803.81c1.76-.67,2.06-1.09,2.06-3.78v-.34h-1.34v-5.08h3.36v5.08c0,3.95-.88,5.29-3.4,5.97l-.67-1.85Zm5.92,0c1.76-.67,2.06-1.09,2.06-3.78v-.34h-1.34v-5.08h3.36v5.08c0,3.95-.88,5.29-3.4,5.97l-.67-1.85Z"></path><path class="cls-5" d="m1477.88,1821.58c0-3.95,2.23-6.09,7.86-6.09h6.34v-1.72c0-2.98-1.26-5.42-5.46-5.42-3.95,0-5.33,1.51-5.33,4.12v.88h-2.98v-.84c0-5,4.2-6.68,8.32-6.68,5.8,0,8.4,2.86,8.4,8.44v13.11h-2.06l-.55-2.98h-.08c-1.26,1.89-3.7,3.53-7.35,3.53-4.92,0-7.1-2.31-7.1-6.34Zm14.2-1.85v-1.76h-7.01c-2.65,0-4.03.92-4.03,3.61,0,2.35,1.26,3.87,4.5,3.87,4.16,0,6.55-2.14,6.55-5.71Z"></path><path class="cls-5" d="m1502.37,1806.38h2.6l.29,3.49c1.01-2.14,3.28-4.03,7.35-4.03,4.75,0,7.77,2.52,7.77,7.94v13.61h-2.94v-13.27c0-4.33-2.14-5.71-5.5-5.71-3.82,0-6.64,2.69-6.64,5.63v13.36h-2.94v-21Z"></path><path class="cls-5" d="m1526.06,1816.92c0-7.1,4.28-11.09,10.04-11.09,3.7,0,6.22,1.6,7.31,3.74h.04v-14.96h2.94v32.77h-1.97l-.67-3.61h-.08c-1.18,2.31-3.95,4.16-7.77,4.16-6.3,0-9.83-3.99-9.83-11.01Zm17.64-.5c0-5.5-3.36-8.07-7.35-8.07-3.11,0-7.14,1.47-7.14,8.4s3.61,8.61,7.14,8.61c4.24,0,7.35-2.73,7.35-8.95Z"></path><path class="cls-5" d="m1565.07,1805.07h-3.36v-5.08c0-3.95.88-5.29,3.4-5.96l.67,1.85c-1.76.67-2.06,1.09-2.06,3.78v.34h1.34v5.08Zm5.92,0h-3.36v-5.08c0-3.95.88-5.29,3.4-5.96l.67,1.85c-1.76.67-2.06,1.09-2.06,3.78v.34h1.34v5.08Z"></path><path class="cls-5" d="m1591.33,1823.89h-.08c-1.09,2.14-3.65,4.03-7.48,4.03-6.3,0-9.75-3.99-9.75-11.01s4.37-11.09,9.96-11.09c3.78,0,6.6,1.76,7.65,4.28h.04l.29-3.74h2.31v29.41h-2.94v-11.89Zm.34-7.48c0-5.5-3.36-8.07-7.35-8.07-3.03,0-7.14,1.47-7.14,8.4s3.57,8.61,7.1,8.61c4.24,0,7.39-2.73,7.39-8.95Z"></path><path class="cls-5" d="m1598.88,1803.81c1.76-.67,2.06-1.09,2.06-3.78v-.34h-1.34v-5.08h3.36v5.08c0,3.95-.88,5.29-3.4,5.97l-.67-1.85Zm5.92,0c1.76-.67,2.06-1.09,2.06-3.78v-.34h-1.34v-5.08h3.36v5.08c0,3.95-.88,5.29-3.4,5.97l-.67-1.85Z"></path><path class="cls-5" d="m1454.69,908.75h19.49v2.65h-16.55v12.22h14.62v2.6h-14.62v12.6h16.55v2.69h-19.49v-32.77Z"></path><path class="cls-5" d="m1496.49,920.55l-8.07,10.5,8.02,10.42v.04h-3.44l-6.34-8.44-6.43,8.44h-3.28v-.04l8.02-10.38-8.07-10.54v-.04h3.44l6.39,8.49,6.43-8.44v-.04h3.32v.04Z"></path><path class="cls-5" d="m1501.02,908.75h2.98v6.51h-2.98v-6.51Zm0,11.76h2.94v21h-2.94v-21Z"></path><path class="cls-5" d="m1522.31,938.82v2.6c-.76.21-2.14.59-4.03.59-3.82,0-6.34-1.6-6.34-6.89v-12.18h-4.16v-2.44h4.16v-6.05l2.94-1.43v7.48h5.92v2.44h-5.92v11.8c0,2.81.76,4.58,3.4,4.58,1.6,0,3.23-.29,4.03-.5Z"></path><path class="cls-5" d="m1534.91,935.08v-1.18h2.94v1.13c0,2.86,2.14,4.5,5.96,4.5s5.8-1.01,5.8-3.78c0-2.06-1.01-2.81-3.86-3.32l-4.62-.84c-3.02-.55-5.54-2.02-5.54-5.5,0-3.15,2.35-6.13,8.4-6.13s8.4,3.02,8.4,7.23v.88h-2.98v-.76c0-3.44-2.14-4.92-5.42-4.92-3.95,0-5.33,1.34-5.33,3.36s1.01,2.86,3.91,3.4l4.03.76c4.12.76,6.09,1.93,6.09,5.59,0,4.58-4.12,6.55-8.78,6.55-7.31,0-8.99-3.28-8.99-6.97Z"></path><path class="cls-5" d="m1569.52,938.82v2.6c-.76.21-2.14.59-4.03.59-3.82,0-6.34-1.6-6.34-6.89v-12.18h-4.16v-2.44h4.16v-6.05l2.94-1.43v7.48h5.92v2.44h-5.92v11.8c0,2.81.76,4.58,3.4,4.58,1.6,0,3.23-.29,4.03-.5Z"></path><path class="cls-5" d="m1574.35,920.51h2.6l.29,3.91c1.01-2.14,3.07-4.45,6.76-4.45,1.26,0,2.18.21,3.02.55v3.15c-1.13-.5-2.1-.76-3.4-.76-3.74,0-6.34,2.81-6.34,5.75v12.85h-2.94v-21Z"></path><path class="cls-5" d="m1589.34,931.01c0-6.22,3.32-11.05,10.38-11.05,6.59,0,10.25,4.83,10.25,11.05s-3.7,11.05-10.29,11.05c-7.27,0-10.33-4.83-10.33-11.05Zm17.56,0c0-5.33-2.9-8.49-7.22-8.49-4.75,0-7.27,3.15-7.27,8.49s2.56,8.49,7.27,8.49c4.33,0,7.22-3.15,7.22-8.49Z"></path><path class="cls-5" d="m1615.22,908.75h2.94v23.23l12.14-11.47h3.65v.04l-8.4,7.86,8.78,13.06v.04h-3.36l-7.39-11.22-5.42,5.04v6.17h-2.94v-32.77Z"></path><path class="cls-5" d="m1655.58,932.02h-15.96c.17,4.79,2.48,7.48,6.93,7.48,3.82,0,5.67-1.43,5.97-4.83h2.98c-.29,4.24-3.28,7.39-9.03,7.39-7.06,0-9.83-4.66-9.83-10.88s3.23-11.22,10-11.22,8.95,3.99,8.95,10.21v1.85Zm-3.11-2.98c0-4.45-1.72-6.55-5.92-6.55s-6.55,2.65-6.89,6.97h12.81v-.42Z"></path><path class="cls-5" d="m1659.57,935.08v-1.18h2.94v1.13c0,2.86,2.14,4.5,5.96,4.5s5.8-1.01,5.8-3.78c0-2.06-1.01-2.81-3.86-3.32l-4.62-.84c-3.02-.55-5.54-2.02-5.54-5.5,0-3.15,2.35-6.13,8.4-6.13s8.4,3.02,8.4,7.23v.88h-2.98v-.76c0-3.44-2.14-4.92-5.42-4.92-3.95,0-5.33,1.34-5.33,3.36s1.01,2.86,3.91,3.4l4.03.76c4.12.76,6.09,1.93,6.09,5.59,0,4.58-4.12,6.55-8.78,6.55-7.31,0-8.99-3.28-8.99-6.97Z"></path><path class="cls-5" d="m1395.79,969.35h2.6l.29,3.91c1.01-2.14,3.07-4.45,6.76-4.45,1.26,0,2.18.21,3.02.55v3.15c-1.13-.5-2.1-.76-3.4-.76-3.74,0-6.34,2.81-6.34,5.75v12.85h-2.94v-21Z"></path><path class="cls-5" d="m1429.73,980.86h-15.96c.17,4.79,2.48,7.48,6.93,7.48,3.82,0,5.67-1.43,5.97-4.83h2.98c-.29,4.24-3.28,7.39-9.03,7.39-7.06,0-9.83-4.66-9.83-10.88s3.23-11.22,10-11.22,8.95,3.99,8.95,10.21v1.85Zm-3.11-2.98c0-4.45-1.72-6.55-5.92-6.55s-6.55,2.65-6.89,6.97h12.81v-.42Z"></path><path class="cls-5" d="m1434.13,984.56c0-3.95,2.23-6.09,7.86-6.09h6.34v-1.72c0-2.98-1.26-5.42-5.46-5.42-3.95,0-5.33,1.51-5.33,4.12v.88h-2.98v-.84c0-5,4.2-6.68,8.32-6.68,5.8,0,8.4,2.86,8.4,8.44v13.11h-2.06l-.55-2.98h-.08c-1.26,1.89-3.7,3.53-7.35,3.53-4.92,0-7.1-2.31-7.1-6.34Zm14.2-1.85v-1.76h-7.01c-2.65,0-4.03.92-4.03,3.61,0,2.35,1.26,3.86,4.5,3.86,4.16,0,6.55-2.14,6.55-5.71Z"></path><path class="cls-5" d="m1456.94,980.02c0-6.38,3.23-11.22,10-11.22s8.95,3.91,8.95,8.95v.42h-3.11v-.63c0-3.82-1.64-6.09-5.84-6.09-4.75,0-7.02,3.11-7.02,8.4,0,5.63,2.39,8.49,6.93,8.49,3.82,0,5.84-1.85,5.92-5.67h3.02c-.08,4.66-3.15,8.23-9.03,8.23-7.22,0-9.83-4.75-9.83-10.88Z"></path><path class="cls-5" d="m1481.13,957.59h2.94v15.16c1.05-2.1,3.28-3.95,7.31-3.95,4.75,0,7.77,2.52,7.77,7.94v13.61h-2.94v-13.27c0-4.33-2.14-5.71-5.5-5.71-3.82,0-6.64,2.69-6.64,5.63v13.36h-2.94v-32.77Z"></path><path class="cls-5" d="m1527.12,987.67v2.6c-.76.21-2.14.59-4.03.59-3.82,0-6.34-1.6-6.34-6.89v-12.18h-4.16v-2.44h4.16v-6.05l2.94-1.43v7.48h5.92v2.44h-5.92v11.8c0,2.81.76,4.58,3.4,4.58,1.6,0,3.23-.29,4.03-.5Z"></path><path class="cls-5" d="m1531.95,957.59h2.94v15.16c1.05-2.1,3.28-3.95,7.31-3.95,4.75,0,7.77,2.52,7.77,7.94v13.61h-2.94v-13.27c0-4.33-2.14-5.71-5.5-5.71-3.82,0-6.64,2.69-6.64,5.63v13.36h-2.94v-32.77Z"></path><path class="cls-5" d="m1574.59,980.86h-15.96c.17,4.79,2.48,7.48,6.93,7.48,3.82,0,5.67-1.43,5.97-4.83h2.98c-.29,4.24-3.28,7.39-9.03,7.39-7.06,0-9.83-4.66-9.83-10.88s3.23-11.22,10-11.22,8.95,3.99,8.95,10.21v1.85Zm-3.11-2.98c0-4.45-1.72-6.55-5.92-6.55s-6.55,2.65-6.89,6.97h12.81v-.42Z"></path><path class="cls-5" d="m1606.34,969.4l-8.07,10.5,8.02,10.42v.04h-3.44l-6.34-8.44-6.43,8.44h-3.28v-.04l8.02-10.38-8.07-10.54v-.04h3.44l6.39,8.49,6.43-8.44v-.04h3.32v.04Z"></path><path class="cls-5" d="m1608.35,976.87h10.59v2.81h-10.59v-2.81Z"></path><path class="cls-5" d="m1624.81,957.59h2.94v15.16c1.05-2.1,3.28-3.95,7.31-3.95,4.75,0,7.77,2.52,7.77,7.94v13.61h-2.94v-13.27c0-4.33-2.14-5.71-5.5-5.71-3.82,0-6.64,2.69-6.64,5.63v13.36h-2.94v-32.77Z"></path><path class="cls-5" d="m1667.45,980.86h-15.96c.17,4.79,2.48,7.48,6.93,7.48,3.82,0,5.67-1.43,5.97-4.83h2.98c-.29,4.24-3.28,7.39-9.03,7.39-7.06,0-9.83-4.66-9.83-10.88s3.23-11.22,10-11.22,8.95,3.99,8.95,10.21v1.85Zm-3.11-2.98c0-4.45-1.72-6.55-5.92-6.55s-6.55,2.65-6.89,6.97h12.81v-.42Z"></path><path class="cls-5" d="m1673.32,957.59h2.98v6.51h-2.98v-6.51Zm0,11.76h2.94v21h-2.94v-21Z"></path><path class="cls-5" d="m1683.03,992.16v-.13h3.11v.13c0,2.9,1.93,4.33,6.13,4.33,4.79,0,7.01-2.94,7.01-7.86v-2.1h-.08c-1.09,2.18-3.65,4.08-7.48,4.08-6.3,0-9.75-3.99-9.75-10.71,0-7.1,4.37-11.09,9.96-11.09,3.78,0,6.55,1.81,7.56,4.12h.13l.29-3.57h2.31v19.16c0,5.88-2.81,10.71-10.33,10.71-6.3,0-8.86-2.98-8.86-7.06Zm16.59-12.77c0-5.5-3.36-8.07-7.35-8.07-3.03,0-7.14,1.47-7.14,8.4s3.57,8.32,7.1,8.32c4.24,0,7.39-2.73,7.39-8.65Z"></path><path class="cls-5" d="m1709.57,957.59h2.94v15.16c1.05-2.1,3.28-3.95,7.31-3.95,4.75,0,7.77,2.52,7.77,7.94v13.61h-2.94v-13.27c0-4.33-2.14-5.71-5.5-5.71-3.82,0-6.64,2.69-6.64,5.63v13.36h-2.94v-32.77Z"></path><path class="cls-5" d="m1745.9,987.67v2.6c-.76.21-2.14.59-4.03.59-3.82,0-6.34-1.6-6.34-6.89v-12.18h-4.16v-2.44h4.16v-6.05l2.94-1.43v7.48h5.92v2.44h-5.92v11.8c0,2.81.76,4.58,3.4,4.58,1.6,0,3.23-.29,4.03-.5Z"></path><path class="cls-5" d="m1167.75,2690.71h2.94v18.65l17.05-18.65h3.61v.04l-12.31,13.53,13.36,19.16v.04h-3.65l-11.68-17.05-6.38,7.02v10.04h-2.94v-32.77Z"></path><path class="cls-5" d="m1195.76,2716.09v-13.61h2.94v13.28c0,4.33,2.14,5.71,5.42,5.71,3.74,0,6.55-2.69,6.55-5.63v-13.36h2.94v21h-2.6l-.25-3.36h-.08c-.97,2.02-3.23,3.91-7.23,3.91-4.66,0-7.69-2.52-7.69-7.94Z"></path><path class="cls-5" d="m1220.96,2702.47h2.6l.29,3.91c1.01-2.14,3.07-4.45,6.76-4.45,1.26,0,2.18.21,3.02.54v3.15c-1.13-.5-2.1-.76-3.4-.76-3.74,0-6.34,2.81-6.34,5.76v12.85h-2.94v-21Z"></path><path class="cls-5" d="m1238.27,2702.47h2.6l.29,3.91c1.01-2.14,3.07-4.45,6.76-4.45,1.26,0,2.18.21,3.02.54v3.15c-1.13-.5-2.1-.76-3.4-.76-3.74,0-6.34,2.81-6.34,5.76v12.85h-2.94v-21Z"></path><path class="cls-5" d="m1272.21,2713.99h-15.96c.17,4.79,2.48,7.48,6.93,7.48,3.82,0,5.67-1.43,5.97-4.83h2.98c-.29,4.24-3.28,7.39-9.03,7.39-7.06,0-9.83-4.66-9.83-10.88s3.23-11.21,10-11.21,8.95,3.99,8.95,10.21v1.85Zm-3.11-2.98c0-4.45-1.72-6.55-5.92-6.55s-6.55,2.65-6.89,6.97h12.81v-.42Z"></path><path class="cls-5" d="m1278.08,2702.47h2.6l.29,3.49c1.01-2.14,3.28-4.03,7.35-4.03,4.75,0,7.77,2.52,7.77,7.94v13.61h-2.94v-13.27c0-4.33-2.14-5.71-5.5-5.71-3.82,0-6.64,2.69-6.64,5.63v13.36h-2.94v-21Z"></path><path class="cls-5" d="m1314.42,2720.79v2.6c-.76.21-2.14.59-4.03.59-3.82,0-6.34-1.6-6.34-6.89v-12.18h-4.16v-2.44h4.16v-6.05l2.94-1.43v7.48h5.92v2.44h-5.92v11.8c0,2.81.76,4.58,3.4,4.58,1.6,0,3.23-.29,4.03-.5Z"></path><path class="cls-5" d="m1327.01,2717.05v-1.18h2.94v1.13c0,2.86,2.14,4.5,5.96,4.5s5.8-1.01,5.8-3.78c0-2.06-1.01-2.81-3.86-3.32l-4.62-.84c-3.02-.55-5.54-2.02-5.54-5.5,0-3.15,2.35-6.13,8.4-6.13s8.4,3.02,8.4,7.22v.88h-2.98v-.76c0-3.44-2.14-4.92-5.42-4.92-3.95,0-5.33,1.34-5.33,3.36s1.01,2.86,3.91,3.4l4.03.76c4.12.76,6.09,1.93,6.09,5.59,0,4.58-4.12,6.55-8.78,6.55-7.31,0-8.99-3.28-8.99-6.97Z"></path><path class="cls-5" d="m1361.62,2720.79v2.6c-.76.21-2.14.59-4.03.59-3.82,0-6.34-1.6-6.34-6.89v-12.18h-4.16v-2.44h4.16v-6.05l2.94-1.43v7.48h5.92v2.44h-5.92v11.8c0,2.81.76,4.58,3.4,4.58,1.6,0,3.23-.29,4.03-.5Z"></path><path class="cls-5" d="m1366.66,2702.47l6.89,17.98h.08l7.14-17.98h3.07v.04l-8.86,20.84-3.11,8.53h-2.98v-.04l3.19-8.36-8.78-20.96v-.04h3.36Z"></path><path class="cls-5" d="m1388.04,2690.71h2.94v32.77h-2.94v-32.77Z"></path><path class="cls-5" d="m1415.59,2713.99h-15.96c.17,4.79,2.48,7.48,6.93,7.48,3.82,0,5.67-1.43,5.97-4.83h2.98c-.29,4.24-3.28,7.39-9.03,7.39-7.06,0-9.83-4.66-9.83-10.88s3.23-11.21,10-11.21,8.95,3.99,8.95,10.21v1.85Zm-3.11-2.98c0-4.45-1.72-6.55-5.92-6.55s-6.55,2.65-6.89,6.97h12.81v-.42Z"></path><path class="cls-5" d="m1432.81,2701.17h-3.36v-5.08c0-3.95.88-5.29,3.4-5.96l.67,1.85c-1.76.67-2.06,1.09-2.06,3.78v.34h1.34v5.08Zm5.92,0h-3.36v-5.08c0-3.95.88-5.29,3.4-5.96l.67,1.85c-1.76.67-2.06,1.09-2.06,3.78v.34h1.34v5.08Z"></path><path class="cls-5" d="m1456.08,2720.79v2.6c-.76.21-2.14.59-4.03.59-3.82,0-6.34-1.6-6.34-6.89v-12.18h-4.16v-2.44h4.16v-6.05l2.94-1.43v7.48h5.92v2.44h-5.92v11.8c0,2.81.76,4.58,3.4,4.58,1.6,0,3.23-.29,4.03-.5Z"></path><path class="cls-5" d="m1457.97,2699.91c1.76-.67,2.06-1.09,2.06-3.78v-.34h-1.34v-5.08h3.36v5.08c0,3.95-.88,5.29-3.4,5.97l-.67-1.85Zm5.92,0c1.76-.67,2.06-1.09,2.06-3.78v-.34h-1.34v-5.08h3.36v5.08c0,3.95-.88,5.29-3.4,5.97l-.67-1.85Z"></path><path class="cls-5" d="m819.86,3485.1c0-11.72,6.76-16.93,15.46-16.93,7.94,0,14.7,5.21,14.7,16.59,0,12.48-6.76,17.27-15.08,17.27s-15.08-4.79-15.08-16.93Zm27.05,0c0-10.12-5.33-14.24-12.01-14.24s-11.93,4.12-11.93,14.24,5.33,14.2,12.01,14.2,11.93-3.74,11.93-14.2Z"></path><path class="cls-5" d="m856.31,3480.48h2.39l.34,3.87h.08c1.13-2.48,4.03-4.41,7.86-4.41,6.3,0,9.66,3.99,9.66,11.01s-4.29,11.09-9.87,11.09c-3.78,0-6.38-1.6-7.43-3.7h-.09v11.55h-2.94v-29.41Zm17.18,10.63c0-7.18-3.4-8.61-6.93-8.61-4.24,0-7.56,2.73-7.56,8.44,0,6.01,3.45,8.57,7.44,8.57,3.03,0,7.06-1.47,7.06-8.4Z"></path><path class="cls-5" d="m899.79,3491.99h-15.96c.17,4.79,2.48,7.48,6.93,7.48,3.82,0,5.67-1.43,5.96-4.83h2.98c-.29,4.24-3.28,7.39-9.03,7.39-7.06,0-9.83-4.66-9.83-10.88s3.23-11.21,10-11.21,8.95,3.99,8.95,10.21v1.85Zm-3.11-2.98c0-4.45-1.72-6.55-5.92-6.55s-6.55,2.65-6.89,6.97h12.81v-.42Z"></path><path class="cls-5" d="m905.66,3480.48h2.6l.29,3.49c1.01-2.14,3.28-4.03,7.35-4.03,4.75,0,7.77,2.52,7.77,7.94v13.61h-2.94v-13.27c0-4.33-2.14-5.71-5.5-5.71-3.82,0-6.64,2.69-6.64,5.63v13.36h-2.94v-21Z"></path><path class="cls-5" d="m938.8,3495.06v-1.18h2.94v1.13c0,2.86,2.14,4.5,5.96,4.5s5.8-1.01,5.8-3.78c0-2.06-1.01-2.81-3.86-3.32l-4.62-.84c-3.03-.55-5.54-2.02-5.54-5.5,0-3.15,2.35-6.13,8.4-6.13s8.4,3.02,8.4,7.22v.88h-2.98v-.76c0-3.44-2.14-4.92-5.42-4.92-3.95,0-5.33,1.34-5.33,3.36s1.01,2.86,3.91,3.4l4.03.76c4.12.76,6.09,1.93,6.09,5.59,0,4.58-4.12,6.55-8.78,6.55-7.31,0-8.99-3.28-8.99-6.97Z"></path><path class="cls-5" d="m962.45,3468.72h2.94v15.17c1.05-2.1,3.28-3.95,7.31-3.95,4.75,0,7.77,2.52,7.77,7.94v13.61h-2.94v-13.27c0-4.33-2.14-5.71-5.5-5.71-3.82,0-6.64,2.69-6.64,5.63v13.36h-2.94v-32.77Z"></path><path class="cls-5" d="m986.55,3495.69c0-3.95,2.23-6.09,7.86-6.09h6.34v-1.72c0-2.98-1.26-5.42-5.46-5.42-3.95,0-5.33,1.51-5.33,4.12v.88h-2.98v-.84c0-5,4.2-6.68,8.32-6.68,5.8,0,8.4,2.86,8.4,8.44v13.11h-2.06l-.55-2.98h-.08c-1.26,1.89-3.7,3.53-7.35,3.53-4.92,0-7.1-2.31-7.1-6.34Zm14.2-1.85v-1.76h-7.01c-2.65,0-4.03.92-4.03,3.61,0,2.35,1.26,3.87,4.49,3.87,4.16,0,6.55-2.14,6.55-5.71Z"></path><path class="cls-5" d="m1011.04,3480.48h2.39l.34,3.87h.08c1.13-2.48,4.03-4.41,7.86-4.41,6.3,0,9.66,3.99,9.66,11.01s-4.29,11.09-9.87,11.09c-3.78,0-6.38-1.6-7.44-3.7h-.08v11.55h-2.94v-29.41Zm17.18,10.63c0-7.18-3.4-8.61-6.93-8.61-4.24,0-7.56,2.73-7.56,8.44,0,6.01,3.45,8.57,7.44,8.57,3.02,0,7.06-1.47,7.06-8.4Z"></path><path class="cls-5" d="m1054.51,3491.99h-15.96c.17,4.79,2.48,7.48,6.93,7.48,3.82,0,5.67-1.43,5.97-4.83h2.98c-.29,4.24-3.28,7.39-9.03,7.39-7.06,0-9.83-4.66-9.83-10.88s3.23-11.21,10-11.21,8.95,3.99,8.95,10.21v1.85Zm-3.11-2.98c0-4.45-1.72-6.55-5.92-6.55s-6.55,2.65-6.89,6.97h12.81v-.42Z"></path><path class="cls-5" d="m1068.37,3490.98c0-6.22,3.32-11.05,10.38-11.05,6.59,0,10.25,4.83,10.25,11.05s-3.7,11.05-10.29,11.05c-7.27,0-10.33-4.83-10.33-11.05Zm17.56,0c0-5.33-2.9-8.48-7.22-8.48-4.75,0-7.27,3.15-7.27,8.48s2.56,8.49,7.27,8.49c4.33,0,7.22-3.15,7.22-8.49Z"></path><path class="cls-5" d="m1099.03,3475.44v5.04h5.92v2.44h-5.92v18.57h-2.94v-18.57h-4.16v-2.44h4.16v-5.42c0-5.29,3.15-6.89,6.38-6.89,1.85,0,2.98.29,3.74.55v2.61c-.71-.21-1.89-.46-3.49-.46-2.65,0-3.7,1.76-3.7,4.58Z"></path><path class="cls-5" d="m1120.91,3479.18h-3.36v-5.08c0-3.95.88-5.29,3.4-5.96l.67,1.85c-1.76.67-2.06,1.09-2.06,3.78v.34h1.34v5.08Zm5.92,0h-3.36v-5.08c0-3.95.88-5.29,3.4-5.96l.67,1.85c-1.76.67-2.06,1.09-2.06,3.78v.34h1.34v5.08Z"></path><path class="cls-5" d="m1128.81,3495.06v-1.18h2.94v1.13c0,2.86,2.14,4.5,5.96,4.5s5.8-1.01,5.8-3.78c0-2.06-1.01-2.81-3.86-3.32l-4.62-.84c-3.03-.55-5.54-2.02-5.54-5.5,0-3.15,2.35-6.13,8.4-6.13s8.4,3.02,8.4,7.22v.88h-2.98v-.76c0-3.44-2.14-4.92-5.42-4.92-3.95,0-5.33,1.34-5.33,3.36s1.01,2.86,3.91,3.4l4.03.76c4.12.76,6.09,1.93,6.09,5.59,0,4.58-4.12,6.55-8.78,6.55-7.31,0-8.99-3.28-8.99-6.97Z"></path><path class="cls-5" d="m1148.88,3477.92c1.76-.67,2.06-1.09,2.06-3.78v-.34h-1.34v-5.08h3.36v5.08c0,3.95-.88,5.29-3.4,5.97l-.67-1.85Zm5.92,0c1.77-.67,2.06-1.09,2.06-3.78v-.34h-1.34v-5.08h3.36v5.08c0,3.95-.88,5.29-3.4,5.97l-.67-1.85Z"></path><path class="cls-5" d="m984.58,2619.15h-3.36v-5.08c0-3.95.88-5.29,3.4-5.96l.67,1.85c-1.76.67-2.06,1.09-2.06,3.78v.34h1.34v5.08Zm5.92,0h-3.36v-5.08c0-3.95.88-5.29,3.4-5.96l.67,1.85c-1.76.67-2.06,1.09-2.06,3.78v.34h1.34v5.08Z"></path><path class="cls-5" d="m1000.62,2615.42v5.04h5.92v2.44h-5.92v18.57h-2.94v-18.57h-4.16v-2.44h4.16v-5.42c0-5.29,3.15-6.89,6.38-6.89,1.85,0,2.98.29,3.74.55v2.6c-.71-.21-1.89-.46-3.49-.46-2.65,0-3.7,1.76-3.7,4.58Z"></path><path class="cls-5" d="m1011.16,2617.89c1.76-.67,2.06-1.09,2.06-3.78v-.34h-1.34v-5.08h3.36v5.08c0,3.95-.88,5.29-3.4,5.96l-.67-1.85Zm5.92,0c1.76-.67,2.06-1.09,2.06-3.78v-.34h-1.34v-5.08h3.36v5.08c0,3.95-.88,5.29-3.4,5.96l-.67-1.85Z"></path><path class="cls-5" d="m1036.7,2608.69h2.98v6.51h-2.98v-6.51Zm0,11.76h2.94v21h-2.94v-21Z"></path><path class="cls-5" d="m1045.14,2635.03v-1.18h2.94v1.13c0,2.86,2.14,4.5,5.96,4.5s5.8-1.01,5.8-3.78c0-2.06-1.01-2.81-3.86-3.32l-4.62-.84c-3.02-.55-5.54-2.02-5.54-5.5,0-3.15,2.35-6.13,8.4-6.13s8.4,3.02,8.4,7.23v.88h-2.98v-.76c0-3.44-2.14-4.92-5.42-4.92-3.95,0-5.33,1.34-5.33,3.36s1.01,2.86,3.91,3.4l4.03.76c4.12.76,6.09,1.93,6.09,5.59,0,4.58-4.12,6.55-8.78,6.55-7.31,0-8.99-3.28-8.99-6.97Z"></path><path class="cls-5" d="m1076.76,2631.12c0-6.38,3.23-11.22,10-11.22s8.95,3.91,8.95,8.95v.42h-3.11v-.63c0-3.82-1.64-6.09-5.84-6.09-4.75,0-7.02,3.11-7.02,8.4,0,5.63,2.39,8.49,6.93,8.49,3.82,0,5.84-1.85,5.92-5.67h3.02c-.08,4.66-3.15,8.23-9.03,8.23-7.22,0-9.83-4.75-9.83-10.88Z"></path><path class="cls-5" d="m1099.91,2630.96c0-6.22,3.32-11.05,10.38-11.05,6.59,0,10.25,4.83,10.25,11.05s-3.7,11.05-10.29,11.05c-7.27,0-10.33-4.83-10.33-11.05Zm17.56,0c0-5.33-2.9-8.49-7.22-8.49-4.75,0-7.27,3.15-7.27,8.49s2.56,8.49,7.27,8.49c4.33,0,7.22-3.15,7.22-8.49Z"></path><path class="cls-5" d="m1126.41,2620.46h2.6l.29,3.49c1.01-2.14,3.28-4.03,7.35-4.03,4.75,0,7.77,2.52,7.77,7.94v13.61h-2.94v-13.27c0-4.33-2.14-5.71-5.5-5.71-3.82,0-6.64,2.69-6.64,5.63v13.36h-2.94v-21Z"></path><path class="cls-5" d="m1151.78,2620.46h2.6l.29,3.49c1.01-2.14,3.28-4.03,7.35-4.03,4.75,0,7.77,2.52,7.77,7.94v13.61h-2.94v-13.27c0-4.33-2.14-5.71-5.5-5.71-3.82,0-6.64,2.69-6.64,5.63v13.36h-2.94v-21Z"></path><path class="cls-5" d="m1194.41,2631.97h-15.96c.17,4.79,2.48,7.48,6.93,7.48,3.82,0,5.67-1.43,5.97-4.83h2.98c-.29,4.24-3.28,7.39-9.03,7.39-7.06,0-9.83-4.66-9.83-10.88s3.23-11.22,10-11.22,8.95,3.99,8.95,10.21v1.85Zm-3.11-2.98c0-4.45-1.72-6.55-5.92-6.55s-6.55,2.65-6.89,6.97h12.81v-.42Z"></path><path class="cls-5" d="m1198.61,2631.12c0-6.38,3.23-11.22,10-11.22s8.95,3.91,8.95,8.95v.42h-3.11v-.63c0-3.82-1.64-6.09-5.84-6.09-4.75,0-7.02,3.11-7.02,8.4,0,5.63,2.39,8.49,6.93,8.49,3.82,0,5.84-1.85,5.92-5.67h3.02c-.08,4.66-3.15,8.23-9.03,8.23-7.22,0-9.83-4.75-9.83-10.88Z"></path><path class="cls-5" d="m1234.39,2638.77v2.6c-.76.21-2.14.59-4.03.59-3.82,0-6.34-1.6-6.34-6.89v-12.18h-4.16v-2.44h4.16v-6.05l2.94-1.43v7.48h5.92v2.44h-5.92v11.8c0,2.81.76,4.58,3.4,4.58,1.6,0,3.23-.29,4.03-.5Z"></path><path class="cls-5" d="m1237.33,2635.03v-1.18h2.94v1.13c0,2.86,2.14,4.5,5.96,4.5s5.8-1.01,5.8-3.78c0-2.06-1.01-2.81-3.86-3.32l-4.62-.84c-3.02-.55-5.54-2.02-5.54-5.5,0-3.15,2.35-6.13,8.4-6.13s8.4,3.02,8.4,7.23v.88h-2.98v-.76c0-3.44-2.14-4.92-5.42-4.92-3.95,0-5.33,1.34-5.33,3.36s1.01,2.86,3.91,3.4l4.03.76c4.12.76,6.09,1.93,6.09,5.59,0,4.58-4.12,6.55-8.78,6.55-7.31,0-8.99-3.28-8.99-6.97Z"></path><path class="cls-5" d="m1274.8,2615.42v5.04h5.92v2.44h-5.92v18.57h-2.94v-18.57h-4.16v-2.44h4.16v-5.42c0-5.29,3.15-6.89,6.38-6.89,1.85,0,2.98.29,3.74.55v2.6c-.71-.21-1.89-.46-3.49-.46-2.65,0-3.7,1.76-3.7,4.58Z"></path><path class="cls-5" d="m1285.13,2620.46h2.6l.29,3.91c1.01-2.14,3.07-4.45,6.76-4.45,1.26,0,2.18.21,3.02.55v3.15c-1.13-.5-2.1-.76-3.4-.76-3.74,0-6.34,2.81-6.34,5.75v12.85h-2.94v-21Z"></path><path class="cls-5" d="m1300.12,2630.96c0-6.22,3.32-11.05,10.38-11.05,6.59,0,10.25,4.83,10.25,11.05s-3.7,11.05-10.29,11.05c-7.27,0-10.33-4.83-10.33-11.05Zm17.56,0c0-5.33-2.9-8.49-7.22-8.49-4.75,0-7.27,3.15-7.27,8.49s2.56,8.49,7.27,8.49c4.33,0,7.22-3.15,7.22-8.49Z"></path><path class="cls-5" d="m1357.33,2627.85v13.61h-2.94v-13.27c0-4.33-2.14-5.71-4.75-5.71-3.82,0-6.17,2.69-6.17,5.63v13.36h-2.94v-13.27c0-4.33-1.85-5.71-4.83-5.71-3.61,0-6.13,2.69-6.13,5.63v13.36h-2.94v-21h2.6l.29,3.49c1.01-2.02,3.07-4.03,6.93-4.03,2.94,0,5.38,1.39,6.43,4.29,1.22-2.39,3.57-4.29,7.14-4.29,4.29,0,7.31,2.52,7.31,7.94Z"></path><path class="cls-5" d="m1385.3,2638.77v2.6c-.76.21-2.14.59-4.03.59-3.82,0-6.34-1.6-6.34-6.89v-12.18h-4.16v-2.44h4.16v-6.05l2.94-1.43v7.48h5.92v2.44h-5.92v11.8c0,2.81.76,4.58,3.4,4.58,1.6,0,3.23-.29,4.03-.5Z"></path><path class="cls-5" d="m1390.13,2608.69h2.94v15.17c1.05-2.1,3.28-3.95,7.31-3.95,4.75,0,7.77,2.52,7.77,7.94v13.61h-2.94v-13.27c0-4.33-2.14-5.71-5.5-5.71-3.82,0-6.64,2.69-6.64,5.63v13.36h-2.94v-32.77Z"></path><path class="cls-5" d="m1432.76,2631.97h-15.96c.17,4.79,2.48,7.48,6.93,7.48,3.82,0,5.67-1.43,5.97-4.83h2.98c-.29,4.24-3.28,7.39-9.03,7.39-7.06,0-9.83-4.66-9.83-10.88s3.23-11.22,10-11.22,8.95,3.99,8.95,10.21v1.85Zm-3.11-2.98c0-4.45-1.72-6.55-5.92-6.55s-6.55,2.65-6.89,6.97h12.81v-.42Z"></path><path class="cls-5" d="m1451.11,2637.97h-.08l-.76,3.49h-1.97v-32.77h2.94v15.25h.04c1.26-2.31,4.07-4.03,7.69-4.03,6.3,0,9.66,3.99,9.66,11.01s-4.29,11.09-9.87,11.09c-3.78,0-6.55-1.64-7.65-4.03Zm14.37-6.89c0-7.18-3.4-8.61-6.93-8.61-4.24,0-7.56,2.73-7.56,8.44,0,6.01,3.45,8.57,7.44,8.57,3.02,0,7.06-1.47,7.06-8.4Z"></path><path class="cls-5" d="m1473.04,2635.66c0-3.95,2.23-6.09,7.86-6.09h6.34v-1.72c0-2.98-1.26-5.42-5.46-5.42-3.95,0-5.33,1.51-5.33,4.12v.88h-2.98v-.84c0-5,4.2-6.68,8.32-6.68,5.8,0,8.4,2.86,8.4,8.44v13.11h-2.06l-.55-2.98h-.08c-1.26,1.89-3.7,3.53-7.35,3.53-4.92,0-7.1-2.31-7.1-6.34Zm14.2-1.85v-1.76h-7.01c-2.65,0-4.03.92-4.03,3.61,0,2.35,1.26,3.87,4.5,3.87,4.16,0,6.55-2.14,6.55-5.71Z"></path><path class="cls-5" d="m1497.52,2620.46h2.6l.29,3.91c1.01-2.14,3.07-4.45,6.76-4.45,1.26,0,2.18.21,3.02.55v3.15c-1.13-.5-2.1-.76-3.4-.76-3.74,0-6.34,2.81-6.34,5.75v12.85h-2.94v-21Z"></path><path class="cls-5" d="m116.86,2608.69h3.15l17.69,27.6h.04v-27.6h2.94v32.77h-3.07l-17.77-27.93h-.04v27.93h-2.94v-32.77Z"></path><path class="cls-5" d="m148.87,2634.07v-13.61h2.94v13.27c0,4.33,2.14,5.71,5.42,5.71,3.74,0,6.55-2.69,6.55-5.63v-13.36h2.94v21h-2.6l-.25-3.36h-.08c-.97,2.02-3.23,3.91-7.23,3.91-4.66,0-7.69-2.52-7.69-7.94Z"></path><path class="cls-5" d="m204.77,2627.85v13.61h-2.94v-13.27c0-4.33-2.14-5.71-4.75-5.71-3.82,0-6.17,2.69-6.17,5.63v13.36h-2.94v-13.27c0-4.33-1.85-5.71-4.83-5.71-3.61,0-6.13,2.69-6.13,5.63v13.36h-2.94v-21h2.6l.29,3.49c1.01-2.02,3.07-4.03,6.93-4.03,2.94,0,5.38,1.39,6.43,4.29,1.22-2.39,3.57-4.29,7.14-4.29,4.29,0,7.31,2.52,7.31,7.94Z"></path><path class="cls-5" d="m229.38,2631.97h-15.96c.17,4.79,2.48,7.48,6.93,7.48,3.82,0,5.67-1.43,5.97-4.83h2.98c-.29,4.24-3.28,7.39-9.03,7.39-7.06,0-9.83-4.66-9.83-10.88s3.23-11.22,10-11.22,8.95,3.99,8.95,10.21v1.85Zm-3.11-2.98c0-4.45-1.72-6.55-5.92-6.55s-6.55,2.65-6.89,6.97h12.81v-.42Z"></path><path class="cls-5" d="m235.26,2620.46h2.6l.29,3.91c1.01-2.14,3.07-4.45,6.76-4.45,1.26,0,2.18.21,3.02.55v3.15c-1.13-.5-2.1-.76-3.4-.76-3.74,0-6.34,2.81-6.34,5.75v12.85h-2.94v-21Z"></path><path class="cls-5" d="m250.88,2635.66c0-3.95,2.23-6.09,7.86-6.09h6.34v-1.72c0-2.98-1.26-5.42-5.46-5.42-3.95,0-5.33,1.51-5.33,4.12v.88h-2.98v-.84c0-5,4.2-6.68,8.32-6.68,5.8,0,8.4,2.86,8.4,8.44v13.11h-2.06l-.55-2.98h-.08c-1.26,1.89-3.7,3.53-7.35,3.53-4.92,0-7.1-2.31-7.1-6.34Zm14.2-1.85v-1.76h-7.01c-2.65,0-4.03.92-4.03,3.61,0,2.35,1.26,3.86,4.5,3.86,4.16,0,6.55-2.14,6.55-5.71Z"></path><path class="cls-5" d="m275.37,2608.69h2.94v32.77h-2.94v-32.77Z"></path><path class="cls-5" d="m283.77,2635.03v-1.18h2.94v1.13c0,2.86,2.14,4.5,5.96,4.5s5.8-1.01,5.8-3.78c0-2.06-1.01-2.81-3.86-3.32l-4.62-.84c-3.02-.55-5.54-2.02-5.54-5.5,0-3.15,2.35-6.13,8.4-6.13s8.4,3.02,8.4,7.22v.88h-2.98v-.76c0-3.45-2.14-4.92-5.42-4.92-3.95,0-5.33,1.34-5.33,3.36s1.01,2.86,3.91,3.4l4.03.76c4.12.76,6.09,1.93,6.09,5.59,0,4.58-4.12,6.55-8.78,6.55-7.31,0-8.99-3.28-8.99-6.97Z"></path><path class="cls-5" d="m317.08,2620.46h2.6l.29,3.91c1.01-2.14,3.07-4.45,6.76-4.45,1.26,0,2.18.21,3.02.55v3.15c-1.13-.5-2.1-.76-3.4-.76-3.74,0-6.34,2.81-6.34,5.75v12.85h-2.94v-21Z"></path><path class="cls-5" d="m351.01,2631.97h-15.96c.17,4.79,2.48,7.48,6.93,7.48,3.82,0,5.67-1.43,5.97-4.83h2.98c-.29,4.24-3.28,7.39-9.03,7.39-7.06,0-9.83-4.66-9.83-10.88s3.23-11.22,10-11.22,8.95,3.99,8.95,10.21v1.85Zm-3.11-2.98c0-4.45-1.72-6.55-5.92-6.55s-6.55,2.65-6.89,6.97h12.81v-.42Z"></path><path class="cls-5" d="m355.42,2635.66c0-3.95,2.23-6.09,7.86-6.09h6.34v-1.72c0-2.98-1.26-5.42-5.46-5.42-3.95,0-5.33,1.51-5.33,4.12v.88h-2.98v-.84c0-5,4.2-6.68,8.32-6.68,5.8,0,8.4,2.86,8.4,8.44v13.11h-2.06l-.55-2.98h-.08c-1.26,1.89-3.7,3.53-7.35,3.53-4.92,0-7.1-2.31-7.1-6.34Zm14.2-1.85v-1.76h-7.01c-2.65,0-4.03.92-4.03,3.61,0,2.35,1.26,3.86,4.5,3.86,4.16,0,6.55-2.14,6.55-5.71Z"></path><path class="cls-5" d="m378.23,2631.13c0-6.38,3.23-11.22,10-11.22s8.95,3.91,8.95,8.95v.42h-3.11v-.63c0-3.82-1.64-6.09-5.84-6.09-4.75,0-7.02,3.11-7.02,8.4,0,5.63,2.39,8.49,6.93,8.49,3.82,0,5.84-1.85,5.92-5.67h3.02c-.08,4.66-3.15,8.23-9.03,8.23-7.22,0-9.83-4.75-9.83-10.88Z"></path><path class="cls-5" d="m402.42,2608.69h2.94v15.17c1.05-2.1,3.28-3.95,7.31-3.95,4.75,0,7.77,2.52,7.77,7.94v13.61h-2.94v-13.27c0-4.33-2.14-5.71-5.5-5.71-3.82,0-6.64,2.69-6.64,5.63v13.36h-2.94v-32.77Z"></path><path class="cls-5" d="m437.03,2634.07v-13.61h2.94v13.27c0,4.33,2.14,5.71,5.42,5.71,3.74,0,6.55-2.69,6.55-5.63v-13.36h2.94v21h-2.6l-.25-3.36h-.08c-.97,2.02-3.23,3.91-7.23,3.91-4.66,0-7.69-2.52-7.69-7.94Z"></path><path class="cls-5" d="m462.23,2620.46h2.39l.34,3.86h.08c1.13-2.48,4.03-4.41,7.86-4.41,6.3,0,9.66,3.99,9.66,11.01s-4.29,11.09-9.87,11.09c-3.78,0-6.38-1.6-7.43-3.7h-.08v11.55h-2.94v-29.41Zm17.18,10.63c0-7.18-3.4-8.61-6.93-8.61-4.24,0-7.56,2.73-7.56,8.44,0,6.01,3.45,8.57,7.44,8.57,3.02,0,7.06-1.47,7.06-8.4Z"></path><path class="cls-5" d="m488.44,2620.46h2.39l.34,3.86h.08c1.13-2.48,4.03-4.41,7.86-4.41,6.3,0,9.66,3.99,9.66,11.01s-4.29,11.09-9.87,11.09c-3.78,0-6.38-1.6-7.43-3.7h-.08v11.55h-2.94v-29.41Zm17.18,10.63c0-7.18-3.4-8.61-6.93-8.61-4.24,0-7.56,2.73-7.56,8.44,0,6.01,3.45,8.57,7.44,8.57,3.02,0,7.06-1.47,7.06-8.4Z"></path><path class="cls-5" d="m531.91,2631.97h-15.96c.17,4.79,2.48,7.48,6.93,7.48,3.82,0,5.67-1.43,5.97-4.83h2.98c-.29,4.24-3.28,7.39-9.03,7.39-7.06,0-9.83-4.66-9.83-10.88s3.23-11.22,10-11.22,8.95,3.99,8.95,10.21v1.85Zm-3.11-2.98c0-4.45-1.72-6.55-5.92-6.55s-6.55,2.65-6.89,6.97h12.81v-.42Z"></path><path class="cls-5" d="m537.79,2620.46h2.6l.29,3.91c1.01-2.14,3.07-4.45,6.76-4.45,1.26,0,2.18.21,3.02.55v3.15c-1.13-.5-2.1-.76-3.4-.76-3.74,0-6.34,2.81-6.34,5.75v12.85h-2.94v-21Z"></path><path class="cls-5" d="m552.78,2631.13c0-6.38,3.23-11.22,10-11.22s8.95,3.91,8.95,8.95v.42h-3.11v-.63c0-3.82-1.64-6.09-5.84-6.09-4.75,0-7.01,3.11-7.01,8.4,0,5.63,2.39,8.49,6.93,8.49,3.82,0,5.84-1.85,5.92-5.67h3.02c-.08,4.66-3.15,8.23-9.03,8.23-7.22,0-9.83-4.75-9.83-10.88Z"></path><path class="cls-5" d="m576.13,2635.66c0-3.95,2.23-6.09,7.86-6.09h6.34v-1.72c0-2.98-1.26-5.42-5.46-5.42-3.95,0-5.33,1.51-5.33,4.12v.88h-2.98v-.84c0-5,4.2-6.68,8.32-6.68,5.8,0,8.4,2.86,8.4,8.44v13.11h-2.06l-.55-2.98h-.08c-1.26,1.89-3.7,3.53-7.35,3.53-4.92,0-7.1-2.31-7.1-6.34Zm14.2-1.85v-1.76h-7.01c-2.65,0-4.03.92-4.03,3.61,0,2.35,1.26,3.86,4.5,3.86,4.16,0,6.55-2.14,6.55-5.71Z"></path><path class="cls-5" d="m598.73,2635.03v-1.18h2.94v1.13c0,2.86,2.14,4.5,5.96,4.5s5.8-1.01,5.8-3.78c0-2.06-1.01-2.81-3.86-3.32l-4.62-.84c-3.02-.55-5.54-2.02-5.54-5.5,0-3.15,2.35-6.13,8.4-6.13s8.4,3.02,8.4,7.22v.88h-2.98v-.76c0-3.45-2.14-4.92-5.42-4.92-3.95,0-5.33,1.34-5.33,3.36s1.01,2.86,3.91,3.4l4.03.76c4.12.76,6.09,1.93,6.09,5.59,0,4.58-4.12,6.55-8.78,6.55-7.31,0-8.99-3.28-8.99-6.97Z"></path><path class="cls-5" d="m639.64,2631.97h-15.96c.17,4.79,2.48,7.48,6.93,7.48,3.82,0,5.67-1.43,5.97-4.83h2.98c-.29,4.24-3.28,7.39-9.03,7.39-7.06,0-9.83-4.66-9.83-10.88s3.23-11.22,10-11.22,8.95,3.99,8.95,10.21v1.85Zm-3.11-2.98c0-4.45-1.72-6.55-5.92-6.55s-6.55,2.65-6.89,6.97h12.81v-.42Z"></path><path class="cls-5" d="m655.18,2608.69h2.94v15.17c1.05-2.1,3.28-3.95,7.31-3.95,4.75,0,7.77,2.52,7.77,7.94v13.61h-2.94v-13.27c0-4.33-2.14-5.71-5.5-5.71-3.82,0-6.64,2.69-6.64,5.63v13.36h-2.94v-32.77Z"></path><path class="cls-5" d="m697.81,2631.97h-15.96c.17,4.79,2.48,7.48,6.93,7.48,3.82,0,5.67-1.43,5.97-4.83h2.98c-.29,4.24-3.28,7.39-9.03,7.39-7.06,0-9.83-4.66-9.83-10.88s3.23-11.22,10-11.22,8.95,3.99,8.95,10.21v1.85Zm-3.11-2.98c0-4.45-1.72-6.55-5.92-6.55s-6.55,2.65-6.89,6.97h12.81v-.42Z"></path><path class="cls-5" d="m703.69,2608.69h2.98v6.51h-2.98v-6.51Zm0,11.76h2.94v21h-2.94v-21Z"></path><path class="cls-5" d="m713.39,2643.27v-.12h3.11v.12c0,2.9,1.93,4.33,6.13,4.33,4.79,0,7.01-2.94,7.01-7.86v-2.1h-.08c-1.09,2.19-3.65,4.08-7.48,4.08-6.3,0-9.75-3.99-9.75-10.71,0-7.1,4.37-11.09,9.96-11.09,3.78,0,6.55,1.81,7.56,4.12h.13l.29-3.57h2.31v19.16c0,5.88-2.81,10.71-10.33,10.71-6.3,0-8.86-2.98-8.86-7.06Zm16.59-12.77c0-5.5-3.36-8.07-7.35-8.07-3.03,0-7.14,1.47-7.14,8.4s3.57,8.32,7.1,8.32c4.24,0,7.39-2.73,7.39-8.65Z"></path><path class="cls-5" d="m739.93,2608.69h2.94v15.17c1.05-2.1,3.28-3.95,7.31-3.95,4.75,0,7.77,2.52,7.77,7.94v13.61h-2.94v-13.27c0-4.33-2.14-5.71-5.5-5.71-3.82,0-6.64,2.69-6.64,5.63v13.36h-2.94v-32.77Z"></path><path class="cls-5" d="m776.26,2638.77v2.6c-.76.21-2.14.59-4.03.59-3.82,0-6.34-1.6-6.34-6.89v-12.18h-4.16v-2.44h4.16v-6.05l2.94-1.43v7.48h5.92v2.44h-5.92v11.8c0,2.81.76,4.58,3.4,4.58,1.6,0,3.23-.29,4.03-.5Z"></path><path class="cls-5" d="m649.9,1760.99c0-12.01,6.76-17.27,14.74-17.27,6.97,0,12.39,3.74,12.39,12.01v.8h-2.86v-.92c0-5.92-3.78-9.24-9.45-9.24-6.72,0-11.76,4.58-11.76,14.33s5.04,14.24,11.72,14.24c5.38,0,9.54-2.86,9.54-9.2v-.59h2.77v.42c0,8.02-5.33,12.01-12.56,12.01-7.98,0-14.53-4.87-14.53-16.59Z"></path><path class="cls-5" d="m682.91,1769.64v-13.61h2.94v13.27c0,4.33,2.14,5.71,5.42,5.71,3.74,0,6.55-2.69,6.55-5.63v-13.36h2.94v21h-2.6l-.25-3.36h-.08c-.97,2.02-3.23,3.91-7.23,3.91-4.66,0-7.69-2.52-7.69-7.94Z"></path><path class="cls-5" d="m708.11,1756.03h2.6l.29,3.91c1.01-2.14,3.07-4.45,6.76-4.45,1.26,0,2.18.21,3.02.55v3.15c-1.13-.5-2.1-.76-3.4-.76-3.74,0-6.34,2.81-6.34,5.75v12.85h-2.94v-21Z"></path><path class="cls-5" d="m723.31,1770.61v-1.18h2.94v1.13c0,2.86,2.14,4.5,5.96,4.5s5.8-1.01,5.8-3.78c0-2.06-1.01-2.81-3.86-3.32l-4.62-.84c-3.02-.55-5.54-2.02-5.54-5.5,0-3.15,2.35-6.13,8.4-6.13s8.4,3.02,8.4,7.22v.88h-2.98v-.76c0-3.44-2.14-4.91-5.42-4.91-3.95,0-5.33,1.34-5.33,3.36s1.01,2.86,3.91,3.4l4.03.76c4.12.76,6.09,1.93,6.09,5.59,0,4.58-4.12,6.55-8.78,6.55-7.31,0-8.99-3.28-8.99-6.97Z"></path><path class="cls-5" d="m746.96,1744.27h2.98v6.51h-2.98v-6.51Zm0,11.76h2.94v21h-2.94v-21Z"></path><path class="cls-5" d="m754.14,1756.07v-.04h3.36l7.35,17.98h.08l7.1-17.98h3.07v.04l-8.74,20.96h-3.02l-9.2-20.96Z"></path><path class="cls-5" d="m795.93,1767.54h-15.96c.17,4.79,2.48,7.48,6.93,7.48,3.82,0,5.67-1.43,5.97-4.83h2.98c-.29,4.24-3.28,7.39-9.03,7.39-7.06,0-9.83-4.66-9.83-10.88s3.23-11.22,10-11.22,8.95,3.99,8.95,10.21v1.85Zm-3.11-2.98c0-4.45-1.72-6.55-5.92-6.55s-6.55,2.65-6.89,6.97h12.81v-.42Z"></path><path class="cls-5" d="m813.15,1754.73h-3.36v-5.08c0-3.95.88-5.29,3.4-5.97l.67,1.85c-1.76.67-2.06,1.09-2.06,3.78v.34h1.34v5.08Zm5.92,0h-3.36v-5.08c0-3.95.88-5.29,3.4-5.97l.67,1.85c-1.76.67-2.06,1.09-2.06,3.78v.34h1.34v5.08Z"></path><path class="cls-5" d="m823.15,1774.47l14.7-15.88h-14.58v-2.56h18.23v2.56l-14.7,15.84h14.66v2.6h-18.31v-2.56Z"></path><path class="cls-5" d="m844.86,1753.47c1.76-.67,2.06-1.09,2.06-3.78v-.34h-1.34v-5.08h3.36v5.08c0,3.95-.88,5.29-3.4,5.97l-.67-1.85Zm5.92,0c1.76-.67,2.06-1.09,2.06-3.78v-.34h-1.34v-5.08h3.36v5.08c0,3.95-.88,5.29-3.4,5.97l-.67-1.85Z"></path><path class="cls-5" d="m867.67,1756.07v-.04h2.98l5.75,17.47h.08l6.3-17.47h2.69l6.17,17.47h.08l5.75-17.47h2.86v.04l-7.18,20.96h-3.02l-5.96-17.06h-.08l-6.22,17.06h-3.02l-7.18-20.96Z"></path><path class="cls-5" d="m905.17,1744.27h2.98v6.51h-2.98v-6.51Zm0,11.76h2.94v21h-2.94v-21Z"></path><path class="cls-5" d="m926.47,1774.34v2.6c-.76.21-2.14.59-4.03.59-3.82,0-6.34-1.6-6.34-6.89v-12.18h-4.16v-2.44h4.16v-6.05l2.94-1.43v7.48h5.92v2.44h-5.92v11.8c0,2.81.76,4.58,3.4,4.58,1.6,0,3.23-.29,4.03-.5Z"></path><path class="cls-5" d="m931.29,1744.27h2.94v15.16c1.05-2.1,3.28-3.95,7.31-3.95,4.75,0,7.77,2.52,7.77,7.94v13.61h-2.94v-13.27c0-4.33-2.14-5.71-5.5-5.71-3.82,0-6.64,2.69-6.64,5.63v13.36h-2.94v-32.77Z"></path><path class="cls-5" d="m638.68,1815.42c0-7.1,4.28-11.09,10.04-11.09,3.7,0,6.22,1.6,7.31,3.74h.04v-14.96h2.94v32.77h-1.97l-.67-3.61h-.08c-1.18,2.31-3.95,4.16-7.77,4.16-6.3,0-9.83-3.99-9.83-11.01Zm17.64-.5c0-5.5-3.36-8.07-7.35-8.07-3.11,0-7.14,1.47-7.14,8.4s3.61,8.61,7.14,8.61c4.24,0,7.35-2.73,7.35-8.95Z"></path><path class="cls-5" d="m683.62,1816.39h-15.96c.17,4.79,2.48,7.48,6.93,7.48,3.82,0,5.67-1.43,5.97-4.83h2.98c-.29,4.24-3.28,7.39-9.03,7.39-7.06,0-9.83-4.66-9.83-10.88s3.23-11.22,10-11.22,8.95,3.99,8.95,10.21v1.85Zm-3.11-2.98c0-4.45-1.72-6.55-5.92-6.55s-6.55,2.65-6.89,6.97h12.81v-.42Z"></path><path class="cls-5" d="m687.61,1819.45v-1.18h2.94v1.13c0,2.86,2.14,4.5,5.96,4.5s5.8-1.01,5.8-3.78c0-2.06-1.01-2.81-3.86-3.32l-4.62-.84c-3.02-.55-5.54-2.02-5.54-5.5,0-3.15,2.35-6.13,8.4-6.13s8.4,3.02,8.4,7.23v.88h-2.98v-.76c0-3.44-2.14-4.92-5.42-4.92-3.95,0-5.33,1.34-5.33,3.36s1.01,2.86,3.91,3.4l4.03.76c4.12.76,6.09,1.93,6.09,5.59,0,4.58-4.12,6.55-8.78,6.55-7.31,0-8.99-3.28-8.99-6.97Z"></path><path class="cls-5" d="m709.58,1815.54c0-6.38,3.23-11.22,10-11.22s8.95,3.91,8.95,8.95v.42h-3.11v-.63c0-3.82-1.64-6.09-5.84-6.09-4.75,0-7.01,3.11-7.01,8.4,0,5.63,2.39,8.49,6.93,8.49,3.82,0,5.84-1.85,5.92-5.67h3.02c-.08,4.66-3.15,8.23-9.03,8.23-7.22,0-9.83-4.75-9.83-10.88Z"></path><path class="cls-5" d="m751.67,1816.39h-15.96c.17,4.79,2.48,7.48,6.93,7.48,3.82,0,5.67-1.43,5.97-4.83h2.98c-.29,4.24-3.28,7.39-9.03,7.39-7.06,0-9.83-4.66-9.83-10.88s3.23-11.22,10-11.22,8.95,3.99,8.95,10.21v1.85Zm-3.11-2.98c0-4.45-1.72-6.55-5.92-6.55s-6.55,2.65-6.89,6.97h12.81v-.42Z"></path><path class="cls-5" d="m757.54,1804.88h2.6l.29,3.49c1.01-2.14,3.28-4.03,7.35-4.03,4.75,0,7.77,2.52,7.77,7.94v13.61h-2.94v-13.27c0-4.33-2.14-5.71-5.5-5.71-3.82,0-6.64,2.69-6.64,5.63v13.36h-2.94v-21Z"></path><path class="cls-5" d="m781.23,1815.42c0-7.1,4.28-11.09,10.04-11.09,3.7,0,6.22,1.6,7.31,3.74h.04v-14.96h2.94v32.77h-1.97l-.67-3.61h-.08c-1.18,2.31-3.95,4.16-7.77,4.16-6.3,0-9.83-3.99-9.83-11.01Zm17.64-.5c0-5.5-3.36-8.07-7.35-8.07-3.11,0-7.14,1.47-7.14,8.4s3.61,8.61,7.14,8.61c4.24,0,7.35-2.73,7.35-8.95Z"></path><path class="cls-5" d="m808.91,1793.11h2.98v6.51h-2.98v-6.51Zm0,11.76h2.94v21h-2.94v-21Z"></path><path class="cls-5" d="m819.24,1804.88h2.6l.29,3.49c1.01-2.14,3.28-4.03,7.35-4.03,4.75,0,7.77,2.52,7.77,7.94v13.61h-2.94v-13.27c0-4.33-2.14-5.71-5.5-5.71-3.82,0-6.64,2.69-6.64,5.63v13.36h-2.94v-21Z"></path><path class="cls-5" d="m843.98,1827.69v-.13h3.11v.13c0,2.9,1.93,4.33,6.13,4.33,4.79,0,7.01-2.94,7.01-7.86v-2.1h-.08c-1.09,2.18-3.65,4.07-7.48,4.07-6.3,0-9.75-3.99-9.75-10.71,0-7.1,4.37-11.09,9.96-11.09,3.78,0,6.55,1.81,7.56,4.12h.13l.29-3.57h2.31v19.16c0,5.88-2.81,10.71-10.33,10.71-6.3,0-8.86-2.98-8.86-7.06Zm16.59-12.77c0-5.5-3.36-8.07-7.35-8.07-3.03,0-7.14,1.47-7.14,8.4s3.57,8.32,7.1,8.32c4.24,0,7.39-2.73,7.39-8.65Z"></path><path class="cls-5" d="m880.18,1793.11h2.94v32.77h-2.94v-32.77Z"></path><path class="cls-5" d="m888.79,1815.38c0-6.22,3.32-11.05,10.38-11.05,6.59,0,10.25,4.83,10.25,11.05s-3.7,11.05-10.29,11.05c-7.27,0-10.33-4.83-10.33-11.05Zm17.56,0c0-5.33-2.9-8.49-7.22-8.49-4.75,0-7.27,3.15-7.27,8.49s2.56,8.49,7.27,8.49c4.33,0,7.22-3.15,7.22-8.49Z"></path><path class="cls-5" d="m913.61,1815.38c0-6.22,3.32-11.05,10.38-11.05,6.59,0,10.25,4.83,10.25,11.05s-3.7,11.05-10.29,11.05c-7.27,0-10.33-4.83-10.33-11.05Zm17.56,0c0-5.33-2.9-8.49-7.22-8.49-4.75,0-7.27,3.15-7.27,8.49s2.56,8.49,7.27,8.49c4.33,0,7.22-3.15,7.22-8.49Z"></path><path class="cls-5" d="m940.12,1804.88h2.39l.34,3.87h.08c1.13-2.48,4.03-4.41,7.86-4.41,6.3,0,9.66,3.99,9.66,11.01s-4.29,11.09-9.87,11.09c-3.78,0-6.38-1.6-7.43-3.7h-.08v11.55h-2.94v-29.41Zm17.18,10.63c0-7.18-3.4-8.61-6.93-8.61-4.24,0-7.56,2.73-7.56,8.44,0,6.01,3.45,8.57,7.44,8.57,3.02,0,7.06-1.47,7.06-8.4Z"></path><line class="cls-2" x1="665.95" y1="847.93" x2="664.77" y2="733.37"></line><line class="cls-2" x1="569.34" y1="1063.07" x2="568.16" y2="948.51"></line><circle class="cls-7" cx="1379.31" cy="1561.89" r="83.58"></circle><circle class="cls-7" cx="1134.22" cy="2022.13" r="96.56"></circle><path class="cls-5" d="m606.01,2855.31c.88-6.21,4.43-9.32,10.66-9.32,4,0,7.1,1.23,9.32,3.66,2.22,2.45,3.33,4.99,3.33,7.66,0,.9-.11,1.56-.33,2-.23.45-.33.9-.33,1.33l-41.96,191.8c5.76,1.33,11.87,2.23,18.31,2.66,6.43.45,13.2.67,20.31.67,12.42,0,26.31-.67,41.62-2,15.32-1.33,32.07-3.77,50.28-7.33l41.96-191.13c.88-6.21,4.21-9.32,9.99-9.32,4.43,0,7.66,1.23,9.66,3.66,2,2.45,3,4.78,3,6.99v4l-39.29,180.48c11.99-1.77,23.75-4.21,35.3-7.33,11.54-3.1,23.08-6.21,34.63-9.32.44-.44,2-.67,4.66-.67s5.1,1.11,7.33,3.33c2.22,2.23,3.33,5.11,3.33,8.66,0,5.77-2.89,9.32-8.66,10.66-14.65,4.44-28.75,8.32-42.29,11.65-13.55,3.33-26.75,6.11-39.63,8.32l-28.64,131.86c-1.78,6.66-5.11,9.99-9.99,9.99-9.32,0-13.98-3.55-13.98-10.66,0-2.22.22-3.55.67-4l26.64-122.54c-16.88,3.56-32.41,5.78-46.62,6.66-14.21.9-26.87,1.33-37.96,1.33-8.89,0-17.21-.33-24.97-1-7.77-.67-14.77-1.67-20.98-3l-26.64,123.2c-1.33,6.66-4.44,9.99-9.32,9.99-9.32,0-13.99-3.55-13.99-10.66,0-2.22.22-3.55.67-4l27.3-125.2c-3.56-1.33-7.11-3.1-10.66-5.33-3.56-2.22-6.89-4.43-9.99-6.66-3.11-2.22-5.66-4.66-7.66-7.33s-3-5.33-3-7.99,1.22-5.21,3.66-7.66c2.43-2.43,5.43-3.66,8.99-3.66,1.77,0,3.43.56,4.99,1.67,1.55,1.11,3.33,2.56,5.33,4.33,2,1.78,4,3.44,5.99,4.99,2,1.56,4.55,2.78,7.66,3.66l41.29-189.14Z"></path><path class="cls-5" d="m1040.88,3028.46c3.1-3.55,5.99-5.33,8.66-5.33s5.55,1.33,8.66,4c3.1,2.66,4.66,5.56,4.66,8.66,0,2.66-1.11,4.89-3.33,6.66l-106.55,139.19c-12.44,16.88-25.75,25.31-39.96,25.31-7.55,0-13.55-2.66-17.98-7.99-4.44-5.33-6.66-11.99-6.66-19.98,0-5.76.88-11.54,2.66-17.32-19.98,29.3-42.4,43.95-67.26,43.95-7.55,0-14.43-1.44-20.64-4.33-6.22-2.88-11.77-7.21-16.65-12.99-4.89-5.76-8.77-12.76-11.65-20.98-2.88-8.21-4.33-17.87-4.33-28.97,0-15.09,2.33-30.07,6.99-44.95,4.66-14.87,11.09-28.41,19.31-40.62,8.21-12.21,17.65-22.08,28.3-29.64,10.66-7.54,22.2-11.32,34.63-11.32,10.21,0,19.98,2.11,29.3,6.33,9.32,4.22,18.65,11.65,27.97,22.31,0-1.33.22-3.33.67-5.99.44-2.66,1.1-5.43,2-8.32.88-2.88,2.22-5.43,4-7.66,1.77-2.22,4-3.33,6.66-3.33,4.43,0,7.66,1,9.66,3s3,4.33,3,6.99v4.66l-29.97,139.19c-.9,3.56-1.11,6.89-.67,9.99,0,2.23.88,3.56,2.66,4,1.77.45,4.43-.88,7.99-4,3.55-3.1,7.33-7.1,11.32-11.99l106.55-138.52Zm-139.19,61.27c1.77-4.43,3.1-7.88,4-10.32.88-2.43,1.77-5.21,2.66-8.32-4.44-10.66-11.22-19.2-20.31-25.64-9.1-6.43-18.1-9.66-26.97-9.66-13.32,0-24.76,4.78-34.3,14.32-9.55,9.55-17.65,23.64-24.31,42.29-5.78,16.43-8.66,31.75-8.66,45.95,0,5.33.67,10.77,2,16.32,1.33,5.56,3.22,10.32,5.66,14.32,2.43,4,5.43,7.11,8.99,9.32,3.55,2.23,7.54,3.33,11.99,3.33,8.43,0,16.54-2.77,24.31-8.32,7.76-5.55,14.98-12.76,21.64-21.64,6.66-8.88,12.87-18.75,18.65-29.64,5.76-10.87,10.66-21.64,14.65-32.3Z"></path><path class="cls-5" d="m1040.88,3030.46l-1.33-4.66c0-2.66,1.22-5.1,3.66-7.33,2.43-2.22,5.88-3.33,10.32-3.33,4.88,0,8.21,3.11,9.99,9.32.44,6.66,1,13.77,1.67,21.31.67,7.55,1.67,14.98,3,22.31,1.33,7.33,3.1,14.21,5.33,20.64,2.22,6.44,5.33,12.1,9.32,16.98,3.1-2.22,7.1-5.33,11.99-9.32,4.88-4,10.21-8.1,15.98-12.32,5.76-4.21,11.32-8.54,16.65-12.99,5.33-4.43,9.99-8.21,13.99-11.32l31.3-29.97c2.66-3.55,5.55-5.33,8.66-5.33s6.1,1.33,8.99,4c2.88,2.66,4.33,5.11,4.33,7.33s-1.11,4.89-3.33,7.99l-33.3,28.64c-8.44,7.55-15.55,13.88-21.31,18.98-5.78,5.11-10.88,9.55-15.32,13.32-4.44,3.78-8.44,7.22-11.99,10.32-3.56,3.11-7.55,6.22-11.99,9.32,11.99,15.98,17.98,31.08,17.98,45.29,0,12.88-4.66,23.54-13.99,31.97-9.32,8.44-22.42,12.65-39.29,12.65-11.1,0-20.21-2.55-27.3-7.66-7.11-5.1-10.66-13.21-10.66-24.31,0-19.98,13.32-40.62,39.96-61.94-7.99-10.66-13.43-23.08-16.32-37.29-2.89-14.2-5.22-31.74-6.99-52.61Zm50.61,139.19c0-8.43-4.22-18.87-12.65-31.3-10.66,9.32-18.65,17.54-23.97,24.64-5.33,7.11-7.99,13.55-7.99,19.31,0,3.11,1.44,5.33,4.33,6.66,2.88,1.33,6.33,2,10.32,2,19.98,0,29.97-7.1,29.97-21.31Z"></path><path class="cls-7" d="m1234.85,3198.28c-1.33,6.66-4.66,9.99-9.99,9.99-7.55,0-11.88-1.67-12.99-5-1.11-3.33-1.23-6.55-.33-9.66l8.66-39.96c-6.66-3.1-12.44-7.21-17.32-12.32-4.89-5.1-7.33-11.43-7.33-18.98,0-2.22,1.1-4.55,3.33-6.99,2.22-2.43,5.33-3.66,9.32-3.66,2.22,0,4,.78,5.33,2.33,1.33,1.56,2.55,3.23,3.66,4.99,1.1,1.78,2.22,3.66,3.33,5.66,1.1,2,2.77,3.44,4.99,4.33l47.95-220.44-82.58,137.86c-2.66,3.56-5.56,5.33-8.66,5.33s-5.99-1.33-8.66-4c-2.66-2.66-4-5.55-4-8.66,0-2.22.88-4.66,2.66-7.33l115.21-180.48c2.22-3.1,5.55-4.66,9.99-4.66,4,0,7.1,1.11,9.32,3.33,2.22,2.23,2.88,5.78,2,10.66l-59.94,275.04h.67c17.75,0,38.4-7.21,61.94-21.64,23.53-14.42,47.06-36.73,70.59-66.93l13.99-18.65c2.66-3.55,5.55-5.33,8.66-5.33,4.43,0,7.76,1.11,9.99,3.33,2.22,2.23,3.33,5.33,3.33,9.32-.45,2.66-1.56,4.89-3.33,6.66l-13.99,19.31c-13.32,16.88-26.75,31.53-40.29,43.95-13.55,12.44-26.87,22.64-39.96,30.63-13.1,7.99-25.64,13.88-37.63,17.65-11.99,3.78-23.09,5.66-33.3,5.66h-5.99l-8.66,38.63Z"></path><path class="cls-7" d="m357.29,2046.2c-1.76,6.16-5.28,9.24-10.56,9.24-4.4,0-7.7-.99-9.9-2.97-2.21-1.98-3.3-4.29-3.3-6.93,0-10.99,3.18-21.21,9.56-30.68,6.37-9.45,14.4-17.58,24.08-24.41,9.67-6.81,20.22-12.42,31.66-16.82,11.43-4.39,22.2-6.6,32.32-6.6,21.11,0,37.27,6.27,48.49,18.8,11.21,12.53,16.82,29.8,16.82,51.79-1.76,22-7.37,40.8-16.82,56.4-9.46,15.62-21.67,27.16-36.61,34.63,9.67,7.04,17.91,16.16,24.74,27.38,6.81,11.21,10.23,25.62,10.23,43.21-.44,13.19-2.87,26.94-7.26,41.23-4.4,14.3-11,28.04-19.79,41.23-8.8,12.76-21.11,23.09-36.94,31-15.83,7.92-33.21,11.87-52.11,11.87-8.36,0-16.06-1.42-23.09-4.29-7.04-2.85-13.19-6.93-18.47-12.2-5.28-5.28-9.46-11.43-12.53-18.47-3.08-7.03-4.62-14.73-4.62-23.09,0-6.15.88-12.2,2.64-18.14,1.75-5.94,5.28-8.91,10.55-8.91,3.96,0,7.14,1.22,9.57,3.63,2.41,2.42,3.63,4.73,3.63,6.93,0,2.64-.44,5.28-1.32,7.92-.89,2.64-1.32,5.5-1.32,8.58,0,11.44,3.63,20.02,10.89,25.73,7.26,5.72,15.94,8.58,26.06,8.58,11.87,0,23.96-2.64,36.28-7.92,12.31-5.28,22.2-12.75,29.69-22.43,7.92-9.24,13.96-20.22,18.14-32.98,4.18-12.75,6.27-26.82,6.27-42.22,0-16.27-4.73-29.46-14.18-39.58-9.46-10.11-22.33-15.17-38.59-15.17-7.48,0-11.21-4.18-11.21-12.53,0-6.15,3.3-9.67,9.9-10.55,10.56-.88,20.22-3.51,29.03-7.92,8.79-4.39,16.38-10.11,22.76-17.15,6.37-7.03,11.43-15.39,15.17-25.07,3.73-9.67,5.61-20.67,5.61-32.98,0-14.07-3.41-24.74-10.22-31.99-6.82-7.26-17.71-10.89-32.65-10.89-8.36,0-16.61,1.43-24.74,4.29-8.14,2.87-15.5,6.82-22.1,11.87-6.6,5.06-12.1,11-16.49,17.81-4.4,6.82-7.48,13.75-9.24,20.78Z"></path><path class="cls-5" d="m877.12,2022.49c.88,2.21,1.32,3.96,1.32,5.28,0,2.64-1.32,5.06-3.96,7.26-2.64,2.21-5.94,3.3-9.9,3.3-2.64,0-4.62-.55-5.94-1.65-1.32-1.09-2.42-3.19-3.3-6.27-4.84-12.75-11.77-22.2-20.78-28.37-9.02-6.15-19.03-9.24-30.02-9.24-7.92,0-15.73,1.76-23.42,5.28-7.7,3.52-14.51,9.02-20.45,16.49-5.94,7.48-10.78,16.61-14.51,27.38-3.74,10.78-5.61,22.99-5.61,36.61s2.64,26.39,7.92,36.94c5.28,10.55,11.87,17.81,19.79,21.77,5.28,2.21,7.92,5.28,7.92,9.24s-1.32,7.04-3.96,9.24c-2.64,2.21-5.5,3.3-8.58,3.3-10.55,0-20.23,2.42-29.03,7.26-8.8,4.84-16.39,11.33-22.76,19.46-6.38,8.14-11.33,17.81-14.84,29.03-3.52,11.21-5.28,23.42-5.28,36.61,0,16.72,3.18,29.58,9.56,38.59,6.37,9.02,15.5,13.52,27.38,13.52h.66c11.87,0,21.77-1.32,29.69-3.96,7.92-2.64,14.95-6.48,21.11-11.54,6.15-5.05,11.87-10.99,17.15-17.81,5.28-6.81,11.21-14.62,17.81-23.42l75.2-97.63c2.64-3.51,5.49-5.28,8.58-5.28,2.64,0,5.38,1.32,8.25,3.96,2.86,2.64,4.29,5.5,4.29,8.58s-.89,5.5-2.64,7.26l-74.54,96.97c-7.92,10.12-15.07,19.24-21.44,27.38-6.38,8.14-13.19,15.07-20.45,20.78-7.26,5.72-15.83,10.12-25.73,13.19-9.9,3.08-22.33,4.62-37.27,4.62h-.66c-18.04,0-32.55-6.48-43.54-19.46-11-12.97-16.49-31.55-16.49-55.74,0-12.31,1.42-24.41,4.29-36.28,2.86-11.87,7.14-22.65,12.86-32.32,5.71-9.67,12.86-18.24,21.44-25.73,8.58-7.47,18.36-12.97,29.36-16.49-6.6-7.47-11.44-16.71-14.51-27.71-3.08-10.99-4.62-22.43-4.62-34.3,0-15.39,2.2-29.79,6.6-43.21,4.39-13.41,10.55-24.95,18.47-34.63,7.92-9.67,17.04-17.37,27.38-23.09,10.33-5.71,21.66-8.58,33.97-8.58,16.27,0,30.89,4.4,43.87,13.19,12.97,8.8,22.76,22.21,29.36,40.24Z"></path><path class="cls-5" d="m1003.11,2031.73c-7.48,14.51-18.47,32.11-32.98,52.77-14.51,20.68-31.66,43.77-51.46,69.27-5.28,22-9.79,42.88-13.52,62.67-3.74,19.79-5.61,36.28-5.61,49.48,0,14.51,1.42,24.41,4.29,29.69,2.86,5.28,7.8,7.92,14.84,7.92,8.35,0,16.59-2.64,24.74-7.92,8.13-5.28,15.06-10.99,20.78-17.15l98.95-129.96c2.64-3.51,5.71-5.28,9.24-5.28,3.07,0,5.94,1.55,8.58,4.62,2.64,3.08,3.96,5.94,3.96,8.58,0,2.21-.89,4.4-2.64,6.6l-99.61,129.3c-3.53,4.84-7.81,9.35-12.86,13.52-5.06,4.18-10.34,7.92-15.83,11.21-5.5,3.3-11.21,5.83-17.15,7.59-5.94,1.76-11.54,2.64-16.82,2.64-29.03,0-43.54-20.45-43.54-61.35,0-14.51,1.65-31.88,4.95-52.12,3.3-20.22,7.69-41.12,13.19-62.67,5.49-21.54,11.76-42.88,18.8-63.99,7.03-21.11,14.51-40.24,22.43-57.39,7.92-17.15,16.16-31.22,24.74-42.22,8.58-10.99,16.38-17.15,23.42-18.47h3.96c18.9.44,28.37,8.36,28.37,23.75,0,9.68-4.4,22.66-13.19,38.92Zm-66.63,58.71c8.35-10.55,15.83-20.55,22.43-30.02,6.6-9.45,12.31-18.36,17.15-26.72,4.83-8.35,8.68-15.5,11.54-21.44,2.85-5.94,4.29-10.66,4.29-14.18s-1.76-5.28-5.28-5.28c-3.53.44-7.26,3.41-11.21,8.91-3.96,5.5-8.14,12.65-12.53,21.44-4.4,8.8-8.8,19.03-13.19,30.68-4.4,11.66-8.8,23.86-13.19,36.61Z"></path><path class="cls-5" d="m1063.14,2255.36h.66c17.58,0,37.82-7.14,60.69-21.44,22.86-14.29,46.61-36.39,71.25-66.3l13.85-18.47c2.2-3.51,5.05-5.28,8.58-5.28,3.07,0,6.04,1.32,8.91,3.96,2.86,2.64,4.29,5.5,4.29,8.58,0,2.64-1.1,4.84-3.3,6.6l-14.51,19.13c-13.19,16.72-26.5,31.23-39.91,43.54-13.42,12.32-26.5,22.43-39.25,30.35-12.76,7.92-25.18,13.75-37.27,17.48-12.1,3.74-23.2,5.61-33.31,5.61h-5.94l-44.86,205.16c-1.32,6.6-4.39,9.9-9.24,9.9-4.39,0-7.8-1.1-10.22-3.3-2.41-2.21-3.63-4.84-3.63-7.92,0-1.76.23-2.87.66-3.3l44.86-206.48c-2.21-.88-4.84-2.41-7.92-4.62-3.08-2.2-5.94-4.62-8.58-7.26-2.64-2.64-4.72-5.61-6.27-8.91-1.54-3.3-2.31-6.48-2.31-9.57,0-2.2,1.1-4.62,3.3-7.26,2.21-2.64,5.49-3.96,9.9-3.96,2.2,0,3.84.77,4.95,2.31,1.09,1.55,2.31,3.08,3.63,4.62,1.32,1.55,2.64,3.3,3.96,5.28,1.32,1.98,2.85,3.63,4.62,4.95l23.09-103.57c7.03-32.98,13.96-60.79,20.78-83.45,6.81-22.65,13.74-40.79,20.78-54.42,7.03-13.63,14.62-23.52,22.76-29.69,8.13-6.15,16.82-9.24,26.06-9.24,19.35,0,29.03,7.7,29.03,23.09,0,14.51-8.47,34.86-25.4,61.02-16.94,26.17-40.8,59.7-71.58,100.6l-23.09,102.25Zm36.28-158.98c18.9-25.94,33.53-47.5,43.87-64.65,10.33-17.15,15.5-28.58,15.5-34.3,0-3.51-1.55-5.28-4.62-5.28-18.04,0-36.28,34.75-54.75,104.23Z"></path><path class="cls-7" d="m1035.43,2273.17c-2.21-.88-4.84-2.41-7.92-4.62-3.08-2.2-5.94-4.62-8.58-7.26-2.64-2.64-4.72-5.61-6.27-8.91-1.54-3.3-2.31-6.48-2.31-9.57,0-2.2,1.1-4.62,3.3-7.26,2.21-2.64,5.49-3.96,9.9-3.96,2.2,0,3.84.77,4.95,2.31,1.09,1.55,2.31,3.08,3.63,4.62,1.32,1.55,2.64,3.3,3.96,5.28,1.32,1.98,2.85,3.63,4.62,4.95l22.43,6.6h.66c17.58,0,37.82-7.14,60.69-21.44,22.86-14.29,46.61-36.39,71.25-66.3l13.85-18.47c2.2-3.51,5.05-5.28,8.58-5.28,3.07,0,6.04,1.32,8.91,3.96,2.86,2.64,4.29,5.5,4.29,8.58,0,2.64-1.1,4.84-3.3,6.6l-14.51,19.13c-13.19,16.72-26.5,31.23-39.91,43.54-13.42,12.32-26.5,22.43-39.25,30.35-12.76,7.92-25.18,13.75-37.27,17.48-12.1,3.74-23.2,5.61-33.31,5.61h-5.94l-22.43-5.94Z"></path><path class="cls-6" d="m795.28,256.38c.44,1.33.67,2.45.67,3.34v2c0,2.67-1.12,5.12-3.34,7.34-2.23,2.23-5.57,3.34-10.01,3.34-4,0-7.12-2.67-9.34-8.01-4.9-12.9-12.24-22.46-22.02-28.7-9.79-6.23-21.14-9.34-34.03-9.34-11.13,0-23.02,2.9-35.7,8.68-12.68,5.79-24.81,14.91-36.37,27.36-11.57,12.46-22.25,28.92-32.03,49.38-9.79,20.47-17.35,45.16-22.69,74.07-6.24,31.15-9.34,58.06-9.34,80.75,0,49.38,13.57,74.07,40.71,74.07,4.44,0,9.01-.89,13.68-2.67,4.67-1.77,9.45-4.44,14.35-8.01,4.89-3.56,10.23-8.45,16.02-14.68,5.78-6.22,12.23-14.01,19.35-23.36l80.75-115.45c2.67-3.56,5.78-5.34,9.34-5.34,3.11,0,5.89,1.23,8.34,3.67,2.44,2.45,3.67,5.23,3.67,8.34v2.67l-19.35,88.76,68.74-90.09c2.67-3.56,5.56-5.34,8.68-5.34s6.11,1.45,9.01,4.34c2.89,2.9,4.34,5.67,4.34,8.34s-1.12,4.9-3.34,6.67l-99.43,130.8-31.36,143.48c-2.67,10.23-6.24,19.02-10.68,26.36-4.45,7.34-9.46,13.45-15.01,18.35-5.57,4.89-11.46,8.34-17.68,10.34-6.24,2-12.01,3-17.35,3-11.57,0-21.14-3.9-28.7-11.68-7.57-7.79-11.34-17.68-11.34-29.7,0-8.46,1.89-17.58,5.67-27.36,3.77-9.79,10.34-20.69,19.69-32.7l84.75-110.78,18.02-80.75-48.05,68.74c-15.13,20.92-29.03,35.7-41.71,44.38-12.68,8.68-26.14,13.01-40.37,13.01-20.92,0-36.93-8.34-48.05-25.02-11.13-16.68-16.68-40.81-16.68-72.41,0-12.01.89-25.24,2.67-39.71,1.77-14.45,4.44-29.92,8.01-46.38,6.22-32.92,15.02-60.73,26.36-83.42,11.34-22.69,23.79-41.04,37.37-55.05,13.57-14.01,27.8-24.13,42.71-30.36,14.9-6.23,29.25-9.34,43.04-9.34,19.57,0,35.81,4.79,48.72,14.35,12.9,9.57,22.69,22.8,29.36,39.71Zm-72.74,316.32l-54.72,71.4c-13.8,17.79-20.69,32.47-20.69,44.04,0,4.89,1.22,9.34,3.67,13.35,2.44,4,7.01,6.01,13.68,6.01,7.11,0,14.23-3.23,21.35-9.68,7.11-6.45,12.23-16.35,15.35-29.7l21.35-95.43Z"></path><path class="cls-5" d="m837.99,380.51c1.33-6.22,4.89-9.34,10.68-9.34,4.44,0,7.78,1.12,10.01,3.34,2.22,2.23,3.34,4.9,3.34,8.01,0,.45-.11,1-.33,1.67-.23.67-.33,1.23-.33,1.67l-6.67,30.03c4-5.34,8.68-10.68,14.01-16.02,5.34-5.34,11.12-10.11,17.35-14.35,6.22-4.22,12.45-7.67,18.69-10.34,6.22-2.67,12.45-4,18.69-4,2.67,0,5.22,1.12,7.67,3.34,2.44,2.23,3.67,5.34,3.67,9.34,0,1.33-.33,3-1,5-.67,2-1,3.67-1,5,0,3.12,1.33,6.24,4,9.34,2.67,3.12,8.45,4.67,17.35,4.67,4.89,0,10.01-.55,15.35-1.67,5.34-1.11,10.56-2.67,15.68-4.67,5.11-2,9.78-4.44,14.01-7.34,4.22-2.89,7.67-6.11,10.34-9.68,2.67-3.56,5.56-5.34,8.68-5.34s6.11,1.45,9.01,4.34c2.89,2.9,4.34,5.67,4.34,8.34,0,6.67-3.45,12.46-10.34,17.35-6.9,4.9-14.91,9.12-24.02,12.68-9.12,3.57-17.8,6.01-26.03,7.34-8.24,1.33-13.68,2-16.35,2-13.35,0-23.92-2.77-31.7-8.34-7.79-5.56-12.13-13.23-13.01-23.02-11.57,4.9-22.02,13.01-31.36,24.36-9.34,11.34-17.58,24.25-24.69,38.71-7.12,14.46-13.13,29.7-18.02,45.71-4.9,16.02-8.68,30.93-11.34,44.71-.45,2.67-1.67,4.9-3.67,6.67-2,1.78-4.79,2.67-8.34,2.67-3.12,0-5.9-.89-8.34-2.67-2.45-1.77-3.67-4.22-3.67-7.34,0-.44.1-1,.33-1.67.22-.67.33-1.22.33-1.67l36.7-168.83Z"></path><path class="cls-5" d="m1215.69,384.51c2.67-3.56,5.78-5.34,9.34-5.34,2.67,0,5.44,1.45,8.34,4.34,2.89,2.9,4.34,5.67,4.34,8.34,0,6.24-3.34,11.79-10.01,16.68-6.67,4.9-14.24,9.12-22.69,12.68-8.46,3.57-17.02,6.12-25.69,7.67-8.68,1.56-14.8,2.34-18.35,2.34-5.79,0-11.13-.55-16.02-1.67-4.9-1.1-9.57-3.22-14.01-6.34l-2,6.67c-1.33,5.34-3.57,11.68-6.67,19.02-3.12,7.34-6.67,15.24-10.68,23.69-4,8.46-8.12,16.68-12.35,24.69-4.23,8.01-8.12,14.91-11.68,20.69-18.69,29.36-40.94,44.04-66.73,44.04-7.57,0-14.58-1.44-21.02-4.34-6.45-2.89-12.13-7.23-17.02-13.01-4.9-5.78-8.68-12.78-11.34-21.02-2.67-8.23-4-17.9-4-29.03,0-15.12,2.22-30.13,6.67-45.05,4.44-14.9,10.78-28.47,19.02-40.71,8.23-12.23,17.79-22.13,28.7-29.7,10.9-7.56,22.57-11.34,35.03-11.34,10.68,0,20.57,2.56,29.7,7.67,9.11,5.12,18.12,11.91,27.03,20.35l.67-5.34c.89-4,2-8.23,3.34-12.68,1.33-4.44,4.67-6.67,10.01-6.67,4,0,7.11,1.12,9.34,3.34,2.22,2.23,3.34,4.67,3.34,7.34,0,2.23-.23,4.34-.67,6.34-.45,2-.67,3.9-.67,5.67,0,4,1.55,7.34,4.67,10.01,3.11,2.67,8.68,4,16.68,4,5.34,0,10.68-.55,16.02-1.67,5.34-1.11,10.45-2.67,15.35-4.67,4.89-2,9.45-4.44,13.68-7.34,4.22-2.89,7.67-6.11,10.34-9.68Zm-110.78,42.71c-1.78-4.89-4.34-9.45-7.67-13.68-3.34-4.22-7.24-8.01-11.68-11.34-4.45-3.34-9.12-5.89-14.01-7.67-4.9-1.77-9.79-2.67-14.68-2.67-12.46,0-23.47,4.79-33.03,14.35-9.57,9.57-17.68,23.69-24.36,42.38-6.67,16.46-10.01,31.81-10.01,46.05,0,5.34.77,10.79,2.34,16.35,1.55,5.57,3.67,10.34,6.34,14.35,2.67,4,5.78,7.12,9.34,9.34,3.56,2.23,7.34,3.34,11.34,3.34,9.34,0,18.69-3.77,28.03-11.34,9.34-7.56,17.79-17.02,25.36-28.36,7.56-11.34,14.12-23.58,19.69-36.7,5.56-13.12,9.9-24.58,13.01-34.37Z"></path><path class="cls-5" d="m1170.31,724.18c-1.33,6.22-4.44,9.34-9.34,9.34-4.44,0-7.89-1.12-10.34-3.34-2.44-2.23-3.67-4.9-3.67-8.01,0-1.78,1.12-6.9,3.34-15.35l71.4-329c2.22-11.11,4.89-23.36,8.01-36.7,3.11-13.35,6.67-26.36,10.68-39.04,4-12.68,9.01-25.13,15.02-37.37,6.01-12.23,12.78-23.02,20.35-32.37,7.56-9.34,16.23-16.68,26.03-22.02,9.78-5.34,20.69-8.01,32.7-8.01,13.78,0,24.46,4.9,32.03,14.68,7.56,9.79,11.34,22.92,11.34,39.37,0,10.68-1.56,21.92-4.67,33.7-3.12,11.79-7.67,23.36-13.68,34.7-6.01,11.34-13.46,22.14-22.36,32.37-8.91,10.24-18.92,19.13-30.03,26.69,17.35,12.46,29.8,28.48,37.37,48.05,4.44-3.11,9.45-6.67,15.02-10.68,5.56-4,11.01-8.01,16.35-12.01,5.34-4,10.11-7.89,14.35-11.68,4.22-3.77,7.45-7.44,9.68-11.01,2.67-4,5.56-6.01,8.68-6.01s6.11,1.23,9.01,3.67c2.89,2.45,4.34,5,4.34,7.67,0,5.34-2.67,10.68-8.01,16.02-5.34,5.34-11.79,11.01-19.35,17.02-7.57,6.01-15.35,11.79-23.36,17.35-8.01,5.57-14.68,10.79-20.02,15.68,0,19.13-2,34.48-6.01,46.05-4,11.57-9.46,21.8-16.35,30.7-6.9,8.9-14.8,16.02-23.69,21.35-8.91,5.34-18.25,8.01-28.03,8.01-6.67,0-12.35-2-17.02-6.01-4.67-4-7.01-10.01-7.01-18.02,0-7.11,1.89-14.23,5.67-21.35,3.77-7.11,8.89-14.45,15.35-22.02,6.44-7.56,14.01-15.23,22.69-23.02,8.68-7.78,18.12-16.12,28.36-25.02-8.91-23.13-24.25-41.15-46.05-54.05-2.67-1.77-4.67-3.67-6.01-5.67-1.33-2-2-4.34-2-7.01,0-4,2.67-7.11,8.01-9.34,11.56-5.34,22.02-12.56,31.36-21.69,9.34-9.11,17.24-19.02,23.69-29.7,6.44-10.68,11.45-21.57,15.01-32.7,3.56-11.12,5.34-21.57,5.34-31.36s-1.33-16.79-4-22.36c-2.67-5.56-8.01-8.34-16.02-8.34-9.34,0-17.68,2.34-25.02,7.01-7.34,4.67-13.91,11.24-19.69,19.69-5.79,8.46-11.13,18.02-16.02,28.7-4.9,10.68-9.12,21.8-12.68,33.37-3.57,11.57-6.57,23.14-9.01,34.7-2.45,11.57-4.79,22.47-7.01,32.7l-74.74,341.67Zm157.49-246.25c-14.68,12.46-26.92,23.81-36.7,34.03-9.79,10.24-14.46,19.8-14.01,28.7,4.89,0,10.01-1.44,15.35-4.34,5.34-2.89,10.11-6.78,14.35-11.68,4.22-4.89,8.34-11.12,12.35-18.69,4-7.56,6.89-16.9,8.68-28.03Z"></path><path class="cls-6" d="m428.81,1422.97l69.76-318.99h-23.7c-8.58,0-12.87-4.29-12.87-12.87,0-7.67,4.29-11.51,12.87-11.51h77.88c12.64,0,24.94.79,36.91,2.37,11.96,1.59,22.57,4.86,31.83,9.82,9.25,4.97,16.81,11.51,22.69,19.64,5.86,8.13,8.8,18.96,8.8,32.51,0,16.71-2.49,31.15-7.45,43.34-4.97,12.19-11.63,22.92-19.98,32.17-8.36,9.26-17.61,16.83-27.77,22.69-10.16,5.87-20.21,10.61-30.14,14.22,8.13,1.81,16.02,4.64,23.7,8.47,7.67,3.84,14.56,8.7,20.66,14.56,6.1,5.87,11.06,12.87,14.9,20.99,3.83,8.13,5.76,17.39,5.76,27.77,0,18.06-2.49,33.52-7.45,46.39-4.97,12.87-11.41,23.7-19.3,32.51-7.9,8.8-16.93,15.81-27.09,20.99-10.16,5.2-20.77,9.26-31.83,12.19-11.07,2.94-21.79,4.74-32.17,5.42-10.39.68-19.64,1.02-27.77,1.02h-92.11c-8.58,0-12.87-3.83-12.87-11.51,0-8.13,4.29-12.19,12.87-12.19h33.86Zm56.89-148.32l-32.51,148.32h33.86c10.84,0,23.13-.78,36.91-2.37,13.77-1.58,26.86-5.42,39.28-11.51,12.41-6.1,22.91-15.24,31.49-27.43,8.57-12.19,12.87-29.12,12.87-50.79,0-13.09-3.28-23.47-9.82-31.15-6.55-7.67-14.9-13.31-25.06-16.93-10.16-3.61-20.77-5.86-31.83-6.77-11.07-.9-20.89-1.35-29.46-1.35h-25.74Zm37.25-170.67l-31.83,144.93c18.96-2.71,36.12-5.86,51.47-9.48,15.34-3.61,28.67-8.69,39.96-15.24,11.28-6.54,20.76-15.01,28.44-25.4,7.67-10.38,13.09-23.7,16.25-39.96,1.35-4.51,2.03-8.8,2.03-12.87,0-9.48-2.26-17.04-6.77-22.69-4.52-5.64-10.39-9.82-17.61-12.53-7.23-2.71-15.35-4.51-24.38-5.42-9.04-.9-18.29-1.35-27.77-1.35h-29.8Z"></path><path class="cls-5" d="m891.37,1263.14c2.71-3.61,5.64-5.42,8.8-5.42,2.71,0,5.52,1.47,8.47,4.4,2.93,2.94,4.4,5.53,4.4,7.79,0,3.16-.91,5.65-2.71,7.45l-102.27,134.1c-18.06,23.48-38.6,35.22-61.63,35.22-8.58,0-16.15-1.92-22.69-5.76-6.55-3.83-12.19-9.03-16.93-15.58-4.74-6.54-8.36-13.99-10.84-22.35-2.48-8.35-3.72-17.27-3.72-26.75,0-13.09,1.35-24.15,4.06-33.19,2.71-9.03,4.96-16.25,6.77-21.67,9.48-23.47,21.1-41.65,34.88-54.52,13.77-12.87,30.58-19.3,50.46-19.3,5.42,0,10.94,1.13,16.59,3.39,5.64,2.26,10.5,5.2,14.56,8.8,4.06,3.62,7.45,8.02,10.16,13.21,2.71,5.2,4.06,10.73,4.06,16.59,0,6.77-1.93,13.44-5.76,19.98-3.84,6.55-10.05,12.76-18.62,18.62-8.58,5.87-20.21,10.95-34.88,15.24-14.68,4.3-33.08,7.57-55.2,9.82-1.81,7.23-2.71,15.13-2.71,23.7,0,12.65,2.59,23.37,7.79,32.17,5.19,8.8,12.97,13.21,23.37,13.21,13.99,0,27.77-8.8,41.31-26.41l102.27-132.74Zm-134.77,19.64c-12.65,9.94-22.58,25.06-29.8,45.38,13.99-1.35,26.18-3.49,36.57-6.43,10.38-2.93,19.07-6.1,26.07-9.48,6.99-3.39,12.07-6.99,15.24-10.84,3.15-3.83,4.74-7.56,4.74-11.18,0-5.86-2.15-10.38-6.43-13.54-4.3-3.15-9.14-4.74-14.56-4.74-12.65,0-23.26,3.62-31.83,10.84Z"></path><path class="cls-7" d="m911.67,1277.36c-3.16,3.62-6.1,5.42-8.8,5.42-3.62,0-6.77-1.35-9.48-4.06-2.71-2.71-4.06-5.42-4.06-8.13,0-4.51,1.35-8.13,4.06-10.84,2.71-2.71,5.86-4.74,9.48-6.1,3.61-1.35,7.22-2.37,10.84-3.05,3.61-.68,6.54-1.02,8.8-1.02,7.67,0,15.92,1.59,24.72,4.74,8.8,3.16,16.81,8.02,24.04,14.56,7.22,6.55,13.09,14.68,17.61,24.38,4.51,9.71,6.77,20.89,6.77,33.52,0,9.04-1.25,17.84-3.72,26.41-2.49,8.58-6.1,16.71-10.84,24.38-4.74,7.68-10.84,14.34-18.29,19.98-7.45,5.65-15.92,9.6-25.4,11.85,3.61,4.06,6.77,8.7,9.48,13.88,2.71,5.2,4.96,10.73,6.77,16.59l136.81-176.76c2.25-4.06,5.19-6.1,8.8-6.1,3.15,0,6.1,1.47,8.8,4.4,2.71,2.94,4.06,5.76,4.06,8.47,0,3.16-.91,5.65-2.71,7.45l-149.67,195.05v12.19c0,24.38-3.05,44.58-9.14,60.61-6.1,16.02-13.21,28.78-21.33,38.27s-16.59,16.25-25.4,20.32c-8.8,4.06-15.69,6.1-20.66,6.1-8.58,0-14.9-2.6-18.96-7.79-4.06-5.2-6.1-11.17-6.1-17.95,0-12.19,6.77-27.32,20.32-45.38l56.21-73.82c-1.81-16.7-6.33-29.12-13.55-37.25-7.23-8.13-16.49-12.19-27.77-12.19-8.13-.44-12.19-4.74-12.19-12.87,0-7.67,4.06-11.51,12.19-11.51h4.06c10.84,0,20.66-1.24,29.46-3.72,8.8-2.48,16.48-6.32,23.03-11.51,6.54-5.19,11.85-11.62,15.92-19.3,4.06-7.67,6.1-16.7,6.1-27.09,0-11.74-2.71-22.46-8.13-32.17-5.42-9.7-15.13-17.71-29.12-24.04-2.26-.9-5.42-1.35-9.48-1.35-3.62,0-6.77.79-9.48,2.37-2.71,1.59-4.06,2.6-4.06,3.05Zm17.61,258.04c1.35-4.97,2.48-9.94,3.39-14.9.9-4.97,1.8-10.39,2.71-16.25l-37.93,48.76c-5.42,7.22-9.38,13.09-11.85,17.61-2.49,4.51-3.72,8.8-3.72,12.87,0,1.35.68,2.03,2.03,2.03,2.71,0,6.1-1.02,10.16-3.05,4.06-2.03,8.01-5.2,11.85-9.48,3.83-4.3,7.89-9.6,12.19-15.92,4.29-6.33,8.01-13.54,11.17-21.67Z"></path><path class="cls-5" d="m1356.62,1264.49c3.15-3.61,6.32-5.42,9.48-5.42s6.1,1.35,8.8,4.06c2.71,2.71,4.06,5.65,4.06,8.8,0,2.71-.91,4.97-2.71,6.77l-107.68,141.55c-13.1,17.16-26.87,25.74-41.31,25.74-8.13,0-14.22-2.93-18.29-8.8-4.06-5.86-6.1-12.41-6.1-19.64,0-1.8.11-3.95.34-6.43.22-2.48.78-5.3,1.69-8.47v-1.35c-12.19,15.81-25.63,27.43-40.3,34.88-14.68,7.45-28.56,11.18-41.65,11.18-8.58,0-16.37-1.35-23.37-4.06-7.01-2.71-13.1-6.77-18.29-12.19-5.2-5.42-9.26-11.62-12.19-18.62-2.94-6.99-4.4-14.78-4.4-23.37v-9.48c0-3.15.44-6.54,1.35-10.16l23.7-109.04c1.35-6.32,4.96-9.48,10.84-9.48,4.51,0,7.89,1.13,10.16,3.39,2.25,2.26,3.39,4.97,3.39,8.13,0,.45-.12,1.02-.34,1.69-.23.68-.34,1.25-.34,1.69l-23.7,109.04c-1.35,3.62-2.03,8.36-2.03,14.22,0,9.04,2.93,16.93,8.8,23.7,5.86,6.77,14.9,10.16,27.09,10.16,15.8,0,29.68-4.96,41.65-14.9,11.96-9.93,22.57-22.79,31.83-38.6,9.25-15.8,16.81-33.29,22.69-52.49,5.86-19.19,11.06-38.03,15.58-56.55.9-6.32,4.29-9.48,10.16-9.48,4.51,0,7.89,1.13,10.16,3.39,2.25,2.26,3.39,5.2,3.39,8.8,0,.45-.23,1.35-.68,2.71-.46,1.35-.68,2.26-.68,2.71l-29.8,138.84c-.91,4.06-1.35,7.45-1.35,10.16,0,1.35.22,2.94.68,4.74,3.61,0,7.33-1.58,11.17-4.74,3.83-3.15,7.56-7.22,11.18-12.19l107.01-140.87Z"></path><path class="cls-5" d="m1564.17,1264.49c2.71-3.61,5.64-5.42,8.8-5.42s6.2,1.47,9.14,4.4c2.93,2.94,4.4,5.76,4.4,8.47s-1.13,4.97-3.39,6.77l-138.84,180.83-20.99,97.53c-2.26,10.84-5.65,20.2-10.16,28.11-4.52,7.89-9.38,14.44-14.56,19.64-5.2,5.19-10.73,9.03-16.59,11.51-5.87,2.48-11.51,3.72-16.93,3.72-10.84,0-18.74-3.5-23.7-10.5-4.97-7.01-7.45-15.47-7.45-25.4,0-6.33,1.46-13.1,4.4-20.32,2.93-7.23,7.79-14.9,14.56-23.03l69.08-90.08,11.51-49.44c-9.94,14-20.66,24.72-32.17,32.17-11.51,7.45-23.14,11.17-34.88,11.17-7.68,0-14.79-1.46-21.33-4.4-6.55-2.93-12.31-7.33-17.27-13.21-4.97-5.86-8.92-12.97-11.85-21.33-2.94-8.35-4.4-18.17-4.4-29.46,0-15.34,2.37-30.58,7.11-45.72,4.74-15.12,11.28-28.89,19.64-41.31,8.35-12.41,18.05-22.46,29.12-30.14,11.06-7.67,22.69-11.51,34.88-11.51,21.22,0,40.4,9.71,57.57,29.12.9-4.06,1.8-7.89,2.71-11.51l1.36-4.74c2.25-3.61,6.77-5.42,13.54-5.42,4.06,0,6.88,1.02,8.47,3.05,1.58,2.03,1.46,5.99-.34,11.85l-29.12,135.45,107.68-140.87Zm-119.88,62.31c1.36-3.15,2.59-6.32,3.73-9.48,1.12-3.15,2.37-6.32,3.73-9.48-4.52-10.84-11.41-19.52-20.66-26.07-9.26-6.54-18.62-9.82-28.11-9.82-12.65,0-23.82,4.86-33.52,14.56-9.71,9.71-17.95,24.04-24.72,43.01-6.77,16.71-10.16,32.29-10.16,46.73,0,5.42.78,10.95,2.37,16.59,1.58,5.65,3.61,10.5,6.1,14.56,2.48,4.06,5.52,7.23,9.14,9.48,3.61,2.26,7.67,3.39,12.19,3.39,9.03,0,17.38-2.82,25.06-8.47,7.67-5.64,15.01-12.97,22.01-22.01,6.99-9.03,13.31-19.07,18.96-30.14,5.64-11.06,10.26-22.01,13.88-32.85Zm-34.54,178.8l-38.6,49.44c-9.48,12.64-14.22,22.79-14.22,30.48,0,2.71.56,5.19,1.69,7.45,1.12,2.25,3.05,3.39,5.76,3.39,8.57,0,15.8-4.06,21.67-12.19,5.86-8.13,10.6-18.74,14.22-31.83l9.48-46.73Z"></path><g class="cls-4"><path class="cls-8" d="m1564.17,1264.49c2.71-3.61,5.64-5.42,8.8-5.42s6.2,1.47,9.14,4.4c2.93,2.94,4.4,5.76,4.4,8.47s-1.13,4.97-3.39,6.77l-138.84,180.83-20.99,97.53c-2.26,10.84-5.65,20.2-10.16,28.11-4.52,7.89-9.38,14.44-14.56,19.64-5.2,5.19-10.73,9.03-16.59,11.51-5.87,2.48-11.51,3.72-16.93,3.72-10.84,0-18.74-3.5-23.7-10.5-4.97-7.01-7.45-15.47-7.45-25.4,0-6.33,1.46-13.1,4.4-20.32,2.93-7.23,7.79-14.9,14.56-23.03l69.08-90.08,11.51-49.44c-9.94,14-20.66,24.72-32.17,32.17-11.51,7.45-23.14,11.17-34.88,11.17-7.68,0-14.79-1.46-21.33-4.4-6.55-2.93-12.31-7.33-17.27-13.21-4.97-5.86-8.92-12.97-11.85-21.33-2.94-8.35-4.4-18.17-4.4-29.46,0-15.34,2.37-30.58,7.11-45.72,4.74-15.12,11.28-28.89,19.64-41.31,8.35-12.41,18.05-22.46,29.12-30.14,11.06-7.67,22.69-11.51,34.88-11.51,21.22,0,40.4,9.71,57.57,29.12.9-4.06,1.8-7.89,2.71-11.51l1.36-4.74c2.25-3.61,6.77-5.42,13.54-5.42,4.06,0,6.88,1.02,8.47,3.05,1.58,2.03,1.46,5.99-.34,11.85l-29.12,135.45,107.68-140.87Zm-119.88,62.31c1.36-3.15,2.59-6.32,3.73-9.48,1.12-3.15,2.37-6.32,3.73-9.48-4.52-10.84-11.41-19.52-20.66-26.07-9.26-6.54-18.62-9.82-28.11-9.82-12.65,0-23.82,4.86-33.52,14.56-9.71,9.71-17.95,24.04-24.72,43.01-6.77,16.71-10.16,32.29-10.16,46.73,0,5.42.78,10.95,2.37,16.59,1.58,5.65,3.61,10.5,6.1,14.56,2.48,4.06,5.52,7.23,9.14,9.48,3.61,2.26,7.67,3.39,12.19,3.39,9.03,0,17.38-2.82,25.06-8.47,7.67-5.64,15.01-12.97,22.01-22.01,6.99-9.03,13.31-19.07,18.96-30.14,5.64-11.06,10.26-22.01,13.88-32.85Zm-34.54,178.8l-38.6,49.44c-9.48,12.64-14.22,22.79-14.22,30.48,0,2.71.56,5.19,1.69,7.45,1.12,2.25,3.05,3.39,5.76,3.39,8.57,0,15.8-4.06,21.67-12.19,5.86-8.13,10.6-18.74,14.22-31.83l9.48-46.73Z"></path></g><g class="cls-9"><path class="cls-8" d="m1564.17,1264.49c2.71-3.61,5.64-5.42,8.8-5.42s6.2,1.47,9.14,4.4c2.93,2.94,4.4,5.76,4.4,8.47s-1.13,4.97-3.39,6.77l-138.84,180.83-20.99,97.53c-2.26,10.84-5.65,20.2-10.16,28.11-4.52,7.89-9.38,14.44-14.56,19.64-5.2,5.19-10.73,9.03-16.59,11.51-5.87,2.48-11.51,3.72-16.93,3.72-10.84,0-18.74-3.5-23.7-10.5-4.97-7.01-7.45-15.47-7.45-25.4,0-6.33,1.46-13.1,4.4-20.32,2.93-7.23,7.79-14.9,14.56-23.03l69.08-90.08,11.51-49.44c-9.94,14-20.66,24.72-32.17,32.17-11.51,7.45-23.14,11.17-34.88,11.17-7.68,0-14.79-1.46-21.33-4.4-6.55-2.93-12.31-7.33-17.27-13.21-4.97-5.86-8.92-12.97-11.85-21.33-2.94-8.35-4.4-18.17-4.4-29.46,0-15.34,2.37-30.58,7.11-45.72,4.74-15.12,11.28-28.89,19.64-41.31,8.35-12.41,18.05-22.46,29.12-30.14,11.06-7.67,22.69-11.51,34.88-11.51,21.22,0,40.4,9.71,57.57,29.12.9-4.06,1.8-7.89,2.71-11.51l1.36-4.74c2.25-3.61,6.77-5.42,13.54-5.42,4.06,0,6.88,1.02,8.47,3.05,1.58,2.03,1.46,5.99-.34,11.85l-29.12,135.45,107.68-140.87Zm-119.88,62.31c1.36-3.15,2.59-6.32,3.73-9.48,1.12-3.15,2.37-6.32,3.73-9.48-4.52-10.84-11.41-19.52-20.66-26.07-9.26-6.54-18.62-9.82-28.11-9.82-12.65,0-23.82,4.86-33.52,14.56-9.71,9.71-17.95,24.04-24.72,43.01-6.77,16.71-10.16,32.29-10.16,46.73,0,5.42.78,10.95,2.37,16.59,1.58,5.65,3.61,10.5,6.1,14.56,2.48,4.06,5.52,7.23,9.14,9.48,3.61,2.26,7.67,3.39,12.19,3.39,9.03,0,17.38-2.82,25.06-8.47,7.67-5.64,15.01-12.97,22.01-22.01,6.99-9.03,13.31-19.07,18.96-30.14,5.64-11.06,10.26-22.01,13.88-32.85Zm-34.54,178.8l-38.6,49.44c-9.48,12.64-14.22,22.79-14.22,30.48,0,2.71.56,5.19,1.69,7.45,1.12,2.25,3.05,3.39,5.76,3.39,8.57,0,15.8-4.06,21.67-12.19,5.86-8.13,10.6-18.74,14.22-31.83l9.48-46.73Z"></path></g><g class="cls-10"><path class="cls-8" d="m1063.14,2255.36h.66c17.58,0,37.82-7.14,60.69-21.44,22.86-14.29,46.61-36.39,71.25-66.3l13.85-18.47c2.2-3.51,5.05-5.28,8.58-5.28,3.07,0,6.04,1.32,8.91,3.96,2.86,2.64,4.29,5.5,4.29,8.58,0,2.64-1.1,4.84-3.3,6.6l-14.51,19.13c-13.19,16.72-26.5,31.23-39.91,43.54-13.42,12.32-26.5,22.43-39.25,30.35-12.76,7.92-25.18,13.75-37.27,17.48-12.1,3.74-23.2,5.61-33.31,5.61h-5.94l-44.86,205.16c-1.32,6.6-4.39,9.9-9.24,9.9-4.39,0-7.8-1.1-10.22-3.3-2.41-2.21-3.63-4.84-3.63-7.92,0-1.76.23-2.87.66-3.3l44.86-206.48c-2.21-.88-4.84-2.41-7.92-4.62-3.08-2.2-5.94-4.62-8.58-7.26-2.64-2.64-4.72-5.61-6.27-8.91-1.54-3.3-2.31-6.48-2.31-9.57,0-2.2,1.1-4.62,3.3-7.26,2.21-2.64,5.49-3.96,9.9-3.96,2.2,0,3.84.77,4.95,2.31,1.09,1.55,2.31,3.08,3.63,4.62,1.32,1.55,2.64,3.3,3.96,5.28,1.32,1.98,2.85,3.63,4.62,4.95l23.09-103.57c7.03-32.98,13.96-60.79,20.78-83.45,6.81-22.65,13.74-40.79,20.78-54.42,7.03-13.63,14.62-23.52,22.76-29.69,8.13-6.15,16.82-9.24,26.06-9.24,19.35,0,29.03,7.7,29.03,23.09,0,14.51-8.47,34.86-25.4,61.02-16.94,26.17-40.8,59.7-71.58,100.6l-23.09,102.25Zm36.28-158.98c18.9-25.94,33.53-47.5,43.87-64.65,10.33-17.15,15.5-28.58,15.5-34.3,0-3.51-1.55-5.28-4.62-5.28-18.04,0-36.28,34.75-54.75,104.23Z"></path></g><path class="cls-5" d="m1356.03,2147.83c2.64-3.51,5.49-5.28,8.58-5.28,2.64,0,5.38,1.43,8.25,4.29,2.86,2.87,4.29,5.39,4.29,7.59,0,3.08-.89,5.5-2.64,7.26l-99.61,130.62c-17.6,22.87-37.6,34.3-60.03,34.3-8.36,0-15.73-1.87-22.1-5.61-6.38-3.73-11.87-8.79-16.49-15.17-4.62-6.37-8.14-13.63-10.55-21.77-2.41-8.13-3.63-16.82-3.63-26.06,0-12.75,1.32-23.52,3.96-32.32,2.64-8.79,4.83-15.83,6.6-21.11,9.24-22.86,20.55-40.57,33.97-53.1,13.41-12.53,29.79-18.8,49.15-18.8,5.28,0,10.66,1.1,16.16,3.3,5.49,2.21,10.22,5.06,14.18,8.58,3.96,3.52,7.26,7.81,9.9,12.86,2.64,5.06,3.96,10.45,3.96,16.16,0,6.6-1.88,13.09-5.61,19.46-3.74,6.38-9.79,12.43-18.14,18.14-8.36,5.72-19.69,10.67-33.97,14.84-14.3,4.18-32.22,7.37-53.76,9.56-1.76,7.04-2.64,14.74-2.64,23.09,0,12.32,2.53,22.76,7.59,31.34,5.05,8.58,12.64,12.86,22.76,12.86,13.63,0,27.05-8.58,40.24-25.73l99.61-129.3Zm-131.28,19.13c-12.32,9.68-22,24.41-29.03,44.2,13.63-1.32,25.5-3.4,35.62-6.27,10.11-2.86,18.57-5.94,25.4-9.24,6.81-3.3,11.76-6.81,14.84-10.55,3.07-3.73,4.62-7.36,4.62-10.89,0-5.71-2.09-10.11-6.27-13.19-4.18-3.07-8.91-4.62-14.18-4.62-12.32,0-22.66,3.52-31.01,10.55Z"></path><path class="cls-5" d="m1635.79,2149.15c2.64-3.51,5.49-5.28,8.58-5.28s6.04,1.22,8.9,3.63c2.86,2.42,4.29,5.39,4.29,8.91,0,2.64-1.1,4.84-3.3,6.6l-104.89,137.87c-12.76,16.72-29.47,25.07-50.14,25.07-6.6,0-11.99-1.09-16.16-3.3-4.19-2.2-7.59-5.05-10.23-8.58-2.64-3.51-4.4-7.47-5.28-11.87-.89-4.39-1.32-8.35-1.32-11.87,0-2.64.22-4.83.66-6.6l16.49-77.18c1.32-3.51,1.98-7.92,1.98-13.19,0-10.99-3.2-19.35-9.57-25.07-6.38-5.71-15.07-8.58-26.06-8.58s-21.01,2.75-30.02,8.25c-9.02,5.5-17.27,12.76-24.74,21.77-7.48,9.02-14.18,19.13-20.12,30.35-5.94,11.21-11,22.66-15.17,34.3-4.18,11.66-7.7,22.76-10.55,33.31-2.87,10.55-4.95,20.02-6.27,28.37-.44,2.64-1.76,4.84-3.96,6.6-2.21,1.76-4.85,2.64-7.92,2.64s-5.83-.88-8.25-2.64c-2.42-1.75-3.63-4.17-3.63-7.26v-3.3l36.94-166.9c.88-6.15,4.39-9.24,10.56-9.24,3.96,0,7.03,1.1,9.24,3.3,2.2,2.21,3.3,4.84,3.3,7.92,0,.44-.11.99-.33,1.65-.23.66-.33,1.22-.33,1.65l-6.6,29.69c22.86-29.46,49.25-44.2,79.16-44.2,9.24,0,17.37,1.55,24.41,4.62,7.03,3.08,13.08,7.37,18.14,12.86,5.05,5.5,8.91,11.66,11.55,18.47,2.64,6.82,3.96,14.18,3.96,22.1-.44,2.21-.77,4.73-.99,7.59-.23,2.87-.56,6.27-.99,10.22l-17.15,76.52c-.44.89-.66,2.42-.66,4.62,0,4.4,1.09,7.15,3.3,8.25,2.2,1.1,4.39,1.65,6.6,1.65,13.19-.88,23.75-6.37,31.66-16.49l104.89-137.21Z"></path></svg> 