<?xml version="1.0" encoding="UTF-8"?> <svg xmlns="http://www.w3.org/2000/svg" xmlns:xlink="http://www.w3.org/1999/xlink" id="Layer_1" viewBox="0 0 1920 3805"><defs><style>.cls-1,.cls-2,.cls-3,.cls-4,.cls-5,.cls-6,.cls-7,.cls-8{fill:none;}.cls-2{stroke-dasharray:0 0 1.64 16.39;}.cls-2,.cls-3,.cls-4,.cls-5,.cls-6,.cls-7{stroke:#a797c9;stroke-linecap:round;stroke-width:7px;}.cls-2,.cls-3,.cls-4,.cls-5,.cls-6,.cls-7,.cls-8{stroke-miterlimit:10;}.cls-9{clip-path:url(#clippath);}.cls-10{fill:#fff;}.cls-11{fill:#937eb9;}.cls-12{fill:#937fbb;}.cls-13{fill:#171c32;}.cls-14{fill:#161b31;}.cls-3{stroke-dasharray:0 0 1.79 17.88;}.cls-15{clip-path:url(#clippath-1);}.cls-16{clip-path:url(#clippath-4);}.cls-17{clip-path:url(#clippath-3);}.cls-18{clip-path:url(#clippath-2);}.cls-5{stroke-dasharray:0 0 1.69 16.9;}.cls-6{stroke-dasharray:0 0 1.78 17.85;}.cls-7{stroke-dasharray:0 0 1.74 17.45;}.cls-8{stroke:#566789;stroke-width:3.5px;}</style><clipPath id="clippath"><rect class="cls-1" x="888.18" y="2165.55" width="126.7" height="126.7" rx="63.35" ry="63.35"></rect></clipPath><clipPath id="clippath-1"><rect class="cls-1" x="1228.1" y="3059.75" width="162.28" height="162.28" rx="81.14" ry="81.14"></rect></clipPath><clipPath id="clippath-2"><circle class="cls-1" cx="947.38" cy="1311.44" r="67.5"></circle></clipPath><clipPath id="clippath-3"><circle class="cls-1" cx="1282.64" cy="1582.67" r="149.08"></circle></clipPath><clipPath id="clippath-4"><circle class="cls-1" cx="1555.56" cy="2109.82" r="150.66"></circle></clipPath></defs><rect class="cls-14" x="-.48" y="0" width="1920" height="3805"></rect><line class="cls-8" x1="-.48" y1="204.16" x2="1919.52" y2="204.16"></line><line class="cls-8" x1="-.48" y1="387.2" x2="1919.52" y2="387.2"></line><line class="cls-8" x1="1919.52" y1="577.35" x2="-.48" y2="577.35"></line><line class="cls-8" x1="-.48" y1="764.16" x2="1919.52" y2="764.16"></line><line class="cls-8" x1="-.48" y1="1113.73" x2="1919.52" y2="1113.73"></line><line class="cls-8" x1="-.48" y1="1300.76" x2="1919.52" y2="1300.76"></line><line class="cls-8" x1="1919.52" y1="1490.91" x2="-.48" y2="1490.91"></line><line class="cls-8" x1="-.48" y1="1679.73" x2="1919.52" y2="1679.73"></line><line class="cls-8" x1="-.48" y1="2030.64" x2="1919.52" y2="2030.64"></line><line class="cls-8" x1="-.48" y1="2217.68" x2="1919.52" y2="2217.68"></line><line class="cls-8" x1="1919.52" y1="2407.83" x2="-.48" y2="2407.83"></line><line class="cls-8" x1="-.48" y1="2596.64" x2="1919.52" y2="2596.64"></line><line class="cls-8" x1="-.48" y1="2947.42" x2="1919.52" y2="2947.42"></line><line class="cls-8" x1="-.48" y1="3133.46" x2="1919.52" y2="3133.46"></line><line class="cls-8" x1="1919.52" y1="3323.61" x2="-.48" y2="3323.61"></line><line class="cls-8" x1="-.48" y1="3511.42" x2="1919.52" y2="3511.42"></line><line class="cls-4" x1="495.3" y1="2929.77" x2="495.3" y2="2928.89"></line><line class="cls-2" x1="495.3" y1="2912.51" x2="495.3" y2="2848.6"></line><line class="cls-4" x1="495.3" y1="2840.41" x2="495.3" y2="2839.53"></line><line class="cls-4" x1="370.67" y1="2655.06" x2="370.67" y2="2654.18"></line><line class="cls-3" x1="370.67" y1="2636.31" x2="370.67" y2="2428.95"></line><line class="cls-4" x1="370.67" y1="2420.01" x2="370.67" y2="2419.14"></line><line class="cls-4" x1="1309.24" y1="3041.08" x2="1309.24" y2="3040.21"></line><line class="cls-5" x1="1309.24" y1="3023.31" x2="1309.24" y2="2845.86"></line><line class="cls-4" x1="1309.24" y1="2837.41" x2="1309.24" y2="2836.53"></line><line class="cls-4" x1="1545.56" y1="1309.04" x2="1545.56" y2="1308.17"></line><line class="cls-6" x1="1545.56" y1="1290.32" x2="1545.56" y2="1044"></line><line class="cls-4" x1="1545.56" y1="1035.07" x2="1545.56" y2="1034.2"></line><polygon class="cls-11" points="1288.68 3510.01 1341.01 3510.01 1641.39 2947.65 1589.06 2947.65 1288.68 3510.01"></polygon><path class="cls-10" d="m1164.53,3552.04h3.23l11.51,20.92h.08l11.51-20.92h3.23v32.77h-2.94v-27.85h-.04l-10.75,19.91h-2.06l-10.8-19.91h-.04v27.85h-2.94v-32.77Z"></path><path class="cls-10" d="m1201.03,3574.3c0-6.22,3.32-11.05,10.38-11.05,6.6,0,10.25,4.83,10.25,11.05s-3.7,11.05-10.29,11.05c-7.27,0-10.33-4.83-10.33-11.05Zm17.56,0c0-5.33-2.9-8.49-7.22-8.49-4.75,0-7.27,3.15-7.27,8.49s2.56,8.49,7.27,8.49c4.33,0,7.22-3.15,7.22-8.49Z"></path><path class="cls-10" d="m1225.85,3574.34c0-7.1,4.29-11.09,10.04-11.09,3.7,0,6.22,1.6,7.31,3.74h.04v-14.95h2.94v32.77h-1.97l-.67-3.61h-.08c-1.18,2.31-3.95,4.16-7.77,4.16-6.3,0-9.83-3.99-9.83-11.01Zm17.64-.5c0-5.5-3.36-8.07-7.35-8.07-3.11,0-7.14,1.47-7.14,8.4s3.61,8.61,7.14,8.61c4.24,0,7.35-2.73,7.35-8.95Z"></path><path class="cls-10" d="m1270.79,3575.31h-15.96c.17,4.79,2.48,7.48,6.93,7.48,3.82,0,5.67-1.43,5.96-4.83h2.98c-.29,4.24-3.28,7.39-9.03,7.39-7.06,0-9.83-4.66-9.83-10.88s3.23-11.22,10-11.22,8.95,3.99,8.95,10.21v1.85Zm-3.11-2.98c0-4.45-1.72-6.55-5.92-6.55s-6.55,2.65-6.89,6.97h12.81v-.42Z"></path><path class="cls-10" d="m1276.67,3563.8h2.6l.29,3.91c1.01-2.14,3.07-4.45,6.76-4.45,1.26,0,2.18.21,3.02.55v3.15c-1.13-.5-2.1-.76-3.4-.76-3.74,0-6.34,2.81-6.34,5.75v12.85h-2.94v-21Z"></path><path class="cls-10" d="m1292.29,3579c0-3.95,2.23-6.09,7.86-6.09h6.34v-1.72c0-2.98-1.26-5.42-5.46-5.42-3.95,0-5.34,1.51-5.34,4.12v.88h-2.98v-.84c0-5,4.2-6.68,8.32-6.68,5.8,0,8.4,2.86,8.4,8.44v13.11h-2.06l-.55-2.98h-.08c-1.26,1.89-3.7,3.53-7.35,3.53-4.91,0-7.1-2.31-7.1-6.34Zm14.2-1.85v-1.76h-7.02c-2.65,0-4.03.92-4.03,3.61,0,2.35,1.26,3.86,4.5,3.86,4.16,0,6.55-2.14,6.55-5.71Z"></path><path class="cls-10" d="m1327.53,3582.11v2.6c-.76.21-2.14.59-4.03.59-3.82,0-6.34-1.6-6.34-6.89v-12.18h-4.16v-2.44h4.16v-6.05l2.94-1.43v7.48h5.92v2.44h-5.92v11.8c0,2.82.76,4.58,3.4,4.58,1.6,0,3.23-.29,4.03-.5Z"></path><path class="cls-10" d="m1349,3575.31h-15.96c.17,4.79,2.48,7.48,6.93,7.48,3.82,0,5.67-1.43,5.96-4.83h2.98c-.29,4.24-3.28,7.39-9.03,7.39-7.06,0-9.83-4.66-9.83-10.88s3.23-11.22,10-11.22,8.95,3.99,8.95,10.21v1.85Zm-3.11-2.98c0-4.45-1.72-6.55-5.92-6.55s-6.55,2.65-6.89,6.97h12.81v-.42Z"></path><path class="cls-10" d="m1362.64,3578.37v-1.18h2.94v1.13c0,2.86,2.14,4.49,5.96,4.49s5.8-1.01,5.8-3.78c0-2.06-1.01-2.81-3.87-3.32l-4.62-.84c-3.02-.55-5.54-2.02-5.54-5.5,0-3.15,2.35-6.13,8.4-6.13s8.4,3.02,8.4,7.23v.88h-2.98v-.76c0-3.45-2.14-4.92-5.42-4.92-3.95,0-5.34,1.34-5.34,3.36s1.01,2.86,3.91,3.4l4.03.76c4.12.76,6.09,1.93,6.09,5.59,0,4.58-4.12,6.55-8.78,6.55-7.31,0-8.99-3.28-8.99-6.97Z"></path><path class="cls-10" d="m1386.29,3552.04h2.94v32.77h-2.94v-32.77Z"></path><path class="cls-10" d="m1395.32,3579c0-3.95,2.23-6.09,7.86-6.09h6.34v-1.72c0-2.98-1.26-5.42-5.46-5.42-3.95,0-5.33,1.51-5.33,4.12v.88h-2.98v-.84c0-5,4.2-6.68,8.32-6.68,5.8,0,8.4,2.86,8.4,8.44v13.11h-2.06l-.55-2.98h-.08c-1.26,1.89-3.7,3.53-7.35,3.53-4.92,0-7.1-2.31-7.1-6.34Zm14.2-1.85v-1.76h-7.01c-2.65,0-4.03.92-4.03,3.61,0,2.35,1.26,3.86,4.49,3.86,4.16,0,6.55-2.14,6.55-5.71Z"></path><path class="cls-10" d="m1419.8,3563.8h2.61l.29,3.49c1.01-2.14,3.28-4.03,7.35-4.03,4.75,0,7.77,2.52,7.77,7.94v13.61h-2.94v-13.27c0-4.33-2.14-5.71-5.5-5.71-3.82,0-6.64,2.69-6.64,5.63v13.36h-2.94v-21Z"></path><path class="cls-10" d="m1456.13,3582.11v2.6c-.76.21-2.14.59-4.03.59-3.82,0-6.34-1.6-6.34-6.89v-12.18h-4.16v-2.44h4.16v-6.05l2.94-1.43v7.48h5.92v2.44h-5.92v11.8c0,2.82.76,4.58,3.4,4.58,1.6,0,3.23-.29,4.03-.5Z"></path><rect class="cls-12" x="888.18" y="2165.55" width="126.7" height="126.7" rx="63.35" ry="63.35"></rect><path class="cls-10" d="m131.37,877.32h3.23l11.51,20.92h.08l11.51-20.92h3.23v32.77h-2.94v-27.85h-.04l-10.75,19.91h-2.06l-10.8-19.91h-.04v27.85h-2.94v-32.77Z"></path><path class="cls-10" d="m169.55,877.32h2.98v6.51h-2.98v-6.51Zm0,11.76h2.94v21h-2.94v-21Z"></path><path class="cls-10" d="m177.99,903.66v-1.18h2.94v1.13c0,2.86,2.14,4.5,5.96,4.5s5.8-1.01,5.8-3.78c0-2.06-1.01-2.81-3.87-3.32l-4.62-.84c-3.02-.55-5.54-2.02-5.54-5.5,0-3.15,2.35-6.13,8.4-6.13s8.4,3.02,8.4,7.23v.88h-2.98v-.76c0-3.44-2.14-4.91-5.42-4.91-3.95,0-5.34,1.34-5.34,3.36s1.01,2.86,3.91,3.4l4.03.76c4.12.76,6.09,1.93,6.09,5.59,0,4.58-4.12,6.55-8.78,6.55-7.31,0-8.99-3.28-8.99-6.97Z"></path><path class="cls-10" d="m200.38,904.29c0-3.95,2.23-6.09,7.86-6.09h6.34v-1.72c0-2.98-1.26-5.42-5.46-5.42-3.95,0-5.34,1.51-5.34,4.12v.88h-2.98v-.84c0-5,4.2-6.68,8.32-6.68,5.8,0,8.4,2.86,8.4,8.44v13.11h-2.06l-.55-2.98h-.08c-1.26,1.89-3.7,3.53-7.35,3.53-4.91,0-7.1-2.31-7.1-6.34Zm14.2-1.85v-1.76h-7.02c-2.65,0-4.03.92-4.03,3.61,0,2.35,1.26,3.86,4.5,3.86,4.16,0,6.55-2.14,6.55-5.71Z"></path><path class="cls-10" d="m224.86,877.32h2.94v32.77h-2.94v-32.77Z"></path><path class="cls-10" d="m235.15,877.32h2.98v6.51h-2.98v-6.51Zm0,11.76h2.94v21h-2.94v-21Z"></path><path class="cls-10" d="m244.85,911.89v-.13h3.11v.13c0,2.9,1.93,4.33,6.13,4.33,4.79,0,7.01-2.94,7.01-7.86v-2.1h-.08c-1.09,2.18-3.65,4.07-7.48,4.07-6.3,0-9.75-3.99-9.75-10.71,0-7.1,4.37-11.09,9.96-11.09,3.78,0,6.55,1.81,7.56,4.12h.12l.29-3.57h2.31v19.16c0,5.88-2.81,10.71-10.33,10.71-6.3,0-8.86-2.98-8.86-7.06Zm16.59-12.77c0-5.5-3.36-8.07-7.35-8.07-3.03,0-7.14,1.47-7.14,8.4s3.57,8.32,7.1,8.32c4.24,0,7.39-2.73,7.39-8.65Z"></path><path class="cls-10" d="m271.4,889.08h2.61l.29,3.49c1.01-2.14,3.28-4.03,7.35-4.03,4.75,0,7.77,2.52,7.77,7.94v13.61h-2.94v-13.27c0-4.33-2.14-5.71-5.5-5.71-3.82,0-6.64,2.69-6.64,5.63v13.36h-2.94v-21Z"></path><path class="cls-10" d="m314.03,900.59h-15.96c.17,4.79,2.48,7.48,6.93,7.48,3.82,0,5.67-1.43,5.97-4.83h2.98c-.29,4.24-3.28,7.39-9.03,7.39-7.06,0-9.83-4.66-9.83-10.88s3.23-11.22,10-11.22,8.95,3.99,8.95,10.21v1.85Zm-3.11-2.98c0-4.45-1.72-6.55-5.92-6.55s-6.55,2.65-6.89,6.97h12.81v-.42Z"></path><path class="cls-10" d="m318.23,899.62c0-7.1,4.29-11.09,10.04-11.09,3.7,0,6.22,1.6,7.31,3.74h.04v-14.95h2.94v32.77h-1.97l-.67-3.61h-.08c-1.18,2.31-3.95,4.16-7.77,4.16-6.3,0-9.83-3.99-9.83-11.01Zm17.64-.5c0-5.5-3.36-8.07-7.35-8.07-3.11,0-7.14,1.47-7.14,8.4s3.61,8.61,7.14,8.61c4.24,0,7.35-2.73,7.35-8.95Z"></path><path class="cls-10" d="m353.68,903.66v-1.18h2.94v1.13c0,2.86,2.14,4.5,5.96,4.5s5.8-1.01,5.8-3.78c0-2.06-1.01-2.81-3.86-3.32l-4.62-.84c-3.03-.55-5.54-2.02-5.54-5.5,0-3.15,2.35-6.13,8.4-6.13s8.4,3.02,8.4,7.23v.88h-2.98v-.76c0-3.44-2.14-4.91-5.42-4.91-3.95,0-5.33,1.34-5.33,3.36s1.01,2.86,3.91,3.4l4.03.76c4.12.76,6.09,1.93,6.09,5.59,0,4.58-4.12,6.55-8.78,6.55-7.31,0-8.99-3.28-8.99-6.97Z"></path><path class="cls-10" d="m377.32,877.32h2.94v15.16c1.05-2.1,3.28-3.95,7.31-3.95,4.75,0,7.77,2.52,7.77,7.94v13.61h-2.94v-13.27c0-4.33-2.14-5.71-5.5-5.71-3.82,0-6.64,2.69-6.64,5.63v13.36h-2.94v-32.77Z"></path><path class="cls-10" d="m401.01,899.58c0-6.22,3.32-11.05,10.38-11.05,6.6,0,10.25,4.83,10.25,11.05s-3.7,11.05-10.29,11.05c-7.27,0-10.33-4.83-10.33-11.05Zm17.56,0c0-5.33-2.9-8.49-7.22-8.49-4.75,0-7.27,3.15-7.27,8.49s2.56,8.49,7.27,8.49c4.33,0,7.22-3.15,7.22-8.49Z"></path><path class="cls-10" d="m427.09,902.69v-13.61h2.94v13.27c0,4.33,2.14,5.71,5.42,5.71,3.74,0,6.55-2.69,6.55-5.63v-13.36h2.94v21h-2.61l-.25-3.36h-.08c-.97,2.02-3.23,3.91-7.22,3.91-4.66,0-7.69-2.52-7.69-7.94Z"></path><path class="cls-10" d="m452.29,877.32h2.94v32.77h-2.94v-32.77Z"></path><path class="cls-10" d="m460.9,899.62c0-7.1,4.29-11.09,10.04-11.09,3.7,0,6.22,1.6,7.31,3.74h.04v-14.95h2.94v32.77h-1.97l-.67-3.61h-.08c-1.18,2.31-3.95,4.16-7.77,4.16-6.3,0-9.83-3.99-9.83-11.01Zm17.64-.5c0-5.5-3.36-8.07-7.35-8.07-3.11,0-7.14,1.47-7.14,8.4s3.61,8.61,7.14,8.61c4.24,0,7.35-2.73,7.35-8.95Z"></path><path class="cls-10" d="m505.84,900.59h-15.96c.17,4.79,2.48,7.48,6.93,7.48,3.82,0,5.67-1.43,5.96-4.83h2.98c-.29,4.24-3.28,7.39-9.03,7.39-7.06,0-9.83-4.66-9.83-10.88s3.23-11.22,10-11.22,8.95,3.99,8.95,10.21v1.85Zm-3.11-2.98c0-4.45-1.72-6.55-5.92-6.55s-6.55,2.65-6.89,6.97h12.81v-.42Z"></path><path class="cls-10" d="m511.72,889.08h2.61l.29,3.91c1.01-2.14,3.07-4.45,6.76-4.45,1.26,0,2.19.21,3.03.55v3.15c-1.13-.5-2.1-.76-3.4-.76-3.74,0-6.34,2.81-6.34,5.75v12.85h-2.94v-21Z"></path><path class="cls-10" d="m526.93,903.66v-1.18h2.94v1.13c0,2.86,2.14,4.5,5.96,4.5s5.8-1.01,5.8-3.78c0-2.06-1.01-2.81-3.86-3.32l-4.62-.84c-3.03-.55-5.54-2.02-5.54-5.5,0-3.15,2.35-6.13,8.4-6.13s8.4,3.02,8.4,7.23v.88h-2.98v-.76c0-3.44-2.14-4.91-5.42-4.91-3.95,0-5.33,1.34-5.33,3.36s1.01,2.86,3.91,3.4l4.03.76c4.12.76,6.09,1.93,6.09,5.59,0,4.58-4.12,6.55-8.78,6.55-7.31,0-8.99-3.28-8.99-6.97Z"></path><path class="cls-10" d="m211.32,926.17h2.98v6.51h-2.98v-6.51Zm0,11.76h2.94v21h-2.94v-21Z"></path><path class="cls-10" d="m221.65,937.93h2.6l.29,3.49c1.01-2.14,3.28-4.03,7.35-4.03,4.75,0,7.77,2.52,7.77,7.94v13.61h-2.94v-13.27c0-4.33-2.14-5.71-5.5-5.71-3.82,0-6.64,2.69-6.64,5.63v13.36h-2.94v-21Z"></path><path class="cls-10" d="m258.36,936.62h-3.36v-5.08c0-3.95.88-5.29,3.4-5.97l.67,1.85c-1.76.67-2.06,1.09-2.06,3.78v.34h1.34v5.08Zm5.92,0h-3.36v-5.08c0-3.95.88-5.29,3.4-5.97l.67,1.85c-1.77.67-2.06,1.09-2.06,3.78v.34h1.34v5.08Z"></path><path class="cls-10" d="m271.71,926.17h3.23l11.51,20.92h.08l11.51-20.92h3.23v32.77h-2.94v-27.85h-.04l-10.75,19.91h-2.06l-10.79-19.91h-.04v27.85h-2.94v-32.77Z"></path><path class="cls-10" d="m308,935.36c1.76-.67,2.06-1.09,2.06-3.78v-.34h-1.34v-5.08h3.36v5.08c0,3.95-.88,5.29-3.4,5.97l-.67-1.85Zm5.92,0c1.76-.67,2.06-1.09,2.06-3.78v-.34h-1.35v-5.08h3.36v5.08c0,3.95-.88,5.29-3.4,5.97l-.67-1.85Z"></path><path class="cls-10" d="m332.28,953.13c0-3.95,2.23-6.09,7.86-6.09h6.34v-1.72c0-2.98-1.26-5.42-5.46-5.42-3.95,0-5.34,1.51-5.34,4.12v.88h-2.98v-.84c0-5,4.2-6.68,8.32-6.68,5.8,0,8.4,2.86,8.4,8.44v13.11h-2.06l-.55-2.98h-.08c-1.26,1.89-3.7,3.53-7.35,3.53-4.91,0-7.1-2.31-7.1-6.34Zm14.2-1.85v-1.76h-7.02c-2.65,0-4.03.92-4.03,3.61,0,2.35,1.26,3.86,4.5,3.86,4.16,0,6.55-2.14,6.55-5.71Z"></path><path class="cls-10" d="m356.76,937.93h2.61l.29,3.49c1.01-2.14,3.28-4.03,7.35-4.03,4.75,0,7.77,2.52,7.77,7.94v13.61h-2.94v-13.27c0-4.33-2.14-5.71-5.5-5.71-3.82,0-6.64,2.69-6.64,5.63v13.36h-2.94v-21Z"></path><path class="cls-10" d="m380.45,948.47c0-7.1,4.29-11.09,10.04-11.09,3.7,0,6.22,1.6,7.31,3.74h.04v-14.95h2.94v32.77h-1.97l-.67-3.61h-.08c-1.18,2.31-3.95,4.16-7.77,4.16-6.3,0-9.83-3.99-9.83-11.01Zm17.64-.5c0-5.5-3.36-8.07-7.35-8.07-3.11,0-7.14,1.47-7.14,8.4s3.61,8.61,7.14,8.61c4.24,0,7.35-2.73,7.35-8.95Z"></path><path class="cls-10" d="m419.47,936.62h-3.36v-5.08c0-3.95.88-5.29,3.4-5.97l.67,1.85c-1.76.67-2.06,1.09-2.06,3.78v.34h1.34v5.08Zm5.92,0h-3.36v-5.08c0-3.95.88-5.29,3.4-5.97l.67,1.85c-1.76.67-2.06,1.09-2.06,3.78v.34h1.34v5.08Z"></path><path class="cls-10" d="m432.82,926.17h3.15l17.69,27.6h.04v-27.6h2.94v32.77h-3.07l-17.77-27.94h-.04v27.94h-2.94v-32.77Z"></path><path class="cls-10" d="m463.36,935.36c1.76-.67,2.06-1.09,2.06-3.78v-.34h-1.34v-5.08h3.36v5.08c0,3.95-.88,5.29-3.4,5.97l-.67-1.85Zm5.92,0c1.76-.67,2.06-1.09,2.06-3.78v-.34h-1.35v-5.08h3.36v5.08c0,3.95-.88,5.29-3.4,5.97l-.67-1.85Z"></path><path class="cls-10" d="m391.46,2780.73h8.61c7.94,0,11.63,2.73,11.63,9.62,0,6.43-2.77,10.12-11.13,10.12h-6.13v13.02h-2.98v-32.77Zm9.28,17.22c6.09,0,7.94-2.69,7.94-7.65,0-5.21-2.61-6.97-8.44-6.97h-5.8v14.62h6.3Z"></path><path class="cls-10" d="m414.85,2807.7c0-3.95,2.23-6.09,7.86-6.09h6.34v-1.72c0-2.98-1.26-5.42-5.46-5.42-3.95,0-5.34,1.51-5.34,4.12v.88h-2.98v-.84c0-5,4.2-6.68,8.32-6.68,5.8,0,8.4,2.86,8.4,8.44v13.11h-2.06l-.55-2.98h-.08c-1.26,1.89-3.7,3.53-7.35,3.53-4.91,0-7.1-2.31-7.1-6.34Zm14.2-1.85v-1.76h-7.02c-2.65,0-4.03.92-4.03,3.61,0,2.35,1.26,3.86,4.5,3.86,4.16,0,6.55-2.14,6.55-5.71Z"></path><path class="cls-10" d="m439.34,2780.73h2.94v32.77h-2.94v-32.77Z"></path><path class="cls-10" d="m480.33,2799.88v13.61h-2.94v-13.27c0-4.33-2.14-5.71-4.75-5.71-3.82,0-6.18,2.69-6.18,5.63v13.36h-2.94v-13.27c0-4.33-1.85-5.71-4.83-5.71-3.61,0-6.13,2.69-6.13,5.63v13.36h-2.94v-21h2.61l.29,3.49c1.01-2.02,3.07-4.03,6.93-4.03,2.94,0,5.38,1.39,6.43,4.28,1.22-2.39,3.57-4.28,7.14-4.28,4.29,0,7.31,2.52,7.31,7.94Z"></path><path class="cls-10" d="m504.94,2804h-15.96c.17,4.79,2.48,7.48,6.93,7.48,3.82,0,5.67-1.43,5.96-4.83h2.98c-.29,4.24-3.28,7.39-9.03,7.39-7.06,0-9.83-4.66-9.83-10.88s3.23-11.22,10-11.22,8.95,3.99,8.95,10.21v1.85Zm-3.11-2.98c0-4.45-1.72-6.55-5.92-6.55s-6.55,2.65-6.89,6.97h12.81v-.42Z"></path><path class="cls-10" d="m510.82,2792.49h2.6l.29,3.91c1.01-2.14,3.07-4.45,6.76-4.45,1.26,0,2.18.21,3.02.55v3.15c-1.13-.5-2.1-.76-3.4-.76-3.74,0-6.34,2.81-6.34,5.75v12.85h-2.94v-21Z"></path><path class="cls-10" d="m535.89,2807.07v-1.18h2.94v1.13c0,2.86,2.14,4.5,5.96,4.5s5.8-1.01,5.8-3.78c0-2.06-1.01-2.81-3.86-3.32l-4.62-.84c-3.03-.55-5.54-2.02-5.54-5.5,0-3.15,2.35-6.13,8.4-6.13s8.4,3.02,8.4,7.22v.88h-2.98v-.76c0-3.44-2.14-4.91-5.42-4.91-3.95,0-5.33,1.34-5.33,3.36s1.01,2.86,3.91,3.4l4.03.76c4.12.76,6.09,1.93,6.09,5.59,0,4.58-4.12,6.55-8.78,6.55-7.31,0-8.99-3.28-8.99-6.97Z"></path><path class="cls-10" d="m570.5,2810.8v2.6c-.76.21-2.14.59-4.03.59-3.82,0-6.34-1.6-6.34-6.89v-12.18h-4.16v-2.44h4.16v-6.05l2.94-1.43v7.48h5.92v2.44h-5.92v11.8c0,2.81.76,4.58,3.4,4.58,1.6,0,3.23-.29,4.03-.5Z"></path><path class="cls-10" d="m575.54,2792.49l6.89,17.98h.08l7.14-17.98h3.07v.04l-8.86,20.84-3.11,8.53h-2.98v-.04l3.19-8.36-8.78-20.96v-.04h3.36Z"></path><path class="cls-10" d="m596.92,2780.73h2.94v32.77h-2.94v-32.77Z"></path><path class="cls-10" d="m624.47,2804h-15.96c.17,4.79,2.48,7.48,6.93,7.48,3.82,0,5.67-1.43,5.96-4.83h2.98c-.29,4.24-3.28,7.39-9.03,7.39-7.06,0-9.83-4.66-9.83-10.88s3.23-11.22,10-11.22,8.95,3.99,8.95,10.21v1.85Zm-3.11-2.98c0-4.45-1.72-6.55-5.92-6.55s-6.55,2.65-6.89,6.97h12.81v-.42Z"></path><path class="cls-10" d="m641.69,2791.19h-3.36v-5.08c0-3.95.88-5.29,3.4-5.97l.67,1.85c-1.76.67-2.06,1.09-2.06,3.78v.34h1.34v5.08Zm5.92,0h-3.36v-5.08c0-3.95.88-5.29,3.4-5.97l.67,1.85c-1.76.67-2.06,1.09-2.06,3.78v.34h1.34v5.08Z"></path><path class="cls-10" d="m652.74,2797.28c0-11.85,6.51-17.1,14.49-17.1,7.56,0,12.64,3.78,12.64,11.47v.5h-2.86v-.63c0-5.33-3.49-8.7-9.7-8.7-6.72,0-11.47,4.58-11.47,14.28s4.75,14.28,11.76,14.28c5.63,0,9.45-2.52,9.45-8.78v-2.73h-9.83v-2.6h12.64v16.21h-2.1l-.67-3.74c-1.6,2.48-5.17,4.29-9.75,4.29-8.32,0-14.62-4.87-14.62-16.76Z"></path><path class="cls-10" d="m684.7,2789.93c1.76-.67,2.06-1.09,2.06-3.78v-.34h-1.34v-5.08h3.36v5.08c0,3.95-.88,5.29-3.4,5.97l-.67-1.85Zm5.92,0c1.76-.67,2.06-1.09,2.06-3.78v-.34h-1.35v-5.08h3.36v5.08c0,3.95-.88,5.29-3.4,5.97l-.67-1.85Z"></path><path class="cls-10" d="m140.21,2691c0-11.72,6.76-16.93,15.46-16.93,7.94,0,14.7,5.21,14.7,16.59,0,12.48-6.76,17.26-15.08,17.26s-15.08-4.79-15.08-16.93Zm27.05,0c0-10.12-5.34-14.24-12.01-14.24s-11.93,4.12-11.93,14.24,5.34,14.2,12.02,14.2,11.93-3.74,11.93-14.2Z"></path><path class="cls-10" d="m176.67,2686.38h2.61l.29,3.91c1.01-2.14,3.07-4.45,6.76-4.45,1.26,0,2.19.21,3.03.55v3.15c-1.13-.5-2.1-.76-3.4-.76-3.74,0-6.34,2.81-6.34,5.75v12.85h-2.94v-21Z"></path><path class="cls-10" d="m193.97,2686.38h2.6l.29,3.49c1.01-2.14,3.28-4.03,7.35-4.03,4.75,0,7.77,2.52,7.77,7.94v13.61h-2.94v-13.27c0-4.33-2.14-5.71-5.5-5.71-3.82,0-6.64,2.69-6.64,5.63v13.36h-2.94v-21Z"></path><path class="cls-10" d="m218.08,2701.58c0-3.95,2.23-6.09,7.86-6.09h6.34v-1.72c0-2.98-1.26-5.42-5.46-5.42-3.95,0-5.34,1.51-5.34,4.12v.88h-2.98v-.84c0-5,4.2-6.68,8.32-6.68,5.8,0,8.4,2.86,8.4,8.44v13.11h-2.06l-.55-2.98h-.08c-1.26,1.89-3.7,3.53-7.35,3.53-4.91,0-7.1-2.31-7.1-6.34Zm14.2-1.85v-1.76h-7.02c-2.65,0-4.03.92-4.03,3.61,0,2.35,1.26,3.86,4.5,3.86,4.16,0,6.55-2.14,6.55-5.71Z"></path><path class="cls-10" d="m253.32,2704.69v2.6c-.76.21-2.14.59-4.03.59-3.82,0-6.34-1.6-6.34-6.89v-12.18h-4.16v-2.44h4.16v-6.05l2.94-1.43v7.48h5.92v2.44h-5.92v11.8c0,2.81.76,4.58,3.4,4.58,1.6,0,3.23-.29,4.03-.5Z"></path><path class="cls-10" d="m274.78,2697.89h-15.96c.17,4.79,2.48,7.48,6.93,7.48,3.82,0,5.67-1.43,5.96-4.83h2.98c-.29,4.24-3.28,7.39-9.03,7.39-7.06,0-9.83-4.66-9.83-10.88s3.23-11.22,10-11.22,8.95,3.99,8.95,10.21v1.85Zm-3.11-2.98c0-4.45-1.72-6.55-5.92-6.55s-6.55,2.65-6.89,6.97h12.81v-.42Z"></path><path class="cls-10" d="m289.9,2699.99v-13.61h2.94v13.27c0,4.33,2.14,5.71,5.42,5.71,3.74,0,6.55-2.69,6.55-5.63v-13.36h2.94v21h-2.61l-.25-3.36h-.08c-.97,2.02-3.23,3.91-7.22,3.91-4.66,0-7.69-2.52-7.69-7.94Z"></path><path class="cls-10" d="m315.1,2686.38h2.39l.34,3.86h.08c1.13-2.48,4.03-4.41,7.86-4.41,6.3,0,9.66,3.99,9.66,11.01s-4.29,11.09-9.87,11.09c-3.78,0-6.38-1.6-7.44-3.7h-.08v11.55h-2.94v-29.41Zm17.18,10.63c0-7.18-3.4-8.61-6.93-8.61-4.24,0-7.56,2.73-7.56,8.44,0,6.01,3.45,8.57,7.44,8.57,3.02,0,7.06-1.47,7.06-8.4Z"></path><path class="cls-10" d="m341.31,2686.38h2.39l.34,3.86h.08c1.13-2.48,4.03-4.41,7.86-4.41,6.3,0,9.66,3.99,9.66,11.01s-4.29,11.09-9.87,11.09c-3.78,0-6.38-1.6-7.43-3.7h-.08v11.55h-2.94v-29.41Zm17.18,10.63c0-7.18-3.4-8.61-6.93-8.61-4.24,0-7.56,2.73-7.56,8.44,0,6.01,3.45,8.57,7.44,8.57,3.03,0,7.06-1.47,7.06-8.4Z"></path><path class="cls-10" d="m384.78,2697.89h-15.96c.17,4.79,2.48,7.48,6.93,7.48,3.82,0,5.67-1.43,5.96-4.83h2.98c-.29,4.24-3.28,7.39-9.03,7.39-7.06,0-9.83-4.66-9.83-10.88s3.23-11.22,10-11.22,8.95,3.99,8.95,10.21v1.85Zm-3.11-2.98c0-4.45-1.72-6.55-5.92-6.55s-6.55,2.65-6.89,6.97h12.81v-.42Z"></path><path class="cls-10" d="m390.66,2686.38h2.6l.29,3.91c1.01-2.14,3.07-4.45,6.76-4.45,1.26,0,2.18.21,3.02.55v3.15c-1.13-.5-2.1-.76-3.4-.76-3.74,0-6.34,2.81-6.34,5.75v12.85h-2.94v-21Z"></path><path class="cls-10" d="m405.65,2697.05c0-6.38,3.23-11.22,10-11.22s8.95,3.91,8.95,8.95v.42h-3.11v-.63c0-3.82-1.64-6.09-5.84-6.09-4.75,0-7.02,3.11-7.02,8.4,0,5.63,2.39,8.49,6.93,8.49,3.82,0,5.84-1.85,5.92-5.67h3.02c-.08,4.66-3.15,8.23-9.03,8.23-7.22,0-9.83-4.75-9.83-10.88Z"></path><path class="cls-10" d="m429,2701.58c0-3.95,2.23-6.09,7.86-6.09h6.34v-1.72c0-2.98-1.26-5.42-5.46-5.42-3.95,0-5.34,1.51-5.34,4.12v.88h-2.98v-.84c0-5,4.2-6.68,8.32-6.68,5.8,0,8.4,2.86,8.4,8.44v13.11h-2.06l-.55-2.98h-.08c-1.26,1.89-3.7,3.53-7.35,3.53-4.91,0-7.1-2.31-7.1-6.34Zm14.2-1.85v-1.76h-7.02c-2.65,0-4.03.92-4.03,3.61,0,2.35,1.26,3.86,4.5,3.86,4.16,0,6.55-2.14,6.55-5.71Z"></path><path class="cls-10" d="m451.6,2700.95v-1.18h2.94v1.13c0,2.86,2.14,4.5,5.96,4.5s5.8-1.01,5.8-3.78c0-2.06-1.01-2.81-3.87-3.32l-4.62-.84c-3.02-.55-5.54-2.02-5.54-5.5,0-3.15,2.35-6.13,8.4-6.13s8.4,3.02,8.4,7.22v.88h-2.98v-.76c0-3.44-2.14-4.91-5.42-4.91-3.95,0-5.34,1.34-5.34,3.36s1.01,2.86,3.91,3.4l4.03.76c4.12.76,6.09,1.93,6.09,5.59,0,4.58-4.12,6.55-8.78,6.55-7.31,0-8.99-3.28-8.99-6.97Z"></path><path class="cls-10" d="m492.51,2697.89h-15.96c.17,4.79,2.48,7.48,6.93,7.48,3.82,0,5.67-1.43,5.96-4.83h2.98c-.29,4.24-3.28,7.39-9.03,7.39-7.06,0-9.83-4.66-9.83-10.88s3.23-11.22,10-11.22,8.95,3.99,8.95,10.21v1.85Zm-3.11-2.98c0-4.45-1.72-6.55-5.92-6.55s-6.55,2.65-6.89,6.97h12.81v-.42Z"></path><path class="cls-10" d="m508.05,2674.61h2.94v32.77h-2.94v-32.77Z"></path><path class="cls-10" d="m535.6,2697.89h-15.96c.17,4.79,2.48,7.48,6.93,7.48,3.82,0,5.67-1.43,5.96-4.83h2.98c-.29,4.24-3.28,7.39-9.03,7.39-7.06,0-9.83-4.66-9.83-10.88s3.23-11.22,10-11.22,8.95,3.99,8.95,10.21v1.85Zm-3.11-2.98c0-4.45-1.72-6.55-5.92-6.55s-6.55,2.65-6.89,6.97h12.81v-.42Z"></path><path class="cls-10" d="m542.07,2700.99v-12.18h-4.16v-2.44h4.16v-6.05l2.94-1.43v7.48h11.85v-6.05l2.94-1.43v7.48h5.92v2.44h-5.92v11.8c0,2.81.76,4.58,3.4,4.58,1.6,0,3.24-.29,4.03-.5v2.6c-.76.21-2.14.59-4.03.59-3.82,0-6.34-1.6-6.34-6.89v-12.18h-11.85v11.8c0,2.81.76,4.58,3.4,4.58,1.6,0,3.23-.29,4.03-.5v2.6c-.76.21-2.14.59-4.03.59-3.82,0-6.34-1.6-6.34-6.89Z"></path><path class="cls-10" d="m588.69,2697.89h-15.96c.17,4.79,2.48,7.48,6.93,7.48,3.82,0,5.67-1.43,5.96-4.83h2.98c-.29,4.24-3.28,7.39-9.03,7.39-7.06,0-9.83-4.66-9.83-10.88s3.23-11.22,10-11.22,8.95,3.99,8.95,10.21v1.85Zm-3.11-2.98c0-4.45-1.72-6.55-5.92-6.55s-6.55,2.65-6.89,6.97h12.81v-.42Z"></path><path class="cls-10" d="m594.57,2686.38h2.6l.29,3.91c1.01-2.14,3.07-4.45,6.76-4.45,1.26,0,2.18.21,3.02.55v3.15c-1.13-.5-2.1-.76-3.4-.76-3.74,0-6.34,2.81-6.34,5.75v12.85h-2.94v-21Z"></path><path class="cls-10" d="m609.77,2700.95v-1.18h2.94v1.13c0,2.86,2.14,4.5,5.96,4.5s5.8-1.01,5.8-3.78c0-2.06-1.01-2.81-3.86-3.32l-4.62-.84c-3.03-.55-5.54-2.02-5.54-5.5,0-3.15,2.35-6.13,8.4-6.13s8.4,3.02,8.4,7.22v.88h-2.98v-.76c0-3.44-2.14-4.91-5.42-4.91-3.95,0-5.33,1.34-5.33,3.36s1.01,2.86,3.91,3.4l4.03.76c4.12.76,6.09,1.93,6.09,5.59,0,4.58-4.12,6.55-8.78,6.55-7.31,0-8.99-3.28-8.99-6.97Z"></path><path class="cls-10" d="m1083.97,1832.59h2.94v30.12h15.71v2.65h-18.65v-32.77Z"></path><path class="cls-10" d="m1105.77,1854.86c0-6.22,3.32-11.05,10.38-11.05,6.6,0,10.25,4.83,10.25,11.05s-3.7,11.05-10.29,11.05c-7.27,0-10.33-4.83-10.33-11.05Zm17.56,0c0-5.33-2.9-8.49-7.22-8.49-4.75,0-7.27,3.15-7.27,8.49s2.56,8.49,7.27,8.49c4.33,0,7.22-3.15,7.22-8.49Z"></path><path class="cls-10" d="m1130.59,1854.86c0-6.22,3.32-11.05,10.38-11.05,6.6,0,10.25,4.83,10.25,11.05s-3.7,11.05-10.29,11.05c-7.27,0-10.33-4.83-10.33-11.05Zm17.56,0c0-5.33-2.9-8.49-7.22-8.49-4.75,0-7.27,3.15-7.27,8.49s2.56,8.49,7.27,8.49c4.33,0,7.22-3.15,7.22-8.49Z"></path><path class="cls-10" d="m1157.1,1844.35h2.39l.34,3.86h.08c1.13-2.48,4.03-4.41,7.86-4.41,6.3,0,9.66,3.99,9.66,11.01s-4.29,11.09-9.87,11.09c-3.78,0-6.39-1.6-7.44-3.7h-.08v11.55h-2.94v-29.41Zm17.18,10.63c0-7.18-3.4-8.61-6.93-8.61-4.24,0-7.56,2.73-7.56,8.44,0,6.01,3.44,8.57,7.43,8.57,3.03,0,7.06-1.47,7.06-8.4Z"></path><path class="cls-10" d="m1181.41,1858.93v-1.18h2.94v1.13c0,2.86,2.14,4.5,5.96,4.5s5.8-1.01,5.8-3.78c0-2.06-1.01-2.81-3.86-3.32l-4.62-.84c-3.03-.55-5.54-2.02-5.54-5.5,0-3.15,2.35-6.13,8.4-6.13s8.4,3.02,8.4,7.23v.88h-2.98v-.76c0-3.44-2.14-4.91-5.42-4.91-3.95,0-5.33,1.34-5.33,3.36s1.01,2.86,3.91,3.4l4.03.76c4.12.76,6.09,1.93,6.09,5.59,0,4.58-4.12,6.55-8.78,6.55-7.31,0-8.99-3.28-8.99-6.97Z"></path><path class="cls-10" d="m1214.72,1832.59h2.98v6.51h-2.98v-6.51Zm0,11.76h2.94v21h-2.94v-21Z"></path><path class="cls-10" d="m1225.05,1844.35h2.61l.29,3.49c1.01-2.14,3.28-4.03,7.35-4.03,4.75,0,7.77,2.52,7.77,7.94v13.61h-2.94v-13.27c0-4.33-2.14-5.71-5.5-5.71-3.82,0-6.64,2.69-6.64,5.63v13.36h-2.94v-21Z"></path><path class="cls-10" d="m1258.82,1859.56c0-3.95,2.23-6.09,7.86-6.09h6.34v-1.72c0-2.98-1.26-5.42-5.46-5.42-3.95,0-5.33,1.51-5.33,4.12v.88h-2.98v-.84c0-5,4.2-6.68,8.32-6.68,5.8,0,8.4,2.86,8.4,8.44v13.11h-2.06l-.55-2.98h-.08c-1.26,1.89-3.7,3.53-7.35,3.53-4.92,0-7.1-2.31-7.1-6.34Zm14.2-1.85v-1.76h-7.01c-2.65,0-4.03.92-4.03,3.61,0,2.35,1.26,3.86,4.49,3.86,4.16,0,6.55-2.14,6.55-5.71Z"></path><path class="cls-10" d="m1281.42,1858.93v-1.18h2.94v1.13c0,2.86,2.14,4.5,5.96,4.5s5.8-1.01,5.8-3.78c0-2.06-1.01-2.81-3.86-3.32l-4.62-.84c-3.03-.55-5.54-2.02-5.54-5.5,0-3.15,2.35-6.13,8.4-6.13s8.4,3.02,8.4,7.23v.88h-2.98v-.76c0-3.44-2.14-4.91-5.42-4.91-3.95,0-5.33,1.34-5.33,3.36s1.01,2.86,3.91,3.4l4.03.76c4.12.76,6.09,1.93,6.09,5.59,0,4.58-4.12,6.55-8.78,6.55-7.31,0-8.99-3.28-8.99-6.97Z"></path><path class="cls-10" d="m1303.38,1855.02c0-6.38,3.23-11.22,10-11.22s8.95,3.91,8.95,8.95v.42h-3.11v-.63c0-3.82-1.64-6.09-5.84-6.09-4.75,0-7.02,3.11-7.02,8.4,0,5.63,2.39,8.49,6.93,8.49,3.82,0,5.84-1.85,5.92-5.67h3.02c-.08,4.66-3.15,8.23-9.03,8.23-7.22,0-9.83-4.75-9.83-10.88Z"></path><path class="cls-10" d="m1345.47,1855.87h-15.96c.17,4.79,2.48,7.48,6.93,7.48,3.82,0,5.67-1.43,5.96-4.83h2.98c-.29,4.24-3.28,7.39-9.03,7.39-7.06,0-9.83-4.66-9.83-10.88s3.23-11.22,10-11.22,8.95,3.99,8.95,10.21v1.85Zm-3.11-2.98c0-4.45-1.72-6.55-5.92-6.55s-6.55,2.65-6.89,6.97h12.81v-.42Z"></path><path class="cls-10" d="m1351.35,1844.35h2.6l.29,3.49c1.01-2.14,3.28-4.03,7.35-4.03,4.75,0,7.77,2.52,7.77,7.94v13.61h-2.94v-13.27c0-4.33-2.14-5.71-5.5-5.71-3.82,0-6.64,2.69-6.64,5.63v13.36h-2.94v-21Z"></path><path class="cls-10" d="m1375.03,1854.9c0-7.1,4.29-11.09,10.04-11.09,3.7,0,6.22,1.6,7.31,3.74h.04v-14.95h2.94v32.77h-1.97l-.67-3.61h-.08c-1.18,2.31-3.95,4.16-7.77,4.16-6.3,0-9.83-3.99-9.83-11.01Zm17.64-.5c0-5.5-3.36-8.07-7.35-8.07-3.11,0-7.14,1.47-7.14,8.4s3.61,8.61,7.14,8.61c4.24,0,7.35-2.73,7.35-8.95Z"></path><path class="cls-10" d="m1419.98,1855.87h-15.96c.17,4.79,2.48,7.48,6.93,7.48,3.82,0,5.67-1.43,5.96-4.83h2.98c-.29,4.24-3.28,7.39-9.03,7.39-7.06,0-9.83-4.66-9.83-10.88s3.23-11.22,10-11.22,8.95,3.99,8.95,10.21v1.85Zm-3.11-2.98c0-4.45-1.72-6.55-5.92-6.55s-6.55,2.65-6.89,6.97h12.81v-.42Z"></path><path class="cls-10" d="m1425.85,1844.35h2.6l.29,3.91c1.01-2.14,3.07-4.45,6.76-4.45,1.26,0,2.18.21,3.02.55v3.15c-1.13-.5-2.1-.76-3.4-.76-3.74,0-6.34,2.81-6.34,5.75v12.85h-2.94v-21Z"></path><path class="cls-10" d="m1441.06,1858.93v-1.18h2.94v1.13c0,2.86,2.14,4.5,5.96,4.5s5.8-1.01,5.8-3.78c0-2.06-1.01-2.81-3.86-3.32l-4.62-.84c-3.03-.55-5.54-2.02-5.54-5.5,0-3.15,2.35-6.13,8.4-6.13s8.4,3.02,8.4,7.23v.88h-2.98v-.76c0-3.44-2.14-4.91-5.42-4.91-3.95,0-5.33,1.34-5.33,3.36s1.01,2.86,3.91,3.4l4.03.76c4.12.76,6.09,1.93,6.09,5.59,0,4.58-4.12,6.55-8.78,6.55-7.31,0-8.99-3.28-8.99-6.97Z"></path><path class="cls-10" d="m1473.1,1859.56c0-3.95,2.23-6.09,7.86-6.09h6.34v-1.72c0-2.98-1.26-5.42-5.46-5.42-3.95,0-5.34,1.51-5.34,4.12v.88h-2.98v-.84c0-5,4.2-6.68,8.32-6.68,5.8,0,8.4,2.86,8.4,8.44v13.11h-2.06l-.55-2.98h-.08c-1.26,1.89-3.7,3.53-7.35,3.53-4.91,0-7.1-2.31-7.1-6.34Zm14.2-1.85v-1.76h-7.02c-2.65,0-4.03.92-4.03,3.61,0,2.35,1.26,3.86,4.5,3.86,4.16,0,6.55-2.14,6.55-5.71Z"></path><path class="cls-10" d="m1497.59,1844.35h2.6l.29,3.49c1.01-2.14,3.28-4.03,7.35-4.03,4.75,0,7.77,2.52,7.77,7.94v13.61h-2.94v-13.27c0-4.33-2.14-5.71-5.5-5.71-3.82,0-6.64,2.69-6.64,5.63v13.36h-2.94v-21Z"></path><path class="cls-10" d="m1521.28,1854.9c0-7.1,4.29-11.09,10.04-11.09,3.7,0,6.22,1.6,7.31,3.74h.04v-14.95h2.94v32.77h-1.97l-.67-3.61h-.08c-1.18,2.31-3.95,4.16-7.77,4.16-6.3,0-9.83-3.99-9.83-11.01Zm17.64-.5c0-5.5-3.36-8.07-7.35-8.07-3.11,0-7.14,1.47-7.14,8.4s3.61,8.61,7.14,8.61c4.24,0,7.35-2.73,7.35-8.95Z"></path><path class="cls-10" d="m1556.94,1854.9c0-7.1,4.29-11.09,10.04-11.09,3.7,0,6.22,1.6,7.31,3.74h.04v-14.95h2.94v32.77h-1.97l-.67-3.61h-.08c-1.18,2.31-3.95,4.16-7.77,4.16-6.3,0-9.83-3.99-9.83-11.01Zm17.64-.5c0-5.5-3.36-8.07-7.35-8.07-3.11,0-7.14,1.47-7.14,8.4s3.61,8.61,7.14,8.61c4.24,0,7.35-2.73,7.35-8.95Z"></path><path class="cls-10" d="m1601.88,1855.87h-15.96c.17,4.79,2.48,7.48,6.93,7.48,3.82,0,5.67-1.43,5.96-4.83h2.98c-.29,4.24-3.28,7.39-9.03,7.39-7.06,0-9.83-4.66-9.83-10.88s3.23-11.22,10-11.22,8.95,3.99,8.95,10.21v1.85Zm-3.11-2.98c0-4.45-1.72-6.55-5.92-6.55s-6.55,2.65-6.89,6.97h12.81v-.42Z"></path><path class="cls-10" d="m1605.87,1858.93v-1.18h2.94v1.13c0,2.86,2.14,4.5,5.96,4.5s5.8-1.01,5.8-3.78c0-2.06-1.01-2.81-3.87-3.32l-4.62-.84c-3.02-.55-5.54-2.02-5.54-5.5,0-3.15,2.35-6.13,8.4-6.13s8.4,3.02,8.4,7.23v.88h-2.98v-.76c0-3.44-2.14-4.91-5.42-4.91-3.95,0-5.34,1.34-5.34,3.36s1.01,2.86,3.91,3.4l4.03.76c4.12.76,6.09,1.93,6.09,5.59,0,4.58-4.12,6.55-8.78,6.55-7.31,0-8.99-3.28-8.99-6.97Z"></path><path class="cls-10" d="m1627.83,1855.02c0-6.38,3.23-11.22,10-11.22s8.95,3.91,8.95,8.95v.42h-3.11v-.63c0-3.82-1.64-6.09-5.84-6.09-4.75,0-7.02,3.11-7.02,8.4,0,5.63,2.39,8.49,6.93,8.49,3.82,0,5.84-1.85,5.92-5.67h3.03c-.08,4.66-3.15,8.23-9.03,8.23-7.22,0-9.83-4.75-9.83-10.88Z"></path><path class="cls-10" d="m1669.92,1855.87h-15.96c.17,4.79,2.48,7.48,6.93,7.48,3.82,0,5.67-1.43,5.96-4.83h2.98c-.29,4.24-3.28,7.39-9.03,7.39-7.06,0-9.83-4.66-9.83-10.88s3.23-11.22,10-11.22,8.95,3.99,8.95,10.21v1.85Zm-3.11-2.98c0-4.45-1.72-6.55-5.92-6.55s-6.55,2.65-6.89,6.97h12.81v-.42Z"></path><path class="cls-10" d="m1675.79,1844.35h2.61l.29,3.49c1.01-2.14,3.28-4.03,7.35-4.03,4.75,0,7.77,2.52,7.77,7.94v13.61h-2.94v-13.27c0-4.33-2.14-5.71-5.5-5.71-3.82,0-6.64,2.69-6.64,5.63v13.36h-2.94v-21Z"></path><path class="cls-10" d="m1699.48,1854.9c0-7.1,4.28-11.09,10.04-11.09,3.7,0,6.22,1.6,7.31,3.74h.04v-14.95h2.94v32.77h-1.97l-.67-3.61h-.08c-1.18,2.31-3.95,4.16-7.77,4.16-6.3,0-9.83-3.99-9.83-11.01Zm17.64-.5c0-5.5-3.36-8.07-7.35-8.07-3.11,0-7.14,1.47-7.14,8.4s3.61,8.61,7.14,8.61c4.24,0,7.35-2.73,7.35-8.95Z"></path><path class="cls-10" d="m1744.43,1855.87h-15.96c.17,4.79,2.48,7.48,6.93,7.48,3.82,0,5.67-1.43,5.97-4.83h2.98c-.29,4.24-3.28,7.39-9.03,7.39-7.06,0-9.83-4.66-9.83-10.88s3.23-11.22,10-11.22,8.95,3.99,8.95,10.21v1.85Zm-3.11-2.98c0-4.45-1.72-6.55-5.92-6.55s-6.55,2.65-6.89,6.97h12.81v-.42Z"></path><path class="cls-10" d="m1750.3,1844.35h2.61l.29,3.91c1.01-2.14,3.07-4.45,6.76-4.45,1.26,0,2.19.21,3.03.55v3.15c-1.13-.5-2.1-.76-3.4-.76-3.74,0-6.34,2.81-6.34,5.75v12.85h-2.94v-21Z"></path><path class="cls-10" d="m1765.51,1858.93v-1.18h2.94v1.13c0,2.86,2.14,4.5,5.96,4.5s5.8-1.01,5.8-3.78c0-2.06-1.01-2.81-3.86-3.32l-4.62-.84c-3.03-.55-5.54-2.02-5.54-5.5,0-3.15,2.35-6.13,8.4-6.13s8.4,3.02,8.4,7.23v.88h-2.98v-.76c0-3.44-2.14-4.91-5.42-4.91-3.95,0-5.33,1.34-5.33,3.36s1.01,2.86,3.91,3.4l4.03.76c4.12.76,6.09,1.93,6.09,5.59,0,4.58-4.12,6.55-8.78,6.55-7.31,0-8.99-3.28-8.99-6.97Z"></path><path class="cls-10" d="m264.41,1849.31c0-12.01,6.76-17.27,14.75-17.27,6.97,0,12.39,3.74,12.39,12.01v.8h-2.86v-.92c0-5.92-3.78-9.24-9.45-9.24-6.72,0-11.76,4.58-11.76,14.32s5.04,14.24,11.72,14.24c5.38,0,9.54-2.86,9.54-9.2v-.59h2.77v.42c0,8.02-5.34,12.01-12.56,12.01-7.98,0-14.54-4.87-14.54-16.59Z"></path><path class="cls-10" d="m297.42,1857.97v-13.61h2.94v13.27c0,4.33,2.14,5.71,5.42,5.71,3.74,0,6.55-2.69,6.55-5.63v-13.36h2.94v21h-2.6l-.25-3.36h-.08c-.97,2.02-3.24,3.91-7.23,3.91-4.66,0-7.69-2.52-7.69-7.94Z"></path><path class="cls-10" d="m322.62,1844.35h2.6l.29,3.91c1.01-2.14,3.07-4.45,6.76-4.45,1.26,0,2.18.21,3.02.55v3.15c-1.13-.5-2.1-.76-3.4-.76-3.74,0-6.34,2.81-6.34,5.75v12.85h-2.94v-21Z"></path><path class="cls-10" d="m336.77,1844.4v-.04h3.36l7.35,17.98h.08l7.1-17.98h3.07v.04l-8.74,20.96h-3.02l-9.2-20.96Z"></path><path class="cls-10" d="m378.57,1855.87h-15.96c.17,4.79,2.48,7.48,6.93,7.48,3.82,0,5.67-1.43,5.96-4.83h2.98c-.29,4.24-3.28,7.39-9.03,7.39-7.06,0-9.83-4.66-9.83-10.88s3.23-11.22,10-11.22,8.95,3.99,8.95,10.21v1.85Zm-3.11-2.98c0-4.45-1.72-6.55-5.92-6.55s-6.55,2.65-6.89,6.97h12.81v-.42Z"></path><path class="cls-10" d="m382.76,1854.9c0-7.1,4.28-11.09,10.04-11.09,3.7,0,6.22,1.6,7.31,3.74h.04v-14.95h2.94v32.77h-1.97l-.67-3.61h-.08c-1.18,2.31-3.95,4.16-7.77,4.16-6.3,0-9.83-3.99-9.83-11.01Zm17.64-.5c0-5.5-3.36-8.07-7.35-8.07-3.11,0-7.14,1.47-7.14,8.4s3.61,8.61,7.14,8.61c4.24,0,7.35-2.73,7.35-8.95Z"></path><path class="cls-10" d="m437.37,1855.87h-15.96c.17,4.79,2.48,7.48,6.93,7.48,3.82,0,5.67-1.43,5.96-4.83h2.98c-.29,4.24-3.28,7.39-9.03,7.39-7.06,0-9.83-4.66-9.83-10.88s3.23-11.22,10-11.22,8.95,3.99,8.95,10.21v1.85Zm-3.11-2.98c0-4.45-1.72-6.55-5.92-6.55s-6.55,2.65-6.89,6.97h12.81v-.42Z"></path><path class="cls-10" d="m443.25,1844.35h2.6l.29,3.49c1.01-2.14,3.28-4.03,7.35-4.03,4.75,0,7.77,2.52,7.77,7.94v13.61h-2.94v-13.27c0-4.33-2.14-5.71-5.5-5.71-3.82,0-6.64,2.69-6.64,5.63v13.36h-2.94v-21Z"></path><path class="cls-10" d="m479.58,1862.67v2.6c-.76.21-2.14.59-4.03.59-3.82,0-6.34-1.6-6.34-6.89v-12.18h-4.16v-2.44h4.16v-6.05l2.94-1.43v7.48h5.92v2.44h-5.92v11.8c0,2.81.76,4.58,3.4,4.58,1.6,0,3.23-.29,4.03-.5Z"></path><path class="cls-10" d="m484.4,1844.35h2.61l.29,3.91c1.01-2.14,3.07-4.45,6.76-4.45,1.26,0,2.18.21,3.02.55v3.15c-1.13-.5-2.1-.76-3.4-.76-3.74,0-6.34,2.81-6.34,5.75v12.85h-2.94v-21Z"></path><path class="cls-10" d="m501.92,1844.35l6.89,17.98h.08l7.14-17.98h3.07v.04l-8.86,20.84-3.11,8.53h-2.98v-.04l3.19-8.36-8.78-20.96v-.04h3.36Z"></path><path class="cls-10" d="m531.07,1858.93v-1.18h2.94v1.13c0,2.86,2.14,4.5,5.96,4.5s5.8-1.01,5.8-3.78c0-2.06-1.01-2.81-3.86-3.32l-4.62-.84c-3.02-.55-5.54-2.02-5.54-5.5,0-3.15,2.35-6.13,8.4-6.13s8.4,3.02,8.4,7.23v.88h-2.98v-.76c0-3.44-2.14-4.91-5.42-4.91-3.95,0-5.33,1.34-5.33,3.36s1.01,2.86,3.91,3.4l4.03.76c4.12.76,6.09,1.93,6.09,5.59,0,4.58-4.12,6.55-8.78,6.55-7.31,0-8.99-3.28-8.99-6.97Z"></path><path class="cls-10" d="m565.68,1862.67v2.6c-.76.21-2.14.59-4.03.59-3.82,0-6.34-1.6-6.34-6.89v-12.18h-4.16v-2.44h4.16v-6.05l2.94-1.43v7.48h5.92v2.44h-5.92v11.8c0,2.81.76,4.58,3.4,4.58,1.6,0,3.23-.29,4.03-.5Z"></path><path class="cls-10" d="m570.5,1844.35h2.6l.29,3.91c1.01-2.14,3.07-4.45,6.76-4.45,1.26,0,2.18.21,3.02.55v3.15c-1.13-.5-2.1-.76-3.4-.76-3.74,0-6.34,2.81-6.34,5.75v12.85h-2.94v-21Z"></path><path class="cls-10" d="m585.5,1854.86c0-6.22,3.32-11.05,10.38-11.05,6.59,0,10.25,4.83,10.25,11.05s-3.7,11.05-10.29,11.05c-7.27,0-10.33-4.83-10.33-11.05Zm17.56,0c0-5.33-2.9-8.49-7.22-8.49-4.75,0-7.27,3.15-7.27,8.49s2.56,8.49,7.27,8.49c4.33,0,7.22-3.15,7.22-8.49Z"></path><path class="cls-10" d="m611.37,1832.59h2.94v23.23l12.14-11.47h3.65v.04l-8.4,7.86,8.78,13.06v.04h-3.36l-7.39-11.22-5.42,5.04v6.18h-2.94v-32.77Z"></path><path class="cls-10" d="m651.74,1855.87h-15.96c.17,4.79,2.48,7.48,6.93,7.48,3.82,0,5.67-1.43,5.97-4.83h2.98c-.29,4.24-3.28,7.39-9.03,7.39-7.06,0-9.83-4.66-9.83-10.88s3.23-11.22,10-11.22,8.95,3.99,8.95,10.21v1.85Zm-3.11-2.98c0-4.45-1.72-6.55-5.92-6.55s-6.55,2.65-6.89,6.97h12.81v-.42Z"></path><path class="cls-10" d="m655.72,1858.93v-1.18h2.94v1.13c0,2.86,2.14,4.5,5.96,4.5s5.8-1.01,5.8-3.78c0-2.06-1.01-2.81-3.86-3.32l-4.62-.84c-3.02-.55-5.54-2.02-5.54-5.5,0-3.15,2.35-6.13,8.4-6.13s8.4,3.02,8.4,7.23v.88h-2.98v-.76c0-3.44-2.14-4.91-5.42-4.91-3.95,0-5.33,1.34-5.33,3.36s1.01,2.86,3.91,3.4l4.03.76c4.12.76,6.09,1.93,6.09,5.59,0,4.58-4.12,6.55-8.78,6.55-7.31,0-8.99-3.28-8.99-6.97Z"></path><path class="cls-10" d="m689.03,1832.59h2.98v6.51h-2.98v-6.51Zm0,11.76h2.94v21h-2.94v-21Z"></path><path class="cls-10" d="m699.36,1844.35h2.6l.29,3.49c1.01-2.14,3.28-4.03,7.35-4.03,4.75,0,7.77,2.52,7.77,7.94v13.61h-2.94v-13.27c0-4.33-2.14-5.71-5.5-5.71-3.82,0-6.64,2.69-6.64,5.63v13.36h-2.94v-21Z"></path><path class="cls-10" d="m736.07,1843.05h-3.36v-5.08c0-3.95.88-5.29,3.4-5.97l.67,1.85c-1.76.67-2.06,1.09-2.06,3.78v.34h1.34v5.08Zm5.92,0h-3.36v-5.08c0-3.95.88-5.29,3.4-5.97l.67,1.85c-1.76.67-2.06,1.09-2.06,3.78v.34h1.34v5.08Z"></path><path class="cls-10" d="m779.08,1851.75v13.61h-2.94v-13.27c0-4.33-2.14-5.71-4.75-5.71-3.82,0-6.17,2.69-6.17,5.63v13.36h-2.94v-13.27c0-4.33-1.85-5.71-4.83-5.71-3.61,0-6.13,2.69-6.13,5.63v13.36h-2.94v-21h2.6l.29,3.49c1.01-2.02,3.07-4.03,6.93-4.03,2.94,0,5.38,1.39,6.43,4.28,1.22-2.39,3.57-4.28,7.14-4.28,4.29,0,7.31,2.52,7.31,7.94Z"></path><path class="cls-10" d="m783.49,1841.79c1.76-.67,2.06-1.09,2.06-3.78v-.34h-1.34v-5.08h3.36v5.08c0,3.95-.88,5.29-3.4,5.97l-.67-1.85Zm5.92,0c1.76-.67,2.06-1.09,2.06-3.78v-.34h-1.34v-5.08h3.36v5.08c0,3.95-.88,5.29-3.4,5.97l-.67-1.85Z"></path><path class="cls-10" d="m796.42,1859.14h3.36v6.22c0,3.95-.88,5.29-3.4,5.96l-.67-1.85c1.76-.67,2.06-1.09,2.06-3.78v-.34h-1.34v-6.22Z"></path><path class="cls-10" d="m817.42,1843.05h-3.36v-5.08c0-3.95.88-5.29,3.4-5.97l.67,1.85c-1.76.67-2.06,1.09-2.06,3.78v.34h1.34v5.08Zm5.92,0h-3.36v-5.08c0-3.95.88-5.29,3.4-5.97l.67,1.85c-1.76.67-2.06,1.09-2.06,3.78v.34h1.34v5.08Z"></path><path class="cls-10" d="m829.73,1844.35h2.6l.29,3.49c1.01-2.14,3.28-4.03,7.35-4.03,4.75,0,7.77,2.52,7.77,7.94v13.61h-2.94v-13.27c0-4.33-2.14-5.71-5.5-5.71-3.82,0-6.64,2.69-6.64,5.63v13.36h-2.94v-21Z"></path><path class="cls-10" d="m852.16,1841.79c1.76-.67,2.06-1.09,2.06-3.78v-.34h-1.34v-5.08h3.36v5.08c0,3.95-.88,5.29-3.4,5.97l-.67-1.85Zm5.92,0c1.76-.67,2.06-1.09,2.06-3.78v-.34h-1.34v-5.08h3.36v5.08c0,3.95-.88,5.29-3.4,5.97l-.67-1.85Z"></path><path class="cls-10" d="m876.43,1859.56c0-3.95,2.23-6.09,7.86-6.09h6.34v-1.72c0-2.98-1.26-5.42-5.46-5.42-3.95,0-5.33,1.51-5.33,4.12v.88h-2.98v-.84c0-5,4.2-6.68,8.32-6.68,5.8,0,8.4,2.86,8.4,8.44v13.11h-2.06l-.55-2.98h-.08c-1.26,1.89-3.7,3.53-7.35,3.53-4.92,0-7.1-2.31-7.1-6.34Zm14.2-1.85v-1.76h-7.01c-2.65,0-4.03.92-4.03,3.61,0,2.35,1.26,3.86,4.5,3.86,4.16,0,6.55-2.14,6.55-5.71Z"></path><path class="cls-10" d="m900.92,1844.35h2.6l.29,3.49c1.01-2.14,3.28-4.03,7.35-4.03,4.75,0,7.77,2.52,7.77,7.94v13.61h-2.94v-13.27c0-4.33-2.14-5.71-5.5-5.71-3.82,0-6.64,2.69-6.64,5.63v13.36h-2.94v-21Z"></path><path class="cls-10" d="m924.61,1854.9c0-7.1,4.28-11.09,10.04-11.09,3.7,0,6.22,1.6,7.31,3.74h.04v-14.95h2.94v32.77h-1.97l-.67-3.61h-.08c-1.18,2.31-3.95,4.16-7.77,4.16-6.3,0-9.83-3.99-9.83-11.01Zm17.64-.5c0-5.5-3.36-8.07-7.35-8.07-3.11,0-7.14,1.47-7.14,8.4s3.61,8.61,7.14,8.61c4.24,0,7.35-2.73,7.35-8.95Z"></path><path class="cls-10" d="m963.62,1843.05h-3.36v-5.08c0-3.95.88-5.29,3.4-5.97l.67,1.85c-1.76.67-2.06,1.09-2.06,3.78v.34h1.34v5.08Zm5.92,0h-3.36v-5.08c0-3.95.88-5.29,3.4-5.97l.67,1.85c-1.76.67-2.06,1.09-2.06,3.78v.34h1.34v5.08Z"></path><path class="cls-10" d="m972.78,1844.4v-.04h3.36l7.35,17.98h.08l7.1-17.98h3.07v.04l-8.74,20.96h-3.02l-9.2-20.96Z"></path><path class="cls-10" d="m996.26,1841.79c1.76-.67,2.06-1.09,2.06-3.78v-.34h-1.34v-5.08h3.36v5.08c0,3.95-.88,5.29-3.4,5.97l-.67-1.85Zm5.92,0c1.76-.67,2.06-1.09,2.06-3.78v-.34h-1.34v-5.08h3.36v5.08c0,3.95-.88,5.29-3.4,5.97l-.67-1.85Z"></path><path class="cls-10" d="m1125,2780.73h8.61c7.94,0,11.64,2.73,11.64,9.62,0,6.43-2.77,10.12-11.13,10.12h-6.13v13.02h-2.98v-32.77Zm9.28,17.22c6.09,0,7.94-2.69,7.94-7.65,0-5.21-2.61-6.97-8.44-6.97h-5.8v14.62h6.3Z"></path><path class="cls-10" d="m1147.98,2802.99c0-6.22,3.32-11.05,10.38-11.05,6.59,0,10.25,4.83,10.25,11.05s-3.7,11.05-10.29,11.05c-7.27,0-10.33-4.83-10.33-11.05Zm17.56,0c0-5.33-2.9-8.49-7.23-8.49-4.75,0-7.27,3.15-7.27,8.49s2.56,8.49,7.27,8.49c4.33,0,7.23-3.15,7.23-8.49Z"></path><path class="cls-10" d="m1174.48,2780.73h2.98v6.51h-2.98v-6.51Zm0,11.76h2.94v21h-2.94v-21Z"></path><path class="cls-10" d="m1184.81,2792.49h2.61l.29,3.49c1.01-2.14,3.28-4.03,7.35-4.03,4.75,0,7.77,2.52,7.77,7.94v13.61h-2.94v-13.27c0-4.33-2.14-5.71-5.5-5.71-3.82,0-6.64,2.69-6.64,5.63v13.36h-2.94v-21Z"></path><path class="cls-10" d="m1221.14,2810.8v2.6c-.76.21-2.14.59-4.03.59-3.82,0-6.34-1.6-6.34-6.89v-12.18h-4.16v-2.44h4.16v-6.05l2.94-1.43v7.48h5.92v2.44h-5.92v11.8c0,2.81.76,4.58,3.4,4.58,1.6,0,3.23-.29,4.03-.5Z"></path><path class="cls-10" d="m1242.61,2804h-15.96c.17,4.79,2.48,7.48,6.93,7.48,3.82,0,5.67-1.43,5.96-4.83h2.98c-.29,4.24-3.28,7.39-9.03,7.39-7.06,0-9.83-4.66-9.83-10.88s3.23-11.22,10-11.22,8.95,3.99,8.95,10.21v1.85Zm-3.11-2.98c0-4.45-1.72-6.55-5.92-6.55s-6.55,2.65-6.89,6.97h12.81v-.42Z"></path><path class="cls-10" d="m1246.8,2803.03c0-7.1,4.29-11.09,10.04-11.09,3.7,0,6.22,1.6,7.31,3.74h.04v-14.95h2.94v32.77h-1.97l-.67-3.61h-.08c-1.18,2.31-3.95,4.16-7.77,4.16-6.3,0-9.83-3.99-9.83-11.01Zm17.64-.5c0-5.5-3.36-8.07-7.35-8.07-3.11,0-7.14,1.47-7.14,8.4s3.61,8.61,7.14,8.61c4.24,0,7.35-2.73,7.35-8.95Z"></path><path class="cls-10" d="m1301.41,2804h-15.96c.17,4.79,2.48,7.48,6.93,7.48,3.82,0,5.67-1.43,5.97-4.83h2.98c-.29,4.24-3.28,7.39-9.03,7.39-7.06,0-9.83-4.66-9.83-10.88s3.23-11.22,10-11.22,8.95,3.99,8.95,10.21v1.85Zm-3.11-2.98c0-4.45-1.72-6.55-5.92-6.55s-6.55,2.65-6.89,6.97h12.81v-.42Z"></path><path class="cls-10" d="m1307.28,2792.49h2.6l.29,3.49c1.01-2.14,3.28-4.03,7.35-4.03,4.75,0,7.77,2.52,7.77,7.94v13.61h-2.94v-13.27c0-4.33-2.14-5.71-5.5-5.71-3.82,0-6.64,2.69-6.64,5.63v13.36h-2.94v-21Z"></path><path class="cls-10" d="m1343.61,2810.8v2.6c-.76.21-2.14.59-4.03.59-3.82,0-6.34-1.6-6.34-6.89v-12.18h-4.16v-2.44h4.16v-6.05l2.94-1.43v7.48h5.92v2.44h-5.92v11.8c0,2.81.76,4.58,3.4,4.58,1.6,0,3.23-.29,4.03-.5Z"></path><path class="cls-10" d="m1348.44,2792.49h2.6l.29,3.91c1.01-2.14,3.07-4.45,6.76-4.45,1.26,0,2.18.21,3.02.55v3.15c-1.13-.5-2.1-.76-3.4-.76-3.74,0-6.34,2.81-6.34,5.75v12.85h-2.94v-21Z"></path><path class="cls-10" d="m1365.96,2792.49l6.89,17.98h.08l7.14-17.98h3.07v.04l-8.86,20.84-3.11,8.53h-2.98v-.04l3.19-8.36-8.78-20.96v-.04h3.36Z"></path><path class="cls-10" d="m1395.11,2807.07v-1.18h2.94v1.13c0,2.86,2.14,4.5,5.96,4.5s5.8-1.01,5.8-3.78c0-2.06-1.01-2.81-3.86-3.32l-4.62-.84c-3.02-.55-5.54-2.02-5.54-5.5,0-3.15,2.35-6.13,8.4-6.13s8.4,3.02,8.4,7.22v.88h-2.98v-.76c0-3.44-2.14-4.91-5.42-4.91-3.95,0-5.33,1.34-5.33,3.36s1.01,2.86,3.91,3.4l4.03.76c4.12.76,6.09,1.93,6.09,5.59,0,4.58-4.12,6.55-8.78,6.55-7.31,0-8.99-3.28-8.99-6.97Z"></path><path class="cls-10" d="m1429.71,2810.8v2.6c-.76.21-2.14.59-4.03.59-3.82,0-6.34-1.6-6.34-6.89v-12.18h-4.16v-2.44h4.16v-6.05l2.94-1.43v7.48h5.92v2.44h-5.92v11.8c0,2.81.76,4.58,3.4,4.58,1.6,0,3.23-.29,4.03-.5Z"></path><path class="cls-10" d="m1434.54,2792.49h2.6l.29,3.91c1.01-2.14,3.07-4.45,6.76-4.45,1.26,0,2.18.21,3.02.55v3.15c-1.13-.5-2.1-.76-3.4-.76-3.74,0-6.34,2.81-6.34,5.75v12.85h-2.94v-21Z"></path><path class="cls-10" d="m1449.54,2802.99c0-6.22,3.32-11.05,10.38-11.05,6.59,0,10.25,4.83,10.25,11.05s-3.7,11.05-10.29,11.05c-7.27,0-10.33-4.83-10.33-11.05Zm17.56,0c0-5.33-2.9-8.49-7.22-8.49-4.75,0-7.27,3.15-7.27,8.49s2.56,8.49,7.27,8.49c4.33,0,7.22-3.15,7.22-8.49Z"></path><path class="cls-10" d="m1475.41,2780.73h2.94v23.23l12.14-11.47h3.65v.04l-8.4,7.86,8.78,13.06v.04h-3.36l-7.39-11.22-5.42,5.04v6.18h-2.94v-32.77Z"></path><path class="cls-10" d="m1515.77,2804h-15.96c.17,4.79,2.48,7.48,6.93,7.48,3.82,0,5.67-1.43,5.97-4.83h2.98c-.29,4.24-3.28,7.39-9.03,7.39-7.06,0-9.83-4.66-9.83-10.88s3.23-11.22,10-11.22,8.95,3.99,8.95,10.21v1.85Zm-3.11-2.98c0-4.45-1.72-6.55-5.92-6.55s-6.55,2.65-6.89,6.97h12.81v-.42Z"></path><path class="cls-10" d="m1531.31,2780.73h2.98v6.51h-2.98v-6.51Zm0,11.76h2.94v21h-2.94v-21Z"></path><path class="cls-10" d="m1541.64,2792.49h2.6l.29,3.49c1.01-2.14,3.28-4.03,7.35-4.03,4.75,0,7.77,2.52,7.77,7.94v13.61h-2.94v-13.27c0-4.33-2.14-5.71-5.5-5.71-3.82,0-6.64,2.69-6.64,5.63v13.36h-2.94v-21Z"></path><path class="cls-10" d="m1578.35,2791.19h-3.36v-5.08c0-3.95.88-5.29,3.4-5.97l.67,1.85c-1.76.67-2.06,1.09-2.06,3.78v.34h1.34v5.08Zm5.92,0h-3.36v-5.08c0-3.95.88-5.29,3.4-5.97l.67,1.85c-1.76.67-2.06,1.09-2.06,3.78v.34h1.34v5.08Z"></path><path class="cls-10" d="m1587.93,2792.53v-.04h2.98l5.76,17.47h.08l6.3-17.47h2.69l6.17,17.47h.08l5.75-17.47h2.86v.04l-7.18,20.96h-3.02l-5.96-17.06h-.08l-6.22,17.06h-3.02l-7.18-20.96Z"></path><path class="cls-10" d="m1623.54,2789.93c1.76-.67,2.06-1.09,2.06-3.78v-.34h-1.34v-5.08h3.36v5.08c0,3.95-.88,5.29-3.4,5.97l-.67-1.85Zm5.92,0c1.76-.67,2.06-1.09,2.06-3.78v-.34h-1.34v-5.08h3.36v5.08c0,3.95-.88,5.29-3.4,5.97l-.67-1.85Z"></path><path class="cls-10" d="m940.42,878.8h-11.51v-2.6h25.96v2.6h-11.51v30.16h-2.94v-30.16Z"></path><path class="cls-10" d="m953.61,903.16c0-3.95,2.23-6.09,7.86-6.09h6.34v-1.72c0-2.98-1.26-5.42-5.46-5.42-3.95,0-5.33,1.51-5.33,4.12v.88h-2.98v-.84c0-5,4.2-6.68,8.32-6.68,5.8,0,8.4,2.86,8.4,8.44v13.11h-2.06l-.55-2.98h-.08c-1.26,1.89-3.7,3.53-7.35,3.53-4.92,0-7.1-2.31-7.1-6.34Zm14.2-1.85v-1.76h-7.01c-2.65,0-4.03.92-4.03,3.61,0,2.35,1.26,3.86,4.5,3.86,4.16,0,6.55-2.14,6.55-5.71Z"></path><path class="cls-10" d="m978.1,876.19h2.94v32.77h-2.94v-32.77Z"></path><path class="cls-10" d="m988.39,876.19h2.94v32.77h-2.94v-32.77Z"></path><path class="cls-10" d="m1010.02,886.65h-3.36v-5.08c0-3.95.88-5.29,3.4-5.97l.67,1.85c-1.76.67-2.06,1.09-2.06,3.78v.34h1.34v5.08Zm5.92,0h-3.36v-5.08c0-3.95.88-5.29,3.4-5.97l.67,1.85c-1.76.67-2.06,1.09-2.06,3.78v.34h1.34v5.08Z"></path><path class="cls-10" d="m1033.29,906.27v2.6c-.76.21-2.14.59-4.03.59-3.82,0-6.34-1.6-6.34-6.89v-12.18h-4.16v-2.44h4.16v-6.05l2.94-1.43v7.48h5.92v2.44h-5.92v11.8c0,2.81.76,4.58,3.4,4.58,1.6,0,3.23-.29,4.03-.5Z"></path><path class="cls-10" d="m1035.17,885.39c1.76-.67,2.06-1.09,2.06-3.78v-.34h-1.34v-5.08h3.36v5.08c0,3.95-.88,5.29-3.4,5.97l-.67-1.85Zm5.92,0c1.76-.67,2.06-1.09,2.06-3.78v-.34h-1.34v-5.08h3.36v5.08c0,3.95-.88,5.29-3.4,5.97l-.67-1.85Z"></path><path class="cls-10" d="m1389.28,989.48c0-12.01,6.76-17.27,14.74-17.27,6.97,0,12.39,3.74,12.39,12.01v.8h-2.86v-.92c0-5.92-3.78-9.24-9.45-9.24-6.72,0-11.76,4.58-11.76,14.32s5.04,14.24,11.72,14.24c5.38,0,9.54-2.86,9.54-9.2v-.59h2.77v.42c0,8.02-5.33,12.01-12.56,12.01-7.98,0-14.53-4.87-14.53-16.59Z"></path><path class="cls-10" d="m1422.71,972.76h2.94v32.77h-2.94v-32.77Z"></path><path class="cls-10" d="m1431.32,995.02c0-6.22,3.32-11.05,10.38-11.05,6.59,0,10.25,4.83,10.25,11.05s-3.7,11.05-10.29,11.05c-7.27,0-10.33-4.83-10.33-11.05Zm17.56,0c0-5.33-2.9-8.49-7.23-8.49-4.75,0-7.27,3.15-7.27,8.49s2.56,8.49,7.27,8.49c4.33,0,7.23-3.15,7.23-8.49Z"></path><path class="cls-10" d="m1455.94,999.1v-1.18h2.94v1.13c0,2.86,2.14,4.5,5.96,4.5s5.8-1.01,5.8-3.78c0-2.06-1.01-2.81-3.86-3.32l-4.62-.84c-3.03-.55-5.54-2.02-5.54-5.5,0-3.15,2.35-6.13,8.4-6.13s8.4,3.02,8.4,7.23v.88h-2.98v-.76c0-3.44-2.14-4.91-5.42-4.91-3.95,0-5.33,1.34-5.33,3.36s1.01,2.86,3.91,3.4l4.03.76c4.12.76,6.09,1.93,6.09,5.59,0,4.58-4.12,6.55-8.78,6.55-7.31,0-8.99-3.28-8.99-6.97Z"></path><path class="cls-10" d="m1496.85,996.03h-15.96c.17,4.79,2.48,7.48,6.93,7.48,3.82,0,5.67-1.43,5.96-4.83h2.98c-.29,4.24-3.28,7.39-9.03,7.39-7.06,0-9.83-4.66-9.83-10.88s3.23-11.22,10-11.22,8.95,3.99,8.95,10.21v1.85Zm-3.11-2.98c0-4.45-1.72-6.55-5.92-6.55s-6.55,2.65-6.89,6.97h12.81v-.42Z"></path><path class="cls-10" d="m1501.04,995.06c0-7.1,4.28-11.09,10.04-11.09,3.7,0,6.22,1.6,7.31,3.74h.04v-14.95h2.94v32.77h-1.97l-.67-3.61h-.08c-1.18,2.31-3.95,4.16-7.77,4.16-6.3,0-9.83-3.99-9.83-11.01Zm17.64-.5c0-5.5-3.36-8.07-7.35-8.07-3.11,0-7.14,1.47-7.14,8.4s3.61,8.61,7.14,8.61c4.24,0,7.35-2.73,7.35-8.95Z"></path><path class="cls-10" d="m1541.2,1002.04h-.08l-.76,3.49h-1.97v-32.77h2.94v15.25h.04c1.26-2.31,4.07-4.03,7.69-4.03,6.3,0,9.66,3.99,9.66,11.01s-4.29,11.09-9.87,11.09c-3.78,0-6.55-1.64-7.64-4.03Zm14.37-6.89c0-7.18-3.4-8.61-6.93-8.61-4.24,0-7.56,2.73-7.56,8.44,0,6.01,3.45,8.57,7.44,8.57,3.03,0,7.06-1.47,7.06-8.4Z"></path><path class="cls-10" d="m1562.91,995.02c0-6.22,3.32-11.05,10.38-11.05,6.59,0,10.25,4.83,10.25,11.05s-3.7,11.05-10.29,11.05c-7.27,0-10.33-4.83-10.33-11.05Zm17.56,0c0-5.33-2.9-8.49-7.22-8.49-4.75,0-7.27,3.15-7.27,8.49s2.56,8.49,7.27,8.49c4.33,0,7.22-3.15,7.22-8.49Z"></path><path class="cls-10" d="m1585.84,984.56v-.04h2.98l5.75,17.48h.08l6.3-17.48h2.69l6.17,17.48h.08l5.76-17.48h2.86v.04l-7.18,20.96h-3.03l-5.96-17.06h-.08l-6.22,17.06h-3.03l-7.18-20.96Z"></path><path class="cls-10" d="m1623.35,972.76h2.94v32.77h-2.94v-32.77Z"></path><path class="cls-10" d="m1643.3,972.76h2.98v6.51h-2.98v-6.51Zm0,11.76h2.94v21h-2.94v-21Z"></path><path class="cls-10" d="m1653.63,984.52h2.6l.29,3.49c1.01-2.14,3.28-4.03,7.35-4.03,4.75,0,7.77,2.52,7.77,7.94v13.61h-2.94v-13.27c0-4.33-2.14-5.71-5.5-5.71-3.82,0-6.64,2.69-6.64,5.63v13.36h-2.94v-21Z"></path><path class="cls-10" d="m1690.34,983.22h-3.36v-5.08c0-3.95.88-5.29,3.4-5.97l.67,1.85c-1.76.67-2.06,1.09-2.06,3.78v.34h1.34v5.08Zm5.92,0h-3.36v-5.08c0-3.95.88-5.29,3.4-5.97l.67,1.85c-1.76.67-2.06,1.09-2.06,3.78v.34h1.34v5.08Z"></path><path class="cls-10" d="m1702.64,984.52h2.39l.34,3.86h.08c1.13-2.48,4.03-4.41,7.86-4.41,6.3,0,9.66,3.99,9.66,11.01s-4.29,11.09-9.87,11.09c-3.78,0-6.38-1.6-7.43-3.7h-.08v11.55h-2.94v-29.41Zm17.18,10.63c0-7.18-3.4-8.61-6.93-8.61-4.24,0-7.56,2.73-7.56,8.44,0,6.01,3.45,8.57,7.44,8.57,3.03,0,7.06-1.47,7.06-8.4Z"></path><path class="cls-10" d="m1724.23,981.96c1.76-.67,2.06-1.09,2.06-3.78v-.34h-1.34v-5.08h3.36v5.08c0,3.95-.88,5.29-3.4,5.97l-.67-1.85Zm5.92,0c1.76-.67,2.06-1.09,2.06-3.78v-.34h-1.35v-5.08h3.36v5.08c0,3.95-.88,5.29-3.4,5.97l-.67-1.85Z"></path><rect class="cls-11" x="1228.1" y="3061.08" width="162.28" height="162.28" rx="81.14" ry="81.14"></rect><path class="cls-7" d="m335.13,848.39c0-39.45,0-259.89,0-259.89"></path><path class="cls-7" d="m988.53,838.39c0-40.28,0-265.39,0-265.39"></path><path class="cls-7" d="m167.99,179.29h87.79s40.6,9.97,35.91,73.16c0,0,61.21-26.7,113.06-25.27,48.33,1.33,18.62,61.27,18.62,61.27,0,0,51.05-16.38,92.78-16.38s18.95,57.53,18.95,57.53"></path><path class="cls-7" d="m866.86,1787.12c0-11.67,0-356.91,0-356.91"></path><line class="cls-7" x1="951.53" y1="2147.55" x2="951.53" y2="1894.56"></line><circle class="cls-12" cx="947.38" cy="1311.44" r="67.5"></circle><circle class="cls-12" cx="1282.64" cy="1582.67" r="149.08"></circle><line class="cls-7" x1="1282.64" y1="1738.75" x2="1282.64" y2="1814.92"></line><line class="cls-7" x1="1561.54" y1="1894.56" x2="1561.54" y2="1946.16"></line><circle class="cls-12" cx="1555.56" cy="2109.82" r="150.66"></circle><path class="cls-12" d="m474.41,2404.03c-18.09,0-37.9-15.79-37.9-35.03,0-13.21,2.01-20.96,8.04-32.73,18.66-36.46,109.1-187.18,109.1-208.14,0-17.51-13.21-22.68-28.42-22.68-28.14,0-66.89,28.42-87.56,45.07-26.41,21.24-58.28,49.95-74.93,79.52-22.39,39.62-44.21,78.95-66.61,118.28-10.05,17.51-19.52,35.31-30.14,52.25-1.44,2.3-3.16,3.73-6.03,3.73-6.03,0-8.61-2.3-8.61-8.33,0-1.72.86-3.45,1.44-4.88,29.57-55.7,61.15-110.24,92.73-165.08,18.66-32.73,57.71-98.76,57.71-137.23,0-33.02-16.36-47.08-48.52-47.08-8.04,0-16.36.57-23.83,2.3-3.45.86-6.6,3.16-10.34,3.16-3.16,0-6.6-7.18-6.6-10.05,0-8.04,35.89-10.91,42.49-10.91,37.32,0,63.16,20.67,63.16,59.14,0,26.7-10.62,52.25-20.1,76.94,29-26.7,84.12-72.35,125.75-72.35,24.4,0,43.93,11.48,43.93,38.18s-89.29,173.69-108.81,211.01c-4.88,9.47-8.61,17.8-8.61,28.42,0,11.77,11.2,21.24,22.68,21.24,36.17,0,85.84-24.4,113.69-46.8v17.23c-28.42,21.24-77.8,44.79-113.69,44.79Z"></path><path class="cls-10" d="m583.79,2344.89c39.33-27.85,62.59-53.69,93.02-89.57,19.24-22.11,44.21-41.63,74.93-41.63,47.66,0,39.91,57.99,115.12,57.99v15.22c-21.24,0-50.53-6.03-65.74-21.82,1.15,4.31,1.15,6.03,1.15,10.62,0,61.44-42.49,128.62-109.38,128.62-34.45,0-50.53-23.25-50.53-55.98,0-12.92,2.3-28.42,6.89-40.48-13.49,16.36-47.37,42.2-65.46,54.26v-17.23Zm167.95-115.99c-55.12,0-93.88,69.76-93.88,118.86,0,23.54,9.47,41.34,35.03,41.34,58.57,0,94.17-60.29,94.17-113.4,0-20.1-12.06-46.8-35.31-46.8Z"></path><path class="cls-10" d="m1104.29,2242.11c-19.24,26.13-37.9,52.54-58.57,77.8-23.83,28.71-61.15,83.83-102.49,83.83-14.07,0-26.7-12.63-26.7-26.41,0-30.14,59.72-97.9,59.72-132.92,0-6.6.29-15.79-8.9-15.79-15.22,0-47.37,58.28-103.35,58.28v-15.22c54.55,0,74.64-58.28,103.35-58.28,18.66,0,24.12,18.09,24.12,33.88,0,37.32-59.72,102.49-59.72,130.05,0,5.45,6.03,11.2,11.48,11.2,32.44,0,71.77-56.56,91.58-79.81,17.23-19.81,33.3-40.77,47.94-62.59,7.18-10.34,13.78-21.24,21.53-31.29,1.15-1.72,2.87-3.73,5.45-3.73,6.03,0,9.47,1.44,9.47,8.04,0,36.46,6.89,84.12,53.97,81.82v15.22h-4.59c-40.48,1.44-65.46-36.17-64.31-74.07Z"></path><path class="cls-10" d="m1170.03,2300.96c3.45.29,7.18.57,10.62.57,8.04,0,15.79-.86,23.54-.57,12.34-27.56,36.75-86.7,72.63-86.7,17.23,0,30.43,14.07,30.43,31.01,0,31.29-39.91,69.76-70.91,69.76-7.75,0-16.08,1.72-23.83,1.15-7.18,14.35-17.23,37.9-17.23,53.97,0,14.35,8.04,19.81,21.53,19.81,33.02,0,87.56-28.42,114.55-47.94v17.23c-28.71,19.52-80.1,45.93-114.55,45.93-20.96,0-36.75-12.34-36.75-34.16,0-12.34,11.48-43.35,16.94-54.83-6.6-.29-12.92.29-19.52.29-2.58,0-4.88,0-7.46-.29v-15.22Zm107.66-71.77c-27.56,0-48.52,50.82-57.99,72.06,5.74.29,11.48-.86,16.94-.86,23.25,0,55.98-31.58,55.98-54.83,0-7.75-6.6-16.36-14.93-16.36Z"></path><path class="cls-10" d="m1327.07,2344.89c50.53-33.88,94.74-77.23,141.82-115.7,20.67-37.03,34.16-76.37,50.82-115.12,12.34-29,34.45-87.85,72.06-87.85,24.69,0,33.88,17.8,33.88,40.19,0,43.35-113.4,137.52-142.11,175.7-4.02,5.45-7.18,14.07-10.05,20.38-6.89,14.07-14.07,27.85-21.53,41.63-4.88,8.9-24.12,49.67-24.12,58.85,0,22.39,11.48,25.55,31.29,25.55,29.57,0,72.92-30.43,97.9-46.51v17.23c-28.71,17.8-62.59,44.79-97.9,44.79-28.14,0-46.8-10.62-46.8-41.05,0-17.51,35.31-84.41,45.36-103.07-43.06,34.45-83.83,72.35-130.63,102.2v-17.23Zm264.7-303.17c-27.56,0-45.93,52.54-55.41,73.5-12.63,28.14-24.12,56.56-35.03,85.27,31.58-28.71,61.15-62.01,88.14-95.03,8.33-10.34,20.67-24.98,20.67-39.04s-2.58-24.69-18.37-24.69Z"></path><path class="cls-10" d="m1712.93,2226.89c-20.96,20.67-43.64,40.48-65.74,59.72-29.57,25.84-60,51.68-92.44,74.07v-17.23c52.54-37.9,99.62-82.68,147.57-126.03,1.72-1.44,3.45-2.58,5.74-2.58,3.73,0,7.46,2.87,7.46,6.6,0,2.3-1.15,4.02-2.58,5.45Z"></path><g class="cls-9"><path class="cls-14" d="m1104.29,2242.11c-19.24,26.13-37.9,52.54-58.57,77.8-23.83,28.71-61.15,83.83-102.49,83.83-14.07,0-26.7-12.63-26.7-26.41,0-30.14,59.72-97.9,59.72-132.92,0-6.6.29-15.79-8.9-15.79-15.22,0-47.37,58.28-103.35,58.28v-15.22c54.55,0,74.64-58.28,103.35-58.28,18.66,0,24.12,18.09,24.12,33.88,0,37.32-59.72,102.49-59.72,130.05,0,5.45,6.03,11.2,11.48,11.2,32.44,0,71.77-56.56,91.58-79.81,17.23-19.81,33.3-40.77,47.94-62.59,7.18-10.34,13.78-21.24,21.53-31.29,1.15-1.72,2.87-3.73,5.45-3.73,6.03,0,9.47,1.44,9.47,8.04,0,36.46,6.89,84.12,53.97,81.82v15.22h-4.59c-40.48,1.44-65.46-36.17-64.31-74.07Z"></path></g><path class="cls-12" d="m443.46,575.13c-21.52,0-37.95-9.06-37.95-32.57,0-53.53,94.6-163.7,94.6-205.9,0-12.75-8.5-22.09-21.52-22.09-37.95,0-94.31,54.1-113.29,84.97-22.37,36.54-41.07,75.34-62.59,112.44l-22.66,39.08c-3.97,6.8-7.36,13.59-12.18,20.11-1.42,1.98-3.4,3.4-5.95,3.4-3.97,0-7.65-3.4-7.65-7.65,0-1.7.57-3.4,1.42-4.81,21.81-38.8,134.25-235.08,134.25-265.1,0-13.03-7.36-20.68-20.39-20.68-55.23,0-134.81,95.73-158.61,140.76-25.49,48.15-49.85,97.15-75.62,145.01-2.27,4.25-5.66,12.18-11.61,12.18-3.97,0-7.93-3.4-7.93-7.65,0-5.38,11.61-23.79,14.73-29.46,22.94-41.92,45.32-84.68,67.12-127.45,19.83-38.8,47.86-95.16,47.86-139.35,0-30.3-14.44-53.25-47.3-53.25-6.8,0-13.59.85-20.11,1.7-4.25.57-8.21,1.98-12.18,1.98-2.55,0-3.68-6.23-3.68-7.93,0-1.13,0-5.1,1.42-5.66,6.8-2.83,25.77-4.53,33.42-4.53,43.05,0,63.73,26.34,63.73,67.69,0,22.09-6.8,50.7-13.88,71.66,25.77-30.59,80.44-81.29,122.64-81.29,21.24,0,35.4,15.29,35.4,36.25,0,15.01-8.21,34.55-13.31,48.71,21.24-20.39,56.93-45.88,87.52-45.88,21.24,0,35.97,15.58,35.97,36.54,0,47.86-94.31,158.89-94.31,203.64,0,15.86,7.65,19.83,22.66,19.83,32.85,0,76.75-25.49,101.68-45.6v16.99c-26.91,21.24-66.56,43.9-101.68,43.9Z"></path><path class="cls-10" d="m540.61,517.07c30.87-20.68,62.31-41.92,90.91-65.71,38.8-32.57,78.17-63.73,131.98-63.73,9.06,0,42.77,3.4,42.77,16.43,0,20.11-28.04,53.25-39.93,69.39-15.86,21.81-30.59,45.03-30.59,73.07,0,13.59,21.24,13.59,30.3,13.59,23.51,0,82.13-30.59,100.54-45.88v16.99c-19.83,16.43-75.34,43.9-100.54,43.9-20.11,0-45.32-4.53-45.32-30.02,0-9.63,5.1-30.3,9.35-39.37-40.78,33.7-62.03,69.39-120.94,69.39-17.28,0-32-14.44-32-31.72,0-14.16,7.36-31.44,14.44-43.62-16.71,12.18-33.7,23.22-50.98,34.27v-16.99Zm222.05-114.71c-18.41,0-39.08,4.81-55.51,13.03-39.37,19.54-114.42,80.44-114.42,128.02,0,8.78,7.65,16.71,16.43,16.71,36.82,0,56.36-16.43,82.42-39.37,27.47-24.07,89.5-79.02,97.43-113.86-8.5-3.4-17.56-4.53-26.34-4.53Z"></path><path class="cls-12" d="m1065.7,334.67h48.71c3.97,0,6.8,2.83,6.8,6.8,0,4.53-3.68,8.5-8.21,8.5h-55.51c-5.66,10.76-11.33,21.81-17.56,32.29-12.46,21.52-22.94,44.18-35.4,65.71-8.78,15.86-18.41,30.87-26.62,47.02-6.8,13.59-13.59,28.04-13.59,43.62,0,16.71,18.69,21.81,32.57,21.81,24.07,0,69.11-32,89.22-46.17v16.99c-21.81,15.58-62.31,44.47-89.22,44.47-23.22,0-47.58-10.76-47.58-37.1,0-34.84,35.12-83.55,51.83-114.14-43.9,39.65-89.5,76.75-138.5,109.61v-16.99c39.08-27.19,92.9-68.26,126.6-101.96,10.76-10.76,22.66-20.11,31.44-32.85,7.08-10.48,13.88-21.52,20.39-32.29h-50.41c-4.25,0-7.36-3.4-7.36-7.65s3.12-7.65,7.36-7.65h59.19c15.29-28.04,29.46-56.93,43.33-85.82,6.51-13.59,12.18-28.32,19.54-41.35,2.27-3.68,3.97-4.81,8.21-4.81,3.97,0,6.8,2.83,6.8,6.8,0,2.27-55.51,112.44-62.03,125.18Z"></path><path class="cls-10" d="m1188.05,575.13c-30.02,0-52.68-18.98-52.68-49.85,0-13.59,3.12-24.92,7.93-37.39-19.26,16.43-40.5,31.15-60.89,46.17v-16.99c23.51-18.13,55.23-39.08,73.92-61.46,5.95-7.08,10.2-15.29,16.14-22.37,20.39-24.36,44.18-45.32,77.89-45.32,12.18,0,26.06,5.95,33.7,15.58,4.25,5.1,11.05,15.01,11.05,21.81,0,4.25-4.53,6.23-8.21,6.23-2.27,0-4.81-.85-5.95-3.12-1.42-3.12-1.98-5.95-3.97-9.06-5.95-9.35-16.43-16.14-27.47-16.14-53.81,0-88.37,67.12-98.28,112.44-.57,2.83-1.13,5.66-1.13,8.78,0,23.22,20.68,35.69,41.92,35.69,41.07,0,83.27-24.07,116.69-45.88v16.99c-35.97,23.51-76.47,43.9-120.65,43.9Z"></path><path class="cls-10" d="m1304.46,516.79c31.44-18.98,143.03-92.05,161.44-114.14,9.06-10.76,15.29-28.32,21.24-41.07,13.31-28.32,26.62-56.64,40.78-84.68,13.88-27.76,35.12-74.2,71.66-74.2,19.26,0,34.55,12.75,34.55,32.57,0,33.7-32.29,65.42-55.51,87.23-14.73,14.16-97.71,84.12-101.68,92.33-5.95,12.18-11.9,24.64-18.13,36.82,32.85-22.09,81.85-63.16,122.35-63.16,19.54,0,35.69,8.5,35.69,30.02,0,41.35-51.83,76.47-51.83,122.92,0,18.13,16.99,18.41,30.59,18.41,23.79,0,75.9-30.3,95.45-45.6v16.99c-22.09,15.29-69.11,43.9-95.45,43.9-22.66,0-45.88-6.8-45.88-33.7,0-48.71,51.83-89.22,51.83-122.92,0-12.46-10.2-14.73-20.39-14.73-35.4,0-93.46,43.62-122.64,65.14-6.8,4.81-12.18,11.05-18.69,16.43-7.08,12.18-46.73,90.07-55.23,90.07-4.81,0-7.93-2.27-7.93-7.36l11.61-19.26c23.22-38.24,42.48-78.74,65.14-117.25-47.58,36.54-96.3,73.35-148.98,102.24v-16.99Zm294.27-298.8c-25.77,0-47.86,46.17-57.49,66.27l-45.32,93.75c31.15-31.72,122.92-96.3,122.92-141.89,0-9.91-10.48-18.13-20.11-18.13Z"></path><path class="cls-10" d="m1844.85,400.67c-20.68,20.39-43.05,39.93-64.86,58.91-29.17,25.49-59.19,50.98-91.2,73.07v-16.99c51.83-37.39,98.28-81.57,145.58-124.34,1.7-1.42,3.4-2.55,5.66-2.55,3.68,0,7.36,2.83,7.36,6.51,0,2.27-1.13,3.97-2.55,5.38Z"></path><path class="cls-12" d="m200.27,3310.22c9.11-6.27,18.51-12.25,27.62-18.51,23.92-17.09,47.27-35.31,70.34-53.54-17.66-28.48-22.21-61.8-22.21-94.54,0-7.4.28-10.54,9.4-10.54,3.99,0,4.84.57,5.7,4.27,1.42,5.13,2.28,9.4,5.13,14.24,9.4,17.66,34.17,38.73,53.54,44.42,27.62-23.64,53.54-49.84,79.17-75.47-7.97-14.81-13.67-34.46-13.67-51.26,0-26.48,7.12-49.84,20.79-72.33,14.24-23.64,34.46-49.55,64.93-49.55,21.36,0,38.44,13.95,38.44,36.17,0,37.59-62.37,108.5-88.85,134.98,10.54,9.97,26.77,11.39,40.72,11.39,47.27,0,113.91-39.01,147.8-70.34,5.98-5.41,24.78-27.91,31.89-27.91,3.7,0,7.12,2.85,7.12,6.83,0,5.98-41.29,50.12-48.13,57.52-12.81,14.24-21.07,31.61-31.33,47.56-10.25,15.95-19.93,31.89-29.62,48.13-15.38,25.91-28.76,53.25-47.56,76.89-20.5,25.91-67.78,53.25-101.09,53.25-54.39,0-84.01-30.76-113.91-71.76-17.37,12.81-89.42,72.05-104.8,72.05-3.42,0-5.41-1.71-5.41-5.41,0-3.42,1.42-4.84,3.99-6.55Zm90.84-141.25c3.7,23.35,6.83,39.58,19.65,59.8,9.4-7.12,18.51-14.52,27.62-21.93-16.23-6.55-37.59-23.07-47.27-37.87Zm129.29,137.83c32.75,0,68.63-24.78,89.7-48.41,14.24-15.95,25.34-39.01,36.17-57.52,19.08-32.75,37.31-66.07,59.52-96.82-33.89,17.94-75.47,41.01-114.48,41.01-17.66,0-37.59-2.28-50.97-15.09-24.78,24.21-50.12,47.84-76.03,70.62,9.97,3.99,29.33,4.27,40.44,4.27,9.11,0,18.51-.85,27.62-.85,3.99,0,6.55,2.28,6.55,6.55,0,10.25-20.5,8.26-27.62,8.26-14.52,0-44.42-1.71-57.52-7.4-11.68,9.97-22.5,20.79-34.74,29.9,27.34,37.87,50.97,65.5,101.38,65.5Zm20.22-197.63c20.79-21.07,83.72-98.25,83.72-125.59,0-12.53-11.39-21.07-23.35-21.07-25.63,0-42.72,24.21-53.54,44.42-12.25,22.5-17.09,37.31-17.09,63.22,0,12.53,4.84,27.62,10.25,39.01Z"></path><path class="cls-10" d="m840.44,3323.61c-21.93,0-40.72-10.25-40.72-34.74,0-45.56,42.72-75.75,42.72-112.49,0-11.96-15.95-19.08-22.78-27.34-33.6,35.88-64.93,74.9-104.8,104.51-54.39,40.44-88.85,64.36-155.77,69.77h-1.42c-4.56.28-8.26-3.99-8.26-8.54,0-3.99,2.28-5.7,5.98-6.27,13.67-2.85,27.05-3.13,41.01-6.83,40.44-10.25,76.03-35.6,109.07-59.52,43.29-31.61,79.17-74.61,112.77-115.62.85-.85,1.42-2.56,2.85-2.56l1.14.57c3.13-.28,6.83,3.7,6.83,6.55,0,1.42-1.14,3.13-1.14,5.41,0,8.83,29.9,20.22,29.9,39.87,0,43.29-42.72,72.9-42.72,112.49,0,15.38,12.25,19.65,25.34,19.65,30.19,0,85.72-29.05,109.92-47.84v17.09c-24.78,18.23-79.45,45.85-109.92,45.85Z"></path><path class="cls-10" d="m946.37,3263.52c39.01-27.62,62.08-53.25,92.27-88.85,19.08-21.93,43.86-41.29,74.33-41.29,47.27,0,39.58,57.52,114.19,57.52v15.09c-21.07,0-50.12-5.98-65.21-21.64,1.14,4.27,1.14,5.98,1.14,10.54,0,60.94-42.15,127.58-108.5,127.58-34.17,0-50.12-23.07-50.12-55.53,0-12.81,2.28-28.19,6.83-40.15-13.38,16.23-46.99,41.86-64.93,53.82v-17.09Zm166.59-115.05c-54.68,0-93.12,69.2-93.12,117.9,0,23.35,9.4,41.01,34.74,41.01,58.09,0,93.41-59.8,93.41-112.49,0-19.93-11.96-46.42-35.03-46.42Z"></path><path class="cls-10" d="m1616.73,3155.31c-31.89,50.4-117.04,166.59-176.56,166.59-24.21,0-31.33-18.8-31.33-39.87,0-16.23,9.97-47.27,19.36-60.66-7.12,7.97-13.38,16.52-20.5,24.21-21.93,23.35-80.02,76.32-112.2,76.32-25.63,0-35.6-13.38-35.6-37.59,0-17.37,35.88-96.82,47.27-111.92-20.22,17.66-55.82,33.6-82.87,33.6v-15.09c43,0,75.18-27.34,104.51-55.82,1.42-1.14,2.85-1.71,4.84-1.71,2.56,0,8.26,1.99,8.26,5.7,0,.57-.28,1.14-.57,1.71-17.37,25.91-30.76,53.54-44.42,81.73-7.4,15.38-21.64,48.13-21.64,64.07,0,14.24,5.41,20.22,20.22,20.22,29.05,0,81.45-51.83,101.95-72.05,20.79-20.79,40.15-42.72,56.95-66.92,6.83-10.25,12.53-21.36,19.36-31.61,1.42-2.28,3.42-3.42,6.27-3.42,3.13,0,7.12,1.71,7.12,5.41s-45.28,88-50.97,99.39c-8.54,17.09-11.96,30.19-11.96,49.27,0,10.54,3.42,19.93,15.95,19.93,46.42,0,118.47-91.98,143.81-128.15,6.27-9.11,12.81-17.94,18.23-27.34,2.56-4.27,4.27-9.11,6.83-13.1,1.99-3.42,5.13-5.13,9.11-5.13,4.56,0,6.83,2.28,8.26,6.55,1.99,5.98,3.13,12.53,5.7,18.51,11.39,28.19,31.89,32.75,60.09,32.75v15.09c-33.6,0-70.34-12.81-75.47-50.69Z"></path><g class="cls-15"><path class="cls-13" d="m1616.73,3155.31c-31.89,50.4-117.04,166.59-176.56,166.59-24.21,0-31.33-18.8-31.33-39.87,0-16.23,9.97-47.27,19.36-60.66-7.12,7.97-13.38,16.52-20.5,24.21-21.93,23.35-80.02,76.32-112.2,76.32-25.63,0-35.6-13.38-35.6-37.59,0-17.37,35.88-96.82,47.27-111.92-20.22,17.66-55.82,33.6-82.87,33.6v-15.09c43,0,75.18-27.34,104.51-55.82,1.42-1.14,2.85-1.71,4.84-1.71,2.56,0,8.26,1.99,8.26,5.7,0,.57-.28,1.14-.57,1.71-17.37,25.91-30.76,53.54-44.42,81.73-7.4,15.38-21.64,48.13-21.64,64.07,0,14.24,5.41,20.22,20.22,20.22,29.05,0,81.45-51.83,101.95-72.05,20.79-20.79,40.15-42.72,56.95-66.92,6.83-10.25,12.53-21.36,19.36-31.61,1.42-2.28,3.42-3.42,6.27-3.42,3.13,0,7.12,1.71,7.12,5.41s-45.28,88-50.97,99.39c-8.54,17.09-11.96,30.19-11.96,49.27,0,10.54,3.42,19.93,15.95,19.93,46.42,0,118.47-91.98,143.81-128.15,6.27-9.11,12.81-17.94,18.23-27.34,2.56-4.27,4.27-9.11,6.83-13.1,1.99-3.42,5.13-5.13,9.11-5.13,4.56,0,6.83,2.28,8.26,6.55,1.99,5.98,3.13,12.53,5.7,18.51,11.39,28.19,31.89,32.75,60.09,32.75v15.09c-33.6,0-70.34-12.81-75.47-50.69Z"></path></g><path class="cls-10" d="m511.53,1164.31c-.28,0-12.46-11.05-13.03-11.33-15.29-12.18-33.42-20.96-53.25-20.96-30.02,0-50.13,9.35-75.34,24.92-64.29,39.93-143.88,145.86-143.88,223.75,0,55.8,43.9,93.18,98,93.18s102.24-16.14,149.54-45.6v16.99c-47.02,28.04-95.45,43.9-150.39,43.9-64.01,0-112.72-43.05-112.72-108.47,0-100.26,127.45-263.96,233.09-263.96,22.09,0,47.86,7.65,63.73,23.22,1.7-5.38,6.8-22.94,13.88-22.94,4.25,0,7.93,3.68,7.93,7.93,0,5.38-13.59,39.37-17.56,39.37Z"></path><path class="cls-10" d="m469.04,1431.1c30.87-20.68,62.31-41.92,90.91-65.71,38.8-32.57,78.17-63.73,131.98-63.73,9.06,0,42.77,3.4,42.77,16.43,0,20.11-28.04,53.25-39.93,69.39-15.86,21.81-30.59,45.03-30.59,73.07,0,13.59,21.24,13.59,30.3,13.59,23.51,0,82.13-30.59,100.54-45.88v16.99c-19.83,16.43-75.34,43.9-100.54,43.9-20.11,0-45.32-4.53-45.32-30.02,0-9.63,5.1-30.3,9.35-39.37-40.78,33.7-62.03,69.39-120.94,69.39-17.28,0-32-14.44-32-31.72,0-14.16,7.36-31.44,14.44-43.62-16.71,12.18-33.7,23.22-50.98,34.27v-16.99Zm222.05-114.71c-18.41,0-39.08,4.81-55.51,13.03-39.37,19.54-114.42,80.44-114.42,128.02,0,8.78,7.65,16.71,16.43,16.71,36.82,0,56.36-16.43,82.42-39.37,27.47-24.07,89.5-79.02,97.43-113.86-8.5-3.4-17.56-4.53-26.34-4.53Z"></path><path class="cls-10" d="m1200.61,1490.01c-20.39,0-28.61-14.16-28.61-32.85,0-31.72,67.69-115.56,67.69-128.58,0-7.65-6.51-9.91-12.75-9.91-19.54,0-64.86,30.3-80.44,42.77-21.52,16.99-42.2,34.27-59.48,55.8-12.46,15.29-21.81,32.85-32,49.85-3.4,6.23-7.36,13.31-11.61,18.98-1.7,1.98-4.25,3.12-7.08,3.12-3.68,0-7.65-2.55-7.65-6.51,0-4.25,81.57-137.08,81.57-153.79,0-7.65-7.65-10.76-14.16-10.76-12.46,0-46.45,21.52-58.06,29.17-43.9,29.17-61.46,49-90.35,92.61-10.2,15.29-19.26,32-30.3,46.73-1.7,2.27-3.68,3.4-6.51,3.4s-8.21-1.98-8.21-5.66c0-8.21,82.42-113.86,82.42-154.07,0-9.35-2.27-12.46-11.9-12.46-22.94,0-43.62,16.14-61.18,29.17-10.76,8.21-20.96,19.26-31.15,28.61-28.04,25.49-57.49,52.68-90.35,72.51v-16.99c28.61-18.13,54.1-42.2,79.02-65.14,11.05-10.2,22.09-21.24,33.99-30.59,21.24-16.14,41.63-32.57,69.67-32.57,17.56,0,27.19,10.2,27.19,27.47,0,11.33-3.12,22.66-9.06,32.57,20.68-17.28,78.74-59.76,104.79-59.76,15.58,0,29.17,8.78,29.17,25.77,0,11.9-15.58,39.37-21.52,50.7,22.94-22.66,91.48-76.75,123.2-76.75,15.29,0,27.76,8.5,27.76,25.21,0,21.81-67.41,98.28-67.41,126.6,0,9.63.57,20.11,13.31,20.11,33.14,0,72.79-27.19,98.56-46.45v16.99c-27.47,19.26-64.01,44.75-98.56,44.75Z"></path><path class="cls-10" d="m1306.82,1507.57c28.61-28.32,57.21-56.93,81.29-89.22,17.84-23.51,30.3-49.28,43.05-75.9-27.19,30.02-100.54,86.38-136.51,105.64v-16.71c43.33-23.51,93.46-69.39,128.87-103.94,6.8-6.51,13.03-13.31,19.54-19.83,2.55-2.27,5.38-4.81,9.06-4.81s5.66,2.83,5.66,6.23c0,8.21-17.56,50.7-21.52,61.18,30.59-35.69,69.39-67.41,118.95-67.41,28.89,0,44.47,31.72,44.47,56.93,0,41.92-38.24,84.12-71.09,105.93,31.72-10.48,67.41-18.69,95.45-37.39v16.99c-38.24,22.37-119.24,45.88-163.42,45.88-23.51,0-60.33-7.08-79.3-20.68-31.44,56.36-56.93,116.69-93.75,169.37-13.31,18.98-30.02,37.39-54.95,37.39-17.84,0-27.19-16.43-27.19-32.85,0-44.75,70.81-106.49,101.39-136.8Zm8.78,12.18c-28.32,29.17-94.88,82.98-94.88,125.18,0,7.93,2.27,16.99,11.9,16.99,17.56,0,33.14-17.56,42.48-30.87,32.85-46.45,59.48-106.49,87.23-157.47-16.14,14.73-31.44,30.59-46.73,46.17Zm152.66-45.6c47.58,0,116.12-66.56,116.12-114.42,0-16.14-9.91-41.63-29.17-41.63-41.63,0-73.35,26.06-101.11,54.66-14.16,14.73-47.02,47.86-56.36,62.88-3.12,5.1-5.95,10.48-9.06,15.29,15.58,20.11,56.64,23.22,79.59,23.22Z"></path><path class="cls-12" d="m1468.26,1474.15c47.58,0,116.12-66.56,116.12-114.42,0-16.14-9.91-41.63-29.17-41.63-41.63,0-73.35,26.06-101.11,54.66-14.16,14.73-47.02,47.86-56.36,62.88-3.12,5.1-5.95,10.48-9.06,15.29,15.58,20.11,56.64,23.22,79.59,23.22Z"></path><g class="cls-18"><path class="cls-14" d="m1200.61,1490.01c-20.39,0-28.61-14.16-28.61-32.85,0-31.72,67.69-115.56,67.69-128.58,0-7.65-6.51-9.91-12.75-9.91-19.54,0-64.86,30.3-80.44,42.77-21.52,16.99-42.2,34.27-59.48,55.8-12.46,15.29-21.81,32.85-32,49.85-3.4,6.23-7.36,13.31-11.61,18.98-1.7,1.98-4.25,3.12-7.08,3.12-3.68,0-7.65-2.55-7.65-6.51,0-4.25,81.57-137.08,81.57-153.79,0-7.65-7.65-10.76-14.16-10.76-12.46,0-46.45,21.52-58.06,29.17-43.9,29.17-61.46,49-90.35,92.61-10.2,15.29-19.26,32-30.3,46.73-1.7,2.27-3.68,3.4-6.51,3.4s-8.21-1.98-8.21-5.66c0-8.21,82.42-113.86,82.42-154.07,0-9.35-2.27-12.46-11.9-12.46-22.94,0-43.62,16.14-61.18,29.17-10.76,8.21-20.96,19.26-31.15,28.61-28.04,25.49-57.49,52.68-90.35,72.51v-16.99c28.61-18.13,54.1-42.2,79.02-65.14,11.05-10.2,22.09-21.24,33.99-30.59,21.24-16.14,41.63-32.57,69.67-32.57,17.56,0,27.19,10.2,27.19,27.47,0,11.33-3.12,22.66-9.06,32.57,20.68-17.28,78.74-59.76,104.79-59.76,15.58,0,29.17,8.78,29.17,25.77,0,11.9-15.58,39.37-21.52,50.7,22.94-22.66,91.48-76.75,123.2-76.75,15.29,0,27.76,8.5,27.76,25.21,0,21.81-67.41,98.28-67.41,126.6,0,9.63.57,20.11,13.31,20.11,33.14,0,72.79-27.19,98.56-46.45v16.99c-27.47,19.26-64.01,44.75-98.56,44.75Z"></path></g><g class="cls-17"><path class="cls-14" d="m1423.51,1327.44c6.8-6.51,13.03-13.31,19.54-19.83,2.55-2.27,5.38-4.81,9.06-4.81s5.66,2.83,5.66,6.23c0,8.21-17.56,50.7-21.52,61.18,30.59-35.69,69.39-67.41,118.95-67.41,28.89,0,44.47,31.72,44.47,56.93,0,41.92-38.24,84.12-71.09,105.93,31.72-10.48,67.41-18.69,95.45-37.39v16.99c-38.24,22.37-119.24,45.88-163.42,45.88-23.51,0-60.33-7.08-79.3-20.68-31.44,56.36-56.93,116.69-93.75,169.37-13.31,18.98-30.02,37.39-54.95,37.39-17.84,0-27.19-16.43-27.19-32.85,0-44.75,70.81-106.49,101.39-136.8,28.61-28.32,57.21-56.93,81.29-89.22,17.84-23.51,30.3-49.28,43.05-75.9m-115.56,177.3c-28.32,29.17-94.88,82.98-94.88,125.18,0,7.93,2.27,16.99,11.9,16.99,17.56,0,33.14-17.56,42.48-30.87,32.85-46.45,59.48-106.49,87.23-157.47-16.14,14.73-31.44,30.59-46.73,46.17Zm152.66-45.6c47.58,0,116.12-66.56,116.12-114.42,0-16.14-9.91-41.63-29.17-41.63-41.63,0-73.35,26.06-101.11,54.66-14.16,14.73-47.02,47.86-56.36,62.88-3.12,5.1-5.95,10.48-9.06,15.29,15.58,20.11,56.64,23.22,79.59,23.22Z"></path></g><g class="cls-16"><path class="cls-14" d="m1327.07,2344.89c50.53-33.88,94.74-77.23,141.82-115.7,20.67-37.03,34.16-76.37,50.82-115.12,12.34-29,34.45-87.85,72.06-87.85,24.69,0,33.88,17.8,33.88,40.19,0,43.35-113.4,137.52-142.11,175.7-4.02,5.45-7.18,14.07-10.05,20.38-6.89,14.07-14.07,27.85-21.53,41.63-4.88,8.9-24.12,49.67-24.12,58.85,0,22.39,11.48,25.55,31.29,25.55,29.57,0,72.92-30.43,97.9-46.51v17.23c-28.71,17.8-62.59,44.79-97.9,44.79-28.14,0-46.8-10.62-46.8-41.05,0-17.51,35.31-84.41,45.36-103.07-43.06,34.45-83.83,72.35-130.63,102.2v-17.23Zm264.7-303.17c-27.56,0-45.93,52.54-55.41,73.5-12.63,28.14-24.12,56.56-35.03,85.27,31.58-28.71,61.15-62.01,88.14-95.03,8.33-10.34,20.67-24.98,20.67-39.04s-2.58-24.69-18.37-24.69Z"></path></g></svg> 