<?xml version="1.0" encoding="UTF-8"?> <svg xmlns="http://www.w3.org/2000/svg" xmlns:xlink="http://www.w3.org/1999/xlink" id="Layer_1" viewBox="0 0 1920 3680"><defs><style>.cls-1,.cls-2,.cls-3,.cls-4,.cls-5,.cls-6,.cls-7,.cls-8,.cls-9,.cls-10,.cls-11,.cls-12{fill:none;}.cls-2{stroke-dasharray:0 0 1.73 17.29;}.cls-2,.cls-3,.cls-4,.cls-5,.cls-6,.cls-7,.cls-8,.cls-9,.cls-10,.cls-11,.cls-12{stroke-miterlimit:10;}.cls-2,.cls-3,.cls-4,.cls-5,.cls-6,.cls-7,.cls-8,.cls-10,.cls-11{stroke:#a797c9;stroke-linecap:round;stroke-width:7px;}.cls-3{stroke-dasharray:0 0 1.67 16.68;}.cls-13{clip-path:url(#clippath);}.cls-4{stroke-dasharray:0 0 1.76 17.61;}.cls-14,.cls-15{fill:#fff;}.cls-16{fill:#f1f2f2;}.cls-17{fill:#937fbb;}.cls-18{fill:#171c32;}.cls-19{fill:#947fbb;}.cls-5{stroke-dasharray:0 0 1.82 18.18;}.cls-6{stroke-dasharray:0 0 1.76 17.65;}.cls-8{stroke-dasharray:0 0 1.73 17.3;}.cls-20{clip-path:url(#clippath-1);}.cls-21{fill:#ebebeb;font-family:BelariusSans-NarrowLight, 'Belarius Sans';font-size:62px;}.cls-21,.cls-15{font-weight:300;}.cls-9{stroke:#fff;stroke-width:2px;}.cls-10{stroke-dasharray:0 0 1.7 17.01;}.cls-15{font-family:BelariusSans-WideLight, 'Belarius Sans';font-size:42px;}.cls-11{stroke-dasharray:0 0 1.73 17.31;}.cls-12{stroke:#57678b;stroke-width:3.5px;}</style><clipPath id="clippath"><rect class="cls-1" x="494.69" y="2027.44" width="181.23" height="181.23" rx="90.62" ry="90.62"></rect></clipPath><clipPath id="clippath-1"><rect class="cls-1" x="824.47" y="434.26" width="128.22" height="128.22" rx="64.11" ry="64.11"></rect></clipPath></defs><rect class="cls-18" width="1920" height="3680"></rect><line class="cls-12" y1="1292.45" x2="1920" y2="1292.45"></line><line class="cls-12" y1="1435.24" x2="1920" y2="1435.24"></line><line class="cls-12" x1="1920" y1="1580.4" y2="1580.4"></line><line class="cls-12" y1="1724.15" x2="1920" y2="1724.15"></line><line class="cls-12" y1="2106.63" x2="1920" y2="2106.63"></line><line class="cls-12" y1="2257.4" x2="1920" y2="2257.4"></line><line class="cls-12" x1="1920" y1="2402.55" y2="2402.55"></line><line class="cls-12" y1="2554.08" x2="1920" y2="2554.08"></line><line class="cls-12" y1="2922.31" x2="1920" y2="2922.31"></line><line class="cls-12" y1="3080.44" x2="1920" y2="3080.44"></line><line class="cls-12" x1="1920" y1="3225.59" y2="3225.59"></line><line class="cls-12" y1="3382.55" x2="1920" y2="3382.55"></line><line class="cls-12" y1="348.81" x2="1920" y2="348.81"></line><line class="cls-12" y1="491.6" x2="1920" y2="491.6"></line><line class="cls-12" x1="1920" y1="636.75" y2="636.75"></line><line class="cls-12" y1="780.51" x2="1920" y2="780.51"></line><polygon class="cls-19" points="1516.07 3382.55 1568.41 3382.55 1647.16 2922.31 1594.82 2922.31 1516.07 3382.55"></polygon><text class="cls-15" transform="translate(1399.22 3456.64)"><tspan x="0" y="0">Moderate slant</tspan></text><line class="cls-7" x1="585.31" y1="2015.26" x2="585.31" y2="2014.39"></line><line class="cls-11" x1="585.31" y1="1997.08" x2="585.31" y2="1986.69"></line><line class="cls-7" x1="585.31" y1="1978.04" x2="585.31" y2="1977.17"></line><line class="cls-7" x1="1285.53" y1="843.65" x2="1285.53" y2="842.77"></line><line class="cls-6" x1="1285.53" y1="825.13" x2="1285.53" y2="659.25"></line><line class="cls-7" x1="1285.53" y1="650.43" x2="1285.53" y2="649.55"></line><line class="cls-7" x1="880.36" y1="843.65" x2="880.36" y2="842.77"></line><line class="cls-4" x1="880.36" y1="825.16" x2="880.36" y2="582.15"></line><line class="cls-7" x1="880.36" y1="573.35" x2="880.36" y2="572.48"></line><line class="cls-7" x1="482.29" y1="2906.29" x2="482.29" y2="2905.41"></line><line class="cls-3" x1="482.29" y1="2888.73" x2="482.29" y2="2842.02"></line><line class="cls-7" x1="482.29" y1="2833.68" x2="482.29" y2="2832.81"></line><line class="cls-7" x1="1002.39" y1="2640.36" x2="1002.39" y2="2639.49"></line><line class="cls-8" x1="1002.39" y1="2622.19" x2="1002.39" y2="2364.45"></line><line class="cls-7" x1="1002.39" y1="2355.8" x2="1002.39" y2="2354.93"></line><line class="cls-7" x1="1176.24" y1="3099.07" x2="1176.23" y2="3098.2"></line><line class="cls-2" x1="1176.12" y1="3080.91" x2="1174.63" y2="2842.32"></line><line class="cls-7" x1="1174.58" y1="2833.68" x2="1174.57" y2="2832.81"></line><line class="cls-7" x1="697.21" y1="1816.04" x2="697.21" y2="1815.16"></line><line class="cls-5" x1="697.21" y1="1796.99" x2="697.21" y2="1606.13"></line><line class="cls-7" x1="697.21" y1="1597.04" x2="697.21" y2="1596.17"></line><line class="cls-7" x1="933.49" y1="1816.04" x2="933.49" y2="1815.16"></line><line class="cls-10" x1="933.49" y1="1798.15" x2="933.49" y2="1525.99"></line><line class="cls-7" x1="933.49" y1="1517.48" x2="933.49" y2="1516.61"></line><text class="cls-15" transform="translate(248.62 1860.11)"><tspan x="0" y="0">Print style uppercase leters</tspan></text><text class="cls-15" transform="translate(425.39 1953.94)"><tspan x="0" y="0">Long serif on “J”</tspan></text><rect class="cls-17" x="495.36" y="2027.44" width="181.23" height="181.23" rx="90.62" ry="90.62"></rect><text class="cls-15" transform="translate(218.67 2809.49)"><tspan x="0" y="0">Squarish curves in capitals</tspan></text><text class="cls-15" transform="translate(1055.94 2809.49)"><tspan x="0" y="0">Partially joined</tspan></text><text class="cls-15" transform="translate(338.8 899.46)"><tspan x="0" y="0">Curved entry stroke in “m”, “n” and “r”</tspan></text><rect class="cls-17" x="824.47" y="434.26" width="128.22" height="128.22" rx="64.11" ry="64.11"></rect><text class="cls-15" transform="translate(846.53 2686.43)"><tspan x="0" y="0">Open loop in “k”</tspan></text><text class="cls-15" transform="translate(1128.34 899.46)"><tspan x="0" y="0">Italic style “b”, “p” and “s”</tspan></text><text class="cls-15" transform="translate(848.33 1860.11)"><tspan x="0" y="0">“f” connects with crossbar</tspan></text><polygon class="cls-17" points="1025.24 2339.15 982.32 2339.15 1017.9 2282.11 1050.65 2263.47 1069.29 2271.01 1069.29 2292.27 1025.24 2339.15"></polygon><path class="cls-17" d="m771.9,1443.55h-92.91l-73.46,132.66c-1.3,2.16-3.46,3.89-6.48,3.89-3.89,0-7.35-3.46-7.35-7.35,0-1.3.43-3.02,1.3-4.32l150.38-270.08c2.59-4.75,4.75-6.05,7.78-6.05,3.46,0,6.48,2.59,7.35,6.91l54.02,271.81c.86,4.32-2.16,9.07-7.35,9.07-3.46,0-6.48-2.16-7.35-6.48l-25.93-130.07Zm-84.7-14.69h82.1l-21.61-108.9-60.5,108.9Z"></path><path class="cls-16" d="m966.36,1292.3h29.39c3.89,0,7.35,3.46,7.35,7.35s-3.46,7.78-7.35,7.78c-5.62,0-15.99-.43-22.47-.43h-8.21c-11.67,0-22.9,5.62-30.25,15.99-6.48,9.51-11.67,24.63-14.69,42.78l-24.2,139.14c57.47-25.06,98.53-51.86,113.65-98.96,1.73-5.19,5.62-6.05,7.35-6.05,3.89,0,6.91,3.46,6.91,7.35,0,1.3-.43,2.59-.86,3.46-16.42,55.74-63.52,84.26-130.07,111.92l-34.14,194.89c-.86,4.75-4.32,6.48-7.35,6.48-5.19,0-8.21-4.32-7.35-9.07l32.41-185.38c-10.37,3.89-20.74,8.21-31.55,12.1-1.3.43-2.59.86-4.75.86-3.89,0-6.91-3.46-6.91-7.35,0-3.02,1.3-5.19,4.75-6.91l41.48-16.42,25.5-146.06c3.89-23.33,9.51-40.19,16.85-50.99,9.94-14.69,24.63-22.47,44.51-22.47Z"></path><path class="cls-14" d="m1244.21,1456.94c10.8-10.8,20.74-21.17,35-21.17,3.89,0,7.78,3.46,7.78,7.78,0,3.89-3.89,7.35-8.21,7.35-5.19,0-10.8,3.46-25.06,17.72l-68.28,68.28c-25.5,25.5-50.13,43.21-73.03,43.21-25.93,0-34.14-20.31-34.14-43.64,0-29.82,10.37-60.5,29.38-82.1,11.24-12.96,24.63-18.58,35-18.58,6.05,0,8.64,3.89,8.64,7.35,0,3.89-3.46,7.35-7.35,7.35-7.35,0-16.42,4.32-25.06,13.83-16.42,18.58-25.5,47.1-25.5,72.17,0,14.69,3.89,28.95,18.58,28.95,16.85,0,39.32-15.56,62.66-38.89l69.57-69.57Z"></path><path class="cls-14" d="m1296.49,1494.97h.43c7.78-18.15,19.45-35.87,26.79-45.37,3.89-4.75,10.8-14.26,21.61-14.26,5.19,0,10.8,1.73,16.85,8.21l22.04,22.9c1.73,1.73,2.59,3.46,2.59,5.62,0,3.89-3.46,7.35-7.35,7.35-1.73,0-3.89-1.3-6.05-3.46l-18.15-17.29c-3.89-3.89-6.91-6.48-9.94-6.48s-6.48,2.59-10.8,8.21c-12.1,15.56-25.93,40.62-39.32,72.17-3.89,9.51-9.94,28.95-12.53,41.05-.86,4.75-4.32,6.48-7.35,6.48-5.19,0-8.21-4.32-7.35-9.07l16.85-96.36c.86-5.19,1.73-10.37,1.73-14.26,0-5.19-1.3-9.51-7.78-9.51-4.32,0-7.78-3.46-7.78-7.78s3.89-7.35,8.21-7.35c13.83,0,22.47,8.21,22.47,23.33,0,9.94-2.59,22.47-5.19,35.87Z"></path><path class="cls-14" d="m421.53,2404.93c-4.03,0-7.61-3.58-7.61-7.61s3.58-7.61,7.61-7.61l46.13-.45c24.19-.45,41.66-8.06,53.3-21.05,10.3-11.65,17.92-28.67,22.4-52.85l33.59-193.5h-63.6c-4.03,0-7.61-3.58-7.61-7.61s3.58-7.61,7.61-7.61h142.43c4.03,0,7.61,3.58,7.61,7.61s-3.58,7.61-7.61,7.61h-63.15l-34.04,194.39c-4.93,26.87-11.65,45.24-25.53,61.81-15.68,19.26-43,25.98-68.08,26.43l-43.45.45Z"></path><path class="cls-14" d="m689.38,2380.74c-14.33,14.78-30.01,24.19-45.69,24.19-8.51,0-14.78-2.24-19.71-5.82-8.51-6.27-12.09-18.36-12.09-38.07,0-17.02,5.82-40.76,12.09-56.44,6.27-16.12,13.89-27.32,21.05-34.49,4.93-4.93,9.85-8.06,15.23-10.3,7.61-3.14,15.23-4.03,24.19-4.03,9.85,0,18.81,2.69,27.77,6.72,21.05,9.85,37.18,14.78,54.64,14.78,21.95,0,43.45-6.27,64.5-14.78,4.03-1.79,9.85,1.79,9.85,6.72,0,3.14-1.79,6.27-4.93,7.61-23.29,9.85-46.13,16.57-69.87,16.57-9.41,0-24.63-1.79-38.97-6.27.9,3.58,1.34,8.51,1.34,11.65,0,24.19-12.99,54.2-39.42,81.97Zm-4.93-109.74c-6.72,0-11.65.45-17.02,2.69-4.48,1.79-8.06,4.48-12.54,8.96-5.82,5.82-10.75,13.89-16.12,27.32-6.27,15.68-11.2,36.28-11.2,51.06,0,21.5,5.37,28.67,15.68,28.67s23.29-8.06,34.94-19.71c23.74-24.19,34.94-51.06,34.94-71.22,0-17.02-9.41-27.77-28.67-27.77Z"></path><path class="cls-14" d="m948.27,2278.17c-43,81.97-86,126.76-124.52,126.76-21.5,0-39.42-13.44-39.42-49.27,0-27.77,6.27-59.57,24.19-77.49,6.27-6.27,14.33-12.09,22.84-15.68,11.65-4.93,25.98-6.72,44.34-6.72h12.09c4.03,0,7.61,3.58,7.61,7.61s-3.58,8.06-7.61,8.06-17.92-.45-23.29-.45c-12.99.45-25.98,2.69-38.97,12.99-17.02,14.33-25.53,39.42-25.53,69.87,0,26.87,9.41,35.83,23.29,35.83,30.46,0,72.56-45.69,111.08-118.25,25.08-47.03,46.58-103.02,58.23-157.66.9-4.03,3.14-7.17,8.06-7.17,4.03,0,6.72,3.58,6.72,7.61,0,.45,0,1.34-.45,3.14-11.65,54.2-34.04,114.22-58.68,160.8Z"></path><path class="cls-14" d="m1055.32,2271.01c-34.49,0-78.38,85.1-94.96,126.31-2.24,5.37-5.37,7.61-8.96,7.61-5.38,0-8.51-4.48-7.61-9.41l49.27-282.63c.9-4.48,4.48-6.27,7.61-6.27,5.37,0,8.51,4.48,7.61,8.96l-36.28,206.93c-1.79,10.3-3.14,15.68-4.93,23.74h.45c14.78-30.46,49.72-90.48,87.34-90.48,18.81,0,25.08,12.54,25.08,24.19,0,14.78-8.06,33.59-44.79,61.36l28.22,35.38c8.06,9.85,13.44,12.99,22.84,12.99,12.99,0,31.8-8.51,64.95-31.8,22.84-15.68,46.58-36.28,61.81-58.23,4.93-7.17,7.61-15.23,7.61-21.05,0-5.37-3.14-8.06-8.06-8.06-6.27,0-8.96-4.03-8.96-7.61,0-4.03,3.58-7.61,7.61-7.61,14.78,0,25.53,8.51,25.53,23.74,0,7.61-2.69,17.92-10.3,29.11-16.57,24.19-42.1,45.69-65.84,62.26-36.28,25.08-57.33,34.49-73.46,34.49-15.23,0-24.19-3.58-35.38-17.92l-32.25-40.76c-1.79-2.24-2.69-4.03-2.69-5.82,0-2.24.9-3.58,3.14-5.37,29.56-22.84,44.34-42.55,44.34-55.09,0-4.03-2.24-8.96-8.96-8.96Z"></path><path class="cls-14" d="m1334.8,2258.91c2.24-2.24,4.03-3.14,6.72-3.14,4.03,0,7.17,3.58,7.17,7.61,0,1.79-.45,4.03-2.69,6.27l-90.48,90.48c-26.43,26.43-51.96,44.79-75.7,44.79-26.87,0-35.38-21.05-35.38-45.24,0-30.91,10.75-62.71,30.46-85.1,11.65-13.44,25.53-19.26,36.28-19.26,6.27,0,8.96,4.03,8.96,7.61,0,4.03-3.58,7.61-7.61,7.61-7.61,0-17.02,4.48-25.98,14.33-17.02,19.26-26.43,48.82-26.43,74.8,0,15.23,4.03,30.01,19.26,30.01,17.47,0,40.76-16.12,64.95-40.31l90.48-90.48Z"></path><path class="cls-14" d="m1372.87,2370.44c30.01-29.56,57.33-74.35,72.56-107.95,2.24-4.93,4.93-6.72,8.06-6.72,5.37,0,8.51,4.48,7.61,9.41l-32.7,186.33c-5.37,30.91-11.2,53.3-30.91,73.9-24.19,25.08-61.81,28.67-94.96,28.67h-9.41c-4.48,0-7.61-3.58-7.61-7.61s3.14-8.06,7.61-8.06c4.93,0,11.65.45,15.68.45,28.67,0,57.78-4.48,77.04-24.19,16.12-16.12,22.84-40.31,26.87-62.71l20.6-117.35,4.93-25.08h-.45c-8.06,14.33-29.56,48.37-55.99,73.9-16.12,15.68-30.01,21.5-41.66,21.5-5.82,0-12.09-1.34-16.57-5.37-6.27-5.82-7.61-13.44-7.61-23.74,0-8.06,2.24-22.4,4.03-33.14l13.89-80.62c.9-4.48,4.48-6.27,7.61-6.27,5.37,0,8.51,4.48,7.61,8.96l-14.33,83.76c-1.34,8.06-3.14,19.26-3.14,27.32s2.24,13.89,9.85,13.89c9.41,0,22.4-10.3,31.35-19.26Z"></path><path class="cls-17" d="m377.36,3225.98c-14.13,0-27.36-3.65-37.39-14.13-19.15-20.52-13.68-54.72-9.58-76.15,3.19-16.41,13.22-58.36,19.61-81.16,20.06-70.67,29.64-95.75,66.11-116.73,15.96-9.12,37.39-13.68,59.73-14.59,9.58-.46,31.92-.91,52.89-.91,4.1,0,7.75,3.65,7.75,7.75s-3.65,7.75-7.75,7.75c-19.61,0-39.21,0-51.52.91-20.97,1.37-38.76,4.56-53.35,12.77-29.64,16.87-39.21,40.58-58.36,107.61-5.02,17.78-16.41,64.29-19.61,81.16-3.65,19.15-7.3,47.42,5.47,60.64,6.84,6.84,15.96,9.58,25.99,9.58,23.71,0,56.08-18.24,98.49-73.41,1.82-2.28,4.1-3.19,6.38-3.19,4.1,0,7.75,3.65,7.75,7.75,0,1.82-.46,3.65-1.82,5.47-44.23,58.82-80.25,78.88-110.8,78.88Z"></path><path class="cls-14" d="m608.08,3201.36c-14.59,15.05-30.55,24.62-46.51,24.62-8.66,0-15.05-2.28-20.06-5.93-8.66-6.38-12.31-18.69-12.31-38.76,0-17.33,5.93-41.49,12.31-57.45,6.38-16.41,14.13-27.81,21.43-35.11,5.02-5.02,10.03-8.21,15.5-10.49,7.75-3.19,15.5-4.1,24.62-4.1,9.58,0,19.61,2.74,28.73,6.84,16.87,7.75,30.09,10.94,41.95,10.94,17.78,0,35.56-6.38,56.54-16.87.91-.46,2.28-.91,4.1-.91,4.56,0,6.84,3.65,6.84,7.75,0,2.74-.91,5.47-3.65,6.84-22.8,11.4-43.32,19.15-65.66,19.15-6.84,0-16.87-.91-25.53-3.19,1.82,6.84,1.82,10.94,1.82,13.22,0,24.62-13.22,55.17-40.12,83.44Zm-22.34-108.97c-4.56,1.82-8.21,4.56-12.77,9.12-5.93,5.93-10.94,14.13-16.41,27.81-6.38,15.96-11.4,36.93-11.4,51.98,0,21.89,5.47,29.18,15.96,29.18s23.71-8.21,35.56-20.06c24.17-24.62,35.56-51.98,35.56-72.5,0-17.33-9.58-28.27-29.18-28.27-6.84,0-11.85.46-17.33,2.74Z"></path><path class="cls-14" d="m765.38,3190.87c30.55-30.09,57.45-76.15,72.95-110.34,2.28-5.02,5.47-6.38,8.66-6.38,5.47,0,8.66,4.56,7.75,9.12l-14.59,84.35c-1.37,8.21-3.19,20.52-3.19,27.36,0,10.49,4.1,15.5,11.4,15.5,14.59,0,33.74-15.05,59.73-58.36,8.66-14.13,21.89-40.58,33.74-72.04,1.82-5.02,5.47-5.93,7.75-5.93,3.19,0,5.47,1.82,7.75,3.19,15.05,9.12,34.65,13.68,52.43,13.68s35.11-4.56,48.79-10.03c4.1-1.82,10.03,1.82,10.03,6.84,0,3.19-1.82,6.38-5.02,7.75-17.78,7.75-37.39,11.85-54.72,11.85s-36.02-3.19-55.17-12.31c-11.4,26.9-24.17,52.44-31.92,65.2-29.64,49.7-52.44,65.66-73.41,65.66-15.96,0-27.36-9.58-27.36-29.64,0-7.75,1.37-18.24,3.19-29.18,1.37-8.66,6.38-32.83,7.75-40.12h-.46c-8.21,14.59-30.09,51.07-56.99,77.06-16.41,15.96-29.64,21.89-41.49,21.89-5.93,0-12.31-1.37-16.87-5.47-6.38-5.93-7.75-13.68-7.75-24.17,0-8.21,2.28-22.8,4.1-33.74l14.13-82.07c.91-4.56,4.56-6.38,7.75-6.38,5.47,0,8.66,4.56,7.75,9.12l-14.59,85.26c-1.37,8.21-3.19,19.61-3.19,27.81s2.28,14.13,10.03,14.13c9.58,0,21.89-10.49,31.01-19.61Z"></path><path class="cls-14" d="m1121.03,3169.44l7.3-37.39h-.46c-13.68,20.97-27.36,41.04-45.14,60.64-21.43,23.25-38.3,33.28-52.89,33.28-16.87,0-25.99-9.58-25.99-29.64,0-6.84.91-19.61,5.47-41.49,5.93-28.27,13.68-45.6,25.99-57.91,6.38-6.38,14.59-12.31,23.25-15.96,11.85-5.02,26.45-6.84,45.14-6.84h40.58c5.47,0,8.66,4.56,7.75,9.12l-33.28,190.13c-5.47,31.46-11.4,54.26-31.46,75.23-24.62,25.53-62.92,29.18-96.66,29.18h-9.58c-4.56,0-7.75-3.65-7.75-7.75s3.19-8.21,7.75-8.21c5.02,0,11.85.46,15.96.46,29.18,0,58.82-4.56,78.42-24.62,16.41-16.41,23.25-41.04,27.36-63.83l18.24-104.41Zm-22.34-79.79c-13.68,0-23.25,1.37-31.92,5.02-6.38,2.74-13.22,6.84-19.61,13.22-12.31,12.31-17.78,29.64-22.8,52.89-3.19,15.05-4.56,26.45-4.56,34.2,0,10.94,3.19,15.5,10.49,15.5,8.66,0,24.62-10.94,40.58-28.27,19.15-20.97,42.86-54.26,63.83-92.56h-36.02Z"></path><path class="cls-14" d="m1235.01,3185.4c-.91,4.56-1.82,11.4-1.82,15.05,0,5.93,1.82,10.03,7.75,10.03,7.3,0,13.68-5.47,29.18-20.97l93.47-93.47c11.4-11.4,21.89-22.34,36.93-22.34,4.1,0,8.21,3.65,8.21,8.21,0,4.1-4.1,7.75-8.66,7.75-5.47,0-11.4,3.65-26.45,18.69l-92.1,92.1c-18.69,18.69-27.81,25.53-40.12,25.53-17.78,0-24.17-10.03-24.17-25.53,0-4.1.91-10.94,2.28-18.69l13.68-76.6-25.08,25.08c-2.28,2.28-4.1,3.19-6.84,3.19-4.1,0-7.75-3.65-7.75-7.75,0-1.82.46-4.1,2.74-6.38l41.95-41.95c2.28-2.28,4.1-3.19,6.84-3.19,5.47,0,8.66,4.56,7.75,9.12l-17.78,102.13Zm20.06-171.9c5.93,0,10.94,5.02,10.94,10.94s-5.02,10.94-10.94,10.94-10.94-5.02-10.94-10.94,5.02-10.94,10.94-10.94Z"></path><path class="cls-14" d="m1593.39,2922.31c6.38,0,7.75,6.84,6.38,11.85-10.49,43.77-23.71,98.49-48.33,131.77-14.13,19.15-30.55,31.46-53.35,31.46-9.58,0-25.08-6.38-31.46-6.38-5.02,0-7.75,3.19-11.85,9.58-22.34,36.93-41.04,78.88-50.61,118.55-1.37,5.02-4.56,6.84-7.75,6.84-5.47,0-8.66-4.56-7.75-9.58l17.78-101.68c.91-5.47,1.82-10.94,1.82-15.05,0-5.47-1.37-10.03-8.21-10.03-4.56,0-8.21-3.65-8.21-8.21s4.1-7.75,8.66-7.75c14.59,0,23.71,8.66,23.71,24.62,0,10.49-3.19,24.17-5.93,38.3h.46c6.84-15.96,16.87-36.93,24.17-47.88,4.1-5.93,10.03-15.5,20.06-15.5s24.17,8.21,36.02,8.21c15.96,0,27.81-10.03,39.67-25.08,25.99-32.83,40.12-92.1,46.96-127.67.91-4.56,4.56-6.38,7.75-6.38Z"></path><path class="cls-14" d="m1564.67,3210.48c6.84,0,17.33-8.66,29.64-20.97l10.49-10.49c2.28-2.28,4.1-3.65,6.84-3.65,4.1,0,7.75,3.65,7.75,7.75,0,1.82-.46,4.1-2.74,6.38l-11.85,11.85c-15.5,15.5-26.9,24.62-39.67,24.62-7.3,0-12.77-1.37-16.87-4.56-6.84-5.02-8.66-12.77-8.66-21.43,0-5.47.91-11.85,1.82-17.78l44.23-253.51c.91-4.56,4.56-6.38,7.75-6.38,5.47,0,8.66,4.56,7.75,9.12l-44.23,253.97c-.46,2.74-1.37,8.21-1.37,12.31,0,8.21,2.28,12.77,9.12,12.77Z"></path><g class="cls-13"><path class="cls-18" d="m421.51,2404.93c-4.03,0-7.61-3.58-7.61-7.61s3.58-7.61,7.61-7.61l46.13-.45c24.19-.45,41.66-8.06,53.3-21.05,10.3-11.65,17.92-28.67,22.4-52.85l33.59-193.5h-63.6c-4.03,0-7.61-3.58-7.61-7.61s3.58-7.61,7.61-7.61h142.43c4.03,0,7.61,3.58,7.61,7.61s-3.58,7.61-7.61,7.61h-63.15l-34.04,194.39c-4.93,26.87-11.65,45.24-25.53,61.81-15.68,19.26-43,25.98-68.08,26.43l-43.45.45Z"></path><path class="cls-18" d="m689.36,2380.74c-14.33,14.78-30.01,24.19-45.69,24.19-8.51,0-14.78-2.24-19.71-5.82-8.51-6.27-12.09-18.36-12.09-38.07,0-17.02,5.82-40.76,12.09-56.44,6.27-16.12,13.89-27.32,21.05-34.49,4.93-4.93,9.85-8.06,15.23-10.3,7.61-3.14,15.23-4.03,24.19-4.03,9.85,0,18.81,2.69,27.77,6.72,21.05,9.85,37.18,14.78,54.64,14.78,21.95,0,43.45-6.27,64.5-14.78,4.03-1.79,9.85,1.79,9.85,6.72,0,3.14-1.79,6.27-4.93,7.61-23.29,9.85-46.13,16.57-69.87,16.57-9.41,0-24.63-1.79-38.97-6.27.9,3.58,1.34,8.51,1.34,11.65,0,24.19-12.99,54.2-39.42,81.97Zm-4.93-109.74c-6.72,0-11.65.45-17.02,2.69-4.48,1.79-8.06,4.48-12.54,8.96-5.82,5.82-10.75,13.89-16.12,27.32-6.27,15.68-11.2,36.28-11.2,51.06,0,21.5,5.37,28.67,15.68,28.67s23.29-8.06,34.94-19.71c23.74-24.19,34.94-51.06,34.94-71.22,0-17.02-9.41-27.77-28.67-27.77Z"></path><path class="cls-18" d="m948.25,2278.17c-43,81.97-86,126.76-124.52,126.76-21.5,0-39.42-13.44-39.42-49.27,0-27.77,6.27-59.57,24.19-77.49,6.27-6.27,14.33-12.09,22.84-15.68,11.65-4.93,25.98-6.72,44.34-6.72h12.09c4.03,0,7.61,3.58,7.61,7.61s-3.58,8.06-7.61,8.06-17.92-.45-23.29-.45c-12.99.45-25.98,2.69-38.97,12.99-17.02,14.33-25.53,39.42-25.53,69.87,0,26.87,9.41,35.83,23.29,35.83,30.46,0,72.56-45.69,111.08-118.25,25.08-47.03,46.58-103.02,58.23-157.66.9-4.03,3.14-7.17,8.06-7.17,4.03,0,6.72,3.58,6.72,7.61,0,.45,0,1.34-.45,3.14-11.65,54.2-34.04,114.22-58.68,160.8Z"></path><path class="cls-18" d="m1055.3,2271.01c-34.49,0-78.38,85.1-94.96,126.31-2.24,5.37-5.37,7.61-8.96,7.61-5.38,0-8.51-4.48-7.61-9.41l49.27-282.63c.9-4.48,4.48-6.27,7.61-6.27,5.37,0,8.51,4.48,7.61,8.96l-36.28,206.93c-1.79,10.3-3.14,15.68-4.93,23.74h.45c14.78-30.46,49.72-90.48,87.34-90.48,18.81,0,25.08,12.54,25.08,24.19,0,14.78-8.06,33.59-44.79,61.36l28.22,35.38c8.06,9.85,13.44,12.99,22.84,12.99,12.99,0,31.8-8.51,64.95-31.8,22.84-15.68,46.58-36.28,61.81-58.23,4.93-7.17,7.61-15.23,7.61-21.05,0-5.37-3.14-8.06-8.06-8.06-6.27,0-8.96-4.03-8.96-7.61,0-4.03,3.58-7.61,7.61-7.61,14.78,0,25.53,8.51,25.53,23.74,0,7.61-2.69,17.92-10.3,29.11-16.57,24.19-42.1,45.69-65.84,62.26-36.28,25.08-57.33,34.49-73.46,34.49-15.23,0-24.19-3.58-35.38-17.92l-32.25-40.76c-1.79-2.24-2.69-4.03-2.69-5.82,0-2.24.9-3.58,3.14-5.37,29.56-22.84,44.34-42.55,44.34-55.09,0-4.03-2.24-8.96-8.96-8.96Z"></path><path class="cls-18" d="m1334.79,2258.91c2.24-2.24,4.03-3.14,6.72-3.14,4.03,0,7.17,3.58,7.17,7.61,0,1.79-.45,4.03-2.69,6.27l-90.48,90.48c-26.43,26.43-51.96,44.79-75.7,44.79-26.87,0-35.38-21.05-35.38-45.24,0-30.91,10.75-62.71,30.46-85.1,11.65-13.44,25.53-19.26,36.28-19.26,6.27,0,8.96,4.03,8.96,7.61,0,4.03-3.58,7.61-7.61,7.61-7.61,0-17.02,4.48-25.98,14.33-17.02,19.26-26.43,48.82-26.43,74.8,0,15.23,4.03,30.01,19.26,30.01,17.47,0,40.76-16.12,64.95-40.31l90.48-90.48Z"></path><path class="cls-18" d="m1372.86,2370.44c30.01-29.56,57.33-74.35,72.56-107.95,2.24-4.93,4.93-6.72,8.06-6.72,5.37,0,8.51,4.48,7.61,9.41l-32.7,186.33c-5.37,30.91-11.2,53.3-30.91,73.9-24.19,25.08-61.81,28.67-94.96,28.67h-9.41c-4.48,0-7.61-3.58-7.61-7.61s3.14-8.06,7.61-8.06c4.93,0,11.65.45,15.68.45,28.67,0,57.78-4.48,77.04-24.19,16.12-16.12,22.84-40.31,26.87-62.71l20.6-117.35,4.93-25.08h-.45c-8.06,14.33-29.56,48.37-55.99,73.9-16.12,15.68-30.01,21.5-41.66,21.5-5.82,0-12.09-1.34-16.57-5.37-6.27-5.82-7.61-13.44-7.61-23.74,0-8.06,2.24-22.4,4.03-33.14l13.89-80.62c.9-4.48,4.48-6.27,7.61-6.27,5.37,0,8.51,4.48,7.61,8.96l-14.33,83.76c-1.34,8.06-3.14,19.26-3.14,27.32s2.24,13.89,9.85,13.89c9.41,0,22.4-10.3,31.35-19.26Z"></path></g><rect class="cls-9" x="614.98" y="123.65" width="721.27" height="118.22"></rect><text class="cls-21" transform="translate(641.93 204.72)"><tspan x="0" y="0">QUEENSLAND CURSIVE UNJOINED</tspan></text><rect class="cls-9" x="636.31" y="1070.09" width="663.82" height="118.22"></rect><text class="cls-21" transform="translate(664.02 1152.25)"><tspan x="0" y="0">QUEENSLAND CURSIVE JOINED</tspan></text><path class="cls-14" d="m374.22,358.31c.86-4.75,3.89-9.07,9.5-9.07,12.95-.43,27.2-.43,39.72-.43,39.72,0,57.42,2.59,75.55,14.25,17.27,10.79,26.77,29.79,26.77,51.37,0,28.49-15.97,53.96-43.17,68.64-22.45,12.09-53.53,16.84-86.77,17.27h-31.51l-22.45,129.94c-.86,4.75-4.32,6.48-7.34,6.48-5.18,0-8.2-4.32-7.34-9.07l47.06-269.38Zm-7.34,127.35h28.92c24.61,0,57.85-3.02,80.73-16.4,18.56-10.79,33.67-30.22,33.67-54.39,0-16.84-6.04-29.36-19.43-38.85-13.81-9.5-28.92-12.52-66.91-12.52-11.22,0-24.18,0-35.4.43l-21.58,121.74Z"></path><path class="cls-14" d="m553.8,622.08c6.48,0,16.4-8.2,28.06-19.86l9.93-9.93c2.16-2.16,3.89-3.45,6.48-3.45,3.89,0,7.34,3.45,7.34,7.34,0,1.73-.43,3.89-2.59,6.04l-11.22,11.22c-14.68,14.68-25.47,23.31-37.56,23.31-6.91,0-12.09-1.3-15.97-4.32-6.48-4.75-8.2-12.09-8.2-20.29,0-5.18.86-11.22,1.73-16.84l41.87-240.02c.86-4.32,4.32-6.04,7.34-6.04,5.18,0,8.2,4.32,7.34,8.63l-41.87,240.46c-.43,2.59-1.3,7.77-1.3,11.66,0,7.77,2.16,12.09,8.63,12.09Z"></path><path class="cls-14" d="m785.62,622.08c6.48,0,16.4-8.2,28.06-19.86l9.93-9.93c2.16-2.16,3.89-3.45,6.48-3.45,3.89,0,7.34,3.45,7.34,7.34,0,1.73-.43,3.89-2.59,6.04l-11.22,11.22c-14.68,14.68-25.47,23.31-37.56,23.31-6.91,0-12.09-1.3-15.97-4.32-6.48-4.75-8.2-12.09-8.2-20.29,0-5.18.86-11.22,1.73-16.84l4.75-26.33,4.75-24.18h-.43c-7.77,13.81-28.49,46.62-53.96,71.23-15.54,15.11-28.92,20.72-40.15,20.72-5.61,0-11.66-1.3-15.97-5.18-6.04-5.61-7.34-12.95-7.34-22.88,0-7.77,2.16-21.58,3.89-31.95l9.5-54.39-23.74,23.74c-2.16,2.16-3.89,3.02-6.48,3.02-3.89,0-7.34-3.45-7.34-7.34,0-1.73.43-3.89,2.59-6.04l39.72-39.72c2.16-2.16,3.89-3.02,6.48-3.02,5.18,0,8.2,4.32,7.34,8.63l-13.81,80.73c-1.3,7.77-3.02,18.56-3.02,26.33s2.16,13.38,9.5,13.38c9.07,0,21.58-9.93,30.22-18.56,28.92-28.49,55.26-71.66,69.94-104.04,2.16-4.75,4.75-6.48,7.77-6.48,5.18,0,8.2,4.32,7.34,9.07l-16.84,96.27c-.43,2.59-1.3,7.77-1.3,11.66,0,7.77,2.16,12.09,8.63,12.09Z"></path><path class="cls-14" d="m1149.1,622.08c6.48,0,16.4-8.2,28.06-19.86l9.93-9.93c2.16-2.16,3.89-3.45,6.48-3.45,3.89,0,7.34,3.45,7.34,7.34,0,1.73-.43,3.89-2.59,6.04l-11.22,11.22c-14.68,14.68-25.47,23.31-37.56,23.31-6.91,0-12.09-1.3-15.97-4.32-6.48-4.75-8.2-12.09-8.2-20.29,0-5.18.86-11.22,1.73-16.84l8.2-48.35c1.3-6.91,3.02-18.13,3.02-25.9,0-8.63-1.73-13.38-8.2-13.38-24.18,0-61.73,53.96-79.86,84.61-6.04,10.36-16.84,30.22-20.29,37.99-2.16,4.75-4.75,6.48-7.77,6.48-5.18,0-8.2-4.32-7.34-9.07l13.81-80.73c1.3-6.91,3.02-18.13,3.02-25.9,0-8.63-1.73-13.38-8.2-13.38-24.18,0-61.73,53.96-79.86,84.61-6.04,10.36-16.84,30.22-20.29,37.99-2.16,4.75-4.75,6.48-7.77,6.48-5.18,0-8.2-4.32-7.34-9.07l16.84-96.27c.86-5.18,1.73-10.36,1.73-14.25,0-5.18-1.3-9.5-7.77-9.5-5.61,0-12.09,3.45-26.33,17.7l-12.09,12.09c-2.16,2.16-3.89,3.45-6.48,3.45-3.89,0-7.34-3.45-7.34-7.34,0-1.73.43-3.89,2.59-6.04l13.81-13.81c10.79-10.79,21.58-21.15,36.26-21.15,13.81,0,22.45,8.2,22.45,23.31,0,5.61-.86,11.66-2.16,18.99l-4.75,25.9-4.75,23.31h.43c16.84-26.33,56.98-91.95,93.25-91.09,6.91,0,12.09,2.16,15.97,5.61,5.18,4.75,6.91,12.09,6.91,21.15s-2.16,23.74-3.45,31.08l-1.73,9.93-4.75,23.31h.43c16.84-26.33,56.98-91.95,93.25-91.09,6.91,0,12.09,2.16,15.97,5.61,5.18,4.75,6.91,12.09,6.91,21.15s-2.16,23.74-3.45,31.08l-8.2,47.49c-.43,2.59-1.3,7.77-1.3,11.66,0,7.77,2.16,12.09,8.63,12.09Z"></path><path class="cls-17" d="m1254.87,548.26c-1.73,9.5-3.89,22.02-6.48,34.54h.43c1.3-1.73,14.68-22.02,25.47-34.97,15.97-18.99,31.95-35.83,43.6-44.46,9.93-7.34,18.13-10.36,26.77-10.36,10.79,0,21.58,6.48,21.58,25.47,0,10.79-1.73,24.61-5.18,41.87-5.61,26.77-12.95,43.17-24.61,54.83-6.04,6.04-13.81,11.66-22.02,15.11-11.22,4.75-25.04,6.48-42.74,6.48h-38.42c-5.18,0-8.2-4.32-7.34-8.63l47.49-272.83c.86-4.32,4.32-6.04,7.34-6.04,5.18,0,8.2,4.32,7.34,8.63l-33.24,190.38Zm88.93-40.58c-5.18,0-11.66,3.45-20.72,10.79-12.52,10.36-27.63,26.77-37.13,38.85-17.7,22.02-35.83,48.78-43.6,64.75h34.1c12.95,0,22.02-1.3,30.22-4.75,6.04-2.59,12.52-6.48,18.56-12.52,11.66-11.66,16.84-28.92,21.58-50.94,3.02-13.81,4.32-28.49,4.32-33.24,0-9.07-2.16-12.95-7.34-12.95Z"></path><path class="cls-14" d="m1413.3,526.67c11.22-17.27,29.36-33.67,51.8-33.67,7.77,0,15.11,2.16,20.29,7.34,3.89,3.89,6.04,9.5,6.04,15.54,0,37.13-52.67,61.73-84.18,75.55-.43,4.32-.43,5.18-.43,5.61,0,13.38,3.02,25.04,17.7,25.04,8.63,0,18.99-6.04,28.49-15.54l16.84-16.84c1.3-1.3,3.45-2.16,5.18-2.16,3.89,0,7.34,3.45,7.34,7.34,0,2.16-.86,3.89-2.59,5.61l-15.97,16.4c-11.66,11.66-25.04,19.86-38.42,19.86-25.9,0-33.24-18.99-33.24-38.85s6.04-48.35,21.15-71.23Zm62.6-9.93c0-5.61-3.45-9.5-11.22-9.5-20.29,0-46.19,26.33-54.83,66.48,20.72-9.07,66.05-31.51,66.05-56.98Z"></path><path class="cls-14" d="m1569.57,531.42c.86-5.18,1.73-10.36,1.73-14.25,0-5.18-1.3-9.5-7.77-9.5-5.61,0-12.09,3.45-26.33,17.7l-12.09,12.09c-2.16,2.16-3.89,3.45-6.48,3.45-3.89,0-7.34-3.45-7.34-7.34,0-1.73.43-3.89,2.59-6.04l13.81-13.81c10.79-10.79,21.58-21.15,36.26-21.15,13.81,0,22.45,8.2,22.45,23.31,0,9.93-2.59,22.45-5.18,35.83h.43c7.77-18.13,19.43-35.83,26.77-45.33,3.89-4.75,10.79-14.25,21.58-14.25,5.18,0,10.79,1.73,16.84,8.2l22.02,22.88c1.73,1.73,2.59,3.45,2.59,5.61,0,3.89-3.45,7.34-7.34,7.34-1.73,0-3.89-1.3-6.04-3.45l-18.13-17.27c-3.89-3.89-6.91-6.48-9.93-6.48s-6.48,2.59-10.79,8.2c-12.09,15.54-25.9,40.58-39.28,72.09-3.89,9.5-9.93,28.92-12.52,41.01-.86,4.75-4.32,6.48-7.34,6.48-5.18,0-8.2-4.32-7.34-9.07l16.84-96.27Z"></path><g class="cls-20"><path class="cls-18" d="m1149.1,622.08c6.48,0,16.4-8.2,28.06-19.86l9.93-9.93c2.16-2.16,3.89-3.45,6.48-3.45,3.89,0,7.34,3.45,7.34,7.34,0,1.73-.43,3.89-2.59,6.04l-11.22,11.22c-14.68,14.68-25.47,23.31-37.56,23.31-6.91,0-12.09-1.3-15.97-4.32-6.48-4.75-8.2-12.09-8.2-20.29,0-5.18.86-11.22,1.73-16.84l8.2-48.35c1.3-6.91,3.02-18.13,3.02-25.9,0-8.63-1.73-13.38-8.2-13.38-24.18,0-61.73,53.96-79.86,84.61-6.04,10.36-16.84,30.22-20.29,37.99-2.16,4.75-4.75,6.48-7.77,6.48-5.18,0-8.2-4.32-7.34-9.07l13.81-80.73c1.3-6.91,3.02-18.13,3.02-25.9,0-8.63-1.73-13.38-8.2-13.38-24.18,0-61.73,53.96-79.86,84.61-6.04,10.36-16.84,30.22-20.29,37.99-2.16,4.75-4.75,6.48-7.77,6.48-5.18,0-8.2-4.32-7.34-9.07l16.84-96.27c.86-5.18,1.73-10.36,1.73-14.25,0-5.18-1.3-9.5-7.77-9.5-5.61,0-12.09,3.45-26.33,17.7l-12.09,12.09c-2.16,2.16-3.89,3.45-6.48,3.45-3.89,0-7.34-3.45-7.34-7.34,0-1.73.43-3.89,2.59-6.04l13.81-13.81c10.79-10.79,21.58-21.15,36.26-21.15,13.81,0,22.45,8.2,22.45,23.31,0,5.61-.86,11.66-2.16,18.99l-4.75,25.9-4.75,23.31h.43c16.84-26.33,56.98-91.95,93.25-91.09,6.91,0,12.09,2.16,15.97,5.61,5.18,4.75,6.91,12.09,6.91,21.15s-2.16,23.74-3.45,31.08l-1.73,9.93-4.75,23.31h.43c16.84-26.33,56.98-91.95,93.25-91.09,6.91,0,12.09,2.16,15.97,5.61,5.18,4.75,6.91,12.09,6.91,21.15s-2.16,23.74-3.45,31.08l-8.2,47.49c-.43,2.59-1.3,7.77-1.3,11.66,0,7.77,2.16,12.09,8.63,12.09Z"></path></g><path class="cls-14" d="m1063.38,2376.71l-26.57-33.32c-.91-1.14-.7-2.79.46-3.68,34.93-26.89,42.68-45.26,42.68-59.76,0-11.65-6.27-24.19-25.08-24.19-37.62,0-72.56,60.02-87.34,90.48h-.45c1.79-8.06,3.14-13.44,4.93-23.74l36.28-206.93c.9-4.48-2.24-8.96-7.61-8.96-3.14,0-6.72,1.79-7.61,6.27l-49.27,282.63c-.9,4.93,2.24,9.41,7.61,9.41,3.58,0,6.72-2.24,8.96-7.61,16.57-41.21,60.47-126.31,94.96-126.31,6.72,0,8.96,4.93,8.96,8.96,0,12.54-14.78,32.25-44.34,55.09-2.24,1.79-3.14,3.14-3.14,5.37,0,1.79.9,3.58,2.69,5.82l32.25,40.76c10.49,13.42,19.01,17.42,32.56,17.87,1.52.05,2.75-1.23,2.66-2.74l-.59-10.04c-.08-1.31-1.1-2.38-2.41-2.46-8.05-.5-13.18-3.89-20.57-12.92Z"></path><path class="cls-17" d="m876.47,1529.54c-10.37,3.89-20.74,8.21-31.55,12.1-1.3.43-2.59.86-4.75.86-3.89,0-6.91-3.46-6.91-7.35,0-3.02,1.3-5.19,4.75-6.91l41.48-16.42,16.42-6.91c57.47-25.06,98.53-51.86,113.65-98.96,1.73-5.19,5.62-6.05,7.35-6.05,3.89,0,6.91,3.46,6.91,7.35,0,1.3-.43,2.59-.86,3.46-16.42,55.74-63.52,84.26-130.07,111.92l-16.42,6.91Z"></path><path class="cls-14" d="m985.8,1548.55c0-5.19.86-12.96,2.16-19.88l19.88-113.65h-38.46c-3.89,0-7.35-3.46-7.35-7.35s3.46-7.35,7.35-7.35h41.05l5.19-30.25c.86-4.32,4.32-6.05,7.35-6.05,5.19,0,8.21,4.32,7.35,8.64l-4.75,27.66h41.48c3.89,0,7.35,3.46,7.35,7.35s-3.46,7.35-7.35,7.35h-44.08l-20.31,116.67c-1.3,7.78-1.73,11.67-1.73,15.99,0,12.1,6.48,17.72,17.29,17.72,15.12,0,38.89-11.24,66.55-30.68,22.04-15.12,44.94-35,59.63-56.18,4.75-6.91,7.35-14.69,7.35-20.31,0-5.19-3.02-7.78-7.78-7.78-6.05,0-8.64-3.89-8.64-7.35,0-3.89,3.46-7.35,7.35-7.35,14.26,0,24.63,8.21,24.63,22.9,0,7.35-2.59,17.29-9.94,28.09-15.99,23.33-40.62,44.08-63.52,60.07-30.25,21.17-54.88,33.27-74.76,33.27s-33.27-9.07-33.27-31.55Z"></path></svg> 