<?xml version="1.0" encoding="UTF-8"?> <svg xmlns="http://www.w3.org/2000/svg" xmlns:xlink="http://www.w3.org/1999/xlink" id="Layer_1" viewBox="0 0 1920 3813"><defs><style>.cls-1,.cls-2,.cls-3,.cls-4,.cls-5,.cls-6,.cls-7,.cls-8,.cls-9,.cls-10,.cls-11,.cls-12,.cls-13,.cls-14{fill:none;}.cls-2{stroke-dasharray:0 0 1.65 16.49;}.cls-2,.cls-3,.cls-4,.cls-5,.cls-6,.cls-7,.cls-8,.cls-9,.cls-10,.cls-11,.cls-12,.cls-13,.cls-14{stroke-miterlimit:10;}.cls-2,.cls-3,.cls-4,.cls-5,.cls-6,.cls-7,.cls-8,.cls-9,.cls-10,.cls-12,.cls-13,.cls-14{stroke:#a797c9;stroke-linecap:round;stroke-width:7px;}.cls-3{stroke-dasharray:0 0 1.7 17;}.cls-4{stroke-dasharray:0 0 1.67 16.67;}.cls-15{clip-path:url(#clippath);}.cls-16{fill:#fff;}.cls-17{fill:#937eb9;}.cls-18{fill:#937fbb;}.cls-19{fill:#161b31;}.cls-5{stroke-dasharray:0 0 1.72 17.16;}.cls-20{clip-path:url(#clippath-1);}.cls-21{clip-path:url(#clippath-4);}.cls-22{clip-path:url(#clippath-3);}.cls-23{clip-path:url(#clippath-2);}.cls-7{stroke-dasharray:0 0 1.69 16.86;}.cls-8{stroke-dasharray:0 0 1.71 17.09;}.cls-9{stroke-dasharray:0 0 1.7 16.97;}.cls-10{stroke-dasharray:0 0 1.71 17.09;}.cls-11{stroke:#566789;stroke-width:3.5px;}.cls-12{stroke-dasharray:0 0 1.76 17.64;}.cls-13{stroke-dasharray:0 0 1.68 16.8;}.cls-14{stroke-dasharray:0 0 1.74 17.42;}</style><clipPath id="clippath"><rect class="cls-1" x="1433.01" y="1257.39" width="111.73" height="111.73" rx="55.87" ry="55.87"></rect></clipPath><clipPath id="clippath-1"><rect class="cls-1" x="1067.63" y="1257.39" width="119.71" height="119.71" rx="59.86" ry="59.86"></rect></clipPath><clipPath id="clippath-2"><circle class="cls-1" cx="1056.28" cy="2134.14" r="139.15"></circle></clipPath><clipPath id="clippath-3"><circle class="cls-1" cx="943.65" cy="2527.87" r="113.59"></circle></clipPath><clipPath id="clippath-4"><circle class="cls-1" cx="1460.75" cy="3035.04" r="121.03"></circle></clipPath></defs><rect class="cls-19" width="1920" height="3813"></rect><line class="cls-11" y1="200.16" x2="1920" y2="200.16"></line><line class="cls-11" y1="387.2" x2="1920" y2="387.2"></line><line class="cls-11" x1="1920" y1="577.35" y2="577.35"></line><line class="cls-11" y1="766.16" x2="1920" y2="766.16"></line><line class="cls-11" y1="1116.73" x2="1920" y2="1116.73"></line><line class="cls-11" y1="1303.76" x2="1920" y2="1303.76"></line><line class="cls-11" x1="1920" y1="1493.91" y2="1493.91"></line><line class="cls-11" y1="1682.73" x2="1920" y2="1682.73"></line><line class="cls-11" y1="2041.64" x2="1920" y2="2041.64"></line><line class="cls-11" y1="2228.68" x2="1920" y2="2228.68"></line><line class="cls-11" x1="1920" y1="2418.83" y2="2418.83"></line><line class="cls-11" y1="2607.64" x2="1920" y2="2607.64"></line><line class="cls-11" y1="2952.42" x2="1920" y2="2952.42"></line><line class="cls-11" y1="3139.46" x2="1920" y2="3139.46"></line><line class="cls-11" x1="1920" y1="3329.61" y2="3329.61"></line><line class="cls-11" y1="3518.42" x2="1920" y2="3518.42"></line><line class="cls-6" x1="606.53" y1="837.43" x2="606.53" y2="836.56"></line><line class="cls-7" x1="606.53" y1="819.71" x2="606.53" y2="605.65"></line><line class="cls-6" x1="606.53" y1="597.22" x2="606.53" y2="596.35"></line><line class="cls-6" x1="1125.95" y1="1249.64" x2="1125.95" y2="1248.77"></line><line class="cls-8" x1="1125.95" y1="1231.68" x2="1125.95" y2="1052.23"></line><line class="cls-6" x1="1125.95" y1="1043.69" x2="1125.95" y2="1042.82"></line><line class="cls-6" x1="920.65" y1="3585.31" x2="920.65" y2="3584.44"></line><line class="cls-13" x1="920.65" y1="3567.63" x2="920.65" y2="3354.24"></line><line class="cls-6" x1="920.65" y1="3345.84" x2="920.65" y2="3344.97"></line><line class="cls-6" x1="1488.88" y1="1244.59" x2="1488.88" y2="1243.72"></line><line class="cls-10" x1="1488.88" y1="1226.64" x2="1488.88" y2="1047.23"></line><line class="cls-6" x1="1488.88" y1="1038.69" x2="1488.88" y2="1037.82"></line><line class="cls-6" x1="1394.71" y1="842.42" x2="1394.71" y2="841.55"></line><line class="cls-3" x1="1394.71" y1="824.55" x2="1394.71" y2="608.7"></line><line class="cls-6" x1="1394.71" y1="600.21" x2="1394.71" y2="599.33"></line><line class="cls-6" x1="503.03" y1="2024.98" x2="503.03" y2="2024.11"></line><line class="cls-4" x1="503.03" y1="2007.44" x2="503.03" y2="1905.78"></line><line class="cls-6" x1="503.03" y1="1897.44" x2="503.03" y2="1896.57"></line><line class="cls-6" x1="405.65" y1="1819.43" x2="405.65" y2="1818.56"></line><line class="cls-14" x1="405.65" y1="1801.14" x2="405.65" y2="1522.42"></line><line class="cls-6" x1="405.65" y1="1513.71" x2="405.65" y2="1512.84"></line><line class="cls-6" x1="1087.44" y1="1990.56" x2="1087.44" y2="1989.69"></line><line class="cls-12" x1="1087.44" y1="1972.05" x2="1087.44" y2="1903.27"></line><line class="cls-6" x1="1087.44" y1="1894.45" x2="1087.44" y2="1893.58"></line><line class="cls-6" x1="203.3" y1="3587.84" x2="203.3" y2="3586.96"></line><line class="cls-5" x1="203.3" y1="3569.81" x2="203.3" y2="3351.89"></line><line class="cls-6" x1="203.3" y1="3343.31" x2="203.3" y2="3342.44"></line><line class="cls-6" x1="926.72" y1="2719.89" x2="926.72" y2="2719.02"></line><line class="cls-2" x1="926.72" y1="2702.53" x2="926.72" y2="2656.37"></line><line class="cls-6" x1="926.72" y1="2648.12" x2="926.72" y2="2647.25"></line><line class="cls-6" x1="1460.75" y1="2901.38" x2="1460.75" y2="2900.5"></line><line class="cls-9" x1="1460.75" y1="2883.53" x2="1460.75" y2="2854.68"></line><line class="cls-6" x1="1460.75" y1="2846.19" x2="1460.75" y2="2845.32"></line><polygon class="cls-17" points="578.08 3519.84 630.42 3519.84 818.51 2952.05 766.17 2952.05 578.08 3519.84"></polygon><path class="cls-16" d="m644.38,2880.7h3.23l11.51,20.92h.08l11.51-20.92h3.23v32.77h-2.94v-27.85h-.04l-10.75,19.91h-2.06l-10.8-19.91h-.04v27.85h-2.94v-32.77Z"></path><path class="cls-16" d="m680.88,2902.96c0-6.22,3.32-11.05,10.38-11.05,6.59,0,10.25,4.83,10.25,11.05s-3.7,11.05-10.29,11.05c-7.27,0-10.33-4.83-10.33-11.05Zm17.56,0c0-5.33-2.9-8.49-7.22-8.49-4.75,0-7.27,3.15-7.27,8.49s2.56,8.49,7.27,8.49c4.33,0,7.22-3.15,7.22-8.49Z"></path><path class="cls-16" d="m705.7,2903c0-7.1,4.28-11.09,10.04-11.09,3.7,0,6.22,1.6,7.31,3.74h.04v-14.95h2.94v32.77h-1.97l-.67-3.61h-.08c-1.18,2.31-3.95,4.16-7.77,4.16-6.3,0-9.83-3.99-9.83-11.01Zm17.64-.5c0-5.5-3.36-8.07-7.35-8.07-3.11,0-7.14,1.47-7.14,8.4s3.61,8.61,7.14,8.61c4.24,0,7.35-2.73,7.35-8.95Z"></path><path class="cls-16" d="m750.64,2903.97h-15.96c.17,4.79,2.48,7.48,6.93,7.48,3.82,0,5.67-1.43,5.97-4.83h2.98c-.29,4.24-3.28,7.39-9.03,7.39-7.06,0-9.83-4.66-9.83-10.88s3.23-11.22,10-11.22,8.95,3.99,8.95,10.21v1.85Zm-3.11-2.98c0-4.45-1.72-6.55-5.92-6.55s-6.55,2.65-6.89,6.97h12.81v-.42Z"></path><path class="cls-16" d="m756.52,2892.46h2.6l.29,3.91c1.01-2.14,3.07-4.45,6.76-4.45,1.26,0,2.18.21,3.02.55v3.15c-1.13-.5-2.1-.76-3.4-.76-3.74,0-6.34,2.81-6.34,5.75v12.85h-2.94v-21Z"></path><path class="cls-16" d="m772.14,2907.67c0-3.95,2.23-6.09,7.86-6.09h6.34v-1.72c0-2.98-1.26-5.42-5.46-5.42-3.95,0-5.33,1.51-5.33,4.12v.88h-2.98v-.84c0-5,4.2-6.68,8.32-6.68,5.8,0,8.4,2.86,8.4,8.44v13.11h-2.06l-.55-2.98h-.08c-1.26,1.89-3.7,3.53-7.35,3.53-4.92,0-7.1-2.31-7.1-6.34Zm14.2-1.85v-1.76h-7.01c-2.65,0-4.03.92-4.03,3.61,0,2.35,1.26,3.86,4.5,3.86,4.16,0,6.55-2.14,6.55-5.71Z"></path><path class="cls-16" d="m807.38,2910.77v2.6c-.76.21-2.14.59-4.03.59-3.82,0-6.34-1.6-6.34-6.89v-12.18h-4.16v-2.44h4.16v-6.05l2.94-1.43v7.48h5.92v2.44h-5.92v11.8c0,2.82.76,4.58,3.4,4.58,1.6,0,3.23-.29,4.03-.5Z"></path><path class="cls-16" d="m828.84,2903.97h-15.96c.17,4.79,2.48,7.48,6.93,7.48,3.82,0,5.67-1.43,5.97-4.83h2.98c-.29,4.24-3.28,7.39-9.03,7.39-7.06,0-9.83-4.66-9.83-10.88s3.23-11.22,10-11.22,8.95,3.99,8.95,10.21v1.85Zm-3.11-2.98c0-4.45-1.72-6.55-5.92-6.55s-6.55,2.65-6.89,6.97h12.81v-.42Z"></path><path class="cls-16" d="m842.49,2907.04v-1.18h2.94v1.13c0,2.86,2.14,4.49,5.96,4.49s5.8-1.01,5.8-3.78c0-2.06-1.01-2.81-3.86-3.32l-4.62-.84c-3.02-.55-5.54-2.02-5.54-5.5,0-3.15,2.35-6.13,8.4-6.13s8.4,3.02,8.4,7.23v.88h-2.98v-.76c0-3.45-2.14-4.92-5.42-4.92-3.95,0-5.33,1.34-5.33,3.36s1.01,2.86,3.91,3.4l4.03.76c4.12.76,6.09,1.93,6.09,5.59,0,4.58-4.12,6.55-8.78,6.55-7.31,0-8.99-3.28-8.99-6.97Z"></path><path class="cls-16" d="m866.14,2880.7h2.94v32.77h-2.94v-32.77Z"></path><path class="cls-16" d="m875.17,2907.67c0-3.95,2.23-6.09,7.86-6.09h6.34v-1.72c0-2.98-1.26-5.42-5.46-5.42-3.95,0-5.33,1.51-5.33,4.12v.88h-2.98v-.84c0-5,4.2-6.68,8.32-6.68,5.8,0,8.4,2.86,8.4,8.44v13.11h-2.06l-.55-2.98h-.08c-1.26,1.89-3.7,3.53-7.35,3.53-4.92,0-7.1-2.31-7.1-6.34Zm14.2-1.85v-1.76h-7.01c-2.65,0-4.03.92-4.03,3.61,0,2.35,1.26,3.86,4.5,3.86,4.16,0,6.55-2.14,6.55-5.71Z"></path><path class="cls-16" d="m899.65,2892.46h2.6l.29,3.49c1.01-2.14,3.28-4.03,7.35-4.03,4.75,0,7.77,2.52,7.77,7.94v13.61h-2.94v-13.27c0-4.33-2.14-5.71-5.5-5.71-3.82,0-6.64,2.69-6.64,5.63v13.36h-2.94v-21Z"></path><path class="cls-16" d="m935.98,2910.77v2.6c-.76.21-2.14.59-4.03.59-3.82,0-6.34-1.6-6.34-6.89v-12.18h-4.16v-2.44h4.16v-6.05l2.94-1.43v7.48h5.92v2.44h-5.92v11.8c0,2.82.76,4.58,3.4,4.58,1.6,0,3.23-.29,4.03-.5Z"></path><path class="cls-16" d="m382.75,865.73h8.61c7.94,0,11.64,2.73,11.64,9.62,0,6.43-2.77,10.12-11.13,10.12h-6.13v13.02h-2.98v-32.77Zm9.28,17.22c6.09,0,7.94-2.69,7.94-7.65,0-5.21-2.6-6.97-8.44-6.97h-5.8v14.62h6.3Z"></path><path class="cls-16" d="m406.14,892.69c0-3.95,2.23-6.09,7.86-6.09h6.34v-1.72c0-2.98-1.26-5.42-5.46-5.42-3.95,0-5.33,1.51-5.33,4.12v.88h-2.98v-.84c0-5,4.2-6.68,8.32-6.68,5.8,0,8.4,2.86,8.4,8.44v13.11h-2.06l-.55-2.98h-.08c-1.26,1.89-3.7,3.53-7.35,3.53-4.92,0-7.1-2.31-7.1-6.34Zm14.2-1.85v-1.76h-7.01c-2.65,0-4.03.92-4.03,3.61,0,2.35,1.26,3.86,4.5,3.86,4.16,0,6.55-2.14,6.55-5.71Z"></path><path class="cls-16" d="m430.63,865.73h2.94v32.77h-2.94v-32.77Z"></path><path class="cls-16" d="m471.62,884.88v13.61h-2.94v-13.27c0-4.33-2.14-5.71-4.75-5.71-3.82,0-6.17,2.69-6.17,5.63v13.36h-2.94v-13.27c0-4.33-1.85-5.71-4.83-5.71-3.61,0-6.13,2.69-6.13,5.63v13.36h-2.94v-21h2.6l.29,3.49c1.01-2.02,3.07-4.03,6.93-4.03,2.94,0,5.38,1.39,6.43,4.28,1.22-2.39,3.57-4.28,7.14-4.28,4.29,0,7.31,2.52,7.31,7.94Z"></path><path class="cls-16" d="m496.23,889h-15.96c.17,4.79,2.48,7.48,6.93,7.48,3.82,0,5.67-1.43,5.97-4.83h2.98c-.29,4.24-3.28,7.39-9.03,7.39-7.06,0-9.83-4.66-9.83-10.88s3.23-11.22,10-11.22,8.95,3.99,8.95,10.21v1.85Zm-3.11-2.98c0-4.45-1.72-6.55-5.92-6.55s-6.55,2.65-6.89,6.97h12.81v-.42Z"></path><path class="cls-16" d="m502.11,877.49h2.6l.29,3.91c1.01-2.14,3.07-4.45,6.76-4.45,1.26,0,2.18.21,3.02.55v3.15c-1.13-.5-2.1-.76-3.4-.76-3.74,0-6.34,2.81-6.34,5.75v12.85h-2.94v-21Z"></path><path class="cls-16" d="m527.18,892.06v-1.18h2.94v1.13c0,2.86,2.14,4.5,5.96,4.5s5.8-1.01,5.8-3.78c0-2.06-1.01-2.81-3.86-3.32l-4.62-.84c-3.02-.55-5.54-2.02-5.54-5.5,0-3.15,2.35-6.13,8.4-6.13s8.4,3.02,8.4,7.23v.88h-2.98v-.76c0-3.44-2.14-4.91-5.42-4.91-3.95,0-5.33,1.34-5.33,3.36s1.01,2.86,3.91,3.4l4.03.76c4.12.76,6.09,1.93,6.09,5.59,0,4.58-4.12,6.55-8.78,6.55-7.31,0-8.99-3.28-8.99-6.97Z"></path><path class="cls-16" d="m561.79,895.8v2.6c-.76.21-2.14.59-4.03.59-3.82,0-6.34-1.6-6.34-6.89v-12.18h-4.16v-2.44h4.16v-6.05l2.94-1.43v7.48h5.92v2.44h-5.92v11.8c0,2.81.76,4.58,3.4,4.58,1.6,0,3.23-.29,4.03-.5Z"></path><path class="cls-16" d="m566.83,877.49l6.89,17.98h.08l7.14-17.98h3.07v.04l-8.86,20.84-3.11,8.53h-2.98v-.04l3.19-8.36-8.78-20.96v-.04h3.36Z"></path><path class="cls-16" d="m588.21,865.73h2.94v32.77h-2.94v-32.77Z"></path><path class="cls-16" d="m615.77,889h-15.96c.17,4.79,2.48,7.48,6.93,7.48,3.82,0,5.67-1.43,5.97-4.83h2.98c-.29,4.24-3.28,7.39-9.03,7.39-7.06,0-9.83-4.66-9.83-10.88s3.23-11.22,10-11.22,8.95,3.99,8.95,10.21v1.85Zm-3.11-2.98c0-4.45-1.72-6.55-5.92-6.55s-6.55,2.65-6.89,6.97h12.81v-.42Z"></path><path class="cls-16" d="m632.98,876.19h-3.36v-5.08c0-3.95.88-5.29,3.4-5.97l.67,1.85c-1.76.67-2.06,1.09-2.06,3.78v.34h1.34v5.08Zm5.92,0h-3.36v-5.08c0-3.95.88-5.29,3.4-5.97l.67,1.85c-1.76.67-2.06,1.09-2.06,3.78v.34h1.34v5.08Z"></path><path class="cls-16" d="m644.03,882.28c0-11.85,6.51-17.1,14.49-17.1,7.56,0,12.64,3.78,12.64,11.47v.5h-2.86v-.63c0-5.33-3.49-8.7-9.7-8.7-6.72,0-11.47,4.58-11.47,14.28s4.75,14.28,11.76,14.28c5.63,0,9.45-2.52,9.45-8.78v-2.73h-9.83v-2.6h12.64v16.21h-2.1l-.67-3.74c-1.6,2.48-5.17,4.28-9.75,4.28-8.32,0-14.62-4.87-14.62-16.76Z"></path><path class="cls-16" d="m675.99,874.92c1.76-.67,2.06-1.09,2.06-3.78v-.34h-1.34v-5.08h3.36v5.08c0,3.95-.88,5.29-3.4,5.97l-.67-1.85Zm5.92,0c1.76-.67,2.06-1.09,2.06-3.78v-.34h-1.34v-5.08h3.36v5.08c0,3.95-.88,5.29-3.4,5.97l-.67-1.85Z"></path><path class="cls-16" d="m141.55,1855.72c0-11.72,6.76-16.93,15.46-16.93,7.94,0,14.7,5.21,14.7,16.59,0,12.48-6.76,17.26-15.08,17.26s-15.08-4.79-15.08-16.93Zm27.05,0c0-10.12-5.33-14.24-12.01-14.24s-11.93,4.12-11.93,14.24,5.33,14.2,12.01,14.2,11.93-3.74,11.93-14.2Z"></path><path class="cls-16" d="m178.01,1851.1h2.6l.29,3.91c1.01-2.14,3.07-4.45,6.76-4.45,1.26,0,2.18.21,3.02.55v3.15c-1.13-.5-2.1-.76-3.4-.76-3.74,0-6.34,2.81-6.34,5.75v12.85h-2.94v-21Z"></path><path class="cls-16" d="m195.31,1851.1h2.6l.29,3.49c1.01-2.14,3.28-4.03,7.35-4.03,4.75,0,7.77,2.52,7.77,7.94v13.61h-2.94v-13.27c0-4.33-2.14-5.71-5.5-5.71-3.82,0-6.64,2.69-6.64,5.63v13.36h-2.94v-21Z"></path><path class="cls-16" d="m219.42,1866.31c0-3.95,2.23-6.09,7.86-6.09h6.34v-1.72c0-2.98-1.26-5.42-5.46-5.42-3.95,0-5.33,1.51-5.33,4.12v.88h-2.98v-.84c0-5,4.2-6.68,8.32-6.68,5.8,0,8.4,2.86,8.4,8.44v13.11h-2.06l-.54-2.98h-.08c-1.26,1.89-3.7,3.53-7.35,3.53-4.92,0-7.1-2.31-7.1-6.34Zm14.2-1.85v-1.76h-7.02c-2.65,0-4.03.92-4.03,3.61,0,2.35,1.26,3.86,4.5,3.86,4.16,0,6.55-2.14,6.55-5.71Z"></path><path class="cls-16" d="m254.66,1869.42v2.6c-.76.21-2.14.59-4.03.59-3.82,0-6.34-1.6-6.34-6.89v-12.18h-4.16v-2.44h4.16v-6.05l2.94-1.43v7.48h5.92v2.44h-5.92v11.8c0,2.81.76,4.58,3.4,4.58,1.6,0,3.23-.29,4.03-.5Z"></path><path class="cls-16" d="m276.12,1862.61h-15.96c.17,4.79,2.48,7.48,6.93,7.48,3.82,0,5.67-1.43,5.96-4.83h2.98c-.29,4.24-3.28,7.39-9.03,7.39-7.06,0-9.83-4.66-9.83-10.88s3.23-11.22,10-11.22,8.95,3.99,8.95,10.21v1.85Zm-3.11-2.98c0-4.45-1.72-6.55-5.92-6.55s-6.55,2.65-6.89,6.97h12.81v-.42Z"></path><path class="cls-16" d="m280.32,1861.65c0-7.1,4.28-11.09,10.04-11.09,3.7,0,6.22,1.6,7.31,3.74h.04v-14.95h2.94v32.77h-1.97l-.67-3.61h-.08c-1.18,2.31-3.95,4.16-7.77,4.16-6.3,0-9.83-3.99-9.83-11.01Zm17.64-.5c0-5.5-3.36-8.07-7.35-8.07-3.11,0-7.14,1.47-7.14,8.4s3.61,8.61,7.14,8.61c4.24,0,7.35-2.73,7.35-8.95Z"></path><path class="cls-16" d="m317.24,1864.71v-13.61h2.94v13.27c0,4.33,2.14,5.71,5.42,5.71,3.74,0,6.55-2.69,6.55-5.63v-13.36h2.94v21h-2.61l-.25-3.36h-.08c-.97,2.02-3.23,3.91-7.22,3.91-4.66,0-7.69-2.52-7.69-7.94Z"></path><path class="cls-16" d="m342.44,1851.1h2.39l.34,3.86h.08c1.13-2.48,4.03-4.41,7.86-4.41,6.3,0,9.66,3.99,9.66,11.01s-4.29,11.09-9.87,11.09c-3.78,0-6.38-1.6-7.44-3.7h-.08v11.55h-2.94v-29.41Zm17.18,10.63c0-7.18-3.4-8.61-6.93-8.61-4.24,0-7.56,2.73-7.56,8.44,0,6.01,3.45,8.57,7.44,8.57,3.02,0,7.06-1.47,7.06-8.4Z"></path><path class="cls-16" d="m368.65,1851.1h2.39l.34,3.86h.08c1.13-2.48,4.03-4.41,7.86-4.41,6.3,0,9.66,3.99,9.66,11.01s-4.29,11.09-9.87,11.09c-3.78,0-6.38-1.6-7.43-3.7h-.09v11.55h-2.94v-29.41Zm17.18,10.63c0-7.18-3.4-8.61-6.93-8.61-4.24,0-7.56,2.73-7.56,8.44,0,6.01,3.45,8.57,7.44,8.57,3.03,0,7.06-1.47,7.06-8.4Z"></path><path class="cls-16" d="m412.12,1862.61h-15.96c.17,4.79,2.48,7.48,6.93,7.48,3.82,0,5.67-1.43,5.97-4.83h2.98c-.29,4.24-3.28,7.39-9.03,7.39-7.06,0-9.83-4.66-9.83-10.88s3.23-11.22,10-11.22,8.95,3.99,8.95,10.21v1.85Zm-3.11-2.98c0-4.45-1.72-6.55-5.92-6.55s-6.55,2.65-6.89,6.97h12.81v-.42Z"></path><path class="cls-16" d="m418,1851.1h2.6l.29,3.91c1.01-2.14,3.07-4.45,6.76-4.45,1.26,0,2.18.21,3.02.55v3.15c-1.13-.5-2.1-.76-3.4-.76-3.74,0-6.34,2.81-6.34,5.75v12.85h-2.94v-21Z"></path><path class="cls-16" d="m432.99,1861.77c0-6.38,3.23-11.22,10-11.22s8.95,3.91,8.95,8.95v.42h-3.11v-.63c0-3.82-1.64-6.09-5.84-6.09-4.75,0-7.01,3.11-7.01,8.4,0,5.63,2.39,8.49,6.93,8.49,3.82,0,5.84-1.85,5.92-5.67h3.03c-.08,4.66-3.15,8.23-9.03,8.23-7.22,0-9.83-4.75-9.83-10.88Z"></path><path class="cls-16" d="m456.34,1866.31c0-3.95,2.23-6.09,7.86-6.09h6.34v-1.72c0-2.98-1.26-5.42-5.46-5.42-3.95,0-5.33,1.51-5.33,4.12v.88h-2.98v-.84c0-5,4.2-6.68,8.32-6.68,5.8,0,8.4,2.86,8.4,8.44v13.11h-2.06l-.55-2.98h-.08c-1.26,1.89-3.7,3.53-7.35,3.53-4.92,0-7.1-2.31-7.1-6.34Zm14.2-1.85v-1.76h-7.01c-2.65,0-4.03.92-4.03,3.61,0,2.35,1.26,3.86,4.49,3.86,4.16,0,6.55-2.14,6.55-5.71Z"></path><path class="cls-16" d="m478.94,1865.68v-1.18h2.94v1.13c0,2.86,2.14,4.5,5.96,4.5s5.8-1.01,5.8-3.78c0-2.06-1.01-2.81-3.87-3.32l-4.62-.84c-3.02-.55-5.54-2.02-5.54-5.5,0-3.15,2.35-6.13,8.4-6.13s8.4,3.02,8.4,7.23v.88h-2.98v-.76c0-3.44-2.14-4.91-5.42-4.91-3.95,0-5.34,1.34-5.34,3.36s1.01,2.86,3.91,3.4l4.03.76c4.12.76,6.09,1.93,6.09,5.59,0,4.58-4.12,6.55-8.78,6.55-7.31,0-8.99-3.28-8.99-6.97Z"></path><path class="cls-16" d="m519.85,1862.61h-15.96c.17,4.79,2.48,7.48,6.93,7.48,3.82,0,5.67-1.43,5.97-4.83h2.98c-.29,4.24-3.28,7.39-9.03,7.39-7.06,0-9.83-4.66-9.83-10.88s3.23-11.22,10-11.22,8.95,3.99,8.95,10.21v1.85Zm-3.11-2.98c0-4.45-1.72-6.55-5.92-6.55s-6.55,2.65-6.89,6.97h12.81v-.42Z"></path><path class="cls-16" d="m535.38,1839.34h2.94v32.77h-2.94v-32.77Z"></path><path class="cls-16" d="m562.94,1862.61h-15.96c.17,4.79,2.48,7.48,6.93,7.48,3.82,0,5.67-1.43,5.97-4.83h2.98c-.29,4.24-3.28,7.39-9.03,7.39-7.06,0-9.83-4.66-9.83-10.88s3.23-11.22,10-11.22,8.95,3.99,8.95,10.21v1.85Zm-3.11-2.98c0-4.45-1.72-6.55-5.92-6.55s-6.55,2.65-6.89,6.97h12.81v-.42Z"></path><path class="cls-16" d="m569.41,1865.72v-12.18h-4.16v-2.44h4.16v-6.05l2.94-1.43v7.48h11.85v-6.05l2.94-1.43v7.48h5.92v2.44h-5.92v11.8c0,2.81.76,4.58,3.4,4.58,1.6,0,3.24-.29,4.03-.5v2.6c-.76.21-2.14.59-4.03.59-3.82,0-6.34-1.6-6.34-6.89v-12.18h-11.85v11.8c0,2.81.76,4.58,3.4,4.58,1.6,0,3.23-.29,4.03-.5v2.6c-.76.21-2.14.59-4.03.59-3.82,0-6.34-1.6-6.34-6.89Z"></path><path class="cls-16" d="m616.03,1862.61h-15.96c.17,4.79,2.48,7.48,6.93,7.48,3.82,0,5.67-1.43,5.97-4.83h2.98c-.29,4.24-3.28,7.39-9.03,7.39-7.06,0-9.83-4.66-9.83-10.88s3.23-11.22,10-11.22,8.95,3.99,8.95,10.21v1.85Zm-3.11-2.98c0-4.45-1.72-6.55-5.92-6.55s-6.55,2.65-6.89,6.97h12.81v-.42Z"></path><path class="cls-16" d="m621.91,1851.1h2.6l.29,3.91c1.01-2.14,3.07-4.45,6.76-4.45,1.26,0,2.18.21,3.02.55v3.15c-1.13-.5-2.1-.76-3.4-.76-3.74,0-6.34,2.81-6.34,5.75v12.85h-2.94v-21Z"></path><path class="cls-16" d="m637.11,1865.68v-1.18h2.94v1.13c0,2.86,2.14,4.5,5.96,4.5s5.8-1.01,5.8-3.78c0-2.06-1.01-2.81-3.87-3.32l-4.62-.84c-3.02-.55-5.54-2.02-5.54-5.5,0-3.15,2.35-6.13,8.4-6.13s8.4,3.02,8.4,7.23v.88h-2.98v-.76c0-3.44-2.14-4.91-5.42-4.91-3.95,0-5.34,1.34-5.34,3.36s1.01,2.86,3.91,3.4l4.03.76c4.12.76,6.09,1.93,6.09,5.59,0,4.58-4.12,6.55-8.78,6.55-7.31,0-8.99-3.28-8.99-6.97Z"></path><path class="cls-16" d="m743.82,3612.58h18.86v2.6h-15.92v12.94h12.31v2.61h-12.31v14.62h-2.94v-32.77Z"></path><path class="cls-16" d="m764.35,3637.96v-13.61h2.94v13.27c0,4.33,2.14,5.71,5.42,5.71,3.74,0,6.55-2.69,6.55-5.63v-13.36h2.94v21h-2.6l-.25-3.36h-.08c-.97,2.02-3.23,3.91-7.23,3.91-4.66,0-7.69-2.52-7.69-7.94Z"></path><path class="cls-16" d="m789.55,3612.58h2.94v32.77h-2.94v-32.77Z"></path><path class="cls-16" d="m799.84,3612.58h2.94v32.77h-2.94v-32.77Z"></path><path class="cls-16" d="m810.13,3624.35l6.89,17.98h.08l7.14-17.98h3.07v.04l-8.86,20.84-3.11,8.53h-2.98v-.04l3.19-8.36-8.78-20.96v-.04h3.36Z"></path><path class="cls-16" d="m844.11,3648.38c0,3.53-1.68,5.84-5.04,5.84-1.18,0-2.02-.13-2.94-.38v-2.6c.8.17,1.47.29,2.27.29,1.93,0,2.77-1.26,2.77-3.65v-23.52h2.94v24.03Zm-2.94-35.79h2.98v6.51h-2.98v-6.51Z"></path><path class="cls-16" d="m849.82,3634.85c0-6.22,3.32-11.05,10.38-11.05,6.6,0,10.25,4.83,10.25,11.05s-3.7,11.05-10.29,11.05c-7.27,0-10.33-4.83-10.33-11.05Zm17.56,0c0-5.33-2.9-8.49-7.23-8.49-4.75,0-7.27,3.15-7.27,8.49s2.56,8.49,7.27,8.49c4.33,0,7.23-3.15,7.23-8.49Z"></path><path class="cls-16" d="m876.32,3612.58h2.98v6.51h-2.98v-6.51Zm0,11.76h2.94v21h-2.94v-21Z"></path><path class="cls-16" d="m886.66,3624.35h2.6l.29,3.49c1.01-2.14,3.28-4.03,7.35-4.03,4.75,0,7.77,2.52,7.77,7.94v13.61h-2.94v-13.27c0-4.33-2.14-5.71-5.5-5.71-3.82,0-6.64,2.69-6.64,5.63v13.36h-2.94v-21Z"></path><path class="cls-16" d="m929.29,3635.86h-15.96c.17,4.79,2.48,7.48,6.93,7.48,3.82,0,5.67-1.43,5.97-4.83h2.98c-.29,4.24-3.28,7.39-9.03,7.39-7.06,0-9.83-4.66-9.83-10.88s3.23-11.22,10-11.22,8.95,3.99,8.95,10.21v1.85Zm-3.11-2.98c0-4.45-1.72-6.55-5.92-6.55s-6.55,2.65-6.89,6.97h12.81v-.42Z"></path><path class="cls-16" d="m933.49,3634.89c0-7.1,4.28-11.09,10.04-11.09,3.7,0,6.22,1.6,7.31,3.74h.04v-14.95h2.94v32.77h-1.97l-.67-3.61h-.08c-1.18,2.31-3.95,4.16-7.77,4.16-6.3,0-9.83-3.99-9.83-11.01Zm17.64-.5c0-5.5-3.36-8.07-7.35-8.07-3.11,0-7.14,1.47-7.14,8.4s3.61,8.61,7.14,8.61c4.24,0,7.35-2.73,7.35-8.95Z"></path><path class="cls-16" d="m970.82,3612.58h2.94v32.77h-2.94v-32.77Z"></path><path class="cls-16" d="m979.43,3634.85c0-6.22,3.32-11.05,10.38-11.05,6.59,0,10.25,4.83,10.25,11.05s-3.7,11.05-10.29,11.05c-7.27,0-10.33-4.83-10.33-11.05Zm17.56,0c0-5.33-2.9-8.49-7.22-8.49-4.75,0-7.27,3.15-7.27,8.49s2.56,8.49,7.27,8.49c4.33,0,7.22-3.15,7.22-8.49Z"></path><path class="cls-16" d="m1002.37,3624.39v-.04h2.98l5.75,17.48h.08l6.3-17.48h2.69l6.17,17.48h.08l5.75-17.48h2.86v.04l-7.18,20.96h-3.02l-5.96-17.06h-.08l-6.22,17.06h-3.02l-7.18-20.96Z"></path><path class="cls-16" d="m1056.3,3635.86h-15.96c.17,4.79,2.48,7.48,6.93,7.48,3.82,0,5.67-1.43,5.97-4.83h2.98c-.29,4.24-3.28,7.39-9.03,7.39-7.06,0-9.83-4.66-9.83-10.88s3.23-11.22,10-11.22,8.95,3.99,8.95,10.21v1.85Zm-3.11-2.98c0-4.45-1.72-6.55-5.92-6.55s-6.55,2.65-6.89,6.97h12.81v-.42Z"></path><path class="cls-16" d="m1062.17,3624.35h2.6l.29,3.91c1.01-2.14,3.07-4.45,6.76-4.45,1.26,0,2.18.21,3.02.55v3.15c-1.13-.5-2.1-.76-3.4-.76-3.74,0-6.34,2.81-6.34,5.75v12.85h-2.94v-21Z"></path><path class="cls-16" d="m1077.17,3635.02c0-6.38,3.23-11.22,10-11.22s8.95,3.91,8.95,8.95v.42h-3.11v-.63c0-3.82-1.64-6.09-5.84-6.09-4.75,0-7.01,3.11-7.01,8.4,0,5.63,2.39,8.49,6.93,8.49,3.82,0,5.84-1.85,5.92-5.67h3.02c-.08,4.66-3.15,8.23-9.03,8.23-7.22,0-9.83-4.75-9.83-10.88Z"></path><path class="cls-16" d="m1100.52,3639.55c0-3.95,2.23-6.09,7.86-6.09h6.34v-1.72c0-2.98-1.26-5.42-5.46-5.42-3.95,0-5.33,1.51-5.33,4.12v.88h-2.98v-.84c0-5,4.2-6.68,8.32-6.68,5.8,0,8.4,2.86,8.4,8.44v13.11h-2.06l-.55-2.98h-.08c-1.26,1.89-3.7,3.53-7.35,3.53-4.92,0-7.1-2.31-7.1-6.34Zm14.2-1.85v-1.76h-7.01c-2.65,0-4.03.92-4.03,3.61,0,2.35,1.26,3.86,4.5,3.86,4.16,0,6.55-2.14,6.55-5.71Z"></path><path class="cls-16" d="m1123.12,3638.92v-1.18h2.94v1.13c0,2.86,2.14,4.5,5.96,4.5s5.8-1.01,5.8-3.78c0-2.06-1.01-2.81-3.86-3.32l-4.62-.84c-3.02-.55-5.54-2.02-5.54-5.5,0-3.15,2.35-6.13,8.4-6.13s8.4,3.02,8.4,7.22v.88h-2.98v-.76c0-3.45-2.14-4.92-5.42-4.92-3.95,0-5.33,1.34-5.33,3.36s1.01,2.86,3.91,3.4l4.03.76c4.12.76,6.09,1.93,6.09,5.59,0,4.58-4.12,6.55-8.78,6.55-7.31,0-8.99-3.28-8.99-6.97Z"></path><path class="cls-16" d="m1164.03,3635.86h-15.96c.17,4.79,2.48,7.48,6.93,7.48,3.82,0,5.67-1.43,5.97-4.83h2.98c-.29,4.24-3.28,7.39-9.03,7.39-7.06,0-9.83-4.66-9.83-10.88s3.23-11.22,10-11.22,8.95,3.99,8.95,10.21v1.85Zm-3.11-2.98c0-4.45-1.72-6.55-5.92-6.55s-6.55,2.65-6.89,6.97h12.81v-.42Z"></path><path class="cls-16" d="m1179.56,3612.58h2.94v32.77h-2.94v-32.77Z"></path><path class="cls-16" d="m1207.12,3635.86h-15.96c.17,4.79,2.48,7.48,6.93,7.48,3.82,0,5.67-1.43,5.97-4.83h2.98c-.29,4.24-3.28,7.39-9.03,7.39-7.06,0-9.83-4.66-9.83-10.88s3.23-11.22,10-11.22,8.95,3.99,8.95,10.21v1.85Zm-3.11-2.98c0-4.45-1.72-6.55-5.92-6.55s-6.55,2.65-6.89,6.97h12.81v-.42Z"></path><path class="cls-16" d="m1213.59,3638.96v-12.18h-4.16v-2.44h4.16v-6.05l2.94-1.43v7.48h11.85v-6.05l2.94-1.43v7.48h5.92v2.44h-5.92v11.8c0,2.81.76,4.58,3.4,4.58,1.6,0,3.24-.29,4.03-.5v2.6c-.76.21-2.14.59-4.03.59-3.82,0-6.34-1.6-6.34-6.89v-12.18h-11.85v11.8c0,2.81.76,4.58,3.4,4.58,1.6,0,3.23-.29,4.03-.5v2.6c-.76.21-2.14.59-4.03.59-3.82,0-6.34-1.6-6.34-6.89Z"></path><path class="cls-16" d="m1260.21,3635.86h-15.96c.17,4.79,2.48,7.48,6.93,7.48,3.82,0,5.67-1.43,5.97-4.83h2.98c-.29,4.24-3.28,7.39-9.03,7.39-7.06,0-9.83-4.66-9.83-10.88s3.23-11.22,10-11.22,8.95,3.99,8.95,10.21v1.85Zm-3.11-2.98c0-4.45-1.72-6.55-5.92-6.55s-6.55,2.65-6.89,6.97h12.81v-.42Z"></path><path class="cls-16" d="m1266.08,3624.35h2.6l.29,3.91c1.01-2.14,3.07-4.45,6.76-4.45,1.26,0,2.18.21,3.02.55v3.15c-1.13-.5-2.1-.76-3.4-.76-3.74,0-6.34,2.81-6.34,5.75v12.85h-2.94v-21Z"></path><path class="cls-16" d="m1281.29,3638.92v-1.18h2.94v1.13c0,2.86,2.14,4.5,5.96,4.5s5.8-1.01,5.8-3.78c0-2.06-1.01-2.81-3.86-3.32l-4.62-.84c-3.02-.55-5.54-2.02-5.54-5.5,0-3.15,2.35-6.13,8.4-6.13s8.4,3.02,8.4,7.22v.88h-2.98v-.76c0-3.45-2.14-4.92-5.42-4.92-3.95,0-5.33,1.34-5.33,3.36s1.01,2.86,3.91,3.4l4.03.76c4.12.76,6.09,1.93,6.09,5.59,0,4.58-4.12,6.55-8.78,6.55-7.31,0-8.99-3.28-8.99-6.97Z"></path><path class="cls-16" d="m1347.25,867.33h-11.51v-2.6h25.96v2.6h-11.51v30.16h-2.94v-30.16Z"></path><path class="cls-16" d="m1360.44,891.69c0-3.95,2.23-6.09,7.86-6.09h6.34v-1.72c0-2.98-1.26-5.42-5.46-5.42-3.95,0-5.33,1.51-5.33,4.12v.88h-2.98v-.84c0-5,4.2-6.68,8.32-6.68,5.8,0,8.4,2.86,8.4,8.44v13.11h-2.06l-.55-2.98h-.08c-1.26,1.89-3.7,3.53-7.35,3.53-4.92,0-7.1-2.31-7.1-6.34Zm14.2-1.85v-1.76h-7.01c-2.65,0-4.03.92-4.03,3.61,0,2.35,1.26,3.86,4.5,3.86,4.16,0,6.55-2.14,6.55-5.71Z"></path><path class="cls-16" d="m1384.93,864.73h2.94v32.77h-2.94v-32.77Z"></path><path class="cls-16" d="m1395.22,864.73h2.94v32.77h-2.94v-32.77Z"></path><path class="cls-16" d="m1416.85,875.19h-3.36v-5.08c0-3.95.88-5.29,3.4-5.97l.67,1.85c-1.76.67-2.06,1.09-2.06,3.78v.34h1.34v5.08Zm5.92,0h-3.36v-5.08c0-3.95.88-5.29,3.4-5.97l.67,1.85c-1.76.67-2.06,1.09-2.06,3.78v.34h1.34v5.08Z"></path><path class="cls-16" d="m1440.12,894.8v2.6c-.76.21-2.14.59-4.03.59-3.82,0-6.34-1.6-6.34-6.89v-12.18h-4.16v-2.44h4.16v-6.05l2.94-1.43v7.48h5.92v2.44h-5.92v11.8c0,2.81.76,4.58,3.4,4.58,1.6,0,3.23-.29,4.03-.5Z"></path><path class="cls-16" d="m1442,873.92c1.76-.67,2.06-1.09,2.06-3.78v-.34h-1.34v-5.08h3.36v5.08c0,3.95-.88,5.29-3.4,5.97l-.67-1.85Zm5.92,0c1.76-.67,2.06-1.09,2.06-3.78v-.34h-1.34v-5.08h3.36v5.08c0,3.95-.88,5.29-3.4,5.97l-.67-1.85Z"></path><path class="cls-16" d="m1250.39,2789.71h2.94v30.12h15.71v2.65h-18.65v-32.77Z"></path><path class="cls-16" d="m1272.19,2811.98c0-6.22,3.32-11.05,10.38-11.05,6.59,0,10.25,4.83,10.25,11.05s-3.7,11.05-10.29,11.05c-7.27,0-10.33-4.83-10.33-11.05Zm17.56,0c0-5.33-2.9-8.49-7.22-8.49-4.75,0-7.27,3.15-7.27,8.49s2.56,8.49,7.27,8.49c4.33,0,7.22-3.15,7.22-8.49Z"></path><path class="cls-16" d="m1297.01,2811.98c0-6.22,3.32-11.05,10.38-11.05,6.59,0,10.25,4.83,10.25,11.05s-3.7,11.05-10.29,11.05c-7.27,0-10.33-4.83-10.33-11.05Zm17.56,0c0-5.33-2.9-8.49-7.22-8.49-4.75,0-7.27,3.15-7.27,8.49s2.56,8.49,7.27,8.49c4.33,0,7.22-3.15,7.22-8.49Z"></path><path class="cls-16" d="m1323.51,2801.48h2.39l.34,3.87h.08c1.13-2.48,4.03-4.41,7.86-4.41,6.3,0,9.66,3.99,9.66,11.01s-4.29,11.09-9.87,11.09c-3.78,0-6.38-1.6-7.43-3.7h-.08v11.55h-2.94v-29.41Zm17.18,10.63c0-7.18-3.4-8.61-6.93-8.61-4.24,0-7.56,2.73-7.56,8.44,0,6.01,3.45,8.57,7.44,8.57,3.02,0,7.06-1.47,7.06-8.4Z"></path><path class="cls-16" d="m1366.98,2812.99h-15.96c.17,4.79,2.48,7.48,6.93,7.48,3.82,0,5.67-1.43,5.97-4.83h2.98c-.29,4.24-3.28,7.39-9.03,7.39-7.06,0-9.83-4.66-9.83-10.88s3.23-11.22,10-11.22,8.95,3.99,8.95,10.21v1.85Zm-3.11-2.98c0-4.45-1.72-6.55-5.92-6.55s-6.55,2.65-6.89,6.97h12.81v-.42Z"></path><path class="cls-16" d="m1371.18,2812.02c0-7.1,4.28-11.09,10.04-11.09,3.7,0,6.22,1.6,7.31,3.74h.04v-14.96h2.94v32.77h-1.97l-.67-3.61h-.08c-1.18,2.31-3.95,4.16-7.77,4.16-6.3,0-9.83-3.99-9.83-11.01Zm17.64-.5c0-5.5-3.36-8.07-7.35-8.07-3.11,0-7.14,1.47-7.14,8.4s3.61,8.61,7.14,8.61c4.24,0,7.35-2.73,7.35-8.95Z"></path><path class="cls-16" d="m1425.95,2812.15h-13.99l-3.74,10.33h-3.07l12.18-32.77h3.32l12.1,32.77h-3.07l-3.74-10.33Zm-.92-2.6l-6.05-16.8h-.04l-6.05,16.8h12.14Z"></path><path class="cls-16" d="m1435.06,2816.05v-1.18h2.94v1.13c0,2.86,2.14,4.5,5.96,4.5s5.8-1.01,5.8-3.78c0-2.06-1.01-2.81-3.86-3.32l-4.62-.84c-3.02-.55-5.54-2.02-5.54-5.5,0-3.15,2.35-6.13,8.4-6.13s8.4,3.02,8.4,7.23v.88h-2.98v-.76c0-3.44-2.14-4.92-5.42-4.92-3.95,0-5.33,1.34-5.33,3.36s1.01,2.86,3.91,3.4l4.03.76c4.12.76,6.09,1.93,6.09,5.59,0,4.58-4.12,6.55-8.78,6.55-7.31,0-8.99-3.28-8.99-6.97Z"></path><path class="cls-16" d="m1457.03,2812.15c0-6.38,3.23-11.22,10-11.22s8.95,3.91,8.95,8.95v.42h-3.11v-.63c0-3.82-1.64-6.09-5.84-6.09-4.75,0-7.01,3.11-7.01,8.4,0,5.63,2.39,8.49,6.93,8.49,3.82,0,5.84-1.85,5.92-5.67h3.02c-.08,4.66-3.15,8.23-9.03,8.23-7.22,0-9.83-4.75-9.83-10.88Z"></path><path class="cls-16" d="m1499.12,2812.99h-15.96c.17,4.79,2.48,7.48,6.93,7.48,3.82,0,5.67-1.43,5.97-4.83h2.98c-.29,4.24-3.28,7.39-9.03,7.39-7.06,0-9.83-4.66-9.83-10.88s3.23-11.22,10-11.22,8.95,3.99,8.95,10.21v1.85Zm-3.11-2.98c0-4.45-1.72-6.55-5.92-6.55s-6.55,2.65-6.89,6.97h12.81v-.42Z"></path><path class="cls-16" d="m1504.99,2801.48h2.6l.29,3.49c1.01-2.14,3.28-4.03,7.35-4.03,4.75,0,7.77,2.52,7.77,7.94v13.61h-2.94v-13.27c0-4.33-2.14-5.71-5.5-5.71-3.82,0-6.64,2.69-6.64,5.63v13.36h-2.94v-21Z"></path><path class="cls-16" d="m1528.68,2812.02c0-7.1,4.28-11.09,10.04-11.09,3.7,0,6.22,1.6,7.31,3.74h.04v-14.96h2.94v32.77h-1.97l-.67-3.61h-.08c-1.18,2.31-3.95,4.16-7.77,4.16-6.3,0-9.83-3.99-9.83-11.01Zm17.64-.5c0-5.5-3.36-8.07-7.35-8.07-3.11,0-7.14,1.47-7.14,8.4s3.61,8.61,7.14,8.61c4.24,0,7.35-2.73,7.35-8.95Z"></path><path class="cls-16" d="m1573.62,2812.99h-15.96c.17,4.79,2.48,7.48,6.93,7.48,3.82,0,5.67-1.43,5.97-4.83h2.98c-.29,4.24-3.28,7.39-9.03,7.39-7.06,0-9.83-4.66-9.83-10.88s3.23-11.22,10-11.22,8.95,3.99,8.95,10.21v1.85Zm-3.11-2.98c0-4.45-1.72-6.55-5.92-6.55s-6.55,2.65-6.89,6.97h12.81v-.42Z"></path><path class="cls-16" d="m1579.5,2801.48h2.6l.29,3.91c1.01-2.14,3.07-4.45,6.76-4.45,1.26,0,2.18.21,3.02.55v3.15c-1.13-.5-2.1-.76-3.4-.76-3.74,0-6.34,2.81-6.34,5.75v12.85h-2.94v-21Z"></path><path class="cls-16" d="m1594.71,2816.05v-1.18h2.94v1.13c0,2.86,2.14,4.5,5.96,4.5s5.8-1.01,5.8-3.78c0-2.06-1.01-2.81-3.86-3.32l-4.62-.84c-3.02-.55-5.54-2.02-5.54-5.5,0-3.15,2.35-6.13,8.4-6.13s8.4,3.02,8.4,7.23v.88h-2.98v-.76c0-3.44-2.14-4.92-5.42-4.92-3.95,0-5.33,1.34-5.33,3.36s1.01,2.86,3.91,3.4l4.03.76c4.12.76,6.09,1.93,6.09,5.59,0,4.58-4.12,6.55-8.78,6.55-7.31,0-8.99-3.28-8.99-6.97Z"></path><path class="cls-16" d="m668.26,2734.28h2.94v30.12h15.71v2.65h-18.65v-32.77Z"></path><path class="cls-16" d="m690.05,2756.54c0-6.22,3.32-11.05,10.38-11.05,6.6,0,10.25,4.83,10.25,11.05s-3.7,11.05-10.29,11.05c-7.27,0-10.33-4.83-10.33-11.05Zm17.56,0c0-5.33-2.9-8.48-7.23-8.48-4.75,0-7.27,3.15-7.27,8.48s2.56,8.49,7.27,8.49c4.33,0,7.23-3.15,7.23-8.49Z"></path><path class="cls-16" d="m714.88,2756.54c0-6.22,3.32-11.05,10.38-11.05,6.59,0,10.25,4.83,10.25,11.05s-3.7,11.05-10.29,11.05c-7.27,0-10.33-4.83-10.33-11.05Zm17.56,0c0-5.33-2.9-8.48-7.22-8.48-4.75,0-7.27,3.15-7.27,8.48s2.56,8.49,7.27,8.49c4.33,0,7.22-3.15,7.22-8.49Z"></path><path class="cls-16" d="m741.38,2746.04h2.39l.34,3.87h.08c1.13-2.48,4.03-4.41,7.86-4.41,6.3,0,9.66,3.99,9.66,11.01s-4.29,11.09-9.87,11.09c-3.78,0-6.38-1.6-7.43-3.7h-.08v11.55h-2.94v-29.41Zm17.18,10.63c0-7.18-3.4-8.61-6.93-8.61-4.24,0-7.56,2.73-7.56,8.44,0,6.01,3.45,8.57,7.44,8.57,3.02,0,7.06-1.47,7.06-8.4Z"></path><path class="cls-16" d="m784.85,2757.55h-15.96c.17,4.79,2.48,7.48,6.93,7.48,3.82,0,5.67-1.43,5.97-4.83h2.98c-.29,4.24-3.28,7.39-9.03,7.39-7.06,0-9.83-4.66-9.83-10.88s3.23-11.21,10-11.21,8.95,3.99,8.95,10.21v1.85Zm-3.11-2.98c0-4.45-1.72-6.55-5.92-6.55s-6.55,2.65-6.89,6.97h12.81v-.42Z"></path><path class="cls-16" d="m789.05,2756.58c0-7.1,4.28-11.09,10.04-11.09,3.7,0,6.22,1.6,7.31,3.74h.04v-14.96h2.94v32.77h-1.97l-.67-3.61h-.08c-1.18,2.31-3.95,4.16-7.77,4.16-6.3,0-9.83-3.99-9.83-11.01Zm17.64-.5c0-5.5-3.36-8.07-7.35-8.07-3.11,0-7.14,1.47-7.14,8.4s3.61,8.61,7.14,8.61c4.24,0,7.35-2.73,7.35-8.95Z"></path><path class="cls-16" d="m827.44,2734.28h8.36c11.05,0,17.39,4.54,17.39,16.43s-6.26,16.34-17.18,16.34h-8.57v-32.77Zm8.65,30.12c9.41,0,14.03-3.74,14.03-13.78s-4.49-13.74-14.07-13.74h-5.67v27.51h5.71Z"></path><path class="cls-16" d="m876.75,2757.55h-15.96c.17,4.79,2.48,7.48,6.93,7.48,3.82,0,5.67-1.43,5.97-4.83h2.98c-.29,4.24-3.28,7.39-9.03,7.39-7.06,0-9.83-4.66-9.83-10.88s3.23-11.21,10-11.21,8.95,3.99,8.95,10.21v1.85Zm-3.11-2.98c0-4.45-1.72-6.55-5.92-6.55s-6.55,2.65-6.89,6.97h12.81v-.42Z"></path><path class="cls-16" d="m880.73,2760.61v-1.18h2.94v1.13c0,2.86,2.14,4.5,5.96,4.5s5.8-1.01,5.8-3.78c0-2.06-1.01-2.81-3.86-3.32l-4.62-.84c-3.02-.55-5.54-2.02-5.54-5.5,0-3.15,2.35-6.13,8.4-6.13s8.4,3.02,8.4,7.22v.88h-2.98v-.76c0-3.44-2.14-4.92-5.42-4.92-3.95,0-5.33,1.34-5.33,3.36s1.01,2.86,3.91,3.4l4.03.76c4.12.76,6.09,1.93,6.09,5.59,0,4.58-4.12,6.55-8.78,6.55-7.31,0-8.99-3.28-8.99-6.97Z"></path><path class="cls-16" d="m902.7,2756.71c0-6.38,3.23-11.21,10-11.21s8.95,3.91,8.95,8.95v.42h-3.11v-.63c0-3.82-1.64-6.09-5.84-6.09-4.75,0-7.02,3.11-7.02,8.4,0,5.63,2.39,8.49,6.93,8.49,3.82,0,5.84-1.85,5.92-5.67h3.02c-.08,4.66-3.15,8.23-9.03,8.23-7.22,0-9.83-4.75-9.83-10.88Z"></path><path class="cls-16" d="m944.79,2757.55h-15.96c.17,4.79,2.48,7.48,6.93,7.48,3.82,0,5.67-1.43,5.97-4.83h2.98c-.29,4.24-3.28,7.39-9.03,7.39-7.06,0-9.83-4.66-9.83-10.88s3.23-11.21,10-11.21,8.95,3.99,8.95,10.21v1.85Zm-3.11-2.98c0-4.45-1.72-6.55-5.92-6.55s-6.55,2.65-6.89,6.97h12.81v-.42Z"></path><path class="cls-16" d="m950.66,2746.04h2.6l.29,3.49c1.01-2.14,3.28-4.03,7.35-4.03,4.75,0,7.77,2.52,7.77,7.94v13.61h-2.94v-13.27c0-4.33-2.14-5.71-5.5-5.71-3.82,0-6.64,2.69-6.64,5.63v13.36h-2.94v-21Z"></path><path class="cls-16" d="m974.35,2756.58c0-7.1,4.28-11.09,10.04-11.09,3.7,0,6.22,1.6,7.31,3.74h.04v-14.96h2.94v32.77h-1.97l-.67-3.61h-.08c-1.18,2.31-3.95,4.16-7.77,4.16-6.3,0-9.83-3.99-9.83-11.01Zm17.64-.5c0-5.5-3.36-8.07-7.35-8.07-3.11,0-7.14,1.47-7.14,8.4s3.61,8.61,7.14,8.61c4.24,0,7.35-2.73,7.35-8.95Z"></path><path class="cls-16" d="m1019.29,2757.55h-15.96c.17,4.79,2.48,7.48,6.93,7.48,3.82,0,5.67-1.43,5.97-4.83h2.98c-.29,4.24-3.28,7.39-9.03,7.39-7.06,0-9.83-4.66-9.83-10.88s3.23-11.21,10-11.21,8.95,3.99,8.95,10.21v1.85Zm-3.11-2.98c0-4.45-1.72-6.55-5.92-6.55s-6.55,2.65-6.89,6.97h12.81v-.42Z"></path><path class="cls-16" d="m1025.17,2746.04h2.6l.29,3.91c1.01-2.14,3.07-4.45,6.76-4.45,1.26,0,2.18.21,3.02.54v3.15c-1.13-.5-2.1-.76-3.4-.76-3.74,0-6.34,2.81-6.34,5.76v12.85h-2.94v-21Z"></path><path class="cls-16" d="m1040.38,2760.61v-1.18h2.94v1.13c0,2.86,2.14,4.5,5.96,4.5s5.8-1.01,5.8-3.78c0-2.06-1.01-2.81-3.86-3.32l-4.62-.84c-3.02-.55-5.54-2.02-5.54-5.5,0-3.15,2.35-6.13,8.4-6.13s8.4,3.02,8.4,7.22v.88h-2.98v-.76c0-3.44-2.14-4.92-5.42-4.92-3.95,0-5.33,1.34-5.33,3.36s1.01,2.86,3.91,3.4l4.03.76c4.12.76,6.09,1.93,6.09,5.59,0,4.58-4.12,6.55-8.78,6.55-7.31,0-8.99-3.28-8.99-6.97Z"></path><path class="cls-16" d="m1389.04,999.05c0-12.01,6.76-17.27,14.74-17.27,6.97,0,12.39,3.74,12.39,12.01v.8h-2.86v-.92c0-5.92-3.78-9.24-9.45-9.24-6.72,0-11.76,4.58-11.76,14.32s5.04,14.24,11.72,14.24c5.38,0,9.54-2.86,9.54-9.2v-.59h2.77v.42c0,8.02-5.33,12.01-12.56,12.01-7.98,0-14.53-4.87-14.53-16.59Z"></path><path class="cls-16" d="m1422.05,1007.7v-13.61h2.94v13.27c0,4.33,2.14,5.71,5.42,5.71,3.74,0,6.55-2.69,6.55-5.63v-13.36h2.94v21h-2.6l-.25-3.36h-.08c-.97,2.02-3.23,3.91-7.22,3.91-4.66,0-7.69-2.52-7.69-7.94Z"></path><path class="cls-16" d="m1447.25,994.09h2.6l.29,3.91c1.01-2.14,3.07-4.45,6.76-4.45,1.26,0,2.18.21,3.02.55v3.15c-1.13-.5-2.1-.76-3.4-.76-3.74,0-6.34,2.81-6.34,5.75v12.85h-2.94v-21Z"></path><path class="cls-16" d="m1461.4,994.13v-.04h3.36l7.35,17.98h.08l7.1-17.98h3.07v.04l-8.74,20.96h-3.02l-9.2-20.96Z"></path><path class="cls-16" d="m1503.2,1005.6h-15.96c.17,4.79,2.48,7.48,6.93,7.48,3.82,0,5.67-1.43,5.97-4.83h2.98c-.29,4.24-3.28,7.39-9.03,7.39-7.06,0-9.83-4.66-9.83-10.88s3.23-11.22,10-11.22,8.95,3.99,8.95,10.21v1.85Zm-3.11-2.98c0-4.45-1.72-6.55-5.92-6.55s-6.55,2.65-6.89,6.97h12.81v-.42Z"></path><path class="cls-16" d="m1507.39,1004.64c0-7.1,4.28-11.09,10.04-11.09,3.7,0,6.22,1.6,7.31,3.74h.04v-14.95h2.94v32.77h-1.97l-.67-3.61h-.08c-1.18,2.31-3.95,4.16-7.77,4.16-6.3,0-9.83-3.99-9.83-11.01Zm17.64-.5c0-5.5-3.36-8.07-7.35-8.07-3.11,0-7.14,1.47-7.14,8.4s3.61,8.61,7.14,8.61c4.24,0,7.35-2.73,7.35-8.95Z"></path><path class="cls-16" d="m1562,1005.6h-15.96c.17,4.79,2.48,7.48,6.93,7.48,3.82,0,5.67-1.43,5.97-4.83h2.98c-.29,4.24-3.28,7.39-9.03,7.39-7.06,0-9.83-4.66-9.83-10.88s3.23-11.22,10-11.22,8.95,3.99,8.95,10.21v1.85Zm-3.11-2.98c0-4.45-1.72-6.55-5.92-6.55s-6.55,2.65-6.89,6.97h12.81v-.42Z"></path><path class="cls-16" d="m1567.87,994.09h2.6l.29,3.49c1.01-2.14,3.28-4.03,7.35-4.03,4.75,0,7.77,2.52,7.77,7.94v13.61h-2.94v-13.27c0-4.33-2.14-5.71-5.5-5.71-3.82,0-6.64,2.69-6.64,5.63v13.36h-2.94v-21Z"></path><path class="cls-16" d="m1604.2,1012.41v2.6c-.76.21-2.14.59-4.03.59-3.82,0-6.34-1.6-6.34-6.89v-12.18h-4.16v-2.44h4.16v-6.05l2.94-1.43v7.48h5.92v2.44h-5.92v11.8c0,2.81.76,4.58,3.4,4.58,1.6,0,3.23-.29,4.03-.5Z"></path><path class="cls-16" d="m1609.03,994.09h2.6l.29,3.91c1.01-2.14,3.07-4.45,6.76-4.45,1.26,0,2.18.21,3.02.55v3.15c-1.13-.5-2.1-.76-3.4-.76-3.74,0-6.34,2.81-6.34,5.75v12.85h-2.94v-21Z"></path><path class="cls-16" d="m1626.54,994.09l6.89,17.98h.08l7.14-17.98h3.07v.04l-8.86,20.84-3.11,8.53h-2.98v-.04l3.19-8.36-8.78-20.96v-.04h3.36Z"></path><path class="cls-16" d="m1655.69,1008.67v-1.18h2.94v1.13c0,2.86,2.14,4.5,5.96,4.5s5.8-1.01,5.8-3.78c0-2.06-1.01-2.81-3.86-3.32l-4.62-.84c-3.02-.55-5.54-2.02-5.54-5.5,0-3.15,2.35-6.13,8.4-6.13s8.4,3.02,8.4,7.23v.88h-2.98v-.76c0-3.44-2.14-4.91-5.42-4.91-3.95,0-5.33,1.34-5.33,3.36s1.01,2.86,3.91,3.4l4.03.76c4.12.76,6.09,1.93,6.09,5.59,0,4.58-4.12,6.55-8.78,6.55-7.31,0-8.99-3.28-8.99-6.97Z"></path><path class="cls-16" d="m1690.3,1012.41v2.6c-.76.21-2.14.59-4.03.59-3.82,0-6.34-1.6-6.34-6.89v-12.18h-4.16v-2.44h4.16v-6.05l2.94-1.43v7.48h5.92v2.44h-5.92v11.8c0,2.81.76,4.58,3.4,4.58,1.6,0,3.23-.29,4.03-.5Z"></path><path class="cls-16" d="m1695.13,994.09h2.6l.29,3.91c1.01-2.14,3.07-4.45,6.76-4.45,1.26,0,2.18.21,3.02.55v3.15c-1.13-.5-2.1-.76-3.4-.76-3.74,0-6.34,2.81-6.34,5.75v12.85h-2.94v-21Z"></path><path class="cls-16" d="m1710.13,1004.59c0-6.22,3.32-11.05,10.38-11.05,6.59,0,10.25,4.83,10.25,11.05s-3.7,11.05-10.29,11.05c-7.27,0-10.33-4.83-10.33-11.05Zm17.56,0c0-5.33-2.9-8.49-7.22-8.49-4.75,0-7.27,3.15-7.27,8.49s2.56,8.49,7.27,8.49c4.33,0,7.22-3.15,7.22-8.49Z"></path><path class="cls-16" d="m1736,982.33h2.94v23.23l12.14-11.47h3.65v.04l-8.4,7.86,8.78,13.06v.04h-3.36l-7.39-11.22-5.42,5.04v6.18h-2.94v-32.77Z"></path><path class="cls-16" d="m1776.36,1005.6h-15.96c.17,4.79,2.48,7.48,6.93,7.48,3.82,0,5.67-1.43,5.97-4.83h2.98c-.29,4.24-3.28,7.39-9.03,7.39-7.06,0-9.83-4.66-9.83-10.88s3.23-11.22,10-11.22,8.95,3.99,8.95,10.21v1.85Zm-3.11-2.98c0-4.45-1.72-6.55-5.92-6.55s-6.55,2.65-6.89,6.97h12.81v-.42Z"></path><path class="cls-16" d="m1780.35,1008.67v-1.18h2.94v1.13c0,2.86,2.14,4.5,5.96,4.5s5.8-1.01,5.8-3.78c0-2.06-1.01-2.81-3.86-3.32l-4.62-.84c-3.02-.55-5.54-2.02-5.54-5.5,0-3.15,2.35-6.13,8.4-6.13s8.4,3.02,8.4,7.23v.88h-2.98v-.76c0-3.44-2.14-4.91-5.42-4.91-3.95,0-5.33,1.34-5.33,3.36s1.01,2.86,3.91,3.4l4.03.76c4.12.76,6.09,1.93,6.09,5.59,0,4.58-4.12,6.55-8.78,6.55-7.31,0-8.99-3.28-8.99-6.97Z"></path><rect class="cls-18" x="1433.01" y="1257.39" width="111.73" height="111.73" rx="55.87" ry="55.87"></rect><path class="cls-16" d="m935.66,1837.49h3.23l11.51,20.92h.08l11.51-20.92h3.24v32.77h-2.94v-27.85h-.04l-10.75,19.91h-2.06l-10.8-19.91h-.04v27.85h-2.94v-32.77Z"></path><path class="cls-16" d="m973.84,1837.49h2.98v6.51h-2.98v-6.51Zm0,11.76h2.94v21h-2.94v-21Z"></path><path class="cls-16" d="m984.17,1849.25h2.61l.29,3.91c1.01-2.14,3.07-4.45,6.76-4.45,1.26,0,2.18.21,3.02.55v3.15c-1.13-.5-2.1-.76-3.4-.76-3.74,0-6.34,2.81-6.34,5.75v12.85h-2.94v-21Z"></path><path class="cls-16" d="m1001.47,1849.25h2.6l.29,3.91c1.01-2.14,3.07-4.45,6.76-4.45,1.26,0,2.18.21,3.02.55v3.15c-1.13-.5-2.1-.76-3.4-.76-3.74,0-6.34,2.81-6.34,5.75v12.85h-2.94v-21Z"></path><path class="cls-16" d="m1016.47,1859.75c0-6.22,3.32-11.05,10.38-11.05,6.6,0,10.25,4.83,10.25,11.05s-3.7,11.05-10.29,11.05c-7.27,0-10.33-4.83-10.33-11.05Zm17.56,0c0-5.33-2.9-8.49-7.23-8.49-4.75,0-7.27,3.15-7.27,8.49s2.56,8.49,7.27,8.49c4.33,0,7.23-3.15,7.23-8.49Z"></path><path class="cls-16" d="m1042.97,1849.25h2.6l.29,3.91c1.01-2.14,3.07-4.45,6.76-4.45,1.26,0,2.18.21,3.02.55v3.15c-1.13-.5-2.1-.76-3.4-.76-3.74,0-6.34,2.81-6.34,5.75v12.85h-2.94v-21Z"></path><path class="cls-16" d="m1076.91,1860.76h-15.96c.17,4.79,2.48,7.48,6.93,7.48,3.82,0,5.67-1.43,5.96-4.83h2.98c-.29,4.24-3.28,7.39-9.03,7.39-7.06,0-9.83-4.66-9.83-10.88s3.23-11.22,10-11.22,8.95,3.99,8.95,10.21v1.85Zm-3.11-2.98c0-4.45-1.72-6.55-5.92-6.55s-6.55,2.65-6.89,6.97h12.81v-.42Z"></path><path class="cls-16" d="m1081.1,1859.8c0-7.1,4.29-11.09,10.04-11.09,3.7,0,6.22,1.6,7.31,3.74h.04v-14.95h2.94v32.77h-1.97l-.67-3.61h-.08c-1.18,2.31-3.95,4.16-7.77,4.16-6.3,0-9.83-3.99-9.83-11.01Zm17.64-.5c0-5.5-3.36-8.07-7.35-8.07-3.11,0-7.14,1.47-7.14,8.4s3.61,8.61,7.14,8.61c4.24,0,7.35-2.73,7.35-8.95Z"></path><path class="cls-16" d="m1118.44,1837.49h2.94v32.77h-2.94v-32.77Z"></path><path class="cls-16" d="m1127.05,1859.75c0-6.22,3.32-11.05,10.38-11.05,6.6,0,10.25,4.83,10.25,11.05s-3.7,11.05-10.29,11.05c-7.27,0-10.33-4.83-10.33-11.05Zm17.56,0c0-5.33-2.9-8.49-7.23-8.49-4.75,0-7.27,3.15-7.27,8.49s2.56,8.49,7.27,8.49c4.33,0,7.23-3.15,7.23-8.49Z"></path><path class="cls-16" d="m1151.87,1859.75c0-6.22,3.32-11.05,10.38-11.05,6.6,0,10.25,4.83,10.25,11.05s-3.7,11.05-10.29,11.05c-7.27,0-10.33-4.83-10.33-11.05Zm17.56,0c0-5.33-2.9-8.49-7.23-8.49-4.75,0-7.27,3.15-7.27,8.49s2.56,8.49,7.27,8.49c4.33,0,7.23-3.15,7.23-8.49Z"></path><path class="cls-16" d="m1178.38,1849.25h2.39l.34,3.87h.08c1.13-2.48,4.03-4.41,7.86-4.41,6.3,0,9.66,3.99,9.66,11.01s-4.29,11.09-9.87,11.09c-3.78,0-6.38-1.6-7.44-3.7h-.08v11.55h-2.94v-29.41Zm17.18,10.63c0-7.18-3.4-8.61-6.93-8.61-4.24,0-7.56,2.73-7.56,8.44,0,6.01,3.45,8.57,7.44,8.57,3.02,0,7.06-1.47,7.06-8.4Z"></path><path class="cls-16" d="m1214.24,1837.49h2.98v6.51h-2.98v-6.51Zm0,11.76h2.94v21h-2.94v-21Z"></path><path class="cls-16" d="m1224.58,1849.25h2.6l.29,3.49c1.01-2.14,3.28-4.03,7.35-4.03,4.75,0,7.77,2.52,7.77,7.94v13.61h-2.94v-13.27c0-4.33-2.14-5.71-5.5-5.71-3.82,0-6.64,2.69-6.64,5.63v13.36h-2.94v-21Z"></path><path class="cls-16" d="m1261.29,1847.95h-3.36v-5.08c0-3.95.88-5.29,3.4-5.96l.67,1.85c-1.76.67-2.06,1.09-2.06,3.78v.34h1.34v5.08Zm5.92,0h-3.36v-5.08c0-3.95.88-5.29,3.4-5.96l.67,1.85c-1.76.67-2.06,1.09-2.06,3.78v.34h1.34v5.08Z"></path><path class="cls-16" d="m1277.33,1844.21v5.04h5.92v2.44h-5.92v18.57h-2.94v-18.57h-4.16v-2.44h4.16v-5.42c0-5.29,3.15-6.89,6.38-6.89,1.85,0,2.98.29,3.74.55v2.6c-.71-.21-1.89-.46-3.49-.46-2.65,0-3.7,1.76-3.7,4.58Z"></path><path class="cls-16" d="m1287.87,1846.69c1.76-.67,2.06-1.09,2.06-3.78v-.34h-1.34v-5.08h3.36v5.08c0,3.95-.88,5.29-3.4,5.96l-.67-1.85Zm5.92,0c1.77-.67,2.06-1.09,2.06-3.78v-.34h-1.34v-5.08h3.36v5.08c0,3.95-.88,5.29-3.4,5.96l-.67-1.85Z"></path><path class="cls-16" d="m1312.15,1864.46c0-3.95,2.23-6.09,7.86-6.09h6.34v-1.72c0-2.98-1.26-5.42-5.46-5.42-3.95,0-5.33,1.51-5.33,4.12v.88h-2.98v-.84c0-5,4.2-6.68,8.32-6.68,5.8,0,8.4,2.86,8.4,8.44v13.11h-2.06l-.55-2.98h-.08c-1.26,1.89-3.7,3.53-7.35,3.53-4.92,0-7.1-2.31-7.1-6.34Zm14.2-1.85v-1.76h-7.01c-2.65,0-4.03.92-4.03,3.61,0,2.35,1.26,3.86,4.49,3.86,4.16,0,6.55-2.14,6.55-5.71Z"></path><path class="cls-16" d="m1336.63,1849.25h2.6l.29,3.49c1.01-2.14,3.28-4.03,7.35-4.03,4.75,0,7.77,2.52,7.77,7.94v13.61h-2.94v-13.27c0-4.33-2.14-5.71-5.5-5.71-3.82,0-6.64,2.69-6.64,5.63v13.36h-2.94v-21Z"></path><path class="cls-16" d="m1360.32,1859.8c0-7.1,4.28-11.09,10.04-11.09,3.7,0,6.22,1.6,7.31,3.74h.04v-14.95h2.94v32.77h-1.97l-.67-3.61h-.08c-1.18,2.31-3.95,4.16-7.77,4.16-6.3,0-9.83-3.99-9.83-11.01Zm17.64-.5c0-5.5-3.36-8.07-7.35-8.07-3.11,0-7.14,1.47-7.14,8.4s3.61,8.61,7.14,8.61c4.24,0,7.35-2.73,7.35-8.95Z"></path><path class="cls-16" d="m1399.34,1847.95h-3.36v-5.08c0-3.95.88-5.29,3.4-5.96l.67,1.85c-1.76.67-2.06,1.09-2.06,3.78v.34h1.34v5.08Zm5.92,0h-3.36v-5.08c0-3.95.88-5.29,3.4-5.96l.67,1.85c-1.76.67-2.06,1.09-2.06,3.78v.34h1.34v5.08Z"></path><path class="cls-16" d="m1425.59,1866.77h-.08c-1.09,2.14-3.65,4.03-7.48,4.03-6.3,0-9.74-3.99-9.74-11.01s4.37-11.09,9.96-11.09c3.78,0,6.6,1.76,7.64,4.29h.04l.29-3.74h2.31v29.41h-2.94v-11.89Zm.34-7.48c0-5.5-3.36-8.07-7.35-8.07-3.03,0-7.14,1.47-7.14,8.4s3.57,8.61,7.1,8.61c4.24,0,7.39-2.73,7.39-8.95Z"></path><path class="cls-16" d="m1433.15,1846.69c1.76-.67,2.06-1.09,2.06-3.78v-.34h-1.34v-5.08h3.36v5.08c0,3.95-.88,5.29-3.4,5.96l-.67-1.85Zm5.92,0c1.77-.67,2.06-1.09,2.06-3.78v-.34h-1.34v-5.08h3.36v5.08c0,3.95-.88,5.29-3.4,5.96l-.67-1.85Z"></path><path class="cls-16" d="m767.1,982.33h8.61c7.94,0,11.64,2.73,11.64,9.62,0,6.43-2.77,10.12-11.13,10.12h-6.13v13.02h-2.98v-32.77Zm9.28,17.22c6.09,0,7.94-2.69,7.94-7.65,0-5.21-2.6-6.97-8.44-6.97h-5.8v14.62h6.3Z"></path><path class="cls-16" d="m790.07,1004.59c0-6.22,3.32-11.05,10.38-11.05,6.59,0,10.25,4.83,10.25,11.05s-3.7,11.05-10.29,11.05c-7.27,0-10.33-4.83-10.33-11.05Zm17.56,0c0-5.33-2.9-8.49-7.23-8.49-4.75,0-7.27,3.15-7.27,8.49s2.56,8.49,7.27,8.49c4.33,0,7.23-3.15,7.23-8.49Z"></path><path class="cls-16" d="m816.57,982.33h2.98v6.51h-2.98v-6.51Zm0,11.76h2.94v21h-2.94v-21Z"></path><path class="cls-16" d="m826.91,994.09h2.6l.29,3.49c1.01-2.14,3.28-4.03,7.35-4.03,4.75,0,7.77,2.52,7.77,7.94v13.61h-2.94v-13.27c0-4.33-2.14-5.71-5.5-5.71-3.82,0-6.64,2.69-6.64,5.63v13.36h-2.94v-21Z"></path><path class="cls-16" d="m863.24,1012.41v2.6c-.76.21-2.14.59-4.03.59-3.82,0-6.34-1.6-6.34-6.89v-12.18h-4.16v-2.44h4.16v-6.05l2.94-1.43v7.48h5.92v2.44h-5.92v11.8c0,2.82.76,4.58,3.4,4.58,1.6,0,3.23-.29,4.03-.5Z"></path><path class="cls-16" d="m884.7,1005.6h-15.96c.17,4.79,2.48,7.48,6.93,7.48,3.82,0,5.67-1.43,5.96-4.83h2.98c-.29,4.24-3.28,7.39-9.03,7.39-7.06,0-9.83-4.66-9.83-10.88s3.23-11.22,10-11.22,8.95,3.99,8.95,10.21v1.85Zm-3.11-2.98c0-4.45-1.72-6.55-5.92-6.55s-6.55,2.65-6.89,6.97h12.81v-.42Z"></path><path class="cls-16" d="m888.9,1004.64c0-7.1,4.28-11.09,10.04-11.09,3.7,0,6.22,1.6,7.31,3.74h.04v-14.95h2.94v32.77h-1.97l-.67-3.61h-.08c-1.18,2.31-3.95,4.16-7.77,4.16-6.3,0-9.83-3.99-9.83-11.01Zm17.64-.5c0-5.5-3.36-8.07-7.35-8.07-3.11,0-7.14,1.47-7.14,8.4s3.61,8.61,7.14,8.61c4.24,0,7.35-2.73,7.35-8.95Z"></path><path class="cls-16" d="m943.5,1005.6h-15.96c.17,4.79,2.48,7.48,6.93,7.48,3.82,0,5.67-1.43,5.96-4.83h2.98c-.29,4.24-3.28,7.39-9.03,7.39-7.06,0-9.83-4.66-9.83-10.88s3.23-11.22,10-11.22,8.95,3.99,8.95,10.21v1.85Zm-3.11-2.98c0-4.45-1.72-6.55-5.92-6.55s-6.55,2.65-6.89,6.97h12.81v-.42Z"></path><path class="cls-16" d="m949.38,994.09h2.6l.29,3.49c1.01-2.14,3.28-4.03,7.35-4.03,4.75,0,7.77,2.52,7.77,7.94v13.61h-2.94v-13.27c0-4.33-2.14-5.71-5.5-5.71-3.82,0-6.64,2.69-6.64,5.63v13.36h-2.94v-21Z"></path><path class="cls-16" d="m985.71,1012.41v2.6c-.76.21-2.14.59-4.03.59-3.82,0-6.34-1.6-6.34-6.89v-12.18h-4.16v-2.44h4.16v-6.05l2.94-1.43v7.48h5.92v2.44h-5.92v11.8c0,2.82.76,4.58,3.4,4.58,1.6,0,3.23-.29,4.03-.5Z"></path><path class="cls-16" d="m990.54,994.09h2.6l.29,3.91c1.01-2.14,3.07-4.45,6.76-4.45,1.26,0,2.18.21,3.03.55v3.15c-1.13-.5-2.1-.76-3.4-.76-3.74,0-6.34,2.81-6.34,5.75v12.85h-2.94v-21Z"></path><path class="cls-16" d="m1008.05,994.09l6.89,17.98h.08l7.14-17.98h3.07v.04l-8.86,20.84-3.11,8.53h-2.98v-.04l3.19-8.36-8.78-20.96v-.04h3.36Z"></path><path class="cls-16" d="m1037.2,1008.67v-1.18h2.94v1.13c0,2.86,2.14,4.49,5.96,4.49s5.8-1.01,5.8-3.78c0-2.06-1.01-2.81-3.86-3.32l-4.62-.84c-3.02-.55-5.54-2.02-5.54-5.5,0-3.15,2.35-6.13,8.4-6.13s8.4,3.02,8.4,7.23v.88h-2.98v-.76c0-3.45-2.14-4.92-5.42-4.92-3.95,0-5.33,1.34-5.33,3.36s1.01,2.86,3.91,3.4l4.03.76c4.12.76,6.09,1.93,6.09,5.59,0,4.58-4.12,6.55-8.78,6.55-7.31,0-8.99-3.28-8.99-6.97Z"></path><path class="cls-16" d="m1071.81,1012.41v2.6c-.76.21-2.14.59-4.03.59-3.82,0-6.34-1.6-6.34-6.89v-12.18h-4.16v-2.44h4.16v-6.05l2.94-1.43v7.48h5.92v2.44h-5.92v11.8c0,2.82.76,4.58,3.4,4.58,1.6,0,3.23-.29,4.03-.5Z"></path><path class="cls-16" d="m1076.64,994.09h2.6l.29,3.91c1.01-2.14,3.07-4.45,6.76-4.45,1.26,0,2.18.21,3.02.55v3.15c-1.13-.5-2.1-.76-3.4-.76-3.74,0-6.34,2.81-6.34,5.75v12.85h-2.94v-21Z"></path><path class="cls-16" d="m1091.63,1004.59c0-6.22,3.32-11.05,10.38-11.05,6.59,0,10.25,4.83,10.25,11.05s-3.7,11.05-10.29,11.05c-7.27,0-10.33-4.83-10.33-11.05Zm17.56,0c0-5.33-2.9-8.49-7.22-8.49-4.75,0-7.27,3.15-7.27,8.49s2.56,8.49,7.27,8.49c4.33,0,7.22-3.15,7.22-8.49Z"></path><path class="cls-16" d="m1117.5,982.33h2.94v23.23l12.14-11.47h3.65v.04l-8.4,7.86,8.78,13.06v.04h-3.36l-7.39-11.22-5.42,5.04v6.17h-2.94v-32.77Z"></path><path class="cls-16" d="m1157.87,1005.6h-15.96c.17,4.79,2.48,7.48,6.93,7.48,3.82,0,5.67-1.43,5.97-4.83h2.98c-.29,4.24-3.28,7.39-9.03,7.39-7.06,0-9.83-4.66-9.83-10.88s3.23-11.22,10-11.22,8.95,3.99,8.95,10.21v1.85Zm-3.11-2.98c0-4.45-1.72-6.55-5.92-6.55s-6.55,2.65-6.89,6.97h12.81v-.42Z"></path><path class="cls-16" d="m1173.41,982.33h2.98v6.51h-2.98v-6.51Zm0,11.76h2.94v21h-2.94v-21Z"></path><path class="cls-16" d="m1183.74,994.09h2.6l.29,3.49c1.01-2.14,3.28-4.03,7.35-4.03,4.75,0,7.77,2.52,7.77,7.94v13.61h-2.94v-13.27c0-4.33-2.14-5.71-5.5-5.71-3.82,0-6.64,2.69-6.64,5.63v13.36h-2.94v-21Z"></path><path class="cls-16" d="m1220.45,992.79h-3.36v-5.08c0-3.95.88-5.29,3.4-5.96l.67,1.85c-1.76.67-2.06,1.09-2.06,3.78v.34h1.34v5.08Zm5.92,0h-3.36v-5.08c0-3.95.88-5.29,3.4-5.96l.67,1.85c-1.76.67-2.06,1.09-2.06,3.78v.34h1.34v5.08Z"></path><path class="cls-16" d="m1230.02,994.13v-.04h2.98l5.75,17.48h.08l6.3-17.48h2.69l6.17,17.48h.08l5.75-17.48h2.86v.04l-7.18,20.96h-3.02l-5.96-17.05h-.08l-6.22,17.05h-3.02l-7.18-20.96Z"></path><path class="cls-16" d="m1265.64,991.53c1.76-.67,2.06-1.09,2.06-3.78v-.34h-1.34v-5.08h3.36v5.08c0,3.95-.88,5.29-3.4,5.96l-.67-1.85Zm5.92,0c1.76-.67,2.06-1.09,2.06-3.78v-.34h-1.34v-5.08h3.36v5.08c0,3.95-.88,5.29-3.4,5.96l-.67-1.85Z"></path><rect class="cls-18" x="1067.63" y="1257.39" width="119.71" height="119.71" rx="59.86" ry="59.86"></rect><path class="cls-16" d="m133.97,3642.92v-2.02h3.02v2.18c0,3.74,2.6,6.05,7.94,6.05s8.44-1.97,8.44-6.22c0-3.32-1.39-5.17-4.92-6.09l-6.64-1.72c-4.33-1.13-7.18-2.98-7.18-8.15s3.78-8.91,10.92-8.91,10.59,3.44,10.59,9.07v2.94h-3.02v-2.81c0-4.62-3.07-6.51-7.56-6.51-5.12,0-7.81,2.14-7.81,6.01,0,3.61,1.76,4.71,5.54,5.71l5.75,1.55c5.12,1.39,7.44,3.74,7.44,8.65,0,6.09-4.33,9.24-11.47,9.24-9.12,0-11.05-4.71-11.05-8.99Z"></path><path class="cls-16" d="m178.87,3647.88h-.08c-1.09,2.14-3.65,4.03-7.48,4.03-6.3,0-9.75-3.99-9.75-11.01s4.37-11.09,9.96-11.09c3.78,0,6.59,1.76,7.65,4.29h.04l.29-3.74h2.31v29.41h-2.94v-11.89Zm.34-7.48c0-5.5-3.36-8.07-7.35-8.07-3.02,0-7.14,1.47-7.14,8.4s3.57,8.61,7.1,8.61c4.24,0,7.39-2.73,7.39-8.95Z"></path><path class="cls-16" d="m188.74,3643.97v-13.61h2.94v13.27c0,4.33,2.14,5.71,5.42,5.71,3.74,0,6.55-2.69,6.55-5.63v-13.36h2.94v21h-2.6l-.25-3.36h-.08c-.97,2.02-3.24,3.91-7.23,3.91-4.66,0-7.69-2.52-7.69-7.94Z"></path><path class="cls-16" d="m212.68,3645.57c0-3.95,2.23-6.09,7.86-6.09h6.34v-1.72c0-2.98-1.26-5.42-5.46-5.42-3.95,0-5.33,1.51-5.33,4.12v.88h-2.98v-.84c0-5,4.2-6.68,8.32-6.68,5.8,0,8.4,2.86,8.4,8.44v13.11h-2.06l-.55-2.98h-.08c-1.26,1.89-3.7,3.53-7.35,3.53-4.92,0-7.1-2.31-7.1-6.34Zm14.2-1.85v-1.76h-7.01c-2.65,0-4.03.92-4.03,3.61,0,2.35,1.26,3.86,4.49,3.86,4.16,0,6.55-2.14,6.55-5.71Z"></path><path class="cls-16" d="m237.16,3630.36h2.61l.29,3.91c1.01-2.14,3.07-4.45,6.76-4.45,1.26,0,2.19.21,3.03.55v3.15c-1.13-.5-2.1-.76-3.4-.76-3.74,0-6.34,2.81-6.34,5.75v12.85h-2.94v-21Z"></path><path class="cls-16" d="m271.1,3641.87h-15.96c.17,4.79,2.48,7.48,6.93,7.48,3.82,0,5.67-1.43,5.96-4.83h2.98c-.29,4.24-3.28,7.39-9.03,7.39-7.06,0-9.83-4.66-9.83-10.88s3.23-11.22,10-11.22,8.95,3.99,8.95,10.21v1.85Zm-3.11-2.98c0-4.45-1.72-6.55-5.92-6.55s-6.55,2.65-6.89,6.97h12.81v-.42Z"></path><path class="cls-16" d="m288.32,3629.06h-3.36v-5.08c0-3.95.88-5.29,3.4-5.96l.67,1.85c-1.76.67-2.06,1.09-2.06,3.78v.34h1.34v5.08Zm5.92,0h-3.36v-5.08c0-3.95.88-5.29,3.4-5.96l.67,1.85c-1.76.67-2.06,1.09-2.06,3.78v.34h1.34v5.08Z"></path><path class="cls-16" d="m313.9,3644.23h-17.69v-2.23l16.72-23.36h3.95v22.85h4.96v2.73h-5v7.14h-2.94v-7.14Zm-13.99-2.73h14.03v-19.7l-14.03,19.7Z"></path><path class="cls-16" d="m323.72,3627.8c1.76-.67,2.06-1.09,2.06-3.78v-.34h-1.34v-5.08h3.36v5.08c0,3.95-.88,5.29-3.4,5.96l-.67-1.85Zm5.92,0c1.76-.67,2.06-1.09,2.06-3.78v-.34h-1.35v-5.08h3.36v5.08c0,3.95-.88,5.29-3.4,5.96l-.67-1.85Z"></path><circle class="cls-18" cx="1056.28" cy="2134.14" r="139.15"></circle><circle class="cls-18" cx="1460.75" cy="3035.04" r="121.03"></circle><circle class="cls-18" cx="943.65" cy="2527.87" r="113.59"></circle><path class="cls-18" d="m856.82,290.73c-25.29,122.35-102.94,285.29-224.11,285.29-48.82,0-85.88-9.41-119.41-45.29-30.59,18.82-71.76,34.71-106.47,45.29l-8.82-21.76c31.77-9.41,72.94-24.71,102.35-41.76-9.41-11.76-24.71-58.82-21.77-81.76,27.06,10.59,65.29,22.35,96.47,24.71,31.76-25.29,47.65-45.88,71.76-78.82-2.35-4.12-17.06-15.88-17.06-63.53,0-28.82,26.47-114.7,78.23-114.7,29.41,0,35.29,17.65,35.29,41.76,0,32.35-43.53,100-60.59,126.47,6.47,1.18,21.77,3.53,28.24,3.53,56.47,0,103.53-48.82,122.94-81.18l22.94,1.76Zm-348.82,172.94c.59,12.35,9.41,31.18,13.53,35.88,8.23-4.71,27.06-18.82,34.12-25.29-14.7-2.35-34.12-6.47-47.65-10.59Zm202.94-70.59c-11.76,0-23.53-2.35-44.12-4.12-21.77,30.59-36.47,47.65-64.71,71.76,28.24.59,64.71-.59,92.94-8.24l4.12,22.94c-31.18,8.24-84.12,8.82-118.82,5.88-9.41,9.41-29.41,25.88-45.88,36.47,28.24,28.82,58.82,35.29,98.24,35.29,109.41,0,163.53-148.23,186.47-208.23-23.53,28.24-73.53,48.23-108.23,48.23Zm-5.29-172.35c-25.29,0-52.94,57.06-52.94,92.35,0,18.82,2.94,29.41,9.41,41.76,2.35-3.53,58.23-85.29,58.23-114.7,0-9.41-.59-19.41-14.7-19.41Z"></path><path class="cls-16" d="m1107.42,442.49c-25.29,0-38.82-4.12-45.29-5.88,2.35,2.94,3.53,21.76,3.53,24.12,0,49.41-43.53,115.29-98.24,115.29-35.88,0-64.12-29.41-63.53-70-24.12,34.12-75.29,70-109.41,70v-22.94c53.53,0,98.82-72.35,128.23-111.76,12.35-17.65,45.29-54.12,78.82-54.12,51.76,0,41.18,32.35,105.88,32.35v22.94Zm-105.29-32.35c-31.18,0-75.29,49.41-75.29,97.06,0,24.71,15.88,45.88,40.59,45.88,42.35,0,75.29-57.06,75.29-92.35,0-26.47-7.06-50.59-40.59-50.59Z"></path><path class="cls-16" d="m1336.24,561.9c-7.06,4.12-35.88,14.12-50,14.12-28.82,0-47.06-14.12-47.06-37.06-15.29,14.12-40.59,37.06-70,37.06-32.94,0-57.65-21.76-57.06-56.47.59-28.24,19.41-58.23,47.65-82.35-21.77,3.53-45.88,5.29-55.3,5.29v-22.94c18.24,0,85.88-7.06,108.82-15.88,22.94-8.24,46.47-15.88,70-15.88,11.18,0,22.35,1.18,32.94,3.53-12.35,28.24-54.12,122.35-54.12,136.47,0,16.47,8.24,25.29,24.71,25.29,10,0,37.65-10,49.41-17.06v25.88Zm-57.65-152.35c-22.35,0-43.53,5.88-63.53,15.88-47.06,23.53-80,67.65-80,91.76s11.76,35.88,34.12,35.88,52.35-28.24,64.7-44.12c15.3-19.41,34.12-62.94,50-99.41h-5.3Z"></path><path class="cls-18" d="m1558.6,375.43l-4.12,22.94h-75.88c-12.35,35.88-40.59,92.35-40.59,128.82,0,9.41-2.35,25.88,18.23,25.88s40.59-7.06,52.94-17.06v25.88c-7.06,5.88-27.65,14.12-52.94,14.12-33.53,0-41.18-24.12-41.18-48.82,0-7.06,3.53-28.24,5.88-36.47-32.94,41.76-83.53,72.35-88.82,72.35v-25.88c3.53,0,41.17-23.53,74.11-62.35,19.41-22.94,36.47-48.82,46.47-76.47h-70.59l3.53-22.94h74.7l58.24-177.06h24.12l-56.47,177.06h72.35Z"></path><path class="cls-18" d="m1543.89,537.19c-3.53,2.94-27.06,21.76-37.06,25.88v-25.88c5.3-3.53,20-15.29,22.94-17.65l14.12,17.65Z"></path><path class="cls-18" d="m408.89,3134.18l-7.65,22.35h-67.06l-56.47,173.53h-25.88l56.47-173.53h-170.59l67.06-204.12h25.88l-60.59,181.76h145.88l60-181.76h25.88l-60,181.76h67.06Z"></path><path class="cls-16" d="m810.65,3315.95c-5.88,1.76-46.47,15.88-103.53,15.88-31.76,0-50-18.82-52.35-31.76l-73.53,218.82h-24.71l91.76-274.7c-38.24,41.76-83.53,85.88-131.76,85.88v-22.94c54.12,0,132.94-95.29,166.47-165.88h24.12s-3.53,10.59-4.71,15.29c8.24-5.29,24.12-15.29,47.06-15.29,48.82,0,55.88,45.88,55.88,74.12,0,33.53-17.06,74.71-34.12,85.88,21.76-2.35,32.35-9.41,39.41-11.18v25.88Zm-61.77-151.76c-53.53,0-79.41,69.41-79.41,93.53,0,27.65,9.41,51.18,37.65,51.18,43.53,0,75.29-52.94,75.29-92.94,0-34.12-13.53-51.76-33.53-51.76Z"></path><path class="cls-16" d="m877.72,3285.95c9.41,19.41,25.88,21.18,48.23,21.18s48.23-8.82,59.41-17.06v25.88c-10,7.65-41.18,14.12-59.41,14.12-4.71,0-55.29.59-70.59-34.12-10.59,5.88-45.29,21.18-48.82,21.18v-25.88c4.12,0,31.18-12.35,42.94-18.82-.59-5.29-.59-5.88-.59-11.18,0-57.06,45.29-120,104.7-120,22.94,0,38.83,17.06,38.83,41.76,0,41.76-64.12,72.35-114.71,102.94Zm75.88-121.76c-45.88,0-82.35,51.18-81.76,95.29v4.71c35.88-21.76,97.65-52.94,97.65-81.18,0-11.18-5.88-18.82-15.88-18.82Z"></path><path class="cls-16" d="m1265.95,3315.95c-7.06,4.12-35.88,14.12-49.41,14.12-29.41,0-47.65-14.12-47.65-37.06-15.88,14.12-40,37.06-69.41,37.06-32.94,0-57.06-21.76-57.06-56.47-18.82,21.76-60,44.12-60.59,44.12v-25.88c2.94,0,33.53-19.41,58.82-50.59,45.29-56.47,96.47-99.41,172.94-99.41,11.18,0,22.35,1.18,32.94,3.53-12.35,28.24-54.71,122.35-54.71,136.47,0,16.47,7.65,25.29,24.71,25.29,10,0,37.65-10,49.41-17.06v25.88Zm-57.06-152.35c-61.18,0-143.53,55.29-143.53,107.65,0,23.53,11.76,35.88,34.12,35.88s51.76-28.24,64.71-44.12c15.29-19.41,34.12-62.94,50-99.41h-5.3Z"></path><path class="cls-16" d="m1559.48,3315.95c-2.35,1.76-27.06,14.12-54.12,14.12-51.76,0-87.65-58.82-103.53-97.65-14.7,24.12-34.7,67.06-45.88,97.65h-24.12c8.82-30,27.06-80.59,36.47-108.82-35.29,43.53-100,96.47-107.06,96.47v-25.88c7.06,0,71.76-60,121.18-121.18,10-30.59,24.71-83.53,34.12-114.12,10-31.18,25.88-104.12,70.59-104.12,25.29,0,34.12,14.12,34.12,40.59,0,21.76-10.59,48.23-25.88,74.71-24.71,44.12-61.18,85.88-88.82,115.29,1.18-.59-3.53,10-2.35,8.82,20-17.06,47.06-50.59,81.77-50.59,26.47,0,31.18,22.35,31.18,40,0,45.88-51.17,59.41-65.29,59.41-18.23,0-12.35,1.18-17.65-1.76,15.29,40.59,46.47,68.23,71.17,68.23,22.35,0,48.82-12.35,54.12-17.06v25.88Zm-72.35-340.59c-28.24,0-42.94,74.12-47.65,87.65-7.06,20.59-18.23,58.23-23.53,74.71,14.71-14.71,38.83-45.88,57.06-77.65,14.71-24.12,25.29-49.41,25.29-67.06,0-5.88,0-17.65-11.18-17.65Zm-1.18,188.82c-21.18,0-48.82,24.12-61.76,44.12,8.23,8.24,11.18,9.41,27.65,9.41,9.41,0,42.35-10.59,42.35-36.47,0-4.12.59-17.06-8.24-17.06Z"></path><path class="cls-16" d="m1749.48,3315.95c-6.47,2.35-15.88,5.88-27.65,7.65-21.77,4.12-49.41,6.47-72.94,6.47-10.59,0-40.59,1.76-67.65-27.65-4.12,2.35-18.24,11.76-25.29,15.29v-25.88c4.12-1.76,25.88-16.47,28.24-18.24,48.82-36.47,112.35-92.35,145.29-131.76,1.76-2.35,10.59-4.71,10.59,5.29,0,27.65-5.88,68.82-11.18,97.65-4.71,25.88-15.29,44.71-25.29,57.06,4.12,0,5.88-.59,11.18-1.18,12.35-2.35,26.47-7.65,34.7-10.59v25.88Zm-147.06-27.65c11.18,14.71,29.41,18.82,44.71,18.82,33.53,0,52.35-42.94,57.06-62.35,5.29-21.76,5.88-30,7.65-51.76-38.23,36.47-68.82,62.94-109.41,95.29Z"></path><path class="cls-16" d="m1784.19,3291.24c-3.53,2.94-27.06,21.76-37.06,25.88v-25.88c5.3-3.53,20-15.29,22.94-17.65l14.12,17.65Z"></path><path class="cls-18" d="m718.29,2077.22c-18.24,24.12-82.35,61.18-115.29,67.65,3.53,14.12,5.29,53.53,5.29,65.88,0,103.53-75.29,208.23-182.35,208.23-40,0-72.94-22.35-107.06-39.41-14.7,21.76-52.35,39.41-89.41,39.41-20,0-65.88-11.76-65.88-45.88,0-31.18,31.77-42.35,64.71-42.35,24.7,0,60,10,81.76,19.41,20-34.7,38.24-81.17,49.41-111.17,22.35-58.23,38.82-112.35,68.82-164.12,12.94-22.35,26.47-33.53,57.06-33.53,50.59,0,94.7,38.23,111.17,82.35,48.82-12.35,98.24-49.41,106.47-62.35l15.29,15.88Zm-489.99,276.47c-31.18,0-41.77,8.23-41.77,19.41,0,14.7,34.12,22.94,42.94,22.94,28.82,0,56.47-11.76,67.65-26.47-17.65-7.06-48.23-15.88-68.82-15.88Zm351.76-204.12c-47.65,4.12-111.76,1.18-143.53-41.18-23.53,43.53-38.23,91.18-54.7,138.23-12.35,33.53-31.76,77.65-50.59,113.53,31.76,16.47,61.77,35.88,94.71,35.88,92.94,0,159.41-91.18,159.41-185.29,0-10.59-1.76-48.82-5.3-61.18Zm-94.7-85.29c-12.35,0-31.76,5.29-32.94,20.59-1.18,18.82,44.71,51.18,120.59,42.35-14.12-34.12-50-62.94-87.65-62.94Z"></path><path class="cls-16" d="m759.48,2374.87c9.41,19.41,25.29,21.18,48.23,21.18s48.23-8.82,59.41-17.06v25.88c-10,7.65-41.77,14.12-59.41,14.12-4.71,0-56.47,1.18-71.18-33.53-32.94,18.82-77.06,33.53-115.88,33.53v-22.94c41.77,0,80.59-17.06,110-34.12-1.18-5.29-1.18-6.47-1.18-11.76,0-57.06,45.29-120,104.71-120,22.35,0,38.82,17.06,38.82,41.76,0,41.76-62.94,72.35-113.53,102.94Zm74.71-121.76c-45.88,0-82.35,51.18-81.77,95.29v4.71c35.88-21.77,97.65-52.94,97.65-81.18,0-11.18-6.47-18.82-15.88-18.82Z"></path><path class="cls-16" d="m1087.71,2170.75c-25.88,40.59-58.23,74.71-87.65,106.47-12.94,39.41-24.12,80-35.88,115.88,1.76.59,11.76,1.76,14.12,1.76,25.29,0,48.82-5.88,65.29-15.88v25.88c-10.59,5.88-37.65,14.12-65.29,14.12,10.59,11.76,15.29,41.76,15.29,58.23,0,35.29-24.7,130.59-69.41,130.59-29.41,0-36.47-18.82-36.47-37.65,0-11.76,20-74.12,39.41-135.88,17.65-57.06,35.88-112.35,39.41-125.88-58.24,71.76-97.65,97.65-102.94,97.65v-25.88c4.12,0,35.88-23.53,118.23-121.76,13.53-42.94,32.35-102.94,42.94-138.23,9.41-29.41,28.82-78.82,65.88-78.82,25.88,0,35.29,16.47,35.29,38.23,0,26.47-21.77,64.71-38.24,91.18Zm-133.53,253.53c-8.24,29.41-43.53,131.17-43.53,143.53,0,9.41.59,17.06,14.12,17.06,20,0,45.88-71.76,45.88-104.7,0-20.59-5.3-45.88-16.47-55.88Zm137.65-360c-23.53,0-40,46.47-45.29,64.71-11.18,36.47-20,61.76-30.59,97.65,24.7-31.18,32.94-38.23,54.7-72.94,10-16.47,32.35-53.53,32.35-72.35,0-10-1.77-17.06-11.18-17.06Z"></path><path class="cls-16" d="m1328.89,2404.87c-1.76,1.18-27.65,14.12-50,14.12-35.29,0-37.65-28.24-37.65-32.35-10.59,13.53-33.53,32.35-71.17,32.35-33.53,0-46.47-20.59-47.06-47.06,0-8.82,2.94-26.47,5.29-37.06-34.12,44.71-85.88,71.17-88.23,71.17v-25.88c1.18,0,21.18-7.65,49.41-35.29,32.35-32.94,61.77-77.06,76.47-114.7h24.71c-21.77,58.23-44.71,103.53-44.71,141.76,0,10.59,5.3,24.12,24.12,24.12,48.23,0,71.76-44.71,79.41-63.53,12.94-34.12,23.53-71.18,34.12-102.35h24.12c-10.59,32.94-22.94,71.18-33.53,104.71-3.53,10-10,34.12-10,44.12-.59,10.59,4.12,17.06,15.29,17.06,17.06,0,42.94-11.76,49.41-17.06v25.88Z"></path><path class="cls-16" d="m1518.89,2404.87c-6.47,2.35-15.88,5.88-27.65,7.65-21.77,4.12-49.41,6.47-72.94,6.47-10.59,0-40.59,1.76-67.65-27.65-4.12,2.35-18.24,11.76-25.29,15.29v-25.88c4.12-1.76,25.88-16.47,28.24-18.23,48.82-36.47,112.35-92.35,145.29-131.76,1.76-2.35,10.59-4.71,10.59,5.29,0,27.65-5.88,68.82-11.18,97.65-4.71,25.88-15.29,44.71-25.29,57.06,4.12,0,5.88-.59,11.18-1.18,12.35-2.35,26.47-7.65,34.7-10.59v25.88Zm-147.06-27.65c11.18,14.7,29.41,18.82,44.71,18.82,33.53,0,52.35-42.94,57.06-62.35,5.29-21.76,5.88-30,7.65-51.76-38.23,36.47-68.82,62.94-109.41,95.29Z"></path><path class="cls-16" d="m1585.95,2374.87c9.41,19.41,25.88,21.18,48.23,21.18s48.23-8.82,59.41-17.06v25.88c-10,7.65-41.18,14.12-59.41,14.12-4.71,0-55.29.59-70.59-34.12-10.59,5.88-45.29,21.18-48.82,21.18v-25.88c4.12,0,31.18-12.35,42.94-18.82-.59-5.29-.59-5.88-.59-11.18,0-57.06,45.29-120,104.7-120,22.94,0,38.83,17.06,38.83,41.76,0,41.76-64.12,72.35-114.71,102.94Zm75.88-121.76c-45.88,0-82.35,51.18-81.76,95.29v4.71c35.88-21.77,97.65-52.94,97.65-81.18,0-11.18-5.88-18.82-15.88-18.82Z"></path><path class="cls-16" d="m1728.31,2380.16c-3.53,2.94-27.06,21.76-37.06,25.88v-25.88c5.29-3.53,20-15.29,22.94-17.65l14.12,17.65Z"></path><path class="cls-18" d="m476.53,1307.29c10.59,5.3,45.88,22.94,45.88,84.12,0,55.29-61.76,101.18-108.23,101.18-57.64,0-104.12-36.47-125.88-76.47l-24.71,76.47h-25.88l121.76-377.64h25.29l-11.18,34.7c10.59-10.59,55.29-34.7,94.7-34.7,51.18,0,90,29.41,90,77.06,0,42.35-24.71,93.53-81.76,115.29Zm-8.24-169.41c-37.06,0-70.59,20-88.23,37.65-24.71,24.71-51.18,112.35-81.77,208.82,31.18,31.18,97.65,30.59,131.76,22.35l2.35,21.18c-32.35,7.06-78.23,7.06-111.76-4.71,7.06,10,37.65,46.47,93.53,46.47,34.71,0,85.29-35.29,85.29-78.82,0-45.88-25.88-62.94-60.59-72.94-20-5.3-44.12-5.3-55.88-6.47l3.53-22.94c24.12,2.94,35.88,3.53,55.88,1.77,51.18-3.53,90.59-44.71,90.59-97.65,0-31.76-23.53-54.71-64.71-54.71Z"></path><path class="cls-16" d="m783.59,1478.47c-2.35,1.77-24.71,14.12-47.06,14.12-27.06,0-45.29-13.53-45.29-44.12,0-35.88,18.82-57.64,35.88-72.94-7.06-8.82-19.41-24.7-27.06-32.35-34.7,43.53-106.47,149.41-163.53,149.41v-22.94c47.06,0,131.18-124.7,162.94-165.88,15.3,17.64,33.53,39.41,48.82,57.64,3.53,4.12,7.06,8.82,7.06,14.71,0,8.82-41.18,28.24-41.18,72.35,0,14.12,10,21.18,21.77,21.18,17.64,0,40-12.35,47.65-18.23v27.06Z"></path><path class="cls-16" d="m1054.77,1359.05c-25.29,0-38.24-4.12-45.29-5.88,2.35,2.94,3.53,21.76,3.53,24.12,0,49.41-43.53,115.29-97.65,115.29-36.47,0-64.71-29.41-64.12-70-21.18,30.59-67.65,56.47-71.76,57.65v-25.29c7.06-3.53,37.06-24.12,54.7-47.06,11.18-14.12,19.41-27.65,35.88-50,12.94-17.65,45.29-54.12,78.82-54.12,52.35,0,41.17,32.35,105.88,32.35v22.94Zm-105.29-32.35c-31.18,0-75.29,49.41-75.29,97.06,0,24.7,15.88,45.88,41.18,45.88,42.35,0,74.7-57.06,74.7-92.35,0-26.47-7.06-50.59-40.59-50.59Z"></path><path class="cls-16" d="m1435.95,1359.05c-30,0-48.23-15.29-48.23-18.82-15.29,67.06-51.76,152.35-124.7,152.35-38.82,0-46.47-24.12-52.94-44.12-17.65,22.35-44.71,44.12-75.29,44.12s-45.29-15.29-45.29-52.35c0-33.53,15.88-74.12,24.71-97.06-13.53,8.24-37.06,15.88-62.35,15.88v-22.94c24.71,0,59.41-14.12,77.06-32.35h24.12c-4.71,14.7-13.53,38.82-18.82,53.53-14.7,37.06-21.76,65.29-21.76,82.94s1.77,29.41,22.35,29.41c19.41,0,36.47-11.76,51.17-30,31.77-38.82,52.35-105.29,64.12-135.88h24.71c-8.82,25.88-39.41,114.11-39.41,135.29s8.82,30.59,27.65,30.59c70.59,0,96.47-112.35,106.47-165.88h22.35c0,16.47,25.88,32.35,44.12,32.35v22.94Z"></path><path class="cls-16" d="m1722.42,1478.47c-4.71,2.35-24.7,14.12-45.88,14.12-25.29,0-46.47-14.7-46.47-42.35,0-34.12,27.65-73.53,27.65-97.06,0-18.82-12.94-26.47-30-26.47-40.59,0-69.41,37.06-79.41,65.88-11.18,32.94-24.7,67.06-36.47,100h-24.12c11.76-33.53,41.76-112.94,41.76-133.53,0-36.47-25.88-32.35-31.18-32.35-19.41,0-42.94,32.35-65.29,32.35v-22.94c17.65,0,40-32.35,65.29-32.35,35.29,0,47.06,15.88,53.53,37.65,15.29-19.41,44.71-37.65,75.88-37.65,25.29,0,52.94,12.94,52.94,48.82,0,27.65-27.65,65.29-27.65,97.65,0,11.18,5.88,19.41,23.53,19.41,21.76,0,41.17-14.12,45.88-17.06v25.88Z"></path><path class="cls-16" d="m1757.13,1453.76c-3.53,2.94-27.06,21.77-37.06,25.88v-25.88c5.29-3.53,20-15.29,22.94-17.65l14.12,17.65Z"></path><g class="cls-15"><path class="cls-19" d="m1722.42,1478.47c-4.71,2.35-24.7,14.12-45.88,14.12-25.29,0-46.47-14.7-46.47-42.35,0-34.12,27.65-73.53,27.65-97.06,0-18.82-12.94-26.47-30-26.47-40.59,0-69.41,37.06-79.41,65.88-11.18,32.94-24.7,67.06-36.47,100h-24.12c11.76-33.53,41.76-112.94,41.76-133.53,0-36.47-25.88-32.35-31.18-32.35-19.41,0-42.94,32.35-65.29,32.35v-22.94c17.65,0,40-32.35,65.29-32.35,35.29,0,47.06,15.88,53.53,37.65,15.29-19.41,44.71-37.65,75.88-37.65,25.29,0,52.94,12.94,52.94,48.82,0,27.65-27.65,65.29-27.65,97.65,0,11.18,5.88,19.41,23.53,19.41,21.76,0,41.17-14.12,45.88-17.06v25.88Z"></path></g><g class="cls-20"><path class="cls-19" d="m1435.95,1359.05c-30,0-48.23-15.29-48.23-18.82-15.29,67.06-51.76,152.35-124.7,152.35-38.82,0-46.47-24.12-52.94-44.12-17.65,22.35-44.71,44.12-75.29,44.12s-45.29-15.29-45.29-52.35c0-33.53,15.88-74.12,24.71-97.06-13.53,8.24-37.06,15.88-62.35,15.88v-22.94c24.71,0,59.41-14.12,77.06-32.35h24.12c-4.71,14.7-13.53,38.82-18.82,53.53-14.7,37.06-21.76,65.29-21.76,82.94s1.77,29.41,22.35,29.41c19.41,0,36.47-11.76,51.17-30,31.77-38.82,52.35-105.29,64.12-135.88h24.71c-8.82,25.88-39.41,114.11-39.41,135.29s8.82,30.59,27.65,30.59c70.59,0,96.47-112.35,106.47-165.88h22.35c0,16.47,25.88,32.35,44.12,32.35v22.94Z"></path></g><g class="cls-23"><path class="cls-19" d="m1087.71,2170.75c-25.88,40.59-58.23,74.71-87.65,106.47-12.94,39.41-24.12,80-35.88,115.88,1.76.59,11.76,1.76,14.12,1.76,25.29,0,48.82-5.88,65.29-15.88v25.88c-10.59,5.88-37.65,14.12-65.29,14.12,10.59,11.76,15.29,41.76,15.29,58.23,0,35.29-24.7,130.59-69.41,130.59-29.41,0-36.47-18.82-36.47-37.65,0-11.76,20-74.12,39.41-135.88,17.65-57.06,35.88-112.35,39.41-125.88-58.24,71.76-97.65,97.65-102.94,97.65v-25.88c4.12,0,35.88-23.53,118.23-121.76,13.53-42.94,32.35-102.94,42.94-138.23,9.41-29.41,28.82-78.82,65.88-78.82,25.88,0,35.29,16.47,35.29,38.23,0,26.47-21.77,64.71-38.24,91.18Zm-133.53,253.53c-8.24,29.41-43.53,131.17-43.53,143.53,0,9.41.59,17.06,14.12,17.06,20,0,45.88-71.76,45.88-104.7,0-20.59-5.3-45.88-16.47-55.88Zm137.65-360c-23.53,0-40,46.47-45.29,64.71-11.18,36.47-20,61.76-30.59,97.65,24.7-31.18,32.94-38.23,54.7-72.94,10-16.47,32.35-53.53,32.35-72.35,0-10-1.77-17.06-11.18-17.06Z"></path></g><g class="cls-22"><path class="cls-19" d="m1087.71,2170.75c-25.88,40.59-58.23,74.71-87.65,106.47-12.94,39.41-24.12,80-35.88,115.88,1.76.59,11.76,1.76,14.12,1.76,25.29,0,48.82-5.88,65.29-15.88v25.88c-10.59,5.88-37.65,14.12-65.29,14.12,10.59,11.76,15.29,41.76,15.29,58.23,0,35.29-24.7,130.59-69.41,130.59-29.41,0-36.47-18.82-36.47-37.65,0-11.76,20-74.12,39.41-135.88,17.65-57.06,35.88-112.35,39.41-125.88-58.24,71.76-97.65,97.65-102.94,97.65v-25.88c4.12,0,35.88-23.53,118.23-121.76,13.53-42.94,32.35-102.94,42.94-138.23,9.41-29.41,28.82-78.82,65.88-78.82,25.88,0,35.29,16.47,35.29,38.23,0,26.47-21.77,64.71-38.24,91.18Zm-133.53,253.53c-8.24,29.41-43.53,131.17-43.53,143.53,0,9.41.59,17.06,14.12,17.06,20,0,45.88-71.76,45.88-104.7,0-20.59-5.3-45.88-16.47-55.88Zm137.65-360c-23.53,0-40,46.47-45.29,64.71-11.18,36.47-20,61.76-30.59,97.65,24.7-31.18,32.94-38.23,54.7-72.94,10-16.47,32.35-53.53,32.35-72.35,0-10-1.77-17.06-11.18-17.06Z"></path></g><g class="cls-21"><path class="cls-19" d="m1517.13,3181.24c0,45.88-51.17,59.41-65.29,59.41-18.23,0-12.35,1.18-17.65-1.76,15.29,40.59,46.47,68.23,71.17,68.23,22.35,0,48.82-12.35,54.12-17.06v25.88c-2.35,1.76-27.06,14.12-54.12,14.12-51.76,0-87.65-58.82-103.53-97.65-14.7,24.12-34.7,67.06-45.88,97.65h-24.12c8.82-30,27.06-80.59,36.47-108.82-35.29,43.53-100,96.47-107.06,96.47v-25.88c7.06,0,71.76-60,121.18-121.18,10-30.59,24.71-83.53,34.12-114.12,10-31.18,25.88-104.12,70.59-104.12,25.29,0,34.12,14.12,34.12,40.59,0,21.76-10.59,48.23-25.88,74.71-24.71,44.12-61.18,85.88-88.82,115.29,1.18-.59-3.53,10-2.35,8.82m82.94-216.47c-28.24,0-42.94,74.12-47.65,87.65-7.06,20.59-18.23,58.23-23.53,74.71,14.71-14.71,38.83-45.88,57.06-77.65,14.71-24.12,25.29-49.41,25.29-67.06,0-5.88,0-17.65-11.18-17.65Zm-1.18,188.82c-21.18,0-48.82,24.12-61.76,44.12,8.23,8.24,11.18,9.41,27.65,9.41,9.41,0,42.35-10.59,42.35-36.47,0-4.12.59-17.06-8.24-17.06Z"></path></g></svg> 