<?xml version="1.0" encoding="UTF-8"?> <svg xmlns="http://www.w3.org/2000/svg" xmlns:xlink="http://www.w3.org/1999/xlink" id="Layer_1" viewBox="0 0 1920 3930"><defs><style>.cls-1,.cls-2,.cls-3,.cls-4,.cls-5,.cls-6,.cls-7,.cls-8,.cls-9,.cls-10,.cls-11,.cls-12,.cls-13,.cls-14,.cls-15{fill:none;}.cls-2{stroke-dasharray:0 0 1.7 16.99;}.cls-2,.cls-3,.cls-4,.cls-5,.cls-6,.cls-7,.cls-8,.cls-9,.cls-10,.cls-11,.cls-12,.cls-13,.cls-14{stroke:#a797c9;stroke-linecap:round;stroke-width:7px;}.cls-2,.cls-3,.cls-4,.cls-5,.cls-6,.cls-7,.cls-8,.cls-9,.cls-10,.cls-11,.cls-12,.cls-13,.cls-14,.cls-15{stroke-miterlimit:10;}.cls-3{stroke-dasharray:0 0 1.56 15.63;}.cls-4{stroke-dasharray:0 0 1.92 19.23;}.cls-16{clip-path:url(#clippath);}.cls-5{stroke-dasharray:0 0 1.7 17.01;}.cls-6{stroke-dasharray:0 0 1.73 17.34;}.cls-7{stroke-dasharray:0 0 1.76 17.59;}.cls-17{fill:#fff;}.cls-18{fill:#937eb9;}.cls-19{fill:#937fbb;}.cls-20{fill:#161b31;}.cls-8{stroke-dasharray:0 0 1.81 18.06;}.cls-9{stroke-dasharray:0 0 1.7 17.03;}.cls-21{clip-path:url(#clippath-1);}.cls-22{clip-path:url(#clippath-4);}.cls-23{clip-path:url(#clippath-3);}.cls-24{clip-path:url(#clippath-2);}.cls-25{clip-path:url(#clippath-5);}.cls-11{stroke-dasharray:0 0 1.71 17.14;}.cls-12{stroke-dasharray:0 0 1.72 17.23;}.cls-13{stroke-dasharray:0 0 1.74 17.45;}.cls-14{stroke-dasharray:0 0 1.71 17.1;}.cls-15{stroke:#566789;stroke-width:3.5px;}</style><clipPath id="clippath"><rect class="cls-1" x="233.11" y="1324.96" width="156.69" height="156.69" rx="78.35" ry="78.35"></rect></clipPath><clipPath id="clippath-1"><rect class="cls-1" x="1169.76" y="2015.54" width="156.69" height="156.69" rx="78.35" ry="78.35"></rect></clipPath><clipPath id="clippath-2"><rect class="cls-1" x="1474.12" y="2546.28" width="194.44" height="194.44" rx="97.22" ry="97.22" transform="translate(205.09 -111.6) rotate(4.35)"></rect></clipPath><clipPath id="clippath-3"><rect class="cls-1" x="653.55" y="2981.24" width="194.44" height="194.44" rx="97.22" ry="97.22" transform="translate(235.73 -48.09) rotate(4.35)"></rect></clipPath><clipPath id="clippath-4"><rect class="cls-1" x="806.2" y="3358.38" width="91.78" height="91.78" rx="45.89" ry="45.89"></rect></clipPath><clipPath id="clippath-5"><rect class="cls-1" x="581.91" y="3358.38" width="91.78" height="91.78" rx="45.89" ry="45.89"></rect></clipPath></defs><rect class="cls-20" x="0" width="1920" height="3930"></rect><line class="cls-15" x1="0" y1="200.16" x2="1920" y2="200.16"></line><line class="cls-15" x1="0" y1="387.2" x2="1920" y2="387.2"></line><line class="cls-15" x1="1920" y1="577.35" x2="0" y2="577.35"></line><line class="cls-15" x1="0" y1="796.41" x2="1920" y2="796.41"></line><line class="cls-15" x1="0" y1="1145.52" x2="1920" y2="1145.52"></line><line class="cls-15" x1="0" y1="1332.56" x2="1920" y2="1332.56"></line><line class="cls-15" x1="1920" y1="1522.71" x2="0" y2="1522.71"></line><line class="cls-15" x1="0" y1="1741.77" x2="1920" y2="1741.77"></line><line class="cls-15" x1="0" y1="2092.34" x2="1920" y2="2092.34"></line><line class="cls-15" x1="0" y1="2279.37" x2="1920" y2="2279.37"></line><line class="cls-15" x1="1920" y1="2469.52" x2="0" y2="2469.52"></line><line class="cls-15" x1="0" y1="2688.59" x2="1920" y2="2688.59"></line><line class="cls-15" x1="0" y1="3039.15" x2="1920" y2="3039.15"></line><line class="cls-15" x1="0" y1="3226.19" x2="1920" y2="3226.19"></line><line class="cls-15" x1="1920" y1="3416.34" x2="0" y2="3416.34"></line><line class="cls-15" x1="0" y1="3635.4" x2="1920" y2="3635.4"></line><line class="cls-10" x1="1283.62" y1="1315.24" x2="1283.62" y2="1314.37"></line><line class="cls-9" x1="1283.62" y1="1297.34" x2="1283.62" y2="1099.77"></line><line class="cls-10" x1="1283.62" y1="1091.26" x2="1283.62" y2="1090.39"></line><line class="cls-10" x1="311.46" y1="1874.1" x2="311.46" y2="1873.23"></line><line class="cls-5" x1="311.46" y1="1856.22" x2="311.46" y2="1509.29"></line><line class="cls-10" x1="311.46" y1="1500.78" x2="311.46" y2="1499.91"></line><line class="cls-10" x1="1248.11" y1="2019.53" x2="1248.11" y2="2018.66"></line><line class="cls-3" x1="1248.11" y1="2003.03" x2="1248.11" y2="1959.25"></line><line class="cls-10" x1="1248.11" y1="1951.43" x2="1248.11" y2="1950.56"></line><line class="cls-10" x1="1571.35" y1="2832.73" x2="1571.35" y2="2831.86"></line><line class="cls-14" x1="1571.35" y1="2814.75" x2="1571.35" y2="2766.86"></line><line class="cls-10" x1="1571.35" y1="2758.31" x2="1571.35" y2="2757.44"></line><line class="cls-10" x1="1405.91" y1="3754.31" x2="1405.91" y2="3753.44"></line><line class="cls-12" x1="1405.91" y1="3736.21" x2="1405.91" y2="3441.49"></line><line class="cls-10" x1="1405.91" y1="3432.88" x2="1405.91" y2="3432"></line><line class="cls-10" x1="750.77" y1="2963.25" x2="750.77" y2="2962.38"></line><line class="cls-4" x1="750.77" y1="2943.15" x2="750.77" y2="2910.45"></line><line class="cls-10" x1="750.77" y1="2900.83" x2="750.77" y2="2899.96"></line><line class="cls-10" x1="852.09" y1="3470.16" x2="852.09" y2="3471.03"></line><line class="cls-8" x1="852.09" y1="3489.09" x2="852.09" y2="3678.69"></line><polyline class="cls-10" points="852.09 3687.72 852.09 3688.59 851.22 3688.59"></polyline><polyline class="cls-2" points="834.23 3688.59 739.94 3688.59 637.17 3688.59"></polyline><polyline class="cls-10" points="628.67 3688.59 627.8 3688.59 627.8 3687.72"></polyline><line class="cls-8" x1="627.8" y1="3669.66" x2="627.8" y2="3480.06"></line><line class="cls-10" x1="627.8" y1="3471.03" x2="627.8" y2="3470.16"></line><line class="cls-10" x1="854.64" y1="1308.18" x2="854.64" y2="1307.31"></line><line class="cls-11" x1="854.64" y1="1290.17" x2="854.64" y2="997.09"></line><line class="cls-10" x1="854.64" y1="988.53" x2="854.64" y2="987.65"></line><line class="cls-10" x1="1198.26" y1="906.92" x2="1198.26" y2="906.05"></line><line class="cls-7" x1="1198.26" y1="888.46" x2="1198.26" y2="606.99"></line><line class="cls-10" x1="1198.26" y1="598.19" x2="1198.26" y2="597.32"></line><line class="cls-10" x1="362.22" y1="864.37" x2="362.22" y2="863.5"></line><line class="cls-6" x1="362.22" y1="846.16" x2="362.22" y2="606.89"></line><line class="cls-10" x1="362.22" y1="598.22" x2="362.22" y2="597.35"></line><path class="cls-17" d="m393.1,2040.99v-19.95h2.94v19.95c0,9.41,4.07,10.63,8.86,10.63s8.78-1.01,8.78-10.63v-19.95h2.94v19.62c0,11.64-5.33,13.69-11.76,13.69s-11.76-2.06-11.76-13.36Z"></path><path class="cls-17" d="m424.39,2032.8h2.39l.34,3.87h.08c1.13-2.48,4.03-4.41,7.86-4.41,6.3,0,9.66,3.99,9.66,11.01s-4.29,11.09-9.87,11.09c-3.78,0-6.38-1.6-7.43-3.7h-.08v11.55h-2.94v-29.41Zm17.18,10.63c0-7.18-3.4-8.61-6.93-8.61-4.24,0-7.56,2.73-7.56,8.44,0,6.01,3.45,8.57,7.44,8.57,3.02,0,7.06-1.47,7.06-8.4Z"></path><path class="cls-17" d="m450.6,2032.8h2.6l.29,3.91c1.01-2.14,3.07-4.45,6.76-4.45,1.26,0,2.18.21,3.02.55v3.15c-1.13-.5-2.1-.76-3.4-.76-3.74,0-6.34,2.81-6.34,5.75v12.85h-2.94v-21Z"></path><path class="cls-17" d="m467.9,2021.04h2.98v6.51h-2.98v-6.51Zm0,11.76h2.94v21h-2.94v-21Z"></path><path class="cls-17" d="m477.6,2055.61v-.13h3.11v.13c0,2.9,1.93,4.33,6.13,4.33,4.79,0,7.01-2.94,7.01-7.86v-2.1h-.08c-1.09,2.18-3.65,4.07-7.48,4.07-6.3,0-9.75-3.99-9.75-10.71,0-7.1,4.37-11.09,9.96-11.09,3.78,0,6.55,1.81,7.56,4.12h.13l.29-3.57h2.31v19.16c0,5.88-2.81,10.71-10.33,10.71-6.3,0-8.86-2.98-8.86-7.06Zm16.59-12.77c0-5.5-3.36-8.07-7.35-8.07-3.03,0-7.14,1.47-7.14,8.4s3.57,8.32,7.1,8.32c4.24,0,7.39-2.73,7.39-8.65Z"></path><path class="cls-17" d="m504.14,2021.04h2.94v15.16c1.05-2.1,3.28-3.95,7.31-3.95,4.75,0,7.77,2.52,7.77,7.94v13.61h-2.94v-13.27c0-4.33-2.14-5.71-5.5-5.71-3.82,0-6.64,2.69-6.64,5.63v13.36h-2.94v-32.77Z"></path><path class="cls-17" d="m540.48,2051.11v2.6c-.76.21-2.14.59-4.03.59-3.82,0-6.34-1.6-6.34-6.89v-12.18h-4.16v-2.44h4.16v-6.05l2.94-1.43v7.48h5.92v2.44h-5.92v11.8c0,2.82.76,4.58,3.4,4.58,1.6,0,3.23-.29,4.03-.5Z"></path><rect class="cls-19" x="233.11" y="1324.96" width="156.69" height="156.69" rx="78.35" ry="78.35"></rect><rect class="cls-19" x="1169.76" y="2015.54" width="156.69" height="156.69" rx="78.35" ry="78.35"></rect><rect class="cls-19" x="1474.12" y="2546.28" width="194.44" height="194.44" rx="97.22" ry="97.22" transform="translate(205.09 -111.6) rotate(4.35)"></rect><rect class="cls-19" x="653.55" y="2981.24" width="194.44" height="194.44" rx="97.22" ry="97.22" transform="translate(235.73 -48.09) rotate(4.35)"></rect><rect class="cls-18" x="438.87" y="2091.14" width="53.29" height="596.61"></rect><path class="cls-17" d="m164.32,882.78h2.9l6.89,29.36h.08l7.81-29.36h3.19l8.19,29.36h.08l6.51-29.36h2.9l-7.6,32.77h-3.53l-8.11-29.07h-.08l-7.77,29.07h-3.53l-7.94-32.77Z"></path><path class="cls-17" d="m207.12,882.78h2.98v6.51h-2.98v-6.51Zm0,11.76h2.94v21h-2.94v-21Z"></path><path class="cls-17" d="m215.77,905.08c0-7.1,4.28-11.09,10.04-11.09,3.7,0,6.22,1.6,7.31,3.74h.04v-14.95h2.94v32.77h-1.97l-.67-3.61h-.08c-1.18,2.31-3.95,4.16-7.77,4.16-6.3,0-9.83-3.99-9.83-11.01Zm17.64-.5c0-5.5-3.36-8.07-7.35-8.07-3.11,0-7.14,1.47-7.14,8.4s3.61,8.61,7.14,8.61c4.24,0,7.35-2.73,7.35-8.95Z"></path><path class="cls-17" d="m260.71,906.05h-15.96c.17,4.79,2.48,7.48,6.93,7.48,3.82,0,5.67-1.43,5.96-4.83h2.98c-.29,4.24-3.28,7.39-9.03,7.39-7.06,0-9.83-4.66-9.83-10.88s3.23-11.22,10-11.22,8.95,3.99,8.95,10.21v1.85Zm-3.11-2.98c0-4.45-1.72-6.55-5.92-6.55s-6.55,2.65-6.89,6.97h12.81v-.42Z"></path><path class="cls-17" d="m276.25,894.54h2.39l.34,3.87h.08c1.13-2.48,4.03-4.41,7.86-4.41,6.3,0,9.66,3.99,9.66,11.01s-4.28,11.09-9.87,11.09c-3.78,0-6.39-1.6-7.44-3.7h-.08v11.55h-2.94v-29.41Zm17.18,10.63c0-7.18-3.4-8.61-6.93-8.61-4.24,0-7.56,2.73-7.56,8.44,0,6.01,3.44,8.57,7.44,8.57,3.02,0,7.06-1.47,7.06-8.4Z"></path><path class="cls-17" d="m302.46,894.54h2.6l.29,3.91c1.01-2.14,3.07-4.45,6.76-4.45,1.26,0,2.18.21,3.02.55v3.15c-1.13-.5-2.1-.76-3.4-.76-3.74,0-6.34,2.81-6.34,5.75v12.85h-2.94v-21Z"></path><path class="cls-17" d="m317.45,905.04c0-6.22,3.32-11.05,10.38-11.05,6.59,0,10.25,4.83,10.25,11.05s-3.7,11.05-10.29,11.05c-7.27,0-10.33-4.83-10.33-11.05Zm17.56,0c0-5.33-2.9-8.49-7.22-8.49-4.75,0-7.27,3.15-7.27,8.49s2.56,8.49,7.27,8.49c4.33,0,7.22-3.15,7.22-8.49Z"></path><path class="cls-17" d="m343.95,894.54h2.39l.34,3.87h.08c1.13-2.48,4.03-4.41,7.86-4.41,6.3,0,9.66,3.99,9.66,11.01s-4.29,11.09-9.87,11.09c-3.78,0-6.38-1.6-7.43-3.7h-.08v11.55h-2.94v-29.41Zm17.18,10.63c0-7.18-3.4-8.61-6.93-8.61-4.24,0-7.56,2.73-7.56,8.44,0,6.01,3.45,8.57,7.44,8.57,3.02,0,7.06-1.47,7.06-8.4Z"></path><path class="cls-17" d="m368.48,905.04c0-6.22,3.32-11.05,10.38-11.05,6.59,0,10.25,4.83,10.25,11.05s-3.7,11.05-10.29,11.05c-7.27,0-10.33-4.83-10.33-11.05Zm17.56,0c0-5.33-2.9-8.49-7.22-8.49-4.75,0-7.27,3.15-7.27,8.49s2.56,8.49,7.27,8.49c4.33,0,7.22-3.15,7.22-8.49Z"></path><path class="cls-17" d="m394.98,894.54h2.6l.29,3.91c1.01-2.14,3.07-4.45,6.76-4.45,1.26,0,2.18.21,3.02.55v3.15c-1.13-.5-2.1-.76-3.4-.76-3.74,0-6.34,2.81-6.34,5.75v12.85h-2.94v-21Z"></path><path class="cls-17" d="m423.25,912.85v2.6c-.76.21-2.14.59-4.03.59-3.82,0-6.34-1.6-6.34-6.89v-12.18h-4.16v-2.44h4.16v-6.05l2.94-1.43v7.48h5.92v2.44h-5.92v11.8c0,2.82.76,4.58,3.4,4.58,1.6,0,3.23-.29,4.03-.5Z"></path><path class="cls-17" d="m428.08,882.78h2.98v6.51h-2.98v-6.51Zm0,11.76h2.94v21h-2.94v-21Z"></path><path class="cls-17" d="m436.73,905.04c0-6.22,3.32-11.05,10.38-11.05,6.59,0,10.25,4.83,10.25,11.05s-3.7,11.05-10.29,11.05c-7.27,0-10.33-4.83-10.33-11.05Zm17.56,0c0-5.33-2.9-8.49-7.22-8.49-4.75,0-7.27,3.15-7.27,8.49s2.56,8.49,7.27,8.49c4.33,0,7.22-3.15,7.22-8.49Z"></path><path class="cls-17" d="m463.23,894.54h2.6l.29,3.49c1.01-2.14,3.28-4.03,7.35-4.03,4.75,0,7.77,2.52,7.77,7.94v13.61h-2.94v-13.27c0-4.33-2.14-5.71-5.5-5.71-3.82,0-6.64,2.69-6.64,5.63v13.36h-2.94v-21Z"></path><path class="cls-17" d="m486.71,909.12v-1.18h2.94v1.13c0,2.86,2.14,4.49,5.96,4.49s5.8-1.01,5.8-3.78c0-2.06-1.01-2.81-3.86-3.32l-4.62-.84c-3.02-.55-5.54-2.02-5.54-5.5,0-3.15,2.35-6.13,8.4-6.13s8.4,3.02,8.4,7.23v.88h-2.98v-.76c0-3.45-2.14-4.92-5.42-4.92-3.95,0-5.33,1.34-5.33,3.36s1.01,2.86,3.91,3.4l4.03.76c4.12.76,6.09,1.93,6.09,5.59,0,4.58-4.12,6.55-8.78,6.55-7.31,0-8.99-3.28-8.99-6.97Z"></path><path class="cls-17" d="m520.02,882.78h2.98v6.51h-2.98v-6.51Zm0,11.76h2.94v21h-2.94v-21Z"></path><path class="cls-17" d="m530.35,894.54h2.6l.29,3.49c1.01-2.14,3.28-4.03,7.35-4.03,4.75,0,7.77,2.52,7.77,7.94v13.61h-2.94v-13.27c0-4.33-2.14-5.71-5.5-5.71-3.82,0-6.64,2.69-6.64,5.63v13.36h-2.94v-21Z"></path><path class="cls-17" d="m217.93,942.08h-3.36v-5.08c0-3.95.88-5.29,3.4-5.96l.67,1.85c-1.76.67-2.06,1.09-2.06,3.78v.34h1.34v5.08Zm5.92,0h-3.36v-5.08c0-3.95.88-5.29,3.4-5.96l.67,1.85c-1.76.67-2.06,1.09-2.06,3.78v.34h1.34v5.08Z"></path><path class="cls-17" d="m231.29,931.62h3.23l11.51,20.92h.08l11.51-20.92h3.24v32.77h-2.94v-27.85h-.04l-10.75,19.91h-2.06l-10.8-19.91h-.04v27.85h-2.94v-32.77Z"></path><path class="cls-17" d="m267.58,940.82c1.76-.67,2.06-1.09,2.06-3.78v-.34h-1.34v-5.08h3.36v5.08c0,3.95-.88,5.29-3.4,5.96l-.67-1.85Zm5.92,0c1.76-.67,2.06-1.09,2.06-3.78v-.34h-1.34v-5.08h3.36v5.08c0,3.95-.88,5.29-3.4,5.96l-.67-1.85Z"></path><path class="cls-17" d="m280.51,958.17h3.36v6.22c0,3.95-.88,5.29-3.4,5.96l-.67-1.85c1.76-.67,2.06-1.09,2.06-3.78v-.34h-1.34v-6.22Z"></path><path class="cls-17" d="m301.51,942.08h-3.36v-5.08c0-3.95.88-5.29,3.4-5.96l.67,1.85c-1.76.67-2.06,1.09-2.06,3.78v.34h1.34v5.08Zm5.92,0h-3.36v-5.08c0-3.95.88-5.29,3.4-5.96l.67,1.85c-1.76.67-2.06,1.09-2.06,3.78v.34h1.34v5.08Z"></path><path class="cls-17" d="m310.46,931.62h3.11l10.29,29.49h.08l10.17-29.49h3.11l-11.59,32.77h-3.57l-11.59-32.77Z"></path><path class="cls-17" d="m339.52,940.82c1.76-.67,2.06-1.09,2.06-3.78v-.34h-1.34v-5.08h3.36v5.08c0,3.95-.88,5.29-3.4,5.96l-.67-1.85Zm5.92,0c1.76-.67,2.06-1.09,2.06-3.78v-.34h-1.34v-5.08h3.36v5.08c0,3.95-.88,5.29-3.4,5.96l-.67-1.85Z"></path><path class="cls-17" d="m363.8,958.59c0-3.95,2.23-6.09,7.86-6.09h6.34v-1.72c0-2.98-1.26-5.42-5.46-5.42-3.95,0-5.33,1.51-5.33,4.12v.88h-2.98v-.84c0-5,4.2-6.68,8.32-6.68,5.8,0,8.4,2.86,8.4,8.44v13.11h-2.06l-.55-2.98h-.08c-1.26,1.89-3.7,3.53-7.35,3.53-4.92,0-7.1-2.31-7.1-6.34Zm14.2-1.85v-1.76h-7.01c-2.65,0-4.03.92-4.03,3.61,0,2.35,1.26,3.86,4.5,3.86,4.16,0,6.55-2.14,6.55-5.71Z"></path><path class="cls-17" d="m388.28,943.38h2.6l.29,3.49c1.01-2.14,3.28-4.03,7.35-4.03,4.75,0,7.77,2.52,7.77,7.94v13.61h-2.94v-13.27c0-4.33-2.14-5.71-5.5-5.71-3.82,0-6.64,2.69-6.64,5.63v13.36h-2.94v-21Z"></path><path class="cls-17" d="m411.97,953.93c0-7.1,4.28-11.09,10.04-11.09,3.7,0,6.22,1.6,7.31,3.74h.04v-14.95h2.94v32.77h-1.97l-.67-3.61h-.08c-1.18,2.31-3.95,4.16-7.77,4.16-6.3,0-9.83-3.99-9.83-11.01Zm17.64-.5c0-5.5-3.36-8.07-7.35-8.07-3.11,0-7.14,1.47-7.14,8.4s3.61,8.61,7.14,8.61c4.24,0,7.35-2.73,7.35-8.95Z"></path><path class="cls-17" d="m450.99,942.08h-3.36v-5.08c0-3.95.88-5.29,3.4-5.96l.67,1.85c-1.76.67-2.06,1.09-2.06,3.78v.34h1.34v5.08Zm5.92,0h-3.36v-5.08c0-3.95.88-5.29,3.4-5.96l.67,1.85c-1.76.67-2.06,1.09-2.06,3.78v.34h1.34v5.08Z"></path><path class="cls-17" d="m459.98,931.62h2.9l6.89,29.36h.08l7.81-29.36h3.19l8.19,29.36h.08l6.51-29.36h2.9l-7.6,32.77h-3.53l-8.11-29.07h-.08l-7.77,29.07h-3.53l-7.94-32.77Z"></path><path class="cls-17" d="m500.89,940.82c1.76-.67,2.06-1.09,2.06-3.78v-.34h-1.34v-5.08h3.36v5.08c0,3.95-.88,5.29-3.4,5.96l-.67-1.85Zm5.92,0c1.76-.67,2.06-1.09,2.06-3.78v-.34h-1.34v-5.08h3.36v5.08c0,3.95-.88,5.29-3.4,5.96l-.67-1.85Z"></path><path class="cls-17" d="m162.85,1892.4h18.86v2.6h-15.92v12.94h12.31v2.6h-12.31v14.62h-2.94v-32.77Z"></path><path class="cls-17" d="m183.38,1917.77v-13.61h2.94v13.27c0,4.33,2.14,5.71,5.42,5.71,3.74,0,6.55-2.69,6.55-5.63v-13.36h2.94v21h-2.6l-.25-3.36h-.08c-.97,2.02-3.23,3.91-7.23,3.91-4.66,0-7.69-2.52-7.69-7.94Z"></path><path class="cls-17" d="m208.58,1892.4h2.94v32.77h-2.94v-32.77Z"></path><path class="cls-17" d="m218.88,1892.4h2.94v32.77h-2.94v-32.77Z"></path><path class="cls-17" d="m256.09,1915.67h-15.96c.17,4.79,2.48,7.48,6.93,7.48,3.82,0,5.67-1.43,5.96-4.83h2.98c-.29,4.24-3.28,7.39-9.03,7.39-7.06,0-9.83-4.66-9.83-10.88s3.23-11.22,10-11.22,8.95,3.99,8.95,10.21v1.85Zm-3.11-2.98c0-4.45-1.72-6.55-5.92-6.55s-6.55,2.65-6.89,6.97h12.81v-.42Z"></path><path class="cls-17" d="m261.97,1904.16h2.6l.29,3.49c1.01-2.14,3.28-4.03,7.35-4.03,4.75,0,7.77,2.52,7.77,7.94v13.61h-2.94v-13.27c0-4.33-2.14-5.71-5.5-5.71-3.82,0-6.64,2.69-6.64,5.63v13.36h-2.94v-21Z"></path><path class="cls-17" d="m298.3,1922.47v2.6c-.76.21-2.14.59-4.03.59-3.82,0-6.34-1.6-6.34-6.89v-12.18h-4.16v-2.44h4.16v-6.05l2.94-1.43v7.48h5.92v2.44h-5.92v11.8c0,2.82.76,4.58,3.4,4.58,1.6,0,3.23-.29,4.03-.5Z"></path><path class="cls-17" d="m303.13,1904.16h2.6l.29,3.91c1.01-2.14,3.07-4.45,6.76-4.45,1.26,0,2.18.21,3.02.55v3.15c-1.13-.5-2.1-.76-3.4-.76-3.74,0-6.34,2.81-6.34,5.75v12.85h-2.94v-21Z"></path><path class="cls-17" d="m320.64,1904.16l6.89,17.98h.08l7.14-17.98h3.07v.04l-8.86,20.84-3.11,8.53h-2.98v-.04l3.19-8.36-8.78-20.96v-.04h3.36Z"></path><path class="cls-17" d="m349.79,1918.74v-1.18h2.94v1.13c0,2.86,2.14,4.49,5.96,4.49s5.8-1.01,5.8-3.78c0-2.06-1.01-2.81-3.86-3.32l-4.62-.84c-3.02-.55-5.54-2.02-5.54-5.5,0-3.15,2.35-6.13,8.4-6.13s8.4,3.02,8.4,7.23v.88h-2.98v-.76c0-3.45-2.14-4.92-5.42-4.92-3.95,0-5.33,1.34-5.33,3.36s1.01,2.86,3.91,3.4l4.03.76c4.12.76,6.09,1.93,6.09,5.59,0,4.58-4.12,6.55-8.78,6.55-7.31,0-8.99-3.28-8.99-6.97Z"></path><path class="cls-17" d="m384.4,1922.47v2.6c-.76.21-2.14.59-4.03.59-3.82,0-6.34-1.6-6.34-6.89v-12.18h-4.16v-2.44h4.16v-6.05l2.94-1.43v7.48h5.92v2.44h-5.92v11.8c0,2.82.76,4.58,3.4,4.58,1.6,0,3.23-.29,4.03-.5Z"></path><path class="cls-17" d="m389.23,1904.16h2.6l.29,3.91c1.01-2.14,3.07-4.45,6.76-4.45,1.26,0,2.18.21,3.02.55v3.15c-1.13-.5-2.1-.76-3.4-.76-3.74,0-6.34,2.81-6.34,5.75v12.85h-2.94v-21Z"></path><path class="cls-17" d="m404.22,1914.66c0-6.22,3.32-11.05,10.38-11.05,6.59,0,10.25,4.83,10.25,11.05s-3.7,11.05-10.29,11.05c-7.27,0-10.33-4.83-10.33-11.05Zm17.56,0c0-5.33-2.9-8.49-7.22-8.49-4.75,0-7.27,3.15-7.27,8.49s2.56,8.49,7.27,8.49c4.33,0,7.22-3.15,7.22-8.49Z"></path><path class="cls-17" d="m430.09,1892.4h2.94v23.23l12.14-11.47h3.65v.04l-8.4,7.86,8.78,13.06v.04h-3.36l-7.39-11.22-5.42,5.04v6.17h-2.94v-32.77Z"></path><path class="cls-17" d="m470.46,1915.67h-15.96c.17,4.79,2.48,7.48,6.93,7.48,3.82,0,5.67-1.43,5.97-4.83h2.98c-.29,4.24-3.28,7.39-9.03,7.39-7.06,0-9.83-4.66-9.83-10.88s3.23-11.22,10-11.22,8.95,3.99,8.95,10.21v1.85Zm-3.11-2.98c0-4.45-1.72-6.55-5.92-6.55s-6.55,2.65-6.89,6.97h12.81v-.42Z"></path><path class="cls-17" d="m485.99,1892.4h2.98v6.51h-2.98v-6.51Zm0,11.76h2.94v21h-2.94v-21Z"></path><path class="cls-17" d="m496.33,1904.16h2.6l.29,3.49c1.01-2.14,3.28-4.03,7.35-4.03,4.75,0,7.77,2.52,7.77,7.94v13.61h-2.94v-13.27c0-4.33-2.14-5.71-5.5-5.71-3.82,0-6.64,2.69-6.64,5.63v13.36h-2.94v-21Z"></path><path class="cls-17" d="m533.03,1902.86h-3.36v-5.08c0-3.95.88-5.29,3.4-5.96l.67,1.85c-1.76.67-2.06,1.09-2.06,3.78v.34h1.34v5.08Zm5.92,0h-3.36v-5.08c0-3.95.88-5.29,3.4-5.96l.67,1.85c-1.76.67-2.06,1.09-2.06,3.78v.34h1.34v5.08Z"></path><path class="cls-17" d="m544.5,1916.72v-2.02h3.02v2.18c0,3.74,2.6,6.05,7.94,6.05s8.44-1.97,8.44-6.22c0-3.32-1.39-5.17-4.92-6.09l-6.64-1.72c-4.33-1.13-7.18-2.98-7.18-8.15s3.78-8.91,10.92-8.91,10.59,3.44,10.59,9.07v2.94h-3.02v-2.81c0-4.62-3.07-6.51-7.56-6.51-5.12,0-7.81,2.14-7.81,6.01,0,3.61,1.76,4.71,5.54,5.71l5.75,1.55c5.12,1.39,7.43,3.74,7.43,8.65,0,6.09-4.33,9.24-11.47,9.24-9.12,0-11.05-4.71-11.05-8.99Z"></path><path class="cls-17" d="m570.83,1901.6c1.76-.67,2.06-1.09,2.06-3.78v-.34h-1.34v-5.08h3.36v5.08c0,3.95-.88,5.29-3.4,5.96l-.67-1.85Zm5.92,0c1.76-.67,2.06-1.09,2.06-3.78v-.34h-1.34v-5.08h3.36v5.08c0,3.95-.88,5.29-3.4,5.96l-.67-1.85Z"></path><path class="cls-17" d="m421.55,3777.53h2.94v15.12h17.56v-15.12h2.94v32.77h-2.94v-15h-17.56v15h-2.94v-32.77Z"></path><path class="cls-17" d="m451.91,3799.8c0-6.22,3.32-11.05,10.38-11.05,6.6,0,10.25,4.83,10.25,11.05s-3.7,11.05-10.29,11.05c-7.27,0-10.33-4.83-10.33-11.05Zm17.56,0c0-5.33-2.9-8.49-7.23-8.49-4.75,0-7.27,3.15-7.27,8.49s2.56,8.49,7.27,8.49c4.33,0,7.23-3.15,7.23-8.49Z"></path><path class="cls-17" d="m478.41,3789.29h2.6l.29,3.91c1.01-2.14,3.07-4.45,6.76-4.45,1.26,0,2.18.21,3.02.55v3.15c-1.13-.5-2.1-.76-3.4-.76-3.74,0-6.34,2.81-6.34,5.75v12.85h-2.94v-21Z"></path><path class="cls-17" d="m495.72,3777.53h2.98v6.51h-2.98v-6.51Zm0,11.76h2.94v21h-2.94v-21Z"></path><path class="cls-17" d="m503.74,3807.74l14.7-15.88h-14.58v-2.56h18.23v2.56l-14.7,15.84h14.66v2.6h-18.32v-2.56Z"></path><path class="cls-17" d="m525.03,3799.8c0-6.22,3.32-11.05,10.38-11.05,6.6,0,10.25,4.83,10.25,11.05s-3.7,11.05-10.29,11.05c-7.27,0-10.33-4.83-10.33-11.05Zm17.56,0c0-5.33-2.9-8.49-7.23-8.49-4.75,0-7.27,3.15-7.27,8.49s2.56,8.49,7.27,8.49c4.33,0,7.23-3.15,7.23-8.49Z"></path><path class="cls-17" d="m551.54,3789.29h2.6l.29,3.49c1.01-2.14,3.28-4.03,7.35-4.03,4.75,0,7.77,2.52,7.77,7.94v13.61h-2.94v-13.27c0-4.33-2.14-5.71-5.5-5.71-3.82,0-6.64,2.69-6.64,5.63v13.36h-2.94v-21Z"></path><path class="cls-17" d="m587.87,3807.61v2.6c-.76.21-2.14.59-4.03.59-3.82,0-6.34-1.6-6.34-6.89v-12.18h-4.16v-2.44h4.16v-6.05l2.94-1.43v7.48h5.92v2.44h-5.92v11.8c0,2.82.76,4.58,3.4,4.58,1.6,0,3.23-.29,4.03-.5Z"></path><path class="cls-17" d="m591.44,3804.5c0-3.95,2.23-6.09,7.86-6.09h6.34v-1.72c0-2.98-1.26-5.42-5.46-5.42-3.95,0-5.33,1.51-5.33,4.12v.88h-2.98v-.84c0-5,4.2-6.68,8.32-6.68,5.8,0,8.4,2.86,8.4,8.44v13.11h-2.06l-.55-2.98h-.08c-1.26,1.89-3.7,3.53-7.35,3.53-4.92,0-7.1-2.31-7.1-6.34Zm14.2-1.85v-1.76h-7.02c-2.65,0-4.03.92-4.03,3.61,0,2.35,1.26,3.86,4.5,3.86,4.16,0,6.55-2.14,6.55-5.71Z"></path><path class="cls-17" d="m615.92,3777.53h2.94v32.77h-2.94v-32.77Z"></path><path class="cls-17" d="m634.19,3799.96c0-6.38,3.23-11.22,10-11.22s8.95,3.91,8.95,8.95v.42h-3.11v-.63c0-3.82-1.64-6.09-5.84-6.09-4.75,0-7.02,3.11-7.02,8.4,0,5.63,2.39,8.49,6.93,8.49,3.82,0,5.84-1.85,5.92-5.67h3.02c-.08,4.66-3.15,8.23-9.03,8.23-7.23,0-9.83-4.75-9.83-10.88Z"></path><path class="cls-17" d="m657.33,3799.8c0-6.22,3.32-11.05,10.38-11.05,6.6,0,10.25,4.83,10.25,11.05s-3.7,11.05-10.29,11.05c-7.27,0-10.33-4.83-10.33-11.05Zm17.56,0c0-5.33-2.9-8.49-7.23-8.49-4.75,0-7.27,3.15-7.27,8.49s2.56,8.49,7.27,8.49c4.33,0,7.23-3.15,7.23-8.49Z"></path><path class="cls-17" d="m683.84,3789.29h2.6l.29,3.49c1.01-2.14,3.28-4.03,7.35-4.03,4.75,0,7.77,2.52,7.77,7.94v13.61h-2.94v-13.27c0-4.33-2.14-5.71-5.5-5.71-3.82,0-6.64,2.69-6.64,5.63v13.36h-2.94v-21Z"></path><path class="cls-17" d="m709.2,3789.29h2.6l.29,3.49c1.01-2.14,3.28-4.03,7.35-4.03,4.75,0,7.77,2.52,7.77,7.94v13.61h-2.94v-13.27c0-4.33-2.14-5.71-5.5-5.71-3.82,0-6.64,2.69-6.64,5.63v13.36h-2.94v-21Z"></path><path class="cls-17" d="m751.84,3800.8h-15.96c.17,4.79,2.48,7.48,6.93,7.48,3.82,0,5.67-1.43,5.96-4.83h2.98c-.29,4.24-3.28,7.39-9.03,7.39-7.06,0-9.83-4.66-9.83-10.88s3.23-11.22,10-11.22,8.95,3.99,8.95,10.21v1.85Zm-3.11-2.98c0-4.45-1.72-6.55-5.92-6.55s-6.55,2.65-6.89,6.97h12.81v-.42Z"></path><path class="cls-17" d="m756.03,3799.96c0-6.38,3.23-11.22,10-11.22s8.95,3.91,8.95,8.95v.42h-3.11v-.63c0-3.82-1.64-6.09-5.84-6.09-4.75,0-7.01,3.11-7.01,8.4,0,5.63,2.39,8.49,6.93,8.49,3.82,0,5.84-1.85,5.92-5.67h3.02c-.08,4.66-3.15,8.23-9.03,8.23-7.22,0-9.83-4.75-9.83-10.88Z"></path><path class="cls-17" d="m791.82,3807.61v2.6c-.76.21-2.14.59-4.03.59-3.82,0-6.34-1.6-6.34-6.89v-12.18h-4.16v-2.44h4.16v-6.05l2.94-1.43v7.48h5.92v2.44h-5.92v11.8c0,2.82.76,4.58,3.4,4.58,1.6,0,3.23-.29,4.03-.5Z"></path><path class="cls-17" d="m796.65,3777.53h2.98v6.51h-2.98v-6.51Zm0,11.76h2.94v21h-2.94v-21Z"></path><path class="cls-17" d="m806.98,3789.29h2.6l.29,3.49c1.01-2.14,3.28-4.03,7.35-4.03,4.75,0,7.77,2.52,7.77,7.94v13.61h-2.94v-13.27c0-4.33-2.14-5.71-5.5-5.71-3.82,0-6.64,2.69-6.64,5.63v13.36h-2.94v-21Z"></path><path class="cls-17" d="m831.72,3812.11v-.13h3.11v.13c0,2.9,1.93,4.33,6.13,4.33,4.79,0,7.01-2.94,7.01-7.86v-2.1h-.08c-1.09,2.18-3.65,4.07-7.48,4.07-6.3,0-9.75-3.99-9.75-10.71,0-7.1,4.37-11.09,9.96-11.09,3.78,0,6.55,1.81,7.56,4.12h.13l.29-3.57h2.31v19.16c0,5.88-2.81,10.71-10.33,10.71-6.3,0-8.86-2.98-8.86-7.06Zm16.59-12.77c0-5.5-3.36-8.07-7.35-8.07-3.03,0-7.14,1.47-7.14,8.4s3.57,8.32,7.1,8.32c4.24,0,7.39-2.73,7.39-8.65Z"></path><path class="cls-17" d="m866.03,3803.87v-1.18h2.94v1.13c0,2.86,2.14,4.49,5.96,4.49s5.8-1.01,5.8-3.78c0-2.06-1.01-2.81-3.86-3.32l-4.62-.84c-3.02-.55-5.54-2.02-5.54-5.5,0-3.15,2.35-6.13,8.4-6.13s8.4,3.02,8.4,7.23v.88h-2.98v-.76c0-3.45-2.14-4.92-5.42-4.92-3.95,0-5.33,1.34-5.33,3.36s1.01,2.86,3.91,3.4l4.03.76c4.12.76,6.09,1.93,6.09,5.59,0,4.58-4.12,6.55-8.78,6.55-7.31,0-8.99-3.28-8.99-6.97Z"></path><path class="cls-17" d="m900.64,3807.61v2.6c-.76.21-2.14.59-4.03.59-3.82,0-6.34-1.6-6.34-6.89v-12.18h-4.16v-2.44h4.16v-6.05l2.94-1.43v7.48h5.92v2.44h-5.92v11.8c0,2.82.76,4.58,3.4,4.58,1.6,0,3.23-.29,4.03-.5Z"></path><path class="cls-17" d="m905.47,3789.29h2.6l.29,3.91c1.01-2.14,3.07-4.45,6.76-4.45,1.26,0,2.18.21,3.02.55v3.15c-1.13-.5-2.1-.76-3.4-.76-3.74,0-6.34,2.81-6.34,5.75v12.85h-2.94v-21Z"></path><path class="cls-17" d="m920.46,3799.8c0-6.22,3.32-11.05,10.38-11.05,6.59,0,10.25,4.83,10.25,11.05s-3.7,11.05-10.29,11.05c-7.27,0-10.33-4.83-10.33-11.05Zm17.56,0c0-5.33-2.9-8.49-7.22-8.49-4.75,0-7.27,3.15-7.27,8.49s2.56,8.49,7.27,8.49c4.33,0,7.22-3.15,7.22-8.49Z"></path><path class="cls-17" d="m946.34,3777.53h2.94v23.23l12.14-11.47h3.65v.04l-8.4,7.86,8.78,13.06v.04h-3.36l-7.39-11.22-5.42,5.04v6.17h-2.94v-32.77Z"></path><path class="cls-17" d="m986.7,3800.8h-15.96c.17,4.79,2.48,7.48,6.93,7.48,3.82,0,5.67-1.43,5.97-4.83h2.98c-.29,4.24-3.28,7.39-9.03,7.39-7.06,0-9.83-4.66-9.83-10.88s3.23-11.22,10-11.22,8.95,3.99,8.95,10.21v1.85Zm-3.11-2.98c0-4.45-1.72-6.55-5.92-6.55s-6.55,2.65-6.89,6.97h12.81v-.42Z"></path><path class="cls-17" d="m990.69,3803.87v-1.18h2.94v1.13c0,2.86,2.14,4.49,5.96,4.49s5.8-1.01,5.8-3.78c0-2.06-1.01-2.81-3.86-3.32l-4.62-.84c-3.02-.55-5.54-2.02-5.54-5.5,0-3.15,2.35-6.13,8.4-6.13s8.4,3.02,8.4,7.23v.88h-2.98v-.76c0-3.45-2.14-4.92-5.42-4.92-3.95,0-5.33,1.34-5.33,3.36s1.01,2.86,3.91,3.4l4.03.76c4.12.76,6.09,1.93,6.09,5.59,0,4.58-4.12,6.55-8.78,6.55-7.31,0-8.99-3.28-8.99-6.97Z"></path><path class="cls-17" d="m1022.31,3799.8c0-6.22,3.32-11.05,10.38-11.05,6.59,0,10.25,4.83,10.25,11.05s-3.7,11.05-10.29,11.05c-7.27,0-10.33-4.83-10.33-11.05Zm17.56,0c0-5.33-2.9-8.49-7.22-8.49-4.75,0-7.27,3.15-7.27,8.49s2.56,8.49,7.27,8.49c4.33,0,7.22-3.15,7.22-8.49Z"></path><path class="cls-17" d="m1048.81,3789.29h2.6l.29,3.49c1.01-2.14,3.28-4.03,7.35-4.03,4.75,0,7.77,2.52,7.77,7.94v13.61h-2.94v-13.27c0-4.33-2.14-5.71-5.5-5.71-3.82,0-6.64,2.69-6.64,5.63v13.36h-2.94v-21Z"></path><path class="cls-17" d="m1086.66,3806.81h-.08l-.76,3.49h-1.97v-32.77h2.94v15.25h.04c1.26-2.31,4.07-4.03,7.69-4.03,6.3,0,9.66,3.99,9.66,11.01s-4.29,11.09-9.87,11.09c-3.78,0-6.55-1.64-7.65-4.03Zm14.37-6.89c0-7.18-3.4-8.61-6.93-8.61-4.24,0-7.56,2.73-7.56,8.44,0,6.01,3.45,8.57,7.44,8.57,3.02,0,7.06-1.47,7.06-8.4Z"></path><path class="cls-17" d="m1108.58,3804.5c0-3.95,2.23-6.09,7.86-6.09h6.34v-1.72c0-2.98-1.26-5.42-5.46-5.42-3.95,0-5.33,1.51-5.33,4.12v.88h-2.98v-.84c0-5,4.2-6.68,8.32-6.68,5.8,0,8.4,2.86,8.4,8.44v13.11h-2.06l-.55-2.98h-.08c-1.26,1.89-3.7,3.53-7.35,3.53-4.92,0-7.1-2.31-7.1-6.34Zm14.2-1.85v-1.76h-7.01c-2.65,0-4.03.92-4.03,3.61,0,2.35,1.26,3.86,4.5,3.86,4.16,0,6.55-2.14,6.55-5.71Z"></path><path class="cls-17" d="m1131.18,3803.87v-1.18h2.94v1.13c0,2.86,2.14,4.49,5.96,4.49s5.8-1.01,5.8-3.78c0-2.06-1.01-2.81-3.86-3.32l-4.62-.84c-3.02-.55-5.54-2.02-5.54-5.5,0-3.15,2.35-6.13,8.4-6.13s8.4,3.02,8.4,7.23v.88h-2.98v-.76c0-3.45-2.14-4.92-5.42-4.92-3.95,0-5.33,1.34-5.33,3.36s1.01,2.86,3.91,3.4l4.03.76c4.12.76,6.09,1.93,6.09,5.59,0,4.58-4.12,6.55-8.78,6.55-7.31,0-8.99-3.28-8.99-6.97Z"></path><path class="cls-17" d="m1172.09,3800.8h-15.96c.17,4.79,2.48,7.48,6.93,7.48,3.82,0,5.67-1.43,5.97-4.83h2.98c-.29,4.24-3.28,7.39-9.03,7.39-7.06,0-9.83-4.66-9.83-10.88s3.23-11.22,10-11.22,8.95,3.99,8.95,10.21v1.85Zm-3.11-2.98c0-4.45-1.72-6.55-5.92-6.55s-6.55,2.65-6.89,6.97h12.81v-.42Z"></path><path class="cls-17" d="m1177.34,3777.53h2.94v32.77h-2.94v-32.77Z"></path><path class="cls-17" d="m1187.63,3777.53h2.98v6.51h-2.98v-6.51Zm0,11.76h2.94v21h-2.94v-21Z"></path><path class="cls-17" d="m1197.96,3789.29h2.6l.29,3.49c1.01-2.14,3.28-4.03,7.35-4.03,4.75,0,7.77,2.52,7.77,7.94v13.61h-2.94v-13.27c0-4.33-2.14-5.71-5.5-5.71-3.82,0-6.64,2.69-6.64,5.63v13.36h-2.94v-21Z"></path><path class="cls-17" d="m1240.59,3800.8h-15.96c.17,4.79,2.48,7.48,6.93,7.48,3.82,0,5.67-1.43,5.97-4.83h2.98c-.29,4.24-3.28,7.39-9.03,7.39-7.06,0-9.83-4.66-9.83-10.88s3.23-11.22,10-11.22,8.95,3.99,8.95,10.21v1.85Zm-3.11-2.98c0-4.45-1.72-6.55-5.92-6.55s-6.55,2.65-6.89,6.97h12.81v-.42Z"></path><path class="cls-17" d="m471.96,2868.47h-13.99l-3.74,10.33h-3.07l12.18-32.77h3.32l12.1,32.77h-3.07l-3.74-10.33Zm-.92-2.6l-6.05-16.8h-.04l-6.05,16.8h12.14Z"></path><path class="cls-17" d="m481.07,2872.38v-1.18h2.94v1.13c0,2.86,2.14,4.49,5.96,4.49s5.8-1.01,5.8-3.78c0-2.06-1.01-2.81-3.86-3.32l-4.62-.84c-3.02-.55-5.54-2.02-5.54-5.5,0-3.15,2.35-6.13,8.4-6.13s8.4,3.02,8.4,7.23v.88h-2.98v-.76c0-3.45-2.14-4.92-5.42-4.92-3.95,0-5.33,1.34-5.33,3.36s1.01,2.86,3.91,3.4l4.03.76c4.12.76,6.09,1.93,6.09,5.59,0,4.58-4.12,6.55-8.78,6.55-7.31,0-8.99-3.28-8.99-6.97Z"></path><path class="cls-17" d="m503.04,2868.47c0-6.38,3.23-11.22,10-11.22s8.95,3.91,8.95,8.95v.42h-3.11v-.63c0-3.82-1.64-6.09-5.84-6.09-4.75,0-7.02,3.11-7.02,8.4,0,5.63,2.39,8.49,6.93,8.49,3.82,0,5.84-1.85,5.92-5.67h3.02c-.08,4.66-3.15,8.23-9.03,8.23-7.23,0-9.83-4.75-9.83-10.88Z"></path><path class="cls-17" d="m545.12,2869.31h-15.96c.17,4.79,2.48,7.48,6.93,7.48,3.82,0,5.67-1.43,5.96-4.83h2.98c-.29,4.24-3.28,7.39-9.03,7.39-7.06,0-9.83-4.66-9.83-10.88s3.23-11.22,10-11.22,8.95,3.99,8.95,10.21v1.85Zm-3.11-2.98c0-4.45-1.72-6.55-5.92-6.55s-6.55,2.65-6.89,6.97h12.81v-.42Z"></path><path class="cls-17" d="m551,2857.8h2.6l.29,3.49c1.01-2.14,3.28-4.03,7.35-4.03,4.75,0,7.77,2.52,7.77,7.94v13.61h-2.94v-13.27c0-4.33-2.14-5.71-5.5-5.71-3.82,0-6.64,2.69-6.64,5.63v13.36h-2.94v-21Z"></path><path class="cls-17" d="m574.69,2868.34c0-7.1,4.28-11.09,10.04-11.09,3.7,0,6.22,1.6,7.31,3.74h.04v-14.95h2.94v32.77h-1.97l-.67-3.61h-.08c-1.18,2.31-3.95,4.16-7.77,4.16-6.3,0-9.83-3.99-9.83-11.01Zm17.64-.5c0-5.5-3.36-8.07-7.35-8.07-3.11,0-7.14,1.47-7.14,8.4s3.61,8.61,7.14,8.61c4.24,0,7.35-2.73,7.35-8.95Z"></path><path class="cls-17" d="m619.63,2869.31h-15.96c.17,4.79,2.48,7.48,6.93,7.48,3.82,0,5.67-1.43,5.96-4.83h2.98c-.29,4.24-3.28,7.39-9.03,7.39-7.06,0-9.83-4.66-9.83-10.88s3.23-11.22,10-11.22,8.95,3.99,8.95,10.21v1.85Zm-3.11-2.98c0-4.45-1.72-6.55-5.92-6.55s-6.55,2.65-6.89,6.97h12.81v-.42Z"></path><path class="cls-17" d="m625.51,2857.8h2.6l.29,3.91c1.01-2.14,3.07-4.45,6.76-4.45,1.26,0,2.18.21,3.02.55v3.15c-1.13-.5-2.1-.76-3.4-.76-3.74,0-6.34,2.81-6.34,5.75v12.85h-2.94v-21Z"></path><path class="cls-17" d="m652.47,2846.04h2.94v32.77h-2.94v-32.77Z"></path><path class="cls-17" d="m661.08,2868.3c0-6.22,3.32-11.05,10.38-11.05,6.6,0,10.25,4.83,10.25,11.05s-3.7,11.05-10.29,11.05c-7.27,0-10.33-4.83-10.33-11.05Zm17.56,0c0-5.33-2.9-8.49-7.23-8.49-4.75,0-7.27,3.15-7.27,8.49s2.56,8.49,7.27,8.49c4.33,0,7.23-3.15,7.23-8.49Z"></path><path class="cls-17" d="m685.9,2868.3c0-6.22,3.32-11.05,10.38-11.05,6.6,0,10.25,4.83,10.25,11.05s-3.7,11.05-10.29,11.05c-7.27,0-10.33-4.83-10.33-11.05Zm17.56,0c0-5.33-2.9-8.49-7.23-8.49-4.75,0-7.27,3.15-7.27,8.49s2.56,8.49,7.27,8.49c4.33,0,7.23-3.15,7.23-8.49Z"></path><path class="cls-17" d="m712.41,2857.8h2.39l.34,3.87h.08c1.13-2.48,4.03-4.41,7.86-4.41,6.3,0,9.66,3.99,9.66,11.01s-4.29,11.09-9.87,11.09c-3.78,0-6.38-1.6-7.43-3.7h-.08v11.55h-2.94v-29.41Zm17.18,10.63c0-7.18-3.4-8.61-6.93-8.61-4.24,0-7.56,2.73-7.56,8.44,0,6.01,3.45,8.57,7.44,8.57,3.02,0,7.06-1.47,7.06-8.4Z"></path><path class="cls-17" d="m736.72,2872.38v-1.18h2.94v1.13c0,2.86,2.14,4.49,5.96,4.49s5.8-1.01,5.8-3.78c0-2.06-1.01-2.81-3.86-3.32l-4.62-.84c-3.02-.55-5.54-2.02-5.54-5.5,0-3.15,2.35-6.13,8.4-6.13s8.4,3.02,8.4,7.23v.88h-2.98v-.76c0-3.45-2.14-4.92-5.42-4.92-3.95,0-5.33,1.34-5.33,3.36s1.01,2.86,3.91,3.4l4.03.76c4.12.76,6.09,1.93,6.09,5.59,0,4.58-4.12,6.55-8.78,6.55-7.31,0-8.99-3.28-8.99-6.97Z"></path><path class="cls-17" d="m770.03,2846.04h2.98v6.51h-2.98v-6.51Zm0,11.76h2.94v21h-2.94v-21Z"></path><path class="cls-17" d="m780.36,2857.8h2.6l.29,3.49c1.01-2.14,3.28-4.03,7.35-4.03,4.75,0,7.77,2.52,7.77,7.94v13.61h-2.94v-13.27c0-4.33-2.14-5.71-5.5-5.71-3.82,0-6.64,2.69-6.64,5.63v13.36h-2.94v-21Z"></path><path class="cls-17" d="m817.07,2856.5h-3.36v-5.08c0-3.95.88-5.29,3.4-5.96l.67,1.85c-1.76.67-2.06,1.09-2.06,3.78v.34h1.34v5.08Zm5.92,0h-3.36v-5.08c0-3.95.88-5.29,3.4-5.96l.67,1.85c-1.76.67-2.06,1.09-2.06,3.78v.34h1.34v5.08Z"></path><path class="cls-17" d="m832.19,2875.32h-.08l-.76,3.49h-1.97v-32.77h2.94v15.25h.04c1.26-2.31,4.07-4.03,7.69-4.03,6.3,0,9.66,3.99,9.66,11.01s-4.29,11.09-9.87,11.09c-3.78,0-6.55-1.64-7.65-4.03Zm14.37-6.89c0-7.18-3.4-8.61-6.93-8.61-4.24,0-7.56,2.73-7.56,8.44,0,6.01,3.45,8.57,7.44,8.57,3.02,0,7.06-1.47,7.06-8.4Z"></path><path class="cls-17" d="m850.96,2855.24c1.76-.67,2.06-1.09,2.06-3.78v-.34h-1.34v-5.08h3.36v5.08c0,3.95-.88,5.29-3.4,5.96l-.67-1.85Zm5.92,0c1.76-.67,2.06-1.09,2.06-3.78v-.34h-1.34v-5.08h3.36v5.08c0,3.95-.88,5.29-3.4,5.96l-.67-1.85Z"></path><path class="cls-17" d="m863.9,2872.59h3.36v6.22c0,3.95-.88,5.29-3.4,5.96l-.67-1.85c1.76-.67,2.06-1.09,2.06-3.78v-.34h-1.34v-6.22Z"></path><path class="cls-17" d="m884.9,2856.5h-3.36v-5.08c0-3.95.88-5.29,3.4-5.96l.67,1.85c-1.76.67-2.06,1.09-2.06,3.78v.34h1.34v5.08Zm5.92,0h-3.36v-5.08c0-3.95.88-5.29,3.4-5.96l.67,1.85c-1.76.67-2.06,1.09-2.06,3.78v.34h1.34v5.08Z"></path><path class="cls-17" d="m900.94,2852.76v5.04h5.92v2.44h-5.92v18.57h-2.94v-18.57h-4.16v-2.44h4.16v-5.42c0-5.29,3.15-6.89,6.38-6.89,1.85,0,2.98.29,3.74.55v2.6c-.71-.21-1.89-.46-3.49-.46-2.65,0-3.7,1.76-3.7,4.58Z"></path><path class="cls-17" d="m911.49,2855.24c1.76-.67,2.06-1.09,2.06-3.78v-.34h-1.34v-5.08h3.36v5.08c0,3.95-.88,5.29-3.4,5.96l-.67-1.85Zm5.92,0c1.76-.67,2.06-1.09,2.06-3.78v-.34h-1.34v-5.08h3.36v5.08c0,3.95-.88,5.29-3.4,5.96l-.67-1.85Z"></path><path class="cls-17" d="m935.76,2873.01c0-3.95,2.23-6.09,7.86-6.09h6.34v-1.72c0-2.98-1.26-5.42-5.46-5.42-3.95,0-5.33,1.51-5.33,4.12v.88h-2.98v-.84c0-5,4.2-6.68,8.32-6.68,5.8,0,8.4,2.86,8.4,8.44v13.11h-2.06l-.55-2.98h-.08c-1.26,1.89-3.7,3.53-7.35,3.53-4.92,0-7.1-2.31-7.1-6.34Zm14.2-1.85v-1.76h-7.01c-2.65,0-4.03.92-4.03,3.61,0,2.35,1.26,3.86,4.5,3.86,4.16,0,6.55-2.14,6.55-5.71Z"></path><path class="cls-17" d="m960.25,2857.8h2.6l.29,3.49c1.01-2.14,3.28-4.03,7.35-4.03,4.75,0,7.77,2.52,7.77,7.94v13.61h-2.94v-13.27c0-4.33-2.14-5.71-5.5-5.71-3.82,0-6.64,2.69-6.64,5.63v13.36h-2.94v-21Z"></path><path class="cls-17" d="m983.94,2868.34c0-7.1,4.28-11.09,10.04-11.09,3.7,0,6.22,1.6,7.31,3.74h.04v-14.95h2.94v32.77h-1.97l-.67-3.61h-.08c-1.18,2.31-3.95,4.16-7.77,4.16-6.3,0-9.83-3.99-9.83-11.01Zm17.64-.5c0-5.5-3.36-8.07-7.35-8.07-3.11,0-7.14,1.47-7.14,8.4s3.61,8.61,7.14,8.61c4.24,0,7.35-2.73,7.35-8.95Z"></path><path class="cls-17" d="m1022.95,2856.5h-3.36v-5.08c0-3.95.88-5.29,3.4-5.96l.67,1.85c-1.76.67-2.06,1.09-2.06,3.78v.34h1.34v5.08Zm5.92,0h-3.36v-5.08c0-3.95.88-5.29,3.4-5.96l.67,1.85c-1.76.67-2.06,1.09-2.06,3.78v.34h1.34v5.08Z"></path><path class="cls-17" d="m1035.26,2846.04h2.94v32.77h-2.94v-32.77Z"></path><path class="cls-17" d="m1043.66,2855.24c1.76-.67,2.06-1.09,2.06-3.78v-.34h-1.34v-5.08h3.36v5.08c0,3.95-.88,5.29-3.4,5.96l-.67-1.85Zm5.92,0c1.76-.67,2.06-1.09,2.06-3.78v-.34h-1.34v-5.08h3.36v5.08c0,3.95-.88,5.29-3.4,5.96l-.67-1.85Z"></path><path class="cls-17" d="m1133.39,1892.4h2.94v30.12h15.71v2.65h-18.65v-32.77Z"></path><path class="cls-17" d="m1155.19,1914.66c0-6.22,3.32-11.05,10.38-11.05,6.6,0,10.25,4.83,10.25,11.05s-3.7,11.05-10.29,11.05c-7.27,0-10.33-4.83-10.33-11.05Zm17.56,0c0-5.34-2.9-8.49-7.23-8.49-4.75,0-7.27,3.15-7.27,8.49s2.56,8.49,7.27,8.49c4.33,0,7.23-3.15,7.23-8.49Z"></path><path class="cls-17" d="m1180.01,1914.66c0-6.22,3.32-11.05,10.38-11.05,6.6,0,10.25,4.83,10.25,11.05s-3.7,11.05-10.29,11.05c-7.27,0-10.33-4.83-10.33-11.05Zm17.56,0c0-5.34-2.9-8.49-7.23-8.49-4.75,0-7.27,3.15-7.27,8.49s2.56,8.49,7.27,8.49c4.33,0,7.23-3.15,7.23-8.49Z"></path><path class="cls-17" d="m1206.51,1904.16h2.39l.34,3.87h.08c1.13-2.48,4.03-4.41,7.86-4.41,6.3,0,9.66,3.99,9.66,11.01s-4.28,11.09-9.87,11.09c-3.78,0-6.39-1.6-7.44-3.7h-.08v11.55h-2.94v-29.41Zm17.18,10.63c0-7.18-3.4-8.61-6.93-8.61-4.24,0-7.56,2.73-7.56,8.44,0,6.01,3.44,8.57,7.43,8.57,3.03,0,7.06-1.47,7.06-8.4Z"></path><path class="cls-17" d="m1232.09,1892.4h2.94v32.77h-2.94v-32.77Z"></path><path class="cls-17" d="m1259.65,1915.67h-15.96c.17,4.79,2.48,7.48,6.93,7.48,3.82,0,5.67-1.43,5.96-4.83h2.98c-.29,4.24-3.28,7.39-9.03,7.39-7.06,0-9.83-4.66-9.83-10.88s3.23-11.22,10-11.22,8.95,3.99,8.95,10.21v1.85Zm-3.11-2.98c0-4.45-1.72-6.55-5.92-6.55s-6.55,2.65-6.89,6.97h12.81v-.42Z"></path><path class="cls-17" d="m1263.63,1918.74v-1.18h2.94v1.13c0,2.86,2.14,4.49,5.96,4.49s5.8-1.01,5.8-3.78c0-2.06-1.01-2.81-3.87-3.32l-4.62-.84c-3.02-.55-5.54-2.02-5.54-5.5,0-3.15,2.35-6.13,8.4-6.13s8.4,3.02,8.4,7.23v.88h-2.98v-.76c0-3.45-2.14-4.92-5.42-4.92-3.95,0-5.33,1.34-5.33,3.36s1.01,2.86,3.91,3.4l4.03.76c4.12.76,6.09,1.93,6.09,5.59,0,4.58-4.12,6.55-8.78,6.55-7.31,0-8.99-3.28-8.99-6.97Z"></path><path class="cls-17" d="m1285.39,1918.74v-1.18h2.94v1.13c0,2.86,2.14,4.49,5.96,4.49s5.8-1.01,5.8-3.78c0-2.06-1.01-2.81-3.87-3.32l-4.62-.84c-3.02-.55-5.54-2.02-5.54-5.5,0-3.15,2.35-6.13,8.4-6.13s8.4,3.02,8.4,7.23v.88h-2.98v-.76c0-3.45-2.14-4.92-5.42-4.92-3.95,0-5.33,1.34-5.33,3.36s1.01,2.86,3.91,3.4l4.03.76c4.12.76,6.09,1.93,6.09,5.59,0,4.58-4.12,6.55-8.78,6.55-7.31,0-8.99-3.28-8.99-6.97Z"></path><path class="cls-17" d="m1317.44,1919.37c0-3.95,2.23-6.09,7.86-6.09h6.34v-1.72c0-2.98-1.26-5.42-5.46-5.42-3.95,0-5.33,1.51-5.33,4.12v.88h-2.98v-.84c0-5,4.2-6.68,8.32-6.68,5.8,0,8.4,2.86,8.4,8.44v13.11h-2.06l-.55-2.98h-.08c-1.26,1.89-3.7,3.53-7.35,3.53-4.92,0-7.1-2.31-7.1-6.34Zm14.2-1.85v-1.76h-7.02c-2.65,0-4.03.92-4.03,3.61,0,2.35,1.26,3.86,4.5,3.86,4.16,0,6.55-2.14,6.55-5.71Z"></path><path class="cls-17" d="m1340.03,1918.74v-1.18h2.94v1.13c0,2.86,2.14,4.49,5.96,4.49s5.8-1.01,5.8-3.78c0-2.06-1.01-2.81-3.86-3.32l-4.62-.84c-3.02-.55-5.54-2.02-5.54-5.5,0-3.15,2.35-6.13,8.4-6.13s8.4,3.02,8.4,7.23v.88h-2.98v-.76c0-3.45-2.14-4.92-5.42-4.92-3.95,0-5.33,1.34-5.33,3.36s1.01,2.86,3.91,3.4l4.03.76c4.12.76,6.09,1.93,6.09,5.59,0,4.58-4.12,6.55-8.78,6.55-7.31,0-8.99-3.28-8.99-6.97Z"></path><path class="cls-17" d="m1362,1914.83c0-6.39,3.23-11.22,10-11.22s8.95,3.91,8.95,8.95v.42h-3.11v-.63c0-3.82-1.64-6.09-5.84-6.09-4.75,0-7.02,3.11-7.02,8.4,0,5.63,2.39,8.49,6.93,8.49,3.82,0,5.84-1.85,5.92-5.67h3.02c-.08,4.66-3.15,8.23-9.03,8.23-7.23,0-9.83-4.75-9.83-10.88Z"></path><path class="cls-17" d="m1404.08,1915.67h-15.96c.17,4.79,2.48,7.48,6.93,7.48,3.82,0,5.67-1.43,5.96-4.83h2.98c-.29,4.24-3.28,7.39-9.03,7.39-7.06,0-9.83-4.66-9.83-10.88s3.23-11.22,10-11.22,8.95,3.99,8.95,10.21v1.85Zm-3.11-2.98c0-4.45-1.72-6.55-5.92-6.55s-6.55,2.65-6.89,6.97h12.81v-.42Z"></path><path class="cls-17" d="m1409.96,1904.16h2.6l.29,3.49c1.01-2.14,3.28-4.03,7.35-4.03,4.75,0,7.77,2.52,7.77,7.94v13.61h-2.94v-13.27c0-4.33-2.14-5.71-5.5-5.71-3.82,0-6.64,2.69-6.64,5.63v13.36h-2.94v-21Z"></path><path class="cls-17" d="m1433.65,1914.7c0-7.1,4.28-11.09,10.04-11.09,3.7,0,6.22,1.6,7.31,3.74h.04v-14.95h2.94v32.77h-1.97l-.67-3.61h-.08c-1.18,2.31-3.95,4.16-7.77,4.16-6.3,0-9.83-3.99-9.83-11.01Zm17.64-.5c0-5.5-3.36-8.07-7.35-8.07-3.11,0-7.14,1.47-7.14,8.4s3.61,8.61,7.14,8.61c4.24,0,7.35-2.73,7.35-8.95Z"></path><path class="cls-17" d="m1478.59,1915.67h-15.96c.17,4.79,2.48,7.48,6.93,7.48,3.82,0,5.67-1.43,5.97-4.83h2.98c-.29,4.24-3.28,7.39-9.03,7.39-7.06,0-9.83-4.66-9.83-10.88s3.23-11.22,10-11.22,8.95,3.99,8.95,10.21v1.85Zm-3.11-2.98c0-4.45-1.72-6.55-5.92-6.55s-6.55,2.65-6.89,6.97h12.81v-.42Z"></path><path class="cls-17" d="m1484.47,1904.16h2.6l.29,3.91c1.01-2.14,3.07-4.45,6.76-4.45,1.26,0,2.18.21,3.02.55v3.15c-1.13-.5-2.1-.76-3.4-.76-3.74,0-6.34,2.81-6.34,5.76v12.85h-2.94v-21Z"></path><path class="cls-17" d="m1499.67,1918.74v-1.18h2.94v1.13c0,2.86,2.14,4.49,5.96,4.49s5.8-1.01,5.8-3.78c0-2.06-1.01-2.81-3.86-3.32l-4.62-.84c-3.02-.55-5.54-2.02-5.54-5.5,0-3.15,2.35-6.13,8.4-6.13s8.4,3.02,8.4,7.23v.88h-2.98v-.76c0-3.45-2.14-4.92-5.42-4.92-3.95,0-5.33,1.34-5.33,3.36s1.01,2.86,3.91,3.4l4.03.76c4.12.76,6.09,1.93,6.09,5.59,0,4.58-4.12,6.55-8.78,6.55-7.31,0-8.99-3.28-8.99-6.97Z"></path><path class="cls-17" d="m1532.98,1892.4h2.98v6.51h-2.98v-6.51Zm0,11.76h2.94v21h-2.94v-21Z"></path><path class="cls-17" d="m1543.31,1904.16h2.6l.29,3.49c1.01-2.14,3.28-4.03,7.35-4.03,4.75,0,7.77,2.52,7.77,7.94v13.61h-2.94v-13.27c0-4.33-2.14-5.71-5.5-5.71-3.82,0-6.64,2.69-6.64,5.63v13.36h-2.94v-21Z"></path><path class="cls-17" d="m1580.02,1902.86h-3.36v-5.08c0-3.95.88-5.29,3.4-5.96l.67,1.85c-1.76.67-2.06,1.09-2.06,3.78v.34h1.34v5.08Zm5.92,0h-3.36v-5.08c0-3.95.88-5.29,3.4-5.96l.67,1.85c-1.76.67-2.06,1.09-2.06,3.78v.34h1.34v5.08Z"></path><path class="cls-17" d="m1592.33,1892.4h2.94v15.16c1.05-2.1,3.28-3.95,7.31-3.95,4.75,0,7.77,2.52,7.77,7.94v13.61h-2.94v-13.27c0-4.33-2.14-5.71-5.5-5.71-3.82,0-6.64,2.69-6.64,5.63v13.36h-2.94v-32.77Z"></path><path class="cls-17" d="m1614.75,1901.6c1.76-.67,2.06-1.09,2.06-3.78v-.34h-1.34v-5.08h3.36v5.08c0,3.95-.88,5.29-3.4,5.96l-.67-1.85Zm5.92,0c1.76-.67,2.06-1.09,2.06-3.78v-.34h-1.34v-5.08h3.36v5.08c0,3.95-.88,5.29-3.4,5.96l-.67-1.85Z"></path><path class="cls-17" d="m1639.03,1919.37c0-3.95,2.23-6.09,7.86-6.09h6.34v-1.72c0-2.98-1.26-5.42-5.46-5.42-3.95,0-5.33,1.51-5.33,4.12v.88h-2.98v-.84c0-5,4.2-6.68,8.32-6.68,5.8,0,8.4,2.86,8.4,8.44v13.11h-2.06l-.55-2.98h-.08c-1.26,1.89-3.7,3.53-7.35,3.53-4.92,0-7.1-2.31-7.1-6.34Zm14.2-1.85v-1.76h-7.01c-2.65,0-4.03.92-4.03,3.61,0,2.35,1.26,3.86,4.5,3.86,4.16,0,6.55-2.14,6.55-5.71Z"></path><path class="cls-17" d="m1663.51,1904.16h2.6l.29,3.49c1.01-2.14,3.28-4.03,7.35-4.03,4.75,0,7.77,2.52,7.77,7.94v13.61h-2.94v-13.27c0-4.33-2.14-5.71-5.5-5.71-3.82,0-6.64,2.69-6.64,5.63v13.36h-2.94v-21Z"></path><path class="cls-17" d="m1687.2,1914.7c0-7.1,4.28-11.09,10.04-11.09,3.7,0,6.22,1.6,7.31,3.74h.04v-14.95h2.94v32.77h-1.97l-.67-3.61h-.08c-1.18,2.31-3.95,4.16-7.77,4.16-6.3,0-9.83-3.99-9.83-11.01Zm17.64-.5c0-5.5-3.36-8.07-7.35-8.07-3.11,0-7.14,1.47-7.14,8.4s3.61,8.61,7.14,8.61c4.24,0,7.35-2.73,7.35-8.95Z"></path><path class="cls-17" d="m1726.22,1902.86h-3.36v-5.08c0-3.95.88-5.29,3.4-5.96l.67,1.85c-1.76.67-2.06,1.09-2.06,3.78v.34h1.34v5.08Zm5.92,0h-3.36v-5.08c0-3.95.88-5.29,3.4-5.96l.67,1.85c-1.76.67-2.06,1.09-2.06,3.78v.34h1.34v5.08Z"></path><path class="cls-17" d="m1738.53,1892.4h2.94v23.23l12.14-11.47h3.65v.04l-8.4,7.86,8.78,13.06v.04h-3.36l-7.39-11.22-5.42,5.04v6.17h-2.94v-32.77Z"></path><path class="cls-17" d="m1760.79,1901.6c1.76-.67,2.06-1.09,2.06-3.78v-.34h-1.34v-5.08h3.36v5.08c0,3.95-.88,5.29-3.4,5.96l-.67-1.85Zm5.92,0c1.76-.67,2.06-1.09,2.06-3.78v-.34h-1.34v-5.08h3.36v5.08c0,3.95-.88,5.29-3.4,5.96l-.67-1.85Z"></path><path class="cls-17" d="m1373.13,3780.14h-11.51v-2.6h25.96v2.6h-11.51v30.16h-2.94v-30.16Z"></path><path class="cls-17" d="m1386.31,3804.5c0-3.95,2.23-6.09,7.86-6.09h6.34v-1.72c0-2.98-1.26-5.42-5.46-5.42-3.95,0-5.33,1.51-5.33,4.12v.88h-2.98v-.84c0-5,4.2-6.68,8.32-6.68,5.8,0,8.4,2.86,8.4,8.44v13.11h-2.06l-.55-2.98h-.08c-1.26,1.89-3.7,3.53-7.35,3.53-4.92,0-7.1-2.31-7.1-6.34Zm14.2-1.85v-1.76h-7.01c-2.65,0-4.03.92-4.03,3.61,0,2.35,1.26,3.86,4.5,3.86,4.16,0,6.55-2.14,6.55-5.71Z"></path><path class="cls-17" d="m1410.8,3777.53h2.94v32.77h-2.94v-32.77Z"></path><path class="cls-17" d="m1421.09,3777.53h2.94v32.77h-2.94v-32.77Z"></path><path class="cls-17" d="m1442.72,3787.99h-3.36v-5.08c0-3.95.88-5.29,3.4-5.96l.67,1.85c-1.76.67-2.06,1.09-2.06,3.78v.34h1.34v5.08Zm5.92,0h-3.36v-5.08c0-3.95.88-5.29,3.4-5.96l.67,1.85c-1.76.67-2.06,1.09-2.06,3.78v.34h1.34v5.08Z"></path><path class="cls-17" d="m1465.99,3807.61v2.6c-.76.21-2.14.59-4.03.59-3.82,0-6.34-1.6-6.34-6.89v-12.18h-4.16v-2.44h4.16v-6.05l2.94-1.43v7.48h5.92v2.44h-5.92v11.8c0,2.82.76,4.58,3.4,4.58,1.6,0,3.23-.29,4.03-.5Z"></path><path class="cls-17" d="m1467.88,3786.73c1.76-.67,2.06-1.09,2.06-3.78v-.34h-1.34v-5.08h3.36v5.08c0,3.95-.88,5.29-3.4,5.96l-.67-1.85Zm5.92,0c1.76-.67,2.06-1.09,2.06-3.78v-.34h-1.34v-5.08h3.36v5.08c0,3.95-.88,5.29-3.4,5.96l-.67-1.85Z"></path><path class="cls-17" d="m1320.69,2846.04h2.94v30.12h15.71v2.65h-18.65v-32.77Z"></path><path class="cls-17" d="m1342.49,2868.3c0-6.22,3.32-11.05,10.38-11.05,6.6,0,10.25,4.83,10.25,11.05s-3.7,11.05-10.29,11.05c-7.27,0-10.33-4.83-10.33-11.05Zm17.56,0c0-5.33-2.9-8.49-7.23-8.49-4.75,0-7.27,3.15-7.27,8.49s2.56,8.49,7.27,8.49c4.33,0,7.23-3.15,7.23-8.49Z"></path><path class="cls-17" d="m1367.31,2868.3c0-6.22,3.32-11.05,10.38-11.05,6.6,0,10.25,4.83,10.25,11.05s-3.7,11.05-10.29,11.05c-7.27,0-10.33-4.83-10.33-11.05Zm17.56,0c0-5.33-2.9-8.49-7.23-8.49-4.75,0-7.27,3.15-7.27,8.49s2.56,8.49,7.27,8.49c4.33,0,7.23-3.15,7.23-8.49Z"></path><path class="cls-17" d="m1393.82,2857.8h2.39l.34,3.87h.08c1.13-2.48,4.03-4.41,7.86-4.41,6.3,0,9.66,3.99,9.66,11.01s-4.28,11.09-9.87,11.09c-3.78,0-6.39-1.6-7.44-3.7h-.08v11.55h-2.94v-29.41Zm17.18,10.63c0-7.18-3.4-8.61-6.93-8.61-4.24,0-7.56,2.73-7.56,8.44,0,6.01,3.44,8.57,7.44,8.57,3.02,0,7.06-1.47,7.06-8.4Z"></path><path class="cls-17" d="m1437.29,2869.31h-15.96c.17,4.79,2.48,7.48,6.93,7.48,3.82,0,5.67-1.43,5.96-4.83h2.98c-.29,4.24-3.28,7.39-9.03,7.39-7.06,0-9.83-4.66-9.83-10.88s3.23-11.22,10-11.22,8.95,3.99,8.95,10.21v1.85Zm-3.11-2.98c0-4.45-1.72-6.55-5.92-6.55s-6.55,2.65-6.89,6.97h12.81v-.42Z"></path><path class="cls-17" d="m1441.49,2868.34c0-7.1,4.28-11.09,10.04-11.09,3.7,0,6.22,1.6,7.31,3.74h.04v-14.95h2.94v32.77h-1.97l-.67-3.61h-.08c-1.18,2.31-3.95,4.16-7.77,4.16-6.3,0-9.83-3.99-9.83-11.01Zm17.64-.5c0-5.5-3.36-8.07-7.35-8.07-3.11,0-7.14,1.47-7.14,8.4s3.61,8.61,7.14,8.61c4.24,0,7.35-2.73,7.35-8.95Z"></path><path class="cls-17" d="m1477.14,2868.34c0-7.1,4.28-11.09,10.04-11.09,3.7,0,6.22,1.6,7.31,3.74h.04v-14.95h2.94v32.77h-1.97l-.67-3.61h-.08c-1.18,2.31-3.95,4.16-7.77,4.16-6.3,0-9.83-3.99-9.83-11.01Zm17.64-.5c0-5.5-3.36-8.07-7.35-8.07-3.11,0-7.14,1.47-7.14,8.4s3.61,8.61,7.14,8.61c4.24,0,7.35-2.73,7.35-8.95Z"></path><path class="cls-17" d="m1522.09,2869.31h-15.96c.17,4.79,2.48,7.48,6.93,7.48,3.82,0,5.67-1.43,5.97-4.83h2.98c-.29,4.24-3.28,7.39-9.03,7.39-7.06,0-9.83-4.66-9.83-10.88s3.23-11.22,10-11.22,8.95,3.99,8.95,10.21v1.85Zm-3.11-2.98c0-4.45-1.72-6.55-5.92-6.55s-6.55,2.65-6.89,6.97h12.81v-.42Z"></path><path class="cls-17" d="m1526.07,2872.38v-1.18h2.94v1.13c0,2.86,2.14,4.49,5.96,4.49s5.8-1.01,5.8-3.78c0-2.06-1.01-2.81-3.86-3.32l-4.62-.84c-3.02-.55-5.54-2.02-5.54-5.5,0-3.15,2.35-6.13,8.4-6.13s8.4,3.02,8.4,7.23v.88h-2.98v-.76c0-3.45-2.14-4.92-5.42-4.92-3.95,0-5.33,1.34-5.33,3.36s1.01,2.86,3.91,3.4l4.03.76c4.12.76,6.09,1.93,6.09,5.59,0,4.58-4.12,6.55-8.78,6.55-7.31,0-8.99-3.28-8.99-6.97Z"></path><path class="cls-17" d="m1548.04,2868.47c0-6.38,3.23-11.22,10-11.22s8.95,3.91,8.95,8.95v.42h-3.11v-.63c0-3.82-1.64-6.09-5.84-6.09-4.75,0-7.02,3.11-7.02,8.4,0,5.63,2.39,8.49,6.93,8.49,3.82,0,5.84-1.85,5.92-5.67h3.02c-.08,4.66-3.15,8.23-9.03,8.23-7.22,0-9.83-4.75-9.83-10.88Z"></path><path class="cls-17" d="m1590.13,2869.31h-15.96c.17,4.79,2.48,7.48,6.93,7.48,3.82,0,5.67-1.43,5.97-4.83h2.98c-.29,4.24-3.28,7.39-9.03,7.39-7.06,0-9.83-4.66-9.83-10.88s3.23-11.22,10-11.22,8.95,3.99,8.95,10.21v1.85Zm-3.11-2.98c0-4.45-1.72-6.55-5.92-6.55s-6.55,2.65-6.89,6.97h12.81v-.42Z"></path><path class="cls-17" d="m1596,2857.8h2.6l.29,3.49c1.01-2.14,3.28-4.03,7.35-4.03,4.75,0,7.77,2.52,7.77,7.94v13.61h-2.94v-13.27c0-4.33-2.14-5.71-5.5-5.71-3.82,0-6.64,2.69-6.64,5.63v13.36h-2.94v-21Z"></path><path class="cls-17" d="m1619.69,2868.34c0-7.1,4.28-11.09,10.04-11.09,3.7,0,6.22,1.6,7.31,3.74h.04v-14.95h2.94v32.77h-1.97l-.67-3.61h-.08c-1.18,2.31-3.95,4.16-7.77,4.16-6.3,0-9.83-3.99-9.83-11.01Zm17.64-.5c0-5.5-3.36-8.07-7.35-8.07-3.11,0-7.14,1.47-7.14,8.4s3.61,8.61,7.14,8.61c4.24,0,7.35-2.73,7.35-8.95Z"></path><path class="cls-17" d="m1664.64,2869.31h-15.96c.17,4.79,2.48,7.48,6.93,7.48,3.82,0,5.67-1.43,5.97-4.83h2.98c-.29,4.24-3.28,7.39-9.03,7.39-7.06,0-9.83-4.66-9.83-10.88s3.23-11.22,10-11.22,8.95,3.99,8.95,10.21v1.85Zm-3.11-2.98c0-4.45-1.72-6.55-5.92-6.55s-6.55,2.65-6.89,6.97h12.81v-.42Z"></path><path class="cls-17" d="m1670.51,2857.8h2.6l.29,3.91c1.01-2.14,3.07-4.45,6.76-4.45,1.26,0,2.18.21,3.02.55v3.15c-1.13-.5-2.1-.76-3.4-.76-3.74,0-6.34,2.81-6.34,5.75v12.85h-2.94v-21Z"></path><path class="cls-17" d="m1685.72,2872.38v-1.18h2.94v1.13c0,2.86,2.14,4.49,5.96,4.49s5.8-1.01,5.8-3.78c0-2.06-1.01-2.81-3.86-3.32l-4.62-.84c-3.02-.55-5.54-2.02-5.54-5.5,0-3.15,2.35-6.13,8.4-6.13s8.4,3.02,8.4,7.23v.88h-2.98v-.76c0-3.45-2.14-4.92-5.42-4.92-3.95,0-5.33,1.34-5.33,3.36s1.01,2.86,3.91,3.4l4.03.76c4.12.76,6.09,1.93,6.09,5.59,0,4.58-4.12,6.55-8.78,6.55-7.31,0-8.99-3.28-8.99-6.97Z"></path><path class="cls-17" d="m800.96,930.34h8.36c11.05,0,17.39,4.54,17.39,16.42s-6.26,16.34-17.18,16.34h-8.57v-32.77Zm8.65,30.12c9.41,0,14.03-3.74,14.03-13.78s-4.49-13.74-14.07-13.74h-5.67v27.51h5.71Z"></path><path class="cls-17" d="m833.01,930.34h2.98v6.51h-2.98v-6.51Zm0,11.76h2.94v21h-2.94v-21Z"></path><path class="cls-17" d="m840.4,942.1h4.16v-5.42c0-5.29,3.15-6.89,6.38-6.89,1.85,0,2.98.29,3.74.55v2.6c-.71-.21-1.89-.46-3.49-.46-2.65,0-3.7,1.76-3.7,4.58v5.04h11.13v-5.42c0-5.29,3.15-6.89,6.39-6.89,1.85,0,2.98.29,3.74.55v2.6c-.71-.21-1.89-.46-3.49-.46-2.65,0-3.7,1.76-3.7,4.58v5.04h5.92v2.44h-5.92v18.57h-2.94v-18.57h-11.13v18.57h-2.94v-18.57h-4.16v-2.44Z"></path><path class="cls-17" d="m888.33,953.61h-15.96c.17,4.79,2.48,7.48,6.93,7.48,3.82,0,5.67-1.43,5.96-4.83h2.98c-.29,4.24-3.28,7.39-9.03,7.39-7.06,0-9.83-4.66-9.83-10.88s3.23-11.22,10-11.22,8.95,3.99,8.95,10.21v1.85Zm-3.11-2.98c0-4.45-1.72-6.55-5.92-6.55s-6.55,2.65-6.89,6.97h12.81v-.42Z"></path><path class="cls-17" d="m894.2,942.1h2.6l.29,3.91c1.01-2.14,3.07-4.45,6.76-4.45,1.26,0,2.18.21,3.02.55v3.15c-1.13-.5-2.1-.76-3.4-.76-3.74,0-6.34,2.81-6.34,5.75v12.85h-2.94v-21Z"></path><path class="cls-17" d="m928.14,953.61h-15.96c.17,4.79,2.48,7.48,6.93,7.48,3.82,0,5.67-1.43,5.96-4.83h2.98c-.29,4.24-3.28,7.39-9.03,7.39-7.06,0-9.83-4.66-9.83-10.88s3.23-11.22,10-11.22,8.95,3.99,8.95,10.21v1.85Zm-3.11-2.98c0-4.45-1.72-6.55-5.92-6.55s-6.55,2.65-6.89,6.97h12.81v-.42Z"></path><path class="cls-17" d="m934.02,942.1h2.6l.29,3.49c1.01-2.14,3.28-4.03,7.35-4.03,4.75,0,7.77,2.52,7.77,7.94v13.61h-2.94v-13.27c0-4.33-2.14-5.71-5.5-5.71-3.82,0-6.64,2.69-6.64,5.63v13.36h-2.94v-21Z"></path><path class="cls-17" d="m970.35,960.42v2.6c-.76.21-2.14.59-4.03.59-3.82,0-6.34-1.6-6.34-6.89v-12.18h-4.16v-2.44h4.16v-6.05l2.94-1.43v7.48h5.92v2.44h-5.92v11.8c0,2.82.76,4.58,3.4,4.58,1.6,0,3.23-.29,4.03-.5Z"></path><path class="cls-17" d="m983.16,952.65c0-7.1,4.28-11.09,10.04-11.09,3.7,0,6.22,1.6,7.31,3.74h.04v-14.95h2.94v32.77h-1.97l-.67-3.61h-.08c-1.18,2.31-3.95,4.16-7.77,4.16-6.3,0-9.83-3.99-9.83-11.01Zm17.64-.5c0-5.5-3.36-8.07-7.35-8.07-3.11,0-7.14,1.47-7.14,8.4s3.61,8.61,7.14,8.61c4.24,0,7.35-2.73,7.35-8.95Z"></path><path class="cls-17" d="m1028.1,953.61h-15.96c.17,4.79,2.48,7.48,6.93,7.48,3.82,0,5.67-1.43,5.96-4.83h2.98c-.29,4.24-3.28,7.39-9.03,7.39-7.06,0-9.83-4.66-9.83-10.88s3.23-11.22,10-11.22,8.95,3.99,8.95,10.21v1.85Zm-3.11-2.98c0-4.45-1.72-6.55-5.92-6.55s-6.55,2.65-6.89,6.97h12.81v-.42Z"></path><path class="cls-17" d="m1032.09,956.68v-1.18h2.94v1.13c0,2.86,2.14,4.49,5.96,4.49s5.8-1.01,5.8-3.78c0-2.06-1.01-2.81-3.86-3.32l-4.62-.84c-3.02-.55-5.54-2.02-5.54-5.5,0-3.15,2.35-6.13,8.4-6.13s8.4,3.02,8.4,7.23v.88h-2.98v-.76c0-3.45-2.14-4.92-5.42-4.92-3.95,0-5.33,1.34-5.33,3.36s1.01,2.86,3.91,3.4l4.03.76c4.12.76,6.09,1.93,6.09,5.59,0,4.58-4.12,6.55-8.78,6.55-7.31,0-8.99-3.28-8.99-6.97Z"></path><path class="cls-17" d="m1055.74,930.34h2.98v6.51h-2.98v-6.51Zm0,11.76h2.94v21h-2.94v-21Z"></path><path class="cls-17" d="m1065.44,964.91v-.13h3.11v.13c0,2.9,1.93,4.33,6.13,4.33,4.79,0,7.01-2.94,7.01-7.86v-2.1h-.08c-1.09,2.18-3.65,4.07-7.48,4.07-6.3,0-9.75-3.99-9.75-10.71,0-7.1,4.37-11.09,9.96-11.09,3.78,0,6.55,1.81,7.56,4.12h.13l.29-3.57h2.31v19.16c0,5.88-2.81,10.71-10.33,10.71-6.3,0-8.86-2.98-8.86-7.06Zm16.59-12.77c0-5.5-3.36-8.07-7.35-8.07-3.03,0-7.14,1.47-7.14,8.4s3.57,8.32,7.1,8.32c4.24,0,7.39-2.73,7.39-8.65Z"></path><path class="cls-17" d="m1091.98,942.1h2.6l.29,3.49c1.01-2.14,3.28-4.03,7.35-4.03,4.75,0,7.77,2.52,7.77,7.94v13.61h-2.94v-13.27c0-4.33-2.14-5.71-5.5-5.71-3.82,0-6.64,2.69-6.64,5.63v13.36h-2.94v-21Z"></path><path class="cls-17" d="m1115.46,956.68v-1.18h2.94v1.13c0,2.86,2.14,4.49,5.96,4.49s5.8-1.01,5.8-3.78c0-2.06-1.01-2.81-3.86-3.32l-4.62-.84c-3.02-.55-5.54-2.02-5.54-5.5,0-3.15,2.35-6.13,8.4-6.13s8.4,3.02,8.4,7.23v.88h-2.98v-.76c0-3.45-2.14-4.92-5.42-4.92-3.95,0-5.33,1.34-5.33,3.36s1.01,2.86,3.91,3.4l4.03.76c4.12.76,6.09,1.93,6.09,5.59,0,4.58-4.12,6.55-8.78,6.55-7.31,0-8.99-3.28-8.99-6.97Z"></path><path class="cls-17" d="m1152.92,937.06v5.04h5.92v2.44h-5.92v18.57h-2.94v-18.57h-4.16v-2.44h4.16v-5.42c0-5.29,3.15-6.89,6.38-6.89,1.85,0,2.98.29,3.74.55v2.6c-.71-.21-1.89-.46-3.49-.46-2.65,0-3.7,1.76-3.7,4.58Z"></path><path class="cls-17" d="m1160.74,952.6c0-6.22,3.32-11.05,10.38-11.05,6.59,0,10.25,4.83,10.25,11.05s-3.7,11.05-10.29,11.05c-7.27,0-10.33-4.83-10.33-11.05Zm17.56,0c0-5.33-2.9-8.49-7.22-8.49-4.75,0-7.27,3.15-7.27,8.49s2.56,8.49,7.27,8.49c4.33,0,7.22-3.15,7.22-8.49Z"></path><path class="cls-17" d="m1187.24,942.1h2.6l.29,3.91c1.01-2.14,3.07-4.45,6.76-4.45,1.26,0,2.18.21,3.02.55v3.15c-1.13-.5-2.1-.76-3.4-.76-3.74,0-6.34,2.81-6.34,5.75v12.85h-2.94v-21Z"></path><path class="cls-17" d="m1215.88,940.8h-3.36v-5.08c0-3.95.88-5.29,3.4-5.96l.67,1.85c-1.76.67-2.06,1.09-2.06,3.78v.34h1.34v5.08Zm5.92,0h-3.36v-5.08c0-3.95.88-5.29,3.4-5.96l.67,1.85c-1.76.67-2.06,1.09-2.06,3.78v.34h1.34v5.08Z"></path><path class="cls-17" d="m1225.04,942.15v-.04h3.36l7.35,17.98h.08l7.1-17.98h3.07v.04l-8.74,20.96h-3.02l-9.2-20.96Z"></path><path class="cls-17" d="m1248.52,939.54c1.76-.67,2.06-1.09,2.06-3.78v-.34h-1.34v-5.08h3.36v5.08c0,3.95-.88,5.29-3.4,5.96l-.67-1.85Zm5.92,0c1.76-.67,2.06-1.09,2.06-3.78v-.34h-1.34v-5.08h3.36v5.08c0,3.95-.88,5.29-3.4,5.96l-.67-1.85Z"></path><path class="cls-17" d="m1272.79,957.31c0-3.95,2.23-6.09,7.86-6.09h6.34v-1.72c0-2.98-1.26-5.42-5.46-5.42-3.95,0-5.33,1.51-5.33,4.12v.88h-2.98v-.84c0-5,4.2-6.68,8.32-6.68,5.8,0,8.4,2.86,8.4,8.44v13.11h-2.06l-.55-2.98h-.08c-1.26,1.89-3.7,3.53-7.35,3.53-4.92,0-7.1-2.31-7.1-6.34Zm14.2-1.85v-1.76h-7.01c-2.65,0-4.03.92-4.03,3.61,0,2.35,1.26,3.86,4.5,3.86,4.16,0,6.55-2.14,6.55-5.71Z"></path><path class="cls-17" d="m1297.28,942.1h2.6l.29,3.49c1.01-2.14,3.28-4.03,7.35-4.03,4.75,0,7.77,2.52,7.77,7.94v13.61h-2.94v-13.27c0-4.33-2.14-5.71-5.5-5.71-3.82,0-6.64,2.69-6.64,5.63v13.36h-2.94v-21Z"></path><path class="cls-17" d="m1320.97,952.65c0-7.1,4.28-11.09,10.04-11.09,3.7,0,6.22,1.6,7.31,3.74h.04v-14.95h2.94v32.77h-1.97l-.67-3.61h-.08c-1.18,2.31-3.95,4.16-7.77,4.16-6.3,0-9.83-3.99-9.83-11.01Zm17.64-.5c0-5.5-3.36-8.07-7.35-8.07-3.11,0-7.14,1.47-7.14,8.4s3.61,8.61,7.14,8.61c4.24,0,7.35-2.73,7.35-8.95Z"></path><path class="cls-17" d="m1359.98,940.8h-3.36v-5.08c0-3.95.88-5.29,3.4-5.96l.67,1.85c-1.76.67-2.06,1.09-2.06,3.78v.34h1.34v5.08Zm5.92,0h-3.36v-5.08c0-3.95.88-5.29,3.4-5.96l.67,1.85c-1.76.67-2.06,1.09-2.06,3.78v.34h1.34v5.08Z"></path><path class="cls-17" d="m1369.56,942.15v-.04h2.98l5.75,17.48h.08l6.3-17.48h2.69l6.17,17.48h.08l5.75-17.48h2.86v.04l-7.18,20.96h-3.02l-5.96-17.05h-.08l-6.22,17.05h-3.02l-7.18-20.96Z"></path><path class="cls-17" d="m1405.18,939.54c1.76-.67,2.06-1.09,2.06-3.78v-.34h-1.34v-5.08h3.36v5.08c0,3.95-.88,5.29-3.4,5.96l-.67-1.85Zm5.92,0c1.76-.67,2.06-1.09,2.06-3.78v-.34h-1.34v-5.08h3.36v5.08c0,3.95-.88,5.29-3.4,5.96l-.67-1.85Z"></path><path class="cls-17" d="m1197.31,1050.91c0-12.01,6.76-17.26,14.74-17.26,6.97,0,12.39,3.74,12.39,12.01v.8h-2.86v-.92c0-5.92-3.78-9.24-9.45-9.24-6.72,0-11.76,4.58-11.76,14.32s5.04,14.24,11.72,14.24c5.38,0,9.54-2.86,9.54-9.2v-.59h2.77v.42c0,8.02-5.33,12.01-12.56,12.01-7.98,0-14.53-4.87-14.53-16.59Z"></path><path class="cls-17" d="m1230.74,1034.19h2.94v32.77h-2.94v-32.77Z"></path><path class="cls-17" d="m1239.35,1056.45c0-6.22,3.32-11.05,10.38-11.05,6.6,0,10.25,4.83,10.25,11.05s-3.7,11.05-10.29,11.05c-7.27,0-10.33-4.83-10.33-11.05Zm17.56,0c0-5.33-2.9-8.49-7.23-8.49-4.75,0-7.27,3.15-7.27,8.49s2.56,8.49,7.27,8.49c4.33,0,7.23-3.15,7.23-8.49Z"></path><path class="cls-17" d="m1263.96,1060.53v-1.18h2.94v1.13c0,2.86,2.14,4.49,5.96,4.49s5.8-1.01,5.8-3.78c0-2.06-1.01-2.81-3.87-3.32l-4.62-.84c-3.02-.55-5.54-2.02-5.54-5.5,0-3.15,2.35-6.13,8.4-6.13s8.4,3.02,8.4,7.23v.88h-2.98v-.76c0-3.45-2.14-4.92-5.42-4.92-3.95,0-5.33,1.34-5.33,3.36s1.01,2.86,3.91,3.4l4.03.76c4.12.76,6.09,1.93,6.09,5.59,0,4.58-4.12,6.55-8.78,6.55-7.31,0-8.99-3.28-8.99-6.97Z"></path><path class="cls-17" d="m1304.87,1057.46h-15.96c.17,4.79,2.48,7.48,6.93,7.48,3.82,0,5.67-1.43,5.96-4.83h2.98c-.29,4.24-3.28,7.39-9.03,7.39-7.06,0-9.83-4.66-9.83-10.88s3.23-11.22,10-11.22,8.95,3.99,8.95,10.21v1.85Zm-3.11-2.98c0-4.45-1.72-6.55-5.92-6.55s-6.55,2.65-6.89,6.97h12.81v-.42Z"></path><path class="cls-17" d="m1309.07,1056.49c0-7.1,4.29-11.09,10.04-11.09,3.7,0,6.22,1.6,7.31,3.74h.04v-14.95h2.94v32.77h-1.97l-.67-3.61h-.08c-1.18,2.31-3.95,4.16-7.77,4.16-6.3,0-9.83-3.99-9.83-11.01Zm17.64-.5c0-5.5-3.36-8.07-7.35-8.07-3.11,0-7.14,1.47-7.14,8.4s3.61,8.61,7.14,8.61c4.24,0,7.35-2.73,7.35-8.95Z"></path><path class="cls-17" d="m1346.41,1034.19h2.94v32.77h-2.94v-32.77Z"></path><path class="cls-17" d="m1355.02,1056.45c0-6.22,3.32-11.05,10.38-11.05,6.59,0,10.25,4.83,10.25,11.05s-3.7,11.05-10.29,11.05c-7.27,0-10.33-4.83-10.33-11.05Zm17.56,0c0-5.33-2.9-8.49-7.22-8.49-4.75,0-7.27,3.15-7.27,8.49s2.56,8.49,7.27,8.49c4.33,0,7.22-3.15,7.22-8.49Z"></path><path class="cls-17" d="m1379.84,1056.45c0-6.22,3.32-11.05,10.38-11.05,6.59,0,10.25,4.83,10.25,11.05s-3.7,11.05-10.29,11.05c-7.27,0-10.33-4.83-10.33-11.05Zm17.56,0c0-5.33-2.9-8.49-7.22-8.49-4.75,0-7.27,3.15-7.27,8.49s2.56,8.49,7.27,8.49c4.33,0,7.22-3.15,7.22-8.49Z"></path><path class="cls-17" d="m1406.34,1045.95h2.39l.34,3.87h.08c1.13-2.48,4.03-4.41,7.86-4.41,6.3,0,9.66,3.99,9.66,11.01s-4.29,11.09-9.87,11.09c-3.78,0-6.38-1.6-7.43-3.7h-.08v11.55h-2.94v-29.41Zm17.18,10.63c0-7.18-3.4-8.61-6.93-8.61-4.24,0-7.56,2.73-7.56,8.44,0,6.01,3.45,8.57,7.44,8.57,3.02,0,7.06-1.47,7.06-8.4Z"></path><path class="cls-17" d="m1442.21,1034.19h2.98v6.51h-2.98v-6.51Zm0,11.76h2.94v21h-2.94v-21Z"></path><path class="cls-17" d="m1452.54,1045.95h2.6l.29,3.49c1.01-2.14,3.28-4.03,7.35-4.03,4.75,0,7.77,2.52,7.77,7.94v13.61h-2.94v-13.27c0-4.33-2.14-5.71-5.5-5.71-3.82,0-6.64,2.69-6.64,5.63v13.36h-2.94v-21Z"></path><path class="cls-17" d="m1489.25,1044.65h-3.36v-5.08c0-3.95.88-5.29,3.4-5.96l.67,1.85c-1.76.67-2.06,1.09-2.06,3.78v.34h1.34v5.08Zm5.92,0h-3.36v-5.08c0-3.95.88-5.29,3.4-5.96l.67,1.85c-1.76.67-2.06,1.09-2.06,3.78v.34h1.34v5.08Z"></path><path class="cls-17" d="m1501.55,1045.95h2.39l.34,3.87h.08c1.13-2.48,4.03-4.41,7.86-4.41,6.3,0,9.66,3.99,9.66,11.01s-4.29,11.09-9.87,11.09c-3.78,0-6.38-1.6-7.43-3.7h-.08v11.55h-2.94v-29.41Zm17.18,10.63c0-7.18-3.4-8.61-6.93-8.61-4.24,0-7.56,2.73-7.56,8.44,0,6.01,3.45,8.57,7.44,8.57,3.02,0,7.06-1.47,7.06-8.4Z"></path><path class="cls-17" d="m1523.14,1043.39c1.76-.67,2.06-1.09,2.06-3.78v-.34h-1.34v-5.08h3.36v5.08c0,3.95-.88,5.29-3.4,5.96l-.67-1.85Zm5.92,0c1.76-.67,2.06-1.09,2.06-3.78v-.34h-1.34v-5.08h3.36v5.08c0,3.95-.88,5.29-3.4,5.96l-.67-1.85Z"></path><rect class="cls-18" x="581.91" y="3358.38" width="91.78" height="91.78" rx="45.89" ry="45.89"></rect><rect class="cls-18" x="806.2" y="3358.38" width="91.78" height="91.78" rx="45.89" ry="45.89"></rect><line class="cls-13" x1="739.94" y1="3764.46" x2="739.94" y2="3698.59"></line><path class="cls-17" d="m439.95,2195.2h44.33v19.53h-44.33v151.45c0,27.79-9.85,51.54-29.55,71.24-20.41,19.71-44.15,29.55-71.24,29.55s-51.54-9.94-71.24-29.81c-19.71-19.87-29.55-44.06-29.55-72.56h19.52v2.64c0,21.82,8.18,40.63,24.54,56.46,16.36,15.83,35.27,23.75,56.73,23.75s41.69-7.92,57.52-23.75c15.83-16.53,23.75-35.7,23.75-57.52v-151.45h-44.86v-19.53h44.86v-77.04c-26.39,15.83-53.3,24.98-80.74,27.44-14.07,1.41-28.85.35-44.33-3.17l6.33-19.52c10.55,3.52,23.04,4.58,37.47,3.17,26.73-1.76,54.35-12.48,82.85-32.19h17.94v101.32Z"></path><path class="cls-17" d="m584.28,2431.62c11.08,10.55,24.01,15.83,38.79,15.83s27.7-5.28,38.79-15.83c11.08-10.55,16.62-23.04,16.62-37.47v-115.57h19.52v133.51c-.71,8.8,2.38,16.89,9.23,24.27,6.86,7.39,14.69,11.08,23.48,11.08h31.13v19.52h-29.55c-10.21,0-19.71-2.81-28.5-8.44-8.8-5.62-15.48-13.01-20.05-22.16-14.43,20.41-34.65,30.61-60.69,30.61-20.05,0-37.56-7.03-52.51-21.11-14.96-14.07-22.43-31.31-22.43-51.71v-115.57h19.53v115.57c0,14.43,5.54,26.91,16.62,37.47Z"></path><path class="cls-17" d="m975.57,2466.97h.53-20.05v-115.57c0-14.42-5.54-26.91-16.62-37.47-11.08-10.55-24.01-15.83-38.79-15.83s-27.7,5.28-38.79,15.83c-11.08,10.55-16.62,23.05-16.62,37.47v62.27c-.36,14.43-5.8,26.91-16.36,37.47-10.55,10.55-23.22,15.83-37.99,15.83h-29.02v-19.52h29.02c9.5,0,17.68-3.51,24.54-10.55,6.86-7.03,10.29-15.12,10.29-24.27v-60.69c0-20.05,7.47-37.29,22.43-51.71,14.95-14.42,32.63-21.64,53.03-21.64,28.14,0,49.6,12.32,64.38,36.94,14.78-24.62,36.23-36.94,64.38-36.94,20.4,0,38.17,7.21,53.3,21.64,15.12,14.43,22.69,31.66,22.69,51.71v60.69c0,9.15,3.43,17.24,10.29,24.27,6.86,7.04,15.04,10.55,24.54,10.55h29.02v19.52h-29.02c-14.78,0-27.44-5.28-37.99-15.83-10.55-10.55-16.01-23.04-16.36-37.47v-62.27c0-14.42-5.63-26.91-16.89-37.47-11.26-10.55-24.28-15.83-39.05-15.83s-27.62,5.19-38.52,15.57c-10.91,10.38-16.36,22.95-16.36,37.73v115.57Z"></path><path class="cls-17" d="m1353.4,2447.45h56.46v19.52h-56.46c-20.76,0-38.52-7.03-53.3-21.11-26.39-25.33-41.52-39.75-45.38-43.27v64.38h-19.53v-40.63c-5.28,11.26-12.66,20.84-22.16,28.76-9.5,7.91-19.71,11.87-30.61,11.87h-12.66v-19.52h12.66c14.78,0,27.97-12.67,39.58-37.99,6.33-13.72,10.73-27.44,13.19-41.16v-274.41h19.53v196.31c10.2-6.68,21.45-10.55,33.77-11.61,20.4-1.06,36.41,5.99,48.02,21.11,11.25,14.43,13.19,30.43,5.8,48.02-6.69,15.83-20.05,27.97-40.1,36.41-10.56,3.88-20.76,6.51-30.61,7.92l41.69,39.58c11.61,10.55,24.98,15.83,40.11,15.83Zm-32.19-135.62c-8.1-10.2-18.65-14.78-31.66-13.72-12.66.71-24.27,6.33-34.83,16.89v58.58c16.18-.7,29.72-3.34,40.63-7.91,14.78-6.33,24.45-14.78,29.02-25.33,4.57-10.2,3.51-19.7-3.17-28.5Z"></path><path class="cls-17" d="m1623.59,2483.86v138.79c0,23.22-4.75,39.92-14.25,50.13-10.21,10.9-23.57,16-40.11,15.3-11.61,0-21.9-5.28-30.87-15.83-8.97-10.55-14.69-21.64-17.15-33.25-1.41-5.99-2.11-13.72-2.11-23.22,1.05-30.26,11.25-59.63,30.61-88.13,14.78-21.11,32.89-39.58,54.35-55.41v-29.02c-14.07,15.83-32.55,23.75-55.41,23.75-26.04,0-46.26-10.2-60.68-30.61-4.58,9.15-11.26,16.54-20.05,22.16-8.8,5.63-18.3,8.44-28.5,8.44h-29.55v-19.52h31.13c8.79,0,16.62-3.69,23.48-11.08,6.86-7.39,9.93-15.48,9.23-24.27v-133.51h19.53v115.57c0,14.43,5.54,26.91,16.62,37.47,11.08,10.55,24.01,15.83,38.79,15.83s27.7-5.28,38.79-15.83c11.08-10.55,16.62-23.04,16.62-37.47v-115.57h19.53v179.95c12.31-7.39,26.56-11.08,42.74-11.08h21.11v19.52h-21.11c-17.94,0-32.19,5.62-42.74,16.89Zm-28.5,175.2c5.98-6.33,8.97-18.3,8.97-35.88v-126.65c-15.83,13.37-28.5,27.44-37.99,42.22-17.6,26.39-26.74,52.42-27.44,78.1,0,25.33,8.26,42.03,24.8,50.13,5.28,2.46,11.08,2.81,17.41,1.06,6.33-1.77,11.08-4.75,14.25-8.97Z"></path><path class="cls-17" d="m557.37,1161.37c3.87,6.33,3.69,14.25-.53,23.75l-7.91,13.72c-33.43,59.1-54.35,95.51-62.8,109.23,23.92,15.48,39.58,36.41,46.97,62.8,9.5,31.66,6.86,60.69-7.92,87.07-14.78,28.15-37.29,46.62-67.55,55.41-30.96,9.5-59.63,6.86-86.02-7.92l-7.39,13.19h-22.69l13.72-23.75c-25.33-19.34-39.93-45.03-43.8-77.04v-20.05c8.44,4.22,17.23,6.33,26.39,6.33,9.84,0,19.52-2.28,29.02-6.86v21.64c-11.96,4.22-23.57,5.8-34.83,4.75,4.22,21.46,15.12,39.58,32.72,54.35.35-.7,8.35-14.59,24.01-41.69,15.65-27.09,31.22-53.83,46.7-80.21,15.48-26.39,23.39-40.11,23.75-41.16-19-13.01-31.05-31.57-36.15-55.67-5.1-24.09-1.85-45.99,9.76-65.7,8.79-15.12,20.66-27,35.62-35.62,14.95-8.62,31.04-12.75,48.29-12.4,21.45,0,35,5.28,40.63,15.83Zm-42.22,215.3c-6.69-21.81-19.53-39.05-38.52-51.71-46.44,81.27-78.1,135.97-94.99,164.11,22.86,11.26,46.26,13.19,70.19,5.8,24.62-7.03,43.27-22.34,55.94-45.91,12.31-23.57,14.78-47.67,7.39-72.3Zm-45.91-78.63l51.72-89.71c13.01-21.11,19.52-33.24,19.52-36.41,0-2.11-3.52-3.87-10.55-5.28-15.83-3.17-31.22-1.4-46.17,5.28-14.96,6.69-26.3,17.07-34.04,31.13-8.8,15.48-11.35,32.54-7.65,51.19,3.69,18.65,12.75,33.24,27.18,43.8Z"></path><path class="cls-19" d="m937.31,1374.57v71.77c0,20.05-7.57,37.12-22.69,51.19-15.13,14.08-32.9,21.11-53.3,21.11-13.02,0-25.33-3.25-36.94-9.76-11.61-6.51-20.58-15.21-26.91-26.12-6.69,10.91-16.01,19.62-27.97,26.12-11.96,6.51-24.63,9.76-37.99,9.76-26.04,0-46.26-10.2-60.69-30.61-3.88,8.8-10.38,16.1-19.53,21.9-9.15,5.8-18.47,8.71-27.97,8.71h-30.08v-19.52h29.02c9.5,0,17.68-3.43,24.54-10.29,6.86-6.86,10.29-15.04,10.29-24.54v-134.04h19.53v115.57c.35,14.78,6.07,27.36,17.15,37.73,11.08,10.38,24.01,15.57,38.79,15.57s27.18-5.28,38.26-15.83c11.08-10.55,16.62-23.04,16.62-37.47v-115.57h19.52v115.57c.35,14.78,5.98,27.36,16.89,37.73,10.9,10.38,23.75,15.57,38.52,15.57s27.7-5.28,38.79-15.83c11.08-10.55,16.62-23.04,16.62-37.47v-115.57h19.52v6.86c.35,11.61,5.45,19.52,15.3,23.75,6.33,3.17,15.12,5.28,26.39,6.33h22.16v19.52h-20.58c-18.65,0-33.07-4.04-43.27-12.14Z"></path><path class="cls-17" d="m1128.87,1499.1h19.53v19.52h-19.53c-24.98,0-42.74-8.62-53.3-25.86-7.04-10.2-10.55-23.04-10.55-38.52v-79.16c-11.26,7.74-25.51,11.61-42.74,11.61h-21.11v-19.52h22.16c11.26-.7,20.05-2.81,26.39-6.33,9.5-4.57,14.6-12.48,15.3-23.75v-6.86h19.53v124.01c0,10.91,2.46,20.41,7.39,28.5,7.03,10.91,19.34,16.36,36.94,16.36Zm-64.11-230.87c-2.64-2.64-3.96-5.89-3.96-9.76s1.32-7.12,3.96-9.76c2.64-2.64,5.89-3.96,9.76-3.96s7.12,1.32,9.76,3.96c2.64,2.64,3.96,5.9,3.96,9.76s-1.32,7.12-3.96,9.76c-2.64,2.64-5.9,3.96-9.76,3.96s-7.12-1.32-9.76-3.96Z"></path><path class="cls-17" d="m1305.12,1499.1h113.46v19.52h-186.81v221.11h-19.53v-234.3c-9.85,8.8-21.63,13.19-35.36,13.19h-28.5v-19.52h28.5c9.84,0,18.21-3.43,25.07-10.29,6.86-6.86,10.29-15.04,10.29-24.54v-134.04h19.53v22.16c17.59-15.83,36.94-23.22,58.05-22.16,22.51,1.06,40.28,12.66,53.3,34.83,13.37,22.52,15.83,47.85,7.39,75.99-7.74,24.63-22.87,43.98-45.38,58.05Zm26.39-63.85c6.68-22.51,4.92-42.56-5.28-60.16-9.15-15.83-21.64-24.27-37.47-25.33-10.21-.7-20.41,1.85-30.61,7.65-10.21,5.8-19,13.81-26.39,24.01v117.68h3.17c21.11,0,40.28-5.1,57.52-15.3,19.7-11.96,32.72-28.14,39.05-48.55Z"></path><path class="cls-17" d="m1517.78,1330.24h3.17c9.5,0,17.23,3.52,23.22,10.55,8.44,10.21,12.67,26.04,12.67,47.49,0,11.26-1.06,22.16-3.17,32.72-4.58,26.39-11.96,46.44-22.16,60.16,8.79,11.96,18.82,17.94,30.08,17.94h58.58v19.52h-59.1c-16.19,0-30.08-7.21-41.69-21.64-11.61,14.43-25.51,21.64-41.69,21.64h-59.1v-19.52h58.58c11.25,0,21.28-5.98,30.08-17.94-10.21-13.72-17.6-33.77-22.16-60.16-2.11-10.55-3.17-21.45-3.17-32.72,0-21.45,4.22-37.29,12.67-47.49,5.98-7.03,13.72-10.55,23.22-10.55Zm3.17,19.52h-3.17c-4.58,0-8.27,1.94-11.08,5.8-3.17,6.69-4.75,16.36-4.75,29.02,0,13.37.87,24.63,2.64,33.77,1.76,16.89,6.68,32.19,14.78,45.91,8.09-13.72,13.01-29.02,14.78-45.91,1.76-9.14,2.64-20.4,2.64-33.77,0-12.66-1.58-22.34-4.75-29.02-2.82-3.87-6.51-5.8-11.08-5.8Z"></path><path class="cls-19" d="m698,554.46h19.52v19.53h-19c-15.13,0-28.06-5.28-38.79-15.83-10.74-10.55-16.1-23.39-16.1-38.52v-213.19c0-23.92-8.44-44.33-25.33-61.21-16.89-16.89-37.29-25.33-61.21-25.33s-44.42,8.44-61.48,25.33c-17.07,16.89-25.59,37.12-25.59,60.69v268.07h-19.52v-268.07c-.36-23.92-8.97-44.24-25.86-60.95-16.89-16.71-37.12-25.07-60.69-25.07s-44.42,8.44-61.48,25.33c-17.07,16.89-25.59,37.29-25.59,61.21v267.55h-19.52V248.39c-12.67,21.11-29.73,31.66-51.19,31.66v-19.52c6.68,0,12.84-1.76,18.47-5.28,5.62-3.51,10.64-9.05,15.04-16.62,4.4-7.56,7.56-13.54,9.5-17.94,1.93-4.4,4.66-10.99,8.18-19.79h19.52v44.85c10.2-14.07,22.96-25.15,38.26-33.24,15.3-8.09,31.57-12.14,48.81-12.14,20.4,0,39.58,5.72,57.52,17.15,17.94,11.44,30.95,26.48,39.05,45.12,7.73-18.64,20.66-33.68,38.79-45.12,18.11-11.43,37.38-17.15,57.78-17.15,29.2,0,54.17,10.38,74.93,31.13,20.75,20.76,31.13,45.74,31.13,74.93v213.19c0,9.85,3.43,18.12,10.29,24.8,6.86,6.69,15.04,10.03,24.54,10.03Z"></path><path class="cls-17" d="m1031.51,405.12h-96.04c23.92,19.35,35.88,44.16,35.88,74.41,0,26.04-9.24,48.29-27.7,66.75-18.47,18.47-40.72,27.7-66.75,27.7s-48.29-9.24-66.75-27.7c-18.47-18.47-27.7-40.72-27.7-66.75s9.5-48.55,28.5-67.55c19-19,40.98-27.79,65.96-26.39h154.62v19.52Zm-79.68,74.41c0-20.75-7.39-38.43-22.16-53.03-14.78-14.6-32.37-21.9-52.77-21.9s-37.91,7.3-52.51,21.9c-14.6,14.6-21.9,32.28-21.9,53.03s7.3,38.35,21.9,52.77c14.59,14.43,32.1,21.64,52.51,21.64s38.43-7.3,53.03-21.9c14.59-14.6,21.9-32.1,21.9-52.51Z"></path><path class="cls-19" d="m1343.38,422.53h21.63v19.53h-22.16c-14.43-1.05-25.86-3.69-34.3-7.92-7.39-3.51-13.72-8.97-19-16.36-32.72,82.68-50.13,125.95-52.24,129.81-7.04,18.3-19.71,27.09-37.99,26.39h-2.11c-18.3.7-30.96-8.09-37.99-26.39-6.33-12.66-25.33-60.16-56.99-142.48h-70.71v-19.52h83.9c9.5,24.98,30.25,76.7,62.27,155.15,4.22,9.15,10.73,13.72,19.53,13.72h2.11c8.79,0,15.3-4.57,19.53-13.72,32.01-78.45,52.77-130.16,62.27-155.15h20.58v6.86c.35,11.61,5.45,19.52,15.3,23.74,6.33,3.52,15.12,5.63,26.39,6.33Z"></path><path class="cls-17" d="m1492.71,554.46h19.53v19.53h-19.53c-24.98,0-42.74-8.62-53.3-25.86-7.04-10.2-10.56-23.04-10.56-38.52v-79.16c-11.26,7.74-25.51,11.61-42.74,11.61h-21.11v-19.53h22.16c11.25-.7,20.05-2.81,26.39-6.33,9.5-4.57,14.6-12.48,15.3-23.74v-6.86h19.53v124.01c0,10.91,2.46,20.41,7.39,28.5,7.03,10.91,19.34,16.36,36.94,16.36Zm-64.12-230.87c-2.64-2.64-3.96-5.89-3.96-9.76s1.32-7.12,3.96-9.76c2.64-2.64,5.89-3.96,9.76-3.96s7.12,1.32,9.76,3.96c2.64,2.64,3.96,5.9,3.96,9.76s-1.32,7.12-3.96,9.76c-2.64,2.64-5.9,3.96-9.76,3.96s-7.12-1.32-9.76-3.96Z"></path><path class="cls-17" d="m1611.44,385.59h3.17c9.5,0,17.23,3.52,23.22,10.55,8.44,10.21,12.67,26.04,12.67,47.49,0,11.26-1.06,22.16-3.17,32.72-4.58,26.39-11.96,46.44-22.16,60.16,8.79,11.96,18.82,17.94,30.08,17.94h58.58v19.53h-59.1c-16.19,0-30.08-7.21-41.69-21.64-11.61,14.43-25.51,21.64-41.69,21.64h-59.1v-19.53h58.58c11.25,0,21.28-5.98,30.08-17.94-10.21-13.72-17.6-33.77-22.16-60.16-2.11-10.56-3.17-21.45-3.17-32.72,0-21.45,4.22-37.29,12.67-47.49,5.98-7.03,13.72-10.55,23.22-10.55Zm3.17,19.52h-3.17c-4.58,0-8.27,1.94-11.08,5.8-3.17,6.69-4.75,16.36-4.75,29.02,0,13.37.87,24.63,2.64,33.77,1.76,16.89,6.68,32.19,14.78,45.91,8.09-13.72,13.01-29.02,14.78-45.91,1.76-9.14,2.64-20.4,2.64-33.77,0-12.66-1.58-22.34-4.75-29.02-2.82-3.87-6.51-5.8-11.08-5.8Z"></path><path class="cls-17" d="m541.8,3393.2h107.65v19.53h-111.35c-28.5-1.05-52.6-11.43-72.3-31.13-19-19-28.5-41.51-28.5-67.55,0-18.64,5.45-36.15,16.36-52.51,10.9-16.36,25.15-28.05,42.74-35.09-17.6-8.44-31.49-19.87-41.69-34.3-11.61-16.53-17.41-34.83-17.41-54.88,0-27.09,10.46-50.13,31.4-69.13,20.93-19,45.29-28.5,73.09-28.5h45.91v19.53h-45.91c-23.57,0-43.63,7.65-60.16,22.95-16.54,15.3-24.8,33.69-24.8,55.14,0,22.52,8.26,41.16,24.8,55.94,16.53,15.49,36.58,23.22,60.16,23.22h48.55v19.53h-48.55c-23.57,0-43.63,7.65-60.16,22.95-16.54,15.3-24.8,33.69-24.8,55.14s7.56,38.7,22.69,53.83c16.89,16.89,37.64,25.33,62.27,25.33Z"></path><path class="cls-17" d="m750.77,3390.04c-10.55,15.13-25.51,22.69-44.85,22.69h-56.46v-19.53h56.46c8.09,0,15.39-2.55,21.9-7.65,6.51-5.1,10.64-11.52,12.4-19.26-11.61-40.45-19-77.04-22.16-109.76-6.33-61.91-7.39-112.58-3.17-151.98,2.11-22.51,6.51-39.4,13.19-50.66,5.98-9.5,13.37-14.25,22.16-14.25h1.06c8.79,0,16.18,4.75,22.16,14.25,6.68,11.26,11.08,28.15,13.19,50.66,4.22,39.4,3.17,90.06-3.17,151.98-3.17,32.72-10.55,69.31-22.16,109.76,1.76,7.74,5.89,14.16,12.4,19.26,6.51,5.1,13.8,7.65,21.9,7.65h56.46v19.53h-56.46c-19.35,0-34.3-7.56-44.86-22.69Zm8.18-324.27c-2.29-4.4-5.01-6.6-8.18-6.6s-5.9,2.2-8.18,6.6c-2.29,4.4-3.88,9.06-4.75,13.98-.88,4.93-1.58,10.29-2.11,16.1-.53,5.8-.97,9.06-1.32,9.76-4.93,36.59-4.05,86.2,2.64,148.81,3.17,26.74,7.73,52.07,13.72,75.99,5.98-23.92,10.55-49.25,13.72-75.99,6.68-62.62,7.56-112.22,2.64-148.81-.35-.7-.79-3.96-1.32-9.76-.53-5.8-1.24-11.16-2.11-16.1-.88-4.92-2.47-9.58-4.75-13.98Z"></path><path class="cls-17" d="m951.3,3224.34h3.17c9.5,0,17.23,3.52,23.22,10.55,8.44,10.21,12.66,26.04,12.66,47.49,0,11.26-1.06,22.16-3.17,32.72-4.58,26.39-11.96,46.44-22.16,60.16,8.79,11.96,18.82,17.94,30.08,17.94h58.58v19.53h-59.1c-16.19,0-30.08-7.21-41.69-21.64-11.61,14.43-25.51,21.64-41.69,21.64h-59.1v-19.53h58.58c11.25,0,21.28-5.98,30.08-17.94-10.21-13.72-17.6-33.77-22.16-60.16-2.11-10.56-3.17-21.45-3.17-32.72,0-21.45,4.22-37.28,12.66-47.49,5.98-7.03,13.72-10.55,23.22-10.55Zm3.17,19.53h-3.17c-4.58,0-8.27,1.94-11.08,5.8-3.17,6.69-4.75,16.36-4.75,29.02,0,13.37.87,24.63,2.64,33.77,1.76,16.89,6.68,32.19,14.78,45.91,8.09-13.72,13.01-29.02,14.78-45.91,1.76-9.14,2.64-20.4,2.64-33.77,0-12.66-1.58-22.34-4.75-29.02-2.82-3.87-6.51-5.8-11.08-5.8Z"></path><path class="cls-17" d="m1126.49,3354.68v.53c-4.22,14.07-12.14,27.18-23.75,39.31-11.61,12.14-23.93,18.21-36.94,18.21h-12.14v-19.53h12.14c14.78,0,27.97-12.66,39.58-37.99,7.03-15.83,11.61-29.2,13.72-40.11,0-23.92,11.61-45.2,34.83-63.85,21.81-17.94,48.55-26.91,80.21-26.91h31.14v19.53h-31.14c-23.57,0-45.38,6.86-65.43,20.58-20.05,13.72-30.08,31.66-30.08,53.82,0,23.93,9.14,42.4,27.44,55.41,18.29,13.02,40.45,19.52,66.49,19.52h96.57v19.53h-94.99c-24.27,0-46.17-4.75-65.7-14.25-19.52-9.5-33.51-24.09-41.95-43.8Z"></path><path class="cls-19" d="m1396.14,3039.64h19.53v122.43h42.74v19.53h-42.74v176.25c0,9.85,3.34,18.21,10.03,25.07,6.68,6.86,14.95,10.29,24.8,10.29h32.19v19.53h-32.19c-19,0-33.96-7.73-44.86-23.22-10.21,15.49-24.98,23.22-44.33,23.22h-32.19v-19.53h32.19c9.84,0,18.11-3.43,24.8-10.29,6.68-6.86,10.03-15.21,10.03-25.07v-176.25h-42.74v-19.53h42.74v-122.43Z"></path><path class="cls-19" d="m1331.5,1435.31c6.68-22.51,4.92-42.56-5.28-60.16-9.15-15.83-21.64-24.27-37.47-25.33-10.21-.7-20.41,1.85-30.61,7.65-10.21,5.8-19,13.81-26.39,24.01v117.68h3.17c21.11,0,40.28-5.1,57.52-15.3,19.7-11.96,32.72-28.14,39.05-48.55Z"></path><g class="cls-16"><path class="cls-20" d="m557.37,1161.37c3.87,6.33,3.69,14.25-.53,23.75l-7.91,13.72c-33.43,59.1-54.35,95.51-62.8,109.23,23.92,15.48,39.58,36.41,46.97,62.8,9.5,31.66,6.86,60.69-7.92,87.07-14.78,28.15-37.29,46.62-67.55,55.41-30.96,9.5-59.63,6.86-86.02-7.92l-7.39,13.19h-22.69l13.72-23.75c-25.33-19.34-39.93-45.03-43.8-77.04v-20.05c8.44,4.22,17.23,6.33,26.39,6.33,9.84,0,19.52-2.28,29.02-6.86v21.64c-11.96,4.22-23.57,5.8-34.83,4.75,4.22,21.46,15.12,39.58,32.72,54.35.35-.7,8.35-14.59,24.01-41.69,15.65-27.09,31.22-53.83,46.7-80.21,15.48-26.39,23.39-40.11,23.75-41.16-19-13.01-31.05-31.57-36.15-55.67-5.1-24.09-1.85-45.99,9.76-65.7,8.79-15.12,20.66-27,35.62-35.62,14.95-8.62,31.04-12.75,48.29-12.4,21.45,0,35,5.28,40.63,15.83Zm-42.22,215.3c-6.69-21.81-19.53-39.05-38.52-51.71-46.44,81.27-78.1,135.97-94.99,164.11,22.86,11.26,46.26,13.19,70.19,5.8,24.62-7.03,43.27-22.34,55.94-45.91,12.31-23.57,14.78-47.67,7.39-72.3Zm-45.91-78.63l51.72-89.71c13.01-21.11,19.52-33.24,19.52-36.41,0-2.11-3.52-3.87-10.55-5.28-15.83-3.17-31.22-1.4-46.17,5.28-14.96,6.69-26.3,17.07-34.04,31.13-8.8,15.48-11.35,32.54-7.65,51.19,3.69,18.65,12.75,33.24,27.18,43.8Z"></path></g><g class="cls-21"><path class="cls-20" d="m1353.4,2447.45h56.46v19.52h-56.46c-20.76,0-38.52-7.03-53.3-21.11-26.39-25.33-41.52-39.75-45.38-43.27v64.38h-19.53v-40.63c-5.28,11.26-12.66,20.84-22.16,28.76-9.5,7.91-19.71,11.87-30.61,11.87h-12.66v-19.52h12.66c14.78,0,27.97-12.67,39.58-37.99,6.33-13.72,10.73-27.44,13.19-41.16v-274.41h19.53v196.31c10.2-6.68,21.45-10.55,33.77-11.61,20.4-1.06,36.41,5.99,48.02,21.11,11.25,14.43,13.19,30.43,5.8,48.02-6.69,15.83-20.05,27.97-40.1,36.41-10.56,3.88-20.76,6.51-30.61,7.92l41.69,39.58c11.61,10.55,24.98,15.83,40.11,15.83Zm-32.19-135.62c-8.1-10.2-18.65-14.78-31.66-13.72-12.66.71-24.27,6.33-34.83,16.89v58.58c16.18-.7,29.72-3.34,40.63-7.91,14.78-6.33,24.45-14.78,29.02-25.33,4.57-10.2,3.51-19.7-3.17-28.5Z"></path></g><g class="cls-24"><path class="cls-20" d="m1623.59,2483.86v138.79c0,23.22-4.75,39.92-14.25,50.13-10.21,10.9-23.57,16-40.11,15.3-11.61,0-21.9-5.28-30.87-15.83-8.97-10.55-14.69-21.64-17.15-33.25-1.41-5.99-2.11-13.72-2.11-23.22,1.05-30.26,11.25-59.63,30.61-88.13,14.78-21.11,32.89-39.58,54.35-55.41v-29.02c-14.07,15.83-32.55,23.75-55.41,23.75-26.04,0-46.26-10.2-60.68-30.61-4.58,9.15-11.26,16.54-20.05,22.16-8.8,5.63-18.3,8.44-28.5,8.44h-29.55v-19.52h31.13c8.79,0,16.62-3.69,23.48-11.08,6.86-7.39,9.93-15.48,9.23-24.27v-133.51h19.53v115.57c0,14.43,5.54,26.91,16.62,37.47,11.08,10.55,24.01,15.83,38.79,15.83s27.7-5.28,38.79-15.83c11.08-10.55,16.62-23.04,16.62-37.47v-115.57h19.53v179.95c12.31-7.39,26.56-11.08,42.74-11.08h21.11v19.52h-21.11c-17.94,0-32.19,5.62-42.74,16.89Zm-28.5,175.2c5.98-6.33,8.97-18.3,8.97-35.88v-126.65c-15.83,13.37-28.5,27.44-37.99,42.22-17.6,26.39-26.74,52.42-27.44,78.1,0,25.33,8.26,42.03,24.8,50.13,5.28,2.46,11.08,2.81,17.41,1.06,6.33-1.77,11.08-4.75,14.25-8.97Z"></path></g><g class="cls-23"><path class="cls-20" d="m750.77,3390.04c-10.55,15.13-25.51,22.69-44.85,22.69h-56.46v-19.53h56.46c8.09,0,15.39-2.55,21.9-7.65,6.51-5.1,10.64-11.52,12.4-19.26-11.61-40.45-19-77.04-22.16-109.76-6.33-61.91-7.39-112.58-3.17-151.98,2.11-22.51,6.51-39.4,13.19-50.66,5.98-9.5,13.37-14.25,22.16-14.25h1.06c8.79,0,16.18,4.75,22.16,14.25,6.68,11.26,11.08,28.15,13.19,50.66,4.22,39.4,3.17,90.06-3.17,151.98-3.17,32.72-10.55,69.31-22.16,109.76,1.76,7.74,5.89,14.16,12.4,19.26,6.51,5.1,13.8,7.65,21.9,7.65h56.46v19.53h-56.46c-19.35,0-34.3-7.56-44.86-22.69Zm8.18-324.27c-2.29-4.4-5.01-6.6-8.18-6.6s-5.9,2.2-8.18,6.6c-2.29,4.4-3.88,9.06-4.75,13.98-.88,4.93-1.58,10.29-2.11,16.1-.53,5.8-.97,9.06-1.32,9.76-4.93,36.59-4.05,86.2,2.64,148.81,3.17,26.74,7.73,52.07,13.72,75.99,5.98-23.92,10.55-49.25,13.72-75.99,6.68-62.62,7.56-112.22,2.64-148.81-.35-.7-.79-3.96-1.32-9.76-.53-5.8-1.24-11.16-2.11-16.1-.88-4.92-2.47-9.58-4.75-13.98Z"></path></g><g class="cls-22"><path class="cls-20" d="m541.8,3393.2h107.65v19.53h-111.35c-28.5-1.05-52.6-11.43-72.3-31.13-19-19-28.5-41.51-28.5-67.55,0-18.64,5.45-36.15,16.36-52.51,10.9-16.36,25.15-28.05,42.74-35.09-17.6-8.44-31.49-19.87-41.69-34.3-11.61-16.53-17.41-34.83-17.41-54.88,0-27.09,10.46-50.13,31.4-69.13,20.93-19,45.29-28.5,73.09-28.5h45.91v19.53h-45.91c-23.57,0-43.63,7.65-60.16,22.95-16.54,15.3-24.8,33.69-24.8,55.14,0,22.52,8.26,41.16,24.8,55.94,16.53,15.49,36.58,23.22,60.16,23.22h48.55v19.53h-48.55c-23.57,0-43.63,7.65-60.16,22.95-16.54,15.3-24.8,33.69-24.8,55.14s7.56,38.7,22.69,53.83c16.89,16.89,37.64,25.33,62.27,25.33Z"></path><path class="cls-20" d="m750.77,3390.04c-10.55,15.13-25.51,22.69-44.85,22.69h-56.46v-19.53h56.46c8.09,0,15.39-2.55,21.9-7.65,6.51-5.1,10.64-11.52,12.4-19.26-11.61-40.45-19-77.04-22.16-109.76-6.33-61.91-7.39-112.58-3.17-151.98,2.11-22.51,6.51-39.4,13.19-50.66,5.98-9.5,13.37-14.25,22.16-14.25h1.06c8.79,0,16.18,4.75,22.16,14.25,6.68,11.26,11.08,28.15,13.19,50.66,4.22,39.4,3.17,90.06-3.17,151.98-3.17,32.72-10.55,69.31-22.16,109.76,1.76,7.74,5.89,14.16,12.4,19.26,6.51,5.1,13.8,7.65,21.9,7.65h56.46v19.53h-56.46c-19.35,0-34.3-7.56-44.86-22.69Zm8.18-324.27c-2.29-4.4-5.01-6.6-8.18-6.6s-5.9,2.2-8.18,6.6c-2.29,4.4-3.88,9.06-4.75,13.98-.88,4.93-1.58,10.29-2.11,16.1-.53,5.8-.97,9.06-1.32,9.76-4.93,36.59-4.05,86.2,2.64,148.81,3.17,26.74,7.73,52.07,13.72,75.99,5.98-23.92,10.55-49.25,13.72-75.99,6.68-62.62,7.56-112.22,2.64-148.81-.35-.7-.79-3.96-1.32-9.76-.53-5.8-1.24-11.16-2.11-16.1-.88-4.92-2.47-9.58-4.75-13.98Z"></path><path class="cls-20" d="m951.3,3224.34h3.17c9.5,0,17.23,3.52,23.22,10.55,8.44,10.21,12.66,26.04,12.66,47.49,0,11.26-1.06,22.16-3.17,32.72-4.58,26.39-11.96,46.44-22.16,60.16,8.79,11.96,18.82,17.94,30.08,17.94h58.58v19.53h-59.1c-16.19,0-30.08-7.21-41.69-21.64-11.61,14.43-25.51,21.64-41.69,21.64h-59.1v-19.53h58.58c11.25,0,21.28-5.98,30.08-17.94-10.21-13.72-17.6-33.77-22.16-60.16-2.11-10.56-3.17-21.45-3.17-32.72,0-21.45,4.22-37.28,12.66-47.49,5.98-7.03,13.72-10.55,23.22-10.55Zm3.17,19.53h-3.17c-4.58,0-8.27,1.94-11.08,5.8-3.17,6.69-4.75,16.36-4.75,29.02,0,13.37.87,24.63,2.64,33.77,1.76,16.89,6.68,32.19,14.78,45.91,8.09-13.72,13.01-29.02,14.78-45.91,1.76-9.14,2.64-20.4,2.64-33.77,0-12.66-1.58-22.34-4.75-29.02-2.82-3.87-6.51-5.8-11.08-5.8Z"></path><path class="cls-20" d="m1126.49,3354.68v.53c-4.22,14.07-12.14,27.18-23.75,39.31-11.61,12.14-23.93,18.21-36.94,18.21h-12.14v-19.53h12.14c14.78,0,27.97-12.66,39.58-37.99,7.03-15.83,11.61-29.2,13.72-40.11,0-23.92,11.61-45.2,34.83-63.85,21.81-17.94,48.55-26.91,80.21-26.91h31.14v19.53h-31.14c-23.57,0-45.38,6.86-65.43,20.58-20.05,13.72-30.08,31.66-30.08,53.82,0,23.93,9.14,42.4,27.44,55.41,18.29,13.02,40.45,19.52,66.49,19.52h96.57v19.53h-94.99c-24.27,0-46.17-4.75-65.7-14.25-19.52-9.5-33.51-24.09-41.95-43.8Z"></path><path class="cls-20" d="m1396.14,3039.64h19.53v122.43h42.74v19.53h-42.74v176.25c0,9.85,3.34,18.21,10.03,25.07,6.68,6.86,14.95,10.29,24.8,10.29h32.19v19.53h-32.19c-19,0-33.96-7.73-44.86-23.22-10.21,15.49-24.98,23.22-44.33,23.22h-32.19v-19.53h32.19c9.84,0,18.11-3.43,24.8-10.29,6.68-6.86,10.03-15.21,10.03-25.07v-176.25h-42.74v-19.53h42.74v-122.43Z"></path></g><g class="cls-25"><path class="cls-20" d="m540.75,3393.2h107.65v19.53h-111.35c-28.5-1.05-52.6-11.43-72.3-31.13-19-19-28.5-41.51-28.5-67.55,0-18.64,5.45-36.15,16.36-52.51,10.9-16.36,25.15-28.05,42.74-35.09-17.6-8.44-31.49-19.87-41.69-34.3-11.61-16.53-17.41-34.83-17.41-54.88,0-27.09,10.46-50.13,31.4-69.13,20.93-19,45.29-28.5,73.09-28.5h45.91v19.53h-45.91c-23.57,0-43.63,7.65-60.16,22.95-16.54,15.3-24.8,33.69-24.8,55.14,0,22.52,8.26,41.16,24.8,55.94,16.53,15.49,36.58,23.22,60.16,23.22h48.55v19.53h-48.55c-23.57,0-43.63,7.65-60.16,22.95-16.54,15.3-24.8,33.69-24.8,55.14s7.56,38.7,22.69,53.83c16.89,16.89,37.64,25.33,62.27,25.33Z"></path><path class="cls-20" d="m749.72,3390.04c-10.55,15.13-25.51,22.69-44.85,22.69h-56.46v-19.53h56.46c8.09,0,15.39-2.55,21.9-7.65,6.51-5.1,10.64-11.52,12.4-19.26-11.61-40.45-19-77.04-22.16-109.76-6.33-61.91-7.39-112.58-3.17-151.98,2.11-22.51,6.51-39.4,13.19-50.66,5.98-9.5,13.37-14.25,22.16-14.25h1.06c8.79,0,16.18,4.75,22.16,14.25,6.68,11.26,11.08,28.15,13.19,50.66,4.22,39.4,3.17,90.06-3.17,151.98-3.17,32.72-10.55,69.31-22.16,109.76,1.76,7.74,5.89,14.16,12.4,19.26,6.51,5.1,13.8,7.65,21.9,7.65h56.46v19.53h-56.46c-19.35,0-34.3-7.56-44.86-22.69Zm8.18-324.27c-2.29-4.4-5.01-6.6-8.18-6.6s-5.9,2.2-8.18,6.6c-2.29,4.4-3.88,9.06-4.75,13.98-.88,4.93-1.58,10.29-2.11,16.1-.53,5.8-.97,9.06-1.32,9.76-4.93,36.59-4.05,86.2,2.64,148.81,3.17,26.74,7.73,52.07,13.72,75.99,5.98-23.92,10.55-49.25,13.72-75.99,6.68-62.62,7.56-112.22,2.64-148.81-.35-.7-.79-3.96-1.32-9.76-.53-5.8-1.24-11.16-2.11-16.1-.88-4.92-2.47-9.58-4.75-13.98Z"></path><path class="cls-20" d="m950.25,3224.34h3.17c9.5,0,17.23,3.52,23.22,10.55,8.44,10.21,12.66,26.04,12.66,47.49,0,11.26-1.06,22.16-3.17,32.72-4.58,26.39-11.96,46.44-22.16,60.16,8.79,11.96,18.82,17.94,30.08,17.94h58.58v19.53h-59.1c-16.19,0-30.08-7.21-41.69-21.64-11.61,14.43-25.51,21.64-41.69,21.64h-59.1v-19.53h58.58c11.25,0,21.28-5.98,30.08-17.94-10.21-13.72-17.6-33.77-22.16-60.16-2.11-10.56-3.17-21.45-3.17-32.72,0-21.45,4.22-37.28,12.66-47.49,5.98-7.03,13.72-10.55,23.22-10.55Zm3.17,19.53h-3.17c-4.58,0-8.27,1.94-11.08,5.8-3.17,6.69-4.75,16.36-4.75,29.02,0,13.37.87,24.63,2.64,33.77,1.76,16.89,6.68,32.19,14.78,45.91,8.09-13.72,13.01-29.02,14.78-45.91,1.76-9.14,2.64-20.4,2.64-33.77,0-12.66-1.58-22.34-4.75-29.02-2.82-3.87-6.51-5.8-11.08-5.8Z"></path><path class="cls-20" d="m1125.44,3354.68v.53c-4.22,14.07-12.14,27.18-23.75,39.31-11.61,12.14-23.93,18.21-36.94,18.21h-12.14v-19.53h12.14c14.78,0,27.97-12.66,39.58-37.99,7.03-15.83,11.61-29.2,13.72-40.11,0-23.92,11.61-45.2,34.83-63.85,21.81-17.94,48.55-26.91,80.21-26.91h31.14v19.53h-31.14c-23.57,0-45.38,6.86-65.43,20.58-20.05,13.72-30.08,31.66-30.08,53.82,0,23.93,9.14,42.4,27.44,55.41,18.29,13.02,40.45,19.52,66.49,19.52h96.57v19.53h-94.99c-24.27,0-46.17-4.75-65.7-14.25-19.52-9.5-33.51-24.09-41.95-43.8Z"></path><path class="cls-20" d="m1395.09,3039.64h19.53v122.43h42.74v19.53h-42.74v176.25c0,9.85,3.34,18.21,10.03,25.07,6.68,6.86,14.95,10.29,24.8,10.29h32.19v19.53h-32.19c-19,0-33.96-7.73-44.86-23.22-10.21,15.49-24.98,23.22-44.33,23.22h-32.19v-19.53h32.19c9.84,0,18.11-3.43,24.8-10.29,6.68-6.86,10.03-15.21,10.03-25.07v-176.25h-42.74v-19.53h42.74v-122.43Z"></path></g></svg> 