<?xml version="1.0" encoding="UTF-8"?> <svg xmlns="http://www.w3.org/2000/svg" xmlns:xlink="http://www.w3.org/1999/xlink" id="Layer_1" viewBox="0 0 1920 3580"><defs><style>.cls-1,.cls-2,.cls-3{fill:none;}.cls-4{clip-path:url(#clippath);}.cls-5{fill:#fff;}.cls-6{fill:#937eb9;}.cls-7{fill:#937fbb;}.cls-8{fill:#161b31;}.cls-9{clip-path:url(#clippath-1);}.cls-10{clip-path:url(#clippath-3);}.cls-11{clip-path:url(#clippath-2);}.cls-2{stroke:#a797c9;stroke-dasharray:0 0 1.74 17.45;stroke-linecap:round;stroke-width:7px;}.cls-2,.cls-3{stroke-miterlimit:10;}.cls-3{stroke:#566789;stroke-width:3.5px;}</style><clipPath id="clippath"><rect class="cls-1" x="688.73" y="1849.96" width="148.59" height="148.59" rx="73.9" ry="73.9"></rect></clipPath><clipPath id="clippath-1"><rect class="cls-1" x="1273.42" y="1993.88" width="133.66" height="133.66" rx="66.83" ry="66.83" transform="translate(-911.85 1075.41) rotate(-33.33)"></rect></clipPath><clipPath id="clippath-2"><rect class="cls-1" x="1364.51" y="1239.91" width="104.82" height="104.82" rx="52.41" ry="52.41"></rect></clipPath><clipPath id="clippath-3"><circle class="cls-1" cx="1629.15" cy="2870.52" r="136.24"></circle></clipPath></defs><rect class="cls-8" width="1920" height="3580"></rect><line class="cls-3" y1="1914.7" x2="1920" y2="1914.7"></line><line class="cls-3" y1="2073.26" x2="1920" y2="2073.26"></line><line class="cls-3" x1="1920" y1="2261.41" y2="2261.41"></line><line class="cls-3" y1="2424.72" x2="1920" y2="2424.72"></line><line class="cls-3" y1="2775.29" x2="1920" y2="2775.29"></line><line class="cls-3" y1="2933.84" x2="1920" y2="2933.84"></line><line class="cls-3" x1="1920" y1="3121.99" y2="3121.99"></line><line class="cls-3" y1="3285.31" x2="1920" y2="3285.31"></line><line class="cls-3" y1="199.01" x2="1920" y2="199.01"></line><line class="cls-3" y1="357.56" x2="1920" y2="357.56"></line><line class="cls-3" x1="1920" y1="545.72" y2="545.72"></line><line class="cls-3" y1="709.03" x2="1920" y2="709.03"></line><line class="cls-3" y1="1055.6" x2="1920" y2="1055.6"></line><line class="cls-3" y1="1214.15" x2="1920" y2="1214.15"></line><line class="cls-3" x1="1920" y1="1402.3" y2="1402.3"></line><line class="cls-3" y1="1565.62" x2="1920" y2="1565.62"></line><polygon class="cls-6" points="915.9 3286.31 968.23 3286.31 1145.67 2773.83 1093.33 2773.83 915.9 3286.31"></polygon><line class="cls-2" x1="512.07" y1="3362.7" x2="510.89" y2="3138.07"></line><line class="cls-2" x1="1033.59" y1="2524.05" x2="1032.4" y2="2278"></line><line class="cls-2" x1="763.28" y1="1849.96" x2="762.09" y2="1783.51"></line><line class="cls-2" x1="1340.93" y1="1977.93" x2="1339.66" y2="1787.7"></line><line class="cls-2" x1="1374.16" y1="1669.7" x2="1372.97" y2="1338.73"></line><line class="cls-2" x1="970.88" y1="1030.38" x2="969.8" y2="959.59"></line><line class="cls-2" x1="457.33" y1="1106.84" x2="456.15" y2="967.59"></line><line class="cls-2" x1="1148.51" y1="744.71" x2="1147.32" y2="560.81"></line><path class="cls-5" d="m981.43,2708.42h3.23l11.51,20.92h.08l11.51-20.92h3.23v32.77h-2.94v-27.85h-.04l-10.75,19.91h-2.06l-10.8-19.91h-.04v27.85h-2.94v-32.77Z"></path><path class="cls-5" d="m1017.93,2730.69c0-6.22,3.32-11.05,10.38-11.05,6.59,0,10.25,4.83,10.25,11.05s-3.7,11.05-10.29,11.05c-7.27,0-10.33-4.83-10.33-11.05Zm17.56,0c0-5.33-2.9-8.49-7.22-8.49-4.75,0-7.27,3.15-7.27,8.49s2.56,8.49,7.27,8.49c4.33,0,7.22-3.15,7.22-8.49Z"></path><path class="cls-5" d="m1042.75,2730.73c0-7.1,4.28-11.09,10.04-11.09,3.7,0,6.22,1.6,7.31,3.74h.04v-14.96h2.94v32.77h-1.97l-.67-3.61h-.08c-1.18,2.31-3.95,4.16-7.77,4.16-6.3,0-9.83-3.99-9.83-11.01Zm17.64-.5c0-5.5-3.36-8.07-7.35-8.07-3.11,0-7.14,1.47-7.14,8.4s3.61,8.61,7.14,8.61c4.24,0,7.35-2.73,7.35-8.95Z"></path><path class="cls-5" d="m1087.69,2731.69h-15.96c.17,4.79,2.48,7.48,6.93,7.48,3.82,0,5.67-1.43,5.97-4.83h2.98c-.29,4.24-3.28,7.39-9.03,7.39-7.06,0-9.83-4.66-9.83-10.88s3.23-11.22,10-11.22,8.95,3.99,8.95,10.21v1.85Zm-3.11-2.98c0-4.45-1.72-6.55-5.92-6.55s-6.55,2.65-6.89,6.97h12.81v-.42Z"></path><path class="cls-5" d="m1093.57,2720.18h2.6l.29,3.91c1.01-2.14,3.07-4.45,6.76-4.45,1.26,0,2.18.21,3.02.55v3.15c-1.13-.5-2.1-.76-3.4-.76-3.74,0-6.34,2.81-6.34,5.75v12.85h-2.94v-21Z"></path><path class="cls-5" d="m1109.19,2735.39c0-3.95,2.23-6.09,7.86-6.09h6.34v-1.72c0-2.98-1.26-5.42-5.46-5.42-3.95,0-5.33,1.51-5.33,4.12v.88h-2.98v-.84c0-5,4.2-6.68,8.32-6.68,5.8,0,8.4,2.86,8.4,8.44v13.11h-2.06l-.55-2.98h-.08c-1.26,1.89-3.7,3.53-7.35,3.53-4.92,0-7.1-2.31-7.1-6.34Zm14.2-1.85v-1.76h-7.01c-2.65,0-4.03.92-4.03,3.61,0,2.35,1.26,3.87,4.5,3.87,4.16,0,6.55-2.14,6.55-5.71Z"></path><path class="cls-5" d="m1144.43,2738.5v2.6c-.76.21-2.14.59-4.03.59-3.82,0-6.34-1.6-6.34-6.89v-12.18h-4.16v-2.44h4.16v-6.05l2.94-1.43v7.48h5.92v2.44h-5.92v11.8c0,2.81.76,4.58,3.4,4.58,1.6,0,3.23-.29,4.03-.5Z"></path><path class="cls-5" d="m1165.9,2731.69h-15.96c.17,4.79,2.48,7.48,6.93,7.48,3.82,0,5.67-1.43,5.97-4.83h2.98c-.29,4.24-3.28,7.39-9.03,7.39-7.06,0-9.83-4.66-9.83-10.88s3.23-11.22,10-11.22,8.95,3.99,8.95,10.21v1.85Zm-3.11-2.98c0-4.45-1.72-6.55-5.92-6.55s-6.55,2.65-6.89,6.97h12.81v-.42Z"></path><path class="cls-5" d="m1179.54,2734.76v-1.18h2.94v1.13c0,2.86,2.14,4.49,5.96,4.49s5.8-1.01,5.8-3.78c0-2.06-1.01-2.81-3.86-3.32l-4.62-.84c-3.02-.55-5.54-2.02-5.54-5.5,0-3.15,2.35-6.13,8.4-6.13s8.4,3.02,8.4,7.23v.88h-2.98v-.76c0-3.44-2.14-4.91-5.42-4.91-3.95,0-5.33,1.34-5.33,3.36s1.01,2.86,3.91,3.4l4.03.76c4.12.76,6.09,1.93,6.09,5.59,0,4.58-4.12,6.55-8.78,6.55-7.31,0-8.99-3.28-8.99-6.97Z"></path><path class="cls-5" d="m1203.19,2708.42h2.94v32.77h-2.94v-32.77Z"></path><path class="cls-5" d="m1212.22,2735.39c0-3.95,2.23-6.09,7.86-6.09h6.34v-1.72c0-2.98-1.26-5.42-5.46-5.42-3.95,0-5.33,1.51-5.33,4.12v.88h-2.98v-.84c0-5,4.2-6.68,8.32-6.68,5.8,0,8.4,2.86,8.4,8.44v13.11h-2.06l-.55-2.98h-.08c-1.26,1.89-3.7,3.53-7.35,3.53-4.92,0-7.1-2.31-7.1-6.34Zm14.2-1.85v-1.76h-7.01c-2.65,0-4.03.92-4.03,3.61,0,2.35,1.26,3.87,4.5,3.87,4.16,0,6.55-2.14,6.55-5.71Z"></path><path class="cls-5" d="m1236.71,2720.18h2.6l.29,3.49c1.01-2.14,3.28-4.03,7.35-4.03,4.75,0,7.77,2.52,7.77,7.94v13.61h-2.94v-13.27c0-4.33-2.14-5.71-5.5-5.71-3.82,0-6.64,2.69-6.64,5.63v13.36h-2.94v-21Z"></path><path class="cls-5" d="m1273.04,2738.5v2.6c-.76.21-2.14.59-4.03.59-3.82,0-6.34-1.6-6.34-6.89v-12.18h-4.16v-2.44h4.16v-6.05l2.94-1.43v7.48h5.92v2.44h-5.92v11.8c0,2.81.76,4.58,3.4,4.58,1.6,0,3.23-.29,4.03-.5Z"></path><path class="cls-5" d="m300.93,3393.72c0-12.01,6.76-17.27,14.74-17.27,6.97,0,12.39,3.74,12.39,12.01v.8h-2.86v-.92c0-5.92-3.78-9.24-9.45-9.24-6.72,0-11.76,4.58-11.76,14.33s5.04,14.24,11.72,14.24c5.38,0,9.54-2.86,9.54-9.2v-.59h2.77v.42c0,8.02-5.33,12.01-12.56,12.01-7.98,0-14.53-4.87-14.53-16.59Z"></path><path class="cls-5" d="m332.68,3399.26c0-6.22,3.32-11.05,10.38-11.05,6.59,0,10.25,4.83,10.25,11.05s-3.7,11.05-10.29,11.05c-7.27,0-10.33-4.83-10.33-11.05Zm17.56,0c0-5.33-2.9-8.49-7.22-8.49-4.75,0-7.27,3.15-7.27,8.49s2.56,8.49,7.27,8.49c4.33,0,7.22-3.15,7.22-8.49Z"></path><path class="cls-5" d="m359.19,3388.76h2.6l.29,3.49c1.01-2.14,3.28-4.03,7.35-4.03,4.75,0,7.77,2.52,7.77,7.94v13.61h-2.94v-13.27c0-4.33-2.14-5.71-5.5-5.71-3.82,0-6.64,2.69-6.64,5.63v13.36h-2.94v-21Z"></path><path class="cls-5" d="m380.35,3388.8v-.04h3.36l7.35,17.98h.08l7.1-17.98h3.07v.04l-8.74,20.96h-3.02l-9.2-20.96Z"></path><path class="cls-5" d="m422.15,3400.27h-15.96c.17,4.79,2.48,7.48,6.93,7.48,3.82,0,5.67-1.43,5.97-4.83h2.98c-.29,4.24-3.28,7.39-9.03,7.39-7.06,0-9.83-4.66-9.83-10.88s3.23-11.22,10-11.22,8.95,3.99,8.95,10.21v1.85Zm-3.11-2.98c0-4.45-1.72-6.55-5.92-6.55s-6.55,2.65-6.89,6.97h12.81v-.42Z"></path><path class="cls-5" d="m428.02,3388.76h2.6l.29,3.49c1.01-2.14,3.28-4.03,7.35-4.03,4.75,0,7.77,2.52,7.77,7.94v13.61h-2.94v-13.27c0-4.33-2.14-5.71-5.5-5.71-3.82,0-6.64,2.69-6.64,5.63v13.36h-2.94v-21Z"></path><path class="cls-5" d="m464.36,3407.08v2.6c-.76.21-2.14.59-4.03.59-3.82,0-6.34-1.6-6.34-6.89v-12.18h-4.16v-2.44h4.16v-6.05l2.94-1.43v7.48h5.92v2.44h-5.92v11.8c0,2.81.76,4.58,3.4,4.58,1.6,0,3.23-.29,4.03-.5Z"></path><path class="cls-5" d="m469.18,3377h2.98v6.51h-2.98v-6.51Zm0,11.76h2.94v21h-2.94v-21Z"></path><path class="cls-5" d="m477.84,3399.26c0-6.22,3.32-11.05,10.38-11.05,6.59,0,10.25,4.83,10.25,11.05s-3.7,11.05-10.29,11.05c-7.27,0-10.33-4.83-10.33-11.05Zm17.56,0c0-5.33-2.9-8.49-7.22-8.49-4.75,0-7.27,3.15-7.27,8.49s2.56,8.49,7.27,8.49c4.33,0,7.22-3.15,7.22-8.49Z"></path><path class="cls-5" d="m504.34,3388.76h2.6l.29,3.49c1.01-2.14,3.28-4.03,7.35-4.03,4.75,0,7.77,2.52,7.77,7.94v13.61h-2.94v-13.27c0-4.33-2.14-5.71-5.5-5.71-3.82,0-6.64,2.69-6.64,5.63v13.36h-2.94v-21Z"></path><path class="cls-5" d="m528.45,3403.97c0-3.95,2.23-6.09,7.86-6.09h6.34v-1.72c0-2.98-1.26-5.42-5.46-5.42-3.95,0-5.33,1.51-5.33,4.12v.88h-2.98v-.84c0-5,4.2-6.68,8.32-6.68,5.8,0,8.4,2.86,8.4,8.44v13.11h-2.06l-.55-2.98h-.08c-1.26,1.89-3.7,3.53-7.35,3.53-4.92,0-7.1-2.31-7.1-6.34Zm14.2-1.85v-1.76h-7.01c-2.65,0-4.03.92-4.03,3.61,0,2.35,1.26,3.86,4.5,3.86,4.16,0,6.55-2.14,6.55-5.71Z"></path><path class="cls-5" d="m552.93,3377h2.94v32.77h-2.94v-32.77Z"></path><path class="cls-5" d="m570.99,3403.34v-1.18h2.94v1.13c0,2.86,2.14,4.5,5.96,4.5s5.8-1.01,5.8-3.78c0-2.06-1.01-2.81-3.86-3.32l-4.62-.84c-3.02-.55-5.54-2.02-5.54-5.5,0-3.15,2.35-6.13,8.4-6.13s8.4,3.02,8.4,7.22v.88h-2.98v-.76c0-3.44-2.14-4.91-5.42-4.91-3.95,0-5.33,1.34-5.33,3.36s1.01,2.86,3.91,3.4l4.03.76c4.12.76,6.09,1.93,6.09,5.59,0,4.58-4.12,6.55-8.78,6.55-7.31,0-8.99-3.28-8.99-6.97Z"></path><path class="cls-5" d="m605.6,3407.08v2.6c-.76.21-2.14.59-4.03.59-3.82,0-6.34-1.6-6.34-6.89v-12.18h-4.16v-2.44h4.16v-6.05l2.94-1.43v7.48h5.92v2.44h-5.92v11.8c0,2.81.76,4.58,3.4,4.58,1.6,0,3.23-.29,4.03-.5Z"></path><path class="cls-5" d="m610.64,3388.76l6.89,17.98h.08l7.14-17.98h3.07v.04l-8.86,20.84-3.11,8.53h-2.98v-.04l3.19-8.36-8.78-20.96v-.04h3.36Z"></path><path class="cls-5" d="m632.02,3377h2.94v32.77h-2.94v-32.77Z"></path><path class="cls-5" d="m659.57,3400.27h-15.96c.17,4.79,2.48,7.48,6.93,7.48,3.82,0,5.67-1.43,5.97-4.83h2.98c-.29,4.24-3.28,7.39-9.03,7.39-7.06,0-9.83-4.66-9.83-10.88s3.23-11.22,10-11.22,8.95,3.99,8.95,10.21v1.85Zm-3.11-2.98c0-4.45-1.72-6.55-5.92-6.55s-6.55,2.65-6.89,6.97h12.81v-.42Z"></path><path class="cls-5" d="m676.79,3387.46h-3.36v-5.08c0-3.95.88-5.29,3.4-5.97l.67,1.85c-1.76.67-2.06,1.09-2.06,3.78v.34h1.34v5.08Zm5.92,0h-3.36v-5.08c0-3.95.88-5.29,3.4-5.97l.67,1.85c-1.76.67-2.06,1.09-2.06,3.78v.34h1.34v5.08Z"></path><path class="cls-5" d="m700.06,3407.08v2.6c-.76.21-2.14.59-4.03.59-3.82,0-6.34-1.6-6.34-6.89v-12.18h-4.16v-2.44h4.16v-6.05l2.94-1.43v7.48h5.92v2.44h-5.92v11.8c0,2.81.76,4.58,3.4,4.58,1.6,0,3.23-.29,4.03-.5Z"></path><path class="cls-5" d="m701.95,3386.2c1.76-.67,2.06-1.09,2.06-3.78v-.34h-1.34v-5.08h3.36v5.08c0,3.95-.88,5.29-3.4,5.97l-.67-1.85Zm5.92,0c1.76-.67,2.06-1.09,2.06-3.78v-.34h-1.34v-5.08h3.36v5.08c0,3.95-.88,5.29-3.4,5.97l-.67-1.85Z"></path><path class="cls-5" d="m788.09,859.61h8.36c11.05,0,17.39,4.54,17.39,16.42s-6.26,16.34-17.18,16.34h-8.57v-32.77Zm8.65,30.12c9.41,0,14.03-3.74,14.03-13.78s-4.49-13.74-14.07-13.74h-5.67v27.51h5.71Z"></path><path class="cls-5" d="m837.4,882.88h-15.96c.17,4.79,2.48,7.48,6.93,7.48,3.82,0,5.67-1.43,5.97-4.83h2.98c-.29,4.24-3.28,7.39-9.03,7.39-7.06,0-9.83-4.66-9.83-10.88s3.23-11.22,10-11.22,8.95,3.99,8.95,10.21v1.85Zm-3.11-2.98c0-4.45-1.72-6.55-5.92-6.55s-6.55,2.65-6.89,6.97h12.81v-.42Z"></path><path class="cls-5" d="m841.59,882.04c0-6.38,3.23-11.22,10-11.22s8.95,3.91,8.95,8.95v.42h-3.11v-.63c0-3.82-1.64-6.09-5.84-6.09-4.75,0-7.02,3.11-7.02,8.4,0,5.63,2.39,8.49,6.93,8.49,3.82,0,5.84-1.85,5.92-5.67h3.03c-.08,4.66-3.15,8.23-9.03,8.23-7.22,0-9.83-4.75-9.83-10.88Z"></path><path class="cls-5" d="m864.73,881.87c0-6.22,3.32-11.05,10.38-11.05,6.59,0,10.25,4.83,10.25,11.05s-3.7,11.05-10.29,11.05c-7.27,0-10.33-4.83-10.33-11.05Zm17.56,0c0-5.33-2.9-8.49-7.22-8.49-4.75,0-7.27,3.15-7.27,8.49s2.56,8.49,7.27,8.49c4.33,0,7.22-3.15,7.22-8.49Z"></path><path class="cls-5" d="m891.24,871.37h2.61l.29,3.91c1.01-2.14,3.07-4.45,6.76-4.45,1.26,0,2.19.21,3.03.55v3.15c-1.13-.5-2.1-.76-3.4-.76-3.74,0-6.34,2.81-6.34,5.75v12.85h-2.94v-21Z"></path><path class="cls-5" d="m906.86,886.58c0-3.95,2.23-6.09,7.86-6.09h6.34v-1.72c0-2.98-1.26-5.42-5.46-5.42-3.95,0-5.33,1.51-5.33,4.12v.88h-2.98v-.84c0-5,4.2-6.68,8.32-6.68,5.8,0,8.4,2.86,8.4,8.44v13.11h-2.06l-.55-2.98h-.08c-1.26,1.89-3.7,3.53-7.35,3.53-4.92,0-7.1-2.31-7.1-6.34Zm14.2-1.85v-1.76h-7.01c-2.65,0-4.03.92-4.03,3.61,0,2.35,1.26,3.86,4.49,3.86,4.16,0,6.55-2.14,6.55-5.71Z"></path><path class="cls-5" d="m942.1,889.68v2.6c-.76.21-2.14.59-4.03.59-3.82,0-6.34-1.6-6.34-6.89v-12.18h-4.16v-2.44h4.16v-6.05l2.94-1.43v7.48h5.92v2.44h-5.92v11.8c0,2.81.76,4.58,3.4,4.58,1.6,0,3.23-.29,4.03-.5Z"></path><path class="cls-5" d="m946.93,859.61h2.98v6.51h-2.98v-6.51Zm0,11.76h2.94v21h-2.94v-21Z"></path><path class="cls-5" d="m954.11,871.41v-.04h3.36l7.35,17.98h.08l7.1-17.98h3.07v.04l-8.74,20.96h-3.02l-9.2-20.96Z"></path><path class="cls-5" d="m995.9,882.88h-15.96c.17,4.79,2.48,7.48,6.93,7.48,3.82,0,5.67-1.43,5.96-4.83h2.98c-.29,4.24-3.28,7.39-9.03,7.39-7.06,0-9.83-4.66-9.83-10.88s3.23-11.22,10-11.22,8.95,3.99,8.95,10.21v1.85Zm-3.11-2.98c0-4.45-1.72-6.55-5.92-6.55s-6.55,2.65-6.89,6.97h12.81v-.42Z"></path><path class="cls-5" d="m1011.02,884.98v-13.61h2.94v13.27c0,4.33,2.14,5.71,5.42,5.71,3.74,0,6.55-2.69,6.55-5.63v-13.36h2.94v21h-2.61l-.25-3.36h-.08c-.97,2.02-3.23,3.91-7.22,3.91-4.66,0-7.69-2.52-7.69-7.94Z"></path><path class="cls-5" d="m1036.22,871.37h2.39l.34,3.86h.08c1.13-2.48,4.03-4.41,7.86-4.41,6.3,0,9.66,3.99,9.66,11.01s-4.29,11.09-9.87,11.09c-3.78,0-6.38-1.6-7.43-3.7h-.08v11.55h-2.94v-29.41Zm17.18,10.63c0-7.18-3.4-8.61-6.93-8.61-4.24,0-7.56,2.73-7.56,8.44,0,6.01,3.45,8.57,7.44,8.57,3.03,0,7.06-1.47,7.06-8.4Z"></path><path class="cls-5" d="m1062.43,871.37h2.39l.34,3.86h.08c1.13-2.48,4.03-4.41,7.86-4.41,6.3,0,9.66,3.99,9.66,11.01s-4.29,11.09-9.87,11.09c-3.78,0-6.38-1.6-7.44-3.7h-.08v11.55h-2.94v-29.41Zm17.18,10.63c0-7.18-3.4-8.61-6.93-8.61-4.24,0-7.56,2.73-7.56,8.44,0,6.01,3.45,8.57,7.44,8.57,3.02,0,7.06-1.47,7.06-8.4Z"></path><path class="cls-5" d="m1105.9,882.88h-15.96c.17,4.79,2.48,7.48,6.93,7.48,3.82,0,5.67-1.43,5.97-4.83h2.98c-.29,4.24-3.28,7.39-9.03,7.39-7.06,0-9.83-4.66-9.83-10.88s3.23-11.22,10-11.22,8.95,3.99,8.95,10.21v1.85Zm-3.11-2.98c0-4.45-1.72-6.55-5.92-6.55s-6.55,2.65-6.89,6.97h12.81v-.42Z"></path><path class="cls-5" d="m1111.78,871.37h2.6l.29,3.91c1.01-2.14,3.07-4.45,6.76-4.45,1.26,0,2.18.21,3.02.55v3.15c-1.13-.5-2.1-.76-3.4-.76-3.74,0-6.34,2.81-6.34,5.75v12.85h-2.94v-21Z"></path><path class="cls-5" d="m1126.77,882.04c0-6.38,3.23-11.22,10-11.22s8.95,3.91,8.95,8.95v.42h-3.11v-.63c0-3.82-1.64-6.09-5.84-6.09-4.75,0-7.02,3.11-7.02,8.4,0,5.63,2.39,8.49,6.93,8.49,3.82,0,5.84-1.85,5.92-5.67h3.03c-.08,4.66-3.15,8.23-9.03,8.23-7.22,0-9.83-4.75-9.83-10.88Z"></path><path class="cls-5" d="m1150.12,886.58c0-3.95,2.23-6.09,7.86-6.09h6.34v-1.72c0-2.98-1.26-5.42-5.46-5.42-3.95,0-5.33,1.51-5.33,4.12v.88h-2.98v-.84c0-5,4.2-6.68,8.32-6.68,5.8,0,8.4,2.86,8.4,8.44v13.11h-2.06l-.55-2.98h-.08c-1.26,1.89-3.7,3.53-7.35,3.53-4.92,0-7.1-2.31-7.1-6.34Zm14.2-1.85v-1.76h-7.01c-2.65,0-4.03.92-4.03,3.61,0,2.35,1.26,3.86,4.49,3.86,4.16,0,6.55-2.14,6.55-5.71Z"></path><path class="cls-5" d="m1172.72,885.95v-1.18h2.94v1.13c0,2.86,2.14,4.5,5.96,4.5s5.8-1.01,5.8-3.78c0-2.06-1.01-2.81-3.87-3.32l-4.62-.84c-3.02-.55-5.54-2.02-5.54-5.5,0-3.15,2.35-6.13,8.4-6.13s8.4,3.02,8.4,7.23v.88h-2.98v-.76c0-3.44-2.14-4.91-5.42-4.91-3.95,0-5.34,1.34-5.34,3.36s1.01,2.86,3.91,3.4l4.03.76c4.12.76,6.09,1.93,6.09,5.59,0,4.58-4.12,6.55-8.78,6.55-7.31,0-8.99-3.28-8.99-6.97Z"></path><path class="cls-5" d="m1213.63,882.88h-15.96c.17,4.79,2.48,7.48,6.93,7.48,3.82,0,5.67-1.43,5.97-4.83h2.98c-.29,4.24-3.28,7.39-9.03,7.39-7.06,0-9.83-4.66-9.83-10.88s3.23-11.22,10-11.22,8.95,3.99,8.95,10.21v1.85Zm-3.11-2.98c0-4.45-1.72-6.55-5.92-6.55s-6.55,2.65-6.89,6.97h12.81v-.42Z"></path><path class="cls-5" d="m787.04,908.45h2.94v32.77h-2.94v-32.77Z"></path><path class="cls-5" d="m814.59,931.73h-15.96c.17,4.79,2.48,7.48,6.93,7.48,3.82,0,5.67-1.43,5.96-4.83h2.98c-.29,4.24-3.28,7.39-9.03,7.39-7.06,0-9.83-4.66-9.83-10.88s3.23-11.22,10-11.22,8.95,3.99,8.95,10.21v1.85Zm-3.11-2.98c0-4.45-1.72-6.55-5.92-6.55s-6.55,2.65-6.89,6.97h12.81v-.42Z"></path><path class="cls-5" d="m821.05,934.83v-12.18h-4.16v-2.44h4.16v-6.05l2.94-1.43v7.48h11.85v-6.05l2.94-1.43v7.48h5.92v2.44h-5.92v11.8c0,2.81.76,4.58,3.4,4.58,1.6,0,3.24-.29,4.03-.5v2.6c-.76.21-2.14.59-4.03.59-3.82,0-6.34-1.6-6.34-6.89v-12.18h-11.85v11.8c0,2.81.76,4.58,3.4,4.58,1.6,0,3.23-.29,4.03-.5v2.6c-.76.21-2.14.59-4.03.59-3.82,0-6.34-1.6-6.34-6.89Z"></path><path class="cls-5" d="m867.68,931.73h-15.96c.17,4.79,2.48,7.48,6.93,7.48,3.82,0,5.67-1.43,5.96-4.83h2.98c-.29,4.24-3.28,7.39-9.03,7.39-7.06,0-9.83-4.66-9.83-10.88s3.23-11.22,10-11.22,8.95,3.99,8.95,10.21v1.85Zm-3.11-2.98c0-4.45-1.72-6.55-5.92-6.55s-6.55,2.65-6.89,6.97h12.81v-.42Z"></path><path class="cls-5" d="m873.55,920.22h2.6l.29,3.91c1.01-2.14,3.07-4.45,6.76-4.45,1.26,0,2.18.21,3.02.55v3.15c-1.13-.5-2.1-.76-3.4-.76-3.74,0-6.34,2.81-6.34,5.75v12.85h-2.94v-21Z"></path><path class="cls-5" d="m888.76,934.79v-1.18h2.94v1.13c0,2.86,2.14,4.5,5.96,4.5s5.8-1.01,5.8-3.78c0-2.06-1.01-2.81-3.86-3.32l-4.62-.84c-3.03-.55-5.54-2.02-5.54-5.5,0-3.15,2.35-6.13,8.4-6.13s8.4,3.02,8.4,7.23v.88h-2.98v-.76c0-3.44-2.14-4.91-5.42-4.91-3.95,0-5.33,1.34-5.33,3.36s1.01,2.86,3.91,3.4l4.03.76c4.12.76,6.09,1.93,6.09,5.59,0,4.58-4.12,6.55-8.78,6.55-7.31,0-8.99-3.28-8.99-6.97Z"></path><path class="cls-5" d="m925.01,944.24c0,3.53-1.68,5.84-5.04,5.84-1.18,0-2.02-.13-2.94-.38v-2.6c.8.17,1.47.29,2.27.29,1.93,0,2.77-1.26,2.77-3.65v-23.52h2.94v24.03Zm-2.94-35.79h2.98v6.51h-2.98v-6.51Z"></path><path class="cls-5" d="m930.72,930.72c0-6.22,3.32-11.05,10.38-11.05,6.59,0,10.25,4.83,10.25,11.05s-3.7,11.05-10.29,11.05c-7.27,0-10.33-4.83-10.33-11.05Zm17.56,0c0-5.33-2.9-8.49-7.22-8.49-4.75,0-7.27,3.15-7.27,8.49s2.56,8.49,7.27,8.49c4.33,0,7.22-3.15,7.22-8.49Z"></path><path class="cls-5" d="m957.22,908.45h2.98v6.51h-2.98v-6.51Zm0,11.76h2.94v21h-2.94v-21Z"></path><path class="cls-5" d="m967.55,920.22h2.6l.29,3.49c1.01-2.14,3.28-4.03,7.35-4.03,4.75,0,7.77,2.52,7.77,7.94v13.61h-2.94v-13.27c0-4.33-2.14-5.71-5.5-5.71-3.82,0-6.64,2.69-6.64,5.63v13.36h-2.94v-21Z"></path><path class="cls-5" d="m999.85,920.26v-.04h2.98l5.75,17.48h.08l6.3-17.48h2.69l6.17,17.48h.08l5.76-17.48h2.86v.04l-7.18,20.96h-3.03l-5.96-17.06h-.08l-6.22,17.06h-3.03l-7.18-20.96Z"></path><path class="cls-5" d="m1037.36,908.45h2.98v6.51h-2.98v-6.51Zm0,11.76h2.94v21h-2.94v-21Z"></path><path class="cls-5" d="m1058.65,938.53v2.6c-.76.21-2.14.59-4.03.59-3.82,0-6.34-1.6-6.34-6.89v-12.18h-4.16v-2.44h4.16v-6.05l2.94-1.43v7.48h5.92v2.44h-5.92v11.8c0,2.81.76,4.58,3.4,4.58,1.6,0,3.23-.29,4.03-.5Z"></path><path class="cls-5" d="m1063.48,908.45h2.94v15.16c1.05-2.1,3.28-3.95,7.31-3.95,4.75,0,7.77,2.52,7.77,7.94v13.61h-2.94v-13.27c0-4.33-2.14-5.71-5.5-5.71-3.82,0-6.64,2.69-6.64,5.63v13.36h-2.94v-32.77Z"></path><path class="cls-5" d="m1098.51,908.45h2.94v32.77h-2.94v-32.77Z"></path><path class="cls-5" d="m1107.12,930.72c0-6.22,3.32-11.05,10.38-11.05,6.6,0,10.25,4.83,10.25,11.05s-3.7,11.05-10.29,11.05c-7.27,0-10.33-4.83-10.33-11.05Zm17.56,0c0-5.33-2.9-8.49-7.22-8.49-4.75,0-7.27,3.15-7.27,8.49s2.56,8.49,7.27,8.49c4.33,0,7.22-3.15,7.22-8.49Z"></path><path class="cls-5" d="m1130.05,920.26v-.04h2.98l5.76,17.48h.08l6.3-17.48h2.69l6.18,17.48h.08l5.75-17.48h2.86v.04l-7.18,20.96h-3.02l-5.96-17.06h-.08l-6.22,17.06h-3.02l-7.18-20.96Z"></path><path class="cls-5" d="m1183.98,931.73h-15.96c.17,4.79,2.48,7.48,6.93,7.48,3.82,0,5.67-1.43,5.97-4.83h2.98c-.29,4.24-3.28,7.39-9.03,7.39-7.06,0-9.83-4.66-9.83-10.88s3.23-11.22,10-11.22,8.95,3.99,8.95,10.21v1.85Zm-3.11-2.98c0-4.45-1.72-6.55-5.92-6.55s-6.55,2.65-6.89,6.97h12.81v-.42Z"></path><path class="cls-5" d="m1189.86,920.22h2.6l.29,3.91c1.01-2.14,3.07-4.45,6.76-4.45,1.26,0,2.18.21,3.02.55v3.15c-1.13-.5-2.1-.76-3.4-.76-3.74,0-6.34,2.81-6.34,5.75v12.85h-2.94v-21Z"></path><path class="cls-5" d="m1204.85,930.89c0-6.38,3.23-11.22,10-11.22s8.95,3.91,8.95,8.95v.42h-3.11v-.63c0-3.82-1.64-6.09-5.84-6.09-4.75,0-7.02,3.11-7.02,8.4,0,5.63,2.39,8.49,6.93,8.49,3.82,0,5.84-1.85,5.92-5.67h3.03c-.08,4.66-3.15,8.23-9.03,8.23-7.22,0-9.83-4.75-9.83-10.88Z"></path><path class="cls-5" d="m1228.2,935.42c0-3.95,2.23-6.09,7.86-6.09h6.34v-1.72c0-2.98-1.26-5.42-5.46-5.42-3.95,0-5.33,1.51-5.33,4.12v.88h-2.98v-.84c0-5,4.2-6.68,8.32-6.68,5.8,0,8.4,2.86,8.4,8.44v13.11h-2.06l-.55-2.98h-.08c-1.26,1.89-3.7,3.53-7.35,3.53-4.92,0-7.1-2.31-7.1-6.34Zm14.2-1.85v-1.76h-7.01c-2.65,0-4.03.92-4.03,3.61,0,2.35,1.26,3.86,4.49,3.86,4.16,0,6.55-2.14,6.55-5.71Z"></path><path class="cls-5" d="m1250.8,934.79v-1.18h2.94v1.13c0,2.86,2.14,4.5,5.96,4.5s5.8-1.01,5.8-3.78c0-2.06-1.01-2.81-3.87-3.32l-4.62-.84c-3.02-.55-5.54-2.02-5.54-5.5,0-3.15,2.35-6.13,8.4-6.13s8.4,3.02,8.4,7.23v.88h-2.98v-.76c0-3.44-2.14-4.91-5.42-4.91-3.95,0-5.34,1.34-5.34,3.36s1.01,2.86,3.91,3.4l4.03.76c4.12.76,6.09,1.93,6.09,5.59,0,4.58-4.12,6.55-8.78,6.55-7.31,0-8.99-3.28-8.99-6.97Z"></path><path class="cls-5" d="m1291.71,931.73h-15.96c.17,4.79,2.48,7.48,6.93,7.48,3.82,0,5.67-1.43,5.97-4.83h2.98c-.29,4.24-3.28,7.39-9.03,7.39-7.06,0-9.83-4.66-9.83-10.88s3.23-11.22,10-11.22,8.95,3.99,8.95,10.21v1.85Zm-3.11-2.98c0-4.45-1.72-6.55-5.92-6.55s-6.55,2.65-6.89,6.97h12.81v-.42Z"></path><path class="cls-5" d="m1430.29,2587.19h2.94v30.12h15.71v2.65h-18.65v-32.77Z"></path><path class="cls-5" d="m1452.09,2609.45c0-6.22,3.32-11.05,10.38-11.05,6.59,0,10.25,4.83,10.25,11.05s-3.7,11.05-10.29,11.05c-7.27,0-10.33-4.83-10.33-11.05Zm17.56,0c0-5.33-2.9-8.48-7.22-8.48-4.75,0-7.27,3.15-7.27,8.48s2.56,8.49,7.27,8.49c4.33,0,7.22-3.15,7.22-8.49Z"></path><path class="cls-5" d="m1476.91,2609.45c0-6.22,3.32-11.05,10.38-11.05,6.59,0,10.25,4.83,10.25,11.05s-3.7,11.05-10.29,11.05c-7.27,0-10.33-4.83-10.33-11.05Zm17.56,0c0-5.33-2.9-8.48-7.22-8.48-4.75,0-7.27,3.15-7.27,8.48s2.56,8.49,7.27,8.49c4.33,0,7.22-3.15,7.22-8.49Z"></path><path class="cls-5" d="m1503.42,2598.95h2.39l.34,3.87h.08c1.13-2.48,4.03-4.41,7.86-4.41,6.3,0,9.66,3.99,9.66,11.01s-4.29,11.09-9.87,11.09c-3.78,0-6.38-1.6-7.43-3.7h-.08v11.55h-2.94v-29.41Zm17.18,10.63c0-7.18-3.4-8.61-6.93-8.61-4.24,0-7.56,2.73-7.56,8.44,0,6.01,3.45,8.57,7.44,8.57,3.02,0,7.06-1.47,7.06-8.4Z"></path><path class="cls-5" d="m1546.89,2610.46h-15.96c.17,4.79,2.48,7.48,6.93,7.48,3.82,0,5.67-1.43,5.97-4.83h2.98c-.29,4.24-3.28,7.39-9.03,7.39-7.06,0-9.83-4.66-9.83-10.88s3.23-11.21,10-11.21,8.95,3.99,8.95,10.21v1.85Zm-3.11-2.98c0-4.45-1.72-6.55-5.92-6.55s-6.55,2.65-6.89,6.97h12.81v-.42Z"></path><path class="cls-5" d="m1551.09,2609.49c0-7.1,4.28-11.09,10.04-11.09,3.7,0,6.22,1.6,7.31,3.74h.04v-14.96h2.94v32.77h-1.97l-.67-3.61h-.08c-1.18,2.31-3.95,4.16-7.77,4.16-6.3,0-9.83-3.99-9.83-11.01Zm17.64-.5c0-5.5-3.36-8.07-7.35-8.07-3.11,0-7.14,1.47-7.14,8.4s3.61,8.61,7.14,8.61c4.24,0,7.35-2.73,7.35-8.95Z"></path><path class="cls-5" d="m1587.16,2614.16c0-3.95,2.23-6.09,7.86-6.09h6.34v-1.72c0-2.98-1.26-5.42-5.46-5.42-3.95,0-5.33,1.51-5.33,4.12v.88h-2.98v-.84c0-5,4.2-6.68,8.32-6.68,5.8,0,8.4,2.86,8.4,8.44v13.11h-2.06l-.55-2.98h-.08c-1.26,1.89-3.7,3.53-7.35,3.53-4.92,0-7.1-2.31-7.1-6.34Zm14.2-1.85v-1.76h-7.01c-2.65,0-4.03.92-4.03,3.61,0,2.35,1.26,3.87,4.5,3.87,4.16,0,6.55-2.14,6.55-5.71Z"></path><path class="cls-5" d="m1609.76,2613.53v-1.18h2.94v1.13c0,2.86,2.14,4.5,5.96,4.5s5.8-1.01,5.8-3.78c0-2.06-1.01-2.81-3.86-3.32l-4.62-.84c-3.02-.55-5.54-2.02-5.54-5.5,0-3.15,2.35-6.13,8.4-6.13s8.4,3.02,8.4,7.22v.88h-2.98v-.76c0-3.44-2.14-4.92-5.42-4.92-3.95,0-5.33,1.34-5.33,3.36s1.01,2.86,3.91,3.4l4.03.76c4.12.76,6.09,1.93,6.09,5.59,0,4.58-4.12,6.55-8.78,6.55-7.31,0-8.99-3.28-8.99-6.97Z"></path><path class="cls-5" d="m1631.73,2609.62c0-6.38,3.23-11.21,10-11.21s8.95,3.91,8.95,8.95v.42h-3.11v-.63c0-3.82-1.64-6.09-5.84-6.09-4.75,0-7.02,3.11-7.02,8.4,0,5.63,2.39,8.49,6.93,8.49,3.82,0,5.84-1.85,5.92-5.67h3.02c-.08,4.66-3.15,8.23-9.03,8.23-7.22,0-9.83-4.75-9.83-10.88Z"></path><path class="cls-5" d="m1673.81,2610.46h-15.96c.17,4.79,2.48,7.48,6.93,7.48,3.82,0,5.67-1.43,5.97-4.83h2.98c-.29,4.24-3.28,7.39-9.03,7.39-7.06,0-9.83-4.66-9.83-10.88s3.23-11.21,10-11.21,8.95,3.99,8.95,10.21v1.85Zm-3.11-2.98c0-4.45-1.72-6.55-5.92-6.55s-6.55,2.65-6.89,6.97h12.81v-.42Z"></path><path class="cls-5" d="m1679.69,2598.95h2.6l.29,3.49c1.01-2.14,3.28-4.03,7.35-4.03,4.75,0,7.77,2.52,7.77,7.94v13.61h-2.94v-13.27c0-4.33-2.14-5.71-5.5-5.71-3.82,0-6.64,2.69-6.64,5.63v13.36h-2.94v-21Z"></path><path class="cls-5" d="m1703.38,2609.49c0-7.1,4.28-11.09,10.04-11.09,3.7,0,6.22,1.6,7.31,3.74h.04v-14.96h2.94v32.77h-1.97l-.67-3.61h-.08c-1.18,2.31-3.95,4.16-7.77,4.16-6.3,0-9.83-3.99-9.83-11.01Zm17.64-.5c0-5.5-3.36-8.07-7.35-8.07-3.11,0-7.14,1.47-7.14,8.4s3.61,8.61,7.14,8.61c4.24,0,7.35-2.73,7.35-8.95Z"></path><path class="cls-5" d="m1748.32,2610.46h-15.96c.17,4.79,2.48,7.48,6.93,7.48,3.82,0,5.67-1.43,5.97-4.83h2.98c-.29,4.24-3.28,7.39-9.03,7.39-7.06,0-9.83-4.66-9.83-10.88s3.23-11.21,10-11.21,8.95,3.99,8.95,10.21v1.85Zm-3.11-2.98c0-4.45-1.72-6.55-5.92-6.55s-6.55,2.65-6.89,6.97h12.81v-.42Z"></path><path class="cls-5" d="m1754.2,2598.95h2.6l.29,3.91c1.01-2.14,3.07-4.45,6.76-4.45,1.26,0,2.18.21,3.02.54v3.15c-1.13-.5-2.1-.76-3.4-.76-3.74,0-6.34,2.81-6.34,5.76v12.85h-2.94v-21Z"></path><path class="cls-5" d="m1769.4,2613.53v-1.18h2.94v1.13c0,2.86,2.14,4.5,5.96,4.5s5.8-1.01,5.8-3.78c0-2.06-1.01-2.81-3.86-3.32l-4.62-.84c-3.02-.55-5.54-2.02-5.54-5.5,0-3.15,2.35-6.13,8.4-6.13s8.4,3.02,8.4,7.22v.88h-2.98v-.76c0-3.44-2.14-4.92-5.42-4.92-3.95,0-5.33,1.34-5.33,3.36s1.01,2.86,3.91,3.4l4.03.76c4.12.76,6.09,1.93,6.09,5.59,0,4.58-4.12,6.55-8.78,6.55-7.31,0-8.99-3.28-8.99-6.97Z"></path><path class="cls-5" d="m702.03,2549.65h-3.36v-5.08c0-3.95.88-5.29,3.4-5.96l.67,1.85c-1.76.67-2.06,1.09-2.06,3.78v.34h1.34v5.08Zm5.92,0h-3.36v-5.08c0-3.95.88-5.29,3.4-5.96l.67,1.85c-1.76.67-2.06,1.09-2.06,3.78v.34h1.34v5.08Z"></path><path class="cls-5" d="m718.08,2545.91v5.04h5.92v2.44h-5.92v18.57h-2.94v-18.57h-4.16v-2.44h4.16v-5.42c0-5.29,3.15-6.89,6.38-6.89,1.85,0,2.98.29,3.74.55v2.6c-.71-.21-1.89-.46-3.49-.46-2.65,0-3.7,1.76-3.7,4.58Z"></path><path class="cls-5" d="m728.62,2548.39c1.76-.67,2.06-1.09,2.06-3.78v-.34h-1.34v-5.08h3.36v5.08c0,3.95-.88,5.29-3.4,5.96l-.67-1.85Zm5.92,0c1.76-.67,2.06-1.09,2.06-3.78v-.34h-1.34v-5.08h3.36v5.08c0,3.95-.88,5.29-3.4,5.96l-.67-1.85Z"></path><path class="cls-5" d="m752.48,2561.62c0-6.38,3.23-11.22,10-11.22s8.95,3.91,8.95,8.95v.42h-3.11v-.63c0-3.82-1.64-6.09-5.84-6.09-4.75,0-7.01,3.11-7.01,8.4,0,5.63,2.39,8.49,6.93,8.49,3.82,0,5.84-1.85,5.92-5.67h3.02c-.08,4.66-3.15,8.23-9.03,8.23-7.22,0-9.83-4.75-9.83-10.88Z"></path><path class="cls-5" d="m775.62,2561.45c0-6.22,3.32-11.05,10.38-11.05,6.59,0,10.25,4.83,10.25,11.05s-3.7,11.05-10.29,11.05c-7.27,0-10.33-4.83-10.33-11.05Zm17.56,0c0-5.33-2.9-8.49-7.22-8.49-4.75,0-7.27,3.15-7.27,8.49s2.56,8.49,7.27,8.49c4.33,0,7.22-3.15,7.22-8.49Z"></path><path class="cls-5" d="m802.12,2550.95h2.6l.29,3.49c1.01-2.14,3.28-4.03,7.35-4.03,4.75,0,7.77,2.52,7.77,7.94v13.61h-2.94v-13.27c0-4.33-2.14-5.71-5.5-5.71-3.82,0-6.64,2.69-6.64,5.63v13.36h-2.94v-21Z"></path><path class="cls-5" d="m827.49,2550.95h2.6l.29,3.49c1.01-2.14,3.28-4.03,7.35-4.03,4.75,0,7.77,2.52,7.77,7.94v13.61h-2.94v-13.27c0-4.33-2.14-5.71-5.5-5.71-3.82,0-6.64,2.69-6.64,5.63v13.36h-2.94v-21Z"></path><path class="cls-5" d="m870.12,2562.46h-15.96c.17,4.79,2.48,7.48,6.93,7.48,3.82,0,5.67-1.43,5.97-4.83h2.98c-.29,4.24-3.28,7.39-9.03,7.39-7.06,0-9.83-4.66-9.83-10.88s3.23-11.22,10-11.22,8.95,3.99,8.95,10.21v1.85Zm-3.11-2.98c0-4.45-1.72-6.55-5.92-6.55s-6.55,2.65-6.89,6.97h12.81v-.42Z"></path><path class="cls-5" d="m874.32,2561.62c0-6.38,3.23-11.22,10-11.22s8.95,3.91,8.95,8.95v.42h-3.11v-.63c0-3.82-1.64-6.09-5.84-6.09-4.75,0-7.01,3.11-7.01,8.4,0,5.63,2.39,8.49,6.93,8.49,3.82,0,5.84-1.85,5.92-5.67h3.02c-.08,4.66-3.15,8.23-9.03,8.23-7.22,0-9.83-4.75-9.83-10.88Z"></path><path class="cls-5" d="m910.1,2569.26v2.6c-.76.21-2.14.59-4.03.59-3.82,0-6.34-1.6-6.34-6.89v-12.18h-4.16v-2.44h4.16v-6.05l2.94-1.43v7.48h5.92v2.44h-5.92v11.8c0,2.81.76,4.58,3.4,4.58,1.6,0,3.23-.29,4.03-.5Z"></path><path class="cls-5" d="m913.04,2565.53v-1.18h2.94v1.13c0,2.86,2.14,4.5,5.96,4.5s5.8-1.01,5.8-3.78c0-2.06-1.01-2.81-3.86-3.32l-4.62-.84c-3.02-.55-5.54-2.02-5.54-5.5,0-3.15,2.35-6.13,8.4-6.13s8.4,3.02,8.4,7.23v.88h-2.98v-.76c0-3.44-2.14-4.92-5.42-4.92-3.95,0-5.33,1.34-5.33,3.36s1.01,2.86,3.91,3.4l4.03.76c4.12.76,6.09,1.93,6.09,5.59,0,4.58-4.12,6.55-8.78,6.55-7.31,0-8.99-3.28-8.99-6.97Z"></path><path class="cls-5" d="m950.51,2545.91v5.04h5.92v2.44h-5.92v18.57h-2.94v-18.57h-4.16v-2.44h4.16v-5.42c0-5.29,3.15-6.89,6.38-6.89,1.85,0,2.98.29,3.74.55v2.6c-.71-.21-1.89-.46-3.49-.46-2.65,0-3.7,1.76-3.7,4.58Z"></path><path class="cls-5" d="m960.84,2550.95h2.6l.29,3.91c1.01-2.14,3.07-4.45,6.76-4.45,1.26,0,2.18.21,3.02.55v3.15c-1.13-.5-2.1-.76-3.4-.76-3.74,0-6.34,2.81-6.34,5.75v12.85h-2.94v-21Z"></path><path class="cls-5" d="m975.83,2561.45c0-6.22,3.32-11.05,10.38-11.05,6.59,0,10.25,4.83,10.25,11.05s-3.7,11.05-10.29,11.05c-7.27,0-10.33-4.83-10.33-11.05Zm17.56,0c0-5.33-2.9-8.49-7.22-8.49-4.75,0-7.27,3.15-7.27,8.49s2.56,8.49,7.27,8.49c4.33,0,7.22-3.15,7.22-8.49Z"></path><path class="cls-5" d="m1033.04,2558.34v13.61h-2.94v-13.27c0-4.33-2.14-5.71-4.75-5.71-3.82,0-6.17,2.69-6.17,5.63v13.36h-2.94v-13.27c0-4.33-1.85-5.71-4.83-5.71-3.61,0-6.13,2.69-6.13,5.63v13.36h-2.94v-21h2.6l.29,3.49c1.01-2.02,3.07-4.03,6.93-4.03,2.94,0,5.38,1.39,6.43,4.29,1.22-2.39,3.57-4.29,7.14-4.29,4.29,0,7.31,2.52,7.31,7.94Z"></path><path class="cls-5" d="m1061.01,2569.26v2.6c-.76.21-2.14.59-4.03.59-3.82,0-6.34-1.6-6.34-6.89v-12.18h-4.16v-2.44h4.16v-6.05l2.94-1.43v7.48h5.92v2.44h-5.92v11.8c0,2.81.76,4.58,3.4,4.58,1.6,0,3.23-.29,4.03-.5Z"></path><path class="cls-5" d="m1065.84,2539.19h2.94v15.17c1.05-2.1,3.28-3.95,7.31-3.95,4.75,0,7.77,2.52,7.77,7.94v13.61h-2.94v-13.27c0-4.33-2.14-5.71-5.5-5.71-3.82,0-6.64,2.69-6.64,5.63v13.36h-2.94v-32.77Z"></path><path class="cls-5" d="m1108.47,2562.46h-15.96c.17,4.79,2.48,7.48,6.93,7.48,3.82,0,5.67-1.43,5.97-4.83h2.98c-.29,4.24-3.28,7.39-9.03,7.39-7.06,0-9.83-4.66-9.83-10.88s3.23-11.22,10-11.22,8.95,3.99,8.95,10.21v1.85Zm-3.11-2.98c0-4.45-1.72-6.55-5.92-6.55s-6.55,2.65-6.89,6.97h12.81v-.42Z"></path><path class="cls-5" d="m1126.82,2568.47h-.08l-.76,3.49h-1.97v-32.77h2.94v15.25h.04c1.26-2.31,4.07-4.03,7.69-4.03,6.3,0,9.66,3.99,9.66,11.01s-4.29,11.09-9.87,11.09c-3.78,0-6.55-1.64-7.65-4.03Zm14.37-6.89c0-7.18-3.4-8.61-6.93-8.61-4.24,0-7.56,2.73-7.56,8.44,0,6.01,3.45,8.57,7.44,8.57,3.02,0,7.06-1.47,7.06-8.4Z"></path><path class="cls-5" d="m1148.75,2566.16c0-3.95,2.23-6.09,7.86-6.09h6.34v-1.72c0-2.98-1.26-5.42-5.46-5.42-3.95,0-5.33,1.51-5.33,4.12v.88h-2.98v-.84c0-5,4.2-6.68,8.32-6.68,5.8,0,8.4,2.86,8.4,8.44v13.11h-2.06l-.55-2.98h-.08c-1.26,1.89-3.7,3.53-7.35,3.53-4.92,0-7.1-2.31-7.1-6.34Zm14.2-1.85v-1.76h-7.01c-2.65,0-4.03.92-4.03,3.61,0,2.35,1.26,3.87,4.5,3.87,4.16,0,6.55-2.14,6.55-5.71Z"></path><path class="cls-5" d="m1173.23,2550.95h2.6l.29,3.91c1.01-2.14,3.07-4.45,6.76-4.45,1.26,0,2.18.21,3.02.55v3.15c-1.13-.5-2.1-.76-3.4-.76-3.74,0-6.34,2.81-6.34,5.75v12.85h-2.94v-21Z"></path><path class="cls-5" d="m670.03,2615c0-3.95,2.23-6.09,7.86-6.09h6.34v-1.72c0-2.98-1.26-5.42-5.46-5.42-3.95,0-5.33,1.51-5.33,4.12v.88h-2.98v-.84c0-5,4.2-6.68,8.32-6.68,5.8,0,8.4,2.86,8.4,8.44v13.11h-2.06l-.55-2.98h-.08c-1.26,1.89-3.7,3.53-7.35,3.53-4.92,0-7.1-2.31-7.1-6.34Zm14.2-1.85v-1.76h-7.01c-2.65,0-4.03.92-4.03,3.61,0,2.35,1.26,3.86,4.5,3.86,4.16,0,6.55-2.14,6.55-5.71Z"></path><path class="cls-5" d="m694.51,2599.8h2.6l.29,3.49c1.01-2.14,3.28-4.03,7.35-4.03,4.75,0,7.77,2.52,7.77,7.94v13.61h-2.94v-13.27c0-4.33-2.14-5.71-5.5-5.71-3.82,0-6.64,2.69-6.64,5.63v13.36h-2.94v-21Z"></path><path class="cls-5" d="m718.2,2610.34c0-7.1,4.28-11.09,10.04-11.09,3.7,0,6.22,1.6,7.31,3.74h.04v-14.95h2.94v32.77h-1.97l-.67-3.61h-.08c-1.18,2.31-3.95,4.16-7.77,4.16-6.3,0-9.83-3.99-9.83-11.01Zm17.64-.5c0-5.5-3.36-8.07-7.35-8.07-3.11,0-7.14,1.47-7.14,8.4s3.61,8.61,7.14,8.61c4.24,0,7.35-2.73,7.35-8.95Z"></path><path class="cls-5" d="m755.54,2588.03h2.94v15.16c1.05-2.1,3.28-3.95,7.31-3.95,4.75,0,7.77,2.52,7.77,7.94v13.61h-2.94v-13.27c0-4.33-2.14-5.71-5.5-5.71-3.82,0-6.64,2.69-6.64,5.63v13.36h-2.94v-32.77Z"></path><path class="cls-5" d="m779.65,2615c0-3.95,2.23-6.09,7.86-6.09h6.34v-1.72c0-2.98-1.26-5.42-5.46-5.42-3.95,0-5.33,1.51-5.33,4.12v.88h-2.98v-.84c0-5,4.2-6.68,8.32-6.68,5.8,0,8.4,2.86,8.4,8.44v13.11h-2.06l-.55-2.98h-.08c-1.26,1.89-3.7,3.53-7.35,3.53-4.92,0-7.1-2.31-7.1-6.34Zm14.2-1.85v-1.76h-7.01c-2.65,0-4.03.92-4.03,3.61,0,2.35,1.26,3.86,4.5,3.86,4.16,0,6.55-2.14,6.55-5.71Z"></path><path class="cls-5" d="m802.25,2614.37v-1.18h2.94v1.13c0,2.86,2.14,4.5,5.96,4.5s5.8-1.01,5.8-3.78c0-2.06-1.01-2.81-3.86-3.32l-4.62-.84c-3.02-.55-5.54-2.02-5.54-5.5,0-3.15,2.35-6.13,8.4-6.13s8.4,3.02,8.4,7.22v.88h-2.98v-.76c0-3.44-2.14-4.91-5.42-4.91-3.95,0-5.33,1.34-5.33,3.36s1.01,2.86,3.91,3.4l4.03.76c4.12.76,6.09,1.93,6.09,5.59,0,4.58-4.12,6.55-8.78,6.55-7.31,0-8.99-3.28-8.99-6.97Z"></path><path class="cls-5" d="m835.55,2599.8h2.6l.29,3.49c1.01-2.14,3.28-4.03,7.35-4.03,4.75,0,7.77,2.52,7.77,7.94v13.61h-2.94v-13.27c0-4.33-2.14-5.71-5.5-5.71-3.82,0-6.64,2.69-6.64,5.63v13.36h-2.94v-21Z"></path><path class="cls-5" d="m859.24,2610.3c0-6.22,3.32-11.05,10.38-11.05,6.59,0,10.25,4.83,10.25,11.05s-3.7,11.05-10.29,11.05c-7.27,0-10.33-4.83-10.33-11.05Zm17.56,0c0-5.33-2.9-8.49-7.22-8.49-4.75,0-7.27,3.15-7.27,8.49s2.56,8.49,7.27,8.49c4.33,0,7.22-3.15,7.22-8.49Z"></path><path class="cls-5" d="m893.72,2610.34c0-7.1,4.28-11.09,10.04-11.09,3.7,0,6.22,1.6,7.31,3.74h.04v-14.95h2.94v32.77h-1.97l-.67-3.61h-.08c-1.18,2.31-3.95,4.16-7.77,4.16-6.3,0-9.83-3.99-9.83-11.01Zm17.64-.5c0-5.5-3.36-8.07-7.35-8.07-3.11,0-7.14,1.47-7.14,8.4s3.61,8.61,7.14,8.61c4.24,0,7.35-2.73,7.35-8.95Z"></path><path class="cls-5" d="m938.67,2611.31h-15.96c.17,4.79,2.48,7.48,6.93,7.48,3.82,0,5.67-1.43,5.97-4.83h2.98c-.29,4.24-3.28,7.39-9.03,7.39-7.06,0-9.83-4.66-9.83-10.88s3.23-11.22,10-11.22,8.95,3.99,8.95,10.21v1.85Zm-3.11-2.98c0-4.45-1.72-6.55-5.92-6.55s-6.55,2.65-6.89,6.97h12.81v-.42Z"></path><path class="cls-5" d="m942.65,2614.37v-1.18h2.94v1.13c0,2.86,2.14,4.5,5.96,4.5s5.8-1.01,5.8-3.78c0-2.06-1.01-2.81-3.86-3.32l-4.62-.84c-3.02-.55-5.54-2.02-5.54-5.5,0-3.15,2.35-6.13,8.4-6.13s8.4,3.02,8.4,7.22v.88h-2.98v-.76c0-3.44-2.14-4.91-5.42-4.91-3.95,0-5.33,1.34-5.33,3.36s1.01,2.86,3.91,3.4l4.03.76c4.12.76,6.09,1.93,6.09,5.59,0,4.58-4.12,6.55-8.78,6.55-7.31,0-8.99-3.28-8.99-6.97Z"></path><path class="cls-5" d="m964.62,2610.47c0-6.38,3.23-11.22,10-11.22s8.95,3.91,8.95,8.95v.42h-3.11v-.63c0-3.82-1.64-6.09-5.84-6.09-4.75,0-7.02,3.11-7.02,8.4,0,5.63,2.39,8.49,6.93,8.49,3.82,0,5.84-1.85,5.92-5.67h3.02c-.08,4.66-3.15,8.23-9.03,8.23-7.22,0-9.83-4.75-9.83-10.88Z"></path><path class="cls-5" d="m1006.71,2611.31h-15.96c.17,4.79,2.48,7.48,6.93,7.48,3.82,0,5.67-1.43,5.97-4.83h2.98c-.29,4.24-3.28,7.39-9.03,7.39-7.06,0-9.83-4.66-9.83-10.88s3.23-11.22,10-11.22,8.95,3.99,8.95,10.21v1.85Zm-3.11-2.98c0-4.45-1.72-6.55-5.92-6.55s-6.55,2.65-6.89,6.97h12.81v-.42Z"></path><path class="cls-5" d="m1012.58,2599.8h2.6l.29,3.49c1.01-2.14,3.28-4.03,7.35-4.03,4.75,0,7.77,2.52,7.77,7.94v13.61h-2.94v-13.27c0-4.33-2.14-5.71-5.5-5.71-3.82,0-6.64,2.69-6.64,5.63v13.36h-2.94v-21Z"></path><path class="cls-5" d="m1036.27,2610.34c0-7.1,4.28-11.09,10.04-11.09,3.7,0,6.22,1.6,7.31,3.74h.04v-14.95h2.94v32.77h-1.97l-.67-3.61h-.08c-1.18,2.31-3.95,4.16-7.77,4.16-6.3,0-9.83-3.99-9.83-11.01Zm17.64-.5c0-5.5-3.36-8.07-7.35-8.07-3.11,0-7.14,1.47-7.14,8.4s3.61,8.61,7.14,8.61c4.24,0,7.35-2.73,7.35-8.95Z"></path><path class="cls-5" d="m1081.21,2611.31h-15.96c.17,4.79,2.48,7.48,6.93,7.48,3.82,0,5.67-1.43,5.97-4.83h2.98c-.29,4.24-3.28,7.39-9.03,7.39-7.06,0-9.83-4.66-9.83-10.88s3.23-11.22,10-11.22,8.95,3.99,8.95,10.21v1.85Zm-3.11-2.98c0-4.45-1.72-6.55-5.92-6.55s-6.55,2.65-6.89,6.97h12.81v-.42Z"></path><path class="cls-5" d="m1087.09,2599.8h2.6l.29,3.91c1.01-2.14,3.07-4.45,6.76-4.45,1.26,0,2.18.21,3.02.55v3.15c-1.13-.5-2.1-.76-3.4-.76-3.74,0-6.34,2.81-6.34,5.75v12.85h-2.94v-21Z"></path><path class="cls-5" d="m1114.05,2588.03h2.94v32.77h-2.94v-32.77Z"></path><path class="cls-5" d="m1122.66,2610.3c0-6.22,3.32-11.05,10.38-11.05,6.59,0,10.25,4.83,10.25,11.05s-3.7,11.05-10.29,11.05c-7.27,0-10.33-4.83-10.33-11.05Zm17.56,0c0-5.33-2.9-8.49-7.22-8.49-4.75,0-7.27,3.15-7.27,8.49s2.56,8.49,7.27,8.49c4.33,0,7.22-3.15,7.22-8.49Z"></path><path class="cls-5" d="m1147.49,2610.3c0-6.22,3.32-11.05,10.38-11.05,6.59,0,10.25,4.83,10.25,11.05s-3.7,11.05-10.29,11.05c-7.27,0-10.33-4.83-10.33-11.05Zm17.56,0c0-5.33-2.9-8.49-7.22-8.49-4.75,0-7.27,3.15-7.27,8.49s2.56,8.49,7.27,8.49c4.33,0,7.22-3.15,7.22-8.49Z"></path><path class="cls-5" d="m1173.99,2599.8h2.39l.34,3.86h.08c1.13-2.48,4.03-4.41,7.86-4.41,6.3,0,9.66,3.99,9.66,11.01s-4.29,11.09-9.87,11.09c-3.78,0-6.38-1.6-7.43-3.7h-.08v11.55h-2.94v-29.41Zm17.18,10.63c0-7.18-3.4-8.61-6.93-8.61-4.24,0-7.56,2.73-7.56,8.44,0,6.01,3.45,8.57,7.44,8.57,3.02,0,7.06-1.47,7.06-8.4Z"></path><path class="cls-5" d="m559.33,1700.75h-3.36v-5.08c0-3.95.88-5.29,3.4-5.97l.67,1.85c-1.76.67-2.06,1.09-2.06,3.78v.34h1.34v5.08Zm5.92,0h-3.36v-5.08c0-3.95.88-5.29,3.4-5.97l.67,1.85c-1.76.67-2.06,1.09-2.06,3.78v.34h1.34v5.08Z"></path><path class="cls-5" d="m570.38,1706.67c0-11.72,6.76-16.93,15.46-16.93,7.94,0,14.7,5.21,14.7,16.59,0,12.48-6.76,17.26-15.08,17.26s-15.08-4.79-15.08-16.93Zm27.05,0c0-10.12-5.33-14.24-12.01-14.24s-11.93,4.12-11.93,14.24,5.33,14.2,12.01,14.2,11.93-3.74,11.93-14.2Z"></path><path class="cls-5" d="m604.94,1699.49c1.76-.67,2.06-1.09,2.06-3.78v-.34h-1.34v-5.08h3.36v5.08c0,3.95-.88,5.29-3.4,5.97l-.67-1.85Zm5.92,0c1.76-.67,2.06-1.09,2.06-3.78v-.34h-1.34v-5.08h3.36v5.08c0,3.95-.88,5.29-3.4,5.97l-.67-1.85Z"></path><path class="cls-5" d="m629.22,1717.26c0-3.95,2.23-6.09,7.86-6.09h6.34v-1.72c0-2.98-1.26-5.42-5.46-5.42-3.95,0-5.33,1.51-5.33,4.12v.88h-2.98v-.84c0-5,4.2-6.68,8.32-6.68,5.8,0,8.4,2.86,8.4,8.44v13.11h-2.06l-.55-2.98h-.08c-1.26,1.89-3.7,3.53-7.35,3.53-4.92,0-7.1-2.31-7.1-6.34Zm14.2-1.85v-1.76h-7.01c-2.65,0-4.03.92-4.03,3.61,0,2.35,1.26,3.86,4.5,3.86,4.16,0,6.55-2.14,6.55-5.71Z"></path><path class="cls-5" d="m653.7,1702.05h2.6l.29,3.49c1.01-2.14,3.28-4.03,7.35-4.03,4.75,0,7.77,2.52,7.77,7.94v13.61h-2.94v-13.27c0-4.33-2.14-5.71-5.5-5.71-3.82,0-6.64,2.69-6.64,5.63v13.36h-2.94v-21Z"></path><path class="cls-5" d="m677.39,1712.59c0-7.1,4.28-11.09,10.04-11.09,3.7,0,6.22,1.6,7.31,3.74h.04v-14.95h2.94v32.77h-1.97l-.67-3.61h-.08c-1.18,2.31-3.95,4.16-7.77,4.16-6.3,0-9.83-3.99-9.83-11.01Zm17.64-.5c0-5.5-3.36-8.07-7.35-8.07-3.11,0-7.14,1.47-7.14,8.4s3.61,8.61,7.14,8.61c4.24,0,7.35-2.73,7.35-8.95Z"></path><path class="cls-5" d="m716.41,1700.75h-3.36v-5.08c0-3.95.88-5.29,3.4-5.97l.67,1.85c-1.76.67-2.06,1.09-2.06,3.78v.34h1.34v5.08Zm5.92,0h-3.36v-5.08c0-3.95.88-5.29,3.4-5.97l.67,1.85c-1.76.67-2.06,1.09-2.06,3.78v.34h1.34v5.08Z"></path><path class="cls-5" d="m740.81,1723.52c-7.73-.59-13.36-5.54-13.36-16.84s6.76-16.93,15.46-16.93c7.94,0,14.7,5.21,14.7,16.59s-6.13,16.76-13.86,17.22l-.38,7.31h-2.18l-.38-7.35Zm13.69-16.84c0-10.12-5.33-14.24-12.01-14.24s-11.93,4.12-11.93,14.24,5.33,14.2,12.01,14.2,11.93-3.74,11.93-14.2Z"></path><path class="cls-5" d="m762.02,1699.49c1.76-.67,2.06-1.09,2.06-3.78v-.34h-1.34v-5.08h3.36v5.08c0,3.95-.88,5.29-3.4,5.97l-.67-1.85Zm5.92,0c1.76-.67,2.06-1.09,2.06-3.78v-.34h-1.34v-5.08h3.36v5.08c0,3.95-.88,5.29-3.4,5.97l-.67-1.85Z"></path><path class="cls-5" d="m787.56,1690.29h2.94v15.16c1.05-2.1,3.28-3.95,7.31-3.95,4.75,0,7.77,2.52,7.77,7.94v13.61h-2.94v-13.27c0-4.33-2.14-5.71-5.5-5.71-3.82,0-6.64,2.69-6.64,5.63v13.36h-2.94v-32.77Z"></path><path class="cls-5" d="m811.67,1717.26c0-3.95,2.23-6.09,7.86-6.09h6.34v-1.72c0-2.98-1.26-5.42-5.46-5.42-3.95,0-5.33,1.51-5.33,4.12v.88h-2.98v-.84c0-5,4.2-6.68,8.32-6.68,5.8,0,8.4,2.86,8.4,8.44v13.11h-2.06l-.55-2.98h-.08c-1.26,1.89-3.7,3.53-7.35,3.53-4.92,0-7.1-2.31-7.1-6.34Zm14.2-1.85v-1.76h-7.01c-2.65,0-4.03.92-4.03,3.61,0,2.35,1.26,3.86,4.5,3.86,4.16,0,6.55-2.14,6.55-5.71Z"></path><path class="cls-5" d="m831.74,1702.09v-.04h3.36l7.35,17.98h.08l7.1-17.98h3.07v.04l-8.74,20.96h-3.02l-9.2-20.96Z"></path><path class="cls-5" d="m873.54,1713.56h-15.96c.17,4.79,2.48,7.48,6.93,7.48,3.82,0,5.67-1.43,5.97-4.83h2.98c-.29,4.24-3.28,7.39-9.03,7.39-7.06,0-9.83-4.66-9.83-10.88s3.23-11.22,10-11.22,8.95,3.99,8.95,10.21v1.85Zm-3.11-2.98c0-4.45-1.72-6.55-5.92-6.55s-6.55,2.65-6.89,6.97h12.81v-.42Z"></path><path class="cls-5" d="m887.81,1717.26c0-3.95,2.23-6.09,7.86-6.09h6.34v-1.72c0-2.98-1.26-5.42-5.46-5.42-3.95,0-5.33,1.51-5.33,4.12v.88h-2.98v-.84c0-5,4.2-6.68,8.32-6.68,5.8,0,8.4,2.86,8.4,8.44v13.11h-2.06l-.55-2.98h-.08c-1.26,1.89-3.7,3.53-7.35,3.53-4.92,0-7.1-2.31-7.1-6.34Zm14.2-1.85v-1.76h-7.01c-2.65,0-4.03.92-4.03,3.61,0,2.35,1.26,3.86,4.5,3.86,4.16,0,6.55-2.14,6.55-5.71Z"></path><path class="cls-5" d="m912.3,1702.05h2.6l.29,3.49c1.01-2.14,3.28-4.03,7.35-4.03,4.75,0,7.77,2.52,7.77,7.94v13.61h-2.94v-13.27c0-4.33-2.14-5.71-5.5-5.71-3.82,0-6.64,2.69-6.64,5.63v13.36h-2.94v-21Z"></path><path class="cls-5" d="m935.99,1712.59c0-7.1,4.28-11.09,10.04-11.09,3.7,0,6.22,1.6,7.31,3.74h.04v-14.95h2.94v32.77h-1.97l-.67-3.61h-.08c-1.18,2.31-3.95,4.16-7.77,4.16-6.3,0-9.83-3.99-9.83-11.01Zm17.64-.5c0-5.5-3.36-8.07-7.35-8.07-3.11,0-7.14,1.47-7.14,8.4s3.61,8.61,7.14,8.61c4.24,0,7.35-2.73,7.35-8.95Z"></path><path class="cls-5" d="m542.28,1762.41h-15.96c.17,4.79,2.48,7.48,6.93,7.48,3.82,0,5.67-1.43,5.97-4.83h2.98c-.29,4.24-3.28,7.39-9.03,7.39-7.06,0-9.83-4.66-9.83-10.88s3.23-11.22,10-11.22,8.95,3.99,8.95,10.21v1.85Zm-3.11-2.98c0-4.45-1.72-6.55-5.92-6.55s-6.55,2.65-6.89,6.97h12.81v-.42Z"></path><path class="cls-5" d="m563.53,1750.94l-8.07,10.5,8.02,10.42v.04h-3.44l-6.34-8.44-6.43,8.44h-3.28v-.04l8.02-10.38-8.07-10.54v-.04h3.44l6.39,8.49,6.43-8.44v-.04h3.32v.04Z"></path><path class="cls-5" d="m568.07,1739.13h2.98v6.51h-2.98v-6.51Zm0,11.76h2.94v21h-2.94v-21Z"></path><path class="cls-5" d="m589.36,1769.21v2.6c-.76.21-2.14.59-4.03.59-3.82,0-6.34-1.6-6.34-6.89v-12.18h-4.16v-2.44h4.16v-6.05l2.94-1.43v7.48h5.92v2.44h-5.92v11.8c0,2.81.76,4.58,3.4,4.58,1.6,0,3.23-.29,4.03-.5Z"></path><path class="cls-5" d="m601.96,1765.47v-1.18h2.94v1.13c0,2.86,2.14,4.5,5.96,4.5s5.8-1.01,5.8-3.78c0-2.06-1.01-2.81-3.86-3.32l-4.62-.84c-3.02-.55-5.54-2.02-5.54-5.5,0-3.15,2.35-6.13,8.4-6.13s8.4,3.02,8.4,7.23v.88h-2.98v-.76c0-3.44-2.14-4.92-5.42-4.92-3.95,0-5.33,1.34-5.33,3.36s1.01,2.86,3.91,3.4l4.03.76c4.12.76,6.09,1.93,6.09,5.59,0,4.58-4.12,6.55-8.78,6.55-7.31,0-8.99-3.28-8.99-6.97Z"></path><path class="cls-5" d="m636.57,1769.21v2.6c-.76.21-2.14.59-4.03.59-3.82,0-6.34-1.6-6.34-6.89v-12.18h-4.16v-2.44h4.16v-6.05l2.94-1.43v7.48h5.92v2.44h-5.92v11.8c0,2.81.76,4.58,3.4,4.58,1.6,0,3.23-.29,4.03-.5Z"></path><path class="cls-5" d="m641.4,1750.9h2.6l.29,3.91c1.01-2.14,3.07-4.45,6.76-4.45,1.26,0,2.18.21,3.02.55v3.15c-1.13-.5-2.1-.76-3.4-.76-3.74,0-6.34,2.81-6.34,5.75v12.85h-2.94v-21Z"></path><path class="cls-5" d="m656.39,1761.4c0-6.22,3.32-11.05,10.38-11.05,6.59,0,10.25,4.83,10.25,11.05s-3.7,11.05-10.29,11.05c-7.27,0-10.33-4.83-10.33-11.05Zm17.56,0c0-5.33-2.9-8.49-7.22-8.49-4.75,0-7.27,3.15-7.27,8.49s2.56,8.49,7.27,8.49c4.33,0,7.22-3.15,7.22-8.49Z"></path><path class="cls-5" d="m682.26,1739.13h2.94v23.23l12.14-11.47h3.65v.04l-8.4,7.86,8.78,13.06v.04h-3.36l-7.39-11.22-5.42,5.04v6.17h-2.94v-32.77Z"></path><path class="cls-5" d="m722.63,1762.41h-15.96c.17,4.79,2.48,7.48,6.93,7.48,3.82,0,5.67-1.43,5.97-4.83h2.98c-.29,4.24-3.28,7.39-9.03,7.39-7.06,0-9.83-4.66-9.83-10.88s3.23-11.22,10-11.22,8.95,3.99,8.95,10.21v1.85Zm-3.11-2.98c0-4.45-1.72-6.55-5.92-6.55s-6.55,2.65-6.89,6.97h12.81v-.42Z"></path><path class="cls-5" d="m736.49,1761.4c0-6.22,3.32-11.05,10.38-11.05,6.59,0,10.25,4.83,10.25,11.05s-3.7,11.05-10.29,11.05c-7.27,0-10.33-4.83-10.33-11.05Zm17.56,0c0-5.33-2.9-8.49-7.22-8.49-4.75,0-7.27,3.15-7.27,8.49s2.56,8.49,7.27,8.49c4.33,0,7.22-3.15,7.22-8.49Z"></path><path class="cls-5" d="m762.99,1750.9h2.6l.29,3.49c1.01-2.14,3.28-4.03,7.35-4.03,4.75,0,7.77,2.52,7.77,7.94v13.61h-2.94v-13.27c0-4.33-2.14-5.71-5.5-5.71-3.82,0-6.64,2.69-6.64,5.63v13.36h-2.94v-21Z"></path><path class="cls-5" d="m796.34,1761.57c0-6.38,3.23-11.22,10-11.22s8.95,3.91,8.95,8.95v.42h-3.11v-.63c0-3.82-1.64-6.09-5.84-6.09-4.75,0-7.02,3.11-7.02,8.4,0,5.63,2.39,8.49,6.93,8.49,3.82,0,5.84-1.85,5.92-5.67h3.02c-.08,4.66-3.15,8.23-9.03,8.23-7.22,0-9.83-4.75-9.83-10.88Z"></path><path class="cls-5" d="m819.69,1766.1c0-3.95,2.23-6.09,7.86-6.09h6.34v-1.72c0-2.98-1.26-5.42-5.46-5.42-3.95,0-5.33,1.51-5.33,4.12v.88h-2.98v-.84c0-5,4.2-6.68,8.32-6.68,5.8,0,8.4,2.86,8.4,8.44v13.11h-2.06l-.55-2.98h-.08c-1.26,1.89-3.7,3.53-7.35,3.53-4.92,0-7.1-2.31-7.1-6.34Zm14.2-1.85v-1.76h-7.01c-2.65,0-4.03.92-4.03,3.61,0,2.35,1.26,3.87,4.5,3.87,4.16,0,6.55-2.14,6.55-5.71Z"></path><path class="cls-5" d="m844.17,1750.9h2.39l.34,3.87h.08c1.13-2.48,4.03-4.41,7.86-4.41,6.3,0,9.66,3.99,9.66,11.01s-4.29,11.09-9.87,11.09c-3.78,0-6.38-1.6-7.43-3.7h-.08v11.55h-2.94v-29.41Zm17.18,10.63c0-7.18-3.4-8.61-6.93-8.61-4.24,0-7.56,2.73-7.56,8.44,0,6.01,3.45,8.57,7.44,8.57,3.02,0,7.06-1.47,7.06-8.4Z"></path><path class="cls-5" d="m880.04,1739.13h2.94v15.17c1.05-2.1,3.28-3.95,7.31-3.95,4.75,0,7.77,2.52,7.77,7.94v13.61h-2.94v-13.27c0-4.33-2.14-5.71-5.5-5.71-3.82,0-6.64,2.69-6.64,5.63v13.36h-2.94v-32.77Z"></path><path class="cls-5" d="m922.67,1762.41h-15.96c.17,4.79,2.48,7.48,6.93,7.48,3.82,0,5.67-1.43,5.97-4.83h2.98c-.29,4.24-3.28,7.39-9.03,7.39-7.06,0-9.83-4.66-9.83-10.88s3.23-11.22,10-11.22,8.95,3.99,8.95,10.21v1.85Zm-3.11-2.98c0-4.45-1.72-6.55-5.92-6.55s-6.55,2.65-6.89,6.97h12.81v-.42Z"></path><path class="cls-5" d="m928.55,1739.13h2.98v6.51h-2.98v-6.51Zm0,11.76h2.94v21h-2.94v-21Z"></path><path class="cls-5" d="m938.25,1773.71v-.13h3.11v.13c0,2.9,1.93,4.33,6.13,4.33,4.79,0,7.01-2.94,7.01-7.86v-2.1h-.08c-1.09,2.18-3.65,4.07-7.48,4.07-6.3,0-9.75-3.99-9.75-10.71,0-7.1,4.37-11.09,9.96-11.09,3.78,0,6.55,1.81,7.56,4.12h.13l.29-3.57h2.31v19.16c0,5.88-2.81,10.71-10.33,10.71-6.3,0-8.86-2.98-8.86-7.06Zm16.59-12.77c0-5.5-3.36-8.07-7.35-8.07-3.03,0-7.14,1.47-7.14,8.4s3.57,8.32,7.1,8.32c4.24,0,7.39-2.73,7.39-8.65Z"></path><path class="cls-5" d="m964.8,1739.13h2.94v15.17c1.05-2.1,3.28-3.95,7.31-3.95,4.75,0,7.77,2.52,7.77,7.94v13.61h-2.94v-13.27c0-4.33-2.14-5.71-5.5-5.71-3.82,0-6.64,2.69-6.64,5.63v13.36h-2.94v-32.77Z"></path><path class="cls-5" d="m1001.13,1769.21v2.6c-.76.21-2.14.59-4.03.59-3.82,0-6.34-1.6-6.34-6.89v-12.18h-4.16v-2.44h4.16v-6.05l2.94-1.43v7.48h5.92v2.44h-5.92v11.8c0,2.81.76,4.58,3.4,4.58,1.6,0,3.23-.29,4.03-.5Z"></path><path class="cls-5" d="m1214.04,1690.29h8.61c7.94,0,11.64,2.44,11.64,8.86,0,4.58-2.18,7.98-6.76,9.33l7.86,14.53v.04h-3.32l-7.35-14.03c-.67.04-1.34.08-2.1.08h-5.59v13.95h-2.98v-32.77Zm8.74,16.3c6.09,0,8.49-2.81,8.49-7.31,0-4.75-2.6-6.38-8.44-6.38h-5.8v13.69h5.75Z"></path><path class="cls-5" d="m1238.53,1712.55c0-6.22,3.32-11.05,10.38-11.05,6.59,0,10.25,4.83,10.25,11.05s-3.7,11.05-10.29,11.05c-7.27,0-10.33-4.83-10.33-11.05Zm17.56,0c0-5.33-2.9-8.49-7.22-8.49-4.75,0-7.27,3.15-7.27,8.49s2.56,8.49,7.27,8.49c4.33,0,7.22-3.15,7.22-8.49Z"></path><path class="cls-5" d="m1264.61,1715.66v-13.61h2.94v13.27c0,4.33,2.14,5.71,5.42,5.71,3.74,0,6.55-2.69,6.55-5.63v-13.36h2.94v21h-2.6l-.25-3.36h-.08c-.97,2.02-3.23,3.91-7.23,3.91-4.66,0-7.69-2.52-7.69-7.94Z"></path><path class="cls-5" d="m1289.81,1702.05h2.6l.29,3.49c1.01-2.14,3.28-4.03,7.35-4.03,4.75,0,7.77,2.52,7.77,7.94v13.61h-2.94v-13.27c0-4.33-2.14-5.71-5.5-5.71-3.82,0-6.64,2.69-6.64,5.63v13.36h-2.94v-21Z"></path><path class="cls-5" d="m1313.5,1712.59c0-7.1,4.28-11.09,10.04-11.09,3.7,0,6.22,1.6,7.31,3.74h.04v-14.96h2.94v32.77h-1.97l-.67-3.61h-.08c-1.18,2.31-3.95,4.16-7.77,4.16-6.3,0-9.83-3.99-9.83-11.01Zm17.64-.5c0-5.5-3.36-8.07-7.35-8.07-3.11,0-7.14,1.47-7.14,8.4s3.61,8.61,7.14,8.61c4.24,0,7.35-2.73,7.35-8.95Z"></path><path class="cls-5" d="m1349.16,1712.72c0-6.38,3.23-11.22,10-11.22s8.95,3.91,8.95,8.95v.42h-3.11v-.63c0-3.82-1.64-6.09-5.84-6.09-4.75,0-7.02,3.11-7.02,8.4,0,5.63,2.39,8.49,6.93,8.49,3.82,0,5.84-1.85,5.92-5.67h3.02c-.08,4.66-3.15,8.23-9.03,8.23-7.22,0-9.83-4.75-9.83-10.88Z"></path><path class="cls-5" d="m1372.3,1712.55c0-6.22,3.32-11.05,10.38-11.05,6.59,0,10.25,4.83,10.25,11.05s-3.7,11.05-10.29,11.05c-7.27,0-10.33-4.83-10.33-11.05Zm17.56,0c0-5.33-2.9-8.49-7.22-8.49-4.75,0-7.27,3.15-7.27,8.49s2.56,8.49,7.27,8.49c4.33,0,7.22-3.15,7.22-8.49Z"></path><path class="cls-5" d="m1398.8,1702.05h2.6l.29,3.49c1.01-2.14,3.28-4.03,7.35-4.03,4.75,0,7.77,2.52,7.77,7.94v13.61h-2.94v-13.27c0-4.33-2.14-5.71-5.5-5.71-3.82,0-6.64,2.69-6.64,5.63v13.36h-2.94v-21Z"></path><path class="cls-5" d="m1424.17,1702.05h2.6l.29,3.49c1.01-2.14,3.28-4.03,7.35-4.03,4.75,0,7.77,2.52,7.77,7.94v13.61h-2.94v-13.27c0-4.33-2.14-5.71-5.5-5.71-3.82,0-6.64,2.69-6.64,5.63v13.36h-2.94v-21Z"></path><path class="cls-5" d="m1466.8,1713.56h-15.96c.17,4.79,2.48,7.48,6.93,7.48,3.82,0,5.67-1.43,5.97-4.83h2.98c-.29,4.24-3.28,7.39-9.03,7.39-7.06,0-9.83-4.66-9.83-10.88s3.23-11.22,10-11.22,8.95,3.99,8.95,10.21v1.85Zm-3.11-2.98c0-4.45-1.72-6.55-5.92-6.55s-6.55,2.65-6.89,6.97h12.81v-.42Z"></path><path class="cls-5" d="m1471,1712.72c0-6.38,3.23-11.22,10-11.22s8.95,3.91,8.95,8.95v.42h-3.11v-.63c0-3.82-1.64-6.09-5.84-6.09-4.75,0-7.02,3.11-7.02,8.4,0,5.63,2.39,8.49,6.93,8.49,3.82,0,5.84-1.85,5.92-5.67h3.02c-.08,4.66-3.15,8.23-9.03,8.23-7.22,0-9.83-4.75-9.83-10.88Z"></path><path class="cls-5" d="m1506.79,1720.37v2.6c-.76.21-2.14.59-4.03.59-3.82,0-6.34-1.6-6.34-6.89v-12.18h-4.16v-2.44h4.16v-6.05l2.94-1.43v7.48h5.92v2.44h-5.92v11.8c0,2.81.76,4.58,3.4,4.58,1.6,0,3.23-.29,4.03-.5Z"></path><path class="cls-5" d="m1511.61,1690.29h2.98v6.51h-2.98v-6.51Zm0,11.76h2.94v21h-2.94v-21Z"></path><path class="cls-5" d="m1521.95,1702.05h2.6l.29,3.49c1.01-2.14,3.28-4.03,7.35-4.03,4.75,0,7.77,2.52,7.77,7.94v13.61h-2.94v-13.27c0-4.33-2.14-5.71-5.5-5.71-3.82,0-6.64,2.69-6.64,5.63v13.36h-2.94v-21Z"></path><path class="cls-5" d="m1546.68,1724.86v-.13h3.11v.13c0,2.9,1.93,4.33,6.13,4.33,4.79,0,7.01-2.94,7.01-7.86v-2.1h-.08c-1.09,2.18-3.65,4.07-7.48,4.07-6.3,0-9.75-3.99-9.75-10.71,0-7.1,4.37-11.09,9.96-11.09,3.78,0,6.55,1.81,7.56,4.12h.13l.29-3.57h2.31v19.16c0,5.88-2.81,10.71-10.33,10.71-6.3,0-8.86-2.98-8.86-7.06Zm16.59-12.77c0-5.5-3.36-8.07-7.35-8.07-3.03,0-7.14,1.47-7.14,8.4s3.57,8.32,7.1,8.32c4.24,0,7.39-2.73,7.39-8.65Z"></path><path class="cls-5" d="m1285.57,1762.41h-15.96c.17,4.79,2.48,7.48,6.93,7.48,3.82,0,5.67-1.43,5.97-4.83h2.98c-.29,4.24-3.28,7.39-9.03,7.39-7.06,0-9.83-4.66-9.83-10.88s3.23-11.22,10-11.22,8.95,3.99,8.95,10.21v1.85Zm-3.11-2.98c0-4.45-1.72-6.55-5.92-6.55s-6.55,2.65-6.89,6.97h12.81v-.42Z"></path><path class="cls-5" d="m1291.45,1750.9h2.6l.29,3.49c1.01-2.14,3.28-4.03,7.35-4.03,4.75,0,7.77,2.52,7.77,7.94v13.61h-2.94v-13.27c0-4.33-2.14-5.71-5.5-5.71-3.82,0-6.64,2.69-6.64,5.63v13.36h-2.94v-21Z"></path><path class="cls-5" d="m1327.78,1769.21v2.6c-.76.21-2.14.59-4.03.59-3.82,0-6.34-1.6-6.34-6.89v-12.18h-4.16v-2.44h4.16v-6.05l2.94-1.43v7.48h5.92v2.44h-5.92v11.8c0,2.81.76,4.58,3.4,4.58,1.6,0,3.23-.29,4.03-.5Z"></path><path class="cls-5" d="m1332.61,1750.9h2.6l.29,3.91c1.01-2.14,3.07-4.45,6.76-4.45,1.26,0,2.18.21,3.02.55v3.15c-1.13-.5-2.1-.76-3.4-.76-3.74,0-6.34,2.81-6.34,5.75v12.85h-2.94v-21Z"></path><path class="cls-5" d="m1350.12,1750.9l6.89,17.98h.08l7.14-17.98h3.07v.04l-8.86,20.84-3.11,8.53h-2.98v-.04l3.19-8.36-8.78-20.96v-.04h3.36Z"></path><path class="cls-5" d="m1379.27,1765.47v-1.18h2.94v1.13c0,2.86,2.14,4.5,5.96,4.5s5.8-1.01,5.8-3.78c0-2.06-1.01-2.81-3.86-3.32l-4.62-.84c-3.02-.55-5.54-2.02-5.54-5.5,0-3.15,2.35-6.13,8.4-6.13s8.4,3.02,8.4,7.22v.88h-2.98v-.76c0-3.44-2.14-4.91-5.42-4.91-3.95,0-5.33,1.34-5.33,3.36s1.01,2.86,3.91,3.4l4.03.76c4.12.76,6.09,1.93,6.09,5.59,0,4.58-4.12,6.55-8.78,6.55-7.31,0-8.99-3.28-8.99-6.97Z"></path><path class="cls-5" d="m1413.88,1769.21v2.6c-.76.21-2.14.59-4.03.59-3.82,0-6.34-1.6-6.34-6.89v-12.18h-4.16v-2.44h4.16v-6.05l2.94-1.43v7.48h5.92v2.44h-5.92v11.8c0,2.81.76,4.58,3.4,4.58,1.6,0,3.23-.29,4.03-.5Z"></path><path class="cls-5" d="m1418.71,1750.9h2.6l.29,3.91c1.01-2.14,3.07-4.45,6.76-4.45,1.26,0,2.18.21,3.02.55v3.15c-1.13-.5-2.1-.76-3.4-.76-3.74,0-6.34,2.81-6.34,5.75v12.85h-2.94v-21Z"></path><path class="cls-5" d="m1433.7,1761.4c0-6.22,3.32-11.05,10.38-11.05,6.59,0,10.25,4.83,10.25,11.05s-3.7,11.05-10.29,11.05c-7.27,0-10.33-4.83-10.33-11.05Zm17.56,0c0-5.33-2.9-8.49-7.22-8.49-4.75,0-7.27,3.15-7.27,8.49s2.56,8.49,7.27,8.49c4.33,0,7.22-3.15,7.22-8.49Z"></path><path class="cls-5" d="m1459.58,1739.14h2.94v23.23l12.14-11.47h3.65v.04l-8.4,7.86,8.78,13.06v.04h-3.36l-7.39-11.22-5.42,5.04v6.18h-2.94v-32.77Z"></path><path class="cls-5" d="m1499.94,1762.41h-15.96c.17,4.79,2.48,7.48,6.93,7.48,3.82,0,5.67-1.43,5.97-4.83h2.98c-.29,4.24-3.28,7.39-9.03,7.39-7.06,0-9.83-4.66-9.83-10.88s3.23-11.22,10-11.22,8.95,3.99,8.95,10.21v1.85Zm-3.11-2.98c0-4.45-1.72-6.55-5.92-6.55s-6.55,2.65-6.89,6.97h12.81v-.42Z"></path><path class="cls-5" d="m1503.93,1765.47v-1.18h2.94v1.13c0,2.86,2.14,4.5,5.96,4.5s5.8-1.01,5.8-3.78c0-2.06-1.01-2.81-3.86-3.32l-4.62-.84c-3.02-.55-5.54-2.02-5.54-5.5,0-3.15,2.35-6.13,8.4-6.13s8.4,3.02,8.4,7.22v.88h-2.98v-.76c0-3.44-2.14-4.91-5.42-4.91-3.95,0-5.33,1.34-5.33,3.36s1.01,2.86,3.91,3.4l4.03.76c4.12.76,6.09,1.93,6.09,5.59,0,4.58-4.12,6.55-8.78,6.55-7.31,0-8.99-3.28-8.99-6.97Z"></path><path class="cls-5" d="m238.22,859.61h3.15l17.69,27.6h.04v-27.6h2.94v32.77h-3.07l-17.77-27.94h-.04v27.94h-2.94v-32.77Z"></path><path class="cls-5" d="m270.22,884.98v-13.61h2.94v13.27c0,4.33,2.14,5.71,5.42,5.71,3.74,0,6.55-2.69,6.55-5.63v-13.36h2.94v21h-2.6l-.25-3.36h-.08c-.97,2.02-3.23,3.91-7.23,3.91-4.66,0-7.69-2.52-7.69-7.94Z"></path><path class="cls-5" d="m326.13,878.76v13.61h-2.94v-13.27c0-4.33-2.14-5.71-4.75-5.71-3.82,0-6.17,2.69-6.17,5.63v13.36h-2.94v-13.27c0-4.33-1.85-5.71-4.83-5.71-3.61,0-6.13,2.69-6.13,5.63v13.36h-2.94v-21h2.6l.29,3.49c1.01-2.02,3.07-4.03,6.93-4.03,2.94,0,5.38,1.39,6.43,4.28,1.22-2.39,3.57-4.28,7.14-4.28,4.29,0,7.31,2.52,7.31,7.94Z"></path><path class="cls-5" d="m350.74,882.88h-15.96c.17,4.79,2.48,7.48,6.93,7.48,3.82,0,5.67-1.43,5.97-4.83h2.98c-.29,4.24-3.28,7.39-9.03,7.39-7.06,0-9.83-4.66-9.83-10.88s3.23-11.22,10-11.22,8.95,3.99,8.95,10.21v1.85Zm-3.11-2.98c0-4.45-1.72-6.55-5.92-6.55s-6.55,2.65-6.89,6.97h12.81v-.42Z"></path><path class="cls-5" d="m356.62,871.37h2.6l.29,3.91c1.01-2.14,3.07-4.45,6.76-4.45,1.26,0,2.18.21,3.02.55v3.15c-1.13-.5-2.1-.76-3.4-.76-3.74,0-6.34,2.81-6.34,5.75v12.85h-2.94v-21Z"></path><path class="cls-5" d="m372.24,886.58c0-3.95,2.23-6.09,7.86-6.09h6.34v-1.72c0-2.98-1.26-5.42-5.46-5.42-3.95,0-5.33,1.51-5.33,4.12v.88h-2.98v-.84c0-5,4.2-6.68,8.32-6.68,5.8,0,8.4,2.86,8.4,8.44v13.11h-2.06l-.55-2.98h-.08c-1.26,1.89-3.7,3.53-7.35,3.53-4.92,0-7.1-2.31-7.1-6.34Zm14.2-1.85v-1.76h-7.01c-2.65,0-4.03.92-4.03,3.61,0,2.35,1.26,3.86,4.5,3.86,4.16,0,6.55-2.14,6.55-5.71Z"></path><path class="cls-5" d="m396.72,859.61h2.94v32.77h-2.94v-32.77Z"></path><path class="cls-5" d="m405.12,885.95v-1.18h2.94v1.13c0,2.86,2.14,4.5,5.96,4.5s5.8-1.01,5.8-3.78c0-2.06-1.01-2.81-3.86-3.32l-4.62-.84c-3.02-.55-5.54-2.02-5.54-5.5,0-3.15,2.35-6.13,8.4-6.13s8.4,3.02,8.4,7.23v.88h-2.98v-.76c0-3.44-2.14-4.91-5.42-4.91-3.95,0-5.33,1.34-5.33,3.36s1.01,2.86,3.91,3.4l4.03.76c4.12.76,6.09,1.93,6.09,5.59,0,4.58-4.12,6.55-8.78,6.55-7.31,0-8.99-3.28-8.99-6.97Z"></path><path class="cls-5" d="m437.17,886.58c0-3.95,2.23-6.09,7.86-6.09h6.34v-1.72c0-2.98-1.26-5.42-5.46-5.42-3.95,0-5.33,1.51-5.33,4.12v.88h-2.98v-.84c0-5,4.2-6.68,8.32-6.68,5.8,0,8.4,2.86,8.4,8.44v13.11h-2.06l-.55-2.98h-.08c-1.26,1.89-3.7,3.53-7.35,3.53-4.92,0-7.1-2.31-7.1-6.34Zm14.2-1.85v-1.76h-7.01c-2.65,0-4.03.92-4.03,3.61,0,2.35,1.26,3.86,4.5,3.86,4.16,0,6.55-2.14,6.55-5.71Z"></path><path class="cls-5" d="m461.66,871.37h2.6l.29,3.91c1.01-2.14,3.07-4.45,6.76-4.45,1.26,0,2.18.21,3.02.55v3.15c-1.13-.5-2.1-.76-3.4-.76-3.74,0-6.34,2.81-6.34,5.75v12.85h-2.94v-21Z"></path><path class="cls-5" d="m495.6,882.88h-15.96c.17,4.79,2.48,7.48,6.93,7.48,3.82,0,5.67-1.43,5.97-4.83h2.98c-.29,4.24-3.28,7.39-9.03,7.39-7.06,0-9.83-4.66-9.83-10.88s3.23-11.22,10-11.22,8.95,3.99,8.95,10.21v1.85Zm-3.11-2.98c0-4.45-1.72-6.55-5.92-6.55s-6.55,2.65-6.89,6.97h12.81v-.42Z"></path><path class="cls-5" d="m509.24,885.95v-1.18h2.94v1.13c0,2.86,2.14,4.5,5.96,4.5s5.8-1.01,5.8-3.78c0-2.06-1.01-2.81-3.86-3.32l-4.62-.84c-3.02-.55-5.54-2.02-5.54-5.5,0-3.15,2.35-6.13,8.4-6.13s8.4,3.02,8.4,7.23v.88h-2.98v-.76c0-3.44-2.14-4.91-5.42-4.91-3.95,0-5.33,1.34-5.33,3.36s1.01,2.86,3.91,3.4l4.03.76c4.12.76,6.09,1.93,6.09,5.59,0,4.58-4.12,6.55-8.78,6.55-7.31,0-8.99-3.28-8.99-6.97Z"></path><path class="cls-5" d="m532.89,859.61h2.94v15.16c1.05-2.1,3.28-3.95,7.31-3.95,4.75,0,7.77,2.52,7.77,7.94v13.61h-2.94v-13.27c0-4.33-2.14-5.71-5.5-5.71-3.82,0-6.64,2.69-6.64,5.63v13.36h-2.94v-32.77Z"></path><path class="cls-5" d="m556.58,881.87c0-6.22,3.32-11.05,10.38-11.05,6.59,0,10.25,4.83,10.25,11.05s-3.7,11.05-10.29,11.05c-7.27,0-10.33-4.83-10.33-11.05Zm17.56,0c0-5.33-2.9-8.49-7.22-8.49-4.75,0-7.27,3.15-7.27,8.49s2.56,8.49,7.27,8.49c4.33,0,7.22-3.15,7.22-8.49Z"></path><path class="cls-5" d="m583.08,871.37h2.6l.29,3.91c1.01-2.14,3.07-4.45,6.76-4.45,1.26,0,2.18.21,3.02.55v3.15c-1.13-.5-2.1-.76-3.4-.76-3.74,0-6.34,2.81-6.34,5.75v12.85h-2.94v-21Z"></path><path class="cls-5" d="m611.35,889.68v2.6c-.76.21-2.14.59-4.03.59-3.82,0-6.34-1.6-6.34-6.89v-12.18h-4.16v-2.44h4.16v-6.05l2.94-1.43v7.48h5.92v2.44h-5.92v11.8c0,2.81.76,4.58,3.4,4.58,1.6,0,3.23-.29,4.03-.5Z"></path><path class="cls-5" d="m632.81,882.88h-15.96c.17,4.79,2.48,7.48,6.93,7.48,3.82,0,5.67-1.43,5.97-4.83h2.98c-.29,4.24-3.28,7.39-9.03,7.39-7.06,0-9.83-4.66-9.83-10.88s3.23-11.22,10-11.22,8.95,3.99,8.95,10.21v1.85Zm-3.11-2.98c0-4.45-1.72-6.55-5.92-6.55s-6.55,2.65-6.89,6.97h12.81v-.42Z"></path><path class="cls-5" d="m638.69,871.37h2.6l.29,3.91c1.01-2.14,3.07-4.45,6.76-4.45,1.26,0,2.18.21,3.02.55v3.15c-1.13-.5-2.1-.76-3.4-.76-3.74,0-6.34,2.81-6.34,5.75v12.85h-2.94v-21Z"></path><path class="cls-5" d="m224.44,938.53v2.6c-.76.21-2.14.59-4.03.59-3.82,0-6.34-1.6-6.34-6.89v-12.18h-4.16v-2.44h4.16v-6.05l2.94-1.43v7.48h5.92v2.44h-5.92v11.8c0,2.81.76,4.58,3.4,4.58,1.6,0,3.23-.29,4.03-.5Z"></path><path class="cls-5" d="m229.27,908.45h2.94v15.16c1.05-2.1,3.28-3.95,7.31-3.95,4.75,0,7.77,2.52,7.77,7.94v13.61h-2.94v-13.27c0-4.33-2.14-5.71-5.5-5.71-3.82,0-6.64,2.69-6.64,5.63v13.36h-2.94v-32.77Z"></path><path class="cls-5" d="m253.38,935.42c0-3.95,2.23-6.09,7.86-6.09h6.34v-1.72c0-2.98-1.26-5.42-5.46-5.42-3.95,0-5.33,1.51-5.33,4.12v.88h-2.98v-.84c0-5,4.2-6.68,8.32-6.68,5.8,0,8.4,2.86,8.4,8.44v13.11h-2.06l-.55-2.98h-.08c-1.26,1.89-3.7,3.53-7.35,3.53-4.92,0-7.1-2.31-7.1-6.34Zm14.2-1.85v-1.76h-7.01c-2.65,0-4.03.92-4.03,3.61,0,2.35,1.26,3.86,4.5,3.86,4.16,0,6.55-2.14,6.55-5.71Z"></path><path class="cls-5" d="m277.87,920.22h2.6l.29,3.49c1.01-2.14,3.28-4.03,7.35-4.03,4.75,0,7.77,2.52,7.77,7.94v13.61h-2.94v-13.27c0-4.33-2.14-5.71-5.5-5.71-3.82,0-6.64,2.69-6.64,5.63v13.36h-2.94v-21Z"></path><path class="cls-5" d="m312.47,933.83v-13.61h2.94v13.27c0,4.33,2.14,5.71,5.42,5.71,3.74,0,6.55-2.69,6.55-5.63v-13.36h2.94v21h-2.6l-.25-3.36h-.08c-.97,2.02-3.23,3.91-7.23,3.91-4.66,0-7.69-2.52-7.69-7.94Z"></path><path class="cls-5" d="m337.67,920.22h2.39l.34,3.86h.08c1.13-2.48,4.03-4.41,7.86-4.41,6.3,0,9.66,3.99,9.66,11.01s-4.29,11.09-9.87,11.09c-3.78,0-6.38-1.6-7.43-3.7h-.08v11.55h-2.94v-29.41Zm17.18,10.63c0-7.18-3.4-8.61-6.93-8.61-4.24,0-7.56,2.73-7.56,8.44,0,6.01,3.45,8.57,7.44,8.57,3.02,0,7.06-1.47,7.06-8.4Z"></path><path class="cls-5" d="m363.88,920.22h2.39l.34,3.86h.08c1.13-2.48,4.03-4.41,7.86-4.41,6.3,0,9.66,3.99,9.66,11.01s-4.29,11.09-9.87,11.09c-3.78,0-6.38-1.6-7.43-3.7h-.08v11.55h-2.94v-29.41Zm17.18,10.63c0-7.18-3.4-8.61-6.93-8.61-4.24,0-7.56,2.73-7.56,8.44,0,6.01,3.45,8.57,7.44,8.57,3.02,0,7.06-1.47,7.06-8.4Z"></path><path class="cls-5" d="m407.35,931.73h-15.96c.17,4.79,2.48,7.48,6.93,7.48,3.82,0,5.67-1.43,5.97-4.83h2.98c-.29,4.24-3.28,7.39-9.03,7.39-7.06,0-9.83-4.66-9.83-10.88s3.23-11.22,10-11.22,8.95,3.99,8.95,10.21v1.85Zm-3.11-2.98c0-4.45-1.72-6.55-5.92-6.55s-6.55,2.65-6.89,6.97h12.81v-.42Z"></path><path class="cls-5" d="m413.23,920.22h2.6l.29,3.91c1.01-2.14,3.07-4.45,6.76-4.45,1.26,0,2.18.21,3.02.55v3.15c-1.13-.5-2.1-.76-3.4-.76-3.74,0-6.34,2.81-6.34,5.75v12.85h-2.94v-21Z"></path><path class="cls-5" d="m428.23,930.89c0-6.38,3.23-11.22,10-11.22s8.95,3.91,8.95,8.95v.42h-3.11v-.63c0-3.82-1.64-6.09-5.84-6.09-4.75,0-7.01,3.11-7.01,8.4,0,5.63,2.39,8.49,6.93,8.49,3.82,0,5.84-1.85,5.92-5.67h3.02c-.08,4.66-3.15,8.23-9.03,8.23-7.22,0-9.83-4.75-9.83-10.88Z"></path><path class="cls-5" d="m451.58,935.42c0-3.95,2.23-6.09,7.86-6.09h6.34v-1.72c0-2.98-1.26-5.42-5.46-5.42-3.95,0-5.33,1.51-5.33,4.12v.88h-2.98v-.84c0-5,4.2-6.68,8.32-6.68,5.8,0,8.4,2.86,8.4,8.44v13.11h-2.06l-.55-2.98h-.08c-1.26,1.89-3.7,3.53-7.35,3.53-4.92,0-7.1-2.31-7.1-6.34Zm14.2-1.85v-1.76h-7.01c-2.65,0-4.03.92-4.03,3.61,0,2.35,1.26,3.86,4.5,3.86,4.16,0,6.55-2.14,6.55-5.71Z"></path><path class="cls-5" d="m474.17,934.79v-1.18h2.94v1.13c0,2.86,2.14,4.5,5.96,4.5s5.8-1.01,5.8-3.78c0-2.06-1.01-2.81-3.86-3.32l-4.62-.84c-3.02-.55-5.54-2.02-5.54-5.5,0-3.15,2.35-6.13,8.4-6.13s8.4,3.02,8.4,7.23v.88h-2.98v-.76c0-3.44-2.14-4.91-5.42-4.91-3.95,0-5.33,1.34-5.33,3.36s1.01,2.86,3.91,3.4l4.03.76c4.12.76,6.09,1.93,6.09,5.59,0,4.58-4.12,6.55-8.78,6.55-7.31,0-8.99-3.28-8.99-6.97Z"></path><path class="cls-5" d="m515.08,931.73h-15.96c.17,4.79,2.48,7.48,6.93,7.48,3.82,0,5.67-1.43,5.97-4.83h2.98c-.29,4.24-3.28,7.39-9.03,7.39-7.06,0-9.83-4.66-9.83-10.88s3.23-11.22,10-11.22,8.95,3.99,8.95,10.21v1.85Zm-3.11-2.98c0-4.45-1.72-6.55-5.92-6.55s-6.55,2.65-6.89,6.97h12.81v-.42Z"></path><path class="cls-5" d="m530.62,908.45h2.94v32.77h-2.94v-32.77Z"></path><path class="cls-5" d="m558.18,931.73h-15.96c.17,4.79,2.48,7.48,6.93,7.48,3.82,0,5.67-1.43,5.97-4.83h2.98c-.29,4.24-3.28,7.39-9.03,7.39-7.06,0-9.83-4.66-9.83-10.88s3.23-11.22,10-11.22,8.95,3.99,8.95,10.21v1.85Zm-3.11-2.98c0-4.45-1.72-6.55-5.92-6.55s-6.55,2.65-6.89,6.97h12.81v-.42Z"></path><path class="cls-5" d="m564.64,934.83v-12.18h-4.16v-2.44h4.16v-6.05l2.94-1.43v7.48h11.85v-6.05l2.94-1.43v7.48h5.92v2.44h-5.92v11.8c0,2.81.76,4.58,3.4,4.58,1.6,0,3.24-.29,4.03-.5v2.6c-.76.21-2.14.59-4.03.59-3.82,0-6.34-1.6-6.34-6.89v-12.18h-11.85v11.8c0,2.81.76,4.58,3.4,4.58,1.6,0,3.23-.29,4.03-.5v2.6c-.76.21-2.14.59-4.03.59-3.82,0-6.34-1.6-6.34-6.89Z"></path><path class="cls-5" d="m611.26,931.73h-15.96c.17,4.79,2.48,7.48,6.93,7.48,3.82,0,5.67-1.43,5.97-4.83h2.98c-.29,4.24-3.28,7.39-9.03,7.39-7.06,0-9.83-4.66-9.83-10.88s3.23-11.22,10-11.22,8.95,3.99,8.95,10.21v1.85Zm-3.11-2.98c0-4.45-1.72-6.55-5.92-6.55s-6.55,2.65-6.89,6.97h12.81v-.42Z"></path><path class="cls-5" d="m617.14,920.22h2.6l.29,3.91c1.01-2.14,3.07-4.45,6.76-4.45,1.26,0,2.18.21,3.02.55v3.15c-1.13-.5-2.1-.76-3.4-.76-3.74,0-6.34,2.81-6.34,5.75v12.85h-2.94v-21Z"></path><path class="cls-5" d="m632.35,934.79v-1.18h2.94v1.13c0,2.86,2.14,4.5,5.96,4.5s5.8-1.01,5.8-3.78c0-2.06-1.01-2.81-3.86-3.32l-4.62-.84c-3.02-.55-5.54-2.02-5.54-5.5,0-3.15,2.35-6.13,8.4-6.13s8.4,3.02,8.4,7.23v.88h-2.98v-.76c0-3.44-2.14-4.91-5.42-4.91-3.95,0-5.33,1.34-5.33,3.36s1.01,2.86,3.91,3.4l4.03.76c4.12.76,6.09,1.93,6.09,5.59,0,4.58-4.12,6.55-8.78,6.55-7.31,0-8.99-3.28-8.99-6.97Z"></path><path class="cls-5" d="m1393.34,791.5c0-11.72,6.76-16.93,15.46-16.93,7.94,0,14.7,5.21,14.7,16.59,0,12.48-6.76,17.26-15.08,17.26s-15.08-4.79-15.08-16.93Zm27.05,0c0-10.12-5.33-14.24-12.01-14.24s-11.93,4.12-11.93,14.24,5.33,14.2,12.01,14.2,11.93-3.74,11.93-14.2Z"></path><path class="cls-5" d="m1429.8,786.88h2.39l.34,3.86h.08c1.13-2.48,4.03-4.41,7.86-4.41,6.3,0,9.66,3.99,9.66,11.01s-4.29,11.09-9.87,11.09c-3.78,0-6.38-1.6-7.43-3.7h-.08v11.55h-2.94v-29.41Zm17.18,10.63c0-7.18-3.4-8.61-6.93-8.61-4.24,0-7.56,2.73-7.56,8.44,0,6.01,3.45,8.57,7.44,8.57,3.02,0,7.06-1.47,7.06-8.4Z"></path><path class="cls-5" d="m1473.27,798.39h-15.96c.17,4.79,2.48,7.48,6.93,7.48,3.82,0,5.67-1.43,5.97-4.83h2.98c-.29,4.24-3.28,7.39-9.03,7.39-7.06,0-9.83-4.66-9.83-10.88s3.23-11.22,10-11.22,8.95,3.99,8.95,10.21v1.85Zm-3.11-2.98c0-4.45-1.72-6.55-5.92-6.55s-6.55,2.65-6.89,6.97h12.81v-.42Z"></path><path class="cls-5" d="m1479.15,786.88h2.6l.29,3.49c1.01-2.14,3.28-4.03,7.35-4.03,4.75,0,7.77,2.52,7.77,7.94v13.61h-2.94v-13.27c0-4.33-2.14-5.71-5.5-5.71-3.82,0-6.64,2.69-6.64,5.63v13.36h-2.94v-21Z"></path><path class="cls-5" d="m1512.29,801.46v-1.18h2.94v1.13c0,2.86,2.14,4.5,5.96,4.5s5.8-1.01,5.8-3.78c0-2.06-1.01-2.81-3.86-3.32l-4.62-.84c-3.02-.55-5.54-2.02-5.54-5.5,0-3.15,2.35-6.13,8.4-6.13s8.4,3.02,8.4,7.23v.88h-2.98v-.76c0-3.44-2.14-4.91-5.42-4.91-3.95,0-5.33,1.34-5.33,3.36s1.01,2.86,3.91,3.4l4.03.76c4.12.76,6.09,1.93,6.09,5.59,0,4.58-4.12,6.55-8.78,6.55-7.31,0-8.99-3.28-8.99-6.97Z"></path><path class="cls-5" d="m1535.93,775.12h2.94v15.16c1.05-2.1,3.28-3.95,7.31-3.95,4.75,0,7.77,2.52,7.77,7.94v13.61h-2.94v-13.27c0-4.33-2.14-5.71-5.5-5.71-3.82,0-6.64,2.69-6.64,5.63v13.36h-2.94v-32.77Z"></path><path class="cls-5" d="m1560.04,802.09c0-3.95,2.23-6.09,7.86-6.09h6.34v-1.72c0-2.98-1.26-5.42-5.46-5.42-3.95,0-5.33,1.51-5.33,4.12v.88h-2.98v-.84c0-5,4.2-6.68,8.32-6.68,5.8,0,8.4,2.86,8.4,8.44v13.11h-2.06l-.55-2.98h-.08c-1.26,1.89-3.7,3.53-7.35,3.53-4.92,0-7.1-2.31-7.1-6.34Zm14.2-1.85v-1.76h-7.01c-2.65,0-4.03.92-4.03,3.61,0,2.35,1.26,3.86,4.5,3.86,4.16,0,6.55-2.14,6.55-5.71Z"></path><path class="cls-5" d="m1584.52,786.88h2.39l.34,3.86h.08c1.13-2.48,4.03-4.41,7.86-4.41,6.3,0,9.66,3.99,9.66,11.01s-4.29,11.09-9.87,11.09c-3.78,0-6.38-1.6-7.43-3.7h-.08v11.55h-2.94v-29.41Zm17.18,10.63c0-7.18-3.4-8.61-6.93-8.61-4.24,0-7.56,2.73-7.56,8.44,0,6.01,3.45,8.57,7.44,8.57,3.02,0,7.06-1.47,7.06-8.4Z"></path><path class="cls-5" d="m1628,798.39h-15.96c.17,4.79,2.48,7.48,6.93,7.48,3.82,0,5.67-1.43,5.97-4.83h2.98c-.29,4.24-3.28,7.39-9.03,7.39-7.06,0-9.83-4.66-9.83-10.88s3.23-11.22,10-11.22,8.95,3.99,8.95,10.21v1.85Zm-3.11-2.98c0-4.45-1.72-6.55-5.92-6.55s-6.55,2.65-6.89,6.97h12.81v-.42Z"></path><path class="cls-5" d="m1641.85,797.38c0-6.22,3.32-11.05,10.38-11.05,6.59,0,10.25,4.83,10.25,11.05s-3.7,11.05-10.29,11.05c-7.27,0-10.33-4.83-10.33-11.05Zm17.56,0c0-5.33-2.9-8.49-7.22-8.49-4.75,0-7.27,3.15-7.27,8.49s2.56,8.49,7.27,8.49c4.33,0,7.22-3.15,7.22-8.49Z"></path><path class="cls-5" d="m1672.52,781.84v5.04h5.92v2.44h-5.92v18.57h-2.94v-18.57h-4.16v-2.44h4.16v-5.42c0-5.29,3.15-6.89,6.38-6.89,1.85,0,2.98.29,3.74.55v2.6c-.71-.21-1.89-.46-3.49-.46-2.65,0-3.7,1.76-3.7,4.58Z"></path><path class="cls-5" d="m1694.4,785.58h-3.36v-5.08c0-3.95.88-5.29,3.4-5.97l.67,1.85c-1.76.67-2.06,1.09-2.06,3.78v.34h1.34v5.08Zm5.92,0h-3.36v-5.08c0-3.95.88-5.29,3.4-5.97l.67,1.85c-1.76.67-2.06,1.09-2.06,3.78v.34h1.34v5.08Z"></path><path class="cls-5" d="m1702.29,801.46v-1.18h2.94v1.13c0,2.86,2.14,4.5,5.96,4.5s5.8-1.01,5.8-3.78c0-2.06-1.01-2.81-3.86-3.32l-4.62-.84c-3.02-.55-5.54-2.02-5.54-5.5,0-3.15,2.35-6.13,8.4-6.13s8.4,3.02,8.4,7.23v.88h-2.98v-.76c0-3.44-2.14-4.91-5.42-4.91-3.95,0-5.33,1.34-5.33,3.36s1.01,2.86,3.91,3.4l4.03.76c4.12.76,6.09,1.93,6.09,5.59,0,4.58-4.12,6.55-8.78,6.55-7.31,0-8.99-3.28-8.99-6.97Z"></path><path class="cls-5" d="m1722.37,784.32c1.76-.67,2.06-1.09,2.06-3.78v-.34h-1.34v-5.08h3.36v5.08c0,3.95-.88,5.29-3.4,5.97l-.67-1.85Zm5.92,0c1.76-.67,2.06-1.09,2.06-3.78v-.34h-1.34v-5.08h3.36v5.08c0,3.95-.88,5.29-3.4,5.97l-.67-1.85Z"></path><line class="cls-2" x1="779.71" y1="1919.98" x2="779.71" y2="1874.42"></line><path class="cls-5" d="m973.75,775.12h2.94v30.12h15.71v2.65h-18.65v-32.77Z"></path><path class="cls-5" d="m995.55,797.38c0-6.22,3.32-11.05,10.38-11.05,6.59,0,10.25,4.83,10.25,11.05s-3.7,11.05-10.29,11.05c-7.27,0-10.33-4.83-10.33-11.05Zm17.56,0c0-5.33-2.9-8.49-7.22-8.49-4.75,0-7.27,3.15-7.27,8.49s2.56,8.49,7.27,8.49c4.33,0,7.22-3.15,7.22-8.49Z"></path><path class="cls-5" d="m1020.37,797.38c0-6.22,3.32-11.05,10.38-11.05,6.59,0,10.25,4.83,10.25,11.05s-3.7,11.05-10.29,11.05c-7.27,0-10.33-4.83-10.33-11.05Zm17.56,0c0-5.33-2.9-8.49-7.22-8.49-4.75,0-7.27,3.15-7.27,8.49s2.56,8.49,7.27,8.49c4.33,0,7.22-3.15,7.22-8.49Z"></path><path class="cls-5" d="m1046.87,786.88h2.39l.34,3.86h.08c1.13-2.48,4.03-4.41,7.86-4.41,6.3,0,9.66,3.99,9.66,11.01s-4.29,11.09-9.87,11.09c-3.78,0-6.38-1.6-7.43-3.7h-.08v11.55h-2.94v-29.41Zm17.18,10.63c0-7.18-3.4-8.61-6.93-8.61-4.24,0-7.56,2.73-7.56,8.44,0,6.01,3.45,8.57,7.44,8.57,3.02,0,7.06-1.47,7.06-8.4Z"></path><path class="cls-5" d="m1090.34,798.39h-15.96c.17,4.79,2.48,7.48,6.93,7.48,3.82,0,5.67-1.43,5.97-4.83h2.98c-.29,4.24-3.28,7.39-9.03,7.39-7.06,0-9.83-4.66-9.83-10.88s3.23-11.22,10-11.22,8.95,3.99,8.95,10.21v1.85Zm-3.11-2.98c0-4.45-1.72-6.55-5.92-6.55s-6.55,2.65-6.89,6.97h12.81v-.42Z"></path><path class="cls-5" d="m1094.54,797.42c0-7.1,4.28-11.09,10.04-11.09,3.7,0,6.22,1.6,7.31,3.74h.04v-14.95h2.94v32.77h-1.97l-.67-3.61h-.08c-1.18,2.31-3.95,4.16-7.77,4.16-6.3,0-9.83-3.99-9.83-11.01Zm17.64-.5c0-5.5-3.36-8.07-7.35-8.07-3.11,0-7.14,1.47-7.14,8.4s3.61,8.61,7.14,8.61c4.24,0,7.35-2.73,7.35-8.95Z"></path><path class="cls-5" d="m1129.99,801.46v-1.18h2.94v1.13c0,2.86,2.14,4.5,5.96,4.5s5.8-1.01,5.8-3.78c0-2.06-1.01-2.81-3.86-3.32l-4.62-.84c-3.02-.55-5.54-2.02-5.54-5.5,0-3.15,2.35-6.13,8.4-6.13s8.4,3.02,8.4,7.23v.88h-2.98v-.76c0-3.44-2.14-4.91-5.42-4.91-3.95,0-5.33,1.34-5.33,3.36s1.01,2.86,3.91,3.4l4.03.76c4.12.76,6.09,1.93,6.09,5.59,0,4.58-4.12,6.55-8.78,6.55-7.31,0-8.99-3.28-8.99-6.97Z"></path><path class="cls-5" d="m1164.6,805.2v2.6c-.76.21-2.14.59-4.03.59-3.82,0-6.34-1.6-6.34-6.89v-12.18h-4.16v-2.44h4.16v-6.05l2.94-1.43v7.48h5.92v2.44h-5.92v11.8c0,2.81.76,4.58,3.4,4.58,1.6,0,3.23-.29,4.03-.5Z"></path><path class="cls-5" d="m1169.64,786.88l6.89,17.98h.08l7.14-17.98h3.07v.04l-8.86,20.84-3.11,8.53h-2.98v-.04l3.19-8.36-8.78-20.96v-.04h3.36Z"></path><path class="cls-5" d="m1191.02,775.12h2.94v32.77h-2.94v-32.77Z"></path><path class="cls-5" d="m1218.57,798.39h-15.96c.17,4.79,2.48,7.48,6.93,7.48,3.82,0,5.67-1.43,5.97-4.83h2.98c-.29,4.24-3.28,7.39-9.03,7.39-7.06,0-9.83-4.66-9.83-10.88s3.23-11.22,10-11.22,8.95,3.99,8.95,10.21v1.85Zm-3.11-2.98c0-4.45-1.72-6.55-5.92-6.55s-6.55,2.65-6.89,6.97h12.81v-.42Z"></path><path class="cls-5" d="m1232.43,797.38c0-6.22,3.32-11.05,10.38-11.05,6.59,0,10.25,4.83,10.25,11.05s-3.7,11.05-10.29,11.05c-7.27,0-10.33-4.83-10.33-11.05Zm17.56,0c0-5.33-2.9-8.49-7.22-8.49-4.75,0-7.27,3.15-7.27,8.49s2.56,8.49,7.27,8.49c4.33,0,7.22-3.15,7.22-8.49Z"></path><path class="cls-5" d="m1263.09,781.84v5.04h5.92v2.44h-5.92v18.57h-2.94v-18.57h-4.16v-2.44h4.16v-5.42c0-5.29,3.15-6.89,6.38-6.89,1.85,0,2.98.29,3.74.55v2.6c-.71-.21-1.89-.46-3.49-.46-2.65,0-3.7,1.76-3.7,4.58Z"></path><path class="cls-5" d="m1284.97,785.58h-3.36v-5.08c0-3.95.88-5.29,3.4-5.97l.67,1.85c-1.76.67-2.06,1.09-2.06,3.78v.34h1.34v5.08Zm5.92,0h-3.36v-5.08c0-3.95.88-5.29,3.4-5.97l.67,1.85c-1.76.67-2.06,1.09-2.06,3.78v.34h1.34v5.08Z"></path><path class="cls-5" d="m1313.49,786.92l-8.07,10.5,8.02,10.42v.04h-3.44l-6.34-8.44-6.43,8.44h-3.28v-.04l8.02-10.38-8.07-10.54v-.04h3.44l6.39,8.49,6.43-8.44v-.04h3.32v.04Z"></path><path class="cls-5" d="m1316.13,784.32c1.76-.67,2.06-1.09,2.06-3.78v-.34h-1.34v-5.08h3.36v5.08c0,3.95-.88,5.29-3.4,5.97l-.67-1.85Zm5.92,0c1.76-.67,2.06-1.09,2.06-3.78v-.34h-1.34v-5.08h3.36v5.08c0,3.95-.88,5.29-3.4,5.97l-.67-1.85Z"></path><line class="cls-2" x1="1538.51" y1="744.71" x2="1537.32" y2="560.81"></line><circle class="cls-7" cx="1629.15" cy="2870.52" r="136.24"></circle><polygon class="cls-6" points="1500.16 522.23 1463.73 484.96 1578.09 375.48 1588.25 423.97 1588.25 495.66 1567.07 532.39 1528.96 532.39 1500.16 522.23"></polygon><line class="cls-2" x1="1627.54" y1="2724.19" x2="1625.95" y2="2636.99"></line><rect class="cls-7" x="1273.42" y="1993.88" width="133.66" height="133.66" rx="66.83" ry="66.83" transform="translate(-911.85 1075.41) rotate(-33.33)"></rect><rect class="cls-7" x="1364.51" y="1239.91" width="104.82" height="104.82" rx="52.41" ry="52.41"></rect><rect class="cls-6" x="688.39" y="1849.57" width="148.59" height="148.59" rx="73.9" ry="73.9"></rect><path class="cls-7" d="m958.3,1208.37c-5.01,15.03-10.02,31.93-15.65,50.08-16.9,53.84-26.92,96.41-26.29,107.68,0,13.15,6.26,20.66,14.4,20.66,15.03.63,42.57-19.41,69.49-43.2,10.02-8.76,22.54,4.38,12.52,13.15-32.56,28.8-66.36,48.83-83.89,49.46-14.4,0-32.56-13.77-32.56-38.19.63-11.89,10.02-56.97,28.17-113.94,3.76-12.52,7.51-24.42,11.27-35.69-8.14,3.13-16.28,6.26-25.04,10.02-14.4,5.63-28.17,11.27-40.69,16.28l-15.03,46.33c-26.29,82.01-59.48,114.57-97.67,115.19-34.43-.63-50.08-20.66-50.08-50.08,0-41.95,45.7-79.51,147.12-124.59l53.21-160.27c-6.89,2.5-14.4,3.76-22.54,4.38-24.42-.63-35.69-13.15-59.48-13.15-18.16-.63-30.05,21.91-41.95,53.84-5.01,12.52-23.16,6.26-18.16-5.63,16.9-42.57,37.56-67.61,61.98-67.61s34.43,13.15,58.22,13.77c13.77-.63,23.16-5.01,33.18-10.64,10.02-5.63,16.28,0,13.15,10.64l-54.47,164.65c9.39-3.76,18.78-7.51,28.17-11.27,13.15-5.01,25.67-10.02,37.56-15.03,18.78-56.97,33.81-92.66,46.95-114.57,20.03-32.55,36.94-38.82,58.22-39.44,26.92.63,45.7,15.65,45.08,43.2,0,40.69-37.56,80.14-135.23,123.96Zm-231.02,145.87c0,19.41,8.76,32.56,31.93,32.56,31.93,0,55.09-31.3,77-100.17l10.64-31.93c-80.76,35.68-119.58,63.86-119.58,99.54Zm319.29-293.62c-15.03,0-26.29,5.01-40.07,28.17-11.9,19.41-24.42,49.46-40.69,96.41,76.38-34.43,108.31-65.11,107.68-99.54.63-16.9-10.02-25.04-26.92-25.04Z"></path><path class="cls-5" d="m1166.77,1355.49l-2.5,2.5c-28.17,23.16-63.23,48.21-92.03,46.95-26.29.63-38.19-26.29-38.82-51.34,0-5.01,0-10.02.63-15.03-8.14,6.89-15.65,13.77-21.29,18.78-10.02,8.14-22.54-4.38-13.15-13.77,9.39-8.14,26.29-21.91,38.82-31.93,6.89-26.92,19.41-50.71,33.81-67.61,16.9-18.78,35.06-30.05,52.59-30.05,18.78,1.25,26.29,10.64,26.92,27.55-.63,20.03-13.77,34.43-38.82,50.08-18.16,12.52-37.56,21.29-57.6,31.3-1.88,9.39-2.5,18.78-2.5,28.8.63,15.65,4.38,34.43,21.91,34.43,23.16,0,50.71-20.03,74.5-39.44.63-1.25,1.25-1.88,2.5-3.13,30.05-25.67,50.08-49.46,73.25-73.25,8.76-10.02,22.54,2.5,13.77,11.9-22.54,23.79-43.2,47.58-72,73.25Zm-43.82-122.08c-11.9.63-24.42,9.39-36.31,22.54-9.39,11.89-18.78,26.29-25.04,43.2,14.4-6.89,28.17-14.4,41.32-23.16,17.53-11.27,29.42-18.78,28.8-32.56.63-6.26-1.88-9.39-8.77-10.02Z"></path><path class="cls-5" d="m1397.78,1303.53c-1.25,0-2.5,0-3.76-.63-27.55-9.39-43.82-23.16-40.07-52.59-11.9,10.64-23.79,23.79-35.06,38.82-23.79,29.42-41.95,66.99-57.6,109.56-3.76,12.52-22.54,8.14-18.78-4.38l34.43-96.41c7.51-22.54,17.53-45.08,16.9-56.97,0-3.76,0-5.63-3.76-5.63-10.02-.63-28.8,20.66-50.71,46.33-8.77,10.02-23.79-1.88-14.4-11.27,28.17-31.93,53.84-53.21,66.36-53.84,15.65-1.25,21.91,5.01,21.91,21.91.63,10.02-4.38,24.42-10.02,40.69l.63-.63c19.41-26.29,40.69-46.33,62.61-61.35,10.02-6.89,18.78,0,13.77,10.64-15.03,35.06-2.5,48.83,21.91,56.97q.63.63,1.25.63c13.15,1.88,21.91-7.51,34.43-16.28,10.64-7.51,20.66,6.89,10.64,15.03-16.9,12.52-31.93,23.16-50.71,19.41Z"></path><path class="cls-5" d="m1540.52,1406.83c-23.16-.63-33.81-16.28-63.86-15.65-21.91.63-33.81,3.76-52.59,13.15-11.9,6.89-20.03-6.26-10.02-15.03l159.64-143.99c-7.51,1.25-15.03,1.88-23.16,2.5-16.28-.63-27.55-13.15-49.46-12.52-10.02-.63-28.8,20.66-50.71,46.33-8.77,10.02-23.79-1.88-14.4-11.27,28.17-31.93,54.47-53.84,66.99-54.47,21.29-.63,33.18,11.89,49.46,12.52,20.03,0,35.69-2.5,52.59-10.02,11.9-5.01,19.41,6.89,9.39,15.65l-155.26,138.98c5.63-.63,11.9-.63,19.41-.63,30.05-.63,41.32,14.4,63.23,15.03,20.03,0,36.94-8.77,73.87-43.82,9.39-8.76,21.91,3.76,12.52,13.15-43.82,40.69-65.11,50.08-87.65,50.08Z"></path><path class="cls-5" d="m732.46,1983.64c-9.24,0-17.87-2.47-23.42-8.01l-12.94,44.99c-8.63,47.45-32.66,113.4-61.01,162.09-16.64,27.73-33.9,46.84-52.39,60.4,41.91-3.7,77.65-15.41,102.92-38.83,9.86-8.63,22.19,4.31,12.33,12.94-36.98,33.9-93.06,48.07-159.62,44.99h-.62c-8.63,1.85-17.26,2.47-26.5,2.47-43.76,0-70.26-45.61-70.26-93.06,0-65.33,25.27-141.75,64.09-193.52,32.05-43.14,71.49-71.49,116.48-71.49,35.13,0,63.48,17.26,73.34,50.54l11.71-41.91c3.08-12.33,22.19-9.24,18.49,3.08-10.48,32.66-6.78,47.45,9.24,46.84,26.5,0,41.29-22.8,60.4-53,6.16-11.09,22.8-3.08,16.02,8.01-22.8,38.83-44.99,64.09-78.27,63.48Zm-112.78-58.55c-38.83,0-72.11,26.5-99.84,62.25-35.75,50.54-59.78,120.79-59.16,183.04,0,36.98,16.64,75.19,52.39,75.19,41.29,0,75.19-20.34,106-70.87,32.66-57.93,61.63-140.52,61.01-184.89,0-41.91-25.27-64.71-60.4-64.71Z"></path><path class="cls-5" d="m872.97,2264.67c-11.71.62-19.72-8.01-20.34-24.04,0-13.56,4.31-24.65,8.63-38.21l22.8-57.93c4.93-14.79,11.09-30.81,11.09-40.68-.62-3.08,0-7.4-3.7-6.78-17.87,0-44.37,19.11-70.26,46.84-30.81,32.05-61.63,75.19-76.42,113.4l-.62,1.85-54.23,161.47c-3.7,12.33-21.57,8.01-17.87-3.7l83.2-247.75c1.23-3.7,2.47-8.01,4.31-11.71-17.26,20.95-36.36,37.59-62.25,60.4-9.86,8.01-21.57-6.16-11.71-14.17,28.97-24.65,49.3-42.52,68.41-68.41,12.33-17.26,20.34-30.81,27.73-54.85,1.85-8.63,10.48-9.86,15.41-6.78,2.47,1.85,3.7,4.93,3.08,9.24-7.4,30.2-16.64,59.78-26.5,89.36,10.48-14.17,22.19-27.73,34.51-40.06,30.81-33.28,64.09-54.23,84.43-54.23,16.02,0,22.19,11.09,20.95,24.65,0,11.71-6.16,30.82-11.71,46.84l-22.19,58.55c-4.31,11.71-8.01,20.34-8.63,30.2,0,4.31,0,8.01,3.7,7.4,9.24,0,34.51-18.49,61.01-41.91,9.24-9.24,22.19,4.31,12.33,12.94-32.05,27.73-63.48,48.69-75.19,48.07Z"></path><path class="cls-5" d="m1057.85,2111.22c-5.55,5.55-10.48,11.09-15.41,16.02l-40.68,115.86c30.82-3.7,57.93-17.87,81.35-39.44,9.24-8.63,22.19,4.31,12.33,12.94-28.97,26.5-62.86,43.76-100.46,46.22l-52.39,147.91c-4.31,11.71-22.19,7.4-17.87-4.31,0,0,51.77-145.45,51.77-144.83-10.48-2.47-22.19-7.4-33.28-15.41-9.86-7.4,3.7-22.8,12.94-15.41,9.24,7.4,18.49,11.09,26.5,12.33l30.81-86.28c-20.34,19.1-40.06,38.21-65.94,61.01-9.86,8.01-21.57-6.16-11.71-14.17,36.98-32.05,62.25-56.08,91.83-86.28l16.02-46.84c19.11-53,30.2-100.46,47.45-126.34,11.09-17.26,25.88-26.5,45.61-26.5,22.19.62,32.05,12.94,32.05,36.36-.62,32.66-33.9,78.89-110.93,157.16Zm77.04-174.41c-11.71-.62-20.95,5.55-27.73,16.64-17.26,24.65-27.73,70.26-46.22,120.79l-4.31,12.94c62.86-64.71,93.06-102.92,93.06-131.27-.62-12.33-4.31-19.11-14.79-19.11Z"></path><path class="cls-5" d="m1247.06,2215.37l-2.47,2.47c-27.73,22.8-62.25,47.45-90.6,46.22-25.88.62-37.59-25.88-38.21-50.54,0-4.93,0-9.86.62-14.79-8.01,6.78-15.41,13.56-20.95,18.49-9.86,8.01-22.19-4.31-12.94-13.56,9.24-8.01,25.88-21.57,38.21-31.43,6.78-26.5,19.1-49.92,33.28-66.56,16.64-18.49,34.51-29.58,51.77-29.58,18.49,1.23,25.88,10.48,26.5,27.12-.62,19.72-13.56,33.9-38.21,49.3-17.87,12.33-36.98,20.95-56.7,30.82-1.85,9.24-2.47,18.49-2.47,28.35.62,15.41,4.31,33.9,21.57,33.9,22.8,0,49.92-19.72,73.34-38.83.62-1.23,1.23-1.85,2.47-3.08,29.58-25.27,49.3-48.69,72.11-72.11,8.63-9.86,22.19,2.47,13.56,11.71-22.19,23.42-42.52,46.84-70.87,72.11Zm-43.14-120.18c-11.71.62-24.04,9.24-35.75,22.19-9.24,11.71-18.49,25.88-24.65,42.52,14.17-6.78,27.73-14.17,40.68-22.8,17.26-11.09,28.97-18.49,28.35-32.05.62-6.16-1.85-9.24-8.63-9.86Z"></path><path class="cls-5" d="m1475.7,2164.22c-1.23.62-3.08,0-4.93-.62-27.12-9.24-43.14-22.8-39.44-51.77-11.71,10.48-23.42,23.42-34.51,38.21-23.42,28.97-41.29,65.94-56.7,107.85-3.7,12.33-22.19,8.01-18.49-4.31l33.9-94.91c7.4-22.19,17.26-44.37,16.64-56.08,0-3.7,0-5.55-3.7-5.55-9.86-.62-28.35,20.34-49.92,45.61-8.63,9.86-23.42-1.85-14.17-11.09,27.73-31.43,53-52.38,65.33-53,15.41-1.23,21.57,4.93,21.57,21.57.62,9.86-4.31,24.04-9.86,40.06l.62-.62c19.11-25.88,40.06-45.61,61.63-60.4,9.86-6.78,18.49,0,13.56,10.48-14.79,34.51-2.47,48.07,21.57,56.08,0,0,0,.62.62.62,22.19,3.08,51.15-28.97,70.26-57.32,6.78-10.48,21.57.62,15.41,10.48-22.8,36.36-59.78,67.79-89.36,64.71Z"></path><path class="cls-5" d="m403.3,2929.11h-6.26l-15.65,51.34c-14.4,48.21-28.17,83.27-42.57,106.43-4.38,5.63-8.14,10.64-13.15,15.03,48.83-1.88,90.78-14.4,118.95-40.69,10.02-8.76,22.54,4.38,12.52,13.15-36.94,34.43-94.53,49.46-162.15,45.7-6.26,1.88-13.77,3.13-21.29,3.13-25.67,0-48.83-15.03-66.36-36.31-8.14-9.39,7.51-21.91,15.03-13.15,14.4,16.9,33.18,30.68,53.21,30.05,19.41,0,34.43-8.14,46.95-26.29,14.4-21.91,26.29-55.09,41.32-100.8l15.03-48.83c-39.44-5.01-70.74-21.29-92.66-43.82-8.14-8.77,6.26-22.54,14.4-13.77,20.03,20.66,48.21,34.43,83.89,38.19l3.76-11.9c13.15-41.32,25.67-75.75,40.69-97.04,18.78-26.92,38.82-40.07,68.24-40.07,36.94.63,51.96,24.42,52.59,53.84,0,61.35-74.5,115.82-146.5,115.82Zm92.03-150.25c-21.91-.63-36.94,10.64-50.08,30.05-14.4,20.66-26.92,52.59-39.44,91.4l-3.13,9.39h2.5c60.1,0,125.21-42.57,124.59-94.53.63-19.41-9.39-36.31-34.43-36.31Z"></path><path class="cls-7" d="m591.73,3075.61l-.63.63c-26.29,23.79-58.22,46.95-77.01,46.95-6.89,0-12.52-3.76-15.03-13.15-3.76-12.52,1.88-36.94,8.77-57.6l12.52-37.56c-17.53,20.66-38.82,38.82-63.86,60.73-10.02,8.14-21.91-6.26-11.9-14.4,39.44-34.43,70.74-59.48,92.66-102.05h-21.91c-13.77,0-11.9-19.41,1.25-19.41h28.8c6.89-20.03,24.42-72,24.42-72,3.76-12.52,21.91-8.14,18.16,3.76l-23.16,68.24h46.33c13.15.63,11.27,20.03-1.88,19.41h-51.34c-6.26,19.41-31.93,97.66-31.93,97.66-5.63,16.28-10.02,35.69-8.14,46.95,15.65-1.88,38.82-20.66,58.85-38.82.63-1.25,1.88-2.5,3.13-3.76,30.05-25.67,50.08-49.46,73.25-73.25,8.77-10.02,22.54,2.5,13.77,11.9-23.16,24.42-44.45,48.83-75.13,75.75Z"></path><path class="cls-5" d="m822.12,3020.51c-27.55-9.39-43.82-23.16-40.07-52.59-11.9,10.64-23.79,23.79-35.06,38.82-23.79,29.42-41.95,66.99-57.6,109.56-3.76,12.52-22.54,8.14-18.78-4.38l34.43-96.41c7.51-22.54,17.53-45.08,16.9-56.97,0-3.76,0-5.63-3.76-5.63-10.02-.63-28.8,20.66-50.71,46.33-8.77,10.02-23.79-1.88-14.4-11.27,28.17-31.93,53.84-53.21,66.36-53.84,15.65-1.25,21.91,5.01,21.91,21.91.63,10.02-4.38,24.42-10.02,40.69l.63-.63c19.41-26.29,40.69-46.33,62.61-61.35,10.02-6.89,18.78,0,13.77,10.64-15.03,35.06-2.5,48.83,21.91,56.97,11.89,4.38,3.76,22.54-8.14,18.16Z"></path><path class="cls-5" d="m989.9,3123.19c-8.76,0-18.16-5.63-18.78-21.29,0-11.9,8.77-35.69,15.03-55.09l3.76-8.76c-10.64,13.77-21.29,26.29-31.3,37.56-29.42,30.68-60.1,46.95-83.89,47.58-8.76,0-18.16-6.26-18.78-21.29,0-11.27,8.77-35.69,15.03-55.09l16.28-43.82c-20.66,16.9-43.82,22.54-63.86,17.53-11.9-1.88-6.26-20.66,5.63-18.16,27.55,6.26,57.6-13.77,78.88-56.97,5.63-11.89,21.91-6.89,17.53,5.01l-36.31,100.8c-6.26,17.53-13.15,38.82-13.15,48.83-.63,2.5,0,3.76.63,4.38,20.03-.63,43.82-16.28,67.61-41.32,28.17-30.05,57.6-72,78.26-117.7,5.01-11.89,21.91-7.51,17.53,4.38l-35.69,100.8c-6.26,18.16-13.15,39.44-13.15,49.46,0,1.88-1.25,3.76,0,4.38,18.16.63,40.69-17.53,68.87-43.2,9.39-8.76,21.29,5.01,11.9,14.4-33.18,29.42-61.98,47.58-82.01,47.58Z"></path><path class="cls-5" d="m1261.61,3046.18c-6.89,18.16-12.52,36.31-13.15,48.83-.63,4.38.63,9.39,5.64,9.39,11.27-.63,36.94-22.54,61.35-43.2,10.02-8.76,21.29,5.63,11.27,13.77-29.42,25.67-61.98,48.21-74.5,48.21-16.9,0-22.54-13.15-23.16-26.29,0-5.01.63-10.64,1.88-17.53-.63,1.25-1.88,2.5-3.13,3.76-25.67,23.16-53.84,40.07-77.01,40.07-25.67,0-46.33-14.4-46.33-51.34,0-10.64,2.5-21.29,5.63-31.3-12.52,11.9-25.67,23.79-38.82,35.06-10.02,8.14-21.91-6.26-11.9-14.4,31.3-26.92,65.74-58.22,97.04-90.15.63-.63,1.88-1.25,2.5-1.88,23.16-20.66,49.46-34.43,70.74-35.06,18.78.63,33.81,10.64,42.57,25.04l59.48-172.79c4.38-11.27,22.54-6.89,18.15,4.38l-88.27,255.43Zm-33.18-92.66c-17.53,0-38.82,11.89-57.6,29.42-25.67,23.16-46.33,56.35-46.33,87.02,0,23.79,11.27,33.81,28.17,33.81,19.41.63,40.69-14.4,61.35-33.81,25.04-25.04,45.08-60.1,45.08-85.14,0-15.65-12.52-31.3-30.68-31.3Z"></path><path class="cls-5" d="m1386.81,3122.56c-26.29.63-38.19-26.29-38.82-51.34,0-5.01,0-10.02.63-15.03-8.14,6.89-15.65,13.77-21.29,18.78-10.02,8.14-22.54-4.38-13.15-13.77,9.39-8.14,26.29-21.91,38.82-31.93,6.89-26.92,19.41-50.71,33.81-67.61,16.9-18.78,35.06-30.05,52.59-30.05,18.78,1.25,26.29,10.64,26.92,27.55-.63,20.03-13.77,34.43-38.82,50.08-18.16,12.52-37.56,21.29-57.6,31.3-1.88,9.39-2.5,18.78-2.5,28.8.63,15.65,4.38,34.43,21.91,34.43,24.42,0,53.21-21.91,77.63-42.57,10.02-8.14,21.91,5.63,11.89,14.4-28.17,23.16-63.23,48.21-92.03,46.95Zm50.71-171.54c-11.9.63-24.42,9.39-36.31,22.54-9.39,11.89-18.78,26.29-25.04,43.2,14.4-6.89,28.17-14.4,41.32-23.16,17.53-11.27,29.42-18.78,28.8-32.56.63-6.26-1.88-9.39-8.76-10.02Z"></path><path class="cls-5" d="m1590.28,2967.3c-7.51,8.14-15.03,15.65-21.91,22.54-15.03,47.58-23.16,85.77-23.16,96.41,0,11.27,1.88,18.16,8.76,18.16,15.65.63,43.2-19.41,69.49-43.2,9.39-8.76,22.54,4.38,12.52,13.15-31.93,28.8-65.74,48.83-83.89,49.46-15.65,0-25.67-9.39-26.29-35.69-.63-8.76,4.38-35.06,14.4-69.49-18.78,18.16-37.56,35.69-61.98,56.97-10.02,8.14-21.91-6.26-11.89-14.4,34.43-30.05,58.22-52.59,85.14-80.14,1.25-2.5,1.88-5.63,3.13-8.76,19.41-60.1,36.94-120.2,58.85-157.77,16.28-28.17,35.06-43.82,56.97-43.82,22.54.63,32.55,13.15,32.55,36.94-.63,33.18-34.43,80.14-112.69,159.64Zm78.26-177.17c-15.65-.63-26.29,13.15-38.19,33.18-18.16,30.68-33.18,77.63-48.83,127.09,68.87-70.12,102.05-110.81,102.05-140.86-.63-12.52-4.38-19.41-15.03-19.41Z"></path><g class="cls-4"><path class="cls-8" d="m732.56,1983.56c-9.29,0-17.97-2.48-23.55-8.06l-13.01,45.23c-8.67,47.71-32.84,114.01-61.34,162.96-16.73,27.88-34.08,47.09-52.67,60.72,42.13-3.72,78.07-15.49,103.48-39.04,9.91-8.67,22.31,4.34,12.39,13.01-37.18,34.08-93.56,48.33-160.48,45.23h-.62c-8.67,1.86-17.35,2.48-26.64,2.48-43.99,0-70.64-45.85-70.64-93.56,0-71.88,29.74-154.91,74.36-208.19,30.36-35.32,67.54-58.24,107.2-58.24,35.32,0,63.2,16.73,73.74,50.19l11.77-41.51c3.72-12.39,22.31-9.29,18.59,3.1-10.53,32.84-6.82,47.71,9.29,47.09,26.64,0,41.51-22.93,60.72-53.29,6.2-11.15,22.93-3.1,16.11,8.06-22.93,39.04-45.23,64.44-78.69,63.82Zm-113.39-58.86c-33.46,0-64.44,20.45-90.47,51.43-42.13,49.57-70.02,127.64-69.4,195.18,0,37.18,16.73,75.59,52.67,75.59,41.51,0,75.59-20.45,106.58-71.26,32.84-58.24,61.96-141.28,61.34-185.89,0-42.13-25.4-65.06-60.72-65.06Zm12.39-43.99c-3.72,11.77-22.31,8.06-18.59-4.34l17.35-50.81c4.34-11.15,21.69-7.44,17.97,4.34l-16.73,50.81Zm44.61.62c-3.72,11.77-21.69,7.44-17.97-4.34l17.35-50.81c3.1-12.39,21.69-8.06,17.35,3.72l-16.73,51.43Z"></path></g><g class="cls-9"><path class="cls-8" d="m1475.7,2164.22c-1.23.62-3.08,0-4.93-.62-27.12-9.24-43.14-22.8-39.44-51.77-11.71,10.48-23.42,23.42-34.51,38.21-23.42,28.97-41.29,65.94-56.7,107.85-3.7,12.33-22.19,8.01-18.49-4.31l33.9-94.91c7.4-22.19,17.26-44.37,16.64-56.08,0-3.7,0-5.55-3.7-5.55-9.86-.62-28.35,20.34-49.92,45.61-8.63,9.86-23.42-1.85-14.17-11.09,27.73-31.43,53-52.38,65.33-53,15.41-1.23,21.57,4.93,21.57,21.57.62,9.86-4.31,24.04-9.86,40.06l.62-.62c19.11-25.88,40.06-45.61,61.63-60.4,9.86-6.78,18.49,0,13.56,10.48-14.79,34.51-2.47,48.07,21.57,56.08,0,0,0,.62.62.62,22.19,3.08,51.15-28.97,70.26-57.32,6.78-10.48,21.57.62,15.41,10.48-22.8,36.36-59.78,67.79-89.36,64.71Z"></path></g><g class="cls-11"><path class="cls-8" d="m1615.64,1343.6c-36.94,35.06-53.84,43.82-73.87,43.82-21.91-.63-33.18-15.65-63.23-15.03-7.51,0-13.77,0-19.41.63l155.26-138.98c10.02-8.76,2.5-20.66-9.39-15.65-16.9,7.51-32.55,10.02-52.59,10.02-16.28-.63-28.17-13.15-49.46-12.52-12.52.63-38.82,22.54-66.99,54.47-.09.09-.16.18-.24.27-11.42,8.29-19.92,16.53-32.31,14.76q-.63,0-1.25-.63c-24.42-8.14-36.94-21.91-21.91-56.97,5.01-10.64-3.76-17.53-13.77-10.64-21.91,15.03-43.2,35.06-62.61,61.35l-.63.63c5.63-16.28,10.64-30.68,10.02-40.69,0-16.9-6.26-23.16-21.91-21.91-12.52.63-38.19,21.91-66.36,53.84-9.39,9.39,5.63,21.29,14.4,11.27,21.91-25.67,40.69-46.95,50.71-46.33,3.76,0,3.76,1.88,3.76,5.63.63,11.9-9.39,34.43-16.9,56.97l-34.43,96.41c-3.76,12.52,15.03,16.9,18.78,4.38,15.65-42.57,33.81-80.14,57.6-109.56,11.27-15.03,23.16-28.17,35.06-38.82-3.76,29.42,12.52,43.2,40.07,52.59,1.25.63,2.5.63,3.76.63,18.78,3.76,33.81-6.89,50.71-19.41,1.57-1.28,2.65-2.71,3.31-4.18,21.29-24.91,39.48-45.26,49.28-44.65,21.91-.63,33.18,11.9,49.46,12.52,8.14-.63,15.65-1.25,23.16-2.5l-159.65,143.99c-10.02,8.76-1.88,21.91,10.02,15.03,18.78-9.39,30.68-12.52,52.59-13.15,30.05-.63,40.69,15.03,63.86,15.65,22.54,0,43.82-9.39,87.65-50.08,9.39-9.39-3.13-21.91-12.52-13.15Z"></path></g><path class="cls-7" d="m438.46,1299.27l-69.8,69.16c4.48-.64,10.25,0,16.65-.64,19.21,0,42.9,17.93,62.12,17.93,15.37-.64,27.54-13.45,38.42-23.05,10.25-8.32,22.41,5.76,12.17,14.73-15.37,12.81-32.66,27.54-51.87,28.18-19.21-.64-43.55-17.93-62.12-17.93-29.46,0-33.94,3.84-51.23,16.01-10.89,7.68-21.13-5.12-11.53-14.73l104.38-103.1c33.3-33.94,65.32-70.44,65.32-103.1.64-26.26-16.01-39.06-42.26-39.06-30.1-.64-44.83,17.29-61.48,48.03-6.4,12.17-23.69,3.84-16.65-8.32,21.13-39.7,41.62-59.55,80.69-59.55s59.55,19.85,60.84,57.63c-1.28,37.78-35.22,80.05-73.64,117.83Z"></path><path class="cls-5" d="m597.46,495.97l-1.85,1.85c-.62.62-1.85,1.23-2.47,1.85-45.08,30.88-94.49,48.17-209.36,47.55h-1.85c-4.94.62-9.26,1.23-14.2,1.23-21.62-.62-42.61-6.79-62.38-28.41-8.03-8.65,6.18-22.23,14.2-13.59,16.06,17.29,33.97,22.85,50.02,22.85,36.44,0,59.29-29.64,76.58-82.14l71.64-214.3c3.71-11.73,21-8.03,17.29,3.71l-71.02,214.92c-11.12,34.58-25.94,59.91-43.85,75.96,82.76-3.09,124.13-16.06,161.19-40.76.62-1.24,1.24-1.85,2.47-3.09,29.64-25.32,49.41-48.79,72.26-72.26,8.65-9.88,22.23,2.47,13.59,11.73-22.23,23.47-43.23,47.55-72.26,72.87Zm-59.9-136.48c-12.97,0-11.12-19.15,1.85-19.15,60.52,0,106.22-29.03,105.61-69.17.62-45.08-37.05-66.7-100.05-66.7-59.29,0-114.25,37.06-153.16,75.96-8.65,9.26-22.23-3.09-12.97-12.35,43.23-42.61,102.52-82.75,167.36-82.75,76.58.62,117.96,30.26,117.96,83.99.62,49.41-51.88,90.17-126.6,90.17Z"></path><path class="cls-5" d="m822.87,443.47c-27.17-9.26-43.23-22.85-39.52-51.88-11.73,10.5-23.47,23.47-34.58,38.29-23.47,29.03-41.38,66.08-56.82,108.08-3.71,12.35-22.23,8.03-18.53-4.32l33.97-95.11c7.41-22.23,17.29-44.47,16.67-56.2,0-3.7,0-5.56-3.71-5.56-9.88-.62-28.41,20.38-50.02,45.7-8.65,9.88-23.47-1.85-14.2-11.12,27.79-31.5,53.11-52.49,65.46-53.11,15.44-1.24,21.61,4.94,21.61,21.61.62,9.88-4.32,24.09-9.88,40.14l.62-.62c19.14-25.94,40.14-45.7,61.76-60.52,9.88-6.79,18.53,0,13.59,10.5-14.82,34.58-2.47,48.17,21.62,56.2,11.73,4.32,3.71,22.23-8.03,17.91Z"></path><path class="cls-5" d="m1066.2,497.82c-1.24,1.23-2.47,1.85-3.09,1.85-28.41,24.09-58.67,45.08-70.4,45.08-16.06,0-23.47-13.59-22.85-25.94,0-3.71.62-8.03,1.23-12.35-22.85,22.85-50.02,37.67-72.87,38.29-24.09,0-44.47-14.82-45.08-50.64,0-17.29,6.18-35.82,14.82-52.49-14.2,4.94-28.41,5.56-43.85,1.85-11.73-1.85-6.18-20.38,5.56-17.91,25.32,5.56,50.64-4.32,73.49-29.03l3.71-3.7c22.23-21.62,48.79-34.58,67.32-33.97,20.38,0,36.44,12.35,43.85,27.79l7.41-19.15c4.32-11.73,21.62-6.18,17.29,5.56l-37.67,96.34c-8.03,18.53-16.06,34.58-16.06,48.17-.62,3.09.62,8.65,5.56,8.65,11.12-.62,36.44-21.62,59.29-42.61.62-.62,1.85-1.23,2.47-1.85,28.41-24.7,48.17-47.55,70.4-70.4,8.65-9.88,22.23,2.47,13.59,11.73-22.85,24.09-43.85,48.17-74.11,74.73Zm-93.87-119.81c-15.44-.62-35.2,10.5-53.11,27.79-24.7,22.85-46.94,55.58-46.32,86.46-.62,23.47,11.12,33.97,27.17,33.35,19.76.62,42-14.82,61.14-35.2,24.09-24.09,42.61-56.2,42-82.75.62-14.2-12.35-29.64-30.88-29.64Z"></path><path class="cls-7" d="m1236.02,545.37c-21.61-.62-32.73-18.53-35.82-39.52-16.06,24.7-36.44,39.52-54.35,38.91-20.38,0-32.73-12.35-32.11-35.2,0-14.82,6.18-27.17,21-35.82,16.67-11.12,42.61-19.15,77.81-30.26,3.71-12.35,6.18-24.7,6.79-35.2-.62-22.85-2.47-32.11-15.44-31.5-16.67-.62-32.73,11.12-63.61,46.32-9.26,9.26-22.23-3.09-13.59-12.35,38.29-41.99,58.67-53.73,78.43-53.11,19.15,0,29.64,9.26,32.73,35.82,14.82-21.62,33.35-37.67,50.02-36.44,20.38-.62,30.26,9.88,30.88,28.41-1.23,19.76-10.5,34.58-31.5,48.79-18.53,12.35-38.29,17.91-62.38,24.7-4.32,12.97-6.18,24.7-6.18,33.35-.62,14.82,3.09,33.35,19.14,33.97,23.47-.62,47.55-14.2,79.67-42.61,9.88-8.65,21.61,4.94,11.73,14.2-37.05,32.73-66.08,47.55-93.25,47.55Zm-92.02-55.58c-7.41,3.71-11.73,10.5-11.12,17.29-.62,11.12,4.32,18.53,14.82,19.15,13.59,0,27.79-14.2,40.14-33.35,6.18-8.65,11.12-17.91,16.06-27.79-26.56,8.03-45.7,15.44-59.91,24.7Zm141.42-114.25c-12.35,0-25.94,16.06-37.05,34.58-5.56,8.65-10.5,17.91-15.44,27.79,16.67-4.94,30.88-9.88,44.47-18.53,14.2-10.5,21.61-19.15,21.61-32.11.62-8.03-4.32-12.35-13.59-11.73Z"></path><path class="cls-5" d="m1383.63,544.75c-8.65,0-18.53-5.56-18.53-21.61,0-11.73,7.41-34.58,15.44-53.73l11.12-30.26c-17.91,19.76-38.29,37.67-62.38,58.67-9.88,8.03-21.61-6.18-11.73-14.2,43.23-37.06,75.34-63.61,98.19-114.25,4.94-11.73,22.23-6.79,17.91,5.56l-35.82,98.81c-6.18,17.29-12.97,37.67-12.97,47.55-.62,2.47-1.24,4.94.62,4.94,16.67-.62,39.52-17.91,66.08-42.61,9.88-8.03,22.23,4.94,12.97,13.59-32.73,29.03-61.14,47.55-80.9,47.55Zm69.17-242.71c-7.41.62-16.06-7.41-16.06-14.82s8.03-15.44,16.06-16.06c8.03,0,15.44,5.56,15.44,14.82,0,8.03-7.41,14.82-15.44,16.06Z"></path><path class="cls-5" d="m1536.78,544.75c-21,0-36.44-8.65-48.79-23.47-8.03-9.26,7.41-21.62,14.82-12.97,9.26,11.12,19.76,17.29,35.2,17.29,28.41,0,43.23-16.67,43.23-50.02,0-26.56-9.26-57.43-9.88-74.73,0-1.85.62-4.32,0-6.79-31.5,32.73-72.26,72.26-107.46,103.75-9.88,8.03-21.62-6.18-11.73-14.2,43.85-38.29,97.58-91.4,130.31-125.37,8.03-9.88,19.76-3.09,15.44,8.65-4.32,9.88-7.41,21-6.79,32.11,0,17.91,9.88,48.17,9.26,74.73,0,48.17-22.85,70.4-63.61,71.02Z"></path><path class="cls-6" d="m976.5,2261.59c-10.48-2.47-22.19-7.4-33.28-15.41-9.86-7.4,3.7-22.8,12.94-15.41,9.24,7.4,18.49,11.09,26.5,12.33h19.1c30.82-3.7,57.93-17.87,81.35-39.44,9.24-8.63,22.19,4.31,12.33,12.94-28.97,26.5-62.86,43.76-100.46,46.22l-18.49-1.23Z"></path><g class="cls-10"><path class="cls-8" d="m1590.28,2967.3c-7.51,8.14-15.03,15.65-21.91,22.54-15.03,47.58-23.16,85.77-23.16,96.41,0,11.27,1.88,18.16,8.76,18.16,15.65.63,43.2-19.41,69.49-43.2,9.39-8.76,22.54,4.38,12.52,13.15-31.93,28.8-65.74,48.83-83.89,49.46-15.65,0-25.67-9.39-26.29-35.69-.63-8.76,4.38-35.06,14.4-69.49-18.78,18.16-37.56,35.69-61.98,56.97-10.02,8.14-21.91-6.26-11.89-14.4,34.43-30.05,58.22-52.59,85.14-80.14,1.25-2.5,1.88-5.63,3.13-8.76,19.41-60.1,36.94-120.2,58.85-157.77,16.28-28.17,35.06-43.82,56.97-43.82,22.54.63,32.55,13.15,32.55,36.94-.63,33.18-34.43,80.14-112.69,159.64Zm78.26-177.17c-15.65-.63-26.29,13.15-38.19,33.18-18.16,30.68-33.18,77.63-48.83,127.09,68.87-70.12,102.05-110.81,102.05-140.86-.63-12.52-4.38-19.41-15.03-19.41Z"></path></g></svg> 