<?xml version="1.0" encoding="UTF-8"?> <svg xmlns="http://www.w3.org/2000/svg" xmlns:xlink="http://www.w3.org/1999/xlink" id="palabras" viewBox="0 0 1920 3384"><defs><style>.cls-1,.cls-2,.cls-3,.cls-4,.cls-5{fill:none;}.cls-6{clip-path:url(#clippath);}.cls-7{fill:#ebebeb;}.cls-8{fill:#fff;}.cls-9{fill:#937fbb;}.cls-10{fill:#171c32;}.cls-11{clip-path:url(#clippath-1);}.cls-12{clip-path:url(#clippath-2);}.cls-2{stroke:#a797c9;stroke-dasharray:0 0 1.74 17.45;stroke-linecap:round;stroke-width:7px;}.cls-2,.cls-3,.cls-4,.cls-5{stroke-miterlimit:10;}.cls-3{stroke:#57678b;stroke-width:3.5px;}.cls-4{stroke-width:1.94px;}.cls-4,.cls-5{stroke:#fff;}.cls-5{stroke-width:1.96px;}</style><clipPath id="clippath"><rect class="cls-1" x="429.6" y="495.73" width="176.13" height="176.13" rx="88.06" ry="88.06"></rect></clipPath><clipPath id="clippath-1"><rect class="cls-1" x="1380.57" y="2800.37" width="107.98" height="107.98" rx="53.99" ry="53.99"></rect></clipPath><clipPath id="clippath-2"><circle class="cls-1" cx="836.35" cy="2327.92" r="82.79"></circle></clipPath></defs><rect class="cls-10" x=".73" width="1920" height="3384"></rect><line class="cls-3" y1="327.66" x2="1919.46" y2="327.66"></line><line class="cls-3" y1="421.11" x2="1919.46" y2="421.11"></line><line class="cls-3" x1="1919.46" y1="605.99" y2="605.99"></line><line class="cls-3" y1="713.74" x2="1919.46" y2="713.74"></line><rect class="cls-4" x="649.47" y="112.25" width="622.52" height="118.22"></rect><path class="cls-7" d="m686.82,150.38h-10.17v-3.84h24.67v3.84h-10.17v44.51h-4.34v-44.51Z"></path><path class="cls-7" d="m702.38,146.54h4.22l5.95,42.84h.12l7.07-42.84h4.46l7.25,42.84h.12l5.7-42.84h4.22l-7.25,48.36h-5.52l-6.7-40.3h-.12l-6.63,40.3h-5.52l-7.38-48.36Z"></path><path class="cls-7" d="m745.85,146.54h4.34v48.36h-4.34v-48.36Z"></path><path class="cls-7" d="m757.62,146.54h5.58l14.01,39.86h.12v-39.86h4.09v48.36h-5.08l-14.51-41.04h-.12v41.04h-4.09v-48.36Z"></path><path class="cls-7" d="m788.87,146.54h4.34v24.18l14.51-24.18h4.59v.06l-11.53,18.79,12.71,29.45v.06h-4.77l-10.66-25.11-4.84,7.87v17.24h-4.34v-48.36Z"></path><path class="cls-7" d="m817.21,146.54h4.34v44.51h14.07v3.84h-18.41v-48.36Z"></path><path class="cls-7" d="m849.26,170.72c0-17.3,3.35-24.98,12.89-24.98,6.88,0,10.54,4.28,10.54,15.19v2.29h-4.22v-2.17c0-8.37-2.11-11.41-6.39-11.41-6.7,0-8.31,6.76-8.31,21.08s1.74,21.08,8.43,21.08c4.28,0,6.26-2.73,6.26-11.22v-2.73h4.22v2.73c0,10.85-3.6,15.13-10.6,15.13-9.49,0-12.83-7.07-12.83-24.98Z"></path><path class="cls-7" d="m878.59,182.25v-35.71h4.34v36.33c0,6.08,1.8,8.93,6.2,8.93s6.08-2.85,6.08-8.93v-36.33h4.34v35.28c0,9.67-3.22,13.89-10.48,13.89s-10.48-3.72-10.48-13.45Z"></path><path class="cls-7" d="m906.67,146.54h9.3c8.37,0,13.21,3.97,13.21,13.08,0,4.84-1.8,10.97-7.56,13.21l8.8,22.01v.06h-4.65l-8.12-21.26h-6.57v21.26h-4.4v-48.36Zm9.48,23.37c6.45,0,8.56-4.09,8.56-10.35,0-6.63-3.04-9.18-8.49-9.18h-5.15v19.53h5.08Z"></path><path class="cls-7" d="m932.9,181.01v-2.6h4.34v2.54c0,4.65,0,10.85,7.13,10.85,4.59,0,6.88-2.42,6.88-8.43,0-6.82-2.54-8.87-5.21-10.04l-4.59-2.05c-4.9-2.17-7.75-6.45-7.75-13.39,0-5.95,2.29-12.15,10.91-12.15,10.35,0,10.6,9.55,10.6,15v2.6h-4.34v-2.23c0-8.25-.87-11.47-6.32-11.47-4.9,0-6.38,3.1-6.38,8.74,0,6.2,2.85,8.06,5.58,9.36l4.28,2.05c3.29,1.55,7.56,4.22,7.56,13.14,0,7.75-3.22,12.77-11.22,12.77-11.16,0-11.47-9.18-11.47-14.69Z"></path><path class="cls-7" d="m961.48,146.54h4.34v48.36h-4.34v-48.36Z"></path><path class="cls-7" d="m970.16,146.54h4.4l8.37,43.27h.12l8.12-43.27h4.46l-9.98,48.36h-5.46l-10.04-48.36Z"></path><path class="cls-7" d="m999.98,146.54h16.68v3.91h-12.34v18.17h9.49v4.03h-9.49v18.35h12.34v3.91h-16.68v-48.36Z"></path><path class="cls-7" d="m1032.16,182.25v-35.71h4.34v36.33c0,6.08,1.8,8.93,6.2,8.93s6.08-2.85,6.08-8.93v-36.33h4.34v35.28c0,9.67-3.22,13.89-10.48,13.89s-10.48-3.72-10.48-13.45Z"></path><path class="cls-7" d="m1060.25,146.54h5.58l14.01,39.86h.12v-39.86h4.09v48.36h-5.08l-14.51-41.04h-.12v41.04h-4.09v-48.36Z"></path><path class="cls-7" d="m1091.5,146.54h4.34v44.51h14.07v3.84h-18.41v-48.36Z"></path><path class="cls-7" d="m1111.77,170.72c0-17.3,3.35-24.98,12.52-24.98s12.15,8.18,12.15,24.98c0,18.41-3.41,24.98-12.34,24.98s-12.34-6.51-12.34-24.98Zm20.15,0c0-14.32-1.49-20.96-7.81-20.96s-7.81,6.63-7.81,20.96,1.49,21.14,7.81,21.14,7.81-6.32,7.81-21.14Z"></path><path class="cls-7" d="m1141.41,170.72c0-17.3,3.35-24.98,12.52-24.98s12.15,8.18,12.15,24.98c0,18.41-3.41,24.98-12.34,24.98s-12.34-6.51-12.34-24.98Zm20.15,0c0-14.32-1.49-20.96-7.81-20.96s-7.81,6.63-7.81,20.96,1.49,21.14,7.81,21.14,7.81-6.32,7.81-21.14Z"></path><path class="cls-7" d="m1172.28,146.54h8.87c8.37,0,13.33,4.09,13.33,14.38,0,7.13-2.48,15.07-12.4,15.07h-5.39v18.91h-4.4v-48.36Zm9.24,25.67c6.45,0,8.49-3.91,8.49-11.34,0-7.81-3.16-10.48-8.62-10.48h-4.71v21.82h4.83Z"></path><path class="cls-7" d="m1199.44,146.54h16.68v3.91h-12.34v18.17h9.49v4.03h-9.49v18.35h12.34v3.91h-16.68v-48.36Z"></path><path class="cls-7" d="m1221.38,146.54h7.32c10.35,0,15.5,6.26,15.5,24.18s-5.15,24.18-15.5,24.18h-7.32v-48.36Zm7.25,44.51c7.81,0,11.04-5.02,11.04-20.33s-3.1-20.33-10.91-20.33h-3.04v40.67h2.91Z"></path><line class="cls-2" x1="997.79" y1="575.28" x2="997.79" y2="776.72"></line><line class="cls-2" x1="517.67" y1="671.86" x2="517.67" y2="784.8"></line><path class="cls-8" d="m939.58,837.41v-2.02h3.03v2.18c0,3.74,2.6,6.05,7.94,6.05s8.44-1.97,8.44-6.22c0-3.32-1.39-5.17-4.92-6.09l-6.64-1.72c-4.33-1.13-7.18-2.98-7.18-8.15s3.78-8.91,10.92-8.91,10.59,3.44,10.59,9.07v2.94h-3.02v-2.81c0-4.62-3.07-6.51-7.56-6.51-5.12,0-7.81,2.14-7.81,6.01,0,3.61,1.76,4.7,5.54,5.71l5.75,1.55c5.12,1.39,7.44,3.74,7.44,8.65,0,6.09-4.33,9.24-11.47,9.24-9.12,0-11.05-4.7-11.05-8.99Z"></path><path class="cls-8" d="m986.12,836.36h-15.96c.17,4.79,2.48,7.48,6.93,7.48,3.82,0,5.67-1.43,5.96-4.83h2.98c-.29,4.24-3.28,7.39-9.03,7.39-7.06,0-9.83-4.66-9.83-10.88s3.23-11.22,10-11.22,8.95,3.99,8.95,10.21v1.85Zm-3.11-2.98c0-4.45-1.72-6.55-5.92-6.55s-6.55,2.65-6.89,6.97h12.81v-.42Z"></path><path class="cls-8" d="m1022.7,832.24v13.61h-2.94v-13.27c0-4.33-2.14-5.71-4.75-5.71-3.82,0-6.18,2.69-6.18,5.63v13.36h-2.94v-13.27c0-4.33-1.85-5.71-4.83-5.71-3.61,0-6.13,2.69-6.13,5.63v13.36h-2.94v-21h2.6l.29,3.49c1.01-2.02,3.07-4.03,6.93-4.03,2.94,0,5.38,1.39,6.43,4.28,1.22-2.39,3.57-4.28,7.14-4.28,4.29,0,7.31,2.52,7.31,7.94Z"></path><path class="cls-8" d="m1030.04,813.09h2.98v6.51h-2.98v-6.51Zm0,11.76h2.94v21h-2.94v-21Z"></path><path class="cls-8" d="m1043.32,848.88c0,3.53-1.68,5.84-5.04,5.84-1.18,0-2.02-.13-2.94-.38v-2.6c.8.17,1.47.29,2.27.29,1.93,0,2.77-1.26,2.77-3.65v-23.52h2.94v24.03Zm-2.94-35.79h2.98v6.51h-2.98v-6.51Z"></path><path class="cls-8" d="m1049.03,835.35c0-6.22,3.32-11.05,10.38-11.05,6.6,0,10.25,4.83,10.25,11.05s-3.7,11.05-10.29,11.05c-7.27,0-10.33-4.83-10.33-11.05Zm17.56,0c0-5.33-2.9-8.49-7.23-8.49-4.75,0-7.27,3.15-7.27,8.49s2.56,8.49,7.27,8.49c4.33,0,7.23-3.15,7.23-8.49Z"></path><path class="cls-8" d="m1075.53,813.09h2.98v6.51h-2.98v-6.51Zm0,11.76h2.94v21h-2.94v-21Z"></path><path class="cls-8" d="m1085.86,824.85h2.6l.29,3.49c1.01-2.14,3.28-4.03,7.35-4.03,4.75,0,7.77,2.52,7.77,7.94v13.61h-2.94v-13.27c0-4.33-2.14-5.71-5.5-5.71-3.82,0-6.64,2.69-6.64,5.63v13.36h-2.94v-21Z"></path><path class="cls-8" d="m1128.5,836.36h-15.96c.17,4.79,2.48,7.48,6.93,7.48,3.82,0,5.67-1.43,5.96-4.83h2.98c-.29,4.24-3.28,7.39-9.03,7.39-7.06,0-9.83-4.66-9.83-10.88s3.23-11.22,10-11.22,8.95,3.99,8.95,10.21v1.85Zm-3.11-2.98c0-4.45-1.72-6.55-5.92-6.55s-6.55,2.65-6.89,6.97h12.81v-.42Z"></path><path class="cls-8" d="m1132.69,835.39c0-7.1,4.28-11.09,10.04-11.09,3.7,0,6.22,1.6,7.31,3.74h.04v-14.95h2.94v32.77h-1.97l-.67-3.61h-.08c-1.18,2.31-3.95,4.16-7.77,4.16-6.3,0-9.83-3.99-9.83-11.01Zm17.64-.5c0-5.5-3.36-8.07-7.35-8.07-3.11,0-7.14,1.47-7.14,8.4s3.61,8.61,7.14,8.61c4.24,0,7.35-2.73,7.35-8.95Z"></path><path class="cls-8" d="m377.9,837.41v-2.02h3.02v2.18c0,3.74,2.6,6.05,7.94,6.05s8.44-1.97,8.44-6.22c0-3.32-1.39-5.17-4.92-6.09l-6.64-1.72c-4.33-1.13-7.18-2.98-7.18-8.15s3.78-8.91,10.92-8.91,10.59,3.44,10.59,9.07v2.94h-3.02v-2.81c0-4.62-3.07-6.51-7.56-6.51-5.12,0-7.81,2.14-7.81,6.01,0,3.61,1.76,4.7,5.54,5.71l5.75,1.55c5.12,1.39,7.44,3.74,7.44,8.65,0,6.09-4.33,9.24-11.47,9.24-9.12,0-11.05-4.7-11.05-8.99Z"></path><path class="cls-8" d="m424.44,836.36h-15.96c.17,4.79,2.48,7.48,6.93,7.48,3.82,0,5.67-1.43,5.96-4.83h2.98c-.29,4.24-3.28,7.39-9.03,7.39-7.06,0-9.83-4.66-9.83-10.88s3.23-11.22,10-11.22,8.95,3.99,8.95,10.21v1.85Zm-3.11-2.98c0-4.45-1.72-6.55-5.92-6.55s-6.55,2.65-6.89,6.97h12.81v-.42Z"></path><path class="cls-8" d="m430.32,824.85h2.61l.29,3.91c1.01-2.14,3.07-4.45,6.76-4.45,1.26,0,2.18.21,3.02.55v3.15c-1.13-.5-2.1-.76-3.4-.76-3.74,0-6.34,2.81-6.34,5.75v12.85h-2.94v-21Z"></path><path class="cls-8" d="m447.62,813.09h2.98v6.51h-2.98v-6.51Zm0,11.76h2.94v21h-2.94v-21Z"></path><path class="cls-8" d="m455.02,824.85h4.16v-5.42c0-5.29,3.15-6.89,6.38-6.89,1.85,0,2.98.29,3.74.55v2.6c-.71-.21-1.89-.46-3.49-.46-2.65,0-3.7,1.76-3.7,4.58v5.04h11.13v-5.42c0-5.29,3.15-6.89,6.39-6.89,1.85,0,2.98.29,3.74.55v2.6c-.71-.21-1.89-.46-3.49-.46-2.65,0-3.7,1.76-3.7,4.58v5.04h5.92v2.44h-5.92v18.57h-2.94v-18.57h-11.13v18.57h-2.94v-18.57h-4.16v-2.44Z"></path><path class="cls-8" d="m502.94,836.36h-15.96c.17,4.79,2.48,7.48,6.93,7.48,3.82,0,5.67-1.43,5.96-4.83h2.98c-.29,4.24-3.28,7.39-9.03,7.39-7.06,0-9.83-4.66-9.83-10.88s3.23-11.22,10-11.22,8.95,3.99,8.95,10.21v1.85Zm-3.11-2.98c0-4.45-1.72-6.55-5.92-6.55s-6.55,2.65-6.89,6.97h12.81v-.42Z"></path><path class="cls-8" d="m507.14,835.39c0-7.1,4.29-11.09,10.04-11.09,3.7,0,6.22,1.6,7.31,3.74h.04v-14.95h2.94v32.77h-1.97l-.67-3.61h-.08c-1.18,2.31-3.95,4.16-7.77,4.16-6.3,0-9.83-3.99-9.83-11.01Zm17.64-.5c0-5.5-3.36-8.07-7.35-8.07-3.11,0-7.14,1.47-7.14,8.4s3.61,8.61,7.14,8.61c4.24,0,7.35-2.73,7.35-8.95Z"></path><path class="cls-8" d="m546.16,823.55h-3.36v-5.08c0-3.95.88-5.29,3.4-5.97l.67,1.85c-1.76.67-2.06,1.09-2.06,3.78v.34h1.34v5.08Zm5.92,0h-3.36v-5.08c0-3.95.88-5.29,3.4-5.97l.67,1.85c-1.76.67-2.06,1.09-2.06,3.78v.34h1.34v5.08Z"></path><path class="cls-8" d="m559.51,813.09h2.94v32.77h-2.94v-32.77Z"></path><path class="cls-8" d="m569.17,822.29c1.76-.67,2.06-1.09,2.06-3.78v-.34h-1.34v-5.08h3.36v5.08c0,3.95-.88,5.29-3.4,5.97l-.67-1.85Zm5.92,0c1.76-.67,2.06-1.09,2.06-3.78v-.34h-1.34v-5.08h3.36v5.08c0,3.95-.88,5.29-3.4,5.97l-.67-1.85Z"></path><rect class="cls-9" x="429.6" y="495.73" width="176.13" height="176.13" rx="88.06" ry="88.06"></rect><line class="cls-2" x1="965.52" y1="557.35" x2="1029.37" y2="557.35"></line><path class="cls-8" d="m559.92,382.12h-24.04l-3,193.79h23.66c5.63,0,7.89,1.5,8.26,5.26.38,4.13.75,9.01.75,15.02,0,4.88-2.25,6.76-7.51,6.76l-84.13-.75c-5.63,0-7.14-1.88-7.14-11.64,0-13.14,1.13-14.27,8.64-14.27h24.41l3-140.84c0-18.03-.38-35.68-.38-53.71h-25.16c-5.26,0-7.51-1.13-7.89-5.26-.75-4.13-1.13-9.01-1.13-15.02,0-4.51,2.25-6.76,7.51-6.76l86,1.13c5.26,0,6.76,1.88,6.76,11.64,0,13.14-1.13,14.65-8.64,14.65Z"></path><path class="cls-8" d="m835.58,520.7c-15.77,47.7-45.82,85.63-83.37,85.63-19.9,0-29.29-10.89-31.17-34.18l-.38-.75c-11.27,20.28-32.3,36.8-55.96,36.8-46.57,0-61.97-44.32-61.97-87.51,0-58.96,23.28-98.4,70.23-98.4,19.15,0,37.18,6.38,49.95,14.27.75-32.67,1.88-65.72,2.63-98.4,0-6.38.75-7.89,6.01-9.01,3.76-1.13,16.52-1.5,22.53-1.5,4.13.38,6.01,2.63,5.63,7.51l-7.14,194.92c-.38,9.76-.75,22.53-.75,31.92,0,10.89,2.63,18.4,12.77,18.4,15.77,0,40.94-22.91,57.46-67.23,1.5-3.38,3.38-4.88,5.63-4.88,2.63,0,5.26,1.5,7.14,2.63,2.25,1.5,2.63,4.13.75,9.76Zm-115.3,9.76l1.88-70.23c-14.65-10.89-29.29-14.27-43.19-14.27-27.04,0-43.19,24.41-43.19,72.11,0,24.79,3.76,65.72,36.8,65.72,19.15,0,46.57-20.28,47.7-53.33Z"></path><path class="cls-8" d="m867.88,608.21c-32.67,0-50.33-19.15-49.2-62.72l2.25-62.34c.75-16.15.75-36.43.75-50.7,0-3.76.75-6.38,4.51-7.14,3-.75,15.4-1.88,22.53-1.88,4.51,0,6.38,1.13,6.76,6.38,0,7.89-.38,26.29-1.5,47.7l-2.25,64.22c-.75,27.79,7.51,39.81,26.66,39.81s36.8-16.15,46.57-31.17c3.76-6.01,4.88-12.02,5.26-22.16.75-32.3,1.88-64.6,2.63-96.89,0-4.88,1.5-6.38,6.01-6.76,3.38-.75,11.27-1.5,20.66-1.5,4.13,0,6.01,2.25,6.01,7.14-1.88,67.23-4.13,134.45-6.01,201.68-1.5,57.84-30.04,81.87-79.99,81.87-20.66,0-44.69-6.76-58.21-14.65-3.76-2.25-4.88-4.88-4.51-7.51.38-3,3-12.77,4.51-16.15,1.88-3.38,4.51-4.88,9.01-2.63,18.03,9.39,34.93,14.65,49.57,14.65,31.55,0,46.19-13.52,48.82-46.95,1.13-15.77,2.25-52.2,2.63-69.48v-.75c-14.27,20.66-36.05,37.93-63.47,37.93Z"></path><path class="cls-8" d="m1147.67,521.45c-18.03,45.82-50.7,84.88-87.13,84.88-22.53,0-31.92-13.14-31.17-43.19l6.76-222.33c0-6.01.75-11.27,6.76-12.02,5.63-1.13,18.78-1.13,22.53-1.13,3.38,0,4.88,2.25,4.51,6.76-1.13,12.39-2.25,35.3-2.63,47.32l-5.63,176.89c-.38,14.27,1.13,21.78,10.14,21.78,15.4,0,41.31-19.53,63.47-68.35,1.13-2.63,2.25-3.38,4.13-3.38,4.13.38,6.76,1.88,8.64,3.38,1.88,1.88,1.88,4.13-.38,9.39Z"></path><path class="cls-8" d="m1248.31,521.45c-18.03,45.82-50.7,84.88-87.13,84.88-22.53,0-31.92-13.14-31.17-43.19l6.76-222.33c0-6.01.75-11.27,6.76-12.02,5.63-1.13,18.78-1.13,22.53-1.13,3.38,0,4.88,2.25,4.51,6.76-1.13,12.39-2.25,35.3-2.63,47.32l-5.63,176.89c-.38,14.27,1.13,21.78,10.14,21.78,15.4,0,41.31-19.53,63.47-68.35,1.13-2.63,2.25-3.38,4.13-3.38,4.13.38,6.76,1.88,8.64,3.38,1.88,1.88,1.88,4.13-.38,9.39Z"></path><path class="cls-8" d="m1235.92,435.82c0-7.51.38-10.52,5.63-11.27,5.63-.75,18.4-1.5,22.16-1.5s6.01,3,6.01,7.51c-.38,12.39-1.5,23.66-1.5,35.68l-2.25,92.39c-.38,14.27,1.13,21.78,10.52,21.78,15.02,0,35.68-15.4,50.33-72.86.75-2.63,2.25-4.13,4.51-3.76,3.38,0,6.01,1.5,7.89,3,2.25,1.5,2.63,4.13,1.13,9.39-12.02,57.09-37.56,90.13-75.49,90.13-23.28,0-32.67-13.9-31.55-42.44,1.88-44.69,2.25-81.87,2.63-128.07Zm.75-73.61c.38-17.28,7.14-21.78,19.9-21.78s18.4,3.76,17.65,21.03c-.75,17.28-7.14,21.78-19.9,21.78s-18.03-4.13-17.65-21.03Z"></path><path class="cls-8" d="m1406.04,583.04c37.56,0,70.98-26.29,94.27-76.99,1.88-3.76,3.38-4.88,5.63-4.88s6.01,1.13,7.89,3c3,2.25,1.88,7.14,0,12.39-19.53,49.57-55.58,91.64-113.79,91.64-49.2,0-75.86-31.55-75.86-83.75,0-64.6,35.68-102.15,79.99-102.15,24.41,0,42.06,9.39,52.95,19.9,4.13,3.38,3,6.01,1.88,9.01-1.13,3-4.88,9.76-7.89,12.39-3.38,3-6.01,2.25-9.76-.75-10.52-10.14-21.41-15.77-37.93-15.77-25.91,0-47.32,22.53-47.32,73.99,0,42.44,19.15,61.97,49.95,61.97Z"></path><g class="cls-6"><path class="cls-10" d="m559.92,382.12h-24.04l-3,193.79h23.66c5.63,0,7.89,1.5,8.26,5.26.38,4.13.75,9.01.75,15.02,0,4.88-2.25,6.76-7.51,6.76l-84.13-.75c-5.63,0-7.14-1.88-7.14-11.64,0-13.14,1.13-14.27,8.64-14.27h24.41l3-140.84c0-18.03-.38-35.68-.38-53.71h-25.16c-5.26,0-7.51-1.13-7.89-5.26-.75-4.13-1.13-9.01-1.13-15.02,0-4.51,2.25-6.76,7.51-6.76l86,1.13c5.26,0,6.76,1.88,6.76,11.64,0,13.14-1.13,14.65-8.64,14.65Z"></path></g><line class="cls-3" y1="2732.59" x2="1919.46" y2="2732.59"></line><line class="cls-3" y1="2831.35" x2="1919.46" y2="2831.35"></line><line class="cls-3" x1="1919.46" y1="3016.23" y2="3016.23"></line><line class="cls-3" y1="3118.13" x2="1919.46" y2="3118.13"></line><line class="cls-3" y1="1985.33" x2="1919.46" y2="1985.33"></line><line class="cls-3" y1="2084.08" x2="1919.46" y2="2084.08"></line><line class="cls-3" x1="1919.46" y1="2268.96" y2="2268.96"></line><line class="cls-3" y1="2370.86" x2="1919.46" y2="2370.86"></line><line class="cls-3" y1="1240.06" x2="1919.46" y2="1240.06"></line><line class="cls-3" y1="1336.81" x2="1919.46" y2="1336.81"></line><line class="cls-3" x1="1919.46" y1="1521.69" y2="1521.69"></line><line class="cls-3" y1="1623.59" x2="1919.46" y2="1623.59"></line><rect class="cls-5" x="680.01" y="1011.19" width="561.44" height="118.22"></rect><path class="cls-7" d="m717.25,1049.19h-10.17v-3.84h24.67v3.84h-10.17v44.51h-4.34v-44.51Z"></path><path class="cls-7" d="m732.81,1045.35h4.22l5.95,42.84h.12l7.07-42.84h4.46l7.25,42.84h.12l5.7-42.84h4.22l-7.25,48.36h-5.52l-6.7-40.3h-.12l-6.63,40.3h-5.52l-7.38-48.36Z"></path><path class="cls-7" d="m776.27,1045.35h4.34v48.36h-4.34v-48.36Z"></path><path class="cls-7" d="m788.05,1045.35h5.58l14.01,39.86h.12v-39.86h4.09v48.36h-5.08l-14.51-41.04h-.12v41.04h-4.09v-48.36Z"></path><path class="cls-7" d="m819.3,1045.35h4.34v24.18l14.51-24.18h4.59v.06l-11.53,18.79,12.71,29.45v.06h-4.77l-10.66-25.11-4.84,7.87v17.23h-4.34v-48.36Z"></path><path class="cls-7" d="m847.64,1045.35h4.34v44.51h14.07v3.84h-18.41v-48.36Z"></path><path class="cls-7" d="m879.69,1069.53c0-17.3,3.35-24.98,12.89-24.98,6.88,0,10.54,4.28,10.54,15.19v2.29h-4.21v-2.17c0-8.37-2.11-11.41-6.39-11.41-6.7,0-8.31,6.76-8.31,21.08s1.74,21.08,8.43,21.08c4.28,0,6.26-2.73,6.26-11.22v-2.73h4.21v2.73c0,10.85-3.6,15.13-10.6,15.13-9.48,0-12.83-7.07-12.83-24.98Z"></path><path class="cls-7" d="m909.02,1081.06v-35.71h4.34v36.33c0,6.08,1.8,8.93,6.2,8.93s6.08-2.85,6.08-8.93v-36.33h4.34v35.28c0,9.67-3.22,13.89-10.48,13.89s-10.48-3.72-10.48-13.45Z"></path><path class="cls-7" d="m937.1,1045.35h9.3c8.37,0,13.21,3.97,13.21,13.08,0,4.84-1.8,10.97-7.56,13.21l8.8,22.01v.06h-4.65l-8.12-21.26h-6.57v21.26h-4.4v-48.36Zm9.49,23.37c6.45,0,8.56-4.09,8.56-10.35,0-6.63-3.04-9.18-8.49-9.18h-5.15v19.53h5.08Z"></path><path class="cls-7" d="m963.33,1079.82v-2.6h4.34v2.54c0,4.65,0,10.85,7.13,10.85,4.59,0,6.88-2.42,6.88-8.43,0-6.82-2.54-8.87-5.21-10.04l-4.59-2.05c-4.9-2.17-7.75-6.45-7.75-13.39,0-5.95,2.29-12.15,10.91-12.15,10.35,0,10.6,9.55,10.6,15v2.6h-4.34v-2.23c0-8.25-.87-11.47-6.32-11.47-4.9,0-6.39,3.1-6.39,8.74,0,6.2,2.85,8.06,5.58,9.36l4.28,2.05c3.29,1.55,7.56,4.22,7.56,13.14,0,7.75-3.22,12.77-11.22,12.77-11.16,0-11.47-9.18-11.47-14.69Z"></path><path class="cls-7" d="m991.91,1045.35h4.34v48.36h-4.34v-48.36Z"></path><path class="cls-7" d="m1000.59,1045.35h4.4l8.37,43.27h.12l8.12-43.27h4.46l-9.98,48.36h-5.46l-10.04-48.36Z"></path><path class="cls-7" d="m1030.41,1045.35h16.68v3.91h-12.34v18.17h9.49v4.03h-9.49v18.35h12.34v3.91h-16.68v-48.36Z"></path><path class="cls-7" d="m1062.9,1045.35h4.34v44.51h14.07v3.84h-18.41v-48.36Z"></path><path class="cls-7" d="m1083.17,1069.53c0-17.3,3.35-24.98,12.52-24.98s12.15,8.18,12.15,24.98c0,18.41-3.41,24.98-12.34,24.98s-12.34-6.51-12.34-24.98Zm20.15,0c0-14.32-1.49-20.95-7.81-20.95s-7.81,6.63-7.81,20.95,1.49,21.14,7.81,21.14,7.81-6.32,7.81-21.14Z"></path><path class="cls-7" d="m1112.81,1069.53c0-17.3,3.35-24.98,12.52-24.98s12.15,8.18,12.15,24.98c0,18.41-3.41,24.98-12.34,24.98s-12.34-6.51-12.34-24.98Zm20.15,0c0-14.32-1.49-20.95-7.81-20.95s-7.81,6.63-7.81,20.95,1.49,21.14,7.81,21.14,7.81-6.32,7.81-21.14Z"></path><path class="cls-7" d="m1143.69,1045.35h8.87c8.37,0,13.33,4.09,13.33,14.38,0,7.13-2.48,15.07-12.4,15.07h-5.39v18.91h-4.4v-48.36Zm9.24,25.67c6.45,0,8.49-3.91,8.49-11.35,0-7.81-3.16-10.48-8.62-10.48h-4.71v21.82h4.84Z"></path><path class="cls-7" d="m1170.84,1045.35h16.68v3.91h-12.34v18.17h9.49v4.03h-9.49v18.35h12.34v3.91h-16.68v-48.36Z"></path><path class="cls-7" d="m1192.79,1045.35h7.31c10.35,0,15.5,6.26,15.5,24.18s-5.15,24.18-15.5,24.18h-7.31v-48.36Zm7.25,44.51c7.81,0,11.04-5.02,11.04-20.33s-3.1-20.33-10.91-20.33h-3.04v40.67h2.91Z"></path><line class="cls-2" x1="918.6" y1="1644.8" x2="918.6" y2="1777.88"></line><line class="cls-2" x1="579.88" y1="1537.42" x2="579.88" y2="1737.88"></line><line class="cls-2" x1="579.88" y1="1884.2" x2="579.88" y2="2014.54"></line><line class="cls-2" x1="918.6" y1="1853.51" x2="918.6" y2="1969.62"></line><line class="cls-2" x1="590.84" y1="2661.04" x2="590.84" y2="2756.14"></line><line class="cls-2" x1="1434.56" y1="2675.64" x2="1434.56" y2="2796.69"></line><line class="cls-2" x1="1017.79" y1="3037.23" x2="1017.79" y2="3168.47"></line><line class="cls-2" x1="835.88" y1="2428.89" x2="835.88" y2="2589.85"></line><path class="cls-8" d="m822.63,1814.5v-2.02h3.02v2.18c0,3.74,2.6,6.05,7.94,6.05s8.44-1.97,8.44-6.22c0-3.32-1.39-5.17-4.92-6.09l-6.64-1.72c-4.33-1.13-7.18-2.98-7.18-8.15s3.78-8.91,10.92-8.91,10.59,3.44,10.59,9.07v2.94h-3.02v-2.81c0-4.62-3.07-6.51-7.56-6.51-5.12,0-7.81,2.14-7.81,6.01,0,3.61,1.76,4.7,5.54,5.71l5.75,1.55c5.12,1.39,7.44,3.74,7.44,8.65,0,6.09-4.33,9.24-11.47,9.24-9.12,0-11.05-4.7-11.05-8.99Z"></path><path class="cls-8" d="m852.33,1790.18h2.94v15.16c1.05-2.1,3.28-3.95,7.31-3.95,4.75,0,7.77,2.52,7.77,7.94v13.61h-2.94v-13.27c0-4.33-2.14-5.71-5.5-5.71-3.82,0-6.64,2.69-6.64,5.63v13.36h-2.94v-32.77Z"></path><path class="cls-8" d="m876.02,1812.45c0-6.22,3.32-11.05,10.38-11.05,6.6,0,10.25,4.83,10.25,11.05s-3.7,11.05-10.29,11.05c-7.27,0-10.33-4.83-10.33-11.05Zm17.56,0c0-5.33-2.9-8.49-7.23-8.49-4.75,0-7.27,3.15-7.27,8.49s2.56,8.49,7.27,8.49c4.33,0,7.23-3.15,7.23-8.49Z"></path><path class="cls-8" d="m902.52,1801.94h2.6l.29,3.91c1.01-2.14,3.07-4.45,6.76-4.45,1.26,0,2.18.21,3.02.55v3.15c-1.13-.5-2.1-.76-3.4-.76-3.74,0-6.34,2.81-6.34,5.75v12.85h-2.94v-21Z"></path><path class="cls-8" d="m930.79,1820.26v2.6c-.76.21-2.14.59-4.03.59-3.82,0-6.34-1.6-6.34-6.89v-12.18h-4.16v-2.44h4.16v-6.05l2.94-1.43v7.48h5.92v2.44h-5.92v11.8c0,2.81.76,4.58,3.4,4.58,1.6,0,3.23-.29,4.03-.5Z"></path><path class="cls-8" d="m944.01,1817.15c0-3.95,2.23-6.09,7.86-6.09h6.34v-1.72c0-2.98-1.26-5.42-5.46-5.42-3.95,0-5.33,1.51-5.33,4.12v.88h-2.98v-.84c0-5,4.2-6.68,8.32-6.68,5.8,0,8.4,2.86,8.4,8.44v13.11h-2.06l-.55-2.98h-.08c-1.26,1.89-3.7,3.53-7.35,3.53-4.91,0-7.1-2.31-7.1-6.34Zm14.2-1.85v-1.76h-7.02c-2.65,0-4.03.92-4.03,3.61,0,2.35,1.26,3.86,4.5,3.86,4.16,0,6.55-2.14,6.55-5.71Z"></path><path class="cls-8" d="m966.61,1816.52v-1.18h2.94v1.13c0,2.86,2.14,4.5,5.96,4.5s5.8-1.01,5.8-3.78c0-2.06-1.01-2.81-3.86-3.32l-4.62-.84c-3.03-.55-5.54-2.02-5.54-5.5,0-3.15,2.35-6.13,8.4-6.13s8.4,3.02,8.4,7.23v.88h-2.98v-.76c0-3.44-2.14-4.91-5.42-4.91-3.95,0-5.33,1.34-5.33,3.36s1.01,2.86,3.91,3.4l4.03.76c4.12.76,6.09,1.93,6.09,5.59,0,4.58-4.12,6.55-8.78,6.55-7.31,0-8.99-3.28-8.99-6.97Z"></path><path class="cls-8" d="m988.58,1812.61c0-6.38,3.23-11.22,10-11.22s8.95,3.91,8.95,8.95v.42h-3.11v-.63c0-3.82-1.64-6.09-5.84-6.09-4.75,0-7.01,3.11-7.01,8.4,0,5.63,2.39,8.49,6.93,8.49,3.82,0,5.84-1.85,5.92-5.67h3.02c-.08,4.66-3.15,8.23-9.03,8.23-7.22,0-9.83-4.75-9.83-10.88Z"></path><path class="cls-8" d="m1030.66,1813.45h-15.96c.17,4.79,2.48,7.48,6.93,7.48,3.82,0,5.67-1.43,5.96-4.83h2.98c-.29,4.24-3.28,7.39-9.03,7.39-7.06,0-9.83-4.66-9.83-10.88s3.23-11.22,10-11.22,8.95,3.99,8.95,10.21v1.85Zm-3.11-2.98c0-4.45-1.72-6.55-5.92-6.55s-6.55,2.65-6.89,6.97h12.81v-.42Z"></path><path class="cls-8" d="m1036.54,1801.94h2.6l.29,3.49c1.01-2.14,3.28-4.03,7.35-4.03,4.75,0,7.77,2.52,7.77,7.94v13.61h-2.94v-13.27c0-4.33-2.14-5.71-5.5-5.71-3.82,0-6.64,2.69-6.64,5.63v13.36h-2.94v-21Z"></path><path class="cls-8" d="m1060.23,1812.49c0-7.1,4.29-11.09,10.04-11.09,3.7,0,6.22,1.6,7.31,3.74h.04v-14.95h2.94v32.77h-1.97l-.67-3.61h-.08c-1.18,2.31-3.95,4.16-7.77,4.16-6.3,0-9.83-3.99-9.83-11.01Zm17.64-.5c0-5.5-3.36-8.07-7.35-8.07-3.11,0-7.14,1.47-7.14,8.4s3.61,8.61,7.14,8.61c4.24,0,7.35-2.73,7.35-8.95Z"></path><path class="cls-8" d="m1105.17,1813.45h-15.96c.17,4.79,2.48,7.48,6.93,7.48,3.82,0,5.67-1.43,5.96-4.83h2.98c-.29,4.24-3.28,7.39-9.03,7.39-7.06,0-9.83-4.66-9.83-10.88s3.23-11.22,10-11.22,8.95,3.99,8.95,10.21v1.85Zm-3.11-2.98c0-4.45-1.72-6.55-5.92-6.55s-6.55,2.65-6.89,6.97h12.81v-.42Z"></path><path class="cls-8" d="m1111.05,1801.94h2.61l.29,3.91c1.01-2.14,3.07-4.45,6.76-4.45,1.26,0,2.18.21,3.02.55v3.15c-1.13-.5-2.1-.76-3.4-.76-3.74,0-6.34,2.81-6.34,5.75v12.85h-2.94v-21Z"></path><path class="cls-8" d="m1126.25,1816.52v-1.18h2.94v1.13c0,2.86,2.14,4.5,5.96,4.5s5.8-1.01,5.8-3.78c0-2.06-1.01-2.81-3.87-3.32l-4.62-.84c-3.02-.55-5.54-2.02-5.54-5.5,0-3.15,2.35-6.13,8.4-6.13s8.4,3.02,8.4,7.23v.88h-2.98v-.76c0-3.44-2.14-4.91-5.42-4.91-3.95,0-5.33,1.34-5.33,3.36s1.01,2.86,3.91,3.4l4.03.76c4.12.76,6.09,1.93,6.09,5.59,0,4.58-4.12,6.55-8.78,6.55-7.31,0-8.99-3.28-8.99-6.97Z"></path><path class="cls-8" d="m1158.3,1817.15c0-3.95,2.23-6.09,7.86-6.09h6.34v-1.72c0-2.98-1.26-5.42-5.46-5.42-3.95,0-5.33,1.51-5.33,4.12v.88h-2.98v-.84c0-5,4.2-6.68,8.32-6.68,5.8,0,8.4,2.86,8.4,8.44v13.11h-2.06l-.54-2.98h-.08c-1.26,1.89-3.7,3.53-7.35,3.53-4.92,0-7.1-2.31-7.1-6.34Zm14.2-1.85v-1.76h-7.01c-2.65,0-4.03.92-4.03,3.61,0,2.35,1.26,3.86,4.5,3.86,4.16,0,6.55-2.14,6.55-5.71Z"></path><path class="cls-8" d="m1182.78,1801.94h2.6l.29,3.49c1.01-2.14,3.28-4.03,7.35-4.03,4.75,0,7.77,2.52,7.77,7.94v13.61h-2.94v-13.27c0-4.33-2.14-5.71-5.5-5.71-3.82,0-6.64,2.69-6.64,5.63v13.36h-2.94v-21Z"></path><path class="cls-8" d="m1206.47,1812.49c0-7.1,4.29-11.09,10.04-11.09,3.7,0,6.22,1.6,7.31,3.74h.04v-14.95h2.94v32.77h-1.97l-.67-3.61h-.08c-1.18,2.31-3.95,4.16-7.77,4.16-6.3,0-9.83-3.99-9.83-11.01Zm17.64-.5c0-5.5-3.36-8.07-7.35-8.07-3.11,0-7.14,1.47-7.14,8.4s3.61,8.61,7.14,8.61c4.24,0,7.35-2.73,7.35-8.95Z"></path><path class="cls-8" d="m1242.13,1812.49c0-7.1,4.29-11.09,10.04-11.09,3.7,0,6.22,1.6,7.31,3.74h.04v-14.95h2.94v32.77h-1.97l-.67-3.61h-.08c-1.18,2.31-3.95,4.16-7.77,4.16-6.3,0-9.83-3.99-9.83-11.01Zm17.64-.5c0-5.5-3.36-8.07-7.35-8.07-3.11,0-7.14,1.47-7.14,8.4s3.61,8.61,7.14,8.61c4.24,0,7.35-2.73,7.35-8.95Z"></path><path class="cls-8" d="m1287.07,1813.45h-15.96c.17,4.79,2.48,7.48,6.93,7.48,3.82,0,5.67-1.43,5.96-4.83h2.98c-.29,4.24-3.28,7.39-9.03,7.39-7.06,0-9.83-4.66-9.83-10.88s3.23-11.22,10-11.22,8.95,3.99,8.95,10.21v1.85Zm-3.11-2.98c0-4.45-1.72-6.55-5.92-6.55s-6.55,2.65-6.89,6.97h12.81v-.42Z"></path><path class="cls-8" d="m1291.06,1816.52v-1.18h2.94v1.13c0,2.86,2.14,4.5,5.96,4.5s5.8-1.01,5.8-3.78c0-2.06-1.01-2.81-3.87-3.32l-4.62-.84c-3.02-.55-5.54-2.02-5.54-5.5,0-3.15,2.35-6.13,8.4-6.13s8.4,3.02,8.4,7.23v.88h-2.98v-.76c0-3.44-2.14-4.91-5.42-4.91-3.95,0-5.34,1.34-5.34,3.36s1.01,2.86,3.91,3.4l4.03.76c4.12.76,6.09,1.93,6.09,5.59,0,4.58-4.12,6.55-8.78,6.55-7.31,0-8.99-3.28-8.99-6.97Z"></path><path class="cls-8" d="m1313.03,1812.61c0-6.38,3.23-11.22,10-11.22s8.95,3.91,8.95,8.95v.42h-3.11v-.63c0-3.82-1.64-6.09-5.84-6.09-4.75,0-7.01,3.11-7.01,8.4,0,5.63,2.39,8.49,6.93,8.49,3.82,0,5.84-1.85,5.92-5.67h3.03c-.08,4.66-3.15,8.23-9.03,8.23-7.23,0-9.83-4.75-9.83-10.88Z"></path><path class="cls-8" d="m1355.11,1813.45h-15.96c.17,4.79,2.48,7.48,6.93,7.48,3.82,0,5.67-1.43,5.96-4.83h2.98c-.29,4.24-3.28,7.39-9.03,7.39-7.06,0-9.83-4.66-9.83-10.88s3.23-11.22,10-11.22,8.95,3.99,8.95,10.21v1.85Zm-3.11-2.98c0-4.45-1.72-6.55-5.92-6.55s-6.55,2.65-6.89,6.97h12.81v-.42Z"></path><path class="cls-8" d="m1360.99,1801.94h2.6l.29,3.49c1.01-2.14,3.28-4.03,7.35-4.03,4.75,0,7.77,2.52,7.77,7.94v13.61h-2.94v-13.27c0-4.33-2.14-5.71-5.5-5.71-3.82,0-6.64,2.69-6.64,5.63v13.36h-2.94v-21Z"></path><path class="cls-8" d="m1384.68,1812.49c0-7.1,4.28-11.09,10.04-11.09,3.7,0,6.22,1.6,7.31,3.74h.04v-14.95h2.94v32.77h-1.97l-.67-3.61h-.08c-1.18,2.31-3.95,4.16-7.77,4.16-6.3,0-9.83-3.99-9.83-11.01Zm17.64-.5c0-5.5-3.36-8.07-7.35-8.07-3.11,0-7.14,1.47-7.14,8.4s3.61,8.61,7.14,8.61c4.24,0,7.35-2.73,7.35-8.95Z"></path><path class="cls-8" d="m1429.62,1813.45h-15.96c.17,4.79,2.48,7.48,6.93,7.48,3.82,0,5.67-1.43,5.96-4.83h2.98c-.29,4.24-3.28,7.39-9.03,7.39-7.06,0-9.83-4.66-9.83-10.88s3.23-11.22,10-11.22,8.95,3.99,8.95,10.21v1.85Zm-3.11-2.98c0-4.45-1.72-6.55-5.92-6.55s-6.55,2.65-6.89,6.97h12.81v-.42Z"></path><path class="cls-8" d="m1435.5,1801.94h2.6l.29,3.91c1.01-2.14,3.07-4.45,6.76-4.45,1.26,0,2.19.21,3.03.55v3.15c-1.13-.5-2.1-.76-3.4-.76-3.74,0-6.34,2.81-6.34,5.75v12.85h-2.94v-21Z"></path><path class="cls-8" d="m1450.7,1816.52v-1.18h2.94v1.13c0,2.86,2.14,4.5,5.96,4.5s5.8-1.01,5.8-3.78c0-2.06-1.01-2.81-3.86-3.32l-4.62-.84c-3.02-.55-5.54-2.02-5.54-5.5,0-3.15,2.35-6.13,8.4-6.13s8.4,3.02,8.4,7.23v.88h-2.98v-.76c0-3.44-2.14-4.91-5.42-4.91-3.95,0-5.33,1.34-5.33,3.36s1.01,2.86,3.91,3.4l4.03.76c4.12.76,6.09,1.93,6.09,5.59,0,4.58-4.12,6.55-8.78,6.55-7.31,0-8.99-3.28-8.99-6.97Z"></path><path class="cls-8" d="m172.56,2614.61h-3.36v-5.08c0-3.95.88-5.29,3.4-5.97l.67,1.85c-1.77.67-2.06,1.09-2.06,3.78v.34h1.34v5.08Zm5.92,0h-3.36v-5.08c0-3.95.88-5.29,3.4-5.97l.67,1.85c-1.76.67-2.06,1.09-2.06,3.78v.34h1.34v5.08Z"></path><path class="cls-8" d="m185.91,2604.15h8.61c7.94,0,11.64,2.44,11.64,8.86,0,4.58-2.18,7.98-6.76,9.33l7.86,14.53v.04h-3.32l-7.35-14.03c-.67.04-1.34.08-2.1.08h-5.59v13.95h-2.98v-32.77Zm8.74,16.3c6.09,0,8.48-2.81,8.48-7.31,0-4.75-2.6-6.38-8.44-6.38h-5.8v13.7h5.76Z"></path><path class="cls-8" d="m210.61,2613.35c1.77-.67,2.06-1.09,2.06-3.78v-.34h-1.34v-5.08h3.36v5.08c0,3.95-.88,5.29-3.4,5.96l-.67-1.85Zm5.92,0c1.76-.67,2.06-1.09,2.06-3.78v-.34h-1.34v-5.08h3.36v5.08c0,3.95-.88,5.29-3.4,5.96l-.67-1.85Z"></path><path class="cls-8" d="m233.41,2615.95v-.04h2.98l5.75,17.47h.08l6.3-17.47h2.69l6.18,17.47h.08l5.75-17.47h2.86v.04l-7.18,20.96h-3.02l-5.97-17.06h-.08l-6.22,17.06h-3.02l-7.18-20.96Z"></path><path class="cls-8" d="m270.92,2615.91h2.61l.29,3.91c1.01-2.14,3.07-4.45,6.76-4.45,1.26,0,2.18.21,3.02.55v3.15c-1.13-.5-2.1-.76-3.4-.76-3.74,0-6.34,2.81-6.34,5.75v12.86h-2.94v-21Z"></path><path class="cls-8" d="m288.22,2604.15h2.98v6.51h-2.98v-6.51Zm0,11.76h2.94v21h-2.94v-21Z"></path><path class="cls-8" d="m299.14,2630.53v-12.18h-4.16v-2.44h4.16v-6.05l2.94-1.43v7.48h11.85v-6.05l2.94-1.43v7.48h5.92v2.44h-5.92v11.8c0,2.81.76,4.58,3.4,4.58,1.6,0,3.23-.29,4.03-.5v2.61c-.76.21-2.14.59-4.03.59-3.82,0-6.34-1.6-6.34-6.89v-12.18h-11.85v11.8c0,2.81.76,4.58,3.4,4.58,1.6,0,3.23-.29,4.03-.5v2.61c-.76.21-2.14.59-4.03.59-3.82,0-6.34-1.6-6.34-6.89Z"></path><path class="cls-8" d="m345.77,2627.42h-15.96c.17,4.79,2.48,7.48,6.93,7.48,3.82,0,5.67-1.43,5.96-4.83h2.98c-.29,4.24-3.28,7.39-9.03,7.39-7.06,0-9.83-4.66-9.83-10.88s3.23-11.22,10-11.22,8.95,3.99,8.95,10.21v1.85Zm-3.11-2.98c0-4.45-1.72-6.55-5.92-6.55s-6.55,2.65-6.89,6.97h12.81v-.42Z"></path><path class="cls-8" d="m351.64,2615.91h2.6l.29,3.49c1.01-2.14,3.28-4.03,7.35-4.03,4.75,0,7.77,2.52,7.77,7.94v13.61h-2.94v-13.28c0-4.33-2.14-5.71-5.5-5.71-3.82,0-6.64,2.69-6.64,5.63v13.36h-2.94v-21Z"></path><path class="cls-8" d="m383.94,2615.95v-.04h2.98l5.76,17.47h.08l6.3-17.47h2.69l6.17,17.47h.08l5.76-17.47h2.86v.04l-7.18,20.96h-3.02l-5.96-17.06h-.08l-6.22,17.06h-3.02l-7.18-20.96Z"></path><path class="cls-8" d="m421.45,2604.15h2.98v6.51h-2.98v-6.51Zm0,11.76h2.94v21h-2.94v-21Z"></path><path class="cls-8" d="m442.74,2634.22v2.61c-.76.21-2.14.59-4.03.59-3.82,0-6.34-1.6-6.34-6.89v-12.18h-4.16v-2.44h4.16v-6.05l2.94-1.43v7.48h5.92v2.44h-5.92v11.8c0,2.81.76,4.58,3.4,4.58,1.6,0,3.23-.29,4.03-.5Z"></path><path class="cls-8" d="m447.57,2604.15h2.94v15.16c1.05-2.1,3.28-3.95,7.31-3.95,4.75,0,7.77,2.52,7.77,7.94v13.61h-2.94v-13.28c0-4.33-2.14-5.71-5.5-5.71-3.82,0-6.64,2.69-6.64,5.63v13.36h-2.94v-32.77Z"></path><path class="cls-8" d="m493.56,2634.22v2.61c-.76.21-2.14.59-4.03.59-3.82,0-6.34-1.6-6.34-6.89v-12.18h-4.16v-2.44h4.16v-6.05l2.94-1.43v7.48h5.92v2.44h-5.92v11.8c0,2.81.76,4.58,3.4,4.58,1.6,0,3.23-.29,4.03-.5Z"></path><path class="cls-8" d="m495.66,2615.95v-.04h2.98l5.75,17.47h.08l6.3-17.47h2.69l6.18,17.47h.08l5.75-17.47h2.86v.04l-7.18,20.96h-3.02l-5.97-17.06h-.08l-6.22,17.06h-3.02l-7.18-20.96Z"></path><path class="cls-8" d="m530.65,2626.41c0-6.22,3.32-11.05,10.38-11.05,6.6,0,10.25,4.83,10.25,11.05s-3.7,11.05-10.29,11.05c-7.27,0-10.33-4.83-10.33-11.05Zm17.56,0c0-5.34-2.9-8.49-7.22-8.49-4.75,0-7.27,3.15-7.27,8.49s2.56,8.48,7.27,8.48c4.33,0,7.22-3.15,7.22-8.48Z"></path><path class="cls-8" d="m564.92,2630.49v-1.18h2.94v1.13c0,2.86,2.14,4.5,5.96,4.5s5.8-1.01,5.8-3.78c0-2.06-1.01-2.81-3.87-3.32l-4.62-.84c-3.02-.55-5.54-2.02-5.54-5.5,0-3.15,2.35-6.13,8.4-6.13s8.4,3.03,8.4,7.23v.88h-2.98v-.76c0-3.44-2.14-4.91-5.42-4.91-3.95,0-5.34,1.34-5.34,3.36s1.01,2.86,3.91,3.4l4.03.76c4.12.76,6.09,1.93,6.09,5.59,0,4.58-4.12,6.55-8.78,6.55-7.31,0-8.99-3.28-8.99-6.97Z"></path><path class="cls-8" d="m599.53,2634.22v2.61c-.76.21-2.14.59-4.03.59-3.82,0-6.34-1.6-6.34-6.89v-12.18h-4.16v-2.44h4.16v-6.05l2.94-1.43v7.48h5.92v2.44h-5.92v11.8c0,2.81.76,4.58,3.4,4.58,1.6,0,3.23-.29,4.03-.5Z"></path><path class="cls-8" d="m604.36,2615.91h2.6l.29,3.91c1.01-2.14,3.07-4.45,6.76-4.45,1.26,0,2.19.21,3.03.55v3.15c-1.13-.5-2.1-.76-3.4-.76-3.74,0-6.34,2.81-6.34,5.75v12.86h-2.94v-21Z"></path><path class="cls-8" d="m619.35,2626.41c0-6.22,3.32-11.05,10.38-11.05,6.59,0,10.25,4.83,10.25,11.05s-3.7,11.05-10.29,11.05c-7.27,0-10.33-4.83-10.33-11.05Zm17.56,0c0-5.34-2.9-8.49-7.23-8.49-4.75,0-7.27,3.15-7.27,8.49s2.56,8.48,7.27,8.48c4.33,0,7.23-3.15,7.23-8.48Z"></path><path class="cls-8" d="m645.22,2604.15h2.94v23.23l12.14-11.47h3.66v.04l-8.4,7.86,8.78,13.06v.04h-3.36l-7.39-11.22-5.42,5.04v6.18h-2.94v-32.77Z"></path><path class="cls-8" d="m685.59,2627.42h-15.96c.17,4.79,2.48,7.48,6.93,7.48,3.82,0,5.67-1.43,5.96-4.83h2.98c-.29,4.24-3.28,7.39-9.03,7.39-7.06,0-9.83-4.66-9.83-10.88s3.23-11.22,10-11.22,8.95,3.99,8.95,10.21v1.85Zm-3.11-2.98c0-4.45-1.72-6.55-5.92-6.55s-6.55,2.65-6.89,6.97h12.81v-.42Z"></path><path class="cls-8" d="m689.58,2630.49v-1.18h2.94v1.13c0,2.86,2.14,4.5,5.96,4.5s5.8-1.01,5.8-3.78c0-2.06-1.01-2.81-3.86-3.32l-4.62-.84c-3.02-.55-5.54-2.02-5.54-5.5,0-3.15,2.35-6.13,8.4-6.13s8.4,3.03,8.4,7.23v.88h-2.98v-.76c0-3.44-2.14-4.91-5.42-4.91-3.95,0-5.33,1.34-5.33,3.36s1.01,2.86,3.91,3.4l4.03.76c4.12.76,6.09,1.93,6.09,5.59,0,4.58-4.12,6.55-8.78,6.55-7.31,0-8.99-3.28-8.99-6.97Z"></path><path class="cls-8" d="m781.92,2604.17h2.94v30.12h15.71v2.65h-18.65v-32.77Z"></path><path class="cls-8" d="m803.72,2626.44c0-6.22,3.32-11.05,10.38-11.05,6.6,0,10.25,4.83,10.25,11.05s-3.7,11.05-10.29,11.05c-7.27,0-10.33-4.83-10.33-11.05Zm17.56,0c0-5.34-2.9-8.49-7.23-8.49-4.75,0-7.27,3.15-7.27,8.49s2.56,8.49,7.27,8.49c4.33,0,7.23-3.15,7.23-8.49Z"></path><path class="cls-8" d="m828.54,2626.44c0-6.22,3.32-11.05,10.38-11.05,6.6,0,10.25,4.83,10.25,11.05s-3.7,11.05-10.29,11.05c-7.27,0-10.33-4.83-10.33-11.05Zm17.56,0c0-5.34-2.9-8.49-7.23-8.49-4.75,0-7.27,3.15-7.27,8.49s2.56,8.49,7.27,8.49c4.33,0,7.23-3.15,7.23-8.49Z"></path><path class="cls-8" d="m855.04,2615.93h2.39l.34,3.86h.08c1.13-2.48,4.03-4.41,7.86-4.41,6.3,0,9.66,3.99,9.66,11.01s-4.28,11.09-9.87,11.09c-3.78,0-6.38-1.6-7.44-3.7h-.08v11.55h-2.94v-29.4Zm17.18,10.63c0-7.18-3.4-8.61-6.93-8.61-4.24,0-7.56,2.73-7.56,8.44,0,6.01,3.45,8.57,7.44,8.57,3.03,0,7.06-1.47,7.06-8.4Z"></path><path class="cls-8" d="m898.51,2627.44h-15.96c.17,4.79,2.48,7.48,6.93,7.48,3.82,0,5.67-1.43,5.96-4.83h2.98c-.29,4.24-3.28,7.39-9.03,7.39-7.06,0-9.83-4.66-9.83-10.88s3.23-11.22,10-11.22,8.95,3.99,8.95,10.21v1.85Zm-3.11-2.98c0-4.45-1.72-6.55-5.92-6.55s-6.55,2.65-6.89,6.97h12.81v-.42Z"></path><path class="cls-8" d="m902.71,2626.48c0-7.1,4.28-11.09,10.04-11.09,3.7,0,6.22,1.6,7.31,3.74h.04v-14.95h2.94v32.77h-1.97l-.67-3.61h-.08c-1.18,2.31-3.95,4.16-7.77,4.16-6.3,0-9.83-3.99-9.83-11.01Zm17.64-.5c0-5.5-3.36-8.06-7.35-8.06-3.11,0-7.14,1.47-7.14,8.4s3.61,8.61,7.14,8.61c4.24,0,7.35-2.73,7.35-8.95Z"></path><path class="cls-8" d="m938.37,2626.48c0-7.1,4.28-11.09,10.04-11.09,3.7,0,6.22,1.6,7.31,3.74h.04v-14.95h2.94v32.77h-1.97l-.67-3.61h-.08c-1.18,2.31-3.95,4.16-7.77,4.16-6.3,0-9.83-3.99-9.83-11.01Zm17.64-.5c0-5.5-3.36-8.06-7.35-8.06-3.11,0-7.14,1.47-7.14,8.4s3.61,8.61,7.14,8.61c4.24,0,7.35-2.73,7.35-8.95Z"></path><path class="cls-8" d="m983.31,2627.44h-15.96c.17,4.79,2.48,7.48,6.93,7.48,3.82,0,5.67-1.43,5.96-4.83h2.98c-.29,4.24-3.28,7.39-9.03,7.39-7.06,0-9.83-4.66-9.83-10.88s3.23-11.22,10-11.22,8.95,3.99,8.95,10.21v1.85Zm-3.11-2.98c0-4.45-1.72-6.55-5.92-6.55s-6.55,2.65-6.89,6.97h12.81v-.42Z"></path><path class="cls-8" d="m987.3,2630.51v-1.18h2.94v1.13c0,2.86,2.14,4.5,5.96,4.5s5.8-1.01,5.8-3.78c0-2.06-1.01-2.81-3.86-3.32l-4.62-.84c-3.03-.55-5.54-2.02-5.54-5.5,0-3.15,2.35-6.13,8.4-6.13s8.4,3.03,8.4,7.23v.88h-2.98v-.76c0-3.44-2.14-4.91-5.42-4.91-3.95,0-5.33,1.34-5.33,3.36s1.01,2.86,3.91,3.4l4.03.76c4.12.76,6.09,1.93,6.09,5.59,0,4.58-4.12,6.55-8.78,6.55-7.31,0-8.99-3.28-8.99-6.97Z"></path><path class="cls-8" d="m1009.26,2626.6c0-6.38,3.23-11.22,10-11.22s8.95,3.91,8.95,8.95v.42h-3.11v-.63c0-3.82-1.64-6.09-5.84-6.09-4.75,0-7.01,3.11-7.01,8.4,0,5.63,2.39,8.49,6.93,8.49,3.82,0,5.84-1.85,5.92-5.67h3.02c-.08,4.66-3.15,8.23-9.03,8.23-7.22,0-9.83-4.75-9.83-10.88Z"></path><path class="cls-8" d="m1051.35,2627.44h-15.96c.17,4.79,2.48,7.48,6.93,7.48,3.82,0,5.67-1.43,5.96-4.83h2.98c-.29,4.24-3.28,7.39-9.03,7.39-7.06,0-9.83-4.66-9.83-10.88s3.23-11.22,10-11.22,8.95,3.99,8.95,10.21v1.85Zm-3.11-2.98c0-4.45-1.72-6.55-5.92-6.55s-6.55,2.65-6.89,6.97h12.81v-.42Z"></path><path class="cls-8" d="m1057.23,2615.93h2.6l.29,3.49c1.01-2.14,3.28-4.03,7.35-4.03,4.75,0,7.77,2.52,7.77,7.94v13.61h-2.94v-13.28c0-4.33-2.14-5.71-5.5-5.71-3.82,0-6.64,2.69-6.64,5.63v13.36h-2.94v-21Z"></path><path class="cls-8" d="m1080.92,2626.48c0-7.1,4.29-11.09,10.04-11.09,3.7,0,6.22,1.6,7.31,3.74h.04v-14.95h2.94v32.77h-1.97l-.67-3.61h-.08c-1.18,2.31-3.95,4.16-7.77,4.16-6.3,0-9.83-3.99-9.83-11.01Zm17.64-.5c0-5.5-3.36-8.06-7.35-8.06-3.11,0-7.14,1.47-7.14,8.4s3.61,8.61,7.14,8.61c4.24,0,7.35-2.73,7.35-8.95Z"></path><path class="cls-8" d="m1125.86,2627.44h-15.96c.17,4.79,2.48,7.48,6.93,7.48,3.82,0,5.67-1.43,5.96-4.83h2.98c-.29,4.24-3.28,7.39-9.03,7.39-7.06,0-9.83-4.66-9.83-10.88s3.23-11.22,10-11.22,8.95,3.99,8.95,10.21v1.85Zm-3.11-2.98c0-4.45-1.72-6.55-5.92-6.55s-6.55,2.65-6.89,6.97h12.81v-.42Z"></path><path class="cls-8" d="m1131.74,2615.93h2.61l.29,3.91c1.01-2.14,3.07-4.45,6.76-4.45,1.26,0,2.18.21,3.02.55v3.15c-1.13-.5-2.1-.76-3.4-.76-3.74,0-6.34,2.81-6.34,5.75v12.86h-2.94v-21Z"></path><path class="cls-8" d="m1146.94,2630.51v-1.18h2.94v1.13c0,2.86,2.14,4.5,5.96,4.5s5.8-1.01,5.8-3.78c0-2.06-1.01-2.81-3.87-3.32l-4.62-.84c-3.02-.55-5.54-2.02-5.54-5.5,0-3.15,2.35-6.13,8.4-6.13s8.4,3.03,8.4,7.23v.88h-2.98v-.76c0-3.44-2.14-4.91-5.42-4.91-3.95,0-5.33,1.34-5.33,3.36s1.01,2.86,3.91,3.4l4.03.76c4.12.76,6.09,1.93,6.09,5.59,0,4.58-4.12,6.55-8.78,6.55-7.31,0-8.99-3.28-8.99-6.97Z"></path><path class="cls-8" d="m1317.3,2604.17h2.94v30.12h15.71v2.65h-18.65v-32.77Z"></path><path class="cls-8" d="m1339.09,2626.44c0-6.22,3.32-11.05,10.38-11.05,6.6,0,10.25,4.83,10.25,11.05s-3.7,11.05-10.29,11.05c-7.27,0-10.33-4.83-10.33-11.05Zm17.56,0c0-5.33-2.9-8.49-7.22-8.49-4.75,0-7.27,3.15-7.27,8.49s2.56,8.49,7.27,8.49c4.33,0,7.22-3.15,7.22-8.49Z"></path><path class="cls-8" d="m1365.6,2615.93h2.61l.29,3.49c1.01-2.14,3.28-4.03,7.35-4.03,4.75,0,7.77,2.52,7.77,7.94v13.61h-2.94v-13.27c0-4.33-2.14-5.71-5.5-5.71-3.82,0-6.64,2.69-6.64,5.63v13.36h-2.94v-21Z"></path><path class="cls-8" d="m1390.33,2638.74v-.13h3.11v.13c0,2.9,1.93,4.33,6.13,4.33,4.79,0,7.01-2.94,7.01-7.86v-2.1h-.08c-1.09,2.18-3.65,4.08-7.48,4.08-6.3,0-9.75-3.99-9.75-10.71,0-7.1,4.37-11.09,9.96-11.09,3.78,0,6.55,1.81,7.56,4.12h.13l.29-3.57h2.31v19.16c0,5.88-2.81,10.71-10.33,10.71-6.3,0-8.86-2.98-8.86-7.06Zm16.59-12.77c0-5.5-3.36-8.07-7.35-8.07-3.02,0-7.14,1.47-7.14,8.4s3.57,8.32,7.1,8.32c4.24,0,7.39-2.73,7.39-8.65Z"></path><path class="cls-8" d="m1437.5,2634.25v2.6c-.76.21-2.14.59-4.03.59-3.82,0-6.34-1.6-6.34-6.89v-12.18h-4.16v-2.44h4.16v-6.05l2.94-1.43v7.48h5.92v2.44h-5.92v11.8c0,2.81.76,4.58,3.4,4.58,1.6,0,3.23-.29,4.03-.5Z"></path><path class="cls-8" d="m1458.96,2627.44h-15.96c.17,4.79,2.48,7.48,6.93,7.48,3.82,0,5.67-1.43,5.96-4.83h2.98c-.29,4.24-3.28,7.39-9.03,7.39-7.06,0-9.83-4.66-9.83-10.88s3.23-11.22,10-11.22,8.95,3.99,8.95,10.21v1.85Zm-3.11-2.98c0-4.45-1.72-6.55-5.92-6.55s-6.55,2.65-6.89,6.97h12.81v-.42Z"></path><path class="cls-8" d="m1464.84,2615.93h2.61l.29,3.91c1.01-2.14,3.07-4.45,6.76-4.45,1.26,0,2.18.21,3.02.55v3.15c-1.13-.5-2.1-.76-3.4-.76-3.74,0-6.34,2.81-6.34,5.75v12.85h-2.94v-21Z"></path><path class="cls-8" d="m1512.85,2623.33v13.61h-2.94v-13.27c0-4.33-2.14-5.71-4.75-5.71-3.82,0-6.18,2.69-6.18,5.63v13.36h-2.94v-13.27c0-4.33-1.85-5.71-4.83-5.71-3.61,0-6.13,2.69-6.13,5.63v13.36h-2.94v-21h2.6l.29,3.49c1.01-2.02,3.07-4.03,6.93-4.03,2.94,0,5.38,1.39,6.43,4.28,1.22-2.39,3.57-4.28,7.14-4.28,4.28,0,7.31,2.52,7.31,7.94Z"></path><path class="cls-8" d="m1520.2,2604.17h2.98v6.51h-2.98v-6.51Zm0,11.76h2.94v21h-2.94v-21Z"></path><path class="cls-8" d="m1530.53,2615.93h2.6l.29,3.49c1.01-2.14,3.28-4.03,7.35-4.03,4.75,0,7.77,2.52,7.77,7.94v13.61h-2.94v-13.27c0-4.33-2.14-5.71-5.5-5.71-3.82,0-6.64,2.69-6.64,5.63v13.36h-2.94v-21Z"></path><path class="cls-8" d="m1554.64,2631.14c0-3.95,2.23-6.09,7.86-6.09h6.34v-1.72c0-2.98-1.26-5.42-5.46-5.42-3.95,0-5.33,1.51-5.33,4.12v.88h-2.98v-.84c0-5,4.2-6.68,8.32-6.68,5.8,0,8.4,2.86,8.4,8.44v13.11h-2.06l-.55-2.98h-.08c-1.26,1.89-3.7,3.53-7.35,3.53-4.91,0-7.1-2.31-7.1-6.34Zm14.2-1.85v-1.76h-7.02c-2.65,0-4.03.92-4.03,3.61,0,2.35,1.26,3.86,4.5,3.86,4.16,0,6.55-2.14,6.55-5.71Z"></path><path class="cls-8" d="m1579.12,2604.17h2.94v32.77h-2.94v-32.77Z"></path><path class="cls-8" d="m1599.07,2604.17h2.98v6.51h-2.98v-6.51Zm0,11.76h2.94v21h-2.94v-21Z"></path><path class="cls-8" d="m1609.41,2615.93h2.6l.29,3.49c1.01-2.14,3.28-4.03,7.35-4.03,4.75,0,7.77,2.52,7.77,7.94v13.61h-2.94v-13.27c0-4.33-2.14-5.71-5.5-5.71-3.82,0-6.64,2.69-6.64,5.63v13.36h-2.94v-21Z"></path><path class="cls-8" d="m1646.11,2614.63h-3.36v-5.08c0-3.95.88-5.29,3.4-5.97l.67,1.85c-1.76.67-2.06,1.09-2.06,3.78v.34h1.34v5.08Zm5.92,0h-3.36v-5.08c0-3.95.88-5.29,3.4-5.97l.67,1.85c-1.76.67-2.06,1.09-2.06,3.78v.34h1.34v5.08Z"></path><path class="cls-8" d="m1658.42,2615.93h2.6l.29,3.91c1.01-2.14,3.07-4.45,6.76-4.45,1.26,0,2.18.21,3.02.55v3.15c-1.13-.5-2.1-.76-3.4-.76-3.74,0-6.34,2.81-6.34,5.75v12.85h-2.94v-21Z"></path><path class="cls-8" d="m1673.83,2613.37c1.76-.67,2.06-1.09,2.06-3.78v-.34h-1.34v-5.08h3.36v5.08c0,3.95-.88,5.29-3.4,5.97l-.67-1.85Zm5.92,0c1.76-.67,2.06-1.09,2.06-3.78v-.34h-1.34v-5.08h3.36v5.08c0,3.95-.88,5.29-3.4,5.97l-.67-1.85Z"></path><path class="cls-8" d="m1319.85,1679.36v-2.02h3.03v2.18c0,3.74,2.6,6.05,7.94,6.05s8.44-1.97,8.44-6.22c0-3.32-1.39-5.17-4.92-6.09l-6.64-1.72c-4.33-1.13-7.18-2.98-7.18-8.15s3.78-8.91,10.92-8.91,10.59,3.44,10.59,9.07v2.94h-3.02v-2.81c0-4.62-3.07-6.51-7.56-6.51-5.12,0-7.81,2.14-7.81,6.01,0,3.61,1.76,4.7,5.54,5.71l5.75,1.55c5.12,1.39,7.44,3.74,7.44,8.65,0,6.09-4.33,9.24-11.47,9.24-9.12,0-11.05-4.7-11.05-8.99Z"></path><path class="cls-8" d="m1349.55,1655.04h2.94v32.77h-2.94v-32.77Z"></path><path class="cls-8" d="m1359.84,1655.04h2.98v6.51h-2.98v-6.51Zm0,11.76h2.94v21h-2.94v-21Z"></path><path class="cls-8" d="m1369.54,1689.61v-.13h3.11v.13c0,2.9,1.93,4.33,6.13,4.33,4.79,0,7.01-2.94,7.01-7.86v-2.1h-.08c-1.09,2.18-3.65,4.07-7.48,4.07-6.3,0-9.75-3.99-9.75-10.71,0-7.1,4.37-11.09,9.96-11.09,3.78,0,6.55,1.81,7.56,4.12h.13l.29-3.57h2.31v19.16c0,5.88-2.81,10.71-10.33,10.71-6.3,0-8.86-2.98-8.86-7.06Zm16.59-12.77c0-5.5-3.36-8.07-7.35-8.07-3.03,0-7.14,1.47-7.14,8.4s3.57,8.32,7.1,8.32c4.24,0,7.39-2.73,7.39-8.65Z"></path><path class="cls-8" d="m1396.08,1655.04h2.94v15.16c1.05-2.1,3.28-3.95,7.31-3.95,4.75,0,7.77,2.52,7.77,7.94v13.61h-2.94v-13.27c0-4.33-2.14-5.71-5.5-5.71-3.82,0-6.64,2.69-6.64,5.63v13.36h-2.94v-32.77Z"></path><path class="cls-8" d="m1432.41,1685.11v2.6c-.76.21-2.14.59-4.03.59-3.82,0-6.34-1.6-6.34-6.89v-12.18h-4.16v-2.44h4.16v-6.05l2.94-1.43v7.48h5.92v2.44h-5.92v11.8c0,2.81.76,4.58,3.4,4.58,1.6,0,3.23-.29,4.03-.5Z"></path><path class="cls-8" d="m1445.01,1681.38v-1.18h2.94v1.13c0,2.86,2.14,4.5,5.96,4.5s5.8-1.01,5.8-3.78c0-2.06-1.01-2.81-3.86-3.32l-4.62-.84c-3.02-.55-5.54-2.02-5.54-5.5,0-3.15,2.35-6.13,8.4-6.13s8.4,3.02,8.4,7.23v.88h-2.98v-.76c0-3.44-2.14-4.91-5.42-4.91-3.95,0-5.33,1.34-5.33,3.36s1.01,2.86,3.91,3.4l4.03.76c4.12.76,6.09,1.93,6.09,5.59,0,4.58-4.12,6.55-8.78,6.55-7.31,0-8.99-3.28-8.99-6.97Z"></path><path class="cls-8" d="m1468.66,1655.04h2.94v32.77h-2.94v-32.77Z"></path><path class="cls-8" d="m1477.69,1682.01c0-3.95,2.23-6.09,7.86-6.09h6.34v-1.72c0-2.98-1.26-5.42-5.46-5.42-3.95,0-5.33,1.51-5.33,4.12v.88h-2.98v-.84c0-5,4.2-6.68,8.32-6.68,5.8,0,8.4,2.86,8.4,8.44v13.11h-2.06l-.55-2.98h-.08c-1.26,1.89-3.7,3.53-7.35,3.53-4.92,0-7.1-2.31-7.1-6.34Zm14.2-1.85v-1.76h-7.01c-2.65,0-4.03.92-4.03,3.61,0,2.35,1.26,3.86,4.49,3.86,4.16,0,6.55-2.14,6.55-5.71Z"></path><path class="cls-8" d="m1502.17,1666.8h2.6l.29,3.49c1.01-2.14,3.28-4.03,7.35-4.03,4.75,0,7.77,2.52,7.77,7.94v13.61h-2.94v-13.27c0-4.33-2.14-5.71-5.5-5.71-3.82,0-6.64,2.69-6.64,5.63v13.36h-2.94v-21Z"></path><path class="cls-8" d="m1538.5,1685.11v2.6c-.76.21-2.14.59-4.03.59-3.82,0-6.34-1.6-6.34-6.89v-12.18h-4.16v-2.44h4.16v-6.05l2.94-1.43v7.48h5.92v2.44h-5.92v11.8c0,2.81.76,4.58,3.4,4.58,1.6,0,3.23-.29,4.03-.5Z"></path><path class="cls-8" d="m310.62,1782.14v-19.95h2.94v19.95c0,9.41,4.08,10.63,8.86,10.63s8.78-1.01,8.78-10.63v-19.95h2.94v19.62c0,11.64-5.33,13.69-11.76,13.69s-11.76-2.06-11.76-13.36Z"></path><path class="cls-8" d="m341.91,1773.94h2.39l.34,3.86h.08c1.13-2.48,4.03-4.41,7.86-4.41,6.3,0,9.66,3.99,9.66,11.01s-4.28,11.09-9.87,11.09c-3.78,0-6.38-1.6-7.44-3.7h-.08v11.55h-2.94v-29.41Zm17.18,10.63c0-7.18-3.4-8.61-6.93-8.61-4.24,0-7.56,2.73-7.56,8.44,0,6.01,3.44,8.57,7.44,8.57,3.02,0,7.06-1.47,7.06-8.4Z"></path><path class="cls-8" d="m368.12,1773.94h2.39l.34,3.86h.08c1.13-2.48,4.03-4.41,7.86-4.41,6.3,0,9.66,3.99,9.66,11.01s-4.29,11.09-9.87,11.09c-3.78,0-6.39-1.6-7.44-3.7h-.08v11.55h-2.94v-29.41Zm17.18,10.63c0-7.18-3.4-8.61-6.93-8.61-4.24,0-7.56,2.73-7.56,8.44,0,6.01,3.44,8.57,7.43,8.57,3.03,0,7.06-1.47,7.06-8.4Z"></path><path class="cls-8" d="m411.59,1785.45h-15.96c.17,4.79,2.48,7.48,6.93,7.48,3.82,0,5.67-1.43,5.96-4.83h2.98c-.29,4.24-3.28,7.39-9.03,7.39-7.06,0-9.83-4.66-9.83-10.88s3.23-11.22,10-11.22,8.95,3.99,8.95,10.21v1.85Zm-3.11-2.98c0-4.45-1.72-6.55-5.92-6.55s-6.55,2.65-6.89,6.97h12.81v-.42Z"></path><path class="cls-8" d="m417.47,1773.94h2.61l.29,3.91c1.01-2.14,3.07-4.45,6.76-4.45,1.26,0,2.18.21,3.02.55v3.15c-1.13-.5-2.1-.76-3.4-.76-3.74,0-6.34,2.81-6.34,5.75v12.85h-2.94v-21Z"></path><path class="cls-8" d="m432.46,1784.61c0-6.38,3.23-11.22,10-11.22s8.95,3.91,8.95,8.95v.42h-3.11v-.63c0-3.82-1.64-6.09-5.84-6.09-4.75,0-7.02,3.11-7.02,8.4,0,5.63,2.39,8.49,6.93,8.49,3.82,0,5.84-1.85,5.92-5.67h3.03c-.08,4.66-3.15,8.23-9.03,8.23-7.23,0-9.83-4.75-9.83-10.88Z"></path><path class="cls-8" d="m455.81,1789.15c0-3.95,2.23-6.09,7.86-6.09h6.34v-1.72c0-2.98-1.26-5.42-5.46-5.42-3.95,0-5.34,1.51-5.34,4.12v.88h-2.98v-.84c0-5,4.2-6.68,8.32-6.68,5.8,0,8.4,2.86,8.4,8.44v13.11h-2.06l-.55-2.98h-.08c-1.26,1.89-3.7,3.53-7.35,3.53-4.92,0-7.1-2.31-7.1-6.34Zm14.2-1.85v-1.76h-7.02c-2.65,0-4.03.92-4.03,3.61,0,2.35,1.26,3.86,4.5,3.86,4.16,0,6.55-2.14,6.55-5.71Z"></path><path class="cls-8" d="m478.41,1788.52v-1.18h2.94v1.13c0,2.86,2.14,4.5,5.96,4.5s5.8-1.01,5.8-3.78c0-2.06-1.01-2.81-3.87-3.32l-4.62-.84c-3.02-.55-5.54-2.02-5.54-5.5,0-3.15,2.35-6.13,8.4-6.13s8.4,3.02,8.4,7.23v.88h-2.98v-.76c0-3.44-2.14-4.91-5.42-4.91-3.95,0-5.33,1.34-5.33,3.36s1.01,2.86,3.91,3.4l4.03.76c4.12.76,6.09,1.93,6.09,5.59,0,4.58-4.12,6.55-8.78,6.55-7.31,0-8.99-3.28-8.99-6.97Z"></path><path class="cls-8" d="m519.32,1785.45h-15.96c.17,4.79,2.48,7.48,6.93,7.48,3.82,0,5.67-1.43,5.96-4.83h2.98c-.29,4.24-3.28,7.39-9.03,7.39-7.06,0-9.83-4.66-9.83-10.88s3.23-11.22,10-11.22,8.95,3.99,8.95,10.21v1.85Zm-3.11-2.98c0-4.45-1.72-6.55-5.92-6.55s-6.55,2.65-6.89,6.97h12.81v-.42Z"></path><path class="cls-8" d="m534.86,1762.18h2.94v32.77h-2.94v-32.77Z"></path><path class="cls-8" d="m562.41,1785.45h-15.96c.17,4.79,2.48,7.48,6.93,7.48,3.82,0,5.67-1.43,5.96-4.83h2.98c-.29,4.24-3.28,7.39-9.03,7.39-7.06,0-9.83-4.66-9.83-10.88s3.23-11.22,10-11.22,8.95,3.99,8.95,10.21v1.85Zm-3.11-2.98c0-4.45-1.72-6.55-5.92-6.55s-6.55,2.65-6.89,6.97h12.81v-.42Z"></path><path class="cls-8" d="m568.88,1788.56v-12.18h-4.16v-2.44h4.16v-6.05l2.94-1.43v7.48h11.85v-6.05l2.94-1.43v7.48h5.92v2.44h-5.92v11.8c0,2.81.76,4.58,3.4,4.58,1.6,0,3.23-.29,4.03-.5v2.6c-.76.21-2.14.59-4.03.59-3.82,0-6.34-1.6-6.34-6.89v-12.18h-11.85v11.8c0,2.81.76,4.58,3.4,4.58,1.6,0,3.23-.29,4.03-.5v2.6c-.76.21-2.14.59-4.03.59-3.82,0-6.34-1.6-6.34-6.89Z"></path><path class="cls-8" d="m615.5,1785.45h-15.96c.17,4.79,2.48,7.48,6.93,7.48,3.82,0,5.67-1.43,5.96-4.83h2.98c-.29,4.24-3.28,7.39-9.03,7.39-7.06,0-9.83-4.66-9.83-10.88s3.23-11.22,10-11.22,8.95,3.99,8.95,10.21v1.85Zm-3.11-2.98c0-4.45-1.72-6.55-5.92-6.55s-6.55,2.65-6.89,6.97h12.81v-.42Z"></path><path class="cls-8" d="m621.38,1773.94h2.61l.29,3.91c1.01-2.14,3.07-4.45,6.76-4.45,1.26,0,2.18.21,3.02.55v3.15c-1.13-.5-2.1-.76-3.4-.76-3.74,0-6.34,2.81-6.34,5.75v12.85h-2.94v-21Z"></path><path class="cls-8" d="m636.58,1788.52v-1.18h2.94v1.13c0,2.86,2.14,4.5,5.96,4.5s5.8-1.01,5.8-3.78c0-2.06-1.01-2.81-3.87-3.32l-4.62-.84c-3.02-.55-5.54-2.02-5.54-5.5,0-3.15,2.35-6.13,8.4-6.13s8.4,3.02,8.4,7.23v.88h-2.98v-.76c0-3.44-2.14-4.91-5.42-4.91-3.95,0-5.33,1.34-5.33,3.36s1.01,2.86,3.91,3.4l4.03.76c4.12.76,6.09,1.93,6.09,5.59,0,4.58-4.12,6.55-8.78,6.55-7.31,0-8.99-3.28-8.99-6.97Z"></path><path class="cls-8" d="m199.78,1837.37v-1.18h2.94v1.13c0,2.86,2.14,4.5,5.96,4.5s5.8-1.01,5.8-3.78c0-2.06-1.01-2.81-3.86-3.32l-4.62-.84c-3.03-.55-5.54-2.02-5.54-5.5,0-3.15,2.35-6.13,8.4-6.13s8.4,3.02,8.4,7.23v.88h-2.98v-.76c0-3.44-2.14-4.91-5.42-4.91-3.95,0-5.33,1.34-5.33,3.36s1.01,2.86,3.91,3.4l4.03.76c4.12.76,6.09,1.93,6.09,5.59,0,4.58-4.12,6.55-8.78,6.55-7.31,0-8.99-3.28-8.99-6.97Z"></path><path class="cls-8" d="m223.43,1811.03h2.94v15.16c1.05-2.1,3.28-3.95,7.31-3.95,4.75,0,7.77,2.52,7.77,7.94v13.61h-2.94v-13.27c0-4.33-2.14-5.71-5.5-5.71-3.82,0-6.64,2.69-6.64,5.63v13.36h-2.94v-32.77Z"></path><path class="cls-8" d="m247.12,1833.29c0-6.22,3.32-11.05,10.38-11.05,6.6,0,10.25,4.83,10.25,11.05s-3.7,11.05-10.29,11.05c-7.27,0-10.33-4.83-10.33-11.05Zm17.56,0c0-5.33-2.9-8.49-7.23-8.49-4.75,0-7.27,3.15-7.27,8.49s2.56,8.49,7.27,8.49c4.33,0,7.23-3.15,7.23-8.49Z"></path><path class="cls-8" d="m273.62,1822.79h2.6l.29,3.91c1.01-2.14,3.07-4.45,6.76-4.45,1.26,0,2.18.21,3.02.55v3.15c-1.13-.5-2.1-.76-3.4-.76-3.74,0-6.34,2.81-6.34,5.75v12.85h-2.94v-21Z"></path><path class="cls-8" d="m301.88,1841.11v2.6c-.76.21-2.14.59-4.03.59-3.82,0-6.34-1.6-6.34-6.89v-12.18h-4.16v-2.44h4.16v-6.05l2.94-1.43v7.48h5.92v2.44h-5.92v11.8c0,2.81.76,4.58,3.4,4.58,1.6,0,3.23-.29,4.03-.5Z"></path><path class="cls-8" d="m323.35,1834.3h-15.96c.17,4.79,2.48,7.48,6.93,7.48,3.82,0,5.67-1.43,5.96-4.83h2.98c-.29,4.24-3.28,7.39-9.03,7.39-7.06,0-9.83-4.66-9.83-10.88s3.23-11.22,10-11.22,8.95,3.99,8.95,10.21v1.85Zm-3.11-2.98c0-4.45-1.72-6.55-5.92-6.55s-6.55,2.65-6.89,6.97h12.81v-.42Z"></path><path class="cls-8" d="m329.22,1822.79h2.61l.29,3.91c1.01-2.14,3.07-4.45,6.76-4.45,1.26,0,2.18.21,3.02.55v3.15c-1.13-.5-2.1-.76-3.4-.76-3.74,0-6.34,2.81-6.34,5.75v12.85h-2.94v-21Z"></path><path class="cls-8" d="m367.15,1841.11v2.6c-.76.21-2.14.59-4.03.59-3.82,0-6.34-1.6-6.34-6.89v-12.18h-4.16v-2.44h4.16v-6.05l2.94-1.43v7.48h5.92v2.44h-5.92v11.8c0,2.81.76,4.58,3.4,4.58,1.6,0,3.23-.29,4.03-.5Z"></path><path class="cls-8" d="m371.98,1811.03h2.94v15.16c1.05-2.1,3.28-3.95,7.31-3.95,4.75,0,7.77,2.52,7.77,7.94v13.61h-2.94v-13.27c0-4.33-2.14-5.71-5.5-5.71-3.82,0-6.64,2.69-6.64,5.63v13.36h-2.94v-32.77Z"></path><path class="cls-8" d="m396.09,1838c0-3.95,2.23-6.09,7.86-6.09h6.34v-1.72c0-2.98-1.26-5.42-5.46-5.42-3.95,0-5.33,1.51-5.33,4.12v.88h-2.98v-.84c0-5,4.2-6.68,8.32-6.68,5.8,0,8.4,2.86,8.4,8.44v13.11h-2.06l-.55-2.98h-.08c-1.26,1.89-3.7,3.53-7.35,3.53-4.91,0-7.1-2.31-7.1-6.34Zm14.2-1.85v-1.76h-7.02c-2.65,0-4.03.92-4.03,3.61,0,2.35,1.26,3.86,4.5,3.86,4.16,0,6.55-2.14,6.55-5.71Z"></path><path class="cls-8" d="m420.57,1822.79h2.61l.29,3.49c1.01-2.14,3.28-4.03,7.35-4.03,4.75,0,7.77,2.52,7.77,7.94v13.61h-2.94v-13.27c0-4.33-2.14-5.71-5.5-5.71-3.82,0-6.64,2.69-6.64,5.63v13.36h-2.94v-21Z"></path><path class="cls-8" d="m454.34,1838c0-3.95,2.23-6.09,7.86-6.09h6.34v-1.72c0-2.98-1.26-5.42-5.46-5.42-3.95,0-5.33,1.51-5.33,4.12v.88h-2.98v-.84c0-5,4.2-6.68,8.32-6.68,5.8,0,8.4,2.86,8.4,8.44v13.11h-2.06l-.55-2.98h-.08c-1.26,1.89-3.7,3.53-7.35,3.53-4.91,0-7.1-2.31-7.1-6.34Zm14.2-1.85v-1.76h-7.02c-2.65,0-4.03.92-4.03,3.61,0,2.35,1.26,3.86,4.5,3.86,4.16,0,6.55-2.14,6.55-5.71Z"></path><path class="cls-8" d="m476.94,1837.37v-1.18h2.94v1.13c0,2.86,2.14,4.5,5.96,4.5s5.8-1.01,5.8-3.78c0-2.06-1.01-2.81-3.86-3.32l-4.62-.84c-3.03-.55-5.54-2.02-5.54-5.5,0-3.15,2.35-6.13,8.4-6.13s8.4,3.02,8.4,7.23v.88h-2.98v-.76c0-3.44-2.14-4.91-5.42-4.91-3.95,0-5.33,1.34-5.33,3.36s1.01,2.86,3.91,3.4l4.03.76c4.12.76,6.09,1.93,6.09,5.59,0,4.58-4.12,6.55-8.78,6.55-7.31,0-8.99-3.28-8.99-6.97Z"></path><path class="cls-8" d="m498.9,1833.46c0-6.38,3.23-11.22,10-11.22s8.95,3.91,8.95,8.95v.42h-3.11v-.63c0-3.82-1.64-6.09-5.84-6.09-4.75,0-7.02,3.11-7.02,8.4,0,5.63,2.39,8.49,6.93,8.49,3.82,0,5.84-1.85,5.92-5.67h3.02c-.08,4.66-3.15,8.23-9.03,8.23-7.23,0-9.83-4.75-9.83-10.88Z"></path><path class="cls-8" d="m540.99,1834.3h-15.96c.17,4.79,2.48,7.48,6.93,7.48,3.82,0,5.67-1.43,5.96-4.83h2.98c-.29,4.24-3.28,7.39-9.03,7.39-7.06,0-9.83-4.66-9.83-10.88s3.23-11.22,10-11.22,8.95,3.99,8.95,10.21v1.85Zm-3.11-2.98c0-4.45-1.72-6.55-5.92-6.55s-6.55,2.65-6.89,6.97h12.81v-.42Z"></path><path class="cls-8" d="m546.87,1822.79h2.6l.29,3.49c1.01-2.14,3.28-4.03,7.35-4.03,4.75,0,7.77,2.52,7.77,7.94v13.61h-2.94v-13.27c0-4.33-2.14-5.71-5.5-5.71-3.82,0-6.64,2.69-6.64,5.63v13.36h-2.94v-21Z"></path><path class="cls-8" d="m570.56,1833.33c0-7.1,4.29-11.09,10.04-11.09,3.7,0,6.22,1.6,7.31,3.74h.04v-14.95h2.94v32.77h-1.97l-.67-3.61h-.08c-1.18,2.31-3.95,4.16-7.77,4.16-6.3,0-9.83-3.99-9.83-11.01Zm17.64-.5c0-5.5-3.36-8.07-7.35-8.07-3.11,0-7.14,1.47-7.14,8.4s3.61,8.61,7.14,8.61c4.24,0,7.35-2.73,7.35-8.95Z"></path><path class="cls-8" d="m615.5,1834.3h-15.96c.17,4.79,2.48,7.48,6.93,7.48,3.82,0,5.67-1.43,5.96-4.83h2.98c-.29,4.24-3.28,7.39-9.03,7.39-7.06,0-9.83-4.66-9.83-10.88s3.23-11.22,10-11.22,8.95,3.99,8.95,10.21v1.85Zm-3.11-2.98c0-4.45-1.72-6.55-5.92-6.55s-6.55,2.65-6.89,6.97h12.81v-.42Z"></path><path class="cls-8" d="m621.38,1822.79h2.6l.29,3.91c1.01-2.14,3.07-4.45,6.76-4.45,1.26,0,2.18.21,3.02.55v3.15c-1.13-.5-2.1-.76-3.4-.76-3.74,0-6.34,2.81-6.34,5.75v12.85h-2.94v-21Z"></path><path class="cls-8" d="m636.58,1837.37v-1.18h2.94v1.13c0,2.86,2.14,4.5,5.96,4.5s5.8-1.01,5.8-3.78c0-2.06-1.01-2.81-3.87-3.32l-4.62-.84c-3.02-.55-5.54-2.02-5.54-5.5,0-3.15,2.35-6.13,8.4-6.13s8.4,3.02,8.4,7.23v.88h-2.98v-.76c0-3.44-2.14-4.91-5.42-4.91-3.95,0-5.34,1.34-5.34,3.36s1.01,2.86,3.91,3.4l4.03.76c4.12.76,6.09,1.93,6.09,5.59,0,4.58-4.12,6.55-8.78,6.55-7.31,0-8.99-3.28-8.99-6.97Z"></path><rect class="cls-9" x="1380.57" y="2800.37" width="107.98" height="107.98" rx="53.99" ry="53.99"></rect><path class="cls-8" d="m812.85,3188.04h-3.36v-5.08c0-3.95.88-5.29,3.4-5.96l.67,1.85c-1.76.67-2.06,1.09-2.06,3.78v.34h1.34v5.08Zm5.92,0h-3.36v-5.08c0-3.95.88-5.29,3.4-5.96l.67,1.85c-1.76.67-2.06,1.09-2.06,3.78v.34h1.34v5.08Z"></path><path class="cls-8" d="m822.85,3207.78l14.7-15.88h-14.58v-2.56h18.23v2.56l-14.7,15.84h14.66v2.6h-18.32v-2.56Z"></path><path class="cls-8" d="m844.56,3186.78c1.76-.67,2.06-1.09,2.06-3.78v-.34h-1.34v-5.08h3.36v5.08c0,3.95-.88,5.29-3.4,5.97l-.67-1.85Zm5.92,0c1.76-.67,2.06-1.09,2.06-3.78v-.34h-1.34v-5.08h3.36v5.08c0,3.95-.88,5.29-3.4,5.97l-.67-1.85Z"></path><path class="cls-8" d="m867.37,3189.38v-.04h2.98l5.76,17.47h.08l6.3-17.47h2.69l6.17,17.47h.08l5.76-17.47h2.86v.04l-7.18,20.96h-3.02l-5.96-17.05h-.08l-6.22,17.05h-3.02l-7.18-20.96Z"></path><path class="cls-8" d="m904.88,3177.58h2.98v6.51h-2.98v-6.51Zm0,11.76h2.94v21h-2.94v-21Z"></path><path class="cls-8" d="m926.17,3207.66v2.6c-.76.21-2.14.59-4.03.59-3.82,0-6.34-1.6-6.34-6.89v-12.18h-4.16v-2.44h4.16v-6.05l2.94-1.43v7.48h5.92v2.44h-5.92v11.8c0,2.81.76,4.58,3.4,4.58,1.6,0,3.23-.29,4.03-.5Z"></path><path class="cls-8" d="m931,3177.58h2.94v15.16c1.05-2.1,3.28-3.95,7.31-3.95,4.75,0,7.77,2.52,7.77,7.94v13.61h-2.94v-13.27c0-4.33-2.14-5.71-5.5-5.71-3.82,0-6.64,2.69-6.64,5.63v13.36h-2.94v-32.77Z"></path><path class="cls-8" d="m966.03,3189.34h2.6l.29,3.49c1.01-2.14,3.28-4.03,7.35-4.03,4.75,0,7.77,2.52,7.77,7.94v13.61h-2.94v-13.27c0-4.33-2.14-5.71-5.5-5.71-3.82,0-6.64,2.69-6.64,5.63v13.36h-2.94v-21Z"></path><path class="cls-8" d="m989.72,3199.84c0-6.22,3.32-11.05,10.38-11.05,6.6,0,10.25,4.83,10.25,11.05s-3.7,11.05-10.29,11.05c-7.27,0-10.33-4.83-10.33-11.05Zm17.56,0c0-5.33-2.9-8.49-7.23-8.49-4.75,0-7.27,3.15-7.27,8.49s2.56,8.49,7.27,8.49c4.33,0,7.23-3.15,7.23-8.49Z"></path><path class="cls-8" d="m1024.2,3199.89c0-7.1,4.28-11.09,10.04-11.09,3.7,0,6.22,1.6,7.31,3.74h.04v-14.96h2.94v32.77h-1.97l-.67-3.61h-.08c-1.18,2.31-3.95,4.16-7.77,4.16-6.3,0-9.83-3.99-9.83-11.01Zm17.64-.5c0-5.5-3.36-8.07-7.35-8.07-3.11,0-7.14,1.47-7.14,8.4s3.61,8.61,7.14,8.61c4.24,0,7.35-2.73,7.35-8.95Z"></path><path class="cls-8" d="m1069.14,3200.85h-15.96c.17,4.79,2.48,7.48,6.93,7.48,3.82,0,5.67-1.43,5.96-4.83h2.98c-.29,4.24-3.28,7.39-9.03,7.39-7.06,0-9.83-4.66-9.83-10.88s3.23-11.22,10-11.22,8.95,3.99,8.95,10.21v1.85Zm-3.11-2.98c0-4.45-1.72-6.55-5.92-6.55s-6.55,2.65-6.89,6.97h12.81v-.42Z"></path><path class="cls-8" d="m1073.13,3203.92v-1.18h2.94v1.13c0,2.86,2.14,4.49,5.96,4.49s5.8-1.01,5.8-3.78c0-2.06-1.01-2.81-3.87-3.32l-4.62-.84c-3.02-.55-5.54-2.02-5.54-5.5,0-3.15,2.35-6.13,8.4-6.13s8.4,3.02,8.4,7.23v.88h-2.98v-.76c0-3.44-2.14-4.91-5.42-4.91-3.95,0-5.33,1.34-5.33,3.36s1.01,2.86,3.91,3.4l4.03.76c4.12.76,6.09,1.93,6.09,5.59,0,4.58-4.12,6.55-8.78,6.55-7.31,0-8.99-3.28-8.99-6.97Z"></path><path class="cls-8" d="m1095.09,3200.01c0-6.38,3.23-11.22,10-11.22s8.95,3.91,8.95,8.95v.42h-3.11v-.63c0-3.82-1.64-6.09-5.84-6.09-4.75,0-7.02,3.11-7.02,8.4,0,5.63,2.39,8.49,6.93,8.49,3.82,0,5.84-1.85,5.92-5.67h3.02c-.08,4.66-3.15,8.23-9.03,8.23-7.23,0-9.83-4.75-9.83-10.88Z"></path><path class="cls-8" d="m1137.18,3200.85h-15.96c.17,4.79,2.48,7.48,6.93,7.48,3.82,0,5.67-1.43,5.96-4.83h2.98c-.29,4.24-3.28,7.39-9.03,7.39-7.06,0-9.83-4.66-9.83-10.88s3.23-11.22,10-11.22,8.95,3.99,8.95,10.21v1.85Zm-3.11-2.98c0-4.45-1.72-6.55-5.92-6.55s-6.55,2.65-6.89,6.97h12.81v-.42Z"></path><path class="cls-8" d="m1143.06,3189.34h2.6l.29,3.49c1.01-2.14,3.28-4.03,7.35-4.03,4.75,0,7.77,2.52,7.77,7.94v13.61h-2.94v-13.27c0-4.33-2.14-5.71-5.5-5.71-3.82,0-6.64,2.69-6.64,5.63v13.36h-2.94v-21Z"></path><path class="cls-8" d="m1166.75,3199.89c0-7.1,4.29-11.09,10.04-11.09,3.7,0,6.22,1.6,7.31,3.74h.04v-14.96h2.94v32.77h-1.97l-.67-3.61h-.08c-1.18,2.31-3.95,4.16-7.77,4.16-6.3,0-9.83-3.99-9.83-11.01Zm17.64-.5c0-5.5-3.36-8.07-7.35-8.07-3.11,0-7.14,1.47-7.14,8.4s3.61,8.61,7.14,8.61c4.24,0,7.35-2.73,7.35-8.95Z"></path><path class="cls-8" d="m1211.69,3200.85h-15.96c.17,4.79,2.48,7.48,6.93,7.48,3.82,0,5.67-1.43,5.96-4.83h2.98c-.29,4.24-3.28,7.39-9.03,7.39-7.06,0-9.83-4.66-9.83-10.88s3.23-11.22,10-11.22,8.95,3.99,8.95,10.21v1.85Zm-3.11-2.98c0-4.45-1.72-6.55-5.92-6.55s-6.55,2.65-6.89,6.97h12.81v-.42Z"></path><path class="cls-8" d="m1217.57,3189.34h2.6l.29,3.91c1.01-2.14,3.07-4.45,6.76-4.45,1.26,0,2.18.21,3.02.55v3.15c-1.13-.5-2.1-.76-3.4-.76-3.74,0-6.34,2.81-6.34,5.75v12.85h-2.94v-21Z"></path><path class="cls-8" d="m929.51,2487.06h-3.36v-5.08c0-3.95.88-5.29,3.4-5.97l.67,1.85c-1.76.67-2.06,1.09-2.06,3.78v.34h1.34v5.08Zm5.92,0h-3.36v-5.08c0-3.95.88-5.29,3.4-5.97l.67,1.85c-1.76.67-2.06,1.09-2.06,3.78v.34h1.34v5.08Z"></path><path class="cls-8" d="m945.55,2483.33v5.04h5.92v2.44h-5.92v18.57h-2.94v-18.57h-4.16v-2.44h4.16v-5.42c0-5.29,3.15-6.89,6.38-6.89,1.85,0,2.98.29,3.74.55v2.6c-.71-.21-1.89-.46-3.49-.46-2.65,0-3.7,1.77-3.7,4.58Z"></path><path class="cls-8" d="m956.09,2485.8c1.76-.67,2.06-1.09,2.06-3.78v-.34h-1.34v-5.08h3.36v5.08c0,3.95-.88,5.29-3.4,5.96l-.67-1.85Zm5.92,0c1.76-.67,2.06-1.09,2.06-3.78v-.34h-1.34v-5.08h3.36v5.08c0,3.95-.88,5.29-3.4,5.96l-.67-1.85Z"></path><path class="cls-8" d="m978.9,2488.41v-.04h2.98l5.75,17.48h.08l6.3-17.48h2.69l6.18,17.48h.08l5.75-17.48h2.86v.04l-7.18,20.96h-3.02l-5.97-17.06h-.08l-6.22,17.06h-3.02l-7.18-20.96Z"></path><path class="cls-8" d="m1016.4,2476.6h2.98v6.51h-2.98v-6.51Zm0,11.76h2.94v21h-2.94v-21Z"></path><path class="cls-8" d="m1037.7,2506.68v2.6c-.76.21-2.14.59-4.03.59-3.82,0-6.34-1.6-6.34-6.89v-12.18h-4.16v-2.44h4.16v-6.05l2.94-1.43v7.48h5.92v2.44h-5.92v11.8c0,2.81.76,4.58,3.4,4.58,1.6,0,3.23-.29,4.03-.5Z"></path><path class="cls-8" d="m1042.53,2476.6h2.94v15.17c1.05-2.1,3.28-3.95,7.31-3.95,4.75,0,7.77,2.52,7.77,7.94v13.61h-2.94v-13.27c0-4.33-2.14-5.71-5.5-5.71-3.82,0-6.64,2.69-6.64,5.63v13.36h-2.94v-32.77Z"></path><path class="cls-8" d="m1076.3,2503.57c0-3.95,2.23-6.09,7.86-6.09h6.34v-1.72c0-2.98-1.26-5.42-5.46-5.42-3.95,0-5.33,1.51-5.33,4.12v.88h-2.98v-.84c0-5,4.2-6.68,8.32-6.68,5.8,0,8.4,2.86,8.4,8.44v13.11h-2.06l-.55-2.98h-.08c-1.26,1.89-3.7,3.53-7.35,3.53-4.92,0-7.1-2.31-7.1-6.34Zm14.2-1.85v-1.76h-7.01c-2.65,0-4.03.92-4.03,3.61,0,2.35,1.26,3.86,4.49,3.86,4.16,0,6.55-2.14,6.55-5.71Z"></path><path class="cls-8" d="m1108.55,2502.94v-1.18h2.94v1.13c0,2.86,2.14,4.5,5.96,4.5s5.8-1.01,5.8-3.78c0-2.06-1.01-2.81-3.86-3.32l-4.62-.84c-3.02-.55-5.54-2.02-5.54-5.5,0-3.15,2.35-6.13,8.4-6.13s8.4,3.02,8.4,7.22v.88h-2.98v-.76c0-3.45-2.14-4.92-5.42-4.92-3.95,0-5.33,1.34-5.33,3.36s1.01,2.86,3.91,3.4l4.03.76c4.12.76,6.09,1.93,6.09,5.59,0,4.58-4.12,6.55-8.78,6.55-7.31,0-8.99-3.28-8.99-6.97Z"></path><path class="cls-8" d="m1132.2,2476.6h2.98v6.51h-2.98v-6.51Zm0,11.76h2.94v21h-2.94v-21Z"></path><path class="cls-8" d="m1142.53,2488.37h2.6l.29,3.49c1.01-2.14,3.28-4.03,7.35-4.03,4.75,0,7.77,2.52,7.77,7.94v13.61h-2.94v-13.27c0-4.33-2.14-5.71-5.5-5.71-3.82,0-6.64,2.69-6.64,5.63v13.36h-2.94v-21Z"></path><path class="cls-8" d="m1167.27,2511.18v-.12h3.11v.12c0,2.9,1.93,4.33,6.13,4.33,4.79,0,7.02-2.94,7.02-7.86v-2.1h-.08c-1.09,2.19-3.65,4.08-7.48,4.08-6.3,0-9.75-3.99-9.75-10.71,0-7.1,4.37-11.09,9.96-11.09,3.78,0,6.55,1.81,7.56,4.12h.13l.29-3.57h2.31v19.16c0,5.88-2.81,10.71-10.33,10.71-6.3,0-8.86-2.98-8.86-7.06Zm16.59-12.77c0-5.5-3.36-8.07-7.35-8.07-3.02,0-7.14,1.47-7.14,8.4s3.57,8.32,7.1,8.32c4.24,0,7.39-2.73,7.39-8.65Z"></path><path class="cls-8" d="m1193.81,2476.6h2.94v32.77h-2.94v-32.77Z"></path><path class="cls-8" d="m1221.37,2499.88h-15.96c.17,4.79,2.48,7.48,6.93,7.48,3.82,0,5.67-1.43,5.96-4.83h2.98c-.29,4.24-3.28,7.39-9.03,7.39-7.06,0-9.83-4.66-9.83-10.88s3.23-11.22,10-11.22,8.95,3.99,8.95,10.21v1.85Zm-3.11-2.98c0-4.45-1.72-6.55-5.92-6.55s-6.55,2.65-6.89,6.97h12.81v-.42Z"></path><path class="cls-8" d="m1235.01,2502.94v-1.18h2.94v1.13c0,2.86,2.14,4.5,5.96,4.5s5.8-1.01,5.8-3.78c0-2.06-1.01-2.81-3.87-3.32l-4.62-.84c-3.02-.55-5.54-2.02-5.54-5.5,0-3.15,2.35-6.13,8.4-6.13s8.4,3.02,8.4,7.22v.88h-2.98v-.76c0-3.45-2.14-4.92-5.42-4.92-3.95,0-5.33,1.34-5.33,3.36s1.01,2.86,3.91,3.4l4.03.76c4.12.76,6.09,1.93,6.09,5.59,0,4.58-4.12,6.55-8.78,6.55-7.31,0-8.99-3.28-8.99-6.97Z"></path><path class="cls-8" d="m1258.66,2488.37h2.39l.34,3.86h.08c1.13-2.48,4.03-4.41,7.86-4.41,6.3,0,9.66,3.99,9.66,11.01s-4.29,11.09-9.87,11.09c-3.78,0-6.39-1.6-7.44-3.7h-.08v11.55h-2.94v-29.41Zm17.18,10.63c0-7.18-3.4-8.61-6.93-8.61-4.24,0-7.56,2.73-7.56,8.44,0,6.01,3.44,8.57,7.43,8.57,3.02,0,7.06-1.47,7.06-8.4Z"></path><path class="cls-8" d="m1302.13,2499.88h-15.96c.17,4.79,2.48,7.48,6.93,7.48,3.82,0,5.67-1.43,5.96-4.83h2.98c-.29,4.24-3.28,7.39-9.03,7.39-7.06,0-9.83-4.66-9.83-10.88s3.23-11.22,10-11.22,8.95,3.99,8.95,10.21v1.85Zm-3.11-2.98c0-4.45-1.72-6.55-5.92-6.55s-6.55,2.65-6.89,6.97h12.81v-.42Z"></path><path class="cls-8" d="m1325.28,2499.88h-15.96c.17,4.79,2.48,7.48,6.93,7.48,3.82,0,5.67-1.43,5.96-4.83h2.98c-.29,4.24-3.28,7.39-9.03,7.39-7.06,0-9.83-4.66-9.83-10.88s3.23-11.22,10-11.22,8.95,3.99,8.95,10.21v1.85Zm-3.11-2.98c0-4.45-1.72-6.55-5.92-6.55s-6.55,2.65-6.89,6.97h12.81v-.42Z"></path><path class="cls-8" d="m1329.47,2498.91c0-7.1,4.29-11.09,10.04-11.09,3.7,0,6.22,1.6,7.31,3.74h.04v-14.95h2.94v32.77h-1.97l-.67-3.61h-.08c-1.18,2.31-3.95,4.16-7.77,4.16-6.3,0-9.83-3.99-9.83-11.01Zm17.64-.5c0-5.5-3.36-8.07-7.35-8.07-3.11,0-7.14,1.47-7.14,8.4s3.61,8.61,7.14,8.61c4.24,0,7.35-2.73,7.35-8.95Z"></path><path class="cls-8" d="m1357.15,2476.6h2.94v32.77h-2.94v-32.77Z"></path><path class="cls-8" d="m1365.76,2498.87c0-6.22,3.32-11.05,10.38-11.05,6.59,0,10.25,4.83,10.25,11.05s-3.7,11.05-10.29,11.05c-7.27,0-10.33-4.83-10.33-11.05Zm17.56,0c0-5.33-2.9-8.49-7.23-8.49-4.75,0-7.27,3.15-7.27,8.49s2.56,8.49,7.27,8.49c4.33,0,7.23-3.15,7.23-8.49Z"></path><path class="cls-8" d="m1390.58,2498.87c0-6.22,3.32-11.05,10.38-11.05,6.59,0,10.25,4.83,10.25,11.05s-3.7,11.05-10.29,11.05c-7.27,0-10.33-4.83-10.33-11.05Zm17.56,0c0-5.33-2.9-8.49-7.23-8.49-4.75,0-7.27,3.15-7.27,8.49s2.56,8.49,7.27,8.49c4.33,0,7.23-3.15,7.23-8.49Z"></path><path class="cls-8" d="m1417.08,2488.37h2.39l.34,3.86h.08c1.13-2.48,4.03-4.41,7.86-4.41,6.3,0,9.66,3.99,9.66,11.01s-4.29,11.09-9.87,11.09c-3.78,0-6.39-1.6-7.44-3.7h-.08v11.55h-2.94v-29.41Zm17.18,10.63c0-7.18-3.4-8.61-6.93-8.61-4.24,0-7.56,2.73-7.56,8.44,0,6.01,3.44,8.57,7.43,8.57,3.02,0,7.06-1.47,7.06-8.4Z"></path><polygon class="cls-9" points="1450.56 1621.49 1405.67 1621.49 1426.3 1242.99 1471.19 1242.99 1450.56 1621.49"></polygon><path class="cls-9" d="m468.29,1393.79c0-80.3,41.85-128.55,117.24-128.55s106.31,49.76,105.93,116.11c-.38,76.91-35.44,143.26-116.49,143.26s-106.69-61.45-106.69-130.82Zm186.61-11.31c0-60.32-24.13-88.97-70.87-88.97-50.14,0-79.17,31.29-79.17,100.66,0,63.33,24.13,102.54,73.14,102.54s76.91-50.52,76.91-114.23Z"></path><path class="cls-8" d="m965.91,1434.88c-18.85,55.04-62.2,89.72-127.42,89.72-28.65,0-48.25-7.16-67.48-22.24l-2.64,10.56c-1.13,5.28-2.26,6.41-6.03,6.79-5.28,1.13-13.57,1.13-18.1.38-3.77-.75-4.15-3.02-3.77-8.67l1.88-29.78,6.03-229.21c0-5.65,1.13-7.16,4.9-7.92,6.03-1.13,17.34-1.51,22.24-1.51,4.52,0,6.79,1.51,6.79,7.16-.38,9.8-1.51,24.13-2.26,45.62l-2.26,82.18c10.93-20.36,30.91-39.96,59.94-39.96,38.83,0,58.43,32.42,58.43,86.33,0,27.52-4.9,58.06-28.27,76.91,51.27-12.06,69.37-41.09,84.07-74.27,1.13-2.64,1.88-4.15,5.65-3.77,2.64.38,4.9,1.13,7.54,2.64,2.26,1.88,2.26,4.15.75,9.05Zm-102.92-8.29c0-31.67-6.79-62.58-35.06-62.58-23,0-50.14,22.24-50.89,55.79l-2.26,61.07c15.46,12.06,32.42,19.98,46.37,19.98,26.39,0,41.85-27.14,41.85-74.27Z"></path><path class="cls-8" d="m907.1,1629.03c-30.91,0-49.39-14.7-49.39-42.98,0-25.26,15.83-42.22,51.27-55.04,11.31-4.52,26.39-9.42,41.47-14.7l2.64-165.12c0-6.41.75-10.18,6.41-10.93,6.03-.75,18.47-1.51,22.24-1.51,3.39,0,5.28,2.64,5.28,7.16-.38,11.69-1.13,22.24-1.88,38.08l-3.02,123.65c23.37-10.18,53.53-26.01,76.53-42.22,2.26-1.51,4.9-2.64,7.16-.75s3.39,3.77,4.9,5.65c2.26,3.39,2.64,8.29-.75,10.93-25.64,18.85-56.93,35.81-88.59,48.63-3.02,69.37-30.91,99.15-74.27,99.15Zm42.22-82.56c.75-6.03.75-8.29.75-9.05-12.06,4.15-24.5,8.29-33.18,11.69-21.87,9.05-29.78,18.47-29.78,32.8,0,13.57,7.16,23,23.75,23,25.64,0,36.94-24.13,38.45-58.43Zm3.39-268.79c.75-17.34,7.54-21.87,19.98-21.87s18.85,3.77,18.1,21.11c-.75,17.34-7.54,21.87-19.98,21.87s-18.85-4.15-18.1-21.11Z"></path><path class="cls-8" d="m1225.28,1436.01c-12.82,55.04-59.19,88.59-107.07,88.59-55.04,0-78.04-36.94-77.66-84.82.75-58.81,31.67-101.79,84.07-101.79,37.7,0,49.39,23.37,50.14,44.86.75,34.68-32.42,62.96-93.49,94.62,8.67,15.08,23.37,21.87,42.98,21.87,31.67,0,70.12-19.98,88.22-74.27,1.13-3.77,3.39-5.65,5.65-5.65s4.9,1.13,7.54,3.39c3.02,1.88,1.13,7.92-.38,13.19Zm-152.68,0c0,7.92.75,15.08,1.88,21.11,52.02-30.16,70.87-49.01,70.12-73.89-.38-13.57-7.92-23.37-23.37-23.37-32.42,0-48.63,38.08-48.63,76.15Z"></path><path class="cls-8" d="m1292.38,1499.34c37.7,0,71.25-26.39,94.62-77.28,1.88-3.77,3.39-4.9,5.65-4.9s6.03,1.13,7.92,3.02c3.02,2.26,1.88,7.16,0,12.44-19.6,49.76-55.79,91.99-114.23,91.99-49.39,0-76.15-31.67-76.15-84.07,0-64.84,35.81-102.54,80.3-102.54,24.5,0,42.22,9.42,53.16,19.98,4.15,3.39,3.02,6.03,1.88,9.05-1.13,3.02-4.9,9.8-7.92,12.44-3.39,3.02-6.03,2.26-9.8-.75-10.56-10.18-21.49-15.83-38.08-15.83-26.01,0-47.5,22.62-47.5,74.27,0,42.6,19.23,62.2,50.14,62.2Z"></path><path class="cls-8" d="m1390.01,1367.02l-24.13,1.88c-5.65.38-6.41-1.51-6.41-4.9,0-5.65.75-10.93,1.13-14.7.38-3.39,1.51-4.15,6.41-4.52,9.05-.75,15.83-1.51,23.75-1.88l1.51-40.71c0-6.03,1.13-10.56,6.79-12.06,4.9-1.13,18.85-2.64,22.62-2.64s4.9,2.26,4.52,6.79c-2.26,21.49-3.02,32.04-3.39,47.12,13.57-.75,27.9-1.13,46.37-1.51,4.9,0,6.41.75,6.41,4.15,0,4.15-.38,11.31-1.13,15.46-.75,4.15-1.51,4.52-6.79,4.52-18.47.38-32.42.75-45.62,1.51l-3.02,98.39c-.75,21.87,4.52,31.29,21.11,31.29,25.26,0,49.39-21.49,69.37-64.47,1.13-2.64,3.02-3.77,5.28-3.77,3.02.38,6.41,1.51,7.92,3.02,2.26,1.88,1.88,4.15,0,9.8-16.59,49.76-53.16,83.31-93.49,83.31-30.16,0-43.73-16.59-42.6-54.29l3.39-101.79Z"></path><path class="cls-9" d="m686.35,3010.06c-4.9,2.26-14.33,4.52-21.11,4.52-4.9,0-8.29-1.88-14.7-8.29-35.81-31.67-69.74-66.35-96.51-95.38h-.75l-1.13,93.49c0,7.16-2.26,8.67-21.49,8.67-10.56,0-12.44-1.51-12.44-9.05l4.52-167.01c.75-20.73.38-37.7.38-62.2,0-6.03,1.51-8.67,7.92-9.8,7.92-1.13,25.26-2.26,58.06-2.26,55.42,0,93.87,16.96,93.87,62.96s-35.06,70.5-95,79.92c26.39,26.77,58.43,58.43,99.15,94.62,3.77,3.77,3.02,7.16-.75,9.8Zm-98.02-221.67c-15.46,0-24.13.38-32.42,1.13l-2.26,98.77c63.71-5.28,95.38-22.62,95.38-59.94,0-29.78-23.75-39.96-60.7-39.96Z"></path><path class="cls-8" d="m956.27,2850.22c-.75,80.3-35.81,165.12-89.72,165.12-20.73,0-29.03-10.56-29.78-34.68h-.38c-11.69,20.73-33.18,36.57-56.93,36.57-46.75,0-61.83-44.48-61.83-87.84,0-59.19,23.75-98.77,70.5-98.77,20.36,0,38.08,6.03,52.02,15.83l2.26-7.16c1.88-4.52,3.02-5.28,9.42-6.41,4.15-.75,11.31-.75,14.33-.75,4.52,0,6.41,2.26,6.03,7.92-.75,10.93-2.26,24.13-3.02,36.57-1.13,30.91-1.88,59.56-1.88,90.1,0,15.08.38,22.24,10.56,22.24,27.52,0,58.43-79.92,58.06-144.76,0-4.52,1.88-6.79,4.9-6.79,2.64,0,9.05,1.13,11.31,1.51,3.77.75,4.15,4.15,4.15,11.31Zm-119.13,17.72c-14.7-10.18-29.03-13.57-43.35-13.57-27.14,0-42.98,24.5-42.98,72.38,0,24.88,3.39,65.6,36.57,65.6,19.23,0,47.12-19.6,47.88-52.4l1.88-72.01Z"></path><path class="cls-9" d="m1123.27,2915.44c2.26,1.51,2.64,4.15,1.51,9.42-13.19,59.56-39.96,90.85-75.02,90.85-20.73,0-35.44-6.79-55.42-6.79-12.44,0-26.39,3.77-44.86,6.41-7.54.75-10.93-3.39-10.93-10.56,0-7.92,5.65-15.83,10.56-21.49,27.14-31.29,76.91-88.59,103.67-122.9-39.96,6.41-78.04,4.15-105.56-1.88-4.9-1.13-9.05-2.64-9.8-6.41-.75-3.39-1.13-8.67-1.13-14.33,0-4.9,2.26-6.03,4.9-6.03,3.02,0,6.79,1.13,15.08,2.26,46.75,7.92,79.17,6.03,121.01-.38,8.29-1.13,10.56,3.39,10.56,9.42,0,8.67-6.41,20.73-19.23,36.57-24.13,29.41-65.6,78.41-93.12,109.7,12.82-4.9,23.75-6.41,31.67-6.41,16.96,0,33.55,6.79,49.76,6.79,18.1,0,39.21-15.83,54.29-73.51.38-2.64,2.26-4.15,4.52-3.77,3.02,0,6.03,1.51,7.54,3.02Z"></path><path class="cls-8" d="m1329.48,2851.35c-16.21,8.29-45.24,12.82-72.01,11.69,8.29,13.95,12.06,31.67,12.06,51.27-.38,55.04-24.88,102.92-84.07,102.92s-76.15-44.48-76.15-93.87c0-57.68,29.41-92.74,84.07-92.74,13.19,0,24.88,2.26,34.31,6.03,32.8,10.93,70.87,6.79,95.38-2.64,5.28-1.88,8.29-.75,8.67,2.26l1.51,8.67c.38,2.26-1.13,4.9-3.77,6.41Zm-93.12,64.09c0-37.32-11.69-61.45-44.11-61.45s-50.14,21.87-50.14,69.37c0,43.35,14.33,70.5,45.99,70.5s48.25-35.06,48.25-78.41Z"></path><path class="cls-8" d="m1315.53,3004.03l3.02-98.02c.38-16.21,1.13-46.75.75-64.84-.38-5.28,1.13-6.79,4.9-7.92,5.28-1.13,14.33-1.88,18.1-1.88,5.65,0,7.54,2.64,7.92,7.92.38,9.8.38,26.01.38,38.83,12.82-30.91,26.01-47.5,44.48-47.5,17.34,0,24.13,12.06,32.8,12.06,7.16,0,13.95-3.77,25.26-8.67,5.65-2.26,7.54-1.51,8.29,1.88l1.88,6.79c.75,2.26-.75,5.28-3.77,7.16-18.85,13.19-30.16,21.87-40.71,21.87-14.33,0-18.1-10.93-31.29-10.93-11.69,0-19.98,11.31-31.29,32.42-3.02,6.41-5.28,13.95-5.65,26.39l-2.26,84.82c0,6.03-1.88,7.92-16.21,8.67-14.7.75-16.59-1.88-16.59-9.05Z"></path><path class="cls-8" d="m875.88,2184.57c-15.18,42.59-58.89,83.7-113.33,83.7s-77.77-36.29-77.4-83.33c.74-57.77,31.11-99.99,82.59-99.99,37.03,0,49.26,22.96,49.26,44.07,0,34.07-32.22,61.85-91.85,92.96,8.15,14.81,22.22,21.48,41.11,21.48,37.78,0,72.59-23.7,97.4-68.88,2.59-4.07,4.07-5.56,6.3-5.56s4.81,1.11,7.41,2.96c2.96,2.59.74,7.04-1.48,12.59Zm-159.25-3.33c0,7.78.74,14.81,1.85,20.74,51.11-29.63,68.88-48.15,68.88-72.59,0-13.33-7.78-22.96-22.96-22.96-31.85,0-47.77,37.41-47.77,74.81Z"></path><path class="cls-8" d="m986.98,2179.76c-16.67,45.18-53.7,77.4-94.07,92.96-1.85,73.33-28.89,98.14-66.66,98.14-27.41,0-45.18-14.07-45.18-41.11s19.26-41.48,50.74-56.29l30-12.59.74-147.4c-6.3.74-13.33,1.11-21.11,1.85-5.56.37-7.04-1.11-6.67-5.93l1.11-12.22c.37-4.07,1.48-5.18,6.3-5.56l20.74-1.85,1.11-40c1.48-46.29,19.63-64.44,53.33-64.44,15.55,0,29.63,5.18,37.41,8.89,4.81,2.22,6.3,4.44,6.3,7.41,0,3.7-2.59,12.96-7.41,16.67-1.48,2.22-4.07,2.22-7.78.37-5.93-2.96-14.44-6.67-25.18-6.67-14.07,0-23.7,9.63-24.44,33.33l-1.11,42.59c12.59-.37,25.55-1.11,40.74-1.48,5.56,0,6.67,1.11,6.67,5.18,0,3.33-.37,10-1.48,14.44-.74,3.33-1.48,4.44-5.93,4.44-15.92,0-28.15.37-40.74.74v1.85l-1.48,139.25c32.59-13.33,60-41.11,79.62-78.88,1.85-2.96,2.96-4.44,5.93-4.07,2.59.37,5.93.74,7.78,2.22,2.22,1.48,2.59,3.7.74,8.15Zm-124.81,102.59c-7.41,3.33-14.81,6.3-21.85,10-17.41,9.26-30.74,18.15-30.74,33.7,0,13.33,6.67,21.48,21.48,21.48,26.67,0,29.63-25.92,31.11-65.18Z"></path><path class="cls-8" d="m1071.79,2177.17c-11.85,55.55-40,89.25-75.92,89.25-22.22,0-31.48-12.96-30.74-42.59l6.67-219.25c0-5.93.74-11.11,6.67-11.85,5.56-1.11,18.52-1.11,22.22-1.11,3.33,0,4.81,2.22,4.44,6.67-1.11,12.22-2.22,34.81-2.59,46.66l-5.56,174.43c-.37,14.07.74,21.48,10,21.48,17.41,0,40-24.07,52.22-72.96.37-2.59,1.85-3.7,4.07-3.33,2.96.37,5.93,1.48,7.78,2.96,1.85,1.48,2.22,4.07.74,9.63Z"></path><path class="cls-8" d="m1273.25,2105.32c-15.92,8.15-44.44,12.59-70.74,11.48,8.15,13.7,11.85,31.11,11.85,50.37-.37,54.07-24.44,101.1-82.59,101.1s-74.81-43.7-74.81-92.22c0-56.66,28.89-91.11,82.59-91.11,12.96,0,24.44,2.22,33.7,5.93,32.22,10.74,69.63,6.67,93.7-2.59,5.18-1.85,8.15-.74,8.52,2.22l1.48,8.52c.37,2.22-1.11,4.81-3.7,6.3Zm-91.48,62.96c0-36.66-11.48-60.37-43.33-60.37s-49.26,21.48-49.26,68.14c0,42.59,14.07,69.25,45.18,69.25s47.4-34.44,47.4-77.03Z"></path><path class="cls-9" d="m569.38,2256.74l4.84-159.31c.37-13.77,0-36.1-.37-51.74-21.59-.37-45.41-.37-72.58-.37-4.47,0-7.07-1.49-8.19-4.84-.37-3.72-.74-9.31-.74-15.26,0-4.47,2.23-6.7,7.44-6.7l183.13,1.12c5.96,0,7.07,1.86,7.07,11.54,0,12.66-1.12,14.89-8.56,14.89h-74.44l-4.09,211.05c0,5.58-2.61,8.56-21.22,8.56-10.42,0-12.28-2.23-12.28-8.93Z"></path><path class="cls-8" d="m1416.9,2242.23c15.63,0,38.71-17.87,58.07-65.14,1.12-2.61,2.61-3.72,4.84-3.72,3.35.37,6.7,1.49,8.19,2.98,1.86,1.86,1.86,4.09,0,9.68-14.14,43.55-45.41,81.89-83,81.89-22.71,0-32.01-13.03-30.89-42.43l2.61-76.68c1.12-27.54-7.07-36.85-26.06-36.85s-38.71,17.87-49.13,39.83c-2.98,5.96-4.09,11.54-4.47,21.96l-2.61,83.38c0,5.96-2.23,7.82-16.38,8.56-14.52.74-16.01-1.86-16.01-8.93,3.35-101.61,3.72-126.18,4.09-160.8,0-5.21,1.12-6.7,4.84-7.82,5.21-1.12,13.77-1.86,17.87-1.86,5.21,0,7.44,2.61,7.44,7.82.37,9.68.37,26.43.37,38.71,13.77-26.8,37.59-47.27,65.88-47.27,32.01,0,48.76,16.38,46.9,55.46l-2.98,79.65c-.74,14.14.74,21.59,10.42,21.59Z"></path><g class="cls-11"><path class="cls-10" d="m1315.53,3004.03l3.02-98.02c.38-16.21,1.13-46.75.75-64.84-.38-5.28,1.13-6.79,4.9-7.92,5.28-1.13,14.33-1.88,18.1-1.88,5.65,0,7.54,2.64,7.92,7.92.38,9.8.38,26.01.38,38.83,12.82-30.91,26.01-47.5,44.48-47.5,17.34,0,24.13,12.06,32.8,12.06,7.16,0,13.95-3.77,25.26-8.67,5.65-2.26,7.54-1.51,8.29,1.88l1.88,6.79c.75,2.26-.75,5.28-3.77,7.16-18.85,13.19-30.16,21.87-40.71,21.87-14.33,0-18.1-10.93-31.29-10.93-11.69,0-19.98,11.31-31.29,32.42-3.02,6.41-5.28,13.95-5.65,26.39l-2.26,84.82c0,6.03-1.88,7.92-16.21,8.67-14.7.75-16.59-1.88-16.59-9.05Z"></path></g><circle class="cls-9" cx="836.35" cy="2327.92" r="82.79"></circle><g class="cls-12"><path class="cls-10" d="m986.98,2179.76c-16.67,45.18-53.7,77.4-94.07,92.96-1.85,73.33-28.89,98.14-66.66,98.14-27.41,0-45.18-14.07-45.18-41.11s19.26-41.48,50.74-56.29l30-12.59.74-147.4c-6.3.74-13.33,1.11-21.11,1.85-5.56.37-7.04-1.11-6.67-5.93l1.11-12.22c.37-4.07,1.48-5.18,6.3-5.56l20.74-1.85,1.11-40c1.48-46.29,19.63-64.44,53.33-64.44,15.55,0,29.63,5.18,37.41,8.89,4.81,2.22,6.3,4.44,6.3,7.41,0,3.7-2.59,12.96-7.41,16.67-1.48,2.22-4.07,2.22-7.78.37-5.93-2.96-14.44-6.67-25.18-6.67-14.07,0-23.7,9.63-24.44,33.33l-1.11,42.59c12.59-.37,25.55-1.11,40.74-1.48,5.56,0,6.67,1.11,6.67,5.18,0,3.33-.37,10-1.48,14.44-.74,3.33-1.48,4.44-5.93,4.44-15.92,0-28.15.37-40.74.74v1.85l-1.48,139.25c32.59-13.33,60-41.11,79.62-78.88,1.85-2.96,2.96-4.44,5.93-4.07,2.59.37,5.93.74,7.78,2.22,2.22,1.48,2.59,3.7.74,8.15Zm-124.81,102.59c-7.41,3.33-14.81,6.3-21.85,10-17.41,9.26-30.74,18.15-30.74,33.7,0,13.33,6.67,21.48,21.48,21.48,26.67,0,29.63-25.92,31.11-65.18Z"></path></g><line class="cls-2" x1="906.26" y1="2396.52" x2="1079.19" y2="2467.67"></line></svg> 