<?xml version="1.0" encoding="UTF-8"?> <svg xmlns="http://www.w3.org/2000/svg" xmlns:xlink="http://www.w3.org/1999/xlink" id="Layer_1" viewBox="0 0 1920 3450"><defs><style>.cls-1,.cls-2,.cls-3{fill:none;}.cls-4{clip-path:url(#clippath);}.cls-5{fill:#fff;}.cls-6{fill:#937eb9;}.cls-7{fill:#937fbb;}.cls-8{fill:#161b31;}.cls-9{fill:#231f20;}.cls-10{clip-path:url(#clippath-1);}.cls-11{clip-path:url(#clippath-3);}.cls-12{clip-path:url(#clippath-2);}.cls-2{stroke:#a797c9;stroke-dasharray:0 0 1.74 17.45;stroke-linecap:round;stroke-width:7px;}.cls-2,.cls-3{stroke-miterlimit:10;}.cls-3{stroke:#566789;stroke-width:3.5px;}</style><clipPath id="clippath"><rect class="cls-1" x="706.17" y="2786.89" width="142.91" height="142.91" rx="71.46" ry="71.46"></rect></clipPath><clipPath id="clippath-1"><rect class="cls-1" x="966.01" y="2208.41" width="171.79" height="171.79" rx="85.9" ry="85.9"></rect></clipPath><clipPath id="clippath-2"><rect class="cls-1" x="981.6" y="1151.09" width="96.97" height="96.97" rx="48.48" ry="48.48"></rect></clipPath><clipPath id="clippath-3"><circle class="cls-1" cx="1592.18" cy="2773.99" r="112.87"></circle></clipPath></defs><rect class="cls-8" width="1920" height="3450"></rect><line class="cls-3" y1="201.82" x2="1920" y2="201.82"></line><line class="cls-3" y1="346.77" x2="1920" y2="346.77"></line><line class="cls-3" x1="1920" y1="534.92" y2="534.92"></line><line class="cls-3" y1="681.86" x2="1920" y2="681.86"></line><line class="cls-3" y1="1032.43" x2="1920" y2="1032.43"></line><line class="cls-3" y1="1177.37" x2="1920" y2="1177.37"></line><line class="cls-3" x1="1920" y1="1365.52" y2="1365.52"></line><line class="cls-3" y1="1512.47" x2="1920" y2="1512.47"></line><line class="cls-3" y1="1863.03" x2="1920" y2="1863.03"></line><line class="cls-3" y1="2007.98" x2="1920" y2="2007.98"></line><line class="cls-3" x1="1920" y1="2196.13" y2="2196.13"></line><line class="cls-3" y1="2343.07" x2="1920" y2="2343.07"></line><line class="cls-3" y1="2693.64" x2="1920" y2="2693.64"></line><line class="cls-3" y1="2838.58" x2="1920" y2="2838.58"></line><line class="cls-3" x1="1920" y1="3026.73" y2="3026.73"></line><line class="cls-3" y1="3173.68" x2="1920" y2="3173.68"></line><polygon class="cls-6" points="556.45 2343.07 608.78 2343.07 776.08 1863.03 723.74 1863.03 556.45 2343.07"></polygon><line class="cls-2" x1="486.3" y1="748.41" x2="485.04" y2="554.92"></line><line class="cls-2" x1="1006.54" y1="742.98" x2="1005.36" y2="550.92"></line><line class="cls-2" x1="1592.11" y1="2642.25" x2="1590.93" y2="2542.07"></line><line class="cls-2" x1="1049.39" y1="2464.04" x2="1048.21" y2="2292.5"></line><line class="cls-2" x1="391.47" y1="2730.08" x2="390.29" y2="2592.16"></line><line class="cls-2" x1="1628.95" y1="1015.86" x2="1627.76" y2="957.89"></line><line class="cls-2" x1="1700.53" y1="1614.73" x2="1699.34" y2="1378.97"></line><line class="cls-2" x1="790.49" y1="3239.76" x2="789.31" y2="2944.31"></line><line class="cls-2" x1="1040.27" y1="1612.73" x2="1039.08" y2="1257.35"></line><path class="cls-5" d="m610.86,1792.03h3.23l11.51,20.92h.08l11.51-20.92h3.23v32.77h-2.94v-27.85h-.04l-10.75,19.91h-2.06l-10.8-19.91h-.04v27.85h-2.94v-32.77Z"></path><path class="cls-5" d="m647.36,1814.29c0-6.22,3.32-11.05,10.38-11.05,6.59,0,10.25,4.83,10.25,11.05s-3.7,11.05-10.29,11.05c-7.27,0-10.33-4.83-10.33-11.05Zm17.56,0c0-5.33-2.9-8.49-7.22-8.49-4.75,0-7.27,3.15-7.27,8.49s2.56,8.49,7.27,8.49c4.33,0,7.22-3.15,7.22-8.49Z"></path><path class="cls-5" d="m672.18,1814.34c0-7.1,4.28-11.09,10.04-11.09,3.7,0,6.22,1.6,7.31,3.74h.04v-14.95h2.94v32.77h-1.97l-.67-3.61h-.08c-1.18,2.31-3.95,4.16-7.77,4.16-6.3,0-9.83-3.99-9.83-11.01Zm17.64-.5c0-5.5-3.36-8.07-7.35-8.07-3.11,0-7.14,1.47-7.14,8.4s3.61,8.61,7.14,8.61c4.24,0,7.35-2.73,7.35-8.95Z"></path><path class="cls-5" d="m717.12,1815.3h-15.96c.17,4.79,2.48,7.48,6.93,7.48,3.82,0,5.67-1.43,5.97-4.83h2.98c-.29,4.24-3.28,7.39-9.03,7.39-7.06,0-9.83-4.66-9.83-10.88s3.23-11.22,10-11.22,8.95,3.99,8.95,10.21v1.85Zm-3.11-2.98c0-4.45-1.72-6.55-5.92-6.55s-6.55,2.65-6.89,6.97h12.81v-.42Z"></path><path class="cls-5" d="m723,1803.79h2.6l.29,3.91c1.01-2.14,3.07-4.45,6.76-4.45,1.26,0,2.18.21,3.02.55v3.15c-1.13-.5-2.1-.76-3.4-.76-3.74,0-6.34,2.81-6.34,5.76v12.85h-2.94v-21Z"></path><path class="cls-5" d="m738.62,1819c0-3.95,2.23-6.09,7.86-6.09h6.34v-1.72c0-2.98-1.26-5.42-5.46-5.42-3.95,0-5.33,1.51-5.33,4.12v.88h-2.98v-.84c0-5,4.2-6.68,8.32-6.68,5.8,0,8.4,2.86,8.4,8.44v13.11h-2.06l-.55-2.98h-.08c-1.26,1.89-3.7,3.53-7.35,3.53-4.92,0-7.1-2.31-7.1-6.34Zm14.2-1.85v-1.76h-7.01c-2.65,0-4.03.92-4.03,3.61,0,2.35,1.26,3.86,4.5,3.86,4.16,0,6.55-2.14,6.55-5.71Z"></path><path class="cls-5" d="m773.86,1822.11v2.6c-.76.21-2.14.59-4.03.59-3.82,0-6.34-1.6-6.34-6.89v-12.18h-4.16v-2.44h4.16v-6.05l2.94-1.43v7.48h5.92v2.44h-5.92v11.8c0,2.81.76,4.58,3.4,4.58,1.6,0,3.23-.29,4.03-.5Z"></path><path class="cls-5" d="m795.33,1815.3h-15.96c.17,4.79,2.48,7.48,6.93,7.48,3.82,0,5.67-1.43,5.97-4.83h2.98c-.29,4.24-3.28,7.39-9.03,7.39-7.06,0-9.83-4.66-9.83-10.88s3.23-11.22,10-11.22,8.95,3.99,8.95,10.21v1.85Zm-3.11-2.98c0-4.45-1.72-6.55-5.92-6.55s-6.55,2.65-6.89,6.97h12.81v-.42Z"></path><path class="cls-5" d="m808.97,1818.37v-1.18h2.94v1.13c0,2.86,2.14,4.5,5.96,4.5s5.8-1.01,5.8-3.78c0-2.06-1.01-2.81-3.86-3.32l-4.62-.84c-3.02-.55-5.54-2.02-5.54-5.5,0-3.15,2.35-6.13,8.4-6.13s8.4,3.02,8.4,7.22v.88h-2.98v-.76c0-3.44-2.14-4.91-5.42-4.91-3.95,0-5.33,1.34-5.33,3.36s1.01,2.86,3.91,3.4l4.03.76c4.12.76,6.09,1.93,6.09,5.59,0,4.58-4.12,6.55-8.78,6.55-7.31,0-8.99-3.28-8.99-6.97Z"></path><path class="cls-5" d="m832.62,1792.03h2.94v32.77h-2.94v-32.77Z"></path><path class="cls-5" d="m841.65,1819c0-3.95,2.23-6.09,7.86-6.09h6.34v-1.72c0-2.98-1.26-5.42-5.46-5.42-3.95,0-5.33,1.51-5.33,4.12v.88h-2.98v-.84c0-5,4.2-6.68,8.32-6.68,5.8,0,8.4,2.86,8.4,8.44v13.11h-2.06l-.55-2.98h-.08c-1.26,1.89-3.7,3.53-7.35,3.53-4.92,0-7.1-2.31-7.1-6.34Zm14.2-1.85v-1.76h-7.01c-2.65,0-4.03.92-4.03,3.61,0,2.35,1.26,3.86,4.5,3.86,4.16,0,6.55-2.14,6.55-5.71Z"></path><path class="cls-5" d="m866.14,1803.79h2.6l.29,3.49c1.01-2.14,3.28-4.03,7.35-4.03,4.75,0,7.77,2.52,7.77,7.94v13.61h-2.94v-13.27c0-4.33-2.14-5.71-5.5-5.71-3.82,0-6.64,2.69-6.64,5.63v13.36h-2.94v-21Z"></path><path class="cls-5" d="m902.47,1822.11v2.6c-.76.21-2.14.59-4.03.59-3.82,0-6.34-1.6-6.34-6.89v-12.18h-4.16v-2.44h4.16v-6.05l2.94-1.43v7.48h5.92v2.44h-5.92v11.8c0,2.81.76,4.58,3.4,4.58,1.6,0,3.23-.29,4.03-.5Z"></path><path class="cls-5" d="m228.5,797.14v-2.02h3.02v2.18c0,3.74,2.61,6.05,7.94,6.05s8.44-1.97,8.44-6.22c0-3.32-1.38-5.17-4.91-6.09l-6.64-1.72c-4.33-1.13-7.18-2.98-7.18-8.15s3.78-8.91,10.92-8.91,10.59,3.44,10.59,9.07v2.94h-3.03v-2.81c0-4.62-3.07-6.51-7.56-6.51-5.12,0-7.81,2.14-7.81,6.01,0,3.61,1.77,4.7,5.55,5.71l5.75,1.55c5.12,1.39,7.44,3.74,7.44,8.65,0,6.09-4.33,9.24-11.47,9.24-9.12,0-11.05-4.7-11.05-8.99Z"></path><path class="cls-5" d="m258.2,772.82h2.98v6.51h-2.98v-6.51Zm0,11.76h2.94v21h-2.94v-21Z"></path><path class="cls-5" d="m299.24,791.98v13.61h-2.94v-13.27c0-4.33-2.14-5.71-4.75-5.71-3.82,0-6.17,2.69-6.17,5.63v13.36h-2.94v-13.27c0-4.33-1.85-5.71-4.83-5.71-3.61,0-6.13,2.69-6.13,5.63v13.36h-2.94v-21h2.6l.29,3.49c1.01-2.02,3.07-4.03,6.93-4.03,2.94,0,5.38,1.39,6.43,4.28,1.22-2.39,3.57-4.28,7.14-4.28,4.29,0,7.31,2.52,7.31,7.94Z"></path><path class="cls-5" d="m306.58,784.58h2.39l.34,3.86h.08c1.13-2.48,4.03-4.41,7.86-4.41,6.3,0,9.66,3.99,9.66,11.01s-4.29,11.09-9.87,11.09c-3.78,0-6.38-1.6-7.43-3.7h-.09v11.55h-2.94v-29.41Zm17.18,10.63c0-7.18-3.4-8.61-6.93-8.61-4.24,0-7.56,2.73-7.56,8.44,0,6.01,3.45,8.57,7.44,8.57,3.03,0,7.06-1.47,7.06-8.4Z"></path><path class="cls-5" d="m332.16,772.82h2.94v32.77h-2.94v-32.77Z"></path><path class="cls-5" d="m342.45,772.82h2.98v6.51h-2.98v-6.51Zm0,11.76h2.94v21h-2.94v-21Z"></path><path class="cls-5" d="m349.84,784.58h4.16v-5.42c0-5.29,3.15-6.89,6.38-6.89,1.85,0,2.98.29,3.74.55v2.6c-.71-.21-1.89-.46-3.49-.46-2.65,0-3.7,1.76-3.7,4.58v5.04h14.07v21h-2.94v-18.57h-11.13v18.57h-2.94v-18.57h-4.16v-2.44Zm18.23-11.76h2.98v6.51h-2.98v-6.51Z"></path><path class="cls-5" d="m395.67,796.09h-15.96c.17,4.79,2.48,7.48,6.93,7.48,3.82,0,5.67-1.43,5.96-4.83h2.98c-.29,4.24-3.28,7.39-9.03,7.39-7.06,0-9.83-4.66-9.83-10.88s3.23-11.22,10-11.22,8.95,3.99,8.95,10.21v1.85Zm-3.11-2.98c0-4.45-1.72-6.55-5.92-6.55s-6.55,2.65-6.89,6.97h12.81v-.42Z"></path><path class="cls-5" d="m399.86,795.13c0-7.1,4.29-11.09,10.04-11.09,3.7,0,6.22,1.6,7.31,3.74h.04v-14.95h2.94v32.77h-1.97l-.67-3.61h-.08c-1.18,2.31-3.95,4.16-7.77,4.16-6.3,0-9.83-3.99-9.83-11.01Zm17.64-.5c0-5.5-3.36-8.07-7.35-8.07-3.11,0-7.14,1.47-7.14,8.4s3.61,8.61,7.14,8.61c4.24,0,7.35-2.73,7.35-8.95Z"></path><path class="cls-5" d="m435.52,795.25c0-6.38,3.23-11.22,10-11.22s8.95,3.91,8.95,8.95v.42h-3.11v-.63c0-3.82-1.64-6.09-5.84-6.09-4.75,0-7.02,3.11-7.02,8.4,0,5.63,2.39,8.49,6.93,8.49,3.82,0,5.84-1.85,5.92-5.67h3.02c-.08,4.66-3.15,8.23-9.03,8.23-7.22,0-9.83-4.75-9.83-10.88Z"></path><path class="cls-5" d="m459.92,798.19v-13.61h2.94v13.27c0,4.33,2.14,5.71,5.42,5.71,3.74,0,6.55-2.69,6.55-5.63v-13.36h2.94v21h-2.61l-.25-3.36h-.08c-.97,2.02-3.23,3.91-7.22,3.91-4.66,0-7.69-2.52-7.69-7.94Z"></path><path class="cls-5" d="m485.12,784.58h2.61l.29,3.91c1.01-2.14,3.07-4.45,6.76-4.45,1.26,0,2.19.21,3.03.55v3.15c-1.13-.5-2.1-.76-3.4-.76-3.74,0-6.34,2.81-6.34,5.75v12.85h-2.94v-21Z"></path><path class="cls-5" d="m500.33,799.16v-1.18h2.94v1.13c0,2.86,2.14,4.5,5.96,4.5s5.8-1.01,5.8-3.78c0-2.06-1.01-2.81-3.86-3.32l-4.62-.84c-3.03-.55-5.54-2.02-5.54-5.5,0-3.15,2.35-6.13,8.4-6.13s8.4,3.02,8.4,7.23v.88h-2.98v-.76c0-3.44-2.14-4.91-5.42-4.91-3.95,0-5.33,1.34-5.33,3.36s1.01,2.86,3.91,3.4l4.03.76c4.12.76,6.09,1.93,6.09,5.59,0,4.58-4.12,6.55-8.78,6.55-7.31,0-8.99-3.28-8.99-6.97Z"></path><path class="cls-5" d="m523.97,772.82h2.98v6.51h-2.98v-6.51Zm0,11.76h2.94v21h-2.94v-21Z"></path><path class="cls-5" d="m531.16,784.63v-.04h3.36l7.35,17.98h.08l7.1-17.98h3.07v.04l-8.74,20.96h-3.02l-9.2-20.96Z"></path><path class="cls-5" d="m572.95,796.09h-15.96c.17,4.79,2.48,7.48,6.93,7.48,3.82,0,5.67-1.43,5.97-4.83h2.98c-.29,4.24-3.28,7.39-9.03,7.39-7.06,0-9.83-4.66-9.83-10.88s3.23-11.22,10-11.22,8.95,3.99,8.95,10.21v1.85Zm-3.11-2.98c0-4.45-1.72-6.55-5.92-6.55s-6.55,2.65-6.89,6.97h12.81v-.42Z"></path><path class="cls-5" d="m588.07,798.19v-13.61h2.94v13.27c0,4.33,2.14,5.71,5.42,5.71,3.74,0,6.55-2.69,6.55-5.63v-13.36h2.94v21h-2.6l-.25-3.36h-.08c-.97,2.02-3.23,3.91-7.23,3.91-4.66,0-7.69-2.52-7.69-7.94Z"></path><path class="cls-5" d="m613.27,784.58h2.39l.34,3.86h.08c1.13-2.48,4.03-4.41,7.86-4.41,6.3,0,9.66,3.99,9.66,11.01s-4.29,11.09-9.87,11.09c-3.78,0-6.38-1.6-7.43-3.7h-.09v11.55h-2.94v-29.41Zm17.18,10.63c0-7.18-3.4-8.61-6.93-8.61-4.24,0-7.56,2.73-7.56,8.44,0,6.01,3.45,8.57,7.44,8.57,3.03,0,7.06-1.47,7.06-8.4Z"></path><path class="cls-5" d="m639.47,784.58h2.39l.34,3.86h.08c1.13-2.48,4.03-4.41,7.86-4.41,6.3,0,9.66,3.99,9.66,11.01s-4.29,11.09-9.87,11.09c-3.78,0-6.38-1.6-7.44-3.7h-.08v11.55h-2.94v-29.41Zm17.18,10.63c0-7.18-3.4-8.61-6.93-8.61-4.24,0-7.56,2.73-7.56,8.44,0,6.01,3.45,8.57,7.44,8.57,3.02,0,7.06-1.47,7.06-8.4Z"></path><path class="cls-5" d="m682.95,796.09h-15.96c.17,4.79,2.48,7.48,6.93,7.48,3.82,0,5.67-1.43,5.97-4.83h2.98c-.29,4.24-3.28,7.39-9.03,7.39-7.06,0-9.83-4.66-9.83-10.88s3.23-11.22,10-11.22,8.95,3.99,8.95,10.21v1.85Zm-3.11-2.98c0-4.45-1.72-6.55-5.92-6.55s-6.55,2.65-6.89,6.97h12.81v-.42Z"></path><path class="cls-5" d="m688.83,784.58h2.6l.29,3.91c1.01-2.14,3.07-4.45,6.76-4.45,1.26,0,2.18.21,3.02.55v3.15c-1.13-.5-2.1-.76-3.4-.76-3.74,0-6.34,2.81-6.34,5.75v12.85h-2.94v-21Z"></path><path class="cls-5" d="m703.82,795.25c0-6.38,3.23-11.22,10-11.22s8.95,3.91,8.95,8.95v.42h-3.11v-.63c0-3.82-1.64-6.09-5.84-6.09-4.75,0-7.01,3.11-7.01,8.4,0,5.63,2.39,8.49,6.93,8.49,3.82,0,5.84-1.85,5.92-5.67h3.03c-.08,4.66-3.15,8.23-9.03,8.23-7.22,0-9.83-4.75-9.83-10.88Z"></path><path class="cls-5" d="m727.17,799.79c0-3.95,2.23-6.09,7.86-6.09h6.34v-1.72c0-2.98-1.26-5.42-5.46-5.42-3.95,0-5.33,1.51-5.33,4.12v.88h-2.98v-.84c0-5,4.2-6.68,8.32-6.68,5.8,0,8.4,2.86,8.4,8.44v13.11h-2.06l-.55-2.98h-.08c-1.26,1.89-3.7,3.53-7.35,3.53-4.92,0-7.1-2.31-7.1-6.34Zm14.2-1.85v-1.76h-7.01c-2.65,0-4.03.92-4.03,3.61,0,2.35,1.26,3.86,4.49,3.86,4.16,0,6.55-2.14,6.55-5.71Z"></path><path class="cls-5" d="m749.77,799.16v-1.18h2.94v1.13c0,2.86,2.14,4.5,5.96,4.5s5.8-1.01,5.8-3.78c0-2.06-1.01-2.81-3.87-3.32l-4.62-.84c-3.02-.55-5.54-2.02-5.54-5.5,0-3.15,2.35-6.13,8.4-6.13s8.4,3.02,8.4,7.23v.88h-2.98v-.76c0-3.44-2.14-4.91-5.42-4.91-3.95,0-5.34,1.34-5.34,3.36s1.01,2.86,3.91,3.4l4.03.76c4.12.76,6.09,1.93,6.09,5.59,0,4.58-4.12,6.55-8.78,6.55-7.31,0-8.99-3.28-8.99-6.97Z"></path><path class="cls-5" d="m790.68,796.09h-15.96c.17,4.79,2.48,7.48,6.93,7.48,3.82,0,5.67-1.43,5.97-4.83h2.98c-.29,4.24-3.28,7.39-9.03,7.39-7.06,0-9.83-4.66-9.83-10.88s3.23-11.22,10-11.22,8.95,3.99,8.95,10.21v1.85Zm-3.11-2.98c0-4.45-1.72-6.55-5.92-6.55s-6.55,2.65-6.89,6.97h12.81v-.42Z"></path><path class="cls-5" d="m365.19,821.67h2.94v32.77h-2.94v-32.77Z"></path><path class="cls-5" d="m392.75,844.94h-15.96c.17,4.79,2.48,7.48,6.93,7.48,3.82,0,5.67-1.43,5.96-4.83h2.98c-.29,4.24-3.28,7.39-9.03,7.39-7.06,0-9.83-4.66-9.83-10.88s3.23-11.22,10-11.22,8.95,3.99,8.95,10.21v1.85Zm-3.11-2.98c0-4.45-1.72-6.55-5.92-6.55s-6.55,2.65-6.89,6.97h12.81v-.42Z"></path><path class="cls-5" d="m399.21,848.05v-12.18h-4.16v-2.44h4.16v-6.05l2.94-1.43v7.48h11.85v-6.05l2.94-1.43v7.48h5.92v2.44h-5.92v11.8c0,2.81.76,4.58,3.4,4.58,1.6,0,3.24-.29,4.03-.5v2.6c-.76.21-2.14.59-4.03.59-3.82,0-6.34-1.6-6.34-6.89v-12.18h-11.85v11.8c0,2.81.76,4.58,3.4,4.58,1.6,0,3.23-.29,4.03-.5v2.6c-.76.21-2.14.59-4.03.59-3.82,0-6.34-1.6-6.34-6.89Z"></path><path class="cls-5" d="m445.84,844.94h-15.96c.17,4.79,2.48,7.48,6.93,7.48,3.82,0,5.67-1.43,5.96-4.83h2.98c-.29,4.24-3.28,7.39-9.03,7.39-7.06,0-9.83-4.66-9.83-10.88s3.23-11.22,10-11.22,8.95,3.99,8.95,10.21v1.85Zm-3.11-2.98c0-4.45-1.72-6.55-5.92-6.55s-6.55,2.65-6.89,6.97h12.81v-.42Z"></path><path class="cls-5" d="m451.71,833.43h2.6l.29,3.91c1.01-2.14,3.07-4.45,6.76-4.45,1.26,0,2.18.21,3.02.55v3.15c-1.13-.5-2.1-.76-3.4-.76-3.74,0-6.34,2.81-6.34,5.75v12.85h-2.94v-21Z"></path><path class="cls-5" d="m466.92,848.01v-1.18h2.94v1.13c0,2.86,2.14,4.5,5.96,4.5s5.8-1.01,5.8-3.78c0-2.06-1.01-2.81-3.86-3.32l-4.62-.84c-3.03-.55-5.54-2.02-5.54-5.5,0-3.15,2.35-6.13,8.4-6.13s8.4,3.02,8.4,7.23v.88h-2.98v-.76c0-3.44-2.14-4.91-5.42-4.91-3.95,0-5.33,1.34-5.33,3.36s1.01,2.86,3.91,3.4l4.03.76c4.12.76,6.09,1.93,6.09,5.59,0,4.58-4.12,6.55-8.78,6.55-7.31,0-8.99-3.28-8.99-6.97Z"></path><path class="cls-5" d="m511.19,851.75v2.6c-.76.21-2.14.59-4.03.59-3.82,0-6.34-1.6-6.34-6.89v-12.18h-4.16v-2.44h4.16v-6.05l2.94-1.43v7.48h5.92v2.44h-5.92v11.8c0,2.81.76,4.58,3.4,4.58,1.6,0,3.23-.29,4.03-.5Z"></path><path class="cls-5" d="m516.02,821.67h2.94v15.16c1.05-2.1,3.28-3.95,7.31-3.95,4.75,0,7.77,2.52,7.77,7.94v13.61h-2.94v-13.27c0-4.33-2.14-5.71-5.5-5.71-3.82,0-6.64,2.69-6.64,5.63v13.36h-2.94v-32.77Z"></path><path class="cls-5" d="m540.12,848.64c0-3.95,2.23-6.09,7.86-6.09h6.34v-1.72c0-2.98-1.26-5.42-5.46-5.42-3.95,0-5.34,1.51-5.34,4.12v.88h-2.98v-.84c0-5,4.2-6.68,8.32-6.68,5.8,0,8.4,2.86,8.4,8.44v13.11h-2.06l-.55-2.98h-.08c-1.26,1.89-3.7,3.53-7.35,3.53-4.91,0-7.1-2.31-7.1-6.34Zm14.2-1.85v-1.76h-7.02c-2.65,0-4.03.92-4.03,3.61,0,2.35,1.26,3.86,4.5,3.86,4.16,0,6.55-2.14,6.55-5.71Z"></path><path class="cls-5" d="m575.36,851.75v2.6c-.76.21-2.14.59-4.03.59-3.82,0-6.34-1.6-6.34-6.89v-12.18h-4.16v-2.44h4.16v-6.05l2.94-1.43v7.48h5.92v2.44h-5.92v11.8c0,2.81.76,4.58,3.4,4.58,1.6,0,3.23-.29,4.03-.5Z"></path><path class="cls-5" d="m592.79,857.46c0,3.53-1.68,5.84-5.04,5.84-1.18,0-2.02-.13-2.94-.38v-2.6c.8.17,1.47.29,2.27.29,1.93,0,2.77-1.26,2.77-3.65v-23.52h2.94v24.03Zm-2.94-35.79h2.98v6.51h-2.98v-6.51Z"></path><path class="cls-5" d="m598.5,843.93c0-6.22,3.32-11.05,10.38-11.05,6.6,0,10.25,4.83,10.25,11.05s-3.7,11.05-10.29,11.05c-7.27,0-10.33-4.83-10.33-11.05Zm17.56,0c0-5.33-2.9-8.49-7.22-8.49-4.75,0-7.27,3.15-7.27,8.49s2.56,8.49,7.27,8.49c4.33,0,7.22-3.15,7.22-8.49Z"></path><path class="cls-5" d="m625.01,821.67h2.98v6.51h-2.98v-6.51Zm0,11.76h2.94v21h-2.94v-21Z"></path><path class="cls-5" d="m635.34,833.43h2.61l.29,3.49c1.01-2.14,3.28-4.03,7.35-4.03,4.75,0,7.77,2.52,7.77,7.94v13.61h-2.94v-13.27c0-4.33-2.14-5.71-5.5-5.71-3.82,0-6.64,2.69-6.64,5.63v13.36h-2.94v-21Z"></path><path class="cls-5" d="m994.75,2511.16h-13.99l-3.74,10.33h-3.07l12.18-32.77h3.32l12.1,32.77h-3.07l-3.74-10.33Zm-.92-2.6l-6.05-16.8h-.04l-6.05,16.8h12.14Z"></path><path class="cls-5" d="m1003.86,2515.06v-1.18h2.94v1.13c0,2.86,2.14,4.5,5.96,4.5s5.8-1.01,5.8-3.78c0-2.06-1.01-2.81-3.86-3.32l-4.62-.84c-3.02-.55-5.54-2.02-5.54-5.5,0-3.15,2.35-6.13,8.4-6.13s8.4,3.02,8.4,7.23v.88h-2.98v-.76c0-3.44-2.14-4.91-5.42-4.91-3.95,0-5.33,1.34-5.33,3.36s1.01,2.86,3.91,3.4l4.03.76c4.12.76,6.09,1.93,6.09,5.59,0,4.58-4.12,6.55-8.78,6.55-7.31,0-8.99-3.28-8.99-6.97Z"></path><path class="cls-5" d="m1025.83,2511.16c0-6.38,3.23-11.22,10-11.22s8.95,3.91,8.95,8.95v.42h-3.11v-.63c0-3.82-1.64-6.09-5.84-6.09-4.75,0-7.01,3.11-7.01,8.4,0,5.63,2.39,8.49,6.93,8.49,3.82,0,5.84-1.85,5.92-5.67h3.02c-.08,4.66-3.15,8.23-9.03,8.23-7.22,0-9.83-4.75-9.83-10.88Z"></path><path class="cls-5" d="m1067.91,2512h-15.96c.17,4.79,2.48,7.48,6.93,7.48,3.82,0,5.67-1.43,5.97-4.83h2.98c-.29,4.24-3.28,7.39-9.03,7.39-7.06,0-9.83-4.66-9.83-10.88s3.23-11.22,10-11.22,8.95,3.99,8.95,10.21v1.85Zm-3.11-2.98c0-4.45-1.72-6.55-5.92-6.55s-6.55,2.65-6.89,6.97h12.81v-.42Z"></path><path class="cls-5" d="m1073.79,2500.49h2.6l.29,3.49c1.01-2.14,3.28-4.03,7.35-4.03,4.75,0,7.77,2.52,7.77,7.94v13.61h-2.94v-13.27c0-4.33-2.14-5.71-5.5-5.71-3.82,0-6.64,2.69-6.64,5.63v13.36h-2.94v-21Z"></path><path class="cls-5" d="m1097.48,2511.03c0-7.1,4.28-11.09,10.04-11.09,3.7,0,6.22,1.6,7.31,3.74h.04v-14.95h2.94v32.77h-1.97l-.67-3.61h-.08c-1.18,2.31-3.95,4.16-7.77,4.16-6.3,0-9.83-3.99-9.83-11.01Zm17.64-.5c0-5.5-3.36-8.07-7.35-8.07-3.11,0-7.14,1.47-7.14,8.4s3.61,8.61,7.14,8.61c4.24,0,7.35-2.73,7.35-8.95Z"></path><path class="cls-5" d="m1142.42,2512h-15.96c.17,4.79,2.48,7.48,6.93,7.48,3.82,0,5.67-1.43,5.97-4.83h2.98c-.29,4.24-3.28,7.39-9.03,7.39-7.06,0-9.83-4.66-9.83-10.88s3.23-11.22,10-11.22,8.95,3.99,8.95,10.21v1.85Zm-3.11-2.98c0-4.45-1.72-6.55-5.92-6.55s-6.55,2.65-6.89,6.97h12.81v-.42Z"></path><path class="cls-5" d="m1148.3,2500.49h2.6l.29,3.91c1.01-2.14,3.07-4.45,6.76-4.45,1.26,0,2.18.21,3.02.55v3.15c-1.13-.5-2.1-.76-3.4-.76-3.74,0-6.34,2.81-6.34,5.75v12.85h-2.94v-21Z"></path><path class="cls-5" d="m1163.5,2515.06v-1.18h2.94v1.13c0,2.86,2.14,4.5,5.96,4.5s5.8-1.01,5.8-3.78c0-2.06-1.01-2.81-3.86-3.32l-4.62-.84c-3.02-.55-5.54-2.02-5.54-5.5,0-3.15,2.35-6.13,8.4-6.13s8.4,3.02,8.4,7.23v.88h-2.98v-.76c0-3.44-2.14-4.91-5.42-4.91-3.95,0-5.33,1.34-5.33,3.36s1.01,2.86,3.91,3.4l4.03.76c4.12.76,6.09,1.93,6.09,5.59,0,4.58-4.12,6.55-8.78,6.55-7.31,0-8.99-3.28-8.99-6.97Z"></path><path class="cls-5" d="m1195.55,2515.69c0-3.95,2.23-6.09,7.86-6.09h6.34v-1.72c0-2.98-1.26-5.42-5.46-5.42-3.95,0-5.33,1.51-5.33,4.12v.88h-2.98v-.84c0-5,4.2-6.68,8.32-6.68,5.8,0,8.4,2.86,8.4,8.44v13.11h-2.06l-.55-2.98h-.08c-1.26,1.89-3.7,3.53-7.35,3.53-4.92,0-7.1-2.31-7.1-6.34Zm14.2-1.85v-1.76h-7.01c-2.65,0-4.03.92-4.03,3.61,0,2.35,1.26,3.86,4.5,3.86,4.16,0,6.55-2.14,6.55-5.71Z"></path><path class="cls-5" d="m1220.03,2500.49h2.6l.29,3.49c1.01-2.14,3.28-4.03,7.35-4.03,4.75,0,7.77,2.52,7.77,7.94v13.61h-2.94v-13.27c0-4.33-2.14-5.71-5.5-5.71-3.82,0-6.64,2.69-6.64,5.63v13.36h-2.94v-21Z"></path><path class="cls-5" d="m1243.72,2511.03c0-7.1,4.28-11.09,10.04-11.09,3.7,0,6.22,1.6,7.31,3.74h.04v-14.95h2.94v32.77h-1.97l-.67-3.61h-.08c-1.18,2.31-3.95,4.16-7.77,4.16-6.3,0-9.83-3.99-9.83-11.01Zm17.64-.5c0-5.5-3.36-8.07-7.35-8.07-3.11,0-7.14,1.47-7.14,8.4s3.61,8.61,7.14,8.61c4.24,0,7.35-2.73,7.35-8.95Z"></path><path class="cls-5" d="m1279.38,2511.03c0-7.1,4.28-11.09,10.04-11.09,3.7,0,6.22,1.6,7.31,3.74h.04v-14.95h2.94v32.77h-1.97l-.67-3.61h-.08c-1.18,2.31-3.95,4.16-7.77,4.16-6.3,0-9.83-3.99-9.83-11.01Zm17.64-.5c0-5.5-3.36-8.07-7.35-8.07-3.11,0-7.14,1.47-7.14,8.4s3.61,8.61,7.14,8.61c4.24,0,7.35-2.73,7.35-8.95Z"></path><path class="cls-5" d="m1324.32,2512h-15.96c.17,4.79,2.48,7.48,6.93,7.48,3.82,0,5.67-1.43,5.97-4.83h2.98c-.29,4.24-3.28,7.39-9.03,7.39-7.06,0-9.83-4.66-9.83-10.88s3.23-11.22,10-11.22,8.95,3.99,8.95,10.21v1.85Zm-3.11-2.98c0-4.45-1.72-6.55-5.92-6.55s-6.55,2.65-6.89,6.97h12.81v-.42Z"></path><path class="cls-5" d="m1328.31,2515.06v-1.18h2.94v1.13c0,2.86,2.14,4.5,5.96,4.5s5.8-1.01,5.8-3.78c0-2.06-1.01-2.81-3.86-3.32l-4.62-.84c-3.02-.55-5.54-2.02-5.54-5.5,0-3.15,2.35-6.13,8.4-6.13s8.4,3.02,8.4,7.23v.88h-2.98v-.76c0-3.44-2.14-4.91-5.42-4.91-3.95,0-5.33,1.34-5.33,3.36s1.01,2.86,3.91,3.4l4.03.76c4.12.76,6.09,1.93,6.09,5.59,0,4.58-4.12,6.55-8.78,6.55-7.31,0-8.99-3.28-8.99-6.97Z"></path><path class="cls-5" d="m1350.28,2511.16c0-6.38,3.23-11.22,10-11.22s8.95,3.91,8.95,8.95v.42h-3.11v-.63c0-3.82-1.64-6.09-5.84-6.09-4.75,0-7.01,3.11-7.01,8.4,0,5.63,2.39,8.49,6.93,8.49,3.82,0,5.84-1.85,5.92-5.67h3.02c-.08,4.66-3.15,8.23-9.03,8.23-7.22,0-9.83-4.75-9.83-10.88Z"></path><path class="cls-5" d="m1392.36,2512h-15.96c.17,4.79,2.48,7.48,6.93,7.48,3.82,0,5.67-1.43,5.97-4.83h2.98c-.29,4.24-3.28,7.39-9.03,7.39-7.06,0-9.83-4.66-9.83-10.88s3.23-11.22,10-11.22,8.95,3.99,8.95,10.21v1.85Zm-3.11-2.98c0-4.45-1.72-6.55-5.92-6.55s-6.55,2.65-6.89,6.97h12.81v-.42Z"></path><path class="cls-5" d="m1398.24,2500.49h2.6l.29,3.49c1.01-2.14,3.28-4.03,7.35-4.03,4.75,0,7.77,2.52,7.77,7.94v13.61h-2.94v-13.27c0-4.33-2.14-5.71-5.5-5.71-3.82,0-6.64,2.69-6.64,5.63v13.36h-2.94v-21Z"></path><path class="cls-5" d="m1421.93,2511.03c0-7.1,4.28-11.09,10.04-11.09,3.7,0,6.22,1.6,7.31,3.74h.04v-14.95h2.94v32.77h-1.97l-.67-3.61h-.08c-1.18,2.31-3.95,4.16-7.77,4.16-6.3,0-9.83-3.99-9.83-11.01Zm17.64-.5c0-5.5-3.36-8.07-7.35-8.07-3.11,0-7.14,1.47-7.14,8.4s3.61,8.61,7.14,8.61c4.24,0,7.35-2.73,7.35-8.95Z"></path><path class="cls-5" d="m1466.87,2512h-15.96c.17,4.79,2.48,7.48,6.93,7.48,3.82,0,5.67-1.43,5.97-4.83h2.98c-.29,4.24-3.28,7.39-9.03,7.39-7.06,0-9.83-4.66-9.83-10.88s3.23-11.22,10-11.22,8.95,3.99,8.95,10.21v1.85Zm-3.11-2.98c0-4.45-1.72-6.55-5.92-6.55s-6.55,2.65-6.89,6.97h12.81v-.42Z"></path><path class="cls-5" d="m1472.75,2500.49h2.6l.29,3.91c1.01-2.14,3.07-4.45,6.76-4.45,1.26,0,2.18.21,3.02.55v3.15c-1.13-.5-2.1-.76-3.4-.76-3.74,0-6.34,2.81-6.34,5.75v12.85h-2.94v-21Z"></path><path class="cls-5" d="m1487.95,2515.06v-1.18h2.94v1.13c0,2.86,2.14,4.5,5.96,4.5s5.8-1.01,5.8-3.78c0-2.06-1.01-2.81-3.86-3.32l-4.62-.84c-3.02-.55-5.54-2.02-5.54-5.5,0-3.15,2.35-6.13,8.4-6.13s8.4,3.02,8.4,7.23v.88h-2.98v-.76c0-3.44-2.14-4.91-5.42-4.91-3.95,0-5.33,1.34-5.33,3.36s1.01,2.86,3.91,3.4l4.03.76c4.12.76,6.09,1.93,6.09,5.59,0,4.58-4.12,6.55-8.78,6.55-7.31,0-8.99-3.28-8.99-6.97Z"></path><path class="cls-5" d="m1521.26,2488.73h2.94v15.16c1.05-2.1,3.28-3.95,7.31-3.95,4.75,0,7.77,2.52,7.77,7.94v13.61h-2.94v-13.27c0-4.33-2.14-5.71-5.5-5.71-3.82,0-6.64,2.69-6.64,5.63v13.36h-2.94v-32.77Z"></path><path class="cls-5" d="m1545.37,2515.69c0-3.95,2.23-6.09,7.86-6.09h6.34v-1.72c0-2.98-1.26-5.42-5.46-5.42-3.95,0-5.33,1.51-5.33,4.12v.88h-2.98v-.84c0-5,4.2-6.68,8.32-6.68,5.8,0,8.4,2.86,8.4,8.44v13.11h-2.06l-.55-2.98h-.08c-1.26,1.89-3.7,3.53-7.35,3.53-4.92,0-7.1-2.31-7.1-6.34Zm14.2-1.85v-1.76h-7.01c-2.65,0-4.03.92-4.03,3.61,0,2.35,1.26,3.86,4.5,3.86,4.16,0,6.55-2.14,6.55-5.71Z"></path><path class="cls-5" d="m1565.44,2500.53v-.04h3.36l7.35,17.98h.08l7.1-17.98h3.07v.04l-8.74,20.96h-3.02l-9.2-20.96Z"></path><path class="cls-5" d="m1607.24,2512h-15.96c.17,4.79,2.48,7.48,6.93,7.48,3.82,0,5.67-1.43,5.97-4.83h2.98c-.29,4.24-3.28,7.39-9.03,7.39-7.06,0-9.83-4.66-9.83-10.88s3.23-11.22,10-11.22,8.95,3.99,8.95,10.21v1.85Zm-3.11-2.98c0-4.45-1.72-6.55-5.92-6.55s-6.55,2.65-6.89,6.97h12.81v-.42Z"></path><path class="cls-5" d="m1622.77,2488.73h2.94v32.77h-2.94v-32.77Z"></path><path class="cls-5" d="m1631.38,2510.99c0-6.22,3.32-11.05,10.38-11.05,6.59,0,10.25,4.83,10.25,11.05s-3.7,11.05-10.29,11.05c-7.27,0-10.33-4.83-10.33-11.05Zm17.56,0c0-5.33-2.9-8.49-7.22-8.49-4.75,0-7.27,3.15-7.27,8.49s2.56,8.49,7.27,8.49c4.33,0,7.22-3.15,7.22-8.49Z"></path><path class="cls-5" d="m1656.2,2510.99c0-6.22,3.32-11.05,10.38-11.05,6.59,0,10.25,4.83,10.25,11.05s-3.7,11.05-10.29,11.05c-7.27,0-10.33-4.83-10.33-11.05Zm17.56,0c0-5.33-2.9-8.49-7.22-8.49-4.75,0-7.27,3.15-7.27,8.49s2.56,8.49,7.27,8.49c4.33,0,7.22-3.15,7.22-8.49Z"></path><path class="cls-5" d="m1682.71,2500.49h2.39l.34,3.86h.08c1.13-2.48,4.03-4.41,7.86-4.41,6.3,0,9.66,3.99,9.66,11.01s-4.29,11.09-9.87,11.09c-3.78,0-6.38-1.6-7.43-3.7h-.08v11.55h-2.94v-29.41Zm17.18,10.63c0-7.18-3.4-8.61-6.93-8.61-4.24,0-7.56,2.73-7.56,8.44,0,6.01,3.45,8.57,7.44,8.57,3.02,0,7.06-1.47,7.06-8.4Z"></path><path class="cls-5" d="m1707.02,2515.06v-1.18h2.94v1.13c0,2.86,2.14,4.5,5.96,4.5s5.8-1.01,5.8-3.78c0-2.06-1.01-2.81-3.86-3.32l-4.62-.84c-3.02-.55-5.54-2.02-5.54-5.5,0-3.15,2.35-6.13,8.4-6.13s8.4,3.02,8.4,7.23v.88h-2.98v-.76c0-3.44-2.14-4.91-5.42-4.91-3.95,0-5.33,1.34-5.33,3.36s1.01,2.86,3.91,3.4l4.03.76c4.12.76,6.09,1.93,6.09,5.59,0,4.58-4.12,6.55-8.78,6.55-7.31,0-8.99-3.28-8.99-6.97Z"></path><path class="cls-5" d="m892.78,783.28h-3.36v-5.08c0-3.95.88-5.29,3.4-5.97l.67,1.85c-1.76.67-2.06,1.09-2.06,3.78v.34h1.34v5.08Zm5.92,0h-3.36v-5.08c0-3.95.88-5.29,3.4-5.97l.67,1.85c-1.76.67-2.06,1.09-2.06,3.78v.34h1.34v5.08Z"></path><path class="cls-5" d="m908.82,779.54v5.04h5.92v2.44h-5.92v18.57h-2.94v-18.57h-4.16v-2.44h4.16v-5.42c0-5.29,3.15-6.89,6.38-6.89,1.85,0,2.98.29,3.74.55v2.6c-.71-.21-1.89-.46-3.49-.46-2.65,0-3.7,1.76-3.7,4.58Z"></path><path class="cls-5" d="m919.37,782.02c1.76-.67,2.06-1.09,2.06-3.78v-.34h-1.34v-5.08h3.36v5.08c0,3.95-.88,5.29-3.4,5.97l-.67-1.85Zm5.92,0c1.76-.67,2.06-1.09,2.06-3.78v-.34h-1.34v-5.08h3.36v5.08c0,3.95-.88,5.29-3.4,5.97l-.67-1.85Z"></path><path class="cls-5" d="m943.22,795.25c0-6.38,3.23-11.22,10-11.22s8.95,3.91,8.95,8.95v.42h-3.11v-.63c0-3.82-1.64-6.09-5.84-6.09-4.75,0-7.01,3.11-7.01,8.4,0,5.63,2.39,8.49,6.93,8.49,3.82,0,5.84-1.85,5.92-5.67h3.02c-.08,4.66-3.15,8.23-9.03,8.23-7.22,0-9.83-4.75-9.83-10.88Z"></path><path class="cls-5" d="m966.36,795.08c0-6.22,3.32-11.05,10.38-11.05,6.59,0,10.25,4.83,10.25,11.05s-3.7,11.05-10.29,11.05c-7.27,0-10.33-4.83-10.33-11.05Zm17.56,0c0-5.33-2.9-8.49-7.22-8.49-4.75,0-7.27,3.15-7.27,8.49s2.56,8.49,7.27,8.49c4.33,0,7.22-3.15,7.22-8.49Z"></path><path class="cls-5" d="m992.86,784.58h2.6l.29,3.49c1.01-2.14,3.28-4.03,7.35-4.03,4.75,0,7.77,2.52,7.77,7.94v13.61h-2.94v-13.27c0-4.33-2.14-5.71-5.5-5.71-3.82,0-6.64,2.69-6.64,5.63v13.36h-2.94v-21Z"></path><path class="cls-5" d="m1018.23,784.58h2.6l.29,3.49c1.01-2.14,3.28-4.03,7.35-4.03,4.75,0,7.77,2.52,7.77,7.94v13.61h-2.94v-13.27c0-4.33-2.14-5.71-5.5-5.71-3.82,0-6.64,2.69-6.64,5.63v13.36h-2.94v-21Z"></path><path class="cls-5" d="m1060.87,796.09h-15.96c.17,4.79,2.48,7.48,6.93,7.48,3.82,0,5.67-1.43,5.97-4.83h2.98c-.29,4.24-3.28,7.39-9.03,7.39-7.06,0-9.83-4.66-9.83-10.88s3.23-11.22,10-11.22,8.95,3.99,8.95,10.21v1.85Zm-3.11-2.98c0-4.45-1.72-6.55-5.92-6.55s-6.55,2.65-6.89,6.97h12.81v-.42Z"></path><path class="cls-5" d="m1065.06,795.25c0-6.38,3.23-11.22,10-11.22s8.95,3.91,8.95,8.95v.42h-3.11v-.63c0-3.82-1.64-6.09-5.84-6.09-4.75,0-7.01,3.11-7.01,8.4,0,5.63,2.39,8.49,6.93,8.49,3.82,0,5.84-1.85,5.92-5.67h3.02c-.08,4.66-3.15,8.23-9.03,8.23-7.22,0-9.83-4.75-9.83-10.88Z"></path><path class="cls-5" d="m1100.85,802.9v2.6c-.76.21-2.14.59-4.03.59-3.82,0-6.34-1.6-6.34-6.89v-12.18h-4.16v-2.44h4.16v-6.05l2.94-1.43v7.48h5.92v2.44h-5.92v11.8c0,2.81.76,4.58,3.4,4.58,1.6,0,3.23-.29,4.03-.5Z"></path><path class="cls-5" d="m1103.79,799.16v-1.18h2.94v1.13c0,2.86,2.14,4.5,5.96,4.5s5.8-1.01,5.8-3.78c0-2.06-1.01-2.81-3.86-3.32l-4.62-.84c-3.02-.55-5.54-2.02-5.54-5.5,0-3.15,2.35-6.13,8.4-6.13s8.4,3.02,8.4,7.23v.88h-2.98v-.76c0-3.44-2.14-4.91-5.42-4.91-3.95,0-5.33,1.34-5.33,3.36s1.01,2.86,3.91,3.4l4.03.76c4.12.76,6.09,1.93,6.09,5.59,0,4.58-4.12,6.55-8.78,6.55-7.31,0-8.99-3.28-8.99-6.97Z"></path><path class="cls-5" d="m1141.25,779.54v5.04h5.92v2.44h-5.92v18.57h-2.94v-18.57h-4.16v-2.44h4.16v-5.42c0-5.29,3.15-6.89,6.38-6.89,1.85,0,2.98.29,3.74.55v2.6c-.71-.21-1.89-.46-3.49-.46-2.65,0-3.7,1.76-3.7,4.58Z"></path><path class="cls-5" d="m1151.58,784.58h2.6l.29,3.91c1.01-2.14,3.07-4.45,6.76-4.45,1.26,0,2.18.21,3.02.55v3.15c-1.13-.5-2.1-.76-3.4-.76-3.74,0-6.34,2.81-6.34,5.75v12.85h-2.94v-21Z"></path><path class="cls-5" d="m1166.58,795.08c0-6.22,3.32-11.05,10.38-11.05,6.59,0,10.25,4.83,10.25,11.05s-3.7,11.05-10.29,11.05c-7.27,0-10.33-4.83-10.33-11.05Zm17.56,0c0-5.33-2.9-8.49-7.22-8.49-4.75,0-7.27,3.15-7.27,8.49s2.56,8.49,7.27,8.49c4.33,0,7.22-3.15,7.22-8.49Z"></path><path class="cls-5" d="m1223.79,791.98v13.61h-2.94v-13.27c0-4.33-2.14-5.71-4.75-5.71-3.82,0-6.17,2.69-6.17,5.63v13.36h-2.94v-13.27c0-4.33-1.85-5.71-4.83-5.71-3.61,0-6.13,2.69-6.13,5.63v13.36h-2.94v-21h2.6l.29,3.49c1.01-2.02,3.07-4.03,6.93-4.03,2.94,0,5.38,1.39,6.43,4.28,1.22-2.39,3.57-4.28,7.14-4.28,4.29,0,7.31,2.52,7.31,7.94Z"></path><path class="cls-5" d="m1251.75,802.9v2.6c-.76.21-2.14.59-4.03.59-3.82,0-6.34-1.6-6.34-6.89v-12.18h-4.16v-2.44h4.16v-6.05l2.94-1.43v7.48h5.92v2.44h-5.92v11.8c0,2.81.76,4.58,3.4,4.58,1.6,0,3.23-.29,4.03-.5Z"></path><path class="cls-5" d="m1256.58,772.82h2.94v15.16c1.05-2.1,3.28-3.95,7.31-3.95,4.75,0,7.77,2.52,7.77,7.94v13.61h-2.94v-13.27c0-4.33-2.14-5.71-5.5-5.71-3.82,0-6.64,2.69-6.64,5.63v13.36h-2.94v-32.77Z"></path><path class="cls-5" d="m1299.22,796.09h-15.96c.17,4.79,2.48,7.48,6.93,7.48,3.82,0,5.67-1.43,5.97-4.83h2.98c-.29,4.24-3.28,7.39-9.03,7.39-7.06,0-9.83-4.66-9.83-10.88s3.23-11.22,10-11.22,8.95,3.99,8.95,10.21v1.85Zm-3.11-2.98c0-4.45-1.72-6.55-5.92-6.55s-6.55,2.65-6.89,6.97h12.81v-.42Z"></path><path class="cls-5" d="m1317.57,802.1h-.08l-.76,3.49h-1.97v-32.77h2.94v15.25h.04c1.26-2.31,4.07-4.03,7.69-4.03,6.3,0,9.66,3.99,9.66,11.01s-4.29,11.09-9.87,11.09c-3.78,0-6.55-1.64-7.65-4.03Zm14.37-6.89c0-7.18-3.4-8.61-6.93-8.61-4.24,0-7.56,2.73-7.56,8.44,0,6.01,3.45,8.57,7.44,8.57,3.02,0,7.06-1.47,7.06-8.4Z"></path><path class="cls-5" d="m1339.49,799.79c0-3.95,2.23-6.09,7.86-6.09h6.34v-1.72c0-2.98-1.26-5.42-5.46-5.42-3.95,0-5.33,1.51-5.33,4.12v.88h-2.98v-.84c0-5,4.2-6.68,8.32-6.68,5.8,0,8.4,2.86,8.4,8.44v13.11h-2.06l-.55-2.98h-.08c-1.26,1.89-3.7,3.53-7.35,3.53-4.92,0-7.1-2.31-7.1-6.34Zm14.2-1.85v-1.76h-7.01c-2.65,0-4.03.92-4.03,3.61,0,2.35,1.26,3.86,4.5,3.86,4.16,0,6.55-2.14,6.55-5.71Z"></path><path class="cls-5" d="m1363.98,784.58h2.6l.29,3.91c1.01-2.14,3.07-4.45,6.76-4.45,1.26,0,2.18.21,3.02.55v3.15c-1.13-.5-2.1-.76-3.4-.76-3.74,0-6.34,2.81-6.34,5.75v12.85h-2.94v-21Z"></path><path class="cls-5" d="m1378.55,799.37h3.36v6.22c0,3.95-.88,5.29-3.4,5.96l-.67-1.85c1.76-.67,2.06-1.09,2.06-3.78v-.34h-1.34v-6.22Z"></path><path class="cls-5" d="m889.84,848.64c0-3.95,2.23-6.09,7.86-6.09h6.34v-1.72c0-2.98-1.26-5.42-5.46-5.42-3.95,0-5.33,1.51-5.33,4.12v.88h-2.98v-.84c0-5,4.2-6.68,8.32-6.68,5.8,0,8.4,2.86,8.4,8.44v13.11h-2.06l-.55-2.98h-.08c-1.26,1.89-3.7,3.53-7.35,3.53-4.92,0-7.1-2.31-7.1-6.34Zm14.2-1.85v-1.76h-7.01c-2.65,0-4.03.92-4.03,3.61,0,2.35,1.26,3.86,4.5,3.86,4.16,0,6.55-2.14,6.55-5.71Z"></path><path class="cls-5" d="m914.32,833.43h2.6l.29,3.49c1.01-2.14,3.28-4.03,7.35-4.03,4.75,0,7.77,2.52,7.77,7.94v13.61h-2.94v-13.27c0-4.33-2.14-5.71-5.5-5.71-3.82,0-6.64,2.69-6.64,5.63v13.36h-2.94v-21Z"></path><path class="cls-5" d="m938.01,843.97c0-7.1,4.28-11.09,10.04-11.09,3.7,0,6.22,1.6,7.31,3.74h.04v-14.95h2.94v32.77h-1.97l-.67-3.61h-.08c-1.18,2.31-3.95,4.16-7.77,4.16-6.3,0-9.83-3.99-9.83-11.01Zm17.64-.5c0-5.5-3.36-8.07-7.35-8.07-3.11,0-7.14,1.47-7.14,8.4s3.61,8.61,7.14,8.61c4.24,0,7.35-2.73,7.35-8.95Z"></path><path class="cls-5" d="m975.35,821.67h2.94v15.16c1.05-2.1,3.28-3.95,7.31-3.95,4.75,0,7.77,2.52,7.77,7.94v13.61h-2.94v-13.27c0-4.33-2.14-5.71-5.5-5.71-3.82,0-6.64,2.69-6.64,5.63v13.36h-2.94v-32.77Z"></path><path class="cls-5" d="m999.46,848.64c0-3.95,2.23-6.09,7.86-6.09h6.34v-1.72c0-2.98-1.26-5.42-5.46-5.42-3.95,0-5.33,1.51-5.33,4.12v.88h-2.98v-.84c0-5,4.2-6.68,8.32-6.68,5.8,0,8.4,2.86,8.4,8.44v13.11h-2.06l-.55-2.98h-.08c-1.26,1.89-3.7,3.53-7.35,3.53-4.92,0-7.1-2.31-7.1-6.34Zm14.2-1.85v-1.76h-7.01c-2.65,0-4.03.92-4.03,3.61,0,2.35,1.26,3.86,4.5,3.86,4.16,0,6.55-2.14,6.55-5.71Z"></path><path class="cls-5" d="m1022.05,848.01v-1.18h2.94v1.13c0,2.86,2.14,4.5,5.96,4.5s5.8-1.01,5.8-3.78c0-2.06-1.01-2.81-3.86-3.32l-4.62-.84c-3.02-.55-5.54-2.02-5.54-5.5,0-3.15,2.35-6.13,8.4-6.13s8.4,3.02,8.4,7.23v.88h-2.98v-.76c0-3.44-2.14-4.91-5.42-4.91-3.95,0-5.33,1.34-5.33,3.36s1.01,2.86,3.91,3.4l4.03.76c4.12.76,6.09,1.93,6.09,5.59,0,4.58-4.12,6.55-8.78,6.55-7.31,0-8.99-3.28-8.99-6.97Z"></path><path class="cls-5" d="m1055.36,833.43h2.6l.29,3.49c1.01-2.14,3.28-4.03,7.35-4.03,4.75,0,7.77,2.52,7.77,7.94v13.61h-2.94v-13.27c0-4.33-2.14-5.71-5.5-5.71-3.82,0-6.64,2.69-6.64,5.63v13.36h-2.94v-21Z"></path><path class="cls-5" d="m1079.05,843.93c0-6.22,3.32-11.05,10.38-11.05,6.59,0,10.25,4.83,10.25,11.05s-3.7,11.05-10.29,11.05c-7.27,0-10.33-4.83-10.33-11.05Zm17.56,0c0-5.33-2.9-8.49-7.22-8.49-4.75,0-7.27,3.15-7.27,8.49s2.56,8.49,7.27,8.49c4.33,0,7.22-3.15,7.22-8.49Z"></path><path class="cls-5" d="m1113.53,843.97c0-7.1,4.28-11.09,10.04-11.09,3.7,0,6.22,1.6,7.31,3.74h.04v-14.95h2.94v32.77h-1.97l-.67-3.61h-.08c-1.18,2.31-3.95,4.16-7.77,4.16-6.3,0-9.83-3.99-9.83-11.01Zm17.64-.5c0-5.5-3.36-8.07-7.35-8.07-3.11,0-7.14,1.47-7.14,8.4s3.61,8.61,7.14,8.61c4.24,0,7.35-2.73,7.35-8.95Z"></path><path class="cls-5" d="m1158.47,844.94h-15.96c.17,4.79,2.48,7.48,6.93,7.48,3.82,0,5.67-1.43,5.97-4.83h2.98c-.29,4.24-3.28,7.39-9.03,7.39-7.06,0-9.83-4.66-9.83-10.88s3.23-11.22,10-11.22,8.95,3.99,8.95,10.21v1.85Zm-3.11-2.98c0-4.45-1.72-6.55-5.92-6.55s-6.55,2.65-6.89,6.97h12.81v-.42Z"></path><path class="cls-5" d="m1162.46,848.01v-1.18h2.94v1.13c0,2.86,2.14,4.5,5.96,4.5s5.8-1.01,5.8-3.78c0-2.06-1.01-2.81-3.86-3.32l-4.62-.84c-3.02-.55-5.54-2.02-5.54-5.5,0-3.15,2.35-6.13,8.4-6.13s8.4,3.02,8.4,7.23v.88h-2.98v-.76c0-3.44-2.14-4.91-5.42-4.91-3.95,0-5.33,1.34-5.33,3.36s1.01,2.86,3.91,3.4l4.03.76c4.12.76,6.09,1.93,6.09,5.59,0,4.58-4.12,6.55-8.78,6.55-7.31,0-8.99-3.28-8.99-6.97Z"></path><path class="cls-5" d="m1184.43,844.1c0-6.38,3.23-11.22,10-11.22s8.95,3.91,8.95,8.95v.42h-3.11v-.63c0-3.82-1.64-6.09-5.84-6.09-4.75,0-7.02,3.11-7.02,8.4,0,5.63,2.39,8.49,6.93,8.49,3.82,0,5.84-1.85,5.92-5.67h3.02c-.08,4.66-3.15,8.23-9.03,8.23-7.22,0-9.83-4.75-9.83-10.88Z"></path><path class="cls-5" d="m1226.51,844.94h-15.96c.17,4.79,2.48,7.48,6.93,7.48,3.82,0,5.67-1.43,5.97-4.83h2.98c-.29,4.24-3.28,7.39-9.03,7.39-7.06,0-9.83-4.66-9.83-10.88s3.23-11.22,10-11.22,8.95,3.99,8.95,10.21v1.85Zm-3.11-2.98c0-4.45-1.72-6.55-5.92-6.55s-6.55,2.65-6.89,6.97h12.81v-.42Z"></path><path class="cls-5" d="m1232.39,833.43h2.6l.29,3.49c1.01-2.14,3.28-4.03,7.35-4.03,4.75,0,7.77,2.52,7.77,7.94v13.61h-2.94v-13.27c0-4.33-2.14-5.71-5.5-5.71-3.82,0-6.64,2.69-6.64,5.63v13.36h-2.94v-21Z"></path><path class="cls-5" d="m1256.08,843.97c0-7.1,4.28-11.09,10.04-11.09,3.7,0,6.22,1.6,7.31,3.74h.04v-14.95h2.94v32.77h-1.97l-.67-3.61h-.08c-1.18,2.31-3.95,4.16-7.77,4.16-6.3,0-9.83-3.99-9.83-11.01Zm17.64-.5c0-5.5-3.36-8.07-7.35-8.07-3.11,0-7.14,1.47-7.14,8.4s3.61,8.61,7.14,8.61c4.24,0,7.35-2.73,7.35-8.95Z"></path><path class="cls-5" d="m1301.02,844.94h-15.96c.17,4.79,2.48,7.48,6.93,7.48,3.82,0,5.67-1.43,5.97-4.83h2.98c-.29,4.24-3.28,7.39-9.03,7.39-7.06,0-9.83-4.66-9.83-10.88s3.23-11.22,10-11.22,8.95,3.99,8.95,10.21v1.85Zm-3.11-2.98c0-4.45-1.72-6.55-5.92-6.55s-6.55,2.65-6.89,6.97h12.81v-.42Z"></path><path class="cls-5" d="m1306.9,833.43h2.6l.29,3.91c1.01-2.14,3.07-4.45,6.76-4.45,1.26,0,2.18.21,3.02.55v3.15c-1.13-.5-2.1-.76-3.4-.76-3.74,0-6.34,2.81-6.34,5.75v12.85h-2.94v-21Z"></path><path class="cls-5" d="m1333.86,821.67h2.94v32.77h-2.94v-32.77Z"></path><path class="cls-5" d="m1342.47,843.93c0-6.22,3.32-11.05,10.38-11.05,6.59,0,10.25,4.83,10.25,11.05s-3.7,11.05-10.29,11.05c-7.27,0-10.33-4.83-10.33-11.05Zm17.56,0c0-5.33-2.9-8.49-7.22-8.49-4.75,0-7.27,3.15-7.27,8.49s2.56,8.49,7.27,8.49c4.33,0,7.22-3.15,7.22-8.49Z"></path><path class="cls-5" d="m1367.29,843.93c0-6.22,3.32-11.05,10.38-11.05,6.59,0,10.25,4.83,10.25,11.05s-3.7,11.05-10.29,11.05c-7.27,0-10.33-4.83-10.33-11.05Zm17.56,0c0-5.33-2.9-8.49-7.22-8.49-4.75,0-7.27,3.15-7.27,8.49s2.56,8.49,7.27,8.49c4.33,0,7.22-3.15,7.22-8.49Z"></path><path class="cls-5" d="m1393.8,833.43h2.39l.34,3.86h.08c1.13-2.48,4.03-4.41,7.86-4.41,6.3,0,9.66,3.99,9.66,11.01s-4.29,11.09-9.87,11.09c-3.78,0-6.38-1.6-7.43-3.7h-.08v11.55h-2.94v-29.41Zm17.18,10.63c0-7.18-3.4-8.61-6.93-8.61-4.24,0-7.56,2.73-7.56,8.44,0,6.01,3.45,8.57,7.44,8.57,3.02,0,7.06-1.47,7.06-8.4Z"></path><path class="cls-5" d="m1472.64,920.95c0-11.85,6.51-17.1,14.49-17.1,7.56,0,12.64,3.78,12.64,11.47v.5h-2.86v-.63c0-5.33-3.49-8.7-9.7-8.7-6.72,0-11.47,4.58-11.47,14.28s4.75,14.28,11.76,14.28c5.63,0,9.45-2.52,9.45-8.78v-2.73h-9.83v-2.6h12.64v16.21h-2.1l-.67-3.74c-1.6,2.48-5.17,4.28-9.75,4.28-8.32,0-14.62-4.87-14.62-16.76Z"></path><path class="cls-5" d="m1524.18,927.67h-15.96c.17,4.79,2.48,7.48,6.93,7.48,3.82,0,5.67-1.43,5.97-4.83h2.98c-.29,4.24-3.28,7.39-9.03,7.39-7.06,0-9.83-4.66-9.83-10.88s3.23-11.22,10-11.22,8.95,3.99,8.95,10.21v1.85Zm-3.11-2.98c0-4.45-1.72-6.55-5.92-6.55s-6.55,2.65-6.89,6.97h12.81v-.42Z"></path><path class="cls-5" d="m1530.05,916.16h2.6l.29,3.91c1.01-2.14,3.07-4.45,6.76-4.45,1.26,0,2.18.21,3.02.55v3.15c-1.13-.5-2.1-.76-3.4-.76-3.74,0-6.34,2.81-6.34,5.75v12.85h-2.94v-21Z"></path><path class="cls-5" d="m1578.07,923.55v13.61h-2.94v-13.27c0-4.33-2.14-5.71-4.75-5.71-3.82,0-6.17,2.69-6.17,5.63v13.36h-2.94v-13.27c0-4.33-1.85-5.71-4.83-5.71-3.61,0-6.13,2.69-6.13,5.63v13.36h-2.94v-21h2.6l.29,3.49c1.01-2.02,3.07-4.03,6.93-4.03,2.94,0,5.38,1.39,6.43,4.28,1.22-2.39,3.57-4.28,7.14-4.28,4.29,0,7.31,2.52,7.31,7.94Z"></path><path class="cls-5" d="m1584.15,931.36c0-3.95,2.23-6.09,7.86-6.09h6.34v-1.72c0-2.98-1.26-5.42-5.46-5.42-3.95,0-5.33,1.51-5.33,4.12v.88h-2.98v-.84c0-5,4.2-6.68,8.32-6.68,5.8,0,8.4,2.86,8.4,8.44v13.11h-2.06l-.55-2.98h-.08c-1.26,1.89-3.7,3.53-7.35,3.53-4.92,0-7.1-2.31-7.1-6.34Zm14.2-1.85v-1.76h-7.01c-2.65,0-4.03.92-4.03,3.61,0,2.35,1.26,3.86,4.5,3.86,4.16,0,6.55-2.14,6.55-5.71Z"></path><path class="cls-5" d="m1608.64,916.16h2.6l.29,3.49c1.01-2.14,3.28-4.03,7.35-4.03,4.75,0,7.77,2.52,7.77,7.94v13.61h-2.94v-13.27c0-4.33-2.14-5.71-5.5-5.71-3.82,0-6.64,2.69-6.64,5.63v13.36h-2.94v-21Z"></path><path class="cls-5" d="m1641.77,930.73v-1.18h2.94v1.13c0,2.86,2.14,4.5,5.96,4.5s5.8-1.01,5.8-3.78c0-2.06-1.01-2.81-3.86-3.32l-4.62-.84c-3.02-.55-5.54-2.02-5.54-5.5,0-3.15,2.35-6.13,8.4-6.13s8.4,3.02,8.4,7.23v.88h-2.98v-.76c0-3.44-2.14-4.91-5.42-4.91-3.95,0-5.33,1.34-5.33,3.36s1.01,2.86,3.91,3.4l4.03.76c4.12.76,6.09,1.93,6.09,5.59,0,4.58-4.12,6.55-8.78,6.55-7.31,0-8.99-3.28-8.99-6.97Z"></path><path class="cls-5" d="m1676.38,934.47v2.6c-.76.21-2.14.59-4.03.59-3.82,0-6.34-1.6-6.34-6.89v-12.18h-4.16v-2.44h4.16v-6.05l2.94-1.43v7.48h5.92v2.44h-5.92v11.8c0,2.81.76,4.58,3.4,4.58,1.6,0,3.23-.29,4.03-.5Z"></path><path class="cls-5" d="m1681.42,916.16l6.89,17.98h.08l7.14-17.98h3.07v.04l-8.86,20.84-3.11,8.53h-2.98v-.04l3.19-8.36-8.78-20.96v-.04h3.36Z"></path><path class="cls-5" d="m1702.8,904.4h2.94v32.77h-2.94v-32.77Z"></path><path class="cls-5" d="m1730.36,927.67h-15.96c.17,4.79,2.48,7.48,6.93,7.48,3.82,0,5.67-1.43,5.97-4.83h2.98c-.29,4.24-3.28,7.39-9.03,7.39-7.06,0-9.83-4.66-9.83-10.88s3.23-11.22,10-11.22,8.95,3.99,8.95,10.21v1.85Zm-3.11-2.98c0-4.45-1.72-6.55-5.92-6.55s-6.55,2.65-6.89,6.97h12.81v-.42Z"></path><path class="cls-5" d="m1747.57,914.86h-3.36v-5.08c0-3.95.88-5.29,3.4-5.97l.67,1.85c-1.76.67-2.06,1.09-2.06,3.78v.34h1.34v5.08Zm5.92,0h-3.36v-5.08c0-3.95.88-5.29,3.4-5.97l.67,1.85c-1.76.67-2.06,1.09-2.06,3.78v.34h1.34v5.08Z"></path><path class="cls-5" d="m1770.84,934.47v2.6c-.76.21-2.14.59-4.03.59-3.82,0-6.34-1.6-6.34-6.89v-12.18h-4.16v-2.44h4.16v-6.05l2.94-1.43v7.48h5.92v2.44h-5.92v11.8c0,2.81.76,4.58,3.4,4.58,1.6,0,3.23-.29,4.03-.5Z"></path><path class="cls-5" d="m1772.73,913.6c1.76-.67,2.06-1.09,2.06-3.78v-.34h-1.34v-5.08h3.36v5.08c0,3.95-.88,5.29-3.4,5.97l-.67-1.85Zm5.92,0c1.76-.67,2.06-1.09,2.06-3.78v-.34h-1.34v-5.08h3.36v5.08c0,3.95-.88,5.29-3.4,5.97l-.67-1.85Z"></path><path class="cls-5" d="m556.06,1643.54c0-12.01,6.76-17.27,14.74-17.27,6.97,0,12.39,3.74,12.39,12.01v.8h-2.86v-.92c0-5.92-3.78-9.24-9.45-9.24-6.72,0-11.76,4.58-11.76,14.32s5.04,14.24,11.72,14.24c5.38,0,9.54-2.86,9.54-9.2v-.59h2.77v.42c0,8.02-5.33,12.01-12.56,12.01-7.98,0-14.53-4.87-14.53-16.59Z"></path><path class="cls-5" d="m589.49,1626.82h2.94v32.77h-2.94v-32.77Z"></path><path class="cls-5" d="m598.1,1649.08c0-6.22,3.32-11.05,10.38-11.05,6.59,0,10.25,4.83,10.25,11.05s-3.7,11.05-10.29,11.05c-7.27,0-10.33-4.83-10.33-11.05Zm17.56,0c0-5.33-2.9-8.49-7.22-8.49-4.75,0-7.27,3.15-7.27,8.49s2.56,8.49,7.27,8.49c4.33,0,7.22-3.15,7.22-8.49Z"></path><path class="cls-5" d="m622.71,1653.16v-1.18h2.94v1.13c0,2.86,2.14,4.5,5.96,4.5s5.8-1.01,5.8-3.78c0-2.06-1.01-2.81-3.86-3.32l-4.62-.84c-3.02-.55-5.54-2.02-5.54-5.5,0-3.15,2.35-6.13,8.4-6.13s8.4,3.02,8.4,7.23v.88h-2.98v-.76c0-3.44-2.14-4.91-5.42-4.91-3.95,0-5.33,1.34-5.33,3.36s1.01,2.86,3.91,3.4l4.03.76c4.12.76,6.09,1.93,6.09,5.59,0,4.58-4.12,6.55-8.78,6.55-7.31,0-8.99-3.28-8.99-6.97Z"></path><path class="cls-5" d="m663.62,1650.09h-15.96c.17,4.79,2.48,7.48,6.93,7.48,3.82,0,5.67-1.43,5.97-4.83h2.98c-.29,4.24-3.28,7.39-9.03,7.39-7.06,0-9.83-4.66-9.83-10.88s3.23-11.22,10-11.22,8.95,3.99,8.95,10.21v1.85Zm-3.11-2.98c0-4.45-1.72-6.55-5.92-6.55s-6.55,2.65-6.89,6.97h12.81v-.42Z"></path><path class="cls-5" d="m667.82,1649.12c0-7.1,4.28-11.09,10.04-11.09,3.7,0,6.22,1.6,7.31,3.74h.04v-14.95h2.94v32.77h-1.97l-.67-3.61h-.08c-1.18,2.31-3.95,4.16-7.77,4.16-6.3,0-9.83-3.99-9.83-11.01Zm17.64-.5c0-5.5-3.36-8.07-7.35-8.07-3.11,0-7.14,1.47-7.14,8.4s3.61,8.61,7.14,8.61c4.24,0,7.35-2.73,7.35-8.95Z"></path><path class="cls-5" d="m705.16,1626.82h2.94v23.23l12.14-11.47h3.65v.04l-8.4,7.86,8.78,13.06v.04h-3.36l-7.39-11.22-5.42,5.04v6.18h-2.94v-32.77Z"></path><path class="cls-5" d="m729.31,1638.58h2.6l.29,3.49c1.01-2.14,3.28-4.03,7.35-4.03,4.75,0,7.77,2.52,7.77,7.94v13.61h-2.94v-13.27c0-4.33-2.14-5.71-5.5-5.71-3.82,0-6.64,2.69-6.64,5.63v13.36h-2.94v-21Z"></path><path class="cls-5" d="m753,1649.08c0-6.22,3.32-11.05,10.38-11.05,6.59,0,10.25,4.83,10.25,11.05s-3.7,11.05-10.29,11.05c-7.27,0-10.33-4.83-10.33-11.05Zm17.56,0c0-5.33-2.9-8.49-7.22-8.49-4.75,0-7.27,3.15-7.27,8.49s2.56,8.49,7.27,8.49c4.33,0,7.22-3.15,7.22-8.49Z"></path><path class="cls-5" d="m790.46,1656.89v2.6c-.76.21-2.14.59-4.03.59-3.82,0-6.34-1.6-6.34-6.89v-12.18h-4.16v-2.44h4.16v-6.05l2.94-1.43v7.48h5.92v2.44h-5.92v11.8c0,2.81.76,4.58,3.4,4.58,1.6,0,3.23-.29,4.03-.5Z"></path><path class="cls-5" d="m793.4,1653.16v-1.18h2.94v1.13c0,2.86,2.14,4.5,5.96,4.5s5.8-1.01,5.8-3.78c0-2.06-1.01-2.81-3.86-3.32l-4.62-.84c-3.02-.55-5.54-2.02-5.54-5.5,0-3.15,2.35-6.13,8.4-6.13s8.4,3.02,8.4,7.23v.88h-2.98v-.76c0-3.44-2.14-4.91-5.42-4.91-3.95,0-5.33,1.34-5.33,3.36s1.01,2.86,3.91,3.4l4.03.76c4.12.76,6.09,1.93,6.09,5.59,0,4.58-4.12,6.55-8.78,6.55-7.31,0-8.99-3.28-8.99-6.97Z"></path><path class="cls-5" d="m826.7,1626.82h2.98v6.51h-2.98v-6.51Zm0,11.76h2.94v21h-2.94v-21Z"></path><path class="cls-5" d="m837.04,1638.58h2.6l.29,3.49c1.01-2.14,3.28-4.03,7.35-4.03,4.75,0,7.77,2.52,7.77,7.94v13.61h-2.94v-13.27c0-4.33-2.14-5.71-5.5-5.71-3.82,0-6.64,2.69-6.64,5.63v13.36h-2.94v-21Z"></path><path class="cls-5" d="m873.75,1637.28h-3.36v-5.08c0-3.95.88-5.29,3.4-5.97l.67,1.85c-1.76.67-2.06,1.09-2.06,3.78v.34h1.34v5.08Zm5.92,0h-3.36v-5.08c0-3.95.88-5.29,3.4-5.97l.67,1.85c-1.76.67-2.06,1.09-2.06,3.78v.34h1.34v5.08Z"></path><path class="cls-5" d="m882.9,1638.62v-.04h3.36l7.35,17.98h.08l7.1-17.98h3.07v.04l-8.74,20.96h-3.02l-9.2-20.96Z"></path><path class="cls-5" d="m906.38,1636.02c1.76-.67,2.06-1.09,2.06-3.78v-.34h-1.34v-5.08h3.36v5.08c0,3.95-.88,5.29-3.4,5.97l-.67-1.85Zm5.92,0c1.76-.67,2.06-1.09,2.06-3.78v-.34h-1.34v-5.08h3.36v5.08c0,3.95-.88,5.29-3.4,5.97l-.67-1.85Z"></path><path class="cls-5" d="m919.31,1653.37h3.36v6.22c0,3.95-.88,5.29-3.4,5.96l-.67-1.85c1.76-.67,2.06-1.09,2.06-3.78v-.34h-1.34v-6.22Z"></path><path class="cls-5" d="m940.32,1637.28h-3.36v-5.08c0-3.95.88-5.29,3.4-5.97l.67,1.85c-1.76.67-2.06,1.09-2.06,3.78v.34h1.34v5.08Zm5.92,0h-3.36v-5.08c0-3.95.88-5.29,3.4-5.97l.67,1.85c-1.76.67-2.06,1.09-2.06,3.78v.34h1.34v5.08Z"></path><path class="cls-5" d="m949.89,1638.62v-.04h2.98l5.75,17.48h.08l6.3-17.48h2.69l6.17,17.48h.08l5.75-17.48h2.86v.04l-7.18,20.96h-3.02l-5.96-17.06h-.08l-6.22,17.06h-3.02l-7.18-20.96Z"></path><path class="cls-5" d="m985.51,1636.02c1.76-.67,2.06-1.09,2.06-3.78v-.34h-1.34v-5.08h3.36v5.08c0,3.95-.88,5.29-3.4,5.97l-.67-1.85Zm5.92,0c1.76-.67,2.06-1.09,2.06-3.78v-.34h-1.34v-5.08h3.36v5.08c0,3.95-.88,5.29-3.4,5.97l-.67-1.85Z"></path><path class="cls-5" d="m1009.78,1653.79c0-3.95,2.23-6.09,7.86-6.09h6.34v-1.72c0-2.98-1.26-5.42-5.46-5.42-3.95,0-5.33,1.51-5.33,4.12v.88h-2.98v-.84c0-5,4.2-6.68,8.32-6.68,5.8,0,8.4,2.86,8.4,8.44v13.11h-2.06l-.55-2.98h-.08c-1.26,1.89-3.7,3.53-7.35,3.53-4.92,0-7.1-2.31-7.1-6.34Zm14.2-1.85v-1.76h-7.01c-2.65,0-4.03.92-4.03,3.61,0,2.35,1.26,3.86,4.5,3.86,4.16,0,6.55-2.14,6.55-5.71Z"></path><path class="cls-5" d="m1034.27,1638.58h2.6l.29,3.49c1.01-2.14,3.28-4.03,7.35-4.03,4.75,0,7.77,2.52,7.77,7.94v13.61h-2.94v-13.27c0-4.33-2.14-5.71-5.5-5.71-3.82,0-6.64,2.69-6.64,5.63v13.36h-2.94v-21Z"></path><path class="cls-5" d="m1057.96,1649.12c0-7.1,4.28-11.09,10.04-11.09,3.7,0,6.22,1.6,7.31,3.74h.04v-14.95h2.94v32.77h-1.97l-.67-3.61h-.08c-1.18,2.31-3.95,4.16-7.77,4.16-6.3,0-9.83-3.99-9.83-11.01Zm17.64-.5c0-5.5-3.36-8.07-7.35-8.07-3.11,0-7.14,1.47-7.14,8.4s3.61,8.61,7.14,8.61c4.24,0,7.35-2.73,7.35-8.95Z"></path><path class="cls-5" d="m1096.97,1637.28h-3.36v-5.08c0-3.95.88-5.29,3.4-5.97l.67,1.85c-1.76.67-2.06,1.09-2.06,3.78v.34h1.34v5.08Zm5.92,0h-3.36v-5.08c0-3.95.88-5.29,3.4-5.97l.67,1.85c-1.76.67-2.06,1.09-2.06,3.78v.34h1.34v5.08Z"></path><path class="cls-5" d="m1125.5,1638.62l-8.07,10.5,8.02,10.42v.04h-3.44l-6.34-8.44-6.43,8.44h-3.28v-.04l8.02-10.38-8.07-10.54v-.04h3.44l6.39,8.49,6.43-8.44v-.04h3.32v.04Z"></path><path class="cls-5" d="m1128.14,1636.02c1.76-.67,2.06-1.09,2.06-3.78v-.34h-1.34v-5.08h3.36v5.08c0,3.95-.88,5.29-3.4,5.97l-.67-1.85Zm5.92,0c1.76-.67,2.06-1.09,2.06-3.78v-.34h-1.34v-5.08h3.36v5.08c0,3.95-.88,5.29-3.4,5.97l-.67-1.85Z"></path><rect class="cls-7" x="981.6" y="1151.09" width="96.97" height="96.97" rx="48.48" ry="48.48"></rect><path class="cls-5" d="m1484.41,1643.2c0-11.72,6.76-16.93,15.46-16.93,7.94,0,14.7,5.21,14.7,16.59,0,12.48-6.76,17.26-15.08,17.26s-15.08-4.79-15.08-16.93Zm27.05,0c0-10.12-5.33-14.24-12.01-14.24s-11.93,4.12-11.93,14.24,5.33,14.2,12.01,14.2,11.93-3.74,11.93-14.2Z"></path><path class="cls-5" d="m1520.86,1638.58h2.39l.34,3.86h.08c1.13-2.48,4.03-4.41,7.86-4.41,6.3,0,9.66,3.99,9.66,11.01s-4.29,11.09-9.87,11.09c-3.78,0-6.38-1.6-7.43-3.7h-.08v11.55h-2.94v-29.41Zm17.18,10.63c0-7.18-3.4-8.61-6.93-8.61-4.24,0-7.56,2.73-7.56,8.44,0,6.01,3.45,8.57,7.44,8.57,3.03,0,7.06-1.47,7.06-8.4Z"></path><path class="cls-5" d="m1564.34,1650.09h-15.96c.17,4.79,2.48,7.48,6.93,7.48,3.82,0,5.67-1.43,5.96-4.83h2.98c-.29,4.24-3.28,7.39-9.03,7.39-7.06,0-9.83-4.66-9.83-10.88s3.23-11.22,10-11.22,8.95,3.99,8.95,10.21v1.85Zm-3.11-2.98c0-4.45-1.72-6.55-5.92-6.55s-6.55,2.65-6.89,6.97h12.81v-.42Z"></path><path class="cls-5" d="m1570.21,1638.58h2.6l.29,3.49c1.01-2.14,3.28-4.03,7.35-4.03,4.75,0,7.77,2.52,7.77,7.94v13.61h-2.94v-13.27c0-4.33-2.14-5.71-5.5-5.71-3.82,0-6.64,2.69-6.64,5.63v13.36h-2.94v-21Z"></path><path class="cls-5" d="m1603.35,1653.16v-1.18h2.94v1.13c0,2.86,2.14,4.5,5.96,4.5s5.8-1.01,5.8-3.78c0-2.06-1.01-2.81-3.86-3.32l-4.62-.84c-3.03-.55-5.54-2.02-5.54-5.5,0-3.15,2.35-6.13,8.4-6.13s8.4,3.02,8.4,7.23v.88h-2.98v-.76c0-3.44-2.14-4.91-5.42-4.91-3.95,0-5.33,1.34-5.33,3.36s1.01,2.86,3.91,3.4l4.03.76c4.12.76,6.09,1.93,6.09,5.59,0,4.58-4.12,6.55-8.78,6.55-7.31,0-8.99-3.28-8.99-6.97Z"></path><path class="cls-5" d="m1627,1626.82h2.94v15.16c1.05-2.1,3.28-3.95,7.31-3.95,4.75,0,7.77,2.52,7.77,7.94v13.61h-2.94v-13.27c0-4.33-2.14-5.71-5.5-5.71-3.82,0-6.64,2.69-6.64,5.63v13.36h-2.94v-32.77Z"></path><path class="cls-5" d="m1651.11,1653.79c0-3.95,2.23-6.09,7.86-6.09h6.34v-1.72c0-2.98-1.26-5.42-5.46-5.42-3.95,0-5.33,1.51-5.33,4.12v.88h-2.98v-.84c0-5,4.2-6.68,8.32-6.68,5.8,0,8.4,2.86,8.4,8.44v13.11h-2.06l-.55-2.98h-.08c-1.26,1.89-3.7,3.53-7.35,3.53-4.92,0-7.1-2.31-7.1-6.34Zm14.2-1.85v-1.76h-7.01c-2.65,0-4.03.92-4.03,3.61,0,2.35,1.26,3.86,4.49,3.86,4.16,0,6.55-2.14,6.55-5.71Z"></path><path class="cls-5" d="m1675.59,1638.58h2.39l.34,3.86h.08c1.13-2.48,4.03-4.41,7.86-4.41,6.3,0,9.66,3.99,9.66,11.01s-4.29,11.09-9.87,11.09c-3.78,0-6.38-1.6-7.44-3.7h-.08v11.55h-2.94v-29.41Zm17.18,10.63c0-7.18-3.4-8.61-6.93-8.61-4.24,0-7.56,2.73-7.56,8.44,0,6.01,3.45,8.57,7.44,8.57,3.02,0,7.06-1.47,7.06-8.4Z"></path><path class="cls-5" d="m1719.07,1650.09h-15.96c.17,4.79,2.48,7.48,6.93,7.48,3.82,0,5.67-1.43,5.97-4.83h2.98c-.29,4.24-3.28,7.39-9.03,7.39-7.06,0-9.83-4.66-9.83-10.88s3.23-11.22,10-11.22,8.95,3.99,8.95,10.21v1.85Zm-3.11-2.98c0-4.45-1.72-6.55-5.92-6.55s-6.55,2.65-6.89,6.97h12.81v-.42Z"></path><path class="cls-5" d="m1732.92,1649.08c0-6.22,3.32-11.05,10.38-11.05,6.59,0,10.25,4.83,10.25,11.05s-3.7,11.05-10.29,11.05c-7.27,0-10.33-4.83-10.33-11.05Zm17.56,0c0-5.33-2.9-8.49-7.22-8.49-4.75,0-7.27,3.15-7.27,8.49s2.56,8.49,7.27,8.49c4.33,0,7.22-3.15,7.22-8.49Z"></path><path class="cls-5" d="m1763.58,1633.54v5.04h5.92v2.44h-5.92v18.57h-2.94v-18.57h-4.16v-2.44h4.16v-5.42c0-5.29,3.15-6.89,6.38-6.89,1.85,0,2.98.29,3.74.55v2.6c-.71-.21-1.89-.46-3.49-.46-2.65,0-3.7,1.76-3.7,4.58Z"></path><path class="cls-5" d="m1785.46,1637.28h-3.36v-5.08c0-3.95.88-5.29,3.4-5.97l.67,1.85c-1.76.67-2.06,1.09-2.06,3.78v.34h1.34v5.08Zm5.92,0h-3.36v-5.08c0-3.95.88-5.29,3.4-5.97l.67,1.85c-1.77.67-2.06,1.09-2.06,3.78v.34h1.34v5.08Z"></path><path class="cls-5" d="m1793.36,1653.16v-1.18h2.94v1.13c0,2.86,2.14,4.5,5.96,4.5s5.8-1.01,5.8-3.78c0-2.06-1.01-2.81-3.86-3.32l-4.62-.84c-3.03-.55-5.54-2.02-5.54-5.5,0-3.15,2.35-6.13,8.4-6.13s8.4,3.02,8.4,7.23v.88h-2.98v-.76c0-3.44-2.14-4.91-5.42-4.91-3.95,0-5.33,1.34-5.33,3.36s1.01,2.86,3.91,3.4l4.03.76c4.12.76,6.09,1.93,6.09,5.59,0,4.58-4.12,6.55-8.78,6.55-7.31,0-8.99-3.28-8.99-6.97Z"></path><path class="cls-5" d="m1813.44,1636.02c1.76-.67,2.06-1.09,2.06-3.78v-.34h-1.34v-5.08h3.36v5.08c0,3.95-.88,5.29-3.4,5.97l-.67-1.85Zm5.92,0c1.77-.67,2.06-1.09,2.06-3.78v-.34h-1.34v-5.08h3.36v5.08c0,3.95-.88,5.29-3.4,5.97l-.67-1.85Z"></path><path class="cls-5" d="m392.23,3282.07h-3.36v-5.08c0-3.95.88-5.29,3.4-5.97l.67,1.85c-1.76.67-2.06,1.09-2.06,3.78v.34h1.34v5.08Zm5.92,0h-3.36v-5.08c0-3.95.88-5.29,3.4-5.97l.67,1.85c-1.76.67-2.06,1.09-2.06,3.78v.34h1.34v5.08Z"></path><path class="cls-5" d="m420.29,3294.04h-13.99l-3.74,10.33h-3.07l12.18-32.77h3.32l12.1,32.77h-3.07l-3.74-10.33Zm-.92-2.6l-6.05-16.8h-.04l-6.05,16.8h12.14Z"></path><path class="cls-5" d="m427.72,3280.81c1.76-.67,2.06-1.09,2.06-3.78v-.34h-1.34v-5.08h3.36v5.08c0,3.95-.88,5.29-3.4,5.97l-.67-1.85Zm5.92,0c1.76-.67,2.06-1.09,2.06-3.78v-.34h-1.34v-5.08h3.36v5.08c0,3.95-.88,5.29-3.4,5.97l-.67-1.85Z"></path><path class="cls-5" d="m456.2,3307.4c0,3.53-1.68,5.84-5.04,5.84-1.18,0-2.02-.13-2.94-.38v-2.6c.8.17,1.47.29,2.27.29,1.93,0,2.77-1.26,2.77-3.65v-23.52h2.94v24.03Zm-2.94-35.79h2.98v6.51h-2.98v-6.51Z"></path><path class="cls-5" d="m461.91,3293.87c0-6.22,3.32-11.05,10.38-11.05,6.59,0,10.25,4.83,10.25,11.05s-3.7,11.05-10.29,11.05c-7.27,0-10.33-4.83-10.33-11.05Zm17.56,0c0-5.33-2.9-8.49-7.22-8.49-4.75,0-7.27,3.15-7.27,8.49s2.56,8.49,7.27,8.49c4.33,0,7.22-3.15,7.22-8.49Z"></path><path class="cls-5" d="m488.41,3271.61h2.98v6.51h-2.98v-6.51Zm0,11.76h2.94v21h-2.94v-21Z"></path><path class="cls-5" d="m498.74,3283.37h2.6l.29,3.49c1.01-2.14,3.28-4.03,7.35-4.03,4.75,0,7.77,2.52,7.77,7.94v13.61h-2.94v-13.27c0-4.33-2.14-5.71-5.5-5.71-3.82,0-6.64,2.69-6.64,5.63v13.36h-2.94v-21Z"></path><path class="cls-5" d="m522.22,3297.95v-1.18h2.94v1.13c0,2.86,2.14,4.5,5.96,4.5s5.8-1.01,5.8-3.78c0-2.06-1.01-2.81-3.86-3.32l-4.62-.84c-3.02-.55-5.54-2.02-5.54-5.5,0-3.15,2.35-6.13,8.4-6.13s8.4,3.02,8.4,7.23v.88h-2.98v-.76c0-3.44-2.14-4.91-5.42-4.91-3.95,0-5.33,1.34-5.33,3.36s1.01,2.86,3.91,3.4l4.03.76c4.12.76,6.09,1.93,6.09,5.59,0,4.58-4.12,6.55-8.78,6.55-7.31,0-8.99-3.28-8.99-6.97Z"></path><path class="cls-5" d="m555.53,3271.61h2.94v32.77h-2.94v-32.77Z"></path><path class="cls-5" d="m564.14,3293.87c0-6.22,3.32-11.05,10.38-11.05,6.59,0,10.25,4.83,10.25,11.05s-3.7,11.05-10.29,11.05c-7.27,0-10.33-4.83-10.33-11.05Zm17.56,0c0-5.33-2.9-8.49-7.22-8.49-4.75,0-7.27,3.15-7.27,8.49s2.56,8.49,7.27,8.49c4.33,0,7.22-3.15,7.22-8.49Z"></path><path class="cls-5" d="m587.07,3283.41v-.04h2.98l5.75,17.48h.08l6.3-17.48h2.69l6.17,17.48h.08l5.75-17.48h2.86v.04l-7.18,20.96h-3.02l-5.96-17.06h-.08l-6.22,17.06h-3.02l-7.18-20.96Z"></path><path class="cls-5" d="m641,3294.88h-15.96c.17,4.79,2.48,7.48,6.93,7.48,3.82,0,5.67-1.43,5.97-4.83h2.98c-.29,4.24-3.28,7.39-9.03,7.39-7.06,0-9.83-4.66-9.83-10.88s3.23-11.22,10-11.22,8.95,3.99,8.95,10.21v1.85Zm-3.11-2.98c0-4.45-1.72-6.55-5.92-6.55s-6.55,2.65-6.89,6.97h12.81v-.42Z"></path><path class="cls-5" d="m646.88,3283.37h2.6l.29,3.91c1.01-2.14,3.07-4.45,6.76-4.45,1.26,0,2.18.21,3.02.55v3.15c-1.13-.5-2.1-.76-3.4-.76-3.74,0-6.34,2.81-6.34,5.75v12.85h-2.94v-21Z"></path><path class="cls-5" d="m661.87,3294.04c0-6.38,3.23-11.22,10-11.22s8.95,3.91,8.95,8.95v.42h-3.11v-.63c0-3.82-1.64-6.09-5.84-6.09-4.75,0-7.01,3.11-7.01,8.4,0,5.63,2.39,8.49,6.93,8.49,3.82,0,5.84-1.85,5.92-5.67h3.02c-.08,4.66-3.15,8.23-9.03,8.23-7.22,0-9.83-4.75-9.83-10.88Z"></path><path class="cls-5" d="m685.22,3298.58c0-3.95,2.23-6.09,7.86-6.09h6.34v-1.72c0-2.98-1.26-5.42-5.46-5.42-3.95,0-5.33,1.51-5.33,4.12v.88h-2.98v-.84c0-5,4.2-6.68,8.32-6.68,5.8,0,8.4,2.86,8.4,8.44v13.11h-2.06l-.55-2.98h-.08c-1.26,1.89-3.7,3.53-7.35,3.53-4.92,0-7.1-2.31-7.1-6.34Zm14.2-1.85v-1.76h-7.01c-2.65,0-4.03.92-4.03,3.61,0,2.35,1.26,3.86,4.5,3.86,4.16,0,6.55-2.14,6.55-5.71Z"></path><path class="cls-5" d="m707.82,3297.95v-1.18h2.94v1.13c0,2.86,2.14,4.5,5.96,4.5s5.8-1.01,5.8-3.78c0-2.06-1.01-2.81-3.86-3.32l-4.62-.84c-3.02-.55-5.54-2.02-5.54-5.5,0-3.15,2.35-6.13,8.4-6.13s8.4,3.02,8.4,7.23v.88h-2.98v-.76c0-3.44-2.14-4.91-5.42-4.91-3.95,0-5.33,1.34-5.33,3.36s1.01,2.86,3.91,3.4l4.03.76c4.12.76,6.09,1.93,6.09,5.59,0,4.58-4.12,6.55-8.78,6.55-7.31,0-8.99-3.28-8.99-6.97Z"></path><path class="cls-5" d="m748.73,3294.88h-15.96c.17,4.79,2.48,7.48,6.93,7.48,3.82,0,5.67-1.43,5.97-4.83h2.98c-.29,4.24-3.28,7.39-9.03,7.39-7.06,0-9.83-4.66-9.83-10.88s3.23-11.22,10-11.22,8.95,3.99,8.95,10.21v1.85Zm-3.11-2.98c0-4.45-1.72-6.55-5.92-6.55s-6.55,2.65-6.89,6.97h12.81v-.42Z"></path><path class="cls-5" d="m768.43,3278.33v5.04h5.92v2.44h-5.92v18.57h-2.94v-18.57h-4.16v-2.44h4.16v-5.42c0-5.29,3.15-6.89,6.38-6.89,1.85,0,2.98.29,3.74.55v2.6c-.71-.21-1.89-.46-3.49-.46-2.65,0-3.7,1.76-3.7,4.58Z"></path><path class="cls-5" d="m778.76,3283.37h2.6l.29,3.91c1.01-2.14,3.07-4.45,6.76-4.45,1.26,0,2.18.21,3.02.55v3.15c-1.13-.5-2.1-.76-3.4-.76-3.74,0-6.34,2.81-6.34,5.75v12.85h-2.94v-21Z"></path><path class="cls-5" d="m793.75,3293.87c0-6.22,3.32-11.05,10.38-11.05,6.59,0,10.25,4.83,10.25,11.05s-3.7,11.05-10.29,11.05c-7.27,0-10.33-4.83-10.33-11.05Zm17.56,0c0-5.33-2.9-8.49-7.22-8.49-4.75,0-7.27,3.15-7.27,8.49s2.56,8.49,7.27,8.49c4.33,0,7.22-3.15,7.22-8.49Z"></path><path class="cls-5" d="m850.96,3290.76v13.61h-2.94v-13.27c0-4.33-2.14-5.71-4.75-5.71-3.82,0-6.17,2.69-6.17,5.63v13.36h-2.94v-13.27c0-4.33-1.85-5.71-4.83-5.71-3.61,0-6.13,2.69-6.13,5.63v13.36h-2.94v-21h2.6l.29,3.49c1.01-2.02,3.07-4.03,6.93-4.03,2.94,0,5.38,1.39,6.43,4.28,1.22-2.39,3.57-4.28,7.14-4.28,4.29,0,7.31,2.52,7.31,7.94Z"></path><path class="cls-5" d="m867.96,3271.61h2.98v6.51h-2.98v-6.51Zm0,11.76h2.94v21h-2.94v-21Z"></path><path class="cls-5" d="m889.26,3301.68v2.6c-.76.21-2.14.59-4.03.59-3.82,0-6.34-1.6-6.34-6.89v-12.18h-4.16v-2.44h4.16v-6.05l2.94-1.43v7.48h5.92v2.44h-5.92v11.8c0,2.81.76,4.58,3.4,4.58,1.6,0,3.23-.29,4.03-.5Z"></path><path class="cls-5" d="m892.2,3297.95v-1.18h2.94v1.13c0,2.86,2.14,4.5,5.96,4.5s5.8-1.01,5.8-3.78c0-2.06-1.01-2.81-3.86-3.32l-4.62-.84c-3.02-.55-5.54-2.02-5.54-5.5,0-3.15,2.35-6.13,8.4-6.13s8.4,3.02,8.4,7.23v.88h-2.98v-.76c0-3.44-2.14-4.91-5.42-4.91-3.95,0-5.33,1.34-5.33,3.36s1.01,2.86,3.91,3.4l4.03.76c4.12.76,6.09,1.93,6.09,5.59,0,4.58-4.12,6.55-8.78,6.55-7.31,0-8.99-3.28-8.99-6.97Z"></path><path class="cls-5" d="m925.5,3271.61h2.94v15.16c1.05-2.1,3.28-3.95,7.31-3.95,4.75,0,7.77,2.52,7.77,7.94v13.61h-2.94v-13.27c0-4.33-2.14-5.71-5.5-5.71-3.82,0-6.64,2.69-6.64,5.63v13.36h-2.94v-32.77Z"></path><path class="cls-5" d="m949.19,3293.87c0-6.22,3.32-11.05,10.38-11.05,6.59,0,10.25,4.83,10.25,11.05s-3.7,11.05-10.29,11.05c-7.27,0-10.33-4.83-10.33-11.05Zm17.56,0c0-5.33-2.9-8.49-7.22-8.49-4.75,0-7.27,3.15-7.27,8.49s2.56,8.49,7.27,8.49c4.33,0,7.22-3.15,7.22-8.49Z"></path><path class="cls-5" d="m975.69,3283.37h2.6l.29,3.91c1.01-2.14,3.07-4.45,6.76-4.45,1.26,0,2.18.21,3.02.55v3.15c-1.13-.5-2.1-.76-3.4-.76-3.74,0-6.34,2.81-6.34,5.75v12.85h-2.94v-21Z"></path><path class="cls-5" d="m993,3271.61h2.98v6.51h-2.98v-6.51Zm0,11.76h2.94v21h-2.94v-21Z"></path><path class="cls-5" d="m1001.02,3301.81l14.7-15.88h-14.58v-2.56h18.23v2.56l-14.7,15.84h14.66v2.6h-18.31v-2.56Z"></path><path class="cls-5" d="m1022.32,3293.87c0-6.22,3.32-11.05,10.38-11.05,6.59,0,10.25,4.83,10.25,11.05s-3.7,11.05-10.29,11.05c-7.27,0-10.33-4.83-10.33-11.05Zm17.56,0c0-5.33-2.9-8.49-7.22-8.49-4.75,0-7.27,3.15-7.27,8.49s2.56,8.49,7.27,8.49c4.33,0,7.22-3.15,7.22-8.49Z"></path><path class="cls-5" d="m1048.82,3283.37h2.6l.29,3.49c1.01-2.14,3.28-4.03,7.35-4.03,4.75,0,7.77,2.52,7.77,7.94v13.61h-2.94v-13.27c0-4.33-2.14-5.71-5.5-5.71-3.82,0-6.64,2.69-6.64,5.63v13.36h-2.94v-21Z"></path><path class="cls-5" d="m1085.15,3301.68v2.6c-.76.21-2.14.59-4.03.59-3.82,0-6.34-1.6-6.34-6.89v-12.18h-4.16v-2.44h4.16v-6.05l2.94-1.43v7.48h5.92v2.44h-5.92v11.8c0,2.81.76,4.58,3.4,4.58,1.6,0,3.23-.29,4.03-.5Z"></path><path class="cls-5" d="m1088.72,3298.58c0-3.95,2.23-6.09,7.86-6.09h6.34v-1.72c0-2.98-1.26-5.42-5.46-5.42-3.95,0-5.33,1.51-5.33,4.12v.88h-2.98v-.84c0-5,4.2-6.68,8.32-6.68,5.8,0,8.4,2.86,8.4,8.44v13.11h-2.06l-.55-2.98h-.08c-1.26,1.89-3.7,3.53-7.35,3.53-4.92,0-7.1-2.31-7.1-6.34Zm14.2-1.85v-1.76h-7.01c-2.65,0-4.03.92-4.03,3.61,0,2.35,1.26,3.86,4.5,3.86,4.16,0,6.55-2.14,6.55-5.71Z"></path><path class="cls-5" d="m1113.2,3271.61h2.94v32.77h-2.94v-32.77Z"></path><path class="cls-5" d="m1135.97,3300.89h-.08l-.76,3.49h-1.97v-32.77h2.94v15.25h.04c1.26-2.31,4.07-4.03,7.69-4.03,6.3,0,9.66,3.99,9.66,11.01s-4.29,11.09-9.87,11.09c-3.78,0-6.55-1.64-7.65-4.03Zm14.37-6.89c0-7.18-3.4-8.61-6.93-8.61-4.24,0-7.56,2.73-7.56,8.44,0,6.01,3.45,8.57,7.44,8.57,3.02,0,7.06-1.47,7.06-8.4Z"></path><path class="cls-5" d="m1157.89,3298.58c0-3.95,2.23-6.09,7.86-6.09h6.34v-1.72c0-2.98-1.26-5.42-5.46-5.42-3.95,0-5.33,1.51-5.33,4.12v.88h-2.98v-.84c0-5,4.2-6.68,8.32-6.68,5.8,0,8.4,2.86,8.4,8.44v13.11h-2.06l-.55-2.98h-.08c-1.26,1.89-3.7,3.53-7.35,3.53-4.92,0-7.1-2.31-7.1-6.34Zm14.2-1.85v-1.76h-7.01c-2.65,0-4.03.92-4.03,3.61,0,2.35,1.26,3.86,4.5,3.86,4.16,0,6.55-2.14,6.55-5.71Z"></path><path class="cls-5" d="m1182.38,3283.37h2.6l.29,3.91c1.01-2.14,3.07-4.45,6.76-4.45,1.26,0,2.18.21,3.02.55v3.15c-1.13-.5-2.1-.76-3.4-.76-3.74,0-6.34,2.81-6.34,5.75v12.85h-2.94v-21Z"></path><rect class="cls-6" x="708.11" y="2788.86" width="140.97" height="140.97" rx="70.49" ry="70.49"></rect><path class="cls-5" d="m185.07,2485.22h3.15l17.69,27.6h.04v-27.6h2.94v32.77h-3.07l-17.77-27.94h-.04v27.94h-2.94v-32.77Z"></path><path class="cls-5" d="m217.08,2510.59v-13.61h2.94v13.27c0,4.33,2.14,5.71,5.42,5.71,3.74,0,6.55-2.69,6.55-5.63v-13.36h2.94v21h-2.6l-.25-3.36h-.08c-.97,2.02-3.23,3.91-7.23,3.91-4.66,0-7.69-2.52-7.69-7.94Z"></path><path class="cls-5" d="m272.98,2504.38v13.61h-2.94v-13.27c0-4.33-2.14-5.71-4.75-5.71-3.82,0-6.17,2.69-6.17,5.63v13.36h-2.94v-13.27c0-4.33-1.85-5.71-4.83-5.71-3.61,0-6.13,2.69-6.13,5.63v13.36h-2.94v-21h2.6l.29,3.49c1.01-2.02,3.07-4.03,6.93-4.03,2.94,0,5.38,1.39,6.43,4.28,1.22-2.39,3.57-4.28,7.14-4.28,4.29,0,7.31,2.52,7.31,7.94Z"></path><path class="cls-5" d="m297.59,2508.49h-15.96c.17,4.79,2.48,7.48,6.93,7.48,3.82,0,5.67-1.43,5.97-4.83h2.98c-.29,4.24-3.28,7.39-9.03,7.39-7.06,0-9.83-4.66-9.83-10.88s3.23-11.22,10-11.22,8.95,3.99,8.95,10.21v1.85Zm-3.11-2.98c0-4.45-1.72-6.55-5.92-6.55s-6.55,2.65-6.89,6.97h12.81v-.42Z"></path><path class="cls-5" d="m303.47,2496.98h2.6l.29,3.91c1.01-2.14,3.07-4.45,6.76-4.45,1.26,0,2.18.21,3.02.55v3.15c-1.13-.5-2.1-.76-3.4-.76-3.74,0-6.34,2.81-6.34,5.75v12.85h-2.94v-21Z"></path><path class="cls-5" d="m319.09,2512.19c0-3.95,2.23-6.09,7.86-6.09h6.34v-1.72c0-2.98-1.26-5.42-5.46-5.42-3.95,0-5.33,1.51-5.33,4.12v.88h-2.98v-.84c0-5,4.2-6.68,8.32-6.68,5.8,0,8.4,2.86,8.4,8.44v13.11h-2.06l-.55-2.98h-.08c-1.26,1.89-3.7,3.53-7.35,3.53-4.92,0-7.1-2.31-7.1-6.34Zm14.2-1.85v-1.76h-7.01c-2.65,0-4.03.92-4.03,3.61,0,2.35,1.26,3.86,4.5,3.86,4.16,0,6.55-2.14,6.55-5.71Z"></path><path class="cls-5" d="m343.58,2485.22h2.94v32.77h-2.94v-32.77Z"></path><path class="cls-5" d="m351.98,2511.56v-1.18h2.94v1.13c0,2.86,2.14,4.5,5.96,4.5s5.8-1.01,5.8-3.78c0-2.06-1.01-2.81-3.86-3.32l-4.62-.84c-3.02-.55-5.54-2.02-5.54-5.5,0-3.15,2.35-6.13,8.4-6.13s8.4,3.02,8.4,7.22v.88h-2.98v-.76c0-3.44-2.14-4.91-5.42-4.91-3.95,0-5.33,1.34-5.33,3.36s1.01,2.86,3.91,3.4l4.03.76c4.12.76,6.09,1.93,6.09,5.59,0,4.58-4.12,6.55-8.78,6.55-7.31,0-8.99-3.28-8.99-6.97Z"></path><path class="cls-5" d="m384.03,2512.19c0-3.95,2.23-6.09,7.86-6.09h6.34v-1.72c0-2.98-1.26-5.42-5.46-5.42-3.95,0-5.33,1.51-5.33,4.12v.88h-2.98v-.84c0-5,4.2-6.68,8.32-6.68,5.8,0,8.4,2.86,8.4,8.44v13.11h-2.06l-.55-2.98h-.08c-1.26,1.89-3.7,3.53-7.35,3.53-4.92,0-7.1-2.31-7.1-6.34Zm14.2-1.85v-1.76h-7.01c-2.65,0-4.03.92-4.03,3.61,0,2.35,1.26,3.86,4.5,3.86,4.16,0,6.55-2.14,6.55-5.71Z"></path><path class="cls-5" d="m408.51,2496.98h2.6l.29,3.91c1.01-2.14,3.07-4.45,6.76-4.45,1.26,0,2.18.21,3.02.55v3.15c-1.13-.5-2.1-.76-3.4-.76-3.74,0-6.34,2.81-6.34,5.75v12.85h-2.94v-21Z"></path><path class="cls-5" d="m442.45,2508.49h-15.96c.17,4.79,2.48,7.48,6.93,7.48,3.82,0,5.67-1.43,5.97-4.83h2.98c-.29,4.24-3.28,7.39-9.03,7.39-7.06,0-9.83-4.66-9.83-10.88s3.23-11.22,10-11.22,8.95,3.99,8.95,10.21v1.85Zm-3.11-2.98c0-4.45-1.72-6.55-5.92-6.55s-6.55,2.65-6.89,6.97h12.81v-.42Z"></path><path class="cls-5" d="m456.1,2511.56v-1.18h2.94v1.13c0,2.86,2.14,4.5,5.96,4.5s5.8-1.01,5.8-3.78c0-2.06-1.01-2.81-3.86-3.32l-4.62-.84c-3.02-.55-5.54-2.02-5.54-5.5,0-3.15,2.35-6.13,8.4-6.13s8.4,3.02,8.4,7.22v.88h-2.98v-.76c0-3.44-2.14-4.91-5.42-4.91-3.95,0-5.33,1.34-5.33,3.36s1.01,2.86,3.91,3.4l4.03.76c4.12.76,6.09,1.93,6.09,5.59,0,4.58-4.12,6.55-8.78,6.55-7.31,0-8.99-3.28-8.99-6.97Z"></path><path class="cls-5" d="m479.74,2485.22h2.94v15.16c1.05-2.1,3.28-3.95,7.31-3.95,4.75,0,7.77,2.52,7.77,7.94v13.61h-2.94v-13.27c0-4.33-2.14-5.71-5.5-5.71-3.82,0-6.64,2.69-6.64,5.63v13.36h-2.94v-32.77Z"></path><path class="cls-5" d="m503.43,2507.48c0-6.22,3.32-11.05,10.38-11.05,6.59,0,10.25,4.83,10.25,11.05s-3.7,11.05-10.29,11.05c-7.27,0-10.33-4.83-10.33-11.05Zm17.56,0c0-5.33-2.9-8.49-7.22-8.49-4.75,0-7.27,3.15-7.27,8.49s2.56,8.49,7.27,8.49c4.33,0,7.22-3.15,7.22-8.49Z"></path><path class="cls-5" d="m529.93,2496.98h2.6l.29,3.91c1.01-2.14,3.07-4.45,6.76-4.45,1.26,0,2.18.21,3.02.55v3.15c-1.13-.5-2.1-.76-3.4-.76-3.74,0-6.34,2.81-6.34,5.75v12.85h-2.94v-21Z"></path><path class="cls-5" d="m558.2,2515.3v2.6c-.76.21-2.14.59-4.03.59-3.82,0-6.34-1.6-6.34-6.89v-12.18h-4.16v-2.44h4.16v-6.05l2.94-1.43v7.48h5.92v2.44h-5.92v11.8c0,2.81.76,4.58,3.4,4.58,1.6,0,3.23-.29,4.03-.5Z"></path><path class="cls-5" d="m579.67,2508.49h-15.96c.17,4.79,2.48,7.48,6.93,7.48,3.82,0,5.67-1.43,5.97-4.83h2.98c-.29,4.24-3.28,7.39-9.03,7.39-7.06,0-9.83-4.66-9.83-10.88s3.23-11.22,10-11.22,8.95,3.99,8.95,10.21v1.85Zm-3.11-2.98c0-4.45-1.72-6.55-5.92-6.55s-6.55,2.65-6.89,6.97h12.81v-.42Z"></path><path class="cls-5" d="m585.54,2496.98h2.6l.29,3.91c1.01-2.14,3.07-4.45,6.76-4.45,1.26,0,2.18.21,3.02.55v3.15c-1.13-.5-2.1-.76-3.4-.76-3.74,0-6.34,2.81-6.34,5.75v12.85h-2.94v-21Z"></path><path class="cls-5" d="m183.14,2564.14v2.6c-.76.21-2.14.59-4.03.59-3.82,0-6.34-1.6-6.34-6.89v-12.18h-4.16v-2.44h4.16v-6.05l2.94-1.43v7.48h5.92v2.44h-5.92v11.8c0,2.81.76,4.58,3.4,4.58,1.6,0,3.23-.29,4.03-.5Z"></path><path class="cls-5" d="m187.97,2534.07h2.94v15.17c1.05-2.1,3.28-3.95,7.31-3.95,4.75,0,7.77,2.52,7.77,7.94v13.61h-2.94v-13.27c0-4.33-2.14-5.71-5.5-5.71-3.82,0-6.64,2.69-6.64,5.63v13.36h-2.94v-32.77Z"></path><path class="cls-5" d="m212.08,2561.04c0-3.95,2.23-6.09,7.86-6.09h6.34v-1.72c0-2.98-1.26-5.42-5.46-5.42-3.95,0-5.33,1.51-5.33,4.12v.88h-2.98v-.84c0-5,4.2-6.68,8.32-6.68,5.8,0,8.4,2.86,8.4,8.44v13.11h-2.06l-.55-2.98h-.08c-1.26,1.89-3.7,3.53-7.35,3.53-4.92,0-7.1-2.31-7.1-6.34Zm14.2-1.85v-1.76h-7.01c-2.65,0-4.03.92-4.03,3.61,0,2.35,1.26,3.87,4.5,3.87,4.16,0,6.55-2.14,6.55-5.71Z"></path><path class="cls-5" d="m236.56,2545.83h2.6l.29,3.49c1.01-2.14,3.28-4.03,7.35-4.03,4.75,0,7.77,2.52,7.77,7.94v13.61h-2.94v-13.27c0-4.33-2.14-5.71-5.5-5.71-3.82,0-6.64,2.69-6.64,5.63v13.36h-2.94v-21Z"></path><path class="cls-5" d="m271.17,2559.44v-13.61h2.94v13.27c0,4.33,2.14,5.71,5.42,5.71,3.74,0,6.55-2.69,6.55-5.63v-13.36h2.94v21h-2.6l-.25-3.36h-.08c-.97,2.02-3.23,3.91-7.23,3.91-4.66,0-7.69-2.52-7.69-7.94Z"></path><path class="cls-5" d="m296.37,2545.83h2.39l.34,3.87h.08c1.13-2.48,4.03-4.41,7.86-4.41,6.3,0,9.66,3.99,9.66,11.01s-4.29,11.09-9.87,11.09c-3.78,0-6.38-1.6-7.43-3.7h-.08v11.55h-2.94v-29.41Zm17.18,10.63c0-7.18-3.4-8.61-6.93-8.61-4.24,0-7.56,2.73-7.56,8.44,0,6.01,3.45,8.57,7.44,8.57,3.02,0,7.06-1.47,7.06-8.4Z"></path><path class="cls-5" d="m322.58,2545.83h2.39l.34,3.87h.08c1.13-2.48,4.03-4.41,7.86-4.41,6.3,0,9.66,3.99,9.66,11.01s-4.29,11.09-9.87,11.09c-3.78,0-6.38-1.6-7.43-3.7h-.08v11.55h-2.94v-29.41Zm17.18,10.63c0-7.18-3.4-8.61-6.93-8.61-4.24,0-7.56,2.73-7.56,8.44,0,6.01,3.45,8.57,7.44,8.57,3.02,0,7.06-1.47,7.06-8.4Z"></path><path class="cls-5" d="m366.05,2557.34h-15.96c.17,4.79,2.48,7.48,6.93,7.48,3.82,0,5.67-1.43,5.97-4.83h2.98c-.29,4.24-3.28,7.39-9.03,7.39-7.06,0-9.83-4.66-9.83-10.88s3.23-11.22,10-11.22,8.95,3.99,8.95,10.21v1.85Zm-3.11-2.98c0-4.45-1.72-6.55-5.92-6.55s-6.55,2.65-6.89,6.97h12.81v-.42Z"></path><path class="cls-5" d="m371.93,2545.83h2.6l.29,3.91c1.01-2.14,3.07-4.45,6.76-4.45,1.26,0,2.18.21,3.02.55v3.15c-1.13-.5-2.1-.76-3.4-.76-3.74,0-6.34,2.81-6.34,5.75v12.85h-2.94v-21Z"></path><path class="cls-5" d="m386.92,2556.5c0-6.38,3.23-11.22,10-11.22s8.95,3.91,8.95,8.95v.42h-3.11v-.63c0-3.82-1.64-6.09-5.84-6.09-4.75,0-7.02,3.11-7.02,8.4,0,5.63,2.39,8.49,6.93,8.49,3.82,0,5.84-1.85,5.92-5.67h3.02c-.08,4.66-3.15,8.23-9.03,8.23-7.22,0-9.83-4.75-9.83-10.88Z"></path><path class="cls-5" d="m410.28,2561.04c0-3.95,2.23-6.09,7.86-6.09h6.34v-1.72c0-2.98-1.26-5.42-5.46-5.42-3.95,0-5.33,1.51-5.33,4.12v.88h-2.98v-.84c0-5,4.2-6.68,8.32-6.68,5.8,0,8.4,2.86,8.4,8.44v13.11h-2.06l-.55-2.98h-.08c-1.26,1.89-3.7,3.53-7.35,3.53-4.92,0-7.1-2.31-7.1-6.34Zm14.2-1.85v-1.76h-7.01c-2.65,0-4.03.92-4.03,3.61,0,2.35,1.26,3.87,4.5,3.87,4.16,0,6.55-2.14,6.55-5.71Z"></path><path class="cls-5" d="m432.87,2560.41v-1.18h2.94v1.13c0,2.86,2.14,4.5,5.96,4.5s5.8-1.01,5.8-3.78c0-2.06-1.01-2.81-3.86-3.32l-4.62-.84c-3.02-.55-5.54-2.02-5.54-5.5,0-3.15,2.35-6.13,8.4-6.13s8.4,3.02,8.4,7.23v.88h-2.98v-.76c0-3.44-2.14-4.92-5.42-4.92-3.95,0-5.33,1.34-5.33,3.36s1.01,2.86,3.91,3.4l4.03.76c4.12.76,6.09,1.93,6.09,5.59,0,4.58-4.12,6.55-8.78,6.55-7.31,0-8.99-3.28-8.99-6.97Z"></path><path class="cls-5" d="m473.78,2557.34h-15.96c.17,4.79,2.48,7.48,6.93,7.48,3.82,0,5.67-1.43,5.97-4.83h2.98c-.29,4.24-3.28,7.39-9.03,7.39-7.06,0-9.83-4.66-9.83-10.88s3.23-11.22,10-11.22,8.95,3.99,8.95,10.21v1.85Zm-3.11-2.98c0-4.45-1.72-6.55-5.92-6.55s-6.55,2.65-6.89,6.97h12.81v-.42Z"></path><path class="cls-5" d="m489.32,2534.07h2.94v32.77h-2.94v-32.77Z"></path><path class="cls-5" d="m516.88,2557.34h-15.96c.17,4.79,2.48,7.48,6.93,7.48,3.82,0,5.67-1.43,5.97-4.83h2.98c-.29,4.24-3.28,7.39-9.03,7.39-7.06,0-9.83-4.66-9.83-10.88s3.23-11.22,10-11.22,8.95,3.99,8.95,10.21v1.85Zm-3.11-2.98c0-4.45-1.72-6.55-5.92-6.55s-6.55,2.65-6.89,6.97h12.81v-.42Z"></path><path class="cls-5" d="m523.34,2560.45v-12.18h-4.16v-2.44h4.16v-6.05l2.94-1.43v7.48h11.85v-6.05l2.94-1.43v7.48h5.92v2.44h-5.92v11.8c0,2.81.76,4.58,3.4,4.58,1.6,0,3.24-.29,4.03-.5v2.6c-.76.21-2.14.59-4.03.59-3.82,0-6.34-1.6-6.34-6.89v-12.18h-11.85v11.8c0,2.81.76,4.58,3.4,4.58,1.6,0,3.23-.29,4.03-.5v2.6c-.76.21-2.14.59-4.03.59-3.82,0-6.34-1.6-6.34-6.89Z"></path><path class="cls-5" d="m569.96,2557.34h-15.96c.17,4.79,2.48,7.48,6.93,7.48,3.82,0,5.67-1.43,5.97-4.83h2.98c-.29,4.24-3.28,7.39-9.03,7.39-7.06,0-9.83-4.66-9.83-10.88s3.23-11.22,10-11.22,8.95,3.99,8.95,10.21v1.85Zm-3.11-2.98c0-4.45-1.72-6.55-5.92-6.55s-6.55,2.65-6.89,6.97h12.81v-.42Z"></path><path class="cls-5" d="m575.84,2545.83h2.6l.29,3.91c1.01-2.14,3.07-4.45,6.76-4.45,1.26,0,2.18.21,3.02.55v3.15c-1.13-.5-2.1-.76-3.4-.76-3.74,0-6.34,2.81-6.34,5.75v12.85h-2.94v-21Z"></path><path class="cls-5" d="m591.04,2560.41v-1.18h2.94v1.13c0,2.86,2.14,4.5,5.96,4.5s5.8-1.01,5.8-3.78c0-2.06-1.01-2.81-3.86-3.32l-4.62-.84c-3.02-.55-5.54-2.02-5.54-5.5,0-3.15,2.35-6.13,8.4-6.13s8.4,3.02,8.4,7.23v.88h-2.98v-.76c0-3.44-2.14-4.92-5.42-4.92-3.95,0-5.33,1.34-5.33,3.36s1.01,2.86,3.91,3.4l4.03.76c4.12.76,6.09,1.93,6.09,5.59,0,4.58-4.12,6.55-8.78,6.55-7.31,0-8.99-3.28-8.99-6.97Z"></path><path class="cls-9" d="m808.74,1648.64h1.04v7.21h3.45v.88h-4.5v-8.08Z"></path><path class="cls-9" d="m819.45,1653.77c0,2.15-1.49,3.08-2.89,3.08-1.57,0-2.78-1.15-2.78-2.99,0-1.94,1.27-3.08,2.88-3.08s2.79,1.21,2.79,2.99Zm-4.61.06c0,1.27.73,2.23,1.76,2.23s1.76-.95,1.76-2.25c0-.98-.49-2.23-1.74-2.23s-1.79,1.15-1.79,2.25Z"></path><path class="cls-9" d="m820.79,1652.72c0-.68-.01-1.27-.05-1.81h.92l.04,1.14h.05c.26-.78.9-1.27,1.61-1.27.12,0,.2.01.3.04v1c-.11-.02-.22-.04-.36-.04-.74,0-1.27.56-1.42,1.36-.02.14-.05.31-.05.49v3.09h-1.04v-3.99Z"></path><path class="cls-9" d="m825.18,1654.01c.02,1.43.94,2.02,1.99,2.02.76,0,1.21-.13,1.61-.3l.18.75c-.37.17-1.01.36-1.93.36-1.79,0-2.85-1.18-2.85-2.93s1.03-3.13,2.72-3.13c1.89,0,2.4,1.67,2.4,2.73,0,.22-.02.38-.04.49h-4.08Zm3.09-.75c.01-.67-.28-1.72-1.46-1.72-1.07,0-1.54.98-1.62,1.72h3.08Z"></path><path class="cls-9" d="m830.61,1652.49c0-.6-.01-1.09-.05-1.57h.92l.05.94h.04c.32-.55.86-1.07,1.82-1.07.79,0,1.39.48,1.64,1.16h.02c.18-.32.41-.58.65-.76.35-.26.73-.41,1.28-.41.77,0,1.91.5,1.91,2.52v3.42h-1.03v-3.29c0-1.12-.41-1.79-1.26-1.79-.6,0-1.07.44-1.25.96-.05.14-.08.33-.08.53v3.59h-1.03v-3.48c0-.92-.41-1.59-1.21-1.59-.66,0-1.14.53-1.31,1.06-.06.16-.08.34-.08.52v3.5h-1.03v-4.23Z"></path><path class="cls-9" d="m844.33,1649.28c.01.36-.25.65-.67.65-.37,0-.64-.29-.64-.65s.28-.66.66-.66.65.29.65.66Zm-1.17,7.44v-5.8h1.05v5.8h-1.05Z"></path><path class="cls-9" d="m845.96,1652.81c0-.74-.02-1.34-.05-1.89h.95l.05,1h.02c.43-.71,1.12-1.13,2.06-1.13,1.4,0,2.46,1.19,2.46,2.95,0,2.09-1.27,3.12-2.64,3.12-.77,0-1.44-.34-1.79-.91h-.02v3.15h-1.04v-6.29Zm1.04,1.55c0,.16.02.3.05.43.19.73.83,1.24,1.58,1.24,1.12,0,1.76-.91,1.76-2.24,0-1.16-.61-2.16-1.73-2.16-.72,0-1.39.52-1.59,1.31-.04.13-.07.29-.07.43v1Z"></path><path class="cls-9" d="m852.65,1655.64c.31.2.86.42,1.39.42.77,0,1.13-.38,1.13-.86s-.3-.78-1.08-1.07c-1.04-.37-1.54-.95-1.54-1.64,0-.94.76-1.7,2-1.7.59,0,1.1.17,1.43.36l-.26.77c-.23-.14-.65-.34-1.19-.34-.62,0-.97.36-.97.79,0,.48.35.7,1.1.98,1.01.38,1.52.89,1.52,1.75,0,1.02-.79,1.74-2.17,1.74-.64,0-1.22-.16-1.63-.4l.26-.8Z"></path><path class="cls-9" d="m862.4,1655.14c0,.6.01,1.13.05,1.58h-.94l-.06-.95h-.02c-.28.47-.89,1.08-1.92,1.08-.91,0-2-.5-2-2.54v-3.39h1.05v3.21c0,1.1.34,1.85,1.3,1.85.71,0,1.2-.49,1.39-.96.06-.16.1-.35.1-.54v-3.56h1.05v4.22Z"></path><path class="cls-9" d="m864.16,1652.49c0-.6-.01-1.09-.05-1.57h.92l.05.94h.04c.32-.55.86-1.07,1.82-1.07.79,0,1.39.48,1.64,1.16h.02c.18-.32.41-.58.65-.76.35-.26.73-.41,1.28-.41.77,0,1.91.5,1.91,2.52v3.42h-1.03v-3.29c0-1.12-.41-1.79-1.26-1.79-.6,0-1.07.44-1.25.96-.05.14-.08.33-.08.53v3.59h-1.03v-3.48c0-.92-.41-1.59-1.21-1.59-.66,0-1.14.53-1.31,1.06-.06.16-.08.34-.08.52v3.5h-1.03v-4.23Z"></path><circle class="cls-6" cx="1592.18" cy="2773.99" r="112.87"></circle><polygon class="cls-7" points="1739.87 1193.46 1747.5 1234.6 1751.96 1282.89 1751.96 1320.52 1706.84 1352.34 1669.57 1344.8 1628.95 1304.91 1739.87 1193.46"></polygon><path class="cls-5" d="m767.56,490.17c-1.15,1.15-2.3,1.72-3.45,2.3-29.87,29.87-57.44,39.63-74.1,40.21-19.53-.57-31.59-10.34-31.59-47.1,0-2.87,0-5.17.57-8.04-5.74,4.02-10.91,8.62-15.51,13.21-8.62,8.62-20.1-3.45-11.49-12.06,8.04-8.62,20.1-17.23,29.87-24.12,4.02-24.12,13.21-45.95,24.7-63.76,15.51-28.15,37.91-44.8,56.29-44.23,20.68.57,28.15,8.62,27.57,26.42,0,16.08-14.93,35.61-53.42,61.46-13.21,8.62-28.72,21.25-39.06,28.72-.57,6.89-1.15,13.79-1.15,20.68,0,22.4,2.87,31.59,14.36,31.02,14.36,0,37.91-10.91,63.18-36.19.57-.57,1.72-1.15,2.3-1.72,33.32-33.31,79.27-85.01,98.8-124.64,5.17-10.91,20.1-4.59,15.51,5.74-18.96,42.51-69.5,98.22-103.39,132.11Zm-26.42-125.79c-13.79-.57-28.72,13.79-40.21,34.46-7.47,11.49-13.79,24.7-17.81,39.63,8.04-6.32,16.66-13.21,24.7-18.38,29.87-20.1,44.8-32.74,44.8-45.38,0-7.47-3.45-10.91-11.49-10.34Z"></path><path class="cls-5" d="m1062.22,310.38c-21.25,25.85-48.25,55.72-79.27,89.61-21.83,24.7-49.4,53.99-85.01,90.18-1.15,1.15-2.3,1.72-3.45,2.3-33.32,33.31-48.82,39.06-61.46,39.63-11.49-.57-18.96-6.89-17.23-22.98-.57-20.1,11.49-76.97,39.06-155.66,3.45-10.91,20.1-6.89,16.66,3.45-26.42,76.97-38.48,131.54-38.48,150.49,0,4.02-.57,6.89,1.72,7.47,10.91,0,21.83-8.04,50.55-36.76.57-.57,1.15-1.15,1.72-1.15,35.04-35.04,62.03-63.76,83.29-88.46,30.44-32.74,57.44-63.76,78.69-89.03,22.98-29.29,38.48-51.7,38.48-66.06-.57-8.62-4.6-13.79-10.34-13.79-12.64.57-11.49-16.66.57-17.23,14.93,0,27,9.76,27,29.29,0,17.23-15.51,44.23-42.51,78.69Zm-172.32-24.12c-3.45,10.91-20.1,7.47-16.66-3.45l10.91-36.76c4.02-10.91,20.68-7.47,17.23,3.45l-11.49,36.76Z"></path><path class="cls-5" d="m1076.58,219.63c-7.47,0-13.21,3.45-18.96,9.76-14.36,17.23-27,52.84-45.95,125.79l-43.08,159.68c21.25-2.3,47.67-18.38,66.06-36.19,8.04-8.62,20.68,2.87,12.06,11.49-22.98,22.4-56.87,41.36-83.29,42.51l-38.48,141.88c-2.87,11.49-20.68,8.62-17.23-2.87l37.91-140.15c-10.34-1.72-16.08-4.6-22.4-9.76-9.76-6.89,2.87-21.25,11.49-14.36,4.6,3.45,8.62,5.74,15.51,6.89l43.65-161.98c20.68-76.39,36.19-114.88,49.97-133.83,10.91-11.49,20.68-16.08,34.46-16.66,11.49,0,9.76,18.38-1.72,17.81Z"></path><path class="cls-5" d="m1170.77,490.17c-1.15,1.15-2.3,1.72-3.45,2.3-29.87,29.87-57.44,39.63-74.1,40.21-19.53-.57-31.59-10.34-31.59-47.1,0-2.87,0-5.17.57-8.04-5.74,4.02-10.91,8.62-15.51,13.21-8.62,8.62-20.1-3.45-11.49-12.06,8.04-8.62,20.1-17.23,29.87-24.12,4.02-24.12,13.21-45.95,24.7-63.76,15.51-28.15,37.91-44.8,56.29-44.23,20.68.57,28.15,8.62,27.57,26.42,0,16.08-14.93,35.61-53.42,61.46-13.21,8.62-28.72,21.25-39.06,28.72-.57,6.89-1.15,13.79-1.15,20.68,0,22.4,2.87,31.59,14.36,31.02,14.36,0,37.91-10.91,63.18-36.19.57-.57,1.72-1.15,2.3-1.72,21.25-22.4,53.99-62.03,76.97-88.46,8.04-8.62,21.25,1.72,13.21,10.91-24.12,27-58.01,68.93-79.27,90.75Zm-26.42-125.79c-13.79-.57-28.72,13.79-40.21,34.46-7.47,11.49-13.79,24.7-17.81,39.63,8.04-6.32,16.66-13.21,24.7-18.38,29.87-20.1,44.8-32.74,44.8-45.38,0-7.47-3.45-10.91-11.49-10.34Z"></path><path class="cls-5" d="m1377.55,532.1c-11.49-.57-17.81-8.04-17.81-23.55,0-12.64,9.76-41.36,20.1-71.23,8.62-25.27,18.38-51.7,17.81-64.91,0-5.17-1.15-8.62-6.32-8.62-10.91,0-31.02,14.36-50.55,36.19-32.74,35.61-48.25,65.48-68.93,125.79-4.02,11.49-20.68,7.47-16.66-4.02,9.19-27,16.66-51.12,22.98-71.8,10.91-37.91,16.08-63.76,15.51-78.12,0-4.02,2.87-7.47,0-8.04-8.04,0-23.55,13.79-42.51,36.19-8.04,9.19-21.25-1.15-13.79-10.91,25.85-29.29,47.67-43.65,58.01-42.51,12.06,0,16.66,5.74,16.08,24.12-.58,9.76-2.3,25.85-7.47,47.1,7.47-9.76,14.93-18.96,24.12-28.72,24.12-27.57,51.12-42.51,65.48-43.08,14.93,0,21.25,9.76,21.83,24.7,0,14.36-9.19,42.51-18.38,70.65-9.76,27.57-19.53,53.99-19.53,65.48,0,4.6-1.15,8.04,1.72,7.47,10.34.57,25.27-9.19,51.12-35.61,8.62-8.04,21.25,2.87,12.64,11.49-32.74,32.74-52.84,41.36-65.48,41.93Z"></path><path class="cls-7" d="m576.86,532.1c-20.68.57-35.61-8.04-56.87-78.69-7.47-23.55-18.38-74.67-22.4-99.37-1.15-6.89,1.72-10.91,8.62-11.49,29.29-1.72,59.74-8.04,80.99-23.55,16.08-11.49,27.57-29.29,27.57-50.55,0-32.17-27-48.82-71.23-48.25h-28.72l-87.31,305c-2.87,11.49-20.68,8.04-17.81-3.45l86.73-301.56c-14.36.57-26.42,1.72-38.48,4.02-12.06,2.87-14.36-14.93-2.87-17.23,24.7-4.6,51.7-5.17,90.18-4.6,54.57,0,87.88,25.27,87.31,64.33.57,28.72-14.36,50.55-36.19,66.63-20.68,14.93-50.55,23.55-80.42,25.85,5.74,27,14.93,67.2,21.25,87.88,17.81,57.44,23.55,67.78,41.36,67.2,16.08,1.15,35.61-18.38,51.7-36.19,8.62-8.62,21.25,2.87,12.64,11.49-19.53,21.83-45.95,42.51-66.06,42.51Z"></path><path class="cls-7" d="m1624.57,1320.06l-.58.58c-16.11,14.96-42.58,24.17-71.36,24.75l-2.3,9.21c-3.45,11.51-20.72,8.63-17.84-2.88l2.3-8.63c-23.59-6.33-42.01-24.17-42.01-40.28-.58-19.57,9.78-28.77,28.77-29.35,10.93.58,21.87,5.75,28.77,13.81,13.81-47.76,37.98-134.08,40.28-142.72-4.6,6.91-9.21,13.24-13.81,18.99-28.2,34.53-61,55.82-89.77,55.82-25.32-1.15-42.01-9.21-48.34-22.44-5.18-10.36,10.36-19.57,15.54-9.78,5.18,9.21,17.26,14.39,33.95,14.39,24.75,0,51.79-18.99,75.39-48.34,23.02-28.77,43.16-67.33,55.82-109.91,2.88-11.51,20.14-8.06,17.26,4.03l-78.84,280.25c21.29-.58,42.01-7.48,53.52-18.41l.58-.58c33.95-33.38,90.35-89.2,124.3-128.9,8.06-9.21,21.29,1.15,13.24,10.36-35.1,40.86-90.92,96.1-124.88,130.06Zm-104.16-28.77c-6.33,0-9.78,3.45-9.78,9.21-.58,10.93,12.66,21.87,28.77,25.9,0,0,2.3-8.63,2.3-8.06,2.3-14.96-8.63-27.05-21.29-27.05Z"></path><path class="cls-5" d="m261.87,1355.74c-3.45,1.15-6.33.58-8.06-1.15-11.51,5.18-21.29,8.06-29.92,8.06-21.87-.58-30.5-13.81-30.5-47.19.58-38.56,16.69-120.27,59.85-249.75-13.24,9.78-29.35,17.84-43.16,25.32-10.93,5.18-17.26-9.78-6.33-14.96,22.44-11.51,48.34-26.47,60.42-41.43,8.06-8.63,18.99-2.88,15.54,7.48-50.07,143.29-67.91,231.34-68.48,271.62,0,20.14,1.73,31.08,14.39,31.08,34.53,0,90.35-47.76,142.14-135.23,25.9-46.04,44.89-98.98,45.46-146.17-14.96-2.88-24.75-7.48-24.75-15.54,0-11.51,8.06-16.69,20.14-16.69s18.41,5.75,20.72,16.69c3.45-.58,6.91-.58,9.21-.58,13.24,0,31.08-4.03,43.16-10.36,11.51-6.33,18.99,9.78,7.48,15.54-14.39,7.48-36.83,11.51-52.37,12.66h-5.75c-1.73,49.49-20.72,104.16-48.34,151.92-27.05,45.46-55.82,80.57-82.29,104.73,84.59-36.25,174.37-100.13,193.93-119.7,8.63-8.63,20.72,4.03,11.51,12.08-24.17,23.59-146.74,110.49-244,141.56Z"></path><path class="cls-5" d="m544.43,1326.96c-18.99,21.87-40.86,35.68-61,35.68s-32.23-14.39-32.23-39.71c0-43.74,12.66-83.44,34.53-111.07,17.84-22.44,41.43-35.68,67.33-36.25,20.14,1.15,30.5,9.21,35.68,20.72h6.91c16.11-.58,27.62-4.6,38.56-8.06,13.81-5.75,23.59-12.08,37.41-12.66,12.66-.58,10.36,17.84-1.15,17.84s-20.14,5.75-31.08,10.36c-12.08,4.6-25.9,9.78-45.46,10.36h-1.15v3.45c-.58,36.25-21.87,79.99-48.34,109.34Zm29.92-115.09c-12.66-2.88-18.41-9.78-18.41-17.84-1.73-.58-2.88-.58-4.6-.58-20.72-.58-38.56,11.51-51.79,28.77-18.99,23.59-31.08,59.85-29.92,98.98-.58,14.39,4.03,23.59,15.54,23.59,14.96,0,31.65-12.08,46.61-28.77,23.59-25.32,42.58-65.6,43.16-96.68,0-2.3,0-5.18-.58-7.48Z"></path><path class="cls-5" d="m767.7,1228.56c-20.14-.58-32.23-8.63-37.98-24.17-9.78,7.48-19.57,17.26-26.47,27.05-15.54,21.87-25.9,53.52-49.49,123.73-3.45,10.93-20.72,8.06-16.69-3.45,26.47-76.54,39.13-119.12,38.56-140.41,0-9.78,1.15-17.84-5.18-17.84-12.08.58-10.36-16.11.58-17.26,13.81-.58,23.02,11.51,21.87,33.38v7.48c10.36-13.24,24.75-25.9,39.71-35.1,7.48-5.18,14.96,2.3,12.66,9.21,2.88,12.66,9.78,19.57,24.17,20.14,20.14-.58,47.76-16.69,65.03-32.23,9.21-8.06,20.72,4.03,11.51,12.08-20.72,18.41-53.52,36.83-78.26,37.41Z"></path><path class="cls-5" d="m1076.73,1220.5c-14.96,0-27.62-.58-37.41-2.3-7.48,27.05-37.98,84.59-71.93,116.82-17.26,16.69-35.1,26.47-50.07,27.05-13.81.58-21.87-6.91-22.44-23.59.58-9.21,1.73-25.9,6.91-52.37-11.51,19.57-24.17,36.83-36.83,49.49-16.69,17.26-32.8,26.47-47.76,26.47-14.96,1.15-23.02-7.48-22.44-23.59,0-13.24,2.3-37.98,13.24-80.57,5.75-19.57,13.81-44.89,24.17-74.81,3.45-10.93,20.14-6.91,16.69,3.45-10.36,29.92-18.41,54.67-24.17,74.81-9.78,40.28-12.66,63.88-12.08,75.39,0,5.18,1.73,8.06,5.75,8.06,10.93.58,22.44-8.63,33.95-20.72,31.08-31.08,62.15-92.07,79.41-140.99,4.6-10.93,20.72-7.48,17.26,4.03-10.93,31.65-18.99,56.4-24.17,77.69-10.36,37.41-12.08,61-11.51,72.51-.58,4.6,1.15,7.48,5.18,6.91,11.51.58,24.75-8.06,37.41-21.29,32.23-30.5,64.45-87.47,66.75-109.34-12.08-5.18-17.26-12.08-17.26-20.72,0-1.15,0-2.3.58-3.45,1.15-9.78,6.33-13.24,15.54-13.24s17.26,6.91,18.99,25.32c9.21,1.15,21.87,1.73,37.41,1.15,43.74.58,79.41-21.87,79.41-21.87,10.36-6.91,19.57,7.48,9.21,13.81,0,0-40.86,25.9-89.77,25.9Z"></path><path class="cls-5" d="m1262.03,1320.06c-1.15,1.15-2.3,1.73-3.45,2.3-32.8,32.8-49.49,39.13-62.15,39.71-11.51,0-18.41-2.3-17.84-23.59,0-7.48,1.15-17.84,3.45-31.08-22.44,31.08-53.52,54.67-74.81,55.24-21.29-.58-28.77-18.41-28.77-42.58.58-36.25,12.08-72.51,31.08-98.98,20.14-27.62,46.04-45.46,73.08-45.46,10.93,0,24.75,3.45,35.1,8.06v-.58c4.03-10.36,19.57-7.48,16.11,3.45-25.9,77.69-38.56,127.75-37.98,150.2,0,5.75,0,7.48,2.3,8.06,10.93,0,22.44-7.48,50.64-36.83.58-.58,1.73-1.15,2.88-1.73,21.29-22.44,53.52-61.58,76.54-88.05,8.06-8.63,21.29,1.73,13.24,10.93-24.17,27.05-58.12,69.06-79.41,90.92Zm-80.57-126.6c-21.29,0-42.01,15.54-56.97,37.41-17.84,23.02-28.77,55.24-28.2,86.9.58,14.39.58,27.05,12.66,27.05,18.99,0,45.46-25.32,64.45-54.67,16.11-25.32,31.08-68.48,37.41-89.77-9.21-3.45-20.72-6.91-29.35-6.91Zm-.58-69.06c-3.45,11.51-20.72,8.63-17.26-2.88l10.36-37.41c2.88-11.51,20.72-9.21,17.26,2.3l-10.36,37.98Zm50.07.58c-2.88,11.51-20.72,8.06-17.84-3.45l10.36-37.98c2.88-11.51,20.72-8.06,17.84,3.45l-10.36,37.98Z"></path><path class="cls-5" d="m1424.31,1218.78c-14.96,16.69-23.02,32.8-61,136.96-3.45,11.51-20.72,7.48-16.69-4.03,27.05-77.11,39.13-128.9,39.71-150.2,0-4.03,1.73-7.48-1.15-8.06-8.06,0-23.59,13.81-42.58,36.25-8.06,9.21-21.29-1.15-13.81-10.93,25.9-29.35,47.76-43.74,58.12-42.58,12.08,0,16.69,5.75,16.11,24.17-.58,5.18-.58,13.24-1.73,21.87,2.88-4.6,6.91-10.93,9.78-14.39,10.36-12.08,21.29-20.14,31.65-26.47,10.36-5.75,18.99,9.78,8.06,14.96-9.21,5.18-18.41,13.24-26.47,22.44Z"></path><path class="cls-5" d="m1696.51,1362.07c-13.24,0-27.05-6.33-39.13-18.99-7.48-8.06,5.75-20.14,13.24-12.66,8.63,8.63,17.26,14.39,27.62,13.81,28.2.58,50.64-21.29,50.07-44.89,0-20.72-5.76-36.25-10.93-53.52-4.6-16.69-8.06-35.1-2.88-61.57,2.3-12.08,20.14-10.36,17.84,1.15-4.03,24.17-1.73,39.13,2.3,54.67,5.18,17.84,12.66,35.1,11.51,58.12,0,33.38-30.5,64.45-69.63,63.88Z"></path><path class="cls-7" d="m373.65,2885.68h39.13c12.08-.58,10.36,17.26-1.15,17.26h-48.34l-68.48,115.67c-5.75,10.93-21.29,2.88-15.54-7.48,0,0,64.45-108.19,63.88-108.19h-27.05c-12.08,0-10.36-17.26,1.15-17.26h36.25c.58,0,70.21-117.97,70.21-117.97h-120.27c-12.08.58-10.93-17.84,1.15-17.84h135.23c8.63.58,10.93,5.18,6.91,12.66l-73.08,123.15Z"></path><path class="cls-5" d="m912.29,2872.45l-32.23,143.29c-2.88,11.51-19.57,9.21-17.26-1.73l32.23-142.72c-31.08.58-59.85.58-85.74-.58-65.6,73.08-107.61,113.37-134.66,133.51-19.57,14.39-33.95,19.57-45.46,19.57-19.57-1.15-32.23-6.91-43.16-17.84-7.48-8.06,5.18-20.72,13.24-12.66,8.06,8.06,17.26,13.24,31.08,12.66,9.21-.58,19.57-4.6,33.95-15.54,26.47-18.99,64.45-55.24,122.57-120.85-15.54-1.73-29.92-3.45-43.16-6.91-10.93-2.3-5.75-18.99,5.18-17.26,15.54,4.03,33.38,5.75,52.37,7.48l.58-.58c44.31-50.64,87.47-98.98,133.51-155.95,7.48-9.21,17.26-4.6,14.96,6.33l-33.95,151.92c48.34-.58,101.28-9.21,120.85-16.11,11.51-4.6,16.69,12.08,4.6,16.11-21.29,6.91-77.69,16.69-129.48,17.84Zm-88.62-18.41c23.02.58,48.34.58,75.39,0l26.47-119.12c-34.53,41.43-67.91,79.41-101.86,119.12Zm103.58-181.85c-3.45,10.93-20.72,8.63-17.84-3.45l10.36-37.41c2.88-12.08,20.72-8.63,17.26,2.3l-9.78,38.56Zm50.07,0c-2.88,11.51-20.72,8.06-17.84-3.45l10.36-37.98c2.88-11.51,20.72-8.06,17.84,3.45l-10.36,37.98Z"></path><path class="cls-5" d="m1336.4,2801.09c-21.29,25.9-48.34,55.82-79.41,89.77-21.87,24.75-49.49,54.09-85.17,90.35-1.15,1.15-1.73,1.73-2.88,2.3-33.95,33.95-50.64,39.13-62.73,39.71-10.36-.58-17.26-2.3-18.41-24.17.58-12.08,11.51-43.16,21.87-73.66,8.63-25.32,16.69-50.07,16.69-62.15,0-5.18-1.15-8.06-6.33-9.21-11.51,0-31.08,11.51-51.22,33.95-28.77,31.08-44.31,59.85-62.15,107.61l-3.45,12.08-46.04,158.25c-2.88,11.51-20.72,8.63-17.84-2.88l46.04-158.83c23.59-81.14,44.31-145.02,45.46-158.25.58-11.51,19.57-11.51,17.84,0-1.15,7.48-6.91,29.35-16.11,60.42,6.91-9.78,14.39-19.57,23.59-29.92,24.75-27.62,51.79-39.13,66.18-39.71,14.96.58,21.87,10.36,21.87,24.75,0,13.24-8.06,40.28-17.26,67.91-9.78,28.2-20.14,56.97-21.29,69.06,0,5.75-.58,7.48,2.3,6.91,10.36.58,21.87-6.91,50.64-35.68.58-.58,1.73-1.15,2.3-1.73,35.1-35.1,62.15-63.88,83.44-88.62,30.5-32.8,57.55-63.88,78.84-89.2,23.02-29.35,38.56-51.79,38.56-66.18-.58-8.63-4.6-13.81-10.36-13.81-12.66.58-11.51-16.69.58-17.26,14.96,0,27.05,9.78,27.05,29.35,0,17.26-15.54,44.31-42.58,78.84Z"></path><path class="cls-5" d="m1350.79,2710.16c-7.48,0-13.24,3.45-18.99,9.78-14.39,17.26-27.05,52.94-46.04,126.03l-43.16,159.98c21.29-2.3,47.76-18.41,66.18-36.25,8.06-8.63,20.72,2.88,12.08,11.51-23.02,22.44-56.97,41.43-83.44,42.58l-38.56,142.14c-2.88,11.51-20.72,8.63-17.26-2.88l37.98-140.41c-10.36-1.73-16.11-4.6-22.44-9.78-9.78-6.91,2.88-21.29,11.51-14.39,4.6,3.45,8.63,5.75,15.54,6.91l43.74-162.28c20.72-76.54,36.25-115.09,50.07-134.08,10.93-11.51,20.72-16.11,34.53-16.69,11.51,0,9.78,18.41-1.73,17.84Z"></path><path class="cls-5" d="m1609.75,2801.09c-21.29,25.9-48.34,55.82-79.41,89.77-21.87,24.75-49.49,54.09-85.17,90.35-1.15,1.15-2.3,1.73-3.45,2.3-29.92,29.92-57.55,39.71-74.24,40.28-19.57-.58-31.65-10.36-31.65-47.19,0-2.88,0-5.18.58-8.06-5.75,4.03-10.93,8.63-15.54,13.24-8.63,8.63-20.14-3.45-11.51-12.08,8.06-8.63,20.14-17.26,29.92-24.17,4.03-24.17,13.24-46.04,24.75-63.88,15.54-28.2,37.98-44.89,56.4-44.31,20.72.58,28.2,8.63,27.62,26.47,0,16.11-14.96,35.68-53.52,61.57-13.24,8.63-28.77,21.29-39.13,28.77-.58,6.91-1.15,13.81-1.15,20.72,0,22.44,2.88,31.65,14.39,31.08,14.39,0,37.98-10.93,63.3-36.25.58-.58,1.73-1.15,2.3-1.73,35.1-35.1,62.15-63.88,83.44-88.62,30.5-32.8,57.55-63.88,78.84-89.2,23.02-29.35,38.56-51.79,38.56-66.18-.58-8.63-4.6-13.81-10.36-13.81-12.66.58-11.51-16.69.58-17.26,14.96,0,27.05,9.78,27.05,29.35,0,17.26-15.54,44.31-42.59,78.84Zm-191.06,54.09c-13.81-.58-28.77,13.81-40.28,34.53-7.48,11.51-13.81,24.75-17.84,39.71,8.06-6.33,16.69-13.24,24.75-18.41,29.92-20.14,44.89-32.8,44.89-45.46,0-7.48-3.45-10.93-11.51-10.36Z"></path><path class="cls-5" d="m1624.14,2710.16c-7.48,0-13.24,4.6-21.29,14.96-14.39,18.41-28.2,54.67-47.19,117.97-18.42,65.03-28.77,115.09-28.2,138.69-.58,17.26,0,23.59,5.76,24.75,10.36-1.73,24.17-12.08,50.07-36.83,8.63-8.63,20.14,3.45,12.08,12.08-32.23,31.08-51.22,41.43-63.88,41.43-10.93.58-22.44-6.91-22.44-39.71.58-24.75,10.36-77.11,29.35-143.87,19.57-66.18,36.25-104.16,50.64-123.73,12.66-17.26,24.75-23.59,36.83-23.59s10.36,17.84-1.73,17.84Z"></path><path class="cls-5" d="m713.11,2152.51c-1.15,1.15-1.73,1.73-2.88,2.3-26.47,26.47-51.22,39.71-65.03,39.71-17.84,0-23.02-10.93-23.02-33.38.58-20.14,17.26-84.59,40.28-152.5,9.21-27.62,18.99-55.82,28.77-82.29l-199.69,269.32c-6.91,9.21-18.41,4.6-14.96-6.33l75.39-268.74c-27.05,37.41-53.52,71.36-88.62,117.4-41.43,55.24-73.08,91.5-97.83,115.09-32.8,31.08-55.24,41.43-78.84,41.43-16.11-.58-36.83-10.36-52.37-29.35-6.91-8.63,6.91-20.14,13.81-12.08,12.66,14.96,28.2,24.17,40.28,23.59,19.57,0,37.98-9.21,65.6-35.1,24.17-23.59,54.67-58.7,94.95-113.37,48.34-62.15,79.99-101.28,117.97-159.4,6.33-10.36,18.99-5.75,16.11,5.75l-77.11,274.5,208.32-280.83c6.91-9.78,19.57-3.45,14.96,6.91-14.96,38.56-32.8,89.2-50.07,137.54-21.87,65.6-39.13,127.75-38.56,146.74-.58,10.36-2.3,17.26,5.75,17.26,12.08.58,31.08-13.24,53.52-35.68.58-.58,1.73-1.15,2.3-1.73,25.9-25.9,81.72-82.29,104.73-104.73,8.63-8.06,20.72,4.03,11.51,12.08-23.59,23.02-81.14,81.72-105.31,105.89Z"></path><path class="cls-5" d="m943.29,2152.51c-1.15,1.15-2.3,1.73-3.45,2.3-32.8,32.8-49.49,39.13-62.15,39.71-11.51,0-18.41-2.3-17.84-23.59,0-7.48,1.15-17.84,3.45-31.08-22.44,31.08-53.52,54.67-74.81,55.24-21.29-.58-28.77-18.41-28.77-42.58.58-36.25,12.08-72.51,31.08-98.98,20.14-27.62,46.04-45.46,73.08-45.46,10.93,0,24.75,3.45,35.1,8.06v-.58c4.03-10.36,19.57-7.48,16.11,3.45-25.9,77.69-38.56,127.75-37.98,150.2,0,5.75,0,7.48,2.3,8.06,10.93,0,22.44-7.48,50.64-36.83,1.15-.58,1.73-1.15,2.88-1.73,25.9-25.9,81.14-81.72,104.16-104.16,8.63-8.06,20.72,4.03,11.51,12.08-23.59,23.02-81.14,81.72-105.31,105.89Zm-80.57-126.6c-21.29,0-42.01,15.54-56.97,37.41-17.84,23.02-28.77,55.24-28.2,86.9.58,14.39.58,27.05,12.66,27.05,18.99,0,45.46-25.32,64.45-54.67,16.11-25.32,31.08-68.48,37.41-89.77-9.21-3.45-20.72-6.91-29.35-6.91Z"></path><path class="cls-5" d="m1158.52,2152.51c-1.15,1.15-1.73,1.73-2.88,2.3-14.39,14.39-34.53,32.8-53.52,48.91l-5.18,19.57c-13.81,54.09-27.05,84.02-39.71,100.71-12.66,15.54-25.32,20.14-38.56,20.14-20.72-.58-32.23-12.66-32.23-31.08.58-20.72,7.48-42.58,67.33-90.92,9.21-6.91,20.14-16.11,31.65-26.47l14.96-56.97c-23.59,31.65-60.42,55.82-81.72,56.4-21.29-.58-28.77-18.41-28.77-42.58.58-39.71,15.54-78.84,37.41-105.89,18.41-23.59,42.58-37.98,66.75-38.56,17.26.58,29.92,3.45,39.13,6.91,4.03-10.93,20.14-7.48,17.26,4.03l-40.86,155.95c13.24-12.08,25.9-24.17,35.68-33.95.58-.58,1.73-1.15,2.3-1.73,33.38-33.38,79.41-85.17,98.98-124.88,5.18-10.93,20.14-4.6,15.54,5.75-18.99,42.58-69.63,98.4-103.58,132.36Zm-94.95,83.44c-50.64,40.28-59.27,57.55-58.7,75.96,0,8.63,5.18,13.81,15.54,15.54,8.63-.58,14.96-3.45,23.02-13.81,11.51-14.39,23.02-41.43,34.53-89.77-5.18,4.6-9.78,8.63-14.39,12.08Zm29.35-210.05c-19.57-.58-37.41,12.66-52.37,31.08-18.99,23.59-32.8,58.7-32.8,93.23.58,14.39.58,27.05,12.66,27.05,18.99,0,51.79-25.32,70.21-54.09,16.69-25.9,31.65-69.06,37.98-90.35-8.06-4.03-20.72-6.91-35.68-6.91Z"></path><path class="cls-5" d="m1224.11,2194.52c-11.51-.58-18.99-6.91-17.26-23.02-.58-20.14,11.51-77.11,39.13-155.95,3.45-10.93,20.14-6.91,16.69,3.45-26.47,77.11-38.56,131.78-38.56,150.77,0,4.03-.58,6.91,1.73,7.48,10.93,0,21.87-8.06,50.64-36.83,8.63-8.06,20.72,4.03,11.51,12.08-35.1,35.68-50.64,41.43-63.88,42.01Zm56.97-246.3c-3.45,10.93-20.14,7.48-16.69-3.45l10.93-36.83c4.03-10.93,20.72-7.48,17.26,3.45l-11.51,36.83Z"></path><path class="cls-5" d="m1412.86,2152.51c-1.15,1.15-2.3,1.73-3.45,2.3-29.92,29.92-57.55,39.71-74.24,40.28-19.57-.58-31.65-10.36-31.65-47.19,0-2.88,0-5.18.58-8.06-5.75,4.03-10.93,8.63-15.54,13.24-8.63,8.63-20.14-3.45-11.51-12.08,8.06-8.63,20.14-17.26,29.92-24.17,4.03-24.17,13.24-46.04,24.75-63.88,15.54-28.2,37.98-44.89,56.4-44.31,20.72.58,28.2,8.63,27.62,26.47,0,16.11-14.96,35.68-53.52,61.57-13.24,8.63-28.77,21.29-39.13,28.77-.58,6.91-1.15,13.81-1.15,20.72,0,22.44,2.88,31.65,14.39,31.08,14.39,0,37.98-10.93,63.3-36.25.58-.58,1.73-1.15,2.3-1.73,21.29-22.44,54.09-62.15,77.11-88.62,8.06-8.63,21.29,1.73,13.24,10.93-24.17,27.05-58.12,69.06-79.42,90.92Zm-26.47-126.03c-13.81-.58-28.77,13.81-40.28,34.53-7.48,11.51-13.81,24.75-17.84,39.71,8.06-6.33,16.69-13.24,24.75-18.41,29.92-20.14,44.89-32.8,44.89-45.46,0-7.48-3.45-10.93-11.51-10.36Z"></path><path class="cls-5" d="m1625.2,2055.83c-16.69,0-28.77-6.33-33.95-20.14-5.75,4.6-10.93,9.78-16.11,15.54-14.96,16.69-23.02,32.8-61,136.96-3.45,11.51-20.72,7.48-16.69-4.03,27.05-77.11,39.13-128.9,38.56-150.2,0-4.03,2.88-7.48,0-8.06-8.06,0-23.59,13.81-42.58,36.25-8.06,9.21-21.29-1.15-13.81-10.93,25.9-29.35,47.76-43.74,58.12-42.58,12.08,0,16.69,5.75,16.11,24.17-.58,5.18-.58,13.24-1.73,21.87,2.88-4.6,6.91-10.93,9.78-14.39,10.36-12.08,21.29-20.14,31.65-26.47,7.48-4.03,14.39,3.45,12.66,9.78,2.88,9.78,10.36,14.96,21.29,14.96,15.54,0,33.95-10.93,44.89-23.59,7.48-9.21,20.72,2.3,12.66,11.51-14.39,14.96-37.98,29.35-59.85,29.35Z"></path><rect class="cls-6" x="966.01" y="2208.41" width="171.79" height="171.79" rx="85.9" ry="85.9"></rect><g class="cls-4"><path class="cls-8" d="m912.29,2872.45l-32.23,143.29c-2.88,11.51-19.57,9.21-17.26-1.73l32.23-142.72c-31.08.58-59.85.58-85.74-.58-65.6,73.08-107.61,113.37-134.66,133.51-19.57,14.39-33.95,19.57-45.46,19.57-19.57-1.15-32.23-6.91-43.16-17.84-7.48-8.06,5.18-20.72,13.24-12.66,8.06,8.06,17.26,13.24,31.08,12.66,9.21-.58,19.57-4.6,33.95-15.54,26.47-18.99,64.45-55.24,122.57-120.85-15.54-1.73-29.92-3.45-43.16-6.91-10.93-2.3-5.75-18.99,5.18-17.26,15.54,4.03,33.38,5.75,52.37,7.48l.58-.58c44.31-50.64,87.47-98.98,133.51-155.95,7.48-9.21,17.26-4.6,14.96,6.33l-33.95,151.92c48.34-.58,101.28-9.21,120.85-16.11,11.51-4.6,16.69,12.08,4.6,16.11-21.29,6.91-77.69,16.69-129.48,17.84Zm-88.62-18.41c23.02.58,48.34.58,75.39,0l26.47-119.12c-34.53,41.43-67.91,79.41-101.86,119.12Zm103.58-181.85c-3.45,10.93-20.72,8.63-17.84-3.45l10.36-37.41c2.88-12.08,20.72-8.63,17.26,2.3l-9.78,38.56Zm50.07,0c-2.88,11.51-20.72,8.06-17.84-3.45l10.36-37.98c2.88-11.51,20.72-8.06,17.84,3.45l-10.36,37.98Z"></path></g><g class="cls-10"><path class="cls-8" d="m1158.52,2152.51c-1.15,1.15-1.73,1.73-2.88,2.3-14.39,14.39-34.53,32.8-53.52,48.91l-5.18,19.57c-13.81,54.09-27.05,84.02-39.71,100.71-12.66,15.54-25.32,20.14-38.56,20.14-20.72-.58-32.23-12.66-32.23-31.08.58-20.72,7.48-42.58,67.33-90.92,9.21-6.91,20.14-16.11,31.65-26.47l14.96-56.97c-23.59,31.65-60.42,55.82-81.72,56.4-21.29-.58-28.77-18.41-28.77-42.58.58-39.71,15.54-78.84,37.41-105.89,18.41-23.59,42.58-37.98,66.75-38.56,17.26.58,29.92,3.45,39.13,6.91,4.03-10.93,20.14-7.48,17.26,4.03l-40.86,155.95c13.24-12.08,25.9-24.17,35.68-33.95.58-.58,1.73-1.15,2.3-1.73,33.38-33.38,79.41-85.17,98.98-124.88,5.18-10.93,20.14-4.6,15.54,5.75-18.99,42.58-69.63,98.4-103.58,132.36Zm-94.95,83.44c-50.64,40.28-59.27,57.55-58.7,75.96,0,8.63,5.18,13.81,15.54,15.54,8.63-.58,14.96-3.45,23.02-13.81,11.51-14.39,23.02-41.43,34.53-89.77-5.18,4.6-9.78,8.63-14.39,12.08Zm29.35-210.05c-19.57-.58-37.41,12.66-52.37,31.08-18.99,23.59-32.8,58.7-32.8,93.23.58,14.39.58,27.05,12.66,27.05,18.99,0,51.79-25.32,70.21-54.09,16.69-25.9,31.65-69.06,37.98-90.35-8.06-4.03-20.72-6.91-35.68-6.91Z"></path></g><g class="cls-12"><path class="cls-8" d="m1077.02,1220.74c-15.03,0-27.75-.58-37.58-2.31-7.52,27.17-38.16,84.98-72.27,117.36-17.34,16.77-35.27,26.59-50.3,27.17-13.88.58-21.97-6.94-22.55-23.7.58-9.25,1.73-26.02,6.94-52.61-11.56,19.66-24.28,37-37,49.72-16.77,17.34-32.95,26.59-47.98,26.59-15.03,1.16-23.13-7.52-22.55-23.7,0-13.3,2.31-38.16,13.3-80.94,5.78-19.66,13.87-45.09,24.28-75.16,3.47-10.98,20.23-6.94,16.77,3.47-10.41,30.06-18.5,54.92-24.28,75.16-9.83,40.47-12.72,64.17-12.14,75.73,0,5.2,1.73,8.09,5.78,8.09,10.98.58,22.55-8.67,34.11-20.81,31.22-31.22,62.44-92.5,79.78-141.64,4.63-10.98,20.81-7.52,17.34,4.05-10.98,31.8-19.08,56.66-24.28,78.05-10.41,37.58-12.14,61.28-11.56,72.84-.58,4.63,1.16,7.52,5.2,6.94,11.56.58,24.86-8.09,37.58-21.39,32.37-30.64,64.75-87.87,67.06-109.84-12.14-5.2-17.34-12.14-17.34-20.81,0-1.16,0-2.31.58-3.47,1.16-9.83,6.36-13.3,15.61-13.3s17.34,6.94,19.08,25.44c9.25,1.16,21.97,1.73,37.58,1.16,43.94.58,79.78-21.97,79.78-21.97,10.41-6.94,19.66,7.52,9.25,13.88,0,0-41.05,26.02-90.19,26.02Z"></path></g><path class="cls-7" d="m945.62,531.52c-10.34-1.72-16.08-4.6-22.4-9.76-9.76-6.89,2.87-21.25,11.49-14.36,4.6,3.45,8.62,5.74,15.51,6.89l18.38.57c21.25-2.3,47.67-18.38,66.06-36.19,8.04-8.62,20.68,2.87,12.06,11.49-22.98,22.4-56.87,41.36-83.29,42.51l-17.81-1.15Z"></path><path class="cls-5" d="m1611.34,1309.01l.58-.58c33.95-33.38,90.35-89.2,124.3-128.9,8.06-9.21,21.29,1.15,13.24,10.36-35.1,40.86-90.92,96.1-124.88,130.06l-.58.58"></path><g class="cls-11"><path class="cls-8" d="m1609.75,2801.09c-21.29,25.9-48.34,55.82-79.41,89.77-21.87,24.75-49.49,54.09-85.17,90.35-1.15,1.15-2.3,1.73-3.45,2.3-29.92,29.92-57.55,39.71-74.24,40.28-19.57-.58-31.65-10.36-31.65-47.19,0-2.88,0-5.18.58-8.06-5.75,4.03-10.93,8.63-15.54,13.24-8.63,8.63-20.14-3.45-11.51-12.08,8.06-8.63,20.14-17.26,29.92-24.17,4.03-24.17,13.24-46.04,24.75-63.88,15.54-28.2,37.98-44.89,56.4-44.31,20.72.58,28.2,8.63,27.62,26.47,0,16.11-14.96,35.68-53.52,61.57-13.24,8.63-28.77,21.29-39.13,28.77-.58,6.91-1.15,13.81-1.15,20.72,0,22.44,2.88,31.65,14.39,31.08,14.39,0,37.98-10.93,63.3-36.25.58-.58,1.73-1.15,2.3-1.73,35.1-35.1,62.15-63.88,83.44-88.62,30.5-32.8,57.55-63.88,78.84-89.2,23.02-29.35,38.56-51.79,38.56-66.18-.58-8.63-4.6-13.81-10.36-13.81-12.66.58-11.51-16.69.58-17.26,14.96,0,27.05,9.78,27.05,29.35,0,17.26-15.54,44.31-42.59,78.84Zm-191.06,54.09c-13.81-.58-28.77,13.81-40.28,34.53-7.48,11.51-13.81,24.75-17.84,39.71,8.06-6.33,16.69-13.24,24.75-18.41,29.92-20.14,44.89-32.8,44.89-45.46,0-7.48-3.45-10.93-11.51-10.36Z"></path><path class="cls-8" d="m1624.14,2710.16c-7.48,0-13.24,4.6-21.29,14.96-14.39,18.41-28.2,54.67-47.19,117.97-18.42,65.03-28.77,115.09-28.2,138.69-.58,17.26,0,23.59,5.76,24.75,10.36-1.73,24.17-12.08,50.07-36.83,8.63-8.63,20.14,3.45,12.08,12.08-32.23,31.08-51.22,41.43-63.88,41.43-10.93.58-22.44-6.91-22.44-39.71.58-24.75,10.36-77.11,29.35-143.87,19.57-66.18,36.25-104.16,50.64-123.73,12.66-17.26,24.75-23.59,36.83-23.59s10.36,17.84-1.73,17.84Z"></path></g></svg> 