<?xml version="1.0" encoding="UTF-8"?> <svg xmlns="http://www.w3.org/2000/svg" xmlns:xlink="http://www.w3.org/1999/xlink" id="Layer_1" viewBox="0 0 1920 4345"><defs><style>.cls-1,.cls-2,.cls-3,.cls-4{fill:none;}.cls-5{clip-path:url(#clippath);}.cls-6{fill:#ebebeb;}.cls-7{fill:#fff;}.cls-8{fill:#937fbb;}.cls-9{fill:#171c32;}.cls-10{clip-path:url(#clippath-1);}.cls-11{clip-path:url(#clippath-3);}.cls-12{clip-path:url(#clippath-2);}.cls-2{stroke:#fff;stroke-width:2px;}.cls-2,.cls-3,.cls-4{stroke-miterlimit:10;}.cls-3{stroke:#a797c9;stroke-dasharray:0 0 1.74 17.45;stroke-linecap:round;stroke-width:7px;}.cls-4{stroke:#57678b;stroke-width:3.5px;}</style><clipPath id="clippath"><rect class="cls-1" x="1121.1" y="3937.22" width="175.58" height="175.58" rx="87.79" ry="87.79"></rect></clipPath><clipPath id="clippath-1"><circle class="cls-1" cx="927.44" cy="2085.52" r="111.28"></circle></clipPath><clipPath id="clippath-2"><circle class="cls-1" cx="917.27" cy="2500.27" r="111.28"></circle></clipPath><clipPath id="clippath-3"><circle class="cls-1" cx="1296.97" cy="2660.98" r="49.44"></circle></clipPath></defs><rect class="cls-9" x=".41" width="1920.32" height="4345"></rect><line class="cls-4" y1="1557.89" x2="1919.46" y2="1557.89"></line><line class="cls-4" y1="1743.93" x2="1919.46" y2="1743.93"></line><line class="cls-4" x1="1919.46" y1="1928.81" y2="1928.81"></line><line class="cls-4" y1="2114.57" x2="1919.46" y2="2114.57"></line><line class="cls-4" y1="2460.57" x2="1919.46" y2="2460.57"></line><line class="cls-4" y1="2647.61" x2="1919.46" y2="2647.61"></line><line class="cls-4" x1="1919.46" y1="2832.49" y2="2832.49"></line><line class="cls-4" y1="3018.25" x2="1919.46" y2="3018.25"></line><line class="cls-4" x1=".09" y1="3537.04" x2="1919.55" y2="3537.04"></line><line class="cls-4" x1=".09" y1="3720.08" x2="1919.55" y2="3720.08"></line><line class="cls-4" x1="1919.55" y1="3904.96" x2=".09" y2="3904.96"></line><line class="cls-4" x1=".09" y1="4090.72" x2="1919.55" y2="4090.72"></line><line class="cls-4" y1="339.47" x2="1919.46" y2="339.47"></line><line class="cls-4" y1="525.51" x2="1919.46" y2="525.51"></line><line class="cls-4" x1="1919.46" y1="710.39" y2="710.39"></line><line class="cls-4" y1="896.15" x2="1919.46" y2="896.15"></line><polygon class="cls-8" points="1381.83 896.7 1330.44 896.7 1386.12 340.6 1436.51 340.6 1381.83 896.7"></polygon><path class="cls-6" d="m604.95,3347.43h5.58l14.01,39.86h.12v-39.86h4.09v48.36h-5.08l-14.51-41.04h-.12v41.04h-4.09v-48.36Z"></path><path class="cls-6" d="m634.03,3381.9v-2.6h4.34v2.54c0,4.65,0,10.85,7.13,10.85,4.59,0,6.88-2.42,6.88-8.43,0-6.82-2.54-8.87-5.21-10.04l-4.59-2.05c-4.9-2.17-7.75-6.45-7.75-13.39,0-5.95,2.29-12.15,10.91-12.15,10.35,0,10.6,9.55,10.6,15v2.6h-4.34v-2.23c0-8.25-.87-11.47-6.32-11.47-4.9,0-6.39,3.1-6.39,8.74,0,6.2,2.85,8.06,5.58,9.36l4.28,2.05c3.29,1.55,7.56,4.22,7.56,13.14,0,7.75-3.22,12.77-11.22,12.77-11.16,0-11.47-9.18-11.47-14.69Z"></path><path class="cls-6" d="m659.32,3347.43h4.21l5.95,42.84h.12l7.07-42.84h4.46l7.25,42.84h.12l5.7-42.84h4.22l-7.25,48.36h-5.52l-6.7-40.3h-.12l-6.63,40.3h-5.52l-7.38-48.36Z"></path><path class="cls-6" d="m713.32,3347.43h17.3v3.84h-12.96v19.03h10.11v4.03h-10.11v21.45h-4.34v-48.36Z"></path><path class="cls-6" d="m733.1,3371.61c0-17.3,3.35-24.98,12.52-24.98s12.15,8.18,12.15,24.98c0,18.41-3.41,24.98-12.34,24.98s-12.34-6.51-12.34-24.98Zm20.15,0c0-14.32-1.49-20.96-7.81-20.96s-7.81,6.63-7.81,20.96,1.49,21.14,7.81,21.14,7.81-6.32,7.81-21.14Z"></path><path class="cls-6" d="m763.67,3383.14v-35.71h4.34v36.33c0,6.08,1.8,8.93,6.2,8.93s6.08-2.85,6.08-8.93v-36.33h4.34v35.28c0,9.67-3.22,13.89-10.48,13.89s-10.48-3.72-10.48-13.45Z"></path><path class="cls-6" d="m791.75,3347.43h5.58l14.01,39.86h.12v-39.86h4.09v48.36h-5.08l-14.51-41.04h-.12v41.04h-4.09v-48.36Z"></path><path class="cls-6" d="m823,3347.43h7.31c10.35,0,15.5,6.26,15.5,24.18s-5.15,24.18-15.5,24.18h-7.31v-48.36Zm7.25,44.51c7.81,0,11.04-5.02,11.04-20.33s-3.1-20.33-10.91-20.33h-3.04v40.67h2.91Z"></path><path class="cls-6" d="m865.9,3379.05h-10.54l-3.22,16.74h-4.46l10.29-48.36h5.39l10.29,48.36h-4.4l-3.35-16.74Zm-.68-3.72l-4.65-23.31h-.06l-4.46,23.31h9.18Z"></path><path class="cls-6" d="m881.03,3351.27h-10.17v-3.84h24.67v3.84h-10.17v44.51h-4.34v-44.51Z"></path><path class="cls-6" d="m899.88,3347.43h4.34v48.36h-4.34v-48.36Z"></path><path class="cls-6" d="m910.42,3371.61c0-17.3,3.35-24.98,12.52-24.98s12.15,8.18,12.15,24.98c0,18.41-3.41,24.98-12.34,24.98s-12.34-6.51-12.34-24.98Zm20.15,0c0-14.32-1.49-20.96-7.81-20.96s-7.81,6.63-7.81,20.96,1.49,21.14,7.81,21.14,7.81-6.32,7.81-21.14Z"></path><path class="cls-6" d="m941.3,3347.43h5.58l14.01,39.86h.12v-39.86h4.09v48.36h-5.08l-14.51-41.04h-.12v41.04h-4.09v-48.36Z"></path><path class="cls-6" d="m983.08,3347.43h4.34v44.51h14.07v3.84h-18.41v-48.36Z"></path><path class="cls-6" d="m1003.36,3371.61c0-17.3,3.35-24.98,12.52-24.98s12.15,8.18,12.15,24.98c0,18.41-3.41,24.98-12.34,24.98s-12.34-6.51-12.34-24.98Zm20.15,0c0-14.32-1.49-20.96-7.81-20.96s-7.81,6.63-7.81,20.96,1.49,21.14,7.81,21.14,7.81-6.32,7.81-21.14Z"></path><path class="cls-6" d="m1033,3371.61c0-17.3,3.35-24.98,12.52-24.98s12.15,8.18,12.15,24.98c0,18.41-3.41,24.98-12.34,24.98s-12.34-6.51-12.34-24.98Zm20.15,0c0-14.32-1.49-20.96-7.81-20.96s-7.81,6.63-7.81,20.96,1.49,21.14,7.81,21.14,7.81-6.32,7.81-21.14Z"></path><path class="cls-6" d="m1063.87,3347.43h8.87c8.37,0,13.33,4.09,13.33,14.38,0,7.13-2.48,15.07-12.4,15.07h-5.39v18.91h-4.4v-48.36Zm9.24,25.67c6.45,0,8.49-3.91,8.49-11.34,0-7.81-3.16-10.48-8.62-10.48h-4.71v21.82h4.84Z"></path><path class="cls-6" d="m1091.03,3347.43h16.68v3.91h-12.34v18.17h9.49v4.03h-9.49v18.35h12.34v3.91h-16.68v-48.36Z"></path><path class="cls-6" d="m1112.98,3347.43h7.32c10.35,0,15.5,6.26,15.5,24.18s-5.15,24.18-15.5,24.18h-7.32v-48.36Zm7.25,44.51c7.81,0,11.04-5.02,11.04-20.33s-3.1-20.33-10.91-20.33h-3.04v40.67h2.91Z"></path><path class="cls-6" d="m1151.29,3371.61c0-17.3,3.35-24.98,12.9-24.98,6.88,0,10.54,4.28,10.54,15.19v2.29h-4.21v-2.17c0-8.37-2.11-11.41-6.39-11.41-6.7,0-8.31,6.76-8.31,21.08s1.74,21.08,8.43,21.08c4.28,0,6.26-2.73,6.26-11.22v-2.73h4.21v2.73c0,10.85-3.6,15.13-10.6,15.13-9.49,0-12.83-7.07-12.83-24.98Z"></path><path class="cls-6" d="m1180.62,3383.14v-35.71h4.34v36.33c0,6.08,1.8,8.93,6.2,8.93s6.08-2.85,6.08-8.93v-36.33h4.34v35.28c0,9.67-3.22,13.89-10.48,13.89s-10.48-3.72-10.48-13.45Z"></path><path class="cls-6" d="m1208.7,3347.43h9.3c8.37,0,13.21,3.97,13.21,13.08,0,4.84-1.8,10.97-7.56,13.21l8.8,22.01v.06h-4.65l-8.12-21.26h-6.57v21.26h-4.4v-48.36Zm9.49,23.37c6.45,0,8.56-4.09,8.56-10.35,0-6.63-3.04-9.18-8.49-9.18h-5.15v19.53h5.08Z"></path><path class="cls-6" d="m1234.93,3381.9v-2.6h4.34v2.54c0,4.65,0,10.85,7.13,10.85,4.59,0,6.88-2.42,6.88-8.43,0-6.82-2.54-8.87-5.21-10.04l-4.59-2.05c-4.9-2.17-7.75-6.45-7.75-13.39,0-5.95,2.29-12.15,10.91-12.15,10.35,0,10.6,9.55,10.6,15v2.6h-4.34v-2.23c0-8.25-.87-11.47-6.32-11.47-4.9,0-6.39,3.1-6.39,8.74,0,6.2,2.85,8.06,5.58,9.36l4.28,2.05c3.29,1.55,7.56,4.22,7.56,13.14,0,7.75-3.22,12.77-11.22,12.77-11.16,0-11.47-9.18-11.47-14.69Z"></path><path class="cls-6" d="m1263.51,3347.43h4.34v48.36h-4.34v-48.36Z"></path><path class="cls-6" d="m1272.19,3347.43h4.4l8.37,43.27h.12l8.12-43.27h4.46l-9.98,48.36h-5.46l-10.04-48.36Z"></path><path class="cls-6" d="m1302.01,3347.43h16.68v3.91h-12.34v18.17h9.49v4.03h-9.49v18.35h12.34v3.91h-16.68v-48.36Z"></path><rect class="cls-2" x="576.37" y="3313.34" width="768.73" height="118.22"></rect><path class="cls-6" d="m651.23,146.73h5.58l14.01,39.86h.12v-39.86h4.09v48.36h-5.08l-14.51-41.04h-.12v41.04h-4.09v-48.36Z"></path><path class="cls-6" d="m680.31,181.2v-2.6h4.34v2.54c0,4.65,0,10.85,7.13,10.85,4.59,0,6.88-2.42,6.88-8.43,0-6.82-2.54-8.87-5.21-10.04l-4.59-2.05c-4.9-2.17-7.75-6.45-7.75-13.39,0-5.95,2.29-12.15,10.91-12.15,10.35,0,10.6,9.55,10.6,15v2.6h-4.34v-2.23c0-8.25-.87-11.47-6.32-11.47-4.9,0-6.39,3.1-6.39,8.74,0,6.2,2.85,8.06,5.58,9.36l4.28,2.05c3.29,1.55,7.56,4.22,7.56,13.14,0,7.75-3.22,12.77-11.22,12.77-11.16,0-11.47-9.18-11.47-14.69Z"></path><path class="cls-6" d="m705.61,146.73h4.21l5.95,42.84h.12l7.07-42.84h4.46l7.25,42.84h.12l5.7-42.84h4.22l-7.25,48.36h-5.52l-6.7-40.3h-.12l-6.63,40.3h-5.52l-7.38-48.36Z"></path><path class="cls-6" d="m759.61,146.73h17.3v3.84h-12.96v19.03h10.11v4.03h-10.11v21.45h-4.34v-48.36Z"></path><path class="cls-6" d="m779.38,170.91c0-17.3,3.35-24.98,12.52-24.98s12.15,8.18,12.15,24.98c0,18.41-3.41,24.98-12.34,24.98s-12.34-6.51-12.34-24.98Zm20.15,0c0-14.32-1.49-20.95-7.81-20.95s-7.81,6.63-7.81,20.95,1.49,21.14,7.81,21.14,7.81-6.32,7.81-21.14Z"></path><path class="cls-6" d="m809.95,182.44v-35.71h4.34v36.33c0,6.08,1.8,8.93,6.2,8.93s6.08-2.85,6.08-8.93v-36.33h4.34v35.28c0,9.67-3.22,13.89-10.48,13.89s-10.48-3.72-10.48-13.45Z"></path><path class="cls-6" d="m838.04,146.73h5.58l14.01,39.86h.12v-39.86h4.09v48.36h-5.08l-14.51-41.04h-.12v41.04h-4.09v-48.36Z"></path><path class="cls-6" d="m869.29,146.73h7.31c10.35,0,15.5,6.26,15.5,24.18s-5.15,24.18-15.5,24.18h-7.31v-48.36Zm7.25,44.51c7.81,0,11.04-5.02,11.04-20.33s-3.1-20.33-10.91-20.33h-3.04v40.67h2.91Z"></path><path class="cls-6" d="m912.19,178.35h-10.54l-3.22,16.74h-4.46l10.29-48.36h5.39l10.29,48.36h-4.4l-3.35-16.74Zm-.68-3.72l-4.65-23.31h-.06l-4.46,23.31h9.18Z"></path><path class="cls-6" d="m927.32,150.58h-10.17v-3.84h24.67v3.84h-10.17v44.51h-4.34v-44.51Z"></path><path class="cls-6" d="m946.16,146.73h4.34v48.36h-4.34v-48.36Z"></path><path class="cls-6" d="m956.7,170.91c0-17.3,3.35-24.98,12.52-24.98s12.15,8.18,12.15,24.98c0,18.41-3.41,24.98-12.34,24.98s-12.34-6.51-12.34-24.98Zm20.15,0c0-14.32-1.49-20.95-7.81-20.95s-7.81,6.63-7.81,20.95,1.49,21.14,7.81,21.14,7.81-6.32,7.81-21.14Z"></path><path class="cls-6" d="m987.58,146.73h5.58l14.01,39.86h.12v-39.86h4.09v48.36h-5.08l-14.51-41.04h-.12v41.04h-4.09v-48.36Z"></path><path class="cls-6" d="m1029.37,146.73h8.87c8.37,0,13.33,4.09,13.33,14.38,0,7.13-2.48,15.07-12.4,15.07h-5.39v18.91h-4.4v-48.36Zm9.24,25.67c6.45,0,8.49-3.91,8.49-11.35,0-7.81-3.16-10.48-8.62-10.48h-4.71v21.82h4.84Z"></path><path class="cls-6" d="m1056.52,146.73h9.3c8.37,0,13.21,3.97,13.21,13.08,0,4.84-1.8,10.97-7.56,13.21l8.8,22.01v.06h-4.65l-8.12-21.26h-6.57v21.26h-4.4v-48.36Zm9.49,23.37c6.45,0,8.56-4.09,8.56-10.35,0-6.63-3.04-9.18-8.49-9.18h-5.15v19.53h5.08Z"></path><path class="cls-6" d="m1084.92,146.73h16.68v3.91h-12.34v18.17h9.49v4.03h-9.49v18.35h12.34v3.91h-16.68v-48.36Z"></path><path class="cls-6" d="m1105.01,170.91c0-17.3,3.35-24.98,12.9-24.98,6.88,0,10.54,4.28,10.54,15.19v2.29h-4.21v-2.17c0-8.37-2.11-11.41-6.39-11.41-6.7,0-8.31,6.76-8.31,21.08s1.74,21.08,8.43,21.08c4.28,0,6.26-2.73,6.26-11.22v-2.73h4.21v2.73c0,10.85-3.6,15.13-10.6,15.13-9.49,0-12.83-7.07-12.83-24.98Z"></path><path class="cls-6" d="m1134.33,182.44v-35.71h4.34v36.33c0,6.08,1.8,8.93,6.2,8.93s6.08-2.85,6.08-8.93v-36.33h4.34v35.28c0,9.67-3.22,13.89-10.48,13.89s-10.48-3.72-10.48-13.45Z"></path><path class="cls-6" d="m1162.42,146.73h9.3c8.37,0,13.21,3.97,13.21,13.08,0,4.84-1.8,10.97-7.56,13.21l8.8,22.01v.06h-4.65l-8.12-21.26h-6.57v21.26h-4.4v-48.36Zm9.49,23.37c6.45,0,8.56-4.09,8.56-10.35,0-6.63-3.04-9.18-8.49-9.18h-5.15v19.53h5.08Z"></path><path class="cls-6" d="m1188.65,181.2v-2.6h4.34v2.54c0,4.65,0,10.85,7.13,10.85,4.59,0,6.88-2.42,6.88-8.43,0-6.82-2.54-8.87-5.21-10.04l-4.59-2.05c-4.9-2.17-7.75-6.45-7.75-13.39,0-5.95,2.29-12.15,10.91-12.15,10.35,0,10.6,9.55,10.6,15v2.6h-4.34v-2.23c0-8.25-.87-11.47-6.32-11.47-4.9,0-6.39,3.1-6.39,8.74,0,6.2,2.85,8.06,5.58,9.36l4.28,2.05c3.29,1.55,7.56,4.22,7.56,13.14,0,7.75-3.22,12.77-11.22,12.77-11.16,0-11.47-9.18-11.47-14.69Z"></path><path class="cls-6" d="m1217.23,146.73h4.34v48.36h-4.34v-48.36Z"></path><path class="cls-6" d="m1225.91,146.73h4.4l8.37,43.27h.12l8.12-43.27h4.46l-9.98,48.36h-5.46l-10.04-48.36Z"></path><path class="cls-6" d="m1255.73,146.73h16.68v3.91h-12.34v18.17h9.49v4.03h-9.49v18.35h12.34v3.91h-16.68v-48.36Z"></path><rect class="cls-2" x="620.71" y="111.65" width="680.06" height="118.22"></rect><path class="cls-6" d="m595.24,1228.83h5.58l14.01,39.86h.12v-39.86h4.09v48.36h-5.08l-14.51-41.04h-.12v41.04h-4.09v-48.36Z"></path><path class="cls-6" d="m624.32,1263.3v-2.6h4.34v2.54c0,4.65,0,10.85,7.13,10.85,4.59,0,6.88-2.42,6.88-8.43,0-6.82-2.54-8.87-5.21-10.04l-4.59-2.05c-4.9-2.17-7.75-6.45-7.75-13.39,0-5.95,2.29-12.15,10.91-12.15,10.35,0,10.6,9.55,10.6,15v2.6h-4.34v-2.23c0-8.25-.87-11.47-6.32-11.47-4.9,0-6.39,3.1-6.39,8.74,0,6.2,2.85,8.06,5.58,9.36l4.28,2.05c3.29,1.55,7.56,4.22,7.56,13.14,0,7.75-3.22,12.77-11.22,12.77-11.16,0-11.47-9.18-11.47-14.69Z"></path><path class="cls-6" d="m649.62,1228.83h4.21l5.95,42.84h.12l7.07-42.84h4.46l7.25,42.84h.12l5.7-42.84h4.22l-7.25,48.36h-5.52l-6.7-40.3h-.12l-6.63,40.3h-5.52l-7.38-48.36Z"></path><path class="cls-6" d="m703.62,1228.83h17.3v3.84h-12.96v19.03h10.11v4.03h-10.11v21.45h-4.34v-48.36Z"></path><path class="cls-6" d="m723.4,1253.01c0-17.3,3.35-24.98,12.52-24.98s12.15,8.18,12.15,24.98c0,18.41-3.41,24.98-12.34,24.98s-12.34-6.51-12.34-24.98Zm20.15,0c0-14.32-1.49-20.95-7.81-20.95s-7.81,6.63-7.81,20.95,1.49,21.14,7.81,21.14,7.81-6.32,7.81-21.14Z"></path><path class="cls-6" d="m753.96,1264.54v-35.71h4.34v36.33c0,6.08,1.8,8.93,6.2,8.93s6.08-2.85,6.08-8.93v-36.33h4.34v35.28c0,9.67-3.22,13.89-10.48,13.89s-10.48-3.72-10.48-13.45Z"></path><path class="cls-6" d="m782.05,1228.83h5.58l14.01,39.86h.12v-39.86h4.09v48.36h-5.08l-14.51-41.04h-.12v41.04h-4.09v-48.36Z"></path><path class="cls-6" d="m813.3,1228.83h7.31c10.35,0,15.5,6.26,15.5,24.18s-5.15,24.18-15.5,24.18h-7.31v-48.36Zm7.25,44.51c7.81,0,11.04-5.02,11.04-20.33s-3.1-20.33-10.91-20.33h-3.04v40.67h2.91Z"></path><path class="cls-6" d="m856.2,1260.45h-10.54l-3.22,16.74h-4.46l10.29-48.36h5.39l10.29,48.36h-4.4l-3.35-16.74Zm-.68-3.72l-4.65-23.31h-.06l-4.46,23.31h9.18Z"></path><path class="cls-6" d="m871.33,1232.67h-10.17v-3.84h24.67v3.84h-10.17v44.51h-4.34v-44.51Z"></path><path class="cls-6" d="m890.18,1228.83h4.34v48.36h-4.34v-48.36Z"></path><path class="cls-6" d="m900.72,1253.01c0-17.3,3.35-24.98,12.52-24.98s12.15,8.18,12.15,24.98c0,18.41-3.41,24.98-12.34,24.98s-12.34-6.51-12.34-24.98Zm20.15,0c0-14.32-1.49-20.95-7.81-20.95s-7.81,6.63-7.81,20.95,1.49,21.14,7.81,21.14,7.81-6.32,7.81-21.14Z"></path><path class="cls-6" d="m931.59,1228.83h5.58l14.01,39.86h.12v-39.86h4.09v48.36h-5.08l-14.51-41.04h-.12v41.04h-4.09v-48.36Z"></path><path class="cls-6" d="m973.38,1228.83h5.39l9.86,31.31h.12l9.86-31.31h5.39v48.36h-4.09v-40.61h-.06l-9.61,30.44h-3.1l-9.61-30.44h-.06v40.61h-4.09v-48.36Z"></path><path class="cls-6" d="m1010.21,1253.01c0-17.3,3.35-24.98,12.52-24.98s12.15,8.18,12.15,24.98c0,18.41-3.41,24.98-12.34,24.98s-12.34-6.51-12.34-24.98Zm20.15,0c0-14.32-1.49-20.95-7.81-20.95s-7.81,6.63-7.81,20.95,1.49,21.14,7.81,21.14,7.81-6.32,7.81-21.14Z"></path><path class="cls-6" d="m1041.09,1228.83h7.32c10.35,0,15.5,6.26,15.5,24.18s-5.15,24.18-15.5,24.18h-7.32v-48.36Zm7.25,44.51c7.81,0,11.04-5.02,11.04-20.33s-3.1-20.33-10.91-20.33h-3.04v40.67h2.91Z"></path><path class="cls-6" d="m1070.1,1228.83h16.68v3.91h-12.34v18.17h9.49v4.03h-9.49v18.35h12.34v3.91h-16.68v-48.36Z"></path><path class="cls-6" d="m1092.05,1228.83h9.3c8.37,0,13.21,3.97,13.21,13.08,0,4.84-1.8,10.97-7.56,13.21l8.8,22.01v.06h-4.65l-8.12-21.26h-6.57v21.26h-4.4v-48.36Zm9.49,23.37c6.45,0,8.56-4.09,8.56-10.35,0-6.63-3.04-9.18-8.49-9.18h-5.15v19.53h5.08Z"></path><path class="cls-6" d="m1120.45,1228.83h5.58l14.01,39.86h.12v-39.86h4.09v48.36h-5.08l-14.51-41.04h-.12v41.04h-4.09v-48.36Z"></path><path class="cls-6" d="m1160.99,1253.01c0-17.3,3.35-24.98,12.9-24.98,6.88,0,10.54,4.28,10.54,15.19v2.29h-4.21v-2.17c0-8.37-2.11-11.41-6.39-11.41-6.7,0-8.31,6.76-8.31,21.08s1.74,21.08,8.43,21.08c4.28,0,6.26-2.73,6.26-11.22v-2.73h4.21v2.73c0,10.85-3.6,15.13-10.6,15.13-9.49,0-12.83-7.07-12.83-24.98Z"></path><path class="cls-6" d="m1190.32,1264.54v-35.71h4.34v36.33c0,6.08,1.8,8.93,6.2,8.93s6.08-2.85,6.08-8.93v-36.33h4.34v35.28c0,9.67-3.22,13.89-10.48,13.89s-10.48-3.72-10.48-13.45Z"></path><path class="cls-6" d="m1218.41,1228.83h9.3c8.37,0,13.21,3.97,13.21,13.08,0,4.84-1.8,10.97-7.56,13.21l8.8,22.01v.06h-4.65l-8.12-21.26h-6.57v21.26h-4.4v-48.36Zm9.49,23.37c6.45,0,8.56-4.09,8.56-10.35,0-6.63-3.04-9.18-8.49-9.18h-5.15v19.53h5.08Z"></path><path class="cls-6" d="m1244.63,1263.3v-2.6h4.34v2.54c0,4.65,0,10.85,7.13,10.85,4.59,0,6.88-2.42,6.88-8.43,0-6.82-2.54-8.87-5.21-10.04l-4.59-2.05c-4.9-2.17-7.75-6.45-7.75-13.39,0-5.95,2.29-12.15,10.91-12.15,10.35,0,10.6,9.55,10.6,15v2.6h-4.34v-2.23c0-8.25-.87-11.47-6.32-11.47-4.9,0-6.39,3.1-6.39,8.74,0,6.2,2.85,8.06,5.58,9.36l4.28,2.05c3.29,1.55,7.56,4.22,7.56,13.14,0,7.75-3.22,12.77-11.22,12.77-11.16,0-11.47-9.18-11.47-14.69Z"></path><path class="cls-6" d="m1273.21,1228.83h4.34v48.36h-4.34v-48.36Z"></path><path class="cls-6" d="m1281.89,1228.83h4.4l8.37,43.27h.12l8.12-43.27h4.46l-9.98,48.36h-5.46l-10.04-48.36Z"></path><path class="cls-6" d="m1311.72,1228.83h16.68v3.91h-12.34v18.17h9.49v4.03h-9.49v18.35h12.34v3.91h-16.68v-48.36Z"></path><rect class="cls-2" x="563.48" y="1194.74" width="794.02" height="118.22"></rect><line class="cls-3" x1="816.16" y1="789.1" x2="816.16" y2="988.62"></line><line class="cls-3" x1="1215.1" y1="1481.64" x2="1215.1" y2="1700.27"></line><path class="cls-7" d="m1250.2,953.39v-2.02h3.02v2.18c0,3.74,2.6,6.05,7.94,6.05s8.44-1.97,8.44-6.22c0-3.32-1.39-5.17-4.92-6.09l-6.64-1.72c-4.33-1.13-7.18-2.98-7.18-8.15s3.78-8.91,10.92-8.91,10.59,3.44,10.59,9.07v2.94h-3.02v-2.81c0-4.62-3.07-6.51-7.56-6.51-5.12,0-7.81,2.14-7.81,6.01,0,3.61,1.76,4.7,5.55,5.71l5.75,1.55c5.12,1.39,7.43,3.74,7.43,8.65,0,6.09-4.33,9.24-11.47,9.24-9.12,0-11.05-4.7-11.05-8.99Z"></path><path class="cls-7" d="m1279.89,929.07h2.94v32.77h-2.94v-32.77Z"></path><path class="cls-7" d="m1290.18,929.07h2.98v6.51h-2.98v-6.51Zm0,11.76h2.94v21h-2.94v-21Z"></path><path class="cls-7" d="m1299.89,963.64v-.13h3.11v.13c0,2.9,1.93,4.33,6.13,4.33,4.79,0,7.01-2.94,7.01-7.86v-2.1h-.08c-1.09,2.18-3.65,4.07-7.48,4.07-6.3,0-9.75-3.99-9.75-10.71,0-7.1,4.37-11.09,9.96-11.09,3.78,0,6.55,1.81,7.56,4.12h.13l.29-3.57h2.31v19.16c0,5.88-2.81,10.71-10.33,10.71-6.3,0-8.86-2.98-8.86-7.06Zm16.59-12.77c0-5.5-3.36-8.07-7.35-8.07-3.03,0-7.14,1.47-7.14,8.4s3.57,8.32,7.1,8.32c4.24,0,7.39-2.73,7.39-8.65Z"></path><path class="cls-7" d="m1326.43,929.07h2.94v15.16c1.05-2.1,3.28-3.95,7.31-3.95,4.75,0,7.77,2.52,7.77,7.94v13.61h-2.94v-13.27c0-4.33-2.14-5.71-5.5-5.71-3.82,0-6.64,2.69-6.64,5.63v13.36h-2.94v-32.77Z"></path><path class="cls-7" d="m1362.76,959.15v2.6c-.76.21-2.14.59-4.03.59-3.82,0-6.34-1.6-6.34-6.89v-12.18h-4.16v-2.44h4.16v-6.05l2.94-1.43v7.48h5.92v2.44h-5.92v11.8c0,2.81.76,4.58,3.4,4.58,1.6,0,3.23-.29,4.03-.5Z"></path><path class="cls-7" d="m1375.36,955.41v-1.18h2.94v1.13c0,2.86,2.14,4.5,5.96,4.5s5.8-1.01,5.8-3.78c0-2.06-1.01-2.81-3.86-3.32l-4.62-.84c-3.02-.55-5.54-2.02-5.54-5.5,0-3.15,2.35-6.13,8.4-6.13s8.4,3.02,8.4,7.23v.88h-2.98v-.76c0-3.44-2.14-4.91-5.42-4.91-3.95,0-5.33,1.34-5.33,3.36s1.01,2.86,3.91,3.4l4.03.76c4.12.76,6.09,1.93,6.09,5.59,0,4.58-4.12,6.55-8.78,6.55-7.31,0-8.99-3.28-8.99-6.97Z"></path><path class="cls-7" d="m1399,929.07h2.94v32.77h-2.94v-32.77Z"></path><path class="cls-7" d="m1408.03,956.04c0-3.95,2.23-6.09,7.86-6.09h6.34v-1.72c0-2.98-1.26-5.42-5.46-5.42-3.95,0-5.33,1.51-5.33,4.12v.88h-2.98v-.84c0-5,4.2-6.68,8.32-6.68,5.8,0,8.4,2.86,8.4,8.44v13.11h-2.06l-.55-2.98h-.08c-1.26,1.89-3.7,3.53-7.35,3.53-4.92,0-7.1-2.31-7.1-6.34Zm14.2-1.85v-1.76h-7.01c-2.65,0-4.03.92-4.03,3.61,0,2.35,1.26,3.86,4.5,3.86,4.16,0,6.55-2.14,6.55-5.71Z"></path><path class="cls-7" d="m1432.52,940.83h2.6l.29,3.49c1.01-2.14,3.28-4.03,7.35-4.03,4.75,0,7.77,2.52,7.77,7.94v13.61h-2.94v-13.27c0-4.33-2.14-5.71-5.5-5.71-3.82,0-6.64,2.69-6.64,5.63v13.36h-2.94v-21Z"></path><path class="cls-7" d="m1468.85,959.15v2.6c-.76.21-2.14.59-4.03.59-3.82,0-6.34-1.6-6.34-6.89v-12.18h-4.16v-2.44h4.16v-6.05l2.94-1.43v7.48h5.92v2.44h-5.92v11.8c0,2.81.76,4.58,3.4,4.58,1.6,0,3.23-.29,4.03-.5Z"></path><path class="cls-7" d="m624.3,1004.24h3.15l17.69,27.6h.04v-27.6h2.94v32.77h-3.07l-17.77-27.94h-.04v27.94h-2.94v-32.77Z"></path><path class="cls-7" d="m655.46,1031.21c0-3.95,2.23-6.09,7.86-6.09h6.34v-1.72c0-2.98-1.26-5.42-5.46-5.42-3.95,0-5.33,1.51-5.33,4.12v.88h-2.98v-.84c0-5,4.2-6.68,8.32-6.68,5.8,0,8.4,2.86,8.4,8.44v13.11h-2.06l-.55-2.98h-.08c-1.26,1.89-3.7,3.53-7.35,3.53-4.92,0-7.1-2.31-7.1-6.34Zm14.2-1.85v-1.76h-7.01c-2.65,0-4.03.92-4.03,3.61,0,2.35,1.26,3.86,4.5,3.86,4.16,0,6.55-2.14,6.55-5.71Z"></path><path class="cls-7" d="m679.95,1016h2.6l.29,3.91c1.01-2.14,3.07-4.45,6.76-4.45,1.26,0,2.18.21,3.02.55v3.15c-1.13-.5-2.1-.76-3.4-.76-3.74,0-6.34,2.81-6.34,5.75v12.85h-2.94v-21Z"></path><path class="cls-7" d="m697.25,1016h2.6l.29,3.91c1.01-2.14,3.07-4.45,6.76-4.45,1.26,0,2.18.21,3.02.55v3.15c-1.13-.5-2.1-.76-3.4-.76-3.74,0-6.34,2.81-6.34,5.75v12.85h-2.94v-21Z"></path><path class="cls-7" d="m712.25,1026.5c0-6.22,3.32-11.05,10.38-11.05,6.59,0,10.25,4.83,10.25,11.05s-3.7,11.05-10.29,11.05c-7.27,0-10.33-4.83-10.33-11.05Zm17.56,0c0-5.33-2.9-8.49-7.22-8.49-4.75,0-7.27,3.15-7.27,8.49s2.56,8.49,7.27,8.49c4.33,0,7.22-3.15,7.22-8.49Z"></path><path class="cls-7" d="m735.18,1016.04v-.04h2.98l5.76,17.48h.08l6.3-17.48h2.69l6.17,17.48h.08l5.75-17.48h2.86v.04l-7.18,20.96h-3.02l-5.96-17.06h-.08l-6.22,17.06h-3.02l-7.18-20.96Z"></path><path class="cls-7" d="m782.34,1016h2.39l.34,3.86h.08c1.13-2.48,4.03-4.41,7.86-4.41,6.3,0,9.66,3.99,9.66,11.01s-4.29,11.09-9.87,11.09c-3.78,0-6.38-1.6-7.43-3.7h-.08v11.55h-2.94v-29.41Zm17.18,10.63c0-7.18-3.4-8.61-6.93-8.61-4.24,0-7.56,2.73-7.56,8.44,0,6.01,3.45,8.57,7.44,8.57,3.02,0,7.06-1.47,7.06-8.4Z"></path><path class="cls-7" d="m808.55,1016h2.6l.29,3.91c1.01-2.14,3.07-4.45,6.76-4.45,1.26,0,2.18.21,3.02.55v3.15c-1.13-.5-2.1-.76-3.4-.76-3.74,0-6.34,2.81-6.34,5.75v12.85h-2.94v-21Z"></path><path class="cls-7" d="m823.54,1026.5c0-6.22,3.32-11.05,10.38-11.05,6.59,0,10.25,4.83,10.25,11.05s-3.7,11.05-10.29,11.05c-7.27,0-10.33-4.83-10.33-11.05Zm17.56,0c0-5.33-2.9-8.49-7.22-8.49-4.75,0-7.27,3.15-7.27,8.49s2.56,8.49,7.27,8.49c4.33,0,7.22-3.15,7.22-8.49Z"></path><path class="cls-7" d="m850.05,1016h2.39l.34,3.86h.08c1.13-2.48,4.03-4.41,7.86-4.41,6.3,0,9.66,3.99,9.66,11.01s-4.29,11.09-9.87,11.09c-3.78,0-6.38-1.6-7.43-3.7h-.08v11.55h-2.94v-29.41Zm17.18,10.63c0-7.18-3.4-8.61-6.93-8.61-4.24,0-7.56,2.73-7.56,8.44,0,6.01,3.45,8.57,7.44,8.57,3.02,0,7.06-1.47,7.06-8.4Z"></path><path class="cls-7" d="m874.57,1026.5c0-6.22,3.32-11.05,10.38-11.05,6.59,0,10.25,4.83,10.25,11.05s-3.7,11.05-10.29,11.05c-7.27,0-10.33-4.83-10.33-11.05Zm17.56,0c0-5.33-2.9-8.49-7.22-8.49-4.75,0-7.27,3.15-7.27,8.49s2.56,8.49,7.27,8.49c4.33,0,7.22-3.15,7.22-8.49Z"></path><path class="cls-7" d="m901.08,1016h2.6l.29,3.91c1.01-2.14,3.07-4.45,6.76-4.45,1.26,0,2.18.21,3.02.55v3.15c-1.13-.5-2.1-.76-3.4-.76-3.74,0-6.34,2.81-6.34,5.75v12.85h-2.94v-21Z"></path><path class="cls-7" d="m929.34,1034.32v2.6c-.76.21-2.14.59-4.03.59-3.82,0-6.34-1.6-6.34-6.89v-12.18h-4.16v-2.44h4.16v-6.05l2.94-1.43v7.48h5.92v2.44h-5.92v11.8c0,2.81.76,4.58,3.4,4.58,1.6,0,3.23-.29,4.03-.5Z"></path><path class="cls-7" d="m934.17,1004.24h2.98v6.51h-2.98v-6.51Zm0,11.76h2.94v21h-2.94v-21Z"></path><path class="cls-7" d="m942.82,1026.5c0-6.22,3.32-11.05,10.38-11.05,6.59,0,10.25,4.83,10.25,11.05s-3.7,11.05-10.29,11.05c-7.27,0-10.33-4.83-10.33-11.05Zm17.56,0c0-5.33-2.9-8.49-7.22-8.49-4.75,0-7.27,3.15-7.27,8.49s2.56,8.49,7.27,8.49c4.33,0,7.22-3.15,7.22-8.49Z"></path><path class="cls-7" d="m969.32,1016h2.6l.29,3.49c1.01-2.14,3.28-4.03,7.35-4.03,4.75,0,7.77,2.52,7.77,7.94v13.61h-2.94v-13.27c0-4.33-2.14-5.71-5.5-5.71-3.82,0-6.64,2.69-6.64,5.63v13.36h-2.94v-21Z"></path><path class="cls-7" d="m992.8,1030.58v-1.18h2.94v1.13c0,2.86,2.14,4.5,5.96,4.5s5.8-1.01,5.8-3.78c0-2.06-1.01-2.81-3.86-3.32l-4.62-.84c-3.02-.55-5.54-2.02-5.54-5.5,0-3.15,2.35-6.13,8.4-6.13s8.4,3.02,8.4,7.23v.88h-2.98v-.76c0-3.44-2.14-4.91-5.42-4.91-3.95,0-5.33,1.34-5.33,3.36s1.01,2.86,3.91,3.4l4.03.76c4.12.76,6.09,1.93,6.09,5.59,0,4.58-4.12,6.55-8.78,6.55-7.31,0-8.99-3.28-8.99-6.97Z"></path><path class="cls-7" d="m565.62,2298.66v-19.95h2.94v19.95c0,9.41,4.07,10.63,8.86,10.63s8.78-1.01,8.78-10.63v-19.95h2.94v19.62c0,11.64-5.33,13.69-11.76,13.69s-11.76-2.06-11.76-13.36Z"></path><path class="cls-7" d="m597.33,2290.46h2.61l.29,3.49c1.01-2.14,3.28-4.03,7.35-4.03,4.75,0,7.77,2.52,7.77,7.94v13.61h-2.94v-13.27c0-4.33-2.14-5.71-5.5-5.71-3.82,0-6.64,2.69-6.64,5.63v13.36h-2.94v-21Z"></path><path class="cls-7" d="m622.7,2278.7h2.94v32.77h-2.94v-32.77Z"></path><path class="cls-7" d="m631.31,2300.97c0-6.22,3.32-11.05,10.38-11.05,6.6,0,10.25,4.83,10.25,11.05s-3.7,11.05-10.29,11.05c-7.27,0-10.33-4.83-10.33-11.05Zm17.56,0c0-5.33-2.9-8.49-7.22-8.49-4.75,0-7.27,3.15-7.27,8.49s2.56,8.49,7.27,8.49c4.33,0,7.22-3.15,7.22-8.49Z"></path><path class="cls-7" d="m656.13,2300.97c0-6.22,3.32-11.05,10.38-11.05,6.59,0,10.25,4.83,10.25,11.05s-3.7,11.05-10.29,11.05c-7.27,0-10.33-4.83-10.33-11.05Zm17.56,0c0-5.33-2.9-8.49-7.22-8.49-4.75,0-7.27,3.15-7.27,8.49s2.56,8.49,7.27,8.49c4.33,0,7.22-3.15,7.22-8.49Z"></path><path class="cls-7" d="m682.63,2290.46h2.39l.34,3.87h.08c1.13-2.48,4.03-4.41,7.86-4.41,6.3,0,9.66,3.99,9.66,11.01s-4.29,11.09-9.87,11.09c-3.78,0-6.38-1.6-7.43-3.7h-.08v11.55h-2.94v-29.41Zm17.18,10.63c0-7.18-3.4-8.61-6.93-8.61-4.24,0-7.56,2.73-7.56,8.44,0,6.01,3.45,8.57,7.44,8.57,3.03,0,7.06-1.47,7.06-8.4Z"></path><path class="cls-7" d="m726.1,2301.98h-15.96c.17,4.79,2.48,7.48,6.93,7.48,3.82,0,5.67-1.43,5.96-4.83h2.98c-.29,4.24-3.28,7.39-9.03,7.39-7.06,0-9.83-4.66-9.83-10.88s3.23-11.22,10-11.22,8.95,3.99,8.95,10.21v1.85Zm-3.11-2.98c0-4.45-1.72-6.55-5.92-6.55s-6.55,2.65-6.89,6.97h12.81v-.42Z"></path><path class="cls-7" d="m730.3,2301.01c0-7.1,4.28-11.09,10.04-11.09,3.7,0,6.22,1.6,7.31,3.74h.04v-14.96h2.94v32.77h-1.97l-.67-3.61h-.08c-1.18,2.31-3.95,4.16-7.77,4.16-6.3,0-9.83-3.99-9.83-11.01Zm17.64-.5c0-5.5-3.36-8.07-7.35-8.07-3.11,0-7.14,1.47-7.14,8.4s3.61,8.61,7.14,8.61c4.24,0,7.35-2.73,7.35-8.95Z"></path><path class="cls-7" d="m766.38,2305.67c0-3.95,2.23-6.09,7.86-6.09h6.34v-1.72c0-2.98-1.26-5.42-5.46-5.42-3.95,0-5.34,1.51-5.34,4.12v.88h-2.98v-.84c0-5,4.2-6.68,8.32-6.68,5.8,0,8.4,2.86,8.4,8.44v13.11h-2.06l-.55-2.98h-.08c-1.26,1.89-3.7,3.53-7.35,3.53-4.91,0-7.1-2.31-7.1-6.34Zm14.2-1.85v-1.76h-7.02c-2.65,0-4.03.92-4.03,3.61,0,2.35,1.26,3.87,4.5,3.87,4.16,0,6.55-2.14,6.55-5.71Z"></path><path class="cls-7" d="m788.97,2305.04v-1.18h2.94v1.13c0,2.86,2.14,4.5,5.96,4.5s5.8-1.01,5.8-3.78c0-2.06-1.01-2.81-3.87-3.32l-4.62-.84c-3.02-.55-5.54-2.02-5.54-5.5,0-3.15,2.35-6.13,8.4-6.13s8.4,3.02,8.4,7.23v.88h-2.98v-.76c0-3.44-2.14-4.92-5.42-4.92-3.95,0-5.34,1.34-5.34,3.36s1.01,2.86,3.91,3.4l4.03.76c4.12.76,6.09,1.93,6.09,5.59,0,4.58-4.12,6.55-8.78,6.55-7.31,0-8.99-3.28-8.99-6.97Z"></path><path class="cls-7" d="m810.94,2301.13c0-6.38,3.23-11.22,10-11.22s8.95,3.91,8.95,8.95v.42h-3.11v-.63c0-3.82-1.64-6.09-5.84-6.09-4.75,0-7.02,3.11-7.02,8.4,0,5.63,2.39,8.49,6.93,8.49,3.82,0,5.84-1.85,5.92-5.67h3.03c-.08,4.66-3.15,8.23-9.03,8.23-7.22,0-9.83-4.75-9.83-10.88Z"></path><path class="cls-7" d="m853.02,2301.98h-15.96c.17,4.79,2.48,7.48,6.93,7.48,3.82,0,5.67-1.43,5.96-4.83h2.98c-.29,4.24-3.28,7.39-9.03,7.39-7.06,0-9.83-4.66-9.83-10.88s3.23-11.22,10-11.22,8.95,3.99,8.95,10.21v1.85Zm-3.11-2.98c0-4.45-1.72-6.55-5.92-6.55s-6.55,2.65-6.89,6.97h12.81v-.42Z"></path><path class="cls-7" d="m858.9,2290.46h2.6l.29,3.49c1.01-2.14,3.28-4.03,7.35-4.03,4.75,0,7.77,2.52,7.77,7.94v13.61h-2.94v-13.27c0-4.33-2.14-5.71-5.5-5.71-3.82,0-6.64,2.69-6.64,5.63v13.36h-2.94v-21Z"></path><path class="cls-7" d="m882.59,2301.01c0-7.1,4.29-11.09,10.04-11.09,3.7,0,6.22,1.6,7.31,3.74h.04v-14.96h2.94v32.77h-1.97l-.67-3.61h-.08c-1.18,2.31-3.95,4.16-7.77,4.16-6.3,0-9.83-3.99-9.83-11.01Zm17.64-.5c0-5.5-3.36-8.07-7.35-8.07-3.11,0-7.14,1.47-7.14,8.4s3.61,8.61,7.14,8.61c4.24,0,7.35-2.73,7.35-8.95Z"></path><path class="cls-7" d="m927.53,2301.98h-15.96c.17,4.79,2.48,7.48,6.93,7.48,3.82,0,5.67-1.43,5.97-4.83h2.98c-.29,4.24-3.28,7.39-9.03,7.39-7.06,0-9.83-4.66-9.83-10.88s3.23-11.22,10-11.22,8.95,3.99,8.95,10.21v1.85Zm-3.11-2.98c0-4.45-1.72-6.55-5.92-6.55s-6.55,2.65-6.89,6.97h12.81v-.42Z"></path><path class="cls-7" d="m933.41,2290.46h2.61l.29,3.91c1.01-2.14,3.07-4.45,6.76-4.45,1.26,0,2.19.21,3.03.55v3.15c-1.13-.5-2.1-.76-3.4-.76-3.74,0-6.34,2.81-6.34,5.75v12.85h-2.94v-21Z"></path><path class="cls-7" d="m948.61,2305.04v-1.18h2.94v1.13c0,2.86,2.14,4.5,5.96,4.5s5.8-1.01,5.8-3.78c0-2.06-1.01-2.81-3.87-3.32l-4.62-.84c-3.02-.55-5.54-2.02-5.54-5.5,0-3.15,2.35-6.13,8.4-6.13s8.4,3.02,8.4,7.23v.88h-2.98v-.76c0-3.44-2.14-4.92-5.42-4.92-3.95,0-5.34,1.34-5.34,3.36s1.01,2.86,3.91,3.4l4.03.76c4.12.76,6.09,1.93,6.09,5.59,0,4.58-4.12,6.55-8.78,6.55-7.31,0-8.99-3.28-8.99-6.97Z"></path><path class="cls-7" d="m980.66,2305.67c0-3.95,2.23-6.09,7.86-6.09h6.34v-1.72c0-2.98-1.26-5.42-5.46-5.42-3.95,0-5.34,1.51-5.34,4.12v.88h-2.98v-.84c0-5,4.2-6.68,8.32-6.68,5.8,0,8.4,2.86,8.4,8.44v13.11h-2.06l-.55-2.98h-.08c-1.26,1.89-3.7,3.53-7.35,3.53-4.91,0-7.1-2.31-7.1-6.34Zm14.2-1.85v-1.76h-7.02c-2.65,0-4.03.92-4.03,3.61,0,2.35,1.26,3.87,4.5,3.87,4.16,0,6.55-2.14,6.55-5.71Z"></path><path class="cls-7" d="m1005.14,2290.46h2.6l.29,3.49c1.01-2.14,3.28-4.03,7.35-4.03,4.75,0,7.77,2.52,7.77,7.94v13.61h-2.94v-13.27c0-4.33-2.14-5.71-5.5-5.71-3.82,0-6.64,2.69-6.64,5.63v13.36h-2.94v-21Z"></path><path class="cls-7" d="m1028.83,2301.01c0-7.1,4.28-11.09,10.04-11.09,3.7,0,6.22,1.6,7.31,3.74h.04v-14.96h2.94v32.77h-1.97l-.67-3.61h-.08c-1.18,2.31-3.95,4.16-7.77,4.16-6.3,0-9.83-3.99-9.83-11.01Zm17.64-.5c0-5.5-3.36-8.07-7.35-8.07-3.11,0-7.14,1.47-7.14,8.4s3.61,8.61,7.14,8.61c4.24,0,7.35-2.73,7.35-8.95Z"></path><path class="cls-7" d="m1064.49,2301.01c0-7.1,4.28-11.09,10.04-11.09,3.7,0,6.22,1.6,7.31,3.74h.04v-14.96h2.94v32.77h-1.97l-.67-3.61h-.08c-1.18,2.31-3.95,4.16-7.77,4.16-6.3,0-9.83-3.99-9.83-11.01Zm17.64-.5c0-5.5-3.36-8.07-7.35-8.07-3.11,0-7.14,1.47-7.14,8.4s3.61,8.61,7.14,8.61c4.24,0,7.35-2.73,7.35-8.95Z"></path><path class="cls-7" d="m1109.43,2301.98h-15.96c.17,4.79,2.48,7.48,6.93,7.48,3.82,0,5.67-1.43,5.96-4.83h2.98c-.29,4.24-3.28,7.39-9.03,7.39-7.06,0-9.83-4.66-9.83-10.88s3.23-11.22,10-11.22,8.95,3.99,8.95,10.21v1.85Zm-3.11-2.98c0-4.45-1.72-6.55-5.92-6.55s-6.55,2.65-6.89,6.97h12.81v-.42Z"></path><path class="cls-7" d="m1113.42,2305.04v-1.18h2.94v1.13c0,2.86,2.14,4.5,5.96,4.5s5.8-1.01,5.8-3.78c0-2.06-1.01-2.81-3.87-3.32l-4.62-.84c-3.02-.55-5.54-2.02-5.54-5.5,0-3.15,2.35-6.13,8.4-6.13s8.4,3.02,8.4,7.23v.88h-2.98v-.76c0-3.44-2.14-4.92-5.42-4.92-3.95,0-5.34,1.34-5.34,3.36s1.01,2.86,3.91,3.4l4.03.76c4.12.76,6.09,1.93,6.09,5.59,0,4.58-4.12,6.55-8.78,6.55-7.31,0-8.99-3.28-8.99-6.97Z"></path><path class="cls-7" d="m1135.38,2301.13c0-6.38,3.23-11.22,10-11.22s8.95,3.91,8.95,8.95v.42h-3.11v-.63c0-3.82-1.64-6.09-5.84-6.09-4.75,0-7.02,3.11-7.02,8.4,0,5.63,2.39,8.49,6.93,8.49,3.82,0,5.84-1.85,5.92-5.67h3.03c-.08,4.66-3.15,8.23-9.03,8.23-7.22,0-9.83-4.75-9.83-10.88Z"></path><path class="cls-7" d="m1177.47,2301.98h-15.96c.17,4.79,2.48,7.48,6.93,7.48,3.82,0,5.67-1.43,5.96-4.83h2.98c-.29,4.24-3.28,7.39-9.03,7.39-7.06,0-9.83-4.66-9.83-10.88s3.23-11.22,10-11.22,8.95,3.99,8.95,10.21v1.85Zm-3.11-2.98c0-4.45-1.72-6.55-5.92-6.55s-6.55,2.65-6.89,6.97h12.81v-.42Z"></path><path class="cls-7" d="m1183.35,2290.46h2.6l.29,3.49c1.01-2.14,3.28-4.03,7.35-4.03,4.75,0,7.77,2.52,7.77,7.94v13.61h-2.94v-13.27c0-4.33-2.14-5.71-5.5-5.71-3.82,0-6.64,2.69-6.64,5.63v13.36h-2.94v-21Z"></path><path class="cls-7" d="m1207.03,2301.01c0-7.1,4.29-11.09,10.04-11.09,3.7,0,6.22,1.6,7.31,3.74h.04v-14.96h2.94v32.77h-1.97l-.67-3.61h-.08c-1.18,2.31-3.95,4.16-7.77,4.16-6.3,0-9.83-3.99-9.83-11.01Zm17.64-.5c0-5.5-3.36-8.07-7.35-8.07-3.11,0-7.14,1.47-7.14,8.4s3.61,8.61,7.14,8.61c4.24,0,7.35-2.73,7.35-8.95Z"></path><path class="cls-7" d="m1251.98,2301.98h-15.96c.17,4.79,2.48,7.48,6.93,7.48,3.82,0,5.67-1.43,5.97-4.83h2.98c-.29,4.24-3.28,7.39-9.03,7.39-7.06,0-9.83-4.66-9.83-10.88s3.23-11.22,10-11.22,8.95,3.99,8.95,10.21v1.85Zm-3.11-2.98c0-4.45-1.72-6.55-5.92-6.55s-6.55,2.65-6.89,6.97h12.81v-.42Z"></path><path class="cls-7" d="m1257.85,2290.46h2.61l.29,3.91c1.01-2.14,3.07-4.45,6.76-4.45,1.26,0,2.19.21,3.03.55v3.15c-1.13-.5-2.1-.76-3.4-.76-3.74,0-6.34,2.81-6.34,5.75v12.85h-2.94v-21Z"></path><path class="cls-7" d="m1273.06,2305.04v-1.18h2.94v1.13c0,2.86,2.14,4.5,5.96,4.5s5.8-1.01,5.8-3.78c0-2.06-1.01-2.81-3.86-3.32l-4.62-.84c-3.03-.55-5.54-2.02-5.54-5.5,0-3.15,2.35-6.13,8.4-6.13s8.4,3.02,8.4,7.23v.88h-2.98v-.76c0-3.44-2.14-4.92-5.42-4.92-3.95,0-5.33,1.34-5.33,3.36s1.01,2.86,3.91,3.4l4.03.76c4.12.76,6.09,1.93,6.09,5.59,0,4.58-4.12,6.55-8.78,6.55-7.31,0-8.99-3.28-8.99-6.97Z"></path><path class="cls-7" d="m891.75,1448.71h-13.99l-3.74,10.33h-3.07l12.18-32.77h3.32l12.1,32.77h-3.07l-3.74-10.33Zm-.92-2.6l-6.05-16.8h-.04l-6.05,16.8h12.14Z"></path><path class="cls-7" d="m902.75,1438.04h2.6l.29,3.49c1.01-2.14,3.28-4.03,7.35-4.03,4.75,0,7.77,2.52,7.77,7.94v13.61h-2.94v-13.27c0-4.33-2.14-5.71-5.5-5.71-3.82,0-6.64,2.69-6.64,5.63v13.36h-2.94v-21Z"></path><path class="cls-7" d="m927.49,1460.85v-.13h3.11v.13c0,2.9,1.93,4.33,6.13,4.33,4.79,0,7.01-2.94,7.01-7.86v-2.1h-.08c-1.09,2.18-3.65,4.07-7.48,4.07-6.3,0-9.75-3.99-9.75-10.71,0-7.1,4.37-11.09,9.96-11.09,3.78,0,6.55,1.81,7.56,4.12h.13l.29-3.57h2.31v19.16c0,5.88-2.81,10.71-10.33,10.71-6.3,0-8.86-2.98-8.86-7.06Zm16.59-12.77c0-5.5-3.36-8.07-7.35-8.07-3.03,0-7.14,1.47-7.14,8.4s3.57,8.32,7.1,8.32c4.24,0,7.39-2.73,7.39-8.65Z"></path><path class="cls-7" d="m953.62,1451.65v-13.61h2.94v13.27c0,4.33,2.14,5.71,5.42,5.71,3.74,0,6.55-2.69,6.55-5.63v-13.36h2.94v21h-2.6l-.25-3.36h-.08c-.97,2.02-3.23,3.91-7.23,3.91-4.66,0-7.69-2.52-7.69-7.94Z"></path><path class="cls-7" d="m978.82,1426.27h2.94v32.77h-2.94v-32.77Z"></path><path class="cls-7" d="m987.85,1453.24c0-3.95,2.23-6.09,7.86-6.09h6.34v-1.72c0-2.98-1.26-5.42-5.46-5.42-3.95,0-5.33,1.51-5.33,4.12v.88h-2.98v-.84c0-5,4.2-6.68,8.32-6.68,5.8,0,8.4,2.86,8.4,8.44v13.11h-2.06l-.55-2.98h-.08c-1.26,1.89-3.7,3.53-7.35,3.53-4.92,0-7.1-2.31-7.1-6.34Zm14.2-1.85v-1.76h-7.01c-2.65,0-4.03.92-4.03,3.61,0,2.35,1.26,3.86,4.5,3.86,4.16,0,6.55-2.14,6.55-5.71Z"></path><path class="cls-7" d="m1012.33,1438.04h2.6l.29,3.91c1.01-2.14,3.07-4.45,6.76-4.45,1.26,0,2.18.21,3.02.55v3.15c-1.13-.5-2.1-.76-3.4-.76-3.74,0-6.34,2.81-6.34,5.75v12.85h-2.94v-21Z"></path><path class="cls-7" d="m1056.56,1449.55h-15.96c.17,4.79,2.48,7.48,6.93,7.48,3.82,0,5.67-1.43,5.97-4.83h2.98c-.29,4.24-3.28,7.39-9.03,7.39-7.06,0-9.83-4.66-9.83-10.88s3.23-11.22,10-11.22,8.95,3.99,8.95,10.21v1.85Zm-3.11-2.98c0-4.45-1.72-6.55-5.92-6.55s-6.55,2.65-6.89,6.97h12.81v-.42Z"></path><path class="cls-7" d="m1062.44,1438.04h2.6l.29,3.49c1.01-2.14,3.28-4.03,7.35-4.03,4.75,0,7.77,2.52,7.77,7.94v13.61h-2.94v-13.27c0-4.33-2.14-5.71-5.5-5.71-3.82,0-6.64,2.69-6.64,5.63v13.36h-2.94v-21Z"></path><path class="cls-7" d="m1098.77,1456.35v2.6c-.76.21-2.14.59-4.03.59-3.82,0-6.34-1.6-6.34-6.89v-12.18h-4.16v-2.44h4.16v-6.05l2.94-1.43v7.48h5.92v2.44h-5.92v11.8c0,2.81.76,4.58,3.4,4.58,1.6,0,3.23-.29,4.03-.5Z"></path><path class="cls-7" d="m1103.6,1438.04h2.6l.29,3.91c1.01-2.14,3.07-4.45,6.76-4.45,1.26,0,2.18.21,3.02.55v3.15c-1.13-.5-2.1-.76-3.4-.76-3.74,0-6.34,2.81-6.34,5.75v12.85h-2.94v-21Z"></path><path class="cls-7" d="m1121.11,1438.04l6.89,17.98h.08l7.14-17.98h3.07v.04l-8.86,20.84-3.11,8.53h-2.98v-.04l3.19-8.36-8.78-20.96v-.04h3.36Z"></path><path class="cls-7" d="m1150.26,1452.61v-1.18h2.94v1.13c0,2.86,2.14,4.5,5.96,4.5s5.8-1.01,5.8-3.78c0-2.06-1.01-2.81-3.86-3.32l-4.62-.84c-3.02-.55-5.54-2.02-5.54-5.5,0-3.15,2.35-6.13,8.4-6.13s8.4,3.02,8.4,7.23v.88h-2.98v-.76c0-3.44-2.14-4.91-5.42-4.91-3.95,0-5.33,1.34-5.33,3.36s1.01,2.86,3.91,3.4l4.03.76c4.12.76,6.09,1.93,6.09,5.59,0,4.58-4.12,6.55-8.78,6.55-7.31,0-8.99-3.28-8.99-6.97Z"></path><path class="cls-7" d="m1184.87,1456.35v2.6c-.76.21-2.14.59-4.03.59-3.82,0-6.34-1.6-6.34-6.89v-12.18h-4.16v-2.44h4.16v-6.05l2.94-1.43v7.48h5.92v2.44h-5.92v11.8c0,2.81.76,4.58,3.4,4.58,1.6,0,3.23-.29,4.03-.5Z"></path><path class="cls-7" d="m1189.69,1438.04h2.6l.29,3.91c1.01-2.14,3.07-4.45,6.76-4.45,1.26,0,2.18.21,3.02.55v3.15c-1.13-.5-2.1-.76-3.4-.76-3.74,0-6.34,2.81-6.34,5.75v12.85h-2.94v-21Z"></path><path class="cls-7" d="m1204.69,1448.54c0-6.22,3.32-11.05,10.38-11.05,6.59,0,10.25,4.83,10.25,11.05s-3.7,11.05-10.29,11.05c-7.27,0-10.33-4.83-10.33-11.05Zm17.56,0c0-5.33-2.9-8.49-7.22-8.49-4.75,0-7.27,3.15-7.27,8.49s2.56,8.49,7.27,8.49c4.33,0,7.22-3.15,7.22-8.49Z"></path><path class="cls-7" d="m1230.56,1426.27h2.94v23.23l12.14-11.47h3.65v.04l-8.4,7.86,8.78,13.06v.04h-3.36l-7.39-11.22-5.42,5.04v6.18h-2.94v-32.77Z"></path><path class="cls-7" d="m1270.92,1449.55h-15.96c.17,4.79,2.48,7.48,6.93,7.48,3.82,0,5.67-1.43,5.97-4.83h2.98c-.29,4.24-3.28,7.39-9.03,7.39-7.06,0-9.83-4.66-9.83-10.88s3.23-11.22,10-11.22,8.95,3.99,8.95,10.21v1.85Zm-3.11-2.98c0-4.45-1.72-6.55-5.92-6.55s-6.55,2.65-6.89,6.97h12.81v-.42Z"></path><path class="cls-7" d="m1274.91,1452.61v-1.18h2.94v1.13c0,2.86,2.14,4.5,5.96,4.5s5.8-1.01,5.8-3.78c0-2.06-1.01-2.81-3.86-3.32l-4.62-.84c-3.02-.55-5.54-2.02-5.54-5.5,0-3.15,2.35-6.13,8.4-6.13s8.4,3.02,8.4,7.23v.88h-2.98v-.76c0-3.44-2.14-4.91-5.42-4.91-3.95,0-5.33,1.34-5.33,3.36s1.01,2.86,3.91,3.4l4.03.76c4.12.76,6.09,1.93,6.09,5.59,0,4.58-4.12,6.55-8.78,6.55-7.31,0-8.99-3.28-8.99-6.97Z"></path><path class="cls-7" d="m1308.22,1426.27h2.98v6.51h-2.98v-6.51Zm0,11.76h2.94v21h-2.94v-21Z"></path><path class="cls-7" d="m1318.55,1438.04h2.6l.29,3.49c1.01-2.14,3.28-4.03,7.35-4.03,4.75,0,7.77,2.52,7.77,7.94v13.61h-2.94v-13.27c0-4.33-2.14-5.71-5.5-5.71-3.82,0-6.64,2.69-6.64,5.63v13.36h-2.94v-21Z"></path><path class="cls-7" d="m1355.26,1436.73h-3.36v-5.08c0-3.95.88-5.29,3.4-5.97l.67,1.85c-1.76.67-2.06,1.09-2.06,3.78v.34h1.34v5.08Zm5.92,0h-3.36v-5.08c0-3.95.88-5.29,3.4-5.97l.67,1.85c-1.76.67-2.06,1.09-2.06,3.78v.34h1.34v5.08Z"></path><path class="cls-7" d="m1367.56,1438.04h2.6l.29,3.49c1.01-2.14,3.28-4.03,7.35-4.03,4.75,0,7.77,2.52,7.77,7.94v13.61h-2.94v-13.27c0-4.33-2.14-5.71-5.5-5.71-3.82,0-6.64,2.69-6.64,5.63v13.36h-2.94v-21Z"></path><path class="cls-7" d="m1389.99,1435.47c1.76-.67,2.06-1.09,2.06-3.78v-.34h-1.34v-5.08h3.36v5.08c0,3.95-.88,5.29-3.4,5.97l-.67-1.85Zm5.92,0c1.76-.67,2.06-1.09,2.06-3.78v-.34h-1.34v-5.08h3.36v5.08c0,3.95-.88,5.29-3.4,5.97l-.67-1.85Z"></path><path class="cls-7" d="m1414.26,1453.24c0-3.95,2.23-6.09,7.86-6.09h6.34v-1.72c0-2.98-1.26-5.42-5.46-5.42-3.95,0-5.33,1.51-5.33,4.12v.88h-2.98v-.84c0-5,4.2-6.68,8.32-6.68,5.8,0,8.4,2.86,8.4,8.44v13.11h-2.06l-.55-2.98h-.08c-1.26,1.89-3.7,3.53-7.35,3.53-4.92,0-7.1-2.31-7.1-6.34Zm14.2-1.85v-1.76h-7.01c-2.65,0-4.03.92-4.03,3.61,0,2.35,1.26,3.86,4.5,3.86,4.16,0,6.55-2.14,6.55-5.71Z"></path><path class="cls-7" d="m1438.75,1438.04h2.6l.29,3.49c1.01-2.14,3.28-4.03,7.35-4.03,4.75,0,7.77,2.52,7.77,7.94v13.61h-2.94v-13.27c0-4.33-2.14-5.71-5.5-5.71-3.82,0-6.64,2.69-6.64,5.63v13.36h-2.94v-21Z"></path><path class="cls-7" d="m1462.44,1448.58c0-7.1,4.28-11.09,10.04-11.09,3.7,0,6.22,1.6,7.31,3.74h.04v-14.95h2.94v32.77h-1.97l-.67-3.61h-.08c-1.18,2.31-3.95,4.16-7.77,4.16-6.3,0-9.83-3.99-9.83-11.01Zm17.64-.5c0-5.5-3.36-8.07-7.35-8.07-3.11,0-7.14,1.47-7.14,8.4s3.61,8.61,7.14,8.61c4.24,0,7.35-2.73,7.35-8.95Z"></path><path class="cls-7" d="m1501.46,1436.73h-3.36v-5.08c0-3.95.88-5.29,3.4-5.97l.67,1.85c-1.76.67-2.06,1.09-2.06,3.78v.34h1.34v5.08Zm5.92,0h-3.36v-5.08c0-3.95.88-5.29,3.4-5.97l.67,1.85c-1.76.67-2.06,1.09-2.06,3.78v.34h1.34v5.08Z"></path><path class="cls-7" d="m1544.47,1445.43v13.61h-2.94v-13.27c0-4.33-2.14-5.71-4.75-5.71-3.82,0-6.17,2.69-6.17,5.63v13.36h-2.94v-13.27c0-4.33-1.85-5.71-4.83-5.71-3.61,0-6.13,2.69-6.13,5.63v13.36h-2.94v-21h2.6l.29,3.49c1.01-2.02,3.07-4.03,6.93-4.03,2.94,0,5.38,1.39,6.43,4.28,1.22-2.39,3.57-4.28,7.14-4.28,4.29,0,7.31,2.52,7.31,7.94Z"></path><path class="cls-7" d="m1548.87,1435.47c1.76-.67,2.06-1.09,2.06-3.78v-.34h-1.34v-5.08h3.36v5.08c0,3.95-.88,5.29-3.4,5.97l-.67-1.85Zm5.92,0c1.76-.67,2.06-1.09,2.06-3.78v-.34h-1.34v-5.08h3.36v5.08c0,3.95-.88,5.29-3.4,5.97l-.67-1.85Z"></path><line class="cls-3" x1="1170.65" y1="4118.8" x2="1170.65" y2="4168.96"></line><line class="cls-3" x1="1346.83" y1="3919.44" x2="1346.83" y2="4165.96"></line><path class="cls-7" d="m578.09,4187.12h2.94v30.12h15.71v2.65h-18.65v-32.77Z"></path><path class="cls-7" d="m599.89,4209.38c0-6.22,3.32-11.05,10.38-11.05,6.59,0,10.25,4.83,10.25,11.05s-3.7,11.05-10.29,11.05c-7.27,0-10.33-4.83-10.33-11.05Zm17.56,0c0-5.33-2.9-8.49-7.22-8.49-4.75,0-7.27,3.15-7.27,8.49s2.56,8.49,7.27,8.49c4.33,0,7.22-3.15,7.22-8.49Z"></path><path class="cls-7" d="m624.71,4209.38c0-6.22,3.32-11.05,10.38-11.05,6.59,0,10.25,4.83,10.25,11.05s-3.7,11.05-10.29,11.05c-7.27,0-10.33-4.83-10.33-11.05Zm17.56,0c0-5.33-2.9-8.49-7.22-8.49-4.75,0-7.27,3.15-7.27,8.49s2.56,8.49,7.27,8.49c4.33,0,7.22-3.15,7.22-8.49Z"></path><path class="cls-7" d="m651.21,4198.88h2.39l.34,3.86h.08c1.13-2.48,4.03-4.41,7.86-4.41,6.3,0,9.66,3.99,9.66,11.01s-4.29,11.09-9.87,11.09c-3.78,0-6.38-1.6-7.43-3.7h-.08v11.55h-2.94v-29.41Zm17.18,10.63c0-7.18-3.4-8.61-6.93-8.61-4.24,0-7.56,2.73-7.56,8.44,0,6.01,3.45,8.57,7.44,8.57,3.02,0,7.06-1.47,7.06-8.4Z"></path><path class="cls-7" d="m694.69,4210.39h-15.96c.17,4.79,2.48,7.48,6.93,7.48,3.82,0,5.67-1.43,5.97-4.83h2.98c-.29,4.24-3.28,7.39-9.03,7.39-7.06,0-9.83-4.66-9.83-10.88s3.23-11.22,10-11.22,8.95,3.99,8.95,10.21v1.85Zm-3.11-2.98c0-4.45-1.72-6.55-5.92-6.55s-6.55,2.65-6.89,6.97h12.81v-.42Z"></path><path class="cls-7" d="m698.88,4209.42c0-7.1,4.28-11.09,10.04-11.09,3.7,0,6.22,1.6,7.31,3.74h.04v-14.95h2.94v32.77h-1.97l-.67-3.61h-.08c-1.18,2.31-3.95,4.16-7.77,4.16-6.3,0-9.83-3.99-9.83-11.01Zm17.64-.5c0-5.5-3.36-8.07-7.35-8.07-3.11,0-7.14,1.47-7.14,8.4s3.61,8.61,7.14,8.61c4.24,0,7.35-2.73,7.35-8.95Z"></path><path class="cls-7" d="m734.96,4214.08c0-3.95,2.23-6.09,7.86-6.09h6.34v-1.72c0-2.98-1.26-5.42-5.46-5.42-3.95,0-5.33,1.51-5.33,4.12v.88h-2.98v-.84c0-5,4.2-6.68,8.32-6.68,5.8,0,8.4,2.86,8.4,8.44v13.11h-2.06l-.55-2.98h-.08c-1.26,1.89-3.7,3.53-7.35,3.53-4.92,0-7.1-2.31-7.1-6.34Zm14.2-1.85v-1.76h-7.01c-2.65,0-4.03.92-4.03,3.61,0,2.35,1.26,3.86,4.5,3.86,4.16,0,6.55-2.14,6.55-5.71Z"></path><path class="cls-7" d="m757.56,4213.45v-1.18h2.94v1.13c0,2.86,2.14,4.5,5.96,4.5s5.8-1.01,5.8-3.78c0-2.06-1.01-2.81-3.86-3.32l-4.62-.84c-3.02-.55-5.54-2.02-5.54-5.5,0-3.15,2.35-6.13,8.4-6.13s8.4,3.02,8.4,7.22v.88h-2.98v-.76c0-3.44-2.14-4.91-5.42-4.91-3.95,0-5.33,1.34-5.33,3.36s1.01,2.86,3.91,3.4l4.03.76c4.12.76,6.09,1.93,6.09,5.59,0,4.58-4.12,6.55-8.78,6.55-7.31,0-8.99-3.28-8.99-6.97Z"></path><path class="cls-7" d="m779.52,4209.55c0-6.38,3.23-11.22,10-11.22s8.95,3.91,8.95,8.95v.42h-3.11v-.63c0-3.82-1.64-6.09-5.84-6.09-4.75,0-7.01,3.11-7.01,8.4,0,5.63,2.39,8.49,6.93,8.49,3.82,0,5.84-1.85,5.92-5.67h3.02c-.08,4.66-3.15,8.23-9.03,8.23-7.22,0-9.83-4.75-9.83-10.88Z"></path><path class="cls-7" d="m821.61,4210.39h-15.96c.17,4.79,2.48,7.48,6.93,7.48,3.82,0,5.67-1.43,5.97-4.83h2.98c-.29,4.24-3.28,7.39-9.03,7.39-7.06,0-9.83-4.66-9.83-10.88s3.23-11.22,10-11.22,8.95,3.99,8.95,10.21v1.85Zm-3.11-2.98c0-4.45-1.72-6.55-5.92-6.55s-6.55,2.65-6.89,6.97h12.81v-.42Z"></path><path class="cls-7" d="m827.48,4198.88h2.6l.29,3.49c1.01-2.14,3.28-4.03,7.35-4.03,4.75,0,7.77,2.52,7.77,7.94v13.61h-2.94v-13.27c0-4.33-2.14-5.71-5.5-5.71-3.82,0-6.64,2.69-6.64,5.63v13.36h-2.94v-21Z"></path><path class="cls-7" d="m851.17,4209.42c0-7.1,4.28-11.09,10.04-11.09,3.7,0,6.22,1.6,7.31,3.74h.04v-14.95h2.94v32.77h-1.97l-.67-3.61h-.08c-1.18,2.31-3.95,4.16-7.77,4.16-6.3,0-9.83-3.99-9.83-11.01Zm17.64-.5c0-5.5-3.36-8.07-7.35-8.07-3.11,0-7.14,1.47-7.14,8.4s3.61,8.61,7.14,8.61c4.24,0,7.35-2.73,7.35-8.95Z"></path><path class="cls-7" d="m896.12,4210.39h-15.96c.17,4.79,2.48,7.48,6.93,7.48,3.82,0,5.67-1.43,5.97-4.83h2.98c-.29,4.24-3.28,7.39-9.03,7.39-7.06,0-9.83-4.66-9.83-10.88s3.23-11.22,10-11.22,8.95,3.99,8.95,10.21v1.85Zm-3.11-2.98c0-4.45-1.72-6.55-5.92-6.55s-6.55,2.65-6.89,6.97h12.81v-.42Z"></path><path class="cls-7" d="m901.99,4198.88h2.6l.29,3.91c1.01-2.14,3.07-4.45,6.76-4.45,1.26,0,2.18.21,3.02.55v3.15c-1.13-.5-2.1-.76-3.4-.76-3.74,0-6.34,2.81-6.34,5.75v12.85h-2.94v-21Z"></path><path class="cls-7" d="m917.2,4213.45v-1.18h2.94v1.13c0,2.86,2.14,4.5,5.96,4.5s5.8-1.01,5.8-3.78c0-2.06-1.01-2.81-3.86-3.32l-4.62-.84c-3.02-.55-5.54-2.02-5.54-5.5,0-3.15,2.35-6.13,8.4-6.13s8.4,3.02,8.4,7.22v.88h-2.98v-.76c0-3.44-2.14-4.91-5.42-4.91-3.95,0-5.33,1.34-5.33,3.36s1.01,2.86,3.91,3.4l4.03.76c4.12.76,6.09,1.93,6.09,5.59,0,4.58-4.12,6.55-8.78,6.55-7.31,0-8.99-3.28-8.99-6.97Z"></path><path class="cls-7" d="m949.24,4214.08c0-3.95,2.23-6.09,7.86-6.09h6.34v-1.72c0-2.98-1.26-5.42-5.46-5.42-3.95,0-5.33,1.51-5.33,4.12v.88h-2.98v-.84c0-5,4.2-6.68,8.32-6.68,5.8,0,8.4,2.86,8.4,8.44v13.11h-2.06l-.55-2.98h-.08c-1.26,1.89-3.7,3.53-7.35,3.53-4.92,0-7.1-2.31-7.1-6.34Zm14.2-1.85v-1.76h-7.01c-2.65,0-4.03.92-4.03,3.61,0,2.35,1.26,3.86,4.5,3.86,4.16,0,6.55-2.14,6.55-5.71Z"></path><path class="cls-7" d="m973.73,4198.88h2.6l.29,3.49c1.01-2.14,3.28-4.03,7.35-4.03,4.75,0,7.77,2.52,7.77,7.94v13.61h-2.94v-13.27c0-4.33-2.14-5.71-5.5-5.71-3.82,0-6.64,2.69-6.64,5.63v13.36h-2.94v-21Z"></path><path class="cls-7" d="m997.41,4209.42c0-7.1,4.28-11.09,10.04-11.09,3.7,0,6.22,1.6,7.31,3.74h.04v-14.95h2.94v32.77h-1.97l-.67-3.61h-.08c-1.18,2.31-3.95,4.16-7.77,4.16-6.3,0-9.83-3.99-9.83-11.01Zm17.64-.5c0-5.5-3.36-8.07-7.35-8.07-3.11,0-7.14,1.47-7.14,8.4s3.61,8.61,7.14,8.61c4.24,0,7.35-2.73,7.35-8.95Z"></path><path class="cls-7" d="m1033.07,4209.42c0-7.1,4.28-11.09,10.04-11.09,3.7,0,6.22,1.6,7.31,3.74h.04v-14.95h2.94v32.77h-1.97l-.67-3.61h-.08c-1.18,2.31-3.95,4.16-7.77,4.16-6.3,0-9.83-3.99-9.83-11.01Zm17.64-.5c0-5.5-3.36-8.07-7.35-8.07-3.11,0-7.14,1.47-7.14,8.4s3.61,8.61,7.14,8.61c4.24,0,7.35-2.73,7.35-8.95Z"></path><path class="cls-7" d="m1078.01,4210.39h-15.96c.17,4.79,2.48,7.48,6.93,7.48,3.82,0,5.67-1.43,5.97-4.83h2.98c-.29,4.24-3.28,7.39-9.03,7.39-7.06,0-9.83-4.66-9.83-10.88s3.23-11.22,10-11.22,8.95,3.99,8.95,10.21v1.85Zm-3.11-2.98c0-4.45-1.72-6.55-5.92-6.55s-6.55,2.65-6.89,6.97h12.81v-.42Z"></path><path class="cls-7" d="m1082,4213.45v-1.18h2.94v1.13c0,2.86,2.14,4.5,5.96,4.5s5.8-1.01,5.8-3.78c0-2.06-1.01-2.81-3.86-3.32l-4.62-.84c-3.02-.55-5.54-2.02-5.54-5.5,0-3.15,2.35-6.13,8.4-6.13s8.4,3.02,8.4,7.22v.88h-2.98v-.76c0-3.44-2.14-4.91-5.42-4.91-3.95,0-5.33,1.34-5.33,3.36s1.01,2.86,3.91,3.4l4.03.76c4.12.76,6.09,1.93,6.09,5.59,0,4.58-4.12,6.55-8.78,6.55-7.31,0-8.99-3.28-8.99-6.97Z"></path><path class="cls-7" d="m1103.97,4209.55c0-6.38,3.23-11.22,10-11.22s8.95,3.91,8.95,8.95v.42h-3.11v-.63c0-3.82-1.64-6.09-5.84-6.09-4.75,0-7.01,3.11-7.01,8.4,0,5.63,2.39,8.49,6.93,8.49,3.82,0,5.84-1.85,5.92-5.67h3.02c-.08,4.66-3.15,8.23-9.03,8.23-7.22,0-9.83-4.75-9.83-10.88Z"></path><path class="cls-7" d="m1146.05,4210.39h-15.96c.17,4.79,2.48,7.48,6.93,7.48,3.82,0,5.67-1.43,5.97-4.83h2.98c-.29,4.24-3.28,7.39-9.03,7.39-7.06,0-9.83-4.66-9.83-10.88s3.23-11.22,10-11.22,8.95,3.99,8.95,10.21v1.85Zm-3.11-2.98c0-4.45-1.72-6.55-5.92-6.55s-6.55,2.65-6.89,6.97h12.81v-.42Z"></path><path class="cls-7" d="m1151.93,4198.88h2.6l.29,3.49c1.01-2.14,3.28-4.03,7.35-4.03,4.75,0,7.77,2.52,7.77,7.94v13.61h-2.94v-13.27c0-4.33-2.14-5.71-5.5-5.71-3.82,0-6.64,2.69-6.64,5.63v13.36h-2.94v-21Z"></path><path class="cls-7" d="m1175.62,4209.42c0-7.1,4.28-11.09,10.04-11.09,3.7,0,6.22,1.6,7.31,3.74h.04v-14.95h2.94v32.77h-1.97l-.67-3.61h-.08c-1.18,2.31-3.95,4.16-7.77,4.16-6.3,0-9.83-3.99-9.83-11.01Zm17.64-.5c0-5.5-3.36-8.07-7.35-8.07-3.11,0-7.14,1.47-7.14,8.4s3.61,8.61,7.14,8.61c4.24,0,7.35-2.73,7.35-8.95Z"></path><path class="cls-7" d="m1220.56,4210.39h-15.96c.17,4.79,2.48,7.48,6.93,7.48,3.82,0,5.67-1.43,5.97-4.83h2.98c-.29,4.24-3.28,7.39-9.03,7.39-7.06,0-9.83-4.66-9.83-10.88s3.23-11.22,10-11.22,8.95,3.99,8.95,10.21v1.85Zm-3.11-2.98c0-4.45-1.72-6.55-5.92-6.55s-6.55,2.65-6.89,6.97h12.81v-.42Z"></path><path class="cls-7" d="m1226.44,4198.88h2.6l.29,3.91c1.01-2.14,3.07-4.45,6.76-4.45,1.26,0,2.18.21,3.02.55v3.15c-1.13-.5-2.1-.76-3.4-.76-3.74,0-6.34,2.81-6.34,5.75v12.85h-2.94v-21Z"></path><path class="cls-7" d="m1241.64,4213.45v-1.18h2.94v1.13c0,2.86,2.14,4.5,5.96,4.5s5.8-1.01,5.8-3.78c0-2.06-1.01-2.81-3.86-3.32l-4.62-.84c-3.02-.55-5.54-2.02-5.54-5.5,0-3.15,2.35-6.13,8.4-6.13s8.4,3.02,8.4,7.22v.88h-2.98v-.76c0-3.44-2.14-4.91-5.42-4.91-3.95,0-5.33,1.34-5.33,3.36s1.01,2.86,3.91,3.4l4.03.76c4.12.76,6.09,1.93,6.09,5.59,0,4.58-4.12,6.55-8.78,6.55-7.31,0-8.99-3.28-8.99-6.97Z"></path><path class="cls-7" d="m1306.66,4187.12h2.94v32.77h-2.94v-32.77Z"></path><path class="cls-7" d="m1329.18,4217.19v2.6c-.76.21-2.14.59-4.03.59-3.82,0-6.34-1.6-6.34-6.89v-12.18h-4.16v-2.44h4.16v-6.05l2.94-1.43v7.48h5.92v2.44h-5.92v11.8c0,2.81.76,4.58,3.4,4.58,1.6,0,3.23-.29,4.03-.5Z"></path><path class="cls-7" d="m1332.75,4214.08c0-3.95,2.23-6.09,7.86-6.09h6.34v-1.72c0-2.98-1.26-5.42-5.46-5.42-3.95,0-5.33,1.51-5.33,4.12v.88h-2.98v-.84c0-5,4.2-6.68,8.32-6.68,5.8,0,8.4,2.86,8.4,8.44v13.11h-2.06l-.55-2.98h-.08c-1.26,1.89-3.7,3.53-7.35,3.53-4.92,0-7.1-2.31-7.1-6.34Zm14.2-1.85v-1.76h-7.01c-2.65,0-4.03.92-4.03,3.61,0,2.35,1.26,3.86,4.5,3.86,4.16,0,6.55-2.14,6.55-5.71Z"></path><path class="cls-7" d="m1357.23,4187.12h2.94v32.77h-2.94v-32.77Z"></path><path class="cls-7" d="m1367.52,4187.12h2.98v6.51h-2.98v-6.51Zm0,11.76h2.94v21h-2.94v-21Z"></path><path class="cls-7" d="m1376.17,4209.55c0-6.38,3.23-11.22,10-11.22s8.95,3.91,8.95,8.95v.42h-3.11v-.63c0-3.82-1.64-6.09-5.84-6.09-4.75,0-7.02,3.11-7.02,8.4,0,5.63,2.39,8.49,6.93,8.49,3.82,0,5.84-1.85,5.92-5.67h3.02c-.08,4.66-3.15,8.23-9.03,8.23-7.22,0-9.83-4.75-9.83-10.88Z"></path><path class="cls-7" d="m1408.76,4213.45v-1.18h2.94v1.13c0,2.86,2.14,4.5,5.96,4.5s5.8-1.01,5.8-3.78c0-2.06-1.01-2.81-3.86-3.32l-4.62-.84c-3.02-.55-5.54-2.02-5.54-5.5,0-3.15,2.35-6.13,8.4-6.13s8.4,3.02,8.4,7.22v.88h-2.98v-.76c0-3.44-2.14-4.91-5.42-4.91-3.95,0-5.33,1.34-5.33,3.36s1.01,2.86,3.91,3.4l4.03.76c4.12.76,6.09,1.93,6.09,5.59,0,4.58-4.12,6.55-8.78,6.55-7.31,0-8.99-3.28-8.99-6.97Z"></path><path class="cls-7" d="m1443.37,4217.19v2.6c-.76.21-2.14.59-4.03.59-3.82,0-6.34-1.6-6.34-6.89v-12.18h-4.16v-2.44h4.16v-6.05l2.94-1.43v7.48h5.92v2.44h-5.92v11.8c0,2.81.76,4.58,3.4,4.58,1.6,0,3.23-.29,4.03-.5Z"></path><path class="cls-7" d="m1448.41,4198.88l6.89,17.98h.08l7.14-17.98h3.07v.04l-8.86,20.84-3.11,8.53h-2.98v-.04l3.19-8.36-8.78-20.96v-.04h3.36Z"></path><path class="cls-7" d="m1469.79,4187.12h2.94v32.77h-2.94v-32.77Z"></path><path class="cls-7" d="m1497.34,4210.39h-15.96c.17,4.79,2.48,7.48,6.93,7.48,3.82,0,5.67-1.43,5.97-4.83h2.98c-.29,4.24-3.28,7.39-9.03,7.39-7.06,0-9.83-4.66-9.83-10.88s3.23-11.22,10-11.22,8.95,3.99,8.95,10.21v1.85Zm-3.11-2.98c0-4.45-1.72-6.55-5.92-6.55s-6.55,2.65-6.89,6.97h12.81v-.42Z"></path><path class="cls-7" d="m1514.56,4197.57h-3.36v-5.08c0-3.95.88-5.29,3.4-5.97l.67,1.85c-1.76.67-2.06,1.09-2.06,3.78v.34h1.34v5.08Zm5.92,0h-3.36v-5.08c0-3.95.88-5.29,3.4-5.97l.67,1.85c-1.76.67-2.06,1.09-2.06,3.78v.34h1.34v5.08Z"></path><path class="cls-7" d="m1522.46,4213.45v-1.18h2.94v1.13c0,2.86,2.14,4.5,5.96,4.5s5.8-1.01,5.8-3.78c0-2.06-1.01-2.81-3.86-3.32l-4.62-.84c-3.02-.55-5.54-2.02-5.54-5.5,0-3.15,2.35-6.13,8.4-6.13s8.4,3.02,8.4,7.22v.88h-2.98v-.76c0-3.44-2.14-4.91-5.42-4.91-3.95,0-5.33,1.34-5.33,3.36s1.01,2.86,3.91,3.4l4.03.76c4.12.76,6.09,1.93,6.09,5.59,0,4.58-4.12,6.55-8.78,6.55-7.31,0-8.99-3.28-8.99-6.97Z"></path><path class="cls-7" d="m1542.53,4196.31c1.76-.67,2.06-1.09,2.06-3.78v-.34h-1.34v-5.08h3.36v5.08c0,3.95-.88,5.29-3.4,5.97l-.67-1.85Zm5.92,0c1.76-.67,2.06-1.09,2.06-3.78v-.34h-1.34v-5.08h3.36v5.08c0,3.95-.88,5.29-3.4,5.97l-.67-1.85Z"></path><rect class="cls-8" x="1117.47" y="3937.22" width="175.58" height="175.58" rx="87.79" ry="87.79"></rect><polyline class="cls-3" points="731.09 738.39 731.09 775.66 894.48 775.66 894.48 738.39"></polyline><line class="cls-3" x1="927.44" y1="2218.84" x2="927.44" y2="2276.07"></line><line class="cls-3" x1="927.44" y1="2332.77" x2="927.44" y2="2389.99"></line><line class="cls-3" x1="1331.83" y1="2611.55" x2="1590.68" y2="2376.6"></line><circle class="cls-8" cx="1296.97" cy="2660.98" r="49.44"></circle><circle class="cls-8" cx="917.27" cy="2500.27" r="111.28"></circle><circle class="cls-8" cx="927.44" cy="2085.52" r="111.28"></circle><path class="cls-7" d="m498.31,1923.73c-4.44,12.77-22.77,5.55-17.77-6.11l137.71-350.39c1.67-5,5.55-6.66,8.88-6.66,5,0,8.88,3.33,10,9.44l49.42,349.28c1.67,13.88-17.21,14.99-18.88,2.22l-22.21-157.15h-84.96l-62.19,159.37Zm124.94-318.18l-55.53,139.93h75.52l-19.99-139.93Z"></path><path class="cls-7" d="m763.73,1797.68l-4.44,29.99h.56c16.66-50.53,36.09-82.18,61.64-82.18,27.21,0,31.65,34.98,31.65,55.53,0,40.54-10,94.4-43.31,117.72-12.77,8.88-26.65,11.66-44.42,11.66-6.66,0-14.44,0-20.55-.56-7.77-1.11-13.88-4.44-12.77-14.44l36.09-345.95c.56-6.11,5-8.88,9.44-8.88s10,3.33,9.44,11.11l-23.32,226Zm1.11,113.83c13.88,0,23.88-1.11,33.87-8.33,29.43-21.66,35.54-74.96,35.54-104.39,0-19.44-4.44-33.87-13.88-33.87-18.88,0-38.32,53.86-44.98,70.52-8.33,21.66-18.88,52.2-23.32,75.52,2.22,0,9.44.56,12.77.56Z"></path><path class="cls-7" d="m986.41,2022.58c-2.78,24.99-8.88,50.53-28.32,70.52-14.99,15.55-33.32,22.21-56.08,22.21-8.33,0-17.21-1.11-25.54-3.33-6.11-1.11-8.33-5.55-8.33-9.44,0-5.55,5-11.11,12.77-9.44,8.88,1.67,13.33,2.78,20.55,3.33,17.77.56,30.54-4.44,41.65-15.55,16.1-15.55,22.77-38.32,24.99-62.75l14.44-146.04,3.89-22.77h-.56l-9.44,24.99c-13.33,29.99-31.65,56.08-57.2,56.08-12.22,0-21.66-7.22-25.54-18.88-1.67-5.55-2.78-12.77-2.78-20.55,0-7.22,1.11-17.21,1.67-25.54l11.66-111.06c.56-6.11,5.55-8.88,9.44-8.88,4.44,0,10.55,3.33,10,11.11l-12.22,112.17c-1.11,8.33-1.67,16.66-1.67,22.21,0,12.22,2.22,20.55,11.66,20.55,14.44,0,30.54-28.88,37.76-43.87,8.33-15.55,17.77-40.54,24.43-62.75,3.89-13.33,10.55-41.65,11.66-51.09,1.11-5.55,6.11-8.33,9.44-8.33,5,0,10.55,3.89,10,11.11l-28.32,265.99Z"></path><path class="cls-7" d="m1073.58,1868.76c-.56,5.55-1.67,17.77-1.67,22.21,0,11.66,1.67,20.55,9.44,20.55,12.22,0,24.43-21.66,38.87-52.2,11.66-23.88,34.98-80.52,44.42-106.62,2.22-5.55,5.55-7.22,9.44-7.22,4.44,0,10.55,3.33,9.44,11.11,0,1.11-.56,2.22-.56,2.78-5,13.33-26.65,66.64-46.09,107.73-11.11,23.88-28.88,63.3-56.08,63.3-19.99,0-28.32-17.21-28.32-37.76,0-4.44.56-9.44,1.11-17.21l12.77-121.05c.56-6.11,5.55-8.88,9.44-8.88,4.44,0,10.55,3.33,10,11.11l-12.22,112.17Zm12.22-231c8.33,0,14.99,6.66,14.99,14.99,0,8.88-6.66,15.55-14.99,15.55-8.88,0-15.55-6.66-15.55-15.55,0-8.33,6.66-14.99,15.55-14.99Z"></path><path class="cls-7" d="m1250.16,1807.12c.56-8.33,1.67-16.66,1.67-22.21,0-12.22-2.78-20.55-11.66-20.55-14.99,0-30.54,28.88-37.76,43.87-8.33,15.55-17.77,40.54-24.43,62.75-4.44,13.33-10.55,40.54-11.11,49.42-.56,6.11-5,10-10,10-5.55,0-10-5-9.44-10.55l17.21-165.48c.56-6.11,5.55-8.88,9.44-8.88,4.44,0,10.55,3.33,10,11.11l-5.55,47.2-3.89,22.77h.56c2.22-6.66,6.66-16.66,10-24.99,13.33-29.99,31.65-56.08,56.64-56.08,12.77,0,22.21,7.22,25.54,18.88,2.22,5.55,2.78,12.77,2.78,20.55,0,7.22-.56,17.21-1.67,25.54l-5.55,58.31c-1.67,13.33-1.67,19.44-1.67,22.21,0,11.66,1.11,20.55,8.88,20.55,10,0,22.21-21.1,26.1-27.21,18.32-29.43,39.98-74.96,47.2-89.96,3.89-10,19.99-2.78,16.1,6.66-10,23.88-38.87,79.41-47.76,93.29-10,17.21-24.43,36.09-42.2,36.09-20.55,0-27.76-17.21-27.76-37.76,0-5.55.56-11.66,1.11-17.21l7.22-68.3Z"></path><path class="cls-7" d="m1437.29,1747.15c7.22,1.11,13.33,3.89,12.22,14.44l-27.21,260.99c-2.78,24.99-8.88,50.53-28.88,70.52-14.44,15.55-32.76,22.21-55.53,22.21-8.33,0-17.21-1.11-26.1-3.33-5.55-1.11-7.77-5.55-7.77-9.44,0-5.55,5-11.11,12.77-9.44,8.88,1.67,13.33,2.78,20.55,3.33,17.77.56,30.54-4.44,41.65-15.55,16.1-15.55,22.77-38.32,24.99-62.75l14.44-146.04,3.89-23.88h-.56c-16.66,50.53-36.09,82.18-61.64,82.18s-31.65-34.98-31.65-55.53c0-24.99,3.89-55.53,14.44-80.52,1.67-3.89,5-10,6.66-12.77,6.11-10,12.77-17.77,22.21-24.43,11.11-7.77,23.32-11.66,36.65-11.66,10.55,0,18.32,0,28.88,1.67Zm-7.77,18.32c-8.33-1.11-13.88-1.11-21.1-1.11-7.77,0-17.77,2.78-25.54,7.77-11.66,8.33-17.21,18.32-22.77,30.54-10.55,24.43-12.77,54.97-12.77,74.41s4.44,33.87,13.88,33.87c18.88,0,38.32-53.86,44.98-70.52,8.33-21.66,19.44-52.2,23.32-74.96Z"></path><line class="cls-3" x1="1072.06" y1="2846.94" x2="1072.06" y2="3104.26"></line><line class="cls-3" x1="597.56" y1="2850.64" x2="597.56" y2="3107.37"></line><path class="cls-7" d="m1384.01,2289.16h-3.36v-5.08c0-3.95.88-5.29,3.4-5.96l.67,1.85c-1.76.67-2.06,1.09-2.06,3.78v.34h1.34v5.08Zm5.92,0h-3.36v-5.08c0-3.95.88-5.29,3.4-5.96l.67,1.85c-1.76.67-2.06,1.09-2.06,3.78v.34h1.34v5.08Z"></path><path class="cls-7" d="m1400.06,2285.42v5.04h5.92v2.44h-5.92v18.57h-2.94v-18.57h-4.16v-2.44h4.16v-5.42c0-5.29,3.15-6.89,6.38-6.89,1.85,0,2.98.29,3.74.55v2.6c-.71-.21-1.89-.46-3.49-.46-2.65,0-3.7,1.76-3.7,4.58Z"></path><path class="cls-7" d="m1410.6,2287.9c1.76-.67,2.06-1.09,2.06-3.78v-.34h-1.34v-5.08h3.36v5.08c0,3.95-.88,5.29-3.4,5.96l-.67-1.85Zm5.92,0c1.76-.67,2.06-1.09,2.06-3.78v-.34h-1.34v-5.08h3.36v5.08c0,3.95-.88,5.29-3.4,5.96l-.67-1.85Z"></path><path class="cls-7" d="m1434.46,2301.13c0-6.38,3.23-11.22,10-11.22s8.95,3.91,8.95,8.95v.42h-3.11v-.63c0-3.82-1.64-6.09-5.84-6.09-4.75,0-7.01,3.11-7.01,8.4,0,5.63,2.39,8.49,6.93,8.49,3.82,0,5.84-1.85,5.92-5.67h3.02c-.08,4.66-3.15,8.23-9.03,8.23-7.22,0-9.83-4.75-9.83-10.88Z"></path><path class="cls-7" d="m1457.6,2300.97c0-6.22,3.32-11.05,10.38-11.05,6.59,0,10.25,4.83,10.25,11.05s-3.7,11.05-10.29,11.05c-7.27,0-10.33-4.83-10.33-11.05Zm17.56,0c0-5.33-2.9-8.49-7.22-8.49-4.75,0-7.27,3.15-7.27,8.49s2.56,8.49,7.27,8.49c4.33,0,7.22-3.15,7.22-8.49Z"></path><path class="cls-7" d="m1484.1,2290.46h2.6l.29,3.49c1.01-2.14,3.28-4.03,7.35-4.03,4.75,0,7.77,2.52,7.77,7.94v13.61h-2.94v-13.27c0-4.33-2.14-5.71-5.5-5.71-3.82,0-6.64,2.69-6.64,5.63v13.36h-2.94v-21Z"></path><path class="cls-7" d="m1509.47,2290.46h2.6l.29,3.49c1.01-2.14,3.28-4.03,7.35-4.03,4.75,0,7.77,2.52,7.77,7.94v13.61h-2.94v-13.27c0-4.33-2.14-5.71-5.5-5.71-3.82,0-6.64,2.69-6.64,5.63v13.36h-2.94v-21Z"></path><path class="cls-7" d="m1552.1,2301.98h-15.96c.17,4.79,2.48,7.48,6.93,7.48,3.82,0,5.67-1.43,5.97-4.83h2.98c-.29,4.24-3.28,7.39-9.03,7.39-7.06,0-9.83-4.66-9.83-10.88s3.23-11.22,10-11.22,8.95,3.99,8.95,10.21v1.85Zm-3.11-2.98c0-4.45-1.72-6.55-5.92-6.55s-6.55,2.65-6.89,6.97h12.81v-.42Z"></path><path class="cls-7" d="m1556.29,2301.13c0-6.38,3.23-11.22,10-11.22s8.95,3.91,8.95,8.95v.42h-3.11v-.63c0-3.82-1.64-6.09-5.84-6.09-4.75,0-7.01,3.11-7.01,8.4,0,5.63,2.39,8.49,6.93,8.49,3.82,0,5.84-1.85,5.92-5.67h3.02c-.08,4.66-3.15,8.23-9.03,8.23-7.22,0-9.83-4.75-9.83-10.88Z"></path><path class="cls-7" d="m1592.08,2308.78v2.6c-.76.21-2.14.59-4.03.59-3.82,0-6.34-1.6-6.34-6.89v-12.18h-4.16v-2.44h4.16v-6.05l2.94-1.43v7.48h5.92v2.44h-5.92v11.8c0,2.81.76,4.58,3.4,4.58,1.6,0,3.23-.29,4.03-.5Z"></path><path class="cls-7" d="m1595.02,2305.04v-1.18h2.94v1.13c0,2.86,2.14,4.5,5.96,4.5s5.8-1.01,5.8-3.78c0-2.06-1.01-2.81-3.86-3.32l-4.62-.84c-3.02-.55-5.54-2.02-5.54-5.5,0-3.15,2.35-6.13,8.4-6.13s8.4,3.02,8.4,7.23v.88h-2.98v-.76c0-3.44-2.14-4.92-5.42-4.92-3.95,0-5.33,1.34-5.33,3.36s1.01,2.86,3.91,3.4l4.03.76c4.12.76,6.09,1.93,6.09,5.59,0,4.58-4.12,6.55-8.78,6.55-7.31,0-8.99-3.28-8.99-6.97Z"></path><path class="cls-7" d="m1632.48,2285.42v5.04h5.92v2.44h-5.92v18.57h-2.94v-18.57h-4.16v-2.44h4.16v-5.42c0-5.29,3.15-6.89,6.38-6.89,1.85,0,2.98.29,3.74.55v2.6c-.71-.21-1.89-.46-3.49-.46-2.65,0-3.7,1.76-3.7,4.58Z"></path><path class="cls-7" d="m1642.81,2290.46h2.6l.29,3.91c1.01-2.14,3.07-4.45,6.76-4.45,1.26,0,2.18.21,3.02.55v3.15c-1.13-.5-2.1-.76-3.4-.76-3.74,0-6.34,2.81-6.34,5.75v12.85h-2.94v-21Z"></path><path class="cls-7" d="m1657.81,2300.97c0-6.22,3.32-11.05,10.38-11.05,6.59,0,10.25,4.83,10.25,11.05s-3.7,11.05-10.29,11.05c-7.27,0-10.33-4.83-10.33-11.05Zm17.56,0c0-5.33-2.9-8.49-7.22-8.49-4.75,0-7.27,3.15-7.27,8.49s2.56,8.49,7.27,8.49c4.33,0,7.22-3.15,7.22-8.49Z"></path><path class="cls-7" d="m1715.02,2297.86v13.61h-2.94v-13.27c0-4.33-2.14-5.71-4.75-5.71-3.82,0-6.17,2.69-6.17,5.63v13.36h-2.94v-13.27c0-4.33-1.85-5.71-4.83-5.71-3.61,0-6.13,2.69-6.13,5.63v13.36h-2.94v-21h2.6l.29,3.49c1.01-2.02,3.07-4.03,6.93-4.03,2.94,0,5.38,1.39,6.43,4.29,1.22-2.39,3.57-4.29,7.14-4.29,4.29,0,7.31,2.52,7.31,7.94Z"></path><path class="cls-7" d="m1490.15,2327.55h2.98v6.51h-2.98v-6.51Zm0,11.76h2.94v21h-2.94v-21Z"></path><path class="cls-7" d="m1511.44,2357.63v2.6c-.76.21-2.14.59-4.03.59-3.82,0-6.34-1.6-6.34-6.89v-12.18h-4.16v-2.44h4.16v-6.05l2.94-1.43v7.48h5.92v2.44h-5.92v11.8c0,2.81.76,4.58,3.4,4.58,1.6,0,3.23-.29,4.03-.5Z"></path><path class="cls-7" d="m1514.38,2353.89v-1.18h2.94v1.13c0,2.86,2.14,4.5,5.96,4.5s5.8-1.01,5.8-3.78c0-2.06-1.01-2.81-3.86-3.32l-4.62-.84c-3.02-.55-5.54-2.02-5.54-5.5,0-3.15,2.35-6.13,8.4-6.13s8.4,3.02,8.4,7.22v.88h-2.98v-.76c0-3.44-2.14-4.91-5.42-4.91-3.95,0-5.33,1.34-5.33,3.36s1.01,2.86,3.91,3.4l4.03.76c4.12.76,6.09,1.93,6.09,5.59,0,4.58-4.12,6.55-8.78,6.55-7.31,0-8.99-3.28-8.99-6.97Z"></path><path class="cls-7" d="m1546,2349.98c0-6.38,3.23-11.22,10-11.22s8.95,3.91,8.95,8.95v.42h-3.11v-.63c0-3.82-1.64-6.09-5.84-6.09-4.75,0-7.02,3.11-7.02,8.4,0,5.63,2.39,8.49,6.93,8.49,3.82,0,5.84-1.85,5.92-5.67h3.02c-.08,4.66-3.15,8.23-9.03,8.23-7.22,0-9.83-4.75-9.83-10.88Z"></path><path class="cls-7" d="m1570.83,2339.31h2.6l.29,3.91c1.01-2.14,3.07-4.45,6.76-4.45,1.26,0,2.18.21,3.02.55v3.15c-1.13-.5-2.1-.76-3.4-.76-3.74,0-6.34,2.81-6.34,5.75v12.85h-2.94v-21Z"></path><path class="cls-7" d="m1585.82,2349.81c0-6.22,3.32-11.05,10.38-11.05,6.59,0,10.25,4.83,10.25,11.05s-3.7,11.05-10.29,11.05c-7.27,0-10.33-4.83-10.33-11.05Zm17.56,0c0-5.33-2.9-8.49-7.22-8.49-4.75,0-7.27,3.15-7.27,8.49s2.56,8.49,7.27,8.49c4.33,0,7.22-3.15,7.22-8.49Z"></path><path class="cls-7" d="m1610.43,2353.89v-1.18h2.94v1.13c0,2.86,2.14,4.5,5.96,4.5s5.8-1.01,5.8-3.78c0-2.06-1.01-2.81-3.86-3.32l-4.62-.84c-3.02-.55-5.54-2.02-5.54-5.5,0-3.15,2.35-6.13,8.4-6.13s8.4,3.02,8.4,7.22v.88h-2.98v-.76c0-3.44-2.14-4.91-5.42-4.91-3.95,0-5.33,1.34-5.33,3.36s1.01,2.86,3.91,3.4l4.03.76c4.12.76,6.09,1.93,6.09,5.59,0,4.58-4.12,6.55-8.78,6.55-7.31,0-8.99-3.28-8.99-6.97Z"></path><path class="cls-7" d="m1632.19,2353.89v-1.18h2.94v1.13c0,2.86,2.14,4.5,5.96,4.5s5.8-1.01,5.8-3.78c0-2.06-1.01-2.81-3.86-3.32l-4.62-.84c-3.02-.55-5.54-2.02-5.54-5.5,0-3.15,2.35-6.13,8.4-6.13s8.4,3.02,8.4,7.22v.88h-2.98v-.76c0-3.44-2.14-4.91-5.42-4.91-3.95,0-5.33,1.34-5.33,3.36s1.01,2.86,3.91,3.4l4.03.76c4.12.76,6.09,1.93,6.09,5.59,0,4.58-4.12,6.55-8.78,6.55-7.31,0-8.99-3.28-8.99-6.97Z"></path><path class="cls-7" d="m1658.65,2356.83h-.08l-.76,3.49h-1.97v-32.77h2.94v15.25h.04c1.26-2.31,4.07-4.03,7.69-4.03,6.3,0,9.66,3.99,9.66,11.01s-4.29,11.09-9.87,11.09c-3.78,0-6.55-1.64-7.65-4.03Zm14.37-6.89c0-7.18-3.4-8.61-6.93-8.61-4.24,0-7.56,2.73-7.56,8.44,0,6.01,3.45,8.57,7.44,8.57,3.02,0,7.06-1.47,7.06-8.4Z"></path><path class="cls-7" d="m1680.57,2354.52c0-3.95,2.23-6.09,7.86-6.09h6.34v-1.72c0-2.98-1.26-5.42-5.46-5.42-3.95,0-5.33,1.51-5.33,4.12v.88h-2.98v-.84c0-5,4.2-6.68,8.32-6.68,5.8,0,8.4,2.86,8.4,8.44v13.11h-2.06l-.55-2.98h-.08c-1.26,1.89-3.7,3.53-7.35,3.53-4.92,0-7.1-2.31-7.1-6.34Zm14.2-1.85v-1.76h-7.01c-2.65,0-4.03.92-4.03,3.61,0,2.35,1.26,3.86,4.5,3.86,4.16,0,6.55-2.14,6.55-5.71Z"></path><path class="cls-7" d="m1705.06,2339.31h2.6l.29,3.91c1.01-2.14,3.07-4.45,6.76-4.45,1.26,0,2.18.21,3.02.55v3.15c-1.13-.5-2.1-.76-3.4-.76-3.74,0-6.34,2.81-6.34,5.75v12.85h-2.94v-21Z"></path><path class="cls-7" d="m1022.66,3145.35v-2.02h3.02v2.18c0,3.74,2.61,6.05,7.94,6.05s8.44-1.97,8.44-6.22c0-3.32-1.38-5.17-4.91-6.09l-6.64-1.72c-4.33-1.13-7.18-2.98-7.18-8.15s3.78-8.91,10.92-8.91,10.59,3.44,10.59,9.07v2.94h-3.03v-2.81c0-4.62-3.07-6.51-7.56-6.51-5.12,0-7.81,2.14-7.81,6.01,0,3.61,1.76,4.7,5.54,5.71l5.75,1.55c5.12,1.39,7.44,3.74,7.44,8.65,0,6.09-4.33,9.24-11.47,9.24-9.12,0-11.05-4.71-11.05-8.99Z"></path><path class="cls-7" d="m1069.2,3144.3h-15.96c.17,4.79,2.48,7.48,6.93,7.48,3.82,0,5.67-1.43,5.96-4.83h2.98c-.29,4.24-3.28,7.39-9.03,7.39-7.06,0-9.83-4.66-9.83-10.88s3.23-11.21,10-11.21,8.95,3.99,8.95,10.21v1.85Zm-3.11-2.98c0-4.45-1.72-6.55-5.92-6.55s-6.55,2.65-6.89,6.97h12.81v-.42Z"></path><path class="cls-7" d="m1105.78,3140.18v13.61h-2.94v-13.27c0-4.33-2.14-5.71-4.75-5.71-3.82,0-6.17,2.69-6.17,5.63v13.36h-2.94v-13.27c0-4.33-1.85-5.71-4.83-5.71-3.61,0-6.13,2.69-6.13,5.63v13.36h-2.94v-21h2.6l.29,3.49c1.01-2.02,3.07-4.03,6.93-4.03,2.94,0,5.38,1.39,6.43,4.28,1.22-2.39,3.57-4.28,7.14-4.28,4.29,0,7.31,2.52,7.31,7.94Z"></path><path class="cls-7" d="m1113.13,3121.03h2.98v6.51h-2.98v-6.51Zm0,11.76h2.94v21h-2.94v-21Z"></path><path class="cls-7" d="m1121.78,3140.31h10.59v2.81h-10.59v-2.81Z"></path><path class="cls-7" d="m1141.18,3156.82c0,3.53-1.68,5.84-5.04,5.84-1.18,0-2.02-.13-2.94-.38v-2.61c.8.17,1.47.29,2.27.29,1.93,0,2.77-1.26,2.77-3.65v-23.53h2.94v24.03Zm-2.94-35.79h2.98v6.51h-2.98v-6.51Z"></path><path class="cls-7" d="m1146.89,3143.29c0-6.22,3.32-11.05,10.38-11.05,6.6,0,10.25,4.83,10.25,11.05s-3.7,11.05-10.29,11.05c-7.27,0-10.33-4.83-10.33-11.05Zm17.56,0c0-5.33-2.9-8.48-7.22-8.48-4.75,0-7.27,3.15-7.27,8.48s2.56,8.49,7.27,8.49c4.33,0,7.22-3.15,7.22-8.49Z"></path><path class="cls-7" d="m1173.39,3121.03h2.98v6.51h-2.98v-6.51Zm0,11.76h2.94v21h-2.94v-21Z"></path><path class="cls-7" d="m1183.73,3132.79h2.6l.29,3.49c1.01-2.14,3.28-4.03,7.35-4.03,4.75,0,7.77,2.52,7.77,7.94v13.61h-2.94v-13.27c0-4.33-2.14-5.71-5.5-5.71-3.82,0-6.64,2.69-6.64,5.63v13.36h-2.94v-21Z"></path><path class="cls-7" d="m1226.36,3144.3h-15.96c.17,4.79,2.48,7.48,6.93,7.48,3.82,0,5.67-1.43,5.96-4.83h2.98c-.29,4.24-3.28,7.39-9.03,7.39-7.06,0-9.83-4.66-9.83-10.88s3.23-11.21,10-11.21,8.95,3.99,8.95,10.21v1.85Zm-3.11-2.98c0-4.45-1.72-6.55-5.92-6.55s-6.55,2.65-6.89,6.97h12.81v-.42Z"></path><path class="cls-7" d="m1230.56,3143.33c0-7.1,4.28-11.09,10.04-11.09,3.7,0,6.22,1.6,7.31,3.74h.04v-14.96h2.94v32.77h-1.97l-.67-3.61h-.08c-1.18,2.31-3.95,4.16-7.77,4.16-6.3,0-9.83-3.99-9.83-11.01Zm17.64-.5c0-5.5-3.36-8.07-7.35-8.07-3.11,0-7.14,1.47-7.14,8.4s3.61,8.61,7.14,8.61c4.24,0,7.35-2.73,7.35-8.95Z"></path><path class="cls-7" d="m1267.89,3121.03h2.94v32.77h-2.94v-32.77Z"></path><path class="cls-7" d="m1276.5,3143.29c0-6.22,3.32-11.05,10.38-11.05,6.6,0,10.25,4.83,10.25,11.05s-3.7,11.05-10.29,11.05c-7.27,0-10.33-4.83-10.33-11.05Zm17.56,0c0-5.33-2.9-8.48-7.22-8.48-4.75,0-7.27,3.15-7.27,8.48s2.56,8.49,7.27,8.49c4.33,0,7.22-3.15,7.22-8.49Z"></path><path class="cls-7" d="m1299.43,3132.83v-.04h2.98l5.75,17.48h.08l6.3-17.48h2.69l6.17,17.48h.08l5.76-17.48h2.86v.04l-7.18,20.96h-3.03l-5.96-17.05h-.08l-6.22,17.05h-3.03l-7.18-20.96Z"></path><path class="cls-7" d="m1353.37,3144.3h-15.96c.17,4.79,2.48,7.48,6.93,7.48,3.82,0,5.67-1.43,5.97-4.83h2.98c-.29,4.24-3.28,7.39-9.03,7.39-7.06,0-9.83-4.66-9.83-10.88s3.23-11.21,10-11.21,8.95,3.99,8.95,10.21v1.85Zm-3.11-2.98c0-4.45-1.72-6.55-5.92-6.55s-6.55,2.65-6.89,6.97h12.81v-.42Z"></path><path class="cls-7" d="m1359.24,3132.79h2.61l.29,3.91c1.01-2.14,3.07-4.45,6.76-4.45,1.26,0,2.19.21,3.03.54v3.15c-1.13-.5-2.1-.76-3.4-.76-3.74,0-6.34,2.81-6.34,5.76v12.85h-2.94v-21Z"></path><path class="cls-7" d="m1374.24,3143.46c0-6.38,3.23-11.21,10-11.21s8.95,3.91,8.95,8.95v.42h-3.11v-.63c0-3.82-1.64-6.09-5.84-6.09-4.75,0-7.02,3.11-7.02,8.4,0,5.63,2.39,8.49,6.93,8.49,3.82,0,5.84-1.85,5.92-5.67h3.02c-.08,4.66-3.15,8.23-9.03,8.23-7.22,0-9.83-4.75-9.83-10.88Z"></path><path class="cls-7" d="m1397.59,3147.99c0-3.95,2.23-6.09,7.86-6.09h6.34v-1.72c0-2.98-1.26-5.42-5.46-5.42-3.95,0-5.34,1.51-5.34,4.12v.88h-2.98v-.84c0-5,4.2-6.68,8.32-6.68,5.8,0,8.4,2.86,8.4,8.44v13.11h-2.06l-.55-2.98h-.08c-1.26,1.89-3.7,3.53-7.35,3.53-4.91,0-7.1-2.31-7.1-6.34Zm14.2-1.85v-1.76h-7.02c-2.65,0-4.03.92-4.03,3.61,0,2.35,1.26,3.87,4.5,3.87,4.16,0,6.55-2.14,6.55-5.71Z"></path><path class="cls-7" d="m1420.18,3147.36v-1.18h2.94v1.13c0,2.86,2.14,4.5,5.96,4.5s5.8-1.01,5.8-3.78c0-2.06-1.01-2.81-3.87-3.32l-4.62-.84c-3.02-.55-5.54-2.02-5.54-5.5,0-3.15,2.35-6.13,8.4-6.13s8.4,3.02,8.4,7.22v.88h-2.98v-.76c0-3.44-2.14-4.92-5.42-4.92-3.95,0-5.34,1.34-5.34,3.36s1.01,2.86,3.91,3.4l4.03.76c4.12.76,6.09,1.93,6.09,5.59,0,4.58-4.12,6.55-8.78,6.55-7.31,0-8.99-3.28-8.99-6.97Z"></path><path class="cls-7" d="m1461.1,3144.3h-15.96c.17,4.79,2.48,7.48,6.93,7.48,3.82,0,5.67-1.43,5.97-4.83h2.98c-.29,4.24-3.28,7.39-9.03,7.39-7.06,0-9.83-4.66-9.83-10.88s3.23-11.21,10-11.21,8.95,3.99,8.95,10.21v1.85Zm-3.11-2.98c0-4.45-1.72-6.55-5.92-6.55s-6.55,2.65-6.89,6.97h12.81v-.42Z"></path><path class="cls-7" d="m1476.63,3121.03h2.94v32.77h-2.94v-32.77Z"></path><path class="cls-7" d="m1504.19,3144.3h-15.96c.17,4.79,2.48,7.48,6.93,7.48,3.82,0,5.67-1.43,5.97-4.83h2.98c-.29,4.24-3.28,7.39-9.03,7.39-7.06,0-9.83-4.66-9.83-10.88s3.23-11.21,10-11.21,8.95,3.99,8.95,10.21v1.85Zm-3.11-2.98c0-4.45-1.72-6.55-5.92-6.55s-6.55,2.65-6.89,6.97h12.81v-.42Z"></path><path class="cls-7" d="m1510.65,3147.41v-12.18h-4.16v-2.44h4.16v-6.05l2.94-1.43v7.48h11.85v-6.05l2.94-1.43v7.48h5.92v2.44h-5.92v11.8c0,2.81.76,4.58,3.4,4.58,1.6,0,3.23-.29,4.03-.5v2.6c-.76.21-2.14.59-4.03.59-3.82,0-6.34-1.6-6.34-6.89v-12.18h-11.85v11.8c0,2.81.76,4.58,3.4,4.58,1.6,0,3.23-.29,4.03-.5v2.6c-.76.21-2.14.59-4.03.59-3.82,0-6.34-1.6-6.34-6.89Z"></path><path class="cls-7" d="m1557.27,3144.3h-15.96c.17,4.79,2.48,7.48,6.93,7.48,3.82,0,5.67-1.43,5.96-4.83h2.98c-.29,4.24-3.28,7.39-9.03,7.39-7.06,0-9.83-4.66-9.83-10.88s3.23-11.21,10-11.21,8.95,3.99,8.95,10.21v1.85Zm-3.11-2.98c0-4.45-1.72-6.55-5.92-6.55s-6.55,2.65-6.89,6.97h12.81v-.42Z"></path><path class="cls-7" d="m1563.15,3132.79h2.61l.29,3.91c1.01-2.14,3.07-4.45,6.76-4.45,1.26,0,2.19.21,3.03.54v3.15c-1.13-.5-2.1-.76-3.4-.76-3.74,0-6.34,2.81-6.34,5.76v12.85h-2.94v-21Z"></path><path class="cls-7" d="m1578.36,3147.36v-1.18h2.94v1.13c0,2.86,2.14,4.5,5.96,4.5s5.8-1.01,5.8-3.78c0-2.06-1.01-2.81-3.86-3.32l-4.62-.84c-3.03-.55-5.54-2.02-5.54-5.5,0-3.15,2.35-6.13,8.4-6.13s8.4,3.02,8.4,7.22v.88h-2.98v-.76c0-3.44-2.14-4.92-5.42-4.92-3.95,0-5.33,1.34-5.33,3.36s1.01,2.86,3.91,3.4l4.03.76c4.12.76,6.09,1.93,6.09,5.59,0,4.58-4.12,6.55-8.78,6.55-7.31,0-8.99-3.28-8.99-6.97Z"></path><path class="cls-7" d="m178.52,3120.43h8.61c7.94,0,11.64,2.73,11.64,9.62,0,6.43-2.77,10.12-11.13,10.12h-6.13v13.02h-2.98v-32.77Zm9.28,17.22c6.09,0,7.94-2.69,7.94-7.65,0-5.21-2.6-6.97-8.44-6.97h-5.8v14.62h6.3Z"></path><path class="cls-7" d="m203.39,3132.19h2.6l.29,3.91c1.01-2.14,3.07-4.45,6.76-4.45,1.26,0,2.18.21,3.02.55v3.15c-1.13-.5-2.1-.76-3.4-.76-3.74,0-6.34,2.81-6.34,5.75v12.85h-2.94v-21Z"></path><path class="cls-7" d="m220.69,3120.43h2.98v6.51h-2.98v-6.51Zm0,11.76h2.94v21h-2.94v-21Z"></path><path class="cls-7" d="m231.02,3132.19h2.6l.29,3.49c1.01-2.14,3.28-4.03,7.35-4.03,4.75,0,7.77,2.52,7.77,7.94v13.61h-2.94v-13.27c0-4.33-2.14-5.71-5.5-5.71-3.82,0-6.64,2.69-6.64,5.63v13.36h-2.94v-21Z"></path><path class="cls-7" d="m267.35,3150.51v2.6c-.76.21-2.14.59-4.03.59-3.82,0-6.34-1.6-6.34-6.89v-12.18h-4.16v-2.44h4.16v-6.05l2.94-1.43v7.48h5.92v2.44h-5.92v11.8c0,2.81.76,4.58,3.4,4.58,1.6,0,3.23-.29,4.03-.5Z"></path><path class="cls-7" d="m279.95,3146.77v-1.18h2.94v1.13c0,2.86,2.14,4.5,5.96,4.5s5.8-1.01,5.8-3.78c0-2.06-1.01-2.81-3.86-3.32l-4.62-.84c-3.02-.55-5.54-2.02-5.54-5.5,0-3.15,2.35-6.13,8.4-6.13s8.4,3.02,8.4,7.22v.88h-2.98v-.76c0-3.45-2.14-4.92-5.42-4.92-3.95,0-5.33,1.34-5.33,3.36s1.01,2.86,3.91,3.4l4.03.76c4.12.76,6.09,1.93,6.09,5.59,0,4.58-4.12,6.55-8.78,6.55-7.31,0-8.99-3.28-8.99-6.97Z"></path><path class="cls-7" d="m314.56,3150.51v2.6c-.76.21-2.14.59-4.03.59-3.82,0-6.34-1.6-6.34-6.89v-12.18h-4.16v-2.44h4.16v-6.05l2.94-1.43v7.48h5.92v2.44h-5.92v11.8c0,2.81.76,4.58,3.4,4.58,1.6,0,3.23-.29,4.03-.5Z"></path><path class="cls-7" d="m319.6,3132.19l6.89,17.98h.08l7.14-17.98h3.07v.04l-8.86,20.84-3.11,8.53h-2.98v-.04l3.19-8.36-8.78-20.96v-.04h3.36Z"></path><path class="cls-7" d="m340.97,3120.43h2.94v32.77h-2.94v-32.77Z"></path><path class="cls-7" d="m368.53,3143.71h-15.96c.17,4.79,2.48,7.48,6.93,7.48,3.82,0,5.67-1.43,5.97-4.83h2.98c-.29,4.24-3.28,7.39-9.03,7.39-7.06,0-9.83-4.66-9.83-10.88s3.23-11.22,10-11.22,8.95,3.99,8.95,10.21v1.85Zm-3.11-2.98c0-4.45-1.72-6.55-5.92-6.55s-6.55,2.65-6.89,6.97h12.81v-.42Z"></path><path class="cls-7" d="m373.15,3146.98h3.36v6.22c0,3.95-.88,5.29-3.4,5.96l-.67-1.85c1.76-.67,2.06-1.09,2.06-3.78v-.34h-1.34v-6.22Z"></path><path class="cls-7" d="m392.05,3145.8v-13.61h2.94v13.27c0,4.33,2.14,5.71,5.42,5.71,3.74,0,6.55-2.69,6.55-5.63v-13.36h2.94v21h-2.6l-.25-3.36h-.08c-.97,2.02-3.23,3.91-7.23,3.91-4.66,0-7.69-2.52-7.69-7.94Z"></path><path class="cls-7" d="m417.25,3132.19h2.6l.29,3.49c1.01-2.14,3.28-4.03,7.35-4.03,4.75,0,7.77,2.52,7.77,7.94v13.61h-2.94v-13.27c0-4.33-2.14-5.71-5.5-5.71-3.82,0-6.64,2.69-6.64,5.63v13.36h-2.94v-21Z"></path><path class="cls-7" d="m445.55,3156.22c0,3.53-1.68,5.84-5.04,5.84-1.18,0-2.02-.13-2.94-.38v-2.6c.8.17,1.47.29,2.27.29,1.93,0,2.77-1.26,2.77-3.65v-23.52h2.94v24.03Zm-2.94-35.79h2.98v6.51h-2.98v-6.51Z"></path><path class="cls-7" d="m451.27,3142.7c0-6.22,3.32-11.05,10.38-11.05,6.59,0,10.25,4.83,10.25,11.05s-3.7,11.05-10.29,11.05c-7.27,0-10.33-4.83-10.33-11.05Zm17.56,0c0-5.33-2.9-8.49-7.22-8.49-4.75,0-7.27,3.15-7.27,8.49s2.56,8.49,7.27,8.49c4.33,0,7.22-3.15,7.22-8.49Z"></path><path class="cls-7" d="m477.77,3120.43h2.98v6.51h-2.98v-6.51Zm0,11.76h2.94v21h-2.94v-21Z"></path><path class="cls-7" d="m488.1,3132.19h2.6l.29,3.49c1.01-2.14,3.28-4.03,7.35-4.03,4.75,0,7.77,2.52,7.77,7.94v13.61h-2.94v-13.27c0-4.33-2.14-5.71-5.5-5.71-3.82,0-6.64,2.69-6.64,5.63v13.36h-2.94v-21Z"></path><path class="cls-7" d="m530.73,3143.71h-15.96c.17,4.79,2.48,7.48,6.93,7.48,3.82,0,5.67-1.43,5.97-4.83h2.98c-.29,4.24-3.28,7.39-9.03,7.39-7.06,0-9.83-4.66-9.83-10.88s3.23-11.22,10-11.22,8.95,3.99,8.95,10.21v1.85Zm-3.11-2.98c0-4.45-1.72-6.55-5.92-6.55s-6.55,2.65-6.89,6.97h12.81v-.42Z"></path><path class="cls-7" d="m534.93,3142.74c0-7.1,4.28-11.09,10.04-11.09,3.7,0,6.22,1.6,7.31,3.74h.04v-14.95h2.94v32.77h-1.97l-.67-3.61h-.08c-1.18,2.31-3.95,4.16-7.77,4.16-6.3,0-9.83-3.99-9.83-11.01Zm17.64-.5c0-5.5-3.36-8.07-7.35-8.07-3.11,0-7.14,1.47-7.14,8.4s3.61,8.61,7.14,8.61c4.24,0,7.35-2.73,7.35-8.95Z"></path><path class="cls-7" d="m571.84,3145.8v-13.61h2.94v13.27c0,4.33,2.14,5.71,5.42,5.71,3.74,0,6.55-2.69,6.55-5.63v-13.36h2.94v21h-2.6l-.25-3.36h-.08c-.97,2.02-3.23,3.91-7.23,3.91-4.66,0-7.69-2.52-7.69-7.94Z"></path><path class="cls-7" d="m597.04,3132.19h2.39l.34,3.86h.08c1.13-2.48,4.03-4.41,7.86-4.41,6.3,0,9.66,3.99,9.66,11.01s-4.29,11.09-9.87,11.09c-3.78,0-6.38-1.6-7.43-3.7h-.08v11.55h-2.94v-29.41Zm17.18,10.63c0-7.18-3.4-8.61-6.93-8.61-4.24,0-7.56,2.73-7.56,8.44,0,6.01,3.45,8.57,7.44,8.57,3.02,0,7.06-1.47,7.06-8.4Z"></path><path class="cls-7" d="m623.25,3132.19h2.39l.34,3.86h.08c1.13-2.48,4.03-4.41,7.86-4.41,6.3,0,9.66,3.99,9.66,11.01s-4.29,11.09-9.87,11.09c-3.78,0-6.38-1.6-7.43-3.7h-.08v11.55h-2.94v-29.41Zm17.18,10.63c0-7.18-3.4-8.61-6.93-8.61-4.24,0-7.56,2.73-7.56,8.44,0,6.01,3.45,8.57,7.44,8.57,3.02,0,7.06-1.47,7.06-8.4Z"></path><path class="cls-7" d="m666.73,3143.71h-15.96c.17,4.79,2.48,7.48,6.93,7.48,3.82,0,5.67-1.43,5.97-4.83h2.98c-.29,4.24-3.28,7.39-9.03,7.39-7.06,0-9.83-4.66-9.83-10.88s3.23-11.22,10-11.22,8.95,3.99,8.95,10.21v1.85Zm-3.11-2.98c0-4.45-1.72-6.55-5.92-6.55s-6.55,2.65-6.89,6.97h12.81v-.42Z"></path><path class="cls-7" d="m672.6,3132.19h2.6l.29,3.91c1.01-2.14,3.07-4.45,6.76-4.45,1.26,0,2.18.21,3.02.55v3.15c-1.13-.5-2.1-.76-3.4-.76-3.74,0-6.34,2.81-6.34,5.75v12.85h-2.94v-21Z"></path><path class="cls-7" d="m687.6,3142.86c0-6.38,3.23-11.22,10-11.22s8.95,3.91,8.95,8.95v.42h-3.11v-.63c0-3.82-1.64-6.09-5.84-6.09-4.75,0-7.02,3.11-7.02,8.4,0,5.63,2.39,8.49,6.93,8.49,3.82,0,5.84-1.85,5.92-5.67h3.02c-.08,4.66-3.15,8.23-9.03,8.23-7.22,0-9.83-4.75-9.83-10.88Z"></path><path class="cls-7" d="m710.95,3147.4c0-3.95,2.23-6.09,7.86-6.09h6.34v-1.72c0-2.98-1.26-5.42-5.46-5.42-3.95,0-5.33,1.51-5.33,4.12v.88h-2.98v-.84c0-5,4.2-6.68,8.32-6.68,5.8,0,8.4,2.86,8.4,8.44v13.11h-2.06l-.55-2.98h-.08c-1.26,1.89-3.7,3.53-7.35,3.53-4.92,0-7.1-2.31-7.1-6.34Zm14.2-1.85v-1.76h-7.01c-2.65,0-4.03.92-4.03,3.61,0,2.35,1.26,3.86,4.5,3.86,4.16,0,6.55-2.14,6.55-5.71Z"></path><path class="cls-7" d="m733.54,3146.77v-1.18h2.94v1.13c0,2.86,2.14,4.5,5.96,4.5s5.8-1.01,5.8-3.78c0-2.06-1.01-2.81-3.86-3.32l-4.62-.84c-3.02-.55-5.54-2.02-5.54-5.5,0-3.15,2.35-6.13,8.4-6.13s8.4,3.02,8.4,7.22v.88h-2.98v-.76c0-3.45-2.14-4.92-5.42-4.92-3.95,0-5.33,1.34-5.33,3.36s1.01,2.86,3.91,3.4l4.03.76c4.12.76,6.09,1.93,6.09,5.59,0,4.58-4.12,6.55-8.78,6.55-7.31,0-8.99-3.28-8.99-6.97Z"></path><path class="cls-7" d="m774.45,3143.71h-15.96c.17,4.79,2.48,7.48,6.93,7.48,3.82,0,5.67-1.43,5.97-4.83h2.98c-.29,4.24-3.28,7.39-9.03,7.39-7.06,0-9.83-4.66-9.83-10.88s3.23-11.22,10-11.22,8.95,3.99,8.95,10.21v1.85Zm-3.11-2.98c0-4.45-1.72-6.55-5.92-6.55s-6.55,2.65-6.89,6.97h12.81v-.42Z"></path><path class="cls-7" d="m789.99,3120.43h2.94v32.77h-2.94v-32.77Z"></path><path class="cls-7" d="m817.55,3143.71h-15.96c.17,4.79,2.48,7.48,6.93,7.48,3.82,0,5.67-1.43,5.97-4.83h2.98c-.29,4.24-3.28,7.39-9.03,7.39-7.06,0-9.83-4.66-9.83-10.88s3.23-11.22,10-11.22,8.95,3.99,8.95,10.21v1.85Zm-3.11-2.98c0-4.45-1.72-6.55-5.92-6.55s-6.55,2.65-6.89,6.97h12.81v-.42Z"></path><path class="cls-7" d="m824.01,3146.81v-12.18h-4.16v-2.44h4.16v-6.05l2.94-1.43v7.48h11.85v-6.05l2.94-1.43v7.48h5.92v2.44h-5.92v11.8c0,2.81.76,4.58,3.4,4.58,1.6,0,3.24-.29,4.03-.5v2.6c-.76.21-2.14.59-4.03.59-3.82,0-6.34-1.6-6.34-6.89v-12.18h-11.85v11.8c0,2.81.76,4.58,3.4,4.58,1.6,0,3.23-.29,4.03-.5v2.6c-.76.21-2.14.59-4.03.59-3.82,0-6.34-1.6-6.34-6.89Z"></path><path class="cls-7" d="m870.63,3143.71h-15.96c.17,4.79,2.48,7.48,6.93,7.48,3.82,0,5.67-1.43,5.97-4.83h2.98c-.29,4.24-3.28,7.39-9.03,7.39-7.06,0-9.83-4.66-9.83-10.88s3.23-11.22,10-11.22,8.95,3.99,8.95,10.21v1.85Zm-3.11-2.98c0-4.45-1.72-6.55-5.92-6.55s-6.55,2.65-6.89,6.97h12.81v-.42Z"></path><path class="cls-7" d="m876.51,3132.19h2.6l.29,3.91c1.01-2.14,3.07-4.45,6.76-4.45,1.26,0,2.18.21,3.02.55v3.15c-1.13-.5-2.1-.76-3.4-.76-3.74,0-6.34,2.81-6.34,5.75v12.85h-2.94v-21Z"></path><path class="cls-7" d="m891.71,3146.77v-1.18h2.94v1.13c0,2.86,2.14,4.5,5.96,4.5s5.8-1.01,5.8-3.78c0-2.06-1.01-2.81-3.86-3.32l-4.62-.84c-3.02-.55-5.54-2.02-5.54-5.5,0-3.15,2.35-6.13,8.4-6.13s8.4,3.02,8.4,7.22v.88h-2.98v-.76c0-3.45-2.14-4.92-5.42-4.92-3.95,0-5.33,1.34-5.33,3.36s1.01,2.86,3.91,3.4l4.03.76c4.12.76,6.09,1.93,6.09,5.59,0,4.58-4.12,6.55-8.78,6.55-7.31,0-8.99-3.28-8.99-6.97Z"></path><path class="cls-8" d="m533.14,2469.79c.56-6.11,5-8.33,9.44-8.33h161.59c5,0,9.44,4.44,9.44,9.44s-4.44,9.44-9.44,9.44h-152.71l-17.77,166.03h143.27c5.55,0,9.44,4.44,9.44,9.44s-3.89,9.44-9.44,9.44h-144.93l-16.1,156.04c-.56,6.11-5,10-10,10-5.55,0-10-5-9.44-10.55l36.65-350.94Z"></path><path class="cls-7" d="m798.57,2648.04c7.22,1.11,13.33,3.89,12.22,14.44l-11.11,107.17c-1.11,8.33-1.67,17.21-1.67,22.21,0,11.66,1.11,20.55,8.88,20.55,29.43,0,78.3-127.72,83.85-158.81,1.67-12.22,21.1-7.22,17.21,6.66-3.89,13.33-51.64,171.03-100.51,171.03-20.55,0-28.32-17.21-28.32-37.76,0-5,0-11.11.56-17.21l3.89-27.21h-.56c-16.66,50.53-36.09,82.18-61.64,82.18s-31.65-34.98-31.65-55.53c0-24.99,3.89-55.53,14.44-80.52,1.67-3.89,5-10,6.66-12.77,6.11-10,12.77-17.77,22.21-24.43,11.11-7.77,23.32-11.66,36.65-11.66,10.55,0,18.32,0,28.88,1.67Zm-7.77,18.32c-8.33-1.11-13.88-1.11-21.1-1.11-7.77,0-17.77,2.78-25.54,7.77-11.66,8.33-17.21,18.32-22.77,30.54-10.55,24.43-12.77,54.97-12.77,74.41s4.44,33.87,13.88,33.87c18.88,0,38.32-53.86,44.98-70.52,8.33-21.66,19.44-52.2,23.32-74.96Z"></path><path class="cls-7" d="m897.41,2769.65c-1.11,8.33-1.67,17.77-1.67,22.21,0,11.66,1.67,20.55,9.44,20.55,9.44,0,20.55-21.1,23.88-27.21,14.44-23.88,46.09-93.84,53.86-111.61,5-11.11,21.1-3.33,16.66,6.66-9.44,21.1-48.31,103.84-54.97,114.95-10,16.66-22.21,36.09-39.98,36.09-19.99,0-27.76-17.21-27.76-37.76,0-6.66.56-14.44.56-17.21l32.21-305.97c.56-6.11,5-8.88,9.44-8.88s10.55,3.33,9.44,11.11l-31.1,297.08Z"></path><path class="cls-7" d="m982.92,2673.58c5-11.66,11.66-17.77,20.55-22.21,7.22-3.33,14.99-5,23.88-5,12.77,0,24.43,3.33,34.98,10.55,3.33,2.22,3.89,5.55,3.89,7.77,0,5-4.44,9.44-9.44,9.44-2.22,0-4.44-1.11-6.11-2.22-6.66-3.33-14.99-6.66-23.32-6.66-19.44,0-28.32,11.11-28.32,24.43,0,19.44,17.21,36.09,29.43,49.42,13.88,15.55,24.99,29.43,24.99,49.42,0,9.44-2.22,19.44-10.55,28.32-9.44,10-22.77,14.44-37.2,14.44-15.55,0-31.1-4.44-43.31-12.22-2.78-2.22-3.89-5-3.89-7.77,0-5,3.89-9.44,9.44-9.44,1.11,0,2.22,0,3.89,1.11,10.55,5.55,22.21,9.44,34.43,9.44,14.44,0,28.32-7.77,28.32-23.88,0-12.22-8.88-23.88-18.32-34.98-22.21-25.54-36.09-39.43-36.09-64.97,0-1.67,0-8.33,2.78-14.99Z"></path><path class="cls-7" d="m1116.18,2769.65c-1.11,11.11-3.33,28.32-.56,36.65,1.11,3.89,2.78,6.11,6.66,6.11,12.22,0,23.32-21.66,38.32-52.2,11.66-23.88,39.43-83.29,48.87-106.06,5-14.44,23.32-7.22,17.77,5.55-6.11,13.88-29.99,67.19-49.98,108.28-11.66,23.88-28.32,63.3-55.53,63.3-9.44,0-16.1-3.33-19.99-9.44-8.33-11.66-7.22-29.43-5.55-45.53l12.77-121.05c.56-6.11,5.55-8.88,9.44-8.88,4.44,0,10.55,3.33,10,11.11l-12.22,112.17Zm12.22-231c8.33,0,14.99,6.66,14.99,14.99,0,8.88-6.66,15.55-14.99,15.55-8.88,0-15.55-6.66-15.55-15.55,0-8.33,6.66-14.99,15.55-14.99Z"></path><path class="cls-7" d="m1186.7,2665.25c-13.33,0-13.33-18.88,0-18.88h23.88l9.44-92.18c2.78-24.99,9.44-51.09,28.88-71.08,14.99-14.99,32.76-21.66,55.53-21.66,8.33,0,17.21,1.11,26.1,3.33,5.55,1.11,7.77,5.55,7.77,9.44,0,5.55-5,11.11-12.77,9.44-8.88-2.22-13.33-2.78-20.55-3.33-17.77-.56-29.99,4.44-41.09,15.55-16.66,15.55-22.21,38.32-24.99,63.86l-8.88,86.63h67.75c11.66,0,11.66,18.88,0,18.88h-69.97l-35.54,340.95c-.56,6.11-4.44,10-9.44,10-6.11,0-10.55-5-10-10.55l35.54-340.39h-21.66Z"></path><path class="cls-7" d="m1370.51,2923.46c-2.78,24.99-8.88,50.53-28.32,70.52-14.99,15.55-33.32,22.21-56.08,22.21-8.33,0-17.21-1.11-25.54-3.33-6.11-1.11-8.33-5.55-8.33-9.44,0-5.55,5-11.11,12.77-9.44,8.88,1.67,13.33,2.78,20.55,3.33,17.77.56,30.54-4.44,41.65-15.55,16.1-15.55,22.77-38.32,24.99-62.75l14.44-146.04,3.89-22.77h-.56l-9.44,24.99c-13.33,29.99-31.65,56.08-57.2,56.08-12.22,0-21.66-7.22-25.54-18.88-1.67-5.55-2.78-12.77-2.78-20.55,0-7.22,1.11-17.21,1.67-25.54l11.66-111.06c.56-6.11,5.55-8.88,9.44-8.88,4.44,0,10.55,3.33,10,11.11l-12.22,112.17c-1.11,8.33-1.67,16.66-1.67,22.21,0,12.22,2.22,20.55,11.66,20.55,14.44,0,30.54-28.88,37.76-43.87,8.33-15.55,17.77-40.54,24.43-62.75,3.89-13.33,10.55-41.65,11.66-51.09,1.11-5.55,6.11-8.33,9.44-8.33,5,0,10.55,3.89,10,11.11l-28.32,265.99Z"></path><path class="cls-7" d="m674.71,700.66c-.54,5.97-4.89,9.77-9.77,9.77-5.43,0-9.77-4.88-9.22-10.31l18.45-179.62,4.89-44.5c-21.16,59.69-40.16,104.19-56.98,138.92-18.99,39.07-49.38,95.51-92.25,95.51-28.22,0-39.61-25.5-39.61-61.32,0-9.77.54-23.88,2.17-36.36l26.59-255.04c.54-5.97,4.88-8.68,9.22-8.68s10.31,3.26,9.22,10.85l-26.59,255.04c-1.63,13.02-2.17,23.88-2.17,33.64,0,32.56,8.68,43.41,22.79,43.41,29.3,0,55.35-45.04,75.97-87.37,17.91-38.53,35.27-80.85,46.13-110.16,17.91-48.84,32.02-102.56,37.44-136.75,1.08-5.97,5.43-8.68,9.22-8.68,4.34,0,10.31,3.26,9.77,10.85l-35.27,340.78Z"></path><path class="cls-7" d="m824.48,656.7l7.06-66.75c.54-8.14,1.63-16.28,1.63-21.71,0-11.94-2.71-20.08-11.4-20.08-14.65,0-29.84,28.22-36.9,42.87-8.14,15.19-17.37,39.61-23.88,61.32-4.34,13.02-10.31,39.61-10.85,48.3-.54,5.97-4.88,9.77-9.77,9.77-5.43,0-9.77-4.88-9.22-10.31l16.82-161.71c.54-5.97,5.43-8.68,9.22-8.68,4.34,0,10.31,3.26,9.77,10.85l-5.43,46.12-3.8,22.25h.54c2.17-6.51,6.51-16.28,9.77-24.42,13.02-29.3,30.93-54.81,55.35-54.81,12.48,0,21.71,7.05,24.96,18.45,2.17,5.43,2.71,12.48,2.71,20.08,0,7.05-.54,16.82-1.63,24.96l-5.43,56.98c-1.09,8.14-1.63,16.82-1.63,21.71,0,11.4,1.63,20.08,9.22,20.08,2.17,0,5.97-1.63,8.68-4.34,5.43-4.88,11.94-13.57,17.36-21.16,1.63-2.17,4.34-4.34,7.6-4.34,4.89,0,9.23,4.34,9.23,9.22,0,1.63-.54,3.8-1.09,4.88-11.4,16.82-26.05,34.19-42.87,34.19-28.22,0-28.22-32.56-26.05-53.72Z"></path><path class="cls-7" d="m1114.79,656.7l7.05-66.75c1.09-8.14,1.63-16.28,1.63-22.25,0-11.4-2.17-19.54-11.39-19.54-14.11,0-29.3,27.68-36.36,42.33-7.6,15.74-17.37,40.16-23.88,61.32-3.8,13.02-10.31,40.16-10.85,48.84-.54,5.97-4.88,9.77-9.77,9.77-5.43,0-9.77-4.88-9.22-10.31l11.94-110.16c.54-8.14,1.09-16.28,1.09-21.71,0-11.94-2.17-20.08-11.4-20.08-14.11,0-28.76,28.22-35.81,42.87-8.14,15.19-17.37,39.61-23.88,61.32-4.34,13.02-9.77,39.61-10.85,48.3-.54,5.97-4.89,9.77-9.77,9.77-5.43,0-9.77-4.88-9.22-10.31l11.94-114.5-15.74,25.5c-2.17,4.34-5.43,5.43-8.14,5.43-4.88,0-8.68-3.8-8.68-8.68,0-2.71,1.09-4.88,3.26-8.68,12.48-21.71,28.76-52.09,33.1-60.23,2.71-5.43,4.34-9.22,10.31-9.22,4.88,0,9.77,3.26,9.22,10.31l-4.88,46.67-3.8,22.25h.54c2.17-6.51,5.97-16.28,9.77-24.42,13.02-29.3,29.85-54.81,54.81-54.81,12.48,0,21.16,7.05,24.96,18.45,2.17,5.43,2.71,12.48,2.71,20.08,0,5.97-.54,16.28-4.34,40.7h.54c2.17-7.06,5.97-16.82,9.22-24.42,13.02-29.3,30.39-54.81,55.35-54.81,11.94,0,21.16,7.05,24.96,18.45,1.63,4.88,2.71,12.48,2.71,19.54s-1.09,17.36-1.63,24.96l-5.97,57.52c-.54,8.14-1.63,16.82-1.63,21.71,0,11.4,1.63,20.08,9.22,20.08,8.14,0,20.08-13.02,28.22-23.33,2.17-2.71,5.97-4.34,9.22-3.8,4.89.54,7.6,4.88,7.6,9.77,0,1.63-1.08,4.34-2.17,5.43-12.48,15.19-27.13,30.39-43.95,30.39-28.22,0-27.67-32.56-26.05-53.72Z"></path><path class="cls-7" d="m1297.12,639.88c4.88,0,9.77,3.26,9.77,9.22,0,2.17-1.08,4.88-2.71,7.6-5.43,10.31-17.36,25.5-21.16,29.85-12.48,13.57-24.42,23.88-41.24,23.88-37.44,0-41.24-45.04-41.24-74.34s5.97-93.88,36.9-104.73c2.71-1.08,6.51-1.63,10.31-1.63,15.74,0,22.25,13.02,22.25,25.5,0,27.13-20.62,64.03-49.92,100.39,1.63,18.45,7.05,36.36,22.25,36.36,17.91,0,37.44-31.47,46.67-47.21,2.17-3.26,4.89-4.88,8.14-4.88Zm-69.46-66.75c-5.43,17.91-8.14,35.82-8.68,54.26,18.45-26.05,32.56-52.09,32.56-71.09,0-4.88-1.63-8.68-6.51-8.68-5.97,0-13.02,10.85-17.36,25.5Z"></path><path class="cls-7" d="m1350.84,548.17h-21.16c-13.02,0-13.02-18.45,0-18.45h23.33l17.91-172.02c.54-5.97,4.88-8.68,9.22-8.68s10.31,3.26,9.22,10.85l-17.91,169.85h35.82c5.43,0,9.22,4.34,9.22,9.22s-3.8,9.22-9.22,9.22h-37.44l-10.31,102.02c-.54,4.34-1.63,16.28-1.63,21.71,0,11.4,1.63,20.08,9.22,20.08,2.17,0,5.97-1.63,8.68-4.34,5.43-4.88,11.94-13.57,17.36-21.16,1.63-2.17,4.34-4.34,7.6-4.34,4.89,0,9.22,4.34,9.22,9.22,0,1.63-.54,3.8-1.08,4.88-11.4,16.82-26.05,34.19-42.87,34.19-28.76,0-28.22-32.02-26.05-53.72l10.85-108.53Z"></path><path class="cls-7" d="m567.66,3741.23l-16.09,154.22c-.55,6.1-4.99,9.99-9.98,9.99-5.55,0-9.98-4.99-9.43-10.54l36.61-350.59c.55-4.99,4.44-8.32,9.43-8.32h29.96c48.82,0,115.39,10.54,115.39,88.76,0,36.06-16.64,71.01-53.26,89.87-19.41,9.43-48.82,14.42-86.54,15.53l128.14,160.32c1.11,1.66,1.66,3.33,1.66,5.55,0,5.55-4.44,9.43-9.43,9.43-2.77,0-5.55-1.11-7.77-3.88l-128.7-160.32Zm2.77-29.96c42.71-.55,71.56-3.33,90.98-13.87,28.29-14.42,42.71-43.27,42.71-72.67,0-56.03-37.72-69.9-94.31-69.9h-22.74l-16.64,156.44Z"></path><path class="cls-7" d="m791.77,3905.44c-38.83,0-38.83-47.15-38.28-76,1.11-30.51,11.1-95.97,43.27-107.06,2.77-1.11,6.1-1.66,9.43-1.66,16.64,0,23.3,13.31,22.74,26.07-1.66,31.07-26.63,67.68-56.58,95.97-1.11,26.07,5.55,43.82,19.97,43.82,12.2,0,26.63-12.2,46.04-52.15,11.65-23.85,40.5-84.32,49.93-107.06,4.99-12.76,22.19-5.55,17.2,6.66-5.55,13.87-30.51,67.12-50.48,108.17-17.75,37.17-36.06,63.24-63.24,63.24Zm17.75-158.1c0-4.99-1.66-8.32-5.55-8.32-11.09,0-27.18,34.95-31.07,77.11,17.2-18.31,36.61-48.82,36.61-68.79Z"></path><path class="cls-7" d="m896.62,3643.6c3.88-33.84,6.66-61.58,12.76-79.88,3.33-9.99,12.2-28.29,31.07-28.29,8.87,0,14.42,2.77,18.31,7.21,6.1,6.66,7.77,16.09,7.77,25.52,0,43.82-33.29,114.83-59.91,164.2l-11.65,111.5c-1.11,8.88-4.99,42.16,7.77,42.72,9.99.55,22.19-21.08,26.07-27.18,18.31-29.4,39.94-74.89,47.15-89.87,3.88-9.99,19.97-2.77,16.09,6.66-9.98,23.85-38.83,79.33-47.71,93.2-9.98,17.2-24.41,36.06-42.16,36.06-29.4,0-29.4-33.28-27.18-54.92l21.63-206.92Zm13.87,41.61c13.87-30.51,37.17-86.54,37.17-117.61,0-7.77-1.66-13.31-7.77-13.31-4.99,0-9.43,6.66-12.2,16.09-5.55,17.2-8.87,40.5-11.65,73.78l-5.55,41.05Z"></path><path class="cls-7" d="m1069.7,3722.37c7.21,1.11,13.31,3.88,12.2,14.42l-11.09,107.06c-1.11,8.32-1.67,17.2-1.67,22.19,0,11.65,1.11,20.53,8.88,20.53,12.2,0,24.41-21.63,38.83-52.15,11.65-23.85,34.95-80.44,44.38-106.51,2.22-5.55,5.55-7.21,9.43-7.21,4.44,0,10.54,3.33,9.43,11.09,0,1.11-.55,2.22-.55,2.77-4.99,13.31-26.63,66.57-46.04,107.62-11.09,23.85-28.85,63.24-56.03,63.24-19.97,0-27.18-17.2-27.18-37.72,0-4.99,0-11.09.56-17.2l3.88-27.18h-.55c-16.64,50.48-36.06,82.1-61.58,82.1s-31.62-34.95-31.62-55.47c0-24.96,3.88-55.47,14.42-80.44,1.66-3.88,4.99-9.99,6.66-12.76,6.1-9.99,12.76-17.75,22.19-24.41,11.1-7.77,23.3-11.65,36.61-11.65,10.54,0,18.31,0,28.85,1.66Zm-7.77,18.31c-8.32-1.11-13.87-1.11-21.08-1.11-7.77,0-17.75,2.77-25.52,7.77-11.65,8.32-17.2,18.31-22.74,30.51-10.54,24.41-12.76,54.92-12.76,74.33s4.44,33.84,13.87,33.84c18.86,0,38.28-53.81,44.93-70.45,8.32-21.63,19.41-52.15,23.3-74.89Z"></path><path class="cls-7" d="m1240,3847.19l3.33-22.74h-.55l-9.43,24.96c-13.31,29.96-31.62,56.03-57.14,56.03-12.2,0-21.63-7.21-25.52-18.86-1.66-5.55-2.77-12.76-2.77-20.53,0-7.21,1.11-17.2,1.66-25.52l11.65-110.95c.55-6.1,5.55-8.88,9.43-8.88,4.44,0,10.54,3.33,9.99,11.09l-12.2,112.06c-.56,8.32-1.66,16.64-1.66,22.19,0,12.2,2.22,20.53,11.65,20.53,14.42,0,30.51-28.85,37.72-43.82,8.32-15.53,17.75-40.5,24.41-62.69,3.88-13.31,10.54-41.61,11.65-51.04,1.11-5.55,6.1-8.32,9.43-8.32,4.99,0,10.54,3.88,9.99,11.09l-15.53,142.57,87.1-127.59c13.87-19.42,31.62-28.29,37.17-28.29,7.21,3.88-8.88,18.86-24.96,42.71l-103.18,152-1.11,10.54c-9.43,92.09-19.41,166.98-63.24,166.98-27.18,0-29.96-31.07-24.41-56.03,8.32-37.17,34.4-74.89,67.68-123.71l2.77-4.44,6.1-59.36Zm-9.98,98.74c-24.41,35.5-42.16,64.35-48.26,92.64-2.22,12.2-3.88,33.28,7.21,33.28,22.74,0,34.95-74.89,41.05-125.93Z"></path><path class="cls-8" d="m1343.74,3905.44c-12.76,0-26.07-3.88-36.61-10.54-2.22-1.66-3.88-4.99-3.88-7.77,0-4.99,4.44-9.43,9.43-9.43,2.22,0,3.88.56,6.1,1.66,6.66,3.88,17.2,7.21,25.52,7.21s17.75-2.22,23.3-7.77c5.55-6.66,8.88-15.53,8.88-26.07,0-34.39-36.06-54.92-36.06-87.65,0-9.43,2.22-15.53,4.99-19.42,7.77-11.65,26.07-26.63,35.5-27.18,5.55-.56,9.43,3.88,9.43,9.43,0,4.99-3.88,7.77-6.66,8.88-11.65,6.1-24.41,13.31-24.41,28.29,0,26.07,36.06,48.82,36.06,87.65,0,12.76-2.22,25.52-12.76,37.72-9.99,10.54-24.41,14.98-38.83,14.98Z"></path><g class="cls-5"><path class="cls-9" d="m1240,3847.19l3.33-22.74h-.55l-9.43,24.96c-13.31,29.96-31.62,56.03-57.14,56.03-12.2,0-21.63-7.21-25.52-18.86-1.66-5.55-2.77-12.76-2.77-20.53,0-7.21,1.11-17.2,1.66-25.52l11.65-110.95c.55-6.1,5.55-8.88,9.43-8.88,4.44,0,10.54,3.33,9.99,11.09l-12.2,112.06c-.56,8.32-1.66,16.64-1.66,22.19,0,12.2,2.22,20.53,11.65,20.53,14.42,0,30.51-28.85,37.72-43.82,8.32-15.53,17.75-40.5,24.41-62.69,3.88-13.31,10.54-41.61,11.65-51.04,1.11-5.55,6.1-8.32,9.43-8.32,4.99,0,10.54,3.88,9.99,11.09l-15.53,142.57,87.1-127.59c13.87-19.42,31.62-28.29,37.17-28.29,7.21,3.88-8.88,18.86-24.96,42.71l-103.18,152-1.11,10.54c-9.43,92.09-19.41,166.98-63.24,166.98-27.18,0-29.96-31.07-24.41-56.03,8.32-37.17,34.4-74.89,67.68-123.71l2.77-4.44,6.1-59.36Zm-9.98,98.74c-24.41,35.5-42.16,64.35-48.26,92.64-2.22,12.2-3.88,33.28,7.21,33.28,22.74,0,34.95-74.89,41.05-125.93Z"></path></g><polygon class="cls-8" points="1191.17 1771.03 1196.26 1703.27 1232.99 1716.21 1191.17 1771.03"></polygon><g class="cls-10"><path class="cls-9" d="m986.41,2022.58c-2.78,24.99-8.88,50.53-28.32,70.52-14.99,15.55-33.32,22.21-56.08,22.21-8.33,0-17.21-1.11-25.54-3.33-6.11-1.11-8.33-5.55-8.33-9.44,0-5.55,5-11.11,12.77-9.44,8.88,1.67,13.33,2.78,20.55,3.33,17.77.56,30.54-4.44,41.65-15.55,16.1-15.55,22.77-38.32,24.99-62.75l14.44-146.04,3.89-22.77h-.56l-9.44,24.99c-13.33,29.99-31.65,56.08-57.2,56.08-12.22,0-21.66-7.22-25.54-18.88-1.67-5.55-2.78-12.77-2.78-20.55,0-7.22,1.11-17.21,1.67-25.54l11.66-111.06c.56-6.11,5.55-8.88,9.44-8.88,4.44,0,10.55,3.33,10,11.11l-12.22,112.17c-1.11,8.33-1.67,16.66-1.67,22.21,0,12.22,2.22,20.55,11.66,20.55,14.44,0,30.54-28.88,37.76-43.87,8.33-15.55,17.77-40.54,24.43-62.75,3.89-13.33,10.55-41.65,11.66-51.09,1.11-5.55,6.11-8.33,9.44-8.33,5,0,10.55,3.89,10,11.11l-28.32,265.99Z"></path></g><g class="cls-12"><path class="cls-9" d="m897.41,2769.65c-1.11,8.33-1.67,17.77-1.67,22.21,0,11.66,1.67,20.55,9.44,20.55,9.44,0,20.55-21.1,23.88-27.21,14.44-23.88,46.09-93.84,53.86-111.61,5-11.11,21.1-3.33,16.66,6.66-9.44,21.1-48.31,103.84-54.97,114.95-10,16.66-22.21,36.09-39.98,36.09-19.99,0-27.76-17.21-27.76-37.76,0-6.66.56-14.44.56-17.21l32.21-305.97c.56-6.11,5-8.88,9.44-8.88s10.55,3.33,9.44,11.11l-31.1,297.08Z"></path></g><g class="cls-11"><path class="cls-9" d="m1388.83,2646.37c-3.33,0-8.33,2.78-9.44,8.33-1.11,9.44-7.77,37.76-11.66,51.09-6.66,22.21-16.1,47.2-24.43,62.75-7.22,14.99-23.32,43.87-37.76,43.87-9.44,0-11.66-8.33-11.66-20.55,0-5.55.56-13.88,1.67-22.21l12.22-112.17c.44-6.1-3.23-9.46-6.98-10.62-.04-.02-.09-.03-.13-.04-.16-.05-.31-.09-.47-.13-.21-.06-.43-.1-.65-.15-.05,0-.09-.01-.14-.02-.24-.04-.48-.08-.73-.1-.31-.03-.61-.05-.9-.05h-67.75l8.88-86.63c2.78-25.54,8.33-48.31,24.99-63.86,11.11-11.11,23.32-16.1,41.09-15.55,7.22.56,11.66,1.11,20.55,3.33,7.77,1.67,12.77-3.89,12.77-9.44,0-3.89-2.22-8.33-7.77-9.44-8.88-2.22-17.77-3.33-26.1-3.33-22.77,0-40.54,6.66-55.53,21.66-19.44,19.99-26.1,46.09-28.88,71.08l-9.44,92.18h-23.88c-13.33,0-13.33,18.88,0,18.88h21.66l-35.54,340.39c-.56,5.55,3.89,10.55,10,10.55,5,0,8.88-3.89,9.44-10l35.54-340.95h59.48l-10.61,101.06c-.56,8.33-1.67,18.32-1.67,25.54,0,7.77,1.11,14.99,2.78,20.55,3.89,11.66,13.33,18.88,25.54,18.88,25.54,0,43.87-26.1,57.2-56.08l9.44-24.99h.56l-3.89,22.77-14.44,146.04c-2.22,24.43-8.88,47.2-24.99,62.75-11.11,11.11-23.88,16.1-41.65,15.55-7.22-.56-11.66-1.67-20.55-3.33-7.77-1.67-12.77,3.89-12.77,9.44,0,3.89,2.22,8.33,8.33,9.44,8.33,2.22,17.21,3.33,25.54,3.33,22.77,0,41.09-6.66,56.08-22.21,19.44-19.99,25.54-45.53,28.32-70.52l28.32-265.99c.56-7.22-5-11.11-10-11.11Z"></path></g></svg> 