<?xml version="1.0" encoding="UTF-8"?> <svg xmlns="http://www.w3.org/2000/svg" xmlns:xlink="http://www.w3.org/1999/xlink" id="Layer_1" viewBox="0 0 1920 3088"><defs><style>.cls-1,.cls-2,.cls-3,.cls-4,.cls-5,.cls-6,.cls-7,.cls-8,.cls-9,.cls-10,.cls-11,.cls-12,.cls-13{fill:none;}.cls-2{stroke-dasharray:0 0 1.74 17.37;}.cls-2,.cls-3,.cls-4,.cls-5,.cls-6,.cls-7,.cls-8,.cls-9,.cls-10,.cls-11,.cls-12,.cls-13{stroke-miterlimit:10;}.cls-2,.cls-3,.cls-4,.cls-5,.cls-6,.cls-7,.cls-8,.cls-9,.cls-10,.cls-11,.cls-13{stroke:#a797c9;stroke-linecap:round;stroke-width:7px;}.cls-14{clip-path:url(#clippath);}.cls-15{fill:#fff;}.cls-16{fill:#937eb9;}.cls-17{fill:#937fbb;}.cls-18{fill:#161b31;}.cls-3{stroke-dasharray:0 0 1.75 17.54;}.cls-4{stroke-dasharray:0 0 1.7 16.97;}.cls-6{stroke-dasharray:0 0 1.71 17.11;}.cls-7{stroke-dasharray:0 0 1.73 17.25;}.cls-19{clip-path:url(#clippath-1);}.cls-8{stroke-dasharray:0 0 1.97 19.73;}.cls-9{stroke-dasharray:0 0 1.65 16.5;}.cls-10{stroke-dasharray:0 0 1.69 16.87;}.cls-11{stroke-dasharray:0 0 1.62 16.24;}.cls-12{stroke:#566789;stroke-width:3.5px;}.cls-13{stroke-dasharray:0 0 1.55 15.47;}</style><clipPath id="clippath"><rect class="cls-1" x="1374.48" y="1638.84" width="98.43" height="98.43" rx="49.22" ry="49.22"></rect></clipPath><clipPath id="clippath-1"><rect class="cls-1" x="385.14" y="2722.92" width="115.72" height="115.72" rx="57.86" ry="57.86"></rect></clipPath></defs><rect class="cls-18" x="2.88" y="-.97" width="1920" height="3088"></rect><line class="cls-12" x1="2.88" y1="2410.45" x2="1922.88" y2="2410.45"></line><line class="cls-12" x1="2.88" y1="2509.73" x2="1922.88" y2="2509.73"></line><line class="cls-12" x1="1922.88" y1="2699.88" x2="2.88" y2="2699.88"></line><line class="cls-12" x1="2.88" y1="2791.87" x2="1922.88" y2="2791.87"></line><line class="cls-12" x1="2.88" y1="200.7" x2="1922.88" y2="200.7"></line><line class="cls-12" x1="2.88" y1="299.98" x2="1922.88" y2="299.98"></line><line class="cls-12" x1="1922.88" y1="490.13" x2="2.88" y2="490.13"></line><line class="cls-12" x1="2.88" y1="585.13" x2="1922.88" y2="585.13"></line><line class="cls-12" x1="2.88" y1="940.47" x2="1922.88" y2="940.47"></line><line class="cls-12" x1="2.88" y1="1039.75" x2="1922.88" y2="1039.75"></line><line class="cls-12" x1="1922.88" y1="1229.9" x2="2.88" y2="1229.9"></line><line class="cls-12" x1="2.88" y1="1319.89" x2="1922.88" y2="1319.89"></line><line class="cls-12" x1="2.88" y1="1675.46" x2="1922.88" y2="1675.46"></line><line class="cls-12" x1="2.88" y1="1774.74" x2="1922.88" y2="1774.74"></line><line class="cls-12" x1="1922.88" y1="1964.89" x2="2.88" y2="1964.89"></line><line class="cls-12" x1="2.88" y1="2059.88" x2="1922.88" y2="2059.88"></line><line class="cls-5" x1="950.82" y1="680.86" x2="950.82" y2="679.99"></line><line class="cls-6" x1="950.82" y1="662.88" x2="950.82" y2="520.89"></line><line class="cls-5" x1="950.82" y1="512.33" x2="950.82" y2="511.46"></line><line class="cls-5" x1="1128.25" y1="1018.97" x2="1128.25" y2="1018.09"></line><line class="cls-4" x1="1128.25" y1="1001.13" x2="1128.25" y2="897.63"></line><line class="cls-5" x1="1128.25" y1="889.15" x2="1128.25" y2="888.28"></line><line class="cls-5" x1="835.74" y1="1396.45" x2="835.74" y2="1395.58"></line><line class="cls-9" x1="835.74" y1="1379.08" x2="835.74" y2="1351.02"></line><line class="cls-5" x1="835.74" y1="1342.77" x2="835.74" y2="1341.89"></line><line class="cls-5" x1="555.61" y1="1660.96" x2="555.61" y2="1660.09"></line><line class="cls-11" x1="555.61" y1="1643.85" x2="555.61" y2="1598.39"></line><line class="cls-5" x1="555.61" y1="1590.27" x2="555.61" y2="1589.4"></line><line class="cls-5" x1="1010.66" y1="2128.74" x2="1010.66" y2="2127.87"></line><line class="cls-10" x1="1010.66" y1="2111" x2="1010.66" y2="1989.56"></line><line class="cls-5" x1="1010.66" y1="1981.13" x2="1010.66" y2="1980.26"></line><line class="cls-5" x1="1078.49" y1="2389.68" x2="1078.49" y2="2388.81"></line><line class="cls-8" x1="1078.49" y1="2369.08" x2="1078.49" y2="2335.54"></line><line class="cls-5" x1="1078.49" y1="2325.68" x2="1078.49" y2="2324.81"></line><line class="cls-5" x1="443.01" y1="2902.49" x2="443.01" y2="2901.62"></line><line class="cls-3" x1="443.01" y1="2884.08" x2="443.01" y2="2854.27"></line><line class="cls-5" x1="443.01" y1="2845.5" x2="443.01" y2="2844.63"></line><line class="cls-5" x1="1423.7" y1="1628.02" x2="1423.7" y2="1627.15"></line><line class="cls-2" x1="1423.7" y1="1609.78" x2="1423.7" y2="1599.36"></line><line class="cls-5" x1="1423.7" y1="1590.68" x2="1423.7" y2="1589.81"></line><line class="cls-5" x1="533.96" y1="680.86" x2="533.96" y2="679.99"></line><line class="cls-7" x1="533.96" y1="662.74" x2="533.96" y2="519.56"></line><line class="cls-5" x1="533.96" y1="510.93" x2="533.96" y2="510.06"></line><line class="cls-5" x1="531.96" y1="926.51" x2="531.96" y2="925.64"></line><line class="cls-13" x1="531.96" y1="910.17" x2="531.96" y2="900.89"></line><line class="cls-5" x1="531.96" y1="893.15" x2="531.96" y2="892.28"></line><polygon class="cls-16" points="1221.05 2791.86 1273.39 2791.86 1312.16 2412.88 1259.83 2412.88 1221.05 2791.86"></polygon><path class="cls-15" d="m1142.19,2855.12v-2.02h3.02v2.18c0,3.74,2.6,6.05,7.94,6.05s8.44-1.97,8.44-6.22c0-3.32-1.39-5.17-4.92-6.09l-6.64-1.72c-4.33-1.13-7.18-2.98-7.18-8.15s3.78-8.91,10.92-8.91,10.59,3.44,10.59,9.07v2.94h-3.02v-2.81c0-4.62-3.07-6.51-7.56-6.51-5.12,0-7.81,2.14-7.81,6.01,0,3.61,1.76,4.71,5.54,5.71l5.75,1.55c5.12,1.39,7.43,3.74,7.43,8.65,0,6.09-4.33,9.24-11.47,9.24-9.12,0-11.05-4.71-11.05-8.99Z"></path><path class="cls-15" d="m1171.88,2830.8h2.94v32.77h-2.94v-32.77Z"></path><path class="cls-15" d="m1182.17,2830.8h2.98v6.51h-2.98v-6.51Zm0,11.76h2.94v21h-2.94v-21Z"></path><path class="cls-15" d="m1191.87,2865.37v-.13h3.11v.13c0,2.9,1.93,4.33,6.13,4.33,4.79,0,7.01-2.94,7.01-7.86v-2.1h-.08c-1.09,2.18-3.65,4.07-7.48,4.07-6.3,0-9.75-3.99-9.75-10.71,0-7.1,4.37-11.09,9.96-11.09,3.78,0,6.55,1.81,7.56,4.12h.13l.29-3.57h2.31v19.16c0,5.88-2.81,10.71-10.33,10.71-6.3,0-8.86-2.98-8.86-7.06Zm16.59-12.77c0-5.5-3.36-8.07-7.35-8.07-3.03,0-7.14,1.47-7.14,8.4s3.57,8.32,7.1,8.32c4.24,0,7.39-2.73,7.39-8.65Z"></path><path class="cls-15" d="m1218.41,2830.8h2.94v15.16c1.05-2.1,3.28-3.95,7.31-3.95,4.75,0,7.77,2.52,7.77,7.94v13.61h-2.94v-13.27c0-4.33-2.14-5.71-5.5-5.71-3.82,0-6.64,2.69-6.64,5.63v13.36h-2.94v-32.77Z"></path><path class="cls-15" d="m1254.75,2860.87v2.6c-.76.21-2.14.59-4.03.59-3.82,0-6.34-1.6-6.34-6.89v-12.18h-4.16v-2.44h4.16v-6.05l2.94-1.43v7.48h5.92v2.44h-5.92v11.8c0,2.82.76,4.58,3.4,4.58,1.6,0,3.23-.29,4.03-.5Z"></path><path class="cls-15" d="m1267.34,2857.13v-1.18h2.94v1.13c0,2.86,2.14,4.49,5.96,4.49s5.8-1.01,5.8-3.78c0-2.06-1.01-2.81-3.86-3.32l-4.62-.84c-3.02-.55-5.54-2.02-5.54-5.5,0-3.15,2.35-6.13,8.4-6.13s8.4,3.02,8.4,7.23v.88h-2.98v-.76c0-3.45-2.14-4.92-5.42-4.92-3.95,0-5.33,1.34-5.33,3.36s1.01,2.86,3.91,3.4l4.03.76c4.12.76,6.09,1.93,6.09,5.59,0,4.58-4.12,6.55-8.78,6.55-7.31,0-8.99-3.28-8.99-6.97Z"></path><path class="cls-15" d="m1290.99,2830.8h2.94v32.77h-2.94v-32.77Z"></path><path class="cls-15" d="m1300.02,2857.76c0-3.95,2.23-6.09,7.86-6.09h6.34v-1.72c0-2.98-1.26-5.42-5.46-5.42-3.95,0-5.33,1.51-5.33,4.12v.88h-2.98v-.84c0-5,4.2-6.68,8.32-6.68,5.8,0,8.4,2.86,8.4,8.44v13.11h-2.06l-.55-2.98h-.08c-1.26,1.89-3.7,3.53-7.35,3.53-4.92,0-7.1-2.31-7.1-6.34Zm14.2-1.85v-1.76h-7.01c-2.65,0-4.03.92-4.03,3.61,0,2.35,1.26,3.86,4.5,3.86,4.16,0,6.55-2.14,6.55-5.71Z"></path><path class="cls-15" d="m1324.5,2842.56h2.6l.29,3.49c1.01-2.14,3.28-4.03,7.35-4.03,4.75,0,7.77,2.52,7.77,7.94v13.61h-2.94v-13.27c0-4.33-2.14-5.71-5.5-5.71-3.82,0-6.64,2.69-6.64,5.63v13.36h-2.94v-21Z"></path><path class="cls-15" d="m1360.84,2860.87v2.6c-.76.21-2.14.59-4.03.59-3.82,0-6.34-1.6-6.34-6.89v-12.18h-4.16v-2.44h4.16v-6.05l2.94-1.43v7.48h5.92v2.44h-5.92v11.8c0,2.82.76,4.58,3.4,4.58,1.6,0,3.23-.29,4.03-.5Z"></path><path class="cls-15" d="m309.62,1537.73h2.9l6.89,29.36h.08l7.81-29.36h3.19l8.19,29.36h.08l6.51-29.36h2.9l-7.6,32.77h-3.53l-8.11-29.07h-.08l-7.77,29.07h-3.53l-7.94-32.77Z"></path><path class="cls-15" d="m352.42,1537.73h2.98v6.51h-2.98v-6.51Zm0,11.76h2.94v21h-2.94v-21Z"></path><path class="cls-15" d="m361.08,1560.03c0-7.1,4.28-11.09,10.04-11.09,3.7,0,6.22,1.6,7.31,3.74h.04v-14.95h2.94v32.77h-1.97l-.67-3.61h-.08c-1.18,2.31-3.95,4.16-7.77,4.16-6.3,0-9.83-3.99-9.83-11.01Zm17.64-.5c0-5.5-3.36-8.07-7.35-8.07-3.11,0-7.14,1.47-7.14,8.4s3.61,8.61,7.14,8.61c4.24,0,7.35-2.73,7.35-8.95Z"></path><path class="cls-15" d="m406.02,1561h-15.96c.17,4.79,2.48,7.48,6.93,7.48,3.82,0,5.67-1.43,5.96-4.83h2.98c-.29,4.24-3.28,7.39-9.03,7.39-7.06,0-9.83-4.66-9.83-10.88s3.23-11.22,10-11.22,8.95,3.99,8.95,10.21v1.85Zm-3.11-2.98c0-4.45-1.72-6.55-5.92-6.55s-6.55,2.65-6.89,6.97h12.81v-.42Z"></path><path class="cls-15" d="m421.14,1563.1v-13.61h2.94v13.27c0,4.33,2.14,5.71,5.42,5.71,3.74,0,6.55-2.69,6.55-5.63v-13.36h2.94v21h-2.6l-.25-3.36h-.08c-.97,2.02-3.23,3.91-7.23,3.91-4.66,0-7.69-2.52-7.69-7.94Z"></path><path class="cls-15" d="m446.34,1549.49h2.39l.34,3.86h.08c1.13-2.48,4.03-4.41,7.86-4.41,6.3,0,9.66,3.99,9.66,11.01s-4.29,11.09-9.87,11.09c-3.78,0-6.38-1.6-7.43-3.7h-.08v11.55h-2.94v-29.41Zm17.18,10.63c0-7.18-3.4-8.61-6.93-8.61-4.24,0-7.56,2.73-7.56,8.44,0,6.01,3.45,8.57,7.44,8.57,3.02,0,7.06-1.47,7.06-8.4Z"></path><path class="cls-15" d="m472.54,1549.49h2.39l.34,3.86h.08c1.13-2.48,4.03-4.41,7.86-4.41,6.3,0,9.66,3.99,9.66,11.01s-4.29,11.09-9.87,11.09c-3.78,0-6.38-1.6-7.43-3.7h-.08v11.55h-2.94v-29.41Zm17.18,10.63c0-7.18-3.4-8.61-6.93-8.61-4.24,0-7.56,2.73-7.56,8.44,0,6.01,3.45,8.57,7.44,8.57,3.02,0,7.06-1.47,7.06-8.4Z"></path><path class="cls-15" d="m516.02,1561h-15.96c.17,4.79,2.48,7.48,6.93,7.48,3.82,0,5.67-1.43,5.97-4.83h2.98c-.29,4.24-3.28,7.39-9.03,7.39-7.06,0-9.83-4.66-9.83-10.88s3.23-11.22,10-11.22,8.95,3.99,8.95,10.21v1.85Zm-3.11-2.98c0-4.45-1.72-6.55-5.92-6.55s-6.55,2.65-6.89,6.97h12.81v-.42Z"></path><path class="cls-15" d="m521.89,1549.49h2.6l.29,3.91c1.01-2.14,3.07-4.45,6.76-4.45,1.26,0,2.18.21,3.02.55v3.15c-1.13-.5-2.1-.76-3.4-.76-3.74,0-6.34,2.81-6.34,5.75v12.85h-2.94v-21Z"></path><path class="cls-15" d="m536.89,1560.16c0-6.38,3.23-11.22,10-11.22s8.95,3.91,8.95,8.95v.42h-3.11v-.63c0-3.82-1.64-6.09-5.84-6.09-4.75,0-7.01,3.11-7.01,8.4,0,5.63,2.39,8.49,6.93,8.49,3.82,0,5.84-1.85,5.92-5.67h3.02c-.08,4.66-3.15,8.23-9.03,8.23-7.22,0-9.83-4.75-9.83-10.88Z"></path><path class="cls-15" d="m560.24,1564.7c0-3.95,2.23-6.09,7.86-6.09h6.34v-1.72c0-2.98-1.26-5.42-5.46-5.42-3.95,0-5.33,1.51-5.33,4.12v.88h-2.98v-.84c0-5,4.2-6.68,8.32-6.68,5.8,0,8.4,2.86,8.4,8.44v13.11h-2.06l-.55-2.98h-.08c-1.26,1.89-3.7,3.53-7.35,3.53-4.92,0-7.1-2.31-7.1-6.34Zm14.2-1.85v-1.76h-7.01c-2.65,0-4.03.92-4.03,3.61,0,2.35,1.26,3.86,4.5,3.86,4.16,0,6.55-2.14,6.55-5.71Z"></path><path class="cls-15" d="m582.84,1564.07v-1.18h2.94v1.13c0,2.86,2.14,4.5,5.96,4.5s5.8-1.01,5.8-3.78c0-2.06-1.01-2.81-3.86-3.32l-4.62-.84c-3.02-.55-5.54-2.02-5.54-5.5,0-3.15,2.35-6.13,8.4-6.13s8.4,3.02,8.4,7.23v.88h-2.98v-.76c0-3.44-2.14-4.91-5.42-4.91-3.95,0-5.33,1.34-5.33,3.36s1.01,2.86,3.91,3.4l4.03.76c4.12.76,6.09,1.93,6.09,5.59,0,4.58-4.12,6.55-8.78,6.55-7.31,0-8.99-3.28-8.99-6.97Z"></path><path class="cls-15" d="m623.75,1561h-15.96c.17,4.79,2.48,7.48,6.93,7.48,3.82,0,5.67-1.43,5.97-4.83h2.98c-.29,4.24-3.28,7.39-9.03,7.39-7.06,0-9.83-4.66-9.83-10.88s3.23-11.22,10-11.22,8.95,3.99,8.95,10.21v1.85Zm-3.11-2.98c0-4.45-1.72-6.55-5.92-6.55s-6.55,2.65-6.89,6.97h12.81v-.42Z"></path><path class="cls-15" d="m639.28,1537.73h2.94v32.77h-2.94v-32.77Z"></path><path class="cls-15" d="m666.84,1561h-15.96c.17,4.79,2.48,7.48,6.93,7.48,3.82,0,5.67-1.43,5.97-4.83h2.98c-.29,4.24-3.28,7.39-9.03,7.39-7.06,0-9.83-4.66-9.83-10.88s3.23-11.22,10-11.22,8.95,3.99,8.95,10.21v1.85Zm-3.11-2.98c0-4.45-1.72-6.55-5.92-6.55s-6.55,2.65-6.89,6.97h12.81v-.42Z"></path><path class="cls-15" d="m673.3,1564.11v-12.18h-4.16v-2.44h4.16v-6.05l2.94-1.43v7.48h11.85v-6.05l2.94-1.43v7.48h5.92v2.44h-5.92v11.8c0,2.81.76,4.58,3.4,4.58,1.6,0,3.24-.29,4.03-.5v2.6c-.76.21-2.14.59-4.03.59-3.82,0-6.34-1.6-6.34-6.89v-12.18h-11.85v11.8c0,2.81.76,4.58,3.4,4.58,1.6,0,3.23-.29,4.03-.5v2.6c-.76.21-2.14.59-4.03.59-3.82,0-6.34-1.6-6.34-6.89Z"></path><path class="cls-15" d="m719.93,1561h-15.96c.17,4.79,2.48,7.48,6.93,7.48,3.82,0,5.67-1.43,5.97-4.83h2.98c-.29,4.24-3.28,7.39-9.03,7.39-7.06,0-9.83-4.66-9.83-10.88s3.23-11.22,10-11.22,8.95,3.99,8.95,10.21v1.85Zm-3.11-2.98c0-4.45-1.72-6.55-5.92-6.55s-6.55,2.65-6.89,6.97h12.81v-.42Z"></path><path class="cls-15" d="m725.8,1549.49h2.6l.29,3.91c1.01-2.14,3.07-4.45,6.76-4.45,1.26,0,2.18.21,3.02.55v3.15c-1.13-.5-2.1-.76-3.4-.76-3.74,0-6.34,2.81-6.34,5.75v12.85h-2.94v-21Z"></path><path class="cls-15" d="m741.01,1564.07v-1.18h2.94v1.13c0,2.86,2.14,4.5,5.96,4.5s5.8-1.01,5.8-3.78c0-2.06-1.01-2.81-3.86-3.32l-4.62-.84c-3.02-.55-5.54-2.02-5.54-5.5,0-3.15,2.35-6.13,8.4-6.13s8.4,3.02,8.4,7.23v.88h-2.98v-.76c0-3.44-2.14-4.91-5.42-4.91-3.95,0-5.33,1.34-5.33,3.36s1.01,2.86,3.91,3.4l4.03.76c4.12.76,6.09,1.93,6.09,5.59,0,4.58-4.12,6.55-8.78,6.55-7.31,0-8.99-3.28-8.99-6.97Z"></path><path class="cls-15" d="m341.37,800.99c0-11.72,6.76-16.93,15.46-16.93,7.94,0,14.7,5.21,14.7,16.59,0,12.48-6.76,17.26-15.08,17.26s-15.08-4.79-15.08-16.93Zm27.05,0c0-10.12-5.33-14.24-12.01-14.24s-11.93,4.12-11.93,14.24,5.33,14.2,12.01,14.2,11.93-3.74,11.93-14.2Z"></path><path class="cls-15" d="m377.83,796.37h2.6l.29,3.91c1.01-2.14,3.07-4.45,6.76-4.45,1.26,0,2.18.21,3.02.55v3.15c-1.13-.5-2.1-.76-3.4-.76-3.74,0-6.34,2.81-6.34,5.75v12.85h-2.94v-21Z"></path><path class="cls-15" d="m395.13,796.37h2.6l.29,3.49c1.01-2.14,3.28-4.03,7.35-4.03,4.75,0,7.77,2.52,7.77,7.94v13.61h-2.94v-13.27c0-4.33-2.14-5.71-5.5-5.71-3.82,0-6.64,2.69-6.64,5.63v13.36h-2.94v-21Z"></path><path class="cls-15" d="m419.24,811.58c0-3.95,2.23-6.09,7.86-6.09h6.34v-1.72c0-2.98-1.26-5.42-5.46-5.42-3.95,0-5.33,1.51-5.33,4.12v.88h-2.98v-.84c0-5,4.2-6.68,8.32-6.68,5.8,0,8.4,2.86,8.4,8.44v13.11h-2.06l-.55-2.98h-.08c-1.26,1.89-3.7,3.53-7.35,3.53-4.92,0-7.1-2.31-7.1-6.34Zm14.2-1.85v-1.76h-7.01c-2.65,0-4.03.92-4.03,3.61,0,2.35,1.26,3.86,4.5,3.86,4.16,0,6.55-2.14,6.55-5.71Z"></path><path class="cls-15" d="m454.48,814.69v2.6c-.76.21-2.14.59-4.03.59-3.82,0-6.34-1.6-6.34-6.89v-12.18h-4.16v-2.44h4.16v-6.05l2.94-1.43v7.48h5.92v2.44h-5.92v11.8c0,2.81.76,4.58,3.4,4.58,1.6,0,3.23-.29,4.03-.5Z"></path><path class="cls-15" d="m475.95,807.88h-15.96c.17,4.79,2.48,7.48,6.93,7.48,3.82,0,5.67-1.43,5.96-4.83h2.98c-.29,4.24-3.28,7.39-9.03,7.39-7.06,0-9.83-4.66-9.83-10.88s3.23-11.22,10-11.22,8.95,3.99,8.95,10.21v1.85Zm-3.11-2.98c0-4.45-1.72-6.55-5.92-6.55s-6.55,2.65-6.89,6.97h12.81v-.42Z"></path><path class="cls-15" d="m491.48,796.37h2.39l.34,3.86h.08c1.13-2.48,4.03-4.41,7.86-4.41,6.3,0,9.66,3.99,9.66,11.01s-4.29,11.09-9.87,11.09c-3.78,0-6.38-1.6-7.44-3.7h-.08v11.55h-2.94v-29.41Zm17.18,10.63c0-7.18-3.4-8.61-6.93-8.61-4.24,0-7.56,2.73-7.56,8.44,0,6.01,3.44,8.57,7.44,8.57,3.02,0,7.06-1.47,7.06-8.4Z"></path><path class="cls-15" d="m517.69,796.37h2.6l.29,3.91c1.01-2.14,3.07-4.45,6.76-4.45,1.26,0,2.18.21,3.02.55v3.15c-1.13-.5-2.1-.76-3.4-.76-3.74,0-6.34,2.81-6.34,5.75v12.85h-2.94v-21Z"></path><path class="cls-15" d="m534.99,784.61h2.98v6.51h-2.98v-6.51Zm0,11.76h2.94v21h-2.94v-21Z"></path><path class="cls-15" d="m545.33,796.37h2.6l.29,3.49c1.01-2.14,3.28-4.03,7.35-4.03,4.75,0,7.77,2.52,7.77,7.94v13.61h-2.94v-13.27c0-4.33-2.14-5.71-5.5-5.71-3.82,0-6.64,2.69-6.64,5.63v13.36h-2.94v-21Z"></path><path class="cls-15" d="m581.66,814.69v2.6c-.76.21-2.14.59-4.03.59-3.82,0-6.34-1.6-6.34-6.89v-12.18h-4.16v-2.44h4.16v-6.05l2.94-1.43v7.48h5.92v2.44h-5.92v11.8c0,2.81.76,4.58,3.4,4.58,1.6,0,3.23-.29,4.03-.5Z"></path><path class="cls-15" d="m594.26,810.95v-1.18h2.94v1.13c0,2.86,2.14,4.5,5.96,4.5s5.8-1.01,5.8-3.78c0-2.06-1.01-2.81-3.86-3.32l-4.62-.84c-3.02-.55-5.54-2.02-5.54-5.5,0-3.15,2.35-6.13,8.4-6.13s8.4,3.02,8.4,7.23v.88h-2.98v-.76c0-3.44-2.14-4.91-5.42-4.91-3.95,0-5.33,1.34-5.33,3.36s1.01,2.86,3.91,3.4l4.03.76c4.12.76,6.09,1.93,6.09,5.59,0,4.58-4.12,6.55-8.78,6.55-7.31,0-8.99-3.28-8.99-6.97Z"></path><path class="cls-15" d="m628.87,814.69v2.6c-.76.21-2.14.59-4.03.59-3.82,0-6.34-1.6-6.34-6.89v-12.18h-4.16v-2.44h4.16v-6.05l2.94-1.43v7.48h5.92v2.44h-5.92v11.8c0,2.81.76,4.58,3.4,4.58,1.6,0,3.23-.29,4.03-.5Z"></path><path class="cls-15" d="m633.9,796.37l6.89,17.98h.08l7.14-17.98h3.07v.04l-8.86,20.84-3.11,8.53h-2.98v-.04l3.19-8.36-8.78-20.96v-.04h3.36Z"></path><path class="cls-15" d="m655.28,784.61h2.94v32.77h-2.94v-32.77Z"></path><path class="cls-15" d="m682.84,807.88h-15.96c.17,4.79,2.48,7.48,6.93,7.48,3.82,0,5.67-1.43,5.97-4.83h2.98c-.29,4.24-3.28,7.39-9.03,7.39-7.06,0-9.83-4.66-9.83-10.88s3.23-11.22,10-11.22,8.95,3.99,8.95,10.21v1.85Zm-3.11-2.98c0-4.45-1.72-6.55-5.92-6.55s-6.55,2.65-6.89,6.97h12.81v-.42Z"></path><path class="cls-15" d="m345.2,858.83v-13.61h2.94v13.27c0,4.33,2.14,5.71,5.42,5.71,3.74,0,6.55-2.69,6.55-5.63v-13.36h2.94v21h-2.6l-.25-3.36h-.08c-.97,2.02-3.24,3.91-7.23,3.91-4.66,0-7.69-2.52-7.69-7.94Z"></path><path class="cls-15" d="m370.4,845.22h2.39l.34,3.86h.08c1.13-2.48,4.03-4.41,7.86-4.41,6.3,0,9.66,3.99,9.66,11.01s-4.28,11.09-9.87,11.09c-3.78,0-6.39-1.6-7.44-3.7h-.08v11.55h-2.94v-29.41Zm17.18,10.63c0-7.18-3.4-8.61-6.93-8.61-4.24,0-7.56,2.73-7.56,8.44,0,6.01,3.44,8.57,7.43,8.57,3.03,0,7.06-1.47,7.06-8.4Z"></path><path class="cls-15" d="m396.6,845.22h2.39l.34,3.86h.08c1.13-2.48,4.03-4.41,7.86-4.41,6.3,0,9.66,3.99,9.66,11.01s-4.28,11.09-9.87,11.09c-3.78,0-6.39-1.6-7.44-3.7h-.08v11.55h-2.94v-29.41Zm17.18,10.63c0-7.18-3.4-8.61-6.93-8.61-4.24,0-7.56,2.73-7.56,8.44,0,6.01,3.44,8.57,7.43,8.57,3.03,0,7.06-1.47,7.06-8.4Z"></path><path class="cls-15" d="m440.08,856.73h-15.96c.17,4.79,2.48,7.48,6.93,7.48,3.82,0,5.67-1.43,5.96-4.83h2.98c-.29,4.24-3.28,7.39-9.03,7.39-7.06,0-9.83-4.66-9.83-10.88s3.23-11.22,10-11.22,8.95,3.99,8.95,10.21v1.85Zm-3.11-2.98c0-4.45-1.72-6.55-5.92-6.55s-6.55,2.65-6.89,6.97h12.81v-.42Z"></path><path class="cls-15" d="m445.95,845.22h2.6l.29,3.91c1.01-2.14,3.07-4.45,6.76-4.45,1.26,0,2.18.21,3.02.55v3.15c-1.13-.5-2.1-.76-3.4-.76-3.74,0-6.34,2.81-6.34,5.75v12.85h-2.94v-21Z"></path><path class="cls-15" d="m460.95,855.89c0-6.38,3.23-11.22,10-11.22s8.95,3.91,8.95,8.95v.42h-3.11v-.63c0-3.82-1.64-6.09-5.84-6.09-4.75,0-7.02,3.11-7.02,8.4,0,5.63,2.39,8.49,6.93,8.49,3.82,0,5.84-1.85,5.92-5.67h3.02c-.08,4.66-3.15,8.23-9.03,8.23-7.23,0-9.83-4.75-9.83-10.88Z"></path><path class="cls-15" d="m484.3,860.43c0-3.95,2.23-6.09,7.86-6.09h6.34v-1.72c0-2.98-1.26-5.42-5.46-5.42-3.95,0-5.33,1.51-5.33,4.12v.88h-2.98v-.84c0-5,4.2-6.68,8.32-6.68,5.8,0,8.4,2.86,8.4,8.44v13.11h-2.06l-.55-2.98h-.08c-1.26,1.89-3.7,3.53-7.35,3.53-4.92,0-7.1-2.31-7.1-6.34Zm14.2-1.85v-1.76h-7.01c-2.65,0-4.03.92-4.03,3.61,0,2.35,1.26,3.86,4.5,3.86,4.16,0,6.55-2.14,6.55-5.71Z"></path><path class="cls-15" d="m506.9,859.8v-1.18h2.94v1.13c0,2.86,2.14,4.5,5.96,4.5s5.8-1.01,5.8-3.78c0-2.06-1.01-2.81-3.87-3.32l-4.62-.84c-3.02-.55-5.54-2.02-5.54-5.5,0-3.15,2.35-6.13,8.4-6.13s8.4,3.02,8.4,7.23v.88h-2.98v-.76c0-3.44-2.14-4.91-5.42-4.91-3.95,0-5.33,1.34-5.33,3.36s1.01,2.86,3.91,3.4l4.03.76c4.12.76,6.09,1.93,6.09,5.59,0,4.58-4.12,6.55-8.78,6.55-7.31,0-8.99-3.28-8.99-6.97Z"></path><path class="cls-15" d="m547.81,856.73h-15.96c.17,4.79,2.48,7.48,6.93,7.48,3.82,0,5.67-1.43,5.96-4.83h2.98c-.29,4.24-3.28,7.39-9.03,7.39-7.06,0-9.83-4.66-9.83-10.88s3.23-11.22,10-11.22,8.95,3.99,8.95,10.21v1.85Zm-3.11-2.98c0-4.45-1.72-6.55-5.92-6.55s-6.55,2.65-6.89,6.97h12.81v-.42Z"></path><path class="cls-15" d="m563.34,833.46h2.94v32.77h-2.94v-32.77Z"></path><path class="cls-15" d="m590.9,856.73h-15.96c.17,4.79,2.48,7.48,6.93,7.48,3.82,0,5.67-1.43,5.97-4.83h2.98c-.29,4.24-3.28,7.39-9.03,7.39-7.06,0-9.83-4.66-9.83-10.88s3.23-11.22,10-11.22,8.95,3.99,8.95,10.21v1.85Zm-3.11-2.98c0-4.45-1.72-6.55-5.92-6.55s-6.55,2.65-6.89,6.97h12.81v-.42Z"></path><path class="cls-15" d="m597.36,859.84v-12.18h-4.16v-2.44h4.16v-6.05l2.94-1.43v7.48h11.85v-6.05l2.94-1.43v7.48h5.92v2.44h-5.92v11.8c0,2.81.76,4.58,3.4,4.58,1.6,0,3.24-.29,4.03-.5v2.6c-.76.21-2.14.59-4.03.59-3.82,0-6.34-1.6-6.34-6.89v-12.18h-11.85v11.8c0,2.81.76,4.58,3.4,4.58,1.6,0,3.23-.29,4.03-.5v2.6c-.76.21-2.14.59-4.03.59-3.82,0-6.34-1.6-6.34-6.89Z"></path><path class="cls-15" d="m643.99,856.73h-15.96c.17,4.79,2.48,7.48,6.93,7.48,3.82,0,5.67-1.43,5.97-4.83h2.98c-.29,4.24-3.28,7.39-9.03,7.39-7.06,0-9.83-4.66-9.83-10.88s3.23-11.22,10-11.22,8.95,3.99,8.95,10.21v1.85Zm-3.11-2.98c0-4.45-1.72-6.55-5.92-6.55s-6.55,2.65-6.89,6.97h12.81v-.42Z"></path><path class="cls-15" d="m649.86,845.22h2.6l.29,3.91c1.01-2.14,3.07-4.45,6.76-4.45,1.26,0,2.18.21,3.02.55v3.15c-1.13-.5-2.1-.76-3.4-.76-3.74,0-6.34,2.81-6.34,5.75v12.85h-2.94v-21Z"></path><path class="cls-15" d="m665.07,859.8v-1.18h2.94v1.13c0,2.86,2.14,4.5,5.96,4.5s5.8-1.01,5.8-3.78c0-2.06-1.01-2.81-3.86-3.32l-4.62-.84c-3.02-.55-5.54-2.02-5.54-5.5,0-3.15,2.35-6.13,8.4-6.13s8.4,3.02,8.4,7.23v.88h-2.98v-.76c0-3.44-2.14-4.91-5.42-4.91-3.95,0-5.33,1.34-5.33,3.36s1.01,2.86,3.91,3.4l4.03.76c4.12.76,6.09,1.93,6.09,5.59,0,4.58-4.12,6.55-8.78,6.55-7.31,0-8.99-3.28-8.99-6.97Z"></path><path class="cls-15" d="m355.52,2941.82h-3.36v-5.08c0-3.95.88-5.29,3.4-5.96l.67,1.85c-1.76.67-2.06,1.09-2.06,3.78v.34h1.34v5.08Zm5.92,0h-3.36v-5.08c0-3.95.88-5.29,3.4-5.96l.67,1.85c-1.76.67-2.06,1.09-2.06,3.78v.34h1.34v5.08Z"></path><path class="cls-15" d="m375.97,2951.06l-11.51-19.66v-.04h3.11l9.83,16.8h.08l9.87-16.8h3.11v.04l-11.55,19.66v13.06h-2.94v-13.06Z"></path><path class="cls-15" d="m392.77,2940.56c1.76-.67,2.06-1.09,2.06-3.78v-.34h-1.34v-5.08h3.36v5.08c0,3.95-.88,5.29-3.4,5.97l-.67-1.85Zm5.92,0c1.76-.67,2.06-1.09,2.06-3.78v-.34h-1.34v-5.08h3.36v5.08c0,3.95-.88,5.29-3.4,5.97l-.67-1.85Z"></path><path class="cls-15" d="m415.57,2943.17v-.04h2.98l5.76,17.48h.08l6.3-17.48h2.69l6.17,17.48h.08l5.75-17.48h2.86v.04l-7.18,20.96h-3.02l-5.96-17.05h-.08l-6.22,17.05h-3.02l-7.18-20.96Z"></path><path class="cls-15" d="m453.08,2931.36h2.98v6.51h-2.98v-6.51Zm0,11.76h2.94v21h-2.94v-21Z"></path><path class="cls-15" d="m474.38,2961.44v2.6c-.76.21-2.14.59-4.03.59-3.82,0-6.34-1.6-6.34-6.89v-12.18h-4.16v-2.44h4.16v-6.05l2.94-1.43v7.48h5.92v2.44h-5.92v11.8c0,2.81.76,4.58,3.4,4.58,1.6,0,3.23-.29,4.03-.5Z"></path><path class="cls-15" d="m479.2,2931.36h2.94v15.17c1.05-2.1,3.28-3.95,7.31-3.95,4.75,0,7.77,2.52,7.77,7.94v13.61h-2.94v-13.27c0-4.33-2.14-5.71-5.5-5.71-3.82,0-6.64,2.69-6.64,5.63v13.36h-2.94v-32.77Z"></path><path class="cls-15" d="m512.55,2953.67c0-7.1,4.28-11.09,10.04-11.09,3.7,0,6.22,1.6,7.31,3.74h.04v-14.96h2.94v32.77h-1.97l-.67-3.61h-.08c-1.18,2.31-3.95,4.16-7.77,4.16-6.3,0-9.83-3.99-9.83-11.01Zm17.64-.5c0-5.5-3.36-8.07-7.35-8.07-3.11,0-7.14,1.47-7.14,8.4s3.61,8.61,7.14,8.61c4.24,0,7.35-2.73,7.35-8.95Z"></path><path class="cls-15" d="m557.5,2954.63h-15.96c.17,4.79,2.48,7.48,6.93,7.48,3.82,0,5.67-1.43,5.97-4.83h2.98c-.29,4.24-3.28,7.39-9.03,7.39-7.06,0-9.83-4.66-9.83-10.88s3.23-11.21,10-11.21,8.95,3.99,8.95,10.21v1.85Zm-3.11-2.98c0-4.45-1.72-6.55-5.92-6.55s-6.55,2.65-6.89,6.97h12.81v-.42Z"></path><path class="cls-15" d="m561.48,2957.7v-1.18h2.94v1.13c0,2.86,2.14,4.5,5.96,4.5s5.8-1.01,5.8-3.78c0-2.06-1.01-2.81-3.86-3.32l-4.62-.84c-3.02-.55-5.54-2.02-5.54-5.5,0-3.15,2.35-6.13,8.4-6.13s8.4,3.02,8.4,7.22v.88h-2.98v-.76c0-3.44-2.14-4.92-5.42-4.92-3.95,0-5.33,1.34-5.33,3.36s1.01,2.86,3.91,3.4l4.03.76c4.12.76,6.09,1.93,6.09,5.59,0,4.58-4.12,6.55-8.78,6.55-7.31,0-8.99-3.28-8.99-6.97Z"></path><path class="cls-15" d="m583.45,2953.79c0-6.38,3.23-11.21,10-11.21s8.95,3.91,8.95,8.95v.42h-3.11v-.63c0-3.82-1.64-6.09-5.84-6.09-4.75,0-7.02,3.11-7.02,8.4,0,5.63,2.39,8.49,6.93,8.49,3.82,0,5.84-1.85,5.92-5.67h3.02c-.08,4.66-3.15,8.23-9.03,8.23-7.22,0-9.83-4.75-9.83-10.88Z"></path><path class="cls-15" d="m625.54,2954.63h-15.96c.17,4.79,2.48,7.48,6.93,7.48,3.82,0,5.67-1.43,5.97-4.83h2.98c-.29,4.24-3.28,7.39-9.03,7.39-7.06,0-9.83-4.66-9.83-10.88s3.23-11.21,10-11.21,8.95,3.99,8.95,10.21v1.85Zm-3.11-2.98c0-4.45-1.72-6.55-5.92-6.55s-6.55,2.65-6.89,6.97h12.81v-.42Z"></path><path class="cls-15" d="m631.41,2943.12h2.6l.29,3.49c1.01-2.14,3.28-4.03,7.35-4.03,4.75,0,7.77,2.52,7.77,7.94v13.61h-2.94v-13.27c0-4.33-2.14-5.71-5.5-5.71-3.82,0-6.64,2.69-6.64,5.63v13.36h-2.94v-21Z"></path><path class="cls-15" d="m655.1,2953.67c0-7.1,4.28-11.09,10.04-11.09,3.7,0,6.22,1.6,7.31,3.74h.04v-14.96h2.94v32.77h-1.97l-.67-3.61h-.08c-1.18,2.31-3.95,4.16-7.77,4.16-6.3,0-9.83-3.99-9.83-11.01Zm17.64-.5c0-5.5-3.36-8.07-7.35-8.07-3.11,0-7.14,1.47-7.14,8.4s3.61,8.61,7.14,8.61c4.24,0,7.35-2.73,7.35-8.95Z"></path><path class="cls-15" d="m700.04,2954.63h-15.96c.17,4.79,2.48,7.48,6.93,7.48,3.82,0,5.67-1.43,5.97-4.83h2.98c-.29,4.24-3.28,7.39-9.03,7.39-7.06,0-9.83-4.66-9.83-10.88s3.23-11.21,10-11.21,8.95,3.99,8.95,10.21v1.85Zm-3.11-2.98c0-4.45-1.72-6.55-5.92-6.55s-6.55,2.65-6.89,6.97h12.81v-.42Z"></path><path class="cls-15" d="m705.92,2943.12h2.6l.29,3.91c1.01-2.14,3.07-4.45,6.76-4.45,1.26,0,2.18.21,3.02.54v3.15c-1.13-.5-2.1-.76-3.4-.76-3.74,0-6.34,2.81-6.34,5.76v12.85h-2.94v-21Z"></path><path class="cls-15" d="m778.66,721.81v-2.02h3.02v2.18c0,3.74,2.61,6.05,7.94,6.05s8.44-1.97,8.44-6.22c0-3.32-1.39-5.17-4.92-6.09l-6.64-1.72c-4.33-1.13-7.18-2.98-7.18-8.15s3.78-8.91,10.92-8.91,10.59,3.44,10.59,9.07v2.94h-3.03v-2.81c0-4.62-3.07-6.51-7.56-6.51-5.12,0-7.81,2.14-7.81,6.01,0,3.61,1.76,4.7,5.54,5.71l5.75,1.55c5.12,1.39,7.44,3.74,7.44,8.65,0,6.09-4.33,9.24-11.47,9.24-9.12,0-11.05-4.7-11.05-8.99Z"></path><path class="cls-15" d="m825.2,720.76h-15.96c.17,4.79,2.48,7.48,6.93,7.48,3.82,0,5.67-1.43,5.96-4.83h2.98c-.29,4.24-3.28,7.39-9.03,7.39-7.06,0-9.83-4.66-9.83-10.88s3.23-11.22,10-11.22,8.95,3.99,8.95,10.21v1.85Zm-3.11-2.98c0-4.45-1.72-6.55-5.92-6.55s-6.55,2.65-6.89,6.97h12.81v-.42Z"></path><path class="cls-15" d="m861.79,716.64v13.61h-2.94v-13.27c0-4.33-2.14-5.71-4.75-5.71-3.82,0-6.17,2.69-6.17,5.63v13.36h-2.94v-13.27c0-4.33-1.85-5.71-4.83-5.71-3.61,0-6.13,2.69-6.13,5.63v13.36h-2.94v-21h2.6l.29,3.49c1.01-2.02,3.07-4.03,6.93-4.03,2.94,0,5.38,1.39,6.43,4.28,1.22-2.39,3.57-4.28,7.14-4.28,4.28,0,7.31,2.52,7.31,7.94Z"></path><path class="cls-15" d="m869.13,697.49h2.98v6.51h-2.98v-6.51Zm0,11.76h2.94v21h-2.94v-21Z"></path><path class="cls-15" d="m877.78,716.77h10.59v2.81h-10.59v-2.81Z"></path><path class="cls-15" d="m892.57,719.92c0-6.38,3.23-11.22,10-11.22s8.95,3.91,8.95,8.95v.42h-3.11v-.63c0-3.82-1.64-6.09-5.84-6.09-4.75,0-7.01,3.11-7.01,8.4,0,5.63,2.39,8.49,6.93,8.49,3.82,0,5.84-1.85,5.92-5.67h3.03c-.08,4.66-3.15,8.23-9.03,8.23-7.23,0-9.83-4.75-9.83-10.88Z"></path><path class="cls-15" d="m915.71,719.75c0-6.22,3.32-11.05,10.38-11.05,6.59,0,10.25,4.83,10.25,11.05s-3.7,11.05-10.29,11.05c-7.27,0-10.33-4.83-10.33-11.05Zm17.56,0c0-5.33-2.9-8.49-7.23-8.49-4.75,0-7.27,3.15-7.27,8.49s2.56,8.49,7.27,8.49c4.33,0,7.23-3.15,7.23-8.49Z"></path><path class="cls-15" d="m942.21,709.25h2.6l.29,3.49c1.01-2.14,3.28-4.03,7.35-4.03,4.75,0,7.77,2.52,7.77,7.94v13.61h-2.94v-13.27c0-4.33-2.14-5.71-5.5-5.71-3.82,0-6.64,2.69-6.64,5.63v13.36h-2.94v-21Z"></path><path class="cls-15" d="m967.58,709.25h2.6l.29,3.49c1.01-2.14,3.28-4.03,7.35-4.03,4.75,0,7.77,2.52,7.77,7.94v13.61h-2.94v-13.27c0-4.33-2.14-5.71-5.5-5.71-3.82,0-6.64,2.69-6.64,5.63v13.36h-2.94v-21Z"></path><path class="cls-15" d="m1010.21,720.76h-15.96c.17,4.79,2.48,7.48,6.93,7.48,3.82,0,5.67-1.43,5.97-4.83h2.98c-.29,4.24-3.28,7.39-9.03,7.39-7.06,0-9.83-4.66-9.83-10.88s3.23-11.22,10-11.22,8.95,3.99,8.95,10.21v1.85Zm-3.11-2.98c0-4.45-1.72-6.55-5.92-6.55s-6.55,2.65-6.89,6.97h12.81v-.42Z"></path><path class="cls-15" d="m1014.41,719.92c0-6.38,3.23-11.22,10-11.22s8.95,3.91,8.95,8.95v.42h-3.11v-.63c0-3.82-1.64-6.09-5.84-6.09-4.75,0-7.01,3.11-7.01,8.4,0,5.63,2.39,8.49,6.93,8.49,3.82,0,5.84-1.85,5.92-5.67h3.02c-.08,4.66-3.15,8.23-9.03,8.23-7.22,0-9.83-4.75-9.83-10.88Z"></path><path class="cls-15" d="m1050.2,727.56v2.6c-.76.21-2.14.59-4.03.59-3.82,0-6.34-1.6-6.34-6.89v-12.18h-4.16v-2.44h4.16v-6.05l2.94-1.43v7.48h5.92v2.44h-5.92v11.8c0,2.81.76,4.58,3.4,4.58,1.6,0,3.23-.29,4.03-.5Z"></path><path class="cls-15" d="m1071.66,720.76h-15.96c.17,4.79,2.48,7.48,6.93,7.48,3.82,0,5.67-1.43,5.97-4.83h2.98c-.29,4.24-3.28,7.39-9.03,7.39-7.06,0-9.83-4.66-9.83-10.88s3.23-11.22,10-11.22,8.95,3.99,8.95,10.21v1.85Zm-3.11-2.98c0-4.45-1.72-6.55-5.92-6.55s-6.55,2.65-6.89,6.97h12.81v-.42Z"></path><path class="cls-15" d="m1075.86,719.79c0-7.1,4.28-11.09,10.04-11.09,3.7,0,6.22,1.6,7.31,3.74h.04v-14.95h2.94v32.77h-1.97l-.67-3.61h-.08c-1.18,2.31-3.95,4.16-7.77,4.16-6.3,0-9.83-3.99-9.83-11.01Zm17.64-.5c0-5.5-3.36-8.07-7.35-8.07-3.11,0-7.14,1.47-7.14,8.4s3.61,8.61,7.14,8.61c4.24,0,7.35-2.73,7.35-8.95Z"></path><path class="cls-15" d="m1113.19,697.49h2.94v32.77h-2.94v-32.77Z"></path><path class="cls-15" d="m1121.8,719.75c0-6.22,3.32-11.05,10.38-11.05,6.59,0,10.25,4.83,10.25,11.05s-3.7,11.05-10.29,11.05c-7.27,0-10.33-4.83-10.33-11.05Zm17.56,0c0-5.33-2.9-8.49-7.22-8.49-4.75,0-7.27,3.15-7.27,8.49s2.56,8.49,7.27,8.49c4.33,0,7.22-3.15,7.22-8.49Z"></path><path class="cls-15" d="m1144.74,709.29v-.04h2.98l5.76,17.48h.08l6.3-17.48h2.69l6.17,17.48h.08l5.75-17.48h2.86v.04l-7.18,20.96h-3.02l-5.96-17.06h-.08l-6.22,17.06h-3.02l-7.18-20.96Z"></path><path class="cls-15" d="m1198.67,720.76h-15.96c.17,4.79,2.48,7.48,6.93,7.48,3.82,0,5.67-1.43,5.97-4.83h2.98c-.29,4.24-3.28,7.39-9.03,7.39-7.06,0-9.83-4.66-9.83-10.88s3.23-11.22,10-11.22,8.95,3.99,8.95,10.21v1.85Zm-3.11-2.98c0-4.45-1.72-6.55-5.92-6.55s-6.55,2.65-6.89,6.97h12.81v-.42Z"></path><path class="cls-15" d="m1204.54,709.25h2.6l.29,3.91c1.01-2.14,3.07-4.45,6.76-4.45,1.26,0,2.18.21,3.02.55v3.15c-1.13-.5-2.1-.76-3.4-.76-3.74,0-6.34,2.81-6.34,5.75v12.85h-2.94v-21Z"></path><path class="cls-15" d="m1219.54,719.92c0-6.38,3.23-11.22,10-11.22s8.95,3.91,8.95,8.95v.42h-3.11v-.63c0-3.82-1.64-6.09-5.84-6.09-4.75,0-7.02,3.11-7.02,8.4,0,5.63,2.39,8.49,6.93,8.49,3.82,0,5.84-1.85,5.92-5.67h3.02c-.08,4.66-3.15,8.23-9.03,8.23-7.22,0-9.83-4.75-9.83-10.88Z"></path><path class="cls-15" d="m1242.89,724.45c0-3.95,2.23-6.09,7.86-6.09h6.34v-1.72c0-2.98-1.26-5.42-5.46-5.42-3.95,0-5.33,1.51-5.33,4.12v.88h-2.98v-.84c0-5,4.2-6.68,8.32-6.68,5.8,0,8.4,2.86,8.4,8.44v13.11h-2.06l-.55-2.98h-.08c-1.26,1.89-3.7,3.53-7.35,3.53-4.92,0-7.1-2.31-7.1-6.34Zm14.2-1.85v-1.76h-7.01c-2.65,0-4.03.92-4.03,3.61,0,2.35,1.26,3.86,4.5,3.86,4.16,0,6.55-2.14,6.55-5.71Z"></path><path class="cls-15" d="m1265.49,723.82v-1.18h2.94v1.13c0,2.86,2.14,4.5,5.96,4.5s5.8-1.01,5.8-3.78c0-2.06-1.01-2.81-3.86-3.32l-4.62-.84c-3.02-.55-5.54-2.02-5.54-5.5,0-3.15,2.35-6.13,8.4-6.13s8.4,3.02,8.4,7.23v.88h-2.98v-.76c0-3.44-2.14-4.91-5.42-4.91-3.95,0-5.33,1.34-5.33,3.36s1.01,2.86,3.91,3.4l4.03.76c4.12.76,6.09,1.93,6.09,5.59,0,4.58-4.12,6.55-8.78,6.55-7.31,0-8.99-3.28-8.99-6.97Z"></path><path class="cls-15" d="m1306.4,720.76h-15.96c.17,4.79,2.48,7.48,6.93,7.48,3.82,0,5.67-1.43,5.97-4.83h2.98c-.29,4.24-3.28,7.39-9.03,7.39-7.06,0-9.83-4.66-9.83-10.88s3.23-11.22,10-11.22,8.95,3.99,8.95,10.21v1.85Zm-3.11-2.98c0-4.45-1.72-6.55-5.92-6.55s-6.55,2.65-6.89,6.97h12.81v-.42Z"></path><path class="cls-15" d="m1321.93,697.49h2.94v32.77h-2.94v-32.77Z"></path><path class="cls-15" d="m1349.49,720.76h-15.96c.17,4.79,2.48,7.48,6.93,7.48,3.82,0,5.67-1.43,5.97-4.83h2.98c-.29,4.24-3.28,7.39-9.03,7.39-7.06,0-9.83-4.66-9.83-10.88s3.23-11.22,10-11.22,8.95,3.99,8.95,10.21v1.85Zm-3.11-2.98c0-4.45-1.72-6.55-5.92-6.55s-6.55,2.65-6.89,6.97h12.81v-.42Z"></path><path class="cls-15" d="m1355.95,723.87v-12.18h-4.16v-2.44h4.16v-6.05l2.94-1.43v7.48h11.85v-6.05l2.94-1.43v7.48h5.92v2.44h-5.92v11.8c0,2.81.76,4.58,3.4,4.58,1.6,0,3.24-.29,4.03-.5v2.6c-.76.21-2.14.59-4.03.59-3.82,0-6.34-1.6-6.34-6.89v-12.18h-11.85v11.8c0,2.81.76,4.58,3.4,4.58,1.6,0,3.23-.29,4.03-.5v2.6c-.76.21-2.14.59-4.03.59-3.82,0-6.34-1.6-6.34-6.89Z"></path><path class="cls-15" d="m1402.58,720.76h-15.96c.17,4.79,2.48,7.48,6.93,7.48,3.82,0,5.67-1.43,5.97-4.83h2.98c-.29,4.24-3.28,7.39-9.03,7.39-7.06,0-9.83-4.66-9.83-10.88s3.23-11.22,10-11.22,8.95,3.99,8.95,10.21v1.85Zm-3.11-2.98c0-4.45-1.72-6.55-5.92-6.55s-6.55,2.65-6.89,6.97h12.81v-.42Z"></path><path class="cls-15" d="m1408.45,709.25h2.6l.29,3.91c1.01-2.14,3.07-4.45,6.76-4.45,1.26,0,2.18.21,3.02.55v3.15c-1.13-.5-2.1-.76-3.4-.76-3.74,0-6.34,2.81-6.34,5.75v12.85h-2.94v-21Z"></path><path class="cls-15" d="m1423.66,723.82v-1.18h2.94v1.13c0,2.86,2.14,4.5,5.96,4.5s5.8-1.01,5.8-3.78c0-2.06-1.01-2.81-3.86-3.32l-4.62-.84c-3.02-.55-5.54-2.02-5.54-5.5,0-3.15,2.35-6.13,8.4-6.13s8.4,3.02,8.4,7.23v.88h-2.98v-.76c0-3.44-2.14-4.91-5.42-4.91-3.95,0-5.33,1.34-5.33,3.36s1.01,2.86,3.91,3.4l4.03.76c4.12.76,6.09,1.93,6.09,5.59,0,4.58-4.12,6.55-8.78,6.55-7.31,0-8.99-3.28-8.99-6.97Z"></path><path class="cls-15" d="m955.15,833.45h3.15l17.69,27.6h.04v-27.6h2.94v32.77h-3.07l-17.77-27.94h-.04v27.94h-2.94v-32.77Z"></path><path class="cls-15" d="m986.31,860.42c0-3.95,2.23-6.09,7.86-6.09h6.34v-1.72c0-2.98-1.26-5.42-5.46-5.42-3.95,0-5.33,1.51-5.33,4.12v.88h-2.98v-.84c0-5,4.2-6.68,8.32-6.68,5.8,0,8.4,2.86,8.4,8.44v13.11h-2.06l-.55-2.98h-.08c-1.26,1.89-3.7,3.53-7.35,3.53-4.91,0-7.1-2.31-7.1-6.34Zm14.2-1.85v-1.76h-7.02c-2.65,0-4.03.92-4.03,3.61,0,2.35,1.26,3.86,4.5,3.86,4.16,0,6.55-2.14,6.55-5.71Z"></path><path class="cls-15" d="m1010.8,845.21h2.6l.29,3.91c1.01-2.14,3.07-4.45,6.76-4.45,1.26,0,2.18.21,3.02.55v3.15c-1.13-.5-2.1-.76-3.4-.76-3.74,0-6.34,2.81-6.34,5.75v12.85h-2.94v-21Z"></path><path class="cls-15" d="m1028.1,845.21h2.6l.29,3.91c1.01-2.14,3.07-4.45,6.76-4.45,1.26,0,2.18.21,3.02.55v3.15c-1.13-.5-2.1-.76-3.4-.76-3.74,0-6.34,2.81-6.34,5.75v12.85h-2.94v-21Z"></path><path class="cls-15" d="m1043.1,855.71c0-6.22,3.32-11.05,10.38-11.05,6.6,0,10.25,4.83,10.25,11.05s-3.7,11.05-10.29,11.05c-7.27,0-10.33-4.83-10.33-11.05Zm17.56,0c0-5.33-2.9-8.49-7.23-8.49-4.75,0-7.27,3.15-7.27,8.49s2.56,8.49,7.27,8.49c4.33,0,7.23-3.15,7.23-8.49Z"></path><path class="cls-15" d="m1066.03,845.25v-.04h2.98l5.75,17.48h.08l6.3-17.48h2.69l6.17,17.48h.08l5.75-17.48h2.86v.04l-7.18,20.96h-3.02l-5.96-17.06h-.08l-6.22,17.06h-3.02l-7.18-20.96Z"></path><path class="cls-15" d="m1113.19,833.45h2.94v32.77h-2.94v-32.77Z"></path><path class="cls-15" d="m1121.8,855.71c0-6.22,3.32-11.05,10.38-11.05,6.59,0,10.25,4.83,10.25,11.05s-3.7,11.05-10.29,11.05c-7.27,0-10.33-4.83-10.33-11.05Zm17.56,0c0-5.33-2.9-8.49-7.22-8.49-4.75,0-7.27,3.15-7.27,8.49s2.56,8.49,7.27,8.49c4.33,0,7.22-3.15,7.22-8.49Z"></path><path class="cls-15" d="m1144.74,845.25v-.04h2.98l5.75,17.48h.08l6.3-17.48h2.69l6.17,17.48h.08l5.75-17.48h2.86v.04l-7.18,20.96h-3.02l-5.96-17.06h-.08l-6.22,17.06h-3.02l-7.18-20.96Z"></path><path class="cls-15" d="m1198.67,856.72h-15.96c.17,4.79,2.48,7.48,6.93,7.48,3.82,0,5.67-1.43,5.97-4.83h2.98c-.29,4.24-3.28,7.39-9.03,7.39-7.06,0-9.83-4.66-9.83-10.88s3.23-11.22,10-11.22,8.95,3.99,8.95,10.21v1.85Zm-3.11-2.98c0-4.45-1.72-6.55-5.92-6.55s-6.55,2.65-6.89,6.97h12.81v-.42Z"></path><path class="cls-15" d="m1204.54,845.21h2.6l.29,3.91c1.01-2.14,3.07-4.45,6.76-4.45,1.26,0,2.18.21,3.02.55v3.15c-1.13-.5-2.1-.76-3.4-.76-3.74,0-6.34,2.81-6.34,5.75v12.85h-2.94v-21Z"></path><path class="cls-15" d="m1219.54,855.88c0-6.38,3.23-11.22,10-11.22s8.95,3.91,8.95,8.95v.42h-3.11v-.63c0-3.82-1.64-6.09-5.84-6.09-4.75,0-7.01,3.11-7.01,8.4,0,5.63,2.39,8.49,6.93,8.49,3.82,0,5.84-1.85,5.92-5.67h3.02c-.08,4.66-3.15,8.23-9.03,8.23-7.22,0-9.83-4.75-9.83-10.88Z"></path><path class="cls-15" d="m1242.89,860.42c0-3.95,2.23-6.09,7.86-6.09h6.34v-1.72c0-2.98-1.26-5.42-5.46-5.42-3.95,0-5.33,1.51-5.33,4.12v.88h-2.98v-.84c0-5,4.2-6.68,8.32-6.68,5.8,0,8.4,2.86,8.4,8.44v13.11h-2.06l-.55-2.98h-.08c-1.26,1.89-3.7,3.53-7.35,3.53-4.92,0-7.1-2.31-7.1-6.34Zm14.2-1.85v-1.76h-7.01c-2.65,0-4.03.92-4.03,3.61,0,2.35,1.26,3.86,4.5,3.86,4.16,0,6.55-2.14,6.55-5.71Z"></path><path class="cls-15" d="m1265.49,859.79v-1.18h2.94v1.13c0,2.86,2.14,4.5,5.96,4.5s5.8-1.01,5.8-3.78c0-2.06-1.01-2.81-3.86-3.32l-4.62-.84c-3.02-.55-5.54-2.02-5.54-5.5,0-3.15,2.35-6.13,8.4-6.13s8.4,3.02,8.4,7.23v.88h-2.98v-.76c0-3.44-2.14-4.91-5.42-4.91-3.95,0-5.33,1.34-5.33,3.36s1.01,2.86,3.91,3.4l4.03.76c4.12.76,6.09,1.93,6.09,5.59,0,4.58-4.12,6.55-8.78,6.55-7.31,0-8.99-3.28-8.99-6.97Z"></path><path class="cls-15" d="m1306.4,856.72h-15.96c.17,4.79,2.48,7.48,6.93,7.48,3.82,0,5.67-1.43,5.97-4.83h2.98c-.29,4.24-3.28,7.39-9.03,7.39-7.06,0-9.83-4.66-9.83-10.88s3.23-11.22,10-11.22,8.95,3.99,8.95,10.21v1.85Zm-3.11-2.98c0-4.45-1.72-6.55-5.92-6.55s-6.55,2.65-6.89,6.97h12.81v-.42Z"></path><path class="cls-15" d="m1321.93,833.45h2.94v32.77h-2.94v-32.77Z"></path><path class="cls-15" d="m1349.49,856.72h-15.96c.17,4.79,2.48,7.48,6.93,7.48,3.82,0,5.67-1.43,5.97-4.83h2.98c-.29,4.24-3.28,7.39-9.03,7.39-7.06,0-9.83-4.66-9.83-10.88s3.23-11.22,10-11.22,8.95,3.99,8.95,10.21v1.85Zm-3.11-2.98c0-4.45-1.72-6.55-5.92-6.55s-6.55,2.65-6.89,6.97h12.81v-.42Z"></path><path class="cls-15" d="m1355.96,859.83v-12.18h-4.16v-2.44h4.16v-6.05l2.94-1.43v7.48h11.85v-6.05l2.94-1.43v7.48h5.92v2.44h-5.92v11.8c0,2.81.76,4.58,3.4,4.58,1.6,0,3.24-.29,4.03-.5v2.6c-.76.21-2.14.59-4.03.59-3.82,0-6.34-1.6-6.34-6.89v-12.18h-11.85v11.8c0,2.81.76,4.58,3.4,4.58,1.6,0,3.23-.29,4.03-.5v2.6c-.76.21-2.14.59-4.03.59-3.82,0-6.34-1.6-6.34-6.89Z"></path><path class="cls-15" d="m1402.58,856.72h-15.96c.17,4.79,2.48,7.48,6.93,7.48,3.82,0,5.67-1.43,5.97-4.83h2.98c-.29,4.24-3.28,7.39-9.03,7.39-7.06,0-9.83-4.66-9.83-10.88s3.23-11.22,10-11.22,8.95,3.99,8.95,10.21v1.85Zm-3.11-2.98c0-4.45-1.72-6.55-5.92-6.55s-6.55,2.65-6.89,6.97h12.81v-.42Z"></path><path class="cls-15" d="m1408.45,845.21h2.6l.29,3.91c1.01-2.14,3.07-4.45,6.76-4.45,1.26,0,2.18.21,3.02.55v3.15c-1.13-.5-2.1-.76-3.4-.76-3.74,0-6.34,2.81-6.34,5.75v12.85h-2.94v-21Z"></path><path class="cls-15" d="m1423.66,859.79v-1.18h2.94v1.13c0,2.86,2.14,4.5,5.96,4.5s5.8-1.01,5.8-3.78c0-2.06-1.01-2.81-3.86-3.32l-4.62-.84c-3.02-.55-5.54-2.02-5.54-5.5,0-3.15,2.35-6.13,8.4-6.13s8.4,3.02,8.4,7.23v.88h-2.98v-.76c0-3.44-2.14-4.91-5.42-4.91-3.95,0-5.33,1.34-5.33,3.36s1.01,2.86,3.91,3.4l4.03.76c4.12.76,6.09,1.93,6.09,5.59,0,4.58-4.12,6.55-8.78,6.55-7.31,0-8.99-3.28-8.99-6.97Z"></path><path class="cls-15" d="m1227.16,1488.78h2.94v30.12h15.71v2.65h-18.65v-32.77Z"></path><path class="cls-15" d="m1248.95,1511.04c0-6.22,3.32-11.05,10.38-11.05,6.6,0,10.25,4.83,10.25,11.05s-3.7,11.05-10.29,11.05c-7.27,0-10.33-4.83-10.33-11.05Zm17.56,0c0-5.33-2.9-8.49-7.23-8.49-4.75,0-7.27,3.15-7.27,8.49s2.56,8.49,7.27,8.49c4.33,0,7.23-3.15,7.23-8.49Z"></path><path class="cls-15" d="m1273.78,1511.04c0-6.22,3.32-11.05,10.38-11.05,6.6,0,10.25,4.83,10.25,11.05s-3.7,11.05-10.29,11.05c-7.27,0-10.33-4.83-10.33-11.05Zm17.56,0c0-5.33-2.9-8.49-7.23-8.49-4.75,0-7.27,3.15-7.27,8.49s2.56,8.49,7.27,8.49c4.33,0,7.23-3.15,7.23-8.49Z"></path><path class="cls-15" d="m1300.28,1500.54h2.39l.34,3.86h.08c1.13-2.48,4.03-4.41,7.86-4.41,6.3,0,9.66,3.99,9.66,11.01s-4.28,11.09-9.87,11.09c-3.78,0-6.39-1.6-7.44-3.7h-.08v11.55h-2.94v-29.41Zm17.18,10.63c0-7.18-3.4-8.61-6.93-8.61-4.24,0-7.56,2.73-7.56,8.44,0,6.01,3.44,8.57,7.44,8.57,3.02,0,7.06-1.47,7.06-8.4Z"></path><path class="cls-15" d="m1325.86,1488.78h2.94v32.77h-2.94v-32.77Z"></path><path class="cls-15" d="m1353.41,1512.05h-15.96c.17,4.79,2.48,7.48,6.93,7.48,3.82,0,5.67-1.43,5.97-4.83h2.98c-.29,4.24-3.28,7.39-9.03,7.39-7.06,0-9.83-4.66-9.83-10.88s3.23-11.22,10-11.22,8.95,3.99,8.95,10.21v1.85Zm-3.11-2.98c0-4.45-1.72-6.55-5.92-6.55s-6.55,2.65-6.89,6.97h12.81v-.42Z"></path><path class="cls-15" d="m1357.4,1515.11v-1.18h2.94v1.13c0,2.86,2.14,4.5,5.96,4.5s5.8-1.01,5.8-3.78c0-2.06-1.01-2.81-3.86-3.32l-4.62-.84c-3.02-.55-5.54-2.02-5.54-5.5,0-3.15,2.35-6.13,8.4-6.13s8.4,3.02,8.4,7.23v.88h-2.98v-.76c0-3.44-2.14-4.91-5.42-4.91-3.95,0-5.33,1.34-5.33,3.36s1.01,2.86,3.91,3.4l4.03.76c4.12.76,6.09,1.93,6.09,5.59,0,4.58-4.12,6.55-8.78,6.55-7.31,0-8.99-3.28-8.99-6.97Z"></path><path class="cls-15" d="m1379.15,1515.11v-1.18h2.94v1.13c0,2.86,2.14,4.5,5.96,4.5s5.8-1.01,5.8-3.78c0-2.06-1.01-2.81-3.86-3.32l-4.62-.84c-3.02-.55-5.54-2.02-5.54-5.5,0-3.15,2.35-6.13,8.4-6.13s8.4,3.02,8.4,7.23v.88h-2.98v-.76c0-3.44-2.14-4.91-5.42-4.91-3.95,0-5.33,1.34-5.33,3.36s1.01,2.86,3.91,3.4l4.03.76c4.12.76,6.09,1.93,6.09,5.59,0,4.58-4.12,6.55-8.78,6.55-7.31,0-8.99-3.28-8.99-6.97Z"></path><path class="cls-15" d="m1411.2,1515.74c0-3.95,2.23-6.09,7.86-6.09h6.34v-1.72c0-2.98-1.26-5.42-5.46-5.42-3.95,0-5.33,1.51-5.33,4.12v.88h-2.98v-.84c0-5,4.2-6.68,8.32-6.68,5.8,0,8.4,2.86,8.4,8.44v13.11h-2.06l-.55-2.98h-.08c-1.26,1.89-3.7,3.53-7.35,3.53-4.92,0-7.1-2.31-7.1-6.34Zm14.2-1.85v-1.76h-7.01c-2.65,0-4.03.92-4.03,3.61,0,2.35,1.26,3.86,4.5,3.86,4.16,0,6.55-2.14,6.55-5.71Z"></path><path class="cls-15" d="m1433.8,1515.11v-1.18h2.94v1.13c0,2.86,2.14,4.5,5.96,4.5s5.8-1.01,5.8-3.78c0-2.06-1.01-2.81-3.86-3.32l-4.62-.84c-3.02-.55-5.54-2.02-5.54-5.5,0-3.15,2.35-6.13,8.4-6.13s8.4,3.02,8.4,7.23v.88h-2.98v-.76c0-3.44-2.14-4.91-5.42-4.91-3.95,0-5.33,1.34-5.33,3.36s1.01,2.86,3.91,3.4l4.03.76c4.12.76,6.09,1.93,6.09,5.59,0,4.58-4.12,6.55-8.78,6.55-7.31,0-8.99-3.28-8.99-6.97Z"></path><path class="cls-15" d="m1455.76,1511.21c0-6.38,3.23-11.22,10-11.22s8.95,3.91,8.95,8.95v.42h-3.11v-.63c0-3.82-1.64-6.09-5.84-6.09-4.75,0-7.02,3.11-7.02,8.4,0,5.63,2.39,8.49,6.93,8.49,3.82,0,5.84-1.85,5.92-5.67h3.02c-.08,4.66-3.15,8.23-9.03,8.23-7.22,0-9.83-4.75-9.83-10.88Z"></path><path class="cls-15" d="m1497.85,1512.05h-15.96c.17,4.79,2.48,7.48,6.93,7.48,3.82,0,5.67-1.43,5.97-4.83h2.98c-.29,4.24-3.28,7.39-9.03,7.39-7.06,0-9.83-4.66-9.83-10.88s3.23-11.22,10-11.22,8.95,3.99,8.95,10.21v1.85Zm-3.11-2.98c0-4.45-1.72-6.55-5.92-6.55s-6.55,2.65-6.89,6.97h12.81v-.42Z"></path><path class="cls-15" d="m1503.73,1500.54h2.6l.29,3.49c1.01-2.14,3.28-4.03,7.35-4.03,4.75,0,7.77,2.52,7.77,7.94v13.61h-2.94v-13.27c0-4.33-2.14-5.71-5.5-5.71-3.82,0-6.64,2.69-6.64,5.63v13.36h-2.94v-21Z"></path><path class="cls-15" d="m1527.41,1511.08c0-7.1,4.28-11.09,10.04-11.09,3.7,0,6.22,1.6,7.31,3.74h.04v-14.95h2.94v32.77h-1.97l-.67-3.61h-.08c-1.18,2.31-3.95,4.16-7.77,4.16-6.3,0-9.83-3.99-9.83-11.01Zm17.64-.5c0-5.5-3.36-8.07-7.35-8.07-3.11,0-7.14,1.47-7.14,8.4s3.61,8.61,7.14,8.61c4.24,0,7.35-2.73,7.35-8.95Z"></path><path class="cls-15" d="m1572.36,1512.05h-15.96c.17,4.79,2.48,7.48,6.93,7.48,3.82,0,5.67-1.43,5.97-4.83h2.98c-.29,4.24-3.28,7.39-9.03,7.39-7.06,0-9.83-4.66-9.83-10.88s3.23-11.22,10-11.22,8.95,3.99,8.95,10.21v1.85Zm-3.11-2.98c0-4.45-1.72-6.55-5.92-6.55s-6.55,2.65-6.89,6.97h12.81v-.42Z"></path><path class="cls-15" d="m1578.23,1500.54h2.6l.29,3.91c1.01-2.14,3.07-4.45,6.76-4.45,1.26,0,2.18.21,3.02.55v3.15c-1.13-.5-2.1-.76-3.4-.76-3.74,0-6.34,2.81-6.34,5.75v12.85h-2.94v-21Z"></path><path class="cls-15" d="m1593.44,1515.11v-1.18h2.94v1.13c0,2.86,2.14,4.5,5.96,4.5s5.8-1.01,5.8-3.78c0-2.06-1.01-2.81-3.86-3.32l-4.62-.84c-3.02-.55-5.54-2.02-5.54-5.5,0-3.15,2.35-6.13,8.4-6.13s8.4,3.02,8.4,7.23v.88h-2.98v-.76c0-3.44-2.14-4.91-5.42-4.91-3.95,0-5.33,1.34-5.33,3.36s1.01,2.86,3.91,3.4l4.03.76c4.12.76,6.09,1.93,6.09,5.59,0,4.58-4.12,6.55-8.78,6.55-7.31,0-8.99-3.28-8.99-6.97Z"></path><path class="cls-15" d="m1267.77,1564.59c0-3.95,2.23-6.09,7.86-6.09h6.34v-1.72c0-2.98-1.26-5.42-5.46-5.42-3.95,0-5.33,1.51-5.33,4.12v.88h-2.98v-.84c0-5,4.2-6.68,8.32-6.68,5.8,0,8.4,2.86,8.4,8.44v13.11h-2.06l-.55-2.98h-.08c-1.26,1.89-3.7,3.53-7.35,3.53-4.92,0-7.1-2.31-7.1-6.34Zm14.2-1.85v-1.76h-7.01c-2.65,0-4.03.92-4.03,3.61,0,2.35,1.26,3.86,4.5,3.86,4.16,0,6.55-2.14,6.55-5.71Z"></path><path class="cls-15" d="m1292.26,1549.38h2.6l.29,3.49c1.01-2.14,3.28-4.03,7.35-4.03,4.75,0,7.77,2.52,7.77,7.94v13.61h-2.94v-13.27c0-4.33-2.14-5.71-5.5-5.71-3.82,0-6.64,2.69-6.64,5.63v13.36h-2.94v-21Z"></path><path class="cls-15" d="m1315.94,1559.93c0-7.1,4.28-11.09,10.04-11.09,3.7,0,6.22,1.6,7.31,3.74h.04v-14.95h2.94v32.77h-1.97l-.67-3.61h-.08c-1.18,2.31-3.95,4.16-7.77,4.16-6.3,0-9.83-3.99-9.83-11.01Zm17.64-.5c0-5.5-3.36-8.07-7.35-8.07-3.11,0-7.14,1.47-7.14,8.4s3.61,8.61,7.14,8.61c4.24,0,7.35-2.73,7.35-8.95Z"></path><path class="cls-15" d="m1351.6,1559.93c0-7.1,4.28-11.09,10.04-11.09,3.7,0,6.22,1.6,7.31,3.74h.04v-14.95h2.94v32.77h-1.97l-.67-3.61h-.08c-1.18,2.31-3.95,4.16-7.77,4.16-6.3,0-9.83-3.99-9.83-11.01Zm17.64-.5c0-5.5-3.36-8.07-7.35-8.07-3.11,0-7.14,1.47-7.14,8.4s3.61,8.61,7.14,8.61c4.24,0,7.35-2.73,7.35-8.95Z"></path><path class="cls-15" d="m1396.54,1560.89h-15.96c.17,4.79,2.48,7.48,6.93,7.48,3.82,0,5.67-1.43,5.97-4.83h2.98c-.29,4.24-3.28,7.39-9.03,7.39-7.06,0-9.83-4.66-9.83-10.88s3.23-11.22,10-11.22,8.95,3.99,8.95,10.21v1.85Zm-3.11-2.98c0-4.45-1.72-6.55-5.92-6.55s-6.55,2.65-6.89,6.97h12.81v-.42Z"></path><path class="cls-15" d="m1400.53,1563.96v-1.18h2.94v1.13c0,2.86,2.14,4.5,5.96,4.5s5.8-1.01,5.8-3.78c0-2.06-1.01-2.81-3.86-3.32l-4.62-.84c-3.02-.55-5.54-2.02-5.54-5.5,0-3.15,2.35-6.13,8.4-6.13s8.4,3.02,8.4,7.23v.88h-2.98v-.76c0-3.44-2.14-4.91-5.42-4.91-3.95,0-5.33,1.34-5.33,3.36s1.01,2.86,3.91,3.4l4.03.76c4.12.76,6.09,1.93,6.09,5.59,0,4.58-4.12,6.55-8.78,6.55-7.31,0-8.99-3.28-8.99-6.97Z"></path><path class="cls-15" d="m1422.5,1560.05c0-6.38,3.23-11.22,10-11.22s8.95,3.91,8.95,8.95v.42h-3.11v-.63c0-3.82-1.64-6.09-5.84-6.09-4.75,0-7.01,3.11-7.01,8.4,0,5.63,2.39,8.49,6.93,8.49,3.82,0,5.84-1.85,5.92-5.67h3.02c-.08,4.66-3.15,8.23-9.03,8.23-7.22,0-9.83-4.75-9.83-10.88Z"></path><path class="cls-15" d="m1464.58,1560.89h-15.96c.17,4.79,2.48,7.48,6.93,7.48,3.82,0,5.67-1.43,5.97-4.83h2.98c-.29,4.24-3.28,7.39-9.03,7.39-7.06,0-9.83-4.66-9.83-10.88s3.23-11.22,10-11.22,8.95,3.99,8.95,10.21v1.85Zm-3.11-2.98c0-4.45-1.72-6.55-5.92-6.55s-6.55,2.65-6.89,6.97h12.81v-.42Z"></path><path class="cls-15" d="m1470.46,1549.38h2.6l.29,3.49c1.01-2.14,3.28-4.03,7.35-4.03,4.75,0,7.77,2.52,7.77,7.94v13.61h-2.94v-13.27c0-4.33-2.14-5.71-5.5-5.71-3.82,0-6.64,2.69-6.64,5.63v13.36h-2.94v-21Z"></path><path class="cls-15" d="m1494.15,1559.93c0-7.1,4.28-11.09,10.04-11.09,3.7,0,6.22,1.6,7.31,3.74h.04v-14.95h2.94v32.77h-1.97l-.67-3.61h-.08c-1.18,2.31-3.95,4.16-7.77,4.16-6.3,0-9.83-3.99-9.83-11.01Zm17.64-.5c0-5.5-3.36-8.07-7.35-8.07-3.11,0-7.14,1.47-7.14,8.4s3.61,8.61,7.14,8.61c4.24,0,7.35-2.73,7.35-8.95Z"></path><path class="cls-15" d="m1539.09,1560.89h-15.96c.17,4.79,2.48,7.48,6.93,7.48,3.82,0,5.67-1.43,5.97-4.83h2.98c-.29,4.24-3.28,7.39-9.03,7.39-7.06,0-9.83-4.66-9.83-10.88s3.23-11.22,10-11.22,8.95,3.99,8.95,10.21v1.85Zm-3.11-2.98c0-4.45-1.72-6.55-5.92-6.55s-6.55,2.65-6.89,6.97h12.81v-.42Z"></path><path class="cls-15" d="m1544.97,1549.38h2.6l.29,3.91c1.01-2.14,3.07-4.45,6.76-4.45,1.26,0,2.18.21,3.02.55v3.15c-1.13-.5-2.1-.76-3.4-.76-3.74,0-6.34,2.81-6.34,5.75v12.85h-2.94v-21Z"></path><path class="cls-15" d="m1560.17,1563.96v-1.18h2.94v1.13c0,2.86,2.14,4.5,5.96,4.5s5.8-1.01,5.8-3.78c0-2.06-1.01-2.81-3.86-3.32l-4.62-.84c-3.02-.55-5.54-2.02-5.54-5.5,0-3.15,2.35-6.13,8.4-6.13s8.4,3.02,8.4,7.23v.88h-2.98v-.76c0-3.44-2.14-4.91-5.42-4.91-3.95,0-5.33,1.34-5.33,3.36s1.01,2.86,3.91,3.4l4.03.76c4.12.76,6.09,1.93,6.09,5.59,0,4.58-4.12,6.55-8.78,6.55-7.31,0-8.99-3.28-8.99-6.97Z"></path><path class="cls-15" d="m804.35,2277.44h-3.36v-5.08c0-3.95.88-5.29,3.4-5.97l.67,1.85c-1.76.67-2.06,1.09-2.06,3.78v.34h1.34v5.08Zm5.92,0h-3.36v-5.08c0-3.95.88-5.29,3.4-5.97l.67,1.85c-1.76.67-2.06,1.09-2.06,3.78v.34h1.34v5.08Z"></path><path class="cls-15" d="m816.66,2266.98h2.94v23.23l12.14-11.47h3.66v.04l-8.4,7.86,8.78,13.06v.04h-3.36l-7.39-11.22-5.42,5.04v6.18h-2.94v-32.77Z"></path><path class="cls-15" d="m838.92,2276.18c1.76-.67,2.06-1.09,2.06-3.78v-.34h-1.34v-5.08h3.36v5.08c0,3.95-.88,5.29-3.4,5.97l-.67-1.85Zm5.92,0c1.76-.67,2.06-1.09,2.06-3.78v-.34h-1.34v-5.08h3.36v5.08c0,3.95-.88,5.29-3.4,5.97l-.67-1.85Z"></path><path class="cls-15" d="m861.72,2278.79v-.04h2.98l5.75,17.47h.08l6.3-17.47h2.69l6.18,17.47h.08l5.75-17.47h2.86v.04l-7.18,20.96h-3.03l-5.96-17.06h-.08l-6.22,17.06h-3.02l-7.18-20.96Z"></path><path class="cls-15" d="m899.23,2278.75h2.6l.29,3.91c1.01-2.14,3.07-4.45,6.76-4.45,1.26,0,2.18.21,3.02.55v3.15c-1.13-.5-2.1-.76-3.4-.76-3.74,0-6.34,2.81-6.34,5.75v12.85h-2.94v-21Z"></path><path class="cls-15" d="m916.53,2266.98h2.98v6.51h-2.98v-6.51Zm0,11.76h2.94v21h-2.94v-21Z"></path><path class="cls-15" d="m927.45,2293.36v-12.18h-4.16v-2.44h4.16v-6.05l2.94-1.43v7.48h11.85v-6.05l2.94-1.43v7.48h5.92v2.44h-5.92v11.8c0,2.81.76,4.58,3.4,4.58,1.6,0,3.23-.29,4.03-.5v2.6c-.76.21-2.14.59-4.03.59-3.82,0-6.34-1.6-6.34-6.89v-12.18h-11.85v11.8c0,2.81.76,4.58,3.4,4.58,1.6,0,3.23-.29,4.03-.5v2.6c-.76.21-2.14.59-4.03.59-3.82,0-6.34-1.6-6.34-6.89Z"></path><path class="cls-15" d="m974.08,2290.26h-15.96c.17,4.79,2.48,7.48,6.93,7.48,3.82,0,5.67-1.43,5.97-4.83h2.98c-.29,4.24-3.28,7.39-9.03,7.39-7.06,0-9.83-4.66-9.83-10.88s3.23-11.22,10-11.22,8.95,3.99,8.95,10.21v1.85Zm-3.11-2.98c0-4.45-1.72-6.55-5.92-6.55s-6.55,2.65-6.89,6.97h12.81v-.42Z"></path><path class="cls-15" d="m979.95,2278.75h2.61l.29,3.49c1.01-2.14,3.28-4.03,7.35-4.03,4.75,0,7.77,2.52,7.77,7.94v13.61h-2.94v-13.27c0-4.33-2.14-5.71-5.5-5.71-3.82,0-6.64,2.69-6.64,5.63v13.36h-2.94v-21Z"></path><path class="cls-15" d="m1012.25,2278.79v-.04h2.98l5.76,17.47h.08l6.3-17.47h2.69l6.18,17.47h.08l5.75-17.47h2.86v.04l-7.18,20.96h-3.02l-5.96-17.06h-.09l-6.22,17.06h-3.02l-7.18-20.96Z"></path><path class="cls-15" d="m1049.76,2266.98h2.98v6.51h-2.98v-6.51Zm0,11.76h2.94v21h-2.94v-21Z"></path><path class="cls-15" d="m1071.05,2297.06v2.6c-.76.21-2.14.59-4.03.59-3.82,0-6.34-1.6-6.34-6.89v-12.18h-4.16v-2.44h4.16v-6.05l2.94-1.43v7.48h5.92v2.44h-5.92v11.8c0,2.81.76,4.58,3.4,4.58,1.6,0,3.23-.29,4.03-.5Z"></path><path class="cls-15" d="m1075.88,2266.98h2.94v15.16c1.05-2.1,3.28-3.95,7.31-3.95,4.75,0,7.77,2.52,7.77,7.94v13.61h-2.94v-13.27c0-4.33-2.14-5.71-5.5-5.71-3.82,0-6.64,2.69-6.64,5.63v13.36h-2.94v-32.77Z"></path><path class="cls-15" d="m1121.87,2297.06v2.6c-.76.21-2.14.59-4.03.59-3.82,0-6.34-1.6-6.34-6.89v-12.18h-4.16v-2.44h4.16v-6.05l2.94-1.43v7.48h5.92v2.44h-5.92v11.8c0,2.81.76,4.58,3.4,4.58,1.6,0,3.23-.29,4.03-.5Z"></path><path class="cls-15" d="m1123.97,2278.79v-.04h2.98l5.76,17.47h.08l6.3-17.47h2.69l6.17,17.47h.08l5.76-17.47h2.86v.04l-7.18,20.96h-3.03l-5.96-17.06h-.08l-6.22,17.06h-3.03l-7.18-20.96Z"></path><path class="cls-15" d="m1158.96,2289.25c0-6.22,3.32-11.05,10.38-11.05,6.6,0,10.25,4.83,10.25,11.05s-3.7,11.05-10.29,11.05c-7.27,0-10.33-4.83-10.33-11.05Zm17.56,0c0-5.33-2.9-8.49-7.22-8.49-4.75,0-7.27,3.15-7.27,8.49s2.56,8.49,7.27,8.49c4.33,0,7.22-3.15,7.22-8.49Z"></path><path class="cls-15" d="m1193.23,2293.32v-1.18h2.94v1.13c0,2.86,2.14,4.5,5.96,4.5s5.8-1.01,5.8-3.78c0-2.06-1.01-2.81-3.86-3.32l-4.62-.84c-3.03-.55-5.54-2.02-5.54-5.5,0-3.15,2.35-6.13,8.4-6.13s8.4,3.02,8.4,7.22v.88h-2.98v-.76c0-3.44-2.14-4.91-5.42-4.91-3.95,0-5.33,1.34-5.33,3.36s1.01,2.86,3.91,3.4l4.03.76c4.12.76,6.09,1.93,6.09,5.59,0,4.58-4.12,6.55-8.78,6.55-7.31,0-8.99-3.28-8.99-6.97Z"></path><path class="cls-15" d="m1227.84,2297.06v2.6c-.76.21-2.14.59-4.03.59-3.82,0-6.34-1.6-6.34-6.89v-12.18h-4.16v-2.44h4.16v-6.05l2.94-1.43v7.48h5.92v2.44h-5.92v11.8c0,2.81.76,4.58,3.4,4.58,1.6,0,3.23-.29,4.03-.5Z"></path><path class="cls-15" d="m1232.67,2278.75h2.6l.29,3.91c1.01-2.14,3.07-4.45,6.76-4.45,1.26,0,2.18.21,3.02.55v3.15c-1.13-.5-2.1-.76-3.4-.76-3.74,0-6.34,2.81-6.34,5.75v12.85h-2.94v-21Z"></path><path class="cls-15" d="m1247.66,2289.25c0-6.22,3.32-11.05,10.38-11.05,6.59,0,10.25,4.83,10.25,11.05s-3.7,11.05-10.29,11.05c-7.27,0-10.33-4.83-10.33-11.05Zm17.56,0c0-5.33-2.9-8.49-7.22-8.49-4.75,0-7.27,3.15-7.27,8.49s2.56,8.49,7.27,8.49c4.33,0,7.22-3.15,7.22-8.49Z"></path><path class="cls-15" d="m1273.53,2266.98h2.94v23.23l12.14-11.47h3.65v.04l-8.4,7.86,8.78,13.06v.04h-3.36l-7.39-11.22-5.42,5.04v6.18h-2.94v-32.77Z"></path><path class="cls-15" d="m1313.9,2290.26h-15.96c.17,4.79,2.48,7.48,6.93,7.48,3.82,0,5.67-1.43,5.97-4.83h2.98c-.29,4.24-3.28,7.39-9.03,7.39-7.06,0-9.83-4.66-9.83-10.88s3.23-11.22,10-11.22,8.95,3.99,8.95,10.21v1.85Zm-3.11-2.98c0-4.45-1.72-6.55-5.92-6.55s-6.55,2.65-6.89,6.97h12.81v-.42Z"></path><path class="cls-15" d="m1317.89,2293.32v-1.18h2.94v1.13c0,2.86,2.14,4.5,5.96,4.5s5.8-1.01,5.8-3.78c0-2.06-1.01-2.81-3.86-3.32l-4.62-.84c-3.03-.55-5.54-2.02-5.54-5.5,0-3.15,2.35-6.13,8.4-6.13s8.4,3.02,8.4,7.22v.88h-2.98v-.76c0-3.44-2.14-4.91-5.42-4.91-3.95,0-5.33,1.34-5.33,3.36s1.01,2.86,3.91,3.4l4.03.76c4.12.76,6.09,1.93,6.09,5.59,0,4.58-4.12,6.55-8.78,6.55-7.31,0-8.99-3.28-8.99-6.97Z"></path><path class="cls-15" d="m874.5,2163.19c0-12.01,6.76-17.27,14.75-17.27,6.97,0,12.39,3.74,12.39,12.01v.8h-2.86v-.92c0-5.92-3.78-9.24-9.45-9.24-6.72,0-11.76,4.58-11.76,14.33s5.04,14.24,11.72,14.24c5.38,0,9.54-2.86,9.54-9.2v-.59h2.77v.42c0,8.02-5.33,12.01-12.56,12.01-7.98,0-14.54-4.87-14.54-16.59Z"></path><path class="cls-15" d="m906.25,2168.74c0-6.22,3.32-11.05,10.38-11.05,6.6,0,10.25,4.83,10.25,11.05s-3.7,11.05-10.29,11.05c-7.27,0-10.33-4.83-10.33-11.05Zm17.56,0c0-5.33-2.9-8.49-7.23-8.49-4.75,0-7.27,3.15-7.27,8.49s2.56,8.49,7.27,8.49c4.33,0,7.23-3.15,7.23-8.49Z"></path><path class="cls-15" d="m963.46,2165.63v13.61h-2.94v-13.27c0-4.33-2.14-5.71-4.75-5.71-3.82,0-6.17,2.69-6.17,5.63v13.36h-2.94v-13.27c0-4.33-1.85-5.71-4.83-5.71-3.61,0-6.13,2.69-6.13,5.63v13.36h-2.94v-21h2.6l.29,3.49c1.01-2.02,3.07-4.03,6.93-4.03,2.94,0,5.38,1.39,6.43,4.28,1.22-2.39,3.57-4.28,7.14-4.28,4.29,0,7.31,2.52,7.31,7.94Z"></path><path class="cls-15" d="m970.81,2158.24h2.39l.34,3.87h.08c1.13-2.48,4.03-4.41,7.86-4.41,6.3,0,9.66,3.99,9.66,11.01s-4.29,11.09-9.87,11.09c-3.78,0-6.38-1.6-7.43-3.7h-.08v11.55h-2.94v-29.41Zm17.18,10.63c0-7.18-3.4-8.61-6.93-8.61-4.24,0-7.56,2.73-7.56,8.44,0,6.01,3.45,8.57,7.44,8.57,3.02,0,7.06-1.47,7.06-8.4Z"></path><path class="cls-15" d="m997.01,2158.24h2.6l.29,3.91c1.01-2.14,3.07-4.45,6.76-4.45,1.26,0,2.18.21,3.02.55v3.15c-1.13-.5-2.1-.76-3.4-.76-3.74,0-6.34,2.81-6.34,5.75v12.85h-2.94v-21Z"></path><path class="cls-15" d="m1030.95,2169.75h-15.96c.17,4.79,2.48,7.48,6.93,7.48,3.82,0,5.67-1.43,5.97-4.83h2.98c-.29,4.24-3.28,7.39-9.03,7.39-7.06,0-9.83-4.66-9.83-10.88s3.23-11.22,10-11.22,8.95,3.99,8.95,10.21v1.85Zm-3.11-2.98c0-4.45-1.72-6.55-5.92-6.55s-6.55,2.65-6.89,6.97h12.81v-.42Z"></path><path class="cls-15" d="m1034.94,2172.81v-1.18h2.94v1.13c0,2.86,2.14,4.49,5.96,4.49s5.8-1.01,5.8-3.78c0-2.06-1.01-2.81-3.86-3.32l-4.62-.84c-3.02-.55-5.54-2.02-5.54-5.5,0-3.15,2.35-6.13,8.4-6.13s8.4,3.02,8.4,7.23v.88h-2.98v-.76c0-3.44-2.14-4.91-5.42-4.91-3.95,0-5.33,1.34-5.33,3.36s1.01,2.86,3.91,3.4l4.03.76c4.12.76,6.09,1.93,6.09,5.59,0,4.58-4.12,6.55-8.78,6.55-7.31,0-8.99-3.28-8.99-6.97Z"></path><path class="cls-15" d="m1056.7,2172.81v-1.18h2.94v1.13c0,2.86,2.14,4.49,5.96,4.49s5.8-1.01,5.8-3.78c0-2.06-1.01-2.81-3.86-3.32l-4.62-.84c-3.02-.55-5.54-2.02-5.54-5.5,0-3.15,2.35-6.13,8.4-6.13s8.4,3.02,8.4,7.23v.88h-2.98v-.76c0-3.44-2.14-4.91-5.42-4.91-3.95,0-5.33,1.34-5.33,3.36s1.01,2.86,3.91,3.4l4.03.76c4.12.76,6.09,1.93,6.09,5.59,0,4.58-4.12,6.55-8.78,6.55-7.31,0-8.99-3.28-8.99-6.97Z"></path><path class="cls-15" d="m1097.61,2169.75h-15.96c.17,4.79,2.48,7.48,6.93,7.48,3.82,0,5.67-1.43,5.97-4.83h2.98c-.29,4.24-3.28,7.39-9.03,7.39-7.06,0-9.83-4.66-9.83-10.88s3.23-11.22,10-11.22,8.95,3.99,8.95,10.21v1.85Zm-3.11-2.98c0-4.45-1.72-6.55-5.92-6.55s-6.55,2.65-6.89,6.97h12.81v-.42Z"></path><path class="cls-15" d="m1101.8,2168.78c0-7.1,4.28-11.09,10.04-11.09,3.7,0,6.22,1.6,7.31,3.74h.04v-14.96h2.94v32.77h-1.97l-.67-3.61h-.08c-1.18,2.31-3.95,4.16-7.77,4.16-6.3,0-9.83-3.99-9.83-11.01Zm17.64-.5c0-5.5-3.36-8.07-7.35-8.07-3.11,0-7.14,1.47-7.14,8.4s3.61,8.61,7.14,8.61c4.24,0,7.35-2.73,7.35-8.95Z"></path><path class="cls-15" d="m1140.82,2156.93h-3.36v-5.08c0-3.95.88-5.29,3.4-5.96l.67,1.85c-1.76.67-2.06,1.09-2.06,3.78v.34h1.34v5.08Zm5.92,0h-3.36v-5.08c0-3.95.88-5.29,3.4-5.96l.67,1.85c-1.76.67-2.06,1.09-2.06,3.78v.34h1.34v5.08Z"></path><path class="cls-15" d="m1150.4,2158.28v-.04h2.98l5.76,17.47h.08l6.3-17.47h2.69l6.17,17.47h.08l5.75-17.47h2.86v.04l-7.18,20.96h-3.02l-5.96-17.05h-.08l-6.22,17.05h-3.02l-7.18-20.96Z"></path><path class="cls-15" d="m1186.01,2155.67c1.76-.67,2.06-1.09,2.06-3.78v-.34h-1.34v-5.08h3.36v5.08c0,3.95-.88,5.29-3.4,5.97l-.67-1.85Zm5.92,0c1.76-.67,2.06-1.09,2.06-3.78v-.34h-1.34v-5.08h3.36v5.08c0,3.95-.88,5.29-3.4,5.97l-.67-1.85Z"></path><path class="cls-15" d="m381.75,721.81v-2.02h3.02v2.18c0,3.74,2.6,6.05,7.94,6.05s8.44-1.97,8.44-6.22c0-3.32-1.39-5.17-4.92-6.09l-6.64-1.72c-4.33-1.13-7.18-2.98-7.18-8.15s3.78-8.91,10.92-8.91,10.59,3.44,10.59,9.07v2.94h-3.02v-2.81c0-4.62-3.07-6.51-7.56-6.51-5.12,0-7.81,2.14-7.81,6.01,0,3.61,1.76,4.7,5.54,5.71l5.75,1.55c5.12,1.39,7.44,3.74,7.44,8.65,0,6.09-4.33,9.24-11.47,9.24-9.12,0-11.05-4.7-11.05-8.99Z"></path><path class="cls-15" d="m442.15,716.64v13.61h-2.94v-13.27c0-4.33-2.14-5.71-4.75-5.71-3.82,0-6.17,2.69-6.17,5.63v13.36h-2.94v-13.27c0-4.33-1.85-5.71-4.83-5.71-3.61,0-6.13,2.69-6.13,5.63v13.36h-2.94v-21h2.6l.29,3.49c1.01-2.02,3.07-4.03,6.93-4.03,2.94,0,5.38,1.39,6.43,4.28,1.22-2.39,3.57-4.28,7.14-4.28,4.28,0,7.31,2.52,7.31,7.94Z"></path><path class="cls-15" d="m448.23,724.45c0-3.95,2.23-6.09,7.86-6.09h6.34v-1.72c0-2.98-1.26-5.42-5.46-5.42-3.95,0-5.33,1.51-5.33,4.12v.88h-2.98v-.84c0-5,4.2-6.68,8.32-6.68,5.8,0,8.4,2.86,8.4,8.44v13.11h-2.06l-.55-2.98h-.08c-1.26,1.89-3.7,3.53-7.35,3.53-4.92,0-7.1-2.31-7.1-6.34Zm14.2-1.85v-1.76h-7.01c-2.65,0-4.03.92-4.03,3.61,0,2.35,1.26,3.86,4.5,3.86,4.16,0,6.55-2.14,6.55-5.71Z"></path><path class="cls-15" d="m472.72,697.49h2.94v32.77h-2.94v-32.77Z"></path><path class="cls-15" d="m483.01,697.49h2.94v32.77h-2.94v-32.77Z"></path><path class="cls-15" d="m502.96,709.25h2.6l.29,3.49c1.01-2.14,3.28-4.03,7.35-4.03,4.75,0,7.77,2.52,7.77,7.94v13.61h-2.94v-13.27c0-4.33-2.14-5.71-5.5-5.71-3.82,0-6.64,2.69-6.64,5.63v13.36h-2.94v-21Z"></path><path class="cls-15" d="m527.7,722.86v-13.61h2.94v13.27c0,4.33,2.14,5.71,5.42,5.71,3.74,0,6.55-2.69,6.55-5.63v-13.36h2.94v21h-2.6l-.25-3.36h-.08c-.97,2.02-3.23,3.91-7.23,3.91-4.66,0-7.69-2.52-7.69-7.94Z"></path><path class="cls-15" d="m583.6,716.64v13.61h-2.94v-13.27c0-4.33-2.14-5.71-4.75-5.71-3.82,0-6.17,2.69-6.17,5.63v13.36h-2.94v-13.27c0-4.33-1.85-5.71-4.83-5.71-3.61,0-6.13,2.69-6.13,5.63v13.36h-2.94v-21h2.6l.29,3.49c1.01-2.02,3.07-4.03,6.93-4.03,2.94,0,5.38,1.39,6.43,4.28,1.22-2.39,3.57-4.28,7.14-4.28,4.29,0,7.31,2.52,7.31,7.94Z"></path><path class="cls-15" d="m608.21,720.76h-15.96c.17,4.79,2.48,7.48,6.93,7.48,3.82,0,5.67-1.43,5.97-4.83h2.98c-.29,4.24-3.28,7.39-9.03,7.39-7.06,0-9.83-4.66-9.83-10.88s3.23-11.22,10-11.22,8.95,3.99,8.95,10.21v1.85Zm-3.11-2.98c0-4.45-1.72-6.55-5.92-6.55s-6.55,2.65-6.89,6.97h12.81v-.42Z"></path><path class="cls-15" d="m614.09,709.25h2.6l.29,3.91c1.01-2.14,3.07-4.45,6.76-4.45,1.26,0,2.18.21,3.02.55v3.15c-1.13-.5-2.1-.76-3.4-.76-3.74,0-6.34,2.81-6.34,5.75v12.85h-2.94v-21Z"></path><path class="cls-15" d="m629.71,724.45c0-3.95,2.23-6.09,7.86-6.09h6.34v-1.72c0-2.98-1.26-5.42-5.46-5.42-3.95,0-5.33,1.51-5.33,4.12v.88h-2.98v-.84c0-5,4.2-6.68,8.32-6.68,5.8,0,8.4,2.86,8.4,8.44v13.11h-2.06l-.55-2.98h-.08c-1.26,1.89-3.7,3.53-7.35,3.53-4.92,0-7.1-2.31-7.1-6.34Zm14.2-1.85v-1.76h-7.01c-2.65,0-4.03.92-4.03,3.61,0,2.35,1.26,3.86,4.5,3.86,4.16,0,6.55-2.14,6.55-5.71Z"></path><path class="cls-15" d="m654.2,697.49h2.94v32.77h-2.94v-32.77Z"></path><path class="cls-15" d="m662.6,723.82v-1.18h2.94v1.13c0,2.86,2.14,4.5,5.96,4.5s5.8-1.01,5.8-3.78c0-2.06-1.01-2.81-3.86-3.32l-4.62-.84c-3.02-.55-5.54-2.02-5.54-5.5,0-3.15,2.35-6.13,8.4-6.13s8.4,3.02,8.4,7.23v.88h-2.98v-.76c0-3.44-2.14-4.91-5.42-4.91-3.95,0-5.33,1.34-5.33,3.36s1.01,2.86,3.91,3.4l4.03.76c4.12.76,6.09,1.93,6.09,5.59,0,4.58-4.12,6.55-8.78,6.55-7.31,0-8.99-3.28-8.99-6.97Z"></path><path class="cls-15" d="m484.98,1437.41v-2.02h3.02v2.18c0,3.74,2.6,6.05,7.94,6.05s8.44-1.97,8.44-6.22c0-3.32-1.39-5.17-4.92-6.09l-6.64-1.72c-4.33-1.13-7.18-2.98-7.18-8.15s3.78-8.91,10.92-8.91,10.59,3.44,10.59,9.07v2.94h-3.02v-2.81c0-4.62-3.07-6.51-7.56-6.51-5.12,0-7.81,2.14-7.81,6.01,0,3.61,1.76,4.7,5.54,5.71l5.75,1.55c5.12,1.39,7.44,3.74,7.44,8.65,0,6.09-4.33,9.24-11.47,9.24-9.12,0-11.05-4.7-11.05-8.99Z"></path><path class="cls-15" d="m525.64,1443.17v2.6c-.76.21-2.14.59-4.03.59-3.82,0-6.34-1.6-6.34-6.89v-12.18h-4.16v-2.44h4.16v-6.05l2.94-1.43v7.48h5.92v2.44h-5.92v11.8c0,2.81.76,4.58,3.4,4.58,1.6,0,3.23-.29,4.03-.5Z"></path><path class="cls-15" d="m530.47,1424.85h2.6l.29,3.91c1.01-2.14,3.07-4.45,6.76-4.45,1.26,0,2.18.21,3.02.55v3.15c-1.13-.5-2.1-.76-3.4-.76-3.74,0-6.34,2.81-6.34,5.75v12.85h-2.94v-21Z"></path><path class="cls-15" d="m546.09,1440.06c0-3.95,2.23-6.09,7.86-6.09h6.34v-1.72c0-2.98-1.26-5.42-5.46-5.42-3.95,0-5.33,1.51-5.33,4.12v.88h-2.98v-.84c0-5,4.2-6.68,8.32-6.68,5.8,0,8.4,2.86,8.4,8.44v13.11h-2.06l-.55-2.98h-.08c-1.26,1.89-3.7,3.53-7.35,3.53-4.92,0-7.1-2.31-7.1-6.34Zm14.2-1.85v-1.76h-7.01c-2.65,0-4.03.92-4.03,3.61,0,2.35,1.26,3.86,4.5,3.86,4.16,0,6.55-2.14,6.55-5.71Z"></path><path class="cls-15" d="m570.58,1413.09h2.98v6.51h-2.98v-6.51Zm0,11.76h2.94v21h-2.94v-21Z"></path><path class="cls-15" d="m580.28,1447.66v-.13h3.11v.13c0,2.9,1.93,4.33,6.13,4.33,4.79,0,7.02-2.94,7.02-7.86v-2.1h-.08c-1.09,2.18-3.65,4.07-7.48,4.07-6.3,0-9.75-3.99-9.75-10.71,0-7.1,4.37-11.09,9.96-11.09,3.78,0,6.55,1.81,7.56,4.12h.13l.29-3.57h2.31v19.16c0,5.88-2.81,10.71-10.33,10.71-6.3,0-8.86-2.98-8.86-7.06Zm16.59-12.77c0-5.5-3.36-8.07-7.35-8.07-3.02,0-7.14,1.47-7.14,8.4s3.57,8.32,7.1,8.32c4.24,0,7.39-2.73,7.39-8.65Z"></path><path class="cls-15" d="m606.82,1413.09h2.94v15.16c1.05-2.1,3.28-3.95,7.31-3.95,4.75,0,7.77,2.52,7.77,7.94v13.61h-2.94v-13.27c0-4.33-2.14-5.71-5.5-5.71-3.82,0-6.64,2.69-6.64,5.63v13.36h-2.94v-32.77Z"></path><path class="cls-15" d="m643.15,1443.17v2.6c-.76.21-2.14.59-4.03.59-3.82,0-6.34-1.6-6.34-6.89v-12.18h-4.16v-2.44h4.16v-6.05l2.94-1.43v7.48h5.92v2.44h-5.92v11.8c0,2.81.76,4.58,3.4,4.58,1.6,0,3.23-.29,4.03-.5Z"></path><path class="cls-15" d="m655.96,1435.4c0-7.1,4.28-11.09,10.04-11.09,3.7,0,6.22,1.6,7.31,3.74h.04v-14.95h2.94v32.77h-1.97l-.67-3.61h-.08c-1.18,2.31-3.95,4.16-7.77,4.16-6.3,0-9.83-3.99-9.83-11.01Zm17.64-.5c0-5.5-3.36-8.07-7.35-8.07-3.11,0-7.14,1.47-7.14,8.4s3.61,8.61,7.14,8.61c4.24,0,7.35-2.73,7.35-8.95Z"></path><path class="cls-15" d="m700.91,1436.36h-15.96c.17,4.79,2.48,7.48,6.93,7.48,3.82,0,5.67-1.43,5.97-4.83h2.98c-.29,4.24-3.28,7.39-9.03,7.39-7.06,0-9.83-4.66-9.83-10.88s3.23-11.22,10-11.22,8.95,3.99,8.95,10.21v1.85Zm-3.11-2.98c0-4.45-1.72-6.55-5.92-6.55s-6.55,2.65-6.89,6.97h12.81v-.42Z"></path><path class="cls-15" d="m704.89,1439.43v-1.18h2.94v1.13c0,2.86,2.14,4.5,5.96,4.5s5.8-1.01,5.8-3.78c0-2.06-1.01-2.81-3.86-3.32l-4.62-.84c-3.02-.55-5.54-2.02-5.54-5.5,0-3.15,2.35-6.13,8.4-6.13s8.4,3.02,8.4,7.23v.88h-2.98v-.76c0-3.44-2.14-4.91-5.42-4.91-3.95,0-5.33,1.34-5.33,3.36s1.01,2.86,3.91,3.4l4.03.76c4.12.76,6.09,1.93,6.09,5.59,0,4.58-4.12,6.55-8.78,6.55-7.31,0-8.99-3.28-8.99-6.97Z"></path><path class="cls-15" d="m726.86,1435.52c0-6.38,3.23-11.22,10-11.22s8.95,3.91,8.95,8.95v.42h-3.11v-.63c0-3.82-1.64-6.09-5.84-6.09-4.75,0-7.02,3.11-7.02,8.4,0,5.63,2.39,8.49,6.93,8.49,3.82,0,5.84-1.85,5.92-5.67h3.02c-.08,4.66-3.15,8.23-9.03,8.23-7.22,0-9.83-4.75-9.83-10.88Z"></path><path class="cls-15" d="m768.95,1436.36h-15.96c.17,4.79,2.48,7.48,6.93,7.48,3.82,0,5.67-1.43,5.97-4.83h2.98c-.29,4.24-3.28,7.39-9.03,7.39-7.06,0-9.83-4.66-9.83-10.88s3.23-11.22,10-11.22,8.95,3.99,8.95,10.21v1.85Zm-3.11-2.98c0-4.45-1.72-6.55-5.92-6.55s-6.55,2.65-6.89,6.97h12.81v-.42Z"></path><path class="cls-15" d="m774.82,1424.85h2.6l.29,3.49c1.01-2.14,3.28-4.03,7.35-4.03,4.75,0,7.77,2.52,7.77,7.94v13.61h-2.94v-13.27c0-4.33-2.14-5.71-5.5-5.71-3.82,0-6.64,2.69-6.64,5.63v13.36h-2.94v-21Z"></path><path class="cls-15" d="m798.51,1435.4c0-7.1,4.28-11.09,10.04-11.09,3.7,0,6.22,1.6,7.31,3.74h.04v-14.95h2.94v32.77h-1.97l-.67-3.61h-.08c-1.18,2.31-3.95,4.16-7.77,4.16-6.3,0-9.83-3.99-9.83-11.01Zm17.64-.5c0-5.5-3.36-8.07-7.35-8.07-3.11,0-7.14,1.47-7.14,8.4s3.61,8.61,7.14,8.61c4.24,0,7.35-2.73,7.35-8.95Z"></path><path class="cls-15" d="m843.45,1436.36h-15.96c.17,4.79,2.48,7.48,6.93,7.48,3.82,0,5.67-1.43,5.97-4.83h2.98c-.29,4.24-3.28,7.39-9.03,7.39-7.06,0-9.83-4.66-9.83-10.88s3.23-11.22,10-11.22,8.95,3.99,8.95,10.21v1.85Zm-3.11-2.98c0-4.45-1.72-6.55-5.92-6.55s-6.55,2.65-6.89,6.97h12.81v-.42Z"></path><path class="cls-15" d="m849.33,1424.85h2.6l.29,3.91c1.01-2.14,3.07-4.45,6.76-4.45,1.26,0,2.18.21,3.02.55v3.15c-1.13-.5-2.1-.76-3.4-.76-3.74,0-6.34,2.81-6.34,5.75v12.85h-2.94v-21Z"></path><path class="cls-15" d="m876.29,1413.09h2.98v6.51h-2.98v-6.51Zm0,11.76h2.94v21h-2.94v-21Z"></path><path class="cls-15" d="m886.63,1424.85h2.6l.29,3.49c1.01-2.14,3.28-4.03,7.35-4.03,4.75,0,7.77,2.52,7.77,7.94v13.61h-2.94v-13.27c0-4.33-2.14-5.71-5.5-5.71-3.82,0-6.64,2.69-6.64,5.63v13.36h-2.94v-21Z"></path><path class="cls-15" d="m923.33,1423.55h-3.36v-5.08c0-3.95.88-5.29,3.4-5.97l.67,1.85c-1.76.67-2.06,1.09-2.06,3.78v.34h1.34v5.08Zm5.92,0h-3.36v-5.08c0-3.95.88-5.29,3.4-5.97l.67,1.85c-1.76.67-2.06,1.09-2.06,3.78v.34h1.34v5.08Z"></path><path class="cls-15" d="m939.38,1419.81v5.04h5.92v2.44h-5.92v18.57h-2.94v-18.57h-4.16v-2.44h4.16v-5.42c0-5.29,3.15-6.89,6.38-6.89,1.85,0,2.98.29,3.74.55v2.6c-.71-.21-1.89-.46-3.49-.46-2.65,0-3.7,1.76-3.7,4.58Z"></path><path class="cls-15" d="m949.92,1422.29c1.76-.67,2.06-1.09,2.06-3.78v-.34h-1.34v-5.08h3.36v5.08c0,3.95-.88,5.29-3.4,5.97l-.67-1.85Zm5.92,0c1.76-.67,2.06-1.09,2.06-3.78v-.34h-1.34v-5.08h3.36v5.08c0,3.95-.88,5.29-3.4,5.97l-.67-1.85Z"></path><rect class="cls-17" x="1371.79" y="1638.84" width="98.43" height="98.43" rx="49.22" ry="49.22"></rect><rect class="cls-17" x="385.14" y="2722.92" width="115.72" height="115.72" rx="57.86" ry="57.86"></rect><path class="cls-17" d="m431.83,397.48c10.73-15.1,27.02-23.44,45.69-23.44,32.18,0,58.01,25.83,58.01,58.01s-25.83,58.01-57.61,58.01-57.21-25.83-59.2-61.98c-1.59-29.8,8.74-71.12,25.83-92.18,6.75-8.34,15.1-16.29,21.46-20.26,15.89-11.52,38.14-18.67,58.8-18.67,9.14,0,12.71,1.59,13.11,4.77.4,3.18-1.59,5.56-4.37,5.96-51.25-.4-90.59,23.84-101.71,89.79Zm-1.19,36.55c0,24.24,22.65,45.69,46.88,45.69,26.22,0,46.88-21.85,46.88-47.68s-21.06-48.08-47.68-48.08-46.09,21.85-46.09,50.06Z"></path><path class="cls-17" d="m681.35,339.08c-.4,4.37-1.19,8.74-2.38,13.51-1.99,5.56-4.77,11.92-9.93,18.28l-6.36,7.55-89.79,99.33h93.77c2.78,0,5.96,2.38,5.96,5.56-.4,3.58-2.38,5.17-6.36,5.17h-102.51c-6.36,0-9.14-1.19-9.14-3.97,0-1.59,1.19-3.97,3.58-6.75l92.97-102.91c10.73-11.92,19.07-25.43,19.07-36.55.79-10.33-1.99-16.69-9.54-23.44-7.95-6.36-18.28-8.74-28.21-8.74-20.26,0-29.8,3.97-47.28,12.71-2.78,1.59-4.77,2.38-6.75,1.59-3.58-1.19-3.97-2.38-3.97-5.96.4-1.19,1.19-2.38,2.78-3.58,15.89-11.92,36.16-15.5,55.62-15.5,15.5,0,28.21,4.37,37.75,13.91,7.95,7.95,11.12,16.69,10.73,29.8Z"></path><path class="cls-15" d="m927.69,304.51l-18.68,207c-4.37,50.06-28.61,74.7-75.89,74.7-5.56,0-31.78-1.19-34.96-5.56-1.19-1.99-1.19-3.58-.4-5.17,1.19-2.78,4.37-3.97,7.15-3.18,9.93,3.18,22.25,3.18,32.58,3.18,41.32-1.59,57.21-26.22,60.79-67.54l7.95-89.79c-11.52,20.66-42.51,72.31-71.12,72.31-19.47,0-34.17-29-34.17-70.33,0-67.94,36.95-122.37,83.83-122.37h36.55c2.38,0,4.77.79,5.56,1.59.79.79,1.19,2.78.79,5.17Zm-11.52,3.97h-31.39c-40.92,0-72.71,50.06-72.71,114.43,0,13.51,5.56,56.82,24.24,56.82,24.63,0,63.97-72.31,72.71-90.99l7.15-80.26Z"></path><path class="cls-15" d="m963.06,408.61c0-37.75,18.67-112.84,67.54-112.84,4.77,0,9.14.79,13.11,1.99h145.42v8.34l-22.25,1.99h-106.48c16.29,16.29,22.25,46.09,22.25,67.94,0,37.75-17.88,114.43-67.54,114.43-38.94,0-52.05-51.25-52.05-81.85Zm11.13-1.59c0,25.83,7.15,72.71,40.92,72.71,39.33,0,56.42-67.94,56.42-100.92,0-21.85-6.36-62.38-30.99-70.72h-.4c-2.78-1.19-5.96-1.59-9.54-1.59-39.34,0-56.42,70.72-56.42,100.52Z"></path><path class="cls-15" d="m1309.52,393.91c-1.99,4.77-9.14,17.08-21.85,36.95-12.71,19.87-24.24,34.57-34.17,43.7-10.33,9.14-19.87,13.91-28.61,13.91h-.79c-12.32,0-17.48-9.14-15.89-27.41l3.97-44.1c-23.84,43.71-54.04,73.11-72.71,73.11s-32.98-29-32.98-70.33c0-67.54,36.55-121.98,83.04-121.98h38.94c3.18,0,4.77,1.99,4.77,5.17v1.19l-14.3,160.12c-.4,3.58.4,11.12,3.58,13.11,1.19.4,1.99.4,3.18.4,5.96,0,13.91-4.77,23.44-14.3,23.84-23.84,38.54-50.86,51.65-75.49,6.36-12.32,9.54-18.28,9.54-18.28l-.79,24.24Zm-94.96-12.32l5.96-72.71h-30.99c-38.14,0-71.91,50.86-71.91,108.47,0,32.58,10.73,61.98,23.05,61.98,19.07,0,71.52-68.74,73.9-97.74Z"></path><path class="cls-15" d="m1439.05,306.1c-5.96,1.19-9.54,3.18-11.52,6.75-1.99,3.58-4.77,7.95-9.14,13.11-3.18,4.37-11.13,16.29-23.84,40.53l-56.82,106.08c-5.56,10.73-12.71,15.89-21.85,15.89h-2.38c-5.17,0-8.74-1.99-11.13-5.96-2.78-4.77-3.97-13.51-2.78-25.83l21.85-252.3c0-3.18,1.99-4.77,5.56-4.77,3.18,0,5.56,3.18,5.17,5.56l-21.85,258.65c-.79,9.14.79,13.91,4.37,13.91h1.19c3.97,0,7.15-1.99,9.54-5.96l59.99-112.04c13.91-25.43,19.87-35.36,22.65-38.54,13.11-13.51,25.43-20.66,36.95-21.06l-5.96,5.96Z"></path><path class="cls-15" d="m1456.14,306.89c-20.66,0-44.1,6.36-44.1,31.39,0,21.85,23.44,37.75,44.5,53.64,21.06,15.5,42.12,30.59,42.12,50.86,0,38.14-41.32,47.28-71.91,47.28-6.75,0-45.69-.79-45.69-10.33,0-6.75,4.77-6.75,10.33-5.17,11.13,3.58,19.07,4.77,37.35,4.77,36.15,0,58.8-12.71,58.8-35.76,0-19.07-28.21-35.76-41.72-45.69-21.85-15.89-44.9-33.77-44.9-60.39,0-29.8,28.61-41.32,54.43-41.32,23.05,0,48.87,5.56,49.27,10.33.4,3.18-1.99,8.34-6.36,6.75-14.3-4.37-28.21-6.36-42.12-6.36Z"></path><path class="cls-17" d="m432.24,1227.98c-3.18,0-4.37-.4-5.56-1.59-.79-.79-1.19-2.38-.79-4.77l23.84-268.99h-28.61c-34.57,0-56.02,22.65-64.76,63.57-2.78,12.71-3.58,14.7-8.34,14.3-4.37-.4-4.37-3.18-4.37-6.36,1.19-13.51,7.55-32.18,17.09-48.87,16.29-24.63,31.79-33.37,62.38-33.37h118.4c82.25,0,143.43,61.19,143.43,144.23,0,89-53.64,141.84-144.23,141.84h-108.47Zm28.61-275.34l-23.44,264.61h106.08c79.86,0,130.32-50.46,130.32-128.33s-56.02-136.28-133.1-136.28h-79.86Z"></path><path class="cls-15" d="m702.03,1146.13c0-45.69,22.65-110.85,65.95-110.85,23.44,0,40.13,18.67,40.13,40.13,0,26.62-25.83,57.61-94.96,63.97-.79,23.04,3.97,49.66,15.5,64.76,7.95,10.33,16.29,14.7,25.43,14.7,21.06,0,32.98-21.46,38.54-21.85,2.38,0,5.96,3.18,5.96,5.56,0,5.17-17.48,19.47-30.2,24.24-4.37,1.59-9.54,2.78-14.3,2.78-30.2,0-52.05-34.57-52.05-83.44Zm12.32-17.48c61.58-6.75,82.64-31.79,82.64-52.84,0-16.29-11.52-29.8-27.41-29.8-27.42,0-48.47,34.17-55.23,82.64Z"></path><path class="cls-17" d="m953.53,952.24h-39.34c-24.24,0-42.91,19.47-45.69,50.06l-3.18,34.96h101.32l3.97,10.33h-106.48l-23.44,264.22c0,3.58-1.59,5.17-5.17,5.17-3.97,0-5.56-1.99-5.17-5.96l23.04-263.42h-15.1c-3.58,0-5.17-1.19-5.17-4.77s1.59-5.56,5.17-5.56h16.29l3.58-35.76c3.18-30.99,19.87-54.04,41.72-58.01,4.77-1.19,9.54-1.99,14.3-1.99h39.34c3.97,0,5.56,1.19,5.56,4.77,0,3.97-1.59,5.96-5.56,5.96Z"></path><path class="cls-15" d="m1117.23,1044.02c-5.96,1.19-14.3,5.56-25.03,13.51-10.73,8.34-20.66,18.28-29.4,29.8-8.74,11.52-17.09,24.24-25.03,38.14-23.44,39.73-46.09,79.07-51.25,86.22-7.55,10.33-15.5,15.89-24.24,16.29h-.4c-3.97,0-8.34-1.99-10.73-5.56-4.37-6.75-4.37-14.3-3.18-27.41l12.71-152.57c.4-3.97,2.38-5.56,6.36-5.56,4.37,0,4.77,3.18,4.37,7.15l-13.51,163.7c0,1.99.4,8.74,4.37,9.54,4.77-1.19,7.95-2.78,9.93-5.17,7.55-9.93,18.28-26.22,31.39-49.66,13.11-23.04,23.84-41.32,32.18-55.23,8.34-13.51,17.09-25.43,26.22-35.76,17.48-20.26,38.14-33.37,57.21-33.37h3.58l-5.56,5.96Zm-148.6-48.87c3.58,0,7.95,3.97,7.95,7.95s-4.37,7.95-7.95,7.95c-3.97,0-8.34-3.97-8.34-7.95s4.37-7.95,8.34-7.95Z"></path><path class="cls-15" d="m1158.95,1217.25c2.38,0,3.97-1.59,5.56-4.37,52.05-104.1,79.07-158.53,81.45-163.3,1.99-4.37,3.58-7.15,3.97-7.95,1.99-2.78,5.17-4.77,8.74-5.17h1.19c11.92,1.19,16.69,9.54,15.5,23.44l-13.11,166.08c-.4,1.99-3.58,3.97-5.96,3.58-2.78,0-5.56-2.38-5.17-4.37l13.51-169.26c.4-7.95-2.38-8.34-5.56-8.74-.4.4-1.19.79-1.59,1.59l-81.45,166.08c-5.17,8.74-10.33,13.11-15.89,13.11h-1.59c-12.32,0-17.48-9.14-15.89-27.41l3.97-44.1c-23.84,43.71-54.04,73.11-72.71,73.11s-32.98-29-32.98-70.33c0-67.54,36.55-121.98,83.04-121.98h38.94c3.18,0,4.77,1.99,4.77,5.17v1.19l-14.3,160.12c-.4,4.37.79,13.51,5.17,13.51h.4Zm-9.93-96.15l5.96-72.71h-30.99c-38.14,0-71.91,50.86-71.91,108.47,0,32.58,10.73,61.98,23.05,61.98,19.07,0,71.52-68.74,73.9-97.74Z"></path><path class="cls-15" d="m1458.54,1133.42c-1.99,4.77-9.14,17.08-21.85,36.95-12.71,19.87-24.24,34.57-34.57,43.7-7.95,7.55-15.5,11.92-23.04,13.51v.4h-5.96v-.79c-5.56-1.19-12.32-5.96-11.92-21.06l9.14-115.22c1.59-21.85-9.54-41.32-21.45-44.1-39.34-9.54-64.76,67.15-78.67,93.77-1.99,2.78-4.37,4.37-6.36,4.37-2.38,0-4.37-2.38-3.97-6.75v-.79c16.69-32.18,40.92-111.65,91.38-101.32,17.88,4.37,32.18,30.2,30.2,55.63l-9.14,114.82c-.79,7.55,1.99,9.93,4.77,10.73,5.56-1.19,12.71-5.96,21.06-14.3,23.84-23.84,38.54-50.86,51.65-75.49,6.36-12.32,9.54-18.28,9.54-18.28l-.79,24.24Z"></path><path class="cls-15" d="m1472.84,1047.6l-10.33,119.99c-3.58,39.33,6.36,50.86,30.99,50.86,17.09,0,25.83-3.58,34.57-15.89,2.38-3.18,5.17-4.77,8.34-2.78,3.58,2.38,3.58,3.97,1.59,7.15-9.14,14.7-23.44,23.04-44.5,22.25-35.36-1.19-42.91-19.87-42.91-52.05l.79-7.55v-3.58l10.33-118.4h-19.07c-3.58,0-5.17-1.19-5.17-5.17,0-3.58,1.59-5.17,5.17-5.17h19.87l2.78-31.39c.4-3.97,1.99-5.17,6.36-5.17,2.78,0,4.77,1.59,4.77,5.96l-2.78,30.59h74.7c3.58,0,5.17,1.59,5.17,5.17,0,3.97-1.59,5.17-5.17,5.17h-75.49Z"></path><path class="cls-17" d="m653.19,1959.5c-.4,3.58-1.59,4.77-5.56,4.77s-5.17-1.19-4.77-5.56l5.17-61.98c-26.22,35.36-57.21,67.54-104.89,67.54-66.75,0-100.92-26.22-100.92-98.93,0-47.28,8.74-118.4,11.13-148.6.79-9.54,0-16.29-2.38-20.66-2.78-5.17-7.55-7.15-13.11-7.15-10.73,0-24.24,7.15-29.8,11.92-9.14,7.15-17.88,17.08-18.67,18.28-2.38,2.38-5.56-.4-6.75-2.38-1.59-3.18-.79-4.37,1.59-6.75.79-1.19,8.34-9.93,17.48-17.48,14.7-12.32,32.18-15.1,39.34-14.3,21.06,2.38,25.43,19.47,23.84,37.75-3.58,42.12-11.92,100.92-11.92,149.79,0,62.78,24.24,87.41,90.19,87.41,55.23,0,105.29-54.83,109.26-108.47l13.11-161.31c.4-3.58,2.78-5.56,6.75-5.16,3.18.4,4.37,2.38,3.97,7.15l-23.04,274.15Z"></path><path class="cls-15" d="m933.31,1820.04c-3.58,14.7-9.93,36.55-19.47,58.8-4.77,11.52-9.54,21.45-13.91,30.2-9.54,17.48-21.46,36.16-32.98,46.88-5.17,4.77-11.13,7.55-17.09,8.34-.4.4-.79.4-1.59.4-8.34,0-17.08-5.56-15.89-21.46l9.14-116.02c1.19-17.08-6.36-44.9-27.42-44.9-34.96,0-59.2,69.53-72.31,94.16l-7.55,83.83c-.4,2.78-3.58,4.77-6.36,4.77h-.4c-2.78-.4-4.77-2.78-4.37-5.56l15.1-164.89c.79-7.15-2.38-10.33-5.96-10.33-1.19,0-3.58,1.19-4.77,3.18l-27.02,37.75c-1.59,1.99-5.56,2.78-7.55,1.19-2.38-1.59-2.78-4.77-1.19-7.15l28.21-39.73c2.38-3.58,7.55-5.96,13.11-5.96,11.52,0,17.88,11.52,16.29,21.46-3.18,19.07-1.19,29.8-4.37,48.47,15.1-32.58,36.55-71.91,69.13-71.91,27.42,0,40.53,32.58,38.54,56.42l-9.14,115.62c-.4,5.96,1.19,9.54,3.58,10.33v-.4h.79c7.15,0,15.1-5.96,23.44-17.88,8.34-12.32,16.29-25.43,23.44-40.13,7.15-14.7,13.11-29.4,18.28-44.5,4.77-14.7,8.34-26.62,10.33-34.96l9.93,3.97Z"></path><path class="cls-15" d="m1117.27,1781.5c6.36,7.95,14.3,16.69,24.24,26.62,12.32,11.52,25.43,18.67,38.54,20.66,2.78.4,5.56.79,8.34.79,10.73,0,22.25-3.58,34.57-9.93,11.92-6.36,18.28-13.51,18.28-20.66,0-1.19-.79-4.37-2.38-9.14-1.59-5.17-8.74-7.55-21.46-7.55v-10.73c17.88.4,28.21,4.77,30.99,12.32,2.38,7.55,3.58,12.71,3.58,15.1,0,9.93-6.36,19.07-19.07,27.81-13.11,9.14-27.42,13.51-42.91,13.51-2.38,0-5.17,0-7.95-.4-18.68-1.99-36.16-11.13-52.45-28.21-7.15-7.55-12.71-13.51-16.29-17.88l-52.05,163.3c-1.19,3.97-2.78,6.75-4.37,6.75-6.36,1.19-6.36-1.59-7.55-6.75l-34.17-156.15-51.25,158.13c-1.19,3.18-2.38,4.77-5.17,5.17-4.37.4-5.96-1.19-6.36-3.97l-34.17-168.46-2.38-14.7c1.59-2.38,2.38-3.18,4.37-3.58,3.18-.79,5.56.79,6.36,4.37l32.98,159.72,50.46-158.13c1.19-3.18,3.18-5.17,4.37-5.96.79-.4,1.99-.4,3.18,0,2.78,1.59,3.58,3.58,4.37,7.15l34.57,156.94,50.46-160.91c.79-2.38,2.38-3.18,4.37-3.18,3.18,0,7.15,3.18,5.96,7.55v.4Z"></path><path class="cls-15" d="m1164.56,1875.66c-.79,23.04,3.97,49.66,15.5,64.76,7.95,10.33,16.29,14.7,25.43,14.7,25.03-1.99,44.5-17.09,72.31-47.68,27.81-30.2,41.32-56.42,44.9-85.42l5.56,7.15c-.79,10.73-2.78,20.26-5.56,29-3.18,8.74-9.54,19.87-18.67,33.37-9.54,13.51-19.87,25.43-30.59,36.16-21.85,21.46-45.69,37.75-66.75,38.14h-1.19c-30.2,0-52.05-34.57-52.05-83.44,0-45.69,23.84-110.85,67.15-110.85l.4,10.73h-1.59c-38.94,2.78-51.65,63.97-54.83,93.37Z"></path><path class="cls-15" d="m1410.1,1869.7c-1.99,4.77-9.14,17.08-21.85,36.95-12.71,19.87-24.24,34.57-34.57,43.7-9.54,8.74-18.67,13.51-27.02,13.91h-1.99c-5.17,0-8.74-1.99-11.13-5.96-2.78-4.77-3.97-13.51-2.78-25.83l21.85-252.3c0-3.18,1.99-4.77,5.56-4.77,3.18,0,5.56,3.18,5.17,5.56l-21.85,258.65c-.79,9.54.79,14.3,4.77,13.91,5.96,0,13.91-4.77,23.44-14.3,23.84-23.84,38.54-50.86,51.65-75.49,6.36-12.32,9.54-18.28,9.54-18.28l-.79,24.24Z"></path><path class="cls-15" d="m1432.75,1949.17c-5.96,10.73-13.51,16.29-21.85,16.29-5.17,0-8.74-1.99-11.13-5.96-2.78-4.77-3.58-13.51-2.38-25.83l21.85-253.49c.4-3.18,2.78-5.17,6.75-4.77,3.58.4,4.77,3.58,4.37,6.36l-22.65,259.85c-.79,9.14,0,13.11,3.97,13.11,1.99,0,5.56-1.59,9.14-6.36l19.87-33.77c1.59-2.78,4.77-2.38,7.15-.79,3.58,2.38,3.18,4.37,1.19,7.95l-16.29,27.41Z"></path><path class="cls-15" d="m600.77,2697.75c-3.18,38.54-36.95,96.55-136.68,96.55-21.06,0-37.74-1.99-48.87-4.77-4.37-.79-4.77-2.78-3.97-6.75.79-4.37,2.78-4.37,6.36-3.58,16.69,3.18,30.59,4.37,47.68,4.37,45.29,0,80.26-12.71,102.91-38.14,9.93-13.11,20.26-29.4,21.46-47.68l5.56-65.95c-34.96,46.88-66.75,67.15-105.69,67.15-71.12,0-101.32-29-101.32-98.54,0-7.15.4-13.51.79-20.26l10.33-127.54c.79-9.54.79-16.29-1.99-21.06-1.99-3.58-5.17-6.36-10.33-7.55-14.3-3.18-40.53,17.48-50.86,27.81-1.99,1.99-5.17,1.59-7.15-.4-2.78-2.78-2.78-5.17-.4-7.55,17.08-15.5,34.96-31.79,59.2-30.59,9.14.4,17.09,6.75,20.26,14.7,2.78,7.15,3.18,15.5,2.38,23.84l-10.33,126.74c-.4,8.34-.79,14.7-.79,22.25,0,63.57,24.63,87.41,90.19,87.41,49.27,0,105.29-52.45,110.06-108.07l14.3-161.31c.4-4.37,2.38-5.96,6.36-5.96s4.37,3.97,4.37,7.15l-23.84,277.72Z"></path><path class="cls-15" d="m760.5,2688.22c2.38,0,3.97-1.59,5.56-4.37,52.05-104.1,79.07-158.53,81.45-163.3,1.99-4.37,3.58-7.15,3.97-7.95,1.99-2.78,5.17-4.77,8.74-5.17h1.19c11.92,1.19,16.69,9.54,15.5,23.44l-13.11,166.08c-.4,1.99-3.58,3.97-5.96,3.58-2.78,0-5.56-2.38-5.17-4.37l13.51-169.26c.4-7.95-2.38-8.34-5.56-8.74-.4.4-1.19.79-1.59,1.59l-81.45,166.08c-5.17,8.74-10.33,13.11-15.89,13.11h-1.59c-12.32,0-17.48-9.14-15.89-27.42l3.97-44.1c-23.84,43.7-54.04,73.11-72.71,73.11s-32.98-29.01-32.98-70.33c0-67.54,36.55-121.98,83.04-121.98h38.94c3.18,0,4.77,1.99,4.77,5.16v1.19l-14.3,160.12c-.4,4.37.79,13.51,5.17,13.51h.4Zm-9.93-96.15l5.96-72.71h-30.99c-38.14,0-71.91,50.86-71.91,108.47,0,32.58,10.73,61.98,23.05,61.98,19.07,0,71.52-68.74,73.9-97.74Z"></path><path class="cls-15" d="m1060.08,2604.38c-1.99,4.77-9.14,17.08-21.85,36.95-12.71,19.87-24.24,34.57-34.57,43.71-7.95,7.55-15.5,11.92-23.04,13.51v.4h-5.96v-.79c-5.56-1.19-12.32-5.96-11.92-21.06l9.14-115.22c1.59-21.85-9.54-41.32-21.45-44.1-39.34-9.54-64.76,67.15-78.67,93.77-1.99,2.78-4.37,4.37-6.36,4.37-2.38,0-4.37-2.38-3.97-6.75v-.79c16.69-32.18,40.92-111.65,91.38-101.32,17.88,4.37,32.18,30.2,30.2,55.62l-9.14,114.82c-.79,7.55,1.99,9.93,4.77,10.73,5.56-1.19,12.71-5.96,21.06-14.3,23.84-23.84,38.54-50.86,51.65-75.49,6.36-12.32,9.54-18.28,9.54-18.28l-.79,24.24Z"></path><path class="cls-17" d="m1246.43,2604.38c-1.99,4.77-9.14,17.08-21.85,36.95-12.71,19.87-24.24,34.57-34.57,43.71-9.14,8.34-17.48,13.11-25.83,13.91h-3.18c-8.34-.79-15.5-4.37-20.66-10.33l-71.91-76.68-7.15,82.25c-1.19,3.58-2.38,4.37-5.96,4.37-4.37,0-5.17-.79-5.17-5.56l24.24-277.33c.4-3.18,3.18-5.56,6.75-5.17,3.97.4,4.77,3.18,4.37,6.75l-16.29,180.78,96.95-89.4c3.18-2.78,6.75-2.38,8.74,0,1.59,1.99,2.38,4.77,1.19,5.96l-98.54,90.99c7.15,7.55,69.93,75.09,74.7,78.67,2.38,1.59,4.37,2.78,6.36,3.18h.4c1.59.4,3.18.79,4.77.79,5.96-.4,13.11-5.17,22.25-14.3,23.84-23.84,38.54-50.86,51.65-75.49,6.36-12.32,9.54-18.28,9.54-18.28l-.79,24.24Z"></path><path class="cls-15" d="m1236.5,2693.38c-4.37-6.75-4.37-14.3-3.18-27.42l12.71-152.57c.4-3.97,2.38-5.56,6.36-5.56,4.37,0,4.77,3.18,4.37,7.15l-13.51,163.7c0,1.99.4,9.14,4.77,9.54,2.38-.4,4.37-1.59,6.36-2.78,1.99-1.19,7.55-5.96,17.48-14.3,9.93-8.34,19.87-17.48,29.8-28.21,9.93-10.33,20.66-21.46,32.58-32.98,11.52-11.52,21.06-21.06,28.61-29.01,14.3-15.5,23.84-34.96,25.03-40.92.4-3.18.4-5.17.4-6.36,0-6.75-4.77-13.91-8.34-15.49-1.99-.79-4.37-1.19-7.15-1.19h-2.38l.79-10.73h3.18c6.36,0,14.3,1.99,19.87,10.73,5.56,8.74,4.77,15.5,4.77,17.88,0,7.95-1.59,14.3-11.52,30.2-9.93,16.29-31.39,38.54-54.03,60-11.52,10.73-23.04,22.25-34.57,33.77-11.52,11.52-21.85,21.06-30.2,28.61-8.34,7.55-15.5,11.13-21.06,11.52h-.4c-3.97,0-8.34-1.99-10.73-5.56Zm17.48-227.27c3.58,0,7.95,3.97,7.95,7.95s-4.37,7.95-7.95,7.95c-3.97,0-8.34-3.97-8.34-7.95s4.37-7.95,8.34-7.95Z"></path><path class="cls-15" d="m1317.16,2610.34c-.79,23.05,3.97,49.67,15.5,64.76,7.55,9.93,15.5,14.3,24.24,14.7,31.39-3.18,52.84-24.63,68.74-50.46,7.95-13.11,14.7-27.02,20.66-42.51,11.12-30.59,25.83-62.38,44.5-77.08,9.54-7.55,21.46-11.13,36.16-11.13h1.59l-7.15,6.75c-32.98,6.75-50.46,45.69-69.13,94.17-12.71,33.37-31.39,60.79-56.82,77.87-12.32,7.95-25.03,12.32-37.35,13.11h-1.99c-29-1.59-50.06-35.76-50.06-83.44s23.84-110.85,67.15-110.85l.4,10.73h-1.59c-38.94,2.78-51.65,63.97-54.83,93.37Z"></path><path class="cls-15" d="m1531.71,2517.37c-20.66,0-44.1,6.36-44.1,31.39,0,21.85,23.44,37.74,44.5,53.64,21.06,15.5,42.12,30.59,42.12,50.86,0,38.14-41.32,47.28-71.91,47.28-6.75,0-45.69-.79-45.69-10.33,0-6.75,4.77-6.75,10.33-5.17,11.13,3.58,19.07,4.77,37.35,4.77,36.15,0,58.8-12.71,58.8-35.76,0-19.07-28.21-35.76-41.72-45.69-21.85-15.89-44.9-33.77-44.9-60.39,0-29.8,28.61-41.32,54.43-41.32,23.05,0,48.87,5.56,49.27,10.33.4,3.18-1.99,8.34-6.36,6.75-14.3-4.37-28.21-6.36-42.12-6.36Z"></path><g class="cls-14"><path class="cls-18" d="m1432.75,1947.17c-5.96,10.73-13.51,16.29-21.85,16.29-5.17,0-8.74-1.99-11.13-5.96-2.78-4.77-3.58-13.51-2.38-25.83l21.85-253.49c.4-3.18,2.78-5.17,6.75-4.77,3.58.4,4.77,3.58,4.37,6.36l-22.65,259.85c-.79,9.14,0,13.11,3.97,13.11,1.99,0,5.56-1.59,9.14-6.36l19.87-33.77c1.59-2.78,4.77-2.38,7.15-.79,3.58,2.38,3.18,4.37,1.19,7.95l-16.29,27.41Z"></path></g><path class="cls-17" d="m1117.27,1781.1c1.19-4.37-2.78-7.55-5.96-7.55-1.99,0-3.58.79-4.37,3.18l-50.46,160.91-34.57-156.94c-.79-3.58-1.59-5.56-4.37-7.15-1.19-.4-2.38-.4-3.18,0-1.19.79-3.18,2.78-4.37,5.96l-50.46,158.13-32.98-159.72c-.79-3.58-3.18-5.17-6.36-4.37-1.99.4-2.78,1.19-4.37,3.58l2.38,14.7,34.17,168.46c.4,2.78,1.99,4.37,6.36,3.97,2.78-.4,3.97-1.99,5.17-5.17l51.25-158.13,34.17,156.15c1.19,5.17,1.19,7.95,7.55,6.75,1.59,0,3.18-2.78,4.37-6.75l52.05-163.3,3.97-12.71Z"></path><g class="cls-19"><path class="cls-18" d="m600.77,2697.75c-3.18,38.54-36.95,96.55-136.68,96.55-21.06,0-37.74-1.99-48.87-4.77-4.37-.79-4.77-2.78-3.97-6.75.79-4.37,2.78-4.37,6.36-3.58,16.69,3.18,30.59,4.37,47.68,4.37,45.29,0,80.26-12.71,102.91-38.14,9.93-13.11,20.26-29.4,21.46-47.68l5.56-65.95c-34.96,46.88-66.75,67.15-105.69,67.15-71.12,0-101.32-29-101.32-98.54,0-7.15.4-13.51.79-20.26l10.33-127.54c.79-9.54.79-16.29-1.99-21.06-1.99-3.58-5.17-6.36-10.33-7.55-14.3-3.18-40.53,17.48-50.86,27.81-1.99,1.99-5.17,1.59-7.15-.4-2.78-2.78-2.78-5.17-.4-7.55,17.08-15.5,34.96-31.79,59.2-30.59,9.14.4,17.09,6.75,20.26,14.7,2.78,7.15,3.18,15.5,2.38,23.84l-10.33,126.74c-.4,8.34-.79,14.7-.79,22.25,0,63.57,24.63,87.41,90.19,87.41,49.27,0,105.29-52.45,110.06-108.07l14.3-161.31c.4-4.37,2.38-5.96,6.36-5.96s4.37,3.97,4.37,7.15l-23.84,277.72Z"></path></g></svg> 