<?xml version="1.0" encoding="UTF-8"?> <svg xmlns="http://www.w3.org/2000/svg" xmlns:xlink="http://www.w3.org/1999/xlink" id="palabras" viewBox="0 0 1920 3699"><defs><style>.cls-1,.cls-2,.cls-3,.cls-4,.cls-5{fill:none;}.cls-6{clip-path:url(#clippath);}.cls-7{fill:#ebebeb;}.cls-8{fill:#fff;}.cls-9{fill:#937fbb;}.cls-10{fill:#171c32;}.cls-11{clip-path:url(#clippath-1);}.cls-12{clip-path:url(#clippath-4);}.cls-13{clip-path:url(#clippath-3);}.cls-14{clip-path:url(#clippath-2);}.cls-2{stroke:#a797c9;stroke-dasharray:0 0 1.74 17.45;stroke-linecap:round;stroke-width:7px;}.cls-2,.cls-3,.cls-4,.cls-5{stroke-miterlimit:10;}.cls-3{stroke:#57678b;stroke-width:3.5px;}.cls-4{stroke-width:1.94px;}.cls-4,.cls-5{stroke:#fff;}.cls-5{stroke-width:1.96px;}</style><clipPath id="clippath"><rect class="cls-1" x="1540.53" y="1423.07" width="130.69" height="130.69" rx="65.34" ry="65.34"></rect></clipPath><clipPath id="clippath-1"><rect class="cls-1" x="658.59" y="1713.49" width="130.69" height="130.69" rx="65.34" ry="65.34"></rect></clipPath><clipPath id="clippath-2"><circle class="cls-1" cx="1319.16" cy="2588" r="89.01"></circle></clipPath><clipPath id="clippath-3"><circle class="cls-1" cx="904.35" cy="3015.19" r="97.9"></circle></clipPath><clipPath id="clippath-4"><circle class="cls-1" cx="930.76" cy="2314.47" r="56.6"></circle></clipPath></defs><rect class="cls-10" x=".73" width="1920" height="3699"></rect><line class="cls-3" x1="1.28" y1="1333.29" x2="1920.73" y2="1333.29"></line><line class="cls-3" x1="1.28" y1="1472.31" x2="1920.73" y2="1472.31"></line><line class="cls-3" x1="1920.73" y1="1657.19" x2="1.28" y2="1657.19"></line><line class="cls-3" x1="1.28" y1="1793.72" x2="1920.73" y2="1793.72"></line><line class="cls-3" x1="1.28" y1="2154.3" x2="1920.73" y2="2154.3"></line><line class="cls-3" x1="1.28" y1="2290.88" x2="1920.73" y2="2290.88"></line><line class="cls-3" x1="1920.73" y1="2475.76" x2="1.28" y2="2475.76"></line><line class="cls-3" x1="1.28" y1="2609.68" x2="1920.73" y2="2609.68"></line><line class="cls-3" x1="1.28" y1="2973.17" x2="1920.73" y2="2973.17"></line><line class="cls-3" x1="1.28" y1="3112.2" x2="1920.73" y2="3112.2"></line><line class="cls-3" x1="1920.73" y1="3297.08" x2="1.28" y2="3297.08"></line><line class="cls-3" x1="1.28" y1="3433.61" x2="1920.73" y2="3433.61"></line><line class="cls-3" y1="339.12" x2="1919.46" y2="339.12"></line><line class="cls-3" y1="469.43" x2="1919.46" y2="469.43"></line><line class="cls-3" x1="1919.46" y1="654.31" y2="654.31"></line><line class="cls-3" y1="807.36" x2="1919.46" y2="807.36"></line><rect class="cls-5" x="572.18" y="112.25" width="777.11" height="118.22"></rect><path class="cls-7" d="m601.01,143.43h5.58l14.01,39.86h.12v-39.86h4.09v48.36h-5.08l-14.51-41.04h-.12v41.04h-4.09v-48.36Z"></path><path class="cls-7" d="m632.26,143.43h16.68v3.91h-12.34v18.17h9.49v4.03h-9.49v18.35h12.34v3.91h-16.68v-48.36Z"></path><path class="cls-7" d="m654.21,143.43h4.34v44.51h14.07v3.84h-18.41v-48.36Z"></path><path class="cls-7" d="m674.79,177.9v-2.6h4.34v2.54c0,4.65,0,10.85,7.13,10.85,4.59,0,6.88-2.42,6.88-8.43,0-6.82-2.54-8.87-5.21-10.04l-4.59-2.05c-4.9-2.17-7.75-6.45-7.75-13.39,0-5.95,2.29-12.15,10.91-12.15,10.35,0,10.6,9.55,10.6,15v2.6h-4.34v-2.23c0-8.25-.87-11.47-6.32-11.47-4.9,0-6.39,3.1-6.39,8.74,0,6.2,2.85,8.06,5.58,9.36l4.28,2.05c3.29,1.55,7.56,4.22,7.56,13.14,0,7.75-3.22,12.77-11.22,12.77-11.16,0-11.47-9.18-11.47-14.69Z"></path><path class="cls-7" d="m702.13,167.61c0-17.3,3.35-24.98,12.52-24.98s12.15,8.18,12.15,24.98c0,18.41-3.41,24.98-12.34,24.98s-12.34-6.51-12.34-24.98Zm20.15,0c0-14.32-1.49-20.95-7.81-20.95s-7.81,6.63-7.81,20.95,1.49,21.14,7.81,21.14,7.81-6.32,7.81-21.14Z"></path><path class="cls-7" d="m733.01,143.43h5.58l14.01,39.86h.12v-39.86h4.09v48.36h-5.08l-14.51-41.04h-.12v41.04h-4.09v-48.36Z"></path><path class="cls-7" d="m774.8,143.43h4.34v21.7h12.34v-21.7h4.34v48.36h-4.34v-22.63h-12.34v22.63h-4.34v-48.36Z"></path><path class="cls-7" d="m818.38,175.04h-10.54l-3.22,16.74h-4.46l10.29-48.36h5.39l10.29,48.36h-4.4l-3.35-16.74Zm-.68-3.72l-4.65-23.31h-.06l-4.46,23.31h9.18Z"></path><path class="cls-7" d="m830.47,143.43h5.58l14.01,39.86h.12v-39.86h4.09v48.36h-5.08l-14.51-41.04h-.12v41.04h-4.09v-48.36Z"></path><path class="cls-7" d="m861.72,143.43h7.32c10.35,0,15.5,6.26,15.5,24.18s-5.15,24.18-15.5,24.18h-7.32v-48.36Zm7.25,44.51c7.81,0,11.04-5.02,11.04-20.33s-3.1-20.33-10.91-20.33h-3.04v40.67h2.91Z"></path><path class="cls-7" d="m887.45,143.43h4.22l5.95,42.84h.12l7.07-42.84h4.46l7.25,42.84h.12l5.7-42.84h4.22l-7.25,48.36h-5.52l-6.7-40.3h-.12l-6.63,40.3h-5.52l-7.38-48.36Z"></path><path class="cls-7" d="m930.91,143.43h9.3c8.37,0,13.21,3.97,13.21,13.08,0,4.84-1.8,10.97-7.56,13.21l8.8,22.01v.06h-4.65l-8.12-21.26h-6.57v21.26h-4.4v-48.36Zm9.49,23.37c6.45,0,8.56-4.09,8.56-10.35,0-6.63-3.04-9.18-8.49-9.18h-5.15v19.53h5.08Z"></path><path class="cls-7" d="m959.31,143.43h4.34v48.36h-4.34v-48.36Z"></path><path class="cls-7" d="m978.16,147.27h-10.17v-3.84h24.67v3.84h-10.17v44.51h-4.34v-44.51Z"></path><path class="cls-7" d="m997,143.43h4.34v48.36h-4.34v-48.36Z"></path><path class="cls-7" d="m1008.79,143.43h5.58l14.01,39.86h.12v-39.86h4.09v48.36h-5.08l-14.51-41.04h-.12v41.04h-4.09v-48.36Z"></path><path class="cls-7" d="m1038.79,167.61c0-17.3,3.35-24.98,12.9-24.98,6.88,0,10.54,4.28,10.54,15.19v1.05h-4.21v-.93c0-8.37-2.11-11.41-6.39-11.41-6.7,0-8.31,6.76-8.31,21.08s1.74,21.14,8.18,21.14c4.53,0,6.51-3.04,6.51-10.48v-6.88h-8.31v-4.09h12.52v24.49h-3.04l-.74-3.84c-1.55,3.29-4.4,4.65-7.5,4.65-8.56,0-12.15-7.07-12.15-24.98Z"></path><path class="cls-7" d="m1079.59,143.43h8.87c8.37,0,13.33,4.09,13.33,14.38,0,7.13-2.48,15.07-12.4,15.07h-5.39v18.91h-4.4v-48.36Zm9.24,25.67c6.45,0,8.49-3.91,8.49-11.35,0-7.81-3.16-10.48-8.62-10.48h-4.71v21.82h4.84Z"></path><path class="cls-7" d="m1106.75,143.43h9.3c8.37,0,13.21,3.97,13.21,13.08,0,4.84-1.8,10.97-7.56,13.21l8.8,22.01v.06h-4.65l-8.12-21.26h-6.57v21.26h-4.4v-48.36Zm9.49,23.37c6.45,0,8.56-4.09,8.56-10.35,0-6.63-3.04-9.18-8.49-9.18h-5.15v19.53h5.08Z"></path><path class="cls-7" d="m1135.14,143.43h16.68v3.91h-12.34v18.17h9.49v4.03h-9.49v18.35h12.34v3.91h-16.68v-48.36Z"></path><path class="cls-7" d="m1155.23,167.61c0-17.3,3.35-24.98,12.9-24.98,6.88,0,10.54,4.28,10.54,15.19v2.29h-4.21v-2.17c0-8.37-2.11-11.41-6.39-11.41-6.7,0-8.31,6.76-8.31,21.08s1.74,21.08,8.43,21.08c4.28,0,6.26-2.73,6.26-11.22v-2.73h4.21v2.73c0,10.85-3.6,15.13-10.6,15.13-9.49,0-12.83-7.07-12.83-24.98Z"></path><path class="cls-7" d="m1184.55,179.14v-35.71h4.34v36.33c0,6.08,1.8,8.93,6.2,8.93s6.08-2.85,6.08-8.93v-36.33h4.34v35.28c0,9.67-3.22,13.89-10.48,13.89s-10.48-3.72-10.48-13.45Z"></path><path class="cls-7" d="m1212.64,143.43h9.3c8.37,0,13.21,3.97,13.21,13.08,0,4.84-1.8,10.97-7.56,13.21l8.8,22.01v.06h-4.65l-8.12-21.26h-6.57v21.26h-4.4v-48.36Zm9.49,23.37c6.45,0,8.56-4.09,8.56-10.35,0-6.63-3.04-9.18-8.49-9.18h-5.15v19.53h5.08Z"></path><path class="cls-7" d="m1238.87,177.9v-2.6h4.34v2.54c0,4.65,0,10.85,7.13,10.85,4.59,0,6.88-2.42,6.88-8.43,0-6.82-2.54-8.87-5.21-10.04l-4.59-2.05c-4.9-2.17-7.75-6.45-7.75-13.39,0-5.95,2.29-12.15,10.91-12.15,10.35,0,10.6,9.55,10.6,15v2.6h-4.34v-2.23c0-8.25-.87-11.47-6.32-11.47-4.9,0-6.39,3.1-6.39,8.74,0,6.2,2.85,8.06,5.58,9.36l4.28,2.05c3.29,1.55,7.56,4.22,7.56,13.14,0,7.75-3.22,12.77-11.22,12.77-11.16,0-11.47-9.18-11.47-14.69Z"></path><path class="cls-7" d="m1267.45,143.43h4.34v48.36h-4.34v-48.36Z"></path><path class="cls-7" d="m1276.13,143.43h4.4l8.37,43.27h.12l8.12-43.27h4.46l-9.98,48.36h-5.46l-10.04-48.36Z"></path><path class="cls-7" d="m1305.95,143.43h16.68v3.91h-12.34v18.17h9.49v4.03h-9.49v18.35h12.34v3.91h-16.68v-48.36Z"></path><rect class="cls-4" x="608.8" y="1107.19" width="703.87" height="118.22"></rect><path class="cls-7" d="m639.55,1142.62h5.58l14.01,39.86h.12v-39.86h4.09v48.36h-5.08l-14.51-41.04h-.12v41.04h-4.09v-48.36Z"></path><path class="cls-7" d="m670.8,1142.62h16.68v3.91h-12.34v18.17h9.49v4.03h-9.49v18.35h12.34v3.91h-16.68v-48.36Z"></path><path class="cls-7" d="m692.75,1142.62h4.34v44.51h14.07v3.84h-18.41v-48.36Z"></path><path class="cls-7" d="m713.33,1177.09v-2.6h4.34v2.54c0,4.65,0,10.85,7.13,10.85,4.59,0,6.88-2.42,6.88-8.43,0-6.82-2.54-8.87-5.21-10.04l-4.59-2.05c-4.9-2.17-7.75-6.45-7.75-13.39,0-5.95,2.29-12.15,10.91-12.15,10.35,0,10.6,9.55,10.6,15v2.6h-4.34v-2.23c0-8.25-.87-11.47-6.32-11.47-4.9,0-6.39,3.1-6.39,8.74,0,6.2,2.85,8.06,5.58,9.36l4.28,2.05c3.29,1.55,7.56,4.22,7.56,13.14,0,7.75-3.22,12.77-11.22,12.77-11.16,0-11.47-9.17-11.47-14.69Z"></path><path class="cls-7" d="m740.67,1166.8c0-17.3,3.35-24.98,12.52-24.98s12.15,8.18,12.15,24.98c0,18.41-3.41,24.98-12.34,24.98s-12.34-6.51-12.34-24.98Zm20.15,0c0-14.32-1.49-20.96-7.81-20.96s-7.81,6.63-7.81,20.96,1.49,21.14,7.81,21.14,7.81-6.32,7.81-21.14Z"></path><path class="cls-7" d="m771.55,1142.62h5.58l14.01,39.86h.12v-39.86h4.09v48.36h-5.08l-14.51-41.04h-.12v41.04h-4.09v-48.36Z"></path><path class="cls-7" d="m813.34,1142.62h4.34v21.7h12.34v-21.7h4.34v48.36h-4.34v-22.63h-12.34v22.63h-4.34v-48.36Z"></path><path class="cls-7" d="m856.92,1174.24h-10.54l-3.22,16.74h-4.46l10.29-48.36h5.39l10.29,48.36h-4.4l-3.35-16.74Zm-.68-3.72l-4.65-23.31h-.06l-4.46,23.31h9.18Z"></path><path class="cls-7" d="m869.01,1142.62h5.58l14.01,39.86h.12v-39.86h4.09v48.36h-5.08l-14.51-41.04h-.12v41.04h-4.09v-48.36Z"></path><path class="cls-7" d="m900.26,1142.62h7.32c10.35,0,15.5,6.26,15.5,24.18s-5.15,24.18-15.5,24.18h-7.32v-48.36Zm7.25,44.51c7.81,0,11.04-5.02,11.04-20.33s-3.1-20.33-10.91-20.33h-3.04v40.67h2.91Z"></path><path class="cls-7" d="m925.99,1142.62h4.22l5.95,42.84h.12l7.07-42.84h4.46l7.25,42.84h.12l5.7-42.84h4.22l-7.25,48.36h-5.52l-6.7-40.3h-.12l-6.63,40.3h-5.52l-7.38-48.36Z"></path><path class="cls-7" d="m969.45,1142.62h9.3c8.37,0,13.21,3.97,13.21,13.08,0,4.84-1.8,10.97-7.56,13.21l8.8,22.01v.06h-4.65l-8.12-21.26h-6.57v21.26h-4.4v-48.36Zm9.49,23.37c6.45,0,8.56-4.09,8.56-10.35,0-6.63-3.04-9.18-8.49-9.18h-5.15v19.53h5.08Z"></path><path class="cls-7" d="m997.85,1142.62h4.34v48.36h-4.34v-48.36Z"></path><path class="cls-7" d="m1016.7,1146.47h-10.17v-3.84h24.67v3.84h-10.17v44.51h-4.34v-44.51Z"></path><path class="cls-7" d="m1035.54,1142.62h4.34v48.36h-4.34v-48.36Z"></path><path class="cls-7" d="m1047.33,1142.62h5.58l14.01,39.86h.12v-39.86h4.09v48.36h-5.08l-14.51-41.04h-.12v41.04h-4.09v-48.36Z"></path><path class="cls-7" d="m1077.33,1166.8c0-17.3,3.35-24.98,12.9-24.98,6.88,0,10.54,4.28,10.54,15.19v1.05h-4.21v-.93c0-8.37-2.11-11.41-6.39-11.41-6.7,0-8.31,6.76-8.31,21.08s1.74,21.14,8.18,21.14c4.53,0,6.51-3.04,6.51-10.48v-6.88h-8.31v-4.09h12.52v24.49h-3.04l-.74-3.84c-1.55,3.29-4.4,4.65-7.5,4.65-8.56,0-12.15-7.07-12.15-24.98Z"></path><path class="cls-7" d="m1116.89,1166.8c0-17.3,3.35-24.98,12.9-24.98,6.88,0,10.54,4.28,10.54,15.19v2.29h-4.21v-2.17c0-8.37-2.11-11.41-6.39-11.41-6.7,0-8.31,6.76-8.31,21.08s1.74,21.08,8.43,21.08c4.28,0,6.26-2.73,6.26-11.22v-2.73h4.21v2.73c0,10.85-3.6,15.13-10.6,15.13-9.49,0-12.83-7.07-12.83-24.98Z"></path><path class="cls-7" d="m1146.21,1178.33v-35.71h4.34v36.33c0,6.08,1.8,8.93,6.2,8.93s6.08-2.85,6.08-8.93v-36.33h4.34v35.28c0,9.67-3.22,13.89-10.48,13.89s-10.48-3.72-10.48-13.45Z"></path><path class="cls-7" d="m1174.3,1142.62h9.3c8.37,0,13.21,3.97,13.21,13.08,0,4.84-1.8,10.97-7.56,13.21l8.8,22.01v.06h-4.65l-8.12-21.26h-6.57v21.26h-4.4v-48.36Zm9.49,23.37c6.45,0,8.56-4.09,8.56-10.35,0-6.63-3.04-9.18-8.49-9.18h-5.15v19.53h5.08Z"></path><path class="cls-7" d="m1200.53,1177.09v-2.6h4.34v2.54c0,4.65,0,10.85,7.13,10.85,4.59,0,6.88-2.42,6.88-8.43,0-6.82-2.54-8.87-5.21-10.04l-4.59-2.05c-4.9-2.17-7.75-6.45-7.75-13.39,0-5.95,2.29-12.15,10.91-12.15,10.35,0,10.6,9.55,10.6,15v2.6h-4.34v-2.23c0-8.25-.87-11.47-6.32-11.47-4.9,0-6.39,3.1-6.39,8.74,0,6.2,2.85,8.06,5.58,9.36l4.28,2.05c3.29,1.55,7.56,4.22,7.56,13.14,0,7.75-3.22,12.77-11.22,12.77-11.16,0-11.47-9.17-11.47-14.69Z"></path><path class="cls-7" d="m1229.11,1142.62h4.34v48.36h-4.34v-48.36Z"></path><path class="cls-7" d="m1237.79,1142.62h4.4l8.37,43.27h.12l8.12-43.27h4.46l-9.98,48.36h-5.46l-10.04-48.36Z"></path><path class="cls-7" d="m1267.61,1142.62h16.68v3.91h-12.34v18.17h9.49v4.03h-9.49v18.35h12.34v3.91h-16.68v-48.36Z"></path><line class="cls-2" x1="1136.39" y1="677.73" x2="1136.39" y2="855.59"></line><line class="cls-2" x1="586.25" y1="677.73" x2="586.25" y2="855.59"></line><line class="cls-2" x1="868.51" y1="3317.44" x2="868.79" y2="3479.92"></line><line class="cls-2" x1="1277.71" y1="3317.08" x2="1278" y2="3488.92"></line><line class="cls-2" x1="1605.87" y1="1567.01" x2="1606.41" y2="1903.04"></line><line class="cls-2" x1="1319.28" y1="2690.84" x2="1319.82" y2="2758.02"></line><line class="cls-2" x1="1048.25" y1="2078.49" x2="961.79" y2="2251.05"></line><line class="cls-2" x1="507.39" y1="2491.38" x2="507.93" y2="2747.17"></line><line class="cls-2" x1="723.67" y1="1862.62" x2="724.21" y2="1917.23"></line><line class="cls-2" x1="905.53" y1="2820.25" x2="906.07" y2="2903.49"></line><rect class="cls-9" x="1540.53" y="1423.07" width="130.69" height="130.69" rx="65.34" ry="65.34"></rect><rect class="cls-9" x="658.59" y="1713.49" width="130.69" height="130.69" rx="65.34" ry="65.34"></rect><path class="cls-8" d="m729.39,3499.15h8.61c7.94,0,11.64,2.73,11.64,9.62,0,6.43-2.77,10.12-11.13,10.12h-6.13v13.02h-2.98v-32.77Zm9.28,17.22c6.09,0,7.94-2.69,7.94-7.64,0-5.21-2.6-6.97-8.44-6.97h-5.8v14.62h6.3Z"></path><path class="cls-8" d="m752.79,3526.12c0-3.95,2.23-6.09,7.86-6.09h6.34v-1.72c0-2.98-1.26-5.42-5.46-5.42-3.95,0-5.33,1.51-5.33,4.12v.88h-2.98v-.84c0-5,4.2-6.68,8.32-6.68,5.8,0,8.4,2.86,8.4,8.44v13.11h-2.06l-.55-2.98h-.08c-1.26,1.89-3.7,3.53-7.35,3.53-4.92,0-7.1-2.31-7.1-6.34Zm14.2-1.85v-1.76h-7.01c-2.65,0-4.03.92-4.03,3.61,0,2.35,1.26,3.87,4.49,3.87,4.16,0,6.55-2.14,6.55-5.71Z"></path><path class="cls-8" d="m777.27,3510.91h2.61l.29,3.91c1.01-2.14,3.07-4.45,6.76-4.45,1.26,0,2.19.21,3.03.55v3.15c-1.13-.5-2.1-.76-3.4-.76-3.74,0-6.34,2.81-6.34,5.75v12.85h-2.94v-21Z"></path><path class="cls-8" d="m805.54,3529.22v2.6c-.76.21-2.14.59-4.03.59-3.82,0-6.34-1.6-6.34-6.89v-12.18h-4.16v-2.44h4.16v-6.05l2.94-1.43v7.48h5.92v2.44h-5.92v11.8c0,2.81.76,4.58,3.4,4.58,1.6,0,3.23-.29,4.03-.5Z"></path><path class="cls-8" d="m810.37,3499.15h2.98v6.51h-2.98v-6.51Zm0,11.76h2.94v21h-2.94v-21Z"></path><path class="cls-8" d="m819.44,3526.12c0-3.95,2.23-6.09,7.86-6.09h6.34v-1.72c0-2.98-1.26-5.42-5.46-5.42-3.95,0-5.33,1.51-5.33,4.12v.88h-2.98v-.84c0-5,4.2-6.68,8.32-6.68,5.8,0,8.4,2.86,8.4,8.44v13.11h-2.06l-.55-2.98h-.08c-1.26,1.89-3.7,3.53-7.35,3.53-4.92,0-7.1-2.31-7.1-6.34Zm14.2-1.85v-1.76h-7.01c-2.65,0-4.03.92-4.03,3.61,0,2.35,1.26,3.87,4.49,3.87,4.16,0,6.55-2.14,6.55-5.71Z"></path><path class="cls-8" d="m843.93,3499.15h2.94v32.77h-2.94v-32.77Z"></path><path class="cls-8" d="m854.22,3499.15h2.94v32.77h-2.94v-32.77Z"></path><path class="cls-8" d="m864.51,3510.91l6.89,17.98h.08l7.14-17.98h3.07v.04l-8.86,20.84-3.11,8.53h-2.98v-.04l3.19-8.36-8.78-20.96v-.04h3.36Z"></path><path class="cls-8" d="m898.48,3534.94c0,3.53-1.68,5.84-5.04,5.84-1.18,0-2.02-.13-2.94-.38v-2.6c.8.17,1.47.29,2.27.29,1.93,0,2.77-1.26,2.77-3.66v-23.52h2.94v24.03Zm-2.94-35.79h2.98v6.51h-2.98v-6.51Z"></path><path class="cls-8" d="m904.2,3521.41c0-6.22,3.32-11.05,10.38-11.05,6.6,0,10.25,4.83,10.25,11.05s-3.7,11.05-10.29,11.05c-7.27,0-10.33-4.83-10.33-11.05Zm17.56,0c0-5.33-2.9-8.49-7.22-8.49-4.75,0-7.27,3.15-7.27,8.49s2.56,8.49,7.27,8.49c4.33,0,7.22-3.15,7.22-8.49Z"></path><path class="cls-8" d="m930.7,3499.15h2.98v6.51h-2.98v-6.51Zm0,11.76h2.94v21h-2.94v-21Z"></path><path class="cls-8" d="m941.03,3510.91h2.6l.29,3.49c1.01-2.14,3.28-4.03,7.35-4.03,4.75,0,7.77,2.52,7.77,7.94v13.61h-2.94v-13.27c0-4.33-2.14-5.71-5.5-5.71-3.82,0-6.64,2.69-6.64,5.63v13.36h-2.94v-21Z"></path><path class="cls-8" d="m983.66,3522.42h-15.96c.17,4.79,2.48,7.48,6.93,7.48,3.82,0,5.67-1.43,5.97-4.83h2.98c-.29,4.24-3.28,7.39-9.03,7.39-7.06,0-9.83-4.66-9.83-10.88s3.23-11.22,10-11.22,8.95,3.99,8.95,10.21v1.85Zm-3.11-2.98c0-4.45-1.72-6.55-5.92-6.55s-6.55,2.65-6.89,6.97h12.81v-.42Z"></path><path class="cls-8" d="m987.86,3521.45c0-7.1,4.28-11.09,10.04-11.09,3.7,0,6.22,1.6,7.31,3.74h.04v-14.96h2.94v32.77h-1.97l-.67-3.61h-.08c-1.18,2.31-3.95,4.16-7.77,4.16-6.3,0-9.83-3.99-9.83-11.01Zm17.64-.5c0-5.5-3.36-8.07-7.35-8.07-3.11,0-7.14,1.47-7.14,8.4s3.61,8.61,7.14,8.61c4.24,0,7.35-2.73,7.35-8.95Z"></path><path class="cls-8" d="m1458.99,1920.57h2.94v30.12h15.71v2.65h-18.65v-32.77Z"></path><path class="cls-8" d="m1480.78,1942.84c0-6.22,3.32-11.05,10.38-11.05,6.59,0,10.25,4.83,10.25,11.05s-3.7,11.05-10.29,11.05c-7.27,0-10.33-4.83-10.33-11.05Zm17.56,0c0-5.33-2.9-8.49-7.22-8.49-4.75,0-7.27,3.15-7.27,8.49s2.56,8.49,7.27,8.49c4.33,0,7.22-3.15,7.22-8.49Z"></path><path class="cls-8" d="m1507.29,1932.33h2.6l.29,3.49c1.01-2.14,3.28-4.03,7.35-4.03,4.75,0,7.77,2.52,7.77,7.94v13.61h-2.94v-13.27c0-4.33-2.14-5.71-5.5-5.71-3.82,0-6.64,2.69-6.64,5.63v13.36h-2.94v-21Z"></path><path class="cls-8" d="m1532.02,1955.15v-.13h3.11v.13c0,2.9,1.93,4.33,6.13,4.33,4.79,0,7.01-2.94,7.01-7.86v-2.1h-.08c-1.09,2.18-3.65,4.07-7.48,4.07-6.3,0-9.75-3.99-9.75-10.71,0-7.1,4.37-11.09,9.96-11.09,3.78,0,6.55,1.81,7.56,4.12h.13l.29-3.57h2.31v19.16c0,5.88-2.81,10.71-10.33,10.71-6.3,0-8.86-2.98-8.86-7.06Zm16.59-12.77c0-5.5-3.36-8.07-7.35-8.07-3.03,0-7.14,1.47-7.14,8.4s3.57,8.32,7.1,8.32c4.24,0,7.39-2.73,7.39-8.65Z"></path><path class="cls-8" d="m1565.29,1932.33h4.16v-5.42c0-5.29,3.15-6.89,6.38-6.89,1.85,0,2.98.29,3.74.55v2.6c-.71-.21-1.89-.46-3.49-.46-2.65,0-3.7,1.76-3.7,4.58v5.04h14.07v21h-2.94v-18.57h-11.13v18.57h-2.94v-18.57h-4.16v-2.44Zm18.23-11.76h2.98v6.51h-2.98v-6.51Z"></path><path class="cls-8" d="m1593.85,1932.33h2.6l.29,3.49c1.01-2.14,3.28-4.03,7.35-4.03,4.75,0,7.77,2.52,7.77,7.94v13.61h-2.94v-13.27c0-4.33-2.14-5.71-5.5-5.71-3.82,0-6.64,2.69-6.64,5.63v13.36h-2.94v-21Z"></path><path class="cls-8" d="m1619.22,1920.57h2.98v6.51h-2.98v-6.51Zm0,11.76h2.94v21h-2.94v-21Z"></path><path class="cls-8" d="m1628.29,1947.54c0-3.95,2.23-6.09,7.86-6.09h6.34v-1.72c0-2.98-1.26-5.42-5.46-5.42-3.95,0-5.33,1.51-5.33,4.12v.88h-2.98v-.84c0-5,4.2-6.68,8.32-6.68,5.8,0,8.4,2.86,8.4,8.44v13.11h-2.06l-.55-2.98h-.08c-1.26,1.89-3.7,3.53-7.35,3.53-4.92,0-7.1-2.31-7.1-6.34Zm14.2-1.85v-1.76h-7.01c-2.65,0-4.03.92-4.03,3.61,0,2.35,1.26,3.87,4.5,3.87,4.16,0,6.55-2.14,6.55-5.71Z"></path><path class="cls-8" d="m1652.77,1920.57h2.94v32.77h-2.94v-32.77Z"></path><path class="cls-8" d="m1672.72,1920.57h2.98v6.51h-2.98v-6.51Zm0,11.76h2.94v21h-2.94v-21Z"></path><path class="cls-8" d="m1683.06,1932.33h2.6l.29,3.49c1.01-2.14,3.28-4.03,7.35-4.03,4.75,0,7.77,2.52,7.77,7.94v13.61h-2.94v-13.27c0-4.33-2.14-5.71-5.5-5.71-3.82,0-6.64,2.69-6.64,5.63v13.36h-2.94v-21Z"></path><path class="cls-8" d="m1719.76,1931.03h-3.36v-5.08c0-3.95.88-5.29,3.4-5.96l.67,1.85c-1.76.67-2.06,1.09-2.06,3.78v.34h1.34v5.08Zm5.92,0h-3.36v-5.08c0-3.95.88-5.29,3.4-5.96l.67,1.85c-1.76.67-2.06,1.09-2.06,3.78v.34h1.34v5.08Z"></path><path class="cls-8" d="m1732.07,1932.33h2.6l.29,3.91c1.01-2.14,3.07-4.45,6.76-4.45,1.26,0,2.18.21,3.02.55v3.15c-1.13-.5-2.1-.76-3.4-.76-3.74,0-6.34,2.81-6.34,5.75v12.85h-2.94v-21Z"></path><path class="cls-8" d="m1747.48,1929.77c1.76-.67,2.06-1.09,2.06-3.78v-.34h-1.34v-5.08h3.36v5.08c0,3.95-.88,5.29-3.4,5.96l-.67-1.85Zm5.92,0c1.76-.67,2.06-1.09,2.06-3.78v-.34h-1.34v-5.08h3.36v5.08c0,3.95-.88,5.29-3.4,5.96l-.67-1.85Z"></path><path class="cls-8" d="m1002.03,1848.74v-19.95h2.94v19.95c0,9.41,4.07,10.63,8.86,10.63s8.78-1.01,8.78-10.63v-19.95h2.94v19.62c0,11.64-5.34,13.69-11.76,13.69s-11.76-2.06-11.76-13.36Z"></path><path class="cls-8" d="m1033.32,1840.55h2.39l.34,3.87h.08c1.13-2.48,4.03-4.41,7.86-4.41,6.3,0,9.66,3.99,9.66,11.01s-4.28,11.09-9.87,11.09c-3.78,0-6.38-1.6-7.44-3.7h-.08v11.55h-2.94v-29.41Zm17.18,10.63c0-7.18-3.4-8.61-6.93-8.61-4.24,0-7.56,2.73-7.56,8.44,0,6.01,3.45,8.57,7.44,8.57,3.03,0,7.06-1.47,7.06-8.4Z"></path><path class="cls-8" d="m1059.53,1840.55h2.6l.29,3.91c1.01-2.14,3.07-4.45,6.76-4.45,1.26,0,2.18.21,3.02.55v3.15c-1.13-.5-2.1-.76-3.4-.76-3.74,0-6.34,2.81-6.34,5.75v12.85h-2.94v-21Z"></path><path class="cls-8" d="m1076.83,1828.78h2.98v6.51h-2.98v-6.51Zm0,11.76h2.94v21h-2.94v-21Z"></path><path class="cls-8" d="m1086.54,1863.36v-.13h3.11v.13c0,2.9,1.93,4.33,6.13,4.33,4.79,0,7.02-2.94,7.02-7.86v-2.1h-.08c-1.09,2.18-3.65,4.07-7.48,4.07-6.3,0-9.75-3.99-9.75-10.71,0-7.1,4.37-11.09,9.96-11.09,3.78,0,6.55,1.81,7.56,4.12h.13l.29-3.57h2.31v19.16c0,5.88-2.81,10.71-10.33,10.71-6.3,0-8.86-2.98-8.86-7.06Zm16.59-12.77c0-5.5-3.36-8.07-7.35-8.07-3.02,0-7.14,1.47-7.14,8.4s3.57,8.32,7.1,8.32c4.24,0,7.39-2.73,7.39-8.65Z"></path><path class="cls-8" d="m1113.08,1828.78h2.94v15.17c1.05-2.1,3.28-3.95,7.31-3.95,4.75,0,7.77,2.52,7.77,7.94v13.61h-2.94v-13.27c0-4.33-2.14-5.71-5.5-5.71-3.82,0-6.64,2.69-6.64,5.63v13.36h-2.94v-32.77Z"></path><path class="cls-8" d="m1149.41,1858.86v2.6c-.76.21-2.14.59-4.03.59-3.82,0-6.34-1.6-6.34-6.89v-12.18h-4.16v-2.44h4.16v-6.05l2.94-1.43v7.48h5.92v2.44h-5.92v11.8c0,2.81.76,4.58,3.4,4.58,1.6,0,3.23-.29,4.03-.5Z"></path><rect class="cls-9" x="1048.62" y="1331.54" width="51.52" height="462.14"></rect><circle class="cls-9" cx="930.76" cy="2314.47" r="56.6"></circle><circle class="cls-9" cx="904.35" cy="3015.19" r="97.9"></circle><circle class="cls-9" cx="1319.16" cy="2588" r="89.01"></circle><path class="cls-9" d="m704.72,654.88c-7.55,0-11.33-3.62-11.33-10.86v-44.84c-22.03,37.13-55.07,55.7-99.12,55.7s-76.78-14.47-101.95-43.42c-24.23-27.38-36.34-62.78-36.34-106.2,0-46.26,11.17-84.49,33.51-114.7,24.86-34.3,59.63-51.45,104.31-51.45,41.22,0,74.1,12.59,98.65,37.76,1.89,1.89,2.83,4.25,2.83,7.08,0,7.55-3.93,11.33-11.8,11.33-3.15,0-5.82-1.26-8.02-3.78-10.7-11.96-23.13-20.3-37.29-25.02-11.01-3.46-25.8-5.19-44.37-5.19-37.76,0-67.02,15.1-87.79,45.31-18.25,26.43-27.38,59.31-27.38,98.65,0,37.13,9.91,67.34,29.74,90.62,20.77,24.86,49.4,37.29,85.9,37.29,33.35,0,59-15.89,76.94-47.67,14.79-26.12,22.18-56.48,22.18-91.1,0-7.24,3.78-10.86,11.33-10.86s11.8,3.62,11.8,10.86v149.62c0,7.24-3.93,10.86-11.8,10.86Z"></path><path class="cls-8" d="m901.03,651.34c-2.36,2.36-4.96,3.54-7.79,3.54-21.08,0-31.62-13.53-31.62-40.59v-27.38l-6.61,13.22c-6.92,13.85-15.1,25.65-24.54,35.4-12.27,12.9-24.39,19.35-36.34,19.35-27.06,0-43.27-19.67-48.62-59-.63-1.89-.94-4.25-.94-7.08v-11.33c0-21.71,5.98-42.79,17.94-63.25,15.42-26.43,37.45-39.65,66.08-39.65,10.38,0,21.4,3.46,33.04,10.38,0-6.92,3.78-10.38,11.33-10.38s11.33,3.78,11.33,11.33v122.72c0,15.1,2.83,22.97,8.5,23.6,7.87.94,11.8,4.72,11.8,11.33,0,2.83-1.18,5.43-3.54,7.79Zm-72.45-153.64c-18.57,0-33.67,8.81-45.31,26.43-10.38,15.73-15.58,33.35-15.58,52.86,0,36.82,8.81,55.22,26.43,55.22,11.64,0,25.17-14.32,40.59-42.95,10.38-19.19,18.41-45.78,24.07-79.77-14.16-7.87-24.23-11.8-30.21-11.8Zm64.19,134.52c4.09.31,12.11-7.55,24.07-23.6,2.52-3.46,5.82-5.19,9.91-5.19,6.61,0,9.91,2.99,9.91,8.97,0,2.83-5.51,11.49-16.52,25.96-8.81,11.33-17.78,16.83-26.9,16.52-9.44-9.13-9.6-16.68-.47-22.66Z"></path><path class="cls-8" d="m1043.9,640.01c-10.54,9.91-23.99,14.87-40.36,14.87-9.75,0-20.61-3.3-32.57-9.91-13.53-7.24-20.3-15.26-20.3-24.07,0-7.24,3.93-10.86,11.8-10.86,3.15,0,6.76,2.2,10.86,6.61,5.03,5.35,8.97,8.81,11.8,10.38,6.29,3.46,12.43,5.19,18.41,5.19,9.75,0,17.7-2.83,23.84-8.5,6.14-5.66,9.2-13.37,9.2-23.13,0-7.55-2.83-14.16-8.5-19.82-5.66-5.66-12.27-8.5-19.82-8.5-14.16,0-26.04-4.41-35.64-13.22-9.6-8.81-14.4-20.3-14.4-34.46s4.88-25.65,14.63-35.4c9.75-9.75,21.55-14.63,35.4-14.63,16.99,0,30.99,6.77,42.01,20.3,1.89,2.2,2.83,4.72,2.83,7.55,0,7.55-3.78,11.33-11.33,11.33-2.83,0-6.14-1.57-9.91-4.72-5.66-4.72-8.97-7.39-9.91-8.02-4.09-2.2-8.65-3.3-13.69-3.3-7.87,0-14.4,2.52-19.59,7.55-5.19,5.03-7.79,11.48-7.79,19.35,0,7.24,2.67,13.22,8.02,17.94,5.35,4.72,11.8,7.08,19.35,7.08,13.85,0,25.88,5.03,36.11,15.1,10.23,10.07,15.34,22.03,15.34,35.87,0,16.36-5.27,29.5-15.81,39.41Z"></path><path class="cls-9" d="m1218.31,638.83c-9.13,11.96-18.57,17.31-28.32,16.05-10.07,0-19.04-4.25-26.9-12.74l-59-63.25v64.66c0,7.55-3.78,11.33-11.33,11.33s-11.33-3.78-11.33-11.33v-292.17c0-7.55,3.78-11.33,11.33-11.33s11.33,3.78,11.33,11.33v170.86l62.3-43.9c3.46-2.52,6.77-3.78,9.91-3.78,7.24,0,10.86,3.78,10.86,11.33,0,3.15-1.1,5.51-3.3,7.08l-77.88,55.22,64.66,68.91c4.41,4.72,7.55,7.87,9.44,9.44,4.4,3.78,8.02,5.82,10.86,6.14,4.09.31,12.11-7.55,24.07-23.6,2.52-3.46,5.82-5.19,9.91-5.19,6.61,0,9.91,2.99,9.91,8.97,0,2.83-5.51,11.49-16.52,25.96Z"></path><path class="cls-8" d="m1277.49,607.68c7.87,16.36,19.19,24.54,33.98,24.54,7.55,0,11.33,3.78,11.33,11.33s-3.93,11.33-11.8,11.33c-31.15,0-51.29-19.67-60.42-59-2.52-10.7-3.78-20.14-3.78-28.32,0-23.29,5.03-43.74,15.1-61.36,11.96-21.08,28.79-31.62,50.5-31.62,8.5,0,16.68,3.62,24.54,10.86,7.87,7.24,11.8,15.1,11.8,23.6,0,28.32-23.76,61.2-71.27,98.65Zm34.93-109.98c-15.42,0-26.9,8.34-34.46,25.02-5.66,12.27-8.5,27.22-8.5,44.84,0,6.29.47,11.64,1.42,16.05,11.01-9.75,24.07-22.03,39.18-36.82,10.38-12.9,15.58-25.49,15.58-37.76,0-7.55-4.41-11.33-13.22-11.33Zm25.96,125.55l23.6-18.88c2.52-1.89,4.72-2.83,6.61-2.83,7.87,0,11.8,3.93,11.8,11.8,0,3.46-1.42,6.29-4.25,8.5-16.99,13.22-26.9,20.77-29.74,22.66-10.38,6.92-22.18,10.38-35.4,10.38-6.29-1.26-9.28-4.72-8.97-10.38-.63-5.66,2.36-9.75,8.97-12.27,9.13,0,18.25-2.99,27.38-8.97Z"></path><path class="cls-8" d="m1481.92,468.21c-2.36,2.36-4.96,3.54-7.79,3.54h-40.12v136.88c0,15.73,2.83,23.6,8.5,23.6,7.55,0,11.33,3.78,11.33,11.33s-3.78,11.33-11.33,11.33c-20.77,0-31.15-13.53-31.15-40.59l-.47-142.54h-35.87c-7.55,0-11.33-3.78-11.33-11.33s3.78-11.33,11.33-11.33h35.87l.47-51.45c0-7.87,3.78-11.8,11.33-11.8s11.33,3.93,11.33,11.8v51.45h40.12c7.55,0,11.33,3.78,11.33,11.33,0,2.83-1.18,5.43-3.54,7.79Zm-39.41,164.02c4.09.31,12.11-7.55,24.07-23.6,2.52-3.46,5.82-5.19,9.91-5.19,6.61,0,9.91,2.99,9.91,8.97,0,2.83-5.51,11.49-16.52,25.96-8.81,11.33-17.94,16.83-27.38,16.52-9.12-9.13-9.12-16.68,0-22.66Z"></path><path class="cls-8" d="m1344.69,3122.71c0-6.25-4.33-9.62-12.98-9.62h-107.7c-7.69,0-11.54,3.85-11.54,11.54,0,8.17,3.85,12.02,11.54,12.02h86.07l-95.68,141.84c-2.4,3.37-3.37,6.25-3.37,9.14,0,6.25,4.33,9.14,12.98,9.14h107.7c7.69,0,11.54-3.85,11.54-11.54s-3.85-11.54-11.54-11.54h-86.07l95.68-142.32c1.92-3.37,3.37-6.25,3.37-8.65Zm84.04,150.98h0c-6.73,2.4-9.62,6.73-9.14,12.5,0,5.77,2.88,9.14,9.14,10.58,13.46,0,25.48-3.37,36.06-10.58,2.88-1.92,12.98-9.62,30.29-23.08,2.88-2.4,4.33-5.29,4.33-8.65,0-8.17-3.85-12.02-12.02-12.02-1.92,0-3.85.96-6.73,2.88l-24.04,19.23c-9.14,6.25-18.27,9.14-27.89,9.14Zm14.91-125.49c0,12.5-5.29,25.48-15.87,38.47-15.39,14.91-28.37,27.41-39.91,37.5-.96-4.33-1.44-10.1-1.44-16.35,0-17.79,2.88-33.18,8.65-45.68,7.69-16.83,19.71-25.48,35.1-25.48,9.14,0,13.46,3.85,13.46,11.54Zm23.56,0c0-8.65-3.85-16.83-12.02-24.04-7.69-7.21-16.35-11.06-25-11.06-22.12,0-38.95,10.58-51.45,32.21-10.1,17.79-15.39,38.95-15.39,62.51,0,8.17,1.44,17.79,3.85,28.85,9.62,39.91,29.81,60.1,61.54,60.1,8.17,0,12.02-3.85,12.02-11.54s-3.85-11.54-11.54-11.54c-14.91,0-26.44-8.17-34.62-25,48.56-37.98,72.6-71.64,72.6-100.49Zm-530.31,137.03c0-7.69-3.85-11.54-11.54-11.54-6.25,0-9.14-8.17-9.14-24.04v-262.05c0-7.69-3.85-11.54-11.54-11.54s-11.54,3.85-11.54,11.54v267.82c0,27.41,10.58,41.35,32.21,41.35,2.88,0,5.77-1.44,8.17-3.85,2.4-2.4,3.37-4.81,3.37-7.69Zm91.36-91.84c14.91-26.93,18.75-41.83,11.54-44.24-7.69-5.29-15.87,1.44-24.04,19.71-6.25,15.87-13.94,30.77-22.6,44.72-31.25,42.79-51.45,60.1-67.8,60.1-7.69,0-11.54,3.85-11.54,11.54s3.85,11.54,12.02,11.54c14.42,0,28.85-6.25,42.79-18.75,15.87-12.5,36.06-40.87,59.62-84.62Zm-187.79,11.54c0,17.79-3.37,33.18-10.1,45.68-8.17,15.39-20.68,23.08-37.02,23.08-12.02,0-22.12-5.77-29.81-17.79-6.25-9.62-10.58-21.16-12.02-34.62v-15.87c0-17.79,3.85-32.7,11.06-45.68,8.65-15.39,21.16-23.08,37.98-23.08,26.44,0,39.91,22.6,39.91,68.28Zm23.56,1.44c0-24.52-4.33-45.2-12.98-61.54-11.06-21.16-27.89-31.73-50.49-31.73-19.23,0-35.58,8.17-49.04,24.52v-150.01c0-7.69-3.85-11.54-11.54-11.54s-11.54,3.85-11.54,11.54v297.63c0,7.69,3.85,11.54,11.54,11.54s11.54-3.85,11.54-11.54v-7.69c12.5,12.98,26.44,19.23,41.83,19.23,23.08,0,40.87-9.62,53.85-28.85,11.06-16.83,16.83-37.02,16.83-61.54Zm-280.64-188.96l47.12,125.49h-101.45l54.33-125.49Zm125.49,268.3c0-.48-.48-1.92-.96-4.33l-112.99-299.07c-2.4-6.25-5.77-9.14-10.58-9.14s-8.65,2.88-11.06,8.65l-129.34,299.55c-.48,1.44-.96,3.37-.96,4.81,0,7.21,3.85,10.58,12.02,10.58,5.29,0,8.65-2.4,10.58-6.73l53.85-125.01h119.24l46.64,124.53c1.92,4.81,5.29,7.21,10.58,7.21,8.65,0,12.98-3.85,12.98-11.06Zm412.5-138.09c-5.77,34.61-13.94,61.54-24.52,81.25-15.86,29.33-29.33,43.75-41.34,43.75-17.79,0-26.92-18.75-26.92-56.25,0-19.71,5.29-37.98,15.86-53.84,12.02-17.79,27.4-26.92,46.15-26.92,6.25,0,16.35,3.85,30.77,12.02Zm35.09,148.07c9.13.48,18.27-5.29,27.4-16.83,11.06-14.9,16.83-23.56,16.83-26.44,0-6.25-3.37-9.13-10.1-9.13-4.33,0-7.69,1.92-10.1,5.29-12.02,16.35-20.19,24.52-24.52,24.04-9.13,6.25-9.13,13.94.48,23.08Zm11.54-11.54c0-6.73-3.85-10.58-12.02-11.54-5.77-.48-8.65-8.65-8.65-24.04v-124.99c0-7.69-3.85-11.54-11.54-11.54s-11.54,3.37-11.54,10.58c-12.02-7.21-23.08-10.58-33.65-10.58-29.33,0-51.44,13.46-67.3,40.38-12.02,20.67-18.27,42.31-18.27,64.42v11.54c0,2.88.48,5.29.96,7.21,5.29,39.9,22.11,60.09,49.52,60.09,12.02,0,24.52-6.73,37.02-19.71,9.61-10.1,17.79-22.11,25-36.06l6.73-13.46v27.88c0,27.4,10.58,41.34,32.21,41.34,2.88,0,5.77-1.44,8.17-3.85s3.37-4.81,3.37-7.69Z"></path><path class="cls-8" d="m479.62,1656.05h-164.13c-7.66,0-11.48-3.67-11.48-11.01v-298.11c0-7.34,3.83-11.01,11.48-11.01h164.13c7.66,0,11.48,3.67,11.48,11.01s-3.83,11.48-11.48,11.48h-152.65v111.02h127.76c7.66,0,11.48,3.67,11.48,11.01s-3.83,11.01-11.48,11.01h-127.76v142.6h152.65c7.66,0,11.48,3.67,11.48,11.01s-3.83,11.01-11.48,11.01Z"></path><path class="cls-8" d="m629.06,1512.08c0,23.47-5.27,47.89-15.8,73.75-12.93,32.09-29.21,47.89-48.85,47.89-11.97,0-20.59-6.7-26.34-20.59-4.31-10.06-6.23-21.55-6.23-35.44,0-18.68,4.79-35.44,14.37-51.24,11.97-19.64,27.3-29.21,46.93-29.21,7.66,0,19.64,4.79,35.92,14.85Zm88.12,249.51c0-2.87-1.44-5.75-3.83-8.14-2.87-2.39-5.75-3.35-8.62-3.35l-12.45,10.54c-8.14,6.7-14.85,10.06-20.11,10.06-9.1,0-14.85-4.79-17.24-14.85-1.44-4.79-1.92-13.41-1.92-25.86v-244.72c0-7.66-3.83-11.49-11.49-11.49s-11.49,4.31-11.49,12.45c-14.85-8.14-26.82-12.45-36.88-12.45-28.73,0-50.76,13.41-66.57,40.23-11.97,20.59-18.2,42.14-18.2,64.17v11.49l1.44,7.18c1.44,15.8,6.7,29.21,16.28,40.71,10.54,12.93,23.47,19.16,38.31,19.16,26.34,0,48.37-16.76,65.61-50.29v112.54c0,23.47,1.92,39.75,5.27,49.33,6.23,16.76,18.2,25.38,36.88,25.38,10.54,0,20.59-4.31,30.65-12.93,3.35-2.39,7.66-6.7,12.45-12.45,1.44-2.39,1.92-4.31,1.92-6.7Zm233.75-207.85c14.85-26.82,18.68-41.67,11.49-44.06-7.66-5.27-15.8,1.44-23.95,19.64-6.23,15.8-13.89,30.65-22.51,44.54-31.13,42.62-51.24,59.86-67.53,59.86-7.66,0-11.49,3.83-11.49,11.49s3.83,11.49,11.97,11.49c14.37,0,28.73-6.23,42.62-18.68,15.8-12.45,35.92-40.71,59.38-84.29Zm-90.99,91.47c0-7.66-3.83-11.49-11.49-11.49-6.23,0-9.1-8.14-9.1-23.95v-124.52c0-7.66-3.83-11.49-11.97-11.49-7.18,0-11.01,3.83-11.01,11.01-16.76,99.13-39.27,148.94-68.48,148.94-8.62,0-15.33-4.31-20.11-12.93-3.83-7.18-5.75-15.33-5.75-24.9v-110.63c0-7.66-3.83-11.49-11.49-11.49s-11.49,3.83-11.49,11.49v110.63c0,16.76,3.83,30.65,11.49,41.67,9.1,12.93,21.55,19.16,37.35,19.16,25.86,0,46.45-18.68,61.78-55.55l6.7-16.28v30.65c0,27.3,10.54,41.19,32.09,41.19,2.87,0,5.75-1.44,8.14-3.83s3.35-4.79,3.35-7.66Zm643.18-169.06c-3.35-3.35-12.45-3.83-16.28.48-17.24,19.16-33.04,29.21-53.16,26.82-10.06-1.44-22.99-8.14-38.79-20.59-8.62-3.35-14.37-3.35-17.72.96-3.35,7.18-1.92,12.93,4.79,17.24,18.68,17.72,37.35,26.34,55.07,26.82,29.21.48,52.2-10.54,68.48-33.52,2.39-7.18,1.92-12.93-2.39-18.2Zm38.31,5.75c-7.66,6.7-14.85,18.2-21.07,34-4.31,10.06-8.62,22.03-13.41,34.96v-65.61c0-7.66-3.83-11.49-11.49-11.49s-11.49,3.83-11.49,11.49v159.96c0,7.66,3.83,11.49,11.49,11.49,6.7,0,11.01-3.83,12.45-11.97,4.31-24.42,7.66-40.71,9.1-48.85,1.92-11.01,4.31-21.55,6.7-31.61,13.89-44.54,26.34-66.57,36.4-66.09,1.44,1.44,3.35,2.87,4.79,5.27,11.01,14.37,22.51,21.55,35.44,21.55,21.55-1.44,33.04-8.62,34.48-20.59,0-6.23-2.87-9.58-9.1-9.58-3.35.48-6.23,1.44-9.58,3.83-3.35,2.39-8.62,3.35-15.8,3.35s-13.89-4.79-20.11-14.37c-5.75-9.58-11.49-14.37-16.76-14.37-3.35,0-6.23.48-9.58,1.44-2.39.48-4.79,1.44-7.18,2.87-1.92,1.44-3.83,2.87-5.27,4.31Zm-228.92,71.84c14.85-26.82,18.68-41.67,11.49-44.06-7.66-5.27-15.8,1.44-23.95,19.64-6.7,15.8-13.89,30.65-22.51,44.54-31.13,42.62-53.64,62.74-67.53,59.86-7.66,0-11.49,3.83-11.49,11.49s3.83,11.49,11.97,11.49c14.37,0,28.26-6.23,42.62-18.68,15.8-12.45,35.44-40.71,59.38-84.29Zm90.51,11.49c0,17.24-3.83,32.09-11.01,45.02-9.1,15.8-21.55,23.47-37.35,23.47-23.95,0-35.92-22.99-35.92-68.48,0-17.72,2.87-32.57,9.58-44.54,7.66-15.8,19.64-23.47,35.92-23.47,25.86,0,38.79,22.51,38.79,68.01Zm22.99,1.44c0-24.42-4.31-45.02-12.45-61.3-10.54-21.07-27.3-31.61-49.33-31.61s-39.75,10.06-52.2,29.69c-11.01,16.76-16.28,37.35-16.28,60.82,0,61.78,19.64,92.43,58.91,92.43,22.03,0,40.23-9.58,53.64-29.21,11.49-16.76,17.72-37.35,17.72-60.82Zm-225.57-170.49c-.48-7.66-4.31-11.49-11.49-11.49-7.66,0-11.49,3.83-11.49,11.97,1.44,29.21,1.44,55.55.48,78.06-1.44,19.64-6.23,40.23-13.89,62.74-21.07,64.65-49.81,96.74-85.72,96.26-7.66,0-11.49,3.83-11.49,11.49s3.83,11.49,11.49,11.49c51.72.48,87.64-37.35,107.28-114.46,10.54-31.61,15.33-80.46,14.85-146.07Zm9.1,260.53h.48c25.38,0,24.42-22.99-.48-22.99-5.75,0-8.62-8.14-8.62-23.95v-138.88h40.71c2.87,0,5.75-1.44,8.14-3.83s3.35-4.79,3.35-7.66c0-7.66-3.83-11.49-11.49-11.49h-40.71v-52.2c0-8.14-3.83-11.97-11.49-11.97s-11.49,3.83-11.97,11.97v52.2h-36.4c-7.66,0-11.49,3.83-11.49,11.49s3.83,11.49,11.49,11.49h36.88v144.63c0,27.3,10.54,41.19,31.61,41.19Zm-165.7-147.5c-5.75,34.48-13.89,61.3-24.42,80.94-15.8,29.21-29.21,43.58-41.19,43.58-17.72,0-26.82-18.68-26.82-56.03,0-19.64,5.27-37.83,15.8-53.64,11.97-17.72,27.3-26.82,45.98-26.82,6.23,0,16.28,3.83,30.65,11.97Zm46.45,136.01c0-6.7-3.83-10.54-11.97-11.49-5.75-.48-8.62-8.62-8.62-23.95v-124.52c0-7.66-3.83-11.49-11.49-11.49s-11.49,3.35-11.49,10.54c-11.97-7.18-22.99-10.54-33.52-10.54-29.21,0-51.24,13.41-67.05,40.23-11.97,20.59-18.2,42.14-18.2,64.17v11.49c0,2.87.48,5.27.96,7.18,5.27,39.75,22.03,59.86,49.33,59.86,11.97,0,24.42-6.7,36.88-19.64,9.58-10.06,17.72-22.03,24.9-35.92l6.7-13.41v27.78c0,27.3,10.54,41.19,32.09,41.19,2.87,0,5.75-1.44,8.14-3.83,2.39-2.39,3.35-4.79,3.35-7.66Z"></path><path class="cls-9" d="m519.3,2396.36v66.97c0,7.6-3.64,11.4-10.93,11.4s-10.92-3.8-10.92-11.4v-66.97h-86.92c-7.92,0-11.88-3.48-11.88-10.45v-216.6c0-7.28,3.96-10.92,11.88-10.92,7.28,0,10.92,3.64,10.92,10.92v205.2h76v-61.75c0-7.28,3.64-10.93,10.92-10.93s10.93,3.64,10.93,10.93v61.75h84.07c7.28,0,10.92,3.8,10.92,11.4,0,6.97-3.64,10.45-10.92,10.45h-84.07Z"></path><path class="cls-8" d="m1536.86,2418.4c0-13.83-5.25-26.24-15.26-36.25-10.49-10.02-22.9-15.26-36.73-15.26-7.63,0-14.31-2.39-19.56-7.16s-8.11-10.97-8.11-18.13c0-8.11,2.86-14.31,8.11-19.56,5.25-5.25,11.45-7.63,19.56-7.63,5.25,0,9.54.95,13.83,3.34.95.48,4.29,3.34,10.02,8.11,3.82,3.34,7.16,4.77,10.02,4.77,7.63,0,11.45-3.82,11.45-11.45,0-2.86-.95-5.25-2.86-7.63-10.97-13.83-25.28-20.51-42.45-20.51-13.83,0-25.76,4.77-35.78,14.79-10.02,10.02-14.79,21.94-14.79,35.78s4.77,25.76,14.79,34.82c9.54,9.06,21.47,13.36,35.78,13.36,7.63,0,14.31,2.86,20.03,8.59,5.72,5.72,8.59,12.4,8.59,20.03,0,10.02-2.86,17.65-9.06,23.37-6.2,5.72-14.31,8.59-24.33,8.59-6.2,0-12.4-1.91-18.6-5.25-2.86-1.43-6.68-5.25-11.93-10.49-4.29-4.29-7.63-6.68-10.97-6.68-8.11,0-11.93,3.82-11.93,10.97,0,9.06,6.68,17.17,20.51,24.33,11.93,6.68,22.9,10.02,32.91,10.02,16.7,0,30.05-5.25,41.02-15.26,10.49-10.02,15.74-22.9,15.74-39.59Zm-154.42-88.73v16.22c-1.43,11.45-3.34,21.47-5.72,30.05-7.16,23.37-18.13,43.41-32.44,60.1-8.59,9.54-18.13,14.31-27.67,14.31-11.45,0-20.03-6.68-25.76-20.51-4.29-10.02-6.2-21.47-6.2-35.3,0-20.03,4.77-37.68,15.26-53.43,11.45-17.65,26.71-26.71,45.79-26.71,9.06,0,21.47,5.25,36.73,15.26Zm22.9,199.87v-227.06c0-7.63-3.82-11.45-11.45-11.45-8.11,0-11.93,4.29-11.93,12.4-14.79-8.11-26.71-12.4-36.25-12.4-28.62,0-51.04,13.36-66.78,40.07-11.93,20.03-17.65,41.5-17.65,63.92v11.45c0,3.34.48,5.72.95,7.16,1.91,16.22,7.63,29.58,16.22,40.55,10.02,12.88,22.9,19.08,38.16,19.08,23.37,0,45.32-17.17,65.83-51.52v107.81c0,16.22-5.72,29.58-16.7,40.55-10.97,10.97-24.33,16.7-40.55,16.7-7.63,0-15.26-1.43-23.85-4.29-10.02-3.34-16.7-7.16-20.51-11.93-2.39-2.86-5.25-4.29-8.59-4.29-8.11,0-11.93,3.82-11.93,11.45,0,2.86.95,5.25,2.86,7.63,6.2,7.63,15.74,13.83,28.62,18.13,11.45,4.29,22.42,6.2,33.39,6.2,22.42,0,41.5-7.63,56.77-23.37,15.74-15.26,23.37-34.35,23.37-56.77Zm-316.74-189.85c33.39.95,27.19-37.68,19.56-32.91-13.83,8.59-29.58,12.4-46.27,11.93-24.33-1.43-42.45-28.62-56.29-28.62-2.86,0-6.2.48-9.54,1.43-2.39.48-4.77,1.43-7.16,2.86-1.91.95-3.34,2.39-5.25,4.29-7.63,6.68-14.79,18.13-20.99,33.87-4.29,10.02-8.59,21.94-13.36,34.82v-65.35c0-7.63-3.82-11.45-11.45-11.45s-11.45,3.82-11.45,11.45v159.32c0,7.63,3.82,11.45,11.45,11.45,6.68,0,10.97-3.82,12.4-11.93,4.77-24.33,7.63-40.55,9.06-48.66,1.91-10.97,4.29-20.99,6.68-31.48,13.83-44.36,31.01-73.94,38.64-66.78,16.22,15.26,34.82,27.19,54.86,27.67,10.49.48,20.03,0,29.1-1.91Zm-247.1-14.79v-121.64c0-28.62,14.31-42.93,42.45-42.93,2.39,0,7.16.95,13.36,2.86,6.68,2.39,10.49,3.82,13.36,3.82,7.63,0,11.45-4.29,11.45-12.88,0-3.82-1.43-6.68-5.25-9.54-8.11-4.29-19.56-6.68-32.91-6.68-20.99,0-37.21,5.25-48.18,17.17-11.45,11.93-17.17,27.67-17.17,48.18v285.26c0,15.26-3.82,29.1-11.93,42.45-8.11,14.79-19.08,22.9-33.39,22.9-6.2,0-14.31-1.43-24.81-4.29-1.91-.95-6.2-3.82-13.83-8.59-7.16-5.25-10.02-7.63-11.45-7.63-8.11,0-11.93,3.82-11.93,11.93,0,2.39.95,5.25,2.86,7.16,13.36,16.7,33.87,24.81,59.15,24.81,20.03,0,37.21-10.02,50.56-31.01,11.93-17.65,17.65-37.21,17.65-57.72v-163.62Zm96.84-33.87l-46.75,12.88c-16.54,5.09-34.03,7.63-52.47,7.63-22.9,0-47.54-6.52-73.94-19.56-2.54-.64-4.13-.95-4.77-.95-7.95,0-12.4,4.13-13.36,12.4-.32,4.77,1.59,8.11,5.72,10.02,18.76,7.95,31.01,12.72,36.73,14.31,16.22,5.09,31.64,7.63,46.27,7.63,18.13,0,42.14-3.98,72.03-11.93l23.37-6.2c10.49-2.86,16.22-7.47,17.17-13.83.95-8.27-2.39-12.4-10.02-12.4Zm248.05,91.11c0,17.17-3.82,31.96-10.97,44.84-9.06,15.74-21.47,23.37-37.21,23.37-23.85,0-35.78-22.9-35.78-68.21,0-17.65,2.86-32.44,9.54-44.36,7.63-15.74,19.56-23.37,35.78-23.37,25.76,0,38.64,22.42,38.64,67.74Zm22.9,1.43c0-24.33-4.29-44.84-12.4-61.06-10.49-20.99-27.19-31.48-49.13-31.48s-39.59,10.02-52,29.58c-10.97,16.7-16.22,37.21-16.22,60.58,0,61.54,19.56,92.06,58.67,92.06,21.94,0,40.07-9.54,53.43-29.1,11.45-16.7,17.65-37.21,17.65-60.58Zm115.92-70.6l.48-8.59c-1.43-2.39-3.34-4.29-6.2-5.25-4.29-1.43-9.06-.48-14.31,3.34-1.91,1.43-4.29,2.86-7.16,5.25-16.22,9.54-34.82,13.83-55.81,13.36-13.83,0-28.14-3.34-42.45-10.02-4.77-2.39-11.93-5.72-20.99-10.97-2.39-1.43-4.77-2.39-7.16-1.91-7.63,0-11.45,3.82-11.45,11.45,0,3.34,1.43,5.72,3.34,8.11,27.67,16.7,52.95,25.76,75.85,26.71,36.25.95,63.44-7.63,81.09-25.76l4.77-5.72Z"></path><path class="cls-8" d="m1054.05,875.37h3.15l17.69,27.6h.04v-27.6h2.94v32.77h-3.07l-17.77-27.94h-.04v27.94h-2.94v-32.77Z"></path><path class="cls-8" d="m1085.21,902.33c0-3.95,2.23-6.09,7.86-6.09h6.34v-1.72c0-2.98-1.26-5.42-5.46-5.42-3.95,0-5.33,1.51-5.33,4.12v.88h-2.98v-.84c0-5,4.2-6.68,8.32-6.68,5.8,0,8.4,2.86,8.4,8.44v13.11h-2.06l-.55-2.98h-.08c-1.26,1.89-3.7,3.53-7.35,3.53-4.92,0-7.1-2.31-7.1-6.34Zm14.2-1.85v-1.76h-7.01c-2.65,0-4.03.92-4.03,3.61,0,2.35,1.26,3.86,4.5,3.86,4.16,0,6.55-2.14,6.55-5.71Z"></path><path class="cls-8" d="m1109.7,887.13h2.6l.29,3.91c1.01-2.14,3.07-4.45,6.76-4.45,1.26,0,2.18.21,3.02.55v3.15c-1.13-.5-2.1-.76-3.4-.76-3.74,0-6.34,2.81-6.34,5.75v12.85h-2.94v-21Z"></path><path class="cls-8" d="m1127,887.13h2.6l.29,3.91c1.01-2.14,3.07-4.45,6.76-4.45,1.26,0,2.18.21,3.02.55v3.15c-1.13-.5-2.1-.76-3.4-.76-3.74,0-6.34,2.81-6.34,5.75v12.85h-2.94v-21Z"></path><path class="cls-8" d="m1142,897.63c0-6.22,3.32-11.05,10.38-11.05,6.59,0,10.25,4.83,10.25,11.05s-3.7,11.05-10.29,11.05c-7.27,0-10.33-4.83-10.33-11.05Zm17.56,0c0-5.33-2.9-8.49-7.22-8.49-4.75,0-7.27,3.15-7.27,8.49s2.56,8.49,7.27,8.49c4.33,0,7.22-3.15,7.22-8.49Z"></path><path class="cls-8" d="m1164.93,887.17v-.04h2.98l5.76,17.48h.08l6.3-17.48h2.69l6.17,17.48h.08l5.75-17.48h2.86v.04l-7.18,20.96h-3.02l-5.96-17.06h-.08l-6.22,17.06h-3.02l-7.18-20.96Z"></path><path class="cls-8" d="m1213.77,885.83h-3.36v-5.08c0-3.95.88-5.29,3.4-5.97l.67,1.85c-1.76.67-2.06,1.09-2.06,3.78v.34h1.34v5.08Zm5.92,0h-3.36v-5.08c0-3.95.88-5.29,3.4-5.97l.67,1.85c-1.76.67-2.06,1.09-2.06,3.78v.34h1.34v5.08Z"></path><path class="cls-8" d="m1226.08,875.37h2.94v23.23l12.14-11.47h3.65v.04l-8.4,7.86,8.78,13.06v.04h-3.36l-7.39-11.22-5.42,5.04v6.18h-2.94v-32.77Z"></path><path class="cls-8" d="m1248.34,884.56c1.76-.67,2.06-1.09,2.06-3.78v-.34h-1.34v-5.08h3.36v5.08c0,3.95-.88,5.29-3.4,5.97l-.67-1.85Zm5.92,0c1.76-.67,2.06-1.09,2.06-3.78v-.34h-1.34v-5.08h3.36v5.08c0,3.95-.88,5.29-3.4,5.97l-.67-1.85Z"></path><path class="cls-8" d="m520.39,885.83h-3.36v-5.08c0-3.95.88-5.29,3.4-5.97l.67,1.85c-1.76.67-2.06,1.09-2.06,3.78v.34h1.34v5.08Zm5.92,0h-3.36v-5.08c0-3.95.88-5.29,3.4-5.97l.67,1.85c-1.76.67-2.06,1.09-2.06,3.78v.34h1.34v5.08Z"></path><path class="cls-8" d="m531.44,891.92c0-11.85,6.51-17.1,14.49-17.1,7.56,0,12.64,3.78,12.64,11.47v.5h-2.86v-.63c0-5.33-3.49-8.7-9.7-8.7-6.72,0-11.47,4.58-11.47,14.28s4.75,14.28,11.76,14.28c5.63,0,9.45-2.52,9.45-8.78v-2.73h-9.83v-2.6h12.64v16.21h-2.1l-.67-3.74c-1.6,2.48-5.17,4.28-9.75,4.28-8.32,0-14.62-4.87-14.62-16.76Z"></path><path class="cls-8" d="m563.4,884.56c1.76-.67,2.06-1.09,2.06-3.78v-.34h-1.34v-5.08h3.36v5.08c0,3.95-.88,5.29-3.4,5.97l-.67-1.85Zm5.92,0c1.76-.67,2.06-1.09,2.06-3.78v-.34h-1.35v-5.08h3.36v5.08c0,3.95-.88,5.29-3.4,5.97l-.67-1.85Z"></path><path class="cls-8" d="m586.2,887.17v-.04h2.98l5.76,17.48h.08l6.3-17.48h2.69l6.17,17.48h.08l5.76-17.48h2.86v.04l-7.18,20.96h-3.03l-5.96-17.06h-.08l-6.22,17.06h-3.03l-7.18-20.96Z"></path><path class="cls-8" d="m623.71,875.37h2.98v6.51h-2.98v-6.51Zm0,11.76h2.94v21h-2.94v-21Z"></path><path class="cls-8" d="m645,905.44v2.6c-.76.21-2.14.59-4.03.59-3.82,0-6.34-1.6-6.34-6.89v-12.18h-4.16v-2.44h4.16v-6.05l2.94-1.43v7.48h5.92v2.44h-5.92v11.8c0,2.81.76,4.58,3.4,4.58,1.6,0,3.23-.29,4.03-.5Z"></path><path class="cls-8" d="m649.83,875.37h2.94v15.16c1.05-2.1,3.28-3.95,7.31-3.95,4.75,0,7.77,2.52,7.77,7.94v13.61h-2.94v-13.27c0-4.33-2.14-5.71-5.5-5.71-3.82,0-6.64,2.69-6.64,5.63v13.36h-2.94v-32.77Z"></path><path class="cls-8" d="m684.86,887.13h2.6l.29,3.49c1.01-2.14,3.28-4.03,7.35-4.03,4.75,0,7.77,2.52,7.77,7.94v13.61h-2.94v-13.27c0-4.33-2.14-5.71-5.5-5.71-3.82,0-6.64,2.69-6.64,5.63v13.36h-2.94v-21Z"></path><path class="cls-8" d="m708.55,897.63c0-6.22,3.32-11.05,10.38-11.05,6.6,0,10.25,4.83,10.25,11.05s-3.7,11.05-10.29,11.05c-7.27,0-10.33-4.83-10.33-11.05Zm17.56,0c0-5.33-2.9-8.49-7.22-8.49-4.75,0-7.27,3.15-7.27,8.49s2.56,8.49,7.27,8.49c4.33,0,7.22-3.15,7.22-8.49Z"></path><path class="cls-8" d="m747.53,904.64h-.08l-.76,3.49h-1.97v-32.77h2.94v15.25h.04c1.26-2.31,4.07-4.03,7.69-4.03,6.3,0,9.66,3.99,9.66,11.01s-4.29,11.09-9.87,11.09c-3.78,0-6.55-1.64-7.64-4.03Zm14.37-6.89c0-7.18-3.4-8.61-6.93-8.61-4.24,0-7.56,2.73-7.56,8.44,0,6.01,3.45,8.57,7.44,8.57,3.03,0,7.06-1.47,7.06-8.4Z"></path><path class="cls-8" d="m769.45,902.33c0-3.95,2.23-6.09,7.86-6.09h6.34v-1.72c0-2.98-1.26-5.42-5.46-5.42-3.95,0-5.33,1.51-5.33,4.12v.88h-2.98v-.84c0-5,4.2-6.68,8.32-6.68,5.8,0,8.4,2.86,8.4,8.44v13.11h-2.06l-.55-2.98h-.08c-1.26,1.89-3.7,3.53-7.35,3.53-4.92,0-7.1-2.31-7.1-6.34Zm14.2-1.85v-1.76h-7.01c-2.65,0-4.03.92-4.03,3.61,0,2.35,1.26,3.86,4.49,3.86,4.16,0,6.55-2.14,6.55-5.71Z"></path><path class="cls-8" d="m793.93,887.13h2.61l.29,3.91c1.01-2.14,3.07-4.45,6.76-4.45,1.26,0,2.19.21,3.03.55v3.15c-1.13-.5-2.1-.76-3.4-.76-3.74,0-6.34,2.81-6.34,5.75v12.85h-2.94v-21Z"></path><path class="cls-8" d="m768.48,2761.96h2.94v30.12h15.71v2.65h-18.65v-32.77Z"></path><path class="cls-8" d="m790.28,2784.23c0-6.22,3.32-11.05,10.38-11.05,6.59,0,10.25,4.83,10.25,11.05s-3.7,11.05-10.29,11.05c-7.27,0-10.33-4.83-10.33-11.05Zm17.56,0c0-5.33-2.9-8.49-7.22-8.49-4.75,0-7.27,3.15-7.27,8.49s2.56,8.49,7.27,8.49c4.33,0,7.22-3.15,7.22-8.49Z"></path><path class="cls-8" d="m815.1,2784.23c0-6.22,3.32-11.05,10.38-11.05,6.6,0,10.25,4.83,10.25,11.05s-3.7,11.05-10.29,11.05c-7.27,0-10.33-4.83-10.33-11.05Zm17.56,0c0-5.33-2.9-8.49-7.22-8.49-4.75,0-7.27,3.15-7.27,8.49s2.56,8.49,7.27,8.49c4.33,0,7.22-3.15,7.22-8.49Z"></path><path class="cls-8" d="m841.6,2773.73h2.39l.34,3.86h.08c1.13-2.48,4.03-4.41,7.86-4.41,6.3,0,9.66,3.99,9.66,11.01s-4.29,11.09-9.87,11.09c-3.78,0-6.38-1.6-7.43-3.7h-.09v11.55h-2.94v-29.41Zm17.18,10.63c0-7.18-3.4-8.61-6.93-8.61-4.24,0-7.56,2.73-7.56,8.44,0,6.01,3.45,8.57,7.44,8.57,3.03,0,7.06-1.47,7.06-8.4Z"></path><path class="cls-8" d="m867.18,2761.96h2.94v32.77h-2.94v-32.77Z"></path><path class="cls-8" d="m894.74,2785.24h-15.96c.17,4.79,2.48,7.48,6.93,7.48,3.82,0,5.67-1.43,5.96-4.83h2.98c-.29,4.24-3.28,7.39-9.03,7.39-7.06,0-9.83-4.66-9.83-10.88s3.23-11.22,10-11.22,8.95,3.99,8.95,10.21v1.85Zm-3.11-2.98c0-4.45-1.72-6.55-5.92-6.55s-6.55,2.65-6.89,6.97h12.81v-.42Z"></path><path class="cls-8" d="m898.72,2788.3v-1.18h2.94v1.13c0,2.86,2.14,4.5,5.96,4.5s5.8-1.01,5.8-3.78c0-2.06-1.01-2.81-3.87-3.32l-4.62-.84c-3.02-.55-5.54-2.02-5.54-5.5,0-3.15,2.35-6.13,8.4-6.13s8.4,3.02,8.4,7.22v.88h-2.98v-.76c0-3.44-2.14-4.91-5.42-4.91-3.95,0-5.34,1.34-5.34,3.36s1.01,2.86,3.91,3.4l4.03.76c4.12.76,6.09,1.93,6.09,5.59,0,4.58-4.12,6.55-8.78,6.55-7.31,0-8.99-3.28-8.99-6.97Z"></path><path class="cls-8" d="m920.48,2788.3v-1.18h2.94v1.13c0,2.86,2.14,4.5,5.96,4.5s5.8-1.01,5.8-3.78c0-2.06-1.01-2.81-3.86-3.32l-4.62-.84c-3.03-.55-5.54-2.02-5.54-5.5,0-3.15,2.35-6.13,8.4-6.13s8.4,3.02,8.4,7.22v.88h-2.98v-.76c0-3.44-2.14-4.91-5.42-4.91-3.95,0-5.33,1.34-5.33,3.36s1.01,2.86,3.91,3.4l4.03.76c4.12.76,6.09,1.93,6.09,5.59,0,4.58-4.12,6.55-8.78,6.55-7.31,0-8.99-3.28-8.99-6.97Z"></path><path class="cls-8" d="m952.53,2788.93c0-3.95,2.23-6.09,7.86-6.09h6.34v-1.72c0-2.98-1.26-5.42-5.46-5.42-3.95,0-5.33,1.51-5.33,4.12v.88h-2.98v-.84c0-5,4.2-6.68,8.32-6.68,5.8,0,8.4,2.86,8.4,8.44v13.11h-2.06l-.55-2.98h-.08c-1.26,1.89-3.7,3.53-7.35,3.53-4.92,0-7.1-2.31-7.1-6.34Zm14.2-1.85v-1.76h-7.01c-2.65,0-4.03.92-4.03,3.61,0,2.35,1.26,3.86,4.49,3.86,4.16,0,6.55-2.14,6.55-5.71Z"></path><path class="cls-8" d="m975.12,2788.3v-1.18h2.94v1.13c0,2.86,2.14,4.5,5.96,4.5s5.8-1.01,5.8-3.78c0-2.06-1.01-2.81-3.87-3.32l-4.62-.84c-3.02-.55-5.54-2.02-5.54-5.5,0-3.15,2.35-6.13,8.4-6.13s8.4,3.02,8.4,7.22v.88h-2.98v-.76c0-3.44-2.14-4.91-5.42-4.91-3.95,0-5.34,1.34-5.34,3.36s1.01,2.86,3.91,3.4l4.03.76c4.12.76,6.09,1.93,6.09,5.59,0,4.58-4.12,6.55-8.78,6.55-7.31,0-8.99-3.28-8.99-6.97Z"></path><path class="cls-8" d="m997.09,2784.4c0-6.38,3.23-11.22,10-11.22s8.95,3.91,8.95,8.95v.42h-3.11v-.63c0-3.82-1.64-6.09-5.84-6.09-4.75,0-7.01,3.11-7.01,8.4,0,5.63,2.39,8.49,6.93,8.49,3.82,0,5.84-1.85,5.92-5.67h3.03c-.08,4.66-3.15,8.23-9.03,8.23-7.22,0-9.83-4.75-9.83-10.88Z"></path><path class="cls-8" d="m1039.17,2785.24h-15.96c.17,4.79,2.48,7.48,6.93,7.48,3.82,0,5.67-1.43,5.96-4.83h2.98c-.29,4.24-3.28,7.39-9.03,7.39-7.06,0-9.83-4.66-9.83-10.88s3.23-11.22,10-11.22,8.95,3.99,8.95,10.21v1.85Zm-3.11-2.98c0-4.45-1.72-6.55-5.92-6.55s-6.55,2.65-6.89,6.97h12.81v-.42Z"></path><path class="cls-8" d="m1045.05,2773.73h2.61l.29,3.49c1.01-2.14,3.28-4.03,7.35-4.03,4.75,0,7.77,2.52,7.77,7.94v13.61h-2.94v-13.27c0-4.33-2.14-5.71-5.5-5.71-3.82,0-6.64,2.69-6.64,5.63v13.36h-2.94v-21Z"></path><path class="cls-8" d="m1068.74,2784.27c0-7.1,4.28-11.09,10.04-11.09,3.7,0,6.22,1.6,7.31,3.74h.04v-14.95h2.94v32.77h-1.97l-.67-3.61h-.08c-1.18,2.31-3.95,4.16-7.77,4.16-6.3,0-9.83-3.99-9.83-11.01Zm17.64-.5c0-5.5-3.36-8.07-7.35-8.07-3.11,0-7.14,1.47-7.14,8.4s3.61,8.61,7.14,8.61c4.24,0,7.35-2.73,7.35-8.95Z"></path><path class="cls-8" d="m1113.68,2785.24h-15.96c.17,4.79,2.48,7.48,6.93,7.48,3.82,0,5.67-1.43,5.97-4.83h2.98c-.29,4.24-3.28,7.39-9.03,7.39-7.06,0-9.83-4.66-9.83-10.88s3.23-11.22,10-11.22,8.95,3.99,8.95,10.21v1.85Zm-3.11-2.98c0-4.45-1.72-6.55-5.92-6.55s-6.55,2.65-6.89,6.97h12.81v-.42Z"></path><path class="cls-8" d="m1119.56,2773.73h2.61l.29,3.91c1.01-2.14,3.07-4.45,6.76-4.45,1.26,0,2.19.21,3.03.55v3.15c-1.13-.5-2.1-.76-3.4-.76-3.74,0-6.34,2.81-6.34,5.75v12.85h-2.94v-21Z"></path><path class="cls-8" d="m1134.76,2788.3v-1.18h2.94v1.13c0,2.86,2.14,4.5,5.96,4.5s5.8-1.01,5.8-3.78c0-2.06-1.01-2.81-3.86-3.32l-4.62-.84c-3.03-.55-5.54-2.02-5.54-5.5,0-3.15,2.35-6.13,8.4-6.13s8.4,3.02,8.4,7.22v.88h-2.98v-.76c0-3.44-2.14-4.91-5.42-4.91-3.95,0-5.33,1.34-5.33,3.36s1.01,2.86,3.91,3.4l4.03.76c4.12.76,6.09,1.93,6.09,5.59,0,4.58-4.12,6.55-8.78,6.55-7.31,0-8.99-3.28-8.99-6.97Z"></path><path class="cls-8" d="m1166.81,2788.93c0-3.95,2.23-6.09,7.86-6.09h6.34v-1.72c0-2.98-1.26-5.42-5.46-5.42-3.95,0-5.34,1.51-5.34,4.12v.88h-2.98v-.84c0-5,4.2-6.68,8.32-6.68,5.8,0,8.4,2.86,8.4,8.44v13.11h-2.06l-.55-2.98h-.08c-1.26,1.89-3.7,3.53-7.35,3.53-4.91,0-7.1-2.31-7.1-6.34Zm14.2-1.85v-1.76h-7.02c-2.65,0-4.03.92-4.03,3.61,0,2.35,1.26,3.86,4.5,3.86,4.16,0,6.55-2.14,6.55-5.71Z"></path><path class="cls-8" d="m1191.29,2773.73h2.61l.29,3.49c1.01-2.14,3.28-4.03,7.35-4.03,4.75,0,7.77,2.52,7.77,7.94v13.61h-2.94v-13.27c0-4.33-2.14-5.71-5.5-5.71-3.82,0-6.64,2.69-6.64,5.63v13.36h-2.94v-21Z"></path><path class="cls-8" d="m1214.98,2784.27c0-7.1,4.28-11.09,10.04-11.09,3.7,0,6.22,1.6,7.31,3.74h.04v-14.95h2.94v32.77h-1.97l-.67-3.61h-.08c-1.18,2.31-3.95,4.16-7.77,4.16-6.3,0-9.83-3.99-9.83-11.01Zm17.64-.5c0-5.5-3.36-8.07-7.35-8.07-3.11,0-7.14,1.47-7.14,8.4s3.61,8.61,7.14,8.61c4.24,0,7.35-2.73,7.35-8.95Z"></path><path class="cls-8" d="m1250.64,2784.27c0-7.1,4.29-11.09,10.04-11.09,3.7,0,6.22,1.6,7.31,3.74h.04v-14.95h2.94v32.77h-1.97l-.67-3.61h-.08c-1.18,2.31-3.95,4.16-7.77,4.16-6.3,0-9.83-3.99-9.83-11.01Zm17.64-.5c0-5.5-3.36-8.07-7.35-8.07-3.11,0-7.14,1.47-7.14,8.4s3.61,8.61,7.14,8.61c4.24,0,7.35-2.73,7.35-8.95Z"></path><path class="cls-8" d="m1295.58,2785.24h-15.96c.17,4.79,2.48,7.48,6.93,7.48,3.82,0,5.67-1.43,5.96-4.83h2.98c-.29,4.24-3.28,7.39-9.03,7.39-7.06,0-9.83-4.66-9.83-10.88s3.23-11.22,10-11.22,8.95,3.99,8.95,10.21v1.85Zm-3.11-2.98c0-4.45-1.72-6.55-5.92-6.55s-6.55,2.65-6.89,6.97h12.81v-.42Z"></path><path class="cls-8" d="m1299.57,2788.3v-1.18h2.94v1.13c0,2.86,2.14,4.5,5.96,4.5s5.8-1.01,5.8-3.78c0-2.06-1.01-2.81-3.86-3.32l-4.62-.84c-3.03-.55-5.54-2.02-5.54-5.5,0-3.15,2.35-6.13,8.4-6.13s8.4,3.02,8.4,7.22v.88h-2.98v-.76c0-3.44-2.14-4.91-5.42-4.91-3.95,0-5.33,1.34-5.33,3.36s1.01,2.86,3.91,3.4l4.03.76c4.12.76,6.09,1.93,6.09,5.59,0,4.58-4.12,6.55-8.78,6.55-7.31,0-8.99-3.28-8.99-6.97Z"></path><path class="cls-8" d="m1321.54,2784.4c0-6.38,3.23-11.22,10-11.22s8.95,3.91,8.95,8.95v.42h-3.11v-.63c0-3.82-1.64-6.09-5.84-6.09-4.75,0-7.02,3.11-7.02,8.4,0,5.63,2.39,8.49,6.93,8.49,3.82,0,5.84-1.85,5.92-5.67h3.02c-.08,4.66-3.15,8.23-9.03,8.23-7.22,0-9.83-4.75-9.83-10.88Z"></path><path class="cls-8" d="m1363.62,2785.24h-15.96c.17,4.79,2.48,7.48,6.93,7.48,3.82,0,5.67-1.43,5.97-4.83h2.98c-.29,4.24-3.28,7.39-9.03,7.39-7.06,0-9.83-4.66-9.83-10.88s3.23-11.22,10-11.22,8.95,3.99,8.95,10.21v1.85Zm-3.11-2.98c0-4.45-1.72-6.55-5.92-6.55s-6.55,2.65-6.89,6.97h12.81v-.42Z"></path><path class="cls-8" d="m1369.5,2773.73h2.6l.29,3.49c1.01-2.14,3.28-4.03,7.35-4.03,4.75,0,7.77,2.52,7.77,7.94v13.61h-2.94v-13.27c0-4.33-2.14-5.71-5.5-5.71-3.82,0-6.64,2.69-6.64,5.63v13.36h-2.94v-21Z"></path><path class="cls-8" d="m1393.19,2784.27c0-7.1,4.28-11.09,10.04-11.09,3.7,0,6.22,1.6,7.31,3.74h.04v-14.95h2.94v32.77h-1.97l-.67-3.61h-.08c-1.18,2.31-3.95,4.16-7.77,4.16-6.3,0-9.83-3.99-9.83-11.01Zm17.64-.5c0-5.5-3.36-8.07-7.35-8.07-3.11,0-7.14,1.47-7.14,8.4s3.61,8.61,7.14,8.61c4.24,0,7.35-2.73,7.35-8.95Z"></path><path class="cls-8" d="m1438.13,2785.24h-15.96c.17,4.79,2.48,7.48,6.93,7.48,3.82,0,5.67-1.43,5.97-4.83h2.98c-.29,4.24-3.28,7.39-9.03,7.39-7.06,0-9.83-4.66-9.83-10.88s3.23-11.22,10-11.22,8.95,3.99,8.95,10.21v1.85Zm-3.11-2.98c0-4.45-1.72-6.55-5.92-6.55s-6.55,2.65-6.89,6.97h12.81v-.42Z"></path><path class="cls-8" d="m1444.01,2773.73h2.6l.29,3.91c1.01-2.14,3.07-4.45,6.76-4.45,1.26,0,2.18.21,3.02.55v3.15c-1.13-.5-2.1-.76-3.4-.76-3.74,0-6.34,2.81-6.34,5.75v12.85h-2.94v-21Z"></path><path class="cls-8" d="m1459.21,2788.3v-1.18h2.94v1.13c0,2.86,2.14,4.5,5.96,4.5s5.8-1.01,5.8-3.78c0-2.06-1.01-2.81-3.87-3.32l-4.62-.84c-3.02-.55-5.54-2.02-5.54-5.5,0-3.15,2.35-6.13,8.4-6.13s8.4,3.02,8.4,7.22v.88h-2.98v-.76c0-3.44-2.14-4.91-5.42-4.91-3.95,0-5.34,1.34-5.34,3.36s1.01,2.86,3.91,3.4l4.03.76c4.12.76,6.09,1.93,6.09,5.59,0,4.58-4.12,6.55-8.78,6.55-7.31,0-8.99-3.28-8.99-6.97Z"></path><g class="cls-6"><path class="cls-10" d="m1541.43,1481.91c-7.66,6.7-14.85,18.2-21.07,34-4.31,10.06-8.62,22.03-13.41,34.96v-65.61c0-7.66-3.83-11.49-11.49-11.49s-11.49,3.83-11.49,11.49v159.96c0,7.66,3.83,11.49,11.49,11.49,6.7,0,11.01-3.83,12.45-11.97,4.31-24.42,7.66-40.71,9.1-48.85,1.92-11.01,4.31-21.55,6.7-31.61,13.89-44.54,26.34-66.57,36.4-66.09,1.44,1.44,3.35,2.87,4.79,5.27,11.01,14.37,22.51,21.55,35.44,21.55,21.55-1.44,33.04-8.62,34.48-20.59,0-6.23-2.87-9.58-9.1-9.58-3.35.48-6.23,1.44-9.58,3.83-3.35,2.39-8.62,3.35-15.8,3.35s-13.89-4.79-20.11-14.37c-5.75-9.58-11.49-14.37-16.76-14.37-3.35,0-6.23.48-9.58,1.44-2.39.48-4.79,1.44-7.18,2.87-1.92,1.44-3.83,2.87-5.27,4.31Z"></path></g><path class="cls-8" d="m143.56,2788.38v-2.02h3.02v2.18c0,3.74,2.6,6.05,7.94,6.05s8.44-1.97,8.44-6.22c0-3.32-1.39-5.17-4.92-6.09l-6.64-1.72c-4.33-1.13-7.18-2.98-7.18-8.15s3.78-8.91,10.92-8.91,10.59,3.45,10.59,9.07v2.94h-3.02v-2.81c0-4.62-3.07-6.51-7.56-6.51-5.12,0-7.81,2.14-7.81,6.01,0,3.61,1.76,4.7,5.55,5.71l5.75,1.55c5.12,1.39,7.43,3.74,7.43,8.65,0,6.09-4.33,9.24-11.47,9.24-9.12,0-11.05-4.71-11.05-8.99Z"></path><path class="cls-8" d="m188.46,2793.34h-.08c-1.09,2.14-3.65,4.03-7.48,4.03-6.3,0-9.75-3.99-9.75-11.01s4.37-11.09,9.96-11.09c3.78,0,6.6,1.76,7.65,4.28h.04l.29-3.74h2.31v29.41h-2.94v-11.89Zm.34-7.48c0-5.5-3.36-8.07-7.35-8.07-3.03,0-7.14,1.47-7.14,8.4s3.57,8.61,7.1,8.61c4.24,0,7.39-2.73,7.39-8.95Z"></path><path class="cls-8" d="m198.33,2789.43v-13.61h2.94v13.27c0,4.33,2.14,5.71,5.42,5.71,3.74,0,6.55-2.69,6.55-5.63v-13.36h2.94v21h-2.6l-.25-3.36h-.08c-.97,2.02-3.23,3.91-7.23,3.91-4.66,0-7.69-2.52-7.69-7.94Z"></path><path class="cls-8" d="m222.27,2791.03c0-3.95,2.23-6.09,7.86-6.09h6.34v-1.72c0-2.98-1.26-5.42-5.46-5.42-3.95,0-5.33,1.51-5.33,4.12v.88h-2.98v-.84c0-5,4.2-6.68,8.32-6.68,5.8,0,8.4,2.86,8.4,8.44v13.11h-2.06l-.55-2.98h-.08c-1.26,1.89-3.7,3.53-7.35,3.53-4.92,0-7.1-2.31-7.1-6.34Zm14.2-1.85v-1.76h-7.01c-2.65,0-4.03.92-4.03,3.61,0,2.35,1.26,3.86,4.5,3.86,4.16,0,6.55-2.14,6.55-5.71Z"></path><path class="cls-8" d="m246.76,2775.82h2.6l.29,3.91c1.01-2.14,3.07-4.45,6.76-4.45,1.26,0,2.18.21,3.02.55v3.15c-1.13-.5-2.1-.76-3.4-.76-3.74,0-6.34,2.81-6.34,5.75v12.85h-2.94v-21Z"></path><path class="cls-8" d="m280.7,2787.33h-15.96c.17,4.79,2.48,7.48,6.93,7.48,3.82,0,5.67-1.43,5.97-4.83h2.98c-.29,4.24-3.28,7.39-9.03,7.39-7.06,0-9.83-4.66-9.83-10.88s3.23-11.22,10-11.22,8.95,3.99,8.95,10.21v1.85Zm-3.11-2.98c0-4.45-1.72-6.55-5.92-6.55s-6.55,2.65-6.89,6.97h12.81v-.42Z"></path><path class="cls-8" d="m294.55,2786.49c0-6.38,3.23-11.22,10-11.22s8.95,3.91,8.95,8.95v.42h-3.11v-.63c0-3.82-1.64-6.09-5.84-6.09-4.75,0-7.01,3.11-7.01,8.4,0,5.63,2.39,8.49,6.93,8.49,3.82,0,5.84-1.85,5.92-5.67h3.02c-.08,4.66-3.15,8.23-9.03,8.23-7.22,0-9.83-4.75-9.83-10.88Z"></path><path class="cls-8" d="m317.7,2786.32c0-6.22,3.32-11.05,10.38-11.05,6.59,0,10.25,4.83,10.25,11.05s-3.7,11.05-10.29,11.05c-7.27,0-10.33-4.83-10.33-11.05Zm17.56,0c0-5.33-2.9-8.49-7.22-8.49-4.75,0-7.27,3.15-7.27,8.49s2.56,8.49,7.27,8.49c4.33,0,7.22-3.15,7.22-8.49Z"></path><path class="cls-8" d="m344.2,2775.82h2.6l.29,3.49c1.01-2.14,3.28-4.03,7.35-4.03,4.75,0,7.77,2.52,7.77,7.94v13.61h-2.94v-13.27c0-4.33-2.14-5.71-5.5-5.71-3.82,0-6.64,2.69-6.64,5.63v13.36h-2.94v-21Z"></path><path class="cls-8" d="m367.68,2790.4v-1.18h2.94v1.13c0,2.86,2.14,4.5,5.96,4.5s5.8-1.01,5.8-3.78c0-2.06-1.01-2.81-3.86-3.32l-4.62-.84c-3.02-.55-5.54-2.02-5.54-5.5,0-3.15,2.35-6.13,8.4-6.13s8.4,3.02,8.4,7.22v.88h-2.98v-.76c0-3.44-2.14-4.91-5.42-4.91-3.95,0-5.33,1.34-5.33,3.36s1.01,2.86,3.91,3.4l4.03.76c4.12.76,6.09,1.93,6.09,5.59,0,4.58-4.12,6.55-8.78,6.55-7.31,0-8.99-3.28-8.99-6.97Z"></path><path class="cls-8" d="m402.29,2794.14v2.6c-.76.21-2.14.59-4.03.59-3.82,0-6.34-1.6-6.34-6.89v-12.18h-4.16v-2.44h4.16v-6.05l2.94-1.43v7.48h5.92v2.44h-5.92v11.8c0,2.81.76,4.58,3.4,4.58,1.6,0,3.23-.29,4.03-.5Z"></path><path class="cls-8" d="m407.11,2775.82h2.6l.29,3.91c1.01-2.14,3.07-4.45,6.76-4.45,1.26,0,2.18.21,3.02.55v3.15c-1.13-.5-2.1-.76-3.4-.76-3.74,0-6.34,2.81-6.34,5.75v12.85h-2.94v-21Z"></path><path class="cls-8" d="m424,2789.43v-13.61h2.94v13.27c0,4.33,2.14,5.71,5.42,5.71,3.74,0,6.55-2.69,6.55-5.63v-13.36h2.94v21h-2.6l-.25-3.36h-.08c-.97,2.02-3.23,3.91-7.23,3.91-4.66,0-7.69-2.52-7.69-7.94Z"></path><path class="cls-8" d="m447.52,2786.49c0-6.38,3.23-11.22,10-11.22s8.95,3.91,8.95,8.95v.42h-3.11v-.63c0-3.82-1.64-6.09-5.84-6.09-4.75,0-7.02,3.11-7.02,8.4,0,5.63,2.39,8.49,6.93,8.49,3.82,0,5.84-1.85,5.92-5.67h3.02c-.08,4.66-3.15,8.23-9.03,8.23-7.22,0-9.83-4.75-9.83-10.88Z"></path><path class="cls-8" d="m483.3,2794.14v2.6c-.76.21-2.14.59-4.03.59-3.82,0-6.34-1.6-6.34-6.89v-12.18h-4.16v-2.44h4.16v-6.05l2.94-1.43v7.48h5.92v2.44h-5.92v11.8c0,2.81.76,4.58,3.4,4.58,1.6,0,3.23-.29,4.03-.5Z"></path><path class="cls-8" d="m488.13,2764.06h2.98v6.51h-2.98v-6.51Zm0,11.76h2.94v21h-2.94v-21Z"></path><path class="cls-8" d="m496.78,2786.32c0-6.22,3.32-11.05,10.38-11.05,6.59,0,10.25,4.83,10.25,11.05s-3.7,11.05-10.29,11.05c-7.27,0-10.33-4.83-10.33-11.05Zm17.56,0c0-5.33-2.9-8.49-7.22-8.49-4.75,0-7.27,3.15-7.27,8.49s2.56,8.49,7.27,8.49c4.33,0,7.22-3.15,7.22-8.49Z"></path><path class="cls-8" d="m523.29,2775.82h2.6l.29,3.49c1.01-2.14,3.28-4.03,7.35-4.03,4.75,0,7.77,2.52,7.77,7.94v13.61h-2.94v-13.27c0-4.33-2.14-5.71-5.5-5.71-3.82,0-6.64,2.69-6.64,5.63v13.36h-2.94v-21Z"></path><path class="cls-8" d="m556.63,2786.32c0-6.22,3.32-11.05,10.38-11.05,6.59,0,10.25,4.83,10.25,11.05s-3.7,11.05-10.29,11.05c-7.27,0-10.33-4.83-10.33-11.05Zm17.56,0c0-5.33-2.9-8.49-7.22-8.49-4.75,0-7.27,3.15-7.27,8.49s2.56,8.49,7.27,8.49c4.33,0,7.22-3.15,7.22-8.49Z"></path><path class="cls-8" d="m587.3,2770.78v5.04h5.92v2.44h-5.92v18.57h-2.94v-18.57h-4.16v-2.44h4.16v-5.42c0-5.29,3.15-6.89,6.38-6.89,1.85,0,2.98.29,3.74.55v2.6c-.71-.21-1.89-.46-3.49-.46-2.65,0-3.7,1.76-3.7,4.58Z"></path><path class="cls-8" d="m609.18,2774.52h-3.36v-5.08c0-3.95.88-5.29,3.4-5.97l.67,1.85c-1.76.67-2.06,1.09-2.06,3.78v.34h1.34v5.08Zm5.92,0h-3.36v-5.08c0-3.95.88-5.29,3.4-5.97l.67,1.85c-1.76.67-2.06,1.09-2.06,3.78v.34h1.34v5.08Z"></path><path class="cls-8" d="m634.76,2789.68h-17.69v-2.23l16.72-23.36h3.95v22.85h4.96v2.73h-5v7.14h-2.94v-7.14Zm-13.99-2.73h14.03v-19.7l-14.03,19.7Z"></path><path class="cls-8" d="m644.58,2773.26c1.76-.67,2.06-1.09,2.06-3.78v-.34h-1.34v-5.08h3.36v5.08c0,3.95-.88,5.29-3.4,5.97l-.67-1.85Zm5.92,0c1.76-.67,2.06-1.09,2.06-3.78v-.34h-1.34v-5.08h3.36v5.08c0,3.95-.88,5.29-3.4,5.97l-.67-1.85Z"></path><path class="cls-8" d="m510.6,1946.03v-2.02h3.02v2.18c0,3.74,2.61,6.05,7.94,6.05s8.44-1.97,8.44-6.22c0-3.32-1.38-5.17-4.91-6.09l-6.64-1.72c-4.33-1.13-7.18-2.98-7.18-8.15s3.78-8.91,10.92-8.91,10.59,3.45,10.59,9.07v2.94h-3.03v-2.81c0-4.62-3.07-6.51-7.56-6.51-5.12,0-7.81,2.14-7.81,6.01,0,3.61,1.76,4.7,5.54,5.71l5.75,1.55c5.12,1.39,7.44,3.74,7.44,8.65,0,6.09-4.33,9.24-11.47,9.24-9.12,0-11.05-4.71-11.05-8.99Z"></path><path class="cls-8" d="m571,1940.86v13.61h-2.94v-13.27c0-4.33-2.14-5.71-4.75-5.71-3.82,0-6.17,2.69-6.17,5.63v13.36h-2.94v-13.27c0-4.33-1.85-5.71-4.83-5.71-3.61,0-6.13,2.69-6.13,5.63v13.36h-2.94v-21h2.6l.29,3.49c1.01-2.02,3.07-4.03,6.93-4.03,2.94,0,5.38,1.39,6.43,4.28,1.22-2.39,3.57-4.28,7.14-4.28,4.29,0,7.31,2.52,7.31,7.94Z"></path><path class="cls-8" d="m577.08,1948.67c0-3.95,2.23-6.09,7.86-6.09h6.34v-1.72c0-2.98-1.26-5.42-5.46-5.42-3.95,0-5.33,1.51-5.33,4.12v.88h-2.98v-.84c0-5,4.2-6.68,8.32-6.68,5.8,0,8.4,2.86,8.4,8.44v13.11h-2.06l-.55-2.98h-.08c-1.26,1.89-3.7,3.53-7.35,3.53-4.92,0-7.1-2.31-7.1-6.34Zm14.2-1.85v-1.76h-7.01c-2.65,0-4.03.92-4.03,3.61,0,2.35,1.26,3.86,4.49,3.86,4.16,0,6.55-2.14,6.55-5.71Z"></path><path class="cls-8" d="m601.57,1921.71h2.94v32.77h-2.94v-32.77Z"></path><path class="cls-8" d="m611.86,1921.71h2.94v32.77h-2.94v-32.77Z"></path><path class="cls-8" d="m649.07,1944.98h-15.96c.17,4.79,2.48,7.48,6.93,7.48,3.82,0,5.67-1.43,5.96-4.83h2.98c-.29,4.24-3.28,7.39-9.03,7.39-7.06,0-9.83-4.66-9.83-10.88s3.23-11.22,10-11.22,8.95,3.99,8.95,10.21v1.85Zm-3.11-2.98c0-4.45-1.72-6.55-5.92-6.55s-6.55,2.65-6.89,6.97h12.81v-.42Z"></path><path class="cls-8" d="m670.33,1933.51l-8.07,10.5,8.02,10.42v.04h-3.44l-6.34-8.44-6.43,8.44h-3.28v-.04l8.02-10.38-8.07-10.54v-.04h3.45l6.38,8.49,6.43-8.44v-.04h3.32v.04Z"></path><path class="cls-8" d="m674.86,1921.71h2.98v6.51h-2.98v-6.51Zm0,11.76h2.94v21h-2.94v-21Z"></path><path class="cls-8" d="m696.15,1951.78v2.6c-.76.21-2.14.59-4.03.59-3.82,0-6.34-1.6-6.34-6.89v-12.18h-4.16v-2.44h4.16v-6.05l2.94-1.43v7.48h5.92v2.44h-5.92v11.8c0,2.81.76,4.58,3.4,4.58,1.6,0,3.23-.29,4.03-.5Z"></path><path class="cls-8" d="m708.75,1948.04v-1.18h2.94v1.13c0,2.86,2.14,4.5,5.96,4.5s5.8-1.01,5.8-3.78c0-2.06-1.01-2.81-3.86-3.32l-4.62-.84c-3.03-.55-5.54-2.02-5.54-5.5,0-3.15,2.35-6.13,8.4-6.13s8.4,3.02,8.4,7.22v.88h-2.98v-.76c0-3.44-2.14-4.91-5.42-4.91-3.95,0-5.33,1.34-5.33,3.36s1.01,2.86,3.91,3.4l4.03.76c4.12.76,6.09,1.93,6.09,5.59,0,4.58-4.12,6.55-8.78,6.55-7.31,0-8.99-3.28-8.99-6.97Z"></path><path class="cls-8" d="m743.36,1951.78v2.6c-.76.21-2.14.59-4.03.59-3.82,0-6.34-1.6-6.34-6.89v-12.18h-4.16v-2.44h4.16v-6.05l2.94-1.43v7.48h5.92v2.44h-5.92v11.8c0,2.81.76,4.58,3.4,4.58,1.6,0,3.23-.29,4.03-.5Z"></path><path class="cls-8" d="m748.19,1933.47h2.6l.29,3.91c1.01-2.14,3.07-4.45,6.76-4.45,1.26,0,2.18.21,3.02.55v3.15c-1.13-.5-2.1-.76-3.4-.76-3.74,0-6.34,2.81-6.34,5.75v12.85h-2.94v-21Z"></path><path class="cls-8" d="m763.19,1943.97c0-6.22,3.32-11.05,10.38-11.05,6.6,0,10.25,4.83,10.25,11.05s-3.7,11.05-10.29,11.05c-7.27,0-10.33-4.83-10.33-11.05Zm17.56,0c0-5.33-2.9-8.49-7.22-8.49-4.75,0-7.27,3.15-7.27,8.49s2.56,8.49,7.27,8.49c4.33,0,7.22-3.15,7.22-8.49Z"></path><path class="cls-8" d="m789.06,1921.71h2.94v23.23l12.14-11.47h3.65v.04l-8.4,7.86,8.78,13.06v.04h-3.36l-7.39-11.22-5.42,5.04v6.18h-2.94v-32.77Z"></path><path class="cls-8" d="m829.42,1944.98h-15.96c.17,4.79,2.48,7.48,6.93,7.48,3.82,0,5.67-1.43,5.96-4.83h2.98c-.29,4.24-3.28,7.39-9.03,7.39-7.06,0-9.83-4.66-9.83-10.88s3.23-11.22,10-11.22,8.95,3.99,8.95,10.21v1.85Zm-3.11-2.98c0-4.45-1.72-6.55-5.92-6.55s-6.55,2.65-6.89,6.97h12.81v-.42Z"></path><path class="cls-8" d="m844.96,1921.71h2.98v6.51h-2.98v-6.51Zm0,11.76h2.94v21h-2.94v-21Z"></path><path class="cls-8" d="m855.29,1933.47h2.61l.29,3.49c1.01-2.14,3.28-4.03,7.35-4.03,4.75,0,7.77,2.52,7.77,7.94v13.61h-2.94v-13.27c0-4.33-2.14-5.71-5.5-5.71-3.82,0-6.64,2.69-6.64,5.63v13.36h-2.94v-21Z"></path><path class="cls-8" d="m892,1932.17h-3.36v-5.08c0-3.95.88-5.29,3.4-5.97l.67,1.85c-1.76.67-2.06,1.09-2.06,3.78v.34h1.34v5.08Zm5.92,0h-3.36v-5.08c0-3.95.88-5.29,3.4-5.97l.67,1.85c-1.76.67-2.06,1.09-2.06,3.78v.34h1.34v5.08Z"></path><path class="cls-8" d="m918.25,1950.98h-.08c-1.09,2.14-3.65,4.03-7.48,4.03-6.3,0-9.75-3.99-9.75-11.01s4.37-11.09,9.96-11.09c3.78,0,6.6,1.76,7.65,4.28h.04l.29-3.74h2.31v29.41h-2.94v-11.89Zm.34-7.48c0-5.5-3.36-8.07-7.35-8.07-3.03,0-7.14,1.47-7.14,8.4s3.57,8.61,7.1,8.61c4.24,0,7.39-2.73,7.39-8.95Z"></path><path class="cls-8" d="m925.81,1930.91c1.76-.67,2.06-1.09,2.06-3.78v-.34h-1.34v-5.08h3.36v5.08c0,3.95-.88,5.29-3.4,5.97l-.67-1.85Zm5.92,0c1.76-.67,2.06-1.09,2.06-3.78v-.34h-1.35v-5.08h3.36v5.08c0,3.95-.88,5.29-3.4,5.97l-.67-1.85Z"></path><g class="cls-11"><path class="cls-10" d="m717.18,1761.6c0-2.87-1.44-5.75-3.83-8.14-2.87-2.39-5.75-3.35-8.62-3.35l-12.45,10.54c-8.14,6.7-14.85,10.06-20.11,10.06-9.1,0-14.85-4.79-17.24-14.85-1.44-4.79-1.92-13.41-1.92-25.86v-244.72c0-7.66-3.83-11.49-11.49-11.49s-11.49,4.31-11.49,12.45c-14.85-8.14-26.82-12.45-36.88-12.45-28.73,0-50.76,13.41-66.57,40.23-11.97,20.59-18.2,42.14-18.2,64.17v11.49l1.44,7.18c1.44,15.8,6.7,29.21,16.28,40.71,10.54,12.93,23.47,19.16,38.31,19.16,26.34,0,48.37-16.76,65.61-50.29v112.54c0,23.47,1.92,39.75,5.27,49.33,6.23,16.76,18.2,25.38,36.88,25.38,10.54,0,20.59-4.31,30.65-12.93,3.35-2.39,7.66-6.7,12.45-12.45,1.44-2.39,1.92-4.31,1.92-6.7Z"></path></g><path class="cls-8" d="m1182.82,3499.15h8.36c11.05,0,17.39,4.54,17.39,16.42s-6.26,16.34-17.18,16.34h-8.57v-32.77Zm8.65,30.12c9.41,0,14.03-3.74,14.03-13.78s-4.49-13.74-14.07-13.74h-5.67v27.51h5.71Z"></path><path class="cls-8" d="m1214.87,3499.15h2.98v6.51h-2.98v-6.51Zm0,11.76h2.94v21h-2.94v-21Z"></path><path class="cls-8" d="m1223.31,3525.49v-1.18h2.94v1.13c0,2.86,2.14,4.49,5.96,4.49s5.8-1.01,5.8-3.78c0-2.06-1.01-2.81-3.87-3.32l-4.62-.84c-3.02-.55-5.54-2.02-5.54-5.5,0-3.15,2.35-6.13,8.4-6.13s8.4,3.02,8.4,7.23v.88h-2.98v-.76c0-3.45-2.14-4.92-5.42-4.92-3.95,0-5.34,1.34-5.34,3.36s1.01,2.86,3.91,3.4l4.03.76c4.12.76,6.09,1.93,6.09,5.59,0,4.58-4.12,6.55-8.78,6.55-7.31,0-8.99-3.28-8.99-6.97Z"></path><path class="cls-8" d="m1245.28,3521.58c0-6.38,3.23-11.22,10-11.22s8.95,3.91,8.95,8.95v.42h-3.11v-.63c0-3.82-1.64-6.09-5.84-6.09-4.75,0-7.02,3.11-7.02,8.4,0,5.63,2.39,8.49,6.93,8.49,3.82,0,5.84-1.85,5.92-5.67h3.03c-.08,4.66-3.15,8.23-9.03,8.23-7.22,0-9.83-4.75-9.83-10.88Z"></path><path class="cls-8" d="m1268.42,3521.41c0-6.22,3.32-11.05,10.38-11.05,6.6,0,10.25,4.83,10.25,11.05s-3.7,11.05-10.29,11.05c-7.27,0-10.33-4.83-10.33-11.05Zm17.56,0c0-5.33-2.9-8.49-7.22-8.49-4.75,0-7.27,3.15-7.27,8.49s2.56,8.49,7.27,8.49c4.33,0,7.22-3.15,7.22-8.49Z"></path><path class="cls-8" d="m1294.92,3510.91h2.6l.29,3.49c1.01-2.14,3.28-4.03,7.35-4.03,4.75,0,7.77,2.52,7.77,7.94v13.61h-2.94v-13.27c0-4.33-2.14-5.71-5.5-5.71-3.82,0-6.64,2.69-6.64,5.63v13.36h-2.94v-21Z"></path><path class="cls-8" d="m1320.29,3510.91h2.6l.29,3.49c1.01-2.14,3.28-4.03,7.35-4.03,4.75,0,7.77,2.52,7.77,7.94v13.61h-2.94v-13.27c0-4.33-2.14-5.71-5.5-5.71-3.82,0-6.64,2.69-6.64,5.63v13.36h-2.94v-21Z"></path><path class="cls-8" d="m1362.92,3522.42h-15.96c.17,4.79,2.48,7.48,6.93,7.48,3.82,0,5.67-1.43,5.96-4.83h2.98c-.29,4.24-3.28,7.39-9.03,7.39-7.06,0-9.83-4.66-9.83-10.88s3.23-11.22,10-11.22,8.95,3.99,8.95,10.21v1.85Zm-3.11-2.98c0-4.45-1.72-6.55-5.92-6.55s-6.55,2.65-6.89,6.97h12.81v-.42Z"></path><path class="cls-8" d="m1367.12,3521.58c0-6.38,3.23-11.22,10-11.22s8.95,3.91,8.95,8.95v.42h-3.11v-.63c0-3.82-1.64-6.09-5.84-6.09-4.75,0-7.02,3.11-7.02,8.4,0,5.63,2.39,8.49,6.93,8.49,3.82,0,5.84-1.85,5.92-5.67h3.02c-.08,4.66-3.15,8.23-9.03,8.23-7.22,0-9.83-4.75-9.83-10.88Z"></path><path class="cls-8" d="m1402.9,3529.23v2.6c-.76.21-2.14.59-4.03.59-3.82,0-6.34-1.6-6.34-6.89v-12.18h-4.16v-2.44h4.16v-6.05l2.94-1.43v7.48h5.92v2.44h-5.92v11.8c0,2.82.76,4.58,3.4,4.58,1.6,0,3.23-.29,4.03-.5Z"></path><path class="cls-8" d="m1424.37,3522.42h-15.96c.17,4.79,2.48,7.48,6.93,7.48,3.82,0,5.67-1.43,5.97-4.83h2.98c-.29,4.24-3.28,7.39-9.03,7.39-7.06,0-9.83-4.66-9.83-10.88s3.23-11.22,10-11.22,8.95,3.99,8.95,10.21v1.85Zm-3.11-2.98c0-4.45-1.72-6.55-5.92-6.55s-6.55,2.65-6.89,6.97h12.81v-.42Z"></path><path class="cls-8" d="m1428.56,3521.45c0-7.1,4.29-11.09,10.04-11.09,3.7,0,6.22,1.6,7.31,3.74h.04v-14.95h2.94v32.77h-1.97l-.67-3.61h-.08c-1.18,2.31-3.95,4.16-7.77,4.16-6.3,0-9.83-3.99-9.83-11.01Zm17.64-.5c0-5.5-3.36-8.07-7.35-8.07-3.11,0-7.14,1.47-7.14,8.4s3.61,8.61,7.14,8.61c4.24,0,7.35-2.73,7.35-8.95Z"></path><path class="cls-8" d="m1467.58,3509.61h-3.36v-5.08c0-3.95.88-5.29,3.4-5.96l.67,1.85c-1.76.67-2.06,1.09-2.06,3.78v.34h1.34v5.08Zm5.92,0h-3.36v-5.08c0-3.95.88-5.29,3.4-5.96l.67,1.85c-1.76.67-2.06,1.09-2.06,3.78v.34h1.34v5.08Z"></path><path class="cls-8" d="m1477.58,3529.35l14.7-15.88h-14.58v-2.56h18.23v2.56l-14.7,15.84h14.66v2.6h-18.31v-2.56Z"></path><path class="cls-8" d="m1499.29,3508.35c1.76-.67,2.06-1.09,2.06-3.78v-.34h-1.34v-5.08h3.36v5.08c0,3.95-.88,5.29-3.4,5.96l-.67-1.85Zm5.92,0c1.76-.67,2.06-1.09,2.06-3.78v-.34h-1.35v-5.08h3.36v5.08c0,3.95-.88,5.29-3.4,5.96l-.67-1.85Z"></path><path class="cls-9" d="m1344.69,3122.71c0-6.25-4.33-9.62-12.98-9.62h-107.7c-7.69,0-11.54,3.85-11.54,11.54,0,8.17,3.85,12.02,11.54,12.02h86.07l-95.68,141.84c-2.4,3.37-3.37,6.25-3.37,9.14,0,6.25,4.33,9.14,12.98,9.14h107.7c7.69,0,11.54-3.85,11.54-11.54s-3.85-11.54-11.54-11.54h-86.07l95.68-142.32c1.92-3.37,3.37-6.25,3.37-8.65Z"></path><path class="cls-8" d="m790.46,2032.46h-3.36v-5.08c0-3.95.88-5.29,3.4-5.96l.67,1.85c-1.76.67-2.06,1.09-2.06,3.78v.34h1.34v5.08Zm5.92,0h-3.36v-5.08c0-3.95.88-5.29,3.4-5.96l.67,1.85c-1.76.67-2.06,1.09-2.06,3.78v.34h1.34v5.08Z"></path><path class="cls-8" d="m806.51,2028.72v5.04h5.92v2.44h-5.92v18.57h-2.94v-18.57h-4.16v-2.44h4.16v-5.42c0-5.29,3.15-6.89,6.38-6.89,1.85,0,2.98.29,3.74.55v2.6c-.71-.21-1.89-.46-3.49-.46-2.65,0-3.7,1.76-3.7,4.58Z"></path><path class="cls-8" d="m817.05,2031.19c1.76-.67,2.06-1.09,2.06-3.78v-.34h-1.34v-5.08h3.36v5.08c0,3.95-.88,5.29-3.4,5.96l-.67-1.85Zm5.92,0c1.76-.67,2.06-1.09,2.06-3.78v-.34h-1.34v-5.08h3.36v5.08c0,3.95-.88,5.29-3.4,5.96l-.67-1.85Z"></path><path class="cls-8" d="m840.91,2044.43c0-6.38,3.23-11.22,10-11.22s8.95,3.91,8.95,8.95v.42h-3.11v-.63c0-3.82-1.64-6.09-5.84-6.09-4.75,0-7.01,3.11-7.01,8.4,0,5.63,2.39,8.49,6.93,8.49,3.82,0,5.84-1.85,5.92-5.67h3.02c-.08,4.66-3.15,8.23-9.03,8.23-7.22,0-9.83-4.75-9.83-10.88Z"></path><path class="cls-8" d="m864.05,2044.26c0-6.22,3.32-11.05,10.38-11.05,6.59,0,10.25,4.83,10.25,11.05s-3.7,11.05-10.29,11.05c-7.27,0-10.33-4.83-10.33-11.05Zm17.56,0c0-5.33-2.9-8.49-7.22-8.49-4.75,0-7.27,3.15-7.27,8.49s2.56,8.49,7.27,8.49c4.33,0,7.22-3.15,7.22-8.49Z"></path><path class="cls-8" d="m890.55,2033.76h2.6l.29,3.49c1.01-2.14,3.28-4.03,7.35-4.03,4.75,0,7.77,2.52,7.77,7.94v13.61h-2.94v-13.27c0-4.33-2.14-5.71-5.5-5.71-3.82,0-6.64,2.69-6.64,5.63v13.36h-2.94v-21Z"></path><path class="cls-8" d="m915.92,2033.76h2.6l.29,3.49c1.01-2.14,3.28-4.03,7.35-4.03,4.75,0,7.77,2.52,7.77,7.94v13.61h-2.94v-13.27c0-4.33-2.14-5.71-5.5-5.71-3.82,0-6.64,2.69-6.64,5.63v13.36h-2.94v-21Z"></path><path class="cls-8" d="m958.55,2045.27h-15.96c.17,4.79,2.48,7.48,6.93,7.48,3.82,0,5.67-1.43,5.97-4.83h2.98c-.29,4.24-3.28,7.39-9.03,7.39-7.06,0-9.83-4.66-9.83-10.88s3.23-11.22,10-11.22,8.95,3.99,8.95,10.21v1.85Zm-3.11-2.98c0-4.45-1.72-6.55-5.92-6.55s-6.55,2.65-6.89,6.97h12.81v-.42Z"></path><path class="cls-8" d="m962.75,2044.43c0-6.38,3.23-11.22,10-11.22s8.95,3.91,8.95,8.95v.42h-3.11v-.63c0-3.82-1.64-6.09-5.84-6.09-4.75,0-7.01,3.11-7.01,8.4,0,5.63,2.39,8.49,6.93,8.49,3.82,0,5.84-1.85,5.92-5.67h3.02c-.08,4.66-3.15,8.23-9.03,8.23-7.22,0-9.83-4.75-9.83-10.88Z"></path><path class="cls-8" d="m998.53,2052.07v2.6c-.76.21-2.14.59-4.03.59-3.82,0-6.34-1.6-6.34-6.89v-12.18h-4.16v-2.44h4.16v-6.05l2.94-1.43v7.48h5.92v2.44h-5.92v11.8c0,2.82.76,4.58,3.4,4.58,1.6,0,3.23-.29,4.03-.5Z"></path><path class="cls-8" d="m1001.47,2048.33v-1.18h2.94v1.13c0,2.86,2.14,4.49,5.96,4.49s5.8-1.01,5.8-3.78c0-2.06-1.01-2.81-3.86-3.32l-4.62-.84c-3.02-.55-5.54-2.02-5.54-5.5,0-3.15,2.35-6.13,8.4-6.13s8.4,3.02,8.4,7.23v.88h-2.98v-.76c0-3.45-2.14-4.92-5.42-4.92-3.95,0-5.33,1.34-5.33,3.36s1.01,2.86,3.91,3.4l4.03.76c4.12.76,6.09,1.93,6.09,5.59,0,4.58-4.12,6.55-8.78,6.55-7.31,0-8.99-3.28-8.99-6.97Z"></path><path class="cls-8" d="m1032.05,2033.8v-.04h2.98l5.76,17.48h.08l6.3-17.48h2.69l6.17,17.48h.08l5.75-17.48h2.86v.04l-7.18,20.96h-3.02l-5.96-17.05h-.08l-6.22,17.05h-3.02l-7.18-20.96Z"></path><path class="cls-8" d="m1069.55,2022h2.98v6.51h-2.98v-6.51Zm0,11.76h2.94v21h-2.94v-21Z"></path><path class="cls-8" d="m1090.85,2052.07v2.6c-.76.21-2.14.59-4.03.59-3.82,0-6.34-1.6-6.34-6.89v-12.18h-4.16v-2.44h4.16v-6.05l2.94-1.43v7.48h5.92v2.44h-5.92v11.8c0,2.82.76,4.58,3.4,4.58,1.6,0,3.23-.29,4.03-.5Z"></path><path class="cls-8" d="m1095.68,2022h2.94v15.16c1.05-2.1,3.28-3.95,7.31-3.95,4.75,0,7.77,2.52,7.77,7.94v13.61h-2.94v-13.27c0-4.33-2.14-5.71-5.5-5.71-3.82,0-6.64,2.69-6.64,5.63v13.36h-2.94v-32.77Z"></path><path class="cls-8" d="m1129.03,2044.43c0-6.38,3.23-11.22,10-11.22s8.95,3.91,8.95,8.95v.42h-3.11v-.63c0-3.82-1.64-6.09-5.84-6.09-4.75,0-7.02,3.11-7.02,8.4,0,5.63,2.39,8.49,6.93,8.49,3.82,0,5.84-1.85,5.92-5.67h3.02c-.08,4.66-3.15,8.23-9.03,8.23-7.22,0-9.83-4.75-9.83-10.88Z"></path><path class="cls-8" d="m1153.85,2033.76h2.6l.29,3.91c1.01-2.14,3.07-4.45,6.76-4.45,1.26,0,2.18.21,3.02.55v3.15c-1.13-.5-2.1-.76-3.4-.76-3.74,0-6.34,2.81-6.34,5.75v12.85h-2.94v-21Z"></path><path class="cls-8" d="m1168.84,2044.26c0-6.22,3.32-11.05,10.38-11.05,6.59,0,10.25,4.83,10.25,11.05s-3.7,11.05-10.29,11.05c-7.27,0-10.33-4.83-10.33-11.05Zm17.56,0c0-5.33-2.9-8.49-7.22-8.49-4.75,0-7.27,3.15-7.27,8.49s2.56,8.49,7.27,8.49c4.33,0,7.22-3.15,7.22-8.49Z"></path><path class="cls-8" d="m1193.45,2048.33v-1.18h2.94v1.13c0,2.86,2.14,4.49,5.96,4.49s5.8-1.01,5.8-3.78c0-2.06-1.01-2.81-3.86-3.32l-4.62-.84c-3.02-.55-5.54-2.02-5.54-5.5,0-3.15,2.35-6.13,8.4-6.13s8.4,3.02,8.4,7.23v.88h-2.98v-.76c0-3.45-2.14-4.92-5.42-4.92-3.95,0-5.33,1.34-5.33,3.36s1.01,2.86,3.91,3.4l4.03.76c4.12.76,6.09,1.93,6.09,5.59,0,4.58-4.12,6.55-8.78,6.55-7.31,0-8.99-3.28-8.99-6.97Z"></path><path class="cls-8" d="m1215.21,2048.33v-1.18h2.94v1.13c0,2.86,2.14,4.49,5.96,4.49s5.8-1.01,5.8-3.78c0-2.06-1.01-2.81-3.86-3.32l-4.62-.84c-3.02-.55-5.54-2.02-5.54-5.5,0-3.15,2.35-6.13,8.4-6.13s8.4,3.02,8.4,7.23v.88h-2.98v-.76c0-3.45-2.14-4.92-5.42-4.92-3.95,0-5.33,1.34-5.33,3.36s1.01,2.86,3.91,3.4l4.03.76c4.12.76,6.09,1.93,6.09,5.59,0,4.58-4.12,6.55-8.78,6.55-7.31,0-8.99-3.28-8.99-6.97Z"></path><path class="cls-8" d="m1241.67,2051.27h-.08l-.76,3.49h-1.97v-32.77h2.94v15.25h.04c1.26-2.31,4.07-4.03,7.69-4.03,6.3,0,9.66,3.99,9.66,11.01s-4.29,11.09-9.87,11.09c-3.78,0-6.55-1.64-7.65-4.03Zm14.37-6.89c0-7.18-3.4-8.61-6.93-8.61-4.24,0-7.56,2.73-7.56,8.44,0,6.01,3.45,8.57,7.44,8.57,3.02,0,7.06-1.47,7.06-8.4Z"></path><path class="cls-8" d="m1263.59,2048.96c0-3.95,2.23-6.09,7.86-6.09h6.34v-1.72c0-2.98-1.26-5.42-5.46-5.42-3.95,0-5.33,1.51-5.33,4.12v.88h-2.98v-.84c0-5,4.2-6.68,8.32-6.68,5.8,0,8.4,2.86,8.4,8.44v13.11h-2.06l-.55-2.98h-.08c-1.26,1.89-3.7,3.53-7.35,3.53-4.92,0-7.1-2.31-7.1-6.34Zm14.2-1.85v-1.76h-7.01c-2.65,0-4.03.92-4.03,3.61,0,2.35,1.26,3.86,4.5,3.86,4.16,0,6.55-2.14,6.55-5.71Z"></path><path class="cls-8" d="m1288.08,2033.76h2.6l.29,3.91c1.01-2.14,3.07-4.45,6.76-4.45,1.26,0,2.18.21,3.02.55v3.15c-1.13-.5-2.1-.76-3.4-.76-3.74,0-6.34,2.81-6.34,5.75v12.85h-2.94v-21Z"></path><g class="cls-14"><path class="cls-10" d="m1536.86,2418.4c0-13.83-5.25-26.24-15.26-36.25-10.49-10.02-22.9-15.26-36.73-15.26-7.63,0-14.31-2.39-19.56-7.16s-8.11-10.97-8.11-18.13c0-8.11,2.86-14.31,8.11-19.56,5.25-5.25,11.45-7.63,19.56-7.63,5.25,0,9.54.95,13.83,3.34.95.48,4.29,3.34,10.02,8.11,3.82,3.34,7.16,4.77,10.02,4.77,7.63,0,11.45-3.82,11.45-11.45,0-2.86-.95-5.25-2.86-7.63-10.97-13.83-25.28-20.51-42.45-20.51-13.83,0-25.76,4.77-35.78,14.79-10.02,10.02-14.79,21.94-14.79,35.78s4.77,25.76,14.79,34.82c9.54,9.06,21.47,13.36,35.78,13.36,7.63,0,14.31,2.86,20.03,8.59,5.72,5.72,8.59,12.4,8.59,20.03,0,10.02-2.86,17.65-9.06,23.37-6.2,5.72-14.31,8.59-24.33,8.59-6.2,0-12.4-1.91-18.6-5.25-2.86-1.43-6.68-5.25-11.93-10.49-4.29-4.29-7.63-6.68-10.97-6.68-8.11,0-11.93,3.82-11.93,10.97,0,9.06,6.68,17.17,20.51,24.33,11.93,6.68,22.9,10.02,32.91,10.02,16.7,0,30.05-5.25,41.02-15.26,10.49-10.02,15.74-22.9,15.74-39.59Zm-154.42-88.73v16.22c-1.43,11.45-3.34,21.47-5.72,30.05-7.16,23.37-18.13,43.41-32.44,60.1-8.59,9.54-18.13,14.31-27.67,14.31-11.45,0-20.03-6.68-25.76-20.51-4.29-10.02-6.2-21.47-6.2-35.3,0-20.03,4.77-37.68,15.26-53.43,11.45-17.65,26.71-26.71,45.79-26.71,9.06,0,21.47,5.25,36.73,15.26Zm22.9,199.87v-227.06c0-7.63-3.82-11.45-11.45-11.45-8.11,0-11.93,4.29-11.93,12.4-14.79-8.11-26.71-12.4-36.25-12.4-28.62,0-51.04,13.36-66.78,40.07-11.93,20.03-17.65,41.5-17.65,63.92v11.45c0,3.34.48,5.72.95,7.16,1.91,16.22,7.63,29.58,16.22,40.55,10.02,12.88,22.9,19.08,38.16,19.08,23.37,0,45.32-17.17,65.83-51.52v107.81c0,16.22-5.72,29.58-16.7,40.55-10.97,10.97-24.33,16.7-40.55,16.7-7.63,0-15.26-1.43-23.85-4.29-10.02-3.34-16.7-7.16-20.51-11.93-2.39-2.86-5.25-4.29-8.59-4.29-8.11,0-11.93,3.82-11.93,11.45,0,2.86.95,5.25,2.86,7.63,6.2,7.63,15.74,13.83,28.62,18.13,11.45,4.29,22.42,6.2,33.39,6.2,22.42,0,41.5-7.63,56.77-23.37,15.74-15.26,23.37-34.35,23.37-56.77Zm-316.74-189.85c33.39.95,27.19-37.68,19.56-32.91-13.83,8.59-29.58,12.4-46.27,11.93-24.33-1.43-42.45-28.62-56.29-28.62-2.86,0-6.2.48-9.54,1.43-2.39.48-4.77,1.43-7.16,2.86-1.91.95-3.34,2.39-5.25,4.29-7.63,6.68-14.79,18.13-20.99,33.87-4.29,10.02-8.59,21.94-13.36,34.82v-65.35c0-7.63-3.82-11.45-11.45-11.45s-11.45,3.82-11.45,11.45v159.32c0,7.63,3.82,11.45,11.45,11.45,6.68,0,10.97-3.82,12.4-11.93,4.77-24.33,7.63-40.55,9.06-48.66,1.91-10.97,4.29-20.99,6.68-31.48,13.83-44.36,31.01-73.94,38.64-66.78,16.22,15.26,34.82,27.19,54.86,27.67,10.49.48,20.03,0,29.1-1.91Zm-247.1-14.79v-121.64c0-28.62,14.31-42.93,42.45-42.93,2.39,0,7.16.95,13.36,2.86,6.68,2.39,10.49,3.82,13.36,3.82,7.63,0,11.45-4.29,11.45-12.88,0-3.82-1.43-6.68-5.25-9.54-8.11-4.29-19.56-6.68-32.91-6.68-20.99,0-37.21,5.25-48.18,17.17-11.45,11.93-17.17,27.67-17.17,48.18v285.26c0,15.26-3.82,29.1-11.93,42.45-8.11,14.79-19.08,22.9-33.39,22.9-6.2,0-14.31-1.43-24.81-4.29-1.91-.95-6.2-3.82-13.83-8.59-7.16-5.25-10.02-7.63-11.45-7.63-8.11,0-11.93,3.82-11.93,11.93,0,2.39.95,5.25,2.86,7.16,13.36,16.7,33.87,24.81,59.15,24.81,20.03,0,37.21-10.02,50.56-31.01,11.93-17.65,17.65-37.21,17.65-57.72v-163.62Zm96.84-33.87l-46.75,12.88c-16.54,5.09-34.03,7.63-52.47,7.63-22.9,0-47.54-6.52-73.94-19.56-2.54-.64-4.13-.95-4.77-.95-7.95,0-12.4,4.13-13.36,12.4-.32,4.77,1.59,8.11,5.72,10.02,18.76,7.95,31.01,12.72,36.73,14.31,16.22,5.09,31.64,7.63,46.27,7.63,18.13,0,42.14-3.98,72.03-11.93l23.37-6.2c10.49-2.86,16.22-7.47,17.17-13.83.95-8.27-2.39-12.4-10.02-12.4Zm248.05,91.11c0,17.17-3.82,31.96-10.97,44.84-9.06,15.74-21.47,23.37-37.21,23.37-23.85,0-35.78-22.9-35.78-68.21,0-17.65,2.86-32.44,9.54-44.36,7.63-15.74,19.56-23.37,35.78-23.37,25.76,0,38.64,22.42,38.64,67.74Zm22.9,1.43c0-24.33-4.29-44.84-12.4-61.06-10.49-20.99-27.19-31.48-49.13-31.48s-39.59,10.02-52,29.58c-10.97,16.7-16.22,37.21-16.22,60.58,0,61.54,19.56,92.06,58.67,92.06,21.94,0,40.07-9.54,53.43-29.1,11.45-16.7,17.65-37.21,17.65-60.58Zm115.92-70.6l.48-8.59c-1.43-2.39-3.34-4.29-6.2-5.25-4.29-1.43-9.06-.48-14.31,3.34-1.91,1.43-4.29,2.86-7.16,5.25-16.22,9.54-34.82,13.83-55.81,13.36-13.83,0-28.14-3.34-42.45-10.02-4.77-2.39-11.93-5.72-20.99-10.97-2.39-1.43-4.77-2.39-7.16-1.91-7.63,0-11.45,3.82-11.45,11.45,0,3.34,1.43,5.72,3.34,8.11,27.67,16.7,52.95,25.76,75.85,26.71,36.25.95,63.44-7.63,81.09-25.76l4.77-5.72Z"></path></g><g class="cls-13"><path class="cls-10" d="m936.88,3285.22c0-7.69-3.85-11.54-11.54-11.54-6.25,0-9.14-8.17-9.14-24.04v-262.05c0-7.69-3.85-11.54-11.54-11.54s-11.54,3.85-11.54,11.54v267.82c0,27.41,10.58,41.35,32.21,41.35,2.88,0,5.77-1.44,8.17-3.85,2.4-2.4,3.37-4.81,3.37-7.69Z"></path></g><g class="cls-12"><path class="cls-10" d="m519.3,2396.36v66.97c0,7.6-3.64,11.4-10.93,11.4s-10.92-3.8-10.92-11.4v-66.97h-86.92c-7.92,0-11.88-3.48-11.88-10.45v-216.6c0-7.28,3.96-10.92,11.88-10.92,7.28,0,10.92,3.64,10.92,10.92v205.2h76v-61.75c0-7.28,3.64-10.93,10.92-10.93s10.93,3.64,10.93,10.93v61.75h84.07c7.28,0,10.92,3.8,10.92,11.4,0,6.97-3.64,10.45-10.92,10.45h-84.07Z"></path><path class="cls-10" d="m1536.86,2418.4c0-13.83-5.25-26.24-15.26-36.25-10.49-10.02-22.9-15.26-36.73-15.26-7.63,0-14.31-2.39-19.56-7.16s-8.11-10.97-8.11-18.13c0-8.11,2.86-14.31,8.11-19.56,5.25-5.25,11.45-7.63,19.56-7.63,5.25,0,9.54.95,13.83,3.34.95.48,4.29,3.34,10.02,8.11,3.82,3.34,7.16,4.77,10.02,4.77,7.63,0,11.45-3.82,11.45-11.45,0-2.86-.95-5.25-2.86-7.63-10.97-13.83-25.28-20.51-42.45-20.51-13.83,0-25.76,4.77-35.78,14.79-10.02,10.02-14.79,21.94-14.79,35.78s4.77,25.76,14.79,34.82c9.54,9.06,21.47,13.36,35.78,13.36,7.63,0,14.31,2.86,20.03,8.59,5.72,5.72,8.59,12.4,8.59,20.03,0,10.02-2.86,17.65-9.06,23.37-6.2,5.72-14.31,8.59-24.33,8.59-6.2,0-12.4-1.91-18.6-5.25-2.86-1.43-6.68-5.25-11.93-10.49-4.29-4.29-7.63-6.68-10.97-6.68-8.11,0-11.93,3.82-11.93,10.97,0,9.06,6.68,17.17,20.51,24.33,11.93,6.68,22.9,10.02,32.91,10.02,16.7,0,30.05-5.25,41.02-15.26,10.49-10.02,15.74-22.9,15.74-39.59Zm-154.42-88.73v16.22c-1.43,11.45-3.34,21.47-5.72,30.05-7.16,23.37-18.13,43.41-32.44,60.1-8.59,9.54-18.13,14.31-27.67,14.31-11.45,0-20.03-6.68-25.76-20.51-4.29-10.02-6.2-21.47-6.2-35.3,0-20.03,4.77-37.68,15.26-53.43,11.45-17.65,26.71-26.71,45.79-26.71,9.06,0,21.47,5.25,36.73,15.26Zm22.9,199.87v-227.06c0-7.63-3.82-11.45-11.45-11.45-8.11,0-11.93,4.29-11.93,12.4-14.79-8.11-26.71-12.4-36.25-12.4-28.62,0-51.04,13.36-66.78,40.07-11.93,20.03-17.65,41.5-17.65,63.92v11.45c0,3.34.48,5.72.95,7.16,1.91,16.22,7.63,29.58,16.22,40.55,10.02,12.88,22.9,19.08,38.16,19.08,23.37,0,45.32-17.17,65.83-51.52v107.81c0,16.22-5.72,29.58-16.7,40.55-10.97,10.97-24.33,16.7-40.55,16.7-7.63,0-15.26-1.43-23.85-4.29-10.02-3.34-16.7-7.16-20.51-11.93-2.39-2.86-5.25-4.29-8.59-4.29-8.11,0-11.93,3.82-11.93,11.45,0,2.86.95,5.25,2.86,7.63,6.2,7.63,15.74,13.83,28.62,18.13,11.45,4.29,22.42,6.2,33.39,6.2,22.42,0,41.5-7.63,56.77-23.37,15.74-15.26,23.37-34.35,23.37-56.77Zm-316.74-189.85c33.39.95,27.19-37.68,19.56-32.91-13.83,8.59-29.58,12.4-46.27,11.93-24.33-1.43-42.45-28.62-56.29-28.62-2.86,0-6.2.48-9.54,1.43-2.39.48-4.77,1.43-7.16,2.86-1.91.95-3.34,2.39-5.25,4.29-7.63,6.68-14.79,18.13-20.99,33.87-4.29,10.02-8.59,21.94-13.36,34.82v-65.35c0-7.63-3.82-11.45-11.45-11.45s-11.45,3.82-11.45,11.45v159.32c0,7.63,3.82,11.45,11.45,11.45,6.68,0,10.97-3.82,12.4-11.93,4.77-24.33,7.63-40.55,9.06-48.66,1.91-10.97,4.29-20.99,6.68-31.48,13.83-44.36,31.01-73.94,38.64-66.78,16.22,15.26,34.82,27.19,54.86,27.67,10.49.48,20.03,0,29.1-1.91Zm-247.1-14.79v-121.64c0-28.62,14.31-42.93,42.45-42.93,2.39,0,7.16.95,13.36,2.86,6.68,2.39,10.49,3.82,13.36,3.82,7.63,0,11.45-4.29,11.45-12.88,0-3.82-1.43-6.68-5.25-9.54-8.11-4.29-19.56-6.68-32.91-6.68-20.99,0-37.21,5.25-48.18,17.17-11.45,11.93-17.17,27.67-17.17,48.18v285.26c0,15.26-3.82,29.1-11.93,42.45-8.11,14.79-19.08,22.9-33.39,22.9-6.2,0-14.31-1.43-24.81-4.29-1.91-.95-6.2-3.82-13.83-8.59-7.16-5.25-10.02-7.63-11.45-7.63-8.11,0-11.93,3.82-11.93,11.93,0,2.39.95,5.25,2.86,7.16,13.36,16.7,33.87,24.81,59.15,24.81,20.03,0,37.21-10.02,50.56-31.01,11.93-17.65,17.65-37.21,17.65-57.72v-163.62Zm96.84-33.87l-46.75,12.88c-16.54,5.09-34.03,7.63-52.47,7.63-22.9,0-47.54-6.52-73.94-19.56-2.54-.64-4.13-.95-4.77-.95-7.95,0-12.4,4.13-13.36,12.4-.32,4.77,1.59,8.11,5.72,10.02,18.76,7.95,31.01,12.72,36.73,14.31,16.22,5.09,31.64,7.63,46.27,7.63,18.13,0,42.14-3.98,72.03-11.93l23.37-6.2c10.49-2.86,16.22-7.47,17.17-13.83.95-8.27-2.39-12.4-10.02-12.4Zm248.05,91.11c0,17.17-3.82,31.96-10.97,44.84-9.06,15.74-21.47,23.37-37.21,23.37-23.85,0-35.78-22.9-35.78-68.21,0-17.65,2.86-32.44,9.54-44.36,7.63-15.74,19.56-23.37,35.78-23.37,25.76,0,38.64,22.42,38.64,67.74Zm22.9,1.43c0-24.33-4.29-44.84-12.4-61.06-10.49-20.99-27.19-31.48-49.13-31.48s-39.59,10.02-52,29.58c-10.97,16.7-16.22,37.21-16.22,60.58,0,61.54,19.56,92.06,58.67,92.06,21.94,0,40.07-9.54,53.43-29.1,11.45-16.7,17.65-37.21,17.65-60.58Zm115.92-70.6l.48-8.59c-1.43-2.39-3.34-4.29-6.2-5.25-4.29-1.43-9.06-.48-14.31,3.34-1.91,1.43-4.29,2.86-7.16,5.25-16.22,9.54-34.82,13.83-55.81,13.36-13.83,0-28.14-3.34-42.45-10.02-4.77-2.39-11.93-5.72-20.99-10.97-2.39-1.43-4.77-2.39-7.16-1.91-7.63,0-11.45,3.82-11.45,11.45,0,3.34,1.43,5.72,3.34,8.11,27.67,16.7,52.95,25.76,75.85,26.71,36.25.95,63.44-7.63,81.09-25.76l4.77-5.72Z"></path></g></svg> 