<?xml version="1.0" encoding="UTF-8"?> <svg xmlns="http://www.w3.org/2000/svg" viewBox="0 0 1920 664.79"><defs><style>.cls-1{fill:#e2dcef;}.cls-2{fill:#29235c;}</style></defs><g id="background"><rect class="cls-1" width="1920" height="663.73"></rect></g><g id="Capa_2"><path class="cls-2" d="m255.79,221.72c3.85.07,7.19-.4,10.02-1.43,2.83-1.03,5.32-2.56,7.46-4.62,2.14-2.05,3.61-4.89,4.41-8.52.8-3.63,1.2-8.41,1.2-14.35,0-7.04-.78-14.97-2.34-23.8-1.56-8.83-3.9-18.75-7.02-29.74-1.38-4.84-2.07-10.04-2.07-15.61,0-10.04,2.39-20.96,7.18-32.77,1.09-2.79,2.65-4.18,4.68-4.18,1.52,0,2.74.46,3.65,1.37.91.92,1.36,1.96,1.36,3.13,0,.95-.29,2.13-.87,3.52-1.89,4.77-3.41,9.6-4.57,14.51-1.16,4.91-1.74,9.46-1.74,13.63,0,4.55.62,9.09,1.85,13.63,3.27,11.8,5.7,22.3,7.29,31.5,1.6,9.2,2.4,17.46,2.4,24.79s-.62,13.3-1.85,17.48c.14,3.3,1.23,6.03,3.27,8.19,2.03,2.16,4.53,3.24,7.51,3.24,3.41,0,6.57-.7,9.47-2.09,2.9-1.39,5.59-3.28,8.06-5.66,2.47-2.38,4.7-5.13,6.7-8.25,2-3.11,3.79-6.39,5.39-9.84,1.6-3.44,2.99-6.93,4.19-10.45,1.2-3.52,2.23-6.85,3.1-10.01.36-1.32,1.11-2.33,2.23-3.02,1.12-.7,2.38-.86,3.76-.49,1.31.37,2.3,1.14,2.99,2.31.69,1.17.85,2.42.49,3.74-1.02,3.67-2.23,7.53-3.65,11.6-1.42,4.07-3.09,8.1-5.01,12.09-1.92,4-4.14,7.79-6.64,11.38-2.5,3.59-5.3,6.76-8.38,9.51-3.09,2.75-6.52,4.95-10.29,6.6-3.77,1.65-7.88,2.47-12.3,2.47-3.48,0-6.7-.86-9.63-2.58-2.94-1.72-5.35-3.98-7.24-6.76-3.34,3.45-7.08,5.88-11.21,7.31-4.14,1.43-8.75,2.11-13.83,2.03-7.33-.15-13.74-2.31-19.21-6.49-5.48-4.18-10.02-9.86-13.61-17.04-3.59-7.18-6.28-15.58-8.06-25.18-1.78-9.6-2.67-19.9-2.67-30.9,0-6.89.69-13.63,2.07-20.23,1.38-6.6,3.43-12.83,6.15-18.69,2.72-5.86,6.08-11.29,10.07-16.27,3.99-4.98,8.6-9.27,13.83-12.86,5.23-3.59,11.03-6.39,17.42-8.41,6.39-2.02,13.32-3.02,20.79-3.02,4.79,0,9.34.6,13.66,1.81,4.32,1.21,8.25,2.91,11.81,5.11,3.55,2.2,6.71,4.86,9.47,7.97,2.76,3.12,4.97,6.58,6.64,10.39,1.23,2.79,2.14,5.59,2.72,8.41.58,2.82.87,5.59.87,8.3,0,1.1-.04,2.22-.11,3.35-.07,1.14-.26,2.36-.54,3.68-1.52,7.92-4.83,14.37-9.91,19.35-2.76,2.71-6.19,4.77-10.29,6.16-4.1,1.39-8.98,2.09-14.64,2.09-3.27,0-4.9-1.65-4.9-4.95s1.63-4.95,4.9-4.95c8.35,0,14.37-1.83,18.07-5.5,3.7-3.66,6.1-8.37,7.18-14.13,1.09-5.75.34-11.75-2.23-17.98-2.58-6.23-6.79-11.03-12.63-14.4-5.84-3.37-12.79-5.09-20.85-5.17-9.58.22-18.07,2.29-25.47,6.21-7.4,3.92-13.65,9.09-18.72,15.5-5.08,6.42-8.95,13.8-11.59,22.16-2.65,8.36-3.97,17.04-3.97,26.06,0,9.6.69,18.62,2.07,27.05,1.38,8.43,3.45,15.78,6.21,22.05,2.76,6.27,6.26,11.25,10.5,14.95,4.25,3.7,9.23,5.59,14.97,5.66Z"></path><path class="cls-2" d="m328.07,154.65c-1.52-.95-2.29-2.35-2.29-4.18,0-1.39.47-2.56,1.42-3.52.94-.95,2.11-1.43,3.48-1.43.58,0,1.16.11,1.74.33,4.28,1.83,8.83,3.23,13.66,4.18,4.83.95,9.85,1.43,15.08,1.43,5.81,0,11.34-.6,16.6-1.81,5.26-1.21,10.18-2.88,14.75-5,.94-.66,1.92-.99,2.94-.99,1.31,0,2.41.51,3.32,1.54.91,1.03,1.36,2.2,1.36,3.52,0,1.39-.51,2.6-1.52,3.63-2.98,3.01-5.84,6.43-8.6,10.28-2.76,3.85-5.19,7.95-7.29,12.31-2.11,4.36-3.79,8.87-5.06,13.52-1.27,4.66-1.91,9.22-1.91,13.69,0,3.3.38,6.16,1.14,8.58s1.8,4.45,3.1,6.1c1.31,1.65,2.85,2.88,4.63,3.68,1.78.81,3.68,1.21,5.72,1.21,3.41,0,6.57-.7,9.47-2.09,2.9-1.39,5.59-3.28,8.06-5.66,2.47-2.38,4.7-5.13,6.69-8.25,2-3.11,3.79-6.39,5.39-9.84,1.6-3.44,2.99-6.93,4.19-10.45s2.23-6.85,3.1-10.01c.36-1.1.96-2,1.8-2.69.83-.7,1.8-1.04,2.88-1.04.29,0,.72.07,1.31.22,1.09.29,1.98.88,2.67,1.76.69.88,1.03,1.87,1.03,2.97,0,.29-.07.73-.22,1.32-1.02,3.67-2.23,7.53-3.65,11.6s-3.12,8.1-5.12,12.09c-2,4-4.25,7.79-6.75,11.38-2.5,3.59-5.3,6.76-8.38,9.51-3.09,2.75-6.5,4.95-10.23,6.6-3.74,1.65-7.82,2.47-12.25,2.47-3.41,0-6.6-.6-9.58-1.81-2.98-1.21-5.55-3.04-7.73-5.5-2.18-2.46-3.9-5.53-5.17-9.24-1.27-3.7-1.91-8.01-1.91-12.92,0-3.66.36-7.38,1.09-11.16.72-3.77,1.74-7.49,3.05-11.16,1.31-3.66,2.85-7.24,4.63-10.72,1.78-3.48,3.72-6.8,5.82-9.95-6.24,1.47-12.7,2.2-19.38,2.2-3.05,0-6.04-.15-8.98-.44-2.94-.29-5.79-.73-8.55-1.32.36,1.47.67,3.08.93,4.84.25,1.76.38,3.7.38,5.83,0,2.49-.29,4.99-.87,7.48-.29,1.17-.91,2.11-1.85,2.8-.94.7-1.96,1.04-3.05,1.04-.51,0-.87-.04-1.09-.11-1.16-.29-2.07-.88-2.72-1.76-.65-.88-.98-1.87-.98-2.97,0-.51.04-.92.11-1.21.22-.95.38-1.8.49-2.53.11-.73.16-1.65.16-2.75,0-3.52-.67-6.67-2.01-9.46-1.34-2.79-3.03-4.84-5.06-6.16Z"></path><path class="cls-2" d="m506.5,231.61c-4.57,0-8.62-1.39-12.14-4.18-3.52-2.78-6.01-6.38-7.46-10.77-3.27,4.62-7.13,8.27-11.59,10.94-4.46,2.68-9.31,4.01-14.53,4.01-4.79,0-9.31-1.15-13.55-3.46-4.25-2.31-7.95-5.44-11.1-9.4-3.16-3.96-5.64-8.61-7.46-13.96-1.81-5.35-2.72-11.07-2.72-17.15s.91-11.8,2.72-17.15c1.81-5.35,4.3-10.01,7.46-13.96,3.16-3.96,6.86-7.09,11.1-9.4,4.25-2.31,8.76-3.46,13.55-3.46s9.54,1.19,13.83,3.57c4.28,2.38,8.02,5.66,11.21,9.84v-8.47c0-1.39.47-2.56,1.42-3.52.94-.95,2.1-1.43,3.48-1.43s2.54.48,3.48,1.43c.94.95,1.42,2.13,1.42,3.52v61.02c0,1.69.27,3.26.82,4.73.54,1.47,1.31,2.75,2.29,3.85.98,1.1,2.12,1.96,3.43,2.58,1.31.62,2.72.93,4.25.93,3.41,0,6.57-.7,9.47-2.09,2.9-1.39,5.59-3.28,8.06-5.66,2.46-2.38,4.7-5.13,6.69-8.25,2-3.11,3.79-6.39,5.39-9.84,1.6-3.44,2.99-6.93,4.19-10.45s2.23-6.85,3.1-10.01c.36-1.32,1.11-2.33,2.23-3.02,1.12-.7,2.38-.86,3.76-.49,1.31.37,2.3,1.14,2.99,2.31.69,1.17.85,2.42.49,3.74-1.02,3.67-2.23,7.53-3.65,11.6-1.42,4.07-3.09,8.1-5.01,12.09-1.92,4-4.14,7.79-6.64,11.38-2.5,3.59-5.3,6.76-8.38,9.51-3.09,2.75-6.51,4.95-10.29,6.6-3.78,1.65-7.88,2.47-12.3,2.47Zm-70.76-43.98c0,4.69.65,9.11,1.96,13.25,1.31,4.14,3.1,7.75,5.39,10.83s4.93,5.52,7.95,7.31c3.01,1.8,6.26,2.69,9.74,2.69s6.73-.9,9.74-2.69c3.01-1.8,5.66-4.23,7.95-7.31s4.08-6.69,5.39-10.83c1.31-4.14,1.96-8.56,1.96-13.25s-.65-9.11-1.96-13.25c-1.31-4.14-3.1-7.75-5.39-10.83s-4.94-5.51-7.95-7.31c-3.01-1.8-6.26-2.69-9.74-2.69s-6.73.9-9.74,2.69c-3.01,1.8-5.66,4.23-7.95,7.31s-4.08,6.69-5.39,10.83c-1.31,4.14-1.96,8.56-1.96,13.25Z"></path><path class="cls-2" d="m648.89,221.72c3.41,0,6.57-.7,9.47-2.09,2.9-1.39,5.57-3.28,8-5.66,2.43-2.38,4.64-5.13,6.64-8.25,2-3.11,3.79-6.39,5.39-9.84,1.6-3.44,2.99-6.93,4.19-10.45s2.23-6.85,3.1-10.01c.36-1.32,1.11-2.33,2.23-3.02,1.12-.7,2.38-.86,3.76-.49,1.31.37,2.3,1.14,2.99,2.31.69,1.17.85,2.42.49,3.74-1.02,3.67-2.23,7.53-3.65,11.6s-3.09,8.1-5.01,12.09c-1.92,4-4.14,7.79-6.64,11.38-2.5,3.59-5.3,6.76-8.38,9.51-3.09,2.75-6.51,4.95-10.29,6.6-3.77,1.65-7.88,2.47-12.3,2.47-3.7,0-6.68-.64-8.93-1.92-2.25-1.28-4.21-3.61-5.88-6.98-.22-.59-.47-1.25-.76-1.98-.29-.73-.54-1.59-.76-2.58-.22-.99-.4-2.18-.54-3.57-.15-1.39-.22-3.04-.22-4.95v-35.95c0-13.41-3.99-20.12-11.97-20.12-3.19,0-6.19.66-8.98,1.98-2.79,1.32-5.46,3.56-8,6.71-2.54,3.15-4.99,7.33-7.35,12.53-2.36,5.21-4.7,11.69-7.02,19.46v32.44c0,3.3-1.63,4.95-4.9,4.95s-4.9-1.65-4.9-4.95v-61.02c0-1.69-.31-3.26-.92-4.73-.62-1.47-1.47-2.75-2.56-3.85-1.09-1.1-2.36-1.96-3.81-2.58-1.45-.62-3.01-.93-4.68-.93-2.69,0-5.08,1.21-7.18,3.63-2.11,2.42-3.48,5.5-4.14,9.24-.36,1.83-.78,3.76-1.25,5.77-.47,2.02-.93,3.9-1.36,5.66-.29,1.1-.85,2.02-1.69,2.75-.83.73-1.87,1.1-3.1,1.1-1.38,0-2.54-.48-3.48-1.43-.94-.95-1.42-2.12-1.42-3.52,0-.29.07-.73.22-1.32.44-1.76.85-3.54,1.25-5.33.4-1.79.78-3.61,1.14-5.44.51-3,1.42-5.79,2.72-8.36,1.31-2.56,2.88-4.78,4.74-6.65,1.85-1.87,3.94-3.33,6.26-4.4,2.32-1.06,4.75-1.59,7.29-1.59,2.97,0,5.79.59,8.44,1.76,2.65,1.17,4.95,2.75,6.91,4.73,1.96,1.98,3.52,4.31,4.68,6.98,1.16,2.68,1.74,5.52,1.74,8.52v1.1c2.18-4.25,4.43-7.86,6.75-10.83,2.32-2.97,4.77-5.35,7.35-7.15,2.58-1.8,5.3-3.1,8.17-3.9,2.87-.81,5.9-1.21,9.09-1.21,14.37,0,21.63,10.01,21.77,30.02v35.95c0,3.81.31,6.4.92,7.75.62,1.36,1.45,2.42,2.5,3.19,1.05.77,2.34,1.15,3.87,1.15Z"></path><path class="cls-2" d="m729.88,180.48h8.38c3.27,0,4.9,1.65,4.9,4.95s-1.63,4.95-4.9,4.95h-15.35l-17.85,25.29c1.38-.15,2.85-.24,4.41-.27,1.56-.04,3.03-.06,4.41-.06,7.33,0,14.33,1.25,21.01,3.74,4.64,1.76,9.22,2.64,13.72,2.64,3.41,0,6.57-.7,9.47-2.09,2.9-1.39,5.59-3.28,8.06-5.66,2.47-2.38,4.7-5.13,6.7-8.25,2-3.11,3.79-6.39,5.39-9.84,1.6-3.44,2.99-6.93,4.19-10.45s2.23-6.85,3.1-10.01c.36-1.1.96-2,1.8-2.69.83-.7,1.8-1.04,2.88-1.04.29,0,.72.07,1.31.22,1.09.29,1.98.88,2.67,1.76.69.88,1.03,1.87,1.03,2.97,0,.29-.07.73-.22,1.32-1.02,3.67-2.23,7.53-3.65,11.6s-3.12,8.1-5.12,12.09c-2,4-4.25,7.79-6.75,11.38-2.5,3.59-5.3,6.76-8.38,9.51-3.08,2.75-6.5,4.95-10.23,6.6-3.74,1.65-7.82,2.47-12.25,2.47-5.52,0-11.2-1.1-17.04-3.3-5.84-2.2-11.52-3.26-17.04-3.19-6.02,0-12.59,1.87-19.7,5.61-1.31.73-2.39,1.1-3.27,1.1-2.69,0-4.43-1.36-5.23-4.07-.44-1.61.04-3.11,1.42-4.51l23.08-32.88h-6.31c-3.27,0-4.9-1.65-4.9-4.95s1.63-4.95,4.9-4.95h13.28l15.57-21.99c-3.05.73-6.5,1.39-10.34,1.98-3.85.59-7.44.88-10.78.88-3.05,0-6.04-.15-8.98-.44-2.94-.29-5.79-.73-8.55-1.32.36,1.47.67,3.08.92,4.84.25,1.76.38,3.7.38,5.83,0,2.49-.29,4.99-.87,7.48-.29,1.17-.91,2.11-1.85,2.8-.94.7-1.96,1.04-3.05,1.04-.51,0-.87-.04-1.09-.11-1.16-.29-2.07-.88-2.72-1.76-.65-.88-.98-1.87-.98-2.97,0-.51.04-.92.11-1.21.22-.95.38-1.8.49-2.53.11-.73.16-1.65.16-2.75,0-3.52-.67-6.67-2.01-9.46-1.34-2.79-3.03-4.84-5.06-6.16-1.52-.95-2.29-2.35-2.29-4.18,0-1.39.47-2.56,1.42-3.52.94-.95,2.11-1.43,3.48-1.43.58,0,1.16.11,1.74.33,4.28,1.83,8.83,3.23,13.66,4.18,4.83.95,9.85,1.43,15.08,1.43,5.81,0,11.34-.6,16.6-1.81,5.26-1.21,10.18-2.88,14.75-5,.94-.66,1.92-.99,2.94-.99,1.31,0,2.41.51,3.32,1.54.91,1.03,1.36,2.2,1.36,3.52,0,.88-.22,1.69-.65,2.42l-20.68,29.36Z"></path><path class="cls-2" d="m819.04,231.61c-4.79,0-9.31-1.15-13.55-3.46-4.25-2.31-7.95-5.44-11.1-9.4s-5.64-8.61-7.46-13.96c-1.81-5.35-2.72-11.07-2.72-17.15s.91-11.8,2.72-17.15c1.81-5.35,4.3-10.01,7.46-13.96,3.16-3.96,6.86-7.09,11.1-9.4,4.25-2.31,8.76-3.46,13.55-3.46s9.31,1.15,13.55,3.46c4.25,2.31,7.95,5.44,11.1,9.4,3.16,3.96,5.64,8.61,7.46,13.96,1.81,5.35,2.72,11.07,2.72,17.15s-.91,11.8-2.72,17.15c-1.81,5.35-4.3,10.01-7.46,13.96-3.16,3.96-6.86,7.09-11.1,9.4-4.25,2.31-8.76,3.46-13.55,3.46Zm-25.04-43.98c0,4.69.65,9.11,1.96,13.25,1.31,4.14,3.1,7.75,5.39,10.83s4.93,5.52,7.95,7.31c3.01,1.8,6.26,2.69,9.74,2.69s6.73-.9,9.74-2.69c3.01-1.8,5.66-4.23,7.95-7.31s4.08-6.69,5.39-10.83c1.31-4.14,1.96-8.56,1.96-13.25s-.65-9.11-1.96-13.25c-1.31-4.14-3.1-7.75-5.39-10.83s-4.94-5.51-7.95-7.31c-3.01-1.8-6.26-2.69-9.74-2.69s-6.73.9-9.74,2.69c-3.01,1.8-5.66,4.23-7.95,7.31s-4.08,6.69-5.39,10.83c-1.31,4.14-1.96,8.56-1.96,13.25Zm51.27-29.14c1.31,2.27,3.12,4.64,5.44,7.09,2.32,2.46,5.01,4.73,8.06,6.82,3.05,2.09,6.31,3.81,9.8,5.17,3.48,1.36,7.04,2.03,10.67,2.03,2.9,0,5.35-.48,7.35-1.43,2-.95,3.46-2.27,4.41-3.96.94-1.69,2.4-2.53,4.35-2.53,1.38,0,2.54.48,3.48,1.43.94.95,1.42,2.13,1.42,3.52,0,.95-.22,1.8-.65,2.53-1.82,3.23-4.45,5.77-7.89,7.64-3.45,1.87-7.57,2.8-12.36,2.8-4.5,0-8.95-.84-13.33-2.53-4.39-1.69-8.49-3.81-12.3-6.38-3.81-2.56-7.17-5.37-10.07-8.41-2.9-3.04-5.15-5.95-6.75-8.74l8.38-5.06Z"></path><path class="cls-2" d="m1078.02,231.61c-4.57,0-8.62-1.39-12.14-4.18-3.52-2.78-6.01-6.38-7.46-10.77-3.27,4.62-7.13,8.27-11.59,10.94-4.46,2.68-9.31,4.01-14.53,4.01-4.79,0-9.31-1.15-13.55-3.46-4.25-2.31-7.95-5.44-11.1-9.4s-5.64-8.61-7.46-13.96c-1.81-5.35-2.72-11.07-2.72-17.15s.91-11.8,2.72-17.15c1.81-5.35,4.3-10.01,7.46-13.96,3.16-3.96,6.86-7.09,11.1-9.4,4.25-2.31,8.76-3.46,13.55-3.46s9.54,1.19,13.83,3.57c4.28,2.38,8.02,5.66,11.21,9.84v-85.43c0-1.39.47-2.56,1.42-3.52.94-.95,2.1-1.43,3.48-1.43s2.54.48,3.48,1.43c.94.95,1.42,2.13,1.42,3.52v137.99c0,1.69.27,3.26.82,4.73.54,1.47,1.31,2.75,2.29,3.85s2.12,1.96,3.43,2.58c1.31.62,2.72.93,4.25.93,3.41,0,6.57-.7,9.47-2.09,2.9-1.39,5.59-3.28,8.06-5.66,2.47-2.38,4.7-5.13,6.69-8.25,2-3.11,3.79-6.39,5.39-9.84,1.6-3.44,2.99-6.93,4.19-10.45s2.23-6.85,3.1-10.01c.36-1.32,1.11-2.33,2.23-3.02,1.12-.7,2.38-.86,3.76-.49,1.31.37,2.3,1.14,2.99,2.31.69,1.17.85,2.42.49,3.74-.94,3.67-2.14,7.53-3.59,11.6-1.45,4.07-3.16,8.1-5.12,12.09-1.96,4-4.21,7.79-6.75,11.38-2.54,3.59-5.35,6.76-8.44,9.51-3.09,2.75-6.5,4.95-10.23,6.6-3.74,1.65-7.78,2.47-12.14,2.47Zm-70.76-43.98c0,4.69.65,9.11,1.96,13.25,1.31,4.14,3.1,7.75,5.39,10.83s4.93,5.52,7.95,7.31c3.01,1.8,6.26,2.69,9.74,2.69s6.73-.9,9.74-2.69c3.01-1.8,5.66-4.23,7.95-7.31s4.08-6.69,5.39-10.83c1.31-4.14,1.96-8.56,1.96-13.25s-.65-9.11-1.96-13.25c-1.31-4.14-3.1-7.75-5.39-10.83s-4.94-5.51-7.95-7.31c-3.01-1.8-6.26-2.69-9.74-2.69s-6.73.9-9.74,2.69c-3.01,1.8-5.66,4.23-7.95,7.31s-4.08,6.69-5.39,10.83c-1.31,4.14-1.96,8.56-1.96,13.25Z"></path><path class="cls-2" d="m1149.44,80.76l-5.12,35.4c0,1.17-.33,2.09-.98,2.75-.65.66-1.56.99-2.72.99-.8,0-1.63-.22-2.5-.66-1.45-.88-2.43-2.24-2.94-4.07-.15-.44-.15-1.1,0-1.98l4.25-34.41c.14-2.86,1.49-4.29,4.03-4.29,1.67,0,3.14.6,4.41,1.81,1.27,1.21,1.8,2.69,1.58,4.45Z"></path><path class="cls-2" d="m1242.84,231.61c-4.57,0-8.62-1.39-12.14-4.18-3.52-2.78-6.01-6.38-7.46-10.77-3.27,4.62-7.13,8.27-11.59,10.94-4.46,2.68-9.31,4.01-14.53,4.01-4.79,0-9.31-1.15-13.55-3.46-4.25-2.31-7.95-5.44-11.1-9.4s-5.64-8.61-7.46-13.96c-1.81-5.35-2.72-11.07-2.72-17.15s.91-11.8,2.72-17.15c1.81-5.35,4.3-10.01,7.46-13.96,3.16-3.96,6.86-7.09,11.1-9.4,4.25-2.31,8.76-3.46,13.55-3.46s9.54,1.19,13.83,3.57c4.28,2.38,8.02,5.66,11.21,9.84v-8.47c0-1.39.47-2.56,1.42-3.52.94-.95,2.1-1.43,3.48-1.43s2.54.48,3.48,1.43c.94.95,1.42,2.13,1.42,3.52v61.02c0,1.69.27,3.26.82,4.73.54,1.47,1.31,2.75,2.29,3.85s2.12,1.96,3.43,2.58c1.31.62,2.72.93,4.25.93,3.41,0,6.57-.7,9.47-2.09,2.9-1.39,5.59-3.28,8.06-5.66,2.47-2.38,4.7-5.13,6.69-8.25,2-3.11,3.79-6.39,5.39-9.84,1.6-3.44,2.99-6.93,4.19-10.45s2.23-6.85,3.1-10.01c.36-1.32,1.11-2.33,2.23-3.02,1.12-.7,2.38-.86,3.76-.49,1.31.37,2.3,1.14,2.99,2.31.69,1.17.85,2.42.49,3.74-1.02,3.67-2.23,7.53-3.65,11.6s-3.09,8.1-5.01,12.09c-1.92,4-4.14,7.79-6.64,11.38-2.5,3.59-5.3,6.76-8.38,9.51-3.09,2.75-6.51,4.95-10.29,6.6-3.77,1.65-7.88,2.47-12.3,2.47Zm-70.76-43.98c0,4.69.65,9.11,1.96,13.25,1.31,4.14,3.1,7.75,5.39,10.83s4.93,5.52,7.95,7.31c3.01,1.8,6.26,2.69,9.74,2.69s6.73-.9,9.74-2.69c3.01-1.8,5.66-4.23,7.95-7.31s4.08-6.69,5.39-10.83c1.31-4.14,1.96-8.56,1.96-13.25s-.65-9.11-1.96-13.25c-1.31-4.14-3.1-7.75-5.39-10.83s-4.94-5.51-7.95-7.31c-3.01-1.8-6.26-2.69-9.74-2.69s-6.73.9-9.74,2.69c-3.01,1.8-5.66,4.23-7.95,7.31s-4.08,6.69-5.39,10.83c-1.31,4.14-1.96,8.56-1.96,13.25Z"></path><path class="cls-2" d="m1313.06,221.72c3.41,0,6.57-.7,9.47-2.09,2.9-1.39,5.59-3.28,8.06-5.66,2.47-2.38,4.7-5.13,6.7-8.25,2-3.11,3.79-6.39,5.39-9.84,1.6-3.44,2.99-6.93,4.19-10.45,1.2-3.52,2.23-6.85,3.1-10.01.36-1.32,1.11-2.33,2.23-3.02,1.12-.7,2.38-.86,3.76-.49,1.31.37,2.3,1.14,2.99,2.31.69,1.17.85,2.42.49,3.74-1.02,3.67-2.23,7.53-3.65,11.6-1.42,4.07-3.1,8.1-5.06,12.09-1.96,4-4.21,7.79-6.75,11.38-2.54,3.59-5.35,6.76-8.44,9.51-3.08,2.75-6.5,4.95-10.23,6.6-3.74,1.65-7.78,2.47-12.14,2.47-4.79,0-9.31-1.15-13.55-3.46-4.25-2.31-7.95-5.44-11.1-9.4s-5.64-8.61-7.46-13.96c-1.81-5.35-2.72-11.07-2.72-17.15s.91-11.8,2.72-17.15c1.81-5.35,4.3-10.01,7.46-13.96,3.16-3.96,6.86-7.09,11.1-9.4,4.25-2.31,8.76-3.46,13.55-3.46s9.29.92,13.72,2.75c.8.37,1.47.95,2.01,1.76.54.81.82,1.72.82,2.75,0,1.39-.47,2.57-1.42,3.52-.94.95-2.11,1.43-3.48,1.43-.87,0-1.6-.15-2.18-.44-3.05-1.25-6.21-1.87-9.47-1.87-3.48,0-6.73.9-9.74,2.69-3.01,1.8-5.66,4.23-7.95,7.31s-4.08,6.69-5.39,10.83c-1.31,4.14-1.96,8.56-1.96,13.25s.65,9.11,1.96,13.25c1.31,4.14,3.08,7.75,5.33,10.83,2.25,3.08,4.88,5.52,7.89,7.31,3.01,1.8,6.26,2.69,9.74,2.69Z"></path><path class="cls-2" d="m1408.42,218.09c-3.19,4.18-6.93,7.48-11.21,9.9-4.28,2.42-8.89,3.63-13.83,3.63s-9.31-1.15-13.55-3.46c-4.25-2.31-7.95-5.44-11.1-9.4-3.16-3.96-5.64-8.61-7.46-13.96-1.81-5.35-2.72-11.07-2.72-17.15s.91-11.8,2.72-17.15c1.81-5.35,4.3-10.01,7.46-13.96,3.16-3.96,6.86-7.09,11.1-9.4,4.25-2.31,8.76-3.46,13.55-3.46s9.54,1.19,13.83,3.57c4.28,2.38,8.02,5.66,11.21,9.84v-8.47c0-1.39.47-2.56,1.42-3.52.94-.95,2.1-1.43,3.48-1.43s2.54.48,3.48,1.43c.94.95,1.42,2.13,1.42,3.52v61.02c0,1.69.27,3.26.82,4.73.54,1.47,1.31,2.75,2.29,3.85.98,1.1,2.12,1.96,3.43,2.58,1.31.62,2.72.93,4.25.93,3.41,0,6.57-.7,9.47-2.09,2.9-1.39,5.59-3.28,8.06-5.66,2.47-2.38,4.7-5.13,6.7-8.25,2-3.11,3.79-6.39,5.39-9.84,1.6-3.44,2.99-6.93,4.19-10.45,1.2-3.52,2.23-6.85,3.1-10.01.36-1.32,1.11-2.33,2.23-3.02,1.12-.7,2.38-.86,3.76-.49,1.31.37,2.3,1.14,2.99,2.31.69,1.17.85,2.42.49,3.74-1.02,3.67-2.21,7.53-3.59,11.6-1.38,4.07-3.03,8.1-4.95,12.09-1.92,4-4.12,7.79-6.59,11.38-2.47,3.59-5.26,6.76-8.38,9.51-3.12,2.75-6.57,4.95-10.34,6.6-3.77,1.65-7.91,2.47-12.41,2.47-2.03,0-3.96-.29-5.77-.88-1.81-.59-3.52-1.39-5.12-2.42v97.2c0,3.3-1.63,4.95-4.9,4.95s-4.9-1.65-4.9-4.95v-107.42Zm-50.08-30.46c0,4.69.65,9.11,1.96,13.25,1.31,4.14,3.1,7.75,5.39,10.83s4.93,5.52,7.95,7.31c3.01,1.8,6.26,2.69,9.74,2.69s6.73-.9,9.74-2.69c3.01-1.8,5.66-4.23,7.95-7.31s4.08-6.69,5.39-10.83c1.31-4.14,1.96-8.56,1.96-13.25s-.65-9.11-1.96-13.25c-1.31-4.14-3.1-7.75-5.39-10.83s-4.94-5.51-7.95-7.31c-3.01-1.8-6.26-2.69-9.74-2.69s-6.73.9-9.74,2.69c-3.01,1.8-5.66,4.23-7.95,7.31s-4.08,6.69-5.39,10.83c-1.31,4.14-1.96,8.56-1.96,13.25Z"></path><path class="cls-2" d="m1544.06,231.61c-2.83,0-5.5-.57-8-1.7-2.5-1.14-4.68-2.69-6.53-4.67-1.85-1.98-3.32-4.31-4.41-6.98-1.09-2.67-1.63-5.55-1.63-8.63v-6.6c-1.96,3.89-4.17,7.55-6.64,11-2.47,3.45-5.23,6.47-8.27,9.07-3.05,2.6-6.41,4.67-10.07,6.21-3.67,1.54-7.67,2.31-12.03,2.31-2.83,0-5.5-.57-8-1.7-2.5-1.14-4.68-2.69-6.53-4.67-1.85-1.98-3.32-4.31-4.41-6.98-1.09-2.67-1.63-5.55-1.63-8.63v-59.7c0-4.1,1.63-6.16,4.9-6.16s4.9,2.24,4.9,6.71v59.15c0,1.69.27,3.26.82,4.73.54,1.47,1.31,2.75,2.29,3.85.98,1.1,2.12,1.96,3.43,2.58,1.31.62,2.72.93,4.25.93,5.08,0,9.63-1.52,13.66-4.56,4.03-3.04,7.55-6.87,10.56-11.49,3.01-4.62,5.57-9.66,7.67-15.12,2.1-5.46,3.81-10.61,5.12-15.45v-25.18c0-4.1,1.63-6.16,4.9-6.16s4.9,2.24,4.9,6.71v59.15c0,1.69.27,3.26.82,4.73.54,1.47,1.31,2.75,2.29,3.85s2.12,1.96,3.43,2.58c1.31.62,2.72.93,4.25.93,3.41,0,6.57-.7,9.47-2.09,2.9-1.39,5.59-3.28,8.06-5.66,2.47-2.38,4.7-5.13,6.7-8.25,2-3.11,3.79-6.39,5.39-9.84,1.6-3.44,2.99-6.93,4.19-10.45s2.23-6.85,3.1-10.01c.36-1.32,1.11-2.33,2.23-3.02,1.12-.7,2.38-.86,3.76-.49,1.31.37,2.3,1.14,2.99,2.31.69,1.17.85,2.42.49,3.74-.94,3.67-2.14,7.53-3.59,11.6-1.45,4.07-3.14,8.1-5.06,12.09-1.92,4-4.14,7.79-6.64,11.38-2.5,3.59-5.32,6.76-8.44,9.51-3.12,2.75-6.55,4.95-10.29,6.6-3.74,1.65-7.86,2.47-12.36,2.47Z"></path><path class="cls-2" d="m1660.22,231.61c-4.57,0-8.62-1.39-12.14-4.18-3.52-2.78-6.01-6.38-7.46-10.77-3.27,4.62-7.13,8.27-11.59,10.94-4.46,2.68-9.31,4.01-14.53,4.01-4.79,0-9.31-1.15-13.55-3.46-4.25-2.31-7.95-5.44-11.1-9.4s-5.64-8.61-7.46-13.96c-1.81-5.35-2.72-11.07-2.72-17.15s.91-11.8,2.72-17.15c1.81-5.35,4.3-10.01,7.46-13.96,3.16-3.96,6.86-7.09,11.1-9.4,4.25-2.31,8.76-3.46,13.55-3.46s9.54,1.19,13.83,3.57c4.28,2.38,8.02,5.66,11.21,9.84v-8.47c0-1.39.47-2.56,1.42-3.52.94-.95,2.1-1.43,3.48-1.43s2.54.48,3.48,1.43c.94.95,1.42,2.13,1.42,3.52v61.02c0,1.69.27,3.26.82,4.73.54,1.47,1.31,2.75,2.29,3.85s2.12,1.96,3.43,2.58c1.31.62,2.72.93,4.25.93,3.41,0,6.57-.7,9.47-2.09,2.9-1.39,5.59-3.28,8.06-5.66,2.47-2.38,4.7-5.13,6.69-8.25,2-3.11,3.79-6.39,5.39-9.84,1.6-3.44,2.99-6.93,4.19-10.45s2.23-6.85,3.1-10.01c.36-1.32,1.11-2.33,2.23-3.02,1.12-.7,2.38-.86,3.76-.49,1.31.37,2.3,1.14,2.99,2.31.69,1.17.85,2.42.49,3.74-1.02,3.67-2.23,7.53-3.65,11.6s-3.09,8.1-5.01,12.09c-1.92,4-4.14,7.79-6.64,11.38-2.5,3.59-5.3,6.76-8.38,9.51-3.09,2.75-6.51,4.95-10.29,6.6-3.77,1.65-7.88,2.47-12.3,2.47Zm-70.76-43.98c0,4.69.65,9.11,1.96,13.25,1.31,4.14,3.1,7.75,5.39,10.83s4.93,5.52,7.95,7.31c3.01,1.8,6.26,2.69,9.74,2.69s6.73-.9,9.74-2.69c3.01-1.8,5.66-4.23,7.95-7.31s4.08-6.69,5.39-10.83c1.31-4.14,1.96-8.56,1.96-13.25s-.65-9.11-1.96-13.25c-1.31-4.14-3.1-7.75-5.39-10.83s-4.94-5.51-7.95-7.31c-3.01-1.8-6.26-2.69-9.74-2.69s-6.73.9-9.74,2.69c-3.01,1.8-5.66,4.23-7.95,7.31s-4.08,6.69-5.39,10.83c-1.31,4.14-1.96,8.56-1.96,13.25Z"></path><path class="cls-2" d="m187.09,462.65c1.6,3.52,3.39,6.89,5.39,10.12,2,3.23,4.23,6.05,6.69,8.47s5.19,4.36,8.16,5.83c2.98,1.47,6.21,2.2,9.69,2.2s6.57-.7,9.47-2.09c2.9-1.39,5.57-3.28,8-5.66,2.43-2.38,4.64-5.13,6.64-8.25,2-3.11,3.79-6.39,5.39-9.84,1.6-3.44,2.99-6.93,4.19-10.45,1.2-3.52,2.23-6.85,3.1-10,.36-1.32,1.11-2.33,2.23-3.02,1.12-.7,2.38-.86,3.76-.5,1.31.37,2.3,1.14,2.99,2.31.69,1.17.85,2.42.49,3.74-1.02,3.67-2.23,7.53-3.65,11.6-1.42,4.07-3.12,8.1-5.12,12.09-2,4-4.25,7.79-6.75,11.38-2.5,3.59-5.3,6.76-8.38,9.51-3.09,2.75-6.5,4.95-10.23,6.6-3.74,1.65-7.78,2.47-12.14,2.47-4.57,0-8.8-.9-12.68-2.69-3.88-1.8-7.42-4.18-10.61-7.15-3.19-2.97-6.06-6.41-8.6-10.33-2.54-3.92-4.79-7.97-6.75-12.15-.14-.29-.25-.55-.33-.77-.07-.22-.11-.51-.11-.88,0-1.39.47-2.57,1.42-3.52.94-.95,2.11-1.43,3.48-1.43.94,0,1.78.22,2.5.66.73.44,1.31,1.03,1.74,1.76Zm14.48-80.15c.14-15.39,2.21-26.37,6.21-32.93,3.99-6.56,10.16-9.84,18.51-9.84,14.08,0,21.12,8.21,21.12,24.63.07,17.96-11.94,44.53-36.03,79.71v138.1c0,1.39-.47,2.57-1.42,3.52-.94.95-2.11,1.43-3.48,1.43s-2.54-.42-3.48-1.26c-.94-.84-1.42-1.96-1.42-3.35v-200Zm9.8,43.98c2.98-4.62,6.02-9.57,9.14-14.84,3.12-5.28,5.95-10.63,8.49-16.05,2.54-5.42,4.61-10.79,6.21-16.11,1.6-5.31,2.4-10.32,2.4-15.01,0-9.9-3.77-14.84-11.32-14.84-4.65,0-8.06,1.76-10.23,5.28-3.12,4.99-4.68,14.18-4.68,27.6v43.98Z"></path><path class="cls-2" d="m333.08,499.15c-4.57,0-8.62-1.39-12.14-4.18-3.52-2.79-6.01-6.38-7.46-10.78-3.27,4.62-7.13,8.26-11.59,10.94-4.46,2.68-9.31,4.01-14.53,4.01-4.79,0-9.31-1.15-13.55-3.46-4.25-2.31-7.95-5.44-11.1-9.4-3.16-3.96-5.64-8.61-7.46-13.96-1.81-5.35-2.72-11.07-2.72-17.15s.91-11.8,2.72-17.15c1.81-5.35,4.3-10,7.46-13.96,3.16-3.96,6.86-7.09,11.1-9.4,4.25-2.31,8.76-3.46,13.55-3.46s9.54,1.19,13.83,3.57c4.28,2.38,8.02,5.66,11.21,9.84v-8.47c0-1.39.47-2.57,1.42-3.52.94-.95,2.1-1.43,3.48-1.43s2.54.48,3.48,1.43c.94.95,1.42,2.13,1.42,3.52v61.02c0,1.69.27,3.26.82,4.73.54,1.47,1.31,2.75,2.29,3.85.98,1.1,2.12,1.96,3.43,2.58,1.31.62,2.72.93,4.25.93,3.41,0,6.57-.7,9.47-2.09,2.9-1.39,5.59-3.28,8.06-5.66,2.47-2.38,4.7-5.13,6.7-8.25,2-3.11,3.79-6.39,5.39-9.84,1.6-3.44,2.99-6.93,4.19-10.45,1.2-3.52,2.23-6.85,3.1-10,.36-1.32,1.11-2.33,2.23-3.02,1.12-.7,2.38-.86,3.76-.5,1.31.37,2.3,1.14,2.99,2.31.69,1.17.85,2.42.49,3.74-1.02,3.67-2.23,7.53-3.65,11.6-1.42,4.07-3.09,8.1-5.01,12.09-1.92,4-4.14,7.79-6.64,11.38-2.5,3.59-5.3,6.76-8.38,9.51-3.09,2.75-6.51,4.95-10.29,6.6-3.77,1.65-7.88,2.47-12.3,2.47Zm-70.76-43.98c0,4.69.65,9.11,1.96,13.25,1.31,4.14,3.1,7.75,5.39,10.83,2.29,3.08,4.93,5.52,7.95,7.31,3.01,1.8,6.26,2.69,9.74,2.69s6.73-.9,9.74-2.69c3.01-1.79,5.66-4.23,7.95-7.31,2.29-3.08,4.08-6.69,5.39-10.83,1.31-4.14,1.96-8.56,1.96-13.25s-.65-9.11-1.96-13.25c-1.31-4.14-3.1-7.75-5.39-10.83-2.29-3.08-4.94-5.51-7.95-7.31-3.01-1.8-6.26-2.69-9.74-2.69s-6.73.9-9.74,2.69c-3.01,1.8-5.66,4.23-7.95,7.31-2.29,3.08-4.08,6.69-5.39,10.83-1.31,4.14-1.96,8.56-1.96,13.25Z"></path><path class="cls-2" d="m501.92,421.09c-2.69,0-5.08,1.21-7.18,3.63-2.11,2.42-3.48,5.5-4.14,9.24-.36,1.83-.78,3.76-1.25,5.77-.47,2.02-.93,3.9-1.36,5.66-.29,1.1-.85,2.02-1.69,2.75-.83.73-1.87,1.1-3.1,1.1-1.38,0-2.54-.48-3.48-1.43-.94-.95-1.42-2.12-1.42-3.52,0-.29.07-.73.22-1.32.44-1.76.85-3.54,1.25-5.33.4-1.79.78-3.61,1.14-5.44.51-3,1.42-5.79,2.72-8.36,1.31-2.56,2.88-4.78,4.74-6.65,1.85-1.87,3.94-3.33,6.26-4.4,2.32-1.06,4.75-1.59,7.29-1.59,2.97,0,5.79.59,8.44,1.76,2.65,1.17,4.95,2.75,6.91,4.73,1.96,1.98,3.52,4.31,4.68,6.98,1.16,2.68,1.74,5.52,1.74,8.52v28.92c0,4.99.42,9.22,1.25,12.7.83,3.48,1.98,6.29,3.43,8.41,1.45,2.13,3.17,3.67,5.17,4.62,2,.95,4.15,1.43,6.48,1.43,7.77,0,14.01-3.92,18.72-11.76,5.37-8.8,6.35-20.12,2.94-33.97-.58-2.71-1.38-5.28-2.4-7.7-1.02-2.42-1.74-4.25-2.18-5.5-.22-.51-.33-1.14-.33-1.87,0-1.39.47-2.57,1.42-3.52.94-.95,2.1-1.43,3.48-1.43,1.89,0,3.3.84,4.25,2.53,1.31,2.27,3.12,4.64,5.44,7.09,2.32,2.46,5.01,4.73,8.06,6.82,3.05,2.09,6.31,3.81,9.8,5.17,3.48,1.36,7.04,2.03,10.67,2.03,2.9,0,5.35-.48,7.35-1.43,2-.95,3.46-2.27,4.41-3.96.94-1.69,2.39-2.53,4.35-2.53,1.38,0,2.54.48,3.48,1.43.94.95,1.42,2.13,1.42,3.52,0,.95-.22,1.8-.65,2.53-.87,1.54-2,2.93-3.38,4.18-1.38,1.25-2.96,2.31-4.74,3.19-1.78.88-3.72,1.56-5.82,2.03-2.11.48-4.25.71-6.42.71-3.19,0-6.1-.37-8.71-1.1-2.61-.73-5.01-1.69-7.18-2.86-2.18-1.17-4.25-2.46-6.21-3.85-1.96-1.39-3.88-2.71-5.77-3.96.44,2.35.78,4.66,1.03,6.93.25,2.27.38,4.44.38,6.49,0,4.47-.56,8.76-1.69,12.86-1.13,4.11-2.74,7.84-4.84,11.21-3.2,5.28-7.06,9.36-11.59,12.26-4.54,2.9-9.56,4.34-15.08,4.34-8.56,0-15.1-3.3-19.59-9.9-4.5-6.6-6.75-15.79-6.75-27.6v-6.49c-.07-3-.07-10.33,0-21.99,0-1.69-.31-3.26-.92-4.73-.62-1.47-1.47-2.75-2.56-3.85s-2.36-1.96-3.81-2.58c-1.45-.62-3.01-.93-4.68-.93Z"></path><path class="cls-2" d="m644.32,499.15c-4.79,0-9.31-1.15-13.55-3.46-4.25-2.31-7.95-5.44-11.1-9.4s-5.64-8.61-7.46-13.96c-1.81-5.35-2.72-11.07-2.72-17.15s.91-11.8,2.72-17.15c1.81-5.35,4.3-10,7.46-13.96,3.16-3.96,6.86-7.09,11.1-9.4,4.25-2.31,8.76-3.46,13.55-3.46s9.31,1.15,13.55,3.46c4.25,2.31,7.95,5.44,11.1,9.4,3.16,3.96,5.64,8.61,7.46,13.96,1.81,5.35,2.72,11.07,2.72,17.15s-.91,11.8-2.72,17.15c-1.81,5.35-4.3,10.01-7.46,13.96-3.16,3.96-6.86,7.09-11.1,9.4-4.25,2.31-8.76,3.46-13.55,3.46Zm-25.04-43.98c0,4.69.65,9.11,1.96,13.25,1.31,4.14,3.1,7.75,5.39,10.83,2.29,3.08,4.93,5.52,7.95,7.31,3.01,1.8,6.26,2.69,9.74,2.69s6.73-.9,9.74-2.69c3.01-1.79,5.66-4.23,7.95-7.31,2.29-3.08,4.08-6.69,5.39-10.83,1.31-4.14,1.96-8.56,1.96-13.25s-.65-9.11-1.96-13.25c-1.31-4.14-3.1-7.75-5.39-10.83-2.29-3.08-4.94-5.51-7.95-7.31-3.01-1.8-6.26-2.69-9.74-2.69s-6.73.9-9.74,2.69c-3.01,1.8-5.66,4.23-7.95,7.31-2.29,3.08-4.08,6.69-5.39,10.83-1.31,4.14-1.96,8.56-1.96,13.25Zm51.27-29.14c1.31,2.27,3.12,4.64,5.44,7.09,2.32,2.46,5.01,4.73,8.06,6.82,3.05,2.09,6.31,3.81,9.8,5.17,3.48,1.36,7.04,2.03,10.67,2.03,2.9,0,5.35-.48,7.35-1.43,2-.95,3.46-2.27,4.41-3.96.94-1.69,2.4-2.53,4.35-2.53,1.38,0,2.54.48,3.48,1.43.94.95,1.42,2.13,1.42,3.52,0,.95-.22,1.8-.65,2.53-1.82,3.23-4.45,5.77-7.89,7.64-3.45,1.87-7.57,2.8-12.36,2.8-4.5,0-8.95-.84-13.33-2.53-4.39-1.69-8.49-3.81-12.3-6.38-3.81-2.56-7.17-5.37-10.07-8.41-2.9-3.04-5.15-5.95-6.75-8.74l8.38-5.06Z"></path><path class="cls-2" d="m741.75,499.15c-8.56,0-15.1-3.3-19.6-9.9-4.5-6.6-6.75-15.79-6.75-27.6v-79.16c.14-15.39,2.21-26.37,6.21-32.93,3.99-6.56,10.16-9.84,18.51-9.84,14.08,0,21.12,8.21,21.12,24.63.07,17.96-11.94,44.53-36.03,79.71v18.03c0,4.99.42,9.22,1.25,12.7.83,3.48,1.98,6.29,3.43,8.41,1.45,2.13,3.17,3.67,5.17,4.62,2,.95,4.23,1.43,6.7,1.43,3.41,0,6.57-.7,9.47-2.09,2.9-1.39,5.57-3.28,8-5.66,2.43-2.38,4.64-5.13,6.64-8.25,2-3.11,3.79-6.39,5.39-9.84,1.59-3.44,2.99-6.93,4.19-10.45,1.2-3.52,2.23-6.85,3.1-10,.36-1.32,1.11-2.33,2.23-3.02,1.12-.7,2.38-.86,3.75-.5,1.31.37,2.3,1.14,2.99,2.31.69,1.17.85,2.42.49,3.74-1.02,3.67-2.23,7.53-3.65,11.6-1.42,4.07-3.12,8.1-5.12,12.09-2,4-4.25,7.79-6.75,11.38-2.5,3.59-5.3,6.76-8.38,9.51-3.09,2.75-6.5,4.95-10.23,6.6-3.74,1.65-7.78,2.47-12.14,2.47Zm-16.55-72.68c2.97-4.62,6.02-9.57,9.14-14.84,3.12-5.28,5.95-10.63,8.49-16.05,2.54-5.42,4.61-10.79,6.21-16.11,1.6-5.31,2.39-10.32,2.39-15.01,0-9.9-3.77-14.84-11.32-14.84-4.65,0-8.06,1.76-10.23,5.28-3.12,4.99-4.68,14.18-4.68,27.6v43.98Z"></path><path class="cls-2" d="m799.12,499.15c-2.83,0-5.5-.57-8-1.7-2.5-1.14-4.68-2.69-6.53-4.67-1.85-1.98-3.32-4.31-4.41-6.98-1.09-2.67-1.63-5.55-1.63-8.63v-131.28c0-4.1,1.63-6.16,4.9-6.16s4.9,2.24,4.9,6.71v32.55h19.59c1.31,0,2.41.48,3.32,1.43.91.95,1.36,2.13,1.36,3.52s-.45,2.57-1.36,3.52c-.91.95-2.01,1.43-3.32,1.43h-19.59v88.29c0,1.69.27,3.26.82,4.73.54,1.47,1.31,2.75,2.29,3.85.98,1.1,2.12,1.96,3.43,2.58,1.31.62,2.72.93,4.25.93,3.41,0,6.57-.7,9.47-2.09,2.9-1.39,5.59-3.28,8.06-5.66,2.47-2.38,4.7-5.13,6.7-8.25,2-3.11,3.79-6.39,5.39-9.84,1.6-3.44,2.99-6.93,4.19-10.45,1.2-3.52,2.23-6.85,3.1-10,.36-1.32,1.11-2.33,2.23-3.02,1.12-.7,2.38-.86,3.76-.5,1.31.37,2.3,1.14,2.99,2.31.69,1.17.85,2.42.49,3.74-.94,3.67-2.14,7.53-3.59,11.6-1.45,4.07-3.16,8.1-5.12,12.09-1.96,4-4.17,7.79-6.64,11.38-2.47,3.59-5.26,6.76-8.38,9.51-3.12,2.75-6.57,4.95-10.34,6.6-3.77,1.65-7.88,2.47-12.3,2.47Z"></path><path class="cls-2" d="m833.41,378.32c0-2.12.75-3.94,2.23-5.44,1.49-1.5,3.28-2.25,5.39-2.25s3.92.75,5.44,2.25c1.52,1.5,2.29,3.32,2.29,5.44s-.76,3.94-2.29,5.44c-1.52,1.5-3.34,2.25-5.44,2.25s-3.9-.75-5.39-2.25c-1.49-1.5-2.23-3.32-2.23-5.44Zm23.19,120.84c-2.83,0-5.5-.57-8-1.7-2.5-1.14-4.68-2.69-6.53-4.67-1.85-1.98-3.32-4.31-4.41-6.98-1.09-2.67-1.63-5.55-1.63-8.63v-59.7c0-4.1,1.63-6.16,4.9-6.16s4.9,2.24,4.9,6.71v59.15c0,1.69.27,3.26.82,4.73.54,1.47,1.31,2.75,2.29,3.85.98,1.1,2.12,1.96,3.43,2.58,1.31.62,2.72.93,4.25.93,3.41,0,6.57-.7,9.47-2.09,2.9-1.39,5.59-3.28,8.06-5.66,2.47-2.38,4.7-5.13,6.7-8.25,2-3.11,3.79-6.39,5.39-9.84,1.6-3.44,2.99-6.93,4.19-10.45,1.2-3.52,2.23-6.85,3.1-10,.36-1.32,1.11-2.33,2.23-3.02,1.12-.7,2.38-.86,3.76-.5,1.31.37,2.3,1.14,2.99,2.31.69,1.17.85,2.42.49,3.74-1.02,3.67-2.23,7.53-3.65,11.6-1.42,4.07-3.09,8.1-5.01,12.09-1.92,4-4.14,7.79-6.64,11.38-2.5,3.59-5.32,6.76-8.44,9.51-3.12,2.75-6.55,4.95-10.29,6.6-3.74,1.65-7.86,2.47-12.36,2.47Z"></path><path class="cls-2" d="m1051.13,470.89c0-1.83-.33-3.65-.98-5.44-.65-1.79-1.52-3.61-2.61-5.44-1.09-1.83-2.32-3.65-3.7-5.44-1.38-1.79-2.79-3.61-4.25-5.44-2.61-3.22-5.13-6.56-7.57-10.01-2.43-3.44-4.3-7.04-5.61-10.78-1.24,1.54-2.58,2.97-4.03,4.29-1.45,1.32-2.88,2.66-4.3,4.01-1.42,1.36-2.7,2.82-3.86,4.4-1.16,1.58-2.07,3.43-2.72,5.55-.44.73-1.13,1.39-2.07,1.98-.94.59-1.82.88-2.61.88-1.31,0-2.45-.48-3.43-1.43-.98-.95-1.47-2.12-1.47-3.52,0-.81.22-1.61.65-2.42,1.02-3.08,2.5-5.75,4.46-8.03,1.96-2.27,4.03-4.43,6.21-6.49,2.18-2.05,4.23-4.14,6.15-6.27,1.92-2.13,3.39-4.51,4.41-7.15.36-.88.96-1.59,1.8-2.14.83-.55,1.76-.82,2.78-.82,1.38,0,2.56.49,3.54,1.48.98.99,1.47,2.22,1.47,3.68.07,3.37.82,6.58,2.23,9.62,1.42,3.04,3.14,6.01,5.17,8.91,2.03,2.9,4.23,5.74,6.59,8.52,2.36,2.79,4.53,5.65,6.53,8.58,2,2.93,3.66,5.96,5.01,9.07,1.34,3.12,2.01,6.4,2.01,9.84,0,1.91-.18,3.81-.54,5.72-.36,1.91-.83,3.74-1.42,5.5.22,1.17.56,2.27,1.03,3.3.47,1.03,1.23,1.92,2.29,2.69,1.05.77,2.34,1.15,3.86,1.15,3.41,0,6.57-.7,9.47-2.09,2.9-1.39,5.57-3.28,8-5.66,2.43-2.38,4.64-5.13,6.64-8.25,2-3.11,3.79-6.39,5.39-9.84,1.6-3.44,2.99-6.93,4.19-10.45,1.2-3.52,2.23-6.85,3.1-10,.36-1.32,1.11-2.33,2.23-3.02,1.12-.7,2.38-.86,3.76-.5,1.31.37,2.3,1.14,2.99,2.31.69,1.17.85,2.42.49,3.74-.94,3.67-2.14,7.53-3.59,11.6-1.45,4.07-3.14,8.1-5.06,12.09-1.92,4-4.14,7.79-6.64,11.38-2.5,3.59-5.3,6.76-8.38,9.51-3.08,2.75-6.51,4.95-10.29,6.6-3.77,1.65-7.88,2.47-12.3,2.47-3.05,0-5.77-.55-8.16-1.65-2.4-1.1-4.21-2.79-5.44-5.06-2.18,2.13-4.7,3.85-7.57,5.17-2.87,1.32-6.04,1.98-9.53,1.98-4.35,0-8.37-.73-12.03-2.2-3.67-1.47-7.46-3.81-11.38-7.04-2.25-1.76-3.1-3.77-2.56-6.05.54-2.27,2.08-3.41,4.63-3.41,1.16,0,2.5.59,4.03,1.76,2.97,2.42,5.82,4.2,8.55,5.33,2.72,1.14,5.64,1.7,8.76,1.7,2.4,0,4.55-.51,6.48-1.54,1.92-1.03,3.57-2.4,4.95-4.12,1.38-1.72,2.43-3.72,3.16-5.99.72-2.27,1.09-4.65,1.09-7.15Z"></path><path class="cls-2" d="m1161.52,485.63c-3.19,4.18-6.91,7.48-11.16,9.9-4.25,2.42-8.87,3.63-13.88,3.63s-9.31-1.15-13.55-3.46c-4.25-2.31-7.95-5.44-11.1-9.4-3.16-3.96-5.64-8.61-7.46-13.96-1.81-5.35-2.72-11.07-2.72-17.15s.91-11.8,2.72-17.15c1.81-5.35,4.3-10,7.46-13.96,3.16-3.96,6.86-7.09,11.1-9.4,4.25-2.31,8.76-3.46,13.55-3.46s9.54,1.19,13.83,3.57c4.28,2.38,8.02,5.66,11.21,9.84v-8.47c0-1.39.47-2.57,1.42-3.52.94-.95,2.1-1.43,3.48-1.43s2.54.48,3.48,1.43c.94.95,1.42,2.13,1.42,3.52v76.53l12.19-12.86c2.25-2.42,4.28-5.13,6.1-8.14,1.81-3,3.45-6.14,4.9-9.4,1.45-3.26,2.74-6.54,3.87-9.84,1.12-3.3,2.08-6.45,2.88-9.46.36-1.32,1.11-2.33,2.23-3.02,1.12-.7,2.38-.86,3.76-.5,1.31.37,2.3,1.14,2.99,2.31.69,1.17.85,2.42.49,3.74-.87,3.3-1.92,6.76-3.16,10.39-1.23,3.63-2.69,7.22-4.35,10.78-1.67,3.56-3.56,7.02-5.66,10.39-2.11,3.37-4.46,6.45-7.08,9.24l-19.16,20.78v51.68c0,26.24-7.11,39.36-21.34,39.36s-21.66-9.75-21.66-29.25c0-6.82.92-13.51,2.78-20.07,1.85-6.56,4.41-12.66,7.67-18.31,3.27-5.65,10.85-14.99,22.75-28.04v-16.82Zm-50.08-30.46c0,4.69.65,9.11,1.96,13.25,1.31,4.14,3.1,7.75,5.39,10.83,2.29,3.08,4.93,5.52,7.95,7.31,3.01,1.8,6.26,2.69,9.74,2.69s6.73-.9,9.74-2.69c3.01-1.79,5.66-4.23,7.95-7.31,2.29-3.08,4.08-6.69,5.39-10.83,1.31-4.14,1.96-8.56,1.96-13.25s-.65-9.11-1.96-13.25c-1.31-4.14-3.1-7.75-5.39-10.83-2.29-3.08-4.94-5.51-7.95-7.31-3.01-1.8-6.26-2.69-9.74-2.69s-6.73.9-9.74,2.69c-3.01,1.8-5.66,4.23-7.95,7.31-2.29,3.08-4.08,6.69-5.39,10.83-1.31,4.14-1.96,8.56-1.96,13.25Zm50.08,62.01c-5.88,6.38-10.71,12.75-14.48,19.13-3.77,6.38-6.21,12.17-7.29,17.37-1.09,5.2-1.63,10.26-1.63,15.17,0,12.9,3.96,19.35,11.87,19.35s11.54-9.82,11.54-29.47v-41.56Z"></path><path class="cls-2" d="m1246.21,425.92c-1.74,0-3.61.64-5.61,1.92-2,1.28-3.94,3.02-5.82,5.22-2.54,3.08-5.1,6.76-7.67,11.05-2.58,4.29-4.88,8.85-6.91,13.69l-9.14,18.25v18.14c0,1.25-.42,2.38-1.25,3.41-.83,1.03-2.05,1.54-3.65,1.54-1.02,0-1.83-.2-2.45-.6-.62-.4-1.11-.88-1.47-1.43-.36-.55-.62-1.1-.76-1.65-.15-.55-.22-.97-.22-1.26v-111.71c.14-15.39,2.21-26.37,6.21-32.93,3.99-6.56,10.16-9.84,18.51-9.84,14.08,0,21.12,8.21,21.12,24.63.07,17.96-11.94,44.53-36.03,79.71v10.12c2.25-5.35,4.81-10.45,7.67-15.28,2.87-4.84,5.77-8.96,8.71-12.37,2.94-3.41,5.97-6.01,9.09-7.81,3.12-1.8,6.35-2.69,9.69-2.69,14.37,0,21.55,10.01,21.55,30.02v31.12c0,3.81.31,6.4.93,7.75.62,1.36,1.45,2.42,2.5,3.19,1.05.77,2.34,1.15,3.86,1.15,3.41,0,6.57-.7,9.47-2.09,2.9-1.39,5.57-3.28,8-5.66,2.43-2.38,4.64-5.13,6.64-8.25,2-3.11,3.79-6.39,5.39-9.84,1.59-3.44,2.99-6.93,4.19-10.45,1.2-3.52,2.23-6.85,3.1-10,.36-1.32,1.11-2.33,2.23-3.02,1.12-.7,2.38-.86,3.76-.5,1.31.37,2.3,1.14,2.99,2.31.69,1.17.85,2.42.49,3.74-.94,3.67-2.14,7.53-3.59,11.6-1.45,4.07-3.14,8.1-5.06,12.09-1.92,4-4.14,7.79-6.64,11.38-2.5,3.59-5.3,6.76-8.38,9.51-3.09,2.75-6.51,4.95-10.29,6.6-3.77,1.65-7.88,2.47-12.3,2.47-3.7,0-6.68-.64-8.93-1.92-2.25-1.28-4.21-3.61-5.88-6.98-.07-.15-.11-.24-.11-.27s-.04-.13-.11-.28c-.51-1.17-.94-2.67-1.31-4.51-.36-1.83-.54-4.51-.54-8.03v-31.12c0-13.41-3.99-20.12-11.97-20.12Zm-35.16.55c2.97-4.62,6.02-9.57,9.14-14.84,3.12-5.28,5.95-10.63,8.49-16.05,2.54-5.42,4.61-10.79,6.21-16.11,1.6-5.31,2.39-10.32,2.39-15.01,0-9.9-3.77-14.84-11.32-14.84-4.65,0-8.06,1.76-10.23,5.28-3.12,4.99-4.68,14.18-4.68,27.6v43.98Z"></path><path class="cls-2" d="m1329.17,465.29c-2.54-.66-5.19-.99-7.95-.99.72,3.59,1.85,6.91,3.38,9.95,1.52,3.04,3.36,5.68,5.5,7.92,2.14,2.24,4.5,3.98,7.08,5.22,2.58,1.25,5.32,1.87,8.22,1.87,3.41,0,6.57-.7,9.47-2.09,2.9-1.39,5.59-3.28,8.06-5.66,2.47-2.38,4.7-5.13,6.69-8.25,2-3.11,3.79-6.39,5.39-9.84,1.6-3.44,2.99-6.93,4.19-10.45,1.2-3.52,2.23-6.85,3.1-10,.36-1.32,1.11-2.33,2.23-3.02,1.12-.7,2.38-.86,3.76-.5,1.31.37,2.3,1.14,2.99,2.31.69,1.17.85,2.42.49,3.74-.94,3.67-2.14,7.53-3.59,11.6-1.45,4.07-3.14,8.1-5.06,12.09-1.92,4-4.14,7.79-6.64,11.38-2.5,3.59-5.3,6.76-8.38,9.51-3.09,2.75-6.51,4.95-10.29,6.6-3.77,1.65-7.88,2.47-12.3,2.47-4.79,0-9.31-1.15-13.55-3.46-4.25-2.31-7.95-5.44-11.1-9.4-3.16-3.96-5.66-8.61-7.51-13.96-1.85-5.35-2.78-11.07-2.78-17.15,0-4.69.54-9.14,1.63-13.36,1.09-4.21,2.61-8.12,4.57-11.71,1.52-2.71,3.39-5.22,5.61-7.53,2.21-2.31,4.68-4.3,7.4-5.99,2.72-1.69,5.61-3,8.65-3.96,3.05-.95,6.13-1.43,9.25-1.43,3.41,0,6.53.55,9.36,1.65,2.83,1.1,5.26,2.64,7.29,4.62,2.03,1.98,3.61,4.31,4.74,6.98,1.12,2.68,1.69,5.59,1.69,8.74,0,.88-.04,1.76-.11,2.64-.07.88-.22,1.8-.44,2.75-.8,3.89-2.29,7.5-4.46,10.83-2.18,3.34-4.81,6.25-7.89,8.74-3.09,2.49-6.5,4.45-10.23,5.88-3.74,1.43-7.57,2.14-11.48,2.14-2.32,0-4.65-.29-6.97-.88Zm2.4-9.57c1.45.37,2.97.55,4.57.55,2.83,0,5.59-.51,8.27-1.54,2.68-1.03,5.13-2.42,7.35-4.18,2.21-1.76,4.12-3.83,5.71-6.21,1.6-2.38,2.68-4.93,3.27-7.64.22-.95.33-2.09.33-3.41,0-3.52-1.24-6.43-3.7-8.74-2.47-2.31-5.7-3.46-9.69-3.46-2.18,0-4.37.37-6.59,1.1-2.21.73-4.3,1.72-6.26,2.97-1.96,1.25-3.76,2.71-5.39,4.4-1.63,1.69-2.99,3.48-4.08,5.39-1.31,2.71-2.47,5.75-3.48,9.13-1.02,3.37-1.52,6.78-1.52,10.22,1.67,0,3.54.13,5.61.39s3.94.6,5.61,1.04Z"></path><path class="cls-2" d="m1480.27,435.05c4.28-8.58,9.05-14.7,14.32-18.36,5.26-3.66,11.09-5.5,17.47-5.5,14.37,0,21.63,10.01,21.77,30.02v35.95c0,3.81.31,6.4.92,7.75.62,1.36,1.45,2.42,2.5,3.19,1.05.77,2.34,1.15,3.87,1.15,3.41,0,6.57-.7,9.47-2.09,2.9-1.39,5.57-3.28,8-5.66,2.43-2.38,4.64-5.13,6.64-8.25,2-3.11,3.79-6.39,5.39-9.84,1.6-3.44,2.99-6.93,4.19-10.45,1.2-3.52,2.23-6.85,3.1-10,.36-1.32,1.11-2.33,2.23-3.02,1.12-.7,2.38-.86,3.76-.5,1.31.37,2.3,1.14,2.99,2.31.69,1.17.85,2.42.49,3.74-1.02,3.67-2.23,7.53-3.65,11.6-1.42,4.07-3.08,8.1-5.01,12.09-1.92,4-4.14,7.79-6.64,11.38-2.5,3.59-5.3,6.76-8.38,9.51-3.09,2.75-6.51,4.95-10.29,6.6-3.77,1.65-7.88,2.47-12.3,2.47-3.7,0-6.68-.64-8.93-1.92-2.25-1.28-4.21-3.61-5.88-6.98-.22-.59-.47-1.25-.76-1.98-.29-.73-.54-1.59-.76-2.58-.22-.99-.4-2.18-.54-3.57-.15-1.39-.22-3.04-.22-4.95v-35.95c0-13.41-3.99-20.12-11.97-20.12-3.19,0-6.19.66-8.98,1.98-2.79,1.32-5.46,3.56-8,6.71-2.54,3.15-4.99,7.33-7.35,12.53-2.36,5.21-4.7,11.69-7.02,19.46v32.33c0,3.3-1.63,4.95-4.9,4.95s-4.9-1.65-4.9-4.95v-52.78c0-6.74-1.03-11.8-3.1-15.17-2.07-3.37-5.06-5.06-8.98-5.06-3.19,0-6.19.66-8.98,1.98-2.79,1.32-5.46,3.56-8,6.71-2.54,3.15-4.99,7.33-7.35,12.53-2.36,5.21-4.7,11.69-7.02,19.46v32.33c0,3.3-1.63,4.95-4.9,4.95s-4.9-1.65-4.9-4.95v-60.91c0-1.69-.31-3.26-.92-4.73-.62-1.47-1.47-2.75-2.56-3.85s-2.36-1.96-3.81-2.58c-1.45-.62-3.01-.93-4.68-.93-2.69,0-5.08,1.21-7.18,3.63-2.11,2.42-3.48,5.5-4.14,9.24-.36,1.83-.78,3.76-1.25,5.77-.47,2.02-.93,3.9-1.36,5.66-.29,1.1-.85,2.02-1.69,2.75-.83.73-1.87,1.1-3.1,1.1-1.38,0-2.54-.48-3.48-1.43-.94-.95-1.42-2.12-1.42-3.52,0-.29.07-.73.22-1.32.44-1.76.85-3.54,1.25-5.33.4-1.79.78-3.61,1.14-5.44.51-3,1.42-5.79,2.72-8.36,1.31-2.56,2.88-4.78,4.74-6.65,1.85-1.87,3.94-3.33,6.26-4.4,2.32-1.06,4.75-1.59,7.29-1.59,2.97,0,5.79.59,8.44,1.76,2.65,1.17,4.95,2.75,6.91,4.73,1.96,1.98,3.52,4.31,4.68,6.98,1.16,2.68,1.74,5.52,1.74,8.52v1.1c2.18-4.25,4.43-7.86,6.75-10.83,2.32-2.97,4.77-5.35,7.35-7.15,2.58-1.8,5.3-3.1,8.17-3.9,2.87-.81,5.9-1.21,9.09-1.21,12.85,0,19.99,7.95,21.45,23.86Z"></path><path class="cls-2" d="m1604.04,489.26c7.76,0,14.01-3.92,18.72-11.76,5.37-8.8,6.35-20.12,2.94-33.97-.58-2.71-1.38-5.28-2.39-7.7-1.02-2.42-1.74-4.25-2.18-5.5-.22-.51-.33-1.14-.33-1.87,0-1.39.47-2.57,1.42-3.52.94-.95,2.1-1.43,3.48-1.43,1.89,0,3.3.84,4.25,2.53,1.31,2.27,3.12,4.64,5.44,7.09,2.32,2.46,5.01,4.73,8.06,6.82,3.05,2.09,6.31,3.81,9.8,5.17,3.48,1.36,7.04,2.03,10.67,2.03,2.9,0,5.35-.48,7.35-1.43,2-.95,3.46-2.27,4.41-3.96.94-1.69,2.4-2.53,4.35-2.53,1.38,0,2.54.48,3.48,1.43.94.95,1.42,2.13,1.42,3.52,0,.95-.22,1.8-.65,2.53-.87,1.54-2,2.93-3.38,4.18-1.38,1.25-2.96,2.31-4.74,3.19-1.78.88-3.72,1.56-5.82,2.03-2.11.48-4.25.71-6.42.71-3.19,0-6.1-.37-8.71-1.1-2.61-.73-5.01-1.69-7.18-2.86-2.18-1.17-4.25-2.46-6.21-3.85-1.96-1.39-3.88-2.71-5.77-3.96.43,2.35.78,4.66,1.03,6.93.25,2.27.38,4.44.38,6.49,0,4.47-.56,8.76-1.69,12.86-1.13,4.11-2.74,7.84-4.84,11.21-3.19,5.28-7.06,9.36-11.59,12.26-4.54,2.9-9.56,4.34-15.08,4.34-8.56,0-15.1-3.3-19.6-9.9-4.5-6.6-6.75-15.79-6.75-27.6v-79.16c.14-14.37,2.21-25.07,6.21-32.11,3.99-7.04,10.16-10.56,18.51-10.56,12.05,0,18.29,8.17,18.72,24.52-.22,8.43-1.56,15.91-4.03,22.43-.44,1.03-1.18,2.57-2.23,4.62-1.05,2.05-2.34,4.45-3.87,7.2-1.52,2.75-3.25,5.75-5.17,9.02-1.92,3.26-3.9,6.63-5.93,10.12-2.03,3.48-4.12,6.96-6.26,10.45-2.14,3.48-4.19,6.84-6.15,10.06v23.86c0,4.99.42,9.22,1.25,12.7.83,3.48,1.98,6.29,3.43,8.41,1.45,2.13,3.17,3.67,5.17,4.62,2,.95,4.15,1.43,6.48,1.43Zm7.51-124.68c0-4.98-.78-8.7-2.34-11.16-1.56-2.46-3.76-3.68-6.59-3.68-2.54,0-4.75.71-6.64,2.14-1.89,1.43-3.45,3.85-4.68,7.26-1.23,3.41-2.14,7.9-2.72,13.47-.58,5.57-.87,12.46-.87,20.67v26.5c11.47-18.69,18.29-30.86,20.47-36.5,2.03-5.42,3.16-11.65,3.38-18.69Z"></path><path class="cls-2" d="m1672.3,378.32c0-2.12.75-3.94,2.23-5.44,1.49-1.5,3.28-2.25,5.39-2.25s3.92.75,5.44,2.25c1.52,1.5,2.29,3.32,2.29,5.44s-.76,3.94-2.29,5.44c-1.52,1.5-3.34,2.25-5.44,2.25s-3.9-.75-5.39-2.25c-1.49-1.5-2.23-3.32-2.23-5.44Zm23.19,120.84c-2.83,0-5.5-.57-8-1.7-2.5-1.14-4.68-2.69-6.53-4.67-1.85-1.98-3.32-4.31-4.41-6.98-1.09-2.67-1.63-5.55-1.63-8.63v-59.7c0-4.1,1.63-6.16,4.9-6.16s4.9,2.24,4.9,6.71v59.15c0,1.69.27,3.26.82,4.73.54,1.47,1.31,2.75,2.29,3.85.98,1.1,2.12,1.96,3.43,2.58,1.31.62,2.72.93,4.25.93,3.41,0,6.57-.7,9.47-2.09,2.9-1.39,5.59-3.28,8.06-5.66,2.47-2.38,4.7-5.13,6.7-8.25,2-3.11,3.79-6.39,5.39-9.84,1.6-3.44,2.99-6.93,4.19-10.45,1.2-3.52,2.23-6.85,3.1-10,.36-1.32,1.11-2.33,2.23-3.02,1.12-.7,2.38-.86,3.76-.5,1.31.37,2.3,1.14,2.99,2.31.69,1.17.85,2.42.49,3.74-1.02,3.67-2.23,7.53-3.65,11.6-1.42,4.07-3.09,8.1-5.01,12.09-1.92,4-4.14,7.79-6.64,11.38-2.5,3.59-5.32,6.76-8.44,9.51-3.12,2.75-6.55,4.95-10.29,6.6-3.74,1.65-7.86,2.47-12.36,2.47Z"></path></g></svg> 