<?xml version="1.0" encoding="UTF-8"?> <svg xmlns="http://www.w3.org/2000/svg" id="Layer_1" viewBox="0 0 450 335"><defs><style>.cls-1{fill:#fff;}.cls-2{fill:#ececec;}.cls-3{fill:#bca5cf;}.cls-4{fill:#111035;}</style></defs><rect class="cls-1" width="450" height="335"></rect><rect class="cls-2" y="199.03" width="450" height="44.15"></rect><rect class="cls-2" y="93.59" width="450" height="42.05"></rect><rect class="cls-3" x="224.31" y="93.59" width="18.64" height="149.65"></rect><path class="cls-4" d="m141.54,200.49c-1.89,0-3.15-.32-4.41-1.58-2.05-6.94.16-14.82,0-23.02-.16-8.36,1.58-13.56.63-22.07-8.67,0-18.92,1.42-26.8.47-5.36-.47-11.19-.32-17.03-1.26-.79,3.63-.32,6.15-.32,11.83-.16,3-.63,5.99-.79,9.62,0,1.89.63,3.78.79,5.68,0,1.58-.32,3.47-.32,5.2-.32,4.1,0,9.3-1.42,13.56-1.1.79-2.21,1.1-3.63.95-1.73-.16-3.31-.79-4.41-1.73-.79-2.52-1.1-5.52-1.1-8.83,0-4.57.32-9.46.32-14.03,0-3.15.16-6.31.47-8.67.16-1.73-.32-3.78-.47-6.46,0-3,.63-5.83.79-8.83.32-8.83-.63-16.24.63-23.18-.95-9.14-1.26-16.08,0-24.12,1.58.32,1.26-1.26,2.05-1.73,1.58.47,2.84.95,4.26,1.42.95,1.1,1.58,2.37,2.84,3.15.32,3.78.16,5.68-.79,8.99,1.58,3,.32,7.88.79,12.3,0,1.26.63,2.05.63,3.15,0,4.26-1.73,10.25.79,13.4,9.93-1.26,18.13,1.89,28.38.63,3.78-.47,9.3-1.1,14.82-1.1.63-10.56.16-22.23-.47-32.16-.16-3.15-.79-6.62,0-8.36.79-1.58,1.58-2.21,2.68-2.21,2.52,0,5.36,3.15,6.62,5.68.32,10.41,2.05,19.24.79,31.06,1.58,5.36.16,13.09-.47,19.08,1.73,6.62-.16,14.82-.32,22.86,0,3.78,0,7.73-.32,11.35-.32,3-.79,6.31-1.73,8.67-.79.16-2.21.32-3.47.32Z"></path><path class="cls-4" d="m206.66,144.36c1.1,4.41,4.57,7.57,5.83,11.51,1.58,3.78.79,7.73,1.26,11.83.16,5.36-.79,12.3-3.31,17.66-1.26,5.05-4.57,8.2-7.57,11.98-3.47,1.26-7.41,2.37-11.19,2.37-4.1-.63-8.04-.63-10.88-2.21-2.84-2.05-4.73-5.36-7.73-7.41.32-2.37-2.05-3.47-3-5.52-1.26-6.94-3.63-14.03-2.84-21.76.32-5.52,1.58-11.19,4.1-16.08,2.52-2.68,3.94-5.36,5.83-7.1,3.15-2.21,10.41-5.05,14.35-3.94,6.46,1.1,13.56-.32,20.18-.16,5.83.16,15.61-.63,19.39-3.47,2.37-1.73,6.31-3.63,8.83-8.36,2.68-5.05,3.78-7.25,4.73-13.87.32-1.73-.63-6.31-.79-8.36-.16-1.73-1.1-3.47-1.58-5.99,1.26-.16,1.26,0,2.84.79.95.47,1.58,1.42,2.52,3,1.58,2.68,2.68,5.05,3.31,8.99.32,1.89.16,3.94.16,6.46,0,2.84-1.42,8.2-3.15,10.41-.47,2.37-1.58,3.78-3.31,6.15-.16,2.05-5.05,6.31-6.62,6.94-6.94,6.62-21.76,4.26-31.38,6.15Zm-27.59,8.04c-1.89,3.63-2.52,9.78-2.84,14.82-.32,8.99,2.21,17.19,6.78,22.86,1.42.95,3.63,1.73,5.99,1.58,2.84-.16,6.94-.79,8.2-1.42,5.99-7.1,7.41-17.03,8.2-26.17.16-3.15-.79-6.94-2.21-9.78-2.05-3.15-3.47-5.99-5.83-8.51-2.21-1.26-5.05-2.84-7.25-2.68-6.15-.32-8.04,5.52-11.04,9.3Z"></path><path class="cls-4" d="m241.18,93.59c3.63.16,5.05,3.63,5.52,6.62l.32,2.68c-.32,10.88.79,16.4,1.1,27.75,0,2.37.63,4.57.79,6.78.32,6.15-1.26,13.24,0,19.39,2.52-1.89,3.63-5.52,5.36-8.36,3.31-5.2,7.25-11.19,13.4-14.03,3.63-1.89,7.88-1.26,11.04,1.58.79.63.95,1.58,1.73,2.37.63.95,1.58,1.42,1.89,2.05,2.84,5.36.32,13.4-1.42,17.66-.32.79-.47,1.73-.79,2.37-3.31,6.78-9.46,11.51-13.09,16.08,1.1,2.21,3.47,3,5.2,4.26,4.1,2.84,7.41,6.94,12.46,9.3,1.42.63,2.52.95,3.63.79,1.73-.16,3.78-1.73,5.05-3,6.46-5.83,11.19-14.51,14.98-20.97,2.21-3.94,3.94-8.51,5.36-12.93,1.42-3.63,2.21-4.73,3.78-5.83.95.63,1.1,4.1.63,5.99-1.42,7.88-3.47,13.72-6.78,20.81-1.1,3-1.89,3.78-3.78,6.62-3.15,5.2-7.41,11.35-12.14,14.82-2.84,1.73-3.31,3.15-6.78,3.31-2.21.32-4.1-.47-5.99-2.05-11.35-5.36-20.81-15.61-30.43-23.02-1.58,2.68-1.89,7.57-2.84,13.09-.63,4.26-.63,11.04-3.78,11.67s-5.05-2.05-7.1-3.31c-.63-5.05.63-9.78.32-15.14-.32-7.88.95-16.08.63-23.97-.16-.95-.63-1.73-.63-2.68-.16-2.52.79-4.89.79-7.41,0-1.26-.47-2.68-.47-4.1-.32-5.68.32-11.67,0-17.66-.16-3-.95-5.99-1.1-8.83-.32-4.26.16-8.51,0-12.61-.16-2.52-.47-3.94,0-7.57.63-1.26,1.58-2.37,3.15-2.52Zm23.81,55.18c-3.94,5.83-8.04,13.56-10.72,19.55,1.73.32,3.47.79,4.89,1.42,3.15-1.58,6.31-4.89,8.51-7.73.63-.79,1.58-1.58,2.21-2.37.47-.95.63-2.52,1.26-3.78,1.58-3.63,5.05-10.09,2.21-14.19h-.63c-3.63,1.1-5.83,3.94-7.73,7.1Z"></path><path class="cls-4" d="m319.54,145.3c.16,7.1.63,15.77,1.1,22.86,1.26.16,1.73-1.58,2.05-2.37.63-1.26,1.1-2.52,1.73-3.63,2.68-5.36,5.83-11.04,9.46-16.08,3.31-4.41,9.93-12.61,18.76-9.14.63.16,1.58.95,2.52,1.58,2.52,1.73,3.47,3.31,5.36,6.46,1.1,1.89,2.21,3.31,2.68,5.05.47,1.1.32,2.52.63,3.94.63,3.47,2.05,6.94,2.37,10.41.47,3.94,0,8.83-.16,12.46-.32,2.84-.16,4.57-1.1,7.41-.16.47-.63.95-.79,1.58-.63,1.73-.95,2.52-2.05,4.1-.95,1.58-2.05,2.37-3.15,3.78-.79.95-.95,1.89-1.42,2.21-2.37,1.89-5.68,1.58-8.2,3.78-3.47.32-6.31,1.26-10.88.79-1.73-.16-3.63-.47-5.68-.79-1.89-.16-4.26-.16-5.68-.47-1.58-.47-3.15-2.37-4.89-2.21-1.26,5.68-1.42,12.14-1.58,18.45-.16,3.15.16,6.15,0,9.3-.32,3-.95,6.15-.95,9.14,0,2.68.95,6.78-.79,8.83-2.37.63-3.78.79-6.15-.32-1.26-.63-2.21-1.1-2.52-1.58-.32-.79,0-6.94,0-9.62.16-2.68.47-6.31.63-9.78v-9.46c-.16-2.21.47-4.1.47-5.99,0-2.84-.47-5.2-.32-7.88.47-6.31,1.26-16.24.79-23.97,0-1.73-.63-3.15-.79-4.57-.16-2.84.47-6.31.32-9.78-.32-6.94-.79-13.09-.47-19.71,0-1.26-.47-2.52,0-3.47,1.1-2.68,4.41-1.73,7.25-.32,2.05,2.21,1.26,5.36,1.42,8.99Zm35.63,37.84c.95-2.52,1.58-5.2,1.89-8.51.32-5.36-.16-11.19-1.1-15.92-.63-2.84-1.1-5.83-1.73-7.73s-2.84-5.83-4.57-6.46c0-.16,0-.32-.32-.32-.79.32-1.26,1.1-2.68.79-10.09,8.51-15.14,21.92-21.13,34.37.32,3.47-2.84,7.73-1.1,11.67,8.51,2.05,20.02,3.15,26.02-1.1,2.37-1.58,3.63-3.94,4.73-6.78Z"></path></svg> 