<?xml version="1.0" encoding="UTF-8"?> <svg xmlns="http://www.w3.org/2000/svg" id="Layer_1" viewBox="0 0 450 335"><defs><style>.cls-1{fill:#fff;}.cls-2{fill:#ececec;}.cls-3{fill:#bca5cf;}.cls-4{fill:#111035;}</style></defs><rect class="cls-1" width="450" height="335"></rect><rect class="cls-2" y="199.03" width="450" height="71.62"></rect><rect class="cls-2" y="82.18" width="450" height="53.47"></rect><rect class="cls-3" x="161.56" y="82.18" width="18.64" height="188.47"></rect><path class="cls-4" d="m148.82,199.82c-6.38,0-11.25-2.43-14.6-7.3-3.35-4.87-5.03-11.66-5.03-20.36v-32.21l-5.11,2.35v8.92c0,1.24-.38,2.19-1.14,2.84-.76.65-1.6.97-2.52.97s-1.76-.32-2.52-.97c-.76-.65-1.14-1.59-1.14-2.84v-5.52l-4.95,2.27c-.05,5.46-.24,10.38-.57,14.77s-.76,8.26-1.3,11.64c-.54,3.38-1.14,6.25-1.78,8.6s-1.33,4.23-2.03,5.64c-3.68,7.52-9.6,11.28-17.77,11.28-6.44-.27-11.48-2.22-15.13-5.84-3.65-3.62-5.48-8.46-5.48-14.52,0-2.97.86-6,2.6-9.09,1.73-3.08,4.18-6.17,7.34-9.25s7-6.13,11.52-9.13c4.52-3,9.53-5.88,15.05-8.64v-5.8c0-2.73.01-5.83.04-9.29.03-3.46.05-7.11.08-10.95.03-3.84.07-7.49.12-10.95.05-3.46.11-6.53.16-9.21.05-2.68.13-4.58.24-5.72-6.87,2.33-14.17,3.49-21.91,3.49s-14.77-1.11-21.58-3.33c.22,1.41.38,2.75.49,4.02.11,1.27.16,2.5.16,3.69,0,6.44-1.49,11.79-4.46,16.06-.76,1.08-1.78,1.62-3.08,1.62-.7,0-1.35-.19-1.95-.57-1.08-.76-1.62-1.78-1.62-3.08,0-.81.22-1.51.65-2.11,3.68-5.35,4.16-13.41,1.46-24.18-.16-.38-.24-.84-.24-1.38,0-.92.28-1.74.85-2.47s1.47-1.1,2.72-1.1c.65,0,1.27.16,1.87.49,3.62,1.62,7.5,2.87,11.64,3.73,4.14.87,8.5,1.3,13.1,1.3s8.88-.45,13.02-1.34,7.99-2.12,11.56-3.69c.54-.22,1.03-.32,1.46-.32,1.03,0,1.89.35,2.6,1.05.7.7,1.05,1.57,1.05,2.6-.87,10.55-1.27,28.53-1.22,53.95l5.27-2.35v-10.71c0-1.24.38-2.18,1.14-2.8.76-.62,1.59-.93,2.52-.93s1.76.31,2.52.93c.76.62,1.14,1.56,1.14,2.8v7.46l5.11-2.27v-10.38c0-7.46.37-13.71,1.1-18.74.73-5.03,1.85-9.09,3.37-12.17,1.51-3.08,3.42-5.27,5.72-6.57,2.3-1.3,5.04-1.95,8.23-1.95,4.43.05,7.87,1.58,10.3,4.58s3.65,7.56,3.65,13.67c0,1.14-.08,2.53-.24,4.18-.16,1.65-.51,3.45-1.05,5.4-.54,1.95-1.35,4.02-2.43,6.21-1.08,2.19-2.56,4.44-4.42,6.73-1.87,2.3-4.19,4.6-6.98,6.9-2.79,2.3-6.13,4.5-10.02,6.61v35.94c.05,3.68.39,6.8,1.01,9.37.62,2.57,1.47,4.64,2.56,6.21,1.08,1.57,2.37,2.71,3.85,3.41,1.49.7,3.15,1.05,4.99,1.05v7.3Zm-60.44-7.22c5.14,0,8.87-2.41,11.2-7.22,2.32-4.81,3.76-13.03,4.3-24.66l.49-9.17c-21.74,10.87-31.37,21.23-28.88,31.07.76,3.08,2.14,5.52,4.14,7.3,2,1.78,4.92,2.68,8.76,2.68Zm59.23-103.04c-1.89,0-3.54.53-4.95,1.58-1.41,1.05-2.57,2.84-3.49,5.35-.92,2.52-1.6,5.83-2.03,9.94-.43,4.11-.65,9.2-.65,15.25v7.22c4.16-1.78,7.44-3.99,9.82-6.61,2.38-2.62,4.15-5.29,5.31-7.99,1.16-2.7,1.89-5.3,2.19-7.79.3-2.49.45-4.49.45-6,0-3.68-.58-6.41-1.74-8.19-1.16-1.78-2.8-2.7-4.91-2.76Zm1.22,110.26c3.3,0,6.35-.61,9.17-1.83,2.81-1.22,5.38-2.84,7.71-4.87,2.32-2.03,4.41-4.37,6.25-7.02,1.84-2.65,3.49-5.45,4.95-8.4,1.46-2.95,2.73-5.92,3.81-8.92,1.08-3,1.97-5.85,2.68-8.56.27-.97.15-1.89-.37-2.76-.51-.86-1.26-1.43-2.23-1.7-1.03-.27-1.96-.15-2.8.37-.84.51-1.39,1.26-1.66,2.23-.65,2.33-1.42,4.79-2.31,7.38s-1.93,5.17-3.12,7.71c-1.19,2.54-2.53,4.96-4.02,7.26-1.49,2.3-3.15,4.33-4.99,6.08-1.84,1.76-3.84,3.15-6,4.18-2.16,1.03-4.52,1.54-7.06,1.54v7.3Z"></path><path class="cls-4" d="m228.49,192.52c2.54,0,4.89-.51,7.06-1.54,2.16-1.03,4.15-2.42,5.96-4.18,1.81-1.76,3.46-3.79,4.95-6.08,1.49-2.3,2.83-4.72,4.02-7.26,1.19-2.54,2.23-5.11,3.12-7.71.89-2.6,1.66-5.06,2.31-7.38.27-.97.82-1.72,1.66-2.23.84-.51,1.77-.64,2.8-.37.97.27,1.72.84,2.23,1.7.51.87.64,1.78.37,2.76-.76,2.71-1.66,5.56-2.72,8.56s-2.31,5.98-3.77,8.92c-1.46,2.95-3.11,5.75-4.95,8.4-1.84,2.65-3.92,4.99-6.25,7.02-2.33,2.03-4.88,3.65-7.67,4.87-2.79,1.22-5.83,1.83-9.13,1.83-2.76,0-4.98-.47-6.65-1.42-1.68-.95-3.14-2.66-4.38-5.15-.16-.43-.34-.92-.53-1.46-.19-.54-.37-1.18-.53-1.91s-.3-1.61-.41-2.64c-.11-1.03-.16-2.24-.16-3.65v-25.39c0-1.84-.04-3.12-.12-3.85s-.15-1.47-.2-2.23c-.11-.7-.3-1.69-.57-2.96-.27-1.27-.57-2.28-.89-3.04-.27-.59-.6-1.22-.97-1.87-.38-.65-1-1.19-1.87-1.62-.43-.22-.78-.34-1.05-.37-.27-.03-.6-.04-.97-.04-.6.05-1.18.18-1.74.37-.57.19-1.39.64-2.47,1.34-1.14.92-2.27,2.02-3.41,3.29-1.14,1.27-2.22,2.66-3.25,4.18-1.14,1.68-2.43,3.76-3.89,6.25-1.46,2.49-2.98,5.52-4.54,9.09-2.98,7.63-4.76,13.29-5.35,17-.6,3.71-.89,7.78-.89,12.21v71.07c0,2.43-1.22,3.65-3.65,3.65s-3.65-1.22-3.65-3.65v-127.7c0-2.43,1.24-3.65,3.73-3.65s3.57,1.22,3.57,3.65v24.83c3.3-7.57,6.19-13.2,8.68-16.88,2.49-3.68,5.19-6.68,8.11-9.01,1.89-1.3,3.43-2.16,4.62-2.6,1.19-.43,2.49-.68,3.89-.73,1.24,0,2.39.11,3.45.32,1.05.22,2.07.7,3.04,1.46,2.49,1.84,4.27,4.17,5.35,6.98,1.08,2.98,1.73,5.52,1.95,7.63.22,2.11.32,5.06.32,8.84.05,11.9.05,19.72,0,23.45,0,2.81.23,4.72.69,5.72.46,1,1.08,1.78,1.87,2.35.78.57,1.74.85,2.88.85Z"></path><path class="cls-4" d="m275.55,199.82c-6.38,0-11.25-2.43-14.6-7.3-3.35-4.87-5.03-11.66-5.03-20.36v-58.42c.11-11.36,1.65-19.46,4.62-24.3,2.97-4.84,7.57-7.26,13.79-7.26,10.49,0,15.74,6.06,15.74,18.17.05,13.25-8.9,32.86-26.85,58.82v13.31c0,3.68.31,6.8.93,9.37.62,2.57,1.47,4.64,2.56,6.21,1.08,1.57,2.37,2.71,3.85,3.41,1.49.7,3.15,1.05,4.99,1.05,2.54,0,4.89-.51,7.06-1.54,2.16-1.03,4.15-2.42,5.96-4.18,1.81-1.76,3.46-3.79,4.95-6.08,1.49-2.3,2.83-4.72,4.02-7.26,1.19-2.54,2.23-5.11,3.12-7.71s1.66-5.06,2.31-7.38c.27-.97.82-1.72,1.66-2.23.84-.51,1.77-.64,2.8-.37.97.27,1.72.84,2.23,1.7.51.87.64,1.78.37,2.76-.76,2.71-1.66,5.56-2.72,8.56-1.05,3-2.33,5.98-3.81,8.92-1.49,2.95-3.16,5.75-5.03,8.4-1.87,2.65-3.95,4.99-6.25,7.02-2.3,2.03-4.84,3.65-7.63,4.87-2.79,1.22-5.8,1.83-9.05,1.83Zm-12.33-53.63c2.22-3.41,4.49-7.06,6.82-10.95,2.32-3.89,4.43-7.84,6.33-11.85,1.89-4,3.43-7.96,4.62-11.89,1.19-3.92,1.78-7.61,1.78-11.07,0-7.3-2.81-10.95-8.44-10.95-3.46,0-6,1.3-7.63,3.89-2.33,3.68-3.49,10.47-3.49,20.36v32.45Z"></path><path class="cls-4" d="m381.67,192.52c2.54,0,4.89-.51,7.06-1.54,2.16-1.03,4.15-2.42,5.96-4.18,1.81-1.76,3.46-3.79,4.95-6.08,1.49-2.3,2.83-4.72,4.02-7.26,1.19-2.54,2.23-5.11,3.12-7.71s1.66-5.06,2.31-7.38c.27-.97.82-1.72,1.66-2.23.84-.51,1.77-.64,2.8-.37.97.27,1.72.84,2.23,1.7.51.87.64,1.78.37,2.76-.76,2.71-1.66,5.56-2.72,8.56s-2.3,5.98-3.73,8.92c-1.43,2.95-3.08,5.75-4.95,8.4-1.87,2.65-3.95,4.99-6.25,7.02-2.3,2.03-4.86,3.65-7.67,4.87-2.81,1.22-5.87,1.83-9.17,1.83-2.76,0-4.98-.47-6.65-1.42-1.68-.95-3.14-2.66-4.38-5.15-.16-.43-.35-.92-.57-1.46-.22-.54-.41-1.18-.57-1.91s-.3-1.61-.41-2.64c-.11-1.03-.16-2.24-.16-3.65v-26.53c0-9.9-2.98-14.85-8.92-14.85-2.38,0-4.61.49-6.69,1.46-2.08.97-4.07,2.62-5.96,4.95-1.89,2.33-3.72,5.41-5.48,9.25-1.76,3.84-3.5,8.63-5.23,14.36v23.93c0,2.43-1.22,3.65-3.65,3.65s-3.65-1.22-3.65-3.65v-45.03c0-1.24-.23-2.41-.69-3.49-.46-1.08-1.1-2.03-1.91-2.84s-1.76-1.45-2.84-1.91c-1.08-.46-2.25-.69-3.49-.69-2,0-3.79.89-5.35,2.68-1.57,1.78-2.6,4.06-3.08,6.82-.27,1.35-.58,2.77-.93,4.26-.35,1.49-.69,2.88-1.01,4.18-.22.81-.64,1.49-1.26,2.03-.62.54-1.39.81-2.31.81-1.03,0-1.89-.35-2.6-1.05-.7-.7-1.05-1.57-1.05-2.6,0-.22.05-.54.16-.97.32-1.3.64-2.61.93-3.93.3-1.32.58-2.66.85-4.02.38-2.22,1.05-4.27,2.03-6.17.97-1.89,2.15-3.53,3.53-4.91s2.93-2.46,4.67-3.25c1.73-.78,3.54-1.18,5.44-1.18,2.22,0,4.31.43,6.29,1.3,1.97.87,3.69,2.03,5.15,3.49s2.62,3.18,3.49,5.15c.86,1.98,1.3,4.07,1.3,6.29v.81c1.62-3.14,3.3-5.8,5.03-7.99,1.73-2.19,3.56-3.95,5.48-5.27,1.92-1.32,3.95-2.28,6.08-2.88,2.14-.59,4.39-.89,6.77-.89,10.71,0,16.12,7.38,16.23,22.15v26.53c0,2.81.23,4.72.69,5.72.46,1,1.08,1.78,1.87,2.35.78.57,1.74.85,2.88.85Z"></path></svg> 