<?xml version="1.0" encoding="UTF-8"?> <svg xmlns="http://www.w3.org/2000/svg" viewBox="0 0 1920 896.24"><defs><style>.cls-1{fill:#e2dcef;}.cls-2{fill:#29235c;}</style></defs><g id="background"><rect class="cls-1" width="1920" height="897.7"></rect></g><g id="Capa_2"><path class="cls-2" d="m332.98,98.4c-.22,2.25-2.01,4.73-2.68,6.53-5.8.45-12.04-.45-18.28-.45,1.34,22.52,1.11,43.23.45,66.2.45,6.75.45,9.68,0,16.44,0,.68.89,4.28.89,5.18-.45,1.35-1.11,4.5-.89,5.85,0,2.48.89,4.73.89,7.21.22,5.63-1.11,11.71,0,17.11,8.47.68,13.82-2.03,20.96-2.48,1.11,1.13,1.56,2.48,1.56,4.05-.22,2.25-1.34,4.73-2.45,6.08-4.46,1.13-9.36,2.03-14.27,2.25-12.26.68-24.97-.9-39.02-1.13-.67-.9-.89-1.8-.89-2.93,0-2.03,1.11-4.28,1.78-5.85,8.03-2.03,11.82-.45,18.5-.68-.89-36.25-.22-66.88-.67-97.27,0-1.35.67-2.48.67-3.38,0-3.15-1.56-9.91-.45-14.64-6.02-1.8-11.37,1.8-18.5.45-1.11-2.48-1.34-3.6-1.34-5.4,0-.9,1.34-2.48,3.12-3.38,3.79-1.8,8.69-2.48,12.93-2.25,8.92-.45,16.27-3.38,25.42-.68,1.56-.23,5.35-.45,7.13-.45,1.56,0,2.9.23,4.46.9.67.9.89,1.8.67,2.7Z"></path><path class="cls-2" d="m418.59,224.27c-.22-1.13-.89-2.93-.89-4.05s.89-1.8.89-2.93-.89-2.25-.89-3.15c.22-4.28,1.34-9.01,1.56-13.51.22-5.18-.45-10.58,1.11-14.64-1.11-3.6-.45-7.66-1.11-11.93l-1.11-5.63c-.22-2.48.22-4.28-.45-6.98-.89-4.73-1.56-10.13-7.58-9.01-1.56.23-2.68,1.8-4.68,3.15-3.12,2.25-6.47,4.28-8.92,6.98-5.35,9.01-10.92,18.69-15.61,28.6-.45,5.18-3.79,8.78-4.68,14.41-.67,4.05.22,8.56,0,12.83,0,.9-.67,1.8-.89,2.93-.45,4.05.45,6.76-1.78,9.01-5.13,1.35-8.92-1.35-12.04-3.15.45-12.83.22-30.62,0-47.74,0-4.73.22-9.91-.22-14.41-.22-1.58-1.11-3.6-1.34-5.4,0-1.35.67-2.7.89-4.28.45-4.05-.45-10.13,1.56-11.71,4.68-3.83,9.81,1.35,11.82,4.73-1.56,8.33-.67,18.69.45,26.12,2.23-.68,3.34-3.83,4.68-5.85,3.12-5.4,6.24-11.48,10.26-16.21,3.34-3.83,8.47-6.3,12.26-10.13,2.01.45,3.57-.9,5.13-1.13,9.14-1.13,14.94,2.48,18.5,7.43,3.34,4.5,5.57,10.36,6.47,18.24,1.34,12.83.89,32.43.45,44.81,2.45.45,4.68-4.73,7.58-3.83,4.24,10.58-5.8,24.99-18.95,20.94-.67-.68-2.23-2.7-2.45-4.5Z"></path><path class="cls-2" d="m639.08,170.91c-.89,4.28-1.78,7.66-3.79,11.03-6.47,10.81-10.48,15.09-21.4,26.8-5.35,5.85-23.86,20.04-28.09,27.47-1.78,7.21-.22,16.89,0,25.44,0,2.7-.45,5.85-.45,9.23,0,1.35-.45,2.48-.45,3.6,0,4.5,1.56,8.56-1.11,12.38-7.58,3.38-13.6-.45-13.15-10.13.45-5.4,2.01-15.54,2.01-21.62,0-13.06-.67-27.25,0-40.08.22-3.83,1.34-9.91,1.34-13.51-1.78,1.35-4.24,6.31-5.57,8.56-2.9,4.5-6.46,7.21-10.25,11.26-3.12,2.93-5.13,5.4-8.92,7.66-4.68.23-8.25,2.7-12.71,2.7-8.92.23-16.05-4.5-20.07-10.81-1.11-2.03-2.9-5.4-3.34-7.43-.45-1.8,0-4.95-.45-7.43-.45-3.15-1.78-6.3-1.11-11.48.22-1.35.89-2.7,1.11-4.05.67-4.05.22-8.11.89-11.93.22-1.35.67-2.93,1.12-4.73.45-2.7,1.11-6.08,2.01-9.01,4.24-12.16,13.38-18.91,25.19-23.42,10.26-1.58,17.84-4.05,28.98-2.7,7.13,0,12.71-1.13,15.16,3.83,2.67,23.42,0,49.99,0,74.98,2.23-.23,3.79-2.7,5.35-4.05,8.47-6.75,14.94-12.83,23.41-20.94,5.35-5.18,14.71-14.41,18.95-25.9,2.01-5.18,3.12-6.76,5.35-8.33,1.34.9,1.34,5.85.89,8.56-.22,1.8-.67,3.15-.89,4.05Zm-83.83-20.27c-8.92,1.35-17.84,6.76-22.07,13.51-1.56,2.48-2.67,6.31-3.57,9.46-.67,2.7-1.34,5.18-2.01,8.56-1.56,10.81-2.23,22.07-.22,32.2,1.78,1.35,2.23,4.05,4.24,5.4,4.46.23,8.7-.68,11.37-2.7,4.01-2.93,6.91-5.63,10.03-8.56,4.68-4.73,6.47-8.56,9.59-15.09,2.01-4.28,3.34-8.33,5.13-12.61,3.79-9.68,5.57-20.27,6.46-30.62-2.01-1.58-4.46-.9-6.46-.68-4.68.23-8.25.45-12.49,1.13Z"></path><path class="cls-2" d="m715.11,216.39c1.56-.9,3.34-2.7,4.68-3.83,3.79-3.15,7.36-7.21,10.03-11.03,1.56-2.25,3.12-5.4,5.35-7.66,5.35-8.56,9.81-17.56,12.93-27.25,2.01-5.18,3.12-6.76,5.35-8.33,1.34.9,1.56,5.85.89,8.56-2.01,10.58-5.8,22.07-10.26,30.62-5.13,9.68-10.7,18.24-17.61,25.22-2.45.45-2.23,2.93-5.13,2.7-4.68,8.33-23.19,7.66-30.1.9-6.69-6.75-3.79-20.72-5.8-31.75-1.78,2.03-3.79,6.31-4.91,8.33-2.45,4.5-4.24,8.56-7.36,12.38-3.34,4.95-7.8,9.23-12.26,13.74-5.35,1.8-10.7,4.05-16.94,2.7-2.45-.68-7.8-4.5-9.59-6.53-3.79-5.18-3.12-14.64-3.34-24.09-.22-2.25-.67-4.5-.89-6.76,0-2.48.22-5.18,0-7.66,0-1.13-.67-2.25-.67-3.15-.45-8.56,1.12-18.01,1.12-27.47,0-8.33-1.78-17.34,6.46-16.44,8.7,1.13,6.24,18.46,6.69,28.15.45,14.19-.89,27.92.67,41.88.45,3.83,0,8.11,2.23,11.26,9.81-2.7,12.93-11.93,19.4-18.01,1.78-6.08,6.24-11.48,9.59-17.34,2.23-4.28,4.01-9.68,5.8-14.86,1.12-3.83,2.68-8.33,2.9-14.19.45-5.63-1.56-11.93,2.01-16.44,4.46-2.7,10.7,3.38,11.59,6.53.67,3.38-.89,8.56-.89,12.61,0,11.26,2.23,23.87.89,31.3,1.78,9.46,1.12,21.39,4.46,29.5,5.8.45,9.14-1.13,12.71-3.6Z"></path><path class="cls-2" d="m768.17,222.02c7.13-.45,14.94-2.03,20.29-6.3,6.24-4.5,12.93-10.81,18.06-17.11,7.13-9.46,14.27-21.17,18.95-31.97,2.23-5.18,3.12-6.76,5.35-8.33,1.34.9,1.56,5.85.89,8.56-1.78,7.66-3.57,13.74-6.91,20.94-5.8,13.29-13.15,23.42-24.52,34.23-7.13,7.66-19.4,11.26-30.77,10.58-8.03.9-16.5-4.95-21.4-9.23-3.57-4.05-5.8-9.68-7.8-14.86.67-9.46-.89-18.24,0-27.92,0-8.56,1.34-16.21,4.24-24.32,3.79-7.66,9.59-16.66,18.73-15.99,10.48.23,23.41,8.11,25.42,20.49.67,9.23-4.46,24.99-13.15,29.05-4.91,2.25-12.49,5.18-18.28,5.18-1.34,0-2.67,0-4.24-.23-1.56,5.18-.45,5.4-.45,8.33,0,6.98.22,6.76,4.91,15.09,2.9,3.6,6.02,4.28,10.7,3.83Zm9.36-59.22c0-4.28-6.46-11.48-10.25-12.83-2.01,0-4.46,4.5-6.02,5.4-4.46,3.15-4.46,6.98-6.47,11.26.45,2.7-1.34,14.64-1.34,16.89.67.9,4.46.9,5.35.9,14.05-.23,18.73-13.29,18.73-21.62Z"></path><path class="cls-2" d="m856.45,208.96c2.23,3.15,1.12,7.88-.45,11.26-4.24,9.68-15.16,19.82-26.53,10.81-3.12-10.81-3.34-24.09-3.34-34.68-.22-3.15-.22-6.31,0-9.23.22-19.14-.45-36.48,0-56.29.22-8.33.22-13.51.22-22.07.22-8.33,1.56-16.66.45-25.44,1.78-1.13,2.01-2.7,3.34-3.38,3.34-1.35,7.8,3.6,9.14,6.53s1.34,7.88,1.12,13.96c-.89,24.77.22,49.31-.22,72.96-.22,3.15-.45,5.63-.67,8.33,0,2.25.67,4.73.67,7.66-.22,9.91-.22,22.29,1.78,30.85,6.46-2.03,6.69-10.58,14.49-11.26Z"></path><path class="cls-2" d="m1010.06,158.3c1.34.9,1.56,5.85.89,8.56-.67,3.15-1.56,6.53-2.23,9.23-4.01,12.83-12.26,27.47-21.62,39.41-9.14,10.13-20.96,15.76-34.11,15.54-7.8,1.13-14.49-2.7-20.51-6.53-8.47-7.66-11.59-17.79-11.82-29.5.89-11.93,1.56-28.82,7.36-40.08,3.34-7.43,9.36-14.41,18.06-14.64,6.47.23,13.15,2.48,16.72,8.11,2.45,1.8,4.01,5.18,4.01,8.11,0,2.48-2.23,4.05-4.68,3.38-1.78-.68-4.46-1.8-6.02-3.83-1.34-2.7-3.34-4.5-6.91-4.73-6.02,1.58-8.25,6.53-11.59,11.48-2.23,10.36-4.46,21.39-4.46,32.65.22,4.73,0,10.36,2.01,14.86,2.01,5.63,6.47,10.13,12.93,10.58,2.67.45,11.15,0,13.6-1.58,12.71-6.75,16.05-9.91,24.75-21.39,5.13-7.21,13.38-18.46,15.83-25.44.89-1.35,1.56-3.38,2.45-5.85,2.01-5.18,3.12-6.76,5.35-8.33Z"></path><path class="cls-2" d="m1121.08,158.3c1.34.9,1.56,5.85.89,8.56-.67,4.28-1.78,9.01-2.9,12.83-8.03,18.91-13.38,28.82-26.08,43.01-3.57,2.03-6.47,5.85-10.48,7.43-3.12,1.35-6.91,2.93-10.7,2.93-2.23-.23-6.02-2.25-8.47-2.25-4.91-2.93-6.91-7.43-8.25-12.83-.45-1.58-.22-3.15-.45-4.95-.22-1.13-1.12-2.25-1.12-3.38-.22-1.35,0-2.93,0-4.28,0,.23.45-.23.45-.45,0-.9-.22-1.58-.89-2.25-1.56-.45-1.34,1.13-1.78,2.03-3.34,6.08-7.8,12.38-12.93,17.11-3.79,4.5-7.13,8.56-12.48,8.78-7.13,0-14.71-2.93-19.62-9.01-4.24-6.98-6.91-15.76-6.91-25.44.22-8.11-.22-16.89,2.45-24.99,2.01-9.01,6.69-18.91,15.16-23.42,7.58-4.73,17.84-6.31,25.86-6.08,6.24.23,12.49,2.25,17.84,3.38.45.23,3.12,2.03,3.12,3.15,0,.45.89.9,1.12,1.35,1.11,2.93.67,7.88.89,12.38,0,2.93.45,3.15.45,6.08,0,1.35-.89,2.7-.89,3.83,0,.9.67,2.25.67,3.15.22,12.38.67,26.8,1.12,38.96.89,2.48,1.11,6.08,2.45,8.33,1.11.23,2.23-.23,3.34-.68,5.57-2.48,12.49-5.18,16.28-11.03,5.13-4.95,7.36-9.46,11.82-15.09,4.68-7.21,6.91-11.26,10.7-19.59,2.01-3.83,3.12-6.53,4.01-9.23,2.01-5.18,3.12-6.76,5.35-8.33Zm-76.25-7.88c-7.58-.68-13.82-.68-19.17,4.28-9.81,7.43-10.7,21.39-13.38,32.65-.22,11.26-.22,20.94,4.68,30.62.89,1.13,2.23,2.03,3.79,2.03,5.8-.68,8.92-6.53,12.26-9.91,7.58-10.36,12.49-19.36,15.16-31.97,1.34-5.4,3.34-9.91,3.79-15.09.22-1.13.89-2.25,1.12-3.83s.45-3.15.45-4.95c-2.01-3.15-6.02-3.38-8.69-3.83Z"></path><path class="cls-2" d="m1298.1,158.3c1.34.9,1.56,5.85.89,8.56-.67,3.38-1.56,6.3-2.23,8.78-1.12,4.05-2.23,7.88-3.57,11.48-3.34,8.78-7.8,16.66-13.15,24.09-7.58,10.36-14.04,18.24-26.08,22.74-3.12.9-6.91,1.13-10.48,2.03-3.34-1.58-6.91-3.15-8.47-6.08-1.34-2.25-2.67-7.88-2.67-11.71,0-.9.67-1.58.67-2.7.45-4.05-.67-9.01-.45-13.51.22-1.13.89-2.03.89-3.15,0-3.38-.89-6.75-.89-9.68.22-2.03.89-3.38.89-5.18,0-5.85-1.56-11.48-2.01-16.89-.22-4.95.45-9.91-2.23-13.74-2.45.68-6.02.45-8.47,1.58-1.78.9-3.79,3.6-5.8,5.85-5.13,6.08-9.59,12.61-13.82,19.82-1.56,2.48-2.9,4.73-4.24,7.43-2.45,4.73-5.13,9.01-6.91,15.54-.45,1.35-.67,3.15-1.11,4.5-.67,2.48-2.23,6.08-2.23,9.46-.22,5.4,1.34,11.03-3.12,14.19-4.68-.68-7.36-3.38-10.03-6.08.22-4.28-.89-8.33-.45-12.38.22-1.35.89-2.7.89-4.05,0-2.93-.89-6.3-.89-9.23.22-2.03.89-3.83.89-5.85,0-9.01-3.34-20.27-4.68-28.6-.89-5.85-.67-14.64-6.91-14.41-4.01,0-9.59,8.33-11.82,11.71-3.34,4.73-6.91,10.13-10.03,15.76-3.57,6.53-7.13,13.74-9.59,21.84-1.12,3.83-2.45,7.88-3.57,11.93-.67,3.38-1.34,6.53-1.56,11.03,0,3.15.89,5.85-.67,8.11-2.23,1.58-4.01.45-6.24-.45-1.78-.9-4.24-1.35-5.35-3.15-1.12-1.8-.89-3.83-.67-6.08-1.12-9.91.45-20.94-.22-32.2-.22-13.96,0-28.6-.45-42.33.22-2.7.89-4.95,2.9-6.75,4.01-.23,5.13,2.48,8.25,3.15,3.12,8.56.89,23.42,2.23,35.35,3.12-.9,2.9-4.05,4.24-6.53.67-1.35,1.78-2.48,2.68-3.83.67-1.58,1.11-3.38,1.78-4.73,1.56-2.7,3.57-4.95,5.35-7.43,3.79-5.18,7.8-10.81,11.59-14.41.89-.68,4.24-3.15,6.24-2.93,2.9.23,8.47.9,10.7,1.8,1.34.68,5.13,3.15,6.47,4.28,1.56,1.35,5.13,6.3,5.8,8.56.67,1.8,0,3.15.45,4.95.45,2.7,1.34,5.18,1.78,8.56.67,4.28,2.01,10.13,2.45,14.41,3.12-2.25,4.46-6.53,6.91-10.13,2.68-4.05,6.02-9.23,9.59-13.96,4.46-5.63,8.47-10.81,13.82-13.96.89-.45,2.01-1.35,2.68-1.58,1.56-.45,3.79-.23,5.8-.68,1.11-.23,2.45-1.58,4.68-1.58,2.45,0,8.69,4.05,10.25,5.85,2.01,2.25,4.91,10.36,5.35,14.41.45,3.15,0,7.21.45,11.26.45,4.05,1.34,8.33,1.56,12.61.22,9.46,0,19.82,0,28.15,0,3.6-.45,7.21,0,10.81,4.01-.45,7.8-1.58,10.7-3.83,8.03-6.98,14.71-13.51,20.51-22.52,5.57-9.46,10.48-18.24,15.16-28.37.22-.45,0-.9.22-1.58,1.78-5.18,3.12-6.76,5.35-8.33Z"></path><path class="cls-2" d="m1410.47,183.97c-7.58,12.61-17.39,22.74-31.21,32.42-9.36,6.76-17.61,9.91-26.53,13.51-5.35,2.25-11.59,4.5-17.84,4.95-6.02-.23-13.6-1.58-17.84-2.7-4.68-1.13-8.69-3.15-12.71-4.95-1.11,1.58-.45,4.73-.67,6.76-.89,11.48-1.34,20.72-1.56,31.97-.45,9.68-.67,19.59-1.34,27.92-3.34,2.93-12.49,1.35-13.82-1.8-1.34-3.38,1.12-13.51.89-19.82-.22-6.53.22-14.41.45-21.84,0-2.93.67-5.85.67-8.78-.22-4.73-1.34-12.16-.67-17.56,0-1.13.22-2.03.22-3.15-1.11-20.04-.67-43.68-.45-65.08,0-5.63-.89-15.31,3.12-17.79,2.23.23,3.34,1.35,5.8,1.13,1.78,1.8,2.9,3.6,3.79,6.08-1.12,4.73,0,9.91-.22,14.86,0,2.7-.89,7.43-.67,11.26,0,.9.45,2.03.45,3.15.22,5.18-.45,12.16.67,17.34,3.12-2.25,4.24-8.11,5.57-11.26,3.79-8.33,9.14-15.31,14.05-22.74,2.23-3.38,3.57-6.31,6.91-8.33,1.12-4.5,4.68-6.3,8.03-8.56,2.23-.45,4.24-.45,6.02-.23,8.47,2.03,17.39,6.53,18.73,16.21,2.9,9.01,5.57,19.14,5.13,29.05,0,5.85-.89,19.59-2.23,24.99,2.45.23,11.82-5.4,14.04-6.98,11.15-7.43,15.83-11.93,23.86-21.84,3.34-4.28,6.91-9.68,9.59-15.54,2.01-5.18,3.12-6.76,5.35-8.33,1.34.9,1.56,5.85.89,8.56-1.56,6.3-4.24,13.29-6.46,17.11Zm-58.41-.68c-.45-8.33-2.9-17.56-5.13-24.77-.89-2.7-2.23-6.3-3.79-6.53-1.11-.23-2.23.23-2.9.9-6.69,6.98-13.82,18.46-19.4,24.99-4.24,13.74-12.71,20.72-16.5,39.18,2.68,0,6.91.68,8.92,1.58,6.24,3.15,16.05,5.85,22.96,3.6,4.68-1.35,8.47-2.48,11.59-5.85,4.68-9.46,4.91-21.62,4.24-33.1Z"></path><path class="cls-2" d="m1469.33,170.01c-2.9,8.56,2.45,18.24-2.23,23.87,2.01,5.85-.67,8.33-2.68,13.29-1.56,3.83-2.23,7.88-4.24,10.81-.89,1.35-2.9,2.25-4.24,3.6-1.56,1.35-2.23,3.38-3.12,4.28-1.12.9-3.79,2.25-5.8,3.15-2.23.9-4.68,2.25-6.24,2.7-9.36,2.03-18.5-2.7-26.08-7.43-9.81-10.13-13.15-26.57-11.15-47.06.45-3.83,1.12-7.43,2.01-11.26,2.68-10.58,11.59-23.87,22.96-25.22,2.01-.23,4.46.45,6.91.45,2.67,0,5.13-.68,7.36-.45,2.45.45,5.13,2.25,7.8,3.6,2.45,1.35,5.35,2.48,7.13,3.83,3.57,2.7,5.57,7.21,8.47,10.13.89,4.05,1.56,8.33,3.12,11.71Zm-53.06,25.9c.45,5.18,1.56,11.71,3.57,15.54,2.68,5.4,7.58,11.03,16.5,9.23,4.46-.68,12.26-7.43,14.49-12.38,2.23-4.73,6.24-16.21,6.24-21.62,0-2.03-.67-4.05-.89-6.31,0-7.43.45-13.29-2.23-18.69-1.56-1.8-3.12-4.05-4.9-5.85-2.01-1.58-4.46-3.83-6.91-4.28-2.9-.45-6.02,1.35-9.36-.23-.22,0-.45,0-.22.23-2.68,1.8-6.47,2.93-8.47,5.63-6.47,7.66-9.14,24.54-7.8,38.73Z"></path><path class="cls-2" d="m1593.51,208.74c14.71-12.38,24.75-27.25,31.66-42.11,2.01-5.18,3.12-6.76,5.35-8.33,1.34.9,1.56,5.85.89,8.56-3.57,18.24-15.83,34.23-25.86,43.91-11.15,10.81-20.96,16.89-33.67,19.81-7.58,1.8-28.98,2.25-29.87-5.4-.22-2.48,1.56-4.73,3.79-5.4,4.01-.9,7.36,1.58,12.04,1.13,8.69-.68,14.49-2.48,17.17-9.68,1.78-4.28.22-8.11-2.23-11.48-3.79-5.4-10.7-10.36-15.83-15.54-.67-.68-.22-.9-.89-1.58-.45-.45-1.78-1.13-2.23-1.58-4.68-5.18-7.36-11.26-7.58-19.37-.22-11.48,5.57-16.44,12.71-21.84,3.12-.45,5.8-.45,9.59,0,3.79.45,4.46.23,6.91,2.03,2.01,1.58,4.91,3.38,4.24,7.43-4.24,3.38-9.59-.45-14.71,1.35-4.9,2.03-6.24,10.58-4.9,17.11.22,1.35,1.78,2.93,3.12,4.73,2.45,3.6,4.9,5.18,8.47,8.78,2.45,2.48,5.57,4.73,7.8,7.66,2.23,2.7,3.79,6.76,6.24,9.46,1.11,3.38,2.01,8.78,2.01,12.61,1.56.23,4.01-.9,5.8-2.25Z"></path><path class="cls-2" d="m1648.57,208.51c2.45,1.8.89,5.4,0,8.33-1.11,2.93-2.45,6.53-4.46,8.78-1.56,2.03-5.35,5.18-7.8,5.4-6.02.9-11.59-4.28-12.04-8.33.67-17.34-1.34-33.33,0-50.89.89-8.11.22-21.39,1.56-29.27,3.12-3.38,6.47-3.6,10.48-.9,1.34,1.8,2.01,3.83,2.01,5.85-1.34,9.01.89,18.91-.89,27.92,0,5.18.67,10.58-.45,14.19,2.67,6.3-.45,14.86,1.34,23.42,4.68,0,5.57-6.08,10.25-4.5Zm-10.25-102.9c1.11.9,2.9,2.25,2.9,3.83.22,1.8-1.78,5.4-3.34,5.85-2.45.9-10.26-3.6-10.7-6.75-.22-3.15,2.01-4.73,4.46-5.4,3.34-.9,4.46.45,6.69,2.48Z"></path><path class="cls-2" d="m359.51,451.96c-5.13,15.54-15.61,26.57-25.86,39.41-8.47,5.4-19.17,10.58-30.54,10.58-5.8,0-10.26-2.48-13.6-5.63-2.01-1.58-2.23-4.05-4.46-5.4-.45-3.6-1.78-7.21-2.01-11.26-.22-4.73.45-10.58,0-16.21-.22-2.93-.67-4.95-.45-7.66.89-10.81-.67-23.19,0-35.58-5.35-.22-8.92-2.25-12.48-4.5.22-2.7,1.78-4.28,2.9-6.08,3.12.23,7.13.23,10.48-.9,1.56-2.03-.67-4.28-.89-6.98-.22-2.48.67-9.68,1.78-10.81,1.78-1.58,6.91,0,8.47,1.8,3.34,3.83,2.23,11.48,4.01,16.44,4.24.23,10.7.68,17.17.45,6.02-.23,9.14-1.35,12.93,1.58,3.79,2.48,2.9,8.11-1.34,9.68-8.7,0-18.95.45-28.31-.23-1.56.68-1.78,2.93-1.78,4.28-.67,4.28.67,9.01.67,13.96,0,4.28-.45,8.56-.45,12.83.22,3.38,1.11,6.75,1.34,10.13,0,5.18-.89,10.58-.45,15.54,0,.9.67,2.25.67,3.15.22,1.35-.45,2.7-.22,3.83.45,3.38,2.9,6.53,5.57,6.98,10.03,1.35,17.84-5.4,25.19-10.13,11.15-11.26,18.5-22.07,26.08-35.35,1.34-2.48,3.12-7.66,4.46-11.71,1.78-5.18,3.12-6.75,5.35-8.33,1.34.9,1.34,5.85.89,8.56-1.11,6.08-3.12,12.83-5.13,17.56Z"></path><path class="cls-2" d="m371.33,427.64c3.79-5.63,8.69-9.91,13.15-15.09,4.46-1.12,9.36-4.95,17.39-4.28,8.92.68,18.73,3.83,19.17,11.48-1.56,2.03-4.01,3.15-5.8,5.18-2.23-.22-6.24,0-9.36-.45-1.11-1.35-.89-4.05-2.23-4.95-4.68,0-7.36,2.25-11.15,3.38-5.35,4.5-10.26,11.03-14.27,18.24-1.78,3.6-4.01,8.11-4.9,11.71-.67,3.38-1.11,7.43-2.01,11.26-.67,3.6-1.78,7.66-2.23,10.81,0,1.12.45,2.25.45,3.6-.22,4.05-2.23,6.98,0,11.48-1.78,1.35-1.11,4.95-2.01,6.98-3.57,4.5-12.26-1.58-12.93-4.5-.67-2.48.89-7.43,1.11-9.91.22-7.88-.45-20.04-1.56-29.05-.89-7.66.22-15.31,0-22.07,0-1.8-.67-3.38-.89-4.95,0-2.03.45-4.05.45-5.85,0-3.38-.67-6.98-.45-9.91,2.45-1.13,3.12-3.38,6.02-3.38,3.57.23,5.35,2.7,6.02,3.83,1.78,4.73,0,12.38.45,17.56,0,2.48.89,3.6.67,6.3,2.9-1.35,3.57-5.18,4.9-7.43Z"></path><path class="cls-2" d="m524.27,419.76c-6.24,1.58-12.93,2.7-22.29,2.48-7.13,0-13.38-2.03-19.84-.67-.22,2.7,2.23,4.28,3.34,7.66.89,2.93,1.34,6.08,2.01,10.13.45,3.15,1.11,6.08,1.34,9.01.67,8.33-.67,16.66-3.12,24.77-5.13,8.11-7.36,16.89-15.83,21.39-4.46,3.38-12.04,7.21-21.18,6.08-15.61-2.25-22.74-17.34-24.75-31.52-1.56-10.36-2.01-20.49.89-32.2,2.68-11.48,6.02-18.92,13.82-25.44,4.01-3.38,10.03-5.18,17.61-4.73,5.13.45,11.15,3.38,16.5,2.93,9.36.68,19.62,1.58,28.76,1.58,6.02,0,16.72-1.35,21.4-1.35,1.56,0,2.01,1.58,3.12,2.7-.45,4.05.45,6.53-1.78,7.21Zm-88.29,32.65c-1.11,7.43,1.34,14.19,1.56,21.84,0,2.48,1.78,6.3,3.12,8.56,2.01,4.5,4.46,6.3,8.03,6.53,5.57.22,14.05-2.93,17.17-7.88,8.03-10.13,12.04-22.74,10.48-35.58.22-13.51-7.58-25.89-20.29-29.5-2.68-.67-5.57.68-7.58,2.25-9.36,7.43-10.7,19.59-12.49,33.78Z"></path><path class="cls-2" d="m609.66,421.78c-8.47-.22-16.94-1.58-21.4-2.03-2.23.68-4.24,5.4-5.8,9.01-4.91,10.81-10.7,18.46-13.15,31.07-1.11.68-1.78,3.15-2.68,4.95-2.67,5.85-6.02,13.29-8.47,20.27-1.56,4.73-3.79,12.61-7.58,13.06-3.79.68-6.24-2.93-9.36-4.28-3.34-15.54-11.15-30.4-15.38-46.84-1.12-4.73-2.01-9.68-3.34-13.96-1.78-5.4-4.9-10.58-5.8-15.99-.22-1.13-.22-4.05,0-5.4,1.34-5.85,8.03-5.4,11.15-1.13,1.34,1.8,2.23,5.4,3.12,8.11,1.11,3.15,1.34,6.3,3.12,8.11.67,6.53,2.9,12.83,4.46,18.69.67,2.03.89,4.28,1.56,6.3.67,1.8,1.78,3.38,2.45,5.4,1.78,5.63,2.9,11.71,6.02,16.66,2.23-1.8,2.9-4.73,3.79-6.98,2.01-4.95,4.24-9.68,6.24-14.86.89-2.48,1.56-5.18,2.67-7.66.67-1.58,2.01-2.93,2.68-4.28,1.11-2.48,1.78-4.95,3.12-7.43,2.9-5.4,5.13-12.16,8.47-17.79v-4.28c1.34-1.35,3.12-3.6,5.35-3.83,2.68-.45,4.91,1.58,7.58,1.8,4.01-.23,13.6,2.03,22.96,2.48,9.36.23,19.17.23,23.19.23,1.56,0,2.9.45,4.01,1.58-2.9,5.4-8.92,8.11-14.04,8.56-4.24.23-9.59.68-14.94.45Z"></path><path class="cls-2" d="m730.49,425.84c1.34.9,1.56,5.85.89,8.56-.67,4.28-1.78,9.01-2.9,12.83-8.03,18.92-13.38,28.82-26.08,43.01-3.57,2.03-6.47,5.85-10.48,7.43-3.12,1.35-6.91,2.93-10.7,2.93-2.23-.23-6.02-2.25-8.47-2.25-4.91-2.93-6.91-7.43-8.25-12.83-.45-1.58-.22-3.15-.45-4.95-.22-1.13-1.12-2.25-1.12-3.38-.22-1.35,0-2.93,0-4.28,0,.23.45-.22.45-.45,0-.9-.22-1.58-.89-2.25-1.56-.45-1.34,1.13-1.78,2.03-3.34,6.08-7.8,12.38-12.93,17.11-3.79,4.5-7.13,8.56-12.48,8.78-7.13,0-14.71-2.93-19.62-9.01-4.24-6.98-6.91-15.76-6.91-25.44.22-8.11-.22-16.89,2.45-24.99,2.01-9.01,6.69-18.92,15.16-23.42,7.58-4.73,17.84-6.3,25.86-6.08,6.24.23,12.49,2.25,17.84,3.38.45.23,3.12,2.03,3.12,3.15,0,.45.89.9,1.12,1.35,1.11,2.93.67,7.88.89,12.38,0,2.93.45,3.15.45,6.08,0,1.35-.89,2.7-.89,3.83,0,.9.67,2.25.67,3.15.22,12.38.67,26.8,1.12,38.96.89,2.48,1.11,6.08,2.45,8.33,1.11.22,2.23-.23,3.34-.68,5.57-2.48,12.49-5.18,16.28-11.03,5.13-4.95,7.36-9.46,11.82-15.09,4.68-7.21,6.91-11.26,10.7-19.59,2.01-3.83,3.12-6.53,4.01-9.23,2.01-5.18,3.12-6.75,5.35-8.33Zm-76.25-7.88c-7.58-.67-13.82-.67-19.17,4.28-9.81,7.43-10.7,21.39-13.38,32.65-.22,11.26-.22,20.94,4.68,30.62.89,1.13,2.23,2.03,3.79,2.03,5.8-.68,8.92-6.53,12.26-9.91,7.58-10.36,12.49-19.37,15.16-31.98,1.34-5.4,3.34-9.91,3.79-15.09.22-1.13.89-2.25,1.12-3.83s.45-3.15.45-4.95c-2.01-3.15-6.02-3.38-8.69-3.83Z"></path><path class="cls-2" d="m778.87,491.81c-.22-1.13-.89-2.93-.89-4.05s.89-1.8.89-2.93-.89-2.25-.89-3.15c.22-4.28,1.34-9.01,1.56-13.51.22-5.18-.45-10.58,1.11-14.64-1.11-3.6-.45-7.66-1.11-11.93l-1.12-5.63c-.22-2.48.22-4.28-.45-6.98-.89-4.73-1.56-10.13-7.58-9.01-1.56.22-2.68,1.8-4.68,3.15-3.12,2.25-6.47,4.28-8.92,6.98-5.35,9.01-10.92,18.69-15.61,28.6-.45,5.18-3.79,8.78-4.68,14.41-.67,4.05.22,8.56,0,12.83,0,.9-.67,1.8-.89,2.93-.45,4.05.45,6.76-1.78,9.01-5.13,1.35-8.92-1.35-12.04-3.15.45-12.83.22-30.62,0-47.74,0-4.73.22-9.91-.22-14.41-.22-1.58-1.12-3.6-1.34-5.4,0-1.35.67-2.7.89-4.28.45-4.05-.45-10.13,1.56-11.71,4.68-3.83,9.81,1.35,11.82,4.73-1.56,8.33-.67,18.69.45,26.12,2.23-.68,3.34-3.83,4.68-5.85,3.12-5.4,6.24-11.48,10.25-16.21,3.34-3.83,8.47-6.31,12.26-10.13,2.01.45,3.57-.9,5.13-1.13,9.14-1.13,14.94,2.48,18.5,7.43,3.34,4.5,5.57,10.36,6.47,18.24,1.34,12.83.89,32.42.45,44.81,2.45.45,4.68-4.73,7.58-3.83,4.24,10.58-5.8,24.99-18.95,20.94-.67-.68-2.23-2.7-2.45-4.5Z"></path><path class="cls-2" d="m893.46,429.21c-1.56,2.93.89,6.53-.22,10.13-.22,3.38-1.11,5.18-.45,8.56-.22,2.03,0,8.11.22,16.21l-.22,26.12c0,8.33,0,24.32.67,30.85-.45,11.93-6.47,23.19-12.26,29.5-7.36,6.53-17.17,9.91-26.31,10.13-3.79-.23-6.91-1.13-10.25-2.03-3.34-.23-6.02-2.48-8.03-5.85-.45-1.35-.22-3.15,0-4.95,2.01-1.35,4.01-1.58,6.24-1.35,3.57,1.8,9.36,3.38,13.6,2.25,7.36-1.8,16.28-4.05,18.28-12.38,4.46-6.3,5.13-12.83,5.13-21.62v-20.04c0-3.6.45-4.5.22-8.11-.45-5.4-.45-11.48-.22-15.54l-.22-10.81c.22-7.66-1.11-15.54.22-23.42.45-5.85,0-9.01.45-14.64-2.68-2.7-8.92-1.13-9.14-6.75.22-2.25,1.56-4.73,3.34-4.73.67-1.58,3.57-.45,5.57-.68,0-11.48-.89-22.74,2.01-34.68,4.24-16.66,19.62-26.57,36.34-27.02,7.8,1.13,15.83.23,20.96,7.66-.45,1.8,1.11,4.5-.67,5.63-6.91,2.93-13.15-4.5-20.07-.9-12.49.68-23.41,12.38-22.96,18.46-1.78,5.18-2.45,11.03-2.45,16.89,0,5.18-.67,8.78,1.12,13.74,8.92.68,15.16-1.35,25.64-.68,5.8,0,11.15.68,15.38.68,1.56,0,2.68.9,3.79,2.03-.45,4.05-2.45,7.43-4.68,8.11-3.34.9-10.25.67-18.28,1.12-7.36.45-12.49.45-19.4,1.35-.89,0-2.01,0-2.68.45.22,1.8-1.11,3.83-.67,6.3Z"></path><path class="cls-2" d="m1017.86,483.93c1.56-.9,3.34-2.7,4.68-3.83,3.79-3.15,7.36-7.21,10.03-11.03,1.56-2.25,3.12-5.4,5.35-7.66,5.35-8.56,9.81-17.56,12.93-27.25,2.01-5.18,3.12-6.75,5.35-8.33,1.34.9,1.56,5.85.89,8.56-2.01,10.58-5.8,22.07-10.26,30.62-5.13,9.68-10.7,18.24-17.61,25.22-2.45.45-2.23,2.93-5.13,2.7-4.68,8.33-23.19,7.66-30.1.9-6.69-6.75-3.79-20.72-5.8-31.75-1.78,2.03-3.79,6.3-4.91,8.33-2.45,4.5-4.24,8.56-7.36,12.38-3.34,4.95-7.8,9.23-12.26,13.74-5.35,1.8-10.7,4.05-16.94,2.7-2.45-.68-7.8-4.5-9.59-6.53-3.79-5.18-3.12-14.64-3.34-24.09-.22-2.25-.67-4.5-.89-6.75,0-2.48.22-5.18,0-7.66,0-1.12-.67-2.25-.67-3.15-.45-8.56,1.12-18.01,1.12-27.47,0-8.33-1.78-17.34,6.46-16.44,8.7,1.13,6.24,18.46,6.69,28.15.45,14.19-.89,27.92.67,41.88.45,3.83,0,8.11,2.23,11.26,9.81-2.7,12.93-11.93,19.4-18.01,1.78-6.08,6.24-11.48,9.59-17.34,2.23-4.28,4.01-9.68,5.8-14.86,1.12-3.83,2.68-8.33,2.9-14.19.45-5.63-1.56-11.93,2.01-16.44,4.46-2.7,10.7,3.38,11.59,6.53.67,3.38-.89,8.56-.89,12.61,0,11.26,2.23,23.87.89,31.3,1.78,9.46,1.12,21.39,4.46,29.5,5.8.45,9.14-1.13,12.71-3.6Z"></path><path class="cls-2" d="m1162.11,468.62c-6.91,11.26-12.71,19.37-24.52,27.25-5.35,3.83-12.04,4.73-18.73,4.5-1.12,0-2.23,0-3.34-.45-3.79-1.8-5.8-5.18-6.91-9.68,1.34-7.43-.45-15.31-.22-22.97,0-2.25.67-4.5.67-6.53,0-3.38-.89-6.75-1.12-10.13-.22-5.85,0-12.38-.89-18.69-.45-4.05-1.12-8.78-3.79-11.93-4.24-.9-7.13,2.93-10.03,5.4-2.67,2.48-6.24,4.95-8.25,7.66-2.23,2.48-4.01,6.53-6.24,10.13-2.01,3.15-4.68,6.53-6.24,9.68-2.01,4.5-3.34,10.13-4.91,15.09-1.78,5.85-3.79,11.03-3.79,16.44-.22,4.05.89,9.23-.89,11.93-3.12,4.95-12.93,1.35-13.82-3.38,0-.68.67-2.93.89-5.18v-9.68c-.22-1.13-.89-2.25-.89-3.38,0-2.03.89-4.28.89-5.85,0-2.03-.67-3.6-.89-5.4-.89-13.74,0-26.35-.67-40.31-.22-6.53-1.34-15.31,4.24-15.99,3.57-.45,4.68,3.15,6.91,3.38,2.67,4.95.67,14.64,1.56,22.97.45,4.05,2.01,7.43.67,10.58,2.23-.67,3.12-3.15,4.24-4.73,3.12-4.95,6.02-11.48,10.03-15.99,2.01-2.25,4.68-4.05,6.91-6.08,2.23-2.25,4.46-4.28,6.46-6.76,5.8-2.93,11.59-3.6,17.39-.68,2.01,1.13,7.58,5.18,8.69,6.98,2.01,2.93,3.79,10.13,4.24,14.41.89,5.63.89,11.48,1.56,17.79,1.11,10.58-1.12,22.52,1.11,33.33,0,1.8-.67,3.15-.67,5.18,4.01.23,7.58-.45,10.92-2.7,6.91-4.73,13.38-10.81,18.5-17.56,7.8-9.68,12.93-21.84,17.39-33.1,2.01-5.18,3.12-6.75,5.35-8.33,1.34.9,1.34,5.85.89,8.56-1.78,11.71-5.57,22.74-12.71,34.23Z"></path><path class="cls-2" d="m1261.1,458.26c8.25-6.53,12.71-13.96,16.5-24.09,2.01-5.18,3.12-6.75,5.35-8.33,1.34.9,1.56,5.85.89,8.56-2.01,7.66-3.57,15.31-8.69,22.97-9.36,13.96-10.26,11.03-19.62,21.84-9.81,6.08-17.61,13.51-26.08,20.72-.45,9.91-2.01,24.77-5.57,27.25-.45,9.91-6.69,18.24-14.04,26.12-10.48,7.66-20.29,11.93-33.22,11.71-7.8-.68-17.39-3.6-20.29-11.71,1.34-17.34,20.07-22.52,30.1-34.45,9.81-9.91,22.07-18.24,32.1-26.57.89-6.53,0-20.94.89-27.7-6.91,15.76-18.73,29.72-33,35.8-17.83,1.13-26.08-14.19-26.53-29.05,0-13.96-.22-29.5,6.02-42.56,5.57-12.61,12.93-18.91,26.98-20.49,7.13-.9,14.94,1.35,22.29,2.25,4.9.68,11.59,3.83,13.15,8.11.67,5.63,1.12,11.93,1.78,17.79,1.78,7.66.45,15.76,1.11,23.42-.22,2.93,0,6.75.22,9.46.22,4.28-.67,8.78-.45,13.74,11.82-7.21,19.84-15.09,30.1-24.77Zm-84.05,96.6c9.59-.45,17.17-5.18,24.75-9.91,4.68-6.53,9.81-13.51,11.15-20.72,2.67-3.6,3.12-9.23,3.34-14.64-13.82,7.66-24.08,21.62-37.46,30.62-4.24,3.38-11.15,6.3-10.25,12.83,2.45,1.8,5.35,2.48,8.47,1.8Zm-1.34-115.51c-2.23,1.8-4.01,21.84-4.01,32.65.22,8.33,4.24,16.89,10.92,17.11,9.36-4.5,15.83-12.38,22.29-20.49,9.81-12.16,11.82-26.12,12.93-39.18-.22-9.01-8.92-9.46-16.05-9.91-1.56,0-2.9,0-4.46-.22-11.37-.23-20.07,9.91-21.63,20.04Z"></path><path class="cls-2" d="m1391.96,462.09c-1.56,4.28-4.46,7.66-7.13,11.71-4.46,7.43-8.92,12.38-15.38,18.46-6.69,5.63-13.6,8.11-22.29,7.88-6.02-.67-10.48-3.38-12.93-9.23-2.23-18.24,0-38.96-1.56-57.64.67-5.63,0-10.13-3.34-13.29-9.36.45-13.38,10.58-18.28,17.11-11.59,14.64-17.17,31.07-21.85,49.31-.67,4.05.22,10.13-3.79,12.38-4.9,0-7.13-2.03-10.25-4.28-.45-.9-.89-2.03-.89-3.38-.22-3.15.67-7.43.22-10.81-.22-.45-.67-.9-.45-1.58.89-3.15,0-9.23,0-12.83.67-31.3,0-62.6,2.01-93.67-.67-2.48-1.34-5.18-.45-7.66.45-3.6-.67-7.43-.89-10.58,0-2.03,1.11-5.4,3.79-5.63,2.45-.23,3.12,1.58,5.13,2.25,0,1.8,2.45,2.7,2.9,3.83,2.45,3.83,2.01,7.66,2.9,12.38.45,5.4-1.78,10.13-.45,15.76-.89,1.13-.67,4.28,0,6.08-.45,1.58-.45,4.28-.45,6.76-.67,3.15.22,4.5-.89,7.21,0,3.15.22,4.28,0,7.66,0,9.01-1.34,17.11-.22,26.12-.45,4.05-.45,7.88,0,11.93,2.9-.9,3.34-5.85,6.02-8.11,2.23-4.73,5.57-7.66,7.58-11.93,6.69-9.23,13.38-18.91,25.64-20.27,10.26.23,17.17,9.91,19.4,19.14,1.78,18.92.89,38.96,1.11,57.64-.22,1.13.22,2.48,1.12,3.6,8.47.23,12.26-3.38,17.61-8.11,9.59-8.33,15.16-18.24,20.51-27.47,3.34-5.63,6.46-11.71,8.69-18.69,1.56-5.18,3.12-6.75,5.35-8.33,1.34.9,1.56,5.85.89,8.56-2.01,9.91-5.13,18.24-9.36,27.7Z"></path><path class="cls-2" d="m1416.71,476.05c2.45,1.8.89,5.4,0,8.33-1.11,2.93-2.45,6.53-4.46,8.78-1.56,2.03-5.35,5.18-7.8,5.4-6.02.9-11.59-4.28-12.04-8.33.67-17.34-1.34-33.33,0-50.89.89-8.11.22-21.39,1.56-29.27,3.12-3.38,6.47-3.6,10.48-.9,1.34,1.8,2.01,3.83,2.01,5.85-1.34,9.01.89,18.91-.89,27.92,0,5.18.67,10.58-.45,14.19,2.67,6.3-.45,14.86,1.34,23.42,4.68,0,5.57-6.08,10.25-4.5Zm-10.25-102.9c1.11.9,2.9,2.25,2.9,3.83.22,1.8-1.78,5.4-3.34,5.85-2.45.9-10.26-3.6-10.7-6.75-.22-3.15,2.01-4.73,4.46-5.4,3.34-.9,4.46.45,6.69,2.48Z"></path><path class="cls-2" d="m1563.19,425.84c1.34.9,1.56,5.85.89,8.56-1.56,7.43-4.46,14.41-6.47,22.07-4.46,10.13-10.26,20.49-17.39,28.82-7.36,7.88-16.72,14.64-27.2,15.76-2.01.22-4.01.9-6.24.45-4.9-.68-8.69-2.25-12.04-5.85-5.35-11.26-3.57-26.12-3.79-37.6-.22-13.06,1.34-26.34,1.34-39.18.45-2.25.89-6.31,1.12-9.23,1.56-1.35,3.34-2.48,6.69-2.03,1.34,1.58,4.01,2.48,3.79,5.85,1.34,7.43,1.78,15.54,1.78,23.42,0,.9-1.34,1.8-1.34,2.7,0,1.58.67,4.28.67,5.85-.45,10.58-1.11,20.27-.89,30.4.45,3.38.22,10.13,2.45,13.74,4.68.68,11.37-1.58,14.71-3.83,5.57-4.05,10.7-8.33,15.16-13.51,5.13-6.53,9.81-13.96,14.05-21.17,2.23-4.28,5.13-10.81,7.36-16.89,2.01-5.18,3.12-6.75,5.35-8.33Zm-57.07-49.31c-1.78,0-1.34-2.03-2.68-2.48-.89-.68-2.01-1.13-2.68-1.8-.45-1.58-1.11-2.93-.67-4.95.45-1.8,2.67-2.03,3.79-2.7,3.12-.9,5.35,1.35,6.69,2.93,2.23,1.8,4.24,4.73,2.45,7.66-2.01.9-4.46.9-6.91,1.35Z"></path><path class="cls-2" d="m1612.23,491.81c-.22-1.13-.89-2.93-.89-4.05s.89-1.8.89-2.93-.89-2.25-.89-3.15c.22-4.28,1.34-9.01,1.56-13.51.22-5.18-.45-10.58,1.11-14.64-1.11-3.6-.45-7.66-1.11-11.93l-1.12-5.63c-.22-2.48.22-4.28-.45-6.98-.89-4.73-1.56-10.13-7.58-9.01-1.56.22-2.68,1.8-4.68,3.15-3.12,2.25-6.47,4.28-8.92,6.98-5.35,9.01-10.92,18.69-15.61,28.6-.45,5.18-3.79,8.78-4.68,14.41-.67,4.05.22,8.56,0,12.83,0,.9-.67,1.8-.89,2.93-.45,4.05.45,6.76-1.78,9.01-5.13,1.35-8.92-1.35-12.04-3.15.45-12.83.22-30.62,0-47.74,0-4.73.22-9.91-.22-14.41-.22-1.58-1.12-3.6-1.34-5.4,0-1.35.67-2.7.89-4.28.45-4.05-.45-10.13,1.56-11.71,4.68-3.83,9.81,1.35,11.82,4.73-1.56,8.33-.67,18.69.45,26.12,2.23-.68,3.34-3.83,4.68-5.85,3.12-5.4,6.24-11.48,10.25-16.21,3.34-3.83,8.47-6.31,12.26-10.13,2.01.45,3.57-.9,5.13-1.13,9.14-1.13,14.94,2.48,18.5,7.43,3.34,4.5,5.57,10.36,6.47,18.24,1.34,12.83.89,32.42.45,44.81,2.45.45,4.68-4.73,7.58-3.83,4.24,10.58-5.8,24.99-18.95,20.94-.67-.68-2.23-2.7-2.45-4.5Z"></path><path class="cls-2" d="m396.74,693.38c1.34.9,1.56,5.85.89,8.56-.67,4.28-1.78,9.01-2.9,12.83-8.03,18.92-13.38,28.82-26.08,43.01-3.57,2.03-6.47,5.85-10.48,7.43-3.12,1.35-6.91,2.93-10.7,2.93-2.23-.23-6.02-2.25-8.47-2.25-4.9-2.93-6.91-7.43-8.25-12.83-.45-1.58-.22-3.15-.45-4.95-.22-1.13-1.11-2.25-1.11-3.38-.22-1.35,0-2.93,0-4.28,0,.23.45-.22.45-.45,0-.9-.22-1.58-.89-2.25-1.56-.45-1.34,1.13-1.78,2.03-3.34,6.08-7.8,12.38-12.93,17.11-3.79,4.5-7.13,8.56-12.49,8.78-7.13,0-14.71-2.93-19.62-9.01-4.24-6.98-6.91-15.76-6.91-25.44.22-8.11-.22-16.89,2.45-24.99,2.01-9.01,6.69-18.92,15.16-23.42,7.58-4.73,17.84-6.3,25.86-6.08,6.24.22,12.49,2.25,17.84,3.38.45.23,3.12,2.03,3.12,3.15,0,.45.89.9,1.11,1.35,1.11,2.93.67,7.88.89,12.38,0,2.93.45,3.15.45,6.08,0,1.35-.89,2.7-.89,3.83,0,.9.67,2.25.67,3.15.22,12.38.67,26.8,1.11,38.96.89,2.48,1.11,6.08,2.45,8.33,1.11.22,2.23-.23,3.34-.68,5.57-2.48,12.48-5.18,16.27-11.03,5.13-4.95,7.36-9.46,11.82-15.09,4.68-7.21,6.91-11.26,10.7-19.59,2.01-3.83,3.12-6.53,4.01-9.23,2.01-5.18,3.12-6.75,5.35-8.33Zm-76.25-7.88c-7.58-.67-13.82-.67-19.17,4.28-9.81,7.43-10.7,21.39-13.38,32.65-.22,11.26-.22,20.94,4.68,30.62.89,1.13,2.23,2.03,3.79,2.03,5.8-.68,8.92-6.53,12.26-9.91,7.58-10.36,12.49-19.37,15.16-31.98,1.34-5.4,3.34-9.91,3.79-15.09.22-1.13.89-2.25,1.11-3.83.22-1.58.45-3.15.45-4.95-2.01-3.15-6.02-3.38-8.69-3.83Z"></path><path class="cls-2" d="m593.38,717.47c3.79-4.5,8.7-10.13,10.48-15.54,1.78-5.4,3.12-6.98,5.35-8.56,1.34.9,1.56,5.85.89,8.56-2.67,8.78-6.24,17.79-12.48,25.44-4.01,5.4-9.36,11.71-14.49,14.86-1.11.68-1.56-.23-1.78-.68-9.36,12.38-41.25,25.67-62.2,25.67-6.69,0-13.38-1.13-19.4-3.38-2.45-5.85-11.15-2.93-11.15-11.48,1.56-12.38,1.56-23.87,1.12-37.15-1.34,5.85-6.24,10.36-10.26,15.99-2.68,3.6-5.57,7.21-8.7,10.81-9.36,9.68-12.71,16.44-28.54,21.62-7.13,2.48-14.94,3.83-21.4,3.6-8.25-2.48-14.05-.22-22.96-.68-3.12,0-5.8-2.25-8.25-4.28-.45-14.64-.89-33.55-.89-51.56,0-7.43.45-14.19.45-20.94,0-2.93,0-6.08-1.11-8.78,2.45-1.13,2.23-8.78,2.23-12.16,0-13.51-2.9-23.64-.89-37.83,0-4.5-.22-9.23-.67-13.51.89-.9,2.01-1.13,3.34-1.13,2.45,0,5.13,1.13,7.13,2.25,1.11,3.6,1.34,8.56,1.56,13.51,0,14.64.67,26.12,1.11,40.53,0,3.38.22,6.98,1.11,9.46-2.68,2.7-2.23,9.23-2.23,12.83s1.11,6.75,1.11,9.46c0,2.03-1.11,5.4-1.11,9.23,0,.9,0,2.03.22,2.93,5.35-4.95,7.58-11.48,11.82-19.14,3.34-3.83,10.92-20.04,20.51-20.94,11.82-.68,21.18,13.96,23.41,29.5,1.11,7.21,2.01,14.64,2.01,21.17,0,3.38-.89,9.01-1.34,12.38,3.79-2.7,8.92-9.01,11.82-12.83,2.9-3.83,6.24-7.66,8.47-11.71,2.01-4.05,4.9-8.56,6.46-13.06,6.47-17.56,7.58-34.9,6.69-58.55,0-7.88-.45-25.89,5.13-25.89,2.68,0,4.91,1.58,7.13,2.7.22,2.03.45,4.05.45,5.85,0,4.5-.67,9.23-.67,13.96,0,2.7.22,5.18.67,8.11-.67,1.58-.89,3.15-.89,4.95,0,3.38.89,6.98.89,10.36,0,4.05-.45,8.56-.45,12.83.22,10.13-1.12,25.22.22,36.03,2.01,0,3.34-3.6,4.01-6.3,3.12-3.83,6.47-10.58,8.7-15.54,4.68-4.73,11.59-13.96,20.29-13.96,2.01,0,11.15,4.05,11.15,5.4,0-.45,11.15,19.14,11.15,38.28,0,3.6-.45,7.66-.45,11.48,0,1.58,0,2.93.22,4.28-1.78,2.25-2.67,6.98-3.34,10.13,5.8-1.13,18.28-9.68,22.07-13.06,5.35-4.05,12.04-9.46,16.28-15.54Zm-190.84,34.68c0,3.38,7.8,4.05,14.94,4.05,21.85,0,28.98-13.74,28.98-33.1,0-5.4-.45-11.48-1.56-17.11-3.12-4.5-3.79-18.92-9.36-18.92-10.26,7.88-15.38,22.29-23.19,33.33-3.79,11.93-8.03,20.49-9.81,31.75Zm107.24-24.54c-3.12,7.66-7.58,17.34-8.25,25.67,8.03.45,8.92,3.83,15.61,3.83,22.07,0,29.88-15.31,29.88-33.1,0-7.66-2.23-31.07-8.7-36.03-9.36.22-13.82,11.03-18.06,17.56-4.24,6.75-7.58,15.09-10.48,22.07Z"></path><path class="cls-2" d="m783.11,753.05c-3.57,4.5-13.38,14.86-24.97,14.86-4.46,0-8.25-2.7-12.04-4.73-.22-1.58-.67-2.7-1.34-4.28-.89-1.8-1.56-4.28-2.01-7.21-2.01-14.64-.45-29.05-.89-43.91-.67-5.85-2.23-20.49-6.91-20.49-8.03,5.18-13.15,13.06-18.28,21.17-4.24,7.21-6.91,15.76-10.03,24.54-4.9,9.23-3.12,18.24-4.24,27.7.89,3.6-2.9,3.15-4.46,5.4-1.34-.45-2.23-1.58-3.79-1.58h-.89c-.67-2.7-2.45-4.05-4.24-5.63.67-9.01.89-17.79.89-26.12,0-13.96-.67-27.7-.89-43.68-2.68-.45-7.36-.68-10.03-.68-7.13,0-14.94,1.8-22.74,1.8-1.34,0-2.45-.22-3.79-.22,4.24,10.81,5.13,25.44,4.68,37.15,0,8.33-5.35,39.86-32.1,39.86-3.79,0-6.69-1.58-9.36-1.58-.45,0-.89,0-1.34.22-.89-2.93-3.79-2.48-5.8-4.28-2.23-1.8-4.91-5.4-7.13-8.56-2.45-3.38-8.92-13.06-8.92-32.42,0-3.6,1.12-21.39,8.03-30.85.67-.9,2.45-1.8,3.79-3.38,8.47-8.56,7.58-6.3,11.59-8.56,1.78-1.13,3.12-3.38,6.69-3.38,3.12,0,8.69,1.58,11.37,2.48,6.24,2.25,14.27,2.93,22.74,2.93,9.59,0,20.73-1.8,28.98-1.8,4.01,0,6.46.67,12.26,3.6,5.35,7.21,2.9,17.56,4.46,27.47,4.24-4.73,6.91-11.26,10.48-16.89,5.13-5.18,11.37-15.31,17.84-15.31,10.48,0,18.5,6.75,21.18,16.44.45,2.48.45,5.63.89,8.78.22,2.03,1.78,7.66,1.78,9.68.45,16.21-1.11,29.27,1.56,45.26,9.36-1.35,21.4-11.03,21.4-15.09,0-.9,2.9-.68,2.9-1.58,1.56-1.35,2.01-3.15,3.79-5.4,7.8-9.46,12.93-21.84,17.39-33.1,2.01-5.18,3.12-6.75,5.35-8.33,1.34.9,1.34,5.85.89,8.56-1.78,11.71-6.02,24.54-13.15,34.23,0,3.15-8.92,13.51-11.59,16.89Zm-170.11-58.09c-3.34,6.75-6.47,11.48-6.69,19.14,0,1.58-1.34,5.4-1.34,8.11,0,4.73.67,11.93,2.23,16.89,1.78,6.08,9.81,17.79,14.49,17.79s11.82-4.73,14.49-7.43c6.46-6.53,9.36-20.72,9.36-32.65,0-19.37-6.46-30.85-16.5-30.85-6.02,0-12.48,2.03-15.16,5.63-.67.68-.22,1.8-.89,3.38Z"></path><path class="cls-2" d="m912.42,733.23c-2.67,4.73-8.92,13.74-12.48,17.79-3.57,3.15-8.7,6.98-12.49,9.91-3.57,2.25-7.36,4.73-11.37,6.08-2.9,1.13-7.13,1.35-10.7,1.8-3.12-.9-4.91-1.13-7.13-3.38-3.57-2.25-3.12-8.11-5.13-11.93.22-5.4.22-12.38.22-18.01.22-1.35,1.34-9.46.45-9.91-6.46,14.19-18.95,38.73-36.79,40.76-17.61-.45-24.75-17.11-23.86-33.55.22-15.99,1.56-31.97,11.37-44.36,7.58-6.75,16.28-11.71,26.53-11.48,7.13.68,13.82,2.48,20.51,4.95,2.01-1.35,1.34-4.5,2.23-6.75.67-17.56,0-34.23.89-52.69-.22-2.7,1.12-4.28,3.79-5.4,4.46-.45,6.02,3.83,7.36,7.66,1.78,9.68.45,19.14.89,29.5.22,1.58.67,2.93-.45,4.28,0,1.8-.22,5.63,0,8.11.45,21.39,1.11,46.39,0,68,0,7.43,0,14.86,1.56,21.84,0,1.35,3.12.45,4.46-.22,4.9-2.25,8.03-2.25,11.59-5.4,8.03-6.75,13.6-10.58,20.07-21.84,5.35-8.56,9.81-17.56,12.93-27.25,2.01-5.18,3.12-6.75,5.35-8.33,1.34.9,1.56,5.85.89,8.56-2.23,10.81-6.24,22.74-10.7,31.3Zm-80.48-45.26c-7.13,1.35-11.15,3.38-16.05,8.33-7.8,8.78-7.58,20.49-9.59,31.52.67,7.66.67,14.86,2.45,20.72.67,2.93,1.12,6.76,4.46,6.76,6.91,0,12.04-6.31,16.05-11.93,4.01-5.85,8.7-12.16,11.82-18.46.45-.9,2.23-1.58,2.68-2.48.89-2.25.89-4.73,2.01-6.98,2.9-6.3,4.68-12.16,6.69-19.36.22-2.03,1.34-3.15,0-4.28-5.8-.9-14.04-4.5-20.51-3.83Z"></path><path class="cls-2" d="m1031.7,693.38c1.34.9,1.56,5.85.89,8.56-.67,4.28-1.78,9.01-2.9,12.83-8.03,18.92-13.38,28.82-26.08,43.01-3.57,2.03-6.47,5.85-10.48,7.43-3.12,1.35-6.91,2.93-10.7,2.93-2.23-.23-6.02-2.25-8.47-2.25-4.91-2.93-6.91-7.43-8.25-12.83-.45-1.58-.22-3.15-.45-4.95-.22-1.13-1.12-2.25-1.12-3.38-.22-1.35,0-2.93,0-4.28,0,.23.45-.22.45-.45,0-.9-.22-1.58-.89-2.25-1.56-.45-1.34,1.13-1.78,2.03-3.34,6.08-7.8,12.38-12.93,17.11-3.79,4.5-7.13,8.56-12.48,8.78-7.13,0-14.71-2.93-19.62-9.01-4.24-6.98-6.91-15.76-6.91-25.44.22-8.11-.22-16.89,2.45-24.99,2.01-9.01,6.69-18.92,15.16-23.42,7.58-4.73,17.84-6.3,25.86-6.08,6.24.22,12.49,2.25,17.84,3.38.45.23,3.12,2.03,3.12,3.15,0,.45.89.9,1.12,1.35,1.11,2.93.67,7.88.89,12.38,0,2.93.45,3.15.45,6.08,0,1.35-.89,2.7-.89,3.83,0,.9.67,2.25.67,3.15.22,12.38.67,26.8,1.12,38.96.89,2.48,1.11,6.08,2.45,8.33,1.11.22,2.23-.23,3.34-.68,5.57-2.48,12.49-5.18,16.28-11.03,5.13-4.95,7.36-9.46,11.82-15.09,4.68-7.21,6.91-11.26,10.7-19.59,2.01-3.83,3.12-6.53,4.01-9.23,2.01-5.18,3.12-6.75,5.35-8.33Zm-76.25-7.88c-7.58-.67-13.82-.67-19.17,4.28-9.81,7.43-10.7,21.39-13.38,32.65-.22,11.26-.22,20.94,4.68,30.62.89,1.13,2.23,2.03,3.79,2.03,5.8-.68,8.92-6.53,12.26-9.91,7.58-10.36,12.49-19.37,15.16-31.98,1.34-5.4,3.34-9.91,3.79-15.09.22-1.13.89-2.25,1.12-3.83s.45-3.15.45-4.95c-2.01-3.15-6.02-3.38-8.69-3.83Z"></path><path class="cls-2" d="m1160.56,766.78c-4.9-.23-9.14,1.8-12.48,1.8-8.03,0-10.48-9.91-7.13-14.86,3.79.45,3.12-1.13,5.8-.23,1.56-4.28,7.8-11.48,7.8-16.21,7.36-11.48,13.38-24.32,20.29-36.48,1.78-3.6,4.24-8.56,6.47-11.71-2.01-.45-4.24-.45-6.47-.45-3.79,0-8.69,1.13-12.93,1.13-3.34,0-8.03.45-11.15-.45-4.24.45-9.59,17.11-12.71,24.99-3.57,9.23-9.59,20.94-13.6,30.4-.45.68-2.01,1.13-2.45,1.8-1.56,2.03-2.45,6.3-5.13,7.21v.9c0,.9-.22,1.58-.67,2.25-4.24,5.18-13.15,10.13-21.18,10.36-10.92,0-13.82-8.33-13.82-15.09,0-2.7.22-6.75.22-9.68,0-3.83-.89-6.76-.89-11.48,0-4.28.22-9.23.22-13.96-1.56-9.01.89-20.49-5.57-27.47-7.13,1.58-12.49,7.66-16.94,13.06-7.36,7.43-10.92,15.54-15.38,25.22-4.91,10.58-6.24,20.49-5.57,32.2,0,1.8-.22,5.63-3.57,5.63-3.12,0-5.57-2.25-8.92-2.93-.89-3.6-1.34-8.11-1.34-12.38,0-5.4.45-11.26.45-17.34,0-12.61.22-27.7-1.11-39.86-.22-1.8-.22-4.05-.22-6.53,0-5.63,0-11.93,4.68-11.93,12.48,0,6.46,20.94,10.03,35.13,9.36-11.26,18.73-29.5,34.56-32.88,4.46,0,8.7,2.03,12.49,3.83,1.11,2.48,4.68,6.08,6.24,9.68.89,4.28,1.12,8.56,2.23,12.83,1.34,15.76.67,34.23,1.56,52.02,6.47-2.93,16.94-11.93,21.85-18.69,5.8-15.54,15.61-29.72,18.95-38.28,1.34-2.48,2.23-6.08,2.23-8.56,0-1.58-.45-2.93-1.56-4.28,1.34-3.6,3.79-6.3,7.58-8.78,5.57,1.58,12.49.9,20.29.9,7.36,0,15.38-2.25,21.4-2.25,2.45,0,11.15,2.93,11.15,9.46,0,1.58-.67,2.93-2.23,4.28-1.34,5.63-6.47,11.26-8.92,16.44-8.25,16.89-16.5,31.97-25.64,48.86,2.01.45,12.48-.45,14.49-1.13,1.78.45,4.24,1.58,10.92,1.58,22.52,0,22.74-9.01,33.22-18.46,5.57-11.71,13.6-22.07,17.84-34.68,2.01-5.18,3.12-6.75,5.35-8.33,1.34.9,1.34,5.85.89,8.56-1.34,6.98-3.57,15.54-6.24,19.81-6.47,12.38-16.05,34-32.1,41.43-8.7,3.6-18.95,4.05-28.09,2.25-6.69,1.58-10.48,1.58-15.16,1.35Z"></path><path class="cls-2" d="m1308.82,747.64c.89,1.35,1.12,2.93,1.12,4.5,0,8.78-9.81,14.86-15.61,14.86-11.15,0-11.82-15.76-11.82-26.35v-1.8c-7.8,8.78-14.49,25.22-28.31,26.8-20.96-.45-24.97-21.17-24.97-39.41,0-14.86,2.68-29.95,12.93-40.76,7.8-6.53,19.17-9.23,29.21-9.23,6.24,0,13.38,2.7,19.17,3.38,6.69,3.38,5.57,16.89,5.57,24.77,0,10.58-.67,20.94-.67,31.75,0,3.38,0,6.76.22,10.13v2.48c0,2.7.22,5.18,3.57,5.18,3.79-1.13,5.35-5.4,9.59-6.3Zm-59.08,7.43c10.03-.9,20.96-19.82,26.31-34.68,2.01-10.13,6.91-20.27,6.91-30.62-2.01-4.73-10.7-4.95-14.49-4.95-8.03,0-16.28,7.21-19.17,10.81-.22,1.13-.67,3.6-1.78,5.18-4.01,8.33-5.57,18.91-5.57,27.47,0,2.93.22,5.63.89,8.33.45,6.75,1.34,14.41,6.91,18.46Z"></path></g></svg> 