<?xml version="1.0" encoding="UTF-8"?> <svg xmlns="http://www.w3.org/2000/svg" viewBox="0 0 1920 840"><defs><style>.cls-1{fill:#e2dcef;}.cls-2{fill:#29235c;}</style></defs><g id="background"><rect class="cls-1" x="0" y="0" width="1920" height="840"></rect></g><g id="Capa_2"><path class="cls-2" d="m130.23,271.43q-33.04-81.48-24.08-81.48c3.92,0,2.24-.56,25.76,58.24,1.12,2.66,9.1,25.2,10.64,25.2,2.38,0,24.64-56.14,33.46-77.28,1.68-4.06,1.26-5.74,7.28-5.88,1.68,0,4.34.42,4.34,3.08-44.24,102.76-41.16,101.64-45.36,101.36-3.22-.28-2.66,0-12.04-23.24Z"></path><path class="cls-2" d="m194.77,217.25c-2.8-3.78,3.08-10.08,5.88-6.58,5.18,6.58-2.66,10.78-5.88,6.58Zm7.98,34.72c.28,32.2-.7,36.54,4.2,36.54,7,0,6.58-3.92,7.56-.98,1.4,4.2-.28,8.12-9.66,8.12-10.64,0-10.64-8.68-10.64-32.2s-.7-26.46,3.78-26.46,4.62,0,4.76,14.98Z"></path><path class="cls-2" d="m267.01,241.61c0,2.1-1.4,2.66-3.22,2.66-1.54,0-1.12-.84-7.28-.84-12.32,0-21.98,11.2-21.98,24.64,0,8.82,6.72,19.04,16.38,19.04,12.18,0,13.3-10.08,20.44-10.08,1.26,0,1.54,1.26,1.54,2.24,0,6.3-10.22,15.54-22.12,15.54-16.38,0-24.08-15.82-24.08-27.02,0-21,15.54-32.62,29.68-32.62,4.76,0,10.64,0,10.64,6.44Z"></path><path class="cls-2" d="m301.73,217.25c-.28,19.46-.98,19.04,3.22,19.04,9.66,0,10.36-.42,10.36,3.36,0,3.22.7,3.5-7,3.5s-7.42-.84-7.14,17.08c.28,17.08.14,28.28,8.54,28.28,9.1,0,12.04-10.08,12.04,0,0,4.2-9.38,7.84-12.74,7.84-16.1,0-15.96-17.22-16.1-37.38-.14-16.24.56-15.54-4.9-15.54-6.16,0-6.16-.56-6.16-3.08,0-5.04.42-3.78,8.12-3.92,4.48-.14,3.22.84,3.78-20.16.28-9.66-.14-9.94,5.88-9.94,2.94,0,2.24.28,2.1,10.92Z"></path><path class="cls-2" d="m389.79,264.99c0,15.26-13.44,30.94-28.84,30.94-13.72,0-31.64-13.02-31.36-28.14.28-19.88,9.94-32.2,30.66-32.2,16.66,0,29.54,12.32,29.54,29.4Zm-51.94,1.82c.28,10.36,11.2,20.72,21.28,20.72,11.2,0,23.24-10.92,21.84-24.22-.98-8.82-7.42-19.04-21.84-19.32-15.4-.28-21.56,12.46-21.28,22.82Z"></path><path class="cls-2" d="m434.45,236.57c7.84,0,15.54,3.5,10.78,8.82-1.54,1.68-7-2.1-11.06-1.26-5.74,1.12-12.04,5.32-15.96,15.12-2.52,6.3-3.22,14.28-3.22,23.24,0,12.04.28,13.3-3.92,13.44-4.76.14-4.34,1.12-4.34-30.52,0-8.96-.28-20.02,0-28.84l3.78-.42c5.04,1.54,3.64.56,4.06,10.22.14,3.36,8.68-9.8,19.88-9.8Z"></path><path class="cls-2" d="m522.93,249.87c-.56,52.08,2.1,80.08-9.94,83.02-6.44,1.54-20.16-11.2-16.94-16.8,3.22-5.6,10.36,9.8,14.56,7.42,4.48-2.52,4.34-10.78,4.34-59.5,0-27.16-.7-29.4,3.36-29.4,5.6,0,4.76,1.54,4.62,15.26Zm-3.78-33.6c-5.46,0-5.6-8.68-.7-8.68,5.74,0,5.46,8.68.7,8.68Z"></path><path class="cls-2" d="m582.85,257.29c0,9.38-3.78,30.38,10.08,30.38,2.66,0,5.04-4.9,5.04-.42,0,5.32-5.18,8.12-6.44,8.12-4.06,0-9.8-1.26-11.48-5.46-.42-1.12-1.12-3.64-2.66-3.64-2.52,0-10.36,9.38-23.66,9.38s-20.16-11.76-20.16-24.5c0-15.82,10.78-33.46,29.82-33.46,13.58,0,19.46,6.58,19.46,19.6Zm-18.2-11.9c-12.46,0-23.1,10.64-23.1,24.92,0,5.18,3.08,16.24,8.82,17.36,6.3,1.26,12.88-.7,17.64-5.04,6.3-5.88,5.74-8.68,5.74-17.08.42-9.66,1.54-20.16-9.1-20.16Z"></path><path class="cls-2" d="m651.45,239.79c4.48,0,5.6-.14,5.46,6.3-.28,12.88-.14,26.46-.14,39.34.14,28.14-1.68,48.72-24.78,48.72-13.86,0-25.2-9.38-22.82-13.72,4.9-9.1,5.04,6.3,21.84,6.3,16.94-.84,16.66-17.64,17.36-30.38.14-2.1.28-7-1.82-8.26-1.54.14-9.1,7.84-19.46,7.84-16.24,0-22.82-14.7-22.82-29.12,0-18.06,11.34-31.78,29.4-32.06,10.92-.14,14.14,5.04,17.78,5.04Zm-38.64,28.84c0,9.66,3.36,19.32,14,19.32,14.7,0,21.42-12.32,21.42-25.2,0-11.06.84-20.3-14.14-20.3s-21.28,11.48-21.28,26.18Z"></path><path class="cls-2" d="m687.29,217.25c-.28,19.46-.98,19.04,3.22,19.04,9.66,0,10.36-.42,10.36,3.36,0,3.22.7,3.5-7,3.5s-7.42-.84-7.14,17.08c.28,17.08.14,28.28,8.54,28.28,9.1,0,12.04-10.08,12.04,0,0,4.2-9.38,7.84-12.74,7.84-16.1,0-15.96-17.22-16.1-37.38-.14-16.24.56-15.54-4.9-15.54-6.16,0-6.16-.56-6.16-3.08,0-5.04.42-3.78,8.12-3.92,4.48-.14,3.22.84,3.78-20.16.28-9.66-.14-9.94,5.88-9.94,2.94,0,2.24.28,2.1,10.92Z"></path><path class="cls-2" d="m783.6,236.15c22.68-.14,26.18-.84,27.16,2.38,0,3.08-32.06,41.86-35.7,48.86-.28.7,10.78.14,30.38-.14,8.4-.14,9.1.28,9.1,4.48,0,3.92-.42,3.5-19.04,3.5-30.52,0-33.32.84-31.64-4.9,1.68-5.6,32.2-44.24,32.76-45.22,1.4-2.52-2.94-1.82-14.42-1.82-18.62,0-20.72,1.26-20.72-4.48,0-3.36,2.1-2.52,22.12-2.66Z"></path><path class="cls-2" d="m827.14,235.87c2.8,0,3.5-.28,5.88,8.68,6.16,22.96,7.28,32.9,9.52,32.9.98,0,7.28-16.52,11.9-28.56,3.22-8.4,3.5-10.5,6.44-10.5,3.22,0,3.92,2.1,7.7,14,3.78,11.9,9.1,25.48,10.92,25.48,1.54,0,2.8-4.76,10.08-27.86,4.2-13.3,4.76-13.3,7.98-13.3,1.82,0,4.06.7,3.5,2.66-6.58,22.82-14.84,53.62-20.58,53.62-6.72,0-13.86-29.96-19.6-36.82-12.32,26.6-16.8,37.1-20.16,37.1-6.02,0-6.44-8.12-16.1-52.5-1.26-6.02,0-4.9,2.52-4.9Z"></path><path class="cls-2" d="m967.84,264.99c0,15.26-13.44,30.94-28.84,30.94-13.72,0-31.64-13.02-31.36-28.14.28-19.88,9.94-32.2,30.66-32.2,16.66,0,29.54,12.32,29.54,29.4Zm-48.44-47.04c-7.14,0-4.76-9.8-.42-9.8,8.12,0,7.14,9.8.42,9.8Zm-3.5,48.86c.28,10.36,11.2,20.72,21.28,20.72,11.2,0,23.24-10.92,21.84-24.22-.98-8.82-7.42-19.04-21.84-19.32-15.4-.28-21.56,12.46-21.28,22.82Zm36.26-48.72c-9.66,0-5.74-9.94-1.26-9.94,7.98,0,5.46,9.94,1.26,9.94Z"></path><path class="cls-2" d="m987.44,198.63c.14,11.48,0,20.02,0,43.12,0,44.24-.56,41.16,3.36,44.94,5.88,5.6,20.02-7.84,20.02,2.66,0,4.76-11.76,7-15.82,7-17.64,0-15.68-7.56-15.68-52.5,0-23.1,0-21.28.42-46.06.14-6.58.28-7.84,4.34-7.84,3.08,0,3.22,1.26,3.36,8.68Z"></path><path class="cls-2" d="m1065.98,198.35c0,7.84-5.6.28-13.3.28-12.88,0-14.56,15.26-14.7,23.38-.14,4.06,0,7.56.28,11.62,16.8,0,19.18-.98,19.18,3.92,0,3.92-5.32,3.78-19.04,4.62-.42,3.78.7,42.7.7,47.32.14,22.82,1.12,24.92-4.2,25.34s-4.34-16.8-4.62-28.7l-1.12-44.38c-11.34-.14-13.44.98-13.44-4.76,0-2.38,1.68-2.52,6.58-2.52,10.08,0,6.72.28,7.84-15.68,1.4-20.58,9.1-27.58,21.7-27.58,3.92,0,14.14,1.82,14.14,7.14Z"></path><path class="cls-2" d="m1120.57,186.45c17.08,0,40.46,3.78,40.46,25.76,0,9.94-6.44,18.2-14.7,25.2,11.48,7.14,22.68,9.24,22.68,27.58s-18.34,31.08-35.42,31.08c-15.82,0-23.38.84-23.38-3.22,0-29.68,1.26-93.94,1.26-97.02v-7.42c.98-2.52,6.86-1.96,9.1-1.96Zm11.76,58.1c-11.62,0-12.04-1.54-12.88,9.38-.14,1.96-.42,21.7,0,33.6,2.66.28,7.42.42,10.08.42,13.72,0,30.52-4.48,30.52-24.78,0-11.48-16.1-18.62-27.72-18.62Zm-12.04-35.56c0,23.52-1.82,26.46,3.92,26.46,15.82,0,28-12.18,28-25.48,0-8.4-10.22-14.42-21.56-14.42-10.5,0-10.36-2.1-10.36,13.44Z"></path><path class="cls-2" d="m1239.99,264.99c0,15.26-13.44,30.94-28.84,30.94-13.72,0-31.64-13.02-31.36-28.14.28-19.88,9.94-32.2,30.66-32.2,16.66,0,29.54,12.32,29.54,29.4Zm-51.94,1.82c.28,10.36,11.2,20.72,21.28,20.72,11.2,0,23.24-10.92,21.84-24.22-.98-8.82-7.42-19.04-21.84-19.32-15.4-.28-21.56,12.46-21.28,22.82Z"></path><path class="cls-2" d="m1265.05,263.45c0-2.38-5.74-8.4-9.94-13.72-7.28-9.1-6.58-10.92-4.34-12.32,4.48-2.8,4.62-.14,10.22,7.14,6.86,8.96,6.58,10.08,8.26,10.08,2.38,0,3.78-2.24,11.06-12.74,2.66-3.92,3.22-4.9,5.32-4.9,1.82,0,4.9.7,4.9,2.94,0,2.1-12.88,18.06-13.44,22.26,1.12,7.84,17.08,22.82,19.04,28.28.28.98-4.48,5.88-5.18,5.04-6.44-7.28-17.08-23.66-19.46-24.22-2.24-.56-12.04,15.96-17.5,23.94-.84,1.12-7.56-2.1-6.72-3.36,7.98-12.6,17.78-27.16,17.78-28.42Z"></path><path class="cls-2" d="m1314.05,224.25l.14,33.18c0,3.5,25.48-21.28,31.92-21.28,5.74,0,3.92,2.94,3.36,4.2-.84,1.82-27.58,21.42-27.58,24.5s26.04,21.28,29.96,21.28c5.46,0,9.52-5.18,9.52,0,0,3.78-6.02,8.12-9.38,8.12-8.54,0-30.52-21.28-35.84-21.28-3.22,0-2.52,4.48-2.52,13.16,0,7.7-.56,8.4-3.78,8.4-4.06,0-3.5,1.54-3.5-52.5,0-42.42-.7-52.36,2.1-52.36,7.56,0,5.6,1.68,5.6,34.58Z"></path><path class="cls-2" d="m1413.31,257.29c0,9.38-3.78,30.38,10.08,30.38,2.66,0,5.04-4.9,5.04-.42,0,5.32-5.18,8.12-6.44,8.12-4.06,0-9.8-1.26-11.48-5.46-.42-1.12-1.12-3.64-2.66-3.64-2.52,0-10.36,9.38-23.66,9.38s-20.16-11.76-20.16-24.5c0-15.82,10.78-33.46,29.82-33.46,13.58,0,19.46,6.58,19.46,19.6Zm-39.62-42.56c7.14,0,7.28,8.68.56,8.68-4.76,0-7-8.68-.56-8.68h0Zm21.42,30.66c-12.46,0-23.1,10.64-23.1,24.92,0,5.18,3.08,16.24,8.82,17.36,6.3,1.26,12.88-.7,17.64-5.04,6.3-5.88,5.74-8.68,5.74-17.08.42-9.66,1.54-20.16-9.1-20.16Zm16.94-21.7c-7.84,0-7.56-8.54-1.96-8.54,7.7,0,5.46,8.54,1.96,8.54Z"></path><path class="cls-2" d="m1442.15,246.79c2.1-1.68,6.72-9.8,19.04-9.52,12.6.28,17.78,8.68,18.2,8.4,4.06-2.8,12.74-9.66,21.14-8.26,9.1,1.54,18.62,4.76,18.62,24.78,0,6.58-2.94,28.42,5.88,25.34,2.8-.98,6.3-5.04,6.3.56,0,5.04-3.92,7.42-6.86,7.56-26.32,1.26-3.78-46.2-22.4-48.72-7.28-.98-13.16,1.12-15.82,5.32-5.04,7.98-4.06,10.92-4.48,35.56-.14,7.98-1.12,7.98-3.92,7.98-5.74,0-4.9-1.26-4.9-8.54v-27.44c0-13.44-7.84-14.28-13.3-13.72-8.26.84-14.56,8.68-16.38,13.44-1.54,3.92-1.54,12.18-1.54,29.12,0,7.42-1.54,7-3.5,7-4.62,0-4.76-1.68-4.76-10.5.28-49.28-.28-49.28,3.5-49.14,5.74.28,4.48-.42,5.18,10.78Z"></path><path class="cls-2" d="m1547.01,237.55c.7-.84,1.68-1.82,2.94-1.82,4.62,0,4.48,1.4,4.48,8.54,0,1.12-.56,8.82,1.12,8.82.98,0,1.82-1.54,2.1-2.1,3.64-8.4,15.26-15.26,24.36-15.26,10.92,0,23.1,13.3,23.1,24.08,0,15.68-15.26,35.42-31.22,35.42-8.82,0-15.4-6.58-18.76-6.58-.98,0-.7,5.18-.84,5.74-.42,6.16-.42,12.32-.42,18.48,0,18.76.28,21.28-3.78,21.28-5.46,0-4.06-2.38-4.06-58.52,0-3.22,0-36.96.98-38.08Zm9.1,36.68c0,5.88,12.18,13.02,18.06,13.02,11.62,0,22.82-14.84,22.82-25.76,0-9.8-7.56-16.94-15.4-16.94-13.58,0-25.48,17.5-25.48,29.68Z"></path><path class="cls-2" d="m1662.79,198.35c0,7.84-5.6.28-13.3.28-12.88,0-14.56,15.26-14.7,23.38-.14,4.06,0,7.56.28,11.62,16.8,0,19.18-.98,19.18,3.92,0,3.92-5.32,3.78-19.04,4.62-.42,3.78.7,42.7.7,47.32.14,22.82,1.12,24.92-4.2,25.34s-4.34-16.8-4.62-28.7l-1.12-44.38c-11.34-.14-13.44.98-13.44-4.76,0-2.38,1.68-2.52,6.58-2.52,10.08,0,6.72.28,7.84-15.68,1.4-20.58,9.1-27.58,21.7-27.58,3.92,0,14.14,1.82,14.14,7.14Z"></path><path class="cls-2" d="m1714.87,250.29c0,11.2-13.3,21.7-30.66,22.82-1.26.14-7.28-.98-6.72.7,2.94,8.82,6.16,13.3,14.98,13.3,15.26,0,25.62-20.3,25.62-5.88,0,7.84-19.74,14.56-26.18,14.56-23.8,0-30.38-35.42-16.66-50.12,6.86-7.42,15.4-9.1,22.26-9.38,9.66-.42,17.36,3.36,17.36,14Zm-38.36,10.5c-1.54,6.16-.56,5.04,7.98,4.2,13.72-1.4,29.26-12.74,20.02-19.04-7.42-5.04-23.94-1.54-28,14.84Z"></path><path class="cls-2" d="m1761.07,236.57c7.84,0,15.54,3.5,10.78,8.82-1.54,1.68-7-2.1-11.06-1.26-5.74,1.12-12.04,5.32-15.96,15.12-2.52,6.3-3.22,14.28-3.22,23.24,0,12.04.28,13.3-3.92,13.44-4.76.14-4.34,1.12-4.34-30.52,0-8.96-.28-20.02,0-28.84l3.78-.42c5.04,1.54,3.64.56,4.06,10.22.14,3.36,8.68-9.8,19.88-9.8Z"></path><path class="cls-2" d="m148.57,408.77c1.82,0,1.12-2.66,4.62-2.66,4.48,0,5.32,3.64,5.32,7.56,0,7-.42,14.14-.98,21-1.12,11.9-1.54,23.8-1.54,35.7,0,27.02,2.52,31.36-4.34,31.36l-.98-.14c-3.08-.7-2.38-6.3-2.38-22.96,0-7.84.14-17.36-.42-25.2-8.26,5.18-17.08,10.36-26.18,10.36-12.04,0-19.32-9.66-19.32-21,0-23.24,18.62-38.22,33.6-38.22,7,0,10.64,4.2,12.6,4.2Zm-37.66,34.3c0,4.48,3.22,12.74,10.5,12.74,14.42,0,28.42-11.76,28.42-27.02,0-7-4.62-15.54-12.74-15.54-15.96,0-26.18,11.34-26.18,29.82Z"></path><path class="cls-2" d="m173.63,404.57c4.34,0,3.78,1.54,3.78,9.94,0,31.36.56,40.6,14.7,40.6,9.52,0,14.84-15.68,15.26-36.26.28-12.18-.84-14,3.5-14,5.04,0,4.2,3.5,4.06,14.98-.28,15.54-1.82,34.44,8.4,34.44,3.36,0,8.96-7,8.96-2.1,0,4.48-1.96,7.56-9.66,9.66-5.88,1.54-9.66-3.22-13.02-9.94-10.5,16.1-27.86,14.28-35.84,1.68-3.36-5.32-4.34-16.1-4.34-27.86,0-17.08-.42-21.14,4.2-21.14Z"></path><path class="cls-2" d="m287.87,418.28c0,11.2-13.3,21.7-30.66,22.82-1.26.14-7.28-.98-6.72.7,2.94,8.82,6.16,13.3,14.98,13.3,15.26,0,25.62-20.3,25.62-5.88,0,7.84-19.74,14.56-26.18,14.56-23.8,0-30.38-35.42-16.66-50.12,6.86-7.42,15.4-9.1,22.26-9.38,9.66-.42,17.36,3.36,17.36,14Zm-38.36,10.5c-1.54,6.16-.56,5.04,7.98,4.2,13.72-1.4,29.26-12.74,20.02-19.04-7.42-5.04-23.94-1.54-28,14.84Z"></path><path class="cls-2" d="m334.07,404.57c7.84,0,15.54,3.5,10.78,8.82-1.54,1.68-7-2.1-11.06-1.26-5.74,1.12-12.04,5.32-15.96,15.12-2.52,6.3-3.22,14.28-3.22,23.24,0,12.04.28,13.3-3.92,13.44-4.76.14-4.34,1.12-4.34-30.52,0-8.96-.28-20.02,0-28.84l3.78-.42c5.04,1.54,3.64.56,4.06,10.22.14,3.36,8.68-9.8,19.88-9.8Z"></path><path class="cls-2" d="m401.69,404.57c4.34,0,3.78,1.54,3.78,9.94,0,31.36.56,40.6,14.7,40.6,9.52,0,14.84-15.68,15.26-36.26.28-12.18-.84-14,3.5-14,5.04,0,4.2,3.5,4.06,14.98-.28,15.54-1.82,34.44,8.4,34.44,3.36,0,8.96-7,8.96-2.1,0,4.48-1.96,7.56-9.66,9.66-5.88,1.54-9.66-3.22-13.02-9.94-10.5,16.1-27.86,14.28-35.84,1.68-3.36-5.32-4.34-16.1-4.34-27.86,0-17.08-.42-21.14,4.2-21.14Zm3.22-15.4c-8.12,0-8.26-10.08-.98-10.08,6.16,0,7.28,10.08.98,10.08Zm32.76-.42c-8.26,0-5.46-9.66-1.12-9.66,6.86,0,7.84,9.66,1.12,9.66Z"></path><path class="cls-2" d="m474.35,360.33c0,14.14-.28,38.92-.28,47.74,0,1.96.98.56,1.82.28,1.96-.7,5.46-4.62,13.86-4.62,15.4,0,27.16,9.52,27.16,25.2s-7.84,26.18-18.9,30.94c-7.98,3.5-12.6,3.36-21.14,3.64-14,.56-11.62-.7-11.62-27.86,0-13.72.14-48.72.42-72.24,0-7.14,8.68-5.46,8.68-3.08Zm12.88,51.66c-6.86,1.12-11.06,5.74-13.02,8.96-.84,1.4-.7,13.44-.7,28.42,0,5.32,3.78,6.58,9.24,6.58,5.18,0,10.08-1.68,17.92-7.98,7.84-6.3,8.12-12.46,8.12-19.18,0-14.56-13.02-18.2-21.56-16.8Z"></path><path class="cls-2" d="m575.99,418.28c0,11.2-13.3,21.7-30.66,22.82-1.26.14-7.28-.98-6.72.7,2.94,8.82,6.16,13.3,14.98,13.3,15.26,0,25.62-20.3,25.62-5.88,0,7.84-19.74,14.56-26.18,14.56-23.8,0-30.38-35.42-16.66-50.12,6.86-7.42,15.4-9.1,22.26-9.38,9.66-.42,17.36,3.36,17.36,14Zm-38.36,10.5c-1.54,6.16-.56,5.04,7.98,4.2,13.72-1.4,29.26-12.74,20.02-19.04-7.42-5.04-23.94-1.54-28,14.84Z"></path><path class="cls-2" d="m622.19,404.57c7.84,0,15.54,3.5,10.78,8.82-1.54,1.68-7-2.1-11.06-1.26-5.74,1.12-12.04,5.32-15.96,15.12-2.52,6.3-3.22,14.28-3.22,23.24,0,12.04.28,13.3-3.92,13.44-4.76.14-4.34,1.12-4.34-30.52,0-8.96-.28-20.02,0-28.84l3.78-.42c5.04,1.54,3.64.56,4.06,10.22.14,3.36,8.68-9.8,19.88-9.8Z"></path><path class="cls-2" d="m733.48,449.93c.42,1.54,4.62,6.16,6.16,6.16,5.04,0,8.26-6.72,8.26-.7s-5.18,7.7-9.38,7.7c-6.72,0-7-5.18-11.2-5.18-3.64,0-8.54,5.6-19.6,5.6-16.38,0-24.08-14.42-24.08-28.56,0-20.16,18.62-31.08,29.26-31.08,9.24,0,11.48,4.2,11.48,1.96,0-14.56.14-14,.14-42.7,0-6.58,8.26-5.74,8.26-1.96,0,82.04-.56,84,.7,88.76Zm-41.72-14.98c0,13.16,6.3,21,15.96,21,14.42,0,16.1-6.02,16.1-23.38,0-8.12,1.26-20.72-10.92-20.72-9.1,0-21.14,9.94-21.14,23.1Z"></path><path class="cls-2" d="m802.78,418.28c0,11.2-13.3,21.7-30.66,22.82-1.26.14-7.28-.98-6.72.7,2.94,8.82,6.16,13.3,14.98,13.3,15.26,0,25.62-20.3,25.62-5.88,0,7.84-19.74,14.56-26.18,14.56-23.8,0-30.38-35.42-16.66-50.12,6.86-7.42,15.4-9.1,22.26-9.38,9.66-.42,17.36,3.36,17.36,14Zm-38.36,10.5c-1.54,6.16-.56,5.04,7.98,4.2,13.72-1.4,29.26-12.74,20.02-19.04-7.42-5.04-23.94-1.54-28,14.84Z"></path><path class="cls-2" d="m824.34,415.07c2.8-2.52,6.58-10.78,19.74-10.92,31.5-.28,10.08,51.38,23.8,51.38,4.34,0,4.9-3.08,5.88-3.08,1.12,0,1.68,2.1,1.68,3.08,0,3.64-4.48,7.7-8.12,7.7-24.78,0-2.52-51.38-21.56-51.38-11.2,0-16.94,9.1-18.9,13.72-1.68,3.92-2.66,14.42-2.66,21.14-.14,14.56-.14,16.66-4.76,16.66-4.9,0-3.64-4.34-3.78-28.98,0-7.7.14-15.4.14-23.1,0-8.54.98-7.84,4.2-7.84,6.16,0,2.66,13.02,4.34,11.62Z"></path><path class="cls-2" d="m971.62,407.79c4.48,0,5.6-.14,5.46,6.3-.28,12.88-.14,26.46-.14,39.34.14,28.14-1.68,48.72-24.78,48.72-13.86,0-25.2-9.38-22.82-13.72,4.9-9.1,5.04,6.3,21.84,6.3,16.94-.84,16.66-17.64,17.36-30.38.14-2.1.28-7-1.82-8.26-1.54.14-9.1,7.84-19.46,7.84-16.24,0-22.82-14.7-22.82-29.12,0-18.06,11.34-31.78,29.4-32.06,10.92-.14,14.14,5.04,17.78,5.04Zm-38.64,28.84c0,9.66,3.36,19.32,14,19.32,14.7,0,21.42-12.32,21.42-25.2,0-11.06.84-20.3-14.14-20.3s-21.28,11.48-21.28,26.18Z"></path><path class="cls-2" d="m1021.88,404.57c7.84,0,15.54,3.5,10.78,8.82-1.54,1.68-7-2.1-11.06-1.26-5.74,1.12-12.04,5.32-15.96,15.12-2.52,6.3-3.22,14.28-3.22,23.24,0,12.04.28,13.3-3.92,13.44-4.76.14-4.34,1.12-4.34-30.52,0-8.96-.28-20.02,0-28.84l3.78-.42c5.04,1.54,3.64.56,4.06,10.22.14,3.36,8.68-9.8,19.88-9.8Z"></path><path class="cls-2" d="m1101.68,432.99c0,15.26-13.44,30.94-28.84,30.94-13.72,0-31.64-13.02-31.36-28.14.28-19.88,9.94-32.2,30.66-32.2,16.66,0,29.54,12.32,29.54,29.4Zm-51.94,1.82c.28,10.36,11.2,20.72,21.28,20.72,11.2,0,23.24-10.92,21.84-24.22-.98-8.82-7.42-19.04-21.84-19.32-15.4-.28-21.56,12.46-21.28,22.82Z"></path><path class="cls-2" d="m1161.46,380.21c0,12.74-6.72,20.44-11.62,27.44,7,2.24,11.76,4.2,17.08,10.64,19.74,23.52-1.82,51.66-22.68,43.54-14-5.46-16.38-10.22-13.3-12.46,2.94-2.1,12.88,8.54,22.26,4.48,10.64-4.62,16.94-14,10.08-26.6-6.16-11.2-25.9-12.18-25.9-15.12,0-3.78,15.4-17.92,15.4-32.34s-9.8-16.1-14.42-16.1c-18.48,0-14,40.18-15.12,86.38l.42,50.82h-6.3c-4.2,0-3.08-.28-3.08-13.86,0-19.18-1.4-91.7,4.76-115.36,3.22-12.18,12.46-16.24,20.72-16.24,13.72,0,21.7,11.9,21.7,24.78Z"></path><path class="cls-2" d="m1233.42,418.28c0,11.2-13.3,21.7-30.66,22.82-1.26.14-7.28-.98-6.72.7,2.94,8.82,6.16,13.3,14.98,13.3,15.26,0,25.62-20.3,25.62-5.88,0,7.84-19.74,14.56-26.18,14.56-23.8,0-30.38-35.42-16.66-50.12,6.86-7.42,15.4-9.1,22.26-9.38,9.66-.42,17.36,3.36,17.36,14Zm-38.36,10.5c-1.54,6.16-.56,5.04,7.98,4.2,13.72-1.4,29.26-12.74,20.02-19.04-7.42-5.04-23.94-1.54-28,14.84Z"></path><path class="cls-2" d="m1254.97,415.07c2.8-2.52,6.58-10.78,19.74-10.92,31.5-.28,10.08,51.38,23.8,51.38,4.34,0,4.9-3.08,5.88-3.08,1.12,0,1.68,2.1,1.68,3.08,0,3.64-4.48,7.7-8.12,7.7-24.78,0-2.52-51.38-21.56-51.38-11.2,0-16.94,9.1-18.9,13.72-1.68,3.92-2.66,14.42-2.66,21.14-.14,14.56-.14,16.66-4.76,16.66-4.9,0-3.64-4.34-3.78-28.98,0-7.7.14-15.4.14-23.1,0-8.54.98-7.84,4.2-7.84,6.16,0,2.66,13.02,4.34,11.62Z"></path><path class="cls-2" d="m164.39,533.09c0,2.38-.42,4.48-4.2,5.32-2.24-.14-7.56-6.3-17.64-6.3-12.18,0-21.7,9.24-21.7,21.28,0,23.1,47.6,13.72,47.6,44.94,0,20.16-11.48,32.76-32.62,32.76-15.4,0-33.6-11.76-33.6-20.3,0-1.26,3.92-6.86,5.74-3.78,13.3,22.54,50.68,22.4,50.68-7.28,0-26.6-47.6-12.88-47.6-47.18,0-16.52,16.52-29.54,30.66-29.54,11.48,0,22.68,7,22.68,10.08Z"></path><path class="cls-2" d="m188.89,600.85c-14.84-26.6-14.98-28.98-9.94-28.98,3.08,0,4.48.42,13.86,17.36,10.92,19.74,13.72,26.32,15.68,26.32,1.68,0,7.98-15.96,13.02-26.32,7.84-16.38,7.42-16.38,10.36-16.38,5.32,0,5.46,1.68-1.26,17.08-3.36,7.7-8.12,18.9-15.68,34.86-5.46,11.62-12.04,26.46-15.12,32.76-5.04,10.36-6.72,10.36-8.82,10.36-5.18,0-5.74-.42.56-14.14,11.62-25.2,9.24-20.02,10.08-24.22q.84-4.34-12.74-28.7Z"></path><path class="cls-2" d="m256.51,534.63c.14,11.48,0,20.02,0,43.12,0,44.24-.56,41.16,3.36,44.94,5.88,5.6,20.02-7.84,20.02,2.66,0,4.76-11.76,7-15.82,7-17.64,0-15.68-7.56-15.68-52.5,0-23.1,0-21.28.42-46.06.14-6.58.28-7.84,4.34-7.84,3.08,0,3.22,1.26,3.36,8.68Z"></path><path class="cls-2" d="m306.63,553.25c-.28,19.46-.98,19.04,3.22,19.04,9.66,0,10.36-.42,10.36,3.36,0,3.22.7,3.5-7,3.5s-7.42-.84-7.14,17.08c.28,17.08.14,28.28,8.54,28.28,9.1,0,12.04-10.08,12.04,0,0,4.2-9.38,7.84-12.74,7.84-16.1,0-15.96-17.22-16.1-37.38-.14-16.24.56-15.54-4.9-15.54-6.16,0-6.16-.56-6.16-3.08,0-5.04.42-3.78,8.12-3.92,4.48-.14,3.22.84,3.78-20.16.28-9.66-.14-9.94,5.88-9.94,2.94,0,2.24.28,2.1,10.92Z"></path><path class="cls-2" d="m384.05,586.28c0,11.2-13.3,21.7-30.66,22.82-1.26.14-7.28-.98-6.72.7,2.94,8.82,6.16,13.3,14.98,13.3,15.26,0,25.62-20.3,25.62-5.88,0,7.84-19.74,14.56-26.18,14.56-23.8,0-30.38-35.42-16.66-50.12,6.86-7.42,15.4-9.1,22.26-9.38,9.66-.42,17.36,3.36,17.36,14Zm-38.36,10.5c-1.54,6.16-.56,5.04,7.98,4.2,13.72-1.4,29.26-12.74,20.02-19.04-7.42-5.04-23.94-1.54-28,14.84Z"></path><path class="cls-2" d="m430.25,572.57c7.84,0,15.54,3.5,10.78,8.82-1.54,1.68-7-2.1-11.06-1.26-5.74,1.12-12.04,5.32-15.96,15.12-2.52,6.3-3.22,14.28-3.22,23.24,0,12.04.28,13.3-3.92,13.44-4.76.14-4.34,1.12-4.34-30.52,0-8.96-.28-20.02,0-28.84l3.78-.42c5.04,1.54,3.64.56,4.06,10.22.14,3.36,8.68-9.8,19.88-9.8Z"></path><path class="cls-2" d="m565.2,579.29c0,35.84-25.06,51.66-55.3,51.66-9.8,0-16.8.98-17.22-2.38-.42-2.94,1.26-2.24,1.12-11.62-.42-24.5-.42-63.28-.56-90.16-.42-.56-2.66-2.52-2.52-3.36.98-5.74,23.38-3.92,30.24-3.92,32.48,0,44.24,24.64,44.24,59.78Zm-62.44-50.68l-.14,9.52c-.14,12.18-.14,53.9.7,80.5,0,3.5,1.54,3.36,8.4,3.36,29.4,0,44.66-18.06,44.66-43.68s-8.26-48.86-31.92-49.98c-7.28-.28-14.56,0-21.7.28Z"></path><path class="cls-2" d="m625.4,586.28c0,11.2-13.3,21.7-30.66,22.82-1.26.14-7.28-.98-6.72.7,2.94,8.82,6.16,13.3,14.98,13.3,15.26,0,25.62-20.3,25.62-5.88,0,7.84-19.74,14.56-26.18,14.56-23.8,0-30.38-35.42-16.66-50.12,6.86-7.42,15.4-9.1,22.26-9.38,9.66-.42,17.36,3.36,17.36,14Zm-38.36,10.5c-1.54,6.16-.56,5.04,7.98,4.2,13.72-1.4,29.26-12.74,20.02-19.04-7.42-5.04-23.94-1.54-28,14.84Z"></path><path class="cls-2" d="m642.06,553.25c-2.8-3.78,3.08-10.08,5.88-6.58,5.18,6.58-2.66,10.78-5.88,6.58Zm7.98,34.72c.28,32.2-.7,36.54,4.2,36.54,7,0,6.58-3.92,7.56-.98,1.4,4.2-.28,8.12-9.66,8.12-10.64,0-10.64-8.68-10.64-32.2s-.7-26.46,3.78-26.46,4.62,0,4.76,14.98Z"></path><path class="cls-2" d="m714.3,577.61c0,2.1-1.4,2.66-3.22,2.66-1.54,0-1.12-.84-7.28-.84-12.32,0-21.98,11.2-21.98,24.64,0,8.82,6.72,19.04,16.38,19.04,12.18,0,13.3-10.08,20.44-10.08,1.26,0,1.54,1.26,1.54,2.24,0,6.3-10.22,15.54-22.12,15.54-16.38,0-24.08-15.82-24.08-27.02,0-21,15.54-32.62,29.68-32.62,4.76,0,10.64,0,10.64,6.44Z"></path><path class="cls-2" d="m735.3,525.11c5.6-.14,5.32,1.12,5.32,12.88.14,36.96-.14,42.7.42,42.14,4.06-3.78,8.96-6.58,18.62-6.3,14.7.42,21.28,11.06,21.28,31.08,0,16.24-.84,20.02,5.32,19.74,5.18-.28,7.98-6.16,7.98-.56,0,3.92-4.76,7.14-10.64,7.28-10.64.28-10.5-7.56-10.5-21.28s-.14-26.88-13.72-28.7c-3.5-.42-12.88,2.38-14.98,7-3.5,7.56-4.34,13.02-4.34,27.02l.14,8.82c-.14,8.12-.14,7.7-3.92,7.56-4.34-.14-3.78.28-4.06-13.58-.14-7.7-.14-19.74,0-38.64.42-54.32-.56-54.32,3.08-54.46Z"></path></g></svg> 