<?xml version="1.0" encoding="UTF-8"?> <svg xmlns="http://www.w3.org/2000/svg" id="Layer_1" viewBox="0 0 450 335"><defs><style>.cls-1{fill:#fff;}.cls-2{fill:#ececec;}.cls-3{fill:#bca5cf;}.cls-4{fill:#111035;}</style></defs><rect class="cls-1" width="450" height="335"></rect><rect class="cls-2" y="199.03" width="450" height="64.08"></rect><rect class="cls-2" y="72.14" width="450" height="63.5"></rect><polygon class="cls-3" points="190 263.11 171.36 263.11 235.85 72.14 254.49 72.14 190 263.11"></polygon><path class="cls-4" d="m157.91,73.92c-13.09,40.26-26.77,81.11-40.26,121.37,7.14-3.97,8.33-4.96,15.27-9.32v8.73c-9.12,5.75-9.32,5.75-18.64,11.5-12.49,39.07-19.24,56.92-32.33,56.92-8.73,0-12.69-6.94-12.69-14.87,0-18.44,24.59-39.27,38.87-48.39l6.94-20.82c-7.14,6.94-21.02,20.43-32.92,20.43-12.89,0-19.04-9.52-19.04-19.83s12.1-42.84,16.66-55.33c3.57-10.31,9.12-23.4,9.12-34.11,0-4.76-1.59-10.31-7.34-10.31-11.5,0-22.41,15.27-28.16,24l-5.35-4.76c7.14-10.71,19.63-26.97,33.52-26.97,11.3,0,15.07,8.73,15.07,18.24s-5.35,24.39-8.92,34.7c-3.97,11.11-16.86,44.42-16.86,55.73,0,6.74,4.56,10.91,11.3,10.91,13.09,0,30.14-19.24,35.7-28.95,7.34-12.89,11.9-26.97,14.48-35.3,5.35-16.86,12.1-36.29,18.44-55.33l7.14,1.78Zm-80.91,174.32c0,2.98,1.19,7.14,4.96,7.14,9.92,0,19.63-34.7,21.81-42.44-9.72,6.94-26.77,22.41-26.77,35.3Z"></path><path class="cls-4" d="m239.82,72.14c-.2.6-12.49,38.47-23.2,70.4-3.97,12.1-13.49,39.46-13.49,43.63,0,3.57,2.18,5.55,6.94,5.55,3.57,0,12.89-3.37,16.86-5.75v8.73c-2.38,1.39-12.1,4.76-16.86,4.76-12.69,0-14.87-7.93-15.27-10.91-5.16,5.16-16.86,10.91-24.99,10.91-11.7,0-19.43-7.14-19.43-17.85-7.14,7.34-18.44,13.68-18.64,13.68v-8.73c.2,0,12.49-8.13,18.64-16.06,5.55-7.34,10.31-13.09,17.45-19.04,9.52-7.93,23.6-15.67,36.49-15.67,2.18,0,4.16.2,6.15.6,3.77-11.3,21.02-64.25,21.02-64.25h8.33Zm-38.08,71.79c-7.93,0-20.03,5.55-28.36,12.89-10.31,9.12-15.27,17.45-15.27,22.41,0,8.53,4.16,12.49,12.3,12.49,6.94,0,16.26-4.76,23-13.88,5.75-7.93,10.31-19.43,14.48-33.12-1.98-.59-3.97-.79-6.15-.79Z"></path><path class="cls-4" d="m249.53,184.58c3.17,6.54,8.73,7.14,16.26,7.14s16.26-2.98,20.03-5.75v8.73c-3.37,2.58-13.88,4.76-20.03,4.76-1.59,0-18.64.2-23.8-11.5-3.57,1.98-15.27,7.14-16.46,7.14v-8.73c1.39,0,10.51-4.16,14.48-6.35-.2-1.78-.2-1.98-.2-3.77,0-19.24,15.27-40.46,35.3-40.46,7.73,0,13.09,5.75,13.09,14.08,0,14.08-21.62,24.39-38.67,34.7Zm25.58-41.05c-15.47,0-27.76,17.25-27.57,32.13v1.59c12.1-7.34,32.92-17.85,32.92-27.37,0-3.77-1.98-6.35-5.35-6.35Z"></path><path class="cls-4" d="m417.31,194.69c-1.59.79-8.33,4.76-15.47,4.76-8.33,0-15.67-4.96-15.67-14.28,0-11.5,9.32-24.79,9.32-32.72,0-6.35-4.36-8.92-10.11-8.92-13.68,0-23.4,12.49-26.77,22.21-3.77,11.11-8.33,22.61-12.1,33.71h-8.13c3.77-11.3,13.88-38.08,13.88-45.02,0-12.3-8.73-10.91-10.31-10.91-10.71,0-21.02,14.68-24.79,19.43-18.84,24.19-30.34,32.13-32.52,32.13v-8.73c2.58,0,15.27-13.29,26.38-28.16,4.16-5.55,16.46-22.41,30.94-22.41,11.7,0,15.67,5.35,17.85,12.69,5.16-6.54,15.07-12.69,25.58-12.69,8.53,0,17.85,4.36,17.85,16.46,0,9.32-9.32,22.01-9.32,32.92,0,3.77,1.98,6.54,7.93,6.54,7.54,0,13.88-4.76,15.47-5.75v8.73Z"></path></svg> 