<?xml version="1.0" encoding="UTF-8"?> <svg xmlns="http://www.w3.org/2000/svg" id="Layer_1" viewBox="0 0 450 335"><defs><style>.cls-1{fill:#fff;}.cls-2{fill:#ececec;}.cls-3{fill:#bca5cf;}.cls-4{fill:#111035;}</style></defs><rect class="cls-1" width="450" height="335"></rect><rect class="cls-2" y="199.03" width="450" height="64.58"></rect><rect class="cls-2" y="71.44" width="450" height="64.2"></rect><polygon class="cls-3" points="146.92 263.37 128.29 263.37 148.93 71.19 167.56 71.19 146.92 263.37"></polygon><path class="cls-4" d="m81.39,200.01c-2.89,0-6.54-.19-10.78-.38-3.66.19-5.58-.58-5.39-2.5l.39-5.39,5.58-91.04c.19-1.92,1.73-3.08,5-3.08,3.27-.38,6.16-.38,8.66-.38,26.75,0,39.84,8.47,39.26,25.41-.19,7.12-3.08,13.09-8.66,17.9-4.43,3.85-8.08,5.77-11.36,5.58,3.85.58,7.12,1.92,9.82,3.66,6.74,4.24,10.2,10.97,10.39,20.21.58,20.02-13.67,30.03-42.92,30.03Zm21.36-47.35c-4.81-1.54-13.47-2.31-25.6-2.31-.39,0-.96.96-1.54,3.08l-2.31,37.34c0,.96,1.73,1.54,5,1.54.39,0,1.54.19,3.27.19h4.81c20.59,0,30.6-7.51,30.22-22.33-.19-8.85-4.81-14.63-13.86-17.52Zm-.96-46.19c-4.43-1.15-11.55-1.54-21.56-1.35-1.16,0-1.93.77-1.93,2.5l-1.73,31.76c0,1.35,0,2.12.19,2.31,0,.19.58.19,1.73.38,1.92.19,3.85.39,5.97.39,8.28,0,15.4-1.54,21.36-4.43,7.31-3.46,10.97-8.47,10.78-15.21-.19-8.47-5-14.05-14.82-16.36Z"></path><path class="cls-4" d="m242.49,150.74c.58-5.97-3.47-1.15-4.62.19-4.43,4.81-9.82,12.32-16.55,22.33-6.54,10.01-9.05,13.47-10.97,15.97-3.27,4.04-9.62,10.39-14.82,10.39-4.62,0-6.74-4.04-5.97-12.13.58-5.58,1.73-11.36,2.5-17.13,1.54-10.59,1.93-17.13,1.54-19.63-.77-4.81-2.5-7.31-5.58-7.31-2.31,0-5.2,1.35-8.47,3.85-5.39,4.04-9.24,8.85-12.13,14.44-4.23,8.28-7.12,19.63-8.47,34.07-.19,2.5-1.54,3.85-4.04,3.85-2.69,0-4.04-1.15-3.66-3.27l.58-4.24,11.74-117.6c.19-2.12,1.73-3.08,4.24-3.08s3.46,1.15,3.27,3.27l-.58,4.43-7.31,75.26c2.89-4.23,6.35-8.28,10.78-11.93,5.77-4.81,10.59-7.31,14.63-6.93,4.62.38,8.08,2.31,10.39,5.77,1.73,2.7,2.31,5.77,2.31,9.43-.38,12.32-3.66,25.02-4.04,37.15,0,1.92.19,2.31.77,2.31.96,0,3.46-1.54,6.74-5.2,3.27-3.66,6.74-8.28,9.62-12.7,6.35-9.62,12.7-18.28,18.67-26.18,5.39-6.93,9.82-10.78,13.86-10.78,8.28-.19-4.81,19.05-4.43,15.4Z"></path><path class="cls-4" d="m283.68,157.86c-3.85,4.81-24.44,31.57-25.79,33.11-10.59,12.32-20.4,11.93-19.44-3.27.96-15.4,4.81-48.7,4.81-48.7.19-2.31,1.54-3.46,4.04-3.46,2.31,0,3.66,1.35,3.46,3.85l-.38,4.23s-3.85,36.76-4.23,42.54c-.19,2.89.58,4.43,1.54,3.85,7.12-3.85,32.14-38.3,35.99-43.11,5.77-7.51,6.35-5.77,3.08,6.74l-3.08,4.24Zm-29.83-36.18c-.58,1.15-3.66,3.46-7.31,0-2.31-2.12,6.16-16.17,8.47-15.4,4.04,1.35.96,11.16-1.15,15.4Z"></path><path class="cls-4" d="m329.3,143.42s-11.16,101.05-11.55,106.63c-.39,4.23-.39,7.12,7.51-1.15,4.04-4.04,9.82-.38,4.23,6.16-10.78,12.32-20.4,12.13-18.86-3.66.38-2.5,1.15-10.39,1.15-10.39l6.74-64.09c-5.58,8.47-14.82,22.33-26.75,22.52-8.85,0-10.78-10.78-11.93-18.67-1.73-12.51,2.31-32.34,8.08-38.3,11.36-11.36,42.15-6.93,41.96-5.2l-.58,6.16Zm-36.18,4.81c-4.04,4.81-7.89,22.71-5.2,36.18,1.92,9.62,8.08,12.32,20.98-5.77,3.27-4.43,8.08-10.01,12.7-35.41-9.82-.77-22.33-2.12-28.49,5Z"></path><path class="cls-4" d="m393.78,187.89c.38-2.5,1.15-10.39,1.15-10.59-5.77,9.62-16.94,23.67-26.75,22.52-10.39.19-12.51-10.39-12.7-18.67,0-9.05,2.31-23.67,3.27-30.03.77-4.23-.77-2.69-3.27.19-2.89,3.47-9.62,1.73-4.62-5,2.89-3.85,7.7-10.2,12.7-10.39,4.04-.19,3.85,5,2.31,18.67-2.5,22.13-2.89,24.44-2.12,30.22,1.92,10.97,10.2,10.39,21.56-5.77,3.27-4.43,9.24-12.13,12.51-37.34,1.16-8.66,8.66-6.16,8.08-2.12,0,1.73-.39,4.23-.39,4.23,0,0-4.04,36.95-4.43,42.73-.19,4.23-.58,7.12,7.51-1.35,3.85-4.04,10.01-.38,4.24,6.16-10.59,12.32-20.4,12.13-19.06-3.46Z"></path></svg> 