<?xml version="1.0" encoding="UTF-8"?> <svg xmlns="http://www.w3.org/2000/svg" id="Layer_1" viewBox="0 0 450 335"><defs><style>.cls-1{fill:#fff;}.cls-2{fill:#ececec;}.cls-3{fill:#bca5cf;}.cls-4{fill:#111035;}</style></defs><rect class="cls-1" width="450" height="335"></rect><rect class="cls-2" y="199.03" width="450" height="64.43"></rect><rect class="cls-2" y="71.87" width="450" height="63.77"></rect><polygon class="cls-3" points="190.94 263.46 172.31 263.46 272.02 71.87 290.66 71.87 190.94 263.46"></polygon><path class="cls-4" d="m24.65,195.33c9.3-17.25,18.22-34.79,27.72-51.94,7.36-13.37,17.15-29.27,17.15-44.87,0-10.66-1.07-21.42-14.54-21.42-3.88,0-7.75.78-11.43,2.04-1.16.39-2.23.87-3.39,1.36-.39.1-.58.39-.97.39-1.26,0-2.13-2.62-2.13-3.49,0-.19.1-.39.19-.58,3.39-2.13,13.66-4.94,17.73-4.94,15.12,0,19.87,11.82,19.87,24.9s-6.01,28.59-12.6,39.15c1.07-.29,2.33-.68,3.39-.68,9.01,0,21.03,4.85,26.07,12.6,1.84,2.91,3.68,5.91,5.04,9.01,10.66-19.96,27.52-64.73,44.29-77.91,5.52-4.36,12.6-7.07,19.67-7.07,5.52,0,11.92,1.94,16.38,5.23.68.48,1.26,1.07,1.26,1.94,0,.97-.97,3.1-2.23,3.1-1.16,0-6.3-5.14-15.12-5.14-16.76,0-24.03,13.08-31.79,25.87-10.76,17.93-18.02,37.31-27.62,55.72,9.11-1.16,18.22-2.33,27.33-3.88v5.14c-10.18,1.84-20.45,2.81-30.62,4.46-4.26,8.43-8.62,16.86-12.99,25.2-1.45,2.71-2.62,5.72-4.36,8.24-.68.97-1.26,1.55-2.52,1.55-1.45,0-2.62-.68-2.62-2.33,0-.97,14.83-28.59,16.76-32.17h-1.45c-12.5.19-32.27-2.33-34.98-17.54-5.14,9.21-9.69,18.7-14.63,28.01-2.52,4.75-10.08,20.45-12.89,23.45-.39.48-.87.78-1.55.78-1.74,0-2.91-.87-2.91-2.71,0-.58.19-.97.48-1.45Zm41.09-55.04c-2.91,0-5.14,1.36-5.14,4.55,0,12.69,20.06,15.41,29.46,15.41.97,0,1.94-.1,2.81-.48-4.65-12.02-14.05-19.48-27.13-19.48Z"></path><path class="cls-4" d="m127.76,154.73c9.5,0,19.09-4.55,26.65-10.08,1.26-.87,2.91-1.94,3.88-3,2.62-2.81,13.76-27.23,16.28-32.66,5.14-10.76,13.76-37.11,28.2-37.11,7.36,0,12.21,4.65,12.21,12.11,0,13.08-22.77,33.34-31.98,42.35-4.46,4.46-9.01,8.92-13.76,13.18-2.33,2.13-5.43,4.17-7.56,6.49-2.62,2.91-10.27,17.83-12.69,22.29-3.59,6.69-7.07,11.24-7.07,19.28,0,3.2,3.1,6.59,6.4,6.59,10.85,0,21.71-14.54,27.42-22.58,3.88-5.52,6.69-11.34,9.59-17.35,1.65-3.49,3.2-6.98,4.36-10.56.58-1.94.87-4.36,1.65-6.11.58-1.45,2.13-1.84,3.59-1.84,1.07,0,2.13.29,2.91,1.16,1.26,1.65,2.13,4.17,3.1,6.01,3.78,7.66,8.33,11.92,17.35,11.82v5.14c-11.05,0-20.16-6.4-22.87-17.25-3.49,10.76-8.14,21.22-14.63,30.53-6.78,9.69-19.19,26.16-32.46,26.16-6.01,0-11.63-5.72-11.63-11.73,0-9.21,3.59-14.05,7.75-21.71,2.52-4.75,5.23-9.5,8.04-14.05-6.2,3.59-17.54,8.04-24.71,8.04v-5.14Zm75.49-77.72c-10.47,0-19.77,25.87-23.45,34.21-3.2,6.98-6.49,13.95-10.08,20.83,8.62-8.43,40.12-37.6,40.12-47.87,0-4.55-1.94-7.17-6.59-7.17Z"></path><path class="cls-4" d="m296.67,199.3c-5.91,0-11.63-4.46-11.63-10.66s5.81-17.54,8.62-23.26c-1.74,1.74-3.2,3.68-5.04,5.23-12.6,11.34-26.36,28.68-44.87,28.68-7.66,0-12.5-5.04-12.5-12.69,0-6.11,12.02-30.91,15.8-37.02-6.4,5.81-21.13,10.27-29.75,10.27v-5.14c9.79,0,23.06-4.94,30.72-11.34,2.91-2.52,4.36-4.75,6.78-7.46.39-.39.87-.68,1.36-.68,1.36,0,2.81,1.45,2.81,2.71,0,1.94-22.48,38.18-22.48,49.03,0,4.55,2.81,7.17,7.27,7.17,17.06,0,30.62-16.96,42.15-27.62,6.98-6.49,13.18-13.95,18.22-22.09,1.36-2.13,2.52-4.46,3.78-6.59.68-1.16,1.65-2.52,3.2-2.52,1.36,0,2.71,1.07,2.71,2.62,0,.58-.19,1.07-.48,1.65-5.72,9.59-23.06,39.34-23.06,49.03,0,3.29,3.49,5.43,6.49,5.43,11.92,0,23.65-9.5,33.43-15.6v5.81c-10.37,6.59-20.54,15.02-33.53,15.02Z"></path><path class="cls-4" d="m328.84,179.44c13.08-8.72,26.07-17.44,38.47-27.13,12.99-10.18,29.17-17.06,45.84-17.06,3.29,0,10.85.19,10.85,5.04,0,5.72-8.92,18.7-11.92,24.13-5.52,9.79-10.56,19.87-15.8,29.75,9.21-5.04,18.61-10.08,27.52-15.7v5.81c-10.27,6.2-20.93,11.73-31.3,17.64-8.24,16.28-17.25,32.08-25.87,48.07-4.17,7.56-8.72,13.47-18.12,13.47-5.72,0-8.43-5.62-8.43-10.66,0-10.56,7.85-18.61,14.34-26.07,9.98-11.63,22.58-19.67,34.5-29.07l12.6-25.1c-9.59,9.59-30.43,27.33-44.38,27.33-7.17,0-10.85-4.75-10.85-11.73s3.2-14.05,7.07-19.96c-8.14,5.81-16.18,11.63-24.52,17.06v-5.81Zm16.47,73.26c0,2.33,1.45,5.43,4.17,5.43,6.69,0,9.98-6.01,12.69-11.14,7.17-13.57,15.21-26.55,22.19-40.12-11.63,9.21-39.05,30.14-39.05,45.84Zm12.79-58.14c6.3,0,15.31-5.62,20.35-9.3,3.97-2.81,7.36-6.4,11.34-9.4,9.01-6.78,16.76-14.83,23.06-24.32,1.55-2.33,4.26-6.11,4.26-9.01,0-2.33-2.42-2.42-4.07-2.42-15.41,0-31.3,6.01-42.93,16.28-7.66,6.88-18.32,20.64-18.32,31.3,0,4.07,1.94,6.88,6.3,6.88Z"></path></svg> 