<?xml version="1.0" encoding="UTF-8"?> <svg xmlns="http://www.w3.org/2000/svg" id="Layer_1" viewBox="0 0 450 335"><defs><style>.cls-1{fill:#fff;}.cls-2{fill:#ececec;}.cls-3{fill:#bca5cf;}.cls-4{fill:#111035;}</style></defs><rect class="cls-1" x="0" width="450" height="335"></rect><rect class="cls-2" x="0" y="198.8" width="450" height="32.68"></rect><rect class="cls-2" x="0" y="102.39" width="450" height="32.01"></rect><polygon class="cls-3" points="223.04 231.49 204.4 231.49 215.68 102.39 234.32 102.39 223.04 231.49"></polygon><path class="cls-4" d="m145.45,198.85c-2.92,0-5.97-1.59-8.62-4.91l-30.78-37.68h-15.79l-3.45,41c-.13,1.19-.8,1.72-2.12,1.59-1.19-.13-1.72-.53-1.59-1.99l7.7-89.82h-6.5c-12.6,0-22.42,9.15-24.94,21.89-.4,1.72-.53,3.32-.93,4.11-.53.93-1.33,1.06-1.99.93-.13,0-1.72-.27-1.46-1.72,2.26-15.66,12.47-28.79,29.45-28.79h23.22c16.32,0,28.53,11.15,28.53,25.61-.66,15.13-8.89,23.62-25.61,27.07l28.92,35.42c1.59,2.26,4.25,3.72,6.24,3.72,1.59.13,4.25-1.46,7.3-4.51.66-.66,1.72-.27,2.26.4.8.93.66,1.86,0,2.52-4.64,3.98-6.77,5.17-9.82,5.17Zm-37.95-91.81h-13.13l-3.85,45.64h14.46c16.05,0,27.46-9.42,27.46-23.22s-12.21-22.42-24.94-22.42Z"></path><path class="cls-4" d="m227.71,167.27c-.66,1.59-3.05,5.7-7.3,12.34-4.25,6.63-8.09,11.54-11.41,14.59-3.45,3.05-6.63,4.64-9.55,4.64h-.27c-4.11,0-5.84-3.05-5.31-9.15l1.33-14.73c-7.96,14.59-18.04,24.41-24.28,24.41s-11.01-9.69-11.01-23.48c0-22.56,12.21-40.73,27.73-40.73h13c1.06,0,1.59.66,1.59,1.72v.4l-4.78,53.47c-.13,1.19.13,3.72,1.19,4.38.4.13.66.13,1.06.13,1.99,0,4.64-1.59,7.83-4.78,7.96-7.96,12.87-16.98,17.25-25.21,2.12-4.11,3.18-6.1,3.18-6.1l-.26,8.09Zm-31.71-4.11l1.99-24.28h-10.35c-12.74,0-24.01,16.98-24.01,36.22,0,10.88,3.58,20.7,7.7,20.7,6.37,0,23.88-22.95,24.68-32.64Z"></path><path class="cls-4" d="m316.87,137.42c-1.99.4-4.78,1.86-8.36,4.51-3.58,2.79-6.9,6.1-9.82,9.95-2.92,3.85-5.71,8.09-8.36,12.74-7.83,13.27-15.39,26.4-17.12,28.79-2.52,3.45-5.17,5.31-8.09,5.44h-.13c-2.39-.13-5.04-1.72-4.64-7.3l3.18-38.34c.53-5.84-2.26-15.39-9.55-15.39-11.41,0-19.24,22.29-23.75,31.84l-2.26,27.73c-.13.93-1.19,1.59-2.12,1.46-.93,0-1.72-.93-1.59-1.72l8.09-93.14c.13-.93,1.06-1.59,1.99-1.59.93.13,1.86.93,1.72,1.86l-4.78,54.66c3.85-9.29,11.81-24.68,22.82-24.68,9.55,0,13.8,11.28,13.13,19.24l-3.45,38.34c-.26,3.05.8,3.45,1.19,3.45,1.72-.4,2.79-.93,3.45-1.72,2.52-3.32,6.1-8.76,10.48-16.58,4.38-7.7,7.96-13.8,10.75-18.44,2.79-4.51,5.71-8.49,8.76-11.94,5.84-6.77,12.74-11.15,19.11-11.15h1.19l-1.86,1.99Z"></path><path class="cls-4" d="m335.31,137.42l-6.24,69.12c-1.46,16.72-9.55,24.94-25.34,24.94-1.86,0-10.61-.4-11.68-1.86-.4-.66-.4-1.19-.13-1.72.4-.93,1.46-1.33,2.39-1.06,3.32,1.06,7.43,1.06,10.88,1.06,13.8-.53,19.11-8.76,20.3-22.56l2.65-29.98c-3.85,6.9-14.2,24.15-23.75,24.15-6.5,0-11.41-9.69-11.41-23.48,0-22.69,12.34-40.86,27.99-40.86h12.21c.8,0,1.59.26,1.86.53s.4.93.27,1.72Zm-3.85,1.33h-10.48c-13.67,0-24.28,16.72-24.28,38.21,0,4.51,1.86,18.97,8.09,18.97,8.23,0,21.36-24.15,24.28-30.38l2.39-26.8Z"></path><path class="cls-4" d="m347.12,172.18c0-12.6,6.24-37.68,22.56-37.68,13.27,0,17.38,16.19,17.38,26.8,0,12.6-5.97,38.21-22.55,38.21-13,0-17.38-17.12-17.38-27.33Zm3.72-.53c0,8.62,2.39,24.28,13.67,24.28,13.13,0,18.84-22.69,18.84-33.7,0-8.23-2.65-24.15-13.67-24.15-13.14,0-18.84,23.62-18.84,33.57Z"></path></svg> 