<?xml version="1.0" encoding="UTF-8"?> <svg xmlns="http://www.w3.org/2000/svg" id="Layer_1" viewBox="0 0 450 335"><defs><style>.cls-1{fill:#fff;}.cls-2{fill:#ececec;}.cls-3{fill:#bca5cf;}.cls-4{fill:#111035;}</style></defs><rect class="cls-1" width="450" height="335"></rect><rect class="cls-2" y="199.03" width="450" height="75.02"></rect><rect class="cls-2" y="73.21" width="450" height="62.44"></rect><rect class="cls-3" x="138.21" y="73.21" width="18.64" height="200.85"></rect><path class="cls-4" d="m96.01,192.54h36.39v6.6h-37.64c-9.63-.36-17.78-3.86-24.44-10.52-6.42-6.42-9.63-14.03-9.63-22.83,0-6.3,1.84-12.22,5.53-17.75,3.68-5.53,8.5-9.48,14.45-11.86-5.95-2.85-10.64-6.72-14.09-11.59-3.92-5.59-5.89-11.77-5.89-18.55,0-9.16,3.54-16.95,10.61-23.37,7.07-6.42,15.31-9.63,24.71-9.63h15.52v6.6h-15.52c-7.97,0-14.75,2.59-20.34,7.76-5.59,5.17-8.38,11.39-8.38,18.64,0,7.61,2.79,13.91,8.38,18.91,5.59,5.23,12.37,7.85,20.34,7.85h16.41v6.6h-16.41c-7.97,0-14.75,2.59-20.34,7.76-5.59,5.17-8.38,11.39-8.38,18.64s2.56,13.08,7.67,18.2c5.71,5.71,12.72,8.56,21.05,8.56Z"></path><path class="cls-4" d="m200.54,192.54v6.6h-37.1l8.03,13.91c4.04,6.78,7.49,13.26,10.35,19.44,1.9,4.04,3.24,6.93,4.01,8.65.77,1.72,1.57,3.98,2.41,6.78.83,2.79,1.25,5.32,1.25,7.58,0,7.49-3.51,13.2-10.52,17.12-4.52,1.9-9.04,1.9-13.56,0-2.62-1.19-4.76-2.65-6.42-4.37-1.67-1.73-2.8-3.9-3.39-6.51-.6-2.62-.98-4.88-1.16-6.78-.18-1.9-.27-4.46-.27-7.67v-.71c0-27.83-.06-44.95-.18-51.37-4.52,2.5-8.8,3.81-12.84,3.92h-8.74v-6.6h8.56c4.04-.12,8.44-1.78,13.2-4.99v-82.23c0-20.22,3.8-30.92,11.42-32.11,2.14-.36,4.1.18,5.89,1.61,4.87,3.92,7.31,14.39,7.31,31.4,0,12.96-.6,25.21-1.78,36.75-1.31,11.54-3.15,20.99-5.53,28.36-2.14,7.13-5.77,13.5-10.88,19.09v2.14h39.96Zm-39.96-12.84c1.78-2.97,3.33-6.42,4.64-10.35,2.5-7.49,4.28-16.53,5.35-27.11,1.07-10.58,1.61-22.59,1.61-36.03,0-14.74-1.61-23.55-4.82-26.4-.24-.12-.48-.18-.71-.18-4.04.95-6.06,9.52-6.06,25.69v74.39Zm7.85,41.56l-7.67-13.74v42.81c0,2.14.06,3.8.18,4.99.12,1.19.36,2.64.71,4.37.36,1.72,1.07,3.15,2.14,4.28,1.07,1.13,2.44,1.99,4.1,2.59,3.57,1.54,6.78,1.31,9.63-.71,3.57-2.38,5.35-5.77,5.35-10.17,0-3.57-1.55-8.8-4.64-15.7l-1.25-2.68c-1.67-3.69-4.52-9.04-8.56-16.05Z"></path><path class="cls-4" d="m234.08,135.46h1.07c3.21,0,5.83,1.19,7.85,3.57,2.85,3.45,4.28,8.8,4.28,16.05,0,3.81-.36,7.49-1.07,11.06-1.55,8.92-4.04,15.7-7.49,20.34,2.97,4.04,6.36,6.06,10.17,6.06h19.8v6.6h-19.98c-5.47,0-10.17-2.44-14.09-7.31-3.92,4.88-8.62,7.31-14.09,7.31h-19.98v-6.6h19.8c3.8,0,7.19-2.02,10.17-6.06-3.45-4.64-5.95-11.42-7.49-20.34-.71-3.57-1.07-7.25-1.07-11.06,0-7.25,1.43-12.6,4.28-16.05,2.02-2.38,4.64-3.57,7.85-3.57Zm1.07,6.6h-1.07c-1.55,0-2.8.65-3.75,1.96-1.07,2.26-1.61,5.53-1.61,9.81,0,4.52.3,8.33.89,11.42.59,5.71,2.26,10.88,4.99,15.52,2.73-4.64,4.4-9.81,4.99-15.52.59-3.09.89-6.9.89-11.42,0-4.28-.54-7.55-1.61-9.81-.95-1.31-2.2-1.96-3.75-1.96Z"></path><path class="cls-4" d="m340.93,199.14h.18-6.78v-39.07c0-4.87-1.87-9.1-5.62-12.67-3.75-3.57-8.12-5.35-13.11-5.35s-9.37,1.78-13.11,5.35c-3.75,3.57-5.62,7.79-5.62,12.67v21.05c-.12,4.88-1.96,9.1-5.53,12.67-3.57,3.57-7.85,5.35-12.84,5.35h-9.81v-6.6h9.81c3.21,0,5.98-1.19,8.29-3.57,2.32-2.38,3.48-5.11,3.48-8.21v-20.51c0-6.78,2.53-12.6,7.58-17.48,5.05-4.87,11.03-7.31,17.93-7.31,9.51,0,16.77,4.16,21.76,12.49,4.99-8.32,12.25-12.49,21.76-12.49,6.9,0,12.9,2.44,18.02,7.31,5.11,4.88,7.67,10.7,7.67,17.48v20.51c0,3.09,1.16,5.83,3.48,8.21,2.32,2.38,5.08,3.57,8.3,3.57h9.81v6.6h-9.81c-4.99,0-9.28-1.78-12.84-5.35s-5.41-7.79-5.53-12.67v-21.05c0-4.87-1.9-9.1-5.71-12.67-3.81-3.57-8.21-5.35-13.2-5.35s-9.34,1.76-13.02,5.26c-3.69,3.51-5.53,7.76-5.53,12.75v39.07Z"></path></svg> 