<?xml version="1.0" encoding="UTF-8"?> <svg xmlns="http://www.w3.org/2000/svg" id="Layer_1" viewBox="0 0 450 335"><defs><style>.cls-1{fill:#fff;}.cls-2{fill:#ececec;}.cls-3{fill:#bca5cf;}.cls-4{fill:#111035;}</style></defs><rect class="cls-1" width="450" height="335"></rect><rect class="cls-2" y="199.03" width="450" height="57.46"></rect><rect class="cls-2" y="72.31" width="450" height="63.33"></rect><polygon class="cls-3" points="285.62 256.49 266.98 256.49 341.69 72.31 360.33 72.31 285.62 256.49"></polygon><path class="cls-4" d="m74.84,171.77c2.16,0,3.93,1.77,3.93,3.93,0,1.57-.98,2.95-2.36,3.73-2.75,1.18-4.52,3.93-4.52,6.29,0,3.15,3.34,6.09,9.43,6.09,17.89,0,25.36-28.11,33.61-57,7.47-26.14,15.53-53.86,32.24-53.86,6.88,0,11.6,4.91,11.01,13.37-.39,13.76-14.94,37.35-69.58,56.02-2.36.79-5.31-.79-5.31-3.73,0-1.77,1.18-3.14,2.75-3.73,50.91-17.3,63.88-38.33,64.28-48.94.2-3.93-.59-5.11-3.14-5.11-9.83,0-17.3,22.21-24.77,47.96-8.26,29.29-16.51,62.9-41.08,62.9-10.02,0-17.3-6.09-17.3-13.96,0-5.5,3.54-10.81,9.04-13.56.59-.2,1.18-.39,1.77-.39Zm90.22-45.8c2.16,0,3.93,1.57,3.93,3.93,0,.59-.2,1.18-.39,1.57-10.02,20.84-33.61,31.84-54.25,32.83-2.16,0-4.13-1.77-4.13-3.93s1.57-3.93,3.73-3.93c18.28-.79,39.12-10.61,47.57-28.3.59-1.38,1.97-2.16,3.54-2.16Zm-49.34,130.52c-2.95,0-4.72-2.95-3.73-5.31,8.65-21.43,38.13-95.72,39.9-100.44.79-2.16,6.29-15.33,9.24-22.41.59-1.57,2.16-2.56,3.93-2.56,2.36,0,4.13,1.97,4.13,4.32,0,.59,0,.98-.2,1.57-8.06,18.67-10.22,23.39-9.63,21.82-1.97,4.91-31.45,79.21-40.1,100.64-.59,1.38-1.97,2.36-3.54,2.36Zm133.27-124.03c2.16,0,3.93,1.77,3.93,3.93,0,.98-.39,1.97-1.18,2.75-13.37,14.55-53.07,60.54-70.96,60.54-7.86,0-11.2-4.91-11.2-11.2,0-9.04,6.88-23.19,13.17-35.77,1.97-3.93,2.95-6.68,2.95-8.26,0-1.38-2.36-.98-3.54-.98-7.27,0-15.92,7.86-26.34,18.28-.79.59-1.77.98-2.75.98-2.16,0-3.93-1.77-3.93-3.93,0-.98.39-1.97,1.18-2.75,10.81-10.81,21.23-20.44,31.84-20.44,8.26,0,11.4,3.93,11.4,8.85,0,3.14-1.38,7.08-3.73,11.79-6.29,12.58-12.38,25.16-12.38,32.24,0,2.75.59,3.34,3.34,3.34,13.37,0,51.5-43.24,65.26-58.18.79-.59,1.77-1.18,2.95-1.18Zm33.02,36.95c2.16,0,3.93,1.77,3.93,3.93,0,.98-.39,2.16-1.18,2.75-11.6,11.4-31.45,23.59-42.65,23.59-22.8,0-5.5-45.01,8.06-79.02,10.22-24.77,15.53-48.35,30.86-48.35,6.68,0,12.78,3.93,12.78,13.17,0,18.87-26.54,40.88-44.23,58.58-.79.79-1.77,1.18-2.75,1.18-2.16,0-3.93-1.77-3.93-3.93,0-.98.39-1.97,1.18-2.75,17.69-17.89,41.87-38.33,41.87-53.07,0-4.13-1.77-5.31-4.91-5.31-8.45,0-13.17,18.08-23.39,43.64-13.37,32.63-25.16,68.01-15.53,68.01,8.45,0,26.54-11.01,37.15-21.43.79-.59,1.77-.98,2.75-.98Zm40.3-6.09c2.16,0,3.93,1.77,3.93,3.93,0,.98-.2,1.77-.79,2.56-12.38,14.35-28.7,29.88-42.06,29.88-18.87,0-1.57-35.58,8.26-61.52.59-1.57,1.97-2.56,3.73-2.56,2.75,0,4.52,2.95,3.73,5.31-8.26,22.01-20.64,50.91-15.73,50.91,9.83,0,24.37-13.56,35.97-27.13.79-.79,1.77-1.38,2.95-1.38Zm-25.55-38.33c0-2.95,2.75-5.31,5.31-5.31s4.52,2.56,4.52,5.11c0,2.75-2.56,5.31-5.31,5.31s-4.52-2.75-4.52-5.11Zm64.28,46.98c2.16,0,3.93,1.77,3.93,3.93,0,1.18-.39,1.97-1.18,2.75-9.63,10.42-21.62,21.03-34.4,21.03-10.61,0-17.49-5.5-15.33-19.26.98-6.09,18.28-49.93,27.32-73.12.59-1.57,1.97-2.56,3.54-2.56,2.95,0,4.72,2.95,3.73,5.31-9.04,23.19-25.95,66.44-26.73,71.55-1.38,8.06.79,10.22,7.47,10.22,9.63,0,19.46-8.85,28.7-18.48.79-.79,1.77-1.38,2.95-1.38Zm-1.57-36.36c0,2.16-1.77,3.93-3.93,3.93h-19.07c-2.16,0-3.93-1.77-3.93-3.93s1.77-3.93,3.93-3.93h19.07c2.16,0,3.93,1.77,3.93,3.93Z"></path></svg> 