<?xml version="1.0" encoding="UTF-8"?> <svg xmlns="http://www.w3.org/2000/svg" xmlns:xlink="http://www.w3.org/1999/xlink" id="word" viewBox="0 0 1920 4856"><defs><style>.cls-1,.cls-2,.cls-3,.cls-4,.cls-5,.cls-6,.cls-7,.cls-8,.cls-9,.cls-10{fill:none;}.cls-2{stroke-dasharray:0 0 1.72 17.24;}.cls-2,.cls-3,.cls-4,.cls-5,.cls-6,.cls-7,.cls-8,.cls-9{stroke:#a797c9;stroke-linecap:round;stroke-width:7px;}.cls-2,.cls-3,.cls-4,.cls-5,.cls-6,.cls-7,.cls-8,.cls-9,.cls-10{stroke-miterlimit:10;}.cls-11{clip-path:url(#clippath);}.cls-3{stroke-dasharray:0 0 1.78 17.82;}.cls-4{stroke-dasharray:0 0 1.56 15.57;}.cls-12{fill:#fff;}.cls-13{fill:#937fbb;}.cls-14{fill:#171c32;}.cls-6{stroke-dasharray:0 0 1.72 17.25;}.cls-15{clip-path:url(#clippath-1);}.cls-16{clip-path:url(#clippath-4);}.cls-17{clip-path:url(#clippath-3);}.cls-18{clip-path:url(#clippath-2);}.cls-19{clip-path:url(#clippath-7);}.cls-20{clip-path:url(#clippath-6);}.cls-21{clip-path:url(#clippath-5);}.cls-7{stroke-dasharray:0 0 1.79 17.85;}.cls-8{stroke-dasharray:0 0 1.74 17.45;}.cls-9{stroke-dasharray:0 0 1.7 16.99;}.cls-10{stroke:#57678b;stroke-width:3.5px;}</style><clipPath id="clippath"><circle class="cls-13" cx="1117.52" cy="1545.82" r="209.19"></circle></clipPath><clipPath id="clippath-1"><rect class="cls-1" x="671.18" y="1640.84" width="103.6" height="103.6" rx="51.8" ry="51.8"></rect></clipPath><clipPath id="clippath-2"><circle class="cls-1" cx="1360.08" cy="898.67" r="172.18"></circle></clipPath><clipPath id="clippath-3"><circle class="cls-1" cx="1117.52" cy="1545.82" r="209.19"></circle></clipPath><clipPath id="clippath-4"><circle class="cls-1" cx="598.86" cy="1752.39" r="63.81"></circle></clipPath><clipPath id="clippath-5"><circle class="cls-1" cx="1273.24" cy="2724.88" r="198"></circle></clipPath><clipPath id="clippath-6"><circle class="cls-1" cx="1274.33" cy="3196.79" r="206.83"></circle></clipPath><clipPath id="clippath-7"><circle class="cls-1" cx="1119" cy="3939.09" r="95.75"></circle></clipPath></defs><rect class="cls-14" width="1920" height="4856"></rect><line class="cls-10" y1="202.72" x2="1920" y2="202.72"></line><line class="cls-10" y1="511.68" x2="1920" y2="511.68"></line><line class="cls-10" x1="1920" y1="701.83" y2="701.83"></line><line class="cls-10" y1="1024.96" x2="1920" y2="1024.96"></line><line class="cls-10" y1="1381.15" x2="1920" y2="1381.15"></line><line class="cls-10" y1="1690.11" x2="1920" y2="1690.11"></line><line class="cls-10" x1="1920" y1="1876.26" y2="1876.26"></line><line class="cls-10" y1="2203.39" x2="1920" y2="2203.39"></line><line class="cls-10" y1="2554.58" x2="1920" y2="2554.58"></line><line class="cls-10" y1="2863.54" x2="1920" y2="2863.54"></line><line class="cls-10" x1="1920" y1="3053.69" y2="3053.69"></line><line class="cls-10" y1="3376.82" x2="1920" y2="3376.82"></line><line class="cls-10" y1="3739.87" x2="1920" y2="3739.87"></line><line class="cls-10" y1="4048.83" x2="1920" y2="4048.83"></line><line class="cls-10" x1="1920" y1="4238.98" y2="4238.98"></line><line class="cls-10" y1="4562.11" x2="1920" y2="4562.11"></line><rect class="cls-13" x="1509.49" y="3741.14" width="63.85" height="822.24"></rect><circle class="cls-13" cx="1273.24" cy="2724.88" r="198"></circle><circle class="cls-13" cx="1274.33" cy="3196.79" r="206.83"></circle><circle class="cls-13" cx="598.86" cy="1752.39" r="63.81"></circle><circle class="cls-13" cx="1117.52" cy="1545.82" r="209.19"></circle><g class="cls-11"><path class="cls-13" d="m1276.17,1187.21c7.17,0,13.45,6.28,13.45,13.45,0,3.14-.9,5.83-2.69,8.07-30.49,41.7-73.08,65.91-110.3,102.23-64.57,62.32-110.75,153.79-112.09,234.05,0,4.93.45,127.34,42.15,127.34,46.63,0,43.49-149.31,43.49-191.9,0-19.28,1.35-272.61,1.35-386.95,0-7.62,5.83-13.45,13.45-13.45s13.45,5.83,13.45,13.45c0,114.78-1.35,368.12-1.35,386.95,0,43.49,8.52,218.81-70.39,218.81-72.64,0-69.05-148.41-69.05-154.24,1.34-88.33,51.11-186.97,120.16-253.78,39.91-38.11,79.81-60.98,107.61-98.64,2.24-3.14,6.28-5.38,10.76-5.38Z"></path></g><circle class="cls-13" cx="1360.08" cy="898.67" r="172.18"></circle><rect class="cls-13" x="671.18" y="1640.84" width="103.6" height="103.6" rx="51.8" ry="51.8"></rect><line class="cls-5" x1="439.9" y1="3070.71" x2="439.9" y2="3071.58"></line><line class="cls-3" x1="439.9" y1="3089.4" x2="439.9" y2="3511.71"></line><line class="cls-5" x1="439.9" y1="3520.62" x2="439.9" y2="3521.49"></line><line class="cls-5" x1="439.9" y1="3602.77" x2="439.89" y2="3603.65"></line><line class="cls-7" x1="439.78" y1="3621.5" x2="439.2" y2="3710.75"></line><line class="cls-5" x1="439.14" y1="3719.68" x2="439.13" y2="3720.55"></line><line class="cls-5" x1="1119.51" y1="3601.57" x2="1119.51" y2="3602.44"></line><line class="cls-2" x1="1119.51" y1="3619.68" x2="1119.51" y2="3819.69"></line><line class="cls-5" x1="1119.51" y1="3828.31" x2="1119.51" y2="3829.19"></line><line class="cls-5" x1="1117.52" y1="1247.08" x2="1117.52" y2="1247.95"></line><line class="cls-9" x1="1117.52" y1="1264.94" x2="1117.52" y2="1312.52"></line><line class="cls-5" x1="1117.52" y1="1321.01" x2="1117.52" y2="1321.89"></line><line class="cls-5" x1="722.98" y1="1245.21" x2="722.98" y2="1246.08"></line><line class="cls-6" x1="722.98" y1="1263.33" x2="722.98" y2="1615.2"></line><line class="cls-5" x1="722.98" y1="1623.83" x2="722.98" y2="1624.7"></line><line class="cls-5" x1="1352.95" y1="1087.85" x2="1352.95" y2="1088.72"></line><line class="cls-4" x1="1352.95" y1="1104.29" x2="1352.95" y2="1165.01"></line><line class="cls-5" x1="1352.95" y1="1172.79" x2="1352.95" y2="1173.66"></line><path class="cls-12" d="m1469.4,4627.95v-19.95h2.94v19.95c0,9.41,4.07,10.63,8.86,10.63s8.78-1.01,8.78-10.63v-19.95h2.94v19.62c0,11.64-5.34,13.69-11.76,13.69s-11.76-2.06-11.76-13.36Z"></path><path class="cls-12" d="m1500.7,4619.76h2.39l.34,3.86h.08c1.13-2.48,4.03-4.41,7.86-4.41,6.3,0,9.66,3.99,9.66,11.01s-4.28,11.09-9.87,11.09c-3.78,0-6.38-1.6-7.44-3.7h-.08v11.55h-2.94v-29.41Zm17.18,10.63c0-7.18-3.4-8.61-6.93-8.61-4.24,0-7.56,2.73-7.56,8.44,0,6.01,3.45,8.57,7.44,8.57,3.03,0,7.06-1.47,7.06-8.4Z"></path><path class="cls-12" d="m1526.9,4619.76h2.61l.29,3.91c1.01-2.14,3.07-4.45,6.76-4.45,1.26,0,2.18.21,3.02.55v3.15c-1.13-.5-2.1-.76-3.4-.76-3.74,0-6.34,2.81-6.34,5.75v12.85h-2.94v-21Z"></path><path class="cls-12" d="m1544.21,4608h2.98v6.51h-2.98v-6.51Zm0,11.76h2.94v21h-2.94v-21Z"></path><path class="cls-12" d="m1553.91,4642.57v-.13h3.11v.13c0,2.9,1.93,4.33,6.13,4.33,4.79,0,7.02-2.94,7.02-7.86v-2.1h-.08c-1.09,2.18-3.65,4.08-7.48,4.08-6.3,0-9.75-3.99-9.75-10.71,0-7.1,4.37-11.09,9.96-11.09,3.78,0,6.55,1.81,7.56,4.12h.13l.29-3.57h2.31v19.16c0,5.88-2.81,10.71-10.33,10.71-6.3,0-8.86-2.98-8.86-7.06Zm16.59-12.77c0-5.5-3.36-8.07-7.35-8.07-3.02,0-7.14,1.47-7.14,8.4s3.57,8.32,7.1,8.32c4.24,0,7.39-2.73,7.39-8.65Z"></path><path class="cls-12" d="m1580.45,4608h2.94v15.16c1.05-2.1,3.28-3.95,7.31-3.95,4.75,0,7.77,2.52,7.77,7.94v13.61h-2.94v-13.27c0-4.33-2.14-5.71-5.5-5.71-3.82,0-6.64,2.69-6.64,5.63v13.36h-2.94v-32.77Z"></path><path class="cls-12" d="m1616.79,4638.08v2.6c-.76.21-2.14.59-4.03.59-3.82,0-6.34-1.6-6.34-6.89v-12.18h-4.16v-2.44h4.16v-6.05l2.94-1.43v7.48h5.92v2.44h-5.92v11.8c0,2.81.76,4.58,3.4,4.58,1.6,0,3.23-.29,4.03-.5Z"></path><path class="cls-12" d="m315.99,633.03c0,5.17-3.32,9.6-8.49,10.7-8.49,2.21-13.65,8.49-13.65,14.39,0,9.23,13.29,17.34,33.21,17.34,85.99,0,92.26-168.29,96.69-232.87,13.29-188.21,14.02-204.08,15.13-208.51,3.69-18.82,14.39-31.37,32.11-31.37,14.76,0,28.05,8.86,29.16,33.95,15.87,358.72,13.65,305.94,17.34,377.17,2.58,47.98,7.38,63.11,9.96,63.11s5.91-9.96,9.23-62.74c5.17-88.94,15.87-263.5,25.83-378.64,2.21-21.77,15.13-32.85,31-32.85s34.32,12.92,34.32,34.32c0,100.75-11.81,221.06-11.81,289.33,0,118.83,26.2,150.94,65.32,150.94,27.68,0,64.95-25.1,77.87-47.98,1.85-3.32,5.54-5.54,9.6-5.54,5.9,0,11.07,4.8,11.07,11.07,0,1.85-.74,3.69-1.48,5.17-16.98,29.89-61.26,59.42-97.06,59.42-53.14,0-87.46-40.96-87.46-173.08,0-69.01,11.81-189.32,11.81-289.33,0-7.38-5.9-12.18-12.18-12.18-4.8,0-8.12,2.95-8.86,12.92-9.96,114.4-20.67,288.96-25.83,377.91-4.06,64.21-13.29,83.4-31.37,83.4s-28.42-18.45-32.11-83.77c-3.69-71.23-1.48-19.19-17.35-377.91-.37-10.7-2.58-12.55-7.01-12.55-5.54,0-8.49,4.43-10.7,14.39-.37.74.74-8.12-14.39,204.82-4.43,65.32-9.96,253.54-118.83,253.54-29.16,0-55.36-14.76-55.36-39.49,0-16.24,12.18-31.37,30.63-35.8,7.01-1.85,13.66,3.32,13.66,10.7Zm438.8-25.83c0-50.56,37.27-91.52,90.05-91.52s87.46,41.33,87.46,90.79-33.58,93-87.83,93-89.68-42.07-89.68-92.26Zm155.37-.74c0-38.38-25.83-68.64-65.32-68.64s-67.91,30.63-67.91,69.38,27.68,70.12,67.54,70.12,65.69-32.85,65.69-70.86Zm11.07-90.79c6.27,0,11.07,4.8,11.07,11.07v105.92c0,11.07,0,44.65,16.61,44.65,23.99,0,53.88-49.82,59.79-60.16,17.71-30.63,40.96-72.7,40.96-102.6,0-10.33-2.21-12.92-4.43-12.92s-3.32,1.85-3.32,9.96c0,12.18,4.43,16.61,11.44,16.61,7.38,0,23.62-4.43,47.61-4.43,39.49,0,52.77,14.02,52.77,35.8,0,24.36-16.98,53.88-16.98,84.88,0,19.93,5.54,32.85,25.46,32.85,29.52,0,46.5-29.89,70.86-77.5,1.84-3.32,5.54-5.9,9.96-5.9,5.91,0,11.07,4.8,11.07,11.07,0,1.85-.37,3.69-1.48,5.17-25.1,49.08-46.87,89.31-90.42,89.31-36.9,0-47.61-29.15-47.61-54.99,0-34.32,16.98-66.8,16.98-84.88,0-9.6-5.54-13.66-30.63-13.66-21.77,0-36.54,4.43-47.61,4.43-19.93,0-33.58-14.76-33.58-38.75s14.02-32.11,25.46-32.11c15.87,0,26.57,12.92,26.57,35.06,0,35.8-26.2,82.3-43.92,113.67-5.54,9.6-39.86,71.23-78.98,71.23s-38.75-54.99-38.75-66.8v-105.92c0-6.27,4.8-11.07,11.07-11.07Zm311.11,91.52c0-50.56,37.27-91.52,90.05-91.52s87.46,41.33,87.46,90.79-33.58,93-87.83,93-89.68-42.07-89.68-92.26Zm155.37-.74c0-38.38-25.83-68.64-65.32-68.64s-67.91,30.63-67.91,69.38,27.68,70.12,67.54,70.12,65.69-32.85,65.69-70.86Zm102.96-2.95c5.91,0,11.07,5.17,11.07,11.07,0,2.58-.74,4.8-2.21,6.64-25.09,34.32-60.15,54.25-90.79,84.14-53.14,51.3-91.15,126.58-92.26,192.64,0,4.06.37,104.81,34.69,104.81,38.38,0,35.8-122.89,35.8-157.95,0-15.87,1.11-224.38,1.11-318.49,0-6.27,4.8-11.07,11.07-11.07s11.07,4.8,11.07,11.07c0,94.48-1.11,302.99-1.11,318.49,0,35.8,7.01,180.1-57.94,180.1-59.79,0-56.83-122.15-56.83-126.95,1.11-72.7,42.07-153.89,98.9-208.88,32.85-31.37,65.69-50.19,88.57-81.19,1.85-2.58,5.17-4.43,8.86-4.43Zm198.18-5.91c5.91,0,11.07,4.8,11.07,11.07,0,1.48-.37,2.95-1.11,4.43-29.52,65.69-82.3,86.36-124,86.36-63.48,0-93.74-46.87-93.74-92.26,0-50.56,37.27-91.52,90.05-91.52,44.66,0,71.96,30.63,71.96,61.26,0,28.42-22.88,54.62-72.7,54.62-20.3,0-45.02-4.8-73.81-17.35-3.69-1.85-6.27-5.54-6.27-10.33,0-5.91,4.8-11.07,11.07-11.07,1.48,0,2.95.37,4.43,1.11,25.83,11.44,46.87,15.5,64.58,15.5,36.54,0,50.56-15.87,50.56-32.48,0-18.82-18.45-39.12-49.82-39.12-40.23,0-67.91,30.63-67.91,69.38,0,35.8,22.88,70.12,71.6,70.12,35.43,0,78.61-17.71,103.7-73.07,1.85-4.06,5.54-6.64,10.33-6.64Z"></path><path class="cls-12" d="m325.95,1385.59c0,5.91-4.43,10.7-9.96,11.07-54.99,5.17-91.89,58.31-91.89,108.13,0,33.95,15.87,85.25,83.77,85.25,87.1,0,151.31-83.77,151.31-146.88,0-28.79-12.92-41.7-38.01-41.7-90.42,0-151.68,144.3-151.68,272.73,0,101.86,37.64,180.1,102.96,180.1,50.56,0,68.27-29.89,92.63-77.5,1.85-3.32,5.54-5.9,9.96-5.9,5.9,0,11.07,4.8,11.07,11.07,0,1.85-.37,3.69-1.48,5.17-25.1,48.71-48.35,89.31-112.19,89.31-81.93,0-125.11-91.89-125.11-202.24,0-135.81,65.69-294.87,173.82-294.87,37.64,0,60.15,23.25,60.15,63.85,0,73.44-72.33,169.02-173.45,169.02-85.62,0-105.92-68.27-105.92-107.39,0-59.42,44.29-123.63,111.82-130.27,6.64-.37,12.18,4.8,12.18,11.07Zm138.39,398.57c0-50.56,37.27-91.52,90.05-91.52s87.46,41.33,87.46,90.79-33.58,93-87.83,93-89.68-42.07-89.68-92.26Zm155.37-.74c0-38.38-25.83-68.64-65.32-68.64s-67.9,30.63-67.9,69.38,27.68,70.12,67.54,70.12,65.69-32.85,65.69-70.86Zm145.4,92.63c-6.27,0-11.07-4.8-11.07-11.07v-91.15c0-12.18,2.58-59.05-14.76-59.05-12.18,0-17.35,14.02-25.46,37.27-17.71,50.93-46.13,70.86-71.96,70.86-39.49,0-68.64-46.5-44.29-94.11,1.85-3.69,5.54-6.27,9.6-6.27,6.27,0,11.07,5.17,11.07,11.07,0,1.85-.37,3.69-1.11,5.17-16.61,32.85,1.48,62,24.73,62,15.87,0,36.54-14.76,51.3-56.1,8.12-23.99,17.71-52.04,46.13-52.04,42.44,0,36.9,68.64,36.9,81.19v91.15c0,6.27-4.8,11.07-11.07,11.07Zm.37-109.61c-6.27,0-11.44-5.54-11.07-11.81,3.32-42.44,26.94-62,60.52-62,29.16,0,56.83,17.35,56.83,57.2v115.14c0,6.27-4.8,11.07-11.07,11.07s-11.07-4.8-11.07-11.07v-115.14c0-25.1-15.13-35.06-34.69-35.06-22.14,0-36.17,11.07-38.38,41.33-.37,5.91-5.17,10.33-11.07,10.33Zm95.21,0c-6.27,0-11.44-5.54-11.07-11.81,3.69-42.81,28.05-62,61.63-62,28.79,0,57.2,17.35,57.2,57.2v59.42c.74,11.44,1.48,45.02,22.14,45.02,24.36,0,46.13-38.75,64.95-76.39,1.85-3.69,5.54-6.27,9.96-6.27,6.27,0,11.07,5.17,11.07,11.07,0,1.85-.37,3.69-1.11,5.17-19.56,39.86-46.13,88.57-84.88,88.57-43.18,0-43.55-56.83-44.29-66.43v-60.15c0-24.73-15.5-35.06-35.06-35.06-22.51,0-37.27,11.44-39.49,41.33-.37,5.91-5.17,10.33-11.07,10.33Zm398.94,5.54c6.27,0,11.07,5.17,11.07,11.07,0,2.58-.74,4.8-2.21,7.01-15.13,19.56-34.69,28.79-53.88,28.79-31.37,0-60.52-25.83-60.52-63.85,0-34.69,16.98-53.88,35.06-53.88,16.61,0,31.37,16.24,31.37,48.71,0,86.73-43.55,126.58-91.89,126.58-56.83,0-72.7-60.52-74.55-120.68-3.69-101.12-7.38-191.54-.74-252.43,8.12-77.5,33.95-123.63,64.21-123.63,33.95,0,61.63,57.2,61.63,122.89,0,92.26-59.42,209.25-101.86,286.01-1.85,3.32-5.54,5.54-9.6,5.54-5.9,0-11.07-4.8-11.07-11.07,0-1.85.37-3.69,1.48-5.17,42.07-76.02,98.9-188.58,98.9-275.31,0-56.83-23.62-100.75-39.49-100.75-12.92,0-34.69,34.69-42.07,103.7-6.64,59.42-2.95,148.36.74,249.48,1.85,55.73,14.02,99.27,52.4,99.27s69.75-31,69.75-104.44c0-19.19-6.27-26.57-9.23-26.57-4.43,0-12.92,9.96-12.92,31.74,0,25.46,18.08,41.7,38.38,41.7,12.55,0,25.46-5.9,36.17-20.3,2.21-2.58,5.17-4.43,8.86-4.43Zm-9.6,12.18c0-50.56,37.27-91.52,90.05-91.52s87.46,41.33,87.46,90.79-33.58,93-87.83,93-89.68-42.07-89.68-92.26Zm155.37-.74c0-38.38-25.83-68.64-65.32-68.64s-67.91,30.63-67.91,69.38,27.68,70.12,67.54,70.12,65.69-32.85,65.69-70.86Zm115.14-21.4c6.27,0,11.07,5.17,11.07,11.07,0,1.48-.37,2.95-.74,4.06-16.24,40.6-41.7,99.27-86.73,99.27-39.12,0-38.75-54.99-38.75-66.8v-105.92c0-6.27,4.8-11.07,11.07-11.07s11.07,4.8,11.07,11.07v105.92c0,11.07,0,44.65,16.61,44.65,29.52,0,50.56-46.5,66.06-85.25,1.84-4.06,5.54-7.01,10.33-7.01Zm131.01,9.6c6.27,0,11.07,5.17,11.07,11.07,0,1.85-.37,3.69-1.11,5.17-19.56,39.86-46.13,88.57-84.88,88.57-36.17,0-67.17-31.37-67.17-77.87v-246.52c0-6.27,4.8-11.07,11.07-11.07s11.07,4.8,11.07,11.07v246.52c0,33.95,21.41,55.73,45.02,55.73s46.13-38.75,64.95-76.39c1.85-3.69,5.54-6.27,9.96-6.27Zm-10.33-136.92c0,6.27-4.8,11.07-11.07,11.07h-105.55c-6.27,0-11.07-4.8-11.07-11.07s4.8-11.07,11.07-11.07h105.55c6.27,0,11.07,4.8,11.07,11.07Z"></path><path class="cls-12" d="m346.8,2984.28c0,5.17-3.32,9.6-8.12,10.7-7.38,1.85-11.07,7.75-11.07,14.39,0,9.6,9.96,17.34,32.48,17.34,84.51,0,85.99-125.48,85.99-239.88,0-14.02-1.48-98.9-1.48-126.58,0-47.24,2.95-106.29,35.06-106.29,34.32,0,38.38,68.27,44.65,147.25,6.27,83.41,22.14,186.37,32.48,259.81,6.27,45.39,10.33,67.17,21.4,67.17,8.12,0,14.02-14.39,16.61-62.74,1.48-23.62,1.85-59.79,1.85-83.77,0-91.52-3.32-186-3.32-214.79,0-97.43,39.49-112.93,73.44-112.93,56.46,0,81.56,43.55,81.56,78.98,0,30.63-18.82,58.68-54.62,58.68-16.24,0-30.26-5.9-39.86-18.82-1.48-1.85-2.58-4.06-2.58-6.64,0-5.9,5.17-11.07,11.07-11.07,3.69,0,7.01,1.85,8.86,4.43,5.17,7.01,12.92,9.96,22.51,9.96,21.77,0,32.48-16.24,32.48-36.54,0-25.83-17.71-56.83-59.42-56.83-26.2,0-51.3,11.44-51.3,90.79,0,28.05,3.32,122.52,3.32,214.79,0,23.99-.37,60.89-1.85,85.25-3.32,61.26-13.65,83.4-38.75,83.4-29.89,0-35.8-31.74-43.55-86.36-10.33-73.44-26.2-177.14-32.48-261.29-7.38-97.06-16.24-126.58-22.51-126.58-7.75,0-12.92,46.5-12.92,84.14,0,27.68,1.48,112.56,1.48,126.58,0,117.36-1.48,262.02-108.13,262.02-32.85,0-54.62-15.13-54.62-39.49,0-15.5,9.6-31,27.68-35.8,6.64-1.85,13.65,3.32,13.65,10.7Zm309.26-25.83c0-50.56,37.27-91.52,90.05-91.52s87.46,41.33,87.46,90.79-33.58,93-87.83,93-89.68-42.07-89.68-92.26Zm155.37-.74c0-38.38-25.83-68.64-65.32-68.64s-67.9,30.63-67.9,69.38,27.68,70.12,67.54,70.12,65.69-32.85,65.69-70.86Zm115.14-21.4c6.27,0,11.07,5.17,11.07,11.07,0,1.48-.37,2.95-.74,4.06-16.24,40.6-41.7,99.27-86.73,99.27-39.12,0-38.75-54.99-38.75-66.8v-105.92c0-6.27,4.8-11.07,11.07-11.07s11.07,4.8,11.07,11.07v105.92c0,11.07,0,44.65,16.61,44.65,29.52,0,50.56-46.5,66.06-85.25,1.85-4.06,5.54-7.01,10.33-7.01Zm193.38-66.8c7.01,0,12.55,6.64,10.7,13.65-20.67,89.68-69.38,167.55-147.99,167.55-36.17,0-67.17-31.37-67.17-77.87v-246.52c0-6.27,4.8-11.07,11.07-11.07s11.07,4.8,11.07,11.07v246.52c0,33.95,21.4,55.73,45.02,55.73,64.21,0,107.39-66.8,126.58-150.2,1.11-5.17,5.54-8.86,10.7-8.86Zm-16.98-56.1c0-9.23,7.75-16.98,17.34-16.98s16.98,7.75,16.98,16.98-7.75,17.34-16.98,17.34-17.34-7.75-17.34-17.34Zm130.27,122.89c5.9,0,11.07,4.8,11.07,11.07,0,1.48-.37,2.95-.74,4.06-18.82,45.02-45.76,99.27-91.15,99.27s-43.18-46.5-43.18-66.8v-105.92c0-6.27,4.8-11.07,11.07-11.07s11.07,4.8,11.07,11.07v105.92c0,19.93-.37,44.65,21.04,44.65,30.63,0,53.14-43.18,70.49-85.62,1.85-3.69,5.54-6.64,10.33-6.64Zm-3.32,29.15c-6.27,0-11.07-4.8-11.07-11.07,0-1.85.37-3.69,1.11-5.17,40.23-76.02,100.01-185.63,100.01-272.36,0-56.83-25.46-100.75-39.86-100.75-11.44,0-31.74,34.32-38.75,103.7-6.27,61.26-2.21,235.82-6.64,322.55-1.11,22.14-2.21,53.51-2.21,91.52,0,114.04,12.92,259.44,51.3,258.7,14.76-.37,36.17-40.59,36.17-97.43,0-87.83-35.43-210.36-100.75-274.94-2.21-2.21-3.32-4.8-3.32-8.12,0-5.91,4.8-11.07,11.07-11.07,2.95,0,5.54,1.48,7.75,3.32,70.49,69.75,107.39,198.92,107.39,290.81,0,65.69-25.1,119.2-57.57,119.57-65.32,1.48-74.18-163.49-74.18-280.85,0-38.75,1.11-70.12,2.21-93,4.43-85.25.37-260.55,6.64-323.29,7.75-77.13,31.37-123.63,60.89-123.63,32.48,0,62,56.83,62,122.89,0,92.26-62.37,206.67-102.6,282.69-1.85,3.69-5.54,5.9-9.6,5.9Z"></path><path class="cls-12" d="m367.53,3841.9c6.32,0,11.53,5.58,11.16,11.9-3.72,51.31-33.47,91.47-68.42,91.47-25.66,0-58.38-22.68-58.38-72.51,0-84.78,93.7-137.21,182.95-137.21s151.71,51.69,151.71,133.12c0,59.12-34.21,113.78-85.9,113.78-23.05,0-41.27-11.53-45.36-38.3-.74-6.32,4.09-12.64,11.16-12.64,5.58,0,10.04,4.09,10.78,9.67,2.23,14.13,10.41,18.96,23.43,18.96,36.44,0,63.58-42.02,63.58-91.47,0-68.05-52.43-110.81-129.4-110.81s-160.64,45.74-160.64,114.9c0,34.95,20.82,50.2,36.07,50.2,20.82,0,43.13-29.38,46.11-70.65.37-5.95,5.21-10.41,11.16-10.41Zm-60.98,328.34c0,5.21-3.35,9.67-8.18,10.78-10.04,2.97-13.01,8.55-13.01,13.76s2.23,18.96,29.75,18.96c58.75,0,87.75-66.19,88.13-129.77.74-159.15,1.12-161.01,1.49-219.76.37-39.04,11.53-84.41,37.18-94.45,1.49-.74,2.97-.74,4.09-.74,6.32,0,11.53,4.83,11.53,11.16,0,4.83-2.97,8.92-7.06,10.41-13.39,5.21-23.05,38.67-23.43,73.62-.37,60.98-.74,62.84-1.49,219.76-.37,72.14-35.32,152.08-110.44,152.08-47.97,0-52.06-33.09-52.06-41.27,0-12.64,7.06-29.38,29.75-35.33,7.06-1.86,13.76,3.72,13.76,10.78Zm161.38-27.14c0-50.94,37.56-92.22,90.73-92.22s88.13,41.65,88.13,91.47-33.84,93.7-88.5,93.7-90.36-42.39-90.36-92.96Zm156.55-.74c0-38.67-26.03-69.16-65.82-69.16s-68.42,30.86-68.42,69.91,27.89,70.65,68.05,70.65,66.19-33.09,66.19-71.39Zm11.16-91.47c6.32,0,11.16,4.83,11.16,11.16v106.72c0,11.16,0,44.99,16.73,44.99,24.17,0,54.29-50.2,60.24-60.61,17.85-30.86,41.27-73.25,41.27-103.37,0-10.41-2.23-13.01-4.46-13.01s-3.35,1.86-3.35,10.04c0,12.27,4.46,16.73,11.53,16.73,7.44,0,23.8-4.46,47.97-4.46,39.79,0,53.17,14.13,53.17,36.07,0,24.54-17.1,54.29-17.1,85.52,0,20.08,5.58,33.09,25.66,33.09,29.75,0,46.85-30.12,71.39-78.09,1.86-3.35,5.58-5.95,10.04-5.95,5.95,0,11.16,4.83,11.16,11.16,0,1.86-.37,3.72-1.49,5.21-25.29,49.45-47.22,89.99-91.1,89.99-37.18,0-47.97-29.38-47.97-55.4,0-34.58,17.1-67.3,17.1-85.52,0-9.67-5.58-13.76-30.86-13.76-21.94,0-36.81,4.46-47.97,4.46-20.08,0-33.84-14.87-33.84-39.04s14.13-32.35,25.66-32.35c15.99,0,26.77,13.01,26.77,35.33,0,36.07-26.4,82.92-44.25,114.53-5.58,9.67-40.16,71.77-79.57,71.77s-39.04-55.4-39.04-67.3v-106.72c0-6.32,4.83-11.16,11.16-11.16Zm314.21,92.22c0-50.94,37.56-92.22,90.73-92.22s88.13,41.65,88.13,91.47-33.84,93.7-88.5,93.7-90.36-42.39-90.36-92.96Zm156.55-.74c0-38.67-26.03-69.16-65.82-69.16s-68.42,30.86-68.42,69.91,27.89,70.65,68.05,70.65,66.19-33.09,66.19-71.39Zm12.27-241.33c6.32,0,11.16,4.83,11.16,11.16v256.57c0,10.04.37,44.99,16.36,44.99,29.75,0,46.85-30.12,71.39-78.09,1.86-3.35,5.58-5.95,10.04-5.95,5.95,0,11.16,4.83,11.16,11.16,0,1.86-.37,3.72-1.49,5.21-25.28,49.45-47.22,89.99-91.1,89.99-39.42,0-38.67-56.52-38.67-67.3v-256.57c0-6.32,4.83-11.16,11.16-11.16Zm98.17,242.07c0-50.94,37.56-92.22,90.73-92.22s88.13,41.65,88.13,91.47-33.84,93.7-88.5,93.7-90.36-42.39-90.36-92.96Zm156.55-.74c0-38.67-26.03-69.16-65.82-69.16s-68.42,30.86-68.42,69.91,27.89,70.65,68.05,70.65,66.19-33.09,66.19-71.39Zm146.51,93.33c-6.32,0-11.16-4.83-11.16-11.16v-91.84c0-12.27,2.6-59.49-14.87-59.49-12.27,0-17.48,14.13-25.66,37.56-17.85,51.31-46.48,71.39-72.51,71.39-39.79,0-69.16-46.85-44.62-94.82,1.86-3.72,5.58-6.32,9.67-6.32,6.32,0,11.16,5.21,11.16,11.16,0,1.86-.37,3.72-1.12,5.21-16.73,33.09,1.49,62.47,24.91,62.47,15.99,0,36.81-14.87,51.69-56.52,8.18-24.17,17.85-52.43,46.48-52.43,42.76,0,37.18,69.16,37.18,81.81v91.84c0,6.32-4.83,11.16-11.15,11.16Zm0-110.44c-6.32,0-11.53-5.95-10.78-12.27,3.72-36.07,25.66-62.1,58.38-62.1,29.38,0,57.64,21.57,57.64,57.64v59.87c.74,11.53,1.49,45.36,22.31,45.36,24.54,0,46.48-39.04,65.44-76.97,1.86-3.72,5.58-6.32,10.04-6.32,6.32,0,11.16,5.21,11.16,11.16,0,1.86-.37,3.72-1.12,5.21-19.71,40.16-46.48,89.24-85.52,89.24-43.51,0-43.88-57.26-44.62-66.93v-60.61c0-21.94-16.36-35.32-35.32-35.32s-33.84,16.36-36.44,42.02c-.37,5.58-5.2,10.04-11.15,10.04Z"></path><path class="cls-12" d="m120.29,3540.78h8.36c11.05,0,17.39,4.54,17.39,16.43s-6.26,16.34-17.18,16.34h-8.57v-32.77Zm8.65,30.12c9.41,0,14.03-3.74,14.03-13.78s-4.49-13.74-14.07-13.74h-5.67v27.51h5.71Z"></path><path class="cls-12" d="m169.61,3564.05h-15.96c.17,4.79,2.48,7.48,6.93,7.48,3.82,0,5.67-1.43,5.96-4.83h2.98c-.29,4.24-3.28,7.39-9.03,7.39-7.06,0-9.83-4.66-9.83-10.88s3.23-11.21,10-11.21,8.95,3.99,8.95,10.21v1.85Zm-3.11-2.98c0-4.45-1.72-6.55-5.92-6.55s-6.55,2.65-6.89,6.97h12.81v-.42Z"></path><path class="cls-12" d="m173.8,3563.21c0-6.38,3.23-11.21,10-11.21s8.95,3.91,8.95,8.95v.42h-3.11v-.63c0-3.82-1.64-6.09-5.84-6.09-4.75,0-7.01,3.11-7.01,8.4,0,5.63,2.39,8.49,6.93,8.49,3.82,0,5.84-1.85,5.92-5.67h3.03c-.08,4.66-3.15,8.23-9.03,8.23-7.23,0-9.83-4.75-9.83-10.88Z"></path><path class="cls-12" d="m196.94,3563.04c0-6.22,3.32-11.05,10.38-11.05,6.59,0,10.25,4.83,10.25,11.05s-3.7,11.05-10.29,11.05c-7.27,0-10.33-4.83-10.33-11.05Zm17.56,0c0-5.33-2.9-8.48-7.23-8.48-4.75,0-7.27,3.15-7.27,8.48s2.56,8.49,7.27,8.49c4.33,0,7.23-3.15,7.23-8.49Z"></path><path class="cls-12" d="m223.45,3552.54h2.6l.29,3.91c1.01-2.14,3.07-4.45,6.76-4.45,1.26,0,2.18.21,3.02.54v3.15c-1.13-.5-2.1-.76-3.4-.76-3.74,0-6.34,2.81-6.34,5.76v12.85h-2.94v-21Z"></path><path class="cls-12" d="m239.07,3567.74c0-3.95,2.23-6.09,7.86-6.09h6.34v-1.72c0-2.98-1.26-5.42-5.46-5.42-3.95,0-5.33,1.51-5.33,4.12v.88h-2.98v-.84c0-5,4.2-6.68,8.32-6.68,5.8,0,8.4,2.86,8.4,8.44v13.11h-2.06l-.54-2.98h-.08c-1.26,1.89-3.7,3.53-7.35,3.53-4.92,0-7.1-2.31-7.1-6.34Zm14.2-1.85v-1.76h-7.01c-2.65,0-4.03.92-4.03,3.61,0,2.35,1.26,3.87,4.5,3.87,4.16,0,6.55-2.14,6.55-5.71Z"></path><path class="cls-12" d="m274.31,3570.85v2.6c-.76.21-2.14.59-4.03.59-3.82,0-6.34-1.6-6.34-6.89v-12.18h-4.16v-2.44h4.16v-6.05l2.94-1.43v7.48h5.92v2.44h-5.92v11.8c0,2.81.76,4.58,3.4,4.58,1.6,0,3.24-.29,4.03-.5Z"></path><path class="cls-12" d="m279.14,3540.78h2.98v6.51h-2.98v-6.51Zm0,11.76h2.94v21h-2.94v-21Z"></path><path class="cls-12" d="m286.32,3552.58v-.04h3.36l7.35,17.98h.08l7.1-17.98h3.07v.04l-8.74,20.96h-3.02l-9.2-20.96Z"></path><path class="cls-12" d="m328.11,3564.05h-15.96c.17,4.79,2.48,7.48,6.93,7.48,3.82,0,5.67-1.43,5.97-4.83h2.98c-.29,4.24-3.28,7.39-9.03,7.39-7.06,0-9.83-4.66-9.83-10.88s3.23-11.21,10-11.21,8.95,3.99,8.95,10.21v1.85Zm-3.11-2.98c0-4.45-1.72-6.55-5.92-6.55s-6.55,2.65-6.89,6.97h12.81v-.42Z"></path><path class="cls-12" d="m343.23,3566.15v-13.61h2.94v13.28c0,4.33,2.14,5.71,5.42,5.71,3.74,0,6.55-2.69,6.55-5.63v-13.36h2.94v21h-2.6l-.25-3.36h-.08c-.97,2.02-3.23,3.91-7.23,3.91-4.66,0-7.69-2.52-7.69-7.94Z"></path><path class="cls-12" d="m368.43,3552.54h2.39l.34,3.87h.08c1.13-2.48,4.03-4.41,7.86-4.41,6.3,0,9.66,3.99,9.66,11.01s-4.29,11.09-9.87,11.09c-3.78,0-6.38-1.6-7.43-3.7h-.08v11.55h-2.94v-29.41Zm17.18,10.63c0-7.18-3.4-8.61-6.93-8.61-4.24,0-7.56,2.73-7.56,8.44,0,6.01,3.45,8.57,7.44,8.57,3.02,0,7.06-1.47,7.06-8.4Z"></path><path class="cls-12" d="m394.64,3552.54h2.39l.34,3.87h.08c1.13-2.48,4.03-4.41,7.86-4.41,6.3,0,9.66,3.99,9.66,11.01s-4.29,11.09-9.87,11.09c-3.78,0-6.38-1.6-7.43-3.7h-.08v11.55h-2.94v-29.41Zm17.18,10.63c0-7.18-3.4-8.61-6.93-8.61-4.24,0-7.56,2.73-7.56,8.44,0,6.01,3.45,8.57,7.44,8.57,3.02,0,7.06-1.47,7.06-8.4Z"></path><path class="cls-12" d="m438.11,3564.05h-15.96c.17,4.79,2.48,7.48,6.93,7.48,3.82,0,5.67-1.43,5.97-4.83h2.98c-.29,4.24-3.28,7.39-9.03,7.39-7.06,0-9.83-4.66-9.83-10.88s3.23-11.21,10-11.21,8.95,3.99,8.95,10.21v1.85Zm-3.11-2.98c0-4.45-1.72-6.55-5.92-6.55s-6.55,2.65-6.89,6.97h12.81v-.42Z"></path><path class="cls-12" d="m443.99,3552.54h2.6l.29,3.91c1.01-2.14,3.07-4.45,6.76-4.45,1.26,0,2.18.21,3.02.54v3.15c-1.13-.5-2.1-.76-3.4-.76-3.74,0-6.34,2.81-6.34,5.76v12.85h-2.94v-21Z"></path><path class="cls-12" d="m458.98,3563.21c0-6.38,3.23-11.21,10-11.21s8.95,3.91,8.95,8.95v.42h-3.11v-.63c0-3.82-1.64-6.09-5.84-6.09-4.75,0-7.02,3.11-7.02,8.4,0,5.63,2.39,8.49,6.93,8.49,3.82,0,5.84-1.85,5.92-5.67h3.02c-.08,4.66-3.15,8.23-9.03,8.23-7.22,0-9.83-4.75-9.83-10.88Z"></path><path class="cls-12" d="m482.33,3567.74c0-3.95,2.23-6.09,7.86-6.09h6.34v-1.72c0-2.98-1.26-5.42-5.46-5.42-3.95,0-5.33,1.51-5.33,4.12v.88h-2.98v-.84c0-5,4.2-6.68,8.32-6.68,5.8,0,8.4,2.86,8.4,8.44v13.11h-2.06l-.55-2.98h-.08c-1.26,1.89-3.7,3.53-7.35,3.53-4.92,0-7.1-2.31-7.1-6.34Zm14.2-1.85v-1.76h-7.01c-2.65,0-4.03.92-4.03,3.61,0,2.35,1.26,3.87,4.5,3.87,4.16,0,6.55-2.14,6.55-5.71Z"></path><path class="cls-12" d="m504.93,3567.11v-1.18h2.94v1.13c0,2.86,2.14,4.5,5.96,4.5s5.8-1.01,5.8-3.78c0-2.06-1.01-2.81-3.86-3.32l-4.62-.84c-3.02-.55-5.54-2.02-5.54-5.5,0-3.15,2.35-6.13,8.4-6.13s8.4,3.02,8.4,7.22v.88h-2.98v-.76c0-3.44-2.14-4.92-5.42-4.92-3.95,0-5.33,1.34-5.33,3.36s1.01,2.86,3.91,3.4l4.03.76c4.12.76,6.09,1.93,6.09,5.59,0,4.58-4.12,6.55-8.78,6.55-7.31,0-8.99-3.28-8.99-6.97Z"></path><path class="cls-12" d="m545.84,3564.05h-15.96c.17,4.79,2.48,7.48,6.93,7.48,3.82,0,5.67-1.43,5.97-4.83h2.98c-.29,4.24-3.28,7.39-9.03,7.39-7.06,0-9.83-4.66-9.83-10.88s3.23-11.21,10-11.21,8.95,3.99,8.95,10.21v1.85Zm-3.11-2.98c0-4.45-1.72-6.55-5.92-6.55s-6.55,2.65-6.89,6.97h12.81v-.42Z"></path><path class="cls-12" d="m561.38,3540.78h2.94v32.77h-2.94v-32.77Z"></path><path class="cls-12" d="m588.93,3564.05h-15.96c.17,4.79,2.48,7.48,6.93,7.48,3.82,0,5.67-1.43,5.97-4.83h2.98c-.29,4.24-3.28,7.39-9.03,7.39-7.06,0-9.83-4.66-9.83-10.88s3.23-11.21,10-11.21,8.95,3.99,8.95,10.21v1.85Zm-3.11-2.98c0-4.45-1.72-6.55-5.92-6.55s-6.55,2.65-6.89,6.97h12.81v-.42Z"></path><path class="cls-12" d="m595.4,3567.16v-12.18h-4.16v-2.44h4.16v-6.05l2.94-1.43v7.48h11.85v-6.05l2.94-1.43v7.48h5.92v2.44h-5.92v11.8c0,2.81.76,4.58,3.4,4.58,1.6,0,3.24-.29,4.03-.5v2.6c-.76.21-2.14.59-4.03.59-3.82,0-6.34-1.6-6.34-6.89v-12.18h-11.85v11.8c0,2.81.76,4.58,3.4,4.58,1.6,0,3.23-.29,4.03-.5v2.6c-.76.21-2.14.59-4.03.59-3.82,0-6.34-1.6-6.34-6.89Z"></path><path class="cls-12" d="m642.02,3564.05h-15.96c.17,4.79,2.48,7.48,6.93,7.48,3.82,0,5.67-1.43,5.97-4.83h2.98c-.29,4.24-3.28,7.39-9.03,7.39-7.06,0-9.83-4.66-9.83-10.88s3.23-11.21,10-11.21,8.95,3.99,8.95,10.21v1.85Zm-3.11-2.98c0-4.45-1.72-6.55-5.92-6.55s-6.55,2.65-6.89,6.97h12.81v-.42Z"></path><path class="cls-12" d="m647.9,3552.54h2.6l.29,3.91c1.01-2.14,3.07-4.45,6.76-4.45,1.26,0,2.18.21,3.02.54v3.15c-1.13-.5-2.1-.76-3.4-.76-3.74,0-6.34,2.81-6.34,5.76v12.85h-2.94v-21Z"></path><path class="cls-12" d="m663.1,3567.11v-1.18h2.94v1.13c0,2.86,2.14,4.5,5.96,4.5s5.8-1.01,5.8-3.78c0-2.06-1.01-2.81-3.86-3.32l-4.62-.84c-3.02-.55-5.54-2.02-5.54-5.5,0-3.15,2.35-6.13,8.4-6.13s8.4,3.02,8.4,7.22v.88h-2.98v-.76c0-3.44-2.14-4.92-5.42-4.92-3.95,0-5.33,1.34-5.33,3.36s1.01,2.86,3.91,3.4l4.03.76c4.12.76,6.09,1.93,6.09,5.59,0,4.58-4.12,6.55-8.78,6.55-7.31,0-8.99-3.28-8.99-6.97Z"></path><path class="cls-12" d="m964.83,1187.94h2.94v30.12h15.71v2.65h-18.65v-32.77Z"></path><path class="cls-12" d="m986.63,1210.2c0-6.22,3.32-11.05,10.38-11.05,6.59,0,10.25,4.83,10.25,11.05s-3.7,11.05-10.29,11.05c-7.27,0-10.33-4.83-10.33-11.05Zm17.56,0c0-5.33-2.9-8.49-7.22-8.49-4.75,0-7.27,3.15-7.27,8.49s2.56,8.49,7.27,8.49c4.33,0,7.22-3.15,7.22-8.49Z"></path><path class="cls-12" d="m1011.45,1210.2c0-6.22,3.32-11.05,10.38-11.05,6.59,0,10.25,4.83,10.25,11.05s-3.7,11.05-10.29,11.05c-7.27,0-10.33-4.83-10.33-11.05Zm17.56,0c0-5.33-2.9-8.49-7.22-8.49-4.75,0-7.27,3.15-7.27,8.49s2.56,8.49,7.27,8.49c4.33,0,7.22-3.15,7.22-8.49Z"></path><path class="cls-12" d="m1037.95,1199.7h2.39l.34,3.86h.08c1.13-2.48,4.03-4.41,7.86-4.41,6.3,0,9.66,3.99,9.66,11.01s-4.29,11.09-9.87,11.09c-3.78,0-6.38-1.6-7.43-3.7h-.08v11.55h-2.94v-29.41Zm17.18,10.63c0-7.18-3.4-8.61-6.93-8.61-4.24,0-7.56,2.73-7.56,8.44,0,6.01,3.45,8.57,7.44,8.57,3.02,0,7.06-1.47,7.06-8.4Z"></path><path class="cls-12" d="m1081.43,1211.21h-15.96c.17,4.79,2.48,7.48,6.93,7.48,3.82,0,5.67-1.43,5.97-4.83h2.98c-.29,4.24-3.28,7.39-9.03,7.39-7.06,0-9.83-4.66-9.83-10.88s3.23-11.22,10-11.22,8.95,3.99,8.95,10.21v1.85Zm-3.11-2.98c0-4.45-1.72-6.55-5.92-6.55s-6.55,2.65-6.89,6.97h12.81v-.42Z"></path><path class="cls-12" d="m1085.62,1210.24c0-7.1,4.28-11.09,10.04-11.09,3.7,0,6.22,1.6,7.31,3.74h.04v-14.95h2.94v32.77h-1.97l-.67-3.61h-.08c-1.18,2.31-3.95,4.16-7.77,4.16-6.3,0-9.83-3.99-9.83-11.01Zm17.64-.5c0-5.5-3.36-8.07-7.35-8.07-3.11,0-7.14,1.47-7.14,8.4s3.61,8.61,7.14,8.61c4.24,0,7.35-2.73,7.35-8.95Z"></path><path class="cls-12" d="m1121.7,1214.9c0-3.95,2.23-6.09,7.86-6.09h6.34v-1.72c0-2.98-1.26-5.42-5.46-5.42-3.95,0-5.33,1.51-5.33,4.12v.88h-2.98v-.84c0-5,4.2-6.68,8.32-6.68,5.8,0,8.4,2.86,8.4,8.44v13.11h-2.06l-.55-2.98h-.08c-1.26,1.89-3.7,3.53-7.35,3.53-4.92,0-7.1-2.31-7.1-6.34Zm14.2-1.85v-1.76h-7.01c-2.65,0-4.03.92-4.03,3.61,0,2.35,1.26,3.86,4.5,3.86,4.16,0,6.55-2.14,6.55-5.71Z"></path><path class="cls-12" d="m1144.3,1214.27v-1.18h2.94v1.13c0,2.86,2.14,4.5,5.96,4.5s5.8-1.01,5.8-3.78c0-2.06-1.01-2.81-3.86-3.32l-4.62-.84c-3.02-.55-5.54-2.02-5.54-5.5,0-3.15,2.35-6.13,8.4-6.13s8.4,3.02,8.4,7.23v.88h-2.98v-.76c0-3.44-2.14-4.91-5.42-4.91-3.95,0-5.33,1.34-5.33,3.36s1.01,2.86,3.91,3.4l4.03.76c4.12.76,6.09,1.93,6.09,5.59,0,4.58-4.12,6.55-8.78,6.55-7.31,0-8.99-3.28-8.99-6.97Z"></path><path class="cls-12" d="m1166.26,1210.37c0-6.38,3.23-11.22,10-11.22s8.95,3.91,8.95,8.95v.42h-3.11v-.63c0-3.82-1.64-6.09-5.84-6.09-4.75,0-7.02,3.11-7.02,8.4,0,5.63,2.39,8.49,6.93,8.49,3.82,0,5.84-1.85,5.92-5.67h3.02c-.08,4.66-3.15,8.23-9.03,8.23-7.22,0-9.83-4.75-9.83-10.88Z"></path><path class="cls-12" d="m1208.35,1211.21h-15.96c.17,4.79,2.48,7.48,6.93,7.48,3.82,0,5.67-1.43,5.97-4.83h2.98c-.29,4.24-3.28,7.39-9.03,7.39-7.06,0-9.83-4.66-9.83-10.88s3.23-11.22,10-11.22,8.95,3.99,8.95,10.21v1.85Zm-3.11-2.98c0-4.45-1.72-6.55-5.92-6.55s-6.55,2.65-6.89,6.97h12.81v-.42Z"></path><path class="cls-12" d="m1214.23,1199.7h2.6l.29,3.49c1.01-2.14,3.28-4.03,7.35-4.03,4.75,0,7.77,2.52,7.77,7.94v13.61h-2.94v-13.27c0-4.33-2.14-5.71-5.5-5.71-3.82,0-6.64,2.69-6.64,5.63v13.36h-2.94v-21Z"></path><path class="cls-12" d="m1237.92,1210.24c0-7.1,4.28-11.09,10.04-11.09,3.7,0,6.22,1.6,7.31,3.74h.04v-14.95h2.94v32.77h-1.97l-.67-3.61h-.08c-1.18,2.31-3.95,4.16-7.77,4.16-6.3,0-9.83-3.99-9.83-11.01Zm17.64-.5c0-5.5-3.36-8.07-7.35-8.07-3.11,0-7.14,1.47-7.14,8.4s3.61,8.61,7.14,8.61c4.24,0,7.35-2.73,7.35-8.95Z"></path><path class="cls-12" d="m1282.86,1211.21h-15.96c.17,4.79,2.48,7.48,6.93,7.48,3.82,0,5.67-1.43,5.97-4.83h2.98c-.29,4.24-3.28,7.39-9.03,7.39-7.06,0-9.83-4.66-9.83-10.88s3.23-11.22,10-11.22,8.95,3.99,8.95,10.21v1.85Zm-3.11-2.98c0-4.45-1.72-6.55-5.92-6.55s-6.55,2.65-6.89,6.97h12.81v-.42Z"></path><path class="cls-12" d="m1288.73,1199.7h2.6l.29,3.91c1.01-2.14,3.07-4.45,6.76-4.45,1.26,0,2.18.21,3.02.55v3.15c-1.13-.5-2.1-.76-3.4-.76-3.74,0-6.34,2.81-6.34,5.75v12.85h-2.94v-21Z"></path><path class="cls-12" d="m1303.94,1214.27v-1.18h2.94v1.13c0,2.86,2.14,4.5,5.96,4.5s5.8-1.01,5.8-3.78c0-2.06-1.01-2.81-3.86-3.32l-4.62-.84c-3.02-.55-5.54-2.02-5.54-5.5,0-3.15,2.35-6.13,8.4-6.13s8.4,3.02,8.4,7.23v.88h-2.98v-.76c0-3.44-2.14-4.91-5.42-4.91-3.95,0-5.33,1.34-5.33,3.36s1.01,2.86,3.91,3.4l4.03.76c4.12.76,6.09,1.93,6.09,5.59,0,4.58-4.12,6.55-8.78,6.55-7.31,0-8.99-3.28-8.99-6.97Z"></path><path class="cls-12" d="m1335.98,1214.9c0-3.95,2.23-6.09,7.86-6.09h6.34v-1.72c0-2.98-1.26-5.42-5.46-5.42-3.95,0-5.33,1.51-5.33,4.12v.88h-2.98v-.84c0-5,4.2-6.68,8.32-6.68,5.8,0,8.4,2.86,8.4,8.44v13.11h-2.06l-.55-2.98h-.08c-1.26,1.89-3.7,3.53-7.35,3.53-4.92,0-7.1-2.31-7.1-6.34Zm14.2-1.85v-1.76h-7.01c-2.65,0-4.03.92-4.03,3.61,0,2.35,1.26,3.86,4.5,3.86,4.16,0,6.55-2.14,6.55-5.71Z"></path><path class="cls-12" d="m1360.47,1199.7h2.6l.29,3.49c1.01-2.14,3.28-4.03,7.35-4.03,4.75,0,7.77,2.52,7.77,7.94v13.61h-2.94v-13.27c0-4.33-2.14-5.71-5.5-5.71-3.82,0-6.64,2.69-6.64,5.63v13.36h-2.94v-21Z"></path><path class="cls-12" d="m1384.16,1210.24c0-7.1,4.28-11.09,10.04-11.09,3.7,0,6.22,1.6,7.31,3.74h.04v-14.95h2.94v32.77h-1.97l-.67-3.61h-.08c-1.18,2.31-3.95,4.16-7.77,4.16-6.3,0-9.83-3.99-9.83-11.01Zm17.64-.5c0-5.5-3.36-8.07-7.35-8.07-3.11,0-7.14,1.47-7.14,8.4s3.61,8.61,7.14,8.61c4.24,0,7.35-2.73,7.35-8.95Z"></path><path class="cls-12" d="m1419.82,1210.24c0-7.1,4.28-11.09,10.04-11.09,3.7,0,6.22,1.6,7.31,3.74h.04v-14.95h2.94v32.77h-1.97l-.67-3.61h-.08c-1.18,2.31-3.95,4.16-7.77,4.16-6.3,0-9.83-3.99-9.83-11.01Zm17.64-.5c0-5.5-3.36-8.07-7.35-8.07-3.11,0-7.14,1.47-7.14,8.4s3.61,8.61,7.14,8.61c4.24,0,7.35-2.73,7.35-8.95Z"></path><path class="cls-12" d="m1464.76,1211.21h-15.96c.17,4.79,2.48,7.48,6.93,7.48,3.82,0,5.67-1.43,5.97-4.83h2.98c-.29,4.24-3.28,7.39-9.03,7.39-7.06,0-9.83-4.66-9.83-10.88s3.23-11.22,10-11.22,8.95,3.99,8.95,10.21v1.85Zm-3.11-2.98c0-4.45-1.72-6.55-5.92-6.55s-6.55,2.65-6.89,6.97h12.81v-.42Z"></path><path class="cls-12" d="m1468.75,1214.27v-1.18h2.94v1.13c0,2.86,2.14,4.5,5.96,4.5s5.8-1.01,5.8-3.78c0-2.06-1.01-2.81-3.86-3.32l-4.62-.84c-3.02-.55-5.54-2.02-5.54-5.5,0-3.15,2.35-6.13,8.4-6.13s8.4,3.02,8.4,7.23v.88h-2.98v-.76c0-3.44-2.14-4.91-5.42-4.91-3.95,0-5.33,1.34-5.33,3.36s1.01,2.86,3.91,3.4l4.03.76c4.12.76,6.09,1.93,6.09,5.59,0,4.58-4.12,6.55-8.78,6.55-7.31,0-8.99-3.28-8.99-6.97Z"></path><path class="cls-12" d="m1490.71,1210.37c0-6.38,3.23-11.22,10-11.22s8.95,3.91,8.95,8.95v.42h-3.11v-.63c0-3.82-1.64-6.09-5.84-6.09-4.75,0-7.01,3.11-7.01,8.4,0,5.63,2.39,8.49,6.93,8.49,3.82,0,5.84-1.85,5.92-5.67h3.02c-.08,4.66-3.15,8.23-9.03,8.23-7.22,0-9.83-4.75-9.83-10.88Z"></path><path class="cls-12" d="m1532.8,1211.21h-15.96c.17,4.79,2.48,7.48,6.93,7.48,3.82,0,5.67-1.43,5.97-4.83h2.98c-.29,4.24-3.28,7.39-9.03,7.39-7.06,0-9.83-4.66-9.83-10.88s3.23-11.22,10-11.22,8.95,3.99,8.95,10.21v1.85Zm-3.11-2.98c0-4.45-1.72-6.55-5.92-6.55s-6.55,2.65-6.89,6.97h12.81v-.42Z"></path><path class="cls-12" d="m1538.68,1199.7h2.6l.29,3.49c1.01-2.14,3.28-4.03,7.35-4.03,4.75,0,7.77,2.52,7.77,7.94v13.61h-2.94v-13.27c0-4.33-2.14-5.71-5.5-5.71-3.82,0-6.64,2.69-6.64,5.63v13.36h-2.94v-21Z"></path><path class="cls-12" d="m1562.36,1210.24c0-7.1,4.28-11.09,10.04-11.09,3.7,0,6.22,1.6,7.31,3.74h.04v-14.95h2.94v32.77h-1.97l-.67-3.61h-.08c-1.18,2.31-3.95,4.16-7.77,4.16-6.3,0-9.83-3.99-9.83-11.01Zm17.64-.5c0-5.5-3.36-8.07-7.35-8.07-3.11,0-7.14,1.47-7.14,8.4s3.61,8.61,7.14,8.61c4.24,0,7.35-2.73,7.35-8.95Z"></path><path class="cls-12" d="m1607.31,1211.21h-15.96c.17,4.79,2.48,7.48,6.93,7.48,3.82,0,5.67-1.43,5.97-4.83h2.98c-.29,4.24-3.28,7.39-9.03,7.39-7.06,0-9.83-4.66-9.83-10.88s3.23-11.22,10-11.22,8.95,3.99,8.95,10.21v1.85Zm-3.11-2.98c0-4.45-1.72-6.55-5.92-6.55s-6.55,2.65-6.89,6.97h12.81v-.42Z"></path><path class="cls-12" d="m1613.18,1199.7h2.6l.29,3.91c1.01-2.14,3.07-4.45,6.76-4.45,1.26,0,2.18.21,3.02.55v3.15c-1.13-.5-2.1-.76-3.4-.76-3.74,0-6.34,2.81-6.34,5.75v12.85h-2.94v-21Z"></path><path class="cls-12" d="m1628.39,1214.27v-1.18h2.94v1.13c0,2.86,2.14,4.5,5.96,4.5s5.8-1.01,5.8-3.78c0-2.06-1.01-2.81-3.86-3.32l-4.62-.84c-3.02-.55-5.54-2.02-5.54-5.5,0-3.15,2.35-6.13,8.4-6.13s8.4,3.02,8.4,7.23v.88h-2.98v-.76c0-3.44-2.14-4.91-5.42-4.91-3.95,0-5.33,1.34-5.33,3.36s1.01,2.86,3.91,3.4l4.03.76c4.12.76,6.09,1.93,6.09,5.59,0,4.58-4.12,6.55-8.78,6.55-7.31,0-8.99-3.28-8.99-6.97Z"></path><path class="cls-12" d="m84.74,2351.02h2.94v18.65l17.05-18.65h3.61v.04l-12.31,13.53,13.36,19.16v.04h-3.65l-11.68-17.06-6.38,7.02v10.04h-2.94v-32.77Z"></path><path class="cls-12" d="m113.59,2362.78h2.6l.29,3.49c1.01-2.14,3.28-4.03,7.35-4.03,4.75,0,7.77,2.52,7.77,7.94v13.61h-2.94v-13.27c0-4.33-2.14-5.71-5.5-5.71-3.82,0-6.64,2.69-6.64,5.63v13.36h-2.94v-21Z"></path><path class="cls-12" d="m137.28,2373.28c0-6.22,3.32-11.05,10.38-11.05,6.59,0,10.25,4.83,10.25,11.05s-3.7,11.05-10.29,11.05c-7.27,0-10.33-4.83-10.33-11.05Zm17.56,0c0-5.33-2.9-8.49-7.22-8.49-4.75,0-7.27,3.15-7.27,8.49s2.56,8.49,7.27,8.49c4.33,0,7.22-3.15,7.22-8.49Z"></path><path class="cls-12" d="m174.75,2381.09v2.6c-.76.21-2.14.59-4.03.59-3.82,0-6.34-1.6-6.34-6.89v-12.18h-4.16v-2.44h4.16v-6.05l2.94-1.43v7.48h5.92v2.44h-5.92v11.8c0,2.81.76,4.58,3.4,4.58,1.6,0,3.23-.29,4.03-.5Z"></path><path class="cls-12" d="m177.69,2377.36v-1.18h2.94v1.13c0,2.86,2.14,4.5,5.96,4.5s5.8-1.01,5.8-3.78c0-2.06-1.01-2.81-3.86-3.32l-4.62-.84c-3.02-.55-5.54-2.02-5.54-5.5,0-3.15,2.35-6.13,8.4-6.13s8.4,3.02,8.4,7.22v.88h-2.98v-.76c0-3.44-2.14-4.91-5.42-4.91-3.95,0-5.33,1.34-5.33,3.36s1.01,2.86,3.91,3.4l4.03.76c4.12.76,6.09,1.93,6.09,5.59,0,4.58-4.12,6.55-8.78,6.55-7.31,0-8.99-3.28-8.99-6.97Z"></path><path class="cls-12" d="m210.99,2351.02h2.98v6.51h-2.98v-6.51Zm0,11.76h2.94v21h-2.94v-21Z"></path><path class="cls-12" d="m221.32,2362.78h2.6l.29,3.49c1.01-2.14,3.28-4.03,7.35-4.03,4.75,0,7.77,2.52,7.77,7.94v13.61h-2.94v-13.27c0-4.33-2.14-5.71-5.5-5.71-3.82,0-6.64,2.69-6.64,5.63v13.36h-2.94v-21Z"></path><path class="cls-12" d="m258.03,2361.48h-3.36v-5.08c0-3.95.88-5.29,3.4-5.97l.67,1.85c-1.76.67-2.06,1.09-2.06,3.78v.34h1.34v5.08Zm5.92,0h-3.36v-5.08c0-3.95.88-5.29,3.4-5.97l.67,1.85c-1.76.67-2.06,1.09-2.06,3.78v.34h1.34v5.08Z"></path><path class="cls-12" d="m266.98,2373.28c0-6.22,3.32-11.05,10.38-11.05,6.59,0,10.25,4.83,10.25,11.05s-3.7,11.05-10.29,11.05c-7.27,0-10.33-4.83-10.33-11.05Zm17.56,0c0-5.33-2.9-8.49-7.22-8.49-4.75,0-7.27,3.15-7.27,8.49s2.56,8.49,7.27,8.49c4.33,0,7.22-3.15,7.22-8.49Z"></path><path class="cls-12" d="m288.86,2360.22c1.76-.67,2.06-1.09,2.06-3.78v-.34h-1.34v-5.08h3.36v5.08c0,3.95-.88,5.29-3.4,5.97l-.67-1.85Zm5.92,0c1.76-.67,2.06-1.09,2.06-3.78v-.34h-1.34v-5.08h3.36v5.08c0,3.95-.88,5.29-3.4,5.97l-.67-1.85Z"></path><path class="cls-12" d="m301.8,2377.57h3.36v6.22c0,3.95-.88,5.29-3.4,5.96l-.67-1.85c1.76-.67,2.06-1.09,2.06-3.78v-.34h-1.34v-6.22Z"></path><path class="cls-12" d="m322.8,2361.48h-3.36v-5.08c0-3.95.88-5.29,3.4-5.97l.67,1.85c-1.76.67-2.06,1.09-2.06,3.78v.34h1.34v5.08Zm5.92,0h-3.36v-5.08c0-3.95.88-5.29,3.4-5.97l.67,1.85c-1.76.67-2.06,1.09-2.06,3.78v.34h1.34v5.08Z"></path><path class="cls-12" d="m337.92,2380.3h-.08l-.76,3.49h-1.97v-32.77h2.94v15.25h.04c1.26-2.31,4.07-4.03,7.69-4.03,6.3,0,9.66,3.99,9.66,11.01s-4.29,11.09-9.87,11.09c-3.78,0-6.55-1.64-7.65-4.03Zm14.37-6.89c0-7.18-3.4-8.61-6.93-8.61-4.24,0-7.56,2.73-7.56,8.44,0,6.01,3.45,8.57,7.44,8.57,3.02,0,7.06-1.47,7.06-8.4Z"></path><path class="cls-12" d="m356.69,2360.22c1.76-.67,2.06-1.09,2.06-3.78v-.34h-1.34v-5.08h3.36v5.08c0,3.95-.88,5.29-3.4,5.97l-.67-1.85Zm5.92,0c1.76-.67,2.06-1.09,2.06-3.78v-.34h-1.34v-5.08h3.36v5.08c0,3.95-.88,5.29-3.4,5.97l-.67-1.85Z"></path><path class="cls-12" d="m369.63,2377.57h3.36v6.22c0,3.95-.88,5.29-3.4,5.96l-.67-1.85c1.76-.67,2.06-1.09,2.06-3.78v-.34h-1.34v-6.22Z"></path><path class="cls-12" d="m390.63,2361.48h-3.36v-5.08c0-3.95.88-5.29,3.4-5.97l.67,1.85c-1.76.67-2.06,1.09-2.06,3.78v.34h1.34v5.08Zm5.92,0h-3.36v-5.08c0-3.95.88-5.29,3.4-5.97l.67,1.85c-1.76.67-2.06,1.09-2.06,3.78v.34h1.34v5.08Z"></path><path class="cls-12" d="m402.93,2362.78h2.6l.29,3.91c1.01-2.14,3.07-4.45,6.76-4.45,1.26,0,2.18.21,3.02.55v3.15c-1.13-.5-2.1-.76-3.4-.76-3.74,0-6.34,2.81-6.34,5.75v12.85h-2.94v-21Z"></path><path class="cls-12" d="m418.35,2360.22c1.76-.67,2.06-1.09,2.06-3.78v-.34h-1.34v-5.08h3.36v5.08c0,3.95-.88,5.29-3.4,5.97l-.67-1.85Zm5.92,0c1.76-.67,2.06-1.09,2.06-3.78v-.34h-1.34v-5.08h3.36v5.08c0,3.95-.88,5.29-3.4,5.97l-.67-1.85Z"></path><path class="cls-12" d="m431.28,2377.57h3.36v6.22c0,3.95-.88,5.29-3.4,5.96l-.67-1.85c1.76-.67,2.06-1.09,2.06-3.78v-.34h-1.34v-6.22Z"></path><path class="cls-12" d="m452.28,2361.48h-3.36v-5.08c0-3.95.88-5.29,3.4-5.97l.67,1.85c-1.76.67-2.06,1.09-2.06,3.78v.34h1.34v5.08Zm5.92,0h-3.36v-5.08c0-3.95.88-5.29,3.4-5.97l.67,1.85c-1.76.67-2.06,1.09-2.06,3.78v.34h1.34v5.08Z"></path><path class="cls-12" d="m461.44,2362.82v-.04h3.36l7.35,17.98h.08l7.1-17.98h3.07v.04l-8.74,20.96h-3.02l-9.2-20.96Z"></path><path class="cls-12" d="m484.92,2360.22c1.76-.67,2.06-1.09,2.06-3.78v-.34h-1.34v-5.08h3.36v5.08c0,3.95-.88,5.29-3.4,5.97l-.67-1.85Zm5.92,0c1.76-.67,2.06-1.09,2.06-3.78v-.34h-1.34v-5.08h3.36v5.08c0,3.95-.88,5.29-3.4,5.97l-.67-1.85Z"></path><path class="cls-12" d="m509.19,2377.99c0-3.95,2.23-6.09,7.86-6.09h6.34v-1.72c0-2.98-1.26-5.42-5.46-5.42-3.95,0-5.33,1.51-5.33,4.12v.88h-2.98v-.84c0-5,4.2-6.68,8.32-6.68,5.8,0,8.4,2.86,8.4,8.44v13.11h-2.06l-.55-2.98h-.08c-1.26,1.89-3.7,3.53-7.35,3.53-4.92,0-7.1-2.31-7.1-6.34Zm14.2-1.85v-1.76h-7.01c-2.65,0-4.03.92-4.03,3.61,0,2.35,1.26,3.86,4.5,3.86,4.16,0,6.55-2.14,6.55-5.71Z"></path><path class="cls-12" d="m533.68,2362.78h2.6l.29,3.49c1.01-2.14,3.28-4.03,7.35-4.03,4.75,0,7.77,2.52,7.77,7.94v13.61h-2.94v-13.27c0-4.33-2.14-5.71-5.5-5.71-3.82,0-6.64,2.69-6.64,5.63v13.36h-2.94v-21Z"></path><path class="cls-12" d="m557.37,2373.32c0-7.1,4.28-11.09,10.04-11.09,3.7,0,6.22,1.6,7.31,3.74h.04v-14.95h2.94v32.77h-1.97l-.67-3.61h-.08c-1.18,2.31-3.95,4.16-7.77,4.16-6.3,0-9.83-3.99-9.83-11.01Zm17.64-.5c0-5.5-3.36-8.07-7.35-8.07-3.11,0-7.14,1.47-7.14,8.4s3.61,8.61,7.14,8.61c4.24,0,7.35-2.73,7.35-8.95Z"></path><path class="cls-12" d="m596.38,2361.48h-3.36v-5.08c0-3.95.88-5.29,3.4-5.97l.67,1.85c-1.76.67-2.06,1.09-2.06,3.78v.34h1.34v5.08Zm5.92,0h-3.36v-5.08c0-3.95.88-5.29,3.4-5.97l.67,1.85c-1.76.67-2.06,1.09-2.06,3.78v.34h1.34v5.08Z"></path><path class="cls-12" d="m605.96,2362.82v-.04h2.98l5.76,17.47h.08l6.3-17.47h2.69l6.17,17.47h.08l5.75-17.47h2.86v.04l-7.18,20.96h-3.02l-5.96-17.06h-.08l-6.22,17.06h-3.02l-7.18-20.96Z"></path><path class="cls-12" d="m641.58,2360.22c1.76-.67,2.06-1.09,2.06-3.78v-.34h-1.34v-5.08h3.36v5.08c0,3.95-.88,5.29-3.4,5.97l-.67-1.85Zm5.92,0c1.76-.67,2.06-1.09,2.06-3.78v-.34h-1.34v-5.08h3.36v5.08c0,3.95-.88,5.29-3.4,5.97l-.67-1.85Z"></path><path class="cls-12" d="m915.09,3565.1v-2.02h3.02v2.18c0,3.74,2.6,6.05,7.94,6.05s8.44-1.97,8.44-6.22c0-3.32-1.39-5.17-4.92-6.09l-6.64-1.72c-4.33-1.13-7.18-2.98-7.18-8.15s3.78-8.91,10.92-8.91,10.59,3.45,10.59,9.07v2.94h-3.02v-2.81c0-4.62-3.07-6.51-7.56-6.51-5.12,0-7.81,2.14-7.81,6.01,0,3.61,1.76,4.7,5.54,5.71l5.75,1.55c5.12,1.39,7.43,3.74,7.43,8.65,0,6.09-4.33,9.24-11.47,9.24-9.12,0-11.05-4.71-11.05-8.99Z"></path><path class="cls-12" d="m944.79,3540.78h2.94v15.16c1.05-2.1,3.28-3.95,7.31-3.95,4.75,0,7.77,2.52,7.77,7.94v13.61h-2.94v-13.27c0-4.33-2.14-5.71-5.5-5.71-3.82,0-6.64,2.69-6.64,5.63v13.36h-2.94v-32.77Z"></path><path class="cls-12" d="m968.48,3563.04c0-6.22,3.32-11.05,10.38-11.05,6.59,0,10.25,4.83,10.25,11.05s-3.7,11.05-10.29,11.05c-7.27,0-10.33-4.83-10.33-11.05Zm17.56,0c0-5.33-2.9-8.49-7.22-8.49-4.75,0-7.27,3.15-7.27,8.49s2.56,8.49,7.27,8.49c4.33,0,7.22-3.15,7.22-8.49Z"></path><path class="cls-12" d="m994.98,3552.54h2.6l.29,3.91c1.01-2.14,3.07-4.45,6.76-4.45,1.26,0,2.18.21,3.02.55v3.15c-1.13-.5-2.1-.76-3.4-.76-3.74,0-6.34,2.81-6.34,5.75v12.85h-2.94v-21Z"></path><path class="cls-12" d="m1023.25,3570.85v2.6c-.76.21-2.14.59-4.03.59-3.82,0-6.34-1.6-6.34-6.89v-12.18h-4.16v-2.44h4.16v-6.05l2.94-1.43v7.48h5.92v2.44h-5.92v11.8c0,2.81.76,4.58,3.4,4.58,1.6,0,3.23-.29,4.03-.5Z"></path><path class="cls-12" d="m1036.47,3567.75c0-3.95,2.23-6.09,7.86-6.09h6.34v-1.72c0-2.98-1.26-5.42-5.46-5.42-3.95,0-5.33,1.51-5.33,4.12v.88h-2.98v-.84c0-5,4.2-6.68,8.32-6.68,5.8,0,8.4,2.86,8.4,8.44v13.11h-2.06l-.55-2.98h-.08c-1.26,1.89-3.7,3.53-7.35,3.53-4.92,0-7.1-2.31-7.1-6.34Zm14.2-1.85v-1.76h-7.01c-2.65,0-4.03.92-4.03,3.61,0,2.35,1.26,3.86,4.5,3.86,4.16,0,6.55-2.14,6.55-5.71Z"></path><path class="cls-12" d="m1059.07,3567.11v-1.18h2.94v1.13c0,2.86,2.14,4.5,5.96,4.5s5.8-1.01,5.8-3.78c0-2.06-1.01-2.81-3.86-3.32l-4.62-.84c-3.02-.55-5.54-2.02-5.54-5.5,0-3.15,2.35-6.13,8.4-6.13s8.4,3.02,8.4,7.22v.88h-2.98v-.76c0-3.44-2.14-4.91-5.42-4.91-3.95,0-5.33,1.34-5.33,3.36s1.01,2.86,3.91,3.4l4.03.76c4.12.76,6.09,1.93,6.09,5.59,0,4.58-4.12,6.55-8.78,6.55-7.31,0-8.99-3.28-8.99-6.97Z"></path><path class="cls-12" d="m1081.04,3563.21c0-6.38,3.23-11.22,10-11.22s8.95,3.91,8.95,8.95v.42h-3.11v-.63c0-3.82-1.64-6.09-5.84-6.09-4.75,0-7.01,3.11-7.01,8.4,0,5.63,2.39,8.49,6.93,8.49,3.82,0,5.84-1.85,5.92-5.67h3.02c-.08,4.66-3.15,8.23-9.03,8.23-7.22,0-9.83-4.75-9.83-10.88Z"></path><path class="cls-12" d="m1123.12,3564.05h-15.96c.17,4.79,2.48,7.48,6.93,7.48,3.82,0,5.67-1.43,5.97-4.83h2.98c-.29,4.24-3.28,7.39-9.03,7.39-7.06,0-9.83-4.66-9.83-10.88s3.23-11.22,10-11.22,8.95,3.99,8.95,10.21v1.85Zm-3.11-2.98c0-4.45-1.72-6.55-5.92-6.55s-6.55,2.65-6.89,6.97h12.81v-.42Z"></path><path class="cls-12" d="m1129,3552.54h2.6l.29,3.49c1.01-2.14,3.28-4.03,7.35-4.03,4.75,0,7.77,2.52,7.77,7.94v13.61h-2.94v-13.27c0-4.33-2.14-5.71-5.5-5.71-3.82,0-6.64,2.69-6.64,5.63v13.36h-2.94v-21Z"></path><path class="cls-12" d="m1152.69,3563.08c0-7.1,4.28-11.09,10.04-11.09,3.7,0,6.22,1.6,7.31,3.74h.04v-14.95h2.94v32.77h-1.97l-.67-3.61h-.08c-1.18,2.31-3.95,4.16-7.77,4.16-6.3,0-9.83-3.99-9.83-11.01Zm17.64-.5c0-5.5-3.36-8.07-7.35-8.07-3.11,0-7.14,1.47-7.14,8.4s3.61,8.61,7.14,8.61c4.24,0,7.35-2.73,7.35-8.95Z"></path><path class="cls-12" d="m1197.63,3564.05h-15.96c.17,4.79,2.48,7.48,6.93,7.48,3.82,0,5.67-1.43,5.97-4.83h2.98c-.29,4.24-3.28,7.39-9.03,7.39-7.06,0-9.83-4.66-9.83-10.88s3.23-11.22,10-11.22,8.95,3.99,8.95,10.21v1.85Zm-3.11-2.98c0-4.45-1.72-6.55-5.92-6.55s-6.55,2.65-6.89,6.97h12.81v-.42Z"></path><path class="cls-12" d="m1203.51,3552.54h2.6l.29,3.91c1.01-2.14,3.07-4.45,6.76-4.45,1.26,0,2.18.21,3.02.55v3.15c-1.13-.5-2.1-.76-3.4-.76-3.74,0-6.34,2.81-6.34,5.75v12.85h-2.94v-21Z"></path><path class="cls-12" d="m1230.47,3540.78h2.98v6.51h-2.98v-6.51Zm0,11.76h2.94v21h-2.94v-21Z"></path><path class="cls-12" d="m1240.8,3552.54h2.6l.29,3.49c1.01-2.14,3.28-4.03,7.35-4.03,4.75,0,7.77,2.52,7.77,7.94v13.61h-2.94v-13.27c0-4.33-2.14-5.71-5.5-5.71-3.82,0-6.64,2.69-6.64,5.63v13.36h-2.94v-21Z"></path><path class="cls-12" d="m1277.72,3540.78l-.42,11.05h-2.31l-.42-11.05h3.15Zm5.59,0l-.42,11.05h-2.31l-.42-11.05h3.15Z"></path><path class="cls-12" d="m1286.25,3563.08c0-7.1,4.28-11.09,10.04-11.09,3.7,0,6.22,1.6,7.31,3.74h.04v-14.95h2.94v32.77h-1.97l-.67-3.61h-.08c-1.18,2.31-3.95,4.16-7.77,4.16-6.3,0-9.83-3.99-9.83-11.01Zm17.64-.5c0-5.5-3.36-8.07-7.35-8.07-3.11,0-7.14,1.47-7.14,8.4s3.61,8.61,7.14,8.61c4.24,0,7.35-2.73,7.35-8.95Z"></path><path class="cls-12" d="m1315.82,3540.78l-.42,11.05h-2.31l-.42-11.05h3.15Zm5.59,0l-.42,11.05h-2.31l-.42-11.05h3.15Z"></path><path class="cls-12" d="m775.93,2368.36c0-11.72,6.76-16.93,15.46-16.93,7.94,0,14.7,5.21,14.7,16.59,0,12.48-6.76,17.26-15.08,17.26s-15.08-4.79-15.08-16.93Zm27.05,0c0-10.12-5.33-14.24-12.01-14.24s-11.93,4.12-11.93,14.24,5.33,14.2,12.01,14.2,11.93-3.74,11.93-14.2Z"></path><path class="cls-12" d="m812.39,2363.74h2.6l.29,3.49c1.01-2.14,3.28-4.03,7.35-4.03,4.75,0,7.77,2.52,7.77,7.94v13.61h-2.94v-13.27c0-4.33-2.14-5.71-5.5-5.71-3.82,0-6.64,2.69-6.64,5.63v13.36h-2.94v-21Z"></path><path class="cls-12" d="m855.02,2375.25h-15.96c.17,4.79,2.48,7.48,6.93,7.48,3.82,0,5.67-1.43,5.97-4.83h2.98c-.29,4.24-3.28,7.39-9.03,7.39-7.06,0-9.83-4.66-9.83-10.88s3.23-11.22,10-11.22,8.95,3.99,8.95,10.21v1.85Zm-3.11-2.98c0-4.45-1.72-6.55-5.92-6.55s-6.55,2.65-6.89,6.97h12.81v-.42Z"></path><path class="cls-12" d="m868.67,2378.32v-1.18h2.94v1.13c0,2.86,2.14,4.49,5.96,4.49s5.8-1.01,5.8-3.78c0-2.06-1.01-2.81-3.86-3.32l-4.62-.84c-3.02-.55-5.54-2.02-5.54-5.5,0-3.15,2.35-6.13,8.4-6.13s8.4,3.02,8.4,7.23v.88h-2.98v-.76c0-3.45-2.14-4.92-5.42-4.92-3.95,0-5.33,1.34-5.33,3.36s1.01,2.86,3.91,3.4l4.03.76c4.12.76,6.09,1.93,6.09,5.59,0,4.58-4.12,6.55-8.78,6.55-7.31,0-8.99-3.28-8.99-6.97Z"></path><path class="cls-12" d="m892.31,2351.98h2.98v6.51h-2.98v-6.51Zm0,11.76h2.94v21h-2.94v-21Z"></path><path class="cls-12" d="m900.96,2374.29c0-7.1,4.28-11.09,10.04-11.09,3.7,0,6.22,1.6,7.31,3.74h.04v-14.95h2.94v32.77h-1.97l-.67-3.61h-.08c-1.18,2.31-3.95,4.16-7.77,4.16-6.3,0-9.83-3.99-9.83-11.01Zm17.64-.5c0-5.5-3.36-8.07-7.35-8.07-3.11,0-7.14,1.47-7.14,8.4s3.61,8.61,7.14,8.61c4.24,0,7.35-2.73,7.35-8.95Z"></path><path class="cls-12" d="m945.91,2375.25h-15.96c.17,4.79,2.48,7.48,6.93,7.48,3.82,0,5.67-1.43,5.97-4.83h2.98c-.29,4.24-3.28,7.39-9.03,7.39-7.06,0-9.83-4.66-9.83-10.88s3.23-11.22,10-11.22,8.95,3.99,8.95,10.21v1.85Zm-3.11-2.98c0-4.45-1.72-6.55-5.92-6.55s-6.55,2.65-6.89,6.97h12.81v-.42Z"></path><path class="cls-12" d="m950.1,2374.29c0-7.1,4.28-11.09,10.04-11.09,3.7,0,6.22,1.6,7.31,3.74h.04v-14.95h2.94v32.77h-1.97l-.67-3.61h-.08c-1.18,2.31-3.95,4.16-7.77,4.16-6.3,0-9.83-3.99-9.83-11.01Zm17.64-.5c0-5.5-3.36-8.07-7.35-8.07-3.11,0-7.14,1.47-7.14,8.4s3.61,8.61,7.14,8.61c4.24,0,7.35-2.73,7.35-8.95Z"></path><path class="cls-12" d="m985.55,2378.32v-1.18h2.94v1.13c0,2.86,2.14,4.49,5.96,4.49s5.8-1.01,5.8-3.78c0-2.06-1.01-2.81-3.86-3.32l-4.62-.84c-3.02-.55-5.54-2.02-5.54-5.5,0-3.15,2.35-6.13,8.4-6.13s8.4,3.02,8.4,7.23v.88h-2.98v-.76c0-3.45-2.14-4.92-5.42-4.92-3.95,0-5.33,1.34-5.33,3.36s1.01,2.86,3.91,3.4l4.03.76c4.12.76,6.09,1.93,6.09,5.59,0,4.58-4.12,6.55-8.78,6.55-7.31,0-8.99-3.28-8.99-6.97Z"></path><path class="cls-12" d="m1020.16,2382.06v2.6c-.76.21-2.14.59-4.03.59-3.82,0-6.34-1.6-6.34-6.89v-12.18h-4.16v-2.44h4.16v-6.05l2.94-1.43v7.48h5.92v2.44h-5.92v11.8c0,2.82.76,4.58,3.4,4.58,1.6,0,3.23-.29,4.03-.5Z"></path><path class="cls-12" d="m1024.99,2363.74h2.6l.29,3.91c1.01-2.14,3.07-4.45,6.76-4.45,1.26,0,2.18.21,3.02.55v3.15c-1.13-.5-2.1-.76-3.4-.76-3.74,0-6.34,2.81-6.34,5.75v12.85h-2.94v-21Z"></path><path class="cls-12" d="m1039.98,2374.25c0-6.22,3.32-11.05,10.38-11.05,6.59,0,10.25,4.83,10.25,11.05s-3.7,11.05-10.29,11.05c-7.27,0-10.33-4.83-10.33-11.05Zm17.56,0c0-5.33-2.9-8.49-7.22-8.49-4.75,0-7.27,3.15-7.27,8.49s2.56,8.49,7.27,8.49c4.33,0,7.22-3.15,7.22-8.49Z"></path><path class="cls-12" d="m1065.86,2351.98h2.94v23.23l12.14-11.47h3.65v.04l-8.4,7.86,8.78,13.06v.04h-3.36l-7.39-11.22-5.42,5.04v6.17h-2.94v-32.77Z"></path><path class="cls-12" d="m1106.22,2375.25h-15.96c.17,4.79,2.48,7.48,6.93,7.48,3.82,0,5.67-1.43,5.97-4.83h2.98c-.29,4.24-3.28,7.39-9.03,7.39-7.06,0-9.83-4.66-9.83-10.88s3.23-11.22,10-11.22,8.95,3.99,8.95,10.21v1.85Zm-3.11-2.98c0-4.45-1.72-6.55-5.92-6.55s-6.55,2.65-6.89,6.97h12.81v-.42Z"></path><path class="cls-12" d="m1121.76,2351.98h2.98v6.51h-2.98v-6.51Zm0,11.76h2.94v21h-2.94v-21Z"></path><path class="cls-12" d="m1132.09,2363.74h2.6l.29,3.49c1.01-2.14,3.28-4.03,7.35-4.03,4.75,0,7.77,2.52,7.77,7.94v13.61h-2.94v-13.27c0-4.33-2.14-5.71-5.5-5.71-3.82,0-6.64,2.69-6.64,5.63v13.36h-2.94v-21Z"></path><path class="cls-12" d="m1169.01,2351.98l-.42,11.05h-2.31l-.42-11.05h3.15Zm5.59,0l-.42,11.05h-2.31l-.42-11.05h3.15Z"></path><path class="cls-12" d="m1191.02,2382.06v2.6c-.76.21-2.14.59-4.03.59-3.82,0-6.34-1.6-6.34-6.89v-12.18h-4.16v-2.44h4.16v-6.05l2.94-1.43v7.48h5.92v2.44h-5.92v11.8c0,2.82.76,4.58,3.4,4.58,1.6,0,3.23-.29,4.03-.5Z"></path><path class="cls-12" d="m1197.32,2351.98l-.42,11.05h-2.31l-.42-11.05h3.15Zm5.59,0l-.42,11.05h-2.31l-.42-11.05h3.15Z"></path><path class="cls-12" d="m1378.19,2351.02h3.23l11.51,20.92h.08l11.51-20.92h3.23v32.77h-2.94v-27.85h-.04l-10.75,19.91h-2.06l-10.8-19.91h-.04v27.85h-2.94v-32.77Z"></path><path class="cls-12" d="m1416.37,2351.02h2.98v6.51h-2.98v-6.51Zm0,11.76h2.94v21h-2.94v-21Z"></path><path class="cls-12" d="m1426.7,2362.78h2.6l.29,3.91c1.01-2.14,3.07-4.45,6.76-4.45,1.26,0,2.18.21,3.02.55v3.15c-1.13-.5-2.1-.76-3.4-.76-3.74,0-6.34,2.81-6.34,5.75v12.85h-2.94v-21Z"></path><path class="cls-12" d="m1444,2362.78h2.6l.29,3.91c1.01-2.14,3.07-4.45,6.76-4.45,1.26,0,2.18.21,3.02.55v3.15c-1.13-.5-2.1-.76-3.4-.76-3.74,0-6.34,2.81-6.34,5.75v12.85h-2.94v-21Z"></path><path class="cls-12" d="m1459,2373.28c0-6.22,3.32-11.05,10.38-11.05,6.59,0,10.25,4.83,10.25,11.05s-3.7,11.05-10.29,11.05c-7.27,0-10.33-4.83-10.33-11.05Zm17.56,0c0-5.33-2.9-8.49-7.22-8.49-4.75,0-7.27,3.15-7.27,8.49s2.56,8.49,7.27,8.49c4.33,0,7.22-3.15,7.22-8.49Z"></path><path class="cls-12" d="m1485.5,2362.78h2.6l.29,3.91c1.01-2.14,3.07-4.45,6.76-4.45,1.26,0,2.18.21,3.02.55v3.15c-1.13-.5-2.1-.76-3.4-.76-3.74,0-6.34,2.81-6.34,5.75v12.85h-2.94v-21Z"></path><path class="cls-12" d="m1519.44,2374.29h-15.96c.17,4.79,2.48,7.48,6.93,7.48,3.82,0,5.67-1.43,5.97-4.83h2.98c-.29,4.24-3.28,7.39-9.03,7.39-7.06,0-9.83-4.66-9.83-10.88s3.23-11.22,10-11.22,8.95,3.99,8.95,10.21v1.85Zm-3.11-2.98c0-4.45-1.72-6.55-5.92-6.55s-6.55,2.65-6.89,6.97h12.81v-.42Z"></path><path class="cls-12" d="m1523.64,2373.32c0-7.1,4.28-11.09,10.04-11.09,3.7,0,6.22,1.6,7.31,3.74h.04v-14.95h2.94v32.77h-1.97l-.67-3.61h-.08c-1.18,2.31-3.95,4.16-7.77,4.16-6.3,0-9.83-3.99-9.83-11.01Zm17.64-.5c0-5.5-3.36-8.07-7.35-8.07-3.11,0-7.14,1.47-7.14,8.4s3.61,8.61,7.14,8.61c4.24,0,7.35-2.73,7.35-8.95Z"></path><path class="cls-12" d="m1560.97,2351.02h2.94v32.77h-2.94v-32.77Z"></path><path class="cls-12" d="m1569.58,2373.28c0-6.22,3.32-11.05,10.38-11.05,6.59,0,10.25,4.83,10.25,11.05s-3.7,11.05-10.29,11.05c-7.27,0-10.33-4.83-10.33-11.05Zm17.56,0c0-5.33-2.9-8.49-7.22-8.49-4.75,0-7.27,3.15-7.27,8.49s2.56,8.49,7.27,8.49c4.33,0,7.22-3.15,7.22-8.49Z"></path><path class="cls-12" d="m1594.41,2373.28c0-6.22,3.32-11.05,10.38-11.05,6.59,0,10.25,4.83,10.25,11.05s-3.7,11.05-10.29,11.05c-7.27,0-10.33-4.83-10.33-11.05Zm17.56,0c0-5.33-2.9-8.49-7.22-8.49-4.75,0-7.27,3.15-7.27,8.49s2.56,8.49,7.27,8.49c4.33,0,7.22-3.15,7.22-8.49Z"></path><path class="cls-12" d="m1620.91,2362.78h2.39l.34,3.87h.08c1.13-2.48,4.03-4.41,7.86-4.41,6.3,0,9.66,3.99,9.66,11.01s-4.29,11.09-9.87,11.09c-3.78,0-6.38-1.6-7.43-3.7h-.08v11.55h-2.94v-29.41Zm17.18,10.63c0-7.18-3.4-8.61-6.93-8.61-4.24,0-7.56,2.73-7.56,8.44,0,6.01,3.45,8.57,7.44,8.57,3.02,0,7.06-1.47,7.06-8.4Z"></path><path class="cls-12" d="m1656.78,2351.02h2.98v6.51h-2.98v-6.51Zm0,11.76h2.94v21h-2.94v-21Z"></path><path class="cls-12" d="m1667.11,2362.78h2.6l.29,3.49c1.01-2.14,3.28-4.03,7.35-4.03,4.75,0,7.77,2.52,7.77,7.94v13.61h-2.94v-13.27c0-4.33-2.14-5.71-5.5-5.71-3.82,0-6.64,2.69-6.64,5.63v13.36h-2.94v-21Z"></path><path class="cls-12" d="m1703.82,2361.48h-3.36v-5.08c0-3.95.88-5.29,3.4-5.96l.67,1.85c-1.76.67-2.06,1.09-2.06,3.78v.34h1.34v5.08Zm5.92,0h-3.36v-5.08c0-3.95.88-5.29,3.4-5.96l.67,1.85c-1.76.67-2.06,1.09-2.06,3.78v.34h1.34v5.08Z"></path><path class="cls-12" d="m1719.86,2357.74v5.04h5.92v2.44h-5.92v18.57h-2.94v-18.57h-4.16v-2.44h4.16v-5.42c0-5.29,3.15-6.89,6.38-6.89,1.85,0,2.98.29,3.74.55v2.6c-.71-.21-1.89-.46-3.49-.46-2.65,0-3.7,1.76-3.7,4.58Z"></path><path class="cls-12" d="m1730.4,2360.22c1.76-.67,2.06-1.09,2.06-3.78v-.34h-1.34v-5.08h3.36v5.08c0,3.95-.88,5.29-3.4,5.96l-.67-1.85Zm5.92,0c1.76-.67,2.06-1.09,2.06-3.78v-.34h-1.34v-5.08h3.36v5.08c0,3.95-.88,5.29-3.4,5.96l-.67-1.85Z"></path><path class="cls-13" d="m346.8,2984.28c0,5.17-3.32,9.6-8.12,10.7-7.38,1.85-11.07,7.75-11.07,14.39,0,9.6,9.96,17.34,32.48,17.34,84.51,0,85.99-125.48,85.99-239.88,0-14.02-1.48-98.9-1.48-126.58,0-47.24,2.95-106.29,35.06-106.29,34.32,0,38.38,68.27,44.65,147.25,6.27,83.41,22.14,186.37,32.48,259.81,6.27,45.39,10.33,67.17,21.4,67.17,8.12,0,14.02-14.39,16.61-62.74,1.48-23.62,1.85-59.79,1.85-83.77,0-91.52-3.32-186-3.32-214.79,0-97.43,39.49-112.93,73.44-112.93,56.46,0,81.56,43.55,81.56,78.98,0,30.63-18.82,58.68-54.62,58.68-16.24,0-30.26-5.9-39.86-18.82-1.48-1.85-2.58-4.06-2.58-6.64,0-5.9,5.17-11.07,11.07-11.07,3.69,0,7.01,1.85,8.86,4.43,5.17,7.01,12.92,9.96,22.51,9.96,21.77,0,32.48-16.24,32.48-36.54,0-25.83-17.71-56.83-59.42-56.83-26.2,0-51.3,11.44-51.3,90.79,0,28.05,3.32,122.52,3.32,214.79,0,23.99-.37,60.89-1.85,85.25-3.32,61.26-13.65,83.4-38.75,83.4-29.89,0-35.8-31.74-43.55-86.36-10.33-73.44-26.2-177.14-32.48-261.29-7.38-97.06-16.24-126.58-22.51-126.58-7.75,0-12.92,46.5-12.92,84.14,0,27.68,1.48,112.56,1.48,126.58,0,117.36-1.48,262.02-108.13,262.02-32.85,0-54.62-15.13-54.62-39.49,0-15.5,9.6-31,27.68-35.8,6.64-1.85,13.65,3.32,13.65,10.7Z"></path><line class="cls-8" x1="553.01" y1="2323.35" x2="553.01" y2="1889.05"></line><line class="cls-8" x1="1013.41" y1="2774.45" x2="1013.41" y2="2404.04"></line><path class="cls-13" d="m367.53,3841.9c6.32,0,11.53,5.58,11.16,11.9-3.72,51.31-33.47,91.47-68.42,91.47-25.66,0-58.38-22.68-58.38-72.51,0-84.78,93.7-137.21,182.95-137.21s151.71,51.69,151.71,133.12c0,59.12-34.21,113.78-85.9,113.78-23.05,0-41.27-11.53-45.36-38.3-.74-6.32,4.09-12.64,11.16-12.64,5.58,0,10.04,4.09,10.78,9.67,2.23,14.13,10.41,18.96,23.43,18.96,36.44,0,63.58-42.02,63.58-91.47,0-68.05-52.43-110.81-129.4-110.81s-160.64,45.74-160.64,114.9c0,34.95,20.82,50.2,36.07,50.2,20.82,0,43.13-29.38,46.11-70.65.37-5.95,5.21-10.41,11.16-10.41Z"></path><path class="cls-13" d="m306.55,4170.23c0,5.21-3.35,9.67-8.18,10.78-10.04,2.97-13.01,8.55-13.01,13.76s2.23,18.96,29.75,18.96c58.75,0,87.75-66.19,88.13-129.77.74-159.15,1.12-161.01,1.49-219.76.37-39.04,11.53-84.41,37.18-94.45,1.49-.74,2.97-.74,4.09-.74,6.32,0,11.53,4.83,11.53,11.16,0,4.83-2.97,8.92-7.06,10.41-13.39,5.21-23.05,38.67-23.43,73.62-.37,60.98-.74,62.84-1.49,219.76-.37,72.14-35.32,152.08-110.44,152.08-47.97,0-52.06-33.09-52.06-41.27,0-12.64,7.06-29.38,29.75-35.33,7.06-1.86,13.76,3.72,13.76,10.78Z"></path><path class="cls-12" d="m1307.54,4050.87c-53.17,0-90.73,41.27-90.73,92.22s37.56,92.96,90.36,92.96,88.5-44.99,88.5-93.7-34.95-91.47-88.13-91.47Zm-.37,162.87c-40.16,0-68.05-31.23-68.05-70.65s27.89-69.91,68.42-69.91,65.82,30.49,65.82,69.16-25.66,71.39-66.19,71.39Z"></path><path class="cls-12" d="m404.73,1204.65c0-12.01,6.76-17.26,14.74-17.26,6.97,0,12.39,3.74,12.39,12.01v.8h-2.86v-.92c0-5.92-3.78-9.24-9.45-9.24-6.72,0-11.76,4.58-11.76,14.32s5.04,14.24,11.72,14.24c5.38,0,9.54-2.86,9.54-9.2v-.59h2.77v.42c0,8.02-5.33,12.01-12.56,12.01-7.98,0-14.53-4.87-14.53-16.59Z"></path><path class="cls-12" d="m437.74,1213.31v-13.61h2.94v13.27c0,4.33,2.14,5.71,5.42,5.71,3.74,0,6.55-2.69,6.55-5.63v-13.36h2.94v21h-2.6l-.25-3.36h-.08c-.97,2.02-3.23,3.91-7.23,3.91-4.66,0-7.69-2.52-7.69-7.94Z"></path><path class="cls-12" d="m462.94,1199.7h2.6l.29,3.91c1.01-2.14,3.07-4.45,6.76-4.45,1.26,0,2.18.21,3.02.55v3.15c-1.13-.5-2.1-.76-3.4-.76-3.74,0-6.34,2.81-6.34,5.75v12.85h-2.94v-21Z"></path><path class="cls-12" d="m477.09,1199.74v-.04h3.36l7.35,17.98h.08l7.1-17.98h3.07v.04l-8.74,20.96h-3.02l-9.2-20.96Z"></path><path class="cls-12" d="m518.89,1211.21h-15.96c.17,4.79,2.48,7.48,6.93,7.48,3.82,0,5.67-1.43,5.97-4.83h2.98c-.29,4.24-3.28,7.39-9.03,7.39-7.06,0-9.83-4.66-9.83-10.88s3.23-11.22,10-11.22,8.95,3.99,8.95,10.21v1.85Zm-3.11-2.98c0-4.45-1.72-6.55-5.92-6.55s-6.55,2.65-6.89,6.97h12.81v-.42Z"></path><path class="cls-12" d="m523.08,1210.24c0-7.1,4.28-11.09,10.04-11.09,3.7,0,6.22,1.6,7.31,3.74h.04v-14.95h2.94v32.77h-1.97l-.67-3.61h-.08c-1.18,2.31-3.95,4.16-7.77,4.16-6.3,0-9.83-3.99-9.83-11.01Zm17.64-.5c0-5.5-3.36-8.07-7.35-8.07-3.11,0-7.14,1.47-7.14,8.4s3.61,8.61,7.14,8.61c4.24,0,7.35-2.73,7.35-8.95Z"></path><path class="cls-12" d="m577.69,1211.21h-15.96c.17,4.79,2.48,7.48,6.93,7.48,3.82,0,5.67-1.43,5.97-4.83h2.98c-.29,4.24-3.28,7.39-9.03,7.39-7.06,0-9.83-4.66-9.83-10.88s3.23-11.22,10-11.22,8.95,3.99,8.95,10.21v1.85Zm-3.11-2.98c0-4.45-1.72-6.55-5.92-6.55s-6.55,2.65-6.89,6.97h12.81v-.42Z"></path><path class="cls-12" d="m583.56,1199.7h2.6l.29,3.49c1.01-2.14,3.28-4.03,7.35-4.03,4.75,0,7.77,2.52,7.77,7.94v13.61h-2.94v-13.27c0-4.33-2.14-5.71-5.5-5.71-3.82,0-6.64,2.69-6.64,5.63v13.36h-2.94v-21Z"></path><path class="cls-12" d="m619.9,1218.01v2.6c-.76.21-2.14.59-4.03.59-3.82,0-6.34-1.6-6.34-6.89v-12.18h-4.16v-2.44h4.16v-6.05l2.94-1.43v7.48h5.92v2.44h-5.92v11.8c0,2.82.76,4.58,3.4,4.58,1.6,0,3.23-.29,4.03-.5Z"></path><path class="cls-12" d="m624.72,1199.7h2.6l.29,3.91c1.01-2.14,3.07-4.45,6.76-4.45,1.26,0,2.18.21,3.02.55v3.15c-1.13-.5-2.1-.76-3.4-.76-3.74,0-6.34,2.81-6.34,5.75v12.85h-2.94v-21Z"></path><path class="cls-12" d="m642.24,1199.7l6.89,17.98h.08l7.14-17.98h3.07v.04l-8.86,20.84-3.11,8.53h-2.98v-.04l3.19-8.36-8.78-20.96v-.04h3.36Z"></path><path class="cls-12" d="m671.39,1214.27v-1.18h2.94v1.13c0,2.86,2.14,4.49,5.96,4.49s5.8-1.01,5.8-3.78c0-2.06-1.01-2.81-3.86-3.32l-4.62-.84c-3.02-.55-5.54-2.02-5.54-5.5,0-3.15,2.35-6.13,8.4-6.13s8.4,3.02,8.4,7.23v.88h-2.98v-.76c0-3.45-2.14-4.92-5.42-4.92-3.95,0-5.33,1.34-5.33,3.36s1.01,2.86,3.91,3.4l4.03.76c4.12.76,6.09,1.93,6.09,5.59,0,4.58-4.12,6.55-8.78,6.55-7.31,0-8.99-3.28-8.99-6.97Z"></path><path class="cls-12" d="m706,1218.01v2.6c-.76.21-2.14.59-4.03.59-3.82,0-6.34-1.6-6.34-6.89v-12.18h-4.16v-2.44h4.16v-6.05l2.94-1.43v7.48h5.92v2.44h-5.92v11.8c0,2.82.76,4.58,3.4,4.58,1.6,0,3.23-.29,4.03-.5Z"></path><path class="cls-12" d="m710.82,1199.7h2.6l.29,3.91c1.01-2.14,3.07-4.45,6.76-4.45,1.26,0,2.18.21,3.02.55v3.15c-1.13-.5-2.1-.76-3.4-.76-3.74,0-6.34,2.81-6.34,5.75v12.85h-2.94v-21Z"></path><path class="cls-12" d="m725.82,1210.2c0-6.22,3.32-11.05,10.38-11.05,6.59,0,10.25,4.83,10.25,11.05s-3.7,11.05-10.29,11.05c-7.27,0-10.33-4.83-10.33-11.05Zm17.56,0c0-5.33-2.9-8.49-7.22-8.49-4.75,0-7.27,3.15-7.27,8.49s2.56,8.49,7.27,8.49c4.33,0,7.22-3.15,7.22-8.49Z"></path><path class="cls-12" d="m751.69,1187.94h2.94v23.23l12.14-11.47h3.65v.04l-8.4,7.86,8.78,13.06v.04h-3.36l-7.39-11.22-5.42,5.04v6.17h-2.94v-32.77Z"></path><path class="cls-12" d="m792.06,1211.21h-15.96c.17,4.79,2.48,7.48,6.93,7.48,3.82,0,5.67-1.43,5.97-4.83h2.98c-.29,4.24-3.28,7.39-9.03,7.39-7.06,0-9.83-4.66-9.83-10.88s3.23-11.22,10-11.22,8.95,3.99,8.95,10.21v1.85Zm-3.11-2.98c0-4.45-1.72-6.55-5.92-6.55s-6.55,2.65-6.89,6.97h12.81v-.42Z"></path><path class="cls-12" d="m796.04,1214.27v-1.18h2.94v1.13c0,2.86,2.14,4.49,5.96,4.49s5.8-1.01,5.8-3.78c0-2.06-1.01-2.81-3.86-3.32l-4.62-.84c-3.02-.55-5.54-2.02-5.54-5.5,0-3.15,2.35-6.13,8.4-6.13s8.4,3.02,8.4,7.23v.88h-2.98v-.76c0-3.45-2.14-4.92-5.42-4.92-3.95,0-5.33,1.34-5.33,3.36s1.01,2.86,3.91,3.4l4.03.76c4.12.76,6.09,1.93,6.09,5.59,0,4.58-4.12,6.55-8.78,6.55-7.31,0-8.99-3.28-8.99-6.97Z"></path><g class="cls-15"><path class="cls-14" d="m765.12,1876.06c-6.27,0-11.07-4.8-11.07-11.07v-91.15c0-12.18,2.58-59.05-14.76-59.05-12.18,0-17.35,14.02-25.46,37.27-17.71,50.93-46.13,70.86-71.96,70.86-39.49,0-68.64-46.5-44.29-94.11,1.85-3.69,5.54-6.27,9.6-6.27,6.27,0,11.07,5.17,11.07,11.07,0,1.85-.37,3.69-1.11,5.17-16.61,32.85,1.48,62,24.73,62,15.87,0,36.54-14.76,51.3-56.1,8.12-23.99,17.71-52.04,46.13-52.04,42.44,0,36.9,68.64,36.9,81.19v91.15c0,6.27-4.8,11.07-11.07,11.07Z"></path></g><g class="cls-18"><path class="cls-14" d="m1490.67,603.51c5.91,0,11.07,5.17,11.07,11.07,0,2.58-.74,4.8-2.21,6.64-25.09,34.32-60.15,54.25-90.79,84.14-53.14,51.3-91.15,126.58-92.26,192.64,0,4.06.37,104.81,34.69,104.81,38.38,0,35.8-122.89,35.8-157.95,0-15.87,1.11-224.38,1.11-318.49,0-6.27,4.8-11.07,11.07-11.07s11.07,4.8,11.07,11.07c0,94.48-1.11,302.99-1.11,318.49,0,35.8,7.01,180.1-57.94,180.1-59.79,0-56.83-122.15-56.83-126.95,1.11-72.7,42.07-153.89,98.9-208.88,32.85-31.37,65.69-50.19,88.57-81.19,1.85-2.58,5.17-4.43,8.86-4.43Z"></path></g><g class="cls-17"><path class="cls-14" d="m1259.64,1771.99c6.27,0,11.07,5.17,11.07,11.07,0,2.58-.74,4.8-2.21,7.01-15.13,19.56-34.69,28.79-53.88,28.79-31.37,0-60.52-25.83-60.52-63.85,0-34.69,16.98-53.88,35.06-53.88,16.61,0,31.37,16.24,31.37,48.71,0,86.73-43.55,126.58-91.89,126.58-56.83,0-72.7-60.52-74.55-120.68-3.69-101.12-7.38-191.54-.74-252.43,8.12-77.5,33.95-123.63,64.21-123.63,33.95,0,61.63,57.2,61.63,122.89,0,92.26-59.42,209.25-101.86,286.01-1.85,3.32-5.54,5.54-9.6,5.54-5.9,0-11.07-4.8-11.07-11.07,0-1.85.37-3.69,1.48-5.17,42.07-76.02,98.9-188.58,98.9-275.31,0-56.83-23.62-100.75-39.49-100.75-12.92,0-34.69,34.69-42.07,103.7-6.64,59.42-2.95,148.36.74,249.48,1.85,55.73,14.02,99.27,52.4,99.27s69.75-31,69.75-104.44c0-19.19-6.27-26.57-9.23-26.57-4.43,0-12.92,9.96-12.92,31.74,0,25.46,18.08,41.7,38.38,41.7,12.55,0,25.46-5.9,36.17-20.3,2.21-2.58,5.17-4.43,8.86-4.43Z"></path></g><path class="cls-12" d="m1259.64,1771.99c-3.69,0-6.64,1.85-8.86,4.43-10.45,14.05-23,19.99-35.27,20.27,3.23-13.74,5.01-29.34,5.01-46.84,0-32.48-14.76-48.71-31.37-48.71-18.08,0-35.06,19.19-35.06,53.88,0,26.44,14.12,46.98,33.27,57.04-2.99,6.85-6.5,12.81-10.44,17.91,5.8,4.55,11.51,9.22,17.44,13.59,5.48-7.14,10.27-15.47,14.21-25.03,2,.21,4.02.32,6.05.32,19.19,0,38.75-9.23,53.88-28.79,1.48-2.21,2.21-4.43,2.21-7.01,0-5.91-4.8-11.07-11.07-11.07Zm-83.4-16.98c0-21.77,8.49-31.74,12.92-31.74,2.95,0,9.23,7.38,9.23,26.57,0,15.46-1.48,29.03-4.14,40.83-10.62-6.91-18-19.4-18-35.66Z"></path><g class="cls-16"><path class="cls-14" d="m325.95,1385.59c0,5.91-4.43,10.7-9.96,11.07-54.99,5.17-91.89,58.31-91.89,108.13,0,33.95,15.87,85.25,83.77,85.25,87.1,0,151.31-83.77,151.31-146.88,0-28.79-12.92-41.7-38.01-41.7-90.42,0-151.68,144.3-151.68,272.73,0,101.86,37.64,180.1,102.96,180.1,50.56,0,68.27-29.89,92.63-77.5,1.85-3.32,5.54-5.9,9.96-5.9,5.9,0,11.07,4.8,11.07,11.07,0,1.85-.37,3.69-1.48,5.17-25.1,48.71-48.35,89.31-112.19,89.31-81.93,0-125.11-91.89-125.11-202.24,0-135.81,65.69-294.87,173.82-294.87,37.64,0,60.15,23.25,60.15,63.85,0,73.44-72.33,169.02-173.45,169.02-85.62,0-105.92-68.27-105.92-107.39,0-59.42,44.29-123.63,111.82-130.27,6.64-.37,12.18,4.8,12.18,11.07Zm138.39,398.57c0-50.56,37.27-91.52,90.05-91.52s87.46,41.33,87.46,90.79-33.58,93-87.83,93-89.68-42.07-89.68-92.26Zm155.37-.74c0-38.38-25.83-68.64-65.32-68.64s-67.9,30.63-67.9,69.38,27.68,70.12,67.54,70.12,65.69-32.85,65.69-70.86Zm145.4,92.63c-6.27,0-11.07-4.8-11.07-11.07v-91.15c0-12.18,2.58-59.05-14.76-59.05-12.18,0-17.35,14.02-25.46,37.27-17.71,50.93-46.13,70.86-71.96,70.86-39.49,0-68.64-46.5-44.29-94.11,1.85-3.69,5.54-6.27,9.6-6.27,6.27,0,11.07,5.17,11.07,11.07,0,1.85-.37,3.69-1.11,5.17-16.61,32.85,1.48,62,24.73,62,15.87,0,36.54-14.76,51.3-56.1,8.12-23.99,17.71-52.04,46.13-52.04,42.44,0,36.9,68.64,36.9,81.19v91.15c0,6.27-4.8,11.07-11.07,11.07Zm.37-109.61c-6.27,0-11.44-5.54-11.07-11.81,3.32-42.44,26.94-62,60.52-62,29.16,0,56.83,17.35,56.83,57.2v115.14c0,6.27-4.8,11.07-11.07,11.07s-11.07-4.8-11.07-11.07v-115.14c0-25.1-15.13-35.06-34.69-35.06-22.14,0-36.17,11.07-38.38,41.33-.37,5.91-5.17,10.33-11.07,10.33Zm95.21,0c-6.27,0-11.44-5.54-11.07-11.81,3.69-42.81,28.05-62,61.63-62,28.79,0,57.2,17.35,57.2,57.2v59.42c.74,11.44,1.48,45.02,22.14,45.02,24.36,0,46.13-38.75,64.95-76.39,1.85-3.69,5.54-6.27,9.96-6.27,6.27,0,11.07,5.17,11.07,11.07,0,1.85-.37,3.69-1.11,5.17-19.56,39.86-46.13,88.57-84.88,88.57-43.18,0-43.55-56.83-44.29-66.43v-60.15c0-24.73-15.5-35.06-35.06-35.06-22.51,0-37.27,11.44-39.49,41.33-.37,5.91-5.17,10.33-11.07,10.33Zm398.94,5.54c6.27,0,11.07,5.17,11.07,11.07,0,2.58-.74,4.8-2.21,7.01-15.13,19.56-34.69,28.79-53.88,28.79-31.37,0-60.52-25.83-60.52-63.85,0-34.69,16.98-53.88,35.06-53.88,16.61,0,31.37,16.24,31.37,48.71,0,86.73-43.55,126.58-91.89,126.58-56.83,0-72.7-60.52-74.55-120.68-3.69-101.12-7.38-191.54-.74-252.43,8.12-77.5,33.95-123.63,64.21-123.63,33.95,0,61.63,57.2,61.63,122.89,0,92.26-59.42,209.25-101.86,286.01-1.85,3.32-5.54,5.54-9.6,5.54-5.9,0-11.07-4.8-11.07-11.07,0-1.85.37-3.69,1.48-5.17,42.07-76.02,98.9-188.58,98.9-275.31,0-56.83-23.62-100.75-39.49-100.75-12.92,0-34.69,34.69-42.07,103.7-6.64,59.42-2.95,148.36.74,249.48,1.85,55.73,14.02,99.27,52.4,99.27s69.75-31,69.75-104.44c0-19.19-6.27-26.57-9.23-26.57-4.43,0-12.92,9.96-12.92,31.74,0,25.46,18.08,41.7,38.38,41.7,12.55,0,25.46-5.9,36.17-20.3,2.21-2.58,5.17-4.43,8.86-4.43Zm-9.6,12.18c0-50.56,37.27-91.52,90.05-91.52s87.46,41.33,87.46,90.79-33.58,93-87.83,93-89.68-42.07-89.68-92.26Zm155.37-.74c0-38.38-25.83-68.64-65.32-68.64s-67.91,30.63-67.91,69.38,27.68,70.12,67.54,70.12,65.69-32.85,65.69-70.86Zm115.14-21.4c6.27,0,11.07,5.17,11.07,11.07,0,1.48-.37,2.95-.74,4.06-16.24,40.6-41.7,99.27-86.73,99.27-39.12,0-38.75-54.99-38.75-66.8v-105.92c0-6.27,4.8-11.07,11.07-11.07s11.07,4.8,11.07,11.07v105.92c0,11.07,0,44.65,16.61,44.65,29.52,0,50.56-46.5,66.06-85.25,1.84-4.06,5.54-7.01,10.33-7.01Zm131.01,9.6c6.27,0,11.07,5.17,11.07,11.07,0,1.85-.37,3.69-1.11,5.17-19.56,39.86-46.13,88.57-84.88,88.57-36.17,0-67.17-31.37-67.17-77.87v-246.52c0-6.27,4.8-11.07,11.07-11.07s11.07,4.8,11.07,11.07v246.52c0,33.95,21.41,55.73,45.02,55.73s46.13-38.75,64.95-76.39c1.85-3.69,5.54-6.27,9.96-6.27Zm-10.33-136.92c0,6.27-4.8,11.07-11.07,11.07h-105.55c-6.27,0-11.07-4.8-11.07-11.07s4.8-11.07,11.07-11.07h105.55c6.27,0,11.07,4.8,11.07,11.07Z"></path></g><path class="cls-13" d="m1047.26,2808.99c0,6.27-4.8,11.07-11.07,11.07h-105.55c-6.27,0-11.07-4.8-11.07-11.07s4.8-11.07,11.07-11.07h105.55c6.27,0,11.07,4.8,11.07,11.07Z"></path><path class="cls-12" d="m1119.96,2869.51c7.01,0,12.55,6.64,10.7,13.65-20.67,89.68-69.38,167.55-147.99,167.55-36.17,0-67.17-31.37-67.17-77.87v-246.52c0-6.27,4.8-11.07,11.07-11.07s11.07,4.8,11.07,11.07v246.52c0,33.95,21.4,55.73,45.02,55.73,64.21,0,107.39-66.8,126.58-150.2,1.11-5.17,5.54-8.86,10.7-8.86Z"></path><line class="cls-8" x1="1367.04" y1="2526.89" x2="1509.49" y2="2404.04"></line><g class="cls-21"><path class="cls-14" d="m1229.93,2965.46c-6.27,0-11.07-4.8-11.07-11.07,0-1.85.37-3.69,1.11-5.17,40.23-76.02,100.01-185.63,100.01-272.36,0-56.83-25.46-100.75-39.86-100.75-11.44,0-31.74,34.32-38.75,103.7-6.27,61.26-2.21,235.82-6.64,322.55-1.11,22.14-2.21,53.51-2.21,91.52,0,114.04,12.92,259.44,51.3,258.7,14.76-.37,36.17-40.59,36.17-97.43,0-87.83-35.43-210.36-100.75-274.94-2.21-2.21-3.32-4.8-3.32-8.12,0-5.91,4.8-11.07,11.07-11.07,2.95,0,5.54,1.48,7.75,3.32,70.49,69.75,107.39,198.92,107.39,290.81,0,65.69-25.1,119.2-57.57,119.57-65.32,1.48-74.18-163.49-74.18-280.85,0-38.75,1.11-70.12,2.21-93,4.43-85.25.37-260.55,6.64-323.29,7.75-77.13,31.37-123.63,60.89-123.63,32.48,0,62,56.83,62,122.89,0,92.26-62.37,206.67-102.6,282.69-1.85,3.69-5.54,5.9-9.6,5.9Z"></path></g><g class="cls-20"><path class="cls-14" d="m1229.93,2965.46c-6.27,0-11.07-4.8-11.07-11.07,0-1.85.37-3.69,1.11-5.17,40.23-76.02,100.01-185.63,100.01-272.36,0-56.83-25.46-100.75-39.86-100.75-11.44,0-31.74,34.32-38.75,103.7-6.27,61.26-2.21,235.82-6.64,322.55-1.11,22.14-2.21,53.51-2.21,91.52,0,114.04,12.92,259.44,51.3,258.7,14.76-.37,36.17-40.59,36.17-97.43,0-87.83-35.43-210.36-100.75-274.94-2.21-2.21-3.32-4.8-3.32-8.12,0-5.91,4.8-11.07,11.07-11.07,2.95,0,5.54,1.48,7.75,3.32,70.49,69.75,107.39,198.92,107.39,290.81,0,65.69-25.1,119.2-57.57,119.57-65.32,1.48-74.18-163.49-74.18-280.85,0-38.75,1.11-70.12,2.21-93,4.43-85.25.37-260.55,6.64-323.29,7.75-77.13,31.37-123.63,60.89-123.63,32.48,0,62,56.83,62,122.89,0,92.26-62.37,206.67-102.6,282.69-1.85,3.69-5.54,5.9-9.6,5.9Z"></path></g><path class="cls-12" d="m1219.23,2975.79c0-5.9,4.8-11.07,11.07-11.07,2.95,0,5.9,1.48,8.12,3.69,18.82,21.04,38.01,33.95,52.4,33.95,43.92,0,101.86-118.46,101.86-141.35,0-4.06-2.58-8.12-4.43-8.12s-3.32,2.21-3.32,8.49c0,23.25,32.11,21.77,61.63,28.79,48.34,11.44,68.27,47.98,68.27,80.08,0,45.02-38.38,80.08-77.5,80.08-25.46,0-62-15.13-74.55-46.87-.37-1.11-.74-2.58-.74-4.06,0-6.27,5.17-11.07,11.07-11.07,4.8,0,8.86,2.95,10.33,7.01,8.49,21.4,34.69,32.85,53.88,32.85,27.31,0,55.36-25.46,55.36-57.94,0-23.99-14.76-50.19-51.3-58.68-26.94-6.27-78.61-5.9-78.61-50.19,0-22.14,14.02-30.63,25.46-30.63,16.98,0,26.57,16.61,26.57,30.26,0,30.26-62,163.49-124,163.49-22.14,0-46.87-16.61-69.01-40.96-1.85-2.21-2.58-4.8-2.58-7.75Z"></path><path class="cls-12" d="m1233.26,2936.31c5.9,0,11.07,4.8,11.07,11.07,0,1.48-.37,2.95-.74,4.06-18.82,45.02-45.76,99.27-91.15,99.27s-43.18-46.5-43.18-66.8v-105.92c0-6.27,4.8-11.07,11.07-11.07s11.07,4.8,11.07,11.07v105.92c0,19.93-.37,44.65,21.04,44.65,30.63,0,53.14-43.18,70.49-85.62,1.85-3.69,5.54-6.64,10.33-6.64Z"></path><circle class="cls-13" cx="1119" cy="3939.09" r="95.75"></circle><g class="cls-19"><path class="cls-14" d="m1118.65,3901.02c6.32,0,11.16,4.83,11.16,11.16v256.57c0,10.04.37,44.99,16.36,44.99,29.75,0,46.85-30.12,71.39-78.09,1.86-3.35,5.58-5.95,10.04-5.95,5.95,0,11.16,4.83,11.16,11.16,0,1.86-.37,3.72-1.49,5.21-25.28,49.45-47.22,89.99-91.1,89.99-39.42,0-38.67-56.52-38.67-67.3v-256.57c0-6.32,4.83-11.16,11.16-11.16Z"></path></g></svg> 