<?xml version="1.0" encoding="UTF-8"?> <svg xmlns="http://www.w3.org/2000/svg" xmlns:xlink="http://www.w3.org/1999/xlink" viewBox="0 0 1920 3829"><defs><style>.cls-1,.cls-2,.cls-3{fill:none;}.cls-4{clip-path:url(#clippath);}.cls-5{fill:#fff;}.cls-6{fill:#937fbb;}.cls-7{fill:#171c32;}.cls-8{clip-path:url(#clippath-1);}.cls-9{clip-path:url(#clippath-4);}.cls-10{clip-path:url(#clippath-3);}.cls-11{clip-path:url(#clippath-2);}.cls-2{stroke:#a797c9;stroke-dasharray:0 0 1.74 17.45;stroke-linecap:round;stroke-width:7px;}.cls-2,.cls-3{stroke-miterlimit:10;}.cls-3{stroke:#57678b;stroke-width:3.5px;}</style><clipPath id="clippath"><rect class="cls-1" x="648.39" y="3421.86" width="146.98" height="146.98" rx="73.49" ry="73.49"></rect></clipPath><clipPath id="clippath-1"><circle class="cls-1" cx="1349.17" cy="1596.19" r="116.91"></circle></clipPath><clipPath id="clippath-2"><circle class="cls-1" cx="1032.47" cy="2106.84" r="116.22"></circle></clipPath><clipPath id="clippath-3"><circle class="cls-1" cx="595.55" cy="2148.13" r="128.87"></circle></clipPath><clipPath id="clippath-4"><rect class="cls-1" x="1372.12" y="3101.89" width="111.78" height="111.78" rx="55.89" ry="55.89"></rect></clipPath></defs><g id="Background"><rect class="cls-7" width="1920" height="3829"></rect></g><g id="Horizontal_Guides"><line class="cls-3" y1="2042.95" x2="1920" y2="2042.95"></line><line class="cls-3" y1="2226.23" x2="1920" y2="2226.23"></line><line class="cls-3" x1="1920" y1="2416.38" y2="2416.38"></line><line class="cls-3" y1="2613.83" x2="1920" y2="2613.83"></line><line class="cls-3" y1="2964.42" x2="1920" y2="2964.42"></line><line class="cls-3" y1="3147.7" x2="1920" y2="3147.7"></line><line class="cls-3" x1="1920" y1="3337.85" y2="3337.85"></line><line class="cls-3" y1="3535.3" x2="1920" y2="3535.3"></line><line class="cls-3" y1="1125.49" x2="1920" y2="1125.49"></line><line class="cls-3" y1="1308.77" x2="1920" y2="1308.77"></line><line class="cls-3" x1="1920" y1="1498.92" y2="1498.92"></line><line class="cls-3" y1="1696.37" x2="1920" y2="1696.37"></line><line class="cls-3" y1="203.02" x2="1920" y2="203.02"></line><line class="cls-3" y1="389.3" x2="1920" y2="389.3"></line><line class="cls-3" x1="1920" y1="579.45" y2="579.45"></line><line class="cls-3" y1="776.9" x2="1920" y2="776.9"></line></g><g id="word"><path class="cls-6" d="m1657.28,2223.07c0,6.41-5.25,11.66-11.66,11.66h-56.56c-6.41,0-11.66-5.25-11.66-11.66s5.25-11.66,11.66-11.66h56.56c6.41,0,11.66,5.25,11.66,11.66Z"></path><circle class="cls-6" cx="595.55" cy="2148.13" r="128.87"></circle><circle class="cls-6" cx="1032.47" cy="2106.84" r="116.22"></circle><circle class="cls-6" cx="1349.17" cy="1596.19" r="116.91"></circle><polygon class="cls-6" points="881.69 2042.95 822.85 2042.95 606.53 2613.83 667.37 2613.83 881.69 2042.95"></polygon><rect class="cls-6" x="648.39" y="3421.86" width="146.98" height="146.98" rx="73.49" ry="73.49"></rect><rect class="cls-6" x="1372.12" y="3102.89" width="111.78" height="111.78" rx="55.89" ry="55.89"></rect><path class="cls-5" d="m621.65,2299.45c6.41,0,11.66,5.25,11.66,11.66,0,2.92-.58,5.25-2.92,7.58-29.74,33.82-97.96,94.47-133.54,94.47-20.41,0-37.9-17.49-37.9-40.82,0-6.41,1.75-14.58,5.25-22.16,50.15-112.54,102.05-289.23,161.53-289.23,32.07,0,27.41,38.49,15.74,69.97-34.99,88.05-197.68,282.23-273.48,282.23-27.41,0-38.49-22.16-38.49-48.4,0-29.74,12.83-71.14,29.16-104.96,30.91-64.14,68.23-142.28,68.23-172.02,0-5.83,1.75-3.5.58-3.5-14,0-54.23,36.15-86.3,70.56-2.33,2.33-5.25,4.08-8.75,4.08-6.41,0-11.66-5.25-11.66-11.66,0-3.5,1.17-5.83,2.92-8.16,32.65-35.57,78.14-78.14,103.8-78.14,12.83,0,22.74,9.33,22.74,26.82,0,35.57-39.65,117.21-70.56,182.52-15.16,31.49-26.82,68.23-26.82,94.47,0,17.49,4.66,25.07,15.16,25.07,60.06,0,218.67-183.1,251.33-267.07,6.41-16.91,11.08-38.49,6.41-38.49-37.32,0-89.8,162.69-140.53,275.23-2.33,5.25-2.92,8.75-2.92,12.83,0,10.5,7,17.49,14.58,17.49,23.91,0,87.47-54.23,116.04-86.3,2.33-2.92,5.25-4.08,8.75-4.08Zm110.79,0c6.41,0,11.66,5.25,11.66,11.66,0,2.92-.58,5.25-2.33,7.58-33.24,43.15-87.47,94.47-127.12,94.47-56.56,0-1.75-105.55,27.41-182.52,1.75-4.66,5.83-7.58,11.08-7.58,8.16,0,13.41,8.75,11.08,15.74-24.49,65.89-63.56,151.03-49.57,151.03,28.57,0,77.56-44.9,108.46-85.72,2.33-2.33,5.83-4.67,9.33-4.67Zm-75.22-107.88c0-8.75,8.16-15.74,15.74-15.74s13.41,7.58,13.41,15.16c0,8.16-7.58,15.74-15.74,15.74s-13.41-8.16-13.41-15.16Zm300.89,22.16c6.41,0,11.66,5.25,11.66,11.66,0,2.92-1.17,5.83-3.5,8.16-40.82,43.73-164.44,179.6-223.34,179.6-23.32,0-43.73-16.33-37.32-57.15,2.92-18.08,54.23-148.11,81.05-216.92,1.75-4.67,5.83-7.58,10.5-7.58,8.75,0,13.99,8.75,11.08,15.74-26.82,68.81-76.97,197.1-79.3,212.26-4.08,23.91,2.92,30.32,13.99,30.32,45.48,0,165.02-128.87,206.43-172.6,2.33-2.33,5.25-3.5,8.75-3.5Zm-117.79,9.33c0,6.41-5.25,11.66-11.66,11.66h-56.56c-6.41,0-11.66-5.25-11.66-11.66s5.25-11.66,11.66-11.66h56.56c6.41,0,11.66,5.25,11.66,11.66Zm211.09,76.39c6.41,0,11.66,5.25,11.66,11.66,0,2.92-1.17,5.25-2.92,7.58-36.15,41.4-86.88,94.47-122.46,94.47-67.64,0-16.33-133.54,23.91-234.42,30.32-73.47,46.07-143.45,91.55-143.45,19.83,0,37.9,11.66,37.9,39.07,0,55.98-78.72,121.29-131.2,173.77-2.33,2.33-5.25,3.5-8.16,3.5-6.41,0-11.66-5.25-11.66-11.66,0-2.92,1.17-5.83,3.5-8.16,52.48-53.06,124.21-113.71,124.21-157.44,0-12.25-5.25-15.74-14.58-15.74-25.07,0-39.07,53.65-69.39,129.45-39.65,96.8-74.64,201.76-46.07,201.76,23.32,0,69.39-46.07,104.96-86.3,2.33-2.92,5.25-4.08,8.75-4.08Zm-9.33,4.67c20.41-51.32,70.56-80.47,110.79-80.47,46.07,0,65.31,53.65,43.15,105.55-18.08,43.15-65.31,83.97-107.3,83.97-44.9,0-71.72-44.9-46.65-109.04Zm132.95,15.74c15.74-37.32,4.67-72.89-22.16-72.89-32.07,0-72.89,24.49-88.63,65.31-19.24,48.4-3.5,77.56,24.49,77.56,31.49,0,70.56-33.82,86.3-69.97Zm128.87-20.41c7,0,11.66,5.25,11.66,11.66,0,2.92-1.17,5.83-2.92,8.16-39.65,41.4-81.05,93.88-121.87,93.88-54.23,0-12.83-103.8,15.74-182.52,1.75-4.66,5.83-7.58,11.08-7.58,8.16,0,13.41,8.75,11.08,15.74-23.33,65.31-53.65,151.03-37.9,151.03,28.57,0,64.73-44.9,104.96-86.89,2.33-2.33,5.25-3.5,8.16-3.5Zm-8.75,4.67c20.41-51.32,70.56-80.47,110.79-80.47,46.07,0,65.31,53.65,43.15,105.55-18.08,43.15-65.31,83.97-107.29,83.97-44.9,0-71.72-44.9-46.65-109.04Zm132.95,15.74c15.74-37.32,4.67-72.89-22.16-72.89-32.07,0-72.89,24.49-88.63,65.31-19.24,48.4-3.5,77.56,24.49,77.56,31.49,0,70.56-33.82,86.3-69.97Zm120.71-19.83c6.41,0,11.66,4.67,11.66,11.66,0,2.33-.58,4.67-2.33,6.41-31.49,43.15-74.06,95.05-114.29,95.05-54.23,0-12.83-103.8,15.74-182.52,1.75-4.66,5.83-7.58,11.08-7.58,8.16,0,13.41,8.75,11.08,15.74-23.32,65.31-53.65,151.03-37.9,151.03,27.99,0,65.89-44.9,95.63-85.14,2.33-2.92,5.83-4.67,9.33-4.67Zm111.96,30.32c6.41,0,11.66,5.25,11.66,11.66,0,3.5-1.17,6.41-3.5,8.75-27.99,25.66-75.81,62.39-109.04,62.39-23.33,0-43.73-16.33-37.32-57.15,2.92-18.08,54.23-148.11,81.05-216.92,1.75-4.67,5.83-7.58,10.5-7.58,8.75,0,14,8.75,11.08,15.74-26.82,68.81-76.97,197.1-79.3,212.26-4.08,23.91,2.92,30.32,13.99,30.32,24.49,0,67.64-32.65,92.72-55.98,2.33-1.75,5.25-3.5,8.16-3.5Z"></path><path class="cls-5" d="m647.54,343.65c-6.41,0-11.66-5.25-11.66-11.66,0-2.92,1.17-5.25,2.92-7.58,5.83-6.41,12.25-21.58,12.25-35.57,0-19.24-10.5-39.07-39.65-39.07-50.15,0-97.96,111.38-130.04,197.68-27.41,72.89-50.15,131.2-79.3,131.2-10.5,0-18.66-7.58-17.49-29.74,2.33-62.98,104.38-258.32,112.54-297.39-1.75,5.83,22.74,1.75,20.41,3.5-14.58,25.66-36.74,38.49-53.06,38.49-15.16,0-26.82-9.91-26.82-26.82,0-7,1.75-15.16,1.75-19.83,0,2.92,2.92,2.92,4.66,2.92-7.58,0-36.74,32.07-60.64,76.39-1.75,4.08-5.83,6.41-10.5,6.41-6.41,0-11.66-5.25-11.66-11.66,0-1.75.58-4.08,1.75-5.25,25.66-48.98,58.31-89.22,81.05-89.22,11.66,0,18.66,8.16,18.66,20.41,0,7-1.75,15.16-1.75,19.83,0,2.92,0,3.5,3.5,3.5,8.16,0,22.16-8.16,32.07-26.24,7-12.25,26.82-7,23.91,11.08-8.16,42.57-110.21,237.91-112.54,295.06-.58,9.91-2.92,5.25-5.83,5.25,9.33,0,30.91-45.48,57.15-116.04,32.07-86.3,83.39-212.84,152.2-212.84,45.48,0,62.98,34.99,62.98,62.39,0,18.66-7.58,39.07-18.08,50.73-1.75,2.92-5.25,4.08-8.75,4.08Zm176.1,44.9c6.41,0,11.66,5.25,11.66,11.66,0,2.92-1.17,5.25-2.92,7.58-19.24,23.32-37.32,38.49-61.81,38.49s-34.4-23.32-22.16-48.98c1.17-2.33,23.33,10.5,19.24,11.66-107.29,113.13-179.6,169.69-221,169.69-20.99,0-33.24-18.08-33.24-47.23,0-47.82,36.74-142.28,87.47-142.28,17.49,0,29.74,13.99,29.74,35.57,0,68.81-112.54,118.37-190.1,114.88-6.41,0-11.08-5.25-11.08-11.66s5.83-11.66,12.25-11.08c68.23,2.92,165.61-41.4,165.61-92.13,0-8.75-2.33-12.25-6.41-12.25-30.91,0-64.14,78.14-64.14,118.96,0,16.91,4.08,23.91,9.91,23.91,30.32,0,97.38-50.15,201.76-160.36,8.16-12.25,28.57-2.33,20.99,12.83-4.67,9.91-3.5,15.16,1.17,15.16,15.16,0,27.41-9.33,43.73-29.74,2.33-2.92,5.83-4.66,9.33-4.66Zm.58,0c6.41,0,11.66,5.25,11.66,11.66,0,2.92-1.17,5.83-2.92,7.58-32.65,38.49-68.23,97.96-68.23,123.62,0,20.99,0,23.91,12.83,23.91,19.24,0,88.05-53.06,175.52-153.36,2.33-2.33,5.25-3.5,8.75-3.5,6.41,0,11.66,5.25,11.66,11.66,0,2.92-1.17,5.25-2.92,7.58-88.63,100.88-161.53,160.94-193.01,160.94s-36.15-19.24-36.15-47.23c0-33.24,39.07-97.96,74.06-138.78,2.33-2.33,5.25-4.08,8.75-4.08Zm251.91-.58c8.16,0,14,7.58,11.08,15.16-22.16,69.97-53.65,175.52-130.04,175.52-20.99,0-39.07-12.25-39.07-43.15,0-44.32,29.74-123.04,57.15-191.26,30.32-73.47,46.07-143.45,91.55-143.45,19.83,0,37.9,11.66,37.9,39.07,0,55.98-78.72,121.29-131.2,173.77-2.33,2.33-5.25,3.5-8.16,3.5-6.41,0-11.66-5.25-11.66-11.66,0-2.92,1.17-5.83,3.5-8.16,52.48-53.06,124.21-113.71,124.21-157.44,0-12.25-5.25-15.74-14.58-15.74-25.07,0-39.07,53.65-69.39,129.45-27.41,67.06-55.98,142.28-55.98,181.93,0,15.74,5.25,19.83,15.74,19.83,58.31,0,85.72-91.55,107.88-159.19,1.75-4.66,6.41-8.16,11.08-8.16Zm107.29,27.41c6.41,0,11.66,5.25,11.66,11.66,0,3.5-1.75,7-4.67,9.33-20.99,16.91-53.65,31.49-77.56,31.49-39.07,0-57.73-30.32-49.57-65.89,1.17-5.25,5.83-9.33,11.66-9.33,7,0,12.83,7,11.08,14.58-5.25,20.99,3.5,37.32,26.82,37.32,18.08,0,46.07-12.83,62.98-26.24,2.33-1.75,4.66-2.92,7.58-2.92Zm102.05,34.99c-1.17,53.65-45.48,128.29-104.38,128.29-34.99,0-48.4-28.57-47.23-60.06,1.75-53.06,44.32-130.04,100.88-130.04,37.32,0,51.9,29.16,50.73,61.81Zm-128.29,69.39c-1.17,22.16,6.41,35.57,23.91,35.57,42.57,0,79.89-60.64,81.05-106.13,1.17-23.32-7-37.32-27.41-37.32-40.24,0-75.81,62.98-77.56,107.88Zm220.42-100.3c6.41,0,11.66,5.25,11.66,11.66,0,2.92-1.17,5.25-2.92,7.58-54.23,62.39-90.97,69.39-120.71,65.89-5.83-1.17-10.5-5.83-10.5-11.66,0-7,5.83-12.25,12.83-11.66,25.66,2.92,54.23-4.08,100.88-57.73,2.33-2.92,5.25-4.08,8.75-4.08Zm-40.24,86.3c1.75-51.9,39.07-117.21,103.8-117.21,40.82,0,54.23,37.32,54.23,74.06,0,45.48-42.57,117.21-99.13,117.21-41.98,0-60.06-36.15-58.9-74.06Zm134.7-43.15c0-29.74-8.75-50.73-30.91-50.73-48.4,0-78.72,51.32-80.47,95.05-1.17,28.57,10.5,49.57,35.57,49.57,40.24,0,75.81-57.73,75.81-93.88Zm91.55,33.82c6.41,0,11.66,5.25,11.66,11.66,0,2.92-.58,5.25-2.33,7.58-22.16,26.24-49.57,62.98-86.88,62.98-67.06,0-7.58-119.54,64.14-311.39,1.75-4.67,5.83-7.58,11.08-7.58,8.16,0,13.41,8.75,10.5,15.74-69.97,188.35-110.21,279.9-85.72,279.9s47.23-28.57,68.81-54.81c2.33-2.33,5.25-4.08,8.75-4.08Z"></path><path class="cls-5" d="m545.96,3134.98c6.41,0,11.66,5.25,11.66,11.66,0,2.92-.58,5.83-2.92,7.58-20.99,23.91-43.73,35.57-63.56,35.57-46.07,0-62.98-59.48-31.49-117.79,19.83-36.15,68.23-85.14,123.04-85.14,88.05,0,76.39,118.96,47.82,192.43-26.82,69.39-107.88,160.36-181.35,160.36-100.88,0-124.79-140.53-42.57-248.41,2.33-2.92,5.25-4.67,9.33-4.67,6.41,0,11.66,5.25,11.66,11.66,0,2.92-1.17,5.25-2.33,7-72.31,95.05-53.65,211.09,23.91,211.09,60.64,0,134.7-81.64,159.19-145.2,26.24-67.64,35.57-160.94-25.66-160.94-43.15,0-84.55,40.82-102.05,73.47-24.49,44.32-14,82.8,10.5,82.8,12.83,0,29.16-8.16,46.65-27.41,1.75-2.92,5.25-4.08,8.16-4.08Zm295.64,2.33c6.41,0,11.66,5.25,11.66,11.66,0,3.5-1.17,6.41-3.5,8.75-125.95,110.21-200.01,181.93-237.91,181.93-72.31,0-11.08-147.53,1.75-179.6,38.49-96.22,53.06-134.12,64.73-165.61,1.75-4.67,5.83-7.58,11.08-7.58,8.16,0,13.41,8.75,10.5,15.74-11.66,32.07-26.24,69.39-64.14,165.61-11.66,29.16-57.73,148.11-23.91,148.11,25.66,0,95.63-65.89,222.17-176.1,2.33-1.75,4.67-2.92,7.58-2.92Zm-127.12,395.36c-8.75,0-13.41-8.16-11.08-15.16l115.46-342.29c30.32-73.47,64.14-213.42,111.38-213.42,19.83,0,37.9,11.66,37.9,39.07,0,55.98-80.47,121.29-133.54,173.77-2.33,2.33-5.25,3.5-8.16,3.5-6.41,0-11.66-5.25-11.66-11.66,0-2.92,1.17-5.83,3.5-8.16,53.06-53.06,126.54-113.71,126.54-157.44,0-12.25-5.25-15.74-14.58-15.74-23.32,0-59.48,124.21-89.22,198.26l-115.46,341.13c-1.75,4.67-5.83,8.16-11.08,8.16Zm355.7-306.14c6.41,0,11.66,5.25,11.66,11.66,0,3.5-1.75,6.41-4.08,8.75-85.72,75.81-122.46,92.72-143.45,92.72s-33.24-18.08-33.24-46.07c0-48.4,34.99-143.45,83.97-143.45,14.58,0,34.4,9.33,34.4,36.74,0,66.48-123.62,110.79-195.93,110.79-40.82,0-74.06-16.91-59.48-54.81,1.75-4.67,6.41-7.58,11.08-7.58,8.75,0,13.41,8.75,11.08,15.74-6.41,17.49,7.58,23.33,37.32,23.33,65.31,0,172.6-41.4,172.6-87.47,0-9.91-4.67-13.41-11.08-13.41-28.57,0-60.65,78.14-60.65,120.12,0,15.74,3.5,22.74,9.91,22.74,12.83,0,45.48-13.99,127.7-86.89,2.33-1.75,4.66-2.92,8.16-2.92Zm335.3,113.71c-8.75,0-13.99-8.75-11.08-15.74,19.83-46.07,50.15-114.29,55.98-130.04,2.92-7.58,4.08-12.25,4.08-15.74,0-5.25-3.5-5.83-5.25-5.83-9.33,0-40.82,27.99-79.3,64.14-50.73,46.07-110.21,102.63-145.78,102.63-20.99,0-33.24-18.08-33.24-45.48,0-48.98,36.15-144.03,83.97-144.03,23.32,0,34.4,22.74,34.4,38.49-1.17,50.15-167.94,151.03-225.67,151.03-25.07,0-41.4-16.33-41.4-41.4,0-4.66.58-11.66,2.33-16.91,3.5-15.16,16.91-53.65,80.47-216.34,1.75-4.08,5.83-7,10.5-7,8.75,0,14,8.75,11.08,15.74-62.98,162.11-76.39,198.84-79.89,213.42-.58,4.08-1.17,7.58-1.17,11.08,0,12.25,5.83,18.08,18.08,18.08,51.9,0,201.76-97.96,202.34-127.7,0-4.66-2.92-15.16-11.08-15.16-27.41,0-60.65,78.14-60.65,120.71,0,15.16,3.5,22.16,9.91,22.16,23.91,0,79.3-50.73,129.45-96.8,38.49-35.57,74.06-69.97,95.63-69.97,12.83,0,28.57,9.33,28.57,29.16,0,7-2.33,15.16-5.25,23.91-6.41,16.91-37.32,84.55-56.56,130.62-1.75,4.08-5.83,7-10.5,7Zm-226.83-190.68c0,6.41-5.25,11.66-11.66,11.66h-56.56c-6.41,0-11.66-5.25-11.66-11.66s5.25-11.66,11.66-11.66h56.56c6.41,0,11.66,5.25,11.66,11.66Zm427.43,109.63c6.41,0,11.66,5.25,11.66,11.66,0,2.33-.58,4.08-1.75,5.83-15.74,27.99-46.07,62.98-79.89,62.98-39.07,0-41.99-43.73-27.41-72.89l35.57-71.14c11.08-20.99,10.5-22.74-4.08-22.74-21.58,0-47.23,23.33-78.14,54.23-2.33,1.75-5.25,2.92-8.16,2.92-6.41,0-11.66-5.25-11.66-11.66,0-2.92,1.17-5.83,3.5-8.16,32.07-32.07,62.98-60.64,94.47-60.64,36.74,0,41.98,23.32,25.07,56.56l-35.57,71.14c-8.16,15.74-9.91,39.07,6.41,39.07,21.58,0,46.07-26.82,59.48-51.31,2.33-3.5,5.83-5.83,10.5-5.83Z"></path><path class="cls-5" d="m547.77,1403.8c-8.75,0-13.41-8.75-11.08-15.74,15.16-40.82,39.65-60.65,59.48-60.65,13.99,0,27.41,10.5,27.41,32.66,0,12.25-4.67,30.32-15.74,50.73-29.74,55.4-79.89,85.72-119.54,85.72-31.49,0-57.73-19.83-57.73-63.56,0-23.32,6.41-46.65,20.99-76.97,38.49-79.3,116.62-174.35,121.87-188.93,1.75-4.67,18.66,4.66,19.24,6.41-14.58,25.66-36.15,37.9-52.48,37.9-15.16,0-26.82-9.91-26.82-26.82,0-7,1.75-15.16,1.75-19.83,0,2.92,2.92,2.92,4.66,2.92-7.58,0-36.74,32.07-60.64,76.39-1.75,4.08-5.83,6.41-10.5,6.41-6.41,0-11.66-5.25-11.66-11.66,0-1.75.58-4.08,1.75-5.25,25.66-48.98,58.31-89.22,81.05-89.22,11.66,0,18.66,8.16,18.66,20.41,0,7-1.75,15.16-1.75,19.83,0,2.92,0,3.5,3.5,3.5,8.16,0,22.16-8.16,32.65-26.24,8.75-13.99,29.16-4.66,22.74,13.41-7.58,19.24-85.72,113.13-123.04,191.26-13.41,27.99-18.66,46.65-18.66,66.48,0,29.74,13.41,40.24,34.4,40.24,30.32,0,73.47-25.66,98.55-72.89,9.91-18.08,13.41-31.49,13.41-40.24,0-6.41-1.75-9.33-4.08-9.33-8.75,0-25.66,13.99-37.32,45.48-1.75,4.66-6.41,7.58-11.08,7.58Zm-7.58-107.88c0,5.83-4.67,11.08-10.5,11.66l-68.23,7c-7,.58-12.83-4.66-12.83-11.66,0-5.83,4.67-11.08,10.5-11.66l68.23-7c7-.58,12.83,4.66,12.83,11.66Zm340.54,201.18c-8.75,0-13.99-8.75-11.08-15.74,19.83-46.65,50.73-116.04,55.98-130.04,2.92-7.58,4.08-11.66,4.08-15.74,0-5.25-3.5-5.83-5.25-5.83-3.5,0-31.49,22.16-66.48,55.4-53.06,47.82-120.71,111.38-167.36,111.38-20.99,0-33.24-18.08-33.24-46.07,0-48.4,34.99-143.45,83.97-143.45,14.58,0,34.4,9.33,34.4,36.74,0,64.14-140.53,118.37-182.52,65.89-1.75-1.75-2.92-4.67-2.92-7.58,0-6.41,5.25-11.66,11.66-11.66,3.5,0,7,1.75,9.33,4.66,27.41,34.4,141.12-8.75,141.12-51.31,0-9.91-4.66-13.41-11.08-13.41-28.57,0-60.64,78.14-60.64,120.12,0,15.74,3.5,22.74,9.91,22.74,35.57,0,99.13-57.73,151.03-105.55,37.32-33.82,66.48-61.23,82.8-61.23,12.83,0,28.57,9.33,28.57,29.16,0,7.58-2.33,15.16-5.25,23.91-5.83,14.58-37.32,84.55-56.56,130.62-1.75,4.08-5.83,7-10.5,7Zm446.09-57.73c6.41,0,11.66,5.25,11.66,11.66,0,4.08-2.33,7.58-5.25,9.91-40.82,25.66-86.3,40.24-108.46,40.24-16.33,0-29.16-12.83-29.16-30.91,0-5.25-.58-7-3.5-7-5.83,0-21.58,9.33-30.91,27.99-7.58,15.16-29.74,3.5-20.99-11.66,54.81-79.89,77.56-126.54,108.46-167.36,4.66-3.5,22.74,9.91,17.49,14.58-18.66,18.66-37.9,37.32-58.31,37.32-18.08,0-28.57-12.25-28.57-27.99,0-5.83,1.75-14.58,5.25-20.99,1.17-2.33,18.66,14.58,18.08,12.25-51.9,69.39-129.45,169.11-191.26,169.11-40.24,0-41.98-43.73-21.58-83.97l29.74-60.06c10.5-20.99,11.08-22.74-4.08-22.74-21.58,0-47.23,23.33-78.14,54.23-2.33,1.75-5.25,2.92-8.16,2.92-6.41,0-11.66-5.25-11.66-11.66,0-2.92,1.17-5.83,3.5-8.16,32.07-32.07,62.98-60.64,94.47-60.64s43.15,18.66,25.07,56.56l-29.74,60.06c-13.99,26.82-15.74,50.15.58,50.15,47.82,0,121.87-91.55,173.77-160.94,9.91-11.66,27.41-.58,20.41,13.41-2.33,4.08-2.92,7-2.92,10.5,0,4.08,1.17,4.67,5.25,4.67,9.91,0,24.49-12.83,41.99-30.32,11.08-11.08,26.82,1.17,18.66,14.58-29.74,39.07-52.48,85.14-108.46,166.77,7.58-12.83-13.41-23.91-19.83-11.08,13.99-26.82,36.74-40.82,51.9-40.82,12.83,0,26.82,8.75,26.82,30.32,0,5.25,2.33,7.58,5.83,7.58,18.08,0,58.9-12.83,95.63-36.74,1.75-1.17,4.08-1.75,6.41-1.75Zm177.85-25.66c6.41,0,11.66,5.25,11.66,11.66,0,3.5-1.75,6.41-4.08,8.75-27.99,25.66-62.98,50.15-96.22,74.06-68.22,48.98-120.71,87.47-120.71,126.54,0,16.33,8.16,30.32,25.07,30.32,24.49,0,47.23-31.49,81.05-147.53,10.5-37.32,54.23-135.87,79.3-203.51,1.75-4.66,5.83-7.58,11.08-7.58,8.16,0,13.41,8.75,11.08,15.74-25.66,68.23-68.81,166.19-79.3,202.34-36.15,123.04-62.39,163.86-103.21,163.86-33.24,0-48.4-27.99-48.4-53.65,0-51.9,60.64-96.22,130.04-145.2,33.82-24.49,67.64-47.82,94.47-72.31,2.33-2.33,5.25-3.5,8.16-3.5Zm-46.07-23.32c6.41,0,11.66,4.66,11.66,11.66,0,2.92-1.17,5.25-2.91,7.58-32.66,36.74-82.8,86.89-123.62,86.89-60.65,0-5.83-111.38,24.49-183.1,1.75-4.08,5.83-7,10.5-7,8.75,0,14,8.75,11.08,15.74-26.82,65.89-65.31,151.03-46.07,151.03,29.74,0,75.22-44.32,106.13-79.3,2.33-2.33,5.25-3.5,8.75-3.5Zm-76.39-115.46c0-8.75,8.16-15.74,15.74-15.74s13.41,7.58,13.41,15.16c0,8.16-7.58,15.74-15.74,15.74s-13.41-8.16-13.41-15.16Zm110.21,0c0-8.75,8.16-15.74,15.74-15.74s13.41,7.58,13.41,15.16c0,8.16-7.58,15.74-15.74,15.74s-13.41-8.16-13.41-15.16Z"></path><path class="cls-5" d="m121.27,889.43h8.36c11.05,0,17.39,4.54,17.39,16.42s-6.26,16.34-17.18,16.34h-8.57v-32.77Zm8.65,30.12c9.41,0,14.03-3.74,14.03-13.78s-4.49-13.74-14.07-13.74h-5.67v27.51h5.71Z"></path><path class="cls-5" d="m170.58,912.7h-15.96c.17,4.79,2.48,7.48,6.93,7.48,3.82,0,5.67-1.43,5.96-4.83h2.98c-.29,4.24-3.28,7.39-9.03,7.39-7.06,0-9.83-4.66-9.83-10.88s3.23-11.22,10-11.22,8.95,3.99,8.95,10.21v1.85Zm-3.11-2.98c0-4.45-1.72-6.55-5.92-6.55s-6.55,2.65-6.89,6.97h12.81v-.42Z"></path><path class="cls-5" d="m174.78,911.86c0-6.38,3.23-11.22,10-11.22s8.95,3.91,8.95,8.95v.42h-3.11v-.63c0-3.82-1.64-6.09-5.84-6.09-4.75,0-7.02,3.11-7.02,8.4,0,5.63,2.39,8.49,6.93,8.49,3.82,0,5.84-1.85,5.92-5.67h3.02c-.08,4.66-3.15,8.23-9.03,8.23-7.23,0-9.83-4.75-9.83-10.88Z"></path><path class="cls-5" d="m197.92,911.69c0-6.22,3.32-11.05,10.38-11.05,6.6,0,10.25,4.83,10.25,11.05s-3.7,11.05-10.29,11.05c-7.27,0-10.33-4.83-10.33-11.05Zm17.56,0c0-5.33-2.9-8.49-7.23-8.49-4.75,0-7.27,3.15-7.27,8.49s2.56,8.49,7.27,8.49c4.33,0,7.23-3.15,7.23-8.49Z"></path><path class="cls-5" d="m224.42,901.19h2.6l.29,3.91c1.01-2.14,3.07-4.45,6.76-4.45,1.26,0,2.18.21,3.02.55v3.15c-1.13-.5-2.1-.76-3.4-.76-3.74,0-6.34,2.81-6.34,5.75v12.85h-2.94v-21Z"></path><path class="cls-5" d="m240.04,916.4c0-3.95,2.23-6.09,7.86-6.09h6.34v-1.72c0-2.98-1.26-5.42-5.46-5.42-3.95,0-5.33,1.51-5.33,4.12v.88h-2.98v-.84c0-5,4.2-6.68,8.32-6.68,5.8,0,8.4,2.86,8.4,8.44v13.11h-2.06l-.55-2.98h-.08c-1.26,1.89-3.7,3.53-7.35,3.53-4.91,0-7.1-2.31-7.1-6.34Zm14.2-1.85v-1.76h-7.02c-2.65,0-4.03.92-4.03,3.61,0,2.35,1.26,3.86,4.5,3.86,4.16,0,6.55-2.14,6.55-5.71Z"></path><path class="cls-5" d="m275.28,919.51v2.6c-.76.21-2.14.59-4.03.59-3.82,0-6.34-1.6-6.34-6.89v-12.18h-4.16v-2.44h4.16v-6.05l2.94-1.43v7.48h5.92v2.44h-5.92v11.8c0,2.81.76,4.58,3.4,4.58,1.6,0,3.23-.29,4.03-.5Z"></path><path class="cls-5" d="m280.11,889.43h2.98v6.51h-2.98v-6.51Zm0,11.76h2.94v21h-2.94v-21Z"></path><path class="cls-5" d="m287.29,901.23v-.04h3.36l7.35,17.98h.08l7.1-17.98h3.07v.04l-8.74,20.96h-3.02l-9.2-20.96Z"></path><path class="cls-5" d="m329.09,912.7h-15.96c.17,4.79,2.48,7.48,6.93,7.48,3.82,0,5.67-1.43,5.96-4.83h2.98c-.29,4.24-3.28,7.39-9.03,7.39-7.06,0-9.83-4.66-9.83-10.88s3.23-11.22,10-11.22,8.95,3.99,8.95,10.21v1.85Zm-3.11-2.98c0-4.45-1.72-6.55-5.92-6.55s-6.55,2.65-6.89,6.97h12.81v-.42Z"></path><path class="cls-5" d="m344.2,914.8v-13.61h2.94v13.27c0,4.33,2.14,5.71,5.42,5.71,3.74,0,6.55-2.69,6.55-5.63v-13.36h2.94v21h-2.6l-.25-3.36h-.08c-.97,2.02-3.23,3.91-7.23,3.91-4.66,0-7.69-2.52-7.69-7.94Z"></path><path class="cls-5" d="m369.4,901.19h2.39l.34,3.86h.08c1.13-2.48,4.03-4.41,7.86-4.41,6.3,0,9.66,3.99,9.66,11.01s-4.28,11.09-9.87,11.09c-3.78,0-6.39-1.6-7.44-3.7h-.08v11.55h-2.94v-29.41Zm17.18,10.63c0-7.18-3.4-8.61-6.93-8.61-4.24,0-7.56,2.73-7.56,8.44,0,6.01,3.44,8.57,7.44,8.57,3.02,0,7.06-1.47,7.06-8.4Z"></path><path class="cls-5" d="m395.61,901.19h2.39l.34,3.86h.08c1.13-2.48,4.03-4.41,7.86-4.41,6.3,0,9.66,3.99,9.66,11.01s-4.28,11.09-9.87,11.09c-3.78,0-6.39-1.6-7.44-3.7h-.08v11.55h-2.94v-29.41Zm17.18,10.63c0-7.18-3.4-8.61-6.93-8.61-4.24,0-7.56,2.73-7.56,8.44,0,6.01,3.44,8.57,7.44,8.57,3.02,0,7.06-1.47,7.06-8.4Z"></path><path class="cls-5" d="m439.08,912.7h-15.96c.17,4.79,2.48,7.48,6.93,7.48,3.82,0,5.67-1.43,5.96-4.83h2.98c-.29,4.24-3.28,7.39-9.03,7.39-7.06,0-9.83-4.66-9.83-10.88s3.23-11.22,10-11.22,8.95,3.99,8.95,10.21v1.85Zm-3.11-2.98c0-4.45-1.72-6.55-5.92-6.55s-6.55,2.65-6.89,6.97h12.81v-.42Z"></path><path class="cls-5" d="m444.96,901.19h2.6l.29,3.91c1.01-2.14,3.07-4.45,6.76-4.45,1.26,0,2.18.21,3.02.55v3.15c-1.13-.5-2.1-.76-3.4-.76-3.74,0-6.34,2.81-6.34,5.75v12.85h-2.94v-21Z"></path><path class="cls-5" d="m459.96,911.86c0-6.38,3.23-11.22,10-11.22s8.95,3.91,8.95,8.95v.42h-3.11v-.63c0-3.82-1.64-6.09-5.84-6.09-4.75,0-7.02,3.11-7.02,8.4,0,5.63,2.39,8.49,6.93,8.49,3.82,0,5.84-1.85,5.92-5.67h3.02c-.08,4.66-3.15,8.23-9.03,8.23-7.22,0-9.83-4.75-9.83-10.88Z"></path><path class="cls-5" d="m483.31,916.4c0-3.95,2.23-6.09,7.86-6.09h6.34v-1.72c0-2.98-1.26-5.42-5.46-5.42-3.95,0-5.33,1.51-5.33,4.12v.88h-2.98v-.84c0-5,4.2-6.68,8.32-6.68,5.8,0,8.4,2.86,8.4,8.44v13.11h-2.06l-.55-2.98h-.08c-1.26,1.89-3.7,3.53-7.35,3.53-4.92,0-7.1-2.31-7.1-6.34Zm14.2-1.85v-1.76h-7.01c-2.65,0-4.03.92-4.03,3.61,0,2.35,1.26,3.86,4.5,3.86,4.16,0,6.55-2.14,6.55-5.71Z"></path><path class="cls-5" d="m505.9,915.77v-1.18h2.94v1.13c0,2.86,2.14,4.49,5.96,4.49s5.8-1.01,5.8-3.78c0-2.06-1.01-2.81-3.86-3.32l-4.62-.84c-3.02-.55-5.54-2.02-5.54-5.5,0-3.15,2.35-6.13,8.4-6.13s8.4,3.02,8.4,7.23v.88h-2.98v-.76c0-3.44-2.14-4.91-5.42-4.91-3.95,0-5.33,1.34-5.33,3.36s1.01,2.86,3.91,3.4l4.03.76c4.12.76,6.09,1.93,6.09,5.59,0,4.58-4.12,6.55-8.78,6.55-7.31,0-8.99-3.28-8.99-6.97Z"></path><path class="cls-5" d="m546.82,912.7h-15.96c.17,4.79,2.48,7.48,6.93,7.48,3.82,0,5.67-1.43,5.97-4.83h2.98c-.29,4.24-3.28,7.39-9.03,7.39-7.06,0-9.83-4.66-9.83-10.88s3.23-11.22,10-11.22,8.95,3.99,8.95,10.21v1.85Zm-3.11-2.98c0-4.45-1.72-6.55-5.92-6.55s-6.55,2.65-6.89,6.97h12.81v-.42Z"></path><path class="cls-5" d="m562.35,889.43h2.94v32.77h-2.94v-32.77Z"></path><path class="cls-5" d="m589.91,912.7h-15.96c.17,4.79,2.48,7.48,6.93,7.48,3.82,0,5.67-1.43,5.97-4.83h2.98c-.29,4.24-3.28,7.39-9.03,7.39-7.06,0-9.83-4.66-9.83-10.88s3.23-11.22,10-11.22,8.95,3.99,8.95,10.21v1.85Zm-3.11-2.98c0-4.45-1.72-6.55-5.92-6.55s-6.55,2.65-6.89,6.97h12.81v-.42Z"></path><path class="cls-5" d="m596.37,915.81v-12.18h-4.16v-2.44h4.16v-6.05l2.94-1.43v7.48h11.85v-6.05l2.94-1.43v7.48h5.92v2.44h-5.92v11.8c0,2.81.76,4.58,3.4,4.58,1.6,0,3.24-.29,4.03-.5v2.6c-.76.21-2.14.59-4.03.59-3.82,0-6.34-1.6-6.34-6.89v-12.18h-11.85v11.8c0,2.81.76,4.58,3.4,4.58,1.6,0,3.23-.29,4.03-.5v2.6c-.76.21-2.14.59-4.03.59-3.82,0-6.34-1.6-6.34-6.89Z"></path><path class="cls-5" d="m643,912.7h-15.96c.17,4.79,2.48,7.48,6.93,7.48,3.82,0,5.67-1.43,5.97-4.83h2.98c-.29,4.24-3.28,7.39-9.03,7.39-7.06,0-9.83-4.66-9.83-10.88s3.23-11.22,10-11.22,8.95,3.99,8.95,10.21v1.85Zm-3.11-2.98c0-4.45-1.72-6.55-5.92-6.55s-6.55,2.65-6.89,6.97h12.81v-.42Z"></path><path class="cls-5" d="m648.87,901.19h2.6l.29,3.91c1.01-2.14,3.07-4.45,6.76-4.45,1.26,0,2.18.21,3.02.55v3.15c-1.13-.5-2.1-.76-3.4-.76-3.74,0-6.34,2.81-6.34,5.75v12.85h-2.94v-21Z"></path><path class="cls-5" d="m664.08,915.77v-1.18h2.94v1.13c0,2.86,2.14,4.49,5.96,4.49s5.8-1.01,5.8-3.78c0-2.06-1.01-2.81-3.86-3.32l-4.62-.84c-3.02-.55-5.54-2.02-5.54-5.5,0-3.15,2.35-6.13,8.4-6.13s8.4,3.02,8.4,7.23v.88h-2.98v-.76c0-3.44-2.14-4.91-5.42-4.91-3.95,0-5.33,1.34-5.33,3.36s1.01,2.86,3.91,3.4l4.03.76c4.12.76,6.09,1.93,6.09,5.59,0,4.58-4.12,6.55-8.78,6.55-7.31,0-8.99-3.28-8.99-6.97Z"></path><path class="cls-5" d="m64.28,1825.35c0-12.01,6.76-17.27,14.75-17.27,6.97,0,12.39,3.74,12.39,12.01v.8h-2.86v-.92c0-5.92-3.78-9.24-9.45-9.24-6.72,0-11.76,4.58-11.76,14.33s5.04,14.24,11.72,14.24c5.38,0,9.54-2.86,9.54-9.2v-.59h2.77v.42c0,8.02-5.33,12.01-12.56,12.01-7.98,0-14.54-4.87-14.54-16.59Z"></path><path class="cls-5" d="m97.71,1820.39h2.6l.29,3.91c1.01-2.14,3.07-4.45,6.76-4.45,1.26,0,2.18.21,3.02.55v3.15c-1.13-.5-2.1-.76-3.4-.76-3.74,0-6.34,2.81-6.34,5.75v12.85h-2.94v-21Z"></path><path class="cls-5" d="m112.7,1830.89c0-6.22,3.32-11.05,10.38-11.05,6.6,0,10.25,4.83,10.25,11.05s-3.7,11.05-10.29,11.05c-7.27,0-10.33-4.83-10.33-11.05Zm17.56,0c0-5.33-2.9-8.49-7.23-8.49-4.75,0-7.27,3.15-7.27,8.49s2.56,8.49,7.27,8.49c4.33,0,7.23-3.15,7.23-8.49Z"></path><path class="cls-5" d="m137.31,1834.96v-1.18h2.94v1.13c0,2.86,2.14,4.5,5.96,4.5s5.8-1.01,5.8-3.78c0-2.06-1.01-2.81-3.86-3.32l-4.62-.84c-3.02-.55-5.54-2.02-5.54-5.5,0-3.15,2.35-6.13,8.4-6.13s8.4,3.02,8.4,7.22v.88h-2.98v-.76c0-3.44-2.14-4.91-5.42-4.91-3.95,0-5.33,1.34-5.33,3.36s1.01,2.86,3.91,3.4l4.03.76c4.12.76,6.09,1.93,6.09,5.59,0,4.58-4.12,6.55-8.78,6.55-7.31,0-8.99-3.28-8.99-6.97Z"></path><path class="cls-5" d="m159.07,1834.96v-1.18h2.94v1.13c0,2.86,2.14,4.5,5.96,4.5s5.8-1.01,5.8-3.78c0-2.06-1.01-2.81-3.86-3.32l-4.62-.84c-3.02-.55-5.54-2.02-5.54-5.5,0-3.15,2.35-6.13,8.4-6.13s8.4,3.02,8.4,7.22v.88h-2.98v-.76c0-3.44-2.14-4.91-5.42-4.91-3.95,0-5.33,1.34-5.33,3.36s1.01,2.86,3.91,3.4l4.03.76c4.12.76,6.09,1.93,6.09,5.59,0,4.58-4.12,6.55-8.78,6.55-7.31,0-8.99-3.28-8.99-6.97Z"></path><path class="cls-5" d="m185.53,1837.91h-.08l-.76,3.49h-1.97v-32.77h2.94v15.25h.04c1.26-2.31,4.08-4.03,7.69-4.03,6.3,0,9.66,3.99,9.66,11.01s-4.29,11.09-9.87,11.09c-3.78,0-6.55-1.64-7.65-4.03Zm14.37-6.89c0-7.18-3.4-8.61-6.93-8.61-4.24,0-7.56,2.73-7.56,8.44,0,6.01,3.44,8.57,7.44,8.57,3.02,0,7.06-1.47,7.06-8.4Z"></path><path class="cls-5" d="m207.45,1835.6c0-3.95,2.23-6.09,7.86-6.09h6.34v-1.72c0-2.98-1.26-5.42-5.46-5.42-3.95,0-5.33,1.51-5.33,4.12v.88h-2.98v-.84c0-5,4.2-6.68,8.32-6.68,5.8,0,8.4,2.86,8.4,8.44v13.11h-2.06l-.55-2.98h-.08c-1.26,1.89-3.7,3.53-7.35,3.53-4.92,0-7.1-2.31-7.1-6.34Zm14.2-1.85v-1.76h-7.02c-2.65,0-4.03.92-4.03,3.61,0,2.35,1.26,3.86,4.5,3.86,4.16,0,6.55-2.14,6.55-5.71Z"></path><path class="cls-5" d="m231.94,1820.39h2.6l.29,3.91c1.01-2.14,3.07-4.45,6.76-4.45,1.26,0,2.18.21,3.02.55v3.15c-1.13-.5-2.1-.76-3.4-.76-3.74,0-6.34,2.81-6.34,5.75v12.85h-2.94v-21Z"></path><path class="cls-5" d="m247.14,1834.96v-1.18h2.94v1.13c0,2.86,2.14,4.5,5.96,4.5s5.8-1.01,5.8-3.78c0-2.06-1.01-2.81-3.86-3.32l-4.62-.84c-3.02-.55-5.54-2.02-5.54-5.5,0-3.15,2.35-6.13,8.4-6.13s8.4,3.02,8.4,7.22v.88h-2.98v-.76c0-3.44-2.14-4.91-5.42-4.91-3.95,0-5.33,1.34-5.33,3.36s1.01,2.86,3.91,3.4l4.03.76c4.12.76,6.09,1.93,6.09,5.59,0,4.58-4.12,6.55-8.78,6.55-7.31,0-8.99-3.28-8.99-6.97Z"></path><path class="cls-5" d="m280.45,1808.63h2.98v6.51h-2.98v-6.51Zm0,11.76h2.94v21h-2.94v-21Z"></path><path class="cls-5" d="m290.78,1820.39h2.6l.29,3.49c1.01-2.14,3.28-4.03,7.35-4.03,4.75,0,7.77,2.52,7.77,7.94v13.61h-2.94v-13.27c0-4.33-2.14-5.71-5.5-5.71-3.82,0-6.64,2.69-6.64,5.63v13.36h-2.94v-21Z"></path><path class="cls-5" d="m327.49,1819.09h-3.36v-5.08c0-3.95.88-5.29,3.4-5.97l.67,1.85c-1.76.67-2.06,1.09-2.06,3.78v.34h1.34v5.08Zm5.92,0h-3.36v-5.08c0-3.95.88-5.29,3.4-5.97l.67,1.85c-1.76.67-2.06,1.09-2.06,3.78v.34h1.34v5.08Z"></path><path class="cls-5" d="m347.94,1811.23h-11.51v-2.6h25.96v2.6h-11.51v30.16h-2.94v-30.16Z"></path><path class="cls-5" d="m364.7,1817.83c1.76-.67,2.06-1.09,2.06-3.78v-.34h-1.34v-5.08h3.36v5.08c0,3.95-.88,5.29-3.4,5.97l-.67-1.85Zm5.92,0c1.76-.67,2.06-1.09,2.06-3.78v-.34h-1.34v-5.08h3.36v5.08c0,3.95-.88,5.29-3.4,5.97l-.67-1.85Z"></path><path class="cls-5" d="m388.98,1835.6c0-3.95,2.23-6.09,7.86-6.09h6.34v-1.72c0-2.98-1.26-5.42-5.46-5.42-3.95,0-5.33,1.51-5.33,4.12v.88h-2.98v-.84c0-5,4.2-6.68,8.32-6.68,5.8,0,8.4,2.86,8.4,8.44v13.11h-2.06l-.55-2.98h-.08c-1.26,1.89-3.7,3.53-7.35,3.53-4.92,0-7.1-2.31-7.1-6.34Zm14.2-1.85v-1.76h-7.01c-2.65,0-4.03.92-4.03,3.61,0,2.35,1.26,3.86,4.5,3.86,4.16,0,6.55-2.14,6.55-5.71Z"></path><path class="cls-5" d="m413.46,1820.39h2.6l.29,3.49c1.01-2.14,3.28-4.03,7.35-4.03,4.75,0,7.77,2.52,7.77,7.94v13.61h-2.94v-13.27c0-4.33-2.14-5.71-5.5-5.71-3.82,0-6.64,2.69-6.64,5.63v13.36h-2.94v-21Z"></path><path class="cls-5" d="m437.15,1830.93c0-7.1,4.28-11.09,10.04-11.09,3.7,0,6.22,1.6,7.31,3.74h.04v-14.95h2.94v32.77h-1.97l-.67-3.61h-.08c-1.18,2.31-3.95,4.16-7.77,4.16-6.3,0-9.83-3.99-9.83-11.01Zm17.64-.5c0-5.5-3.36-8.07-7.35-8.07-3.11,0-7.14,1.47-7.14,8.4s3.61,8.61,7.14,8.61c4.24,0,7.35-2.73,7.35-8.95Z"></path><path class="cls-5" d="m476.17,1819.09h-3.36v-5.08c0-3.95.88-5.29,3.4-5.97l.67,1.85c-1.76.67-2.06,1.09-2.06,3.78v.34h1.34v5.08Zm5.92,0h-3.36v-5.08c0-3.95.88-5.29,3.4-5.97l.67,1.85c-1.76.67-2.06,1.09-2.06,3.78v.34h1.34v5.08Z"></path><path class="cls-5" d="m487.22,1839.12l19.45-27.89h-18.86v-2.6h22.47v2.23l-19.41,27.94h19.7v2.6h-23.36v-2.27Z"></path><path class="cls-5" d="m514.98,1817.83c1.76-.67,2.06-1.09,2.06-3.78v-.34h-1.34v-5.08h3.36v5.08c0,3.95-.88,5.29-3.4,5.97l-.67-1.85Zm5.92,0c1.76-.67,2.06-1.09,2.06-3.78v-.34h-1.34v-5.08h3.36v5.08c0,3.95-.88,5.29-3.4,5.97l-.67-1.85Z"></path><path class="cls-5" d="m483.12,1897.9h-3.36v-5.08c0-3.95.88-5.29,3.4-5.97l.67,1.85c-1.76.67-2.06,1.09-2.06,3.78v.34h1.34v5.08Zm5.92,0h-3.36v-5.08c0-3.95.88-5.29,3.4-5.97l.67,1.85c-1.76.67-2.06,1.09-2.06,3.78v.34h1.34v5.08Z"></path><path class="cls-5" d="m496.05,1907.4v-19.95h2.94v19.95c0,9.41,4.08,10.63,8.86,10.63s8.78-1.01,8.78-10.63v-19.95h2.94v19.62c0,11.64-5.33,13.69-11.76,13.69s-11.76-2.06-11.76-13.36Z"></path><path class="cls-5" d="m525.87,1896.64c1.76-.67,2.06-1.09,2.06-3.78v-.34h-1.34v-5.08h3.36v5.08c0,3.95-.88,5.29-3.4,5.97l-.67-1.85Zm5.92,0c1.76-.67,2.06-1.09,2.06-3.78v-.34h-1.34v-5.08h3.36v5.08c0,3.95-.88,5.29-3.4,5.97l-.67-1.85Z"></path><path class="cls-5" d="m548.68,1899.25v-.04h2.98l5.75,17.47h.08l6.3-17.47h2.69l6.18,17.47h.08l5.75-17.47h2.86v.04l-7.18,20.96h-3.02l-5.96-17.06h-.08l-6.22,17.06h-3.02l-7.18-20.96Z"></path><path class="cls-5" d="m586.19,1887.45h2.98v6.51h-2.98v-6.51Zm0,11.76h2.94v21h-2.94v-21Z"></path><path class="cls-5" d="m607.48,1917.52v2.6c-.76.21-2.14.59-4.03.59-3.82,0-6.34-1.6-6.34-6.89v-12.18h-4.16v-2.44h4.16v-6.05l2.94-1.43v7.48h5.92v2.44h-5.92v11.8c0,2.81.76,4.58,3.4,4.58,1.6,0,3.23-.29,4.03-.5Z"></path><path class="cls-5" d="m612.31,1887.45h2.94v15.16c1.05-2.1,3.28-3.95,7.31-3.95,4.75,0,7.77,2.52,7.77,7.94v13.61h-2.94v-13.27c0-4.33-2.14-5.71-5.5-5.71-3.82,0-6.64,2.69-6.64,5.63v13.36h-2.94v-32.77Z"></path><path class="cls-5" d="m646.08,1914.41c0-3.95,2.23-6.09,7.86-6.09h6.34v-1.72c0-2.98-1.26-5.42-5.46-5.42-3.95,0-5.33,1.51-5.33,4.12v.88h-2.98v-.84c0-5,4.2-6.68,8.32-6.68,5.8,0,8.4,2.86,8.4,8.44v13.11h-2.06l-.55-2.98h-.08c-1.26,1.89-3.7,3.53-7.35,3.53-4.92,0-7.1-2.31-7.1-6.34Zm14.2-1.85v-1.76h-7.01c-2.65,0-4.03.92-4.03,3.61,0,2.35,1.26,3.86,4.5,3.86,4.16,0,6.55-2.14,6.55-5.71Z"></path><path class="cls-5" d="m680.22,1887.45h2.94v32.77h-2.94v-32.77Z"></path><path class="cls-5" d="m688.83,1909.71c0-6.22,3.32-11.05,10.38-11.05,6.59,0,10.25,4.83,10.25,11.05s-3.7,11.05-10.29,11.05c-7.27,0-10.33-4.83-10.33-11.05Zm17.56,0c0-5.33-2.9-8.49-7.22-8.49-4.75,0-7.27,3.15-7.27,8.49s2.56,8.49,7.27,8.49c4.33,0,7.22-3.15,7.22-8.49Z"></path><path class="cls-5" d="m713.66,1909.71c0-6.22,3.32-11.05,10.38-11.05,6.59,0,10.25,4.83,10.25,11.05s-3.7,11.05-10.29,11.05c-7.27,0-10.33-4.83-10.33-11.05Zm17.56,0c0-5.33-2.9-8.49-7.22-8.49-4.75,0-7.27,3.15-7.27,8.49s2.56,8.49,7.27,8.49c4.33,0,7.22-3.15,7.22-8.49Z"></path><path class="cls-5" d="m740.16,1899.21h2.39l.34,3.86h.08c1.13-2.48,4.03-4.41,7.86-4.41,6.3,0,9.66,3.99,9.66,11.01s-4.29,11.09-9.87,11.09c-3.78,0-6.38-1.6-7.43-3.7h-.08v11.55h-2.94v-29.41Zm17.18,10.63c0-7.18-3.4-8.61-6.93-8.61-4.24,0-7.56,2.73-7.56,8.44,0,6.01,3.45,8.57,7.44,8.57,3.02,0,7.06-1.47,7.06-8.4Z"></path><path class="cls-5" d="m946.23,1808.63h2.94v30.12h15.71v2.65h-18.65v-32.77Z"></path><path class="cls-5" d="m968.03,1830.89c0-6.22,3.32-11.05,10.38-11.05,6.59,0,10.25,4.83,10.25,11.05s-3.7,11.05-10.29,11.05c-7.27,0-10.33-4.83-10.33-11.05Zm17.56,0c0-5.33-2.9-8.49-7.23-8.49-4.75,0-7.27,3.15-7.27,8.49s2.56,8.49,7.27,8.49c4.33,0,7.23-3.15,7.23-8.49Z"></path><path class="cls-5" d="m992.85,1830.89c0-6.22,3.32-11.05,10.38-11.05,6.59,0,10.25,4.83,10.25,11.05s-3.7,11.05-10.29,11.05c-7.27,0-10.33-4.83-10.33-11.05Zm17.56,0c0-5.33-2.9-8.49-7.23-8.49-4.75,0-7.27,3.15-7.27,8.49s2.56,8.49,7.27,8.49c4.33,0,7.23-3.15,7.23-8.49Z"></path><path class="cls-5" d="m1019.35,1820.39h2.39l.34,3.87h.08c1.13-2.48,4.03-4.41,7.86-4.41,6.3,0,9.66,3.99,9.66,11.01s-4.29,11.09-9.87,11.09c-3.78,0-6.38-1.6-7.44-3.7h-.08v11.55h-2.94v-29.41Zm17.18,10.63c0-7.18-3.4-8.61-6.93-8.61-4.24,0-7.56,2.73-7.56,8.44,0,6.01,3.44,8.57,7.44,8.57,3.02,0,7.06-1.47,7.06-8.4Z"></path><path class="cls-5" d="m1062.83,1831.9h-15.96c.17,4.79,2.48,7.48,6.93,7.48,3.82,0,5.67-1.43,5.96-4.83h2.98c-.29,4.24-3.28,7.39-9.03,7.39-7.06,0-9.83-4.66-9.83-10.88s3.23-11.22,10-11.22,8.95,3.99,8.95,10.21v1.85Zm-3.11-2.98c0-4.45-1.72-6.55-5.92-6.55s-6.55,2.65-6.89,6.97h12.81v-.42Z"></path><path class="cls-5" d="m1067.02,1830.93c0-7.1,4.29-11.09,10.04-11.09,3.7,0,6.22,1.6,7.31,3.74h.04v-14.96h2.94v32.77h-1.97l-.67-3.61h-.08c-1.18,2.31-3.95,4.16-7.77,4.16-6.3,0-9.83-3.99-9.83-11.01Zm17.64-.5c0-5.5-3.36-8.07-7.35-8.07-3.11,0-7.14,1.47-7.14,8.4s3.61,8.61,7.14,8.61c4.24,0,7.35-2.73,7.35-8.95Z"></path><path class="cls-5" d="m1103.1,1835.6c0-3.95,2.23-6.09,7.86-6.09h6.34v-1.72c0-2.98-1.26-5.42-5.46-5.42-3.95,0-5.33,1.51-5.33,4.12v.88h-2.98v-.84c0-5,4.2-6.68,8.32-6.68,5.8,0,8.4,2.86,8.4,8.44v13.11h-2.06l-.55-2.98h-.08c-1.26,1.89-3.7,3.53-7.35,3.53-4.92,0-7.1-2.31-7.1-6.34Zm14.2-1.85v-1.76h-7.01c-2.65,0-4.03.92-4.03,3.61,0,2.35,1.26,3.86,4.5,3.86,4.16,0,6.55-2.14,6.55-5.71Z"></path><path class="cls-5" d="m1125.7,1834.97v-1.18h2.94v1.13c0,2.86,2.14,4.49,5.96,4.49s5.8-1.01,5.8-3.78c0-2.06-1.01-2.81-3.87-3.32l-4.62-.84c-3.02-.55-5.54-2.02-5.54-5.5,0-3.15,2.35-6.13,8.4-6.13s8.4,3.02,8.4,7.23v.88h-2.98v-.76c0-3.44-2.14-4.92-5.42-4.92-3.95,0-5.33,1.34-5.33,3.36s1.01,2.86,3.91,3.4l4.03.76c4.12.76,6.09,1.93,6.09,5.59,0,4.58-4.12,6.55-8.78,6.55-7.31,0-8.99-3.28-8.99-6.97Z"></path><path class="cls-5" d="m1147.66,1831.06c0-6.38,3.23-11.22,10-11.22s8.95,3.91,8.95,8.95v.42h-3.11v-.63c0-3.82-1.64-6.09-5.84-6.09-4.75,0-7.01,3.11-7.01,8.4,0,5.63,2.39,8.49,6.93,8.49,3.82,0,5.84-1.85,5.92-5.67h3.03c-.08,4.66-3.15,8.23-9.03,8.23-7.22,0-9.83-4.75-9.83-10.88Z"></path><path class="cls-5" d="m1189.75,1831.9h-15.96c.17,4.79,2.48,7.48,6.93,7.48,3.82,0,5.67-1.43,5.96-4.83h2.98c-.29,4.24-3.28,7.39-9.03,7.39-7.06,0-9.83-4.66-9.83-10.88s3.23-11.22,10-11.22,8.95,3.99,8.95,10.21v1.85Zm-3.11-2.98c0-4.45-1.72-6.55-5.92-6.55s-6.55,2.65-6.89,6.97h12.81v-.42Z"></path><path class="cls-5" d="m1195.63,1820.39h2.6l.29,3.49c1.01-2.14,3.28-4.03,7.35-4.03,4.75,0,7.77,2.52,7.77,7.94v13.61h-2.94v-13.27c0-4.33-2.14-5.71-5.5-5.71-3.82,0-6.64,2.69-6.64,5.63v13.36h-2.94v-21Z"></path><path class="cls-5" d="m1219.32,1830.93c0-7.1,4.29-11.09,10.04-11.09,3.7,0,6.22,1.6,7.31,3.74h.04v-14.96h2.94v32.77h-1.97l-.67-3.61h-.08c-1.18,2.31-3.95,4.16-7.77,4.16-6.3,0-9.83-3.99-9.83-11.01Zm17.64-.5c0-5.5-3.36-8.07-7.35-8.07-3.11,0-7.14,1.47-7.14,8.4s3.61,8.61,7.14,8.61c4.24,0,7.35-2.73,7.35-8.95Z"></path><path class="cls-5" d="m1264.26,1831.9h-15.96c.17,4.79,2.48,7.48,6.93,7.48,3.82,0,5.67-1.43,5.96-4.83h2.98c-.29,4.24-3.28,7.39-9.03,7.39-7.06,0-9.83-4.66-9.83-10.88s3.23-11.22,10-11.22,8.95,3.99,8.95,10.21v1.85Zm-3.11-2.98c0-4.45-1.72-6.55-5.92-6.55s-6.55,2.65-6.89,6.97h12.81v-.42Z"></path><path class="cls-5" d="m1270.14,1820.39h2.6l.29,3.91c1.01-2.14,3.07-4.45,6.76-4.45,1.26,0,2.18.21,3.02.55v3.15c-1.13-.5-2.1-.76-3.4-.76-3.74,0-6.34,2.81-6.34,5.75v12.85h-2.94v-21Z"></path><path class="cls-5" d="m1285.34,1834.97v-1.18h2.94v1.13c0,2.86,2.14,4.49,5.96,4.49s5.8-1.01,5.8-3.78c0-2.06-1.01-2.81-3.87-3.32l-4.62-.84c-3.02-.55-5.54-2.02-5.54-5.5,0-3.15,2.35-6.13,8.4-6.13s8.4,3.02,8.4,7.23v.88h-2.98v-.76c0-3.44-2.14-4.92-5.42-4.92-3.95,0-5.33,1.34-5.33,3.36s1.01,2.86,3.91,3.4l4.03.76c4.12.76,6.09,1.93,6.09,5.59,0,4.58-4.12,6.55-8.78,6.55-7.31,0-8.99-3.28-8.99-6.97Z"></path><path class="cls-5" d="m1317.39,1835.6c0-3.95,2.23-6.09,7.86-6.09h6.34v-1.72c0-2.98-1.26-5.42-5.46-5.42-3.95,0-5.33,1.51-5.33,4.12v.88h-2.98v-.84c0-5,4.2-6.68,8.32-6.68,5.8,0,8.4,2.86,8.4,8.44v13.11h-2.06l-.55-2.98h-.08c-1.26,1.89-3.7,3.53-7.35,3.53-4.92,0-7.1-2.31-7.1-6.34Zm14.2-1.85v-1.76h-7.01c-2.65,0-4.03.92-4.03,3.61,0,2.35,1.26,3.86,4.5,3.86,4.16,0,6.55-2.14,6.55-5.71Z"></path><path class="cls-5" d="m1341.87,1820.39h2.6l.29,3.49c1.01-2.14,3.28-4.03,7.35-4.03,4.75,0,7.77,2.52,7.77,7.94v13.61h-2.94v-13.27c0-4.33-2.14-5.71-5.5-5.71-3.82,0-6.64,2.69-6.64,5.63v13.36h-2.94v-21Z"></path><path class="cls-5" d="m1365.56,1830.93c0-7.1,4.28-11.09,10.04-11.09,3.7,0,6.22,1.6,7.31,3.74h.04v-14.96h2.94v32.77h-1.97l-.67-3.61h-.08c-1.18,2.31-3.95,4.16-7.77,4.16-6.3,0-9.83-3.99-9.83-11.01Zm17.64-.5c0-5.5-3.36-8.07-7.35-8.07-3.11,0-7.14,1.47-7.14,8.4s3.61,8.61,7.14,8.61c4.24,0,7.35-2.73,7.35-8.95Z"></path><path class="cls-5" d="m1401.22,1830.93c0-7.1,4.28-11.09,10.04-11.09,3.7,0,6.22,1.6,7.31,3.74h.04v-14.96h2.94v32.77h-1.97l-.67-3.61h-.08c-1.18,2.31-3.95,4.16-7.77,4.16-6.3,0-9.83-3.99-9.83-11.01Zm17.64-.5c0-5.5-3.36-8.07-7.35-8.07-3.11,0-7.14,1.47-7.14,8.4s3.61,8.61,7.14,8.61c4.24,0,7.35-2.73,7.35-8.95Z"></path><path class="cls-5" d="m1446.16,1831.9h-15.96c.17,4.79,2.48,7.48,6.93,7.48,3.82,0,5.67-1.43,5.97-4.83h2.98c-.29,4.24-3.28,7.39-9.03,7.39-7.06,0-9.83-4.66-9.83-10.88s3.23-11.22,10-11.22,8.95,3.99,8.95,10.21v1.85Zm-3.11-2.98c0-4.45-1.72-6.55-5.92-6.55s-6.55,2.65-6.89,6.97h12.81v-.42Z"></path><path class="cls-5" d="m1450.15,1834.97v-1.18h2.94v1.13c0,2.86,2.14,4.49,5.96,4.49s5.8-1.01,5.8-3.78c0-2.06-1.01-2.81-3.86-3.32l-4.62-.84c-3.02-.55-5.54-2.02-5.54-5.5,0-3.15,2.35-6.13,8.4-6.13s8.4,3.02,8.4,7.23v.88h-2.98v-.76c0-3.44-2.14-4.92-5.42-4.92-3.95,0-5.33,1.34-5.33,3.36s1.01,2.86,3.91,3.4l4.03.76c4.12.76,6.09,1.93,6.09,5.59,0,4.58-4.12,6.55-8.78,6.55-7.31,0-8.99-3.28-8.99-6.97Z"></path><path class="cls-5" d="m1472.11,1831.06c0-6.38,3.23-11.22,10-11.22s8.95,3.91,8.95,8.95v.42h-3.11v-.63c0-3.82-1.64-6.09-5.84-6.09-4.75,0-7.01,3.11-7.01,8.4,0,5.63,2.39,8.49,6.93,8.49,3.82,0,5.84-1.85,5.92-5.67h3.02c-.08,4.66-3.15,8.23-9.03,8.23-7.22,0-9.83-4.75-9.83-10.88Z"></path><path class="cls-5" d="m1514.2,1831.9h-15.96c.17,4.79,2.48,7.48,6.93,7.48,3.82,0,5.67-1.43,5.97-4.83h2.98c-.29,4.24-3.28,7.39-9.03,7.39-7.06,0-9.83-4.66-9.83-10.88s3.23-11.22,10-11.22,8.95,3.99,8.95,10.21v1.85Zm-3.11-2.98c0-4.45-1.72-6.55-5.92-6.55s-6.55,2.65-6.89,6.97h12.81v-.42Z"></path><path class="cls-5" d="m1520.08,1820.39h2.6l.29,3.49c1.01-2.14,3.28-4.03,7.35-4.03,4.75,0,7.77,2.52,7.77,7.94v13.61h-2.94v-13.27c0-4.33-2.14-5.71-5.5-5.71-3.82,0-6.64,2.69-6.64,5.63v13.36h-2.94v-21Z"></path><path class="cls-5" d="m1543.77,1830.93c0-7.1,4.28-11.09,10.04-11.09,3.7,0,6.22,1.6,7.31,3.74h.04v-14.96h2.94v32.77h-1.97l-.67-3.61h-.08c-1.18,2.31-3.95,4.16-7.77,4.16-6.3,0-9.83-3.99-9.83-11.01Zm17.64-.5c0-5.5-3.36-8.07-7.35-8.07-3.11,0-7.14,1.47-7.14,8.4s3.61,8.61,7.14,8.61c4.24,0,7.35-2.73,7.35-8.95Z"></path><path class="cls-5" d="m1588.71,1831.9h-15.96c.17,4.79,2.48,7.48,6.93,7.48,3.82,0,5.67-1.43,5.97-4.83h2.98c-.29,4.24-3.28,7.39-9.03,7.39-7.06,0-9.83-4.66-9.83-10.88s3.23-11.22,10-11.22,8.95,3.99,8.95,10.21v1.85Zm-3.11-2.98c0-4.45-1.72-6.55-5.92-6.55s-6.55,2.65-6.89,6.97h12.81v-.42Z"></path><path class="cls-5" d="m1594.59,1820.39h2.6l.29,3.91c1.01-2.14,3.07-4.45,6.76-4.45,1.26,0,2.18.21,3.02.55v3.15c-1.13-.5-2.1-.76-3.4-.76-3.74,0-6.34,2.81-6.34,5.75v12.85h-2.94v-21Z"></path><path class="cls-5" d="m1609.79,1834.97v-1.18h2.94v1.13c0,2.86,2.14,4.49,5.96,4.49s5.8-1.01,5.8-3.78c0-2.06-1.01-2.81-3.86-3.32l-4.62-.84c-3.02-.55-5.54-2.02-5.54-5.5,0-3.15,2.35-6.13,8.4-6.13s8.4,3.02,8.4,7.23v.88h-2.98v-.76c0-3.44-2.14-4.92-5.42-4.92-3.95,0-5.33,1.34-5.33,3.36s1.01,2.86,3.91,3.4l4.03.76c4.12.76,6.09,1.93,6.09,5.59,0,4.58-4.12,6.55-8.78,6.55-7.31,0-8.99-3.28-8.99-6.97Z"></path><path class="cls-5" d="m1340.03,2840.59c0-12.01,6.76-17.26,14.74-17.26,6.97,0,12.39,3.74,12.39,12.01v.8h-2.86v-.92c0-5.92-3.78-9.24-9.45-9.24-6.72,0-11.76,4.58-11.76,14.33s5.04,14.24,11.72,14.24c5.38,0,9.54-2.86,9.54-9.2v-.59h2.77v.42c0,8.02-5.33,12.01-12.56,12.01-7.98,0-14.53-4.87-14.53-16.59Z"></path><path class="cls-5" d="m1373.04,2849.24v-13.61h2.94v13.28c0,4.33,2.14,5.71,5.42,5.71,3.74,0,6.55-2.69,6.55-5.63v-13.36h2.94v21h-2.6l-.25-3.36h-.08c-.97,2.02-3.24,3.91-7.23,3.91-4.66,0-7.69-2.52-7.69-7.94Z"></path><path class="cls-5" d="m1398.24,2835.63h2.6l.29,3.91c1.01-2.14,3.07-4.45,6.76-4.45,1.26,0,2.18.21,3.02.54v3.15c-1.13-.5-2.1-.76-3.4-.76-3.74,0-6.34,2.81-6.34,5.76v12.85h-2.94v-21Z"></path><path class="cls-5" d="m1412.4,2835.68v-.04h3.36l7.35,17.98h.08l7.1-17.98h3.07v.04l-8.74,20.96h-3.03l-9.2-20.96Z"></path><path class="cls-5" d="m1454.19,2847.14h-15.96c.17,4.79,2.48,7.48,6.93,7.48,3.82,0,5.67-1.43,5.96-4.83h2.98c-.29,4.24-3.28,7.39-9.03,7.39-7.06,0-9.83-4.66-9.83-10.88s3.23-11.21,10-11.21,8.95,3.99,8.95,10.21v1.85Zm-3.11-2.98c0-4.45-1.72-6.55-5.92-6.55s-6.55,2.65-6.89,6.97h12.81v-.42Z"></path><path class="cls-5" d="m1458.39,2846.18c0-7.1,4.29-11.09,10.04-11.09,3.7,0,6.22,1.6,7.31,3.74h.04v-14.96h2.94v32.77h-1.97l-.67-3.61h-.08c-1.18,2.31-3.95,4.16-7.77,4.16-6.3,0-9.83-3.99-9.83-11.01Zm17.64-.5c0-5.5-3.36-8.07-7.35-8.07-3.11,0-7.14,1.47-7.14,8.4s3.61,8.61,7.14,8.61c4.24,0,7.35-2.73,7.35-8.95Z"></path><path class="cls-5" d="m1512.99,2847.14h-15.96c.17,4.79,2.48,7.48,6.93,7.48,3.82,0,5.67-1.43,5.96-4.83h2.98c-.29,4.24-3.28,7.39-9.03,7.39-7.06,0-9.83-4.66-9.83-10.88s3.23-11.21,10-11.21,8.95,3.99,8.95,10.21v1.85Zm-3.11-2.98c0-4.45-1.72-6.55-5.92-6.55s-6.55,2.65-6.89,6.97h12.81v-.42Z"></path><path class="cls-5" d="m1518.87,2835.63h2.6l.29,3.49c1.01-2.14,3.28-4.03,7.35-4.03,4.75,0,7.77,2.52,7.77,7.94v13.61h-2.94v-13.27c0-4.33-2.14-5.71-5.5-5.71-3.82,0-6.64,2.69-6.64,5.63v13.36h-2.94v-21Z"></path><path class="cls-5" d="m1555.2,2853.95v2.6c-.76.21-2.14.59-4.03.59-3.82,0-6.34-1.6-6.34-6.89v-12.18h-4.16v-2.44h4.16v-6.05l2.94-1.43v7.48h5.92v2.44h-5.92v11.8c0,2.81.76,4.58,3.4,4.58,1.6,0,3.23-.29,4.03-.5Z"></path><path class="cls-5" d="m1560.03,2835.63h2.6l.29,3.91c1.01-2.14,3.07-4.45,6.76-4.45,1.26,0,2.18.21,3.02.54v3.15c-1.13-.5-2.1-.76-3.4-.76-3.74,0-6.34,2.81-6.34,5.76v12.85h-2.94v-21Z"></path><path class="cls-5" d="m1577.54,2835.63l6.89,17.98h.08l7.14-17.98h3.07v.04l-8.86,20.84-3.11,8.53h-2.98v-.04l3.19-8.36-8.78-20.96v-.04h3.36Z"></path><path class="cls-5" d="m1606.69,2850.21v-1.18h2.94v1.13c0,2.86,2.14,4.5,5.96,4.5s5.8-1.01,5.8-3.78c0-2.06-1.01-2.81-3.86-3.32l-4.62-.84c-3.02-.55-5.54-2.02-5.54-5.5,0-3.15,2.35-6.13,8.4-6.13s8.4,3.02,8.4,7.22v.88h-2.98v-.76c0-3.44-2.14-4.92-5.42-4.92-3.95,0-5.33,1.34-5.33,3.36s1.01,2.86,3.91,3.4l4.03.76c4.12.76,6.09,1.93,6.09,5.59,0,4.58-4.12,6.55-8.78,6.55-7.31,0-8.99-3.28-8.99-6.97Z"></path><path class="cls-5" d="m1641.3,2853.95v2.6c-.76.21-2.14.59-4.03.59-3.82,0-6.34-1.6-6.34-6.89v-12.18h-4.16v-2.44h4.16v-6.05l2.94-1.43v7.48h5.92v2.44h-5.92v11.8c0,2.81.76,4.58,3.4,4.58,1.6,0,3.23-.29,4.03-.5Z"></path><path class="cls-5" d="m1646.13,2835.63h2.6l.29,3.91c1.01-2.14,3.07-4.45,6.76-4.45,1.26,0,2.18.21,3.02.54v3.15c-1.13-.5-2.1-.76-3.4-.76-3.74,0-6.34,2.81-6.34,5.76v12.85h-2.94v-21Z"></path><path class="cls-5" d="m1661.12,2846.13c0-6.22,3.32-11.05,10.38-11.05,6.59,0,10.25,4.83,10.25,11.05s-3.7,11.05-10.29,11.05c-7.27,0-10.33-4.83-10.33-11.05Zm17.56,0c0-5.33-2.9-8.48-7.22-8.48-4.75,0-7.27,3.15-7.27,8.48s2.56,8.49,7.27,8.49c4.33,0,7.22-3.15,7.22-8.49Z"></path><path class="cls-5" d="m1686.99,2823.87h2.94v23.23l12.14-11.47h3.65v.04l-8.4,7.86,8.78,13.06v.04h-3.36l-7.39-11.21-5.42,5.04v6.17h-2.94v-32.77Z"></path><path class="cls-5" d="m1727.36,2847.14h-15.96c.17,4.79,2.48,7.48,6.93,7.48,3.82,0,5.67-1.43,5.97-4.83h2.98c-.29,4.24-3.28,7.39-9.03,7.39-7.06,0-9.83-4.66-9.83-10.88s3.23-11.21,10-11.21,8.95,3.99,8.95,10.21v1.85Zm-3.11-2.98c0-4.45-1.72-6.55-5.92-6.55s-6.55,2.65-6.89,6.97h12.81v-.42Z"></path><path class="cls-5" d="m1731.34,2850.21v-1.18h2.94v1.13c0,2.86,2.14,4.5,5.96,4.5s5.8-1.01,5.8-3.78c0-2.06-1.01-2.81-3.86-3.32l-4.62-.84c-3.02-.55-5.54-2.02-5.54-5.5,0-3.15,2.35-6.13,8.4-6.13s8.4,3.02,8.4,7.22v.88h-2.98v-.76c0-3.44-2.14-4.92-5.42-4.92-3.95,0-5.33,1.34-5.33,3.36s1.01,2.86,3.91,3.4l4.03.76c4.12.76,6.09,1.93,6.09,5.59,0,4.58-4.12,6.55-8.78,6.55-7.31,0-8.99-3.28-8.99-6.97Z"></path><path class="cls-5" d="m1267.64,913.75v-2.02h3.02v2.18c0,3.74,2.6,6.05,7.94,6.05s8.44-1.97,8.44-6.22c0-3.32-1.39-5.17-4.92-6.09l-6.64-1.72c-4.33-1.13-7.18-2.98-7.18-8.15s3.78-8.91,10.92-8.91,10.59,3.44,10.59,9.07v2.94h-3.02v-2.81c0-4.62-3.07-6.51-7.56-6.51-5.12,0-7.81,2.14-7.81,6.01,0,3.61,1.76,4.7,5.54,5.71l5.75,1.55c5.12,1.39,7.44,3.74,7.44,8.65,0,6.09-4.33,9.24-11.47,9.24-9.12,0-11.05-4.7-11.05-8.99Z"></path><path class="cls-5" d="m1297.33,889.43h2.94v15.16c1.05-2.1,3.28-3.95,7.31-3.95,4.75,0,7.77,2.52,7.77,7.94v13.61h-2.94v-13.27c0-4.33-2.14-5.71-5.5-5.71-3.82,0-6.64,2.69-6.64,5.63v13.36h-2.94v-32.77Z"></path><path class="cls-5" d="m1321.02,911.69c0-6.22,3.32-11.05,10.38-11.05,6.6,0,10.25,4.83,10.25,11.05s-3.7,11.05-10.29,11.05c-7.27,0-10.33-4.83-10.33-11.05Zm17.56,0c0-5.33-2.9-8.49-7.23-8.49-4.75,0-7.27,3.15-7.27,8.49s2.56,8.49,7.27,8.49c4.33,0,7.23-3.15,7.23-8.49Z"></path><path class="cls-5" d="m1347.52,901.19h2.6l.29,3.91c1.01-2.14,3.07-4.45,6.76-4.45,1.26,0,2.18.21,3.02.55v3.15c-1.13-.5-2.1-.76-3.4-.76-3.74,0-6.34,2.81-6.34,5.75v12.85h-2.94v-21Z"></path><path class="cls-5" d="m1375.79,919.51v2.6c-.76.21-2.14.59-4.03.59-3.82,0-6.34-1.6-6.34-6.89v-12.18h-4.16v-2.44h4.16v-6.05l2.94-1.43v7.48h5.92v2.44h-5.92v11.8c0,2.81.76,4.58,3.4,4.58,1.6,0,3.23-.29,4.03-.5Z"></path><path class="cls-5" d="m1389.02,916.4c0-3.95,2.23-6.09,7.86-6.09h6.34v-1.72c0-2.98-1.26-5.42-5.46-5.42-3.95,0-5.33,1.51-5.33,4.12v.88h-2.98v-.84c0-5,4.2-6.68,8.32-6.68,5.8,0,8.4,2.86,8.4,8.44v13.11h-2.06l-.55-2.98h-.08c-1.26,1.89-3.7,3.53-7.35,3.53-4.91,0-7.1-2.31-7.1-6.34Zm14.2-1.85v-1.76h-7.02c-2.65,0-4.03.92-4.03,3.61,0,2.35,1.26,3.86,4.5,3.86,4.16,0,6.55-2.14,6.55-5.71Z"></path><path class="cls-5" d="m1411.61,915.77v-1.18h2.94v1.13c0,2.86,2.14,4.5,5.96,4.5s5.8-1.01,5.8-3.78c0-2.06-1.01-2.81-3.86-3.32l-4.62-.84c-3.02-.55-5.54-2.02-5.54-5.5,0-3.15,2.35-6.13,8.4-6.13s8.4,3.02,8.4,7.23v.88h-2.98v-.76c0-3.44-2.14-4.91-5.42-4.91-3.95,0-5.33,1.34-5.33,3.36s1.01,2.86,3.91,3.4l4.03.76c4.12.76,6.09,1.93,6.09,5.59,0,4.58-4.12,6.55-8.78,6.55-7.31,0-8.99-3.28-8.99-6.97Z"></path><path class="cls-5" d="m1433.58,911.86c0-6.38,3.23-11.22,10-11.22s8.95,3.91,8.95,8.95v.42h-3.11v-.63c0-3.82-1.64-6.09-5.84-6.09-4.75,0-7.02,3.11-7.02,8.4,0,5.63,2.39,8.49,6.93,8.49,3.82,0,5.84-1.85,5.92-5.67h3.02c-.08,4.66-3.15,8.23-9.03,8.23-7.23,0-9.83-4.75-9.83-10.88Z"></path><path class="cls-5" d="m1475.66,912.7h-15.96c.17,4.79,2.48,7.48,6.93,7.48,3.82,0,5.67-1.43,5.96-4.83h2.98c-.29,4.24-3.28,7.39-9.03,7.39-7.06,0-9.83-4.66-9.83-10.88s3.23-11.22,10-11.22,8.95,3.99,8.95,10.21v1.85Zm-3.11-2.98c0-4.45-1.72-6.55-5.92-6.55s-6.55,2.65-6.89,6.97h12.81v-.42Z"></path><path class="cls-5" d="m1481.54,901.19h2.6l.29,3.49c1.01-2.14,3.28-4.03,7.35-4.03,4.75,0,7.77,2.52,7.77,7.94v13.61h-2.94v-13.27c0-4.33-2.14-5.71-5.5-5.71-3.82,0-6.64,2.69-6.64,5.63v13.36h-2.94v-21Z"></path><path class="cls-5" d="m1505.23,911.73c0-7.1,4.28-11.09,10.04-11.09,3.7,0,6.22,1.6,7.31,3.74h.04v-14.95h2.94v32.77h-1.97l-.67-3.61h-.08c-1.18,2.31-3.95,4.16-7.77,4.16-6.3,0-9.83-3.99-9.83-11.01Zm17.64-.5c0-5.5-3.36-8.07-7.35-8.07-3.11,0-7.14,1.47-7.14,8.4s3.61,8.61,7.14,8.61c4.24,0,7.35-2.73,7.35-8.95Z"></path><path class="cls-5" d="m1550.17,912.7h-15.96c.17,4.79,2.48,7.48,6.93,7.48,3.82,0,5.67-1.43,5.97-4.83h2.98c-.29,4.24-3.28,7.39-9.03,7.39-7.06,0-9.83-4.66-9.83-10.88s3.23-11.22,10-11.22,8.95,3.99,8.95,10.21v1.85Zm-3.11-2.98c0-4.45-1.72-6.55-5.92-6.55s-6.55,2.65-6.89,6.97h12.81v-.42Z"></path><path class="cls-5" d="m1556.05,901.19h2.6l.29,3.91c1.01-2.14,3.07-4.45,6.76-4.45,1.26,0,2.18.21,3.02.55v3.15c-1.13-.5-2.1-.76-3.4-.76-3.74,0-6.34,2.81-6.34,5.75v12.85h-2.94v-21Z"></path><path class="cls-5" d="m1583.01,889.43h2.98v6.51h-2.98v-6.51Zm0,11.76h2.94v21h-2.94v-21Z"></path><path class="cls-5" d="m1593.35,901.19h2.6l.29,3.49c1.01-2.14,3.28-4.03,7.35-4.03,4.75,0,7.77,2.52,7.77,7.94v13.61h-2.94v-13.27c0-4.33-2.14-5.71-5.5-5.71-3.82,0-6.64,2.69-6.64,5.63v13.36h-2.94v-21Z"></path><path class="cls-5" d="m1630.05,899.89h-3.36v-5.08c0-3.95.88-5.29,3.4-5.97l.67,1.85c-1.76.67-2.06,1.09-2.06,3.78v.34h1.34v5.08Zm5.92,0h-3.36v-5.08c0-3.95.88-5.29,3.4-5.97l.67,1.85c-1.76.67-2.06,1.09-2.06,3.78v.34h1.34v5.08Z"></path><path class="cls-5" d="m1639,911.73c0-7.1,4.28-11.09,10.04-11.09,3.7,0,6.22,1.6,7.31,3.74h.04v-14.95h2.94v32.77h-1.97l-.67-3.61h-.08c-1.18,2.31-3.95,4.16-7.77,4.16-6.3,0-9.83-3.99-9.83-11.01Zm17.64-.5c0-5.5-3.36-8.07-7.35-8.07-3.11,0-7.14,1.47-7.14,8.4s3.61,8.61,7.14,8.61c4.24,0,7.35-2.73,7.35-8.95Z"></path><path class="cls-5" d="m1664.79,898.63c1.76-.67,2.06-1.09,2.06-3.78v-.34h-1.34v-5.08h3.36v5.08c0,3.95-.88,5.29-3.4,5.97l-.67-1.85Zm5.92,0c1.76-.67,2.06-1.09,2.06-3.78v-.34h-1.34v-5.08h3.36v5.08c0,3.95-.88,5.29-3.4,5.97l-.67-1.85Z"></path><path class="cls-5" d="m1070.97,1003.12c0-12.01,6.76-17.27,14.74-17.27,6.97,0,12.39,3.74,12.39,12.01v.8h-2.86v-.92c0-5.92-3.78-9.24-9.45-9.24-6.72,0-11.76,4.58-11.76,14.32s5.04,14.24,11.72,14.24c5.38,0,9.54-2.86,9.54-9.2v-.59h2.77v.42c0,8.02-5.33,12.01-12.56,12.01-7.98,0-14.53-4.87-14.53-16.59Z"></path><path class="cls-5" d="m1103.98,1011.78v-13.61h2.94v13.27c0,4.33,2.14,5.71,5.42,5.71,3.74,0,6.55-2.69,6.55-5.63v-13.36h2.94v21h-2.6l-.25-3.36h-.08c-.97,2.02-3.23,3.91-7.23,3.91-4.66,0-7.69-2.52-7.69-7.94Z"></path><path class="cls-5" d="m1129.18,998.17h2.6l.29,3.91c1.01-2.14,3.07-4.45,6.76-4.45,1.26,0,2.18.21,3.02.55v3.15c-1.13-.5-2.1-.76-3.4-.76-3.74,0-6.34,2.81-6.34,5.75v12.85h-2.94v-21Z"></path><path class="cls-5" d="m1143.34,998.21v-.04h3.36l7.35,17.98h.08l7.1-17.98h3.07v.04l-8.74,20.96h-3.02l-9.2-20.96Z"></path><path class="cls-5" d="m1185.13,1009.68h-15.96c.17,4.79,2.48,7.48,6.93,7.48,3.82,0,5.67-1.43,5.96-4.83h2.98c-.29,4.24-3.28,7.39-9.03,7.39-7.06,0-9.83-4.66-9.83-10.88s3.23-11.22,10-11.22,8.95,3.99,8.95,10.21v1.85Zm-3.11-2.98c0-4.45-1.72-6.55-5.92-6.55s-6.55,2.65-6.89,6.97h12.81v-.42Z"></path><path class="cls-5" d="m1189.33,1008.71c0-7.1,4.28-11.09,10.04-11.09,3.7,0,6.22,1.6,7.31,3.74h.04v-14.95h2.94v32.77h-1.97l-.67-3.61h-.08c-1.18,2.31-3.95,4.16-7.77,4.16-6.3,0-9.83-3.99-9.83-11.01Zm17.64-.5c0-5.5-3.36-8.07-7.35-8.07-3.11,0-7.14,1.47-7.14,8.4s3.61,8.61,7.14,8.61c4.24,0,7.35-2.73,7.35-8.95Z"></path><path class="cls-5" d="m1226.67,986.41h2.94v15.16c1.05-2.1,3.28-3.95,7.31-3.95,4.75,0,7.77,2.52,7.77,7.94v13.61h-2.94v-13.27c0-4.33-2.14-5.71-5.5-5.71-3.82,0-6.64,2.69-6.64,5.63v13.36h-2.94v-32.77Z"></path><path class="cls-5" d="m1250.35,1008.67c0-6.22,3.32-11.05,10.38-11.05,6.6,0,10.25,4.83,10.25,11.05s-3.7,11.05-10.29,11.05c-7.27,0-10.33-4.83-10.33-11.05Zm17.56,0c0-5.33-2.9-8.49-7.23-8.49-4.75,0-7.27,3.15-7.27,8.49s2.56,8.49,7.27,8.49c4.33,0,7.23-3.15,7.23-8.49Z"></path><path class="cls-5" d="m1276.85,998.17h2.6l.29,3.91c1.01-2.14,3.07-4.45,6.76-4.45,1.26,0,2.18.21,3.02.55v3.15c-1.13-.5-2.1-.76-3.4-.76-3.74,0-6.34,2.81-6.34,5.75v12.85h-2.94v-21Z"></path><path class="cls-5" d="m1294.16,986.41h2.98v6.51h-2.98v-6.51Zm0,11.76h2.94v21h-2.94v-21Z"></path><path class="cls-5" d="m1302.18,1016.61l14.7-15.88h-14.58v-2.56h18.23v2.56l-14.7,15.84h14.66v2.6h-18.32v-2.56Z"></path><path class="cls-5" d="m1323.47,1008.67c0-6.22,3.32-11.05,10.38-11.05,6.6,0,10.25,4.83,10.25,11.05s-3.7,11.05-10.29,11.05c-7.27,0-10.33-4.83-10.33-11.05Zm17.56,0c0-5.33-2.9-8.49-7.23-8.49-4.75,0-7.27,3.15-7.27,8.49s2.56,8.49,7.27,8.49c4.33,0,7.23-3.15,7.23-8.49Z"></path><path class="cls-5" d="m1349.98,998.17h2.6l.29,3.49c1.01-2.14,3.28-4.03,7.35-4.03,4.75,0,7.77,2.52,7.77,7.94v13.61h-2.94v-13.27c0-4.33-2.14-5.71-5.5-5.71-3.82,0-6.64,2.69-6.64,5.63v13.36h-2.94v-21Z"></path><path class="cls-5" d="m1386.31,1016.48v2.6c-.76.21-2.14.59-4.03.59-3.82,0-6.34-1.6-6.34-6.89v-12.18h-4.16v-2.44h4.16v-6.05l2.94-1.43v7.48h5.92v2.44h-5.92v11.8c0,2.81.76,4.58,3.4,4.58,1.6,0,3.23-.29,4.03-.5Z"></path><path class="cls-5" d="m1389.88,1013.37c0-3.95,2.23-6.09,7.86-6.09h6.34v-1.72c0-2.98-1.26-5.42-5.46-5.42-3.95,0-5.33,1.51-5.33,4.12v.88h-2.98v-.84c0-5,4.2-6.68,8.32-6.68,5.8,0,8.4,2.86,8.4,8.44v13.11h-2.06l-.55-2.98h-.08c-1.26,1.89-3.7,3.53-7.35,3.53-4.92,0-7.1-2.31-7.1-6.34Zm14.2-1.85v-1.76h-7.01c-2.65,0-4.03.92-4.03,3.61,0,2.35,1.26,3.86,4.5,3.86,4.16,0,6.55-2.14,6.55-5.71Z"></path><path class="cls-5" d="m1414.36,986.41h2.94v32.77h-2.94v-32.77Z"></path><path class="cls-5" d="m1432.42,1012.74v-1.18h2.94v1.13c0,2.86,2.14,4.5,5.96,4.5s5.8-1.01,5.8-3.78c0-2.06-1.01-2.81-3.86-3.32l-4.62-.84c-3.02-.55-5.54-2.02-5.54-5.5,0-3.15,2.35-6.13,8.4-6.13s8.4,3.02,8.4,7.23v.88h-2.98v-.76c0-3.44-2.14-4.91-5.42-4.91-3.95,0-5.33,1.34-5.33,3.36s1.01,2.86,3.91,3.4l4.03.76c4.12.76,6.09,1.93,6.09,5.59,0,4.58-4.12,6.55-8.78,6.55-7.31,0-8.99-3.28-8.99-6.97Z"></path><path class="cls-5" d="m1467.03,1016.48v2.6c-.76.21-2.14.59-4.03.59-3.82,0-6.34-1.6-6.34-6.89v-12.18h-4.16v-2.44h4.16v-6.05l2.94-1.43v7.48h5.92v2.44h-5.92v11.8c0,2.81.76,4.58,3.4,4.58,1.6,0,3.23-.29,4.03-.5Z"></path><path class="cls-5" d="m1471.86,998.17h2.6l.29,3.91c1.01-2.14,3.07-4.45,6.76-4.45,1.26,0,2.18.21,3.02.55v3.15c-1.13-.5-2.1-.76-3.4-.76-3.74,0-6.34,2.81-6.34,5.75v12.85h-2.94v-21Z"></path><path class="cls-5" d="m1486.85,1008.67c0-6.22,3.32-11.05,10.38-11.05,6.59,0,10.25,4.83,10.25,11.05s-3.7,11.05-10.29,11.05c-7.27,0-10.33-4.83-10.33-11.05Zm17.56,0c0-5.33-2.9-8.49-7.22-8.49-4.75,0-7.27,3.15-7.27,8.49s2.56,8.49,7.27,8.49c4.33,0,7.22-3.15,7.22-8.49Z"></path><path class="cls-5" d="m1512.73,986.41h2.94v23.23l12.14-11.47h3.65v.04l-8.4,7.86,8.78,13.06v.04h-3.36l-7.39-11.22-5.42,5.04v6.18h-2.94v-32.77Z"></path><path class="cls-5" d="m1553.09,1009.68h-15.96c.17,4.79,2.48,7.48,6.93,7.48,3.82,0,5.67-1.43,5.97-4.83h2.98c-.29,4.24-3.28,7.39-9.03,7.39-7.06,0-9.83-4.66-9.83-10.88s3.23-11.22,10-11.22,8.95,3.99,8.95,10.21v1.85Zm-3.11-2.98c0-4.45-1.72-6.55-5.92-6.55s-6.55,2.65-6.89,6.97h12.81v-.42Z"></path><path class="cls-5" d="m1557.08,1012.74v-1.18h2.94v1.13c0,2.86,2.14,4.5,5.96,4.5s5.8-1.01,5.8-3.78c0-2.06-1.01-2.81-3.86-3.32l-4.62-.84c-3.02-.55-5.54-2.02-5.54-5.5,0-3.15,2.35-6.13,8.4-6.13s8.4,3.02,8.4,7.23v.88h-2.98v-.76c0-3.44-2.14-4.91-5.42-4.91-3.95,0-5.33,1.34-5.33,3.36s1.01,2.86,3.91,3.4l4.03.76c4.12.76,6.09,1.93,6.09,5.59,0,4.58-4.12,6.55-8.78,6.55-7.31,0-8.99-3.28-8.99-6.97Z"></path><path class="cls-5" d="m1590.38,986.41h2.98v6.51h-2.98v-6.51Zm0,11.76h2.94v21h-2.94v-21Z"></path><path class="cls-5" d="m1600.72,998.17h2.6l.29,3.49c1.01-2.14,3.28-4.03,7.35-4.03,4.75,0,7.77,2.52,7.77,7.94v13.61h-2.94v-13.27c0-4.33-2.14-5.71-5.5-5.71-3.82,0-6.64,2.69-6.64,5.63v13.36h-2.94v-21Z"></path><path class="cls-5" d="m1637.43,996.86h-3.36v-5.08c0-3.95.88-5.29,3.4-5.97l.67,1.85c-1.76.67-2.06,1.09-2.06,3.78v.34h1.34v5.08Zm5.92,0h-3.36v-5.08c0-3.95.88-5.29,3.4-5.97l.67,1.85c-1.76.67-2.06,1.09-2.06,3.78v.34h1.34v5.08Z"></path><path class="cls-5" d="m1647.42,1016.61l14.7-15.88h-14.58v-2.56h18.23v2.56l-14.7,15.84h14.66v2.6h-18.31v-2.56Z"></path><path class="cls-5" d="m1669.14,995.6c1.76-.67,2.06-1.09,2.06-3.78v-.34h-1.34v-5.08h3.36v5.08c0,3.95-.88,5.29-3.4,5.97l-.67-1.85Zm5.92,0c1.76-.67,2.06-1.09,2.06-3.78v-.34h-1.34v-5.08h3.36v5.08c0,3.95-.88,5.29-3.4,5.97l-.67-1.85Z"></path><path class="cls-5" d="m1374.09,2743c0-11.72,6.76-16.93,15.46-16.93,7.94,0,14.7,5.21,14.7,16.59,0,12.48-6.76,17.26-15.08,17.26s-15.08-4.79-15.08-16.93Zm27.05,0c0-10.12-5.33-14.24-12.01-14.24s-11.93,4.12-11.93,14.24,5.33,14.2,12.01,14.2,11.93-3.74,11.93-14.2Z"></path><path class="cls-5" d="m1410.55,2738.38h2.6l.29,3.49c1.01-2.14,3.28-4.03,7.35-4.03,4.75,0,7.77,2.52,7.77,7.94v13.61h-2.94v-13.27c0-4.33-2.14-5.71-5.5-5.71-3.82,0-6.64,2.69-6.64,5.63v13.36h-2.94v-21Z"></path><path class="cls-5" d="m1453.18,2749.89h-15.96c.17,4.79,2.48,7.48,6.93,7.48,3.82,0,5.67-1.43,5.96-4.83h2.98c-.29,4.24-3.28,7.39-9.03,7.39-7.06,0-9.83-4.66-9.83-10.88s3.23-11.22,10-11.22,8.95,3.99,8.95,10.21v1.85Zm-3.11-2.98c0-4.45-1.72-6.55-5.92-6.55s-6.55,2.65-6.89,6.97h12.81v-.42Z"></path><path class="cls-5" d="m1457.38,2745.9h10.59v2.81h-10.59v-2.81Z"></path><path class="cls-5" d="m1471.95,2752.95v-1.18h2.94v1.13c0,2.86,2.14,4.5,5.96,4.5s5.8-1.01,5.8-3.78c0-2.06-1.01-2.81-3.86-3.32l-4.62-.84c-3.02-.55-5.54-2.02-5.54-5.5,0-3.15,2.35-6.13,8.4-6.13s8.4,3.02,8.4,7.23v.88h-2.98v-.76c0-3.44-2.14-4.92-5.42-4.92-3.95,0-5.33,1.34-5.33,3.36s1.01,2.86,3.91,3.4l4.03.76c4.12.76,6.09,1.93,6.09,5.59,0,4.58-4.12,6.55-8.78,6.55-7.31,0-8.99-3.28-8.99-6.97Z"></path><path class="cls-5" d="m1495.6,2726.62h2.98v6.51h-2.98v-6.51Zm0,11.76h2.94v21h-2.94v-21Z"></path><path class="cls-5" d="m1504.25,2748.92c0-7.1,4.28-11.09,10.04-11.09,3.7,0,6.22,1.6,7.31,3.74h.04v-14.96h2.94v32.77h-1.97l-.67-3.61h-.08c-1.18,2.31-3.95,4.16-7.77,4.16-6.3,0-9.83-3.99-9.83-11.01Zm17.64-.5c0-5.5-3.36-8.07-7.35-8.07-3.11,0-7.14,1.47-7.14,8.4s3.61,8.61,7.14,8.61c4.24,0,7.35-2.73,7.35-8.95Z"></path><path class="cls-5" d="m1549.19,2749.89h-15.96c.17,4.79,2.48,7.48,6.93,7.48,3.82,0,5.67-1.43,5.96-4.83h2.98c-.29,4.24-3.28,7.39-9.03,7.39-7.06,0-9.83-4.66-9.83-10.88s3.23-11.22,10-11.22,8.95,3.99,8.95,10.21v1.85Zm-3.11-2.98c0-4.45-1.72-6.55-5.92-6.55s-6.55,2.65-6.89,6.97h12.81v-.42Z"></path><path class="cls-5" d="m1553.39,2748.92c0-7.1,4.28-11.09,10.04-11.09,3.7,0,6.22,1.6,7.31,3.74h.04v-14.96h2.94v32.77h-1.97l-.67-3.61h-.08c-1.18,2.31-3.95,4.16-7.77,4.16-6.3,0-9.83-3.99-9.83-11.01Zm17.64-.5c0-5.5-3.36-8.07-7.35-8.07-3.11,0-7.14,1.47-7.14,8.4s3.61,8.61,7.14,8.61c4.24,0,7.35-2.73,7.35-8.95Z"></path><path class="cls-5" d="m1593.54,2755.89h-.08l-.76,3.49h-1.97v-32.77h2.94v15.25h.04c1.26-2.31,4.07-4.03,7.69-4.03,6.3,0,9.66,3.99,9.66,11.01s-4.29,11.09-9.87,11.09c-3.78,0-6.55-1.64-7.65-4.03Zm14.37-6.89c0-7.18-3.4-8.61-6.93-8.61-4.24,0-7.56,2.73-7.56,8.44,0,6.01,3.45,8.57,7.44,8.57,3.02,0,7.06-1.47,7.06-8.4Z"></path><path class="cls-5" d="m1615.46,2753.58c0-3.95,2.23-6.09,7.86-6.09h6.34v-1.72c0-2.98-1.26-5.42-5.46-5.42-3.95,0-5.33,1.51-5.33,4.12v.88h-2.98v-.84c0-5,4.2-6.68,8.32-6.68,5.8,0,8.4,2.86,8.4,8.44v13.11h-2.06l-.55-2.98h-.08c-1.26,1.89-3.7,3.53-7.35,3.53-4.92,0-7.1-2.31-7.1-6.34Zm14.2-1.85v-1.76h-7.01c-2.65,0-4.03.92-4.03,3.61,0,2.35,1.26,3.87,4.5,3.87,4.16,0,6.55-2.14,6.55-5.71Z"></path><path class="cls-5" d="m1639.95,2738.38h2.6l.29,3.91c1.01-2.14,3.07-4.45,6.76-4.45,1.26,0,2.18.21,3.02.55v3.15c-1.13-.5-2.1-.76-3.4-.76-3.74,0-6.34,2.81-6.34,5.75v12.85h-2.94v-21Z"></path><path class="cls-5" d="m1666.92,2726.62h2.98v6.51h-2.98v-6.51Zm0,11.76h2.94v21h-2.94v-21Z"></path><path class="cls-5" d="m1677.25,2738.38h2.6l.29,3.49c1.01-2.14,3.28-4.03,7.35-4.03,4.75,0,7.77,2.52,7.77,7.94v13.61h-2.94v-13.27c0-4.33-2.14-5.71-5.5-5.71-3.82,0-6.64,2.69-6.64,5.63v13.36h-2.94v-21Z"></path><path class="cls-5" d="m1713.96,2737.08h-3.36v-5.08c0-3.95.88-5.29,3.4-5.96l.67,1.85c-1.76.67-2.06,1.09-2.06,3.78v.34h1.34v5.08Zm5.92,0h-3.36v-5.08c0-3.95.88-5.29,3.4-5.96l.67,1.85c-1.76.67-2.06,1.09-2.06,3.78v.34h1.34v5.08Z"></path><path class="cls-5" d="m1737.22,2756.69v2.6c-.76.21-2.14.59-4.03.59-3.82,0-6.34-1.6-6.34-6.89v-12.18h-4.16v-2.44h4.16v-6.05l2.94-1.43v7.48h5.92v2.44h-5.92v11.8c0,2.81.76,4.58,3.4,4.58,1.6,0,3.23-.29,4.03-.5Z"></path><path class="cls-5" d="m1739.11,2735.81c1.76-.67,2.06-1.09,2.06-3.78v-.34h-1.34v-5.08h3.36v5.08c0,3.95-.88,5.29-3.4,5.96l-.67-1.85Zm5.92,0c1.76-.67,2.06-1.09,2.06-3.78v-.34h-1.34v-5.08h3.36v5.08c0,3.95-.88,5.29-3.4,5.96l-.67-1.85Z"></path><path class="cls-5" d="m520.1,2677v-2.02h3.02v2.18c0,3.74,2.6,6.05,7.94,6.05s8.44-1.97,8.44-6.22c0-3.32-1.39-5.17-4.91-6.09l-6.64-1.72c-4.33-1.13-7.18-2.98-7.18-8.15s3.78-8.91,10.92-8.91,10.59,3.45,10.59,9.07v2.94h-3.02v-2.81c0-4.62-3.07-6.51-7.56-6.51-5.12,0-7.81,2.14-7.81,6.01,0,3.61,1.76,4.7,5.54,5.71l5.75,1.55c5.13,1.39,7.44,3.74,7.44,8.65,0,6.09-4.33,9.24-11.47,9.24-9.12,0-11.05-4.71-11.05-8.99Z"></path><path class="cls-5" d="m549.79,2652.67h2.94v32.77h-2.94v-32.77Z"></path><path class="cls-5" d="m560.08,2652.67h2.98v6.51h-2.98v-6.51Zm0,11.76h2.94v21h-2.94v-21Z"></path><path class="cls-5" d="m569.79,2687.24v-.13h3.11v.13c0,2.9,1.93,4.33,6.13,4.33,4.79,0,7.01-2.94,7.01-7.86v-2.1h-.08c-1.09,2.18-3.65,4.08-7.48,4.08-6.3,0-9.75-3.99-9.75-10.71,0-7.1,4.37-11.09,9.96-11.09,3.78,0,6.55,1.81,7.56,4.12h.13l.29-3.57h2.31v19.16c0,5.88-2.81,10.71-10.33,10.71-6.3,0-8.86-2.98-8.86-7.06Zm16.59-12.77c0-5.5-3.36-8.07-7.35-8.07-3.03,0-7.14,1.47-7.14,8.4s3.57,8.32,7.1,8.32c4.24,0,7.39-2.73,7.39-8.65Z"></path><path class="cls-5" d="m596.33,2652.67h2.94v15.16c1.05-2.1,3.28-3.95,7.31-3.95,4.75,0,7.77,2.52,7.77,7.94v13.61h-2.94v-13.27c0-4.33-2.14-5.71-5.5-5.71-3.82,0-6.64,2.69-6.64,5.63v13.36h-2.94v-32.77Z"></path><path class="cls-5" d="m632.66,2682.75v2.6c-.76.21-2.14.59-4.03.59-3.82,0-6.34-1.6-6.34-6.89v-12.18h-4.16v-2.44h4.16v-6.05l2.94-1.43v7.48h5.92v2.44h-5.92v11.8c0,2.81.76,4.58,3.4,4.58,1.6,0,3.23-.29,4.03-.5Z"></path><path class="cls-5" d="m645.26,2679.01v-1.18h2.94v1.13c0,2.86,2.14,4.5,5.96,4.5s5.8-1.01,5.8-3.78c0-2.06-1.01-2.81-3.86-3.32l-4.62-.84c-3.02-.55-5.54-2.02-5.54-5.5,0-3.15,2.35-6.13,8.4-6.13s8.4,3.02,8.4,7.22v.88h-2.98v-.76c0-3.44-2.14-4.91-5.42-4.91-3.95,0-5.33,1.34-5.33,3.36s1.01,2.86,3.91,3.4l4.03.76c4.12.76,6.09,1.93,6.09,5.59,0,4.58-4.12,6.55-8.78,6.55-7.31,0-8.99-3.28-8.99-6.97Z"></path><path class="cls-5" d="m668.9,2652.67h2.94v32.77h-2.94v-32.77Z"></path><path class="cls-5" d="m677.93,2679.64c0-3.95,2.23-6.09,7.86-6.09h6.34v-1.72c0-2.98-1.26-5.42-5.46-5.42-3.95,0-5.33,1.51-5.33,4.12v.88h-2.98v-.84c0-5,4.2-6.68,8.32-6.68,5.8,0,8.4,2.86,8.4,8.44v13.11h-2.06l-.55-2.98h-.08c-1.26,1.89-3.7,3.53-7.35,3.53-4.92,0-7.1-2.31-7.1-6.34Zm14.2-1.85v-1.76h-7.01c-2.65,0-4.03.92-4.03,3.61,0,2.35,1.26,3.86,4.5,3.86,4.16,0,6.55-2.14,6.55-5.71Z"></path><path class="cls-5" d="m702.42,2664.43h2.6l.29,3.49c1.01-2.14,3.28-4.03,7.35-4.03,4.75,0,7.77,2.52,7.77,7.94v13.61h-2.94v-13.27c0-4.33-2.14-5.71-5.5-5.71-3.82,0-6.64,2.69-6.64,5.63v13.36h-2.94v-21Z"></path><path class="cls-5" d="m738.75,2682.75v2.6c-.76.21-2.14.59-4.03.59-3.82,0-6.34-1.6-6.34-6.89v-12.18h-4.16v-2.44h4.16v-6.05l2.94-1.43v7.48h5.92v2.44h-5.92v11.8c0,2.81.76,4.58,3.4,4.58,1.6,0,3.23-.29,4.03-.5Z"></path><path class="cls-5" d="m642.62,3649.89h8.36c11.05,0,17.39,4.54,17.39,16.42s-6.26,16.34-17.18,16.34h-8.57v-32.77Zm8.65,30.12c9.41,0,14.03-3.74,14.03-13.78s-4.49-13.74-14.07-13.74h-5.67v27.51h5.71Z"></path><path class="cls-5" d="m691.93,3673.16h-15.96c.17,4.79,2.48,7.48,6.93,7.48,3.82,0,5.67-1.43,5.96-4.83h2.98c-.29,4.24-3.28,7.39-9.03,7.39-7.06,0-9.83-4.66-9.83-10.88s3.23-11.22,10-11.22,8.95,3.99,8.95,10.21v1.85Zm-3.11-2.98c0-4.45-1.72-6.55-5.92-6.55s-6.55,2.65-6.89,6.97h12.81v-.42Z"></path><path class="cls-5" d="m695.91,3676.23v-1.18h2.94v1.13c0,2.86,2.14,4.49,5.96,4.49s5.8-1.01,5.8-3.78c0-2.06-1.01-2.81-3.86-3.32l-4.62-.84c-3.02-.55-5.54-2.02-5.54-5.5,0-3.15,2.35-6.13,8.4-6.13s8.4,3.02,8.4,7.23v.88h-2.98v-.76c0-3.44-2.14-4.91-5.42-4.91-3.95,0-5.33,1.34-5.33,3.36s1.01,2.86,3.91,3.4l4.03.76c4.12.76,6.09,1.93,6.09,5.59,0,4.58-4.12,6.55-8.78,6.55-7.31,0-8.99-3.28-8.99-6.97Z"></path><path class="cls-5" d="m717.88,3672.32c0-6.38,3.23-11.22,10-11.22s8.95,3.91,8.95,8.95v.42h-3.11v-.63c0-3.82-1.64-6.09-5.84-6.09-4.75,0-7.02,3.11-7.02,8.4,0,5.63,2.39,8.49,6.93,8.49,3.82,0,5.84-1.85,5.92-5.67h3.02c-.08,4.66-3.15,8.23-9.03,8.23-7.23,0-9.83-4.75-9.83-10.88Z"></path><path class="cls-5" d="m759.97,3673.16h-15.96c.17,4.79,2.48,7.48,6.93,7.48,3.82,0,5.67-1.43,5.96-4.83h2.98c-.29,4.24-3.28,7.39-9.03,7.39-7.06,0-9.83-4.66-9.83-10.88s3.23-11.22,10-11.22,8.95,3.99,8.95,10.21v1.85Zm-3.11-2.98c0-4.45-1.72-6.55-5.92-6.55s-6.55,2.65-6.89,6.97h12.81v-.42Z"></path><path class="cls-5" d="m765.84,3661.65h2.6l.29,3.49c1.01-2.14,3.28-4.03,7.35-4.03,4.75,0,7.77,2.52,7.77,7.94v13.61h-2.94v-13.27c0-4.33-2.14-5.71-5.5-5.71-3.82,0-6.64,2.69-6.64,5.63v13.36h-2.94v-21Z"></path><path class="cls-5" d="m789.53,3672.19c0-7.1,4.28-11.09,10.04-11.09,3.7,0,6.22,1.6,7.31,3.74h.04v-14.96h2.94v32.77h-1.97l-.67-3.61h-.08c-1.18,2.31-3.95,4.16-7.77,4.16-6.3,0-9.83-3.99-9.83-11.01Zm17.64-.5c0-5.5-3.36-8.07-7.35-8.07-3.11,0-7.14,1.47-7.14,8.4s3.61,8.61,7.14,8.61c4.24,0,7.35-2.73,7.35-8.95Z"></path><path class="cls-5" d="m834.48,3673.16h-15.96c.17,4.79,2.48,7.48,6.93,7.48,3.82,0,5.67-1.43,5.96-4.83h2.98c-.29,4.24-3.28,7.39-9.03,7.39-7.06,0-9.83-4.66-9.83-10.88s3.23-11.22,10-11.22,8.95,3.99,8.95,10.21v1.85Zm-3.11-2.98c0-4.45-1.72-6.55-5.92-6.55s-6.55,2.65-6.89,6.97h12.81v-.42Z"></path><path class="cls-5" d="m840.35,3661.65h2.6l.29,3.91c1.01-2.14,3.07-4.45,6.76-4.45,1.26,0,2.18.21,3.02.55v3.15c-1.13-.5-2.1-.76-3.4-.76-3.74,0-6.34,2.81-6.34,5.75v12.85h-2.94v-21Z"></path><path class="cls-5" d="m864.59,3661.69v-.04h2.98l5.75,17.47h.08l6.3-17.47h2.69l6.18,17.47h.08l5.75-17.47h2.86v.04l-7.18,20.96h-3.02l-5.97-17.05h-.08l-6.22,17.05h-3.02l-7.18-20.96Z"></path><path class="cls-5" d="m902.09,3649.89h2.98v6.51h-2.98v-6.51Zm0,11.76h2.94v21h-2.94v-21Z"></path><path class="cls-5" d="m923.39,3679.97v2.6c-.76.21-2.14.59-4.03.59-3.82,0-6.34-1.6-6.34-6.89v-12.18h-4.16v-2.44h4.16v-6.05l2.94-1.43v7.48h5.92v2.44h-5.92v11.8c0,2.81.76,4.58,3.4,4.58,1.6,0,3.23-.29,4.03-.5Z"></path><path class="cls-5" d="m928.22,3649.89h2.94v15.16c1.05-2.1,3.28-3.95,7.31-3.95,4.75,0,7.77,2.52,7.77,7.94v13.61h-2.94v-13.27c0-4.33-2.14-5.71-5.5-5.71-3.82,0-6.64,2.69-6.64,5.63v13.36h-2.94v-32.77Z"></path><path class="cls-5" d="m963.24,3661.65h2.6l.29,3.49c1.01-2.14,3.28-4.03,7.35-4.03,4.75,0,7.77,2.52,7.77,7.94v13.61h-2.94v-13.27c0-4.33-2.14-5.71-5.5-5.71-3.82,0-6.64,2.69-6.64,5.63v13.36h-2.94v-21Z"></path><path class="cls-5" d="m986.93,3672.15c0-6.22,3.32-11.05,10.38-11.05,6.59,0,10.25,4.83,10.25,11.05s-3.7,11.05-10.29,11.05c-7.27,0-10.33-4.83-10.33-11.05Zm17.56,0c0-5.33-2.9-8.49-7.22-8.49-4.75,0-7.27,3.15-7.27,8.49s2.56,8.49,7.27,8.49c4.33,0,7.22-3.15,7.22-8.49Z"></path><path class="cls-5" d="m1023.09,3649.89h2.94v32.77h-2.94v-32.77Z"></path><path class="cls-5" d="m1031.7,3672.15c0-6.22,3.32-11.05,10.38-11.05,6.59,0,10.25,4.83,10.25,11.05s-3.7,11.05-10.29,11.05c-7.27,0-10.33-4.83-10.33-11.05Zm17.56,0c0-5.33-2.9-8.49-7.22-8.49-4.75,0-7.27,3.15-7.27,8.49s2.56,8.49,7.27,8.49c4.33,0,7.22-3.15,7.22-8.49Z"></path><path class="cls-5" d="m1056.53,3672.15c0-6.22,3.32-11.05,10.38-11.05,6.59,0,10.25,4.83,10.25,11.05s-3.7,11.05-10.29,11.05c-7.27,0-10.33-4.83-10.33-11.05Zm17.56,0c0-5.33-2.9-8.49-7.22-8.49-4.75,0-7.27,3.15-7.27,8.49s2.56,8.49,7.27,8.49c4.33,0,7.22-3.15,7.22-8.49Z"></path><path class="cls-5" d="m1083.03,3661.65h2.39l.34,3.87h.08c1.13-2.48,4.03-4.41,7.86-4.41,6.3,0,9.66,3.99,9.66,11.01s-4.29,11.09-9.87,11.09c-3.78,0-6.38-1.6-7.43-3.7h-.08v11.55h-2.94v-29.41Zm17.18,10.63c0-7.18-3.4-8.61-6.93-8.61-4.24,0-7.56,2.73-7.56,8.44,0,6.01,3.45,8.57,7.44,8.57,3.02,0,7.06-1.47,7.06-8.4Z"></path><path class="cls-5" d="m1118.9,3649.89h2.98v6.51h-2.98v-6.51Zm0,11.76h2.94v21h-2.94v-21Z"></path><path class="cls-5" d="m1129.23,3661.65h2.6l.29,3.49c1.01-2.14,3.28-4.03,7.35-4.03,4.75,0,7.77,2.52,7.77,7.94v13.61h-2.94v-13.27c0-4.33-2.14-5.71-5.5-5.71-3.82,0-6.64,2.69-6.64,5.63v13.36h-2.94v-21Z"></path><path class="cls-5" d="m1165.94,3660.35h-3.36v-5.08c0-3.95.88-5.29,3.4-5.96l.67,1.85c-1.76.67-2.06,1.09-2.06,3.78v.34h1.34v5.08Zm5.92,0h-3.36v-5.08c0-3.95.88-5.29,3.4-5.96l.67,1.85c-1.76.67-2.06,1.09-2.06,3.78v.34h1.34v5.08Z"></path><path class="cls-5" d="m1181.98,3656.61v5.04h5.92v2.44h-5.92v18.57h-2.94v-18.57h-4.16v-2.44h4.16v-5.42c0-5.29,3.15-6.89,6.38-6.89,1.85,0,2.98.29,3.74.55v2.6c-.71-.21-1.89-.46-3.49-.46-2.65,0-3.7,1.76-3.7,4.58Z"></path><path class="cls-5" d="m1192.52,3659.09c1.76-.67,2.06-1.09,2.06-3.78v-.34h-1.34v-5.08h3.36v5.08c0,3.95-.88,5.29-3.4,5.97l-.67-1.85Zm5.92,0c1.76-.67,2.06-1.09,2.06-3.78v-.34h-1.34v-5.08h3.36v5.08c0,3.95-.88,5.29-3.4,5.97l-.67-1.85Z"></path><path class="cls-6" d="m1441.17,388.55c-64.73,0-102.05,65.31-103.8,117.21-1.17,37.9,16.91,74.06,58.9,74.06,56.56,0,99.13-71.72,99.13-117.21,0-36.74-13.41-74.06-54.23-74.06Zm-44.9,167.94c-25.07,0-36.74-20.99-35.57-49.57,1.75-43.73,32.07-95.05,80.47-95.05,22.16,0,30.91,20.99,30.91,50.73,0,36.15-35.57,93.88-75.81,93.88Z"></path><path class="cls-6" d="m1563.63,496.43c6.41,0,11.66,5.25,11.66,11.66,0,2.92-.58,5.25-2.33,7.58-22.16,26.24-49.57,62.98-86.88,62.98-67.06,0-7.58-119.54,64.14-311.39,1.75-4.67,5.83-7.58,11.08-7.58,8.16,0,13.41,8.75,10.5,15.74-69.97,188.35-110.21,279.9-85.72,279.9s47.23-28.57,68.81-54.81c2.33-2.33,5.25-4.08,8.75-4.08Z"></path><line class="cls-2" x1="1438.94" y1="601.28" x2="1438.94" y2="877.97"></line><line class="cls-2" x1="1232.26" y1="1047.78" x2="1232.26" y2="1296.63"></line><line class="cls-2" x1="1315.57" y1="1731.23" x2="1315.57" y2="1804.39"></line><line class="cls-2" x1="1055.75" y1="1865.16" x2="1055.75" y2="1985.27"></line><line class="cls-2" x1="1560.48" y1="2435.38" x2="1560.48" y2="2707.99"></line><line class="cls-2" x1="1428.01" y1="2875.98" x2="1428.01" y2="3090.02"></line><line class="cls-2" x1="721.88" y1="3577.44" x2="721.88" y2="3636.02"></line><line class="cls-2" x1="603.58" y1="1946.62" x2="603.58" y2="2008.9"></line><path class="cls-6" d="m647.54,343.65c-6.41,0-11.66-5.25-11.66-11.66,0-2.92,1.17-5.25,2.92-7.58,5.83-6.41,12.25-21.58,12.25-35.57,0-19.24-10.5-39.07-39.65-39.07-50.15,0-97.96,111.38-130.04,197.68-27.41,72.89-50.15,131.2-79.3,131.2-10.5,0-18.66-7.58-17.49-29.74,2.33-62.98,104.38-258.32,112.54-297.39-1.75,5.83,22.74,1.75,20.41,3.5-14.58,25.66-36.74,38.49-53.06,38.49-15.16,0-26.82-9.91-26.82-26.82,0-7,1.75-15.16,1.75-19.83,0,2.92,2.92,2.92,4.66,2.92-7.58,0-36.74,32.07-60.64,76.39-1.75,4.08-5.83,6.41-10.5,6.41-6.41,0-11.66-5.25-11.66-11.66,0-1.75.58-4.08,1.75-5.25,25.66-48.98,58.31-89.22,81.05-89.22,11.66,0,18.66,8.16,18.66,20.41,0,7-1.75,15.16-1.75,19.83,0,2.92,0,3.5,3.5,3.5,8.16,0,22.16-8.16,32.07-26.24,7-12.25,26.82-7,23.91,11.08-8.16,42.57-110.21,237.91-112.54,295.06-.58,9.91-2.92,5.25-5.83,5.25,9.33,0,30.91-45.48,57.15-116.04,32.07-86.3,83.39-212.84,152.2-212.84,45.48,0,62.98,34.99,62.98,62.39,0,18.66-7.58,39.07-18.08,50.73-1.75,2.92-5.25,4.08-8.75,4.08Z"></path><path class="cls-6" d="m540.19,1295.92c0,5.83-4.67,11.08-10.5,11.66l-68.23,7c-7,.58-12.83-4.66-12.83-11.66,0-5.83,4.67-11.08,10.5-11.66l68.23-7c7-.58,12.83,4.66,12.83,11.66Z"></path><path class="cls-6" d="m1326.82,1439.37c-2.33,0-4.66.58-6.41,1.75-36.74,23.91-77.56,36.74-95.63,36.74-3.5,0-5.83-2.33-5.83-7.58,0-16.49-8.32-25.82-18.21-29.06-3.53-1.16-5.69-1.84-11.68-.58-2.71.69-27.75,7.55-38.61,23.91-1.22,1.83-2.47,3.67-3.73,5.53-.54.77-1.07,1.56-1.6,2.36-1.6,2.36-3.23,4.75-4.89,7.17-8.75,15.16,13.41,26.82,20.99,11.66,9.33-18.66,25.07-27.99,30.91-27.99,2.92,0,3.5,1.75,3.5,7,0,18.08,12.83,30.91,29.16,30.91,22.16,0,67.64-14.58,108.46-40.24,2.92-2.33,5.25-5.83,5.25-9.91,0-6.41-5.25-11.66-11.66-11.66Z"></path><path class="cls-6" d="m1261.95,1333.97c2.16-3.01,4.34-5.97,6.56-8.89,8.16-13.41-7.58-25.66-18.66-14.58-17.49,17.49-32.07,30.32-41.99,30.32-4.08,0-5.25-.58-5.25-4.67,0-3.5.58-6.41,2.92-10.5,7-14-10.5-25.07-20.41-13.41,0,0-11.36,28.01-1.32,40.04,0,0,0,0,0,0,4.71,7.22,12.95,11.86,24.06,11.86,2.17,0,4.33-.22,6.48-.62,0,0,29.63-9.19,47.61-29.56Zm-59.49-6.35c.05-.07.1-.14.16-.21.04.17-.02.23-.16.21Z"></path><path class="cls-5" d="m1458.61,1390.39c6.41,0,11.66,4.66,11.66,11.66,0,2.92-1.17,5.25-2.91,7.58-32.66,36.74-82.8,86.89-123.62,86.89-60.65,0-5.83-111.38,24.49-183.1,1.75-4.08,5.83-7,10.5-7,8.75,0,14,8.75,11.08,15.74-26.82,65.89-65.31,151.03-46.07,151.03,29.74,0,75.22-44.32,106.13-79.3,2.33-2.33,5.25-3.5,8.75-3.5Z"></path><path class="cls-5" d="m1660.78,2330.36c6.41,0,11.66,5.25,11.66,11.66,0,3.5-1.17,6.41-3.5,8.75-27.99,25.66-75.81,62.39-109.04,62.39-23.33,0-43.73-16.33-37.32-57.15,2.92-18.08,54.23-148.11,81.05-216.92,1.75-4.67,5.83-7.58,10.5-7.58,8.75,0,14,8.75,11.08,15.74-26.82,68.81-76.97,197.1-79.3,212.26-4.08,23.91,2.92,30.32,13.99,30.32,24.49,0,67.64-32.65,92.72-55.98,2.33-1.75,5.25-3.5,8.16-3.5Z"></path><g class="cls-4"><path class="cls-7" d="m714.48,3532.67c-8.75,0-13.41-8.16-11.08-15.16l115.46-342.29c30.32-73.47,64.14-213.42,111.38-213.42,19.83,0,37.9,11.66,37.9,39.07,0,55.98-80.47,121.29-133.54,173.77-2.33,2.33-5.25,3.5-8.16,3.5-6.41,0-11.66-5.25-11.66-11.66,0-2.92,1.17-5.83,3.5-8.16,53.06-53.06,126.54-113.71,126.54-157.44,0-12.25-5.25-15.74-14.58-15.74-23.32,0-59.48,124.21-89.22,198.26l-115.46,341.13c-1.75,4.67-5.83,8.16-11.08,8.16Z"></path></g><line class="cls-2" x1="399.67" y1="601.28" x2="399.67" y2="877.97"></line><line class="cls-2" x1="450.56" y1="1325.43" x2="148.26" y2="1794.81"></line><g class="cls-8"><path class="cls-7" d="m1504.67,1413.72c6.41,0,11.66,5.25,11.66,11.66,0,3.5-1.75,6.41-4.08,8.75-27.99,25.66-62.98,50.15-96.22,74.06-68.22,48.98-120.71,87.47-120.71,126.54,0,16.33,8.16,30.32,25.07,30.32,24.49,0,47.23-31.49,81.05-147.53,10.5-37.32,54.23-135.87,79.3-203.51,1.75-4.66,5.83-7.58,11.08-7.58,8.16,0,13.41,8.75,11.08,15.74-25.66,68.23-68.81,166.19-79.3,202.34-36.15,123.04-62.39,163.86-103.21,163.86-33.24,0-48.4-27.99-48.4-53.65,0-51.9,60.64-96.22,130.04-145.2,33.82-24.49,67.64-47.82,94.47-72.31,2.33-2.33,5.25-3.5,8.16-3.5Z"></path></g><g class="cls-11"><path class="cls-7" d="m1051.41,2299.45c6.41,0,11.66,5.25,11.66,11.66,0,2.92-1.17,5.25-2.92,7.58-36.15,41.4-86.88,94.47-122.46,94.47-67.64,0-16.33-133.54,23.91-234.42,30.32-73.47,46.07-143.45,91.55-143.45,19.83,0,37.9,11.66,37.9,39.07,0,55.98-78.72,121.29-131.2,173.77-2.33,2.33-5.25,3.5-8.16,3.5-6.41,0-11.66-5.25-11.66-11.66,0-2.92,1.17-5.83,3.5-8.16,52.48-53.06,124.21-113.71,124.21-157.44,0-12.25-5.25-15.74-14.58-15.74-25.07,0-39.07,53.65-69.39,129.45-39.65,96.8-74.64,201.76-46.07,201.76,23.32,0,69.39-46.07,104.96-86.3,2.33-2.92,5.25-4.08,8.75-4.08Z"></path></g><g class="cls-10"><path class="cls-7" d="m621.65,2299.45c6.41,0,11.66,5.25,11.66,11.66,0,2.92-.58,5.25-2.92,7.58-29.74,33.82-97.96,94.47-133.54,94.47-20.41,0-37.9-17.49-37.9-40.82,0-6.41,1.75-14.58,5.25-22.16,50.15-112.54,102.05-289.23,161.53-289.23,32.07,0,27.41,38.49,15.74,69.97-34.99,88.05-197.68,282.23-273.48,282.23-27.41,0-38.49-22.16-38.49-48.4,0-29.74,12.83-71.14,29.16-104.96,30.91-64.14,68.23-142.28,68.23-172.02,0-5.83,1.75-3.5.58-3.5-14,0-54.23,36.15-86.3,70.56-2.33,2.33-5.25,4.08-8.75,4.08-6.41,0-11.66-5.25-11.66-11.66,0-3.5,1.17-5.83,2.92-8.16,32.65-35.57,78.14-78.14,103.8-78.14,12.83,0,22.74,9.33,22.74,26.82,0,35.57-39.65,117.21-70.56,182.52-15.16,31.49-26.82,68.23-26.82,94.47,0,17.49,4.66,25.07,15.16,25.07,60.06,0,218.67-183.1,251.33-267.07,6.41-16.91,11.08-38.49,6.41-38.49-37.32,0-89.8,162.69-140.53,275.23-2.33,5.25-2.92,8.75-2.92,12.83,0,10.5,7,17.49,14.58,17.49,23.91,0,87.47-54.23,116.04-86.3,2.33-2.92,5.25-4.08,8.75-4.08Z"></path></g><g class="cls-9"><path class="cls-7" d="m1405.48,3340.24c-8.75,0-13.99-8.75-11.08-15.74,19.83-46.07,50.15-114.29,55.98-130.04,2.92-7.58,4.08-12.25,4.08-15.74,0-5.25-3.5-5.83-5.25-5.83-9.33,0-40.82,27.99-79.3,64.14-50.73,46.07-110.21,102.63-145.78,102.63-20.99,0-33.24-18.08-33.24-45.48,0-48.98,36.15-144.03,83.97-144.03,23.32,0,34.4,22.74,34.4,38.49-1.17,50.15-167.94,151.03-225.67,151.03-25.07,0-41.4-16.33-41.4-41.4,0-4.66.58-11.66,2.33-16.91,3.5-15.16,16.91-53.65,80.47-216.34,1.75-4.08,5.83-7,10.5-7,8.75,0,14,8.75,11.08,15.74-62.98,162.11-76.39,198.84-79.89,213.42-.58,4.08-1.17,7.58-1.17,11.08,0,12.25,5.83,18.08,18.08,18.08,51.9,0,201.76-97.96,202.34-127.7,0-4.66-2.92-15.16-11.08-15.16-27.41,0-60.65,78.14-60.65,120.71,0,15.16,3.5,22.16,9.91,22.16,23.91,0,79.3-50.73,129.45-96.8,38.49-35.57,74.06-69.97,95.63-69.97,12.83,0,28.57,9.33,28.57,29.16,0,7-2.33,15.16-5.25,23.91-6.41,16.91-37.32,84.55-56.56,130.62-1.75,4.08-5.83,7-10.5,7Z"></path><path class="cls-7" d="m1606.08,3259.19c6.41,0,11.66,5.25,11.66,11.66,0,2.33-.58,4.08-1.75,5.83-15.74,27.99-46.07,62.98-79.89,62.98-39.07,0-41.99-43.73-27.41-72.89l35.57-71.14c11.08-20.99,10.5-22.74-4.08-22.74-21.58,0-47.23,23.33-78.14,54.23-2.33,1.75-5.25,2.92-8.16,2.92-6.41,0-11.66-5.25-11.66-11.66,0-2.92,1.17-5.83,3.5-8.16,32.07-32.07,62.98-60.64,94.47-60.64,36.74,0,41.98,23.32,25.07,56.56l-35.57,71.14c-8.16,15.74-9.91,39.07,6.41,39.07,21.58,0,46.07-26.82,59.48-51.31,2.33-3.5,5.83-5.83,10.5-5.83Z"></path></g></g></svg> 