<?xml version="1.0" encoding="UTF-8"?> <svg xmlns="http://www.w3.org/2000/svg" id="Layer_1" viewBox="0 0 450 335"><defs><style>.cls-1{fill:#fff;}.cls-2{fill:#ececec;}.cls-3{fill:#bca5cf;}.cls-4{fill:#111035;}</style></defs><rect class="cls-1" width="450" height="335"></rect><rect class="cls-2" y="199.03" width="450" height="113.1"></rect><rect class="cls-2" y="27.59" width="450" height="108.05"></rect><rect class="cls-3" x="147.02" y="27.59" width="18.64" height="284.54"></rect><path class="cls-4" d="m166.74,312.13c-2.17,0-3.83-1.66-3.83-3.83v-167.79c0-.51,6.38,0,6.76.38-9.19,48.74-31.52,58.44-40.45,58.44-12.5,0-27.56-7.78-27.56-56.14,0-22.58,3.19-60.1,3.19-78.47,0-24.12-5.36-29.47-8.42-29.47-4.47,0-11.61,9.06-11.61,25.77-1.28,19.14-1.4,59.59-1.4,86.13,0,24.37-12.12,52.19-37.77,52.19-16.59,0-17.99-11.36-17.99-14.16,0-4.34,2.42-10.08,10.21-12.12,2.42-.64,4.72,1.28,4.72,3.7,0,1.79-1.15,3.32-2.81,3.7-3.45,1.02-4.47,2.94-4.47,4.72s.77,6.51,10.34,6.51c20.03,0,30.11-23.1,30.11-44.53,0-26.54.13-66.99,1.4-86.38,0-20.54,9.57-33.17,19.27-33.17,8.04,0,16.08,7.91,16.08,37.13,0,18.63-3.19,56.14-3.19,78.47,0,42.23,10.97,48.49,19.9,48.49,6,0,24.88-8.68,33.05-52.31,1.02-5.1,8.29-3.83,8.29,1.15v167.79c0,2.17-1.66,3.83-3.83,3.83Zm-37.39-212.96c2.04,0,3.83,1.66,3.83,3.83,0,.89-.38,1.79-1.02,2.42-3.7,4.34-8.68,9.19-16.59,9.19-10.34,0-33.43-9.19-42.36-9.19-3.96,0-6.76,2.04-9.82,4.72-.64.51-1.53.89-2.55.89-2.04,0-3.83-1.66-3.83-3.83,0-1.15.51-2.17,1.4-2.93,3.7-3.19,8.29-6.51,14.8-6.51,10.46,0,33.56,9.19,42.36,9.19,4.59,0,7.66-2.81,10.85-6.51.64-.77,1.79-1.28,2.93-1.28Zm37.51,62.14c-2.42,0-4.08-2.17-3.83-4.34,1.91-12.38,9.31-21.18,20.54-21.18,10.08,0,19.78,7.4,19.78,19.78v20.54c.26,3.83.51,16.84,7.66,16.84,8.55,0,16.08-12.5,22.46-25.39.64-1.28,1.91-2.17,3.45-2.17,2.17,0,3.83,1.79,3.83,3.83,0,.64-.13,1.28-.38,1.79-6.76,13.65-16.08,29.6-29.35,29.6-15.06,0-15.06-21.05-15.31-24.24v-20.8c0-7.53-5.61-12.12-12.12-12.12-6.89,0-11.61,5.61-13.01,14.67-.26,1.79-1.79,3.19-3.7,3.19Zm146.86-24.63c2.42,0,4.34,2.3,3.7,4.72-7.15,31.01-23.99,57.93-51.29,57.93-21.95,0-32.41-16.2-32.41-31.9,0-17.48,12.89-31.64,31.13-31.64,15.44,0,24.88,10.59,24.88,21.18,0,9.82-7.91,18.88-25.14,18.88-7.02,0-15.57-1.66-25.52-6-1.28-.64-2.17-1.91-2.17-3.57,0-2.04,1.66-3.83,3.83-3.83.51,0,1.02.13,1.53.38,8.93,3.96,16.2,5.36,22.33,5.36,12.63,0,17.48-5.49,17.48-11.23,0-6.51-6.38-13.53-17.23-13.53-13.91,0-23.48,10.59-23.48,23.99,0,12.38,7.91,24.24,24.75,24.24,22.46,0,37.26-23.22,43.89-51.93.38-1.79,1.91-3.06,3.7-3.06Zm-5.87-19.39c0-3.19,2.68-5.87,6-5.87s5.87,2.68,5.87,5.87-2.68,6-5.87,6-6-2.68-6-6Zm45.04,42.49c2.04,0,3.83,1.66,3.83,3.83,0,.51-.13,1.02-.25,1.4-6.51,15.57-15.82,34.32-31.52,34.32s-14.93-16.08-14.93-23.09v-36.62c0-2.17,1.66-3.83,3.83-3.83s3.83,1.66,3.83,3.83v36.62c0,6.89-.13,15.44,7.27,15.44,10.59,0,18.37-14.93,24.37-29.6.64-1.28,1.91-2.3,3.57-2.3Zm0,11.23c-2.04,0-3.83-1.79-3.83-3.83,0-.77.26-1.4.51-1.91,15.06-26.28,36.36-65.2,36.36-95.19,0-19.91-9.57-34.83-15.31-34.83-4.85,0-12.5,11.99-15.06,35.85-2.3,20.54-1.15,49.64.26,86.26.77,19.01,4.98,34.32,16.08,34.32,14.42,0,29.22-23.22,35.85-51.93.38-1.79,1.91-3.06,3.7-3.06,2.42,0,4.34,2.3,3.7,4.72-7.15,31.13-23.73,57.93-43.26,57.93-17.61,0-22.97-20.8-23.73-41.72-1.4-36.62-2.55-66.22-.26-87.28,2.93-26.8,11.99-42.74,22.71-42.74,11.74,0,22.97,19.65,22.97,42.49,0,32.03-22.2,72.47-37.39,98.89-.64,1.15-1.79,2.04-3.32,2.04Z"></path></svg> 