<?xml version="1.0" encoding="UTF-8"?> <svg xmlns="http://www.w3.org/2000/svg" id="Layer_1" viewBox="0 0 450 335"><defs><style>.cls-1{fill:#fff;}.cls-2{fill:#ececec;}.cls-3{fill:#bca5cf;}</style></defs><rect class="cls-1" width="450" height="335"></rect><rect class="cls-2" y="197.19" width="450" height="61.68"></rect><rect class="cls-2" y="72.72" width="450" height="62.92"></rect><rect class="cls-3" x="130.17" y="73.47" width="18.64" height="185.4"></rect><path d="m300.38,215.37l-30.5,43.62h-12.08l30.5-43.62h12.08Zm-32.34-79.87v123.48h-11.74v-72.39c-2.88,5.06-10.13,12.31-23.25,12.31-18.53,0-30.84-14.62-30.84-31.99,0-19.22,13.23-33.26,31.65-33.26,12.31,0,19.56,6.56,22.79,12.31v-10.47h11.39Zm-32.57,9.21c-14.16,0-21.29,11.16-21.29,21.87s8.4,21.29,21.29,21.29c5.98,0,11.28-2.42,15.19-6.1,3.68-4.03,6.21-9.44,6.21-15.42.12-5.98-2.3-11.39-6.1-15.31-3.91-3.91-9.32-6.33-15.31-6.33Zm65.25,111.05l2.3-10.01c5.52,2.19,8.29,2.53,10.36,2.53,6.1,0,6.79-4.95,6.79-14.39v-98.63h11.74v98.63c0,19.22-6.56,24.97-16.34,24.97-4.03,0-8.4-.81-14.85-3.11Zm19.45-152.02v16.23h11.74v-16.23h-11.74Zm-22.56-6.44v33.37h14.04v9.21h-14.04v57.31h-11.74v-57.31h-8.63v-9.21h8.63v-33.37c0-19.22,6.56-24.97,16.34-24.97,4.03,0,8.4.81,14.85,3.11l-2.3,10.01c-5.52-2.19-8.29-2.53-10.36-2.53-6.1,0-6.79,4.95-6.79,14.39Zm-98.28-23.82h-17.84l-51.33,61.11.35-61.11h-12.43v123.6h12.43v-43.73l16-18.41,38.21,62.14h15.77l-45.46-72.04,44.31-51.56Z"></path></svg> 