<?xml version="1.0" encoding="UTF-8"?> <svg xmlns="http://www.w3.org/2000/svg" xmlns:xlink="http://www.w3.org/1999/xlink" id="info" viewBox="0 0 1920 3670"><defs><style>.cls-1,.cls-2,.cls-3,.cls-4,.cls-5,.cls-6,.cls-7,.cls-8,.cls-9,.cls-10,.cls-11,.cls-12,.cls-13{fill:none;}.cls-14{clip-path:url(#clippath);}.cls-15{fill:#fff;}.cls-16{fill:#937fbb;}.cls-17{fill:#a797c9;}.cls-18{fill:#171c32;}.cls-19{fill:#947fbb;}.cls-2{stroke-dasharray:0 0 1.71 17.07;}.cls-2,.cls-3,.cls-4,.cls-5,.cls-6,.cls-7,.cls-8,.cls-9,.cls-10,.cls-11,.cls-12,.cls-13{stroke-miterlimit:10;}.cls-2,.cls-3,.cls-4,.cls-5,.cls-6,.cls-7,.cls-8,.cls-9,.cls-11,.cls-12,.cls-13{stroke:#a797c9;stroke-linecap:round;stroke-width:7px;}.cls-3{stroke-dasharray:0 0 1.8 17.99;}.cls-5{stroke-dasharray:0 0 1.72 17.22;}.cls-20{clip-path:url(#clippath-1);}.cls-21{clip-path:url(#clippath-3);}.cls-22{clip-path:url(#clippath-2);}.cls-6{stroke-dasharray:0 0 1.69 16.87;}.cls-7{stroke-dasharray:0 0 1.78 17.79;}.cls-8{stroke-dasharray:0 0 1.76 17.63;}.cls-9{stroke-dasharray:0 0 1.74 17.45;}.cls-10{stroke:#57678b;stroke-width:3.5px;}.cls-11{stroke-dasharray:0 0 1.76 17.61;}.cls-12{stroke-dasharray:0 0 1.71 17.14;}.cls-13{stroke-dasharray:0 0 1.71 17.09;}</style><clipPath id="clippath"><rect class="cls-1" x="863.88" y="2257.62" width="111.67" height="111.67" rx="55.84" ry="55.84"></rect></clipPath><clipPath id="clippath-1"><circle class="cls-1" cx="1443.28" cy="2040.32" r="100.53"></circle></clipPath><clipPath id="clippath-2"><polygon class="cls-1" points="1164.39 1403.25 1128.82 1357.88 1164.39 1238.93 977.15 1238.93 893.19 1388.09 970.02 1487.96 1119.52 1487.96 1164.39 1403.25"></polygon></clipPath><clipPath id="clippath-3"><circle class="cls-1" cx="954.84" cy="692.28" r="86.4"></circle></clipPath></defs><rect class="cls-18" x="-4.33" width="1920" height="3670"></rect><line class="cls-10" x1="-4.33" y1="202.72" x2="1915.67" y2="202.72"></line><line class="cls-10" x1="-4.33" y1="376.16" x2="1915.67" y2="376.16"></line><line class="cls-10" x1="1915.67" y1="566.31" x2="-4.33" y2="566.31"></line><line class="cls-10" x1="-4.33" y1="741.44" x2="1915.67" y2="741.44"></line><line class="cls-10" x1="-4.33" y1="1090.56" x2="1915.67" y2="1090.56"></line><line class="cls-10" x1="-4.33" y1="1264.01" x2="1915.67" y2="1264.01"></line><line class="cls-10" x1="1915.67" y1="1454.16" x2="-4.33" y2="1454.16"></line><line class="cls-10" x1="-4.33" y1="1629.29" x2="1915.67" y2="1629.29"></line><line class="cls-10" x1="-4.33" y1="1978.41" x2="1915.67" y2="1978.41"></line><line class="cls-10" x1="-4.33" y1="2151.85" x2="1915.67" y2="2151.85"></line><line class="cls-10" x1="1915.67" y1="2342.01" x2="-4.33" y2="2342.01"></line><line class="cls-10" x1="-4.33" y1="2517.13" x2="1915.67" y2="2517.13"></line><line class="cls-10" x1="-4.33" y1="2866.26" x2="1915.67" y2="2866.26"></line><line class="cls-10" x1="-4.33" y1="3039.7" x2="1915.67" y2="3039.7"></line><line class="cls-10" x1="1915.67" y1="3229.85" x2="-4.33" y2="3229.85"></line><line class="cls-10" x1="-4.33" y1="3404.98" x2="1915.67" y2="3404.98"></line><line class="cls-4" x1="646.29" y1="589.5" x2="646.29" y2="590.37"></line><line class="cls-3" x1="646.29" y1="608.36" x2="646.29" y2="856.6"></line><line class="cls-4" x1="646.29" y1="865.59" x2="646.29" y2="866.46"></line><line class="cls-4" x1="1131.31" y1="582.33" x2="1131.31" y2="583.2"></line><line class="cls-12" x1="1131.31" y1="600.34" x2="1131.31" y2="855.8"></line><line class="cls-4" x1="1131.31" y1="864.37" x2="1131.31" y2="865.24"></line><line class="cls-4" x1="1260.4" y1="1470.22" x2="1260.4" y2="1471.09"></line><line class="cls-6" x1="1260.4" y1="1487.95" x2="1260.4" y2="1553.73"></line><polyline class="cls-4" points="1260.4 1562.16 1260.4 1563.04 1259.53 1563.04"></polyline><line class="cls-8" x1="1241.9" y1="1563.04" x2="1018.02" y2="1563.04"></line><line class="cls-4" x1="1009.2" y1="1563.04" x2="1008.33" y2="1563.04"></line><polygon class="cls-19" points="529.95 1628.89 582.29 1628.89 724.66 1090.17 672.33 1090.17 529.95 1628.89"></polygon><line class="cls-4" x1="654.28" y1="2260.95" x2="654.28" y2="2261.82"></line><line class="cls-2" x1="654.28" y1="2278.89" x2="654.28" y2="2627.15"></line><line class="cls-4" x1="654.28" y1="2635.68" x2="654.28" y2="2636.56"></line><line class="cls-4" x1="606.39" y1="2773.75" x2="606.39" y2="2774.62"></line><line class="cls-13" x1="606.39" y1="2791.71" x2="606.39" y2="3008.75"></line><line class="cls-4" x1="606.39" y1="3017.3" x2="606.39" y2="3018.17"></line><line class="cls-4" x1="1128.63" y1="3249.67" x2="1128.63" y2="3250.54"></line><line class="cls-11" x1="1128.63" y1="3268.15" x2="1128.63" y2="3472.41"></line><line class="cls-4" x1="1128.63" y1="3481.22" x2="1128.63" y2="3482.09"></line><line class="cls-4" x1="917.65" y1="2333.44" x2="917.65" y2="2334.32"></line><line class="cls-5" x1="917.65" y1="2351.54" x2="917.65" y2="2627.07"></line><line class="cls-4" x1="917.65" y1="2635.68" x2="917.65" y2="2636.56"></line><path class="cls-15" d="m1364.06,1806.68h-13.99l-3.74,10.33h-3.07l12.18-32.77h3.32l12.1,32.77h-3.07l-3.74-10.33Zm-.92-2.6l-6.05-16.8h-.04l-6.05,16.8h12.14Z"></path><path class="cls-15" d="m1373.17,1810.58v-1.18h2.94v1.13c0,2.86,2.14,4.5,5.96,4.5s5.8-1.01,5.8-3.78c0-2.06-1.01-2.81-3.86-3.32l-4.62-.84c-3.03-.55-5.54-2.02-5.54-5.5,0-3.15,2.35-6.13,8.4-6.13s8.4,3.02,8.4,7.23v.88h-2.98v-.76c0-3.44-2.14-4.92-5.42-4.92-3.95,0-5.33,1.34-5.33,3.36s1.01,2.86,3.91,3.4l4.03.76c4.12.76,6.09,1.93,6.09,5.59,0,4.58-4.12,6.55-8.78,6.55-7.31,0-8.99-3.28-8.99-6.97Z"></path><path class="cls-15" d="m1395.13,1806.68c0-6.38,3.23-11.22,10-11.22s8.95,3.91,8.95,8.95v.42h-3.11v-.63c0-3.82-1.64-6.09-5.84-6.09-4.75,0-7.02,3.11-7.02,8.4,0,5.63,2.39,8.49,6.93,8.49,3.82,0,5.84-1.85,5.92-5.67h3.02c-.08,4.66-3.15,8.23-9.03,8.23-7.23,0-9.83-4.75-9.83-10.88Z"></path><path class="cls-15" d="m1437.22,1807.52h-15.96c.17,4.79,2.48,7.48,6.93,7.48,3.82,0,5.67-1.43,5.96-4.83h2.98c-.29,4.24-3.28,7.39-9.03,7.39-7.06,0-9.83-4.66-9.83-10.88s3.23-11.22,10-11.22,8.95,3.99,8.95,10.21v1.85Zm-3.11-2.98c0-4.45-1.72-6.55-5.92-6.55s-6.55,2.65-6.89,6.97h12.81v-.42Z"></path><path class="cls-15" d="m1443.1,1796.01h2.6l.29,3.49c1.01-2.14,3.28-4.03,7.35-4.03,4.75,0,7.77,2.52,7.77,7.94v13.61h-2.94v-13.27c0-4.33-2.14-5.71-5.5-5.71-3.82,0-6.64,2.69-6.64,5.63v13.36h-2.94v-21Z"></path><path class="cls-15" d="m1466.79,1806.55c0-7.1,4.29-11.09,10.04-11.09,3.7,0,6.22,1.6,7.31,3.74h.04v-14.96h2.94v32.77h-1.97l-.67-3.61h-.08c-1.18,2.31-3.95,4.16-7.77,4.16-6.3,0-9.83-3.99-9.83-11.01Zm17.64-.5c0-5.5-3.36-8.07-7.35-8.07-3.11,0-7.14,1.47-7.14,8.4s3.61,8.61,7.14,8.61c4.24,0,7.35-2.73,7.35-8.95Z"></path><path class="cls-15" d="m1511.73,1807.52h-15.96c.17,4.79,2.48,7.48,6.93,7.48,3.82,0,5.67-1.43,5.96-4.83h2.98c-.29,4.24-3.28,7.39-9.03,7.39-7.06,0-9.83-4.66-9.83-10.88s3.23-11.22,10-11.22,8.95,3.99,8.95,10.21v1.85Zm-3.11-2.98c0-4.45-1.72-6.55-5.92-6.55s-6.55,2.65-6.89,6.97h12.81v-.42Z"></path><path class="cls-15" d="m1517.61,1796.01h2.6l.29,3.91c1.01-2.14,3.07-4.45,6.76-4.45,1.26,0,2.18.21,3.02.55v3.15c-1.13-.5-2.1-.76-3.4-.76-3.74,0-6.34,2.81-6.34,5.75v12.85h-2.94v-21Z"></path><path class="cls-15" d="m1544.57,1784.24h2.94v32.77h-2.94v-32.77Z"></path><path class="cls-15" d="m1553.18,1806.51c0-6.22,3.32-11.05,10.38-11.05,6.6,0,10.25,4.83,10.25,11.05s-3.7,11.05-10.29,11.05c-7.27,0-10.33-4.83-10.33-11.05Zm17.56,0c0-5.33-2.9-8.49-7.23-8.49-4.75,0-7.27,3.15-7.27,8.49s2.56,8.49,7.27,8.49c4.33,0,7.23-3.15,7.23-8.49Z"></path><path class="cls-15" d="m1578,1806.51c0-6.22,3.32-11.05,10.38-11.05,6.6,0,10.25,4.83,10.25,11.05s-3.7,11.05-10.29,11.05c-7.27,0-10.33-4.83-10.33-11.05Zm17.56,0c0-5.33-2.9-8.49-7.23-8.49-4.75,0-7.27,3.15-7.27,8.49s2.56,8.49,7.27,8.49c4.33,0,7.23-3.15,7.23-8.49Z"></path><path class="cls-15" d="m1604.51,1796.01h2.39l.34,3.87h.08c1.13-2.48,4.03-4.41,7.86-4.41,6.3,0,9.66,3.99,9.66,11.01s-4.28,11.09-9.87,11.09c-3.78,0-6.38-1.6-7.44-3.7h-.08v11.55h-2.94v-29.41Zm17.18,10.63c0-7.18-3.4-8.61-6.93-8.61-4.24,0-7.56,2.73-7.56,8.44,0,6.01,3.45,8.57,7.44,8.57,3.03,0,7.06-1.47,7.06-8.4Z"></path><path class="cls-15" d="m1628.82,1810.58v-1.18h2.94v1.13c0,2.86,2.14,4.5,5.96,4.5s5.8-1.01,5.8-3.78c0-2.06-1.01-2.81-3.87-3.32l-4.62-.84c-3.02-.55-5.54-2.02-5.54-5.5,0-3.15,2.35-6.13,8.4-6.13s8.4,3.02,8.4,7.23v.88h-2.98v-.76c0-3.44-2.14-4.92-5.42-4.92-3.95,0-5.33,1.34-5.33,3.36s1.01,2.86,3.91,3.4l4.03.76c4.12.76,6.09,1.93,6.09,5.59,0,4.58-4.12,6.55-8.78,6.55-7.31,0-8.99-3.28-8.99-6.97Z"></path><line class="cls-4" x1="991.31" y1="1469.51" x2="991.31" y2="1470.38"></line><line class="cls-7" x1="991.31" y1="1488.17" x2="991.31" y2="1753.25"></line><line class="cls-4" x1="991.31" y1="1762.15" x2="991.31" y2="1763.02"></line><path class="cls-15" d="m793.31,1783.8h2.94v18.65l17.05-18.65h3.61v.04l-12.31,13.53,13.36,19.16v.04h-3.65l-11.68-17.05-6.39,7.02v10.04h-2.94v-32.77Z"></path><path class="cls-15" d="m821.33,1809.17v-13.61h2.94v13.27c0,4.33,2.14,5.71,5.42,5.71,3.74,0,6.55-2.69,6.55-5.63v-13.36h2.94v21h-2.61l-.25-3.36h-.08c-.97,2.02-3.23,3.91-7.22,3.91-4.66,0-7.69-2.52-7.69-7.94Z"></path><path class="cls-15" d="m846.53,1795.56h2.6l.29,3.91c1.01-2.14,3.07-4.45,6.76-4.45,1.26,0,2.19.21,3.03.55v3.15c-1.13-.5-2.1-.76-3.4-.76-3.74,0-6.34,2.81-6.34,5.75v12.85h-2.94v-21Z"></path><path class="cls-15" d="m863.83,1795.56h2.6l.29,3.91c1.01-2.14,3.07-4.45,6.76-4.45,1.26,0,2.18.21,3.02.55v3.15c-1.13-.5-2.1-.76-3.4-.76-3.74,0-6.34,2.81-6.34,5.75v12.85h-2.94v-21Z"></path><path class="cls-15" d="m897.77,1807.07h-15.96c.17,4.79,2.48,7.48,6.93,7.48,3.82,0,5.67-1.43,5.96-4.83h2.98c-.29,4.24-3.28,7.39-9.03,7.39-7.06,0-9.83-4.66-9.83-10.88s3.23-11.22,10-11.22,8.95,3.99,8.95,10.21v1.85Zm-3.11-2.98c0-4.45-1.72-6.55-5.92-6.55s-6.55,2.65-6.89,6.97h12.81v-.42Z"></path><path class="cls-15" d="m903.65,1795.56h2.6l.29,3.49c1.01-2.14,3.28-4.03,7.35-4.03,4.75,0,7.77,2.52,7.77,7.94v13.61h-2.94v-13.27c0-4.33-2.14-5.71-5.5-5.71-3.82,0-6.64,2.69-6.64,5.63v13.36h-2.94v-21Z"></path><path class="cls-15" d="m939.98,1813.87v2.6c-.76.21-2.14.59-4.03.59-3.82,0-6.34-1.6-6.34-6.89v-12.18h-4.16v-2.44h4.16v-6.05l2.94-1.43v7.48h5.92v2.44h-5.92v11.8c0,2.81.76,4.58,3.4,4.58,1.6,0,3.23-.29,4.03-.5Z"></path><path class="cls-15" d="m952.58,1810.13v-1.18h2.94v1.13c0,2.86,2.14,4.5,5.96,4.5s5.8-1.01,5.8-3.78c0-2.06-1.01-2.81-3.86-3.32l-4.62-.84c-3.02-.55-5.54-2.02-5.54-5.5,0-3.15,2.35-6.13,8.4-6.13s8.4,3.02,8.4,7.23v.88h-2.98v-.76c0-3.44-2.14-4.92-5.42-4.92-3.95,0-5.33,1.34-5.33,3.36s1.01,2.86,3.91,3.4l4.03.76c4.12.76,6.09,1.93,6.09,5.59,0,4.58-4.12,6.55-8.78,6.55-7.31,0-8.99-3.28-8.99-6.97Z"></path><path class="cls-15" d="m987.19,1813.87v2.6c-.76.21-2.14.59-4.03.59-3.82,0-6.34-1.6-6.34-6.89v-12.18h-4.16v-2.44h4.16v-6.05l2.94-1.43v7.48h5.92v2.44h-5.92v11.8c0,2.81.76,4.58,3.4,4.58,1.6,0,3.23-.29,4.03-.5Z"></path><path class="cls-15" d="m992.22,1795.56l6.89,17.98h.08l7.14-17.98h3.07v.04l-8.86,20.84-3.11,8.53h-2.98v-.04l3.19-8.36-8.78-20.96v-.04h3.36Z"></path><path class="cls-15" d="m1013.6,1783.8h2.94v32.77h-2.94v-32.77Z"></path><path class="cls-15" d="m1041.16,1807.07h-15.96c.17,4.79,2.48,7.48,6.93,7.48,3.82,0,5.67-1.43,5.96-4.83h2.98c-.29,4.24-3.28,7.39-9.03,7.39-7.06,0-9.83-4.66-9.83-10.88s3.23-11.22,10-11.22,8.95,3.99,8.95,10.21v1.85Zm-3.11-2.98c0-4.45-1.72-6.55-5.92-6.55s-6.55,2.65-6.89,6.97h12.81v-.42Z"></path><path class="cls-15" d="m1058.38,1794.26h-3.36v-5.08c0-3.95.88-5.29,3.4-5.96l.67,1.85c-1.76.67-2.06,1.09-2.06,3.78v.34h1.34v5.08Zm5.92,0h-3.36v-5.08c0-3.95.88-5.29,3.4-5.96l.67,1.85c-1.76.67-2.06,1.09-2.06,3.78v.34h1.34v5.08Z"></path><path class="cls-15" d="m1070.68,1795.56h2.61l.29,3.91c1.01-2.14,3.07-4.45,6.76-4.45,1.26,0,2.18.21,3.02.55v3.15c-1.13-.5-2.1-.76-3.4-.76-3.74,0-6.34,2.81-6.34,5.75v12.85h-2.94v-21Z"></path><path class="cls-15" d="m1086.09,1793c1.76-.67,2.06-1.09,2.06-3.78v-.34h-1.34v-5.08h3.36v5.08c0,3.95-.88,5.29-3.4,5.96l-.67-1.85Zm5.92,0c1.76-.67,2.06-1.09,2.06-3.78v-.34h-1.34v-5.08h3.36v5.08c0,3.95-.88,5.29-3.4,5.96l-.67-1.85Z"></path><path class="cls-15" d="m1110.37,1810.76c0-3.95,2.23-6.09,7.86-6.09h6.34v-1.72c0-2.98-1.26-5.42-5.46-5.42-3.95,0-5.33,1.51-5.33,4.12v.88h-2.98v-.84c0-5,4.2-6.68,8.32-6.68,5.8,0,8.4,2.86,8.4,8.44v13.11h-2.06l-.55-2.98h-.08c-1.26,1.89-3.7,3.53-7.35,3.53-4.91,0-7.1-2.31-7.1-6.34Zm14.2-1.85v-1.76h-7.02c-2.65,0-4.03.92-4.03,3.61,0,2.35,1.26,3.87,4.5,3.87,4.16,0,6.55-2.14,6.55-5.71Z"></path><path class="cls-15" d="m1134.86,1795.56h2.61l.29,3.49c1.01-2.14,3.28-4.03,7.35-4.03,4.75,0,7.77,2.52,7.77,7.94v13.61h-2.94v-13.27c0-4.33-2.14-5.71-5.5-5.71-3.82,0-6.64,2.69-6.64,5.63v13.36h-2.94v-21Z"></path><path class="cls-15" d="m1158.54,1806.1c0-7.1,4.28-11.09,10.04-11.09,3.7,0,6.22,1.6,7.31,3.74h.04v-14.96h2.94v32.77h-1.97l-.67-3.61h-.08c-1.18,2.31-3.95,4.16-7.77,4.16-6.3,0-9.83-3.99-9.83-11.01Zm17.64-.5c0-5.5-3.36-8.07-7.35-8.07-3.11,0-7.14,1.47-7.14,8.4s3.61,8.61,7.14,8.61c4.24,0,7.35-2.73,7.35-8.95Z"></path><path class="cls-15" d="m1197.56,1794.26h-3.36v-5.08c0-3.95.88-5.29,3.4-5.96l.67,1.85c-1.77.67-2.06,1.09-2.06,3.78v.34h1.34v5.08Zm5.92,0h-3.36v-5.08c0-3.95.88-5.29,3.4-5.96l.67,1.85c-1.76.67-2.06,1.09-2.06,3.78v.34h1.34v5.08Z"></path><path class="cls-15" d="m1220.83,1813.87v2.6c-.76.21-2.14.59-4.03.59-3.82,0-6.34-1.6-6.34-6.89v-12.18h-4.16v-2.44h4.16v-6.05l2.94-1.43v7.48h5.92v2.44h-5.92v11.8c0,2.81.76,4.58,3.4,4.58,1.6,0,3.23-.29,4.03-.5Z"></path><path class="cls-15" d="m1222.72,1793c1.76-.67,2.06-1.09,2.06-3.78v-.34h-1.34v-5.08h3.36v5.08c0,3.95-.88,5.29-3.4,5.96l-.67-1.85Zm5.92,0c1.76-.67,2.06-1.09,2.06-3.78v-.34h-1.34v-5.08h3.36v5.08c0,3.95-.88,5.29-3.4,5.96l-.67-1.85Z"></path><path class="cls-15" d="m331,2669.39h-3.36v-5.08c0-3.95.88-5.29,3.4-5.97l.67,1.85c-1.76.67-2.06,1.09-2.06,3.78v.34h1.34v5.08Zm5.92,0h-3.36v-5.08c0-3.95.88-5.29,3.4-5.97l.67,1.85c-1.76.67-2.06,1.09-2.06,3.78v.34h1.34v5.08Z"></path><path class="cls-15" d="m359.06,2681.36h-13.99l-3.74,10.33h-3.07l12.18-32.77h3.32l12.1,32.77h-3.07l-3.74-10.33Zm-.92-2.6l-6.05-16.8h-.04l-6.05,16.8h12.14Z"></path><path class="cls-15" d="m366.49,2668.13c1.76-.67,2.06-1.09,2.06-3.78v-.34h-1.34v-5.08h3.36v5.08c0,3.95-.88,5.29-3.4,5.97l-.67-1.85Zm5.92,0c1.76-.67,2.06-1.09,2.06-3.78v-.34h-1.34v-5.08h3.36v5.08c0,3.95-.88,5.29-3.4,5.97l-.67-1.85Z"></path><path class="cls-15" d="m379.43,2685.48h3.36v6.22c0,3.95-.88,5.29-3.4,5.96l-.67-1.85c1.76-.67,2.06-1.09,2.06-3.78v-.34h-1.34v-6.22Z"></path><path class="cls-15" d="m400.43,2669.39h-3.36v-5.08c0-3.95.88-5.29,3.4-5.97l.67,1.85c-1.76.67-2.06,1.09-2.06,3.78v.34h1.34v5.08Zm5.92,0h-3.36v-5.08c0-3.95.88-5.29,3.4-5.97l.67,1.85c-1.76.67-2.06,1.09-2.06,3.78v.34h1.34v5.08Z"></path><path class="cls-15" d="m413.78,2658.93h2.94v15.12h17.56v-15.12h2.94v32.77h-2.94v-15h-17.56v15h-2.94v-32.77Z"></path><path class="cls-15" d="m443.94,2668.13c1.76-.67,2.06-1.09,2.06-3.78v-.34h-1.34v-5.08h3.36v5.08c0,3.95-.88,5.29-3.4,5.97l-.67-1.85Zm5.92,0c1.76-.67,2.06-1.09,2.06-3.78v-.34h-1.34v-5.08h3.36v5.08c0,3.95-.88,5.29-3.4,5.97l-.67-1.85Z"></path><path class="cls-15" d="m468.21,2685.9c0-3.95,2.23-6.09,7.86-6.09h6.34v-1.72c0-2.98-1.26-5.42-5.46-5.42-3.95,0-5.33,1.51-5.33,4.12v.88h-2.98v-.84c0-5,4.2-6.68,8.32-6.68,5.8,0,8.4,2.86,8.4,8.44v13.11h-2.06l-.55-2.98h-.08c-1.26,1.89-3.7,3.53-7.35,3.53-4.91,0-7.1-2.31-7.1-6.34Zm14.2-1.85v-1.76h-7.02c-2.65,0-4.03.92-4.03,3.61,0,2.35,1.26,3.86,4.5,3.86,4.16,0,6.55-2.14,6.55-5.71Z"></path><path class="cls-15" d="m492.7,2670.69h2.6l.29,3.49c1.01-2.14,3.28-4.03,7.35-4.03,4.75,0,7.77,2.52,7.77,7.94v13.61h-2.94v-13.27c0-4.33-2.14-5.71-5.5-5.71-3.82,0-6.64,2.69-6.64,5.63v13.36h-2.94v-21Z"></path><path class="cls-15" d="m516.39,2681.23c0-7.1,4.29-11.09,10.04-11.09,3.7,0,6.22,1.6,7.31,3.74h.04v-14.95h2.94v32.77h-1.97l-.67-3.61h-.08c-1.18,2.31-3.95,4.16-7.77,4.16-6.3,0-9.83-3.99-9.83-11.01Zm17.64-.5c0-5.5-3.36-8.07-7.35-8.07-3.11,0-7.14,1.47-7.14,8.4s3.61,8.61,7.14,8.61c4.24,0,7.35-2.73,7.35-8.95Z"></path><path class="cls-15" d="m555.41,2669.39h-3.36v-5.08c0-3.95.88-5.29,3.4-5.97l.67,1.85c-1.76.67-2.06,1.09-2.06,3.78v.34h1.34v5.08Zm5.92,0h-3.36v-5.08c0-3.95.88-5.29,3.4-5.97l.67,1.85c-1.76.67-2.06,1.09-2.06,3.78v.34h1.34v5.08Z"></path><path class="cls-15" d="m568.76,2658.93h18.86v2.6h-15.92v12.94h12.31v2.6h-12.31v14.62h-2.94v-32.77Z"></path><path class="cls-15" d="m590.98,2668.13c1.76-.67,2.06-1.09,2.06-3.78v-.34h-1.34v-5.08h3.36v5.08c0,3.95-.88,5.29-3.4,5.97l-.67-1.85Zm5.92,0c1.76-.67,2.06-1.09,2.06-3.78v-.34h-1.34v-5.08h3.36v5.08c0,3.95-.88,5.29-3.4,5.97l-.67-1.85Z"></path><path class="cls-15" d="m614.84,2681.36c0-6.38,3.23-11.22,10-11.22s8.95,3.91,8.95,8.95v.42h-3.11v-.63c0-3.82-1.64-6.09-5.84-6.09-4.75,0-7.01,3.11-7.01,8.4,0,5.63,2.39,8.49,6.93,8.49,3.82,0,5.84-1.85,5.92-5.67h3.03c-.08,4.66-3.15,8.23-9.03,8.23-7.22,0-9.83-4.75-9.83-10.88Z"></path><path class="cls-15" d="m637.98,2681.19c0-6.22,3.32-11.05,10.38-11.05,6.59,0,10.25,4.83,10.25,11.05s-3.7,11.05-10.29,11.05c-7.27,0-10.33-4.83-10.33-11.05Zm17.56,0c0-5.33-2.9-8.49-7.23-8.49-4.75,0-7.27,3.15-7.27,8.49s2.56,8.49,7.27,8.49c4.33,0,7.23-3.15,7.23-8.49Z"></path><path class="cls-15" d="m664.48,2670.69h2.6l.29,3.49c1.01-2.14,3.28-4.03,7.35-4.03,4.75,0,7.77,2.52,7.77,7.94v13.61h-2.94v-13.27c0-4.33-2.14-5.71-5.5-5.71-3.82,0-6.64,2.69-6.64,5.63v13.36h-2.94v-21Z"></path><path class="cls-15" d="m689.85,2670.69h2.6l.29,3.49c1.01-2.14,3.28-4.03,7.35-4.03,4.75,0,7.77,2.52,7.77,7.94v13.61h-2.94v-13.27c0-4.33-2.14-5.71-5.5-5.71-3.82,0-6.64,2.69-6.64,5.63v13.36h-2.94v-21Z"></path><path class="cls-15" d="m732.48,2682.2h-15.96c.17,4.79,2.48,7.48,6.93,7.48,3.82,0,5.67-1.43,5.96-4.83h2.98c-.29,4.24-3.28,7.39-9.03,7.39-7.06,0-9.83-4.66-9.83-10.88s3.23-11.22,10-11.22,8.95,3.99,8.95,10.21v1.85Zm-3.11-2.98c0-4.45-1.72-6.55-5.92-6.55s-6.55,2.65-6.89,6.97h12.81v-.42Z"></path><path class="cls-15" d="m736.68,2681.36c0-6.38,3.23-11.22,10-11.22s8.95,3.91,8.95,8.95v.42h-3.11v-.63c0-3.82-1.64-6.09-5.84-6.09-4.75,0-7.02,3.11-7.02,8.4,0,5.63,2.39,8.49,6.93,8.49,3.82,0,5.84-1.85,5.92-5.67h3.02c-.08,4.66-3.15,8.23-9.03,8.23-7.23,0-9.83-4.75-9.83-10.88Z"></path><path class="cls-15" d="m772.46,2689v2.6c-.76.21-2.14.59-4.03.59-3.82,0-6.34-1.6-6.34-6.89v-12.18h-4.16v-2.44h4.16v-6.05l2.94-1.43v7.48h5.92v2.44h-5.92v11.8c0,2.81.76,4.58,3.4,4.58,1.6,0,3.23-.29,4.03-.5Z"></path><path class="cls-15" d="m367.48,2714.5v5.04h5.92v2.44h-5.92v18.57h-2.94v-18.57h-4.16v-2.44h4.16v-5.42c0-5.29,3.15-6.89,6.38-6.89,1.85,0,2.98.29,3.74.55v2.6c-.71-.21-1.89-.46-3.49-.46-2.65,0-3.7,1.76-3.7,4.58Z"></path><path class="cls-15" d="m377.81,2719.54h2.6l.29,3.91c1.01-2.14,3.07-4.45,6.76-4.45,1.26,0,2.18.21,3.02.55v3.15c-1.13-.5-2.1-.76-3.4-.76-3.74,0-6.34,2.81-6.34,5.75v12.85h-2.94v-21Z"></path><path class="cls-15" d="m392.8,2730.04c0-6.22,3.32-11.05,10.38-11.05,6.59,0,10.25,4.83,10.25,11.05s-3.7,11.05-10.29,11.05c-7.27,0-10.33-4.83-10.33-11.05Zm17.56,0c0-5.33-2.9-8.49-7.23-8.49-4.75,0-7.27,3.15-7.27,8.49s2.56,8.49,7.27,8.49c4.33,0,7.23-3.15,7.23-8.49Z"></path><path class="cls-15" d="m450.01,2726.93v13.61h-2.94v-13.27c0-4.33-2.14-5.71-4.75-5.71-3.82,0-6.18,2.69-6.18,5.63v13.36h-2.94v-13.27c0-4.33-1.85-5.71-4.83-5.71-3.61,0-6.13,2.69-6.13,5.63v13.36h-2.94v-21h2.6l.29,3.49c1.01-2.02,3.07-4.03,6.93-4.03,2.94,0,5.38,1.39,6.43,4.29,1.22-2.39,3.57-4.29,7.14-4.29,4.28,0,7.31,2.52,7.31,7.94Z"></path><path class="cls-15" d="m477.98,2737.85v2.6c-.76.21-2.14.59-4.03.59-3.82,0-6.34-1.6-6.34-6.89v-12.18h-4.16v-2.44h4.16v-6.05l2.94-1.43v7.48h5.92v2.44h-5.92v11.8c0,2.81.76,4.58,3.4,4.58,1.6,0,3.23-.29,4.03-.5Z"></path><path class="cls-15" d="m482.81,2707.77h2.94v15.17c1.05-2.1,3.28-3.95,7.31-3.95,4.75,0,7.77,2.52,7.77,7.94v13.61h-2.94v-13.27c0-4.33-2.14-5.71-5.5-5.71-3.82,0-6.64,2.69-6.64,5.63v13.36h-2.94v-32.77Z"></path><path class="cls-15" d="m525.44,2731.05h-15.96c.17,4.79,2.48,7.48,6.93,7.48,3.82,0,5.67-1.43,5.96-4.83h2.98c-.29,4.24-3.28,7.39-9.03,7.39-7.06,0-9.83-4.66-9.83-10.88s3.23-11.22,10-11.22,8.95,3.99,8.95,10.21v1.85Zm-3.11-2.98c0-4.45-1.72-6.55-5.92-6.55s-6.55,2.65-6.89,6.97h12.81v-.42Z"></path><path class="cls-15" d="m531.32,2707.77h2.98v6.51h-2.98v-6.51Zm0,11.76h2.94v21h-2.94v-21Z"></path><path class="cls-15" d="m541.65,2719.54h2.6l.29,3.91c1.01-2.14,3.07-4.45,6.76-4.45,1.26,0,2.18.21,3.02.55v3.15c-1.13-.5-2.1-.76-3.4-.76-3.74,0-6.34,2.81-6.34,5.75v12.85h-2.94v-21Z"></path><path class="cls-15" d="m566.93,2730.21c0-6.38,3.23-11.22,10-11.22s8.95,3.91,8.95,8.95v.42h-3.11v-.63c0-3.82-1.64-6.09-5.84-6.09-4.75,0-7.02,3.11-7.02,8.4,0,5.63,2.39,8.49,6.93,8.49,3.82,0,5.84-1.85,5.92-5.67h3.02c-.08,4.66-3.15,8.23-9.03,8.23-7.23,0-9.83-4.75-9.83-10.88Z"></path><path class="cls-15" d="m591.76,2719.54h2.6l.29,3.91c1.01-2.14,3.07-4.45,6.76-4.45,1.26,0,2.18.21,3.02.55v3.15c-1.13-.5-2.1-.76-3.4-.76-3.74,0-6.34,2.81-6.34,5.75v12.85h-2.94v-21Z"></path><path class="cls-15" d="m606.75,2730.04c0-6.22,3.32-11.05,10.38-11.05,6.6,0,10.25,4.83,10.25,11.05s-3.7,11.05-10.29,11.05c-7.27,0-10.33-4.83-10.33-11.05Zm17.56,0c0-5.33-2.9-8.49-7.23-8.49-4.75,0-7.27,3.15-7.27,8.49s2.56,8.49,7.27,8.49c4.33,0,7.23-3.15,7.23-8.49Z"></path><path class="cls-15" d="m631.36,2734.11v-1.18h2.94v1.13c0,2.86,2.14,4.5,5.96,4.5s5.8-1.01,5.8-3.78c0-2.06-1.01-2.81-3.87-3.32l-4.62-.84c-3.02-.55-5.54-2.02-5.54-5.5,0-3.15,2.35-6.13,8.4-6.13s8.4,3.02,8.4,7.23v.88h-2.98v-.76c0-3.44-2.14-4.92-5.42-4.92-3.95,0-5.33,1.34-5.33,3.36s1.01,2.86,3.91,3.4l4.03.76c4.12.76,6.09,1.93,6.09,5.59,0,4.58-4.12,6.55-8.78,6.55-7.31,0-8.99-3.28-8.99-6.97Z"></path><path class="cls-15" d="m653.12,2734.11v-1.18h2.94v1.13c0,2.86,2.14,4.5,5.96,4.5s5.8-1.01,5.8-3.78c0-2.06-1.01-2.81-3.87-3.32l-4.62-.84c-3.02-.55-5.54-2.02-5.54-5.5,0-3.15,2.35-6.13,8.4-6.13s8.4,3.02,8.4,7.23v.88h-2.98v-.76c0-3.44-2.14-4.92-5.42-4.92-3.95,0-5.33,1.34-5.33,3.36s1.01,2.86,3.91,3.4l4.03.76c4.12.76,6.09,1.93,6.09,5.59,0,4.58-4.12,6.55-8.78,6.55-7.31,0-8.99-3.28-8.99-6.97Z"></path><path class="cls-15" d="m679.58,2737.05h-.08l-.76,3.49h-1.97v-32.77h2.94v15.25h.04c1.26-2.31,4.08-4.03,7.69-4.03,6.3,0,9.66,3.99,9.66,11.01s-4.29,11.09-9.87,11.09c-3.78,0-6.55-1.64-7.65-4.03Zm14.37-6.89c0-7.18-3.4-8.61-6.93-8.61-4.24,0-7.56,2.73-7.56,8.44,0,6.01,3.44,8.57,7.44,8.57,3.02,0,7.06-1.47,7.06-8.4Z"></path><path class="cls-15" d="m701.5,2734.74c0-3.95,2.23-6.09,7.86-6.09h6.34v-1.72c0-2.98-1.26-5.42-5.46-5.42-3.95,0-5.33,1.51-5.33,4.12v.88h-2.98v-.84c0-5,4.2-6.68,8.32-6.68,5.8,0,8.4,2.86,8.4,8.44v13.11h-2.06l-.55-2.98h-.08c-1.26,1.89-3.7,3.53-7.35,3.53-4.91,0-7.1-2.31-7.1-6.34Zm14.2-1.85v-1.76h-7.02c-2.65,0-4.03.92-4.03,3.61,0,2.35,1.26,3.87,4.5,3.87,4.16,0,6.55-2.14,6.55-5.71Z"></path><path class="cls-15" d="m725.99,2719.54h2.6l.29,3.91c1.01-2.14,3.07-4.45,6.76-4.45,1.26,0,2.18.21,3.02.55v3.15c-1.13-.5-2.1-.76-3.4-.76-3.74,0-6.34,2.81-6.34,5.75v12.85h-2.94v-21Z"></path><path class="cls-15" d="m842.46,2670.43h-3.36v-5.08c0-3.95.88-5.29,3.4-5.96l.67,1.85c-1.77.67-2.06,1.09-2.06,3.78v.34h1.34v5.08Zm5.92,0h-3.36v-5.08c0-3.95.88-5.29,3.4-5.96l.67,1.85c-1.76.67-2.06,1.09-2.06,3.78v.34h1.34v5.08Z"></path><path class="cls-15" d="m854.77,2671.73h2.39l.34,3.87h.08c1.13-2.48,4.03-4.41,7.86-4.41,6.3,0,9.66,3.99,9.66,11.01s-4.28,11.09-9.87,11.09c-3.78,0-6.38-1.6-7.44-3.7h-.08v11.55h-2.94v-29.41Zm17.18,10.63c0-7.18-3.4-8.61-6.93-8.61-4.24,0-7.56,2.73-7.56,8.44,0,6.01,3.44,8.57,7.44,8.57,3.02,0,7.06-1.47,7.06-8.4Z"></path><path class="cls-15" d="m876.35,2669.17c1.77-.67,2.06-1.09,2.06-3.78v-.34h-1.34v-5.08h3.36v5.08c0,3.95-.88,5.29-3.4,5.96l-.67-1.85Zm5.92,0c1.76-.67,2.06-1.09,2.06-3.78v-.34h-1.34v-5.08h3.36v5.08c0,3.95-.88,5.29-3.4,5.96l-.67-1.85Z"></path><path class="cls-15" d="m900.21,2682.4c0-6.38,3.23-11.22,10-11.22s8.95,3.91,8.95,8.95v.42h-3.11v-.63c0-3.82-1.64-6.09-5.84-6.09-4.75,0-7.01,3.11-7.01,8.4,0,5.63,2.39,8.49,6.93,8.49,3.82,0,5.84-1.85,5.92-5.67h3.03c-.08,4.66-3.15,8.23-9.03,8.23-7.23,0-9.83-4.75-9.83-10.88Z"></path><path class="cls-15" d="m923.35,2682.23c0-6.22,3.32-11.05,10.38-11.05,6.59,0,10.25,4.83,10.25,11.05s-3.7,11.05-10.29,11.05c-7.27,0-10.33-4.83-10.33-11.05Zm17.56,0c0-5.33-2.9-8.49-7.23-8.49-4.75,0-7.27,3.15-7.27,8.49s2.56,8.49,7.27,8.49c4.33,0,7.23-3.15,7.23-8.49Z"></path><path class="cls-15" d="m949.86,2671.73h2.6l.29,3.49c1.01-2.14,3.28-4.03,7.35-4.03,4.75,0,7.77,2.52,7.77,7.94v13.61h-2.94v-13.27c0-4.33-2.14-5.71-5.5-5.71-3.82,0-6.64,2.69-6.64,5.63v13.36h-2.94v-21Z"></path><path class="cls-15" d="m975.22,2671.73h2.6l.29,3.49c1.01-2.14,3.28-4.03,7.35-4.03,4.75,0,7.77,2.52,7.77,7.94v13.61h-2.94v-13.27c0-4.33-2.14-5.71-5.5-5.71-3.82,0-6.64,2.69-6.64,5.63v13.36h-2.94v-21Z"></path><path class="cls-15" d="m1017.86,2683.24h-15.96c.17,4.79,2.48,7.48,6.93,7.48,3.82,0,5.67-1.43,5.96-4.83h2.98c-.29,4.24-3.28,7.39-9.03,7.39-7.06,0-9.83-4.66-9.83-10.88s3.23-11.22,10-11.22,8.95,3.99,8.95,10.21v1.85Zm-3.11-2.98c0-4.45-1.72-6.55-5.92-6.55s-6.55,2.65-6.89,6.97h12.81v-.42Z"></path><path class="cls-15" d="m1022.05,2682.4c0-6.38,3.23-11.22,10-11.22s8.95,3.91,8.95,8.95v.42h-3.11v-.63c0-3.82-1.64-6.09-5.84-6.09-4.75,0-7.02,3.11-7.02,8.4,0,5.63,2.39,8.49,6.93,8.49,3.82,0,5.84-1.85,5.92-5.67h3.03c-.08,4.66-3.15,8.23-9.03,8.23-7.23,0-9.83-4.75-9.83-10.88Z"></path><path class="cls-15" d="m1057.84,2690.05v2.6c-.76.21-2.14.59-4.03.59-3.82,0-6.34-1.6-6.34-6.89v-12.18h-4.16v-2.44h4.16v-6.05l2.94-1.43v7.48h5.92v2.44h-5.92v11.8c0,2.81.76,4.58,3.4,4.58,1.6,0,3.23-.29,4.03-.5Z"></path><path class="cls-15" d="m1060.78,2686.31v-1.18h2.94v1.13c0,2.86,2.14,4.5,5.96,4.5s5.8-1.01,5.8-3.78c0-2.06-1.01-2.81-3.86-3.32l-4.62-.84c-3.03-.55-5.54-2.02-5.54-5.5,0-3.15,2.35-6.13,8.4-6.13s8.4,3.02,8.4,7.23v.88h-2.98v-.76c0-3.44-2.14-4.92-5.42-4.92-3.95,0-5.33,1.34-5.33,3.36s1.01,2.86,3.91,3.4l4.03.76c4.12.76,6.09,1.93,6.09,5.59,0,4.58-4.12,6.55-8.78,6.55-7.31,0-8.99-3.28-8.99-6.97Z"></path><path class="cls-15" d="m1098.24,2666.69v5.04h5.92v2.44h-5.92v18.57h-2.94v-18.57h-4.16v-2.44h4.16v-5.42c0-5.29,3.15-6.89,6.38-6.89,1.85,0,2.98.29,3.74.55v2.6c-.71-.21-1.89-.46-3.49-.46-2.65,0-3.7,1.76-3.7,4.58Z"></path><path class="cls-15" d="m1108.57,2671.73h2.61l.29,3.91c1.01-2.14,3.07-4.45,6.76-4.45,1.26,0,2.18.21,3.02.55v3.15c-1.13-.5-2.1-.76-3.4-.76-3.74,0-6.34,2.81-6.34,5.75v12.85h-2.94v-21Z"></path><path class="cls-15" d="m1123.57,2682.23c0-6.22,3.32-11.05,10.38-11.05,6.6,0,10.25,4.83,10.25,11.05s-3.7,11.05-10.29,11.05c-7.27,0-10.33-4.83-10.33-11.05Zm17.56,0c0-5.33-2.9-8.49-7.22-8.49-4.75,0-7.27,3.15-7.27,8.49s2.56,8.49,7.27,8.49c4.33,0,7.22-3.15,7.22-8.49Z"></path><path class="cls-15" d="m1180.78,2679.12v13.61h-2.94v-13.27c0-4.33-2.14-5.71-4.75-5.71-3.82,0-6.17,2.69-6.17,5.63v13.36h-2.94v-13.27c0-4.33-1.85-5.71-4.83-5.71-3.61,0-6.13,2.69-6.13,5.63v13.36h-2.94v-21h2.61l.29,3.49c1.01-2.02,3.07-4.03,6.93-4.03,2.94,0,5.38,1.39,6.43,4.29,1.22-2.39,3.57-4.29,7.14-4.29,4.29,0,7.31,2.52,7.31,7.94Z"></path><path class="cls-15" d="m1208.74,2690.05v2.6c-.76.21-2.14.59-4.03.59-3.82,0-6.34-1.6-6.34-6.89v-12.18h-4.16v-2.44h4.16v-6.05l2.94-1.43v7.48h5.92v2.44h-5.92v11.8c0,2.81.76,4.58,3.4,4.58,1.6,0,3.23-.29,4.03-.5Z"></path><path class="cls-15" d="m1213.57,2659.97h2.94v15.17c1.05-2.1,3.28-3.95,7.31-3.95,4.75,0,7.77,2.52,7.77,7.94v13.61h-2.94v-13.27c0-4.33-2.14-5.71-5.5-5.71-3.82,0-6.64,2.69-6.64,5.63v13.36h-2.94v-32.77Z"></path><path class="cls-15" d="m1256.21,2683.24h-15.96c.17,4.79,2.48,7.48,6.93,7.48,3.82,0,5.67-1.43,5.96-4.83h2.98c-.29,4.24-3.28,7.39-9.03,7.39-7.06,0-9.83-4.66-9.83-10.88s3.23-11.22,10-11.22,8.95,3.99,8.95,10.21v1.85Zm-3.11-2.98c0-4.45-1.72-6.55-5.92-6.55s-6.55,2.65-6.89,6.97h12.81v-.42Z"></path><path class="cls-15" d="m1271.74,2659.97h2.94v32.77h-2.94v-32.77Z"></path><path class="cls-15" d="m1280.35,2682.23c0-6.22,3.32-11.05,10.38-11.05,6.59,0,10.25,4.83,10.25,11.05s-3.7,11.05-10.29,11.05c-7.27,0-10.33-4.83-10.33-11.05Zm17.56,0c0-5.33-2.9-8.49-7.23-8.49-4.75,0-7.27,3.15-7.27,8.49s2.56,8.49,7.27,8.49c4.33,0,7.23-3.15,7.23-8.49Z"></path><path class="cls-15" d="m1305.17,2682.23c0-6.22,3.32-11.05,10.38-11.05,6.59,0,10.25,4.83,10.25,11.05s-3.7,11.05-10.29,11.05c-7.27,0-10.33-4.83-10.33-11.05Zm17.56,0c0-5.33-2.9-8.49-7.23-8.49-4.75,0-7.27,3.15-7.27,8.49s2.56,8.49,7.27,8.49c4.33,0,7.23-3.15,7.23-8.49Z"></path><path class="cls-15" d="m1331.68,2671.73h2.39l.34,3.87h.08c1.13-2.48,4.03-4.41,7.86-4.41,6.3,0,9.66,3.99,9.66,11.01s-4.28,11.09-9.87,11.09c-3.78,0-6.38-1.6-7.44-3.7h-.08v11.55h-2.94v-29.41Zm17.18,10.63c0-7.18-3.4-8.61-6.93-8.61-4.24,0-7.56,2.73-7.56,8.44,0,6.01,3.44,8.57,7.44,8.57,3.02,0,7.06-1.47,7.06-8.4Z"></path><path class="cls-15" d="m1365.87,2682.23c0-6.22,3.32-11.05,10.38-11.05,6.6,0,10.25,4.83,10.25,11.05s-3.7,11.05-10.29,11.05c-7.27,0-10.33-4.83-10.33-11.05Zm17.56,0c0-5.33-2.9-8.49-7.23-8.49-4.75,0-7.27,3.15-7.27,8.49s2.56,8.49,7.27,8.49c4.33,0,7.23-3.15,7.23-8.49Z"></path><path class="cls-15" d="m1392.37,2671.73h2.6l.29,3.49c1.01-2.14,3.28-4.03,7.35-4.03,4.75,0,7.77,2.52,7.77,7.94v13.61h-2.94v-13.27c0-4.33-2.14-5.71-5.5-5.71-3.82,0-6.64,2.69-6.64,5.63v13.36h-2.94v-21Z"></path><path class="cls-15" d="m1438.36,2690.05v2.6c-.76.21-2.14.59-4.03.59-3.82,0-6.34-1.6-6.34-6.89v-12.18h-4.16v-2.44h4.16v-6.05l2.94-1.43v7.48h5.92v2.44h-5.92v11.8c0,2.81.76,4.58,3.4,4.58,1.6,0,3.23-.29,4.03-.5Z"></path><path class="cls-15" d="m1443.19,2659.97h2.94v15.17c1.05-2.1,3.28-3.95,7.31-3.95,4.75,0,7.77,2.52,7.77,7.94v13.61h-2.94v-13.27c0-4.33-2.14-5.71-5.5-5.71-3.82,0-6.64,2.69-6.64,5.63v13.36h-2.94v-32.77Z"></path><path class="cls-15" d="m1485.82,2683.24h-15.96c.17,4.79,2.48,7.48,6.93,7.48,3.82,0,5.67-1.43,5.96-4.83h2.98c-.29,4.24-3.28,7.39-9.03,7.39-7.06,0-9.83-4.66-9.83-10.88s3.23-11.22,10-11.22,8.95,3.99,8.95,10.21v1.85Zm-3.11-2.98c0-4.45-1.72-6.55-5.92-6.55s-6.55,2.65-6.89,6.97h12.81v-.42Z"></path><path class="cls-15" d="m1504.17,2689.25h-.08l-.76,3.49h-1.97v-32.77h2.94v15.25h.04c1.26-2.31,4.07-4.03,7.69-4.03,6.3,0,9.66,3.99,9.66,11.01s-4.28,11.09-9.87,11.09c-3.78,0-6.55-1.64-7.64-4.03Zm14.37-6.89c0-7.18-3.4-8.61-6.93-8.61-4.24,0-7.56,2.73-7.56,8.44,0,6.01,3.45,8.57,7.44,8.57,3.03,0,7.06-1.47,7.06-8.4Z"></path><path class="cls-15" d="m1526.09,2686.94c0-3.95,2.23-6.09,7.86-6.09h6.34v-1.72c0-2.98-1.26-5.42-5.46-5.42-3.95,0-5.34,1.51-5.34,4.12v.88h-2.98v-.84c0-5,4.2-6.68,8.32-6.68,5.8,0,8.4,2.86,8.4,8.44v13.11h-2.06l-.55-2.98h-.08c-1.26,1.89-3.7,3.53-7.35,3.53-4.91,0-7.1-2.31-7.1-6.34Zm14.2-1.85v-1.76h-7.02c-2.65,0-4.03.92-4.03,3.61,0,2.35,1.26,3.87,4.5,3.87,4.16,0,6.55-2.14,6.55-5.71Z"></path><path class="cls-15" d="m1548.69,2686.31v-1.18h2.94v1.13c0,2.86,2.14,4.5,5.96,4.5s5.8-1.01,5.8-3.78c0-2.06-1.01-2.81-3.87-3.32l-4.62-.84c-3.02-.55-5.54-2.02-5.54-5.5,0-3.15,2.35-6.13,8.4-6.13s8.4,3.02,8.4,7.23v.88h-2.98v-.76c0-3.44-2.14-4.92-5.42-4.92-3.95,0-5.33,1.34-5.33,3.36s1.01,2.86,3.91,3.4l4.03.76c4.12.76,6.09,1.93,6.09,5.59,0,4.58-4.12,6.55-8.78,6.55-7.31,0-8.99-3.28-8.99-6.97Z"></path><path class="cls-15" d="m1589.6,2683.24h-15.96c.17,4.79,2.48,7.48,6.93,7.48,3.82,0,5.67-1.43,5.96-4.83h2.98c-.29,4.24-3.28,7.39-9.03,7.39-7.06,0-9.83-4.66-9.83-10.88s3.23-11.22,10-11.22,8.95,3.99,8.95,10.21v1.85Zm-3.11-2.98c0-4.45-1.72-6.55-5.92-6.55s-6.55,2.65-6.89,6.97h12.81v-.42Z"></path><path class="cls-15" d="m1594.85,2659.97h2.94v32.77h-2.94v-32.77Z"></path><path class="cls-15" d="m1605.14,2659.97h2.98v6.51h-2.98v-6.51Zm0,11.76h2.94v21h-2.94v-21Z"></path><path class="cls-15" d="m1615.47,2671.73h2.6l.29,3.49c1.01-2.14,3.28-4.03,7.35-4.03,4.75,0,7.77,2.52,7.77,7.94v13.61h-2.94v-13.27c0-4.33-2.14-5.71-5.5-5.71-3.82,0-6.64,2.69-6.64,5.63v13.36h-2.94v-21Z"></path><path class="cls-15" d="m1658.1,2683.24h-15.96c.17,4.79,2.48,7.48,6.93,7.48,3.82,0,5.67-1.43,5.96-4.83h2.98c-.29,4.24-3.28,7.39-9.03,7.39-7.06,0-9.83-4.66-9.83-10.88s3.23-11.22,10-11.22,8.95,3.99,8.95,10.21v1.85Zm-3.11-2.98c0-4.45-1.72-6.55-5.92-6.55s-6.55,2.65-6.89,6.97h12.81v-.42Z"></path><path class="cls-15" d="m1059.49,3538.49v-2.02h3.02v2.18c0,3.74,2.6,6.05,7.94,6.05s8.44-1.97,8.44-6.22c0-3.32-1.39-5.17-4.91-6.09l-6.64-1.72c-4.33-1.13-7.18-2.98-7.18-8.15s3.78-8.91,10.92-8.91,10.59,3.44,10.59,9.07v2.94h-3.03v-2.81c0-4.62-3.07-6.51-7.56-6.51-5.12,0-7.81,2.14-7.81,6.01,0,3.61,1.76,4.7,5.54,5.71l5.76,1.55c5.12,1.39,7.44,3.74,7.44,8.65,0,6.09-4.33,9.24-11.47,9.24-9.12,0-11.05-4.71-11.05-8.99Z"></path><path class="cls-15" d="m1089.18,3514.17h2.98v6.51h-2.98v-6.51Zm0,11.76h2.94v21h-2.94v-21Z"></path><path class="cls-15" d="m1130.22,3533.32v13.61h-2.94v-13.27c0-4.33-2.14-5.71-4.75-5.71-3.82,0-6.17,2.69-6.17,5.63v13.36h-2.94v-13.27c0-4.33-1.85-5.71-4.83-5.71-3.61,0-6.13,2.69-6.13,5.63v13.36h-2.94v-21h2.6l.29,3.49c1.01-2.02,3.07-4.03,6.93-4.03,2.94,0,5.38,1.39,6.43,4.28,1.22-2.39,3.57-4.28,7.14-4.28,4.28,0,7.31,2.52,7.31,7.94Z"></path><path class="cls-15" d="m1137.57,3525.93h2.39l.34,3.87h.08c1.13-2.48,4.03-4.41,7.86-4.41,6.3,0,9.66,3.99,9.66,11.01s-4.28,11.09-9.87,11.09c-3.78,0-6.38-1.6-7.44-3.7h-.08v11.55h-2.94v-29.41Zm17.18,10.63c0-7.18-3.4-8.61-6.93-8.61-4.24,0-7.56,2.73-7.56,8.44,0,6.01,3.44,8.57,7.44,8.57,3.02,0,7.06-1.47,7.06-8.4Z"></path><path class="cls-15" d="m1163.15,3514.17h2.94v32.77h-2.94v-32.77Z"></path><path class="cls-15" d="m1190.7,3537.44h-15.96c.17,4.79,2.48,7.48,6.93,7.48,3.82,0,5.67-1.43,5.96-4.83h2.98c-.29,4.24-3.28,7.39-9.03,7.39-7.06,0-9.83-4.66-9.83-10.88s3.23-11.21,10-11.21,8.95,3.99,8.95,10.21v1.85Zm-3.11-2.98c0-4.45-1.72-6.55-5.92-6.55s-6.55,2.65-6.89,6.97h12.81v-.42Z"></path><path class="cls-15" d="m1204.56,3536.6c0-6.38,3.23-11.21,10-11.21s8.95,3.91,8.95,8.95v.42h-3.11v-.63c0-3.82-1.64-6.09-5.84-6.09-4.75,0-7.01,3.11-7.01,8.4,0,5.63,2.39,8.49,6.93,8.49,3.82,0,5.84-1.85,5.92-5.67h3.02c-.08,4.66-3.15,8.23-9.03,8.23-7.22,0-9.83-4.75-9.83-10.88Z"></path><path class="cls-15" d="m1228.96,3539.54v-13.61h2.94v13.28c0,4.33,2.14,5.71,5.42,5.71,3.74,0,6.55-2.69,6.55-5.63v-13.36h2.94v21h-2.6l-.25-3.36h-.08c-.97,2.02-3.24,3.91-7.23,3.91-4.66,0-7.69-2.52-7.69-7.94Z"></path><path class="cls-15" d="m1254.16,3525.93h2.6l.29,3.91c1.01-2.14,3.07-4.45,6.76-4.45,1.26,0,2.18.21,3.02.54v3.15c-1.13-.5-2.1-.76-3.4-.76-3.74,0-6.34,2.81-6.34,5.76v12.85h-2.94v-21Z"></path><path class="cls-15" d="m1269.36,3540.51v-1.18h2.94v1.13c0,2.86,2.14,4.5,5.96,4.5s5.8-1.01,5.8-3.78c0-2.06-1.01-2.81-3.86-3.32l-4.62-.84c-3.02-.55-5.54-2.02-5.54-5.5,0-3.15,2.35-6.13,8.4-6.13s8.4,3.02,8.4,7.22v.88h-2.98v-.76c0-3.44-2.14-4.92-5.42-4.92-3.95,0-5.33,1.34-5.33,3.36s1.01,2.86,3.91,3.4l4.03.76c4.12.76,6.09,1.93,6.09,5.59,0,4.58-4.12,6.55-8.78,6.55-7.31,0-8.99-3.28-8.99-6.97Z"></path><path class="cls-15" d="m1293.01,3514.17h2.98v6.51h-2.98v-6.51Zm0,11.76h2.94v21h-2.94v-21Z"></path><path class="cls-15" d="m1300.19,3525.97v-.04h3.36l7.35,17.98h.08l7.1-17.98h3.07v.04l-8.74,20.96h-3.03l-9.2-20.96Z"></path><path class="cls-15" d="m1341.98,3537.44h-15.96c.17,4.79,2.48,7.48,6.93,7.48,3.82,0,5.67-1.43,5.96-4.83h2.98c-.29,4.24-3.28,7.39-9.03,7.39-7.06,0-9.83-4.66-9.83-10.88s3.23-11.21,10-11.21,8.95,3.99,8.95,10.21v1.85Zm-3.11-2.98c0-4.45-1.72-6.55-5.92-6.55s-6.55,2.65-6.89,6.97h12.81v-.42Z"></path><path class="cls-15" d="m1359.2,3524.63h-3.36v-5.08c0-3.95.88-5.29,3.4-5.96l.67,1.85c-1.76.67-2.06,1.09-2.06,3.78v.34h1.34v5.08Zm5.92,0h-3.36v-5.08c0-3.95.88-5.29,3.4-5.96l.67,1.85c-1.76.67-2.06,1.09-2.06,3.78v.34h1.34v5.08Z"></path><path class="cls-15" d="m1367.1,3540.51v-1.18h2.94v1.13c0,2.86,2.14,4.5,5.96,4.5s5.8-1.01,5.8-3.78c0-2.06-1.01-2.81-3.86-3.32l-4.62-.84c-3.02-.55-5.54-2.02-5.54-5.5,0-3.15,2.35-6.13,8.4-6.13s8.4,3.02,8.4,7.22v.88h-2.98v-.76c0-3.44-2.14-4.92-5.42-4.92-3.95,0-5.33,1.34-5.33,3.36s1.01,2.86,3.91,3.4l4.03.76c4.12.76,6.09,1.93,6.09,5.59,0,4.58-4.12,6.55-8.78,6.55-7.31,0-8.99-3.28-8.99-6.97Z"></path><path class="cls-15" d="m1387.17,3523.37c1.76-.67,2.06-1.09,2.06-3.78v-.34h-1.34v-5.08h3.36v5.08c0,3.95-.88,5.29-3.4,5.97l-.67-1.85Zm5.92,0c1.76-.67,2.06-1.09,2.06-3.78v-.34h-1.34v-5.08h3.36v5.08c0,3.95-.88,5.29-3.4,5.97l-.67-1.85Z"></path><line class="cls-9" x1="1445.6" y1="1843.88" x2="1445.6" y2="1928.88"></line><path class="cls-15" d="m848.24,900.55h-3.36v-5.08c0-3.95.88-5.29,3.4-5.97l.67,1.85c-1.76.67-2.06,1.09-2.06,3.78v.34h1.34v5.08Zm5.92,0h-3.36v-5.08c0-3.95.88-5.29,3.4-5.97l.67,1.85c-1.76.67-2.06,1.09-2.06,3.78v.34h1.34v5.08Z"></path><path class="cls-15" d="m864.28,896.81v5.04h5.92v2.44h-5.92v18.57h-2.94v-18.57h-4.16v-2.44h4.16v-5.42c0-5.29,3.15-6.89,6.38-6.89,1.85,0,2.98.29,3.74.55v2.6c-.71-.21-1.89-.46-3.49-.46-2.65,0-3.7,1.76-3.7,4.58Z"></path><path class="cls-15" d="m874.82,899.29c1.76-.67,2.06-1.09,2.06-3.78v-.34h-1.34v-5.08h3.36v5.08c0,3.95-.88,5.29-3.4,5.97l-.67-1.85Zm5.92,0c1.76-.67,2.06-1.09,2.06-3.78v-.34h-1.34v-5.08h3.36v5.08c0,3.95-.88,5.29-3.4,5.97l-.67-1.85Z"></path><path class="cls-15" d="m898.68,912.52c0-6.38,3.23-11.22,10-11.22s8.95,3.91,8.95,8.95v.42h-3.11v-.63c0-3.82-1.64-6.09-5.84-6.09-4.75,0-7.01,3.11-7.01,8.4,0,5.63,2.39,8.49,6.93,8.49,3.82,0,5.84-1.85,5.92-5.67h3.02c-.08,4.66-3.15,8.23-9.03,8.23-7.22,0-9.83-4.75-9.83-10.88Z"></path><path class="cls-15" d="m921.82,912.35c0-6.22,3.32-11.05,10.38-11.05,6.6,0,10.25,4.83,10.25,11.05s-3.7,11.05-10.29,11.05c-7.27,0-10.33-4.83-10.33-11.05Zm17.56,0c0-5.33-2.9-8.49-7.22-8.49-4.75,0-7.27,3.15-7.27,8.49s2.56,8.49,7.27,8.49c4.33,0,7.22-3.15,7.22-8.49Z"></path><path class="cls-15" d="m948.32,901.85h2.61l.29,3.49c1.01-2.14,3.28-4.03,7.35-4.03,4.75,0,7.77,2.52,7.77,7.94v13.61h-2.94v-13.27c0-4.33-2.14-5.71-5.5-5.71-3.82,0-6.64,2.69-6.64,5.63v13.36h-2.94v-21Z"></path><path class="cls-15" d="m973.69,901.85h2.6l.29,3.49c1.01-2.14,3.28-4.03,7.35-4.03,4.75,0,7.77,2.52,7.77,7.94v13.61h-2.94v-13.27c0-4.33-2.14-5.71-5.5-5.71-3.82,0-6.64,2.69-6.64,5.63v13.36h-2.94v-21Z"></path><path class="cls-15" d="m1016.33,913.36h-15.96c.17,4.79,2.48,7.48,6.93,7.48,3.82,0,5.67-1.43,5.96-4.83h2.98c-.29,4.24-3.28,7.39-9.03,7.39-7.06,0-9.83-4.66-9.83-10.88s3.23-11.22,10-11.22,8.95,3.99,8.95,10.21v1.85Zm-3.11-2.98c0-4.45-1.72-6.55-5.92-6.55s-6.55,2.65-6.89,6.97h12.81v-.42Z"></path><path class="cls-15" d="m1020.52,912.52c0-6.38,3.23-11.22,10-11.22s8.95,3.91,8.95,8.95v.42h-3.11v-.63c0-3.82-1.64-6.09-5.84-6.09-4.75,0-7.01,3.11-7.01,8.4,0,5.63,2.39,8.49,6.93,8.49,3.82,0,5.84-1.85,5.92-5.67h3.02c-.08,4.66-3.15,8.23-9.03,8.23-7.22,0-9.83-4.75-9.83-10.88Z"></path><path class="cls-15" d="m1056.31,920.16v2.6c-.76.21-2.14.59-4.03.59-3.82,0-6.34-1.6-6.34-6.89v-12.18h-4.16v-2.44h4.16v-6.05l2.94-1.43v7.48h5.92v2.44h-5.92v11.8c0,2.81.76,4.58,3.4,4.58,1.6,0,3.23-.29,4.03-.5Z"></path><path class="cls-15" d="m1059.25,916.42v-1.18h2.94v1.13c0,2.86,2.14,4.5,5.96,4.5s5.8-1.01,5.8-3.78c0-2.06-1.01-2.81-3.87-3.32l-4.62-.84c-3.02-.55-5.54-2.02-5.54-5.5,0-3.15,2.35-6.13,8.4-6.13s8.4,3.02,8.4,7.23v.88h-2.98v-.76c0-3.44-2.14-4.91-5.42-4.91-3.95,0-5.34,1.34-5.34,3.36s1.01,2.86,3.91,3.4l4.03.76c4.12.76,6.09,1.93,6.09,5.59,0,4.58-4.12,6.55-8.78,6.55-7.31,0-8.99-3.28-8.99-6.97Z"></path><path class="cls-15" d="m1096.71,896.81v5.04h5.92v2.44h-5.92v18.57h-2.94v-18.57h-4.16v-2.44h4.16v-5.42c0-5.29,3.15-6.89,6.38-6.89,1.85,0,2.98.29,3.74.55v2.6c-.71-.21-1.89-.46-3.49-.46-2.65,0-3.7,1.76-3.7,4.58Z"></path><path class="cls-15" d="m1107.04,901.85h2.6l.29,3.91c1.01-2.14,3.07-4.45,6.76-4.45,1.26,0,2.18.21,3.02.55v3.15c-1.13-.5-2.1-.76-3.4-.76-3.74,0-6.34,2.81-6.34,5.75v12.85h-2.94v-21Z"></path><path class="cls-15" d="m1122.04,912.35c0-6.22,3.32-11.05,10.38-11.05,6.6,0,10.25,4.83,10.25,11.05s-3.7,11.05-10.29,11.05c-7.27,0-10.33-4.83-10.33-11.05Zm17.56,0c0-5.33-2.9-8.49-7.23-8.49-4.75,0-7.27,3.15-7.27,8.49s2.56,8.49,7.27,8.49c4.33,0,7.23-3.15,7.23-8.49Z"></path><path class="cls-15" d="m1179.25,909.24v13.61h-2.94v-13.27c0-4.33-2.14-5.71-4.75-5.71-3.82,0-6.18,2.69-6.18,5.63v13.36h-2.94v-13.27c0-4.33-1.85-5.71-4.83-5.71-3.61,0-6.13,2.69-6.13,5.63v13.36h-2.94v-21h2.6l.29,3.49c1.01-2.02,3.07-4.03,6.93-4.03,2.94,0,5.38,1.39,6.43,4.28,1.22-2.39,3.57-4.28,7.14-4.28,4.28,0,7.31,2.52,7.31,7.94Z"></path><path class="cls-15" d="m1199.06,919.36h-.08l-.76,3.49h-1.97v-32.77h2.94v15.25h.04c1.26-2.31,4.08-4.03,7.69-4.03,6.3,0,9.66,3.99,9.66,11.01s-4.29,11.09-9.87,11.09c-3.78,0-6.55-1.64-7.65-4.03Zm14.37-6.89c0-7.18-3.4-8.61-6.93-8.61-4.24,0-7.56,2.73-7.56,8.44,0,6.01,3.44,8.57,7.43,8.57,3.02,0,7.06-1.47,7.06-8.4Z"></path><path class="cls-15" d="m1220.99,917.05c0-3.95,2.23-6.09,7.86-6.09h6.34v-1.72c0-2.98-1.26-5.42-5.46-5.42-3.95,0-5.33,1.51-5.33,4.12v.88h-2.98v-.84c0-5,4.2-6.68,8.32-6.68,5.8,0,8.4,2.86,8.4,8.44v13.11h-2.06l-.54-2.98h-.08c-1.26,1.89-3.7,3.53-7.35,3.53-4.92,0-7.1-2.31-7.1-6.34Zm14.2-1.85v-1.76h-7.01c-2.65,0-4.03.92-4.03,3.61,0,2.35,1.26,3.86,4.5,3.86,4.16,0,6.55-2.14,6.55-5.71Z"></path><path class="cls-15" d="m1243.58,916.42v-1.18h2.94v1.13c0,2.86,2.14,4.5,5.96,4.5s5.8-1.01,5.8-3.78c0-2.06-1.01-2.81-3.87-3.32l-4.62-.84c-3.02-.55-5.54-2.02-5.54-5.5,0-3.15,2.35-6.13,8.4-6.13s8.4,3.02,8.4,7.23v.88h-2.98v-.76c0-3.44-2.14-4.91-5.42-4.91-3.95,0-5.34,1.34-5.34,3.36s1.01,2.86,3.91,3.4l4.03.76c4.12.76,6.09,1.93,6.09,5.59,0,4.58-4.12,6.55-8.78,6.55-7.31,0-8.99-3.28-8.99-6.97Z"></path><path class="cls-15" d="m1284.5,913.36h-15.96c.17,4.79,2.48,7.48,6.93,7.48,3.82,0,5.67-1.43,5.96-4.83h2.98c-.29,4.24-3.28,7.39-9.03,7.39-7.06,0-9.83-4.66-9.83-10.88s3.23-11.22,10-11.22,8.95,3.99,8.95,10.21v1.85Zm-3.11-2.98c0-4.45-1.72-6.55-5.92-6.55s-6.55,2.65-6.89,6.97h12.81v-.42Z"></path><path class="cls-15" d="m1289.74,890.09h2.94v32.77h-2.94v-32.77Z"></path><path class="cls-15" d="m1300.03,890.09h2.98v6.51h-2.98v-6.51Zm0,11.76h2.94v21h-2.94v-21Z"></path><path class="cls-15" d="m1310.37,901.85h2.6l.29,3.49c1.01-2.14,3.28-4.03,7.35-4.03,4.75,0,7.77,2.52,7.77,7.94v13.61h-2.94v-13.27c0-4.33-2.14-5.71-5.5-5.71-3.82,0-6.64,2.69-6.64,5.63v13.36h-2.94v-21Z"></path><path class="cls-15" d="m1353,913.36h-15.96c.17,4.79,2.48,7.48,6.93,7.48,3.82,0,5.67-1.43,5.96-4.83h2.98c-.29,4.24-3.28,7.39-9.03,7.39-7.06,0-9.83-4.66-9.83-10.88s3.23-11.22,10-11.22,8.95,3.99,8.95,10.21v1.85Zm-3.11-2.98c0-4.45-1.72-6.55-5.92-6.55s-6.55,2.65-6.89,6.97h12.81v-.42Z"></path><path class="cls-15" d="m807.65,965.9c0-3.95,2.23-6.09,7.86-6.09h6.34v-1.72c0-2.98-1.26-5.42-5.46-5.42-3.95,0-5.33,1.51-5.33,4.12v.88h-2.98v-.84c0-5,4.2-6.68,8.32-6.68,5.8,0,8.4,2.86,8.4,8.44v13.11h-2.06l-.55-2.98h-.08c-1.26,1.89-3.7,3.53-7.35,3.53-4.91,0-7.1-2.31-7.1-6.34Zm14.2-1.85v-1.76h-7.02c-2.65,0-4.03.92-4.03,3.61,0,2.35,1.26,3.86,4.5,3.86,4.16,0,6.55-2.14,6.55-5.71Z"></path><path class="cls-15" d="m832.13,950.69h2.6l.29,3.49c1.01-2.14,3.28-4.03,7.35-4.03,4.75,0,7.77,2.52,7.77,7.94v13.61h-2.94v-13.27c0-4.33-2.14-5.71-5.5-5.71-3.82,0-6.64,2.69-6.64,5.63v13.36h-2.94v-21Z"></path><path class="cls-15" d="m855.82,961.24c0-7.1,4.28-11.09,10.04-11.09,3.7,0,6.22,1.6,7.31,3.74h.04v-14.95h2.94v32.77h-1.97l-.67-3.61h-.08c-1.18,2.31-3.95,4.16-7.77,4.16-6.3,0-9.83-3.99-9.83-11.01Zm17.64-.5c0-5.5-3.36-8.07-7.35-8.07-3.11,0-7.14,1.47-7.14,8.4s3.61,8.61,7.14,8.61c4.24,0,7.35-2.73,7.35-8.95Z"></path><path class="cls-15" d="m893.16,938.93h2.98v6.51h-2.98v-6.51Zm0,11.76h2.94v21h-2.94v-21Z"></path><path class="cls-15" d="m914.45,969.01v2.6c-.76.21-2.14.59-4.03.59-3.82,0-6.34-1.6-6.34-6.89v-12.18h-4.16v-2.44h4.16v-6.05l2.94-1.43v7.48h5.92v2.44h-5.92v11.8c0,2.81.76,4.58,3.4,4.58,1.6,0,3.23-.29,4.03-.5Z"></path><path class="cls-15" d="m917.39,965.27v-1.18h2.94v1.13c0,2.86,2.14,4.5,5.96,4.5s5.8-1.01,5.8-3.78c0-2.06-1.01-2.81-3.87-3.32l-4.62-.84c-3.02-.55-5.54-2.02-5.54-5.5,0-3.15,2.35-6.13,8.4-6.13s8.4,3.02,8.4,7.23v.88h-2.98v-.76c0-3.44-2.14-4.91-5.42-4.91-3.95,0-5.33,1.34-5.33,3.36s1.01,2.86,3.91,3.4l4.03.76c4.12.76,6.09,1.93,6.09,5.59,0,4.58-4.12,6.55-8.78,6.55-7.31,0-8.99-3.28-8.99-6.97Z"></path><path class="cls-15" d="m949.02,961.24c0-7.1,4.29-11.09,10.04-11.09,3.7,0,6.22,1.6,7.31,3.74h.04v-14.95h2.94v32.77h-1.97l-.67-3.61h-.08c-1.18,2.31-3.95,4.16-7.77,4.16-6.3,0-9.83-3.99-9.83-11.01Zm17.64-.5c0-5.5-3.36-8.07-7.35-8.07-3.11,0-7.14,1.47-7.14,8.4s3.61,8.61,7.14,8.61c4.24,0,7.35-2.73,7.35-8.95Z"></path><path class="cls-15" d="m993.96,962.2h-15.96c.17,4.79,2.48,7.48,6.93,7.48,3.82,0,5.67-1.43,5.96-4.83h2.98c-.29,4.24-3.28,7.39-9.03,7.39-7.06,0-9.83-4.66-9.83-10.88s3.23-11.22,10-11.22,8.95,3.99,8.95,10.21v1.85Zm-3.11-2.98c0-4.45-1.72-6.55-5.92-6.55s-6.55,2.65-6.89,6.97h12.81v-.42Z"></path><path class="cls-15" d="m997.95,965.27v-1.18h2.94v1.13c0,2.86,2.14,4.5,5.96,4.5s5.8-1.01,5.8-3.78c0-2.06-1.01-2.81-3.87-3.32l-4.62-.84c-3.02-.55-5.54-2.02-5.54-5.5,0-3.15,2.35-6.13,8.4-6.13s8.4,3.02,8.4,7.23v.88h-2.98v-.76c0-3.44-2.14-4.91-5.42-4.91-3.95,0-5.34,1.34-5.34,3.36s1.01,2.86,3.91,3.4l4.03.76c4.12.76,6.09,1.93,6.09,5.59,0,4.58-4.12,6.55-8.78,6.55-7.31,0-8.99-3.28-8.99-6.97Z"></path><path class="cls-15" d="m1019.91,961.36c0-6.38,3.23-11.22,10-11.22s8.95,3.91,8.95,8.95v.42h-3.11v-.63c0-3.82-1.64-6.09-5.84-6.09-4.75,0-7.01,3.11-7.01,8.4,0,5.63,2.39,8.49,6.93,8.49,3.82,0,5.84-1.85,5.92-5.67h3.03c-.08,4.66-3.15,8.23-9.03,8.23-7.23,0-9.83-4.75-9.83-10.88Z"></path><path class="cls-15" d="m1062,962.2h-15.96c.17,4.79,2.48,7.48,6.93,7.48,3.82,0,5.67-1.43,5.96-4.83h2.98c-.29,4.24-3.28,7.39-9.03,7.39-7.06,0-9.83-4.66-9.83-10.88s3.23-11.22,10-11.22,8.95,3.99,8.95,10.21v1.85Zm-3.11-2.98c0-4.45-1.72-6.55-5.92-6.55s-6.55,2.65-6.89,6.97h12.81v-.42Z"></path><path class="cls-15" d="m1067.88,950.69h2.6l.29,3.49c1.01-2.14,3.28-4.03,7.35-4.03,4.75,0,7.77,2.52,7.77,7.94v13.61h-2.94v-13.27c0-4.33-2.14-5.71-5.5-5.71-3.82,0-6.64,2.69-6.64,5.63v13.36h-2.94v-21Z"></path><path class="cls-15" d="m1091.57,961.24c0-7.1,4.28-11.09,10.04-11.09,3.7,0,6.22,1.6,7.31,3.74h.04v-14.95h2.94v32.77h-1.97l-.67-3.61h-.08c-1.18,2.31-3.95,4.16-7.77,4.16-6.3,0-9.83-3.99-9.83-11.01Zm17.64-.5c0-5.5-3.36-8.07-7.35-8.07-3.11,0-7.14,1.47-7.14,8.4s3.61,8.61,7.14,8.61c4.24,0,7.35-2.73,7.35-8.95Z"></path><path class="cls-15" d="m1136.51,962.2h-15.96c.17,4.79,2.48,7.48,6.93,7.48,3.82,0,5.67-1.43,5.96-4.83h2.98c-.29,4.24-3.28,7.39-9.03,7.39-7.06,0-9.83-4.66-9.83-10.88s3.23-11.22,10-11.22,8.95,3.99,8.95,10.21v1.85Zm-3.11-2.98c0-4.45-1.72-6.55-5.92-6.55s-6.55,2.65-6.89,6.97h12.81v-.42Z"></path><path class="cls-15" d="m1142.39,950.69h2.6l.29,3.91c1.01-2.14,3.07-4.45,6.76-4.45,1.26,0,2.19.21,3.03.55v3.15c-1.13-.5-2.1-.76-3.4-.76-3.74,0-6.34,2.81-6.34,5.75v12.85h-2.94v-21Z"></path><path class="cls-15" d="m1169.35,938.93h2.98v6.51h-2.98v-6.51Zm0,11.76h2.94v21h-2.94v-21Z"></path><path class="cls-15" d="m1177.79,965.27v-1.18h2.94v1.13c0,2.86,2.14,4.5,5.96,4.5s5.8-1.01,5.8-3.78c0-2.06-1.01-2.81-3.87-3.32l-4.62-.84c-3.02-.55-5.54-2.02-5.54-5.5,0-3.15,2.35-6.13,8.4-6.13s8.4,3.02,8.4,7.23v.88h-2.98v-.76c0-3.44-2.14-4.91-5.42-4.91-3.95,0-5.34,1.34-5.34,3.36s1.01,2.86,3.91,3.4l4.03.76c4.12.76,6.09,1.93,6.09,5.59,0,4.58-4.12,6.55-8.78,6.55-7.31,0-8.99-3.28-8.99-6.97Z"></path><path class="cls-15" d="m1210.68,964.3v-13.61h2.94v13.27c0,4.33,2.14,5.71,5.42,5.71,3.74,0,6.55-2.69,6.55-5.63v-13.36h2.94v21h-2.61l-.25-3.36h-.08c-.97,2.02-3.23,3.91-7.22,3.91-4.66,0-7.69-2.52-7.69-7.94Z"></path><path class="cls-15" d="m1235.88,950.69h2.6l.29,3.49c1.01-2.14,3.28-4.03,7.35-4.03,4.75,0,7.77,2.52,7.77,7.94v13.61h-2.94v-13.27c0-4.33-2.14-5.71-5.5-5.71-3.82,0-6.64,2.69-6.64,5.63v13.36h-2.94v-21Z"></path><path class="cls-15" d="m1261.25,938.93h2.94v32.77h-2.94v-32.77Z"></path><path class="cls-15" d="m1269.86,961.2c0-6.22,3.32-11.05,10.38-11.05,6.6,0,10.25,4.83,10.25,11.05s-3.7,11.05-10.29,11.05c-7.27,0-10.33-4.83-10.33-11.05Zm17.56,0c0-5.33-2.9-8.49-7.22-8.49-4.75,0-7.27,3.15-7.27,8.49s2.56,8.49,7.27,8.49c4.33,0,7.22-3.15,7.22-8.49Z"></path><path class="cls-15" d="m1294.68,961.2c0-6.22,3.32-11.05,10.38-11.05,6.6,0,10.25,4.83,10.25,11.05s-3.7,11.05-10.29,11.05c-7.27,0-10.33-4.83-10.33-11.05Zm17.56,0c0-5.33-2.9-8.49-7.22-8.49-4.75,0-7.27,3.15-7.27,8.49s2.56,8.49,7.27,8.49c4.33,0,7.22-3.15,7.22-8.49Z"></path><path class="cls-15" d="m1321.18,950.69h2.39l.34,3.86h.08c1.13-2.48,4.03-4.41,7.86-4.41,6.3,0,9.66,3.99,9.66,11.01s-4.29,11.09-9.87,11.09c-3.78,0-6.39-1.6-7.44-3.7h-.08v11.55h-2.94v-29.41Zm17.18,10.63c0-7.18-3.4-8.61-6.93-8.61-4.24,0-7.56,2.73-7.56,8.44,0,6.01,3.44,8.57,7.43,8.57,3.03,0,7.06-1.47,7.06-8.4Z"></path><path class="cls-15" d="m1364.65,962.2h-15.96c.17,4.79,2.48,7.48,6.93,7.48,3.82,0,5.67-1.43,5.96-4.83h2.98c-.29,4.24-3.28,7.39-9.03,7.39-7.06,0-9.83-4.66-9.83-10.88s3.23-11.22,10-11.22,8.95,3.99,8.95,10.21v1.85Zm-3.11-2.98c0-4.45-1.72-6.55-5.92-6.55s-6.55,2.65-6.89,6.97h12.81v-.42Z"></path><path class="cls-15" d="m1368.85,961.24c0-7.1,4.29-11.09,10.04-11.09,3.7,0,6.22,1.6,7.31,3.74h.04v-14.95h2.94v32.77h-1.97l-.67-3.61h-.08c-1.18,2.31-3.95,4.16-7.77,4.16-6.3,0-9.83-3.99-9.83-11.01Zm17.64-.5c0-5.5-3.36-8.07-7.35-8.07-3.11,0-7.14,1.47-7.14,8.4s3.61,8.61,7.14,8.61c4.24,0,7.35-2.73,7.35-8.95Z"></path><circle class="cls-17" cx="954.84" cy="692.28" r="86.4"></circle><circle class="cls-16" cx="1443.28" cy="2040.32" r="100.53"></circle><rect class="cls-16" x="863.88" y="2257.62" width="111.67" height="111.67" rx="55.84" ry="55.84"></rect><path class="cls-15" d="m889.56,374.73c6.81,0,12.71,5.9,12.71,12.71,0,4.54-2.72,8.17-5.9,10.44-33.59,20.88-152.95,168.83-247.35,168.83-54.01,0-78.97-37.22-78.97-81.24,0-56.28,54.01-123.9,111.19-123.9,4.08,0,3.63,22.24,0,22.24-34.04,0-54.46-30.41-54.46-67.62,0-49.92,31.77-113.46,97.12-113.46,33.59,0,49.02,23.6,55.82,37.67.91,1.82.91,3.63.91,5.45,0,6.81-5.45,12.25-12.25,12.25-4.99,0-9.53-2.72-11.35-6.81-4.99-11.35-14.07-23.6-33.13-23.6-48.11,0-72.16,48.56-72.16,88.5,0,25.42,11.8,42.66,29.5,42.66,19.97,0,20.42,27.68,0,27.68-41.75,0-86.23,55.37-86.23,98.94,0,33.13,16.34,56.28,54.01,56.28,81.69,0,196.52-141.15,233.73-164.75,2.27-1.36,4.54-2.27,6.81-2.27Zm178.36-67.17c6.81,0,12.25,5.45,12.25,12.25,0,1.82-.45,3.63-.91,5.45-24.96,50.83-157.49,241.9-213.31,241.9-15.43,0-27.68-11.35-27.68-33.13,0-33.59,30.41-111.65,39.94-150.22,1.36-5.45,6.35-9.53,12.25-9.53,8.62,0,14.07,8.17,12.25,15.88-10.44,39.48-39.48,114.82-39.48,143.87,0,6.35.45,8.17,2.72,8.17,37.22,0,166.56-178.82,190.62-227.83,2.27-4.08,6.35-6.81,11.35-6.81Zm-177.46,4.99c.45-7.26,7.72-16.34,17.25-16.34,8.62,0,14.98,8.17,14.07,16.34-.45,9.53-7.72,16.79-16.34,16.79-9.08,0-15.43-7.26-14.98-16.79Zm151.59,65.81c-6.81,0-12.25-5.45-12.25-12.25,0-3.18.91-5.9,2.72-7.72,43.57-53.1,81.69-109.83,81.69-122.99,0-5.45-2.72-7.72-4.99-7.72-11.8,0-19.97,38.12-40.39,120.72-8.17,33.13-75.79,254.16-113.46,383.96-1.36,4.99-5.9,9.08-11.8,9.08-8.17,0-14.52-8.17-11.8-16.34,37.67-129.8,104.39-349.92,112.56-383.05,22.69-91.68,30.41-139.33,64.9-139.33,13.62,0,29.95,10.89,29.95,32.68,0,24.51-44.48,86.23-87.59,138.42-2.27,3.18-5.45,4.54-9.53,4.54Zm200.6-4.99c6.81,0,12.71,5.9,12.71,12.71,0,4.08-1.82,7.26-4.99,9.53-70.8,58.55-151.59,148.86-221.03,148.86-20.42,0-36.76-2.72-52.19-9.53-4.54-1.82-7.72-6.35-7.72-11.35,0-6.81,5.9-12.71,12.71-12.71,1.82,0,3.18.45,4.99,1.36,12.71,4.99,24.51,7.26,42.21,7.26,57.19,0,132.98-83.51,205.59-142.96,1.82-1.82,4.54-3.18,7.72-3.18Zm65.81,97.58c6.81,0,12.25,5.9,12.25,12.71,0,3.18-1.36,6.35-3.18,8.62-37.22,38.58-70.8,74.89-98.03,74.89-15.88,0-28.14-11.35-28.14-33.13,0-33.59,29.95-111.65,39.94-150.22,1.82-5.45,6.35-9.08,12.25-9.08,8.62,0,14.07,8.17,12.25,15.43-10.89,40.39-39.48,114.82-39.48,143.87,0,7.26.91,8.17,3.18,8.17,14.07,0,42.66-29.05,79.88-67.17,2.27-2.27,5.45-4.08,9.08-4.08Zm-64.45-158.39c.45-8.17,7.72-16.34,16.79-16.34s14.98,8.17,14.52,16.34c-.91,9.53-8.17,16.79-16.79,16.79-9.08,0-15.43-7.26-14.52-16.79Z"></path><path class="cls-15" d="m880.48,1281.18c6.81,0,12.71,5.45,12.71,12.25,0,3.63-1.82,6.81-4.08,9.08-87.59,82.6-216.49,152.49-333.13,152.49-6.81,0-12.25-5.45-12.25-12.25s5.45-12.71,12.25-12.71c109.38,0,231.92-66.26,315.88-145.69,2.27-1.82,5.45-3.18,8.62-3.18Zm-329.04,161.57c0-6.81,5.45-12.25,12.25-12.71,154.31-5.9,203.78-135.25,203.78-195.61s-32.68-109.38-103.48-118c-6.35-.45-11.35-.45-16.34.45-7.72,1.36-14.98-4.54-14.98-12.25,0-5.9,4.54-10.89,9.99-12.25,8.17-1.36,15.88-1.82,24.05-.45,84.42,9.53,125.72,72.62,125.72,142.51s-55.37,214.22-227.83,220.57c-6.81.45-13.16-4.99-13.16-12.25Zm38.12,2.27c-8.17,0-13.62-8.17-11.8-15.88l86.69-319.51c1.36-5.45,6.35-9.53,12.25-9.53,8.17,0,13.62,8.17,11.8,15.88l-86.69,319.51c-1.36,5.45-6.35,9.53-12.25,9.53Zm238.27-56.28c0-54.46,35.85-126.62,95.31-126.62,37.67,0,54.01,30.86,54.01,64.9,0,54.01-39.48,128.89-96.22,128.89-37.22,0-53.1-31.77-53.1-67.17Zm124.35-61.72c0-24.05-8.62-39.94-29.05-39.94-41.3,0-70.35,56.73-70.35,101.66,0,25.42,8.17,42.21,28.14,42.21,38.58,0,71.25-59.45,71.25-103.93Zm400.3-235.55c6.81,0,12.71,5.9,12.71,12.71,0,2.27-.91,4.54-1.82,6.35-107.11,180.18-254.61,345.38-298.18,345.38-12.71,0-22.24-8.62-22.24-25.42,0-39.49,53.55-137.06,70.8-161.12,2.72-4.08,5.45,10.89,4.54,9.98s16.34-.45,12.25,4.54c-18.15,19.97-38.12,30.86-55.37,30.86-19.52,0-33.59-14.07-33.59-38.58,0-2.72,22.69,2.72,19.06,7.26-13.62,15.43-64.9,107.56-106.2,113.01-7.72.91-14.07-4.99-14.07-12.25,0-6.35,4.54-11.8,10.44-12.25,27.23-3.63,76.25-88.95,91.68-105.75,9.53-9.98,24.05-4.54,24.05,9.98,0,10.89,2.72,13.62,8.62,13.62,9.08,0,22.69-6.81,37.22-23.15,7.72-7.26,14.52-13.62,23.15-4.54,7.72,7.26,3.63,14.52-1.82,21.79-15.88,22.24-65.81,115.73-65.81,146.59,0,4.08-3.63.45-2.72.45,25.87,0,170.19-153.4,276.4-333.13,2.27-3.63,6.35-6.35,10.89-6.35Zm9.98,266.41c6.81,0,12.25,5.45,12.25,12.25,0,4.54-2.27,8.17-5.45,10.44-78.52,49.92-115.73,41.3-136.61,24.96-2.72-2.27-4.54-5.9-4.54-9.98,0-6.81,5.45-12.25,12.25-12.25,2.72,0,5.45.91,7.72,2.27,13.62,10.89,41.3,16.34,107.56-25.87,1.82-1.36,4.54-1.82,6.81-1.82Zm-101.21,97.58c-8.62,0-14.07-8.17-12.25-15.43l91.68-339.93c1.82-5.45,6.35-9.53,12.25-9.53,8.62,0,14.07,8.62,12.25,15.88l-91.68,339.93c-1.82,5.45-6.35,9.08-12.25,9.08Z"></path><path class="cls-15" d="m789.57,1976.75c6.81,0,12.71,5.9,12.71,12.71,0,2.27-.91,4.54-1.82,6.35-105.29,177.46-249.16,348.1-304.53,344.93-44.48-2.27-58.55-60.36-60.82-83.05-.91-7.26,4.99-13.62,12.25-13.62,6.35,0,11.8,4.54,12.25,10.89,2.27,19.06,13.62,59.91,37.22,61.27,37.22,1.82,177.46-156.58,281.84-333.13,2.27-3.63,6.35-6.35,10.89-6.35Zm-10.89,538.27c-8.62,0-14.07-8.17-12.25-15.43l91.22-338.57c15.88,7.72,20.88,9.08,20.42,8.17-44.02,50.83-91.22,93.95-114.37,104.84-54.01,24.51-149.32-34.95-167.47-103.02-1.82-7.26,3.63-15.88,12.25-15.88,5.9,0,10.44,4.08,12.25,9.53,14.52,54.46,94.4,103.93,132.07,86.69,19.52-9.08,63.99-49.47,107.11-99.39,10.44-10.89,26.78-1.36,22.24,12.71l-91.22,341.3c-1.82,5.45-6.35,9.08-12.25,9.08Zm-80.33-174.28c-8.62,0-14.07-8.17-12.25-15.43l91.68-339.93c1.82-5.45,6.35-9.53,12.25-9.53,8.62,0,14.07,8.62,12.25,15.88l-91.68,339.93c-1.81,5.45-6.35,9.08-12.25,9.08Zm139.79-46.29c-6.81,0-12.25-5.45-12.25-12.25,0-2.27.45-4.08,1.36-5.9,27.69-50.83,68.99-128.89,123.45-128.89,68.98,0,58.55,139.79-23.15,189.71-29.95,19.06-54.01-29.05-24.05-42.66,28.59-12.71,78.52-44.02,89.41-58.55,44.48-58.09,85.32-112.56,102.57-147.5,2.27-4.08,6.35-7.26,11.35-7.26,6.81,0,12.71,5.9,12.71,12.71,0,1.82-.91,4.08-1.36,5.45-18.15,36.76-60.82,93.95-105.29,152.04-14.52,18.61-68.08,52.19-99.39,65.81-.91.45-.91,0,1.36-.91,63.09-39.03,70.8-143.87,35.85-143.87-37.22,0-73.98,64.9-101.66,115.73-2.27,4.08-6.35,6.35-10.89,6.35Zm242.81-142.06c-6.81,0-12.25-5.45-12.25-12.25,0-3.18.91-5.9,2.72-7.72,43.57-53.1,81.69-109.83,81.69-122.99,0-5.45-2.72-7.72-4.99-7.72-11.8,0-19.97,38.12-40.39,120.72-8.17,33.13-75.79,254.16-113.46,383.96-1.36,4.99-5.9,9.08-11.8,9.08-8.17,0-14.52-8.17-11.8-16.34,37.67-129.8,104.39-349.92,112.56-383.05,22.69-91.68,30.41-139.33,64.9-139.33,13.62,0,29.95,10.89,29.95,32.68,0,24.51-44.48,86.23-87.59,138.42-2.27,3.18-5.45,4.54-9.53,4.54Zm128.44,61.27c6.81,0,12.71,5.9,12.71,12.71,0,4.08-1.82,7.26-4.99,9.53-42.21,34.95-85.78,75.34-147.5,81.24-21.79,2.27-38.58-3.18-53.56-9.53-4.54-1.82-7.72-6.35-7.72-11.35,0-6.81,5.9-12.71,12.71-12.71,1.82,0,3.18.45,4.99,1.36,13.16,5.45,24.51,9.08,40.85,7.72,53.55-4.99,91.68-40.85,134.79-75.79,1.82-1.82,4.54-3.18,7.72-3.18Zm-7.26,41.3c-6.81,0-12.25-5.45-12.25-12.25,0-4.54,2.27-8.62,6.35-10.89,24.51-13.62,43.12-26.78,51.28-33.58,6.35-5.9,8.62-11.35,8.62-16.79s-1.82-8.17-5.9-8.17c-8.62,0-16.34,9.99-20.88,28.59-9.08,36.76-27.23,83.05-27.23,104.84,0,7.26,1.36,9.08,3.63,9.08,12.71,0,155.22-142.51,188.8-200.15,2.27-3.63,6.35-6.35,10.89-6.35,6.81,0,12.71,5.9,12.71,12.71,0,2.27-.91,4.54-1.82,6.35-35.85,60.82-180.63,212.4-210.59,212.4-16.34,0-28.59-12.25-28.59-34.04,0-26.32,19.52-75.34,27.69-110.29,6.35-26.78,21.33-48.11,45.38-48.11,18.15,0,30.86,13.62,30.86,33.13,0,10.89-4.54,24.05-17.25,34.95-9.08,8.62-29.5,22.69-55.82,37.22-1.82.91-3.63,1.36-5.9,1.36Zm284.11-14.52c6.81,0,12.25,5.45,12.25,12.25,0,4.08-1.82,7.72-4.99,9.98-54.01,39.03-106.66,78.52-128.89,78.52-13.16,0-25.87-10.89-25.87-33.59,0-32.68,29.5-102.57,52.65-191.53,20.88-78.52,24.96-139.33,67.62-139.33,19.52,0,32.68,14.07,32.68,31.32,0,30.41-43.12,83.05-80.33,125.72-2.27,2.72-5.9,4.08-9.53,4.08-6.81,0-12.25-5.45-12.25-12.25,0-3.18.91-5.9,2.72-8.17,37.67-42.66,74.43-90.77,74.43-109.38,0-4.08-2.27-6.35-7.72-6.35-18.15,0-22.24,39.94-43.12,120.72-24.05,90.77-52.19,157.94-52.19,185.17q0,8.62.91,8.62c10.89,0,59-34.04,114.37-73.52,1.82-1.82,4.54-2.27,7.26-2.27Z"></path><path class="cls-15" d="m592.18,3226.92c-8.62,0-14.07-8.17-12.25-15.43l91.68-339.93c1.82-5.45,6.35-9.53,12.25-9.53,8.62,0,14.07,8.62,12.25,15.88l-91.68,339.93c-1.82,5.45-6.35,9.08-12.25,9.08Zm302.27-179.27c6.81,0,12.71,5.9,12.71,12.71,0,3.63-1.82,6.81-4.08,9.08-62.18,56.73-77.16,72.62-96.67,78.97-19.52,6.35-188.35-61.27-204.69-93.95-.45-1.82-.91-3.63-.91-5.45,0-6.81,5.45-12.71,12.25-12.71,4.99,0,9.08,3.18,11.35,7.26,9.53,19.97,168.83,83.05,173.83,81.24,14.07-4.54,25.42-16.79,87.59-73.52,2.27-2.27,5.45-3.63,8.62-3.63Zm-182,179.27c-8.62,0-14.07-8.17-12.25-15.43l91.68-339.93c1.82-5.45,6.35-9.53,12.25-9.53,8.62,0,14.07,8.62,12.25,15.88l-91.68,339.93c-1.82,5.45-6.35,9.08-12.25,9.08Zm124.81-66.72c0-54.46,38.12-126.62,94.4-126.62,37.67,0,54.01,30.86,54.01,64.9,0,54.01-39.48,128.89-96.22,128.89-35.85,0-52.19-31.32-52.19-67.17Zm123.45-61.72c0-24.05-8.62-39.94-29.05-39.94-38.12,0-69.44,57.19-69.44,101.66,0,24.96,8.62,42.21,27.23,42.21,38.58,0,71.25-59.45,71.25-103.93Zm206.96-66.26c7.26,0,12.71,5.45,12.71,12.71,0,4.08-2.27,7.72-5.45,9.99-97.12,66.72-163.39,172.01-203.78,172.01-17.25,0-34.04-14.52-28.14-44.02,8.17-42.21,26.78-98.03,39.94-139.33,1.36-4.99,6.35-9.08,11.8-9.08,8.62,0,14.52,8.17,11.8,16.34-13.16,41.3-30.86,96.22-39.03,136.61-2.27,10.89,0,14.52,3.63,14.52,24.96,0,88.5-98.94,189.71-167.47,1.82-1.36,4.54-2.27,6.81-2.27Zm-97.12,153.86c0-6.81,5.45-12.25,12.25-12.25,4.99,0,9.53,3.18,11.35,7.26,4.99,10.44,15.88,20.88,32.68,20.88,19.97,0,34.95-21.79,34.95-45.39,0-20.42-6.35-60.82-5.9-111.19,0-6.81,5.45-12.71,12.71-12.71,6.81,0,12.25,5.9,12.25,12.71,0,49.02,5.9,89.41,5.9,111.19,0,34.49-22.69,70.35-59.91,70.35-28.59,0-47.2-17.7-55.37-35.4-.45-1.82-.91-3.18-.91-5.45Zm168.83-85.78c6.81,0,12.25,5.45,12.25,12.25,0,4.08-1.82,8.17-4.99,10.44-31.77,22.24-49.47,33.59-61.72,50.83-2.27,3.18-5.9,4.99-9.99,4.99-6.81,0-12.25-5.45-12.25-12.25,0-2.72.45-4.99,2.27-7.26,14.98-20.88,35.4-34.95,67.17-57.19,2.27-1.36,4.54-1.82,7.26-1.82Zm-7.26,40.85c-6.81,0-12.25-5.45-12.25-12.25,0-4.54,2.27-8.62,6.35-10.89,24.51-13.62,44.48-27.23,50.83-33.58,6.81-5.9,9.08-11.35,9.08-16.79s-1.82-8.17-5.9-8.17c-8.62,0-16.34,9.99-20.88,28.59-9.08,36.76-27.23,83.05-27.23,104.84,0,7.26,1.36,9.08,3.63,9.08,1.82,0,36.31-26.32,83.05-73.98,2.27-2.27,5.45-4.08,9.08-4.08,6.81,0,12.71,5.9,12.71,12.71,0,3.18-1.36,6.35-3.63,8.62-44.93,45.84-84.42,81.69-101.21,81.69s-28.59-12.25-28.59-34.04c0-26.32,19.52-75.34,27.69-110.29,6.35-26.78,21.33-48.11,45.38-48.11,18.15,0,30.86,13.62,30.86,33.13,0,10.89-4.54,24.05-16.79,34.95-8.17,7.26-29.95,22.69-56.28,37.22-1.82.91-3.63,1.36-5.9,1.36Z"></path><path class="cls-15" d="m520.5,906.26c0-12.01,6.76-17.27,14.75-17.27,6.97,0,12.39,3.74,12.39,12.01v.8h-2.86v-.92c0-5.92-3.78-9.24-9.45-9.24-6.72,0-11.76,4.58-11.76,14.33s5.04,14.24,11.72,14.24c5.38,0,9.54-2.86,9.54-9.2v-.59h2.77v.42c0,8.02-5.33,12.01-12.56,12.01-7.98,0-14.54-4.87-14.54-16.59Z"></path><path class="cls-15" d="m553.51,914.91v-13.61h2.94v13.27c0,4.33,2.14,5.71,5.42,5.71,3.74,0,6.55-2.69,6.55-5.63v-13.36h2.94v21h-2.6l-.25-3.36h-.08c-.97,2.02-3.23,3.91-7.23,3.91-4.66,0-7.69-2.52-7.69-7.94Z"></path><path class="cls-15" d="m578.71,901.3h2.6l.29,3.91c1.01-2.14,3.07-4.45,6.76-4.45,1.26,0,2.18.21,3.02.55v3.15c-1.13-.5-2.1-.76-3.4-.76-3.74,0-6.34,2.81-6.34,5.75v12.85h-2.94v-21Z"></path><path class="cls-15" d="m593.92,915.88v-1.18h2.94v1.13c0,2.86,2.14,4.5,5.96,4.5s5.8-1.01,5.8-3.78c0-2.06-1.01-2.81-3.86-3.32l-4.62-.84c-3.02-.55-5.54-2.02-5.54-5.5,0-3.15,2.35-6.13,8.4-6.13s8.4,3.02,8.4,7.22v.88h-2.98v-.76c0-3.44-2.14-4.91-5.42-4.91-3.95,0-5.33,1.34-5.33,3.36s1.01,2.86,3.91,3.4l4.03.76c4.12.76,6.09,1.93,6.09,5.59,0,4.58-4.12,6.55-8.78,6.55-7.31,0-8.99-3.28-8.99-6.97Z"></path><path class="cls-15" d="m617.56,889.54h2.98v6.51h-2.98v-6.51Zm0,11.76h2.94v21h-2.94v-21Z"></path><path class="cls-15" d="m624.74,901.34v-.04h3.36l7.35,17.98h.08l7.1-17.98h3.07v.04l-8.74,20.96h-3.02l-9.2-20.96Z"></path><path class="cls-15" d="m666.54,912.81h-15.96c.17,4.79,2.48,7.48,6.93,7.48,3.82,0,5.67-1.43,5.96-4.83h2.98c-.29,4.24-3.28,7.39-9.03,7.39-7.06,0-9.83-4.66-9.83-10.88s3.23-11.22,10-11.22,8.95,3.99,8.95,10.21v1.85Zm-3.11-2.98c0-4.45-1.72-6.55-5.92-6.55s-6.55,2.65-6.89,6.97h12.81v-.42Z"></path><path class="cls-15" d="m683.75,900h-3.36v-5.08c0-3.95.88-5.29,3.4-5.97l.67,1.85c-1.76.67-2.06,1.09-2.06,3.78v.34h1.34v5.08Zm5.92,0h-3.36v-5.08c0-3.95.88-5.29,3.4-5.97l.67,1.85c-1.76.67-2.06,1.09-2.06,3.78v.34h1.34v5.08Z"></path><path class="cls-15" d="m697.11,889.54h19.49v2.65h-16.55v12.22h14.62v2.6h-14.62v12.6h16.55v2.69h-19.49v-32.77Z"></path><path class="cls-15" d="m720.8,898.74c1.76-.67,2.06-1.09,2.06-3.78v-.34h-1.34v-5.08h3.36v5.08c0,3.95-.88,5.29-3.4,5.97l-.67-1.85Zm5.92,0c1.76-.67,2.06-1.09,2.06-3.78v-.34h-1.34v-5.08h3.36v5.08c0,3.95-.88,5.29-3.4,5.97l-.67-1.85Z"></path><path class="cls-16" d="m889.56,374.73c6.81,0,12.71,5.9,12.71,12.71,0,4.54-2.72,8.17-5.9,10.44-33.59,20.88-152.95,168.83-247.35,168.83-54.01,0-78.97-37.22-78.97-81.24,0-56.28,54.01-123.9,111.19-123.9,4.08,0,3.63,22.24,0,22.24-34.04,0-54.46-30.41-54.46-67.62,0-49.92,31.77-113.46,97.12-113.46,33.59,0,49.02,23.6,55.82,37.67.91,1.82.91,3.63.91,5.45,0,6.81-5.45,12.25-12.25,12.25-4.99,0-9.53-2.72-11.35-6.81-4.99-11.35-14.07-23.6-33.13-23.6-48.11,0-72.16,48.56-72.16,88.5,0,25.42,11.8,42.66,29.5,42.66,19.97,0,20.42,27.68,0,27.68-41.75,0-86.23,55.37-86.23,98.94,0,33.13,16.34,56.28,54.01,56.28,81.69,0,196.52-141.15,233.73-164.75,2.27-1.36,4.54-2.27,6.81-2.27Z"></path><path class="cls-15" d="m1067.92,307.56c6.81,0,12.25,5.45,12.25,12.25,0,1.82-.45,3.63-.91,5.45-24.96,50.83-157.49,241.9-213.31,241.9-15.43,0-27.68-11.35-27.68-33.13,0-33.59,30.41-111.65,39.94-150.22,1.36-5.45,6.35-9.53,12.25-9.53,8.62,0,14.07,8.17,12.25,15.88-10.44,39.48-39.48,114.82-39.48,143.87,0,6.35.45,8.17,2.72,8.17,37.22,0,166.56-178.82,190.62-227.83,2.27-4.08,6.35-6.81,11.35-6.81Z"></path><path class="cls-16" d="m894.44,3047.65c6.81,0,12.71,5.9,12.71,12.71,0,3.63-1.82,6.81-4.08,9.08-62.18,56.73-77.16,72.62-96.67,78.97-19.52,6.35-188.35-61.27-204.69-93.95-.45-1.82-.91-3.63-.91-5.45,0-6.81,5.45-12.71,12.25-12.71,4.99,0,9.08,3.18,11.35,7.26,9.53,19.97,168.83,83.05,173.83,81.24,14.07-4.54,25.42-16.79,87.59-73.52,2.27-2.27,5.45-3.63,8.62-3.63Z"></path><path class="cls-15" d="m837.26,3160.21c0-54.46,38.12-126.62,94.4-126.62,37.67,0,54.01,30.86,54.01,64.9,0,54.01-39.48,128.89-96.22,128.89-35.85,0-52.19-31.32-52.19-67.17Zm123.45-61.72c0-24.05-8.62-39.94-29.05-39.94-38.12,0-69.44,57.19-69.44,101.66,0,24.96,8.62,42.21,27.23,42.21,38.58,0,71.25-59.45,71.25-103.93Z"></path><path class="cls-16" d="m859.92,2151.94c-43.12,49.92-87.59,90.32-107.11,99.39-37.67,17.25-117.55-32.22-132.07-86.69-1.82-5.45-6.35-9.53-12.25-9.53-8.62,0-14.07,8.62-12.25,15.88,18.15,68.08,113.46,127.53,167.47,103.02,17.55-8.26,48.93-35.05,82.27-69.68h0s0,0,0,0l36.18-39.7c4.54-14.07-11.8-23.6-22.24-12.71Z"></path><g class="cls-14"><path class="cls-18" d="m838.14,2294.44c-6.81,0-12.25-5.45-12.25-12.25,0-2.27.45-4.08,1.36-5.9,27.69-50.83,68.99-128.89,123.45-128.89,68.98,0,58.55,139.79-23.15,189.71-29.95,19.06-54.01-29.05-24.05-42.66,28.59-12.71,78.52-44.02,89.41-58.55,44.48-58.09,85.32-112.56,102.57-147.5,2.27-4.08,6.35-7.26,11.35-7.26,6.81,0,12.71,5.9,12.71,12.71,0,1.82-.91,4.08-1.36,5.45-18.15,36.76-60.82,93.95-105.29,152.04-14.52,18.61-68.08,52.19-99.39,65.81-.91.45-.91,0,1.36-.91,63.09-39.03,70.8-143.87,35.85-143.87-37.22,0-73.98,64.9-101.66,115.73-2.27,4.08-6.35,6.35-10.89,6.35Z"></path></g><path class="cls-16" d="m1167.66,3032.22c-2.27,0-4.99.91-6.81,2.27-98.02,66.37-160.71,161.27-187.24,167.18-.95.21-2.07,1.96-2.73,5.48-.75,4-1.26,9.24-.03,13.12,1.61,5.07,2.85,6.54,3.98,6.37,40.69-5.99,105.87-107.01,200.08-171.73,3.18-2.27,5.45-5.9,5.45-9.99,0-7.26-5.45-12.71-12.71-12.71Z"></path><path class="cls-16" d="m1070.53,3186.08c0-6.81,5.45-12.25,12.25-12.25,4.99,0,9.53,3.18,11.35,7.26,4.99,10.44,15.88,20.88,32.68,20.88,19.97,0,34.95-21.79,34.95-45.39,0-20.42-6.35-60.82-5.9-111.19,0-6.81,5.45-12.71,12.71-12.71,6.81,0,12.25,5.9,12.25,12.71,0,49.02,5.9,89.41,5.9,111.19,0,34.49-22.69,70.35-59.91,70.35-28.59,0-47.2-17.7-55.37-35.4-.45-1.82-.91-3.18-.91-5.45Z"></path><path class="cls-16" d="m1362.47,1357.88c6.81,0,12.25,5.45,12.25,12.25,0,4.54-2.27,8.17-5.45,10.44-78.52,49.92-115.73,41.3-136.61,24.96-2.72-2.27-4.54-5.9-4.54-9.98,0-6.81,5.45-12.25,12.25-12.25,2.72,0,5.45.91,7.72,2.27,13.62,10.89,41.3,16.34,107.56-25.87,1.82-1.36,4.54-1.82,6.81-1.82Z"></path><path class="cls-16" d="m1261.26,1455.46c-8.62,0-14.07-8.17-12.25-15.43l91.68-339.93c1.82-5.45,6.35-9.53,12.25-9.53,8.62,0,14.07,8.62,12.25,15.88l-91.68,339.93c-1.82,5.45-6.35,9.08-12.25,9.08Z"></path><path class="cls-15" d="m478.09,1689.77v-2.02h3.02v2.18c0,3.74,2.6,6.05,7.94,6.05s8.44-1.97,8.44-6.22c0-3.32-1.39-5.17-4.92-6.09l-6.64-1.72c-4.33-1.13-7.18-2.98-7.18-8.15s3.78-8.91,10.92-8.91,10.59,3.45,10.59,9.07v2.94h-3.02v-2.81c0-4.62-3.07-6.51-7.56-6.51-5.12,0-7.81,2.14-7.81,6.01,0,3.61,1.76,4.7,5.54,5.71l5.75,1.55c5.12,1.39,7.44,3.74,7.44,8.65,0,6.09-4.33,9.24-11.47,9.24-9.12,0-11.05-4.71-11.05-8.99Z"></path><path class="cls-15" d="m507.78,1665.45h2.94v32.77h-2.94v-32.77Z"></path><path class="cls-15" d="m516.81,1692.42c0-3.95,2.23-6.09,7.86-6.09h6.34v-1.72c0-2.98-1.26-5.42-5.46-5.42-3.95,0-5.33,1.51-5.33,4.12v.88h-2.98v-.84c0-5,4.2-6.68,8.32-6.68,5.8,0,8.4,2.86,8.4,8.44v13.11h-2.06l-.55-2.98h-.08c-1.26,1.89-3.7,3.53-7.35,3.53-4.92,0-7.1-2.31-7.1-6.34Zm14.2-1.85v-1.76h-7.01c-2.65,0-4.03.92-4.03,3.61,0,2.35,1.26,3.86,4.5,3.86,4.16,0,6.55-2.14,6.55-5.71Z"></path><path class="cls-15" d="m541.3,1677.21h2.6l.29,3.49c1.01-2.14,3.28-4.03,7.35-4.03,4.75,0,7.77,2.52,7.77,7.94v13.61h-2.94v-13.27c0-4.33-2.14-5.71-5.5-5.71-3.82,0-6.64,2.69-6.64,5.63v13.36h-2.94v-21Z"></path><path class="cls-15" d="m577.63,1695.53v2.6c-.76.21-2.14.59-4.03.59-3.82,0-6.34-1.6-6.34-6.89v-12.18h-4.16v-2.44h4.16v-6.05l2.94-1.43v7.48h5.92v2.44h-5.92v11.8c0,2.81.76,4.58,3.4,4.58,1.6,0,3.23-.29,4.03-.5Z"></path><path class="cls-15" d="m599.09,1688.72h-15.96c.17,4.79,2.48,7.48,6.93,7.48,3.82,0,5.67-1.43,5.96-4.83h2.98c-.29,4.24-3.28,7.39-9.03,7.39-7.06,0-9.83-4.66-9.83-10.88s3.23-11.22,10-11.22,8.95,3.99,8.95,10.21v1.85Zm-3.11-2.98c0-4.45-1.72-6.55-5.92-6.55s-6.55,2.65-6.89,6.97h12.81v-.42Z"></path><path class="cls-15" d="m603.29,1687.76c0-7.1,4.28-11.09,10.04-11.09,3.7,0,6.22,1.6,7.31,3.74h.04v-14.95h2.94v32.77h-1.97l-.67-3.61h-.08c-1.18,2.31-3.95,4.16-7.77,4.16-6.3,0-9.83-3.99-9.83-11.01Zm17.64-.5c0-5.5-3.36-8.07-7.35-8.07-3.11,0-7.14,1.47-7.14,8.4s3.61,8.61,7.14,8.61c4.24,0,7.35-2.73,7.35-8.95Z"></path><g class="cls-20"><path class="cls-18" d="m1486.24,2240.44c-2.72,0-5.45.45-7.26,2.27-55.37,39.48-103.48,73.52-114.37,73.52q-.91,0-.91-8.62c0-26.04,25.72-88.58,49-173.36,1.31-2.05,2.53-4.03,3.64-5.91.11-.22.22-.44.33-.68,35.88-41.47,75.01-90.63,75.01-119.59,0-17.25-13.16-31.32-32.68-31.32-42.66,0-46.75,60.82-67.62,139.33-.7,2.68-1.4,5.34-2.11,7.99-41.09,61.97-171.39,191.71-183.52,191.71-2.27,0-3.63-1.82-3.63-9.08,0-12.88,6.35-34.34,13.42-57.33,22.68-12.99,40.11-25.21,48.31-32.99,12.71-10.89,17.25-24.05,17.25-34.95,0-19.52-12.71-33.13-30.86-33.13-24.05,0-39.03,21.33-45.38,48.11-2.6,11.14-6.36,23.7-10.27,36.5-3.04,2.37-4.71,5.91-4.71,9.79,0,1.31.2,2.56.58,3.74-6.96,22.92-13.29,45.26-13.29,60.25,0,21.79,12.25,34.04,28.59,34.04,22.12,0,106.84-82.65,164.09-150.38-16.63,53.18-31.11,94.35-31.11,117.25s12.71,33.59,25.87,33.59c22.24,0,74.88-39.48,128.89-78.52,3.18-2.27,4.99-5.9,4.99-9.98,0-6.81-5.45-12.25-12.25-12.25Zm-236-67.17c4.09,0,5.9,2.72,5.9,8.17s-2.27,10.89-8.62,16.79c-4.35,3.63-11.67,9.06-21.26,15.4,1.11-4,2.16-7.94,3.11-11.77,4.54-18.61,12.25-28.59,20.88-28.59Zm208.77-171.56c5.45,0,7.72,2.27,7.72,6.35,0,12.56-16.76,38.57-39.23,67.26,11.73-49.22,17.33-73.61,31.51-73.61Z"></path></g><g class="cls-22"><path class="cls-16" d="m1352.48,1091.47c6.81,0,12.71,5.9,12.71,12.71,0,2.27-.91,4.54-1.82,6.35-107.11,180.18-254.61,345.38-298.18,345.38-12.71,0-22.24-8.62-22.24-25.42,0-39.49,53.55-137.06,70.8-161.12,2.72-4.08,5.45,10.89,4.54,9.98s16.34-.45,12.25,4.54c-18.15,19.97-38.12,30.86-55.37,30.86-19.52,0-33.59-14.07-33.59-38.58,0-2.72,22.69,2.72,19.06,7.26-13.62,15.43-64.9,107.56-106.2,113.01-7.72.91-14.07-4.99-14.07-12.25,0-6.35,4.54-11.8,10.44-12.25,27.23-3.63,76.25-88.95,91.68-105.75,9.53-9.98,24.05-4.54,24.05,9.98,0,10.89,2.72,13.62,8.62,13.62,9.08,0,22.69-6.81,37.22-23.15,7.72-7.26,14.52-13.62,23.15-4.54,7.72,7.26,3.63,14.52-1.82,21.79-15.88,22.24-65.81,115.73-65.81,146.59,0,4.08-3.63.45-2.72.45,25.87,0,170.19-153.4,276.4-333.13,2.27-3.63,6.35-6.35,10.89-6.35Z"></path></g><path class="cls-15" d="m827.83,1388.74c0-54.46,35.85-126.62,95.31-126.62,37.67,0,54.01,30.86,54.01,64.9,0,54.01-39.48,128.89-96.22,128.89-37.22,0-53.1-31.77-53.1-67.17Zm124.35-61.72c0-24.05-8.62-39.94-29.05-39.94-41.3,0-70.35,56.73-70.35,101.66,0,25.42,8.17,42.21,28.14,42.21,38.58,0,71.25-59.45,71.25-103.93Z"></path><path class="cls-16" d="m1242.65,373.37c6.81,0,12.71,5.9,12.71,12.71,0,4.08-1.82,7.26-4.99,9.53-70.8,58.55-151.59,148.86-221.03,148.86-20.42,0-36.76-2.72-52.19-9.53-4.54-1.82-7.72-6.35-7.72-11.35,0-6.81,5.9-12.71,12.71-12.71,1.82,0,3.18.45,4.99,1.36,12.71,4.99,24.51,7.26,42.21,7.26,57.19,0,132.98-83.51,205.59-142.96,1.82-1.82,4.54-3.18,7.72-3.18Z"></path><path class="cls-15" d="m1308.46,470.94c6.81,0,12.25,5.9,12.25,12.71,0,3.18-1.36,6.35-3.18,8.62-37.22,38.58-70.8,74.89-98.03,74.89-15.88,0-28.14-11.35-28.14-33.13,0-33.59,29.95-111.65,39.94-150.22,1.82-5.45,6.35-9.08,12.25-9.08,8.62,0,14.07,8.17,12.25,15.43-10.89,40.39-39.48,114.82-39.48,143.87,0,7.26.91,8.17,3.18,8.17,14.07,0,42.66-29.05,79.88-67.17,2.27-2.27,5.45-4.08,9.08-4.08Z"></path><g class="cls-21"><path class="cls-18" d="m1042.05,378.36c-6.81,0-12.25-5.45-12.25-12.25,0-3.18.91-5.9,2.72-7.72,43.57-53.1,81.69-109.83,81.69-122.99,0-5.45-2.72-7.72-4.99-7.72-11.8,0-19.97,38.12-40.39,120.72-8.17,33.13-75.79,254.16-113.46,383.96-1.36,4.99-5.9,9.08-11.8,9.08-8.17,0-14.52-8.17-11.8-16.34,37.67-129.8,104.39-349.92,112.56-383.05,22.69-91.68,30.41-139.33,64.9-139.33,13.62,0,29.95,10.89,29.95,32.68,0,24.51-44.48,86.23-87.59,138.42-2.27,3.18-5.45,4.54-9.53,4.54Z"></path></g><line class="cls-9" x1="1112.4" y1="676.48" x2="1052.66" y2="676.48"></line></svg> 