<?xml version="1.0" encoding="UTF-8"?> <svg xmlns="http://www.w3.org/2000/svg" xmlns:xlink="http://www.w3.org/1999/xlink" viewBox="0 0 1920 3415"><defs><style>.cls-1,.cls-2,.cls-3,.cls-4,.cls-5,.cls-6,.cls-7,.cls-8,.cls-9,.cls-10{fill:none;}.cls-11{clip-path:url(#clippath);}.cls-12{fill:#fff;}.cls-13{fill:#937fbb;}.cls-14{fill:#171c32;}.cls-15{fill:#947fbb;}.cls-2,.cls-3,.cls-4,.cls-5,.cls-6,.cls-7,.cls-8,.cls-9,.cls-10{stroke-miterlimit:10;}.cls-2,.cls-3,.cls-4,.cls-5,.cls-6,.cls-7,.cls-8,.cls-10{stroke:#a797c9;stroke-linecap:round;stroke-width:7px;}.cls-3{stroke-dasharray:0 0 1.72 17.21;}.cls-4{stroke-dasharray:0 0 1.73 17.34;}.cls-5{stroke-dasharray:0 0 1.78 17.79;}.cls-6{stroke-dasharray:0 0 1.75 17.47;}.cls-7{stroke-dasharray:0 0 1.74 17.45;}.cls-8{stroke-dasharray:0 0 1.71 17.08;}.cls-9{stroke:#57678b;stroke-width:3.5px;}.cls-10{stroke-dasharray:0 0 1.69 16.94;}</style><clipPath id="clippath"><path class="cls-1" d="m888.24,645.9c0,36.76-29.8,66.55-66.55,66.55s-65.55-29.8-65.55-66.55,28.8-66.55,65.55-66.55,66.55,29.8,66.55,66.55Z"></path></clipPath></defs><g id="Background"><rect class="cls-14" width="1920" height="3415"></rect></g><g id="Horizontal_Guides"><line class="cls-9" y1="202.35" x2="1920" y2="202.35"></line><line class="cls-9" y1="342.12" x2="1920" y2="342.12"></line><line class="cls-9" x1="1920" y1="532.27" y2="532.27"></line><line class="cls-9" y1="670.01" x2="1920" y2="670.01"></line><line class="cls-9" y1="1020.41" x2="1920" y2="1020.41"></line><line class="cls-9" y1="1160.17" x2="1920" y2="1160.17"></line><line class="cls-9" x1="1920" y1="1350.32" y2="1350.32"></line><line class="cls-9" y1="1488.06" x2="1920" y2="1488.06"></line><line class="cls-9" y1="1836.89" x2="1920" y2="1836.89"></line><line class="cls-9" y1="1976.65" x2="1920" y2="1976.65"></line><line class="cls-9" x1="1920" y1="2166.81" y2="2166.81"></line><line class="cls-9" y1="2304.55" x2="1920" y2="2304.55"></line><line class="cls-9" y1="2653.38" x2="1920" y2="2653.38"></line><line class="cls-9" y1="2793.14" x2="1920" y2="2793.14"></line><line class="cls-9" x1="1920" y1="2983.29" y2="2983.29"></line><line class="cls-9" y1="3121.04" x2="1920" y2="3121.04"></line></g><g id="info"><line class="cls-2" x1="1347.42" y1="554.22" x2="1347.42" y2="555.1"></line><line class="cls-4" x1="1347.42" y1="572.44" x2="1347.42" y2="792.7"></line><line class="cls-2" x1="1347.42" y1="801.37" x2="1347.42" y2="802.24"></line><line class="cls-2" x1="1381.74" y1="1366.49" x2="1381.74" y2="1367.36"></line><line class="cls-3" x1="1381.74" y1="1384.57" x2="1381.74" y2="1603.09"></line><line class="cls-2" x1="1381.74" y1="1611.69" x2="1381.74" y2="1612.57"></line><line class="cls-2" x1="614.36" y1="2190.34" x2="614.36" y2="2191.21"></line><line class="cls-8" x1="614.36" y1="2208.3" x2="614.36" y2="2425.24"></line><line class="cls-2" x1="614.36" y1="2433.78" x2="614.36" y2="2434.66"></line><line class="cls-2" x1="1195.6" y1="2180.34" x2="1195.6" y2="2181.21"></line><line class="cls-5" x1="1195.6" y1="2199" x2="1195.6" y2="2424.89"></line><line class="cls-2" x1="1195.6" y1="2433.78" x2="1195.6" y2="2434.66"></line><line class="cls-2" x1="738.42" y1="2571.33" x2="738.42" y2="2572.2"></line><line class="cls-6" x1="738.42" y1="2589.67" x2="738.42" y2="2753.88"></line><line class="cls-2" x1="738.42" y1="2762.62" x2="738.42" y2="2763.49"></line><path class="cls-12" d="m683.96,1557.92v-2.02h3.02v2.18c0,3.74,2.6,6.05,7.94,6.05s8.44-1.97,8.44-6.22c0-3.32-1.39-5.17-4.92-6.09l-6.64-1.72c-4.33-1.13-7.18-2.98-7.18-8.15s3.78-8.91,10.92-8.91,10.59,3.44,10.59,9.07v2.94h-3.02v-2.81c0-4.62-3.07-6.51-7.56-6.51-5.12,0-7.81,2.14-7.81,6.01,0,3.61,1.76,4.7,5.54,5.71l5.75,1.55c5.12,1.39,7.44,3.74,7.44,8.65,0,6.09-4.33,9.24-11.47,9.24-9.12,0-11.05-4.7-11.05-8.99Z"></path><path class="cls-12" d="m713.65,1533.6h2.94v32.77h-2.94v-32.77Z"></path><path class="cls-12" d="m723.94,1533.6h2.98v6.51h-2.98v-6.51Zm0,11.76h2.94v21h-2.94v-21Z"></path><path class="cls-12" d="m733.64,1568.17v-.13h3.11v.13c0,2.9,1.93,4.33,6.13,4.33,4.79,0,7.02-2.94,7.02-7.86v-2.1h-.08c-1.09,2.18-3.65,4.07-7.48,4.07-6.3,0-9.75-3.99-9.75-10.71,0-7.1,4.37-11.09,9.96-11.09,3.78,0,6.55,1.81,7.56,4.12h.13l.29-3.57h2.31v19.16c0,5.88-2.81,10.71-10.33,10.71-6.3,0-8.86-2.98-8.86-7.06Zm16.59-12.77c0-5.5-3.36-8.07-7.35-8.07-3.02,0-7.14,1.47-7.14,8.4s3.57,8.32,7.1,8.32c4.24,0,7.39-2.73,7.39-8.65Z"></path><path class="cls-12" d="m760.19,1533.6h2.94v15.16c1.05-2.1,3.28-3.95,7.31-3.95,4.75,0,7.77,2.52,7.77,7.94v13.61h-2.94v-13.27c0-4.33-2.14-5.71-5.5-5.71-3.82,0-6.64,2.69-6.64,5.63v13.36h-2.94v-32.77Z"></path><path class="cls-12" d="m796.52,1563.68v2.6c-.76.21-2.14.59-4.03.59-3.82,0-6.34-1.6-6.34-6.89v-12.18h-4.16v-2.44h4.16v-6.05l2.94-1.43v7.48h5.92v2.44h-5.92v11.8c0,2.81.76,4.58,3.4,4.58,1.6,0,3.23-.29,4.03-.5Z"></path><path class="cls-12" d="m809.12,1559.94v-1.18h2.94v1.13c0,2.86,2.14,4.5,5.96,4.5s5.8-1.01,5.8-3.78c0-2.06-1.01-2.81-3.86-3.32l-4.62-.84c-3.02-.55-5.54-2.02-5.54-5.5,0-3.15,2.35-6.13,8.4-6.13s8.4,3.02,8.4,7.23v.88h-2.98v-.76c0-3.44-2.14-4.91-5.42-4.91-3.95,0-5.33,1.34-5.33,3.36s1.01,2.86,3.91,3.4l4.03.76c4.12.76,6.09,1.93,6.09,5.59,0,4.58-4.12,6.55-8.78,6.55-7.31,0-8.99-3.28-8.99-6.97Z"></path><path class="cls-12" d="m832.76,1533.6h2.94v32.77h-2.94v-32.77Z"></path><path class="cls-12" d="m841.79,1560.57c0-3.95,2.23-6.09,7.86-6.09h6.34v-1.72c0-2.98-1.26-5.42-5.46-5.42-3.95,0-5.33,1.51-5.33,4.12v.88h-2.98v-.84c0-5,4.2-6.68,8.32-6.68,5.8,0,8.4,2.86,8.4,8.44v13.11h-2.06l-.55-2.98h-.08c-1.26,1.89-3.7,3.53-7.35,3.53-4.92,0-7.1-2.31-7.1-6.34Zm14.2-1.85v-1.76h-7.02c-2.65,0-4.03.92-4.03,3.61,0,2.35,1.26,3.86,4.5,3.86,4.16,0,6.55-2.14,6.55-5.71Z"></path><path class="cls-12" d="m866.28,1545.36h2.6l.29,3.49c1.01-2.14,3.28-4.03,7.35-4.03,4.75,0,7.77,2.52,7.77,7.94v13.61h-2.94v-13.27c0-4.33-2.14-5.71-5.5-5.71-3.82,0-6.64,2.69-6.64,5.63v13.36h-2.94v-21Z"></path><path class="cls-12" d="m902.61,1563.68v2.6c-.76.21-2.14.59-4.03.59-3.82,0-6.34-1.6-6.34-6.89v-12.18h-4.16v-2.44h4.16v-6.05l2.94-1.43v7.48h5.92v2.44h-5.92v11.8c0,2.81.76,4.58,3.4,4.58,1.6,0,3.23-.29,4.03-.5Z"></path><polygon class="cls-15" points="770.67 1488.28 823.01 1488.28 946.86 1019.05 894.52 1019.05 770.67 1488.28"></polygon><path class="cls-12" d="m655.53,832.27h-3.36v-5.08c0-3.95.88-5.29,3.4-5.96l.67,1.85c-1.76.67-2.06,1.09-2.06,3.78v.34h1.34v5.08Zm5.92,0h-3.36v-5.08c0-3.95.88-5.29,3.4-5.96l.67,1.85c-1.76.67-2.06,1.09-2.06,3.78v.34h1.34v5.08Z"></path><path class="cls-12" d="m671.57,828.54v5.04h5.92v2.44h-5.92v18.57h-2.94v-18.57h-4.16v-2.44h4.16v-5.42c0-5.29,3.15-6.89,6.38-6.89,1.85,0,2.98.29,3.74.55v2.6c-.71-.21-1.89-.46-3.49-.46-2.65,0-3.7,1.76-3.7,4.58Z"></path><path class="cls-12" d="m682.11,831.01c1.76-.67,2.06-1.09,2.06-3.78v-.34h-1.34v-5.08h3.36v5.08c0,3.95-.88,5.29-3.4,5.96l-.67-1.85Zm5.92,0c1.76-.67,2.06-1.09,2.06-3.78v-.34h-1.34v-5.08h3.36v5.08c0,3.95-.88,5.29-3.4,5.96l-.67-1.85Z"></path><path class="cls-12" d="m705.97,844.25c0-6.38,3.23-11.22,10-11.22s8.95,3.91,8.95,8.95v.42h-3.11v-.63c0-3.82-1.64-6.09-5.84-6.09-4.75,0-7.02,3.11-7.02,8.4,0,5.63,2.39,8.49,6.93,8.49,3.82,0,5.84-1.85,5.92-5.67h3.02c-.08,4.66-3.15,8.23-9.03,8.23-7.23,0-9.83-4.75-9.83-10.88Z"></path><path class="cls-12" d="m729.11,844.08c0-6.22,3.32-11.05,10.38-11.05,6.6,0,10.25,4.83,10.25,11.05s-3.7,11.05-10.29,11.05c-7.27,0-10.33-4.83-10.33-11.05Zm17.56,0c0-5.33-2.9-8.49-7.23-8.49-4.75,0-7.27,3.15-7.27,8.49s2.56,8.49,7.27,8.49c4.33,0,7.23-3.15,7.23-8.49Z"></path><path class="cls-12" d="m755.61,833.58h2.6l.29,3.49c1.01-2.14,3.28-4.03,7.35-4.03,4.75,0,7.77,2.52,7.77,7.94v13.61h-2.94v-13.27c0-4.33-2.14-5.71-5.5-5.71-3.82,0-6.64,2.69-6.64,5.63v13.36h-2.94v-21Z"></path><path class="cls-12" d="m780.98,833.58h2.6l.29,3.49c1.01-2.14,3.28-4.03,7.35-4.03,4.75,0,7.77,2.52,7.77,7.94v13.61h-2.94v-13.27c0-4.33-2.14-5.71-5.5-5.71-3.82,0-6.64,2.69-6.64,5.63v13.36h-2.94v-21Z"></path><path class="cls-12" d="m823.61,845.09h-15.96c.17,4.79,2.48,7.48,6.93,7.48,3.82,0,5.67-1.43,5.96-4.83h2.98c-.29,4.24-3.28,7.39-9.03,7.39-7.06,0-9.83-4.66-9.83-10.88s3.23-11.22,10-11.22,8.95,3.99,8.95,10.21v1.85Zm-3.11-2.98c0-4.45-1.72-6.55-5.92-6.55s-6.55,2.65-6.89,6.97h12.81v-.42Z"></path><path class="cls-12" d="m827.81,844.25c0-6.38,3.23-11.22,10-11.22s8.95,3.91,8.95,8.95v.42h-3.11v-.63c0-3.82-1.64-6.09-5.84-6.09-4.75,0-7.02,3.11-7.02,8.4,0,5.63,2.39,8.49,6.93,8.49,3.82,0,5.84-1.85,5.92-5.67h3.02c-.08,4.66-3.15,8.23-9.03,8.23-7.23,0-9.83-4.75-9.83-10.88Z"></path><path class="cls-12" d="m863.6,851.89v2.6c-.76.21-2.14.59-4.03.59-3.82,0-6.34-1.6-6.34-6.89v-12.18h-4.16v-2.44h4.16v-6.05l2.94-1.43v7.48h5.92v2.44h-5.92v11.8c0,2.81.76,4.58,3.4,4.58,1.6,0,3.23-.29,4.03-.5Z"></path><path class="cls-12" d="m866.53,848.15v-1.18h2.94v1.13c0,2.86,2.14,4.5,5.96,4.5s5.8-1.01,5.8-3.78c0-2.06-1.01-2.81-3.86-3.32l-4.62-.84c-3.02-.55-5.54-2.02-5.54-5.5,0-3.15,2.35-6.13,8.4-6.13s8.4,3.02,8.4,7.23v.88h-2.98v-.76c0-3.44-2.14-4.92-5.42-4.92-3.95,0-5.33,1.34-5.33,3.36s1.01,2.86,3.91,3.4l4.03.76c4.12.76,6.09,1.93,6.09,5.59,0,4.58-4.12,6.55-8.78,6.55-7.31,0-8.99-3.28-8.99-6.97Z"></path><path class="cls-12" d="m904,828.54v5.04h5.92v2.44h-5.92v18.57h-2.94v-18.57h-4.16v-2.44h4.16v-5.42c0-5.29,3.15-6.89,6.38-6.89,1.85,0,2.98.29,3.74.55v2.6c-.71-.21-1.89-.46-3.49-.46-2.65,0-3.7,1.76-3.7,4.58Z"></path><path class="cls-12" d="m914.33,833.58h2.6l.29,3.91c1.01-2.14,3.07-4.45,6.76-4.45,1.26,0,2.18.21,3.02.55v3.15c-1.13-.5-2.1-.76-3.4-.76-3.74,0-6.34,2.81-6.34,5.75v12.85h-2.94v-21Z"></path><path class="cls-12" d="m929.32,844.08c0-6.22,3.32-11.05,10.38-11.05,6.6,0,10.25,4.83,10.25,11.05s-3.7,11.05-10.29,11.05c-7.27,0-10.33-4.83-10.33-11.05Zm17.56,0c0-5.33-2.9-8.49-7.23-8.49-4.75,0-7.27,3.15-7.27,8.49s2.56,8.49,7.27,8.49c4.33,0,7.23-3.15,7.23-8.49Z"></path><path class="cls-12" d="m986.53,840.97v13.61h-2.94v-13.27c0-4.33-2.14-5.71-4.75-5.71-3.82,0-6.18,2.69-6.18,5.63v13.36h-2.94v-13.27c0-4.33-1.85-5.71-4.83-5.71-3.61,0-6.13,2.69-6.13,5.63v13.36h-2.94v-21h2.6l.29,3.49c1.01-2.02,3.07-4.03,6.93-4.03,2.94,0,5.38,1.39,6.43,4.29,1.22-2.39,3.57-4.29,7.14-4.29,4.28,0,7.31,2.52,7.31,7.94Z"></path><path class="cls-12" d="m1006.35,851.09h-.08l-.76,3.49h-1.97v-32.77h2.94v15.25h.04c1.26-2.31,4.07-4.03,7.69-4.03,6.3,0,9.66,3.99,9.66,11.01s-4.28,11.09-9.87,11.09c-3.78,0-6.55-1.64-7.65-4.03Zm14.37-6.89c0-7.18-3.4-8.61-6.93-8.61-4.24,0-7.56,2.73-7.56,8.44,0,6.01,3.44,8.57,7.44,8.57,3.02,0,7.06-1.47,7.06-8.4Z"></path><path class="cls-12" d="m1028.28,848.78c0-3.95,2.23-6.09,7.86-6.09h6.34v-1.72c0-2.98-1.26-5.42-5.46-5.42-3.95,0-5.33,1.51-5.33,4.12v.88h-2.98v-.84c0-5,4.2-6.68,8.32-6.68,5.8,0,8.4,2.86,8.4,8.44v13.11h-2.06l-.55-2.98h-.08c-1.26,1.89-3.7,3.53-7.35,3.53-4.91,0-7.1-2.31-7.1-6.34Zm14.2-1.85v-1.76h-7.02c-2.65,0-4.03.92-4.03,3.61,0,2.35,1.26,3.87,4.5,3.87,4.16,0,6.55-2.14,6.55-5.71Z"></path><path class="cls-12" d="m1050.87,848.15v-1.18h2.94v1.13c0,2.86,2.14,4.5,5.96,4.5s5.8-1.01,5.8-3.78c0-2.06-1.01-2.81-3.86-3.32l-4.62-.84c-3.02-.55-5.54-2.02-5.54-5.5,0-3.15,2.35-6.13,8.4-6.13s8.4,3.02,8.4,7.23v.88h-2.98v-.76c0-3.44-2.14-4.92-5.42-4.92-3.95,0-5.33,1.34-5.33,3.36s1.01,2.86,3.91,3.4l4.03.76c4.12.76,6.09,1.93,6.09,5.59,0,4.58-4.12,6.55-8.78,6.55-7.31,0-8.99-3.28-8.99-6.97Z"></path><path class="cls-12" d="m1091.78,845.09h-15.96c.17,4.79,2.48,7.48,6.93,7.48,3.82,0,5.67-1.43,5.96-4.83h2.98c-.29,4.24-3.28,7.39-9.03,7.39-7.06,0-9.83-4.66-9.83-10.88s3.23-11.22,10-11.22,8.95,3.99,8.95,10.21v1.85Zm-3.11-2.98c0-4.45-1.72-6.55-5.92-6.55s-6.55,2.65-6.89,6.97h12.81v-.42Z"></path><path class="cls-12" d="m1097.03,821.81h2.94v32.77h-2.94v-32.77Z"></path><path class="cls-12" d="m1107.32,821.81h2.98v6.51h-2.98v-6.51Zm0,11.76h2.94v21h-2.94v-21Z"></path><path class="cls-12" d="m1117.65,833.58h2.6l.29,3.49c1.01-2.14,3.28-4.03,7.35-4.03,4.75,0,7.77,2.52,7.77,7.94v13.61h-2.94v-13.27c0-4.33-2.14-5.71-5.5-5.71-3.82,0-6.64,2.69-6.64,5.63v13.36h-2.94v-21Z"></path><path class="cls-12" d="m1160.29,845.09h-15.96c.17,4.79,2.48,7.48,6.93,7.48,3.82,0,5.67-1.43,5.96-4.83h2.98c-.29,4.24-3.28,7.39-9.03,7.39-7.06,0-9.83-4.66-9.83-10.88s3.23-11.22,10-11.22,8.95,3.99,8.95,10.21v1.85Zm-3.11-2.98c0-4.45-1.72-6.55-5.92-6.55s-6.55,2.65-6.89,6.97h12.81v-.42Z"></path><path class="cls-12" d="m614.93,897.63c0-3.95,2.23-6.09,7.86-6.09h6.34v-1.72c0-2.98-1.26-5.42-5.46-5.42-3.95,0-5.33,1.51-5.33,4.12v.88h-2.98v-.84c0-5,4.2-6.68,8.32-6.68,5.8,0,8.4,2.86,8.4,8.44v13.11h-2.06l-.55-2.98h-.08c-1.26,1.89-3.7,3.53-7.35,3.53-4.91,0-7.1-2.31-7.1-6.34Zm14.2-1.85v-1.76h-7.02c-2.65,0-4.03.92-4.03,3.61,0,2.35,1.26,3.86,4.5,3.86,4.16,0,6.55-2.14,6.55-5.71Z"></path><path class="cls-12" d="m639.42,882.42h2.6l.29,3.49c1.01-2.14,3.28-4.03,7.35-4.03,4.75,0,7.77,2.52,7.77,7.94v13.61h-2.94v-13.27c0-4.33-2.14-5.71-5.5-5.71-3.82,0-6.64,2.69-6.64,5.63v13.36h-2.94v-21Z"></path><path class="cls-12" d="m663.11,892.97c0-7.1,4.28-11.09,10.04-11.09,3.7,0,6.22,1.6,7.31,3.74h.04v-14.95h2.94v32.77h-1.97l-.67-3.61h-.08c-1.18,2.31-3.95,4.16-7.77,4.16-6.3,0-9.83-3.99-9.83-11.01Zm17.64-.5c0-5.5-3.36-8.07-7.35-8.07-3.11,0-7.14,1.47-7.14,8.4s3.61,8.61,7.14,8.61c4.24,0,7.35-2.73,7.35-8.95Z"></path><path class="cls-12" d="m700.45,870.66h2.98v6.51h-2.98v-6.51Zm0,11.76h2.94v21h-2.94v-21Z"></path><path class="cls-12" d="m721.74,900.74v2.6c-.76.21-2.14.59-4.03.59-3.82,0-6.34-1.6-6.34-6.89v-12.18h-4.16v-2.44h4.16v-6.05l2.94-1.43v7.48h5.92v2.44h-5.92v11.8c0,2.81.76,4.58,3.4,4.58,1.6,0,3.23-.29,4.03-.5Z"></path><path class="cls-12" d="m724.68,897v-1.18h2.94v1.13c0,2.86,2.14,4.5,5.96,4.5s5.8-1.01,5.8-3.78c0-2.06-1.01-2.81-3.86-3.32l-4.62-.84c-3.02-.55-5.54-2.02-5.54-5.5,0-3.15,2.35-6.13,8.4-6.13s8.4,3.02,8.4,7.22v.88h-2.98v-.76c0-3.44-2.14-4.91-5.42-4.91-3.95,0-5.33,1.34-5.33,3.36s1.01,2.86,3.91,3.4l4.03.76c4.12.76,6.09,1.93,6.09,5.59,0,4.58-4.12,6.55-8.78,6.55-7.31,0-8.99-3.28-8.99-6.97Z"></path><path class="cls-12" d="m756.31,892.97c0-7.1,4.28-11.09,10.04-11.09,3.7,0,6.22,1.6,7.31,3.74h.04v-14.95h2.94v32.77h-1.97l-.67-3.61h-.08c-1.18,2.31-3.95,4.16-7.77,4.16-6.3,0-9.83-3.99-9.83-11.01Zm17.64-.5c0-5.5-3.36-8.07-7.35-8.07-3.11,0-7.14,1.47-7.14,8.4s3.61,8.61,7.14,8.61c4.24,0,7.35-2.73,7.35-8.95Z"></path><path class="cls-12" d="m801.25,893.93h-15.96c.17,4.79,2.48,7.48,6.93,7.48,3.82,0,5.67-1.43,5.96-4.83h2.98c-.29,4.24-3.28,7.39-9.03,7.39-7.06,0-9.83-4.66-9.83-10.88s3.23-11.22,10-11.22,8.95,3.99,8.95,10.21v1.85Zm-3.11-2.98c0-4.45-1.72-6.55-5.92-6.55s-6.55,2.65-6.89,6.97h12.81v-.42Z"></path><path class="cls-12" d="m805.24,897v-1.18h2.94v1.13c0,2.86,2.14,4.5,5.96,4.5s5.8-1.01,5.8-3.78c0-2.06-1.01-2.81-3.86-3.32l-4.62-.84c-3.02-.55-5.54-2.02-5.54-5.5,0-3.15,2.35-6.13,8.4-6.13s8.4,3.02,8.4,7.22v.88h-2.98v-.76c0-3.44-2.14-4.91-5.42-4.91-3.95,0-5.33,1.34-5.33,3.36s1.01,2.86,3.91,3.4l4.03.76c4.12.76,6.09,1.93,6.09,5.59,0,4.58-4.12,6.55-8.78,6.55-7.31,0-8.99-3.28-8.99-6.97Z"></path><path class="cls-12" d="m827.2,893.09c0-6.38,3.23-11.22,10-11.22s8.95,3.91,8.95,8.95v.42h-3.11v-.63c0-3.82-1.64-6.09-5.84-6.09-4.75,0-7.02,3.11-7.02,8.4,0,5.63,2.39,8.49,6.93,8.49,3.82,0,5.84-1.85,5.92-5.67h3.02c-.08,4.66-3.15,8.23-9.03,8.23-7.23,0-9.83-4.75-9.83-10.88Z"></path><path class="cls-12" d="m869.29,893.93h-15.96c.17,4.79,2.48,7.48,6.93,7.48,3.82,0,5.67-1.43,5.96-4.83h2.98c-.29,4.24-3.28,7.39-9.03,7.39-7.06,0-9.83-4.66-9.83-10.88s3.23-11.22,10-11.22,8.95,3.99,8.95,10.21v1.85Zm-3.11-2.98c0-4.45-1.72-6.55-5.92-6.55s-6.55,2.65-6.89,6.97h12.81v-.42Z"></path><path class="cls-12" d="m875.17,882.42h2.6l.29,3.49c1.01-2.14,3.28-4.03,7.35-4.03,4.75,0,7.77,2.52,7.77,7.94v13.61h-2.94v-13.27c0-4.33-2.14-5.71-5.5-5.71-3.82,0-6.64,2.69-6.64,5.63v13.36h-2.94v-21Z"></path><path class="cls-12" d="m898.85,892.97c0-7.1,4.28-11.09,10.04-11.09,3.7,0,6.22,1.6,7.31,3.74h.04v-14.95h2.94v32.77h-1.97l-.67-3.61h-.08c-1.18,2.31-3.95,4.16-7.77,4.16-6.3,0-9.83-3.99-9.83-11.01Zm17.64-.5c0-5.5-3.36-8.07-7.35-8.07-3.11,0-7.14,1.47-7.14,8.4s3.61,8.61,7.14,8.61c4.24,0,7.35-2.73,7.35-8.95Z"></path><path class="cls-12" d="m943.8,893.93h-15.96c.17,4.79,2.48,7.48,6.93,7.48,3.82,0,5.67-1.43,5.96-4.83h2.98c-.29,4.24-3.28,7.39-9.03,7.39-7.06,0-9.83-4.66-9.83-10.88s3.23-11.22,10-11.22,8.95,3.99,8.95,10.21v1.85Zm-3.11-2.98c0-4.45-1.72-6.55-5.92-6.55s-6.55,2.65-6.89,6.97h12.81v-.42Z"></path><path class="cls-12" d="m949.67,882.42h2.6l.29,3.91c1.01-2.14,3.07-4.45,6.76-4.45,1.26,0,2.18.21,3.02.55v3.15c-1.13-.5-2.1-.76-3.4-.76-3.74,0-6.34,2.81-6.34,5.75v12.85h-2.94v-21Z"></path><path class="cls-12" d="m976.64,870.66h2.98v6.51h-2.98v-6.51Zm0,11.76h2.94v21h-2.94v-21Z"></path><path class="cls-12" d="m985.08,897v-1.18h2.94v1.13c0,2.86,2.14,4.5,5.96,4.5s5.8-1.01,5.8-3.78c0-2.06-1.01-2.81-3.86-3.32l-4.62-.84c-3.02-.55-5.54-2.02-5.54-5.5,0-3.15,2.35-6.13,8.4-6.13s8.4,3.02,8.4,7.22v.88h-2.98v-.76c0-3.44-2.14-4.91-5.42-4.91-3.95,0-5.33,1.34-5.33,3.36s1.01,2.86,3.91,3.4l4.03.76c4.12.76,6.09,1.93,6.09,5.59,0,4.58-4.12,6.55-8.78,6.55-7.31,0-8.99-3.28-8.99-6.97Z"></path><path class="cls-12" d="m1017.97,896.03v-13.61h2.94v13.27c0,4.33,2.14,5.71,5.42,5.71,3.74,0,6.55-2.69,6.55-5.63v-13.36h2.94v21h-2.6l-.25-3.36h-.08c-.97,2.02-3.23,3.91-7.23,3.91-4.66,0-7.69-2.52-7.69-7.94Z"></path><path class="cls-12" d="m1043.17,882.42h2.6l.29,3.49c1.01-2.14,3.28-4.03,7.35-4.03,4.75,0,7.77,2.52,7.77,7.94v13.61h-2.94v-13.27c0-4.33-2.14-5.71-5.5-5.71-3.82,0-6.64,2.69-6.64,5.63v13.36h-2.94v-21Z"></path><path class="cls-12" d="m1068.53,870.66h2.94v32.77h-2.94v-32.77Z"></path><path class="cls-12" d="m1077.14,892.92c0-6.22,3.32-11.05,10.38-11.05,6.6,0,10.25,4.83,10.25,11.05s-3.7,11.05-10.29,11.05c-7.27,0-10.33-4.83-10.33-11.05Zm17.56,0c0-5.33-2.9-8.49-7.23-8.49-4.75,0-7.27,3.15-7.27,8.49s2.56,8.49,7.27,8.49c4.33,0,7.23-3.15,7.23-8.49Z"></path><path class="cls-12" d="m1101.97,892.92c0-6.22,3.32-11.05,10.38-11.05,6.6,0,10.25,4.83,10.25,11.05s-3.7,11.05-10.29,11.05c-7.27,0-10.33-4.83-10.33-11.05Zm17.56,0c0-5.33-2.9-8.49-7.23-8.49-4.75,0-7.27,3.15-7.27,8.49s2.56,8.49,7.27,8.49c4.33,0,7.23-3.15,7.23-8.49Z"></path><path class="cls-12" d="m1128.47,882.42h2.39l.34,3.86h.08c1.13-2.48,4.03-4.41,7.86-4.41,6.3,0,9.66,3.99,9.66,11.01s-4.28,11.09-9.87,11.09c-3.78,0-6.39-1.6-7.44-3.7h-.08v11.55h-2.94v-29.41Zm17.18,10.63c0-7.18-3.4-8.61-6.93-8.61-4.24,0-7.56,2.73-7.56,8.44,0,6.01,3.44,8.57,7.44,8.57,3.02,0,7.06-1.47,7.06-8.4Z"></path><path class="cls-12" d="m1171.94,893.93h-15.96c.17,4.79,2.48,7.48,6.93,7.48,3.82,0,5.67-1.43,5.96-4.83h2.98c-.29,4.24-3.28,7.39-9.03,7.39-7.06,0-9.83-4.66-9.83-10.88s3.23-11.22,10-11.22,8.95,3.99,8.95,10.21v1.85Zm-3.11-2.98c0-4.45-1.72-6.55-5.92-6.55s-6.55,2.65-6.89,6.97h12.81v-.42Z"></path><path class="cls-12" d="m1176.14,892.97c0-7.1,4.28-11.09,10.04-11.09,3.7,0,6.22,1.6,7.31,3.74h.04v-14.95h2.94v32.77h-1.97l-.67-3.61h-.08c-1.18,2.31-3.95,4.16-7.77,4.16-6.3,0-9.83-3.99-9.83-11.01Zm17.64-.5c0-5.5-3.36-8.07-7.35-8.07-3.11,0-7.14,1.47-7.14,8.4s3.61,8.61,7.14,8.61c4.24,0,7.35-2.73,7.35-8.95Z"></path><path class="cls-12" d="m315.02,2461.05h8.61c7.94,0,11.64,2.73,11.64,9.62,0,6.43-2.77,10.12-11.13,10.12h-6.13v13.02h-2.98v-32.77Zm9.28,17.22c6.09,0,7.94-2.69,7.94-7.64,0-5.21-2.6-6.97-8.44-6.97h-5.8v14.62h6.3Z"></path><path class="cls-12" d="m339.88,2472.81h2.6l.29,3.91c1.01-2.14,3.07-4.45,6.76-4.45,1.26,0,2.18.21,3.02.54v3.15c-1.13-.5-2.1-.76-3.4-.76-3.74,0-6.34,2.81-6.34,5.76v12.85h-2.94v-21Z"></path><path class="cls-12" d="m357.18,2461.05h2.98v6.51h-2.98v-6.51Zm0,11.76h2.94v21h-2.94v-21Z"></path><path class="cls-12" d="m367.51,2472.81h2.6l.29,3.49c1.01-2.14,3.28-4.03,7.35-4.03,4.75,0,7.77,2.52,7.77,7.94v13.61h-2.94v-13.27c0-4.33-2.14-5.71-5.5-5.71-3.82,0-6.64,2.69-6.64,5.63v13.36h-2.94v-21Z"></path><path class="cls-12" d="m403.85,2491.13v2.6c-.76.21-2.14.59-4.03.59-3.82,0-6.34-1.6-6.34-6.89v-12.18h-4.16v-2.44h4.16v-6.05l2.94-1.43v7.48h5.92v2.44h-5.92v11.8c0,2.81.76,4.58,3.4,4.58,1.6,0,3.23-.29,4.03-.5Z"></path><path class="cls-12" d="m416.44,2487.39v-1.18h2.94v1.13c0,2.86,2.14,4.5,5.96,4.5s5.8-1.01,5.8-3.78c0-2.06-1.01-2.81-3.86-3.32l-4.62-.84c-3.02-.55-5.54-2.02-5.54-5.5,0-3.15,2.35-6.13,8.4-6.13s8.4,3.02,8.4,7.22v.88h-2.98v-.76c0-3.44-2.14-4.92-5.42-4.92-3.95,0-5.33,1.34-5.33,3.36s1.01,2.86,3.91,3.4l4.03.76c4.12.76,6.09,1.93,6.09,5.59,0,4.58-4.12,6.55-8.78,6.55-7.31,0-8.99-3.28-8.99-6.97Z"></path><path class="cls-12" d="m438.41,2483.48c0-6.38,3.23-11.21,10-11.21s8.95,3.91,8.95,8.95v.42h-3.11v-.63c0-3.82-1.64-6.09-5.84-6.09-4.75,0-7.02,3.11-7.02,8.4,0,5.63,2.39,8.49,6.93,8.49,3.82,0,5.84-1.85,5.92-5.67h3.02c-.08,4.66-3.15,8.23-9.03,8.23-7.23,0-9.83-4.75-9.83-10.88Z"></path><path class="cls-12" d="m463.23,2472.81h2.6l.29,3.91c1.01-2.14,3.07-4.45,6.76-4.45,1.26,0,2.18.21,3.02.54v3.15c-1.13-.5-2.1-.76-3.4-.76-3.74,0-6.34,2.81-6.34,5.76v12.85h-2.94v-21Z"></path><path class="cls-12" d="m480.54,2461.05h2.98v6.51h-2.98v-6.51Zm0,11.76h2.94v21h-2.94v-21Z"></path><path class="cls-12" d="m490.87,2472.81h2.39l.34,3.87h.08c1.13-2.48,4.03-4.41,7.86-4.41,6.3,0,9.66,3.99,9.66,11.01s-4.28,11.09-9.87,11.09c-3.78,0-6.39-1.6-7.44-3.7h-.08v11.55h-2.94v-29.41Zm17.18,10.63c0-7.18-3.4-8.61-6.93-8.61-4.24,0-7.56,2.73-7.56,8.44,0,6.01,3.44,8.57,7.44,8.57,3.02,0,7.06-1.47,7.06-8.4Z"></path><path class="cls-12" d="m528.04,2491.13v2.6c-.76.21-2.14.59-4.03.59-3.82,0-6.34-1.6-6.34-6.89v-12.18h-4.16v-2.44h4.16v-6.05l2.94-1.43v7.48h5.92v2.44h-5.92v11.8c0,2.81.76,4.58,3.4,4.58,1.6,0,3.23-.29,4.03-.5Z"></path><path class="cls-12" d="m540.64,2487.39v-1.18h2.94v1.13c0,2.86,2.14,4.5,5.96,4.5s5.8-1.01,5.8-3.78c0-2.06-1.01-2.81-3.86-3.32l-4.62-.84c-3.02-.55-5.54-2.02-5.54-5.5,0-3.15,2.35-6.13,8.4-6.13s8.4,3.02,8.4,7.22v.88h-2.98v-.76c0-3.44-2.14-4.92-5.42-4.92-3.95,0-5.33,1.34-5.33,3.36s1.01,2.86,3.91,3.4l4.03.76c4.12.76,6.09,1.93,6.09,5.59,0,4.58-4.12,6.55-8.78,6.55-7.31,0-8.99-3.28-8.99-6.97Z"></path><path class="cls-12" d="m575.25,2491.13v2.6c-.76.21-2.14.59-4.03.59-3.82,0-6.34-1.6-6.34-6.89v-12.18h-4.16v-2.44h4.16v-6.05l2.94-1.43v7.48h5.92v2.44h-5.92v11.8c0,2.81.76,4.58,3.4,4.58,1.6,0,3.23-.29,4.03-.5Z"></path><path class="cls-12" d="m580.29,2472.81l6.89,17.98h.08l7.14-17.98h3.07v.04l-8.86,20.84-3.11,8.53h-2.98v-.04l3.19-8.36-8.78-20.96v-.04h3.36Z"></path><path class="cls-12" d="m601.67,2461.05h2.94v32.77h-2.94v-32.77Z"></path><path class="cls-12" d="m629.22,2484.32h-15.96c.17,4.79,2.48,7.48,6.93,7.48,3.82,0,5.67-1.43,5.96-4.83h2.98c-.29,4.24-3.28,7.39-9.03,7.39-7.06,0-9.83-4.66-9.83-10.88s3.23-11.21,10-11.21,8.95,3.99,8.95,10.21v1.85Zm-3.11-2.98c0-4.45-1.72-6.55-5.92-6.55s-6.55,2.65-6.89,6.97h12.81v-.42Z"></path><path class="cls-12" d="m643.5,2488.02c0-3.95,2.23-6.09,7.86-6.09h6.34v-1.72c0-2.98-1.26-5.42-5.46-5.42-3.95,0-5.33,1.51-5.33,4.12v.88h-2.98v-.84c0-5,4.2-6.68,8.32-6.68,5.8,0,8.4,2.86,8.4,8.44v13.11h-2.06l-.55-2.98h-.08c-1.26,1.89-3.7,3.53-7.35,3.53-4.91,0-7.1-2.31-7.1-6.34Zm14.2-1.85v-1.76h-7.02c-2.65,0-4.03.92-4.03,3.61,0,2.35,1.26,3.87,4.5,3.87,4.16,0,6.55-2.14,6.55-5.71Z"></path><path class="cls-12" d="m667.98,2472.81h2.6l.29,3.49c1.01-2.14,3.28-4.03,7.35-4.03,4.75,0,7.77,2.52,7.77,7.94v13.61h-2.94v-13.27c0-4.33-2.14-5.71-5.5-5.71-3.82,0-6.64,2.69-6.64,5.63v13.36h-2.94v-21Z"></path><path class="cls-12" d="m691.67,2483.36c0-7.1,4.28-11.09,10.04-11.09,3.7,0,6.22,1.6,7.31,3.74h.04v-14.96h2.94v32.77h-1.97l-.67-3.61h-.08c-1.18,2.31-3.95,4.16-7.77,4.16-6.3,0-9.83-3.99-9.83-11.01Zm17.64-.5c0-5.5-3.36-8.07-7.35-8.07-3.11,0-7.14,1.47-7.14,8.4s3.61,8.61,7.14,8.61c4.24,0,7.35-2.73,7.35-8.95Z"></path><path class="cls-12" d="m727.12,2487.39v-1.18h2.94v1.13c0,2.86,2.14,4.5,5.96,4.5s5.8-1.01,5.8-3.78c0-2.06-1.01-2.81-3.86-3.32l-4.62-.84c-3.02-.55-5.54-2.02-5.54-5.5,0-3.15,2.35-6.13,8.4-6.13s8.4,3.02,8.4,7.22v.88h-2.98v-.76c0-3.44-2.14-4.92-5.42-4.92-3.95,0-5.33,1.34-5.33,3.36s1.01,2.86,3.91,3.4l4.03.76c4.12.76,6.09,1.93,6.09,5.59,0,4.58-4.12,6.55-8.78,6.55-7.31,0-8.99-3.28-8.99-6.97Z"></path><path class="cls-12" d="m768.03,2484.32h-15.96c.17,4.79,2.48,7.48,6.93,7.48,3.82,0,5.67-1.43,5.96-4.83h2.98c-.29,4.24-3.28,7.39-9.03,7.39-7.06,0-9.83-4.66-9.83-10.88s3.23-11.21,10-11.21,8.95,3.99,8.95,10.21v1.85Zm-3.11-2.98c0-4.45-1.72-6.55-5.92-6.55s-6.55,2.65-6.89,6.97h12.81v-.42Z"></path><path class="cls-12" d="m804.61,2480.21v13.61h-2.94v-13.27c0-4.33-2.14-5.71-4.75-5.71-3.82,0-6.18,2.69-6.18,5.63v13.36h-2.94v-13.27c0-4.33-1.85-5.71-4.83-5.71-3.61,0-6.13,2.69-6.13,5.63v13.36h-2.94v-21h2.6l.29,3.49c1.01-2.02,3.07-4.03,6.93-4.03,2.94,0,5.38,1.39,6.43,4.28,1.22-2.39,3.57-4.28,7.14-4.28,4.28,0,7.31,2.52,7.31,7.94Z"></path><path class="cls-12" d="m811.96,2461.05h2.98v6.51h-2.98v-6.51Zm0,11.76h2.94v21h-2.94v-21Z"></path><path class="cls-12" d="m820.61,2480.33h10.59v2.81h-10.59v-2.81Z"></path><path class="cls-12" d="m840.02,2496.84c0,3.53-1.68,5.84-5.04,5.84-1.18,0-2.02-.13-2.94-.38v-2.61c.8.17,1.47.29,2.27.29,1.93,0,2.77-1.26,2.77-3.65v-23.53h2.94v24.03Zm-2.94-35.79h2.98v6.51h-2.98v-6.51Z"></path><path class="cls-12" d="m845.73,2483.31c0-6.22,3.32-11.05,10.38-11.05,6.6,0,10.25,4.83,10.25,11.05s-3.7,11.05-10.29,11.05c-7.27,0-10.33-4.83-10.33-11.05Zm17.56,0c0-5.33-2.9-8.48-7.23-8.48-4.75,0-7.27,3.15-7.27,8.48s2.56,8.49,7.27,8.49c4.33,0,7.23-3.15,7.23-8.49Z"></path><path class="cls-12" d="m872.23,2461.05h2.98v6.51h-2.98v-6.51Zm0,11.76h2.94v21h-2.94v-21Z"></path><path class="cls-12" d="m882.56,2472.81h2.6l.29,3.49c1.01-2.14,3.28-4.03,7.35-4.03,4.75,0,7.77,2.52,7.77,7.94v13.61h-2.94v-13.27c0-4.33-2.14-5.71-5.5-5.71-3.82,0-6.64,2.69-6.64,5.63v13.36h-2.94v-21Z"></path><path class="cls-12" d="m925.19,2484.32h-15.96c.17,4.79,2.48,7.48,6.93,7.48,3.82,0,5.67-1.43,5.96-4.83h2.98c-.29,4.24-3.28,7.39-9.03,7.39-7.06,0-9.83-4.66-9.83-10.88s3.23-11.21,10-11.21,8.95,3.99,8.95,10.21v1.85Zm-3.11-2.98c0-4.45-1.72-6.55-5.92-6.55s-6.55,2.65-6.89,6.97h12.81v-.42Z"></path><path class="cls-12" d="m929.39,2483.36c0-7.1,4.28-11.09,10.04-11.09,3.7,0,6.22,1.6,7.31,3.74h.04v-14.96h2.94v32.77h-1.97l-.67-3.61h-.08c-1.18,2.31-3.95,4.16-7.77,4.16-6.3,0-9.83-3.99-9.83-11.01Zm17.64-.5c0-5.5-3.36-8.07-7.35-8.07-3.11,0-7.14,1.47-7.14,8.4s3.61,8.61,7.14,8.61c4.24,0,7.35-2.73,7.35-8.95Z"></path><path class="cls-12" d="m463.55,2535.27v-13.61h2.94v13.27c0,4.33,2.14,5.71,5.42,5.71,3.74,0,6.55-2.69,6.55-5.63v-13.36h2.94v21h-2.6l-.25-3.36h-.08c-.97,2.02-3.23,3.91-7.23,3.91-4.66,0-7.69-2.52-7.69-7.94Z"></path><path class="cls-12" d="m488.75,2521.66h2.39l.34,3.86h.08c1.13-2.48,4.03-4.41,7.86-4.41,6.3,0,9.66,3.99,9.66,11.01s-4.28,11.09-9.87,11.09c-3.78,0-6.39-1.6-7.44-3.7h-.08v11.55h-2.94v-29.41Zm17.18,10.63c0-7.18-3.4-8.61-6.93-8.61-4.24,0-7.56,2.73-7.56,8.44,0,6.01,3.44,8.57,7.44,8.57,3.02,0,7.06-1.47,7.06-8.4Z"></path><path class="cls-12" d="m514.96,2521.66h2.39l.34,3.86h.08c1.13-2.48,4.03-4.41,7.86-4.41,6.3,0,9.66,3.99,9.66,11.01s-4.28,11.09-9.87,11.09c-3.78,0-6.39-1.6-7.44-3.7h-.08v11.55h-2.94v-29.41Zm17.18,10.63c0-7.18-3.4-8.61-6.93-8.61-4.24,0-7.56,2.73-7.56,8.44,0,6.01,3.44,8.57,7.44,8.57,3.02,0,7.06-1.47,7.06-8.4Z"></path><path class="cls-12" d="m558.43,2533.17h-15.96c.17,4.79,2.48,7.48,6.93,7.48,3.82,0,5.67-1.43,5.96-4.83h2.98c-.29,4.24-3.28,7.39-9.03,7.39-7.06,0-9.83-4.66-9.83-10.88s3.23-11.22,10-11.22,8.95,3.99,8.95,10.21v1.85Zm-3.11-2.98c0-4.45-1.72-6.55-5.92-6.55s-6.55,2.65-6.89,6.97h12.81v-.42Z"></path><path class="cls-12" d="m564.31,2521.66h2.6l.29,3.91c1.01-2.14,3.07-4.45,6.76-4.45,1.26,0,2.18.21,3.02.55v3.15c-1.13-.5-2.1-.76-3.4-.76-3.74,0-6.34,2.81-6.34,5.75v12.85h-2.94v-21Z"></path><path class="cls-12" d="m579.3,2532.33c0-6.38,3.23-11.22,10-11.22s8.95,3.91,8.95,8.95v.42h-3.11v-.63c0-3.82-1.64-6.09-5.84-6.09-4.75,0-7.02,3.11-7.02,8.4,0,5.63,2.39,8.49,6.93,8.49,3.82,0,5.84-1.85,5.92-5.67h3.02c-.08,4.66-3.15,8.23-9.03,8.23-7.23,0-9.83-4.75-9.83-10.88Z"></path><path class="cls-12" d="m602.65,2536.87c0-3.95,2.23-6.09,7.86-6.09h6.34v-1.72c0-2.98-1.26-5.42-5.46-5.42-3.95,0-5.33,1.51-5.33,4.12v.88h-2.98v-.84c0-5,4.2-6.68,8.32-6.68,5.8,0,8.4,2.86,8.4,8.44v13.11h-2.06l-.55-2.98h-.08c-1.26,1.89-3.7,3.53-7.35,3.53-4.92,0-7.1-2.31-7.1-6.34Zm14.2-1.85v-1.76h-7.02c-2.65,0-4.03.92-4.03,3.61,0,2.35,1.26,3.86,4.5,3.86,4.16,0,6.55-2.14,6.55-5.71Z"></path><path class="cls-12" d="m625.25,2536.24v-1.18h2.94v1.13c0,2.86,2.14,4.5,5.96,4.5s5.8-1.01,5.8-3.78c0-2.06-1.01-2.81-3.86-3.32l-4.62-.84c-3.02-.55-5.54-2.02-5.54-5.5,0-3.15,2.35-6.13,8.4-6.13s8.4,3.02,8.4,7.22v.88h-2.98v-.76c0-3.45-2.14-4.92-5.42-4.92-3.95,0-5.33,1.34-5.33,3.36s1.01,2.86,3.91,3.4l4.03.76c4.12.76,6.09,1.93,6.09,5.59,0,4.58-4.12,6.55-8.78,6.55-7.31,0-8.99-3.28-8.99-6.97Z"></path><path class="cls-12" d="m666.16,2533.17h-15.96c.17,4.79,2.48,7.48,6.93,7.48,3.82,0,5.67-1.43,5.96-4.83h2.98c-.29,4.24-3.28,7.39-9.03,7.39-7.06,0-9.83-4.66-9.83-10.88s3.23-11.22,10-11.22,8.95,3.99,8.95,10.21v1.85Zm-3.11-2.98c0-4.45-1.72-6.55-5.92-6.55s-6.55,2.65-6.89,6.97h12.81v-.42Z"></path><path class="cls-12" d="m681.7,2509.9h2.94v32.77h-2.94v-32.77Z"></path><path class="cls-12" d="m709.25,2533.17h-15.96c.17,4.79,2.48,7.48,6.93,7.48,3.82,0,5.67-1.43,5.96-4.83h2.98c-.29,4.24-3.28,7.39-9.03,7.39-7.06,0-9.83-4.66-9.83-10.88s3.23-11.22,10-11.22,8.95,3.99,8.95,10.21v1.85Zm-3.11-2.98c0-4.45-1.72-6.55-5.92-6.55s-6.55,2.65-6.89,6.97h12.81v-.42Z"></path><path class="cls-12" d="m715.72,2536.28v-12.18h-4.16v-2.44h4.16v-6.05l2.94-1.43v7.48h11.85v-6.05l2.94-1.43v7.48h5.92v2.44h-5.92v11.8c0,2.81.76,4.58,3.4,4.58,1.6,0,3.23-.29,4.03-.5v2.6c-.76.21-2.14.59-4.03.59-3.82,0-6.34-1.6-6.34-6.89v-12.18h-11.85v11.8c0,2.81.76,4.58,3.4,4.58,1.6,0,3.23-.29,4.03-.5v2.6c-.76.21-2.14.59-4.03.59-3.82,0-6.34-1.6-6.34-6.89Z"></path><path class="cls-12" d="m762.34,2533.17h-15.96c.17,4.79,2.48,7.48,6.93,7.48,3.82,0,5.67-1.43,5.96-4.83h2.98c-.29,4.24-3.28,7.39-9.03,7.39-7.06,0-9.83-4.66-9.83-10.88s3.23-11.22,10-11.22,8.95,3.99,8.95,10.21v1.85Zm-3.11-2.98c0-4.45-1.72-6.55-5.92-6.55s-6.55,2.65-6.89,6.97h12.81v-.42Z"></path><path class="cls-12" d="m768.22,2521.66h2.6l.29,3.91c1.01-2.14,3.07-4.45,6.76-4.45,1.26,0,2.18.21,3.02.55v3.15c-1.13-.5-2.1-.76-3.4-.76-3.74,0-6.34,2.81-6.34,5.75v12.85h-2.94v-21Z"></path><path class="cls-12" d="m783.42,2536.24v-1.18h2.94v1.13c0,2.86,2.14,4.5,5.96,4.5s5.8-1.01,5.8-3.78c0-2.06-1.01-2.81-3.86-3.32l-4.62-.84c-3.02-.55-5.54-2.02-5.54-5.5,0-3.15,2.35-6.13,8.4-6.13s8.4,3.02,8.4,7.22v.88h-2.98v-.76c0-3.45-2.14-4.92-5.42-4.92-3.95,0-5.33,1.34-5.33,3.36s1.01,2.86,3.91,3.4l4.03.76c4.12.76,6.09,1.93,6.09,5.59,0,4.58-4.12,6.55-8.78,6.55-7.31,0-8.99-3.28-8.99-6.97Z"></path><path class="cls-12" d="m1248.78,1659.52v-19.95h2.94v19.95c0,9.41,4.08,10.63,8.86,10.63s8.78-1.01,8.78-10.63v-19.95h2.94v19.62c0,11.64-5.33,13.69-11.76,13.69s-11.76-2.06-11.76-13.36Z"></path><path class="cls-12" d="m1280.49,1651.33h2.6l.29,3.49c1.01-2.14,3.28-4.03,7.35-4.03,4.75,0,7.77,2.52,7.77,7.94v13.61h-2.94v-13.27c0-4.33-2.14-5.71-5.5-5.71-3.82,0-6.64,2.69-6.64,5.63v13.36h-2.94v-21Z"></path><path class="cls-12" d="m1305.85,1639.56h2.98v6.51h-2.98v-6.51Zm0,11.76h2.94v21h-2.94v-21Z"></path><path class="cls-12" d="m1331.81,1668.84h-.08c-1.09,2.14-3.65,4.03-7.48,4.03-6.3,0-9.75-3.99-9.75-11.01s4.37-11.09,9.96-11.09c3.78,0,6.6,1.76,7.65,4.28h.04l.29-3.74h2.31v29.41h-2.94v-11.89Zm.34-7.48c0-5.5-3.36-8.07-7.35-8.07-3.02,0-7.14,1.47-7.14,8.4s3.57,8.61,7.1,8.61c4.24,0,7.39-2.73,7.39-8.95Z"></path><path class="cls-12" d="m1341.68,1664.94v-13.61h2.94v13.27c0,4.33,2.14,5.71,5.42,5.71,3.74,0,6.55-2.69,6.55-5.63v-13.36h2.94v21h-2.6l-.25-3.36h-.08c-.97,2.02-3.24,3.91-7.23,3.91-4.66,0-7.69-2.52-7.69-7.94Z"></path><path class="cls-12" d="m1384.14,1662.84h-15.96c.17,4.79,2.48,7.48,6.93,7.48,3.82,0,5.67-1.43,5.96-4.83h2.98c-.29,4.24-3.28,7.39-9.03,7.39-7.06,0-9.83-4.66-9.83-10.88s3.23-11.22,10-11.22,8.95,3.99,8.95,10.21v1.85Zm-3.11-2.98c0-4.45-1.72-6.55-5.92-6.55s-6.55,2.65-6.89,6.97h12.81v-.42Z"></path><path class="cls-12" d="m1397.79,1665.9v-1.18h2.94v1.13c0,2.86,2.14,4.5,5.96,4.5s5.8-1.01,5.8-3.78c0-2.06-1.01-2.81-3.87-3.32l-4.62-.84c-3.02-.55-5.54-2.02-5.54-5.5,0-3.15,2.35-6.13,8.4-6.13s8.4,3.02,8.4,7.22v.88h-2.98v-.76c0-3.44-2.14-4.91-5.42-4.91-3.95,0-5.33,1.34-5.33,3.36s1.01,2.86,3.91,3.4l4.03.76c4.12.76,6.09,1.93,6.09,5.59,0,4.58-4.12,6.55-8.78,6.55-7.31,0-8.99-3.28-8.99-6.97Z"></path><path class="cls-12" d="m1421.44,1639.56h2.94v15.16c1.05-2.1,3.28-3.95,7.31-3.95,4.75,0,7.77,2.52,7.77,7.94v13.61h-2.94v-13.27c0-4.33-2.14-5.71-5.5-5.71-3.82,0-6.64,2.69-6.64,5.63v13.36h-2.94v-32.77Z"></path><path class="cls-12" d="m1445.55,1666.53c0-3.95,2.23-6.09,7.86-6.09h6.34v-1.72c0-2.98-1.26-5.42-5.46-5.42-3.95,0-5.33,1.51-5.33,4.12v.88h-2.98v-.84c0-5,4.2-6.68,8.32-6.68,5.8,0,8.4,2.86,8.4,8.44v13.11h-2.06l-.55-2.98h-.08c-1.26,1.89-3.7,3.53-7.35,3.53-4.92,0-7.1-2.31-7.1-6.34Zm14.2-1.85v-1.76h-7.02c-2.65,0-4.03.92-4.03,3.61,0,2.35,1.26,3.86,4.5,3.86,4.16,0,6.55-2.14,6.55-5.71Z"></path><path class="cls-12" d="m1470.03,1651.33h2.39l.34,3.86h.08c1.13-2.48,4.03-4.41,7.86-4.41,6.3,0,9.66,3.99,9.66,11.01s-4.28,11.09-9.87,11.09c-3.78,0-6.39-1.6-7.44-3.7h-.08v11.55h-2.94v-29.41Zm17.18,10.63c0-7.18-3.4-8.61-6.93-8.61-4.24,0-7.56,2.73-7.56,8.44,0,6.01,3.44,8.57,7.43,8.57,3.03,0,7.06-1.47,7.06-8.4Z"></path><path class="cls-12" d="m1513.5,1662.84h-15.96c.17,4.79,2.48,7.48,6.93,7.48,3.82,0,5.67-1.43,5.96-4.83h2.98c-.29,4.24-3.28,7.39-9.03,7.39-7.06,0-9.83-4.66-9.83-10.88s3.23-11.22,10-11.22,8.95,3.99,8.95,10.21v1.85Zm-3.11-2.98c0-4.45-1.72-6.55-5.92-6.55s-6.55,2.65-6.89,6.97h12.81v-.42Z"></path><path class="cls-12" d="m1527.36,1661.83c0-6.22,3.32-11.05,10.38-11.05,6.59,0,10.25,4.83,10.25,11.05s-3.7,11.05-10.29,11.05c-7.27,0-10.33-4.83-10.33-11.05Zm17.56,0c0-5.33-2.9-8.49-7.23-8.49-4.75,0-7.27,3.15-7.27,8.49s2.56,8.49,7.27,8.49c4.33,0,7.23-3.15,7.23-8.49Z"></path><path class="cls-12" d="m1558.02,1646.29v5.04h5.92v2.44h-5.92v18.57h-2.94v-18.57h-4.16v-2.44h4.16v-5.42c0-5.29,3.15-6.89,6.38-6.89,1.85,0,2.98.29,3.74.55v2.6c-.71-.21-1.89-.46-3.49-.46-2.65,0-3.7,1.76-3.7,4.58Z"></path><path class="cls-12" d="m1579.9,1650.02h-3.36v-5.08c0-3.95.88-5.29,3.4-5.97l.67,1.85c-1.76.67-2.06,1.09-2.06,3.78v.34h1.34v5.08Zm5.92,0h-3.36v-5.08c0-3.95.88-5.29,3.4-5.97l.67,1.85c-1.76.67-2.06,1.09-2.06,3.78v.34h1.34v5.08Z"></path><path class="cls-12" d="m1587.8,1665.9v-1.18h2.94v1.13c0,2.86,2.14,4.5,5.96,4.5s5.8-1.01,5.8-3.78c0-2.06-1.01-2.81-3.87-3.32l-4.62-.84c-3.02-.55-5.54-2.02-5.54-5.5,0-3.15,2.35-6.13,8.4-6.13s8.4,3.02,8.4,7.22v.88h-2.98v-.76c0-3.44-2.14-4.91-5.42-4.91-3.95,0-5.33,1.34-5.33,3.36s1.01,2.86,3.91,3.4l4.03.76c4.12.76,6.09,1.93,6.09,5.59,0,4.58-4.12,6.55-8.78,6.55-7.31,0-8.99-3.28-8.99-6.97Z"></path><path class="cls-12" d="m1607.88,1648.76c1.76-.67,2.06-1.09,2.06-3.78v-.34h-1.34v-5.08h3.36v5.08c0,3.95-.88,5.29-3.4,5.97l-.67-1.85Zm5.92,0c1.76-.67,2.06-1.09,2.06-3.78v-.34h-1.34v-5.08h3.36v5.08c0,3.95-.88,5.29-3.4,5.97l-.67-1.85Z"></path><path class="cls-12" d="m1114.26,2486.37v-2.02h3.02v2.18c0,3.74,2.6,6.05,7.94,6.05s8.44-1.97,8.44-6.22c0-3.32-1.39-5.17-4.92-6.09l-6.64-1.72c-4.33-1.13-7.18-2.98-7.18-8.15s3.78-8.91,10.92-8.91,10.59,3.44,10.59,9.07v2.94h-3.03v-2.81c0-4.62-3.07-6.51-7.56-6.51-5.12,0-7.81,2.14-7.81,6.01,0,3.61,1.76,4.71,5.54,5.71l5.75,1.55c5.12,1.39,7.44,3.74,7.44,8.65,0,6.09-4.33,9.24-11.47,9.24-9.12,0-11.05-4.7-11.05-8.99Z"></path><path class="cls-12" d="m1143.96,2462.05h2.98v6.51h-2.98v-6.51Zm0,11.76h2.94v21h-2.94v-21Z"></path><path class="cls-12" d="m1185,2481.21v13.61h-2.94v-13.27c0-4.33-2.14-5.71-4.75-5.71-3.82,0-6.18,2.69-6.18,5.63v13.36h-2.94v-13.27c0-4.33-1.85-5.71-4.83-5.71-3.61,0-6.13,2.69-6.13,5.63v13.36h-2.94v-21h2.6l.29,3.49c1.01-2.02,3.07-4.03,6.93-4.03,2.94,0,5.38,1.39,6.43,4.29,1.22-2.39,3.57-4.29,7.14-4.29,4.28,0,7.31,2.52,7.31,7.94Z"></path><path class="cls-12" d="m1192.34,2473.81h2.39l.34,3.87h.08c1.13-2.48,4.03-4.41,7.86-4.41,6.3,0,9.66,3.99,9.66,11.01s-4.29,11.09-9.87,11.09c-3.78,0-6.38-1.6-7.44-3.7h-.08v11.55h-2.94v-29.41Zm17.18,10.63c0-7.18-3.4-8.61-6.93-8.61-4.24,0-7.56,2.73-7.56,8.44,0,6.01,3.44,8.57,7.44,8.57,3.02,0,7.06-1.47,7.06-8.4Z"></path><path class="cls-12" d="m1217.92,2462.05h2.94v32.77h-2.94v-32.77Z"></path><path class="cls-12" d="m1245.48,2485.32h-15.96c.17,4.79,2.48,7.48,6.93,7.48,3.82,0,5.67-1.43,5.96-4.83h2.98c-.29,4.24-3.28,7.39-9.03,7.39-7.06,0-9.83-4.66-9.83-10.88s3.23-11.22,10-11.22,8.95,3.99,8.95,10.21v1.85Zm-3.11-2.98c0-4.45-1.72-6.55-5.92-6.55s-6.55,2.65-6.89,6.97h12.81v-.42Z"></path><path class="cls-12" d="m1261.01,2473.81h2.39l.34,3.87h.08c1.13-2.48,4.03-4.41,7.86-4.41,6.3,0,9.66,3.99,9.66,11.01s-4.28,11.09-9.87,11.09c-3.78,0-6.39-1.6-7.44-3.7h-.08v11.55h-2.94v-29.41Zm17.18,10.63c0-7.18-3.4-8.61-6.93-8.61-4.24,0-7.56,2.73-7.56,8.44,0,6.01,3.44,8.57,7.43,8.57,3.03,0,7.06-1.47,7.06-8.4Z"></path><path class="cls-12" d="m1287.22,2473.81h2.6l.29,3.91c1.01-2.14,3.07-4.45,6.76-4.45,1.26,0,2.18.21,3.02.55v3.15c-1.13-.5-2.1-.76-3.4-.76-3.74,0-6.34,2.81-6.34,5.75v12.85h-2.94v-21Z"></path><path class="cls-12" d="m1304.52,2462.05h2.98v6.51h-2.98v-6.51Zm0,11.76h2.94v21h-2.94v-21Z"></path><path class="cls-12" d="m1314.86,2473.81h2.6l.29,3.49c1.01-2.14,3.28-4.03,7.35-4.03,4.75,0,7.77,2.52,7.77,7.94v13.61h-2.94v-13.27c0-4.33-2.14-5.71-5.5-5.71-3.82,0-6.64,2.69-6.64,5.63v13.36h-2.94v-21Z"></path><path class="cls-12" d="m1351.19,2492.13v2.6c-.76.21-2.14.59-4.03.59-3.82,0-6.34-1.6-6.34-6.89v-12.18h-4.16v-2.44h4.16v-6.05l2.94-1.43v7.48h5.92v2.44h-5.92v11.8c0,2.81.76,4.58,3.4,4.58,1.6,0,3.23-.29,4.03-.5Z"></path><path class="cls-12" d="m1363.79,2488.39v-1.18h2.94v1.13c0,2.86,2.14,4.5,5.96,4.5s5.8-1.01,5.8-3.78c0-2.06-1.01-2.81-3.87-3.32l-4.62-.84c-3.02-.55-5.54-2.02-5.54-5.5,0-3.15,2.35-6.13,8.4-6.13s8.4,3.02,8.4,7.23v.88h-2.98v-.76c0-3.44-2.14-4.92-5.42-4.92-3.95,0-5.33,1.34-5.33,3.36s1.01,2.86,3.91,3.4l4.03.76c4.12.76,6.09,1.93,6.09,5.59,0,4.58-4.12,6.55-8.78,6.55-7.31,0-8.99-3.28-8.99-6.97Z"></path><path class="cls-12" d="m1398.4,2492.13v2.6c-.76.21-2.14.59-4.03.59-3.82,0-6.34-1.6-6.34-6.89v-12.18h-4.16v-2.44h4.16v-6.05l2.94-1.43v7.48h5.92v2.44h-5.92v11.8c0,2.81.76,4.58,3.4,4.58,1.6,0,3.23-.29,4.03-.5Z"></path><path class="cls-12" d="m1403.43,2473.81l6.89,17.98h.08l7.14-17.98h3.07v.04l-8.86,20.84-3.11,8.53h-2.98v-.04l3.19-8.36-8.78-20.96v-.04h3.36Z"></path><path class="cls-12" d="m1424.81,2462.05h2.94v32.77h-2.94v-32.77Z"></path><path class="cls-12" d="m1452.37,2485.32h-15.96c.17,4.79,2.48,7.48,6.93,7.48,3.82,0,5.67-1.43,5.96-4.83h2.98c-.29,4.24-3.28,7.39-9.03,7.39-7.06,0-9.83-4.66-9.83-10.88s3.23-11.22,10-11.22,8.95,3.99,8.95,10.21v1.85Zm-3.11-2.98c0-4.45-1.72-6.55-5.92-6.55s-6.55,2.65-6.89,6.97h12.81v-.42Z"></path><path class="cls-12" d="m1469.58,2472.51h-3.36v-5.08c0-3.95.88-5.29,3.4-5.96l.67,1.85c-1.76.67-2.06,1.09-2.06,3.78v.34h1.34v5.08Zm5.92,0h-3.36v-5.08c0-3.95.88-5.29,3.4-5.96l.67,1.85c-1.76.67-2.06,1.09-2.06,3.78v.34h1.34v5.08Z"></path><path class="cls-12" d="m1498.11,2473.85l-8.07,10.5,8.02,10.42v.04h-3.45l-6.34-8.44-6.43,8.44h-3.28v-.04l8.02-10.38-8.07-10.54v-.04h3.45l6.38,8.49,6.43-8.44v-.04h3.32v.04Z"></path><path class="cls-12" d="m1500.75,2471.25c1.76-.67,2.06-1.09,2.06-3.78v-.34h-1.34v-5.08h3.36v5.08c0,3.95-.88,5.29-3.4,5.96l-.67-1.85Zm5.92,0c1.76-.67,2.06-1.09,2.06-3.78v-.34h-1.34v-5.08h3.36v5.08c0,3.95-.88,5.29-3.4,5.96l-.67-1.85Z"></path><path class="cls-12" d="m1537.25,2492.13v2.6c-.76.21-2.14.59-4.03.59-3.82,0-6.34-1.6-6.34-6.89v-12.18h-4.16v-2.44h4.16v-6.05l2.94-1.43v7.48h5.92v2.44h-5.92v11.8c0,2.81.76,4.58,3.4,4.58,1.6,0,3.23-.29,4.03-.5Z"></path><path class="cls-12" d="m1542.08,2462.05h2.94v15.17c1.05-2.1,3.28-3.95,7.31-3.95,4.75,0,7.77,2.52,7.77,7.94v13.61h-2.94v-13.27c0-4.33-2.14-5.71-5.5-5.71-3.82,0-6.64,2.69-6.64,5.63v13.36h-2.94v-32.77Z"></path><path class="cls-12" d="m1566.18,2489.02c0-3.95,2.23-6.09,7.86-6.09h6.34v-1.72c0-2.98-1.26-5.42-5.46-5.42-3.95,0-5.33,1.51-5.33,4.12v.88h-2.98v-.84c0-5,4.2-6.68,8.32-6.68,5.8,0,8.4,2.86,8.4,8.44v13.11h-2.06l-.55-2.98h-.08c-1.26,1.89-3.7,3.53-7.35,3.53-4.92,0-7.1-2.31-7.1-6.34Zm14.2-1.85v-1.76h-7.01c-2.65,0-4.03.92-4.03,3.61,0,2.35,1.26,3.87,4.5,3.87,4.16,0,6.55-2.14,6.55-5.71Z"></path><path class="cls-12" d="m1601.42,2492.13v2.6c-.76.21-2.14.59-4.03.59-3.82,0-6.34-1.6-6.34-6.89v-12.18h-4.16v-2.44h4.16v-6.05l2.94-1.43v7.48h5.92v2.44h-5.92v11.8c0,2.81.76,4.58,3.4,4.58,1.6,0,3.23-.29,4.03-.5Z"></path><path class="cls-12" d="m1059.06,2533.2c0-7.1,4.28-11.09,10.04-11.09,3.7,0,6.22,1.6,7.31,3.74h.04v-14.95h2.94v32.77h-1.97l-.67-3.61h-.08c-1.18,2.31-3.95,4.16-7.77,4.16-6.3,0-9.83-3.99-9.83-11.01Zm17.64-.5c0-5.5-3.36-8.07-7.35-8.07-3.11,0-7.14,1.47-7.14,8.4s3.61,8.61,7.14,8.61c4.24,0,7.35-2.73,7.35-8.95Z"></path><path class="cls-12" d="m1085.05,2533.16c0-6.22,3.32-11.05,10.38-11.05,6.6,0,10.25,4.83,10.25,11.05s-3.7,11.05-10.29,11.05c-7.27,0-10.33-4.83-10.33-11.05Zm17.56,0c0-5.33-2.9-8.49-7.23-8.49-4.75,0-7.27,3.15-7.27,8.49s2.56,8.49,7.27,8.49c4.33,0,7.23-3.15,7.23-8.49Z"></path><path class="cls-12" d="m1128.82,2534.17h-15.96c.17,4.79,2.48,7.48,6.93,7.48,3.82,0,5.67-1.43,5.96-4.83h2.98c-.29,4.24-3.28,7.39-9.03,7.39-7.06,0-9.83-4.66-9.83-10.88s3.23-11.22,10-11.22,8.95,3.99,8.95,10.21v1.85Zm-3.11-2.98c0-4.45-1.72-6.55-5.92-6.55s-6.55,2.65-6.89,6.97h12.81v-.42Z"></path><path class="cls-12" d="m1132.81,2537.24v-1.18h2.94v1.13c0,2.86,2.14,4.5,5.96,4.5s5.8-1.01,5.8-3.78c0-2.06-1.01-2.81-3.87-3.32l-4.62-.84c-3.02-.55-5.54-2.02-5.54-5.5,0-3.15,2.35-6.13,8.4-6.13s8.4,3.02,8.4,7.22v.88h-2.98v-.76c0-3.44-2.14-4.91-5.42-4.91-3.95,0-5.33,1.34-5.33,3.36s1.01,2.86,3.91,3.4l4.03.76c4.12.76,6.09,1.93,6.09,5.59,0,4.58-4.12,6.55-8.78,6.55-7.31,0-8.99-3.28-8.99-6.97Z"></path><path class="cls-12" d="m1156.45,2522.66h2.6l.29,3.49c1.01-2.14,3.28-4.03,7.35-4.03,4.75,0,7.77,2.52,7.77,7.94v13.61h-2.94v-13.27c0-4.33-2.14-5.71-5.5-5.71-3.82,0-6.64,2.69-6.64,5.63v13.36h-2.94v-21Z"></path><path class="cls-12" d="m1178.88,2520.1c1.76-.67,2.06-1.09,2.06-3.78v-.34h-1.34v-5.08h3.36v5.08c0,3.95-.88,5.29-3.4,5.97l-.67-1.85Z"></path><path class="cls-12" d="m1199.38,2540.97v2.6c-.76.21-2.14.59-4.03.59-3.82,0-6.34-1.6-6.34-6.89v-12.18h-4.16v-2.44h4.16v-6.05l2.94-1.43v7.48h5.92v2.44h-5.92v11.8c0,2.81.76,4.58,3.4,4.58,1.6,0,3.23-.29,4.03-.5Z"></path><path class="cls-12" d="m1216.81,2546.69c0,3.53-1.68,5.84-5.04,5.84-1.18,0-2.02-.13-2.94-.38v-2.6c.8.17,1.47.29,2.27.29,1.93,0,2.77-1.26,2.77-3.65v-23.52h2.94v24.03Zm-2.94-35.79h2.98v6.51h-2.98v-6.51Z"></path><path class="cls-12" d="m1222.52,2533.16c0-6.22,3.32-11.05,10.38-11.05,6.6,0,10.25,4.83,10.25,11.05s-3.7,11.05-10.29,11.05c-7.27,0-10.33-4.83-10.33-11.05Zm17.56,0c0-5.33-2.9-8.49-7.23-8.49-4.75,0-7.27,3.15-7.27,8.49s2.56,8.49,7.27,8.49c4.33,0,7.23-3.15,7.23-8.49Z"></path><path class="cls-12" d="m1249.02,2510.9h2.98v6.51h-2.98v-6.51Zm0,11.76h2.94v21h-2.94v-21Z"></path><path class="cls-12" d="m1259.35,2522.66h2.6l.29,3.49c1.01-2.14,3.28-4.03,7.35-4.03,4.75,0,7.77,2.52,7.77,7.94v13.61h-2.94v-13.27c0-4.33-2.14-5.71-5.5-5.71-3.82,0-6.64,2.69-6.64,5.63v13.36h-2.94v-21Z"></path><path class="cls-12" d="m1305.35,2540.97v2.6c-.76.21-2.14.59-4.03.59-3.82,0-6.34-1.6-6.34-6.89v-12.18h-4.16v-2.44h4.16v-6.05l2.94-1.43v7.48h5.92v2.44h-5.92v11.8c0,2.81.76,4.58,3.4,4.58,1.6,0,3.23-.29,4.03-.5Z"></path><path class="cls-12" d="m1310.17,2510.9h2.94v15.16c1.05-2.1,3.28-3.95,7.31-3.95,4.75,0,7.77,2.52,7.77,7.94v13.61h-2.94v-13.27c0-4.33-2.14-5.71-5.5-5.71-3.82,0-6.64,2.69-6.64,5.63v13.36h-2.94v-32.77Z"></path><path class="cls-12" d="m1352.81,2534.17h-15.96c.17,4.79,2.48,7.48,6.93,7.48,3.82,0,5.67-1.43,5.96-4.83h2.98c-.29,4.24-3.28,7.39-9.03,7.39-7.06,0-9.83-4.66-9.83-10.88s3.23-11.22,10-11.22,8.95,3.99,8.95,10.21v1.85Zm-3.11-2.98c0-4.45-1.72-6.55-5.92-6.55s-6.55,2.65-6.89,6.97h12.81v-.42Z"></path><path class="cls-12" d="m1372.5,2517.62v5.04h5.92v2.44h-5.92v18.57h-2.94v-18.57h-4.16v-2.44h4.16v-5.42c0-5.29,3.15-6.89,6.38-6.89,1.85,0,2.98.29,3.74.55v2.6c-.71-.21-1.89-.46-3.49-.46-2.65,0-3.7,1.76-3.7,4.58Z"></path><path class="cls-12" d="m1380.31,2533.16c0-6.22,3.32-11.05,10.38-11.05,6.6,0,10.25,4.83,10.25,11.05s-3.7,11.05-10.29,11.05c-7.27,0-10.33-4.83-10.33-11.05Zm17.56,0c0-5.33-2.9-8.49-7.23-8.49-4.75,0-7.27,3.15-7.27,8.49s2.56,8.49,7.27,8.49c4.33,0,7.23-3.15,7.23-8.49Z"></path><path class="cls-12" d="m1406.19,2510.9h2.94v32.77h-2.94v-32.77Z"></path><path class="cls-12" d="m1416.48,2510.9h2.94v32.77h-2.94v-32.77Z"></path><path class="cls-12" d="m1425.08,2533.16c0-6.22,3.32-11.05,10.38-11.05,6.59,0,10.25,4.83,10.25,11.05s-3.7,11.05-10.29,11.05c-7.27,0-10.33-4.83-10.33-11.05Zm17.56,0c0-5.33-2.9-8.49-7.23-8.49-4.75,0-7.27,3.15-7.27,8.49s2.56,8.49,7.27,8.49c4.33,0,7.23-3.15,7.23-8.49Z"></path><path class="cls-12" d="m1448.02,2522.7v-.04h2.98l5.75,17.47h.08l6.3-17.47h2.69l6.18,17.47h.08l5.75-17.47h2.86v.04l-7.18,20.96h-3.02l-5.96-17.06h-.08l-6.22,17.06h-3.02l-7.18-20.96Z"></path><path class="cls-12" d="m1485.52,2510.9h2.98v6.51h-2.98v-6.51Zm0,11.76h2.94v21h-2.94v-21Z"></path><path class="cls-12" d="m1495.86,2522.66h2.6l.29,3.49c1.01-2.14,3.28-4.03,7.35-4.03,4.75,0,7.77,2.52,7.77,7.94v13.61h-2.94v-13.27c0-4.33-2.14-5.71-5.5-5.71-3.82,0-6.64,2.69-6.64,5.63v13.36h-2.94v-21Z"></path><path class="cls-12" d="m1520.59,2545.47v-.13h3.11v.13c0,2.9,1.93,4.33,6.13,4.33,4.79,0,7.01-2.94,7.01-7.86v-2.1h-.08c-1.09,2.18-3.65,4.08-7.48,4.08-6.3,0-9.75-3.99-9.75-10.71,0-7.1,4.37-11.09,9.96-11.09,3.78,0,6.55,1.81,7.56,4.12h.13l.29-3.57h2.31v19.16c0,5.88-2.81,10.71-10.33,10.71-6.3,0-8.86-2.98-8.86-7.06Zm16.59-12.77c0-5.5-3.36-8.07-7.35-8.07-3.02,0-7.14,1.47-7.14,8.4s3.57,8.32,7.1,8.32c4.24,0,7.39-2.73,7.39-8.65Z"></path><path class="cls-12" d="m1556.8,2510.9h2.94v32.77h-2.94v-32.77Z"></path><path class="cls-12" d="m1584.35,2534.17h-15.96c.17,4.79,2.48,7.48,6.93,7.48,3.82,0,5.67-1.43,5.96-4.83h2.98c-.29,4.24-3.28,7.39-9.03,7.39-7.06,0-9.83-4.66-9.83-10.88s3.23-11.22,10-11.22,8.95,3.99,8.95,10.21v1.85Zm-3.11-2.98c0-4.45-1.72-6.55-5.92-6.55s-6.55,2.65-6.89,6.97h12.81v-.42Z"></path><path class="cls-12" d="m1590.82,2537.28v-12.18h-4.16v-2.44h4.16v-6.05l2.94-1.43v7.48h11.85v-6.05l2.94-1.43v7.48h5.92v2.44h-5.92v11.8c0,2.81.76,4.58,3.4,4.58,1.6,0,3.23-.29,4.03-.5v2.6c-.76.21-2.14.59-4.03.59-3.82,0-6.34-1.6-6.34-6.89v-12.18h-11.85v11.8c0,2.81.76,4.58,3.4,4.58,1.6,0,3.23-.29,4.03-.5v2.6c-.76.21-2.14.59-4.03.59-3.82,0-6.34-1.6-6.34-6.89Z"></path><path class="cls-12" d="m1637.44,2534.17h-15.96c.17,4.79,2.48,7.48,6.93,7.48,3.82,0,5.67-1.43,5.96-4.83h2.98c-.29,4.24-3.28,7.39-9.03,7.39-7.06,0-9.83-4.66-9.83-10.88s3.23-11.22,10-11.22,8.95,3.99,8.95,10.21v1.85Zm-3.11-2.98c0-4.45-1.72-6.55-5.92-6.55s-6.55,2.65-6.89,6.97h12.81v-.42Z"></path><path class="cls-12" d="m1643.32,2522.66h2.6l.29,3.91c1.01-2.14,3.07-4.45,6.76-4.45,1.26,0,2.18.21,3.02.55v3.15c-1.13-.5-2.1-.76-3.4-.76-3.74,0-6.34,2.81-6.34,5.75v12.85h-2.94v-21Z"></path><path class="cls-12" d="m1285.91,834.42h-11.51v-2.6h25.96v2.6h-11.51v30.16h-2.94v-30.16Z"></path><path class="cls-12" d="m1301.41,843.58l6.89,17.98h.08l7.14-17.98h3.07v.04l-8.86,20.84-3.11,8.53h-2.98v-.04l3.19-8.36-8.78-20.96v-.04h3.36Z"></path><path class="cls-12" d="m1322.79,843.58h2.39l.34,3.86h.08c1.13-2.48,4.03-4.41,7.86-4.41,6.3,0,9.66,3.99,9.66,11.01s-4.28,11.09-9.87,11.09c-3.78,0-6.39-1.6-7.44-3.7h-.08v11.55h-2.94v-29.41Zm17.18,10.63c0-7.18-3.4-8.61-6.93-8.61-4.24,0-7.56,2.73-7.56,8.44,0,6.01,3.44,8.57,7.44,8.57,3.02,0,7.06-1.47,7.06-8.4Z"></path><path class="cls-12" d="m1347.31,854.08c0-6.22,3.32-11.05,10.38-11.05,6.6,0,10.25,4.83,10.25,11.05s-3.7,11.05-10.29,11.05c-7.27,0-10.33-4.83-10.33-11.05Zm17.56,0c0-5.33-2.9-8.49-7.23-8.49-4.75,0-7.27,3.15-7.27,8.49s2.56,8.49,7.27,8.49c4.33,0,7.23-3.15,7.23-8.49Z"></path><path class="cls-12" d="m1373.19,866.39v-.13h3.11v.13c0,2.9,1.93,4.33,6.13,4.33,4.79,0,7.02-2.94,7.02-7.86v-2.1h-.08c-1.09,2.18-3.65,4.07-7.48,4.07-6.3,0-9.75-3.99-9.75-10.71,0-7.1,4.37-11.09,9.96-11.09,3.78,0,6.55,1.81,7.56,4.12h.13l.29-3.57h2.31v19.16c0,5.88-2.81,10.71-10.33,10.71-6.3,0-8.86-2.98-8.86-7.06Zm16.59-12.77c0-5.5-3.36-8.07-7.35-8.07-3.02,0-7.14,1.47-7.14,8.4s3.57,8.32,7.1,8.32c4.24,0,7.39-2.73,7.39-8.65Z"></path><path class="cls-12" d="m1399.73,843.58h2.6l.29,3.91c1.01-2.14,3.07-4.45,6.76-4.45,1.26,0,2.18.21,3.02.55v3.15c-1.13-.5-2.1-.76-3.4-.76-3.74,0-6.34,2.81-6.34,5.75v12.85h-2.94v-21Z"></path><path class="cls-12" d="m1415.35,858.78c0-3.95,2.23-6.09,7.86-6.09h6.34v-1.72c0-2.98-1.26-5.42-5.46-5.42-3.95,0-5.33,1.51-5.33,4.12v.88h-2.98v-.84c0-5,4.2-6.68,8.32-6.68,5.8,0,8.4,2.86,8.4,8.44v13.11h-2.06l-.55-2.98h-.08c-1.26,1.89-3.7,3.53-7.35,3.53-4.92,0-7.1-2.31-7.1-6.34Zm14.2-1.85v-1.76h-7.02c-2.65,0-4.03.92-4.03,3.61,0,2.35,1.26,3.86,4.5,3.86,4.16,0,6.55-2.14,6.55-5.71Z"></path><path class="cls-12" d="m1439.84,843.58h2.39l.34,3.86h.08c1.13-2.48,4.03-4.41,7.86-4.41,6.3,0,9.66,3.99,9.66,11.01s-4.28,11.09-9.87,11.09c-3.78,0-6.39-1.6-7.44-3.7h-.08v11.55h-2.94v-29.41Zm17.18,10.63c0-7.18-3.4-8.61-6.93-8.61-4.24,0-7.56,2.73-7.56,8.44,0,6.01,3.44,8.57,7.44,8.57,3.02,0,7.06-1.47,7.06-8.4Z"></path><path class="cls-12" d="m1465.42,831.81h2.94v15.16c1.05-2.1,3.28-3.95,7.31-3.95,4.75,0,7.77,2.52,7.77,7.94v13.61h-2.94v-13.27c0-4.33-2.14-5.71-5.5-5.71-3.82,0-6.64,2.69-6.64,5.63v13.36h-2.94v-32.77Z"></path><path class="cls-12" d="m1490.79,831.81h2.98v6.51h-2.98v-6.51Zm0,11.76h2.94v21h-2.94v-21Z"></path><path class="cls-12" d="m1499.44,854.25c0-6.38,3.23-11.22,10-11.22s8.95,3.91,8.95,8.95v.42h-3.11v-.63c0-3.82-1.64-6.09-5.84-6.09-4.75,0-7.02,3.11-7.02,8.4,0,5.63,2.39,8.49,6.93,8.49,3.82,0,5.84-1.85,5.92-5.67h3.02c-.08,4.66-3.15,8.23-9.03,8.23-7.23,0-9.83-4.75-9.83-10.88Z"></path><path class="cls-12" d="m1532.03,858.15v-1.18h2.94v1.13c0,2.86,2.14,4.5,5.96,4.5s5.8-1.01,5.8-3.78c0-2.06-1.01-2.81-3.86-3.32l-4.62-.84c-3.02-.55-5.54-2.02-5.54-5.5,0-3.15,2.35-6.13,8.4-6.13s8.4,3.02,8.4,7.23v.88h-2.98v-.76c0-3.44-2.14-4.91-5.42-4.91-3.95,0-5.33,1.34-5.33,3.36s1.01,2.86,3.91,3.4l4.03.76c4.12.76,6.09,1.93,6.09,5.59,0,4.58-4.12,6.55-8.78,6.55-7.31,0-8.99-3.28-8.99-6.97Z"></path><path class="cls-12" d="m1566.64,861.89v2.6c-.76.21-2.14.59-4.03.59-3.82,0-6.34-1.6-6.34-6.89v-12.18h-4.16v-2.44h4.16v-6.05l2.94-1.43v7.48h5.92v2.44h-5.92v11.8c0,2.81.76,4.58,3.4,4.58,1.6,0,3.23-.29,4.03-.5Z"></path><path class="cls-12" d="m1571.68,843.58l6.89,17.98h.08l7.14-17.98h3.07v.04l-8.86,20.84-3.11,8.53h-2.98v-.04l3.19-8.36-8.78-20.96v-.04h3.36Z"></path><path class="cls-12" d="m1593.06,831.81h2.94v32.77h-2.94v-32.77Z"></path><path class="cls-12" d="m1620.61,855.09h-15.96c.17,4.79,2.48,7.48,6.93,7.48,3.82,0,5.67-1.43,5.96-4.83h2.98c-.29,4.24-3.28,7.39-9.03,7.39-7.06,0-9.83-4.66-9.83-10.88s3.23-11.22,10-11.22,8.95,3.99,8.95,10.21v1.85Zm-3.11-2.98c0-4.45-1.72-6.55-5.92-6.55s-6.55,2.65-6.89,6.97h12.81v-.42Z"></path><path class="cls-12" d="m1637.83,842.27h-3.36v-5.08c0-3.95.88-5.29,3.4-5.97l.67,1.85c-1.76.67-2.06,1.09-2.06,3.78v.34h1.34v5.08Zm5.92,0h-3.36v-5.08c0-3.95.88-5.29,3.4-5.97l.67,1.85c-1.76.67-2.06,1.09-2.06,3.78v.34h1.34v5.08Z"></path><path class="cls-12" d="m1650.14,843.58h2.6l.29,3.91c1.01-2.14,3.07-4.45,6.76-4.45,1.26,0,2.18.21,3.02.55v3.15c-1.13-.5-2.1-.76-3.4-.76-3.74,0-6.34,2.81-6.34,5.75v12.85h-2.94v-21Z"></path><path class="cls-12" d="m1665.55,841.01c1.76-.67,2.06-1.09,2.06-3.78v-.34h-1.34v-5.08h3.36v5.08c0,3.95-.88,5.29-3.4,5.97l-.67-1.85Zm5.92,0c1.76-.67,2.06-1.09,2.06-3.78v-.34h-1.34v-5.08h3.36v5.08c0,3.95-.88,5.29-3.4,5.97l-.67-1.85Z"></path><line class="cls-2" x1="1125.78" y1="2995.86" x2="1125.78" y2="2996.73"></line><line class="cls-10" x1="1125.78" y1="3013.67" x2="1125.78" y2="3191.54"></line><line class="cls-2" x1="1125.78" y1="3200.01" x2="1125.78" y2="3200.88"></line><path class="cls-12" d="m985.55,3226.05h-11.51v-2.6h25.96v2.6h-11.51v30.16h-2.94v-30.16Z"></path><path class="cls-12" d="m1001.05,3235.21l6.89,17.98h.08l7.14-17.98h3.07v.04l-8.86,20.84-3.11,8.53h-2.98v-.04l3.19-8.36-8.78-20.96v-.04h3.36Z"></path><path class="cls-12" d="m1022.42,3235.21h2.39l.34,3.87h.08c1.13-2.48,4.03-4.41,7.86-4.41,6.3,0,9.66,3.99,9.66,11.01s-4.28,11.09-9.87,11.09c-3.78,0-6.39-1.6-7.44-3.7h-.08v11.55h-2.94v-29.41Zm17.18,10.63c0-7.18-3.4-8.61-6.93-8.61-4.24,0-7.56,2.73-7.56,8.44,0,6.01,3.44,8.57,7.44,8.57,3.02,0,7.06-1.47,7.06-8.4Z"></path><path class="cls-12" d="m1046.95,3245.71c0-6.22,3.32-11.05,10.38-11.05,6.6,0,10.25,4.83,10.25,11.05s-3.7,11.05-10.29,11.05c-7.27,0-10.33-4.83-10.33-11.05Zm17.56,0c0-5.33-2.9-8.49-7.23-8.49-4.75,0-7.27,3.15-7.27,8.49s2.56,8.49,7.27,8.49c4.33,0,7.23-3.15,7.23-8.49Z"></path><path class="cls-12" d="m1072.82,3258.02v-.13h3.11v.13c0,2.9,1.93,4.33,6.13,4.33,4.79,0,7.02-2.94,7.02-7.86v-2.1h-.08c-1.09,2.18-3.65,4.07-7.48,4.07-6.3,0-9.75-3.99-9.75-10.71,0-7.1,4.37-11.09,9.96-11.09,3.78,0,6.55,1.81,7.56,4.12h.13l.29-3.57h2.31v19.16c0,5.88-2.81,10.71-10.33,10.71-6.3,0-8.86-2.98-8.86-7.06Zm16.59-12.77c0-5.5-3.36-8.07-7.35-8.07-3.02,0-7.14,1.47-7.14,8.4s3.57,8.32,7.1,8.32c4.24,0,7.39-2.73,7.39-8.65Z"></path><path class="cls-12" d="m1099.37,3235.21h2.6l.29,3.91c1.01-2.14,3.07-4.45,6.76-4.45,1.26,0,2.18.21,3.02.55v3.15c-1.13-.5-2.1-.76-3.4-.76-3.74,0-6.34,2.81-6.34,5.75v12.85h-2.94v-21Z"></path><path class="cls-12" d="m1114.99,3250.42c0-3.95,2.23-6.09,7.86-6.09h6.34v-1.72c0-2.98-1.26-5.42-5.46-5.42-3.95,0-5.33,1.51-5.33,4.12v.88h-2.98v-.84c0-5,4.2-6.68,8.32-6.68,5.8,0,8.4,2.86,8.4,8.44v13.11h-2.06l-.55-2.98h-.08c-1.26,1.89-3.7,3.53-7.35,3.53-4.92,0-7.1-2.31-7.1-6.34Zm14.2-1.85v-1.76h-7.02c-2.65,0-4.03.92-4.03,3.61,0,2.35,1.26,3.87,4.5,3.87,4.16,0,6.55-2.14,6.55-5.71Z"></path><path class="cls-12" d="m1139.48,3235.21h2.39l.34,3.87h.08c1.13-2.48,4.03-4.41,7.86-4.41,6.3,0,9.66,3.99,9.66,11.01s-4.28,11.09-9.87,11.09c-3.78,0-6.39-1.6-7.44-3.7h-.08v11.55h-2.94v-29.41Zm17.18,10.63c0-7.18-3.4-8.61-6.93-8.61-4.24,0-7.56,2.73-7.56,8.44,0,6.01,3.44,8.57,7.44,8.57,3.02,0,7.06-1.47,7.06-8.4Z"></path><path class="cls-12" d="m1165.06,3223.45h2.94v15.17c1.05-2.1,3.28-3.95,7.31-3.95,4.75,0,7.77,2.52,7.77,7.94v13.61h-2.94v-13.27c0-4.33-2.14-5.71-5.5-5.71-3.82,0-6.64,2.69-6.64,5.63v13.36h-2.94v-32.77Z"></path><path class="cls-12" d="m1190.42,3223.45h2.98v6.51h-2.98v-6.51Zm0,11.76h2.94v21h-2.94v-21Z"></path><path class="cls-12" d="m1199.08,3245.88c0-6.38,3.23-11.22,10-11.22s8.95,3.91,8.95,8.95v.42h-3.11v-.63c0-3.82-1.64-6.09-5.84-6.09-4.75,0-7.02,3.11-7.02,8.4,0,5.63,2.39,8.49,6.93,8.49,3.82,0,5.84-1.85,5.92-5.67h3.02c-.08,4.66-3.15,8.23-9.03,8.23-7.23,0-9.83-4.75-9.83-10.88Z"></path><path class="cls-12" d="m1231.67,3249.79v-1.18h2.94v1.13c0,2.86,2.14,4.5,5.96,4.5s5.8-1.01,5.8-3.78c0-2.06-1.01-2.81-3.86-3.32l-4.62-.84c-3.02-.55-5.54-2.02-5.54-5.5,0-3.15,2.35-6.13,8.4-6.13s8.4,3.02,8.4,7.23v.88h-2.98v-.76c0-3.44-2.14-4.92-5.42-4.92-3.95,0-5.33,1.34-5.33,3.36s1.01,2.86,3.91,3.4l4.03.76c4.12.76,6.09,1.93,6.09,5.59,0,4.58-4.12,6.55-8.78,6.55-7.31,0-8.99-3.28-8.99-6.97Z"></path><path class="cls-12" d="m1266.28,3253.53v2.6c-.76.21-2.14.59-4.03.59-3.82,0-6.34-1.6-6.34-6.89v-12.18h-4.16v-2.44h4.16v-6.05l2.94-1.43v7.48h5.92v2.44h-5.92v11.8c0,2.81.76,4.58,3.4,4.58,1.6,0,3.23-.29,4.03-.5Z"></path><path class="cls-12" d="m1271.32,3235.21l6.89,17.98h.08l7.14-17.98h3.07v.04l-8.86,20.84-3.11,8.53h-2.98v-.04l3.19-8.36-8.78-20.96v-.04h3.36Z"></path><path class="cls-12" d="m1292.69,3223.45h2.94v32.77h-2.94v-32.77Z"></path><path class="cls-12" d="m1320.25,3246.72h-15.96c.17,4.79,2.48,7.48,6.93,7.48,3.82,0,5.67-1.43,5.96-4.83h2.98c-.29,4.24-3.28,7.39-9.03,7.39-7.06,0-9.83-4.66-9.83-10.88s3.23-11.22,10-11.22,8.95,3.99,8.95,10.21v1.85Zm-3.11-2.98c0-4.45-1.72-6.55-5.92-6.55s-6.55,2.65-6.89,6.97h12.81v-.42Z"></path><path class="cls-12" d="m1337.47,3233.91h-3.36v-5.08c0-3.95.88-5.29,3.4-5.96l.67,1.85c-1.76.67-2.06,1.09-2.06,3.78v.34h1.34v5.08Zm5.92,0h-3.36v-5.08c0-3.95.88-5.29,3.4-5.96l.67,1.85c-1.76.67-2.06,1.09-2.06,3.78v.34h1.34v5.08Z"></path><path class="cls-12" d="m1360.74,3253.53v2.6c-.76.21-2.14.59-4.03.59-3.82,0-6.34-1.6-6.34-6.89v-12.18h-4.16v-2.44h4.16v-6.05l2.94-1.43v7.48h5.92v2.44h-5.92v11.8c0,2.81.76,4.58,3.4,4.58,1.6,0,3.23-.29,4.03-.5Z"></path><path class="cls-12" d="m1362.62,3232.65c1.76-.67,2.06-1.09,2.06-3.78v-.34h-1.34v-5.08h3.36v5.08c0,3.95-.88,5.29-3.4,5.96l-.67-1.85Zm5.92,0c1.76-.67,2.06-1.09,2.06-3.78v-.34h-1.34v-5.08h3.36v5.08c0,3.95-.88,5.29-3.4,5.96l-.67-1.85Z"></path><path class="cls-15" d="m888.24,645.9c0,36.76-29.8,66.55-66.55,66.55s-65.55-29.8-65.55-66.55,28.8-66.55,65.55-66.55,66.55,29.8,66.55,66.55Z"></path><line class="cls-7" x1="822.19" y1="729" x2="822.19" y2="802.24"></line></g><g id="words"><path class="cls-12" d="m571.74,429.57c0-112.52,71.11-223.63,147.67-223.63,44.04,0,72.93,36.56,72.93,99.59,0,102.22-76.16,229.08-152.92,229.08-40.81,0-67.67-35.96-67.67-105.05Zm204.44-123.83c0-56.97-25.05-84.64-58.79-84.64-67.07,0-129.49,108.88-129.49,209.08,0,56.97,20.2,89.29,53.74,89.29,64.44,0,134.54-118.38,134.54-213.73Zm-87.67-159.59c0-10.5,8.08-17.37,17.37-17.37,8.08,0,12.93,5.05,12.93,12.93,0,10.3-8.48,17.98-17.78,17.98-8.08,0-12.52-5.86-12.52-13.53Zm63.63,0c0-10.5,8.08-17.37,17.37-17.37,8.08,0,12.93,5.05,12.93,12.93,0,10.3-8.48,17.98-17.78,17.98-8.08,0-12.52-5.86-12.52-13.53Z"></path><path class="cls-15" d="m848.09,491.38c-5.25,0-7.47-2.42-7.47-6.26,0-5.45,5.66-8.08,12.73-8.89,54.14-6.87,128.28-41.21,165.45-125.05,2.83-6.46,5.45-7.88,9.7-7.88,2.02,0,3.84,1.41,3.84,4.44,0,3.23-1.82,7.68-3.43,10.91-34.75,75.15-105.45,122.82-175.14,132.32-3.23.4-4.65.4-5.66.4Z"></path><path class="cls-12" d="m978.39,505.32c0-14.54,4.44-34.34,12.32-63.03,7.07-25.66,14.75-53.13,22.42-80.2l-24.04.4c-4.65,0-7.47-2.22-7.47-6.06,0-6.46,5.86-8.08,11.92-8.08h23.64c6.46-22.42,12.73-44.24,18.38-64.24,2.02-6.87,4.44-9.29,9.09-9.29s7.27,2.02,7.27,6.26c0,1.21-.2,2.83-.61,4.44l-17.78,62.83h47.07c6.26,0,8.89,1.01,8.89,4.65,0,4.85-4.04,7.07-12.73,7.47-7.88.4-27.88,1.01-46.87,1.41l-23.84,83.63c-8.08,28.28-11.51,46.66-11.51,56.56,0,13.33,3.64,17.37,19.19,17.37,5.86,0,7.47,2.63,7.47,5.86,0,5.66-4.65,9.29-11.31,9.29-21.41,0-31.51-10.1-31.51-29.29Zm148.28-30.91c2.63,0,3.23,2.02,3.23,4.24,0,4.04-.81,7.47-7.88,11.72-53.13,31.92-89.29,44.24-111.51,44.24-3.64,0-5.86-2.42-5.86-5.86,0-4.65,2.83-9.29,9.9-9.29,16.77,0,49.09-9.09,104.44-42.02,3.43-2.02,5.86-3.03,7.68-3.03Zm96.61-104.24c0,33.33-29.09,72.93-92.12,114.74,6.06,22.63,23.43,34.54,47.07,34.54,3.43,0,5.86,2.02,5.86,5.25,0,5.25-4.44,9.9-9.9,9.9-33.94,0-61.61-23.43-61.61-66.46,0-63.23,41.21-124.84,84.44-124.84,15.35,0,26.26,9.9,26.26,26.87Zm-94.34,101.41c52.32-34.75,78.78-72.93,78.78-97.17,0-10.91-6.46-15.96-15.55-15.96-30.1,0-63.43,56.16-63.43,106.86,0,2.22,0,4.24.2,6.26Zm40.79,56.97c0-5.25,3.84-9.09,8.89-9.09,52.93,0,106.66-52.73,162.62-169.89,2.42-5.25,4.24-6.26,7.68-6.26,2.63,0,4.85,1.62,4.85,4.85s-1.01,7.88-2.63,11.11c-55.15,116.76-115.15,175.35-176.76,175.35-2.42,0-4.65-2.42-4.65-6.06Zm235.17-170.09c-4.44,0-10.1,1.82-18.59,9.09-13.74,11.72-25.45,30.1-46.46,75.96-14.14,30.91-20.81,51.11-26.26,73.94-3.43,14.54-6.67,17.17-11.72,17.17-3.84,0-8.08-2.42-8.08-7.47,0-2.02.4-4.24,2.02-9.9l43.63-162.42c2.42-9.29,5.86-11.51,9.9-11.51,4.24,0,6.87,2.42,6.87,7.07,0,3.03-1.21,7.88-2.63,12.73l-21.62,72.12c26.26-57.57,48.89-91.51,73.53-91.51,4.44,0,6.67,2.22,6.67,6.46,0,5.05-3.23,8.28-7.27,8.28Zm17.87,25.05c-1.41-17.37-8.48-25.05-17.37-25.05-5.45,0-7.27-2.63-7.27-6.46,0-4.44,2.63-8.28,7.68-8.28,18.18,0,32.52,12.93,32.52,41.21,0,5.25-3.03,10.1-7.68,10.1s-7.07-2.63-7.88-11.51Z"></path><path class="cls-12" d="m891.32,333.81c-13.33,58.58-22.63,104.44-31.11,150.1-8.69,42.42-23.84,128.88-28.48,165.25-2.63,20-5.25,22.42-10.71,22.42s-8.48-2.22-8.48-12.73c0-25.86,12.12-86.06,23.23-135.75,4.44-19.8,5.05-22.83,5.05-24.44,0-1.41-1.82-2.83-4.04-4.24-4.04-2.42-6.87-5.25-6.87-9.29,0-3.64,1.41-5.45,4.44-6.26,2.83-.81,7.27-1.41,11.92-1.41,8.28-47.67,16.97-95.96,31.72-156.36,19.6-80.8,47.27-117.17,81.82-117.17,20.81,0,40,13.53,40,19.8,0,3.43-2.63,6.67-5.66,6.67-2.22,0-5.05-1.41-8.69-3.43-6.06-3.43-14.54-7.88-26.46-7.88-26.87,0-47.88,28.28-67.67,114.74Z"></path><path class="cls-12" d="m654.4,1271.04c25.66,44.24,38.79,62.62,60,62.62,3.64,0,8.48,1.41,8.48,6.67,0,3.64-4.24,8.48-11.72,8.48-25.86,0-39.8-18.99-70.1-70.7-21.21-36.16-35.35-64.64-44.64-83.63-14.54,54.14-28.28,107.07-37.78,145.04-1.62,6.67-4.44,9.29-8.08,9.29-4.24,0-7.68-1.82-7.68-5.45,0-2.02.4-6.67,6.67-30.71,14.95-57.78,51.72-193.12,76.56-283.42.81-3.23,2.63-6.06,6.67-6.06,4.24,0,8.48,2.42,8.48,5.86,0,1.62-.61,4.65-1.62,8.28-10.1,35.55-22.42,80.4-34.75,126.26,54.14-42.62,106.46-86.06,152.72-131.31,8.28-8.28,10.1-9.09,12.12-9.09,3.84,0,7.07,2.63,7.07,6.67,0,2.22-1.41,5.05-5.05,8.48-53.53,51.92-107.47,96.97-166.05,140.8,9.29,20.2,24.65,50.3,48.68,91.92Zm53.51,71.71c0-5.25,3.84-9.09,8.89-9.09,32.52,0,102.62-86.26,143.83-168.48,3.03-6.06,4.85-7.68,8.08-7.68,2.42,0,4.85,1.41,4.85,4.65,0,2.42-.2,5.45-3.03,10.91-42.02,82.62-113.73,175.75-157.97,175.75-2.42,0-4.65-2.42-4.65-6.06Zm216.88-170.09c-4.44,0-10.1,1.82-18.59,9.09-13.74,11.72-25.45,30.1-46.46,75.96-14.14,30.91-20.81,51.11-26.26,73.94-3.43,14.54-6.67,17.17-11.72,17.17-3.84,0-8.08-2.42-8.08-7.47,0-2.02.4-4.24,2.02-9.9l43.63-162.42c2.42-9.29,5.86-11.51,9.9-11.51,4.24,0,6.87,2.42,6.87,7.07,0,3.03-1.21,7.88-2.63,12.73l-21.62,72.12c26.26-57.57,48.89-91.51,73.53-91.51,4.44,0,6.67,2.22,6.67,6.46,0,5.05-3.23,8.28-7.27,8.28Zm-7.47-6.46c0-4.04,3.03-8.28,8.08-8.28,13.94,0,24.44,7.88,43.23,36.56,17.98,27.27,28.08,35.15,46.46,35.15,4.24,0,7.07,1.62,7.07,5.45,0,3.23-3.03,6.87-11.11,6.87-18.18,0-34.95-10.3-53.13-38.38-18.18-28.08-24.04-30.91-34.14-30.91-4.44,0-6.46-3.03-6.46-6.46Zm194.78,17.58c0,25.86-24.24,53.33-92.72,57.98-2.22,10.1-3.43,20.81-3.43,31.72,0,38.99,19.6,60.2,51.51,60.2,3.43,0,5.86,2.02,5.86,5.25,0,5.25-4.44,9.9-9.9,9.9-35.96,0-63.63-25.66-63.63-72.52,0-66.06,38.99-118.78,82.42-118.78,16.36,0,29.9,9.09,29.9,26.26Zm-15.15,2.83c0-9.09-7.47-14.95-17.58-14.95-24.04,0-45.65,24.24-56.36,56.97,51.51-3.23,73.94-23.23,73.94-42.02Zm-39.37,156.16c0-5.25,3.84-9.09,8.89-9.09,52.93,0,106.66-52.73,162.62-169.89,2.42-5.25,4.24-6.26,7.68-6.26,2.63,0,4.85,1.62,4.85,4.85s-1.01,7.88-2.63,11.11c-55.15,116.76-115.15,175.35-176.76,175.35-2.42,0-4.65-2.42-4.65-6.06Zm170.24-173.73c2.02-9.7,5.45-11.51,9.7-11.51s7.07,2.22,7.07,7.68-7.68,35.15-19.19,68.89c-15.96,47.07-23.84,70.5-23.84,87.67,0,8.89,3.84,11.92,11.31,11.92,5.86,0,7.47,2.63,7.47,5.86,0,5.66-4.65,9.29-11.31,9.29-14.95,0-23.64-7.47-23.64-24.85,0-19.6,8.89-44.64,23.03-84.44,10.1-28.48,13.94-45.45,19.39-70.5Zm-23.53,173.73c0-5.25,3.84-9.09,8.89-9.09,35.55,0,84.04-62.02,122.22-111.71,14.95-19.39,28.69-36.77,39.19-47.67,3.23-3.23,6.87-6.87,10.91-6.87,2.83,0,5.05,1.82,5.05,3.84,0,1.82-.81,4.24-5.86,9.49-9.9,10.1-22.83,26.87-37.37,46.46-38.79,52.12-91.51,121.61-138.38,121.61-2.42,0-4.65-2.42-4.65-6.06Zm35.25-243.22c0-10.91,8.69-19.6,18.59-19.6,7.88,0,13.53,5.66,13.53,13.13,0,10.5-9.7,19.6-19.8,19.6-6.67,0-12.32-4.85-12.32-13.13Zm89.46,249.28c0-4.04,2.22-6.67,7.47-7.68,61.01-12.52,89.49-32.12,89.49-54.95,0-14.75-12.93-24.65-27.07-35.35-16.57-12.73-34.34-26.46-34.34-50.3,0-17.37,9.7-29.9,27.27-38.79,6.87-3.43,11.31-4.24,14.14-4.24,4.24,0,6.26,2.63,6.26,6.46,0,2.63-3.03,5.66-10.71,8.89-14.34,6.26-21.82,13.94-21.82,25.45,0,16.97,14.34,28.48,29.49,40.4,15.76,12.52,31.92,25.45,31.92,45.25,0,32.12-34.14,58.18-97.98,71.92-3.03.61-5.66.61-7.47.61-3.84,0-6.67-3.23-6.67-7.68Z"></path><path class="cls-12" d="m438.06,2157.69c0-3.23,2.83-6.06,7.27-10.91,58.18-62.42,147.27-177.37,213.93-296.35,5.86-10.3,7.88-12.52,10.5-12.52,4.85,0,7.88,2.42,7.88,6.46s-1.01,12.52-4.24,30.5c-6.67,37.57-27.88,148.08-45.45,214.34,45.86-57.78,138.78-188.07,169.89-236.35,9.49-14.75,11.31-15.96,15.55-15.96s7.47,2.83,7.47,6.46c0,2.83-.81,6.67-5.25,21.01l-53.33,171.71c-13.33,43.23-20.2,71.51-20.2,90.3,0,16.77,7.88,23.03,19.8,23.03,5.86,0,7.47,2.63,7.47,5.86,0,5.66-4.65,9.29-11.31,9.29-17.17,0-32.12-10.71-32.12-35.96,0-18.59,8.28-52.32,22.63-97.17l50.5-157.17c-77.98,115.15-134.74,189.69-170.5,235.95-4.24,5.66-6.26,7.68-9.9,7.68-4.24,0-7.88-2.63-7.88-7.27,0-1.41.4-3.84,2.42-12.93,3.84-16.57,30.3-137.17,46.26-220.8-64.85,114.34-148.07,217.37-202.21,279.99-5.25,6.26-9.09,7.68-12.32,7.68-4.44,0-6.87-2.22-6.87-6.87Zm315.73.81c0-5.25,3.84-9.09,8.89-9.09,40.81,0,88.28-59.59,126.46-108.48,11.51-14.75,22.63-28.69,32.12-39.19,4.85-5.25,8.28-7.27,11.72-7.27s4.85,2.83,4.85,4.65c0,3.23-1.41,6.87-6.87,12.73-10.1,11.11-21.21,24.85-32.73,39.39-40.81,51.51-90.3,113.33-139.79,113.33-2.42,0-4.65-2.42-4.65-6.06Zm280.82-185.24c4.24,0,8.28,1.21,8.28,6.87,0,2.42-1.62,8.89-3.03,14.14l-28.28,103.83c-5.25,19.19-7.68,29.49-7.68,37.17,0,10.3,4.04,14.14,12.12,14.14,5.86,0,7.68,2.63,7.68,5.86,0,5.66-4.85,9.29-11.51,9.29-16.16,0-24.44-7.68-24.44-27.47,0-6.87.81-12.93,8.28-41.21l3.64-14.14c-24.44,44.04-56.56,82.82-87.07,82.82-17.37,0-29.9-17.17-29.9-52.52,0-71.92,44.85-138.78,90.91-138.78,24.24,0,42.83,10.71,42.83,16.57,0,3.84-2.22,6.67-5.66,6.67-1.41,0-3.84-.81-7.27-2.02-6.67-2.42-16.77-6.06-28.89-6.06-37.78,0-75.75,60.4-75.75,121.01,0,29.9,6.87,40,17.17,40,26.26,0,80.6-64.44,103.83-144.44l6.06-22.83c1.41-5.66,4.65-8.89,8.69-8.89Zm-27.08,185.24c0-5.25,3.84-9.09,8.89-9.09,34.34,0,96.56-86.66,140.4-168.68,3.43-6.26,4.24-7.47,7.47-7.47,2.42,0,4.85,1.41,4.85,4.65,0,2.83,0,6.26-3.23,12.52-43.63,81.41-108.08,174.13-153.73,174.13-2.42,0-4.65-2.42-4.65-6.06Zm112.71,6.06c-4.24,0-7.27-3.23-7.27-7.27,0-1.82.61-3.43,6.67-9.9l74.74-80.6c-12.52-24.24-24.04-48.48-29.9-63.84-4.04-10.5-6.67-17.58-6.67-22.02,0-3.64,3.84-7.68,7.27-7.68,4.24,0,6.06,1.82,12.52,19.8,5.25,14.34,16.77,38.58,29.29,62.62l68.28-75.55c5.05-5.45,7.07-6.87,9.7-6.87,3.84,0,7.07,3.03,7.07,7.27,0,2.02-.61,3.43-6.67,9.9l-72.12,77.37c12.12,22.83,24.04,43.84,30.71,54.34,16.77,26.06,23.84,31.92,23.84,36.56,0,4.24-5.25,8.28-9.09,8.28-4.85,0-10.91-7.47-27.27-33.33-7.68-12.12-19.19-32.73-30.91-54.95l-70.7,78.99c-5.05,5.66-7.27,6.87-9.49,6.87Zm254.34-179.79c2.02-9.7,5.45-11.51,9.7-11.51s7.07,2.22,7.07,7.68-7.68,35.15-19.19,68.89c-15.96,47.07-23.84,70.5-23.84,87.67,0,8.89,3.84,11.92,11.31,11.92,5.86,0,7.47,2.63,7.47,5.86,0,5.66-4.65,9.29-11.31,9.29-14.95,0-23.64-7.47-23.64-24.85,0-19.59,8.89-44.64,23.03-84.44,10.1-28.48,13.94-45.45,19.39-70.5Zm34.32,144.84c8.08-6.87,9.49-7.88,11.72-7.88,3.03,0,5.45,2.42,5.45,5.45,0,2.02-1.21,5.66-8.08,12.12-18.79,17.58-39.39,25.25-61.61,25.25-3.23,0-6.26-2.02-6.26-6.87s4.85-8.28,9.7-8.28c15.35,0,34.14-7.27,49.09-19.8Zm-22.61-214.34c0-10.91,8.69-19.6,18.59-19.6,7.88,0,13.53,5.66,13.53,13.13,0,10.5-9.7,19.6-19.8,19.6-6.67,0-12.32-4.85-12.32-13.13Z"></path><path class="cls-12" d="m860.28,2655.38c5.05,0,8.69,3.23,8.69,7.07,0,2.22-.4,5.66-3.64,21.62l-57.98,289.08c-1.41,7.07-3.84,8.89-7.88,8.89-4.44,0-8.28-2.22-8.28-6.06,0-1.82.2-3.84,1.41-9.29l58.38-282.41c-82.62,116.16-169.89,210.09-253.32,290.49-6.26,5.86-9.49,7.27-13.33,7.27-3.43,0-6.67-2.22-6.67-6.87,0-4.04,2.83-6.87,7.27-10.91,85.25-79.19,174.94-178.17,248.27-278.37,20.4-27.88,21.82-30.5,27.07-30.5Zm-194.12,205.65c-5.05-.81-7.68-3.64-7.68-7.07,0-3.64,1.62-7.27,7.47-7.27,3.84,0,26.26,1.01,52.32,1.41,30.1.4,71.71.4,86.66.4,11.72,0,25.45-1.62,30.91-1.62,4.04,0,5.66,2.02,5.66,4.04,0,4.24-2.83,9.29-16.16,10.1-24.85,1.62-71.71,1.62-124.84,1.62-11.72,0-28.08-.61-34.34-1.62Zm223.06,119.59c0-4.44,2.63-6.46,7.68-7.47,60.2-11.51,84.44-22.22,84.44-47.07,0-17.58-13.94-29.29-28.69-41.61-16.16-13.53-32.73-27.47-32.73-50.3,0-27.07,23.03-45.45,53.53-45.45,20.2,0,37.98,10.3,37.98,16.36,0,2.63-2.22,6.06-5.66,6.06-1.62,0-3.84-.81-6.87-2.02-5.66-2.42-14.14-5.66-27.07-5.66-22.83,0-36.77,12.52-36.77,28.69s13.33,27.68,27.88,40c16.57,13.94,33.53,28.89,33.53,51.92,0,38.79-31.11,51.51-81.41,61.41-11.92,2.42-14.95,2.83-17.37,2.83-5.66,0-8.48-3.23-8.48-7.68Zm244.52-176.76c2.63,0,5.25,2.02,5.25,4.24s-1.21,6.26-2.63,9.29c-53.33,124.04-179.18,160.2-231.71,170.3-1.82.4-2.63.4-3.23.4-2.83,0-4.24-2.63-4.24-5.86,0-4.24,1.01-7.88,9.9-9.29,44.64-6.87,173.53-45.65,220.6-163.63,1.62-3.84,3.84-5.45,6.06-5.45Zm-41.75,148.88c0-14.54,4.44-34.34,12.32-63.03,7.07-25.66,14.75-53.13,22.42-80.2l-24.04.4c-4.65,0-7.47-2.22-7.47-6.06,0-6.46,5.86-8.08,11.92-8.08h23.64c6.46-22.42,12.73-44.24,18.38-64.24,2.02-6.87,4.44-9.29,9.09-9.29s7.27,2.02,7.27,6.26c0,1.21-.2,2.83-.61,4.44l-17.78,62.83h47.07c6.26,0,8.89,1.01,8.89,4.65,0,4.85-4.04,7.07-12.73,7.47-7.88.4-27.88,1.01-46.87,1.41l-23.84,83.63c-8.08,28.28-11.51,46.66-11.51,56.56,0,13.33,3.64,17.37,19.19,17.37,5.86,0,7.47,2.63,7.47,5.86,0,5.66-4.65,9.29-11.31,9.29-21.41,0-31.51-10.1-31.51-29.29Zm84.17-5.66c8.08-6.87,9.49-7.88,11.72-7.88,3.03,0,5.45,2.42,5.45,5.45,0,2.02-1.21,5.66-8.08,12.12-18.79,17.58-39.39,25.25-61.61,25.25-3.23,0-6.26-2.02-6.26-6.87s4.85-8.28,9.7-8.28c15.35,0,34.14-7.27,49.09-19.8Z"></path><path class="cls-13" d="m860.28,2655.38c5.05,0,8.69,3.23,8.69,7.07,0,2.22-.4,5.66-3.64,21.62l-57.98,289.08c-1.41,7.07-3.84,8.89-7.88,8.89-4.44,0-8.28-2.22-8.28-6.06,0-1.82.2-3.84,1.41-9.29l58.38-282.41c-82.62,116.16-169.89,210.09-253.32,290.49-6.26,5.86-9.49,7.27-13.33,7.27-3.43,0-6.67-2.22-6.67-6.87,0-4.04,2.83-6.87,7.27-10.91,85.25-79.19,174.94-178.17,248.27-278.37,20.4-27.88,21.82-30.5,27.07-30.5Z"></path><path class="cls-13" d="m666.17,2861.03c-5.05-.81-7.68-3.64-7.68-7.07,0-3.64,1.62-7.27,7.47-7.27,3.84,0,26.26,1.01,52.32,1.41,30.1.4,71.71.4,86.66.4,11.72,0,25.45-1.62,30.91-1.62,4.04,0,5.66,2.02,5.66,4.04,0,4.24-2.83,9.29-16.16,10.1-24.85,1.62-71.71,1.62-124.84,1.62-11.72,0-28.08-.61-34.34-1.62Z"></path><path class="cls-13" d="m438.06,2157.69c0-3.23,2.83-6.06,7.27-10.91,58.18-62.42,147.27-177.37,213.93-296.35,5.86-10.3,7.88-12.52,10.5-12.52,4.85,0,7.88,2.42,7.88,6.46s-1.01,12.52-4.24,30.5c-6.67,37.57-27.88,148.08-45.45,214.34,45.86-57.78,138.78-188.07,169.89-236.35,9.49-14.75,11.31-15.96,15.55-15.96s7.47,2.83,7.47,6.46c0,2.83-.81,6.67-5.25,21.01l-53.33,171.71c-13.33,43.23-20.2,71.51-20.2,90.3,0,16.77,7.88,23.03,19.8,23.03,5.86,0,7.47,2.63,7.47,5.86,0,5.66-4.65,9.29-11.31,9.29-17.17,0-32.12-10.71-32.12-35.96,0-18.59,8.28-52.32,22.63-97.17l50.5-157.17c-77.98,115.15-134.74,189.69-170.5,235.95-4.24,5.66-6.26,7.68-9.9,7.68-4.24,0-7.88-2.63-7.88-7.27,0-1.41.4-3.84,2.42-12.93,3.84-16.57,30.3-137.17,46.26-220.8-64.85,114.34-148.07,217.37-202.21,279.99-5.25,6.26-9.09,7.68-12.32,7.68-4.44,0-6.87-2.22-6.87-6.87Z"></path><path class="cls-13" d="m753.79,2158.5c0-5.25,3.84-9.09,8.89-9.09,40.81,0,88.28-59.59,126.46-108.48,11.51-14.75,22.63-28.69,32.12-39.19,4.85-5.25,8.28-7.27,11.72-7.27s4.85,2.83,4.85,4.65c0,3.23-1.41,6.87-6.87,12.73-10.1,11.11-21.21,24.85-32.73,39.39-40.81,51.51-90.3,113.33-139.79,113.33-2.42,0-4.65-2.42-4.65-6.06Z"></path><path class="cls-12" d="m1034.6,1973.25c4.24,0,8.28,1.21,8.28,6.87,0,2.42-1.62,8.89-3.03,14.14l-28.28,103.83c-5.25,19.19-7.68,29.49-7.68,37.17,0,10.3,4.04,14.14,12.12,14.14,5.86,0,7.68,2.63,7.68,5.86,0,5.66-4.85,9.29-11.51,9.29-16.16,0-24.44-7.68-24.44-27.47,0-6.87.81-12.93,8.28-41.21l3.64-14.14c-24.44,44.04-56.56,82.82-87.07,82.82-17.37,0-29.9-17.17-29.9-52.52,0-71.92,44.85-138.78,90.91-138.78,24.24,0,42.83,10.71,42.83,16.57,0,3.84-2.22,6.67-5.66,6.67-1.41,0-3.84-.81-7.27-2.02-6.67-2.42-16.77-6.06-28.89-6.06-37.78,0-75.75,60.4-75.75,121.01,0,29.9,6.87,40,17.17,40,26.26,0,80.6-64.44,103.83-144.44l6.06-22.83c1.41-5.66,4.65-8.89,8.69-8.89Z"></path><path class="cls-13" d="m1204.29,1342.76c0-5.25,3.84-9.09,8.89-9.09,35.55,0,84.04-62.02,122.22-111.71,14.95-19.39,28.69-36.77,39.19-47.67,3.23-3.23,6.87-6.87,10.91-6.87,2.83,0,5.05,1.82,5.05,3.84,0,1.82-.81,4.24-5.86,9.49-9.9,10.1-22.83,26.87-37.37,46.46-38.79,52.12-91.51,121.61-138.38,121.61-2.42,0-4.65-2.42-4.65-6.06Z"></path><path class="cls-13" d="m1329,1348.82c0-4.04,2.22-6.67,7.47-7.68,61.01-12.52,89.49-32.12,89.49-54.95,0-14.75-12.93-24.65-27.07-35.35-16.57-12.73-34.34-26.46-34.34-50.3,0-17.37,9.7-29.9,27.27-38.79,6.87-3.43,11.31-4.24,14.14-4.24,4.24,0,6.26,2.63,6.26,6.46,0,2.63-3.03,5.66-10.71,8.89-14.34,6.26-21.82,13.94-21.82,25.45,0,16.97,14.34,28.48,29.49,40.4,15.76,12.52,31.92,25.45,31.92,45.25,0,32.12-34.14,58.18-97.98,71.92-3.03.61-5.66.61-7.47.61-3.84,0-6.67-3.23-6.67-7.68Z"></path><path class="cls-12" d="m1227.83,1169.02c2.02-9.7,5.45-11.51,9.7-11.51s7.07,2.22,7.07,7.68-7.68,35.15-19.19,68.89c-15.96,47.07-23.84,70.5-23.84,87.67,0,8.89,3.84,11.92,11.31,11.92,5.86,0,7.47,2.63,7.47,5.86,0,5.66-4.65,9.29-11.31,9.29-14.95,0-23.64-7.47-23.64-24.85,0-19.6,8.89-44.64,23.03-84.44,10.1-28.48,13.94-45.45,19.39-70.5Z"></path><path class="cls-13" d="m1120.23,2164.56c-4.24,0-7.27-3.23-7.27-7.27,0-1.82.61-3.43,6.67-9.9l74.74-80.6c-12.52-24.24-24.04-48.48-29.9-63.84-4.04-10.5-6.67-17.58-6.67-22.02,0-3.64,3.84-7.68,7.27-7.68,4.24,0,6.06,1.82,12.52,19.8,5.25,14.34,16.77,38.58,29.29,62.62l68.28-75.55c5.05-5.45,7.07-6.87,9.7-6.87,3.84,0,7.07,3.03,7.07,7.27,0,2.02-.61,3.43-6.67,9.9l-72.12,77.37c12.12,22.83,24.04,43.84,30.71,54.34,16.77,26.06,23.84,31.92,23.84,36.56,0,4.24-5.25,8.28-9.09,8.28-4.85,0-10.91-7.47-27.27-33.33-7.68-12.12-19.19-32.73-30.91-54.95l-70.7,78.99c-5.05,5.66-7.27,6.87-9.49,6.87Z"></path><path class="cls-13" d="m1404.9,358.46c-4.44,0-10.1,1.82-18.59,9.09-13.74,11.72-25.45,30.1-46.46,75.96-14.14,30.91-20.81,51.11-26.26,73.94-3.43,14.54-6.67,17.17-11.72,17.17-3.84,0-8.08-2.42-8.08-7.47,0-2.02.4-4.24,2.02-9.9l43.63-162.42c2.42-9.29,5.86-11.51,9.9-11.51,4.24,0,6.87,2.42,6.87,7.07,0,3.03-1.21,7.88-2.63,12.73l-21.62,72.12c26.26-57.57,48.89-91.51,73.53-91.51,4.44,0,6.67,2.22,6.67,6.46,0,5.05-3.23,8.28-7.27,8.28Z"></path><path class="cls-13" d="m1422.76,383.51c-1.41-17.37-8.48-25.05-17.37-25.05-5.45,0-7.27-2.63-7.27-6.46,0-4.44,2.63-8.28,7.68-8.28,18.18,0,32.52,12.93,32.52,41.21,0,5.25-3.03,10.1-7.68,10.1s-7.07-2.63-7.88-11.51Z"></path><path class="cls-13" d="m1092,2952.74c0-14.54,4.44-34.34,12.32-63.03,7.07-25.66,14.75-53.13,22.42-80.2l-24.04.4c-4.65,0-7.47-2.22-7.47-6.06,0-6.46,5.86-8.08,11.92-8.08h23.64c6.46-22.42,12.73-44.24,18.38-64.24,2.02-6.87,4.44-9.29,9.09-9.29s7.27,2.02,7.27,6.26c0,1.21-.2,2.83-.61,4.44l-17.78,62.83h47.07c6.26,0,8.89,1.01,8.89,4.65,0,4.85-4.04,7.07-12.73,7.47-7.88.4-27.88,1.01-46.87,1.41l-23.84,83.63c-8.08,28.28-11.51,46.66-11.51,56.56,0,13.33,3.64,17.37,19.19,17.37,5.86,0,7.47,2.63,7.47,5.86,0,5.66-4.65,9.29-11.31,9.29-21.41,0-31.51-10.1-31.51-29.29Z"></path><path class="cls-13" d="m1176.17,2947.08c8.08-6.87,9.49-7.88,11.72-7.88,3.03,0,5.45,2.42,5.45,5.45,0,2.02-1.21,5.66-8.08,12.12-18.79,17.58-39.39,25.25-61.61,25.25-3.23,0-6.26-2.02-6.26-6.87s4.85-8.28,9.7-8.28c15.35,0,34.14-7.27,49.09-19.8Z"></path><g class="cls-11"><path class="cls-14" d="m891.32,333.81c-13.33,58.58-22.63,104.44-31.11,150.1-8.69,42.42-23.84,128.88-28.48,165.25-2.63,20-5.25,22.42-10.71,22.42s-8.48-2.22-8.48-12.73c0-25.86,12.12-86.06,23.23-135.75,4.44-19.8,5.05-22.83,5.05-24.44,0-1.41-1.82-2.83-4.04-4.24-4.04-2.42-6.87-5.25-6.87-9.29,0-3.64,1.41-5.45,4.44-6.26,2.83-.81,7.27-1.41,11.92-1.41,8.28-47.67,16.97-95.96,31.72-156.36,19.6-80.8,47.27-117.17,81.82-117.17,20.81,0,40,13.53,40,19.8,0,3.43-2.63,6.67-5.66,6.67-2.22,0-5.05-1.41-8.69-3.43-6.06-3.43-14.54-7.88-26.46-7.88-26.87,0-47.88,28.28-67.67,114.74Z"></path></g></g></svg> 