<?xml version="1.0" encoding="UTF-8"?> <svg xmlns="http://www.w3.org/2000/svg" xmlns:xlink="http://www.w3.org/1999/xlink" viewBox="0 0 1920 4875"><defs><style>.cls-1,.cls-2,.cls-3,.cls-4,.cls-5,.cls-6,.cls-7,.cls-8,.cls-9,.cls-10,.cls-11,.cls-12{fill:none;}.cls-13{clip-path:url(#clippath);}.cls-14{fill:#ebebeb;}.cls-15{fill:#fff;}.cls-16{fill:#937fbb;}.cls-17{fill:#a797c9;}.cls-18{fill:#171c32;}.cls-2{stroke-dasharray:0 0 1.79 17.94;}.cls-2,.cls-3,.cls-4,.cls-5,.cls-6,.cls-7,.cls-8,.cls-9,.cls-10,.cls-11,.cls-12{stroke-miterlimit:10;}.cls-2,.cls-3,.cls-4,.cls-5,.cls-6,.cls-8,.cls-9,.cls-10,.cls-11{stroke:#a797c9;stroke-linecap:round;stroke-width:7px;}.cls-4{stroke-dasharray:0 0 1.75 17.49;}.cls-19{clip-path:url(#clippath-1);}.cls-20{clip-path:url(#clippath-4);}.cls-21{clip-path:url(#clippath-3);}.cls-22{clip-path:url(#clippath-2);}.cls-5{stroke-dasharray:0 0 1.74 17.35;}.cls-6{stroke-dasharray:0 0 1.71 17.14;}.cls-7{stroke:#fff;stroke-width:2px;}.cls-8{stroke-dasharray:0 0 1.74 17.45;}.cls-9{stroke-dasharray:0 0 1.74 17.45;}.cls-10{stroke-dasharray:0 0 1.67 16.7;}.cls-11{stroke-dasharray:0 0 1.69 16.94;}.cls-12{stroke:#57678b;stroke-width:3.5px;}</style><clipPath id="clippath"><rect class="cls-1" x="1350.38" y="2762.19" width="133.39" height="133.39" rx="66.69" ry="66.69"></rect></clipPath><clipPath id="clippath-1"><rect class="cls-1" x="866.42" y="1661.45" width="100.7" height="100.7" rx="50.35" ry="50.35"></rect></clipPath><clipPath id="clippath-2"><circle class="cls-1" cx="1063.46" cy="2665.72" r="153.68"></circle></clipPath><clipPath id="clippath-3"><circle class="cls-1" cx="1729.71" cy="2080.4" r="153.68"></circle></clipPath><clipPath id="clippath-4"><circle class="cls-1" cx="1358.76" cy="4110.21" r="69.94"></circle></clipPath></defs><g id="Background"><rect class="cls-18" width="1920" height="4875"></rect></g><g id="Horizontal_Guides"><line class="cls-12" x1="-2" y1="3825.81" x2="1918" y2="3829.81"></line><line class="cls-12" x1="-2" y1="4106.55" x2="1918" y2="4110.55"></line><line class="cls-12" x1="1918" y1="4300.7" x2="-2" y2="4296.7"></line><line class="cls-12" x1="-2" y1="4576.8" x2="1918" y2="4580.8"></line><line class="cls-12" x1="-2" y1="2543.35" x2="1918" y2="2543.35"></line><line class="cls-12" x1="-2" y1="2824.09" x2="1918" y2="2824.09"></line><line class="cls-12" x1="1918" y1="3014.24" x2="-2" y2="3014.24"></line><line class="cls-12" x1="-2" y1="3294.33" x2="1918" y2="3294.33"></line><line class="cls-12" x1="-2" y1="1438.53" x2="1918" y2="1438.53"></line><line class="cls-12" x1="-2" y1="1719.28" x2="1918" y2="1719.28"></line><line class="cls-12" x1="1918" y1="1909.43" x2="-2" y2="1909.43"></line><line class="cls-12" x1="-2" y1="2189.52" x2="1918" y2="2189.52"></line><line class="cls-12" x1="-2" y1="333.72" x2="1918" y2="333.72"></line><line class="cls-12" x1="-2" y1="614.46" x2="1918" y2="614.46"></line><line class="cls-12" x1="1918" y1="804.61" x2="-2" y2="804.61"></line><line class="cls-12" x1="-2" y1="1084.71" x2="1918" y2="1084.71"></line></g><g id="info"><rect class="cls-16" x="1259.59" y="617.63" width="126.7" height="187.34" rx="63.35" ry="63.35"></rect><line class="cls-3" x1="1322.94" y1="833.04" x2="1322.94" y2="833.91"></line><line class="cls-5" x1="1322.94" y1="851.26" x2="1322.94" y2="1205.25"></line><line class="cls-3" x1="1322.94" y1="1213.93" x2="1322.94" y2="1214.8"></line><line class="cls-3" x1="268.73" y1="1312.54" x2="268.73" y2="1313.41"></line><line class="cls-2" x1="268.73" y1="1331.36" x2="268.73" y2="1401.34"></line><line class="cls-3" x1="268.73" y1="1410.31" x2="268.73" y2="1411.18"></line><line class="cls-3" x1="492.86" y1="833.04" x2="492.86" y2="833.91"></line><line class="cls-5" x1="492.86" y1="851.26" x2="492.86" y2="1205.25"></line><line class="cls-3" x1="492.86" y1="1213.93" x2="492.86" y2="1214.8"></line><line class="cls-3" x1="1073.46" y1="2490.55" x2="1073.46" y2="2489.67"></line><line class="cls-10" x1="1073.46" y1="2472.97" x2="1073.46" y2="2371.07"></line><polyline class="cls-3" points="1073.46 2362.72 1073.46 2361.84 1074.33 2361.84"></polyline><line class="cls-11" x1="1091.27" y1="2361.84" x2="1213.25" y2="2361.84"></line><line class="cls-3" x1="1221.72" y1="2361.84" x2="1222.59" y2="2361.84"></line><line class="cls-3" x1="1404.33" y1="2915.98" x2="1404.33" y2="2916.86"></line><line class="cls-9" x1="1404.33" y1="2934.3" x2="1404.33" y2="3366.95"></line><line class="cls-3" x1="1404.33" y1="3375.67" x2="1404.33" y2="3376.55"></line><path class="cls-15" d="m448.21,2253.88v-19.95h2.94v19.95c0,9.41,4.08,10.63,8.86,10.63s8.78-1.01,8.78-10.63v-19.95h2.94v19.62c0,11.64-5.33,13.69-11.76,13.69s-11.76-2.06-11.76-13.36Z"></path><path class="cls-15" d="m479.5,2245.69h2.39l.34,3.86h.08c1.13-2.48,4.03-4.41,7.86-4.41,6.3,0,9.66,3.99,9.66,11.01s-4.28,11.09-9.87,11.09c-3.78,0-6.38-1.6-7.44-3.7h-.08v11.55h-2.94v-29.41Zm17.18,10.63c0-7.18-3.4-8.61-6.93-8.61-4.24,0-7.56,2.73-7.56,8.44,0,6.01,3.44,8.57,7.44,8.57,3.02,0,7.06-1.47,7.06-8.4Z"></path><path class="cls-15" d="m505.71,2245.69h2.6l.29,3.91c1.01-2.14,3.07-4.45,6.76-4.45,1.26,0,2.18.21,3.02.55v3.15c-1.13-.5-2.1-.76-3.4-.76-3.74,0-6.34,2.81-6.34,5.75v12.85h-2.94v-21Z"></path><path class="cls-15" d="m523.02,2233.93h2.98v6.51h-2.98v-6.51Zm0,11.76h2.94v21h-2.94v-21Z"></path><path class="cls-15" d="m532.72,2268.5v-.13h3.11v.13c0,2.9,1.93,4.33,6.13,4.33,4.79,0,7.01-2.94,7.01-7.86v-2.1h-.08c-1.09,2.18-3.65,4.07-7.48,4.07-6.3,0-9.75-3.99-9.75-10.71,0-7.1,4.37-11.09,9.96-11.09,3.78,0,6.55,1.81,7.56,4.12h.13l.29-3.57h2.31v19.16c0,5.88-2.81,10.71-10.33,10.71-6.3,0-8.86-2.98-8.86-7.06Zm16.59-12.77c0-5.5-3.36-8.07-7.35-8.07-3.03,0-7.14,1.47-7.14,8.4s3.57,8.32,7.1,8.32c4.24,0,7.39-2.73,7.39-8.65Z"></path><path class="cls-15" d="m559.26,2233.93h2.94v15.16c1.05-2.1,3.28-3.95,7.31-3.95,4.75,0,7.77,2.52,7.77,7.94v13.61h-2.94v-13.27c0-4.33-2.14-5.71-5.5-5.71-3.82,0-6.64,2.69-6.64,5.63v13.36h-2.94v-32.77Z"></path><path class="cls-15" d="m595.59,2264.01v2.6c-.76.21-2.14.59-4.03.59-3.82,0-6.34-1.6-6.34-6.89v-12.18h-4.16v-2.44h4.16v-6.05l2.94-1.43v7.48h5.92v2.44h-5.92v11.8c0,2.81.76,4.58,3.4,4.58,1.6,0,3.23-.29,4.03-.5Z"></path><rect class="cls-16" x="496.08" y="1440.64" width="48.29" height="750.99"></rect><path class="cls-15" d="m437.43,4625.33v32.77h-2.94v-28.31c-1.43,1.13-4.92,2.1-7.69,2.1v-2.73c4.16-.34,6.59-1.47,8.44-3.82h2.18Z"></path><path class="cls-15" d="m464.35,4647.72c0,7.14-3.74,11.01-10.54,11.01-5.96,0-9.45-3.07-9.45-8.4v-1.26h2.9v1.26c0,3.7,2.31,5.71,6.64,5.71,4.87,0,7.39-2.81,7.39-8.36,0-5.25-2.27-7.65-7.23-7.65-2.44,0-4.62.88-6.51,2.6l-2.23-.97,1.34-16.34h16.09v2.73h-13.53l-.84,11.38c1.97-1.47,4.12-2.14,6.59-2.14,6.01,0,9.37,3.74,9.37,10.42Z"></path><path class="cls-15" d="m467.71,4630.04c0-2.73,1.64-5.33,5.5-5.33s5.5,2.6,5.5,5.33-1.64,5.29-5.5,5.29-5.5-2.56-5.5-5.29Zm8.4,0c0-1.81-1.05-3.07-2.9-3.07s-2.9,1.26-2.9,3.07,1.05,3.02,2.9,3.02,2.9-1.18,2.9-3.02Z"></path><path class="cls-15" d="m491.52,4651.67v-1.18h2.94v1.13c0,2.86,2.14,4.5,5.96,4.5s5.8-1.01,5.8-3.78c0-2.06-1.01-2.81-3.87-3.32l-4.62-.84c-3.02-.55-5.54-2.02-5.54-5.5,0-3.15,2.35-6.13,8.4-6.13s8.4,3.03,8.4,7.23v.88h-2.98v-.76c0-3.44-2.14-4.91-5.42-4.91-3.95,0-5.33,1.34-5.33,3.36s1.01,2.86,3.91,3.4l4.03.76c4.12.76,6.09,1.93,6.09,5.59,0,4.58-4.12,6.55-8.78,6.55-7.31,0-8.99-3.28-8.99-6.97Z"></path><path class="cls-15" d="m515.17,4625.33h2.94v32.77h-2.94v-32.77Z"></path><path class="cls-15" d="m524.2,4652.3c0-3.95,2.23-6.09,7.86-6.09h6.34v-1.72c0-2.98-1.26-5.42-5.46-5.42-3.95,0-5.34,1.51-5.34,4.12v.88h-2.98v-.84c0-5,4.2-6.68,8.32-6.68,5.8,0,8.4,2.86,8.4,8.44v13.11h-2.06l-.55-2.98h-.08c-1.26,1.89-3.7,3.53-7.35,3.53-4.92,0-7.1-2.31-7.1-6.34Zm14.2-1.85v-1.76h-7.02c-2.65,0-4.03.92-4.03,3.61,0,2.35,1.26,3.86,4.5,3.86,4.16,0,6.55-2.14,6.55-5.71Z"></path><path class="cls-15" d="m548.69,4637.1h2.61l.29,3.49c1.01-2.14,3.28-4.03,7.35-4.03,4.75,0,7.77,2.52,7.77,7.94v13.61h-2.94v-13.28c0-4.33-2.14-5.71-5.5-5.71-3.82,0-6.64,2.69-6.64,5.63v13.36h-2.94v-21Z"></path><path class="cls-15" d="m585.02,4655.41v2.61c-.76.21-2.14.59-4.03.59-3.82,0-6.34-1.6-6.34-6.89v-12.18h-4.16v-2.44h4.16v-6.05l2.94-1.43v7.48h5.92v2.44h-5.92v11.8c0,2.81.76,4.58,3.4,4.58,1.6,0,3.23-.29,4.03-.5Z"></path><polygon class="cls-16" points="536.18 4581.04 487.89 4581.04 663.73 3830.05 712.02 3830.05 536.18 4581.04"></polygon><path class="cls-15" d="m1242.09,1244.27h8.61c7.94,0,11.64,2.44,11.64,8.86,0,4.58-2.18,7.98-6.76,9.33l7.85,14.53v.04h-3.32l-7.35-14.03c-.67.04-1.34.08-2.1.08h-5.59v13.95h-2.98v-32.77Zm8.74,16.3c6.09,0,8.49-2.81,8.49-7.31,0-4.75-2.6-6.38-8.44-6.38h-5.8v13.69h5.75Z"></path><path class="cls-15" d="m1266.57,1266.53c0-6.22,3.32-11.05,10.38-11.05,6.6,0,10.25,4.83,10.25,11.05s-3.7,11.05-10.29,11.05c-7.27,0-10.33-4.83-10.33-11.05Zm17.56,0c0-5.33-2.9-8.49-7.22-8.49-4.75,0-7.27,3.15-7.27,8.49s2.56,8.49,7.27,8.49c4.33,0,7.22-3.15,7.22-8.49Z"></path><path class="cls-15" d="m1292.66,1269.64v-13.61h2.94v13.27c0,4.33,2.14,5.71,5.42,5.71,3.74,0,6.55-2.69,6.55-5.63v-13.36h2.94v21h-2.6l-.25-3.36h-.08c-.97,2.02-3.24,3.91-7.23,3.91-4.66,0-7.69-2.52-7.69-7.94Z"></path><path class="cls-15" d="m1317.86,1256.03h2.6l.29,3.49c1.01-2.14,3.28-4.03,7.35-4.03,4.75,0,7.77,2.52,7.77,7.94v13.61h-2.94v-13.27c0-4.33-2.14-5.71-5.5-5.71-3.82,0-6.64,2.69-6.64,5.63v13.36h-2.94v-21Z"></path><path class="cls-15" d="m1341.54,1266.58c0-7.1,4.28-11.09,10.04-11.09,3.7,0,6.22,1.6,7.31,3.74h.04v-14.95h2.94v32.77h-1.97l-.67-3.61h-.08c-1.18,2.31-3.95,4.16-7.77,4.16-6.3,0-9.83-3.99-9.83-11.01Zm17.64-.5c0-5.5-3.36-8.07-7.35-8.07-3.11,0-7.14,1.47-7.14,8.4s3.61,8.61,7.14,8.61c4.24,0,7.35-2.73,7.35-8.95Z"></path><path class="cls-15" d="m1383.04,1250.99v5.04h5.92v2.44h-5.92v18.57h-2.94v-18.57h-4.16v-2.44h4.16v-5.42c0-5.29,3.15-6.89,6.38-6.89,1.85,0,2.98.29,3.74.55v2.6c-.71-.21-1.89-.46-3.49-.46-2.65,0-3.7,1.76-3.7,4.58Z"></path><path class="cls-15" d="m1390.85,1266.53c0-6.22,3.32-11.05,10.38-11.05,6.59,0,10.25,4.83,10.25,11.05s-3.7,11.05-10.29,11.05c-7.27,0-10.33-4.83-10.33-11.05Zm17.56,0c0-5.33-2.9-8.49-7.23-8.49-4.75,0-7.27,3.15-7.27,8.49s2.56,8.49,7.27,8.49c4.33,0,7.23-3.15,7.23-8.49Z"></path><path class="cls-15" d="m1416.93,1269.64v-13.61h2.94v13.27c0,4.33,2.14,5.71,5.42,5.71,3.74,0,6.55-2.69,6.55-5.63v-13.36h2.94v21h-2.6l-.25-3.36h-.08c-.97,2.02-3.24,3.91-7.23,3.91-4.66,0-7.69-2.52-7.69-7.94Z"></path><path class="cls-15" d="m1442.13,1256.03h2.6l.29,3.49c1.01-2.14,3.28-4.03,7.35-4.03,4.75,0,7.77,2.52,7.77,7.94v13.61h-2.94v-13.27c0-4.33-2.14-5.71-5.5-5.71-3.82,0-6.64,2.69-6.64,5.63v13.36h-2.94v-21Z"></path><path class="cls-15" d="m1465.82,1266.58c0-7.1,4.29-11.09,10.04-11.09,3.7,0,6.22,1.6,7.31,3.74h.04v-14.95h2.94v32.77h-1.97l-.67-3.61h-.08c-1.18,2.31-3.95,4.16-7.77,4.16-6.3,0-9.83-3.99-9.83-11.01Zm17.64-.5c0-5.5-3.36-8.07-7.35-8.07-3.11,0-7.14,1.47-7.14,8.4s3.61,8.61,7.14,8.61c4.24,0,7.35-2.73,7.35-8.95Z"></path><path class="cls-15" d="m1492.24,1271.24c0-3.95,2.23-6.09,7.86-6.09h6.34v-1.72c0-2.98-1.26-5.42-5.46-5.42-3.95,0-5.33,1.51-5.33,4.12v.88h-2.98v-.84c0-5,4.2-6.68,8.32-6.68,5.8,0,8.4,2.86,8.4,8.44v13.11h-2.06l-.54-2.98h-.08c-1.26,1.89-3.7,3.53-7.35,3.53-4.92,0-7.1-2.31-7.1-6.34Zm14.2-1.85v-1.76h-7.01c-2.65,0-4.03.92-4.03,3.61,0,2.35,1.26,3.86,4.5,3.86,4.16,0,6.55-2.14,6.55-5.71Z"></path><path class="cls-15" d="m1527.48,1274.35v2.6c-.76.21-2.14.59-4.03.59-3.82,0-6.34-1.6-6.34-6.89v-12.18h-4.16v-2.44h4.16v-6.05l2.94-1.43v7.48h5.92v2.44h-5.92v11.8c0,2.81.76,4.58,3.4,4.58,1.6,0,3.23-.29,4.03-.5Z"></path><path class="cls-15" d="m1532.31,1244.27h2.98v6.51h-2.98v-6.51Zm0,11.76h2.94v21h-2.94v-21Z"></path><path class="cls-15" d="m1540.96,1266.53c0-6.22,3.32-11.05,10.38-11.05,6.6,0,10.25,4.83,10.25,11.05s-3.7,11.05-10.29,11.05c-7.27,0-10.33-4.83-10.33-11.05Zm17.56,0c0-5.33-2.9-8.49-7.23-8.49-4.75,0-7.27,3.15-7.27,8.49s2.56,8.49,7.27,8.49c4.33,0,7.23-3.15,7.23-8.49Z"></path><path class="cls-15" d="m1567.46,1256.03h2.6l.29,3.49c1.01-2.14,3.28-4.03,7.35-4.03,4.75,0,7.77,2.52,7.77,7.94v13.61h-2.94v-13.27c0-4.33-2.14-5.71-5.5-5.71-3.82,0-6.64,2.69-6.64,5.63v13.36h-2.94v-21Z"></path><path class="cls-15" d="m1591.57,1271.24c0-3.95,2.23-6.09,7.86-6.09h6.34v-1.72c0-2.98-1.26-5.42-5.46-5.42-3.95,0-5.33,1.51-5.33,4.12v.88h-2.98v-.84c0-5,4.2-6.68,8.32-6.68,5.8,0,8.4,2.86,8.4,8.44v13.11h-2.06l-.54-2.98h-.08c-1.26,1.89-3.7,3.53-7.35,3.53-4.92,0-7.1-2.31-7.1-6.34Zm14.2-1.85v-1.76h-7.01c-2.65,0-4.03.92-4.03,3.61,0,2.35,1.26,3.86,4.5,3.86,4.16,0,6.55-2.14,6.55-5.71Z"></path><path class="cls-15" d="m1616.06,1244.27h2.94v32.77h-2.94v-32.77Z"></path><path class="cls-15" d="m1640.17,1250.99v5.04h5.92v2.44h-5.92v18.57h-2.94v-18.57h-4.16v-2.44h4.16v-5.42c0-5.29,3.15-6.89,6.38-6.89,1.85,0,2.98.29,3.74.55v2.6c-.71-.21-1.89-.46-3.49-.46-2.65,0-3.7,1.76-3.7,4.58Z"></path><path class="cls-15" d="m1647.98,1266.53c0-6.22,3.32-11.05,10.38-11.05,6.6,0,10.25,4.83,10.25,11.05s-3.7,11.05-10.29,11.05c-7.27,0-10.33-4.83-10.33-11.05Zm17.56,0c0-5.33-2.9-8.49-7.22-8.49-4.75,0-7.27,3.15-7.27,8.49s2.56,8.49,7.27,8.49c4.33,0,7.22-3.15,7.22-8.49Z"></path><path class="cls-15" d="m1674.48,1256.03h2.6l.29,3.91c1.01-2.14,3.07-4.45,6.76-4.45,1.26,0,2.18.21,3.02.55v3.15c-1.13-.5-2.1-.76-3.4-.76-3.74,0-6.34,2.81-6.34,5.75v12.85h-2.94v-21Z"></path><path class="cls-15" d="m1722.49,1263.42v13.61h-2.94v-13.27c0-4.33-2.14-5.71-4.75-5.71-3.82,0-6.18,2.69-6.18,5.63v13.36h-2.94v-13.27c0-4.33-1.85-5.71-4.83-5.71-3.61,0-6.13,2.69-6.13,5.63v13.36h-2.94v-21h2.6l.29,3.49c1.01-2.02,3.07-4.03,6.93-4.03,2.94,0,5.38,1.39,6.43,4.28,1.22-2.39,3.57-4.28,7.14-4.28,4.28,0,7.31,2.52,7.31,7.94Z"></path><path class="cls-15" d="m1727.94,1270.61v-1.18h2.94v1.13c0,2.86,2.14,4.5,5.96,4.5s5.8-1.01,5.8-3.78c0-2.06-1.01-2.81-3.87-3.32l-4.62-.84c-3.02-.55-5.54-2.02-5.54-5.5,0-3.15,2.35-6.13,8.4-6.13s8.4,3.02,8.4,7.23v.88h-2.98v-.76c0-3.44-2.14-4.91-5.42-4.91-3.95,0-5.33,1.34-5.33,3.36s1.01,2.86,3.91,3.4l4.03.76c4.12.76,6.09,1.93,6.09,5.59,0,4.58-4.12,6.55-8.78,6.55-7.31,0-8.99-3.28-8.99-6.97Z"></path><path class="cls-15" d="m172.63,1260.65c0-11.72,6.76-16.93,15.46-16.93,7.94,0,14.7,5.21,14.7,16.59,0,12.48-6.76,17.26-15.08,17.26s-15.08-4.79-15.08-16.93Zm27.05,0c0-10.12-5.33-14.24-12.01-14.24s-11.93,4.12-11.93,14.24,5.33,14.2,12.01,14.2,11.93-3.74,11.93-14.2Z"></path><path class="cls-15" d="m209.08,1256.03h2.6l.29,3.91c1.01-2.14,3.07-4.45,6.76-4.45,1.26,0,2.18.21,3.02.55v3.15c-1.13-.5-2.1-.76-3.4-.76-3.74,0-6.34,2.81-6.34,5.75v12.85h-2.94v-21Z"></path><path class="cls-15" d="m226.38,1256.03h2.6l.29,3.49c1.01-2.14,3.28-4.03,7.35-4.03,4.75,0,7.77,2.52,7.77,7.94v13.61h-2.94v-13.27c0-4.33-2.14-5.71-5.5-5.71-3.82,0-6.64,2.69-6.64,5.63v13.36h-2.94v-21Z"></path><path class="cls-15" d="m250.49,1271.24c0-3.95,2.23-6.09,7.86-6.09h6.34v-1.72c0-2.98-1.26-5.42-5.46-5.42-3.95,0-5.33,1.51-5.33,4.12v.88h-2.98v-.84c0-5,4.2-6.68,8.32-6.68,5.8,0,8.4,2.86,8.4,8.44v13.11h-2.06l-.55-2.98h-.08c-1.26,1.89-3.7,3.53-7.35,3.53-4.92,0-7.1-2.31-7.1-6.34Zm14.2-1.85v-1.76h-7.02c-2.65,0-4.03.92-4.03,3.61,0,2.35,1.26,3.86,4.5,3.86,4.16,0,6.55-2.14,6.55-5.71Z"></path><path class="cls-15" d="m285.73,1274.35v2.6c-.76.21-2.14.59-4.03.59-3.82,0-6.34-1.6-6.34-6.89v-12.18h-4.16v-2.44h4.16v-6.05l2.94-1.43v7.48h5.92v2.44h-5.92v11.8c0,2.81.76,4.58,3.4,4.58,1.6,0,3.23-.29,4.03-.5Z"></path><path class="cls-15" d="m307.2,1267.54h-15.96c.17,4.79,2.48,7.48,6.93,7.48,3.82,0,5.67-1.43,5.96-4.83h2.98c-.29,4.24-3.28,7.39-9.03,7.39-7.06,0-9.83-4.66-9.83-10.88s3.23-11.22,10-11.22,8.95,3.99,8.95,10.21v1.85Zm-3.11-2.98c0-4.45-1.72-6.55-5.92-6.55s-6.55,2.65-6.89,6.97h12.81v-.42Z"></path><path class="cls-15" d="m322.31,1269.64v-13.61h2.94v13.27c0,4.33,2.14,5.71,5.42,5.71,3.74,0,6.55-2.69,6.55-5.63v-13.36h2.94v21h-2.6l-.25-3.36h-.08c-.97,2.02-3.23,3.91-7.23,3.91-4.66,0-7.69-2.52-7.69-7.94Z"></path><path class="cls-15" d="m347.51,1256.03h2.39l.34,3.86h.08c1.13-2.48,4.03-4.41,7.86-4.41,6.3,0,9.66,3.99,9.66,11.01s-4.29,11.09-9.87,11.09c-3.78,0-6.38-1.6-7.44-3.7h-.08v11.55h-2.94v-29.41Zm17.18,10.63c0-7.18-3.4-8.61-6.93-8.61-4.24,0-7.56,2.73-7.56,8.44,0,6.01,3.44,8.57,7.44,8.57,3.02,0,7.06-1.47,7.06-8.4Z"></path><path class="cls-15" d="m373.72,1256.03h2.39l.34,3.86h.08c1.13-2.48,4.03-4.41,7.86-4.41,6.3,0,9.66,3.99,9.66,11.01s-4.29,11.09-9.87,11.09c-3.78,0-6.38-1.6-7.44-3.7h-.08v11.55h-2.94v-29.41Zm17.18,10.63c0-7.18-3.4-8.61-6.93-8.61-4.24,0-7.56,2.73-7.56,8.44,0,6.01,3.44,8.57,7.44,8.57,3.02,0,7.06-1.47,7.06-8.4Z"></path><path class="cls-15" d="m417.19,1267.54h-15.96c.17,4.79,2.48,7.48,6.93,7.48,3.82,0,5.67-1.43,5.96-4.83h2.98c-.29,4.24-3.28,7.39-9.03,7.39-7.06,0-9.83-4.66-9.83-10.88s3.23-11.22,10-11.22,8.95,3.99,8.95,10.21v1.85Zm-3.11-2.98c0-4.45-1.72-6.55-5.92-6.55s-6.55,2.65-6.89,6.97h12.81v-.42Z"></path><path class="cls-15" d="m423.07,1256.03h2.6l.29,3.91c1.01-2.14,3.07-4.45,6.76-4.45,1.26,0,2.18.21,3.02.55v3.15c-1.13-.5-2.1-.76-3.4-.76-3.74,0-6.34,2.81-6.34,5.75v12.85h-2.94v-21Z"></path><path class="cls-15" d="m438.06,1266.7c0-6.38,3.23-11.22,10-11.22s8.95,3.91,8.95,8.95v.42h-3.11v-.63c0-3.82-1.64-6.09-5.84-6.09-4.75,0-7.02,3.11-7.02,8.4,0,5.63,2.39,8.49,6.93,8.49,3.82,0,5.84-1.85,5.92-5.67h3.02c-.08,4.66-3.15,8.23-9.03,8.23-7.23,0-9.83-4.75-9.83-10.88Z"></path><path class="cls-15" d="m461.42,1271.24c0-3.95,2.23-6.09,7.86-6.09h6.34v-1.72c0-2.98-1.26-5.42-5.46-5.42-3.95,0-5.33,1.51-5.33,4.12v.88h-2.98v-.84c0-5,4.2-6.68,8.32-6.68,5.8,0,8.4,2.86,8.4,8.44v13.11h-2.06l-.55-2.98h-.08c-1.26,1.89-3.7,3.53-7.35,3.53-4.92,0-7.1-2.31-7.1-6.34Zm14.2-1.85v-1.76h-7.02c-2.65,0-4.03.92-4.03,3.61,0,2.35,1.26,3.86,4.5,3.86,4.16,0,6.55-2.14,6.55-5.71Z"></path><path class="cls-15" d="m484.01,1270.61v-1.18h2.94v1.13c0,2.86,2.14,4.5,5.96,4.5s5.8-1.01,5.8-3.78c0-2.06-1.01-2.81-3.86-3.32l-4.62-.84c-3.02-.55-5.54-2.02-5.54-5.5,0-3.15,2.35-6.13,8.4-6.13s8.4,3.02,8.4,7.23v.88h-2.98v-.76c0-3.44-2.14-4.91-5.42-4.91-3.95,0-5.33,1.34-5.33,3.36s1.01,2.86,3.91,3.4l4.03.76c4.12.76,6.09,1.93,6.09,5.59,0,4.58-4.12,6.55-8.78,6.55-7.31,0-8.99-3.28-8.99-6.97Z"></path><path class="cls-15" d="m524.92,1267.54h-15.96c.17,4.79,2.48,7.48,6.93,7.48,3.82,0,5.67-1.43,5.96-4.83h2.98c-.29,4.24-3.28,7.39-9.03,7.39-7.06,0-9.83-4.66-9.83-10.88s3.23-11.22,10-11.22,8.95,3.99,8.95,10.21v1.85Zm-3.11-2.98c0-4.45-1.72-6.55-5.92-6.55s-6.55,2.65-6.89,6.97h12.81v-.42Z"></path><path class="cls-15" d="m540.46,1244.27h2.94v32.77h-2.94v-32.77Z"></path><path class="cls-15" d="m568.02,1267.54h-15.96c.17,4.79,2.48,7.48,6.93,7.48,3.82,0,5.67-1.43,5.96-4.83h2.98c-.29,4.24-3.28,7.39-9.03,7.39-7.06,0-9.83-4.66-9.83-10.88s3.23-11.22,10-11.22,8.95,3.99,8.95,10.21v1.85Zm-3.11-2.98c0-4.45-1.72-6.55-5.92-6.55s-6.55,2.65-6.89,6.97h12.81v-.42Z"></path><path class="cls-15" d="m574.48,1270.65v-12.18h-4.16v-2.44h4.16v-6.05l2.94-1.43v7.48h11.85v-6.05l2.94-1.43v7.48h5.92v2.44h-5.92v11.8c0,2.81.76,4.58,3.4,4.58,1.6,0,3.23-.29,4.03-.5v2.6c-.76.21-2.14.59-4.03.59-3.82,0-6.34-1.6-6.34-6.89v-12.18h-11.85v11.8c0,2.81.76,4.58,3.4,4.58,1.6,0,3.23-.29,4.03-.5v2.6c-.76.21-2.14.59-4.03.59-3.82,0-6.34-1.6-6.34-6.89Z"></path><path class="cls-15" d="m621.1,1267.54h-15.96c.17,4.79,2.48,7.48,6.93,7.48,3.82,0,5.67-1.43,5.96-4.83h2.98c-.29,4.24-3.28,7.39-9.03,7.39-7.06,0-9.83-4.66-9.83-10.88s3.23-11.22,10-11.22,8.95,3.99,8.95,10.21v1.85Zm-3.11-2.98c0-4.45-1.72-6.55-5.92-6.55s-6.55,2.65-6.89,6.97h12.81v-.42Z"></path><path class="cls-15" d="m626.98,1256.03h2.6l.29,3.91c1.01-2.14,3.07-4.45,6.76-4.45,1.26,0,2.18.21,3.02.55v3.15c-1.13-.5-2.1-.76-3.4-.76-3.74,0-6.34,2.81-6.34,5.75v12.85h-2.94v-21Z"></path><path class="cls-15" d="m642.18,1270.61v-1.18h2.94v1.13c0,2.86,2.14,4.5,5.96,4.5s5.8-1.01,5.8-3.78c0-2.06-1.01-2.81-3.86-3.32l-4.62-.84c-3.02-.55-5.54-2.02-5.54-5.5,0-3.15,2.35-6.13,8.4-6.13s8.4,3.02,8.4,7.23v.88h-2.98v-.76c0-3.44-2.14-4.91-5.42-4.91-3.95,0-5.33,1.34-5.33,3.36s1.01,2.86,3.91,3.4l4.03.76c4.12.76,6.09,1.93,6.09,5.59,0,4.58-4.12,6.55-8.78,6.55-7.31,0-8.99-3.28-8.99-6.97Z"></path><path class="cls-15" d="m1255.89,2343.64h2.94v30.12h15.71v2.65h-18.65v-32.77Z"></path><path class="cls-15" d="m1277.68,2365.91c0-6.22,3.32-11.05,10.38-11.05,6.6,0,10.25,4.83,10.25,11.05s-3.7,11.05-10.29,11.05c-7.27,0-10.33-4.83-10.33-11.05Zm17.56,0c0-5.33-2.9-8.49-7.23-8.49-4.75,0-7.27,3.15-7.27,8.49s2.56,8.49,7.27,8.49c4.33,0,7.23-3.15,7.23-8.49Z"></path><path class="cls-15" d="m1302.51,2365.91c0-6.22,3.32-11.05,10.38-11.05,6.6,0,10.25,4.83,10.25,11.05s-3.7,11.05-10.29,11.05c-7.27,0-10.33-4.83-10.33-11.05Zm17.56,0c0-5.33-2.9-8.49-7.23-8.49-4.75,0-7.27,3.15-7.27,8.49s2.56,8.49,7.27,8.49c4.33,0,7.23-3.15,7.23-8.49Z"></path><path class="cls-15" d="m1329.01,2355.41h2.39l.34,3.86h.08c1.13-2.48,4.03-4.41,7.86-4.41,6.3,0,9.66,3.99,9.66,11.01s-4.28,11.09-9.87,11.09c-3.78,0-6.38-1.6-7.44-3.7h-.08v11.55h-2.94v-29.41Zm17.18,10.63c0-7.18-3.4-8.61-6.93-8.61-4.24,0-7.56,2.73-7.56,8.44,0,6.01,3.45,8.57,7.44,8.57,3.03,0,7.06-1.47,7.06-8.4Z"></path><path class="cls-15" d="m1372.48,2366.92h-15.96c.17,4.79,2.48,7.48,6.93,7.48,3.82,0,5.67-1.43,5.96-4.83h2.98c-.29,4.24-3.28,7.39-9.03,7.39-7.06,0-9.83-4.66-9.83-10.88s3.23-11.22,10-11.22,8.95,3.99,8.95,10.21v1.85Zm-3.11-2.98c0-4.45-1.72-6.55-5.92-6.55s-6.55,2.65-6.89,6.97h12.81v-.42Z"></path><path class="cls-15" d="m1376.68,2365.95c0-7.1,4.28-11.09,10.04-11.09,3.7,0,6.22,1.6,7.31,3.74h.04v-14.95h2.94v32.77h-1.97l-.67-3.61h-.08c-1.18,2.31-3.95,4.16-7.77,4.16-6.3,0-9.83-3.99-9.83-11.01Zm17.64-.5c0-5.5-3.36-8.07-7.35-8.07-3.11,0-7.14,1.47-7.14,8.4s3.61,8.61,7.14,8.61c4.24,0,7.35-2.73,7.35-8.95Z"></path><path class="cls-15" d="m1431.28,2366.92h-15.96c.17,4.79,2.48,7.48,6.93,7.48,3.82,0,5.67-1.43,5.96-4.83h2.98c-.29,4.24-3.28,7.39-9.03,7.39-7.06,0-9.83-4.66-9.83-10.88s3.23-11.22,10-11.22,8.95,3.99,8.95,10.21v1.85Zm-3.11-2.98c0-4.45-1.72-6.55-5.92-6.55s-6.55,2.65-6.89,6.97h12.81v-.42Z"></path><path class="cls-15" d="m1452.53,2355.45l-8.07,10.5,8.02,10.42v.04h-3.45l-6.34-8.44-6.43,8.44h-3.28v-.04l8.02-10.38-8.06-10.54v-.04h3.44l6.39,8.49,6.43-8.44v-.04h3.32v.04Z"></path><path class="cls-15" d="m1468.03,2373.72v2.6c-.76.21-2.14.59-4.03.59-3.82,0-6.34-1.6-6.34-6.89v-12.18h-4.16v-2.44h4.16v-6.05l2.94-1.43v7.48h5.92v2.44h-5.92v11.8c0,2.81.76,4.58,3.4,4.58,1.6,0,3.23-.29,4.03-.5Z"></path><path class="cls-15" d="m1489.49,2366.92h-15.96c.17,4.79,2.48,7.48,6.93,7.48,3.82,0,5.67-1.43,5.96-4.83h2.98c-.29,4.24-3.28,7.39-9.03,7.39-7.06,0-9.83-4.66-9.83-10.88s3.23-11.22,10-11.22,8.95,3.99,8.95,10.21v1.85Zm-3.11-2.98c0-4.45-1.72-6.55-5.92-6.55s-6.55,2.65-6.89,6.97h12.81v-.42Z"></path><path class="cls-15" d="m1495.37,2355.41h2.61l.29,3.49c1.01-2.14,3.28-4.03,7.35-4.03,4.75,0,7.77,2.52,7.77,7.94v13.61h-2.94v-13.27c0-4.33-2.14-5.71-5.5-5.71-3.82,0-6.64,2.69-6.64,5.63v13.36h-2.94v-21Z"></path><path class="cls-15" d="m1519.06,2365.95c0-7.1,4.29-11.09,10.04-11.09,3.7,0,6.22,1.6,7.31,3.74h.04v-14.95h2.94v32.77h-1.97l-.67-3.61h-.08c-1.18,2.31-3.95,4.16-7.77,4.16-6.3,0-9.83-3.99-9.83-11.01Zm17.64-.5c0-5.5-3.36-8.07-7.35-8.07-3.11,0-7.14,1.47-7.14,8.4s3.61,8.61,7.14,8.61c4.24,0,7.35-2.73,7.35-8.95Z"></path><path class="cls-15" d="m1564,2366.92h-15.96c.17,4.79,2.48,7.48,6.93,7.48,3.82,0,5.67-1.43,5.96-4.83h2.98c-.29,4.24-3.28,7.39-9.03,7.39-7.06,0-9.83-4.66-9.83-10.88s3.23-11.22,10-11.22,8.95,3.99,8.95,10.21v1.85Zm-3.11-2.98c0-4.45-1.72-6.55-5.92-6.55s-6.55,2.65-6.89,6.97h12.81v-.42Z"></path><path class="cls-15" d="m1569.88,2355.41h2.61l.29,3.91c1.01-2.14,3.07-4.45,6.76-4.45,1.26,0,2.18.21,3.02.55v3.15c-1.13-.5-2.1-.76-3.4-.76-3.74,0-6.34,2.81-6.34,5.75v12.85h-2.94v-21Z"></path><path class="cls-15" d="m1585.08,2369.98v-1.18h2.94v1.13c0,2.86,2.14,4.5,5.96,4.5s5.8-1.01,5.8-3.78c0-2.06-1.01-2.81-3.86-3.32l-4.62-.84c-3.03-.55-5.54-2.02-5.54-5.5,0-3.15,2.35-6.13,8.4-6.13s8.4,3.02,8.4,7.23v.88h-2.98v-.76c0-3.44-2.14-4.91-5.42-4.91-3.95,0-5.33,1.34-5.33,3.36s1.01,2.86,3.91,3.4l4.03.76c4.12.76,6.09,1.93,6.09,5.59,0,4.58-4.12,6.55-8.78,6.55-7.31,0-8.99-3.28-8.99-6.97Z"></path><path class="cls-15" d="m1013.9,3414.42c0-12.01,6.76-17.26,14.75-17.26,6.97,0,12.39,3.74,12.39,12.01v.8h-2.86v-.92c0-5.92-3.78-9.24-9.45-9.24-6.72,0-11.76,4.58-11.76,14.32s5.04,14.24,11.72,14.24c5.38,0,9.54-2.86,9.54-9.2v-.59h2.77v.42c0,8.02-5.33,12.01-12.56,12.01-7.98,0-14.53-4.87-14.53-16.59Z"></path><path class="cls-15" d="m1046.91,3423.08v-13.61h2.94v13.27c0,4.33,2.14,5.71,5.42,5.71,3.74,0,6.55-2.69,6.55-5.63v-13.36h2.94v21h-2.6l-.25-3.36h-.08c-.97,2.02-3.23,3.91-7.23,3.91-4.66,0-7.69-2.52-7.69-7.94Z"></path><path class="cls-15" d="m1072.11,3409.47h2.61l.29,3.91c1.01-2.14,3.07-4.45,6.76-4.45,1.26,0,2.18.21,3.02.55v3.15c-1.13-.5-2.1-.76-3.4-.76-3.74,0-6.34,2.81-6.34,5.75v12.85h-2.94v-21Z"></path><path class="cls-15" d="m1086.26,3409.51v-.04h3.36l7.35,17.98h.08l7.1-17.98h3.07v.04l-8.74,20.96h-3.02l-9.2-20.96Z"></path><path class="cls-15" d="m1128.06,3420.98h-15.96c.17,4.79,2.48,7.48,6.93,7.48,3.82,0,5.67-1.43,5.96-4.83h2.98c-.29,4.24-3.28,7.39-9.03,7.39-7.06,0-9.83-4.66-9.83-10.88s3.23-11.22,10-11.22,8.95,3.99,8.95,10.21v1.85Zm-3.11-2.98c0-4.45-1.72-6.55-5.92-6.55s-6.55,2.65-6.89,6.97h12.81v-.42Z"></path><path class="cls-15" d="m1132.26,3420.01c0-7.1,4.28-11.09,10.04-11.09,3.7,0,6.22,1.6,7.31,3.74h.04v-14.96h2.94v32.77h-1.97l-.67-3.61h-.08c-1.18,2.31-3.95,4.16-7.77,4.16-6.3,0-9.83-3.99-9.83-11.01Zm17.64-.5c0-5.5-3.36-8.07-7.35-8.07-3.11,0-7.14,1.47-7.14,8.4s3.61,8.61,7.14,8.61c4.24,0,7.35-2.73,7.35-8.95Z"></path><path class="cls-15" d="m1186.86,3420.98h-15.96c.17,4.79,2.48,7.48,6.93,7.48,3.82,0,5.67-1.43,5.96-4.83h2.98c-.29,4.24-3.28,7.39-9.03,7.39-7.06,0-9.83-4.66-9.83-10.88s3.23-11.22,10-11.22,8.95,3.99,8.95,10.21v1.85Zm-3.11-2.98c0-4.45-1.72-6.55-5.92-6.55s-6.55,2.65-6.89,6.97h12.81v-.42Z"></path><path class="cls-15" d="m1192.74,3409.47h2.6l.29,3.49c1.01-2.14,3.28-4.03,7.35-4.03,4.75,0,7.77,2.52,7.77,7.94v13.61h-2.94v-13.27c0-4.33-2.14-5.71-5.5-5.71-3.82,0-6.64,2.69-6.64,5.63v13.36h-2.94v-21Z"></path><path class="cls-15" d="m1229.07,3427.78v2.6c-.76.21-2.14.59-4.03.59-3.82,0-6.34-1.6-6.34-6.89v-12.18h-4.16v-2.44h4.16v-6.05l2.94-1.43v7.48h5.92v2.44h-5.92v11.8c0,2.81.76,4.58,3.4,4.58,1.6,0,3.23-.29,4.03-.5Z"></path><path class="cls-15" d="m1233.9,3409.47h2.6l.29,3.91c1.01-2.14,3.07-4.45,6.76-4.45,1.26,0,2.19.21,3.03.55v3.15c-1.13-.5-2.1-.76-3.4-.76-3.74,0-6.34,2.81-6.34,5.75v12.85h-2.94v-21Z"></path><path class="cls-15" d="m1251.41,3409.47l6.89,17.98h.08l7.14-17.98h3.07v.04l-8.86,20.84-3.11,8.53h-2.98v-.04l3.19-8.36-8.78-20.96v-.04h3.36Z"></path><path class="cls-15" d="m1280.56,3424.05v-1.18h2.94v1.13c0,2.86,2.14,4.5,5.96,4.5s5.8-1.01,5.8-3.78c0-2.06-1.01-2.81-3.87-3.32l-4.62-.84c-3.02-.55-5.54-2.02-5.54-5.5,0-3.15,2.35-6.13,8.4-6.13s8.4,3.02,8.4,7.23v.88h-2.98v-.76c0-3.44-2.14-4.92-5.42-4.92-3.95,0-5.33,1.34-5.33,3.36s1.01,2.86,3.91,3.4l4.03.76c4.12.76,6.09,1.93,6.09,5.59,0,4.58-4.12,6.55-8.78,6.55-7.31,0-8.99-3.28-8.99-6.97Z"></path><path class="cls-15" d="m1315.17,3427.78v2.6c-.76.21-2.14.59-4.03.59-3.82,0-6.34-1.6-6.34-6.89v-12.18h-4.16v-2.44h4.16v-6.05l2.94-1.43v7.48h5.92v2.44h-5.92v11.8c0,2.81.76,4.58,3.4,4.58,1.6,0,3.23-.29,4.03-.5Z"></path><path class="cls-15" d="m1320,3409.47h2.6l.29,3.91c1.01-2.14,3.07-4.45,6.76-4.45,1.26,0,2.18.21,3.02.55v3.15c-1.13-.5-2.1-.76-3.4-.76-3.74,0-6.34,2.81-6.34,5.75v12.85h-2.94v-21Z"></path><path class="cls-15" d="m1334.99,3419.97c0-6.22,3.32-11.05,10.38-11.05,6.6,0,10.25,4.83,10.25,11.05s-3.7,11.05-10.29,11.05c-7.27,0-10.33-4.83-10.33-11.05Zm17.56,0c0-5.33-2.9-8.49-7.23-8.49-4.75,0-7.27,3.15-7.27,8.49s2.56,8.49,7.27,8.49c4.33,0,7.23-3.15,7.23-8.49Z"></path><path class="cls-15" d="m1360.86,3397.71h2.94v23.23l12.14-11.47h3.66v.04l-8.4,7.86,8.78,13.06v.04h-3.36l-7.39-11.22-5.42,5.04v6.17h-2.94v-32.77Z"></path><path class="cls-15" d="m1401.23,3420.98h-15.96c.17,4.79,2.48,7.48,6.93,7.48,3.82,0,5.67-1.43,5.96-4.83h2.98c-.29,4.24-3.28,7.39-9.03,7.39-7.06,0-9.83-4.66-9.83-10.88s3.23-11.22,10-11.22,8.95,3.99,8.95,10.21v1.85Zm-3.11-2.98c0-4.45-1.72-6.55-5.92-6.55s-6.55,2.65-6.89,6.97h12.81v-.42Z"></path><path class="cls-15" d="m1405.21,3424.05v-1.18h2.94v1.13c0,2.86,2.14,4.5,5.96,4.5s5.8-1.01,5.8-3.78c0-2.06-1.01-2.81-3.87-3.32l-4.62-.84c-3.02-.55-5.54-2.02-5.54-5.5,0-3.15,2.35-6.13,8.4-6.13s8.4,3.02,8.4,7.23v.88h-2.98v-.76c0-3.44-2.14-4.92-5.42-4.92-3.95,0-5.34,1.34-5.34,3.36s1.01,2.86,3.91,3.4l4.03.76c4.12.76,6.09,1.93,6.09,5.59,0,4.58-4.12,6.55-8.78,6.55-7.31,0-8.99-3.28-8.99-6.97Z"></path><path class="cls-15" d="m1438.52,3397.71h2.98v6.51h-2.98v-6.51Zm0,11.76h2.94v21h-2.94v-21Z"></path><path class="cls-15" d="m1448.85,3409.47h2.6l.29,3.49c1.01-2.14,3.28-4.03,7.35-4.03,4.75,0,7.77,2.52,7.77,7.94v13.61h-2.94v-13.27c0-4.33-2.14-5.71-5.5-5.71-3.82,0-6.64,2.69-6.64,5.63v13.36h-2.94v-21Z"></path><path class="cls-15" d="m1485.56,3408.17h-3.36v-5.08c0-3.95.88-5.29,3.4-5.96l.67,1.85c-1.76.67-2.06,1.09-2.06,3.78v.34h1.34v5.08Zm5.92,0h-3.36v-5.08c0-3.95.88-5.29,3.4-5.96l.67,1.85c-1.76.67-2.06,1.09-2.06,3.78v.34h1.34v5.08Z"></path><path class="cls-15" d="m1528.57,3416.86v13.61h-2.94v-13.27c0-4.33-2.14-5.71-4.75-5.71-3.82,0-6.17,2.69-6.17,5.63v13.36h-2.94v-13.27c0-4.33-1.85-5.71-4.83-5.71-3.61,0-6.13,2.69-6.13,5.63v13.36h-2.94v-21h2.61l.29,3.49c1.01-2.02,3.07-4.03,6.93-4.03,2.94,0,5.38,1.39,6.43,4.29,1.22-2.39,3.57-4.29,7.14-4.29,4.29,0,7.31,2.52,7.31,7.94Z"></path><path class="cls-15" d="m1532.98,3406.91c1.77-.67,2.06-1.09,2.06-3.78v-.34h-1.34v-5.08h3.36v5.08c0,3.95-.88,5.29-3.4,5.96l-.67-1.85Zm5.92,0c1.76-.67,2.06-1.09,2.06-3.78v-.34h-1.34v-5.08h3.36v5.08c0,3.95-.88,5.29-3.4,5.96l-.67-1.85Z"></path><path class="cls-15" d="m1545.91,3424.25h3.36v6.22c0,3.95-.88,5.29-3.4,5.96l-.67-1.85c1.76-.67,2.06-1.09,2.06-3.78v-.34h-1.34v-6.22Z"></path><path class="cls-15" d="m1566.91,3408.17h-3.36v-5.08c0-3.95.88-5.29,3.4-5.96l.67,1.85c-1.76.67-2.06,1.09-2.06,3.78v.34h1.34v5.08Zm5.92,0h-3.36v-5.08c0-3.95.88-5.29,3.4-5.96l.67,1.85c-1.76.67-2.06,1.09-2.06,3.78v.34h1.34v5.08Z"></path><path class="cls-15" d="m1579.22,3409.47h2.6l.29,3.49c1.01-2.14,3.28-4.03,7.35-4.03,4.75,0,7.77,2.52,7.77,7.94v13.61h-2.94v-13.27c0-4.33-2.14-5.71-5.5-5.71-3.82,0-6.64,2.69-6.64,5.63v13.36h-2.94v-21Z"></path><path class="cls-15" d="m1601.65,3406.91c1.77-.67,2.06-1.09,2.06-3.78v-.34h-1.34v-5.08h3.36v5.08c0,3.95-.88,5.29-3.4,5.96l-.67-1.85Zm5.92,0c1.76-.67,2.06-1.09,2.06-3.78v-.34h-1.34v-5.08h3.36v5.08c0,3.95-.88,5.29-3.4,5.96l-.67-1.85Z"></path><path class="cls-15" d="m1625.92,3424.67c0-3.95,2.23-6.09,7.86-6.09h6.34v-1.72c0-2.98-1.26-5.42-5.46-5.42-3.95,0-5.33,1.51-5.33,4.12v.88h-2.98v-.84c0-5,4.2-6.68,8.32-6.68,5.8,0,8.4,2.86,8.4,8.44v13.11h-2.06l-.55-2.98h-.08c-1.26,1.89-3.7,3.53-7.35,3.53-4.92,0-7.1-2.31-7.1-6.34Zm14.2-1.85v-1.76h-7.01c-2.65,0-4.03.92-4.03,3.61,0,2.35,1.26,3.87,4.49,3.87,4.16,0,6.55-2.14,6.55-5.71Z"></path><path class="cls-15" d="m1650.41,3409.47h2.6l.29,3.49c1.01-2.14,3.28-4.03,7.35-4.03,4.75,0,7.77,2.52,7.77,7.94v13.61h-2.94v-13.27c0-4.33-2.14-5.71-5.5-5.71-3.82,0-6.64,2.69-6.64,5.63v13.36h-2.94v-21Z"></path><path class="cls-15" d="m1674.1,3420.01c0-7.1,4.29-11.09,10.04-11.09,3.7,0,6.22,1.6,7.31,3.74h.04v-14.96h2.94v32.77h-1.97l-.67-3.61h-.08c-1.18,2.31-3.95,4.16-7.77,4.16-6.3,0-9.83-3.99-9.83-11.01Zm17.64-.5c0-5.5-3.36-8.07-7.35-8.07-3.11,0-7.14,1.47-7.14,8.4s3.61,8.61,7.14,8.61c4.24,0,7.35-2.73,7.35-8.95Z"></path><path class="cls-15" d="m1713.12,3408.17h-3.36v-5.08c0-3.95.88-5.29,3.4-5.96l.67,1.85c-1.76.67-2.06,1.09-2.06,3.78v.34h1.34v5.08Zm5.92,0h-3.36v-5.08c0-3.95.88-5.29,3.4-5.96l.67,1.85c-1.76.67-2.06,1.09-2.06,3.78v.34h1.34v5.08Z"></path><path class="cls-15" d="m1722.27,3409.51v-.04h3.36l7.35,17.98h.08l7.1-17.98h3.07v.04l-8.74,20.96h-3.03l-9.2-20.96Z"></path><path class="cls-15" d="m1745.75,3406.91c1.76-.67,2.06-1.09,2.06-3.78v-.34h-1.34v-5.08h3.36v5.08c0,3.95-.88,5.29-3.4,5.96l-.67-1.85Zm5.92,0c1.76-.67,2.06-1.09,2.06-3.78v-.34h-1.34v-5.08h3.36v5.08c0,3.95-.88,5.29-3.4,5.96l-.67-1.85Z"></path><path class="cls-15" d="m1099.18,4695.72c0-11.72,6.76-16.93,15.46-16.93,7.94,0,14.7,5.21,14.7,16.59,0,12.48-6.76,17.26-15.08,17.26s-15.08-4.79-15.08-16.93Zm27.05,0c0-10.12-5.33-14.24-12.01-14.24s-11.93,4.12-11.93,14.24,5.33,14.2,12.01,14.2,11.93-3.74,11.93-14.2Z"></path><path class="cls-15" d="m1135.63,4691.1h2.39l.34,3.87h.08c1.13-2.48,4.03-4.41,7.86-4.41,6.3,0,9.66,3.99,9.66,11.01s-4.29,11.09-9.87,11.09c-3.78,0-6.39-1.6-7.44-3.7h-.08v11.55h-2.94v-29.41Zm17.18,10.63c0-7.18-3.4-8.61-6.93-8.61-4.24,0-7.56,2.73-7.56,8.44,0,6.01,3.44,8.57,7.43,8.57,3.03,0,7.06-1.47,7.06-8.4Z"></path><path class="cls-15" d="m1179.11,4702.61h-15.96c.17,4.79,2.48,7.48,6.93,7.48,3.82,0,5.67-1.43,5.96-4.83h2.98c-.29,4.24-3.28,7.39-9.03,7.39-7.06,0-9.83-4.66-9.83-10.88s3.23-11.22,10-11.22,8.95,3.99,8.95,10.21v1.85Zm-3.11-2.98c0-4.45-1.72-6.55-5.92-6.55s-6.55,2.65-6.89,6.97h12.81v-.42Z"></path><path class="cls-15" d="m1184.98,4691.1h2.61l.29,3.49c1.01-2.14,3.28-4.03,7.35-4.03,4.75,0,7.77,2.52,7.77,7.94v13.61h-2.94v-13.27c0-4.33-2.14-5.71-5.5-5.71-3.82,0-6.64,2.69-6.64,5.63v13.36h-2.94v-21Z"></path><path class="cls-15" d="m1220.01,4679.34h2.94v23.23l12.14-11.47h3.65v.04l-8.4,7.86,8.78,13.06v.04h-3.36l-7.39-11.22-5.42,5.04v6.18h-2.94v-32.77Z"></path><path class="cls-15" d="m1244.16,4691.1h2.6l.29,3.49c1.01-2.14,3.28-4.03,7.35-4.03,4.75,0,7.77,2.52,7.77,7.94v13.61h-2.94v-13.27c0-4.33-2.14-5.71-5.5-5.71-3.82,0-6.64,2.69-6.64,5.63v13.36h-2.94v-21Z"></path><path class="cls-15" d="m1267.85,4701.6c0-6.22,3.32-11.05,10.38-11.05,6.59,0,10.25,4.83,10.25,11.05s-3.7,11.05-10.29,11.05c-7.27,0-10.33-4.83-10.33-11.05Zm17.56,0c0-5.33-2.9-8.49-7.23-8.49-4.75,0-7.27,3.15-7.27,8.49s2.56,8.49,7.27,8.49c4.33,0,7.23-3.15,7.23-8.49Z"></path><path class="cls-15" d="m1305.32,4709.42v2.6c-.76.21-2.14.59-4.03.59-3.82,0-6.34-1.6-6.34-6.89v-12.18h-4.16v-2.44h4.16v-6.05l2.94-1.43v7.48h5.92v2.44h-5.92v11.8c0,2.81.76,4.58,3.4,4.58,1.6,0,3.23-.29,4.03-.5Z"></path><path class="cls-15" d="m1308.25,4705.68v-1.18h2.94v1.13c0,2.86,2.14,4.49,5.96,4.49s5.8-1.01,5.8-3.78c0-2.06-1.01-2.81-3.87-3.32l-4.62-.84c-3.02-.55-5.54-2.02-5.54-5.5,0-3.15,2.35-6.13,8.4-6.13s8.4,3.02,8.4,7.23v.88h-2.98v-.76c0-3.44-2.14-4.91-5.42-4.91-3.95,0-5.33,1.34-5.33,3.36s1.01,2.86,3.91,3.4l4.03.76c4.12.76,6.09,1.93,6.09,5.59,0,4.58-4.12,6.55-8.78,6.55-7.31,0-8.99-3.28-8.99-6.97Z"></path><path class="cls-15" d="m1341.56,4679.34h2.98v6.51h-2.98v-6.51Zm0,11.76h2.94v21h-2.94v-21Z"></path><path class="cls-15" d="m1351.89,4691.1h2.61l.29,3.49c1.01-2.14,3.28-4.03,7.35-4.03,4.75,0,7.77,2.52,7.77,7.94v13.61h-2.94v-13.27c0-4.33-2.14-5.71-5.5-5.71-3.82,0-6.64,2.69-6.64,5.63v13.36h-2.94v-21Z"></path><path class="cls-15" d="m1388.6,4689.8h-3.36v-5.08c0-3.95.88-5.29,3.4-5.96l.67,1.85c-1.76.67-2.06,1.09-2.06,3.78v.34h1.34v5.08Zm5.92,0h-3.36v-5.08c0-3.95.88-5.29,3.4-5.96l.67,1.85c-1.76.67-2.06,1.09-2.06,3.78v.34h1.34v5.08Z"></path><path class="cls-15" d="m1403.72,4708.62h-.08l-.76,3.49h-1.97v-32.77h2.94v15.25h.04c1.26-2.31,4.08-4.03,7.69-4.03,6.3,0,9.66,3.99,9.66,11.01s-4.29,11.09-9.87,11.09c-3.78,0-6.55-1.64-7.65-4.03Zm14.37-6.89c0-7.18-3.4-8.61-6.93-8.61-4.24,0-7.56,2.73-7.56,8.44,0,6.01,3.44,8.57,7.43,8.57,3.02,0,7.06-1.47,7.06-8.4Z"></path><path class="cls-15" d="m1422.49,4688.54c1.76-.67,2.06-1.09,2.06-3.78v-.34h-1.34v-5.08h3.36v5.08c0,3.95-.88,5.29-3.4,5.97l-.67-1.85Zm5.92,0c1.76-.67,2.06-1.09,2.06-3.78v-.34h-1.34v-5.08h3.36v5.08c0,3.95-.88,5.29-3.4,5.97l-.67-1.85Z"></path><path class="cls-15" d="m1435.43,4705.89h3.36v6.22c0,3.95-.88,5.29-3.4,5.96l-.67-1.85c1.76-.67,2.06-1.09,2.06-3.78v-.34h-1.34v-6.22Z"></path><path class="cls-15" d="m1456.43,4689.8h-3.36v-5.08c0-3.95.88-5.29,3.4-5.96l.67,1.85c-1.76.67-2.06,1.09-2.06,3.78v.34h1.34v5.08Zm5.92,0h-3.36v-5.08c0-3.95.88-5.29,3.4-5.96l.67,1.85c-1.76.67-2.06,1.09-2.06,3.78v.34h1.34v5.08Z"></path><path class="cls-15" d="m1468.74,4679.34h2.94v23.23l12.14-11.47h3.66v.04l-8.4,7.86,8.78,13.06v.04h-3.36l-7.39-11.22-5.42,5.04v6.18h-2.94v-32.77Z"></path><path class="cls-15" d="m1491,4688.54c1.76-.67,2.06-1.09,2.06-3.78v-.34h-1.34v-5.08h3.36v5.08c0,3.95-.88,5.29-3.4,5.97l-.67-1.85Zm5.92,0c1.76-.67,2.06-1.09,2.06-3.78v-.34h-1.34v-5.08h3.36v5.08c0,3.95-.88,5.29-3.4,5.97l-.67-1.85Z"></path><path class="cls-15" d="m1503.93,4705.89h3.36v6.22c0,3.95-.88,5.29-3.4,5.96l-.67-1.85c1.76-.67,2.06-1.09,2.06-3.78v-.34h-1.34v-6.22Z"></path><path class="cls-15" d="m1524.93,4689.8h-3.36v-5.08c0-3.95.88-5.29,3.4-5.96l.67,1.85c-1.76.67-2.06,1.09-2.06,3.78v.34h1.34v5.08Zm5.92,0h-3.36v-5.08c0-3.95.88-5.29,3.4-5.96l.67,1.85c-1.76.67-2.06,1.09-2.06,3.78v.34h1.34v5.08Z"></path><path class="cls-15" d="m1537.24,4691.1h2.61l.29,3.91c1.01-2.14,3.07-4.45,6.76-4.45,1.26,0,2.18.21,3.02.55v3.15c-1.13-.5-2.1-.76-3.4-.76-3.74,0-6.34,2.81-6.34,5.75v12.85h-2.94v-21Z"></path><path class="cls-15" d="m1552.65,4688.54c1.76-.67,2.06-1.09,2.06-3.78v-.34h-1.34v-5.08h3.36v5.08c0,3.95-.88,5.29-3.4,5.97l-.67-1.85Zm5.92,0c1.76-.67,2.06-1.09,2.06-3.78v-.34h-1.34v-5.08h3.36v5.08c0,3.95-.88,5.29-3.4,5.97l-.67-1.85Z"></path><path class="cls-15" d="m1576.93,4706.31c0-3.95,2.23-6.09,7.86-6.09h6.34v-1.72c0-2.98-1.26-5.42-5.46-5.42-3.95,0-5.33,1.51-5.33,4.12v.88h-2.98v-.84c0-5,4.2-6.68,8.32-6.68,5.8,0,8.4,2.86,8.4,8.44v13.11h-2.06l-.55-2.98h-.08c-1.26,1.89-3.7,3.53-7.35,3.53-4.91,0-7.1-2.31-7.1-6.34Zm14.2-1.85v-1.76h-7.02c-2.65,0-4.03.92-4.03,3.61,0,2.35,1.26,3.87,4.5,3.87,4.16,0,6.55-2.14,6.55-5.71Z"></path><path class="cls-15" d="m1601.42,4691.1h2.6l.29,3.49c1.01-2.14,3.28-4.03,7.35-4.03,4.75,0,7.77,2.52,7.77,7.94v13.61h-2.94v-13.27c0-4.33-2.14-5.71-5.5-5.71-3.82,0-6.64,2.69-6.64,5.63v13.36h-2.94v-21Z"></path><path class="cls-15" d="m1625.1,4701.65c0-7.1,4.28-11.09,10.04-11.09,3.7,0,6.22,1.6,7.31,3.74h.04v-14.96h2.94v32.77h-1.97l-.67-3.61h-.08c-1.18,2.31-3.95,4.16-7.77,4.16-6.3,0-9.83-3.99-9.83-11.01Zm17.64-.5c0-5.5-3.36-8.07-7.35-8.07-3.11,0-7.14,1.47-7.14,8.4s3.61,8.61,7.14,8.61c4.24,0,7.35-2.73,7.35-8.95Z"></path><path class="cls-15" d="m1664.12,4689.8h-3.36v-5.08c0-3.95.88-5.29,3.4-5.96l.67,1.85c-1.77.67-2.06,1.09-2.06,3.78v.34h1.34v5.08Zm5.92,0h-3.36v-5.08c0-3.95.88-5.29,3.4-5.96l.67,1.85c-1.76.67-2.06,1.09-2.06,3.78v.34h1.34v5.08Z"></path><path class="cls-15" d="m1673.28,4691.14v-.04h3.36l7.35,17.98h.08l7.1-17.98h3.07v.04l-8.74,20.96h-3.02l-9.2-20.96Z"></path><path class="cls-15" d="m1696.75,4688.54c1.77-.67,2.06-1.09,2.06-3.78v-.34h-1.34v-5.08h3.36v5.08c0,3.95-.88,5.29-3.4,5.97l-.67-1.85Zm5.92,0c1.76-.67,2.06-1.09,2.06-3.78v-.34h-1.34v-5.08h3.36v5.08c0,3.95-.88,5.29-3.4,5.97l-.67-1.85Z"></path><rect class="cls-16" x="1350.38" y="2762.19" width="133.39" height="133.39" rx="66.69" ry="66.69"></rect><path class="cls-14" d="m770.56,144.05h4.4l8.37,43.27h.12l8.12-43.27h4.46l-9.98,48.36h-5.46l-10.04-48.36Z"></path><path class="cls-14" d="m800.38,144.05h16.68v3.91h-12.34v18.17h9.49v4.03h-9.49v18.35h12.34v3.91h-16.68v-48.36Z"></path><path class="cls-14" d="m822.33,144.05h9.3c8.37,0,13.21,3.97,13.21,13.08,0,4.84-1.8,10.97-7.56,13.21l8.8,22.01v.06h-4.65l-8.12-21.26h-6.57v21.26h-4.4v-48.36Zm9.48,23.37c6.45,0,8.56-4.09,8.56-10.35,0-6.63-3.04-9.18-8.49-9.18h-5.15v19.53h5.08Z"></path><path class="cls-14" d="m855.93,147.89h-10.17v-3.84h24.67v3.84h-10.17v44.51h-4.34v-44.51Z"></path><path class="cls-14" d="m874.78,144.05h4.34v48.36h-4.34v-48.36Z"></path><path class="cls-14" d="m885.32,168.23c0-17.3,3.35-24.98,12.89-24.98,6.88,0,10.54,4.28,10.54,15.19v2.29h-4.21v-2.17c0-8.37-2.11-11.41-6.39-11.41-6.7,0-8.31,6.76-8.31,21.08s1.74,21.08,8.43,21.08c4.28,0,6.26-2.73,6.26-11.22v-2.73h4.21v2.73c0,10.85-3.6,15.13-10.6,15.13-9.48,0-12.83-7.07-12.83-24.98Z"></path><path class="cls-14" d="m930.08,175.67h-10.54l-3.22,16.74h-4.46l10.29-48.36h5.39l10.29,48.36h-4.4l-3.35-16.74Zm-.68-3.72l-4.65-23.31h-.06l-4.46,23.31h9.18Z"></path><path class="cls-14" d="m942.18,144.05h4.34v44.51h14.07v3.84h-18.41v-48.36Z"></path><path class="cls-14" d="m972.18,144.05h4.21l5.95,42.84h.12l7.07-42.84h4.46l7.25,42.84h.12l5.7-42.84h4.21l-7.25,48.36h-5.52l-6.7-40.3h-.12l-6.63,40.3h-5.52l-7.38-48.36Z"></path><path class="cls-14" d="m1015.65,144.05h9.3c8.37,0,13.21,3.97,13.21,13.08,0,4.84-1.8,10.97-7.56,13.21l8.8,22.01v.06h-4.65l-8.12-21.26h-6.57v21.26h-4.4v-48.36Zm9.48,23.37c6.45,0,8.56-4.09,8.56-10.35,0-6.63-3.04-9.18-8.49-9.18h-5.15v19.53h5.08Z"></path><path class="cls-14" d="m1044.04,144.05h4.34v48.36h-4.34v-48.36Z"></path><path class="cls-14" d="m1062.89,147.89h-10.17v-3.84h24.67v3.84h-10.17v44.51h-4.34v-44.51Z"></path><path class="cls-14" d="m1081.74,144.05h4.34v48.36h-4.34v-48.36Z"></path><path class="cls-14" d="m1093.52,144.05h5.58l14.01,39.86h.12v-39.86h4.09v48.36h-5.08l-14.51-41.04h-.12v41.04h-4.09v-48.36Z"></path><path class="cls-14" d="m1123.53,168.23c0-17.3,3.35-24.98,12.9-24.98,6.88,0,10.54,4.28,10.54,15.19v1.05h-4.21v-.93c0-8.37-2.11-11.41-6.39-11.41-6.7,0-8.31,6.76-8.31,21.08s1.73,21.14,8.18,21.14c4.53,0,6.51-3.04,6.51-10.48v-6.88h-8.31v-4.09h12.52v24.49h-3.04l-.74-3.84c-1.55,3.29-4.4,4.65-7.5,4.65-8.56,0-12.15-7.07-12.15-24.98Z"></path><rect class="cls-7" x="738.95" y="110.68" width="443.21" height="118.22"></rect><polyline class="cls-8" points="1639.54 2361.84 1729.71 2361.84 1729.71 2258.41"></polyline><path class="cls-14" d="m841.62,3659.08v-2.6h4.34v2.54c0,4.65,0,10.85,7.13,10.85,4.59,0,6.88-2.42,6.88-8.43,0-6.82-2.54-8.87-5.21-10.04l-4.59-2.05c-4.9-2.17-7.75-6.45-7.75-13.39,0-5.95,2.29-12.15,10.91-12.15,10.35,0,10.6,9.55,10.6,15v2.6h-4.34v-2.23c0-8.25-.87-11.47-6.32-11.47-4.9,0-6.39,3.1-6.39,8.74,0,6.2,2.85,8.06,5.58,9.36l4.28,2.05c3.29,1.55,7.56,4.22,7.56,13.14,0,7.75-3.22,12.77-11.22,12.77-11.16,0-11.47-9.18-11.47-14.69Z"></path><path class="cls-14" d="m870.21,3624.61h4.34v44.51h14.07v3.84h-18.41v-48.36Z"></path><path class="cls-14" d="m890.48,3648.79c0-17.3,3.35-24.98,12.52-24.98s12.15,8.18,12.15,24.98c0,18.41-3.41,24.99-12.34,24.99s-12.34-6.51-12.34-24.99Zm20.15,0c0-14.32-1.49-20.95-7.81-20.95s-7.81,6.63-7.81,20.95,1.49,21.14,7.81,21.14,7.81-6.32,7.81-21.14Z"></path><path class="cls-14" d="m921.35,3624.61h8.87c8.37,0,13.33,4.09,13.33,14.38,0,7.13-2.48,15.07-12.4,15.07h-5.39v18.91h-4.4v-48.36Zm9.24,25.67c6.45,0,8.49-3.91,8.49-11.35,0-7.81-3.16-10.48-8.62-10.48h-4.71v21.82h4.83Z"></path><path class="cls-14" d="m948.51,3624.61h16.68v3.91h-12.34v18.17h9.49v4.03h-9.49v18.35h12.34v3.91h-16.68v-48.36Z"></path><path class="cls-14" d="m970.46,3624.61h7.32c10.35,0,15.5,6.26,15.5,24.18s-5.15,24.18-15.5,24.18h-7.32v-48.36Zm7.25,44.51c7.81,0,11.04-5.02,11.04-20.33s-3.1-20.33-10.91-20.33h-3.04v40.67h2.91Z"></path><path class="cls-14" d="m1006.73,3624.61h4.22l5.95,42.84h.12l7.07-42.84h4.46l7.25,42.84h.12l5.7-42.84h4.22l-7.25,48.36h-5.52l-6.7-40.3h-.12l-6.63,40.3h-5.52l-7.38-48.36Z"></path><path class="cls-14" d="m1050.19,3624.61h9.3c8.37,0,13.21,3.97,13.21,13.08,0,4.83-1.8,10.97-7.56,13.21l8.8,22.01v.06h-4.65l-8.12-21.26h-6.57v21.26h-4.4v-48.36Zm9.49,23.37c6.45,0,8.56-4.09,8.56-10.35,0-6.63-3.04-9.18-8.49-9.18h-5.15v19.53h5.08Z"></path><path class="cls-14" d="m1078.59,3624.61h4.34v48.36h-4.34v-48.36Z"></path><path class="cls-14" d="m1097.43,3628.46h-10.17v-3.84h24.67v3.84h-10.17v44.51h-4.34v-44.51Z"></path><path class="cls-14" d="m1116.28,3624.61h4.34v48.36h-4.34v-48.36Z"></path><path class="cls-14" d="m1128.06,3624.61h5.58l14.01,39.86h.12v-39.86h4.09v48.36h-5.08l-14.51-41.04h-.12v41.04h-4.09v-48.36Z"></path><path class="cls-14" d="m1158.07,3648.79c0-17.3,3.35-24.98,12.9-24.98,6.88,0,10.54,4.28,10.54,15.19v1.05h-4.21v-.93c0-8.37-2.11-11.41-6.39-11.41-6.7,0-8.31,6.76-8.31,21.08s1.74,21.14,8.18,21.14c4.53,0,6.51-3.04,6.51-10.48v-6.88h-8.31v-4.09h12.52v24.49h-3.04l-.74-3.84c-1.55,3.29-4.4,4.65-7.5,4.65-8.56,0-12.15-7.07-12.15-24.99Z"></path><rect class="cls-7" x="818.07" y="3592.53" width="389.68" height="118.22"></rect><line class="cls-3" x1="1346.13" y1="4326.15" x2="1346.13" y2="4327.02"></line><line class="cls-6" x1="1346.13" y1="4344.16" x2="1346.13" y2="4637.27"></line><line class="cls-3" x1="1346.13" y1="4645.84" x2="1346.13" y2="4646.71"></line><circle class="cls-16" cx="1358.76" cy="4110.21" r="69.94"></circle></g><g id="words"><circle class="cls-16" cx="1729.71" cy="2080.4" r="153.68"></circle><circle class="cls-16" cx="1063.46" cy="2665.72" r="153.68"></circle><line class="cls-3" x1="916.77" y1="1312.54" x2="916.77" y2="1313.41"></line><line class="cls-4" x1="916.77" y1="1330.9" x2="916.77" y2="1630.04"></line><line class="cls-3" x1="916.77" y1="1638.79" x2="916.77" y2="1639.66"></line><rect class="cls-17" x="866.42" y="1661.45" width="100.7" height="100.7" rx="50.35" ry="50.35"></rect><path class="cls-15" d="m475.45,335.31l.23.23,6.15,4.1c-.61,1.22-2.89,3.76-6.84,7.63-3.95,3.87-8.89,7.1-14.81,9.68-10.48,4.25-21.84,5.66-34.07,4.22-12.23-1.44-23.13-3.23-32.7-5.35-7.44-1.37-15.61-2.77-24.5-4.22-8.89-1.44-18.5-2.01-28.83-1.71-18.54.46-34.33,6.76-47.4,18.91-13.07,12.16-19.67,26.81-19.82,43.98,0,5.62.61,10.63,1.82,15.04,3.04,12.91,10.18,22.48,21.42,28.71,11.24,6.23,22.71,9.5,34.41,9.8,16.71.61,31.86-3.61,45.46-12.65,13.59-9.04,21.84-17.51,24.72-25.41l12.99,5.24c-4.41,11.55-14.78,22.41-31.1,32.59-16.33,10.18-33.84,14.96-52.52,14.36-15.95-.61-30-4.86-42.16-12.76-13.98-8.96-22.79-21.11-26.43-36.46-1.52-5.77-2.28-12-2.28-18.69.15-20.81,8.01-38.66,23.58-53.55,15.57-14.89,34.6-22.63,57.08-23.24,10.48-.15,20.39.46,29.74,1.82,9.34,1.37,18.19,2.89,26.55,4.56,12.3,2.59,25.75,4.33,40.33,5.24,13.06.76,23.47-3.27,31.22-12.08h7.75Zm-27.12,204.06c-1.98-48.08-2.96-81.46-2.96-100.15-.15-15.04.91-32.09,3.19-51.16,2.28-19.06,9.04-37.18,20.28-54.35l13.67,5.47c-9.88,13.98-16.29,29.7-19.25,47.17-2.96,17.47-4.37,35.09-4.22,52.87.15,18.23,1.21,51.58,3.19,100.03,1.97,48.46,3.19,79.75,3.65,93.88.46,14.13.76,28.26.91,42.38.15,36.31-10.03,66.69-30.53,91.15-19.75,23.55-42.84,35.63-69.27,36.23-32.81.76-58.11-6.76-75.88-22.56-18.23-15.64-28.63-38.13-31.22-67.45-1.82-28.86,6.61-53.7,25.29-74.51,15.19-17.01,36.15-25.82,62.89-26.43,20.36-.46,36.61,5.7,48.76,18.46,16.1,17.02,22.94,42.92,20.51,77.7l-13.67-1.14c1.97-30.53-3.65-52.87-16.86-66.99-9.42-9.72-22.26-14.51-38.51-14.36-22.64.61-40.26,7.98-52.87,22.1-16.26,17.62-23.62,38.97-22.1,64.03,2.58,25.37,11.54,44.74,26.89,58.11,14.89,13.52,37.06,19.98,66.54,19.37,20.96-.46,40.64-10.9,59.02-31.33,18.38-20.43,27.49-47.89,27.34-82.37-.15-14.13-.5-28.33-1.03-42.61-.53-14.28-1.79-45.46-3.76-93.54Zm-15.04,44.09c-3.19-3.49-5.09-6.99-5.7-10.48-1.22-4.71-.15-9.11,3.19-13.22,3.49-4.25,9.49-7.52,18-9.8,7.14-1.82,15.27-2.81,24.38-2.96,17.92.31,32.96,3.87,45.12,10.71,7.59-6.07,12.23-11.92,13.9-17.55,2.13-6.68,3.08-15.11,2.85-25.29-.23-10.18-.8-29.09-1.71-56.74-.91-27.65.6-48.99,4.56-64.03,4.86-18.08,14.73-32.59,29.62-43.52,14.43-10.18,30.53-15.27,48.31-15.27,20.05.31,35.7,6.23,46.94,17.77,7.9,8.51,11.62,18.38,11.17,29.62-1.06,23.4-9.34,41.47-24.84,54.23l-8.89-10.48c5.16-4.25,9.65-10.67,13.44-19.25,3.79-8.58,5.92-16.98,6.38-25.18.46-7.29-1.98-13.75-7.29-19.37-8.36-8.66-20.66-13.14-36.91-13.44-15.35,0-28.71,4.25-40.1,12.76-12.46,8.97-20.59,20.89-24.38,35.78-3.65,13.83-5.01,34.41-4.1,61.75.91,27.34,1.44,46.34,1.6,56.97.15,10.63-.99,19.9-3.42,27.8-2.43,7.75-7.67,15.04-15.72,21.88.76.61,1.74,1.52,2.96,2.73,11.85,12.76,18.61,30,20.28,51.73.46,6.23.6,17.09.46,32.59-.15,15.5.46,28.55.46,39.19,0,70.12,31.91,98.44,65.53,98.44,43.23,0,74.88-65.7,86-88.64l12.99,4.56c-19.99,39.52-50.51,97.98-96.16,97.98-14.13,0-26.66-3.57-37.6-10.25-10.18-5.77-18.76-14.51-25.75-26.2-7.14-11.85-11.93-24.68-14.36-38.51-2.58-13.52-4.1-25.6-4.56-36.23-.31-11.39-.38-24.76-.23-40.1.15-15.34,0-25.98-.46-31.9-1.67-21.11-8.66-36.76-20.96-46.94-12.3,7.6-25.07,12.46-38.28,14.58-7.9,1.06-13.44,1.63-16.63,1.71-3.19.08-7.44-.19-12.76-.8-8.36-.91-14.13-3.11-17.32-6.61Zm44.66-7.98c8.66-1.37,17.47-4.4,26.43-9.11-8.66-3.65-19.07-5.47-31.22-5.47-2.43,0-5.74.11-9.91.34-4.18.23-8.77,1.18-13.79,2.85-4.1,1.52-6.76,2.96-7.98,4.33-.61.76-.76,1.37-.46,1.82.61,3.04,3.57,4.94,8.89,5.7,6.68,1.22,11.77,1.63,15.27,1.25,3.49-.38,7.75-.95,12.76-1.71Z"></path><path class="cls-15" d="m765.8,804.72h-13.67v-159.28c-6.38,12.46-12.91,24.53-19.6,36.23-6.69,11.7-13.07,23.01-19.14,33.95l-11.39-6.84c7.9-14.28,16.18-29.32,24.84-45.12,8.66-15.8,17.09-32.05,25.29-48.76v-122.14c0-21.27,1.21-41.47,3.65-60.61,3.65-21.88,9.26-41.47,16.86-58.79,7.9-17.32,18.53-28.86,31.9-34.64,16.1-6.99,29.62-2.88,40.56,12.3,7.29,11.85,9.72,29.32,7.29,52.41-3.34,30.39-10.41,57.73-21.19,82.03-10.79,24.31-22.56,48.46-35.32,72.46-4.56,9.11-9.27,18.23-14.13,27.34-4.86,9.11-9.42,18.23-13.67,27.34-2.13,4.25-2.89,5.92-2.28,5.01v187.08Zm229.24-76.79c-7.9,20.05-16.26,36.08-25.07,48.08-13.67,18.99-28.26,28.64-43.75,28.94-11.09.15-19.67-4.02-25.75-12.53-5.01-6.99-7.52-16.03-7.52-27.12v-85.91c0-3.95-.38-8.66-1.14-14.13-.76-5.47-2.2-10.71-4.33-15.72-5.47-12-14.36-18.08-26.66-18.23-9.72-.15-19.29,2.96-28.71,9.34-9.11,6.23-17.77,14.96-25.98,26.2-9.57,12.91-18.23,28.18-25.98,45.8-3.8,8.36-6.95,15.99-9.46,22.9-2.51,6.91-4.37,12.65-5.58,17.2l-12.99-3.87c1.52-4.71,3.49-10.71,5.92-18,2.43-7.29,5.62-15.27,9.57-23.93,8.2-18.38,17.39-34.48,27.57-48.31,9.57-12.76,19.29-22.48,29.17-29.17,12-8.2,24.23-12.15,36.69-11.85,18.23.31,31.14,9.04,38.74,26.2,2.88,6.08,4.75,12.34,5.58,18.8.83,6.46,1.25,12.04,1.25,16.75v85.91c0,8.2,1.67,14.58,5.01,19.14,3.49,5.01,8.2,7.37,14.13,7.06,11.09-.3,22.18-8.12,33.27-23.47,8.2-11.24,15.95-26.2,23.24-44.89,1.82-4.86,3.65-9.95,5.47-15.27l12.99,4.33c-1.82,5.47-3.72,10.71-5.7,15.72Zm-225.59-293.5c-2.43,18.23-3.65,37.68-3.65,58.33v93.43c2.73-5.77,5.7-11.54,8.89-17.32,3.19-5.77,6.3-11.54,9.34-17.32,12.45-23.7,23.93-47.24,34.41-70.64,10.48-23.39,17.24-49.68,20.28-78.84,2.13-20.36.46-34.79-5.01-43.3-6.38-8.81-14.28-11.24-23.7-7.29-10.33,4.56-18.69,13.67-25.07,27.34-7.29,16.71-12.46,35.24-15.5,55.6Z"></path><path class="cls-15" d="m986.83,710.61c10.63-32.05,18.61-63.19,23.93-93.43l13.67,2.51c-5.01,31.14-13.22,63.04-24.61,95.71l-12.99-4.79Zm37.6-93.65v126.24c0,3.95.38,8.66,1.14,14.13.76,5.47,2.2,10.71,4.33,15.72,5.47,12,14.36,18.08,26.66,18.23,9.72.15,19.29-2.96,28.71-9.34,9.11-6.23,17.77-14.96,25.98-26.2,9.57-12.91,18.23-28.18,25.98-45.8,3.79-8.35,6.95-15.99,9.46-22.9,2.51-6.91,4.36-12.65,5.58-17.2l12.99,3.87c-1.52,4.71-3.5,10.71-5.92,18-2.43,7.29-5.62,15.27-9.57,23.93-8.2,18.38-17.4,34.49-27.57,48.31-9.57,12.76-19.29,22.48-29.17,29.17-12,8.2-24.23,12.15-36.69,11.85-18.23-.3-31.14-9.04-38.74-26.2-2.89-6.07-4.75-12.34-5.58-18.8-.84-6.46-1.25-12.04-1.25-16.75v-126.24h13.67Zm158.37,187.76c-9.27,0-16.6-3.04-21.99-9.11-5.39-6.07-8.32-13.9-8.77-23.47l-.46-18.46v-136.72h13.67v136.72l.68,15.5c.76,6.53,2.66,11.85,5.7,15.95,3.04,4.1,6.76,6.15,11.17,6.15,11.39,0,22.94-8.2,34.64-24.61,4.86-6.84,9.95-15.8,15.27-26.89,4.71-10.33,9.11-20.89,13.22-31.67l12.99,4.79c-5.32,13.98-9.88,24.92-13.67,32.81-5.78,12.16-11.32,21.88-16.63,29.17-7.29,10.03-14.28,17.51-20.96,22.45-6.69,4.94-14.96,7.41-24.84,7.41Z"></path><path class="cls-15" d="m1245.92,711.07c0-26.43,7.14-48.46,21.42-66.08,15.34-18.69,33.8-28.03,55.37-28.03h.46c21.57,0,40.03,9.34,55.37,28.03,14.28,17.62,21.42,39.65,21.42,66.08s-7.14,48.16-21.42,66.08c-15.04,18.38-33.5,27.57-55.37,27.57h-.46c-21.88,0-40.33-9.19-55.37-27.57-14.28-17.92-21.42-39.95-21.42-66.08Zm77.02-80.21c-17.17,0-31.98,7.67-44.43,23.01-12.61,15.95-18.91,35.02-18.91,57.2s6.3,41.09,18.91,56.74c12.45,15.35,27.27,23.01,44.43,23.01s31.9-7.67,44.21-23.01c12.76-15.34,19.14-34.26,19.14-56.74s-6.38-41.55-19.14-57.2c-12.3-15.34-27.04-23.01-44.21-23.01Zm34.64,33.95c-1.52-6.99,1.14-14.43,7.98-22.33l9.34,10.48c-1.52,1.37-2.73,3.12-3.65,5.24-1.52,5.17.46,8.28,5.92,9.34,3.95.31,8.2-1.37,12.76-5.01,2.88-2.43,8.96-9.19,18.23-20.28,1.37-1.97,3.19-4.4,5.47-7.29,10.03-11.85,20.88-17.77,32.59-17.77,9.11,0,16.25,3.27,21.42,9.8,4.4,5.17,7.06,12.16,7.98,20.96.91,8.97,1.37,17.93,1.37,26.89v129.89h-13.9v-129.89c0-5.62-.31-12.3-.91-20.05-.76-8.96-2.43-15.27-5.01-18.91-2.59-3.19-6.23-4.79-10.94-4.79-7.6,0-14.81,4.18-21.65,12.53.15-.15-.84,1.06-2.96,3.65-.46.91-1.37,2.05-2.73,3.42-9.27,12.16-17.09,20.36-23.47,24.61-8.51,6.23-17.02,7.67-25.52,4.33-6.53-2.43-10.63-7.37-12.3-14.81Zm348.87,63.12c-7.9,20.05-16.26,36.08-25.07,48.08-13.67,18.99-28.26,28.64-43.75,28.94-11.09.15-19.67-4.02-25.75-12.53-5.01-6.99-7.52-16.03-7.52-27.12v-85.91c0-3.95-.38-8.66-1.14-14.13-.76-5.47-2.2-10.71-4.33-15.72-5.47-12-14.36-18.08-26.66-18.23-9.72-.15-19.29,2.96-28.71,9.34-9.11,6.23-17.77,14.96-25.98,26.2-9.57,12.91-18.23,28.18-25.98,45.8-3.8,8.36-6.95,15.99-9.46,22.9-2.51,6.91-4.37,12.65-5.58,17.2l-12.99-3.87c1.52-4.71,3.49-10.71,5.92-18,2.43-7.29,5.62-15.27,9.57-23.93,8.2-18.38,17.39-34.48,27.57-48.31,9.57-12.76,19.29-22.48,29.17-29.17,12-8.2,24.23-12.15,36.69-11.85,18.23.31,31.14,9.04,38.74,26.2,2.88,6.08,4.75,12.34,5.58,18.8.83,6.46,1.25,12.04,1.25,16.75v85.91c0,8.2,1.67,14.58,5.01,19.14,3.49,5.01,8.2,7.37,14.13,7.06,11.09-.3,22.18-8.12,33.27-23.47,8.2-11.24,15.95-26.2,23.24-44.89,1.82-4.86,3.65-9.95,5.47-15.27l12.99,4.33c-1.82,5.47-3.72,10.71-5.7,15.72Z"></path><path class="cls-15" d="m1278.96,584.15c4.86-2.43,11.85-6.68,20.96-12.76,9.11-7.29,15.5-12.91,19.14-16.86l5.01-5.01,4.56,5.47c10.94,12.16,23.7,21.42,38.28,27.8l-5.47,11.85c-14.89-6.38-27.5-15.04-37.83-25.98-3.34,3.34-8.66,7.75-15.95,13.22-6.08,4.86-13.67,9.57-22.79,14.13l-5.92-11.85Z"></path><path class="cls-15" d="m869.87,2554.83c16.71,13.98,21.72,31.6,15.04,52.87-6.38,20.05-19.6,32.66-39.65,37.83l-3.19-13.67c14.58-3.95,24.3-13.52,29.17-28.71,4.86-15.19,1.37-27.65-10.48-37.37-8.51-6.99-19.29-9.57-32.36-7.75-13.98,1.22-27.5,6.53-40.56,15.95-24.31,18.23-39.73,44.97-46.26,80.21-6.53,35.24-11.32,73.22-14.36,113.93v.91c-1.82,20.96-3.8,41.93-5.92,62.89-2.13,20.96-5.62,41.78-10.48,62.44-10.63,44.97-28.26,80.67-52.87,107.1-3.04,3.04-6.99,5.17-11.85,6.38-2.73.31-6.53.46-11.39.46h-9.11l-.46-6.84c-1.22-13.97-2.43-37.22-3.65-69.73-1.22-32.51-2.43-68.97-3.65-109.38l-.46-4.1c-1.22-38.89-2.73-80.97-4.56-126.24-1.82-45.27-3.5-88.56-5.01-129.89-20.05,15.19-33.35,38.66-39.88,70.41-6.53,31.75-11.17,66.16-13.9,103.22l-1.82,24.15c-1.22,17.93-2.66,35.93-4.33,54.01-1.67,18.08-3.87,35.32-6.61,51.73-6.99,37.07-17.77,65.48-32.36,85.22-4.86,6.69-10.56,13.75-17.09,21.19-6.53,7.44-14.05,14.05-22.56,19.82-17.32,11.85-36.46,17.32-57.42,16.41-25.52-1.82-45.42-12.76-59.7-32.81-12.46-17.62-18.69-39.04-18.69-64.26,0-23.09,6.99-43.3,20.96-60.61,15.19-19.44,34.48-28.86,57.88-28.26,22.79.61,40.71,11.85,53.78,33.72,11.24,19.45,14.73,39.8,10.48,61.07l-13.67-2.73c3.65-17.32.61-34.33-9.11-51.04-2.73-4.86-7.52-10.48-14.36-16.86-6.84-6.38-16.03-9.72-27.57-10.03-18.54-.91-34.03,6.69-46.49,22.79-11.85,14.58-17.77,31.9-17.77,51.95,0,22.48,5.32,41.17,15.95,56.06,11.54,16.71,28.1,25.67,49.68,26.89,17.32.91,33.42-3.8,48.31-14.13,7.29-5.16,13.97-11.24,20.05-18.23,6.07-6.99,11.39-13.37,15.95-19.14,15.19-20.36,25.14-47.32,29.85-80.89,4.71-33.57,8.28-67.83,10.71-102.77l1.82-24.61c1.52-22.48,3.49-42.99,5.92-61.52,2.43-18.53,6.07-35.55,10.94-51.04,10.33-37.67,27.65-63.65,51.95-77.93l1.37-.91h10.94v6.84c2.13,42.54,4.1,87.65,5.92,135.35,1.82,47.7,3.34,91.76,4.56,132.16l.46,4.56c1.21,37.37,2.35,71.48,3.42,102.31,1.06,30.84,2.2,54.16,3.42,69.96,2.13,0,3.65-.15,4.56-.46,2.13-.3,3.49-.91,4.1-1.82,22.79-24.61,39.34-58.18,49.68-100.72,4.56-20.05,7.9-40.48,10.03-61.3,2.13-20.81,4.1-41.39,5.92-61.75v-.91c3.34-42.23,8.51-81.88,15.5-118.95,6.99-37.06,23.85-65.47,50.59-85.22,14.89-10.94,30.68-17.32,47.4-19.14,17.62-2.13,32.05,1.52,43.3,10.94Z"></path><path class="cls-15" d="m1026.12,3008.24h-13.78v-155.3c-25.12,52.08-51.77,104.61-79.95,157.6v120.38c0,26.04-2.3,50.85-6.89,74.44-4.29,20.22-8.88,35.38-13.78,45.49-7.66,17.15-18.38,28.95-32.16,35.38-16.85,6.74-30.33,2.45-40.43-12.87-7.66-10.72-10.26-28.34-7.81-52.84,2.14-20.22,7.66-43.65,16.54-70.3,4.29-13.17,9.65-26.19,16.08-39.06,6.43-12.87,12.56-24.66,18.38-35.38,5.82-11.34,11.79-22.74,17.92-34.23,6.12-11.49,12.25-22.74,18.38-33.77v-39.06c-.61.92-1.15,1.69-1.61,2.3-.46.61-.84,1.23-1.15,1.84-3.37,4.59-9.8,11.57-19.3,20.91-9.5,9.34-21.9,13.86-37.22,13.55-13.78,0-25.81-3.68-36.07-11.03-10.26-7.35-18.15-15.16-23.66-23.43-11.64-16.54-17.46-36.6-17.46-60.19,0-21.75,6.58-41.66,19.76-59.73,16.23-21.14,36.6-32.01,61.11-32.62,14.39,0,25.96,3.91,34.69,11.72,8.73,7.81,14.93,14.78,18.61,20.91l2.3,4.59v-36.76h13.78v160.36c28.79-54.22,55.44-107.67,79.95-160.36v-123.14c0-22.67,1.38-43.04,4.14-61.11,3.06-21.14,8.58-40.89,16.54-59.27,7.66-17.15,18.53-28.79,32.62-34.92,16.23-7.04,29.71-2.91,40.43,12.41,7.35,11.95,9.8,29.56,7.35,52.84-3.37,30.33-10.42,57.82-21.14,82.48-10.72,24.66-22.51,49.09-35.38,73.29-11.03,19.61-20.53,37.99-28.49,55.14-.61,1.84-1.38,3.53-2.3,5.05v184.71Zm-121.3-43.65c7.96-10.41,11.95-27.72,11.95-51.92,0-20.52-4.14-38.14-12.41-52.84-3.07-4.59-7.97-10.03-14.7-16.31-6.74-6.28-15.62-9.42-26.65-9.42-20.22.61-36.91,9.65-50.08,27.11-11.64,16.24-17.46,33.39-17.46,51.46,0,20.22,5.2,37.83,15.62,52.84,4.59,6.74,11.1,13.1,19.53,19.07,8.42,5.97,18.15,8.96,29.18,8.96,10.41.31,19.37-2.83,26.88-9.42,7.5-6.58,13.55-13.1,18.15-19.53Zm13.78,166.33v-94.19c-3.98,7.35-8.04,14.85-12.18,22.51-4.14,7.66-8.2,15.31-12.18,22.97-5.51,10.41-11.49,21.9-17.92,34.46-6.43,12.56-11.64,25.27-15.62,38.14-8.88,26.65-14.09,49.16-15.62,67.54-2.45,19.91-.77,34.46,5.05,43.65,6.12,8.88,14.09,11.33,23.89,7.35,10.41-4.59,18.84-13.94,25.27-28.03.92-2.76,2.6-7.58,5.05-14.47,2.45-6.89,4.9-16.31,7.35-28.26,4.59-22.67,6.89-46.56,6.89-71.68Zm225.6-252.25c0-14.24-1.84-24.73-5.51-31.47-5.51-10.87-16.39-15.31-32.62-13.32-8.27,1.23-16.31,5.21-24.12,11.95-7.81,6.74-14.17,13.86-19.07,21.37-6.43,9.19-13.25,22.21-20.45,39.06-7.2,16.85-12.64,31.32-16.31,43.42h-13.78l9.19-27.57,4.59-12.41c8.88-21.6,17.46-38.44,25.73-50.54,5.51-8.27,12.87-16.43,22.06-24.47,9.19-8.04,19.3-12.83,30.33-14.36,22.36-3.37,37.98,3.45,46.87,20.45,4.59,9.19,6.89,21.83,6.89,37.91v78.57c0,5.36.23,10.57.69,15.62.15,5.05,1.45,9.57,3.91,13.55,3.68,5.51,8.04,8.27,13.1,8.27,11.49,0,23.13-8.12,34.92-24.35,4.9-6.89,10.03-15.93,15.39-27.11,4.75-10.41,9.19-21.06,13.32-31.93l13.1,4.82c-5.36,14.09-9.96,25.12-13.78,33.08-5.82,12.26-11.41,22.06-16.77,29.41-7.35,10.11-14.4,17.65-21.14,22.63-6.74,4.98-15.09,7.47-25.04,7.47s-18.69-5.05-24.81-15.16c-3.52-5.36-5.59-11.26-6.2-17.69-.31-4.29-.46-10.49-.46-18.61v-78.57Zm-114.41-239.85c-2.45,18.38-3.68,37.99-3.68,58.81v94.19c4.29-8.58,10.41-20.22,18.38-34.92,12.56-23.89,24.12-47.71,34.69-71.45,10.57-23.74,17.54-50.16,20.91-79.26,1.84-20.52,0-35.07-5.51-43.65-6.43-9.19-14.24-11.79-23.43-7.81-11.03,5.21-19.45,14.55-25.27,28.03-7.66,16.24-13.02,34.92-16.08,56.06Z"></path><path class="cls-15" d="m1238.4,2913.82c10.72-32.31,18.76-63.71,24.12-94.19l13.78,2.53c-5.05,31.4-13.32,63.56-24.81,96.49l-13.1-4.82Zm17.23-214.81l43.19,42.73-9.19,9.65-43.19-42.73,9.19-9.65Zm20.91,66.05c1.99,1.92,2.99,4.25,2.99,7.01s-1,5.09-2.99,7.01c-1.99,1.92-4.37,2.87-7.12,2.87s-5.05-.95-6.89-2.87c-1.84-1.91-2.76-4.25-2.76-7.01s.92-5.09,2.76-7.01c1.84-1.91,4.14-2.87,6.89-2.87s5.13.96,7.12,2.87Zm17.46,243.64c-9.34,0-16.74-3.06-22.17-9.19-5.44-6.12-8.39-14.01-8.84-23.66l-.46-18.61v-137.84h13.78v137.84l.69,15.62c.76,6.59,2.68,11.95,5.74,16.08,3.06,4.14,6.81,6.2,11.26,6.2,11.49,0,23.13-8.27,34.92-24.81,4.9-6.89,10.03-15.93,15.39-27.11,4.75-10.41,9.19-21.06,13.32-31.93l13.1,4.82c-5.36,14.09-9.96,25.12-13.78,33.08-5.82,12.26-11.41,22.06-16.77,29.41-7.35,10.11-14.4,17.65-21.14,22.63-6.74,4.98-15.09,7.47-25.04,7.47Z"></path><path class="cls-15" d="m1452.52,3007.78h-13.78v-133.25c0-15.31-1.53-26.34-4.59-33.08-3.37-6.12-8.42-8.58-15.16-7.35-10.72.92-19.84,9.88-27.34,26.88-7.51,17-13.25,31.47-17.23,43.42-.92,2.45-1.76,4.75-2.53,6.89-.77,2.15-1.76,4.9-2.99,8.27-1.38,3.68-4.21,4.98-8.5,3.91-3.68-1.53-4.98-4.37-3.91-8.5,3.07-8.58,4.9-13.63,5.51-15.16,4.59-14.09,11.26-30.48,19.99-49.16,8.73-18.68,20.6-28.79,35.61-30.33,13.48-1.22,23.13,3.68,28.95,14.7,2.76,5.82,4.44,12.26,5.05,19.3.61,7.05.92,13.78.92,20.22v133.25Zm231.58-76.5c-7.97,20.22-16.39,36.38-25.27,48.48-13.78,19.15-28.49,28.87-44.11,29.18-11.18.15-19.84-4.06-25.96-12.64-5.05-7.04-7.58-16.16-7.58-27.34v-86.61c0-3.98-.38-8.73-1.15-14.24-.77-5.51-2.22-10.8-4.37-15.85-5.51-12.1-14.47-18.23-26.88-18.38-9.8-.15-19.45,2.99-28.95,9.42-9.19,6.28-17.92,15.09-26.19,26.42-9.65,13.02-18.38,28.41-26.19,46.18-3.83,8.42-7.01,16.12-9.53,23.09-2.53,6.97-4.4,12.75-5.63,17.35l-13.1-3.91c1.53-4.75,3.52-10.8,5.97-18.15,2.45-7.35,5.66-15.39,9.65-24.12,8.27-18.53,17.54-34.77,27.8-48.7,9.65-12.87,19.45-22.67,29.41-29.41,12.1-8.27,24.43-12.25,36.99-11.95,18.38.31,31.4,9.11,39.06,26.42,2.91,6.13,4.78,12.45,5.63,18.95.84,6.51,1.26,12.14,1.26,16.89v86.61c0,8.27,1.68,14.7,5.05,19.3,3.52,5.05,8.27,7.43,14.24,7.12,11.18-.31,22.36-8.19,33.54-23.66,8.27-11.33,16.08-26.42,23.43-45.26,1.84-4.9,3.68-10.03,5.51-15.39l13.1,4.37c-1.84,5.51-3.75,10.8-5.74,15.85Z"></path><path class="cls-15" d="m509.45,1909.35h-13.67v-311.95c0-21.27,1.21-41.47,3.65-60.61,3.65-21.88,9.26-41.47,16.86-58.79,7.9-17.32,18.53-28.86,31.9-34.64,16.1-6.99,29.62-2.88,40.56,12.3,7.29,11.85,9.72,29.32,7.29,52.41-3.34,30.39-10.41,57.73-21.19,82.03-10.79,24.31-22.56,48.46-35.32,72.46-4.56,9.11-9.27,18.23-14.13,27.34-4.86,9.11-9.42,18.23-13.67,27.34-2.13,4.25-2.89,5.92-2.28,5.01v187.08Zm229.24-76.79c-7.9,20.05-16.26,36.08-25.07,48.08-13.67,18.99-28.26,28.64-43.75,28.94-11.09.15-19.68-4.02-25.75-12.53-5.01-6.99-7.52-16.03-7.52-27.12v-85.91c0-3.95-.38-8.66-1.14-14.13-.76-5.47-2.2-10.71-4.33-15.72-5.47-12-14.36-18.08-26.66-18.23-9.72-.15-19.29,2.96-28.71,9.34-9.11,6.23-17.77,14.96-25.98,26.2-9.57,12.91-18.23,28.18-25.98,45.8-3.8,8.36-6.95,15.99-9.46,22.9-2.51,6.91-4.37,12.65-5.58,17.2l-12.99-3.87c1.52-4.71,3.49-10.71,5.92-18,2.43-7.29,5.62-15.27,9.57-23.93,8.2-18.38,17.39-34.48,27.57-48.31,9.57-12.76,19.29-22.48,29.17-29.17,12-8.2,24.23-12.15,36.69-11.85,18.23.31,31.14,9.04,38.74,26.2,2.88,6.08,4.75,12.34,5.58,18.8.83,6.46,1.25,12.04,1.25,16.75v85.91c0,8.2,1.67,14.58,5.01,19.14,3.49,5.01,8.2,7.37,14.13,7.06,11.09-.3,22.18-8.12,33.27-23.47,8.2-11.24,15.95-26.2,23.24-44.89,1.82-4.86,3.65-9.95,5.47-15.27l12.99,4.33c-1.82,5.47-3.72,10.71-5.7,15.72Zm-225.59-293.5c-2.43,18.23-3.65,37.68-3.65,58.33v93.43c2.73-5.77,5.7-11.54,8.89-17.32,3.19-5.77,6.3-11.54,9.34-17.32,12.45-23.7,23.93-47.24,34.41-70.64,10.48-23.39,17.24-49.68,20.28-78.84,2.13-20.36.46-34.79-5.01-43.3-6.38-8.81-14.28-11.24-23.7-7.29-10.33,4.56-18.69,13.67-25.07,27.34-7.29,16.71-12.46,35.24-15.5,55.6Z"></path><path class="cls-15" d="m730.49,1815.24c10.63-32.05,18.61-63.19,23.93-93.43l13.67,2.51c-5.01,31.14-13.22,63.04-24.61,95.71l-12.99-4.79Zm37.6-93.65v126.24c0,3.95.38,8.66,1.14,14.13.76,5.47,2.2,10.71,4.33,15.72,5.47,12,14.36,18.08,26.66,18.23,9.72.15,19.29-2.96,28.71-9.34,9.11-6.23,17.77-14.96,25.98-26.2,9.57-12.91,18.23-28.18,25.98-45.8,3.8-8.35,6.95-15.99,9.46-22.9,2.51-6.91,4.36-12.65,5.58-17.2l12.99,3.87c-1.52,4.71-3.5,10.71-5.92,18-2.43,7.29-5.62,15.27-9.57,23.93-8.2,18.38-17.4,34.49-27.57,48.31-9.57,12.76-19.29,22.48-29.17,29.17-12,8.2-24.23,12.15-36.69,11.85-18.23-.3-31.14-9.04-38.74-26.2-2.89-6.07-4.75-12.34-5.58-18.8-.84-6.46-1.25-12.04-1.25-16.75v-126.24h13.67Zm94.57-76.56l9.11,9.57-42.84,42.38-9.11-9.57,42.84-42.38Zm37.37,96.16l2.28-3.19,5.47-3.65c4.56-2.73,8.81-5.77,12.76-9.11,3.95-3.34,6.23-7.75,6.84-13.22.61-3.04-1.22-5.62-5.47-7.75-6.08-2.73-12.16-1.52-18.23,3.65l-8.66-10.94c11.24-8.81,22.33-10.48,33.27-5.01,9.42,5.47,13.67,12.61,12.76,21.42-.91,9.42-4.64,16.71-11.17,21.88-6.53,5.17-12.53,9.42-18,12.76-1.82,1.22-3.19,1.98-4.1,2.28l-3.65-1.6-4.1-7.52Zm26.43,168.17c-9.27,0-16.6-3.04-21.99-9.11-5.39-6.07-8.32-13.9-8.77-23.47l-.46-18.46v-136.72h13.67v136.72l.68,15.5c.76,6.53,2.66,11.85,5.7,15.95,3.04,4.1,6.76,6.15,11.17,6.15,11.39,0,22.94-8.2,34.64-24.61,4.86-6.84,9.95-15.8,15.27-26.89,4.71-10.33,9.11-20.89,13.22-31.67l12.99,4.79c-5.32,13.98-9.88,24.92-13.67,32.81-5.77,12.16-11.32,21.88-16.63,29.17-7.29,10.03-14.28,17.51-20.96,22.45-6.69,4.94-14.96,7.41-24.84,7.41Z"></path><path class="cls-15" d="m1228.69,1658.01c6.07-11.85,12-23.73,17.77-35.66,5.77-11.92,11.24-23.81,16.41-35.66,10.48-23.85,17.47-50.13,20.96-78.84,1.97-20.51.15-35.01-5.47-43.52l11.17-7.98c7.44,11.39,10.03,28.94,7.75,52.64-3.8,30.53-10.94,57.96-21.42,82.26-9.88,23.24-21.57,47.62-35.09,73.15-2.43,4.71-4.82,9.31-7.18,13.79-2.36,4.48-4.67,9-6.95,13.56-2.43,4.56-4.71,9.19-6.84,13.9-2.13,4.71-4.33,9.34-6.61,13.9l-35.55,69.27c-3.19,6.08-6.46,11.93-9.8,17.55-3.34,5.62-6.53,11.17-9.57,16.63l-11.17-6.84c7.44-14.13,15.72-29.32,24.84-45.57,10.03-18.38,19.56-37.06,28.6-56.06,9.04-18.99,18.42-37.83,28.14-56.51Zm-31.45,63.35v-122.37c0-25.22,1.21-45.57,3.65-61.07,2.88-21.11,8.35-40.79,16.41-59.02,7.44-17.32,18.23-28.94,32.36-34.86,16.25-7.14,29.54-3.04,39.88,12.3l-11.17,7.98c-5.92-8.96-13.67-11.62-23.24-7.98-10.94,5.32-19.29,14.66-25.07,28.03-8.05,18.23-13.3,36.84-15.72,55.83-2.28,15.35-3.42,34.94-3.42,58.79v154.72c0,12.91.3,26.13.91,39.65.91,16.26,2.58,31.3,5.01,45.12.61,7.14,4.56,18.84,11.85,35.09,6.68,16.1,20.05,23.4,40.1,21.88,11.7-.91,22.86-7.82,33.5-20.74,14.28-17.77,22.94-43.44,25.98-77.02,1.52-15.5.07-30.15-4.33-43.98-3.34-9.11-8.43-14.73-15.27-16.86-2.43-.61-4.18-.3-5.24.91l-9.8-10.03c5.01-4.25,11.09-5.62,18.23-4.1,12,3.04,20.43,11.55,25.29,25.52,4.86,15.04,6.46,31.52,4.79,49.45-3.19,36-12.91,64.26-29.17,84.77-13.37,16.41-27.8,24.99-43.3,25.75-36.77,1.97-58.72-20.96-65.85-68.82-2.73-14.43-4.56-29.77-5.47-46.03-.61-14.13-.91-27.65-.91-40.56v-32.36Zm96.39,6.38l9.8,10.03c-1.37,1.06-1.75,2.89-1.14,5.47.6,3.95,1.97,7.14,4.1,9.57,4.4,4.86,10.37,7.9,17.89,9.11,7.52,1.22,15.23,1.37,23.13.46,10.03-.91,20.05-2.96,30.08-6.15,3.04-1.06,7.59-2.51,13.67-4.33l2.73,13.9c-2.13.76-4.25,1.45-6.38,2.05-2.13.61-4.25,1.22-6.38,1.82-12,3.34-23.17,5.47-33.5,6.38-9.72.91-19.22.46-28.48-1.37-9.27-1.82-16.86-6.07-22.79-12.76-3.95-4.25-6.46-9.42-7.52-15.5-1.67-7.59-.08-13.82,4.79-18.69Z"></path><path class="cls-15" d="m1444.94,1721.59c21.27,0,39.57,9.34,54.92,28.03,14.89,18.54,22.33,40.56,22.33,66.08s-7.44,47.55-22.33,66.08c-15.04,18.38-33.35,27.57-54.92,27.57s-40.33-9.19-55.37-27.57c-14.28-17.92-21.42-39.95-21.42-66.08s7.14-48.46,21.42-66.08c15.34-18.69,33.8-28.03,55.37-28.03Zm.23,13.9c-17.17,0-31.98,7.67-44.43,23.01-12.61,15.95-18.91,35.02-18.91,57.2s6.3,41.09,18.91,56.74c12.45,15.35,27.27,23.01,44.43,23.01s31.9-7.67,44.21-23.01c12.76-15.34,19.14-34.26,19.14-56.74s-6.38-41.55-19.14-57.2c-12.3-15.34-27.04-23.01-44.21-23.01Zm-38.51-49.22c4.86-2.43,11.85-6.68,20.96-12.76,9.11-7.29,15.5-12.91,19.14-16.86l5.01-5.01,4.56,5.47c10.94,12.16,23.7,21.42,38.28,27.8l-5.47,11.85c-14.89-6.38-27.5-15.04-37.83-25.98-3.34,3.34-8.66,7.75-15.95,13.22-6.08,4.86-13.67,9.57-22.79,14.13l-5.92-11.85Zm54.69-77.7c6.38-5.47,14.13-7.59,23.24-6.38,9.42,1.52,15.19,6.23,17.32,14.13.91,4.56.83,9.11-.23,13.67-1.06,4.56-2.2,8.36-3.42,11.39-4.86,9.42-10.48,16.56-16.86,21.42l-8.2-9.57c5.47-4.56,9.72-10.18,12.76-16.86,3.04-6.68,4.1-12.15,3.19-16.41-.61-2.73-2.89-4.4-6.84-5.01-4.86-.91-8.97.31-12.3,3.65l-8.66-10.03Zm78.39,300.79c-9.27,0-16.6-3.04-21.99-9.11-5.39-6.07-8.32-13.9-8.77-23.47l-.46-18.46v-136.72h13.67v136.72l.68,15.5c.76,6.53,2.66,11.85,5.7,15.95,3.04,4.1,6.76,6.15,11.17,6.15,11.39,0,22.94-8.2,34.64-24.61,4.86-6.84,9.95-15.8,15.27-26.89,4.71-10.33,9.11-20.89,13.22-31.67l12.99,4.79c-5.32,13.98-9.88,24.92-13.67,32.81-5.78,12.16-11.32,21.88-16.63,29.17-7.29,10.03-14.28,17.51-20.96,22.45-6.69,4.94-14.96,7.41-24.84,7.41Z"></path><path class="cls-15" d="m1601.94,1815.24c10.63-32.05,18.61-63.19,23.93-93.43l13.67,2.51c-5.01,31.14-13.22,63.04-24.61,95.71l-12.99-4.79Zm114.16,73.72c-14.89,13.44-28.86,20.17-41.93,20.17-12.46.61-21.95-1.37-28.48-5.92-6.53-4.56-11.47-10.4-14.81-17.55-3.34-7.14-5.01-18.61-5.01-34.41v-129.66h13.67v129.66c0,13.98,1.56,23.62,4.67,28.94,3.11,5.32,7.25,9.19,12.42,11.62,5.16,2.43,9.95,3.65,14.36,3.65,16.71,0,34.33-12.61,52.87-37.83,14.73-22.79,30.15-51.04,46.26-84.77v-51.27h7.06v69.27c-25.83,51.95-46.18,84.65-61.07,98.1Zm135.35-68.7c-7.29,18.54-16.03,35.02-26.2,49.45-10.18,14.43-20.74,28.64-31.67,42.61-2.73,3.95-7.14,9.87-13.22,17.77v103.45c0,26.13-2.28,50.89-6.84,74.29-4.56,20.36-9.11,35.39-13.67,45.12-7.9,17.01-18.54,28.56-31.9,34.64-16.71,7.29-30.08,3.19-40.1-12.3-7.6-10.63-10.18-28.11-7.75-52.41,2.13-19.75,7.59-42.99,16.41-69.73,7.9-24.92,19.29-49.68,34.18-74.29,11.54-19.45,23.55-37.22,36-53.32v-203.94h13.67v186.17c.3-.3.68-.76,1.14-1.37.46-.61.99-1.21,1.6-1.82,10.94-14.58,21.19-28.71,30.76-42.38,9.57-13.67,18-29.32,25.29-46.94l12.3,5.01Zm-84.77,213.29v-84.77c-8.81,12.15-16.86,24.46-24.15,36.91-14.28,24.3-25.37,48.16-33.27,71.55-8.81,27.04-13.98,49.37-15.5,66.99-2.43,20.36-.61,34.79,5.47,43.3,5.77,9.11,13.52,11.7,23.24,7.75,10.03-4.56,18.38-13.83,25.07-27.8.91-2.73,2.58-7.6,5.01-14.58,2.43-6.99,4.86-16.26,7.29-27.8,4.56-22.48,6.84-46.34,6.84-71.55Z"></path><path class="cls-15" d="m363.96,1722.5c21.57-1.21,39.34,5.78,53.32,20.96,15.5,16.71,22.33,39.35,20.51,67.91-1.22,19.14-6.15,34.71-14.81,46.71-8.66,12-17.4,21.19-26.2,27.57-22.79,16.41-48.01,24.46-75.65,24.15-28.26-.61-52.26-8.51-72.01-23.7-19.45-14.58-33.88-35.85-43.3-63.8-6.38-18.53-10.48-38.89-12.3-61.07-1.82-22.48-1.22-45.72,1.82-69.73,1.82-17.32,5.47-35.09,10.94-53.32-19.75,2.43-37.22,1.52-52.41-2.73-20.05-5.47-37.07-13.82-51.04-25.07-12.46-10.03-21.57-21.88-27.34-35.55-11.24-26.43-8.81-51.95,7.29-76.56,16.71-25.52,45.42-41.93,86.13-49.22,32.81-5.47,65.93-4.71,99.35,2.28,7.59,1.22,15.04,2.81,22.33,4.79,7.29,1.98,14.58,4.03,21.88,6.15,3.95.91,7.9,1.98,11.85,3.19,3.95,1.22,7.9,2.28,11.85,3.19,1.21,0,2.28.15,3.19.46.91.31,1.97.76,3.19,1.37,10.33-6.38,23.7-12.91,40.1-19.6,9.11-3.34,19.29-5.01,30.53-5.01,6.07,0,11.24.76,15.5,2.28,6.38,2.43,10.18,6.38,11.39,11.85,1.52,11.55-2.73,20.05-12.76,25.52-5.77,3.04-13.98,5.01-24.61,5.92-10.33.61-20.43.23-30.31-1.14-9.88-1.37-19.22-3.11-28.03-5.24-30.99,17.93-56.82,39.96-77.48,66.08-16.41,20.05-29.62,42.99-39.65,68.82,8.51-2.13,17.32-4.71,26.43-7.75,28.56-10.33,58.48-24.76,89.78-43.3l7.29,12.3c-32.81,19.45-63.65,34.18-92.51,44.21-13.98,4.56-26.13,7.9-36.46,10.03-5.77,17.62-10.03,36.91-12.76,57.88-2.73,23.4-3.19,45.57-1.37,66.54,1.52,20.96,5.32,40.41,11.39,58.33,8.81,24.92,21.72,43.9,38.74,56.97,17.32,13.37,38.58,20.21,63.8,20.51,24.61,0,46.79-7.14,66.54-21.42,7.59-5.47,15.19-13.37,22.79-23.7,7.59-10.33,11.85-23.7,12.76-40.1,1.52-24.61-4.1-43.75-16.86-57.42-11.24-11.85-25.37-17.47-42.38-16.86-21.27,1.22-36.61,8.51-46.03,21.88-10.03,13.37-14.13,31.9-12.3,55.6l-13.67.91c-2.13-27.04,2.73-48.61,14.58-64.71,12.15-17.32,31.14-26.43,56.97-27.34Zm-206.45-100.72c15.5,4.25,33.42,4.71,53.78,1.37,10.63-30.08,25.52-56.97,44.66-80.67,19.44-24.3,42.53-44.97,69.27-61.98-3.65-1.21-9.11-2.73-16.41-4.56-6.99-2.13-14.21-4.1-21.65-5.92-7.44-1.82-14.66-3.49-21.65-5.01-32.21-6.38-63.65-6.99-94.34-1.82-12.76,2.13-26.51,6.38-41.24,12.76-14.74,6.38-26.51,16.41-35.32,30.08-13.67,20.36-15.8,41.47-6.38,63.35,5.16,11.85,13.06,21.88,23.7,30.08,12.15,9.72,27.34,17.17,45.57,22.33Zm230.15-157.69c-8.2,3.04-16.1,6.53-23.7,10.48,13.67,2.13,26.43,3.04,38.28,2.73,7.59-.3,13.67-1.67,18.23-4.1,4.25-2.43,6.07-6.07,5.47-10.94-.91-1.52-5.17-2.28-12.76-2.28-10.03,0-18.54,1.37-25.52,4.1Zm45.12,355.93l-7.52-11.39c12.91-8.51,25.82-21.31,38.74-38.4,12.91-17.09,25.71-38.71,33.15-53.75l12.3,6.15c-7.75,15.5-21,37.84-34.52,55.92-13.52,18.08-27.57,31.9-42.16,41.47Z"></path><path class="cls-15" d="m806.31,1267.42v-2.02h3.02v2.18c0,3.74,2.6,6.05,7.94,6.05s8.44-1.97,8.44-6.22c0-3.32-1.39-5.17-4.92-6.09l-6.64-1.72c-4.33-1.13-7.18-2.98-7.18-8.15s3.78-8.91,10.92-8.91,10.59,3.44,10.59,9.07v2.94h-3.02v-2.81c0-4.62-3.07-6.51-7.56-6.51-5.12,0-7.81,2.14-7.81,6.01,0,3.61,1.76,4.7,5.54,5.71l5.75,1.55c5.12,1.39,7.44,3.74,7.44,8.65,0,6.09-4.33,9.24-11.47,9.24-9.12,0-11.05-4.7-11.05-8.99Z"></path><path class="cls-15" d="m866.71,1262.25v13.61h-2.94v-13.27c0-4.33-2.14-5.71-4.75-5.71-3.82,0-6.18,2.69-6.18,5.63v13.36h-2.94v-13.27c0-4.33-1.85-5.71-4.83-5.71-3.61,0-6.13,2.69-6.13,5.63v13.36h-2.94v-21h2.6l.29,3.49c1.01-2.02,3.07-4.03,6.93-4.03,2.94,0,5.38,1.39,6.43,4.28,1.22-2.39,3.57-4.28,7.14-4.28,4.29,0,7.31,2.52,7.31,7.94Z"></path><path class="cls-15" d="m872.8,1270.06c0-3.95,2.23-6.09,7.86-6.09h6.34v-1.72c0-2.98-1.26-5.42-5.46-5.42-3.95,0-5.33,1.51-5.33,4.12v.88h-2.98v-.84c0-5,4.2-6.68,8.32-6.68,5.8,0,8.4,2.86,8.4,8.44v13.11h-2.06l-.55-2.98h-.08c-1.26,1.89-3.7,3.53-7.35,3.53-4.92,0-7.1-2.31-7.1-6.34Zm14.2-1.85v-1.76h-7.01c-2.65,0-4.03.92-4.03,3.61,0,2.35,1.26,3.86,4.49,3.86,4.16,0,6.55-2.14,6.55-5.71Z"></path><path class="cls-15" d="m897.29,1243.09h2.94v32.77h-2.94v-32.77Z"></path><path class="cls-15" d="m907.57,1243.09h2.94v32.77h-2.94v-32.77Z"></path><path class="cls-15" d="m927.53,1243.09h2.94v15.16c1.05-2.1,3.28-3.95,7.31-3.95,4.75,0,7.77,2.52,7.77,7.94v13.61h-2.94v-13.27c0-4.33-2.14-5.71-5.5-5.71-3.82,0-6.64,2.69-6.64,5.63v13.36h-2.94v-32.77Z"></path><path class="cls-15" d="m951.21,1265.36c0-6.22,3.32-11.05,10.38-11.05,6.6,0,10.25,4.83,10.25,11.05s-3.7,11.05-10.29,11.05c-7.27,0-10.33-4.83-10.33-11.05Zm17.56,0c0-5.33-2.9-8.49-7.22-8.49-4.75,0-7.27,3.15-7.27,8.49s2.56,8.49,7.27,8.49c4.33,0,7.22-3.15,7.22-8.49Z"></path><path class="cls-15" d="m977.71,1254.86h2.6l.29,3.91c1.01-2.14,3.07-4.45,6.76-4.45,1.26,0,2.18.21,3.02.55v3.15c-1.13-.5-2.1-.76-3.4-.76-3.74,0-6.34,2.81-6.34,5.75v12.85h-2.94v-21Z"></path><path class="cls-15" d="m995.02,1254.86h2.6l.29,3.49c1.01-2.14,3.28-4.03,7.35-4.03,4.75,0,7.77,2.52,7.77,7.94v13.61h-2.94v-13.27c0-4.33-2.14-5.71-5.5-5.71-3.82,0-6.64,2.69-6.64,5.63v13.36h-2.94v-21Z"></path><path class="cls-15" d="m1018.5,1269.43v-1.18h2.94v1.13c0,2.86,2.14,4.5,5.96,4.5s5.8-1.01,5.8-3.78c0-2.06-1.01-2.81-3.87-3.32l-4.62-.84c-3.02-.55-5.54-2.02-5.54-5.5,0-3.15,2.35-6.13,8.4-6.13s8.4,3.02,8.4,7.23v.88h-2.98v-.76c0-3.44-2.14-4.91-5.42-4.91-3.95,0-5.34,1.34-5.34,3.36s1.01,2.86,3.91,3.4l4.03.76c4.12.76,6.09,1.93,6.09,5.59,0,4.58-4.12,6.55-8.78,6.55-7.31,0-8.99-3.28-8.99-6.97Z"></path><path class="cls-15" d="m602.42,4113.73l-33.83,126.24c-1.06,3.95-1.94,8.66-2.65,14.13-.71,5.47-.67,10.71.12,15.72,2.25,12,9.51,18.08,21.78,18.23,9.68.15,20.08-2.96,31.21-9.34,10.78-6.23,21.78-14.96,33-26.2,13.03-12.91,25.78-28.18,38.25-45.8,6.03-8.35,11.23-15.99,15.59-22.9,4.36-6.91,7.75-12.65,10.19-17.2l11.95,3.87c-2.78,4.71-6.37,10.71-10.75,18-4.39,7.29-9.71,15.27-15.98,23.93-13.13,18.38-26.64,34.49-40.52,48.31-12.99,12.76-25.32,22.48-36.98,29.17-14.2,8.2-27.49,12.15-39.86,11.85-18.15-.3-28.72-9.04-31.72-26.2-1.26-6.07-1.44-12.34-.55-18.8.89-6.46,1.97-12.04,3.23-16.75l33.83-126.24h13.67Zm126.69,19.6l3.13-3.19,6.45-3.65c5.29-2.73,10.35-5.77,15.2-9.11,4.84-3.34,8.3-7.75,10.38-13.22,1.42-3.04.29-5.62-3.39-7.75-5.34-2.73-11.75-1.52-19.21,3.65l-5.73-10.94c13.6-8.81,25.14-10.48,34.61-5.01,7.95,5.47,10.29,12.61,7.02,21.42-3.44,9.42-9.11,16.71-17.03,21.88-7.92,5.17-15.06,9.42-21.42,12.76-2.15,1.22-3.72,1.98-4.71,2.28l-3.22-1.6-2.09-7.52Zm-18.63,168.17c-9.27,0-15.79-3.04-19.55-9.11-3.77-6.07-4.59-13.9-2.48-23.47l4.49-18.46,36.63-136.72h13.67l-36.63,136.72-3.47,15.5c-.99,6.53-.52,11.85,1.42,15.95,1.94,4.1,5.11,6.15,9.52,6.15,11.39,0,25.13-8.2,41.23-24.61,6.69-6.84,14.18-15.8,22.47-26.89,7.47-10.33,14.71-20.89,21.7-31.67l11.71,4.79c-9.07,13.98-16.55,24.92-22.46,32.81-9.03,12.16-17.18,21.88-24.45,29.17-9.98,10.03-18.97,17.51-26.98,22.45-8.01,4.94-16.95,7.41-26.82,7.41Z"></path><path class="cls-15" d="m940.83,4154.5c-1.81,1.06-3,2.96-3.58,5.7-.86,5.47.09,8.74,2.84,9.8,10.67,4.41,24.1,2.89,40.3-4.56,16.2-7.44,31.55-15.27,46.05-23.47l1.09-.68,4.63,11.62-1.09.68c-16.11,9.11-33.27,17.7-51.45,25.75-18.19,8.05-34.1,9.19-47.74,3.42-7.74-2.88-10.63-9.95-8.68-21.19,1.41-8.66,5.98-14.96,13.73-18.91l3.89,11.85Z"></path><path class="cls-15" d="m952.27,4147.45c3.48-1.67,7.26-3.72,11.33-6.15,4.07-2.43,9.18-6.07,15.35-10.94,6.16-4.86,10.08-10.71,11.77-17.55,2.3-9.72-.08-16.71-7.14-20.96-8.87-5.47-20.21-3.95-34.03,4.56l5.73,10.94c7.76-5.16,14.01-6.38,18.75-3.65,3.22,2.73,4.31,5.47,3.27,8.2-3.03,7.9-12.59,15.8-28.68,23.7l-2.65,1.37c-1.13,5.92.97,9.42,6.31,10.48Z"></path><path class="cls-15" d="m1127.91,4137.43l-13.09,8.89c-3.72-6.53-8.11-11.39-13.18-14.58-6.58-3.8-14.8-5.16-24.65-4.1-9.36.91-18.98,4.79-28.86,11.62-12.39,8.81-23.02,20.13-31.88,33.95-8.64,13.52-14.3,27.27-16.98,41.24-3.05,15.35-2.72,28.86.98,40.56,3.53,10.63,8.77,18.84,15.74,24.61,7.6,6.23,17.32,9.04,29.19,8.43,10.91-.46,20.94-3.72,30.08-9.8,9.15-6.07,16.18-11.47,21.08-16.18,6.49-6.07,14.63-15.5,24.43-28.26l10.6,6.38c-10.03,13.07-18.91,23.24-26.64,30.53-20.83,19.9-41.66,30.16-62.48,30.76-14.9.61-27.2-2.81-36.9-10.25-8.65-6.84-14.91-16.63-18.78-29.4-4.43-13.52-4.91-29.01-1.44-46.49,7.06-36,26.04-64.86,56.93-86.59,12.5-8.66,24.91-13.59,37.24-14.81,12.52-1.37,23.12.46,31.8,5.47,6.84,3.95,12.45,9.95,16.82,18Z"></path><path class="cls-15" d="m1527.42,4207.84c7.08-26.43,20.12-48.46,39.13-66.08,20.35-18.69,41.31-28.03,62.88-28.03h.46c21.57,0,37.52,9.34,47.86,28.03,9.56,17.62,10.8,39.65,3.71,66.08-7,26.13-20.05,48.16-39.13,66.08-19.96,18.38-40.88,27.57-62.76,27.57h-.46c-21.88,0-37.87-9.19-47.98-27.57-9.48-17.92-10.71-39.95-3.71-66.08Zm98.51-80.21c-17.17,0-34.04,7.67-50.6,23.01-16.89,15.95-28.3,35.02-34.24,57.2-5.94,22.18-4.71,41.09,3.71,56.74,8.34,15.35,21.1,23.01,38.27,23.01s33.96-7.67,50.37-23.01c16.87-15.34,28.32-34.26,34.34-56.74,6.02-22.48,4.75-41.55-3.82-57.2-8.19-15.34-20.87-23.01-38.04-23.01Zm37.14,16.18l4.92,11.39c-1.81,1.06-2.98,3.19-3.53,6.38-1.24,5.17-.78,8.28,1.37,9.34,8.9,3.65,20.8-.53,35.72-12.53,14.91-12,27.71-26.58,38.38-43.75l10.88,6.15c-11,18.38-25.83,34.86-44.47,49.45-18.64,14.58-34.83,19.14-48.55,13.67-6.23-2.28-8.73-8.81-7.51-19.6,1.34-8.96,5.6-15.8,12.79-20.51Zm105.12-83.63c1.37,1.67,1.68,3.95.9,6.84-.77,2.89-2.28,5.09-4.51,6.61-2.51,1.98-5.05,2.96-7.63,2.96s-4.6-.99-6.04-2.96c-1.33-1.82-1.66-4.02-.96-6.61.73-2.73,2.25-5.01,4.57-6.84,2.5-1.97,5.04-2.96,7.63-2.96s4.59.99,6.04,2.96Zm-47.34,241.31c-9.27,0-15.79-3.04-19.55-9.11-3.77-6.07-4.59-13.9-2.48-23.47l4.49-18.46,36.63-136.72h13.67l-36.63,136.72-3.47,15.5c-.99,6.53-.52,11.85,1.42,15.95,1.94,4.1,5.11,6.15,9.52,6.15,11.39,0,25.13-8.2,41.23-24.61,6.69-6.84,14.18-15.8,22.47-26.89,7.47-10.33,14.71-20.89,21.7-31.67l11.71,4.79c-9.07,13.98-16.55,24.92-22.46,32.81-9.03,12.16-17.18,21.88-24.45,29.17-9.98,10.03-18.97,17.51-26.98,22.45-8.01,4.94-16.95,7.41-26.82,7.41Z"></path><path class="cls-15" d="m903.02,4114.41c22.33,0,38.68,9.27,49.06,27.8,10.26,18.38,11.98,40.33,5.14,65.85-6.84,25.52-20.3,47.4-40.37,65.63-20.31,18.54-41.63,27.8-63.96,27.8s-38.53-9.26-49.06-27.8c-10.31-18.23-12.04-40.1-5.2-65.63,6.84-25.52,20.31-47.47,40.43-65.85,20.46-18.53,41.78-27.8,63.96-27.8Zm-3.66,13.67c-17.77,0-35.1,7.67-51.97,23.01-17.22,15.5-28.84,34.49-34.86,56.97s-4.56,41.4,4.39,56.74c8.65,15.35,21.86,23.01,39.63,23.01s35.24-7.67,51.97-23.01c17.17-15.34,28.78-34.26,34.8-56.74s4.58-41.47-4.33-56.97c-8.5-15.34-21.71-23.01-39.63-23.01Zm-56.39,210.78c2.43,0,4.28.76,5.54,2.28,1.57,1.52,1.95,3.8,1.13,6.84-.65,2.43-2.13,4.56-4.44,6.38-2.31,1.82-4.68,2.73-7.11,2.73-2.73,0-4.85-.91-6.33-2.73-1.15-1.37-1.42-3.5-.8-6.38.84-2.59,2.32-4.71,4.44-6.38,2.31-1.82,4.83-2.73,7.57-2.73Z"></path><path class="cls-15" d="m1594.47,4080.91c5.51-2.43,13.64-6.68,24.38-12.76,11.07-7.29,18.95-12.91,23.66-16.86l6.36-5.01,3.09,5.47c7.68,12.16,17.96,21.42,30.83,27.8l-8.64,11.85c-13.18-6.38-23.47-15.04-30.87-25.98-4.24,3.34-10.73,7.75-19.49,13.22-7.38,4.86-16.24,9.57-26.57,14.13l-2.75-11.85Zm68.32-83.17l31.48,42.38-11.68,9.57-31.48-42.38,11.68-9.57Z"></path><path class="cls-15" d="m566.27,3979.06c.92,37.37-5.79,78.31-20.15,122.82-10.27,30.39-24.08,58.41-41.44,84.08-17.21,25.67-36.84,47.62-58.89,65.85-22.44,18.54-45.56,31.98-69.37,40.33-25.04,8.97-48.58,11.77-70.62,8.43-11.6-1.52-22.31-3.91-32.14-7.18-9.83-3.27-18.79-6.57-26.85-9.91-21.27,10.79-43.89,16.94-67.84,18.46-12.02,1.21-23.33-.83-33.9-6.15-9.88-3.95-14.93-8.77-15.15-14.47-.22-5.7.36-9.99,1.74-12.87,5.41-11.7,16.8-19.06,34.18-22.1,12.76-2.28,24.79-1.52,36.08,2.28,5.5,2.13,11.17,4.37,17,6.72,5.82,2.36,11.6,4.75,17.33,7.18,2.34.91,4.6,1.82,6.79,2.73,2.18.91,4.22,1.82,6.1,2.73,1.38-.61,2.99-1.52,4.83-2.73,10.33-6.23,19.32-12.87,26.99-19.94,7.66-7.06,13.8-13.25,18.42-18.57,13.65-15.8,24.33-34.67,32.04-56.63,7.7-21.95,15.2-46.52,22.49-73.72l2.5-9.34c6.19-25.37,13.54-51.95,22.05-79.75,8.51-27.8,20.43-55.83,35.75-84.08,9.52-18.53,22.16-34.79,37.9-48.76,6.41-5.77,14.9-12.23,25.47-19.37-18.15-6.53-38.1-9.49-59.83-8.89-39.91,1.52-73.98,8.51-102.23,20.96-18.19,8.36-33.76,18.54-46.69,30.53-15.06,13.67-27.25,30.53-36.57,50.59-15.01,32.21-14.45,59.32,1.67,81.35,6.91,10.48,16.35,16.94,28.31,19.37,12.4,3.04,26.52,1.37,42.36-5.01,22-8.96,38.59-25.82,49.79-50.59,11.34-24.76,11.88-45.5,1.63-62.21l13.11-9.8c12.4,20.05,11.88,44.97-1.57,74.74-13.41,29.62-33.58,49.9-60.51,60.84-38.35,16.1-66.95,10.33-85.82-17.32-18.56-25.98-19.27-57.34-2.13-94.11,19.77-41.47,50.91-71.78,93.41-90.92,30.4-13.67,66.61-21.27,108.65-22.79,27.28-.91,51.38,3.57,72.28,13.44,8.28-4.25,17.05-8.66,26.33-13.22l4.59,10.94c-6.36,3.34-12.25,6.61-17.66,9.8,20,13.22,35.16,32.05,45.47,56.51,8.55,20.81,13.26,44.06,14.13,69.73Zm-383.91,308.54c17.11-.91,33.18-4.48,48.22-10.71-.61,0-1.12-.07-1.53-.23-.42-.15-.89-.38-1.41-.68-14.59-6.23-25.92-10.71-34-13.44-8.63-3.49-18.42-4.1-29.36-1.82-3.05.61-6.75,1.67-11.11,3.19-4.36,1.52-7.16,4.03-8.4,7.52-1.34,2.73-.7,5.17,1.92,7.29,2.62,2.13,4.91,3.5,6.88,4.1,9.08,4.1,18.68,5.7,28.8,4.79Zm239.43-180.93l-3.79,14.13h-126.24l3.79-14.13h126.24Zm110.22-5.7c14.02-42.69,20.63-82.11,19.84-118.26-1.04-24.46-5.46-46.26-13.24-65.4-10.45-25.07-26.35-43.67-47.7-55.83-11.64,7.14-21.72,14.43-30.24,21.88-13.97,12.46-25.34,26.81-34.1,43.07-14.4,27.65-25.79,55.14-34.18,82.49-8.39,27.34-15.71,53.25-21.96,77.7l-2.5,9.34c-7.69,28.71-15.62,54.61-23.78,77.7-8.16,23.09-19.65,43.3-34.47,60.61-4.73,5.17-10.91,11.39-18.56,18.69-7.65,7.29-16.61,14.21-26.86,20.74,16.33,6.53,32.03,10.86,47.11,12.99,20,3.04,41.22.38,63.66-7.98,21.37-7.75,42.27-19.97,62.7-36.69,20.89-17.32,39.47-37.9,55.74-61.75,16.15-24,29.01-50.43,38.57-79.3Zm-48.01,110.05l-3.2-13.12c17.03-7.45,35.82-19.49,56.38-36.11,20.55-16.62,37.82-32.49,51.81-47.61l10.36,8.13c-14.49,15.57-32.53,32.15-54.13,49.75-21.6,17.6-42.01,30.58-61.22,38.96Z"></path><path class="cls-15" d="m1377.09,4115.02c-2.12,14.7-7.46,30.68-16.03,47.95-6.26,13.18-15.7,29.77-28.34,49.77-11.27,17.73-23.15,34.93-35.64,51.59-14.04,18.49-24.39,31.36-31.03,38.64l-10.17-6.14c8-8.94,18.35-21.82,31.03-38.64,12.38-16.82,23.82-33.48,34.31-50,12.12-19.24,21.34-35.53,27.64-48.86,3.43-7.73,6.53-15.34,9.3-22.84,2.77-7.5,4.35-15.11,4.76-22.84-.05-3.79-1.12-7.12-3.23-10-.67-.91-1.96-2.16-3.88-3.75-1.92-1.59-3.75-1.7-5.48-.34l-7.26-10.23c6.16-3.79,11.63-4.81,16.39-3.07,4.76,1.74,8.76,4.2,12,7.39,3.1,4.24,4.99,9.09,5.65,14.55.22,2.58.21,4.85,0,6.82Zm9.07,13.64c-9.55,0-17.95-.3-25.21-.91-8.89-.76-15.84-2.8-20.86-6.14-5.43-3.48-7.85-8.03-7.26-13.64.41-8.33,3.82-14.55,10.22-18.64l7.26,10.23c-3.8,2.88-3.64,6.21.5,10,1.3,1.36,3.36,2.43,6.19,3.18,2.94.91,6.24,1.44,9.91,1.59,3.67.15,7.1.23,10.28.23,4.31.31,8.7.45,13.17.45h13.52c4.85,0,9.42.45,13.73,1.36,13.48,2.27,23.91,8.03,31.28,17.27,5.17,7.27,7.54,15.68,7.1,25.23-.51,9.24-2.1,18.86-4.78,28.86-2.8,10.45-5.58,20.83-8.34,31.14s-5.54,20.68-8.34,31.14c-1.95,7.27-3.24,12.65-3.87,16.14-1.27,5.31-.95,9.77.95,13.41,1.55,4.4,4.8,6.97,9.75,7.73,8.15,1.82,16.51-.83,25.09-7.95,8-6.67,16.35-14.92,25.05-24.77,4.83-5.6,9.42-11.4,13.75-17.39,4.33-5.98,8.67-12.01,13.02-18.07l9.56-13.64,10.81,5.45-8.99,13.18c-4.58,6.36-9.18,12.77-13.78,19.2-4.61,6.44-9.44,12.61-14.51,18.52-6.54,7.43-15.87,16.52-27.99,27.27-11.47,10-24.07,13.79-37.82,11.36-9.3-.91-15.21-5.45-17.71-13.64-2.22-5.3-2.66-11.29-1.33-17.95,1.29-6.51,2.75-12.8,4.37-18.86,2.8-10.45,5.58-20.83,8.34-31.14,2.76-10.3,5.54-20.68,8.34-31.14,2.31-8.64,3.71-16.67,4.18-24.09.44-7.88-1.26-14.55-5.1-20-5.32-7.27-13.65-11.82-24.98-13.64-5.06-.91-13.58-1.36-25.54-1.36Z"></path><path class="cls-16" d="m475.45,335.31l.23.23,6.15,4.1c-.61,1.22-2.89,3.76-6.84,7.63-3.95,3.87-8.89,7.1-14.81,9.68-10.48,4.25-21.84,5.66-34.07,4.22-12.23-1.44-23.13-3.23-32.7-5.35-7.44-1.37-15.61-2.77-24.5-4.22-8.89-1.44-18.5-2.01-28.83-1.71-18.54.46-34.33,6.76-47.4,18.91-13.07,12.16-19.67,26.81-19.82,43.98,0,5.62.61,10.63,1.82,15.04,3.04,12.91,10.18,22.48,21.42,28.71,11.24,6.23,22.71,9.5,34.41,9.8,16.71.61,31.86-3.61,45.46-12.65,13.59-9.04,21.84-17.51,24.72-25.41l12.99,5.24c-4.41,11.55-14.78,22.41-31.1,32.59-16.33,10.18-33.84,14.96-52.52,14.36-15.95-.61-30-4.86-42.16-12.76-13.98-8.96-22.79-21.11-26.43-36.46-1.52-5.77-2.28-12-2.28-18.69.15-20.81,8.01-38.66,23.58-53.55,15.57-14.89,34.6-22.63,57.08-23.24,10.48-.15,20.39.46,29.74,1.82,9.34,1.37,18.19,2.89,26.55,4.56,12.3,2.59,25.75,4.33,40.33,5.24,13.06.76,23.47-3.27,31.22-12.08h7.75Zm-27.12,204.06c-1.98-48.08-2.96-81.46-2.96-100.15-.15-15.04.91-32.09,3.19-51.16,2.28-19.06,9.04-37.18,20.28-54.35l13.67,5.47c-9.88,13.98-16.29,29.7-19.25,47.17-2.96,17.47-4.37,35.09-4.22,52.87.15,18.23,1.21,51.58,3.19,100.03,1.97,48.46,3.19,79.75,3.65,93.88.46,14.13.76,28.26.91,42.38.15,36.31-10.03,66.69-30.53,91.15-19.75,23.55-42.84,35.63-69.27,36.23-32.81.76-58.11-6.76-75.88-22.56-18.23-15.64-28.63-38.13-31.22-67.45-1.82-28.86,6.61-53.7,25.29-74.51,15.19-17.01,36.15-25.82,62.89-26.43,20.36-.46,36.61,5.7,48.76,18.46,16.1,17.02,22.94,42.92,20.51,77.7l-13.67-1.14c1.97-30.53-3.65-52.87-16.86-66.99-9.42-9.72-22.26-14.51-38.51-14.36-22.64.61-40.26,7.98-52.87,22.1-16.26,17.62-23.62,38.97-22.1,64.03,2.58,25.37,11.54,44.74,26.89,58.11,14.89,13.52,37.06,19.98,66.54,19.37,20.96-.46,40.64-10.9,59.02-31.33,18.38-20.43,27.49-47.89,27.34-82.37-.15-14.13-.5-28.33-1.03-42.61-.53-14.28-1.79-45.46-3.76-93.54Zm-15.04,44.09c-3.19-3.49-5.09-6.99-5.7-10.48-1.22-4.71-.15-9.11,3.19-13.22,3.49-4.25,9.49-7.52,18-9.8,7.14-1.82,15.27-2.81,24.38-2.96,17.92.31,32.96,3.87,45.12,10.71,7.59-6.07,12.23-11.92,13.9-17.55,2.13-6.68,3.08-15.11,2.85-25.29-.23-10.18-.8-29.09-1.71-56.74-.91-27.65.6-48.99,4.56-64.03,4.86-18.08,14.73-32.59,29.62-43.52,14.43-10.18,30.53-15.27,48.31-15.27,20.05.31,35.7,6.23,46.94,17.77,7.9,8.51,11.62,18.38,11.17,29.62-1.06,23.4-9.34,41.47-24.84,54.23l-8.89-10.48c5.16-4.25,9.65-10.67,13.44-19.25,3.79-8.58,5.92-16.98,6.38-25.18.46-7.29-1.98-13.75-7.29-19.37-8.36-8.66-20.66-13.14-36.91-13.44-15.35,0-28.71,4.25-40.1,12.76-12.46,8.97-20.59,20.89-24.38,35.78-3.65,13.83-5.01,34.41-4.1,61.75.91,27.34,1.44,46.34,1.6,56.97.15,10.63-.99,19.9-3.42,27.8-2.43,7.75-7.67,15.04-15.72,21.88.76.61,1.74,1.52,2.96,2.73,11.85,12.76,18.61,30,20.28,51.73.46,6.23.6,17.09.46,32.59-.15,15.5.46,28.55.46,39.19,0,70.12,31.91,98.44,65.53,98.44,43.23,0,74.88-65.7,86-88.64l12.99,4.56c-19.99,39.52-50.51,97.98-96.16,97.98-14.13,0-26.66-3.57-37.6-10.25-10.18-5.77-18.76-14.51-25.75-26.2-7.14-11.85-11.93-24.68-14.36-38.51-2.58-13.52-4.1-25.6-4.56-36.23-.31-11.39-.38-24.76-.23-40.1.15-15.34,0-25.98-.46-31.9-1.67-21.11-8.66-36.76-20.96-46.94-12.3,7.6-25.07,12.46-38.28,14.58-7.9,1.06-13.44,1.63-16.63,1.71-3.19.08-7.44-.19-12.76-.8-8.36-.91-14.13-3.11-17.32-6.61Zm44.66-7.98c8.66-1.37,17.47-4.4,26.43-9.11-8.66-3.65-19.07-5.47-31.22-5.47-2.43,0-5.74.11-9.91.34-4.18.23-8.77,1.18-13.79,2.85-4.1,1.52-6.76,2.96-7.98,4.33-.61.76-.76,1.37-.46,1.82.61,3.04,3.57,4.94,8.89,5.7,6.68,1.22,11.77,1.63,15.27,1.25,3.49-.38,7.75-.95,12.76-1.71Z"></path><path class="cls-16" d="m363.96,1722.5c21.57-1.21,39.34,5.78,53.32,20.96,15.5,16.71,22.33,39.35,20.51,67.91-1.22,19.14-6.15,34.71-14.81,46.71-8.66,12-17.4,21.19-26.2,27.57-22.79,16.41-48.01,24.46-75.65,24.15-28.26-.61-52.26-8.51-72.01-23.7-19.45-14.58-33.88-35.85-43.3-63.8-6.38-18.53-10.48-38.89-12.3-61.07-1.82-22.48-1.22-45.72,1.82-69.73,1.82-17.32,5.47-35.09,10.94-53.32-19.75,2.43-37.22,1.52-52.41-2.73-20.05-5.47-37.07-13.82-51.04-25.07-12.46-10.03-21.57-21.88-27.34-35.55-11.24-26.43-8.81-51.95,7.29-76.56,16.71-25.52,45.42-41.93,86.13-49.22,32.81-5.47,65.93-4.71,99.35,2.28,7.59,1.22,15.04,2.81,22.33,4.79,7.29,1.98,14.58,4.03,21.88,6.15,3.95.91,7.9,1.98,11.85,3.19,3.95,1.22,7.9,2.28,11.85,3.19,1.21,0,2.28.15,3.19.46.91.31,1.97.76,3.19,1.37,10.33-6.38,23.7-12.91,40.1-19.6,9.11-3.34,19.29-5.01,30.53-5.01,6.07,0,11.24.76,15.5,2.28,6.38,2.43,10.18,6.38,11.39,11.85,1.52,11.55-2.73,20.05-12.76,25.52-5.77,3.04-13.98,5.01-24.61,5.92-10.33.61-20.43.23-30.31-1.14-9.88-1.37-19.22-3.11-28.03-5.24-30.99,17.93-56.82,39.96-77.48,66.08-16.41,20.05-29.62,42.99-39.65,68.82,8.51-2.13,17.32-4.71,26.43-7.75,28.56-10.33,58.48-24.76,89.78-43.3l7.29,12.3c-32.81,19.45-63.65,34.18-92.51,44.21-13.98,4.56-26.13,7.9-36.46,10.03-5.77,17.62-10.03,36.91-12.76,57.88-2.73,23.4-3.19,45.57-1.37,66.54,1.52,20.96,5.32,40.41,11.39,58.33,8.81,24.92,21.72,43.9,38.74,56.97,17.32,13.37,38.58,20.21,63.8,20.51,24.61,0,46.79-7.14,66.54-21.42,7.59-5.47,15.19-13.37,22.79-23.7,7.59-10.33,11.85-23.7,12.76-40.1,1.52-24.61-4.1-43.75-16.86-57.42-11.24-11.85-25.37-17.47-42.38-16.86-21.27,1.22-36.61,8.51-46.03,21.88-10.03,13.37-14.13,31.9-12.3,55.6l-13.67.91c-2.13-27.04,2.73-48.61,14.58-64.71,12.15-17.32,31.14-26.43,56.97-27.34Zm-206.45-100.72c15.5,4.25,33.42,4.71,53.78,1.37,10.63-30.08,25.52-56.97,44.66-80.67,19.44-24.3,42.53-44.97,69.27-61.98-3.65-1.21-9.11-2.73-16.41-4.56-6.99-2.13-14.21-4.1-21.65-5.92-7.44-1.82-14.66-3.49-21.65-5.01-32.21-6.38-63.65-6.99-94.34-1.82-12.76,2.13-26.51,6.38-41.24,12.76-14.74,6.38-26.51,16.41-35.32,30.08-13.67,20.36-15.8,41.47-6.38,63.35,5.16,11.85,13.06,21.88,23.7,30.08,12.15,9.72,27.34,17.17,45.57,22.33Zm230.15-157.69c-8.2,3.04-16.1,6.53-23.7,10.48,13.67,2.13,26.43,3.04,38.28,2.73,7.59-.3,13.67-1.67,18.23-4.1,4.25-2.43,6.07-6.07,5.47-10.94-.91-1.52-5.17-2.28-12.76-2.28-10.03,0-18.54,1.37-25.52,4.1Z"></path><g class="cls-13"><path class="cls-18" d="m1452.52,3007.78h-13.78v-133.25c0-15.31-1.53-26.34-4.59-33.08-3.37-6.12-8.42-8.58-15.16-7.35-10.72.92-19.84,9.88-27.34,26.88-7.51,17-13.25,31.47-17.23,43.42-.92,2.45-1.76,4.75-2.53,6.89-.77,2.15-1.76,4.9-2.99,8.27-1.38,3.68-4.21,4.98-8.5,3.91-3.68-1.53-4.98-4.37-3.91-8.5,3.07-8.58,4.9-13.63,5.51-15.16,4.59-14.09,11.26-30.48,19.99-49.16,8.73-18.68,20.6-28.79,35.61-30.33,13.48-1.22,23.13,3.68,28.95,14.7,2.76,5.82,4.44,12.26,5.05,19.3.61,7.05.92,13.78.92,20.22v133.25Zm231.58-76.5c-7.97,20.22-16.39,36.38-25.27,48.48-13.78,19.15-28.49,28.87-44.11,29.18-11.18.15-19.84-4.06-25.96-12.64-5.05-7.04-7.58-16.16-7.58-27.34v-86.61c0-3.98-.38-8.73-1.15-14.24-.77-5.51-2.22-10.8-4.37-15.85-5.51-12.1-14.47-18.23-26.88-18.38-9.8-.15-19.45,2.99-28.95,9.42-9.19,6.28-17.92,15.09-26.19,26.42-9.65,13.02-18.38,28.41-26.19,46.18-3.83,8.42-7.01,16.12-9.53,23.09-2.53,6.97-4.4,12.75-5.63,17.35l-13.1-3.91c1.53-4.75,3.52-10.8,5.97-18.15,2.45-7.35,5.66-15.39,9.65-24.12,8.27-18.53,17.54-34.77,27.8-48.7,9.65-12.87,19.45-22.67,29.41-29.41,12.1-8.27,24.43-12.25,36.99-11.95,18.38.31,31.4,9.11,39.06,26.42,2.91,6.13,4.78,12.45,5.63,18.95.84,6.51,1.26,12.14,1.26,16.89v86.61c0,8.27,1.68,14.7,5.05,19.3,3.52,5.05,8.27,7.43,14.24,7.12,11.18-.31,22.36-8.19,33.54-23.66,8.27-11.33,16.08-26.42,23.43-45.26,1.84-4.9,3.68-10.03,5.51-15.39l13.1,4.37c-1.84,5.51-3.75,10.8-5.74,15.85Z"></path></g><g class="cls-19"><path class="cls-18" d="m730.49,1815.24c10.63-32.05,18.61-63.19,23.93-93.43l13.67,2.51c-5.01,31.14-13.22,63.04-24.61,95.71l-12.99-4.79Zm37.6-93.65v126.24c0,3.95.38,8.66,1.14,14.13.76,5.47,2.2,10.71,4.33,15.72,5.47,12,14.36,18.08,26.66,18.23,9.72.15,19.29-2.96,28.71-9.34,9.11-6.23,17.77-14.96,25.98-26.2,9.57-12.91,18.23-28.18,25.98-45.8,3.8-8.35,6.95-15.99,9.46-22.9,2.51-6.91,4.36-12.65,5.58-17.2l12.99,3.87c-1.52,4.71-3.5,10.71-5.92,18-2.43,7.29-5.62,15.27-9.57,23.93-8.2,18.38-17.4,34.49-27.57,48.31-9.57,12.76-19.29,22.48-29.17,29.17-12,8.2-24.23,12.15-36.69,11.85-18.23-.3-31.14-9.04-38.74-26.2-2.89-6.07-4.75-12.34-5.58-18.8-.84-6.46-1.25-12.04-1.25-16.75v-126.24h13.67Zm94.57-76.56l9.11,9.57-42.84,42.38-9.11-9.57,42.84-42.38Zm37.37,96.16l2.28-3.19,5.47-3.65c4.56-2.73,8.81-5.77,12.76-9.11,3.95-3.34,6.23-7.75,6.84-13.22.61-3.04-1.22-5.62-5.47-7.75-6.08-2.73-12.16-1.52-18.23,3.65l-8.66-10.94c11.24-8.81,22.33-10.48,33.27-5.01,9.42,5.47,13.67,12.61,12.76,21.42-.91,9.42-4.64,16.71-11.17,21.88-6.53,5.17-12.53,9.42-18,12.76-1.82,1.22-3.19,1.98-4.1,2.28l-3.65-1.6-4.1-7.52Zm26.43,168.17c-9.27,0-16.6-3.04-21.99-9.11-5.39-6.07-8.32-13.9-8.77-23.47l-.46-18.46v-136.72h13.67v136.72l.68,15.5c.76,6.53,2.66,11.85,5.7,15.95,3.04,4.1,6.76,6.15,11.17,6.15,11.39,0,22.94-8.2,34.64-24.61,4.86-6.84,9.95-15.8,15.27-26.89,4.71-10.33,9.11-20.89,13.22-31.67l12.99,4.79c-5.32,13.98-9.88,24.92-13.67,32.81-5.77,12.16-11.32,21.88-16.63,29.17-7.29,10.03-14.28,17.51-20.96,22.45-6.69,4.94-14.96,7.41-24.84,7.41Z"></path></g><g class="cls-22"><path class="cls-18" d="m1026.12,3008.24h-13.78v-155.3c-25.12,52.08-51.77,104.61-79.95,157.6v120.38c0,26.04-2.3,50.85-6.89,74.44-4.29,20.22-8.88,35.38-13.78,45.49-7.66,17.15-18.38,28.95-32.16,35.38-16.85,6.74-30.33,2.45-40.43-12.87-7.66-10.72-10.26-28.34-7.81-52.84,2.14-20.22,7.66-43.65,16.54-70.3,4.29-13.17,9.65-26.19,16.08-39.06,6.43-12.87,12.56-24.66,18.38-35.38,5.82-11.34,11.79-22.74,17.92-34.23,6.12-11.49,12.25-22.74,18.38-33.77v-39.06c-.61.92-1.15,1.69-1.61,2.3-.46.61-.84,1.23-1.15,1.84-3.37,4.59-9.8,11.57-19.3,20.91-9.5,9.34-21.9,13.86-37.22,13.55-13.78,0-25.81-3.68-36.07-11.03-10.26-7.35-18.15-15.16-23.66-23.43-11.64-16.54-17.46-36.6-17.46-60.19,0-21.75,6.58-41.66,19.76-59.73,16.23-21.14,36.6-32.01,61.11-32.62,14.39,0,25.96,3.91,34.69,11.72,8.73,7.81,14.93,14.78,18.61,20.91l2.3,4.59v-36.76h13.78v160.36c28.79-54.22,55.44-107.67,79.95-160.36v-123.14c0-22.67,1.38-43.04,4.14-61.11,3.06-21.14,8.58-40.89,16.54-59.27,7.66-17.15,18.53-28.79,32.62-34.92,16.23-7.04,29.71-2.91,40.43,12.41,7.35,11.95,9.8,29.56,7.35,52.84-3.37,30.33-10.42,57.82-21.14,82.48-10.72,24.66-22.51,49.09-35.38,73.29-11.03,19.61-20.53,37.99-28.49,55.14-.61,1.84-1.38,3.53-2.3,5.05v184.71Zm-121.3-43.65c7.96-10.41,11.95-27.72,11.95-51.92,0-20.52-4.14-38.14-12.41-52.84-3.07-4.59-7.97-10.03-14.7-16.31-6.74-6.28-15.62-9.42-26.65-9.42-20.22.61-36.91,9.65-50.08,27.11-11.64,16.24-17.46,33.39-17.46,51.46,0,20.22,5.2,37.83,15.62,52.84,4.59,6.74,11.1,13.1,19.53,19.07,8.42,5.97,18.15,8.96,29.18,8.96,10.41.31,19.37-2.83,26.88-9.42,7.5-6.58,13.55-13.1,18.15-19.53Zm13.78,166.33v-94.19c-3.98,7.35-8.04,14.85-12.18,22.51-4.14,7.66-8.2,15.31-12.18,22.97-5.51,10.41-11.49,21.9-17.92,34.46-6.43,12.56-11.64,25.27-15.62,38.14-8.88,26.65-14.09,49.16-15.62,67.54-2.45,19.91-.77,34.46,5.05,43.65,6.12,8.88,14.09,11.33,23.89,7.35,10.41-4.59,18.84-13.94,25.27-28.03.92-2.76,2.6-7.58,5.05-14.47,2.45-6.89,4.9-16.31,7.35-28.26,4.59-22.67,6.89-46.56,6.89-71.68Zm225.6-252.25c0-14.24-1.84-24.73-5.51-31.47-5.51-10.87-16.39-15.31-32.62-13.32-8.27,1.23-16.31,5.21-24.12,11.95-7.81,6.74-14.17,13.86-19.07,21.37-6.43,9.19-13.25,22.21-20.45,39.06-7.2,16.85-12.64,31.32-16.31,43.42h-13.78l9.19-27.57,4.59-12.41c8.88-21.6,17.46-38.44,25.73-50.54,5.51-8.27,12.87-16.43,22.06-24.47,9.19-8.04,19.3-12.83,30.33-14.36,22.36-3.37,37.98,3.45,46.87,20.45,4.59,9.19,6.89,21.83,6.89,37.91v78.57c0,5.36.23,10.57.69,15.62.15,5.05,1.45,9.57,3.91,13.55,3.68,5.51,8.04,8.27,13.1,8.27,11.49,0,23.13-8.12,34.92-24.35,4.9-6.89,10.03-15.93,15.39-27.11,4.75-10.41,9.19-21.06,13.32-31.93l13.1,4.82c-5.36,14.09-9.96,25.12-13.78,33.08-5.82,12.26-11.41,22.06-16.77,29.41-7.35,10.11-14.4,17.65-21.14,22.63-6.74,4.98-15.09,7.47-25.04,7.47s-18.69-5.05-24.81-15.16c-3.52-5.36-5.59-11.26-6.2-17.69-.31-4.29-.46-10.49-.46-18.61v-78.57Zm-114.41-239.85c-2.45,18.38-3.68,37.99-3.68,58.81v94.19c4.29-8.58,10.41-20.22,18.38-34.92,12.56-23.89,24.12-47.71,34.69-71.45,10.57-23.74,17.54-50.16,20.91-79.26,1.84-20.52,0-35.07-5.51-43.65-6.43-9.19-14.24-11.79-23.43-7.81-11.03,5.21-19.45,14.55-25.27,28.03-7.66,16.24-13.02,34.92-16.08,56.06Z"></path><path class="cls-18" d="m1238.4,2913.82c10.72-32.31,18.76-63.71,24.12-94.19l13.78,2.53c-5.05,31.4-13.32,63.56-24.81,96.49l-13.1-4.82Zm17.23-214.81l43.19,42.73-9.19,9.65-43.19-42.73,9.19-9.65Zm20.91,66.05c1.99,1.92,2.99,4.25,2.99,7.01s-1,5.09-2.99,7.01c-1.99,1.92-4.37,2.87-7.12,2.87s-5.05-.95-6.89-2.87c-1.84-1.91-2.76-4.25-2.76-7.01s.92-5.09,2.76-7.01c1.84-1.91,4.14-2.87,6.89-2.87s5.13.96,7.12,2.87Zm17.46,243.64c-9.34,0-16.74-3.06-22.17-9.19-5.44-6.12-8.39-14.01-8.84-23.66l-.46-18.61v-137.84h13.78v137.84l.69,15.62c.76,6.59,2.68,11.95,5.74,16.08,3.06,4.14,6.81,6.2,11.26,6.2,11.49,0,23.13-8.27,34.92-24.81,4.9-6.89,10.03-15.93,15.39-27.11,4.75-10.41,9.19-21.06,13.32-31.93l13.1,4.82c-5.36,14.09-9.96,25.12-13.78,33.08-5.82,12.26-11.41,22.06-16.77,29.41-7.35,10.11-14.4,17.65-21.14,22.63-6.74,4.98-15.09,7.47-25.04,7.47Z"></path><path class="cls-18" d="m1452.52,3007.78h-13.78v-133.25c0-15.31-1.53-26.34-4.59-33.08-3.37-6.12-8.42-8.58-15.16-7.35-10.72.92-19.84,9.88-27.34,26.88-7.51,17-13.25,31.47-17.23,43.42-.92,2.45-1.76,4.75-2.53,6.89-.77,2.15-1.76,4.9-2.99,8.27-1.38,3.68-4.21,4.98-8.5,3.91-3.68-1.53-4.98-4.37-3.91-8.5,3.07-8.58,4.9-13.63,5.51-15.16,4.59-14.09,11.26-30.48,19.99-49.16,8.73-18.68,20.6-28.79,35.61-30.33,13.48-1.22,23.13,3.68,28.95,14.7,2.76,5.82,4.44,12.26,5.05,19.3.61,7.05.92,13.78.92,20.22v133.25Zm231.58-76.5c-7.97,20.22-16.39,36.38-25.27,48.48-13.78,19.15-28.49,28.87-44.11,29.18-11.18.15-19.84-4.06-25.96-12.64-5.05-7.04-7.58-16.16-7.58-27.34v-86.61c0-3.98-.38-8.73-1.15-14.24-.77-5.51-2.22-10.8-4.37-15.85-5.51-12.1-14.47-18.23-26.88-18.38-9.8-.15-19.45,2.99-28.95,9.42-9.19,6.28-17.92,15.09-26.19,26.42-9.65,13.02-18.38,28.41-26.19,46.18-3.83,8.42-7.01,16.12-9.53,23.09-2.53,6.97-4.4,12.75-5.63,17.35l-13.1-3.91c1.53-4.75,3.52-10.8,5.97-18.15,2.45-7.35,5.66-15.39,9.65-24.12,8.27-18.53,17.54-34.77,27.8-48.7,9.65-12.87,19.45-22.67,29.41-29.41,12.1-8.27,24.43-12.25,36.99-11.95,18.38.31,31.4,9.11,39.06,26.42,2.91,6.13,4.78,12.45,5.63,18.95.84,6.51,1.26,12.14,1.26,16.89v86.61c0,8.27,1.68,14.7,5.05,19.3,3.52,5.05,8.27,7.43,14.24,7.12,11.18-.31,22.36-8.19,33.54-23.66,8.27-11.33,16.08-26.42,23.43-45.26,1.84-4.9,3.68-10.03,5.51-15.39l13.1,4.37c-1.84,5.51-3.75,10.8-5.74,15.85Z"></path></g><g class="cls-21"><path class="cls-18" d="m1601.94,1815.24c10.63-32.05,18.61-63.19,23.93-93.43l13.67,2.51c-5.01,31.14-13.22,63.04-24.61,95.71l-12.99-4.79Zm114.16,73.72c-14.89,13.44-28.86,20.17-41.93,20.17-12.46.61-21.95-1.37-28.48-5.92-6.53-4.56-11.47-10.4-14.81-17.55-3.34-7.14-5.01-18.61-5.01-34.41v-129.66h13.67v129.66c0,13.98,1.56,23.62,4.67,28.94,3.11,5.32,7.25,9.19,12.42,11.62,5.16,2.43,9.95,3.65,14.36,3.65,16.71,0,34.33-12.61,52.87-37.83,14.73-22.79,30.15-51.04,46.26-84.77v-51.27h7.06v69.27c-25.83,51.95-46.18,84.65-61.07,98.1Zm135.35-68.7c-7.29,18.54-16.03,35.02-26.2,49.45-10.18,14.43-20.74,28.64-31.67,42.61-2.73,3.95-7.14,9.87-13.22,17.77v103.45c0,26.13-2.28,50.89-6.84,74.29-4.56,20.36-9.11,35.39-13.67,45.12-7.9,17.01-18.54,28.56-31.9,34.64-16.71,7.29-30.08,3.19-40.1-12.3-7.6-10.63-10.18-28.11-7.75-52.41,2.13-19.75,7.59-42.99,16.41-69.73,7.9-24.92,19.29-49.68,34.18-74.29,11.54-19.45,23.55-37.22,36-53.32v-203.94h13.67v186.17c.3-.3.68-.76,1.14-1.37.46-.61.99-1.21,1.6-1.82,10.94-14.58,21.19-28.71,30.76-42.38,9.57-13.67,18-29.32,25.29-46.94l12.3,5.01Zm-84.77,213.29v-84.77c-8.81,12.15-16.86,24.46-24.15,36.91-14.28,24.3-25.37,48.16-33.27,71.55-8.81,27.04-13.98,49.37-15.5,66.99-2.43,20.36-.61,34.79,5.47,43.3,5.77,9.11,13.52,11.7,23.24,7.75,10.03-4.56,18.38-13.83,25.07-27.8.91-2.73,2.58-7.6,5.01-14.58,2.43-6.99,4.86-16.26,7.29-27.8,4.56-22.48,6.84-46.34,6.84-71.55Z"></path></g><g class="cls-20"><path class="cls-18" d="m1377.09,4115.02c-2.12,14.7-7.46,30.68-16.03,47.95-6.26,13.18-15.7,29.77-28.34,49.77-11.27,17.73-23.15,34.93-35.64,51.59-14.04,18.49-24.39,31.36-31.03,38.64l-10.17-6.14c8-8.94,18.35-21.82,31.03-38.64,12.38-16.82,23.82-33.48,34.31-50,12.12-19.24,21.34-35.53,27.64-48.86,3.43-7.73,6.53-15.34,9.3-22.84,2.77-7.5,4.35-15.11,4.76-22.84-.05-3.79-1.12-7.12-3.23-10-.67-.91-1.96-2.16-3.88-3.75-1.92-1.59-3.75-1.7-5.48-.34l-7.26-10.23c6.16-3.79,11.63-4.81,16.39-3.07,4.76,1.74,8.76,4.2,12,7.39,3.1,4.24,4.99,9.09,5.65,14.55.22,2.58.21,4.85,0,6.82Zm9.07,13.64c-9.55,0-17.95-.3-25.21-.91-8.89-.76-15.84-2.8-20.86-6.14-5.43-3.48-7.85-8.03-7.26-13.64.41-8.33,3.82-14.55,10.22-18.64l7.26,10.23c-3.8,2.88-3.64,6.21.5,10,1.3,1.36,3.36,2.43,6.19,3.18,2.94.91,6.24,1.44,9.91,1.59,3.67.15,7.1.23,10.28.23,4.31.31,8.7.45,13.17.45h13.52c4.85,0,9.42.45,13.73,1.36,13.48,2.27,23.91,8.03,31.28,17.27,5.17,7.27,7.54,15.68,7.1,25.23-.51,9.24-2.1,18.86-4.78,28.86-2.8,10.45-5.58,20.83-8.34,31.14s-5.54,20.68-8.34,31.14c-1.95,7.27-3.24,12.65-3.87,16.14-1.27,5.31-.95,9.77.95,13.41,1.55,4.4,4.8,6.97,9.75,7.73,8.15,1.82,16.51-.83,25.09-7.95,8-6.67,16.35-14.92,25.05-24.77,4.83-5.6,9.42-11.4,13.75-17.39,4.33-5.98,8.67-12.01,13.02-18.07l9.56-13.64,10.81,5.45-8.99,13.18c-4.58,6.36-9.18,12.77-13.78,19.2-4.61,6.44-9.44,12.61-14.51,18.52-6.54,7.43-15.87,16.52-27.99,27.27-11.47,10-24.07,13.79-37.82,11.36-9.3-.91-15.21-5.45-17.71-13.64-2.22-5.3-2.66-11.29-1.33-17.95,1.29-6.51,2.75-12.8,4.37-18.86,2.8-10.45,5.58-20.83,8.34-31.14,2.76-10.3,5.54-20.68,8.34-31.14,2.31-8.64,3.71-16.67,4.18-24.09.44-7.88-1.26-14.55-5.1-20-5.32-7.27-13.65-11.82-24.98-13.64-5.06-.91-13.58-1.36-25.54-1.36Z"></path></g></g></svg> 