<?xml version="1.0" encoding="UTF-8"?> <svg xmlns="http://www.w3.org/2000/svg" xmlns:xlink="http://www.w3.org/1999/xlink" viewBox="0 0 1920 3770"><defs><style>.cls-1,.cls-2,.cls-3,.cls-4{fill:none;}.cls-5{clip-path:url(#clippath);}.cls-6{fill:#fff;}.cls-7{fill:#937fbb;}.cls-8{fill:#a797c9;}.cls-9{fill:#171c32;}.cls-2{stroke:#937fbb;stroke-width:5px;}.cls-2,.cls-3,.cls-4{stroke-miterlimit:10;}.cls-10{clip-path:url(#clippath-1);}.cls-11{clip-path:url(#clippath-2);}.cls-3{stroke:#a797c9;stroke-dasharray:0 0 1.74 17.45;stroke-linecap:round;stroke-width:7px;}.cls-4{stroke:#57678b;stroke-width:3.5px;}</style><clipPath id="clippath"><circle class="cls-1" cx="1130.97" cy="1276.46" r="44.62"></circle></clipPath><clipPath id="clippath-1"><circle class="cls-1" cx="1056.15" cy="2121.44" r="136.21"></circle></clipPath><clipPath id="clippath-2"><circle class="cls-1" cx="1565.56" cy="2994.49" r="114.62"></circle></clipPath></defs><g id="Background"><rect class="cls-9" width="1920" height="3770"></rect></g><g id="Horizontal_Guides"><line class="cls-4" y1="199.88" x2="1920" y2="199.88"></line><line class="cls-4" y1="382.12" x2="1920" y2="382.12"></line><line class="cls-4" x1="1920" y1="572.27" y2="572.27"></line><line class="cls-4" y1="754.44" x2="1920" y2="754.44"></line><line class="cls-4" y1="1106.93" x2="1920" y2="1106.93"></line><line class="cls-4" y1="1289.17" x2="1920" y2="1289.17"></line><line class="cls-4" x1="1920" y1="1479.32" y2="1479.32"></line><line class="cls-4" y1="1661.49" x2="1920" y2="1661.49"></line><line class="cls-4" y1="2013.97" x2="1920" y2="2013.97"></line><line class="cls-4" y1="2196.21" x2="1920" y2="2196.21"></line><line class="cls-4" x1="1920" y1="2386.36" y2="2386.36"></line><line class="cls-4" y1="2568.54" x2="1920" y2="2568.54"></line><line class="cls-4" y1="2921.02" x2="1920" y2="2921.02"></line><line class="cls-4" y1="3103.26" x2="1920" y2="3103.26"></line><line class="cls-4" x1="1920" y1="3293.41" y2="3293.41"></line><line class="cls-4" y1="3475.58" x2="1920" y2="3475.58"></line></g><g id="info"><line class="cls-3" x1="263.57" y1="574.33" x2="263.57" y2="837.82"></line><path class="cls-6" d="m253.7,3574.95h3.15l17.69,27.6h.04v-27.6h2.94v32.77h-3.07l-17.77-27.93h-.04v27.93h-2.94v-32.77Z"></path><path class="cls-6" d="m284.87,3601.92c0-3.95,2.23-6.09,7.86-6.09h6.34v-1.72c0-2.98-1.26-5.42-5.46-5.42-3.95,0-5.33,1.51-5.33,4.12v.88h-2.98v-.84c0-5,4.2-6.68,8.32-6.68,5.8,0,8.4,2.86,8.4,8.44v13.11h-2.06l-.55-2.98h-.08c-1.26,1.89-3.7,3.53-7.35,3.53-4.92,0-7.1-2.31-7.1-6.34Zm14.2-1.85v-1.76h-7.02c-2.65,0-4.03.92-4.03,3.61,0,2.35,1.26,3.86,4.5,3.86,4.16,0,6.55-2.14,6.55-5.71Z"></path><path class="cls-6" d="m309.35,3586.71h2.6l.29,3.91c1.01-2.14,3.07-4.45,6.76-4.45,1.26,0,2.18.21,3.02.55v3.15c-1.13-.5-2.1-.76-3.4-.76-3.74,0-6.34,2.81-6.34,5.75v12.85h-2.94v-21Z"></path><path class="cls-6" d="m326.66,3586.71h2.6l.29,3.91c1.01-2.14,3.07-4.45,6.76-4.45,1.26,0,2.18.21,3.02.55v3.15c-1.13-.5-2.1-.76-3.4-.76-3.74,0-6.34,2.81-6.34,5.75v12.85h-2.94v-21Z"></path><path class="cls-6" d="m341.65,3597.21c0-6.22,3.32-11.05,10.38-11.05,6.6,0,10.25,4.83,10.25,11.05s-3.7,11.05-10.29,11.05c-7.27,0-10.33-4.83-10.33-11.05Zm17.56,0c0-5.33-2.9-8.49-7.23-8.49-4.75,0-7.27,3.15-7.27,8.49s2.56,8.49,7.27,8.49c4.33,0,7.23-3.15,7.23-8.49Z"></path><path class="cls-6" d="m364.58,3586.75v-.04h2.98l5.75,17.48h.08l6.3-17.48h2.69l6.18,17.48h.08l5.75-17.48h2.86v.04l-7.18,20.96h-3.02l-5.97-17.05h-.08l-6.22,17.05h-3.02l-7.18-20.96Z"></path><path class="cls-6" d="m411.75,3586.71h2.6l.29,3.91c1.01-2.14,3.07-4.45,6.76-4.45,1.26,0,2.18.21,3.02.55v3.15c-1.13-.5-2.1-.76-3.4-.76-3.74,0-6.34,2.81-6.34,5.75v12.85h-2.94v-21Z"></path><path class="cls-6" d="m426.74,3597.21c0-6.22,3.32-11.05,10.38-11.05,6.6,0,10.25,4.83,10.25,11.05s-3.7,11.05-10.29,11.05c-7.27,0-10.33-4.83-10.33-11.05Zm17.56,0c0-5.33-2.9-8.49-7.23-8.49-4.75,0-7.27,3.15-7.27,8.49s2.56,8.49,7.27,8.49c4.33,0,7.23-3.15,7.23-8.49Z"></path><path class="cls-6" d="m452.82,3600.32v-13.61h2.94v13.27c0,4.33,2.14,5.71,5.42,5.71,3.74,0,6.55-2.69,6.55-5.63v-13.36h2.94v21h-2.6l-.25-3.36h-.08c-.97,2.02-3.23,3.91-7.23,3.91-4.66,0-7.69-2.52-7.69-7.94Z"></path><path class="cls-6" d="m478.02,3586.71h2.6l.29,3.49c1.01-2.14,3.28-4.03,7.35-4.03,4.75,0,7.77,2.52,7.77,7.94v13.61h-2.94v-13.27c0-4.33-2.14-5.71-5.5-5.71-3.82,0-6.64,2.69-6.64,5.63v13.36h-2.94v-21Z"></path><path class="cls-6" d="m501.71,3597.25c0-7.1,4.28-11.09,10.04-11.09,3.7,0,6.22,1.6,7.31,3.74h.04v-14.95h2.94v32.77h-1.97l-.67-3.61h-.08c-1.18,2.31-3.95,4.16-7.77,4.16-6.3,0-9.83-3.99-9.83-11.01Zm17.64-.5c0-5.5-3.36-8.07-7.35-8.07-3.11,0-7.14,1.47-7.14,8.4s3.61,8.61,7.14,8.61c4.24,0,7.35-2.73,7.35-8.95Z"></path><path class="cls-6" d="m537.37,3597.38c0-6.38,3.23-11.22,10-11.22s8.95,3.91,8.95,8.95v.42h-3.11v-.63c0-3.82-1.64-6.09-5.84-6.09-4.75,0-7.02,3.11-7.02,8.4,0,5.63,2.39,8.49,6.93,8.49,3.82,0,5.84-1.85,5.92-5.67h3.02c-.08,4.66-3.15,8.23-9.03,8.23-7.23,0-9.83-4.75-9.83-10.88Z"></path><path class="cls-6" d="m561.56,3574.95h2.94v15.16c1.05-2.1,3.28-3.95,7.31-3.95,4.75,0,7.77,2.52,7.77,7.94v13.61h-2.94v-13.27c0-4.33-2.14-5.71-5.5-5.71-3.82,0-6.64,2.69-6.64,5.63v13.36h-2.94v-32.77Z"></path><path class="cls-6" d="m585.67,3601.92c0-3.95,2.23-6.09,7.86-6.09h6.34v-1.72c0-2.98-1.26-5.42-5.46-5.42-3.95,0-5.33,1.51-5.33,4.12v.88h-2.98v-.84c0-5,4.2-6.68,8.32-6.68,5.8,0,8.4,2.86,8.4,8.44v13.11h-2.06l-.55-2.98h-.08c-1.26,1.89-3.7,3.53-7.35,3.53-4.92,0-7.1-2.31-7.1-6.34Zm14.2-1.85v-1.76h-7.02c-2.65,0-4.03.92-4.03,3.61,0,2.35,1.26,3.86,4.5,3.86,4.16,0,6.55-2.14,6.55-5.71Z"></path><path class="cls-6" d="m610.16,3586.71h2.6l.29,3.91c1.01-2.14,3.07-4.45,6.76-4.45,1.26,0,2.18.21,3.02.55v3.15c-1.13-.5-2.1-.76-3.4-.76-3.74,0-6.34,2.81-6.34,5.75v12.85h-2.94v-21Z"></path><path class="cls-6" d="m625.78,3601.92c0-3.95,2.23-6.09,7.86-6.09h6.34v-1.72c0-2.98-1.26-5.42-5.46-5.42-3.95,0-5.33,1.51-5.33,4.12v.88h-2.98v-.84c0-5,4.2-6.68,8.32-6.68,5.8,0,8.4,2.86,8.4,8.44v13.11h-2.06l-.55-2.98h-.08c-1.26,1.89-3.7,3.53-7.35,3.53-4.92,0-7.1-2.31-7.1-6.34Zm14.2-1.85v-1.76h-7.02c-2.65,0-4.03.92-4.03,3.61,0,2.35,1.26,3.86,4.5,3.86,4.16,0,6.55-2.14,6.55-5.71Z"></path><path class="cls-6" d="m648.58,3597.38c0-6.38,3.23-11.22,10-11.22s8.95,3.91,8.95,8.95v.42h-3.11v-.63c0-3.82-1.64-6.09-5.84-6.09-4.75,0-7.02,3.11-7.02,8.4,0,5.63,2.39,8.49,6.93,8.49,3.82,0,5.84-1.85,5.92-5.67h3.02c-.08,4.66-3.15,8.23-9.03,8.23-7.23,0-9.83-4.75-9.83-10.88Z"></path><path class="cls-6" d="m684.37,3605.03v2.6c-.76.21-2.14.59-4.03.59-3.82,0-6.34-1.6-6.34-6.89v-12.18h-4.16v-2.44h4.16v-6.05l2.94-1.43v7.48h5.92v2.44h-5.92v11.8c0,2.82.76,4.58,3.4,4.58,1.6,0,3.23-.29,4.03-.5Z"></path><path class="cls-6" d="m705.83,3598.22h-15.96c.17,4.79,2.48,7.48,6.93,7.48,3.82,0,5.67-1.43,5.96-4.83h2.98c-.29,4.24-3.28,7.39-9.03,7.39-7.06,0-9.83-4.66-9.83-10.88s3.23-11.22,10-11.22,8.95,3.99,8.95,10.21v1.85Zm-3.11-2.98c0-4.45-1.72-6.55-5.92-6.55s-6.55,2.65-6.89,6.97h12.81v-.42Z"></path><path class="cls-6" d="m711.71,3586.71h2.6l.29,3.91c1.01-2.14,3.07-4.45,6.76-4.45,1.26,0,2.18.21,3.02.55v3.15c-1.13-.5-2.1-.76-3.4-.76-3.74,0-6.34,2.81-6.34,5.75v12.85h-2.94v-21Z"></path><path class="cls-6" d="m726.91,3601.29v-1.18h2.94v1.13c0,2.86,2.14,4.49,5.96,4.49s5.8-1.01,5.8-3.78c0-2.06-1.01-2.81-3.86-3.32l-4.62-.84c-3.02-.55-5.54-2.02-5.54-5.5,0-3.15,2.35-6.13,8.4-6.13s8.4,3.02,8.4,7.23v.88h-2.98v-.76c0-3.45-2.14-4.92-5.42-4.92-3.95,0-5.33,1.34-5.33,3.36s1.01,2.86,3.91,3.4l4.03.76c4.12.76,6.09,1.93,6.09,5.59,0,4.58-4.12,6.55-8.78,6.55-7.31,0-8.99-3.28-8.99-6.97Z"></path><path class="cls-6" d="m1009.7,1827.48h-3.36v-5.08c0-3.95.88-5.29,3.4-5.96l.67,1.85c-1.76.67-2.06,1.09-2.06,3.78v.34h1.34v5.08Zm5.92,0h-3.36v-5.08c0-3.95.88-5.29,3.4-5.96l.67,1.85c-1.76.67-2.06,1.09-2.06,3.78v.34h1.34v5.08Z"></path><path class="cls-6" d="m1025.74,1823.74v5.04h5.92v2.44h-5.92v18.57h-2.94v-18.57h-4.16v-2.44h4.16v-5.42c0-5.29,3.15-6.89,6.38-6.89,1.85,0,2.98.29,3.74.55v2.6c-.71-.21-1.89-.46-3.49-.46-2.65,0-3.7,1.76-3.7,4.58Z"></path><path class="cls-6" d="m1036.28,1826.22c1.76-.67,2.06-1.09,2.06-3.78v-.34h-1.34v-5.08h3.36v5.08c0,3.95-.88,5.29-3.4,5.96l-.67-1.85Zm5.92,0c1.76-.67,2.06-1.09,2.06-3.78v-.34h-1.34v-5.08h3.36v5.08c0,3.95-.88,5.29-3.4,5.96l-.67-1.85Z"></path><path class="cls-6" d="m1061.82,1817.02h2.94v15.16c1.05-2.1,3.28-3.95,7.31-3.95,4.75,0,7.77,2.52,7.77,7.94v13.61h-2.94v-13.27c0-4.33-2.14-5.71-5.5-5.71-3.82,0-6.64,2.69-6.64,5.63v13.36h-2.94v-32.77Z"></path><path class="cls-6" d="m1085.93,1843.99c0-3.95,2.23-6.09,7.86-6.09h6.34v-1.72c0-2.98-1.26-5.42-5.46-5.42-3.95,0-5.33,1.51-5.33,4.12v.88h-2.98v-.84c0-5,4.2-6.68,8.32-6.68,5.8,0,8.4,2.86,8.4,8.44v13.11h-2.06l-.55-2.98h-.08c-1.26,1.89-3.7,3.53-7.35,3.53-4.92,0-7.1-2.31-7.1-6.34Zm14.2-1.85v-1.76h-7.02c-2.65,0-4.03.92-4.03,3.61,0,2.35,1.26,3.86,4.5,3.86,4.16,0,6.55-2.14,6.55-5.71Z"></path><path class="cls-6" d="m1108.52,1843.36v-1.18h2.94v1.13c0,2.86,2.14,4.49,5.96,4.49s5.8-1.01,5.8-3.78c0-2.06-1.01-2.81-3.86-3.32l-4.62-.84c-3.02-.55-5.54-2.02-5.54-5.5,0-3.15,2.35-6.13,8.4-6.13s8.4,3.02,8.4,7.23v.88h-2.98v-.76c0-3.45-2.14-4.92-5.42-4.92-3.95,0-5.33,1.34-5.33,3.36s1.01,2.86,3.91,3.4l4.03.76c4.12.76,6.09,1.93,6.09,5.59,0,4.58-4.12,6.55-8.78,6.55-7.31,0-8.99-3.28-8.99-6.97Z"></path><path class="cls-6" d="m1140.15,1839.29c0-6.22,3.32-11.05,10.38-11.05,6.6,0,10.25,4.83,10.25,11.05s-3.7,11.05-10.29,11.05c-7.27,0-10.33-4.83-10.33-11.05Zm17.56,0c0-5.33-2.9-8.49-7.23-8.49-4.75,0-7.27,3.15-7.27,8.49s2.56,8.49,7.27,8.49c4.33,0,7.23-3.15,7.23-8.49Z"></path><path class="cls-6" d="m1166.65,1828.78h2.6l.29,3.49c1.01-2.14,3.28-4.03,7.35-4.03,4.75,0,7.77,2.52,7.77,7.94v13.61h-2.94v-13.27c0-4.33-2.14-5.71-5.5-5.71-3.82,0-6.64,2.69-6.64,5.63v13.36h-2.94v-21Z"></path><path class="cls-6" d="m1192.02,1817.02h2.94v32.77h-2.94v-32.77Z"></path><path class="cls-6" d="m1202.31,1828.78l6.89,17.98h.08l7.14-17.98h3.07v.04l-8.86,20.84-3.11,8.53h-2.98v-.04l3.19-8.36-8.78-20.96v-.04h3.36Z"></path><path class="cls-6" d="m1232.09,1843.99c0-3.95,2.23-6.09,7.86-6.09h6.34v-1.72c0-2.98-1.26-5.42-5.46-5.42-3.95,0-5.33,1.51-5.33,4.12v.88h-2.98v-.84c0-5,4.2-6.68,8.32-6.68,5.8,0,8.4,2.86,8.4,8.44v13.11h-2.06l-.55-2.98h-.08c-1.26,1.89-3.7,3.53-7.35,3.53-4.92,0-7.1-2.31-7.1-6.34Zm14.2-1.85v-1.76h-7.02c-2.65,0-4.03.92-4.03,3.61,0,2.35,1.26,3.86,4.5,3.86,4.16,0,6.55-2.14,6.55-5.71Z"></path><path class="cls-6" d="m1254.68,1843.36v-1.18h2.94v1.13c0,2.86,2.14,4.49,5.96,4.49s5.8-1.01,5.8-3.78c0-2.06-1.01-2.81-3.86-3.32l-4.62-.84c-3.02-.55-5.54-2.02-5.54-5.5,0-3.15,2.35-6.13,8.4-6.13s8.4,3.02,8.4,7.23v.88h-2.98v-.76c0-3.45-2.14-4.92-5.42-4.92-3.95,0-5.33,1.34-5.33,3.36s1.01,2.86,3.91,3.4l4.03.76c4.12.76,6.09,1.93,6.09,5.59,0,4.58-4.12,6.55-8.78,6.55-7.31,0-8.99-3.28-8.99-6.97Z"></path><path class="cls-6" d="m1276.65,1839.45c0-6.38,3.23-11.22,10-11.22s8.95,3.91,8.95,8.95v.42h-3.11v-.63c0-3.82-1.64-6.09-5.84-6.09-4.75,0-7.02,3.11-7.02,8.4,0,5.63,2.39,8.49,6.93,8.49,3.82,0,5.84-1.85,5.92-5.67h3.02c-.08,4.66-3.15,8.23-9.03,8.23-7.23,0-9.83-4.75-9.83-10.88Z"></path><path class="cls-6" d="m1318.74,1840.29h-15.96c.17,4.79,2.48,7.48,6.93,7.48,3.82,0,5.67-1.43,5.96-4.83h2.98c-.29,4.24-3.28,7.39-9.03,7.39-7.06,0-9.83-4.66-9.83-10.88s3.23-11.22,10-11.22,8.95,3.99,8.95,10.21v1.85Zm-3.11-2.98c0-4.45-1.72-6.55-5.92-6.55s-6.55,2.65-6.89,6.97h12.81v-.42Z"></path><path class="cls-6" d="m1324.61,1828.78h2.6l.29,3.49c1.01-2.14,3.28-4.03,7.35-4.03,4.75,0,7.77,2.52,7.77,7.94v13.61h-2.94v-13.27c0-4.33-2.14-5.71-5.5-5.71-3.82,0-6.64,2.69-6.64,5.63v13.36h-2.94v-21Z"></path><path class="cls-6" d="m1348.3,1839.33c0-7.1,4.28-11.09,10.04-11.09,3.7,0,6.22,1.6,7.31,3.74h.04v-14.95h2.94v32.77h-1.97l-.67-3.61h-.08c-1.18,2.31-3.95,4.16-7.77,4.16-6.3,0-9.83-3.99-9.83-11.01Zm17.64-.5c0-5.5-3.36-8.07-7.35-8.07-3.11,0-7.14,1.47-7.14,8.4s3.61,8.61,7.14,8.61c4.24,0,7.35-2.73,7.35-8.95Z"></path><path class="cls-6" d="m1393.24,1840.29h-15.96c.17,4.79,2.48,7.48,6.93,7.48,3.82,0,5.67-1.43,5.96-4.83h2.98c-.29,4.24-3.28,7.39-9.03,7.39-7.06,0-9.83-4.66-9.83-10.88s3.23-11.22,10-11.22,8.95,3.99,8.95,10.21v1.85Zm-3.11-2.98c0-4.45-1.72-6.55-5.92-6.55s-6.55,2.65-6.89,6.97h12.81v-.42Z"></path><path class="cls-6" d="m1399.12,1828.78h2.6l.29,3.91c1.01-2.14,3.07-4.45,6.76-4.45,1.26,0,2.18.21,3.02.55v3.15c-1.13-.5-2.1-.76-3.4-.76-3.74,0-6.34,2.81-6.34,5.75v12.85h-2.94v-21Z"></path><path class="cls-6" d="m1426.08,1817.02h2.94v32.77h-2.94v-32.77Z"></path><path class="cls-6" d="m1434.69,1839.29c0-6.22,3.32-11.05,10.38-11.05,6.6,0,10.25,4.83,10.25,11.05s-3.7,11.05-10.29,11.05c-7.27,0-10.33-4.83-10.33-11.05Zm17.56,0c0-5.33-2.9-8.49-7.23-8.49-4.75,0-7.27,3.15-7.27,8.49s2.56,8.49,7.27,8.49c4.33,0,7.23-3.15,7.23-8.49Z"></path><path class="cls-6" d="m1459.52,1839.29c0-6.22,3.32-11.05,10.38-11.05,6.6,0,10.25,4.83,10.25,11.05s-3.7,11.05-10.29,11.05c-7.27,0-10.33-4.83-10.33-11.05Zm17.56,0c0-5.33-2.9-8.49-7.23-8.49-4.75,0-7.27,3.15-7.27,8.49s2.56,8.49,7.27,8.49c4.33,0,7.23-3.15,7.23-8.49Z"></path><path class="cls-6" d="m1486.02,1828.78h2.39l.34,3.87h.08c1.13-2.48,4.03-4.41,7.86-4.41,6.3,0,9.66,3.99,9.66,11.01s-4.28,11.09-9.87,11.09c-3.78,0-6.39-1.6-7.44-3.7h-.08v11.55h-2.94v-29.41Zm17.18,10.63c0-7.18-3.4-8.61-6.93-8.61-4.24,0-7.56,2.73-7.56,8.44,0,6.01,3.44,8.57,7.44,8.57,3.02,0,7.06-1.47,7.06-8.4Z"></path><path class="cls-6" d="m611.63,911.83h-11.51v-2.6h25.96v2.6h-11.51v30.16h-2.94v-30.16Z"></path><path class="cls-6" d="m629.44,909.22h2.98v6.51h-2.98v-6.51Zm0,11.76h2.94v21h-2.94v-21Z"></path><path class="cls-6" d="m639.14,943.79v-.13h3.11v.13c0,2.9,1.93,4.33,6.13,4.33,4.79,0,7.02-2.94,7.02-7.86v-2.1h-.08c-1.09,2.18-3.65,4.07-7.48,4.07-6.3,0-9.75-3.99-9.75-10.71,0-7.1,4.37-11.09,9.96-11.09,3.78,0,6.55,1.81,7.56,4.12h.13l.29-3.57h2.31v19.16c0,5.88-2.81,10.71-10.33,10.71-6.3,0-8.86-2.98-8.86-7.06Zm16.59-12.77c0-5.5-3.36-8.07-7.35-8.07-3.02,0-7.14,1.47-7.14,8.4s3.57,8.32,7.1,8.32c4.24,0,7.39-2.73,7.39-8.65Z"></path><path class="cls-6" d="m665.69,909.22h2.94v15.16c1.05-2.1,3.28-3.95,7.31-3.95,4.75,0,7.77,2.52,7.77,7.94v13.61h-2.94v-13.27c0-4.33-2.14-5.71-5.5-5.71-3.82,0-6.64,2.69-6.64,5.63v13.36h-2.94v-32.77Z"></path><path class="cls-6" d="m702.02,939.3v2.6c-.76.21-2.14.59-4.03.59-3.82,0-6.34-1.6-6.34-6.89v-12.18h-4.16v-2.44h4.16v-6.05l2.94-1.43v7.48h5.92v2.44h-5.92v11.8c0,2.81.76,4.58,3.4,4.58,1.6,0,3.23-.29,4.03-.5Z"></path><path class="cls-6" d="m714.62,935.56v-1.18h2.94v1.13c0,2.86,2.14,4.5,5.97,4.5s5.8-1.01,5.8-3.78c0-2.06-1.01-2.81-3.86-3.32l-4.62-.84c-3.02-.55-5.54-2.02-5.54-5.5,0-3.15,2.35-6.13,8.4-6.13s8.4,3.02,8.4,7.23v.88h-2.98v-.76c0-3.44-2.14-4.91-5.42-4.91-3.95,0-5.33,1.34-5.33,3.36s1.01,2.86,3.91,3.4l4.03.76c4.12.76,6.09,1.93,6.09,5.59,0,4.58-4.12,6.55-8.78,6.55-7.31,0-8.99-3.28-8.99-6.97Z"></path><path class="cls-6" d="m738.26,920.98h2.39l.34,3.86h.08c1.13-2.48,4.03-4.41,7.85-4.41,6.3,0,9.66,3.99,9.66,11.01s-4.29,11.09-9.87,11.09c-3.78,0-6.38-1.6-7.44-3.7h-.08v11.55h-2.94v-29.41Zm17.18,10.63c0-7.18-3.4-8.61-6.93-8.61-4.24,0-7.56,2.73-7.56,8.44,0,6.01,3.44,8.57,7.44,8.57,3.02,0,7.06-1.47,7.06-8.4Z"></path><path class="cls-6" d="m763,936.19c0-3.95,2.23-6.09,7.85-6.09h6.34v-1.72c0-2.98-1.26-5.42-5.46-5.42-3.95,0-5.33,1.51-5.33,4.12v.88h-2.98v-.84c0-5,4.2-6.68,8.32-6.68,5.8,0,8.4,2.86,8.4,8.44v13.11h-2.06l-.55-2.98h-.08c-1.26,1.89-3.7,3.53-7.35,3.53-4.91,0-7.1-2.31-7.1-6.34Zm14.2-1.85v-1.76h-7.02c-2.65,0-4.03.92-4.03,3.61,0,2.35,1.26,3.86,4.49,3.86,4.16,0,6.55-2.14,6.55-5.71Z"></path><path class="cls-6" d="m785.81,931.65c0-6.38,3.23-11.22,10-11.22s8.95,3.91,8.95,8.95v.42h-3.11v-.63c0-3.82-1.64-6.09-5.84-6.09-4.75,0-7.02,3.11-7.02,8.4,0,5.63,2.39,8.49,6.93,8.49,3.82,0,5.84-1.85,5.92-5.67h3.02c-.08,4.66-3.15,8.23-9.03,8.23-7.23,0-9.83-4.75-9.83-10.88Z"></path><path class="cls-6" d="m810.63,909.22h2.98v6.51h-2.98v-6.51Zm0,11.76h2.94v21h-2.94v-21Z"></path><path class="cls-6" d="m820.96,920.98h2.6l.29,3.49c1.01-2.14,3.28-4.03,7.35-4.03,4.75,0,7.77,2.52,7.77,7.94v13.61h-2.94v-13.27c0-4.33-2.14-5.71-5.5-5.71-3.82,0-6.64,2.69-6.64,5.63v13.36h-2.94v-21Z"></path><path class="cls-6" d="m845.7,943.79v-.13h3.11v.13c0,2.9,1.93,4.33,6.13,4.33,4.79,0,7.02-2.94,7.02-7.86v-2.1h-.08c-1.09,2.18-3.66,4.07-7.48,4.07-6.3,0-9.75-3.99-9.75-10.71,0-7.1,4.37-11.09,9.96-11.09,3.78,0,6.55,1.81,7.56,4.12h.13l.29-3.57h2.31v19.16c0,5.88-2.81,10.71-10.33,10.71-6.3,0-8.86-2.98-8.86-7.06Zm16.59-12.77c0-5.5-3.36-8.07-7.35-8.07-3.02,0-7.14,1.47-7.14,8.4s3.57,8.32,7.1,8.32c4.24,0,7.39-2.73,7.39-8.65Z"></path><path class="cls-6" d="m881.9,909.22h2.98v6.51h-2.98v-6.51Zm0,11.76h2.94v21h-2.94v-21Z"></path><path class="cls-6" d="m892.23,920.98h2.6l.29,3.49c1.01-2.14,3.28-4.03,7.35-4.03,4.75,0,7.77,2.52,7.77,7.94v13.61h-2.94v-13.27c0-4.33-2.14-5.71-5.5-5.71-3.82,0-6.64,2.69-6.64,5.63v13.36h-2.94v-21Z"></path><path class="cls-6" d="m925.58,931.65c0-6.38,3.23-11.22,10-11.22s8.95,3.91,8.95,8.95v.42h-3.11v-.63c0-3.82-1.64-6.09-5.84-6.09-4.75,0-7.02,3.11-7.02,8.4,0,5.63,2.39,8.49,6.93,8.49,3.82,0,5.84-1.85,5.92-5.67h3.02c-.08,4.66-3.15,8.23-9.03,8.23-7.23,0-9.83-4.75-9.83-10.88Z"></path><path class="cls-6" d="m967.67,932.49h-15.96c.17,4.79,2.48,7.48,6.93,7.48,3.82,0,5.67-1.43,5.96-4.83h2.98c-.29,4.24-3.28,7.39-9.03,7.39-7.06,0-9.83-4.66-9.83-10.88s3.23-11.22,10-11.22,8.95,3.99,8.95,10.21v1.85Zm-3.11-2.98c0-4.45-1.72-6.55-5.92-6.55s-6.55,2.65-6.89,6.97h12.81v-.42Z"></path><path class="cls-6" d="m973.55,920.98h2.6l.29,3.91c1.01-2.14,3.07-4.45,6.76-4.45,1.26,0,2.18.21,3.02.55v3.15c-1.13-.5-2.1-.76-3.4-.76-3.74,0-6.34,2.81-6.34,5.75v12.85h-2.94v-21Z"></path><path class="cls-6" d="m1001.81,939.3v2.6c-.76.21-2.14.59-4.03.59-3.82,0-6.34-1.6-6.34-6.89v-12.18h-4.16v-2.44h4.16v-6.05l2.94-1.43v7.48h5.92v2.44h-5.92v11.8c0,2.81.76,4.58,3.4,4.58,1.6,0,3.23-.29,4.03-.5Z"></path><path class="cls-6" d="m1005.38,936.19c0-3.95,2.23-6.09,7.86-6.09h6.34v-1.72c0-2.98-1.26-5.42-5.46-5.42-3.95,0-5.33,1.51-5.33,4.12v.88h-2.98v-.84c0-5,4.2-6.68,8.32-6.68,5.8,0,8.4,2.86,8.4,8.44v13.11h-2.06l-.55-2.98h-.08c-1.26,1.89-3.7,3.53-7.35,3.53-4.91,0-7.1-2.31-7.1-6.34Zm14.2-1.85v-1.76h-7.02c-2.65,0-4.03.92-4.03,3.61,0,2.35,1.26,3.86,4.5,3.86,4.16,0,6.55-2.14,6.55-5.71Z"></path><path class="cls-6" d="m1029.87,909.22h2.98v6.51h-2.98v-6.51Zm0,11.76h2.94v21h-2.94v-21Z"></path><path class="cls-6" d="m1040.2,920.98h2.6l.29,3.49c1.01-2.14,3.28-4.03,7.35-4.03,4.75,0,7.77,2.52,7.77,7.94v13.61h-2.94v-13.27c0-4.33-2.14-5.71-5.5-5.71-3.82,0-6.64,2.69-6.64,5.63v13.36h-2.94v-21Z"></path><path class="cls-6" d="m1075.23,920.98h2.39l.34,3.86h.08c1.13-2.48,4.03-4.41,7.85-4.41,6.3,0,9.66,3.99,9.66,11.01s-4.29,11.09-9.87,11.09c-3.78,0-6.38-1.6-7.44-3.7h-.08v11.55h-2.94v-29.41Zm17.18,10.63c0-7.18-3.4-8.61-6.93-8.61-4.24,0-7.56,2.73-7.56,8.44,0,6.01,3.44,8.57,7.44,8.57,3.02,0,7.06-1.47,7.06-8.4Z"></path><path class="cls-6" d="m1099.97,936.19c0-3.95,2.23-6.09,7.86-6.09h6.34v-1.72c0-2.98-1.26-5.42-5.46-5.42-3.95,0-5.33,1.51-5.33,4.12v.88h-2.98v-.84c0-5,4.2-6.68,8.32-6.68,5.8,0,8.4,2.86,8.4,8.44v13.11h-2.06l-.55-2.98h-.08c-1.26,1.89-3.7,3.53-7.35,3.53-4.92,0-7.1-2.31-7.1-6.34Zm14.2-1.85v-1.76h-7.01c-2.65,0-4.03.92-4.03,3.61,0,2.35,1.26,3.86,4.5,3.86,4.16,0,6.55-2.14,6.55-5.71Z"></path><path class="cls-6" d="m1124.45,909.22h2.98v6.51h-2.98v-6.51Zm0,11.76h2.94v21h-2.94v-21Z"></path><path class="cls-6" d="m1134.78,920.98h2.6l.29,3.91c1.01-2.14,3.07-4.45,6.76-4.45,1.26,0,2.18.21,3.02.55v3.15c-1.13-.5-2.1-.76-3.4-.76-3.74,0-6.34,2.81-6.34,5.75v12.85h-2.94v-21Z"></path><path class="cls-6" d="m1149.99,935.56v-1.18h2.94v1.13c0,2.86,2.14,4.5,5.96,4.5s5.8-1.01,5.8-3.78c0-2.06-1.01-2.81-3.87-3.32l-4.62-.84c-3.02-.55-5.54-2.02-5.54-5.5,0-3.15,2.35-6.13,8.4-6.13s8.4,3.02,8.4,7.23v.88h-2.98v-.76c0-3.44-2.14-4.91-5.42-4.91-3.95,0-5.33,1.34-5.33,3.36s1.01,2.86,3.91,3.4l4.03.76c4.12.76,6.09,1.93,6.09,5.59,0,4.58-4.12,6.55-8.78,6.55-7.31,0-8.99-3.28-8.99-6.97Z"></path><path class="cls-6" d="m1184.97,919.68h-3.36v-5.08c0-3.95.88-5.29,3.4-5.97l.67,1.85c-1.76.67-2.06,1.09-2.06,3.78v.34h1.34v5.08Zm5.92,0h-3.36v-5.08c0-3.95.88-5.29,3.4-5.97l.67,1.85c-1.76.67-2.06,1.09-2.06,3.78v.34h1.34v5.08Z"></path><path class="cls-6" d="m1193.92,931.65c0-6.38,3.23-11.22,10-11.22s8.95,3.91,8.95,8.95v.42h-3.11v-.63c0-3.82-1.64-6.09-5.84-6.09-4.75,0-7.01,3.11-7.01,8.4,0,5.63,2.39,8.49,6.93,8.49,3.82,0,5.84-1.85,5.92-5.67h3.03c-.08,4.66-3.15,8.23-9.03,8.23-7.22,0-9.83-4.75-9.83-10.88Z"></path><path class="cls-6" d="m1218.74,920.98h2.6l.29,3.91c1.01-2.14,3.07-4.45,6.76-4.45,1.26,0,2.18.21,3.02.55v3.15c-1.13-.5-2.1-.76-3.4-.76-3.74,0-6.34,2.81-6.34,5.75v12.85h-2.94v-21Z"></path><path class="cls-6" d="m1234.16,918.42c1.76-.67,2.06-1.09,2.06-3.78v-.34h-1.34v-5.08h3.36v5.08c0,3.95-.88,5.29-3.4,5.97l-.67-1.85Zm5.92,0c1.76-.67,2.06-1.09,2.06-3.78v-.34h-1.34v-5.08h3.36v5.08c0,3.95-.88,5.29-3.4,5.97l-.67-1.85Z"></path><path class="cls-6" d="m1247.09,935.77h3.36v6.22c0,3.95-.88,5.29-3.4,5.96l-.67-1.85c1.76-.67,2.06-1.09,2.06-3.78v-.34h-1.34v-6.22Z"></path><path class="cls-6" d="m1268.09,919.68h-3.36v-5.08c0-3.95.88-5.29,3.4-5.97l.67,1.85c-1.76.67-2.06,1.09-2.06,3.78v.34h1.34v5.08Zm5.92,0h-3.36v-5.08c0-3.95.88-5.29,3.4-5.97l.67,1.85c-1.76.67-2.06,1.09-2.06,3.78v.34h1.34v5.08Z"></path><path class="cls-6" d="m1283.21,938.5h-.08l-.76,3.49h-1.97v-32.77h2.94v15.25h.04c1.26-2.31,4.07-4.03,7.69-4.03,6.3,0,9.66,3.99,9.66,11.01s-4.28,11.09-9.87,11.09c-3.78,0-6.55-1.64-7.65-4.03Zm14.37-6.89c0-7.18-3.4-8.61-6.93-8.61-4.24,0-7.56,2.73-7.56,8.44,0,6.01,3.44,8.57,7.43,8.57,3.03,0,7.06-1.47,7.06-8.4Z"></path><path class="cls-6" d="m1306.61,920.98h2.6l.29,3.91c1.01-2.14,3.07-4.45,6.76-4.45,1.26,0,2.18.21,3.02.55v3.15c-1.13-.5-2.1-.76-3.4-.76-3.74,0-6.34,2.81-6.34,5.75v12.85h-2.94v-21Z"></path><path class="cls-6" d="m1322.02,918.42c1.76-.67,2.06-1.09,2.06-3.78v-.34h-1.34v-5.08h3.36v5.08c0,3.95-.88,5.29-3.4,5.97l-.67-1.85Zm5.92,0c1.76-.67,2.06-1.09,2.06-3.78v-.34h-1.34v-5.08h3.36v5.08c0,3.95-.88,5.29-3.4,5.97l-.67-1.85Z"></path><path class="cls-6" d="m1352.13,2729.33h2.94v30.12h15.71v2.65h-18.65v-32.77Z"></path><path class="cls-6" d="m1373.93,2751.59c0-6.22,3.32-11.05,10.38-11.05,6.6,0,10.25,4.83,10.25,11.05s-3.7,11.05-10.29,11.05c-7.27,0-10.33-4.83-10.33-11.05Zm17.56,0c0-5.33-2.9-8.49-7.23-8.49-4.75,0-7.27,3.15-7.27,8.49s2.56,8.49,7.27,8.49c4.33,0,7.23-3.15,7.23-8.49Z"></path><path class="cls-6" d="m1398.75,2751.59c0-6.22,3.32-11.05,10.38-11.05,6.6,0,10.25,4.83,10.25,11.05s-3.7,11.05-10.29,11.05c-7.27,0-10.33-4.83-10.33-11.05Zm17.56,0c0-5.33-2.9-8.49-7.23-8.49-4.75,0-7.27,3.15-7.27,8.49s2.56,8.49,7.27,8.49c4.33,0,7.23-3.15,7.23-8.49Z"></path><path class="cls-6" d="m1425.26,2741.09h2.39l.34,3.86h.08c1.13-2.48,4.03-4.41,7.86-4.41,6.3,0,9.66,3.99,9.66,11.01s-4.28,11.09-9.87,11.09c-3.78,0-6.39-1.6-7.44-3.7h-.08v11.55h-2.94v-29.41Zm17.18,10.63c0-7.18-3.4-8.61-6.93-8.61-4.24,0-7.56,2.73-7.56,8.44,0,6.01,3.44,8.57,7.44,8.57,3.02,0,7.06-1.47,7.06-8.4Z"></path><path class="cls-6" d="m1468.73,2752.6h-15.96c.17,4.79,2.48,7.48,6.93,7.48,3.82,0,5.67-1.43,5.96-4.83h2.98c-.29,4.24-3.28,7.39-9.03,7.39-7.06,0-9.83-4.66-9.83-10.88s3.23-11.22,10-11.22,8.95,3.99,8.95,10.21v1.85Zm-3.11-2.98c0-4.45-1.72-6.55-5.92-6.55s-6.55,2.65-6.89,6.97h12.81v-.42Z"></path><path class="cls-6" d="m1472.93,2751.64c0-7.1,4.28-11.09,10.04-11.09,3.7,0,6.22,1.6,7.31,3.74h.04v-14.95h2.94v32.77h-1.97l-.67-3.61h-.08c-1.18,2.31-3.95,4.16-7.77,4.16-6.3,0-9.83-3.99-9.83-11.01Zm17.64-.5c0-5.5-3.36-8.07-7.35-8.07-3.11,0-7.14,1.47-7.14,8.4s3.61,8.61,7.14,8.61c4.24,0,7.35-2.73,7.35-8.95Z"></path><path class="cls-6" d="m1527.53,2752.6h-15.96c.17,4.79,2.48,7.48,6.93,7.48,3.82,0,5.67-1.43,5.96-4.83h2.98c-.29,4.24-3.28,7.39-9.03,7.39-7.06,0-9.83-4.66-9.83-10.88s3.23-11.22,10-11.22,8.95,3.99,8.95,10.21v1.85Zm-3.11-2.98c0-4.45-1.72-6.55-5.92-6.55s-6.55,2.65-6.89,6.97h12.81v-.42Z"></path><path class="cls-6" d="m1548.78,2741.13l-8.07,10.5,8.02,10.42v.04h-3.44l-6.34-8.44-6.43,8.44h-3.28v-.04l8.02-10.38-8.07-10.54v-.04h3.44l6.39,8.49,6.43-8.44v-.04h3.32v.04Z"></path><path class="cls-6" d="m1564.28,2759.41v2.6c-.76.21-2.14.59-4.03.59-3.82,0-6.34-1.6-6.34-6.89v-12.18h-4.16v-2.44h4.16v-6.05l2.94-1.43v7.48h5.92v2.44h-5.92v11.8c0,2.81.76,4.58,3.4,4.58,1.6,0,3.23-.29,4.03-.5Z"></path><path class="cls-6" d="m1585.74,2752.6h-15.96c.17,4.79,2.48,7.48,6.93,7.48,3.82,0,5.67-1.43,5.96-4.83h2.98c-.29,4.24-3.28,7.39-9.03,7.39-7.06,0-9.83-4.66-9.83-10.88s3.23-11.22,10-11.22,8.95,3.99,8.95,10.21v1.85Zm-3.11-2.98c0-4.45-1.72-6.55-5.92-6.55s-6.55,2.65-6.89,6.97h12.81v-.42Z"></path><path class="cls-6" d="m1591.62,2741.09h2.6l.29,3.49c1.01-2.14,3.28-4.03,7.35-4.03,4.75,0,7.77,2.52,7.77,7.94v13.61h-2.94v-13.27c0-4.33-2.14-5.71-5.5-5.71-3.82,0-6.64,2.69-6.64,5.63v13.36h-2.94v-21Z"></path><path class="cls-6" d="m1615.31,2751.64c0-7.1,4.28-11.09,10.04-11.09,3.7,0,6.22,1.6,7.31,3.74h.04v-14.95h2.94v32.77h-1.97l-.67-3.61h-.08c-1.18,2.31-3.95,4.16-7.77,4.16-6.3,0-9.83-3.99-9.83-11.01Zm17.64-.5c0-5.5-3.36-8.07-7.35-8.07-3.11,0-7.14,1.47-7.14,8.4s3.61,8.61,7.14,8.61c4.24,0,7.35-2.73,7.35-8.95Z"></path><path class="cls-6" d="m1660.25,2752.6h-15.96c.17,4.79,2.48,7.48,6.93,7.48,3.82,0,5.67-1.43,5.96-4.83h2.98c-.29,4.24-3.28,7.39-9.03,7.39-7.06,0-9.83-4.66-9.83-10.88s3.23-11.22,10-11.22,8.95,3.99,8.95,10.21v1.85Zm-3.11-2.98c0-4.45-1.72-6.55-5.92-6.55s-6.55,2.65-6.89,6.97h12.81v-.42Z"></path><path class="cls-6" d="m1666.13,2741.09h2.6l.29,3.91c1.01-2.14,3.07-4.45,6.76-4.45,1.26,0,2.18.21,3.02.55v3.15c-1.13-.5-2.1-.76-3.4-.76-3.74,0-6.34,2.81-6.34,5.75v12.85h-2.94v-21Z"></path><path class="cls-6" d="m1681.33,2755.67v-1.18h2.94v1.13c0,2.86,2.14,4.5,5.97,4.5s5.8-1.01,5.8-3.78c0-2.06-1.01-2.81-3.86-3.32l-4.62-.84c-3.02-.55-5.54-2.02-5.54-5.5,0-3.15,2.35-6.13,8.4-6.13s8.4,3.02,8.4,7.22v.88h-2.98v-.76c0-3.45-2.14-4.92-5.42-4.92-3.95,0-5.33,1.34-5.33,3.36s1.01,2.86,3.91,3.4l4.03.76c4.12.76,6.09,1.93,6.09,5.59,0,4.58-4.12,6.55-8.78,6.55-7.31,0-8.99-3.28-8.99-6.97Z"></path><path class="cls-6" d="m102.43,1817.38h8.36c11.05,0,17.39,4.54,17.39,16.42s-6.26,16.34-17.18,16.34h-8.57v-32.77Zm8.65,30.12c9.41,0,14.03-3.74,14.03-13.78s-4.5-13.74-14.07-13.74h-5.67v27.52h5.71Z"></path><path class="cls-6" d="m151.74,1840.65h-15.96c.17,4.79,2.48,7.48,6.93,7.48,3.82,0,5.67-1.43,5.96-4.83h2.98c-.29,4.24-3.28,7.39-9.03,7.39-7.06,0-9.83-4.66-9.83-10.88s3.23-11.22,10-11.22,8.95,3.99,8.95,10.21v1.85Zm-3.11-2.98c0-4.45-1.72-6.55-5.92-6.55s-6.55,2.65-6.89,6.97h12.81v-.42Z"></path><path class="cls-6" d="m155.94,1839.81c0-6.38,3.23-11.22,10-11.22s8.95,3.91,8.95,8.95v.42h-3.11v-.63c0-3.82-1.64-6.09-5.84-6.09-4.75,0-7.02,3.11-7.02,8.4,0,5.63,2.39,8.49,6.93,8.49,3.82,0,5.84-1.85,5.92-5.67h3.02c-.08,4.66-3.15,8.23-9.03,8.23-7.23,0-9.83-4.75-9.83-10.88Z"></path><path class="cls-6" d="m179.08,1839.64c0-6.22,3.32-11.05,10.38-11.05,6.59,0,10.25,4.83,10.25,11.05s-3.7,11.05-10.29,11.05c-7.27,0-10.33-4.83-10.33-11.05Zm17.56,0c0-5.34-2.9-8.49-7.23-8.49-4.75,0-7.27,3.15-7.27,8.49s2.56,8.49,7.27,8.49c4.33,0,7.23-3.15,7.23-8.49Z"></path><path class="cls-6" d="m205.58,1829.14h2.6l.29,3.91c1.01-2.14,3.07-4.45,6.76-4.45,1.26,0,2.18.21,3.02.55v3.15c-1.13-.5-2.1-.76-3.4-.76-3.74,0-6.34,2.81-6.34,5.75v12.86h-2.94v-21Z"></path><path class="cls-6" d="m221.2,1844.34c0-3.95,2.23-6.09,7.86-6.09h6.34v-1.72c0-2.98-1.26-5.42-5.46-5.42-3.95,0-5.33,1.51-5.33,4.12v.88h-2.98v-.84c0-5,4.2-6.68,8.32-6.68,5.8,0,8.4,2.86,8.4,8.44v13.11h-2.06l-.55-2.98h-.08c-1.26,1.89-3.7,3.53-7.35,3.53-4.92,0-7.1-2.31-7.1-6.34Zm14.2-1.85v-1.76h-7.02c-2.65,0-4.03.92-4.03,3.61,0,2.35,1.26,3.86,4.5,3.86,4.16,0,6.55-2.14,6.55-5.71Z"></path><path class="cls-6" d="m256.44,1847.45v2.61c-.76.21-2.14.59-4.03.59-3.82,0-6.34-1.6-6.34-6.89v-12.18h-4.16v-2.44h4.16v-6.05l2.94-1.43v7.48h5.92v2.44h-5.92v11.8c0,2.81.76,4.58,3.4,4.58,1.6,0,3.23-.29,4.03-.5Z"></path><path class="cls-6" d="m261.27,1817.38h2.98v6.51h-2.98v-6.51Zm0,11.76h2.94v21h-2.94v-21Z"></path><path class="cls-6" d="m268.45,1829.18v-.04h3.36l7.35,17.98h.08l7.1-17.98h3.07v.04l-8.74,20.96h-3.02l-9.2-20.96Z"></path><path class="cls-6" d="m310.25,1840.65h-15.96c.17,4.79,2.48,7.48,6.93,7.48,3.82,0,5.67-1.43,5.96-4.83h2.98c-.29,4.24-3.28,7.39-9.03,7.39-7.06,0-9.83-4.66-9.83-10.88s3.23-11.22,10-11.22,8.95,3.99,8.95,10.21v1.85Zm-3.11-2.98c0-4.45-1.72-6.55-5.92-6.55s-6.55,2.65-6.89,6.97h12.81v-.42Z"></path><path class="cls-6" d="m324.52,1844.34c0-3.95,2.23-6.09,7.85-6.09h6.34v-1.72c0-2.98-1.26-5.42-5.46-5.42-3.95,0-5.33,1.51-5.33,4.12v.88h-2.98v-.84c0-5,4.2-6.68,8.32-6.68,5.8,0,8.4,2.86,8.4,8.44v13.11h-2.06l-.55-2.98h-.08c-1.26,1.89-3.7,3.53-7.35,3.53-4.92,0-7.1-2.31-7.1-6.34Zm14.2-1.85v-1.76h-7.02c-2.65,0-4.03.92-4.03,3.61,0,2.35,1.26,3.86,4.49,3.86,4.16,0,6.55-2.14,6.55-5.71Z"></path><path class="cls-6" d="m349.01,1829.14h2.6l.29,3.49c1.01-2.14,3.28-4.03,7.35-4.03,4.75,0,7.77,2.52,7.77,7.94v13.61h-2.94v-13.28c0-4.33-2.14-5.71-5.5-5.71-3.82,0-6.64,2.69-6.64,5.63v13.36h-2.94v-21Z"></path><path class="cls-6" d="m372.7,1839.68c0-7.1,4.28-11.09,10.04-11.09,3.7,0,6.22,1.6,7.31,3.74h.04v-14.95h2.94v32.77h-1.97l-.67-3.61h-.08c-1.18,2.31-3.95,4.16-7.77,4.16-6.3,0-9.83-3.99-9.83-11.01Zm17.64-.5c0-5.5-3.36-8.06-7.35-8.06-3.11,0-7.14,1.47-7.14,8.4s3.61,8.61,7.14,8.61c4.24,0,7.35-2.73,7.35-8.95Z"></path><path class="cls-6" d="m410.04,1829.14h2.6l.29,3.49c1.01-2.14,3.28-4.03,7.35-4.03,4.75,0,7.77,2.52,7.77,7.94v13.61h-2.94v-13.28c0-4.33-2.14-5.71-5.5-5.71-3.82,0-6.64,2.69-6.64,5.63v13.36h-2.94v-21Z"></path><path class="cls-6" d="m434.14,1844.34c0-3.95,2.23-6.09,7.85-6.09h6.34v-1.72c0-2.98-1.26-5.42-5.46-5.42-3.95,0-5.33,1.51-5.33,4.12v.88h-2.98v-.84c0-5,4.2-6.68,8.32-6.68,5.8,0,8.4,2.86,8.4,8.44v13.11h-2.06l-.55-2.98h-.08c-1.26,1.89-3.7,3.53-7.35,3.53-4.92,0-7.1-2.31-7.1-6.34Zm14.2-1.85v-1.76h-7.02c-2.65,0-4.03.92-4.03,3.61,0,2.35,1.26,3.86,4.49,3.86,4.16,0,6.55-2.14,6.55-5.71Z"></path><path class="cls-6" d="m458.63,1829.14h2.6l.29,3.91c1.01-2.14,3.07-4.45,6.76-4.45,1.26,0,2.18.21,3.02.55v3.15c-1.13-.5-2.1-.76-3.4-.76-3.74,0-6.34,2.81-6.34,5.75v12.86h-2.94v-21Z"></path><path class="cls-6" d="m475.93,1829.14h2.6l.29,3.91c1.01-2.14,3.07-4.45,6.76-4.45,1.26,0,2.18.21,3.02.55v3.15c-1.13-.5-2.1-.76-3.4-.76-3.74,0-6.34,2.81-6.34,5.75v12.86h-2.94v-21Z"></path><path class="cls-6" d="m490.93,1839.64c0-6.22,3.32-11.05,10.38-11.05,6.6,0,10.25,4.83,10.25,11.05s-3.7,11.05-10.29,11.05c-7.27,0-10.33-4.83-10.33-11.05Zm17.56,0c0-5.34-2.9-8.49-7.23-8.49-4.75,0-7.27,3.15-7.27,8.49s2.56,8.49,7.27,8.49c4.33,0,7.23-3.15,7.23-8.49Z"></path><path class="cls-6" d="m513.86,1829.18v-.04h2.98l5.76,17.47h.08l6.3-17.47h2.69l6.18,17.47h.08l5.75-17.47h2.86v.04l-7.18,20.96h-3.02l-5.97-17.06h-.08l-6.22,17.06h-3.02l-7.18-20.96Z"></path><path class="cls-6" d="m560.61,1842.75v-13.61h2.94v13.27c0,4.33,2.14,5.71,5.42,5.71,3.74,0,6.55-2.69,6.55-5.63v-13.36h2.94v21h-2.6l-.25-3.36h-.08c-.97,2.02-3.23,3.91-7.23,3.91-4.66,0-7.69-2.52-7.69-7.94Z"></path><path class="cls-6" d="m585.81,1829.14h2.39l.34,3.86h.08c1.13-2.48,4.03-4.41,7.86-4.41,6.3,0,9.66,3.99,9.66,11.01s-4.28,11.09-9.87,11.09c-3.78,0-6.39-1.6-7.44-3.7h-.08v11.55h-2.94v-29.4Zm17.18,10.63c0-7.18-3.4-8.61-6.93-8.61-4.24,0-7.56,2.73-7.56,8.44,0,6.01,3.44,8.57,7.44,8.57,3.02,0,7.06-1.47,7.06-8.4Z"></path><path class="cls-6" d="m612.01,1829.14h2.39l.34,3.86h.08c1.13-2.48,4.03-4.41,7.85-4.41,6.3,0,9.66,3.99,9.66,11.01s-4.28,11.09-9.87,11.09c-3.78,0-6.39-1.6-7.44-3.7h-.08v11.55h-2.94v-29.4Zm17.18,10.63c0-7.18-3.4-8.61-6.93-8.61-4.24,0-7.56,2.73-7.56,8.44,0,6.01,3.44,8.57,7.44,8.57,3.02,0,7.06-1.47,7.06-8.4Z"></path><path class="cls-6" d="m655.49,1840.65h-15.96c.17,4.79,2.48,7.48,6.93,7.48,3.82,0,5.67-1.43,5.96-4.83h2.98c-.29,4.24-3.28,7.39-9.03,7.39-7.06,0-9.83-4.66-9.83-10.88s3.23-11.22,10-11.22,8.95,3.99,8.95,10.21v1.85Zm-3.11-2.98c0-4.45-1.72-6.55-5.92-6.55s-6.55,2.65-6.89,6.97h12.81v-.42Z"></path><path class="cls-6" d="m661.36,1829.14h2.6l.29,3.91c1.01-2.14,3.07-4.45,6.76-4.45,1.26,0,2.18.21,3.02.55v3.15c-1.13-.5-2.1-.76-3.4-.76-3.74,0-6.34,2.81-6.34,5.75v12.86h-2.94v-21Z"></path><path class="cls-6" d="m676.36,1839.81c0-6.38,3.23-11.22,10-11.22s8.95,3.91,8.95,8.95v.42h-3.11v-.63c0-3.82-1.64-6.09-5.84-6.09-4.75,0-7.02,3.11-7.02,8.4,0,5.63,2.39,8.49,6.93,8.49,3.82,0,5.84-1.85,5.92-5.67h3.02c-.08,4.66-3.15,8.23-9.03,8.23-7.23,0-9.83-4.75-9.83-10.88Z"></path><path class="cls-6" d="m699.71,1844.34c0-3.95,2.23-6.09,7.86-6.09h6.34v-1.72c0-2.98-1.26-5.42-5.46-5.42-3.95,0-5.33,1.51-5.33,4.12v.88h-2.98v-.84c0-5,4.2-6.68,8.32-6.68,5.8,0,8.4,2.86,8.4,8.44v13.11h-2.06l-.55-2.98h-.08c-1.26,1.89-3.7,3.53-7.35,3.53-4.92,0-7.1-2.31-7.1-6.34Zm14.2-1.85v-1.76h-7.02c-2.65,0-4.03.92-4.03,3.61,0,2.35,1.26,3.86,4.49,3.86,4.16,0,6.55-2.14,6.55-5.71Z"></path><path class="cls-6" d="m722.31,1843.71v-1.18h2.94v1.13c0,2.86,2.14,4.5,5.97,4.5s5.8-1.01,5.8-3.78c0-2.06-1.01-2.81-3.86-3.32l-4.62-.84c-3.02-.55-5.54-2.02-5.54-5.5,0-3.15,2.35-6.13,8.4-6.13s8.4,3.03,8.4,7.23v.88h-2.98v-.76c0-3.44-2.14-4.91-5.42-4.91-3.95,0-5.33,1.34-5.33,3.36s1.01,2.86,3.91,3.4l4.03.76c4.12.76,6.09,1.93,6.09,5.59,0,4.58-4.12,6.55-8.78,6.55-7.31,0-8.99-3.28-8.99-6.97Z"></path><path class="cls-6" d="m763.22,1840.65h-15.96c.17,4.79,2.48,7.48,6.93,7.48,3.82,0,5.67-1.43,5.97-4.83h2.98c-.29,4.24-3.28,7.39-9.03,7.39-7.06,0-9.83-4.66-9.83-10.88s3.23-11.22,10-11.22,8.95,3.99,8.95,10.21v1.85Zm-3.11-2.98c0-4.45-1.72-6.55-5.92-6.55s-6.55,2.65-6.89,6.97h12.81v-.42Z"></path><path class="cls-6" d="m778.75,1817.38h2.94v32.77h-2.94v-32.77Z"></path><path class="cls-6" d="m806.31,1840.65h-15.96c.17,4.79,2.48,7.48,6.93,7.48,3.82,0,5.67-1.43,5.97-4.83h2.98c-.29,4.24-3.28,7.39-9.03,7.39-7.06,0-9.83-4.66-9.83-10.88s3.23-11.22,10-11.22,8.95,3.99,8.95,10.21v1.85Zm-3.11-2.98c0-4.45-1.72-6.55-5.92-6.55s-6.55,2.65-6.89,6.97h12.81v-.42Z"></path><path class="cls-6" d="m812.77,1843.75v-12.18h-4.16v-2.44h4.16v-6.05l2.94-1.43v7.48h11.85v-6.05l2.94-1.43v7.48h5.92v2.44h-5.92v11.8c0,2.81.76,4.58,3.4,4.58,1.6,0,3.23-.29,4.03-.5v2.61c-.76.21-2.14.59-4.03.59-3.82,0-6.34-1.6-6.34-6.89v-12.18h-11.85v11.8c0,2.81.76,4.58,3.4,4.58,1.6,0,3.23-.29,4.03-.5v2.61c-.76.21-2.14.59-4.03.59-3.82,0-6.34-1.6-6.34-6.89Z"></path><path class="cls-6" d="m859.4,1840.65h-15.96c.17,4.79,2.48,7.48,6.93,7.48,3.82,0,5.67-1.43,5.97-4.83h2.98c-.29,4.24-3.28,7.39-9.03,7.39-7.06,0-9.83-4.66-9.83-10.88s3.23-11.22,10-11.22,8.95,3.99,8.95,10.21v1.85Zm-3.11-2.98c0-4.45-1.72-6.55-5.92-6.55s-6.55,2.65-6.89,6.97h12.81v-.42Z"></path><path class="cls-6" d="m865.27,1829.14h2.6l.29,3.91c1.01-2.14,3.07-4.45,6.76-4.45,1.26,0,2.18.21,3.02.55v3.15c-1.13-.5-2.1-.76-3.4-.76-3.74,0-6.34,2.81-6.34,5.75v12.86h-2.94v-21Z"></path><path class="cls-6" d="m880.48,1843.71v-1.18h2.94v1.13c0,2.86,2.14,4.5,5.97,4.5s5.8-1.01,5.8-3.78c0-2.06-1.01-2.81-3.86-3.32l-4.62-.84c-3.02-.55-5.54-2.02-5.54-5.5,0-3.15,2.35-6.13,8.4-6.13s8.4,3.03,8.4,7.23v.88h-2.98v-.76c0-3.44-2.14-4.91-5.42-4.91-3.95,0-5.33,1.34-5.33,3.36s1.01,2.86,3.91,3.4l4.03.76c4.12.76,6.09,1.93,6.09,5.59,0,4.58-4.12,6.55-8.78,6.55-7.31,0-8.99-3.28-8.99-6.97Z"></path><path class="cls-6" d="m79.54,929.18v-19.95h2.94v19.95c0,9.41,4.07,10.63,8.86,10.63s8.78-1.01,8.78-10.63v-19.95h2.94v19.62c0,11.64-5.33,13.69-11.76,13.69s-11.76-2.06-11.76-13.36Z"></path><path class="cls-6" d="m111.25,920.98h2.6l.29,3.49c1.01-2.14,3.28-4.03,7.35-4.03,4.75,0,7.77,2.52,7.77,7.94v13.61h-2.94v-13.27c0-4.33-2.14-5.71-5.5-5.71-3.82,0-6.64,2.69-6.64,5.63v13.36h-2.94v-21Z"></path><path class="cls-6" d="m136.62,909.22h2.98v6.51h-2.98v-6.51Zm0,11.76h2.94v21h-2.94v-21Z"></path><path class="cls-6" d="m162.58,938.5h-.08c-1.09,2.14-3.65,4.03-7.48,4.03-6.3,0-9.75-3.99-9.75-11.01s4.37-11.09,9.96-11.09c3.78,0,6.59,1.76,7.65,4.28h.04l.29-3.74h2.31v29.41h-2.94v-11.89Zm.34-7.48c0-5.5-3.36-8.07-7.35-8.07-3.02,0-7.14,1.47-7.14,8.4s3.57,8.61,7.1,8.61c4.24,0,7.39-2.73,7.39-8.95Z"></path><path class="cls-6" d="m172.44,934.6v-13.61h2.94v13.27c0,4.33,2.14,5.71,5.42,5.71,3.74,0,6.55-2.69,6.55-5.63v-13.36h2.94v21h-2.6l-.25-3.36h-.08c-.97,2.02-3.23,3.91-7.23,3.91-4.66,0-7.69-2.52-7.69-7.94Z"></path><path class="cls-6" d="m214.91,932.49h-15.96c.17,4.79,2.48,7.48,6.93,7.48,3.82,0,5.67-1.43,5.96-4.83h2.98c-.29,4.24-3.28,7.39-9.03,7.39-7.06,0-9.83-4.66-9.83-10.88s3.23-11.22,10-11.22,8.95,3.99,8.95,10.21v1.85Zm-3.11-2.98c0-4.45-1.72-6.55-5.92-6.55s-6.55,2.65-6.89,6.97h12.81v-.42Z"></path><path class="cls-6" d="m228.55,935.56v-1.18h2.94v1.13c0,2.86,2.14,4.5,5.96,4.5s5.8-1.01,5.8-3.78c0-2.06-1.01-2.81-3.86-3.32l-4.62-.84c-3.02-.55-5.54-2.02-5.54-5.5,0-3.15,2.35-6.13,8.4-6.13s8.4,3.02,8.4,7.23v.88h-2.98v-.76c0-3.44-2.14-4.91-5.42-4.91-3.95,0-5.33,1.34-5.33,3.36s1.01,2.86,3.91,3.4l4.03.76c4.12.76,6.09,1.93,6.09,5.59,0,4.58-4.12,6.55-8.78,6.55-7.31,0-8.99-3.28-8.99-6.97Z"></path><path class="cls-6" d="m252.2,909.22h2.94v15.16c1.05-2.1,3.28-3.95,7.31-3.95,4.75,0,7.77,2.52,7.77,7.94v13.61h-2.94v-13.27c0-4.33-2.14-5.71-5.5-5.71-3.82,0-6.64,2.69-6.64,5.63v13.36h-2.94v-32.77Z"></path><path class="cls-6" d="m276.31,936.19c0-3.95,2.23-6.09,7.86-6.09h6.34v-1.72c0-2.98-1.26-5.42-5.46-5.42-3.95,0-5.33,1.51-5.33,4.12v.88h-2.98v-.84c0-5,4.2-6.68,8.32-6.68,5.8,0,8.4,2.86,8.4,8.44v13.11h-2.06l-.55-2.98h-.08c-1.26,1.89-3.7,3.53-7.35,3.53-4.92,0-7.1-2.31-7.1-6.34Zm14.2-1.85v-1.76h-7.02c-2.65,0-4.03.92-4.03,3.61,0,2.35,1.26,3.86,4.5,3.86,4.16,0,6.55-2.14,6.55-5.71Z"></path><path class="cls-6" d="m300.79,920.98h2.39l.34,3.86h.08c1.13-2.48,4.03-4.41,7.86-4.41,6.3,0,9.66,3.99,9.66,11.01s-4.28,11.09-9.87,11.09c-3.78,0-6.39-1.6-7.44-3.7h-.08v11.55h-2.94v-29.41Zm17.18,10.63c0-7.18-3.4-8.61-6.93-8.61-4.24,0-7.56,2.73-7.56,8.44,0,6.01,3.44,8.57,7.44,8.57,3.02,0,7.06-1.47,7.06-8.4Z"></path><path class="cls-6" d="m344.27,932.49h-15.96c.17,4.79,2.48,7.48,6.93,7.48,3.82,0,5.67-1.43,5.96-4.83h2.98c-.29,4.24-3.28,7.39-9.03,7.39-7.06,0-9.83-4.66-9.83-10.88s3.23-11.22,10-11.22,8.95,3.99,8.95,10.21v1.85Zm-3.11-2.98c0-4.45-1.72-6.55-5.92-6.55s-6.55,2.65-6.89,6.97h12.81v-.42Z"></path><path class="cls-6" d="m358.12,931.49c0-6.22,3.32-11.05,10.38-11.05,6.6,0,10.25,4.83,10.25,11.05s-3.7,11.05-10.29,11.05c-7.27,0-10.33-4.83-10.33-11.05Zm17.56,0c0-5.33-2.9-8.49-7.23-8.49-4.75,0-7.27,3.15-7.27,8.49s2.56,8.49,7.27,8.49c4.33,0,7.23-3.15,7.23-8.49Z"></path><path class="cls-6" d="m388.79,915.94v5.04h5.92v2.44h-5.92v18.57h-2.94v-18.57h-4.16v-2.44h4.16v-5.42c0-5.29,3.15-6.89,6.39-6.89,1.85,0,2.98.29,3.74.55v2.6c-.71-.21-1.89-.46-3.49-.46-2.65,0-3.7,1.76-3.7,4.58Z"></path><path class="cls-6" d="m410.67,919.68h-3.36v-5.08c0-3.95.88-5.29,3.4-5.97l.67,1.85c-1.76.67-2.06,1.09-2.06,3.78v.34h1.34v5.08Zm5.92,0h-3.36v-5.08c0-3.95.88-5.29,3.4-5.97l.67,1.85c-1.76.67-2.06,1.09-2.06,3.78v.34h1.34v5.08Z"></path><path class="cls-6" d="m421.71,925.77c0-11.85,6.51-17.1,14.49-17.1,7.56,0,12.64,3.78,12.64,11.47v.5h-2.86v-.63c0-5.33-3.49-8.7-9.7-8.7-6.72,0-11.47,4.58-11.47,14.28s4.75,14.28,11.76,14.28c5.63,0,9.45-2.52,9.45-8.78v-2.73h-9.83v-2.6h12.64v16.21h-2.1l-.67-3.74c-1.6,2.48-5.17,4.28-9.75,4.28-8.32,0-14.62-4.87-14.62-16.76Z"></path><path class="cls-6" d="m453.67,918.42c1.76-.67,2.06-1.09,2.06-3.78v-.34h-1.34v-5.08h3.36v5.08c0,3.95-.88,5.29-3.4,5.97l-.67-1.85Zm5.92,0c1.76-.67,2.06-1.09,2.06-3.78v-.34h-1.34v-5.08h3.36v5.08c0,3.95-.88,5.29-3.4,5.97l-.67-1.85Z"></path><path class="cls-6" d="m843.36,3592.53c0-12.01,6.76-17.26,14.74-17.26,6.97,0,12.39,3.74,12.39,12.01v.8h-2.86v-.92c0-5.92-3.78-9.24-9.45-9.24-6.72,0-11.76,4.58-11.76,14.32s5.04,14.24,11.72,14.24c5.38,0,9.54-2.86,9.54-9.2v-.59h2.77v.42c0,8.02-5.33,12.01-12.56,12.01-7.98,0-14.53-4.87-14.53-16.59Z"></path><path class="cls-6" d="m876.79,3587.57h2.6l.29,3.91c1.01-2.14,3.07-4.45,6.76-4.45,1.26,0,2.18.21,3.02.55v3.15c-1.13-.5-2.1-.76-3.4-.76-3.74,0-6.34,2.81-6.34,5.75v12.85h-2.94v-21Z"></path><path class="cls-6" d="m891.79,3598.08c0-6.22,3.32-11.05,10.38-11.05,6.6,0,10.25,4.83,10.25,11.05s-3.7,11.05-10.29,11.05c-7.27,0-10.33-4.83-10.33-11.05Zm17.56,0c0-5.33-2.9-8.49-7.23-8.49-4.75,0-7.27,3.15-7.27,8.49s2.56,8.49,7.27,8.49c4.33,0,7.23-3.15,7.23-8.49Z"></path><path class="cls-6" d="m916.4,3602.15v-1.18h2.94v1.13c0,2.86,2.14,4.49,5.97,4.49s5.8-1.01,5.8-3.78c0-2.06-1.01-2.81-3.87-3.32l-4.62-.84c-3.02-.55-5.54-2.02-5.54-5.5,0-3.15,2.35-6.13,8.4-6.13s8.4,3.02,8.4,7.23v.88h-2.98v-.76c0-3.45-2.14-4.92-5.42-4.92-3.95,0-5.33,1.34-5.33,3.36s1.01,2.86,3.91,3.4l4.03.76c4.12.76,6.09,1.93,6.09,5.59,0,4.58-4.12,6.55-8.78,6.55-7.31,0-8.99-3.28-8.99-6.97Z"></path><path class="cls-6" d="m938.15,3602.15v-1.18h2.94v1.13c0,2.86,2.14,4.49,5.97,4.49s5.8-1.01,5.8-3.78c0-2.06-1.01-2.81-3.86-3.32l-4.62-.84c-3.02-.55-5.54-2.02-5.54-5.5,0-3.15,2.35-6.13,8.4-6.13s8.4,3.02,8.4,7.23v.88h-2.98v-.76c0-3.45-2.14-4.92-5.42-4.92-3.95,0-5.33,1.34-5.33,3.36s1.01,2.86,3.91,3.4l4.03.76c4.12.76,6.09,1.93,6.09,5.59,0,4.58-4.12,6.55-8.78,6.55-7.31,0-8.99-3.28-8.99-6.97Z"></path><path class="cls-6" d="m964.62,3605.09h-.08l-.76,3.49h-1.97v-32.77h2.94v15.25h.04c1.26-2.31,4.08-4.03,7.69-4.03,6.3,0,9.66,3.99,9.66,11.01s-4.29,11.09-9.87,11.09c-3.78,0-6.55-1.64-7.65-4.03Zm14.37-6.89c0-7.18-3.4-8.61-6.93-8.61-4.24,0-7.56,2.73-7.56,8.44,0,6.01,3.44,8.57,7.44,8.57,3.02,0,7.06-1.47,7.06-8.4Z"></path><path class="cls-6" d="m986.54,3602.78c0-3.95,2.23-6.09,7.85-6.09h6.34v-1.72c0-2.98-1.26-5.42-5.46-5.42-3.95,0-5.33,1.51-5.33,4.12v.88h-2.98v-.84c0-5,4.2-6.68,8.32-6.68,5.8,0,8.4,2.86,8.4,8.44v13.11h-2.06l-.55-2.98h-.08c-1.26,1.89-3.7,3.53-7.35,3.53-4.91,0-7.1-2.31-7.1-6.34Zm14.2-1.85v-1.76h-7.02c-2.65,0-4.03.92-4.03,3.61,0,2.35,1.26,3.86,4.49,3.86,4.16,0,6.55-2.14,6.55-5.71Z"></path><path class="cls-6" d="m1011.03,3587.57h2.6l.29,3.91c1.01-2.14,3.07-4.45,6.76-4.45,1.26,0,2.18.21,3.02.55v3.15c-1.13-.5-2.1-.76-3.4-.76-3.74,0-6.34,2.81-6.34,5.75v12.85h-2.94v-21Z"></path><path class="cls-6" d="m1037.99,3575.81h2.98v6.51h-2.98v-6.51Zm0,11.76h2.94v21h-2.94v-21Z"></path><path class="cls-6" d="m1048.32,3587.57h2.6l.29,3.49c1.01-2.14,3.28-4.03,7.35-4.03,4.75,0,7.77,2.52,7.77,7.94v13.61h-2.94v-13.27c0-4.33-2.14-5.71-5.5-5.71-3.82,0-6.64,2.69-6.64,5.63v13.36h-2.94v-21Z"></path><path class="cls-6" d="m1085.03,3586.27h-3.36v-5.08c0-3.95.88-5.29,3.4-5.96l.67,1.85c-1.76.67-2.06,1.09-2.06,3.78v.34h1.34v5.08Zm5.92,0h-3.36v-5.08c0-3.95.88-5.29,3.4-5.96l.67,1.85c-1.76.67-2.06,1.09-2.06,3.78v.34h1.34v5.08Z"></path><path class="cls-6" d="m1113.55,3587.62l-8.07,10.5,8.02,10.42v.04h-3.44l-6.34-8.44-6.43,8.44h-3.28v-.04l8.02-10.38-8.07-10.54v-.04h3.44l6.39,8.49,6.43-8.44v-.04h3.32v.04Z"></path><path class="cls-6" d="m1116.19,3585.01c1.76-.67,2.06-1.09,2.06-3.78v-.34h-1.34v-5.08h3.36v5.08c0,3.95-.88,5.29-3.4,5.96l-.67-1.85Zm5.92,0c1.76-.67,2.06-1.09,2.06-3.78v-.34h-1.34v-5.08h3.36v5.08c0,3.95-.88,5.29-3.4,5.96l-.67-1.85Z"></path><path class="cls-6" d="m1140.47,3602.78c0-3.95,2.23-6.09,7.86-6.09h6.34v-1.72c0-2.98-1.26-5.42-5.46-5.42-3.95,0-5.33,1.51-5.33,4.12v.88h-2.98v-.84c0-5,4.2-6.68,8.32-6.68,5.8,0,8.4,2.86,8.4,8.44v13.11h-2.06l-.55-2.98h-.08c-1.26,1.89-3.7,3.53-7.35,3.53-4.91,0-7.1-2.31-7.1-6.34Zm14.2-1.85v-1.76h-7.02c-2.65,0-4.03.92-4.03,3.61,0,2.35,1.26,3.86,4.5,3.86,4.16,0,6.55-2.14,6.55-5.71Z"></path><path class="cls-6" d="m1164.96,3587.57h2.6l.29,3.49c1.01-2.14,3.28-4.03,7.35-4.03,4.75,0,7.77,2.52,7.77,7.94v13.61h-2.94v-13.27c0-4.33-2.14-5.71-5.5-5.71-3.82,0-6.64,2.69-6.64,5.63v13.36h-2.94v-21Z"></path><path class="cls-6" d="m1188.64,3598.12c0-7.1,4.28-11.09,10.04-11.09,3.7,0,6.22,1.6,7.31,3.74h.04v-14.95h2.94v32.77h-1.97l-.67-3.61h-.08c-1.18,2.31-3.95,4.16-7.77,4.16-6.3,0-9.83-3.99-9.83-11.01Zm17.64-.5c0-5.5-3.36-8.07-7.35-8.07-3.11,0-7.14,1.47-7.14,8.4s3.61,8.61,7.14,8.61c4.24,0,7.35-2.73,7.35-8.95Z"></path><path class="cls-6" d="m1227.66,3586.27h-3.36v-5.08c0-3.95.88-5.29,3.4-5.96l.67,1.85c-1.76.67-2.06,1.09-2.06,3.78v.34h1.34v5.08Zm5.92,0h-3.36v-5.08c0-3.95.88-5.29,3.4-5.96l.67,1.85c-1.76.67-2.06,1.09-2.06,3.78v.34h1.34v5.08Z"></path><path class="cls-6" d="m1237.66,3606.02l14.7-15.88h-14.58v-2.56h18.23v2.56l-14.7,15.84h14.66v2.6h-18.32v-2.56Z"></path><path class="cls-6" d="m1259.37,3585.01c1.76-.67,2.06-1.09,2.06-3.78v-.34h-1.34v-5.08h3.36v5.08c0,3.95-.88,5.29-3.4,5.96l-.67-1.85Zm5.92,0c1.76-.67,2.06-1.09,2.06-3.78v-.34h-1.34v-5.08h3.36v5.08c0,3.95-.88,5.29-3.4,5.96l-.67-1.85Z"></path><path class="cls-6" d="m1040.24,2731.61h-11.51v-2.6h25.96v2.6h-11.51v30.16h-2.94v-30.16Z"></path><path class="cls-6" d="m1053.42,2755.98c0-3.95,2.23-6.09,7.86-6.09h6.34v-1.72c0-2.98-1.26-5.42-5.46-5.42-3.95,0-5.33,1.51-5.33,4.12v.88h-2.98v-.84c0-5,4.2-6.68,8.32-6.68,5.8,0,8.4,2.86,8.4,8.44v13.11h-2.06l-.55-2.98h-.08c-1.26,1.89-3.7,3.53-7.35,3.53-4.91,0-7.1-2.31-7.1-6.34Zm14.2-1.85v-1.76h-7.02c-2.65,0-4.03.92-4.03,3.61,0,2.35,1.26,3.86,4.5,3.86,4.16,0,6.55-2.14,6.55-5.71Z"></path><path class="cls-6" d="m1077.91,2729.01h2.94v32.77h-2.94v-32.77Z"></path><path class="cls-6" d="m1088.2,2729.01h2.94v32.77h-2.94v-32.77Z"></path><path class="cls-6" d="m1109.83,2739.47h-3.36v-5.08c0-3.95.88-5.29,3.4-5.96l.67,1.85c-1.76.67-2.06,1.09-2.06,3.78v.34h1.34v5.08Zm5.92,0h-3.36v-5.08c0-3.95.88-5.29,3.4-5.96l.67,1.85c-1.76.67-2.06,1.09-2.06,3.78v.34h1.34v5.08Z"></path><path class="cls-6" d="m1133.1,2759.08v2.6c-.76.21-2.14.59-4.03.59-3.82,0-6.34-1.6-6.34-6.89v-12.18h-4.16v-2.44h4.16v-6.05l2.94-1.43v7.48h5.92v2.44h-5.92v11.8c0,2.82.76,4.58,3.4,4.58,1.6,0,3.23-.29,4.03-.5Z"></path><path class="cls-6" d="m1134.99,2738.21c1.76-.67,2.06-1.09,2.06-3.78v-.34h-1.34v-5.08h3.36v5.08c0,3.95-.88,5.29-3.4,5.96l-.67-1.85Zm5.92,0c1.76-.67,2.06-1.09,2.06-3.78v-.34h-1.34v-5.08h3.36v5.08c0,3.95-.88,5.29-3.4,5.96l-.67-1.85Z"></path><path class="cls-6" d="m1421.88,909.22h2.94v18.65l17.05-18.65h3.61v.04l-12.31,13.53,13.36,19.16v.04h-3.65l-11.68-17.06-6.38,7.02v10.04h-2.94v-32.77Z"></path><path class="cls-6" d="m1450.73,920.98h2.6l.29,3.49c1.01-2.14,3.28-4.03,7.35-4.03,4.75,0,7.77,2.52,7.77,7.94v13.61h-2.94v-13.27c0-4.33-2.14-5.71-5.5-5.71-3.82,0-6.64,2.69-6.64,5.63v13.36h-2.94v-21Z"></path><path class="cls-6" d="m1474.42,931.49c0-6.22,3.32-11.05,10.38-11.05,6.6,0,10.25,4.83,10.25,11.05s-3.7,11.05-10.29,11.05c-7.27,0-10.33-4.83-10.33-11.05Zm17.56,0c0-5.33-2.9-8.49-7.23-8.49-4.75,0-7.27,3.15-7.27,8.49s2.56,8.49,7.27,8.49c4.33,0,7.23-3.15,7.23-8.49Z"></path><path class="cls-6" d="m1511.88,939.3v2.6c-.76.21-2.14.59-4.03.59-3.82,0-6.34-1.6-6.34-6.89v-12.18h-4.16v-2.44h4.16v-6.05l2.94-1.43v7.48h5.92v2.44h-5.92v11.8c0,2.81.76,4.58,3.4,4.58,1.6,0,3.23-.29,4.03-.5Z"></path><path class="cls-6" d="m1514.82,935.56v-1.18h2.94v1.13c0,2.86,2.14,4.5,5.97,4.5s5.8-1.01,5.8-3.78c0-2.06-1.01-2.81-3.87-3.32l-4.62-.84c-3.02-.55-5.54-2.02-5.54-5.5,0-3.15,2.35-6.13,8.4-6.13s8.4,3.02,8.4,7.23v.88h-2.98v-.76c0-3.44-2.14-4.91-5.42-4.91-3.95,0-5.33,1.34-5.33,3.36s1.01,2.86,3.91,3.4l4.03.76c4.12.76,6.09,1.93,6.09,5.59,0,4.58-4.12,6.55-8.78,6.55-7.31,0-8.99-3.28-8.99-6.97Z"></path><path class="cls-6" d="m1548.13,909.22h2.98v6.51h-2.98v-6.51Zm0,11.76h2.94v21h-2.94v-21Z"></path><path class="cls-6" d="m1558.46,920.98h2.6l.29,3.49c1.01-2.14,3.28-4.03,7.35-4.03,4.75,0,7.77,2.52,7.77,7.94v13.61h-2.94v-13.27c0-4.33-2.14-5.71-5.5-5.71-3.82,0-6.64,2.69-6.64,5.63v13.36h-2.94v-21Z"></path><path class="cls-6" d="m1595.17,919.68h-3.36v-5.08c0-3.95.88-5.29,3.4-5.97l.67,1.85c-1.76.67-2.06,1.09-2.06,3.78v.34h1.34v5.08Zm5.92,0h-3.36v-5.08c0-3.95.88-5.29,3.4-5.97l.67,1.85c-1.76.67-2.06,1.09-2.06,3.78v.34h1.34v5.08Z"></path><path class="cls-6" d="m1610.29,938.5h-.08l-.76,3.49h-1.97v-32.77h2.94v15.25h.04c1.26-2.31,4.07-4.03,7.69-4.03,6.3,0,9.66,3.99,9.66,11.01s-4.28,11.09-9.87,11.09c-3.78,0-6.55-1.64-7.65-4.03Zm14.37-6.89c0-7.18-3.4-8.61-6.93-8.61-4.24,0-7.56,2.73-7.56,8.44,0,6.01,3.44,8.57,7.44,8.57,3.02,0,7.06-1.47,7.06-8.4Z"></path><path class="cls-6" d="m1629.06,918.42c1.76-.67,2.06-1.09,2.06-3.78v-.34h-1.34v-5.08h3.36v5.08c0,3.95-.88,5.29-3.4,5.97l-.67-1.85Zm5.92,0c1.76-.67,2.06-1.09,2.06-3.78v-.34h-1.34v-5.08h3.36v5.08c0,3.95-.88,5.29-3.4,5.97l-.67-1.85Z"></path><path class="cls-6" d="m1642,935.77h3.36v6.22c0,3.95-.88,5.29-3.4,5.96l-.67-1.85c1.76-.67,2.06-1.09,2.06-3.78v-.34h-1.34v-6.22Z"></path><path class="cls-6" d="m1663,919.68h-3.36v-5.08c0-3.95.88-5.29,3.4-5.97l.67,1.85c-1.76.67-2.06,1.09-2.06,3.78v.34h1.34v5.08Zm5.92,0h-3.36v-5.08c0-3.95.88-5.29,3.4-5.97l.67,1.85c-1.76.67-2.06,1.09-2.06,3.78v.34h1.34v5.08Z"></path><path class="cls-6" d="m1675.3,920.98h2.6l.29,3.91c1.01-2.14,3.07-4.45,6.76-4.45,1.26,0,2.18.21,3.02.55v3.15c-1.13-.5-2.1-.76-3.4-.76-3.74,0-6.34,2.81-6.34,5.75v12.85h-2.94v-21Z"></path><path class="cls-6" d="m1690.71,918.42c1.76-.67,2.06-1.09,2.06-3.78v-.34h-1.34v-5.08h3.36v5.08c0,3.95-.88,5.29-3.4,5.97l-.67-1.85Zm5.92,0c1.76-.67,2.06-1.09,2.06-3.78v-.34h-1.34v-5.08h3.36v5.08c0,3.95-.88,5.29-3.4,5.97l-.67-1.85Z"></path><line class="cls-3" x1="1163.64" y1="1237.84" x2="1488.91" y2="961.09"></line></g><g id="words"><circle class="cls-7" cx="1565.56" cy="2994.49" r="114.62"></circle><circle class="cls-7" cx="1056.15" cy="2121.44" r="136.21"></circle><circle class="cls-8" cx="1130.97" cy="1276.46" r="44.62"></circle><path class="cls-6" d="m1108.88,2381.68c-5.28,0-10.31-.89-14.95-2.7-21.33-8.32-29.22-32.94-20.12-62.72l36.86-119.15,15.09,4.67-36.85,119.12c-6.59,21.58-2.47,38.2,10.77,43.37,10.48,4.09,24.92.53,39.62-9.75,13.1-9.17,32.53-28.04,50.66-65.84l14.24,6.83c-15.52,32.36-34.83,57.24-55.85,71.95-13.37,9.36-27.11,14.23-39.46,14.23Z"></path><path class="cls-6" d="m980.61,2381.12c-18.89,0-36.06-5.63-50.26-16.59l9.65-12.51c14.17,10.93,32.25,15.25,52.28,12.48,30.07-4.16,63.32-24.51,82.74-50.65l12.68,9.42c-22.13,29.78-58.73,52.1-93.26,56.88-4.7.65-9.31.97-13.83.97Z"></path><path class="cls-6" d="m912.24,2556.8l-15.13-4.55,135.26-450.04c7.62-25.23,17.8-46.8,29.44-62.39,12.73-17.06,26.55-25.89,39.91-25.56,12.43.25,19.04,6.54,22.39,11.77,5.16,8.05,6.67,19.69,4.49,34.59-1.66,11.36-5.43,24.17-10.63,36.08l-.06.13c-18.17,39.64-59.24,100.82-122.09,181.85l-83.59,278.12Zm188.78-526.76c-7.89,0-17.29,6.81-26.55,19.22-10.55,14.14-19.88,34.02-26.97,57.5l-38.78,129.03c47.83-63.63,79.66-112.47,94.81-145.48,10.09-23.16,13.15-46.6,7.28-55.77-1.3-2.03-3.55-4.38-9.45-4.5-.11,0-.23,0-.34,0Z"></path><path class="cls-6" d="m903.16,2383.93c-6.18,0-12.1-1.08-17.53-3.26-11.16-4.49-19.54-13.43-23.62-25.19-4.2-12.13-3.79-27.09,1.18-43.28l35.09-113.39,15.09,4.67-35.08,113.37c-7.39,24.06-2.32,42.91,13.23,49.16,20.76,8.34,54.98-6.9,77.48-51.6l14.11,7.1c-12.21,24.25-28.55,42.63-47.26,53.16-10.87,6.12-22.16,9.24-32.69,9.24Z"></path><path class="cls-6" d="m801.33,2383.44c-16.07,0-29.92-6.64-39.1-18.78-10.59-14-13.52-33.59-7.83-52.42l35.12-113.43,15.09,4.67-35.1,113.37c-4.22,13.96-2.23,28.29,5.32,38.27,6.35,8.39,15.79,12.72,27.27,12.51h.14c28.17,0,47.57-15.8,59.33-48.29l14.85,5.38c-14.09,38.93-39.02,58.68-74.11,58.71-.33,0-.66,0-.98,0Z"></path><path class="cls-6" d="m701.73,2384.54c-5.88,0-11.57-1.08-16.87-3.25-14.04-5.75-24.3-18.85-28.9-36.87-4.93-19.34-3.59-43.63,3.98-72.2,15.21-57.34,48.61-80.31,73.24-77.39,18.21,2.16,29.83,17.31,30.35,39.54l-15.79.36c-.32-13.98-6.46-23.04-16.42-24.22-24.34-2.9-47.08,31.72-56.11,65.76-14.81,55.86-1.63,83.33,15.64,90.41,16.71,6.84,43.36-3.29,61.97-35.9l13.72,7.83c-10.15,17.79-23.41,31.29-38.33,39.04-8.83,4.59-17.86,6.91-26.47,6.91Z"></path><path class="cls-6" d="m485.97,2383.43l-.56-15.79c4-.14,8.17-.25,12.59-.36,24.21-.61,54.35-1.37,82.75-9.08,32.55-8.83,56.36-24.94,72.8-49.24l13.08,8.85c-41.98,62.07-117.96,63.99-168.24,65.26-4.37.11-8.51.22-12.43.35Z"></path><path class="cls-6" d="m476.75,2384.21c-5.84,0-11.58-.77-17.04-2.33-12.78-3.67-22.96-11.64-28.65-22.44-6.25-11.86-7.11-26.93-2.47-43.58l15.22,4.24c-9.5,34.09,11.01,43.95,20.26,46.6,22.12,6.34,58.71-5.02,69.89-42.88l44.85-152.38c-4-.14-8.12-.47-12.37-1.01-36.43-4.9-61.61-22.03-69.13-46.99-9.18-30.43,9.38-67.89,52.27-105.48l10.41,11.88c-51.21,44.89-51.78,75.06-47.56,89.04,5.66,18.77,26.09,31.85,56.05,35.89,5.14.65,10.14.97,14.96.94l24.2-82.24c5.72-19.21,13.09-33.16,22.53-42.68,11.47-11.56,25.63-16.12,42.09-13.53,21.25,3.23,32.42,23.9,28.42,52.65-3.6,25.87-18.3,52.66-39.33,71.66-13.97,12.62-35.73,26.39-65.93,29.36l-46.31,157.35c-6.06,20.52-19.45,37.2-37.71,46.99-11.01,5.9-23.04,8.94-34.65,8.94Zm187.09-351.83c-24.49,0-35.11,25.61-41.06,45.57l-22.47,76.36c50.56-8.38,80.02-52.81,84.72-86.58,3.27-23.51-5.7-33.43-15.19-34.87-2.09-.33-4.09-.48-6-.48Z"></path><rect class="cls-6" x="1187.28" y="2098.9" width="138.12" height="15.8"></rect><path class="cls-6" d="m1229.11,2381.64c-5.97,0-11.78-.79-17.19-2.4-12.59-3.74-22.48-11.78-27.85-22.64-5.83-11.78-6.34-26.7-1.48-43.14l87.49-293.54,15.14,4.51-87.49,293.53c-7.01,23.71-.2,40.53,18.68,46.15,12.89,3.83,29,1.37,43.1-6.59,16.28-9.19,28.41-24.84,34.16-44.08l15.13,4.53c-6.93,23.17-21.68,42.1-41.53,53.31-12.06,6.81-25.49,10.37-38.17,10.37Z"></path><path class="cls-6" d="m1334.2,2382.3c-14.89,0-26.61-6.57-33.84-19.01-9.87-16.98-8.84-40.14-6.24-56.58,3.41-21.58,11.43-44.03,22.57-63.21,18.18-31.29,41.17-48.5,64.78-48.5.14,0,.27,0,.41,0h0c26.03.23,41.48,21.47,41.32,56.84-.23,51.94-35.67,130.46-88.58,130.46-.14,0-.28,0-.42,0Zm47.28-171.51c-17.49,0-36.11,14.79-51.13,40.64-21.15,36.4-28.48,83.01-16.33,103.92,4.36,7.5,10.98,11.15,20.24,11.15.1,0,.2,0,.3,0,10.5,0,30.95-4.99,50.75-38.42,13.53-22.83,21.99-52.08,22.1-76.32.16-35.45-16.01-40.89-25.66-40.97-.08,0-.17,0-.26,0Z"></path><path class="cls-6" d="m1441.37,2382.31c-15.48,0-30.96-7.83-40.62-20.61-9.86-13.04-12.52-29.18-7.51-45.46l36.84-121.38,15.12,4.59-36.85,121.42c-3.49,11.33-1.71,22.44,5,31.31,6.88,9.09,17.9,14.58,28.72,14.33h.18c30.06,0,51.1-24.66,58.62-49.1l15.1,4.64c-5.82,18.93-16.44,34.61-30.7,45.36-12.73,9.59-27.97,14.88-42.92,14.9-.32,0-.65,0-.97,0Z"></path><path class="cls-6" d="m1140.7,2143.99c10.13,0,18.05-8.12,18.05-18.05s-7.92-18.05-18.05-18.05-18.05,8.12-18.05,18.05,8.37,18.05,18.05,18.05"></path><path class="cls-6" d="m1195.46,2452.5c-3.98,1.32-6.62,0-6.62-3.53,0-3.09,3.09-7.04,7.05-8.36l-.43,11.9Zm22.88-18.07c-5.28,7.94-13.2,14.09-22.88,18.07l.43-11.9c5.28-2.19,9.68-5.28,12.32-9.26l10.13,3.09Zm5.28-24.2c1.77,8.81-.43,17.16-5.28,24.2l-10.13-3.09c2.66-3.51,3.53-8.34,2.21-13.64l13.2-7.47Zm-13.2,7.47c-.45-2.64,1.77-6.6,5.28-8.79,3.53-2.21,7.05-1.32,7.92,1.32l-13.2,7.47Z"></path><path class="cls-6" d="m1209.53,2426.94c7.04,0,13.22-5.73,13.22-12.77s-6.17-12.77-13.22-12.77c-7.47,0-13.64,5.73-13.64,12.77s6.17,12.77,13.64,12.77"></path><path class="cls-6" d="m390.05,3292.94v-15.85c75.73-.04,122.45-8.7,151.48-28.07,27-18.02,37.9-44.69,51.7-78.46l14.68,6c-14.24,34.84-26.53,64.94-57.58,85.65-31.79,21.21-81.22,30.69-160.28,30.73Z"></path><path class="cls-6" d="m390.04,3292.95c-14.34,0-27.31-5.16-36.28-14.8-12.73-13.69-15.7-34.34-8.36-58.16l70.43-232.68c5.31-17.26,3.58-31.21-5.01-40.36-8.51-9.07-23.37-12.42-38.78-8.74-23.18,5.54-41.65,24.68-49.41,51.21l-15.22-4.45c9.38-32.06,32.16-55.31,60.94-62.18,20.93-5,41.64.1,54.03,13.32,12.52,13.35,15.58,33.18,8.61,55.84l-70.44,232.68c-5.61,18.21-3.9,33.37,4.81,42.73,7.99,8.59,21.27,11.75,35.53,8.47,22.61-5.22,41.04-24.49,49.28-51.55l72.71-235.55c-18.82-5.53-28.68-20.68-24.68-38.38,4.81-22.46,18.65-30.47,30.02-30.47h.39c6.44.33,12.08,3.47,15.88,8.87,5.66,8.04,6.98,20.94,3.35,32.88l-4.08,13.21c20.74-1.99,45.85-16.72,54.44-50.76l15.37,3.88c-7.45,29.5-24.64,44.91-37.75,52.64-11.49,6.78-24.62,10.34-37.03,10.34l-73.47,237.99c-9.91,32.52-32.67,55.84-60.87,62.35-4.89,1.13-9.73,1.68-14.42,1.68Zm137.99-357.22c-5.14.12-11.54,4.89-14.33,17.97l-.02.1c-2.95,12.98,7.74,17.99,13.89,19.77l5.12-16.59c2.14-7.06,1.66-15.11-1.16-19.11-1.19-1.7-2.43-2.06-3.5-2.14Z"></path><path class="cls-7" d="m620.8,3292.84c-16,0-28.46-6.88-36.01-19.91-9.73-16.78-8.78-39.17-6.28-55,3.28-20.7,11.11-42.5,22.07-61.41,19.06-32.88,44.39-51.72,69.53-51.72.08,0,.16,0,.25,0h.04c27.28.28,43.46,21.73,43.28,57.39-.14,27.03-9.93,59.44-25.55,84.6-18.44,29.69-42.26,46.04-67.05,46.04-.09,0-.19,0-.28,0Zm49.31-172.17c-19.34,0-39.67,15.96-55.81,43.81-20.76,35.82-27.69,79.97-15.79,100.51,4.68,8.07,11.99,12,22.33,12,.07,0,.13,0,.2,0,11.11,0,32.78-5.01,53.62-38.56,14.17-22.81,23.05-52.05,23.17-76.31.18-35.8-17.19-41.34-27.57-41.45-.05,0-.1,0-.15,0Zm18.75-30.83c-.49,0-.97,0-1.46-.02-17.15-.49-32.89-9.33-45.51-25.54l12.51-9.74c9.62,12.36,21.19,19.08,33.46,19.43,13.17.39,26.85-6.77,38.55-20.13l11.93,10.44c-14.47,16.52-31.99,25.56-49.47,25.56Z"></path><path class="cls-6" d="m733.64,3292.84c-17.08,0-33.88-8.49-43.99-22.27-9.37-12.77-11.69-28.39-6.54-43.98l39.09-121.63,15.09,4.85-39.11,121.69c-4.5,13.63-.17,23.66,4.25,29.69,7.16,9.76,19.64,15.95,31.7,15.79h.11c24.96,0,45.35-17.87,55.94-49.02,3.27-9.63,6.71-19.63,10.12-29.57,6.38-18.57,12.97-37.78,18.07-53.29,6.68-20.32,22.03-36.72,39.09-41.78,17.73-5.36,29.82,2.17,39.54,8.22,13.26,8.25,22.83,14.21,48.44-9.33l11.24,11.16-62.82,69.25h34.62v15.85h-49l-58.55,64.54c18.8-2.53,38.25,1.86,57.31,6.16,42.28,9.54,86,19.41,133.54-36.77l12.1,10.24c-23.92,28.27-49.55,44.13-78.36,48.5-25.09,3.8-48.31-1.44-70.77-6.5-29.85-6.74-55.76-12.58-78.54,5.62l-2.22,2.45-11.74-10.65,1.4-1.55-.2-.23c.61-.53,1.22-1.05,1.83-1.56l72.79-80.24h-33.29v-15.85h47.67l43.42-47.86c-11.16.25-19.68-5.05-27.24-9.76-8.78-5.47-15.72-9.78-26.61-6.5-11.89,3.53-23.62,16.5-28.57,31.55-5.13,15.61-11.74,34.86-18.14,53.49-3.41,9.93-6.84,19.91-10.1,29.53-6.53,19.21-16.3,34.22-29.05,44.63-12.11,9.89-26.58,15.13-41.84,15.14-.22,0-.45,0-.67,0Z"></path><path class="cls-6" d="m1283.3,3293.65c-18.45,0-34.54-7.5-44.15-20.64-9.36-12.8-11.54-29.8-5.98-46.64l39.17-119.08,15.06,4.95-39.18,119.08c-4,12.1-2.67,23.58,3.72,32.32,6.68,9.14,18.32,14.26,32.02,14.14,27.64,0,54.56-24.48,65.55-59.52l15.13,4.74c-6.5,20.72-17.67,38.41-32.31,51.16-14.41,12.56-31.56,19.47-48.28,19.47-.25,0-.51,0-.76,0Z"></path><path class="cls-6" d="m1169.33,3293.57c-17.12,0-32.61-6.03-42.56-17.09-11.43-12.7-14.17-30.47-7.71-50.06l95.06-300.34,15.11,4.79-95.11,300.48c-4.69,14.17-3.16,26.11,4.42,34.53,9.13,10.13,26.33,14.22,43.82,10.4,11.37-2.48,39.04-12.15,50.38-48.35l15.13,4.74c-9.6,30.62-32.82,52.71-62.13,59.1-5.55,1.21-11.07,1.8-16.42,1.8Z"></path><path class="cls-6" d="m1054.98,3293.29c-27.34,0-43.91-19.41-44.31-51.98-.33-26.46,10.01-59.51,26.97-86.25,19.54-30.82,43.84-48.06,68.42-48.55h0c15.49-.3,27.68,6.25,35.25,18.97,5.41,9.08,11.02,25.85,7.05,54.15-2.9,20.68-10.37,42.39-21.03,61.15-18.97,33.38-45.25,52.52-72.08,52.52-.09,0-.18,0-.27,0Zm51.39-170.94h0c-18.81.38-38.98,15.39-55.34,41.19-15.41,24.29-24.8,54.01-24.51,77.57.14,11.5,2.65,20.82,7.26,26.95,4.74,6.3,11.68,9.37,21.22,9.37.07,0,.14,0,.21,0,21,0,42.25-16.22,58.33-44.5,20.07-35.31,26.29-78.95,14.14-99.35-4.61-7.75-11.58-11.43-21.31-11.23Z"></path><path class="cls-6" d="m1391.68,3295.51c-15.91,0-30.77-7.44-39.74-19.91-9.38-13.03-11.39-29.61-5.68-46.66l39.59-121.52,15.07,4.91-39.61,121.58c-4.07,12.15-2.82,23.64,3.49,32.42,6,8.34,16.05,13.32,26.87,13.32,25.17,0,59.57-24.18,75.6-77.26l15.18,4.58c-8.04,26.62-21.23,49.11-38.15,65.05-16.07,15.14-34.77,23.48-52.63,23.48Z"></path><path class="cls-6" d="m1611.79,3296.33c-6.61,0-12.91-1.11-18.65-3.27-24.78-9.33-34.81-35.54-25.55-66.76l16.09-54.03c6.45-21.79-1.29-38.74-20.69-45.3-22.8-7.72-54.35,2.11-65.56,31.44l-14.81-5.66c14.57-38.13,55.7-50.86,85.45-40.79,27.6,9.34,39.69,34.79,30.81,64.83l-16.1,54.04c-6.91,23.31-.95,41.04,15.94,47.4,11.16,4.2,25.21,2.5,38.56-4.68,11.21-6.02,27.09-18.67,39.1-44.71l14.4,6.64c-19.38,42.02-51.79,60.86-79,60.86Z"></path><path class="cls-6" d="m1456.12,3294.18l-15.18-4.58,87.3-289.08c16.91-55.69,52.67-77.66,77.73-70.05,9.7,2.94,16.97,10.17,20.49,20.34,3.5,10.11,3.11,22.82-1.12,36.77-11.84,39.97-57.33,82.4-114.93,136.13l-3.18,2.96-.4-.43-50.72,167.95Zm139.96-349.3c-6.98,0-15.15,3.48-22.82,9.9-8.91,7.46-21.32,22.25-29.85,50.32l-27.79,92.03c48.11-45.1,84.95-81.75,94.53-114.11,5.86-19.34,2.41-33.99-8.79-37.39-1.66-.5-3.43-.75-5.29-.75Z"></path><path class="cls-6" d="m263.63,569.7l-.06-15.92c98.53-.37,155.37-29.2,178.88-90.75l14.87,5.68c-13.78,36.06-38.67,62.71-73.97,79.2-30.99,14.48-70.16,21.6-119.72,21.79Z"></path><path class="cls-6" d="m262.62,569.39c-.59,0-1.18,0-1.77-.03-16.47-.45-30.93-7.53-39.66-19.42-6.58-8.97-12.95-24.87-5.91-49.68l15.31,4.35c-4.19,14.74-3,27.16,3.42,35.92,5.8,7.9,15.74,12.61,27.27,12.93,21.33.59,48.65-13.29,58.18-45.29l34.3-115.17c-30.23,7.73-52.58,4.83-66.58-8.66-8.35-8.05-13.35-19.45-14.99-34.11-3.86.18-7.72.2-11.57.06-38.65-1.39-68.65-18.15-78.28-43.72-7.77-20.62-5.94-55.66,46.86-105.48l10.92,11.58c-36.23,34.18-51.46,65.54-42.89,88.3,7.22,19.16,32.32,32.28,63.96,33.42,3.43.12,6.93.1,10.47-.08.56-15.32,3.89-33.32,10-53.93,15.16-51.16,39.47-80.49,66.7-80.49h.14c13.27.04,23.73,5.46,30.26,15.69,10.58,16.58,9.17,45.2-3.6,72.91-9.51,20.62-26.38,37.29-48.79,48.23-11.72,5.72-24.78,9.74-38.27,11.88,1.23,10.74,4.6,18.96,10.12,24.28,7.91,7.63,25.58,13.96,64.82.76l14.55-4.89-42.87,143.97c-11.67,39.19-45.17,56.68-72.11,56.68Zm85.77-353.59c-19.11,0-38.81,26.46-51.45,69.09-5.37,18.13-8.43,34.12-9.17,47.58,29.74-5.29,59.44-21.36,72.95-50.65,10.4-22.56,12.26-45.74,4.64-57.68-3.57-5.59-9.09-8.32-16.89-8.34h-.08Z"></path><path class="cls-6" d="m955.45,568.99c-16.37,0-30.91-5.93-40.5-16.9-6.96-7.96-17.12-25.67-7.01-54.79l17.45-50.98c5.41-15.51,4.18-28.35-3.55-37.2-8.99-10.29-26.62-14.52-44.93-10.79-26.13,5.33-46.9,24.35-55.55,50.88l-15.13-4.94c10.46-32.04,35.69-55.04,67.5-61.54,24.18-4.94,47.21,1.16,60.1,15.91,11.55,13.22,13.89,31.99,6.6,52.87l-17.45,50.97c-5.55,15.98-4.15,29.87,3.94,39.13,8.54,9.77,23.44,13.62,39.85,10.29,29.82-6.05,55.31-33,68.17-72.08l15.12,4.98c-14.67,44.59-44.63,75.5-80.13,82.71-4.93,1-9.79,1.49-14.49,1.49Z"></path><path class="cls-6" d="m782.06,568.84l-15.13-4.95,38.52-117.83c7.5-22.97.72-39.91-18.59-46.48-13.89-4.72-31.59-2.94-47.36,4.75-18.09,8.83-31.91,24.58-38.9,44.35l-15.01-5.31c8.39-23.73,25.05-42.67,46.92-53.35,19.46-9.5,41.69-11.56,59.47-5.52,12.91,4.39,22.55,12.56,27.87,23.63,5.74,11.94,5.99,26.76.73,42.87l-38.53,117.83Z"></path><path class="cls-6" d="m595.3,567.49c-8.11,0-15.93-1.26-23.07-3.83-20.52-7.39-38.02-28.14-25.63-64.19l40.89-119.6,15.06,5.15-40.89,119.62c-7.56,21.98-1.89,37.62,15.97,44.05,13.69,4.94,31.74,3.39,48.28-4.12,18.69-8.49,32.85-23.44,39.88-42.08l.2-.53c1.98-5.58,19.28-57.58,20.31-60.84l15.18,4.78c-.17.54-17.59,53.45-20.86,62.19l.06.02c-14.45,38.32-52.23,59.39-85.38,59.4Z"></path><polygon class="cls-6" points="569.83 364.6 547.73 341.67 517.65 364.37 508.06 351.66 549.41 320.47 581.29 353.56 569.83 364.6"></polygon><path class="cls-6" d="m478.14,571.02c-17.29,0-30.58-7.26-38.48-20.99-7.59-13.2-9.77-31.76-6.31-53.68,3.16-19.98,10.87-41.24,21.7-59.87,20.39-35.04,47.93-55.12,75.59-55.12.1,0,.19,0,.29,0,28.52.13,45.55,21.33,45.55,56.7,0,27.31-10.43,60.26-27.21,86-19.67,30.16-44.93,46.84-71.13,46.96Zm52.5-173.74c-21.84,0-44.36,17.19-61.83,47.2-20.5,35.23-27.1,77.19-15.35,97.61,5.03,8.75,13.1,13.01,24.65,13.01,11.93-.05,35.37-5.29,57.83-39.73,15.19-23.3,24.63-52.92,24.63-77.31,0-33.6-16.16-40.72-29.71-40.78h0c-.07,0-.14,0-.21,0Z"></path><path class="cls-6" d="m1191.34,573.11c-18.47,0-34.02-6.63-43.27-18.62-6.82-8.84-13.19-24.49-4.84-48.8l99.21-301.5,15.12,4.98-99.26,301.66c-4.8,13.97-3.98,25.71,2.38,33.96,6.89,8.93,19.79,13.4,35.4,12.24,24.92-1.84,46.13-14.85,68.79-42.18l12.26,10.16c-25.65,30.94-50.28,45.71-79.87,47.9-2,.15-3.97.22-5.92.22Z"></path><path class="cls-6" d="m1074.6,573.26c-28.55,0-45.76-19.72-46.08-52.74-.26-26.66,10.54-59.86,28.18-86.63,20.28-30.79,45.46-48.01,70.9-48.5l.15,7.96-.15-7.96c16.27-.31,29,6.45,36.82,19.56,16.95,28.41,6.08,78.22-13.41,112.73-19.87,35.19-47.72,55.44-76.41,55.58Zm54.08-171.96c-.26,0-.52,0-.78,0-19.74.38-40.85,15.45-57.91,41.34-15.99,24.27-25.78,54.06-25.56,77.72.11,11.61,2.7,21.03,7.49,27.26,5.02,6.54,12.43,9.71,22.64,9.71,22.78-.11,45.6-17.41,62.58-47.48,19.45-34.44,25.42-76.93,13.6-96.75-4.74-7.94-11.96-11.81-22.07-11.81Z"></path><path class="cls-6" d="m1447.39,574.33c-26.91,0-47.99-15.71-54.27-40.86l15.44-3.86c5.64,22.59,25.34,29.63,41.91,28.71,19.39-1.09,40.51-13.47,43.36-35.01,2.69-19.9-12.55-35.04-30.2-52.58-14.09-14-29.41-29.23-37.5-49.07-6.92,22.62-15.66,50.79-20.35,64.22-10.29,29.49-27.4,49.3-39.95,60.73-15.83,14.42-34.07,24.24-50.05,26.95-15.7,2.66-29.46-1.81-38.74-12.59-12.61-14.63-22.68-47.22.93-119.34,10.63-32.67,27.62-54.26,45.45-57.72,8.44-1.64,16.34,1.07,21.67,7.43,8.94,10.66,9.32,29.1,1.06,50.59-11.97,30.45-34.74,59.12-66.06,83.32,1.04,10.97,4.04,19.56,9.01,25.34,5.66,6.57,13.74,9.02,24.02,7.28,26.11-4.42,62.18-32.99,77.62-77.23,8.22-23.56,29.98-96,30.2-96.73l15.56,2.9c-2.48,32.06,18.28,52.68,38.35,72.63,18.93,18.81,38.5,38.26,34.76,65.98-1.85,13.98-9.04,26.15-20.78,35.17-10.43,8.01-23.73,12.85-37.46,13.62-1.34.08-2.67.11-3.98.11Zm-119.16-174.96c-.53,0-1.12.06-1.76.18-8.89,1.72-22.96,15.08-33.35,47.03-7.19,21.96-11.5,41.57-12.91,58.04,23.78-20.53,41.65-44.35,51.12-68.44,7.09-18.45,5.29-30.17,1.58-34.6-.83-.99-2.18-2.21-4.67-2.21Z"></path><path class="cls-6" d="m1462.28,572.5l-.06-15.92c39.68-.16,76.17-5.22,108.44-15.05,24.31-7.41,46.18-17.71,61.59-29.02l9.42,12.83c-19.13,14.04-74.89,46.74-179.38,47.15Z"></path><path class="cls-6" d="m1675,573.75c-5.3,0-10.48-.97-15.42-3-13.65-5.59-23.5-18.76-27.71-37.09-4.49-19.51-2.88-44.15,4.78-73.24,15.34-57.47,48.89-80.53,73.57-77.66,18.37,2.14,30.17,17.44,30.81,39.93l-15.91.45c-.41-14.21-6.67-23.4-16.75-24.57-24.39-2.83-47.24,31.84-56.34,65.92-6.89,26.18-8.5,48.87-4.65,65.6,3.07,13.34,9.37,22.3,18.23,25.93,20.07,8.22,44.57-11.95,58.39-36.12l13.82,7.9c-16.52,28.87-40.66,45.94-62.82,45.94Z"></path><path class="cls-7" d="m262.62,569.39c-.59,0-1.18,0-1.77-.03-16.47-.45-30.93-7.53-39.66-19.42-6.58-8.97-12.95-24.87-5.91-49.68l15.31,4.35c-4.19,14.74-3,27.16,3.42,35.92,5.8,7.9,15.74,12.61,27.27,12.93,21.33.59,48.65-13.29,58.18-45.29l34.3-115.17c-30.23,7.73-52.58,4.83-66.58-8.66-8.35-8.05-13.35-19.45-14.99-34.11-3.86.18-7.72.2-11.57.06-38.65-1.39-68.65-18.15-78.28-43.72-7.77-20.62-5.94-55.66,46.86-105.48l10.92,11.58c-36.23,34.18-51.46,65.54-42.89,88.3,7.22,19.16,32.32,32.28,63.96,33.42,3.43.12,6.93.1,10.47-.08.56-15.32,3.89-33.32,10-53.93,15.16-51.16,39.47-80.49,66.7-80.49h.14c13.27.04,23.73,5.46,30.26,15.69,10.58,16.58,9.17,45.2-3.6,72.91-9.51,20.62-26.38,37.29-48.79,48.23-11.72,5.72-24.78,9.74-38.27,11.88,1.23,10.74,4.6,18.96,10.12,24.28,7.91,7.63,25.58,13.96,64.82.76l14.55-4.89-42.87,143.97c-11.67,39.19-45.17,56.68-72.11,56.68Zm85.77-353.59c-19.11,0-38.81,26.46-51.45,69.09-5.37,18.13-8.43,34.12-9.17,47.58,29.74-5.29,59.44-21.36,72.95-50.65,10.4-22.56,12.26-45.74,4.64-57.68-3.57-5.59-9.09-8.32-16.89-8.34h-.08Z"></path><rect class="cls-7" x="1187.28" y="2098.9" width="138.12" height="15.8"></rect><path class="cls-7" d="m1229.11,2381.64c-5.97,0-11.78-.79-17.19-2.4-12.59-3.74-22.48-11.78-27.85-22.64-5.83-11.78-6.34-26.7-1.48-43.14l87.49-293.54,15.14,4.51-87.49,293.53c-7.01,23.71-.2,40.53,18.68,46.15,12.89,3.83,29,1.37,43.1-6.59,16.28-9.19,28.41-24.84,34.16-44.08l15.13,4.53c-6.93,23.17-21.68,42.1-41.53,53.31-12.06,6.81-25.49,10.37-38.17,10.37Z"></path><path class="cls-6" d="m1334.2,2382.3c-14.89,0-26.61-6.57-33.84-19.01-9.87-16.98-8.84-40.14-6.24-56.58,3.41-21.58,11.43-44.03,22.57-63.21,18.18-31.29,41.17-48.5,64.78-48.5.14,0,.27,0,.41,0h0c26.03.23,41.48,21.47,41.32,56.84-.23,51.94-35.67,130.46-88.58,130.46-.14,0-.28,0-.42,0Zm47.28-171.51c-17.49,0-36.11,14.79-51.13,40.64-21.15,36.4-28.48,83.01-16.33,103.92,4.36,7.5,10.98,11.15,20.24,11.15.1,0,.2,0,.3,0,10.5,0,30.95-4.99,50.75-38.42,13.53-22.83,21.99-52.08,22.1-76.32.16-35.45-16.01-40.89-25.66-40.97-.08,0-.17,0-.26,0Z"></path><line class="cls-3" x1="1094.34" y1="2687.28" x2="1179.28" y2="2480.54"></line><line class="cls-3" x1="1565.56" y1="2862.84" x2="1565.56" y2="2779.27"></line><line class="cls-3" x1="1094.34" y1="1970.22" x2="1094.34" y2="1889.98"></line><line class="cls-3" x1="661.98" y1="1997.25" x2="661.98" y2="1869.98"></line><line class="cls-3" x1="498.97" y1="1796.21" x2="498.97" y2="1483.71"></line><path class="cls-7" d="m476.75,2384.21c-5.84,0-11.58-.77-17.04-2.33-12.78-3.67-22.96-11.64-28.65-22.44-6.25-11.86-7.11-26.93-2.47-43.58l15.22,4.24c-9.5,34.09,11.01,43.95,20.26,46.6,22.12,6.34,58.71-5.02,69.89-42.88l44.85-152.38c-4-.14-8.12-.47-12.37-1.01-36.43-4.9-61.61-22.03-69.13-46.99-9.18-30.43,9.38-67.89,52.27-105.48l10.41,11.88c-51.21,44.89-51.78,75.06-47.56,89.04,5.66,18.77,26.09,31.85,56.05,35.89,5.14.65,10.14.97,14.96.94l24.2-82.24c5.72-19.21,13.09-33.16,22.53-42.68,11.47-11.56,25.63-16.12,42.09-13.53,21.25,3.23,32.42,23.9,28.42,52.65-3.6,25.87-18.3,52.66-39.33,71.66-13.97,12.62-35.73,26.39-65.93,29.36l-46.31,157.35c-6.06,20.52-19.45,37.2-37.71,46.99-11.01,5.9-23.04,8.94-34.65,8.94Zm187.09-351.83c-24.49,0-35.11,25.61-41.06,45.57l-22.47,76.36c50.56-8.38,80.02-52.81,84.72-86.58,3.27-23.51-5.7-33.43-15.19-34.87-2.09-.33-4.09-.48-6-.48Z"></path><rect class="cls-7" x="824.77" y="3182.62" width="103.7" height="15.85"></rect><line class="cls-2" x1="1000.76" y1="1411.71" x2="1055.85" y2="1466.79"></line><line class="cls-2" x1="1073.02" y1="1447.02" x2="1013.1" y2="1387.09"></line><line class="cls-2" x1="1091.35" y1="1424.67" x2="1017.76" y2="1355.21"></line><line class="cls-2" x1="1073.09" y1="1372.33" x2="1041.6" y2="1340.84"></line><line class="cls-2" x1="1054.55" y1="1315.4" x2="1089.53" y2="1350.37"></line><line class="cls-2" x1="1121" y1="1346.5" x2="1067.48" y2="1292.98"></line><path class="cls-6" d="m513.67,1477.52l-1.09-15.78c29.15-2.01,60.42-6.37,91.65-24.51,37.21-21.61,67.53-58.68,92.68-113.33l14.37,6.61c-26.56,57.71-58.98,97.09-99.1,120.4-34.03,19.76-67.45,24.47-98.51,26.61Z"></path><path class="cls-6" d="m823.44,1475.85c-6.6,0-12.88-1.11-18.61-3.27-24.72-9.31-34.73-35.46-25.49-66.61l16.06-53.91c6.43-21.75-1.29-38.65-20.64-45.2-22.75-7.7-54.22,2.1-65.41,31.37l-14.78-5.65c14.54-38.04,55.58-50.75,85.26-40.7,27.54,9.32,39.6,34.71,30.74,64.68l-16.06,53.91c-6.9,23.26-.95,40.94,15.91,47.3,11.13,4.19,25.16,2.49,38.48-4.67,11.18-6.01,27.03-18.63,39.02-44.61l14.36,6.63c-19.34,41.92-51.67,60.72-78.82,60.72Z"></path><path class="cls-6" d="m668.12,1473.71l-15.14-4.57,87.11-288.43c16.87-55.57,52.55-77.49,77.55-69.9,9.67,2.94,16.93,10.14,20.45,20.3,3.49,10.08,3.1,22.77-1.12,36.69-11.81,39.88-57.2,82.22-114.67,135.82l-3.17,2.95-.4-.43-50.6,167.57Zm139.64-348.51c-6.97,0-15.12,3.48-22.76,9.88-8.89,7.44-21.27,22.2-29.78,50.21l-27.73,91.82c48-45,84.75-81.56,94.32-113.85,5.85-19.29,2.4-33.92-8.77-37.31-1.65-.5-3.43-.75-5.28-.75Z"></path><path class="cls-6" d="m501.62,1477.55c-.37,0-.74,0-1.11,0-15.28-.38-28.18-6.83-36.42-18.15-8.06-11.07-15.4-31.93-4.61-68.39l38.49-128.45c-3.97-.15-8.06-.49-12.28-1.03-34.85-4.56-58.3-19.92-66.05-43.25-4.86-14.64-3.2-31.33,4.94-49.6,8.3-18.63,23.26-38.53,44.46-59.15l11.03,11.34c-50.06,48.68-49.94,78.81-45.41,92.43,5.73,17.26,24.58,28.82,53.07,32.55,5.2.67,10.2.98,14.97.98l24.62-82.16c5.6-19.08,12.95-33.02,22.45-42.57,11.42-11.48,25.53-16.08,41.96-13.67,21.3,3.33,32.36,24.15,28.25,53.04-3.68,25.88-18.4,52.6-39.38,71.49-13.96,12.57-35.73,26.27-65.97,29.15l-39.98,133.42c-6.98,23.6-6.19,42.99,2.24,54.57,6.77,9.3,16.75,11.46,23.93,11.64,29.26.39,50.47-18.45,62.98-56,10.53-31.14,12.79-55.92,6.07-66.31-2.24-3.46-5.54-5.29-10.39-5.76-18.42-1.71-25.42,20.04-33.31,50.97-1.12,4.39-2.18,8.53-3.3,12.55l-15.23-4.28c1.08-3.83,2.11-7.89,3.21-12.18,3.54-13.89,7.56-29.64,14.3-41.63,8.69-15.45,20.74-22.58,35.83-21.17,9.65.93,17.31,5.4,22.17,12.92,6.79,10.5,11.55,32.89-4.36,79.94-18.32,55-51.85,66.78-77.18,66.79Zm81.49-354.03c-10.72,0-28.83,5.45-40.62,45.64l-22.88,76.33c22.77-3.68,39.4-14.4,50.41-24.3,18.3-16.48,31.13-39.64,34.3-61.96,3.37-23.68-5.52-33.7-14.96-35.17-1.53-.22-3.68-.54-6.25-.54Z"></path><path class="cls-6" d="m921.12,1475.94c-11.83,0-21.96-4.58-28.83-13.12-9.89-12.3-11.64-30.92-4.95-52.43l36.76-118.5,15.11,4.69-36.76,118.51c-5.01,16.1-4.22,29.88,2.17,37.83,5.43,6.76,13.45,7.59,19.23,7.09,19.6-1.68,51.86-24.29,78.28-82.52l14.41,6.54c-24.44,53.86-59.44,89.02-91.34,91.74-1.38.12-2.74.18-4.07.18Z"></path><path class="cls-6" d="m925.2,1475.76l-1.35-15.76c19.89-1.7,53.25-29.89,79.5-87.75l14.41,6.54c-12.79,28.2-28.5,52.26-45.43,69.59-16.29,16.68-32.59,26.15-47.13,27.39Z"></path><path class="cls-6" d="m953.24,1237.84c8.21,0,14.63-6.57,14.63-14.63s-6.42-14.63-14.63-14.63-14.63,6.59-14.63,14.63,6.77,14.63,14.63,14.63"></path><path class="cls-6" d="m1247.06,1479.32c-6.62,0-12.83-1.21-18.34-3.65-21.94-9.72-28.65-35.82-17.96-69.83l19.98-62.76c3.11-10.66,5.53-25-.5-33.05-3.86-5.16-11.36-7.77-22.28-7.77h-57.1c-1.46,5.2-3.22,10.94-5.43,17.93l-15.09-4.75c1.6-5.09,2.97-9.49,4.14-13.47-13.47-1.14-22.45-5.54-26.74-13.13-4.13-7.29-3.28-16.51,2.37-25.97,4.62-8.04,15.67-10.8,26.33-6.57,9.58,3.81,19.2,13.81,17.89,30.14h53.63c16.17,0,27.93,4.75,34.94,14.1,8,10.68,9.01,26.51,3,47.06l-.05.18-20,62.83c-8.15,25.92-4.77,44.37,9.29,50.6,9.49,4.21,22.81,2.68,36.54-4.19,15.78-7.9,30.15-21.96,40.48-39.6l13.65,7.99c-11.86,20.26-28.57,36.51-47.05,45.76-10.8,5.41-21.71,8.16-31.69,8.16Zm-120.65-209.17c-1.35,0-2.32.3-2.6.62l-.09.16c-2.52,4.19-3.36,8.07-2.21,10.11,1.34,2.36,6.48,4.87,16.91,5.33,1.16-9.16-3.48-13.17-6.58-14.79-2.02-1.06-3.96-1.42-5.44-1.42Z"></path><path class="cls-6" d="m1464.98,1479.32c-5.58,0-10.97-.74-15.98-2.26-11.65-3.53-20.37-10.8-25.22-21.01-1.48-3.13-2.57-6.45-3.26-9.96-7.36,7.41-16.2,13.91-26.13,19.08-20.83,10.85-43,14.1-59.29,8.71-10.99-3.64-18.86-10.99-22.75-21.26-4.06-10.69-3.65-24.16,1.21-40.03l36.78-118.89,15.11,4.68-36.77,118.86c-8.69,28.39,1.4,38.31,11.4,41.62,12.13,4.02,30.15,1.06,47.01-7.72,16.51-8.59,29.34-21.3,35.94-35.41l89.35-301.49,15.17,4.49-88.08,297.23.49.18c-.62,1.73-1.3,3.44-2.06,5.13-6.12,20.96-.4,35.77,15.71,40.65,22.58,6.84,62.99-8.21,77.01-53.3l15.11,4.7c-7.36,23.68-22.32,43.17-42.13,54.88-12.34,7.29-25.94,11.12-38.59,11.12Z"></path><rect class="cls-6" x="1444.53" y="1192.57" width="138.14" height="15.82"></rect><path class="cls-6" d="m1015.23,1384.96l-12.6-8.9-.95-.15c9.41-58.09,34.43-130.63,50.99-178.63,5.49-15.91,9.82-28.48,12.05-36.13,6.31-21.92,14.78-37.9,25.17-47.47,9.47-8.73,20.65-12.27,32.33-10.23,9.1,1.6,16,6.4,19.96,13.91,6.82,12.9,4.31,32.05-7.68,58.55-31.61,71-72.86,143.31-119.27,209.06Zm100.71-266.24c-19.51,0-30.86,28.9-36.02,46.83-2.34,8.04-6.73,20.77-12.29,36.89-13.16,38.16-31.73,91.99-43.29,141.11,36.85-55.91,69.62-115.45,95.73-174.12,12.74-28.16,10.56-40.08,8.12-44.68-1.64-3.11-4.49-4.98-8.7-5.71-1.21-.21-2.4-.31-3.55-.31Z"></path><path class="cls-6" d="m1041.59,1477.45c-5.79,0-11.69-.91-17.65-2.75-14.25-4.32-22.82-17.13-25.43-38.08-2.01-16.13-.61-37.19,4.26-64.4l15.57,2.79c-9.05,50.56-5.51,79.8,10.22,84.56,4.52,1.39,8.82,2.03,12.9,2.03,28.26,0,46.13-30.42,52.73-50.77,1.97-6.07,3.29-12.09,3.98-17.7-3.77.64-7.6.32-11.34-.99-9.4-3.28-16.03-10.69-17.76-19.82-1.53-8.11,1.03-16.16,6.68-21,5.26-4.51,12.49-5.61,19.84-3.03,6.74,2.31,11.79,7.35,15,14.4,7.18-11.96,14.77-30.92,22.69-56.74l15.12,4.64c-11.52,37.54-22.23,60.85-33.73,72.87.11,9.62-1.66,20.59-5.44,32.24-6.31,19.45-17,36.23-30.1,47.25-11.43,9.61-24.18,14.49-37.56,14.49Zm46.34-114.72c-.77,0-1.39.2-1.86.6-1.07.92-1.97,3.2-1.43,6.06.39,2.09,1.88,5.88,7.43,7.82,2.01.7,3.83.54,5.91-.51.09-.04.17-.09.26-.14-1.06-6.99-3.68-11.92-7.76-13.31l-.09-.03c-.93-.33-1.75-.5-2.45-.5Z"></path><path class="cls-6" d="m1380.38,1237.84c8.21,0,14.63-6.57,14.63-14.63s-6.42-14.63-14.63-14.63-14.63,6.59-14.63,14.63,6.77,14.63,14.63,14.63"></path><path class="cls-7" d="m501.62,1477.55c-.37,0-.74,0-1.11,0-15.28-.38-28.18-6.83-36.42-18.15-8.06-11.07-15.4-31.93-4.61-68.39l38.49-128.45c-3.97-.15-8.06-.49-12.28-1.03-34.85-4.56-58.3-19.92-66.05-43.25-4.86-14.64-3.2-31.33,4.94-49.6,8.3-18.63,23.26-38.53,44.46-59.15l11.03,11.34c-50.06,48.68-49.94,78.81-45.41,92.43,5.73,17.26,24.58,28.82,53.07,32.55,5.2.67,10.2.98,14.97.98l24.62-82.16c5.6-19.08,12.95-33.02,22.45-42.57,11.42-11.48,25.53-16.08,41.96-13.67,21.3,3.33,32.36,24.15,28.25,53.04-3.68,25.88-18.4,52.6-39.38,71.49-13.96,12.57-35.73,26.27-65.97,29.15l-39.98,133.42c-6.98,23.6-6.19,42.99,2.24,54.57,6.77,9.3,16.75,11.46,23.93,11.64,29.26.39,50.47-18.45,62.98-56,10.53-31.14,12.79-55.92,6.07-66.31-2.24-3.46-5.54-5.29-10.39-5.76-18.42-1.71-25.42,20.04-33.31,50.97-1.12,4.39-2.18,8.53-3.3,12.55l-15.23-4.28c1.08-3.83,2.11-7.89,3.21-12.18,3.54-13.89,7.56-29.64,14.3-41.63,8.69-15.45,20.74-22.58,35.83-21.17,9.65.93,17.31,5.4,22.17,12.92,6.79,10.5,11.55,32.89-4.36,79.94-18.32,55-51.85,66.78-77.18,66.79Zm81.49-354.03c-10.72,0-28.83,5.45-40.62,45.64l-22.88,76.33c22.77-3.68,39.4-14.4,50.41-24.3,18.3-16.48,31.13-39.64,34.3-61.96,3.37-23.68-5.52-33.7-14.96-35.17-1.53-.22-3.68-.54-6.25-.54Z"></path><line class="cls-3" x1="1113.39" y1="1089.84" x2="1113.39" y2="961.09"></line><g class="cls-5"><path class="cls-9" d="m1312.15,1417.41c-10.33,17.64-24.7,31.71-40.48,39.6-13.73,6.87-27.04,8.4-36.54,4.19-14.05-6.23-17.44-24.68-9.29-50.6l20-62.83.05-.18c6.01-20.55,5.01-36.39-3-47.06-7.01-9.36-18.77-14.1-34.94-14.1h-53.63c1.31-16.33-8.3-26.33-17.89-30.14-10.66-4.23-21.71-1.47-26.33,6.57-5.65,9.45-6.5,18.67-2.37,25.97,4.29,7.59,13.28,11.99,26.74,13.13-.5,1.71-1.05,3.51-1.62,5.4-7.76,25.1-15.21,43.61-22.26,55.34-3.2-7.05-8.25-12.09-15-14.4-7.35-2.58-14.58-1.48-19.84,3.03-5.65,4.85-8.21,12.89-6.68,21,1.72,9.13,8.36,16.54,17.76,19.82,3.73,1.3,7.56,1.63,11.34.99-.69,5.61-2.01,11.62-3.98,17.7-6.6,20.35-24.47,50.77-52.73,50.77-4.08,0-8.39-.64-12.9-2.03-15.74-4.77-19.27-34.01-10.22-84.56l-15.57-2.79c-4.87,27.2-6.26,48.27-4.26,64.4,2.6,20.95,11.17,33.77,25.43,38.08,5.96,1.84,11.86,2.75,17.65,2.75,13.37,0,26.13-4.88,37.56-14.49,13.1-11.02,23.79-27.8,30.1-47.25,3.78-11.66,5.55-22.63,5.44-32.24,10.48-10.96,20.32-31.32,30.71-63.3h.04c.87-2.76,1.67-5.32,2.42-7.74.19-.61.38-1.22.57-1.83h0c.9-2.98,1.72-5.73,2.45-8.34h57.1c10.92,0,18.42,2.61,22.28,7.77,6.03,8.05,3.61,22.39.5,33.05l-19.98,62.76c-10.69,34.01-3.98,60.11,17.96,69.83,5.51,2.44,11.72,3.65,18.34,3.65,9.98,0,20.88-2.75,31.69-8.16,18.49-9.25,35.2-25.5,47.05-45.76l-13.65-7.99Zm-214.18-40.71c-2.08,1.05-3.9,1.21-5.91.51-5.54-1.94-7.03-5.73-7.43-7.82-.54-2.86.37-5.15,1.43-6.06.47-.4,1.09-.6,1.86-.6.7,0,1.51.17,2.45.5l.09.03c4.08,1.39,6.71,6.32,7.76,13.31-.09.05-.17.09-.26.14Zm23.54-95.67c-1.16-2.04-.31-5.92,2.21-10.11l.09-.16c.29-.32,1.25-.62,2.6-.62,1.48,0,3.41.36,5.44,1.42,3.1,1.63,7.74,5.63,6.58,14.79-10.43-.46-15.58-2.97-16.91-5.33Z"></path></g><g class="cls-10"><path class="cls-9" d="m912.24,2556.8l-15.13-4.55,135.26-450.04c7.62-25.23,17.8-46.8,29.44-62.39,12.73-17.06,26.55-25.89,39.91-25.56,12.43.25,19.04,6.54,22.39,11.77,5.16,8.05,6.67,19.69,4.49,34.59-1.66,11.36-5.43,24.17-10.63,36.08l-.06.13c-18.17,39.64-59.24,100.82-122.09,181.85l-83.59,278.12Zm188.78-526.76c-7.89,0-17.29,6.81-26.55,19.22-10.55,14.14-19.88,34.02-26.97,57.5l-38.78,129.03c47.83-63.63,79.66-112.47,94.81-145.48,10.09-23.16,13.15-46.6,7.28-55.77-1.3-2.03-3.55-4.38-9.45-4.5-.11,0-.23,0-.34,0Z"></path></g><path class="cls-7" d="m734.31,3292.84c-.22,0-.45,0-.67,0-17.08,0-33.88-8.49-43.99-22.27-9.37-12.77-11.69-28.39-6.54-43.98l39.09-121.63,15.09,4.85-39.11,121.69c-4.5,13.63-.17,23.66,4.25,29.69,7.16,9.76,19.64,15.95,31.7,15.79h.11"></path><line class="cls-3" x1="613.59" y1="3552.2" x2="613.59" y2="3310.6"></line><line class="cls-3" x1="919.94" y1="3552.2" x2="919.94" y2="3310.6"></line><g class="cls-11"><path class="cls-9" d="m1456.12,3294.18l-15.18-4.58,87.3-289.08c16.91-55.69,52.67-77.66,77.73-70.05,9.7,2.94,16.97,10.17,20.49,20.34,3.5,10.11,3.11,22.82-1.12,36.77-11.84,39.97-57.33,82.4-114.93,136.13l-3.18,2.96-.4-.43-50.72,167.95Zm139.96-349.3c-6.98,0-15.15,3.48-22.82,9.9-8.91,7.46-21.32,22.25-29.85,50.32l-27.79,92.03c48.11-45.1,84.95-81.75,94.53-114.11,5.86-19.34,2.41-33.99-8.79-37.39-1.66-.5-3.43-.75-5.29-.75Z"></path></g></g></svg> 