<?xml version="1.0" encoding="UTF-8"?> <svg xmlns="http://www.w3.org/2000/svg" id="Layer_1" viewBox="0 0 450 335"><defs><style>.cls-1{fill:#fff;}.cls-2{fill:#ececec;}.cls-3{fill:#bca5cf;}.cls-4{fill:#111035;}</style></defs><rect class="cls-1" width="450" height="335"></rect><rect class="cls-2" y="199.03" width="450" height="54.57"></rect><rect class="cls-2" y="77" width="450" height="58.64"></rect><polygon class="cls-3" points="201.19 253.6 182.55 253.6 230.53 77 249.16 77 201.19 253.6"></polygon><path class="cls-4" d="m125.04,194.89c0,2.29-1.98,4.12-4.27,4.12h-60.7c-4.42,0-6.71-4.73-4.12-8.08l81.74-111.79c.76-1.07,1.98-1.68,3.36-1.68,2.29,0,4.12,1.83,4.12,4.12,0,.92-.15,1.83-.76,2.44l-81.74,111.79c-.46.61-3.51-5.19-2.59-5.19h60.7c2.29,0,4.27,1.98,4.27,4.27Zm31.42-60.39c2.29,0,4.27,1.98,4.27,4.27,0,1.07-.46,2.14-1.22,2.9-16.93,18-30.04,33.25-43.46,33.25-10.52,0-27.45-14.18-40.11-30.2-.46-.76-.92-1.68-.92-2.59,0-2.29,1.98-4.27,4.27-4.27,1.37,0,2.59.76,3.35,1.68,11.74,14.95,26.99,26.99,33.4,26.99,9,0,20.44-12.66,37.36-30.65.76-.76,1.83-1.37,3.05-1.37Zm-10.98-53.22c0,2.29-1.98,4.12-4.27,4.12h-52.61c-2.29,0-4.12-1.83-4.12-4.12s1.83-4.27,4.12-4.27h52.61c2.29,0,4.27,1.98,4.27,4.27Zm32.79,72.44c2.9,0,4.88,2.75,4.12,5.34-2.14,6.86-3.36,14.79-6.41,21.81-5.19,12.66-12.35,18.45-19.37,18.45-9.3,0-15.71-9.76-14.49-19.06.61-5.19,7.17-29.13,10.68-42.4.61-1.83,2.14-3.05,4.12-3.05,2.9,0,4.73,2.75,4.12,5.19-3.51,13.27-10.07,36.6-10.68,41.18-.61,5.03,2.75,9.76,6.25,9.76,2.9,0,7.63-3.36,11.74-13.12,2.44-6.25,3.66-13.88,5.95-21.05.46-1.83,2.14-3.05,3.97-3.05Zm49.87,2.14c2.29,0,4.27,1.98,4.27,4.27,0,1.22-.61,2.44-1.53,3.2-5.95,5.03-14.79,12.35-21.2,13.73-10.98,2.44-18.91-8.39-17.54-22.72,1.07-13.27,8.08-19.83,13.73-19.83,3.05,0,10.68,2.59,6.71,16.17-4.27,14.95-6.41,22.11-9.91,30.35-6.1,14.03-13.12,18.3-19.22,18.3-9.46,0-15.86-9.76-14.64-19.06.61-5.19,5.34-22.42,5.64-23.64.46-1.83,2.14-3.2,4.12-3.2,2.9,0,4.73,2.75,4.12,5.34-.31,1.22-5.03,17.84-5.64,22.42-.61,5.03,2.75,9.76,6.41,9.76,2.59,0,7.02-2.59,11.59-13.27,3.2-7.63,5.34-14.49,9.61-29.43q1.53-5.34,1.22-5.34c-.92,0-4.73,3.66-5.49,12.05-.76,9.46,3.05,14.79,7.47,13.88s12.05-7.17,17.54-11.9c.76-.61,1.68-1.07,2.74-1.07Zm113.31-16.32c2.29,0,4.12,1.83,4.12,4.12,0,1.22-.46,2.29-1.37,3.05-14.95,13.57-37.06,35.23-50.94,47.43-3.96,3.51-7.63,4.73-10.37,4.73-6.41,0-11.13-6.71-6.41-17.39,6.1-13.88,17.39-35.38,22.42-44.38.61-1.07,2.14,3.36,1.83,3.05s5.03.31,4.12,1.53c-6.1,6.71-12.96,10.37-18.61,10.37-6.56,0-11.29-4.73-11.29-12.96,0-.92,7.47.92,6.86,1.83-12.35,17.84-41.02,58.41-55.21,58.41-5.49,0-9.61-4.12-9.61-11.44,0-8.85,6.56-25.32,9.3-37.06,2.13-9,7.17-16.17,15.25-16.17,6.1,0,10.37,4.58,10.37,11.13,0,3.81-1.68,7.63-5.8,11.29-3.05,2.9-9.91,7.63-18.76,12.51-.61.31-1.22.46-1.98.46-2.29,0-4.12-1.83-4.12-4.12,0-1.53.76-2.9,2.13-3.66,8.24-4.58,14.49-9,17.23-11.29,2.29-2.14,2.9-3.51,2.9-5.19,0-1.83-.61-2.75-1.98-2.75-2.9,0-5.49,3.36-7.02,9.61-3.05,12.35-9.15,27.91-9.15,35.23,0,2.44.46,3.05,1.22,3.05,8.24,0,35.69-36.6,48.19-54.6,2.59-3.97,8.54-2.59,8.54,2.75,0,3.66.92,4.58,2.9,4.58,2.9,0,7.63-2.29,12.51-7.78,2.59-2.59,4.88-4.58,7.78-1.53,2.14,1.98.46,5.49-.31,7.02-5.03,8.69-16.01,29.89-22.11,43.46-2.29,5.34-2.29,5.64-1.22,5.64.76,0,2.59-.76,4.88-2.75,13.57-11.9,35.69-33.55,50.94-47.12.61-.76,1.68-1.07,2.74-1.07Zm-18.76,37.36c0-18.3,12.81-42.55,31.72-42.55,12.66,0,18.15,10.37,18.15,21.81,0,18.15-13.27,43.31-32.33,43.31-12.05,0-17.54-10.52-17.54-22.57Zm68.17-11.29c2.29,0,4.27,1.98,4.27,4.27,0,1.22-.61,2.29-1.37,3.05l-51.09,49.41c-14.79,13.73-11.9,22.88-7.63,22.88s9-6.25,11.59-13.88c3.35-10.52,22.72-86.32,25.01-93.64.46-1.68,2.14-2.9,3.97-2.9,2.9,0,4.88,2.59,3.96,5.34-2.29,7.32-21.66,83.12-25.01,93.64-3.2,9.91-10.22,19.83-19.52,19.83-12.96,0-18.91-18,1.83-37.36l51.09-49.41c.76-.76,1.83-1.22,2.9-1.22Zm-26.69-9.46c0-8.08-2.9-13.42-9.76-13.42-12.81,0-23.33,19.22-23.33,34.16,0,8.39,2.9,14.18,9.15,14.18,12.96,0,23.94-19.98,23.94-34.92Z"></path></svg> 