<?xml version="1.0" encoding="UTF-8"?> <svg xmlns="http://www.w3.org/2000/svg" id="Layer_1" viewBox="0 0 450 335"><defs><style>.cls-1{fill:#fff;}.cls-2{fill:#ececec;}.cls-3{fill:#bca5cf;}.cls-4{fill:#111035;}</style></defs><rect class="cls-1" width="450" height="335"></rect><rect class="cls-2" y="199.03" width="450" height="47.15"></rect><rect class="cls-2" y="85.66" width="450" height="49.99"></rect><polygon class="cls-3" points="198.47 246.18 179.84 246.18 222.9 85.66 241.53 85.66 198.47 246.18"></polygon><path class="cls-4" d="m119.44,92.5c-3.91,13-8.53,28.93-13.07,45.35l18.66-.35c6.57-.14,12.86-.21,15.58-.21,1.68,0,2.87,1.19,2.87,2.45,0,1.61-1.4,2.8-3.7,2.8-3.84,0-28.09.35-34.87.56-5.1,18.87-9.99,38.02-13.42,53.74-.49,2.31-1.54,3.21-2.8,3.21-1.47,0-2.66-.63-2.66-1.89,0-.7.14-1.75,1.68-8.81,5.52-25.37,17.54-68.21,26.28-96.79h-3.07c-2.03,0-3.21-1.05-3.21-2.52s1.19-2.52,3.35-2.66c2.38-.14,46.05-.63,53.04-.63,1.68,0,2.87,1.19,2.87,2.45,0,1.61-1.4,2.8-3.7,2.8-3.84,0-18.52.28-29,.28-3.35,0-9.43.07-14.82.21Z"></path><path class="cls-4" d="m171.64,133.87c1.4,0,2.45.7,2.45,2.31,0,2.1-2.17,9.29-7.48,25.72-4.61,14.33-5.45,19.36-5.45,24.67,0,6.01,2.17,8.25,5.59,8.25,11.88,0,27.88-20.96,34.45-43.05,2.38-7.97,3.35-11.32,3.84-13.49.84-3.84,1.68-4.4,3.28-4.4s2.66.7,2.66,2.1c0,.91-.35,2.73-1.12,5.52l-8.04,28.3c-4.4,15.44-4.82,19.29-4.82,22.01,0,2.24.91,3,2.66,3s3.7,1.12,3.7,2.31c0,1.4-.84,2.94-5.03,2.94-3.91,0-6.78-2.52-6.78-7.06,0-4.19,2.38-12.65,5.45-21.03-9.64,16.77-19.92,28.09-31.52,28.09-5.8,0-9.92-4.12-9.92-12.16,0-5.59,1.4-11.6,6.57-28.02,4.33-13.77,5.59-19.43,6.15-22.01.7-3.28,1.89-3.98,3.35-3.98Z"></path><path class="cls-4" d="m197.01,197.96c0-1.82,1.33-3.14,3.07-3.14,14.95,0,40.6-29.56,54.65-58.28,1.05-2.17,1.68-2.66,2.8-2.66.84,0,1.68.49,1.68,1.61,0,.84-.14,1.89-1.05,3.77-14.61,30.61-41.86,60.8-59.54,60.8-.84,0-1.61-.84-1.61-2.1Z"></path><path class="cls-4" d="m258.16,200.05c0-1.4.77-2.45,2.59-2.66,20.27-2.1,29.14-9.99,29.14-20.41,0-7.34-4.33-11.25-8.88-15.09-4.68-3.98-9.15-7.97-9.15-15.79,0-9.22,6.29-14.75,12.93-20.27,7.13-5.94,14.26-12.16,14.26-23.27,0-7.76-3.49-11.67-9.08-11.67-9.57,0-17.82,11.32-26.49,45l-5.24,20.41c-3.56,26.35-14.82,70.16-19.57,87.14-.49,1.82-1.4,2.73-3,2.73s-2.38-.98-2.38-2.52c0-4.33,3.07-17.47,18.8-80.16,1.4-10.76,1.89-18.8,2.24-25.65.91-3.35,2.03-3.98,3.42-3.98.42,0,1.19.21,1.54.42,10.06-36.76,18.59-48.64,31.17-48.64,7.9,0,13.84,5.24,13.84,16.14,0,12.93-8.32,20.34-15.86,26.84-6.01,5.17-11.32,9.92-11.32,16.56,0,5.45,3.49,8.81,7.76,12.44,5.03,4.26,10.27,9.22,10.27,18.8,0,13.56-10.83,23.48-32.08,26.07-1.05.14-2.03.21-2.45.21-1.54,0-2.45-1.12-2.45-2.66Z"></path><path class="cls-4" d="m339.99,138.42c.91,0,1.82.7,1.82,1.47s-.42,2.17-.91,3.21c-18.45,42.91-61.99,55.42-80.16,58.91-.63.14-.91.14-1.12.14-.98,0-1.47-.91-1.47-2.03,0-1.47.35-2.73,3.42-3.21,15.44-2.38,60.03-15.79,76.31-56.61.56-1.33,1.33-1.89,2.1-1.89Z"></path><path class="cls-4" d="m325.53,189.92c0-5.03,1.54-11.88,4.26-21.8,2.45-8.88,5.1-18.38,7.76-27.74l-8.32.14c-1.61,0-2.59-.77-2.59-2.1,0-2.24,2.03-2.8,4.12-2.8h8.18c2.24-7.76,4.4-15.3,6.36-22.22.7-2.38,1.54-3.21,3.14-3.21s2.52.7,2.52,2.17c0,.42-.07.98-.21,1.54l-6.15,21.73h16.28c2.17,0,3.07.35,3.07,1.61,0,1.68-1.4,2.45-4.4,2.59-2.73.14-9.64.35-16.21.49l-8.25,28.93c-2.8,9.78-3.98,16.14-3.98,19.57,0,4.61,1.26,6.01,6.64,6.01,2.03,0,2.59.91,2.59,2.03,0,1.96-1.61,3.21-3.91,3.21-7.41,0-10.9-3.49-10.9-10.13Z"></path><path class="cls-4" d="m354.6,187.96c2.8-2.38,3.28-2.73,4.05-2.73,1.05,0,1.89.84,1.89,1.89,0,.7-.42,1.96-2.8,4.19-6.5,6.08-13.63,8.74-21.31,8.74-1.12,0-2.17-.7-2.17-2.38s1.68-2.87,3.35-2.87c5.31,0,11.81-2.52,16.98-6.85Z"></path></svg> 