<?xml version="1.0" encoding="UTF-8"?> <svg xmlns="http://www.w3.org/2000/svg" id="Layer_1" viewBox="0 0 450 335"><defs><style>.cls-1{fill:#fff;}.cls-2{fill:#ececec;}.cls-3{fill:#bca5cf;}.cls-4{fill:#111035;}</style></defs><rect class="cls-1" width="450" height="335"></rect><rect class="cls-2" y="199.03" width="450" height="59.45"></rect><rect class="cls-2" y="73.52" width="450" height="62.13"></rect><polygon class="cls-3" points="212.95 258.48 194.31 258.48 248.31 73.52 266.95 73.52 212.95 258.48"></polygon><path class="cls-4" d="m119.18,131.3c-3.25,0-6.86-.1-10.89-.3l.27-5.44c16.82.83,25.65-.01,31.49-2.99,5.51-2.81,8.81-7.81,12.18-18.44,2.72-8.53,2.69-14.49-.06-18.23-3.54-4.79-12.27-7.07-26.7-6.94-11.56.06-21,1.55-28.09,4.45-5.62,2.29-9.66,5.48-11.69,9.22-1.71,3.19-1.44,4.94-1.06,5.42.28.36.85.25,1.08.19,1.16-.3,2.68-1.73,3.15-4.76l5.38.84c-.88,5.62-4.27,8.43-7.15,9.18-2.6.68-5.18-.12-6.73-2.09-1.23-1.57-2.8-5.12.55-11.38,2.64-4.87,7.62-8.9,14.42-11.68,7.74-3.16,17.87-4.79,30.11-4.85,16.51-.15,26.41,2.76,31.12,9.15,3.92,5.32,4.2,12.66.87,23.11-4.41,13.9-9.14,18.7-14.89,21.64-5.24,2.68-12.18,3.88-23.35,3.88Z"></path><path class="cls-4" d="m69.57,199.65c-1.65,0-3.26-.18-4.8-.55-4.32-1.04-7.75-3.45-9.92-6.96-2.32-3.75-3.04-8.64-2.08-14.12l5.36.94c-1.38,7.89,1.5,13.31,7.91,14.85,4.33,1.04,9.65,0,14.21-2.77,3.73-2.27,8.71-6.71,11.26-14.95l31.71-100.78,5.19,1.63-31.71,100.76c-4.47,14.46-16.61,21.95-27.15,21.95Z"></path><path class="cls-4" d="m80.84,198.22c-1.13,0-2.28-.01-3.45-.03l.1-5.44c18.18.35,31.94-2.09,43.31-7.68,10.61-5.22,19.85-13.44,29.95-26.67l4.33,3.3c-10.64,13.93-20.47,22.64-31.88,28.25-11.43,5.62-24.97,8.27-42.37,8.27Z"></path><path class="cls-4" d="m185.99,167.47l-1.31,4.75s.01.28-.5,1.53-2.97,5.87-3.62,7.03c-5.53,9.78-15.17,14.73-21.22,13.69-1.9-.32-3.27-1.18-4.3-2.68-2.82-4.13-3.08-13.08-.77-26.64,17.51-16.86,29.58-34.48,39.03-56.96,5.65-13.31,6.93-23.42,3.73-29.22-1.38-2.5-3.52-4.04-6.2-4.48-11.37-1.8-22.66,17.31-33.58,56.78-.82,2.97-1.63,5.84-2.42,8.61-1.83,6.41-3.55,12.47-4.67,17.79-3.96,19.2-3.83,31.02.4,37.2,1.87,2.73,4.52,4.41,7.88,4.98.84.14,1.72.22,2.63.22,4.29,0,9.21-1.56,13.59-4.48,8.27-5.53,11.94-13.39,13.41-18.61,1.44-5.12.61-4.17.61-4.17l-2.67-5.32Zm-25.93-26.12c.79-2.78,1.61-5.66,2.43-8.66,5.51-19.91,11.14-34.57,16.72-43.58,3.7-5.97,7.39-9.31,10.22-9.31.18,0,.36.01.53.04,1,.16,1.73.71,2.29,1.73,2.27,4.11.78,13.25-3.98,24.47-8.08,19.23-18.14,34.78-32.06,49.4,1.04-4.32,2.4-9.1,3.83-14.1Z"></path><path class="cls-4" d="m261,200.05c-3.38,0-6.41-1.27-8.74-3.73-3.14-3.31-4.81-8.54-4.99-15.37l-.13-.17s.09-.07.13-.1c-.15-7.04,1.26-15.76,4.24-25.82,4.72-16.03,11.44-19.17,14.11-19.78,2.56-.58,5.02.19,6.74,2.1,3.09,3.44,3.39,10.02.8,17.61-3.57,10.15-10.74,20.11-20.32,28.33.37,4.23,1.5,7.46,3.38,9.44,1.77,1.86,4.13,2.45,7.03,1.75,6.7-1.61,15.99-10.42,20.58-25.94l5.22,1.54c-4.52,15.32-14.38,27.25-24.52,29.69-1.2.29-2.38.43-3.51.43Zm6.28-59.71c-.14,0-.3.02-.47.06-2.14.49-6.67,4.4-10.09,16.01-2.14,7.23-3.43,13.78-3.87,19.33,7.07-6.89,12.36-14.77,15.15-22.72,2.44-7.15,1.34-11.03.3-12.19-.3-.34-.62-.49-1.02-.49Z"></path><path class="cls-4" d="m369.97,198.54c-2.89,0-5.58-.62-7.93-1.85-6.78-3.56-9.21-11.32-6.37-20.26l6.51-20.39c1.51-4.62.83-8.67-1.95-11.71-3.26-3.57-8.94-5.07-14.46-3.81-7.46,1.71-13.34,7.99-16.11,17.25l-5.22-1.56c3.35-11.19,10.68-18.84,20.11-20.99,7.4-1.69,15.13.45,19.69,5.44,4.12,4.51,5.23,10.57,3.12,17.06l-6.51,20.38c-2.02,6.34-.64,11.5,3.71,13.78,8.56,4.5,20.95-3.36,28.77-13.45l4.3,3.33c-5.62,7.26-12.11,12.45-18.76,15.02-3.07,1.18-6.08,1.77-8.91,1.77Z"></path><path class="cls-4" d="m281.18,177.51c.79-2.58,4-13.61,6.16-21.03,3.99-13.71,15-22.65,26.78-21.74,5.56.39,10.41,3.01,13.27,7.2,2.28,3.33,4.39,9.23,1.53,18.44l-12.17,38.59-5.19-1.64,12.17-38.58c1.75-5.63,1.46-10.39-.83-13.74-1.92-2.8-5.26-4.57-9.18-4.84-9.2-.71-17.89,6.62-21.15,17.83h0s-1.57,5.41-3.15,10.83c-.79,2.71-2.79,5.55-3.39,7.6-.55,1.87-4.84,1.09-4.84,1.09Z"></path><path class="cls-4" d="m198.56,199.85c-9.38,0-14.98-7.1-14.98-18.98,0-9.08,3.31-20.14,8.64-28.88,6.23-10.22,14.1-15.84,22.18-15.84h.04c4.33.07,7.9,1.87,10.31,5.22,2.39,3.32,3.59,7.97,3.57,13.82-.02,5.15-1,10.93-2.84,16.74-2.4,7.42-6,14.16-10.14,18.98-5.02,5.85-10.82,8.94-16.77,8.94Zm15.82-58.26c-6.01.01-12.39,4.83-17.51,13.23-4.84,7.93-7.84,17.91-7.84,26.05,0,6.18,1.65,13.54,9.53,13.54,6.42,0,15.96-6.32,21.73-24.14,3.45-10.86,3.47-20.97.04-25.72-1.4-1.95-3.35-2.91-5.95-2.96Z"></path><path class="cls-4" d="m183.41,258.48c-.12,0-.24,0-.37,0-3.32-.07-6.06-1.49-7.91-4.09-1.78-2.49-2.67-5.93-2.66-10.22,0-3.7.7-7.8,2.01-11.86,2.4-7.29,7.83-14.52,16.13-21.5,7.59-6.37,15.82-11.08,21.84-14.07l18.01-60.54,5.22,1.55-16.6,55.81c1.31-.61,2.61-1.21,3.89-1.8,8.83-4.06,18.1-7.74,25.75-13.72,3.32-2.59,6.03,2.3,2.01,5.3-7.8,5.81-17.12,9.51-25.48,13.36-2.67,1.23-5.43,2.5-8.25,3.87l-10.53,35.41c-4.35,14.13-12.94,22.5-23.04,22.5Zm26.87-54.45c-9.98,5.55-26.14,16.33-30.62,29.95-2.3,7.15-2.34,14.09-.09,17.25.85,1.2,1.99,1.77,3.59,1.8,3.86.09,7.41-1.53,10.55-4.78,3.14-3.24,5.74-8.03,7.54-13.85l9.03-30.37Z"></path></svg> 