<?xml version="1.0" encoding="UTF-8"?><svg xmlns="http://www.w3.org/2000/svg" xmlns:xlink="http://www.w3.org/1999/xlink" viewBox="0 0 1920 4132"><defs><style>.cls-1{stroke-dasharray:0 0 1.86 18.6;}.cls-1,.cls-2,.cls-3,.cls-4,.cls-5,.cls-6,.cls-7,.cls-8,.cls-9,.cls-10,.cls-11,.cls-12,.cls-13,.cls-14,.cls-15{fill:none;}.cls-1,.cls-3,.cls-4,.cls-5,.cls-6,.cls-7,.cls-8,.cls-9,.cls-10,.cls-11,.cls-12,.cls-13,.cls-14,.cls-15{stroke-miterlimit:10;}.cls-1,.cls-3,.cls-4,.cls-5,.cls-6,.cls-7,.cls-8,.cls-9,.cls-11,.cls-12,.cls-13,.cls-15{stroke:#b3a0cd;stroke-linecap:round;stroke-width:7px;}.cls-16{clip-path:url(#clippath);}.cls-3{stroke-dasharray:0 0 1.86 18.63;}.cls-17{fill:#fff;}.cls-18{fill:#937eb9;}.cls-19{fill:#161b31;}.cls-4{stroke-dasharray:0 0 1.74 17.45;}.cls-5{stroke-dasharray:0 0 1.76 17.6;}.cls-6{stroke-dasharray:0 0 1.82 18.24;}.cls-20{clip-path:url(#clippath-1);}.cls-21{clip-path:url(#clippath-3);}.cls-22{clip-path:url(#clippath-2);}.cls-8{stroke-dasharray:0 0 1.71 17.13;}.cls-9{stroke-dasharray:0 0 1.7 16.97;}.cls-10{stroke:#937eb9;stroke-width:4px;}.cls-11{stroke-dasharray:0 0 1.8 18.04;}.cls-12{stroke-dasharray:0 0 1.74 17.45;}.cls-13{stroke-dasharray:0 0 1.8 18.05;}.cls-14{stroke:#566789;stroke-width:3.5px;}.cls-15{stroke-dasharray:0 0 1.82 18.16;}</style><clipPath id="clippath"><path class="cls-2" d="m1067.79,3193.56h0c47.72,0,86.46,38.74,86.46,86.46h0c0,47.72-38.74,86.46-86.46,86.46h0c-47.72,0-86.46-38.74-86.46-86.46h0c0-47.72,38.74-86.46,86.46-86.46Z"/></clipPath><clipPath id="clippath-1"><rect class="cls-2" x="774.1" y="3193.56" width="172.92" height="172.92" rx="86.46" ry="86.46"/></clipPath><clipPath id="clippath-2"><rect class="cls-2" x="527.65" y="1410.82" width="152.21" height="152.21" rx="76.1" ry="76.1"/></clipPath><clipPath id="clippath-3"><rect class="cls-2" x="1584.53" y="1410.82" width="152.21" height="152.21" rx="76.1" ry="76.1"/></clipPath></defs><g id="Capa_2"><rect class="cls-19" width="1920" height="4132"/></g><g id="Capa_3"><line class="cls-14" y1="1218.73" x2="1920" y2="1218.73"/><line class="cls-14" y1="1454.82" x2="1920" y2="1454.82"/><line class="cls-14" x1="1920" y1="1644.97" y2="1644.97"/><line class="cls-14" y1="1884.14" x2="1920" y2="1884.14"/><line class="cls-14" y1="209.39" x2="1920" y2="209.39"/><line class="cls-14" y1="442.84" x2="1920" y2="442.84"/><line class="cls-14" x1="1920" y1="632.99" y2="632.99"/><line class="cls-14" y1="872.17" x2="1920" y2="872.17"/><line class="cls-14" y1="2238.2" x2="1920" y2="2238.2"/><line class="cls-14" y1="2469.29" x2="1920" y2="2469.29"/><line class="cls-14" x1="1920" y1="2659.44" y2="2659.44"/><line class="cls-14" y1="2898.62" x2="1920" y2="2898.62"/><line class="cls-14" x1="-1.51" y1="3251.58" x2="1918.49" y2="3251.58"/><line class="cls-14" x1="-1.51" y1="3492.13" x2="1918.49" y2="3492.13"/><line class="cls-14" x1="1918.49" y1="3682.28" x2="-1.51" y2="3682.28"/><line class="cls-14" x1="-1.51" y1="3921.46" x2="1918.49" y2="3921.46"/></g><g id="info"><rect class="cls-18" x="1495.45" y="208.37" width="54.23" height="665.46"/><path class="cls-17" d="m1453.53,934.96v-19.95h2.94v19.95c0,9.41,4.07,10.63,8.86,10.63s8.78-1.01,8.78-10.63v-19.95h2.94v19.62c0,11.64-5.33,13.69-11.76,13.69s-11.76-2.06-11.76-13.36Z"/><path class="cls-17" d="m1484.81,926.77h2.39l.34,3.86h.08c1.13-2.48,4.03-4.41,7.86-4.41,6.3,0,9.66,3.99,9.66,11.01s-4.29,11.09-9.87,11.09c-3.78,0-6.38-1.6-7.43-3.7h-.08v11.55h-2.94v-29.41Zm17.18,10.63c0-7.18-3.4-8.61-6.93-8.61-4.24,0-7.56,2.73-7.56,8.44,0,6.01,3.45,8.57,7.44,8.57,3.02,0,7.06-1.47,7.06-8.4Z"/><path class="cls-17" d="m1511.02,926.77h2.6l.29,3.91c1.01-2.14,3.07-4.45,6.76-4.45,1.26,0,2.18.21,3.02.55v3.15c-1.13-.5-2.1-.76-3.4-.76-3.74,0-6.34,2.81-6.34,5.75v12.85h-2.94v-21Z"/><path class="cls-17" d="m1528.33,915.01h2.98v6.51h-2.98v-6.51Zm0,11.76h2.94v21h-2.94v-21Z"/><path class="cls-17" d="m1538.03,949.58v-.13h3.11v.13c0,2.9,1.93,4.33,6.13,4.33,4.79,0,7.01-2.94,7.01-7.86v-2.1h-.08c-1.09,2.18-3.65,4.07-7.48,4.07-6.3,0-9.75-3.99-9.75-10.71,0-7.1,4.37-11.09,9.96-11.09,3.78,0,6.55,1.81,7.56,4.12h.13l.29-3.57h2.31v19.16c0,5.88-2.81,10.71-10.33,10.71-6.3,0-8.86-2.98-8.86-7.06Zm16.59-12.77c0-5.5-3.36-8.07-7.35-8.07-3.03,0-7.14,1.47-7.14,8.4s3.57,8.32,7.1,8.32c4.24,0,7.39-2.73,7.39-8.65Z"/><path class="cls-17" d="m1564.57,915.01h2.94v15.16c1.05-2.1,3.28-3.95,7.31-3.95,4.75,0,7.77,2.52,7.77,7.94v13.61h-2.94v-13.27c0-4.33-2.14-5.71-5.5-5.71-3.82,0-6.64,2.69-6.64,5.63v13.36h-2.94v-32.77Z"/><path class="cls-17" d="m1600.9,945.08v2.6c-.76.21-2.14.59-4.03.59-3.82,0-6.34-1.6-6.34-6.89v-12.18h-4.16v-2.44h4.16v-6.05l2.94-1.43v7.48h5.92v2.44h-5.92v11.8c0,2.81.76,4.58,3.4,4.58,1.6,0,3.23-.29,4.03-.5Z"/><line class="cls-7" x1="1067.79" y1="3183.99" x2="1067.79" y2="3183.11"/><line class="cls-6" x1="1067.79" y1="3164.88" x2="1067.79" y2="3153.93"/><polyline class="cls-7" points="1067.79 3144.81 1067.79 3143.94 1066.92 3143.94"/><line class="cls-15" x1="1048.76" y1="3143.94" x2="858.1" y2="3143.94"/><polyline class="cls-7" points="849.02 3143.94 848.15 3143.94 848.15 3144.81"/><line class="cls-3" x1="848.15" y1="3163.45" x2="848.15" y2="3174.63"/><line class="cls-7" x1="848.15" y1="3183.95" x2="848.15" y2="3184.82"/><path class="cls-17" d="m227.91,2023.68h-3.36v-5.08c0-3.95.88-5.29,3.4-5.97l.67,1.85c-1.76.67-2.06,1.09-2.06,3.78v.34h1.34v5.08Zm5.92,0h-3.36v-5.08c0-3.95.88-5.29,3.4-5.97l.67,1.85c-1.76.67-2.06,1.09-2.06,3.78v.34h1.34v5.08Z"/><path class="cls-17" d="m255.97,2035.65h-13.99l-3.74,10.33h-3.07l12.18-32.77h3.32l12.1,32.77h-3.07l-3.74-10.33Zm-.92-2.6l-6.05-16.8h-.04l-6.05,16.8h12.14Z"/><path class="cls-17" d="m263.4,2022.42c1.76-.67,2.06-1.09,2.06-3.78v-.34h-1.34v-5.08h3.36v5.08c0,3.95-.88,5.29-3.4,5.97l-.67-1.85Zm5.92,0c1.76-.67,2.06-1.09,2.06-3.78v-.34h-1.34v-5.08h3.36v5.08c0,3.95-.88,5.29-3.4,5.97l-.67-1.85Z"/><path class="cls-17" d="m286.2,2025.02v-.04h2.98l5.75,17.48h.08l6.3-17.48h2.69l6.17,17.48h.08l5.75-17.48h2.86v.04l-7.18,20.96h-3.02l-5.96-17.06h-.08l-6.22,17.06h-3.02l-7.18-20.96Z"/><path class="cls-17" d="m323.71,2013.22h2.98v6.51h-2.98v-6.51Zm0,11.76h2.94v21h-2.94v-21Z"/><path class="cls-17" d="m345.01,2043.3v2.6c-.76.21-2.14.59-4.03.59-3.82,0-6.34-1.6-6.34-6.89v-12.18h-4.16v-2.44h4.16v-6.05l2.94-1.43v7.48h5.92v2.44h-5.92v11.8c0,2.81.76,4.58,3.4,4.58,1.6,0,3.23-.29,4.03-.5Z"/><path class="cls-17" d="m349.84,2013.22h2.94v15.16c1.05-2.1,3.28-3.95,7.31-3.95,4.75,0,7.77,2.52,7.77,7.94v13.61h-2.94v-13.27c0-4.33-2.14-5.71-5.5-5.71-3.82,0-6.64,2.69-6.64,5.63v13.36h-2.94v-32.77Z"/><path class="cls-17" d="m373.52,2035.48c0-6.22,3.32-11.05,10.38-11.05,6.59,0,10.25,4.83,10.25,11.05s-3.7,11.05-10.29,11.05c-7.27,0-10.33-4.83-10.33-11.05Zm17.56,0c0-5.33-2.9-8.49-7.22-8.49-4.75,0-7.27,3.15-7.27,8.49s2.56,8.49,7.27,8.49c4.33,0,7.22-3.15,7.22-8.49Z"/><path class="cls-17" d="m399.6,2038.59v-13.61h2.94v13.27c0,4.33,2.14,5.71,5.42,5.71,3.74,0,6.55-2.69,6.55-5.63v-13.36h2.94v21h-2.6l-.25-3.36h-.08c-.97,2.02-3.23,3.91-7.23,3.91-4.66,0-7.69-2.52-7.69-7.94Z"/><path class="cls-17" d="m435.77,2043.3v2.6c-.76.21-2.14.59-4.03.59-3.82,0-6.34-1.6-6.34-6.89v-12.18h-4.16v-2.44h4.16v-6.05l2.94-1.43v7.48h5.92v2.44h-5.92v11.8c0,2.81.76,4.58,3.4,4.58,1.6,0,3.23-.29,4.03-.5Z"/><path class="cls-17" d="m448.37,2039.56v-1.18h2.94v1.13c0,2.86,2.14,4.5,5.96,4.5s5.8-1.01,5.8-3.78c0-2.06-1.01-2.81-3.86-3.32l-4.62-.84c-3.02-.55-5.54-2.02-5.54-5.5,0-3.15,2.35-6.13,8.4-6.13s8.4,3.02,8.4,7.23v.88h-2.98v-.76c0-3.44-2.14-4.91-5.42-4.91-3.95,0-5.33,1.34-5.33,3.36s1.01,2.86,3.91,3.4l4.03.76c4.12.76,6.09,1.93,6.09,5.59,0,4.58-4.12,6.55-8.78,6.55-7.31,0-8.99-3.28-8.99-6.97Z"/><path class="cls-17" d="m472.01,2024.98h2.39l.34,3.86h.08c1.13-2.48,4.03-4.41,7.86-4.41,6.3,0,9.66,3.99,9.66,11.01s-4.29,11.09-9.87,11.09c-3.78,0-6.38-1.6-7.43-3.7h-.08v11.55h-2.94v-29.41Zm17.18,10.63c0-7.18-3.4-8.61-6.93-8.61-4.24,0-7.56,2.73-7.56,8.44,0,6.01,3.45,8.57,7.44,8.57,3.02,0,7.06-1.47,7.06-8.4Z"/><path class="cls-17" d="m497.8,2038.59v-13.61h2.94v13.27c0,4.33,2.14,5.71,5.42,5.71,3.74,0,6.55-2.69,6.55-5.63v-13.36h2.94v21h-2.6l-.25-3.36h-.08c-.97,2.02-3.23,3.91-7.23,3.91-4.66,0-7.69-2.52-7.69-7.94Z"/><path class="cls-17" d="m523,2024.98h2.6l.29,3.91c1.01-2.14,3.07-4.45,6.76-4.45,1.26,0,2.18.21,3.02.55v3.15c-1.13-.5-2.1-.76-3.4-.76-3.74,0-6.34,2.81-6.34,5.75v12.85h-2.94v-21Z"/><line class="cls-7" x1="331.21" y1="1665.07" x2="331.21" y2="1665.94"/><line class="cls-8" x1="331.21" y1="1683.08" x2="331.21" y2="1976.08"/><line class="cls-7" x1="331.21" y1="1984.64" x2="331.21" y2="1985.52"/><line class="cls-7" x1="603.76" y1="1173.86" x2="603.76" y2="1174.73"/><line class="cls-9" x1="603.76" y1="1191.7" x2="603.76" y2="1388.51"/><line class="cls-7" x1="603.76" y1="1396.99" x2="603.76" y2="1397.87"/><line class="cls-7" x1="1660.63" y1="1181.71" x2="1660.63" y2="1182.58"/><line class="cls-4" x1="1660.63" y1="1200.03" x2="1660.63" y2="1383.22"/><line class="cls-7" x1="1660.63" y1="1391.95" x2="1660.63" y2="1392.82"/><line class="cls-7" x1="1222" y1="2176.47" x2="1221.49" y2="2177.18"/><line class="cls-13" x1="1210.88" y1="2191.78" x2="1087.82" y2="2361.13"/><line class="cls-7" x1="1082.52" y1="2368.43" x2="1082" y2="2369.13"/><line class="cls-7" x1="906.91" y1="749.8" x2="907.22" y2="750.62"/><line class="cls-11" x1="913.59" y1="767.5" x2="973.42" y2="926.21"/><line class="cls-7" x1="976.61" y1="934.65" x2="976.91" y2="935.47"/><path class="cls-17" d="m636.85,1965.49h2.94v30.12h15.71v2.65h-18.65v-32.77Z"/><path class="cls-17" d="m658.64,1987.75c0-6.22,3.32-11.05,10.38-11.05,6.6,0,10.25,4.83,10.25,11.05s-3.7,11.05-10.29,11.05c-7.27,0-10.33-4.83-10.33-11.05Zm17.56,0c0-5.33-2.9-8.49-7.23-8.49-4.75,0-7.27,3.15-7.27,8.49s2.56,8.49,7.27,8.49c4.33,0,7.23-3.15,7.23-8.49Z"/><path class="cls-17" d="m683.46,1987.75c0-6.22,3.32-11.05,10.38-11.05,6.6,0,10.25,4.83,10.25,11.05s-3.7,11.05-10.29,11.05c-7.27,0-10.33-4.83-10.33-11.05Zm17.56,0c0-5.33-2.9-8.49-7.23-8.49-4.75,0-7.27,3.15-7.27,8.49s2.56,8.49,7.27,8.49c4.33,0,7.23-3.15,7.23-8.49Z"/><path class="cls-17" d="m709.97,1977.25h2.39l.34,3.87h.08c1.13-2.48,4.03-4.41,7.86-4.41,6.3,0,9.66,3.99,9.66,11.01s-4.28,11.09-9.87,11.09c-3.78,0-6.39-1.6-7.44-3.7h-.08v11.55h-2.94v-29.41Zm17.18,10.63c0-7.18-3.4-8.61-6.93-8.61-4.24,0-7.56,2.73-7.56,8.44,0,6.01,3.44,8.57,7.44,8.57,3.02,0,7.06-1.47,7.06-8.4Z"/><path class="cls-17" d="m753.44,1988.76h-15.96c.17,4.79,2.48,7.48,6.93,7.48,3.82,0,5.67-1.43,5.96-4.83h2.98c-.29,4.24-3.28,7.39-9.03,7.39-7.06,0-9.83-4.66-9.83-10.88s3.23-11.22,10-11.22,8.95,3.99,8.95,10.21v1.85Zm-3.11-2.98c0-4.45-1.72-6.55-5.92-6.55s-6.55,2.65-6.89,6.97h12.81v-.42Z"/><path class="cls-17" d="m757.64,1987.79c0-7.1,4.28-11.09,10.04-11.09,3.7,0,6.22,1.6,7.31,3.74h.04v-14.96h2.94v32.77h-1.97l-.67-3.61h-.08c-1.18,2.31-3.95,4.16-7.77,4.16-6.3,0-9.83-3.99-9.83-11.01Zm17.64-.5c0-5.5-3.36-8.07-7.35-8.07-3.11,0-7.14,1.47-7.14,8.4s3.61,8.61,7.14,8.61c4.24,0,7.35-2.73,7.35-8.95Z"/><path class="cls-17" d="m793.29,1987.79c0-7.1,4.28-11.09,10.04-11.09,3.7,0,6.22,1.6,7.31,3.74h.04v-14.96h2.94v32.77h-1.97l-.67-3.61h-.08c-1.18,2.31-3.95,4.16-7.77,4.16-6.3,0-9.83-3.99-9.83-11.01Zm17.64-.5c0-5.5-3.36-8.07-7.35-8.07-3.11,0-7.14,1.47-7.14,8.4s3.61,8.61,7.14,8.61c4.24,0,7.35-2.73,7.35-8.95Z"/><path class="cls-17" d="m838.24,1988.76h-15.96c.17,4.79,2.48,7.48,6.93,7.48,3.82,0,5.67-1.43,5.96-4.83h2.98c-.29,4.24-3.28,7.39-9.03,7.39-7.06,0-9.83-4.66-9.83-10.88s3.23-11.22,10-11.22,8.95,3.99,8.95,10.21v1.85Zm-3.11-2.98c0-4.45-1.72-6.55-5.92-6.55s-6.55,2.65-6.89,6.97h12.81v-.42Z"/><path class="cls-17" d="m842.22,1991.83v-1.18h2.94v1.13c0,2.86,2.14,4.5,5.96,4.5s5.8-1.01,5.8-3.78c0-2.06-1.01-2.81-3.86-3.32l-4.62-.84c-3.02-.55-5.54-2.02-5.54-5.5,0-3.15,2.35-6.13,8.4-6.13s8.4,3.02,8.4,7.23v.88h-2.98v-.76c0-3.44-2.14-4.92-5.42-4.92-3.95,0-5.33,1.34-5.33,3.36s1.01,2.86,3.91,3.4l4.03.76c4.12.76,6.09,1.93,6.09,5.59,0,4.58-4.12,6.55-8.78,6.55-7.31,0-8.99-3.28-8.99-6.97Z"/><path class="cls-17" d="m864.19,1987.92c0-6.38,3.23-11.22,10-11.22s8.95,3.91,8.95,8.95v.42h-3.11v-.63c0-3.82-1.64-6.09-5.84-6.09-4.75,0-7.02,3.11-7.02,8.4,0,5.63,2.39,8.49,6.93,8.49,3.82,0,5.84-1.85,5.92-5.67h3.02c-.08,4.66-3.15,8.23-9.03,8.23-7.23,0-9.83-4.75-9.83-10.88Z"/><path class="cls-17" d="m906.27,1988.76h-15.96c.17,4.79,2.48,7.48,6.93,7.48,3.82,0,5.67-1.43,5.96-4.83h2.98c-.29,4.24-3.28,7.39-9.03,7.39-7.06,0-9.83-4.66-9.83-10.88s3.23-11.22,10-11.22,8.95,3.99,8.95,10.21v1.85Zm-3.11-2.98c0-4.45-1.72-6.55-5.92-6.55s-6.55,2.65-6.89,6.97h12.81v-.42Z"/><path class="cls-17" d="m912.15,1977.25h2.6l.29,3.49c1.01-2.14,3.28-4.03,7.35-4.03,4.75,0,7.77,2.52,7.77,7.94v13.61h-2.94v-13.27c0-4.33-2.14-5.71-5.5-5.71-3.82,0-6.64,2.69-6.64,5.63v13.36h-2.94v-21Z"/><path class="cls-17" d="m935.84,1987.79c0-7.1,4.28-11.09,10.04-11.09,3.7,0,6.22,1.6,7.31,3.74h.04v-14.96h2.94v32.77h-1.97l-.67-3.61h-.08c-1.18,2.31-3.95,4.16-7.77,4.16-6.3,0-9.83-3.99-9.83-11.01Zm17.64-.5c0-5.5-3.36-8.07-7.35-8.07-3.11,0-7.14,1.47-7.14,8.4s3.61,8.61,7.14,8.61c4.24,0,7.35-2.73,7.35-8.95Z"/><path class="cls-17" d="m980.78,1988.76h-15.96c.17,4.79,2.48,7.48,6.93,7.48,3.82,0,5.67-1.43,5.96-4.83h2.98c-.29,4.24-3.28,7.39-9.03,7.39-7.06,0-9.83-4.66-9.83-10.88s3.23-11.22,10-11.22,8.95,3.99,8.95,10.21v1.85Zm-3.11-2.98c0-4.45-1.72-6.55-5.92-6.55s-6.55,2.65-6.89,6.97h12.81v-.42Z"/><path class="cls-17" d="m986.66,1977.25h2.6l.29,3.91c1.01-2.14,3.07-4.45,6.76-4.45,1.26,0,2.18.21,3.02.55v3.15c-1.13-.5-2.1-.76-3.4-.76-3.74,0-6.34,2.81-6.34,5.75v12.85h-2.94v-21Z"/><path class="cls-17" d="m1001.86,1991.83v-1.18h2.94v1.13c0,2.86,2.14,4.5,5.96,4.5s5.8-1.01,5.8-3.78c0-2.06-1.01-2.81-3.86-3.32l-4.62-.84c-3.02-.55-5.54-2.02-5.54-5.5,0-3.15,2.35-6.13,8.4-6.13s8.4,3.02,8.4,7.23v.88h-2.98v-.76c0-3.44-2.14-4.92-5.42-4.92-3.95,0-5.33,1.34-5.33,3.36s1.01,2.86,3.91,3.4l4.03.76c4.12.76,6.09,1.93,6.09,5.59,0,4.58-4.12,6.55-8.78,6.55-7.31,0-8.99-3.28-8.99-6.97Z"/><path class="cls-17" d="m1052.43,1988.76h-15.96c.17,4.79,2.48,7.48,6.93,7.48,3.82,0,5.67-1.43,5.96-4.83h2.98c-.29,4.24-3.28,7.39-9.03,7.39-7.06,0-9.83-4.66-9.83-10.88s3.23-11.22,10-11.22,8.95,3.99,8.95,10.21v1.85Zm-3.11-2.98c0-4.45-1.72-6.55-5.92-6.55s-6.55,2.65-6.89,6.97h12.81v-.42Z"/><path class="cls-17" d="m1073.68,1977.29l-8.07,10.5,8.02,10.42v.04h-3.44l-6.34-8.44-6.43,8.44h-3.28v-.04l8.02-10.38-8.07-10.54v-.04h3.44l6.39,8.49,6.43-8.44v-.04h3.32v.04Z"/><path class="cls-17" d="m1089.18,1995.57v2.6c-.76.21-2.14.59-4.03.59-3.82,0-6.34-1.6-6.34-6.89v-12.18h-4.16v-2.44h4.16v-6.05l2.94-1.43v7.48h5.92v2.44h-5.92v11.8c0,2.81.76,4.58,3.4,4.58,1.6,0,3.23-.29,4.03-.5Z"/><path class="cls-17" d="m1110.64,1988.76h-15.96c.17,4.79,2.48,7.48,6.93,7.48,3.82,0,5.67-1.43,5.97-4.83h2.98c-.29,4.24-3.28,7.39-9.03,7.39-7.06,0-9.83-4.66-9.83-10.88s3.23-11.22,10-11.22,8.95,3.99,8.95,10.21v1.85Zm-3.11-2.98c0-4.45-1.72-6.55-5.92-6.55s-6.55,2.65-6.89,6.97h12.81v-.42Z"/><path class="cls-17" d="m1116.52,1977.25h2.6l.29,3.49c1.01-2.14,3.28-4.03,7.35-4.03,4.75,0,7.77,2.52,7.77,7.94v13.61h-2.94v-13.27c0-4.33-2.14-5.71-5.5-5.71-3.82,0-6.64,2.69-6.64,5.63v13.36h-2.94v-21Z"/><path class="cls-17" d="m1140.21,1987.79c0-7.1,4.28-11.09,10.04-11.09,3.7,0,6.22,1.6,7.31,3.74h.04v-14.96h2.94v32.77h-1.97l-.67-3.61h-.08c-1.18,2.31-3.95,4.16-7.77,4.16-6.3,0-9.83-3.99-9.83-11.01Zm17.64-.5c0-5.5-3.36-8.07-7.35-8.07-3.11,0-7.14,1.47-7.14,8.4s3.61,8.61,7.14,8.61c4.24,0,7.35-2.73,7.35-8.95Z"/><path class="cls-17" d="m725.42,2043.61h-.08l-.76,3.49h-1.97v-32.77h2.94v15.25h.04c1.26-2.31,4.07-4.03,7.69-4.03,6.3,0,9.66,3.99,9.66,11.01s-4.28,11.09-9.87,11.09c-3.78,0-6.55-1.64-7.65-4.03Zm14.37-6.89c0-7.18-3.4-8.61-6.93-8.61-4.24,0-7.56,2.73-7.56,8.44,0,6.01,3.44,8.57,7.44,8.57,3.02,0,7.06-1.47,7.06-8.4Z"/><path class="cls-17" d="m766.08,2037.61h-15.96c.17,4.79,2.48,7.48,6.93,7.48,3.82,0,5.67-1.43,5.96-4.83h2.98c-.29,4.24-3.28,7.39-9.03,7.39-7.06,0-9.83-4.66-9.83-10.88s3.23-11.22,10-11.22,8.95,3.99,8.95,10.21v1.85Zm-3.11-2.98c0-4.45-1.72-6.55-5.92-6.55s-6.55,2.65-6.89,6.97h12.81v-.42Z"/><path class="cls-17" d="m771.33,2026.1l6.89,17.98h.08l7.14-17.98h3.07v.04l-8.86,20.84-3.11,8.53h-2.98v-.04l3.19-8.36-8.78-20.96v-.04h3.36Z"/><path class="cls-17" d="m790.19,2036.6c0-6.22,3.32-11.05,10.38-11.05,6.6,0,10.25,4.83,10.25,11.05s-3.7,11.05-10.29,11.05c-7.27,0-10.33-4.83-10.33-11.05Zm17.56,0c0-5.33-2.9-8.49-7.23-8.49-4.75,0-7.27,3.15-7.27,8.49s2.56,8.49,7.27,8.49c4.33,0,7.23-3.15,7.23-8.49Z"/><path class="cls-17" d="m816.69,2026.1h2.6l.29,3.49c1.01-2.14,3.28-4.03,7.35-4.03,4.75,0,7.77,2.52,7.77,7.94v13.61h-2.94v-13.27c0-4.33-2.14-5.71-5.5-5.71-3.82,0-6.64,2.69-6.64,5.63v13.36h-2.94v-21Z"/><path class="cls-17" d="m840.38,2036.64c0-7.1,4.28-11.09,10.04-11.09,3.7,0,6.22,1.6,7.31,3.74h.04v-14.95h2.94v32.77h-1.97l-.67-3.61h-.08c-1.18,2.31-3.95,4.16-7.77,4.16-6.3,0-9.83-3.99-9.83-11.01Zm17.64-.5c0-5.5-3.36-8.07-7.35-8.07-3.11,0-7.14,1.47-7.14,8.4s3.61,8.61,7.14,8.61c4.24,0,7.35-2.73,7.35-8.95Z"/><path class="cls-17" d="m877.29,2039.71v-13.61h2.94v13.27c0,4.33,2.14,5.71,5.42,5.71,3.74,0,6.55-2.69,6.55-5.63v-13.36h2.94v21h-2.6l-.25-3.36h-.08c-.97,2.02-3.23,3.91-7.23,3.91-4.66,0-7.69-2.52-7.69-7.94Z"/><path class="cls-17" d="m902.49,2026.1h2.6l.29,3.49c1.01-2.14,3.28-4.03,7.35-4.03,4.75,0,7.77,2.52,7.77,7.94v13.61h-2.94v-13.27c0-4.33-2.14-5.71-5.5-5.71-3.82,0-6.64,2.69-6.64,5.63v13.36h-2.94v-21Z"/><path class="cls-17" d="m927.86,2014.33h2.94v32.77h-2.94v-32.77Z"/><path class="cls-17" d="m936.47,2036.6c0-6.22,3.32-11.05,10.38-11.05,6.6,0,10.25,4.83,10.25,11.05s-3.7,11.05-10.29,11.05c-7.27,0-10.33-4.83-10.33-11.05Zm17.56,0c0-5.33-2.9-8.49-7.23-8.49-4.75,0-7.27,3.15-7.27,8.49s2.56,8.49,7.27,8.49c4.33,0,7.23-3.15,7.23-8.49Z"/><path class="cls-17" d="m961.29,2036.6c0-6.22,3.32-11.05,10.38-11.05,6.6,0,10.25,4.83,10.25,11.05s-3.7,11.05-10.29,11.05c-7.27,0-10.33-4.83-10.33-11.05Zm17.56,0c0-5.33-2.9-8.49-7.23-8.49-4.75,0-7.27,3.15-7.27,8.49s2.56,8.49,7.27,8.49c4.33,0,7.23-3.15,7.23-8.49Z"/><path class="cls-17" d="m987.79,2026.1h2.39l.34,3.86h.08c1.13-2.48,4.03-4.41,7.86-4.41,6.3,0,9.66,3.99,9.66,11.01s-4.28,11.09-9.87,11.09c-3.78,0-6.39-1.6-7.44-3.7h-.08v11.55h-2.94v-29.41Zm17.18,10.63c0-7.18-3.4-8.61-6.93-8.61-4.24,0-7.56,2.73-7.56,8.44,0,6.01,3.44,8.57,7.44,8.57,3.02,0,7.06-1.47,7.06-8.4Z"/><path class="cls-17" d="m1031.27,2037.61h-15.96c.17,4.79,2.48,7.48,6.93,7.48,3.82,0,5.67-1.43,5.96-4.83h2.98c-.29,4.24-3.28,7.39-9.03,7.39-7.06,0-9.83-4.66-9.83-10.88s3.23-11.22,10-11.22,8.95,3.99,8.95,10.21v1.85Zm-3.11-2.98c0-4.45-1.72-6.55-5.92-6.55s-6.55,2.65-6.89,6.97h12.81v-.42Z"/><path class="cls-17" d="m1035.46,2036.64c0-7.1,4.28-11.09,10.04-11.09,3.7,0,6.22,1.6,7.31,3.74h.04v-14.95h2.94v32.77h-1.97l-.67-3.61h-.08c-1.18,2.31-3.95,4.16-7.77,4.16-6.3,0-9.83-3.99-9.83-11.01Zm17.64-.5c0-5.5-3.36-8.07-7.35-8.07-3.11,0-7.14,1.47-7.14,8.4s3.61,8.61,7.14,8.61c4.24,0,7.35-2.73,7.35-8.95Z"/><path class="cls-17" d="m1071.12,2036.6c0-6.22,3.32-11.05,10.38-11.05,6.59,0,10.25,4.83,10.25,11.05s-3.7,11.05-10.29,11.05c-7.27,0-10.33-4.83-10.33-11.05Zm17.56,0c0-5.33-2.9-8.49-7.22-8.49-4.75,0-7.27,3.15-7.27,8.49s2.56,8.49,7.27,8.49c4.33,0,7.22-3.15,7.22-8.49Z"/><path class="cls-17" d="m1097.62,2026.1h2.6l.29,3.49c1.01-2.14,3.28-4.03,7.35-4.03,4.75,0,7.77,2.52,7.77,7.94v13.61h-2.94v-13.27c0-4.33-2.14-5.71-5.5-5.71-3.82,0-6.64,2.69-6.64,5.63v13.36h-2.94v-21Z"/><path class="cls-17" d="m1140.25,2037.61h-15.96c.17,4.79,2.48,7.48,6.93,7.48,3.82,0,5.67-1.43,5.97-4.83h2.98c-.29,4.24-3.28,7.39-9.03,7.39-7.06,0-9.83-4.66-9.83-10.88s3.23-11.22,10-11.22,8.95,3.99,8.95,10.21v1.85Zm-3.11-2.98c0-4.45-1.72-6.55-5.92-6.55s-6.55,2.65-6.89,6.97h12.81v-.42Z"/><path class="cls-17" d="m1144.24,2040.67v-1.18h2.94v1.13c0,2.86,2.14,4.5,5.96,4.5s5.8-1.01,5.8-3.78c0-2.06-1.01-2.81-3.86-3.32l-4.62-.84c-3.02-.55-5.54-2.02-5.54-5.5,0-3.15,2.35-6.13,8.4-6.13s8.4,3.02,8.4,7.22v.88h-2.98v-.76c0-3.44-2.14-4.91-5.42-4.91-3.95,0-5.33,1.34-5.33,3.36s1.01,2.86,3.91,3.4l4.03.76c4.12.76,6.09,1.93,6.09,5.59,0,4.58-4.12,6.55-8.78,6.55-7.31,0-8.99-3.28-8.99-6.97Z"/><path class="cls-17" d="m847.1,978.48c0-12.01,6.76-17.27,14.74-17.27,6.97,0,12.39,3.74,12.39,12.01v.8h-2.86v-.92c0-5.92-3.78-9.24-9.45-9.24-6.72,0-11.76,4.58-11.76,14.32s5.04,14.24,11.72,14.24c5.38,0,9.54-2.86,9.54-9.2v-.59h2.77v.42c0,8.02-5.33,12.01-12.56,12.01-7.98,0-14.53-4.87-14.53-16.59Z"/><path class="cls-17" d="m880.53,973.53h2.6l.29,3.91c1.01-2.14,3.07-4.45,6.76-4.45,1.26,0,2.18.21,3.02.55v3.15c-1.13-.5-2.1-.76-3.4-.76-3.74,0-6.34,2.81-6.34,5.75v12.85h-2.94v-21Z"/><path class="cls-17" d="m895.52,984.03c0-6.22,3.32-11.05,10.38-11.05,6.59,0,10.25,4.83,10.25,11.05s-3.7,11.05-10.29,11.05c-7.27,0-10.33-4.83-10.33-11.05Zm17.56,0c0-5.33-2.9-8.49-7.22-8.49-4.75,0-7.27,3.15-7.27,8.49s2.56,8.49,7.27,8.49c4.33,0,7.22-3.15,7.22-8.49Z"/><path class="cls-17" d="m920.14,988.1v-1.18h2.94v1.13c0,2.86,2.14,4.5,5.96,4.5s5.8-1.01,5.8-3.78c0-2.06-1.01-2.81-3.86-3.32l-4.62-.84c-3.02-.55-5.54-2.02-5.54-5.5,0-3.15,2.35-6.13,8.4-6.13s8.4,3.02,8.4,7.23v.88h-2.98v-.76c0-3.44-2.14-4.91-5.42-4.91-3.95,0-5.33,1.34-5.33,3.36s1.01,2.86,3.91,3.4l4.03.76c4.12.76,6.09,1.93,6.09,5.59,0,4.58-4.12,6.55-8.78,6.55-7.31,0-8.99-3.28-8.99-6.97Z"/><path class="cls-17" d="m941.89,988.1v-1.18h2.94v1.13c0,2.86,2.14,4.5,5.96,4.5s5.8-1.01,5.8-3.78c0-2.06-1.01-2.81-3.86-3.32l-4.62-.84c-3.02-.55-5.54-2.02-5.54-5.5,0-3.15,2.35-6.13,8.4-6.13s8.4,3.02,8.4,7.23v.88h-2.98v-.76c0-3.44-2.14-4.91-5.42-4.91-3.95,0-5.33,1.34-5.33,3.36s1.01,2.86,3.91,3.4l4.03.76c4.12.76,6.09,1.93,6.09,5.59,0,4.58-4.12,6.55-8.78,6.55-7.31,0-8.99-3.28-8.99-6.97Z"/><path class="cls-17" d="m968.35,991.04h-.08l-.76,3.49h-1.97v-32.77h2.94v15.25h.04c1.26-2.31,4.07-4.03,7.69-4.03,6.3,0,9.66,3.99,9.66,11.01s-4.29,11.09-9.87,11.09c-3.78,0-6.55-1.64-7.65-4.03Zm14.37-6.89c0-7.18-3.4-8.61-6.93-8.61-4.24,0-7.56,2.73-7.56,8.44,0,6.01,3.45,8.57,7.44,8.57,3.02,0,7.06-1.47,7.06-8.4Z"/><path class="cls-17" d="m990.28,988.73c0-3.95,2.23-6.09,7.86-6.09h6.34v-1.72c0-2.98-1.26-5.42-5.46-5.42-3.95,0-5.33,1.51-5.33,4.12v.88h-2.98v-.84c0-5,4.2-6.68,8.32-6.68,5.8,0,8.4,2.86,8.4,8.44v13.11h-2.06l-.55-2.98h-.08c-1.26,1.89-3.7,3.53-7.35,3.53-4.92,0-7.1-2.31-7.1-6.34Zm14.2-1.85v-1.76h-7.01c-2.65,0-4.03.92-4.03,3.61,0,2.35,1.26,3.86,4.5,3.86,4.16,0,6.55-2.14,6.55-5.71Z"/><path class="cls-17" d="m1014.76,973.53h2.6l.29,3.91c1.01-2.14,3.07-4.45,6.76-4.45,1.26,0,2.18.21,3.02.55v3.15c-1.13-.5-2.1-.76-3.4-.76-3.74,0-6.34,2.81-6.34,5.75v12.85h-2.94v-21Z"/><path class="cls-17" d="m1041.73,961.76h2.98v6.51h-2.98v-6.51Zm0,11.76h2.94v21h-2.94v-21Z"/><path class="cls-17" d="m1052.06,973.53h2.6l.29,3.49c1.01-2.14,3.28-4.03,7.35-4.03,4.75,0,7.77,2.52,7.77,7.94v13.61h-2.94v-13.27c0-4.33-2.14-5.71-5.5-5.71-3.82,0-6.64,2.69-6.64,5.63v13.36h-2.94v-21Z"/><path class="cls-17" d="m1088.77,972.22h-3.36v-5.08c0-3.95.88-5.29,3.4-5.97l.67,1.85c-1.76.67-2.06,1.09-2.06,3.78v.34h1.34v5.08Zm5.92,0h-3.36v-5.08c0-3.95.88-5.29,3.4-5.97l.67,1.85c-1.76.67-2.06,1.09-2.06,3.78v.34h1.34v5.08Z"/><path class="cls-17" d="m1115.02,991.04h-.08c-1.09,2.14-3.65,4.03-7.48,4.03-6.3,0-9.75-3.99-9.75-11.01s4.37-11.09,9.96-11.09c3.78,0,6.6,1.76,7.65,4.28h.04l.29-3.74h2.31v29.41h-2.94v-11.89Zm.34-7.48c0-5.5-3.36-8.07-7.35-8.07-3.03,0-7.14,1.47-7.14,8.4s3.57,8.61,7.1,8.61c4.24,0,7.39-2.73,7.39-8.95Z"/><path class="cls-17" d="m1122.58,970.96c1.76-.67,2.06-1.09,2.06-3.78v-.34h-1.34v-5.08h3.36v5.08c0,3.95-.88,5.29-3.4,5.97l-.67-1.85Zm5.92,0c1.76-.67,2.06-1.09,2.06-3.78v-.34h-1.34v-5.08h3.36v5.08c0,3.95-.88,5.29-3.4,5.97l-.67-1.85Z"/><path class="cls-17" d="m1074.15,2116.28h8.61c7.94,0,11.64,2.44,11.64,8.86,0,4.58-2.18,7.98-6.76,9.33l7.86,14.54v.04h-3.32l-7.35-14.03c-.67.04-1.34.08-2.1.08h-5.59v13.95h-2.98v-32.77Zm8.74,16.3c6.09,0,8.49-2.81,8.49-7.31,0-4.75-2.6-6.38-8.44-6.38h-5.8v13.69h5.75Z"/><path class="cls-17" d="m1099.47,2143.25c0-3.95,2.23-6.09,7.86-6.09h6.34v-1.72c0-2.98-1.26-5.42-5.46-5.42-3.95,0-5.33,1.51-5.33,4.12v.88h-2.98v-.84c0-5,4.2-6.68,8.32-6.68,5.8,0,8.4,2.86,8.4,8.44v13.11h-2.06l-.55-2.98h-.08c-1.26,1.89-3.7,3.53-7.35,3.53-4.92,0-7.1-2.31-7.1-6.34Zm14.2-1.85v-1.76h-7.01c-2.65,0-4.03.92-4.03,3.61,0,2.35,1.26,3.86,4.5,3.86,4.16,0,6.55-2.14,6.55-5.71Z"/><path class="cls-17" d="m1123.96,2116.28h2.98v6.51h-2.98v-6.51Zm0,11.76h2.94v21h-2.94v-21Z"/><path class="cls-17" d="m1132.4,2142.62v-1.18h2.94v1.13c0,2.86,2.14,4.5,5.96,4.5s5.8-1.01,5.8-3.78c0-2.06-1.01-2.81-3.86-3.32l-4.62-.84c-3.02-.55-5.54-2.02-5.54-5.5,0-3.15,2.35-6.13,8.4-6.13s8.4,3.02,8.4,7.22v.88h-2.98v-.76c0-3.44-2.14-4.91-5.42-4.91-3.95,0-5.33,1.34-5.33,3.36s1.01,2.86,3.91,3.4l4.03.76c4.12.76,6.09,1.93,6.09,5.59,0,4.58-4.12,6.55-8.78,6.55-7.31,0-8.99-3.28-8.99-6.97Z"/><path class="cls-17" d="m1173.31,2139.55h-15.96c.17,4.79,2.48,7.48,6.93,7.48,3.82,0,5.67-1.43,5.97-4.83h2.98c-.29,4.24-3.28,7.39-9.03,7.39-7.06,0-9.83-4.66-9.83-10.88s3.23-11.22,10-11.22,8.95,3.99,8.95,10.21v1.85Zm-3.11-2.98c0-4.45-1.72-6.55-5.92-6.55s-6.55,2.65-6.89,6.97h12.81v-.42Z"/><path class="cls-17" d="m1177.51,2138.59c0-7.1,4.28-11.09,10.04-11.09,3.7,0,6.22,1.6,7.31,3.74h.04v-14.95h2.94v32.77h-1.97l-.67-3.61h-.08c-1.18,2.31-3.95,4.16-7.77,4.16-6.3,0-9.83-3.99-9.83-11.01Zm17.64-.5c0-5.5-3.36-8.07-7.35-8.07-3.11,0-7.14,1.47-7.14,8.4s3.61,8.61,7.14,8.61c4.24,0,7.35-2.73,7.35-8.95Z"/><path class="cls-17" d="m1217.66,2145.56h-.08l-.76,3.49h-1.97v-32.77h2.94v15.25h.04c1.26-2.31,4.07-4.03,7.69-4.03,6.3,0,9.66,3.99,9.66,11.01s-4.29,11.09-9.87,11.09c-3.78,0-6.55-1.64-7.65-4.03Zm14.37-6.89c0-7.18-3.4-8.61-6.93-8.61-4.24,0-7.56,2.73-7.56,8.44,0,6.01,3.45,8.57,7.44,8.57,3.02,0,7.06-1.47,7.06-8.4Z"/><path class="cls-17" d="m1239.58,2143.25c0-3.95,2.23-6.09,7.86-6.09h6.34v-1.72c0-2.98-1.26-5.42-5.46-5.42-3.95,0-5.33,1.51-5.33,4.12v.88h-2.98v-.84c0-5,4.2-6.68,8.32-6.68,5.8,0,8.4,2.86,8.4,8.44v13.11h-2.06l-.55-2.98h-.08c-1.26,1.89-3.7,3.53-7.35,3.53-4.92,0-7.1-2.31-7.1-6.34Zm14.2-1.85v-1.76h-7.01c-2.65,0-4.03.92-4.03,3.61,0,2.35,1.26,3.86,4.5,3.86,4.16,0,6.55-2.14,6.55-5.71Z"/><path class="cls-17" d="m1264.07,2128.04h2.6l.29,3.91c1.01-2.14,3.07-4.45,6.76-4.45,1.26,0,2.18.21,3.02.55v3.15c-1.13-.5-2.1-.76-3.4-.76-3.74,0-6.34,2.81-6.34,5.75v12.85h-2.94v-21Z"/><path class="cls-17" d="m1291.03,2116.28h2.98v6.51h-2.98v-6.51Zm0,11.76h2.94v21h-2.94v-21Z"/><path class="cls-17" d="m1301.36,2128.04h2.6l.29,3.49c1.01-2.14,3.28-4.03,7.35-4.03,4.75,0,7.77,2.52,7.77,7.94v13.61h-2.94v-13.27c0-4.33-2.14-5.71-5.5-5.71-3.82,0-6.64,2.69-6.64,5.63v13.36h-2.94v-21Z"/><path class="cls-17" d="m1338.07,2126.74h-3.36v-5.08c0-3.95.88-5.29,3.4-5.97l.67,1.85c-1.76.67-2.06,1.09-2.06,3.78v.34h1.34v5.08Zm5.92,0h-3.36v-5.08c0-3.95.88-5.29,3.4-5.97l.67,1.85c-1.76.67-2.06,1.09-2.06,3.78v.34h1.34v5.08Z"/><path class="cls-17" d="m1361.34,2146.36v2.6c-.76.21-2.14.59-4.03.59-3.82,0-6.34-1.6-6.34-6.89v-12.18h-4.16v-2.44h4.16v-6.05l2.94-1.43v7.48h5.92v2.44h-5.92v11.8c0,2.81.76,4.58,3.4,4.58,1.6,0,3.23-.29,4.03-.5Z"/><path class="cls-17" d="m1363.23,2125.48c1.76-.67,2.06-1.09,2.06-3.78v-.34h-1.34v-5.08h3.36v5.08c0,3.95-.88,5.29-3.4,5.97l-.67-1.85Zm5.92,0c1.76-.67,2.06-1.09,2.06-3.78v-.34h-1.34v-5.08h3.36v5.08c0,3.95-.88,5.29-3.4,5.97l-.67-1.85Z"/><path class="cls-17" d="m668.13,3064.88v-2.02h3.02v2.18c0,3.74,2.6,6.05,7.94,6.05s8.44-1.97,8.44-6.22c0-3.32-1.39-5.17-4.92-6.09l-6.64-1.72c-4.33-1.13-7.18-2.98-7.18-8.15s3.78-8.91,10.92-8.91,10.59,3.45,10.59,9.07v2.94h-3.02v-2.81c0-4.62-3.07-6.51-7.56-6.51-5.12,0-7.81,2.14-7.81,6.01,0,3.61,1.76,4.7,5.54,5.71l5.75,1.55c5.12,1.39,7.44,3.74,7.44,8.65,0,6.09-4.33,9.24-11.47,9.24-9.12,0-11.05-4.7-11.05-8.99Z"/><path class="cls-17" d="m697.19,3052.32l6.89,17.98h.08l7.14-17.98h3.07v.04l-8.86,20.84-3.11,8.53h-2.98v-.04l3.19-8.36-8.78-20.96v-.04h3.36Z"/><path class="cls-17" d="m749.28,3059.71v13.61h-2.94v-13.27c0-4.33-2.14-5.71-4.75-5.71-3.82,0-6.18,2.69-6.18,5.63v13.36h-2.94v-13.27c0-4.33-1.85-5.71-4.83-5.71-3.61,0-6.13,2.69-6.13,5.63v13.36h-2.94v-21h2.6l.29,3.49c1.01-2.02,3.07-4.03,6.93-4.03,2.94,0,5.38,1.39,6.43,4.28,1.22-2.39,3.57-4.28,7.14-4.28,4.28,0,7.31,2.52,7.31,7.94Z"/><path class="cls-17" d="m787.33,3059.71v13.61h-2.94v-13.27c0-4.33-2.14-5.71-4.75-5.71-3.82,0-6.18,2.69-6.18,5.63v13.36h-2.94v-13.27c0-4.33-1.85-5.71-4.83-5.71-3.61,0-6.13,2.69-6.13,5.63v13.36h-2.94v-21h2.6l.29,3.49c1.01-2.02,3.07-4.03,6.93-4.03,2.94,0,5.38,1.39,6.43,4.28,1.22-2.39,3.57-4.28,7.14-4.28,4.28,0,7.31,2.52,7.31,7.94Z"/><path class="cls-17" d="m811.94,3063.83h-15.96c.17,4.79,2.48,7.48,6.93,7.48,3.82,0,5.67-1.43,5.96-4.83h2.98c-.29,4.24-3.28,7.39-9.03,7.39-7.06,0-9.83-4.66-9.83-10.88s3.23-11.22,10-11.22,8.95,3.99,8.95,10.21v1.85Zm-3.11-2.98c0-4.45-1.72-6.55-5.92-6.55s-6.55,2.65-6.89,6.97h12.81v-.42Z"/><path class="cls-17" d="m828.78,3070.63v2.6c-.76.21-2.14.59-4.03.59-3.82,0-6.34-1.6-6.34-6.89v-12.18h-4.16v-2.44h4.16v-6.05l2.94-1.43v7.48h5.92v2.44h-5.92v11.8c0,2.81.76,4.58,3.4,4.58,1.6,0,3.23-.29,4.03-.5Z"/><path class="cls-17" d="m833.61,3052.32h2.6l.29,3.91c1.01-2.14,3.07-4.45,6.76-4.45,1.26,0,2.18.21,3.02.55v3.15c-1.13-.5-2.1-.76-3.4-.76-3.74,0-6.34,2.81-6.34,5.75v12.85h-2.94v-21Z"/><path class="cls-17" d="m850.91,3040.55h2.98v6.51h-2.98v-6.51Zm0,11.76h2.94v21h-2.94v-21Z"/><path class="cls-17" d="m859.56,3062.99c0-6.38,3.23-11.22,10-11.22s8.95,3.91,8.95,8.95v.42h-3.11v-.63c0-3.82-1.64-6.09-5.84-6.09-4.75,0-7.02,3.11-7.02,8.4,0,5.63,2.39,8.49,6.93,8.49,3.82,0,5.84-1.85,5.92-5.67h3.02c-.08,4.66-3.15,8.23-9.03,8.23-7.23,0-9.83-4.75-9.83-10.88Z"/><path class="cls-17" d="m882.92,3067.52c0-3.95,2.23-6.09,7.86-6.09h6.34v-1.72c0-2.98-1.26-5.42-5.46-5.42-3.95,0-5.33,1.51-5.33,4.12v.88h-2.98v-.84c0-5,4.2-6.68,8.32-6.68,5.8,0,8.4,2.86,8.4,8.44v13.11h-2.06l-.55-2.98h-.08c-1.26,1.89-3.7,3.53-7.35,3.53-4.91,0-7.1-2.31-7.1-6.34Zm14.2-1.85v-1.76h-7.02c-2.65,0-4.03.92-4.03,3.61,0,2.35,1.26,3.87,4.5,3.87,4.16,0,6.55-2.14,6.55-5.71Z"/><path class="cls-17" d="m907.4,3040.55h2.94v32.77h-2.94v-32.77Z"/><path class="cls-17" d="m927.35,3040.55h2.94v32.77h-2.94v-32.77Z"/><path class="cls-17" d="m935.96,3062.82c0-6.22,3.32-11.05,10.38-11.05,6.59,0,10.25,4.83,10.25,11.05s-3.7,11.05-10.29,11.05c-7.27,0-10.33-4.83-10.33-11.05Zm17.56,0c0-5.33-2.9-8.49-7.22-8.49-4.75,0-7.27,3.15-7.27,8.49s2.56,8.49,7.27,8.49c4.33,0,7.22-3.15,7.22-8.49Z"/><path class="cls-17" d="m960.78,3062.82c0-6.22,3.32-11.05,10.38-11.05,6.59,0,10.25,4.83,10.25,11.05s-3.7,11.05-10.29,11.05c-7.27,0-10.33-4.83-10.33-11.05Zm17.56,0c0-5.33-2.9-8.49-7.22-8.49-4.75,0-7.27,3.15-7.27,8.49s2.56,8.49,7.27,8.49c4.33,0,7.22-3.15,7.22-8.49Z"/><path class="cls-17" d="m987.29,3052.32h2.39l.34,3.87h.08c1.13-2.48,4.03-4.41,7.86-4.41,6.3,0,9.66,3.99,9.66,11.01s-4.29,11.09-9.87,11.09c-3.78,0-6.38-1.6-7.43-3.7h-.08v11.55h-2.94v-29.41Zm17.18,10.63c0-7.18-3.4-8.61-6.93-8.61-4.24,0-7.56,2.73-7.56,8.44,0,6.01,3.45,8.57,7.44,8.57,3.02,0,7.06-1.47,7.06-8.4Z"/><path class="cls-17" d="m1011.6,3066.89v-1.18h2.94v1.13c0,2.86,2.14,4.49,5.96,4.49s5.8-1.01,5.8-3.78c0-2.06-1.01-2.81-3.86-3.32l-4.62-.84c-3.02-.55-5.54-2.02-5.54-5.5,0-3.15,2.35-6.13,8.4-6.13s8.4,3.02,8.4,7.23v.88h-2.98v-.76c0-3.44-2.14-4.91-5.42-4.91-3.95,0-5.33,1.34-5.33,3.36s1.01,2.86,3.91,3.4l4.03.76c4.12.76,6.09,1.93,6.09,5.59,0,4.58-4.12,6.55-8.78,6.55-7.31,0-8.99-3.28-8.99-6.97Z"/><path class="cls-17" d="m1044.91,3040.55h2.98v6.51h-2.98v-6.51Zm0,11.76h2.94v21h-2.94v-21Z"/><path class="cls-17" d="m1055.24,3052.32h2.6l.29,3.49c1.01-2.14,3.28-4.03,7.35-4.03,4.75,0,7.77,2.52,7.77,7.94v13.61h-2.94v-13.27c0-4.33-2.14-5.71-5.5-5.71-3.82,0-6.64,2.69-6.64,5.63v13.36h-2.94v-21Z"/><path class="cls-17" d="m1091.95,3051.01h-3.36v-5.08c0-3.95.88-5.29,3.4-5.96l.67,1.85c-1.76.67-2.06,1.09-2.06,3.78v.34h1.34v5.08Zm5.92,0h-3.36v-5.08c0-3.95.88-5.29,3.4-5.96l.67,1.85c-1.76.67-2.06,1.09-2.06,3.78v.34h1.34v5.08Z"/><path class="cls-17" d="m1104.26,3040.55h2.94v32.77h-2.94v-32.77Z"/><path class="cls-17" d="m1112.66,3049.75c1.76-.67,2.06-1.09,2.06-3.78v-.34h-1.34v-5.08h3.36v5.08c0,3.95-.88,5.29-3.4,5.97l-.67-1.85Zm5.92,0c1.76-.67,2.06-1.09,2.06-3.78v-.34h-1.34v-5.08h3.36v5.08c0,3.95-.88,5.29-3.4,5.97l-.67-1.85Z"/><path class="cls-17" d="m1136.93,3067.52c0-3.95,2.23-6.09,7.86-6.09h6.34v-1.72c0-2.98-1.26-5.42-5.46-5.42-3.95,0-5.33,1.51-5.33,4.12v.88h-2.98v-.84c0-5,4.2-6.68,8.32-6.68,5.8,0,8.4,2.86,8.4,8.44v13.11h-2.06l-.55-2.98h-.08c-1.26,1.89-3.7,3.53-7.35,3.53-4.92,0-7.1-2.31-7.1-6.34Zm14.2-1.85v-1.76h-7.01c-2.65,0-4.03.92-4.03,3.61,0,2.35,1.26,3.87,4.5,3.87,4.16,0,6.55-2.14,6.55-5.71Z"/><path class="cls-17" d="m1161.42,3052.32h2.6l.29,3.49c1.01-2.14,3.28-4.03,7.35-4.03,4.75,0,7.77,2.52,7.77,7.94v13.61h-2.94v-13.27c0-4.33-2.14-5.71-5.5-5.71-3.82,0-6.64,2.69-6.64,5.63v13.36h-2.94v-21Z"/><path class="cls-17" d="m1185.11,3062.86c0-7.1,4.28-11.09,10.04-11.09,3.7,0,6.22,1.6,7.31,3.74h.04v-14.96h2.94v32.77h-1.97l-.67-3.61h-.08c-1.18,2.31-3.95,4.16-7.77,4.16-6.3,0-9.83-3.99-9.83-11.01Zm17.64-.5c0-5.5-3.36-8.07-7.35-8.07-3.11,0-7.14,1.47-7.14,8.4s3.61,8.61,7.14,8.61c4.24,0,7.35-2.73,7.35-8.95Z"/><path class="cls-17" d="m1224.12,3051.01h-3.36v-5.08c0-3.95.88-5.29,3.4-5.96l.67,1.85c-1.76.67-2.06,1.09-2.06,3.78v.34h1.34v5.08Zm5.92,0h-3.36v-5.08c0-3.95.88-5.29,3.4-5.96l.67,1.85c-1.76.67-2.06,1.09-2.06,3.78v.34h1.34v5.08Z"/><path class="cls-17" d="m1239.24,3069.83h-.08l-.76,3.49h-1.97v-32.77h2.94v15.25h.04c1.26-2.31,4.07-4.03,7.69-4.03,6.3,0,9.66,3.99,9.66,11.01s-4.29,11.09-9.87,11.09c-3.78,0-6.55-1.64-7.65-4.03Zm14.37-6.89c0-7.18-3.4-8.61-6.93-8.61-4.24,0-7.56,2.73-7.56,8.44,0,6.01,3.45,8.57,7.44,8.57,3.02,0,7.06-1.47,7.06-8.4Z"/><path class="cls-17" d="m1258.02,3049.75c1.76-.67,2.06-1.09,2.06-3.78v-.34h-1.34v-5.08h3.36v5.08c0,3.95-.88,5.29-3.4,5.97l-.67-1.85Zm5.92,0c1.76-.67,2.06-1.09,2.06-3.78v-.34h-1.34v-5.08h3.36v5.08c0,3.95-.88,5.29-3.4,5.97l-.67-1.85Z"/><rect class="cls-18" x="774.1" y="3193.56" width="172.92" height="172.92" rx="86.46" ry="86.46"/><rect class="cls-18" x="981.33" y="3193.56" width="172.92" height="172.92" rx="86.46" ry="86.46"/><rect class="cls-18" x="774.1" y="3193.56" width="172.92" height="172.92" rx="86.46" ry="86.46"/><path class="cls-18" d="m1067.79,3193.56h0c47.72,0,86.46,38.74,86.46,86.46h0c0,47.72-38.74,86.46-86.46,86.46h0c-47.72,0-86.46-38.74-86.46-86.46h0c0-47.72,38.74-86.46,86.46-86.46Z"/><line class="cls-12" x1="967.52" y1="3103.45" x2="967.52" y2="3145.85"/><path class="cls-17" d="m1506.6,1127.3c0-11.72,6.76-16.93,15.46-16.93,7.94,0,14.7,5.21,14.7,16.59,0,12.48-6.76,17.26-15.08,17.26s-15.08-4.79-15.08-16.93Zm27.05,0c0-10.12-5.33-14.24-12.01-14.24s-11.93,4.12-11.93,14.24,5.33,14.2,12.01,14.2,11.93-3.74,11.93-14.2Z"/><path class="cls-17" d="m1543.05,1122.68h2.39l.34,3.86h.08c1.13-2.48,4.03-4.41,7.86-4.41,6.3,0,9.66,3.99,9.66,11.01s-4.28,11.09-9.87,11.09c-3.78,0-6.39-1.6-7.44-3.7h-.08v11.55h-2.94v-29.41Zm17.18,10.63c0-7.18-3.4-8.61-6.93-8.61-4.24,0-7.56,2.73-7.56,8.44,0,6.01,3.44,8.57,7.44,8.57,3.02,0,7.06-1.47,7.06-8.4Z"/><path class="cls-17" d="m1586.52,1134.19h-15.96c.17,4.79,2.48,7.48,6.93,7.48,3.82,0,5.67-1.43,5.96-4.83h2.98c-.29,4.24-3.28,7.39-9.03,7.39-7.06,0-9.83-4.66-9.83-10.88s3.23-11.22,10-11.22,8.95,3.99,8.95,10.21v1.85Zm-3.11-2.98c0-4.45-1.72-6.55-5.92-6.55s-6.55,2.65-6.89,6.97h12.81v-.42Z"/><path class="cls-17" d="m1592.4,1122.68h2.6l.29,3.49c1.01-2.14,3.28-4.03,7.35-4.03,4.75,0,7.77,2.52,7.77,7.94v13.61h-2.94v-13.27c0-4.33-2.14-5.71-5.5-5.71-3.82,0-6.64,2.69-6.64,5.63v13.36h-2.94v-21Z"/><path class="cls-17" d="m1627.43,1110.92h2.94v23.23l12.14-11.47h3.65v.04l-8.4,7.86,8.78,13.06v.04h-3.36l-7.39-11.22-5.42,5.04v6.18h-2.94v-32.77Z"/><path class="cls-17" d="m1651.58,1122.68h2.6l.29,3.49c1.01-2.14,3.28-4.03,7.35-4.03,4.75,0,7.77,2.52,7.77,7.94v13.61h-2.94v-13.27c0-4.33-2.14-5.71-5.5-5.71-3.82,0-6.64,2.69-6.64,5.63v13.36h-2.94v-21Z"/><path class="cls-17" d="m1675.27,1133.18c0-6.22,3.32-11.05,10.38-11.05,6.59,0,10.25,4.83,10.25,11.05s-3.7,11.05-10.29,11.05c-7.27,0-10.33-4.83-10.33-11.05Zm17.56,0c0-5.33-2.9-8.49-7.22-8.49-4.75,0-7.27,3.15-7.27,8.49s2.56,8.49,7.27,8.49c4.33,0,7.22-3.15,7.22-8.49Z"/><path class="cls-17" d="m1712.73,1140.99v2.6c-.76.21-2.14.59-4.03.59-3.82,0-6.34-1.6-6.34-6.89v-12.18h-4.16v-2.44h4.16v-6.05l2.94-1.43v7.48h5.92v2.44h-5.92v11.8c0,2.81.76,4.58,3.4,4.58,1.6,0,3.23-.29,4.03-.5Z"/><path class="cls-17" d="m1727.22,1110.92h2.98v6.51h-2.98v-6.51Zm0,11.76h2.94v21h-2.94v-21Z"/><path class="cls-17" d="m1737.55,1122.68h2.6l.29,3.49c1.01-2.14,3.28-4.03,7.35-4.03,4.75,0,7.77,2.52,7.77,7.94v13.61h-2.94v-13.27c0-4.33-2.14-5.71-5.5-5.71-3.82,0-6.64,2.69-6.64,5.63v13.36h-2.94v-21Z"/><path class="cls-17" d="m1774.26,1121.38h-3.36v-5.08c0-3.95.88-5.29,3.4-5.97l.67,1.85c-1.76.67-2.06,1.09-2.06,3.78v.34h1.34v5.08Zm5.92,0h-3.36v-5.08c0-3.95.88-5.29,3.4-5.97l.67,1.85c-1.76.67-2.06,1.09-2.06,3.78v.34h1.34v5.08Z"/><path class="cls-17" d="m1783.21,1133.18c0-6.22,3.32-11.05,10.38-11.05,6.59,0,10.25,4.83,10.25,11.05s-3.7,11.05-10.29,11.05c-7.27,0-10.33-4.83-10.33-11.05Zm17.56,0c0-5.33-2.9-8.49-7.22-8.49-4.75,0-7.27,3.15-7.27,8.49s2.56,8.49,7.27,8.49c4.33,0,7.22-3.15,7.22-8.49Z"/><path class="cls-17" d="m1805.09,1120.11c1.76-.67,2.06-1.09,2.06-3.78v-.34h-1.34v-5.08h3.36v5.08c0,3.95-.88,5.29-3.4,5.97l-.67-1.85Zm5.92,0c1.76-.67,2.06-1.09,2.06-3.78v-.34h-1.34v-5.08h3.36v5.08c0,3.95-.88,5.29-3.4,5.97l-.67-1.85Z"/><path class="cls-17" d="m457.53,1063.49h8.61c7.94,0,11.64,2.73,11.64,9.62,0,6.43-2.77,10.12-11.13,10.12h-6.13v13.02h-2.98v-32.77Zm9.28,17.22c6.09,0,7.94-2.69,7.94-7.65,0-5.21-2.6-6.97-8.44-6.97h-5.8v14.62h6.3Z"/><path class="cls-17" d="m482.39,1075.25h2.6l.29,3.91c1.01-2.14,3.07-4.45,6.76-4.45,1.26,0,2.18.21,3.02.55v3.15c-1.13-.5-2.1-.76-3.4-.76-3.74,0-6.34,2.81-6.34,5.75v12.85h-2.94v-21Z"/><path class="cls-17" d="m497.39,1085.75c0-6.22,3.32-11.05,10.38-11.05,6.6,0,10.25,4.83,10.25,11.05s-3.7,11.05-10.29,11.05c-7.27,0-10.33-4.83-10.33-11.05Zm17.56,0c0-5.33-2.9-8.49-7.23-8.49-4.75,0-7.27,3.15-7.27,8.49s2.56,8.49,7.27,8.49c4.33,0,7.23-3.15,7.23-8.49Z"/><path class="cls-17" d="m523.89,1075.25h2.6l.29,3.49c1.01-2.14,3.28-4.03,7.35-4.03,4.75,0,7.77,2.52,7.77,7.94v13.61h-2.94v-13.27c0-4.33-2.14-5.71-5.5-5.71-3.82,0-6.64,2.69-6.64,5.63v13.36h-2.94v-21Z"/><path class="cls-17" d="m547.58,1085.75c0-6.22,3.32-11.05,10.38-11.05,6.6,0,10.25,4.83,10.25,11.05s-3.7,11.05-10.29,11.05c-7.27,0-10.33-4.83-10.33-11.05Zm17.56,0c0-5.33-2.9-8.49-7.23-8.49-4.75,0-7.27,3.15-7.27,8.49s2.56,8.49,7.27,8.49c4.33,0,7.23-3.15,7.23-8.49Z"/><path class="cls-17" d="m573.66,1088.86v-13.61h2.94v13.27c0,4.33,2.14,5.71,5.42,5.71,3.74,0,6.55-2.69,6.55-5.63v-13.36h2.94v21h-2.6l-.25-3.36h-.08c-.97,2.02-3.23,3.91-7.23,3.91-4.66,0-7.69-2.52-7.69-7.94Z"/><path class="cls-17" d="m598.86,1075.25h2.6l.29,3.49c1.01-2.14,3.28-4.03,7.35-4.03,4.75,0,7.77,2.52,7.77,7.94v13.61h-2.94v-13.27c0-4.33-2.14-5.71-5.5-5.71-3.82,0-6.64,2.69-6.64,5.63v13.36h-2.94v-21Z"/><path class="cls-17" d="m622.55,1085.92c0-6.38,3.23-11.22,10-11.22s8.95,3.91,8.95,8.95v.42h-3.11v-.63c0-3.82-1.64-6.09-5.84-6.09-4.75,0-7.01,3.11-7.01,8.4,0,5.63,2.39,8.49,6.93,8.49,3.82,0,5.84-1.85,5.92-5.67h3.02c-.08,4.66-3.15,8.23-9.03,8.23-7.22,0-9.83-4.75-9.83-10.88Z"/><path class="cls-17" d="m664.63,1086.76h-15.96c.17,4.79,2.48,7.48,6.93,7.48,3.82,0,5.67-1.43,5.97-4.83h2.98c-.29,4.24-3.28,7.39-9.03,7.39-7.06,0-9.83-4.66-9.83-10.88s3.23-11.22,10-11.22,8.95,3.99,8.95,10.21v1.85Zm-3.11-2.98c0-4.45-1.72-6.55-5.92-6.55s-6.55,2.65-6.89,6.97h12.81v-.42Z"/><path class="cls-17" d="m668.83,1085.79c0-7.1,4.28-11.09,10.04-11.09,3.7,0,6.22,1.6,7.31,3.74h.04v-14.95h2.94v32.77h-1.97l-.67-3.61h-.08c-1.18,2.31-3.95,4.16-7.77,4.16-6.3,0-9.83-3.99-9.83-11.01Zm17.64-.5c0-5.5-3.36-8.07-7.35-8.07-3.11,0-7.14,1.47-7.14,8.4s3.61,8.61,7.14,8.61c4.24,0,7.35-2.73,7.35-8.95Z"/><path class="cls-17" d="m723.43,1086.76h-15.96c.17,4.79,2.48,7.48,6.93,7.48,3.82,0,5.67-1.43,5.97-4.83h2.98c-.29,4.24-3.28,7.39-9.03,7.39-7.06,0-9.83-4.66-9.83-10.88s3.23-11.22,10-11.22,8.95,3.99,8.95,10.21v1.85Zm-3.11-2.98c0-4.45-1.72-6.55-5.92-6.55s-6.55,2.65-6.89,6.97h12.81v-.42Z"/><path class="cls-17" d="m729.31,1075.25h2.6l.29,3.49c1.01-2.14,3.28-4.03,7.35-4.03,4.75,0,7.77,2.52,7.77,7.94v13.61h-2.94v-13.27c0-4.33-2.14-5.71-5.5-5.71-3.82,0-6.64,2.69-6.64,5.63v13.36h-2.94v-21Z"/><path class="cls-17" d="m765.64,1093.57v2.6c-.76.21-2.14.59-4.03.59-3.82,0-6.34-1.6-6.34-6.89v-12.18h-4.16v-2.44h4.16v-6.05l2.94-1.43v7.48h5.92v2.44h-5.92v11.8c0,2.81.76,4.58,3.4,4.58,1.6,0,3.23-.29,4.03-.5Z"/><path class="cls-17" d="m770.47,1075.25h2.6l.29,3.91c1.01-2.14,3.07-4.45,6.76-4.45,1.26,0,2.18.21,3.02.55v3.15c-1.13-.5-2.1-.76-3.4-.76-3.74,0-6.34,2.81-6.34,5.75v12.85h-2.94v-21Z"/><path class="cls-17" d="m787.98,1075.25l6.89,17.98h.08l7.14-17.98h3.07v.04l-8.86,20.84-3.11,8.53h-2.98v-.04l3.19-8.36-8.78-20.96v-.04h3.36Z"/><path class="cls-17" d="m429.56,1138.67v-1.18h2.94v1.13c0,2.86,2.14,4.5,5.96,4.5s5.8-1.01,5.8-3.78c0-2.06-1.01-2.81-3.86-3.32l-4.62-.84c-3.02-.55-5.54-2.02-5.54-5.5,0-3.15,2.35-6.13,8.4-6.13s8.4,3.02,8.4,7.23v.88h-2.98v-.76c0-3.44-2.14-4.91-5.42-4.91-3.95,0-5.33,1.34-5.33,3.36s1.01,2.86,3.91,3.4l4.03.76c4.12.76,6.09,1.93,6.09,5.59,0,4.58-4.12,6.55-8.78,6.55-7.31,0-8.99-3.28-8.99-6.97Z"/><path class="cls-17" d="m464.17,1142.41v2.6c-.76.21-2.14.59-4.03.59-3.82,0-6.34-1.6-6.34-6.89v-12.18h-4.16v-2.44h4.16v-6.05l2.94-1.43v7.48h5.92v2.44h-5.92v11.8c0,2.81.76,4.58,3.4,4.58,1.6,0,3.23-.29,4.03-.5Z"/><path class="cls-17" d="m468.99,1124.1h2.6l.29,3.91c1.01-2.14,3.07-4.45,6.76-4.45,1.26,0,2.18.21,3.02.55v3.15c-1.13-.5-2.1-.76-3.4-.76-3.74,0-6.34,2.81-6.34,5.75v12.85h-2.94v-21Z"/><path class="cls-17" d="m483.99,1134.6c0-6.22,3.32-11.05,10.38-11.05,6.6,0,10.25,4.83,10.25,11.05s-3.7,11.05-10.29,11.05c-7.27,0-10.33-4.83-10.33-11.05Zm17.56,0c0-5.33-2.9-8.49-7.23-8.49-4.75,0-7.27,3.15-7.27,8.49s2.56,8.49,7.27,8.49c4.33,0,7.23-3.15,7.23-8.49Z"/><path class="cls-17" d="m509.86,1112.33h2.94v23.23l12.14-11.47h3.65v.04l-8.4,7.86,8.78,13.06v.04h-3.36l-7.39-11.22-5.42,5.04v6.18h-2.94v-32.77Z"/><path class="cls-17" d="m550.23,1135.61h-15.96c.17,4.79,2.48,7.48,6.93,7.48,3.82,0,5.67-1.43,5.96-4.83h2.98c-.29,4.24-3.28,7.39-9.03,7.39-7.06,0-9.83-4.66-9.83-10.88s3.23-11.22,10-11.22,8.95,3.99,8.95,10.21v1.85Zm-3.11-2.98c0-4.45-1.72-6.55-5.92-6.55s-6.55,2.65-6.89,6.97h12.81v-.42Z"/><path class="cls-17" d="m554.21,1138.67v-1.18h2.94v1.13c0,2.86,2.14,4.5,5.96,4.5s5.8-1.01,5.8-3.78c0-2.06-1.01-2.81-3.86-3.32l-4.62-.84c-3.02-.55-5.54-2.02-5.54-5.5,0-3.15,2.35-6.13,8.4-6.13s8.4,3.02,8.4,7.23v.88h-2.98v-.76c0-3.44-2.14-4.91-5.42-4.91-3.95,0-5.33,1.34-5.33,3.36s1.01,2.86,3.91,3.4l4.03.76c4.12.76,6.09,1.93,6.09,5.59,0,4.58-4.12,6.55-8.78,6.55-7.31,0-8.99-3.28-8.99-6.97Z"/><path class="cls-17" d="m587.52,1112.33h2.98v6.51h-2.98v-6.51Zm0,11.76h2.94v21h-2.94v-21Z"/><path class="cls-17" d="m597.85,1124.1h2.6l.29,3.49c1.01-2.14,3.28-4.03,7.35-4.03,4.75,0,7.77,2.52,7.77,7.94v13.61h-2.94v-13.27c0-4.33-2.14-5.71-5.5-5.71-3.82,0-6.64,2.69-6.64,5.63v13.36h-2.94v-21Z"/><path class="cls-17" d="m634.56,1122.79h-3.36v-5.08c0-3.95.88-5.29,3.4-5.97l.67,1.85c-1.76.67-2.06,1.09-2.06,3.78v.34h1.34v5.08Zm5.92,0h-3.36v-5.08c0-3.95.88-5.29,3.4-5.97l.67,1.85c-1.76.67-2.06,1.09-2.06,3.78v.34h1.34v5.08Z"/><path class="cls-17" d="m646.86,1124.1h2.6l.29,3.49c1.01-2.14,3.28-4.03,7.35-4.03,4.75,0,7.77,2.52,7.77,7.94v13.61h-2.94v-13.27c0-4.33-2.14-5.71-5.5-5.71-3.82,0-6.64,2.69-6.64,5.63v13.36h-2.94v-21Z"/><path class="cls-17" d="m669.29,1121.53c1.76-.67,2.06-1.09,2.06-3.78v-.34h-1.34v-5.08h3.36v5.08c0,3.95-.88,5.29-3.4,5.97l-.67-1.85Zm5.92,0c1.76-.67,2.06-1.09,2.06-3.78v-.34h-1.34v-5.08h3.36v5.08c0,3.95-.88,5.29-3.4,5.97l-.67-1.85Z"/><path class="cls-17" d="m693.57,1139.3c0-3.95,2.23-6.09,7.86-6.09h6.34v-1.72c0-2.98-1.26-5.42-5.46-5.42-3.95,0-5.33,1.51-5.33,4.12v.88h-2.98v-.84c0-5,4.2-6.68,8.32-6.68,5.8,0,8.4,2.86,8.4,8.44v13.11h-2.06l-.55-2.98h-.08c-1.26,1.89-3.7,3.53-7.35,3.53-4.92,0-7.1-2.31-7.1-6.34Zm14.2-1.85v-1.76h-7.01c-2.65,0-4.03.92-4.03,3.61,0,2.35,1.26,3.86,4.5,3.86,4.16,0,6.55-2.14,6.55-5.71Z"/><path class="cls-17" d="m718.05,1124.1h2.6l.29,3.49c1.01-2.14,3.28-4.03,7.35-4.03,4.75,0,7.77,2.52,7.77,7.94v13.61h-2.94v-13.27c0-4.33-2.14-5.71-5.5-5.71-3.82,0-6.64,2.69-6.64,5.63v13.36h-2.94v-21Z"/><path class="cls-17" d="m741.74,1134.64c0-7.1,4.28-11.09,10.04-11.09,3.7,0,6.22,1.6,7.31,3.74h.04v-14.95h2.94v32.77h-1.97l-.67-3.61h-.08c-1.18,2.31-3.95,4.16-7.77,4.16-6.3,0-9.83-3.99-9.83-11.01Zm17.64-.5c0-5.5-3.36-8.07-7.35-8.07-3.11,0-7.14,1.47-7.14,8.4s3.61,8.61,7.14,8.61c4.24,0,7.35-2.73,7.35-8.95Z"/><path class="cls-17" d="m780.76,1122.79h-3.36v-5.08c0-3.95.88-5.29,3.4-5.97l.67,1.85c-1.76.67-2.06,1.09-2.06,3.78v.34h1.34v5.08Zm5.92,0h-3.36v-5.08c0-3.95.88-5.29,3.4-5.97l.67,1.85c-1.76.67-2.06,1.09-2.06,3.78v.34h1.34v5.08Z"/><path class="cls-17" d="m823.77,1131.49v13.61h-2.94v-13.27c0-4.33-2.14-5.71-4.75-5.71-3.82,0-6.17,2.69-6.17,5.63v13.36h-2.94v-13.27c0-4.33-1.85-5.71-4.83-5.71-3.61,0-6.13,2.69-6.13,5.63v13.36h-2.94v-21h2.6l.29,3.49c1.01-2.02,3.07-4.03,6.93-4.03,2.94,0,5.38,1.39,6.43,4.28,1.22-2.39,3.57-4.28,7.14-4.28,4.29,0,7.31,2.52,7.31,7.94Z"/><path class="cls-17" d="m828.18,1121.53c1.76-.67,2.06-1.09,2.06-3.78v-.34h-1.34v-5.08h3.36v5.08c0,3.95-.88,5.29-3.4,5.97l-.67-1.85Zm5.92,0c1.76-.67,2.06-1.09,2.06-3.78v-.34h-1.34v-5.08h3.36v5.08c0,3.95-.88,5.29-3.4,5.97l-.67-1.85Z"/><rect class="cls-18" x="1584.53" y="1410.82" width="152.21" height="152.21" rx="76.1" ry="76.1"/><rect class="cls-18" x="527.65" y="1410.82" width="152.21" height="152.21" rx="76.1" ry="76.1"/><path class="cls-17" d="m87.7,259.98c-11.26,0-15.02-11.26-11.26-18.77,8.76-16.27,25.02-31.28,42.54-31.28,25.02,0,46.29,25.02,46.29,60.05v236.46c-1.25,73.81,8.76,120.11-53.8,123.86-10.01,0-28.78-2.5-45.04-17.51-1.25-2.5-2.5-5-2.5-8.76,0-6.26,5.01-12.51,12.51-12.51,2.5,0,6.26,1.25,8.76,3.75,7.51,8.76,17.52,10.01,26.27,10.01,35.03-1.25,27.52-22.52,28.78-98.84v-236.46c0-22.52-11.26-35.03-21.27-35.03-6.26,0-15.01,7.5-21.27,18.77-1.25,3.75-6.26,6.26-10.01,6.26Zm113.85,126.36c5,0,8.76,2.5,11.26,7.5,8.76,18.77,31.28,53.8,73.81,53.8,102.59,0,130.12-211.44-12.51-211.44-68.81,0-113.85,47.54-108.85,96.34,1.25,7.51-5,13.76-12.51,13.76-6.26,0-11.26-5.01-12.51-11.26-6.26-63.81,50.04-123.86,133.87-123.86,175.15,0,147.63,261.48,12.51,261.48-57.55,0-86.33-46.29-96.34-67.56-3.75-7.51,1.25-18.77,11.26-18.77Zm131.36,232.7c0-8.76,3.75-12.51,12.51-12.51,20.02,0,31.28-3.75,35.03-10.01,5-8.76,7.5-28.77,7.5-61.3,0-17.51,1.25-41.28,18.77-62.55,21.27-26.27,60.05-32.53,72.56-32.53,32.53,0,56.3,1.25,81.32,21.27v-6.26c0-8.76,3.75-12.51,12.51-12.51s12.51,3.75,12.51,11.26v117.6c0,11.26,6.26,20.02,23.77,27.53,11.26,5,23.77,7.5,36.28,7.5,8.76,0,13.76,3.75,13.76,13.76,0,7.5-3.75,10.01-17.51,10.01-8.76,0-25.02-1.25-37.53-6.26-12.51-5-23.77-12.51-32.53-26.27-10.01,11.26-22.52,20.02-33.78,25.02-17.51,7.5-30.03,8.76-58.8,8.76-25.02,0-58.8-11.26-72.56-31.28-2.5,22.52-27.52,30.03-55.05,30.03-15.01,0-18.77-2.5-18.77-11.26Zm78.82-82.57c0,36.28,7.51,71.31,70.06,71.31,13.76,0,32.53-2.5,45.04-7.51,13.76-5,25.02-15.01,33.78-30.03l1.25-76.32c-18.77-20.02-33.78-30.03-67.56-30.03-28.78,0-52.55,7.51-67.56,23.77-11.26,12.51-15.01,23.77-15.01,48.79Zm221.44,81.32c0-7.5,5.01-11.26,12.51-11.26h3.75c18.77,0,28.78-15.01,35.03-35.03,2.5-7.5,8.76-41.28,11.26-52.54,6.26-30.03,26.27-51.3,52.55-63.81,12.51-6.26,33.78-11.26,53.8-6.26,13.76,3.75,32.53,8.76,50.04,26.27v-10.01c0-7.51,3.75-11.26,11.26-11.26,8.76,0,12.51,3.75,12.51,11.26v116.35c0,8.76,1.25,16.27,7.5,20.02,5.01,3.75,18.77,6.26,33.78,6.26,6.26,0,12.51,3.75,12.51,11.26s-3.75,11.26-11.26,11.26c-18.77,0-32.53-1.25-42.54-6.26v237.71c-1.25,15.01-22.52,16.27-23.77,0v-262.73c-12.51,13.76-26.27,22.52-42.54,27.52-16.27,5-26.27,5-45.04,3.75-16.27-2.5-30.03-8.76-41.29-18.76-7.5-6.26-13.76-13.76-18.77-25.02-11.26,31.27-31.28,43.79-60.05,43.79-7.51,0-11.26-3.75-11.26-12.51Zm105.09-23.77c6.26,5.01,15.01,11.26,30.03,13.76,11.26,1.25,22.52,1.25,33.78-2.5,18.76-6.26,33.78-17.52,40.04-33.78,5-13.76,12.51-47.54,0-70.06-8.76-15.01-25.02-27.52-43.79-30.03-13.76-1.25-28.78,0-41.29,5-23.77,10.01-40.04,36.28-40.04,65.06,0,22.52,7.51,40.04,21.27,52.55Zm521.71,26.27c0,8.76-3.75,11.26-20.02,11.26-47.54,0-77.57-22.52-86.33-50.04-7.5,32.53-40.04,50.04-72.56,50.04s-63.81-17.51-70.06-50.04c-11.26,27.52-38.79,48.79-86.33,48.79-15.01,0-18.77-2.5-18.77-11.26s5-11.26,12.51-11.26c66.31,3.75,80.07-38.79,80.07-87.58v-60.05c0-6.26,3.75-12.51,11.26-12.51,10.01,0,13.76,3.75,13.76,11.26v68.81c0,22.52,5,48.79,18.77,63.81,3.75,3.75,15.01,15.01,38.78,15.01,11.26,0,17.51-2.5,27.52-7.5,7.51-3.75,16.27-10.01,21.27-18.77,7.51-13.76,13.76-37.53,13.76-72.57v-47.54c0-7.51,3.75-11.26,12.51-11.26,7.5,0,11.26,3.75,11.26,11.26v60.05c0,48.79,11.26,91.33,80.07,87.58,8.76,0,12.51,3.75,12.51,12.51Zm-26.27-1.25c0-8.76,5.01-11.26,13.76-11.26,32.53,0,61.3-8.76,86.33-23.77-28.78-27.52-40.04-58.8-36.28-92.58,3.75-31.27,30.03-60.05,61.3-60.05,35.03,0,56.3,32.53,56.3,68.81,0,33.78-13.76,61.3-40.04,85.07,23.77,18.77,57.55,22.52,87.58,22.52,8.76,0,12.51,3.75,12.51,11.26v2.5c0,7.51-3.75,10.01-11.26,10.01-42.54,0-76.32-2.5-110.1-30.03-18.76,12.51-38.78,21.27-61.3,26.27-16.26,3.75-32.53,3.75-46.29,3.75-8.76,0-12.51-3.75-12.51-12.51Zm156.39-125.11c0-18.77-11.26-37.53-31.28-37.53-18.77,0-33.78,20.02-35.03,37.53-3.75,30.03,8.76,55.05,31.28,75.06,23.77-22.52,35.03-47.54,35.03-75.06Zm61.3,123.86c0-6.25,3.75-10.01,12.51-10.01,53.8,0,72.56-35.03,72.56-66.31v-166.4h-57.55c-7.51,0-11.26-3.75-11.26-11.26s3.75-11.26,11.26-11.26h57.55v-82.58c0-7.5,5-11.26,11.26-11.26,5.01,0,12.51,3.75,12.51,11.26v82.58h56.3c8.76,0,12.51,5,12.51,12.51s-3.75,11.26-12.51,11.26h-56.3v165.14c0,35.03,17.52,51.3,25.02,56.3,8.76,6.26,27.52,10.01,46.29,10.01,8.76,0,12.51,2.5,12.51,10.01s-3.75,13.76-12.51,13.76c-46.29,0-68.81-7.51-83.82-37.53-15.01,31.28-46.29,37.53-86.33,37.53-8.76,0-10.01-5-10.01-13.76Zm165.14,1.25c0-8.76,5-11.26,13.76-11.26,32.53,0,61.3-8.76,86.33-23.77-28.78-27.52-40.04-58.8-36.28-92.58,3.75-31.27,30.03-60.05,61.31-60.05,35.03,0,56.3,32.53,56.3,68.81,0,33.78-13.76,61.3-40.04,85.07,23.77,18.77,57.55,22.52,87.58,22.52,8.75,0,12.51,3.75,12.51,11.26v2.5c0,7.51-3.76,10.01-11.26,10.01-42.54,0-76.32-2.5-110.1-30.03-18.77,12.51-38.78,21.27-61.3,26.27-16.27,3.75-32.53,3.75-46.29,3.75-8.76,0-12.51-3.75-12.51-12.51Zm156.39-125.11c0-18.77-11.26-37.53-31.28-37.53-18.77,0-33.78,20.02-35.03,37.53-3.75,30.03,8.76,55.05,31.28,75.06,23.77-22.52,35.03-47.54,35.03-75.06Z"/><path class="cls-17" d="m781.2,725.25c0-7.51,3.76-11.27,11.27-11.27l137.73,1.25c8.76,0,12.52,3.76,12.52,11.27s-3.76,11.27-12.52,11.27l-137.73-1.25c-7.51,0-11.27-3.76-11.27-11.27Z"/><path class="cls-18" d="m781.2,725.25c0-7.51,3.76-11.27,11.27-11.27l137.73,1.25c8.76,0,12.52,3.76,12.52,11.27s-3.76,11.27-12.52,11.27l-137.73-1.25c-7.51,0-11.27-3.76-11.27-11.27Z"/><path class="cls-17" d="m237.41,3015.85v-2.02h3.02v2.18c0,3.74,2.6,6.05,7.94,6.05s8.44-1.97,8.44-6.22c0-3.32-1.39-5.17-4.92-6.09l-6.64-1.72c-4.33-1.13-7.18-2.98-7.18-8.15s3.78-8.91,10.92-8.91,10.59,3.44,10.59,9.07v2.94h-3.02v-2.81c0-4.62-3.07-6.51-7.56-6.51-5.12,0-7.81,2.14-7.81,6.01,0,3.61,1.76,4.7,5.55,5.71l5.75,1.55c5.12,1.39,7.43,3.74,7.43,8.65,0,6.09-4.33,9.24-11.47,9.24-9.12,0-11.05-4.7-11.05-8.99Z"/><path class="cls-17" d="m283.95,3014.8h-15.96c.17,4.79,2.48,7.48,6.93,7.48,3.82,0,5.67-1.43,5.97-4.83h2.98c-.29,4.24-3.28,7.39-9.03,7.39-7.06,0-9.83-4.66-9.83-10.88s3.23-11.22,10-11.22,8.95,3.99,8.95,10.21v1.85Zm-3.11-2.98c0-4.45-1.72-6.55-5.92-6.55s-6.55,2.65-6.89,6.97h12.81v-.42Z"/><path class="cls-17" d="m320.53,3010.68v13.61h-2.94v-13.27c0-4.33-2.14-5.71-4.75-5.71-3.82,0-6.17,2.69-6.17,5.63v13.36h-2.94v-13.27c0-4.33-1.85-5.71-4.83-5.71-3.61,0-6.13,2.69-6.13,5.63v13.36h-2.94v-21h2.6l.29,3.49c1.01-2.02,3.07-4.03,6.93-4.03,2.94,0,5.38,1.39,6.43,4.28,1.22-2.39,3.57-4.28,7.14-4.28,4.29,0,7.31,2.52,7.31,7.94Z"/><path class="cls-17" d="m327.87,2991.53h2.98v6.51h-2.98v-6.51Zm0,11.76h2.94v21h-2.94v-21Z"/><path class="cls-17" d="m336.53,3010.81h10.59v2.81h-10.59v-2.81Z"/><path class="cls-17" d="m351.31,3013.96c0-6.38,3.23-11.22,10-11.22s8.95,3.91,8.95,8.95v.42h-3.11v-.63c0-3.82-1.64-6.09-5.84-6.09-4.75,0-7.01,3.11-7.01,8.4,0,5.63,2.39,8.49,6.93,8.49,3.82,0,5.84-1.85,5.92-5.67h3.02c-.08,4.66-3.15,8.23-9.03,8.23-7.22,0-9.83-4.75-9.83-10.88Z"/><path class="cls-17" d="m374.45,3013.79c0-6.22,3.32-11.05,10.38-11.05,6.59,0,10.25,4.83,10.25,11.05s-3.7,11.05-10.29,11.05c-7.27,0-10.33-4.83-10.33-11.05Zm17.56,0c0-5.33-2.9-8.49-7.22-8.49-4.75,0-7.27,3.15-7.27,8.49s2.56,8.49,7.27,8.49c4.33,0,7.22-3.15,7.22-8.49Z"/><path class="cls-17" d="m400.95,3003.29h2.6l.29,3.49c1.01-2.14,3.28-4.03,7.35-4.03,4.75,0,7.77,2.52,7.77,7.94v13.61h-2.94v-13.27c0-4.33-2.14-5.71-5.5-5.71-3.82,0-6.64,2.69-6.64,5.63v13.36h-2.94v-21Z"/><path class="cls-17" d="m426.32,3003.29h2.6l.29,3.49c1.01-2.14,3.28-4.03,7.35-4.03,4.75,0,7.77,2.52,7.77,7.94v13.61h-2.94v-13.27c0-4.33-2.14-5.71-5.5-5.71-3.82,0-6.64,2.69-6.64,5.63v13.36h-2.94v-21Z"/><path class="cls-17" d="m468.96,3014.8h-15.96c.17,4.79,2.48,7.48,6.93,7.48,3.82,0,5.67-1.43,5.97-4.83h2.98c-.29,4.24-3.28,7.39-9.03,7.39-7.06,0-9.83-4.66-9.83-10.88s3.23-11.22,10-11.22,8.95,3.99,8.95,10.21v1.85Zm-3.11-2.98c0-4.45-1.72-6.55-5.92-6.55s-6.55,2.65-6.89,6.97h12.81v-.42Z"/><path class="cls-17" d="m473.15,3013.96c0-6.38,3.23-11.22,10-11.22s8.95,3.91,8.95,8.95v.42h-3.11v-.63c0-3.82-1.64-6.09-5.84-6.09-4.75,0-7.01,3.11-7.01,8.4,0,5.63,2.39,8.49,6.93,8.49,3.82,0,5.84-1.85,5.92-5.67h3.02c-.08,4.66-3.15,8.23-9.03,8.23-7.22,0-9.83-4.75-9.83-10.88Z"/><path class="cls-17" d="m508.94,3021.61v2.6c-.76.21-2.14.59-4.03.59-3.82,0-6.34-1.6-6.34-6.89v-12.18h-4.16v-2.44h4.16v-6.05l2.94-1.43v7.48h5.92v2.44h-5.92v11.8c0,2.81.76,4.58,3.4,4.58,1.6,0,3.23-.29,4.03-.5Z"/><path class="cls-17" d="m530.4,3014.8h-15.96c.17,4.79,2.48,7.48,6.93,7.48,3.82,0,5.67-1.43,5.97-4.83h2.98c-.29,4.24-3.28,7.39-9.03,7.39-7.06,0-9.83-4.66-9.83-10.88s3.23-11.22,10-11.22,8.95,3.99,8.95,10.21v1.85Zm-3.11-2.98c0-4.45-1.72-6.55-5.92-6.55s-6.55,2.65-6.89,6.97h12.81v-.42Z"/><path class="cls-17" d="m534.6,3013.83c0-7.1,4.28-11.09,10.04-11.09,3.7,0,6.22,1.6,7.31,3.74h.04v-14.95h2.94v32.77h-1.97l-.67-3.61h-.08c-1.18,2.31-3.95,4.16-7.77,4.16-6.3,0-9.83-3.99-9.83-11.01Zm17.64-.5c0-5.5-3.36-8.07-7.35-8.07-3.11,0-7.14,1.47-7.14,8.4s3.61,8.61,7.14,8.61c4.24,0,7.35-2.73,7.35-8.95Z"/><path class="cls-17" d="m228.29,3065.75v-13.61h2.94v13.27c0,4.33,2.14,5.71,5.42,5.71,3.74,0,6.55-2.69,6.55-5.63v-13.36h2.94v21h-2.6l-.25-3.36h-.08c-.97,2.02-3.23,3.91-7.23,3.91-4.66,0-7.69-2.52-7.69-7.94Z"/><path class="cls-17" d="m253.49,3052.14h2.39l.34,3.86h.08c1.13-2.48,4.03-4.41,7.86-4.41,6.3,0,9.66,3.99,9.66,11.01s-4.29,11.09-9.87,11.09c-3.78,0-6.38-1.6-7.43-3.7h-.08v11.55h-2.94v-29.41Zm17.18,10.63c0-7.18-3.4-8.61-6.93-8.61-4.24,0-7.56,2.73-7.56,8.44,0,6.01,3.45,8.57,7.44,8.57,3.02,0,7.06-1.47,7.06-8.4Z"/><path class="cls-17" d="m279.7,3052.14h2.39l.34,3.86h.08c1.13-2.48,4.03-4.41,7.86-4.41,6.3,0,9.66,3.99,9.66,11.01s-4.29,11.09-9.87,11.09c-3.78,0-6.38-1.6-7.43-3.7h-.08v11.55h-2.94v-29.41Zm17.18,10.63c0-7.18-3.4-8.61-6.93-8.61-4.24,0-7.56,2.73-7.56,8.44,0,6.01,3.45,8.57,7.44,8.57,3.02,0,7.06-1.47,7.06-8.4Z"/><path class="cls-17" d="m323.17,3063.65h-15.96c.17,4.79,2.48,7.48,6.93,7.48,3.82,0,5.67-1.43,5.97-4.83h2.98c-.29,4.24-3.28,7.39-9.03,7.39-7.06,0-9.83-4.66-9.83-10.88s3.23-11.22,10-11.22,8.95,3.99,8.95,10.21v1.85Zm-3.11-2.98c0-4.45-1.72-6.55-5.92-6.55s-6.55,2.65-6.89,6.97h12.81v-.42Z"/><path class="cls-17" d="m329.05,3052.14h2.6l.29,3.91c1.01-2.14,3.07-4.45,6.76-4.45,1.26,0,2.18.21,3.02.55v3.15c-1.13-.5-2.1-.76-3.4-.76-3.74,0-6.34,2.81-6.34,5.75v12.85h-2.94v-21Z"/><path class="cls-17" d="m344.04,3062.81c0-6.38,3.23-11.22,10-11.22s8.95,3.91,8.95,8.95v.42h-3.11v-.63c0-3.82-1.64-6.09-5.84-6.09-4.75,0-7.02,3.11-7.02,8.4,0,5.63,2.39,8.49,6.93,8.49,3.82,0,5.84-1.85,5.92-5.67h3.02c-.08,4.66-3.15,8.23-9.03,8.23-7.22,0-9.83-4.75-9.83-10.88Z"/><path class="cls-17" d="m367.4,3067.34c0-3.95,2.23-6.09,7.86-6.09h6.34v-1.72c0-2.98-1.26-5.42-5.46-5.42-3.95,0-5.33,1.51-5.33,4.12v.88h-2.98v-.84c0-5,4.2-6.68,8.32-6.68,5.8,0,8.4,2.86,8.4,8.44v13.11h-2.06l-.55-2.98h-.08c-1.26,1.89-3.7,3.53-7.35,3.53-4.92,0-7.1-2.31-7.1-6.34Zm14.2-1.85v-1.76h-7.01c-2.65,0-4.03.92-4.03,3.61,0,2.35,1.26,3.86,4.5,3.86,4.16,0,6.55-2.14,6.55-5.71Z"/><path class="cls-17" d="m389.99,3066.71v-1.18h2.94v1.13c0,2.86,2.14,4.5,5.96,4.5s5.8-1.01,5.8-3.78c0-2.06-1.01-2.81-3.86-3.32l-4.62-.84c-3.02-.55-5.54-2.02-5.54-5.5,0-3.15,2.35-6.13,8.4-6.13s8.4,3.02,8.4,7.22v.88h-2.98v-.76c0-3.44-2.14-4.91-5.42-4.91-3.95,0-5.33,1.34-5.33,3.36s1.01,2.86,3.91,3.4l4.03.76c4.12.76,6.09,1.93,6.09,5.59,0,4.58-4.12,6.55-8.78,6.55-7.31,0-8.99-3.28-8.99-6.97Z"/><path class="cls-17" d="m430.9,3063.65h-15.96c.17,4.79,2.48,7.48,6.93,7.48,3.82,0,5.67-1.43,5.97-4.83h2.98c-.29,4.24-3.28,7.39-9.03,7.39-7.06,0-9.83-4.66-9.83-10.88s3.23-11.22,10-11.22,8.95,3.99,8.95,10.21v1.85Zm-3.11-2.98c0-4.45-1.72-6.55-5.92-6.55s-6.55,2.65-6.89,6.97h12.81v-.42Z"/><path class="cls-17" d="m446.44,3040.38h2.94v32.77h-2.94v-32.77Z"/><path class="cls-17" d="m474,3063.65h-15.96c.17,4.79,2.48,7.48,6.93,7.48,3.82,0,5.67-1.43,5.97-4.83h2.98c-.29,4.24-3.28,7.39-9.03,7.39-7.06,0-9.83-4.66-9.83-10.88s3.23-11.22,10-11.22,8.95,3.99,8.95,10.21v1.85Zm-3.11-2.98c0-4.45-1.72-6.55-5.92-6.55s-6.55,2.65-6.89,6.97h12.81v-.42Z"/><path class="cls-17" d="m480.46,3066.75v-12.18h-4.16v-2.44h4.16v-6.05l2.94-1.43v7.48h11.85v-6.05l2.94-1.43v7.48h5.92v2.44h-5.92v11.8c0,2.81.76,4.58,3.4,4.58,1.6,0,3.24-.29,4.03-.5v2.6c-.76.21-2.14.59-4.03.59-3.82,0-6.34-1.6-6.34-6.89v-12.18h-11.85v11.8c0,2.81.76,4.58,3.4,4.58,1.6,0,3.23-.29,4.03-.5v2.6c-.76.21-2.14.59-4.03.59-3.82,0-6.34-1.6-6.34-6.89Z"/><path class="cls-17" d="m527.08,3063.65h-15.96c.17,4.79,2.48,7.48,6.93,7.48,3.82,0,5.67-1.43,5.97-4.83h2.98c-.29,4.24-3.28,7.39-9.03,7.39-7.06,0-9.83-4.66-9.83-10.88s3.23-11.22,10-11.22,8.95,3.99,8.95,10.21v1.85Zm-3.11-2.98c0-4.45-1.72-6.55-5.92-6.55s-6.55,2.65-6.89,6.97h12.81v-.42Z"/><path class="cls-17" d="m532.96,3052.14h2.6l.29,3.91c1.01-2.14,3.07-4.45,6.76-4.45,1.26,0,2.18.21,3.02.55v3.15c-1.13-.5-2.1-.76-3.4-.76-3.74,0-6.34,2.81-6.34,5.75v12.85h-2.94v-21Z"/><path class="cls-17" d="m548.16,3066.71v-1.18h2.94v1.13c0,2.86,2.14,4.5,5.96,4.5s5.8-1.01,5.8-3.78c0-2.06-1.01-2.81-3.86-3.32l-4.62-.84c-3.02-.55-5.54-2.02-5.54-5.5,0-3.15,2.35-6.13,8.4-6.13s8.4,3.02,8.4,7.22v.88h-2.98v-.76c0-3.44-2.14-4.91-5.42-4.91-3.95,0-5.33,1.34-5.33,3.36s1.01,2.86,3.91,3.4l4.03.76c4.12.76,6.09,1.93,6.09,5.59,0,4.58-4.12,6.55-8.78,6.55-7.31,0-8.99-3.28-8.99-6.97Z"/><line class="cls-7" x1="348.21" y1="2676.38" x2="348.21" y2="2677.25"/><line class="cls-5" x1="348.21" y1="2694.85" x2="348.21" y2="2957.15"/><line class="cls-7" x1="348.21" y1="2965.95" x2="348.21" y2="2966.82"/><rect class="cls-18" x="1284.92" y="2018.99" width="164.16" height="28.8"/><line class="cls-10" x1="1459.08" y1="1677.72" x2="1459.08" y2="1993.65"/><polygon class="cls-18" points="1442.72 1690.98 1445.65 1693.71 1459.07 1679.26 1472.5 1693.71 1475.43 1690.98 1459.07 1673.39 1442.72 1690.98"/><polygon class="cls-18" points="1442.72 1980.39 1445.65 1977.67 1459.07 1992.11 1472.5 1977.67 1475.43 1980.39 1459.07 1997.99 1442.72 1980.39"/><line class="cls-7" x1="1300.76" y1="1985.52" x2="1299.89" y2="1985.52"/><line class="cls-1" x1="1281.29" y1="1985.52" x2="1188.28" y2="1985.52"/><line class="cls-7" x1="1178.97" y1="1985.52" x2="1178.1" y2="1985.52"/></g><g id="palabras"><path class="cls-17" d="m333.77,1644.26c-125.94,0-181.92-106.86-181.92-213.72s62.34-214.99,190.82-214.99c64.88,0,145.03,27.99,145.03,136.12v189.55c0,43.25-58.52,103.04-153.93,103.04Zm128.49-292.6c0-87.78-62.34-110.68-119.58-110.68-110.68,0-165.38,87.78-165.38,189.55s48.34,188.28,156.47,188.28c80.15,0,128.49-49.61,128.49-77.6v-189.55Zm110.68,278.6c0,6.36-5.09,11.45-11.45,11.45h-10.18c-69.97,0-87.78-62.34-89.05-157.75,0-6.36,5.09-11.45,11.45-11.45s11.45,5.09,11.45,10.18c1.27,90.32,15.27,136.12,66.15,136.12h10.18c6.36,0,11.45,5.09,11.45,11.45Zm-27.99,0c0-7.63,3.82-11.45,12.72-11.45,33.07,0,38.17-3.82,38.17-47.07v-49.61c0-41.98,16.54-66.15,66.15-66.15,20.36,0,44.53,8.9,54.7,24.17,10.18-15.27,34.35-24.17,54.7-24.17,19.08,0,45.8,8.9,55.97,25.44,10.17-16.54,36.89-25.44,59.79-25.44,29.26,0,57.24,16.54,59.79,52.16,1.27,16.54,0,87.78,0,91.6,0,17.81,21.63,19.08,26.72,19.08h7.63c6.36,0,11.45,2.54,12.72,8.9,1.27,8.9-2.54,12.72-8.9,13.99h-10.17c-15.27,0-50.89-3.81-50.89-43.25v-85.24c0-22.9-19.08-31.8-38.17-31.8-24.17,0-45.8,12.72-45.8,31.8v117.04c0,8.9-7.63,12.72-11.45,12.72s-11.45-2.54-11.45-12.72v-117.04c0-20.35-29.26-31.8-45.8-31.8-20.36,0-44.53,13.99-44.53,34.35v115.77c0,8.9-6.36,11.45-11.45,11.45s-11.45-2.54-11.45-11.45v-115.77c0-26.72-26.71-34.35-45.8-34.35-22.9,0-36.89,5.09-38.17,41.98l-1.27,61.06c-1.27,44.52-20.35,57.24-54.7,57.24-15.27,0-19.08-2.54-19.08-11.45Zm424.9,2.54c0-10.17,2.54-13.99,14-13.99,24.17,0,38.17-1.27,53.43-10.18,8.9-5.09,31.8-22.9,31.8-63.61v-76.33c0-7.63,6.36-12.72,14-12.72,5.09,0,11.45,3.82,11.45,12.72v68.7c0,26.71,8.91,54.7,30.53,69.97,12.72,8.91,29.26,11.45,50.88,11.45,10.18,0,14,2.54,14,10.17,0,8.91-3.82,12.72-20.36,12.72-12.72,0-33.07-2.54-48.34-8.9-8.9-3.82-30.53-16.54-39.44-39.44-8.9,16.54-20.35,29.26-39.44,38.17-14,6.36-33.07,10.17-54.7,10.17-16.54,0-17.81-2.54-17.81-8.9Zm127.22-222.63c0,10.18-5.09,15.27-15.27,15.27-8.9,0-13.99-5.09-13.99-15.27,0-8.9,5.09-13.99,13.99-13.99,10.18,0,15.27,5.09,15.27,13.99Zm73.78,227.72c0-2.55,1.27-5.09,1.27-10.18s-2.55-8.9,6.36-8.9c21.63,0,29.26-2.54,36.89-6.36,7.63-3.82,15.27-14,21.63-30.53v-16.54c0-85.24,61.06-108.13,100.5-108.13,21.63,0,41.98,8.9,59.79,24.17,1.27-7.63,5.09-11.45,12.72-11.45s11.45,3.82,11.45,12.72v147.57c16.54-8.9,38.17-11.45,52.16-11.45,12.72,0,16.54,2.54,16.54,10.17,0,6.36-2.54,12.72-10.18,12.72-16.54,0-40.71,1.27-58.52,15.27v296.41c0,44.53-21.63,64.88-52.16,64.88-52.16,0-55.98-58.52-55.98-103.04,0-34.35,0-68.7,3.82-103.04,7.63-58.52,27.99-115.77,80.15-166.65v-27.99c-17.81,15.27-49.61,24.17-75.06,24.17s-45.8-7.63-69.97-31.8l-1.27-1.27c-8.9,14-15.27,19.08-22.9,24.17-10.18,6.36-26.72,10.18-50.89,8.9-5.09,0-6.36-1.27-6.36-3.81Zm151.39-20.36c34.35,1.27,75.06-17.81,75.06-40.71v-50.89c0-17.81-25.44-39.44-48.34-44.52-41.98-10.18-85.24,25.44-89.05,72.51-2.55,41.98,27.99,62.34,62.34,63.61Zm21.63,188.28c-6.36,40.71-3.82,109.41-3.82,124.67,0,30.53,5.09,63.61,29.26,63.61,27.99,0,27.99-26.72,27.99-40.71v-272.24c-27.99,31.8-47.07,82.69-53.43,124.67Zm428.72-259.52c0,21.63-59.79,11.45-64.88,8.9v3.82c0,54.7-36.89,83.96-89.05,83.96-36.89,0-67.43-11.45-83.96-41.98-8.9,30.53-19.08,40.71-48.34,40.71-13.99,0-17.81-3.81-17.81-11.45,0-8.9,5.09-11.45,13.99-11.45,11.45,0,22.9-3.82,29.26-27.99,3.82-16.54,5.09-29.26,5.09-41.98,0-59.79,43.26-89.05,87.78-89.05,14,0,26.72,2.54,36.89,8.9,11.45-19.08,26.71-15.27,41.98-3.82,19.08,15.27,25.44,41.98,25.44,66.15l11.45,2.54c12.72,2.54,15.27,2.54,39.44,2.54,8.9,0,12.72,5.09,12.72,10.18Zm-136.12-52.16c-10.17-7.63-21.63-11.45-34.35-11.45-30.53,0-62.34,25.44-62.34,67.43,0,39.44,41.98,69.97,78.87,69.97,55.97,0,66.15-43.25,66.15-71.24l-11.45-3.82c-22.9-7.63-35.62-31.8-36.89-50.88Zm24.17-6.36c0,16.54,7.63,27.99,22.9,35.62h1.27c-1.27-12.72-5.09-30.53-15.27-39.44-6.36-6.36-8.9-3.82-8.9,3.82Z"/><path class="cls-18" d="m248.65,2523.9c7.4,0,13.56,7.4,12.33,14.8-2.47,8.63-3.7,16.03-3.7,23.43,0,36.99,46.86,71.52,90.01,71.52,60.42,0,73.99-23.43,73.99-99.88,0-32.06-6.17-90.02-6.17-140.57,0-27.13,2.47-66.59,7.4-97.41,0-6.17,4.93-9.87,11.1-9.87,7.4,0,13.56,6.17,12.33,13.57-3.7,28.36-6.17,66.59-6.17,93.71,0,48.09,6.17,106.04,6.17,140.57,0,88.78-23.43,124.54-98.65,124.54-55.49,0-114.68-41.93-114.68-96.18,0-8.63,1.23-18.5,3.7-28.36,1.23-6.17,6.17-9.87,12.33-9.87Z"/><path class="cls-18" d="m559.38,2282.21c0,4.93-3.7,9.87-8.63,12.33-23.43,7.4-48.09,11.1-70.29,11.1-56.72,0-93.71-16.03-120.84-27.13-17.26-7.4-28.36-11.1-39.46-11.1-12.33,0-25.89,7.4-44.39,32.06-1.23,3.7-4.93,4.93-9.87,4.93-6.17,0-12.33-4.93-12.33-12.33,0-2.47,1.23-4.93,2.47-7.4,23.43-30.83,43.16-41.92,64.12-41.92,16.03,0,32.06,6.16,49.32,13.56,27.13,11.1,59.19,24.66,110.98,24.66,20.96,0,40.69-3.7,61.65-9.87,6.17-2.47,17.26,0,17.26,11.1Z"/><path class="cls-18" d="m490.33,2474.57c0,7.4-4.93,12.33-12.33,12.33h-94.95c-7.4,0-12.33-4.93-12.33-12.33s4.93-12.33,12.33-12.33h94.95c7.4,0,12.33,4.93,12.33,12.33Z"/><path class="cls-17" d="m489.1,2644.74c0-8.63,3.7-12.33,12.33-12.33,19.73,0,30.83-3.7,34.53-9.87,4.93-8.63,7.4-28.36,7.4-60.42,0-17.26,1.23-40.69,18.49-61.65,20.97-25.9,59.19-32.06,71.52-32.06,32.06,0,55.49,1.23,80.15,20.96v-6.17c0-8.63,3.7-12.33,12.33-12.33s12.33,3.7,12.33,11.1v115.91c0,11.1,6.17,19.73,23.43,27.13,11.1,4.93,23.43,7.4,35.76,7.4,8.63,0,13.56,3.7,13.56,13.57,0,7.4-3.7,9.86-17.26,9.86-8.63,0-24.66-1.23-36.99-6.17-12.33-4.93-23.43-12.33-32.06-25.89-9.87,11.1-22.2,19.73-33.29,24.66-17.26,7.4-29.59,8.63-57.96,8.63-24.66,0-57.96-11.1-71.52-30.83-2.47,22.2-27.13,29.59-54.26,29.59-14.8,0-18.5-2.47-18.5-11.1Zm77.69-81.38c0,35.76,7.4,70.29,69.05,70.29,16.03,0,32.06-2.47,44.39-7.4,13.57-4.93,24.66-14.8,33.29-29.59l1.23-75.22c-18.5-19.73-33.29-29.6-66.59-29.6-28.36,0-51.79,7.4-66.59,23.43-11.1,12.33-14.8,23.43-14.8,48.09Zm230.59,69.05c39.46,0,51.79-29.59,66.59-65.35-19.73-40.69-39.46-155.37-39.46-207.16v-14.8c0-40.69,9.87-81.38,30.83-99.88,7.4-6.17,14.8-9.87,24.66-9.87,8.63,0,17.26,2.47,24.66,8.63,13.56,11.1,22.19,28.36,28.36,61.65,4.93,30.83,2.47,71.52-2.47,101.11-6.17,36.99-13.57,67.82-22.2,96.18l-11.1,34.52c-3.7,11.1-6.17,20.97-9.87,29.6,2.47,8.63,12.33,27.13,18.5,35.76,13.57,22.2,30.83,32.06,49.32,30.83,9.87-1.23,12.33,2.47,12.33,9.86,0,8.63-3.7,12.33-11.1,12.33-32.06,0-48.09-13.56-61.65-28.36-11.1-12.33-17.27-25.9-18.5-30.83-4.93,12.33-11.1,24.66-19.73,34.53-12.33,14.8-30.82,24.66-57.96,24.66-9.86,0-14.8-4.93-14.8-13.56,1.23-6.17,4.93-9.87,13.57-9.87Zm110.98-229.35c4.93-34.53,6.17-66.59,2.47-94.95-3.7-25.9-12.33-39.46-19.73-45.62-3.7-2.47-6.17-3.7-9.87-3.7s-8.63,1.23-11.1,3.7c-23.43,19.73-23.43,75.22-23.43,97.41,0,62.89,22.19,149.2,28.36,171.4,12.33-33.29,29.6-102.34,33.29-128.24Zm199.76,241.68c0-8.63,3.7-12.33,12.33-12.33,19.73,0,30.83-3.7,34.53-9.87,4.93-8.63,7.4-28.36,7.4-60.42,0-17.26,1.23-40.69,18.5-61.65,20.96-25.9,59.19-32.06,71.52-32.06,32.06,0,55.49,1.23,80.15,20.96v-6.17c0-8.63,3.7-12.33,12.33-12.33s12.33,3.7,12.33,11.1v115.91c0,11.1,6.17,19.73,23.43,27.13,11.1,4.93,23.43,7.4,35.76,7.4,8.63,0,13.56,3.7,13.56,13.57,0,7.4-3.7,9.86-17.26,9.86-8.63,0-24.66-1.23-36.99-6.17-12.33-4.93-23.43-12.33-32.06-25.89-9.87,11.1-22.2,19.73-33.29,24.66-17.26,7.4-29.59,8.63-57.96,8.63-24.66,0-57.96-11.1-71.52-30.83-2.47,22.2-27.13,29.59-54.26,29.59-14.8,0-18.5-2.47-18.5-11.1Zm77.69-81.38c0,35.76,7.4,70.29,69.05,70.29,16.03,0,32.06-2.47,44.39-7.4,13.56-4.93,24.66-14.8,33.29-29.59l1.23-75.22c-18.5-19.73-33.29-29.6-66.59-29.6-28.36,0-51.79,7.4-66.59,23.43-11.1,12.33-14.8,23.43-14.8,48.09Z"/><path class="cls-17" d="m1408.97,2642.27c0-6.17,2.47-9.87,8.63-9.87h9.86c19.73,0,28.36-8.63,36.99-25.89,11.1-20.96,18.5-50.56,22.2-88.78-24.66,0-36.99-18.5-36.99-34.53,0-14.8,8.63-27.13,27.13-27.13,6.17,0,12.33,1.23,17.26,4.93,8.63,4.93,16.03,19.73,16.03,29.59h7.4c9.86,0,22.19-1.23,38.22-1.23,20.96,0,32.06,1.23,40.69,2.47,20.96,3.7,24.66,20.97,24.66,39.46,0,17.27-2.47,35.76-2.47,51.79,0,29.6,7.4,51.79,53.02,49.32h3.7c6.17,0,8.63,3.7,8.63,9.87,0,8.63-3.7,13.56-11.1,13.56-30.82,0-49.32-7.4-62.89-22.19-11.1-12.33-14.8-27.13-14.8-44.39,0-23.43,4.93-46.86,1.23-64.12-2.47-13.56-20.96-11.1-43.16-11.1-13.57,0-29.59,1.23-41.92,1.23-3.7,45.62-11.1,77.68-24.66,103.58-7.4,14.8-27.13,36.99-65.35,36.99-8.63,0-12.33-4.93-12.33-13.56Z"/><path class="cls-17" d="m1475.56,2481.97c-1.23,1.23-2.47,3.7-2.47,4.93,0,2.47,4.93,4.93,12.33,4.93v-2.47c0-9.86-6.17-11.1-9.87-7.4Z"/><path class="cls-17" d="m944.11,2643.5c0-6.16,3.7-9.86,12.33-9.86,18.5,0,33.3-2.47,41.93-8.63,8.63-6.17,18.5-18.5,29.59-36.99v-183.73h-56.72c-7.4,0-11.1-3.7-11.1-11.1s3.7-11.1,11.1-11.1h56.72v-81.39c0-14.8,19.73-16.03,23.43,0v81.39h55.49c8.63,0,12.33,4.93,12.33,12.33s-3.7,10.1-12.33,10.1h-55.49v184.73c9.87,20.96,17.27,29.6,24.66,34.53,8.63,6.17,27.13,8.63,45.62,8.63,8.63,0,12.33,3.7,12.33,11.1s-3.7,12.33-12.33,12.33c-25.89,0-45.62-4.93-57.96-13.56-8.63-6.17-16.03-14.8-24.66-28.36-13.56,18.5-18.5,23.43-27.13,29.59-13.56,8.63-29.59,12.33-57.96,12.33-8.63,0-9.86-3.7-9.86-12.33Z"/><path class="cls-17" d="m416.06,3568.1c0-6.21,3.72-11.17,9.93-12.41,6.21-1.24,12.41-1.24,17.38-1.24,37.24,0,54.62,24.83,49.65,57.1-7.45,54.62-74.48,75.71-122.89,75.71-42.2,0-91.85-14.89-91.85-78.2,0-47.17,28.55-109.23,53.38-165.09,43.45-98.06,95.58-213.5,151.43-213.5,34.76,0,74.48,85.65-60.82,85.65-62.06,0-139.02-31.03-184.95-31.03-18.62,0-29.79,8.69-29.79,29.79v6.21c0,7.45-4.96,12.41-12.41,12.41-6.21,0-12.41-4.96-12.41-12.41v-6.21c0-37.24,23.58-54.62,54.62-54.62,50.89,0,127.85,31.03,184.95,31.03,88.13,0,70.75-36,60.82-36-36,0-85.65,101.78-129.09,198.6-24.83,55.85-50.89,112.95-50.89,155.16s29.79,53.38,67.03,53.38c40.96,0,93.1-18.62,98.06-53.38,2.48-19.86-4.96-29.79-24.83-29.79-3.72,0-8.69,0-13.65,1.24-6.21,1.24-13.66-4.96-13.66-12.41Zm-4.96-135.3c0,6.21-6.21,12.41-12.41,12.41l-95.58-6.21c-7.45,0-12.41-4.96-12.41-12.41,0-6.21,6.21-12.41,12.41-12.41l95.58,6.21c7.45,0,12.41,4.96,12.41,12.41Zm81.92,237.08c0,7.45-4.96,12.41-12.41,12.41h-68.27c-7.45,0-12.41-4.96-12.41-12.41s4.97-12.41,12.41-12.41h68.27c7.45,0,12.41,4.97,12.41,12.41Zm-27.31,0c0-8.69,3.72-12.41,12.41-12.41,19.86,0,31.03-3.72,34.76-9.93,4.96-8.69,7.45-28.55,7.45-60.82,0-17.38,1.24-40.96,18.62-62.06,21.1-26.07,59.58-32.27,71.99-32.27,32.27,0,55.86,1.24,80.68,21.1v-6.21c0-8.69,3.72-12.41,12.41-12.41s12.41,3.72,12.41,11.17v116.68c0,11.17,6.21,19.86,23.58,27.31,11.17,4.96,23.58,7.44,36,7.44,8.69,0,13.66,3.73,13.66,13.66,0,7.45-3.72,11.17-17.38,11.17-8.69,0-24.83-2.48-37.24-7.45-12.41-4.96-23.59-12.41-32.27-26.06-9.93,11.17-22.34,19.86-33.51,24.83-17.38,7.44-29.79,8.69-58.34,8.69-24.82,0-58.34-11.17-71.99-31.03-2.48,22.35-27.31,31.03-54.62,31.03-14.89,0-18.62-3.72-18.62-12.41Zm78.2-81.92c0,36,7.45,70.75,69.51,70.75,11.17,0,32.27-2.48,44.68-7.45,13.66-4.96,24.83-14.89,33.51-29.79l1.24-75.71c-18.62-19.86-33.51-29.8-67.03-29.8-28.55,0-52.13,7.45-67.03,23.59-11.17,12.41-14.89,23.58-14.89,48.41Zm619.4,80.68c0,6.21-4.97,12.41-12.41,12.41-45.93-3.72-64.55-27.3-81.92-64.54-31.03-65.79-53.38-170.05-53.38-251.98,0-62.06,16.14-112.95,54.62-112.95,44.68,0,60.82,59.58,60.82,129.09,0,60.82-17.38,126.61-50.89,199.84-14.89,32.27-98.06,11.17-125.37,2.49,4.96,0,14.89-4.97,13.65-8.69,1.24,7.45,2.49,17.38,2.49,28.55,0,32.27-13.66,79.44-57.1,79.44-33.51,0-62.06-26.06-80.68-65.79-22.34-45.92-36-116.68-36-198.6s13.66-165.09,64.55-165.09c47.17,0,58.34,71.99,58.34,135.29,0,74.48-17.38,155.16-55.86,225.91-21.1,37.24-37.24,68.27-89.37,68.27h-1.24c-7.45,0-12.41-4.96-12.41-12.41s4.97-12.41,12.41-12.41h1.24c37.24,0,45.93-18.62,67.03-55.86,38.48-68.26,53.37-141.5,53.37-213.5,0-60.82-11.17-110.47-33.51-110.47-26.07,0-39.72,64.55-39.72,140.27,0,79.44,13.66,145.23,33.51,188.67,16.14,32.27,37.24,50.89,58.34,50.89,23.59,0,32.27-27.3,32.27-54.62,0-8.69-1.24-16.13-2.48-23.58-3.72-13.66,8.69-23.58,19.86-18.62,22.34,6.21,89.37,18.62,94.34,9.93,33.51-70.76,48.41-131.58,48.41-189.92,0-63.31-13.65-104.27-36-104.27-16.14,0-29.79,34.75-29.79,88.13,0,79.44,22.34,178.74,50.89,242.05,14.89,31.03,27.31,47.17,59.58,49.65,7.45,0,12.41,4.96,12.41,12.41Zm-26.07,1.24c0-8.69,3.72-13.65,12.41-13.65,19.86,0,31.03-2.49,34.76-8.69,4.96-8.69,7.45-28.55,7.45-60.82,0-17.38,1.24-40.96,18.62-62.06,21.1-26.07,59.58-32.27,72-32.27,32.27,0,55.86,1.24,80.68,21.1v-6.21c0-8.69,3.72-12.41,12.41-12.41s12.41,3.72,12.41,11.17v116.68c0,11.17,6.21,19.86,23.58,27.31,11.17,4.96,23.59,7.44,36,7.44,8.69,0,13.65,3.73,13.65,13.66,0,7.45-3.72,9.93-17.38,9.93-8.69,0-24.83-1.24-37.24-6.21-12.41-4.96-23.58-12.41-32.27-26.06-9.93,11.17-22.34,19.86-33.51,24.83-17.38,7.44-29.79,8.69-58.34,8.69-24.83,0-58.34-11.17-72-31.03-2.48,22.35-27.31,29.79-54.62,29.79-14.89,0-18.62-2.48-18.62-11.17Zm78.2-81.92c0,36,7.45,70.75,69.51,70.75,11.17,0,32.27-2.48,44.68-7.45,13.66-4.96,24.83-14.89,33.51-29.79l1.24-75.71c-18.62-19.86-33.51-29.8-67.03-29.8-28.55,0-52.13,7.45-67.03,23.59-11.17,12.41-14.89,23.58-14.89,48.41Zm219.7,81.92c0-7.44,4.96-12.41,13.65-12.41,79.44,0,94.34-69.51,98.06-119.16-2.48-1.24-11.17-6.21-16.14-12.41-2.48-2.49-3.72-7.45-3.72-11.17,0-8.69,4.96-16.14,22.34-16.14,4.97,0,9.93,1.24,13.66,3.73,4.96,3.72,9.93,11.17,9.93,19.86v4.97c18.62,8.69,24.82,11.17,34.75,13.65,26.07,7.45,43.45,13.66,57.1,21.1,22.34,12.41,36,29.79,36,59.58,0,9.93-6.21,29.79-11.17,37.24h32.27c8.69,0,12.41,3.73,12.41,11.17s-3.72,11.17-12.41,11.17c-24.83,0-43.45,2.49-69.51,0h-12.41c-26.07,0-50.89-6.21-72-23.58-6.21-4.96-6.21-9.93,1.24-16.13,6.21-6.21,8.69-4.96,17.38,0,22.34,13.66,64.55,23.58,75.72,12.41,7.45-7.45,12.41-19.86,12.41-32.27,0-13.66-4.96-27.3-16.13-36-18.62-14.89-65.79-23.58-86.89-33.51-4.96,54.62-28.55,129.09-122.89,129.09-8.69,0-13.65-3.72-13.65-11.17Z"/><path class="cls-18" d="m462.26,1483.97v57.25c0,27.99-48.34,77.6-128.49,77.6-108.13,0-156.47-91.6-156.47-188.28,0-101.77,54.7-189.55,165.38-189.55,57.25,0,119.58,22.9,119.58,110.68v132.3c0-6.36,5.09-11.45,11.45-11.45s11.45,5.09,11.45,10.18c.26,18.31,1.04,34.79,2.54,49.42v-180.46c0-108.13-80.14-136.12-145.03-136.12-128.49,0-190.82,103.04-190.82,214.99s55.98,213.72,181.92,213.72c68.22,0,117.57-30.57,140.16-63.8-8.02-25.67-11.17-58.45-11.68-96.49Z"/><path class="cls-18" d="m572.94,1630.26c0,6.36-5.09,11.45-11.45,11.45h-10.18c-69.97,0-87.78-62.34-89.05-157.75,0-6.36,5.09-11.45,11.45-11.45s11.45,5.09,11.45,10.18c1.27,90.32,15.27,136.12,66.15,136.12h10.18c6.36,0,11.45,5.09,11.45,11.45Z"/><g class="cls-16"><path class="cls-19" d="m1150.89,3656.23c-32.27-2.48-44.69-18.62-59.58-49.65-3.75-8.31-7.39-17.26-10.89-26.69,33.33-72.98,50.61-138.57,50.61-199.22,0-69.51-16.14-129.09-60.82-129.09-38.48,0-54.62,50.89-54.62,112.95,0,65.64,14.35,145.6,36.01,208.65-18.11,2.47-69.2-7.26-88.15-12.52-11.17-4.96-23.58,4.96-19.86,18.62,1.24,7.45,2.48,14.9,2.48,23.58,0,27.31-8.69,54.62-32.27,54.62-18.43,0-36.86-14.21-51.99-39.31.77-1.37,1.55-2.75,2.34-4.13,38.48-70.75,55.86-151.43,55.86-225.91,0-63.3-11.17-135.29-58.34-135.29-50.89,0-64.55,84.41-64.55,165.09s13.66,152.68,36,198.6c.04.08.07.15.11.22-15.67,27.15-26.65,40.74-58.45,40.74h-1.24c-7.45,0-12.41,4.97-12.41,12.41s4.97,12.41,12.41,12.41h1.24c38.33,0,57.19-16.78,72.88-40.46,17.63,25.1,40.42,40.46,66.14,40.46,43.45,0,57.1-47.17,57.1-79.44,0-5.48-.3-10.66-.75-15.4,25.33,6.73,64.87,14.47,89.64,7.86,2.96,7.42,6.02,14.51,9.17,21.2,17.38,37.24,36,60.82,81.92,64.54,7.45,0,12.41-6.21,12.41-12.41,0-7.44-4.97-12.41-12.41-12.41Zm-328.94-238.32c0-75.72,13.66-140.27,39.72-140.27,22.34,0,33.51,49.65,33.51,110.47,0,67.74-13.19,136.57-46.79,201.33-15.96-42.8-26.44-101.92-26.44-171.53Zm146.47,156.4c.07.2.1.41.1.61-.03-.2-.07-.41-.1-.61Zm101.79-297.9c22.34,0,36,40.96,36,104.27,0,51.38-11.56,104.68-37.21,165-17.06-56.84-28.58-124.11-28.58-181.14,0-53.37,13.65-88.13,29.79-88.13Z"/></g><path class="cls-19" d="m968.42,3574.31c.07.2.1.41.1.61-.03-.2-.07-.41-.1-.61Z"/><g class="cls-20"><path class="cls-19" d="m1150.89,3656.23c-32.27-2.48-44.69-18.62-59.58-49.65-3.75-8.31-7.39-17.26-10.89-26.69,33.33-72.98,50.61-138.57,50.61-199.22,0-69.51-16.14-129.09-60.82-129.09-38.48,0-54.62,50.89-54.62,112.95,0,65.64,14.35,145.6,36.01,208.65-18.11,2.47-69.2-7.26-88.15-12.52-11.17-4.96-23.58,4.96-19.86,18.62,1.24,7.45,2.48,14.9,2.48,23.58,0,27.31-8.69,54.62-32.27,54.62-18.43,0-36.86-14.21-51.99-39.31.77-1.37,1.55-2.75,2.34-4.13,38.48-70.75,55.86-151.43,55.86-225.91,0-63.3-11.17-135.29-58.34-135.29-50.89,0-64.55,84.41-64.55,165.09s13.66,152.68,36,198.6c.04.08.07.15.11.22-15.67,27.15-26.65,40.74-58.45,40.74h-1.24c-7.45,0-12.41,4.97-12.41,12.41s4.97,12.41,12.41,12.41h1.24c38.33,0,57.19-16.78,72.88-40.46,17.63,25.1,40.42,40.46,66.14,40.46,43.45,0,57.1-47.17,57.1-79.44,0-5.48-.3-10.66-.75-15.4,25.33,6.73,64.87,14.47,89.64,7.86,2.96,7.42,6.02,14.51,9.17,21.2,17.38,37.24,36,60.82,81.92,64.54,7.45,0,12.41-6.21,12.41-12.41,0-7.44-4.97-12.41-12.41-12.41Zm-328.94-238.32c0-75.72,13.66-140.27,39.72-140.27,22.34,0,33.51,49.65,33.51,110.47,0,67.74-13.19,136.57-46.79,201.33-15.96-42.8-26.44-101.92-26.44-171.53Z"/></g><g class="cls-22"><path class="cls-19" d="m544.95,1630.26c0-7.63,3.82-11.45,12.72-11.45,33.07,0,38.17-3.82,38.17-47.07v-49.61c0-41.98,16.54-66.15,66.15-66.15,20.36,0,44.53,8.9,54.7,24.17,10.18-15.27,34.35-24.17,54.7-24.17,19.08,0,45.8,8.9,55.97,25.44,10.17-16.54,36.89-25.44,59.79-25.44,29.26,0,57.24,16.54,59.79,52.16,1.27,16.54,0,87.78,0,91.6,0,17.81,21.63,19.08,26.72,19.08h7.63c6.36,0,11.45,2.54,12.72,8.9,1.27,8.9-2.54,12.72-8.9,13.99h-10.17c-15.27,0-50.89-3.81-50.89-43.25v-85.24c0-22.9-19.08-31.8-38.17-31.8-24.17,0-45.8,12.72-45.8,31.8v117.04c0,8.9-7.63,12.72-11.45,12.72s-11.45-2.54-11.45-12.72v-117.04c0-20.35-29.26-31.8-45.8-31.8-20.36,0-44.53,13.99-44.53,34.35v115.77c0,8.9-6.36,11.45-11.45,11.45s-11.45-2.54-11.45-11.45v-115.77c0-26.72-26.71-34.35-45.8-34.35-22.9,0-36.89,5.09-38.17,41.98l-1.27,61.06c-1.27,44.52-20.35,57.24-54.7,57.24-15.27,0-19.08-2.54-19.08-11.45Z"/></g><g class="cls-21"><path class="cls-19" d="m1730.6,1557.75c-6.36-1.27-8.9-3.82-8.9-10.18,0-11.45,3.82-11.45,12.72-11.45,2.21,0,4.29-.04,6.26-.12-8.14-.21-12.12-.8-20.26-2.42l-11.45-2.54c0-24.17-6.36-50.89-25.44-66.15-15.27-11.45-30.53-15.27-41.98,3.82-10.18-6.36-22.9-8.9-36.9-8.9-44.52,0-87.78,29.26-87.78,89.05,0,12.72-1.27,25.44-5.09,41.98-6.36,24.17-17.81,27.99-29.26,27.99-8.9,0-13.99,2.54-13.99,11.45,0,7.63,3.82,11.45,17.81,11.45,29.26,0,39.44-10.17,48.34-40.71,16.54,30.53,47.07,41.98,83.96,41.98,52.16,0,89.05-29.26,89.05-83.96v-3.82c2.94,1.47,24.15,5.49,41.53,4.45-6.31.05-12.64-.66-18.63-1.9Zm-111.95,62.34c-36.89,0-78.87-30.53-78.87-69.97,0-41.98,31.8-67.43,62.34-67.43,12.72,0,24.17,3.82,34.35,11.45,1.27,19.08,14,43.25,36.89,50.88l11.45,3.82c0,27.99-10.18,71.24-66.15,71.24Zm64.88-96.68c-15.27-7.63-22.9-19.08-22.9-35.62,0-7.63,2.54-10.18,8.9-3.82,10.18,8.9,13.99,26.71,15.27,39.44h-1.27Z"/></g><path class="cls-18" d="m1051.38,2404.52h55.49c8.63,0,12.33-2.7,12.33-10.1s-3.7-12.33-12.33-12.33h-135.64c-7.4,0-11.1,3.7-11.1,11.1s3.7,11.1,11.1,11.1h56.72l23.43.23Z"/></g></svg>