<?xml version="1.0" encoding="UTF-8"?> <svg xmlns="http://www.w3.org/2000/svg" id="Layer_1" viewBox="0 0 450 335"><defs><style>.cls-1{fill:#fff;}.cls-2{fill:#ececec;}.cls-3{fill:#bca5cf;}.cls-4{fill:#111035;}</style></defs><rect class="cls-1" width="450" height="335"></rect><rect class="cls-2" y="199.03" width="450" height="81.62"></rect><rect class="cls-2" y="56.03" width="450" height="79.61"></rect><rect class="cls-3" x="111.26" y="56.03" width="18.64" height="224.62"></rect><path class="cls-4" d="m7.59,174.71c0-6.01,2.37-12.2,5.64-14.93,2.73-2.37,6.19,1.64,3.46,4-1.64,1.46-3.64,6.01-3.64,10.92,0,11.47,12.01,19.48,28.03,19.48,18.93,0,30.94-9.65,30.94-33.13,0-43.5-3.82-46.96-3.82-66.07,0-6.37.73-12.74,2.18-19.11-4.37,3.64-9.47,6.37-16.2,8.19-13.83,3.82-35.49,9.28-27.67,29.85,1.27,3.46-3.82,5.46-5.1,2-6.92-18.02,5.46-29.12,20.75-34.22,11.65-3.82,20.39-4.19,29.49-14.56,2.73-3.09,4.37-6.19,6.37-9.65,1.82-3.28,6.19-1.27,4.91,2.18-.36,1.27-2.73,4.73-5.1,10.56-2.18,5.82-4.19,14.02-4.19,24.75,0,19.11,3.82,22.57,3.82,66.07,0,2,0,3.82-.18,5.46.18,18.93,10.56,27.67,21.48,27.67,3.64,0,3.64,5.46,0,5.46-10.92,0-20.57-6.73-24.75-18.93-5.64,12.92-17.47,18.93-32.95,18.93-16.75,0-33.49-8.74-33.49-24.94Z"></path><path class="cls-4" d="m98.78,194.19c8.19,0,16.02-5.46,20.39-15.29,2.37-5.28,5.28-11.47,8.19-18.2v-76.09c0-10.74,0-28.58,15.29-28.58,10.92,0,15.65,9.28,15.65,20.57,0,17.11-7.83,41.68-16.75,64.25,16.2-12.56,36.04-5.1,36.04,10.19,0,8.19-5.46,14.93-12.56,19.66,9.1,9.47,12.2,23.48,26.39,23.48,3.64,0,3.64,5.46,0,5.46-18.57,0-21.3-16.93-31.31-26.21-5.46,2.55-11.29,3.82-16.38,3.82s-10.19-2.37-10.19-7.64c0-6.19,5.82-7.64,10.19-7.64,7.46,0,12.92,1.82,17.11,4.91,6.19-3.64,11.29-9.28,11.29-16.02,0-14.38-26.94-18.02-39.32,10.92v35.13c0,3.64-5.46,3.64-5.46,0v-22.75l-3.09,7.1c-5.1,11.1-14.74,18.38-25.48,18.38-3.64,0-3.64-5.46,0-5.46Zm54.06-117.59c0-10.19-4-15.11-10.19-15.11-10.56,0-9.83,15.84-9.83,23.12v63.16c10.01-24.39,20.02-52.6,20.02-71.17Zm1.82,93.01c-2.91-1.46-6.55-2.18-10.92-2.18s-4.73,1.27-4.73,2.18c0,.36.55,2.18,4.73,2.18,3.28,0,7.1-.73,10.92-2.18Z"></path><path class="cls-4" d="m191.42,194.19c33.67,0,4.73-59.52,35.68-59.52,9.1,0,16.56,8.37,16.56,22.75v14.02c0,14.2,8.74,22.75,18.2,22.75s18.02-8.56,18.02-22.75v-34.04c0-3.64,5.46-3.64,5.46,0v34.04c0,12.74,4.91,22.75,19.84,22.75s21.84-17.66,21.84-32.04c0-1.64-.36-4-1.09-6.55-7.64-.55-18.38-2.55-18.38-10.56,0-5.28,4.37-8.19,8.74-8.19,6.37,0,11.1,6.37,13.83,13.47h.91c15.47.18,30.4-5.64,31.13-13.29v10.01c-7.64,6.19-21.11,8.56-30.4,8.74.36,2.37.73,4.55.73,6.37,0,14.56-7.83,37.5-27.3,37.5-12.56,0-19.48-6.01-22.75-14.02-4,8.56-11.83,14.02-20.57,14.02-13.29,0-23.66-11.83-23.66-28.21v-14.2c0-12.56-6.19-17.11-11.1-17.11-12.38,0-11.1,19.11-11.29,27.49-.18,13.65-4.91,32.04-24.39,32.04-3.64,0-3.64-5.46,0-5.46Zm124.87-51.88c-2,0-3.28,1.09-3.28,2.73,0,3.09,5.82,4.37,10.92,4.91-1.82-4.19-4.37-7.64-7.64-7.64Z"></path><path class="cls-4" d="m432.23,199.65c-7.1,0-13.29.91-18.75,2.55v44.96c0,15.29-4,33.49-19.29,33.49s-19.29-18.93-19.29-33.49c0-19.11,10.01-40.23,33.13-48.96v-10.56c-4.73,7.46-12.01,12.01-20.2,12.01-13.83,0-25.67-13.47-25.67-32.04v-30.22c0-3.64,5.46-3.64,5.46,0v30.22c0,16.56,10.19,26.58,20.2,26.58s20.2-10.01,20.2-26.58v-30.22c0-3.64,5.46-3.64,5.46,0v59.16c5.64-1.46,11.83-2.37,18.75-2.37,3.64,0,3.64,5.46,0,5.46Zm-24.21,4.37c-19.84,8.19-27.67,26.76-27.67,43.14s4.55,28.03,13.83,28.03,13.83-11.29,13.83-28.03v-43.14Z"></path></svg> 