<?xml version="1.0" encoding="UTF-8"?> <svg xmlns="http://www.w3.org/2000/svg" id="Capa_2" viewBox="0 0 450 335"><defs><style>.cls-1{fill:#fff;}.cls-2{fill:#ececec;}.cls-3{fill:#bca5cf;}.cls-4{fill:#231f20;}</style></defs><rect class="cls-1" width="450" height="335"></rect><rect class="cls-2" y="199.03" width="450" height="75.89"></rect><rect class="cls-2" y="59.8" width="450" height="75.85"></rect><rect class="cls-3" x="226.05" y="59.8" width="18.64" height="215.13"></rect><path class="cls-4" d="m136.68,60.09c1.95,0,3.04,1.1,3.04,3.04v133.23c0,1.95-1.1,3.04-2.92,3.04h-.61c-1.71,0-2.8-.61-3.65-2.07L55.08,73.24v122.75c0,1.95-1.1,3.04-3.04,3.04h-.49c-1.95,0-3.04-1.1-3.04-3.04V63.13c0-1.95,1.1-3.04,3.04-3.04h.61c1.71,0,2.8.61,3.65,2.07l77.33,123.97V63.13c0-1.95,1.1-3.04,3.04-3.04h.49Z"></path><path class="cls-4" d="m192.94,135.35c3.9,0,7.31.85,10.11,2.31l1.83.37c5.6,1.22,13.64,2.31,20.82,2.31,4.87,0,9.26-.49,11.81-1.58,1.46-.73,2.56-1.22,4.02-.49l.12.12c1.95.85,2.56,2.68.97,4.02-3.65,2.8-9.86,3.78-16.93,3.78-4.75,0-9.99-.49-14.74-1.22,3.53,5.48,5.11,12.67,5.11,19.97,0,17.9-8.52,34.95-25.45,34.95s-23.14-14.49-23.14-29.59c0-17.9,8.52-34.95,25.45-34.95Zm-2.31,58.7c12.79,0,19.36-14.13,19.36-29.11,0-12.18-4.99-23.75-17.05-23.75-12.79,0-19.36,14.13-19.36,29.11,0,12.18,4.99,23.75,17.05,23.75Z"></path><path class="cls-4" d="m312.16,170.66c-10.11,21.8-22.16,28.74-47.01,29.23-.49,0-.85-.12-1.1-.12-.73,0-1.34.12-2.07.12-6.09,0-12.18-1.83-17.17-4.02v.12c0,1.95-1.1,3.04-3.04,3.04h-.49c-1.71-.12-2.56-.97-2.56-2.56V63.13c0-1.95,1.1-3.04,3.04-3.04s3.04,1.1,3.04,3.04v106.56l2.07-5.85c9.86-22.16,16.32-28.5,25.33-28.5,10.59,0,14.13,13.64,14.13,27.28,0,12.91-3.17,24.36-9.5,31.05,14.13-2.68,22.53-10.23,29.71-25.45.85-1.83,2.19-2.44,4.02-1.58,1.83.73,2.44,2.19,1.58,4.02Zm-67.22,19.36c.61,0,1.34.12,2.07.37,4.38,1.95,9.74,3.65,14.98,3.65,12.42,0,18.27-14.13,18.27-31.42,0-10.72-2.07-21.43-8.04-21.43s-10.84,4.87-19.73,25.09l-3.65,8.28c-2.68,6.21-3.53,11.69-3.9,15.47Z"></path><path class="cls-4" d="m331.52,194.05c13.27,0,25.94-9.26,34.46-25.94.97-1.71,2.31-2.31,4.02-1.46,1.95.73,2.44,2.19,1.58,4.02-9.62,18.88-24.23,29.23-40.07,29.23-18.39,0-24.72-11.33-24.72-30.57,0-17.41,9.25-33.98,25.7-33.98,11.2,0,17.54,6.7,17.54,14.61,0,14.49-11.08,20.34-30.08,20.34h-7.06c.12,14.98,5.12,23.75,18.63,23.75Zm-18.39-29.59h6.82c15.1,0,23.99-4.14,23.99-14.49,0-4.75-4.14-8.77-11.45-8.77-11.2,0-18.02,10.72-19.36,23.26Z"></path><path class="cls-4" d="m411.28,136.2c1.7.12,2.68.97,2.68,2.44v89.87c0,38.73-14.74,47.49-30.08,47.49-1.95,0-3.65-.12-5.11-.37-1.95-.37-2.68-1.83-2.07-3.65.61-1.83,1.95-2.44,3.78-2.07,1.1.12,2.19.24,3.41.24,12.18,0,23.99-7.79,23.99-41.65v-62.72l-2.07,5.6c-9.86,22.16-16.32,28.5-25.33,28.5-10.6,0-14.13-13.64-14.13-27.28,0-20.46,7.79-37.26,24.36-37.26,5.97,0,12.06,1.83,17.17,4.14v-.24c0-1.95,1.1-3.04,3.04-3.04h.37Zm-3.65,9.01c-.61.12-1.22,0-1.95-.37-4.38-1.95-9.74-3.65-14.98-3.65-12.42,0-18.27,14.13-18.27,31.42,0,10.72,2.07,21.43,8.04,21.43s10.84-4.87,19.73-25.09l3.65-8.28c2.56-6.09,3.53-11.57,3.77-15.47Z"></path></svg> 