<?xml version="1.0" encoding="UTF-8"?> <svg xmlns="http://www.w3.org/2000/svg" id="Capa_2" viewBox="0 0 450 335"><defs><style>.cls-1{fill:#fff;}.cls-2{fill:#ececec;}.cls-3{fill:#bca5cf;}.cls-4{fill:#231f20;}</style></defs><rect class="cls-1" width="450" height="335"></rect><rect class="cls-2" y="199.03" width="450" height="74.53"></rect><rect class="cls-2" y="61.95" width="450" height="73.69"></rect><rect class="cls-3" x="184.4" y="61.95" width="18.64" height="211.61"></rect><path class="cls-4" d="m150.75,199.54c-1.44,1.44-2.89,1.44-4.33.12l-60.5-59.89v56.65c0,1.92-1.08,3.01-3.01,3.01h-.48c-1.92,0-3.01-1.08-3.01-3.01V66.16c0-1.92,1.08-3.01,3.01-3.01h25.62c19.24,0,45.58,8.54,45.58,35.96,0,23.93-14.19,37.16-50.87,37.16-3.73,0-9.02-.36-12.27-.6l60.5,59.29c1.44,1.44,1.44,2.89,0,4.33l-.24.24Zm-64.83-69.52h16.84c31.99,0,44.38-11.06,44.38-30.91,0-22.61-22.49-29.71-39.09-29.71h-22.13v60.62Z"></path><path class="cls-4" d="m172.28,168.27c-1.8-.6-2.53-1.68-1.92-3.01,2.77-7.46,6.37-21.29,8.18-28.86.12-.48.24-.96.48-1.32v-63.74c0-7.1,3.61-9.98,8.18-9.98,9.02,0,18.88,19.84,18.88,36.08,0,11.91-3.85,24.05-19.72,40.65l-1.32,1.44v42.58c.12,8.54.96,12.39,5.05,12.39,1.8,0,3.61-.48,5.41-2.29,4.69-4.69,9.26-13.71,14.31-26.1.72-1.8,2.04-2.41,3.85-1.8,1.8.6,2.53,1.68,2.04,3.01-5.17,13.11-10.46,23.57-15.88,28.98-3.25,3.25-6.25,3.97-9.74,3.97-8.9,0-10.94-5.53-11.06-18.16v-26.94c-.96,4.33-2.04,8.42-2.89,11.31-.72,1.8-2.04,2.41-3.85,1.8Zm12.75-37.64c11.91-13.35,15.03-23.45,15.03-33.19,0-13.59-6.73-30.31-12.87-30.31-1.2,0-2.17,1.2-2.17,4.21v59.29Z"></path><path class="cls-4" d="m216.3,170.67c.36,16.72,8.78,23.81,18.64,23.81,8.66,0,20.93-5.41,29.71-28.38.72-1.8,2.04-2.41,3.85-1.8,1.8.6,2.53,1.68,2.04,3.01-10.34,27.54-24.9,32.95-35.6,32.95-13.47,0-24.66-9.14-24.66-30.67,0-19.36,9.98-33.07,25.74-33.07,8.42,0,16.6,5.29,16.6,16.6,0,12.75-8.9,17.56-30.79,17.56h-5.53Zm.24-5.77h5.29c17.68,0,24.78-2.53,24.78-11.79,0-7.1-5.29-10.82-10.58-10.82-10.94,0-18.16,9.14-19.48,22.61Z"></path><path class="cls-4" d="m266.93,168.39c-1.8-.6-2.53-1.68-1.92-3.01,3.97-10.58,8.66-22.49,8.66-25.02v-.24c0-1.68,1.08-2.65,2.65-2.77h.36c.36,0,.48,0,.6.12,1.56.24,2.41,1.2,2.41,2.89v34.76c2.41-7.94,5.53-15.03,9.5-22.13,5.41-8.18,13.59-16.48,23.93-16.48,6.13,0,10.95,3.01,10.95,11.43,0,6.01-.36,12.15-.72,17.92-.36,5.53-.6,10.82-.6,16.24,0,8.54.84,12.39,4.93,12.39,1.8,0,3.61-.48,5.41-2.29,4.69-4.69,9.26-13.71,14.31-26.1.72-1.8,2.04-2.41,3.85-1.8,1.8.6,2.53,1.68,2.04,3.01-5.17,13.11-10.46,23.57-15.88,28.98-3.25,3.25-6.25,3.97-9.74,3.97-8.9,0-10.94-5.53-10.94-18.16,0-5.41.24-11.19.6-16.72v.12c.36-5.77.72-11.55.72-17.56,0-4.09-2.17-5.65-4.93-5.65-7.46,0-14.31,7.1-18.88,13.83-6.98,11.43-11.91,23.69-14.19,39.69l-.36,2.65v73.12c0,1.92-1.08,3.01-3.01,3.01s-3.01-1.08-3.01-3.01v-114.38c-.84,3.13-1.8,6.25-2.89,9.38-.72,1.8-2.04,2.41-3.85,1.8Z"></path><path class="cls-4" d="m349.56,168.39c-1.92-.72-2.65-1.8-2.04-3.13,3.85-10.34,8.42-21.89,8.66-24.66v-.24c0-1.92,1.08-3.01,3.01-3.01h.48c1.92,0,3.01,1.08,3.01,3.01v41.73c0,8.42.84,12.15,4.69,12.15,1.8,0,3.49-.36,5.29-2.17,4.57-4.57,9.14-13.59,14.19-26.1.72-1.8,2.04-2.41,3.85-1.8l.48.12c1.8.72,2.53,1.8,2.04,3.13-5.17,12.99-10.34,23.33-16,28.99-3.25,3.25-6.37,4.09-9.86,4.09-9.14,0-11.18-5.65-11.18-18.4v-23.45c-.72,2.77-1.56,5.53-2.41,8.06-.72,1.8-2.04,2.41-3.85,1.8l-.36-.12Zm6.13-70.96c0-1.92,1.08-3.01,3.01-3.01h1.56c1.92,0,3.01,1.08,3.01,3.01v6.62c0,1.92-1.08,3.01-3.01,3.01h-1.56c-1.92,0-3.01-1.08-3.01-3.01v-6.62Z"></path></svg> 