<?xml version="1.0" encoding="UTF-8"?> <svg xmlns="http://www.w3.org/2000/svg" id="background" viewBox="0 0 1920 1266.03"><defs><style>.cls-1{fill:#e2dcef;}.cls-2{fill:#29235c;}</style></defs><rect class="cls-1" width="1920" height="1266.03"></rect><path class="cls-2" d="m314.28,139.43c1.73.46,2.42,1.73,1.84,3.56l-42.32,125.59c-.58,1.5-1.61,2.3-3.33,2.3h-.23c-1.72,0-2.76-.81-3.33-2.3l-42.32-125.59c-.58-1.84.12-3.1,1.84-3.56l.46-.12c1.84-.58,3.11,0,3.68,1.84l39.79,118.34,39.79-118.34c.58-1.84,1.84-2.42,3.68-1.84l.46.12Z"></path><path class="cls-2" d="m344.75,210.38c3.68,0,6.9.81,9.55,2.19l1.72.35c5.29,1.15,12.88,2.19,19.67,2.19,4.6,0,8.74-.46,11.16-1.5,1.38-.69,2.42-1.15,3.79-.46l.12.12c1.84.8,2.42,2.53.92,3.79-3.45,2.65-9.32,3.57-15.99,3.57-4.49,0-9.43-.46-13.92-1.15,3.33,5.18,4.83,11.96,4.83,18.86,0,16.91-8.05,33.01-24.04,33.01s-21.85-13.69-21.85-27.95c0-16.91,8.05-33.01,24.04-33.01Zm-2.18,55.43c12.08,0,18.29-13.34,18.29-27.49,0-11.5-4.72-22.43-16.1-22.43-12.08,0-18.29,13.34-18.29,27.49,0,11.5,4.71,22.43,16.1,22.43Z"></path><path class="cls-2" d="m387.53,173.24c0-1.84,1.04-2.88,2.88-2.88h1.04c1.84,0,2.88,1.03,2.88,2.88v5.87c0,1.84-1.04,2.88-2.88,2.88h-1.04c-1.84,0-2.88-1.04-2.88-2.88v-5.87Zm42.67,41.52c-3.22,10.12-7.25,22.2-11.39,32.32-6.9,16.79-11.73,24.27-19.78,24.27-10.24,0-11.04-11.73-11.04-17.94v-39.33c0-1.84,1.04-2.88,2.88-2.88s2.88,1.04,2.88,2.88v39.33c0,4.37.35,12.42,5.29,12.42s8.28-5.52,14.49-20.82c3.91-9.66,7.94-21.62,11.16-31.97.58-1.73,1.84-2.42,3.68-1.84s2.42,1.73,1.84,3.57Z"></path><path class="cls-2" d="m484.82,243.74c1.73.58,2.3,1.96,1.61,3.8-5.87,14.84-11.04,23.81-17.94,23.81-5.52,0-7.94-1.96-11.85-7.59l-12.42-19.09-15.53,24.96c-1.04,1.61-2.3,1.84-3.91.92s-1.96-2.3-.92-3.91l17.14-26.91-15.87-24.61c-1.04-1.61-.8-2.99.8-3.91,1.61-.92,2.99-.69,3.91.92l14.84,22.77,14.15-22.77c.92-1.61,2.3-1.84,3.91-.92,1.61.92,1.84,2.3.81,3.91l-15.76,24.73,13.69,20.82v-.12c2.76,3.91,4.25,5.29,7.02,5.29,3.91,0,7.82-7.59,12.65-20.24.69-1.84,1.96-2.42,3.68-1.84Z"></path><path class="cls-2" d="m603.16,214.76c-3.22,10.12-7.25,22.2-11.38,32.32-6.9,16.79-11.73,24.27-19.78,24.27-10.24,0-11.04-11.73-11.04-17.94v-14.49l-1.96,5.52c-9.32,20.93-15.41,26.91-23.92,26.91-10,0-13.34-12.88-13.34-25.76,0-19.32,7.36-35.19,23-35.19,5.64,0,11.39,1.73,16.22,3.91v-.23c0-1.84,1.04-2.88,2.88-2.88h.34c1.61.12,2.53.92,2.53,2.3v39.91c0,4.37.34,12.42,5.29,12.42s8.28-5.52,14.49-20.82c3.91-9.66,7.94-21.62,11.16-31.97.57-1.73,1.84-2.42,3.68-1.84s2.42,1.73,1.84,3.57Zm-42.44,4.94c-.58.12-1.15,0-1.84-.34-4.14-1.84-9.2-3.45-14.15-3.45-11.73,0-17.25,13.34-17.25,29.67,0,10.12,1.96,20.24,7.59,20.24s10.24-4.6,18.63-23.69l3.45-7.82c2.42-5.75,3.33-10.93,3.57-14.61Z"></path><path class="cls-2" d="m716.66,214.76c-3.22,10.12-7.25,22.2-11.38,32.32-6.9,16.79-11.73,24.27-19.78,24.27-10.24,0-11.04-11.73-11.04-17.94v-24.84c0-8.86-1.38-12.65-5.29-12.65-5.63,0-11.5,6.21-18.75,22.89l-4.14,8.97c-4.03,8.74-4.49,15.3-4.49,18.06v1.84c0,1.84-1.04,2.88-2.88,2.88h-.46c-1.61-.11-2.42-.92-2.42-2.42v-39.56c0-8.86-1.38-12.65-5.29-12.65-5.64,0-11.5,6.21-18.75,22.89l-4.14,8.97c-3.57,7.71-4.37,13.69-4.49,16.91v2.99c0,1.84-1.04,2.88-2.88,2.88h-.46c-1.61-.11-2.42-.92-2.42-2.42v-54.05c0-1.84,1.04-2.88,2.88-2.88s2.88,1.04,2.88,2.88v30.82l3.34-8.4c8.28-18.4,16.1-26.11,24.04-26.11s11.04,5.41,11.04,18.17v16.33l3.33-8.4c8.28-18.4,16.1-26.11,24.04-26.11s11.04,5.41,11.04,18.17v24.84c0,4.37.34,12.42,5.29,12.42s8.28-5.52,14.49-20.82c3.91-9.66,7.94-21.62,11.16-31.97.58-1.73,1.84-2.42,3.68-1.84s2.42,1.73,1.84,3.57Z"></path><path class="cls-2" d="m786.12,214.76c-4.14,13.23-8.86,25.53-13.46,34.27-8.86,15.87-17.25,21.74-36.57,22.31-.46,0-.8-.12-1.04-.12-.69,0-1.26.12-1.96.12-5.75,0-11.5-1.73-16.22-3.8v.12c0,1.84-1.04,2.88-2.88,2.88h-.46c-1.61-.11-2.42-.92-2.42-2.42v-125.93c0-1.84,1.04-2.88,2.88-2.88s2.88,1.04,2.88,2.88v100.63l1.96-5.52c9.32-20.93,15.41-26.91,23.92-26.91,10,0,13.34,12.88,13.34,25.76,0,12.08-2.88,22.66-8.74,29.1,9.32-2.3,14.38-7.82,20.24-18.75,4.49-8.4,8.74-19.78,13.11-33.35.46-1.84,1.73-2.53,3.57-1.96s2.42,1.73,1.84,3.57Zm-69.12,47.27c.58,0,1.27.11,1.96.35,4.14,1.84,9.2,3.45,14.15,3.45,11.73,0,17.25-13.34,17.25-29.67,0-10.12-1.96-20.24-7.59-20.24s-10.24,4.6-18.63,23.69l-3.45,7.82c-2.53,5.87-3.34,11.04-3.68,14.61Z"></path><path class="cls-2" d="m780.14,173.24c0-1.84,1.04-2.88,2.88-2.88h1.04c1.84,0,2.88,1.03,2.88,2.88v5.87c0,1.84-1.04,2.88-2.88,2.88h-1.04c-1.84,0-2.88-1.04-2.88-2.88v-5.87Zm35.77,70.5c-7.59,16.91-15.87,27.6-24.27,27.6-10.24,0-11.04-11.73-11.04-17.94v-39.33c0-1.84,1.04-2.88,2.88-2.88s2.88,1.04,2.88,2.88v39.33c0,4.37.35,12.42,5.29,12.42,5.75,0,12.42-9.32,18.98-24.27.8-1.73,2.07-2.3,3.79-1.61,1.73.69,2.19,1.96,1.5,3.79Z"></path><path class="cls-2" d="m853.51,211.19c1.61.12,2.53.92,2.53,2.3v84.87c0,36.57-13.92,44.85-28.41,44.85-1.84,0-3.45-.12-4.83-.35-1.84-.34-2.53-1.73-1.96-3.45.58-1.73,1.84-2.3,3.57-1.96,1.04.12,2.07.23,3.22.23,11.5,0,22.66-7.36,22.66-39.33v-59.23l-1.96,5.29c-9.32,20.93-15.41,26.91-23.92,26.91-10,0-13.34-12.88-13.34-25.76,0-19.32,7.36-35.19,23-35.19,5.64,0,11.39,1.73,16.22,3.91v-.23c0-1.84,1.04-2.88,2.88-2.88h.34Zm-3.45,8.51c-.58.12-1.15,0-1.84-.34-4.14-1.84-9.2-3.45-14.15-3.45-11.73,0-17.25,13.34-17.25,29.67,0,10.12,1.96,20.24,7.59,20.24s10.24-4.6,18.63-23.69l3.45-7.82c2.42-5.75,3.33-10.93,3.57-14.61Z"></path><path class="cls-2" d="m959.77,243.74c-7.59,16.91-15.87,27.6-24.27,27.6-10.24,0-11.04-11.73-11.04-17.94v-16.56l-3.33,8.4c-8.74,18.98-16.68,26.11-25.19,26.11-10.01,0-13.34-8.4-13.34-21.62v-35.65c0-1.84,1.04-2.88,2.88-2.88s2.88,1.04,2.88,2.88v35.65c0,9.78,1.96,16.1,7.59,16.1,5.98,0,12.31-6.67,19.9-22.89l4.14-8.97c3.45-7.59,4.37-13.57,4.49-16.79v-3.45c0-.23,0-.46.12-.69v-.23c.11-.23.23-.46.46-.69.11-.23.34-.34.57-.46l.35-.23h.11c.12-.11.23-.11.46-.11.23-.12.46-.12.8-.12h.34c1.61.12,2.53.92,2.53,2.3v39.91c0,4.37.34,12.42,5.29,12.42,5.75,0,12.42-9.32,18.98-24.27.8-1.73,2.07-2.3,3.79-1.61,1.72.69,2.18,1.96,1.5,3.79Z"></path><path class="cls-2" d="m978.29,265.82c12.54,0,24.5-8.74,32.55-24.5.92-1.61,2.19-2.19,3.8-1.38,1.84.69,2.3,2.07,1.5,3.79-9.09,17.83-22.89,27.6-37.84,27.6-17.37,0-23.35-10.7-23.35-28.87,0-16.45,8.74-32.09,24.27-32.09,10.58,0,16.56,6.33,16.56,13.8,0,13.69-10.47,19.21-28.41,19.21h-6.67c.11,14.15,4.83,22.43,17.6,22.43Zm-17.37-27.95h6.44c14.26,0,22.66-3.91,22.66-13.69,0-4.49-3.91-8.28-10.81-8.28-10.58,0-17.02,10.12-18.29,21.97Zm1.15-56.81c0-1.84,1.04-2.88,2.88-2.88h1.61c1.84,0,2.88,1.03,2.88,2.88v4.26c0,1.84-1.04,2.88-2.88,2.88h-1.61c-1.84,0-2.88-1.04-2.88-2.88v-4.26Zm21.85,0c0-1.84,1.04-2.88,2.88-2.88h1.61c1.84,0,2.88,1.03,2.88,2.88v4.26c0,1.84-1.04,2.88-2.88,2.88h-1.61c-1.84,0-2.88-1.04-2.88-2.88v-4.26Z"></path><path class="cls-2" d="m1125.95,243.74c-7.59,16.91-15.87,27.6-24.27,27.6-10.24,0-11.04-11.73-11.04-17.94v-14.49l-1.96,5.52c-9.32,20.93-15.41,26.91-23.92,26.91-10,0-13.34-12.88-13.34-25.76,0-19.32,7.36-35.19,23-35.19,5.64,0,11.39,1.73,16.22,3.91v-72.11c0-1.84,1.04-2.88,2.88-2.88s2.88,1.04,2.88,2.88v111.21c0,4.37.34,12.42,5.29,12.42,5.75,0,12.42-9.32,18.98-24.27.81-1.73,2.07-2.3,3.79-1.61,1.73.69,2.19,1.96,1.5,3.79Zm-35.54-24.04c-.58.12-1.15,0-1.84-.34-4.14-1.84-9.2-3.45-14.15-3.45-11.73,0-17.25,13.34-17.25,29.67,0,10.12,1.96,20.24,7.59,20.24s10.24-4.6,18.63-23.69l3.45-7.82c2.42-5.75,3.33-10.93,3.57-14.61Z"></path><path class="cls-2" d="m1143.08,142.19c-.46,8.63-2.99,17.94-10.7,30.02-1.04,1.61-2.42,1.96-4.02.92-1.61-.92-1.84-2.3-.81-4.02,7.02-10.81,9.32-19.21,9.78-27.03.12-1.84,1.15-2.76,2.99-2.76s2.88,1.04,2.76,2.88Z"></path><path class="cls-2" d="m1173.09,214.06v35.65c0,9.78,1.96,16.1,7.59,16.1,5.98,0,12.31-6.67,19.9-22.89l4.14-8.97c3.45-7.59,4.37-13.57,4.49-16.79v-3.45c0-.23,0-.46.12-.69.23-.81.69-1.38,1.49-1.61,0,0,.12-.11.23-.11s.34-.12.58-.12h.46c1.84,0,2.88.81,2.88,2.3v39.91c0,4.37.34,12.42,5.29,12.42s8.28-5.52,14.49-20.82c3.91-9.66,7.94-21.62,11.16-31.97.58-1.73,1.84-2.42,3.68-1.84,1.84.58,2.42,1.73,1.84,3.57-3.22,10.12-7.25,22.2-11.39,32.32-6.9,16.79-11.73,24.27-19.78,24.27-10.24,0-11.04-11.73-11.04-17.94v-16.56l-3.33,8.4c-8.74,18.98-16.68,26.11-25.19,26.11-10.01,0-13.34-8.4-13.34-21.62v-35.65c0-1.84,1.04-2.88,2.88-2.88s2.88,1.04,2.88,2.88Z"></path><path class="cls-2" d="m1245.89,268.12v-54.05c0-1.84,1.04-2.88,2.88-2.88s2.88,1.04,2.88,2.88v30.82l3.34-8.4c8.74-18.98,16.68-26.11,25.19-26.11,10.01,0,13.34,8.4,13.34,21.62v21.39c0,4.37.34,12.42,5.29,12.42,5.75,0,12.42-9.32,18.98-24.27.8-1.73,2.07-2.3,3.79-1.61,1.72.69,2.18,1.96,1.5,3.79-7.59,16.91-15.87,27.6-24.27,27.6-10.24,0-11.04-11.73-11.04-17.94v-21.39c0-9.78-1.96-16.1-7.59-16.1-5.98,0-12.31,6.67-19.9,22.89l-4.14,8.97c-3.57,7.71-4.37,13.69-4.49,16.91v2.99c0,1.84-1.04,2.88-2.88,2.88s-2.88-.8-2.88-2.42Z"></path><path class="cls-2" d="m1415.06,243.74c-8.51,17.83-21.39,27.6-35.54,27.6-15.75,0-21.05-10.7-21.05-28.87,0-16.45,8.74-32.09,24.27-32.09,5.87,0,10.12,1.84,13.34,5.18,1.38,1.38,1.04,2.88-.46,3.91l-.12.12c-1.5,1.04-2.76.69-4.03-.58-2.18-1.96-5.06-3.1-8.74-3.1-11.85,0-18.52,12.88-18.52,26.57,0,14.72,3.91,23.35,15.29,23.35s22.77-8.74,30.25-24.38c.92-1.73,2.18-2.3,3.91-1.5,1.72.69,2.3,2.07,1.38,3.79Z"></path><path class="cls-2" d="m1484.63,243.74c-7.59,16.91-15.87,27.6-24.27,27.6-10.24,0-11.04-11.73-11.04-17.94v-13.34l-1.96,4.37c-9.32,20.93-15.41,26.91-23.92,26.91-10,0-13.34-12.88-13.34-25.76,0-19.32,7.36-35.19,23-35.19,5.64,0,11.39,1.73,16.22,3.91v-.23c0-1.84,1.04-2.88,2.88-2.88h.34c1.61.12,2.53.92,2.53,2.3v39.91c0,4.37.34,12.42,5.29,12.42,5.75,0,12.42-9.32,18.98-24.27.81-1.73,2.07-2.3,3.79-1.61,1.73.69,2.19,1.96,1.5,3.79Zm-35.54-24.04c-.58.12-1.15,0-1.84-.34-4.14-1.84-9.2-3.45-14.15-3.45-11.73,0-17.25,13.34-17.25,29.67,0,10.12,1.96,20.24,7.59,20.24s10.24-4.6,18.63-23.69l3.45-7.82c2.42-5.75,3.33-10.93,3.57-14.61Z"></path><path class="cls-2" d="m1549.49,214.76c-2.53,8.62-5.87,18.17-9.54,26.34-8.51,18.52-22.31,30.25-36.8,30.25-17.37,0-23.35-10.7-23.35-28.87,0-16.45,8.74-32.09,24.27-32.09,10.58,0,16.56,6.33,16.56,13.8,0,13.69-10.47,19.21-28.41,19.21h-6.67c.11,14.15,4.83,22.43,17.6,22.43s23.92-9.66,31.51-27.03c3.68-8.05,6.79-17.25,9.32-25.65.57-1.84,1.72-2.53,3.56-1.96,1.84.58,2.53,1.73,1.96,3.57Zm-63.71,23.12h6.44c14.26,0,22.66-3.91,22.66-13.69,0-4.49-3.91-8.28-10.81-8.28-10.58,0-17.02,10.12-18.29,21.97Z"></path><path class="cls-2" d="m1549.6,214.06v35.65c0,9.78,1.96,16.1,7.59,16.1,5.98,0,12.31-6.67,19.9-22.89l4.14-8.97c3.45-7.59,4.37-13.57,4.49-16.79v-3.45c0-.23,0-.46.12-.69.23-.81.69-1.38,1.49-1.61,0,0,.12-.11.23-.11s.34-.12.58-.12h.46c1.84,0,2.88.81,2.88,2.3v39.91c0,4.37.34,12.42,5.29,12.42s8.28-5.52,14.49-20.82c3.91-9.66,7.94-21.62,11.16-31.97.58-1.73,1.84-2.42,3.68-1.84,1.84.58,2.42,1.73,1.84,3.57-3.22,10.12-7.25,22.2-11.39,32.32-6.9,16.79-11.73,24.27-19.78,24.27-10.24,0-11.04-11.73-11.04-17.94v-16.56l-3.33,8.4c-8.74,18.98-16.68,26.11-25.19,26.11-10.01,0-13.34-8.4-13.34-21.62v-35.65c0-1.84,1.04-2.88,2.88-2.88s2.88,1.04,2.88,2.88Z"></path><path class="cls-2" d="m1622.4,267.66v-53.59c0-1.84,1.04-2.88,2.88-2.88s2.88,1.04,2.88,2.88v21.51c.58-2.07,1.15-3.8,1.84-5.29,4.83-10.24,12.31-18.17,21.39-18.17h.58c1.84,0,2.88.92,2.88,2.76s-.58,2.76-1.73,2.76h-1.72c-6.67,0-13.34,7.13-17.37,15.76-2.64,5.52-5.63,16.56-5.87,25.65v8.63c0,1.84-1.04,2.88-2.88,2.88s-2.88-1.04-2.88-2.88Z"></path><path class="cls-2" d="m271.61,578.62v-99.48l-1.96,5.29c-9.32,20.93-15.41,26.91-23.92,26.91-10.01,0-13.34-12.88-13.34-25.76,0-19.32,7.36-35.19,23-35.19,5.64,0,11.39,1.73,16.22,3.91v-.23c0-1.84,1.04-2.88,2.88-2.88s2.88.81,2.88,2.3v125.13c0,1.84-1.04,2.88-2.88,2.88s-2.88-1.04-2.88-2.88Zm-.23-118.92c-.58.12-1.15,0-1.84-.34-4.14-1.84-9.2-3.45-14.15-3.45-11.73,0-17.25,13.34-17.25,29.67,0,10.12,1.96,20.24,7.59,20.24s10.24-4.6,18.63-23.69l3.45-7.82c2.42-5.75,3.33-10.93,3.57-14.61Z"></path><path class="cls-2" d="m309.56,454.06v35.65c0,9.78,1.96,16.1,7.59,16.1,5.98,0,12.31-6.67,19.9-22.89l4.14-8.97c3.45-7.59,4.37-13.57,4.49-16.79v-3.45c0-.23,0-.46.12-.69.23-.81.69-1.38,1.49-1.61,0,0,.12-.11.23-.11s.34-.12.58-.12h.46c1.84,0,2.88.81,2.88,2.3v39.91c0,4.37.34,12.42,5.29,12.42s8.28-5.52,14.49-20.82c3.91-9.66,7.94-21.62,11.16-31.97.58-1.73,1.84-2.42,3.68-1.84,1.84.58,2.42,1.73,1.84,3.57-3.22,10.12-7.25,22.2-11.39,32.32-6.9,16.79-11.73,24.27-19.78,24.27-10.24,0-11.04-11.73-11.04-17.94v-16.56l-3.33,8.4c-8.74,18.98-16.68,26.11-25.19,26.11-10.01,0-13.34-8.4-13.34-21.62v-35.65c0-1.84,1.04-2.88,2.88-2.88s2.88,1.04,2.88,2.88Z"></path><path class="cls-2" d="m381.89,413.24c0-1.84,1.04-2.88,2.88-2.88h1.04c1.84,0,2.88,1.03,2.88,2.88v5.87c0,1.84-1.04,2.88-2.88,2.88h-1.04c-1.84,0-2.88-1.04-2.88-2.88v-5.87Zm35.77,70.5c-7.59,16.91-15.87,27.6-24.27,27.6-10.24,0-11.04-11.73-11.04-17.94v-39.33c0-1.84,1.04-2.88,2.88-2.88s2.88,1.04,2.88,2.88v39.33c0,4.37.35,12.42,5.29,12.42,5.75,0,12.42-9.32,18.98-24.27.8-1.73,2.07-2.3,3.79-1.61,1.73.69,2.19,1.96,1.5,3.79Z"></path><path class="cls-2" d="m534.5,454.76c-3.22,10.12-7.25,22.2-11.38,32.32-6.9,16.79-11.73,24.27-19.78,24.27-10.24,0-11.04-11.73-11.04-17.94v-14.49l-1.96,5.52c-9.32,20.93-15.41,26.91-23.92,26.91-10,0-13.34-12.88-13.34-25.76,0-19.32,7.36-35.19,23-35.19,5.64,0,11.39,1.73,16.22,3.91v-.23c0-1.84,1.04-2.88,2.88-2.88h.34c1.61.12,2.53.92,2.53,2.3v39.91c0,4.37.34,12.42,5.29,12.42s8.28-5.52,14.49-20.82c3.91-9.66,7.94-21.62,11.16-31.97.57-1.73,1.84-2.42,3.68-1.84s2.42,1.73,1.84,3.57Zm-42.44,4.94c-.58.12-1.15,0-1.84-.34-4.14-1.84-9.2-3.45-14.15-3.45-11.73,0-17.25,13.34-17.25,29.67,0,10.12,1.96,20.24,7.59,20.24s10.24-4.6,18.63-23.69l3.45-7.82c2.42-5.75,3.33-10.93,3.57-14.61Z"></path><path class="cls-2" d="m606.15,483.74c-7.59,16.91-15.87,27.6-24.27,27.6-10.24,0-11.04-11.73-11.04-17.94v-16.56l-3.33,8.4c-8.74,18.98-16.68,26.11-25.19,26.11-10.01,0-13.34-8.4-13.34-21.62v-35.65c0-1.84,1.04-2.88,2.88-2.88s2.88,1.04,2.88,2.88v35.65c0,9.78,1.96,16.1,7.59,16.1,5.98,0,12.31-6.67,19.9-22.89l4.14-8.97c3.45-7.59,4.37-13.57,4.49-16.79v-3.45c0-.23,0-.46.12-.69v-.23c.11-.23.23-.46.46-.69.11-.23.34-.34.57-.46l.35-.23h.11c.12-.11.23-.11.46-.11.23-.12.46-.12.8-.12h.34c1.61.12,2.53.92,2.53,2.3v39.91c0,4.37.34,12.42,5.29,12.42,5.75,0,12.42-9.32,18.98-24.27.8-1.73,2.07-2.3,3.79-1.61,1.72.69,2.18,1.96,1.5,3.79Z"></path><path class="cls-2" d="m708.04,486.84c-6.44,18.86-13.57,22.77-28.87,22.77h-30.13c-1.84,0-2.88-.69-2.88-2.07s.34-2.42,1.04-3.56l26.57-40.6c.69-1.15,2.3-3.68,3.79-5.75h-29.1c-1.84,0-2.88-.92-2.88-2.76s1.04-2.76,2.88-2.76h33.93c1.84,0,2.88.69,2.88,1.96v.12c0,1.38-.34,2.42-1.04,3.56l-26.57,40.6c-.69,1.15-2.42,3.68-3.8,5.75h25.3c12.31,0,18.06-3.22,23.35-18.98.58-1.84,1.84-2.53,3.68-1.96,1.84.57,2.42,1.84,1.84,3.68Z"></path><path class="cls-2" d="m772.44,454.76c-2.53,8.62-5.87,18.17-9.54,26.34-8.51,18.52-22.31,30.25-36.8,30.25-17.37,0-23.35-10.7-23.35-28.87,0-16.45,8.74-32.09,24.27-32.09,10.58,0,16.56,6.33,16.56,13.8,0,13.69-10.47,19.21-28.41,19.21h-6.67c.11,14.15,4.83,22.43,17.6,22.43s23.92-9.66,31.51-27.03c3.68-8.05,6.79-17.25,9.32-25.65.57-1.84,1.72-2.53,3.56-1.96,1.84.58,2.53,1.73,1.96,3.57Zm-63.71,23.12h6.44c14.26,0,22.66-3.91,22.66-13.69,0-4.49-3.91-8.28-10.81-8.28-10.58,0-17.02,10.12-18.29,21.97Zm2.65-45.08c-.58-1.73,0-2.99,1.72-3.68,8.4-3.45,14.61-8.51,19.32-15.3,1.15-1.61,2.42-1.84,4.03-.92,1.61.92,1.84,2.42.8,3.91-5.52,7.94-12.54,13.69-22.2,17.6-1.72.69-3.1.11-3.68-1.61Z"></path><path class="cls-2" d="m841.9,454.76c-4.14,13.23-8.86,25.53-13.46,34.27-8.86,15.87-17.25,21.74-36.57,22.31-.46,0-.8-.12-1.04-.12-.69,0-1.26.12-1.96.12-5.75,0-11.5-1.73-16.22-3.8v71.99c0,1.84-1.04,2.88-2.88,2.88s-2.88-1.03-2.88-2.88v-125.47c0-1.84,1.04-2.88,2.88-2.88s2.88,1.04,2.88,2.88v28.75l1.96-5.52c9.32-20.93,15.41-26.91,23.92-26.91,10.01,0,13.34,12.88,13.34,25.76,0,12.08-2.88,22.66-8.74,29.1,9.32-2.3,14.38-7.82,20.24-18.75,4.49-8.4,8.74-19.78,13.11-33.35.46-1.84,1.73-2.53,3.57-1.96s2.42,1.73,1.84,3.57Zm-69.12,47.27c.58,0,1.26.11,1.96.35,4.14,1.84,9.2,3.45,14.15,3.45,11.73,0,17.25-13.34,17.25-29.67,0-10.12-1.96-20.24-7.59-20.24s-10.24,4.6-18.63,23.69l-3.45,7.82c-2.53,5.87-3.33,11.04-3.68,14.61Z"></path><path class="cls-2" d="m920.44,454.76c-3.22,10.12-7.25,22.2-11.39,32.32-6.9,16.79-11.73,24.27-19.78,24.27-10.24,0-11.04-11.73-11.04-17.94v-21.39c0-9.78-1.96-16.1-7.59-16.1-5.98,0-12.31,6.67-19.9,22.89l-4.14,8.97c-3.57,7.71-4.37,13.69-4.49,16.91v2.99c0,1.84-1.04,2.88-2.88,2.88h-.46c-1.61-.11-2.42-.92-2.42-2.42v-125.93c0-1.84,1.04-2.88,2.88-2.88s2.88,1.04,2.88,2.88v102.7l3.34-8.4c8.74-18.98,16.68-26.11,25.19-26.11,10.01,0,13.34,8.4,13.34,21.62v21.39c0,4.37.34,12.42,5.29,12.42s8.28-5.52,14.49-20.82c3.91-9.66,7.94-21.62,11.16-31.97.58-1.73,1.84-2.42,3.68-1.84,1.84.58,2.42,1.73,1.84,3.57Z"></path><path class="cls-2" d="m920.56,454.06v35.65c0,9.78,1.96,16.1,7.59,16.1,5.98,0,12.31-6.67,19.9-22.89l4.14-8.97c4.03-8.74,4.49-15.3,4.49-18.06v-2.65s.12-.12.12-.23,0-.23.11-.35c0-.12.12-.12.12-.23.23-.35.46-.69.81-.81l.34-.23h.12c.11-.11.23-.11.46-.11.23-.12.46-.12.8-.12h.34c1.61.12,2.53.92,2.53,2.3v84.87c0,36.57-13.92,44.85-28.41,44.85-1.84,0-3.45-.12-4.83-.35-1.84-.34-2.53-1.73-1.96-3.45s1.84-2.3,3.57-1.96c1.04.12,2.07.23,3.22.23,11.5,0,22.66-7.36,22.66-39.33v-61.53l-3.33,8.4c-8.74,18.98-16.68,26.11-25.19,26.11-10.01,0-13.34-8.4-13.34-21.62v-35.65c0-1.84,1.04-2.88,2.88-2.88s2.88,1.04,2.88,2.88Z"></path><path class="cls-2" d="m988.75,507.66v-53.59c0-1.84,1.04-2.88,2.88-2.88s2.88,1.04,2.88,2.88v21.51c.58-2.07,1.15-3.8,1.84-5.29,4.83-10.24,12.31-18.17,21.39-18.17h.58c1.84,0,2.88.92,2.88,2.76s-.58,2.76-1.73,2.76h-1.72c-6.67,0-13.34,7.13-17.37,15.76-2.64,5.52-5.63,16.56-5.87,25.65v8.63c0,1.84-1.04,2.88-2.88,2.88s-2.88-1.04-2.88-2.88Z"></path><path class="cls-2" d="m1141.59,454.76c-4.14,13.23-8.86,25.53-13.46,34.27-8.86,15.87-17.25,21.74-36.57,22.31-.46,0-.8-.12-1.04-.12-.69,0-1.26.12-1.96.12-5.75,0-11.5-1.73-16.22-3.8v71.99c0,1.84-1.04,2.88-2.88,2.88s-2.88-1.03-2.88-2.88v-125.47c0-1.84,1.04-2.88,2.88-2.88s2.88,1.04,2.88,2.88v28.75l1.96-5.52c9.32-20.93,15.41-26.91,23.92-26.91,10.01,0,13.34,12.88,13.34,25.76,0,12.08-2.88,22.66-8.74,29.1,9.32-2.3,14.38-7.82,20.24-18.75,4.49-8.4,8.74-19.78,13.11-33.35.46-1.84,1.72-2.53,3.57-1.96,1.84.58,2.42,1.73,1.84,3.57Zm-69.12,47.27c.58,0,1.26.11,1.96.35,4.14,1.84,9.2,3.45,14.15,3.45,11.73,0,17.25-13.34,17.25-29.67,0-10.12-1.96-20.24-7.59-20.24s-10.24,4.6-18.63,23.69l-3.45,7.82c-2.53,5.87-3.33,11.04-3.68,14.61Z"></path><path class="cls-2" d="m1158.84,450.96c5.06,3.22,10.24,4.95,14.72,4.95,2.99,0,5.75-.58,8.28-1.73,1.61-.92,2.88-.81,4.03.69,1.15,1.38.92,2.88-.81,3.8-3.45,1.96-7.48,2.76-11.5,2.76-5.41,0-11.16-1.61-16.1-4.71-7.47,8.4-15.29,25.42-15.64,42.09v8.86c0,1.84-1.04,2.88-2.88,2.88s-2.88-1.04-2.88-2.88v-53.59c0-1.84,1.04-2.88,2.88-2.88s2.88,1.04,2.88,2.88v21.16c3.11-10.35,7.94-17.37,13-23.81,1.26-1.38,2.53-1.38,4.03-.46Z"></path><path class="cls-2" d="m1239.68,454.76c-2.53,8.62-5.87,18.17-9.54,26.34-8.51,18.52-22.31,30.25-36.8,30.25-17.37,0-23.35-10.7-23.35-28.87,0-16.45,8.74-32.09,24.27-32.09,10.58,0,16.56,6.33,16.56,13.8,0,13.69-10.47,19.21-28.41,19.21h-6.67c.11,14.15,4.83,22.43,17.6,22.43s23.92-9.66,31.51-27.03c3.68-8.05,6.79-17.25,9.32-25.65.57-1.84,1.72-2.53,3.56-1.96,1.84.58,2.53,1.73,1.96,3.57Zm-63.71,23.12h6.44c14.26,0,22.66-3.91,22.66-13.69,0-4.49-3.91-8.28-10.81-8.28-10.58,0-17.02,10.12-18.29,21.97Zm2.65-45.08c-.58-1.73,0-2.99,1.72-3.68,8.4-3.45,14.61-8.51,19.32-15.3,1.15-1.61,2.42-1.84,4.03-.92,1.61.92,1.84,2.42.8,3.91-5.52,7.94-12.54,13.69-22.2,17.6-1.72.69-3.1.11-3.68-1.61Z"></path><path class="cls-2" d="m1223.23,454.87c0-1.84,1.04-2.76,2.88-2.76h7.36l-.12-11.16c.12-18.75,9.32-26.45,19.09-26.45h2.07c1.96.11,2.88,1.38,2.53,3.1-.34,1.84-1.15,2.65-2.53,2.53-.8-.12-1.5-.12-2.07-.12-7.02,0-13.69,5.18-13.34,20.93l.12,11.16h30.25c3.11,0,5.41-.23,7.02-.34,1.84-.23,2.99.46,3.45,2.19.46,1.73-.35,2.88-2.3,3.22-1.84.23-4.71.46-8.17.46h-30.13l1.5,80.73c.69,36.69-14.03,44.85-28.52,44.85-3.22,0-4.83-.46-6.79-1.04h.12v-2.76c0-1.73.12-2.76.34-2.65h.46c1.73.46,3.11.92,5.87.92,11.27,0,22.77-9.2,22.77-39.33l-1.5-80.73h-7.48c-1.84,0-2.88-.92-2.88-2.76Z"></path><path class="cls-2" d="m1330.88,454.76c-2.53,8.62-5.87,18.17-9.54,26.34-8.51,18.52-22.31,30.25-36.8,30.25-17.37,0-23.35-10.7-23.35-28.87,0-16.45,8.74-32.09,24.27-32.09,10.58,0,16.56,6.33,16.56,13.8,0,13.69-10.47,19.21-28.41,19.21h-6.67c.11,14.15,4.83,22.43,17.6,22.43s23.92-9.66,31.51-27.03c3.68-8.05,6.79-17.25,9.32-25.65.57-1.84,1.72-2.53,3.56-1.96,1.84.58,2.53,1.73,1.96,3.57Zm-66.47-41.86c1.61-.92,2.88-.69,4.03.92,4.71,6.79,11.04,11.85,19.32,15.3,1.73.69,2.3,1.96,1.73,3.68-.58,1.73-1.96,2.3-3.68,1.61-9.66-3.91-16.79-9.78-22.2-17.6-1.04-1.5-.8-2.99.81-3.91Zm2.76,64.98h6.44c14.26,0,22.66-3.91,22.66-13.69,0-4.49-3.91-8.28-10.81-8.28-10.58,0-17.02,10.12-18.29,21.97Z"></path><path class="cls-2" d="m1348.01,450.96c5.06,3.22,10.24,4.95,14.72,4.95,2.99,0,5.75-.58,8.28-1.73,1.61-.92,2.88-.81,4.03.69,1.15,1.38.92,2.88-.81,3.8-3.45,1.96-7.48,2.76-11.5,2.76-5.41,0-11.16-1.61-16.1-4.71-7.47,8.4-15.29,25.42-15.64,42.09v8.86c0,1.84-1.04,2.88-2.88,2.88s-2.88-1.04-2.88-2.88v-53.59c0-1.84,1.04-2.88,2.88-2.88s2.88,1.04,2.88,2.88v21.16c3.11-10.35,7.94-17.37,13-23.81,1.26-1.38,2.53-1.38,4.03-.46Z"></path><path class="cls-2" d="m1382.51,505.82c12.54,0,24.5-8.74,32.55-24.5.92-1.61,2.19-2.19,3.8-1.38,1.84.69,2.3,2.07,1.5,3.79-9.09,17.83-22.89,27.6-37.84,27.6-17.37,0-23.35-10.7-23.35-28.87,0-16.45,8.74-32.09,24.27-32.09,10.58,0,16.56,6.33,16.56,13.8,0,13.69-10.47,19.21-28.41,19.21h-6.67c.11,14.15,4.83,22.43,17.6,22.43Zm-17.37-27.95h6.44c14.26,0,22.66-3.91,22.66-13.69,0-4.49-3.91-8.28-10.81-8.28-10.58,0-17.02,10.12-18.29,21.97Z"></path><path class="cls-2" d="m332.22,717.72c1.61.8,2.07,2.19,1.26,3.79l-64.52,125.59c-.69,1.38-1.73,2.07-3.34,2.07h-.34c-1.72,0-2.76-.92-3.11-2.65l-20.24-125.59c-.35-1.84.57-2.99,2.42-3.34l.58-.11c1.72-.23,2.88.57,3.22,2.42l18.75,118,61.07-119.15c.8-1.61,2.18-2.07,3.79-1.26l.46.23Z"></path><path class="cls-2" d="m349.7,788.67c3.68,0,6.79.81,9.2,2.19l1.73.35c5.06,1.04,12.42,2.19,19.09,2.19,4.37,0,8.4-.46,10.81-1.73,1.5-.81,2.53-1.15,3.91-.23l.12.12c1.61,1.03,2.07,2.76.46,3.91-3.57,2.53-9.2,3.45-15.3,3.45-4.83,0-9.89-.58-14.38-1.27,1.73,3.33,2.42,7.48,2.42,11.85,0,18.98-12.54,40.14-30.02,40.14-13,0-18.17-9.32-18.17-20.82,0-2.65.23-5.18.69-7.59,2.99-16.68,13.69-32.55,29.44-32.55Zm-24.38,40.14c0,8.51,3.57,15.3,12.42,15.3,14.03,0,24.27-18.17,24.27-34.62,0-8.51-3.45-15.3-12.31-15.3-12.42,0-21.16,13.57-23.69,27.95-.46,2.42-.69,4.72-.69,6.67Z"></path><path class="cls-2" d="m432.38,789.48c1.61.81,2.07,2.19,1.26,3.8-5.06,10.24-11.16,22.31-17.14,32.43-9.54,16.1-15.76,23.92-23.58,23.92-7.25,0-9.08-5.64-9.08-11.39,0-2.53.34-5.18.69-7.02,2.3-12.77,4.83-26.45,7.02-39.33.35-1.84,1.5-2.76,3.33-2.42,1.84.35,2.65,1.5,2.42,3.34l-7.01,39.33c-.35,1.84-.69,4.14-.69,6.1,0,2.99.69,5.87,3.33,5.87,5.18,0,9.43-5.64,18.52-21.16,5.98-10.12,12.08-21.97,17.14-32.2.8-1.61,2.18-2.07,3.79-1.27Zm-34.16-38.18c.34-1.73,1.38-2.65,3.1-2.65h1.15c1.96,0,2.88,1.15,2.53,3.1l-1.04,5.87c-.34,1.73-1.38,2.65-3.11,2.65h-1.04c-2.07,0-2.99-1.15-2.64-3.1l1.04-5.87Z"></path><path class="cls-2" d="m484.13,826.05c-8.28,14.72-14.95,23.58-21.74,23.58-5.64,0-7.94-1.96-11.04-7.94l-8.86-18.86-20.13,25.53c-1.26,1.38-2.64,1.61-4.03.46-1.38-1.15-1.5-2.53-.34-4.02l21.97-27.26-11.38-24.27c-.81-1.73-.35-3.11,1.38-3.8,1.72-.81,3.1-.23,3.91,1.38l10.46,22.2,18.4-23.12c1.26-1.38,2.64-1.61,4.03-.46,1.38,1.15,1.5,2.53.34,4.03l-20.24,24.96,9.09,19.21c.34.92.58,1.38.58,1.5,1.96,3.68,3.22,4.94,5.87,4.94,4.02,0,9.43-7.82,16.68-20.82,1.03-1.73,2.42-2.19,4.02-1.27,1.61.92,2.07,2.3,1.04,4.03Z"></path><path class="cls-2" d="m584.41,822.95c5.98-10.12,12.08-21.97,17.14-32.2.8-1.61,2.19-2.07,3.79-1.27,1.61.81,2.07,2.19,1.27,3.8-5.06,10.24-11.16,22.31-17.14,32.43-9.55,16.1-15.76,23.92-23.58,23.92-7.25,0-9.09-5.64-9.09-11.39,0-2.53.35-5.18.69-7.02l2.53-13.8-2.99,5.64c-12.77,20.7-19.78,26.57-28.06,26.57-7.59,0-10.35-6.79-10.35-15.64,0-23.23,12.65-45.31,29.79-45.31,5.87,0,11.39,1.73,15.87,3.91,0,0,0,.12.12.12,0-.23,0-.58.12-.81.34-1.84,1.49-2.76,3.33-2.42,1.84.35,2.64,1.5,2.42,3.34l-7.02,39.33c-.34,1.84-.69,4.14-.69,6.1,0,2.99.69,5.87,3.33,5.87,5.17,0,9.43-5.64,18.52-21.16Zm-21.28-24.96c-.57,0-1.04-.23-1.61-.57-3.68-1.73-8.4-3.22-13.11-3.22-13.92,0-24.04,19.32-24.04,39.79,0,5.75,1.15,10.12,4.6,10.12,5.98,0,11.27-4.71,23.23-24.04l4.83-7.82c3.22-5.52,5.06-10.7,6.09-14.26Z"></path><path class="cls-2" d="m630.07,845.49l6.9-39.1c.58-3.1.81-5.41.81-7.25,0-3.45-1.04-4.95-3.34-4.95-5.87,0-13,6.33-23.35,23.23l-5.75,8.97c-4.83,7.59-6.67,13.57-7.36,16.91l-.23,1.27-.34,1.96c-.23,1.73-1.5,2.65-3.22,2.3h-.12c-1.84-.34-2.65-1.5-2.42-3.33l9.54-53.71c.23-1.73,1.5-2.65,3.22-2.3h.11c1.84.35,2.65,1.5,2.42,3.34l-5.29,29.79,4.6-8.17c11.27-18.17,20.24-25.76,28.18-25.76,6.44,0,9.09,3.34,9.09,10.47,0,2.07-.34,5.41-.8,8.17l-2.88,15.64,4.83-8.51c11.27-18.17,20.24-25.76,28.18-25.76,6.44,0,9.09,3.34,9.09,10.47,0,2.07-.35,5.41-.81,8.17-1.26,7.59-3.1,17.25-4.37,24.84-.34,1.84-.69,4.14-.69,6.1,0,2.99.69,5.87,3.33,5.87,5.17,0,9.43-5.64,18.52-21.16,5.98-10.12,12.08-21.97,17.14-32.2.81-1.61,2.19-2.07,3.79-1.27,1.61.81,2.07,2.19,1.27,3.8-5.06,10.24-11.16,22.31-17.14,32.43-9.55,16.1-15.76,23.92-23.58,23.92-7.25,0-9.09-5.64-9.09-11.39,0-2.53.35-5.18.69-7.02,1.26-7.59,3.11-17.25,4.37-24.84.58-3.1.8-5.41.8-7.25,0-3.45-1.04-4.95-3.33-4.95-5.87,0-13,6.33-23.35,23.23l-5.75,8.97c-5.17,8.05-6.9,14.26-7.47,17.48-.23.92-.35,1.84-.46,2.65-.35,1.73-1.5,2.65-3.34,2.3-1.84-.34-2.64-1.5-2.42-3.33Z"></path><path class="cls-2" d="m710.91,846.41v.12c-.23,1.73-1.5,2.65-3.22,2.3h-.11c-1.84-.34-2.65-1.5-2.42-3.33l22.2-125.59c.23-1.73,1.5-2.65,3.22-2.3h.12c1.84.35,2.64,1.5,2.42,3.34l-17.71,99.59,2.88-5.29c12.77-20.7,19.9-26.57,28.18-26.57,7.47,0,10.24,6.67,10.24,15.53,0,15.64-5.64,30.82-14.61,38.99,9.55-2.53,15.87-8.05,23.35-18.75,6.09-8.4,12.54-20.24,19.09-33.58.8-1.72,2.18-2.19,3.79-1.38s2.07,2.19,1.27,3.91c-6.79,13.8-13.11,25.42-19.55,34.27-12.08,16.68-20.36,21.51-40.02,21.97h-2.99c-5.87,0-11.5-1.73-15.99-3.91l-.12.69Zm1.26-5.98c.46,0,1.04.12,1.61.35,3.79,1.84,8.51,3.33,13.23,3.33,13.92,0,23.92-19.32,23.92-39.91,0-5.64-1.15-10.01-4.48-10.01-5.98,0-11.39,4.72-23.35,24.04l-4.83,7.82c-3.33,5.52-5.18,10.7-6.1,14.38Z"></path><path class="cls-2" d="m813.26,818.23c1.61.92,1.96,2.3.92,4.03-10.35,16.79-20.47,27.37-28.64,27.37-7.25,0-9.08-5.64-9.08-11.39,0-2.53.34-5.18.69-7.02,2.3-12.77,4.83-26.45,7.01-39.33.34-1.84,1.5-2.76,3.33-2.42,1.84.35,2.65,1.5,2.42,3.34l-7.01,39.33c-.35,1.84-.69,4.14-.69,6.1,0,2.99.69,5.87,3.33,5.87,5.98,0,14.38-9.55,23.69-24.73,1.04-1.73,2.3-2.07,3.91-1.15h.12Zm-22.43-66.93c.34-1.73,1.38-2.65,3.1-2.65h1.15c1.96,0,2.88,1.15,2.53,3.1l-1.04,5.87c-.34,1.73-1.38,2.65-3.11,2.65h-1.04c-2.07,0-2.99-1.15-2.64-3.1l1.04-5.87Z"></path><path class="cls-2" d="m853.63,792.7l.23-.92c.34-1.73,1.49-2.65,3.33-2.3,1.84.35,2.64,1.5,2.42,3.34l-14.95,84.3c-6.44,36.11-21.62,44.39-35.88,44.39-1.84,0-3.22-.12-4.6-.35-1.96-.34-2.53-1.73-1.96-3.45s1.84-2.3,3.57-1.96c.92.12,1.84.23,2.99.23,11.62,0,24.27-8.4,30.13-39.79,3.33-19.32,6.9-39.1,10.47-58.77l-2.99,5.64c-12.77,20.7-19.78,26.57-28.06,26.57-7.59,0-10.35-6.79-10.35-15.64,0-23.23,12.65-45.31,29.79-45.31,5.87,0,11.39,1.73,15.87,3.91v.12Zm-1.15,5.29c-.57,0-1.04-.23-1.61-.57-3.68-1.73-8.4-3.22-13.11-3.22-13.92,0-24.04,19.32-24.04,39.79,0,5.75,1.15,10.12,4.6,10.12,5.98,0,11.27-4.71,23.23-24.04l4.83-7.82c3.22-5.52,5.06-10.7,6.09-14.26Z"></path><path class="cls-2" d="m885.71,828.47c-.58,3.11-.8,5.64-.8,7.82,0,4.83,1.38,7.82,5.06,7.82,6.1,0,13.92-6.79,24.5-23.23l5.75-8.97c4.25-6.67,6.21-12.31,7.13-15.76l.69-4.26c.34-1.84,1.5-2.76,3.33-2.42,1.84.35,2.65,1.5,2.42,3.34l-7.02,39.33c-.34,1.84-.69,4.14-.69,6.1,0,2.99.69,5.87,3.33,5.87,5.98,0,14.38-9.55,23.69-24.73,1.04-1.73,2.3-2.07,3.91-1.15h.12c1.61.92,1.96,2.3.92,4.03-10.35,16.79-20.47,27.37-28.64,27.37-7.25,0-9.08-5.64-9.08-11.39,0-2.53.34-5.18.69-7.02l2.76-15.41-4.49,8.05c-11.96,18.75-21.05,25.76-29.33,25.76-7.82,0-10.81-5.06-10.81-13.34,0-2.65.23-5.64.81-8.74l6.33-35.77c.34-1.73,1.5-2.65,3.22-2.3h.12c1.84.35,2.65,1.5,2.42,3.34l-6.33,35.65Z"></path><path class="cls-2" d="m958.27,830.19c0,8.86,3.91,13.92,13.92,13.92,12.88,0,26.45-8.85,37.38-24.96,1.04-1.61,2.42-1.96,4.03-.92,1.61.92,1.84,2.42.81,3.91-12.08,17.71-27.37,27.49-42.21,27.49s-19.67-7.13-19.67-19.44c0-19.09,11.73-41.52,30.36-41.52,9.78,0,14.72,5.41,14.72,11.96,0,15.07-13.92,21.05-31.51,21.05h-7.02c-.58,2.88-.8,5.75-.8,8.51Zm2.07-14.03h5.75c14.38,0,25.76-4.37,25.76-15.53,0-3.57-3.11-6.44-8.97-6.44-10.93,0-18.98,10.12-22.54,21.97Zm10.92-57.04c.35-1.73,1.38-2.65,3.11-2.65h1.73c1.96,0,2.88,1.15,2.64,3.1l-.69,4.26c-.35,1.73-1.38,2.65-3.11,2.65h-1.84c-1.96,0-2.88-1.15-2.53-3.1l.69-4.26Zm21.85,0c.34-1.73,1.38-2.65,3.11-2.65h1.72c1.96,0,2.88,1.15,2.65,3.1l-.69,4.26c-.34,1.73-1.38,2.65-3.11,2.65h-1.84c-1.96,0-2.88-1.15-2.53-3.1l.69-4.26Z"></path><path class="cls-2" d="m1106.86,719.9c.34-1.84,1.5-2.65,3.33-2.3s2.65,1.5,2.42,3.34l-19.67,111.21c-.34,1.84-.69,4.14-.69,6.1,0,2.99.69,5.87,3.33,5.87,5.98,0,14.38-9.55,23.69-24.73,1.04-1.73,2.3-2.07,3.91-1.15h.12c1.61.92,1.96,2.3.92,4.03-10.35,16.79-20.47,27.37-28.64,27.37-7.25,0-9.09-5.64-9.09-11.39,0-2.53.35-5.18.69-7.02l2.3-13.46-2.76,5.29c-12.77,20.7-19.78,26.57-28.06,26.57-7.59,0-10.35-6.79-10.35-15.64,0-23.23,12.65-45.31,29.79-45.31,5.87,0,11.39,1.73,15.87,3.91l12.88-72.68Zm-14.03,78.09c-.57,0-1.04-.23-1.61-.57-3.68-1.73-8.4-3.22-13.11-3.22-13.92,0-24.04,19.32-24.04,39.79,0,5.75,1.15,10.12,4.6,10.12,5.98,0,11.27-4.71,23.23-24.04l4.83-7.82c3.22-5.52,5.06-10.7,6.09-14.26Z"></path><path class="cls-2" d="m1157,717.6c1.84.35,2.76,1.5,2.3,3.34-2.07,8.62-6.33,17.94-16.22,30.02-1.15,1.5-2.65,1.61-4.03.46-1.38-1.15-1.5-2.65-.34-4.14,9.08-11.04,13.11-19.55,14.84-27.37.46-1.84,1.5-2.65,3.33-2.3h.12Z"></path><path class="cls-2" d="m1205.07,838.24c0-2.53.34-5.18.69-7.02l2.76-15.41-4.49,8.05c-11.96,18.75-21.05,25.76-29.33,25.76-7.82,0-10.81-5.06-10.81-13.34,0-2.65.23-5.64.81-8.74l6.33-35.77c.34-1.73,1.5-2.65,3.22-2.3h.12c1.84.35,2.65,1.5,2.42,3.34l-6.33,35.65c-.58,3.11-.8,5.64-.8,7.82,0,4.83,1.38,7.82,5.06,7.82,6.1,0,13.92-6.79,24.5-23.23l5.75-8.97c4.25-6.67,6.21-12.31,7.13-15.76l.69-4.26c.34-1.84,1.5-2.76,3.33-2.42,1.84.35,2.65,1.5,2.42,3.34l-7.02,39.33c-.34,1.84-.69,4.14-.69,6.1,0,2.99.69,5.87,3.33,5.87,5.18,0,9.43-5.64,18.52-21.16,5.98-10.12,12.08-21.97,17.14-32.2.81-1.61,2.19-2.07,3.8-1.27,1.61.81,2.07,2.19,1.26,3.8-5.06,10.24-11.16,22.31-17.14,32.43-9.55,16.1-15.76,23.92-23.58,23.92-7.25,0-9.08-5.64-9.08-11.39Z"></path><path class="cls-2" d="m1242.32,848.82c-1.84-.34-2.65-1.5-2.42-3.33l9.54-53.71c.23-1.73,1.5-2.65,3.22-2.3h.11c1.84.35,2.65,1.5,2.42,3.34l-5.29,29.79,4.6-8.17c11.96-18.75,21.05-25.76,29.33-25.76,7.82,0,10.81,5.06,10.81,13.34,0,2.65-.23,5.64-.8,8.74l-3.8,21.39c-.34,1.84-.69,4.14-.69,6.1,0,2.99.69,5.87,3.33,5.87,5.98,0,14.38-9.55,23.69-24.73,1.04-1.73,2.3-2.07,3.91-1.15h.12c1.61.92,1.96,2.3.92,4.03-10.35,16.79-20.47,27.37-28.64,27.37-7.25,0-9.08-5.64-9.08-11.39,0-2.53.34-5.18.69-7.02l3.79-21.39c.58-3.1.81-5.64.81-7.82,0-4.83-1.38-7.82-5.06-7.82-6.09,0-13.92,6.79-24.5,23.23l-5.75,8.97c-4.83,7.59-6.67,13.57-7.36,16.91l-.23,1.27-.34,1.96c-.23,1.73-1.5,2.65-3.22,2.3h-.11Z"></path><path class="cls-2" d="m1412.53,818.23c1.61.92,1.84,2.42.8,4.03-11.5,17.6-25.99,27.37-39.91,27.37-12.54,0-17.48-6.79-17.48-18.63,0-19.21,11.39-42.32,30.48-42.32,5.87,0,10,1.96,12.65,5.29,1.15,1.5.69,2.99-.92,3.79l-.12.12c-1.61.81-2.76.34-3.91-1.04-1.72-1.73-4.25-2.65-7.71-2.65-15.41,0-24.73,20.13-24.73,36.8,0,8.4,3.33,13.11,11.73,13.11,11.96,0,24.61-8.85,35.08-24.96,1.04-1.61,2.42-1.84,4.03-.92Z"></path><path class="cls-2" d="m1481.99,818.23c1.61.92,1.96,2.3.92,4.03-10.35,16.79-20.47,27.37-28.64,27.37-7.25,0-9.09-5.64-9.09-11.39,0-2.53.35-5.18.69-7.02l2.53-13.8-2.99,5.64c-12.77,20.7-19.78,26.57-28.06,26.57-7.59,0-10.35-6.79-10.35-15.64,0-23.23,12.65-45.31,29.79-45.31,5.87,0,11.39,1.73,15.87,3.91,0,0,0,.12.12.12,0-.23,0-.58.12-.81.34-1.84,1.49-2.76,3.33-2.42,1.84.35,2.64,1.5,2.42,3.34l-7.02,39.33c-.34,1.84-.69,4.14-.69,6.1,0,2.99.69,5.87,3.33,5.87,5.98,0,14.38-9.55,23.69-24.73,1.04-1.73,2.3-2.07,3.91-1.15h.12Zm-30.48-20.24c-.57,0-1.04-.23-1.61-.57-3.68-1.73-8.4-3.22-13.11-3.22-13.92,0-24.04,19.32-24.04,39.79,0,5.75,1.15,10.12,4.6,10.12,5.98,0,11.27-4.71,23.23-24.04l4.83-7.82c3.22-5.52,5.06-10.7,6.09-14.26Z"></path><path class="cls-2" d="m1552.94,793.28c-4.14,8.51-9.09,17.83-14.38,26.45-11.85,19.21-26.8,29.9-41.52,29.9s-19.67-7.13-19.67-19.44c0-19.09,11.73-41.52,30.36-41.52,9.78,0,14.72,5.41,14.72,11.96,0,15.07-13.92,21.05-31.51,21.05h-7.02c-.58,2.88-.8,5.75-.8,8.51,0,8.86,3.91,13.92,13.92,13.92,12.19,0,26.11-11.04,36.69-27.37,4.83-7.94,9.78-17.25,13.92-25.88.81-1.61,2.19-2.19,3.91-1.38,1.73.69,2.19,2.07,1.38,3.8Zm-67.74,22.89h5.75c14.38,0,25.76-4.37,25.76-15.53,0-3.57-3.11-6.44-8.97-6.44-10.93,0-18.98,10.12-22.54,21.97Z"></path><path class="cls-2" d="m1581.58,838.24c0-2.53.34-5.18.69-7.02l2.76-15.41-4.49,8.05c-11.96,18.75-21.05,25.76-29.33,25.76-7.82,0-10.81-5.06-10.81-13.34,0-2.65.23-5.64.81-8.74l6.33-35.77c.34-1.73,1.5-2.65,3.22-2.3h.12c1.84.35,2.65,1.5,2.42,3.34l-6.33,35.65c-.58,3.11-.8,5.64-.8,7.82,0,4.83,1.38,7.82,5.06,7.82,6.1,0,13.92-6.79,24.5-23.23l5.75-8.97c4.25-6.67,6.21-12.31,7.13-15.76l.69-4.26c.34-1.84,1.5-2.76,3.33-2.42,1.84.35,2.65,1.5,2.42,3.34l-7.02,39.33c-.34,1.84-.69,4.14-.69,6.1,0,2.99.69,5.87,3.33,5.87,5.18,0,9.43-5.64,18.52-21.16,5.98-10.12,12.08-21.97,17.14-32.2.81-1.61,2.19-2.07,3.8-1.27,1.61.81,2.07,2.19,1.26,3.8-5.06,10.24-11.16,22.31-17.14,32.43-9.55,16.1-15.76,23.92-23.58,23.92-7.25,0-9.08-5.64-9.08-11.39Z"></path><path class="cls-2" d="m1618.83,848.82c-1.84-.34-2.65-1.5-2.42-3.33l9.54-53.71c.23-1.73,1.5-2.65,3.22-2.3h.11c1.84.35,2.65,1.5,2.42,3.34l-3.33,18.86c7.02-12.77,16.33-21.28,26.34-21.28h.57c1.84,0,2.88.92,2.88,2.76s-.58,2.76-1.73,2.76h-1.72c-11.5,0-26.22,19.67-29.9,35.88l-2.65,14.72c-.23,1.73-1.5,2.65-3.22,2.3h-.11Z"></path><path class="cls-2" d="m276.21,1032.7l.23-.92c.23-1.73,1.5-2.65,3.22-2.3h.12c1.84.35,2.64,1.5,2.42,3.34l-22.08,124.67c-.23,1.73-1.5,2.65-3.22,2.3h-.12c-1.84-.35-2.64-1.5-2.42-3.33l17.48-98.9-2.88,5.52c-12.77,20.7-19.78,26.57-28.06,26.57-7.59,0-10.35-6.79-10.35-15.64,0-23.23,12.65-45.31,29.79-45.31,5.87,0,11.39,1.73,15.87,3.91v.12Zm-1.15,5.29c-.57,0-1.04-.23-1.61-.57-3.68-1.73-8.4-3.22-13.11-3.22-13.92,0-24.04,19.32-24.04,39.79,0,5.75,1.15,10.12,4.6,10.12,5.98,0,11.27-4.71,23.23-24.04l4.83-7.82c3.22-5.52,5.06-10.7,6.09-14.26Z"></path><path class="cls-2" d="m342.8,1078.24c0-2.53.34-5.18.69-7.02l2.76-15.41-4.49,8.05c-11.96,18.75-21.05,25.76-29.33,25.76-7.82,0-10.81-5.06-10.81-13.34,0-2.65.23-5.64.8-8.74l6.33-35.77c.34-1.73,1.5-2.65,3.22-2.3h.12c1.84.35,2.65,1.5,2.42,3.34l-6.33,35.65c-.58,3.11-.8,5.64-.8,7.82,0,4.83,1.38,7.82,5.06,7.82,6.1,0,13.92-6.79,24.5-23.23l5.75-8.97c4.25-6.67,6.21-12.31,7.13-15.76l.69-4.26c.34-1.84,1.5-2.76,3.33-2.42,1.84.35,2.65,1.5,2.42,3.34l-7.02,39.33c-.34,1.84-.69,4.14-.69,6.1,0,2.99.69,5.87,3.33,5.87,5.18,0,9.43-5.64,18.52-21.16,5.98-10.12,12.08-21.97,17.14-32.2.81-1.61,2.19-2.07,3.8-1.27,1.61.81,2.07,2.19,1.26,3.8-5.06,10.24-11.16,22.31-17.14,32.43-9.55,16.1-15.76,23.92-23.58,23.92-7.25,0-9.08-5.64-9.08-11.39Z"></path><path class="cls-2" d="m416.28,1058.23c1.61.92,1.96,2.3.92,4.03-10.35,16.79-20.47,27.37-28.64,27.37-7.25,0-9.08-5.64-9.08-11.39,0-2.53.34-5.18.69-7.02,2.3-12.77,4.83-26.45,7.01-39.33.34-1.84,1.5-2.76,3.33-2.42,1.84.35,2.65,1.5,2.42,3.34l-7.01,39.33c-.35,1.84-.69,4.14-.69,6.1,0,2.99.69,5.87,3.33,5.87,5.98,0,14.38-9.55,23.69-24.73,1.04-1.73,2.3-2.07,3.91-1.15h.12Zm-22.43-66.93c.34-1.73,1.38-2.65,3.1-2.65h1.15c1.96,0,2.88,1.15,2.53,3.1l-1.04,5.87c-.34,1.73-1.38,2.65-3.11,2.65h-1.04c-2.07,0-2.99-1.15-2.64-3.1l1.04-5.87Z"></path><path class="cls-2" d="m517.02,1062.95c5.98-10.12,12.08-21.97,17.14-32.2.8-1.61,2.19-2.07,3.79-1.27,1.61.81,2.07,2.19,1.27,3.8-5.06,10.24-11.16,22.31-17.14,32.43-9.55,16.1-15.76,23.92-23.58,23.92-7.25,0-9.09-5.64-9.09-11.39,0-2.53.35-5.18.69-7.02l2.53-13.8-2.99,5.64c-12.77,20.7-19.78,26.57-28.06,26.57-7.59,0-10.35-6.79-10.35-15.64,0-23.23,12.65-45.31,29.79-45.31,5.87,0,11.39,1.73,15.87,3.91,0,0,0,.12.12.12,0-.23,0-.58.12-.81.34-1.84,1.49-2.76,3.33-2.42,1.84.35,2.64,1.5,2.42,3.34l-7.02,39.33c-.34,1.84-.69,4.14-.69,6.1,0,2.99.69,5.87,3.33,5.87,5.17,0,9.43-5.64,18.52-21.16Zm-21.28-24.96c-.57,0-1.04-.23-1.61-.57-3.68-1.73-8.4-3.22-13.11-3.22-13.92,0-24.04,19.32-24.04,39.79,0,5.75,1.15,10.12,4.6,10.12,5.98,0,11.27-4.71,23.23-24.04l4.83-7.82c3.22-5.52,5.06-10.7,6.09-14.26Z"></path><path class="cls-2" d="m533.35,1068.47c-.58,3.11-.8,5.64-.8,7.82,0,4.83,1.38,7.82,5.06,7.82,6.1,0,13.92-6.79,24.5-23.23l5.75-8.97c4.25-6.67,6.21-12.31,7.13-15.76l.69-4.26c.34-1.84,1.5-2.76,3.33-2.42,1.84.35,2.65,1.5,2.42,3.34l-7.02,39.33c-.34,1.84-.69,4.14-.69,6.1,0,2.99.69,5.87,3.33,5.87,5.98,0,14.38-9.55,23.69-24.73,1.04-1.73,2.3-2.07,3.91-1.15h.12c1.61.92,1.96,2.3.92,4.03-10.35,16.79-20.47,27.37-28.64,27.37-7.25,0-9.08-5.64-9.08-11.39,0-2.53.34-5.18.69-7.02l2.76-15.41-4.49,8.05c-11.96,18.75-21.05,25.76-29.33,25.76-7.82,0-10.81-5.06-10.81-13.34,0-2.65.23-5.64.8-8.74l6.33-35.77c.34-1.73,1.5-2.65,3.22-2.3h.12c1.84.35,2.65,1.5,2.42,3.34l-6.33,35.65Z"></path><path class="cls-2" d="m705.85,1061.45c1.61.81,2.07,2.19,1.15,3.91-9.66,18.75-17.25,22.54-32.43,22.54h-30.13c-1.84,0-2.88-.69-2.76-2.07,0-1.49.34-2.53,1.27-3.56l35.08-42.32c.69-.92,2.07-2.53,3.45-4.02h-28.41c-1.84,0-2.88-.92-2.88-2.76s1.04-2.76,2.88-2.76h33.93c1.84,0,2.88.69,2.88,2.07v.11c-.12,1.38-.46,2.42-1.38,3.45l-35.08,42.32-3.45,4.02h24.61c12.54,0,18.98-3.33,27.37-19.55.92-1.73,2.3-2.19,3.91-1.38Z"></path><path class="cls-2" d="m777.15,1033.28c-4.14,8.51-9.09,17.83-14.38,26.45-11.85,19.21-26.8,29.9-41.52,29.9s-19.67-7.13-19.67-19.44c0-19.09,11.73-41.52,30.36-41.52,9.78,0,14.72,5.41,14.72,11.96,0,15.07-13.92,21.05-31.51,21.05h-7.02c-.58,2.88-.8,5.75-.8,8.51,0,8.86,3.91,13.92,13.92,13.92,12.19,0,26.11-11.04,36.69-27.37,4.83-7.94,9.78-17.25,13.92-25.88.81-1.61,2.19-2.19,3.91-1.38,1.73.69,2.19,2.07,1.38,3.8Zm-67.74,22.89h5.75c14.38,0,25.76-4.37,25.76-15.53,0-3.57-3.1-6.44-8.97-6.44-10.93,0-18.98,10.12-22.54,21.97Zm10.46-45.08c-.57-1.73,0-2.99,1.84-3.56,9.2-3.57,16.45-8.86,22.54-15.87,1.26-1.38,2.64-1.61,4.14-.46,1.5,1.15,1.61,2.53.46,4.03-6.79,7.71-14.95,13.57-25.3,17.6-1.84.58-3.11,0-3.68-1.73Z"></path><path class="cls-2" d="m755.18,1158.4c-.23,1.84-1.5,2.65-3.22,2.3h-.11c-1.84-.34-2.65-1.5-2.42-3.33l22.31-125.59c.23-1.84,1.5-2.65,3.22-2.3h.12c1.84.35,2.65,1.5,2.42,3.34l-4.95,27.6,2.76-5.18c12.77-20.7,19.78-26.57,28.06-26.57,7.59,0,10.35,6.79,10.35,15.64,0,15.64-5.75,30.71-14.72,38.99,9.55-2.53,15.99-8.17,23.46-18.86,6.09-8.4,12.54-20.24,19.09-33.58.8-1.72,2.18-2.19,3.79-1.38s2.07,2.19,1.26,3.91c-6.79,13.8-13.11,25.42-19.55,34.27-12.08,16.68-20.36,21.51-40.02,21.97h-3.11c-5.87,0-11.39-1.73-15.87-3.91l-12.88,72.68Zm14.03-77.97c.46,0,1.04.12,1.61.46,3.68,1.73,8.4,3.22,13.11,3.22,13.92,0,24.04-19.32,24.04-39.79,0-5.75-1.15-10.12-4.6-10.12-5.98,0-11.27,4.72-23.23,24.04l-4.83,7.82c-3.34,5.52-5.18,10.7-6.1,14.38Z"></path><path class="cls-2" d="m875.36,1078.24c0-2.53.34-5.18.69-7.02l3.79-21.39c.58-3.1.81-5.64.81-7.82,0-4.83-1.38-7.82-5.06-7.82-6.09,0-13.92,6.79-24.5,23.23l-5.75,8.97c-4.95,7.59-6.67,13.69-7.36,17.02l-.23,1.15-.34,1.96c-.23,1.73-1.5,2.65-3.22,2.3h-.11c-1.84-.34-2.65-1.5-2.42-3.33l22.2-125.59c.23-1.73,1.5-2.65,3.22-2.3h.12c1.84.35,2.64,1.5,2.42,3.34l-17.94,101.66,4.6-8.17c11.96-18.75,21.05-25.76,29.33-25.76,7.82,0,10.81,5.06,10.81,13.34,0,2.65-.23,5.64-.8,8.74l-3.8,21.39c-.34,1.84-.69,4.14-.69,6.1,0,2.99.69,5.87,3.33,5.87,5.18,0,9.43-5.64,18.52-21.16,5.98-10.12,12.08-21.97,17.14-32.2.81-1.61,2.19-2.07,3.8-1.27,1.61.81,2.07,2.19,1.26,3.8-5.06,10.24-11.16,22.31-17.14,32.43-9.55,16.1-15.76,23.92-23.58,23.92-7.25,0-9.08-5.64-9.08-11.39Z"></path><path class="cls-2" d="m919.06,1068.47c-.58,3.11-.81,5.64-.81,7.82,0,4.83,1.38,7.82,5.06,7.82,6.1,0,13.92-6.79,24.5-23.23l5.75-8.97c5.52-8.63,7.13-15.3,7.59-18.17l.34-1.96c.34-1.73,1.5-2.65,3.33-2.3,1.84.35,2.65,1.5,2.42,3.34l-14.95,84.3c-6.44,36.11-21.62,44.39-35.88,44.39-1.84,0-3.22-.12-4.6-.35-1.96-.34-2.53-1.73-1.96-3.45.58-1.73,1.84-2.3,3.57-1.96.92.12,1.84.23,2.99.23,11.62,0,24.27-8.4,30.13-39.79,3.45-19.9,7.13-40.37,10.81-60.61l-4.72,8.28c-11.96,18.75-21.05,25.76-29.33,25.76-7.82,0-10.81-5.06-10.81-13.34,0-2.65.23-5.64.8-8.74l6.33-35.77c.35-1.73,1.5-2.65,3.22-2.3h.12c1.84.35,2.64,1.5,2.42,3.34l-6.33,35.65Z"></path><path class="cls-2" d="m986.45,1088.82c-1.84-.34-2.65-1.5-2.42-3.33l9.54-53.71c.23-1.73,1.5-2.65,3.22-2.3h.11c1.84.35,2.65,1.5,2.42,3.34l-3.33,18.86c7.02-12.77,16.33-21.28,26.34-21.28h.57c1.84,0,2.88.92,2.88,2.76s-.58,2.76-1.73,2.76h-1.72c-11.5,0-26.22,19.67-29.9,35.88l-2.65,14.72c-.23,1.73-1.5,2.65-3.22,2.3h-.11Z"></path><path class="cls-2" d="m1054.87,1158.4c-.23,1.84-1.5,2.65-3.22,2.3h-.11c-1.84-.34-2.65-1.5-2.42-3.33l22.31-125.59c.23-1.84,1.5-2.65,3.22-2.3h.12c1.84.35,2.65,1.5,2.42,3.34l-4.95,27.6,2.76-5.18c12.77-20.7,19.78-26.57,28.06-26.57,7.59,0,10.35,6.79,10.35,15.64,0,15.64-5.75,30.71-14.72,38.99,9.55-2.53,15.99-8.17,23.46-18.86,6.09-8.4,12.54-20.24,19.09-33.58.8-1.72,2.18-2.19,3.79-1.38s2.07,2.19,1.26,3.91c-6.79,13.8-13.11,25.42-19.55,34.27-12.08,16.68-20.36,21.51-40.02,21.97h-3.11c-5.87,0-11.39-1.73-15.87-3.91l-12.88,72.68Zm14.03-77.97c.46,0,1.04.12,1.61.46,3.68,1.73,8.4,3.22,13.11,3.22,13.92,0,24.04-19.32,24.04-39.79,0-5.75-1.15-10.12-4.6-10.12-5.98,0-11.27,4.72-23.23,24.04l-4.83,7.82c-3.33,5.52-5.18,10.7-6.1,14.38Z"></path><path class="cls-2" d="m1177.58,1034.2c2.99,0,5.98-.58,8.86-1.96,1.61-.81,2.99-.58,4.03.92s.81,2.99-.92,3.8c-3.79,1.96-7.94,2.76-11.96,2.76-5.52,0-11.16-1.61-15.53-4.6-9.08,8.74-20.36,25.53-23.46,43.13-.12.23-.12.35-.12.58l-1.38,7.71c-.23,1.73-1.5,2.65-3.22,2.3h-.12c-1.84-.34-2.65-1.5-2.42-3.33l9.54-53.71c.23-1.73,1.5-2.65,3.22-2.3h.11c1.84.35,2.65,1.5,2.42,3.34l-3.56,19.9c4.95-10.7,10.35-17.14,16.79-23.23,1.26-1.15,2.64-1.15,4.02-.11,4.37,3.1,9.2,4.83,13.69,4.83Z"></path><path class="cls-2" d="m1244.4,1033.28c-4.14,8.51-9.09,17.83-14.38,26.45-11.85,19.21-26.8,29.9-41.52,29.9s-19.67-7.13-19.67-19.44c0-19.09,11.73-41.52,30.36-41.52,9.78,0,14.72,5.41,14.72,11.96,0,15.07-13.92,21.05-31.51,21.05h-7.02c-.58,2.88-.8,5.75-.8,8.51,0,8.86,3.91,13.92,13.92,13.92,12.19,0,26.11-11.04,36.69-27.37,4.83-7.94,9.78-17.25,13.92-25.88.81-1.61,2.19-2.19,3.91-1.38,1.73.69,2.19,2.07,1.38,3.8Zm-67.74,22.89h5.75c14.38,0,25.76-4.37,25.76-15.53,0-3.57-3.11-6.44-8.97-6.44-10.93,0-18.98,10.12-22.54,21.97Zm10.46-45.08c-.57-1.73,0-2.99,1.84-3.56,9.2-3.57,16.45-8.86,22.54-15.87,1.26-1.38,2.64-1.61,4.14-.46,1.5,1.15,1.61,2.53.46,4.03-6.79,7.71-14.95,13.57-25.3,17.6-1.84.58-3.11,0-3.68-1.73Z"></path><path class="cls-2" d="m1227.83,1033.16c0-1.84,1.04-2.76,2.88-2.76h7.82c.69-3.79,1.26-7.71,1.84-11.62,3.11-18.98,13.69-25.99,23.35-25.99h1.96c1.96.11,2.88,1.38,2.53,3.1-.34,1.84-1.15,2.65-2.53,2.53-.69-.12-1.38-.12-1.96-.12-7.25,0-15.07,5.29-17.6,21.39l-1.72,10.7h29.67c3.11,0,5.52-.23,7.13-.34,1.84-.23,2.99.46,3.45,2.19s-.34,2.88-2.3,3.1c-1.96.35-4.72.58-8.28.58h-30.59l-12.77,81.19c-5.75,36.23-21.85,44.39-36,44.39-3.45,0-4.71-.35-6.44-.92,0,0-.69-1.5.12-3.22l1.15-2.07c-.46-.23-.35-.23-.23-.23,1.61.46,2.99.92,5.41.92,11.73,0,25.19-7.25,30.25-39.79,4.14-26.8,8.51-53.48,12.65-80.27h-6.9c-1.84,0-2.88-.92-2.88-2.76Z"></path><path class="cls-2" d="m1335.59,1033.28c-4.14,8.51-9.09,17.83-14.38,26.45-11.85,19.21-26.8,29.9-41.52,29.9s-19.67-7.13-19.67-19.44c0-19.09,11.73-41.52,30.36-41.52,9.78,0,14.72,5.41,14.72,11.96,0,15.07-13.92,21.05-31.51,21.05h-7.02c-.58,2.88-.8,5.75-.8,8.51,0,8.86,3.91,13.92,13.92,13.92,12.19,0,26.11-11.04,36.69-27.37,4.83-7.94,9.78-17.25,13.92-25.88.81-1.61,2.19-2.19,3.91-1.38,1.73.69,2.19,2.07,1.38,3.8Zm-67.74,22.89h5.75c14.38,0,25.76-4.37,25.76-15.53,0-3.57-3.11-6.44-8.97-6.44-10.93,0-18.98,10.12-22.54,21.97Zm12.42-63.6c3.45,6.56,8.63,11.5,16.1,14.84,1.72.81,2.3,2.07,1.61,3.68-.69,1.61-1.96,2.19-3.68,1.5-9.09-4.03-15.18-9.89-19.32-17.6-.92-1.73-.34-3.11,1.5-3.8,1.61-.8,2.88-.23,3.79,1.38Z"></path><path class="cls-2" d="m1366.76,1034.2c2.99,0,5.98-.58,8.86-1.96,1.61-.81,2.99-.58,4.03.92s.81,2.99-.92,3.8c-3.79,1.96-7.94,2.76-11.96,2.76-5.52,0-11.16-1.61-15.53-4.6-9.08,8.74-20.36,25.53-23.46,43.13-.12.23-.12.35-.12.58l-1.38,7.71c-.23,1.73-1.5,2.65-3.22,2.3h-.11c-1.84-.34-2.65-1.5-2.42-3.33l9.54-53.71c.23-1.73,1.5-2.65,3.22-2.3h.11c1.84.35,2.65,1.5,2.42,3.34l-3.56,19.9c4.95-10.7,10.35-17.14,16.79-23.23,1.26-1.15,2.64-1.15,4.02-.11,4.37,3.1,9.2,4.83,13.69,4.83Z"></path><path class="cls-2" d="m1363.76,1070.19c0,8.86,3.91,13.92,13.92,13.92,12.88,0,26.45-8.85,37.38-24.96,1.04-1.61,2.42-1.96,4.03-.92,1.61.92,1.84,2.42.81,3.91-12.08,17.71-27.37,27.49-42.21,27.49s-19.67-7.13-19.67-19.44c0-19.09,11.73-41.52,30.36-41.52,9.78,0,14.72,5.41,14.72,11.96,0,15.07-13.92,21.05-31.51,21.05h-7.02c-.58,2.88-.8,5.75-.8,8.51Zm2.07-14.03h5.75c14.38,0,25.76-4.37,25.76-15.53,0-3.57-3.1-6.44-8.97-6.44-10.93,0-18.98,10.12-22.54,21.97Z"></path></svg> 