<?xml version="1.0" encoding="UTF-8"?> <svg xmlns="http://www.w3.org/2000/svg" viewBox="0 0 1920 1266.03"><defs><style>.cls-1{fill:#e2dcef;}.cls-2{fill:#29235c;}</style></defs><g id="background"><rect class="cls-1" width="1920" height="1266.03"></rect></g><g id="Capa_2"><path class="cls-2" d="m313.24,139.54c1.72.46,2.42,1.73,1.84,3.57l-41.75,125.36c-.58,1.5-1.61,2.3-3.33,2.3h-.46c-1.73,0-2.76-.8-3.34-2.3l-41.63-125.36c-.57-1.84.12-3.11,1.84-3.57l.46-.11c1.84-.58,3.1,0,3.68,1.84l39.22,118.57,39.33-118.57c.58-1.84,1.84-2.42,3.68-1.84l.46.11Z"></path><path class="cls-2" d="m347.63,211.65c.69-.8,1.73-1.27,2.99-1.27,4.49,0,7.59,5.18,9.55,12.65,1.15,4.37,2.42,11.73,2.42,15.41,0,.81-.12,1.61-.12,2.3,2.19,2.53,4.14,3.33,6.44,3.33,1.38,0,2.42-.69,4.83-5.29.69-1.61,1.96-2.19,3.68-1.61,1.72.58,2.42,1.61,1.84,2.88-3.11,7.36-6.1,9.55-10.35,9.55-2.53,0-4.83-.58-7.02-2.07-2.76,17.14-13.11,23.81-22.43,23.81-10.35,0-20.01-9.32-20.01-27.26,0-15.76,5.17-33.7,21.39-33.7,2.42,0,4.95.69,6.79,1.27Zm-.92,5.64c-1.26-.46-3.79-1.38-5.87-1.38-11.85,0-15.64,14.95-15.64,28.18,0,14.26,6.9,21.74,14.26,21.74s16.22-6.44,17.25-23.81c-2.19-3.22-4.37-7.59-6.79-13.69-1.73-4.6-2.76-8.4-3.22-11.04Z"></path><path class="cls-2" d="m375.8,240.86c-1.84-.69-2.53-1.73-1.96-2.99,3.68-9.89,8.05-20.93,8.28-23.58v-.23c0-1.84,1.04-2.88,2.88-2.88h.46c1.84,0,2.88,1.04,2.88,2.88v39.91c0,8.05.8,11.62,4.49,11.62,1.72,0,3.33-.34,5.06-2.07,4.37-4.37,8.74-13,13.57-24.96.69-1.73,1.96-2.3,3.68-1.73l.46.11c1.73.69,2.42,1.73,1.96,2.99-4.94,12.42-9.89,22.31-15.3,27.72-3.11,3.1-6.1,3.91-9.43,3.91-8.74,0-10.7-5.41-10.7-17.6v-22.43c-.69,2.65-1.5,5.29-2.3,7.71-.69,1.73-1.96,2.3-3.68,1.73l-.34-.12Zm5.87-67.85c0-1.84,1.03-2.88,2.88-2.88h1.5c1.84,0,2.88,1.04,2.88,2.88v6.33c0,1.84-1.04,2.88-2.88,2.88h-1.5c-1.84,0-2.88-1.04-2.88-2.88v-6.33Z"></path><path class="cls-2" d="m420.76,262.48c1.38-1.5,3.11-1.04,4.49.23,2.19,1.84,4.95,3.1,8.4,3.1,5.75,0,13-7.36,13-25.19,0-18.75-8.17-24.73-13.23-24.73-3.33,0-7.25,1.84-10.92,10.35-1.84,4.37-3.33,8.17-4.95,12.88-.69,1.73-1.96,2.3-3.68,1.73-1.73-.57-2.42-1.61-1.96-2.88,2.07-5.98,3.68-10.35,5.29-14.03,4.72-10.47,10.93-13.57,16.22-13.57s12.65,4.03,16.1,15.07c3.33-10.47,9.89-15.07,15.87-15.07,5.29,0,9.43,1.96,12.65,4.95,1.38,1.38,1.26,2.76-.12,3.91-1.5,1.15-2.76,1.04-4.14-.23-2.18-1.84-4.95-3.1-8.4-3.1-5.75,0-13,7.36-13,25.19,0,18.75,8.17,24.73,13.23,24.73,9.2,0,16.33-15.07,22.31-28.18.69-1.73,1.96-2.3,3.68-1.73,1.72.58,2.42,1.61,1.96,2.88-6.79,15.3-14.72,32.55-27.95,32.55-5.41,0-12.65-3.91-16.22-15.07-3.22,10.58-9.89,15.07-15.76,15.07-5.29,0-9.43-1.96-12.65-4.95-1.38-1.38-1.38-2.65-.23-3.91Z"></path><path class="cls-2" d="m576.82,214.06v39.91c0,8.17.8,11.85,4.71,11.85,1.73,0,3.45-.46,5.18-2.19,4.49-4.48,8.86-13.11,13.69-24.96.69-1.73,1.96-2.3,3.68-1.73,1.73.58,2.42,1.61,1.96,2.88-4.95,12.54-10,22.54-15.18,27.72-3.1,3.11-5.98,3.8-9.32,3.8-8.51,0-10.46-5.29-10.46-17.37v-12.31c-6.33,19.44-14.38,29.67-24.84,29.67-8.86,0-17.6-11.39-17.83-28.41-.23-19.44,11.16-32.55,24.84-32.55,6.67,0,11.85,1.73,17.83,5.41v-1.73c0-1.84,1.04-2.88,2.88-2.88s2.88,1.04,2.88,2.88Zm-5.75,9.89v-1.73c-7.59-4.72-12.19-6.33-17.83-6.33-10.47,0-19.32,10.81-19.09,27.03.23,13.8,6.09,22.89,12.08,22.89,10.12,0,17.71-13.34,24.84-41.86Z"></path><path class="cls-2" d="m602.58,240.86c-1.72-.57-2.42-1.61-1.84-2.88,3.79-10.12,8.28-21.51,8.28-23.92v-.23c.12-1.61,1.04-2.65,2.88-2.65h.35c1.61.23,2.53,1.15,2.53,2.88v31.74c2.07-7.02,4.72-13.34,7.94-19.55,5.18-7.94,13.11-15.87,22.89-15.87,5.87,0,10.46,2.88,10.46,10.93v24.84c2.07-6.79,4.72-12.88,7.94-19.09,5.18-8.62,13-16.68,22.89-16.68,5.87,0,10.46,2.88,10.46,10.93,0,5.75-.34,11.5-.69,16.91-.35,5.18-.58,10.01-.58,15.18,0,8.74.8,12.42,4.71,12.42,1.73,0,3.45-.46,5.18-2.19,4.48-4.48,8.97-13,13.69-24.96.69-1.73,1.96-2.3,3.68-1.73,1.73.58,2.42,1.61,1.96,2.88-4.95,12.54-10,22.54-15.18,27.72-3.11,3.11-5.98,3.8-9.32,3.8-8.51,0-10.47-5.29-10.47-17.94,0-5.18.23-10.47.58-15.64.35-5.18.69-10.93.69-16.45,0-3.91-2.07-5.41-4.71-5.41-7.25,0-13.8,6.79-18.06,13.92-6.33,10.81-10.58,22.08-12.77,37.84,0,1.84-1.04,2.88-2.88,2.88h-.34c-1.61-.11-2.53-1.15-2.53-2.88v-46.35c0-3.91-2.07-5.41-4.71-5.41-7.25,0-13.92,6.56-17.94,13.11-7.02,11.39-10.81,24.38-12.88,38.64,0,1.73-.92,2.76-2.64,2.88h-.23c-1.84,0-2.88-1.04-2.88-2.88v-37.49c-.8,2.99-1.72,5.98-2.76,8.97-.69,1.73-1.96,2.3-3.68,1.73Z"></path><path class="cls-2" d="m721.83,240.75c-1.72-.58-2.42-1.61-1.84-2.88,2.65-7.13,6.1-20.36,7.82-27.6.12-.46.23-.92.46-1.27v-60.95c0-6.79,3.45-9.55,7.82-9.55,8.63,0,18.06,18.98,18.06,34.5,0,11.39-3.68,23-18.86,38.87-.46.46-.92.81-1.27.92v38.18c0,10.12,4.95,14.84,11.04,14.84,7.59,0,16.22-6.44,17.25-23.92-2.3-3.33-4.49-7.71-6.79-13.57-2.3-6.21-3.34-10.81-3.34-13.46s1.61-4.49,4.03-4.49c4.49,0,7.59,5.18,9.55,12.65,1.15,4.37,2.42,11.73,2.42,15.41v1.96c2.64,3.22,5.17,4.26,8.17,4.26,2.3,0,3.91-1.27,6.44-5.87.69-1.61,1.96-2.19,3.68-1.61,1.72.58,2.42,1.61,1.84,2.88-2.65,6.56-6.1,10.12-11.96,10.12-3.22,0-6.09-.81-8.86-2.88-2.64,17.37-13.11,24.04-22.43,24.04s-16.79-6.56-16.79-20.36v-20.7c-1.04,3.34-1.96,6.44-2.76,8.74-.69,1.73-1.96,2.3-3.68,1.73Zm12.19-36c11.39-12.77,14.38-22.43,14.38-31.74,0-13-6.44-28.98-12.31-28.98-1.15,0-2.07,1.15-2.07,4.02v56.7Z"></path><path class="cls-2" d="m784.86,240.86c-1.84-.69-2.53-1.73-1.96-2.99,3.68-9.89,8.05-20.93,8.28-23.58v-.23c0-1.84,1.04-2.88,2.88-2.88h.46c1.84,0,2.88,1.04,2.88,2.88v39.91c0,8.05.8,11.62,4.49,11.62,1.72,0,3.33-.34,5.06-2.07,4.37-4.37,8.74-13,13.57-24.96.69-1.73,1.96-2.3,3.68-1.73l.46.11c1.73.69,2.42,1.73,1.96,2.99-4.94,12.42-9.89,22.31-15.29,27.72-3.11,3.1-6.1,3.91-9.43,3.91-8.74,0-10.7-5.41-10.7-17.6v-22.43c-.69,2.65-1.5,5.29-2.3,7.71-.69,1.73-1.96,2.3-3.68,1.73l-.34-.12Zm5.87-67.85c0-1.84,1.03-2.88,2.88-2.88h1.5c1.84,0,2.88,1.04,2.88,2.88v6.33c0,1.84-1.04,2.88-2.88,2.88h-1.5c-1.84,0-2.88-1.04-2.88-2.88v-6.33Z"></path><path class="cls-2" d="m869.73,214.06v50.14c8.17-5.98,14.84-13.11,20.47-25.53.69-1.73,1.96-2.3,3.68-1.73,1.72.58,2.42,1.61,1.96,2.88-6.67,15.64-15.3,23.69-26.11,31.05v62.79c0,6.79-3.45,9.55-7.82,9.55-8.63,0-18.06-18.63-18.06-34.16,0-11.5,3.91-24.04,19.78-40.37l.35-.35v-26.68c-6.33,19.44-14.38,29.67-24.84,29.67-8.86,0-17.6-11.39-17.83-28.41-.23-19.44,11.16-32.55,24.84-32.55,6.67,0,11.85,1.73,17.83,5.41v-1.73c0-1.84,1.04-2.88,2.88-2.88s2.88,1.04,2.88,2.88Zm-5.75,9.89v-1.73c-7.59-4.72-12.19-6.33-17.83-6.33-10.47,0-19.32,10.81-19.09,27.03.23,13.8,6.09,22.89,12.08,22.89,10.12,0,17.71-13.34,24.84-41.86Zm0,109.72v-57.04c-11.16,12.77-14.38,23.23-14.38,32.43,0,13,6.44,28.64,12.31,28.64,1.15,0,2.07-1.15,2.07-4.02Z"></path><path class="cls-2" d="m974.26,236.95c1.73.58,2.42,1.61,1.96,2.88-4.94,12.54-10,22.54-15.18,27.72-3.1,3.11-5.98,3.8-9.32,3.8-8.51,0-10.46-5.29-10.46-17.37v-19.67c-2.07,6.9-4.83,13-8.17,18.98-4.83,8.05-12.54,18.06-23.81,18.06-5.87,0-10.47-2.88-10.47-10.93v-31.17l-2.76,9.89c-.69,1.73-1.96,2.3-3.68,1.73-1.72-.57-2.42-1.61-1.84-2.88,3.79-10.12,8.28-21.51,8.28-23.92v-.23c0-1.61,1.04-2.53,2.53-2.65h.34c1.84,0,2.88,1.04,2.88,2.88v46.35c0,3.91,2.07,5.4,4.72,5.4,7.36,0,13.69-6.56,18.06-13.92,6.9-10.93,11.85-22.89,13.92-38.53,0-1.38,1.04-2.19,2.88-2.19h.23c1.73.12,2.65,1.15,2.65,2.88v39.91c0,8.17.8,11.85,4.71,11.85,1.73,0,3.45-.46,5.18-2.19,4.49-4.48,8.86-13.11,13.69-24.96.69-1.73,1.96-2.3,3.68-1.73Z"></path><path class="cls-2" d="m976.79,243.05c.34,15.99,8.4,22.77,17.83,22.77,8.28,0,20.01-5.17,28.41-27.14.69-1.73,1.96-2.3,3.68-1.73,1.73.58,2.42,1.61,1.96,2.88-9.89,26.34-23.81,31.51-34.04,31.51-12.88,0-23.58-8.74-23.58-29.33,0-18.52,9.54-31.63,24.61-31.63,8.05,0,15.87,5.06,15.87,15.87,0,12.19-8.51,16.79-29.44,16.79h-5.29Zm.23-5.52h5.06c16.91,0,23.69-2.42,23.69-11.27,0-6.79-5.06-10.35-10.12-10.35-10.47,0-17.37,8.74-18.63,21.62Zm1.84-56.47c0-1.84,1.04-2.88,2.88-2.88h1.61c1.84,0,2.88,1.03,2.88,2.88v4.26c0,1.84-1.04,2.88-2.88,2.88h-1.61c-1.84,0-2.88-1.04-2.88-2.88v-4.26Zm21.85,0c0-1.84,1.04-2.88,2.88-2.88h1.61c1.84,0,2.88,1.03,2.88,2.88v4.26c0,1.84-1.04,2.88-2.88,2.88h-1.61c-1.84,0-2.88-1.04-2.88-2.88v-4.26Z"></path><path class="cls-2" d="m1112.26,142.19v111.79c0,8.17.8,11.85,4.71,11.85,1.73,0,3.45-.46,5.18-2.19,4.49-4.48,8.86-13.11,13.69-24.96.69-1.73,1.96-2.3,3.68-1.73,1.73.58,2.42,1.61,1.96,2.88-4.95,12.54-10,22.54-15.18,27.72-3.1,3.11-5.98,3.8-9.32,3.8-8.51,0-10.46-5.29-10.46-17.37v-12.31c-6.33,19.44-14.38,29.67-24.84,29.67-8.86,0-17.6-11.39-17.83-28.41-.23-19.44,11.16-32.55,24.84-32.55,6.67,0,11.85,1.73,17.83,5.41v-73.6c0-1.84,1.04-2.88,2.88-2.88s2.88,1.04,2.88,2.88Zm-5.75,81.77v-1.73c-7.59-4.72-12.19-6.33-17.83-6.33-10.47,0-19.32,10.81-19.09,27.03.23,13.8,6.09,22.89,12.08,22.89,10.12,0,17.71-13.34,24.84-41.86Z"></path><path class="cls-2" d="m1158.49,142.19c-.46,8.63-2.99,17.94-10.7,30.02-1.04,1.61-2.42,1.96-4.02.92-1.61-.92-1.84-2.3-.81-4.02,7.02-10.81,9.32-19.21,9.78-27.03.12-1.84,1.15-2.76,2.99-2.76s2.88,1.04,2.76,2.88Z"></path><path class="cls-2" d="m1259.12,236.95c1.73.58,2.42,1.61,1.96,2.88-4.94,12.54-10,22.54-15.18,27.72-3.1,3.11-5.98,3.8-9.32,3.8-8.51,0-10.46-5.29-10.46-17.37v-19.67c-2.07,6.9-4.83,13-8.17,18.98-4.83,8.05-12.54,18.06-23.81,18.06-5.87,0-10.47-2.88-10.47-10.93v-31.17l-2.76,9.89c-.69,1.73-1.96,2.3-3.68,1.73-1.72-.57-2.42-1.61-1.84-2.88,3.79-10.12,8.28-21.51,8.28-23.92v-.23c0-1.61,1.04-2.53,2.53-2.65h.34c1.84,0,2.88,1.04,2.88,2.88v46.35c0,3.91,2.07,5.4,4.72,5.4,7.36,0,13.69-6.56,18.06-13.92,6.9-10.93,11.85-22.89,13.92-38.53,0-1.38,1.04-2.19,2.88-2.19h.23c1.73.12,2.65,1.15,2.65,2.88v39.91c0,8.17.8,11.85,4.71,11.85,1.73,0,3.45-.46,5.18-2.19,4.49-4.48,8.86-13.11,13.69-24.96.69-1.73,1.96-2.3,3.68-1.73Z"></path><path class="cls-2" d="m1257.62,240.86c-1.72-.57-2.42-1.61-1.84-2.88,3.79-10.12,8.28-21.51,8.28-23.92,0-1.84,1.04-2.88,2.88-2.88s2.88,1.04,2.88,2.88v32.89c2.3-7.59,5.41-14.26,9.09-20.82,5.17-7.82,13-15.76,22.89-15.76,5.87,0,10.47,2.88,10.47,10.93,0,5.75-.34,11.62-.69,17.14-.34,5.29-.57,10.35-.57,15.53,0,8.17.8,11.85,4.71,11.85,1.72,0,3.45-.46,5.17-2.19,4.49-4.48,8.86-13.11,13.69-24.96.69-1.73,1.96-2.3,3.68-1.73s2.42,1.61,1.96,2.88c-4.95,12.54-10.01,22.54-15.18,27.72-3.11,3.11-5.98,3.8-9.32,3.8-8.51,0-10.47-5.29-10.47-17.37,0-5.18.23-10.7.58-15.99v.11c.34-5.52.69-11.04.69-16.79,0-3.91-2.07-5.41-4.72-5.41-7.13,0-13.69,6.79-18.06,13.23-6.67,10.93-11.85,22.89-13.92,38.53,0,1.73-.92,2.76-2.64,2.88h-.23c-1.84,0-2.88-1.04-2.88-2.88v-37.49c-.8,2.99-1.72,5.98-2.76,8.97-.69,1.73-1.96,2.3-3.68,1.73Z"></path><path class="cls-2" d="m1413.68,222.69c-1.61.81-2.76.46-3.91-1.04-2.42-3.22-6.21-5.75-10.7-5.75-11.96,0-18.06,17.48-18.06,29.1,0,8.4,3.91,20.82,14.61,20.82,5.98,0,18.4-3.56,30.13-27.6.8-1.61,2.18-2.07,3.79-1.27s2.19,1.96,1.5,3.22c-6.67,13.46-18.17,31.17-35.42,31.17-14.83,0-20.36-15.64-20.36-26.34,0-13.92,8.17-34.62,23.81-34.62,6.67,0,12.19,3.8,15.64,8.51,1.15,1.5.69,2.99-1.03,3.79Z"></path><path class="cls-2" d="m1474.28,214.06v39.91c0,8.17.8,11.85,4.71,11.85,1.73,0,3.45-.46,5.18-2.19,4.49-4.48,8.86-13.11,13.69-24.96.69-1.73,1.96-2.3,3.68-1.73,1.73.58,2.42,1.61,1.96,2.88-4.95,12.54-10,22.54-15.18,27.72-3.1,3.11-5.98,3.8-9.32,3.8-8.51,0-10.46-5.29-10.46-17.37v-12.31c-6.33,19.44-14.38,29.67-24.84,29.67-8.86,0-17.6-11.39-17.83-28.41-.23-19.44,11.16-32.55,24.84-32.55,6.67,0,11.85,1.73,17.83,5.41v-1.73c0-1.84,1.04-2.88,2.88-2.88s2.88,1.04,2.88,2.88Zm-5.75,9.89v-1.73c-7.59-4.72-12.19-6.33-17.83-6.33-10.47,0-19.32,10.81-19.09,27.03.23,13.8,6.09,22.89,12.08,22.89,10.12,0,17.71-13.34,24.84-41.86Z"></path><path class="cls-2" d="m1504.06,243.05c.34,15.99,8.4,22.77,17.83,22.77,8.28,0,20.01-5.17,28.41-27.14.69-1.73,1.96-2.3,3.68-1.73,1.73.58,2.42,1.61,1.96,2.88-9.89,26.34-23.81,31.51-34.04,31.51-12.88,0-23.58-8.74-23.58-29.33,0-18.52,9.54-31.63,24.61-31.63,8.05,0,15.87,5.06,15.87,15.87,0,12.19-8.51,16.79-29.44,16.79h-5.29Zm.23-5.52h5.06c16.91,0,23.69-2.42,23.69-11.27,0-6.79-5.06-10.35-10.12-10.35-10.47,0-17.37,8.74-18.63,21.62Z"></path><path class="cls-2" d="m1634.36,236.95c1.73.58,2.42,1.61,1.96,2.88-4.94,12.54-10,22.54-15.18,27.72-3.1,3.11-5.98,3.8-9.32,3.8-8.51,0-10.46-5.29-10.46-17.37v-19.67c-2.07,6.9-4.83,13-8.17,18.98-4.83,8.05-12.54,18.06-23.81,18.06-5.87,0-10.47-2.88-10.47-10.93v-31.17l-2.76,9.89c-.69,1.73-1.96,2.3-3.68,1.73-1.72-.57-2.42-1.61-1.84-2.88,3.79-10.12,8.28-21.51,8.28-23.92v-.23c0-1.61,1.04-2.53,2.53-2.65h.34c1.84,0,2.88,1.04,2.88,2.88v46.35c0,3.91,2.07,5.4,4.72,5.4,7.36,0,13.69-6.56,18.06-13.92,6.9-10.93,11.85-22.89,13.92-38.53,0-1.38,1.04-2.19,2.88-2.19h.23c1.73.12,2.65,1.15,2.65,2.88v39.91c0,8.17.8,11.85,4.71,11.85,1.73,0,3.45-.46,5.18-2.19,4.49-4.48,8.86-13.11,13.69-24.96.69-1.73,1.96-2.3,3.68-1.73Z"></path><path class="cls-2" d="m1632.86,240.86c-1.72-.57-2.42-1.61-1.84-2.88l.58-1.84c3.68-10.58,5.98-17.37,7.36-23,0-.23,0-.34.12-.58-2.99-3.79-4.95-7.48-4.95-10.12,0-3.45,1.38-5.18,3.68-5.18,3.57,0,8.05,6.56,7.48,13.8,1.61.57,3.79.69,6.67.46,7.25-.12,14.84.57,14.84,11.16,0,7.82-2.88,14.26-5.17,21.16-1.84,5.52-3.68,10.81-3.68,14.84,0,4.25,1.84,7.13,6.1,7.13,1.72,0,3.45-.46,5.17-2.19,4.49-4.48,8.86-13.11,13.69-24.96.69-1.73,1.96-2.3,3.68-1.73,1.72.58,2.42,1.61,1.96,2.88-4.95,12.54-10.01,22.54-15.18,27.72-3.11,3.11-5.98,3.8-9.32,3.8-8.4,0-11.85-5.18-11.85-12.65,0-5.06,1.96-10.81,3.91-16.68,2.3-6.56,4.95-12.77,4.95-19.32,0-4.95-4.6-5.75-8.86-5.64-2.65.12-5.64-.11-7.94-.8-1.38,5.06-3.68,11.73-7.71,22.89-.69,1.73-1.96,2.3-3.68,1.73Z"></path><path class="cls-2" d="m277.25,510.99v68.54c0,1.84-1.04,2.88-2.88,2.88s-2.88-1.04-2.88-2.88v-97.87c-6.33,19.44-14.38,29.67-24.84,29.67-8.85,0-17.6-11.39-17.83-28.41-.23-19.44,11.16-32.55,24.84-32.55,6.67,0,11.85,1.72,17.83,5.41v-1.73c0-1.84,1.04-2.88,2.88-2.88s2.88,1.04,2.88,2.88v50.03c8.05-5.87,14.84-12.88,20.47-25.42.69-1.72,1.96-2.3,3.68-1.72,1.72.58,2.42,1.61,1.96,2.88-6.33,15.18-14.72,23.23-24.96,30.36l-1.15.8Zm-5.75-47.04v-1.72c-7.59-4.72-12.19-6.33-17.83-6.33-10.47,0-19.32,10.81-19.09,27.03.23,13.8,6.1,22.89,12.08,22.89,10.12,0,17.71-13.34,24.84-41.86Z"></path><path class="cls-2" d="m381.78,476.95c1.73.58,2.42,1.61,1.96,2.88-4.94,12.54-10,22.54-15.18,27.72-3.1,3.11-5.98,3.8-9.32,3.8-8.51,0-10.46-5.29-10.46-17.37v-19.67c-2.07,6.9-4.83,13-8.17,18.98-4.83,8.05-12.54,18.06-23.81,18.06-5.87,0-10.47-2.88-10.47-10.93v-31.17l-2.76,9.89c-.69,1.73-1.96,2.3-3.68,1.73-1.72-.58-2.42-1.61-1.84-2.88,3.79-10.12,8.28-21.51,8.28-23.92v-.23c0-1.61,1.04-2.53,2.53-2.65h.34c1.84,0,2.88,1.04,2.88,2.88v46.35c0,3.91,2.07,5.41,4.72,5.41,7.36,0,13.69-6.56,18.06-13.92,6.9-10.92,11.85-22.89,13.92-38.53,0-1.38,1.04-2.19,2.88-2.19h.23c1.73.12,2.65,1.15,2.65,2.88v39.91c0,8.17.8,11.85,4.71,11.85,1.73,0,3.45-.46,5.18-2.19,4.49-4.48,8.86-13.11,13.69-24.96.69-1.72,1.96-2.3,3.68-1.72Z"></path><path class="cls-2" d="m380.17,480.86c-1.84-.69-2.53-1.73-1.96-2.99,3.68-9.89,8.05-20.93,8.28-23.58v-.23c0-1.84,1.04-2.88,2.88-2.88h.46c1.84,0,2.88,1.04,2.88,2.88v39.91c0,8.05.8,11.62,4.49,11.62,1.72,0,3.33-.34,5.06-2.07,4.37-4.37,8.74-13,13.57-24.96.69-1.73,1.96-2.3,3.68-1.73l.46.12c1.73.69,2.42,1.72,1.96,2.99-4.94,12.42-9.89,22.31-15.3,27.72-3.11,3.11-6.1,3.91-9.43,3.91-8.74,0-10.7-5.41-10.7-17.6v-22.43c-.69,2.64-1.5,5.29-2.3,7.71-.69,1.73-1.96,2.3-3.68,1.73l-.34-.12Zm5.87-67.85c0-1.84,1.03-2.88,2.88-2.88h1.5c1.84,0,2.88,1.04,2.88,2.88v6.33c0,1.84-1.04,2.88-2.88,2.88h-1.5c-1.84,0-2.88-1.04-2.88-2.88v-6.33Z"></path><path class="cls-2" d="m505.29,454.06v39.91c0,8.17.8,11.85,4.71,11.85,1.73,0,3.45-.46,5.18-2.19,4.49-4.48,8.86-13.11,13.69-24.96.69-1.72,1.96-2.3,3.68-1.72,1.73.58,2.42,1.61,1.96,2.88-4.95,12.54-10,22.54-15.18,27.72-3.1,3.11-5.98,3.8-9.32,3.8-8.51,0-10.46-5.29-10.46-17.37v-12.31c-6.33,19.44-14.38,29.67-24.84,29.67-8.86,0-17.6-11.39-17.83-28.41-.23-19.44,11.16-32.55,24.84-32.55,6.67,0,11.85,1.72,17.83,5.41v-1.73c0-1.84,1.04-2.88,2.88-2.88s2.88,1.04,2.88,2.88Zm-5.75,9.89v-1.72c-7.59-4.72-12.19-6.33-17.83-6.33-10.47,0-19.32,10.81-19.09,27.03.23,13.8,6.09,22.89,12.08,22.89,10.12,0,17.71-13.34,24.84-41.86Z"></path><path class="cls-2" d="m612.93,476.95c1.73.58,2.42,1.61,1.96,2.88-4.94,12.54-10,22.54-15.18,27.72-3.1,3.11-5.98,3.8-9.32,3.8-8.51,0-10.46-5.29-10.46-17.37v-19.67c-2.07,6.9-4.83,13-8.17,18.98-4.83,8.05-12.54,18.06-23.81,18.06-5.87,0-10.47-2.88-10.47-10.93v-31.17l-2.76,9.89c-.69,1.73-1.96,2.3-3.68,1.73-1.72-.58-2.42-1.61-1.84-2.88,3.79-10.12,8.28-21.51,8.28-23.92v-.23c0-1.61,1.04-2.53,2.53-2.65h.34c1.84,0,2.88,1.04,2.88,2.88v46.35c0,3.91,2.07,5.41,4.72,5.41,7.36,0,13.69-6.56,18.06-13.92,6.9-10.92,11.85-22.89,13.92-38.53,0-1.38,1.04-2.19,2.88-2.19h.23c1.73.12,2.65,1.15,2.65,2.88v39.91c0,8.17.8,11.85,4.71,11.85,1.73,0,3.45-.46,5.18-2.19,4.49-4.48,8.86-13.11,13.69-24.96.69-1.72,1.96-2.3,3.68-1.72Z"></path><path class="cls-2" d="m651.68,480.86c-1.72-.58-2.42-1.61-1.84-2.88,3.57-10.47,6.33-17.37,8.05-24.84-3.45-3.56-4.95-7.94-4.95-10.7,0-3.45,1.72-5.18,4.14-5.18,2.76,0,7.36,6.21,7.02,13.34,1.72.81,3.91,1.04,6.67.92,7.25-.12,14.61-.46,14.61,10.12s-6.79,24.73-20.01,40.83c3.57-1.15,5.41-1.27,7.36-1.27,5.75,0,10.24,1.61,13.69,4.49,5.98-8.17,11.27-16.91,15.64-27.03.69-1.72,1.96-2.3,3.68-1.72,1.73.58,2.42,1.61,1.96,2.88-4.37,11.04-10.12,20.59-17.48,30.13,3.68,5.63,5.29,13.69,5.29,23.69,0,2.88-.12,6.21-.34,9.43-1.61,16.33-14.72,40.14-27.03,40.14-6.67,0-13.69-1.84-13.69-14.72s4.83-30.02,28.41-58.31c-2.53-2.18-5.98-3.45-10.12-3.45-3.22,0-7.25.8-11.84,2.42-1.61.46-2.88.23-3.8-1.15-1.04-1.27-.92-2.53.23-3.91,14.26-17.02,22.31-32.09,22.31-42.44,0-4.95-4.37-4.71-8.74-4.6-2.76.12-5.63-.11-7.94-.69-1.26,4.95-3.56,11.73-7.59,22.77-.69,1.73-1.96,2.3-3.68,1.73Zm34.62,33.93c-22.31,26.8-26.11,41.52-26.11,53.71,0,8.05,4.03,9.2,7.94,9.2,9.32,0,19.55-20.82,21.28-35.08.23-3.11.35-6.21.35-8.97,0-7.71-1.04-14.15-3.45-18.86Z"></path><path class="cls-2" d="m708.26,483.05c.34,15.99,8.4,22.77,17.83,22.77,8.28,0,20.01-5.17,28.41-27.14.69-1.72,1.96-2.3,3.68-1.72,1.73.58,2.42,1.61,1.96,2.88-9.89,26.34-23.81,31.51-34.04,31.51-12.88,0-23.58-8.74-23.58-29.33,0-18.52,9.54-31.63,24.61-31.63,8.05,0,15.87,5.06,15.87,15.87,0,12.19-8.51,16.79-29.44,16.79h-5.29Zm.23-5.52h5.06c16.91,0,23.69-2.42,23.69-11.27,0-6.79-5.06-10.35-10.12-10.35-10.47,0-17.37,8.74-18.63,21.62Zm4.48-44.74c-.57-1.73,0-2.99,1.73-3.68,8.4-3.45,14.61-8.51,19.32-15.3,1.15-1.61,2.42-1.84,4.02-.92,1.61.92,1.84,2.42.81,3.91-5.52,7.94-12.54,13.69-22.2,17.6-1.72.69-3.11.11-3.68-1.61Z"></path><path class="cls-2" d="m756.68,480.86c-1.72-.58-2.42-1.61-1.84-2.88,3.79-10.12,8.28-21.51,8.28-23.92v-.23c0-1.61,1.04-2.53,2.53-2.65h.34c.35,0,.46,0,.58.12,1.5.23,2.3,1.15,2.3,2.76v33.24c2.3-7.59,5.29-14.38,9.09-21.16,5.17-7.82,13-15.76,22.89-15.76,5.87,0,10.47,2.88,10.47,10.93,0,5.75-.34,11.62-.69,17.14-.34,5.29-.57,10.35-.57,15.53,0,8.17.8,11.85,4.71,11.85,1.72,0,3.45-.46,5.17-2.19,4.49-4.48,8.86-13.11,13.69-24.96.69-1.72,1.96-2.3,3.68-1.72s2.42,1.61,1.96,2.88c-4.95,12.54-10.01,22.54-15.18,27.72-3.11,3.11-5.98,3.8-9.32,3.8-8.51,0-10.47-5.29-10.47-17.37,0-5.17.23-10.7.58-15.99v.11c.34-5.52.69-11.04.69-16.79,0-3.91-2.07-5.41-4.72-5.41-7.13,0-13.69,6.79-18.06,13.23-6.67,10.92-11.39,22.66-13.57,37.95l-.35,2.53v69.92c0,1.84-1.03,2.88-2.88,2.88s-2.88-1.04-2.88-2.88v-109.37c-.8,2.99-1.72,5.98-2.76,8.97-.69,1.73-1.96,2.3-3.68,1.73Z"></path><path class="cls-2" d="m835.8,480.75c-1.72-.58-2.42-1.61-1.84-2.88,2.65-7.13,6.1-20.36,7.82-27.6l.46-1.5v-60.72c0-6.79,3.45-9.55,7.82-9.55,8.63,0,18.06,18.98,18.06,34.5,0,11.39-3.68,23-18.86,38.87l-1.27,1.15v33.81c2.3-7.48,5.29-14.15,9.09-20.7,5.17-7.82,13-15.76,22.89-15.76,5.87,0,10.47,2.88,10.47,10.93,0,5.75-.34,11.62-.69,17.14-.34,5.29-.57,10.35-.57,15.53,0,8.17.8,11.85,4.71,11.85,1.72,0,3.45-.46,5.17-2.19,4.49-4.48,8.86-13.11,13.69-24.96.69-1.72,1.96-2.3,3.68-1.72s2.42,1.61,1.96,2.88c-4.95,12.54-10.01,22.54-15.18,27.72-3.11,3.11-5.98,3.8-9.32,3.8-8.51,0-10.47-5.29-10.47-17.37,0-5.17.23-10.7.58-15.99v.11c.34-5.52.69-11.04.69-16.79,0-3.91-2.07-5.41-4.72-5.41-7.13,0-13.69,6.79-18.06,13.23-6.67,10.92-11.85,22.89-13.92,38.53,0,1.73-.92,2.76-2.64,2.88h-.23c-1.84,0-2.88-1.04-2.88-2.88v-39.33c-.92,4.03-1.84,7.82-2.76,10.7-.58,1.72-1.96,2.3-3.68,1.72Zm12.19-36c11.39-12.77,14.38-22.43,14.38-31.74,0-13-6.44-28.98-12.31-28.98-1.15,0-2.07,1.15-2.07,4.02v56.7Z"></path><path class="cls-2" d="m914.92,480.86c-1.72-.58-2.42-1.61-1.84-2.88,3.79-10.12,8.28-21.51,8.28-23.92,0-1.72.92-2.76,2.53-2.88h.34c1.84,0,2.88,1.04,2.88,2.88v46.35c0,3.91,2.07,5.41,4.72,5.41,7.36,0,13.69-6.56,17.94-13.92,7.13-10.92,11.96-23.12,14.03-38.53,0-1.27.8-2.07,2.42-2.19h.69c1.73.12,2.65,1.04,2.65,2.76v50.26c8.17-5.98,14.84-13.11,20.47-25.53.69-1.72,1.96-2.3,3.68-1.72,1.72.58,2.42,1.61,1.96,2.88-6.67,15.64-15.3,23.69-26.11,31.05v62.79c0,6.79-3.45,9.54-7.82,9.54-8.63,0-18.06-19.21-18.06-35.31,0-11.39,2.42-21.51,19.78-39.22l.35-.34v-33.58c-2.3,7.25-5.29,13.8-9.09,20.01l.12-.11c-5.17,8.74-13.11,16.68-23,16.68-5.87,0-10.47-2.88-10.47-10.93v-31.17l-2.76,9.89c-.69,1.73-1.96,2.3-3.68,1.73Zm48.88,92.81v-57.04c-12.19,13.57-14.38,22.2-14.38,31.28,0,13.57,6.44,29.79,12.31,29.79,1.15,0,2.07-1.15,2.07-4.02Z"></path><path class="cls-2" d="m992.2,480.86c-1.72-.58-2.42-1.61-1.84-2.88l.58-1.84c3.68-10.58,5.98-17.37,7.36-23,0-.23,0-.34.12-.58-2.99-3.79-4.95-7.47-4.95-10.12,0-3.45,1.38-5.18,3.68-5.18,3.57,0,8.05,6.56,7.48,13.8,1.61.57,3.79.69,6.67.46,7.25-.12,14.84.57,14.84,11.16,0,7.82-2.88,14.26-5.17,21.16-1.84,5.52-3.68,10.81-3.68,14.84,0,4.25,1.84,7.13,6.1,7.13,1.72,0,3.45-.46,5.17-2.19,4.49-4.48,8.86-13.11,13.69-24.96.69-1.72,1.96-2.3,3.68-1.72,1.72.58,2.42,1.61,1.96,2.88-4.95,12.54-10.01,22.54-15.18,27.72-3.11,3.11-5.98,3.8-9.32,3.8-8.4,0-11.85-5.18-11.85-12.65,0-5.06,1.96-10.81,3.91-16.68,2.3-6.55,4.95-12.76,4.95-19.32,0-4.95-4.6-5.75-8.86-5.64-2.65.12-5.64-.11-7.94-.8-1.38,5.06-3.68,11.73-7.71,22.89-.69,1.73-1.96,2.3-3.68,1.73Z"></path><path class="cls-2" d="m1084.66,480.86c-1.72-.58-2.42-1.61-1.84-2.88,3.79-10.12,8.28-21.51,8.28-23.92v-.23c0-1.61,1.04-2.53,2.53-2.65h.34c.35,0,.46,0,.58.12,1.5.23,2.3,1.15,2.3,2.76v33.24c2.3-7.59,5.29-14.38,9.09-21.16,5.17-7.82,13-15.76,22.89-15.76,5.87,0,10.47,2.88,10.47,10.93,0,5.75-.34,11.62-.69,17.14-.34,5.29-.57,10.35-.57,15.53,0,8.17.8,11.85,4.71,11.85,1.72,0,3.45-.46,5.17-2.19,4.49-4.48,8.86-13.11,13.69-24.96.69-1.72,1.96-2.3,3.68-1.72s2.42,1.61,1.96,2.88c-4.95,12.54-10.01,22.54-15.18,27.72-3.11,3.11-5.98,3.8-9.32,3.8-8.51,0-10.47-5.29-10.47-17.37,0-5.17.23-10.7.58-15.99v.11c.34-5.52.69-11.04.69-16.79,0-3.91-2.07-5.41-4.72-5.41-7.13,0-13.69,6.79-18.06,13.23-6.67,10.92-11.39,22.66-13.57,37.95l-.35,2.53v69.92c0,1.84-1.03,2.88-2.88,2.88s-2.88-1.04-2.88-2.88v-109.37c-.8,2.99-1.72,5.98-2.76,8.97-.69,1.73-1.96,2.3-3.68,1.73Z"></path><path class="cls-2" d="m1163.78,480.86c-1.72-.58-2.42-1.61-1.84-2.88l.58-1.84c3.68-10.58,5.98-17.37,7.36-23,0-.23,0-.34.12-.58-2.99-3.79-4.95-7.47-4.95-10.12,0-3.45,1.38-5.18,3.68-5.18,3.57,0,8.05,6.56,7.48,13.8,1.61.57,3.79.69,6.67.46,7.25-.12,14.84.57,14.84,11.16,0,7.82-2.88,14.26-5.17,21.16-1.84,5.52-3.68,10.81-3.68,14.84,0,4.25,1.84,7.13,6.1,7.13,1.72,0,3.45-.46,5.17-2.19,4.49-4.48,8.86-13.11,13.69-24.96.69-1.72,1.96-2.3,3.68-1.72,1.72.58,2.42,1.61,1.96,2.88-4.95,12.54-10.01,22.54-15.18,27.72-3.11,3.11-5.98,3.8-9.32,3.8-8.4,0-11.85-5.18-11.85-12.65,0-5.06,1.96-10.81,3.91-16.68,2.3-6.55,4.95-12.76,4.95-19.32,0-4.95-4.6-5.75-8.86-5.64-2.65.12-5.64-.11-7.94-.8-1.38,5.06-3.68,11.73-7.71,22.89-.69,1.73-1.96,2.3-3.68,1.73Z"></path><path class="cls-2" d="m1220.01,483.05c.34,15.99,8.4,22.77,17.83,22.77,8.28,0,20.01-5.17,28.41-27.14.69-1.72,1.96-2.3,3.68-1.72,1.73.58,2.42,1.61,1.96,2.88-9.89,26.34-23.81,31.51-34.04,31.51-12.88,0-23.58-8.74-23.58-29.33,0-18.52,9.54-31.63,24.61-31.63,8.05,0,15.87,5.06,15.87,15.87,0,12.19-8.51,16.79-29.44,16.79h-5.29Zm.23-5.52h5.06c16.91,0,23.69-2.42,23.69-11.27,0-6.79-5.06-10.35-10.12-10.35-10.47,0-17.37,8.74-18.63,21.62Zm4.48-44.74c-.57-1.73,0-2.99,1.73-3.68,8.4-3.45,14.61-8.51,19.32-15.3,1.15-1.61,2.42-1.84,4.02-.92,1.61.92,1.84,2.42.81,3.91-5.52,7.94-12.54,13.69-22.2,17.6-1.72.69-3.11.11-3.68-1.61Z"></path><path class="cls-2" d="m1282.12,452.68v30.48c5.18,3.79,8.97,4.49,12.54,4.49,6.33,0,9.43-2.3,12.42-8.97.69-1.72,1.96-2.3,3.68-1.72,1.73.58,2.42,1.61,1.96,2.88-3.57,9.08-7.71,13.34-18.06,13.34-3.33,0-6.9-.69-10.81-2.88,14.15,27.14,19.67,49.22,19.67,67.39,0,14.72-5.52,25.53-15.99,25.53-8.4,0-11.16-8.28-11.16-20.36v-75.67l-1.04-1.96c-.69-1.38-.69-2.53,0-3.91,0,0,0-.12.12-.12.12-.34.46-.69.92-.92v-14.95l-4.25,13.69c-.69,1.72-1.96,2.3-3.68,1.72-1.72-.58-2.42-1.61-1.84-2.99,2.88-6.9,7.59-21.05,9.78-28.52v-61.18c0-6.79,3.45-9.55,7.82-9.55,8.63,0,18.06,18.98,18.06,34.5,0,11.27-3.79,23.69-20.13,39.68Zm0-7.82c11.39-12.77,14.38-22.54,14.38-31.86,0-13-6.44-28.98-12.31-28.98-1.15,0-2.07,1.15-2.07,4.02v56.81Zm0,52.56v65.44c0,8.86,1.38,14.83,5.41,14.83,6.79,0,10.24-8.51,10.24-20.01,0-15.99-4.95-36.34-15.64-60.26Z"></path><path class="cls-2" d="m1313.28,483.05c.34,15.99,8.4,22.77,17.83,22.77,8.28,0,20.01-5.17,28.41-27.14.69-1.72,1.96-2.3,3.68-1.72,1.73.58,2.42,1.61,1.96,2.88-9.89,26.34-23.81,31.51-34.04,31.51-12.88,0-23.58-8.74-23.58-29.33,0-18.52,9.54-31.63,24.61-31.63,8.05,0,15.87,5.06,15.87,15.87,0,12.19-8.51,16.79-29.44,16.79h-5.29Zm.46-70.15c1.61-.92,2.88-.69,4.03.92,4.71,6.79,11.04,11.85,19.32,15.3,1.72.69,2.3,1.96,1.72,3.68s-1.96,2.3-3.68,1.61c-9.66-3.91-16.79-9.78-22.2-17.6-1.04-1.5-.81-2.99.8-3.91Zm-.23,64.63h5.06c16.91,0,23.69-2.42,23.69-11.27,0-6.79-5.06-10.35-10.12-10.35-10.47,0-17.37,8.74-18.63,21.62Z"></path><path class="cls-2" d="m1361.69,480.86c-1.72-.58-2.42-1.61-1.84-2.88l.58-1.84c3.68-10.58,5.98-17.37,7.36-23,0-.23,0-.34.12-.58-2.99-3.79-4.95-7.47-4.95-10.12,0-3.45,1.38-5.18,3.68-5.18,3.57,0,8.05,6.56,7.48,13.8,1.61.57,3.79.69,6.67.46,7.25-.12,14.84.57,14.84,11.16,0,7.82-2.88,14.26-5.17,21.16-1.84,5.52-3.68,10.81-3.68,14.84,0,4.25,1.84,7.13,6.1,7.13,1.72,0,3.45-.46,5.17-2.19,4.49-4.48,8.86-13.11,13.69-24.96.69-1.72,1.96-2.3,3.68-1.72,1.72.58,2.42,1.61,1.96,2.88-4.95,12.54-10.01,22.54-15.18,27.72-3.11,3.11-5.98,3.8-9.32,3.8-8.4,0-11.85-5.18-11.85-12.65,0-5.06,1.96-10.81,3.91-16.68,2.3-6.55,4.95-12.76,4.95-19.32,0-4.95-4.6-5.75-8.86-5.64-2.65.12-5.64-.11-7.94-.8-1.38,5.06-3.68,11.73-7.71,22.89-.69,1.73-1.96,2.3-3.68,1.73Z"></path><path class="cls-2" d="m1417.93,483.05c.34,15.99,8.4,22.77,17.83,22.77,8.28,0,20.01-5.17,28.41-27.14.69-1.72,1.96-2.3,3.68-1.72,1.73.58,2.42,1.61,1.96,2.88-9.89,26.34-23.81,31.51-34.04,31.51-12.88,0-23.58-8.74-23.58-29.33,0-18.52,9.54-31.63,24.61-31.63,8.05,0,15.87,5.06,15.87,15.87,0,12.19-8.51,16.79-29.44,16.79h-5.29Zm.23-5.52h5.06c16.91,0,23.69-2.42,23.69-11.27,0-6.79-5.06-10.35-10.12-10.35-10.47,0-17.37,8.74-18.63,21.62Z"></path><path class="cls-2" d="m331.18,717.83c1.61.81,2.07,2.19,1.26,3.8l-63.94,125.36c-.69,1.38-1.73,2.07-3.34,2.07h-.69c-1.73,0-2.76-.92-3.11-2.65l-19.44-125.36c-.35-1.84.57-2.99,2.42-3.33l.46-.12c1.84-.23,2.99.69,3.33,2.42l18.4,116.85c20.01-39.56,40.14-78.43,60.38-118,.8-1.61,2.18-2.07,3.79-1.26l.46.23Z"></path><path class="cls-2" d="m352.57,789.83c.69-.69,1.61-1.15,2.99-1.15,5.98,0,7.94,8.28,7.94,19.55,0,4.03-.34,7.59-.92,10.93,1.61,2.42,3.33,3.22,5.29,3.22s3.68-1.26,6.33-5.75c.92-1.61,2.19-1.96,3.91-1.15,1.61.81,2.07,1.96,1.38,3.22-4.25,7.01-7.59,9.2-11.62,9.2-2.64,0-4.83-.46-6.9-1.84-5.29,17.02-18.17,23.58-26.34,23.58-9.09,0-16.45-6.9-16.45-20.24,0-16.68,10.01-40.71,27.6-40.71,2.42,0,4.83.46,6.79,1.15Zm-1.61,5.06c-1.84-.46-3.22-.69-5.18-.69-13.92,0-21.85,20.82-21.85,35.19,0,9.66,4.83,14.72,10.7,14.72,7.02,0,18.29-6.56,21.97-23.69-1.61-3.33-3.11-7.82-4.37-14.26-.92-4.25-1.26-7.47-1.26-9.89v-1.38Z"></path><path class="cls-2" d="m384.08,808.92c-1.5,3.45-2.99,6.67-4.26,9.08-.92,1.61-2.3,1.96-3.91,1.15-1.61-.81-2.18-1.96-1.38-3.22,5.75-10.24,12.31-23,12.88-25.42.23-1.26,1.38-1.72,3.22-1.38,1.84.34,2.65,1.5,2.3,3.33l-7.13,40.25c-.58,3.11-.92,5.64-.92,7.36,0,2.76.8,4.03,3.11,4.03,6.67,0,15.07-11.5,22.54-24.84.58-1.15.8-1.5.8-1.5v.11l.8-1.5c.92-1.61,2.3-1.96,3.91-1.15,1.61.8,2.19,1.96,1.5,3.22l-1.15,2.07c-8.51,15.3-18.63,29.1-28.41,29.1-6.44,0-8.86-3.11-8.86-9.55,0-2.18.46-5.52.92-8.28l4.03-22.89Zm9.78-57.62c.34-1.72,1.38-2.64,3.1-2.64h1.15c1.96,0,2.88,1.15,2.53,3.1l-1.04,5.87c-.34,1.73-1.38,2.65-3.11,2.65h-1.04c-2.07,0-2.99-1.15-2.64-3.11l1.04-5.87Z"></path><path class="cls-2" d="m417.43,840.66c1.5-.92,2.76-.58,4.03.69,1.84,1.72,4.25,2.76,7.36,2.76,7.82,0,18.75-17.14,18.75-34.39,0-11.62-5.29-15.53-9.2-15.53-5.41,0-10.46,4.02-20.59,23.81-.92,1.61-2.3,1.96-3.91,1.15-1.61-.81-2.19-1.96-1.38-3.22,11.04-20.82,18.52-27.26,25.88-27.26,5.06,0,11.85,3.91,13.69,14.61,5.52-10.12,13.57-14.61,18.29-14.61,5.29,0,9.2,1.84,11.96,4.95,1.26,1.5.92,2.99-.69,4.03-1.5.92-2.76.57-4.03-.69-1.72-1.72-4.14-2.76-7.25-2.76-6.09,0-18.86,10-18.86,34.39,0,11.62,5.41,15.53,9.32,15.53,9.32,0,18.29-13.57,27.83-28.75.92-1.61,2.3-1.96,3.91-1.15s2.07,1.96,1.38,3.22c-9.54,15.53-20.01,32.2-33.12,32.2-5.29,0-12.31-4.03-14.03-15.53-4.95,9.43-11.96,15.53-17.94,15.53-5.29,0-9.32-1.84-12.08-4.95-1.26-1.5-.92-2.99.69-4.03Z"></path><path class="cls-2" d="m579.24,789.48c1.84.35,2.65,1.5,2.42,3.34l-7.13,39.91c-.58,3.11-.92,5.64-.92,7.36,0,2.76.81,4.03,3.11,4.03,6.67,0,15.07-11.5,22.54-24.84.58-1.15.81-1.5.81-1.5v.11l.8-1.5c.92-1.61,2.3-1.96,3.91-1.15,1.61.8,2.18,1.96,1.5,3.22l-1.15,2.07c-8.51,15.3-18.63,29.1-28.41,29.1-6.44,0-8.86-3.11-8.86-9.55,0-2.18.46-5.52.92-8.28l2.19-12.54c-9.55,19.9-19.09,30.36-29.56,30.36-7.82,0-14.03-8.05-14.03-21.05,0-23.35,15.99-39.91,30.82-39.91,7.02,0,11.85,1.96,17.25,5.63l.46-2.53c.23-1.84,1.5-2.65,3.22-2.3h.12Zm-5.06,11.96l.23-1.15c-6.56-4.6-10.7-6.09-16.22-6.09-12.08,0-25.07,14.26-25.07,34.39,0,9.54,3.68,15.53,8.28,15.53,10.35,0,20.59-14.03,32.78-42.67Z"></path><path class="cls-2" d="m653.41,800.87c.23-1.15.58-2.3.58-3.57,0-2.3-1.5-3.1-3.45-3.1-7.13,0-15.64,6.79-20.82,13.46-9.2,11.27-14.61,23-19.67,38.99-.46,1.61-1.61,2.53-3.33,2.18-1.84-.34-2.65-1.5-2.42-3.33l6.55-37.26-4.37,9.78c-.92,1.61-2.3,1.96-3.91,1.15-1.61-.81-2.18-1.96-1.38-3.22,5.75-10.24,12.31-23,12.88-25.42.23-1.26,1.38-1.72,3.22-1.38,1.84.34,2.65,1.5,2.3,3.33l-5.41,30.59c2.99-6.79,6.44-12.88,10.92-18.86,6.21-7.71,16.22-15.53,25.42-15.53,5.41,0,9.2,2.42,9.2,8.62,0,1.15-.12,1.96-.23,2.76l-4.03,22.43c2.99-6.56,6.33-12.42,10.7-18.29,6.21-7.71,16.22-15.53,25.42-15.53,5.41,0,9.2,2.42,9.2,8.62,0,1.15-.12,1.96-.23,2.76-.92,5.06-2.42,10.7-3.68,15.99-2.18,8.74-4.25,17.14-4.25,24.04,0,2.76.69,4.03,3.1,4.03,6.67,0,15.07-11.5,24.15-27.72.92-1.61,2.3-1.96,3.91-1.15,1.5.8,1.96,1.96,1.5,3.22-9.66,17.37-19.78,31.17-29.56,31.17-6.44,0-8.85-3.11-8.85-9.55s2.53-17.25,4.48-25.42c1.15-4.37,2.19-9.43,3.11-13.8.23-1.15.58-2.3.58-3.57,0-2.3-1.5-3.1-3.45-3.1-7.13,0-15.64,6.79-20.82,13.46-9.08,11.16-14.49,22.66-19.44,38.3l-.12.58c-.34,1.73-1.5,2.65-3.33,2.3-1.84-.34-2.65-1.5-2.42-3.33l7.94-44.62Z"></path><path class="cls-2" d="m721.83,819.04c-1.61-.92-2.07-1.96-1.26-3.22,3.79-7.02,10.35-21.85,13.34-29.1l.11-.23,10.58-60.61c1.15-5.98,5.06-9.09,9.08-9.09,7.48,0,13.11,13.11,13.11,26.45s-4.26,27.37-26.45,47.15l-1.38,1.27-6.67,38.07c-.34,1.84-.46,3.33-.46,4.6,0,6.67,3.57,9.78,8.4,9.78,7.13,0,18.63-6.79,22.08-24.73-3.57-5.87-5.75-14.15-5.75-23.12,0-4.37.92-7.59,4.6-7.59,5.98,0,7.94,8.28,7.94,19.55,0,3.79-.34,7.25-.8,10.47,1.96,2.99,4.25,4.25,6.9,4.25,3.1,0,5.52-2.18,8.05-6.33.92-1.61,2.19-1.96,3.91-1.15,1.61.81,2.07,1.96,1.38,3.22-3.91,6.44-7.93,9.78-13.34,9.78-2.99,0-5.87-1.27-8.4-3.45-5.18,17.83-18.29,24.61-26.57,24.61s-14.15-4.95-14.15-15.3c0-1.61.11-3.79.46-5.52l3.56-20.24c-1.5,3.57-2.99,6.9-4.37,9.43-1.04,1.61-2.3,1.96-3.91,1.04Zm18.63-36.23c17.25-16.33,20.59-28.06,20.59-39.56,0-10.58-3.1-20.93-7.36-20.93-1.5,0-2.88,1.27-3.33,4.49l-9.89,56.01Z"></path><path class="cls-2" d="m793.14,808.92c-1.5,3.45-2.99,6.67-4.26,9.08-.92,1.61-2.3,1.96-3.91,1.15-1.61-.81-2.18-1.96-1.38-3.22,5.75-10.24,12.31-23,12.88-25.42.23-1.26,1.38-1.72,3.22-1.38,1.84.34,2.65,1.5,2.3,3.33l-7.13,40.25c-.58,3.11-.92,5.64-.92,7.36,0,2.76.8,4.03,3.11,4.03,6.67,0,15.07-11.5,22.54-24.84.58-1.15.8-1.5.8-1.5v.11l.8-1.5c.92-1.61,2.3-1.96,3.91-1.15,1.61.8,2.18,1.96,1.49,3.22l-1.15,2.07c-8.51,15.3-18.63,29.1-28.41,29.1-6.44,0-8.86-3.11-8.86-9.55,0-2.18.46-5.52.92-8.28l4.03-22.89Zm9.78-57.62c.34-1.72,1.38-2.64,3.1-2.64h1.15c1.96,0,2.88,1.15,2.53,3.1l-1.04,5.87c-.34,1.73-1.38,2.65-3.11,2.65h-1.04c-2.07,0-2.99-1.15-2.64-3.11l1.04-5.87Z"></path><path class="cls-2" d="m874.56,792.82l-8.74,49.11c9.54-6.21,17.71-13.57,24.84-25.53.92-1.61,2.3-1.96,3.91-1.15,1.61.8,2.07,1.96,1.38,3.22-5.98,10.24-11.62,16.33-17.83,21.62.23-.23-10.24,6.79-13.57,9.2l-11.16,63.14c-1.26,6.44-5.17,9.08-9.08,9.08-7.71,0-13.11-12.77-13.11-26.11s4.26-28.41,27.95-48.99l.12-.11,4.83-27.49c-9.66,20.13-19.21,30.82-29.79,30.82-7.82,0-14.03-8.05-14.03-21.05,0-23.35,15.99-39.91,30.82-39.91,7.02,0,11.85,1.96,17.25,5.63.11-.8.23-1.61.46-2.53.34-1.84,1.5-2.65,3.33-2.3,1.84.35,2.65,1.5,2.42,3.34Zm-7.25,7.47c-6.56-4.6-10.7-6.09-16.22-6.09-12.08,0-25.07,14.26-25.07,34.39,0,9.54,3.68,15.53,8.28,15.53,10.47,0,20.7-14.03,32.78-42.67l.23-1.15Zm-9.66,54.86c-17.48,16.45-20.7,28.87-20.7,40.25,0,10.58,3.1,20.59,7.36,20.59,1.38,0,2.76-1.49,3.33-4.48,3.22-18.4,6.56-37.38,10.01-56.35Z"></path><path class="cls-2" d="m942.06,813.52c-3.45,7.48-7.48,14.15-12.31,20.59-6.56,7.71-15.76,15.53-25.42,15.53-5.41,0-9.2-2.42-9.2-8.63,0-1.15.11-1.96.23-2.76l5.29-29.9-4.37,9.66c-.92,1.61-2.3,1.96-3.91,1.15-1.61-.81-2.18-1.96-1.38-3.22,5.75-10.24,12.31-23,12.88-25.42.23-1.26,1.38-1.72,3.22-1.38,1.84.34,2.65,1.5,2.3,3.33l-7.94,44.97c-.23,1.15-.58,2.53-.58,3.56,0,2.3,1.5,3.11,3.45,3.11,7.59,0,15.3-6.79,20.82-13.46,9.2-11.27,15.76-23,20.82-38.99l.23-1.15c.23-1.26,1.38-1.72,3.22-1.38s2.65,1.5,2.3,3.33l-7.13,40.25c-.58,3.11-.92,5.64-.92,7.36,0,2.76.8,4.03,3.1,4.03,6.67,0,15.07-11.5,22.54-24.84.58-1.15.81-1.5.81-1.5v.11l.8-1.5c.92-1.61,2.3-1.96,3.91-1.15,1.61.8,2.19,1.96,1.5,3.22l-1.15,2.07c-8.51,15.3-18.63,29.1-28.41,29.1-6.44,0-8.86-3.11-8.86-9.55,0-2.18.46-5.52.92-8.28l3.22-18.29Z"></path><path class="cls-2" d="m976.33,821.34c-.34,2.19-.46,4.37-.46,6.67,0,11.16,5.98,16.1,13.92,16.1,8.4.12,20.24-4.49,33.7-27.72.92-1.61,2.3-1.96,3.91-1.15,1.61.8,2.19,1.96,1.5,3.22-14.61,25.99-28.87,31.28-39.1,31.17-11.16,0-19.67-6.56-19.67-21.62,0-22.43,14.03-39.33,29.56-39.33,8.05,0,14.61,4.37,14.61,13.69,0,13.23-8.97,18.98-28.64,18.98h-9.32Zm1.15-5.52h8.17c15.99,0,22.89-4.26,22.89-13.46,0-5.63-3.79-8.17-8.86-8.17-9.78,0-18.63,8.74-22.2,21.62Zm11.85-56.7c.34-1.72,1.38-2.64,3.1-2.64h1.73c1.96,0,2.88,1.15,2.64,3.1l-.69,4.26c-.35,1.72-1.38,2.64-3.11,2.64h-1.84c-1.96,0-2.88-1.15-2.53-3.1l.69-4.26Zm21.85,0c.34-1.72,1.38-2.64,3.11-2.64h1.72c1.96,0,2.88,1.15,2.65,3.1l-.69,4.26c-.34,1.72-1.38,2.64-3.1,2.64h-1.84c-1.96,0-2.88-1.15-2.53-3.1l.69-4.26Z"></path><path class="cls-2" d="m1129.74,720.94l-19.78,111.79c-.58,3.11-.92,5.64-.92,7.36,0,2.76.81,4.03,3.11,4.03,6.67,0,15.07-11.5,24.15-27.72.92-1.61,2.3-1.96,3.91-1.15,1.61.8,2.18,1.96,1.5,3.22-9.66,17.37-19.78,31.17-29.56,31.17-6.44,0-8.86-3.11-8.86-9.55,0-2.18.46-5.52.92-8.28.69-4.14,1.38-8.28,2.19-12.42-9.66,19.78-19.09,30.25-29.56,30.25-7.82,0-14.03-8.05-14.03-21.05,0-23.35,15.99-39.91,30.82-39.91,7.02,0,11.73,1.84,17.14,5.63,4.49-24.84,8.97-49.91,13.23-74.41.34-1.84,1.5-2.65,3.33-2.3,1.84.34,2.65,1.5,2.42,3.33Zm-20.24,80.85l.23-1.61c-6.44-4.49-10.58-5.98-16.1-5.98-12.08,0-25.07,14.26-25.07,34.39,0,9.54,3.68,15.53,8.28,15.53,10.35,0,20.59-13.92,32.66-42.32Z"></path><path class="cls-2" d="m1173.67,717.6c1.84.34,2.76,1.5,2.3,3.33-2.07,8.62-6.33,17.94-16.22,30.02-1.15,1.5-2.65,1.61-4.03.46s-1.5-2.65-.34-4.14c9.08-11.04,13.11-19.55,14.84-27.37.46-1.84,1.5-2.65,3.33-2.3h.12Z"></path><path class="cls-2" d="m1226.92,813.52c-3.45,7.48-7.48,14.15-12.31,20.59-6.56,7.71-15.76,15.53-25.42,15.53-5.41,0-9.2-2.42-9.2-8.63,0-1.15.11-1.96.23-2.76l5.29-29.9-4.37,9.66c-.92,1.61-2.3,1.96-3.91,1.15-1.61-.81-2.18-1.96-1.38-3.22,5.75-10.24,12.31-23,12.88-25.42.23-1.26,1.38-1.72,3.22-1.38,1.84.34,2.65,1.5,2.3,3.33l-7.94,44.97c-.23,1.15-.58,2.53-.58,3.56,0,2.3,1.5,3.11,3.45,3.11,7.59,0,15.3-6.79,20.82-13.46,9.2-11.27,15.75-23,20.82-38.99l.23-1.15c.23-1.26,1.38-1.72,3.22-1.38s2.65,1.5,2.3,3.33l-7.13,40.25c-.58,3.11-.92,5.64-.92,7.36,0,2.76.8,4.03,3.1,4.03,6.67,0,15.07-11.5,22.54-24.84.57-1.15.8-1.5.8-1.5v.11l.8-1.5c.92-1.61,2.3-1.96,3.91-1.15,1.61.8,2.19,1.96,1.5,3.22l-1.15,2.07c-8.51,15.3-18.63,29.1-28.41,29.1-6.44,0-8.86-3.11-8.86-9.55,0-2.18.46-5.52.92-8.28l3.22-18.29Z"></path><path class="cls-2" d="m1261.87,848.82h-.12c-1.84-.34-2.65-1.5-2.42-3.33l6.44-36.57c-1.5,3.45-2.99,6.67-4.26,9.08-.92,1.61-2.3,1.96-3.91,1.15-1.61-.81-2.18-1.96-1.38-3.22,5.75-10.24,12.31-23,12.88-25.42.23-1.26,1.38-1.72,3.22-1.38,1.84.34,2.65,1.5,2.3,3.33l-5.75,32.55c3.45-7.59,7.59-14.26,12.42-20.82,6.56-7.71,15.76-15.53,25.42-15.53,5.41,0,9.2,2.42,9.2,8.62,0,1.15-.11,1.96-.23,2.76-.92,5.06-2.42,10.7-3.68,15.99-2.18,8.74-4.25,17.14-4.25,24.04,0,2.76.8,4.03,3.11,4.03,6.67,0,15.07-11.5,24.15-27.72.92-1.61,2.3-1.96,3.91-1.15,1.61.8,2.18,1.96,1.5,3.22-9.66,17.37-19.78,31.17-29.56,31.17-6.44,0-8.86-3.11-8.86-9.55s2.42-17.25,4.49-25.42c1.04-4.37,2.18-9.43,3.1-13.8.23-1.15.58-2.3.58-3.57,0-2.3-1.5-3.1-3.45-3.1-7.59,0-15.3,6.79-20.82,13.46-9.2,11.27-15.76,23-20.82,38.99-.34,1.61-1.61,2.53-3.22,2.18Z"></path><path class="cls-2" d="m1416.9,800.98c-1.61.58-2.76,0-3.68-1.5-1.84-2.99-4.94-5.29-9.2-5.29-14.84,0-24.38,21.97-24.38,34.85,0,7.94,4.14,15.07,12.31,15.07,5.98,0,17.94-3.68,34.39-28.18,1.04-1.5,2.42-1.72,3.91-.69s1.84,2.3.92,3.57c-17.83,26.8-32.09,30.82-39.22,30.82-12.54,0-18.06-10.01-18.06-20.59,0-14.95,11.84-40.37,30.13-40.37,6.79,0,11.73,3.79,14.38,8.62.92,1.73.23,3.11-1.5,3.68Z"></path><path class="cls-2" d="m1476.7,789.48c1.84.35,2.65,1.5,2.42,3.34l-7.13,39.91c-.58,3.11-.92,5.64-.92,7.36,0,2.76.81,4.03,3.11,4.03,6.67,0,15.07-11.5,22.54-24.84.58-1.15.81-1.5.81-1.5v.11l.8-1.5c.92-1.61,2.3-1.96,3.91-1.15,1.61.8,2.19,1.96,1.5,3.22l-1.15,2.07c-8.51,15.3-18.63,29.1-28.41,29.1-6.44,0-8.86-3.11-8.86-9.55,0-2.18.46-5.52.92-8.28l2.19-12.54c-9.55,19.9-19.09,30.36-29.56,30.36-7.82,0-14.03-8.05-14.03-21.05,0-23.35,15.99-39.91,30.82-39.91,7.02,0,11.85,1.96,17.25,5.63l.46-2.53c.23-1.84,1.5-2.65,3.22-2.3h.12Zm-5.06,11.96l.23-1.15c-6.56-4.6-10.7-6.09-16.22-6.09-12.08,0-25.07,14.26-25.07,34.39,0,9.54,3.68,15.53,8.28,15.53,10.35,0,20.59-14.03,32.78-42.67Z"></path><path class="cls-2" d="m1503.6,821.34c-.34,2.19-.46,4.37-.46,6.67,0,11.16,5.98,16.1,13.92,16.1,8.39.12,20.24-4.49,33.7-27.72.92-1.61,2.3-1.96,3.91-1.15,1.61.8,2.19,1.96,1.5,3.22-14.61,25.99-28.87,31.28-39.1,31.17-11.16,0-19.67-6.56-19.67-21.62,0-22.43,14.03-39.33,29.56-39.33,8.05,0,14.61,4.37,14.61,13.69,0,13.23-8.97,18.98-28.64,18.98h-9.32Zm1.15-5.52h8.17c15.99,0,22.89-4.26,22.89-13.46,0-5.63-3.79-8.17-8.86-8.17-9.78,0-18.63,8.74-22.2,21.62Z"></path><path class="cls-2" d="m1602.16,813.52c-3.45,7.48-7.48,14.15-12.31,20.59-6.56,7.71-15.76,15.53-25.42,15.53-5.41,0-9.2-2.42-9.2-8.63,0-1.15.11-1.96.23-2.76l5.29-29.9-4.37,9.66c-.92,1.61-2.3,1.96-3.91,1.15-1.61-.81-2.18-1.96-1.38-3.22,5.75-10.24,12.31-23,12.88-25.42.23-1.26,1.38-1.72,3.22-1.38,1.84.34,2.65,1.5,2.3,3.33l-7.94,44.97c-.23,1.15-.58,2.53-.58,3.56,0,2.3,1.5,3.11,3.45,3.11,7.59,0,15.3-6.79,20.82-13.46,9.2-11.27,15.76-23,20.82-38.99l.23-1.15c.23-1.26,1.38-1.72,3.22-1.38s2.65,1.5,2.3,3.33l-7.13,40.25c-.58,3.11-.92,5.64-.92,7.36,0,2.76.8,4.03,3.1,4.03,6.67,0,15.07-11.5,22.54-24.84.58-1.15.81-1.5.81-1.5v.11l.8-1.5c.92-1.61,2.3-1.96,3.91-1.15,1.61.8,2.19,1.96,1.5,3.22l-1.15,2.07c-8.51,15.3-18.63,29.1-28.41,29.1-6.44,0-8.86-3.11-8.86-9.55,0-2.18.46-5.52.92-8.28l3.22-18.29Z"></path><path class="cls-2" d="m1631.48,815.93c6.44-11.5,10.24-18.86,12.42-24.84-2.42-2.88-3.11-6.56-3.11-8.97,0-3.91,2.19-6.44,4.6-6.44,2.76,0,5.75,3.34,5.75,8.97,0,1.38-.23,2.76-.69,4.37,1.04.58,2.42.81,4.03.81,3.11,0,3.8-.12,4.6-.12,5.87,0,11.04,1.04,11.04,8.28,0,8.51-5.17,16.79-9.08,24.73-3.33,6.55-6.44,12.54-6.44,17.02,0,2.64,1.38,4.37,4.6,4.37,6.67,0,15.07-11.5,24.15-27.72.92-1.61,2.3-1.96,3.91-1.15,1.61.8,2.19,1.96,1.5,3.22-9.66,17.37-19.78,31.17-29.56,31.17-7.36,0-10.35-3.8-10.35-9.89,0-5.52,3.45-12.54,7.13-19.55,2.99-5.75,8.4-14.95,8.4-22.2,0-2.42-2.42-2.76-5.29-2.76-.8,0-1.5.11-4.6.11-2.3,0-4.25-.34-5.87-.92-2.3,5.75-6.44,13.34-11.85,23.58-.92,1.61-2.3,1.96-3.91,1.15-1.61-.81-2.18-1.96-1.38-3.22Z"></path><path class="cls-2" d="m271.96,1089.17l-12.19,69.23c-.23,1.84-1.5,2.64-3.22,2.3h-.11c-1.84-.34-2.65-1.5-2.42-3.33l17.37-98.21c-9.55,19.9-19.09,30.48-29.56,30.48-7.82,0-14.03-8.05-14.03-21.05,0-23.35,15.99-39.91,30.82-39.91,7.02,0,11.85,1.96,17.25,5.63l.46-2.53c.23-1.84,1.5-2.65,3.22-2.3h.12c1.84.35,2.65,1.5,2.42,3.34l-8.74,49.11c9.54-6.33,17.83-13.46,24.84-25.53.92-1.61,2.3-1.96,3.91-1.15,1.61.8,2.07,1.96,1.38,3.22-8.97,15.18-18.63,23.23-30.25,30.25-.46.23-.8.34-1.26.46Zm2.64-47.73l.23-1.15c-6.56-4.6-10.7-6.09-16.22-6.09-12.08,0-25.07,14.26-25.07,34.39,0,9.54,3.68,15.53,8.28,15.53,10.35,0,20.59-14.03,32.78-42.67Z"></path><path class="cls-2" d="m349.58,1053.52c-3.45,7.48-7.48,14.15-12.31,20.59-6.56,7.71-15.76,15.53-25.42,15.53-5.41,0-9.2-2.42-9.2-8.63,0-1.15.11-1.96.23-2.76l5.29-29.9-4.37,9.66c-.92,1.61-2.3,1.96-3.91,1.15-1.61-.81-2.18-1.96-1.38-3.22,5.75-10.24,12.31-23,12.88-25.42.23-1.26,1.38-1.72,3.22-1.38,1.84.34,2.65,1.5,2.3,3.33l-7.94,44.97c-.23,1.15-.58,2.53-.58,3.56,0,2.3,1.5,3.11,3.45,3.11,7.59,0,15.3-6.79,20.82-13.46,9.2-11.27,15.76-23,20.82-38.99l.23-1.15c.23-1.26,1.38-1.72,3.22-1.38s2.65,1.5,2.3,3.33l-7.13,40.25c-.58,3.11-.92,5.64-.92,7.36,0,2.76.8,4.03,3.1,4.03,6.67,0,15.07-11.5,22.54-24.84.58-1.15.81-1.5.81-1.5v.11l.8-1.5c.92-1.61,2.3-1.96,3.91-1.15,1.61.8,2.19,1.96,1.5,3.22l-1.15,2.07c-8.51,15.3-18.63,29.1-28.41,29.1-6.44,0-8.86-3.11-8.86-9.55,0-2.18.46-5.52.92-8.28l3.22-18.29Z"></path><path class="cls-2" d="m388.45,1048.92c-1.5,3.45-2.99,6.67-4.26,9.08-.92,1.61-2.3,1.96-3.91,1.15-1.61-.81-2.18-1.96-1.38-3.22,5.75-10.24,12.31-23,12.88-25.42.23-1.26,1.38-1.72,3.22-1.38,1.84.34,2.65,1.5,2.3,3.33l-7.13,40.25c-.58,3.11-.92,5.64-.92,7.36,0,2.76.8,4.03,3.11,4.03,6.67,0,15.07-11.5,22.54-24.84.58-1.15.8-1.5.8-1.5v.11l.8-1.5c.92-1.61,2.3-1.96,3.91-1.15,1.61.8,2.18,1.96,1.49,3.22l-1.15,2.07c-8.51,15.3-18.63,29.1-28.41,29.1-6.44,0-8.86-3.11-8.86-9.55,0-2.18.46-5.52.92-8.28l4.03-22.89Zm9.78-57.62c.34-1.72,1.38-2.64,3.1-2.64h1.15c1.96,0,2.88,1.15,2.53,3.1l-1.04,5.87c-.34,1.73-1.38,2.65-3.11,2.65h-1.04c-2.07,0-2.99-1.15-2.64-3.11l1.04-5.87Z"></path><path class="cls-2" d="m507.71,1029.48c1.84.35,2.65,1.5,2.42,3.34l-7.13,39.91c-.58,3.11-.92,5.64-.92,7.36,0,2.76.81,4.03,3.11,4.03,6.67,0,15.07-11.5,22.54-24.84.58-1.15.81-1.5.81-1.5v.11l.8-1.5c.92-1.61,2.3-1.96,3.91-1.15,1.61.8,2.19,1.96,1.5,3.22l-1.15,2.07c-8.51,15.3-18.63,29.1-28.41,29.1-6.44,0-8.86-3.11-8.86-9.55,0-2.18.46-5.52.92-8.28l2.19-12.54c-9.55,19.9-19.09,30.36-29.56,30.36-7.82,0-14.03-8.05-14.03-21.05,0-23.35,15.99-39.91,30.82-39.91,7.02,0,11.85,1.96,17.25,5.63l.46-2.53c.23-1.84,1.5-2.65,3.22-2.3h.12Zm-5.06,11.96l.23-1.15c-6.56-4.6-10.7-6.09-16.22-6.09-12.08,0-25.07,14.26-25.07,34.39,0,9.54,3.68,15.53,8.28,15.53,10.35,0,20.59-14.03,32.78-42.67Z"></path><path class="cls-2" d="m580.73,1053.52c-3.45,7.48-7.48,14.15-12.31,20.59-6.56,7.71-15.76,15.53-25.42,15.53-5.41,0-9.2-2.42-9.2-8.63,0-1.15.11-1.96.23-2.76l5.29-29.9-4.37,9.66c-.92,1.61-2.3,1.96-3.91,1.15-1.61-.81-2.18-1.96-1.38-3.22,5.75-10.24,12.31-23,12.88-25.42.23-1.26,1.38-1.72,3.22-1.38,1.84.34,2.65,1.5,2.3,3.33l-7.94,44.97c-.23,1.15-.58,2.53-.58,3.56,0,2.3,1.5,3.11,3.45,3.11,7.59,0,15.3-6.79,20.82-13.46,9.2-11.27,15.76-23,20.82-38.99l.23-1.15c.23-1.26,1.38-1.72,3.22-1.38s2.65,1.5,2.3,3.33l-7.13,40.25c-.58,3.11-.92,5.64-.92,7.36,0,2.76.8,4.03,3.1,4.03,6.67,0,15.07-11.5,22.54-24.84.58-1.15.81-1.5.81-1.5v.11l.8-1.5c.92-1.61,2.3-1.96,3.91-1.15,1.61.8,2.19,1.96,1.5,3.22l-1.15,2.07c-8.51,15.3-18.63,29.1-28.41,29.1-6.44,0-8.86-3.11-8.86-9.55,0-2.18.46-5.52.92-8.28l3.22-18.29Z"></path><path class="cls-2" d="m650.3,1055.93c6.21-11.73,10.35-19.44,12.42-24.96-2.42-2.76-3.11-6.44-3.11-8.86,0-3.91,2.65-7.36,4.72-7.36,2.76,0,5.63,4.26,5.63,9.89,0,1.38-.23,2.76-.69,4.37,1.04.58,2.42.81,4.03.81,3.11,0,3.8-.12,4.6-.12,5.87,0,11.04,1.04,11.04,8.28,0,10.01-10.92,26.11-26.68,42.78,2.76-.81,5.06-1.15,6.67-1.15,5.64,0,9.89,1.5,12.77,4.25,7.82-8.39,14.61-16.91,20.82-27.49.92-1.61,2.3-1.96,3.91-1.15,1.61.8,2.18,1.96,1.5,3.22-6.21,11.16-13.8,20.7-22.77,30.13,1.5,3.22,2.19,7.36,2.19,12.19,0,5.87-1.15,13.11-3.22,21.05-4.25,16.1-20.93,39.68-34.85,39.68-4.83,0-10.58-2.07-10.58-10.81,0-1.5.12-2.88.34-4.37,2.3-13.34,9.09-29.21,38.53-58.19-2.07-1.96-4.95-3.11-8.86-3.11-3.22,0-7.25.8-12.31,2.42-1.73.46-2.99.12-3.8-1.26-.8-1.38-.69-2.65.58-3.91,17.83-17.6,30.02-34.27,30.02-44.28,0-2.42-2.42-2.76-5.29-2.76-.8,0-1.5.11-4.6.11-2.3,0-4.25-.34-5.87-.92-2.3,5.75-6.44,13.34-11.85,23.58-.92,1.61-2.3,1.96-3.91,1.15-1.61-.81-2.18-1.96-1.38-3.22Zm30.25,37.38c-27.03,26.68-33.7,41.86-35.77,53.94-.23,1.38-.34,2.76-.34,3.45,0,4.37,2.99,5.29,4.95,5.29,10.7,0,25.19-21.05,29.21-35.54,1.73-6.79,2.99-14.26,2.99-19.67,0-2.88-.34-5.41-1.04-7.48Z"></path><path class="cls-2" d="m707.8,1061.34c-.34,2.19-.46,4.37-.46,6.67,0,11.16,5.98,16.1,13.92,16.1,8.4.12,20.24-4.49,33.7-27.72.92-1.61,2.3-1.96,3.91-1.15,1.61.8,2.19,1.96,1.5,3.22-14.61,25.99-28.87,31.28-39.1,31.17-11.16,0-19.67-6.56-19.67-21.62,0-22.43,14.03-39.33,29.56-39.33,8.05,0,14.61,4.37,14.61,13.69,0,13.23-8.97,18.98-28.64,18.98h-9.32Zm1.15-5.52h8.17c15.99,0,22.89-4.26,22.89-13.46,0-5.63-3.79-8.17-8.86-8.17-9.78,0-18.63,8.74-22.2,21.62Zm12.54-44.74c-.58-1.73,0-2.99,1.84-3.57,9.2-3.57,16.45-8.86,22.54-15.87,1.27-1.38,2.65-1.61,4.14-.46,1.5,1.15,1.61,2.53.46,4.03-6.79,7.71-14.95,13.57-25.3,17.6-1.84.58-3.11,0-3.68-1.72Z"></path><path class="cls-2" d="m745.64,1157.37l19.32-108.45c-1.5,3.45-3.1,6.67-4.37,9.08-.92,1.61-2.3,1.96-3.91,1.15-1.61-.81-2.18-1.96-1.38-3.22,5.75-10.24,12.31-23,12.88-25.42.23-1.26,1.38-1.72,3.22-1.38,1.84.34,2.65,1.5,2.3,3.33l-5.75,32.55c3.45-7.59,7.48-14.26,12.42-20.82,6.56-7.71,15.76-15.53,25.42-15.53,5.41,0,9.2,2.42,9.2,8.62,0,1.15-.11,1.96-.23,2.76-.92,5.06-2.42,10.7-3.68,15.99-2.18,8.74-4.25,17.14-4.25,24.04,0,2.76.8,4.03,3.11,4.03,6.67,0,15.07-11.5,24.15-27.72.92-1.61,2.3-1.96,3.91-1.15,1.61.8,2.18,1.96,1.5,3.22-9.66,17.37-19.78,31.17-29.56,31.17-6.44,0-8.86-3.11-8.86-9.55s2.42-17.25,4.49-25.42c1.04-4.37,2.18-9.43,3.1-13.8.23-1.15.58-2.3.58-3.57,0-2.3-1.5-3.1-3.45-3.1-7.59,0-15.3,6.79-20.82,13.46-9.2,11.27-15.76,23-20.82,38.99h-.12l-12.65,71.76c-.34,1.72-1.5,2.64-3.22,2.3h-.12c-1.84-.34-2.65-1.5-2.42-3.33Z"></path><path class="cls-2" d="m834.42,1055.82l1.04-1.84c3.11-5.29,8.74-18.75,11.73-25.99.12-.46.34-.8.58-1.15l10.81-60.95c1.15-5.98,5.06-9.09,9.08-9.09,7.48,0,13.11,13.11,13.11,26.45s-4.14,27.49-26.45,47.15c-.46.46-.92.69-1.38.81l-5.98,33.93c3.56-7.59,7.59-14.38,12.54-20.93,6.56-7.71,15.76-15.53,25.42-15.53,5.41,0,9.2,2.42,9.2,8.62,0,1.15-.11,1.96-.23,2.76-.92,5.06-2.42,10.7-3.68,15.99-2.18,8.74-4.25,17.14-4.25,24.04,0,2.76.8,4.03,3.11,4.03,6.67,0,15.07-11.5,24.15-27.72.92-1.61,2.3-1.96,3.91-1.15,1.61.8,2.18,1.96,1.5,3.22-9.66,17.37-19.78,31.17-29.56,31.17-6.44,0-8.86-3.11-8.86-9.55s2.42-17.25,4.49-25.42c1.04-4.37,2.18-9.43,3.1-13.8.23-1.15.58-2.3.58-3.57,0-2.3-1.5-3.1-3.45-3.1-7.59,0-15.3,6.79-20.82,13.46-9.2,11.27-15.76,23-20.82,38.99h-.12v.46c-.23,1.38-1.38,2.07-3.22,1.72-1.84-.34-2.65-1.5-2.42-3.33l6.09-34.96c-.8,1.84-1.61,3.45-2.3,4.72-.58,1.04-.8,1.38-.8,1.26l-.81,1.38c-.92,1.61-2.18,1.96-3.91,1.15-1.61-.8-2.18-1.96-1.38-3.22Zm20.01-33.01c17.25-16.33,20.59-28.06,20.59-39.56,0-10.58-3.1-20.93-7.36-20.93-1.5,0-2.88,1.27-3.33,4.49l-9.89,56.01Z"></path><path class="cls-2" d="m924.12,1077.44c-.23,1.15-.58,2.53-.58,3.56,0,2.3,1.5,3.11,3.45,3.11,7.59,0,15.3-6.79,20.82-13.46,9.2-11.27,15.76-23,20.82-38.99v-.12c.34-1.61,1.38-2.3,3.22-2.07h.12c1.84.35,2.65,1.5,2.42,3.34l-8.74,49.11c9.54-6.21,17.94-13.46,24.84-25.53.92-1.61,2.3-1.96,3.91-1.15,1.61.8,2.07,1.96,1.38,3.22-8.4,15.07-18.98,23.35-31.51,31.05l-11.04,62.91c-1.26,6.44-5.17,9.08-9.08,9.08-7.48,0-13-13.11-13-26.91s2.19-25.99,27.83-48.19l5.87-33.01c-3.57,7.47-7.59,14.15-12.42,20.7-6.56,7.71-15.76,15.53-25.42,15.53-5.41,0-9.2-2.42-9.2-8.63,0-1.15.12-1.96.23-2.76l5.41-30.25c-1.5,3.22-2.99,6.67-4.6,10-.92,1.61-2.3,1.96-3.91,1.15-1.61-.81-2.18-1.96-1.38-3.22,5.75-10.24,12.42-23,13-25.42.23-1.26,1.38-1.72,3.22-1.38s2.65,1.5,2.3,3.33l-7.93,44.97Zm33.35,17.71c-18.75,17.48-20.59,27.72-20.59,39.45,0,11.04,2.99,21.39,7.25,21.39,1.38,0,2.76-1.49,3.33-4.48,3.22-18.29,6.56-37.26,10.01-56.35Z"></path><path class="cls-2" d="m990.82,1055.93c6.44-11.5,10.24-18.86,12.42-24.84-2.42-2.88-3.11-6.56-3.11-8.97,0-3.91,2.19-6.44,4.6-6.44,2.76,0,5.75,3.34,5.75,8.97,0,1.38-.23,2.76-.69,4.37,1.04.58,2.42.81,4.03.81,3.11,0,3.79-.12,4.6-.12,5.87,0,11.04,1.04,11.04,8.28,0,8.51-5.17,16.79-9.08,24.73-3.33,6.55-6.44,12.54-6.44,17.02,0,2.64,1.38,4.37,4.6,4.37,6.67,0,15.07-11.5,24.15-27.72.92-1.61,2.3-1.96,3.91-1.15,1.61.8,2.19,1.96,1.5,3.22-9.66,17.37-19.78,31.17-29.56,31.17-7.36,0-10.35-3.8-10.35-9.89,0-5.52,3.45-12.54,7.13-19.55,2.99-5.75,8.4-14.95,8.4-22.2,0-2.42-2.42-2.76-5.29-2.76-.81,0-1.5.11-4.6.11-2.3,0-4.25-.34-5.87-.92-2.3,5.75-6.44,13.34-11.85,23.58-.92,1.61-2.3,1.96-3.91,1.15-1.61-.81-2.18-1.96-1.38-3.22Z"></path><path class="cls-2" d="m1073.62,1157.37l19.32-108.45c-1.5,3.45-3.1,6.67-4.37,9.08-.92,1.61-2.3,1.96-3.91,1.15-1.61-.81-2.18-1.96-1.38-3.22,5.75-10.24,12.31-23,12.88-25.42.23-1.26,1.38-1.72,3.22-1.38,1.84.34,2.65,1.5,2.3,3.33l-5.75,32.55c3.45-7.59,7.48-14.26,12.42-20.82,6.56-7.71,15.76-15.53,25.42-15.53,5.41,0,9.2,2.42,9.2,8.62,0,1.15-.11,1.96-.23,2.76-.92,5.06-2.42,10.7-3.68,15.99-2.18,8.74-4.25,17.14-4.25,24.04,0,2.76.8,4.03,3.11,4.03,6.67,0,15.07-11.5,24.15-27.72.92-1.61,2.3-1.96,3.91-1.15,1.61.8,2.18,1.96,1.5,3.22-9.66,17.37-19.78,31.17-29.56,31.17-6.44,0-8.86-3.11-8.86-9.55s2.42-17.25,4.49-25.42c1.04-4.37,2.18-9.43,3.1-13.8.23-1.15.58-2.3.58-3.57,0-2.3-1.5-3.1-3.45-3.1-7.59,0-15.3,6.79-20.82,13.46-9.2,11.27-15.76,23-20.82,38.99h-.12l-12.65,71.76c-.34,1.72-1.5,2.64-3.22,2.3h-.12c-1.84-.34-2.65-1.5-2.42-3.33Z"></path><path class="cls-2" d="m1162.4,1055.93c6.44-11.5,10.24-18.86,12.42-24.84-2.42-2.88-3.11-6.56-3.11-8.97,0-3.91,2.19-6.44,4.6-6.44,2.76,0,5.75,3.34,5.75,8.97,0,1.38-.23,2.76-.69,4.37,1.04.58,2.42.81,4.03.81,3.11,0,3.79-.12,4.6-.12,5.87,0,11.04,1.04,11.04,8.28,0,8.51-5.17,16.79-9.08,24.73-3.33,6.55-6.44,12.54-6.44,17.02,0,2.64,1.38,4.37,4.6,4.37,6.67,0,15.07-11.5,24.15-27.72.92-1.61,2.3-1.96,3.91-1.15,1.61.8,2.19,1.96,1.5,3.22-9.66,17.37-19.78,31.17-29.56,31.17-7.36,0-10.35-3.8-10.35-9.89,0-5.52,3.45-12.54,7.13-19.55,2.99-5.75,8.4-14.95,8.4-22.2,0-2.42-2.42-2.76-5.29-2.76-.81,0-1.5.11-4.6.11-2.3,0-4.25-.34-5.87-.92-2.3,5.75-6.44,13.34-11.85,23.58-.92,1.61-2.3,1.96-3.91,1.15-1.61-.81-2.18-1.96-1.38-3.22Z"></path><path class="cls-2" d="m1219.55,1061.34c-.34,2.19-.46,4.37-.46,6.67,0,11.16,5.98,16.1,13.92,16.1,8.4.12,20.24-4.49,33.7-27.72.92-1.61,2.3-1.96,3.91-1.15,1.61.8,2.19,1.96,1.5,3.22-14.61,25.99-28.87,31.28-39.1,31.17-11.16,0-19.67-6.56-19.67-21.62,0-22.43,14.03-39.33,29.56-39.33,8.05,0,14.61,4.37,14.61,13.69,0,13.23-8.97,18.98-28.64,18.98h-9.32Zm1.15-5.52h8.17c15.99,0,22.89-4.26,22.89-13.46,0-5.63-3.79-8.17-8.86-8.17-9.78,0-18.63,8.74-22.2,21.62Zm12.54-44.74c-.58-1.73,0-2.99,1.84-3.57,9.2-3.57,16.45-8.86,22.54-15.87,1.27-1.38,2.65-1.61,4.14-.46,1.5,1.15,1.61,2.53.46,4.03-6.79,7.71-14.95,13.57-25.3,17.6-1.84.58-3.11,0-3.68-1.72Z"></path><path class="cls-2" d="m1267.05,1055.82l1.04-1.84c2.88-5.17,9.2-17.37,13.8-26.91l10.81-61.18c1.04-5.98,4.6-9.09,9.08-9.09,7.48,0,13.11,13.11,13.11,26.45s-4.03,27.49-27.95,48.65l-5.18,29.33c4.37,3.79,7.71,4.71,11.16,4.71,6.56,0,10.24-2.42,14.61-9.55.92-1.61,2.3-1.96,3.91-1.15,1.61.8,2.18,1.96,1.5,3.22-4.95,8.97-9.89,13-20.01,13-4.25,0-7.59-1.15-11.5-4.03l.12.12c6.44,19.44,10,36.11,10,50.49,0,22.54-6.9,43.47-21.62,43.47-6.44,0-8.97-4.49-8.97-11.96,0-2.65.34-5.87.92-8.86l13.34-75.9-.46-1.5c-.57-1.61-.46-2.76.58-4.02l.12-.12c.12-.12.46-.46.92-.58l2.42-13.8c-2.07,4.49-4.25,9.09-6.44,13.11-.92,1.61-2.18,1.96-3.91,1.15-1.61-.8-2.18-1.96-1.38-3.22Zm11.96,20.82l-11.39,64.98c-.58,3.1-.92,5.87-.92,7.94,0,4.02.92,6.44,3.22,6.44,10.81,0,15.87-18.17,15.87-37.95,0-12.08-2.19-25.65-6.79-41.4Zm9.54-53.82c17.14-16.33,20.59-28.18,20.59-39.56,0-10.58-3.1-20.93-7.36-20.93-1.5,0-2.76,1.27-3.33,4.49l-9.89,56.01Z"></path><path class="cls-2" d="m1312.82,1061.34c-.34,2.19-.46,4.37-.46,6.67,0,11.16,5.98,16.1,13.92,16.1,8.4.12,20.24-4.49,33.7-27.72.92-1.61,2.3-1.96,3.91-1.15,1.61.8,2.19,1.96,1.5,3.22-14.61,25.99-28.87,31.28-39.1,31.17-11.16,0-19.67-6.56-19.67-21.62,0-22.43,14.03-39.33,29.56-39.33,8.05,0,14.61,4.37,14.61,13.69,0,13.23-8.97,18.98-28.64,18.98h-9.32Zm1.15-5.52h8.17c15.99,0,22.89-4.26,22.89-13.46,0-5.63-3.79-8.17-8.86-8.17-9.78,0-18.63,8.74-22.2,21.62Zm15.64-63.25c3.45,6.55,8.62,11.5,16.1,14.83,1.72.81,2.3,2.07,1.61,3.68-.69,1.61-1.96,2.18-3.68,1.5-9.08-4.03-15.18-9.89-19.32-17.6-.92-1.73-.35-3.11,1.5-3.8,1.61-.8,2.88-.23,3.79,1.38Z"></path><path class="cls-2" d="m1360.31,1055.93c6.44-11.5,10.24-18.86,12.42-24.84-2.42-2.88-3.11-6.56-3.11-8.97,0-3.91,2.19-6.44,4.6-6.44,2.76,0,5.75,3.34,5.75,8.97,0,1.38-.23,2.76-.69,4.37,1.04.58,2.42.81,4.03.81,3.11,0,3.8-.12,4.6-.12,5.87,0,11.04,1.04,11.04,8.28,0,8.51-5.17,16.79-9.08,24.73-3.33,6.55-6.44,12.54-6.44,17.02,0,2.64,1.38,4.37,4.6,4.37,6.67,0,15.07-11.5,24.15-27.72.92-1.61,2.3-1.96,3.91-1.15,1.61.8,2.19,1.96,1.5,3.22-9.66,17.37-19.78,31.17-29.56,31.17-7.36,0-10.35-3.8-10.35-9.89,0-5.52,3.45-12.54,7.13-19.55,2.99-5.75,8.4-14.95,8.4-22.2,0-2.42-2.42-2.76-5.29-2.76-.8,0-1.5.11-4.6.11-2.3,0-4.25-.34-5.87-.92-2.3,5.75-6.44,13.34-11.85,23.58-.92,1.61-2.3,1.96-3.91,1.15-1.61-.81-2.18-1.96-1.38-3.22Z"></path><path class="cls-2" d="m1417.47,1061.34c-.34,2.19-.46,4.37-.46,6.67,0,11.16,5.98,16.1,13.92,16.1,8.39.12,20.24-4.49,33.7-27.72.92-1.61,2.3-1.96,3.91-1.15,1.61.8,2.19,1.96,1.5,3.22-14.61,25.99-28.87,31.28-39.1,31.17-11.16,0-19.67-6.56-19.67-21.62,0-22.43,14.03-39.33,29.56-39.33,8.05,0,14.61,4.37,14.61,13.69,0,13.23-8.97,18.98-28.64,18.98h-9.32Zm1.15-5.52h8.17c15.99,0,22.89-4.26,22.89-13.46,0-5.63-3.79-8.17-8.86-8.17-9.78,0-18.63,8.74-22.2,21.62Z"></path></g></svg> 