<?xml version="1.0" encoding="UTF-8"?> <svg xmlns="http://www.w3.org/2000/svg" id="Layer_1" viewBox="0 0 450 335"><defs><style>.cls-1{fill:#fff;}.cls-2{fill:#ececec;}.cls-3{fill:#bca5cf;}.cls-4{fill:#111035;}</style></defs><rect class="cls-1" width="450" height="335"></rect><rect class="cls-2" y="199.03" width="450" height="116.65"></rect><rect class="cls-2" y="14.37" width="450" height="121.27"></rect><rect class="cls-3" x="176.18" y="14.37" width="18.64" height="301.31"></rect><path class="cls-4" d="m113.7,15.84v156.7c0,16.11-12.08,26.11-29.04,26.11-14.64,0-32.95-9.03-50.77-32.34-.37-.49-.61-1.1-.61-1.83,0-1.83,1.46-3.17,3.17-3.17,1.1,0,1.95.49,2.56,1.22,13.06,17.21,30.63,27.21,43.57,27.21,10.13,0,17.45-6.22,17.45-20.14V15.84h13.67Zm-72.49-1.47h70.66c1.1,0,1.83.73,1.83,1.83v5.13c0,1.1-.73,1.83-1.83,1.83H41.21c-1.1,0-1.83-.73-1.83-1.83v-5.13c0-1.1.73-1.83,1.83-1.83Zm125.58,119.6c5.25,0,9.4,2.93,9.4,10.86v132.65h-13.67v-124.72c0-3.54.12-7.69-2.32-7.69-13.79,0-46.62,50.77-65.29,50.77l8.91-13.55c7.81,0,45.89-48.33,62.97-48.33Zm3.66,80.54c-11.96,16.23-31.36,53.7-31.36,77.62,0,12.69,5.49,17.21,10.86,17.21,7.69,0,12.57-8.91,12.57-30.63v-3.17h13.67v3.17c0,25.5-14.89,36.98-26.24,36.98-8.91,0-17.21-7.08-17.21-23.67,0-25.99,20.5-62.73,32.58-81.16,13.55-20.62,35.51-46.98,55.4-65.78l-2.07,9.4c-16.23,17.21-23.19,25.99-48.2,60.04Zm-10.13-99.83c0-4.27,3.54-7.81,8.05-7.81,4.27,0,7.81,3.54,7.81,7.81,0,4.52-3.54,8.05-7.81,8.05-4.51,0-8.05-3.54-8.05-8.05Zm51.69,52.33c0-20.8,14.45-31.38,33.62-31.38s33,10.71,33,30.01c0,23.04-19.18,33.38-34.99,33.38s-31.63-10.21-31.63-32.01Zm55.04-1c0-15.32-8.72-22.91-21.54-22.91s-21.92,7.47-21.92,24.04,10.21,24.41,20.67,24.41,22.79-7.22,22.79-25.53Zm-8.37-6.67c-13.18,0-24.41-4.39-24.41-15.74,0-.61,0-1.34.12-2.08l14.52-1.22c-4.64,2.32-6.47,4.39-6.47,6.1,0,3.9,8.79,6.59,17.45,6.59,18.3,0,42.59-7.57,63.22-11.47l1.71,6.1c-25.99,5.13-40.15,11.72-66.14,11.72Zm43.66,13.65c0-21.44,17.48-37.06,45.36-37.06,4.96,0,8.18.5,10.66,1.12l-8.3,4.96c-1.61-.12-3.22-.25-4.83-.25-21.69,0-31.36,16.73-31.36,30.49,0,9.42,4.59,18.1,15.99,18.1,6.32,0,11.53-2.6,16.11-7.68l1.36,10.16c-8.55,4.34-15,6.2-21.07,6.2-15.86,0-23.92-11.53-23.92-26.03Zm42.62,13.44v-115.93h13.42c.08,36.73.16,73.47.24,110.2-4.56,1.91-9.11,3.82-13.67,5.74Zm0,0v-29.66h13.67v23.92c0,3.66,0,6.71,4.15,6.71,5.61,0,11.11-5.49,12.2-6.59,7.08-6.22,30.88-35.15,36.98-42.47,2.2-2.81,6.35.61,4.15,3.54-10.98,14.89-34.41,44.42-48.57,52.6-5.74,3.3-10.01,3.3-10.98,3.3-8.3,0-11.59-5.74-11.59-11.35Z"></path></svg> 