<?xml version="1.0" encoding="UTF-8"?><svg id="words" xmlns="http://www.w3.org/2000/svg" xmlns:xlink="http://www.w3.org/1999/xlink" viewBox="0 0 1920 5185"><defs><style>.cls-1,.cls-2,.cls-3,.cls-4,.cls-5,.cls-6{fill:none;}.cls-2{stroke-width:1.53px;}.cls-2,.cls-3,.cls-4,.cls-5,.cls-6{stroke-miterlimit:10;}.cls-2,.cls-4{stroke:#fff;}.cls-7{clip-path:url(#clippath);}.cls-8{fill:#ebebeb;}.cls-9{fill:#fff;}.cls-10{fill:#937fbb;}.cls-11{fill:#171c32;}.cls-12{fill:#947fbb;}.cls-3{stroke-dasharray:0 0 1.28 12.76;stroke-width:5.12px;}.cls-3,.cls-5{stroke:#a797c9;stroke-linecap:round;}.cls-13{clip-path:url(#clippath-1);}.cls-14{clip-path:url(#clippath-4);}.cls-15{clip-path:url(#clippath-3);}.cls-16{clip-path:url(#clippath-2);}.cls-4{stroke-width:1.44px;}.cls-5{stroke-dasharray:0 0 1.74 17.45;stroke-width:7px;}.cls-6{stroke:#57678b;stroke-width:3.5px;}</style><clipPath id="clippath"><circle class="cls-1" cx="1464.63" cy="1632.38" r="42.05"/></clipPath><clipPath id="clippath-1"><circle class="cls-1" cx="917.72" cy="1557.39" r="40.35"/></clipPath><clipPath id="clippath-2"><circle class="cls-1" cx="1251.09" cy="2437.8" r="75.51"/></clipPath><clipPath id="clippath-3"><circle class="cls-1" cx="1182.76" cy="2871.52" r="99.95"/></clipPath><clipPath id="clippath-4"><circle class="cls-1" cx="624.03" cy="3350.77" r="118.88"/></clipPath></defs><rect class="cls-11" x="0" y=".51" width="1920" height="5183.97"/><line class="cls-6" y1="4305.63" x2="1920" y2="4305.63"/><line class="cls-6" y1="4524.59" x2="1920" y2="4524.59"/><line class="cls-6" x1="1920" y1="4711.47" y2="4711.47"/><line class="cls-6" y1="4933.47" x2="1920" y2="4933.47"/><line class="cls-6" y1="3277.32" x2="1920" y2="3277.32"/><line class="cls-6" y1="3496.28" x2="1920" y2="3496.28"/><line class="cls-6" x1="1920" y1="3683.16" y2="3683.16"/><line class="cls-6" y1="3905.16" x2="1920" y2="3905.16"/><line class="cls-6" y1="2299.49" x2="1920" y2="2299.49"/><line class="cls-6" y1="2520.44" x2="1920" y2="2520.44"/><line class="cls-6" x1="1920" y1="2705.32" y2="2705.32"/><line class="cls-6" y1="2927.32" x2="1920" y2="2927.32"/><line class="cls-6" y1="1317.86" x2="1920" y2="1317.86"/><line class="cls-6" y1="1537.82" x2="1920" y2="1537.82"/><line class="cls-6" x1="1920" y1="1723.7" y2="1723.7"/><line class="cls-6" y1="1945.7" x2="1920" y2="1945.7"/><line class="cls-6" y1="340.02" x2="1920" y2="340.02"/><line class="cls-6" y1="558.98" x2="1920" y2="558.98"/><line class="cls-6" x1="1920" y1="745.86" y2="745.86"/><line class="cls-6" y1="967.86" x2="1920" y2="967.86"/><rect class="cls-12" x="568.18" y="2300.79" width="59.92" height="627.84"/><circle class="cls-12" cx="917.72" cy="1557.39" r="40.35"/><circle class="cls-10" cx="1464.63" cy="1632.38" r="42.05"/><path class="cls-9" d="m530.83,2248.74v-19.95h2.94v19.95c0,9.41,4.07,10.63,8.86,10.63s8.78-1.01,8.78-10.63v-19.95h2.94v19.62c0,11.64-5.33,13.69-11.76,13.69s-11.76-2.06-11.76-13.36Z"/><path class="cls-9" d="m562.12,2240.55h2.39l.34,3.86h.08c1.13-2.48,4.03-4.41,7.86-4.41,6.3,0,9.66,3.99,9.66,11.01s-4.29,11.09-9.87,11.09c-3.78,0-6.38-1.6-7.44-3.7h-.08v11.55h-2.94v-29.41Zm17.18,10.63c0-7.18-3.4-8.61-6.93-8.61-4.24,0-7.56,2.73-7.56,8.44,0,6.01,3.45,8.57,7.44,8.57,3.02,0,7.06-1.47,7.06-8.4Z"/><path class="cls-9" d="m588.33,2240.55h2.6l.29,3.91c1.01-2.14,3.07-4.45,6.76-4.45,1.26,0,2.18.21,3.02.55v3.15c-1.13-.5-2.1-.76-3.4-.76-3.74,0-6.34,2.81-6.34,5.75v12.85h-2.94v-21Z"/><path class="cls-9" d="m605.63,2228.79h2.98v6.51h-2.98v-6.51Zm0,11.76h2.94v21h-2.94v-21Z"/><path class="cls-9" d="m615.33,2263.36v-.13h3.11v.13c0,2.9,1.93,4.33,6.13,4.33,4.79,0,7.02-2.94,7.02-7.86v-2.1h-.08c-1.09,2.18-3.65,4.08-7.48,4.08-6.3,0-9.74-3.99-9.74-10.71,0-7.1,4.37-11.09,9.96-11.09,3.78,0,6.55,1.81,7.56,4.12h.13l.29-3.57h2.31v19.16c0,5.88-2.81,10.71-10.33,10.71-6.3,0-8.86-2.98-8.86-7.06Zm16.59-12.77c0-5.5-3.36-8.07-7.35-8.07-3.03,0-7.14,1.47-7.14,8.4s3.57,8.32,7.1,8.32c4.24,0,7.39-2.73,7.39-8.65Z"/><path class="cls-9" d="m641.88,2228.79h2.94v15.16c1.05-2.1,3.28-3.95,7.31-3.95,4.75,0,7.77,2.52,7.77,7.94v13.61h-2.94v-13.27c0-4.33-2.14-5.71-5.5-5.71-3.82,0-6.64,2.69-6.64,5.63v13.36h-2.94v-32.77Z"/><path class="cls-9" d="m678.21,2258.86v2.6c-.76.21-2.14.59-4.03.59-3.82,0-6.34-1.6-6.34-6.89v-12.18h-4.16v-2.44h4.16v-6.05l2.94-1.43v7.48h5.92v2.44h-5.92v11.8c0,2.81.76,4.58,3.4,4.58,1.6,0,3.23-.29,4.03-.5Z"/><path class="cls-9" d="m166.6,5046.94c0-11.72,6.76-16.93,15.46-16.93,7.94,0,14.7,5.21,14.7,16.59,0,12.48-6.76,17.27-15.08,17.27s-15.08-4.79-15.08-16.93Zm27.05,0c0-10.12-5.33-14.24-12.01-14.24s-11.93,4.12-11.93,14.24,5.33,14.2,12.01,14.2,11.93-3.74,11.93-14.2Z"/><path class="cls-9" d="m203.05,5042.31h2.6l.29,3.91c1.01-2.14,3.07-4.45,6.76-4.45,1.26,0,2.18.21,3.02.54v3.15c-1.13-.5-2.1-.76-3.4-.76-3.74,0-6.34,2.81-6.34,5.76v12.85h-2.94v-21Z"/><path class="cls-9" d="m220.36,5042.31h2.6l.29,3.49c1.01-2.14,3.28-4.03,7.35-4.03,4.75,0,7.77,2.52,7.77,7.94v13.61h-2.94v-13.27c0-4.33-2.14-5.71-5.5-5.71-3.82,0-6.64,2.69-6.64,5.63v13.36h-2.94v-21Z"/><path class="cls-9" d="m244.47,5057.52c0-3.95,2.23-6.09,7.86-6.09h6.34v-1.72c0-2.98-1.26-5.42-5.46-5.42-3.95,0-5.33,1.51-5.33,4.12v.88h-2.98v-.84c0-5,4.2-6.68,8.32-6.68,5.8,0,8.4,2.86,8.4,8.44v13.11h-2.06l-.55-2.98h-.08c-1.26,1.89-3.7,3.53-7.35,3.53-4.92,0-7.1-2.31-7.1-6.34Zm14.2-1.85v-1.77h-7.01c-2.65,0-4.03.93-4.03,3.61,0,2.35,1.26,3.87,4.5,3.87,4.16,0,6.55-2.14,6.55-5.71Z"/><path class="cls-9" d="m279.71,5060.63v2.6c-.76.21-2.14.59-4.03.59-3.82,0-6.34-1.6-6.34-6.89v-12.18h-4.16v-2.44h4.16v-6.05l2.94-1.43v7.48h5.92v2.44h-5.92v11.8c0,2.82.76,4.58,3.4,4.58,1.6,0,3.23-.29,4.03-.5Z"/><path class="cls-9" d="m301.17,5053.82h-15.96c.17,4.79,2.48,7.48,6.93,7.48,3.82,0,5.67-1.43,5.97-4.83h2.98c-.29,4.24-3.28,7.39-9.03,7.39-7.06,0-9.83-4.66-9.83-10.88s3.23-11.21,10-11.21,8.95,3.99,8.95,10.21v1.85Zm-3.11-2.98c0-4.45-1.72-6.55-5.92-6.55s-6.55,2.65-6.89,6.97h12.81v-.42Z"/><path class="cls-9" d="m305.79,5057.1h3.36v6.22c0,3.95-.88,5.29-3.4,5.96l-.67-1.85c1.76-.67,2.06-1.09,2.06-3.78v-.34h-1.34v-6.22Z"/><path class="cls-9" d="m323.43,5052.98c0-6.38,3.23-11.21,10-11.21s8.95,3.91,8.95,8.95v.42h-3.11v-.63c0-3.82-1.64-6.09-5.84-6.09-4.75,0-7.02,3.11-7.02,8.4,0,5.63,2.39,8.49,6.93,8.49,3.82,0,5.84-1.85,5.92-5.67h3.02c-.08,4.66-3.15,8.23-9.03,8.23-7.22,0-9.83-4.75-9.83-10.88Z"/><path class="cls-9" d="m347.83,5055.93v-13.61h2.94v13.28c0,4.33,2.14,5.71,5.42,5.71,3.74,0,6.55-2.69,6.55-5.63v-13.36h2.94v21h-2.6l-.25-3.36h-.08c-.97,2.02-3.23,3.91-7.23,3.91-4.66,0-7.69-2.52-7.69-7.94Z"/><path class="cls-9" d="m373.03,5042.31h2.6l.29,3.91c1.01-2.14,3.07-4.45,6.76-4.45,1.26,0,2.18.21,3.02.54v3.15c-1.13-.5-2.1-.76-3.4-.76-3.74,0-6.34,2.81-6.34,5.76v12.85h-2.94v-21Z"/><path class="cls-9" d="m388.23,5056.89v-1.18h2.94v1.13c0,2.86,2.14,4.49,5.96,4.49s5.8-1.01,5.8-3.78c0-2.06-1.01-2.81-3.86-3.32l-4.62-.84c-3.02-.54-5.54-2.02-5.54-5.5,0-3.15,2.35-6.13,8.4-6.13s8.4,3.02,8.4,7.22v.88h-2.98v-.76c0-3.45-2.14-4.92-5.42-4.92-3.95,0-5.33,1.34-5.33,3.36s1.01,2.86,3.91,3.4l4.03.76c4.12.76,6.09,1.93,6.09,5.59,0,4.58-4.12,6.55-8.78,6.55-7.31,0-8.99-3.28-8.99-6.97Z"/><path class="cls-9" d="m411.88,5030.55h2.98v6.51h-2.98v-6.51Zm0,11.76h2.94v21h-2.94v-21Z"/><path class="cls-9" d="m419.06,5042.36v-.04h3.36l7.35,17.98h.08l7.1-17.98h3.07v.04l-8.74,20.96h-3.02l-9.2-20.96Z"/><path class="cls-9" d="m460.85,5053.82h-15.96c.17,4.79,2.48,7.48,6.93,7.48,3.82,0,5.67-1.43,5.97-4.83h2.98c-.29,4.24-3.28,7.39-9.03,7.39-7.06,0-9.83-4.66-9.83-10.88s3.23-11.21,10-11.21,8.95,3.99,8.95,10.21v1.85Zm-3.11-2.98c0-4.45-1.72-6.55-5.92-6.55s-6.55,2.65-6.89,6.97h12.81v-.42Z"/><path class="cls-9" d="m475.97,5055.93v-13.61h2.94v13.28c0,4.33,2.14,5.71,5.42,5.71,3.74,0,6.55-2.69,6.55-5.63v-13.36h2.94v21h-2.6l-.25-3.36h-.08c-.97,2.02-3.23,3.91-7.23,3.91-4.66,0-7.69-2.52-7.69-7.94Z"/><path class="cls-9" d="m501.17,5042.31h2.39l.34,3.87h.08c1.13-2.48,4.03-4.41,7.86-4.41,6.3,0,9.66,3.99,9.66,11.01s-4.29,11.09-9.87,11.09c-3.78,0-6.38-1.6-7.43-3.7h-.08v11.55h-2.94v-29.41Zm17.18,10.63c0-7.18-3.4-8.61-6.93-8.61-4.24,0-7.56,2.73-7.56,8.44,0,6.01,3.45,8.57,7.44,8.57,3.02,0,7.06-1.47,7.06-8.4Z"/><path class="cls-9" d="m527.38,5042.31h2.39l.34,3.87h.08c1.13-2.48,4.03-4.41,7.86-4.41,6.3,0,9.66,3.99,9.66,11.01s-4.29,11.09-9.87,11.09c-3.78,0-6.38-1.6-7.43-3.7h-.08v11.55h-2.94v-29.41Zm17.18,10.63c0-7.18-3.4-8.61-6.93-8.61-4.24,0-7.56,2.73-7.56,8.44,0,6.01,3.45,8.57,7.44,8.57,3.02,0,7.06-1.47,7.06-8.4Z"/><path class="cls-9" d="m570.85,5053.82h-15.96c.17,4.79,2.48,7.48,6.93,7.48,3.82,0,5.67-1.43,5.97-4.83h2.98c-.29,4.24-3.28,7.39-9.03,7.39-7.06,0-9.83-4.66-9.83-10.88s3.23-11.21,10-11.21,8.95,3.99,8.95,10.21v1.85Zm-3.11-2.98c0-4.45-1.72-6.55-5.92-6.55s-6.55,2.65-6.89,6.97h12.81v-.42Z"/><path class="cls-9" d="m576.73,5042.31h2.6l.29,3.91c1.01-2.14,3.07-4.45,6.76-4.45,1.26,0,2.18.21,3.02.54v3.15c-1.13-.5-2.1-.76-3.4-.76-3.74,0-6.34,2.81-6.34,5.76v12.85h-2.94v-21Z"/><path class="cls-9" d="m591.72,5052.98c0-6.38,3.23-11.21,10-11.21s8.95,3.91,8.95,8.95v.42h-3.11v-.63c0-3.82-1.64-6.09-5.84-6.09-4.75,0-7.01,3.11-7.01,8.4,0,5.63,2.39,8.49,6.93,8.49,3.82,0,5.84-1.85,5.92-5.67h3.02c-.08,4.66-3.15,8.23-9.03,8.23-7.22,0-9.83-4.75-9.83-10.88Z"/><path class="cls-9" d="m615.07,5057.52c0-3.95,2.23-6.09,7.86-6.09h6.34v-1.72c0-2.98-1.26-5.42-5.46-5.42-3.95,0-5.33,1.51-5.33,4.12v.88h-2.98v-.84c0-5,4.2-6.68,8.32-6.68,5.8,0,8.4,2.86,8.4,8.44v13.11h-2.06l-.55-2.98h-.08c-1.26,1.89-3.7,3.53-7.35,3.53-4.92,0-7.1-2.31-7.1-6.34Zm14.2-1.85v-1.77h-7.01c-2.65,0-4.03.93-4.03,3.61,0,2.35,1.26,3.87,4.5,3.87,4.16,0,6.55-2.14,6.55-5.71Z"/><path class="cls-9" d="m637.67,5056.89v-1.18h2.94v1.13c0,2.86,2.14,4.49,5.96,4.49s5.8-1.01,5.8-3.78c0-2.06-1.01-2.81-3.86-3.32l-4.62-.84c-3.02-.54-5.54-2.02-5.54-5.5,0-3.15,2.35-6.13,8.4-6.13s8.4,3.02,8.4,7.22v.88h-2.98v-.76c0-3.45-2.14-4.92-5.42-4.92-3.95,0-5.33,1.34-5.33,3.36s1.01,2.86,3.91,3.4l4.03.76c4.12.76,6.09,1.93,6.09,5.59,0,4.58-4.12,6.55-8.78,6.55-7.31,0-8.99-3.28-8.99-6.97Z"/><path class="cls-9" d="m678.58,5053.82h-15.96c.17,4.79,2.48,7.48,6.93,7.48,3.82,0,5.67-1.43,5.97-4.83h2.98c-.29,4.24-3.28,7.39-9.03,7.39-7.06,0-9.83-4.66-9.83-10.88s3.23-11.21,10-11.21,8.95,3.99,8.95,10.21v1.85Zm-3.11-2.98c0-4.45-1.72-6.55-5.92-6.55s-6.55,2.65-6.89,6.97h12.81v-.42Z"/><path class="cls-9" d="m694.12,5030.55h2.94v32.77h-2.94v-32.77Z"/><path class="cls-9" d="m721.67,5053.82h-15.96c.17,4.79,2.48,7.48,6.93,7.48,3.82,0,5.67-1.43,5.97-4.83h2.98c-.29,4.24-3.28,7.39-9.03,7.39-7.06,0-9.83-4.66-9.83-10.88s3.23-11.21,10-11.21,8.95,3.99,8.95,10.21v1.85Zm-3.11-2.98c0-4.45-1.72-6.55-5.92-6.55s-6.55,2.65-6.89,6.97h12.81v-.42Z"/><path class="cls-9" d="m728.14,5056.93v-12.18h-4.16v-2.44h4.16v-6.05l2.94-1.43v7.48h11.85v-6.05l2.94-1.43v7.48h5.92v2.44h-5.92v11.8c0,2.82.76,4.58,3.4,4.58,1.6,0,3.24-.29,4.03-.5v2.6c-.76.21-2.14.59-4.03.59-3.82,0-6.34-1.6-6.34-6.89v-12.18h-11.85v11.8c0,2.82.76,4.58,3.4,4.58,1.6,0,3.23-.29,4.03-.5v2.6c-.76.21-2.14.59-4.03.59-3.82,0-6.34-1.6-6.34-6.89Z"/><path class="cls-9" d="m774.76,5053.82h-15.96c.17,4.79,2.48,7.48,6.93,7.48,3.82,0,5.67-1.43,5.97-4.83h2.98c-.29,4.24-3.28,7.39-9.03,7.39-7.06,0-9.83-4.66-9.83-10.88s3.23-11.21,10-11.21,8.95,3.99,8.95,10.21v1.85Zm-3.11-2.98c0-4.45-1.72-6.55-5.92-6.55s-6.55,2.65-6.89,6.97h12.81v-.42Z"/><path class="cls-9" d="m780.64,5042.31h2.6l.29,3.91c1.01-2.14,3.07-4.45,6.76-4.45,1.26,0,2.18.21,3.02.54v3.15c-1.13-.5-2.1-.76-3.4-.76-3.74,0-6.34,2.81-6.34,5.76v12.85h-2.94v-21Z"/><path class="cls-9" d="m795.84,5056.89v-1.18h2.94v1.13c0,2.86,2.14,4.49,5.96,4.49s5.8-1.01,5.8-3.78c0-2.06-1.01-2.81-3.86-3.32l-4.62-.84c-3.02-.54-5.54-2.02-5.54-5.5,0-3.15,2.35-6.13,8.4-6.13s8.4,3.02,8.4,7.22v.88h-2.98v-.76c0-3.45-2.14-4.92-5.42-4.92-3.95,0-5.33,1.34-5.33,3.36s1.01,2.86,3.91,3.4l4.03.76c4.12.76,6.09,1.93,6.09,5.59,0,4.58-4.12,6.55-8.78,6.55-7.31,0-8.99-3.28-8.99-6.97Z"/><path class="cls-8" d="m786.87,4108.75h16.68v3.91h-12.34v18.16h9.49v4.03h-9.49v18.35h12.34v3.91h-16.68v-48.36Zm3.04-7.62l11.47-4.22.56,4.59-11.53,2.67-.5-3.04Z"/><path class="cls-8" d="m806.96,4132.93c0-17.3,3.35-24.98,12.9-24.98,6.88,0,10.54,4.28,10.54,15.19v2.29h-4.22v-2.17c0-8.37-2.11-11.41-6.39-11.41-6.7,0-8.31,6.76-8.31,21.08s1.74,21.08,8.43,21.08c4.28,0,6.26-2.73,6.26-11.22v-2.73h4.22v2.73c0,10.85-3.6,15.13-10.6,15.13-9.49,0-12.83-7.07-12.83-24.99Z"/><path class="cls-8" d="m836.6,4108.75h9.3c8.37,0,13.21,3.97,13.21,13.08,0,4.83-1.8,10.97-7.56,13.21l8.8,22.01v.06h-4.65l-8.12-21.26h-6.57v21.26h-4.4v-48.36Zm9.49,23.37c6.45,0,8.56-4.09,8.56-10.35,0-6.63-3.04-9.18-8.49-9.18h-5.14v19.53h5.08Z"/><path class="cls-8" d="m864.99,4108.75h4.34v48.36h-4.34v-48.36Z"/><path class="cls-8" d="m883.84,4112.59h-10.17v-3.84h24.67v3.84h-10.17v44.51h-4.34v-44.51Z"/><path class="cls-8" d="m902.38,4144.46v-35.71h4.34v36.33c0,6.08,1.8,8.93,6.2,8.93s6.08-2.85,6.08-8.93v-36.33h4.34v35.28c0,9.67-3.22,13.89-10.48,13.89s-10.48-3.72-10.48-13.45Z"/><path class="cls-8" d="m930.46,4108.75h9.3c8.37,0,13.21,3.97,13.21,13.08,0,4.83-1.8,10.97-7.56,13.21l8.8,22.01v.06h-4.65l-8.12-21.26h-6.57v21.26h-4.4v-48.36Zm9.49,23.37c6.45,0,8.55-4.09,8.55-10.35,0-6.63-3.04-9.18-8.49-9.18h-5.15v19.53h5.08Z"/><path class="cls-8" d="m958.86,4108.75h16.68v3.91h-12.34v18.16h9.49v4.03h-9.49v18.35h12.34v3.91h-16.68v-48.36Z"/><path class="cls-8" d="m991.35,4108.75h7.94c7.75,0,11.96,4.03,11.96,12.03,0,5.02-1.92,9.67-6.82,10.73v.12c4.9.87,8.43,4.46,8.43,12.28,0,9.3-4.71,13.21-12.77,13.21h-8.74v-48.36Zm8.12,21.2c5.83,0,7.32-3.91,7.32-9.24s-2.42-8.12-7.25-8.12h-3.78v17.36h3.72Zm.81,23.31c5.08,0,8.06-2.48,8.06-8.99,0-7.19-2.36-10.48-8.31-10.48h-4.28v19.47h4.53Z"/><path class="cls-8" d="m1027.56,4132.93c0-17.3,3.35-24.98,12.52-24.98s12.15,8.18,12.15,24.98c0,18.41-3.41,24.99-12.34,24.99s-12.34-6.51-12.34-24.99Zm20.15,0c0-14.32-1.49-20.95-7.81-20.95s-7.81,6.63-7.81,20.95,1.49,21.14,7.81,21.14,7.81-6.32,7.81-21.14Z"/><path class="cls-8" d="m1058.43,4108.75h9.3c8.37,0,13.21,3.97,13.21,13.08,0,4.83-1.8,10.97-7.56,13.21l8.8,22.01v.06h-4.65l-8.12-21.26h-6.57v21.26h-4.4v-48.36Zm9.49,23.37c6.45,0,8.56-4.09,8.56-10.35,0-6.63-3.04-9.18-8.49-9.18h-5.14v19.53h5.08Z"/><path class="cls-8" d="m1086.83,4108.75h5.58l14.01,39.86h.12v-39.86h4.09v48.36h-5.08l-14.51-41.04h-.12v41.04h-4.09v-48.36Z"/><path class="cls-8" d="m1118.08,4108.75h16.68v3.91h-12.34v18.16h9.48v4.03h-9.48v18.35h12.34v3.91h-16.68v-48.36Zm3.04-7.62l11.47-4.22.56,4.59-11.53,2.67-.5-3.04Z"/><rect class="cls-4" x="756.14" y="4076.66" width="407.18" height="118.22"/><path class="cls-8" d="m759.31,143.25h16.68v3.91h-12.34v18.17h9.49v4.03h-9.49v18.35h12.34v3.91h-16.68v-48.36Zm3.04-7.63l11.47-4.22.56,4.59-11.53,2.67-.5-3.04Z"/><path class="cls-8" d="m779.4,167.43c0-17.3,3.35-24.98,12.9-24.98,6.88,0,10.54,4.28,10.54,15.19v2.29h-4.22v-2.17c0-8.37-2.11-11.41-6.38-11.41-6.7,0-8.31,6.76-8.31,21.08s1.74,21.08,8.43,21.08c4.28,0,6.26-2.73,6.26-11.22v-2.73h4.22v2.73c0,10.85-3.6,15.13-10.6,15.13-9.49,0-12.83-7.07-12.83-24.98Z"/><path class="cls-8" d="m809.04,143.25h9.3c8.37,0,13.21,3.97,13.21,13.08,0,4.84-1.8,10.97-7.56,13.21l8.8,22.01v.06h-4.65l-8.12-21.26h-6.57v21.26h-4.4v-48.36Zm9.48,23.37c6.45,0,8.56-4.09,8.56-10.35,0-6.63-3.04-9.18-8.49-9.18h-5.15v19.53h5.08Z"/><path class="cls-8" d="m837.43,143.25h4.34v48.36h-4.34v-48.36Z"/><path class="cls-8" d="m856.28,147.09h-10.17v-3.84h24.67v3.84h-10.17v44.51h-4.34v-44.51Z"/><path class="cls-8" d="m874.82,178.96v-35.71h4.34v36.33c0,6.08,1.8,8.93,6.2,8.93s6.08-2.85,6.08-8.93v-36.33h4.34v35.28c0,9.67-3.22,13.89-10.48,13.89s-10.48-3.72-10.48-13.45Z"/><path class="cls-8" d="m902.9,143.25h9.3c8.37,0,13.21,3.97,13.21,13.08,0,4.84-1.8,10.97-7.56,13.21l8.8,22.01v.06h-4.65l-8.12-21.26h-6.57v21.26h-4.4v-48.36Zm9.49,23.37c6.45,0,8.56-4.09,8.56-10.35,0-6.63-3.04-9.18-8.49-9.18h-5.14v19.53h5.08Z"/><path class="cls-8" d="m931.3,143.25h16.68v3.91h-12.34v18.17h9.48v4.03h-9.48v18.35h12.34v3.91h-16.68v-48.36Z"/><path class="cls-8" d="m963.79,143.25h7.94c7.75,0,11.96,4.03,11.96,12.03,0,5.02-1.92,9.67-6.82,10.73v.12c4.9.87,8.43,4.46,8.43,12.28,0,9.3-4.71,13.21-12.77,13.21h-8.74v-48.36Zm8.12,21.2c5.83,0,7.32-3.91,7.32-9.24s-2.42-8.12-7.25-8.12h-3.78v17.36h3.72Zm.81,23.31c5.08,0,8.06-2.48,8.06-8.99,0-7.19-2.36-10.48-8.31-10.48h-4.28v19.47h4.53Z"/><path class="cls-8" d="m1001.24,143.25h9.3c8.37,0,13.21,3.97,13.21,13.08,0,4.84-1.8,10.97-7.56,13.21l8.8,22.01v.06h-4.65l-8.12-21.26h-6.57v21.26h-4.4v-48.36Zm9.49,23.37c6.45,0,8.56-4.09,8.56-10.35,0-6.63-3.04-9.18-8.49-9.18h-5.14v19.53h5.08Z"/><path class="cls-8" d="m1028.39,167.43c0-17.3,3.35-24.98,12.52-24.98s12.15,8.18,12.15,24.98c0,18.41-3.41,24.98-12.34,24.98s-12.34-6.51-12.34-24.98Zm20.15,0c0-14.32-1.49-20.95-7.81-20.95s-7.81,6.63-7.81,20.95,1.49,21.14,7.81,21.14,7.81-6.32,7.81-21.14Z"/><path class="cls-8" d="m1059.27,143.25h5.39l9.86,31.31h.12l9.86-31.31h5.39v48.36h-4.09v-40.61h-.06l-9.61,30.44h-3.1l-9.61-30.44h-.06v40.61h-4.09v-48.36Z"/><path class="cls-8" d="m1112.46,174.87h-10.54l-3.22,16.74h-4.46l10.29-48.36h5.39l10.29,48.36h-4.4l-3.35-16.74Zm-.68-3.72l-4.65-23.31h-.06l-4.46,23.31h9.18Z"/><path class="cls-8" d="m1124.55,143.25h4.34v48.36h-4.34v-48.36Z"/><path class="cls-8" d="m1136.33,143.25h5.58l14.01,39.86h.12v-39.86h4.09v48.36h-5.08l-14.51-41.04h-.12v41.04h-4.09v-48.36Z"/><rect class="cls-2" x="727.79" y="111.16" width="463.88" height="118.22"/><line class="cls-5" x1="1140.83" y1="2955.48" x2="1140.83" y2="3048.41"/><line class="cls-5" x1="1445.57" y1="1249.59" x2="1445.57" y2="1580.79"/><line class="cls-3" x1="1208.21" y1="3204.79" x2="1208.21" y2="3419.84"/><line class="cls-5" x1="637.37" y1="3113.97" x2="637.37" y2="3219.62"/><line class="cls-5" x1="492.23" y1="4730.47" x2="492.23" y2="5022.21"/><path class="cls-9" d="m564.25,1352.79c-2.84,4.97-7.1,5.68-12.08,2.84-23.45-13.5-45.47-21.31-78.51-21.31-73.54,0-137.13,81-137.13,186.51s57.2,186.86,137.13,186.86c60.75,0,110.48-55.42,116.88-140.32h-89.52c-5.68,0-8.88-3.2-8.88-8.88v-.71c0-5.68,3.2-8.88,8.88-8.88h100.18c6.04,0,9.24,3.2,8.53,9.24-7.46,100.89-65.01,168.03-136.06,168.03-91.3,0-156.31-89.17-156.31-205.33s72.12-204.98,156.31-204.98c37.66,0,62.17,8.88,88.1,24.16,4.97,2.84,6.04,7.46,2.84,12.08l-.36.71Z"/><path class="cls-9" d="m675.45,1714.79v-165.55c0-5.68,3.2-8.88,8.88-8.88s8.88,3.2,8.88,8.88v65.37c9.59-31.97,24.51-53.64,40.14-73.54,3.91-4.26,7.81-4.26,12.79-1.42,14.21,7.81,26.64,11.72,35.88,11.72s16.34-2.13,16.34-5.68,3.2-5.33,8.88-5.33,8.88,1.06,8.88,2.49v2.84c0,14.92-14.56,22.74-34.1,22.74-12.08,0-27-3.91-40.5-11.01-23.45,26.64-48.31,81-48.31,133.93v23.45c0,5.68-3.2,8.88-8.88,8.88s-8.88-3.2-8.88-8.88Z"/><path class="cls-9" d="m796.94,1423.13c0-5.68,3.2-8.88,8.88-8.88h3.2c5.68,0,8.88,3.2,8.88,8.88v18.12c0,5.68-3.2,8.88-8.88,8.88h-3.2c-5.68,0-8.88-3.2-8.88-8.88v-18.12Zm131.8,128.24c-9.95,31.26-22.38,68.56-35.17,99.83-21.31,51.87-36.24,74.96-61.1,74.96-31.62,0-34.1-36.23-34.1-55.42v-121.49c0-5.68,3.2-8.88,8.88-8.88s8.88,3.2,8.88,8.88v121.49c0,13.5,1.07,38.37,16.34,38.37s25.58-17.05,44.76-64.3c12.08-29.84,24.51-66.79,34.46-98.76,1.78-5.33,5.68-7.46,11.37-5.68,5.68,1.78,7.46,5.33,5.68,11.01Z"/><path class="cls-9" d="m1279.36,1551.37c-9.95,31.26-22.38,68.56-35.17,99.83-21.31,51.87-36.24,74.96-61.1,74.96-31.62,0-34.1-36.23-34.1-55.42v-76.73c0-27.35-4.26-39.08-16.34-39.08-17.41,0-35.52,19.18-57.91,70.69l-12.79,27.71c-12.43,27-13.86,47.25-13.86,55.77v5.68c0,5.68-3.2,8.88-8.88,8.88h-1.42c-4.97-.36-7.46-2.84-7.46-7.46v-122.21c0-27.35-4.26-39.08-16.34-39.08-17.41,0-35.52,19.18-57.91,70.69l-12.79,27.71c-11.01,23.8-13.5,42.27-13.86,52.22v9.24c0,5.68-3.2,8.88-8.88,8.88h-1.42c-4.97-.36-7.46-2.84-7.46-7.46v-166.97c0-5.68,3.2-8.88,8.88-8.88s8.88,3.2,8.88,8.88v95.21l10.3-25.93c25.58-56.84,49.73-80.64,74.25-80.64s34.1,16.7,34.1,56.13v50.45l10.3-25.93c25.58-56.84,49.74-80.64,74.25-80.64s34.1,16.7,34.1,56.13v76.73c0,13.5,1.07,38.37,16.34,38.37s25.58-17.05,44.76-64.3c12.08-29.84,24.51-66.79,34.46-98.76,1.78-5.33,5.68-7.46,11.37-5.68,5.68,1.78,7.46,5.33,5.68,11.01Z"/><path class="cls-9" d="m1466.59,1641.25c5.33,2.13,6.75,6.4,3.91,11.72-25.93,49.38-62.17,71.76-130.73,73.18-1.42,0-2.49-.36-3.2-.36-2.13,0-3.91.36-6.04.36-17.76,0-35.52-5.33-50.09-11.72v222.39c0,5.68-3.2,8.88-8.88,8.88s-8.88-3.2-8.88-8.88v-387.58c0-5.68,3.2-8.88,8.88-8.88s8.88,3.2,8.88,8.88v88.81l6.04-17.05c28.78-64.66,47.6-83.13,73.89-83.13,30.91,0,41.21,39.79,41.21,79.58,0,37.66-8.88,70.69-27.71,90.23,38.72-7.82,62.52-28.06,80.64-62.17,2.84-5.33,6.75-6.75,11.72-4.26h.36Zm-185.8,56.13c1.78,0,3.91.36,6.04,1.07,12.79,5.68,28.42,10.66,43.7,10.66,36.24,0,53.29-41.21,53.29-91.65,0-31.26-6.04-62.52-23.45-62.52s-31.62,14.21-57.55,73.18l-10.66,24.16c-7.81,18.12-10.3,34.1-11.37,45.12Z"/><path class="cls-9" d="m1527.69,1709.1c38.72,0,75.67-27,100.54-75.67,2.84-4.97,6.75-6.75,11.72-4.26,5.68,2.13,7.11,6.39,4.62,11.72-28.07,55.06-70.7,85.26-116.88,85.26-53.64,0-72.12-33.04-72.12-89.17,0-50.8,27-99.12,74.96-99.12,32.68,0,51.16,19.54,51.16,42.63,0,42.27-32.33,59.33-87.75,59.33h-20.6c.36,43.7,14.92,69.27,54.35,69.27Zm-53.64-86.33h19.89c44.05,0,69.98-12.08,69.98-42.27,0-13.86-12.08-25.58-33.39-25.58-32.68,0-52.58,31.26-56.49,67.85Zm8.17-139.26c-1.78-5.33,0-9.24,5.33-11.37,25.93-10.66,45.12-26.29,59.68-47.25,3.55-4.97,7.46-5.68,12.43-2.84,4.97,2.84,5.68,7.46,2.49,12.08-17.05,24.51-38.72,42.27-68.56,54.35-5.33,2.13-9.59.35-11.37-4.97Z"/><path class="cls-10" d="m562.57,353.46c0,5.68-3.2,8.88-8.88,8.88h-159.51v163.77h145.65c5.68,0,8.88,3.2,8.88,8.88v.71c0,5.68-3.2,8.88-8.88,8.88h-145.65v180.47h168.39c5.68,0,8.88,3.2,8.88,8.88v.71c0,5.68-3.2,8.88-8.88,8.88h-178.69c-5.68,0-8.88-3.2-8.88-8.88v-381.89c0-5.68,3.2-8.88,8.88-8.88h169.81c5.68,0,8.88,3.2,8.88,8.88v.71Z"/><path class="cls-9" d="m658.49,571.94v110.13c0,30.2,6.04,49.74,23.45,49.74,18.47,0,38.01-20.6,61.46-70.7l12.79-27.71c10.66-23.45,13.5-41.92,13.86-51.87v-10.66c0-.71,0-1.42.35-2.13.71-2.49,2.13-4.26,4.62-4.97,0,0,.36-.36.71-.36s1.07-.35,1.78-.35h1.42c5.68,0,8.88,2.49,8.88,7.1v123.27c0,13.5,1.07,38.37,16.34,38.37s25.58-17.05,44.76-64.3c12.08-29.84,24.51-66.79,34.46-98.76,1.78-5.33,5.68-7.46,11.37-5.68,5.68,1.78,7.46,5.33,5.68,11.01-9.95,31.26-22.38,68.56-35.17,99.83-21.31,51.87-36.24,74.96-61.1,74.96-31.62,0-34.1-36.23-34.1-55.42v-51.16l-10.3,25.93c-27,58.62-51.51,80.64-77.8,80.64-30.91,0-41.21-25.93-41.21-66.79v-110.13c0-5.68,3.2-8.88,8.88-8.88s8.88,3.2,8.88,8.88Z"/><path class="cls-9" d="m953.71,562.35c15.63,9.95,31.62,15.28,45.47,15.28,9.24,0,17.76-1.78,25.58-5.33,4.97-2.84,8.88-2.49,12.43,2.13,3.55,4.26,2.84,8.88-2.49,11.72-10.66,6.04-23.09,8.53-35.52,8.53-16.7,0-34.46-4.97-49.74-14.57-23.09,25.93-47.25,78.51-48.31,130.02v27.35c0,5.68-3.2,8.88-8.88,8.88s-8.88-3.2-8.88-8.88v-165.55c0-5.68,3.2-8.88,8.88-8.88s8.88,3.2,8.88,8.88v65.37c9.59-31.97,24.51-53.64,40.14-73.54,3.91-4.26,7.81-4.26,12.43-1.42Z"/><path class="cls-9" d="m1203.45,574.07c-7.82,26.64-18.12,56.13-29.49,81.35-26.29,57.2-68.92,93.43-113.68,93.43-53.64,0-72.12-33.04-72.12-89.17,0-50.8,27-99.12,74.96-99.12,32.68,0,51.16,19.54,51.16,42.63,0,42.27-32.33,59.33-87.75,59.33h-20.6c.36,43.7,14.92,69.27,54.35,69.27s73.89-29.84,97.34-83.48c11.37-24.87,20.96-53.29,28.78-79.22,1.78-5.68,5.33-7.82,11.01-6.04,5.68,1.78,7.82,5.33,6.04,11.01Zm-207.11-67.85c-2.49-4.97-.71-8.88,4.26-11.72,20.25-11.37,37.3-30.55,52.93-57.55,3.55-6.39,8.53-6.39,12.08,0,15.63,27,33.04,46.18,52.93,57.55,4.97,2.84,6.75,6.75,4.26,11.72-2.13,4.97-6.39,6.75-11.72,3.91-21.67-11.01-38.37-26.64-51.51-47.6-13.14,20.96-29.84,36.59-51.51,47.6-5.33,2.84-9.59,1.07-11.72-3.91Zm10.3,139.26h19.89c44.05,0,69.98-12.08,69.98-42.27,0-13.86-12.08-25.58-33.39-25.58-32.68,0-52.58,31.26-56.49,67.85Z"/><path class="cls-10" d="m1186.03,737.48v-387.58c0-5.68,3.2-8.88,8.88-8.88s8.88,3.2,8.88,8.88v387.58c0,5.68-3.2,8.88-8.88,8.88s-8.88-3.2-8.88-8.88Zm115.81-161.99l-71.41,62.88,58.97,77.09-.36-.36c9.59,11.72,14.56,16.7,22.38,16.7,12.08,0,23.45-20.25,36.95-61.81,1.78-5.68,5.68-8.17,11.37-6.39,5.68,1.78,7.46,5.68,5.68,11.37-15.99,49.38-32.68,73.89-54,73.89-15.99,0-23.09-7.1-36.24-23.09l-62.88-83.48c-3.55-4.26-3.2-8.53,1.07-12.43l76.73-67.5c4.26-3.55,8.53-3.55,12.43.71,3.91,4.26,3.55,8.53-.71,12.43Z"/><path class="cls-9" d="m1580,663.59c-23.45,52.22-49.02,85.26-74.96,85.26-31.62,0-34.1-36.23-34.1-55.42v-41.21l-6.04,13.5c-28.78,64.66-47.6,83.13-73.89,83.13-30.91,0-41.21-39.79-41.21-79.58,0-59.68,22.74-108.71,71.05-108.71,17.41,0,35.17,5.33,50.09,12.08v-.71c0-5.68,3.2-8.88,8.88-8.88h1.06c4.97.35,7.82,2.84,7.82,7.1v123.27c0,13.5,1.07,38.37,16.34,38.37,17.76,0,38.37-28.78,58.62-74.96,2.49-5.33,6.39-7.11,11.72-4.97,5.33,2.13,6.75,6.04,4.62,11.72Zm-109.77-74.25c-1.78.36-3.55,0-5.68-1.06-12.79-5.68-28.42-10.66-43.7-10.66-36.24,0-53.29,41.21-53.29,91.65,0,31.26,6.04,62.52,23.45,62.52s31.62-14.21,57.55-73.18l10.66-24.16c7.46-17.76,10.3-33.75,11.01-45.12Z"/><path class="cls-10" d="m716.78,4614.13c5.68,2.13,7.46,6.04,4.97,11.72-23.45,52.58-49.38,85.61-75.67,85.61-22.03,0-32.33-14.56-42.27-54l-25.58-101.6h-115.46l-.71,3.2c-34.46,119.72-54.35,151.69-110.48,151.69-42.99,0-71.41-28.42-71.41-76.38,0-28.78,11.37-55.77,26.29-71.41,3.91-4.26,8.88-3.55,12.43,1.42l.71.71c3.2,4.62,2.49,8.17-1.07,12.43-11.01,12.43-19.18,33.75-19.18,56.84,0,36.59,20.6,57.91,52.22,57.91,41.56,0,62.52-38.72,91.3-136.42h-39.79c-5.68,0-8.88-3.2-8.88-8.88v-.71c0-5.68,3.2-8.88,8.88-8.88h45.12l65.72-226.65c1.42-4.97,4.62-7.46,9.95-7.46h2.13c5.33,0,8.53,2.49,9.59,7.82l86.68,342.11c7.11,28.78,13.14,39.79,23.8,39.79,17.41,0,37.66-28.78,57.91-74.25,2.49-5.68,6.39-7.46,11.72-4.97l1.06.36Zm-248.67-76.73h105.51l-49.38-195.39-56.13,195.39Z"/><path class="cls-9" d="m880.19,4626.21c-26.29,55.06-66.08,85.26-109.77,85.26-48.67,0-65.01-33.04-65.01-89.17,0-50.8,27-99.12,74.96-99.12,18.12,0,31.26,5.68,41.21,15.99,4.26,4.26,3.2,8.88-1.42,12.08l-.35.36c-4.62,3.2-8.53,2.13-12.43-1.78-6.75-6.04-15.63-9.59-27-9.59-36.59,0-57.2,39.79-57.2,82.06,0,45.47,12.08,72.12,47.25,72.12s70.34-27,93.43-75.31c2.84-5.33,6.75-7.11,12.08-4.62,5.33,2.13,7.11,6.39,4.26,11.72Z"/><path class="cls-9" d="m1073.09,4536.68c-7.82,26.64-18.12,56.13-29.49,81.35-26.29,57.2-68.92,93.43-113.68,93.43-48.67,0-65.01-33.04-65.01-89.17,0-50.8,27-99.12,74.96-99.12,18.12,0,31.26,5.68,41.21,15.99,4.26,4.26,3.2,8.88-1.42,12.08l-.35.36c-4.62,3.2-8.53,2.13-12.43-1.78-6.75-6.04-15.63-9.59-27-9.59-36.59,0-57.2,39.79-57.2,82.06,0,45.47,12.08,72.12,47.25,72.12,38.01,0,73.89-29.84,97.34-83.48,11.37-24.87,20.96-53.29,28.78-79.22,1.78-5.68,5.33-7.82,11.01-6.04,5.68,1.78,7.81,5.33,6.04,11.01Z"/><path class="cls-9" d="m1055.68,4700.1v-165.55c0-5.68,3.2-8.88,8.88-8.88s8.88,3.2,8.88,8.88v65.37c9.59-31.97,24.51-53.64,40.14-73.54,3.91-4.26,7.81-4.26,12.79-1.42,14.21,7.81,26.64,11.72,35.88,11.72s16.34-2.13,16.34-5.68,3.2-5.33,8.88-5.33,8.88,1.06,8.88,2.49v2.84c0,14.92-14.56,22.74-34.1,22.74-12.08,0-27-3.91-40.5-11.01-23.45,26.64-48.31,81-48.31,133.93v23.45c0,5.68-3.2,8.88-8.88,8.88s-8.88-3.2-8.88-8.88Z"/><path class="cls-9" d="m1416.96,4626.21c-23.45,52.22-49.02,85.26-74.96,85.26-31.62,0-34.1-36.23-34.1-55.42v-51.16l-10.3,25.93c-27,58.62-51.51,80.64-77.8,80.64-30.91,0-41.21-25.93-41.21-66.79v-110.13c0-5.68,3.2-8.88,8.88-8.88s8.88,3.2,8.88,8.88v110.13c0,30.2,6.04,49.74,23.45,49.74,18.47,0,38.01-20.6,61.46-70.7l12.79-27.71c10.66-23.45,13.5-41.92,13.86-51.87v-10.66c0-.71,0-1.42.35-2.13v-.71c.36-.71.71-1.42,1.42-2.13.36-.71,1.07-1.07,1.78-1.42l1.06-.71h.36c.36-.36.71-.36,1.42-.36.71-.35,1.42-.35,2.49-.35h1.07c4.97.35,7.81,2.84,7.81,7.1v123.27c0,13.5,1.07,38.37,16.34,38.37,17.76,0,38.37-28.78,58.62-74.96,2.49-5.33,6.39-7.11,11.72-4.97,5.33,2.13,6.75,6.04,4.62,11.72Z"/><path class="cls-9" d="m1474.16,4694.42c38.72,0,75.67-27,100.54-75.67,2.84-4.97,6.75-6.75,11.72-4.26,5.68,2.13,7.11,6.39,4.62,11.72-28.07,55.06-70.7,85.26-116.88,85.26-53.64,0-72.12-33.04-72.12-89.17,0-50.8,27-99.12,74.96-99.12,32.68,0,51.16,19.54,51.16,42.63,0,42.27-32.33,59.33-87.75,59.33h-20.6c.36,43.7,14.92,69.27,54.35,69.27Zm-53.64-86.33h19.89c44.05,0,69.98-12.08,69.98-42.27,0-13.86-12.08-25.58-33.39-25.58-32.68,0-52.58,31.26-56.49,67.85Z"/><path class="cls-9" d="m524.54,3052.05h2.94v30.12h15.71v2.65h-18.65v-32.77Z"/><path class="cls-9" d="m546.34,3074.31c0-6.22,3.32-11.05,10.38-11.05,6.59,0,10.25,4.83,10.25,11.05s-3.7,11.05-10.29,11.05c-7.27,0-10.33-4.83-10.33-11.05Zm17.56,0c0-5.33-2.9-8.49-7.22-8.49-4.75,0-7.27,3.15-7.27,8.49s2.56,8.49,7.27,8.49c4.33,0,7.22-3.15,7.22-8.49Z"/><path class="cls-9" d="m571.16,3074.31c0-6.22,3.32-11.05,10.38-11.05,6.59,0,10.25,4.83,10.25,11.05s-3.7,11.05-10.29,11.05c-7.27,0-10.33-4.83-10.33-11.05Zm17.56,0c0-5.33-2.9-8.49-7.22-8.49-4.75,0-7.27,3.15-7.27,8.49s2.56,8.49,7.27,8.49c4.33,0,7.22-3.15,7.22-8.49Z"/><path class="cls-9" d="m597.66,3063.81h2.39l.34,3.87h.08c1.13-2.48,4.03-4.41,7.86-4.41,6.3,0,9.66,3.99,9.66,11.01s-4.29,11.09-9.87,11.09c-3.78,0-6.38-1.6-7.43-3.7h-.08v11.55h-2.94v-29.41Zm17.18,10.63c0-7.18-3.4-8.61-6.93-8.61-4.24,0-7.56,2.73-7.56,8.44,0,6.01,3.45,8.57,7.44,8.57,3.02,0,7.06-1.47,7.06-8.4Z"/><path class="cls-9" d="m623.24,3052.05h2.94v32.77h-2.94v-32.77Z"/><path class="cls-9" d="m650.79,3075.32h-15.96c.17,4.79,2.48,7.48,6.93,7.48,3.82,0,5.67-1.43,5.97-4.83h2.98c-.29,4.24-3.28,7.39-9.03,7.39-7.06,0-9.83-4.66-9.83-10.88s3.23-11.22,10-11.22,8.95,3.99,8.95,10.21v1.85Zm-3.11-2.98c0-4.45-1.72-6.55-5.92-6.55s-6.55,2.65-6.89,6.97h12.81v-.42Z"/><path class="cls-9" d="m654.78,3078.39v-1.18h2.94v1.13c0,2.86,2.14,4.49,5.96,4.49s5.8-1.01,5.8-3.78c0-2.06-1.01-2.81-3.86-3.32l-4.62-.84c-3.02-.55-5.54-2.02-5.54-5.5,0-3.15,2.35-6.13,8.4-6.13s8.4,3.02,8.4,7.23v.88h-2.98v-.76c0-3.45-2.14-4.92-5.42-4.92-3.95,0-5.33,1.34-5.33,3.36s1.01,2.86,3.91,3.4l4.03.76c4.12.76,6.09,1.93,6.09,5.59,0,4.58-4.12,6.55-8.78,6.55-7.31,0-8.99-3.28-8.99-6.97Z"/><path class="cls-9" d="m676.54,3078.39v-1.18h2.94v1.13c0,2.86,2.14,4.49,5.96,4.49s5.8-1.01,5.8-3.78c0-2.06-1.01-2.81-3.86-3.32l-4.62-.84c-3.02-.55-5.54-2.02-5.54-5.5,0-3.15,2.35-6.13,8.4-6.13s8.4,3.02,8.4,7.23v.88h-2.98v-.76c0-3.45-2.14-4.92-5.42-4.92-3.95,0-5.33,1.34-5.33,3.36s1.01,2.86,3.91,3.4l4.03.76c4.12.76,6.09,1.93,6.09,5.59,0,4.58-4.12,6.55-8.78,6.55-7.31,0-8.99-3.28-8.99-6.97Z"/><path class="cls-9" d="m708.58,3079.02c0-3.95,2.23-6.09,7.86-6.09h6.34v-1.72c0-2.98-1.26-5.42-5.46-5.42-3.95,0-5.33,1.51-5.33,4.12v.88h-2.98v-.84c0-5,4.2-6.68,8.32-6.68,5.8,0,8.4,2.86,8.4,8.44v13.11h-2.06l-.55-2.98h-.08c-1.26,1.89-3.7,3.53-7.35,3.53-4.92,0-7.1-2.31-7.1-6.34Zm14.2-1.85v-1.76h-7.01c-2.65,0-4.03.92-4.03,3.61,0,2.35,1.26,3.86,4.5,3.86,4.16,0,6.55-2.14,6.55-5.71Z"/><path class="cls-9" d="m731.18,3078.39v-1.18h2.94v1.13c0,2.86,2.14,4.49,5.96,4.49s5.8-1.01,5.8-3.78c0-2.06-1.01-2.81-3.86-3.32l-4.62-.84c-3.02-.55-5.54-2.02-5.54-5.5,0-3.15,2.35-6.13,8.4-6.13s8.4,3.02,8.4,7.23v.88h-2.98v-.76c0-3.45-2.14-4.92-5.42-4.92-3.95,0-5.33,1.34-5.33,3.36s1.01,2.86,3.91,3.4l4.03.76c4.12.76,6.09,1.93,6.09,5.59,0,4.58-4.12,6.55-8.78,6.55-7.31,0-8.99-3.28-8.99-6.97Z"/><path class="cls-9" d="m753.14,3074.48c0-6.38,3.23-11.22,10-11.22s8.95,3.91,8.95,8.95v.42h-3.11v-.63c0-3.82-1.64-6.09-5.84-6.09-4.75,0-7.01,3.11-7.01,8.4,0,5.63,2.39,8.49,6.93,8.49,3.82,0,5.84-1.85,5.92-5.67h3.02c-.08,4.66-3.15,8.23-9.03,8.23-7.22,0-9.83-4.75-9.83-10.88Z"/><path class="cls-9" d="m795.23,3075.32h-15.96c.17,4.79,2.48,7.48,6.93,7.48,3.82,0,5.67-1.43,5.97-4.83h2.98c-.29,4.24-3.28,7.39-9.03,7.39-7.06,0-9.83-4.66-9.83-10.88s3.23-11.22,10-11.22,8.95,3.99,8.95,10.21v1.85Zm-3.11-2.98c0-4.45-1.72-6.55-5.92-6.55s-6.55,2.65-6.89,6.97h12.81v-.42Z"/><path class="cls-9" d="m801.11,3063.81h2.6l.29,3.49c1.01-2.14,3.28-4.03,7.35-4.03,4.75,0,7.77,2.52,7.77,7.94v13.61h-2.94v-13.27c0-4.33-2.14-5.71-5.5-5.71-3.82,0-6.64,2.69-6.64,5.63v13.36h-2.94v-21Z"/><path class="cls-9" d="m824.8,3074.35c0-7.1,4.28-11.09,10.04-11.09,3.7,0,6.22,1.6,7.31,3.74h.04v-14.95h2.94v32.77h-1.97l-.67-3.61h-.08c-1.18,2.31-3.95,4.16-7.77,4.16-6.3,0-9.83-3.99-9.83-11.01Zm17.64-.5c0-5.5-3.36-8.07-7.35-8.07-3.11,0-7.14,1.47-7.14,8.4s3.61,8.61,7.14,8.61c4.24,0,7.35-2.73,7.35-8.95Z"/><path class="cls-9" d="m869.74,3075.32h-15.96c.17,4.79,2.48,7.48,6.93,7.48,3.82,0,5.67-1.43,5.97-4.83h2.98c-.29,4.24-3.28,7.39-9.03,7.39-7.06,0-9.83-4.66-9.83-10.88s3.23-11.22,10-11.22,8.95,3.99,8.95,10.21v1.85Zm-3.11-2.98c0-4.45-1.72-6.55-5.92-6.55s-6.55,2.65-6.89,6.97h12.81v-.42Z"/><path class="cls-9" d="m875.62,3063.81h2.6l.29,3.91c1.01-2.14,3.07-4.45,6.76-4.45,1.26,0,2.18.21,3.02.55v3.15c-1.13-.5-2.1-.76-3.4-.76-3.74,0-6.34,2.81-6.34,5.75v12.85h-2.94v-21Z"/><path class="cls-9" d="m890.82,3078.39v-1.18h2.94v1.13c0,2.86,2.14,4.49,5.96,4.49s5.8-1.01,5.8-3.78c0-2.06-1.01-2.81-3.86-3.32l-4.62-.84c-3.02-.55-5.54-2.02-5.54-5.5,0-3.15,2.35-6.13,8.4-6.13s8.4,3.02,8.4,7.23v.88h-2.98v-.76c0-3.45-2.14-4.92-5.42-4.92-3.95,0-5.33,1.34-5.33,3.36s1.01,2.86,3.91,3.4l4.03.76c4.12.76,6.09,1.93,6.09,5.59,0,4.58-4.12,6.55-8.78,6.55-7.31,0-8.99-3.28-8.99-6.97Z"/><path class="cls-9" d="m922.87,3079.02c0-3.95,2.23-6.09,7.86-6.09h6.34v-1.72c0-2.98-1.26-5.42-5.46-5.42-3.95,0-5.33,1.51-5.33,4.12v.88h-2.98v-.84c0-5,4.2-6.68,8.32-6.68,5.8,0,8.4,2.86,8.4,8.44v13.11h-2.06l-.55-2.98h-.08c-1.26,1.89-3.7,3.53-7.35,3.53-4.92,0-7.1-2.31-7.1-6.34Zm14.2-1.85v-1.76h-7.01c-2.65,0-4.03.92-4.03,3.61,0,2.35,1.26,3.86,4.5,3.86,4.16,0,6.55-2.14,6.55-5.71Z"/><path class="cls-9" d="m947.35,3063.81h2.6l.29,3.49c1.01-2.14,3.28-4.03,7.35-4.03,4.75,0,7.77,2.52,7.77,7.94v13.61h-2.94v-13.27c0-4.33-2.14-5.71-5.5-5.71-3.82,0-6.64,2.69-6.64,5.63v13.36h-2.94v-21Z"/><path class="cls-9" d="m971.04,3074.35c0-7.1,4.28-11.09,10.04-11.09,3.7,0,6.22,1.6,7.31,3.74h.04v-14.95h2.94v32.77h-1.97l-.67-3.61h-.08c-1.18,2.31-3.95,4.16-7.77,4.16-6.3,0-9.83-3.99-9.83-11.01Zm17.64-.5c0-5.5-3.36-8.07-7.35-8.07-3.11,0-7.14,1.47-7.14,8.4s3.61,8.61,7.14,8.61c4.24,0,7.35-2.73,7.35-8.95Z"/><path class="cls-9" d="m1006.7,3074.35c0-7.1,4.28-11.09,10.04-11.09,3.7,0,6.22,1.6,7.31,3.74h.04v-14.95h2.94v32.77h-1.97l-.67-3.61h-.08c-1.18,2.31-3.95,4.16-7.77,4.16-6.3,0-9.83-3.99-9.83-11.01Zm17.64-.5c0-5.5-3.36-8.07-7.35-8.07-3.11,0-7.14,1.47-7.14,8.4s3.61,8.61,7.14,8.61c4.24,0,7.35-2.73,7.35-8.95Z"/><path class="cls-9" d="m1051.64,3075.32h-15.96c.17,4.79,2.48,7.48,6.93,7.48,3.82,0,5.67-1.43,5.97-4.83h2.98c-.29,4.24-3.28,7.39-9.03,7.39-7.06,0-9.83-4.66-9.83-10.88s3.23-11.22,10-11.22,8.95,3.99,8.95,10.21v1.85Zm-3.11-2.98c0-4.45-1.72-6.55-5.92-6.55s-6.55,2.65-6.89,6.97h12.81v-.42Z"/><path class="cls-9" d="m1055.63,3078.39v-1.18h2.94v1.13c0,2.86,2.14,4.49,5.96,4.49s5.8-1.01,5.8-3.78c0-2.06-1.01-2.81-3.86-3.32l-4.62-.84c-3.02-.55-5.54-2.02-5.54-5.5,0-3.15,2.35-6.13,8.4-6.13s8.4,3.02,8.4,7.23v.88h-2.98v-.76c0-3.45-2.14-4.92-5.42-4.92-3.95,0-5.33,1.34-5.33,3.36s1.01,2.86,3.91,3.4l4.03.76c4.12.76,6.09,1.93,6.09,5.59,0,4.58-4.12,6.55-8.78,6.55-7.31,0-8.99-3.28-8.99-6.97Z"/><path class="cls-9" d="m1077.59,3074.48c0-6.38,3.23-11.22,10-11.22s8.95,3.91,8.95,8.95v.42h-3.11v-.63c0-3.82-1.64-6.09-5.84-6.09-4.75,0-7.02,3.11-7.02,8.4,0,5.63,2.39,8.49,6.93,8.49,3.82,0,5.84-1.85,5.92-5.67h3.02c-.08,4.66-3.15,8.23-9.03,8.23-7.22,0-9.83-4.75-9.83-10.88Z"/><path class="cls-9" d="m1119.68,3075.32h-15.96c.17,4.79,2.48,7.48,6.93,7.48,3.82,0,5.67-1.43,5.97-4.83h2.98c-.29,4.24-3.28,7.39-9.03,7.39-7.06,0-9.83-4.66-9.83-10.88s3.23-11.22,10-11.22,8.95,3.99,8.95,10.21v1.85Zm-3.11-2.98c0-4.45-1.72-6.55-5.92-6.55s-6.55,2.65-6.89,6.97h12.81v-.42Z"/><path class="cls-9" d="m1125.56,3063.81h2.6l.29,3.49c1.01-2.14,3.28-4.03,7.35-4.03,4.75,0,7.77,2.52,7.77,7.94v13.61h-2.94v-13.27c0-4.33-2.14-5.71-5.5-5.71-3.82,0-6.64,2.69-6.64,5.63v13.36h-2.94v-21Z"/><path class="cls-9" d="m1149.25,3074.35c0-7.1,4.28-11.09,10.04-11.09,3.7,0,6.22,1.6,7.31,3.74h.04v-14.95h2.94v32.77h-1.97l-.67-3.61h-.08c-1.18,2.31-3.95,4.16-7.77,4.16-6.3,0-9.83-3.99-9.83-11.01Zm17.64-.5c0-5.5-3.36-8.07-7.35-8.07-3.11,0-7.14,1.47-7.14,8.4s3.61,8.61,7.14,8.61c4.24,0,7.35-2.73,7.35-8.95Z"/><path class="cls-9" d="m1194.19,3075.32h-15.96c.17,4.79,2.48,7.48,6.93,7.48,3.82,0,5.67-1.43,5.97-4.83h2.98c-.29,4.24-3.28,7.39-9.03,7.39-7.06,0-9.83-4.66-9.83-10.88s3.23-11.22,10-11.22,8.95,3.99,8.95,10.21v1.85Zm-3.11-2.98c0-4.45-1.72-6.55-5.92-6.55s-6.55,2.65-6.89,6.97h12.81v-.42Z"/><path class="cls-9" d="m1200.07,3063.81h2.6l.29,3.91c1.01-2.14,3.07-4.45,6.76-4.45,1.26,0,2.18.21,3.02.55v3.15c-1.13-.5-2.1-.76-3.4-.76-3.74,0-6.34,2.81-6.34,5.75v12.85h-2.94v-21Z"/><path class="cls-9" d="m1215.27,3078.39v-1.18h2.94v1.13c0,2.86,2.14,4.49,5.96,4.49s5.8-1.01,5.8-3.78c0-2.06-1.01-2.81-3.86-3.32l-4.62-.84c-3.02-.55-5.54-2.02-5.54-5.5,0-3.15,2.35-6.13,8.4-6.13s8.4,3.02,8.4,7.23v.88h-2.98v-.76c0-3.45-2.14-4.92-5.42-4.92-3.95,0-5.33,1.34-5.33,3.36s1.01,2.86,3.91,3.4l4.03.76c4.12.76,6.09,1.93,6.09,5.59,0,4.58-4.12,6.55-8.78,6.55-7.31,0-8.99-3.28-8.99-6.97Z"/><path class="cls-9" d="m368.2,1212.91h-13.99l-3.74,10.33h-3.07l12.18-32.77h3.32l12.1,32.77h-3.07l-3.74-10.33Zm-.92-2.6l-6.05-16.8h-.04l-6.05,16.8h12.14Z"/><path class="cls-9" d="m379.2,1202.24h2.6l.29,3.49c1.01-2.14,3.28-4.03,7.35-4.03,4.75,0,7.77,2.52,7.77,7.94v13.61h-2.94v-13.27c0-4.33-2.14-5.71-5.5-5.71-3.82,0-6.64,2.69-6.64,5.63v13.36h-2.94v-21Z"/><path class="cls-9" d="m403.94,1225.05v-.13h3.11v.13c0,2.9,1.93,4.33,6.13,4.33,4.79,0,7.01-2.94,7.01-7.86v-2.1h-.08c-1.09,2.18-3.65,4.07-7.48,4.07-6.3,0-9.75-3.99-9.75-10.71,0-7.1,4.37-11.09,9.96-11.09,3.78,0,6.55,1.81,7.56,4.12h.13l.29-3.57h2.31v19.16c0,5.88-2.81,10.71-10.33,10.71-6.3,0-8.86-2.98-8.86-7.06Zm16.59-12.77c0-5.5-3.36-8.07-7.35-8.07-3.03,0-7.14,1.47-7.14,8.4s3.57,8.32,7.1,8.32c4.24,0,7.39-2.73,7.39-8.65Z"/><path class="cls-9" d="m430.06,1215.85v-13.61h2.94v13.27c0,4.33,2.14,5.71,5.42,5.71,3.74,0,6.55-2.69,6.55-5.63v-13.36h2.94v21h-2.6l-.25-3.36h-.08c-.97,2.02-3.23,3.91-7.23,3.91-4.66,0-7.69-2.52-7.69-7.94Z"/><path class="cls-9" d="m455.26,1190.48h2.94v32.77h-2.94v-32.77Z"/><path class="cls-9" d="m464.29,1217.45c0-3.95,2.23-6.09,7.86-6.09h6.34v-1.72c0-2.98-1.26-5.42-5.46-5.42-3.95,0-5.33,1.51-5.33,4.12v.88h-2.98v-.84c0-5,4.2-6.68,8.32-6.68,5.8,0,8.4,2.86,8.4,8.44v13.11h-2.06l-.55-2.98h-.08c-1.26,1.89-3.7,3.53-7.35,3.53-4.92,0-7.1-2.31-7.1-6.34Zm14.2-1.85v-1.76h-7.01c-2.65,0-4.03.92-4.03,3.61,0,2.35,1.26,3.86,4.5,3.86,4.16,0,6.55-2.14,6.55-5.71Z"/><path class="cls-9" d="m488.78,1202.24h2.6l.29,3.91c1.01-2.14,3.07-4.45,6.76-4.45,1.26,0,2.18.21,3.02.55v3.15c-1.13-.5-2.1-.76-3.4-.76-3.74,0-6.34,2.81-6.34,5.75v12.85h-2.94v-21Z"/><path class="cls-9" d="m533,1213.75h-15.96c.17,4.79,2.48,7.48,6.93,7.48,3.82,0,5.67-1.43,5.97-4.83h2.98c-.29,4.24-3.28,7.39-9.03,7.39-7.06,0-9.83-4.66-9.83-10.88s3.23-11.22,10-11.22,8.95,3.99,8.95,10.21v1.85Zm-3.11-2.98c0-4.45-1.72-6.55-5.92-6.55s-6.55,2.65-6.89,6.97h12.81v-.42Z"/><path class="cls-9" d="m538.88,1202.24h2.6l.29,3.49c1.01-2.14,3.28-4.03,7.35-4.03,4.75,0,7.77,2.52,7.77,7.94v13.61h-2.94v-13.27c0-4.33-2.14-5.71-5.5-5.71-3.82,0-6.64,2.69-6.64,5.63v13.36h-2.94v-21Z"/><path class="cls-9" d="m575.21,1220.56v2.6c-.76.21-2.14.59-4.03.59-3.82,0-6.34-1.6-6.34-6.89v-12.18h-4.16v-2.44h4.16v-6.05l2.94-1.43v7.48h5.92v2.44h-5.92v11.8c0,2.82.76,4.58,3.4,4.58,1.6,0,3.23-.29,4.03-.5Z"/><path class="cls-9" d="m580.04,1202.24h2.6l.29,3.91c1.01-2.14,3.07-4.45,6.76-4.45,1.26,0,2.18.21,3.02.55v3.15c-1.13-.5-2.1-.76-3.4-.76-3.74,0-6.34,2.81-6.34,5.75v12.85h-2.94v-21Z"/><path class="cls-9" d="m597.56,1202.24l6.89,17.98h.08l7.14-17.98h3.07v.04l-8.86,20.84-3.11,8.53h-2.98v-.04l3.19-8.36-8.78-20.96v-.04h3.36Z"/><path class="cls-9" d="m626.7,1216.82v-1.18h2.94v1.13c0,2.86,2.14,4.49,5.96,4.49s5.8-1.01,5.8-3.78c0-2.06-1.01-2.81-3.86-3.32l-4.62-.84c-3.02-.55-5.54-2.02-5.54-5.5,0-3.15,2.35-6.13,8.4-6.13s8.4,3.02,8.4,7.23v.88h-2.98v-.76c0-3.45-2.14-4.92-5.42-4.92-3.95,0-5.33,1.34-5.33,3.36s1.01,2.86,3.91,3.4l4.03.76c4.12.76,6.09,1.93,6.09,5.59,0,4.58-4.12,6.55-8.78,6.55-7.31,0-8.99-3.28-8.99-6.97Z"/><path class="cls-9" d="m661.31,1220.56v2.6c-.76.21-2.14.59-4.03.59-3.82,0-6.34-1.6-6.34-6.89v-12.18h-4.16v-2.44h4.16v-6.05l2.94-1.43v7.48h5.92v2.44h-5.92v11.8c0,2.82.76,4.58,3.4,4.58,1.6,0,3.23-.29,4.03-.5Z"/><path class="cls-9" d="m666.14,1202.24h2.6l.29,3.91c1.01-2.14,3.07-4.45,6.76-4.45,1.26,0,2.18.21,3.02.55v3.15c-1.13-.5-2.1-.76-3.4-.76-3.74,0-6.34,2.81-6.34,5.75v12.85h-2.94v-21Z"/><path class="cls-9" d="m681.14,1212.75c0-6.22,3.32-11.05,10.38-11.05,6.59,0,10.25,4.83,10.25,11.05s-3.7,11.05-10.29,11.05c-7.27,0-10.33-4.83-10.33-11.05Zm17.56,0c0-5.33-2.9-8.49-7.22-8.49-4.75,0-7.27,3.15-7.27,8.49s2.56,8.49,7.27,8.49c4.33,0,7.22-3.15,7.22-8.49Z"/><path class="cls-9" d="m707.01,1190.48h2.94v23.23l12.14-11.47h3.65v.04l-8.4,7.86,8.78,13.06v.04h-3.36l-7.39-11.22-5.42,5.04v6.17h-2.94v-32.77Z"/><path class="cls-9" d="m747.37,1213.75h-15.96c.17,4.79,2.48,7.48,6.93,7.48,3.82,0,5.67-1.43,5.97-4.83h2.98c-.29,4.24-3.28,7.39-9.03,7.39-7.06,0-9.83-4.66-9.83-10.88s3.23-11.22,10-11.22,8.95,3.99,8.95,10.21v1.85Zm-3.11-2.98c0-4.45-1.72-6.55-5.92-6.55s-6.55,2.65-6.89,6.97h12.81v-.42Z"/><path class="cls-9" d="m751.36,1216.82v-1.18h2.94v1.13c0,2.86,2.14,4.49,5.96,4.49s5.8-1.01,5.8-3.78c0-2.06-1.01-2.81-3.86-3.32l-4.62-.84c-3.02-.55-5.54-2.02-5.54-5.5,0-3.15,2.35-6.13,8.4-6.13s8.4,3.02,8.4,7.23v.88h-2.98v-.76c0-3.45-2.14-4.92-5.42-4.92-3.95,0-5.33,1.34-5.33,3.36s1.01,2.86,3.91,3.4l4.03.76c4.12.76,6.09,1.93,6.09,5.59,0,4.58-4.12,6.55-8.78,6.55-7.31,0-8.99-3.28-8.99-6.97Z"/><path class="cls-9" d="m784.67,1190.48h2.98v6.51h-2.98v-6.51Zm0,11.76h2.94v21h-2.94v-21Z"/><path class="cls-9" d="m795,1202.24h2.6l.29,3.49c1.01-2.14,3.28-4.03,7.35-4.03,4.75,0,7.77,2.52,7.77,7.94v13.61h-2.94v-13.27c0-4.33-2.14-5.71-5.5-5.71-3.82,0-6.64,2.69-6.64,5.63v13.36h-2.94v-21Z"/><path class="cls-9" d="m831.71,1200.94h-3.36v-5.08c0-3.95.88-5.29,3.4-5.96l.67,1.85c-1.76.67-2.06,1.09-2.06,3.78v.34h1.34v5.08Zm5.92,0h-3.36v-5.08c0-3.95.88-5.29,3.4-5.96l.67,1.85c-1.76.67-2.06,1.09-2.06,3.78v.34h1.34v5.08Z"/><path class="cls-9" d="m874.72,1209.64v13.61h-2.94v-13.27c0-4.33-2.14-5.71-4.75-5.71-3.82,0-6.17,2.69-6.17,5.63v13.36h-2.94v-13.27c0-4.33-1.85-5.71-4.83-5.71-3.61,0-6.13,2.69-6.13,5.63v13.36h-2.94v-21h2.6l.29,3.49c1.01-2.02,3.07-4.03,6.93-4.03,2.94,0,5.38,1.39,6.43,4.29,1.22-2.39,3.57-4.29,7.14-4.29,4.29,0,7.31,2.52,7.31,7.94Z"/><path class="cls-9" d="m879.12,1199.68c1.76-.67,2.06-1.09,2.06-3.78v-.34h-1.34v-5.08h3.36v5.08c0,3.95-.88,5.29-3.4,5.96l-.67-1.85Zm5.92,0c1.76-.67,2.06-1.09,2.06-3.78v-.34h-1.34v-5.08h3.36v5.08c0,3.95-.88,5.29-3.4,5.96l-.67-1.85Z"/><path class="cls-9" d="m903.4,1217.45c0-3.95,2.23-6.09,7.86-6.09h6.34v-1.72c0-2.98-1.26-5.42-5.46-5.42-3.95,0-5.33,1.51-5.33,4.12v.88h-2.98v-.84c0-5,4.2-6.68,8.32-6.68,5.8,0,8.4,2.86,8.4,8.44v13.11h-2.06l-.55-2.98h-.08c-1.26,1.89-3.7,3.53-7.35,3.53-4.92,0-7.1-2.31-7.1-6.34Zm14.2-1.85v-1.76h-7.01c-2.65,0-4.03.92-4.03,3.61,0,2.35,1.26,3.86,4.5,3.86,4.16,0,6.55-2.14,6.55-5.71Z"/><path class="cls-9" d="m927.89,1202.24h2.6l.29,3.49c1.01-2.14,3.28-4.03,7.35-4.03,4.75,0,7.77,2.52,7.77,7.94v13.61h-2.94v-13.27c0-4.33-2.14-5.71-5.5-5.71-3.82,0-6.64,2.69-6.64,5.63v13.36h-2.94v-21Z"/><path class="cls-9" d="m951.57,1212.79c0-7.1,4.28-11.09,10.04-11.09,3.7,0,6.22,1.6,7.31,3.74h.04v-14.95h2.94v32.77h-1.97l-.67-3.61h-.08c-1.18,2.31-3.95,4.16-7.77,4.16-6.3,0-9.83-3.99-9.83-11.01Zm17.64-.5c0-5.5-3.36-8.07-7.35-8.07-3.11,0-7.14,1.47-7.14,8.4s3.61,8.61,7.14,8.61c4.24,0,7.35-2.73,7.35-8.95Z"/><path class="cls-9" d="m990.59,1200.94h-3.36v-5.08c0-3.95.88-5.29,3.4-5.96l.67,1.85c-1.76.67-2.06,1.09-2.06,3.78v.34h1.34v5.08Zm5.92,0h-3.36v-5.08c0-3.95.88-5.29,3.4-5.96l.67,1.85c-1.76.67-2.06,1.09-2.06,3.78v.34h1.34v5.08Z"/><path class="cls-9" d="m1002.9,1202.24h2.6l.29,3.49c1.01-2.14,3.28-4.03,7.35-4.03,4.75,0,7.77,2.52,7.77,7.94v13.61h-2.94v-13.27c0-4.33-2.14-5.71-5.5-5.71-3.82,0-6.64,2.69-6.64,5.63v13.36h-2.94v-21Z"/><path class="cls-9" d="m1025.33,1199.68c1.76-.67,2.06-1.09,2.06-3.78v-.34h-1.34v-5.08h3.36v5.08c0,3.95-.88,5.29-3.4,5.96l-.67-1.85Zm5.92,0c1.76-.67,2.06-1.09,2.06-3.78v-.34h-1.34v-5.08h3.36v5.08c0,3.95-.88,5.29-3.4,5.96l-.67-1.85Z"/><line class="cls-5" x1="915.18" y1="1249.59" x2="915.18" y2="1506.37"/><line class="cls-5" x1="1332.3" y1="1747.43" x2="1332.3" y2="2040.42"/><line class="cls-5" x1="1247.41" y1="2232.93" x2="1247.41" y2="2391.5"/><line class="cls-5" x1="1254.91" y1="759.78" x2="1254.91" y2="1020.51"/><path class="cls-9" d="m968.74,1059.24h-3.36v-5.08c0-3.95.88-5.29,3.4-5.96l.67,1.85c-1.76.67-2.06,1.09-2.06,3.78v.34h1.34v5.08Zm5.92,0h-3.36v-5.08c0-3.95.88-5.29,3.4-5.96l.67,1.85c-1.76.67-2.06,1.09-2.06,3.78v.34h1.34v5.08Z"/><path class="cls-9" d="m981.04,1048.78h2.94v23.23l12.14-11.47h3.65v.04l-8.4,7.86,8.78,13.06v.04h-3.36l-7.39-11.22-5.42,5.04v6.17h-2.94v-32.77Z"/><path class="cls-9" d="m1003.3,1057.98c1.76-.67,2.06-1.09,2.06-3.78v-.34h-1.34v-5.08h3.36v5.08c0,3.95-.88,5.29-3.4,5.96l-.67-1.85Zm5.92,0c1.76-.67,2.06-1.09,2.06-3.78v-.34h-1.35v-5.08h3.36v5.08c0,3.95-.88,5.29-3.4,5.96l-.67-1.85Z"/><path class="cls-9" d="m1027.16,1071.09c0-7.1,4.28-11.09,10.04-11.09,3.7,0,6.22,1.6,7.31,3.74h.04v-14.95h2.94v32.77h-1.97l-.67-3.61h-.08c-1.18,2.31-3.95,4.16-7.77,4.16-6.3,0-9.83-3.99-9.83-11.01Zm17.64-.5c0-5.5-3.36-8.07-7.35-8.07-3.11,0-7.14,1.47-7.14,8.4s3.61,8.61,7.14,8.61c4.24,0,7.35-2.73,7.35-8.95Z"/><path class="cls-9" d="m1054.84,1060.54h2.6l.29,3.91c1.01-2.14,3.07-4.45,6.76-4.45,1.26,0,2.18.21,3.02.55v3.15c-1.13-.5-2.1-.76-3.4-.76-3.74,0-6.34,2.81-6.34,5.75v12.85h-2.94v-21Z"/><path class="cls-9" d="m1070.46,1075.75c0-3.95,2.23-6.09,7.86-6.09h6.34v-1.72c0-2.98-1.26-5.42-5.46-5.42-3.95,0-5.34,1.51-5.34,4.12v.88h-2.98v-.84c0-5,4.2-6.68,8.32-6.68,5.8,0,8.4,2.86,8.4,8.44v13.11h-2.06l-.55-2.98h-.08c-1.26,1.89-3.7,3.53-7.35,3.53-4.91,0-7.1-2.31-7.1-6.34Zm14.2-1.85v-1.76h-7.02c-2.65,0-4.03.92-4.03,3.61,0,2.35,1.26,3.86,4.5,3.86,4.16,0,6.55-2.14,6.55-5.71Z"/><path class="cls-9" d="m1091.16,1060.59v-.04h2.98l5.75,17.48h.08l6.3-17.48h2.69l6.17,17.48h.08l5.76-17.48h2.86v.04l-7.18,20.96h-3.03l-5.96-17.05h-.08l-6.22,17.05h-3.03l-7.18-20.96Z"/><path class="cls-9" d="m1128.67,1060.54h2.6l.29,3.49c1.01-2.14,3.28-4.03,7.35-4.03,4.75,0,7.77,2.52,7.77,7.94v13.61h-2.94v-13.27c0-4.33-2.14-5.71-5.5-5.71-3.82,0-6.64,2.69-6.64,5.63v13.36h-2.94v-21Z"/><path class="cls-9" d="m1163.28,1074.15v-13.61h2.94v13.27c0,4.33,2.14,5.71,5.42,5.71,3.74,0,6.55-2.69,6.55-5.63v-13.36h2.94v21h-2.61l-.25-3.36h-.08c-.97,2.02-3.23,3.91-7.22,3.91-4.66,0-7.69-2.52-7.69-7.94Z"/><path class="cls-9" d="m1186.59,1075.12v-1.18h2.94v1.13c0,2.86,2.14,4.49,5.96,4.49s5.8-1.01,5.8-3.78c0-2.06-1.01-2.81-3.86-3.32l-4.62-.84c-3.03-.55-5.54-2.02-5.54-5.5,0-3.15,2.35-6.13,8.4-6.13s8.4,3.02,8.4,7.23v.88h-2.98v-.76c0-3.45-2.14-4.92-5.42-4.92-3.95,0-5.33,1.34-5.33,3.36s1.01,2.86,3.91,3.4l4.03.76c4.12.76,6.09,1.93,6.09,5.59,0,4.58-4.12,6.55-8.78,6.55-7.31,0-8.99-3.28-8.99-6.97Z"/><path class="cls-9" d="m1210.23,1048.78h2.98v6.51h-2.98v-6.51Zm0,11.76h2.94v21h-2.94v-21Z"/><path class="cls-9" d="m1220.57,1060.54h2.61l.29,3.49c1.01-2.14,3.28-4.03,7.35-4.03,4.75,0,7.77,2.52,7.77,7.94v13.61h-2.94v-13.27c0-4.33-2.14-5.71-5.5-5.71-3.82,0-6.64,2.69-6.64,5.63v13.36h-2.94v-21Z"/><path class="cls-9" d="m1245.3,1083.35v-.13h3.11v.13c0,2.9,1.93,4.33,6.13,4.33,4.79,0,7.02-2.94,7.02-7.86v-2.1h-.08c-1.09,2.18-3.65,4.07-7.48,4.07-6.3,0-9.74-3.99-9.74-10.71,0-7.1,4.37-11.09,9.96-11.09,3.78,0,6.55,1.81,7.56,4.12h.13l.29-3.57h2.31v19.16c0,5.88-2.81,10.71-10.33,10.71-6.3,0-8.86-2.98-8.86-7.06Zm16.59-12.77c0-5.5-3.36-8.07-7.35-8.07-3.03,0-7.14,1.47-7.14,8.4s3.57,8.32,7.1,8.32c4.24,0,7.39-2.73,7.39-8.65Z"/><path class="cls-9" d="m1292.47,1078.86v2.6c-.76.21-2.14.59-4.03.59-3.82,0-6.34-1.6-6.34-6.89v-12.18h-4.16v-2.44h4.16v-6.05l2.94-1.43v7.48h5.92v2.44h-5.92v11.8c0,2.82.76,4.58,3.4,4.58,1.6,0,3.23-.29,4.03-.5Z"/><path class="cls-9" d="m1294.57,1060.59v-.04h2.98l5.75,17.48h.08l6.3-17.48h2.69l6.17,17.48h.08l5.76-17.48h2.86v.04l-7.18,20.96h-3.03l-5.96-17.05h-.08l-6.22,17.05h-3.03l-7.18-20.96Z"/><path class="cls-9" d="m1329.56,1071.05c0-6.22,3.32-11.05,10.38-11.05,6.59,0,10.25,4.83,10.25,11.05s-3.7,11.05-10.29,11.05c-7.27,0-10.33-4.83-10.33-11.05Zm17.56,0c0-5.33-2.9-8.49-7.22-8.49-4.75,0-7.27,3.15-7.27,8.49s2.56,8.49,7.27,8.49c4.33,0,7.22-3.15,7.22-8.49Z"/><path class="cls-9" d="m1363.83,1075.12v-1.18h2.94v1.13c0,2.86,2.14,4.49,5.96,4.49s5.8-1.01,5.8-3.78c0-2.06-1.01-2.81-3.86-3.32l-4.62-.84c-3.03-.55-5.54-2.02-5.54-5.5,0-3.15,2.35-6.13,8.4-6.13s8.4,3.02,8.4,7.23v.88h-2.98v-.76c0-3.45-2.14-4.92-5.42-4.92-3.95,0-5.33,1.34-5.33,3.36s1.01,2.86,3.91,3.4l4.03.76c4.12.76,6.09,1.93,6.09,5.59,0,4.58-4.12,6.55-8.78,6.55-7.31,0-8.99-3.28-8.99-6.97Z"/><path class="cls-9" d="m1398.44,1078.86v2.6c-.76.21-2.14.59-4.03.59-3.82,0-6.34-1.6-6.34-6.89v-12.18h-4.16v-2.44h4.16v-6.05l2.94-1.43v7.48h5.92v2.44h-5.92v11.8c0,2.82.76,4.58,3.4,4.58,1.6,0,3.23-.29,4.03-.5Z"/><path class="cls-9" d="m1403.27,1060.54h2.6l.29,3.91c1.01-2.14,3.07-4.45,6.76-4.45,1.26,0,2.18.21,3.02.55v3.15c-1.13-.5-2.1-.76-3.4-.76-3.74,0-6.34,2.81-6.34,5.75v12.85h-2.94v-21Z"/><path class="cls-9" d="m1418.26,1071.05c0-6.22,3.32-11.05,10.38-11.05,6.6,0,10.25,4.83,10.25,11.05s-3.7,11.05-10.29,11.05c-7.27,0-10.33-4.83-10.33-11.05Zm17.56,0c0-5.33-2.9-8.49-7.22-8.49-4.75,0-7.27,3.15-7.27,8.49s2.56,8.49,7.27,8.49c4.33,0,7.22-3.15,7.22-8.49Z"/><path class="cls-9" d="m1444.13,1048.78h2.94v23.23l12.14-11.47h3.65v.04l-8.4,7.86,8.78,13.06v.04h-3.36l-7.39-11.22-5.42,5.04v6.17h-2.94v-32.77Z"/><path class="cls-9" d="m1484.5,1072.05h-15.96c.17,4.79,2.48,7.48,6.93,7.48,3.82,0,5.67-1.43,5.96-4.83h2.98c-.29,4.24-3.28,7.39-9.03,7.39-7.06,0-9.83-4.66-9.83-10.88s3.23-11.22,10-11.22,8.95,3.99,8.95,10.21v1.85Zm-3.11-2.98c0-4.45-1.72-6.55-5.92-6.55s-6.55,2.65-6.89,6.97h12.81v-.42Z"/><path class="cls-9" d="m1488.49,1075.12v-1.18h2.94v1.13c0,2.86,2.14,4.49,5.96,4.49s5.8-1.01,5.8-3.78c0-2.06-1.01-2.81-3.86-3.32l-4.62-.84c-3.03-.55-5.54-2.02-5.54-5.5,0-3.15,2.35-6.13,8.4-6.13s8.4,3.02,8.4,7.23v.88h-2.98v-.76c0-3.45-2.14-4.92-5.42-4.92-3.95,0-5.33,1.34-5.33,3.36s1.01,2.86,3.91,3.4l4.03.76c4.12.76,6.09,1.93,6.09,5.59,0,4.58-4.12,6.55-8.78,6.55-7.31,0-8.99-3.28-8.99-6.97Z"/><path class="cls-9" d="m1132.1,2075.16c0-12.01,6.76-17.26,14.74-17.26,6.97,0,12.39,3.74,12.39,12.01v.8h-2.86v-.92c0-5.92-3.78-9.24-9.45-9.24-6.72,0-11.76,4.58-11.76,14.32s5.04,14.24,11.72,14.24c5.38,0,9.54-2.86,9.54-9.2v-.59h2.77v.42c0,8.02-5.33,12.01-12.56,12.01-7.98,0-14.53-4.87-14.53-16.59Z"/><path class="cls-9" d="m1165.53,2058.44h2.94v32.77h-2.94v-32.77Z"/><path class="cls-9" d="m1174.14,2080.7c0-6.22,3.32-11.05,10.38-11.05,6.59,0,10.25,4.83,10.25,11.05s-3.7,11.05-10.29,11.05c-7.27,0-10.33-4.83-10.33-11.05Zm17.56,0c0-5.33-2.9-8.49-7.22-8.49-4.75,0-7.27,3.15-7.27,8.49s2.56,8.49,7.27,8.49c4.33,0,7.22-3.15,7.22-8.49Z"/><path class="cls-9" d="m1198.75,2084.78v-1.18h2.94v1.13c0,2.86,2.14,4.49,5.96,4.49s5.8-1.01,5.8-3.78c0-2.06-1.01-2.81-3.86-3.32l-4.62-.84c-3.02-.55-5.54-2.02-5.54-5.5,0-3.15,2.35-6.13,8.4-6.13s8.4,3.02,8.4,7.23v.88h-2.98v-.76c0-3.45-2.14-4.92-5.42-4.92-3.95,0-5.33,1.34-5.33,3.36s1.01,2.86,3.91,3.4l4.03.76c4.12.76,6.09,1.93,6.09,5.59,0,4.58-4.12,6.55-8.78,6.55-7.31,0-8.99-3.28-8.99-6.97Z"/><path class="cls-9" d="m1239.66,2081.71h-15.96c.17,4.79,2.48,7.48,6.93,7.48,3.82,0,5.67-1.43,5.97-4.83h2.98c-.29,4.24-3.28,7.39-9.03,7.39-7.06,0-9.83-4.66-9.83-10.88s3.23-11.22,10-11.22,8.95,3.99,8.95,10.21v1.85Zm-3.11-2.98c0-4.45-1.72-6.55-5.92-6.55s-6.55,2.65-6.89,6.97h12.81v-.42Z"/><path class="cls-9" d="m1243.86,2080.74c0-7.1,4.28-11.09,10.04-11.09,3.7,0,6.22,1.6,7.31,3.74h.04v-14.95h2.94v32.77h-1.97l-.67-3.61h-.08c-1.18,2.31-3.95,4.16-7.77,4.16-6.3,0-9.83-3.99-9.83-11.01Zm17.64-.5c0-5.5-3.36-8.07-7.35-8.07-3.11,0-7.14,1.47-7.14,8.4s3.61,8.61,7.14,8.61c4.24,0,7.35-2.73,7.35-8.95Z"/><path class="cls-9" d="m1284.01,2087.72h-.08l-.76,3.49h-1.97v-32.77h2.94v15.25h.04c1.26-2.31,4.07-4.03,7.69-4.03,6.3,0,9.66,3.99,9.66,11.01s-4.29,11.09-9.87,11.09c-3.78,0-6.55-1.64-7.65-4.03Zm14.37-6.89c0-7.18-3.4-8.61-6.93-8.61-4.24,0-7.56,2.73-7.56,8.44,0,6.01,3.45,8.57,7.44,8.57,3.02,0,7.06-1.47,7.06-8.4Z"/><path class="cls-9" d="m1305.73,2080.7c0-6.22,3.32-11.05,10.38-11.05,6.59,0,10.25,4.83,10.25,11.05s-3.7,11.05-10.29,11.05c-7.27,0-10.33-4.83-10.33-11.05Zm17.56,0c0-5.33-2.9-8.49-7.22-8.49-4.75,0-7.27,3.15-7.27,8.49s2.56,8.49,7.27,8.49c4.33,0,7.22-3.15,7.22-8.49Z"/><path class="cls-9" d="m1328.66,2070.24v-.04h2.98l5.75,17.48h.08l6.3-17.48h2.69l6.17,17.48h.08l5.75-17.48h2.86v.04l-7.18,20.96h-3.02l-5.96-17.05h-.08l-6.22,17.05h-3.02l-7.18-20.96Z"/><path class="cls-9" d="m1366.16,2058.44h2.94v32.77h-2.94v-32.77Z"/><path class="cls-9" d="m1374.56,2084.78v-1.18h2.94v1.13c0,2.86,2.14,4.49,5.96,4.49s5.8-1.01,5.8-3.78c0-2.06-1.01-2.81-3.86-3.32l-4.62-.84c-3.02-.55-5.54-2.02-5.54-5.5,0-3.15,2.35-6.13,8.4-6.13s8.4,3.02,8.4,7.23v.88h-2.98v-.76c0-3.45-2.14-4.92-5.42-4.92-3.95,0-5.33,1.34-5.33,3.36s1.01,2.86,3.91,3.4l4.03.76c4.12.76,6.09,1.93,6.09,5.59,0,4.58-4.12,6.55-8.78,6.55-7.31,0-8.99-3.28-8.99-6.97Z"/><path class="cls-9" d="m1407.87,2058.44h2.98v6.51h-2.98v-6.51Zm0,11.76h2.94v21h-2.94v-21Z"/><path class="cls-9" d="m1418.2,2070.2h2.6l.29,3.49c1.01-2.14,3.28-4.03,7.35-4.03,4.75,0,7.77,2.52,7.77,7.94v13.61h-2.94v-13.27c0-4.33-2.14-5.71-5.5-5.71-3.82,0-6.64,2.69-6.64,5.63v13.36h-2.94v-21Z"/><path class="cls-9" d="m1454.91,2068.9h-3.36v-5.08c0-3.95.88-5.29,3.4-5.96l.67,1.85c-1.76.67-2.06,1.09-2.06,3.78v.34h1.34v5.08Zm5.92,0h-3.36v-5.08c0-3.95.88-5.29,3.4-5.96l.67,1.85c-1.76.67-2.06,1.09-2.06,3.78v.34h1.34v5.08Z"/><path class="cls-9" d="m1467.22,2070.2h2.39l.34,3.87h.08c1.13-2.48,4.03-4.41,7.86-4.41,6.3,0,9.66,3.99,9.66,11.01s-4.29,11.09-9.87,11.09c-3.78,0-6.38-1.6-7.43-3.7h-.08v11.55h-2.94v-29.41Zm17.18,10.63c0-7.18-3.4-8.61-6.93-8.61-4.24,0-7.56,2.73-7.56,8.44,0,6.01,3.45,8.57,7.44,8.57,3.02,0,7.06-1.47,7.06-8.4Z"/><path class="cls-9" d="m1488.8,2067.64c1.76-.67,2.06-1.09,2.06-3.78v-.34h-1.34v-5.08h3.36v5.08c0,3.95-.88,5.29-3.4,5.96l-.67-1.85Zm5.92,0c1.76-.67,2.06-1.09,2.06-3.78v-.34h-1.34v-5.08h3.36v5.08c0,3.95-.88,5.29-3.4,5.96l-.67-1.85Z"/><path class="cls-9" d="m1513.08,2085.41c0-3.95,2.23-6.09,7.86-6.09h6.34v-1.72c0-2.98-1.26-5.42-5.46-5.42-3.95,0-5.33,1.51-5.33,4.12v.88h-2.98v-.84c0-5,4.2-6.68,8.32-6.68,5.8,0,8.4,2.86,8.4,8.44v13.11h-2.06l-.55-2.98h-.08c-1.26,1.89-3.7,3.53-7.35,3.53-4.92,0-7.1-2.31-7.1-6.34Zm14.2-1.85v-1.76h-7.01c-2.65,0-4.03.92-4.03,3.61,0,2.35,1.26,3.86,4.5,3.86,4.16,0,6.55-2.14,6.55-5.71Z"/><path class="cls-9" d="m1537.57,2070.2h2.6l.29,3.49c1.01-2.14,3.28-4.03,7.35-4.03,4.75,0,7.77,2.52,7.77,7.94v13.61h-2.94v-13.27c0-4.33-2.14-5.71-5.5-5.71-3.82,0-6.64,2.69-6.64,5.63v13.36h-2.94v-21Z"/><path class="cls-9" d="m1561.25,2080.74c0-7.1,4.28-11.09,10.04-11.09,3.7,0,6.22,1.6,7.31,3.74h.04v-14.95h2.94v32.77h-1.97l-.67-3.61h-.08c-1.18,2.31-3.95,4.16-7.77,4.16-6.3,0-9.83-3.99-9.83-11.01Zm17.64-.5c0-5.5-3.36-8.07-7.35-8.07-3.11,0-7.14,1.47-7.14,8.4s3.61,8.61,7.14,8.61c4.24,0,7.35-2.73,7.35-8.95Z"/><path class="cls-9" d="m1600.27,2068.9h-3.36v-5.08c0-3.95.88-5.29,3.4-5.96l.67,1.85c-1.76.67-2.06,1.09-2.06,3.78v.34h1.34v5.08Zm5.92,0h-3.36v-5.08c0-3.95.88-5.29,3.4-5.96l.67,1.85c-1.76.67-2.06,1.09-2.06,3.78v.34h1.34v5.08Z"/><path class="cls-9" d="m1615.39,2087.72h-.08l-.76,3.49h-1.97v-32.77h2.94v15.25h.04c1.26-2.31,4.07-4.03,7.69-4.03,6.3,0,9.66,3.99,9.66,11.01s-4.29,11.09-9.87,11.09c-3.78,0-6.55-1.64-7.65-4.03Zm14.37-6.89c0-7.18-3.4-8.61-6.93-8.61-4.24,0-7.56,2.73-7.56,8.44,0,6.01,3.45,8.57,7.44,8.57,3.02,0,7.06-1.47,7.06-8.4Z"/><path class="cls-9" d="m1634.17,2067.64c1.76-.67,2.06-1.09,2.06-3.78v-.34h-1.34v-5.08h3.36v5.08c0,3.95-.88,5.29-3.4,5.96l-.67-1.85Zm5.92,0c1.76-.67,2.06-1.09,2.06-3.78v-.34h-1.34v-5.08h3.36v5.08c0,3.95-.88,5.29-3.4,5.96l-.67-1.85Z"/><path class="cls-12" d="m1280.79,1697.38c1.78,0,3.91.36,6.04,1.07,12.79,5.68,28.42,10.66,43.7,10.66,36.24,0,53.29-41.21,53.29-91.65,0-31.26-6.04-62.52-23.45-62.52s-31.62,14.21-57.55,73.18l-10.66,24.16c-7.81,18.12-10.3,34.1-11.37,45.12Z"/><path class="cls-9" d="m1133.22,2197.08v-2.02h3.02v2.19c0,3.74,2.6,6.05,7.94,6.05s8.44-1.97,8.44-6.22c0-3.32-1.39-5.17-4.92-6.09l-6.64-1.72c-4.33-1.13-7.18-2.98-7.18-8.15s3.78-8.91,10.92-8.91,10.59,3.45,10.59,9.07v2.94h-3.02v-2.81c0-4.62-3.07-6.51-7.56-6.51-5.12,0-7.81,2.14-7.81,6.01,0,3.61,1.76,4.71,5.54,5.71l5.75,1.55c5.12,1.39,7.43,3.74,7.43,8.65,0,6.09-4.33,9.24-11.47,9.24-9.12,0-11.05-4.71-11.05-8.99Z"/><path class="cls-9" d="m1162.92,2172.76h2.94v15.16c1.05-2.1,3.28-3.95,7.31-3.95,4.75,0,7.77,2.52,7.77,7.94v13.61h-2.94v-13.28c0-4.33-2.14-5.71-5.5-5.71-3.82,0-6.64,2.69-6.64,5.63v13.36h-2.94v-32.77Z"/><path class="cls-9" d="m1186.61,2195.03c0-6.22,3.32-11.05,10.38-11.05,6.59,0,10.25,4.83,10.25,11.05s-3.7,11.05-10.29,11.05c-7.27,0-10.33-4.83-10.33-11.05Zm17.56,0c0-5.34-2.9-8.49-7.22-8.49-4.75,0-7.27,3.15-7.27,8.49s2.56,8.48,7.27,8.48c4.33,0,7.22-3.15,7.22-8.48Z"/><path class="cls-9" d="m1213.11,2184.52h2.6l.29,3.91c1.01-2.14,3.07-4.45,6.76-4.45,1.26,0,2.18.21,3.02.55v3.15c-1.13-.5-2.1-.76-3.4-.76-3.74,0-6.34,2.81-6.34,5.75v12.86h-2.94v-21Z"/><path class="cls-9" d="m1241.38,2202.84v2.61c-.76.21-2.14.59-4.03.59-3.82,0-6.34-1.6-6.34-6.89v-12.18h-4.16v-2.44h4.16v-6.05l2.94-1.43v7.48h5.92v2.44h-5.92v11.8c0,2.81.76,4.58,3.4,4.58,1.6,0,3.23-.29,4.03-.5Z"/><path class="cls-9" d="m1254.6,2199.73c0-3.95,2.23-6.09,7.86-6.09h6.34v-1.72c0-2.98-1.26-5.42-5.46-5.42-3.95,0-5.33,1.51-5.33,4.12v.88h-2.98v-.84c0-5,4.2-6.68,8.32-6.68,5.8,0,8.4,2.86,8.4,8.44v13.11h-2.06l-.55-2.98h-.08c-1.26,1.89-3.7,3.53-7.35,3.53-4.92,0-7.1-2.31-7.1-6.34Zm14.2-1.85v-1.76h-7.01c-2.65,0-4.03.92-4.03,3.61,0,2.35,1.26,3.86,4.5,3.86,4.16,0,6.55-2.14,6.55-5.71Z"/><path class="cls-9" d="m1277.2,2199.1v-1.18h2.94v1.13c0,2.86,2.14,4.49,5.96,4.49s5.8-1.01,5.8-3.78c0-2.06-1.01-2.81-3.86-3.32l-4.62-.84c-3.02-.55-5.54-2.02-5.54-5.5,0-3.15,2.35-6.13,8.4-6.13s8.4,3.03,8.4,7.23v.88h-2.98v-.76c0-3.45-2.14-4.91-5.42-4.91-3.95,0-5.33,1.34-5.33,3.36s1.01,2.86,3.91,3.4l4.03.76c4.12.76,6.09,1.93,6.09,5.59,0,4.58-4.12,6.55-8.78,6.55-7.31,0-8.99-3.28-8.99-6.97Z"/><path class="cls-9" d="m1299.17,2195.19c0-6.38,3.23-11.22,10-11.22s8.95,3.91,8.95,8.95v.42h-3.11v-.63c0-3.82-1.64-6.09-5.84-6.09-4.75,0-7.01,3.11-7.01,8.4,0,5.63,2.39,8.48,6.93,8.48,3.82,0,5.84-1.85,5.92-5.67h3.02c-.08,4.66-3.15,8.23-9.03,8.23-7.22,0-9.83-4.75-9.83-10.88Z"/><path class="cls-9" d="m1341.25,2196.03h-15.96c.17,4.79,2.48,7.48,6.93,7.48,3.82,0,5.67-1.43,5.97-4.83h2.98c-.29,4.24-3.28,7.39-9.03,7.39-7.06,0-9.83-4.66-9.83-10.88s3.23-11.22,10-11.22,8.95,3.99,8.95,10.21v1.85Zm-3.11-2.98c0-4.45-1.72-6.55-5.92-6.55s-6.55,2.65-6.89,6.97h12.81v-.42Z"/><path class="cls-9" d="m1347.13,2184.52h2.6l.29,3.49c1.01-2.14,3.28-4.03,7.35-4.03,4.75,0,7.77,2.52,7.77,7.94v13.61h-2.94v-13.28c0-4.33-2.14-5.71-5.5-5.71-3.82,0-6.64,2.69-6.64,5.63v13.36h-2.94v-21Z"/><path class="cls-9" d="m1370.82,2195.07c0-7.1,4.28-11.09,10.04-11.09,3.7,0,6.22,1.6,7.31,3.74h.04v-14.95h2.94v32.77h-1.97l-.67-3.61h-.08c-1.18,2.31-3.95,4.16-7.77,4.16-6.3,0-9.83-3.99-9.83-11.01Zm17.64-.5c0-5.5-3.36-8.06-7.35-8.06-3.11,0-7.14,1.47-7.14,8.4s3.61,8.61,7.14,8.61c4.24,0,7.35-2.73,7.35-8.95Z"/><path class="cls-9" d="m1415.76,2196.03h-15.96c.17,4.79,2.48,7.48,6.93,7.48,3.82,0,5.67-1.43,5.97-4.83h2.98c-.29,4.24-3.28,7.39-9.03,7.39-7.06,0-9.83-4.66-9.83-10.88s3.23-11.22,10-11.22,8.95,3.99,8.95,10.21v1.85Zm-3.11-2.98c0-4.45-1.72-6.55-5.92-6.55s-6.55,2.65-6.89,6.97h12.81v-.42Z"/><path class="cls-9" d="m1421.64,2184.52h2.6l.29,3.91c1.01-2.14,3.07-4.45,6.76-4.45,1.26,0,2.18.21,3.02.55v3.15c-1.13-.5-2.1-.76-3.4-.76-3.74,0-6.34,2.81-6.34,5.75v12.86h-2.94v-21Z"/><path class="cls-9" d="m1448.6,2172.76h2.98v6.51h-2.98v-6.51Zm0,11.76h2.94v21h-2.94v-21Z"/><path class="cls-9" d="m1458.93,2184.52h2.6l.29,3.49c1.01-2.14,3.28-4.03,7.35-4.03,4.75,0,7.77,2.52,7.77,7.94v13.61h-2.94v-13.28c0-4.33-2.14-5.71-5.5-5.71-3.82,0-6.64,2.69-6.64,5.63v13.36h-2.94v-21Z"/><path class="cls-9" d="m1495.64,2183.22h-3.36v-5.08c0-3.95.88-5.29,3.4-5.96l.67,1.85c-1.76.67-2.06,1.09-2.06,3.78v.34h1.34v5.08Zm5.92,0h-3.36v-5.08c0-3.95.88-5.29,3.4-5.96l.67,1.85c-1.76.67-2.06,1.09-2.06,3.78v.34h1.34v5.08Z"/><path class="cls-9" d="m1511.69,2179.48v5.04h5.92v2.44h-5.92v18.57h-2.94v-18.57h-4.16v-2.44h4.16v-5.42c0-5.29,3.15-6.89,6.38-6.89,1.85,0,2.98.29,3.74.55v2.6c-.71-.21-1.89-.46-3.49-.46-2.65,0-3.7,1.76-3.7,4.58Z"/><path class="cls-9" d="m1522.23,2181.96c1.76-.67,2.06-1.09,2.06-3.78v-.34h-1.34v-5.08h3.36v5.08c0,3.95-.88,5.29-3.4,5.96l-.67-1.85Zm5.92,0c1.76-.67,2.06-1.09,2.06-3.78v-.34h-1.34v-5.08h3.36v5.08c0,3.95-.88,5.29-3.4,5.96l-.67-1.85Z"/><path class="cls-9" d="m1132.07,3169.43v-2.02h3.02v2.18c0,3.74,2.6,6.05,7.94,6.05s8.44-1.97,8.44-6.22c0-3.32-1.39-5.17-4.92-6.09l-6.64-1.72c-4.33-1.13-7.18-2.98-7.18-8.15s3.78-8.91,10.92-8.91,10.59,3.44,10.59,9.07v2.94h-3.02v-2.81c0-4.62-3.07-6.51-7.56-6.51-5.12,0-7.81,2.14-7.81,6.01,0,3.61,1.76,4.71,5.54,5.71l5.75,1.55c5.12,1.39,7.43,3.74,7.43,8.65,0,6.09-4.33,9.24-11.47,9.24-9.12,0-11.05-4.71-11.05-8.99Z"/><path class="cls-9" d="m1178.61,3168.38h-15.96c.17,4.79,2.48,7.48,6.93,7.48,3.82,0,5.67-1.43,5.97-4.83h2.98c-.29,4.24-3.28,7.39-9.03,7.39-7.06,0-9.83-4.66-9.83-10.88s3.23-11.22,10-11.22,8.95,3.99,8.95,10.21v1.85Zm-3.11-2.98c0-4.45-1.72-6.55-5.92-6.55s-6.55,2.65-6.89,6.97h12.81v-.42Z"/><path class="cls-9" d="m1215.19,3164.26v13.61h-2.94v-13.27c0-4.33-2.14-5.71-4.75-5.71-3.82,0-6.17,2.69-6.17,5.63v13.36h-2.94v-13.27c0-4.33-1.85-5.71-4.83-5.71-3.61,0-6.13,2.69-6.13,5.63v13.36h-2.94v-21h2.6l.29,3.49c1.01-2.02,3.07-4.03,6.93-4.03,2.94,0,5.38,1.39,6.43,4.29,1.22-2.39,3.57-4.29,7.14-4.29,4.29,0,7.31,2.52,7.31,7.94Z"/><path class="cls-9" d="m1222.53,3145.1h2.98v6.51h-2.98v-6.51Zm0,11.76h2.94v21h-2.94v-21Z"/><path class="cls-9" d="m1231.19,3164.39h10.59v2.81h-10.59v-2.81Z"/><path class="cls-9" d="m1250.59,3180.89c0,3.53-1.68,5.84-5.04,5.84-1.18,0-2.02-.13-2.94-.38v-2.6c.8.17,1.47.29,2.27.29,1.93,0,2.77-1.26,2.77-3.65v-23.52h2.94v24.03Zm-2.94-35.79h2.98v6.51h-2.98v-6.51Z"/><path class="cls-9" d="m1256.3,3167.37c0-6.22,3.32-11.05,10.38-11.05,6.59,0,10.25,4.83,10.25,11.05s-3.7,11.05-10.29,11.05c-7.27,0-10.33-4.83-10.33-11.05Zm17.56,0c0-5.33-2.9-8.49-7.22-8.49-4.75,0-7.27,3.15-7.27,8.49s2.56,8.49,7.27,8.49c4.33,0,7.22-3.15,7.22-8.49Z"/><path class="cls-9" d="m1282.8,3145.1h2.98v6.51h-2.98v-6.51Zm0,11.76h2.94v21h-2.94v-21Z"/><path class="cls-9" d="m1293.14,3156.87h2.6l.29,3.49c1.01-2.14,3.28-4.03,7.35-4.03,4.75,0,7.77,2.52,7.77,7.94v13.61h-2.94v-13.27c0-4.33-2.14-5.71-5.5-5.71-3.82,0-6.64,2.69-6.64,5.63v13.36h-2.94v-21Z"/><path class="cls-9" d="m1335.77,3168.38h-15.96c.17,4.79,2.48,7.48,6.93,7.48,3.82,0,5.67-1.43,5.97-4.83h2.98c-.29,4.24-3.28,7.39-9.03,7.39-7.06,0-9.83-4.66-9.83-10.88s3.23-11.22,10-11.22,8.95,3.99,8.95,10.21v1.85Zm-3.11-2.98c0-4.45-1.72-6.55-5.92-6.55s-6.55,2.65-6.89,6.97h12.81v-.42Z"/><path class="cls-9" d="m1339.97,3167.41c0-7.1,4.28-11.09,10.04-11.09,3.7,0,6.22,1.6,7.31,3.74h.04v-14.95h2.94v32.77h-1.97l-.67-3.61h-.08c-1.18,2.31-3.95,4.16-7.77,4.16-6.3,0-9.83-3.99-9.83-11.01Zm17.64-.5c0-5.5-3.36-8.07-7.35-8.07-3.11,0-7.14,1.47-7.14,8.4s3.61,8.61,7.14,8.61c4.24,0,7.35-2.73,7.35-8.95Z"/><path class="cls-9" d="m1377.3,3145.1h2.94v32.77h-2.94v-32.77Z"/><path class="cls-9" d="m1385.92,3167.37c0-6.22,3.32-11.05,10.38-11.05,6.59,0,10.25,4.83,10.25,11.05s-3.7,11.05-10.29,11.05c-7.27,0-10.33-4.83-10.33-11.05Zm17.56,0c0-5.33-2.9-8.49-7.22-8.49-4.75,0-7.27,3.15-7.27,8.49s2.56,8.49,7.27,8.49c4.33,0,7.22-3.15,7.22-8.49Z"/><path class="cls-9" d="m1408.85,3156.91v-.04h2.98l5.76,17.48h.08l6.3-17.48h2.69l6.17,17.48h.08l5.75-17.48h2.86v.04l-7.18,20.96h-3.02l-5.96-17.05h-.08l-6.22,17.05h-3.02l-7.18-20.96Z"/><path class="cls-9" d="m1462.78,3168.38h-15.96c.17,4.79,2.48,7.48,6.93,7.48,3.82,0,5.67-1.43,5.97-4.83h2.98c-.29,4.24-3.28,7.39-9.03,7.39-7.06,0-9.83-4.66-9.83-10.88s3.23-11.22,10-11.22,8.95,3.99,8.95,10.21v1.85Zm-3.11-2.98c0-4.45-1.72-6.55-5.92-6.55s-6.55,2.65-6.89,6.97h12.81v-.42Z"/><path class="cls-9" d="m1468.65,3156.87h2.6l.29,3.91c1.01-2.14,3.07-4.45,6.76-4.45,1.26,0,2.18.21,3.02.55v3.15c-1.13-.5-2.1-.76-3.4-.76-3.74,0-6.34,2.81-6.34,5.75v12.85h-2.94v-21Z"/><path class="cls-9" d="m1483.65,3167.54c0-6.38,3.23-11.22,10-11.22s8.95,3.91,8.95,8.95v.42h-3.11v-.63c0-3.82-1.64-6.09-5.84-6.09-4.75,0-7.02,3.11-7.02,8.4,0,5.63,2.39,8.49,6.93,8.49,3.82,0,5.84-1.85,5.92-5.67h3.02c-.08,4.66-3.15,8.23-9.03,8.23-7.22,0-9.83-4.75-9.83-10.88Z"/><path class="cls-9" d="m1507,3172.07c0-3.95,2.23-6.09,7.86-6.09h6.34v-1.72c0-2.98-1.26-5.42-5.46-5.42-3.95,0-5.33,1.51-5.33,4.12v.88h-2.98v-.84c0-5,4.2-6.68,8.32-6.68,5.8,0,8.4,2.86,8.4,8.44v13.11h-2.06l-.55-2.98h-.08c-1.26,1.89-3.7,3.53-7.35,3.53-4.92,0-7.1-2.31-7.1-6.34Zm14.2-1.85v-1.76h-7.01c-2.65,0-4.03.92-4.03,3.61,0,2.35,1.26,3.86,4.5,3.86,4.16,0,6.55-2.14,6.55-5.71Z"/><path class="cls-9" d="m1529.6,3171.44v-1.18h2.94v1.13c0,2.86,2.14,4.49,5.96,4.49s5.8-1.01,5.8-3.78c0-2.06-1.01-2.81-3.86-3.32l-4.62-.84c-3.02-.55-5.54-2.02-5.54-5.5,0-3.15,2.35-6.13,8.4-6.13s8.4,3.02,8.4,7.23v.88h-2.98v-.76c0-3.45-2.14-4.92-5.42-4.92-3.95,0-5.33,1.34-5.33,3.36s1.01,2.86,3.91,3.4l4.03.76c4.12.76,6.09,1.93,6.09,5.59,0,4.58-4.12,6.55-8.78,6.55-7.31,0-8.99-3.28-8.99-6.97Z"/><path class="cls-9" d="m1570.51,3168.38h-15.96c.17,4.79,2.48,7.48,6.93,7.48,3.82,0,5.67-1.43,5.97-4.83h2.98c-.29,4.24-3.28,7.39-9.03,7.39-7.06,0-9.83-4.66-9.83-10.88s3.23-11.22,10-11.22,8.95,3.99,8.95,10.21v1.85Zm-3.11-2.98c0-4.45-1.72-6.55-5.92-6.55s-6.55,2.65-6.89,6.97h12.81v-.42Z"/><path class="cls-9" d="m1586.04,3145.1h2.94v32.77h-2.94v-32.77Z"/><path class="cls-9" d="m1613.6,3168.38h-15.96c.17,4.79,2.48,7.48,6.93,7.48,3.82,0,5.67-1.43,5.97-4.83h2.98c-.29,4.24-3.28,7.39-9.03,7.39-7.06,0-9.83-4.66-9.83-10.88s3.23-11.22,10-11.22,8.95,3.99,8.95,10.21v1.85Zm-3.11-2.98c0-4.45-1.72-6.55-5.92-6.55s-6.55,2.65-6.89,6.97h12.81v-.42Z"/><path class="cls-9" d="m1620.07,3171.49v-12.18h-4.16v-2.44h4.16v-6.05l2.94-1.43v7.48h11.85v-6.05l2.94-1.43v7.48h5.92v2.44h-5.92v11.8c0,2.82.76,4.58,3.4,4.58,1.6,0,3.24-.29,4.03-.5v2.6c-.76.21-2.14.59-4.03.59-3.82,0-6.34-1.6-6.34-6.89v-12.18h-11.85v11.8c0,2.82.76,4.58,3.4,4.58,1.6,0,3.23-.29,4.03-.5v2.6c-.76.21-2.14.59-4.03.59-3.82,0-6.34-1.6-6.34-6.89Z"/><path class="cls-9" d="m1666.69,3168.38h-15.96c.17,4.79,2.48,7.48,6.93,7.48,3.82,0,5.67-1.43,5.97-4.83h2.98c-.29,4.24-3.28,7.39-9.03,7.39-7.06,0-9.83-4.66-9.83-10.88s3.23-11.22,10-11.22,8.95,3.99,8.95,10.21v1.85Zm-3.11-2.98c0-4.45-1.72-6.55-5.92-6.55s-6.55,2.65-6.89,6.97h12.81v-.42Z"/><path class="cls-9" d="m1672.56,3156.87h2.6l.29,3.91c1.01-2.14,3.07-4.45,6.76-4.45,1.26,0,2.18.21,3.02.55v3.15c-1.13-.5-2.1-.76-3.4-.76-3.74,0-6.34,2.81-6.34,5.75v12.85h-2.94v-21Z"/><path class="cls-9" d="m1687.77,3171.44v-1.18h2.94v1.13c0,2.86,2.14,4.49,5.96,4.49s5.8-1.01,5.8-3.78c0-2.06-1.01-2.81-3.86-3.32l-4.62-.84c-3.02-.55-5.54-2.02-5.54-5.5,0-3.15,2.35-6.13,8.4-6.13s8.4,3.02,8.4,7.23v.88h-2.98v-.76c0-3.45-2.14-4.92-5.42-4.92-3.95,0-5.33,1.34-5.33,3.36s1.01,2.86,3.91,3.4l4.03.76c4.12.76,6.09,1.93,6.09,5.59,0,4.58-4.12,6.55-8.78,6.55-7.31,0-8.99-3.28-8.99-6.97Z"/><path class="cls-9" d="m1210.78,1190.48h9.33c6.85,0,10,2.52,10,8.07,0,3.4-1.97,6.64-5.25,7.39v.08c3.78.55,6.85,2.73,6.85,7.9,0,6.3-3.24,9.33-11.72,9.33h-9.2v-32.77Zm8.86,14.53c6.13,0,7.44-2.9,7.44-6.51,0-3.87-2.06-5.42-7.48-5.42h-5.84v11.93h5.88Zm.13,15.63c6.47,0,8.86-1.68,8.86-6.72,0-4.12-1.97-6.39-9.03-6.39h-5.84v13.11h6.01Z"/><path class="cls-9" d="m1238.63,1202.24h2.6l.29,3.91c1.01-2.14,3.07-4.45,6.76-4.45,1.26,0,2.18.21,3.02.55v3.15c-1.13-.5-2.1-.76-3.4-.76-3.74,0-6.34,2.81-6.34,5.75v12.85h-2.94v-21Z"/><path class="cls-9" d="m1253.62,1212.75c0-6.22,3.32-11.05,10.38-11.05,6.59,0,10.25,4.83,10.25,11.05s-3.7,11.05-10.29,11.05c-7.27,0-10.33-4.83-10.33-11.05Zm17.56,0c0-5.33-2.9-8.49-7.22-8.49-4.75,0-7.27,3.15-7.27,8.49s2.56,8.49,7.27,8.49c4.33,0,7.22-3.15,7.22-8.49Z"/><path class="cls-9" d="m1279.49,1190.48h2.94v23.23l12.14-11.47h3.65v.04l-8.4,7.86,8.78,13.06v.04h-3.36l-7.39-11.22-5.42,5.04v6.17h-2.94v-32.77Z"/><path class="cls-9" d="m1319.86,1213.75h-15.96c.17,4.79,2.48,7.48,6.93,7.48,3.82,0,5.67-1.43,5.97-4.83h2.98c-.29,4.24-3.28,7.39-9.03,7.39-7.06,0-9.83-4.66-9.83-10.88s3.23-11.22,10-11.22,8.95,3.99,8.95,10.21v1.85Zm-3.11-2.98c0-4.45-1.72-6.55-5.92-6.55s-6.55,2.65-6.89,6.97h12.81v-.42Z"/><path class="cls-9" d="m1325.73,1202.24h2.6l.29,3.49c1.01-2.14,3.28-4.03,7.35-4.03,4.75,0,7.77,2.52,7.77,7.94v13.61h-2.94v-13.27c0-4.33-2.14-5.71-5.5-5.71-3.82,0-6.64,2.69-6.64,5.63v13.36h-2.94v-21Z"/><path class="cls-9" d="m1359.08,1212.91c0-6.38,3.23-11.22,10-11.22s8.95,3.91,8.95,8.95v.42h-3.11v-.63c0-3.82-1.64-6.09-5.84-6.09-4.75,0-7.02,3.11-7.02,8.4,0,5.63,2.39,8.49,6.93,8.49,3.82,0,5.84-1.85,5.92-5.67h3.02c-.08,4.66-3.15,8.23-9.03,8.23-7.22,0-9.83-4.75-9.83-10.88Z"/><path class="cls-9" d="m1382.22,1212.75c0-6.22,3.32-11.05,10.38-11.05,6.59,0,10.25,4.83,10.25,11.05s-3.7,11.05-10.29,11.05c-7.27,0-10.33-4.83-10.33-11.05Zm17.56,0c0-5.33-2.9-8.49-7.22-8.49-4.75,0-7.27,3.15-7.27,8.49s2.56,8.49,7.27,8.49c4.33,0,7.22-3.15,7.22-8.49Z"/><path class="cls-9" d="m1408.73,1202.24h2.6l.29,3.49c1.01-2.14,3.28-4.03,7.35-4.03,4.75,0,7.77,2.52,7.77,7.94v13.61h-2.94v-13.27c0-4.33-2.14-5.71-5.5-5.71-3.82,0-6.64,2.69-6.64,5.63v13.36h-2.94v-21Z"/><path class="cls-9" d="m1434.09,1202.24h2.6l.29,3.49c1.01-2.14,3.28-4.03,7.35-4.03,4.75,0,7.77,2.52,7.77,7.94v13.61h-2.94v-13.27c0-4.33-2.14-5.71-5.5-5.71-3.82,0-6.64,2.69-6.64,5.63v13.36h-2.94v-21Z"/><path class="cls-9" d="m1476.73,1213.75h-15.96c.17,4.79,2.48,7.48,6.93,7.48,3.82,0,5.67-1.43,5.97-4.83h2.98c-.29,4.24-3.28,7.39-9.03,7.39-7.06,0-9.83-4.66-9.83-10.88s3.23-11.22,10-11.22,8.95,3.99,8.95,10.21v1.85Zm-3.11-2.98c0-4.45-1.72-6.55-5.92-6.55s-6.55,2.65-6.89,6.97h12.81v-.42Z"/><path class="cls-9" d="m1480.92,1212.91c0-6.38,3.23-11.22,10-11.22s8.95,3.91,8.95,8.95v.42h-3.11v-.63c0-3.82-1.64-6.09-5.84-6.09-4.75,0-7.02,3.11-7.02,8.4,0,5.63,2.39,8.49,6.93,8.49,3.82,0,5.84-1.85,5.92-5.67h3.02c-.08,4.66-3.15,8.23-9.03,8.23-7.22,0-9.83-4.75-9.83-10.88Z"/><path class="cls-9" d="m1516.71,1220.56v2.6c-.76.21-2.14.59-4.03.59-3.82,0-6.34-1.6-6.34-6.89v-12.18h-4.16v-2.44h4.16v-6.05l2.94-1.43v7.48h5.92v2.44h-5.92v11.8c0,2.82.76,4.58,3.4,4.58,1.6,0,3.23-.29,4.03-.5Z"/><path class="cls-9" d="m1521.54,1190.48h2.98v6.51h-2.98v-6.51Zm0,11.76h2.94v21h-2.94v-21Z"/><path class="cls-9" d="m1530.19,1212.75c0-6.22,3.32-11.05,10.38-11.05,6.59,0,10.25,4.83,10.25,11.05s-3.7,11.05-10.29,11.05c-7.27,0-10.33-4.83-10.33-11.05Zm17.56,0c0-5.33-2.9-8.49-7.22-8.49-4.75,0-7.27,3.15-7.27,8.49s2.56,8.49,7.27,8.49c4.33,0,7.22-3.15,7.22-8.49Z"/><path class="cls-9" d="m1556.69,1202.24h2.6l.29,3.49c1.01-2.14,3.28-4.03,7.35-4.03,4.75,0,7.77,2.52,7.77,7.94v13.61h-2.94v-13.27c0-4.33-2.14-5.71-5.5-5.71-3.82,0-6.64,2.69-6.64,5.63v13.36h-2.94v-21Z"/><path class="cls-9" d="m1602.68,1220.56v2.6c-.76.21-2.14.59-4.03.59-3.82,0-6.34-1.6-6.34-6.89v-12.18h-4.16v-2.44h4.16v-6.05l2.94-1.43v7.48h5.92v2.44h-5.92v11.8c0,2.82.76,4.58,3.4,4.58,1.6,0,3.23-.29,4.03-.5Z"/><path class="cls-9" d="m1605.2,1212.75c0-6.22,3.32-11.05,10.38-11.05,6.59,0,10.25,4.83,10.25,11.05s-3.7,11.05-10.29,11.05c-7.27,0-10.33-4.83-10.33-11.05Zm17.56,0c0-5.33-2.9-8.49-7.22-8.49-4.75,0-7.27,3.15-7.27,8.49s2.56,8.49,7.27,8.49c4.33,0,7.22-3.15,7.22-8.49Z"/><path class="cls-9" d="m1628.13,1202.29v-.04h2.98l5.76,17.48h.08l6.3-17.48h2.69l6.17,17.48h.08l5.75-17.48h2.86v.04l-7.18,20.96h-3.02l-5.96-17.05h-.08l-6.22,17.05h-3.02l-7.18-20.96Z"/><path class="cls-9" d="m1663.54,1217.45c0-3.95,2.23-6.09,7.86-6.09h6.34v-1.72c0-2.98-1.26-5.42-5.46-5.42-3.95,0-5.33,1.51-5.33,4.12v.88h-2.98v-.84c0-5,4.2-6.68,8.32-6.68,5.8,0,8.4,2.86,8.4,8.44v13.11h-2.06l-.55-2.98h-.08c-1.26,1.89-3.7,3.53-7.35,3.53-4.92,0-7.1-2.31-7.1-6.34Zm14.2-1.85v-1.76h-7.01c-2.65,0-4.03.92-4.03,3.61,0,2.35,1.26,3.86,4.5,3.86,4.16,0,6.55-2.14,6.55-5.71Z"/><path class="cls-9" d="m1688.03,1202.24h2.6l.29,3.91c1.01-2.14,3.07-4.45,6.76-4.45,1.26,0,2.18.21,3.02.55v3.15c-1.13-.5-2.1-.76-3.4-.76-3.74,0-6.34,2.81-6.34,5.75v12.85h-2.94v-21Z"/><path class="cls-9" d="m1703.02,1212.79c0-7.1,4.28-11.09,10.04-11.09,3.7,0,6.22,1.6,7.31,3.74h.04v-14.95h2.94v32.77h-1.97l-.67-3.61h-.08c-1.18,2.31-3.95,4.16-7.77,4.16-6.3,0-9.83-3.99-9.83-11.01Zm17.64-.5c0-5.5-3.36-8.07-7.35-8.07-3.11,0-7.14,1.47-7.14,8.4s3.61,8.61,7.14,8.61c4.24,0,7.35-2.73,7.35-8.95Z"/><path class="cls-9" d="m1728.81,1216.82v-1.18h2.94v1.13c0,2.86,2.14,4.49,5.96,4.49s5.8-1.01,5.8-3.78c0-2.06-1.01-2.81-3.86-3.32l-4.62-.84c-3.02-.55-5.54-2.02-5.54-5.5,0-3.15,2.35-6.13,8.4-6.13s8.4,3.02,8.4,7.23v.88h-2.98v-.76c0-3.45-2.14-4.92-5.42-4.92-3.95,0-5.33,1.34-5.33,3.36s1.01,2.86,3.91,3.4l4.03.76c4.12.76,6.09,1.93,6.09,5.59,0,4.58-4.12,6.55-8.78,6.55-7.31,0-8.99-3.28-8.99-6.97Z"/><path class="cls-9" d="m1763.79,1200.94h-3.36v-5.08c0-3.95.88-5.29,3.4-5.96l.67,1.85c-1.76.67-2.06,1.09-2.06,3.78v.34h1.34v5.08Zm5.92,0h-3.36v-5.08c0-3.95.88-5.29,3.4-5.96l.67,1.85c-1.76.67-2.06,1.09-2.06,3.78v.34h1.34v5.08Z"/><path class="cls-9" d="m1791.69,1213.75h-15.96c.17,4.79,2.48,7.48,6.93,7.48,3.82,0,5.67-1.43,5.97-4.83h2.98c-.29,4.24-3.28,7.39-9.03,7.39-7.06,0-9.83-4.66-9.83-10.88s3.23-11.22,10-11.22,8.95,3.99,8.95,10.21v1.85Zm-3.11-2.98c0-4.45-1.72-6.55-5.92-6.55s-6.55,2.65-6.89,6.97h12.81v-.42Z"/><path class="cls-9" d="m1792.94,1199.68c1.76-.67,2.06-1.09,2.06-3.78v-.34h-1.34v-5.08h3.36v5.08c0,3.95-.88,5.29-3.4,5.96l-.67-1.85Zm5.92,0c1.76-.67,2.06-1.09,2.06-3.78v-.34h-1.34v-5.08h3.36v5.08c0,3.95-.88,5.29-3.4,5.96l-.67-1.85Z"/><g class="cls-7"><path class="cls-11" d="m1466.59,1641.25c5.33,2.13,6.75,6.4,3.91,11.72-25.93,49.38-62.17,71.76-130.73,73.18-1.42,0-2.49-.36-3.2-.36-2.13,0-3.91.36-6.04.36-17.76,0-35.52-5.33-50.09-11.72v222.39c0,5.68-3.2,8.88-8.88,8.88s-8.88-3.2-8.88-8.88v-387.58c0-5.68,3.2-8.88,8.88-8.88s8.88,3.2,8.88,8.88v88.81l6.04-17.05c28.78-64.66,47.6-83.13,73.89-83.13,30.91,0,41.21,39.79,41.21,79.58,0,37.66-8.88,70.69-27.71,90.23,38.72-7.82,62.52-28.06,80.64-62.17,2.84-5.33,6.75-6.75,11.72-4.26h.36Zm-185.8,56.13c1.78,0,3.91.36,6.04,1.07,12.79,5.68,28.42,10.66,43.7,10.66,36.24,0,53.29-41.21,53.29-91.65,0-31.26-6.04-62.52-23.45-62.52s-31.62,14.21-57.55,73.18l-10.66,24.16c-7.81,18.12-10.3,34.1-11.37,45.12Z"/><path class="cls-11" d="m1527.69,1709.1c38.72,0,75.67-27,100.54-75.67,2.84-4.97,6.75-6.75,11.72-4.26,5.68,2.13,7.11,6.39,4.62,11.72-28.07,55.06-70.7,85.26-116.88,85.26-53.64,0-72.12-33.04-72.12-89.17,0-50.8,27-99.12,74.96-99.12,32.68,0,51.16,19.54,51.16,42.63,0,42.27-32.33,59.33-87.75,59.33h-20.6c.36,43.7,14.92,69.27,54.35,69.27Zm-53.64-86.33h19.89c44.05,0,69.98-12.08,69.98-42.27,0-13.86-12.08-25.58-33.39-25.58-32.68,0-52.58,31.26-56.49,67.85Zm8.17-139.26c-1.78-5.33,0-9.24,5.33-11.37,25.93-10.66,45.12-26.29,59.68-47.25,3.55-4.97,7.46-5.68,12.43-2.84,4.97,2.84,5.68,7.46,2.49,12.08-17.05,24.51-38.72,42.27-68.56,54.35-5.33,2.13-9.59.35-11.37-4.97Z"/></g><g class="cls-13"><path class="cls-11" d="m796.94,1423.13c0-5.68,3.2-8.88,8.88-8.88h3.2c5.68,0,8.88,3.2,8.88,8.88v18.12c0,5.68-3.2,8.88-8.88,8.88h-3.2c-5.68,0-8.88-3.2-8.88-8.88v-18.12Zm131.8,128.24c-9.95,31.26-22.38,68.56-35.17,99.83-21.31,51.87-36.24,74.96-61.1,74.96-31.62,0-34.1-36.23-34.1-55.42v-121.49c0-5.68,3.2-8.88,8.88-8.88s8.88,3.2,8.88,8.88v121.49c0,13.5,1.07,38.37,16.34,38.37s25.58-17.05,44.76-64.3c12.08-29.84,24.51-66.79,34.46-98.76,1.78-5.33,5.68-7.46,11.37-5.68,5.68,1.78,7.46,5.33,5.68,11.01Z"/><path class="cls-11" d="m1279.36,1551.37c-9.95,31.26-22.38,68.56-35.17,99.83-21.31,51.87-36.24,74.96-61.1,74.96-31.62,0-34.1-36.23-34.1-55.42v-76.73c0-27.35-4.26-39.08-16.34-39.08-17.41,0-35.52,19.18-57.91,70.69l-12.79,27.71c-12.43,27-13.86,47.25-13.86,55.77v5.68c0,5.68-3.2,8.88-8.88,8.88h-1.42c-4.97-.36-7.46-2.84-7.46-7.46v-122.21c0-27.35-4.26-39.08-16.34-39.08-17.41,0-35.52,19.18-57.91,70.69l-12.79,27.71c-11.01,23.8-13.5,42.27-13.86,52.22v9.24c0,5.68-3.2,8.88-8.88,8.88h-1.42c-4.97-.36-7.46-2.84-7.46-7.46v-166.97c0-5.68,3.2-8.88,8.88-8.88s8.88,3.2,8.88,8.88v95.21l10.3-25.93c25.58-56.84,49.73-80.64,74.25-80.64s34.1,16.7,34.1,56.13v50.45l10.3-25.93c25.58-56.84,49.74-80.64,74.25-80.64s34.1,16.7,34.1,56.13v76.73c0,13.5,1.07,38.37,16.34,38.37s25.58-17.05,44.76-64.3c12.08-29.84,24.51-66.79,34.46-98.76,1.78-5.33,5.68-7.46,11.37-5.68,5.68,1.78,7.46,5.33,5.68,11.01Z"/></g><circle class="cls-10" cx="1182.76" cy="2871.52" r="99.95"/><polyline class="cls-3" points="1030.4 3469.65 1030.4 3422.84 1426.47 3422.84 1426.47 3469.65"/><circle class="cls-10" cx="624.03" cy="3350.77" r="118.88"/><circle class="cls-10" cx="1251.09" cy="2437.8" r="75.51"/><path class="cls-9" d="m759.7,2310.08c0,5.68-3.2,8.88-8.88,8.88h-113.68v375.14c0,5.68-3.2,8.88-8.88,8.88h-1.42c-5.68,0-8.88-3.2-8.88-8.88v-375.14h-114.04c-5.68,0-8.88-3.2-8.88-8.88v-.71c0-5.68,3.2-8.88,8.88-8.88h246.9c5.68,0,8.88,3.2,8.88,8.88v.71Z"/><path class="cls-9" d="m1001.98,2530.69c-9.95,31.26-22.38,68.56-35.17,99.83-21.31,51.87-36.24,74.96-61.1,74.96-31.62,0-34.1-36.23-34.1-55.42v-44.76l-6.04,17.05c-28.78,64.66-47.6,83.13-73.89,83.13-30.91,0-41.21-39.79-41.21-79.58,0-59.68,22.74-108.71,71.05-108.71,17.41,0,35.17,5.33,50.09,12.08v-.71c0-5.68,3.2-8.88,8.88-8.88h1.06c4.97.35,7.82,2.84,7.82,7.1v123.27c0,13.5,1.07,38.37,16.34,38.37s25.58-17.05,44.76-64.3c12.08-29.84,24.51-66.79,34.46-98.76,1.78-5.33,5.68-7.46,11.37-5.68,5.68,1.78,7.46,5.33,5.68,11.01Zm-131.09,15.28c-1.78.36-3.55,0-5.68-1.06-12.79-5.68-28.42-10.66-43.7-10.66-36.24,0-53.29,41.21-53.29,91.65,0,31.26,6.04,62.52,23.45,62.52s31.62-14.21,57.55-73.18l10.66-24.16c7.46-17.76,10.3-33.75,11.01-45.12Z"/><path class="cls-9" d="m984.93,2694.1v-165.55c0-5.68,3.2-8.88,8.88-8.88s8.88,3.2,8.88,8.88v65.37c9.59-31.97,24.51-53.64,40.14-73.54,3.91-4.26,7.81-4.26,12.79-1.42,14.21,7.81,26.64,11.72,35.88,11.72s16.34-2.13,16.34-5.68,3.2-5.33,8.88-5.33,8.88,1.06,8.88,2.49v2.84c0,14.92-14.56,22.74-34.1,22.74-12.08,0-27-3.91-40.5-11.01-23.45,26.64-48.31,81-48.31,133.93v23.45c0,5.68-3.2,8.88-8.88,8.88s-8.88-3.2-8.88-8.88Z"/><path class="cls-9" d="m1106.43,2402.44c0-5.68,3.2-8.88,8.88-8.88h3.2c5.68,0,8.88,3.2,8.88,8.88v18.12c0,5.68-3.2,8.88-8.88,8.88h-3.2c-5.68,0-8.88-3.2-8.88-8.88v-18.12Zm131.8,128.24c-9.95,31.26-22.38,68.56-35.17,99.83-21.31,51.87-36.24,74.96-61.1,74.96-31.62,0-34.1-36.23-34.1-55.42v-121.49c0-5.68,3.2-8.88,8.88-8.88s8.88,3.2,8.88,8.88v121.49c0,13.5,1.07,38.37,16.34,38.37s25.58-17.05,44.76-64.3c12.08-29.84,24.51-66.79,34.46-98.76,1.78-5.33,5.68-7.46,11.37-5.68,5.68,1.78,7.46,5.33,5.68,11.01Z"/><path class="cls-9" d="m1187.77,2531.04c0-5.68,3.2-8.53,8.88-8.53h22.74l-.36-34.46c.36-57.91,28.78-81.71,58.97-81.71h6.39c6.04.36,8.88,4.26,7.82,9.59-1.07,5.68-3.55,8.17-7.82,7.81-2.49-.36-4.62-.36-6.39-.36-21.67,0-42.27,15.99-41.21,64.66l.35,34.46h60.75c9.59,0,16.7-.71,21.67-1.07,5.68-.71,9.24,1.42,10.66,6.75,1.42,5.33-1.07,8.88-7.11,9.95-5.68.71-14.56,1.42-25.22,1.42h-60.39l4.62,249.39c2.13,113.32-43.34,138.55-88.1,138.55-9.95,0-14.92-1.42-20.96-3.2h.35v-8.53c0-5.33.36-8.53,1.07-8.17h1.42c5.33,1.42,9.59,2.84,18.12,2.84,34.81,0,70.34-28.42,70.34-121.49l-4.62-249.39h-23.09c-5.68,0-8.88-2.84-8.88-8.53Z"/><path class="cls-9" d="m291.12,3683.96c-5.33-1.42-7.46-5.33-5.68-11.01l131.8-386.87c1.78-4.62,4.97-7.11,9.95-7.11h1.06c4.97,0,8.17,2.49,9.95,7.11l131.8,386.87c1.78,5.68-.36,9.59-5.68,11.01l-1.42.36c-5.68,1.78-9.59,0-11.37-5.33l-50.09-147.78h-147.43l-50.09,147.78c-1.78,5.33-5.68,7.11-11.37,5.33l-1.42-.36Zm68.92-171.23h135l-67.5-199.3-67.5,199.3Z"/><path class="cls-9" d="m830.75,3601.55c-29.48,63.59-64.66,83.84-137.13,85.26-1.42,0-2.49-.36-3.2-.36-2.13,0-3.91.36-6.04.36-17.76,0-35.53-5.33-50.09-11.72v.36c0,5.68-3.2,8.88-8.88,8.88h-1.42c-4.97-.36-7.46-2.84-7.46-7.46v-389c0-5.68,3.2-8.88,8.88-8.88s8.88,3.2,8.88,8.88v310.84l6.04-17.05c28.78-64.66,47.6-83.13,73.89-83.13,30.91,0,41.21,39.79,41.21,79.58,0,37.66-9.24,71.05-27.71,90.59,41.21-7.82,65.72-29.84,86.68-74.25,2.49-5.33,6.39-7.11,11.72-4.62,5.33,2.13,7.11,6.39,4.62,11.72Zm-196.1,56.48c1.78,0,3.91.36,6.04,1.07,12.79,5.68,28.42,10.66,43.7,10.66,36.23,0,53.29-41.21,53.29-91.65,0-31.26-6.04-62.52-23.45-62.52s-31.62,14.21-57.55,73.18l-10.66,24.16c-7.81,18.12-10.3,34.1-11.37,45.12Z"/><path class="cls-9" d="m1045.32,3601.55c-23.45,52.22-49.02,85.26-74.96,85.26-31.62,0-34.1-36.23-34.1-55.42v-41.21l-6.04,13.5c-28.78,64.66-47.6,83.13-73.89,83.13-30.91,0-41.21-39.79-41.21-79.58,0-59.68,22.74-108.71,71.05-108.71,17.41,0,35.17,5.33,50.09,12.08v-.71c0-5.68,3.2-8.88,8.88-8.88h1.06c4.97.35,7.82,2.84,7.82,7.1v123.27c0,13.5,1.07,38.37,16.34,38.37,17.76,0,38.37-28.78,58.62-74.96,2.49-5.33,6.39-7.11,11.72-4.97,5.33,2.13,6.75,6.04,4.62,11.72Zm-109.77-74.25c-1.78.36-3.55,0-5.68-1.06-12.79-5.68-28.42-10.66-43.7-10.66-36.24,0-53.29,41.21-53.29,91.65,0,31.26,6.04,62.52,23.45,62.52s31.62-14.21,57.55-73.18l10.66-24.16c7.46-17.76,10.3-33.75,11.01-45.12Z"/><path class="cls-9" d="m1151.54,3894.63v-307.29l-6.04,16.34c-28.78,64.66-47.6,83.13-73.89,83.13-30.91,0-41.21-39.79-41.21-79.58,0-59.68,22.74-108.71,71.05-108.71,17.41,0,35.17,5.33,50.09,12.08v-.71c0-5.68,3.2-8.88,8.88-8.88s8.88,2.49,8.88,7.1v386.51c0,5.68-3.2,8.88-8.88,8.88s-8.88-3.2-8.88-8.88Zm-.71-367.33c-1.78.36-3.55,0-5.68-1.06-12.79-5.68-28.42-10.66-43.7-10.66-36.24,0-53.29,41.21-53.29,91.65,0,31.26,6.04,62.52,23.45,62.52s31.62-14.21,57.55-73.18l10.66-24.16c7.46-17.76,10.3-33.75,11.01-45.12Z"/><path class="cls-9" d="m1489.39,3601.55c-23.45,52.22-49.02,85.26-74.96,85.26-31.62,0-34.1-36.23-34.1-55.42v-51.16l-10.3,25.93c-27,58.62-51.51,80.64-77.8,80.64-30.91,0-41.21-25.93-41.21-66.79v-110.13c0-5.68,3.2-8.88,8.88-8.88s8.88,3.2,8.88,8.88v110.13c0,30.2,6.04,49.74,23.45,49.74,18.47,0,38.01-20.6,61.46-70.7l12.79-27.71c10.66-23.45,13.5-41.92,13.86-51.87v-10.66c0-.71,0-1.42.35-2.13v-.71c.36-.71.71-1.42,1.42-2.13.36-.71,1.07-1.07,1.78-1.42l1.06-.71h.36c.36-.36.71-.36,1.42-.36.71-.35,1.42-.35,2.49-.35h1.07c4.97.35,7.81,2.84,7.81,7.1v123.27c0,13.5,1.07,38.37,16.34,38.37,17.76,0,38.37-28.78,58.62-74.96,2.49-5.33,6.39-7.11,11.72-4.97,5.33,2.13,6.75,6.04,4.62,11.72Z"/><path class="cls-9" d="m1546.58,3669.75c38.72,0,75.67-27,100.54-75.67,2.84-4.97,6.75-6.75,11.72-4.26,5.68,2.13,7.11,6.39,4.62,11.72-28.07,55.06-70.7,85.26-116.88,85.26-53.64,0-72.12-33.04-72.12-89.17,0-50.8,27-99.12,74.96-99.12,32.68,0,51.16,19.54,51.16,42.63,0,42.27-32.33,59.33-87.75,59.33h-20.6c.36,43.7,14.92,69.27,54.35,69.27Zm-53.64-86.33h19.89c44.05,0,69.98-12.08,69.98-42.27,0-13.86-12.08-25.58-33.39-25.58-32.68,0-52.58,31.26-56.49,67.85Z"/><line class="cls-5" x1="440.71" y1="766.36" x2="440.71" y2="1021.19"/><path class="cls-9" d="m183.89,1048.78h8.61c7.94,0,11.64,2.73,11.64,9.62,0,6.43-2.77,10.12-11.13,10.12h-6.13v13.02h-2.98v-32.77Zm9.28,17.22c6.09,0,7.94-2.69,7.94-7.65,0-5.21-2.6-6.97-8.44-6.97h-5.8v14.62h6.3Z"/><path class="cls-9" d="m208.75,1060.54h2.6l.29,3.91c1.01-2.14,3.07-4.45,6.76-4.45,1.26,0,2.18.21,3.02.55v3.15c-1.13-.5-2.1-.76-3.4-.76-3.74,0-6.34,2.81-6.34,5.75v12.85h-2.94v-21Z"/><path class="cls-9" d="m226.06,1048.78h2.98v6.51h-2.98v-6.51Zm0,11.76h2.94v21h-2.94v-21Z"/><path class="cls-9" d="m236.39,1060.54h2.6l.29,3.49c1.01-2.14,3.28-4.03,7.35-4.03,4.75,0,7.77,2.52,7.77,7.94v13.61h-2.94v-13.27c0-4.33-2.14-5.71-5.5-5.71-3.82,0-6.64,2.69-6.64,5.63v13.36h-2.94v-21Z"/><path class="cls-9" d="m272.72,1078.86v2.6c-.76.21-2.14.59-4.03.59-3.82,0-6.34-1.6-6.34-6.89v-12.18h-4.16v-2.44h4.16v-6.05l2.94-1.43v7.48h5.92v2.44h-5.92v11.8c0,2.81.76,4.58,3.4,4.58,1.6,0,3.23-.29,4.03-.5Z"/><path class="cls-9" d="m285.32,1075.12v-1.18h2.94v1.13c0,2.86,2.14,4.5,5.96,4.5s5.8-1.01,5.8-3.78c0-2.06-1.01-2.81-3.86-3.32l-4.62-.84c-3.02-.55-5.54-2.02-5.54-5.5,0-3.15,2.35-6.13,8.4-6.13s8.4,3.02,8.4,7.23v.88h-2.98v-.76c0-3.44-2.14-4.91-5.42-4.91-3.95,0-5.33,1.34-5.33,3.36s1.01,2.86,3.91,3.4l4.03.76c4.12.76,6.09,1.93,6.09,5.59,0,4.58-4.12,6.55-8.78,6.55-7.31,0-8.99-3.28-8.99-6.97Z"/><path class="cls-9" d="m319.93,1078.86v2.6c-.76.21-2.14.59-4.03.59-3.82,0-6.34-1.6-6.34-6.89v-12.18h-4.16v-2.44h4.16v-6.05l2.94-1.43v7.48h5.92v2.44h-5.92v11.8c0,2.81.76,4.58,3.4,4.58,1.6,0,3.23-.29,4.03-.5Z"/><path class="cls-9" d="m324.96,1060.54l6.89,17.98h.08l7.14-17.98h3.07v.04l-8.86,20.84-3.11,8.53h-2.98v-.04l3.19-8.36-8.78-20.96v-.04h3.36Z"/><path class="cls-9" d="m346.34,1048.78h2.94v32.77h-2.94v-32.77Z"/><path class="cls-9" d="m373.9,1072.05h-15.96c.17,4.79,2.48,7.48,6.93,7.48,3.82,0,5.67-1.43,5.97-4.83h2.98c-.29,4.24-3.28,7.39-9.03,7.39-7.06,0-9.83-4.66-9.83-10.88s3.23-11.22,10-11.22,8.95,3.99,8.95,10.21v1.85Zm-3.11-2.98c0-4.45-1.72-6.55-5.92-6.55s-6.55,2.65-6.89,6.97h12.81v-.42Z"/><path class="cls-9" d="m389.01,1074.15v-13.61h2.94v13.27c0,4.33,2.14,5.71,5.42,5.71,3.74,0,6.55-2.69,6.55-5.63v-13.36h2.94v21h-2.6l-.25-3.36h-.08c-.97,2.02-3.23,3.91-7.23,3.91-4.66,0-7.69-2.52-7.69-7.94Z"/><path class="cls-9" d="m414.21,1060.54h2.39l.34,3.86h.08c1.13-2.48,4.03-4.41,7.86-4.41,6.3,0,9.66,3.99,9.66,11.01s-4.29,11.09-9.87,11.09c-3.78,0-6.38-1.6-7.43-3.7h-.08v11.55h-2.94v-29.41Zm17.18,10.63c0-7.18-3.4-8.61-6.93-8.61-4.24,0-7.56,2.73-7.56,8.44,0,6.01,3.45,8.57,7.44,8.57,3.02,0,7.06-1.47,7.06-8.4Z"/><path class="cls-9" d="m440.42,1060.54h2.39l.34,3.86h.08c1.13-2.48,4.03-4.41,7.86-4.41,6.3,0,9.66,3.99,9.66,11.01s-4.29,11.09-9.87,11.09c-3.78,0-6.38-1.6-7.43-3.7h-.08v11.55h-2.94v-29.41Zm17.18,10.63c0-7.18-3.4-8.61-6.93-8.61-4.24,0-7.56,2.73-7.56,8.44,0,6.01,3.45,8.57,7.44,8.57,3.02,0,7.06-1.47,7.06-8.4Z"/><path class="cls-9" d="m483.9,1072.05h-15.96c.17,4.79,2.48,7.48,6.93,7.48,3.82,0,5.67-1.43,5.97-4.83h2.98c-.29,4.24-3.28,7.39-9.03,7.39-7.06,0-9.83-4.66-9.83-10.88s3.23-11.22,10-11.22,8.95,3.99,8.95,10.21v1.85Zm-3.11-2.98c0-4.45-1.72-6.55-5.92-6.55s-6.55,2.65-6.89,6.97h12.81v-.42Z"/><path class="cls-9" d="m489.77,1060.54h2.6l.29,3.91c1.01-2.14,3.07-4.45,6.76-4.45,1.26,0,2.18.21,3.02.55v3.15c-1.13-.5-2.1-.76-3.4-.76-3.74,0-6.34,2.81-6.34,5.75v12.85h-2.94v-21Z"/><path class="cls-9" d="m504.77,1071.21c0-6.38,3.23-11.22,10-11.22s8.95,3.91,8.95,8.95v.42h-3.11v-.63c0-3.82-1.64-6.09-5.84-6.09-4.75,0-7.02,3.11-7.02,8.4,0,5.63,2.39,8.49,6.93,8.49,3.82,0,5.84-1.85,5.92-5.67h3.02c-.08,4.66-3.15,8.23-9.03,8.23-7.22,0-9.83-4.75-9.83-10.88Z"/><path class="cls-9" d="m528.12,1075.75c0-3.95,2.23-6.09,7.86-6.09h6.34v-1.72c0-2.98-1.26-5.42-5.46-5.42-3.95,0-5.33,1.51-5.33,4.12v.88h-2.98v-.84c0-5,4.2-6.68,8.32-6.68,5.8,0,8.4,2.86,8.4,8.44v13.11h-2.06l-.55-2.98h-.08c-1.26,1.89-3.7,3.53-7.35,3.53-4.92,0-7.1-2.31-7.1-6.34Zm14.2-1.85v-1.76h-7.01c-2.65,0-4.03.92-4.03,3.61,0,2.35,1.26,3.86,4.5,3.86,4.16,0,6.55-2.14,6.55-5.71Z"/><path class="cls-9" d="m550.71,1075.12v-1.18h2.94v1.13c0,2.86,2.14,4.5,5.96,4.5s5.8-1.01,5.8-3.78c0-2.06-1.01-2.81-3.86-3.32l-4.62-.84c-3.02-.55-5.54-2.02-5.54-5.5,0-3.15,2.35-6.13,8.4-6.13s8.4,3.02,8.4,7.23v.88h-2.98v-.76c0-3.44-2.14-4.91-5.42-4.91-3.95,0-5.33,1.34-5.33,3.36s1.01,2.86,3.91,3.4l4.03.76c4.12.76,6.09,1.93,6.09,5.59,0,4.58-4.12,6.55-8.78,6.55-7.31,0-8.99-3.28-8.99-6.97Z"/><path class="cls-9" d="m591.62,1072.05h-15.96c.17,4.79,2.48,7.48,6.93,7.48,3.82,0,5.67-1.43,5.97-4.83h2.98c-.29,4.24-3.28,7.39-9.03,7.39-7.06,0-9.83-4.66-9.83-10.88s3.23-11.22,10-11.22,8.95,3.99,8.95,10.21v1.85Zm-3.11-2.98c0-4.45-1.72-6.55-5.92-6.55s-6.55,2.65-6.89,6.97h12.81v-.42Z"/><path class="cls-9" d="m607.16,1048.78h2.94v32.77h-2.94v-32.77Z"/><path class="cls-9" d="m634.72,1072.05h-15.96c.17,4.79,2.48,7.48,6.93,7.48,3.82,0,5.67-1.43,5.97-4.83h2.98c-.29,4.24-3.28,7.39-9.03,7.39-7.06,0-9.83-4.66-9.83-10.88s3.23-11.22,10-11.22,8.95,3.99,8.95,10.21v1.85Zm-3.11-2.98c0-4.45-1.72-6.55-5.92-6.55s-6.55,2.65-6.89,6.97h12.81v-.42Z"/><path class="cls-9" d="m641.18,1075.16v-12.18h-4.16v-2.44h4.16v-6.05l2.94-1.43v7.48h11.85v-6.05l2.94-1.43v7.48h5.92v2.44h-5.92v11.8c0,2.81.76,4.58,3.4,4.58,1.6,0,3.24-.29,4.03-.5v2.6c-.76.21-2.14.59-4.03.59-3.82,0-6.34-1.6-6.34-6.89v-12.18h-11.85v11.8c0,2.81.76,4.58,3.4,4.58,1.6,0,3.23-.29,4.03-.5v2.6c-.76.21-2.14.59-4.03.59-3.82,0-6.34-1.6-6.34-6.89Z"/><path class="cls-9" d="m687.8,1072.05h-15.96c.17,4.79,2.48,7.48,6.93,7.48,3.82,0,5.67-1.43,5.97-4.83h2.98c-.29,4.24-3.28,7.39-9.03,7.39-7.06,0-9.83-4.66-9.83-10.88s3.23-11.22,10-11.22,8.95,3.99,8.95,10.21v1.85Zm-3.11-2.98c0-4.45-1.72-6.55-5.92-6.55s-6.55,2.65-6.89,6.97h12.81v-.42Z"/><path class="cls-9" d="m693.68,1060.54h2.6l.29,3.91c1.01-2.14,3.07-4.45,6.76-4.45,1.26,0,2.18.21,3.02.55v3.15c-1.13-.5-2.1-.76-3.4-.76-3.74,0-6.34,2.81-6.34,5.75v12.85h-2.94v-21Z"/><path class="cls-9" d="m708.89,1075.12v-1.18h2.94v1.13c0,2.86,2.14,4.5,5.96,4.5s5.8-1.01,5.8-3.78c0-2.06-1.01-2.81-3.86-3.32l-4.62-.84c-3.02-.55-5.54-2.02-5.54-5.5,0-3.15,2.35-6.13,8.4-6.13s8.4,3.02,8.4,7.23v.88h-2.98v-.76c0-3.44-2.14-4.91-5.42-4.91-3.95,0-5.33,1.34-5.33,3.36s1.01,2.86,3.91,3.4l4.03.76c4.12.76,6.09,1.93,6.09,5.59,0,4.58-4.12,6.55-8.78,6.55-7.31,0-8.99-3.28-8.99-6.97Z"/><g class="cls-16"><path class="cls-11" d="m1187.77,2531.04c0-5.68,3.2-8.53,8.88-8.53h22.74l-.36-34.46c.36-57.91,28.78-81.71,58.97-81.71h6.39c6.04.36,8.88,4.26,7.82,9.59-1.07,5.68-3.55,8.17-7.82,7.81-2.49-.36-4.62-.36-6.39-.36-21.67,0-42.27,15.99-41.21,64.66l.35,34.46h60.75c9.59,0,16.7-.71,21.67-1.07,5.68-.71,9.24,1.42,10.66,6.75,1.42,5.33-1.07,8.88-7.11,9.95-5.68.71-14.56,1.42-25.22,1.42h-60.39l4.62,249.39c2.13,113.32-43.34,138.55-88.1,138.55-9.95,0-14.92-1.42-20.96-3.2h.35v-8.53c0-5.33.36-8.53,1.07-8.17h1.42c5.33,1.42,9.59,2.84,18.12,2.84,34.81,0,70.34-28.42,70.34-121.49l-4.62-249.39h-23.09c-5.68,0-8.88-2.84-8.88-8.53Z"/></g><g class="cls-15"><path class="cls-11" d="m1187.77,2531.04c0-5.68,3.2-8.53,8.88-8.53h22.74l-.36-34.46c.36-57.91,28.78-81.71,58.97-81.71h6.39c6.04.36,8.88,4.26,7.82,9.59-1.07,5.68-3.55,8.17-7.82,7.81-2.49-.36-4.62-.36-6.39-.36-21.67,0-42.27,15.99-41.21,64.66l.35,34.46h60.75c9.59,0,16.7-.71,21.67-1.07,5.68-.71,9.24,1.42,10.66,6.75,1.42,5.33-1.07,8.88-7.11,9.95-5.68.71-14.56,1.42-25.22,1.42h-60.39l4.62,249.39c2.13,113.32-43.34,138.55-88.1,138.55-9.95,0-14.92-1.42-20.96-3.2h.35v-8.53c0-5.33.36-8.53,1.07-8.17h1.42c5.33,1.42,9.59,2.84,18.12,2.84,34.81,0,70.34-28.42,70.34-121.49l-4.62-249.39h-23.09c-5.68,0-8.88-2.84-8.88-8.53Z"/></g><g class="cls-14"><path class="cls-11" d="m830.75,3601.55c-29.48,63.59-64.66,83.84-137.13,85.26-1.42,0-2.49-.36-3.2-.36-2.13,0-3.91.36-6.04.36-17.76,0-35.53-5.33-50.09-11.72v.36c0,5.68-3.2,8.88-8.88,8.88h-1.42c-4.97-.36-7.46-2.84-7.46-7.46v-389c0-5.68,3.2-8.88,8.88-8.88s8.88,3.2,8.88,8.88v310.84l6.04-17.05c28.78-64.66,47.6-83.13,73.89-83.13,30.91,0,41.21,39.79,41.21,79.58,0,37.66-9.24,71.05-27.71,90.59,41.21-7.82,65.72-29.84,86.68-74.25,2.49-5.33,6.39-7.11,11.72-4.62,5.33,2.13,7.11,6.39,4.62,11.72Zm-196.1,56.48c1.78,0,3.91.36,6.04,1.07,12.79,5.68,28.42,10.66,43.7,10.66,36.23,0,53.29-41.21,53.29-91.65,0-31.26-6.04-62.52-23.45-62.52s-31.62,14.21-57.55,73.18l-10.66,24.16c-7.81,18.12-10.3,34.1-11.37,45.12Z"/></g></svg>