<?xml version="1.0" encoding="UTF-8"?><svg xmlns="http://www.w3.org/2000/svg" viewBox="0 0 1920 3395"><defs><style>.cls-1{stroke-dasharray:0 0 1.85 18.47;}.cls-1,.cls-2,.cls-3,.cls-4,.cls-5,.cls-6,.cls-7,.cls-8,.cls-9,.cls-10,.cls-11,.cls-12{fill:none;stroke-miterlimit:10;}.cls-1,.cls-2,.cls-3,.cls-4,.cls-5,.cls-6,.cls-7,.cls-8,.cls-9,.cls-10,.cls-12{stroke:#a797c9;stroke-linecap:round;stroke-width:7px;}.cls-13{fill:#fff;}.cls-14{fill:#937fbb;}.cls-15{fill:#171c32;}.cls-16{fill:#947fbb;}.cls-2{stroke-dasharray:0 0 1.78 17.84;}.cls-4{stroke-dasharray:0 0 1.8 18.01;}.cls-5{stroke-dasharray:0 0 1.79 17.91;}.cls-6{stroke-dasharray:0 0 1.81 18.06;}.cls-7{stroke-dasharray:0 0 1.49 14.9;}.cls-8{stroke-dasharray:0 0 1.73 17.28;}.cls-9{stroke-dasharray:0 0 1.79 17.92;}.cls-10{stroke-dasharray:0 0 1.74 17.45;}.cls-11{stroke:#57678b;stroke-width:3.5px;}.cls-12{stroke-dasharray:0 0 1.86 18.57;}</style></defs><g id="Background"><rect class="cls-15" width="1920" height="3395"/></g><g id="Horizontal_Guides"><line class="cls-11" y1="201.72" x2="1920" y2="201.72"/><line class="cls-11" y1="363.48" x2="1920" y2="363.48"/><line class="cls-11" x1="1920" y1="508.63" y2="508.63"/><line class="cls-11" y1="671.86" x2="1920" y2="671.86"/><line class="cls-11" y1="1021.86" x2="1920" y2="1021.86"/><line class="cls-11" y1="1183.62" x2="1920" y2="1183.62"/><line class="cls-11" x1="1920" y1="1328.77" y2="1328.77"/><line class="cls-11" y1="1492" x2="1920" y2="1492"/><line class="cls-11" y1="1844.12" x2="1920" y2="1844.12"/><line class="cls-11" y1="2005.89" x2="1920" y2="2005.89"/><line class="cls-11" x1="1920" y1="2151.04" y2="2151.04"/><line class="cls-11" y1="2314.26" x2="1920" y2="2314.26"/><line class="cls-11" y1="2664.82" x2="1920" y2="2664.82"/><line class="cls-11" y1="2826.59" x2="1920" y2="2826.59"/><line class="cls-11" x1="1920" y1="2971.74" y2="2971.74"/><line class="cls-11" y1="3134.96" x2="1920" y2="3134.96"/></g><g id="Layer_1"><circle class="cls-16" cx="1619.44" cy="1118.66" r="138.7"/><circle class="cls-16" cx="442.17" cy="2933.18" r="106.59"/><circle class="cls-16" cx="1222.25" cy="490.08" r="59.6"/><circle class="cls-16" cx="1215.51" cy="1415.21" r="138.7"/><path class="cls-13" d="m1160.88,317.19c6.65,1.21,10.89,6.96,9.68,12.1-.91,5.14-6.65,9.68-13.61,8.17-6.65-1.21-10.89-6.96-9.68-12.1,1.51-6.05,7.86-9.07,13.61-8.17Zm-907.84,62.9c3.63-10.28,16.94-11.19,22.08-1.51,31.22,57.16,103.36,76.48,174.47,77.78-3.18-9.36-4.52-19.56-4.52-30.3,0-91.03,96.77-226.81,188.7-226.81,22.38,0,26.91,11.49,24.5,21.47-6.05,28.73-48.08,96.47-100.4,159.07-23.48,27.86-45.32,54.05-69.63,75.59,57.02-3.81,108.16-17.35,130.11-29.63.48-.24.97-.42,1.47-.56,5.33-8.91,11.95-17.73,19.7-26.05,32.96-35.68,77.42-51.41,99.8-30.54,7.08,6.6,10.48,15.76,10.76,26.31,3.48,1.24,7.26,1.81,11.32,1.81,32.96,0,66.83-35.38,109.17-35.38,27.22,0,37.8,11.49,37.8,26.01,0,.87-.05,1.76-.14,2.65,21.72-17.12,43.86-28.65,67.27-28.65,18.75,0,26.01,8.47,27.22,19.66,3.63,30.24-34.17,61.99-52.92,83.16-19.05,21.47-19.96,29.03-11.49,29.03,22.68,0,84.68-32.06,179.03-127.92,1.51-1.51,3.63-2.42,6.05-2.42,4.54,0,8.17,3.63,8.17,8.47,0,2.12-.91,4.23-2.42,5.75-10.01,10.17-19.67,19.64-28.99,28.46-19.8,22.38-25.45,40.36-25.45,58.33,0,19.96,6.35,27.82,16.63,27.82,19.96,0,56.85-26.61,91.33-58.97,39.01-36.59,75.91-71.37,111.29-71.37,22.38,0,39.01,14.21,39.01,35.08,0,29.81-35.5,66.5-69.5,89.48,3.21,4.85,4.79,10.83,4.79,16.97,0,3.16-.42,6.59-1.2,10.23,66.61-43.88,136.08-84.22,168.13-102.77.47-.35.99-.59,1.54-.78,4.31-4.01,8.84-7.9,13.58-11.62,25.7-20.26,58.37-36.59,86.49-36.59,22.08,0,33.57,10.28,39.92,25.4,1,11.98-15.3,33.84-36.66,54.88-.17.26-.33.51-.53.77-10.89,13.91-15.12,24.5-15.12,34.78,0,12.7,6.05,16.03,21.17,16.03,26.01,0,71.97-22.68,111.59-62.9,1.51-1.51,3.63-2.42,6.05-2.42,4.54,0,8.17,3.93,8.17,8.47,0,2.12-.91,4.23-2.42,5.75-42.04,42.34-91.93,67.74-123.38,67.74-21.77,0-37.8-8.47-37.8-32.66,0-2.5.19-5,.56-7.5-30.73,24.22-62.52,40.16-84.32,40.16-17.24,0-29.33-10.28-29.33-28.43,0-10.46,4.16-22.43,11.38-34.68-41.13,24.69-98,59.65-149.76,94.49-29.14,57.05-103.31,133.73-129.56,133.73-9.68,0-17.54-7.86-17.54-18.75,0-28.1,62.96-78.83,135.02-127.81,4.67-9.85,7.41-18.62,7.41-25.51,0-3.46-.7-6.23-2.24-8.18-14.53,8.29-27.76,13.32-36.47,13.32-7.86,0-11.79-4.23-11.79-9.68,0-9.37,20.26-23.59,39.92-23.59,2.81,0,5.39.32,7.76.91,30.92-19.95,67.54-54.7,67.54-79.23,0-11.19-8.47-18.45-22.38-18.45-28.12,0-61.39,30.85-99.8,66.83-35.68,33.27-75.91,63.51-102.82,63.51-20.26,0-33.27-16.03-33.27-44.45,0-7.65.87-15.38,2.99-23.31-59.97,50.47-101.35,69.27-122.75,69.27-25.4,0-30.54-23.29-1.21-56.55,19.96-22.38,51.71-49.9,49.29-70.46-.6-3.33-2.12-4.84-10.89-4.84-53.22,0-103.12,76.21-165.12,128.83-1.51,1.21-3.33,2.12-5.44,2.12-4.54,0-8.17-3.93-8.17-8.47,0-2.42.91-4.84,2.72-6.35,24.61-20.8,48.02-46.65,71.33-70,8.25-9.63,20.91-26.08,20.91-36.75,0-5.44-4.54-9.37-21.17-9.37-37.8,0-69.86,35.38-109.17,35.38-4.62,0-9.03-.52-13.19-1.59-4.39,18.84-16.17,39.83-33.08,58.14-32.96,35.38-77.42,51.41-99.19,30.85-12.69-11.83-14.09-31.43-6.87-52.69-29.91,11.56-77.76,22.08-129.16,24.55,14.35,12.5,38.76,20.4,78.57,21.8,4.54,0,8.17,3.93,8.17,8.17,0,5.14-4.23,8.47-8.77,8.47-51.42-1.76-81.19-14.7-97.1-34.28-31.65,21.18-68.87,34.28-118.51,34.28-93.45,0-101.31-92.24-89.21-130.94Zm1158.24,101.31c0,8.47,3.93,11.79,12.7,11.79,20.56,0,57.16-20.56,91.03-50.5,23.29-21.17,41.73-43.55,44.76-52.92-4.23-7.86-10.28-11.79-22.98-11.79-23.29,0-52.32,14.21-76.21,33.27-29.33,22.98-49.29,52.01-49.29,70.16Zm-189.18,83.37c-54.35,38.49-96.3,73.87-96.3,91.42,0,1.81.3,2.12.91,2.12,14.22,0,63.16-48.27,95.39-93.54Zm-594.67-76.11c12.4,11.79,47.18.3,75.6-30.24,16.92-18.37,27.15-38.38,29.79-54.04-7.91-6.01-14.26-15.18-18.6-27.91-.08-.22-.13-.44-.19-.66-16.6-.35-41.26,11.88-62.41,34.83-28.43,30.85-37.5,65.62-24.19,78.02Zm-165.72-62.6c0,9.54,1.19,18.41,4.2,26.4,27.64-21.94,51.84-51,79.26-83.55,51.11-60.78,91.33-126.71,96.77-151.81q.3-1.21-8.17-1.21c-81.05,0-172.07,127.01-172.07,210.18Zm-119.45,68.34c37.74,0,67.54-7.98,93.32-21.82-67.73-3.49-134.55-23.9-169.2-76.58-6.03,36.75,5.96,98.4,75.88,98.4Z"/><path class="cls-13" d="m1176.22,2803.02c-6.65-1.21-10.89-6.96-9.68-12.1,1.51-6.05,7.86-9.07,13.61-8.17,6.65,1.21,10.89,6.96,9.68,12.1-.91,5.14-6.65,9.68-13.61,8.17Zm-254.63-1.81h113.71c4.54,0,8.47-3.63,8.47-8.17s-3.93-8.47-8.47-8.47h-113.71c-4.54,0-8.47,3.93-8.47,8.47s3.93,8.17,8.47,8.17Zm616.01,35.08c0,2.72-1.51,5.44-3.93,6.96-32.39,21.12-120.62,47.47-147.01,6.8-33.89,35.5-95.93,96.77-124.86,122.33-1.51,1.21-3.33,1.81-5.44,1.81-4.54,0-8.47-3.63-8.47-8.17,0-2.42,1.21-4.84,3.02-6.35,16.92-14.91,45.63-42.63,73.22-70.05.09-.14.17-.28.27-.41,5.75-9.07,10.58-19.96,10.58-28.12,0-9.68-7.56-17.54-24.19-17.54-66.23,0-106.45,131.85-184.17,131.85-28.43,0-49.9-17.54-49.9-48.69,0-6.3.88-13.2,2.95-20.55-59.94,50.44-101.31,69.24-122.7,69.24-25.4,0-30.54-23.29-1.21-56.55,21.17-23.89,51.71-49.9,49.29-70.46-.6-3.33-2.12-4.84-10.89-4.84-53.22,0-103.12,76.21-165.12,128.83-1.51,1.21-3.33,2.12-5.44,2.12-4.54,0-8.17-3.93-8.17-8.47,0-2.42.91-4.84,2.72-6.35,23.78-20.1,46.44-44.92,68.98-67.64.27-.47.56-.91.88-1.31,11.79-13.61,37.2-47.18,26.91-47.18-16.94,0-53.83,28.12-94.35,59.27-45.36,34.78-97.68,72.58-130.94,72.58-20.99,0-31.47-13.77-33.71-32.29-33.3,18.26-67.77,30.27-118.71,31.38-4.54,0-8.47-3.63-8.47-8.17,0-.52.06-1.02.15-1.52-.29-.86-.46-1.77-.46-2.72,0-1.51.3-2.72.91-3.93,10.51-19.63,39.16-73.5,69.75-131.48-54.49,65.98-131.82,141.91-207.65,148.42-4.84.3-9.07-3.33-9.07-8.17,0-4.54,3.33-8.17,7.56-8.47,104.03-8.77,217.13-166.33,256.14-221.67.19-.26.39-.51.61-.75,5.76-11.04,11.24-21.6,16.31-31.4-28.56-8.24-51.4-22.29-93.73-22.29-6.48,0-12.76.33-18.83.94-.32.55-.7,1.05-1.13,1.48-23.29,21.77-78.63,62.3-100.1,62.3-9.07,0-15.12-6.05-15.12-14.52,0-24.19,57.46-66.83,135.18-66.83,62.6,0,85.58,28.12,133.97,28.12,26.31,0,61.39-7.56,117.94-32.96,1.21-.3,2.12-.6,3.33-.6,4.84,0,8.47,3.63,8.47,8.17,0,3.33-2.12,6.35-4.84,7.56-58.37,26.31-96.47,34.47-124.9,34.47-8.54,0-16.23-.73-23.4-1.94-.06.14-.12.29-.19.43-39.7,76.58-107.17,203.47-130.94,248.44,44.99-2.56,75.43-15.13,107.49-33.3,3.68-28.72,20.91-63.68,47.34-84.5,9.07-6.96,19.35-12.7,28.12-12.7,10.28,0,18.14,7.56,18.14,19.05,0,22.98-26.01,52.62-77.42,90.42-.08.08-.19.14-.27.21.31,13.94,5.23,22.16,17.51,22.16,26.91,0,76.21-35.08,120.66-69.25,40.83-31.15,80.44-62.6,104.63-62.6,18.08,0,20.66,11.15,16.32,25.31,20.32-15.25,41.06-25.31,62.91-25.31,18.75,0,26.01,8.47,27.22,19.66,3.63,30.24-32.96,60.48-52.92,83.16-19.05,21.47-19.96,29.03-11.49,29.03,22.68,0,84.68-32.06,179.03-127.92,1.51-1.51,3.63-2.42,6.05-2.42,4.54,0,8.17,3.63,8.17,8.47,0,2.12-.91,4.23-2.42,5.75-10.01,10.16-19.66,19.63-28.97,28.45-19.22,21.82-25.46,40.94-25.46,55.62,0,20.87,13.31,32.06,33.27,32.06,68.04,0,106.45-131.85,184.17-131.85,26.31,0,40.83,15.42,40.83,34.17,0,.32-.02.66-.03.99,11.7-11.86,22.22-22.71,30.27-31.23,1.51-1.51,3.63-2.42,6.05-2.42.78,0,1.54.11,2.27.31,3.56.07,6.52,2.45,7.71,5.73,13.61,38.71,98.59,13.91,126.71-5.14,1.21-.91,3.02-1.21,4.54-1.21,4.84,0,8.47,3.63,8.47,8.17Zm-1019.5-146.83c-38.15,10.87-62.82,31.36-66.8,40.75,12.39-2.26,43.35-22.41,66.8-40.75Zm157.14,224.09c39.46-30.86,57.94-53.84,57.94-67.58,0-2.12-.3-2.42-1.51-2.42-3.93,0-10.58,3.63-17.84,9.37-19.03,14.77-32.74,38.83-38.59,60.63Z"/><path class="cls-16" d="m572.06,442.34c-23.75,6.04-52.9,10.97-83.82,13.04,24.3-21.54,46.15-47.73,69.63-75.59,52.32-62.6,94.35-130.34,100.4-159.07,2.42-9.98-2.12-21.47-24.5-21.47-91.93,0-188.7,135.78-188.7,226.81,0,10.74,1.34,20.94,4.52,30.3-71.12-1.3-143.25-20.62-174.47-77.78-5.14-9.68-18.45-8.77-22.08,1.51-12.1,38.71-4.23,130.94,89.21,130.94,49.65,0,86.86-13.09,118.51-34.28,15.91,19.58,45.69,32.51,97.1,34.28,4.54,0,8.77-3.33,8.77-8.47,0-4.23-3.63-8.17-8.17-8.17-39.81-1.39-64.23-9.3-78.57-21.8,35.32-1.69,68.94-7.2,96.24-14.23l-4.08-16.04Zm-229.81,52.06c-69.92,0-81.91-61.65-75.88-98.4,34.65,52.68,101.47,73.1,169.2,76.58-25.78,13.83-55.58,21.82-93.32,21.82Zm299.69-277.31c-5.44,25.1-45.66,91.03-96.77,151.81-27.43,32.55-51.62,61.61-79.26,83.55-3.01-7.99-4.2-16.86-4.2-26.4,0-83.16,91.03-210.18,172.07-210.18q8.47,0,8.17,1.21Z"/><line class="cls-3" x1="331.11" y1="513.24" x2="331.11" y2="514.11"/><line class="cls-5" x1="331.11" y1="532.02" x2="331.11" y2="720.1"/><line class="cls-3" x1="331.11" y1="729.05" x2="331.11" y2="729.92"/><path class="cls-13" d="m238.56,770.3c0-11.72,6.76-16.93,15.46-16.93,7.94,0,14.7,5.21,14.7,16.59,0,12.48-6.76,17.26-15.08,17.26s-15.08-4.79-15.08-16.93Zm27.05,0c0-10.12-5.33-14.24-12.01-14.24s-11.93,4.12-11.93,14.24,5.33,14.2,12.01,14.2,11.93-3.74,11.93-14.2Z"/><path class="cls-13" d="m275.01,765.68h2.6l.29,3.91c1.01-2.14,3.07-4.45,6.76-4.45,1.26,0,2.18.21,3.02.55v3.15c-1.13-.5-2.1-.76-3.4-.76-3.74,0-6.34,2.81-6.34,5.75v12.85h-2.94v-21Z"/><path class="cls-13" d="m292.32,765.68h2.6l.29,3.49c1.01-2.14,3.28-4.03,7.35-4.03,4.75,0,7.77,2.52,7.77,7.94v13.61h-2.94v-13.27c0-4.33-2.14-5.71-5.5-5.71-3.82,0-6.64,2.69-6.64,5.63v13.36h-2.94v-21Z"/><path class="cls-13" d="m316.43,780.89c0-3.95,2.23-6.09,7.86-6.09h6.34v-1.72c0-2.98-1.26-5.42-5.46-5.42-3.95,0-5.33,1.51-5.33,4.12v.88h-2.98v-.84c0-5,4.2-6.68,8.32-6.68,5.8,0,8.4,2.86,8.4,8.44v13.11h-2.06l-.55-2.98h-.08c-1.26,1.89-3.7,3.53-7.35,3.53-4.92,0-7.1-2.31-7.1-6.34Zm14.2-1.85v-1.76h-7.01c-2.65,0-4.03.92-4.03,3.61,0,2.35,1.26,3.86,4.5,3.86,4.16,0,6.55-2.14,6.55-5.71Z"/><path class="cls-13" d="m351.67,783.99v2.6c-.76.21-2.14.59-4.03.59-3.82,0-6.34-1.6-6.34-6.89v-12.18h-4.16v-2.44h4.16v-6.05l2.94-1.43v7.48h5.92v2.44h-5.92v11.8c0,2.81.76,4.58,3.4,4.58,1.6,0,3.23-.29,4.03-.5Z"/><path class="cls-13" d="m373.13,777.19h-15.96c.17,4.79,2.48,7.48,6.93,7.48,3.82,0,5.67-1.43,5.97-4.83h2.98c-.29,4.24-3.28,7.39-9.03,7.39-7.06,0-9.83-4.66-9.83-10.88s3.23-11.22,10-11.22,8.95,3.99,8.95,10.21v1.85Zm-3.11-2.98c0-4.45-1.72-6.55-5.92-6.55s-6.55,2.65-6.89,6.97h12.81v-.42Z"/><path class="cls-13" d="m390.35,764.38h-3.36v-5.08c0-3.95.88-5.29,3.4-5.97l.67,1.85c-1.76.67-2.06,1.09-2.06,3.78v.34h1.34v5.08Zm5.92,0h-3.36v-5.08c0-3.95.88-5.29,3.4-5.97l.67,1.85c-1.76.67-2.06,1.09-2.06,3.78v.34h1.34v5.08Z"/><path class="cls-13" d="m403.7,753.92h2.94v32.77h-2.94v-32.77Z"/><path class="cls-13" d="m413.36,763.12c1.76-.67,2.06-1.09,2.06-3.78v-.34h-1.34v-5.08h3.36v5.08c0,3.95-.88,5.29-3.4,5.97l-.67-1.85Zm5.92,0c1.76-.67,2.06-1.09,2.06-3.78v-.34h-1.34v-5.08h3.36v5.08c0,3.95-.88,5.29-3.4,5.97l-.67-1.85Z"/><path class="cls-14" d="m921.59,2801.21h113.71c4.54,0,8.47-3.63,8.47-8.17s-3.93-8.47-8.47-8.47h-113.71c-4.54,0-8.47,3.93-8.47,8.47s3.93,8.17,8.47,8.17Z"/><polygon class="cls-16" points="794.97 1492.76 847.31 1492.76 1256.86 1021.86 1204.52 1021.86 794.97 1492.76"/><path class="cls-13" d="m1398.27,1312.01c14.19-10.04,27.52-22.84,38.63-35.38,21.47-24.5,35.38-50.81,35.38-68.34,0-15.12-9.68-25.7-24.5-25.7-21.79,0-58.51,25.68-95.35,57.09,8.96-12.89,17.7-25.18,26.1-36.53.46-.46.81-1.04,1.1-1.65,1.04-1.06,2.08-2.12,3.14-3.19,1.51-1.51,2.42-3.63,2.42-5.75,0-4.54-3.63-8.47-8.17-8.47-2.42,0-4.54.91-6.05,2.42-94.65,96.77-145.76,127.92-167.54,127.92-17.54,0-12.7-28.73-.6-44.15.27-.34.51-.69.72-1.04,23.53-23.69,47.13-49.67,71.56-70.33,1.81-1.51,2.72-3.93,2.72-6.35,0-4.54-3.63-8.47-8.17-8.47-2.12,0-3.93.91-5.44,2.12-62.3,52.62-114.61,131.85-167.84,131.85-9.68,0-10.89-1.21-10.89-5.75,0-29.64,74.7-83.47,90.12-116.13.6-1.21.91-2.42.91-3.63,0-4.23-3.63-7.86-8.17-7.86-3.33,0-6.05,2.12-7.26,4.84-5.39,13.31-33.4,37.41-57.16,63.11-.44.21-.86.43-1.21.7-50.81,37.5-85.28,61.09-114.61,61.09-10.58,0-12.7-2.12-12.7-6.35,0-32.81,81.82-116.28,135.11-173.28h75.37c4.54,0,8.47-3.63,8.47-8.17s-3.93-8.47-8.47-8.47h-59.98c9.11-10,16.69-18.67,21.87-25.4.91-1.51,1.51-3.02,1.51-5.14,0-4.54-3.63-8.17-8.17-8.17-2.72,0-5.14,1.21-6.65,3.33-6.5,8.54-17.69,20.81-31.38,35.38h-75.67c-4.54,0-8.47,3.93-8.47,8.47s3.93,8.17,8.47,8.17h59.94c-31.85,33.58-71.17,74.95-97.89,110.98-.49.27-.95.58-1.37.91-41.13,37.5-84.68,67.74-113.4,67.74-7.56,0-9.07-.91-9.07-2.72,0-20.87,69.25-63.81,69.25-106.45,0-11.19-5.75-22.68-27.82-22.68s-42.59,10.05-62.91,25.31c4.34-14.16,1.76-25.31-16.32-25.31-26.31,0-65.32,31.15-104.94,62.3-43.85,34.78-88.91,69.55-117.64,69.55-17.24,0-10.89-30.85,43.55-88,.25-.31.48-.65.7-1.01,8.65-8.44,17.68-17.46,27.13-27.12,1.51-1.51,2.42-3.63,2.42-5.75,0-4.54-3.63-8.47-8.17-8.47-2.42,0-4.54.91-6.05,2.42-94.65,96.77-145.76,127.92-167.54,127.92-17.54,0-12.7-28.73-.6-44.15.27-.34.51-.69.72-1.04,23.53-23.69,47.13-49.67,71.56-70.33,1.81-1.51,2.72-3.93,2.72-6.35,0-4.54-3.63-8.47-8.17-8.47-2.12,0-3.93.91-5.44,2.12-62.3,52.62-114.61,131.85-167.84,131.85-9.68,0-10.89-1.21-10.89-5.75,0-29.64,74.7-83.47,90.12-116.13.6-1.21.91-2.42.91-3.63,0-4.23-3.63-7.86-8.17-7.86-3.33,0-6.05,2.12-7.26,4.84-5.42,13.38-33.7,37.67-57.53,63.52-.4.26-.79.55-1.14.9-32.36,30.54-71.07,60.48-93.14,60.48-12.67,0-13.8-13.81-13.9-36.84,23.6-18.5,45.39-40.24,64.1-62.65,39.31-47.48,66.23-99.19,66.23-130.94,0-22.08-13-37.2-33.27-37.2-45.92,0-96.23,81.17-146.13,140.38-3.37-.43-6.97-.66-10.82-.66-69.55,0-102.52,31.15-102.52,54.74,0,13.31,9.37,23.29,28.73,23.29,30.89,0,61.39-25.83,90.63-58.97,25.6,8.44,26.38,37.58,26.4,63.91-35.98,26.89-75.38,44.96-113.1,44.96-41.73,0-58.67-22.08-58.67-55.95,0-84.68,106.45-220.46,211.08-220.46,6.65,0,14.52.6,22.38,2.42,5.14.91,10.28-3.02,10.28-8.17,0-3.93-3.02-7.26-6.65-8.17-9.37-1.81-19.05-2.72-26.01-2.72-114.92,0-227.72,144.55-227.72,237.09,0,41.73,22.68,72.58,75.3,72.58,38.45,0,77.62-16.57,113.48-41.46,1.26,21.8,6.7,41.46,30.16,41.46,17.17,0,39-11.75,60.85-27.85-.82,3.12-1.27,6.16-1.27,9.1,0,11.19,5.44,22.38,27.52,22.38,27.45,0,53.62-16.39,79.49-39.12-1.79,18.74,5.55,35.49,27.56,35.49,18.23,0,46.91-13.81,90.74-49.87-14.71,31.12-7.94,49.87,17.22,49.87,35.38,0,83.47-38.1,127.92-72.88,39.62-31.15,75.3-58.97,94.65-58.97,10.28,0-15.12,33.57-26.91,47.18-.32.4-.61.84-.88,1.31-22.53,22.72-45.19,47.54-68.98,67.64-1.81,1.51-2.72,3.93-2.72,6.35,0,4.54,3.63,8.47,8.17,8.47,2.12,0,3.93-.91,5.44-2.12,61.99-52.62,111.89-128.83,165.12-128.83,9.68,0,11.19,1.51,11.19,6.05,0,34.17-69.25,75.6-69.25,106.45,0,10.28,6.96,19.35,25.7,19.35,25.33,0,56.8-17.34,88.39-41.55-2.77,6.89-4.32,13.15-4.32,18.56,0,14.21,9.98,22.98,29.33,22.98,25.27,0,52.31-13.9,84.92-36-2.65,6-4.18,11.8-4.18,17.25,0,11.19,5.44,22.38,27.52,22.38,27.45,0,53.62-16.39,79.49-39.12-1.79,18.74,5.55,35.49,27.56,35.49s56.44-18.63,113.15-69.1c-6.3,9.2-12.65,18.54-18.99,27.91-26.58,25.75-48.34,48.58-57.57,58.13-62.3,64.72-101.01,110.38-101.01,133.06,0,9.37,6.35,15.12,14.52,15.12,27.75,0,91.09-96.21,153.59-189.68,9.72,16.35,25.24,24.56,42.07,24.56.45,0,.9-.03,1.35-.04.25.02.51.04.76.04h3.02c73.51,0,111.86-13.51,168.17-71.18-1.41,7.46-2.15,14.47-2.15,20.98,0,27.52,13.31,50.2,50.5,50.2,22.35,0,40.82-7.96,65.13-27.21,3.45,15.9,13.84,27.21,32.85,27.21,31.75,0,80.74-34.47,121.57-64.11,2.12-1.51,3.63-3.93,3.63-6.65,0-4.84-3.93-8.47-8.47-8.47-1.81,0-3.63.6-4.84,1.51-40.22,29.33-86.19,61.09-111.89,61.09-12.28,0-17.2-8.22-17.51-22.16.09-.08.19-.13.27-.21,51.41-37.8,77.42-67.44,77.42-90.42,0-11.49-7.86-19.05-18.14-19.05-8.77,0-19.05,5.75-28.12,12.7-27.44,21.62-44.96,58.48-47.7,87.76-26.91,23.32-43.74,31.39-64.2,31.39-25.7,0-33.87-12.7-33.87-33.57,0-12.48,3.1-27.38,9.17-44.45,60.12-55.58,145.36-154.88,145.36-203.22,0-10.28-4.54-16.33-12.1-16.33-4.23,0-8.77,2.42-15.42,8.17-11.49,10.28-29.94,32.66-49.6,60.18-38.43,53.11-66.11,99.91-81.11,138.47-52.96,59.73-85.28,81.74-135.03,88.34Zm-1242.69-64.11c-9.68,0-12.1-2.42-12.1-6.65,0-12.47,24.8-37.17,82.66-38.06-23.9,26.01-47.6,44.71-70.56,44.71Zm102.17-55.83c47.92-57.63,92.09-128.64,128.57-128.64,10.28,0,16.63,6.96,16.63,20.56,0,26.91-24.8,75-62.3,120.06-15.46,18.63-32.94,36.56-51.64,52.36-.97-24.05-5.98-52.54-31.26-64.34Zm898.11,287.03c2.68-15.43,34.83-55.36,90.9-114.01-40.97,60.13-76.11,108.96-90.9,114.01Zm162.83-186.02c47.07-44.71,104.41-93.86,129.09-93.86,5.14,0,7.86,3.02,7.86,9.07,0,12.4-11.79,35.38-31.45,57.46-21.77,24.8-51.11,48.69-75,48.69-12.68,0-23.97-6.61-30.51-21.36Zm374.35-84.49c7.26-5.75,13.91-9.37,17.84-9.37,1.21,0,1.51.3,1.51,2.42,0,13.74-18.49,36.72-57.94,67.58,5.85-21.8,19.56-45.85,38.59-60.63Zm-65.32-113.71c19.43-26.6,36.49-47.58,46.81-56.82-4.87,35.38-59.13,104.56-110.18,157.2,15.15-29.46,36.41-63.17,63.37-100.38Zm-908.44,57.46c-4.54,0-8.17-3.63-8.17-8.47,0-2.12.91-4.23,2.42-5.75l34.17-34.47c1.51-1.51,3.63-2.42,6.05-2.42,4.54,0,8.17,3.63,8.17,8.47,0,2.12-.91,4.23-2.42,5.75l-34.17,34.47c-1.51,1.51-3.63,2.42-6.05,2.42Z"/><path class="cls-13" d="m1133.74,957.58v-2.02h3.02v2.18c0,3.74,2.6,6.05,7.94,6.05s8.44-1.97,8.44-6.22c0-3.32-1.39-5.17-4.92-6.09l-6.64-1.72c-4.33-1.13-7.18-2.98-7.18-8.15s3.78-8.91,10.92-8.91,10.59,3.44,10.59,9.07v2.94h-3.02v-2.81c0-4.62-3.07-6.51-7.56-6.51-5.12,0-7.81,2.14-7.81,6.01,0,3.61,1.76,4.7,5.54,5.71l5.75,1.55c5.12,1.39,7.44,3.74,7.44,8.65,0,6.09-4.33,9.24-11.47,9.24-9.12,0-11.05-4.7-11.05-8.99Z"/><path class="cls-13" d="m1174.39,963.34v2.6c-.76.21-2.14.59-4.03.59-3.82,0-6.34-1.6-6.34-6.89v-12.18h-4.16v-2.44h4.16v-6.05l2.94-1.43v7.48h5.92v2.44h-5.92v11.8c0,2.81.76,4.58,3.4,4.58,1.6,0,3.23-.29,4.03-.5Z"/><path class="cls-13" d="m1195.86,956.53h-15.96c.17,4.79,2.48,7.48,6.93,7.48,3.82,0,5.67-1.43,5.96-4.83h2.98c-.29,4.24-3.28,7.39-9.03,7.39-7.06,0-9.83-4.66-9.83-10.88s3.23-11.22,10-11.22,8.95,3.99,8.95,10.21v1.85Zm-3.11-2.98c0-4.45-1.72-6.55-5.92-6.55s-6.55,2.65-6.89,6.97h12.81v-.42Z"/><path class="cls-13" d="m1219,956.53h-15.96c.17,4.79,2.48,7.48,6.93,7.48,3.82,0,5.67-1.43,5.96-4.83h2.98c-.29,4.24-3.28,7.39-9.03,7.39-7.06,0-9.83-4.66-9.83-10.88s3.23-11.22,10-11.22,8.95,3.99,8.95,10.21v1.85Zm-3.11-2.98c0-4.45-1.72-6.55-5.92-6.55s-6.55,2.65-6.89,6.97h12.81v-.42Z"/><path class="cls-13" d="m1224.88,945.02h2.39l.34,3.86h.08c1.13-2.48,4.03-4.41,7.86-4.41,6.3,0,9.66,3.99,9.66,11.01s-4.29,11.09-9.87,11.09c-3.78,0-6.38-1.6-7.44-3.7h-.08v11.55h-2.94v-29.41Zm17.18,10.63c0-7.18-3.4-8.61-6.93-8.61-4.24,0-7.56,2.73-7.56,8.44,0,6.01,3.44,8.57,7.44,8.57,3.02,0,7.06-1.47,7.06-8.4Z"/><path class="cls-13" d="m1258.85,959.6v-1.18h2.94v1.13c0,2.86,2.14,4.5,5.96,4.5s5.8-1.01,5.8-3.78c0-2.06-1.01-2.81-3.87-3.32l-4.62-.84c-3.02-.55-5.54-2.02-5.54-5.5,0-3.15,2.35-6.13,8.4-6.13s8.4,3.02,8.4,7.23v.88h-2.98v-.76c0-3.44-2.14-4.91-5.42-4.91-3.95,0-5.33,1.34-5.33,3.36s1.01,2.86,3.91,3.4l4.03.76c4.12.76,6.09,1.93,6.09,5.59,0,4.58-4.12,6.55-8.78,6.55-7.31,0-8.99-3.28-8.99-6.97Z"/><path class="cls-13" d="m1282.5,933.26h2.94v32.77h-2.94v-32.77Z"/><path class="cls-13" d="m1291.53,960.23c0-3.95,2.23-6.09,7.86-6.09h6.34v-1.72c0-2.98-1.26-5.42-5.46-5.42-3.95,0-5.33,1.51-5.33,4.12v.88h-2.98v-.84c0-5,4.2-6.68,8.32-6.68,5.8,0,8.4,2.86,8.4,8.44v13.11h-2.06l-.55-2.98h-.08c-1.26,1.89-3.7,3.53-7.35,3.53-4.91,0-7.1-2.31-7.1-6.34Zm14.2-1.85v-1.76h-7.02c-2.65,0-4.03.92-4.03,3.61,0,2.35,1.26,3.86,4.5,3.86,4.16,0,6.55-2.14,6.55-5.71Z"/><path class="cls-13" d="m1316.02,945.02h2.6l.29,3.49c1.01-2.14,3.28-4.03,7.35-4.03,4.75,0,7.77,2.52,7.77,7.94v13.61h-2.94v-13.27c0-4.33-2.14-5.71-5.5-5.71-3.82,0-6.64,2.69-6.64,5.63v13.36h-2.94v-21Z"/><path class="cls-13" d="m1352.35,963.34v2.6c-.76.21-2.14.59-4.03.59-3.82,0-6.34-1.6-6.34-6.89v-12.18h-4.16v-2.44h4.16v-6.05l2.94-1.43v7.48h5.92v2.44h-5.92v11.8c0,2.81.76,4.58,3.4,4.58,1.6,0,3.23-.29,4.03-.5Z"/><path class="cls-13" d="m769.54,2545.37h-11.51v-2.6h25.96v2.6h-11.51v30.16h-2.94v-30.16Z"/><path class="cls-13" d="m787.35,2542.77h2.98v6.51h-2.98v-6.51Zm0,11.76h2.94v21h-2.94v-21Z"/><path class="cls-13" d="m797.68,2542.77h2.94v32.77h-2.94v-32.77Z"/><path class="cls-13" d="m806.29,2565.07c0-7.1,4.28-11.09,10.04-11.09,3.7,0,6.22,1.6,7.31,3.74h.04v-14.95h2.94v32.77h-1.97l-.67-3.61h-.08c-1.18,2.31-3.95,4.16-7.77,4.16-6.3,0-9.83-3.99-9.83-11.01Zm17.64-.5c0-5.5-3.36-8.07-7.35-8.07-3.11,0-7.14,1.47-7.14,8.4s3.61,8.61,7.14,8.61c4.24,0,7.35-2.73,7.35-8.95Z"/><path class="cls-13" d="m851.23,2566.04h-15.96c.17,4.79,2.48,7.48,6.93,7.48,3.82,0,5.67-1.43,5.97-4.83h2.98c-.29,4.24-3.28,7.39-9.03,7.39-7.06,0-9.83-4.66-9.83-10.88s3.23-11.22,10-11.22,8.95,3.99,8.95,10.21v1.85Zm-3.11-2.98c0-4.45-1.72-6.55-5.92-6.55s-6.55,2.65-6.89,6.97h12.81v-.42Z"/><path class="cls-13" d="m866.77,2542.77h2.98v6.51h-2.98v-6.51Zm0,11.76h2.94v21h-2.94v-21Z"/><path class="cls-13" d="m875.21,2569.1v-1.18h2.94v1.13c0,2.86,2.14,4.49,5.96,4.49s5.8-1.01,5.8-3.78c0-2.06-1.01-2.81-3.86-3.32l-4.62-.84c-3.02-.55-5.54-2.02-5.54-5.5,0-3.15,2.35-6.13,8.4-6.13s8.4,3.02,8.4,7.23v.88h-2.98v-.76c0-3.45-2.14-4.92-5.42-4.92-3.95,0-5.33,1.34-5.33,3.36s1.01,2.86,3.91,3.4l4.03.76c4.12.76,6.09,1.93,6.09,5.59,0,4.58-4.12,6.55-8.78,6.55-7.31,0-8.99-3.28-8.99-6.97Z"/><path class="cls-13" d="m907.26,2569.73c0-3.95,2.23-6.09,7.86-6.09h6.34v-1.72c0-2.98-1.26-5.42-5.46-5.42-3.95,0-5.33,1.51-5.33,4.12v.88h-2.98v-.84c0-5,4.2-6.68,8.32-6.68,5.8,0,8.4,2.86,8.4,8.44v13.11h-2.06l-.55-2.98h-.08c-1.26,1.89-3.7,3.53-7.35,3.53-4.92,0-7.1-2.31-7.1-6.34Zm14.2-1.85v-1.76h-7.01c-2.65,0-4.03.92-4.03,3.61,0,2.35,1.26,3.86,4.5,3.86,4.16,0,6.55-2.14,6.55-5.71Z"/><path class="cls-13" d="m941.4,2542.77h2.94v15.16c1.05-2.1,3.28-3.95,7.31-3.95,4.75,0,7.77,2.52,7.77,7.94v13.61h-2.94v-13.27c0-4.33-2.14-5.71-5.5-5.71-3.82,0-6.64,2.69-6.64,5.63v13.36h-2.94v-32.77Z"/><path class="cls-13" d="m965.09,2565.03c0-6.22,3.32-11.05,10.38-11.05,6.59,0,10.25,4.83,10.25,11.05s-3.7,11.05-10.29,11.05c-7.27,0-10.33-4.83-10.33-11.05Zm17.56,0c0-5.33-2.9-8.49-7.22-8.49-4.75,0-7.27,3.15-7.27,8.49s2.56,8.49,7.27,8.49c4.33,0,7.22-3.15,7.22-8.49Z"/><path class="cls-13" d="m991.59,2554.53h2.6l.29,3.91c1.01-2.14,3.07-4.45,6.76-4.45,1.26,0,2.18.21,3.02.55v3.15c-1.13-.5-2.1-.76-3.4-.76-3.74,0-6.34,2.81-6.34,5.75v12.85h-2.94v-21Z"/><path class="cls-13" d="m1008.9,2542.77h2.98v6.51h-2.98v-6.51Zm0,11.76h2.94v21h-2.94v-21Z"/><path class="cls-13" d="m1016.92,2572.97l14.7-15.88h-14.58v-2.56h18.23v2.56l-14.7,15.84h14.66v2.6h-18.31v-2.56Z"/><path class="cls-13" d="m1038.21,2565.03c0-6.22,3.32-11.05,10.38-11.05,6.59,0,10.25,4.83,10.25,11.05s-3.7,11.05-10.29,11.05c-7.27,0-10.33-4.83-10.33-11.05Zm17.56,0c0-5.33-2.9-8.49-7.22-8.49-4.75,0-7.27,3.15-7.27,8.49s2.56,8.49,7.27,8.49c4.33,0,7.22-3.15,7.22-8.49Z"/><path class="cls-13" d="m1064.71,2554.53h2.6l.29,3.49c1.01-2.14,3.28-4.03,7.35-4.03,4.75,0,7.77,2.52,7.77,7.94v13.61h-2.94v-13.27c0-4.33-2.14-5.71-5.5-5.71-3.82,0-6.64,2.69-6.64,5.63v13.36h-2.94v-21Z"/><path class="cls-13" d="m1101.05,2572.84v2.6c-.76.21-2.14.59-4.03.59-3.82,0-6.34-1.6-6.34-6.89v-12.18h-4.16v-2.44h4.16v-6.05l2.94-1.43v7.48h5.92v2.44h-5.92v11.8c0,2.82.76,4.58,3.4,4.58,1.6,0,3.23-.29,4.03-.5Z"/><path class="cls-13" d="m1104.62,2569.73c0-3.95,2.23-6.09,7.86-6.09h6.34v-1.72c0-2.98-1.26-5.42-5.46-5.42-3.95,0-5.33,1.51-5.33,4.12v.88h-2.98v-.84c0-5,4.2-6.68,8.32-6.68,5.8,0,8.4,2.86,8.4,8.44v13.11h-2.06l-.55-2.98h-.08c-1.26,1.89-3.7,3.53-7.35,3.53-4.92,0-7.1-2.31-7.1-6.34Zm14.2-1.85v-1.76h-7.01c-2.65,0-4.03.92-4.03,3.61,0,2.35,1.26,3.86,4.5,3.86,4.16,0,6.55-2.14,6.55-5.71Z"/><path class="cls-13" d="m1129.1,2542.77h2.94v32.77h-2.94v-32.77Z"/><path class="cls-13" d="m1149.05,2542.77h2.94v32.77h-2.94v-32.77Z"/><path class="cls-13" d="m1159.34,2542.77h2.98v6.51h-2.98v-6.51Zm0,11.76h2.94v21h-2.94v-21Z"/><path class="cls-13" d="m1169.67,2554.53h2.6l.29,3.49c1.01-2.14,3.28-4.03,7.35-4.03,4.75,0,7.77,2.52,7.77,7.94v13.61h-2.94v-13.27c0-4.33-2.14-5.71-5.5-5.71-3.82,0-6.64,2.69-6.64,5.63v13.36h-2.94v-21Z"/><path class="cls-13" d="m1212.31,2566.04h-15.96c.17,4.79,2.48,7.48,6.93,7.48,3.82,0,5.67-1.43,5.97-4.83h2.98c-.29,4.24-3.28,7.39-9.03,7.39-7.06,0-9.83-4.66-9.83-10.88s3.23-11.22,10-11.22,8.95,3.99,8.95,10.21v1.85Zm-3.11-2.98c0-4.45-1.72-6.55-5.92-6.55s-6.55,2.65-6.89,6.97h12.81v-.42Z"/><line class="cls-3" x1="986.71" y1="2769.36" x2="986.71" y2="2768.48"/><line class="cls-1" x1="986.71" y1="2750.01" x2="986.71" y2="2617.02"/><line class="cls-3" x1="986.71" y1="2607.78" x2="986.71" y2="2606.91"/><path class="cls-15" d="m1289.53,1297.75c-22.87,22.45-41.22,41.69-49.5,50.25-62.3,64.72-101.01,110.38-101.01,133.06,0,9.37,6.35,15.12,14.52,15.12,27.48,0,89.85-94.32,151.74-186.91m-149.42,169.82c2.68-15.43,34.83-55.36,90.9-114.01-40.97,60.13-76.11,108.96-90.9,114.01Z"/><line class="cls-3" x1="1201.32" y1="1642.35" x2="1201.32" y2="1641.48"/><line class="cls-6" x1="1201.32" y1="1623.42" x2="1201.32" y2="1572.84"/><line class="cls-3" x1="1201.32" y1="1563.81" x2="1201.32" y2="1562.94"/><path class="cls-13" d="m976.54,1660.69h3.23l11.51,20.92h.08l11.51-20.92h3.24v32.77h-2.94v-27.85h-.04l-10.75,19.91h-2.06l-10.8-19.91h-.04v27.85h-2.94v-32.77Z"/><path class="cls-13" d="m1014.71,1660.69h2.98v6.51h-2.98v-6.51Zm0,11.76h2.94v21h-2.94v-21Z"/><path class="cls-13" d="m1025.04,1672.45h2.6l.29,3.91c1.01-2.14,3.07-4.45,6.76-4.45,1.26,0,2.18.21,3.02.55v3.15c-1.13-.5-2.1-.76-3.4-.76-3.74,0-6.34,2.81-6.34,5.75v12.85h-2.94v-21Z"/><path class="cls-13" d="m1042.35,1672.45h2.6l.29,3.91c1.01-2.14,3.07-4.45,6.76-4.45,1.26,0,2.18.21,3.02.55v3.15c-1.13-.5-2.1-.76-3.4-.76-3.74,0-6.34,2.81-6.34,5.75v12.85h-2.94v-21Z"/><path class="cls-13" d="m1057.34,1682.96c0-6.22,3.32-11.05,10.38-11.05,6.6,0,10.25,4.83,10.25,11.05s-3.7,11.05-10.29,11.05c-7.27,0-10.33-4.83-10.33-11.05Zm17.56,0c0-5.33-2.9-8.49-7.23-8.49-4.75,0-7.27,3.15-7.27,8.49s2.56,8.49,7.27,8.49c4.33,0,7.23-3.15,7.23-8.49Z"/><path class="cls-13" d="m1083.84,1672.45h2.6l.29,3.91c1.01-2.14,3.07-4.45,6.76-4.45,1.26,0,2.18.21,3.02.55v3.15c-1.13-.5-2.1-.76-3.4-.76-3.74,0-6.34,2.81-6.34,5.75v12.85h-2.94v-21Z"/><path class="cls-13" d="m1117.78,1683.96h-15.96c.17,4.79,2.48,7.48,6.93,7.48,3.82,0,5.67-1.43,5.97-4.83h2.98c-.29,4.24-3.28,7.39-9.03,7.39-7.06,0-9.83-4.66-9.83-10.88s3.23-11.22,10-11.22,8.95,3.99,8.95,10.21v1.85Zm-3.11-2.98c0-4.45-1.72-6.55-5.92-6.55s-6.55,2.65-6.89,6.97h12.81v-.42Z"/><path class="cls-13" d="m1121.98,1683c0-7.1,4.28-11.09,10.04-11.09,3.7,0,6.22,1.6,7.31,3.74h.04v-14.96h2.94v32.77h-1.97l-.67-3.61h-.08c-1.18,2.31-3.95,4.16-7.77,4.16-6.3,0-9.83-3.99-9.83-11.01Zm17.64-.5c0-5.5-3.36-8.07-7.35-8.07-3.11,0-7.14,1.47-7.14,8.4s3.61,8.61,7.14,8.61c4.24,0,7.35-2.73,7.35-8.95Z"/><path class="cls-13" d="m1159.32,1660.69h2.94v32.77h-2.94v-32.77Z"/><path class="cls-13" d="m1167.93,1682.96c0-6.22,3.32-11.05,10.38-11.05,6.59,0,10.25,4.83,10.25,11.05s-3.7,11.05-10.29,11.05c-7.27,0-10.33-4.83-10.33-11.05Zm17.56,0c0-5.33-2.9-8.49-7.22-8.49-4.75,0-7.27,3.15-7.27,8.49s2.56,8.49,7.27,8.49c4.33,0,7.22-3.15,7.22-8.49Z"/><path class="cls-13" d="m1192.75,1682.96c0-6.22,3.32-11.05,10.38-11.05,6.59,0,10.25,4.83,10.25,11.05s-3.7,11.05-10.29,11.05c-7.27,0-10.33-4.83-10.33-11.05Zm17.56,0c0-5.33-2.9-8.49-7.22-8.49-4.75,0-7.27,3.15-7.27,8.49s2.56,8.49,7.27,8.49c4.33,0,7.22-3.15,7.22-8.49Z"/><path class="cls-13" d="m1219.25,1672.45h2.39l.34,3.87h.08c1.13-2.48,4.03-4.41,7.86-4.41,6.3,0,9.66,3.99,9.66,11.01s-4.29,11.09-9.87,11.09c-3.78,0-6.38-1.6-7.43-3.7h-.08v11.55h-2.94v-29.41Zm17.18,10.63c0-7.18-3.4-8.61-6.93-8.61-4.24,0-7.56,2.73-7.56,8.44,0,6.01,3.45,8.57,7.44,8.57,3.02,0,7.06-1.47,7.06-8.4Z"/><path class="cls-13" d="m1243.57,1687.03v-1.18h2.94v1.13c0,2.86,2.14,4.5,5.96,4.5s5.8-1.01,5.8-3.78c0-2.06-1.01-2.81-3.86-3.32l-4.62-.84c-3.02-.55-5.54-2.02-5.54-5.5,0-3.15,2.35-6.13,8.4-6.13s8.4,3.02,8.4,7.23v.88h-2.98v-.76c0-3.44-2.14-4.92-5.42-4.92-3.95,0-5.33,1.34-5.33,3.36s1.01,2.86,3.91,3.4l4.03.76c4.12.76,6.09,1.93,6.09,5.59,0,4.58-4.12,6.55-8.78,6.55-7.31,0-8.99-3.28-8.99-6.97Z"/><path class="cls-13" d="m1276.88,1660.69h2.98v6.51h-2.98v-6.51Zm0,11.76h2.94v21h-2.94v-21Z"/><path class="cls-13" d="m1287.21,1672.45h2.6l.29,3.49c1.01-2.14,3.28-4.03,7.35-4.03,4.75,0,7.77,2.52,7.77,7.94v13.61h-2.94v-13.27c0-4.33-2.14-5.71-5.5-5.71-3.82,0-6.64,2.69-6.64,5.63v13.36h-2.94v-21Z"/><path class="cls-13" d="m1017.09,1720h-3.36v-5.08c0-3.95.88-5.29,3.4-5.97l.67,1.85c-1.76.67-2.06,1.09-2.06,3.78v.34h1.34v5.08Zm5.92,0h-3.36v-5.08c0-3.95.88-5.29,3.4-5.97l.67,1.85c-1.76.67-2.06,1.09-2.06,3.78v.34h1.34v5.08Z"/><path class="cls-13" d="m1033.13,1716.26v5.04h5.92v2.44h-5.92v18.57h-2.94v-18.57h-4.16v-2.44h4.16v-5.42c0-5.29,3.15-6.89,6.38-6.89,1.85,0,2.98.29,3.74.55v2.6c-.71-.21-1.89-.46-3.49-.46-2.65,0-3.7,1.76-3.7,4.58Z"/><path class="cls-13" d="m1043.67,1718.74c1.76-.67,2.06-1.09,2.06-3.78v-.34h-1.34v-5.08h3.36v5.08c0,3.95-.88,5.29-3.4,5.97l-.67-1.85Zm5.92,0c1.76-.67,2.06-1.09,2.06-3.78v-.34h-1.34v-5.08h3.36v5.08c0,3.95-.88,5.29-3.4,5.97l-.67-1.85Z"/><path class="cls-13" d="m1056.61,1736.09h3.36v6.22c0,3.95-.88,5.29-3.4,5.96l-.67-1.85c1.76-.67,2.06-1.09,2.06-3.78v-.34h-1.34v-6.22Z"/><path class="cls-13" d="m1077.61,1720h-3.36v-5.08c0-3.95.88-5.29,3.4-5.97l.67,1.85c-1.76.67-2.06,1.09-2.06,3.78v.34h1.34v5.08Zm5.92,0h-3.36v-5.08c0-3.95.88-5.29,3.4-5.97l.67,1.85c-1.76.67-2.06,1.09-2.06,3.78v.34h1.34v5.08Z"/><path class="cls-13" d="m1089.91,1721.3h2.39l.34,3.86h.08c1.13-2.48,4.03-4.41,7.86-4.41,6.3,0,9.66,3.99,9.66,11.01s-4.29,11.09-9.87,11.09c-3.78,0-6.38-1.6-7.43-3.7h-.08v11.55h-2.94v-29.41Zm17.18,10.63c0-7.18-3.4-8.61-6.93-8.61-4.24,0-7.56,2.73-7.56,8.44,0,6.01,3.45,8.57,7.44,8.57,3.02,0,7.06-1.47,7.06-8.4Z"/><path class="cls-13" d="m1111.5,1718.74c1.76-.67,2.06-1.09,2.06-3.78v-.34h-1.34v-5.08h3.36v5.08c0,3.95-.88,5.29-3.4,5.97l-.67-1.85Zm5.92,0c1.76-.67,2.06-1.09,2.06-3.78v-.34h-1.34v-5.08h3.36v5.08c0,3.95-.88,5.29-3.4,5.97l-.67-1.85Z"/><path class="cls-13" d="m1135.78,1736.51c0-3.95,2.23-6.09,7.86-6.09h6.34v-1.72c0-2.98-1.26-5.42-5.46-5.42-3.95,0-5.33,1.51-5.33,4.12v.88h-2.98v-.84c0-5,4.2-6.68,8.32-6.68,5.8,0,8.4,2.86,8.4,8.44v13.11h-2.06l-.55-2.98h-.08c-1.26,1.89-3.7,3.53-7.35,3.53-4.92,0-7.1-2.31-7.1-6.34Zm14.2-1.85v-1.76h-7.01c-2.65,0-4.03.92-4.03,3.61,0,2.35,1.26,3.86,4.5,3.86,4.16,0,6.55-2.14,6.55-5.71Z"/><path class="cls-13" d="m1160.26,1721.3h2.6l.29,3.49c1.01-2.14,3.28-4.03,7.35-4.03,4.75,0,7.77,2.52,7.77,7.94v13.61h-2.94v-13.27c0-4.33-2.14-5.71-5.5-5.71-3.82,0-6.64,2.69-6.64,5.63v13.36h-2.94v-21Z"/><path class="cls-13" d="m1183.95,1731.84c0-7.1,4.28-11.09,10.04-11.09,3.7,0,6.22,1.6,7.31,3.74h.04v-14.95h2.94v32.77h-1.97l-.67-3.61h-.08c-1.18,2.31-3.95,4.16-7.77,4.16-6.3,0-9.83-3.99-9.83-11.01Zm17.64-.5c0-5.5-3.36-8.07-7.35-8.07-3.11,0-7.14,1.47-7.14,8.4s3.61,8.61,7.14,8.61c4.24,0,7.35-2.73,7.35-8.95Z"/><path class="cls-13" d="m1222.97,1720h-3.36v-5.08c0-3.95.88-5.29,3.4-5.97l.67,1.85c-1.76.67-2.06,1.09-2.06,3.78v.34h1.34v5.08Zm5.92,0h-3.36v-5.08c0-3.95.88-5.29,3.4-5.97l.67,1.85c-1.76.67-2.06,1.09-2.06,3.78v.34h1.34v5.08Z"/><path class="cls-13" d="m1249.22,1738.82h-.08c-1.09,2.14-3.65,4.03-7.48,4.03-6.3,0-9.75-3.99-9.75-11.01s4.37-11.09,9.96-11.09c3.78,0,6.6,1.76,7.65,4.28h.04l.29-3.74h2.31v29.41h-2.94v-11.89Zm.34-7.48c0-5.5-3.36-8.07-7.35-8.07-3.03,0-7.14,1.47-7.14,8.4s3.57,8.61,7.1,8.61c4.24,0,7.39-2.73,7.39-8.95Z"/><path class="cls-13" d="m1256.78,1718.74c1.76-.67,2.06-1.09,2.06-3.78v-.34h-1.34v-5.08h3.36v5.08c0,3.95-.88,5.29-3.4,5.97l-.67-1.85Zm5.92,0c1.76-.67,2.06-1.09,2.06-3.78v-.34h-1.34v-5.08h3.36v5.08c0,3.95-.88,5.29-3.4,5.97l-.67-1.85Z"/><path class="cls-16" d="m591.6,2114.9c31.19-16.97,64.24-39.58,89.71-59.4-15.57,49.45-45.82,81.4-71.2,81.4-5.04,0-14.44-10.2-18.51-22.01Z"/><path class="cls-13" d="m908.36,2427.44c0-12.01,6.76-17.26,14.74-17.26,6.97,0,12.39,3.74,12.39,12.01v.8h-2.86v-.92c0-5.92-3.78-9.24-9.45-9.24-6.72,0-11.76,4.58-11.76,14.32s5.04,14.24,11.72,14.24c5.38,0,9.54-2.86,9.54-9.2v-.59h2.77v.42c0,8.02-5.33,12.01-12.56,12.01-7.98,0-14.53-4.87-14.53-16.59Z"/><path class="cls-13" d="m941.79,2410.72h2.94v32.77h-2.94v-32.77Z"/><path class="cls-13" d="m950.4,2432.99c0-6.22,3.32-11.05,10.38-11.05,6.59,0,10.25,4.83,10.25,11.05s-3.7,11.05-10.29,11.05c-7.27,0-10.33-4.83-10.33-11.05Zm17.56,0c0-5.33-2.9-8.49-7.22-8.49-4.75,0-7.27,3.15-7.27,8.49s2.56,8.49,7.27,8.49c4.33,0,7.22-3.15,7.22-8.49Z"/><path class="cls-13" d="m975.02,2437.06v-1.18h2.94v1.13c0,2.86,2.14,4.49,5.96,4.49s5.8-1.01,5.8-3.78c0-2.06-1.01-2.81-3.86-3.32l-4.62-.84c-3.02-.55-5.54-2.02-5.54-5.5,0-3.15,2.35-6.13,8.4-6.13s8.4,3.02,8.4,7.23v.88h-2.98v-.76c0-3.45-2.14-4.92-5.42-4.92-3.95,0-5.33,1.34-5.33,3.36s1.01,2.86,3.91,3.4l4.03.76c4.12.76,6.09,1.93,6.09,5.59,0,4.58-4.12,6.55-8.78,6.55-7.31,0-8.99-3.28-8.99-6.97Z"/><path class="cls-13" d="m1015.93,2434h-15.96c.17,4.79,2.48,7.48,6.93,7.48,3.82,0,5.67-1.43,5.97-4.83h2.98c-.29,4.24-3.28,7.39-9.03,7.39-7.06,0-9.83-4.66-9.83-10.88s3.23-11.22,10-11.22,8.95,3.99,8.95,10.21v1.85Zm-3.11-2.98c0-4.45-1.72-6.55-5.92-6.55s-6.55,2.65-6.89,6.97h12.81v-.42Z"/><path class="cls-13" d="m1020.12,2433.03c0-7.1,4.28-11.09,10.04-11.09,3.7,0,6.22,1.6,7.31,3.74h.04v-14.95h2.94v32.77h-1.97l-.67-3.61h-.08c-1.18,2.31-3.95,4.16-7.77,4.16-6.3,0-9.83-3.99-9.83-11.01Zm17.64-.5c0-5.5-3.36-8.07-7.35-8.07-3.11,0-7.14,1.47-7.14,8.4s3.61,8.61,7.14,8.61c4.24,0,7.35-2.73,7.35-8.95Z"/><path class="cls-13" d="m1055.78,2433.16c0-6.38,3.23-11.22,10-11.22s8.95,3.91,8.95,8.95v.42h-3.11v-.63c0-3.82-1.64-6.09-5.84-6.09-4.75,0-7.02,3.11-7.02,8.4,0,5.63,2.39,8.49,6.93,8.49,3.82,0,5.84-1.85,5.92-5.67h3.02c-.08,4.66-3.15,8.23-9.03,8.23-7.22,0-9.83-4.75-9.83-10.88Z"/><path class="cls-13" d="m1078.92,2432.99c0-6.22,3.32-11.05,10.38-11.05,6.59,0,10.25,4.83,10.25,11.05s-3.7,11.05-10.29,11.05c-7.27,0-10.33-4.83-10.33-11.05Zm17.56,0c0-5.33-2.9-8.49-7.22-8.49-4.75,0-7.27,3.15-7.27,8.49s2.56,8.49,7.27,8.49c4.33,0,7.22-3.15,7.22-8.49Z"/><path class="cls-13" d="m1105,2436.1v-13.61h2.94v13.27c0,4.33,2.14,5.71,5.42,5.71,3.74,0,6.55-2.69,6.55-5.63v-13.36h2.94v21h-2.6l-.25-3.36h-.08c-.97,2.02-3.23,3.91-7.23,3.91-4.66,0-7.69-2.52-7.69-7.94Z"/><path class="cls-13" d="m1130.21,2422.49h2.6l.29,3.49c1.01-2.14,3.28-4.03,7.35-4.03,4.75,0,7.77,2.52,7.77,7.94v13.61h-2.94v-13.27c0-4.33-2.14-5.71-5.5-5.71-3.82,0-6.64,2.69-6.64,5.63v13.36h-2.94v-21Z"/><path class="cls-13" d="m1166.54,2440.8v2.6c-.76.21-2.14.59-4.03.59-3.82,0-6.34-1.6-6.34-6.89v-12.18h-4.16v-2.44h4.16v-6.05l2.94-1.43v7.48h5.92v2.44h-5.92v11.8c0,2.82.76,4.58,3.4,4.58,1.6,0,3.23-.29,4.03-.5Z"/><path class="cls-13" d="m1188,2434h-15.96c.17,4.79,2.48,7.48,6.93,7.48,3.82,0,5.67-1.43,5.97-4.83h2.98c-.29,4.24-3.28,7.39-9.03,7.39-7.06,0-9.83-4.66-9.83-10.88s3.23-11.22,10-11.22,8.95,3.99,8.95,10.21v1.85Zm-3.11-2.98c0-4.45-1.72-6.55-5.92-6.55s-6.55,2.65-6.89,6.97h12.81v-.42Z"/><path class="cls-13" d="m1193.88,2422.49h2.6l.29,3.91c1.01-2.14,3.07-4.45,6.76-4.45,1.26,0,2.18.21,3.02.55v3.15c-1.13-.5-2.1-.76-3.4-.76-3.74,0-6.34,2.81-6.34,5.75v12.85h-2.94v-21Z"/><path class="cls-13" d="m1209.08,2437.06v-1.18h2.94v1.13c0,2.86,2.14,4.49,5.96,4.49s5.8-1.01,5.8-3.78c0-2.06-1.01-2.81-3.86-3.32l-4.62-.84c-3.02-.55-5.54-2.02-5.54-5.5,0-3.15,2.35-6.13,8.4-6.13s8.4,3.02,8.4,7.23v.88h-2.98v-.76c0-3.45-2.14-4.92-5.42-4.92-3.95,0-5.33,1.34-5.33,3.36s1.01,2.86,3.91,3.4l4.03.76c4.12.76,6.09,1.93,6.09,5.59,0,4.58-4.12,6.55-8.78,6.55-7.31,0-8.99-3.28-8.99-6.97Z"/><path class="cls-13" d="m1242.39,2410.72h2.98v6.51h-2.98v-6.51Zm0,11.76h2.94v21h-2.94v-21Z"/><path class="cls-13" d="m1252.72,2422.49h2.6l.29,3.49c1.01-2.14,3.28-4.03,7.35-4.03,4.75,0,7.77,2.52,7.77,7.94v13.61h-2.94v-13.27c0-4.33-2.14-5.71-5.5-5.71-3.82,0-6.64,2.69-6.64,5.63v13.36h-2.94v-21Z"/><path class="cls-13" d="m1289.43,2421.18h-3.36v-5.08c0-3.95.88-5.29,3.4-5.96l.67,1.85c-1.76.67-2.06,1.09-2.06,3.78v.34h1.34v5.08Zm5.92,0h-3.36v-5.08c0-3.95.88-5.29,3.4-5.96l.67,1.85c-1.76.67-2.06,1.09-2.06,3.78v.34h1.34v5.08Z"/><path class="cls-13" d="m1297.32,2437.06v-1.18h2.94v1.13c0,2.86,2.14,4.49,5.96,4.49s5.8-1.01,5.8-3.78c0-2.06-1.01-2.81-3.86-3.32l-4.62-.84c-3.02-.55-5.54-2.02-5.54-5.5,0-3.15,2.35-6.13,8.4-6.13s8.4,3.02,8.4,7.23v.88h-2.98v-.76c0-3.45-2.14-4.92-5.42-4.92-3.95,0-5.33,1.34-5.33,3.36s1.01,2.86,3.91,3.4l4.03.76c4.12.76,6.09,1.93,6.09,5.59,0,4.58-4.12,6.55-8.78,6.55-7.31,0-8.99-3.28-8.99-6.97Z"/><path class="cls-13" d="m1317.4,2419.92c1.76-.67,2.06-1.09,2.06-3.78v-.34h-1.34v-5.08h3.36v5.08c0,3.95-.88,5.29-3.4,5.96l-.67-1.85Zm5.92,0c1.76-.67,2.06-1.09,2.06-3.78v-.34h-1.34v-5.08h3.36v5.08c0,3.95-.88,5.29-3.4,5.96l-.67-1.85Z"/><path class="cls-13" d="m1341.68,2437.69c0-3.95,2.23-6.09,7.86-6.09h6.34v-1.72c0-2.98-1.26-5.42-5.46-5.42-3.95,0-5.33,1.51-5.33,4.12v.88h-2.98v-.84c0-5,4.2-6.68,8.32-6.68,5.8,0,8.4,2.86,8.4,8.44v13.11h-2.06l-.55-2.98h-.08c-1.26,1.89-3.7,3.53-7.35,3.53-4.92,0-7.1-2.31-7.1-6.34Zm14.2-1.85v-1.76h-7.01c-2.65,0-4.03.92-4.03,3.61,0,2.35,1.26,3.86,4.5,3.86,4.16,0,6.55-2.14,6.55-5.71Z"/><path class="cls-13" d="m1366.16,2422.49h2.6l.29,3.49c1.01-2.14,3.28-4.03,7.35-4.03,4.75,0,7.77,2.52,7.77,7.94v13.61h-2.94v-13.27c0-4.33-2.14-5.71-5.5-5.71-3.82,0-6.64,2.69-6.64,5.63v13.36h-2.94v-21Z"/><path class="cls-13" d="m1389.85,2433.03c0-7.1,4.28-11.09,10.04-11.09,3.7,0,6.22,1.6,7.31,3.74h.04v-14.95h2.94v32.77h-1.97l-.67-3.61h-.08c-1.18,2.31-3.95,4.16-7.77,4.16-6.3,0-9.83-3.99-9.83-11.01Zm17.64-.5c0-5.5-3.36-8.07-7.35-8.07-3.11,0-7.14,1.47-7.14,8.4s3.61,8.61,7.14,8.61c4.24,0,7.35-2.73,7.35-8.95Z"/><path class="cls-13" d="m1428.87,2421.18h-3.36v-5.08c0-3.95.88-5.29,3.4-5.96l.67,1.85c-1.76.67-2.06,1.09-2.06,3.78v.34h1.34v5.08Zm5.92,0h-3.36v-5.08c0-3.95.88-5.29,3.4-5.96l.67,1.85c-1.76.67-2.06,1.09-2.06,3.78v.34h1.34v5.08Z"/><path class="cls-13" d="m1441.17,2422.49h2.39l.34,3.87h.08c1.13-2.48,4.03-4.41,7.86-4.41,6.3,0,9.66,3.99,9.66,11.01s-4.29,11.09-9.87,11.09c-3.78,0-6.38-1.6-7.43-3.7h-.08v11.55h-2.94v-29.41Zm17.18,10.63c0-7.18-3.4-8.61-6.93-8.61-4.24,0-7.56,2.73-7.56,8.44,0,6.01,3.45,8.57,7.44,8.57,3.02,0,7.06-1.47,7.06-8.4Z"/><path class="cls-13" d="m1462.76,2419.92c1.76-.67,2.06-1.09,2.06-3.78v-.34h-1.34v-5.08h3.36v5.08c0,3.95-.88,5.29-3.4,5.96l-.67-1.85Zm5.92,0c1.76-.67,2.06-1.09,2.06-3.78v-.34h-1.34v-5.08h3.36v5.08c0,3.95-.88,5.29-3.4,5.96l-.67-1.85Z"/><line class="cls-3" x1="591.6" y1="2161.49" x2="591.6" y2="2162.36"/><line class="cls-8" x1="591.6" y1="2179.64" x2="591.6" y2="2418.13"/><polyline class="cls-3" points="591.6 2426.77 591.6 2427.64 592.47 2427.64"/><line class="cls-4" x1="610.48" y1="2427.64" x2="819.41" y2="2427.64"/><polyline class="cls-3" points="828.42 2427.64 829.29 2427.64 829.29 2426.77"/><line class="cls-9" x1="829.29" y1="2408.85" x2="829.29" y2="2181.22"/><line class="cls-3" x1="829.29" y1="2172.25" x2="829.29" y2="2171.38"/><path class="cls-13" d="m831.19,768.64c0-12.01,6.76-17.27,14.74-17.27,6.97,0,12.39,3.74,12.39,12.01v.8h-2.86v-.92c0-5.92-3.78-9.24-9.45-9.24-6.72,0-11.76,4.58-11.76,14.32s5.04,14.24,11.72,14.24c5.38,0,9.54-2.86,9.54-9.2v-.59h2.77v.42c0,8.02-5.33,12.01-12.56,12.01-7.98,0-14.53-4.87-14.53-16.59Z"/><path class="cls-13" d="m864.62,751.92h2.94v32.77h-2.94v-32.77Z"/><path class="cls-13" d="m873.23,774.18c0-6.22,3.32-11.05,10.38-11.05,6.6,0,10.25,4.83,10.25,11.05s-3.7,11.05-10.29,11.05c-7.27,0-10.33-4.83-10.33-11.05Zm17.56,0c0-5.33-2.9-8.49-7.23-8.49-4.75,0-7.27,3.15-7.27,8.49s2.56,8.49,7.27,8.49c4.33,0,7.23-3.15,7.23-8.49Z"/><path class="cls-13" d="m897.84,778.26v-1.18h2.94v1.13c0,2.86,2.14,4.5,5.96,4.5s5.8-1.01,5.8-3.78c0-2.06-1.01-2.81-3.87-3.32l-4.62-.84c-3.02-.55-5.54-2.02-5.54-5.5,0-3.15,2.35-6.13,8.4-6.13s8.4,3.02,8.4,7.23v.88h-2.98v-.76c0-3.44-2.14-4.91-5.42-4.91-3.95,0-5.33,1.34-5.33,3.36s1.01,2.86,3.91,3.4l4.03.76c4.12.76,6.09,1.93,6.09,5.59,0,4.58-4.12,6.55-8.78,6.55-7.31,0-8.99-3.28-8.99-6.97Z"/><path class="cls-13" d="m938.76,775.19h-15.96c.17,4.79,2.48,7.48,6.93,7.48,3.82,0,5.67-1.43,5.97-4.83h2.98c-.29,4.24-3.28,7.39-9.03,7.39-7.06,0-9.83-4.66-9.83-10.88s3.23-11.22,10-11.22,8.95,3.99,8.95,10.21v1.85Zm-3.11-2.98c0-4.45-1.72-6.55-5.92-6.55s-6.55,2.65-6.89,6.97h12.81v-.42Z"/><path class="cls-13" d="m942.95,774.22c0-7.1,4.28-11.09,10.04-11.09,3.7,0,6.22,1.6,7.31,3.74h.04v-14.95h2.94v32.77h-1.97l-.67-3.61h-.08c-1.18,2.31-3.95,4.16-7.77,4.16-6.3,0-9.83-3.99-9.83-11.01Zm17.64-.5c0-5.5-3.36-8.07-7.35-8.07-3.11,0-7.14,1.47-7.14,8.4s3.61,8.61,7.14,8.61c4.24,0,7.35-2.73,7.35-8.95Z"/><path class="cls-13" d="m980.29,751.92h2.94v23.23l12.14-11.47h3.65v.04l-8.4,7.86,8.78,13.06v.04h-3.36l-7.39-11.22-5.42,5.04v6.18h-2.94v-32.77Z"/><path class="cls-13" d="m1004.44,763.68h2.6l.29,3.49c1.01-2.14,3.28-4.03,7.35-4.03,4.75,0,7.77,2.52,7.77,7.94v13.61h-2.94v-13.27c0-4.33-2.14-5.71-5.5-5.71-3.82,0-6.64,2.69-6.64,5.63v13.36h-2.94v-21Z"/><path class="cls-13" d="m1028.13,774.18c0-6.22,3.32-11.05,10.38-11.05,6.59,0,10.25,4.83,10.25,11.05s-3.7,11.05-10.29,11.05c-7.27,0-10.33-4.83-10.33-11.05Zm17.56,0c0-5.33-2.9-8.49-7.22-8.49-4.75,0-7.27,3.15-7.27,8.49s2.56,8.49,7.27,8.49c4.33,0,7.22-3.15,7.22-8.49Z"/><path class="cls-13" d="m1065.59,781.99v2.6c-.76.21-2.14.59-4.03.59-3.82,0-6.34-1.6-6.34-6.89v-12.18h-4.16v-2.44h4.16v-6.05l2.94-1.43v7.48h5.92v2.44h-5.92v11.8c0,2.81.76,4.58,3.4,4.58,1.6,0,3.23-.29,4.03-.5Z"/><path class="cls-13" d="m1080.08,751.92h2.98v6.51h-2.98v-6.51Zm0,11.76h2.94v21h-2.94v-21Z"/><path class="cls-13" d="m1090.41,763.68h2.6l.29,3.49c1.01-2.14,3.28-4.03,7.35-4.03,4.75,0,7.77,2.52,7.77,7.94v13.61h-2.94v-13.27c0-4.33-2.14-5.71-5.5-5.71-3.82,0-6.64,2.69-6.64,5.63v13.36h-2.94v-21Z"/><path class="cls-13" d="m1127.12,762.38h-3.36v-5.08c0-3.95.88-5.29,3.4-5.97l.67,1.85c-1.76.67-2.06,1.09-2.06,3.78v.34h1.34v5.08Zm5.92,0h-3.36v-5.08c0-3.95.88-5.29,3.4-5.97l.67,1.85c-1.76.67-2.06,1.09-2.06,3.78v.34h1.34v5.08Z"/><path class="cls-13" d="m1137.12,782.12l14.7-15.88h-14.58v-2.56h18.23v2.56l-14.7,15.84h14.66v2.6h-18.31v-2.56Z"/><path class="cls-13" d="m1158.83,761.12c1.76-.67,2.06-1.09,2.06-3.78v-.34h-1.34v-5.08h3.36v5.08c0,3.95-.88,5.29-3.4,5.97l-.67-1.85Zm5.92,0c1.76-.67,2.06-1.09,2.06-3.78v-.34h-1.34v-5.08h3.36v5.08c0,3.95-.88,5.29-3.4,5.97l-.67-1.85Z"/><path class="cls-13" d="m181.46,3199.48h19.49v2.65h-16.55v12.22h14.62v2.6h-14.62v12.6h16.55v2.69h-19.49v-32.77Z"/><path class="cls-13" d="m207.03,3211.24h2.6l.29,3.49c1.01-2.14,3.28-4.03,7.35-4.03,4.75,0,7.77,2.52,7.77,7.94v13.61h-2.94v-13.27c0-4.33-2.14-5.71-5.5-5.71-3.82,0-6.64,2.69-6.64,5.63v13.36h-2.94v-21Z"/><path class="cls-13" d="m243.37,3229.56v2.6c-.76.21-2.14.59-4.03.59-3.82,0-6.34-1.6-6.34-6.89v-12.18h-4.16v-2.44h4.16v-6.05l2.94-1.43v7.48h5.92v2.44h-5.92v11.8c0,2.82.76,4.58,3.4,4.58,1.6,0,3.23-.29,4.03-.5Z"/><path class="cls-13" d="m248.19,3211.24h2.6l.29,3.91c1.01-2.14,3.07-4.45,6.76-4.45,1.26,0,2.18.21,3.02.55v3.15c-1.13-.5-2.1-.76-3.4-.76-3.74,0-6.34,2.81-6.34,5.75v12.85h-2.94v-21Z"/><path class="cls-13" d="m265.71,3211.24l6.89,17.98h.08l7.14-17.98h3.07v.04l-8.86,20.84-3.11,8.53h-2.98v-.04l3.19-8.36-8.78-20.96v-.04h3.36Z"/><path class="cls-13" d="m294.86,3225.82v-1.18h2.94v1.13c0,2.86,2.14,4.49,5.96,4.49s5.8-1.01,5.8-3.78c0-2.06-1.01-2.81-3.86-3.32l-4.62-.84c-3.02-.55-5.54-2.02-5.54-5.5,0-3.15,2.35-6.13,8.4-6.13s8.4,3.02,8.4,7.23v.88h-2.98v-.76c0-3.45-2.14-4.92-5.42-4.92-3.95,0-5.33,1.34-5.33,3.36s1.01,2.86,3.91,3.4l4.03.76c4.12.76,6.09,1.93,6.09,5.59,0,4.58-4.12,6.55-8.78,6.55-7.31,0-8.99-3.28-8.99-6.97Z"/><path class="cls-13" d="m329.46,3229.56v2.6c-.76.21-2.14.59-4.03.59-3.82,0-6.34-1.6-6.34-6.89v-12.18h-4.16v-2.44h4.16v-6.05l2.94-1.43v7.48h5.92v2.44h-5.92v11.8c0,2.82.76,4.58,3.4,4.58,1.6,0,3.23-.29,4.03-.5Z"/><path class="cls-13" d="m334.29,3211.24h2.6l.29,3.91c1.01-2.14,3.07-4.45,6.76-4.45,1.26,0,2.18.21,3.02.55v3.15c-1.13-.5-2.1-.76-3.4-.76-3.74,0-6.34,2.81-6.34,5.75v12.85h-2.94v-21Z"/><path class="cls-13" d="m349.29,3221.75c0-6.22,3.32-11.05,10.38-11.05,6.59,0,10.25,4.83,10.25,11.05s-3.7,11.05-10.29,11.05c-7.27,0-10.33-4.83-10.33-11.05Zm17.56,0c0-5.33-2.9-8.49-7.22-8.49-4.75,0-7.27,3.15-7.27,8.49s2.56,8.49,7.27,8.49c4.33,0,7.22-3.15,7.22-8.49Z"/><path class="cls-13" d="m375.16,3199.48h2.94v23.23l12.14-11.47h3.65v.04l-8.4,7.86,8.78,13.06v.04h-3.36l-7.39-11.22-5.42,5.04v6.17h-2.94v-32.77Z"/><path class="cls-13" d="m415.53,3222.75h-15.96c.17,4.79,2.48,7.48,6.93,7.48,3.82,0,5.67-1.43,5.97-4.83h2.98c-.29,4.24-3.28,7.39-9.03,7.39-7.06,0-9.83-4.66-9.83-10.88s3.23-11.22,10-11.22,8.95,3.99,8.95,10.21v1.85Zm-3.11-2.98c0-4.45-1.72-6.55-5.92-6.55s-6.55,2.65-6.89,6.97h12.81v-.42Z"/><path class="cls-13" d="m419.51,3225.82v-1.18h2.94v1.13c0,2.86,2.14,4.49,5.96,4.49s5.8-1.01,5.8-3.78c0-2.06-1.01-2.81-3.86-3.32l-4.62-.84c-3.02-.55-5.54-2.02-5.54-5.5,0-3.15,2.35-6.13,8.4-6.13s8.4,3.02,8.4,7.23v.88h-2.98v-.76c0-3.45-2.14-4.92-5.42-4.92-3.95,0-5.33,1.34-5.33,3.36s1.01,2.86,3.91,3.4l4.03.76c4.12.76,6.09,1.93,6.09,5.59,0,4.58-4.12,6.55-8.78,6.55-7.31,0-8.99-3.28-8.99-6.97Z"/><path class="cls-13" d="m452.82,3199.48h2.98v6.51h-2.98v-6.51Zm0,11.76h2.94v21h-2.94v-21Z"/><path class="cls-13" d="m463.15,3211.24h2.6l.29,3.49c1.01-2.14,3.28-4.03,7.35-4.03,4.75,0,7.77,2.52,7.77,7.94v13.61h-2.94v-13.27c0-4.33-2.14-5.71-5.5-5.71-3.82,0-6.64,2.69-6.64,5.63v13.36h-2.94v-21Z"/><path class="cls-13" d="m499.86,3209.94h-3.36v-5.08c0-3.95.88-5.29,3.4-5.96l.67,1.85c-1.76.67-2.06,1.09-2.06,3.78v.34h1.34v5.08Zm5.92,0h-3.36v-5.08c0-3.95.88-5.29,3.4-5.96l.67,1.85c-1.76.67-2.06,1.09-2.06,3.78v.34h1.34v5.08Z"/><path class="cls-13" d="m520.31,3202.09h-11.51v-2.6h25.96v2.6h-11.51v30.16h-2.94v-30.16Z"/><path class="cls-13" d="m537.07,3208.68c1.76-.67,2.06-1.09,2.06-3.78v-.34h-1.34v-5.08h3.36v5.08c0,3.95-.88,5.29-3.4,5.96l-.67-1.85Zm5.92,0c1.76-.67,2.06-1.09,2.06-3.78v-.34h-1.34v-5.08h3.36v5.08c0,3.95-.88,5.29-3.4,5.96l-.67-1.85Z"/><path class="cls-13" d="m561.35,3226.45c0-3.95,2.23-6.09,7.86-6.09h6.34v-1.72c0-2.98-1.26-5.42-5.46-5.42-3.95,0-5.33,1.51-5.33,4.12v.88h-2.98v-.84c0-5,4.2-6.68,8.32-6.68,5.8,0,8.4,2.86,8.4,8.44v13.11h-2.06l-.55-2.98h-.08c-1.26,1.89-3.7,3.53-7.35,3.53-4.92,0-7.1-2.31-7.1-6.34Zm14.2-1.85v-1.76h-7.01c-2.65,0-4.03.92-4.03,3.61,0,2.35,1.26,3.86,4.5,3.86,4.16,0,6.55-2.14,6.55-5.71Z"/><path class="cls-13" d="m585.83,3211.24h2.6l.29,3.49c1.01-2.14,3.28-4.03,7.35-4.03,4.75,0,7.77,2.52,7.77,7.94v13.61h-2.94v-13.27c0-4.33-2.14-5.71-5.5-5.71-3.82,0-6.64,2.69-6.64,5.63v13.36h-2.94v-21Z"/><path class="cls-13" d="m609.52,3221.79c0-7.1,4.28-11.09,10.04-11.09,3.7,0,6.22,1.6,7.31,3.74h.04v-14.95h2.94v32.77h-1.97l-.67-3.61h-.08c-1.18,2.31-3.95,4.16-7.77,4.16-6.3,0-9.83-3.99-9.83-11.01Zm17.64-.5c0-5.5-3.36-8.07-7.35-8.07-3.11,0-7.14,1.47-7.14,8.4s3.61,8.61,7.14,8.61c4.24,0,7.35-2.73,7.35-8.95Z"/><path class="cls-13" d="m648.54,3209.94h-3.36v-5.08c0-3.95.88-5.29,3.4-5.96l.67,1.85c-1.76.67-2.06,1.09-2.06,3.78v.34h1.34v5.08Zm5.92,0h-3.36v-5.08c0-3.95.88-5.29,3.4-5.96l.67,1.85c-1.76.67-2.06,1.09-2.06,3.78v.34h1.34v5.08Z"/><path class="cls-13" d="m661.89,3199.48h18.86v2.6h-15.92v12.94h12.31v2.6h-12.31v14.62h-2.94v-32.77Z"/><path class="cls-13" d="m684.11,3208.68c1.76-.67,2.06-1.09,2.06-3.78v-.34h-1.34v-5.08h3.36v5.08c0,3.95-.88,5.29-3.4,5.96l-.67-1.85Zm5.92,0c1.76-.67,2.06-1.09,2.06-3.78v-.34h-1.34v-5.08h3.36v5.08c0,3.95-.88,5.29-3.4,5.96l-.67-1.85Z"/><line class="cls-3" x1="436.42" y1="3177.45" x2="436.42" y2="3176.58"/><line class="cls-12" x1="436.42" y1="3158.01" x2="436.42" y2="3065.16"/><line class="cls-3" x1="436.42" y1="3055.87" x2="436.42" y2="3055"/><path class="cls-16" d="m241.34,1187.29c-.41,0-.79-.04-1.15-.12,0,0,0,0,0,0-3.37-.43-6.97-.66-10.82-.66-69.55,0-102.52,31.15-102.52,54.74,0,13.31,9.37,23.29,28.73,23.29,30.89,0,61.39-25.83,90.63-58.97,25.6,8.44,26.38,37.58,26.4,63.91l.38,20.14c1.26,21.8,6.7,41.46,30.16,41.46,14.69,0,32.79-8.61,51.39-21.18,0,0-10.11-13.28-10.05-13.17.02.04-.04-.07-.06-.11-15.93,10.76-30.57,17.82-41.28,17.82-12.67,0-13.8-13.81-13.9-36.84l-.24-21.18c-.97-24.05-5.98-52.54-31.26-64.34l-16.42-4.78Zm-85.75,60.61c-9.68,0-12.1-2.42-12.1-6.65,0-12.47,24.8-37.17,82.66-38.06-23.9,26-47.6,44.71-70.56,44.71Z"/><path class="cls-13" d="m109.57,1570.99h8.36c11.05,0,17.39,4.54,17.39,16.42s-6.26,16.34-17.18,16.34h-8.57v-32.77Zm8.65,30.12c9.41,0,14.03-3.74,14.03-13.78s-4.49-13.74-14.07-13.74h-5.67v27.51h5.71Z"/><path class="cls-13" d="m141.62,1570.99h2.98v6.51h-2.98v-6.51Zm0,11.76h2.94v21h-2.94v-21Z"/><path class="cls-13" d="m150.06,1597.33v-1.18h2.94v1.13c0,2.86,2.14,4.49,5.96,4.49s5.8-1.01,5.8-3.78c0-2.06-1.01-2.81-3.86-3.32l-4.62-.84c-3.02-.55-5.54-2.02-5.54-5.5,0-3.15,2.35-6.13,8.4-6.13s8.4,3.02,8.4,7.23v.88h-2.98v-.76c0-3.45-2.14-4.92-5.42-4.92-3.95,0-5.33,1.34-5.33,3.36s1.01,2.86,3.91,3.4l4.03.76c4.12.76,6.09,1.93,6.09,5.59,0,4.58-4.12,6.55-8.78,6.55-7.31,0-8.99-3.28-8.99-6.97Z"/><path class="cls-13" d="m184.67,1601.06v2.6c-.76.21-2.14.59-4.03.59-3.82,0-6.34-1.6-6.34-6.89v-12.18h-4.16v-2.44h4.16v-6.05l2.94-1.43v7.48h5.92v2.44h-5.92v11.8c0,2.82.76,4.58,3.4,4.58,1.6,0,3.23-.29,4.03-.5Z"/><path class="cls-13" d="m189.5,1570.99h2.98v6.51h-2.98v-6.51Zm0,11.76h2.94v21h-2.94v-21Z"/><path class="cls-13" d="m199.83,1582.75h2.6l.29,3.49c1.01-2.14,3.28-4.03,7.35-4.03,4.75,0,7.77,2.52,7.77,7.94v13.61h-2.94v-13.27c0-4.33-2.14-5.71-5.5-5.71-3.82,0-6.64,2.69-6.64,5.63v13.36h-2.94v-21Z"/><path class="cls-13" d="m223.52,1593.42c0-6.38,3.23-11.22,10-11.22s8.95,3.91,8.95,8.95v.42h-3.11v-.63c0-3.82-1.64-6.09-5.84-6.09-4.75,0-7.01,3.11-7.01,8.4,0,5.63,2.39,8.49,6.93,8.49,3.82,0,5.84-1.85,5.92-5.67h3.02c-.08,4.66-3.15,8.23-9.03,8.23-7.22,0-9.83-4.75-9.83-10.88Z"/><path class="cls-13" d="m259.3,1601.06v2.6c-.76.21-2.14.59-4.03.59-3.82,0-6.34-1.6-6.34-6.89v-12.18h-4.16v-2.44h4.16v-6.05l2.94-1.43v7.48h5.92v2.44h-5.92v11.8c0,2.82.76,4.58,3.4,4.58,1.6,0,3.23-.29,4.03-.5Z"/><path class="cls-13" d="m264.13,1570.99h2.98v6.51h-2.98v-6.51Zm0,11.76h2.94v21h-2.94v-21Z"/><path class="cls-13" d="m271.31,1582.79v-.04h3.36l7.35,17.98h.08l7.1-17.98h3.07v.04l-8.74,20.96h-3.02l-9.2-20.96Z"/><path class="cls-13" d="m313.11,1594.26h-15.96c.17,4.79,2.48,7.48,6.93,7.48,3.82,0,5.67-1.43,5.97-4.83h2.98c-.29,4.24-3.28,7.39-9.03,7.39-7.06,0-9.83-4.66-9.83-10.88s3.23-11.22,10-11.22,8.95,3.99,8.95,10.21v1.85Zm-3.11-2.98c0-4.45-1.72-6.55-5.92-6.55s-6.55,2.65-6.89,6.97h12.81v-.42Z"/><path class="cls-13" d="m339.61,1601.06v2.6c-.76.21-2.14.59-4.03.59-3.82,0-6.34-1.6-6.34-6.89v-12.18h-4.16v-2.44h4.16v-6.05l2.94-1.43v7.48h5.92v2.44h-5.92v11.8c0,2.82.76,4.58,3.4,4.58,1.6,0,3.23-.29,4.03-.5Z"/><path class="cls-13" d="m343.18,1597.96c0-3.95,2.23-6.09,7.86-6.09h6.34v-1.72c0-2.98-1.26-5.42-5.46-5.42-3.95,0-5.33,1.51-5.33,4.12v.88h-2.98v-.84c0-5,4.2-6.68,8.32-6.68,5.8,0,8.4,2.86,8.4,8.44v13.11h-2.06l-.55-2.98h-.08c-1.26,1.89-3.7,3.53-7.35,3.53-4.92,0-7.1-2.31-7.1-6.34Zm14.2-1.85v-1.76h-7.01c-2.65,0-4.03.92-4.03,3.61,0,2.35,1.26,3.86,4.5,3.86,4.16,0,6.55-2.14,6.55-5.71Z"/><path class="cls-13" d="m367.66,1570.99h2.98v6.51h-2.98v-6.51Zm0,11.76h2.94v21h-2.94v-21Z"/><path class="cls-13" d="m377.99,1570.99h2.94v32.77h-2.94v-32.77Z"/><path class="cls-13" d="m397.94,1570.99h2.98v6.51h-2.98v-6.51Zm0,11.76h2.94v21h-2.94v-21Z"/><path class="cls-13" d="m408.28,1582.75h2.6l.29,3.49c1.01-2.14,3.28-4.03,7.35-4.03,4.75,0,7.77,2.52,7.77,7.94v13.61h-2.94v-13.27c0-4.33-2.14-5.71-5.5-5.71-3.82,0-6.64,2.69-6.64,5.63v13.36h-2.94v-21Z"/><path class="cls-13" d="m444.98,1581.45h-3.36v-5.08c0-3.95.88-5.29,3.4-5.96l.67,1.85c-1.76.67-2.06,1.09-2.06,3.78v.34h1.34v5.08Zm5.92,0h-3.36v-5.08c0-3.95.88-5.29,3.4-5.96l.67,1.85c-1.76.67-2.06,1.09-2.06,3.78v.34h1.34v5.08Z"/><path class="cls-13" d="m469.39,1604.21c-7.73-.59-13.36-5.54-13.36-16.84s6.76-16.93,15.46-16.93c7.94,0,14.7,5.21,14.7,16.59s-6.13,16.76-13.86,17.22l-.38,7.31h-2.18l-.38-7.35Zm13.69-16.84c0-10.12-5.33-14.24-12.01-14.24s-11.93,4.12-11.93,14.24,5.33,14.2,12.01,14.2,11.93-3.74,11.93-14.2Z"/><path class="cls-13" d="m490.6,1580.19c1.76-.67,2.06-1.09,2.06-3.78v-.34h-1.34v-5.08h3.36v5.08c0,3.95-.88,5.29-3.4,5.96l-.67-1.85Zm5.92,0c1.76-.67,2.06-1.09,2.06-3.78v-.34h-1.34v-5.08h3.36v5.08c0,3.95-.88,5.29-3.4,5.96l-.67-1.85Z"/><line class="cls-3" x1="302.04" y1="1542.08" x2="302.04" y2="1541.21"/><line class="cls-2" x1="302.04" y1="1523.37" x2="302.04" y2="1355.71"/><line class="cls-3" x1="302.04" y1="1346.79" x2="302.04" y2="1345.92"/><circle class="cls-16" cx="1607.57" cy="1914.69" r="138.7"/><path class="cls-13" d="m1849.69,2071.59c-2.42,0-4.54.91-6.05,2.42-39.62,40.22-85.58,62.9-111.59,62.9-15.12,0-21.17-3.33-21.17-16.03,0-10.28,4.23-20.87,15.12-34.78.2-.25.36-.51.53-.77,21.36-21.04,37.66-42.9,36.66-54.88-6.35-15.12-17.84-25.4-39.92-25.4-28.12,0-60.78,16.33-86.49,36.59-10.54,8.27-20.11,17.38-28.23,26.76-.39.23-.76.49-1.1.76-41.43,37.8-72.58,67.74-93.45,67.74-16.73,0-5.08-36.59,15.53-80.56,59.93-56.02,142.63-153.07,142.63-200.68,0-10.28-4.54-16.33-12.1-16.33-4.84,0-9.07,2.72-15.42,8.17-11.79,10.58-30.24,32.96-49.6,60.18-13.06,18.12-41.25,62.31-65.04,108.31-6.87-6.83-16.58-10.93-30.52-10.93-28.12,0-60.78,16.33-86.49,36.59-14.06,11.03-26.39,23.55-35.86,36.21-.37.29-.73.61-1.03.98-35.68,42.04-66.83,58.06-88.91,58.06-25.7,0-33.87-12.7-33.87-33.57,0-12.48,3.1-27.38,9.17-44.45,60.12-55.58,145.36-154.88,145.36-203.22,0-10.28-4.54-16.33-12.1-16.33-4.84,0-9.07,2.72-15.42,8.17-11.79,10.58-30.24,32.96-49.6,60.18-39.26,54.25-67.31,101.93-82.07,140.95-.52.43-.99.92-1.39,1.49-42.94,54.43-95.86,86.79-127.01,86.79-15.12,0-21.17-3.33-21.17-16.03,0-10.28,4.23-20.87,15.12-34.78.2-.25.36-.51.53-.77,21.36-21.04,37.66-42.9,36.66-54.88-6.35-15.12-17.84-25.4-39.92-25.4-28.12,0-60.78,16.33-86.49,36.59-14.25,11.19-26.74,23.9-36.25,36.74-.45.33-.87.68-1.25,1.06-30.34,33.68-57.86,49.99-106.23,55.36,14.36-10.09,27.86-23.03,39.1-35.71,21.47-24.5,35.38-50.81,35.38-68.34,0-15.12-9.68-25.7-24.5-25.7-21.79,0-58.51,25.68-95.35,57.09,8.96-12.89,17.7-25.18,26.1-36.53.68-.68,1.15-1.56,1.45-2.51,1-1.38,1.58-3.06,1.58-4.74,0-4.54-3.93-8.17-8.47-8.17-2.42,0-4.54.91-6.05,2.42-53.82,57.82-107.89,113.28-199,123.38,23.08-19.82,42.62-55.03,51.58-98.38,5.62-4.92,10.4-9.39,14.05-13.21,1.21-1.51,2.12-3.63,2.12-5.75,0-4.54-3.63-8.47-8.17-8.47-2.42,0-4.54,1.21-6.05,2.72-18.75,19.66-73.79,61.99-123.99,88.91-34.47,18.75-76.21,35.08-102.82,35.08-18.24,0-31.05-6.83-35.17-24.42.71-.26,1.37-.58,1.9-.98,48.08-34.17,74.09-64.41,74.09-87.4,0-11.49-7.86-19.05-18.14-19.05-8.77,0-19.05,5.75-28.12,12.7-22.08,17.54-47.78,53.22-47.78,81.05,0,.97.03,1.92.05,2.86-.12.06-.24.11-.36.16-25.4,15.42-57.16,35.08-88.61,35.08-18.14,0-22.98-5.75-22.98-16.03,0-19.05,17.24-47.78,23.89-63.81,4.54-10.28,6.96-19.96,6.96-28.43,0-13.29-4.79-23.94-12.51-32.18,24.65-10.64,59.58-28.58,86.9-52.19,24.19-20.87,41.43-44.45,41.43-64.41,0-21.77-19.05-35.99-59.88-35.99-32.56,0-60.98,8.7-88.52,24.48,1.03-1.59,2.01-3.1,2.94-4.52.6-1.51,1.21-3.02,1.21-4.54,0-4.54-3.63-8.47-8.47-8.47-2.72,0-5.44,1.51-6.96,3.93-6.16,9.47-14.5,22.59-24.37,38.02-30.94,24.42-62.58,56.98-99.62,95.34-73.79,76.21-114.01,128.52-114.01,150.3,0,9.07,6.05,15.12,15.73,15.12,32.53,0,87.77-67.6,137.92-139.23,4.36,3.26,11.51,5.26,22.06,5.26,19.96,0,51.11-6.65,74.39-15.42.7-.25,1.42-.52,2.17-.8,7.95,6.13,12.95,14.51,12.95,25.29,0,6.65-1.51,13.31-5.44,21.77-6.65,14.82-25.4,46.57-25.4,70.46,0,18.14,10.58,32.66,39.62,32.66,33.46,0,66.65-19.08,91.57-34.16,6.86,23.9,26.39,34.16,50.57,34.16,26.9,0,65.28-14.12,98.55-30.86,6.28,16.32,19.41,30.54,32.87,30.84.72.2,1.47.32,2.25.32,82.13,2.42,138.93-26.8,185.89-66.1-5.56,8.13-11.14,16.35-16.73,24.6-26.58,25.75-48.34,48.58-57.57,58.13-62.3,64.72-101.01,110.38-101.01,133.06,0,9.37,6.35,15.12,14.52,15.12,27.75,0,91.09-96.21,153.59-189.68,9.72,16.35,25.24,24.56,42.07,24.56.45,0,.9-.03,1.35-.04.25.02.51.04.76.04h3.02c62.45,0,99.62-9.95,132.03-34.72-.31,2.15-.48,4.25-.48,6.29,0,18.14,12.1,28.43,29.33,28.43,21.8,0,53.59-15.94,84.32-40.16-.36,2.5-.56,5-.56,7.5,0,24.19,16.03,32.66,37.8,32.66,31.35,0,76.87-24.92,117.92-67.5-.98,6.09-1.49,11.87-1.49,17.3,0,27.52,13.31,50.2,50.5,50.2,19.9,0,43.92-9.5,70.33-32.03-.1,1.22-.17,2.42-.17,3.6,0,18.14,12.1,28.43,29.33,28.43,26.01,0,66.23-22.68,101.91-55.04,3.11-2.74,6.18-5.54,9.17-8.37-11.59,36.41-10.9,63.41,16.23,63.41,19.91,0,42.59-16.43,68.43-39.09-.84,3.69-1.3,7.26-1.3,10.67,0,18.14,12.1,28.43,29.33,28.43,21.8,0,53.59-15.94,84.32-40.16-.36,2.5-.56,5-.56,7.5,0,24.19,16.03,32.66,37.8,32.66,31.45,0,81.35-25.4,123.38-67.74,1.51-1.51,2.42-3.63,2.42-5.75,0-4.54-3.63-8.47-8.17-8.47Zm-1770.78,65.28c2.46-15.31,38.72-64.31,109.33-137.26,19.3-20,36.92-38.18,53.54-54.33-55.69,84.74-129.59,189.39-162.87,191.59Zm210.09-233.38c35.76-27.67,69.82-42.99,110.93-42.99,32.06,0,43.24,8.47,43.24,19.35,0,13.31-13.31,32.66-35.68,51.71-29.55,25.33-68.07,43.75-91.47,53.26-13.86-7.46-31.07-10.92-47.33-10.92-10.25,0-19.68,1.39-27.84,3.73,17.95-26.82,34.49-52.67,48.16-74.15Zm-51.17,99.45c-10.28,0-10.89,2.72-10.89.6s16.94-13,41.73-13c8.02,0,15.99.89,23.36,2.7-19.22,5.71-39.84,9.7-54.2,9.7Zm245.26,28.12c7.26-5.75,13.91-9.37,17.84-9.37,1.21,0,1.51.3,1.51,2.42,0,14.33-19.85,39.26-60.28,68.86,3.34-20.68,23.01-47.57,40.93-61.9Zm108.5,83.84c31.19-16.97,64.24-39.58,89.71-59.4-15.57,49.45-45.82,81.4-71.2,81.4-5.04,0-14.44-10.2-18.51-22.01Zm47.75,186.67c2.68-15.43,34.83-55.36,90.9-114.01-40.97,60.13-76.11,108.95-90.9,114.01Zm162.83-186.02c47.07-44.71,104.41-93.86,129.09-93.86,5.14,0,7.86,3.02,7.86,9.07,0,12.4-11.79,35.38-31.45,57.46-21.77,24.8-51.11,48.69-75,48.69-12.68,0-23.97-6.61-30.51-21.36Zm183.83,9.56c0-18.14,19.96-47.18,49.29-70.16,23.89-19.05,52.92-33.27,76.21-33.27,12.7,0,18.75,3.93,22.98,11.79-3.02,9.37-21.47,31.75-44.76,52.92-33.87,29.94-70.46,50.5-91.03,50.5-8.77,0-12.7-3.33-12.7-11.79Zm358.06-207.76c19.13-26.31,36.2-47.29,46.81-56.82-4.87,35.38-59.13,104.56-110.18,157.2,15.15-29.46,36.41-63.17,63.37-100.38Zm264.31,0c19.13-26.31,36.2-47.29,46.81-56.82-4.59,33.38-53.15,96.83-101.49,148.11,20.51-38.14,42.53-74.28,54.68-91.29Zm-130.64,169.05c-33.87,29.94-70.46,50.5-91.03,50.5-8.77,0-12.7-3.33-12.7-11.79,0-18.14,19.96-47.18,49.29-70.16,23.89-19.05,52.92-33.27,76.21-33.27,12.05,0,18.11,3.54,22.31,10.62-2.16,4.42-4.25,8.83-6.27,13.22-7.98,11.09-21.74,26.27-37.82,40.88Zm120.06,38.71c0-18.14,19.96-47.18,49.29-70.16,23.89-19.05,52.92-33.27,76.21-33.27,12.7,0,18.75,3.93,22.98,11.79-3.02,9.37-21.47,31.75-44.76,52.92-33.87,29.94-70.46,50.5-91.03,50.5-8.77,0-12.7-3.33-12.7-11.79Z"/><path class="cls-13" d="m1404.4,1660.01h2.94v30.12h15.71v2.65h-18.65v-32.77Z"/><path class="cls-13" d="m1426.2,1682.27c0-6.22,3.32-11.05,10.38-11.05,6.59,0,10.25,4.83,10.25,11.05s-3.7,11.05-10.29,11.05c-7.27,0-10.33-4.83-10.33-11.05Zm17.56,0c0-5.33-2.9-8.49-7.22-8.49-4.75,0-7.27,3.15-7.27,8.49s2.56,8.49,7.27,8.49c4.33,0,7.22-3.15,7.22-8.49Z"/><path class="cls-13" d="m1451.02,1682.27c0-6.22,3.32-11.05,10.38-11.05,6.59,0,10.25,4.83,10.25,11.05s-3.7,11.05-10.29,11.05c-7.27,0-10.33-4.83-10.33-11.05Zm17.56,0c0-5.33-2.9-8.49-7.22-8.49-4.75,0-7.27,3.15-7.27,8.49s2.56,8.49,7.27,8.49c4.33,0,7.22-3.15,7.22-8.49Z"/><path class="cls-13" d="m1477.52,1671.77h2.39l.34,3.87h.08c1.13-2.48,4.03-4.41,7.86-4.41,6.3,0,9.66,3.99,9.66,11.01s-4.29,11.09-9.87,11.09c-3.78,0-6.38-1.6-7.43-3.7h-.08v11.55h-2.94v-29.41Zm17.18,10.63c0-7.18-3.4-8.61-6.93-8.61-4.24,0-7.56,2.73-7.56,8.44,0,6.01,3.45,8.57,7.44,8.57,3.02,0,7.06-1.47,7.06-8.4Z"/><path class="cls-13" d="m1521,1683.28h-15.96c.17,4.79,2.48,7.48,6.93,7.48,3.82,0,5.67-1.43,5.97-4.83h2.98c-.29,4.24-3.28,7.39-9.03,7.39-7.06,0-9.83-4.66-9.83-10.88s3.23-11.22,10-11.22,8.95,3.99,8.95,10.21v1.85Zm-3.11-2.98c0-4.45-1.72-6.55-5.92-6.55s-6.55,2.65-6.89,6.97h12.81v-.42Z"/><path class="cls-13" d="m1525.2,1682.31c0-7.1,4.28-11.09,10.04-11.09,3.7,0,6.22,1.6,7.31,3.74h.04v-14.95h2.94v32.77h-1.97l-.67-3.61h-.08c-1.18,2.31-3.95,4.16-7.77,4.16-6.3,0-9.83-3.99-9.83-11.01Zm17.64-.5c0-5.5-3.36-8.07-7.35-8.07-3.11,0-7.14,1.47-7.14,8.4s3.61,8.61,7.14,8.61c4.24,0,7.35-2.73,7.35-8.95Z"/><path class="cls-13" d="m1561.27,1686.98c0-3.95,2.23-6.09,7.86-6.09h6.34v-1.72c0-2.98-1.26-5.42-5.46-5.42-3.95,0-5.33,1.51-5.33,4.12v.88h-2.98v-.84c0-5,4.2-6.68,8.32-6.68,5.8,0,8.4,2.86,8.4,8.44v13.11h-2.06l-.55-2.98h-.08c-1.26,1.89-3.7,3.53-7.35,3.53-4.92,0-7.1-2.31-7.1-6.34Zm14.2-1.85v-1.76h-7.01c-2.65,0-4.03.92-4.03,3.61,0,2.35,1.26,3.86,4.5,3.86,4.16,0,6.55-2.14,6.55-5.71Z"/><path class="cls-13" d="m1583.87,1686.35v-1.18h2.94v1.13c0,2.86,2.14,4.49,5.96,4.49s5.8-1.01,5.8-3.78c0-2.06-1.01-2.81-3.86-3.32l-4.62-.84c-3.02-.55-5.54-2.02-5.54-5.5,0-3.15,2.35-6.13,8.4-6.13s8.4,3.02,8.4,7.23v.88h-2.98v-.76c0-3.45-2.14-4.92-5.42-4.92-3.95,0-5.33,1.34-5.33,3.36s1.01,2.86,3.91,3.4l4.03.76c4.12.76,6.09,1.93,6.09,5.59,0,4.58-4.12,6.55-8.78,6.55-7.31,0-8.99-3.28-8.99-6.97Z"/><path class="cls-13" d="m1605.83,1682.44c0-6.38,3.23-11.22,10-11.22s8.95,3.91,8.95,8.95v.42h-3.11v-.63c0-3.82-1.64-6.09-5.84-6.09-4.75,0-7.01,3.11-7.01,8.4,0,5.63,2.39,8.49,6.93,8.49,3.82,0,5.84-1.85,5.92-5.67h3.02c-.08,4.66-3.15,8.23-9.03,8.23-7.22,0-9.83-4.75-9.83-10.88Z"/><path class="cls-13" d="m1647.92,1683.28h-15.96c.17,4.79,2.48,7.48,6.93,7.48,3.82,0,5.67-1.43,5.97-4.83h2.98c-.29,4.24-3.28,7.39-9.03,7.39-7.06,0-9.83-4.66-9.83-10.88s3.23-11.22,10-11.22,8.95,3.99,8.95,10.21v1.85Zm-3.11-2.98c0-4.45-1.72-6.55-5.92-6.55s-6.55,2.65-6.89,6.97h12.81v-.42Z"/><path class="cls-13" d="m1653.8,1671.77h2.6l.29,3.49c1.01-2.14,3.28-4.03,7.35-4.03,4.75,0,7.77,2.52,7.77,7.94v13.61h-2.94v-13.27c0-4.33-2.14-5.71-5.5-5.71-3.82,0-6.64,2.69-6.64,5.63v13.36h-2.94v-21Z"/><path class="cls-13" d="m1677.49,1682.31c0-7.1,4.28-11.09,10.04-11.09,3.7,0,6.22,1.6,7.31,3.74h.04v-14.95h2.94v32.77h-1.97l-.67-3.61h-.08c-1.18,2.31-3.95,4.16-7.77,4.16-6.3,0-9.83-3.99-9.83-11.01Zm17.64-.5c0-5.5-3.36-8.07-7.35-8.07-3.11,0-7.14,1.47-7.14,8.4s3.61,8.61,7.14,8.61c4.24,0,7.35-2.73,7.35-8.95Z"/><path class="cls-13" d="m1722.43,1683.28h-15.96c.17,4.79,2.48,7.48,6.93,7.48,3.82,0,5.67-1.43,5.97-4.83h2.98c-.29,4.24-3.28,7.39-9.03,7.39-7.06,0-9.83-4.66-9.83-10.88s3.23-11.22,10-11.22,8.95,3.99,8.95,10.21v1.85Zm-3.11-2.98c0-4.45-1.72-6.55-5.92-6.55s-6.55,2.65-6.89,6.97h12.81v-.42Z"/><path class="cls-13" d="m1728.31,1671.77h2.6l.29,3.91c1.01-2.14,3.07-4.45,6.76-4.45,1.26,0,2.18.21,3.02.55v3.15c-1.13-.5-2.1-.76-3.4-.76-3.74,0-6.34,2.81-6.34,5.75v12.85h-2.94v-21Z"/><path class="cls-13" d="m1755.27,1660.01h2.98v6.51h-2.98v-6.51Zm0,11.76h2.94v21h-2.94v-21Z"/><path class="cls-13" d="m1765.6,1671.77h2.6l.29,3.49c1.01-2.14,3.28-4.03,7.35-4.03,4.75,0,7.77,2.52,7.77,7.94v13.61h-2.94v-13.27c0-4.33-2.14-5.71-5.5-5.71-3.82,0-6.64,2.69-6.64,5.63v13.36h-2.94v-21Z"/><path class="cls-13" d="m1802.31,1670.47h-3.36v-5.08c0-3.95.88-5.29,3.4-5.96l.67,1.85c-1.76.67-2.06,1.09-2.06,3.78v.34h1.34v5.08Zm5.92,0h-3.36v-5.08c0-3.95.88-5.29,3.4-5.96l.67,1.85c-1.76.67-2.06,1.09-2.06,3.78v.34h1.34v5.08Z"/><path class="cls-13" d="m1811.26,1682.31c0-7.1,4.28-11.09,10.04-11.09,3.7,0,6.22,1.6,7.31,3.74h.04v-14.95h2.94v32.77h-1.97l-.67-3.61h-.08c-1.18,2.31-3.95,4.16-7.77,4.16-6.3,0-9.83-3.99-9.83-11.01Zm17.64-.5c0-5.5-3.36-8.07-7.35-8.07-3.11,0-7.14,1.47-7.14,8.4s3.61,8.61,7.14,8.61c4.24,0,7.35-2.73,7.35-8.95Z"/><path class="cls-13" d="m1837.04,1669.21c1.76-.67,2.06-1.09,2.06-3.78v-.34h-1.34v-5.08h3.36v5.08c0,3.95-.88,5.29-3.4,5.96l-.67-1.85Zm5.92,0c1.76-.67,2.06-1.09,2.06-3.78v-.34h-1.34v-5.08h3.36v5.08c0,3.95-.88,5.29-3.4,5.96l-.67-1.85Z"/><line class="cls-3" x1="1607.57" y1="1768.84" x2="1607.57" y2="1767.96"/><line class="cls-7" x1="1607.57" y1="1753.07" x2="1607.57" y2="1727.74"/><line class="cls-3" x1="1607.57" y1="1720.29" x2="1607.57" y2="1719.42"/><path class="cls-16" d="m802.18,2115.55c47.07-44.71,104.41-93.86,129.09-93.86,5.14,0,7.86,3.02,7.86,9.07,0,12.4-11.79,35.38-31.45,57.46-21.77,24.8-51.11,48.69-75,48.69-12.68,0-23.97-6.61-30.51-21.36Z"/><line class="cls-10" x1="846.23" y1="2427.64" x2="897.05" y2="2427.64"/><path class="cls-13" d="m1462.14,856.91h3.11l10.29,29.49h.08l10.17-29.49h3.11l-11.59,32.77h-3.57l-11.59-32.77Z"/><path class="cls-13" d="m1507.63,880.18h-15.96c.17,4.79,2.48,7.48,6.93,7.48,3.82,0,5.67-1.43,5.97-4.83h2.98c-.29,4.24-3.28,7.39-9.03,7.39-7.06,0-9.83-4.66-9.83-10.88s3.23-11.22,10-11.22,8.95,3.99,8.95,10.21v1.85Zm-3.11-2.98c0-4.45-1.72-6.55-5.92-6.55s-6.55,2.65-6.89,6.97h12.81v-.42Z"/><path class="cls-13" d="m1513.51,868.67h2.6l.29,3.91c1.01-2.14,3.07-4.45,6.76-4.45,1.26,0,2.18.21,3.02.55v3.15c-1.13-.5-2.1-.76-3.4-.76-3.74,0-6.34,2.81-6.34,5.75v12.85h-2.94v-21Z"/><path class="cls-13" d="m1531.02,868.67l6.89,17.98h.08l7.14-17.98h3.07v.04l-8.86,20.84-3.11,8.53h-2.98v-.04l3.19-8.36-8.78-20.96v-.04h3.36Z"/><path class="cls-13" d="m1562.06,868.67h2.6l.29,3.49c1.01-2.14,3.28-4.03,7.35-4.03,4.75,0,7.77,2.52,7.77,7.94v13.61h-2.94v-13.27c0-4.33-2.14-5.71-5.5-5.71-3.82,0-6.64,2.69-6.64,5.63v13.36h-2.94v-21Z"/><path class="cls-13" d="m1586.17,883.88c0-3.95,2.23-6.09,7.86-6.09h6.34v-1.72c0-2.98-1.26-5.42-5.46-5.42-3.95,0-5.33,1.51-5.33,4.12v.88h-2.98v-.84c0-5,4.2-6.68,8.32-6.68,5.8,0,8.4,2.86,8.4,8.44v13.11h-2.06l-.55-2.98h-.08c-1.26,1.89-3.7,3.53-7.35,3.53-4.92,0-7.1-2.31-7.1-6.34Zm14.2-1.85v-1.76h-7.01c-2.65,0-4.03.92-4.03,3.61,0,2.35,1.26,3.86,4.5,3.86,4.16,0,6.55-2.14,6.55-5.71Z"/><path class="cls-13" d="m1610.66,868.67h2.6l.29,3.91c1.01-2.14,3.07-4.45,6.76-4.45,1.26,0,2.18.21,3.02.55v3.15c-1.13-.5-2.1-.76-3.4-.76-3.74,0-6.34,2.81-6.34,5.75v12.85h-2.94v-21Z"/><path class="cls-13" d="m1627.96,868.67h2.6l.29,3.91c1.01-2.14,3.07-4.45,6.76-4.45,1.26,0,2.18.21,3.02.55v3.15c-1.13-.5-2.1-.76-3.4-.76-3.74,0-6.34,2.81-6.34,5.75v12.85h-2.94v-21Z"/><path class="cls-13" d="m1642.95,879.17c0-6.22,3.32-11.05,10.38-11.05,6.59,0,10.25,4.83,10.25,11.05s-3.7,11.05-10.29,11.05c-7.27,0-10.33-4.83-10.33-11.05Zm17.56,0c0-5.33-2.9-8.49-7.22-8.49-4.75,0-7.27,3.15-7.27,8.49s2.56,8.49,7.27,8.49c4.33,0,7.22-3.15,7.22-8.49Z"/><path class="cls-13" d="m1665.89,868.71v-.04h2.98l5.76,17.48h.08l6.3-17.48h2.69l6.17,17.48h.08l5.75-17.48h2.86v.04l-7.18,20.96h-3.02l-5.96-17.05h-.08l-6.22,17.05h-3.02l-7.18-20.96Z"/><path class="cls-13" d="m1713.05,856.91h2.94v32.77h-2.94v-32.77Z"/><path class="cls-13" d="m1721.66,879.17c0-6.22,3.32-11.05,10.38-11.05,6.59,0,10.25,4.83,10.25,11.05s-3.7,11.05-10.29,11.05c-7.27,0-10.33-4.83-10.33-11.05Zm17.56,0c0-5.33-2.9-8.49-7.22-8.49-4.75,0-7.27,3.15-7.27,8.49s2.56,8.49,7.27,8.49c4.33,0,7.22-3.15,7.22-8.49Z"/><path class="cls-13" d="m1746.48,879.17c0-6.22,3.32-11.05,10.38-11.05,6.59,0,10.25,4.83,10.25,11.05s-3.7,11.05-10.29,11.05c-7.27,0-10.33-4.83-10.33-11.05Zm17.56,0c0-5.33-2.9-8.49-7.22-8.49-4.75,0-7.27,3.15-7.27,8.49s2.56,8.49,7.27,8.49c4.33,0,7.22-3.15,7.22-8.49Z"/><path class="cls-13" d="m1772.99,868.67h2.39l.34,3.87h.08c1.13-2.48,4.03-4.41,7.86-4.41,6.3,0,9.66,3.99,9.66,11.01s-4.29,11.09-9.87,11.09c-3.78,0-6.38-1.6-7.43-3.7h-.08v11.55h-2.94v-29.41Zm17.18,10.63c0-7.18-3.4-8.61-6.93-8.61-4.24,0-7.56,2.73-7.56,8.44,0,6.01,3.45,8.57,7.44,8.57,3.02,0,7.06-1.47,7.06-8.4Z"/><path class="cls-13" d="m1797.3,883.25v-1.18h2.94v1.13c0,2.86,2.14,4.49,5.96,4.49s5.8-1.01,5.8-3.78c0-2.06-1.01-2.81-3.86-3.32l-4.62-.84c-3.02-.55-5.54-2.02-5.54-5.5,0-3.15,2.35-6.13,8.4-6.13s8.4,3.02,8.4,7.23v.88h-2.98v-.76c0-3.45-2.14-4.92-5.42-4.92-3.95,0-5.33,1.34-5.33,3.36s1.01,2.86,3.91,3.4l4.03.76c4.12.76,6.09,1.93,6.09,5.59,0,4.58-4.12,6.55-8.78,6.55-7.31,0-8.99-3.28-8.99-6.97Z"/><line class="cls-3" x1="1622.66" y1="965.73" x2="1622.66" y2="964.86"/><line class="cls-7" x1="1622.66" y1="949.96" x2="1622.66" y2="924.64"/><line class="cls-3" x1="1622.66" y1="917.19" x2="1622.66" y2="916.32"/><polyline class="cls-10" points="1166.65 535.43 999.83 625.43 999.83 733.92"/><path class="cls-15" d="m1546.21,1236.37c60.11-55.59,145.32-154.86,145.32-203.18,0-10.28-4.54-16.33-12.1-16.33-4.23,0-8.77,2.42-15.42,8.17-11.49,10.28-29.94,32.66-49.6,60.18-37.89,52.37-66.33,100.6-81.47,138.85l-1.56,1.78,14.82,10.55Zm81.51-141.49c19.43-26.6,36.49-47.58,46.81-56.83-4.87,35.38-59.13,104.56-110.18,157.2,15.15-29.46,36.41-63.17,63.37-100.38Z"/><path class="cls-15" d="m1546.78,2039.72c57.37-57.02,125.4-140.87,125.4-184.05,0-10.28-4.54-16.33-12.1-16.33-4.84,0-9.07,2.72-15.42,8.17-11.79,10.58-30.24,32.96-49.6,60.18-12.96,17.98-41.81,62.63-65.49,108.24m24.11-7.28c20.51-38.14,42.53-74.28,54.68-91.29,19.13-26.31,36.2-47.29,46.81-56.82-4.59,33.38-53.15,96.83-101.49,148.11Z"/><path class="cls-15" d="m531.95,2875.58c-43.78,42.9-93.86,78.82-142,82.88-4.23.3-7.56,3.93-7.56,8.47,0,4.84,4.23,8.47,9.07,8.17,51.44-4.41,103.56-40.77,148.78-84.3"/></g></svg>