<?xml version="1.0" encoding="UTF-8"?><svg xmlns="http://www.w3.org/2000/svg" xmlns:xlink="http://www.w3.org/1999/xlink" viewBox="0 0 1920 3689.77"><defs><style>.cls-1,.cls-2,.cls-3,.cls-4,.cls-5{fill:none;}.cls-6{clip-path:url(#clippath);}.cls-7{fill:#fff;}.cls-8{fill:#937fbb;}.cls-9{fill:#a797c9;}.cls-10{fill:#171c32;}.cls-11{fill:#947fbb;}.cls-2,.cls-3,.cls-4{stroke-linecap:round;}.cls-2,.cls-3,.cls-4,.cls-5{stroke-miterlimit:10;}.cls-2,.cls-4{stroke:#a797c9;stroke-width:7px;}.cls-12{clip-path:url(#clippath-1);}.cls-13{clip-path:url(#clippath-3);}.cls-14{clip-path:url(#clippath-2);}.cls-3{stroke:#947fbb;stroke-width:4px;}.cls-4{stroke-dasharray:0 0 1.74 17.45;}.cls-5{stroke:#57678b;stroke-width:3.5px;}</style><clipPath id="clippath"><rect class="cls-1" x="894.52" y="2001.15" width="145.93" height="145.93" rx="72.96" ry="72.96"/></clipPath><clipPath id="clippath-1"><circle class="cls-1" cx="725.87" cy="535.93" r="47.65"/></clipPath><clipPath id="clippath-2"><circle class="cls-1" cx="1514.97" cy="1270" r="28.8"/></clipPath><clipPath id="clippath-3"><circle class="cls-1" cx="1542.77" cy="1357.98" r="28.8"/></clipPath></defs><g id="Background"><rect class="cls-10" y="0" width="1920" height="3689.77"/></g><g id="guides"><line class="cls-5" x1="-.73" y1="202.72" x2="1918.72" y2="202.72"/><line class="cls-5" x1="-.73" y1="372.9" x2="1918.72" y2="372.9"/><line class="cls-5" x1="1918.72" y1="557.78" x2="-.73" y2="557.78"/><line class="cls-5" x1="-.73" y1="737.05" x2="1918.72" y2="737.05"/><line class="cls-5" x1="-.73" y1="1086.67" x2="1918.72" y2="1086.67"/><line class="cls-5" x1="-.73" y1="1256.86" x2="1918.72" y2="1256.86"/><line class="cls-5" x1="1918.72" y1="1441.74" x2="-.73" y2="1441.74"/><line class="cls-5" x1="-.73" y1="1621" x2="1918.72" y2="1621"/><line class="cls-5" x1="-.73" y1="1973.63" x2="1918.72" y2="1973.63"/><line class="cls-5" x1="-.73" y1="2143.81" x2="1918.72" y2="2143.81"/><line class="cls-5" x1="1918.72" y1="2328.69" x2="-.73" y2="2328.69"/><line class="cls-5" x1="-.73" y1="2507.96" x2="1918.72" y2="2507.96"/><line class="cls-5" x1="-.73" y1="2857.96" x2="1918.72" y2="2857.96"/><line class="cls-5" x1="-.73" y1="3028.14" x2="1918.72" y2="3028.14"/><line class="cls-5" x1="1918.72" y1="3213.02" x2="-.73" y2="3213.02"/><line class="cls-5" x1="-.73" y1="3392.29" x2="1918.72" y2="3392.29"/></g><g id="info"><line class="cls-4" x1="973.63" y1="1875.99" x2="973.63" y2="1994.79"/><line class="cls-4" x1="994" y1="3446.09" x2="994" y2="3510.94"/><polyline class="cls-4" points="655.87 3228.02 655.87 3446.67 1313.29 3446.67 1313.29 3228.91"/><line class="cls-4" x1="1182.55" y1="1520.82" x2="1182.55" y2="1694.23"/><line class="cls-4" x1="812.14" y1="1002.67" x2="812.14" y2="1328.23"/><path class="cls-7" d="m803.46,1836.68v-2.02h3.02v2.18c0,3.74,2.6,6.05,7.94,6.05s8.44-1.97,8.44-6.22c0-3.32-1.39-5.17-4.92-6.09l-6.64-1.72c-4.33-1.13-7.18-2.98-7.18-8.15s3.78-8.91,10.92-8.91,10.59,3.44,10.59,9.07v2.94h-3.02v-2.81c0-4.62-3.07-6.51-7.56-6.51-5.12,0-7.81,2.14-7.81,6.01,0,3.61,1.76,4.71,5.54,5.71l5.75,1.55c5.12,1.39,7.43,3.74,7.43,8.65,0,6.09-4.33,9.24-11.47,9.24-9.12,0-11.05-4.71-11.05-8.99Z"/><path class="cls-7" d="m844.12,1842.44v2.6c-.76.21-2.14.59-4.03.59-3.82,0-6.34-1.6-6.34-6.89v-12.18h-4.16v-2.44h4.16v-6.05l2.94-1.43v7.48h5.92v2.44h-5.92v11.8c0,2.82.76,4.58,3.4,4.58,1.6,0,3.23-.29,4.03-.5Z"/><path class="cls-7" d="m865.58,1835.63h-15.96c.17,4.79,2.48,7.48,6.93,7.48,3.82,0,5.67-1.43,5.97-4.83h2.98c-.29,4.24-3.28,7.39-9.03,7.39-7.06,0-9.83-4.66-9.83-10.88s3.23-11.22,10-11.22,8.95,3.99,8.95,10.21v1.85Zm-3.11-2.98c0-4.45-1.72-6.55-5.92-6.55s-6.55,2.65-6.89,6.97h12.81v-.42Z"/><path class="cls-7" d="m902.17,1831.51v13.61h-2.94v-13.27c0-4.33-2.14-5.71-4.75-5.71-3.82,0-6.17,2.69-6.17,5.63v13.36h-2.94v-13.27c0-4.33-1.85-5.71-4.83-5.71-3.61,0-6.13,2.69-6.13,5.63v13.36h-2.94v-21h2.6l.29,3.49c1.01-2.02,3.07-4.03,6.93-4.03,2.94,0,5.38,1.39,6.43,4.29,1.22-2.39,3.57-4.29,7.14-4.29,4.29,0,7.31,2.52,7.31,7.94Z"/><path class="cls-7" d="m919.17,1824.12h2.6l.29,3.91c1.01-2.14,3.07-4.45,6.76-4.45,1.26,0,2.18.21,3.02.55v3.15c-1.13-.5-2.1-.76-3.4-.76-3.74,0-6.34,2.81-6.34,5.75v12.85h-2.94v-21Z"/><path class="cls-7" d="m953.11,1835.63h-15.96c.17,4.79,2.48,7.48,6.93,7.48,3.82,0,5.67-1.43,5.97-4.83h2.98c-.29,4.24-3.28,7.39-9.03,7.39-7.06,0-9.83-4.66-9.83-10.88s3.23-11.22,10-11.22,8.95,3.99,8.95,10.21v1.85Zm-3.11-2.98c0-4.45-1.72-6.55-5.92-6.55s-6.55,2.65-6.89,6.97h12.81v-.42Z"/><path class="cls-7" d="m957.52,1839.33c0-3.95,2.23-6.09,7.86-6.09h6.34v-1.72c0-2.98-1.26-5.42-5.46-5.42-3.95,0-5.33,1.51-5.33,4.12v.88h-2.98v-.84c0-5,4.2-6.68,8.32-6.68,5.8,0,8.4,2.86,8.4,8.44v13.11h-2.06l-.55-2.98h-.08c-1.26,1.89-3.7,3.53-7.35,3.53-4.92,0-7.1-2.31-7.1-6.34Zm14.2-1.85v-1.76h-7.01c-2.65,0-4.03.92-4.03,3.61,0,2.35,1.26,3.86,4.5,3.86,4.16,0,6.55-2.14,6.55-5.71Z"/><path class="cls-7" d="m980.32,1834.79c0-6.38,3.23-11.22,10-11.22s8.95,3.91,8.95,8.95v.42h-3.11v-.63c0-3.82-1.64-6.09-5.84-6.09-4.75,0-7.01,3.11-7.01,8.4,0,5.63,2.39,8.49,6.93,8.49,3.82,0,5.84-1.85,5.92-5.67h3.02c-.08,4.66-3.15,8.23-9.03,8.23-7.22,0-9.83-4.75-9.83-10.88Z"/><path class="cls-7" d="m1004.51,1812.36h2.94v15.16c1.05-2.1,3.28-3.95,7.31-3.95,4.75,0,7.77,2.52,7.77,7.94v13.61h-2.94v-13.27c0-4.33-2.14-5.71-5.5-5.71-3.82,0-6.64,2.69-6.64,5.63v13.36h-2.94v-32.77Z"/><path class="cls-7" d="m1047.15,1835.63h-15.96c.17,4.79,2.48,7.48,6.93,7.48,3.82,0,5.67-1.43,5.97-4.83h2.98c-.29,4.24-3.28,7.39-9.03,7.39-7.06,0-9.83-4.66-9.83-10.88s3.23-11.22,10-11.22,8.95,3.99,8.95,10.21v1.85Zm-3.11-2.98c0-4.45-1.72-6.55-5.92-6.55s-6.55,2.65-6.89,6.97h12.81v-.42Z"/><path class="cls-7" d="m1051.13,1838.7v-1.18h2.94v1.13c0,2.86,2.14,4.49,5.96,4.49s5.8-1.01,5.8-3.78c0-2.06-1.01-2.81-3.86-3.32l-4.62-.84c-3.02-.55-5.54-2.02-5.54-5.5,0-3.15,2.35-6.13,8.4-6.13s8.4,3.02,8.4,7.23v.88h-2.98v-.76c0-3.45-2.14-4.92-5.42-4.92-3.95,0-5.33,1.34-5.33,3.36s1.01,2.86,3.91,3.4l4.03.76c4.12.76,6.09,1.93,6.09,5.59,0,4.58-4.12,6.55-8.78,6.55-7.31,0-8.99-3.28-8.99-6.97Z"/><path class="cls-7" d="m1083.18,1839.33c0-3.95,2.23-6.09,7.86-6.09h6.34v-1.72c0-2.98-1.26-5.42-5.46-5.42-3.95,0-5.33,1.51-5.33,4.12v.88h-2.98v-.84c0-5,4.2-6.68,8.32-6.68,5.8,0,8.4,2.86,8.4,8.44v13.11h-2.06l-.55-2.98h-.08c-1.26,1.89-3.7,3.53-7.35,3.53-4.92,0-7.1-2.31-7.1-6.34Zm14.2-1.85v-1.76h-7.01c-2.65,0-4.03.92-4.03,3.61,0,2.35,1.26,3.86,4.5,3.86,4.16,0,6.55-2.14,6.55-5.71Z"/><path class="cls-7" d="m1110.48,1841.64h-.08l-.76,3.49h-1.97v-32.77h2.94v15.25h.04c1.26-2.31,4.07-4.03,7.69-4.03,6.3,0,9.66,3.99,9.66,11.01s-4.29,11.09-9.87,11.09c-3.78,0-6.55-1.64-7.65-4.03Zm14.37-6.89c0-7.18-3.4-8.61-6.93-8.61-4.24,0-7.56,2.73-7.56,8.44,0,6.01,3.45,8.57,7.44,8.57,3.02,0,7.06-1.47,7.06-8.4Z"/><path class="cls-7" d="m1132.19,1834.62c0-6.22,3.32-11.05,10.38-11.05,6.59,0,10.25,4.83,10.25,11.05s-3.7,11.05-10.29,11.05c-7.27,0-10.33-4.83-10.33-11.05Zm17.56,0c0-5.33-2.9-8.49-7.22-8.49-4.75,0-7.27,3.15-7.27,8.49s2.56,8.49,7.27,8.49c4.33,0,7.22-3.15,7.22-8.49Z"/><path class="cls-7" d="m1154.7,1824.16v-.04h3.36l7.35,17.98h.08l7.1-17.98h3.07v.04l-8.74,20.96h-3.02l-9.2-20.96Z"/><path class="cls-7" d="m1196.5,1835.63h-15.96c.17,4.79,2.48,7.48,6.93,7.48,3.82,0,5.67-1.43,5.97-4.83h2.98c-.29,4.24-3.28,7.39-9.03,7.39-7.06,0-9.83-4.66-9.83-10.88s3.23-11.22,10-11.22,8.95,3.99,8.95,10.21v1.85Zm-3.11-2.98c0-4.45-1.72-6.55-5.92-6.55s-6.55,2.65-6.89,6.97h12.81v-.42Z"/><path class="cls-7" d="m1223,1842.44v2.6c-.76.21-2.14.59-4.03.59-3.82,0-6.34-1.6-6.34-6.89v-12.18h-4.16v-2.44h4.16v-6.05l2.94-1.43v7.48h5.92v2.44h-5.92v11.8c0,2.82.76,4.58,3.4,4.58,1.6,0,3.23-.29,4.03-.5Z"/><path class="cls-7" d="m1227.83,1812.36h2.94v15.16c1.05-2.1,3.28-3.95,7.31-3.95,4.75,0,7.77,2.52,7.77,7.94v13.61h-2.94v-13.27c0-4.33-2.14-5.71-5.5-5.71-3.82,0-6.64,2.69-6.64,5.63v13.36h-2.94v-32.77Z"/><path class="cls-7" d="m1270.46,1835.63h-15.96c.17,4.79,2.48,7.48,6.93,7.48,3.82,0,5.67-1.43,5.97-4.83h2.98c-.29,4.24-3.28,7.39-9.03,7.39-7.06,0-9.83-4.66-9.83-10.88s3.23-11.22,10-11.22,8.95,3.99,8.95,10.21v1.85Zm-3.11-2.98c0-4.45-1.72-6.55-5.92-6.55s-6.55,2.65-6.89,6.97h12.81v-.42Z"/><path class="cls-7" d="m1302.21,1824.16l-8.07,10.5,8.02,10.42v.04h-3.44l-6.34-8.44-6.43,8.44h-3.28v-.04l8.02-10.38-8.07-10.54v-.04h3.44l6.39,8.49,6.43-8.44v-.04h3.32v.04Z"/><path class="cls-7" d="m1304.22,1831.64h10.59v2.81h-10.59v-2.81Z"/><path class="cls-7" d="m1320.68,1812.36h2.94v15.16c1.05-2.1,3.28-3.95,7.31-3.95,4.75,0,7.77,2.52,7.77,7.94v13.61h-2.94v-13.27c0-4.33-2.14-5.71-5.5-5.71-3.82,0-6.64,2.69-6.64,5.63v13.36h-2.94v-32.77Z"/><path class="cls-7" d="m1363.32,1835.63h-15.96c.17,4.79,2.48,7.48,6.93,7.48,3.82,0,5.67-1.43,5.97-4.83h2.98c-.29,4.24-3.28,7.39-9.03,7.39-7.06,0-9.83-4.66-9.83-10.88s3.23-11.22,10-11.22,8.95,3.99,8.95,10.21v1.85Zm-3.11-2.98c0-4.45-1.72-6.55-5.92-6.55s-6.55,2.65-6.89,6.97h12.81v-.42Z"/><path class="cls-7" d="m1369.19,1812.36h2.98v6.51h-2.98v-6.51Zm0,11.76h2.94v21h-2.94v-21Z"/><path class="cls-7" d="m1378.89,1846.93v-.13h3.11v.13c0,2.9,1.93,4.33,6.13,4.33,4.79,0,7.01-2.94,7.01-7.86v-2.1h-.08c-1.09,2.18-3.65,4.07-7.48,4.07-6.3,0-9.75-3.99-9.75-10.71,0-7.1,4.37-11.09,9.96-11.09,3.78,0,6.55,1.81,7.56,4.12h.13l.29-3.57h2.31v19.16c0,5.88-2.81,10.71-10.33,10.71-6.3,0-8.86-2.98-8.86-7.06Zm16.59-12.77c0-5.5-3.36-8.07-7.35-8.07-3.03,0-7.14,1.47-7.14,8.4s3.57,8.32,7.1,8.32c4.24,0,7.39-2.73,7.39-8.65Z"/><path class="cls-7" d="m1405.44,1812.36h2.94v15.16c1.05-2.1,3.28-3.95,7.31-3.95,4.75,0,7.77,2.52,7.77,7.94v13.61h-2.94v-13.27c0-4.33-2.14-5.71-5.5-5.71-3.82,0-6.64,2.69-6.64,5.63v13.36h-2.94v-32.77Z"/><path class="cls-7" d="m1441.77,1842.44v2.6c-.76.21-2.14.59-4.03.59-3.82,0-6.34-1.6-6.34-6.89v-12.18h-4.16v-2.44h4.16v-6.05l2.94-1.43v7.48h5.92v2.44h-5.92v11.8c0,2.82.76,4.58,3.4,4.58,1.6,0,3.23-.29,4.03-.5Z"/><path class="cls-7" d="m1456.26,1812.36h2.98v6.51h-2.98v-6.51Zm0,11.76h2.94v21h-2.94v-21Z"/><path class="cls-7" d="m1466.59,1824.12h2.6l.29,3.49c1.01-2.14,3.28-4.03,7.35-4.03,4.75,0,7.77,2.52,7.77,7.94v13.61h-2.94v-13.27c0-4.33-2.14-5.71-5.5-5.71-3.82,0-6.64,2.69-6.64,5.63v13.36h-2.94v-21Z"/><path class="cls-7" d="m1503.3,1822.82h-3.36v-5.08c0-3.95.88-5.29,3.4-5.96l.67,1.85c-1.76.67-2.06,1.09-2.06,3.78v.34h1.34v5.08Zm5.92,0h-3.36v-5.08c0-3.95.88-5.29,3.4-5.96l.67,1.85c-1.76.67-2.06,1.09-2.06,3.78v.34h1.34v5.08Z"/><path class="cls-7" d="m1515.6,1824.12h2.39l.34,3.87h.08c1.13-2.48,4.03-4.41,7.86-4.41,6.3,0,9.66,3.99,9.66,11.01s-4.29,11.09-9.87,11.09c-3.78,0-6.38-1.6-7.43-3.7h-.08v11.55h-2.94v-29.41Zm17.18,10.63c0-7.18-3.4-8.61-6.93-8.61-4.24,0-7.56,2.73-7.56,8.44,0,6.01,3.45,8.57,7.44,8.57,3.02,0,7.06-1.47,7.06-8.4Z"/><path class="cls-7" d="m1537.19,1821.56c1.76-.67,2.06-1.09,2.06-3.78v-.34h-1.34v-5.08h3.36v5.08c0,3.95-.88,5.29-3.4,5.96l-.67-1.85Zm5.92,0c1.76-.67,2.06-1.09,2.06-3.78v-.34h-1.34v-5.08h3.36v5.08c0,3.95-.88,5.29-3.4,5.96l-.67-1.85Z"/><path class="cls-7" d="m1293.14,798.03v-2.02h3.02v2.18c0,3.74,2.6,6.05,7.94,6.05s8.44-1.97,8.44-6.22c0-3.32-1.39-5.17-4.91-6.09l-6.64-1.72c-4.33-1.13-7.18-2.98-7.18-8.15s3.78-8.91,10.92-8.91,10.59,3.44,10.59,9.07v2.94h-3.03v-2.81c0-4.62-3.07-6.51-7.56-6.51-5.12,0-7.81,2.14-7.81,6.01,0,3.61,1.76,4.7,5.54,5.71l5.76,1.55c5.12,1.39,7.44,3.74,7.44,8.65,0,6.09-4.33,9.24-11.47,9.24-9.12,0-11.05-4.7-11.05-8.99Z"/><path class="cls-7" d="m1322.83,773.71h2.94v32.77h-2.94v-32.77Z"/><path class="cls-7" d="m1331.86,800.68c0-3.95,2.23-6.09,7.86-6.09h6.34v-1.72c0-2.98-1.26-5.42-5.46-5.42-3.95,0-5.34,1.51-5.34,4.12v.88h-2.98v-.84c0-5,4.2-6.68,8.32-6.68,5.8,0,8.4,2.86,8.4,8.44v13.11h-2.06l-.55-2.98h-.08c-1.26,1.89-3.7,3.53-7.35,3.53-4.92,0-7.1-2.31-7.1-6.34Zm14.2-1.85v-1.76h-7.02c-2.65,0-4.03.92-4.03,3.61,0,2.35,1.26,3.86,4.5,3.86,4.16,0,6.55-2.14,6.55-5.71Z"/><path class="cls-7" d="m1356.35,785.47h2.61l.29,3.49c1.01-2.14,3.28-4.03,7.35-4.03,4.75,0,7.77,2.52,7.77,7.94v13.61h-2.94v-13.27c0-4.33-2.14-5.71-5.5-5.71-3.82,0-6.64,2.69-6.64,5.63v13.36h-2.94v-21Z"/><path class="cls-7" d="m1392.68,803.79v2.6c-.76.21-2.14.59-4.03.59-3.82,0-6.34-1.6-6.34-6.89v-12.18h-4.16v-2.44h4.16v-6.05l2.94-1.43v7.48h5.92v2.44h-5.92v11.8c0,2.81.76,4.58,3.4,4.58,1.6,0,3.23-.29,4.03-.5Z"/><path class="cls-7" d="m1414.14,796.98h-15.96c.17,4.79,2.48,7.48,6.93,7.48,3.82,0,5.67-1.43,5.96-4.83h2.98c-.29,4.24-3.28,7.39-9.03,7.39-7.06,0-9.83-4.66-9.83-10.88s3.23-11.22,10-11.22,8.95,3.99,8.95,10.21v1.85Zm-3.11-2.98c0-4.45-1.72-6.55-5.92-6.55s-6.55,2.65-6.89,6.97h12.81v-.42Z"/><path class="cls-7" d="m1418.34,796.02c0-7.1,4.29-11.09,10.04-11.09,3.7,0,6.22,1.6,7.31,3.74h.04v-14.95h2.94v32.77h-1.97l-.67-3.61h-.08c-1.18,2.31-3.95,4.16-7.77,4.16-6.3,0-9.83-3.99-9.83-11.01Zm17.64-.5c0-5.5-3.36-8.07-7.35-8.07-3.11,0-7.14,1.47-7.14,8.4s3.61,8.61,7.14,8.61c4.24,0,7.35-2.73,7.35-8.95Z"/><polygon class="cls-11" points="1348.51 738.97 1400.85 738.97 1527.28 204.72 1474.95 204.72 1348.51 738.97"/><path class="cls-7" d="m1017.47,1710.2h3.15l17.69,27.6h.04v-27.6h2.94v32.77h-3.07l-17.77-27.94h-.04v27.94h-2.94v-32.77Z"/><path class="cls-7" d="m1048.63,1737.17c0-3.95,2.23-6.09,7.86-6.09h6.34v-1.72c0-2.98-1.26-5.42-5.46-5.42-3.95,0-5.34,1.51-5.34,4.12v.88h-2.98v-.84c0-5,4.2-6.68,8.32-6.68,5.8,0,8.4,2.86,8.4,8.44v13.11h-2.06l-.55-2.98h-.08c-1.26,1.89-3.7,3.53-7.35,3.53-4.91,0-7.1-2.31-7.1-6.34Zm14.2-1.85v-1.76h-7.02c-2.65,0-4.03.92-4.03,3.61,0,2.35,1.26,3.86,4.5,3.86,4.16,0,6.55-2.14,6.55-5.71Z"/><path class="cls-7" d="m1073.12,1721.96h2.6l.29,3.91c1.01-2.14,3.07-4.45,6.76-4.45,1.26,0,2.18.21,3.02.55v3.15c-1.13-.5-2.1-.76-3.4-.76-3.74,0-6.34,2.81-6.34,5.75v12.85h-2.94v-21Z"/><path class="cls-7" d="m1090.42,1721.96h2.61l.29,3.91c1.01-2.14,3.07-4.45,6.76-4.45,1.26,0,2.19.21,3.03.55v3.15c-1.13-.5-2.1-.76-3.4-.76-3.74,0-6.34,2.81-6.34,5.75v12.85h-2.94v-21Z"/><path class="cls-7" d="m1105.42,1732.46c0-6.22,3.32-11.05,10.38-11.05,6.59,0,10.25,4.83,10.25,11.05s-3.7,11.05-10.29,11.05c-7.27,0-10.33-4.83-10.33-11.05Zm17.56,0c0-5.33-2.9-8.49-7.22-8.49-4.75,0-7.27,3.15-7.27,8.49s2.56,8.49,7.27,8.49c4.33,0,7.22-3.15,7.22-8.49Z"/><path class="cls-7" d="m1128.35,1722v-.04h2.98l5.76,17.47h.08l6.3-17.47h2.69l6.18,17.47h.08l5.75-17.47h2.86v.04l-7.18,20.96h-3.02l-5.96-17.06h-.09l-6.22,17.06h-3.02l-7.18-20.96Z"/><path class="cls-7" d="m1175.51,1721.96h2.39l.34,3.86h.08c1.13-2.48,4.03-4.41,7.86-4.41,6.3,0,9.66,3.99,9.66,11.01s-4.29,11.09-9.87,11.09c-3.78,0-6.38-1.6-7.43-3.7h-.09v11.55h-2.94v-29.41Zm17.18,10.63c0-7.18-3.4-8.61-6.93-8.61-4.24,0-7.56,2.73-7.56,8.44,0,6.01,3.45,8.57,7.44,8.57,3.03,0,7.06-1.47,7.06-8.4Z"/><path class="cls-7" d="m1201.72,1721.96h2.61l.29,3.91c1.01-2.14,3.07-4.45,6.76-4.45,1.26,0,2.19.21,3.03.55v3.15c-1.13-.5-2.1-.76-3.4-.76-3.74,0-6.34,2.81-6.34,5.75v12.85h-2.94v-21Z"/><path class="cls-7" d="m1216.71,1732.46c0-6.22,3.32-11.05,10.38-11.05,6.59,0,10.25,4.83,10.25,11.05s-3.7,11.05-10.29,11.05c-7.27,0-10.33-4.83-10.33-11.05Zm17.56,0c0-5.33-2.9-8.49-7.22-8.49-4.75,0-7.27,3.15-7.27,8.49s2.56,8.49,7.27,8.49c4.33,0,7.22-3.15,7.22-8.49Z"/><path class="cls-7" d="m1243.22,1721.96h2.39l.34,3.86h.08c1.13-2.48,4.03-4.41,7.86-4.41,6.3,0,9.66,3.99,9.66,11.01s-4.29,11.09-9.87,11.09c-3.78,0-6.38-1.6-7.43-3.7h-.09v11.55h-2.94v-29.41Zm17.18,10.63c0-7.18-3.4-8.61-6.93-8.61-4.24,0-7.56,2.73-7.56,8.44,0,6.01,3.45,8.57,7.44,8.57,3.03,0,7.06-1.47,7.06-8.4Z"/><path class="cls-7" d="m1267.74,1732.46c0-6.22,3.32-11.05,10.38-11.05,6.59,0,10.25,4.83,10.25,11.05s-3.7,11.05-10.29,11.05c-7.27,0-10.33-4.83-10.33-11.05Zm17.56,0c0-5.33-2.9-8.49-7.22-8.49-4.75,0-7.27,3.15-7.27,8.49s2.56,8.49,7.27,8.49c4.33,0,7.22-3.15,7.22-8.49Z"/><path class="cls-7" d="m1294.25,1721.96h2.6l.29,3.91c1.01-2.14,3.07-4.45,6.76-4.45,1.26,0,2.18.21,3.02.55v3.15c-1.13-.5-2.1-.76-3.4-.76-3.74,0-6.34,2.81-6.34,5.75v12.85h-2.94v-21Z"/><path class="cls-7" d="m1322.51,1740.27v2.6c-.76.21-2.14.59-4.03.59-3.82,0-6.34-1.6-6.34-6.89v-12.18h-4.16v-2.44h4.16v-6.05l2.94-1.43v7.48h5.92v2.44h-5.92v11.8c0,2.81.76,4.58,3.4,4.58,1.6,0,3.23-.29,4.03-.5Z"/><path class="cls-7" d="m1327.34,1710.2h2.98v6.51h-2.98v-6.51Zm0,11.76h2.94v21h-2.94v-21Z"/><path class="cls-7" d="m1335.99,1732.46c0-6.22,3.32-11.05,10.38-11.05,6.59,0,10.25,4.83,10.25,11.05s-3.7,11.05-10.29,11.05c-7.27,0-10.33-4.83-10.33-11.05Zm17.56,0c0-5.33-2.9-8.49-7.22-8.49-4.75,0-7.27,3.15-7.27,8.49s2.56,8.49,7.27,8.49c4.33,0,7.22-3.15,7.22-8.49Z"/><path class="cls-7" d="m1362.49,1721.96h2.6l.29,3.49c1.01-2.14,3.28-4.03,7.35-4.03,4.75,0,7.77,2.52,7.77,7.94v13.61h-2.94v-13.27c0-4.33-2.14-5.71-5.5-5.71-3.82,0-6.64,2.69-6.64,5.63v13.36h-2.94v-21Z"/><path class="cls-7" d="m1385.97,1736.53v-1.18h2.94v1.13c0,2.86,2.14,4.5,5.96,4.5s5.8-1.01,5.8-3.78c0-2.06-1.01-2.81-3.87-3.32l-4.62-.84c-3.02-.55-5.54-2.02-5.54-5.5,0-3.15,2.35-6.13,8.4-6.13s8.4,3.02,8.4,7.22v.88h-2.98v-.76c0-3.44-2.14-4.91-5.42-4.91-3.95,0-5.34,1.34-5.34,3.36s1.01,2.86,3.91,3.4l4.03.76c4.12.76,6.09,1.93,6.09,5.59,0,4.58-4.12,6.55-8.78,6.55-7.31,0-8.99-3.28-8.99-6.97Z"/><path class="cls-7" d="m1417.6,1732.46c0-6.22,3.32-11.05,10.38-11.05,6.6,0,10.25,4.83,10.25,11.05s-3.7,11.05-10.29,11.05c-7.27,0-10.33-4.83-10.33-11.05Zm17.56,0c0-5.33-2.9-8.49-7.22-8.49-4.75,0-7.27,3.15-7.27,8.49s2.56,8.49,7.27,8.49c4.33,0,7.22-3.15,7.22-8.49Z"/><path class="cls-7" d="m1440.11,1722v-.04h3.36l7.35,17.98h.08l7.1-17.98h3.07v.04l-8.74,20.96h-3.02l-9.2-20.96Z"/><path class="cls-7" d="m1481.9,1733.47h-15.96c.17,4.79,2.48,7.48,6.93,7.48,3.82,0,5.67-1.43,5.96-4.83h2.98c-.29,4.24-3.28,7.39-9.03,7.39-7.06,0-9.83-4.66-9.83-10.88s3.23-11.22,10-11.22,8.95,3.99,8.95,10.21v1.85Zm-3.11-2.98c0-4.45-1.72-6.55-5.92-6.55s-6.55,2.65-6.89,6.97h12.81v-.42Z"/><path class="cls-7" d="m1487.78,1721.96h2.6l.29,3.91c1.01-2.14,3.07-4.45,6.76-4.45,1.26,0,2.18.21,3.02.55v3.15c-1.13-.5-2.1-.76-3.4-.76-3.74,0-6.34,2.81-6.34,5.75v12.85h-2.94v-21Z"/><path class="cls-7" d="m1503.4,1737.17c0-3.95,2.23-6.09,7.86-6.09h6.34v-1.72c0-2.98-1.26-5.42-5.46-5.42-3.95,0-5.34,1.51-5.34,4.12v.88h-2.98v-.84c0-5,4.2-6.68,8.32-6.68,5.8,0,8.4,2.86,8.4,8.44v13.11h-2.06l-.55-2.98h-.08c-1.26,1.89-3.7,3.53-7.35,3.53-4.91,0-7.1-2.31-7.1-6.34Zm14.2-1.85v-1.76h-7.02c-2.65,0-4.03.92-4.03,3.61,0,2.35,1.26,3.86,4.5,3.86,4.16,0,6.55-2.14,6.55-5.71Z"/><path class="cls-7" d="m1527.89,1710.2h2.94v32.77h-2.94v-32.77Z"/><path class="cls-7" d="m1538.18,1710.2h2.94v32.77h-2.94v-32.77Z"/><rect class="cls-11" x="894.52" y="2001.15" width="145.93" height="145.93" rx="72.96" ry="72.96"/><path class="cls-7" d="m257.29,852.47c0-11.72,6.76-16.93,15.46-16.93,7.94,0,14.7,5.21,14.7,16.59,0,12.48-6.76,17.26-15.08,17.26s-15.08-4.79-15.08-16.93Zm27.05,0c0-10.12-5.33-14.24-12.01-14.24s-11.93,4.12-11.93,14.24,5.33,14.2,12.01,14.2,11.93-3.74,11.93-14.2Z"/><path class="cls-7" d="m293.75,847.85h2.39l.34,3.86h.08c1.13-2.48,4.03-4.41,7.86-4.41,6.3,0,9.66,3.99,9.66,11.01s-4.29,11.09-9.87,11.09c-3.78,0-6.38-1.6-7.43-3.7h-.08v11.55h-2.94v-29.41Zm17.18,10.63c0-7.18-3.4-8.61-6.93-8.61-4.24,0-7.56,2.73-7.56,8.44,0,6.01,3.45,8.57,7.44,8.57,3.02,0,7.06-1.47,7.06-8.4Z"/><path class="cls-7" d="m337.22,859.36h-15.96c.17,4.79,2.48,7.48,6.93,7.48,3.82,0,5.67-1.43,5.97-4.83h2.98c-.29,4.24-3.28,7.39-9.03,7.39-7.06,0-9.83-4.66-9.83-10.88s3.23-11.22,10-11.22,8.95,3.99,8.95,10.21v1.85Zm-3.11-2.98c0-4.45-1.72-6.55-5.92-6.55s-6.55,2.65-6.89,6.97h12.81v-.42Z"/><path class="cls-7" d="m343.1,847.85h2.6l.29,3.49c1.01-2.14,3.28-4.03,7.35-4.03,4.75,0,7.77,2.52,7.77,7.94v13.61h-2.94v-13.27c0-4.33-2.14-5.71-5.5-5.71-3.82,0-6.64,2.69-6.64,5.63v13.36h-2.94v-21Z"/><path class="cls-7" d="m378.13,836.08h2.94v23.23l12.14-11.47h3.65v.04l-8.4,7.86,8.78,13.06v.04h-3.36l-7.39-11.22-5.42,5.04v6.18h-2.94v-32.77Z"/><path class="cls-7" d="m402.28,847.85h2.6l.29,3.49c1.01-2.14,3.28-4.03,7.35-4.03,4.75,0,7.77,2.52,7.77,7.94v13.61h-2.94v-13.27c0-4.33-2.14-5.71-5.5-5.71-3.82,0-6.64,2.69-6.64,5.63v13.36h-2.94v-21Z"/><path class="cls-7" d="m425.96,858.35c0-6.22,3.32-11.05,10.38-11.05,6.59,0,10.25,4.83,10.25,11.05s-3.7,11.05-10.29,11.05c-7.27,0-10.33-4.83-10.33-11.05Zm17.56,0c0-5.33-2.9-8.49-7.22-8.49-4.75,0-7.27,3.15-7.27,8.49s2.56,8.49,7.27,8.49c4.33,0,7.22-3.15,7.22-8.49Z"/><path class="cls-7" d="m463.43,866.16v2.6c-.76.21-2.14.59-4.03.59-3.82,0-6.34-1.6-6.34-6.89v-12.18h-4.16v-2.44h4.16v-6.05l2.94-1.43v7.48h5.92v2.44h-5.92v11.8c0,2.81.76,4.58,3.4,4.58,1.6,0,3.23-.29,4.03-.5Z"/><path class="cls-7" d="m477.92,836.08h2.98v6.51h-2.98v-6.51Zm0,11.76h2.94v21h-2.94v-21Z"/><path class="cls-7" d="m488.25,847.85h2.6l.29,3.49c1.01-2.14,3.28-4.03,7.35-4.03,4.75,0,7.77,2.52,7.77,7.94v13.61h-2.94v-13.27c0-4.33-2.14-5.71-5.5-5.71-3.82,0-6.64,2.69-6.64,5.63v13.36h-2.94v-21Z"/><path class="cls-7" d="m524.96,846.54h-3.36v-5.08c0-3.95.88-5.29,3.4-5.97l.67,1.85c-1.76.67-2.06,1.09-2.06,3.78v.34h1.34v5.08Zm5.92,0h-3.36v-5.08c0-3.95.88-5.29,3.4-5.97l.67,1.85c-1.76.67-2.06,1.09-2.06,3.78v.34h1.34v5.08Z"/><path class="cls-7" d="m534.95,866.29l14.7-15.88h-14.58v-2.56h18.23v2.56l-14.7,15.84h14.66v2.6h-18.31v-2.56Z"/><path class="cls-7" d="m556.66,845.28c1.76-.67,2.06-1.09,2.06-3.78v-.34h-1.34v-5.08h3.36v5.08c0,3.95-.88,5.29-3.4,5.97l-.67-1.85Zm5.92,0c1.76-.67,2.06-1.09,2.06-3.78v-.34h-1.34v-5.08h3.36v5.08c0,3.95-.88,5.29-3.4,5.97l-.67-1.85Z"/><path class="cls-7" d="m726.46,920.11v-2.02h3.02v2.18c0,3.74,2.6,6.05,7.94,6.05s8.44-1.97,8.44-6.22c0-3.32-1.39-5.17-4.92-6.09l-6.64-1.72c-4.33-1.13-7.18-2.98-7.18-8.15s3.78-8.91,10.92-8.91,10.59,3.44,10.59,9.07v2.94h-3.02v-2.81c0-4.62-3.07-6.51-7.56-6.51-5.12,0-7.81,2.14-7.81,6.01,0,3.61,1.76,4.7,5.55,5.71l5.75,1.55c5.12,1.39,7.43,3.74,7.43,8.65,0,6.09-4.33,9.24-11.47,9.24-9.12,0-11.05-4.7-11.05-8.99Z"/><path class="cls-7" d="m767.12,925.86v2.6c-.76.21-2.14.59-4.03.59-3.82,0-6.34-1.6-6.34-6.89v-12.18h-4.16v-2.44h4.16v-6.05l2.94-1.43v7.48h5.92v2.44h-5.92v11.8c0,2.81.76,4.58,3.4,4.58,1.6,0,3.23-.29,4.03-.5Z"/><path class="cls-7" d="m771.95,907.55h2.6l.29,3.91c1.01-2.14,3.07-4.45,6.76-4.45,1.26,0,2.18.21,3.02.55v3.15c-1.13-.5-2.1-.76-3.4-.76-3.74,0-6.34,2.81-6.34,5.75v12.85h-2.94v-21Z"/><path class="cls-7" d="m787.57,922.75c0-3.95,2.23-6.09,7.86-6.09h6.34v-1.72c0-2.98-1.26-5.42-5.46-5.42-3.95,0-5.33,1.51-5.33,4.12v.88h-2.98v-.84c0-5,4.2-6.68,8.32-6.68,5.8,0,8.4,2.86,8.4,8.44v13.11h-2.06l-.55-2.98h-.08c-1.26,1.89-3.7,3.53-7.35,3.53-4.92,0-7.1-2.31-7.1-6.34Zm14.2-1.85v-1.76h-7.01c-2.65,0-4.03.92-4.03,3.61,0,2.35,1.26,3.86,4.5,3.86,4.16,0,6.55-2.14,6.55-5.71Z"/><path class="cls-7" d="m812.06,895.78h2.98v6.51h-2.98v-6.51Zm0,11.76h2.94v21h-2.94v-21Z"/><path class="cls-7" d="m821.76,930.36v-.13h3.11v.13c0,2.9,1.93,4.33,6.13,4.33,4.79,0,7.01-2.94,7.01-7.86v-2.1h-.08c-1.09,2.18-3.65,4.07-7.48,4.07-6.3,0-9.75-3.99-9.75-10.71,0-7.1,4.37-11.09,9.96-11.09,3.78,0,6.55,1.81,7.56,4.12h.13l.29-3.57h2.31v19.16c0,5.88-2.81,10.71-10.33,10.71-6.3,0-8.86-2.98-8.86-7.06Zm16.59-12.77c0-5.5-3.36-8.07-7.35-8.07-3.03,0-7.14,1.47-7.14,8.4s3.57,8.32,7.1,8.32c4.24,0,7.39-2.73,7.39-8.65Z"/><path class="cls-7" d="m848.3,895.78h2.94v15.16c1.05-2.1,3.28-3.95,7.31-3.95,4.75,0,7.77,2.52,7.77,7.94v13.61h-2.94v-13.27c0-4.33-2.14-5.71-5.5-5.71-3.82,0-6.64,2.69-6.64,5.63v13.36h-2.94v-32.77Z"/><path class="cls-7" d="m884.63,925.86v2.6c-.76.21-2.14.59-4.03.59-3.82,0-6.34-1.6-6.34-6.89v-12.18h-4.16v-2.44h4.16v-6.05l2.94-1.43v7.48h5.92v2.44h-5.92v11.8c0,2.81.76,4.58,3.4,4.58,1.6,0,3.23-.29,4.03-.5Z"/><path class="cls-7" d="m897.86,922.75c0-3.95,2.23-6.09,7.86-6.09h6.34v-1.72c0-2.98-1.26-5.42-5.46-5.42-3.95,0-5.33,1.51-5.33,4.12v.88h-2.98v-.84c0-5,4.2-6.68,8.32-6.68,5.8,0,8.4,2.86,8.4,8.44v13.11h-2.06l-.55-2.98h-.08c-1.26,1.89-3.7,3.53-7.35,3.53-4.92,0-7.1-2.31-7.1-6.34Zm14.2-1.85v-1.76h-7.01c-2.65,0-4.03.92-4.03,3.61,0,2.35,1.26,3.86,4.5,3.86,4.16,0,6.55-2.14,6.55-5.71Z"/><path class="cls-7" d="m922.34,907.55h2.6l.29,3.49c1.01-2.14,3.28-4.03,7.35-4.03,4.75,0,7.77,2.52,7.77,7.94v13.61h-2.94v-13.27c0-4.33-2.14-5.71-5.5-5.71-3.82,0-6.64,2.69-6.64,5.63v13.36h-2.94v-21Z"/><path class="cls-7" d="m946.03,918.09c0-7.1,4.28-11.09,10.04-11.09,3.7,0,6.22,1.6,7.31,3.74h.04v-14.95h2.94v32.77h-1.97l-.67-3.61h-.08c-1.18,2.31-3.95,4.16-7.77,4.16-6.3,0-9.83-3.99-9.83-11.01Zm17.64-.5c0-5.5-3.36-8.07-7.35-8.07-3.11,0-7.14,1.47-7.14,8.4s3.61,8.61,7.14,8.61c4.24,0,7.35-2.73,7.35-8.95Z"/><path class="cls-7" d="m981.69,918.05c0-6.22,3.32-11.05,10.38-11.05,6.59,0,10.25,4.83,10.25,11.05s-3.7,11.05-10.29,11.05c-7.27,0-10.33-4.83-10.33-11.05Zm17.56,0c0-5.33-2.9-8.49-7.22-8.49-4.75,0-7.27,3.15-7.27,8.49s2.56,8.49,7.27,8.49c4.33,0,7.22-3.15,7.22-8.49Z"/><path class="cls-7" d="m1011,925.06h-.08l-.76,3.49h-1.97v-32.77h2.94v15.25h.04c1.26-2.31,4.07-4.03,7.69-4.03,6.3,0,9.66,3.99,9.66,11.01s-4.29,11.09-9.87,11.09c-3.78,0-6.55-1.64-7.65-4.03Zm14.37-6.89c0-7.18-3.4-8.61-6.93-8.61-4.24,0-7.56,2.73-7.56,8.44,0,6.01,3.45,8.57,7.44,8.57,3.02,0,7.06-1.47,7.06-8.4Z"/><path class="cls-7" d="m1033.77,895.78h2.94v32.77h-2.94v-32.77Z"/><path class="cls-7" d="m1044.06,895.78h2.98v6.51h-2.98v-6.51Zm0,11.76h2.94v21h-2.94v-21Z"/><path class="cls-7" d="m1070.02,925.06h-.08c-1.09,2.14-3.65,4.03-7.48,4.03-6.3,0-9.75-3.99-9.75-11.01s4.37-11.09,9.96-11.09c3.78,0,6.6,1.76,7.65,4.28h.04l.29-3.74h2.31v29.41h-2.94v-11.89Zm.34-7.48c0-5.5-3.36-8.07-7.35-8.07-3.03,0-7.14,1.47-7.14,8.4s3.57,8.61,7.1,8.61c4.24,0,7.39-2.73,7.39-8.95Z"/><path class="cls-7" d="m1079.88,921.16v-13.61h2.94v13.27c0,4.33,2.14,5.71,5.42,5.71,3.74,0,6.55-2.69,6.55-5.63v-13.36h2.94v21h-2.6l-.25-3.36h-.08c-.97,2.02-3.23,3.91-7.23,3.91-4.66,0-7.69-2.52-7.69-7.94Z"/><path class="cls-7" d="m1122.35,919.06h-15.96c.17,4.79,2.48,7.48,6.93,7.48,3.82,0,5.67-1.43,5.97-4.83h2.98c-.29,4.24-3.28,7.39-9.03,7.39-7.06,0-9.83-4.66-9.83-10.88s3.23-11.22,10-11.22,8.95,3.99,8.95,10.21v1.85Zm-3.11-2.98c0-4.45-1.72-6.55-5.92-6.55s-6.55,2.65-6.89,6.97h12.81v-.42Z"/><path class="cls-7" d="m725.62,967.06c0-6.38,3.23-11.22,10-11.22s8.95,3.91,8.95,8.95v.42h-3.11v-.63c0-3.82-1.64-6.09-5.84-6.09-4.75,0-7.01,3.11-7.01,8.4,0,5.63,2.39,8.49,6.93,8.49,3.82,0,5.84-1.85,5.92-5.67h3.02c-.08,4.66-3.15,8.23-9.03,8.23-7.22,0-9.83-4.75-9.83-10.88Z"/><path class="cls-7" d="m748.76,966.89c0-6.22,3.32-11.05,10.38-11.05,6.59,0,10.25,4.83,10.25,11.05s-3.7,11.05-10.29,11.05c-7.27,0-10.33-4.83-10.33-11.05Zm17.56,0c0-5.33-2.9-8.49-7.22-8.49-4.75,0-7.27,3.15-7.27,8.49s2.56,8.49,7.27,8.49c4.33,0,7.22-3.15,7.22-8.49Z"/><path class="cls-7" d="m775.26,956.39h2.6l.29,3.49c1.01-2.14,3.28-4.03,7.35-4.03,4.75,0,7.77,2.52,7.77,7.94v13.61h-2.94v-13.27c0-4.33-2.14-5.71-5.5-5.71-3.82,0-6.64,2.69-6.64,5.63v13.36h-2.94v-21Z"/><path class="cls-7" d="m800.63,956.39h2.6l.29,3.49c1.01-2.14,3.28-4.03,7.35-4.03,4.75,0,7.77,2.52,7.77,7.94v13.61h-2.94v-13.27c0-4.33-2.14-5.71-5.5-5.71-3.82,0-6.64,2.69-6.64,5.63v13.36h-2.94v-21Z"/><path class="cls-7" d="m843.26,967.9h-15.96c.17,4.79,2.48,7.48,6.93,7.48,3.82,0,5.67-1.43,5.97-4.83h2.98c-.29,4.24-3.28,7.39-9.03,7.39-7.06,0-9.83-4.66-9.83-10.88s3.23-11.22,10-11.22,8.95,3.99,8.95,10.21v1.85Zm-3.11-2.98c0-4.45-1.72-6.55-5.92-6.55s-6.55,2.65-6.89,6.97h12.81v-.42Z"/><path class="cls-7" d="m847.46,967.06c0-6.38,3.23-11.22,10-11.22s8.95,3.91,8.95,8.95v.42h-3.11v-.63c0-3.82-1.64-6.09-5.84-6.09-4.75,0-7.02,3.11-7.02,8.4,0,5.63,2.39,8.49,6.93,8.49,3.82,0,5.84-1.85,5.92-5.67h3.02c-.08,4.66-3.15,8.23-9.03,8.23-7.22,0-9.83-4.75-9.83-10.88Z"/><path class="cls-7" d="m883.25,974.71v2.6c-.76.21-2.14.59-4.03.59-3.82,0-6.34-1.6-6.34-6.89v-12.18h-4.16v-2.44h4.16v-6.05l2.94-1.43v7.48h5.92v2.44h-5.92v11.8c0,2.81.76,4.58,3.4,4.58,1.6,0,3.23-.29,4.03-.5Z"/><path class="cls-7" d="m888.07,944.63h2.98v6.51h-2.98v-6.51Zm0,11.76h2.94v21h-2.94v-21Z"/><path class="cls-7" d="m898.4,956.39h2.6l.29,3.49c1.01-2.14,3.28-4.03,7.35-4.03,4.75,0,7.77,2.52,7.77,7.94v13.61h-2.94v-13.27c0-4.33-2.14-5.71-5.5-5.71-3.82,0-6.64,2.69-6.64,5.63v13.36h-2.94v-21Z"/><path class="cls-7" d="m923.14,979.2v-.13h3.11v.13c0,2.9,1.93,4.33,6.13,4.33,4.79,0,7.01-2.94,7.01-7.86v-2.1h-.08c-1.09,2.18-3.65,4.07-7.48,4.07-6.3,0-9.75-3.99-9.75-10.71,0-7.1,4.37-11.09,9.96-11.09,3.78,0,6.55,1.81,7.56,4.12h.13l.29-3.57h2.31v19.16c0,5.88-2.81,10.71-10.33,10.71-6.3,0-8.86-2.98-8.86-7.06Zm16.59-12.77c0-5.5-3.36-8.07-7.35-8.07-3.03,0-7.14,1.47-7.14,8.4s3.57,8.32,7.1,8.32c4.24,0,7.39-2.73,7.39-8.65Z"/><path class="cls-7" d="m957.46,970.97v-1.18h2.94v1.13c0,2.86,2.14,4.5,5.96,4.5s5.8-1.01,5.8-3.78c0-2.06-1.01-2.81-3.86-3.32l-4.62-.84c-3.02-.55-5.54-2.02-5.54-5.5,0-3.15,2.35-6.13,8.4-6.13s8.4,3.02,8.4,7.23v.88h-2.98v-.76c0-3.44-2.14-4.91-5.42-4.91-3.95,0-5.33,1.34-5.33,3.36s1.01,2.86,3.91,3.4l4.03.76c4.12.76,6.09,1.93,6.09,5.59,0,4.58-4.12,6.55-8.78,6.55-7.31,0-8.99-3.28-8.99-6.97Z"/><path class="cls-7" d="m992.06,974.71v2.6c-.76.21-2.14.59-4.03.59-3.82,0-6.34-1.6-6.34-6.89v-12.18h-4.16v-2.44h4.16v-6.05l2.94-1.43v7.48h5.92v2.44h-5.92v11.8c0,2.81.76,4.58,3.4,4.58,1.6,0,3.23-.29,4.03-.5Z"/><path class="cls-7" d="m996.89,956.39h2.6l.29,3.91c1.01-2.14,3.07-4.45,6.76-4.45,1.26,0,2.18.21,3.02.55v3.15c-1.13-.5-2.1-.76-3.4-.76-3.74,0-6.34,2.81-6.34,5.75v12.85h-2.94v-21Z"/><path class="cls-7" d="m1011.89,966.89c0-6.22,3.32-11.05,10.38-11.05,6.59,0,10.25,4.83,10.25,11.05s-3.7,11.05-10.29,11.05c-7.27,0-10.33-4.83-10.33-11.05Zm17.56,0c0-5.33-2.9-8.49-7.22-8.49-4.75,0-7.27,3.15-7.27,8.49s2.56,8.49,7.27,8.49c4.33,0,7.22-3.15,7.22-8.49Z"/><path class="cls-7" d="m1037.76,944.63h2.94v23.23l12.14-11.47h3.65v.04l-8.4,7.86,8.78,13.06v.04h-3.36l-7.39-11.22-5.42,5.04v6.18h-2.94v-32.77Z"/><path class="cls-7" d="m1078.12,967.9h-15.96c.17,4.79,2.48,7.48,6.93,7.48,3.82,0,5.67-1.43,5.97-4.83h2.98c-.29,4.24-3.28,7.39-9.03,7.39-7.06,0-9.83-4.66-9.83-10.88s3.23-11.22,10-11.22,8.95,3.99,8.95,10.21v1.85Zm-3.11-2.98c0-4.45-1.72-6.55-5.92-6.55s-6.55,2.65-6.89,6.97h12.81v-.42Z"/><path class="cls-7" d="m1082.11,970.97v-1.18h2.94v1.13c0,2.86,2.14,4.5,5.96,4.5s5.8-1.01,5.8-3.78c0-2.06-1.01-2.81-3.86-3.32l-4.62-.84c-3.02-.55-5.54-2.02-5.54-5.5,0-3.15,2.35-6.13,8.4-6.13s8.4,3.02,8.4,7.23v.88h-2.98v-.76c0-3.44-2.14-4.91-5.42-4.91-3.95,0-5.33,1.34-5.33,3.36s1.01,2.86,3.91,3.4l4.03.76c4.12.76,6.09,1.93,6.09,5.59,0,4.58-4.12,6.55-8.78,6.55-7.31,0-8.99-3.28-8.99-6.97Z"/><path class="cls-7" d="m343.58,1729v-19.95h2.94v19.95c0,9.41,4.07,10.63,8.86,10.63s8.78-1.01,8.78-10.63v-19.95h2.94v19.62c0,11.64-5.33,13.69-11.76,13.69s-11.76-2.06-11.76-13.36Z"/><path class="cls-7" d="m375.29,1720.8h2.6l.29,3.49c1.01-2.14,3.28-4.03,7.35-4.03,4.75,0,7.77,2.52,7.77,7.94v13.61h-2.94v-13.27c0-4.33-2.14-5.71-5.5-5.71-3.82,0-6.64,2.69-6.64,5.63v13.36h-2.94v-21Z"/><path class="cls-7" d="m400.02,1734.41v-13.61h2.94v13.27c0,4.33,2.14,5.71,5.42,5.71,3.74,0,6.55-2.69,6.55-5.63v-13.36h2.94v21h-2.6l-.25-3.36h-.08c-.97,2.02-3.23,3.91-7.23,3.91-4.66,0-7.69-2.52-7.69-7.94Z"/><path class="cls-7" d="m423.33,1735.38v-1.18h2.94v1.13c0,2.86,2.14,4.5,5.96,4.5s5.8-1.01,5.8-3.78c0-2.06-1.01-2.81-3.86-3.32l-4.62-.84c-3.02-.55-5.54-2.02-5.54-5.5,0-3.15,2.35-6.13,8.4-6.13s8.4,3.02,8.4,7.22v.88h-2.98v-.76c0-3.44-2.14-4.91-5.42-4.91-3.95,0-5.33,1.34-5.33,3.36s1.01,2.86,3.91,3.4l4.03.76c4.12.76,6.09,1.93,6.09,5.59,0,4.58-4.12,6.55-8.78,6.55-7.31,0-8.99-3.28-8.99-6.97Z"/><path class="cls-7" d="m446.56,1734.41v-13.61h2.94v13.27c0,4.33,2.14,5.71,5.42,5.71,3.74,0,6.55-2.69,6.55-5.63v-13.36h2.94v21h-2.6l-.25-3.36h-.08c-.97,2.02-3.23,3.91-7.23,3.91-4.66,0-7.69-2.52-7.69-7.94Z"/><path class="cls-7" d="m470.5,1736.01c0-3.95,2.23-6.09,7.86-6.09h6.34v-1.72c0-2.98-1.26-5.42-5.46-5.42-3.95,0-5.33,1.51-5.33,4.12v.88h-2.98v-.84c0-5,4.2-6.68,8.32-6.68,5.8,0,8.4,2.86,8.4,8.44v13.11h-2.06l-.55-2.98h-.08c-1.26,1.89-3.7,3.53-7.35,3.53-4.92,0-7.1-2.31-7.1-6.34Zm14.2-1.85v-1.76h-7.01c-2.65,0-4.03.92-4.03,3.61,0,2.35,1.26,3.86,4.5,3.86,4.16,0,6.55-2.14,6.55-5.71Z"/><path class="cls-7" d="m494.99,1709.04h2.94v32.77h-2.94v-32.77Z"/><path class="cls-7" d="m513.26,1731.35c0-7.1,4.28-11.09,10.04-11.09,3.7,0,6.22,1.6,7.31,3.74h.04v-14.95h2.94v32.77h-1.97l-.67-3.61h-.08c-1.18,2.31-3.95,4.16-7.77,4.16-6.3,0-9.83-3.99-9.83-11.01Zm17.64-.5c0-5.5-3.36-8.07-7.35-8.07-3.11,0-7.14,1.47-7.14,8.4s3.61,8.61,7.14,8.61c4.24,0,7.35-2.73,7.35-8.95Z"/><path class="cls-7" d="m558.2,1732.31h-15.96c.17,4.79,2.48,7.48,6.93,7.48,3.82,0,5.67-1.43,5.97-4.83h2.98c-.29,4.24-3.28,7.39-9.03,7.39-7.06,0-9.83-4.66-9.83-10.88s3.23-11.22,10-11.22,8.95,3.99,8.95,10.21v1.85Zm-3.11-2.98c0-4.45-1.72-6.55-5.92-6.55s-6.55,2.65-6.89,6.97h12.81v-.42Z"/><path class="cls-7" d="m562.19,1735.38v-1.18h2.94v1.13c0,2.86,2.14,4.5,5.96,4.5s5.8-1.01,5.8-3.78c0-2.06-1.01-2.81-3.86-3.32l-4.62-.84c-3.02-.55-5.54-2.02-5.54-5.5,0-3.15,2.35-6.13,8.4-6.13s8.4,3.02,8.4,7.22v.88h-2.98v-.76c0-3.44-2.14-4.91-5.42-4.91-3.95,0-5.33,1.34-5.33,3.36s1.01,2.86,3.91,3.4l4.03.76c4.12.76,6.09,1.93,6.09,5.59,0,4.58-4.12,6.55-8.78,6.55-7.31,0-8.99-3.28-8.99-6.97Z"/><path class="cls-7" d="m585.83,1709.04h2.98v6.51h-2.98v-6.51Zm0,11.76h2.94v21h-2.94v-21Z"/><path class="cls-7" d="m595.53,1743.61v-.13h3.11v.13c0,2.9,1.93,4.33,6.13,4.33,4.79,0,7.01-2.94,7.01-7.86v-2.1h-.08c-1.09,2.18-3.65,4.08-7.48,4.08-6.3,0-9.75-3.99-9.75-10.71,0-7.1,4.37-11.09,9.96-11.09,3.78,0,6.55,1.81,7.56,4.12h.13l.29-3.57h2.31v19.16c0,5.88-2.81,10.71-10.33,10.71-6.3,0-8.86-2.98-8.86-7.06Zm16.59-12.77c0-5.5-3.36-8.07-7.35-8.07-3.03,0-7.14,1.47-7.14,8.4s3.57,8.32,7.1,8.32c4.24,0,7.39-2.73,7.39-8.65Z"/><path class="cls-7" d="m622.08,1720.8h2.6l.29,3.49c1.01-2.14,3.28-4.03,7.35-4.03,4.75,0,7.77,2.52,7.77,7.94v13.61h-2.94v-13.27c0-4.33-2.14-5.71-5.5-5.71-3.82,0-6.64,2.69-6.64,5.63v13.36h-2.94v-21Z"/><path class="cls-7" d="m362.04,1780.15c0-6.22,3.32-11.05,10.38-11.05,6.59,0,10.25,4.83,10.25,11.05s-3.7,11.05-10.29,11.05c-7.27,0-10.33-4.83-10.33-11.05Zm17.56,0c0-5.33-2.9-8.49-7.22-8.49-4.75,0-7.27,3.15-7.27,8.49s2.56,8.49,7.27,8.49c4.33,0,7.22-3.15,7.22-8.49Z"/><path class="cls-7" d="m392.7,1764.61v5.04h5.92v2.44h-5.92v18.57h-2.94v-18.57h-4.16v-2.44h4.16v-5.42c0-5.29,3.15-6.89,6.38-6.89,1.85,0,2.98.29,3.74.55v2.6c-.71-.21-1.89-.46-3.49-.46-2.65,0-3.7,1.76-3.7,4.58Z"/><path class="cls-7" d="m414.58,1768.35h-3.36v-5.08c0-3.95.88-5.29,3.4-5.96l.67,1.85c-1.76.67-2.06,1.09-2.06,3.78v.34h1.34v5.08Zm5.92,0h-3.36v-5.08c0-3.95.88-5.29,3.4-5.96l.67,1.85c-1.76.67-2.06,1.09-2.06,3.78v.34h1.34v5.08Z"/><path class="cls-7" d="m425.62,1774.44c0-11.85,6.51-17.1,14.49-17.1,7.56,0,12.64,3.78,12.64,11.47v.5h-2.86v-.63c0-5.33-3.49-8.7-9.7-8.7-6.72,0-11.47,4.58-11.47,14.28s4.75,14.28,11.76,14.28c5.63,0,9.45-2.52,9.45-8.78v-2.73h-9.83v-2.6h12.64v16.21h-2.1l-.67-3.74c-1.6,2.48-5.17,4.28-9.75,4.28-8.32,0-14.62-4.87-14.62-16.76Z"/><path class="cls-7" d="m457.58,1767.09c1.76-.67,2.06-1.09,2.06-3.78v-.34h-1.34v-5.08h3.36v5.08c0,3.95-.88,5.29-3.4,5.96l-.67-1.85Zm5.92,0c1.76-.67,2.06-1.09,2.06-3.78v-.34h-1.34v-5.08h3.36v5.08c0,3.95-.88,5.29-3.4,5.96l-.67-1.85Z"/><path class="cls-7" d="m481.86,1784.86c0-3.95,2.23-6.09,7.86-6.09h6.34v-1.72c0-2.98-1.26-5.42-5.46-5.42-3.95,0-5.33,1.51-5.33,4.12v.88h-2.98v-.84c0-5,4.2-6.68,8.32-6.68,5.8,0,8.4,2.86,8.4,8.44v13.11h-2.06l-.55-2.98h-.08c-1.26,1.89-3.7,3.53-7.35,3.53-4.92,0-7.1-2.31-7.1-6.34Zm14.2-1.85v-1.76h-7.01c-2.65,0-4.03.92-4.03,3.61,0,2.35,1.26,3.87,4.5,3.87,4.16,0,6.55-2.14,6.55-5.71Z"/><path class="cls-7" d="m506.34,1769.65h2.6l.29,3.49c1.01-2.14,3.28-4.03,7.35-4.03,4.75,0,7.77,2.52,7.77,7.94v13.61h-2.94v-13.27c0-4.33-2.14-5.71-5.5-5.71-3.82,0-6.64,2.69-6.64,5.63v13.36h-2.94v-21Z"/><path class="cls-7" d="m530.03,1780.19c0-7.1,4.28-11.09,10.04-11.09,3.7,0,6.22,1.6,7.31,3.74h.04v-14.96h2.94v32.77h-1.97l-.67-3.61h-.08c-1.18,2.31-3.95,4.16-7.77,4.16-6.3,0-9.83-3.99-9.83-11.01Zm17.64-.5c0-5.5-3.36-8.07-7.35-8.07-3.11,0-7.14,1.47-7.14,8.4s3.61,8.61,7.14,8.61c4.24,0,7.35-2.73,7.35-8.95Z"/><path class="cls-7" d="m569.05,1768.35h-3.36v-5.08c0-3.95.88-5.29,3.4-5.96l.67,1.85c-1.76.67-2.06,1.09-2.06,3.78v.34h1.34v5.08Zm5.92,0h-3.36v-5.08c0-3.95.88-5.29,3.4-5.96l.67,1.85c-1.76.67-2.06,1.09-2.06,3.78v.34h1.34v5.08Z"/><path class="cls-7" d="m580.09,1774.61c0-12.01,6.76-17.26,14.74-17.26,6.97,0,12.39,3.74,12.39,12.01v.8h-2.86v-.92c0-5.92-3.78-9.24-9.45-9.24-6.72,0-11.76,4.58-11.76,14.32s5.04,14.24,11.72,14.24c5.38,0,9.54-2.86,9.54-9.2v-.59h2.77v.42c0,8.02-5.33,12.01-12.56,12.01-7.98,0-14.53-4.87-14.53-16.59Z"/><path class="cls-7" d="m610.8,1767.09c1.76-.67,2.06-1.09,2.06-3.78v-.34h-1.34v-5.08h3.36v5.08c0,3.95-.88,5.29-3.4,5.96l-.67-1.85Zm5.92,0c1.76-.67,2.06-1.09,2.06-3.78v-.34h-1.34v-5.08h3.36v5.08c0,3.95-.88,5.29-3.4,5.96l-.67-1.85Z"/><path class="cls-7" d="m670.8,3527.47h-11.51v-2.61h25.96v2.61h-11.51v30.16h-2.94v-30.16Z"/><path class="cls-7" d="m688.6,3524.87h2.98v6.51h-2.98v-6.51Zm0,11.76h2.94v21h-2.94v-21Z"/><path class="cls-7" d="m698.3,3559.44v-.13h3.11v.13c0,2.9,1.93,4.33,6.13,4.33,4.79,0,7.02-2.94,7.02-7.86v-2.1h-.08c-1.09,2.18-3.65,4.07-7.48,4.07-6.3,0-9.74-3.99-9.74-10.71,0-7.1,4.37-11.09,9.96-11.09,3.78,0,6.55,1.81,7.56,4.12h.13l.29-3.57h2.31v19.16c0,5.88-2.81,10.71-10.33,10.71-6.3,0-8.86-2.98-8.86-7.06Zm16.59-12.77c0-5.5-3.36-8.07-7.35-8.07-3.03,0-7.14,1.47-7.14,8.4s3.57,8.32,7.1,8.32c4.24,0,7.39-2.73,7.39-8.65Z"/><path class="cls-7" d="m724.85,3524.87h2.94v15.17c1.05-2.1,3.28-3.95,7.31-3.95,4.75,0,7.77,2.52,7.77,7.94v13.61h-2.94v-13.27c0-4.33-2.14-5.71-5.5-5.71-3.82,0-6.64,2.69-6.64,5.63v13.36h-2.94v-32.77Z"/><path class="cls-7" d="m761.18,3554.95v2.6c-.76.21-2.14.59-4.03.59-3.82,0-6.34-1.6-6.34-6.89v-12.18h-4.16v-2.44h4.16v-6.05l2.94-1.43v7.48h5.92v2.44h-5.92v11.8c0,2.81.76,4.58,3.4,4.58,1.6,0,3.23-.29,4.03-.5Z"/><path class="cls-7" d="m773.78,3551.21v-1.18h2.94v1.13c0,2.86,2.14,4.5,5.96,4.5s5.8-1.01,5.8-3.78c0-2.06-1.01-2.81-3.87-3.32l-4.62-.84c-3.02-.55-5.54-2.02-5.54-5.5,0-3.15,2.35-6.13,8.4-6.13s8.4,3.02,8.4,7.22v.88h-2.98v-.76c0-3.44-2.14-4.92-5.42-4.92-3.95,0-5.34,1.34-5.34,3.36s1.01,2.86,3.91,3.4l4.03.76c4.12.76,6.09,1.93,6.09,5.59,0,4.58-4.12,6.55-8.78,6.55-7.31,0-8.99-3.28-8.99-6.97Z"/><path class="cls-7" d="m797.42,3536.63h2.39l.34,3.87h.08c1.13-2.48,4.03-4.41,7.86-4.41,6.3,0,9.66,3.99,9.66,11.01s-4.29,11.09-9.87,11.09c-3.78,0-6.38-1.6-7.43-3.7h-.08v11.55h-2.94v-29.41Zm17.18,10.63c0-7.18-3.4-8.61-6.93-8.61-4.24,0-7.56,2.73-7.56,8.44,0,6.01,3.45,8.57,7.44,8.57,3.03,0,7.06-1.47,7.06-8.4Z"/><path class="cls-7" d="m822.16,3551.84c0-3.95,2.23-6.09,7.86-6.09h6.34v-1.72c0-2.98-1.26-5.42-5.46-5.42-3.95,0-5.34,1.51-5.34,4.12v.88h-2.98v-.84c0-5,4.2-6.68,8.32-6.68,5.8,0,8.4,2.86,8.4,8.44v13.11h-2.06l-.55-2.98h-.08c-1.26,1.89-3.7,3.53-7.35,3.53-4.91,0-7.1-2.31-7.1-6.34Zm14.2-1.85v-1.76h-7.02c-2.65,0-4.03.92-4.03,3.61,0,2.35,1.26,3.87,4.5,3.87,4.16,0,6.55-2.14,6.55-5.71Z"/><path class="cls-7" d="m844.97,3547.3c0-6.38,3.23-11.21,10-11.21s8.95,3.91,8.95,8.95v.42h-3.11v-.63c0-3.82-1.64-6.09-5.84-6.09-4.75,0-7.02,3.11-7.02,8.4,0,5.63,2.39,8.49,6.93,8.49,3.82,0,5.84-1.85,5.92-5.67h3.03c-.08,4.66-3.15,8.23-9.03,8.23-7.22,0-9.83-4.75-9.83-10.88Z"/><path class="cls-7" d="m869.79,3524.87h2.98v6.51h-2.98v-6.51Zm0,11.76h2.94v21h-2.94v-21Z"/><path class="cls-7" d="m880.12,3536.63h2.6l.29,3.49c1.01-2.14,3.28-4.03,7.35-4.03,4.75,0,7.77,2.52,7.77,7.94v13.61h-2.94v-13.27c0-4.33-2.14-5.71-5.5-5.71-3.82,0-6.64,2.69-6.64,5.63v13.36h-2.94v-21Z"/><path class="cls-7" d="m904.86,3559.44v-.13h3.11v.13c0,2.9,1.93,4.33,6.13,4.33,4.79,0,7.02-2.94,7.02-7.86v-2.1h-.08c-1.09,2.18-3.65,4.07-7.48,4.07-6.3,0-9.74-3.99-9.74-10.71,0-7.1,4.37-11.09,9.96-11.09,3.78,0,6.55,1.81,7.56,4.12h.13l.29-3.57h2.31v19.16c0,5.88-2.81,10.71-10.33,10.71-6.3,0-8.86-2.98-8.86-7.06Zm16.59-12.77c0-5.5-3.36-8.07-7.35-8.07-3.03,0-7.14,1.47-7.14,8.4s3.57,8.32,7.1,8.32c4.24,0,7.39-2.73,7.39-8.65Z"/><path class="cls-7" d="m941.06,3524.87h2.98v6.51h-2.98v-6.51Zm0,11.76h2.94v21h-2.94v-21Z"/><path class="cls-7" d="m951.39,3536.63h2.6l.29,3.49c1.01-2.14,3.28-4.03,7.35-4.03,4.75,0,7.77,2.52,7.77,7.94v13.61h-2.94v-13.27c0-4.33-2.14-5.71-5.5-5.71-3.82,0-6.64,2.69-6.64,5.63v13.36h-2.94v-21Z"/><path class="cls-7" d="m984.53,3551.21v-1.18h2.94v1.13c0,2.86,2.14,4.5,5.96,4.5s5.8-1.01,5.8-3.78c0-2.06-1.01-2.81-3.87-3.32l-4.62-.84c-3.02-.55-5.54-2.02-5.54-5.5,0-3.15,2.35-6.13,8.4-6.13s8.4,3.02,8.4,7.22v.88h-2.98v-.76c0-3.44-2.14-4.92-5.42-4.92-3.95,0-5.34,1.34-5.34,3.36s1.01,2.86,3.91,3.4l4.03.76c4.12.76,6.09,1.93,6.09,5.59,0,4.58-4.12,6.55-8.78,6.55-7.31,0-8.99-3.28-8.99-6.97Z"/><path class="cls-7" d="m1006.49,3547.13c0-6.22,3.32-11.05,10.38-11.05,6.6,0,10.25,4.83,10.25,11.05s-3.7,11.05-10.29,11.05c-7.27,0-10.33-4.83-10.33-11.05Zm17.56,0c0-5.33-2.9-8.48-7.22-8.48-4.75,0-7.27,3.15-7.27,8.48s2.56,8.49,7.27,8.49c4.33,0,7.22-3.15,7.22-8.49Z"/><path class="cls-7" d="m1063.7,3544.03v13.61h-2.94v-13.27c0-4.33-2.14-5.71-4.75-5.71-3.82,0-6.18,2.69-6.18,5.63v13.36h-2.94v-13.27c0-4.33-1.85-5.71-4.83-5.71-3.61,0-6.13,2.69-6.13,5.63v13.36h-2.94v-21h2.61l.29,3.49c1.01-2.02,3.07-4.03,6.93-4.03,2.94,0,5.38,1.39,6.43,4.28,1.22-2.39,3.57-4.28,7.14-4.28,4.29,0,7.31,2.52,7.31,7.94Z"/><path class="cls-7" d="m1088.31,3548.14h-15.96c.17,4.79,2.48,7.48,6.93,7.48,3.82,0,5.67-1.43,5.97-4.83h2.98c-.29,4.24-3.28,7.39-9.03,7.39-7.06,0-9.83-4.66-9.83-10.88s3.23-11.21,10-11.21,8.95,3.99,8.95,10.21v1.85Zm-3.11-2.98c0-4.45-1.72-6.55-5.92-6.55s-6.55,2.65-6.89,6.97h12.81v-.42Z"/><path class="cls-7" d="m1103.85,3524.87h2.94v32.77h-2.94v-32.77Z"/><path class="cls-7" d="m1131.4,3548.14h-15.96c.17,4.79,2.48,7.48,6.93,7.48,3.82,0,5.67-1.43,5.97-4.83h2.98c-.29,4.24-3.28,7.39-9.03,7.39-7.06,0-9.83-4.66-9.83-10.88s3.23-11.21,10-11.21,8.95,3.99,8.95,10.21v1.85Zm-3.11-2.98c0-4.45-1.72-6.55-5.92-6.55s-6.55,2.65-6.89,6.97h12.81v-.42Z"/><path class="cls-7" d="m1137.87,3551.25v-12.18h-4.16v-2.44h4.16v-6.05l2.94-1.43v7.48h11.85v-6.05l2.94-1.43v7.48h5.92v2.44h-5.92v11.8c0,2.81.76,4.58,3.4,4.58,1.6,0,3.23-.29,4.03-.5v2.6c-.76.21-2.14.59-4.03.59-3.82,0-6.34-1.6-6.34-6.89v-12.18h-11.85v11.8c0,2.81.76,4.58,3.4,4.58,1.6,0,3.23-.29,4.03-.5v2.6c-.76.21-2.14.59-4.03.59-3.82,0-6.34-1.6-6.34-6.89Z"/><path class="cls-7" d="m1184.49,3548.14h-15.96c.17,4.79,2.48,7.48,6.93,7.48,3.82,0,5.67-1.43,5.97-4.83h2.98c-.29,4.24-3.28,7.39-9.03,7.39-7.06,0-9.83-4.66-9.83-10.88s3.23-11.21,10-11.21,8.95,3.99,8.95,10.21v1.85Zm-3.11-2.98c0-4.45-1.72-6.55-5.92-6.55s-6.55,2.65-6.89,6.97h12.81v-.42Z"/><path class="cls-7" d="m1190.37,3536.63h2.61l.29,3.91c1.01-2.14,3.07-4.45,6.76-4.45,1.26,0,2.19.21,3.03.54v3.15c-1.13-.5-2.1-.76-3.4-.76-3.74,0-6.34,2.81-6.34,5.76v12.85h-2.94v-21Z"/><path class="cls-7" d="m1217.33,3536.63h2.39l.34,3.87h.08c1.13-2.48,4.03-4.41,7.86-4.41,6.3,0,9.66,3.99,9.66,11.01s-4.29,11.09-9.87,11.09c-3.78,0-6.38-1.6-7.43-3.7h-.08v11.55h-2.94v-29.41Zm17.18,10.63c0-7.18-3.4-8.61-6.93-8.61-4.24,0-7.56,2.73-7.56,8.44,0,6.01,3.45,8.57,7.44,8.57,3.03,0,7.06-1.47,7.06-8.4Z"/><path class="cls-7" d="m1242.07,3551.84c0-3.95,2.23-6.09,7.86-6.09h6.34v-1.72c0-2.98-1.26-5.42-5.46-5.42-3.95,0-5.33,1.51-5.33,4.12v.88h-2.98v-.84c0-5,4.2-6.68,8.32-6.68,5.8,0,8.4,2.86,8.4,8.44v13.11h-2.06l-.55-2.98h-.08c-1.26,1.89-3.7,3.53-7.35,3.53-4.92,0-7.1-2.31-7.1-6.34Zm14.2-1.85v-1.76h-7.01c-2.65,0-4.03.92-4.03,3.61,0,2.35,1.26,3.87,4.49,3.87,4.16,0,6.55-2.14,6.55-5.71Z"/><path class="cls-7" d="m1266.55,3524.87h2.98v6.51h-2.98v-6.51Zm0,11.76h2.94v21h-2.94v-21Z"/><path class="cls-7" d="m1276.89,3536.63h2.6l.29,3.91c1.01-2.14,3.07-4.45,6.76-4.45,1.26,0,2.18.21,3.02.54v3.15c-1.13-.5-2.1-.76-3.4-.76-3.74,0-6.34,2.81-6.34,5.76v12.85h-2.94v-21Z"/><path class="cls-7" d="m1292.09,3551.21v-1.18h2.94v1.13c0,2.86,2.14,4.5,5.96,4.5s5.8-1.01,5.8-3.78c0-2.06-1.01-2.81-3.87-3.32l-4.62-.84c-3.02-.55-5.54-2.02-5.54-5.5,0-3.15,2.35-6.13,8.4-6.13s8.4,3.02,8.4,7.22v.88h-2.98v-.76c0-3.44-2.14-4.92-5.42-4.92-3.95,0-5.34,1.34-5.34,3.36s1.01,2.86,3.91,3.4l4.03.76c4.12.76,6.09,1.93,6.09,5.59,0,4.58-4.12,6.55-8.78,6.55-7.31,0-8.99-3.28-8.99-6.97Z"/><line class="cls-2" x1="1131.57" y1="1505.22" x2="1232.14" y2="1505.22"/><polygon class="cls-9" points="1154.77 1533.85 1159.54 1528.72 1134.26 1505.23 1159.54 1481.73 1154.77 1476.6 1123.98 1505.23 1154.77 1533.85"/><polygon class="cls-9" points="1208.94 1533.85 1204.17 1528.72 1229.45 1505.23 1204.17 1481.73 1208.94 1476.6 1239.73 1505.23 1208.94 1533.85"/><line class="cls-4" x1="678.22" y1="583.58" x2="422.42" y2="818.2"/><line class="cls-4" x1="452.74" y1="1456.07" x2="452.74" y2="1694.23"/><line class="cls-4" x1="564.39" y1="1817.57" x2="564.39" y2="1954.99"/><line class="cls-3" x1="1290.29" y1="3028.42" x2="1336.83" y2="3074.95"/><line class="cls-3" x1="1290.29" y1="3048.42" x2="1336.83" y2="3094.95"/><line class="cls-3" x1="1290.29" y1="3068.42" x2="1325.53" y2="3103.66"/><line class="cls-3" x1="1290.29" y1="3088.42" x2="1323.47" y2="3121.6"/><line class="cls-3" x1="1290.29" y1="3108.42" x2="1320.83" y2="3138.95"/><line class="cls-3" x1="1283.99" y1="3122.11" x2="1310.73" y2="3148.86"/><line class="cls-3" x1="1280.83" y1="3138.95" x2="1336.83" y2="3194.95"/><line class="cls-3" x1="1276.66" y1="3154.79" x2="1334.9" y2="3213.02"/><line class="cls-3" x1="1272.68" y1="3170.81" x2="1314.9" y2="3213.02"/><line class="cls-3" x1="1310.29" y1="3028.42" x2="1347.11" y2="3065.23"/><line class="cls-3" x1="1330.29" y1="3028.42" x2="1359.65" y2="3057.77"/><line class="cls-3" x1="1350.29" y1="3028.42" x2="1372.19" y2="3050.32"/><line class="cls-3" x1="658.73" y1="3028.42" x2="705.26" y2="3074.95"/><line class="cls-3" x1="678.73" y1="3028.42" x2="709.91" y2="3059.6"/><line class="cls-3" x1="698.73" y1="3028.42" x2="721.09" y2="3050.78"/><line class="cls-3" x1="649.91" y1="3039.6" x2="692.6" y2="3082.29"/><line class="cls-3" x1="643.82" y1="3053.51" x2="687.3" y2="3096.99"/><line class="cls-3" x1="641.35" y1="3071.04" x2="682" y2="3111.68"/><line class="cls-3" x1="637.19" y1="3086.87" x2="677.09" y2="3126.78"/><line class="cls-3" x1="629.26" y1="3098.94" x2="675.56" y2="3145.25"/><line class="cls-3" x1="630.64" y1="3120.33" x2="673.47" y2="3163.16"/><line class="cls-3" x1="626.95" y1="3136.64" x2="703.38" y2="3213.07"/><line class="cls-3" x1="617.2" y1="3146.89" x2="683.38" y2="3213.07"/><line class="cls-3" x1="611.28" y1="3160.97" x2="663.38" y2="3213.07"/><line class="cls-3" x1="608.25" y1="3177.93" x2="643.38" y2="3213.07"/><line class="cls-3" x1="600.81" y1="3190.5" x2="623.38" y2="3213.07"/><path class="cls-7" d="m1292.94,895.78h3.11l10.29,29.49h.08l10.17-29.49h3.11l-11.59,32.77h-3.57l-11.59-32.77Z"/><path class="cls-7" d="m1323.05,895.78h2.98v6.51h-2.98v-6.51Zm0,11.76h2.94v21h-2.94v-21Z"/><path class="cls-7" d="m1331.5,922.12v-1.18h2.94v1.13c0,2.86,2.14,4.5,5.96,4.5s5.8-1.01,5.8-3.78c0-2.06-1.01-2.81-3.86-3.32l-4.62-.84c-3.02-.55-5.54-2.02-5.54-5.5,0-3.15,2.35-6.13,8.4-6.13s8.4,3.02,8.4,7.23v.88h-2.98v-.76c0-3.44-2.14-4.91-5.42-4.91-3.95,0-5.33,1.34-5.33,3.36s1.01,2.86,3.91,3.4l4.03.76c4.12.76,6.09,1.93,6.09,5.59,0,4.58-4.12,6.55-8.78,6.55-7.31,0-8.99-3.28-8.99-6.97Z"/><path class="cls-7" d="m1355.14,895.78h2.98v6.51h-2.98v-6.51Zm0,11.76h2.94v21h-2.94v-21Z"/><path class="cls-7" d="m1368.29,925.06h-.08l-.76,3.49h-1.97v-32.77h2.94v15.25h.04c1.26-2.31,4.07-4.03,7.69-4.03,6.3,0,9.66,3.99,9.66,11.01s-4.29,11.09-9.87,11.09c-3.78,0-6.55-1.64-7.65-4.03Zm14.37-6.89c0-7.18-3.4-8.61-6.93-8.61-4.24,0-7.56,2.73-7.56,8.44,0,6.01,3.45,8.57,7.44,8.57,3.02,0,7.06-1.47,7.06-8.4Z"/><path class="cls-7" d="m1391.05,895.78h2.94v32.77h-2.94v-32.77Z"/><path class="cls-7" d="m1418.61,919.06h-15.96c.17,4.79,2.48,7.48,6.93,7.48,3.82,0,5.67-1.43,5.97-4.83h2.98c-.29,4.24-3.28,7.39-9.03,7.39-7.06,0-9.83-4.66-9.83-10.88s3.23-11.22,10-11.22,8.95,3.99,8.95,10.21v1.85Zm-3.11-2.98c0-4.45-1.72-6.55-5.92-6.55s-6.55,2.65-6.89,6.97h12.81v-.42Z"/><path class="cls-7" d="m1432.46,918.22c0-6.38,3.23-11.22,10-11.22s8.95,3.91,8.95,8.95v.42h-3.11v-.63c0-3.82-1.64-6.09-5.84-6.09-4.75,0-7.01,3.11-7.01,8.4,0,5.63,2.39,8.49,6.93,8.49,3.82,0,5.84-1.85,5.92-5.67h3.02c-.08,4.66-3.15,8.23-9.03,8.23-7.22,0-9.83-4.75-9.83-10.88Z"/><path class="cls-7" d="m1455.6,918.05c0-6.22,3.32-11.05,10.38-11.05,6.59,0,10.25,4.83,10.25,11.05s-3.7,11.05-10.29,11.05c-7.27,0-10.33-4.83-10.33-11.05Zm17.56,0c0-5.33-2.9-8.49-7.22-8.49-4.75,0-7.27,3.15-7.27,8.49s2.56,8.49,7.27,8.49c4.33,0,7.22-3.15,7.22-8.49Z"/><path class="cls-7" d="m1482.11,907.55h2.6l.29,3.49c1.01-2.14,3.28-4.03,7.35-4.03,4.75,0,7.77,2.52,7.77,7.94v13.61h-2.94v-13.27c0-4.33-2.14-5.71-5.5-5.71-3.82,0-6.64,2.69-6.64,5.63v13.36h-2.94v-21Z"/><path class="cls-7" d="m1518.44,925.86v2.6c-.76.21-2.14.59-4.03.59-3.82,0-6.34-1.6-6.34-6.89v-12.18h-4.16v-2.44h4.16v-6.05l2.94-1.43v7.48h5.92v2.44h-5.92v11.8c0,2.81.76,4.58,3.4,4.58,1.6,0,3.23-.29,4.03-.5Z"/><path class="cls-7" d="m1523.26,907.55h2.6l.29,3.91c1.01-2.14,3.07-4.45,6.76-4.45,1.26,0,2.18.21,3.02.55v3.15c-1.13-.5-2.1-.76-3.4-.76-3.74,0-6.34,2.81-6.34,5.75v12.85h-2.94v-21Z"/><path class="cls-7" d="m1538.89,922.75c0-3.95,2.23-6.09,7.86-6.09h6.34v-1.72c0-2.98-1.26-5.42-5.46-5.42-3.95,0-5.33,1.51-5.33,4.12v.88h-2.98v-.84c0-5,4.2-6.68,8.32-6.68,5.8,0,8.4,2.86,8.4,8.44v13.11h-2.06l-.55-2.98h-.08c-1.26,1.89-3.7,3.53-7.35,3.53-4.92,0-7.1-2.31-7.1-6.34Zm14.2-1.85v-1.76h-7.01c-2.65,0-4.03.92-4.03,3.61,0,2.35,1.26,3.86,4.5,3.86,4.16,0,6.55-2.14,6.55-5.71Z"/><path class="cls-7" d="m1561.48,922.12v-1.18h2.94v1.13c0,2.86,2.14,4.5,5.96,4.5s5.8-1.01,5.8-3.78c0-2.06-1.01-2.81-3.86-3.32l-4.62-.84c-3.02-.55-5.54-2.02-5.54-5.5,0-3.15,2.35-6.13,8.4-6.13s8.4,3.02,8.4,7.23v.88h-2.98v-.76c0-3.44-2.14-4.91-5.42-4.91-3.95,0-5.33,1.34-5.33,3.36s1.01,2.86,3.91,3.4l4.03.76c4.12.76,6.09,1.93,6.09,5.59,0,4.58-4.12,6.55-8.78,6.55-7.31,0-8.99-3.28-8.99-6.97Z"/><path class="cls-7" d="m1596.09,925.86v2.6c-.76.21-2.14.59-4.03.59-3.82,0-6.34-1.6-6.34-6.89v-12.18h-4.16v-2.44h4.16v-6.05l2.94-1.43v7.48h5.92v2.44h-5.92v11.8c0,2.81.76,4.58,3.4,4.58,1.6,0,3.23-.29,4.03-.5Z"/><path class="cls-7" d="m1299.12,973.91h-.08l-.76,3.49h-1.97v-32.77h2.94v15.25h.04c1.26-2.31,4.07-4.03,7.69-4.03,6.3,0,9.66,3.99,9.66,11.01s-4.29,11.09-9.87,11.09c-3.78,0-6.55-1.64-7.65-4.03Zm14.37-6.89c0-7.18-3.4-8.61-6.93-8.61-4.24,0-7.56,2.73-7.56,8.44,0,6.01,3.45,8.57,7.44,8.57,3.02,0,7.06-1.47,7.06-8.4Z"/><path class="cls-7" d="m1339.77,967.9h-15.96c.17,4.79,2.48,7.48,6.93,7.48,3.82,0,5.67-1.43,5.97-4.83h2.98c-.29,4.24-3.28,7.39-9.03,7.39-7.06,0-9.83-4.66-9.83-10.88s3.23-11.22,10-11.22,8.95,3.99,8.95,10.21v1.85Zm-3.11-2.98c0-4.45-1.72-6.55-5.92-6.55s-6.55,2.65-6.89,6.97h12.81v-.42Z"/><path class="cls-7" d="m1356.61,974.71v2.6c-.76.21-2.14.59-4.03.59-3.82,0-6.34-1.6-6.34-6.89v-12.18h-4.16v-2.44h4.16v-6.05l2.94-1.43v7.48h5.92v2.44h-5.92v11.8c0,2.81.76,4.58,3.4,4.58,1.6,0,3.23-.29,4.03-.5Z"/><path class="cls-7" d="m1358.71,956.43v-.04h2.98l5.76,17.48h.08l6.3-17.48h2.69l6.17,17.48h.08l5.75-17.48h2.86v.04l-7.18,20.96h-3.02l-5.96-17.06h-.08l-6.22,17.06h-3.02l-7.18-20.96Z"/><path class="cls-7" d="m1412.64,967.9h-15.96c.17,4.79,2.48,7.48,6.93,7.48,3.82,0,5.67-1.43,5.97-4.83h2.98c-.29,4.24-3.28,7.39-9.03,7.39-7.06,0-9.83-4.66-9.83-10.88s3.23-11.22,10-11.22,8.95,3.99,8.95,10.21v1.85Zm-3.11-2.98c0-4.45-1.72-6.55-5.92-6.55s-6.55,2.65-6.89,6.97h12.81v-.42Z"/><path class="cls-7" d="m1435.79,967.9h-15.96c.17,4.79,2.48,7.48,6.93,7.48,3.82,0,5.67-1.43,5.97-4.83h2.98c-.29,4.24-3.28,7.39-9.03,7.39-7.06,0-9.83-4.66-9.83-10.88s3.23-11.22,10-11.22,8.95,3.99,8.95,10.21v1.85Zm-3.11-2.98c0-4.45-1.72-6.55-5.92-6.55s-6.55,2.65-6.89,6.97h12.81v-.42Z"/><path class="cls-7" d="m1441.66,956.39h2.6l.29,3.49c1.01-2.14,3.28-4.03,7.35-4.03,4.75,0,7.77,2.52,7.77,7.94v13.61h-2.94v-13.27c0-4.33-2.14-5.71-5.5-5.71-3.82,0-6.64,2.69-6.64,5.63v13.36h-2.94v-21Z"/><path class="cls-7" d="m1487.65,974.71v2.6c-.76.21-2.14.59-4.03.59-3.82,0-6.34-1.6-6.34-6.89v-12.18h-4.16v-2.44h4.16v-6.05l2.94-1.43v7.48h5.92v2.44h-5.92v11.8c0,2.81.76,4.58,3.4,4.58,1.6,0,3.23-.29,4.03-.5Z"/><path class="cls-7" d="m1492.48,944.63h2.94v15.16c1.05-2.1,3.28-3.95,7.31-3.95,4.75,0,7.77,2.52,7.77,7.94v13.61h-2.94v-13.27c0-4.33-2.14-5.71-5.5-5.71-3.82,0-6.64,2.69-6.64,5.63v13.36h-2.94v-32.77Z"/><path class="cls-7" d="m1517.85,944.63h2.98v6.51h-2.98v-6.51Zm0,11.76h2.94v21h-2.94v-21Z"/><path class="cls-7" d="m1526.5,967.06c0-6.38,3.23-11.22,10-11.22s8.95,3.91,8.95,8.95v.42h-3.11v-.63c0-3.82-1.64-6.09-5.84-6.09-4.75,0-7.02,3.11-7.02,8.4,0,5.63,2.39,8.49,6.93,8.49,3.82,0,5.84-1.85,5.92-5.67h3.02c-.08,4.66-3.15,8.23-9.03,8.23-7.22,0-9.83-4.75-9.83-10.88Z"/><path class="cls-7" d="m1550.69,944.63h2.94v23.23l12.14-11.47h3.65v.04l-8.4,7.86,8.78,13.06v.04h-3.36l-7.39-11.22-5.42,5.04v6.18h-2.94v-32.77Z"/><path class="cls-7" d="m1572.95,970.97v-1.18h2.94v1.13c0,2.86,2.14,4.5,5.96,4.5s5.8-1.01,5.8-3.78c0-2.06-1.01-2.81-3.86-3.32l-4.62-.84c-3.02-.55-5.54-2.02-5.54-5.5,0-3.15,2.35-6.13,8.4-6.13s8.4,3.02,8.4,7.23v.88h-2.98v-.76c0-3.44-2.14-4.91-5.42-4.91-3.95,0-5.33,1.34-5.33,3.36s1.01,2.86,3.91,3.4l4.03.76c4.12.76,6.09,1.93,6.09,5.59,0,4.58-4.12,6.55-8.78,6.55-7.31,0-8.99-3.28-8.99-6.97Z"/><path class="cls-7" d="m1605,971.6c0-3.95,2.23-6.09,7.86-6.09h6.34v-1.72c0-2.98-1.26-5.42-5.46-5.42-3.95,0-5.33,1.51-5.33,4.12v.88h-2.98v-.84c0-5,4.2-6.68,8.32-6.68,5.8,0,8.4,2.86,8.4,8.44v13.11h-2.06l-.55-2.98h-.08c-1.26,1.89-3.7,3.53-7.35,3.53-4.92,0-7.1-2.31-7.1-6.34Zm14.2-1.85v-1.76h-7.01c-2.65,0-4.03.92-4.03,3.61,0,2.35,1.26,3.86,4.5,3.86,4.16,0,6.55-2.14,6.55-5.71Z"/><path class="cls-7" d="m1629.48,956.39h2.6l.29,3.49c1.01-2.14,3.28-4.03,7.35-4.03,4.75,0,7.77,2.52,7.77,7.94v13.61h-2.94v-13.27c0-4.33-2.14-5.71-5.5-5.71-3.82,0-6.64,2.69-6.64,5.63v13.36h-2.94v-21Z"/><path class="cls-7" d="m1653.17,966.94c0-7.1,4.28-11.09,10.04-11.09,3.7,0,6.22,1.6,7.31,3.74h.04v-14.95h2.94v32.77h-1.97l-.67-3.61h-.08c-1.18,2.31-3.95,4.16-7.77,4.16-6.3,0-9.83-3.99-9.83-11.01Zm17.64-.5c0-5.5-3.36-8.07-7.35-8.07-3.11,0-7.14,1.47-7.14,8.4s3.61,8.61,7.14,8.61c4.24,0,7.35-2.73,7.35-8.95Z"/><path class="cls-7" d="m1701.47,974.71v2.6c-.76.21-2.14.59-4.03.59-3.82,0-6.34-1.6-6.34-6.89v-12.18h-4.16v-2.44h4.16v-6.05l2.94-1.43v7.48h5.92v2.44h-5.92v11.8c0,2.81.76,4.58,3.4,4.58,1.6,0,3.23-.29,4.03-.5Z"/><path class="cls-7" d="m1706.3,944.63h2.94v15.16c1.05-2.1,3.28-3.95,7.31-3.95,4.75,0,7.77,2.52,7.77,7.94v13.61h-2.94v-13.27c0-4.33-2.14-5.71-5.5-5.71-3.82,0-6.64,2.69-6.64,5.63v13.36h-2.94v-32.77Z"/><path class="cls-7" d="m1731.67,944.63h2.98v6.51h-2.98v-6.51Zm0,11.76h2.94v21h-2.94v-21Z"/><path class="cls-7" d="m1742,956.39h2.6l.29,3.49c1.01-2.14,3.28-4.03,7.35-4.03,4.75,0,7.77,2.52,7.77,7.94v13.61h-2.94v-13.27c0-4.33-2.14-5.71-5.5-5.71-3.82,0-6.64,2.69-6.64,5.63v13.36h-2.94v-21Z"/><path class="cls-7" d="m1765.47,970.97v-1.18h2.94v1.13c0,2.86,2.14,4.5,5.96,4.5s5.8-1.01,5.8-3.78c0-2.06-1.01-2.81-3.86-3.32l-4.62-.84c-3.02-.55-5.54-2.02-5.54-5.5,0-3.15,2.35-6.13,8.4-6.13s8.4,3.02,8.4,7.23v.88h-2.98v-.76c0-3.44-2.14-4.91-5.42-4.91-3.95,0-5.33,1.34-5.33,3.36s1.01,2.86,3.91,3.4l4.03.76c4.12.76,6.09,1.93,6.09,5.59,0,4.58-4.12,6.55-8.78,6.55-7.31,0-8.99-3.28-8.99-6.97Z"/><line class="cls-4" x1="1516.14" y1="1002.67" x2="1516.14" y2="1228.23"/><polyline class="cls-4" points="1582.57 1357.98 1627.19 1357.98 1627.19 1150.78 1529.14 1150.78"/></g><g id="palabras"><circle class="cls-8" cx="1543.77" cy="1357.98" r="28.8"/><path class="cls-7" d="m663.3,1277.57l-116.61,141.21h-12.3l116.61-141.21h12.3Z"/><path class="cls-7" d="m722.2,1088.34c1.26-.16,2.52-.24,3.79-.24,17.18,0,28.23,5.13,33.11,15.37,3.15,5.68,4.73,12.46,4.73,20.34v.47c0,3.94-1.5,8.04-4.49,12.3-48.88,77.27-78.45,122.21-88.7,134.83,14.67-10.25,32.01-15.37,52.04-15.37,6.94,0,14.27.63,22,1.89,4.26.79,8.36,2.52,12.3,5.2,3.94,2.69,6.3,8.83,7.09,18.45v1.42c0,2.21-.32,4.81-.95,7.81l-22.23,118.27-1.42,6.39c-.16,1.42-.24,2.68-.24,3.78,0,3,.47,5.05,1.42,6.15.47.16,1.02.24,1.66.24,2.68,0,6.07-2.28,10.17-6.86h12.3c-10.88,12.93-20.81,19.55-29.8,19.87l-1.89-.24c-5.84-1.1-9.62-3.86-11.35-8.28-.95-2.84-1.42-6.15-1.42-9.93,0-1.42.08-2.84.24-4.26l1.65-9.23,19.87-120.87c-.95-10.41-9.15-15.61-24.6-15.61h-4.26c-18.29,1.11-32.01,6-41.16,14.67l-8.28,11.12-30.51,142.63h-19.4l30.75-152.09,6.62-28.62,28.86-129.38c5.04-14.5,10.8-24.56,17.27-30.16,6.46-5.6,14.74-8.95,24.83-10.05Zm17.98,16.32c-4.26-1.42-8.44-2.13-12.54-2.13-4.89,0-9.62,1.03-14.19,3.07-4.89,3.47-9.58,11.51-14.07,24.13-4.49,12.62-14.63,53.62-30.39,123l79.47-119.68c1.26-3.15,1.89-5.91,1.89-8.28.16-.95.24-1.89.24-2.84,0-7.1-3.47-12.85-10.41-17.27Z"/><path class="cls-8" d="m881.38,1277.57l-116.61,141.21h-12.3l116.61-141.21h12.3Z"/><path class="cls-7" d="m901.49,1277.57l-28.15,161.08h-18.69l26.49-161.08h-12.06l13.48-19.87h19.87l11.12,19.87h-12.06Z"/><path class="cls-7" d="m913.55,1277.57c10.09,16.72,25.46,25.86,46.12,27.44,1.1,0,2.37-.08,3.79-.24,19.87-1.73,35.08-10.8,45.65-27.2h12.06c-14.04,23.18-32.64,35.56-55.82,37.13-2.68.16-5.2.24-7.57.24-27.75-2.21-46.52-14.67-56.29-37.37h12.06Z"/><path class="cls-7" d="m1077.47,1270c7.57,8.68,12.61,21.29,15.14,37.85.79,5.2,1.18,10.64,1.18,16.32,0,13.09-1.97,27.83-5.91,44.23-5.84,23.65-18.61,43.92-38.32,60.79l-3.78,2.84c-2.37,1.1-4.26,2.05-5.68,2.84-8.04,3.16-15.46,4.73-22.23,4.73-18.13,0-31.69-11.27-40.68-33.82-.95-2.52-1.57-5.28-1.89-8.28-1.1-4.57-1.66-9.46-1.66-14.67s.4-12.1,1.18-21.17c.79-9.06,2.72-18.29,5.8-27.67,3.07-9.38,6.94-19.16,11.59-29.33,4.65-10.17,9.54-18.37,14.66-24.6,5.13-6.23,10.56-11.55,16.32-15.97,5.75-4.41,12.65-7.17,20.7-8.28,2.21-.31,4.26-.47,6.15-.47,5.2,0,9.62,1.03,13.25,3.08,5.04,2.84,9.77,6.7,14.19,11.59Zm-20.34,1.66c-3-1.1-5.76-1.66-8.28-1.66s-4.73.47-6.62,1.42c-4.26,2.05-9.93,7.09-17.03,15.14-7.1,8.04-15.22,24.44-24.36,49.2-5.99,18.61-8.99,34.85-8.99,48.72v3.08c1.1,26.49,10.73,39.74,28.86,39.74,5.2,0,11.19-1.1,17.98-3.31,14.82-11.51,25.31-25.58,31.46-42.22,6.15-16.64,9.54-29.68,10.17-39.15.47-6.94.71-13.01.71-18.21v-5.44c-.32-6.3-1.18-12.69-2.6-19.16-1.42-6.46-3.9-12.26-7.45-17.39-3.55-5.12-8.16-8.71-13.84-10.76Z"/><path class="cls-7" d="m1082.67,1277.57c10.09,16.72,25.46,25.86,46.12,27.44,1.1,0,2.37-.08,3.79-.24,19.87-1.73,35.08-10.8,45.65-27.2h12.06c-14.04,23.18-32.64,35.56-55.82,37.13-2.68.16-5.2.24-7.57.24-27.75-2.21-46.52-14.67-56.29-37.37h12.06Z"/><path class="cls-7" d="m1251.79,1277.57c10.09,16.72,25.46,25.86,46.12,27.44,1.1,0,2.37-.08,3.79-.24,19.87-1.73,35.08-10.8,45.65-27.2h12.06c-14.04,23.18-32.64,35.56-55.82,37.13-2.68.16-5.2.24-7.57.24-27.75-2.21-46.52-14.67-56.29-37.37h12.06Z"/><path class="cls-7" d="m1402.94,1260.06c5.68-1.57,11.9-2.37,18.69-2.37,3.79,0,7.65.24,11.59.71,11.51,1.26,22.23,10.25,32.17,26.96,5.04-19.08,21.13-28.62,48.26-28.62h1.89c28.22.47,44.23,13.4,48.02,38.79l.23,10.41-21.29,114.01v.95c0,5.36,1.97,8.04,5.91,8.04.63,0,1.34-.08,2.13-.24,5.52-.95,10.88-4.26,16.08-9.93h12.3c-7.57,11.04-14.75,17.82-21.53,20.34-2.36.63-5.28.95-8.75.95-1.74,0-3.63-.08-5.68-.24-12.77-.47-19.16-7.72-19.16-21.76v-2.13c13.56-70.96,20.42-110.38,20.58-118.27-.32-16.08-7.17-25.07-20.58-26.97-4.58-.47-8.68-.71-12.3-.71-7.73,0-14.04,1.18-18.92,3.55-7.25,3.78-12.46,11.51-15.61,23.18l-32.17,142.16h-17.98l25.55-138.37c0-18.76-9.15-29.25-27.44-31.46-1.89-.16-3.79-.24-5.68-.24-15.3,0-26.57,8.36-33.82,25.07l-33.35,144.76-19.63-.24,32.64-143.81c2.84-9.46,4.26-15.85,4.26-19.16,0-1.73-1.03-2.68-3.07-2.84-2.21.32-4.42,1.97-6.62,4.97h-12.3c9.62-11.83,15.69-17.98,18.21-18.45h1.89c9.14,0,14.03,5.6,14.67,16.79,5.04-8.2,11.98-13.48,20.81-15.85Z"/><path class="cls-8" d="m502.46,1090.71c2.68-.95,6.07-1.42,10.17-1.42h4.26c6.15.47,11.2,2.21,15.14,5.2,3.94,3,6.7,7.02,8.28,12.06,1.26,4.73,1.89,9.54,1.89,14.43v1.42c-.16,5.52-1.34,10.73-3.55,15.61-2.21,4.89-6.07,11.59-11.59,20.11-25.23,29.17-52.35,60.71-81.37,94.61-.63,4.73-2.8,13.76-6.5,27.08-3.71,13.33-6.47,23.89-8.28,31.7-1.82,7.81-4.3,20.3-7.45,37.49-1.58,8.36-2.37,15.93-2.37,22.71s.95,13.25,2.84,18.45c3.31,10.25,7.45,17.86,12.42,22.82,4.97,4.97,13.76,8.48,26.37,10.53,7.72,1.26,15.06,1.89,22,1.89,4.41,0,8.67-.24,12.77-.71,10.56-1.26,20.5-4.1,29.8-8.51,9.3-4.41,17.98-15.53,26.02-33.35,4.57-14.03,6.86-26.49,6.86-37.37,0-6.62-.87-12.69-2.6-18.21-2.21-12.3-6.15-21.72-11.83-28.26-5.68-6.54-15.06-12.97-28.15-19.28-4.26-2.05-8.75-3.07-13.48-3.07-10.41,0-22.39,4.81-35.95,14.43l-4.97-4.97c1.89-2.05,4.1-4.18,6.62-6.39,2.52-2.21,6.86-5.36,13.01-9.46,4.89-3.15,11.04-4.73,18.45-4.73,2.05,0,4.18.16,6.39.47,10.41,1.1,21.84,5.28,34.3,12.53,12.46,7.26,20.85,16.17,25.19,26.73,4.34,10.57,6.66,21.92,6.98,34.06v5.68c0,9.93-.71,18.84-2.13,26.73-1.74,9.46-5.28,19.51-10.64,30.16-5.36,10.64-12.89,18.89-22.59,24.72-9.7,5.84-19.67,9.54-29.92,11.12-6.94,1.11-14.9,1.66-23.89,1.66-4.42,0-9.15-.16-14.19-.47-13.88-.16-25.19-1.93-33.94-5.32-8.75-3.39-17.38-10.76-25.9-22.12-6.62-15.61-9.93-28.07-9.93-37.37v-2.84c.79-9.62,2.28-20.18,4.49-31.69,2.21-11.51,5.91-28.3,11.12-50.38l-116.14,152.09h-11.59l139.55-185.2c7.57-32.01,20.81-76.01,39.74-131.99,3.47-9.3,7.37-16,11.71-20.11,4.33-4.1,8.28-7.02,11.83-8.75,3.55-1.73,7.13-3.23,10.76-4.49Zm-15.14,32.4l-35.24,105.26,23.65-26.25c31.54-34.22,49.75-57.72,54.64-70.49,1.1-5.04,1.65-9.38,1.65-13.01,0-11.04-4.65-16.56-13.95-16.56-1.58,0-3.23.16-4.97.47-11.35,2.37-19.95,9.23-25.78,20.58Z"/><path class="cls-8" d="m1246.59,1270c7.57,8.68,12.61,21.29,15.14,37.85.79,5.2,1.18,10.64,1.18,16.32,0,13.09-1.97,27.83-5.91,44.23-5.84,23.65-18.61,43.92-38.32,60.79l-3.78,2.84c-2.37,1.1-4.26,2.05-5.68,2.84-8.04,3.16-15.46,4.73-22.23,4.73-18.13,0-31.69-11.27-40.68-33.82-.95-2.52-1.57-5.28-1.89-8.28-1.1-4.57-1.66-9.46-1.66-14.67s.4-12.1,1.18-21.17c.79-9.06,2.72-18.29,5.8-27.67,3.07-9.38,6.94-19.16,11.59-29.33,4.65-10.17,9.54-18.37,14.66-24.6,5.13-6.23,10.56-11.55,16.32-15.97,5.75-4.41,12.65-7.17,20.7-8.28,2.21-.31,4.26-.47,6.15-.47,5.2,0,9.62,1.03,13.25,3.08,5.04,2.84,9.77,6.7,14.19,11.59Zm-20.34,1.66c-3-1.1-5.76-1.66-8.28-1.66s-4.73.47-6.62,1.42c-4.26,2.05-9.93,7.09-17.03,15.14-7.1,8.04-15.22,24.44-24.36,49.2-5.99,18.61-8.99,34.85-8.99,48.72v3.08c1.1,26.49,10.73,39.74,28.86,39.74,5.2,0,11.19-1.1,17.98-3.31,14.82-11.51,25.31-25.58,31.46-42.22,6.15-16.64,9.54-29.68,10.17-39.15.47-6.94.71-13.01.71-18.21v-5.44c-.32-6.3-1.18-12.69-2.6-19.16-1.42-6.46-3.9-12.26-7.45-17.39-3.55-5.12-8.16-8.71-13.84-10.76Z"/><path class="cls-7" d="m443.16,206.81h19.39l-30.99,171.96c13.4-2.68,26.65-9.62,39.74-20.81l3.07,7.33c-14.67,11.99-29.33,19.71-44,23.18l-24.36,133.17c-4.42,15.3-11.35,25.55-20.81,30.75-9.15,5.05-19.79,7.57-31.93,7.57h-2.13c-13.09-.31-25.55-5.24-37.37-14.78-11.83-9.54-20.26-27.4-25.31-53.58h10.88c1.58,19.24,8.75,34.22,21.52,44.94,9.78,8.51,19.32,12.77,28.62,12.77,2.84,0,5.6-.39,8.28-1.18,11.98-3.15,21.68-11.04,29.09-23.65l24.6-133.88c-2.05.16-4.1.24-6.15.24-35.33,0-55.11-18.6-59.37-55.82v-2.13c0-1.89.16-4.02.47-6.39.31-3.31.87-7.37,1.66-12.18.79-4.81,2.17-10.21,4.14-16.2,1.97-5.99,4.49-11.63,7.57-16.91,3.07-5.28,6.54-10.05,10.41-14.31,3.86-4.26,8.71-9.06,14.55-14.43,5.83-5.36,11.12-9.74,15.85-13.13,4.73-3.39,9.23-6.9,13.48-10.52,4.26-3.63,13.96-10.96,29.09-22Zm.24,12.3c-14.98,10.73-24.72,17.86-29.21,21.41-4.49,3.55-11.12,8.83-19.87,15.85-8.75,7.02-16.83,15.65-24.24,25.9-7.41,10.25-11.91,24.29-13.48,42.1-.16,2.37-.24,4.73-.24,7.09,0,14.67,4.34,26.89,13.01,36.66,8.04,9.31,19.32,13.95,33.82,13.95,3.15,0,6.46-.24,9.93-.71l30.28-162.26Z"/><path class="cls-7" d="m517.2,395.33l-116.61,141.21h-12.3l116.61-141.21h12.3Z"/><path class="cls-7" d="m521.45,379.72c1.1-.31,2.44-.47,4.02-.47,1.42,0,2.99.24,4.73.71,6.31,2.37,10.09,5.91,11.35,10.64,3.94-6.3,11.51-10.56,22.71-12.77,8.04-1.42,15.61-2.13,22.71-2.13,2.68,0,5.28.08,7.81.24,9.14.79,17.9,4.57,26.26,11.35,7.57,6.15,11.35,16.24,11.35,30.28,0,1.58-.08,3.23-.24,4.97l-21.29,114.72c.31,6.15,2.68,9.31,7.09,9.46h1.66c5.68,0,11.51-3.39,17.5-10.17h12.3c-5.84,8.04-12.62,14.11-20.34,18.21-2.84,1.74-7.65,2.68-14.43,2.84-5.2-.47-9.7-1.73-13.48-3.79-4.89-1.89-7.33-6.94-7.33-15.14v-2.6c0-5.2,6.94-44.62,20.81-118.27-.32-12.46-8.83-21.21-25.55-26.25-4.58-.95-8.99-1.42-13.25-1.42-8.83,0-16.87,2.05-24.13,6.15-3.63,3.79-6.78,8.83-9.46,15.14-.47,3.79-11.12,52.67-31.93,146.65h-19.87l34.3-150.67,3.08-13.01v-.95c0-1.42-.71-2.44-2.13-3.07-.47-.16-.87-.24-1.18-.24-2.52,0-4.97,1.74-7.33,5.2h-12.3c8.2-10.09,13.72-15.29,16.56-15.61Z"/><path class="cls-7" d="m766.03,395.33l-116.61,141.21h-12.3l116.61-141.21h12.3Z"/><path class="cls-7" d="m797.25,536.54l-21.29,21.29,21.53-21.29h12.3l-30.04,32.17c1.1,3.16,1.81,6.23,2.13,9.23,2.68,11.51,4.02,22.94,4.02,34.3,0,34.53-12.7,67.49-38.08,98.87-19.39,19.55-35.72,29.49-48.96,29.8h-3.07c-11.67,0-19.71-1.66-24.13-4.97-5.04-3.47-8.91-8.16-11.59-14.08-2.68-5.91-4.18-11.95-4.49-18.1v-1.42c0-5.84,1.81-12.22,5.44-19.16l101.24-116.14c-6.78,1.58-13.64,2.92-20.58,4.02-.95.16-1.97.24-3.07.24-6.31,0-13.96-2.99-22.94-8.99-9.93-6.46-14.9-15.92-14.9-28.38v-2.37c6.78-10.25,14.98-15.37,24.6-15.37,1.58,0,3.16.08,4.73.24,11.67,2.05,19.91,5.68,24.72,10.88,4.81,5.2,7.84,8.48,9.11,9.82,1.26,1.34,3.39,4.38,6.39,9.11,16.87-16.4,29.09-34.69,36.66-54.88,6.46-17.34,9.7-38.08,9.7-62.21,0-4.1-.08-8.28-.24-12.54-1.42-11.83-5.05-20.34-10.88-25.55-4.42-3.62-8.99-5.6-13.72-5.91h-4.49c-8.04.79-14.75,4.18-20.11,10.17h-12.3c8.99-13.56,21.37-20.73,37.13-21.52h.95c7.57.47,13.64,1.97,18.21,4.49,4.57,2.52,9.11,7.3,13.6,14.31,4.49,7.02,6.9,16.99,7.21,29.92.16,3.31.24,6.54.24,9.7,0,9.62-.4,19.08-1.18,28.38-1.74,8.36-3.55,15.85-5.44,22.47-13.25,29.8-22.71,47.62-28.38,53.46Zm-124.89,150.2c-3.31,6.46-4.97,12.38-4.97,17.74,0,3.79.79,7.25,2.37,10.41,3.79,7.88,9.38,12.06,16.79,12.54,1.89.16,3.71.23,5.44.23,4.57,0,8.04-.47,10.41-1.42,3.31-1.26,8.72-4.49,16.2-9.7,7.49-5.2,15.26-13.57,23.3-25.07,8.04-11.51,15.22-25.86,21.52-43.05,4.73-13.09,7.1-25.78,7.1-38.08,0-3.79-.24-7.49-.71-11.12l-2.84-19.16-94.61,106.68Zm39.03-148.31c0,3.31,1.82,7.25,5.44,11.83,5.52,7.1,12.15,10.64,19.87,10.64,3.31,0,7.02-.24,11.12-.71,6.47-1.42,9.7-4.57,9.7-9.46v-1.65c0-3.47-2.44-7.57-7.33-12.3-7.41-6.94-14.58-10.41-21.52-10.41-3.15,0-6.23.63-9.23,1.89-5.36,2.52-8.04,5.91-8.04,10.17Z"/><path class="cls-7" d="m926.4,395.33l-116.61,141.21h-12.3l116.61-141.21h12.3Z"/><path class="cls-7" d="m982.45,387.76c7.57,8.68,12.61,21.29,15.14,37.85.79,5.2,1.18,10.64,1.18,16.32,0,13.09-1.97,27.83-5.91,44.23-5.84,23.65-18.61,43.92-38.32,60.79l-3.78,2.84c-2.37,1.1-4.26,2.05-5.68,2.84-8.04,3.16-15.46,4.73-22.23,4.73-18.13,0-31.69-11.27-40.68-33.82-.95-2.52-1.57-5.28-1.89-8.28-1.1-4.57-1.66-9.46-1.66-14.67s.4-12.1,1.18-21.17c.79-9.06,2.72-18.29,5.8-27.67,3.07-9.38,6.94-19.16,11.59-29.33,4.65-10.17,9.54-18.37,14.66-24.6,5.13-6.23,10.56-11.55,16.32-15.97,5.75-4.41,12.65-7.17,20.7-8.28,2.21-.31,4.26-.47,6.15-.47,5.2,0,9.62,1.03,13.25,3.08,5.04,2.84,9.77,6.7,14.19,11.59Zm-20.34,1.66c-3-1.1-5.76-1.66-8.28-1.66s-4.73.47-6.62,1.42c-4.26,2.05-9.93,7.09-17.03,15.14-7.1,8.04-15.22,24.44-24.36,49.2-5.99,18.61-8.99,34.85-8.99,48.72v3.08c1.1,26.49,10.73,39.74,28.86,39.74,5.2,0,11.19-1.1,17.98-3.31,14.82-11.51,25.31-25.58,31.46-42.22,6.15-16.64,9.54-29.68,10.17-39.15.47-6.94.71-13.01.71-18.21v-5.44c-.32-6.3-1.18-12.69-2.6-19.16-1.42-6.46-3.9-12.26-7.45-17.39-3.55-5.12-8.16-8.71-13.84-10.76Z"/><path class="cls-7" d="m987.66,395.33c10.09,16.72,25.46,25.86,46.12,27.44,1.1,0,2.37-.08,3.79-.24,19.87-1.73,35.08-10.8,45.65-27.2h12.06c-14.04,23.18-32.64,35.56-55.82,37.13-2.68.16-5.2.24-7.57.24-27.75-2.21-46.52-14.67-56.29-37.37h12.06Z"/><path class="cls-7" d="m1099.78,379.72c1.1-.31,2.44-.47,4.02-.47,1.42,0,2.99.24,4.73.71,6.31,2.37,10.09,5.91,11.35,10.64,3.94-6.3,11.51-10.56,22.71-12.77,8.04-1.42,15.61-2.13,22.71-2.13,2.68,0,5.28.08,7.81.24,9.14.79,17.9,4.57,26.26,11.35,7.57,6.15,11.35,16.24,11.35,30.28,0,1.58-.08,3.23-.24,4.97l-21.29,114.72c.31,6.15,2.68,9.31,7.09,9.46h1.66c5.68,0,11.51-3.39,17.5-10.17h12.3c-5.84,8.04-12.62,14.11-20.34,18.21-2.84,1.74-7.65,2.68-14.43,2.84-5.2-.47-9.7-1.73-13.48-3.79-4.89-1.89-7.33-6.94-7.33-15.14v-2.6c0-5.2,6.94-44.62,20.81-118.27-.32-12.46-8.83-21.21-25.55-26.25-4.58-.95-8.99-1.42-13.25-1.42-8.83,0-16.87,2.05-24.13,6.15-3.63,3.79-6.78,8.83-9.46,15.14-.47,3.79-11.12,52.67-31.93,146.65h-19.87l34.3-150.67,3.08-13.01v-.95c0-1.42-.71-2.44-2.13-3.07-.47-.16-.87-.24-1.18-.24-2.52,0-4.97,1.74-7.33,5.2h-12.3c8.2-10.09,13.72-15.29,16.56-15.61Z"/><path class="cls-7" d="m1344.35,395.33l-116.61,141.21h-12.3l116.61-141.21h12.3Z"/><path class="cls-7" d="m1462.14,205.63h17.74l-76.16,317.66c-.95,3.78-1.66,7.02-2.13,9.7-.47,2.37-.71,4.49-.71,6.39,0,3.47.95,5.76,2.84,6.86,4.57-.63,9.46-3.86,14.67-9.7h12.3c-8.83,10.57-17.5,17.59-26.02,21.05h-1.65c-3.79,0-6.55-1.5-8.28-4.49-1.42-1.42-2.84-4.02-4.25-7.81-6.94,5.84-15.22,9.62-24.84,11.35-3.78.79-7.65,1.18-11.59,1.18-5.84,0-11.67-.86-17.5-2.6-9.93-2.68-18.72-8.47-26.37-17.38-7.65-8.91-11.86-21.8-12.66-38.67-.16-2.84-.24-5.68-.24-8.51,0-13.72,1.74-26.57,5.2-38.55,5.99-21.6,14.47-38.79,25.43-51.56,10.96-12.77,24.4-21.52,40.33-26.25,3.63-1.1,7.25-1.66,10.88-1.66,12.46,0,25.15,6.23,38.08,18.69l44.94-185.68Zm-74.04,183.31c-2.36-.63-4.73-.95-7.09-.95-5.99,0-12.06,2.13-18.21,6.39-8.68,5.99-15.89,12.65-21.64,19.99-5.76,7.33-11.43,18.14-17.03,32.41-5.6,14.27-8.55,29.29-8.87,45.06v1.89c0,14.82,3.71,26.18,11.12,34.06,7.57,8.36,16.71,12.54,27.44,12.54.16,0,.31-.08.47-.24,10.88,0,20.34-5.28,28.39-15.85,3.78-3.94,13.08-41.23,27.91-111.88l.95-7.33c-7.25-8.36-15.06-13.72-23.42-16.08Z"/><path class="cls-7" d="m1547.29,395.33l-116.61,141.21h-12.3l116.61-141.21h12.3Z"/><path class="cls-7" d="m1603.35,387.76c7.57,8.68,12.61,21.29,15.13,37.85.79,5.2,1.18,10.64,1.18,16.32,0,13.09-1.97,27.83-5.91,44.23-5.84,23.65-18.61,43.92-38.32,60.79l-3.79,2.84c-2.36,1.1-4.25,2.05-5.68,2.84-8.04,3.16-15.46,4.73-22.23,4.73-18.13,0-31.69-11.27-40.68-33.82-.95-2.52-1.57-5.28-1.89-8.28-1.1-4.57-1.66-9.46-1.66-14.67s.4-12.1,1.18-21.17c.79-9.06,2.72-18.29,5.79-27.67,3.07-9.38,6.94-19.16,11.59-29.33,4.65-10.17,9.54-18.37,14.67-24.6,5.12-6.23,10.56-11.55,16.32-15.97,5.76-4.41,12.65-7.17,20.7-8.28,2.2-.31,4.26-.47,6.15-.47,5.2,0,9.62,1.03,13.25,3.08,5.04,2.84,9.78,6.7,14.19,11.59Zm-20.34,1.66c-3-1.1-5.76-1.66-8.28-1.66s-4.73.47-6.63,1.42c-4.26,2.05-9.93,7.09-17.03,15.14-7.09,8.04-15.22,24.44-24.36,49.2-5.99,18.61-8.99,34.85-8.99,48.72v3.08c1.1,26.49,10.73,39.74,28.86,39.74,5.2,0,11.19-1.1,17.97-3.31,14.82-11.51,25.31-25.58,31.46-42.22,6.15-16.64,9.54-29.68,10.17-39.15.47-6.94.71-13.01.71-18.21v-5.44c-.32-6.3-1.18-12.69-2.6-19.16-1.42-6.46-3.9-12.26-7.45-17.39-3.55-5.12-8.16-8.71-13.84-10.76Z"/><path class="cls-7" d="m568.7,3049.23l-116.61,141.21h-12.3l116.61-141.21h12.3Z"/><path class="cls-7" d="m879.74,3049.23l-116.61,141.21h-12.3l116.61-141.21h12.3Z"/><path class="cls-7" d="m1215.62,3049.23l-116.61,141.21h-12.3l116.61-141.21h12.3Z"/><path class="cls-7" d="m1521.92,3049.23l-116.61,141.21h-12.3l116.61-141.21h12.3Z"/><path class="cls-7" d="m1658.87,3049.23l-116.61,141.21h-12.3l116.61-141.21h12.3Z"/><path class="cls-7" d="m292.66,2861.66c1.89-.95,3.7-1.42,5.44-1.42,2.52,0,4.81,1.11,6.86,3.31,3.47,3.63,6.11,7.49,7.92,11.59,1.81,4.1,3.03,8.67,3.67,13.72,7.88-8.35,14.23-13.91,19.04-16.67,4.81-2.76,10.6-5.2,17.39-7.33,6.78-2.13,14.11-3.66,22-4.61,4.26-.47,8.28-.71,12.06-.71,2.99,0,5.91.16,8.75.47,5.83.79,11.51,2.05,17.03,3.79,5.52,1.74,11.15,4.45,16.91,8.16,5.75,3.71,9.93,7.33,12.54,10.88,2.6,3.55,4.73,7.02,6.39,10.41,1.66,3.39,2.64,6.35,2.96,8.87.31,2.53.63,5.44.95,8.75v2.6c0,3.31-.4,7.81-1.18,13.48-1.26,7.26-2.13,11.36-2.6,12.3l-33.59,251.43c.16,7.57,2.13,11.35,5.91,11.35,4.1,0,10.33-3.79,18.69-11.35h12.3c-10.57,14.82-21.21,22.23-31.93,22.23-5.68,0-11.44-1.66-17.27-4.97-3.78-3-5.84-8.2-6.15-15.61l34.06-254.98c2.05-13.87,3.31-23.02,3.78-27.44v-1.89c0-3.94-1.26-8.36-3.78-13.25-5.84-14.67-22.47-22.31-49.91-22.94-29.96,2.37-51.17,15.61-63.63,39.74l-51.8,301.11h-18.69l48.72-292.83c3-13.72,4.49-24.36,4.49-31.93,0-4.26-.47-7.57-1.42-9.93-1.11-2.68-2.76-4.02-4.97-4.02-3,0-7.1,2.76-12.3,8.28l-119.21,149.96h-11.83l129.38-160.84c3.94-3.94,8.28-7.17,13.01-9.7Z"/><path class="cls-7" d="m655.27,3029.12l-30.75,131.75-11.59,38.79-29.33,129.85-.95,3.07-1.66,6.86c-3.47,13.72-8.72,25.74-15.73,36.07-7.02,10.33-17.86,15.49-32.52,15.49s-25.27-1.74-31.34-5.2c-6.07-3.47-9.97-9.93-11.71-19.4-.31-1.89-.47-3.86-.47-5.91,0-7.89,2.76-16.72,8.28-26.49l79-105.02,13.96-21.52c-7.41,1.26-14.19,1.89-20.34,1.89-15.77,0-27.59-3.94-35.48-11.83-11.19-10.41-17.35-20.18-18.45-29.33-.47-4.73-.71-9.3-.71-13.72,0-4.73.24-9.3.71-13.72,1.1-9.14,2.76-18.05,4.97-26.73,6.47-19.71,15.18-37.37,26.14-52.98,10.96-15.61,20.42-24.52,28.38-26.73,7.96-2.2,15.73-3.7,23.3-4.49,3.31-.31,6.46-.47,9.46-.47,3.47,0,6.46.23,8.99.71,4.73.95,10.64,3.31,17.74,7.1l2.13-8.04h17.98Zm-153.27,323.34c-.16,1.74-.24,3.39-.24,4.97,0,13.87,7.65,21.52,22.94,22.94.79.16,1.66.23,2.6.23,15.61,0,27.6-12.85,35.95-38.55l24.36-106.91c-55.82,68.75-84.36,107.86-85.62,117.32Zm103.84-314.12c-5.36,0-10.73,1.18-16.08,3.55-10.09,4.57-18.41,12.06-24.96,22.47-6.54,10.41-12.57,20.98-18.09,31.7-5.52,10.73-9.07,21.52-10.64,32.4-1.42,7.89-2.13,15.46-2.13,22.71,0,2.84.16,5.52.47,8.04.63,9.78,3.59,17.62,8.87,23.54,5.28,5.91,12.18,9.81,20.7,11.71,2.36.63,4.88.95,7.57.95,6.46,0,13.56-1.81,21.29-5.44,2.99-1.89,5.71-6.15,8.16-12.77,2.44-6.62,12.97-49.44,31.58-128.44.31-.16.47-.39.47-.71,0-1.42-4.42-3.79-13.25-7.1-4.58-1.73-9.22-2.6-13.95-2.6Z"/><path class="cls-7" d="m763.13,3190.2c-7.57,10.41-15.53,17.03-23.89,19.87-4.26,1.58-9.22,2.45-14.9,2.6h-8.04c-5.21-.47-10.88-2.13-17.03-4.97-3.94-1.26-9.31-5.83-16.08-13.72-5.52-7.88-9.46-16.79-11.83-26.73l-2.6-14.19-52.27,37.14h-15.37l66.94-48.02c.31-13.88,2.13-25.46,5.44-34.77,8.2-21.76,18.92-39.58,32.17-53.46,13.25-13.87,22.63-21.36,28.15-22.47,6.94-2.52,13.88-3.94,20.81-4.26,5.2.16,10.64.55,16.32,1.18l5.91,1.89c4.57,2.21,7.49,4.73,8.75,7.57,1.73,2.84,2.84,6.07,3.31,9.7,0,6.15-2.37,11.59-7.1,16.32l-99.34,81.13c.47,23.34,6.86,40.45,19.16,51.33,10.09,5.52,20.26,7.41,30.51,5.68,8.2-1.57,14.43-5.52,18.69-11.83h12.3Zm-10.29-149.02c-4.34.95-9.74,3.47-16.2,7.57-6.47,4.26-12.85,9.66-19.16,16.2-6.31,6.55-13.95,16.99-22.94,31.34-7.26,11.35-11.43,23.89-12.54,37.61l90.36-74.27c3.47-3.15,4.81-7.02,4.02-11.59-1.58-3.94-4.58-6.23-8.99-6.86-5.36-.95-10.21-.95-14.55,0Z"/><path class="cls-7" d="m923.02,3031.73c5.68-1.57,11.9-2.36,18.69-2.36,3.79,0,7.65.23,11.59.71,11.51,1.27,22.23,10.25,32.17,26.97,5.04-19.08,21.13-28.62,48.25-28.62h1.89c28.23.47,44.23,13.4,48.02,38.79l.24,10.41-21.29,114.01v.95c0,5.36,1.97,8.04,5.91,8.04.63,0,1.34-.08,2.13-.24,5.52-.95,10.88-4.26,16.09-9.93h12.3c-7.57,11.04-14.75,17.82-21.52,20.34-2.37.63-5.28.95-8.75.95-1.74,0-3.63-.08-5.68-.24-12.77-.47-19.16-7.73-19.16-21.76v-2.13c13.56-70.96,20.42-110.38,20.58-118.27-.32-16.08-7.18-25.07-20.58-26.96-4.58-.47-8.67-.71-12.3-.71-7.73,0-14.04,1.18-18.92,3.55-7.26,3.79-12.46,11.51-15.61,23.18l-32.17,142.16h-17.98l25.55-138.37c0-18.76-9.15-29.25-27.44-31.46-1.89-.16-3.79-.24-5.68-.24-15.3,0-26.57,8.36-33.82,25.07l-33.35,144.76-19.63-.23,32.64-143.81c2.84-9.46,4.26-15.85,4.26-19.16,0-1.74-1.03-2.68-3.07-2.84-2.21.32-4.42,1.97-6.62,4.97h-12.3c9.62-11.83,15.69-17.98,18.21-18.45h1.89c9.14,0,14.03,5.6,14.67,16.79,5.04-8.2,11.98-13.48,20.81-15.85Z"/><path class="cls-7" d="m1208.99,2956.03l18.45.24-17.27,90.36c10.88-12.14,25.07-18.21,42.57-18.21,4.26,0,8.68.32,13.24.95,9.46,2.68,16.91,6.94,22.36,12.77,5.44,5.84,8.71,16.4,9.82,31.69l-20.35,122.05c1.57,4.1,3.55,6.15,5.91,6.15h.47c3.15,0,8.05-3.86,14.67-11.59h12.31c-10.41,14.98-19.95,22.47-28.62,22.47h-.71c-3.47,0-7.65-.31-12.54-.95-6.47-3.31-9.7-9.06-9.7-17.27v-.47l18.45-118.97c-.16-12.62-4.73-22.15-13.71-28.62-7.26-3.94-14.36-5.91-21.29-5.91-11.35,0-22.32,5.36-32.88,16.08l-2.37,7.09-70.72,330.44h-20.11l73.09-342.74,5.68-24.13,13.25-71.43Z"/><path class="cls-7" d="m1405.31,3190.2c-8.2,10.41-17.03,16.79-26.49,19.16-4.1,1.26-9.46,2.05-16.08,2.37-5.68-.16-10.8-.87-15.37-2.13-7.89-2.52-14.31-6.5-19.28-11.95-4.97-5.44-8.55-10.37-10.76-14.78l-6.15,7.33h-12.3l14.19-16.79c-1.58-5.04-2.37-13.4-2.37-25.07,0-.47.08-.95.24-1.42,0-12.3,2.84-27.4,8.51-45.3,5.68-17.9,15.14-33.78,28.39-47.66,13.24-13.87,25.31-21.84,36.19-23.89,5.68-1.26,11.12-1.89,16.32-1.89,4.73,0,9.3.63,13.72,1.89,7.88,2.37,12.45,6.39,13.72,12.06.31,1.1.47,2.29.47,3.55,0,3.63-1.42,7.33-4.25,11.12l-97.22,115.19c3.63,12.93,13.16,22.71,28.62,29.33,3,.32,5.91.47,8.75.47,13.09,0,22.71-3.86,28.86-11.59h12.3Zm-26.49-141.33c-6.47,4.18-17.43,16.28-32.88,36.31-14.98,24.28-22.47,49.83-22.47,76.63l91.06-109.28c1.1-2.2,1.66-4.18,1.66-5.91,0-4.26-3.71-6.39-11.12-6.39-2.53,0-5.44.23-8.75.71-5.2,1.11-11.04,3.75-17.51,7.93Z"/><path class="cls-7" d="m1571.6,2862.84c5.36-1.89,10.56-2.84,15.61-2.84,5.83,0,11.51,1.34,17.03,4.02,9.93,5.05,15.14,12.54,15.61,22.47v2.36c0,8.83-2.52,16.17-7.57,22l-91.54,140.03-22.47,122.76c-.79,4.89-1.18,8.91-1.18,12.06,0,2.53.47,4.58,1.42,6.15,2.21,3.78,5.68,6.54,10.41,8.28,5.84,0,12.93-3.23,21.29-9.7h12.06c-9.15,11.36-18.06,18.14-26.73,20.34-2.05.47-4.81.71-8.28.71-1.57,0-3.31-.08-5.2-.24-6.15-.16-11.27-2.6-15.37-7.33-4.1-4.73-6.62-10.01-7.57-15.85-.31-1.89-.47-3.94-.47-6.15,0-4.89.71-10.72,2.13-17.51,2.05-9.93,16.79-82.7,44.23-218.32,6.78-25.07,13.32-44.11,19.63-57.12,6.3-13.01,15.29-21.72,26.96-26.14Zm36.19,26.73c0-5.99-2.6-10.72-7.81-14.19-4.42-2.84-8.51-4.25-12.3-4.25-3.31,0-6.31,1.02-8.99,3.07-5.99,4.58-11.94,11.83-17.86,21.76-5.91,9.93-9.98,19.32-12.18,28.15-2.21,8.83-10.25,43.76-24.13,104.78l80.9-128.44c1.57-3.94,2.36-7.57,2.36-10.88Z"/><path class="cls-7" d="m1722.98,3027.94h16.08l-27.44,143.81-2.6,10.65c-.16,1.1-.4,2.13-.71,3.07-1.1,4.1-1.66,7.25-1.66,9.46,0,2.84.87,4.26,2.6,4.26,2.37,0,6.54-2.92,12.54-8.75h12.3c-9.62,12.77-17.35,19.16-23.18,19.16h-.23c-.95.16-1.82.23-2.6.23-4.26,0-7.81-1.66-10.65-4.97-2.36-3.31-3.55-5.12-3.55-5.44-15.3,7.42-28.62,11.12-39.97,11.12h-2.6c-11.83-.63-20.58-2.88-26.26-6.74-5.68-3.86-10.29-8.55-13.84-14.07-3.55-5.52-6.03-15.38-7.45-29.57-.31-2.84-.47-5.91-.47-9.23,0-9.93,1.26-22.07,3.79-36.43,5.52-20.34,13.52-36.62,24.01-48.85,10.49-12.22,18.96-20.73,25.43-25.54,6.46-4.81,12.93-8.16,19.39-10.06,4.26-1.1,9.14-1.65,14.67-1.65,2.52,0,5.28.08,8.28.23,8.83.95,16.4,2.69,22.71,5.2l1.42-5.91Zm-90.71,64.57c-7.02,12.77-10.68,27.6-11,44.47-.47,4.89-.71,9.46-.71,13.72,0,28.7,11.2,43.05,33.59,43.05,3.94,0,8.28-.47,13.01-1.42,8.04-1.42,16.48-5.76,25.31-13.01l25.31-130.57c-8.99-3.94-17.5-5.91-25.55-5.91-11.2,0-21.37,4.02-30.51,12.06-12.62,12.3-22.43,24.83-29.45,37.61Z"/><line class="cls-4" x1="809.87" y1="2346.51" x2="809.87" y2="2614.1"/><path class="cls-7" d="m1358,2663.59v-2.02h3.02v2.18c0,3.74,2.6,6.05,7.94,6.05s8.44-1.97,8.44-6.22c0-3.32-1.39-5.17-4.92-6.09l-6.64-1.72c-4.33-1.13-7.18-2.98-7.18-8.15s3.78-8.91,10.92-8.91,10.59,3.45,10.59,9.07v2.94h-3.02v-2.81c0-4.62-3.07-6.51-7.56-6.51-5.12,0-7.81,2.14-7.81,6.01,0,3.61,1.76,4.7,5.54,5.71l5.75,1.55c5.12,1.39,7.43,3.74,7.43,8.65,0,6.09-4.33,9.24-11.47,9.24-9.12,0-11.05-4.71-11.05-8.99Z"/><path class="cls-7" d="m1398.66,2669.35v2.6c-.76.21-2.14.59-4.03.59-3.82,0-6.34-1.6-6.34-6.89v-12.18h-4.16v-2.44h4.16v-6.05l2.94-1.43v7.48h5.92v2.44h-5.92v11.8c0,2.81.76,4.58,3.4,4.58,1.6,0,3.23-.29,4.03-.5Z"/><path class="cls-7" d="m1403.49,2651.03h2.6l.29,3.91c1.01-2.14,3.07-4.45,6.76-4.45,1.26,0,2.18.21,3.02.55v3.15c-1.13-.5-2.1-.76-3.4-.76-3.74,0-6.34,2.81-6.34,5.75v12.85h-2.94v-21Z"/><path class="cls-7" d="m1418.48,2661.53c0-6.22,3.32-11.05,10.38-11.05,6.59,0,10.25,4.83,10.25,11.05s-3.7,11.05-10.29,11.05c-7.27,0-10.33-4.83-10.33-11.05Zm17.56,0c0-5.33-2.9-8.49-7.22-8.49-4.75,0-7.27,3.15-7.27,8.49s2.56,8.49,7.27,8.49c4.33,0,7.22-3.15,7.22-8.49Z"/><path class="cls-7" d="m1444.35,2639.27h2.94v23.23l12.14-11.47h3.65v.04l-8.4,7.86,8.78,13.06v.04h-3.36l-7.39-11.22-5.42,5.04v6.18h-2.94v-32.77Z"/><path class="cls-7" d="m1484.72,2662.54h-15.96c.17,4.79,2.48,7.48,6.93,7.48,3.82,0,5.67-1.43,5.97-4.83h2.98c-.29,4.24-3.28,7.39-9.03,7.39-7.06,0-9.83-4.66-9.83-10.88s3.23-11.22,10-11.22,8.95,3.99,8.95,10.21v1.85Zm-3.11-2.98c0-4.45-1.72-6.55-5.92-6.55s-6.55,2.65-6.89,6.97h12.81v-.42Z"/><path class="cls-7" d="m1498.57,2661.7c0-6.38,3.23-11.22,10-11.22s8.95,3.91,8.95,8.95v.42h-3.11v-.63c0-3.82-1.64-6.09-5.84-6.09-4.75,0-7.02,3.11-7.02,8.4,0,5.63,2.39,8.49,6.93,8.49,3.82,0,5.84-1.85,5.92-5.67h3.02c-.08,4.66-3.15,8.23-9.03,8.23-7.22,0-9.83-4.75-9.83-10.88Z"/><path class="cls-7" d="m1521.71,2661.53c0-6.22,3.32-11.05,10.38-11.05,6.59,0,10.25,4.83,10.25,11.05s-3.7,11.05-10.29,11.05c-7.27,0-10.33-4.83-10.33-11.05Zm17.56,0c0-5.33-2.9-8.49-7.22-8.49-4.75,0-7.27,3.15-7.27,8.49s2.56,8.49,7.27,8.49c4.33,0,7.22-3.15,7.22-8.49Z"/><path class="cls-7" d="m1548.22,2651.03h2.6l.29,3.49c1.01-2.14,3.28-4.03,7.35-4.03,4.75,0,7.77,2.52,7.77,7.94v13.61h-2.94v-13.27c0-4.33-2.14-5.71-5.5-5.71-3.82,0-6.64,2.69-6.64,5.63v13.36h-2.94v-21Z"/><path class="cls-7" d="m1584.55,2669.35v2.6c-.76.21-2.14.59-4.03.59-3.82,0-6.34-1.6-6.34-6.89v-12.18h-4.16v-2.44h4.16v-6.05l2.94-1.43v7.48h5.92v2.44h-5.92v11.8c0,2.81.76,4.58,3.4,4.58,1.6,0,3.23-.29,4.03-.5Z"/><path class="cls-7" d="m1589.38,2651.03h2.6l.29,3.91c1.01-2.14,3.07-4.45,6.76-4.45,1.26,0,2.18.21,3.02.55v3.15c-1.13-.5-2.1-.76-3.4-.76-3.74,0-6.34,2.81-6.34,5.75v12.85h-2.94v-21Z"/><path class="cls-7" d="m1605,2666.24c0-3.95,2.23-6.09,7.86-6.09h6.34v-1.72c0-2.98-1.26-5.42-5.46-5.42-3.95,0-5.33,1.51-5.33,4.12v.88h-2.98v-.84c0-5,4.2-6.68,8.32-6.68,5.8,0,8.4,2.86,8.4,8.44v13.11h-2.06l-.55-2.98h-.08c-1.26,1.89-3.7,3.53-7.35,3.53-4.92,0-7.1-2.31-7.1-6.34Zm14.2-1.85v-1.76h-7.01c-2.65,0-4.03.92-4.03,3.61,0,2.35,1.26,3.86,4.5,3.86,4.16,0,6.55-2.14,6.55-5.71Z"/><path class="cls-7" d="m1627.6,2665.61v-1.18h2.94v1.13c0,2.86,2.14,4.5,5.96,4.5s5.8-1.01,5.8-3.78c0-2.06-1.01-2.81-3.86-3.32l-4.62-.84c-3.02-.55-5.54-2.02-5.54-5.5,0-3.15,2.35-6.13,8.4-6.13s8.4,3.02,8.4,7.22v.88h-2.98v-.76c0-3.44-2.14-4.91-5.42-4.91-3.95,0-5.33,1.34-5.33,3.36s1.01,2.86,3.91,3.4l4.03.76c4.12.76,6.09,1.93,6.09,5.59,0,4.58-4.12,6.55-8.78,6.55-7.31,0-8.99-3.28-8.99-6.97Z"/><path class="cls-7" d="m1662.2,2669.35v2.6c-.76.21-2.14.59-4.03.59-3.82,0-6.34-1.6-6.34-6.89v-12.18h-4.16v-2.44h4.16v-6.05l2.94-1.43v7.48h5.92v2.44h-5.92v11.8c0,2.81.76,4.58,3.4,4.58,1.6,0,3.23-.29,4.03-.5Z"/><path class="cls-7" d="m530.91,2639.27h3.15l17.69,27.6h.04v-27.6h2.94v32.77h-3.07l-17.77-27.94h-.04v27.94h-2.94v-32.77Z"/><path class="cls-7" d="m562.07,2666.24c0-3.95,2.23-6.09,7.86-6.09h6.34v-1.72c0-2.98-1.26-5.42-5.46-5.42-3.95,0-5.33,1.51-5.33,4.12v.88h-2.98v-.84c0-5,4.2-6.68,8.32-6.68,5.8,0,8.4,2.86,8.4,8.44v13.11h-2.06l-.55-2.98h-.08c-1.26,1.89-3.7,3.53-7.35,3.53-4.92,0-7.1-2.31-7.1-6.34Zm14.2-1.85v-1.76h-7.01c-2.65,0-4.03.92-4.03,3.61,0,2.35,1.26,3.87,4.5,3.87,4.16,0,6.55-2.14,6.55-5.71Z"/><path class="cls-7" d="m586.56,2651.03h2.6l.29,3.91c1.01-2.14,3.07-4.45,6.76-4.45,1.26,0,2.18.21,3.02.55v3.15c-1.13-.5-2.1-.76-3.4-.76-3.74,0-6.34,2.81-6.34,5.75v12.85h-2.94v-21Z"/><path class="cls-7" d="m603.86,2651.03h2.6l.29,3.91c1.01-2.14,3.07-4.45,6.76-4.45,1.26,0,2.18.21,3.02.55v3.15c-1.13-.5-2.1-.76-3.4-.76-3.74,0-6.34,2.81-6.34,5.75v12.85h-2.94v-21Z"/><path class="cls-7" d="m618.86,2661.53c0-6.22,3.32-11.05,10.38-11.05,6.59,0,10.25,4.83,10.25,11.05s-3.7,11.05-10.29,11.05c-7.27,0-10.33-4.83-10.33-11.05Zm17.56,0c0-5.33-2.9-8.49-7.22-8.49-4.75,0-7.27,3.15-7.27,8.49s2.56,8.49,7.27,8.49c4.33,0,7.22-3.15,7.22-8.49Z"/><path class="cls-7" d="m641.79,2651.07v-.04h2.98l5.75,17.47h.08l6.3-17.47h2.69l6.17,17.47h.08l5.75-17.47h2.86v.04l-7.18,20.96h-3.02l-5.96-17.05h-.08l-6.22,17.05h-3.02l-7.18-20.96Z"/><path class="cls-7" d="m690.63,2649.73h-3.36v-5.08c0-3.95.88-5.29,3.4-5.96l.67,1.85c-1.76.67-2.06,1.09-2.06,3.78v.34h1.34v5.08Zm5.92,0h-3.36v-5.08c0-3.95.88-5.29,3.4-5.96l.67,1.85c-1.76.67-2.06,1.09-2.06,3.78v.34h1.34v5.08Z"/><path class="cls-7" d="m698.53,2665.61v-1.18h2.94v1.13c0,2.86,2.14,4.49,5.96,4.49s5.8-1.01,5.8-3.78c0-2.06-1.01-2.81-3.86-3.32l-4.62-.84c-3.02-.55-5.54-2.02-5.54-5.5,0-3.15,2.35-6.13,8.4-6.13s8.4,3.02,8.4,7.23v.88h-2.98v-.76c0-3.44-2.14-4.91-5.42-4.91-3.95,0-5.33,1.34-5.33,3.36s1.01,2.86,3.91,3.4l4.03.76c4.12.76,6.09,1.93,6.09,5.59,0,4.58-4.12,6.55-8.78,6.55-7.31,0-8.99-3.28-8.99-6.97Z"/><path class="cls-7" d="m718.6,2648.47c1.76-.67,2.06-1.09,2.06-3.78v-.34h-1.34v-5.08h3.36v5.08c0,3.95-.88,5.29-3.4,5.97l-.67-1.85Zm5.92,0c1.76-.67,2.06-1.09,2.06-3.78v-.34h-1.34v-5.08h3.36v5.08c0,3.95-.88,5.29-3.4,5.97l-.67-1.85Z"/><path class="cls-7" d="m741.41,2651.07v-.04h2.98l5.75,17.47h.08l6.3-17.47h2.69l6.17,17.47h.08l5.75-17.47h2.86v.04l-7.18,20.96h-3.02l-5.96-17.05h-.08l-6.22,17.05h-3.02l-7.18-20.96Z"/><path class="cls-7" d="m778.92,2639.27h2.98v6.51h-2.98v-6.51Zm0,11.76h2.94v21h-2.94v-21Z"/><path class="cls-7" d="m800.21,2669.35v2.6c-.76.21-2.14.59-4.03.59-3.82,0-6.34-1.6-6.34-6.89v-12.18h-4.16v-2.44h4.16v-6.05l2.94-1.43v7.48h5.92v2.44h-5.92v11.8c0,2.81.76,4.58,3.4,4.58,1.6,0,3.23-.29,4.03-.5Z"/><path class="cls-7" d="m805.04,2639.27h2.94v15.16c1.05-2.1,3.28-3.95,7.31-3.95,4.75,0,7.77,2.52,7.77,7.94v13.61h-2.94v-13.27c0-4.33-2.14-5.71-5.5-5.71-3.82,0-6.64,2.69-6.64,5.63v13.36h-2.94v-32.77Z"/><path class="cls-7" d="m838.39,2661.7c0-6.38,3.23-11.22,10-11.22s8.95,3.91,8.95,8.95v.42h-3.11v-.63c0-3.82-1.64-6.09-5.84-6.09-4.75,0-7.01,3.11-7.01,8.4,0,5.63,2.39,8.49,6.93,8.49,3.82,0,5.84-1.85,5.92-5.67h3.02c-.08,4.66-3.15,8.23-9.03,8.23-7.22,0-9.83-4.75-9.83-10.88Z"/><path class="cls-7" d="m862.58,2639.27h2.94v32.77h-2.94v-32.77Z"/><path class="cls-7" d="m871.19,2661.53c0-6.22,3.32-11.05,10.38-11.05,6.59,0,10.25,4.83,10.25,11.05s-3.7,11.05-10.29,11.05c-7.27,0-10.33-4.83-10.33-11.05Zm17.56,0c0-5.33-2.9-8.49-7.22-8.49-4.75,0-7.27,3.15-7.27,8.49s2.56,8.49,7.27,8.49c4.33,0,7.22-3.15,7.22-8.49Z"/><path class="cls-7" d="m895.8,2665.61v-1.18h2.94v1.13c0,2.86,2.14,4.49,5.96,4.49s5.8-1.01,5.8-3.78c0-2.06-1.01-2.81-3.86-3.32l-4.62-.84c-3.02-.55-5.54-2.02-5.54-5.5,0-3.15,2.35-6.13,8.4-6.13s8.4,3.02,8.4,7.23v.88h-2.98v-.76c0-3.44-2.14-4.91-5.42-4.91-3.95,0-5.33,1.34-5.33,3.36s1.01,2.86,3.91,3.4l4.03.76c4.12.76,6.09,1.93,6.09,5.59,0,4.58-4.12,6.55-8.78,6.55-7.31,0-8.99-3.28-8.99-6.97Z"/><path class="cls-7" d="m936.71,2662.54h-15.96c.17,4.79,2.48,7.48,6.93,7.48,3.82,0,5.67-1.43,5.97-4.83h2.98c-.29,4.24-3.28,7.39-9.03,7.39-7.06,0-9.83-4.66-9.83-10.88s3.23-11.22,10-11.22,8.95,3.99,8.95,10.21v1.85Zm-3.11-2.98c0-4.45-1.72-6.55-5.92-6.55s-6.55,2.65-6.89,6.97h12.81v-.42Z"/><path class="cls-7" d="m940.91,2661.58c0-7.1,4.28-11.09,10.04-11.09,3.7,0,6.22,1.6,7.31,3.74h.04v-14.96h2.94v32.77h-1.97l-.67-3.61h-.08c-1.18,2.31-3.95,4.16-7.77,4.16-6.3,0-9.83-3.99-9.83-11.01Zm17.64-.5c0-5.5-3.36-8.07-7.35-8.07-3.11,0-7.14,1.47-7.14,8.4s3.61,8.61,7.14,8.61c4.24,0,7.35-2.73,7.35-8.95Z"/><path class="cls-7" d="m976.35,2665.61v-1.18h2.94v1.13c0,2.86,2.14,4.49,5.96,4.49s5.8-1.01,5.8-3.78c0-2.06-1.01-2.81-3.86-3.32l-4.62-.84c-3.02-.55-5.54-2.02-5.54-5.5,0-3.15,2.35-6.13,8.4-6.13s8.4,3.02,8.4,7.23v.88h-2.98v-.76c0-3.44-2.14-4.91-5.42-4.91-3.95,0-5.33,1.34-5.33,3.36s1.01,2.86,3.91,3.4l4.03.76c4.12.76,6.09,1.93,6.09,5.59,0,4.58-4.12,6.55-8.78,6.55-7.31,0-8.99-3.28-8.99-6.97Z"/><path class="cls-7" d="m1000,2639.27h2.94v15.16c1.05-2.1,3.28-3.95,7.31-3.95,4.75,0,7.77,2.52,7.77,7.94v13.61h-2.94v-13.27c0-4.33-2.14-5.71-5.5-5.71-3.82,0-6.64,2.69-6.64,5.63v13.36h-2.94v-32.77Z"/><path class="cls-7" d="m1024.11,2666.24c0-3.95,2.23-6.09,7.86-6.09h6.34v-1.72c0-2.98-1.26-5.42-5.46-5.42-3.95,0-5.33,1.51-5.33,4.12v.88h-2.98v-.84c0-5,4.2-6.68,8.32-6.68,5.8,0,8.4,2.86,8.4,8.44v13.11h-2.06l-.55-2.98h-.08c-1.26,1.89-3.7,3.53-7.35,3.53-4.92,0-7.1-2.31-7.1-6.34Zm14.2-1.85v-1.76h-7.01c-2.65,0-4.03.92-4.03,3.61,0,2.35,1.26,3.87,4.5,3.87,4.16,0,6.55-2.14,6.55-5.71Z"/><path class="cls-7" d="m1048.59,2651.03h2.39l.34,3.87h.08c1.13-2.48,4.03-4.41,7.86-4.41,6.3,0,9.66,3.99,9.66,11.01s-4.29,11.09-9.87,11.09c-3.78,0-6.38-1.6-7.43-3.7h-.08v11.55h-2.94v-29.41Zm17.18,10.63c0-7.18-3.4-8.61-6.93-8.61-4.24,0-7.56,2.73-7.56,8.44,0,6.01,3.45,8.57,7.44,8.57,3.02,0,7.06-1.47,7.06-8.4Z"/><path class="cls-7" d="m1092.07,2662.54h-15.96c.17,4.79,2.48,7.48,6.93,7.48,3.82,0,5.67-1.43,5.97-4.83h2.98c-.29,4.24-3.28,7.39-9.03,7.39-7.06,0-9.83-4.66-9.83-10.88s3.23-11.22,10-11.22,8.95,3.99,8.95,10.21v1.85Zm-3.11-2.98c0-4.45-1.72-6.55-5.92-6.55s-6.55,2.65-6.89,6.97h12.81v-.42Z"/><path class="cls-8" d="m755.51,2293.27l108.4-134.71s4.05,132.49-16.69,149.96c-58.62,49.39-91.71-15.26-91.71-15.26Z"/><path class="cls-7" d="m742.91,2308.29c-7.57,10.41-15.53,17.03-23.89,19.87-4.26,1.58-9.22,2.45-14.9,2.6h-8.04c-5.21-.47-10.88-2.13-17.03-4.97-3.94-1.26-9.31-5.83-16.08-13.72-5.52-7.88-9.46-16.79-11.83-26.73l-2.6-14.19-52.27,37.14h-15.37l66.94-48.02c.31-13.87,2.13-25.46,5.44-34.77,8.2-21.76,18.92-39.58,32.17-53.46,13.25-13.87,22.63-21.37,28.15-22.47,6.94-2.52,13.88-3.94,20.81-4.26,5.2.16,10.64.55,16.32,1.18l5.91,1.89c4.57,2.21,7.49,4.73,8.75,7.57,1.73,2.84,2.84,6.07,3.31,9.7,0,6.15-2.37,11.59-7.1,16.32l-99.34,81.13c.47,23.34,6.86,40.45,19.16,51.33,10.09,5.52,20.26,7.41,30.51,5.68,8.2-1.57,14.43-5.52,18.69-11.83h12.3Zm-10.29-149.02c-4.34.95-9.74,3.47-16.2,7.57-6.47,4.26-12.85,9.66-19.16,16.2-6.31,6.54-13.95,16.99-22.94,31.34-7.26,11.35-11.43,23.89-12.54,37.61l90.36-74.27c3.47-3.15,4.81-7.02,4.02-11.59-1.58-3.94-4.58-6.23-8.99-6.86-5.36-.95-10.21-.95-14.55,0Z"/><path class="cls-7" d="m859.52,2167.31l-116.61,141.21h-12.3l116.61-141.21h12.3Z"/><path class="cls-7" d="m879.86,2145.79l-18.21,151.62-1.89,6.15c-3.47,6.78-6.7,11.43-9.7,13.95-5.36,5.36-12.46,8.99-21.29,10.88-5.36.79-10.88,1.34-16.56,1.66h-3.31c-6.46,0-11.9-.79-16.32-2.37-6.78-1.57-18.69-9.14-35.71-22.71l10.17-12.06c16.24,15.46,31.78,23.18,46.6,23.18s26.73-9.62,35.24-28.86l10.64-119.92h-12.3l17.27-21.52h15.37Z"/><path class="cls-7" d="m976.13,2167.31l-116.61,141.21h-12.3l116.61-141.21h12.3Z"/><path class="cls-7" d="m969.51,2074.12l18.45.24-17.27,90.36c10.88-12.14,25.07-18.21,42.58-18.21,4.26,0,8.67.32,13.25.95,9.46,2.68,16.91,6.94,22.35,12.77,5.44,5.84,8.71,16.4,9.82,31.7l-20.34,122.05c1.58,4.1,3.55,6.15,5.91,6.15h.47c3.15,0,8.04-3.86,14.67-11.59h12.3c-10.41,14.98-19.95,22.47-28.62,22.47h-.71c-3.47,0-7.65-.31-12.54-.95-6.47-3.31-9.7-9.06-9.7-17.27v-.47l18.45-118.98c-.16-12.61-4.73-22.15-13.72-28.62-7.26-3.94-14.35-5.91-21.29-5.91-11.35,0-22.32,5.36-32.88,16.08l-2.37,7.1-70.72,330.44h-20.11l73.09-342.74,5.68-24.13,13.25-71.43Z"/><path class="cls-7" d="m1165.83,2308.29c-8.2,10.41-17.03,16.79-26.49,19.16-4.1,1.26-9.46,2.05-16.09,2.37-5.68-.16-10.8-.86-15.37-2.13-7.89-2.52-14.31-6.5-19.28-11.94-4.97-5.44-8.55-10.37-10.76-14.78l-6.15,7.33h-12.3l14.19-16.79c-1.58-5.04-2.37-13.4-2.37-25.07,0-.47.08-.95.24-1.42,0-12.3,2.84-27.4,8.52-45.3,5.68-17.9,15.14-33.78,28.38-47.66,13.25-13.87,25.31-21.84,36.19-23.89,5.68-1.26,11.12-1.89,16.32-1.89,4.73,0,9.3.63,13.72,1.89,7.88,2.37,12.46,6.39,13.72,12.06.31,1.11.47,2.29.47,3.55,0,3.63-1.42,7.33-4.26,11.12l-97.22,115.19c3.63,12.93,13.17,22.71,28.62,29.33,2.99.32,5.91.47,8.75.47,13.09,0,22.71-3.86,28.86-11.59h12.3Zm-26.49-141.33c-6.47,4.18-17.43,16.28-32.88,36.31-14.98,24.28-22.47,49.83-22.47,76.64l91.06-109.28c1.1-2.2,1.66-4.18,1.66-5.91,0-4.26-3.71-6.39-11.12-6.39-2.52,0-5.44.24-8.75.71-5.2,1.1-11.04,3.75-17.5,7.92Z"/><path class="cls-7" d="m1259.97,2308.29c-8.2,10.41-17.03,16.79-26.49,19.16-4.1,1.26-9.46,2.05-16.09,2.37-5.68-.16-10.8-.86-15.37-2.13-7.89-2.52-14.31-6.5-19.28-11.94-4.97-5.44-8.55-10.37-10.76-14.78l-6.15,7.33h-12.3l14.19-16.79c-1.58-5.04-2.37-13.4-2.37-25.07,0-.47.08-.95.24-1.42,0-12.3,2.84-27.4,8.52-45.3,5.68-17.9,15.14-33.78,28.38-47.66,13.25-13.87,25.31-21.84,36.19-23.89,5.68-1.26,11.12-1.89,16.32-1.89,4.73,0,9.3.63,13.72,1.89,7.88,2.37,12.46,6.39,13.72,12.06.31,1.11.47,2.29.47,3.55,0,3.63-1.42,7.33-4.26,11.12l-97.22,115.19c3.63,12.93,13.17,22.71,28.62,29.33,2.99.32,5.91.47,8.75.47,13.09,0,22.71-3.86,28.86-11.59h12.3Zm-26.49-141.33c-6.47,4.18-17.43,16.28-32.88,36.31-14.98,24.28-22.47,49.83-22.47,76.64l91.06-109.28c1.1-2.2,1.66-4.18,1.66-5.91,0-4.26-3.71-6.39-11.12-6.39-2.52,0-5.44.24-8.75.71-5.2,1.1-11.04,3.75-17.5,7.92Z"/><path class="cls-7" d="m1376.58,2167.31l-116.61,141.21h-12.3l116.61-141.21h12.3Z"/><path class="cls-7" d="m1426.25,1980.93c5.36-1.89,10.57-2.84,15.61-2.84,5.83,0,11.51,1.34,17.03,4.02,9.93,5.05,15.13,12.54,15.61,22.47v2.37c0,8.83-2.53,16.17-7.57,22l-91.54,140.03-22.47,122.76c-.79,4.89-1.18,8.91-1.18,12.06,0,2.52.47,4.58,1.42,6.15,2.21,3.79,5.68,6.55,10.41,8.28,5.84,0,12.93-3.23,21.29-9.7h12.06c-9.15,11.35-18.06,18.14-26.73,20.34-2.05.47-4.81.71-8.28.71-1.58,0-3.31-.08-5.2-.24-6.15-.16-11.27-2.6-15.37-7.33-4.1-4.73-6.62-10.01-7.57-15.85-.31-1.89-.47-3.94-.47-6.15,0-4.88.71-10.72,2.13-17.5,2.05-9.93,16.79-82.71,44.23-218.32,6.78-25.07,13.32-44.11,19.63-57.12,6.31-13.01,15.29-21.72,26.96-26.14Zm36.19,26.73c0-5.99-2.6-10.72-7.81-14.19-4.42-2.84-8.52-4.26-12.3-4.26-3.31,0-6.31,1.03-8.99,3.07-5.99,4.58-11.94,11.83-17.86,21.76-5.91,9.93-9.97,19.32-12.18,28.15-2.21,8.83-10.25,43.76-24.13,104.78l80.89-128.44c1.57-3.94,2.37-7.57,2.37-10.88Z"/><path class="cls-8" d="m596.97,2010.26c0,5.52-1.03,11.75-3.07,18.69l-79.95,101.47-36.43,139.55v1.89c0,8.36,2.05,17.03,6.15,26.02,4.41,9.62,10.41,15.85,17.98,18.69s17.11,4.34,28.62,4.49h.71c11.35,0,26.96-3.31,46.83-9.93,4.26-11.04,17.5-64.89,39.74-161.55h18.92l-39.27,157.53-43.28,178.82c-4.73,8.04-11.51,15.14-20.34,21.29-5.2,2.52-11.35,4.02-18.45,4.49-2.21.32-4.26.47-6.15.47-4.58,0-8.75-.47-12.54-1.42-5.36-1.26-11.2-5.76-17.5-13.48-3-3.63-4.49-8.2-4.49-13.72,0-6,1.81-13.09,5.44-21.29l95.32-138.37c-9.78,3.94-19.71,6.39-29.8,7.33-6.15.16-11.98.24-17.5.24-2.84,0-5.52-.08-8.04-.24-7.89,0-17.5-1.73-28.86-5.2-10.57-4.26-19-12.61-25.31-25.07-5.36-10.41-8.04-20.73-8.04-30.99,0-1.73.08-3.47.24-5.2l26.97-101.24-137.66,167.7h-12.06l155.64-194.19c18.6-76.79,28.62-119.05,30.04-126.78,3.78-10.09,7.61-17.15,11.47-21.17,3.86-4.02,8.31-7.06,13.36-9.11,3.15-1.26,7.1-1.89,11.83-1.89,2.52,0,5.36.24,8.51.71,20.66,3.31,30.99,13.8,30.99,31.46Zm-109.75,461c-.95,3.15-1.42,6.07-1.42,8.75,0,8.99,4.97,15.61,14.9,19.87,2.05.31,4.02.47,5.91.47,13.4,0,24.44-6.86,33.11-20.58l31.93-129.86-84.44,121.34Zm48.02-428.6l-15.37,61.26,64.81-80.9c.47-2.05,1.18-6.07,2.13-12.06v-2.6c0-4.89-2.13-9.23-6.39-13.01-3.79-3.15-8.44-4.73-13.96-4.73-2.05,0-4.18.24-6.39.71-14.04,10.41-22.32,27.52-24.84,51.33Z"/><g class="cls-6"><path class="cls-10" d="m969.51,2074.12l18.45.24-17.27,90.36c10.88-12.14,25.07-18.21,42.57-18.21,4.26,0,8.68.32,13.24.95,9.46,2.68,16.91,6.94,22.36,12.77,5.44,5.84,8.71,16.4,9.82,31.69l-20.35,122.05c1.57,4.1,3.55,6.15,5.91,6.15h.47c3.15,0,8.05-3.86,14.67-11.59h12.31c-10.41,14.98-19.95,22.47-28.62,22.47h-.71c-3.47,0-7.65-.31-12.54-.95-6.47-3.31-9.7-9.06-9.7-17.27v-.47l18.45-118.97c-.16-12.62-4.73-22.15-13.71-28.62-7.26-3.94-14.36-5.91-21.29-5.91-11.35,0-22.32,5.36-32.88,16.08l-2.37,7.09-70.72,330.44h-20.11l73.09-342.74,5.68-24.13,13.25-71.43Z"/></g><circle class="cls-11" cx="725.87" cy="535.93" r="47.65"/><g class="cls-12"><path class="cls-10" d="m797.25,536.54l-21.29,21.29,21.53-21.29h12.3l-30.04,32.17c1.1,3.16,1.81,6.23,2.13,9.23,2.68,11.51,4.02,22.94,4.02,34.3,0,34.53-12.7,67.49-38.08,98.87-19.39,19.55-35.72,29.49-48.96,29.8h-3.07c-11.67,0-19.71-1.66-24.13-4.97-5.04-3.47-8.91-8.16-11.59-14.08-2.68-5.91-4.18-11.95-4.49-18.1v-1.42c0-5.84,1.81-12.22,5.44-19.16l101.24-116.14c-6.78,1.58-13.64,2.92-20.58,4.02-.95.16-1.97.24-3.07.24-6.31,0-13.96-2.99-22.94-8.99-9.93-6.46-14.9-15.92-14.9-28.38v-2.37c6.78-10.25,14.98-15.37,24.6-15.37,1.58,0,3.16.08,4.73.24,11.67,2.05,19.91,5.68,24.72,10.88,4.81,5.2,7.84,8.48,9.11,9.82,1.26,1.34,3.39,4.38,6.39,9.11,16.87-16.4,29.09-34.69,36.66-54.88,6.46-17.34,9.7-38.08,9.7-62.21,0-4.1-.08-8.28-.24-12.54-1.42-11.83-5.05-20.34-10.88-25.55-4.42-3.62-8.99-5.6-13.72-5.91h-4.49c-8.04.79-14.75,4.18-20.11,10.17h-12.3c8.99-13.56,21.37-20.73,37.13-21.52h.95c7.57.47,13.64,1.97,18.21,4.49,4.57,2.52,9.11,7.3,13.6,14.31,4.49,7.02,6.9,16.99,7.21,29.92.16,3.31.24,6.54.24,9.7,0,9.62-.4,19.08-1.18,28.38-1.74,8.36-3.55,15.85-5.44,22.47-13.25,29.8-22.71,47.62-28.38,53.46Zm-124.89,150.2c-3.31,6.46-4.97,12.38-4.97,17.74,0,3.79.79,7.25,2.37,10.41,3.79,7.88,9.38,12.06,16.79,12.54,1.89.16,3.71.23,5.44.23,4.57,0,8.04-.47,10.41-1.42,3.31-1.26,8.72-4.49,16.2-9.7,7.49-5.2,15.26-13.57,23.3-25.07,8.04-11.51,15.22-25.86,21.52-43.05,4.73-13.09,7.1-25.78,7.1-38.08,0-3.79-.24-7.49-.71-11.12l-2.84-19.16-94.61,106.68Zm39.03-148.31c0,3.31,1.82,7.25,5.44,11.83,5.52,7.1,12.15,10.64,19.87,10.64,3.31,0,7.02-.24,11.12-.71,6.47-1.42,9.7-4.57,9.7-9.46v-1.65c0-3.47-2.44-7.57-7.33-12.3-7.41-6.94-14.58-10.41-21.52-10.41-3.15,0-6.23.63-9.23,1.89-5.36,2.52-8.04,5.91-8.04,10.17Z"/></g><circle class="cls-8" cx="1514.97" cy="1270" r="28.8"/><g class="cls-14"><path class="cls-10" d="m1402.94,1260.06c5.68-1.57,11.9-2.37,18.69-2.37,3.79,0,7.65.24,11.59.71,11.51,1.26,22.23,10.25,32.17,26.96,5.04-19.08,21.13-28.62,48.26-28.62h1.89c28.22.47,44.23,13.4,48.02,38.79l.23,10.41-21.29,114.01v.95c0,5.36,1.97,8.04,5.91,8.04.63,0,1.34-.08,2.13-.24,5.52-.95,10.88-4.26,16.08-9.93h12.3c-7.57,11.04-14.75,17.82-21.53,20.34-2.36.63-5.28.95-8.75.95-1.74,0-3.63-.08-5.68-.24-12.77-.47-19.16-7.72-19.16-21.76v-2.13c13.56-70.96,20.42-110.38,20.58-118.27-.32-16.08-7.17-25.07-20.58-26.97-4.58-.47-8.68-.71-12.3-.71-7.73,0-14.04,1.18-18.92,3.55-7.25,3.78-12.46,11.51-15.61,23.18l-32.17,142.16h-17.98l25.55-138.37c0-18.76-9.15-29.25-27.44-31.46-1.89-.16-3.79-.24-5.68-.24-15.3,0-26.57,8.36-33.82,25.07l-33.35,144.76-19.63-.24,32.64-143.81c2.84-9.46,4.26-15.85,4.26-19.16,0-1.73-1.03-2.68-3.07-2.84-2.21.32-4.42,1.97-6.62,4.97h-12.3c9.62-11.83,15.69-17.98,18.21-18.45h1.89c9.14,0,14.03,5.6,14.67,16.79,5.04-8.2,11.98-13.48,20.81-15.85Z"/><circle class="cls-8" cx="1543.77" cy="1357.61" r="28.8"/></g><g class="cls-13"><path class="cls-10" d="m1402.94,1260.06c5.68-1.57,11.9-2.37,18.69-2.37,3.79,0,7.65.24,11.59.71,11.51,1.26,22.23,10.25,32.17,26.96,5.04-19.08,21.13-28.62,48.26-28.62h1.89c28.22.47,44.23,13.4,48.02,38.79l.23,10.41-21.29,114.01v.95c0,5.36,1.97,8.04,5.91,8.04.63,0,1.34-.08,2.13-.24,5.52-.95,10.88-4.26,16.08-9.93h12.3c-7.57,11.04-14.75,17.82-21.53,20.34-2.36.63-5.28.95-8.75.95-1.74,0-3.63-.08-5.68-.24-12.77-.47-19.16-7.72-19.16-21.76v-2.13c13.56-70.96,20.42-110.38,20.58-118.27-.32-16.08-7.17-25.07-20.58-26.97-4.58-.47-8.68-.71-12.3-.71-7.73,0-14.04,1.18-18.92,3.55-7.25,3.78-12.46,11.51-15.61,23.18l-32.17,142.16h-17.98l25.55-138.37c0-18.76-9.15-29.25-27.44-31.46-1.89-.16-3.79-.24-5.68-.24-15.3,0-26.57,8.36-33.82,25.07l-33.35,144.76-19.63-.24,32.64-143.81c2.84-9.46,4.26-15.85,4.26-19.16,0-1.73-1.03-2.68-3.07-2.84-2.21.32-4.42,1.97-6.62,4.97h-12.3c9.62-11.83,15.69-17.98,18.21-18.45h1.89c9.14,0,14.03,5.6,14.67,16.79,5.04-8.2,11.98-13.48,20.81-15.85Z"/></g></g></svg>