<?xml version="1.0" encoding="UTF-8"?><svg xmlns="http://www.w3.org/2000/svg" viewBox="0 0 1920 4365"><defs><style>.cls-1{stroke-dasharray:0 0 1.66 16.6;}.cls-1,.cls-2,.cls-3,.cls-4,.cls-5,.cls-6,.cls-7,.cls-8,.cls-9{fill:none;stroke-miterlimit:10;}.cls-1,.cls-2,.cls-3,.cls-5,.cls-6,.cls-7,.cls-9{stroke:#a797c9;stroke-linecap:round;stroke-width:7px;}.cls-10{fill:#fff;}.cls-11{fill:#171c32;}.cls-12{fill:#947fbb;}.cls-3{stroke-dasharray:0 0 1.76 17.57;}.cls-4{stroke:#947fbb;stroke-width:4px;}.cls-5{stroke-dasharray:0 0 1.72 17.19;}.cls-6{stroke-dasharray:0 0 1.9 19.03;}.cls-7{stroke-dasharray:0 0 1.69 16.86;}.cls-8{stroke:#57678b;stroke-width:3.5px;}.cls-9{stroke-dasharray:0 0 1.71 17.13;}</style></defs><g id="Background"><rect class="cls-11" width="1920" height="4365"/></g><g id="Horizontal_Guides"><line class="cls-8" y1="201.72" x2="1920" y2="201.72"/><line class="cls-8" y1="459.48" x2="1920" y2="459.48"/><line class="cls-8" x1="1920" y1="649.63" y2="649.63"/><line class="cls-8" y1="906.86" x2="1920" y2="906.86"/><line class="cls-8" y1="1257.64" x2="1920" y2="1257.64"/><line class="cls-8" y1="1515.4" x2="1920" y2="1515.4"/><line class="cls-8" x1="1920" y1="1705.55" y2="1705.55"/><line class="cls-8" y1="1962.78" x2="1920" y2="1962.78"/><line class="cls-8" y1="2310.64" x2="1920" y2="2310.64"/><line class="cls-8" y1="2568.4" x2="1920" y2="2568.4"/><line class="cls-8" x1="1920" y1="2758.55" y2="2758.55"/><line class="cls-8" y1="3015.78" x2="1920" y2="3015.78"/><line class="cls-8" y1="3363.58" x2="1920" y2="3363.58"/><line class="cls-8" y1="3621.35" x2="1920" y2="3621.35"/><line class="cls-8" x1="1920" y1="3811.5" y2="3811.5"/><line class="cls-8" y1="4068.72" x2="1920" y2="4068.72"/></g><g id="Info"><circle class="cls-12" cx="843.88" cy="3597.34" r="74.42"/><circle class="cls-12" cx="815.07" cy="1488.61" r="100.13"/><rect class="cls-12" x="1336.09" y="1260.72" width="60.99" height="704.42"/><circle class="cls-12" cx="1028.12" cy="2597.37" r="77.54"/><path class="cls-10" d="m564.29,2741.27c0-6.27,4.7-10.97,10.57-10.97,2.35,0,4.31.78,6.27,1.96,8.62,5.87,17.23,8.22,27.02,8.22,35.64,0,77.15-35.64,104.56-75.19,1.17-2.35,2.35-5.87,3.92-8.22,50.91-77.54,73.62-173.48,39.55-173.48-12.92,0-22.32,17.62-22.32,59.52v399.82c0,38.77,5.87,51.3,14.49,51.3,16.06,0,27.41-33.68,27.41-84.98,0-75.97-24.67-196.19-59.13-196.19-7.83,0-13.32,7.44-13.32,13.31s12.53,13.71,32.5,13.71c29.37,0,67.36-13.31,90.46-59.52,1.96-3.53,5.48-5.87,9.79-5.87,5.87,0,10.57,4.7,10.57,10.57,0,1.96-.39,3.52-1.17,5.09-27.41,55.61-74.8,71.27-109.65,71.27-30.94,0-54.04-14.49-54.04-35.24,0-16.05,12.92-34.85,34.85-34.85,58.35,0,80.67,141.37,80.67,217.73,0,58.35-13.71,106.51-48.95,106.51-26.24,0-36.03-25.85-36.03-72.84v-399.82c0-50.52,14.49-81.06,43.86-81.06,66.96,0,34.46,121-21.15,206.37-1.17,1.57-1.96,4.31-2.74,6.66-29.76,43.86-77.93,86.94-124.14,86.94-13.71,0-27.02-3.53-39.55-12.14-2.74-1.96-4.31-5.09-4.31-8.62Z"/><path class="cls-10" d="m822.35,2524.33c0-7.83,6.27-14.49,14.49-14.49s14.1,6.66,14.1,14.49c0,8.22-6.27,14.88-14.1,14.88-8.22,0-14.49-6.66-14.49-14.88Z"/><path class="cls-10" d="m836.45,2566.62c5.87,0,10.96,5.09,10.96,10.96v133.14c0,18.01,12.53,29.37,26.63,29.37,18.41,0,42.68-19.97,66.57-61.87,1.96-3.13,5.48-5.48,9.4-5.48,5.87,0,10.57,4.7,10.57,10.97,0,1.96-.39,3.52-1.17,5.09-27.02,47.38-56.78,72.84-85.37,72.84-25.45,0-48.17-20.36-48.17-50.91v-133.14c0-5.87,4.7-10.96,10.57-10.96Z"/><path class="cls-10" d="m1119.18,2677.44c7.83,0,12.53,7.83,10.18,14.49-10.96,31.33-41.9,69.7-92.81,69.7-56.39,0-98.68-48.56-98.68-103.77,0-43.08,26.24-90.07,70.49-90.07,31.33,0,50.12,24.28,50.12,45.82,0,16.84-10.57,30.94-28.59,30.94-14.49,0-25.45-9.4-25.45-24.28,0-6.27,4.7-10.96,10.57-10.96s10.96,4.7,10.96,10.57c0,2.35,1.18,3.13,3.92,3.13,4.7,0,7.05-3.13,7.05-9.4,0-11.36-10.57-24.28-28.59-24.28-29.37,0-48.95,34.07-48.95,68.53,0,44.25,33.29,82.23,77.14,82.23,39.16,0,63.83-30.15,72.45-55.21,1.57-4.31,5.48-7.44,10.18-7.44Z"/><path class="cls-10" d="m1107.83,2664.91c0-52.08,27.8-97.12,66.18-97.12,46.99,0,69.31,49.73,69.31,96.33s-22.71,97.51-69.31,97.51c-38.38,0-66.18-44.64-66.18-96.72Zm113.95-.78c0-38.77-16.45-74.79-47.77-74.79-23.5,0-44.64,32.89-44.64,75.58s21.15,75.19,44.64,75.19c30.94,0,47.77-36.81,47.77-75.97Z"/><path class="cls-10" d="m1489.24,2593.64c0,5.48-3.52,9.79-8.61,10.57-12.53,2.35-26.24,3.53-39.55,3.53-57.17,0-115.91-21.54-115.91-61.87,0-19.19,13.32-28.59,26.63-28.59,20.36,0,28.98,18.01,28.98,32.11,0,27.02-39.16,212.24-117.48,212.24-38.77,0-41.51-48.56-41.51-50.91v-133.14c0-5.87,4.7-10.96,10.57-10.96s10.97,5.09,10.97,10.96v133.14c0,1.18,1.57,29.37,19.97,29.37,57.56,0,95.94-167.21,95.94-190.71,0-5.87-2.35-10.57-7.44-10.57-3.52,0-5.09,1.96-5.09,7.05,0,22.32,44.25,40.33,94.38,40.33,12.53,0,24.28-.78,35.64-3.13,6.66-1.17,12.53,3.92,12.53,10.57Z"/><path class="cls-10" d="m1481.02,2582.28c5.87,0,10.57,4.7,10.57,10.97,0,2.35-.78,4.7-2.35,6.66l-104.16,133.53c-1.96,2.35-5.09,3.92-8.61,3.92-5.87,0-10.57-4.7-10.57-10.97,0-2.35.78-4.7,2.35-6.66l104.16-133.53c1.96-2.35,5.09-3.92,8.62-3.92Z"/><path class="cls-10" d="m1378.03,2739.31c-5.87,0-10.57-4.7-10.57-10.57,0-3.91,1.96-7.05,4.7-9.01,35.64-23.89,99.86-53.65,99.86,23.89v207.55c0,44.64-17.23,64.61-37.98,64.61-25.85,0-48.95-31.33-48.95-86.15,0-61.48,28.59-140.58,65.79-172.69,1.96-1.57,4.31-2.74,7.05-2.74,5.87,0,10.96,5.09,10.96,10.96,0,3.13-1.57,6.27-3.92,8.22-31.33,26.24-58.35,99.86-58.35,156.25,0,44.25,16.45,64.61,27.41,64.61,7.05,0,16.45-10.97,16.45-43.08v-207.55c0-48.56-38.77-25.85-66.18-6.27-1.96,1.17-3.91,1.96-6.26,1.96Z"/><path class="cls-10" d="m1547.98,2675.48c5.87,0,10.57,4.7,10.57,10.96,0,2.74-.78,5.09-2.74,7.05-34.46,39.55-48.56,51.3-83.02,70.1-1.57.78-3.13,1.17-5.09,1.17-5.87,0-10.97-4.7-10.97-10.97,0-3.91,2.35-7.44,5.87-9.4,32.11-17.23,43.86-27.02,77.15-65.01,1.96-2.35,4.7-3.91,8.22-3.91Z"/><path class="cls-10" d="m585.4,1625.53c7.51,0,12.26,7.91,10.28,14.23-14.63,42.7-43.09,68.79-92.91,68.79-12.65,0-28.86-1.19-47.44-7.51-4.35-1.19-7.51-5.14-7.51-10.28,0-7.51,7.12-12.65,14.23-10.28,15.81,5.14,29.26,6.32,40.72,6.32,39.14,0,60.49-18.58,72.35-53.77,1.19-4.35,5.53-7.51,10.28-7.51Z"/><path class="cls-10" d="m694.52,1463.83c0,5.93-5.14,11.07-11.07,11.07-3.56,0-6.72-1.98-8.7-4.35l-36.37-49.81c0,.4,13.84-1.98,11.47.4l-37.95,49.42c-1.98,2.77-5.14,4.35-8.7,4.35-5.93,0-10.67-4.74-10.67-11.07,0-2.37.79-4.74,2.37-6.72l38.35-49.42c6.72-8.3,17-7.12,22.53.4l36.37,49.42c1.58,1.58,2.37,3.95,2.37,6.33Z"/><path class="cls-10" d="m573.15,1610.9c0-52.58,28.07-98.05,66.81-98.05,47.44,0,69.98,50.21,69.98,97.26s-22.93,98.44-69.98,98.44c-38.74,0-66.81-45.07-66.81-97.65Zm115.05-.79c0-39.14-16.6-75.51-48.23-75.51-23.72,0-45.07,33.21-45.07,76.3s21.35,75.91,45.07,75.91c31.23,0,48.23-37.16,48.23-76.7Z"/><path class="cls-10" d="m1227.06,1630.27c5.93,0,11.07,4.74,11.07,10.67,0,1.58-.4,3.16-.79,4.35-11.86,28.07-41.91,63.26-80.26,63.26-53.37,0-80.26-67.21-80.26-119,0-37.95,14.23-76.7,44.68-76.7,28.47,0,39.93,34.79,39.93,66.42,0,53.37-32.02,129.28-115.44,129.28-44.68,0-60.49-22.54-60.49-60.49v-85c0-29.26-14.23-17-55.35-31.23-28.86-9.88-41.51-27.67-41.51-43.09s11.47-26.88,27.67-26.88c20.95,0,28.47,17.4,28.47,38.74,0,58.51-46.26,207.95-111.1,207.95h-49.42c-28.86,0-41.91-15.81-41.91-32.02s13.05-35.19,35.19-35.19c58.12,0,81.44,138.37,81.44,216.26,0,58.91-13.84,107.53-49.42,107.53-26.49,0-36.37-26.09-36.37-73.54v-403.65c0-51,14.63-81.84,44.28-81.84,16.21,0,37.95,9.49,37.95,62.86,0,74.72-40.33,116.23-82.63,125.72-9.88,1.98-24.91,3.56-44.28,3.56-39.14,0-96.07-6.33-96.07-44.68,0-15.02,9.09-25.7,30.84-28.46,6.32-.79,12.26,4.35,12.26,10.67,0,5.53-4.35,10.28-9.88,10.67-9.49,1.19-11.47,3.56-11.47,7.12,0,16.61,38.74,22.93,74.33,22.93,17.79,0,31.23-1.19,39.53-3.16,33.6-7.12,65.63-40.72,65.63-104.37,0-35.19-9.09-41.12-16.21-41.12-13.05,0-22.54,17.79-22.54,60.09v403.65c0,39.14,5.93,51.79,14.63,51.79,16.21,0,27.67-34,27.67-85.79,0-75.12-24.51-194.51-59.7-194.51-7.91,0-13.44,7.51-13.44,13.44,0,4.74,4.74,10.28,20.16,10.28h49.42c45.47,0,89.35-133.63,89.35-186.21,0-13.05-1.98-17-6.72-17-4.35,0-5.93,1.98-5.93,5.14,0,5.53,7.12,15.81,26.88,22.53,22.93,7.91,69.98.79,69.98,51.79v85c0,27.67,8.3,38.74,38.75,38.74,67.6,0,93.7-61.28,93.7-107.54,0-24.91-7.91-44.67-18.19-44.67-12.65,0-22.93,24.51-22.93,54.95,0,44.28,22.14,97.26,58.51,97.26,26.88,0,51-27.28,60.09-49.81,1.58-3.95,5.54-6.72,9.88-6.72Z"/><path class="cls-10" d="m1214.8,1610.9c0-52.58,28.07-98.05,66.81-98.05,47.44,0,69.98,50.21,69.98,97.26s-22.93,98.44-69.98,98.44c-38.74,0-66.81-45.07-66.81-97.65Zm115.05-.79c0-39.14-16.6-75.51-48.23-75.51-23.72,0-45.07,33.21-45.07,76.3s21.35,75.91,45.07,75.91c31.23,0,48.23-37.16,48.23-76.7Z"/><path class="cls-10" d="m1337.36,1701.04c5.93,0,11.07,5.14,11.07,11.07,0,3.16-1.58,6.33-3.95,8.3-31.63,26.49-58.91,100.81-58.91,157.75,0,44.68,16.6,65.23,27.67,65.23,7.12,0,16.6-11.07,16.6-43.49v-377.17c0-5.93,4.74-11.07,10.67-11.07s11.07,5.14,11.07,11.07v377.17c0,45.07-17.4,65.23-38.35,65.23-26.09,0-49.42-31.63-49.42-86.98,0-62.07,28.86-141.93,66.42-174.35,1.98-1.58,4.35-2.77,7.12-2.77Z"/><path class="cls-10" d="m1437.39,1630.27c7.51,0,12.65,7.91,10.28,14.63-16.21,48.23-53.77,66.02-98.84,68.4-5.53.39-11.47-4.35-11.47-11.07,0-5.53,4.74-10.28,10.28-10.67,38.75-1.98,66.42-15.81,79.47-53.77,1.58-4.35,5.54-7.51,10.28-7.51Z"/><path class="cls-10" d="m1423.55,1610.9c0-52.58,28.07-98.05,66.81-98.05,47.44,0,69.98,50.21,69.98,97.26s-22.93,98.44-69.98,98.44c-38.75,0-66.81-45.07-66.81-97.65Zm115.05-.79c0-39.14-16.6-75.51-48.23-75.51-23.72,0-45.07,33.21-45.07,76.3s21.35,75.91,45.07,75.91c31.23,0,48.23-37.16,48.23-76.7Z"/><path class="cls-10" d="m1640.6,1552.39c5.93,0,10.67,4.74,10.67,10.67,0,3.16-1.58,6.33-3.56,8.3-19.77,17.4-54.16,25.3-85.4,25.3-39.53,0-79.47-12.65-79.47-42.7,0-15.02,9.09-26.09,30.84-28.86,6.33-.79,12.26,4.35,12.26,10.67,0,5.53-4.35,10.28-9.89,10.67-9.49,1.19-11.47,3.56-11.47,7.51,0,11.47,25.3,20.95,57.72,20.95,28.07,0,56.54-6.72,70.77-19.77,1.98-1.58,4.35-2.77,7.51-2.77Z"/><path class="cls-10" d="m650.63,557.56c6.72,0,11.47,5.93,11.07,11.47-2.77,52.98-28.07,81.84-67.21,81.84-12.26,0-26.49-3.16-41.12-9.09-3.95-1.58-6.72-5.54-6.72-9.88,0-5.93,4.74-11.07,11.07-11.07,1.19,0,2.77.4,3.95.79,12.26,5.14,23.32,7.51,32.81,7.51,26.49,0,43.49-18.98,45.47-61.28.39-5.53,5.14-10.28,10.67-10.28Z"/><path class="cls-10" d="m760.93,551.24c6.72,0,11.47,5.54,11.07,11.47-3.56,57.33-34,88.16-66.02,88.16-34,0-66.02-28.07-66.02-92.12l-.4-93.7c0-5.93,4.74-11.07,10.67-11.07s11.07,5.14,11.07,11.07v93.7c.39,50.61,22.53,70.37,44.67,70.37,19.77,0,41.51-21.74,44.28-67.6.39-5.54,5.14-10.28,10.67-10.28Z"/><path class="cls-10" d="m864.12,544.12c6.72,0,11.47,5.93,11.07,11.47-3.95,64.84-41.91,95.28-75.12,95.28-26.49,0-49.81-20.56-49.81-51.4v-134.42c0-5.93,4.74-11.07,10.67-11.07s11.07,5.14,11.07,11.07v134.42c0,18.19,12.65,29.65,28.07,29.65,22.53,0,50.21-22.53,53.37-74.72.4-5.54,5.14-10.28,10.67-10.28Z"/><path class="cls-10" d="m849.88,411.28c0-7.91,6.33-14.63,14.63-14.63s14.23,6.72,14.23,14.63c0,8.3-6.33,15.02-14.23,15.02-8.3,0-14.63-6.72-14.63-15.02Z"/><path class="cls-10" d="m864.12,453.98c5.93,0,11.07,5.14,11.07,11.07v134.42c0,18.19,12.65,29.65,28.07,29.65,23.72,0,53.77-24.12,53.77-82.63,0-61.67,31.23-91.33,76.7-91.33s74.72,28.47,74.72,88.16v96.47c0,5.93-5.14,11.07-11.07,11.07s-10.67-5.14-10.67-11.07v-96.47c0-47.05-20.56-66.42-52.98-66.42s-54.95,20.56-54.95,69.58c0,71.95-40.72,104.37-75.51,104.37-26.49,0-49.81-20.56-49.81-51.4v-134.42c0-5.93,4.74-11.07,10.67-11.07Z"/><path class="cls-10" d="m1431.05,388.75c0,5.93-5.14,10.67-11.07,10.67h-87.37c-5.93,0-11.07-4.74-11.07-10.67s5.14-11.07,11.07-11.07h87.37c5.93,0,11.07,5.14,11.07,11.07Z"/><path class="cls-10" d="m1457.94,564.28c5.93,0,10.67,4.74,10.67,10.67,0,1.58-.4,2.77-.79,3.95-18.98,48.23-52.58,71.95-79.07,71.95s-44.68-20.56-44.68-59.7v-297.3c0-5.93,4.74-11.07,10.67-11.07s11.07,5.14,11.07,11.07v297.3c0,27.28,9.88,37.95,22.93,37.95,17,0,43.09-18.19,58.91-58.12,1.58-3.95,5.54-6.72,10.28-6.72Z"/><path class="cls-10" d="m1446.87,553.21c0-52.58,28.07-98.05,66.81-98.05,47.44,0,69.98,50.21,69.98,97.26s-22.93,98.44-69.98,98.44c-38.74,0-66.81-45.07-66.81-97.65Zm115.05-.79c0-39.14-16.6-75.51-48.23-75.51-23.72,0-45.07,33.21-45.07,76.3s21.35,75.91,45.07,75.91c31.23,0,48.23-37.16,48.23-76.7Zm113.86-8.3c6.72,0,11.47,5.93,11.07,11.47-3.95,64.84-41.91,95.28-75.12,95.28-26.49,0-49.81-20.56-49.81-51.4v-134.42c0-5.93,4.74-11.07,10.67-11.07s11.07,5.14,11.07,11.07v134.42c0,18.19,12.65,29.65,28.07,29.65,22.54,0,50.21-22.53,53.37-74.72.39-5.54,5.14-10.28,10.67-10.28Z"/><path class="cls-12" d="m540.41,2637.5c-6.66,0-11.75-6.27-10.57-12.53,4.31-25.45,23.1-42.68,52.08-42.68,41.12,0,54.82,32.89,54.82,63.83,0,66.57-58.74,115.52-119.44,115.52s-122.57-48.95-122.57-130.01c0-93.2,81.06-158.2,139.02-158.2,21.15,0,38.77,9.79,38.77,31.33s-16.45,33.68-43.47,33.68c-49.73,0-86.15-41.12-86.15-99.07,0-69.31,51.69-152.33,150.37-152.33,11.75,0,47.77,1.96,47.77,37.59,0,59.92-109.65,114.35-189.14,114.35-49.34,0-90.46-21.93-90.46-70.88,0-41.9,30.94-75.58,82.24-79.49,6.27-.78,11.75,4.31,11.75,10.57,0,5.48-4.31,10.18-10.18,10.57-39.94,3.13-62.26,27.8-62.26,58.35,0,34.46,28.59,49.34,68.92,49.34,71.66,0,167.6-50.12,167.6-92.81,0-15.27-15.27-16.05-26.24-16.05-84.59,0-128.83,70.88-128.83,130.79,0,46.99,27.41,77.54,64.61,77.54,16.05,0,21.93-4.7,21.93-12.14,0-7.05-5.48-9.79-17.23-9.79-47.77,0-117.48,56.78-117.48,136.67,0,67.75,50.52,108.47,101.03,108.47s97.9-40.73,97.9-93.98c0-24.28-8.62-42.29-33.29-42.29-18.01,0-28.2,9.01-30.94,24.67-.78,5.09-5.09,9.01-10.57,9.01Z"/><path class="cls-12" d="m363.22,1304.5c0,5.54-4.35,10.28-10.28,10.67-45.07,3.56-62.46,32.81-62.46,63.65,0,32.81,20.16,45.47,64.05,45.47,100.82,0,162.89-73.93,162.89-132.05,0-26.88-13.44-39.14-28.47-39.14-24.12,0-33.6,35.98-33.6,80.26,0,24.91,1.98,46.26,5.54,67.21,13.05,75.91,49.81,111.49,49.81,189.77,0,88.95-47.05,118.21-93.3,118.21s-75.51-29.26-75.51-67.61c0-31.63,19.77-51.79,45.86-56.14,6.33-1.19,12.65,3.95,12.65,10.67,0,5.54-3.95,9.88-9.09,10.68-16.6,2.77-27.67,15.02-27.67,34.79,0,26.49,19.37,45.86,53.77,45.86,36.77,0,71.56-22.53,71.56-96.47s-35.58-105.16-49.42-185.82c-3.56-21.74-5.93-45.47-5.93-71.16,0-49.81,12.26-102,55.35-102,26.09,0,50.21,20.56,50.21,60.88,0,69.19-70.37,153.79-184.63,153.79-54.56,0-85.79-20.56-85.79-67.21,0-39.93,23.72-80.65,82.63-85.4,6.33-.4,11.86,4.74,11.86,11.07Z"/><path class="cls-12" d="m472.32,271.33c6.33,0,11.07,5.54,10.67,11.47-3.95,94.49-61.28,144.3-110.7,144.3-38.75,0-71.56-29.65-71.56-88.16,0-65.63,51-165.26,100.42-165.26,24.91,0,36.77,23.33,36.77,45.86,0,70.77-80.65,120.19-138.77,120.19-35.98,0-66.02-18.98-66.02-62.07,0-26.09,12.65-58.12,47.44-92.91,1.98-1.98,4.74-3.16,7.51-3.16,5.93,0,11.07,4.74,11.07,10.67,0,3.16-1.19,5.93-3.16,7.91-30.44,30.44-41.12,56.93-41.12,77.49,0,28.86,17.79,40.33,44.28,40.33,49.42,0,117.02-42.7,117.02-98.44,0-13.84-5.53-24.12-15.02-24.12-31.63,0-78.67,85-78.67,143.51,0,45.86,22.93,66.42,49.81,66.42,38.35,0,85.79-41.51,88.95-123.35.39-5.93,5.14-10.67,11.07-10.67Z"/><path class="cls-12" d="m516.6,560.72c-5.93,0-10.67-4.74-10.67-10.67,0-3.16,1.19-6.33,3.56-8.3,9.88-9.09,21.74-13.44,32.81-13.44,26.49,0,49.81,24.12,49.81,59.7,0,30.84-18.58,62.86-72.74,62.86-32.42,0-68-11.47-113.47-28.86-18.19-7.12-31.63-11.47-43.49-11.47s-14.63,3.95-14.63,7.51c0,4.74,5.93,11.07,20.95,11.07,33.6,0,72.74-35.19,86.19-98.84,5.93-27.28,8.7-63.26,8.7-125.72,0-47.44-1.58-92.51-1.98-122.16,0-5.93,4.74-11.07,10.67-11.07s11.07,5.14,11.07,11.07c0,29.25,1.98,74.33,1.98,122.16,0,63.26-3.16,101.61-9.09,130.47-15.81,73.14-62.86,115.84-107.54,115.84-27.67,0-42.7-16.21-42.7-32.81,0-13.44,9.88-29.26,36.37-29.26,15.02,0,32.42,5.54,51.4,12.65,44.67,17.4,76.3,27.67,105.56,27.67,38.74,0,51-18.98,51-41.12,0-23.72-14.23-37.95-28.07-37.95-5.93,0-12.26,2.37-18.19,7.91-1.98,1.58-4.35,2.77-7.51,2.77Z"/><path class="cls-12" d="m402.35,3569.59c0,6.72-5.93,11.86-12.26,11.07-35.58-4.74-52.98-32.02-52.98-55.74,0-17.79,11.07-47.44,47.84-47.44,43.49,0,41.12,36.37,85.79,36.37,21.74,0,40.33-7.91,49.42-24.91,1.98-3.56,5.54-5.93,9.49-5.93,5.93,0,11.07,5.14,11.07,11.07,0,1.58-.4,3.56-1.19,5.14-13.44,24.91-40.33,36.37-68.79,36.37-51.4,0-56.14-36.37-85.79-36.37-20.16,0-26.09,14.23-26.09,25.7,0,14.23,10.67,30.84,34,34,5.14.79,9.49,5.14,9.49,10.67Z"/><path class="cls-12" d="m529.66,3483.8c7.51,0,12.26,7.51,10.28,14.23-25.7,73.54-30.05,187-30.05,301.65,0,66.02,1.58,132.05,1.58,189.77v17c0,45.07-17,65.23-39.54,65.23-24.12,0-48.23-23.32-48.23-100.02,0-72.35,20.95-128.89,66.81-162.1,1.98-1.58,3.95-2.37,6.33-2.37,6.33,0,11.07,5.14,11.07,11.07,0,3.56-1.58,6.72-4.35,8.7-39.53,28.86-58.12,77.88-58.12,144.7,0,62.07,15.81,78.28,26.49,78.28,8.7,0,17.79-10.67,17.79-43.49v-17c0-57.72-1.58-123.75-1.58-189.77,0-114.65,4.74-231.68,31.23-308.77,1.19-3.95,5.14-7.12,10.28-7.12Z"/><path class="cls-12" d="m598.85,3715.08c5.93,0,10.67,4.74,10.67,11.07,0,2.77-1.19,5.14-2.77,7.12-20.56,22.14-60.88,58.51-96.86,83.02-1.58,1.19-3.95,1.98-5.93,1.98-6.33,0-11.07-5.14-11.07-11.07,0-3.56,1.98-6.72,4.74-8.7,34.79-24.12,73.93-58.91,92.91-79.86,1.98-2.37,5.14-3.56,8.3-3.56Z"/><path class="cls-10" d="m591.33,3717.45c0-52.58,28.07-98.05,66.81-98.05,47.44,0,69.98,50.21,69.98,97.26s-22.93,98.44-69.98,98.44c-38.75,0-66.81-45.07-66.81-97.65Zm115.05-.79c0-39.14-16.61-75.51-48.23-75.51-23.72,0-45.07,33.21-45.07,76.3s21.35,75.91,45.07,75.91c31.23,0,48.23-37.16,48.23-76.7Z"/><path class="cls-10" d="m981.94,3645.49c0,5.54-3.56,9.88-8.7,10.67-12.65,2.37-26.49,3.56-39.93,3.56-57.72,0-117.03-21.74-117.03-62.47,0-19.37,13.44-28.86,26.88-28.86,20.56,0,29.26,18.19,29.26,32.42,0,27.28-39.53,214.28-118.21,214.28-41.12,0-47.84-48.63-47.84-51.4v-134.42c0-5.93,4.74-11.07,10.67-11.07s11.07,5.14,11.07,11.07v134.42s3.95,29.65,26.09,29.65c57.72,0,96.47-168.81,96.47-192.54,0-5.93-2.37-10.68-7.51-10.68-3.56,0-5.14,1.98-5.14,7.12,0,22.54,44.68,40.72,95.28,40.72,12.65,0,24.51-.79,35.98-3.16,6.72-1.19,12.65,3.95,12.65,10.67Z"/><path class="cls-10" d="m973.64,3634.03c5.93,0,10.67,4.74,10.67,11.07,0,2.37-.79,4.74-2.37,6.72l-105.16,134.81c-1.98,2.37-5.14,3.95-8.7,3.95-5.93,0-10.67-4.74-10.67-11.07,0-2.37.79-4.74,2.37-6.72l105.16-134.81c1.98-2.37,5.14-3.95,8.7-3.95Z"/><path class="cls-10" d="m869.66,3792.57c-5.93,0-10.67-4.74-10.67-10.67,0-3.95,1.98-7.12,4.74-9.09,35.98-24.12,100.82-54.16,100.82,24.12v209.54c0,45.07-17.4,65.23-38.35,65.23-26.09,0-49.42-31.63-49.42-86.98,0-62.07,28.86-141.93,66.42-174.35,1.98-1.58,4.35-2.77,7.12-2.77,5.93,0,11.07,5.14,11.07,11.07,0,3.16-1.58,6.33-3.95,8.3-31.63,26.49-58.91,100.81-58.91,157.75,0,44.68,16.6,65.23,27.67,65.23,7.12,0,16.6-11.07,16.6-43.49v-209.54c0-49.02-39.14-26.09-66.81-6.33-1.98,1.19-3.95,1.98-6.32,1.98Z"/><path class="cls-10" d="m1064.97,3735.24c7.51,0,12.65,7.12,10.28,14.23-16.21,50.61-66.81,68-113.47,70.37-5.93.39-11.47-4.35-11.47-11.07,0-5.53,4.74-10.28,10.68-10.67,40.72-1.98,81.05-16.21,93.7-55.35,1.19-4.35,5.14-7.51,10.28-7.51Z"/><path class="cls-10" d="m1051.13,3575.52c0-7.91,6.33-14.63,14.63-14.63s14.23,6.72,14.23,14.63c0,8.3-6.32,15.02-14.23,15.02-8.3,0-14.63-6.72-14.63-15.02Z"/><path class="cls-10" d="m1065.36,3618.22c5.93,0,11.07,5.14,11.07,11.07v134.42c0,18.19,12.65,29.65,26.88,29.65,18.19,0,40.72-19.37,43.09-73.14.39-5.93,5.14-10.67,10.67-10.67,6.72,0,11.47,5.54,11.07,11.47-3.16,66.81-35.19,94.09-64.84,94.09-25.7,0-48.63-20.56-48.63-51.4v-134.42c0-5.93,4.74-11.07,10.67-11.07Z"/><path class="cls-10" d="m1146.41,3717.45c0-52.58,28.07-98.05,66.81-98.05,47.44,0,69.98,50.21,69.98,97.26s-22.93,98.44-69.98,98.44c-38.75,0-66.81-45.07-66.81-97.65Zm115.05-.79c0-39.14-16.61-75.51-48.23-75.51-23.72,0-45.07,33.21-45.07,76.3s21.35,75.91,45.07,75.91c31.23,0,48.23-37.16,48.23-76.7Z"/><path class="cls-10" d="m1268.97,3807.59c5.93,0,11.07,5.14,11.07,11.07,0,3.16-1.58,6.33-3.95,8.3-31.63,26.49-58.91,100.81-58.91,157.75,0,44.68,16.61,65.23,27.67,65.23,7.12,0,16.61-11.07,16.61-43.49v-377.17c0-5.93,4.74-11.07,10.67-11.07s11.07,5.14,11.07,11.07v377.17c0,45.07-17.4,65.23-38.35,65.23-26.09,0-49.42-31.63-49.42-86.98,0-62.07,28.86-141.93,66.42-174.35,1.98-1.58,4.35-2.77,7.12-2.77Z"/><path class="cls-10" d="m1367.81,3736.82c7.51,0,12.65,7.91,10.28,14.23-16.21,48.63-52.58,66.42-97.65,68.79-5.54.39-11.47-4.35-11.47-11.07,0-5.53,4.74-10.28,10.28-10.67,38.35-1.98,65.63-15.81,78.28-53.77,1.58-4.35,5.54-7.51,10.28-7.51Z"/><path class="cls-10" d="m1354.36,3717.45c0-52.58,28.86-98.05,67.6-98.05,47.44,0,69.98,50.21,69.98,97.26s-22.93,98.44-69.98,98.44c-38.74,0-67.6-45.07-67.6-97.65Zm115.84-.79c0-39.14-16.6-75.51-48.23-75.51-23.72,0-45.86,33.21-45.86,76.3s22.14,75.91,45.86,75.91c31.23,0,48.23-37.16,48.23-76.7Z"/><path class="cls-10" d="m1572.2,3658.94c5.93,0,10.68,4.74,10.68,10.67,0,3.16-1.58,6.33-3.56,8.3-19.77,17.4-54.16,25.3-85.4,25.3-39.53,0-79.47-12.65-79.47-42.7,0-15.02,9.09-26.09,30.84-28.86,6.33-.79,12.26,4.35,12.26,10.67,0,5.54-4.35,10.28-9.88,10.67-9.49,1.19-11.47,3.56-11.47,7.51,0,11.47,25.3,20.95,57.72,20.95,28.07,0,56.54-6.72,70.77-19.77,1.98-1.58,4.35-2.77,7.51-2.77Z"/><path class="cls-10" d="m1033.72,455.16c-45.47,0-76.7,29.65-76.7,91.33s-30.05,82.63-53.77,82.63c-15.42,0-28.07-11.47-28.07-29.65v-63.54c-7.24-.15-14.5-.11-21.74-.04v63.57c0,30.84,23.33,51.4,49.81,51.4,34.79,0,75.51-32.42,75.51-104.37,0-49.02,21.35-69.58,54.95-69.58s52.98,19.37,52.98,66.42v16.53c7.25.51,14.49,1.06,21.75,1.29v-17.82c0-59.7-30.44-88.16-74.72-88.16Z"/><line class="cls-2" x1="404.8" y1="1717.92" x2="404.8" y2="1718.79"/><line class="cls-5" x1="404.8" y1="1735.99" x2="404.8" y2="2011.1"/><line class="cls-2" x1="404.8" y1="2019.69" x2="404.8" y2="2020.57"/><path class="cls-10" d="m302.05,2048.6h3.15l17.69,27.6h.04v-27.6h2.94v32.77h-3.07l-17.77-27.93h-.04v27.93h-2.94v-32.77Z"/><path class="cls-10" d="m333.21,2075.57c0-3.95,2.23-6.09,7.86-6.09h6.34v-1.72c0-2.98-1.26-5.42-5.46-5.42-3.95,0-5.33,1.51-5.33,4.12v.88h-2.98v-.84c0-5,4.2-6.68,8.32-6.68,5.8,0,8.4,2.86,8.4,8.44v13.11h-2.06l-.55-2.98h-.08c-1.26,1.89-3.7,3.53-7.35,3.53-4.92,0-7.1-2.31-7.1-6.34Zm14.2-1.85v-1.76h-7.01c-2.65,0-4.03.92-4.03,3.61,0,2.35,1.26,3.86,4.5,3.86,4.16,0,6.55-2.14,6.55-5.71Z"/><path class="cls-10" d="m357.7,2060.36h2.6l.29,3.91c1.01-2.14,3.07-4.45,6.76-4.45,1.26,0,2.18.21,3.02.55v3.15c-1.13-.5-2.1-.76-3.4-.76-3.74,0-6.34,2.81-6.34,5.75v12.85h-2.94v-21Z"/><path class="cls-10" d="m375,2060.36h2.6l.29,3.91c1.01-2.14,3.07-4.45,6.76-4.45,1.26,0,2.18.21,3.02.55v3.15c-1.13-.5-2.1-.76-3.4-.76-3.74,0-6.34,2.81-6.34,5.75v12.85h-2.94v-21Z"/><path class="cls-10" d="m390,2070.86c0-6.22,3.32-11.05,10.38-11.05,6.59,0,10.25,4.83,10.25,11.05s-3.7,11.05-10.29,11.05c-7.27,0-10.33-4.83-10.33-11.05Zm17.56,0c0-5.33-2.9-8.49-7.22-8.49-4.75,0-7.27,3.15-7.27,8.49s2.56,8.49,7.27,8.49c4.33,0,7.22-3.15,7.22-8.49Z"/><path class="cls-10" d="m412.93,2060.4v-.04h2.98l5.75,17.48h.08l6.3-17.48h2.69l6.17,17.48h.08l5.75-17.48h2.86v.04l-7.18,20.96h-3.02l-5.96-17.06h-.08l-6.22,17.06h-3.02l-7.18-20.96Z"/><path class="cls-10" d="m461.78,2059.06h-3.36v-5.08c0-3.95.88-5.29,3.4-5.97l.67,1.85c-1.76.67-2.06,1.09-2.06,3.78v.34h1.34v5.08Zm5.92,0h-3.36v-5.08c0-3.95.88-5.29,3.4-5.97l.67,1.85c-1.76.67-2.06,1.09-2.06,3.78v.34h1.34v5.08Z"/><path class="cls-10" d="m473.24,2072.92v-2.02h3.02v2.18c0,3.74,2.6,6.05,7.94,6.05s8.44-1.97,8.44-6.22c0-3.32-1.39-5.17-4.92-6.09l-6.64-1.72c-4.33-1.13-7.18-2.98-7.18-8.15s3.78-8.91,10.92-8.91,10.59,3.44,10.59,9.07v2.94h-3.02v-2.81c0-4.62-3.07-6.51-7.56-6.51-5.12,0-7.81,2.14-7.81,6.01,0,3.61,1.76,4.71,5.55,5.71l5.75,1.55c5.12,1.39,7.43,3.74,7.43,8.65,0,6.09-4.33,9.24-11.47,9.24-9.12,0-11.05-4.71-11.05-8.99Z"/><path class="cls-10" d="m499.58,2057.8c1.76-.67,2.06-1.09,2.06-3.78v-.34h-1.34v-5.08h3.36v5.08c0,3.95-.88,5.29-3.4,5.96l-.67-1.85Zm5.92,0c1.76-.67,2.06-1.09,2.06-3.78v-.34h-1.34v-5.08h3.36v5.08c0,3.95-.88,5.29-3.4,5.96l-.67-1.85Z"/><path class="cls-10" d="m1297.07,2017.21v-19.95h2.94v19.95c0,9.41,4.07,10.63,8.86,10.63s8.78-1.01,8.78-10.63v-19.95h2.94v19.62c0,11.64-5.33,13.69-11.76,13.69s-11.76-2.06-11.76-13.36Z"/><path class="cls-10" d="m1328.36,2009.02h2.39l.34,3.86h.08c1.13-2.48,4.03-4.41,7.86-4.41,6.3,0,9.66,3.99,9.66,11.01s-4.29,11.09-9.87,11.09c-3.78,0-6.39-1.6-7.44-3.7h-.08v11.55h-2.94v-29.41Zm17.18,10.63c0-7.18-3.4-8.61-6.93-8.61-4.24,0-7.56,2.73-7.56,8.44,0,6.01,3.44,8.57,7.43,8.57,3.03,0,7.06-1.47,7.06-8.4Z"/><path class="cls-10" d="m1354.57,2009.02h2.6l.29,3.91c1.01-2.14,3.07-4.45,6.76-4.45,1.26,0,2.19.21,3.03.55v3.15c-1.13-.5-2.1-.76-3.4-.76-3.74,0-6.34,2.81-6.34,5.75v12.85h-2.94v-21Z"/><path class="cls-10" d="m1371.87,1997.26h2.98v6.51h-2.98v-6.51Zm0,11.76h2.94v21h-2.94v-21Z"/><path class="cls-10" d="m1381.57,2031.83v-.12h3.11v.12c0,2.9,1.93,4.33,6.13,4.33,4.79,0,7.02-2.94,7.02-7.86v-2.1h-.08c-1.09,2.19-3.65,4.08-7.48,4.08-6.3,0-9.75-3.99-9.75-10.71,0-7.1,4.37-11.09,9.96-11.09,3.78,0,6.55,1.81,7.56,4.12h.12l.29-3.57h2.31v19.16c0,5.88-2.81,10.71-10.33,10.71-6.3,0-8.86-2.98-8.86-7.06Zm16.59-12.77c0-5.5-3.36-8.07-7.35-8.07-3.02,0-7.14,1.47-7.14,8.4s3.57,8.32,7.1,8.32c4.24,0,7.39-2.73,7.39-8.65Z"/><path class="cls-10" d="m1408.12,1997.26h2.94v15.17c1.05-2.1,3.28-3.95,7.31-3.95,4.75,0,7.77,2.52,7.77,7.94v13.61h-2.94v-13.27c0-4.33-2.14-5.71-5.5-5.71-3.82,0-6.64,2.69-6.64,5.63v13.36h-2.94v-32.77Z"/><path class="cls-10" d="m1444.45,2027.34v2.6c-.76.21-2.14.59-4.03.59-3.82,0-6.34-1.6-6.34-6.89v-12.18h-4.16v-2.44h4.16v-6.05l2.94-1.43v7.48h5.92v2.44h-5.92v11.8c0,2.81.76,4.58,3.4,4.58,1.6,0,3.23-.29,4.03-.5Z"/><path class="cls-12" d="m1033.72,455.16c-45.47,0-76.7,29.65-76.7,91.33s-30.05,82.63-53.77,82.63c-7.13,0-13.66-2.46-18.63-6.89-5.29,4.98-10.31,10.21-16.15,14.56,9.14,8.96,21.56,14.08,34.78,14.08,34.79,0,75.51-32.42,75.51-104.37,0-49.02,21.35-69.58,54.95-69.58s52.98,19.37,52.98,66.42v16.53c7.25.51,14.49,1.06,21.75,1.29v-17.82c0-59.7-30.44-88.16-74.72-88.16Z"/><polyline class="cls-4" points="868.48 695.94 868.48 695.94 868.48 724.17 1108.44 724.17 1108.44 695.94"/><line class="cls-2" x1="1030.92" y1="2233.26" x2="1030.92" y2="2234.13"/><line class="cls-9" x1="1030.92" y1="2251.26" x2="1030.92" y2="2506.47"/><line class="cls-2" x1="1030.92" y1="2515.03" x2="1030.92" y2="2515.9"/><path class="cls-10" d="m957.03,2173.36h8.36c11.05,0,17.39,4.54,17.39,16.42s-6.26,16.34-17.18,16.34h-8.57v-32.77Zm8.65,30.12c9.41,0,14.03-3.74,14.03-13.78s-4.49-13.74-14.07-13.74h-5.67v27.51h5.71Z"/><path class="cls-10" d="m1006.34,2196.63h-15.96c.17,4.79,2.48,7.48,6.93,7.48,3.82,0,5.67-1.43,5.96-4.83h2.98c-.29,4.24-3.28,7.39-9.03,7.39-7.06,0-9.83-4.66-9.83-10.88s3.23-11.22,10-11.22,8.95,3.99,8.95,10.21v1.85Zm-3.11-2.98c0-4.45-1.72-6.55-5.92-6.55s-6.55,2.65-6.89,6.97h12.81v-.42Z"/><path class="cls-10" d="m1010.54,2195.79c0-6.38,3.23-11.22,10-11.22s8.95,3.91,8.95,8.95v.42h-3.11v-.63c0-3.82-1.64-6.09-5.84-6.09-4.75,0-7.02,3.11-7.02,8.4,0,5.63,2.39,8.49,6.93,8.49,3.82,0,5.84-1.85,5.92-5.67h3.03c-.08,4.66-3.15,8.23-9.03,8.23-7.23,0-9.83-4.75-9.83-10.88Z"/><path class="cls-10" d="m1033.68,2195.62c0-6.22,3.32-11.05,10.38-11.05,6.59,0,10.25,4.83,10.25,11.05s-3.7,11.05-10.29,11.05c-7.27,0-10.33-4.83-10.33-11.05Zm17.56,0c0-5.33-2.9-8.49-7.23-8.49-4.75,0-7.27,3.15-7.27,8.49s2.56,8.49,7.27,8.49c4.33,0,7.23-3.15,7.23-8.49Z"/><path class="cls-10" d="m1060.18,2185.12h2.61l.29,3.91c1.01-2.14,3.07-4.45,6.76-4.45,1.26,0,2.18.21,3.02.55v3.15c-1.13-.5-2.1-.76-3.4-.76-3.74,0-6.34,2.81-6.34,5.75v12.85h-2.94v-21Z"/><path class="cls-10" d="m1075.8,2200.33c0-3.95,2.23-6.09,7.86-6.09h6.34v-1.72c0-2.98-1.26-5.42-5.46-5.42-3.95,0-5.33,1.51-5.33,4.12v.88h-2.98v-.84c0-5,4.2-6.68,8.32-6.68,5.8,0,8.4,2.86,8.4,8.44v13.11h-2.06l-.55-2.98h-.08c-1.26,1.89-3.7,3.53-7.35,3.53-4.91,0-7.1-2.31-7.1-6.34Zm14.2-1.85v-1.76h-7.02c-2.65,0-4.03.92-4.03,3.61,0,2.35,1.26,3.87,4.5,3.87,4.16,0,6.55-2.14,6.55-5.71Z"/><path class="cls-10" d="m1111.04,2203.44v2.6c-.76.21-2.14.59-4.03.59-3.82,0-6.34-1.6-6.34-6.89v-12.18h-4.16v-2.44h4.16v-6.05l2.94-1.43v7.48h5.92v2.44h-5.92v11.8c0,2.81.76,4.58,3.4,4.58,1.6,0,3.24-.29,4.03-.5Z"/><path class="cls-10" d="m1115.87,2173.36h2.98v6.51h-2.98v-6.51Zm0,11.76h2.94v21h-2.94v-21Z"/><path class="cls-10" d="m1123.05,2185.16v-.04h3.36l7.35,17.98h.08l7.1-17.98h3.07v.04l-8.74,20.96h-3.02l-9.2-20.96Z"/><path class="cls-10" d="m1164.85,2196.63h-15.96c.17,4.79,2.48,7.48,6.93,7.48,3.82,0,5.67-1.43,5.97-4.83h2.98c-.29,4.24-3.28,7.39-9.03,7.39-7.06,0-9.83-4.66-9.83-10.88s3.23-11.22,10-11.22,8.95,3.99,8.95,10.21v1.85Zm-3.11-2.98c0-4.45-1.72-6.55-5.92-6.55s-6.55,2.65-6.89,6.97h12.81v-.42Z"/><path class="cls-10" d="m1177.44,2185.12h4.16v-5.42c0-5.29,3.15-6.89,6.38-6.89,1.85,0,2.98.29,3.74.55v2.6c-.71-.21-1.89-.46-3.49-.46-2.65,0-3.7,1.76-3.7,4.58v5.04h14.07v21h-2.94v-18.57h-11.13v18.57h-2.94v-18.57h-4.16v-2.44Zm18.23-11.76h2.98v6.51h-2.98v-6.51Z"/><path class="cls-10" d="m1206,2185.12h2.6l.29,3.49c1.01-2.14,3.28-4.03,7.35-4.03,4.75,0,7.77,2.52,7.77,7.94v13.61h-2.94v-13.27c0-4.33-2.14-5.71-5.5-5.71-3.82,0-6.64,2.69-6.64,5.63v13.36h-2.94v-21Z"/><path class="cls-10" d="m1231.37,2173.36h2.98v6.51h-2.98v-6.51Zm0,11.76h2.94v21h-2.94v-21Z"/><path class="cls-10" d="m1240.44,2200.33c0-3.95,2.23-6.09,7.86-6.09h6.34v-1.72c0-2.98-1.26-5.42-5.46-5.42-3.95,0-5.33,1.51-5.33,4.12v.88h-2.98v-.84c0-5,4.2-6.68,8.32-6.68,5.8,0,8.4,2.86,8.4,8.44v13.11h-2.06l-.55-2.98h-.08c-1.26,1.89-3.7,3.53-7.35,3.53-4.92,0-7.1-2.31-7.1-6.34Zm14.2-1.85v-1.76h-7.01c-2.65,0-4.03.92-4.03,3.61,0,2.35,1.26,3.87,4.5,3.87,4.16,0,6.55-2.14,6.55-5.71Z"/><path class="cls-10" d="m1264.93,2173.36h2.94v32.77h-2.94v-32.77Z"/><path class="cls-10" d="m1283.2,2195.62c0-6.22,3.32-11.05,10.38-11.05,6.59,0,10.25,4.83,10.25,11.05s-3.7,11.05-10.29,11.05c-7.27,0-10.33-4.83-10.33-11.05Zm17.56,0c0-5.33-2.9-8.49-7.22-8.49-4.75,0-7.27,3.15-7.27,8.49s2.56,8.49,7.27,8.49c4.33,0,7.22-3.15,7.22-8.49Z"/><path class="cls-10" d="m1309.7,2185.12h2.6l.29,3.49c1.01-2.14,3.28-4.03,7.35-4.03,4.75,0,7.77,2.52,7.77,7.94v13.61h-2.94v-13.27c0-4.33-2.14-5.71-5.5-5.71-3.82,0-6.64,2.69-6.64,5.63v13.36h-2.94v-21Z"/><path class="cls-10" d="m1346.41,2183.82h-3.36v-5.08c0-3.95.88-5.29,3.4-5.96l.67,1.85c-1.76.67-2.06,1.09-2.06,3.78v.34h1.34v5.08Zm5.92,0h-3.36v-5.08c0-3.95.88-5.29,3.4-5.96l.67,1.85c-1.76.67-2.06,1.09-2.06,3.78v.34h1.34v5.08Z"/><path class="cls-10" d="m1355.35,2195.79c0-6.38,3.23-11.22,10-11.22s8.95,3.91,8.95,8.95v.42h-3.11v-.63c0-3.82-1.64-6.09-5.84-6.09-4.75,0-7.02,3.11-7.02,8.4,0,5.63,2.39,8.49,6.93,8.49,3.82,0,5.84-1.85,5.92-5.67h3.02c-.08,4.66-3.15,8.23-9.03,8.23-7.22,0-9.83-4.75-9.83-10.88Z"/><path class="cls-10" d="m1375.55,2182.56c1.76-.67,2.06-1.09,2.06-3.78v-.34h-1.34v-5.08h3.36v5.08c0,3.95-.88,5.29-3.4,5.96l-.67-1.85Zm5.92,0c1.76-.67,2.06-1.09,2.06-3.78v-.34h-1.34v-5.08h3.36v5.08c0,3.95-.88,5.29-3.4,5.96l-.67-1.85Z"/><line class="cls-2" x1="981.3" y1="748.67" x2="981.3" y2="749.54"/><line class="cls-7" x1="981.3" y1="766.4" x2="981.3" y2="962.01"/><line class="cls-2" x1="981.3" y1="970.44" x2="981.3" y2="971.31"/><path class="cls-10" d="m796.2,1001.34h2.94v30.12h15.71v2.65h-18.65v-32.77Z"/><path class="cls-10" d="m817.99,1023.61c0-6.22,3.32-11.05,10.38-11.05,6.59,0,10.25,4.83,10.25,11.05s-3.7,11.05-10.29,11.05c-7.27,0-10.33-4.83-10.33-11.05Zm17.56,0c0-5.33-2.9-8.49-7.23-8.49-4.75,0-7.27,3.15-7.27,8.49s2.56,8.49,7.27,8.49c4.33,0,7.23-3.15,7.23-8.49Z"/><path class="cls-10" d="m844.5,1013.11h2.6l.29,3.49c1.01-2.14,3.28-4.03,7.35-4.03,4.75,0,7.77,2.52,7.77,7.94v13.61h-2.94v-13.27c0-4.33-2.14-5.71-5.5-5.71-3.82,0-6.64,2.69-6.64,5.63v13.36h-2.94v-21Z"/><path class="cls-10" d="m869.23,1035.92v-.13h3.11v.13c0,2.9,1.93,4.33,6.13,4.33,4.79,0,7.02-2.94,7.02-7.86v-2.1h-.08c-1.09,2.18-3.65,4.07-7.48,4.07-6.3,0-9.75-3.99-9.75-10.71,0-7.1,4.37-11.09,9.96-11.09,3.78,0,6.55,1.81,7.56,4.12h.13l.29-3.57h2.31v19.16c0,5.88-2.81,10.71-10.33,10.71-6.3,0-8.86-2.98-8.86-7.06Zm16.59-12.77c0-5.5-3.36-8.07-7.35-8.07-3.02,0-7.14,1.47-7.14,8.4s3.57,8.32,7.1,8.32c4.24,0,7.39-2.73,7.39-8.65Z"/><path class="cls-10" d="m904.18,1028.31c0-3.95,2.23-6.09,7.86-6.09h6.34v-1.72c0-2.98-1.26-5.42-5.46-5.42-3.95,0-5.33,1.51-5.33,4.12v.88h-2.98v-.84c0-5,4.2-6.68,8.32-6.68,5.8,0,8.4,2.86,8.4,8.44v13.11h-2.06l-.55-2.98h-.08c-1.26,1.89-3.7,3.53-7.35,3.53-4.92,0-7.1-2.31-7.1-6.34Zm14.2-1.85v-1.76h-7.01c-2.65,0-4.03.92-4.03,3.61,0,2.35,1.26,3.87,4.49,3.87,4.16,0,6.55-2.14,6.55-5.71Z"/><path class="cls-10" d="m928.66,1013.11h2.6l.29,3.49c1.01-2.14,3.28-4.03,7.35-4.03,4.75,0,7.77,2.52,7.77,7.94v13.61h-2.94v-13.27c0-4.33-2.14-5.71-5.5-5.71-3.82,0-6.64,2.69-6.64,5.63v13.36h-2.94v-21Z"/><path class="cls-10" d="m952.35,1023.65c0-7.1,4.28-11.09,10.04-11.09,3.7,0,6.22,1.6,7.31,3.74h.04v-14.96h2.94v32.77h-1.97l-.67-3.61h-.08c-1.18,2.31-3.95,4.16-7.77,4.16-6.3,0-9.83-3.99-9.83-11.01Zm17.64-.5c0-5.5-3.36-8.07-7.35-8.07-3.11,0-7.14,1.47-7.14,8.4s3.61,8.61,7.14,8.61c4.24,0,7.35-2.73,7.35-8.95Z"/><path class="cls-10" d="m986.96,1013.15v-.04h2.98l5.76,17.48h.08l6.3-17.48h2.69l6.18,17.48h.08l5.75-17.48h2.86v.04l-7.18,20.96h-3.02l-5.96-17.05h-.08l-6.22,17.05h-3.02l-7.18-20.96Z"/><path class="cls-10" d="m1024.46,1001.34h2.98v6.51h-2.98v-6.51Zm0,11.76h2.94v21h-2.94v-21Z"/><path class="cls-10" d="m1033.12,1023.65c0-7.1,4.29-11.09,10.04-11.09,3.7,0,6.22,1.6,7.31,3.74h.04v-14.96h2.94v32.77h-1.97l-.67-3.61h-.08c-1.18,2.31-3.95,4.16-7.77,4.16-6.3,0-9.83-3.99-9.83-11.01Zm17.64-.5c0-5.5-3.36-8.07-7.35-8.07-3.11,0-7.14,1.47-7.14,8.4s3.61,8.61,7.14,8.61c4.24,0,7.35-2.73,7.35-8.95Z"/><path class="cls-10" d="m1078.06,1024.62h-15.96c.17,4.79,2.48,7.48,6.93,7.48,3.82,0,5.67-1.43,5.96-4.83h2.98c-.29,4.24-3.28,7.39-9.03,7.39-7.06,0-9.83-4.66-9.83-10.88s3.23-11.22,10-11.22,8.95,3.99,8.95,10.21v1.85Zm-3.11-2.98c0-4.45-1.72-6.55-5.92-6.55s-6.55,2.65-6.89,6.97h12.81v-.42Z"/><path class="cls-10" d="m1110.86,1024.62h-15.96c.17,4.79,2.48,7.48,6.93,7.48,3.82,0,5.67-1.43,5.97-4.83h2.98c-.29,4.24-3.28,7.39-9.03,7.39-7.06,0-9.83-4.66-9.83-10.88s3.23-11.22,10-11.22,8.95,3.99,8.95,10.21v1.85Zm-3.11-2.98c0-4.45-1.72-6.55-5.92-6.55s-6.55,2.65-6.89,6.97h12.81v-.42Z"/><path class="cls-10" d="m1116.74,1013.11h2.61l.29,3.49c1.01-2.14,3.28-4.03,7.35-4.03,4.75,0,7.77,2.52,7.77,7.94v13.61h-2.94v-13.27c0-4.33-2.14-5.71-5.5-5.71-3.82,0-6.64,2.69-6.64,5.63v13.36h-2.94v-21Z"/><path class="cls-10" d="m1153.07,1031.42v2.6c-.76.21-2.14.59-4.03.59-3.82,0-6.34-1.6-6.34-6.89v-12.18h-4.16v-2.44h4.16v-6.05l2.94-1.43v7.48h5.92v2.44h-5.92v11.8c0,2.81.76,4.58,3.4,4.58,1.6,0,3.23-.29,4.03-.5Z"/><path class="cls-10" d="m1157.9,1013.11h2.61l.29,3.91c1.01-2.14,3.07-4.45,6.76-4.45,1.26,0,2.19.21,3.03.55v3.15c-1.13-.5-2.1-.76-3.4-.76-3.74,0-6.34,2.81-6.34,5.75v12.85h-2.94v-21Z"/><path class="cls-10" d="m1175.41,1013.11l6.89,17.98h.08l7.14-17.98h3.07v.04l-8.86,20.84-3.11,8.53h-2.98v-.04l3.19-8.36-8.78-20.96v-.04h3.36Z"/><path class="cls-10" d="m1204.56,1027.68v-1.18h2.94v1.13c0,2.86,2.14,4.5,5.96,4.5s5.8-1.01,5.8-3.78c0-2.06-1.01-2.81-3.87-3.32l-4.62-.84c-3.02-.55-5.54-2.02-5.54-5.5,0-3.15,2.35-6.13,8.4-6.13s8.4,3.02,8.4,7.23v.88h-2.98v-.76c0-3.44-2.14-4.92-5.42-4.92-3.95,0-5.34,1.34-5.34,3.36s1.01,2.86,3.91,3.4l4.03.76c4.12.76,6.09,1.93,6.09,5.59,0,4.58-4.12,6.55-8.78,6.55-7.31,0-8.99-3.28-8.99-6.97Z"/><path class="cls-10" d="m1239.17,1031.42v2.6c-.76.21-2.14.59-4.03.59-3.82,0-6.34-1.6-6.34-6.89v-12.18h-4.16v-2.44h4.16v-6.05l2.94-1.43v7.48h5.92v2.44h-5.92v11.8c0,2.81.76,4.58,3.4,4.58,1.6,0,3.23-.29,4.03-.5Z"/><path class="cls-10" d="m1244,1013.11h2.61l.29,3.91c1.01-2.14,3.07-4.45,6.76-4.45,1.26,0,2.19.21,3.03.55v3.15c-1.13-.5-2.1-.76-3.4-.76-3.74,0-6.34,2.81-6.34,5.75v12.85h-2.94v-21Z"/><path class="cls-10" d="m1258.99,1023.61c0-6.22,3.32-11.05,10.38-11.05,6.6,0,10.25,4.83,10.25,11.05s-3.7,11.05-10.29,11.05c-7.27,0-10.33-4.83-10.33-11.05Zm17.56,0c0-5.33-2.9-8.49-7.22-8.49-4.75,0-7.27,3.15-7.27,8.49s2.56,8.49,7.27,8.49c4.33,0,7.22-3.15,7.22-8.49Z"/><path class="cls-10" d="m1284.87,1001.34h2.94v23.23l12.14-11.47h3.65v.04l-8.4,7.86,8.78,13.06v.04h-3.36l-7.39-11.22-5.42,5.04v6.17h-2.94v-32.77Z"/><path class="cls-10" d="m1325.23,1024.62h-15.96c.17,4.79,2.48,7.48,6.93,7.48,3.82,0,5.67-1.43,5.96-4.83h2.98c-.29,4.24-3.28,7.39-9.03,7.39-7.06,0-9.83-4.66-9.83-10.88s3.23-11.22,10-11.22,8.95,3.99,8.95,10.21v1.85Zm-3.11-2.98c0-4.45-1.72-6.55-5.92-6.55s-6.55,2.65-6.89,6.97h12.81v-.42Z"/><path class="cls-10" d="m1340.77,1001.34h2.98v6.51h-2.98v-6.51Zm0,11.76h2.94v21h-2.94v-21Z"/><path class="cls-10" d="m1351.1,1013.11h2.6l.29,3.49c1.01-2.14,3.28-4.03,7.35-4.03,4.75,0,7.77,2.52,7.77,7.94v13.61h-2.94v-13.27c0-4.33-2.14-5.71-5.5-5.71-3.82,0-6.64,2.69-6.64,5.63v13.36h-2.94v-21Z"/><path class="cls-10" d="m1387.43,1031.42v2.6c-.76.21-2.14.59-4.03.59-3.82,0-6.34-1.6-6.34-6.89v-12.18h-4.16v-2.44h4.16v-6.05l2.94-1.43v7.48h5.92v2.44h-5.92v11.8c0,2.81.76,4.58,3.4,4.58,1.6,0,3.23-.29,4.03-.5Z"/><path class="cls-10" d="m1389.95,1023.61c0-6.22,3.32-11.05,10.38-11.05,6.59,0,10.25,4.83,10.25,11.05s-3.7,11.05-10.29,11.05c-7.27,0-10.33-4.83-10.33-11.05Zm17.56,0c0-5.33-2.9-8.49-7.22-8.49-4.75,0-7.27,3.15-7.27,8.49s2.56,8.49,7.27,8.49c4.33,0,7.22-3.15,7.22-8.49Z"/><path class="cls-10" d="m1427.79,1011.8h-3.36v-5.08c0-3.95.88-5.29,3.4-5.96l.67,1.85c-1.76.67-2.06,1.09-2.06,3.78v.34h1.34v5.08Zm5.92,0h-3.36v-5.08c0-3.95.88-5.29,3.4-5.96l.67,1.85c-1.77.67-2.06,1.09-2.06,3.78v.34h1.34v5.08Z"/><path class="cls-10" d="m1440.1,1013.11h2.6l.29,3.49c1.01-2.14,3.28-4.03,7.35-4.03,4.75,0,7.77,2.52,7.77,7.94v13.61h-2.94v-13.27c0-4.33-2.14-5.71-5.5-5.71-3.82,0-6.64,2.69-6.64,5.63v13.36h-2.94v-21Z"/><path class="cls-10" d="m1462.53,1010.54c1.76-.67,2.06-1.09,2.06-3.78v-.34h-1.34v-5.08h3.36v5.08c0,3.95-.88,5.29-3.4,5.96l-.67-1.85Zm5.92,0c1.77-.67,2.06-1.09,2.06-3.78v-.34h-1.34v-5.08h3.36v5.08c0,3.95-.88,5.29-3.4,5.96l-.67-1.85Z"/><path class="cls-10" d="m1486.8,1028.31c0-3.95,2.23-6.09,7.86-6.09h6.34v-1.72c0-2.98-1.26-5.42-5.46-5.42-3.95,0-5.34,1.51-5.34,4.12v.88h-2.98v-.84c0-5,4.2-6.68,8.32-6.68,5.8,0,8.4,2.86,8.4,8.44v13.11h-2.06l-.55-2.98h-.08c-1.26,1.89-3.7,3.53-7.35,3.53-4.91,0-7.1-2.31-7.1-6.34Zm14.2-1.85v-1.76h-7.02c-2.65,0-4.03.92-4.03,3.61,0,2.35,1.26,3.87,4.5,3.87,4.16,0,6.55-2.14,6.55-5.71Z"/><path class="cls-10" d="m1511.29,1013.11h2.6l.29,3.49c1.01-2.14,3.28-4.03,7.35-4.03,4.75,0,7.77,2.52,7.77,7.94v13.61h-2.94v-13.27c0-4.33-2.14-5.71-5.5-5.71-3.82,0-6.64,2.69-6.64,5.63v13.36h-2.94v-21Z"/><path class="cls-10" d="m1534.97,1023.65c0-7.1,4.29-11.09,10.04-11.09,3.7,0,6.22,1.6,7.31,3.74h.04v-14.96h2.94v32.77h-1.97l-.67-3.61h-.08c-1.18,2.31-3.95,4.16-7.77,4.16-6.3,0-9.83-3.99-9.83-11.01Zm17.64-.5c0-5.5-3.36-8.07-7.35-8.07-3.11,0-7.14,1.47-7.14,8.4s3.61,8.61,7.14,8.61c4.24,0,7.35-2.73,7.35-8.95Z"/><path class="cls-10" d="m1573.99,1011.8h-3.36v-5.08c0-3.95.88-5.29,3.4-5.96l.67,1.85c-1.76.67-2.06,1.09-2.06,3.78v.34h1.34v5.08Zm5.92,0h-3.36v-5.08c0-3.95.88-5.29,3.4-5.96l.67,1.85c-1.76.67-2.06,1.09-2.06,3.78v.34h1.34v5.08Z"/><path class="cls-10" d="m1617.01,1020.5v13.61h-2.94v-13.27c0-4.33-2.14-5.71-4.75-5.71-3.82,0-6.18,2.69-6.18,5.63v13.36h-2.94v-13.27c0-4.33-1.85-5.71-4.83-5.71-3.61,0-6.13,2.69-6.13,5.63v13.36h-2.94v-21h2.61l.29,3.49c1.01-2.02,3.07-4.03,6.93-4.03,2.94,0,5.38,1.39,6.43,4.29,1.22-2.39,3.57-4.29,7.14-4.29,4.29,0,7.31,2.52,7.31,7.94Z"/><path class="cls-10" d="m1621.41,1010.54c1.76-.67,2.06-1.09,2.06-3.78v-.34h-1.34v-5.08h3.36v5.08c0,3.95-.88,5.29-3.4,5.96l-.67-1.85Zm5.92,0c1.77-.67,2.06-1.09,2.06-3.78v-.34h-1.34v-5.08h3.36v5.08c0,3.95-.88,5.29-3.4,5.96l-.67-1.85Z"/><path class="cls-10" d="m1097.37,651.26c-5.93,0-10.67-5.14-10.67-11.07v-93.3c0-60.88,31.23-91.33,76.7-91.33s75.12,28.47,75.12,88.16v53.77c0,20.95,7.91,31.63,18.58,31.63,29.26,0,54.95-29.65,86.58-114.26,1.58-4.35,5.54-7.12,10.28-7.12,5.93,0,10.67,4.74,10.67,10.67,0,1.58-.39,2.77-.79,3.95-33.6,90.54-64.44,128.49-106.74,128.49-24.51,0-40.33-21.74-40.33-53.37v-53.77c0-47.05-20.56-66.42-53.37-66.42s-54.95,21.35-54.95,69.58v93.3c0,5.93-5.14,11.07-11.07,11.07Z"/><line class="cls-2" x1="362.43" y1="669.88" x2="362.43" y2="670.75"/><line class="cls-5" x1="362.43" y1="687.95" x2="362.43" y2="963.06"/><line class="cls-2" x1="362.43" y1="971.65" x2="362.43" y2="972.53"/><path class="cls-10" d="m158.99,1020.52v-19.95h2.94v19.95c0,9.41,4.08,10.63,8.86,10.63s8.78-1.01,8.78-10.63v-19.95h2.94v19.62c0,11.64-5.33,13.69-11.76,13.69s-11.76-2.06-11.76-13.36Z"/><path class="cls-10" d="m190.7,1012.32h2.6l.29,3.49c1.01-2.14,3.28-4.03,7.35-4.03,4.75,0,7.77,2.52,7.77,7.94v13.61h-2.94v-13.27c0-4.33-2.14-5.71-5.5-5.71-3.82,0-6.64,2.69-6.64,5.63v13.36h-2.94v-21Z"/><path class="cls-10" d="m216.06,1000.56h2.98v6.51h-2.98v-6.51Zm0,11.76h2.94v21h-2.94v-21Z"/><path class="cls-10" d="m242.02,1029.84h-.08c-1.09,2.14-3.65,4.03-7.48,4.03-6.3,0-9.75-3.99-9.75-11.01s4.37-11.09,9.96-11.09c3.78,0,6.59,1.76,7.65,4.28h.04l.29-3.74h2.31v29.41h-2.94v-11.89Zm.34-7.48c0-5.5-3.36-8.07-7.35-8.07-3.02,0-7.14,1.47-7.14,8.4s3.57,8.61,7.1,8.61c4.24,0,7.39-2.73,7.39-8.95Z"/><path class="cls-10" d="m251.89,1025.93v-13.61h2.94v13.27c0,4.33,2.14,5.71,5.42,5.71,3.74,0,6.55-2.69,6.55-5.63v-13.36h2.94v21h-2.6l-.25-3.36h-.08c-.97,2.02-3.23,3.91-7.23,3.91-4.66,0-7.69-2.52-7.69-7.94Z"/><path class="cls-10" d="m294.35,1023.83h-15.96c.17,4.79,2.48,7.48,6.93,7.48,3.82,0,5.67-1.43,5.97-4.83h2.98c-.29,4.24-3.28,7.39-9.03,7.39-7.06,0-9.83-4.66-9.83-10.88s3.23-11.22,10-11.22,8.95,3.99,8.95,10.21v1.85Zm-3.11-2.98c0-4.45-1.72-6.55-5.92-6.55s-6.55,2.65-6.89,6.97h12.81v-.42Z"/><path class="cls-10" d="m308,1026.9v-1.18h2.94v1.13c0,2.86,2.14,4.5,5.96,4.5s5.8-1.01,5.8-3.78c0-2.06-1.01-2.81-3.86-3.32l-4.62-.84c-3.02-.55-5.54-2.02-5.54-5.5,0-3.15,2.35-6.13,8.4-6.13s8.4,3.02,8.4,7.22v.88h-2.98v-.76c0-3.44-2.14-4.91-5.42-4.91-3.95,0-5.33,1.34-5.33,3.36s1.01,2.86,3.91,3.4l4.03.76c4.12.76,6.09,1.93,6.09,5.59,0,4.58-4.12,6.55-8.78,6.55-7.31,0-8.99-3.28-8.99-6.97Z"/><path class="cls-10" d="m331.65,1000.56h2.94v15.16c1.05-2.1,3.28-3.95,7.31-3.95,4.75,0,7.77,2.52,7.77,7.94v13.61h-2.94v-13.27c0-4.33-2.14-5.71-5.5-5.71-3.82,0-6.64,2.69-6.64,5.63v13.36h-2.94v-32.77Z"/><path class="cls-10" d="m355.75,1027.53c0-3.95,2.23-6.09,7.86-6.09h6.34v-1.72c0-2.98-1.26-5.42-5.46-5.42-3.95,0-5.33,1.51-5.33,4.12v.88h-2.98v-.84c0-5,4.2-6.68,8.32-6.68,5.8,0,8.4,2.86,8.4,8.44v13.11h-2.06l-.55-2.98h-.08c-1.26,1.89-3.7,3.53-7.35,3.53-4.92,0-7.1-2.31-7.1-6.34Zm14.2-1.85v-1.76h-7.01c-2.65,0-4.03.92-4.03,3.61,0,2.35,1.26,3.86,4.5,3.86,4.16,0,6.55-2.14,6.55-5.71Z"/><path class="cls-10" d="m380.24,1012.32h2.39l.34,3.86h.08c1.13-2.48,4.03-4.41,7.86-4.41,6.3,0,9.66,3.99,9.66,11.01s-4.29,11.09-9.87,11.09c-3.78,0-6.38-1.6-7.43-3.7h-.08v11.55h-2.94v-29.41Zm17.18,10.63c0-7.18-3.4-8.61-6.93-8.61-4.24,0-7.56,2.73-7.56,8.44,0,6.01,3.45,8.57,7.44,8.57,3.02,0,7.06-1.47,7.06-8.4Z"/><path class="cls-10" d="m423.71,1023.83h-15.96c.17,4.79,2.48,7.48,6.93,7.48,3.82,0,5.67-1.43,5.97-4.83h2.98c-.29,4.24-3.28,7.39-9.03,7.39-7.06,0-9.83-4.66-9.83-10.88s3.23-11.22,10-11.22,8.95,3.99,8.95,10.21v1.85Zm-3.11-2.98c0-4.45-1.72-6.55-5.92-6.55s-6.55,2.65-6.89,6.97h12.81v-.42Z"/><path class="cls-10" d="m427.7,1026.9v-1.18h2.94v1.13c0,2.86,2.14,4.5,5.96,4.5s5.8-1.01,5.8-3.78c0-2.06-1.01-2.81-3.86-3.32l-4.62-.84c-3.02-.55-5.54-2.02-5.54-5.5,0-3.15,2.35-6.13,8.4-6.13s8.4,3.02,8.4,7.22v.88h-2.98v-.76c0-3.44-2.14-4.91-5.42-4.91-3.95,0-5.33,1.34-5.33,3.36s1.01,2.86,3.91,3.4l4.03.76c4.12.76,6.09,1.93,6.09,5.59,0,4.58-4.12,6.55-8.78,6.55-7.31,0-8.99-3.28-8.99-6.97Z"/><path class="cls-10" d="m459.33,1022.83c0-6.22,3.32-11.05,10.38-11.05,6.59,0,10.25,4.83,10.25,11.05s-3.7,11.05-10.29,11.05c-7.27,0-10.33-4.83-10.33-11.05Zm17.56,0c0-5.33-2.9-8.49-7.22-8.49-4.75,0-7.27,3.15-7.27,8.49s2.56,8.49,7.27,8.49c4.33,0,7.22-3.15,7.22-8.49Z"/><path class="cls-10" d="m489.99,1007.28v5.04h5.92v2.44h-5.92v18.57h-2.94v-18.57h-4.16v-2.44h4.16v-5.42c0-5.29,3.15-6.89,6.38-6.89,1.85,0,2.98.29,3.74.55v2.6c-.71-.21-1.89-.46-3.49-.46-2.65,0-3.7,1.76-3.7,4.58Z"/><path class="cls-10" d="m511.87,1011.02h-3.36v-5.08c0-3.95.88-5.29,3.4-5.97l.67,1.85c-1.76.67-2.06,1.09-2.06,3.78v.34h1.34v5.08Zm5.92,0h-3.36v-5.08c0-3.95.88-5.29,3.4-5.97l.67,1.85c-1.76.67-2.06,1.09-2.06,3.78v.34h1.34v5.08Z"/><path class="cls-10" d="m536.27,1033.79c-7.73-.59-13.36-5.54-13.36-16.84s6.76-16.93,15.46-16.93c7.94,0,14.7,5.21,14.7,16.59s-6.13,16.76-13.86,17.22l-.38,7.31h-2.18l-.38-7.35Zm13.69-16.84c0-10.12-5.33-14.24-12.01-14.24s-11.93,4.12-11.93,14.24,5.33,14.2,12.01,14.2,11.93-3.74,11.93-14.2Z"/><path class="cls-10" d="m557.48,1009.76c1.76-.67,2.06-1.09,2.06-3.78v-.34h-1.34v-5.08h3.36v5.08c0,3.95-.88,5.29-3.4,5.97l-.67-1.85Zm5.92,0c1.76-.67,2.06-1.09,2.06-3.78v-.34h-1.34v-5.08h3.36v5.08c0,3.95-.88,5.29-3.4,5.97l-.67-1.85Z"/><path class="cls-10" d="m577.89,1139.78h3.11l10.29,29.49h.08l10.17-29.49h3.11l-11.59,32.77h-3.57l-11.59-32.77Z"/><path class="cls-10" d="m623.38,1163.06h-15.96c.17,4.79,2.48,7.48,6.93,7.48,3.82,0,5.67-1.43,5.96-4.83h2.98c-.29,4.24-3.28,7.39-9.03,7.39-7.06,0-9.83-4.66-9.83-10.88s3.23-11.22,10-11.22,8.95,3.99,8.95,10.21v1.85Zm-3.11-2.98c0-4.45-1.72-6.55-5.92-6.55s-6.55,2.65-6.89,6.97h12.81v-.42Z"/><path class="cls-10" d="m629.26,1151.54h2.6l.29,3.91c1.01-2.14,3.07-4.45,6.76-4.45,1.26,0,2.18.21,3.02.55v3.15c-1.13-.5-2.1-.76-3.4-.76-3.74,0-6.34,2.81-6.34,5.75v12.85h-2.94v-21Z"/><path class="cls-10" d="m646.77,1151.54l6.89,17.98h.08l7.14-17.98h3.07v.04l-8.86,20.84-3.11,8.53h-2.98v-.04l3.19-8.36-8.78-20.96v-.04h3.36Z"/><path class="cls-10" d="m675.92,1166.12v-1.18h2.94v1.13c0,2.86,2.14,4.5,5.96,4.5s5.8-1.01,5.8-3.78c0-2.06-1.01-2.81-3.87-3.32l-4.62-.84c-3.02-.55-5.54-2.02-5.54-5.5,0-3.15,2.35-6.13,8.4-6.13s8.4,3.02,8.4,7.23v.88h-2.98v-.76c0-3.44-2.14-4.91-5.42-4.91-3.95,0-5.33,1.34-5.33,3.36s1.01,2.86,3.91,3.4l4.03.76c4.12.76,6.09,1.93,6.09,5.59,0,4.58-4.12,6.55-8.78,6.55-7.31,0-8.99-3.28-8.99-6.97Z"/><path class="cls-10" d="m699.56,1139.78h2.94v15.16c1.05-2.1,3.28-3.95,7.31-3.95,4.75,0,7.77,2.52,7.77,7.94v13.61h-2.94v-13.27c0-4.33-2.14-5.71-5.5-5.71-3.82,0-6.64,2.69-6.64,5.63v13.36h-2.94v-32.77Z"/><path class="cls-10" d="m723.25,1162.05c0-6.22,3.32-11.05,10.38-11.05,6.59,0,10.25,4.83,10.25,11.05s-3.7,11.05-10.29,11.05c-7.27,0-10.33-4.83-10.33-11.05Zm17.56,0c0-5.33-2.9-8.49-7.22-8.49-4.75,0-7.27,3.15-7.27,8.49s2.56,8.49,7.27,8.49c4.33,0,7.22-3.15,7.22-8.49Z"/><path class="cls-10" d="m749.75,1151.54h2.6l.29,3.91c1.01-2.14,3.07-4.45,6.76-4.45,1.26,0,2.18.21,3.02.55v3.15c-1.13-.5-2.1-.76-3.4-.76-3.74,0-6.34,2.81-6.34,5.75v12.85h-2.94v-21Z"/><path class="cls-10" d="m778.02,1169.86v2.6c-.76.21-2.14.59-4.03.59-3.82,0-6.34-1.6-6.34-6.89v-12.18h-4.16v-2.44h4.16v-6.05l2.94-1.43v7.48h5.92v2.44h-5.92v11.8c0,2.81.76,4.58,3.4,4.58,1.6,0,3.23-.29,4.03-.5Z"/><path class="cls-10" d="m791.25,1166.75c0-3.95,2.23-6.09,7.86-6.09h6.34v-1.72c0-2.98-1.26-5.42-5.46-5.42-3.95,0-5.33,1.51-5.33,4.12v.88h-2.98v-.84c0-5,4.2-6.68,8.32-6.68,5.8,0,8.4,2.86,8.4,8.44v13.11h-2.06l-.55-2.98h-.08c-1.26,1.89-3.7,3.53-7.35,3.53-4.92,0-7.1-2.31-7.1-6.34Zm14.2-1.85v-1.76h-7.01c-2.65,0-4.03.92-4.03,3.61,0,2.35,1.26,3.86,4.5,3.86,4.16,0,6.55-2.14,6.55-5.71Z"/><path class="cls-10" d="m813.85,1166.12v-1.18h2.94v1.13c0,2.86,2.14,4.5,5.96,4.5s5.8-1.01,5.8-3.78c0-2.06-1.01-2.81-3.86-3.32l-4.62-.84c-3.02-.55-5.54-2.02-5.54-5.5,0-3.15,2.35-6.13,8.4-6.13s8.4,3.02,8.4,7.23v.88h-2.98v-.76c0-3.44-2.14-4.91-5.42-4.91-3.95,0-5.33,1.34-5.33,3.36s1.01,2.86,3.91,3.4l4.03.76c4.12.76,6.09,1.93,6.09,5.59,0,4.58-4.12,6.55-8.78,6.55-7.31,0-8.99-3.28-8.99-6.97Z"/><path class="cls-10" d="m835.81,1162.21c0-6.38,3.23-11.22,10-11.22s8.95,3.91,8.95,8.95v.42h-3.11v-.63c0-3.82-1.64-6.09-5.84-6.09-4.75,0-7.01,3.11-7.01,8.4,0,5.63,2.39,8.49,6.93,8.49,3.82,0,5.84-1.85,5.92-5.67h3.02c-.08,4.66-3.15,8.23-9.03,8.23-7.22,0-9.83-4.75-9.83-10.88Z"/><path class="cls-10" d="m877.9,1163.06h-15.96c.17,4.79,2.48,7.48,6.93,7.48,3.82,0,5.67-1.43,5.97-4.83h2.98c-.29,4.24-3.28,7.39-9.03,7.39-7.06,0-9.83-4.66-9.83-10.88s3.23-11.22,10-11.22,8.95,3.99,8.95,10.21v1.85Zm-3.11-2.98c0-4.45-1.72-6.55-5.92-6.55s-6.55,2.65-6.89,6.97h12.81v-.42Z"/><path class="cls-10" d="m883.78,1151.54h2.6l.29,3.49c1.01-2.14,3.28-4.03,7.35-4.03,4.75,0,7.77,2.52,7.77,7.94v13.61h-2.94v-13.27c0-4.33-2.14-5.71-5.5-5.71-3.82,0-6.64,2.69-6.64,5.63v13.36h-2.94v-21Z"/><path class="cls-10" d="m907.46,1162.09c0-7.1,4.28-11.09,10.04-11.09,3.7,0,6.22,1.6,7.31,3.74h.04v-14.95h2.94v32.77h-1.97l-.67-3.61h-.08c-1.18,2.31-3.95,4.16-7.77,4.16-6.3,0-9.83-3.99-9.83-11.01Zm17.64-.5c0-5.5-3.36-8.07-7.35-8.07-3.11,0-7.14,1.47-7.14,8.4s3.61,8.61,7.14,8.61c4.24,0,7.35-2.73,7.35-8.95Z"/><path class="cls-10" d="m952.41,1163.06h-15.96c.17,4.79,2.48,7.48,6.93,7.48,3.82,0,5.67-1.43,5.97-4.83h2.98c-.29,4.24-3.28,7.39-9.03,7.39-7.06,0-9.83-4.66-9.83-10.88s3.23-11.22,10-11.22,8.95,3.99,8.95,10.21v1.85Zm-3.11-2.98c0-4.45-1.72-6.55-5.92-6.55s-6.55,2.65-6.89,6.97h12.81v-.42Z"/><path class="cls-10" d="m958.28,1151.54h2.6l.29,3.91c1.01-2.14,3.07-4.45,6.76-4.45,1.26,0,2.18.21,3.02.55v3.15c-1.13-.5-2.1-.76-3.4-.76-3.74,0-6.34,2.81-6.34,5.75v12.85h-2.94v-21Z"/><path class="cls-10" d="m985.25,1139.78h2.98v6.51h-2.98v-6.51Zm0,11.76h2.94v21h-2.94v-21Z"/><path class="cls-10" d="m995.58,1151.54h2.6l.29,3.49c1.01-2.14,3.28-4.03,7.35-4.03,4.75,0,7.77,2.52,7.77,7.94v13.61h-2.94v-13.27c0-4.33-2.14-5.71-5.5-5.71-3.82,0-6.64,2.69-6.64,5.63v13.36h-2.94v-21Z"/><path class="cls-10" d="m1032.29,1150.24h-3.36v-5.08c0-3.95.88-5.29,3.4-5.97l.67,1.85c-1.76.67-2.06,1.09-2.06,3.78v.34h1.34v5.08Zm5.92,0h-3.36v-5.08c0-3.95.88-5.29,3.4-5.97l.67,1.85c-1.76.67-2.06,1.09-2.06,3.78v.34h1.34v5.08Z"/><path class="cls-10" d="m1048.33,1146.5v5.04h5.92v2.44h-5.92v18.57h-2.94v-18.57h-4.16v-2.44h4.16v-5.42c0-5.29,3.15-6.89,6.38-6.89,1.85,0,2.98.29,3.74.55v2.6c-.71-.21-1.89-.46-3.49-.46-2.65,0-3.7,1.76-3.7,4.58Z"/><path class="cls-10" d="m1058.88,1148.98c1.76-.67,2.06-1.09,2.06-3.78v-.34h-1.34v-5.08h3.36v5.08c0,3.95-.88,5.29-3.4,5.97l-.67-1.85Zm5.92,0c1.76-.67,2.06-1.09,2.06-3.78v-.34h-1.34v-5.08h3.36v5.08c0,3.95-.88,5.29-3.4,5.97l-.67-1.85Z"/><line class="cls-2" x1="819.81" y1="1196.78" x2="819.81" y2="1197.65"/><line class="cls-1" x1="819.81" y1="1214.25" x2="819.81" y2="1370.25"/><line class="cls-2" x1="819.81" y1="1378.55" x2="819.81" y2="1379.42"/><path class="cls-11" d="m794.94,1586.59c33.22-17.19,60.49-56.17,60.49-117.62,0-53.37-21.74-62.86-37.95-62.86-29.65,0-44.28,30.84-44.28,81.84v84.08c-1.71.5-3.42.95-5.14,1.32-1.37.33-3.16.68-4.81.96,0,0,10.14,7.2,31.69,12.29Zm0-98.64c0-42.3,9.49-60.09,22.54-60.09,7.12,0,16.21,5.93,16.21,41.12,0,46.04-16.76,76.35-38.74,92.3v-73.32Z"/><path class="cls-11" d="m773.2,1685.51c-6.74-1.92-9.09-5.64-9.09-8.97,0-4.77,3.58-10.55,9.09-12.64v21.61Zm21.74-12.34c3.11,3.69,6.1,8.29,8.93,13.64h-8.93v-13.64Zm42.3,184.44c0,51.79-11.47,85.79-27.67,85.79-8.7,0-14.63-12.65-14.63-51.79v-183.05h18.33c14.95,41.62,23.97,103.48,23.97,149.05Zm85.71-352.99c-9.02-5.71-12.57-11.97-12.57-15.87,0-3.16,1.58-5.14,5.93-5.14,4.74,0,6.72,3.95,6.72,17,0,1.29-.03,2.63-.09,4.01Zm175.62,84.94c0-30.44,10.28-54.95,22.93-54.95,10.28,0,18.19,19.77,18.19,44.67s-7.6,54.29-25.22,76.01c-10.25-18.85-15.89-43.4-15.89-65.73Z"/><line class="cls-2" x1="845.31" y1="3300.34" x2="845.31" y2="3301.21"/><line class="cls-3" x1="845.31" y1="3318.79" x2="845.31" y2="3503.33"/><line class="cls-2" x1="845.31" y1="3512.11" x2="845.31" y2="3512.99"/><path class="cls-10" d="m566.83,3240.44h2.94v18.65l17.05-18.65h3.61v.04l-12.31,13.53,13.36,19.16v.04h-3.66l-11.68-17.06-6.38,7.02v10.04h-2.94v-32.77Z"/><path class="cls-10" d="m595.68,3252.2h2.6l.29,3.49c1.01-2.14,3.28-4.03,7.35-4.03,4.75,0,7.77,2.52,7.77,7.94v13.61h-2.94v-13.27c0-4.33-2.14-5.71-5.5-5.71-3.82,0-6.64,2.69-6.64,5.63v13.36h-2.94v-21Z"/><path class="cls-10" d="m619.37,3262.71c0-6.22,3.32-11.05,10.38-11.05,6.59,0,10.25,4.83,10.25,11.05s-3.7,11.05-10.29,11.05c-7.27,0-10.33-4.83-10.33-11.05Zm17.56,0c0-5.33-2.9-8.49-7.23-8.49-4.75,0-7.27,3.15-7.27,8.49s2.56,8.49,7.27,8.49c4.33,0,7.23-3.15,7.23-8.49Z"/><path class="cls-10" d="m656.84,3270.52v2.6c-.76.21-2.14.59-4.03.59-3.82,0-6.34-1.6-6.34-6.89v-12.18h-4.16v-2.44h4.16v-6.05l2.94-1.43v7.48h5.92v2.44h-5.92v11.8c0,2.81.76,4.58,3.4,4.58,1.6,0,3.23-.29,4.03-.5Z"/><path class="cls-10" d="m659.77,3266.78v-1.18h2.94v1.13c0,2.86,2.14,4.5,5.97,4.5s5.8-1.01,5.8-3.78c0-2.06-1.01-2.81-3.87-3.32l-4.62-.84c-3.03-.55-5.55-2.02-5.55-5.5,0-3.15,2.35-6.13,8.4-6.13s8.4,3.02,8.4,7.22v.88h-2.98v-.76c0-3.45-2.14-4.92-5.42-4.92-3.95,0-5.33,1.34-5.33,3.36s1.01,2.86,3.91,3.4l4.03.76c4.12.76,6.09,1.93,6.09,5.59,0,4.58-4.12,6.55-8.78,6.55-7.31,0-8.99-3.28-8.99-6.97Z"/><path class="cls-10" d="m693.08,3240.44h2.98v6.51h-2.98v-6.51Zm0,11.76h2.94v21h-2.94v-21Z"/><path class="cls-10" d="m703.41,3252.2h2.6l.29,3.49c1.01-2.14,3.28-4.03,7.35-4.03,4.75,0,7.77,2.52,7.77,7.94v13.61h-2.94v-13.27c0-4.33-2.14-5.71-5.5-5.71-3.82,0-6.64,2.69-6.64,5.63v13.36h-2.94v-21Z"/><path class="cls-10" d="m740.12,3250.9h-3.36v-5.08c0-3.95.88-5.29,3.4-5.97l.67,1.85c-1.76.67-2.06,1.09-2.06,3.78v.34h1.34v5.08Zm5.92,0h-3.36v-5.08c0-3.95.88-5.29,3.4-5.97l.67,1.85c-1.76.67-2.06,1.09-2.06,3.78v.34h1.34v5.08Z"/><path class="cls-10" d="m752.43,3252.2h2.6l.29,3.91c1.01-2.14,3.07-4.45,6.76-4.45,1.26,0,2.18.21,3.02.55v3.15c-1.13-.5-2.1-.76-3.4-.76-3.74,0-6.34,2.81-6.34,5.75v12.85h-2.94v-21Z"/><path class="cls-10" d="m767.84,3249.64c1.76-.67,2.06-1.09,2.06-3.78v-.34h-1.34v-5.08h3.36v5.08c0,3.95-.88,5.29-3.4,5.96l-.67-1.85Zm5.92,0c1.76-.67,2.06-1.09,2.06-3.78v-.34h-1.34v-5.08h3.36v5.08c0,3.95-.88,5.29-3.4,5.96l-.67-1.85Z"/><path class="cls-10" d="m780.78,3266.99h3.36v6.22c0,3.95-.88,5.29-3.4,5.96l-.67-1.85c1.76-.67,2.06-1.09,2.06-3.78v-.34h-1.34v-6.22Z"/><path class="cls-10" d="m801.78,3250.9h-3.36v-5.08c0-3.95.88-5.29,3.4-5.97l.67,1.85c-1.76.67-2.06,1.09-2.06,3.78v.34h1.34v5.08Zm5.92,0h-3.36v-5.08c0-3.95.88-5.29,3.4-5.97l.67,1.85c-1.76.67-2.06,1.09-2.06,3.78v.34h1.34v5.08Z"/><path class="cls-10" d="m809.67,3266.78v-1.18h2.94v1.13c0,2.86,2.14,4.5,5.96,4.5s5.8-1.01,5.8-3.78c0-2.06-1.01-2.81-3.86-3.32l-4.62-.84c-3.02-.55-5.54-2.02-5.54-5.5,0-3.15,2.35-6.13,8.4-6.13s8.4,3.02,8.4,7.22v.88h-2.98v-.76c0-3.45-2.14-4.92-5.42-4.92-3.95,0-5.33,1.34-5.33,3.36s1.01,2.86,3.91,3.4l4.03.76c4.12.76,6.09,1.93,6.09,5.59,0,4.58-4.12,6.55-8.78,6.55-7.31,0-8.99-3.28-8.99-6.97Z"/><path class="cls-10" d="m829.75,3249.64c1.76-.67,2.06-1.09,2.06-3.78v-.34h-1.34v-5.08h3.36v5.08c0,3.95-.88,5.29-3.4,5.96l-.67-1.85Zm5.92,0c1.76-.67,2.06-1.09,2.06-3.78v-.34h-1.34v-5.08h3.36v5.08c0,3.95-.88,5.29-3.4,5.96l-.67-1.85Z"/><path class="cls-10" d="m842.68,3266.99h3.36v6.22c0,3.95-.88,5.29-3.4,5.96l-.67-1.85c1.76-.67,2.06-1.09,2.06-3.78v-.34h-1.34v-6.22Z"/><path class="cls-10" d="m863.68,3250.9h-3.36v-5.08c0-3.95.88-5.29,3.4-5.97l.67,1.85c-1.76.67-2.06,1.09-2.06,3.78v.34h1.34v5.08Zm5.92,0h-3.36v-5.08c0-3.95.88-5.29,3.4-5.97l.67,1.85c-1.76.67-2.06,1.09-2.06,3.78v.34h1.34v5.08Z"/><path class="cls-10" d="m872.84,3252.25v-.04h3.36l7.35,17.98h.08l7.1-17.98h3.07v.04l-8.74,20.96h-3.02l-9.2-20.96Z"/><path class="cls-10" d="m896.32,3249.64c1.76-.67,2.06-1.09,2.06-3.78v-.34h-1.34v-5.08h3.36v5.08c0,3.95-.88,5.29-3.4,5.96l-.67-1.85Zm5.92,0c1.76-.67,2.06-1.09,2.06-3.78v-.34h-1.34v-5.08h3.36v5.08c0,3.95-.88,5.29-3.4,5.96l-.67-1.85Z"/><path class="cls-10" d="m909.25,3266.99h3.36v6.22c0,3.95-.88,5.29-3.4,5.96l-.67-1.85c1.76-.67,2.06-1.09,2.06-3.78v-.34h-1.34v-6.22Z"/><path class="cls-10" d="m930.25,3250.9h-3.36v-5.08c0-3.95.88-5.29,3.4-5.97l.67,1.85c-1.76.67-2.06,1.09-2.06,3.78v.34h1.34v5.08Zm5.92,0h-3.36v-5.08c0-3.95.88-5.29,3.4-5.97l.67,1.85c-1.76.67-2.06,1.09-2.06,3.78v.34h1.34v5.08Z"/><path class="cls-10" d="m939.83,3252.25v-.04h2.98l5.75,17.48h.08l6.3-17.48h2.69l6.17,17.48h.08l5.75-17.48h2.86v.04l-7.18,20.96h-3.02l-5.96-17.06h-.08l-6.22,17.06h-3.02l-7.18-20.96Z"/><path class="cls-10" d="m975.45,3249.64c1.76-.67,2.06-1.09,2.06-3.78v-.34h-1.34v-5.08h3.36v5.08c0,3.95-.88,5.29-3.4,5.96l-.67-1.85Zm5.92,0c1.76-.67,2.06-1.09,2.06-3.78v-.34h-1.34v-5.08h3.36v5.08c0,3.95-.88,5.29-3.4,5.96l-.67-1.85Z"/><path class="cls-10" d="m999.72,3267.41c0-3.95,2.23-6.09,7.86-6.09h6.34v-1.72c0-2.98-1.26-5.42-5.46-5.42-3.95,0-5.33,1.51-5.33,4.12v.88h-2.98v-.84c0-5,4.2-6.68,8.32-6.68,5.8,0,8.4,2.86,8.4,8.44v13.11h-2.06l-.55-2.98h-.08c-1.26,1.89-3.7,3.53-7.35,3.53-4.92,0-7.1-2.31-7.1-6.34Zm14.2-1.85v-1.76h-7.01c-2.65,0-4.03.92-4.03,3.61,0,2.35,1.26,3.86,4.5,3.86,4.16,0,6.55-2.14,6.55-5.71Z"/><path class="cls-10" d="m1024.21,3252.2h2.6l.29,3.49c1.01-2.14,3.28-4.03,7.35-4.03,4.75,0,7.77,2.52,7.77,7.94v13.61h-2.94v-13.27c0-4.33-2.14-5.71-5.5-5.71-3.82,0-6.64,2.69-6.64,5.63v13.36h-2.94v-21Z"/><path class="cls-10" d="m1047.9,3262.75c0-7.1,4.28-11.09,10.04-11.09,3.7,0,6.22,1.6,7.31,3.74h.04v-14.95h2.94v32.77h-1.97l-.67-3.61h-.08c-1.18,2.31-3.95,4.16-7.77,4.16-6.3,0-9.83-3.99-9.83-11.01Zm17.64-.5c0-5.5-3.36-8.07-7.35-8.07-3.11,0-7.14,1.47-7.14,8.4s3.61,8.61,7.14,8.61c4.24,0,7.35-2.73,7.35-8.95Z"/><path class="cls-10" d="m1086.91,3250.9h-3.36v-5.08c0-3.95.88-5.29,3.4-5.97l.67,1.85c-1.76.67-2.06,1.09-2.06,3.78v.34h1.34v5.08Zm5.92,0h-3.36v-5.08c0-3.95.88-5.29,3.4-5.97l.67,1.85c-1.76.67-2.06,1.09-2.06,3.78v.34h1.34v5.08Z"/><path class="cls-10" d="m1096.91,3270.65l14.7-15.88h-14.58v-2.56h18.23v2.56l-14.7,15.84h14.66v2.6h-18.31v-2.56Z"/><path class="cls-10" d="m1118.62,3249.64c1.76-.67,2.06-1.09,2.06-3.78v-.34h-1.34v-5.08h3.36v5.08c0,3.95-.88,5.29-3.4,5.96l-.67-1.85Zm5.92,0c1.76-.67,2.06-1.09,2.06-3.78v-.34h-1.34v-5.08h3.36v5.08c0,3.95-.88,5.29-3.4,5.96l-.67-1.85Z"/><line class="cls-2" x1="504.93" y1="2775.25" x2="504.93" y2="2776.12"/><line class="cls-5" x1="504.93" y1="2793.32" x2="504.93" y2="3068.42"/><line class="cls-2" x1="504.93" y1="3077.02" x2="504.93" y2="3077.89"/><path class="cls-10" d="m405.37,3122.31c0-11.72,6.76-16.93,15.46-16.93,7.94,0,14.7,5.21,14.7,16.59,0,12.48-6.76,17.26-15.08,17.26s-15.08-4.79-15.08-16.93Zm27.05,0c0-10.12-5.33-14.24-12.01-14.24s-11.93,4.12-11.93,14.24,5.33,14.2,12.01,14.2,11.93-3.74,11.93-14.2Z"/><path class="cls-10" d="m441.82,3117.69h2.6l.29,3.91c1.01-2.14,3.07-4.45,6.76-4.45,1.26,0,2.18.21,3.02.55v3.15c-1.13-.5-2.1-.76-3.4-.76-3.74,0-6.34,2.81-6.34,5.75v12.85h-2.94v-21Z"/><path class="cls-10" d="m459.12,3117.69h2.6l.29,3.49c1.01-2.14,3.28-4.03,7.35-4.03,4.75,0,7.77,2.52,7.77,7.94v13.61h-2.94v-13.27c0-4.33-2.14-5.71-5.5-5.71-3.82,0-6.64,2.69-6.64,5.63v13.36h-2.94v-21Z"/><path class="cls-10" d="m483.23,3132.9c0-3.95,2.23-6.09,7.86-6.09h6.34v-1.72c0-2.98-1.26-5.42-5.46-5.42-3.95,0-5.33,1.51-5.33,4.12v.88h-2.98v-.84c0-5,4.2-6.68,8.32-6.68,5.8,0,8.4,2.86,8.4,8.44v13.11h-2.06l-.55-2.98h-.08c-1.26,1.89-3.7,3.53-7.35,3.53-4.92,0-7.1-2.31-7.1-6.34Zm14.2-1.85v-1.76h-7.01c-2.65,0-4.03.92-4.03,3.61,0,2.35,1.26,3.87,4.5,3.87,4.16,0,6.55-2.14,6.55-5.71Z"/><path class="cls-10" d="m518.47,3136.01v2.6c-.76.21-2.14.59-4.03.59-3.82,0-6.34-1.6-6.34-6.89v-12.18h-4.16v-2.44h4.16v-6.05l2.94-1.43v7.48h5.92v2.44h-5.92v11.8c0,2.81.76,4.58,3.4,4.58,1.6,0,3.23-.29,4.03-.5Z"/><path class="cls-10" d="m539.94,3129.2h-15.96c.17,4.79,2.48,7.48,6.93,7.48,3.82,0,5.67-1.43,5.97-4.83h2.98c-.29,4.24-3.28,7.39-9.03,7.39-7.06,0-9.83-4.66-9.83-10.88s3.23-11.22,10-11.22,8.95,3.99,8.95,10.21v1.85Zm-3.11-2.98c0-4.45-1.72-6.55-5.92-6.55s-6.55,2.65-6.89,6.97h12.81v-.42Z"/><path class="cls-10" d="m557.15,3116.39h-3.36v-5.08c0-3.95.88-5.29,3.4-5.96l.67,1.85c-1.76.67-2.06,1.09-2.06,3.78v.34h1.34v5.08Zm5.92,0h-3.36v-5.08c0-3.95.88-5.29,3.4-5.96l.67,1.85c-1.76.67-2.06,1.09-2.06,3.78v.34h1.34v5.08Z"/><path class="cls-10" d="m570.51,3105.93h19.49v2.65h-16.55v12.22h14.62v2.6h-14.62v12.6h16.55v2.69h-19.49v-32.77Z"/><path class="cls-10" d="m594.2,3115.13c1.76-.67,2.06-1.09,2.06-3.78v-.34h-1.34v-5.08h3.36v5.08c0,3.95-.88,5.29-3.4,5.96l-.67-1.85Zm5.92,0c1.76-.67,2.06-1.09,2.06-3.78v-.34h-1.34v-5.08h3.36v5.08c0,3.95-.88,5.29-3.4,5.96l-.67-1.85Z"/><line class="cls-2" x1="471.36" y1="4084.95" x2="471.36" y2="4085.82"/><line class="cls-6" x1="471.36" y1="4104.85" x2="471.36" y2="4137.21"/><line class="cls-2" x1="471.36" y1="4146.72" x2="471.36" y2="4147.59"/><path class="cls-10" d="m228.97,4195.95v-2.02h3.02v2.18c0,3.74,2.6,6.05,7.94,6.05s8.44-1.97,8.44-6.22c0-3.32-1.39-5.17-4.92-6.09l-6.64-1.72c-4.33-1.13-7.18-2.98-7.18-8.15s3.78-8.91,10.92-8.91,10.59,3.45,10.59,9.07v2.94h-3.03v-2.81c0-4.62-3.07-6.51-7.56-6.51-5.12,0-7.81,2.14-7.81,6.01,0,3.61,1.76,4.7,5.54,5.71l5.75,1.55c5.12,1.39,7.44,3.74,7.44,8.65,0,6.09-4.33,9.24-11.47,9.24-9.12,0-11.05-4.71-11.05-8.99Z"/><path class="cls-10" d="m258.67,4171.63h2.94v15.16c1.05-2.1,3.28-3.95,7.31-3.95,4.75,0,7.77,2.52,7.77,7.94v13.61h-2.94v-13.27c0-4.33-2.14-5.71-5.5-5.71-3.82,0-6.64,2.69-6.64,5.63v13.36h-2.94v-32.77Z"/><path class="cls-10" d="m282.35,4193.89c0-6.22,3.32-11.05,10.38-11.05,6.6,0,10.25,4.83,10.25,11.05s-3.7,11.05-10.29,11.05c-7.27,0-10.33-4.83-10.33-11.05Zm17.56,0c0-5.33-2.9-8.49-7.23-8.49-4.75,0-7.27,3.15-7.27,8.49s2.56,8.49,7.27,8.49c4.33,0,7.23-3.15,7.23-8.49Z"/><path class="cls-10" d="m308.86,4183.39h2.6l.29,3.91c1.01-2.14,3.07-4.45,6.76-4.45,1.26,0,2.18.21,3.02.55v3.15c-1.13-.5-2.1-.76-3.4-.76-3.74,0-6.34,2.81-6.34,5.75v12.85h-2.94v-21Z"/><path class="cls-10" d="m337.12,4201.71v2.6c-.76.21-2.14.59-4.03.59-3.82,0-6.34-1.6-6.34-6.89v-12.18h-4.16v-2.44h4.16v-6.05l2.94-1.43v7.48h5.92v2.44h-5.92v11.8c0,2.81.76,4.58,3.4,4.58,1.6,0,3.23-.29,4.03-.5Z"/><path class="cls-10" d="m353.29,4182.09h-3.36v-5.08c0-3.95.88-5.29,3.4-5.97l.67,1.85c-1.76.67-2.06,1.09-2.06,3.78v.34h1.34v5.08Zm5.92,0h-3.36v-5.08c0-3.95.88-5.29,3.4-5.97l.67,1.85c-1.76.67-2.06,1.09-2.06,3.78v.34h1.34v5.08Z"/><path class="cls-10" d="m364.34,4196.37v-3.66h2.86v3.57c0,4.41,2.6,6.01,6.68,6.01,5.25,0,7.06-2.52,7.06-7.02v-21.04h-14.37v-2.6h17.31v24.03c0,6.8-4.66,9.28-10.12,9.28-5.84,0-9.41-2.44-9.41-8.57Z"/><path class="cls-10" d="m389.96,4180.83c1.76-.67,2.06-1.09,2.06-3.78v-.34h-1.34v-5.08h3.36v5.08c0,3.95-.88,5.29-3.4,5.97l-.67-1.85Zm5.92,0c1.76-.67,2.06-1.09,2.06-3.78v-.34h-1.34v-5.08h3.36v5.08c0,3.95-.88,5.29-3.4,5.97l-.67-1.85Z"/><path class="cls-10" d="m412.76,4183.43v-.04h2.98l5.76,17.47h.08l6.3-17.47h2.69l6.17,17.47h.08l5.75-17.47h2.86v.04l-7.18,20.96h-3.02l-5.96-17.06h-.08l-6.22,17.06h-3.02l-7.18-20.96Z"/><path class="cls-10" d="m450.27,4171.63h2.98v6.51h-2.98v-6.51Zm0,11.76h2.94v21h-2.94v-21Z"/><path class="cls-10" d="m471.57,4201.71v2.6c-.76.21-2.14.59-4.03.59-3.82,0-6.34-1.6-6.34-6.89v-12.18h-4.16v-2.44h4.16v-6.05l2.94-1.43v7.48h5.92v2.44h-5.92v11.8c0,2.81.76,4.58,3.4,4.58,1.6,0,3.23-.29,4.03-.5Z"/><path class="cls-10" d="m476.39,4171.63h2.94v15.16c1.05-2.1,3.28-3.95,7.31-3.95,4.75,0,7.77,2.52,7.77,7.94v13.61h-2.94v-13.27c0-4.33-2.14-5.71-5.5-5.71-3.82,0-6.64,2.69-6.64,5.63v13.36h-2.94v-32.77Z"/><path class="cls-10" d="m509.74,4193.93c0-7.1,4.28-11.09,10.04-11.09,3.7,0,6.22,1.6,7.31,3.74h.04v-14.95h2.94v32.77h-1.97l-.67-3.61h-.08c-1.18,2.31-3.95,4.16-7.77,4.16-6.3,0-9.83-3.99-9.83-11.01Zm17.64-.5c0-5.5-3.36-8.07-7.35-8.07-3.11,0-7.14,1.47-7.14,8.4s3.61,8.61,7.14,8.61c4.24,0,7.35-2.73,7.35-8.95Z"/><path class="cls-10" d="m554.69,4194.9h-15.96c.17,4.79,2.48,7.48,6.93,7.48,3.82,0,5.67-1.43,5.97-4.83h2.98c-.29,4.24-3.28,7.39-9.03,7.39-7.06,0-9.83-4.66-9.83-10.88s3.23-11.22,10-11.22,8.95,3.99,8.95,10.21v1.85Zm-3.11-2.98c0-4.45-1.72-6.55-5.92-6.55s-6.55,2.65-6.89,6.97h12.81v-.42Z"/><path class="cls-10" d="m558.67,4197.97v-1.18h2.94v1.13c0,2.86,2.14,4.5,5.96,4.5s5.8-1.01,5.8-3.78c0-2.06-1.01-2.81-3.86-3.32l-4.62-.84c-3.02-.55-5.54-2.02-5.54-5.5,0-3.15,2.35-6.13,8.4-6.13s8.4,3.02,8.4,7.22v.88h-2.98v-.76c0-3.44-2.14-4.91-5.42-4.91-3.95,0-5.33,1.34-5.33,3.36s1.01,2.86,3.91,3.4l4.03.76c4.12.76,6.09,1.93,6.09,5.59,0,4.58-4.12,6.55-8.78,6.55-7.31,0-8.99-3.28-8.99-6.97Z"/><path class="cls-10" d="m580.64,4194.06c0-6.38,3.23-11.22,10-11.22s8.95,3.91,8.95,8.95v.42h-3.11v-.63c0-3.82-1.64-6.09-5.84-6.09-4.75,0-7.02,3.11-7.02,8.4,0,5.63,2.39,8.49,6.93,8.49,3.82,0,5.84-1.85,5.92-5.67h3.02c-.08,4.66-3.15,8.23-9.03,8.23-7.22,0-9.83-4.75-9.83-10.88Z"/><path class="cls-10" d="m622.73,4194.9h-15.96c.17,4.79,2.48,7.48,6.93,7.48,3.82,0,5.67-1.43,5.97-4.83h2.98c-.29,4.24-3.28,7.39-9.03,7.39-7.06,0-9.83-4.66-9.83-10.88s3.23-11.22,10-11.22,8.95,3.99,8.95,10.21v1.85Zm-3.11-2.98c0-4.45-1.72-6.55-5.92-6.55s-6.55,2.65-6.89,6.97h12.81v-.42Z"/><path class="cls-10" d="m628.6,4183.39h2.6l.29,3.49c1.01-2.14,3.28-4.03,7.35-4.03,4.75,0,7.77,2.52,7.77,7.94v13.61h-2.94v-13.27c0-4.33-2.14-5.71-5.5-5.71-3.82,0-6.64,2.69-6.64,5.63v13.36h-2.94v-21Z"/><path class="cls-10" d="m652.29,4193.93c0-7.1,4.28-11.09,10.04-11.09,3.7,0,6.22,1.6,7.31,3.74h.04v-14.95h2.94v32.77h-1.97l-.67-3.61h-.08c-1.18,2.31-3.95,4.16-7.77,4.16-6.3,0-9.83-3.99-9.83-11.01Zm17.64-.5c0-5.5-3.36-8.07-7.35-8.07-3.11,0-7.14,1.47-7.14,8.4s3.61,8.61,7.14,8.61c4.24,0,7.35-2.73,7.35-8.95Z"/><path class="cls-10" d="m697.23,4194.9h-15.96c.17,4.79,2.48,7.48,6.93,7.48,3.82,0,5.67-1.43,5.97-4.83h2.98c-.29,4.24-3.28,7.39-9.03,7.39-7.06,0-9.83-4.66-9.83-10.88s3.23-11.22,10-11.22,8.95,3.99,8.95,10.21v1.85Zm-3.11-2.98c0-4.45-1.72-6.55-5.92-6.55s-6.55,2.65-6.89,6.97h12.81v-.42Z"/><path class="cls-10" d="m703.11,4183.39h2.6l.29,3.91c1.01-2.14,3.07-4.45,6.76-4.45,1.26,0,2.18.21,3.02.55v3.15c-1.13-.5-2.1-.76-3.4-.76-3.74,0-6.34,2.81-6.34,5.75v12.85h-2.94v-21Z"/></g></svg>