<?xml version="1.0" encoding="UTF-8"?><svg id="words" xmlns="http://www.w3.org/2000/svg" xmlns:xlink="http://www.w3.org/1999/xlink" viewBox="0 0 1920 5185"><defs><style>.cls-1,.cls-2,.cls-3,.cls-4,.cls-5{fill:none;}.cls-6{clip-path:url(#clippath);}.cls-7{fill:#ebebeb;}.cls-8{fill:#fff;}.cls-9{fill:#937fbb;}.cls-10{fill:#171c32;}.cls-11{fill:#947fbb;}.cls-12{clip-path:url(#clippath-1);}.cls-13{clip-path:url(#clippath-3);}.cls-14{clip-path:url(#clippath-2);}.cls-2{stroke:#fff;stroke-width:2px;}.cls-2,.cls-3,.cls-4,.cls-5{stroke-miterlimit:10;}.cls-3{stroke:#a797c9;stroke-dasharray:0 0 1.74 17.45;stroke-linecap:round;stroke-width:7px;}.cls-4{stroke-width:3.5px;}.cls-4,.cls-5{stroke:#57678b;}.cls-5{stroke-width:3.5px;}</style><clipPath id="clippath"><circle class="cls-1" cx="1100.59" cy="1844.17" r="125.23"/></clipPath><clipPath id="clippath-1"><circle class="cls-1" cx="811.47" cy="2385.14" r="127.76"/></clipPath><clipPath id="clippath-2"><circle class="cls-1" cx="812.52" cy="2802.57" r="147.42"/></clipPath><clipPath id="clippath-3"><circle class="cls-1" cx="780.76" cy="3511.42" r="38.54"/></clipPath></defs><rect class="cls-10" y="-2.5" width="1920" height="5185"/><line class="cls-5" y1="4303.89" x2="1920" y2="4303.89"/><line class="cls-5" y1="4522.85" x2="1920" y2="4522.85"/><line class="cls-5" x1="1920" y1="4709.73" y2="4709.73"/><line class="cls-5" y1="4931.73" x2="1920" y2="4931.73"/><line class="cls-5" y1="3275.31" x2="1920" y2="3275.31"/><line class="cls-5" y1="3494.26" x2="1920" y2="3494.26"/><line class="cls-5" x1="1920" y1="3681.14" y2="3681.14"/><line class="cls-5" y1="3903.15" x2="1920" y2="3903.15"/><line class="cls-5" y1="2297.47" x2="1920" y2="2297.47"/><line class="cls-5" y1="2518.43" x2="1920" y2="2518.43"/><line class="cls-5" x1="1920" y1="2703.31" y2="2703.31"/><line class="cls-5" y1="2925.31" x2="1920" y2="2925.31"/><line class="cls-5" y1="1315.85" x2="1920" y2="1315.85"/><line class="cls-5" y1="1535.8" x2="1920" y2="1535.8"/><line class="cls-5" x1="1920" y1="1721.68" y2="1721.68"/><line class="cls-5" y1="1943.68" x2="1920" y2="1943.68"/><line class="cls-4" y1="337.92" x2="1920" y2="337.92"/><line class="cls-4" y1="556.94" x2="1920" y2="556.94"/><line class="cls-4" x1="1920" y1="743.87" y2="743.87"/><line class="cls-4" y1="965.94" x2="1920" y2="965.94"/><path class="cls-8" d="m1173.17,2980.32v-19.95h2.94v19.95c0,9.41,4.07,10.63,8.86,10.63s8.78-1.01,8.78-10.63v-19.95h2.94v19.62c0,11.64-5.33,13.69-11.76,13.69s-11.76-2.06-11.76-13.36Z"/><path class="cls-8" d="m1204.46,2972.12h2.39l.34,3.86h.08c1.13-2.48,4.03-4.41,7.86-4.41,6.3,0,9.66,3.99,9.66,11.01s-4.29,11.09-9.87,11.09c-3.78,0-6.38-1.6-7.43-3.7h-.08v11.55h-2.94v-29.41Zm17.18,10.63c0-7.18-3.4-8.61-6.93-8.61-4.24,0-7.56,2.73-7.56,8.44,0,6.01,3.45,8.57,7.44,8.57,3.02,0,7.06-1.47,7.06-8.4Z"/><path class="cls-8" d="m1230.67,2972.12h2.6l.29,3.91c1.01-2.14,3.07-4.45,6.76-4.45,1.26,0,2.18.21,3.02.55v3.15c-1.13-.5-2.1-.76-3.4-.76-3.74,0-6.34,2.81-6.34,5.75v12.85h-2.94v-21Z"/><path class="cls-8" d="m1247.97,2960.36h2.98v6.51h-2.98v-6.51Zm0,11.76h2.94v21h-2.94v-21Z"/><path class="cls-8" d="m1257.67,2994.93v-.13h3.11v.13c0,2.9,1.93,4.33,6.13,4.33,4.79,0,7.01-2.94,7.01-7.86v-2.1h-.08c-1.09,2.18-3.65,4.08-7.48,4.08-6.3,0-9.75-3.99-9.75-10.71,0-7.1,4.37-11.09,9.96-11.09,3.78,0,6.55,1.81,7.56,4.12h.13l.29-3.57h2.31v19.16c0,5.88-2.81,10.71-10.33,10.71-6.3,0-8.86-2.98-8.86-7.06Zm16.59-12.77c0-5.5-3.36-8.07-7.35-8.07-3.03,0-7.14,1.47-7.14,8.4s3.57,8.32,7.1,8.32c4.24,0,7.39-2.73,7.39-8.65Z"/><path class="cls-8" d="m1284.22,2960.36h2.94v15.16c1.05-2.1,3.28-3.95,7.31-3.95,4.75,0,7.77,2.52,7.77,7.94v13.61h-2.94v-13.27c0-4.33-2.14-5.71-5.5-5.71-3.82,0-6.64,2.69-6.64,5.63v13.36h-2.94v-32.77Z"/><path class="cls-8" d="m1320.55,2990.44v2.6c-.76.21-2.14.59-4.03.59-3.82,0-6.34-1.6-6.34-6.89v-12.18h-4.16v-2.44h4.16v-6.05l2.94-1.43v7.48h5.92v2.44h-5.92v11.8c0,2.81.76,4.58,3.4,4.58,1.6,0,3.23-.29,4.03-.5Z"/><path class="cls-8" d="m94.58,5040.15c0-11.72,6.76-16.93,15.46-16.93,7.94,0,14.7,5.21,14.7,16.59,0,12.48-6.76,17.26-15.08,17.26s-15.08-4.79-15.08-16.93Zm27.05,0c0-10.12-5.33-14.24-12.01-14.24s-11.93,4.12-11.93,14.24,5.33,14.2,12.01,14.2,11.93-3.74,11.93-14.2Z"/><path class="cls-8" d="m131.04,5035.53h2.6l.29,3.91c1.01-2.14,3.07-4.45,6.76-4.45,1.26,0,2.18.21,3.02.55v3.15c-1.13-.5-2.1-.76-3.4-.76-3.74,0-6.34,2.81-6.34,5.75v12.85h-2.94v-21Z"/><path class="cls-8" d="m148.34,5035.53h2.6l.29,3.49c1.01-2.14,3.28-4.03,7.35-4.03,4.75,0,7.77,2.52,7.77,7.94v13.61h-2.94v-13.27c0-4.33-2.14-5.71-5.5-5.71-3.82,0-6.64,2.69-6.64,5.63v13.36h-2.94v-21Z"/><path class="cls-8" d="m172.45,5050.73c0-3.95,2.23-6.09,7.86-6.09h6.34v-1.72c0-2.98-1.26-5.42-5.46-5.42-3.95,0-5.33,1.51-5.33,4.12v.88h-2.98v-.84c0-5,4.2-6.68,8.32-6.68,5.8,0,8.4,2.86,8.4,8.44v13.11h-2.06l-.55-2.98h-.08c-1.26,1.89-3.7,3.53-7.35,3.53-4.92,0-7.1-2.31-7.1-6.34Zm14.2-1.85v-1.76h-7.01c-2.65,0-4.03.92-4.03,3.61,0,2.35,1.26,3.86,4.5,3.86,4.16,0,6.55-2.14,6.55-5.71Z"/><path class="cls-8" d="m207.69,5053.84v2.6c-.76.21-2.14.59-4.03.59-3.82,0-6.34-1.6-6.34-6.89v-12.18h-4.16v-2.44h4.16v-6.05l2.94-1.43v7.48h5.92v2.44h-5.92v11.8c0,2.82.76,4.58,3.4,4.58,1.6,0,3.23-.29,4.03-.5Z"/><path class="cls-8" d="m229.15,5047.04h-15.96c.17,4.79,2.48,7.48,6.93,7.48,3.82,0,5.67-1.43,5.97-4.83h2.98c-.29,4.24-3.28,7.39-9.03,7.39-7.06,0-9.83-4.66-9.83-10.88s3.23-11.22,10-11.22,8.95,3.99,8.95,10.21v1.85Zm-3.11-2.98c0-4.45-1.72-6.55-5.92-6.55s-6.55,2.65-6.89,6.97h12.81v-.42Z"/><path class="cls-8" d="m233.77,5050.31h3.36v6.22c0,3.95-.88,5.29-3.4,5.96l-.67-1.85c1.76-.67,2.06-1.09,2.06-3.78v-.34h-1.34v-6.22Z"/><path class="cls-8" d="m251.41,5046.2c0-6.38,3.23-11.22,10-11.22s8.95,3.91,8.95,8.95v.42h-3.11v-.63c0-3.82-1.64-6.09-5.84-6.09-4.75,0-7.02,3.11-7.02,8.4,0,5.63,2.39,8.49,6.93,8.49,3.82,0,5.84-1.85,5.92-5.67h3.02c-.08,4.66-3.15,8.23-9.03,8.23-7.22,0-9.83-4.75-9.83-10.88Z"/><path class="cls-8" d="m275.81,5049.14v-13.61h2.94v13.27c0,4.33,2.14,5.71,5.42,5.71,3.74,0,6.55-2.69,6.55-5.63v-13.36h2.94v21h-2.6l-.25-3.36h-.08c-.97,2.02-3.23,3.91-7.23,3.91-4.66,0-7.69-2.52-7.69-7.94Z"/><path class="cls-8" d="m301.01,5035.53h2.6l.29,3.91c1.01-2.14,3.07-4.45,6.76-4.45,1.26,0,2.18.21,3.02.55v3.15c-1.13-.5-2.1-.76-3.4-.76-3.74,0-6.34,2.81-6.34,5.75v12.85h-2.94v-21Z"/><path class="cls-8" d="m316.21,5050.1v-1.18h2.94v1.13c0,2.86,2.14,4.49,5.96,4.49s5.8-1.01,5.8-3.78c0-2.06-1.01-2.81-3.86-3.32l-4.62-.84c-3.02-.55-5.54-2.02-5.54-5.5,0-3.15,2.35-6.13,8.4-6.13s8.4,3.02,8.4,7.23v.88h-2.98v-.76c0-3.45-2.14-4.92-5.42-4.92-3.95,0-5.33,1.34-5.33,3.36s1.01,2.86,3.91,3.4l4.03.76c4.12.76,6.09,1.93,6.09,5.59,0,4.58-4.12,6.55-8.78,6.55-7.31,0-8.99-3.28-8.99-6.97Z"/><path class="cls-8" d="m339.86,5023.76h2.98v6.51h-2.98v-6.51Zm0,11.76h2.94v21h-2.94v-21Z"/><path class="cls-8" d="m347.04,5035.57v-.04h3.36l7.35,17.98h.08l7.1-17.98h3.07v.04l-8.74,20.96h-3.02l-9.2-20.96Z"/><path class="cls-8" d="m388.83,5047.04h-15.96c.17,4.79,2.48,7.48,6.93,7.48,3.82,0,5.67-1.43,5.97-4.83h2.98c-.29,4.24-3.28,7.39-9.03,7.39-7.06,0-9.83-4.66-9.83-10.88s3.23-11.22,10-11.22,8.95,3.99,8.95,10.21v1.85Zm-3.11-2.98c0-4.45-1.72-6.55-5.92-6.55s-6.55,2.65-6.89,6.97h12.81v-.42Z"/><path class="cls-8" d="m403.95,5049.14v-13.61h2.94v13.27c0,4.33,2.14,5.71,5.42,5.71,3.74,0,6.55-2.69,6.55-5.63v-13.36h2.94v21h-2.6l-.25-3.36h-.08c-.97,2.02-3.23,3.91-7.23,3.91-4.66,0-7.69-2.52-7.69-7.94Z"/><path class="cls-8" d="m429.15,5035.53h2.39l.34,3.87h.08c1.13-2.48,4.03-4.41,7.86-4.41,6.3,0,9.66,3.99,9.66,11.01s-4.29,11.09-9.87,11.09c-3.78,0-6.38-1.6-7.43-3.7h-.08v11.55h-2.94v-29.41Zm17.18,10.63c0-7.18-3.4-8.61-6.93-8.61-4.24,0-7.56,2.73-7.56,8.44,0,6.01,3.45,8.57,7.44,8.57,3.02,0,7.06-1.47,7.06-8.4Z"/><path class="cls-8" d="m455.36,5035.53h2.39l.34,3.87h.08c1.13-2.48,4.03-4.41,7.86-4.41,6.3,0,9.66,3.99,9.66,11.01s-4.29,11.09-9.87,11.09c-3.78,0-6.38-1.6-7.43-3.7h-.08v11.55h-2.94v-29.41Zm17.18,10.63c0-7.18-3.4-8.61-6.93-8.61-4.24,0-7.56,2.73-7.56,8.44,0,6.01,3.45,8.57,7.44,8.57,3.02,0,7.06-1.47,7.06-8.4Z"/><path class="cls-8" d="m498.83,5047.04h-15.96c.17,4.79,2.48,7.48,6.93,7.48,3.82,0,5.67-1.43,5.97-4.83h2.98c-.29,4.24-3.28,7.39-9.03,7.39-7.06,0-9.83-4.66-9.83-10.88s3.23-11.22,10-11.22,8.95,3.99,8.95,10.21v1.85Zm-3.11-2.98c0-4.45-1.72-6.55-5.92-6.55s-6.55,2.65-6.89,6.97h12.81v-.42Z"/><path class="cls-8" d="m504.71,5035.53h2.6l.29,3.91c1.01-2.14,3.07-4.45,6.76-4.45,1.26,0,2.18.21,3.02.55v3.15c-1.13-.5-2.1-.76-3.4-.76-3.74,0-6.34,2.81-6.34,5.75v12.85h-2.94v-21Z"/><path class="cls-8" d="m519.7,5046.2c0-6.38,3.23-11.22,10-11.22s8.95,3.91,8.95,8.95v.42h-3.11v-.63c0-3.82-1.64-6.09-5.84-6.09-4.75,0-7.01,3.11-7.01,8.4,0,5.63,2.39,8.49,6.93,8.49,3.82,0,5.84-1.85,5.92-5.67h3.02c-.08,4.66-3.15,8.23-9.03,8.23-7.22,0-9.83-4.75-9.83-10.88Z"/><path class="cls-8" d="m543.05,5050.73c0-3.95,2.23-6.09,7.86-6.09h6.34v-1.72c0-2.98-1.26-5.42-5.46-5.42-3.95,0-5.33,1.51-5.33,4.12v.88h-2.98v-.84c0-5,4.2-6.68,8.32-6.68,5.8,0,8.4,2.86,8.4,8.44v13.11h-2.06l-.55-2.98h-.08c-1.26,1.89-3.7,3.53-7.35,3.53-4.92,0-7.1-2.31-7.1-6.34Zm14.2-1.85v-1.76h-7.01c-2.65,0-4.03.92-4.03,3.61,0,2.35,1.26,3.86,4.5,3.86,4.16,0,6.55-2.14,6.55-5.71Z"/><path class="cls-8" d="m565.65,5050.1v-1.18h2.94v1.13c0,2.86,2.14,4.49,5.96,4.49s5.8-1.01,5.8-3.78c0-2.06-1.01-2.81-3.86-3.32l-4.62-.84c-3.02-.55-5.54-2.02-5.54-5.5,0-3.15,2.35-6.13,8.4-6.13s8.4,3.02,8.4,7.23v.88h-2.98v-.76c0-3.45-2.14-4.92-5.42-4.92-3.95,0-5.33,1.34-5.33,3.36s1.01,2.86,3.91,3.4l4.03.76c4.12.76,6.09,1.93,6.09,5.59,0,4.58-4.12,6.55-8.78,6.55-7.31,0-8.99-3.28-8.99-6.97Z"/><path class="cls-8" d="m606.56,5047.04h-15.96c.17,4.79,2.48,7.48,6.93,7.48,3.82,0,5.67-1.43,5.97-4.83h2.98c-.29,4.24-3.28,7.39-9.03,7.39-7.06,0-9.83-4.66-9.83-10.88s3.23-11.22,10-11.22,8.95,3.99,8.95,10.21v1.85Zm-3.11-2.98c0-4.45-1.72-6.55-5.92-6.55s-6.55,2.65-6.89,6.97h12.81v-.42Z"/><path class="cls-8" d="m622.1,5023.76h2.94v32.77h-2.94v-32.77Z"/><path class="cls-8" d="m649.65,5047.04h-15.96c.17,4.79,2.48,7.48,6.93,7.48,3.82,0,5.67-1.43,5.97-4.83h2.98c-.29,4.24-3.28,7.39-9.03,7.39-7.06,0-9.83-4.66-9.83-10.88s3.23-11.22,10-11.22,8.95,3.99,8.95,10.21v1.85Zm-3.11-2.98c0-4.45-1.72-6.55-5.92-6.55s-6.55,2.65-6.89,6.97h12.81v-.42Z"/><path class="cls-8" d="m656.12,5050.14v-12.18h-4.16v-2.44h4.16v-6.05l2.94-1.43v7.48h11.85v-6.05l2.94-1.43v7.48h5.92v2.44h-5.92v11.8c0,2.82.76,4.58,3.4,4.58,1.6,0,3.24-.29,4.03-.5v2.6c-.76.21-2.14.59-4.03.59-3.82,0-6.34-1.6-6.34-6.89v-12.18h-11.85v11.8c0,2.82.76,4.58,3.4,4.58,1.6,0,3.23-.29,4.03-.5v2.6c-.76.21-2.14.59-4.03.59-3.82,0-6.34-1.6-6.34-6.89Z"/><path class="cls-8" d="m702.74,5047.04h-15.96c.17,4.79,2.48,7.48,6.93,7.48,3.82,0,5.67-1.43,5.97-4.83h2.98c-.29,4.24-3.28,7.39-9.03,7.39-7.06,0-9.83-4.66-9.83-10.88s3.23-11.22,10-11.22,8.95,3.99,8.95,10.21v1.85Zm-3.11-2.98c0-4.45-1.72-6.55-5.92-6.55s-6.55,2.65-6.89,6.97h12.81v-.42Z"/><path class="cls-8" d="m708.62,5035.53h2.6l.29,3.91c1.01-2.14,3.07-4.45,6.76-4.45,1.26,0,2.18.21,3.02.55v3.15c-1.13-.5-2.1-.76-3.4-.76-3.74,0-6.34,2.81-6.34,5.75v12.85h-2.94v-21Z"/><path class="cls-8" d="m723.82,5050.1v-1.18h2.94v1.13c0,2.86,2.14,4.49,5.96,4.49s5.8-1.01,5.8-3.78c0-2.06-1.01-2.81-3.86-3.32l-4.62-.84c-3.02-.55-5.54-2.02-5.54-5.5,0-3.15,2.35-6.13,8.4-6.13s8.4,3.02,8.4,7.23v.88h-2.98v-.76c0-3.45-2.14-4.92-5.42-4.92-3.95,0-5.33,1.34-5.33,3.36s1.01,2.86,3.91,3.4l4.03.76c4.12.76,6.09,1.93,6.09,5.59,0,4.58-4.12,6.55-8.78,6.55-7.31,0-8.99-3.28-8.99-6.97Z"/><path class="cls-7" d="m786.72,4104.76h16.68v3.91h-12.34v18.17h9.49v4.03h-9.49v18.35h12.34v3.91h-16.68v-48.36Zm3.04-7.63l11.47-4.22.56,4.59-11.53,2.67-.5-3.04Z"/><path class="cls-7" d="m806.8,4128.94c0-17.3,3.35-24.98,12.9-24.98,6.88,0,10.54,4.28,10.54,15.19v2.29h-4.22v-2.17c0-8.37-2.11-11.41-6.38-11.41-6.7,0-8.31,6.76-8.31,21.08s1.74,21.08,8.43,21.08c4.28,0,6.26-2.73,6.26-11.22v-2.73h4.22v2.73c0,10.85-3.6,15.13-10.6,15.13-9.49,0-12.83-7.07-12.83-24.99Z"/><path class="cls-7" d="m836.44,4104.76h9.3c8.37,0,13.21,3.97,13.21,13.08,0,4.83-1.8,10.97-7.56,13.21l8.8,22.01v.06h-4.65l-8.12-21.27h-6.57v21.27h-4.4v-48.36Zm9.48,23.37c6.45,0,8.56-4.09,8.56-10.35,0-6.63-3.04-9.18-8.49-9.18h-5.15v19.53h5.08Z"/><path class="cls-7" d="m864.84,4104.76h4.34v48.36h-4.34v-48.36Z"/><path class="cls-7" d="m883.68,4108.6h-10.17v-3.84h24.67v3.84h-10.17v44.51h-4.34v-44.51Z"/><path class="cls-7" d="m902.22,4140.47v-35.71h4.34v36.33c0,6.08,1.8,8.93,6.2,8.93s6.08-2.85,6.08-8.93v-36.33h4.34v35.28c0,9.67-3.22,13.89-10.48,13.89s-10.48-3.72-10.48-13.45Z"/><path class="cls-7" d="m930.31,4104.76h9.3c8.37,0,13.21,3.97,13.21,13.08,0,4.83-1.8,10.97-7.56,13.21l8.8,22.01v.06h-4.65l-8.12-21.27h-6.57v21.27h-4.4v-48.36Zm9.49,23.37c6.45,0,8.56-4.09,8.56-10.35,0-6.63-3.04-9.18-8.49-9.18h-5.14v19.53h5.08Z"/><path class="cls-7" d="m958.71,4104.76h16.68v3.91h-12.34v18.17h9.48v4.03h-9.48v18.35h12.34v3.91h-16.68v-48.36Z"/><path class="cls-7" d="m1006.32,4136.38h-10.54l-3.22,16.74h-4.46l10.29-48.36h5.39l10.29,48.36h-4.4l-3.35-16.74Zm-.68-3.72l-4.65-23.31h-.06l-4.46,23.31h9.18Z"/><path class="cls-7" d="m1027.71,4128.94c0-17.3,3.35-24.98,12.52-24.98s12.15,8.18,12.15,24.98c0,18.41-3.41,24.99-12.34,24.99s-12.34-6.51-12.34-24.99Zm20.15,0c0-14.32-1.49-20.95-7.81-20.95s-7.81,6.63-7.81,20.95,1.49,21.14,7.81,21.14,7.81-6.32,7.81-21.14Z"/><path class="cls-7" d="m1058.59,4104.76h9.3c8.37,0,13.21,3.97,13.21,13.08,0,4.83-1.8,10.97-7.56,13.21l8.8,22.01v.06h-4.65l-8.12-21.27h-6.57v21.27h-4.4v-48.36Zm9.49,23.37c6.45,0,8.56-4.09,8.56-10.35,0-6.63-3.04-9.18-8.49-9.18h-5.15v19.53h5.08Z"/><path class="cls-7" d="m1086.98,4104.76h5.58l14.01,39.86h.12v-39.86h4.09v48.36h-5.08l-14.51-41.04h-.12v41.04h-4.09v-48.36Z"/><path class="cls-7" d="m1118.23,4104.76h16.68v3.91h-12.34v18.17h9.49v4.03h-9.49v18.35h12.34v3.91h-16.68v-48.36Zm3.04-7.63l11.47-4.22.56,4.59-11.53,2.67-.5-3.04Z"/><rect class="cls-2" x="754.53" y="4072.67" width="410.39" height="118.22"/><path class="cls-7" d="m759.16,141.23h16.68v3.91h-12.34v18.17h9.49v4.03h-9.49v18.35h12.34v3.91h-16.68v-48.36Zm3.04-7.63l11.47-4.22.56,4.59-11.53,2.67-.5-3.04Z"/><path class="cls-7" d="m779.25,165.41c0-17.3,3.35-24.98,12.9-24.98,6.88,0,10.54,4.28,10.54,15.19v2.29h-4.22v-2.17c0-8.37-2.11-11.41-6.39-11.41-6.7,0-8.31,6.76-8.31,21.08s1.74,21.08,8.43,21.08c4.28,0,6.26-2.73,6.26-11.22v-2.73h4.22v2.73c0,10.85-3.6,15.13-10.6,15.13-9.49,0-12.83-7.07-12.83-24.98Z"/><path class="cls-7" d="m808.88,141.23h9.3c8.37,0,13.21,3.97,13.21,13.08,0,4.84-1.8,10.97-7.56,13.21l8.8,22.01v.06h-4.65l-8.12-21.26h-6.57v21.26h-4.4v-48.36Zm9.49,23.37c6.45,0,8.56-4.09,8.56-10.35,0-6.63-3.04-9.18-8.49-9.18h-5.15v19.53h5.08Z"/><path class="cls-7" d="m837.28,141.23h4.34v48.36h-4.34v-48.36Z"/><path class="cls-7" d="m856.13,145.08h-10.17v-3.84h24.67v3.84h-10.17v44.51h-4.34v-44.51Z"/><path class="cls-7" d="m874.66,176.94v-35.71h4.34v36.33c0,6.08,1.8,8.93,6.2,8.93s6.08-2.85,6.08-8.93v-36.33h4.34v35.28c0,9.67-3.22,13.89-10.48,13.89s-10.48-3.72-10.48-13.45Z"/><path class="cls-7" d="m902.75,141.23h9.3c8.37,0,13.21,3.97,13.21,13.08,0,4.84-1.8,10.97-7.56,13.21l8.8,22.01v.06h-4.65l-8.12-21.26h-6.57v21.26h-4.4v-48.36Zm9.49,23.37c6.45,0,8.56-4.09,8.56-10.35,0-6.63-3.04-9.18-8.49-9.18h-5.15v19.53h5.08Z"/><path class="cls-7" d="m931.15,141.23h16.68v3.91h-12.34v18.17h9.49v4.03h-9.49v18.35h12.34v3.91h-16.68v-48.36Z"/><path class="cls-7" d="m978.76,172.85h-10.54l-3.22,16.74h-4.46l10.29-48.36h5.39l10.29,48.36h-4.4l-3.35-16.74Zm-.68-3.72l-4.65-23.31h-.06l-4.46,23.31h9.18Z"/><path class="cls-7" d="m1001.39,141.23h9.3c8.37,0,13.21,3.97,13.21,13.08,0,4.84-1.8,10.97-7.56,13.21l8.8,22.01v.06h-4.65l-8.12-21.26h-6.57v21.26h-4.4v-48.36Zm9.49,23.37c6.45,0,8.56-4.09,8.56-10.35,0-6.63-3.04-9.18-8.49-9.18h-5.15v19.53h5.08Z"/><path class="cls-7" d="m1028.55,165.41c0-17.3,3.35-24.98,12.52-24.98s12.15,8.18,12.15,24.98c0,18.41-3.41,24.98-12.34,24.98s-12.34-6.51-12.34-24.98Zm20.15,0c0-14.32-1.49-20.95-7.81-20.95s-7.81,6.63-7.81,20.95,1.49,21.14,7.81,21.14,7.81-6.32,7.81-21.14Z"/><path class="cls-7" d="m1059.42,141.23h5.39l9.86,31.31h.12l9.86-31.31h5.39v48.36h-4.09v-40.61h-.06l-9.61,30.44h-3.1l-9.61-30.44h-.06v40.61h-4.09v-48.36Z"/><path class="cls-7" d="m1112.62,172.85h-10.54l-3.22,16.74h-4.46l10.29-48.36h5.39l10.29,48.36h-4.4l-3.35-16.74Zm-.68-3.72l-4.65-23.31h-.06l-4.46,23.31h9.18Z"/><path class="cls-7" d="m1124.71,141.23h4.34v48.36h-4.34v-48.36Z"/><path class="cls-7" d="m1136.49,141.23h5.58l14.01,39.86h.12v-39.86h4.09v48.36h-5.08l-14.51-41.04h-.12v41.04h-4.09v-48.36Z"/><rect class="cls-2" x="723.53" y="109.15" width="472.39" height="118.22"/><line class="cls-3" x1="1514.84" y1="743.84" x2="1514.84" y2="1035.14"/><line class="cls-3" x1="1433.85" y1="1249.31" x2="1433.85" y2="1521.97"/><line class="cls-3" x1="529.9" y1="1249.31" x2="529.9" y2="1311.15"/><line class="cls-3" x1="552.23" y1="4730.73" x2="552.23" y2="5003.75"/><path class="cls-8" d="m1311.42,1058.33h3.15l17.69,27.6h.04v-27.6h2.94v32.77h-3.07l-17.77-27.94h-.04v27.94h-2.94v-32.77Z"/><path class="cls-8" d="m1342.58,1085.3c0-3.95,2.23-6.09,7.86-6.09h6.34v-1.72c0-2.98-1.26-5.42-5.46-5.42-3.95,0-5.33,1.51-5.33,4.12v.88h-2.98v-.84c0-5,4.2-6.68,8.32-6.68,5.8,0,8.4,2.86,8.4,8.44v13.11h-2.06l-.55-2.98h-.08c-1.26,1.89-3.7,3.53-7.35,3.53-4.92,0-7.1-2.31-7.1-6.34Zm14.2-1.85v-1.76h-7.01c-2.65,0-4.03.92-4.03,3.61,0,2.35,1.26,3.86,4.5,3.86,4.16,0,6.55-2.14,6.55-5.71Z"/><path class="cls-8" d="m1367.07,1070.09h2.6l.29,3.91c1.01-2.14,3.07-4.45,6.76-4.45,1.26,0,2.18.21,3.02.55v3.15c-1.13-.5-2.1-.76-3.4-.76-3.74,0-6.34,2.81-6.34,5.75v12.85h-2.94v-21Z"/><path class="cls-8" d="m1384.37,1070.09h2.6l.29,3.91c1.01-2.14,3.07-4.45,6.76-4.45,1.26,0,2.18.21,3.02.55v3.15c-1.13-.5-2.1-.76-3.4-.76-3.74,0-6.34,2.81-6.34,5.75v12.85h-2.94v-21Z"/><path class="cls-8" d="m1399.37,1080.59c0-6.22,3.32-11.05,10.38-11.05,6.59,0,10.25,4.83,10.25,11.05s-3.7,11.05-10.29,11.05c-7.27,0-10.33-4.83-10.33-11.05Zm17.56,0c0-5.33-2.9-8.49-7.22-8.49-4.75,0-7.27,3.15-7.27,8.49s2.56,8.49,7.27,8.49c4.33,0,7.22-3.15,7.22-8.49Z"/><path class="cls-8" d="m1422.3,1070.13v-.04h2.98l5.76,17.47h.08l6.3-17.47h2.69l6.17,17.47h.08l5.75-17.47h2.86v.04l-7.18,20.96h-3.02l-5.96-17.06h-.08l-6.22,17.06h-3.02l-7.18-20.96Z"/><path class="cls-8" d="m1457.07,1084.88h3.36v6.22c0,3.95-.88,5.29-3.4,5.96l-.67-1.85c1.76-.67,2.06-1.09,2.06-3.78v-.34h-1.34v-6.22Z"/><path class="cls-8" d="m1476.39,1058.33h2.98v6.51h-2.98v-6.51Zm0,11.76h2.94v21h-2.94v-21Z"/><path class="cls-8" d="m1497.69,1088.4v2.6c-.76.21-2.14.59-4.03.59-3.82,0-6.34-1.6-6.34-6.89v-12.18h-4.16v-2.44h4.16v-6.05l2.94-1.43v7.48h5.92v2.44h-5.92v11.8c0,2.81.76,4.58,3.4,4.58,1.6,0,3.23-.29,4.03-.5Z"/><path class="cls-8" d="m1501.26,1085.3c0-3.95,2.23-6.09,7.86-6.09h6.34v-1.72c0-2.98-1.26-5.42-5.46-5.42-3.95,0-5.33,1.51-5.33,4.12v.88h-2.98v-.84c0-5,4.2-6.68,8.32-6.68,5.8,0,8.4,2.86,8.4,8.44v13.11h-2.06l-.55-2.98h-.08c-1.26,1.89-3.7,3.53-7.35,3.53-4.92,0-7.1-2.31-7.1-6.34Zm14.2-1.85v-1.76h-7.01c-2.65,0-4.03.92-4.03,3.61,0,2.35,1.26,3.86,4.5,3.86,4.16,0,6.55-2.14,6.55-5.71Z"/><path class="cls-8" d="m1525.74,1058.33h2.94v32.77h-2.94v-32.77Z"/><path class="cls-8" d="m1536.03,1058.33h2.98v6.51h-2.98v-6.51Zm0,11.76h2.94v21h-2.94v-21Z"/><path class="cls-8" d="m1544.69,1080.76c0-6.38,3.23-11.22,10-11.22s8.95,3.91,8.95,8.95v.42h-3.11v-.63c0-3.82-1.64-6.09-5.84-6.09-4.75,0-7.02,3.11-7.02,8.4,0,5.63,2.39,8.49,6.93,8.49,3.82,0,5.84-1.85,5.92-5.67h3.02c-.08,4.66-3.15,8.23-9.03,8.23-7.22,0-9.83-4.75-9.83-10.88Z"/><path class="cls-8" d="m1577.28,1084.67v-1.18h2.94v1.13c0,2.86,2.14,4.5,5.96,4.5s5.8-1.01,5.8-3.78c0-2.06-1.01-2.81-3.86-3.32l-4.62-.84c-3.02-.55-5.54-2.02-5.54-5.5,0-3.15,2.35-6.13,8.4-6.13s8.4,3.02,8.4,7.22v.88h-2.98v-.76c0-3.44-2.14-4.91-5.42-4.91-3.95,0-5.33,1.34-5.33,3.36s1.01,2.86,3.91,3.4l4.03.76c4.12.76,6.09,1.93,6.09,5.59,0,4.58-4.12,6.55-8.78,6.55-7.31,0-8.99-3.28-8.99-6.97Z"/><path class="cls-8" d="m1611.89,1088.4v2.6c-.76.21-2.14.59-4.03.59-3.82,0-6.34-1.6-6.34-6.89v-12.18h-4.16v-2.44h4.16v-6.05l2.94-1.43v7.48h5.92v2.44h-5.92v11.8c0,2.81.76,4.58,3.4,4.58,1.6,0,3.23-.29,4.03-.5Z"/><path class="cls-8" d="m1616.92,1070.09l6.89,17.98h.08l7.14-17.98h3.07v.04l-8.86,20.84-3.11,8.53h-2.98v-.04l3.19-8.36-8.78-20.96v-.04h3.36Z"/><path class="cls-8" d="m1638.3,1058.33h2.94v32.77h-2.94v-32.77Z"/><path class="cls-8" d="m1665.86,1081.6h-15.96c.17,4.79,2.48,7.48,6.93,7.48,3.82,0,5.67-1.43,5.97-4.83h2.98c-.29,4.24-3.28,7.39-9.03,7.39-7.06,0-9.83-4.66-9.83-10.88s3.23-11.22,10-11.22,8.95,3.99,8.95,10.21v1.85Zm-3.11-2.98c0-4.45-1.72-6.55-5.92-6.55s-6.55,2.65-6.89,6.97h12.81v-.42Z"/><path class="cls-8" d="m1683.08,1068.79h-3.36v-5.08c0-3.95.88-5.29,3.4-5.97l.67,1.85c-1.76.67-2.06,1.09-2.06,3.78v.34h1.34v5.08Zm5.92,0h-3.36v-5.08c0-3.95.88-5.29,3.4-5.97l.67,1.85c-1.76.67-2.06,1.09-2.06,3.78v.34h1.34v5.08Z"/><path class="cls-8" d="m1690.97,1084.67v-1.18h2.94v1.13c0,2.86,2.14,4.5,5.96,4.5s5.8-1.01,5.8-3.78c0-2.06-1.01-2.81-3.86-3.32l-4.62-.84c-3.02-.55-5.54-2.02-5.54-5.5,0-3.15,2.35-6.13,8.4-6.13s8.4,3.02,8.4,7.22v.88h-2.98v-.76c0-3.44-2.14-4.91-5.42-4.91-3.95,0-5.33,1.34-5.33,3.36s1.01,2.86,3.91,3.4l4.03.76c4.12.76,6.09,1.93,6.09,5.59,0,4.58-4.12,6.55-8.78,6.55-7.31,0-8.99-3.28-8.99-6.97Z"/><path class="cls-8" d="m1711.05,1067.53c1.76-.67,2.06-1.09,2.06-3.78v-.34h-1.34v-5.08h3.36v5.08c0,3.95-.88,5.29-3.4,5.97l-.67-1.85Zm5.92,0c1.76-.67,2.06-1.09,2.06-3.78v-.34h-1.34v-5.08h3.36v5.08c0,3.95-.88,5.29-3.4,5.97l-.67-1.85Z"/><path class="cls-8" d="m702.17,2102.31h2.94v30.12h15.71v2.65h-18.65v-32.77Z"/><path class="cls-8" d="m723.97,2124.57c0-6.22,3.32-11.05,10.38-11.05,6.59,0,10.25,4.83,10.25,11.05s-3.7,11.05-10.29,11.05c-7.27,0-10.33-4.83-10.33-11.05Zm17.56,0c0-5.33-2.9-8.49-7.22-8.49-4.75,0-7.27,3.15-7.27,8.49s2.56,8.49,7.27,8.49c4.33,0,7.22-3.15,7.22-8.49Z"/><path class="cls-8" d="m748.79,2124.57c0-6.22,3.32-11.05,10.38-11.05,6.59,0,10.25,4.83,10.25,11.05s-3.7,11.05-10.29,11.05c-7.27,0-10.33-4.83-10.33-11.05Zm17.56,0c0-5.33-2.9-8.49-7.22-8.49-4.75,0-7.27,3.15-7.27,8.49s2.56,8.49,7.27,8.49c4.33,0,7.22-3.15,7.22-8.49Z"/><path class="cls-8" d="m775.29,2114.07h2.39l.34,3.87h.08c1.13-2.48,4.03-4.41,7.86-4.41,6.3,0,9.66,3.99,9.66,11.01s-4.29,11.09-9.87,11.09c-3.78,0-6.38-1.6-7.43-3.7h-.08v11.55h-2.94v-29.41Zm17.18,10.63c0-7.18-3.4-8.61-6.93-8.61-4.24,0-7.56,2.73-7.56,8.44,0,6.01,3.45,8.57,7.44,8.57,3.02,0,7.06-1.47,7.06-8.4Z"/><path class="cls-8" d="m818.76,2125.58h-15.96c.17,4.79,2.48,7.48,6.93,7.48,3.82,0,5.67-1.43,5.97-4.83h2.98c-.29,4.24-3.28,7.39-9.03,7.39-7.06,0-9.83-4.66-9.83-10.88s3.23-11.22,10-11.22,8.95,3.99,8.95,10.21v1.85Zm-3.11-2.98c0-4.45-1.72-6.55-5.92-6.55s-6.55,2.65-6.89,6.97h12.81v-.42Z"/><path class="cls-8" d="m822.96,2124.61c0-7.1,4.28-11.09,10.04-11.09,3.7,0,6.22,1.6,7.31,3.74h.04v-14.96h2.94v32.77h-1.97l-.67-3.61h-.08c-1.18,2.31-3.95,4.16-7.77,4.16-6.3,0-9.83-3.99-9.83-11.01Zm17.64-.5c0-5.5-3.36-8.07-7.35-8.07-3.11,0-7.14,1.47-7.14,8.4s3.61,8.61,7.14,8.61c4.24,0,7.35-2.73,7.35-8.95Z"/><path class="cls-8" d="m859.04,2129.28c0-3.95,2.23-6.09,7.86-6.09h6.34v-1.72c0-2.98-1.26-5.42-5.46-5.42-3.95,0-5.33,1.51-5.33,4.12v.88h-2.98v-.84c0-5,4.2-6.68,8.32-6.68,5.8,0,8.4,2.86,8.4,8.44v13.11h-2.06l-.55-2.98h-.08c-1.26,1.89-3.7,3.53-7.35,3.53-4.92,0-7.1-2.31-7.1-6.34Zm14.2-1.85v-1.76h-7.01c-2.65,0-4.03.92-4.03,3.61,0,2.35,1.26,3.87,4.5,3.87,4.16,0,6.55-2.14,6.55-5.71Z"/><path class="cls-8" d="m881.63,2128.65v-1.18h2.94v1.13c0,2.86,2.14,4.5,5.96,4.5s5.8-1.01,5.8-3.78c0-2.06-1.01-2.81-3.86-3.32l-4.62-.84c-3.02-.55-5.54-2.02-5.54-5.5,0-3.15,2.35-6.13,8.4-6.13s8.4,3.02,8.4,7.23v.88h-2.98v-.76c0-3.44-2.14-4.92-5.42-4.92-3.95,0-5.33,1.34-5.33,3.36s1.01,2.86,3.91,3.4l4.03.76c4.12.76,6.09,1.93,6.09,5.59,0,4.58-4.12,6.55-8.78,6.55-7.31,0-8.99-3.28-8.99-6.97Z"/><path class="cls-8" d="m903.6,2124.74c0-6.38,3.23-11.22,10-11.22s8.95,3.91,8.95,8.95v.42h-3.11v-.63c0-3.82-1.64-6.09-5.84-6.09-4.75,0-7.01,3.11-7.01,8.4,0,5.63,2.39,8.49,6.93,8.49,3.82,0,5.84-1.85,5.92-5.67h3.02c-.08,4.66-3.15,8.23-9.03,8.23-7.22,0-9.83-4.75-9.83-10.88Z"/><path class="cls-8" d="m945.69,2125.58h-15.96c.17,4.79,2.48,7.48,6.93,7.48,3.82,0,5.67-1.43,5.97-4.83h2.98c-.29,4.24-3.28,7.39-9.03,7.39-7.06,0-9.83-4.66-9.83-10.88s3.23-11.22,10-11.22,8.95,3.99,8.95,10.21v1.85Zm-3.11-2.98c0-4.45-1.72-6.55-5.92-6.55s-6.55,2.65-6.89,6.97h12.81v-.42Z"/><path class="cls-8" d="m951.56,2114.07h2.6l.29,3.49c1.01-2.14,3.28-4.03,7.35-4.03,4.75,0,7.77,2.52,7.77,7.94v13.61h-2.94v-13.27c0-4.33-2.14-5.71-5.5-5.71-3.82,0-6.64,2.69-6.64,5.63v13.36h-2.94v-21Z"/><path class="cls-8" d="m975.25,2124.61c0-7.1,4.28-11.09,10.04-11.09,3.7,0,6.22,1.6,7.31,3.74h.04v-14.96h2.94v32.77h-1.97l-.67-3.61h-.08c-1.18,2.31-3.95,4.16-7.77,4.16-6.3,0-9.83-3.99-9.83-11.01Zm17.64-.5c0-5.5-3.36-8.07-7.35-8.07-3.11,0-7.14,1.47-7.14,8.4s3.61,8.61,7.14,8.61c4.24,0,7.35-2.73,7.35-8.95Z"/><path class="cls-8" d="m1020.19,2125.58h-15.96c.17,4.79,2.48,7.48,6.93,7.48,3.82,0,5.67-1.43,5.97-4.83h2.98c-.29,4.24-3.28,7.39-9.03,7.39-7.06,0-9.83-4.66-9.83-10.88s3.23-11.22,10-11.22,8.95,3.99,8.95,10.21v1.85Zm-3.11-2.98c0-4.45-1.72-6.55-5.92-6.55s-6.55,2.65-6.89,6.97h12.81v-.42Z"/><path class="cls-8" d="m1026.07,2114.07h2.6l.29,3.91c1.01-2.14,3.07-4.45,6.76-4.45,1.26,0,2.18.21,3.02.55v3.15c-1.13-.5-2.1-.76-3.4-.76-3.74,0-6.34,2.81-6.34,5.75v12.85h-2.94v-21Z"/><path class="cls-8" d="m1041.27,2128.65v-1.18h2.94v1.13c0,2.86,2.14,4.5,5.96,4.5s5.8-1.01,5.8-3.78c0-2.06-1.01-2.81-3.86-3.32l-4.62-.84c-3.02-.55-5.54-2.02-5.54-5.5,0-3.15,2.35-6.13,8.4-6.13s8.4,3.02,8.4,7.23v.88h-2.98v-.76c0-3.44-2.14-4.92-5.42-4.92-3.95,0-5.33,1.34-5.33,3.36s1.01,2.86,3.91,3.4l4.03.76c4.12.76,6.09,1.93,6.09,5.59,0,4.58-4.12,6.55-8.78,6.55-7.31,0-8.99-3.28-8.99-6.97Z"/><path class="cls-8" d="m1073.32,2129.28c0-3.95,2.23-6.09,7.86-6.09h6.34v-1.72c0-2.98-1.26-5.42-5.46-5.42-3.95,0-5.33,1.51-5.33,4.12v.88h-2.98v-.84c0-5,4.2-6.68,8.32-6.68,5.8,0,8.4,2.86,8.4,8.44v13.11h-2.06l-.55-2.98h-.08c-1.26,1.89-3.7,3.53-7.35,3.53-4.92,0-7.1-2.31-7.1-6.34Zm14.2-1.85v-1.76h-7.01c-2.65,0-4.03.92-4.03,3.61,0,2.35,1.26,3.87,4.5,3.87,4.16,0,6.55-2.14,6.55-5.71Z"/><path class="cls-8" d="m1097.8,2114.07h2.6l.29,3.49c1.01-2.14,3.28-4.03,7.35-4.03,4.75,0,7.77,2.52,7.77,7.94v13.61h-2.94v-13.27c0-4.33-2.14-5.71-5.5-5.71-3.82,0-6.64,2.69-6.64,5.63v13.36h-2.94v-21Z"/><path class="cls-8" d="m1121.49,2124.61c0-7.1,4.28-11.09,10.04-11.09,3.7,0,6.22,1.6,7.31,3.74h.04v-14.96h2.94v32.77h-1.97l-.67-3.61h-.08c-1.18,2.31-3.95,4.16-7.77,4.16-6.3,0-9.83-3.99-9.83-11.01Zm17.64-.5c0-5.5-3.36-8.07-7.35-8.07-3.11,0-7.14,1.47-7.14,8.4s3.61,8.61,7.14,8.61c4.24,0,7.35-2.73,7.35-8.95Z"/><path class="cls-8" d="m1157.15,2124.61c0-7.1,4.28-11.09,10.04-11.09,3.7,0,6.22,1.6,7.31,3.74h.04v-14.96h2.94v32.77h-1.97l-.67-3.61h-.08c-1.18,2.31-3.95,4.16-7.77,4.16-6.3,0-9.83-3.99-9.83-11.01Zm17.64-.5c0-5.5-3.36-8.07-7.35-8.07-3.11,0-7.14,1.47-7.14,8.4s3.61,8.61,7.14,8.61c4.24,0,7.35-2.73,7.35-8.95Z"/><path class="cls-8" d="m1202.09,2125.58h-15.96c.17,4.79,2.48,7.48,6.93,7.48,3.82,0,5.67-1.43,5.97-4.83h2.98c-.29,4.24-3.28,7.39-9.03,7.39-7.06,0-9.83-4.66-9.83-10.88s3.23-11.22,10-11.22,8.95,3.99,8.95,10.21v1.85Zm-3.11-2.98c0-4.45-1.72-6.55-5.92-6.55s-6.55,2.65-6.89,6.97h12.81v-.42Z"/><path class="cls-8" d="m1206.08,2128.65v-1.18h2.94v1.13c0,2.86,2.14,4.5,5.96,4.5s5.8-1.01,5.8-3.78c0-2.06-1.01-2.81-3.86-3.32l-4.62-.84c-3.02-.55-5.54-2.02-5.54-5.5,0-3.15,2.35-6.13,8.4-6.13s8.4,3.02,8.4,7.23v.88h-2.98v-.76c0-3.44-2.14-4.92-5.42-4.92-3.95,0-5.33,1.34-5.33,3.36s1.01,2.86,3.91,3.4l4.03.76c4.12.76,6.09,1.93,6.09,5.59,0,4.58-4.12,6.55-8.78,6.55-7.31,0-8.99-3.28-8.99-6.97Z"/><path class="cls-8" d="m1228.04,2124.74c0-6.38,3.23-11.22,10-11.22s8.95,3.91,8.95,8.95v.42h-3.11v-.63c0-3.82-1.64-6.09-5.84-6.09-4.75,0-7.01,3.11-7.01,8.4,0,5.63,2.39,8.49,6.93,8.49,3.82,0,5.84-1.85,5.92-5.67h3.02c-.08,4.66-3.15,8.23-9.03,8.23-7.22,0-9.83-4.75-9.83-10.88Z"/><path class="cls-8" d="m1270.13,2125.58h-15.96c.17,4.79,2.48,7.48,6.93,7.48,3.82,0,5.67-1.43,5.97-4.83h2.98c-.29,4.24-3.28,7.39-9.03,7.39-7.06,0-9.83-4.66-9.83-10.88s3.23-11.22,10-11.22,8.95,3.99,8.95,10.21v1.85Zm-3.11-2.98c0-4.45-1.72-6.55-5.92-6.55s-6.55,2.65-6.89,6.97h12.81v-.42Z"/><path class="cls-8" d="m1276,2114.07h2.6l.29,3.49c1.01-2.14,3.28-4.03,7.35-4.03,4.75,0,7.77,2.52,7.77,7.94v13.61h-2.94v-13.27c0-4.33-2.14-5.71-5.5-5.71-3.82,0-6.64,2.69-6.64,5.63v13.36h-2.94v-21Z"/><path class="cls-8" d="m1299.69,2124.61c0-7.1,4.28-11.09,10.04-11.09,3.7,0,6.22,1.6,7.31,3.74h.04v-14.96h2.94v32.77h-1.97l-.67-3.61h-.08c-1.18,2.31-3.95,4.16-7.77,4.16-6.3,0-9.83-3.99-9.83-11.01Zm17.64-.5c0-5.5-3.36-8.07-7.35-8.07-3.11,0-7.14,1.47-7.14,8.4s3.61,8.61,7.14,8.61c4.24,0,7.35-2.73,7.35-8.95Z"/><path class="cls-8" d="m1344.63,2125.58h-15.96c.17,4.79,2.48,7.48,6.93,7.48,3.82,0,5.67-1.43,5.97-4.83h2.98c-.29,4.24-3.28,7.39-9.03,7.39-7.06,0-9.83-4.66-9.83-10.88s3.23-11.22,10-11.22,8.95,3.99,8.95,10.21v1.85Zm-3.11-2.98c0-4.45-1.72-6.55-5.92-6.55s-6.55,2.65-6.89,6.97h12.81v-.42Z"/><path class="cls-8" d="m1350.51,2114.07h2.6l.29,3.91c1.01-2.14,3.07-4.45,6.76-4.45,1.26,0,2.18.21,3.02.55v3.15c-1.13-.5-2.1-.76-3.4-.76-3.74,0-6.34,2.81-6.34,5.75v12.85h-2.94v-21Z"/><path class="cls-8" d="m1365.72,2128.65v-1.18h2.94v1.13c0,2.86,2.14,4.5,5.96,4.5s5.8-1.01,5.8-3.78c0-2.06-1.01-2.81-3.86-3.32l-4.62-.84c-3.02-.55-5.54-2.02-5.54-5.5,0-3.15,2.35-6.13,8.4-6.13s8.4,3.02,8.4,7.23v.88h-2.98v-.76c0-3.44-2.14-4.92-5.42-4.92-3.95,0-5.33,1.34-5.33,3.36s1.01,2.86,3.91,3.4l4.03.76c4.12.76,6.09,1.93,6.09,5.59,0,4.58-4.12,6.55-8.78,6.55-7.31,0-8.99-3.28-8.99-6.97Z"/><path class="cls-8" d="m583.99,3059.54h3.23l11.51,20.92h.08l11.51-20.92h3.23v32.77h-2.94v-27.85h-.04l-10.75,19.91h-2.06l-10.8-19.91h-.04v27.85h-2.94v-32.77Z"/><path class="cls-8" d="m622.17,3059.54h2.98v6.51h-2.98v-6.51Zm0,11.76h2.94v21h-2.94v-21Z"/><path class="cls-8" d="m632.5,3071.3h2.6l.29,3.91c1.01-2.14,3.07-4.45,6.76-4.45,1.26,0,2.18.21,3.02.54v3.15c-1.13-.5-2.1-.76-3.4-.76-3.74,0-6.34,2.81-6.34,5.76v12.85h-2.94v-21Z"/><path class="cls-8" d="m649.81,3071.3h2.6l.29,3.91c1.01-2.14,3.07-4.45,6.76-4.45,1.26,0,2.18.21,3.02.54v3.15c-1.13-.5-2.1-.76-3.4-.76-3.74,0-6.34,2.81-6.34,5.76v12.85h-2.94v-21Z"/><path class="cls-8" d="m664.8,3081.81c0-6.22,3.32-11.05,10.38-11.05,6.59,0,10.25,4.83,10.25,11.05s-3.7,11.05-10.29,11.05c-7.27,0-10.33-4.83-10.33-11.05Zm17.56,0c0-5.33-2.9-8.48-7.22-8.48-4.75,0-7.27,3.15-7.27,8.48s2.56,8.49,7.27,8.49c4.33,0,7.22-3.15,7.22-8.49Z"/><path class="cls-8" d="m691.3,3071.3h2.6l.29,3.91c1.01-2.14,3.07-4.45,6.76-4.45,1.26,0,2.18.21,3.02.54v3.15c-1.13-.5-2.1-.76-3.4-.76-3.74,0-6.34,2.81-6.34,5.76v12.85h-2.94v-21Z"/><path class="cls-8" d="m725.24,3082.82h-15.96c.17,4.79,2.48,7.48,6.93,7.48,3.82,0,5.67-1.43,5.97-4.83h2.98c-.29,4.24-3.28,7.39-9.03,7.39-7.06,0-9.83-4.66-9.83-10.88s3.23-11.21,10-11.21,8.95,3.99,8.95,10.21v1.85Zm-3.11-2.98c0-4.45-1.72-6.55-5.92-6.55s-6.55,2.65-6.89,6.97h12.81v-.42Z"/><path class="cls-8" d="m729.44,3081.85c0-7.1,4.28-11.09,10.04-11.09,3.7,0,6.22,1.6,7.31,3.74h.04v-14.96h2.94v32.77h-1.97l-.67-3.61h-.08c-1.18,2.31-3.95,4.16-7.77,4.16-6.3,0-9.83-3.99-9.83-11.01Zm17.64-.5c0-5.5-3.36-8.07-7.35-8.07-3.11,0-7.14,1.47-7.14,8.4s3.61,8.61,7.14,8.61c4.24,0,7.35-2.73,7.35-8.95Z"/><path class="cls-8" d="m766.78,3059.54h2.94v32.77h-2.94v-32.77Z"/><path class="cls-8" d="m775.39,3081.81c0-6.22,3.32-11.05,10.38-11.05,6.59,0,10.25,4.83,10.25,11.05s-3.7,11.05-10.29,11.05c-7.27,0-10.33-4.83-10.33-11.05Zm17.56,0c0-5.33-2.9-8.48-7.22-8.48-4.75,0-7.27,3.15-7.27,8.48s2.56,8.49,7.27,8.49c4.33,0,7.22-3.15,7.22-8.49Z"/><path class="cls-8" d="m800.21,3081.81c0-6.22,3.32-11.05,10.38-11.05,6.59,0,10.25,4.83,10.25,11.05s-3.7,11.05-10.29,11.05c-7.27,0-10.33-4.83-10.33-11.05Zm17.56,0c0-5.33-2.9-8.48-7.22-8.48-4.75,0-7.27,3.15-7.27,8.48s2.56,8.49,7.27,8.49c4.33,0,7.22-3.15,7.22-8.49Z"/><path class="cls-8" d="m826.71,3071.3h2.39l.34,3.87h.08c1.13-2.48,4.03-4.41,7.86-4.41,6.3,0,9.66,3.99,9.66,11.01s-4.29,11.09-9.87,11.09c-3.78,0-6.38-1.6-7.43-3.7h-.08v11.55h-2.94v-29.41Zm17.18,10.63c0-7.18-3.4-8.61-6.93-8.61-4.24,0-7.56,2.73-7.56,8.44,0,6.01,3.45,8.57,7.44,8.57,3.02,0,7.06-1.47,7.06-8.4Z"/><path class="cls-8" d="m862.58,3059.54h2.98v6.51h-2.98v-6.51Zm0,11.76h2.94v21h-2.94v-21Z"/><path class="cls-8" d="m872.91,3071.3h2.6l.29,3.49c1.01-2.14,3.28-4.03,7.35-4.03,4.75,0,7.77,2.52,7.77,7.94v13.61h-2.94v-13.27c0-4.33-2.14-5.71-5.5-5.71-3.82,0-6.64,2.69-6.64,5.63v13.36h-2.94v-21Z"/><path class="cls-8" d="m909.62,3070h-3.36v-5.08c0-3.95.88-5.29,3.4-5.96l.67,1.85c-1.76.67-2.06,1.09-2.06,3.78v.34h1.34v5.08Zm5.92,0h-3.36v-5.08c0-3.95.88-5.29,3.4-5.96l.67,1.85c-1.76.67-2.06,1.09-2.06,3.78v.34h1.34v5.08Z"/><path class="cls-8" d="m925.67,3066.26v5.04h5.92v2.44h-5.92v18.57h-2.94v-18.57h-4.16v-2.44h4.16v-5.42c0-5.29,3.15-6.89,6.38-6.89,1.85,0,2.98.29,3.74.55v2.61c-.71-.21-1.89-.46-3.49-.46-2.65,0-3.7,1.76-3.7,4.58Z"/><path class="cls-8" d="m936.21,3068.74c1.76-.67,2.06-1.09,2.06-3.78v-.34h-1.34v-5.08h3.36v5.08c0,3.95-.88,5.29-3.4,5.97l-.67-1.85Zm5.92,0c1.76-.67,2.06-1.09,2.06-3.78v-.34h-1.34v-5.08h3.36v5.08c0,3.95-.88,5.29-3.4,5.97l-.67-1.85Z"/><path class="cls-8" d="m1177.37,1204.23c0-11.72,6.76-16.93,15.46-16.93,7.94,0,14.7,5.21,14.7,16.59,0,12.48-6.76,17.26-15.08,17.26s-15.08-4.79-15.08-16.93Zm27.05,0c0-10.12-5.33-14.24-12.01-14.24s-11.93,4.12-11.93,14.24,5.33,14.2,12.01,14.2,11.93-3.74,11.93-14.2Z"/><path class="cls-8" d="m1213.82,1199.6h2.6l.29,3.49c1.01-2.14,3.28-4.03,7.35-4.03,4.75,0,7.77,2.52,7.77,7.94v13.61h-2.94v-13.27c0-4.33-2.14-5.71-5.5-5.71-3.82,0-6.64,2.69-6.64,5.63v13.36h-2.94v-21Z"/><path class="cls-8" d="m1256.46,1211.12h-15.96c.17,4.79,2.48,7.48,6.93,7.48,3.82,0,5.67-1.43,5.97-4.83h2.98c-.29,4.24-3.28,7.39-9.03,7.39-7.06,0-9.83-4.66-9.83-10.88s3.23-11.22,10-11.22,8.95,3.99,8.95,10.21v1.85Zm-3.11-2.98c0-4.45-1.72-6.55-5.92-6.55s-6.55,2.65-6.89,6.97h12.81v-.42Z"/><path class="cls-8" d="m1270.1,1214.18v-1.18h2.94v1.13c0,2.86,2.14,4.5,5.96,4.5s5.8-1.01,5.8-3.78c0-2.06-1.01-2.81-3.86-3.32l-4.62-.84c-3.02-.55-5.54-2.02-5.54-5.5,0-3.15,2.35-6.13,8.4-6.13s8.4,3.02,8.4,7.23v.88h-2.98v-.76c0-3.44-2.14-4.91-5.42-4.91-3.95,0-5.33,1.34-5.33,3.36s1.01,2.86,3.91,3.4l4.03.76c4.12.76,6.09,1.93,6.09,5.59,0,4.58-4.12,6.55-8.78,6.55-7.31,0-8.99-3.28-8.99-6.97Z"/><path class="cls-8" d="m1293.75,1187.84h2.98v6.51h-2.98v-6.51Zm0,11.76h2.94v21h-2.94v-21Z"/><path class="cls-8" d="m1302.4,1210.15c0-7.1,4.28-11.09,10.04-11.09,3.7,0,6.22,1.6,7.31,3.74h.04v-14.95h2.94v32.77h-1.97l-.67-3.61h-.08c-1.18,2.31-3.95,4.16-7.77,4.16-6.3,0-9.83-3.99-9.83-11.01Zm17.64-.5c0-5.5-3.36-8.07-7.35-8.07-3.11,0-7.14,1.47-7.14,8.4s3.61,8.61,7.14,8.61c4.24,0,7.35-2.73,7.35-8.95Z"/><path class="cls-8" d="m1347.34,1211.12h-15.96c.17,4.79,2.48,7.48,6.93,7.48,3.82,0,5.67-1.43,5.97-4.83h2.98c-.29,4.24-3.28,7.39-9.03,7.39-7.06,0-9.83-4.66-9.83-10.88s3.23-11.22,10-11.22,8.95,3.99,8.95,10.21v1.85Zm-3.11-2.98c0-4.45-1.72-6.55-5.92-6.55s-6.55,2.65-6.89,6.97h12.81v-.42Z"/><path class="cls-8" d="m1351.54,1210.15c0-7.1,4.28-11.09,10.04-11.09,3.7,0,6.22,1.6,7.31,3.74h.04v-14.95h2.94v32.77h-1.97l-.67-3.61h-.08c-1.18,2.31-3.95,4.16-7.77,4.16-6.3,0-9.83-3.99-9.83-11.01Zm17.64-.5c0-5.5-3.36-8.07-7.35-8.07-3.11,0-7.14,1.47-7.14,8.4s3.61,8.61,7.14,8.61c4.24,0,7.35-2.73,7.35-8.95Z"/><path class="cls-8" d="m1391.69,1217.12h-.08l-.76,3.49h-1.97v-32.77h2.94v15.25h.04c1.26-2.31,4.07-4.03,7.69-4.03,6.3,0,9.66,3.99,9.66,11.01s-4.29,11.09-9.87,11.09c-3.78,0-6.55-1.64-7.65-4.03Zm14.37-6.89c0-7.18-3.4-8.61-6.93-8.61-4.24,0-7.56,2.73-7.56,8.44,0,6.01,3.45,8.57,7.44,8.57,3.02,0,7.06-1.47,7.06-8.4Z"/><path class="cls-8" d="m1413.62,1214.81c0-3.95,2.23-6.09,7.86-6.09h6.34v-1.72c0-2.98-1.26-5.42-5.46-5.42-3.95,0-5.33,1.51-5.33,4.12v.88h-2.98v-.84c0-5,4.2-6.68,8.32-6.68,5.8,0,8.4,2.86,8.4,8.44v13.11h-2.06l-.55-2.98h-.08c-1.26,1.89-3.7,3.53-7.35,3.53-4.92,0-7.1-2.31-7.1-6.34Zm14.2-1.85v-1.76h-7.01c-2.65,0-4.03.92-4.03,3.61,0,2.35,1.26,3.86,4.5,3.86,4.16,0,6.55-2.14,6.55-5.71Z"/><path class="cls-8" d="m1438.1,1199.6h2.6l.29,3.91c1.01-2.14,3.07-4.45,6.76-4.45,1.26,0,2.18.21,3.02.55v3.15c-1.13-.5-2.1-.76-3.4-.76-3.74,0-6.34,2.81-6.34,5.75v12.85h-2.94v-21Z"/><path class="cls-8" d="m1465.07,1187.84h2.98v6.51h-2.98v-6.51Zm0,11.76h2.94v21h-2.94v-21Z"/><path class="cls-8" d="m1475.4,1199.6h2.6l.29,3.49c1.01-2.14,3.28-4.03,7.35-4.03,4.75,0,7.77,2.52,7.77,7.94v13.61h-2.94v-13.27c0-4.33-2.14-5.71-5.5-5.71-3.82,0-6.64,2.69-6.64,5.63v13.36h-2.94v-21Z"/><path class="cls-8" d="m1512.11,1198.3h-3.36v-5.08c0-3.95.88-5.29,3.4-5.97l.67,1.85c-1.76.67-2.06,1.09-2.06,3.78v.34h1.34v5.08Zm5.92,0h-3.36v-5.08c0-3.95.88-5.29,3.4-5.97l.67,1.85c-1.76.67-2.06,1.09-2.06,3.78v.34h1.34v5.08Z"/><path class="cls-8" d="m1535.38,1217.92v2.6c-.76.21-2.14.59-4.03.59-3.82,0-6.34-1.6-6.34-6.89v-12.18h-4.16v-2.44h4.16v-6.05l2.94-1.43v7.48h5.92v2.44h-5.92v11.8c0,2.81.76,4.58,3.4,4.58,1.6,0,3.23-.29,4.03-.5Z"/><path class="cls-8" d="m1537.26,1197.04c1.76-.67,2.06-1.09,2.06-3.78v-.34h-1.34v-5.08h3.36v5.08c0,3.95-.88,5.29-3.4,5.97l-.67-1.85Zm5.92,0c1.76-.67,2.06-1.09,2.06-3.78v-.34h-1.34v-5.08h3.36v5.08c0,3.95-.88,5.29-3.4,5.97l-.67-1.85Z"/><path class="cls-8" d="m334.66,1187.84h8.61c7.94,0,11.64,2.73,11.64,9.62,0,6.43-2.77,10.12-11.13,10.12h-6.13v13.02h-2.98v-32.77Zm9.28,17.22c6.09,0,7.94-2.69,7.94-7.65,0-5.21-2.6-6.97-8.44-6.97h-5.8v14.62h6.3Z"/><path class="cls-8" d="m359.53,1199.6h2.6l.29,3.91c1.01-2.14,3.07-4.45,6.76-4.45,1.26,0,2.18.21,3.02.55v3.15c-1.13-.5-2.1-.76-3.4-.76-3.74,0-6.34,2.81-6.34,5.75v12.85h-2.94v-21Z"/><path class="cls-8" d="m376.83,1187.84h2.98v6.51h-2.98v-6.51Zm0,11.76h2.94v21h-2.94v-21Z"/><path class="cls-8" d="m387.16,1199.6h2.6l.29,3.49c1.01-2.14,3.28-4.03,7.35-4.03,4.75,0,7.77,2.52,7.77,7.94v13.61h-2.94v-13.27c0-4.33-2.14-5.71-5.5-5.71-3.82,0-6.64,2.69-6.64,5.63v13.36h-2.94v-21Z"/><path class="cls-8" d="m423.49,1217.92v2.6c-.76.21-2.14.59-4.03.59-3.82,0-6.34-1.6-6.34-6.89v-12.18h-4.16v-2.44h4.16v-6.05l2.94-1.43v7.48h5.92v2.44h-5.92v11.8c0,2.81.76,4.58,3.4,4.58,1.6,0,3.23-.29,4.03-.5Z"/><path class="cls-8" d="m436.09,1214.18v-1.18h2.94v1.13c0,2.86,2.14,4.5,5.96,4.5s5.8-1.01,5.8-3.78c0-2.06-1.01-2.81-3.86-3.32l-4.62-.84c-3.02-.55-5.54-2.02-5.54-5.5,0-3.15,2.35-6.13,8.4-6.13s8.4,3.02,8.4,7.23v.88h-2.98v-.76c0-3.44-2.14-4.91-5.42-4.91-3.95,0-5.33,1.34-5.33,3.36s1.01,2.86,3.91,3.4l4.03.76c4.12.76,6.09,1.93,6.09,5.59,0,4.58-4.12,6.55-8.78,6.55-7.31,0-8.99-3.28-8.99-6.97Z"/><path class="cls-8" d="m470.7,1217.92v2.6c-.76.21-2.14.59-4.03.59-3.82,0-6.34-1.6-6.34-6.89v-12.18h-4.16v-2.44h4.16v-6.05l2.94-1.43v7.48h5.92v2.44h-5.92v11.8c0,2.81.76,4.58,3.4,4.58,1.6,0,3.23-.29,4.03-.5Z"/><path class="cls-8" d="m475.74,1199.6l6.89,17.98h.08l7.14-17.98h3.07v.04l-8.86,20.84-3.11,8.53h-2.98v-.04l3.19-8.36-8.78-20.96v-.04h3.36Z"/><path class="cls-8" d="m497.12,1187.84h2.94v32.77h-2.94v-32.77Z"/><path class="cls-8" d="m524.67,1211.12h-15.96c.17,4.79,2.48,7.48,6.93,7.48,3.82,0,5.67-1.43,5.97-4.83h2.98c-.29,4.24-3.28,7.39-9.03,7.39-7.06,0-9.83-4.66-9.83-10.88s3.23-11.22,10-11.22,8.95,3.99,8.95,10.21v1.85Zm-3.11-2.98c0-4.45-1.72-6.55-5.92-6.55s-6.55,2.65-6.89,6.97h12.81v-.42Z"/><path class="cls-8" d="m539.79,1213.22v-13.61h2.94v13.27c0,4.33,2.14,5.71,5.42,5.71,3.74,0,6.55-2.69,6.55-5.63v-13.36h2.94v21h-2.6l-.25-3.36h-.08c-.97,2.02-3.23,3.91-7.23,3.91-4.66,0-7.69-2.52-7.69-7.94Z"/><path class="cls-8" d="m564.99,1199.6h2.39l.34,3.86h.08c1.13-2.48,4.03-4.41,7.86-4.41,6.3,0,9.66,3.99,9.66,11.01s-4.29,11.09-9.87,11.09c-3.78,0-6.38-1.6-7.43-3.7h-.08v11.55h-2.94v-29.41Zm17.18,10.63c0-7.18-3.4-8.61-6.93-8.61-4.24,0-7.56,2.73-7.56,8.44,0,6.01,3.45,8.57,7.44,8.57,3.02,0,7.06-1.47,7.06-8.4Z"/><path class="cls-8" d="m591.2,1199.6h2.39l.34,3.86h.08c1.13-2.48,4.03-4.41,7.86-4.41,6.3,0,9.66,3.99,9.66,11.01s-4.29,11.09-9.87,11.09c-3.78,0-6.38-1.6-7.43-3.7h-.08v11.55h-2.94v-29.41Zm17.18,10.63c0-7.18-3.4-8.61-6.93-8.61-4.24,0-7.56,2.73-7.56,8.44,0,6.01,3.45,8.57,7.44,8.57,3.02,0,7.06-1.47,7.06-8.4Z"/><path class="cls-8" d="m634.67,1211.12h-15.96c.17,4.79,2.48,7.48,6.93,7.48,3.82,0,5.67-1.43,5.97-4.83h2.98c-.29,4.24-3.28,7.39-9.03,7.39-7.06,0-9.83-4.66-9.83-10.88s3.23-11.22,10-11.22,8.95,3.99,8.95,10.21v1.85Zm-3.11-2.98c0-4.45-1.72-6.55-5.92-6.55s-6.55,2.65-6.89,6.97h12.81v-.42Z"/><path class="cls-8" d="m640.55,1199.6h2.6l.29,3.91c1.01-2.14,3.07-4.45,6.76-4.45,1.26,0,2.18.21,3.02.55v3.15c-1.13-.5-2.1-.76-3.4-.76-3.74,0-6.34,2.81-6.34,5.75v12.85h-2.94v-21Z"/><path class="cls-8" d="m655.54,1210.27c0-6.38,3.23-11.22,10-11.22s8.95,3.91,8.95,8.95v.42h-3.11v-.63c0-3.82-1.64-6.09-5.84-6.09-4.75,0-7.02,3.11-7.02,8.4,0,5.63,2.39,8.49,6.93,8.49,3.82,0,5.84-1.85,5.92-5.67h3.02c-.08,4.66-3.15,8.23-9.03,8.23-7.22,0-9.83-4.75-9.83-10.88Z"/><path class="cls-8" d="m678.89,1214.81c0-3.95,2.23-6.09,7.86-6.09h6.34v-1.72c0-2.98-1.26-5.42-5.46-5.42-3.95,0-5.33,1.51-5.33,4.12v.88h-2.98v-.84c0-5,4.2-6.68,8.32-6.68,5.8,0,8.4,2.86,8.4,8.44v13.11h-2.06l-.55-2.98h-.08c-1.26,1.89-3.7,3.53-7.35,3.53-4.92,0-7.1-2.31-7.1-6.34Zm14.2-1.85v-1.76h-7.01c-2.65,0-4.03.92-4.03,3.61,0,2.35,1.26,3.86,4.5,3.86,4.16,0,6.55-2.14,6.55-5.71Z"/><path class="cls-8" d="m701.49,1214.18v-1.18h2.94v1.13c0,2.86,2.14,4.5,5.96,4.5s5.8-1.01,5.8-3.78c0-2.06-1.01-2.81-3.86-3.32l-4.62-.84c-3.02-.55-5.54-2.02-5.54-5.5,0-3.15,2.35-6.13,8.4-6.13s8.4,3.02,8.4,7.23v.88h-2.98v-.76c0-3.44-2.14-4.91-5.42-4.91-3.95,0-5.33,1.34-5.33,3.36s1.01,2.86,3.91,3.4l4.03.76c4.12.76,6.09,1.93,6.09,5.59,0,4.58-4.12,6.55-8.78,6.55-7.31,0-8.99-3.28-8.99-6.97Z"/><path class="cls-8" d="m742.4,1211.12h-15.96c.17,4.79,2.48,7.48,6.93,7.48,3.82,0,5.67-1.43,5.97-4.83h2.98c-.29,4.24-3.28,7.39-9.03,7.39-7.06,0-9.83-4.66-9.83-10.88s3.23-11.22,10-11.22,8.95,3.99,8.95,10.21v1.85Zm-3.11-2.98c0-4.45-1.72-6.55-5.92-6.55s-6.55,2.65-6.89,6.97h12.81v-.42Z"/><path class="cls-8" d="m757.94,1187.84h2.94v32.77h-2.94v-32.77Z"/><path class="cls-8" d="m785.49,1211.12h-15.96c.17,4.79,2.48,7.48,6.93,7.48,3.82,0,5.67-1.43,5.97-4.83h2.98c-.29,4.24-3.28,7.39-9.03,7.39-7.06,0-9.83-4.66-9.83-10.88s3.23-11.22,10-11.22,8.95,3.99,8.95,10.21v1.85Zm-3.11-2.98c0-4.45-1.72-6.55-5.92-6.55s-6.55,2.65-6.89,6.97h12.81v-.42Z"/><path class="cls-8" d="m791.96,1214.22v-12.18h-4.16v-2.44h4.16v-6.05l2.94-1.43v7.48h11.85v-6.05l2.94-1.43v7.48h5.92v2.44h-5.92v11.8c0,2.81.76,4.58,3.4,4.58,1.6,0,3.24-.29,4.03-.5v2.6c-.76.21-2.14.59-4.03.59-3.82,0-6.34-1.6-6.34-6.89v-12.18h-11.85v11.8c0,2.81.76,4.58,3.4,4.58,1.6,0,3.23-.29,4.03-.5v2.6c-.76.21-2.14.59-4.03.59-3.82,0-6.34-1.6-6.34-6.89Z"/><path class="cls-8" d="m838.58,1211.12h-15.96c.17,4.79,2.48,7.48,6.93,7.48,3.82,0,5.67-1.43,5.97-4.83h2.98c-.29,4.24-3.28,7.39-9.03,7.39-7.06,0-9.83-4.66-9.83-10.88s3.23-11.22,10-11.22,8.95,3.99,8.95,10.21v1.85Zm-3.11-2.98c0-4.45-1.72-6.55-5.92-6.55s-6.55,2.65-6.89,6.97h12.81v-.42Z"/><path class="cls-8" d="m844.46,1199.6h2.6l.29,3.91c1.01-2.14,3.07-4.45,6.76-4.45,1.26,0,2.18.21,3.02.55v3.15c-1.13-.5-2.1-.76-3.4-.76-3.74,0-6.34,2.81-6.34,5.75v12.85h-2.94v-21Z"/><path class="cls-8" d="m859.66,1214.18v-1.18h2.94v1.13c0,2.86,2.14,4.5,5.96,4.5s5.8-1.01,5.8-3.78c0-2.06-1.01-2.81-3.86-3.32l-4.62-.84c-3.02-.55-5.54-2.02-5.54-5.5,0-3.15,2.35-6.13,8.4-6.13s8.4,3.02,8.4,7.23v.88h-2.98v-.76c0-3.44-2.14-4.91-5.42-4.91-3.95,0-5.33,1.34-5.33,3.36s1.01,2.86,3.91,3.4l4.03.76c4.12.76,6.09,1.93,6.09,5.59,0,4.58-4.12,6.55-8.78,6.55-7.31,0-8.99-3.28-8.99-6.97Z"/><path class="cls-8" d="m596.37,3173.96h-13.99l-3.74,10.33h-3.07l12.18-32.77h3.32l12.1,32.77h-3.07l-3.74-10.33Zm-.92-2.6l-6.05-16.8h-.04l-6.05,16.8h12.14Z"/><path class="cls-8" d="m607.37,3163.29h2.6l.29,3.49c1.01-2.14,3.28-4.03,7.35-4.03,4.75,0,7.77,2.52,7.77,7.94v13.61h-2.94v-13.27c0-4.33-2.14-5.71-5.5-5.71-3.82,0-6.64,2.69-6.64,5.63v13.36h-2.94v-21Z"/><path class="cls-8" d="m632.11,3186.1v-.13h3.11v.13c0,2.9,1.93,4.33,6.13,4.33,4.79,0,7.01-2.94,7.01-7.86v-2.1h-.08c-1.09,2.18-3.65,4.07-7.48,4.07-6.3,0-9.75-3.99-9.75-10.71,0-7.1,4.37-11.09,9.96-11.09,3.78,0,6.55,1.81,7.56,4.12h.13l.29-3.57h2.31v19.16c0,5.88-2.81,10.71-10.33,10.71-6.3,0-8.86-2.98-8.86-7.06Zm16.59-12.77c0-5.5-3.36-8.07-7.35-8.07-3.03,0-7.14,1.47-7.14,8.4s3.57,8.32,7.1,8.32c4.24,0,7.39-2.73,7.39-8.65Z"/><path class="cls-8" d="m658.23,3176.9v-13.61h2.94v13.27c0,4.33,2.14,5.71,5.42,5.71,3.74,0,6.55-2.69,6.55-5.63v-13.36h2.94v21h-2.6l-.25-3.36h-.08c-.97,2.02-3.23,3.91-7.23,3.91-4.66,0-7.69-2.52-7.69-7.94Z"/><path class="cls-8" d="m683.43,3151.53h2.94v32.77h-2.94v-32.77Z"/><path class="cls-8" d="m692.46,3178.5c0-3.95,2.23-6.09,7.86-6.09h6.34v-1.72c0-2.98-1.26-5.42-5.46-5.42-3.95,0-5.33,1.51-5.33,4.12v.88h-2.98v-.84c0-5,4.2-6.68,8.32-6.68,5.8,0,8.4,2.86,8.4,8.44v13.11h-2.06l-.55-2.98h-.08c-1.26,1.89-3.7,3.53-7.35,3.53-4.92,0-7.1-2.31-7.1-6.34Zm14.2-1.85v-1.76h-7.01c-2.65,0-4.03.92-4.03,3.61,0,2.35,1.26,3.87,4.5,3.87,4.16,0,6.55-2.14,6.55-5.71Z"/><path class="cls-8" d="m716.95,3163.29h2.6l.29,3.91c1.01-2.14,3.07-4.45,6.76-4.45,1.26,0,2.18.21,3.02.55v3.15c-1.13-.5-2.1-.76-3.4-.76-3.74,0-6.34,2.81-6.34,5.75v12.85h-2.94v-21Z"/><path class="cls-8" d="m761.18,3174.8h-15.96c.17,4.79,2.48,7.48,6.93,7.48,3.82,0,5.67-1.43,5.97-4.83h2.98c-.29,4.24-3.28,7.39-9.03,7.39-7.06,0-9.83-4.66-9.83-10.88s3.23-11.22,10-11.22,8.95,3.99,8.95,10.21v1.85Zm-3.11-2.98c0-4.45-1.72-6.55-5.92-6.55s-6.55,2.65-6.89,6.97h12.81v-.42Z"/><path class="cls-8" d="m767.05,3163.29h2.6l.29,3.49c1.01-2.14,3.28-4.03,7.35-4.03,4.75,0,7.77,2.52,7.77,7.94v13.61h-2.94v-13.27c0-4.33-2.14-5.71-5.5-5.71-3.82,0-6.64,2.69-6.64,5.63v13.36h-2.94v-21Z"/><path class="cls-8" d="m803.38,3181.61v2.6c-.76.21-2.14.59-4.03.59-3.82,0-6.34-1.6-6.34-6.89v-12.18h-4.16v-2.44h4.16v-6.05l2.94-1.43v7.48h5.92v2.44h-5.92v11.8c0,2.81.76,4.58,3.4,4.58,1.6,0,3.23-.29,4.03-.5Z"/><path class="cls-8" d="m808.21,3163.29h2.6l.29,3.91c1.01-2.14,3.07-4.45,6.76-4.45,1.26,0,2.18.21,3.02.55v3.15c-1.13-.5-2.1-.76-3.4-.76-3.74,0-6.34,2.81-6.34,5.75v12.85h-2.94v-21Z"/><path class="cls-8" d="m825.73,3163.29l6.89,17.98h.08l7.14-17.98h3.07v.04l-8.86,20.84-3.11,8.53h-2.98v-.04l3.19-8.36-8.78-20.96v-.04h3.36Z"/><path class="cls-8" d="m854.88,3177.87v-1.18h2.94v1.13c0,2.86,2.14,4.5,5.96,4.5s5.8-1.01,5.8-3.78c0-2.06-1.01-2.81-3.86-3.32l-4.62-.84c-3.02-.55-5.54-2.02-5.54-5.5,0-3.15,2.35-6.13,8.4-6.13s8.4,3.02,8.4,7.23v.88h-2.98v-.76c0-3.44-2.14-4.92-5.42-4.92-3.95,0-5.33,1.34-5.33,3.36s1.01,2.86,3.91,3.4l4.03.76c4.12.76,6.09,1.93,6.09,5.59,0,4.58-4.12,6.55-8.78,6.55-7.31,0-8.99-3.28-8.99-6.97Z"/><path class="cls-8" d="m889.48,3181.61v2.6c-.76.21-2.14.59-4.03.59-3.82,0-6.34-1.6-6.34-6.89v-12.18h-4.16v-2.44h4.16v-6.05l2.94-1.43v7.48h5.92v2.44h-5.92v11.8c0,2.81.76,4.58,3.4,4.58,1.6,0,3.23-.29,4.03-.5Z"/><path class="cls-8" d="m894.31,3163.29h2.6l.29,3.91c1.01-2.14,3.07-4.45,6.76-4.45,1.26,0,2.18.21,3.02.55v3.15c-1.13-.5-2.1-.76-3.4-.76-3.74,0-6.34,2.81-6.34,5.75v12.85h-2.94v-21Z"/><path class="cls-8" d="m909.31,3173.79c0-6.22,3.32-11.05,10.38-11.05,6.59,0,10.25,4.83,10.25,11.05s-3.7,11.05-10.29,11.05c-7.27,0-10.33-4.83-10.33-11.05Zm17.56,0c0-5.33-2.9-8.49-7.22-8.49-4.75,0-7.27,3.15-7.27,8.49s2.56,8.49,7.27,8.49c4.33,0,7.22-3.15,7.22-8.49Z"/><path class="cls-8" d="m935.18,3151.53h2.94v23.23l12.14-11.47h3.65v.04l-8.4,7.86,8.78,13.06v.04h-3.36l-7.39-11.22-5.42,5.04v6.17h-2.94v-32.77Z"/><path class="cls-8" d="m975.54,3174.8h-15.96c.17,4.79,2.48,7.48,6.93,7.48,3.82,0,5.67-1.43,5.97-4.83h2.98c-.29,4.24-3.28,7.39-9.03,7.39-7.06,0-9.83-4.66-9.83-10.88s3.23-11.22,10-11.22,8.95,3.99,8.95,10.21v1.85Zm-3.11-2.98c0-4.45-1.72-6.55-5.92-6.55s-6.55,2.65-6.89,6.97h12.81v-.42Z"/><path class="cls-8" d="m979.53,3177.87v-1.18h2.94v1.13c0,2.86,2.14,4.5,5.96,4.5s5.8-1.01,5.8-3.78c0-2.06-1.01-2.81-3.86-3.32l-4.62-.84c-3.02-.55-5.54-2.02-5.54-5.5,0-3.15,2.35-6.13,8.4-6.13s8.4,3.02,8.4,7.23v.88h-2.98v-.76c0-3.44-2.14-4.92-5.42-4.92-3.95,0-5.33,1.34-5.33,3.36s1.01,2.86,3.91,3.4l4.03.76c4.12.76,6.09,1.93,6.09,5.59,0,4.58-4.12,6.55-8.78,6.55-7.31,0-8.99-3.28-8.99-6.97Z"/><path class="cls-8" d="m1012.84,3151.53h2.98v6.51h-2.98v-6.51Zm0,11.76h2.94v21h-2.94v-21Z"/><path class="cls-8" d="m1023.17,3163.29h2.6l.29,3.49c1.01-2.14,3.28-4.03,7.35-4.03,4.75,0,7.77,2.52,7.77,7.94v13.61h-2.94v-13.27c0-4.33-2.14-5.71-5.5-5.71-3.82,0-6.64,2.69-6.64,5.63v13.36h-2.94v-21Z"/><path class="cls-8" d="m1059.88,3161.99h-3.36v-5.08c0-3.95.88-5.29,3.4-5.96l.67,1.85c-1.76.67-2.06,1.09-2.06,3.78v.34h1.34v5.08Zm5.92,0h-3.36v-5.08c0-3.95.88-5.29,3.4-5.96l.67,1.85c-1.76.67-2.06,1.09-2.06,3.78v.34h1.34v5.08Z"/><path class="cls-8" d="m1072.18,3163.29h2.6l.29,3.49c1.01-2.14,3.28-4.03,7.35-4.03,4.75,0,7.77,2.52,7.77,7.94v13.61h-2.94v-13.27c0-4.33-2.14-5.71-5.5-5.71-3.82,0-6.64,2.69-6.64,5.63v13.36h-2.94v-21Z"/><path class="cls-8" d="m1094.61,3160.73c1.76-.67,2.06-1.09,2.06-3.78v-.34h-1.34v-5.08h3.36v5.08c0,3.95-.88,5.29-3.4,5.96l-.67-1.85Zm5.92,0c1.76-.67,2.06-1.09,2.06-3.78v-.34h-1.34v-5.08h3.36v5.08c0,3.95-.88,5.29-3.4,5.96l-.67-1.85Z"/><path class="cls-8" d="m1107.55,3178.08h3.36v6.22c0,3.95-.88,5.29-3.4,5.96l-.67-1.85c1.76-.67,2.06-1.09,2.06-3.78v-.34h-1.34v-6.22Z"/><path class="cls-8" d="m1128.55,3161.99h-3.36v-5.08c0-3.95.88-5.29,3.4-5.96l.67,1.85c-1.76.67-2.06,1.09-2.06,3.78v.34h1.34v5.08Zm5.92,0h-3.36v-5.08c0-3.95.88-5.29,3.4-5.96l.67,1.85c-1.76.67-2.06,1.09-2.06,3.78v.34h1.34v5.08Z"/><path class="cls-8" d="m1171.56,3170.69v13.61h-2.94v-13.27c0-4.33-2.14-5.71-4.75-5.71-3.82,0-6.17,2.69-6.17,5.63v13.36h-2.94v-13.27c0-4.33-1.85-5.71-4.83-5.71-3.61,0-6.13,2.69-6.13,5.63v13.36h-2.94v-21h2.6l.29,3.49c1.01-2.02,3.07-4.03,6.93-4.03,2.94,0,5.38,1.39,6.43,4.29,1.22-2.39,3.57-4.29,7.14-4.29,4.29,0,7.31,2.52,7.31,7.94Z"/><path class="cls-8" d="m1175.96,3160.73c1.76-.67,2.06-1.09,2.06-3.78v-.34h-1.34v-5.08h3.36v5.08c0,3.95-.88,5.29-3.4,5.96l-.67-1.85Zm5.92,0c1.76-.67,2.06-1.09,2.06-3.78v-.34h-1.34v-5.08h3.36v5.08c0,3.95-.88,5.29-3.4,5.96l-.67-1.85Z"/><path class="cls-8" d="m1188.9,3178.08h3.36v6.22c0,3.95-.88,5.29-3.4,5.96l-.67-1.85c1.76-.67,2.06-1.09,2.06-3.78v-.34h-1.34v-6.22Z"/><path class="cls-8" d="m1209.9,3161.99h-3.36v-5.08c0-3.95.88-5.29,3.4-5.96l.67,1.85c-1.76.67-2.06,1.09-2.06,3.78v.34h1.34v5.08Zm5.92,0h-3.36v-5.08c0-3.95.88-5.29,3.4-5.96l.67,1.85c-1.76.67-2.06,1.09-2.06,3.78v.34h1.34v5.08Z"/><path class="cls-8" d="m1219.06,3163.33v-.04h3.36l7.35,17.98h.08l7.1-17.98h3.07v.04l-8.74,20.96h-3.02l-9.2-20.96Z"/><path class="cls-8" d="m1242.54,3160.73c1.76-.67,2.06-1.09,2.06-3.78v-.34h-1.34v-5.08h3.36v5.08c0,3.95-.88,5.29-3.4,5.96l-.67-1.85Zm5.92,0c1.76-.67,2.06-1.09,2.06-3.78v-.34h-1.34v-5.08h3.36v5.08c0,3.95-.88,5.29-3.4,5.96l-.67-1.85Z"/><path class="cls-8" d="m1266.81,3178.5c0-3.95,2.23-6.09,7.86-6.09h6.34v-1.72c0-2.98-1.26-5.42-5.46-5.42-3.95,0-5.33,1.51-5.33,4.12v.88h-2.98v-.84c0-5,4.2-6.68,8.32-6.68,5.8,0,8.4,2.86,8.4,8.44v13.11h-2.06l-.55-2.98h-.08c-1.26,1.89-3.7,3.53-7.35,3.53-4.92,0-7.1-2.31-7.1-6.34Zm14.2-1.85v-1.76h-7.01c-2.65,0-4.03.92-4.03,3.61,0,2.35,1.26,3.87,4.5,3.87,4.16,0,6.55-2.14,6.55-5.71Z"/><path class="cls-8" d="m1291.3,3163.29h2.6l.29,3.49c1.01-2.14,3.28-4.03,7.35-4.03,4.75,0,7.77,2.52,7.77,7.94v13.61h-2.94v-13.27c0-4.33-2.14-5.71-5.5-5.71-3.82,0-6.64,2.69-6.64,5.63v13.36h-2.94v-21Z"/><path class="cls-8" d="m1314.98,3173.84c0-7.1,4.28-11.09,10.04-11.09,3.7,0,6.22,1.6,7.31,3.74h.04v-14.96h2.94v32.77h-1.97l-.67-3.61h-.08c-1.18,2.31-3.95,4.16-7.77,4.16-6.3,0-9.83-3.99-9.83-11.01Zm17.64-.5c0-5.5-3.36-8.07-7.35-8.07-3.11,0-7.14,1.47-7.14,8.4s3.61,8.61,7.14,8.61c4.24,0,7.35-2.73,7.35-8.95Z"/><path class="cls-8" d="m1354,3161.99h-3.36v-5.08c0-3.95.88-5.29,3.4-5.96l.67,1.85c-1.76.67-2.06,1.09-2.06,3.78v.34h1.34v5.08Zm5.92,0h-3.36v-5.08c0-3.95.88-5.29,3.4-5.96l.67,1.85c-1.76.67-2.06,1.09-2.06,3.78v.34h1.34v5.08Z"/><path class="cls-8" d="m1363.58,3163.33v-.04h2.98l5.75,17.48h.08l6.3-17.48h2.69l6.17,17.48h.08l5.75-17.48h2.86v.04l-7.18,20.96h-3.02l-5.96-17.05h-.08l-6.22,17.05h-3.02l-7.18-20.96Z"/><path class="cls-8" d="m1399.2,3160.73c1.76-.67,2.06-1.09,2.06-3.78v-.34h-1.34v-5.08h3.36v5.08c0,3.95-.88,5.29-3.4,5.96l-.67-1.85Zm5.92,0c1.76-.67,2.06-1.09,2.06-3.78v-.34h-1.34v-5.08h3.36v5.08c0,3.95-.88,5.29-3.4,5.96l-.67-1.85Z"/><circle class="cls-11" cx="812.52" cy="2802.57" r="147.42"/><circle class="cls-11" cx="780.76" cy="3511.42" r="38.54"/><circle class="cls-9" cx="811.47" cy="2385.14" r="127.76"/><circle class="cls-9" cx="1100.59" cy="1844.17" r="125.23"/><rect class="cls-11" x="1221.93" y="2298.41" width="59.92" height="627.84"/><path class="cls-8" d="m583.02,742.42c-5.65,0-8.83-3.18-8.83-8.83v-67.08c-23.65,54.72-66.72,78.37-116.5,78.37-107.67,0-148.27-109.09-148.27-199.81,0-97.79,52.25-207.93,154.63-207.93,43.78,0,79.08,19.77,103.44,52.95,3.53,4.59,2.47,9.18-2.47,12l-1.06.71c-4.94,3.18-8.83,2.12-12.36-2.47-20.83-28.24-50.84-44.83-87.55-44.83-89.67,0-135.56,100.26-135.56,189.58,0,82.26,35.66,181.46,129.21,181.46,63.54,0,114.03-44.13,116.85-152.86h-50.13c-.71,0-1.41,0-1.76-.35h-.71c-.71-.35-1.06-.71-1.41-.71-.71-.71-1.41-1.06-1.77-1.77-.71-.71-1.06-1.77-1.41-2.82,0,0-.35-.35-.35-.71v-4.24c0-1.41.71-2.82,1.06-3.88l.71-1.06c.71-1.06,1.77-1.77,3.18-2.12.35-.35.71-.35,1.41-.35.71-.35,1.41-.35,2.47-.35h60.02c1.41.35,2.47.35,3.53,1.06.35,0,.35.35.71.71.35,0,.71.35,1.06.35.71.71,1.06,1.41,1.41,2.12.71,1.41,1.06,2.82,1.06,4.59v.35l-.35,169.1c0,5.65-3.18,8.83-8.83,8.83h-1.41Z"/><path class="cls-8" d="m903.22,639.33c5.29,1.77,7.41,4.94,6,8.83-15.18,38.48-30.71,69.19-46.6,85.08-9.53,9.53-18.36,11.65-28.59,11.65-26.12,0-32.13-16.24-32.13-53.31v-60.37c-6.35,21.18-14.83,39.89-25.07,58.25-14.83,24.71-38.48,55.43-73.08,55.43-18,0-32.12-8.83-32.12-33.54v-95.67l-8.47,30.36c-2.12,5.3-6,7.06-11.3,5.3-5.3-1.77-7.41-4.94-5.65-8.83,11.65-31.07,25.42-66.02,25.42-73.43v-.71c0-4.94,3.18-7.77,7.77-8.12h1.06c5.65,0,8.83,3.18,8.83,8.83v142.27c0,12,6.36,16.59,14.47,16.59,22.59,0,42.01-20.12,55.43-42.72,21.18-33.54,36.36-70.25,42.72-118.26,0-4.24,3.18-6.71,8.83-6.71h.71c5.29.35,8.12,3.53,8.12,8.83v122.5c0,25.06,2.47,36.36,14.47,36.36,5.29,0,10.59-1.41,15.89-6.71,13.77-13.77,27.18-40.25,42.01-76.61,2.12-5.3,6-7.06,11.3-5.3Z"/><path class="cls-8" d="m910.97,658.04c1.06,49.07,25.77,69.9,54.72,69.9,25.42,0,61.43-15.89,87.2-83.31,2.12-5.3,6-7.06,11.3-5.3,5.29,1.77,7.41,4.94,6,8.83-30.36,80.84-73.08,96.73-104.5,96.73-39.54,0-72.37-26.83-72.37-90.02,0-56.84,29.3-97.08,75.55-97.08,24.71,0,48.72,15.53,48.72,48.72,0,37.42-26.12,51.54-90.38,51.54h-16.24Zm-11.3-154.27c-2.47-4.94-.71-8.83,4.24-11.65,20.12-11.3,37.07-30.36,52.6-57.19,3.53-6.35,8.47-6.35,12,0,15.53,26.83,32.83,45.89,52.6,57.19,4.94,2.82,6.71,6.71,4.24,11.65-2.12,4.94-6.35,6.71-11.65,3.88-21.53-10.94-38.13-26.48-51.19-47.31-13.06,20.83-29.65,36.36-51.19,47.31-5.29,2.82-9.53,1.06-11.65-3.88Zm12,137.33h15.53c51.89,0,72.72-7.41,72.72-34.6,0-20.83-15.53-31.77-31.07-31.77-32.12,0-53.31,26.83-57.19,66.37Z"/><path class="cls-8" d="m1059.6,651.34c-5.3-1.77-7.41-4.94-5.65-8.83,11.65-31.07,25.42-66.02,25.42-73.43v-.71c0-4.94,3.18-7.77,7.77-8.12h1.06c1.06,0,1.41,0,1.76.35,4.59.71,7.06,3.53,7.06,8.47v102.02c7.06-23.3,16.24-44.13,27.89-64.96,15.89-24.01,39.89-48.36,70.25-48.36,18,0,32.12,8.83,32.12,33.54,0,17.65-1.06,35.66-2.12,52.6-1.06,16.24-1.76,31.77-1.76,47.66,0,25.06,2.47,36.36,14.47,36.36,5.3,0,10.59-1.41,15.89-6.71,13.77-13.77,27.18-40.25,42.01-76.61,2.12-5.3,6-7.06,11.3-5.3s7.41,4.94,6,8.83c-15.18,38.48-30.71,69.19-46.6,85.08-9.53,9.53-18.36,11.65-28.59,11.65-26.12,0-32.13-16.24-32.13-53.31,0-15.89.71-32.83,1.77-49.07v.35c1.06-16.95,2.12-33.89,2.12-51.54,0-12-6.35-16.59-14.47-16.59-21.89,0-42.01,20.83-55.43,40.6-20.48,33.54-34.95,69.55-41.66,116.5l-1.06,7.77v214.64c0,5.65-3.18,8.83-8.83,8.83s-8.83-3.18-8.83-8.83v-335.73c-2.47,9.18-5.3,18.36-8.47,27.54-2.12,5.3-6,7.06-11.3,5.3Z"/><path class="cls-8" d="m1314.83,658.04c1.06,49.07,25.77,69.9,54.72,69.9,25.42,0,61.43-15.89,87.2-83.31,2.12-5.3,6-7.06,11.3-5.3,5.29,1.77,7.41,4.94,6,8.83-30.36,80.84-73.08,96.73-104.5,96.73-39.54,0-72.37-26.83-72.37-90.02,0-56.84,29.3-97.08,75.55-97.08,24.71,0,48.72,15.53,48.72,48.72,0,37.42-26.12,51.54-90.38,51.54h-16.24Zm.71-16.95h15.53c51.89,0,72.72-7.41,72.72-34.6,0-20.83-15.53-31.77-31.07-31.77-32.12,0-53.31,26.83-57.19,66.37Z"/><path class="cls-9" d="m1463.45,651.34c-5.3-1.77-7.41-4.94-5.65-8.83,9.88-26.48,17.65-48.72,23.3-66.37l1.41-4.94c3.53-20.12,19.42-31.07,39.19-31.07,6.71,0,13.06,1.77,17.3,3.18,7.06,2.82,6.71,7.77,5.3,11.3-2.12,6-6.71,5.65-12,4.24-3.18-1.06-6.71-1.77-10.59-1.77-12.71,0-22.24,8.47-22.24,23.65,0,10.59,16.95,33.18,30.71,50.84,6,7.41,12.36,16.24,16.59,22.24,9.88,15.89,14.47,29.65,15.18,41.3,10.59-12.71,21.18-29.3,30.36-50.48,2.12-5.3,6-7.06,11.3-5.3s7.41,4.94,6,8.83c-15.18,39.54-41.3,68.13-59.66,82.26-1.06,1.06-2.12,1.41-3.18,1.77-8.83,7.77-21.18,12.71-36.36,12.71-12,0-25.07-3.53-36.36-13.77-4.24-3.88-3.18-8.83,0-12,3.88-3.88,8.47-2.82,13.06.71,7.06,6,15.53,8.12,23.3,8.12,21.53,0,33.89-14.83,33.89-30.71,0-8.83-4.24-20.83-12.36-34.24-4.24-6.35-9.88-13.06-15.89-20.83-9.18-12-19.42-24.71-26.12-37.07-4.24,11.65-8.83,24.71-15.18,40.95-2.12,5.3-6,7.06-11.3,5.3Z"/><path class="cls-9" d="m562.86,1493.07c57.9,13.77,91.08,52.95,91.08,109.79,0,89.32-56.13,115.44-160.27,115.44h-43.78c-5.65,0-8.83-3.18-8.83-8.83v-379.5c0-5.65,3.18-8.83,8.83-8.83h35.66c78.37,0,123.91,28.95,123.91,96.73,0,35.66-16.95,61.07-46.6,75.2Zm-102.73-153.57v147.92h63.9c34.95,0,66.37-27.18,66.37-69.55,0-55.07-38.48-78.37-104.85-78.37h-25.42Zm0,166.28v194.17h33.54c91.43,0,141.21-21.89,141.21-97.08,0-60.01-44.48-97.08-108.38-97.08h-66.37Z"/><path class="cls-8" d="m852.34,1547.79v122.5c0,25.07,2.47,36.36,14.47,36.36,5.3,0,10.59-1.41,15.89-6.71,13.77-13.77,27.18-40.25,42.01-76.61,2.12-5.3,6-7.06,11.3-5.3,5.3,1.76,7.41,4.94,6,8.83-15.18,38.48-30.71,69.19-46.6,85.08-9.53,9.53-18.36,11.65-28.6,11.65-26.12,0-32.12-16.24-32.12-53.31v-37.77c-19.42,59.66-44.13,91.08-76.25,91.08-27.18,0-54.01-34.95-54.72-87.2-.71-59.66,34.24-99.91,76.25-99.91,20.47,0,36.36,5.3,54.72,16.59v-5.3c0-5.65,3.18-8.83,8.83-8.83s8.83,3.18,8.83,8.83Zm-17.65,30.36v-5.3c-23.3-14.47-37.42-19.42-54.72-19.42-32.13,0-59.31,33.19-58.6,82.96.71,42.36,18.71,70.25,37.07,70.25,31.07,0,54.37-40.95,76.25-128.5Z"/><path class="cls-8" d="m931.41,1630.05c-5.3-1.77-7.41-4.94-5.65-8.83l1.76-5.65c11.3-32.48,18.36-53.31,22.59-70.61,0-.71,0-1.06.35-1.76-9.18-11.65-15.18-22.95-15.18-31.07,0-10.59,4.24-15.89,11.3-15.89,10.94,0,24.71,20.12,22.95,42.36,4.94,1.76,11.65,2.12,20.47,1.41,22.24-.35,45.54,1.76,45.54,34.24,0,24.01-8.83,43.78-15.89,64.96-5.65,16.95-11.3,33.18-11.3,45.54,0,13.06,5.65,21.89,18.71,21.89,5.29,0,10.59-1.41,15.89-6.71,13.77-13.77,27.18-40.25,42.01-76.61,2.12-5.3,6-7.06,11.3-5.3s7.41,4.94,6,8.83c-15.18,38.48-30.71,69.19-46.6,85.08-9.53,9.53-18.36,11.65-28.6,11.65-25.77,0-36.36-15.89-36.36-38.83,0-15.53,6-33.18,12-51.19,7.06-20.12,15.18-39.19,15.18-59.31,0-15.18-14.12-17.65-27.18-17.3-8.12.35-17.3-.35-24.36-2.47-4.24,15.53-11.3,36.01-23.65,70.25-2.12,5.29-6,7.06-11.3,5.29Z"/><path class="cls-8" d="m1091.32,1630.05c-5.65-2.12-7.77-5.29-6-9.18,11.3-30.36,24.71-64.25,25.42-72.37v-.71c0-5.29,2.82-8.47,7.77-8.83h3.53c4.94.71,7.77,3.53,7.77,8.83v152.51c24.01-18,44.13-39.54,61.43-77.31,2.12-5.29,6-7.06,11.3-5.29l1.41.35c5.29,2.12,7.41,5.3,6,9.18-19.77,46.95-47.66,73.43-80.14,95.67v192.05c0,21.54-10.94,30.01-24.71,30.01-26.83,0-56.13-57.54-56.13-105.55,0-35.3,12-73.78,61.78-124.97v-112.97c-2.12,8.12-4.59,16.24-7.06,23.65-2.12,5.3-6,7.06-11.3,5.3l-1.06-.35Zm19.42,284.89v-173.34c-34.6,39.19-42.72,69.55-42.72,97.79,0,39.54,19.42,87.2,37.07,87.2,3.18,0,5.65-3.53,5.65-11.65Zm-1.41-493.18c0-5.65,3.18-8.83,8.83-8.83h4.59c5.65,0,8.83,3.18,8.83,8.83v19.42c0,5.65-3.18,8.83-8.83,8.83h-4.59c-5.65,0-8.83-3.18-8.83-8.83v-19.42Z"/><path class="cls-8" d="m1279.83,1540.38c2.12-2.47,5.29-3.88,9.18-3.88,13.77,0,23.3,15.89,29.3,38.83,3.53,13.41,7.41,36.01,7.41,47.3,0,2.47-.35,4.94-.35,7.06,6.71,7.77,12.71,10.24,19.77,10.24,4.24,0,7.41-2.12,14.83-16.24,2.12-4.94,6-6.71,11.3-4.94,5.3,1.77,7.41,4.94,5.65,8.83-9.53,22.59-18.71,29.3-31.77,29.3-7.77,0-14.83-1.77-21.54-6.35-8.47,52.6-40.25,73.08-68.84,73.08-31.77,0-61.43-28.6-61.43-83.67,0-48.37,15.89-103.44,65.66-103.44,7.41,0,15.18,2.12,20.83,3.88Zm-2.82,17.3c-3.88-1.41-11.65-4.24-18-4.24-36.36,0-48.01,45.89-48.01,86.49,0,43.78,21.18,66.72,43.78,66.72s49.78-19.77,52.95-73.08c-6.71-9.88-13.41-23.3-20.83-42.01-5.29-14.12-8.47-25.77-9.88-33.89Z"/><path class="cls-8" d="m1366.67,1629.7c-5.29-1.76-7.41-4.94-5.65-8.83,7.77-21.18,18-59.66,25.42-88.61v-96.38c0-5.65,3.18-8.83,8.83-8.83s8.83,3.18,8.83,8.83v105.91h40.25c5.65,0,8.83,2.82,8.83,8.47s-3.18,8.47-8.83,8.47h-40.25v111.56c0,25.07,2.47,36.36,14.47,36.36,5.3,0,10.59-1.41,15.89-6.71,13.77-13.77,27.18-40.25,42.01-76.61,2.12-5.3,6-7.06,11.3-5.3,5.3,1.76,7.41,4.94,6,8.83-15.18,38.48-30.71,69.19-46.6,85.08-9.53,9.53-18.36,11.65-28.6,11.65-26.12,0-32.12-16.24-32.12-53.31v-79.78c-2.82,12.71-6,25.06-8.47,33.89-2.12,5.29-6,7.06-11.3,5.29Z"/><path class="cls-8" d="m448.52,2697.18c-5.3-1.41-7.41-5.29-5.65-10.94l128.15-384.8c1.76-4.59,4.94-7.06,10.24-7.06h1.41c5.3,0,8.47,2.47,10.24,7.06l127.8,384.8c1.76,5.65-.35,9.53-5.65,10.94l-1.41.35c-5.65,1.77-9.53,0-11.3-5.65l-54.37-163.45h-132.74l-54.01,163.45c-1.76,5.65-5.65,7.41-11.3,5.65l-1.41-.35Zm72.72-187.1h120.74l-60.01-182.16-60.72,182.16Z"/><path class="cls-8" d="m792,2519.96v93.55c15.89,11.65,27.54,13.77,38.48,13.77,19.42,0,28.95-7.06,38.13-27.54,2.12-5.29,6-7.06,11.3-5.29s7.41,4.94,6,8.83c-10.94,27.89-23.65,40.95-55.43,40.95-10.24,0-21.18-2.12-33.18-8.83,43.42,83.31,60.37,151.1,60.37,206.87,0,45.19-16.95,78.37-49.07,78.37-25.77,0-34.24-25.42-34.24-62.49v-232.29l-3.18-6c-2.12-4.24-2.12-7.77,0-12,0,0,0-.35.35-.35.35-1.06,1.41-2.12,2.82-2.82v-45.89l-13.06,42.01c-2.12,5.3-6,7.06-11.3,5.3-5.29-1.77-7.41-4.94-5.65-9.18,8.83-21.18,23.3-64.6,30.01-87.55v-187.81c0-20.83,10.59-29.3,24.01-29.3,26.48,0,55.42,58.25,55.42,105.91,0,34.6-11.65,72.72-61.78,121.79Zm0-24.01c34.95-39.19,44.13-69.19,44.13-97.79,0-39.89-19.77-88.96-37.77-88.96-3.53,0-6.36,3.53-6.36,12.36v174.4Zm0,161.33v200.87c0,27.18,4.24,45.54,16.59,45.54,20.83,0,31.42-26.12,31.42-61.43,0-49.07-15.18-111.56-48.01-184.99Z"/><path class="cls-8" d="m887.66,2613.16c1.06,49.07,25.77,69.9,54.72,69.9,25.42,0,61.43-15.89,87.2-83.31,2.12-5.29,6-7.06,11.3-5.29,5.3,1.77,7.41,4.94,6,8.83-30.36,80.84-73.08,96.73-104.5,96.73-39.54,0-72.37-26.83-72.37-90.02,0-56.84,29.3-97.08,75.55-97.08,24.71,0,48.72,15.53,48.72,48.72,0,37.42-26.12,51.54-90.38,51.54h-16.24Zm.71-16.95h15.53c51.9,0,72.72-7.41,72.72-34.6,0-20.83-15.53-31.77-31.07-31.77-32.13,0-53.31,26.83-57.19,66.37Z"/><path class="cls-8" d="m1148.9,2550.67c-4.94,2.47-8.47,1.41-12-3.18-7.41-9.88-19.06-17.65-32.83-17.65-36.71,0-55.43,53.66-55.43,89.32,0,25.77,12,63.9,44.83,63.9,18.36,0,56.48-10.94,92.49-84.73,2.47-4.94,6.71-6.35,11.65-3.88,4.94,2.47,6.71,6,4.59,9.88-20.48,41.3-55.78,95.67-108.73,95.67-45.54,0-62.49-48.01-62.49-80.84,0-42.72,25.06-106.26,73.08-106.26,20.48,0,37.42,11.65,48.01,26.12,3.53,4.59,2.12,9.18-3.18,11.65Z"/><path class="cls-8" d="m1191.26,2606.1c-5.29-1.77-7.41-4.94-5.65-8.83,7.77-21.18,18-59.66,25.42-88.61v-96.38c0-5.65,3.18-8.83,8.83-8.83s8.83,3.18,8.83,8.83v105.91h40.24c5.65,0,8.83,2.82,8.83,8.47s-3.18,8.47-8.83,8.47h-40.24v111.56c0,25.06,2.47,36.36,14.47,36.36,5.3,0,10.59-1.41,15.89-6.71,13.77-13.77,27.18-40.25,42.01-76.61,2.12-5.29,6-7.06,11.3-5.29s7.41,4.94,6,8.83c-15.18,38.48-30.71,69.19-46.6,85.08-9.53,9.53-18.36,11.65-28.59,11.65-26.12,0-32.13-16.24-32.13-53.31v-79.78c-2.82,12.71-6,25.07-8.47,33.89-2.12,5.3-6,7.06-11.3,5.3Z"/><path class="cls-8" d="m1320.11,2613.16c1.06,49.07,25.77,69.9,54.72,69.9,25.42,0,61.43-15.89,87.2-83.31,2.12-5.29,6-7.06,11.3-5.29,5.29,1.77,7.41,4.94,6,8.83-30.36,80.84-73.08,96.73-104.5,96.73-39.54,0-72.37-26.83-72.37-90.02,0-56.84,29.3-97.08,75.55-97.08,24.71,0,48.72,15.53,48.72,48.72,0,37.42-26.12,51.54-90.38,51.54h-16.24Zm.71-16.95h15.53c51.89,0,72.72-7.41,72.72-34.6,0-20.83-15.53-31.77-31.07-31.77-32.12,0-53.31,26.83-57.19,66.37Zm13.77-137.33c-1.77-5.29,0-9.18,5.29-11.3,25.77-10.59,44.83-26.12,59.31-46.95,3.53-4.94,7.41-5.65,12.36-2.82s5.65,7.41,2.47,12c-16.95,24.36-38.48,42.01-68.13,54.01-5.29,2.12-9.53.35-11.3-4.94Z"/><path class="cls-8" d="m572.04,3338.67c-5.29,2.12-9.18.35-11.65-4.59-15.18-27.18-48.01-42.72-81.2-42.72-89.67,0-135.56,100.26-135.56,189.58s42.36,181.46,128.86,181.46c63.9,0,88.96-37.42,99.55-59.31,2.47-4.94,6.36-6.71,11.65-4.59l1.41.35c5.29,2.47,7.06,6.35,4.59,11.65-12,25.77-41.66,70.25-117.21,70.25-99.2,0-147.92-100.61-147.92-199.81s52.25-207.93,154.63-207.93c40.95,0,80.84,19.42,98.49,53.66,2.82,5.3,1.06,9.18-4.59,11.65l-1.06.35Z"/><path class="cls-8" d="m663.82,3370.09h4.59c4.87,0,8.83,3.95,8.83,8.83v19.42c0,4.87-3.95,8.83-8.83,8.83h-4.59c-4.87,0-8.83-3.95-8.83-8.83v-19.42c0-4.87,3.95-8.83,8.83-8.83Z"/><path class="cls-8" d="m1001.31,3575.2c-5.3-1.76-9.18,0-11.3,5.3-14.83,36.36-28.24,62.84-42.01,76.61-5.3,5.3-10.59,6.71-15.89,6.71-12,0-14.47-11.3-14.47-36.36,0-15.89.71-31.42,1.77-47.66,1.06-16.95,2.12-34.95,2.12-52.6,0-24.71-14.12-33.54-32.12-33.54-30.36,0-54.37,24.36-70.25,48.37-11.3,20.12-20.83,40.6-27.89,63.9v-100.97c0-5.65-3.18-8.83-8.83-8.83s-8.83,3.18-8.83,8.83c0,7.23-13.11,40.68-24.57,71.16-1.05.98-1.92,2.32-2.61,4.03-14.83,36.71-28.24,63.19-41.66,76.61-5.3,5.29-10.24,6.35-15.53,6.35-11.3,0-13.77-10.94-13.77-35.66v-122.5c0-5.65-3.18-8.83-8.83-8.83h-1.41c-5.65,0-8.83,3.18-8.83,8.83v.71c-.71,8.12-14.12,42.01-25.42,72.37-1.77,3.88.35,7.06,6,9.18l1.06.35c5.29,1.76,9.18,0,11.3-5.3,2.47-7.41,4.94-15.53,7.06-23.65v68.84c0,37.42,6,54.01,32.83,54.01,10.24,0,19.42-2.47,28.95-12,16.59-16.59,31.77-46.95,46.95-85.08.44-1.2.53-2.34.3-3.39,3.05-8.87,5.77-17.74,8.16-26.61v115.09c0,5.65,3.18,8.83,8.83,8.83h.71c5.3-.35,8.12-3.53,8.12-8.83,6.35-48.01,22.24-84.73,42.72-118.26,13.42-19.77,33.54-40.6,55.43-40.6,8.12,0,14.47,4.59,14.47,16.59,0,17.65-1.06,34.6-2.12,51.54v-.35c-1.06,16.24-1.76,33.19-1.76,49.07,0,37.07,6,53.31,32.13,53.31,10.24,0,19.06-2.12,28.59-11.65,15.89-15.89,31.42-46.6,46.6-85.08,1.41-3.88-.71-7.06-6-8.83Z"/><path class="cls-8" d="m1140.4,3679.69v210.4c0,5.65-3.18,8.83-8.83,8.83s-8.83-3.18-8.83-8.83v-300.43c-19.42,59.66-44.13,91.08-76.25,91.08-27.18,0-54.01-34.95-54.72-87.2-.71-59.66,34.24-99.91,76.25-99.91,20.48,0,36.36,5.3,54.72,16.59v-5.3c0-5.65,3.18-8.83,8.83-8.83s8.83,3.18,8.83,8.83v153.57c24.71-18,45.54-39.54,62.84-78.02,2.12-5.3,6-7.06,11.3-5.3,5.3,1.76,7.41,4.94,6,8.83-19.42,46.6-45.19,71.31-76.61,93.2l-3.53,2.47Zm-17.65-144.39v-5.3c-23.3-14.47-37.42-19.42-54.72-19.42-32.12,0-59.31,33.19-58.6,82.96.71,42.36,18.71,70.25,37.07,70.25,31.07,0,54.37-40.95,76.25-128.5Z"/><path class="cls-8" d="m1461.29,3575.2c5.3,1.76,7.41,4.94,6,8.83-15.18,38.48-30.71,69.19-46.6,85.08-9.53,9.53-18.36,11.65-28.6,11.65-26.12,0-32.12-16.24-32.12-53.31v-60.37c-6.35,21.18-14.83,39.89-25.06,58.25-14.83,24.71-38.48,55.43-73.08,55.43-18,0-32.13-8.83-32.13-33.54v-95.67l-8.47,30.36c-2.12,5.29-6,7.06-11.3,5.29-5.29-1.77-7.41-4.94-5.65-8.83,11.65-31.07,25.42-66.02,25.42-73.43v-.71c0-4.94,3.18-7.77,7.77-8.12h1.06c5.65,0,8.83,3.18,8.83,8.83v142.27c0,12,6.35,16.59,14.47,16.59,22.59,0,42.01-20.12,55.42-42.72,21.18-33.54,36.36-70.25,42.72-118.26,0-4.24,3.18-6.71,8.83-6.71h.71c5.3.35,8.12,3.53,8.12,8.83v122.5c0,25.07,2.47,36.36,14.47,36.36,5.3,0,10.59-1.41,15.89-6.71,13.77-13.77,27.18-40.25,42.01-76.61,2.12-5.3,6-7.06,11.3-5.3Z"/><path class="cls-8" d="m1469.05,3593.91c1.06,49.07,25.77,69.9,54.72,69.9,25.42,0,61.43-15.89,87.2-83.31,2.12-5.3,6-7.06,11.3-5.3,5.3,1.76,7.41,4.94,6,8.83-30.36,80.84-73.08,96.73-104.5,96.73-39.54,0-72.37-26.83-72.37-90.02,0-56.84,29.3-97.08,75.55-97.08,24.71,0,48.72,15.53,48.72,48.72,0,37.42-26.12,51.54-90.38,51.54h-16.24Zm.71-16.95h15.53c51.9,0,72.72-7.41,72.72-34.6,0-20.83-15.53-31.77-31.07-31.77-32.13,0-53.31,26.83-57.19,66.37Z"/><path class="cls-9" d="m342.72,4527.43c2.82,4.94,1.77,8.83-2.47,12.36-23.65,17.65-37.77,47.31-37.77,78.72,0,48.37,31.42,72.02,60.01,72.02,32.83,0,61.43-15.18,124.62-125.68l146.15-255.59c2.47-4.24,5.65-6,10.59-6h2.12c5.65,0,8.83,3.18,8.83,8.83v342.79c0,24.71,2.47,35.66,13.77,35.66,5.3,0,10.24-1.06,15.53-6.35,13.42-13.42,26.83-39.89,41.66-76.61,2.12-5.29,6-7.06,11.3-5.29l1.41.35c5.29,2.12,7.41,5.3,6,9.18-15.18,38.13-30.36,68.49-46.95,85.08-9.53,9.53-18.71,12-28.95,12-26.83,0-32.83-16.59-32.83-54.01v-118.62h-110.85l-21.54,37.77c-66.02,114.38-101.67,134.86-140.86,134.86s-79.08-30.01-79.08-90.38c0-37.42,17.65-73.43,46.6-94.26,4.59-3.53,9.18-2.47,12.36,2.47l.35.71Zm293.01-9.53v-176.51l-100.61,176.51h100.61Z"/><path class="cls-8" d="m733.86,4614.98c-5.29-1.77-7.41-4.94-5.65-8.83,8.12-21.89,18.71-62.49,24.01-84.73.35-1.41.71-2.82,1.41-3.88v-187.11c0-20.83,10.59-29.3,24.01-29.3,26.48,0,55.43,58.25,55.43,105.91,0,34.95-11.3,70.61-57.9,119.32-1.41,1.41-2.82,2.47-3.88,2.82v117.21c0,31.07,15.18,45.54,33.89,45.54,23.3,0,49.78-19.77,52.95-73.43-7.06-10.24-13.77-23.65-20.83-41.66-7.06-19.06-10.24-33.19-10.24-41.3s4.94-13.77,12.36-13.77c13.77,0,23.3,15.89,29.3,38.83,3.53,13.42,7.41,36.01,7.41,47.31v6c8.12,9.88,15.89,13.06,25.07,13.06,7.06,0,12-3.88,19.77-18,2.12-4.94,6-6.71,11.3-4.94,5.29,1.76,7.41,4.94,5.65,8.83-8.12,20.12-18.71,31.07-36.71,31.07-9.88,0-18.71-2.47-27.18-8.83-8.12,53.31-40.25,73.78-68.84,73.78s-51.54-20.12-51.54-62.49v-63.54c-3.18,10.24-6,19.77-8.47,26.83-2.12,5.3-6,7.06-11.3,5.3Zm37.42-110.5c34.95-39.19,44.13-68.84,44.13-97.44,0-39.89-19.77-88.96-37.77-88.96-3.53,0-6.35,3.53-6.35,12.36v174.04Z"/><path class="cls-8" d="m927.67,4615.34c-5.29-1.76-7.41-4.94-5.65-8.83l1.77-5.65c11.3-32.48,18.36-53.31,22.59-70.61,0-.71,0-1.06.35-1.77-9.18-11.65-15.18-22.95-15.18-31.07,0-10.59,4.24-15.89,11.3-15.89,10.94,0,24.71,20.12,22.95,42.36,4.94,1.77,11.65,2.12,20.48,1.41,22.24-.35,45.54,1.77,45.54,34.24,0,24.01-8.83,43.78-15.89,64.96-5.65,16.95-11.3,33.18-11.3,45.54,0,13.06,5.65,21.89,18.71,21.89,5.3,0,10.59-1.41,15.89-6.71,13.77-13.77,27.18-40.25,42.01-76.61,2.12-5.29,6-7.06,11.3-5.29s7.41,4.94,6,8.83c-15.18,38.48-30.71,69.19-46.6,85.08-9.53,9.53-18.36,11.65-28.59,11.65-25.77,0-36.36-15.89-36.36-38.83,0-15.53,6-33.19,12-51.19,7.06-20.12,15.18-39.19,15.18-59.31,0-15.18-14.12-17.65-27.18-17.3-8.12.35-17.3-.35-24.36-2.47-4.24,15.53-11.3,36.01-23.65,70.25-2.12,5.3-6,7.06-11.3,5.3Z"/><path class="cls-8" d="m1169.13,4525.67c2.12-2.47,5.3-3.88,9.18-3.88,13.77,0,23.3,15.89,29.3,38.83,3.53,13.42,7.41,36.01,7.41,47.31,0,2.47-.35,4.94-.35,7.06,6.71,7.77,12.71,10.24,19.77,10.24,4.24,0,7.41-2.12,14.83-16.24,2.12-4.94,6-6.71,11.3-4.94s7.41,4.94,5.65,8.83c-9.53,22.59-18.71,29.3-31.77,29.3-7.77,0-14.83-1.76-21.54-6.35-8.47,52.6-40.24,73.08-68.84,73.08-31.77,0-61.43-28.59-61.43-83.67,0-48.36,15.89-103.44,65.66-103.44,7.41,0,15.18,2.12,20.83,3.88Zm-2.82,17.3c-3.88-1.41-11.65-4.24-18-4.24-36.36,0-48.01,45.89-48.01,86.49,0,43.78,21.18,66.72,43.78,66.72s49.78-19.77,52.95-73.08c-6.71-9.88-13.42-23.3-20.83-42.01-5.29-14.12-8.47-25.77-9.88-33.89Z"/><path class="cls-8" d="m1399.65,4533.08v153.92c25.07-18.36,45.54-40.25,62.84-78.37,2.12-5.29,6-7.06,11.3-5.29s7.41,4.94,6,8.83c-20.48,48.01-46.95,72.72-80.14,95.32v192.75c0,20.83-10.59,29.3-24.01,29.3-26.48,0-55.42-57.19-55.42-104.85,0-35.3,12-73.78,60.72-123.91l1.06-1.06v-81.9c-19.42,59.66-44.13,91.08-76.25,91.08-27.18,0-54.01-34.95-54.72-87.2-.71-59.66,34.24-99.91,76.25-99.91,20.47,0,36.36,5.29,54.72,16.59v-5.29c0-5.65,3.18-8.83,8.83-8.83s8.83,3.18,8.83,8.83Zm-17.65,30.36v-5.29c-23.3-14.47-37.42-19.42-54.72-19.42-32.13,0-59.31,33.18-58.6,82.96.71,42.36,18.71,70.25,37.07,70.25,31.07,0,54.37-40.95,76.25-128.5Zm0,336.79v-175.1c-34.24,39.19-44.13,71.31-44.13,99.55,0,39.89,19.77,87.9,37.77,87.9,3.53,0,6.35-3.53,6.35-12.36Z"/><path class="cls-8" d="m1481.54,4622.05c1.06,49.07,25.77,69.9,54.72,69.9,25.42,0,61.43-15.89,87.2-83.31,2.12-5.29,6-7.06,11.3-5.29s7.41,4.94,6,8.83c-30.36,80.84-73.08,96.73-104.5,96.73-39.54,0-72.37-26.83-72.37-90.02,0-56.84,29.3-97.08,75.55-97.08,24.71,0,48.72,15.53,48.72,48.72,0,37.42-26.12,51.54-90.38,51.54h-16.24Zm.71-16.95h15.53c51.9,0,72.72-7.41,72.72-34.6,0-20.83-15.53-31.77-31.07-31.77-32.12,0-53.31,26.83-57.19,66.37Z"/><line class="cls-3" x1="1102.7" y1="1981.29" x2="1102.7" y2="2086.48"/><line class="cls-3" x1="816.01" y1="2160.35" x2="816.01" y2="2247.38"/><line class="cls-3" x1="814.07" y1="2966.17" x2="814.07" y2="3039.68"/><line class="cls-3" x1="782.42" y1="3213.01" x2="782.42" y2="3455.79"/><path class="cls-9" d="m1404.09,1541.79h40.25c5.65,0,8.83,2.82,8.83,8.47s-3.18,8.47-8.83,8.47h-40.25"/><g class="cls-6"><path class="cls-10" d="m1091.32,1630.05c-5.65-2.12-7.77-5.29-6-9.18,11.3-30.36,24.71-64.25,25.42-72.37v-.71c0-5.29,2.82-8.47,7.77-8.83h3.53c4.94.71,7.77,3.53,7.77,8.83v152.51c24.01-18,44.13-39.54,61.43-77.31,2.12-5.29,6-7.06,11.3-5.29l1.41.35c5.29,2.12,7.41,5.3,6,9.18-19.77,46.95-47.66,73.43-80.14,95.67v192.05c0,21.54-10.94,30.01-24.71,30.01-26.83,0-56.13-57.54-56.13-105.55,0-35.3,12-73.78,61.78-124.97v-112.97c-2.12,8.12-4.59,16.24-7.06,23.65-2.12,5.3-6,7.06-11.3,5.3l-1.06-.35Zm19.42,284.89v-173.34c-34.6,39.19-42.72,69.55-42.72,97.79,0,39.54,19.42,87.2,37.07,87.2,3.18,0,5.65-3.53,5.65-11.65Zm-1.41-493.18c0-5.65,3.18-8.83,8.83-8.83h4.59c5.65,0,8.83,3.18,8.83,8.83v19.42c0,5.65-3.18,8.83-8.83,8.83h-4.59c-5.65,0-8.83-3.18-8.83-8.83v-19.42Z"/></g><g class="cls-12"><path class="cls-10" d="m792,2519.96v93.55c15.89,11.65,27.54,13.77,38.48,13.77,19.42,0,28.95-7.06,38.13-27.54,2.12-5.29,6-7.06,11.3-5.29s7.41,4.94,6,8.83c-10.94,27.89-23.65,40.95-55.43,40.95-10.24,0-21.18-2.12-33.18-8.83,43.42,83.31,60.37,151.1,60.37,206.87,0,45.19-16.95,78.37-49.07,78.37-25.77,0-34.24-25.42-34.24-62.49v-232.29l-3.18-6c-2.12-4.24-2.12-7.77,0-12,0,0,0-.35.35-.35.35-1.06,1.41-2.12,2.82-2.82v-45.89l-13.06,42.01c-2.12,5.3-6,7.06-11.3,5.3-5.29-1.77-7.41-4.94-5.65-9.18,8.83-21.18,23.3-64.6,30.01-87.55v-187.81c0-20.83,10.59-29.3,24.01-29.3,26.48,0,55.42,58.25,55.42,105.91,0,34.6-11.65,72.72-61.78,121.79Zm0-24.01c34.95-39.19,44.13-69.19,44.13-97.79,0-39.89-19.77-88.96-37.77-88.96-3.53,0-6.36,3.53-6.36,12.36v174.4Zm0,161.33v200.87c0,27.18,4.24,45.54,16.59,45.54,20.83,0,31.42-26.12,31.42-61.43,0-49.07-15.18-111.56-48.01-184.99Z"/></g><g class="cls-14"><path class="cls-10" d="m792,2519.96v93.55c15.89,11.65,27.54,13.77,38.48,13.77,19.42,0,28.95-7.06,38.13-27.54,2.12-5.29,6-7.06,11.3-5.29s7.41,4.94,6,8.83c-10.94,27.89-23.65,40.95-55.43,40.95-10.24,0-21.18-2.12-33.18-8.83,43.42,83.31,60.37,151.1,60.37,206.87,0,45.19-16.95,78.37-49.07,78.37-25.77,0-34.24-25.42-34.24-62.49v-232.29l-3.18-6c-2.12-4.24-2.12-7.77,0-12,0,0,0-.35.35-.35.35-1.06,1.41-2.12,2.82-2.82v-45.89l-13.06,42.01c-2.12,5.3-6,7.06-11.3,5.3-5.29-1.77-7.41-4.94-5.65-9.18,8.83-21.18,23.3-64.6,30.01-87.55v-187.81c0-20.83,10.59-29.3,24.01-29.3,26.48,0,55.42,58.25,55.42,105.91,0,34.6-11.65,72.72-61.78,121.79Zm0-24.01c34.95-39.19,44.13-69.19,44.13-97.79,0-39.89-19.77-88.96-37.77-88.96-3.53,0-6.36,3.53-6.36,12.36v174.4Zm0,161.33v200.87c0,27.18,4.24,45.54,16.59,45.54,20.83,0,31.42-26.12,31.42-61.43,0-49.07-15.18-111.56-48.01-184.99Z"/></g><g class="cls-13"><path class="cls-10" d="m663.82,3370.09h4.59c4.87,0,8.83,3.95,8.83,8.83v19.42c0,4.87-3.95,8.83-8.83,8.83h-4.59c-4.87,0-8.83-3.95-8.83-8.83v-19.42c0-4.87,3.95-8.83,8.83-8.83Z"/><path class="cls-10" d="m1001.31,3575.2c-5.3-1.76-9.18,0-11.3,5.3-14.83,36.36-28.24,62.84-42.01,76.61-5.3,5.3-10.59,6.71-15.89,6.71-12,0-14.47-11.3-14.47-36.36,0-15.89.71-31.42,1.77-47.66,1.06-16.95,2.12-34.95,2.12-52.6,0-24.71-14.12-33.54-32.12-33.54-30.36,0-54.37,24.36-70.25,48.37-11.3,20.12-20.83,40.6-27.89,63.9v-100.97c0-5.65-3.18-8.83-8.83-8.83s-8.83,3.18-8.83,8.83c0,7.23-13.11,40.68-24.57,71.16-1.05.98-1.92,2.32-2.61,4.03-14.83,36.71-28.24,63.19-41.66,76.61-5.3,5.29-10.24,6.35-15.53,6.35-11.3,0-13.77-10.94-13.77-35.66v-122.5c0-5.65-3.18-8.83-8.83-8.83h-1.41c-5.65,0-8.83,3.18-8.83,8.83v.71c-.71,8.12-14.12,42.01-25.42,72.37-1.77,3.88.35,7.06,6,9.18l1.06.35c5.29,1.76,9.18,0,11.3-5.3,2.47-7.41,4.94-15.53,7.06-23.65v68.84c0,37.42,6,54.01,32.83,54.01,10.24,0,19.42-2.47,28.95-12,16.59-16.59,31.77-46.95,46.95-85.08.44-1.2.53-2.34.3-3.39,3.05-8.87,5.77-17.74,8.16-26.61v115.09c0,5.65,3.18,8.83,8.83,8.83h.71c5.3-.35,8.12-3.53,8.12-8.83,6.35-48.01,22.24-84.73,42.72-118.26,13.42-19.77,33.54-40.6,55.43-40.6,8.12,0,14.47,4.59,14.47,16.59,0,17.65-1.06,34.6-2.12,51.54v-.35c-1.06,16.24-1.76,33.19-1.76,49.07,0,37.07,6,53.31,32.13,53.31,10.24,0,19.06-2.12,28.59-11.65,15.89-15.89,31.42-46.6,46.6-85.08,1.41-3.88-.71-7.06-6-8.83Z"/></g></svg>