<?xml version="1.0" encoding="UTF-8"?><svg xmlns="http://www.w3.org/2000/svg" viewBox="0 0 1920 3615"><defs><style>.cls-1{stroke-dasharray:0 0 1.77 17.66;}.cls-1,.cls-2,.cls-3,.cls-4,.cls-5,.cls-6,.cls-7{fill:none;stroke-miterlimit:10;}.cls-1,.cls-2,.cls-3,.cls-4,.cls-5,.cls-7{stroke:#a797c9;stroke-linecap:round;stroke-width:7px;}.cls-8{fill:#fff;}.cls-9{fill:#171c32;}.cls-10{fill:#947fbb;}.cls-3{stroke-dasharray:0 0 1.75 17.5;}.cls-4{stroke-dasharray:0 0 1.76 17.57;}.cls-5{stroke-dasharray:0 0 1.74 17.45;}.cls-6{stroke:#57678b;stroke-width:3.5px;}.cls-7{stroke-dasharray:0 0 1.73 17.32;}</style></defs><g id="Background"><rect class="cls-9" width="1920" height="3615"/></g><g id="Horizontal_Guides"><line class="cls-6" y1="202.72" x2="1920" y2="202.72"/><line class="cls-6" y1="378.48" x2="1920" y2="378.48"/><line class="cls-6" x1="1920" y1="568.63" y2="568.63"/><line class="cls-6" y1="743.86" x2="1920" y2="743.86"/><line class="cls-6" y1="1093.3" x2="1920" y2="1093.3"/><line class="cls-6" y1="1269.07" x2="1920" y2="1269.07"/><line class="cls-6" x1="1920" y1="1459.22" y2="1459.22"/><line class="cls-6" y1="1634.44" x2="1920" y2="1634.44"/><line class="cls-6" y1="1985.91" x2="1920" y2="1985.91"/><line class="cls-6" y1="2161.67" x2="1920" y2="2161.67"/><line class="cls-6" x1="1920" y1="2351.82" y2="2351.82"/><line class="cls-6" y1="2527.05" x2="1920" y2="2527.05"/><line class="cls-6" y1="2875.86" x2="1920" y2="2875.86"/><line class="cls-6" y1="3051.62" x2="1920" y2="3051.62"/><line class="cls-6" x1="1920" y1="3241.78" y2="3241.78"/><line class="cls-6" y1="3417" x2="1920" y2="3417"/></g><g id="Layer_1"><circle class="cls-10" cx="1235.83" cy="3078.69" r="60"/><circle class="cls-10" cx="901.47" cy="3052.49" r="60"/><rect class="cls-10" x="622.59" y="1094.26" width="50.79" height="539.75"/><circle class="cls-10" cx="1101.99" cy="2448.4" r="99.77"/><circle class="cls-10" cx="648.27" cy="2448.4" r="99.77"/><circle class="cls-10" cx="1024.51" cy="678.18" r="80.75"/><path class="cls-8" d="m1387.4,1441.91c-12.86,0-36.27-37.85-56.57-68.71,24.96-25.39,44.13-53.07,63.64-70.74,5.11-4.32,9.82-6.29,15.32-7.07,5.89-.79,10.21-5.89,10.21-11.79,0-7.46-6.68-12.57-13.36-11.39-9.04,1.18-18.86,4.71-27.89,12.96-23.18,20.43-43.6,51.46-69.53,75.82-2.05,2.05-7.05,2.02-12.96,1.72v-52.36c25.99-37.22,48.71-107.12,48.71-168.96,0-24.36-10.21-47.14-33.39-47.14-29.86,0-38.89,22.39-38.89,82.5v116.47c-17.76,16.07-37.36,22.59-55,22.59-.54,0-1.08-.01-1.61-.02-10.82-29.57-34.24-48.29-71.85-48.29-13.69,0-29.06,2.77-42.88,10.34-1.06.34-2.07.84-3.08,1.44-39.68,25.14-51.46,36.53-71.5,36.53-.54,0-1.08-.01-1.61-.02-10.82-29.57-34.24-48.29-71.85-48.29s-84.07,19.25-84.07,95.46c0,8.12.57,15.65,1.6,22.67-18.61,17.44-35.15,34.82-49.34,52.28-2.83-9.24-6.69-16.56-11.76-21.54,18.24-16.3,33.15-39.28,34.36-78.94.79-20.43-3.54-69.92-62.85-69.92-54.55,0-76.62,44.06-78.13,99.59-11.98,48.54-39.85,71.3-53.47,71.3-7.46,0-14.53-11-14.93-31.43l-1.18-127.67c0-6.68-5.11-11.79-11.79-11.79-.66,0-1.3.07-1.93.19-.9-.17-1.83-.24-2.78-.19-73.85,4.32-127.67,51.46-127.67,115.89,0,42.03,23.57,78.57,67.17,78.57,18.38,0,38.66-7.64,58.62-29.25,6.01,18.06,18.38,29.25,34.48,29.25,25.93,0,62.46-30.25,77-90.74.34-1.54.33-3.1.05-4.6,1.16-44.57,16.19-75.54,54.55-75.54s40.07,26.71,39.28,45.57c-1.57,51.46-28.28,64.82-59.32,85.25-3.14,1.96-5.5,5.5-5.5,9.82,0,6.68,5.5,11.79,11.79,11.79,2.36,0,4.71-.79,6.68-1.96,3.85-2.48,7.83-4.98,11.86-7.59,2.11-.87,3.78-1.44,5.43-1.44,4.02,0,8.9,11.45,11.22,30.67-25.71,38.01-39.9,76.69-39.9,117.42,0,32.61,9.82,53.43,31.82,53.43s34.18-22.78,34.18-64.03-.39-78.96-1.57-97.82c-.07-.99-.15-1.97-.23-2.94,13.68-19.08,30.65-38.25,50.63-57.75,14.12,35.45,43.95,50.47,72.56,50.47,40.85,0,82.1-30.64,82.1-101.35,0-7.42-.48-14.55-1.42-21.34,11.89-.68,22.14-4.32,33.17-10.25-2.46,9.82-3.86,21.05-3.86,33.95,0,70.71,41.64,98.99,80.92,98.99s82.1-30.64,82.1-101.35c0-7.41-.48-14.53-1.42-21.31,16.23-.72,33.98-5.73,50.92-16.45v129.29c0,6.68,5.11,11.79,11.79,11.79s11.79-5.11,11.79-11.79v-65.74c4.9.23,9.8.19,14.52-.73,20.3,31.92,48.46,79.83,76.61,79.83,20.67,0,49.09-30.19,70.1-58.94,7.15,31.44,29.32,55.41,64.64,55.41,18.29,0,38.47-7.58,58.33-28.95,6.05,17.88,18.37,28.95,34.37,28.95,27.89,0,42.43-29.86,70.71-84.07.79-1.57,1.18-3.54,1.18-5.5,0-6.68-5.11-11.79-11.79-11.79-4.32,0-8.25,2.36-10.21,6.29-27.89,53.03-38.1,71.5-49.89,71.5-7.46,0-14.53-11-14.93-31.43l-1.18-127.67c0-6.68-5.11-11.79-11.79-11.79-.58,0-1.15.06-1.71.15-.85-.15-1.72-.2-2.61-.15-66.83,3.91-117.24,42.88-126.23,97.99-.23.33-.46.65-.65,1-17.28,29.46-55.39,75.42-68.35,75.42Zm-830.84-3.54c-28.68,0-43.6-23.96-43.6-55,0-48.35,38.99-85.22,97.15-91.59l1,108.4c-19.6,29.51-38.77,38.19-54.54,38.19Zm248.66,131.6c0,28.28-5.5,40.46-10.61,40.46-4.32,0-8.25-9.43-8.25-29.86,0-25.32,6.34-50.02,18.4-74.63.32,17.63.45,39.49.45,64.02Zm187.21-264.24c-1.51-1.18-2.86-2.44-4.01-3.75,1.41,1.16,2.75,2.41,4.01,3.75Zm-42.25,132.64c-28.68,0-57.35-20.43-57.35-75.42,0-58.53,32.21-71.89,60.5-71.89,2.27,0,4.45.1,6.57.27.05,21.7,20.18,39.68,46.88,45.8,1.3,7.11,1.94,14.94,1.94,23.46,0,55.78-28.68,77.78-58.53,77.78Zm233.17-132.64c-1.51-1.18-2.86-2.44-4.01-3.75,1.41,1.16,2.75,2.41,4.01,3.75Zm-42.25,132.64c-28.68,0-57.35-20.43-57.35-75.42,0-58.53,32.21-71.89,60.5-71.89,2.27,0,4.45.1,6.57.27.05,21.7,20.18,39.68,46.88,45.8,1.3,7.11,1.94,14.94,1.94,23.46,0,55.78-28.68,77.78-58.53,77.78Zm170.49-320.55c6.68,0,9.82,10.61,9.82,23.57,0,40.64-10.75,85.11-25.14,119.2v-83.85c0-47.53,3.93-58.93,15.32-58.93Zm263.71,174.01l1.01,108.94c-19.47,29.04-38.48,37.6-54.15,37.6-28.68,0-43.6-23.96-43.6-55,0-48.24,38.81-85.06,96.75-91.54Zm-1330.25,172.07c6.68,0,11.79-5.11,11.79-11.79v-317.44c.13-.12.26-.24.39-.37,26.32-27.89,54.21-36.93,79.35-36.93,40.07,0,66.78,22.78,66.78,74.25,0,23.97-5.8,42.66-14.48,56.93-11.85-4.04-24.98-6.25-39.34-6.25-35.75,0-61.67,13.75-61.67,38.1,0,40.26,67.6,42.51,108.53-2.56,28.07,16.56,43.49,48.88,43.49,87.81,0,61.67-39.28,92.71-79.75,92.71-37.32,0-71.5-25.53-69.53-70.32.39-6.68-5.11-12.18-11.79-12.18-6.29,0-11.39,4.71-11.79,11-2.75,60.1,44.39,95.07,93.1,95.07,51.46,0,103.32-39.68,103.32-116.28,0-45.68-18.84-85.65-53.13-106.97,10.13-17.63,16.59-39.88,16.59-67.05,0-65.6-38.5-97.82-90.35-97.82-24.96,0-52.87,7.51-79.75,28.89v-17.5c0-6.68-5.11-11.79-11.79-11.79s-11.79,5.11-11.79,11.79v366.91c0,6.68,5.11,11.79,11.79,11.79Zm66.39-203.49c0-7.46,14.14-14.53,38.1-14.53,8.07,0,15.63.88,22.71,2.49-26.67,23.31-60.82,23.3-60.82,12.05Z"/><path class="cls-8" d="m1684.39,2259.44c-4.71,0-8.64,2.75-10.61,6.68-18.07,39.68-40.46,64.82-51.07,64.82-9.04,0-20.82-11-22.39-32.21l-1.18-17.28-.39-64.42c0-32.61-23.57-55-49.89-55-18.56,0-40.43,9.15-59.6,37.06-4.81-23.18-18.61-37.06-37.04-37.06-12,0-24.31,8.38-36.38,20.45-.46.36-.91.74-1.33,1.16-.8.97-1.64,1.9-2.51,2.8-.09.1-.19.2-.28.3-13.86,14.43-34.66,21.65-53.39,21.65-.54,0-1.08-.01-1.61-.02-10.82-29.57-34.24-48.29-71.85-48.29-31.37,0-71.6,14.53-81.68,68.21-24.07,32.96-45.87,60.91-64.44,86.49l1.16-142.92c0-6.29-5.5-11.79-11.79-11.79-5.2,0-9.44,3.11-11.06,7.63-.11.21-.23.4-.33.62-20.03,45.96-75.82,162.63-103.71,162.63-9.04,0-20.82-11-22.39-32.21l-1.18-17.28-.39-109.6c0-6.68-5.11-11.79-11.79-11.79s-11.79,5.11-11.79,11.79l.38,106.32c-40.84,49.28-61.32,52.78-67.16,52.78-7.46,0-14.93-9.43-15.32-31.43l-1.18-127.67c0-6.68-5.11-11.79-11.79-11.79-6.29,0-11.79,5.5-11.79,11.79l.87,94.63c-19.57,48.51-41.81,64.47-57.44,64.47-13.75,0-25.93-12.18-26.32-31.43l-1.18-127.67c0-6.68-5.11-11.79-11.79-11.79-6.29,0-11.79,5.5-11.79,11.79l.49,53.3s-.07.08-.1.12c-25.09,34.21-47.66,63.06-66.76,89.38l1.16-142.81c0-6.29-5.5-11.79-11.79-11.79-.77,0-1.52.08-2.24.21-.93-.18-1.89-.26-2.87-.21-66.48,3.89-116.7,42.49-126.07,97.15-.32.59-.6,1.2-.81,1.85-20.43,54.21-38.89,71.89-57.75,71.89-12.96,0-22.78-15.71-22.78-45.57l-1.57-298.95c0-.67-.07-1.33-.17-1.96.1-.64.17-1.29.17-1.97,0-6.29-5.5-11.79-12.18-11.79-148.49,4.71-242.38,98.99-242.38,221.56,0,94.28,55.78,162.24,133.56,162.24,19.04,0,59.12-3.71,99.43-58.22,2.82,34.33,19.2,58.22,45.92,58.22,23.57,0,43.39-13.92,61.76-47.24,8.93,27.33,30.19,47.24,62.37,47.24,16.81,0,35.06-6.2,52.51-21.14l-.13,15.96c-25.84,40.47-40.99,77.56-40.99,123.83,0,32.61,9.82,53.43,31.82,53.43s34.18-22.78,34.18-64.03-.39-78.57-1.57-97.42l.07-8.47c17.6-26.72,40.42-56.09,67.57-92.41l.33,35.27c.39,32.61,23.57,55,49.89,55,19.12,0,40.09-11.41,59.03-40.08,4.21,24.99,18.39,40.08,37.61,40.08,8.99,0,31.1-2.15,69.78-43.71,5.66,27.74,25.25,43.71,44.54,43.71,34.51,0,75.56-70.99,102.87-127.37l-.99,122.26c-25.74,40.27-40.99,77.33-40.99,123.74,0,32.61,9.82,53.43,31.82,53.43s34.18-22.78,34.18-64.03-.39-78.57-1.57-97.42l.07-8.54c16.67-25.3,37.96-52.87,63.05-86.4,5.38,59.97,43.82,84.33,80.26,84.33,40.85,0,82.1-30.64,82.1-101.35,0-7.42-.48-14.53-1.42-21.32,22.08-.96,46.68-9.66,64.41-26.8.5-.41.99-.86,1.44-1.38.03-.04.06-.07.1-.11.9-.92,1.77-1.88,2.64-2.85,9.35-9.87,16.93-15.12,21.23-15.12,7.46,0,14.93,9.43,15.32,31.43l1.18,127.67c0,6.68,5.11,11.79,11.79,11.79,6.29,0,11.79-5.5,11.79-11.79l-.91-98.12c18.41-48.13,41.06-60.98,57.47-60.98,13.75,0,26.32,12.18,26.32,31.43l.39,65.21,1.18,18.07c2.36,34.18,24.36,54.21,45.96,54.21,24.75,0,52.25-33.78,72.67-78.57.39-1.57.79-3.14.79-4.71,0-6.68-5.11-11.79-11.79-11.79Zm-1345.46,71.5c-63.64,0-109.99-56.18-109.99-138.67,0-106.3,78.71-188.58,207.46-197.38l1.36,258.44c-39.76,72.57-79.73,77.61-98.83,77.61Zm269.48,0c-28.68,0-43.6-23.96-43.6-55,0-48.39,39.07-85.3,97.32-91.61l-.93,114.31c-18,23.72-36.76,32.29-52.79,32.29Zm53.82,131.6c0,28.28-5.5,40.46-10.61,40.46-4.32,0-8.25-9.43-8.25-29.86,0-28.17,6.43-52.59,18.36-77.43.36,18.07.5,40.92.5,66.82Zm454.12,0c0,28.28-5.5,40.46-10.61,40.46-4.32,0-8.25-9.43-8.25-29.86,0-28.23,6.45-52.69,18.36-77.49.36,18.08.5,40.95.5,66.88Zm207.64-264.24c-1.51-1.18-2.86-2.44-4.01-3.75,1.41,1.16,2.75,2.41,4.01,3.75Zm-42.25,132.64c-28.68,0-57.35-20.43-57.35-75.42,0-58.53,32.21-71.89,60.5-71.89,2.27,0,4.45.1,6.57.27.05,21.7,20.18,39.68,46.88,45.8,1.3,7.11,1.94,14.94,1.94,23.46,0,55.78-28.68,77.78-58.53,77.78Z"/><path class="cls-10" d="m963.54,2124.69c0,7.86,5.89,14.14,13.75,14.14s13.75-6.29,13.75-14.14-6.29-13.36-13.75-13.36c-7.86,0-13.75,5.89-13.75,13.36Z"/><path class="cls-10" d="m1114.38,2124.69c0,7.86,5.89,14.14,13.75,14.14s13.75-6.29,13.75-14.14-6.29-13.36-13.75-13.36c-7.86,0-13.75,5.89-13.75,13.36Z"/><path class="cls-8" d="m1314.34,2078.34c-14.93,19.25-28.28,27.89-39.68,31.03-4.71,1.57-8.64,5.89-8.64,11.39,0,7.86,7.86,13.36,15.32,11.39,15.32-4.71,33-15.71,51.85-39.28,1.57-1.96,2.36-4.32,2.36-7.07,0-6.68-5.11-11.79-11.79-11.79-3.93,0-7.07,1.57-9.43,4.32Z"/><path class="cls-8" d="m1515.27,3144.17c-4.32,0-8.25,2.36-10.21,6.29-27.89,53.03-38.1,71.5-49.89,71.5-7.46,0-14.53-11-14.93-31.43l-1.18-127.67c0-6.68-5.11-11.79-11.79-11.79-.58,0-1.15.06-1.71.15-.85-.15-1.72-.2-2.61-.15-22.14,1.3-42.46,6.46-60.09,14.77-.97.19-1.87.5-2.77.95-32.15,14.64-69.13,19.53-96.55,20.3-2.63-20.77-9.03-37.59-31.12-37.59-15.32,0-27.11,12.57-27.11,27.11,0,12.06,6.05,29.26,36.18,33.3,1.72,64.12-19.06,112.05-44.83,112.05-12.96,0-22.39-12.96-24.75-33-16.89-131.21-24.75-138.67-46.75-139.46-30.76-1.11-54.53,73.65-65.7,106.19-12.91,32.78-31.38,66.26-56.48,66.26-11.39,0-18.07-4.71-18.07-28.28,0-10.21,1.57-92.32,1.57-102.14,0-38.5-23.18-51.46-45.18-40.85-8.69,4.01-17.43,6.25-25.18,6.99-3.08-23.49-16.75-34.09-29.03-34.09s-20.82,8.64-20.82,23.57c0,16.53,10.83,27.31,26.58,31.81-1.8,23.33-9.94,49.66-17.06,66.88-.32.47-.62.97-.88,1.48-16.11,33.78-46.35,74.64-77.39,74.64-13.38,0-26.01-7.92-35.46-21.07.75-.39,1.45-.84,2.07-1.33,50.28-44.78,75.03-76.21,75.03-102.92,0-21.21-15.71-47.14-45.96-47.14-32.61,0-71.1,32.61-71.1,95.46,0,16.98,3.12,33.13,8.71,47.31-13.17,13.76-29.75,29.68-44.46,29.68-9.04,0-20.82-11-22.39-32.21l-1.18-17.28-.39-109.6c0-6.68-5.11-11.79-11.79-11.79s-11.79,5.11-11.79,11.79l.29,81.66c-.09.15-.2.29-.29.45-40.85,74.25-92.71,77-112.74,77-75.03,0-109.6-72.28-109.6-151.24,0-90.74,45.57-185.42,124.92-185.42,40.07,0,57.35,34.18,57.35,67.17,0,29.46-14.14,55.78-38.1,55.78-15.71,0-31.03-15.32-31.03-52.25,0-6.68-5.11-11.79-11.79-11.79s-11.79,5.11-11.79,11.79c0,51.46,26.32,75.82,54.6,75.82,40.07,0,61.67-39.28,61.67-79.35,0-44-25.93-90.74-80.92-90.74-96.24,0-148.49,108.82-148.49,208.99,0,89.17,42.03,174.81,133.17,174.81,18.77,0,69.56-1.79,113.99-59.18l.32,4.97c2.36,34.18,24.36,54.21,45.96,54.21s41.48-16.74,56.22-31.29c13.52,19.17,32.78,31.29,54.96,31.29,39.04,0,71.69-38.58,91.28-73.8.71-.72,1.33-1.53,1.82-2.41,10.39-19.49,22.93-55.9,25.63-88.13,11.35-.72,23.52-3.76,35.26-9.29,6.68-3.14,11.39,1.18,11.39,19.64,0,9.82-1.57,91.92-1.57,102.14,0,40.46,20.82,51.85,41.64,51.85,37.48,0,60.64-38.51,75.2-73.13.72-.92,1.33-1.95,1.79-3.08,11-28.68,33.78-96.64,44.39-96.24,3.93,0,9.43,5.11,23.96,119.03,3.93,29.07,20.43,53.43,48.32,53.43,44.99,0,70.27-62.29,68.51-134.9,14.46-.47,31.65-2.05,49.6-5.5-12.46,17.56-19.51,38.56-19.51,61.84,0,42.03,23.57,78.57,67.17,78.57,18.29,0,38.47-7.58,58.33-28.95,6.05,17.88,18.37,28.95,34.37,28.95,27.89,0,42.43-29.86,70.71-84.07.79-1.57,1.18-3.54,1.18-5.5,0-6.68-5.11-11.79-11.79-11.79Zm-722.03-71.1c14.53,0,22.39,12.57,22.39,23.57,0,16.17-19.26,42.54-64.4,82.78-3.51-10.28-5.52-21.95-5.52-34.46,0-48.71,27.11-71.89,47.53-71.89Zm435.65,3.54c0-2.36,1.18-3.54,3.54-3.54,4.82,0,6.54,4.58,7.52,12.84-9.09-1.93-11.05-5.72-11.05-9.31Zm133.56,145.35c-28.68,0-43.6-23.96-43.6-55,0-48.24,38.81-85.06,96.75-91.54l1.01,108.94c-19.47,29.04-38.48,37.6-54.15,37.6Z"/><path class="cls-8" d="m650.64,3029.86c7.46,0,13.75-6.29,13.75-14.14s-6.29-13.36-13.75-13.36c-7.86,0-13.75,5.89-13.75,13.36,0,7.86,5.89,14.14,13.75,14.14Z"/><line class="cls-2" x1="454.27" y1="585.31" x2="454.27" y2="586.19"/><line class="cls-4" x1="454.27" y1="603.76" x2="454.27" y2="788.3"/><line class="cls-2" x1="454.27" y1="797.09" x2="454.27" y2="797.96"/><path class="cls-8" d="m293.86,836.45h-3.36v-5.08c0-3.95.88-5.29,3.4-5.97l.67,1.85c-1.76.67-2.06,1.09-2.06,3.78v.34h1.34v5.08Zm5.92,0h-3.36v-5.08c0-3.95.88-5.29,3.4-5.97l.67,1.85c-1.76.67-2.06,1.09-2.06,3.78v.34h1.34v5.08Z"/><path class="cls-8" d="m314.31,828.6h-11.51v-2.6h25.96v2.6h-11.51v30.16h-2.94v-30.16Z"/><path class="cls-8" d="m331.07,835.19c1.76-.67,2.06-1.09,2.06-3.78v-.34h-1.34v-5.08h3.36v5.08c0,3.95-.88,5.29-3.4,5.97l-.67-1.85Zm5.92,0c1.76-.67,2.06-1.09,2.06-3.78v-.34h-1.34v-5.08h3.36v5.08c0,3.95-.88,5.29-3.4,5.97l-.67-1.85Z"/><path class="cls-8" d="m353.88,837.8v-.04h2.98l5.75,17.48h.08l6.3-17.48h2.69l6.17,17.48h.08l5.75-17.48h2.86v.04l-7.18,20.96h-3.02l-5.97-17.06h-.08l-6.22,17.06h-3.02l-7.18-20.96Z"/><path class="cls-8" d="m391.38,825.99h2.98v6.51h-2.98v-6.51Zm0,11.76h2.94v21h-2.94v-21Z"/><path class="cls-8" d="m412.68,856.07v2.6c-.76.21-2.14.59-4.03.59-3.82,0-6.34-1.6-6.34-6.89v-12.18h-4.16v-2.44h4.16v-6.05l2.94-1.43v7.48h5.92v2.44h-5.92v11.8c0,2.81.76,4.58,3.4,4.58,1.6,0,3.23-.29,4.03-.5Z"/><path class="cls-8" d="m417.51,825.99h2.94v15.16c1.05-2.1,3.28-3.95,7.31-3.95,4.75,0,7.77,2.52,7.77,7.94v13.61h-2.94v-13.27c0-4.33-2.14-5.71-5.5-5.71-3.82,0-6.64,2.69-6.64,5.63v13.36h-2.94v-32.77Z"/><path class="cls-8" d="m450.85,848.42c0-6.38,3.23-11.22,10-11.22s8.95,3.91,8.95,8.95v.42h-3.11v-.63c0-3.82-1.64-6.09-5.84-6.09-4.75,0-7.02,3.11-7.02,8.4,0,5.63,2.39,8.49,6.93,8.49,3.82,0,5.84-1.85,5.92-5.67h3.02c-.08,4.66-3.15,8.23-9.03,8.23-7.22,0-9.83-4.75-9.83-10.88Z"/><path class="cls-8" d="m475.68,837.75h2.6l.29,3.91c1.01-2.14,3.07-4.45,6.76-4.45,1.26,0,2.18.21,3.02.55v3.15c-1.13-.5-2.1-.76-3.4-.76-3.74,0-6.34,2.81-6.34,5.75v12.85h-2.94v-21Z"/><path class="cls-8" d="m490.67,848.26c0-6.22,3.32-11.05,10.38-11.05,6.59,0,10.25,4.83,10.25,11.05s-3.7,11.05-10.29,11.05c-7.27,0-10.33-4.83-10.33-11.05Zm17.56,0c0-5.33-2.9-8.49-7.22-8.49-4.75,0-7.27,3.15-7.27,8.49s2.56,8.49,7.27,8.49c4.33,0,7.22-3.15,7.22-8.49Z"/><path class="cls-8" d="m515.28,852.33v-1.18h2.94v1.13c0,2.86,2.14,4.5,5.96,4.5s5.8-1.01,5.8-3.78c0-2.06-1.01-2.81-3.86-3.32l-4.62-.84c-3.02-.55-5.54-2.02-5.54-5.5,0-3.15,2.35-6.13,8.4-6.13s8.4,3.02,8.4,7.23v.88h-2.98v-.76c0-3.44-2.14-4.91-5.42-4.91-3.95,0-5.33,1.34-5.33,3.36s1.01,2.86,3.91,3.4l4.03.76c4.12.76,6.09,1.93,6.09,5.59,0,4.58-4.12,6.55-8.78,6.55-7.31,0-8.99-3.28-8.99-6.97Z"/><path class="cls-8" d="m537.04,852.33v-1.18h2.94v1.13c0,2.86,2.14,4.5,5.96,4.5s5.8-1.01,5.8-3.78c0-2.06-1.01-2.81-3.86-3.32l-4.62-.84c-3.02-.55-5.54-2.02-5.54-5.5,0-3.15,2.35-6.13,8.4-6.13s8.4,3.02,8.4,7.23v.88h-2.98v-.76c0-3.44-2.14-4.91-5.42-4.91-3.95,0-5.33,1.34-5.33,3.36s1.01,2.86,3.91,3.4l4.03.76c4.12.76,6.09,1.93,6.09,5.59,0,4.58-4.12,6.55-8.78,6.55-7.31,0-8.99-3.28-8.99-6.97Z"/><path class="cls-8" d="m563.5,855.27h-.08l-.76,3.49h-1.97v-32.77h2.94v15.25h.04c1.26-2.31,4.07-4.03,7.69-4.03,6.3,0,9.66,3.99,9.66,11.01s-4.29,11.09-9.87,11.09c-3.78,0-6.55-1.64-7.65-4.03Zm14.37-6.89c0-7.18-3.4-8.61-6.93-8.61-4.24,0-7.56,2.73-7.56,8.44,0,6.01,3.45,8.57,7.44,8.57,3.02,0,7.06-1.47,7.06-8.4Z"/><path class="cls-8" d="m585.42,852.96c0-3.95,2.23-6.09,7.86-6.09h6.34v-1.72c0-2.98-1.26-5.42-5.46-5.42-3.95,0-5.33,1.51-5.33,4.12v.88h-2.98v-.84c0-5,4.2-6.68,8.32-6.68,5.8,0,8.4,2.86,8.4,8.44v13.11h-2.06l-.55-2.98h-.08c-1.26,1.89-3.7,3.53-7.35,3.53-4.92,0-7.1-2.31-7.1-6.34Zm14.2-1.85v-1.76h-7.01c-2.65,0-4.03.92-4.03,3.61,0,2.35,1.26,3.86,4.5,3.86,4.16,0,6.55-2.14,6.55-5.71Z"/><path class="cls-8" d="m609.91,837.75h2.6l.29,3.91c1.01-2.14,3.07-4.45,6.76-4.45,1.26,0,2.18.21,3.02.55v3.15c-1.13-.5-2.1-.76-3.4-.76-3.74,0-6.34,2.81-6.34,5.75v12.85h-2.94v-21Z"/><line class="cls-2" x1="977.28" y1="2098.23" x2="977.28" y2="2097.36"/><line class="cls-7" x1="977.28" y1="2080.04" x2="977.28" y2="1879.12"/><polyline class="cls-2" points="977.28 1870.46 977.28 1869.59 978.16 1869.59"/><line class="cls-3" x1="995.66" y1="1869.59" x2="1256.4" y2="1869.59"/><line class="cls-2" x1="1265.15" y1="1869.59" x2="1266.02" y2="1869.59"/><line class="cls-2" x1="1128.13" y1="1884.59" x2="1128.13" y2="1885.46"/><line class="cls-1" x1="1128.13" y1="1903.12" x2="1128.13" y2="2088.53"/><line class="cls-2" x1="1128.13" y1="2097.36" x2="1128.13" y2="2098.23"/><path class="cls-8" d="m1300.15,1853.16h8.36c11.05,0,17.39,4.54,17.39,16.42s-6.26,16.34-17.18,16.34h-8.57v-32.77Zm8.65,30.12c9.41,0,14.03-3.74,14.03-13.78s-4.5-13.74-14.07-13.74h-5.67v27.51h5.71Z"/><path class="cls-8" d="m1330.52,1875.42c0-6.22,3.32-11.05,10.38-11.05,6.6,0,10.25,4.83,10.25,11.05s-3.7,11.05-10.29,11.05c-7.27,0-10.33-4.83-10.33-11.05Zm17.56,0c0-5.33-2.9-8.49-7.23-8.49-4.75,0-7.27,3.15-7.27,8.49s2.56,8.49,7.27,8.49c4.33,0,7.23-3.15,7.23-8.49Z"/><path class="cls-8" d="m1367.98,1883.24v2.6c-.76.21-2.14.59-4.03.59-3.82,0-6.34-1.6-6.34-6.89v-12.18h-4.16v-2.44h4.16v-6.05l2.94-1.43v7.48h5.92v2.44h-5.92v11.8c0,2.81.76,4.58,3.4,4.58,1.6,0,3.23-.29,4.03-.5Z"/><path class="cls-8" d="m1370.92,1879.5v-1.18h2.94v1.13c0,2.86,2.14,4.5,5.96,4.5s5.8-1.01,5.8-3.78c0-2.06-1.01-2.81-3.87-3.32l-4.62-.84c-3.02-.55-5.54-2.02-5.54-5.5,0-3.15,2.35-6.13,8.4-6.13s8.4,3.02,8.4,7.22v.88h-2.98v-.76c0-3.44-2.14-4.91-5.42-4.91-3.95,0-5.33,1.34-5.33,3.36s1.01,2.86,3.91,3.4l4.03.76c4.12.76,6.09,1.93,6.09,5.59,0,4.58-4.12,6.55-8.78,6.55-7.31,0-8.99-3.28-8.99-6.97Z"/><path class="cls-8" d="m1402.55,1875.42c0-6.22,3.32-11.05,10.38-11.05,6.6,0,10.25,4.83,10.25,11.05s-3.7,11.05-10.29,11.05c-7.27,0-10.33-4.83-10.33-11.05Zm17.56,0c0-5.33-2.9-8.49-7.22-8.49-4.75,0-7.27,3.15-7.27,8.49s2.56,8.49,7.27,8.49c4.33,0,7.22-3.15,7.22-8.49Z"/><path class="cls-8" d="m1429.05,1864.92h2.6l.29,3.49c1.01-2.14,3.28-4.03,7.35-4.03,4.75,0,7.77,2.52,7.77,7.94v13.61h-2.94v-13.27c0-4.33-2.14-5.71-5.5-5.71-3.82,0-6.64,2.69-6.64,5.63v13.36h-2.94v-21Z"/><path class="cls-8" d="m1465.76,1863.62h-3.36v-5.08c0-3.95.88-5.29,3.4-5.97l.67,1.85c-1.76.67-2.06,1.09-2.06,3.78v.34h1.34v5.08Zm5.92,0h-3.36v-5.08c0-3.95.88-5.29,3.4-5.97l.67,1.85c-1.76.67-2.06,1.09-2.06,3.78v.34h1.34v5.08Z"/><path class="cls-8" d="m1478.06,1853.16h2.98v6.51h-2.98v-6.51Zm0,11.76h2.94v21h-2.94v-21Z"/><path class="cls-8" d="m1485.88,1862.36c1.76-.67,2.06-1.09,2.06-3.78v-.34h-1.34v-5.08h3.36v5.08c0,3.95-.88,5.29-3.4,5.97l-.67-1.85Zm5.92,0c1.77-.67,2.06-1.09,2.06-3.78v-.34h-1.34v-5.08h3.36v5.08c0,3.95-.88,5.29-3.4,5.97l-.67-1.85Z"/><path class="cls-8" d="m1510.15,1880.13c0-3.95,2.23-6.09,7.86-6.09h6.34v-1.72c0-2.98-1.26-5.42-5.46-5.42-3.95,0-5.34,1.51-5.34,4.12v.88h-2.98v-.84c0-5,4.2-6.68,8.32-6.68,5.8,0,8.4,2.86,8.4,8.44v13.11h-2.06l-.55-2.98h-.08c-1.26,1.89-3.7,3.53-7.35,3.53-4.91,0-7.1-2.31-7.1-6.34Zm14.2-1.85v-1.76h-7.02c-2.65,0-4.03.92-4.03,3.61,0,2.35,1.26,3.86,4.5,3.86,4.16,0,6.55-2.14,6.55-5.71Z"/><path class="cls-8" d="m1534.64,1864.92h2.6l.29,3.49c1.01-2.14,3.28-4.03,7.35-4.03,4.75,0,7.77,2.52,7.77,7.94v13.61h-2.94v-13.27c0-4.33-2.14-5.71-5.5-5.71-3.82,0-6.64,2.69-6.64,5.63v13.36h-2.94v-21Z"/><path class="cls-8" d="m1558.32,1875.47c0-7.1,4.29-11.09,10.04-11.09,3.7,0,6.22,1.6,7.31,3.74h.04v-14.95h2.94v32.77h-1.97l-.67-3.61h-.08c-1.18,2.31-3.95,4.16-7.77,4.16-6.3,0-9.83-3.99-9.83-11.01Zm17.64-.5c0-5.5-3.36-8.07-7.35-8.07-3.11,0-7.14,1.47-7.14,8.4s3.61,8.61,7.14,8.61c4.24,0,7.35-2.73,7.35-8.95Z"/><path class="cls-8" d="m1597.34,1863.62h-3.36v-5.08c0-3.95.88-5.29,3.4-5.97l.67,1.85c-1.76.67-2.06,1.09-2.06,3.78v.34h1.34v5.08Zm5.92,0h-3.36v-5.08c0-3.95.88-5.29,3.4-5.97l.67,1.85c-1.76.67-2.06,1.09-2.06,3.78v.34h1.34v5.08Z"/><path class="cls-8" d="m1612.59,1888.95c0,3.53-1.68,5.84-5.04,5.84-1.18,0-2.02-.13-2.94-.38v-2.6c.8.17,1.47.29,2.27.29,1.93,0,2.77-1.26,2.77-3.65v-23.52h2.94v24.03Zm-2.94-35.79h2.98v6.51h-2.98v-6.51Z"/><path class="cls-8" d="m1618.09,1862.36c1.76-.67,2.06-1.09,2.06-3.78v-.34h-1.34v-5.08h3.36v5.08c0,3.95-.88,5.29-3.4,5.97l-.67-1.85Zm5.92,0c1.77-.67,2.06-1.09,2.06-3.78v-.34h-1.34v-5.08h3.36v5.08c0,3.95-.88,5.29-3.4,5.97l-.67-1.85Z"/><path class="cls-8" d="m1642.37,1880.13c0-3.95,2.23-6.09,7.86-6.09h6.34v-1.72c0-2.98-1.26-5.42-5.46-5.42-3.95,0-5.33,1.51-5.33,4.12v.88h-2.98v-.84c0-5,4.2-6.68,8.32-6.68,5.8,0,8.4,2.86,8.4,8.44v13.11h-2.06l-.55-2.98h-.08c-1.26,1.89-3.7,3.53-7.35,3.53-4.92,0-7.1-2.31-7.1-6.34Zm14.2-1.85v-1.76h-7.01c-2.65,0-4.03.92-4.03,3.61,0,2.35,1.26,3.86,4.49,3.86,4.16,0,6.55-2.14,6.55-5.71Z"/><path class="cls-8" d="m1666.85,1864.92h2.6l.29,3.91c1.01-2.14,3.07-4.45,6.76-4.45,1.26,0,2.18.21,3.02.55v3.15c-1.13-.5-2.1-.76-3.4-.76-3.74,0-6.34,2.81-6.34,5.75v12.85h-2.94v-21Z"/><path class="cls-8" d="m1700.79,1876.43h-15.96c.17,4.79,2.48,7.48,6.93,7.48,3.82,0,5.67-1.43,5.97-4.83h2.98c-.29,4.24-3.28,7.39-9.03,7.39-7.06,0-9.83-4.66-9.83-10.88s3.23-11.22,10-11.22,8.95,3.99,8.95,10.21v1.85Zm-3.11-2.98c0-4.45-1.72-6.55-5.92-6.55s-6.55,2.65-6.89,6.97h12.81v-.42Z"/><path class="cls-8" d="m1295.95,1913.81v-.04h3.36l7.35,17.98h.08l7.1-17.98h3.07v.04l-8.74,20.96h-3.02l-9.2-20.96Z"/><path class="cls-8" d="m1337.74,1925.28h-15.96c.17,4.79,2.48,7.48,6.93,7.48,3.82,0,5.67-1.43,5.96-4.83h2.98c-.29,4.24-3.28,7.39-9.03,7.39-7.06,0-9.83-4.66-9.83-10.88s3.23-11.22,10-11.22,8.95,3.99,8.95,10.21v1.85Zm-3.11-2.98c0-4.45-1.72-6.55-5.92-6.55s-6.55,2.65-6.89,6.97h12.81v-.42Z"/><path class="cls-8" d="m1343.62,1913.77h2.6l.29,3.91c1.01-2.14,3.07-4.45,6.76-4.45,1.26,0,2.18.21,3.02.55v3.15c-1.13-.5-2.1-.76-3.4-.76-3.74,0-6.34,2.81-6.34,5.75v12.85h-2.94v-21Z"/><path class="cls-8" d="m1361.13,1913.77l6.89,17.98h.08l7.14-17.98h3.07v.04l-8.86,20.84-3.11,8.53h-2.98v-.04l3.19-8.36-8.78-20.96v-.04h3.36Z"/><path class="cls-8" d="m1390.49,1924.44c0-6.38,3.23-11.22,10-11.22s8.95,3.91,8.95,8.95v.42h-3.11v-.63c0-3.82-1.64-6.09-5.84-6.09-4.75,0-7.02,3.11-7.02,8.4,0,5.63,2.39,8.49,6.93,8.49,3.82,0,5.84-1.85,5.92-5.67h3.02c-.08,4.66-3.15,8.23-9.03,8.23-7.22,0-9.83-4.75-9.83-10.88Z"/><path class="cls-8" d="m1414.69,1902.01h2.94v32.77h-2.94v-32.77Z"/><path class="cls-8" d="m1423.29,1924.27c0-6.22,3.32-11.05,10.38-11.05,6.6,0,10.25,4.83,10.25,11.05s-3.7,11.05-10.29,11.05c-7.27,0-10.33-4.83-10.33-11.05Zm17.56,0c0-5.33-2.9-8.49-7.22-8.49-4.75,0-7.27,3.15-7.27,8.49s2.56,8.49,7.27,8.49c4.33,0,7.22-3.15,7.22-8.49Z"/><path class="cls-8" d="m1447.91,1928.35v-1.18h2.94v1.13c0,2.86,2.14,4.5,5.96,4.5s5.8-1.01,5.8-3.78c0-2.06-1.01-2.81-3.87-3.32l-4.62-.84c-3.02-.55-5.54-2.02-5.54-5.5,0-3.15,2.35-6.13,8.4-6.13s8.4,3.02,8.4,7.23v.88h-2.98v-.76c0-3.44-2.14-4.92-5.42-4.92-3.95,0-5.34,1.34-5.34,3.36s1.01,2.86,3.91,3.4l4.03.76c4.12.76,6.09,1.93,6.09,5.59,0,4.58-4.12,6.55-8.78,6.55-7.31,0-8.99-3.28-8.99-6.97Z"/><path class="cls-8" d="m1488.82,1925.28h-15.96c.17,4.79,2.48,7.48,6.93,7.48,3.82,0,5.67-1.43,5.97-4.83h2.98c-.29,4.24-3.28,7.39-9.03,7.39-7.06,0-9.83-4.66-9.83-10.88s3.23-11.22,10-11.22,8.95,3.99,8.95,10.21v1.85Zm-3.11-2.98c0-4.45-1.72-6.55-5.92-6.55s-6.55,2.65-6.89,6.97h12.81v-.42Z"/><path class="cls-8" d="m1515.32,1932.08v2.6c-.76.21-2.14.59-4.03.59-3.82,0-6.34-1.6-6.34-6.89v-12.18h-4.16v-2.44h4.16v-6.05l2.94-1.43v7.48h5.92v2.44h-5.92v11.8c0,2.81.76,4.58,3.4,4.58,1.6,0,3.23-.29,4.03-.5Z"/><path class="cls-8" d="m1517.84,1924.27c0-6.22,3.32-11.05,10.38-11.05,6.59,0,10.25,4.83,10.25,11.05s-3.7,11.05-10.29,11.05c-7.27,0-10.33-4.83-10.33-11.05Zm17.56,0c0-5.33-2.9-8.49-7.22-8.49-4.75,0-7.27,3.15-7.27,8.49s2.56,8.49,7.27,8.49c4.33,0,7.22-3.15,7.22-8.49Z"/><path class="cls-8" d="m1564.96,1932.08v2.6c-.76.21-2.14.59-4.03.59-3.82,0-6.34-1.6-6.34-6.89v-12.18h-4.16v-2.44h4.16v-6.05l2.94-1.43v7.48h5.92v2.44h-5.92v11.8c0,2.81.76,4.58,3.4,4.58,1.6,0,3.23-.29,4.03-.5Z"/><path class="cls-8" d="m1569.79,1902.01h2.94v15.17c1.05-2.1,3.28-3.95,7.31-3.95,4.75,0,7.77,2.52,7.77,7.94v13.61h-2.94v-13.27c0-4.33-2.14-5.71-5.5-5.71-3.82,0-6.64,2.69-6.64,5.63v13.36h-2.94v-32.77Z"/><path class="cls-8" d="m1612.42,1925.28h-15.96c.17,4.79,2.48,7.48,6.93,7.48,3.82,0,5.67-1.43,5.96-4.83h2.98c-.29,4.24-3.28,7.39-9.03,7.39-7.06,0-9.83-4.66-9.83-10.88s3.23-11.22,10-11.22,8.95,3.99,8.95,10.21v1.85Zm-3.11-2.98c0-4.45-1.72-6.55-5.92-6.55s-6.55,2.65-6.89,6.97h12.81v-.42Z"/><path class="cls-8" d="m1627.96,1902.01h2.94v32.77h-2.94v-32.77Z"/><path class="cls-8" d="m1655.52,1925.28h-15.96c.17,4.79,2.48,7.48,6.93,7.48,3.82,0,5.67-1.43,5.96-4.83h2.98c-.29,4.24-3.28,7.39-9.03,7.39-7.06,0-9.83-4.66-9.83-10.88s3.23-11.22,10-11.22,8.95,3.99,8.95,10.21v1.85Zm-3.11-2.98c0-4.45-1.72-6.55-5.92-6.55s-6.55,2.65-6.89,6.97h12.81v-.42Z"/><path class="cls-8" d="m1661.98,1928.39v-12.18h-4.16v-2.44h4.16v-6.05l2.94-1.43v7.48h11.85v-6.05l2.94-1.43v7.48h5.92v2.44h-5.92v11.8c0,2.81.76,4.58,3.4,4.58,1.6,0,3.24-.29,4.03-.5v2.6c-.76.21-2.14.59-4.03.59-3.82,0-6.34-1.6-6.34-6.89v-12.18h-11.85v11.8c0,2.81.76,4.58,3.4,4.58,1.6,0,3.23-.29,4.03-.5v2.6c-.76.21-2.14.59-4.03.59-3.82,0-6.34-1.6-6.34-6.89Z"/><path class="cls-8" d="m1708.6,1925.28h-15.96c.17,4.79,2.48,7.48,6.93,7.48,3.82,0,5.67-1.43,5.96-4.83h2.98c-.29,4.24-3.28,7.39-9.03,7.39-7.06,0-9.83-4.66-9.83-10.88s3.23-11.22,10-11.22,8.95,3.99,8.95,10.21v1.85Zm-3.11-2.98c0-4.45-1.72-6.55-5.92-6.55s-6.55,2.65-6.89,6.97h12.81v-.42Z"/><path class="cls-8" d="m1714.48,1913.77h2.61l.29,3.91c1.01-2.14,3.07-4.45,6.76-4.45,1.26,0,2.19.21,3.03.55v3.15c-1.13-.5-2.1-.76-3.4-.76-3.74,0-6.34,2.81-6.34,5.75v12.85h-2.94v-21Z"/><path class="cls-8" d="m1729.69,1928.35v-1.18h2.94v1.13c0,2.86,2.14,4.5,5.96,4.5s5.8-1.01,5.8-3.78c0-2.06-1.01-2.81-3.86-3.32l-4.62-.84c-3.03-.55-5.54-2.02-5.54-5.5,0-3.15,2.35-6.13,8.4-6.13s8.4,3.02,8.4,7.23v.88h-2.98v-.76c0-3.44-2.14-4.92-5.42-4.92-3.95,0-5.33,1.34-5.33,3.36s1.01,2.86,3.91,3.4l4.03.76c4.12.76,6.09,1.93,6.09,5.59,0,4.58-4.12,6.55-8.78,6.55-7.31,0-8.99-3.28-8.99-6.97Z"/><path class="cls-10" d="m1272.7,1325.56v126.57c0,6.68,5.11,11.79,11.78,11.79s11.79-5.11,11.79-11.79v-65.74c4.9.23,9.8.19,14.52-.73,20.3,31.92,48.46,79.83,76.61,79.83,15.94,0,36.49-17.96,54.7-39.37-5.85-5.39-11.99-10.46-18.21-15.43-14.67,17.37-29.37,31.23-36.48,31.23-12.86,0-36.27-37.85-56.57-68.71,24.96-25.39,44.13-53.07,63.64-70.74,5.11-4.32,9.82-6.29,15.32-7.07,5.89-.79,10.21-5.89,10.21-11.79,0-7.46-6.68-12.57-13.36-11.39-9.04,1.18-18.86,4.71-27.89,12.96-23.18,20.43-43.6,51.46-69.53,75.82-2.05,2.05-7.05,2.02-12.96,1.72v-52.36c25.99-37.22,48.71-107.12,48.71-168.96,0-24.36-10.21-47.14-33.39-47.14-29.86,0-38.89,22.39-38.89,82.5v114.69m23.57-114.69c0-47.53,3.93-58.93,15.32-58.93,6.68,0,9.82,10.61,9.82,23.57,0,40.64-10.75,85.11-25.14,119.2v-83.85Zm145.83,249.37c8.61-11.64-8.7-26.33-18.21-15.43"/><line class="cls-2" x1="1385.47" y1="1480" x2="1385.47" y2="1480.87"/><line class="cls-4" x1="1385.47" y1="1498.45" x2="1385.47" y2="1682.98"/><line class="cls-2" x1="1385.47" y1="1691.77" x2="1385.47" y2="1692.64"/><path class="cls-8" d="m1121.47,1723.99h-3.36v-5.08c0-3.95.88-5.29,3.4-5.96l.67,1.85c-1.76.67-2.06,1.09-2.06,3.78v.34h1.34v5.08Zm5.92,0h-3.36v-5.08c0-3.95.88-5.29,3.4-5.96l.67,1.85c-1.76.67-2.06,1.09-2.06,3.78v.34h1.34v5.08Z"/><path class="cls-8" d="m1133.78,1713.53h2.94v23.23l12.14-11.47h3.66v.04l-8.4,7.86,8.78,13.06v.04h-3.36l-7.39-11.22-5.42,5.04v6.17h-2.94v-32.77Z"/><path class="cls-8" d="m1156.03,1722.73c1.76-.67,2.06-1.09,2.06-3.78v-.34h-1.34v-5.08h3.36v5.08c0,3.95-.88,5.29-3.4,5.96l-.67-1.85Zm5.92,0c1.76-.67,2.06-1.09,2.06-3.78v-.34h-1.34v-5.08h3.36v5.08c0,3.95-.88,5.29-3.4,5.96l-.67-1.85Z"/><path class="cls-8" d="m1178.84,1725.33v-.04h2.98l5.75,17.48h.08l6.3-17.48h2.69l6.17,17.48h.08l5.75-17.48h2.86v.04l-7.18,20.96h-3.02l-5.97-17.05h-.08l-6.22,17.05h-3.02l-7.18-20.96Z"/><path class="cls-8" d="m1216.35,1725.29h2.6l.29,3.91c1.01-2.14,3.07-4.45,6.76-4.45,1.26,0,2.18.21,3.02.55v3.15c-1.13-.5-2.1-.76-3.4-.76-3.74,0-6.34,2.81-6.34,5.75v12.85h-2.94v-21Z"/><path class="cls-8" d="m1233.65,1713.53h2.98v6.51h-2.98v-6.51Zm0,11.76h2.94v21h-2.94v-21Z"/><path class="cls-8" d="m1244.57,1739.91v-12.18h-4.16v-2.44h4.16v-6.05l2.94-1.43v7.48h11.85v-6.05l2.94-1.43v7.48h5.92v2.44h-5.92v11.8c0,2.81.76,4.58,3.4,4.58,1.6,0,3.23-.29,4.03-.5v2.6c-.76.21-2.14.59-4.03.59-3.82,0-6.34-1.6-6.34-6.89v-12.18h-11.85v11.8c0,2.81.76,4.58,3.4,4.58,1.6,0,3.23-.29,4.03-.5v2.6c-.76.21-2.14.59-4.03.59-3.82,0-6.34-1.6-6.34-6.89Z"/><path class="cls-8" d="m1291.19,1736.8h-15.96c.17,4.79,2.48,7.48,6.93,7.48,3.82,0,5.67-1.43,5.96-4.83h2.98c-.29,4.24-3.28,7.39-9.03,7.39-7.06,0-9.83-4.66-9.83-10.88s3.23-11.22,10-11.22,8.95,3.99,8.95,10.21v1.85Zm-3.11-2.98c0-4.45-1.72-6.55-5.92-6.55s-6.55,2.65-6.89,6.97h12.81v-.42Z"/><path class="cls-8" d="m1297.07,1725.29h2.6l.29,3.49c1.01-2.14,3.28-4.03,7.35-4.03,4.75,0,7.77,2.52,7.77,7.94v13.61h-2.94v-13.27c0-4.33-2.14-5.71-5.5-5.71-3.82,0-6.64,2.69-6.64,5.63v13.36h-2.94v-21Z"/><path class="cls-8" d="m1329.37,1725.33v-.04h2.98l5.76,17.48h.08l6.3-17.48h2.69l6.17,17.48h.08l5.75-17.48h2.86v.04l-7.18,20.96h-3.02l-5.96-17.05h-.08l-6.22,17.05h-3.02l-7.18-20.96Z"/><path class="cls-8" d="m1366.87,1713.53h2.98v6.51h-2.98v-6.51Zm0,11.76h2.94v21h-2.94v-21Z"/><path class="cls-8" d="m1388.17,1743.61v2.6c-.76.21-2.14.59-4.03.59-3.82,0-6.34-1.6-6.34-6.89v-12.18h-4.16v-2.44h4.16v-6.05l2.94-1.43v7.48h5.92v2.44h-5.92v11.8c0,2.81.76,4.58,3.4,4.58,1.6,0,3.23-.29,4.03-.5Z"/><path class="cls-8" d="m1392.99,1713.53h2.94v15.17c1.05-2.1,3.28-3.95,7.31-3.95,4.75,0,7.77,2.52,7.77,7.94v13.61h-2.94v-13.27c0-4.33-2.14-5.71-5.5-5.71-3.82,0-6.64,2.69-6.64,5.63v13.36h-2.94v-32.77Z"/><path class="cls-8" d="m1438.99,1743.61v2.6c-.76.21-2.14.59-4.03.59-3.82,0-6.34-1.6-6.34-6.89v-12.18h-4.16v-2.44h4.16v-6.05l2.94-1.43v7.48h5.92v2.44h-5.92v11.8c0,2.81.76,4.58,3.4,4.58,1.6,0,3.23-.29,4.03-.5Z"/><path class="cls-8" d="m1441.08,1725.33v-.04h2.98l5.75,17.48h.08l6.3-17.48h2.69l6.17,17.48h.08l5.75-17.48h2.86v.04l-7.18,20.96h-3.02l-5.96-17.05h-.08l-6.22,17.05h-3.02l-7.18-20.96Z"/><path class="cls-8" d="m1476.07,1735.79c0-6.22,3.32-11.05,10.38-11.05,6.59,0,10.25,4.83,10.25,11.05s-3.7,11.05-10.29,11.05c-7.27,0-10.33-4.83-10.33-11.05Zm17.56,0c0-5.33-2.9-8.49-7.22-8.49-4.75,0-7.27,3.15-7.27,8.49s2.56,8.49,7.27,8.49c4.33,0,7.22-3.15,7.22-8.49Z"/><path class="cls-8" d="m1510.34,1739.87v-1.18h2.94v1.13c0,2.86,2.14,4.5,5.96,4.5s5.8-1.01,5.8-3.78c0-2.06-1.01-2.81-3.86-3.32l-4.62-.84c-3.02-.55-5.54-2.02-5.54-5.5,0-3.15,2.35-6.13,8.4-6.13s8.4,3.02,8.4,7.23v.88h-2.98v-.76c0-3.44-2.14-4.92-5.42-4.92-3.95,0-5.33,1.34-5.33,3.36s1.01,2.86,3.91,3.4l4.03.76c4.12.76,6.09,1.93,6.09,5.59,0,4.58-4.12,6.55-8.78,6.55-7.31,0-8.99-3.28-8.99-6.97Z"/><path class="cls-8" d="m1544.95,1743.61v2.6c-.76.21-2.14.59-4.03.59-3.82,0-6.34-1.6-6.34-6.89v-12.18h-4.16v-2.44h4.16v-6.05l2.94-1.43v7.48h5.92v2.44h-5.92v11.8c0,2.81.76,4.58,3.4,4.58,1.6,0,3.23-.29,4.03-.5Z"/><path class="cls-8" d="m1549.78,1725.29h2.6l.29,3.91c1.01-2.14,3.07-4.45,6.76-4.45,1.26,0,2.18.21,3.02.55v3.15c-1.13-.5-2.1-.76-3.4-.76-3.74,0-6.34,2.81-6.34,5.75v12.85h-2.94v-21Z"/><path class="cls-8" d="m1564.77,1735.79c0-6.22,3.32-11.05,10.38-11.05,6.59,0,10.25,4.83,10.25,11.05s-3.7,11.05-10.29,11.05c-7.27,0-10.33-4.83-10.33-11.05Zm17.56,0c0-5.33-2.9-8.49-7.22-8.49-4.75,0-7.27,3.15-7.27,8.49s2.56,8.49,7.27,8.49c4.33,0,7.22-3.15,7.22-8.49Z"/><path class="cls-8" d="m1590.64,1713.53h2.94v23.23l12.14-11.47h3.65v.04l-8.4,7.86,8.78,13.06v.04h-3.36l-7.39-11.22-5.42,5.04v6.17h-2.94v-32.77Z"/><path class="cls-8" d="m1631.01,1736.8h-15.96c.17,4.79,2.48,7.48,6.93,7.48,3.82,0,5.67-1.43,5.97-4.83h2.98c-.29,4.24-3.28,7.39-9.03,7.39-7.06,0-9.83-4.66-9.83-10.88s3.23-11.22,10-11.22,8.95,3.99,8.95,10.21v1.85Zm-3.11-2.98c0-4.45-1.72-6.55-5.92-6.55s-6.55,2.65-6.89,6.97h12.81v-.42Z"/><path class="cls-8" d="m1635,1739.87v-1.18h2.94v1.13c0,2.86,2.14,4.5,5.96,4.5s5.8-1.01,5.8-3.78c0-2.06-1.01-2.81-3.86-3.32l-4.62-.84c-3.02-.55-5.54-2.02-5.54-5.5,0-3.15,2.35-6.13,8.4-6.13s8.4,3.02,8.4,7.23v.88h-2.98v-.76c0-3.44-2.14-4.92-5.42-4.92-3.95,0-5.33,1.34-5.33,3.36s1.01,2.86,3.91,3.4l4.03.76c4.12.76,6.09,1.93,6.09,5.59,0,4.58-4.12,6.55-8.78,6.55-7.31,0-8.99-3.28-8.99-6.97Z"/><path class="cls-10" d="m551.48,199.81c6.28,0,11.78,5.11,11.78,11.78,0,3.54-1.57,6.68-3.93,8.64-17.68,16.11-39.28,27.89-60.1,27.89-42.03,0-64.03-40.07-90.35-40.07-17.68,0-32.21,16.5-36.93,37.32-1.18,5.11-5.89,9.03-11.39,9.03-7.46,0-12.96-6.68-11.39-14.14,6.68-29.86,28.28-55.78,59.71-55.78,38.89,0,56.57,40.07,90.35,40.07,13.75,0,29.86-8.64,44.39-21.6,1.96-1.96,4.71-3.14,7.86-3.14Z"/><path class="cls-10" d="m478.02,361.66c0,6.68-5.11,11.78-11.78,11.78h-101.74c-6.68,0-11.79-5.11-11.79-11.78s5.11-11.78,11.79-11.78h101.74c6.68,0,11.78,5.11,11.78,11.78Z"/><path class="cls-10" d="m450.52,432.76c-7.46,0-13.36-7.46-11.39-14.53,5.89-22,25.53-34.18,45.57-34.18,41.25,0,64.82,42.03,64.82,84.85,0,49.1-30.25,101.35-99.39,101.35-45.57,0-91.53-29.46-91.53-94.67,0-98.99,122.56-201.92,185.03-271.84,1.96-2.36,5.11-3.93,8.64-3.93,6.68,0,11.78,5.5,11.78,11.78,0,3.14-1.18,5.89-2.75,7.86-63.64,71.1-179.13,168.92-179.13,256.13,0,49.5,32.61,71.1,67.96,71.1,53.43,0,75.82-38.89,75.82-77.78,0-32.61-16.11-61.28-41.25-61.28-10.61,0-19.64,5.89-22.78,16.5-1.18,5.11-5.89,8.64-11.39,8.64Z"/><path class="cls-8" d="m790.72,473.61c6.68,0,11.78,5.11,11.78,11.78,0,1.96-.39,3.93-1.18,5.5-17.68,33-43.6,79.35-84.46,79.35-20.82,0-41.64-11.39-41.64-51.85,0-10.21,1.57-92.32,1.57-102.14,0-18.86-4.32-22-11.39-18.46-40.85,19.25-85.24,7.46-85.24-25.93,0-14.93,9.03-23.57,20.82-23.57,12.96,0,27.5,11.78,29.46,38.1,2.75,41.25-25.93,117.07-55.78,177.17-1.96,3.93-5.89,6.68-10.61,6.68-6.29,0-11.78-5.5-11.78-11.78,0-1.96.39-3.54,1.18-5.11,29.07-58.14,55.78-130.03,53.43-165.38-.79-11.78-5.11-16.11-5.89-16.11-.39,0,2.75-3.14,2.75,0,0,12.18,26.32,16.5,51.46,4.71,21.21-10.21,45.18,0,45.18,39.68,0,9.82-1.57,91.92-1.57,102.14,0,23.57,6.68,28.28,18.07,28.28,25.93,0,47.14-36.14,63.64-66.78,1.96-3.93,5.89-6.29,10.21-6.29Z"/><path class="cls-8" d="m899.92,474.01c6.68,0,11.79,5.5,11.79,11.78,0,1.57,0,3.14-.79,4.32-23.18,58.53-53.03,80.14-79.35,80.14s-49.5-22.39-49.89-55l-1.18-127.67c0-6.28,5.5-11.78,11.78-11.78,6.68,0,11.78,5.11,11.78,11.78l1.18,127.67c.39,19.25,12.57,31.43,26.32,31.43,15.71,0,38.1-16.11,57.75-65.21,1.57-4.32,5.89-7.46,10.61-7.46Z"/><path class="cls-8" d="m1024.84,729.74c-6.68,0-11.78-5.11-11.78-11.78v-432.9c0-60.1,9.04-82.5,38.89-82.5,23.18,0,33.39,22.78,33.39,47.14,0,70.71-91.14,320.55-157.13,320.55-22.78,0-38.5-21.21-38.89-55l-1.18-127.67c0-6.28,5.5-11.78,11.78-11.78,6.68,0,11.79,5.11,11.79,11.78l1.18,127.67c.39,22,7.86,31.43,15.32,31.43,42.43,0,133.56-232.56,133.56-296.98,0-12.96-3.14-23.57-9.82-23.57-11.39,0-15.32,11.39-15.32,58.93v432.9c0,6.68-5.11,11.78-11.79,11.78Z"/><path class="cls-10" d="m1132.09,423.33c6.68,0,11.78,5.5,11.78,11.78,0,3.54-1.18,6.68-3.54,8.64l-132.39,122.56c-1.96,1.96-4.71,3.14-7.86,3.14-6.68,0-11.78-5.5-11.78-11.78,0-3.54,1.18-6.68,3.54-8.64l132.39-122.56c1.96-1.96,4.71-3.14,7.86-3.14Z"/><path class="cls-8" d="m1235.8,501.11c6.28,0,11.78,5.11,11.78,11.78,0,2.36-.79,4.71-1.96,6.28-25.14,38.5-51.85,51.07-75.42,51.07-43.6,0-67.18-36.53-67.18-77,0-66.39,53.82-113.14,127.67-117.46,6.68-.39,12.57,5.11,12.57,11.78,0,6.29-4.71,11.39-11,11.78-62.85,3.54-105.67,41.25-105.67,93.89,0,29.07,14.93,53.43,43.6,53.43,16.11,0,35.75-9.03,55.78-40.07,1.96-3.54,5.5-5.5,9.82-5.5Z"/><path class="cls-8" d="m1390.57,334.16c6.28,0,11.78,5.5,11.78,11.78,0,1.96-.39,3.93-1.57,5.5l-57.35,113.92c-36.14,71.49-50.28,104.89-80.14,104.89-22.78,0-38.1-22.39-38.5-55l-1.18-127.67c0-6.28,5.5-11.78,11.78-11.78,6.68,0,11.78,5.11,11.78,11.78l1.18,127.67c.39,20.43,7.46,31.43,14.93,31.43,12.57,0,23.18-20.82,58.93-92.32l57.75-113.92c1.96-3.54,5.89-6.28,10.61-6.28Z"/><path class="cls-8" d="m1332.43,527.43c0-6.68,5.5-11.78,11.78-11.78,3.54,0,6.68,1.57,8.64,3.93,15.71,17.28,35.36,27.1,51.85,27.1,21.21,0,38.1-16.11,38.1-43.6,0-29.07-19.64-60.5-70.32-110.39-1.96-1.96-3.54-5.11-3.54-8.25,0-6.68,5.5-11.78,11.78-11.78,3.54,0,6.28,1.18,8.25,3.54,53.43,52.25,77.39,89.17,77.39,126.89,0,40.85-27.89,67.17-61.68,67.17-23.57,0-49.5-13.36-69.14-34.96-1.96-1.96-3.14-4.71-3.14-7.86Z"/><path class="cls-8" d="m1529.24,475.97c6.68,0,11.78,5.5,11.78,11.79,0,3.14-1.18,5.89-2.75,7.86-56.17,64.03-88.39,80.53-142.6,74.25-5.89-.39-10.21-5.5-10.21-11.39,0-7.07,5.89-12.57,12.96-11.78,45.18,5.11,70.71-8.25,122.17-66.39,1.96-2.75,5.11-4.32,8.64-4.32Z"/><path class="cls-9" d="m1036.63,598.32v119.63c0,6.68-5.11,11.78-11.79,11.78s-11.78-5.11-11.78-11.78v-119.74s10.68-1.46,23.57.1Z"/><path class="cls-9" d="m1036.63,285.06c0-47.53,3.93-58.93,15.32-58.93,6.68,0,9.82,10.61,9.82,23.57,0,21.45-10.1,61.53-25.14,105.45v-70.1Z"/><path class="cls-8" d="m957.24,836.45h-3.36v-5.08c0-3.95.88-5.29,3.4-5.97l.67,1.85c-1.77.67-2.06,1.09-2.06,3.78v.34h1.34v5.08Zm5.92,0h-3.36v-5.08c0-3.95.88-5.29,3.4-5.97l.67,1.85c-1.76.67-2.06,1.09-2.06,3.78v.34h1.34v5.08Z"/><path class="cls-8" d="m973.28,832.71v5.04h5.92v2.44h-5.92v18.57h-2.94v-18.57h-4.16v-2.44h4.16v-5.42c0-5.29,3.15-6.89,6.38-6.89,1.85,0,2.98.29,3.74.55v2.6c-.71-.21-1.89-.46-3.49-.46-2.65,0-3.7,1.76-3.7,4.58Z"/><path class="cls-8" d="m983.82,835.19c1.76-.67,2.06-1.09,2.06-3.78v-.34h-1.34v-5.08h3.36v5.08c0,3.95-.88,5.29-3.4,5.97l-.67-1.85Zm5.92,0c1.76-.67,2.06-1.09,2.06-3.78v-.34h-1.34v-5.08h3.36v5.08c0,3.95-.88,5.29-3.4,5.97l-.67-1.85Z"/><path class="cls-8" d="m1007.68,848.42c0-6.38,3.23-11.22,10-11.22s8.95,3.91,8.95,8.95v.42h-3.11v-.63c0-3.82-1.64-6.09-5.84-6.09-4.75,0-7.02,3.11-7.02,8.4,0,5.63,2.39,8.49,6.93,8.49,3.82,0,5.84-1.85,5.92-5.67h3.02c-.08,4.66-3.15,8.23-9.03,8.23-7.22,0-9.83-4.75-9.83-10.88Z"/><path class="cls-8" d="m1030.82,848.26c0-6.22,3.32-11.05,10.38-11.05,6.6,0,10.25,4.83,10.25,11.05s-3.7,11.05-10.29,11.05c-7.27,0-10.33-4.83-10.33-11.05Zm17.56,0c0-5.33-2.9-8.49-7.23-8.49-4.75,0-7.27,3.15-7.27,8.49s2.56,8.49,7.27,8.49c4.33,0,7.23-3.15,7.23-8.49Z"/><path class="cls-8" d="m1057.32,837.75h2.6l.29,3.49c1.01-2.14,3.28-4.03,7.35-4.03,4.75,0,7.77,2.52,7.77,7.94v13.61h-2.94v-13.27c0-4.33-2.14-5.71-5.5-5.71-3.82,0-6.64,2.69-6.64,5.63v13.36h-2.94v-21Z"/><path class="cls-8" d="m1082.69,837.75h2.61l.29,3.49c1.01-2.14,3.28-4.03,7.35-4.03,4.75,0,7.77,2.52,7.77,7.94v13.61h-2.94v-13.27c0-4.33-2.14-5.71-5.5-5.71-3.82,0-6.64,2.69-6.64,5.63v13.36h-2.94v-21Z"/><path class="cls-8" d="m1125.33,849.26h-15.96c.17,4.79,2.48,7.48,6.93,7.48,3.82,0,5.67-1.43,5.96-4.83h2.98c-.29,4.24-3.28,7.39-9.03,7.39-7.06,0-9.83-4.66-9.83-10.88s3.23-11.22,10-11.22,8.95,3.99,8.95,10.21v1.85Zm-3.11-2.98c0-4.45-1.72-6.55-5.92-6.55s-6.55,2.65-6.89,6.97h12.81v-.42Z"/><path class="cls-8" d="m1129.52,848.42c0-6.38,3.23-11.22,10-11.22s8.95,3.91,8.95,8.95v.42h-3.11v-.63c0-3.82-1.64-6.09-5.84-6.09-4.75,0-7.02,3.11-7.02,8.4,0,5.63,2.39,8.49,6.93,8.49,3.82,0,5.84-1.85,5.92-5.67h3.02c-.08,4.66-3.15,8.23-9.03,8.23-7.22,0-9.83-4.75-9.83-10.88Z"/><path class="cls-8" d="m1165.31,856.07v2.6c-.76.21-2.14.59-4.03.59-3.82,0-6.34-1.6-6.34-6.89v-12.18h-4.16v-2.44h4.16v-6.05l2.94-1.43v7.48h5.92v2.44h-5.92v11.8c0,2.81.76,4.58,3.4,4.58,1.6,0,3.23-.29,4.03-.5Z"/><path class="cls-8" d="m1168.25,852.33v-1.18h2.94v1.13c0,2.86,2.14,4.5,5.96,4.5s5.8-1.01,5.8-3.78c0-2.06-1.01-2.81-3.86-3.32l-4.62-.84c-3.02-.55-5.54-2.02-5.54-5.5,0-3.15,2.35-6.13,8.4-6.13s8.4,3.02,8.4,7.23v.88h-2.98v-.76c0-3.44-2.14-4.91-5.42-4.91-3.95,0-5.33,1.34-5.33,3.36s1.01,2.86,3.91,3.4l4.03.76c4.12.76,6.09,1.93,6.09,5.59,0,4.58-4.12,6.55-8.78,6.55-7.31,0-8.99-3.28-8.99-6.97Z"/><path class="cls-8" d="m1205.71,832.71v5.04h5.92v2.44h-5.92v18.57h-2.94v-18.57h-4.16v-2.44h4.16v-5.42c0-5.29,3.15-6.89,6.38-6.89,1.85,0,2.98.29,3.74.55v2.6c-.71-.21-1.89-.46-3.49-.46-2.65,0-3.7,1.76-3.7,4.58Z"/><path class="cls-8" d="m1216.04,837.75h2.6l.29,3.91c1.01-2.14,3.07-4.45,6.76-4.45,1.26,0,2.19.21,3.03.55v3.15c-1.13-.5-2.1-.76-3.4-.76-3.74,0-6.34,2.81-6.34,5.75v12.85h-2.94v-21Z"/><path class="cls-8" d="m1231.04,848.26c0-6.22,3.32-11.05,10.38-11.05,6.59,0,10.25,4.83,10.25,11.05s-3.7,11.05-10.29,11.05c-7.27,0-10.33-4.83-10.33-11.05Zm17.56,0c0-5.33-2.9-8.49-7.23-8.49-4.75,0-7.27,3.15-7.27,8.49s2.56,8.49,7.27,8.49c4.33,0,7.23-3.15,7.23-8.49Z"/><path class="cls-8" d="m1288.25,845.15v13.61h-2.94v-13.27c0-4.33-2.14-5.71-4.75-5.71-3.82,0-6.18,2.69-6.18,5.63v13.36h-2.94v-13.27c0-4.33-1.85-5.71-4.83-5.71-3.61,0-6.13,2.69-6.13,5.63v13.36h-2.94v-21h2.6l.29,3.49c1.01-2.02,3.07-4.03,6.93-4.03,2.94,0,5.38,1.39,6.43,4.28,1.22-2.39,3.57-4.28,7.14-4.28,4.29,0,7.31,2.52,7.31,7.94Z"/><path class="cls-8" d="m1316.21,856.07v2.6c-.76.21-2.14.59-4.03.59-3.82,0-6.34-1.6-6.34-6.89v-12.18h-4.16v-2.44h4.16v-6.05l2.94-1.43v7.48h5.92v2.44h-5.92v11.8c0,2.81.76,4.58,3.4,4.58,1.6,0,3.23-.29,4.03-.5Z"/><path class="cls-8" d="m1321.04,825.99h2.94v15.16c1.05-2.1,3.28-3.95,7.31-3.95,4.75,0,7.77,2.52,7.77,7.94v13.61h-2.94v-13.27c0-4.33-2.14-5.71-5.5-5.71-3.82,0-6.64,2.69-6.64,5.63v13.36h-2.94v-32.77Z"/><path class="cls-8" d="m1363.68,849.26h-15.96c.17,4.79,2.48,7.48,6.93,7.48,3.82,0,5.67-1.43,5.96-4.83h2.98c-.29,4.24-3.28,7.39-9.03,7.39-7.06,0-9.83-4.66-9.83-10.88s3.23-11.22,10-11.22,8.95,3.99,8.95,10.21v1.85Zm-3.11-2.98c0-4.45-1.72-6.55-5.92-6.55s-6.55,2.65-6.89,6.97h12.81v-.42Z"/><path class="cls-8" d="m1382.03,855.27h-.08l-.76,3.49h-1.97v-32.77h2.94v15.25h.04c1.26-2.31,4.07-4.03,7.69-4.03,6.3,0,9.66,3.99,9.66,11.01s-4.29,11.09-9.87,11.09c-3.78,0-6.55-1.64-7.65-4.03Zm14.37-6.89c0-7.18-3.4-8.61-6.93-8.61-4.24,0-7.56,2.73-7.56,8.44,0,6.01,3.45,8.57,7.44,8.57,3.02,0,7.06-1.47,7.06-8.4Z"/><path class="cls-8" d="m1403.95,852.96c0-3.95,2.23-6.09,7.86-6.09h6.34v-1.72c0-2.98-1.26-5.42-5.46-5.42-3.95,0-5.34,1.51-5.34,4.12v.88h-2.98v-.84c0-5,4.2-6.68,8.32-6.68,5.8,0,8.4,2.86,8.4,8.44v13.11h-2.06l-.55-2.98h-.08c-1.26,1.89-3.7,3.53-7.35,3.53-4.91,0-7.1-2.31-7.1-6.34Zm14.2-1.85v-1.76h-7.02c-2.65,0-4.03.92-4.03,3.61,0,2.35,1.26,3.86,4.5,3.86,4.16,0,6.55-2.14,6.55-5.71Z"/><path class="cls-8" d="m1428.44,837.75h2.61l.29,3.91c1.01-2.14,3.07-4.45,6.76-4.45,1.26,0,2.19.21,3.03.55v3.15c-1.13-.5-2.1-.76-3.4-.76-3.74,0-6.34,2.81-6.34,5.75v12.85h-2.94v-21Z"/><path class="cls-8" d="m1454.14,852.96c0-3.95,2.23-6.09,7.86-6.09h6.34v-1.72c0-2.98-1.26-5.42-5.46-5.42-3.95,0-5.33,1.51-5.33,4.12v.88h-2.98v-.84c0-5,4.2-6.68,8.32-6.68,5.8,0,8.4,2.86,8.4,8.44v13.11h-2.06l-.55-2.98h-.08c-1.26,1.89-3.7,3.53-7.35,3.53-4.92,0-7.1-2.31-7.1-6.34Zm14.2-1.85v-1.76h-7.01c-2.65,0-4.03.92-4.03,3.61,0,2.35,1.26,3.86,4.49,3.86,4.16,0,6.55-2.14,6.55-5.71Z"/><path class="cls-8" d="m1478.62,837.75h2.61l.29,3.49c1.01-2.14,3.28-4.03,7.35-4.03,4.75,0,7.77,2.52,7.77,7.94v13.61h-2.94v-13.27c0-4.33-2.14-5.71-5.5-5.71-3.82,0-6.64,2.69-6.64,5.63v13.36h-2.94v-21Z"/><path class="cls-8" d="m1502.31,848.3c0-7.1,4.28-11.09,10.04-11.09,3.7,0,6.22,1.6,7.31,3.74h.04v-14.95h2.94v32.77h-1.97l-.67-3.61h-.08c-1.18,2.31-3.95,4.16-7.77,4.16-6.3,0-9.83-3.99-9.83-11.01Zm17.64-.5c0-5.5-3.36-8.07-7.35-8.07-3.11,0-7.14,1.47-7.14,8.4s3.61,8.61,7.14,8.61c4.24,0,7.35-2.73,7.35-8.95Z"/><path class="cls-8" d="m1020.45,874.84h2.94v15.16c1.05-2.1,3.28-3.95,7.31-3.95,4.75,0,7.77,2.52,7.77,7.94v13.61h-2.94v-13.27c0-4.33-2.14-5.71-5.5-5.71-3.82,0-6.64,2.69-6.64,5.63v13.36h-2.94v-32.77Z"/><path class="cls-8" d="m1044.56,901.81c0-3.95,2.23-6.09,7.86-6.09h6.34v-1.72c0-2.98-1.26-5.42-5.46-5.42-3.95,0-5.33,1.51-5.33,4.12v.88h-2.98v-.84c0-5,4.2-6.68,8.32-6.68,5.8,0,8.4,2.86,8.4,8.44v13.11h-2.06l-.55-2.98h-.08c-1.26,1.89-3.7,3.53-7.35,3.53-4.92,0-7.1-2.31-7.1-6.34Zm14.2-1.85v-1.76h-7.01c-2.65,0-4.03.92-4.03,3.61,0,2.35,1.26,3.86,4.49,3.86,4.16,0,6.55-2.14,6.55-5.71Z"/><path class="cls-8" d="m1067.15,901.18v-1.18h2.94v1.13c0,2.86,2.14,4.5,5.96,4.5s5.8-1.01,5.8-3.78c0-2.06-1.01-2.81-3.86-3.32l-4.62-.84c-3.02-.55-5.54-2.02-5.54-5.5,0-3.15,2.35-6.13,8.4-6.13s8.4,3.02,8.4,7.23v.88h-2.98v-.76c0-3.44-2.14-4.91-5.42-4.91-3.95,0-5.33,1.34-5.33,3.36s1.01,2.86,3.91,3.4l4.03.76c4.12.76,6.09,1.93,6.09,5.59,0,4.58-4.12,6.55-8.78,6.55-7.31,0-8.99-3.28-8.99-6.97Z"/><path class="cls-8" d="m1100.46,886.6h2.6l.29,3.49c1.01-2.14,3.28-4.03,7.35-4.03,4.75,0,7.77,2.52,7.77,7.94v13.61h-2.94v-13.27c0-4.33-2.14-5.71-5.5-5.71-3.82,0-6.64,2.69-6.64,5.63v13.36h-2.94v-21Z"/><path class="cls-8" d="m1124.15,897.1c0-6.22,3.32-11.05,10.38-11.05,6.6,0,10.25,4.83,10.25,11.05s-3.7,11.05-10.29,11.05c-7.27,0-10.33-4.83-10.33-11.05Zm17.56,0c0-5.33-2.9-8.49-7.23-8.49-4.75,0-7.27,3.15-7.27,8.49s2.56,8.49,7.27,8.49c4.33,0,7.23-3.15,7.23-8.49Z"/><path class="cls-8" d="m1158.63,897.14c0-7.1,4.28-11.09,10.04-11.09,3.7,0,6.22,1.6,7.31,3.74h.04v-14.95h2.94v32.77h-1.97l-.67-3.61h-.08c-1.18,2.31-3.95,4.16-7.77,4.16-6.3,0-9.83-3.99-9.83-11.01Zm17.64-.5c0-5.5-3.36-8.07-7.35-8.07-3.11,0-7.14,1.47-7.14,8.4s3.61,8.61,7.14,8.61c4.24,0,7.35-2.73,7.35-8.95Z"/><path class="cls-8" d="m1203.57,898.11h-15.96c.17,4.79,2.48,7.48,6.93,7.48,3.82,0,5.67-1.43,5.96-4.83h2.98c-.29,4.24-3.28,7.39-9.03,7.39-7.06,0-9.83-4.66-9.83-10.88s3.23-11.22,10-11.22,8.95,3.99,8.95,10.21v1.85Zm-3.11-2.98c0-4.45-1.72-6.55-5.92-6.55s-6.55,2.65-6.89,6.97h12.81v-.42Z"/><path class="cls-8" d="m1207.56,901.18v-1.18h2.94v1.13c0,2.86,2.14,4.5,5.96,4.5s5.8-1.01,5.8-3.78c0-2.06-1.01-2.81-3.86-3.32l-4.62-.84c-3.03-.55-5.54-2.02-5.54-5.5,0-3.15,2.35-6.13,8.4-6.13s8.4,3.02,8.4,7.23v.88h-2.98v-.76c0-3.44-2.14-4.91-5.42-4.91-3.95,0-5.33,1.34-5.33,3.36s1.01,2.86,3.91,3.4l4.03.76c4.12.76,6.09,1.93,6.09,5.59,0,4.58-4.12,6.55-8.78,6.55-7.31,0-8.99-3.28-8.99-6.97Z"/><path class="cls-8" d="m1229.52,897.27c0-6.38,3.23-11.22,10-11.22s8.95,3.91,8.95,8.95v.42h-3.11v-.63c0-3.82-1.64-6.09-5.84-6.09-4.75,0-7.02,3.11-7.02,8.4,0,5.63,2.39,8.49,6.93,8.49,3.82,0,5.84-1.85,5.92-5.67h3.02c-.08,4.66-3.15,8.23-9.03,8.23-7.22,0-9.83-4.75-9.83-10.88Z"/><path class="cls-8" d="m1271.61,898.11h-15.96c.17,4.79,2.48,7.48,6.93,7.48,3.82,0,5.67-1.43,5.96-4.83h2.98c-.29,4.24-3.28,7.39-9.03,7.39-7.06,0-9.83-4.66-9.83-10.88s3.23-11.22,10-11.22,8.95,3.99,8.95,10.21v1.85Zm-3.11-2.98c0-4.45-1.72-6.55-5.92-6.55s-6.55,2.65-6.89,6.97h12.81v-.42Z"/><path class="cls-8" d="m1277.49,886.6h2.6l.29,3.49c1.01-2.14,3.28-4.03,7.35-4.03,4.75,0,7.77,2.52,7.77,7.94v13.61h-2.94v-13.27c0-4.33-2.14-5.71-5.5-5.71-3.82,0-6.64,2.69-6.64,5.63v13.36h-2.94v-21Z"/><path class="cls-8" d="m1301.18,897.14c0-7.1,4.29-11.09,10.04-11.09,3.7,0,6.22,1.6,7.31,3.74h.04v-14.95h2.94v32.77h-1.97l-.67-3.61h-.08c-1.18,2.31-3.95,4.16-7.77,4.16-6.3,0-9.83-3.99-9.83-11.01Zm17.64-.5c0-5.5-3.36-8.07-7.35-8.07-3.11,0-7.14,1.47-7.14,8.4s3.61,8.61,7.14,8.61c4.24,0,7.35-2.73,7.35-8.95Z"/><path class="cls-8" d="m1346.12,898.11h-15.96c.17,4.79,2.48,7.48,6.93,7.48,3.82,0,5.67-1.43,5.96-4.83h2.98c-.29,4.24-3.28,7.39-9.03,7.39-7.06,0-9.83-4.66-9.83-10.88s3.23-11.22,10-11.22,8.95,3.99,8.95,10.21v1.85Zm-3.11-2.98c0-4.45-1.72-6.55-5.92-6.55s-6.55,2.65-6.89,6.97h12.81v-.42Z"/><path class="cls-8" d="m1352,886.6h2.6l.29,3.91c1.01-2.14,3.07-4.45,6.76-4.45,1.26,0,2.18.21,3.02.55v3.15c-1.13-.5-2.1-.76-3.4-.76-3.74,0-6.34,2.81-6.34,5.75v12.85h-2.94v-21Z"/><path class="cls-8" d="m1378.96,874.84h2.94v32.77h-2.94v-32.77Z"/><path class="cls-8" d="m1387.57,897.1c0-6.22,3.32-11.05,10.38-11.05,6.6,0,10.25,4.83,10.25,11.05s-3.7,11.05-10.29,11.05c-7.27,0-10.33-4.83-10.33-11.05Zm17.56,0c0-5.33-2.9-8.49-7.22-8.49-4.75,0-7.27,3.15-7.27,8.49s2.56,8.49,7.27,8.49c4.33,0,7.22-3.15,7.22-8.49Z"/><path class="cls-8" d="m1412.39,897.1c0-6.22,3.32-11.05,10.38-11.05,6.6,0,10.25,4.83,10.25,11.05s-3.7,11.05-10.29,11.05c-7.27,0-10.33-4.83-10.33-11.05Zm17.56,0c0-5.33-2.9-8.49-7.22-8.49-4.75,0-7.27,3.15-7.27,8.49s2.56,8.49,7.27,8.49c4.33,0,7.22-3.15,7.22-8.49Z"/><path class="cls-8" d="m1438.89,886.6h2.39l.34,3.86h.08c1.13-2.48,4.03-4.41,7.86-4.41,6.3,0,9.66,3.99,9.66,11.01s-4.29,11.09-9.87,11.09c-3.78,0-6.38-1.6-7.43-3.7h-.09v11.55h-2.94v-29.41Zm17.18,10.63c0-7.18-3.4-8.61-6.93-8.61-4.24,0-7.56,2.73-7.56,8.44,0,6.01,3.45,8.57,7.44,8.57,3.03,0,7.06-1.47,7.06-8.4Z"/><polyline class="cls-5" points="1061.09 536.54 1239.26 678.18 1118.98 678.18"/><line class="cls-5" x1="1239.26" y1="697.18" x2="1239.26" y2="797.96"/><polyline class="cls-5" points="1106.92 2569.37 1106.92 2622.53 577.75 2622.53"/><line class="cls-5" x1="655.88" y1="2564.37" x2="655.88" y2="2604.75"/><path class="cls-8" d="m66.09,2600.95h3.15l17.68,27.6h.04v-27.6h2.94v32.77h-3.07l-17.77-27.93h-.04v27.93h-2.94v-32.77Z"/><path class="cls-8" d="m97.25,2627.91c0-3.95,2.23-6.09,7.86-6.09h6.34v-1.72c0-2.98-1.26-5.42-5.46-5.42-3.95,0-5.33,1.51-5.33,4.12v.88h-2.98v-.84c0-5,4.2-6.68,8.32-6.68,5.8,0,8.4,2.86,8.4,8.44v13.11h-2.06l-.55-2.98h-.08c-1.26,1.89-3.7,3.53-7.35,3.53-4.92,0-7.1-2.31-7.1-6.34Zm14.2-1.85v-1.76h-7.01c-2.65,0-4.03.92-4.03,3.61,0,2.35,1.26,3.86,4.5,3.86,4.16,0,6.55-2.14,6.55-5.71Z"/><path class="cls-8" d="m121.74,2612.71h2.6l.29,3.91c1.01-2.14,3.07-4.45,6.76-4.45,1.26,0,2.18.21,3.02.55v3.15c-1.13-.5-2.1-.76-3.4-.76-3.74,0-6.34,2.81-6.34,5.75v12.85h-2.94v-21Z"/><path class="cls-8" d="m139.04,2612.71h2.6l.29,3.91c1.01-2.14,3.07-4.45,6.76-4.45,1.26,0,2.18.21,3.02.55v3.15c-1.13-.5-2.1-.76-3.4-.76-3.74,0-6.34,2.81-6.34,5.75v12.85h-2.94v-21Z"/><path class="cls-8" d="m154.04,2623.21c0-6.22,3.32-11.05,10.38-11.05,6.59,0,10.25,4.83,10.25,11.05s-3.7,11.05-10.29,11.05c-7.27,0-10.33-4.83-10.33-11.05Zm17.56,0c0-5.33-2.9-8.49-7.23-8.49-4.75,0-7.27,3.15-7.27,8.49s2.56,8.49,7.27,8.49c4.33,0,7.23-3.15,7.23-8.49Z"/><path class="cls-8" d="m176.97,2612.75v-.04h2.98l5.75,17.48h.08l6.3-17.48h2.69l6.17,17.48h.08l5.75-17.48h2.86v.04l-7.18,20.96h-3.03l-5.96-17.05h-.08l-6.22,17.05h-3.02l-7.18-20.96Z"/><path class="cls-8" d="m222.45,2623.25c0-7.1,4.29-11.09,10.04-11.09,3.7,0,6.22,1.6,7.31,3.74h.04v-14.95h2.94v32.77h-1.97l-.67-3.61h-.08c-1.18,2.31-3.95,4.16-7.77,4.16-6.3,0-9.83-3.99-9.83-11.01Zm17.64-.5c0-5.5-3.36-8.07-7.35-8.07-3.11,0-7.14,1.47-7.14,8.4s3.61,8.61,7.14,8.61c4.24,0,7.35-2.73,7.35-8.95Z"/><path class="cls-8" d="m267.4,2624.22h-15.96c.17,4.79,2.48,7.48,6.93,7.48,3.82,0,5.67-1.43,5.96-4.83h2.98c-.29,4.24-3.28,7.39-9.03,7.39-7.06,0-9.83-4.66-9.83-10.88s3.23-11.22,10-11.22,8.95,3.99,8.95,10.21v1.85Zm-3.11-2.98c0-4.45-1.72-6.55-5.92-6.55s-6.55,2.65-6.89,6.97h12.81v-.42Z"/><path class="cls-8" d="m271.38,2627.28v-1.18h2.94v1.13c0,2.86,2.14,4.49,5.96,4.49s5.8-1.01,5.8-3.78c0-2.06-1.01-2.81-3.86-3.32l-4.62-.84c-3.02-.55-5.54-2.02-5.54-5.5,0-3.15,2.35-6.13,8.4-6.13s8.4,3.02,8.4,7.23v.88h-2.98v-.76c0-3.45-2.14-4.92-5.42-4.92-3.95,0-5.33,1.34-5.33,3.36s1.01,2.86,3.91,3.4l4.03.76c4.12.76,6.09,1.93,6.09,5.59,0,4.58-4.12,6.55-8.78,6.55-7.31,0-8.99-3.28-8.99-6.97Z"/><path class="cls-8" d="m293.35,2623.38c0-6.38,3.23-11.22,10-11.22s8.95,3.91,8.95,8.95v.42h-3.11v-.63c0-3.82-1.64-6.09-5.84-6.09-4.75,0-7.01,3.11-7.01,8.4,0,5.63,2.39,8.49,6.93,8.49,3.82,0,5.84-1.85,5.92-5.67h3.03c-.08,4.66-3.15,8.23-9.03,8.23-7.23,0-9.83-4.75-9.83-10.88Z"/><path class="cls-8" d="m335.44,2624.22h-15.96c.17,4.79,2.48,7.48,6.93,7.48,3.82,0,5.67-1.43,5.96-4.83h2.98c-.29,4.24-3.28,7.39-9.03,7.39-7.06,0-9.83-4.66-9.83-10.88s3.23-11.22,10-11.22,8.95,3.99,8.95,10.21v1.85Zm-3.11-2.98c0-4.45-1.72-6.55-5.92-6.55s-6.55,2.65-6.89,6.97h12.81v-.42Z"/><path class="cls-8" d="m341.31,2612.71h2.6l.29,3.49c1.01-2.14,3.28-4.03,7.35-4.03,4.75,0,7.77,2.52,7.77,7.94v13.61h-2.94v-13.27c0-4.33-2.14-5.71-5.5-5.71-3.82,0-6.64,2.69-6.64,5.63v13.36h-2.94v-21Z"/><path class="cls-8" d="m365,2623.25c0-7.1,4.29-11.09,10.04-11.09,3.7,0,6.22,1.6,7.31,3.74h.04v-14.95h2.94v32.77h-1.97l-.67-3.61h-.08c-1.18,2.31-3.95,4.16-7.77,4.16-6.3,0-9.83-3.99-9.83-11.01Zm17.64-.5c0-5.5-3.36-8.07-7.35-8.07-3.11,0-7.14,1.47-7.14,8.4s3.61,8.61,7.14,8.61c4.24,0,7.35-2.73,7.35-8.95Z"/><path class="cls-8" d="m409.95,2624.22h-15.96c.17,4.79,2.48,7.48,6.93,7.48,3.82,0,5.67-1.43,5.96-4.83h2.98c-.29,4.24-3.28,7.39-9.03,7.39-7.06,0-9.83-4.66-9.83-10.88s3.23-11.22,10-11.22,8.95,3.99,8.95,10.21v1.85Zm-3.11-2.98c0-4.45-1.72-6.55-5.92-6.55s-6.55,2.65-6.89,6.97h12.81v-.42Z"/><path class="cls-8" d="m415.82,2612.71h2.6l.29,3.91c1.01-2.14,3.07-4.45,6.76-4.45,1.26,0,2.18.21,3.02.55v3.15c-1.13-.5-2.1-.76-3.4-.76-3.74,0-6.34,2.81-6.34,5.75v12.85h-2.94v-21Z"/><path class="cls-8" d="m442.79,2600.95h2.94v32.77h-2.94v-32.77Z"/><path class="cls-8" d="m451.4,2623.21c0-6.22,3.32-11.05,10.38-11.05,6.6,0,10.25,4.83,10.25,11.05s-3.7,11.05-10.29,11.05c-7.27,0-10.33-4.83-10.33-11.05Zm17.56,0c0-5.33-2.9-8.49-7.23-8.49-4.75,0-7.27,3.15-7.27,8.49s2.56,8.49,7.27,8.49c4.33,0,7.23-3.15,7.23-8.49Z"/><path class="cls-8" d="m476.22,2623.21c0-6.22,3.32-11.05,10.38-11.05,6.59,0,10.25,4.83,10.25,11.05s-3.7,11.05-10.29,11.05c-7.27,0-10.33-4.83-10.33-11.05Zm17.56,0c0-5.33-2.9-8.49-7.23-8.49-4.75,0-7.27,3.15-7.27,8.49s2.56,8.49,7.27,8.49c4.33,0,7.23-3.15,7.23-8.49Z"/><path class="cls-8" d="m502.72,2612.71h2.39l.34,3.87h.08c1.13-2.48,4.03-4.41,7.86-4.41,6.3,0,9.66,3.99,9.66,11.01s-4.28,11.09-9.87,11.09c-3.78,0-6.39-1.6-7.44-3.7h-.08v11.55h-2.94v-29.41Zm17.18,10.63c0-7.18-3.4-8.61-6.93-8.61-4.24,0-7.56,2.73-7.56,8.44,0,6.01,3.44,8.57,7.43,8.57,3.03,0,7.06-1.47,7.06-8.4Z"/><path class="cls-8" d="m527.04,2627.28v-1.18h2.94v1.13c0,2.86,2.14,4.49,5.96,4.49s5.8-1.01,5.8-3.78c0-2.06-1.01-2.81-3.86-3.32l-4.62-.84c-3.02-.55-5.54-2.02-5.54-5.5,0-3.15,2.35-6.13,8.4-6.13s8.4,3.02,8.4,7.23v.88h-2.98v-.76c0-3.45-2.14-4.92-5.42-4.92-3.95,0-5.33,1.34-5.33,3.36s1.01,2.86,3.91,3.4l4.03.76c4.12.76,6.09,1.93,6.09,5.59,0,4.58-4.12,6.55-8.78,6.55-7.31,0-8.99-3.28-8.99-6.97Z"/><path class="cls-8" d="m190.16,2650.95h2.98v6.51h-2.98v-6.51Zm0,11.76h2.94v21h-2.94v-21Z"/><path class="cls-8" d="m200.49,2662.71h2.6l.29,3.49c1.01-2.14,3.28-4.03,7.35-4.03,4.75,0,7.77,2.52,7.77,7.94v13.61h-2.94v-13.27c0-4.33-2.14-5.71-5.5-5.71-3.82,0-6.64,2.69-6.64,5.63v13.36h-2.94v-21Z"/><path class="cls-8" d="m237.2,2661.41h-3.36v-5.08c0-3.95.88-5.29,3.4-5.96l.67,1.85c-1.76.67-2.06,1.09-2.06,3.78v.34h1.34v5.08Zm5.92,0h-3.36v-5.08c0-3.95.88-5.29,3.4-5.96l.67,1.85c-1.76.67-2.06,1.09-2.06,3.78v.34h1.34v5.08Z"/><path class="cls-8" d="m247.19,2685.52v-.13h3.11v.13c0,2.9,1.93,4.33,6.13,4.33,4.79,0,7.02-2.94,7.02-7.86v-2.1h-.08c-1.09,2.18-3.65,4.07-7.48,4.07-6.3,0-9.75-3.99-9.75-10.71,0-7.1,4.37-11.09,9.96-11.09,3.78,0,6.55,1.81,7.56,4.12h.13l.29-3.57h2.31v19.16c0,5.88-2.81,10.71-10.33,10.71-6.3,0-8.86-2.98-8.86-7.06Zm16.59-12.77c0-5.5-3.36-8.07-7.35-8.07-3.02,0-7.14,1.47-7.14,8.4s3.57,8.32,7.1,8.32c4.24,0,7.39-2.73,7.39-8.65Z"/><path class="cls-8" d="m271.01,2660.14c1.76-.67,2.06-1.09,2.06-3.78v-.34h-1.34v-5.08h3.36v5.08c0,3.95-.88,5.29-3.4,5.96l-.67-1.85Zm5.92,0c1.76-.67,2.06-1.09,2.06-3.78v-.34h-1.34v-5.08h3.36v5.08c0,3.95-.88,5.29-3.4,5.96l-.67-1.85Z"/><path class="cls-8" d="m283.94,2677.49h3.36v6.22c0,3.95-.88,5.29-3.4,5.96l-.67-1.85c1.76-.67,2.06-1.09,2.06-3.78v-.34h-1.34v-6.22Z"/><path class="cls-8" d="m304.94,2661.41h-3.36v-5.08c0-3.95.88-5.29,3.4-5.96l.67,1.85c-1.76.67-2.06,1.09-2.06,3.78v.34h1.34v5.08Zm5.92,0h-3.36v-5.08c0-3.95.88-5.29,3.4-5.96l.67,1.85c-1.76.67-2.06,1.09-2.06,3.78v.34h1.34v5.08Z"/><path class="cls-8" d="m320.19,2686.74c0,3.53-1.68,5.84-5.04,5.84-1.18,0-2.02-.13-2.94-.38v-2.6c.8.17,1.47.29,2.27.29,1.93,0,2.77-1.26,2.77-3.65v-23.52h2.94v24.03Zm-2.94-35.79h2.98v6.51h-2.98v-6.51Z"/><path class="cls-8" d="m325.69,2660.14c1.76-.67,2.06-1.09,2.06-3.78v-.34h-1.34v-5.08h3.36v5.08c0,3.95-.88,5.29-3.4,5.96l-.67-1.85Zm5.92,0c1.76-.67,2.06-1.09,2.06-3.78v-.34h-1.34v-5.08h3.36v5.08c0,3.95-.88,5.29-3.4,5.96l-.67-1.85Z"/><path class="cls-8" d="m338.63,2677.49h3.36v6.22c0,3.95-.88,5.29-3.4,5.96l-.67-1.85c1.76-.67,2.06-1.09,2.06-3.78v-.34h-1.34v-6.22Z"/><path class="cls-8" d="m359.63,2661.41h-3.36v-5.08c0-3.95.88-5.29,3.4-5.96l.67,1.85c-1.76.67-2.06,1.09-2.06,3.78v.34h1.34v5.08Zm5.92,0h-3.36v-5.08c0-3.95.88-5.29,3.4-5.96l.67,1.85c-1.76.67-2.06,1.09-2.06,3.78v.34h1.34v5.08Z"/><path class="cls-8" d="m372.14,2662.71l6.89,17.98h.08l7.14-17.98h3.07v.04l-8.86,20.84-3.11,8.53h-2.98v-.04l3.19-8.36-8.78-20.96v-.04h3.36Z"/><path class="cls-8" d="m391.63,2660.14c1.76-.67,2.06-1.09,2.06-3.78v-.34h-1.34v-5.08h3.36v5.08c0,3.95-.88,5.29-3.4,5.96l-.67-1.85Zm5.92,0c1.76-.67,2.06-1.09,2.06-3.78v-.34h-1.34v-5.08h3.36v5.08c0,3.95-.88,5.29-3.4,5.96l-.67-1.85Z"/><path class="cls-8" d="m415.91,2677.91c0-3.95,2.23-6.09,7.86-6.09h6.34v-1.72c0-2.98-1.26-5.42-5.46-5.42-3.95,0-5.33,1.51-5.33,4.12v.88h-2.98v-.84c0-5,4.2-6.68,8.32-6.68,5.8,0,8.4,2.86,8.4,8.44v13.11h-2.06l-.55-2.98h-.08c-1.26,1.89-3.7,3.53-7.35,3.53-4.92,0-7.1-2.31-7.1-6.34Zm14.2-1.85v-1.76h-7.02c-2.65,0-4.03.92-4.03,3.61,0,2.35,1.26,3.86,4.5,3.86,4.16,0,6.55-2.14,6.55-5.71Z"/><path class="cls-8" d="m440.39,2662.71h2.6l.29,3.49c1.01-2.14,3.28-4.03,7.35-4.03,4.75,0,7.77,2.52,7.77,7.94v13.61h-2.94v-13.27c0-4.33-2.14-5.71-5.5-5.71-3.82,0-6.64,2.69-6.64,5.63v13.36h-2.94v-21Z"/><path class="cls-8" d="m464.08,2673.25c0-7.1,4.29-11.09,10.04-11.09,3.7,0,6.22,1.6,7.31,3.74h.04v-14.95h2.94v32.77h-1.97l-.67-3.61h-.08c-1.18,2.31-3.95,4.16-7.77,4.16-6.3,0-9.83-3.99-9.83-11.01Zm17.64-.5c0-5.5-3.36-8.07-7.35-8.07-3.11,0-7.14,1.47-7.14,8.4s3.61,8.61,7.14,8.61c4.24,0,7.35-2.73,7.35-8.95Z"/><path class="cls-8" d="m503.1,2661.41h-3.36v-5.08c0-3.95.88-5.29,3.4-5.96l.67,1.85c-1.76.67-2.06,1.09-2.06,3.78v.34h1.34v5.08Zm5.92,0h-3.36v-5.08c0-3.95.88-5.29,3.4-5.96l.67,1.85c-1.76.67-2.06,1.09-2.06,3.78v.34h1.34v5.08Z"/><path class="cls-8" d="m513.09,2681.15l14.7-15.88h-14.58v-2.56h18.23v2.56l-14.7,15.84h14.66v2.6h-18.32v-2.56Z"/><path class="cls-8" d="m534.81,2660.14c1.76-.67,2.06-1.09,2.06-3.78v-.34h-1.34v-5.08h3.36v5.08c0,3.95-.88,5.29-3.4,5.96l-.67-1.85Zm5.92,0c1.76-.67,2.06-1.09,2.06-3.78v-.34h-1.34v-5.08h3.36v5.08c0,3.95-.88,5.29-3.4,5.96l-.67-1.85Z"/><path class="cls-9" d="m1114.87,2349.46c-25.72,40.25-40.95,77.3-40.95,123.68,0,32.61,9.82,53.43,31.82,53.43s34.18-22.78,34.18-64.03-.39-78.57-1.57-97.42l.07-8.54c.21-.31.42-.63.63-.95,0,0-12.61-4.34-24.18-6.16Zm-9.13,153.54c-4.32,0-8.25-9.43-8.25-29.86,0-28.23,6.45-52.69,18.36-77.49.36,18.08.5,40.95.5,66.88,0,28.28-5.5,40.46-10.61,40.46Z"/><path class="cls-9" d="m660.79,2349.31c-25.84,40.47-40.99,77.56-40.99,123.83,0,32.61,9.82,53.43,31.82,53.43s34.18-22.78,34.18-64.03-.39-78.57-1.57-97.42l.07-8.47c.25-.37.5-.75.75-1.13,0,0-12.7-4.8-24.25-6.2Zm-9.17,153.68c-4.32,0-8.25-9.43-8.25-29.86,0-28.17,6.43-52.59,18.36-77.43.36,18.07.5,40.92.5,66.82,0,28.28-5.5,40.46-10.61,40.46Z"/><path class="cls-8" d="m575.89,1690.46v-19.95h2.94v19.95c0,9.41,4.07,10.63,8.86,10.63s8.78-1.01,8.78-10.63v-19.95h2.94v19.62c0,11.64-5.33,13.69-11.76,13.69s-11.76-2.06-11.76-13.36Z"/><path class="cls-8" d="m607.18,1682.27h2.39l.34,3.86h.08c1.13-2.48,4.03-4.41,7.86-4.41,6.3,0,9.66,3.99,9.66,11.01s-4.29,11.09-9.87,11.09c-3.78,0-6.39-1.6-7.44-3.7h-.08v11.55h-2.94v-29.41Zm17.18,10.63c0-7.18-3.4-8.61-6.93-8.61-4.24,0-7.56,2.73-7.56,8.44,0,6.01,3.44,8.57,7.43,8.57,3.03,0,7.06-1.47,7.06-8.4Z"/><path class="cls-8" d="m633.38,1682.27h2.6l.29,3.91c1.01-2.14,3.07-4.45,6.76-4.45,1.26,0,2.19.21,3.03.55v3.15c-1.13-.5-2.1-.76-3.4-.76-3.74,0-6.34,2.81-6.34,5.75v12.85h-2.94v-21Z"/><path class="cls-8" d="m650.69,1670.5h2.98v6.51h-2.98v-6.51Zm0,11.76h2.94v21h-2.94v-21Z"/><path class="cls-8" d="m660.39,1705.08v-.13h3.11v.13c0,2.9,1.93,4.33,6.13,4.33,4.79,0,7.02-2.94,7.02-7.86v-2.1h-.08c-1.09,2.18-3.65,4.08-7.48,4.08-6.3,0-9.75-3.99-9.75-10.71,0-7.1,4.37-11.09,9.96-11.09,3.78,0,6.55,1.81,7.56,4.12h.12l.29-3.57h2.31v19.16c0,5.88-2.81,10.71-10.33,10.71-6.3,0-8.86-2.98-8.86-7.06Zm16.59-12.77c0-5.5-3.36-8.07-7.35-8.07-3.02,0-7.14,1.47-7.14,8.4s3.57,8.32,7.1,8.32c4.24,0,7.39-2.73,7.39-8.65Z"/><path class="cls-8" d="m686.93,1670.5h2.94v15.16c1.05-2.1,3.28-3.95,7.31-3.95,4.75,0,7.77,2.52,7.77,7.94v13.61h-2.94v-13.27c0-4.33-2.14-5.71-5.5-5.71-3.82,0-6.64,2.69-6.64,5.63v13.36h-2.94v-32.77Z"/><path class="cls-8" d="m723.27,1700.58v2.6c-.76.21-2.14.59-4.03.59-3.82,0-6.34-1.6-6.34-6.89v-12.18h-4.16v-2.44h4.16v-6.05l2.94-1.43v7.48h5.92v2.44h-5.92v11.8c0,2.81.76,4.58,3.4,4.58,1.6,0,3.23-.29,4.03-.5Z"/><polyline class="cls-5" points="901.47 2973.7 901.47 2754.29 1323.98 2754.29"/><line class="cls-5" x1="1234.42" y1="2768.48" x2="1234.42" y2="3018.69"/><path class="cls-8" d="m1345.97,2734.18h3.11l10.29,29.49h.08l10.17-29.49h3.11l-11.59,32.77h-3.57l-11.59-32.77Z"/><path class="cls-8" d="m1391.46,2757.45h-15.96c.17,4.79,2.48,7.48,6.93,7.48,3.82,0,5.67-1.43,5.96-4.83h2.98c-.29,4.24-3.28,7.39-9.03,7.39-7.06,0-9.83-4.66-9.83-10.88s3.23-11.21,10-11.21,8.95,3.99,8.95,10.21v1.85Zm-3.11-2.98c0-4.45-1.72-6.55-5.92-6.55s-6.55,2.65-6.89,6.97h12.81v-.42Z"/><path class="cls-8" d="m1397.34,2745.94h2.6l.29,3.91c1.01-2.14,3.07-4.45,6.76-4.45,1.26,0,2.18.21,3.02.54v3.15c-1.13-.5-2.1-.76-3.4-.76-3.74,0-6.34,2.81-6.34,5.76v12.85h-2.94v-21Z"/><path class="cls-8" d="m1414.85,2745.94l6.89,17.98h.08l7.14-17.98h3.07v.04l-8.86,20.84-3.11,8.53h-2.98v-.04l3.19-8.36-8.78-20.96v-.04h3.36Z"/><path class="cls-8" d="m1444,2760.52v-1.18h2.94v1.13c0,2.86,2.14,4.5,5.96,4.5s5.8-1.01,5.8-3.78c0-2.06-1.01-2.81-3.86-3.32l-4.62-.84c-3.02-.55-5.54-2.02-5.54-5.5,0-3.15,2.35-6.13,8.4-6.13s8.4,3.02,8.4,7.22v.88h-2.98v-.76c0-3.44-2.14-4.92-5.42-4.92-3.95,0-5.33,1.34-5.33,3.36s1.01,2.86,3.91,3.4l4.03.76c4.12.76,6.09,1.93,6.09,5.59,0,4.58-4.12,6.55-8.78,6.55-7.31,0-8.99-3.28-8.99-6.97Z"/><path class="cls-8" d="m1498.35,2753.34v13.61h-2.94v-13.27c0-4.33-2.14-5.71-4.75-5.71-3.82,0-6.18,2.69-6.18,5.63v13.36h-2.94v-13.27c0-4.33-1.85-5.71-4.83-5.71-3.61,0-6.13,2.69-6.13,5.63v13.36h-2.94v-21h2.6l.29,3.49c1.01-2.02,3.07-4.03,6.93-4.03,2.94,0,5.38,1.39,6.43,4.28,1.22-2.39,3.57-4.28,7.14-4.28,4.28,0,7.31,2.52,7.31,7.94Z"/><path class="cls-8" d="m1504.44,2761.15c0-3.95,2.23-6.09,7.86-6.09h6.34v-1.72c0-2.98-1.26-5.42-5.46-5.42-3.95,0-5.33,1.51-5.33,4.12v.88h-2.98v-.84c0-5,4.2-6.68,8.32-6.68,5.8,0,8.4,2.86,8.4,8.44v13.11h-2.06l-.55-2.98h-.08c-1.26,1.89-3.7,3.53-7.35,3.53-4.92,0-7.1-2.31-7.1-6.34Zm14.2-1.85v-1.76h-7.02c-2.65,0-4.03.92-4.03,3.61,0,2.35,1.26,3.87,4.5,3.87,4.16,0,6.55-2.14,6.55-5.71Z"/><path class="cls-8" d="m1528.92,2734.18h2.94v32.77h-2.94v-32.77Z"/><path class="cls-8" d="m1539.21,2734.18h2.94v32.77h-2.94v-32.77Z"/><path class="cls-8" d="m1559.16,2734.18h2.94v23.23l12.14-11.47h3.65v.04l-8.4,7.86,8.78,13.06v.04h-3.36l-7.39-11.21-5.42,5.04v6.17h-2.94v-32.77Z"/><path class="cls-8" d="m1583.31,2745.94h2.6l.29,3.49c1.01-2.14,3.28-4.03,7.35-4.03,4.75,0,7.77,2.52,7.77,7.94v13.61h-2.94v-13.27c0-4.33-2.14-5.71-5.5-5.71-3.82,0-6.64,2.69-6.64,5.63v13.36h-2.94v-21Z"/><path class="cls-8" d="m1607,2756.45c0-6.22,3.32-11.05,10.38-11.05,6.59,0,10.25,4.83,10.25,11.05s-3.7,11.05-10.29,11.05c-7.27,0-10.33-4.83-10.33-11.05Zm17.56,0c0-5.33-2.9-8.48-7.22-8.48-4.75,0-7.27,3.15-7.27,8.48s2.56,8.49,7.27,8.49c4.33,0,7.22-3.15,7.22-8.49Z"/><path class="cls-8" d="m1644.47,2764.26v2.6c-.76.21-2.14.59-4.03.59-3.82,0-6.34-1.6-6.34-6.89v-12.18h-4.16v-2.44h4.16v-6.05l2.94-1.43v7.48h5.92v2.44h-5.92v11.8c0,2.81.76,4.58,3.4,4.58,1.6,0,3.23-.29,4.03-.5Z"/><path class="cls-8" d="m1647.4,2760.52v-1.18h2.94v1.13c0,2.86,2.14,4.5,5.96,4.5s5.8-1.01,5.8-3.78c0-2.06-1.01-2.81-3.86-3.32l-4.62-.84c-3.02-.55-5.54-2.02-5.54-5.5,0-3.15,2.35-6.13,8.4-6.13s8.4,3.02,8.4,7.22v.88h-2.98v-.76c0-3.44-2.14-4.92-5.42-4.92-3.95,0-5.33,1.34-5.33,3.36s1.01,2.86,3.91,3.4l4.03.76c4.12.76,6.09,1.93,6.09,5.59,0,4.58-4.12,6.55-8.78,6.55-7.31,0-8.99-3.28-8.99-6.97Z"/><path class="cls-8" d="m1680.71,2734.18h2.98v6.51h-2.98v-6.51Zm0,11.76h2.94v21h-2.94v-21Z"/><path class="cls-8" d="m1691.04,2745.94h2.6l.29,3.49c1.01-2.14,3.28-4.03,7.35-4.03,4.75,0,7.77,2.52,7.77,7.94v13.61h-2.94v-13.27c0-4.33-2.14-5.71-5.5-5.71-3.82,0-6.64,2.69-6.64,5.63v13.36h-2.94v-21Z"/><path class="cls-8" d="m1351.01,2793.49h-3.36v-5.08c0-3.95.88-5.29,3.4-5.97l.67,1.85c-1.76.67-2.06,1.09-2.06,3.78v.34h1.34v5.08Zm5.92,0h-3.36v-5.08c0-3.95.88-5.29,3.4-5.97l.67,1.85c-1.76.67-2.06,1.09-2.06,3.78v.34h1.34v5.08Z"/><path class="cls-8" d="m1366.13,2812.31h-.08l-.76,3.49h-1.97v-32.77h2.94v15.25h.04c1.26-2.31,4.07-4.03,7.69-4.03,6.3,0,9.66,3.99,9.66,11.01s-4.28,11.09-9.87,11.09c-3.78,0-6.55-1.64-7.64-4.03Zm14.37-6.89c0-7.18-3.4-8.61-6.93-8.61-4.24,0-7.56,2.73-7.56,8.44,0,6.01,3.45,8.57,7.44,8.57,3.03,0,7.06-1.47,7.06-8.4Z"/><path class="cls-8" d="m1384.9,2792.23c1.76-.67,2.06-1.09,2.06-3.78v-.34h-1.34v-5.08h3.36v5.08c0,3.95-.88,5.29-3.4,5.96l-.67-1.85Zm5.92,0c1.76-.67,2.06-1.09,2.06-3.78v-.34h-1.34v-5.08h3.36v5.08c0,3.95-.88,5.29-3.4,5.96l-.67-1.85Z"/><path class="cls-8" d="m1397.84,2809.58h3.36v6.22c0,3.95-.88,5.29-3.4,5.96l-.67-1.85c1.77-.67,2.06-1.09,2.06-3.78v-.34h-1.34v-6.22Z"/><path class="cls-8" d="m1418.84,2793.49h-3.36v-5.08c0-3.95.88-5.29,3.4-5.97l.67,1.85c-1.76.67-2.06,1.09-2.06,3.78v.34h1.34v5.08Zm5.92,0h-3.36v-5.08c0-3.95.88-5.29,3.4-5.97l.67,1.85c-1.76.67-2.06,1.09-2.06,3.78v.34h1.34v5.08Z"/><path class="cls-8" d="m1427.79,2805.29c0-6.22,3.32-11.05,10.38-11.05,6.59,0,10.25,4.83,10.25,11.05s-3.7,11.05-10.29,11.05c-7.27,0-10.33-4.83-10.33-11.05Zm17.56,0c0-5.33-2.9-8.49-7.23-8.49-4.75,0-7.27,3.15-7.27,8.49s2.56,8.49,7.27,8.49c4.33,0,7.23-3.15,7.23-8.49Z"/><path class="cls-8" d="m1449.67,2792.23c1.76-.67,2.06-1.09,2.06-3.78v-.34h-1.34v-5.08h3.36v5.08c0,3.95-.88,5.29-3.4,5.96l-.67-1.85Zm5.92,0c1.76-.67,2.06-1.09,2.06-3.78v-.34h-1.34v-5.08h3.36v5.08c0,3.95-.88,5.29-3.4,5.96l-.67-1.85Z"/><path class="cls-8" d="m1462.6,2809.58h3.36v6.22c0,3.95-.88,5.29-3.4,5.96l-.67-1.85c1.76-.67,2.06-1.09,2.06-3.78v-.34h-1.34v-6.22Z"/><path class="cls-8" d="m1483.6,2793.49h-3.36v-5.08c0-3.95.88-5.29,3.4-5.97l.67,1.85c-1.76.67-2.06,1.09-2.06,3.78v.34h1.34v5.08Zm5.92,0h-3.36v-5.08c0-3.95.88-5.29,3.4-5.97l.67,1.85c-1.76.67-2.06,1.09-2.06,3.78v.34h1.34v5.08Z"/><path class="cls-8" d="m1495.91,2794.79h2.6l.29,3.91c1.01-2.14,3.07-4.45,6.76-4.45,1.26,0,2.18.21,3.02.55v3.15c-1.13-.5-2.1-.76-3.4-.76-3.74,0-6.34,2.81-6.34,5.75v12.85h-2.94v-21Z"/><path class="cls-8" d="m1511.32,2792.23c1.76-.67,2.06-1.09,2.06-3.78v-.34h-1.34v-5.08h3.36v5.08c0,3.95-.88,5.29-3.4,5.96l-.67-1.85Zm5.92,0c1.76-.67,2.06-1.09,2.06-3.78v-.34h-1.34v-5.08h3.36v5.08c0,3.95-.88,5.29-3.4,5.96l-.67-1.85Z"/><path class="cls-8" d="m1524.26,2809.58h3.36v6.22c0,3.95-.88,5.29-3.4,5.96l-.67-1.85c1.76-.67,2.06-1.09,2.06-3.78v-.34h-1.34v-6.22Z"/><path class="cls-8" d="m1545.26,2793.49h-3.36v-5.08c0-3.95.88-5.29,3.4-5.97l.67,1.85c-1.76.67-2.06,1.09-2.06,3.78v.34h1.34v5.08Zm5.92,0h-3.36v-5.08c0-3.95.88-5.29,3.4-5.97l.67,1.85c-1.76.67-2.06,1.09-2.06,3.78v.34h1.34v5.08Z"/><path class="cls-8" d="m1554.42,2794.83v-.04h3.36l7.35,17.98h.08l7.1-17.98h3.07v.04l-8.74,20.96h-3.02l-9.2-20.96Z"/><path class="cls-8" d="m1577.89,2792.23c1.76-.67,2.06-1.09,2.06-3.78v-.34h-1.34v-5.08h3.36v5.08c0,3.95-.88,5.29-3.4,5.96l-.67-1.85Zm5.92,0c1.76-.67,2.06-1.09,2.06-3.78v-.34h-1.34v-5.08h3.36v5.08c0,3.95-.88,5.29-3.4,5.96l-.67-1.85Z"/><path class="cls-8" d="m1602.17,2810c0-3.95,2.23-6.09,7.86-6.09h6.34v-1.72c0-2.98-1.26-5.42-5.46-5.42-3.95,0-5.33,1.51-5.33,4.12v.88h-2.98v-.84c0-5,4.2-6.68,8.32-6.68,5.8,0,8.4,2.86,8.4,8.44v13.11h-2.06l-.55-2.98h-.08c-1.26,1.89-3.7,3.53-7.35,3.53-4.92,0-7.1-2.31-7.1-6.34Zm14.2-1.85v-1.76h-7.01c-2.65,0-4.03.92-4.03,3.61,0,2.35,1.26,3.86,4.5,3.86,4.16,0,6.55-2.14,6.55-5.71Z"/><path class="cls-8" d="m1626.66,2794.79h2.6l.29,3.49c1.01-2.14,3.28-4.03,7.35-4.03,4.75,0,7.77,2.52,7.77,7.94v13.61h-2.94v-13.27c0-4.33-2.14-5.71-5.5-5.71-3.82,0-6.64,2.69-6.64,5.63v13.36h-2.94v-21Z"/><path class="cls-8" d="m1650.34,2805.33c0-7.1,4.28-11.09,10.04-11.09,3.7,0,6.22,1.6,7.31,3.74h.04v-14.95h2.94v32.77h-1.97l-.67-3.61h-.08c-1.18,2.31-3.95,4.16-7.77,4.16-6.3,0-9.83-3.99-9.83-11.01Zm17.64-.5c0-5.5-3.36-8.07-7.35-8.07-3.11,0-7.14,1.47-7.14,8.4s3.61,8.61,7.14,8.61c4.24,0,7.35-2.73,7.35-8.95Z"/><path class="cls-8" d="m1689.36,2793.49h-3.36v-5.08c0-3.95.88-5.29,3.4-5.97l.67,1.85c-1.76.67-2.06,1.09-2.06,3.78v.34h1.34v5.08Zm5.92,0h-3.36v-5.08c0-3.95.88-5.29,3.4-5.97l.67,1.85c-1.76.67-2.06,1.09-2.06,3.78v.34h1.34v5.08Z"/><path class="cls-8" d="m1698.94,2794.83v-.04h2.98l5.75,17.48h.08l6.3-17.48h2.69l6.17,17.48h.08l5.75-17.48h2.86v.04l-7.18,20.96h-3.02l-5.96-17.06h-.08l-6.22,17.06h-3.02l-7.18-20.96Z"/><path class="cls-8" d="m1734.55,2792.23c1.76-.67,2.06-1.09,2.06-3.78v-.34h-1.34v-5.08h3.36v5.08c0,3.95-.88,5.29-3.4,5.96l-.67-1.85Zm5.92,0c1.76-.67,2.06-1.09,2.06-3.78v-.34h-1.34v-5.08h3.36v5.08c0,3.95-.88,5.29-3.4,5.96l-.67-1.85Z"/><path class="cls-9" d="m961.18,3047.63c-6.26-1.23-13.1-.2-19.84,3.05-8.69,4.01-17.42,6.24-25.17,6.98-3.07-23.5-16.76-34.09-29.04-34.09s-20.82,8.64-20.82,23.57c0,16.54,10.83,27.33,26.58,31.83-.81,10.45-2.89,21.49-5.58,32.04,10.16,1.79,23.99.74,23.99.74,2.37-10.17,4.16-20.57,4.99-30.57,11.35-.72,23.53-3.78,35.26-9.3,2.69-1.26,5.06-1.32,6.93.27,0,0,3.28-9.15,2.69-24.53Z"/><path class="cls-9" d="m1264.96,3131.28c.33-6.76.41-13.66.24-20.66,6.94-.23,14.51-.71,22.48-1.53,0,0,6.1-13.06,8.05-24.63-11.5,1.57-22.44,2.36-32.17,2.64-2.63-20.77-9.03-37.6-31.12-37.6-15.32,0-27.11,12.57-27.11,27.11,0,12.06,6.06,29.27,36.2,33.3.27,9.99-.01,19.6-.77,28.68,0,0,11.99-.77,24.2-7.31Zm-2.18,1.5-33.89-56.18c0-2.36,1.18-3.53,3.54-3.53,4.82,0,6.54,4.57,7.52,12.84-9.1-1.93-11.05-5.72-11.05-9.31Z"/></g></svg>