<?xml version="1.0" encoding="UTF-8"?><svg xmlns="http://www.w3.org/2000/svg" xmlns:xlink="http://www.w3.org/1999/xlink" viewBox="0 0 1920 5180"><defs><style>.cls-1,.cls-2,.cls-3,.cls-4{fill:none;}.cls-5{clip-path:url(#clippath);}.cls-6{fill:#ebebeb;}.cls-7{fill:#fff;}.cls-8{fill:#171c32;}.cls-9{fill:#947fbb;}.cls-10{clip-path:url(#clippath-1);}.cls-11{clip-path:url(#clippath-4);}.cls-12{clip-path:url(#clippath-3);}.cls-13{clip-path:url(#clippath-2);}.cls-2{stroke:#fff;stroke-width:2px;}.cls-2,.cls-3,.cls-4{stroke-miterlimit:10;}.cls-3{stroke:#a797c9;stroke-dasharray:0 0 1.74 17.45;stroke-linecap:round;stroke-width:7px;}.cls-4{stroke:#57678b;stroke-width:3.5px;}</style><clipPath id="clippath"><rect class="cls-1" x="1262.11" y="4190.85" width="183.56" height="183.56" rx="91.78" ry="91.78"/></clipPath><clipPath id="clippath-1"><circle class="cls-1" cx="868.68" cy="2053.09" r="55.2"/></clipPath><clipPath id="clippath-2"><circle class="cls-1" cx="1441.52" cy="2398.73" r="171.77"/></clipPath><clipPath id="clippath-3"><circle class="cls-1" cx="1198.27" cy="3068.18" r="233.08"/></clipPath><clipPath id="clippath-4"><circle class="cls-1" cx="1105.46" cy="3576.23" r="184.51"/></clipPath></defs><g id="Background"><rect class="cls-8" y="0" width="1920" height="5180"/></g><g id="Horizontal_Guides"><line class="cls-4" x1=".27" y1="1707.26" x2="1919.73" y2="1707.26"/><line class="cls-4" x1=".27" y1="2029.14" x2="1919.73" y2="2029.14"/><line class="cls-4" x1="1919.73" y1="2216.02" x2=".27" y2="2216.02"/><line class="cls-4" x1=".27" y1="2546.6" x2="1919.73" y2="2546.6"/><line class="cls-4" x1=".27" y1="2898.63" x2="1919.73" y2="2898.63"/><line class="cls-4" x1=".27" y1="3220.51" x2="1919.73" y2="3220.51"/><line class="cls-4" x1="1919.73" y1="3407.39" x2=".27" y2="3407.39"/><line class="cls-4" x1=".27" y1="3737.96" x2="1919.73" y2="3737.96"/></g><g id="info"><path class="cls-6" d="m640.82,1536.49c0-17.3,3.35-24.98,12.9-24.98,6.88,0,10.54,4.28,10.54,15.19v2.29h-4.22v-2.17c0-8.37-2.11-11.41-6.39-11.41-6.7,0-8.31,6.76-8.31,21.08s1.74,21.08,8.43,21.08c4.28,0,6.26-2.73,6.26-11.22v-2.73h4.22v2.73c0,10.85-3.6,15.13-10.6,15.13-9.49,0-12.83-7.07-12.83-24.98Z"/><path class="cls-6" d="m670.15,1548.02v-35.71h4.34v36.33c0,6.08,1.8,8.93,6.2,8.93s6.08-2.85,6.08-8.93v-36.33h4.34v35.28c0,9.67-3.22,13.89-10.48,13.89s-10.48-3.72-10.48-13.45Z"/><path class="cls-6" d="m698.24,1512.31h9.3c8.37,0,13.21,3.97,13.21,13.08,0,4.84-1.8,10.97-7.56,13.21l8.8,22.01v.06h-4.65l-8.12-21.26h-6.57v21.26h-4.4v-48.36Zm9.49,23.37c6.45,0,8.56-4.09,8.56-10.35,0-6.63-3.04-9.18-8.49-9.18h-5.15v19.53h5.08Z"/><path class="cls-6" d="m724.46,1546.78v-2.6h4.34v2.54c0,4.65,0,10.85,7.13,10.85,4.59,0,6.88-2.42,6.88-8.43,0-6.82-2.54-8.87-5.21-10.04l-4.59-2.05c-4.9-2.17-7.75-6.45-7.75-13.39,0-5.95,2.29-12.15,10.91-12.15,10.35,0,10.6,9.55,10.6,15v2.6h-4.34v-2.23c0-8.25-.87-11.47-6.32-11.47-4.9,0-6.38,3.1-6.38,8.74,0,6.2,2.85,8.06,5.58,9.36l4.28,2.05c3.29,1.55,7.56,4.22,7.56,13.14,0,7.75-3.22,12.77-11.22,12.77-11.16,0-11.47-9.18-11.47-14.69Z"/><path class="cls-6" d="m753.04,1512.31h4.34v48.36h-4.34v-48.36Z"/><path class="cls-6" d="m761.72,1512.31h4.4l8.37,43.27h.12l8.12-43.27h4.46l-9.98,48.36h-5.46l-10.04-48.36Z"/><path class="cls-6" d="m791.54,1512.31h16.68v3.91h-12.34v18.17h9.49v4.03h-9.49v18.35h12.34v3.91h-16.68v-48.36Z"/><path class="cls-6" d="m824.03,1512.31h7.32c10.35,0,15.5,6.26,15.5,24.18s-5.15,24.18-15.5,24.18h-7.32v-48.36Zm7.25,44.51c7.81,0,11.04-5.02,11.04-20.33s-3.1-20.33-10.91-20.33h-3.04v40.67h2.91Z"/><path class="cls-6" d="m852.74,1548.02v-35.71h4.34v36.33c0,6.08,1.8,8.93,6.2,8.93s6.08-2.85,6.08-8.93v-36.33h4.34v35.28c0,9.67-3.22,13.89-10.48,13.89s-10.48-3.72-10.48-13.45Z"/><path class="cls-6" d="m880.83,1512.31h5.39l9.86,31.31h.12l9.86-31.31h5.39v48.36h-4.09v-40.61h-.06l-9.61,30.44h-3.1l-9.61-30.44h-.06v40.61h-4.09v-48.36Z"/><path class="cls-6" d="m917.65,1536.49c0-17.3,3.35-24.98,12.52-24.98s12.15,8.18,12.15,24.98c0,18.41-3.41,24.98-12.34,24.98s-12.34-6.51-12.34-24.98Zm20.15,0c0-14.32-1.49-20.95-7.81-20.95s-7.81,6.63-7.81,20.95,1.49,21.14,7.81,21.14,7.81-6.32,7.81-21.14Z"/><path class="cls-6" d="m948.53,1512.31h5.58l14.01,39.86h.12v-39.86h4.09v48.36h-5.08l-14.51-41.04h-.12v41.04h-4.09v-48.36Z"/><path class="cls-6" d="m986.84,1516.16h-10.17v-3.84h24.67v3.84h-10.17v44.51h-4.34v-44.51Z"/><path class="cls-6" d="m1016.23,1512.31h16.68v3.91h-12.34v18.17h9.49v4.03h-9.49v18.35h12.34v3.91h-16.68v-48.36Z"/><path class="cls-6" d="m1038.18,1512.31h4.34v44.51h14.07v3.84h-18.41v-48.36Z"/><path class="cls-6" d="m1060.94,1512.31h16.68v3.91h-12.34v18.17h9.49v4.03h-9.49v18.35h12.34v3.91h-16.68v-48.36Z"/><path class="cls-6" d="m1082.88,1512.31h5.39l9.86,31.31h.12l9.86-31.31h5.39v48.36h-4.09v-40.61h-.06l-9.61,30.44h-3.1l-9.61-30.44h-.06v40.61h-4.09v-48.36Z"/><path class="cls-6" d="m1120.95,1512.31h16.68v3.91h-12.34v18.17h9.49v4.03h-9.49v18.35h12.34v3.91h-16.68v-48.36Z"/><path class="cls-6" d="m1142.9,1512.31h5.58l14.01,39.86h.12v-39.86h4.09v48.36h-5.08l-14.51-41.04h-.12v41.04h-4.09v-48.36Z"/><path class="cls-6" d="m1181.21,1516.16h-10.17v-3.84h24.67v3.84h-10.17v44.51h-4.34v-44.51Z"/><path class="cls-6" d="m1211.16,1543.93h-10.54l-3.22,16.74h-4.46l10.29-48.36h5.39l10.29,48.36h-4.4l-3.35-16.74Zm-.68-3.72l-4.65-23.31h-.06l-4.46,23.31h9.18Z"/><path class="cls-6" d="m1223.25,1512.31h4.34v48.36h-4.34v-48.36Z"/><path class="cls-6" d="m1235.03,1512.31h9.3c8.37,0,13.21,3.97,13.21,13.08,0,4.84-1.8,10.97-7.56,13.21l8.8,22.01v.06h-4.65l-8.12-21.26h-6.57v21.26h-4.4v-48.36Zm9.49,23.37c6.45,0,8.56-4.09,8.56-10.35,0-6.63-3.04-9.18-8.49-9.18h-5.15v19.53h5.08Z"/><path class="cls-6" d="m1263.43,1512.31h16.68v3.91h-12.34v18.17h9.49v4.03h-9.49v18.35h12.34v3.91h-16.68v-48.36Z"/><rect class="cls-2" x="615.31" y="1480.23" width="689.39" height="118.22"/><path class="cls-6" d="m646.31,167.01c0-17.3,3.35-24.98,12.9-24.98,6.88,0,10.54,4.28,10.54,15.19v2.29h-4.22v-2.17c0-8.37-2.11-11.41-6.39-11.41-6.7,0-8.31,6.76-8.31,21.08s1.74,21.08,8.43,21.08c4.28,0,6.26-2.73,6.26-11.22v-2.73h4.22v2.73c0,10.85-3.6,15.13-10.6,15.13-9.49,0-12.83-7.07-12.83-24.98Z"/><path class="cls-6" d="m675.64,178.54v-35.71h4.34v36.33c0,6.08,1.8,8.93,6.2,8.93s6.08-2.85,6.08-8.93v-36.33h4.34v35.28c0,9.67-3.22,13.89-10.48,13.89s-10.48-3.72-10.48-13.45Z"/><path class="cls-6" d="m703.72,142.83h9.3c8.37,0,13.21,3.97,13.21,13.08,0,4.84-1.8,10.97-7.56,13.21l8.8,22.01v.06h-4.65l-8.12-21.26h-6.57v21.26h-4.4v-48.36Zm9.49,23.37c6.45,0,8.56-4.09,8.56-10.35,0-6.63-3.04-9.18-8.49-9.18h-5.15v19.53h5.08Z"/><path class="cls-6" d="m729.95,177.3v-2.6h4.34v2.54c0,4.65,0,10.85,7.13,10.85,4.59,0,6.88-2.42,6.88-8.43,0-6.82-2.54-8.87-5.21-10.04l-4.59-2.05c-4.9-2.17-7.75-6.45-7.75-13.39,0-5.95,2.29-12.15,10.91-12.15,10.35,0,10.6,9.55,10.6,15v2.6h-4.34v-2.23c0-8.25-.87-11.47-6.32-11.47-4.9,0-6.38,3.1-6.38,8.74,0,6.2,2.85,8.06,5.58,9.36l4.28,2.05c3.29,1.55,7.56,4.22,7.56,13.14,0,7.75-3.22,12.77-11.22,12.77-11.16,0-11.47-9.18-11.47-14.69Z"/><path class="cls-6" d="m758.53,142.83h4.34v48.36h-4.34v-48.36Z"/><path class="cls-6" d="m767.21,142.83h4.4l8.37,43.27h.12l8.12-43.27h4.46l-9.98,48.36h-5.46l-10.04-48.36Z"/><path class="cls-6" d="m797.03,142.83h16.68v3.91h-12.34v18.17h9.49v4.03h-9.49v18.35h12.34v3.91h-16.68v-48.36Z"/><path class="cls-6" d="m829.52,142.83h7.32c10.35,0,15.5,6.26,15.5,24.18s-5.15,24.18-15.5,24.18h-7.32v-48.36Zm7.25,44.51c7.81,0,11.04-5.02,11.04-20.33s-3.1-20.33-10.91-20.33h-3.04v40.67h2.91Z"/><path class="cls-6" d="m858.23,178.54v-35.71h4.34v36.33c0,6.08,1.8,8.93,6.2,8.93s6.08-2.85,6.08-8.93v-36.33h4.34v35.28c0,9.67-3.22,13.89-10.48,13.89s-10.48-3.72-10.48-13.45Z"/><path class="cls-6" d="m886.31,142.83h5.39l9.86,31.31h.12l9.86-31.31h5.39v48.36h-4.09v-40.61h-.06l-9.61,30.44h-3.1l-9.61-30.44h-.06v40.61h-4.09v-48.36Z"/><path class="cls-6" d="m923.14,167.01c0-17.3,3.35-24.98,12.52-24.98s12.15,8.18,12.15,24.98c0,18.41-3.41,24.98-12.34,24.98s-12.34-6.51-12.34-24.98Zm20.15,0c0-14.32-1.49-20.95-7.81-20.95s-7.81,6.63-7.81,20.95,1.49,21.14,7.81,21.14,7.81-6.32,7.81-21.14Z"/><path class="cls-6" d="m954.02,142.83h5.58l14.01,39.86h.12v-39.86h4.09v48.36h-5.08l-14.51-41.04h-.12v41.04h-4.09v-48.36Z"/><path class="cls-6" d="m992.33,146.67h-10.17v-3.84h24.67v3.84h-10.17v44.51h-4.34v-44.51Z"/><path class="cls-6" d="m1021.72,142.83h5.39l9.86,31.31h.12l9.86-31.31h5.39v48.36h-4.09v-40.61h-.06l-9.61,30.44h-3.1l-9.61-30.44h-.06v40.61h-4.09v-48.36Z"/><path class="cls-6" d="m1074.92,174.45h-10.54l-3.22,16.74h-4.46l10.29-48.36h5.39l10.29,48.36h-4.4l-3.35-16.74Zm-.68-3.72l-4.65-23.31h-.06l-4.46,23.31h9.18Z"/><path class="cls-6" d="m1090.04,146.67h-10.17v-3.84h24.67v3.84h-10.17v44.51h-4.34v-44.51Z"/><path class="cls-6" d="m1108.89,142.83h16.68v3.91h-12.34v18.17h9.49v4.03h-9.49v18.35h12.34v3.91h-16.68v-48.36Z"/><path class="cls-6" d="m1130.84,142.83h9.3c8.37,0,13.21,3.97,13.21,13.08,0,4.84-1.8,10.97-7.56,13.21l8.8,22.01v.06h-4.65l-8.12-21.26h-6.57v21.26h-4.4v-48.36Zm9.49,23.37c6.45,0,8.56-4.09,8.56-10.35,0-6.63-3.04-9.18-8.49-9.18h-5.15v19.53h5.08Z"/><path class="cls-6" d="m1159.24,142.83h5.58l14.01,39.86h.12v-39.86h4.09v48.36h-5.08l-14.51-41.04h-.12v41.04h-4.09v-48.36Z"/><path class="cls-6" d="m1190.48,142.83h16.68v3.91h-12.34v18.17h9.49v4.03h-9.49v18.35h12.34v3.91h-16.68v-48.36Z"/><path class="cls-6" d="m1212.43,142.83h4.34v44.51h14.07v3.84h-18.41v-48.36Z"/><path class="cls-6" d="m1235.19,142.83h4.34v44.51h14.07v3.84h-18.41v-48.36Z"/><path class="cls-6" d="m1257.94,142.83h16.68v3.91h-12.34v18.17h9.49v4.03h-9.49v18.35h12.34v3.91h-16.68v-48.36Z"/><rect class="cls-2" x="610.81" y="110.74" width="698.39" height="118.22"/></g><g id="words"><circle class="cls-9" cx="1105.46" cy="3576.23" r="184.51"/><circle class="cls-9" cx="1198.27" cy="3068.18" r="233.08"/><circle class="cls-9" cx="1441.52" cy="2398.73" r="171.77"/><line class="cls-4" x1=".54" y1="341" x2="1920" y2="341"/><line class="cls-4" x1=".54" y1="662.88" x2="1920" y2="662.88"/><line class="cls-4" x1="1920" y1="849.76" x2=".54" y2="849.76"/><line class="cls-4" x1=".54" y1="1180.34" x2="1920" y2="1180.34"/><path class="cls-7" d="m198.9,1286.29h8.61c7.94,0,11.64,2.73,11.64,9.62,0,6.43-2.77,10.12-11.13,10.12h-6.13v13.02h-2.98v-32.77Zm9.28,17.22c6.09,0,7.94-2.69,7.94-7.65,0-5.21-2.6-6.97-8.44-6.97h-5.8v14.62h6.3Z"/><path class="cls-7" d="m223.76,1298.05h2.6l.29,3.91c1.01-2.14,3.07-4.45,6.76-4.45,1.26,0,2.18.21,3.02.55v3.15c-1.13-.5-2.1-.76-3.4-.76-3.74,0-6.34,2.81-6.34,5.75v12.85h-2.94v-21Z"/><path class="cls-7" d="m241.07,1286.29h2.98v6.51h-2.98v-6.51Zm0,11.76h2.94v21h-2.94v-21Z"/><path class="cls-7" d="m251.4,1298.05h2.6l.29,3.49c1.01-2.14,3.28-4.03,7.35-4.03,4.75,0,7.77,2.52,7.77,7.94v13.61h-2.94v-13.27c0-4.33-2.14-5.71-5.5-5.71-3.82,0-6.64,2.69-6.64,5.63v13.36h-2.94v-21Z"/><path class="cls-7" d="m287.73,1316.36v2.6c-.76.21-2.14.59-4.03.59-3.82,0-6.34-1.6-6.34-6.89v-12.18h-4.16v-2.44h4.16v-6.05l2.94-1.43v7.48h5.92v2.44h-5.92v11.8c0,2.82.76,4.58,3.4,4.58,1.6,0,3.23-.29,4.03-.5Z"/><path class="cls-7" d="m300.33,1312.63v-1.18h2.94v1.13c0,2.86,2.14,4.49,5.96,4.49s5.8-1.01,5.8-3.78c0-2.06-1.01-2.81-3.86-3.32l-4.62-.84c-3.02-.55-5.54-2.02-5.54-5.5,0-3.15,2.35-6.13,8.4-6.13s8.4,3.02,8.4,7.23v.88h-2.98v-.76c0-3.45-2.14-4.92-5.42-4.92-3.95,0-5.33,1.34-5.33,3.36s1.01,2.86,3.91,3.4l4.03.76c4.12.76,6.09,1.93,6.09,5.59,0,4.58-4.12,6.55-8.78,6.55-7.31,0-8.99-3.28-8.99-6.97Z"/><path class="cls-7" d="m334.94,1316.36v2.6c-.76.21-2.14.59-4.03.59-3.82,0-6.34-1.6-6.34-6.89v-12.18h-4.16v-2.44h4.16v-6.05l2.94-1.43v7.48h5.92v2.44h-5.92v11.8c0,2.82.76,4.58,3.4,4.58,1.6,0,3.23-.29,4.03-.5Z"/><path class="cls-7" d="m339.98,1298.05l6.89,17.98h.08l7.14-17.98h3.07v.04l-8.86,20.84-3.11,8.53h-2.98v-.04l3.19-8.36-8.78-20.96v-.04h3.36Z"/><path class="cls-7" d="m361.35,1286.29h2.94v32.77h-2.94v-32.77Z"/><path class="cls-7" d="m388.91,1309.56h-15.96c.17,4.79,2.48,7.48,6.93,7.48,3.82,0,5.67-1.43,5.97-4.83h2.98c-.29,4.24-3.28,7.39-9.03,7.39-7.06,0-9.83-4.66-9.83-10.88s3.23-11.22,10-11.22,8.95,3.99,8.95,10.21v1.85Zm-3.11-2.98c0-4.45-1.72-6.55-5.92-6.55s-6.55,2.65-6.89,6.97h12.81v-.42Z"/><path class="cls-7" d="m404.03,1311.66v-13.61h2.94v13.27c0,4.33,2.14,5.71,5.42,5.71,3.74,0,6.55-2.69,6.55-5.63v-13.36h2.94v21h-2.6l-.25-3.36h-.08c-.97,2.02-3.23,3.91-7.23,3.91-4.66,0-7.69-2.52-7.69-7.94Z"/><path class="cls-7" d="m429.23,1298.05h2.39l.34,3.87h.08c1.13-2.48,4.03-4.41,7.86-4.41,6.3,0,9.66,3.99,9.66,11.01s-4.29,11.09-9.87,11.09c-3.78,0-6.38-1.6-7.43-3.7h-.08v11.55h-2.94v-29.41Zm17.18,10.63c0-7.18-3.4-8.61-6.93-8.61-4.24,0-7.56,2.73-7.56,8.44,0,6.01,3.45,8.57,7.44,8.57,3.02,0,7.06-1.47,7.06-8.4Z"/><path class="cls-7" d="m455.43,1298.05h2.39l.34,3.87h.08c1.13-2.48,4.03-4.41,7.86-4.41,6.3,0,9.66,3.99,9.66,11.01s-4.29,11.09-9.87,11.09c-3.78,0-6.38-1.6-7.43-3.7h-.08v11.55h-2.94v-29.41Zm17.18,10.63c0-7.18-3.4-8.61-6.93-8.61-4.24,0-7.56,2.73-7.56,8.44,0,6.01,3.45,8.57,7.44,8.57,3.02,0,7.06-1.47,7.06-8.4Z"/><path class="cls-7" d="m498.91,1309.56h-15.96c.17,4.79,2.48,7.48,6.93,7.48,3.82,0,5.67-1.43,5.97-4.83h2.98c-.29,4.24-3.28,7.39-9.03,7.39-7.06,0-9.83-4.66-9.83-10.88s3.23-11.22,10-11.22,8.95,3.99,8.95,10.21v1.85Zm-3.11-2.98c0-4.45-1.72-6.55-5.92-6.55s-6.55,2.65-6.89,6.97h12.81v-.42Z"/><path class="cls-7" d="m504.78,1298.05h2.6l.29,3.91c1.01-2.14,3.07-4.45,6.76-4.45,1.26,0,2.18.21,3.02.55v3.15c-1.13-.5-2.1-.76-3.4-.76-3.74,0-6.34,2.81-6.34,5.75v12.85h-2.94v-21Z"/><path class="cls-7" d="m519.78,1308.72c0-6.38,3.23-11.22,10-11.22s8.95,3.91,8.95,8.95v.42h-3.11v-.63c0-3.82-1.64-6.09-5.84-6.09-4.75,0-7.02,3.11-7.02,8.4,0,5.63,2.39,8.49,6.93,8.49,3.82,0,5.84-1.85,5.92-5.67h3.02c-.08,4.66-3.15,8.23-9.03,8.23-7.22,0-9.83-4.75-9.83-10.88Z"/><path class="cls-7" d="m543.13,1313.26c0-3.95,2.23-6.09,7.86-6.09h6.34v-1.72c0-2.98-1.26-5.42-5.46-5.42-3.95,0-5.33,1.51-5.33,4.12v.88h-2.98v-.84c0-5,4.2-6.68,8.32-6.68,5.8,0,8.4,2.86,8.4,8.44v13.11h-2.06l-.55-2.98h-.08c-1.26,1.89-3.7,3.53-7.35,3.53-4.92,0-7.1-2.31-7.1-6.34Zm14.2-1.85v-1.76h-7.01c-2.65,0-4.03.92-4.03,3.61,0,2.35,1.26,3.86,4.5,3.86,4.16,0,6.55-2.14,6.55-5.71Z"/><path class="cls-7" d="m565.73,1312.63v-1.18h2.94v1.13c0,2.86,2.14,4.49,5.96,4.49s5.8-1.01,5.8-3.78c0-2.06-1.01-2.81-3.86-3.32l-4.62-.84c-3.02-.55-5.54-2.02-5.54-5.5,0-3.15,2.35-6.13,8.4-6.13s8.4,3.02,8.4,7.23v.88h-2.98v-.76c0-3.45-2.14-4.92-5.42-4.92-3.95,0-5.33,1.34-5.33,3.36s1.01,2.86,3.91,3.4l4.03.76c4.12.76,6.09,1.93,6.09,5.59,0,4.58-4.12,6.55-8.78,6.55-7.31,0-8.99-3.28-8.99-6.97Z"/><path class="cls-7" d="m606.64,1309.56h-15.96c.17,4.79,2.48,7.48,6.93,7.48,3.82,0,5.67-1.43,5.97-4.83h2.98c-.29,4.24-3.28,7.39-9.03,7.39-7.06,0-9.83-4.66-9.83-10.88s3.23-11.22,10-11.22,8.95,3.99,8.95,10.21v1.85Zm-3.11-2.98c0-4.45-1.72-6.55-5.92-6.55s-6.55,2.65-6.89,6.97h12.81v-.42Z"/><path class="cls-7" d="m622.17,1286.29h2.94v32.77h-2.94v-32.77Z"/><path class="cls-7" d="m649.73,1309.56h-15.96c.17,4.79,2.48,7.48,6.93,7.48,3.82,0,5.67-1.43,5.97-4.83h2.98c-.29,4.24-3.28,7.39-9.03,7.39-7.06,0-9.83-4.66-9.83-10.88s3.23-11.22,10-11.22,8.95,3.99,8.95,10.21v1.85Zm-3.11-2.98c0-4.45-1.72-6.55-5.92-6.55s-6.55,2.65-6.89,6.97h12.81v-.42Z"/><path class="cls-7" d="m656.19,1312.67v-12.18h-4.16v-2.44h4.16v-6.05l2.94-1.43v7.48h11.85v-6.05l2.94-1.43v7.48h5.92v2.44h-5.92v11.8c0,2.82.76,4.58,3.4,4.58,1.6,0,3.24-.29,4.03-.5v2.6c-.76.21-2.14.59-4.03.59-3.82,0-6.34-1.6-6.34-6.89v-12.18h-11.85v11.8c0,2.82.76,4.58,3.4,4.58,1.6,0,3.23-.29,4.03-.5v2.6c-.76.21-2.14.59-4.03.59-3.82,0-6.34-1.6-6.34-6.89Z"/><path class="cls-7" d="m702.82,1309.56h-15.96c.17,4.79,2.48,7.48,6.93,7.48,3.82,0,5.67-1.43,5.97-4.83h2.98c-.29,4.24-3.28,7.39-9.03,7.39-7.06,0-9.83-4.66-9.83-10.88s3.23-11.22,10-11.22,8.95,3.99,8.95,10.21v1.85Zm-3.11-2.98c0-4.45-1.72-6.55-5.92-6.55s-6.55,2.65-6.89,6.97h12.81v-.42Z"/><path class="cls-7" d="m708.69,1298.05h2.6l.29,3.91c1.01-2.14,3.07-4.45,6.76-4.45,1.26,0,2.18.21,3.02.55v3.15c-1.13-.5-2.1-.76-3.4-.76-3.74,0-6.34,2.81-6.34,5.75v12.85h-2.94v-21Z"/><path class="cls-7" d="m723.9,1312.63v-1.18h2.94v1.13c0,2.86,2.14,4.49,5.96,4.49s5.8-1.01,5.8-3.78c0-2.06-1.01-2.81-3.86-3.32l-4.62-.84c-3.02-.55-5.54-2.02-5.54-5.5,0-3.15,2.35-6.13,8.4-6.13s8.4,3.02,8.4,7.23v.88h-2.98v-.76c0-3.45-2.14-4.92-5.42-4.92-3.95,0-5.33,1.34-5.33,3.36s1.01,2.86,3.91,3.4l4.03.76c4.12.76,6.09,1.93,6.09,5.59,0,4.58-4.12,6.55-8.78,6.55-7.31,0-8.99-3.28-8.99-6.97Z"/><line class="cls-3" x1="447.63" y1="868.76" x2="447.63" y2="1255.33"/><path class="cls-9" d="m670.53,793.05c3.96-5.65,10.18-5.65,16.96-1.13h-.57c7.35,5.09,9.05,10.74,4.52,16.4-16.4,23.18-36.19,40.14-66.15,40.14h-242.56c-7.35,0-10.74-3.39-10.74-10.74v-486.26c0-7.35,5.09-10.74,13.01-10.74s13,3.39,13,10.74v470.99h227.3c19.22,0,33.36-11.31,45.23-29.4Z"/><path class="cls-7" d="m748.55,666.96c42.4,0,75.2,33.36,75.2,91.03s-33.36,90.47-75.2,90.47c-19.79,0-37.32-8.48-52.58-23.75-14.7-16.4-22.05-38.45-22.05-66.72,0-57.67,32.23-91.03,74.63-91.03Zm49.19,91.03c0-42.41-22.05-65.02-49.19-65.02s-48.63,22.62-48.63,65.02,23.18,64.46,48.63,64.46c28.84,0,49.19-26.01,49.19-64.46Z"/><path class="cls-7" d="m874.07,710.5c-10.18,5.65-22.05,7.92-36.75,7.92-31.1,0-54.28-8.48-68.42-26.01-1.7-11.87,3.96-17.53,20.36-17.53,9.05,11.31,24.88,17.53,48.06,17.53,19.22,0,32.23-6.22,37.32-18.66,2.83-6.22,6.79-9.05,13.01-9.05,7.91,0,13,3.39,13,11.31v103.47c0,26.01,22.62,42.41,46.93,42.41,30.53,0,44.1-14.7,44.1-42.41v-103.47c0-7.92,5.09-11.31,13.57-11.31,7.92,0,13,3.39,13,11.31v103.47c0,25.44,11.88,42.41,31.66,42.41,7.92,0,11.31,5.09,11.31,13.57,0,7.92-3.39,13-11.31,13-21.49-.57-36.75-9.05-45.8-22.62-11.87,14.7-29.97,22.62-56.54,22.62-19.79,0-37.32-6.79-52.02-18.66-14.13-12.44-21.48-29.97-21.48-50.32v-68.98Z"/><path class="cls-7" d="m1189.57,674.31c9.05-6.79,19.79-9.61,31.66-9.61,18.09,0,31.66,6.22,42.97,18.66,10.74,12.44,16.96,35.62,18.09,71.24,2.83,46.37,11.87,67.29,36.19,67.29,7.92,0,11.31,5.09,11.31,13.57,0,7.92-3.39,13-11.31,13-40.14,0-59.37-28.84-62.76-93.29-1.13-27.71-3.96-45.23-10.74-53.15-6.22-6.79-13.57-10.74-23.75-10.74-20.35,0-31.1,15.27-31.66,42.41v434.8c0,7.35-5.09,10.74-13.57,10.74-7.92,0-13-3.39-13-10.74v-415.01c-5.65,10.18-10.74,19.79-18.09,32.23-12.44,22.05-25.44,37.88-37.88,48.06-12.44,9.05-26.57,14.14-43.54,14.7-7.92,0-10.74-5.09-10.74-13,0-8.48,2.83-13.57,10.74-13.57,21.49-.57,35.06-11.87,51.45-38.45,18.09-27.71,39.01-65.02,48.06-108.56,1.13-6.79,6.22-10.18,13-10.18,7.35,0,12.44,2.83,13.57,9.61Z"/><path class="cls-7" d="m1406.12,830.93c-23.75,13.57-52.02,16.96-74.63,17.53-7.35,0-10.74-5.09-10.74-13,0-8.48,3.39-13.01,10.74-13.01,17.53-.56,40.14-3.39,55.98-11.31-11.87-18.09-19.22-40.14-19.22-61.63,0-11.87,1.7-23.18,5.09-35.62,10.18-30.53,29.4-46.36,57.67-46.93,32.79,1.13,48.62,19.22,47.49,55.41-1.7,23.18-8.48,44.67-20.36,61.06-9.61,13.57-19.22,23.75-28.27,31.66,8.48,5.09,20.92,7.35,31.1,7.35,26.01,0,46.36-9.61,65.02-33.36,3.96-5.65,10.74-5.65,16.96-.56,6.22,4.52,6.79,11.31,3.39,16.4-22.05,28.84-52.02,43.54-85.38,43.54-16.96,0-37.88-3.39-54.85-17.53Zm42.41-288.93c3.96-5.65,9.61-6.79,16.96-1.7,6.79,4.52,8.48,10.18,6.22,14.7-16.4,22.05-37.32,40.14-62.76,50.32-6.22,2.26-11.88-.56-14.7-7.92v.57c-3.96-8.48-2.26-13,5.09-16.4,20.36-9.05,37.32-22.62,49.19-39.58Zm-38.45,255c19.79-15.27,40.14-41.28,42.4-78.03.57-17.53-6.78-26.01-22.62-26.01-14.14.56-25.44,10.18-31.66,30.53-2.83,9.61-3.96,18.66-3.96,26.57,0,17.53,5.09,32.79,15.83,46.93Z"/><line class="cls-4" x1=".27" y1="4090" x2="1919.73" y2="4090"/><line class="cls-4" x1=".27" y1="4411.88" x2="1919.73" y2="4411.88"/><line class="cls-4" x1="1919.73" y1="4598.76" x2=".27" y2="4598.76"/><line class="cls-4" x1=".27" y1="4929.33" x2="1919.73" y2="4929.33"/><path class="cls-7" d="m854.65,3855.44h3.23l11.51,20.92h.08l11.51-20.92h3.23v32.77h-2.94v-27.85h-.04l-10.75,19.91h-2.06l-10.8-19.91h-.04v27.85h-2.94v-32.77Z"/><path class="cls-7" d="m892.83,3855.44h2.98v6.51h-2.98v-6.51Zm0,11.76h2.94v21h-2.94v-21Z"/><path class="cls-7" d="m903.16,3867.2h2.6l.29,3.91c1.01-2.14,3.07-4.45,6.76-4.45,1.26,0,2.18.21,3.02.54v3.15c-1.13-.5-2.1-.76-3.4-.76-3.74,0-6.34,2.81-6.34,5.76v12.85h-2.94v-21Z"/><path class="cls-7" d="m920.46,3867.2h2.6l.29,3.91c1.01-2.14,3.07-4.45,6.76-4.45,1.26,0,2.18.21,3.02.54v3.15c-1.13-.5-2.1-.76-3.4-.76-3.74,0-6.34,2.81-6.34,5.76v12.85h-2.94v-21Z"/><path class="cls-7" d="m935.46,3877.7c0-6.22,3.32-11.05,10.38-11.05,6.59,0,10.25,4.83,10.25,11.05s-3.7,11.05-10.29,11.05c-7.27,0-10.33-4.83-10.33-11.05Zm17.56,0c0-5.33-2.9-8.48-7.22-8.48-4.75,0-7.27,3.15-7.27,8.48s2.56,8.49,7.27,8.49c4.33,0,7.22-3.15,7.22-8.49Z"/><path class="cls-7" d="m961.96,3867.2h2.6l.29,3.91c1.01-2.14,3.07-4.45,6.76-4.45,1.26,0,2.18.21,3.02.54v3.15c-1.13-.5-2.1-.76-3.4-.76-3.74,0-6.34,2.81-6.34,5.76v12.85h-2.94v-21Z"/><path class="cls-7" d="m995.9,3878.71h-15.96c.17,4.79,2.48,7.48,6.93,7.48,3.82,0,5.67-1.43,5.97-4.83h2.98c-.29,4.24-3.28,7.39-9.03,7.39-7.06,0-9.83-4.66-9.83-10.88s3.23-11.21,10-11.21,8.95,3.99,8.95,10.21v1.85Zm-3.11-2.98c0-4.45-1.72-6.55-5.92-6.55s-6.55,2.65-6.89,6.97h12.81v-.42Z"/><path class="cls-7" d="m1000.09,3877.75c0-7.1,4.28-11.09,10.04-11.09,3.7,0,6.22,1.6,7.31,3.74h.04v-14.96h2.94v32.77h-1.97l-.67-3.61h-.08c-1.18,2.31-3.95,4.16-7.77,4.16-6.3,0-9.83-3.99-9.83-11.01Zm17.64-.5c0-5.5-3.36-8.07-7.35-8.07-3.11,0-7.14,1.47-7.14,8.4s3.61,8.61,7.14,8.61c4.24,0,7.35-2.73,7.35-8.95Z"/><path class="cls-7" d="m1037.43,3855.44h2.94v32.77h-2.94v-32.77Z"/><path class="cls-7" d="m1046.04,3877.7c0-6.22,3.32-11.05,10.38-11.05,6.59,0,10.25,4.83,10.25,11.05s-3.7,11.05-10.29,11.05c-7.27,0-10.33-4.83-10.33-11.05Zm17.56,0c0-5.33-2.9-8.48-7.22-8.48-4.75,0-7.27,3.15-7.27,8.48s2.56,8.49,7.27,8.49c4.33,0,7.22-3.15,7.22-8.49Z"/><path class="cls-7" d="m1070.86,3877.7c0-6.22,3.32-11.05,10.38-11.05,6.59,0,10.25,4.83,10.25,11.05s-3.7,11.05-10.29,11.05c-7.27,0-10.33-4.83-10.33-11.05Zm17.56,0c0-5.33-2.9-8.48-7.22-8.48-4.75,0-7.27,3.15-7.27,8.48s2.56,8.49,7.27,8.49c4.33,0,7.22-3.15,7.22-8.49Z"/><path class="cls-7" d="m1097.37,3867.2h2.39l.34,3.87h.08c1.13-2.48,4.03-4.41,7.86-4.41,6.3,0,9.66,3.99,9.66,11.01s-4.29,11.09-9.87,11.09c-3.78,0-6.38-1.6-7.43-3.7h-.08v11.55h-2.94v-29.41Zm17.18,10.63c0-7.18-3.4-8.61-6.93-8.61-4.24,0-7.56,2.73-7.56,8.44,0,6.01,3.45,8.57,7.44,8.57,3.02,0,7.06-1.47,7.06-8.4Z"/><path class="cls-7" d="m1133.23,3855.44h2.98v6.51h-2.98v-6.51Zm0,11.76h2.94v21h-2.94v-21Z"/><path class="cls-7" d="m1143.57,3867.2h2.6l.29,3.49c1.01-2.14,3.28-4.03,7.35-4.03,4.75,0,7.77,2.52,7.77,7.94v13.61h-2.94v-13.27c0-4.33-2.14-5.71-5.5-5.71-3.82,0-6.64,2.69-6.64,5.63v13.36h-2.94v-21Z"/><path class="cls-7" d="m1180.27,3865.9h-3.36v-5.08c0-3.95.88-5.29,3.4-5.96l.67,1.85c-1.76.67-2.06,1.09-2.06,3.78v.34h1.34v5.08Zm5.92,0h-3.36v-5.08c0-3.95.88-5.29,3.4-5.96l.67,1.85c-1.76.67-2.06,1.09-2.06,3.78v.34h1.34v5.08Z"/><path class="cls-7" d="m1196.32,3862.16v5.04h5.92v2.44h-5.92v18.57h-2.94v-18.57h-4.16v-2.44h4.16v-5.42c0-5.29,3.15-6.89,6.38-6.89,1.85,0,2.98.29,3.74.55v2.61c-.71-.21-1.89-.46-3.49-.46-2.65,0-3.7,1.76-3.7,4.58Z"/><path class="cls-7" d="m1206.86,3864.64c1.76-.67,2.06-1.09,2.06-3.78v-.34h-1.34v-5.08h3.36v5.08c0,3.95-.88,5.29-3.4,5.97l-.67-1.85Zm5.92,0c1.76-.67,2.06-1.09,2.06-3.78v-.34h-1.34v-5.08h3.36v5.08c0,3.95-.88,5.29-3.4,5.97l-.67-1.85Z"/><path class="cls-7" d="m1048.18,2696.58h2.94v30.12h15.71v2.65h-18.65v-32.77Z"/><path class="cls-7" d="m1069.98,2718.84c0-6.22,3.32-11.05,10.38-11.05,6.59,0,10.25,4.83,10.25,11.05s-3.7,11.05-10.29,11.05c-7.27,0-10.33-4.83-10.33-11.05Zm17.56,0c0-5.33-2.9-8.49-7.22-8.49-4.75,0-7.27,3.15-7.27,8.49s2.56,8.49,7.27,8.49c4.33,0,7.22-3.15,7.22-8.49Z"/><path class="cls-7" d="m1096.48,2708.34h2.6l.29,3.49c1.01-2.14,3.28-4.03,7.35-4.03,4.75,0,7.77,2.52,7.77,7.94v13.61h-2.94v-13.27c0-4.33-2.14-5.71-5.5-5.71-3.82,0-6.64,2.69-6.64,5.63v13.36h-2.94v-21Z"/><path class="cls-7" d="m1121.22,2731.15v-.13h3.11v.13c0,2.9,1.93,4.33,6.13,4.33,4.79,0,7.01-2.94,7.01-7.86v-2.1h-.08c-1.09,2.18-3.65,4.07-7.48,4.07-6.3,0-9.75-3.99-9.75-10.71,0-7.1,4.37-11.09,9.96-11.09,3.78,0,6.55,1.81,7.56,4.12h.13l.29-3.57h2.31v19.16c0,5.88-2.81,10.71-10.33,10.71-6.3,0-8.86-2.98-8.86-7.06Zm16.59-12.77c0-5.5-3.36-8.07-7.35-8.07-3.03,0-7.14,1.47-7.14,8.4s3.57,8.32,7.1,8.32c4.24,0,7.39-2.73,7.39-8.65Z"/><path class="cls-7" d="m1156.17,2723.55c0-3.95,2.23-6.09,7.86-6.09h6.34v-1.72c0-2.98-1.26-5.42-5.46-5.42-3.95,0-5.33,1.51-5.33,4.12v.88h-2.98v-.84c0-5,4.2-6.68,8.32-6.68,5.8,0,8.4,2.86,8.4,8.44v13.11h-2.06l-.55-2.98h-.08c-1.26,1.89-3.7,3.53-7.35,3.53-4.92,0-7.1-2.31-7.1-6.34Zm14.2-1.85v-1.76h-7.01c-2.65,0-4.03.92-4.03,3.61,0,2.35,1.26,3.87,4.5,3.87,4.16,0,6.55-2.14,6.55-5.71Z"/><path class="cls-7" d="m1178.76,2722.92v-1.18h2.94v1.13c0,2.86,2.14,4.5,5.96,4.5s5.8-1.01,5.8-3.78c0-2.06-1.01-2.81-3.86-3.32l-4.62-.84c-3.02-.55-5.54-2.02-5.54-5.5,0-3.15,2.35-6.13,8.4-6.13s8.4,3.02,8.4,7.23v.88h-2.98v-.76c0-3.44-2.14-4.92-5.42-4.92-3.95,0-5.33,1.34-5.33,3.36s1.01,2.86,3.91,3.4l4.03.76c4.12.76,6.09,1.93,6.09,5.59,0,4.58-4.12,6.55-8.78,6.55-7.31,0-8.99-3.28-8.99-6.97Z"/><path class="cls-7" d="m1200.73,2719.01c0-6.38,3.23-11.22,10-11.22s8.95,3.91,8.95,8.95v.42h-3.11v-.63c0-3.82-1.64-6.09-5.84-6.09-4.75,0-7.02,3.11-7.02,8.4,0,5.63,2.39,8.49,6.93,8.49,3.82,0,5.84-1.85,5.92-5.67h3.02c-.08,4.66-3.15,8.23-9.03,8.23-7.22,0-9.83-4.75-9.83-10.88Z"/><path class="cls-7" d="m1242.81,2719.85h-15.96c.17,4.79,2.48,7.48,6.93,7.48,3.82,0,5.67-1.43,5.97-4.83h2.98c-.29,4.24-3.28,7.39-9.03,7.39-7.06,0-9.83-4.66-9.83-10.88s3.23-11.22,10-11.22,8.95,3.99,8.95,10.21v1.85Zm-3.11-2.98c0-4.45-1.72-6.55-5.92-6.55s-6.55,2.65-6.89,6.97h12.81v-.42Z"/><path class="cls-7" d="m1248.69,2708.34h2.6l.29,3.49c1.01-2.14,3.28-4.03,7.35-4.03,4.75,0,7.77,2.52,7.77,7.94v13.61h-2.94v-13.27c0-4.33-2.14-5.71-5.5-5.71-3.82,0-6.64,2.69-6.64,5.63v13.36h-2.94v-21Z"/><path class="cls-7" d="m1272.38,2718.88c0-7.1,4.28-11.09,10.04-11.09,3.7,0,6.22,1.6,7.31,3.74h.04v-14.96h2.94v32.77h-1.97l-.67-3.61h-.08c-1.18,2.31-3.95,4.16-7.77,4.16-6.3,0-9.83-3.99-9.83-11.01Zm17.64-.5c0-5.5-3.36-8.07-7.35-8.07-3.11,0-7.14,1.47-7.14,8.4s3.61,8.61,7.14,8.61c4.24,0,7.35-2.73,7.35-8.95Z"/><path class="cls-7" d="m1317.32,2719.85h-15.96c.17,4.79,2.48,7.48,6.93,7.48,3.82,0,5.67-1.43,5.97-4.83h2.98c-.29,4.24-3.28,7.39-9.03,7.39-7.06,0-9.83-4.66-9.83-10.88s3.23-11.22,10-11.22,8.95,3.99,8.95,10.21v1.85Zm-3.11-2.98c0-4.45-1.72-6.55-5.92-6.55s-6.55,2.65-6.89,6.97h12.81v-.42Z"/><path class="cls-7" d="m1323.2,2708.34h2.6l.29,3.91c1.01-2.14,3.07-4.45,6.76-4.45,1.26,0,2.18.21,3.02.55v3.15c-1.13-.5-2.1-.76-3.4-.76-3.74,0-6.34,2.81-6.34,5.75v12.85h-2.94v-21Z"/><path class="cls-7" d="m1338.4,2722.92v-1.18h2.94v1.13c0,2.86,2.14,4.5,5.96,4.5s5.8-1.01,5.8-3.78c0-2.06-1.01-2.81-3.86-3.32l-4.62-.84c-3.02-.55-5.54-2.02-5.54-5.5,0-3.15,2.35-6.13,8.4-6.13s8.4,3.02,8.4,7.23v.88h-2.98v-.76c0-3.44-2.14-4.92-5.42-4.92-3.95,0-5.33,1.34-5.33,3.36s1.01,2.86,3.91,3.4l4.03.76c4.12.76,6.09,1.93,6.09,5.59,0,4.58-4.12,6.55-8.78,6.55-7.31,0-8.99-3.28-8.99-6.97Z"/><path class="cls-7" d="m1401.49,2730.4l-7.1-5.71c-2.44,3.19-6.3,5.29-12.27,5.29s-11.26-3.11-11.26-9.16c0-5,3.44-7.39,7.39-9.12-2.14-1.97-3.82-4.29-3.82-7.48,0-3.61,2.56-8.28,10.08-8.28,6.01,0,8.57,3.65,8.57,6.59,0,5.71-4.91,7.81-9.7,9.7l10.29,8.36c1.05-2.56,1.39-5.67,1.18-8.99h2.94c.13,3.7-.38,7.52-1.93,10.71l5.76,4.66-.13,3.4Zm-9.2-7.35l-11.93-9.58c-3.49,1.55-6.3,3.36-6.3,7.06,0,4.54,3.57,6.72,8.65,6.72,4.54,0,7.64-1.6,9.58-4.2Zm-11.05-12.56c4.5-1.72,8.7-3.28,8.7-7.31,0-1.93-1.64-4.58-5.84-4.58-2.86,0-6.47,1.09-6.47,5.63,0,2.44,1.6,4.37,3.61,6.26Z"/><path class="cls-7" d="m1415.05,2718.88c0-7.1,4.28-11.09,10.04-11.09,3.7,0,6.22,1.6,7.31,3.74h.04v-14.96h2.94v32.77h-1.97l-.67-3.61h-.08c-1.18,2.31-3.95,4.16-7.77,4.16-6.3,0-9.83-3.99-9.83-11.01Zm17.64-.5c0-5.5-3.36-8.07-7.35-8.07-3.11,0-7.14,1.47-7.14,8.4s3.61,8.61,7.14,8.61c4.24,0,7.35-2.73,7.35-8.95Z"/><path class="cls-7" d="m1460,2719.85h-15.96c.17,4.79,2.48,7.48,6.93,7.48,3.82,0,5.67-1.43,5.97-4.83h2.98c-.29,4.24-3.28,7.39-9.03,7.39-7.06,0-9.83-4.66-9.83-10.88s3.23-11.22,10-11.22,8.95,3.99,8.95,10.21v1.85Zm-3.11-2.98c0-4.45-1.72-6.55-5.92-6.55s-6.55,2.65-6.89,6.97h12.81v-.42Z"/><path class="cls-7" d="m1463.98,2722.92v-1.18h2.94v1.13c0,2.86,2.14,4.5,5.96,4.5s5.8-1.01,5.8-3.78c0-2.06-1.01-2.81-3.86-3.32l-4.62-.84c-3.02-.55-5.54-2.02-5.54-5.5,0-3.15,2.35-6.13,8.4-6.13s8.4,3.02,8.4,7.23v.88h-2.98v-.76c0-3.44-2.14-4.92-5.42-4.92-3.95,0-5.33,1.34-5.33,3.36s1.01,2.86,3.91,3.4l4.03.76c4.12.76,6.09,1.93,6.09,5.59,0,4.58-4.12,6.55-8.78,6.55-7.31,0-8.99-3.28-8.99-6.97Z"/><path class="cls-7" d="m1485.95,2719.01c0-6.38,3.23-11.22,10-11.22s8.95,3.91,8.95,8.95v.42h-3.11v-.63c0-3.82-1.64-6.09-5.84-6.09-4.75,0-7.01,3.11-7.01,8.4,0,5.63,2.39,8.49,6.93,8.49,3.82,0,5.84-1.85,5.92-5.67h3.02c-.08,4.66-3.15,8.23-9.03,8.23-7.22,0-9.83-4.75-9.83-10.88Z"/><path class="cls-7" d="m1528.04,2719.85h-15.96c.17,4.79,2.48,7.48,6.93,7.48,3.82,0,5.67-1.43,5.97-4.83h2.98c-.29,4.24-3.28,7.39-9.03,7.39-7.06,0-9.83-4.66-9.83-10.88s3.23-11.22,10-11.22,8.95,3.99,8.95,10.21v1.85Zm-3.11-2.98c0-4.45-1.72-6.55-5.92-6.55s-6.55,2.65-6.89,6.97h12.81v-.42Z"/><path class="cls-7" d="m1533.91,2708.34h2.6l.29,3.49c1.01-2.14,3.28-4.03,7.35-4.03,4.75,0,7.77,2.52,7.77,7.94v13.61h-2.94v-13.27c0-4.33-2.14-5.71-5.5-5.71-3.82,0-6.64,2.69-6.64,5.63v13.36h-2.94v-21Z"/><path class="cls-7" d="m1557.6,2718.88c0-7.1,4.28-11.09,10.04-11.09,3.7,0,6.22,1.6,7.31,3.74h.04v-14.96h2.94v32.77h-1.97l-.67-3.61h-.08c-1.18,2.31-3.95,4.16-7.77,4.16-6.3,0-9.83-3.99-9.83-11.01Zm17.64-.5c0-5.5-3.36-8.07-7.35-8.07-3.11,0-7.14,1.47-7.14,8.4s3.61,8.61,7.14,8.61c4.24,0,7.35-2.73,7.35-8.95Z"/><path class="cls-7" d="m1602.54,2719.85h-15.96c.17,4.79,2.48,7.48,6.93,7.48,3.82,0,5.67-1.43,5.97-4.83h2.98c-.29,4.24-3.28,7.39-9.03,7.39-7.06,0-9.83-4.66-9.83-10.88s3.23-11.22,10-11.22,8.95,3.99,8.95,10.21v1.85Zm-3.11-2.98c0-4.45-1.72-6.55-5.92-6.55s-6.55,2.65-6.89,6.97h12.81v-.42Z"/><path class="cls-7" d="m1608.42,2708.34h2.6l.29,3.91c1.01-2.14,3.07-4.45,6.76-4.45,1.26,0,2.18.21,3.02.55v3.15c-1.13-.5-2.1-.76-3.4-.76-3.74,0-6.34,2.81-6.34,5.75v12.85h-2.94v-21Z"/><path class="cls-7" d="m1623.62,2722.92v-1.18h2.94v1.13c0,2.86,2.14,4.5,5.96,4.5s5.8-1.01,5.8-3.78c0-2.06-1.01-2.81-3.86-3.32l-4.62-.84c-3.02-.55-5.54-2.02-5.54-5.5,0-3.15,2.35-6.13,8.4-6.13s8.4,3.02,8.4,7.23v.88h-2.98v-.76c0-3.44-2.14-4.92-5.42-4.92-3.95,0-5.33,1.34-5.33,3.36s1.01,2.86,3.91,3.4l4.03.76c4.12.76,6.09,1.93,6.09,5.59,0,4.58-4.12,6.55-8.78,6.55-7.31,0-8.99-3.28-8.99-6.97Z"/><path class="cls-7" d="m1654.2,2708.38v-.04h2.98l5.76,17.48h.08l6.3-17.48h2.69l6.17,17.48h.08l5.75-17.48h2.86v.04l-7.18,20.96h-3.02l-5.96-17.05h-.08l-6.22,17.05h-3.02l-7.18-20.96Z"/><path class="cls-7" d="m1691.71,2696.58h2.98v6.51h-2.98v-6.51Zm0,11.76h2.94v21h-2.94v-21Z"/><path class="cls-7" d="m1713,2726.66v2.6c-.76.21-2.14.59-4.03.59-3.82,0-6.34-1.6-6.34-6.89v-12.18h-4.16v-2.44h4.16v-6.05l2.94-1.43v7.48h5.92v2.44h-5.92v11.8c0,2.81.76,4.58,3.4,4.58,1.6,0,3.23-.29,4.03-.5Z"/><path class="cls-7" d="m1717.83,2696.58h2.94v15.17c1.05-2.1,3.28-3.95,7.31-3.95,4.75,0,7.77,2.52,7.77,7.94v13.61h-2.94v-13.27c0-4.33-2.14-5.71-5.5-5.71-3.82,0-6.64,2.69-6.64,5.63v13.36h-2.94v-32.77Z"/><path class="cls-7" d="m1752.86,2696.58h2.94v32.77h-2.94v-32.77Z"/><path class="cls-7" d="m1761.47,2718.84c0-6.22,3.32-11.05,10.38-11.05,6.59,0,10.25,4.83,10.25,11.05s-3.7,11.05-10.29,11.05c-7.27,0-10.33-4.83-10.33-11.05Zm17.56,0c0-5.33-2.9-8.49-7.22-8.49-4.75,0-7.27,3.15-7.27,8.49s2.56,8.49,7.27,8.49c4.33,0,7.22-3.15,7.22-8.49Z"/><path class="cls-7" d="m1786.29,2718.84c0-6.22,3.32-11.05,10.38-11.05,6.59,0,10.25,4.83,10.25,11.05s-3.7,11.05-10.29,11.05c-7.27,0-10.33-4.83-10.33-11.05Zm17.56,0c0-5.33-2.9-8.49-7.22-8.49-4.75,0-7.27,3.15-7.27,8.49s2.56,8.49,7.27,8.49c4.33,0,7.22-3.15,7.22-8.49Z"/><path class="cls-7" d="m1812.79,2708.34h2.39l.34,3.87h.08c1.13-2.48,4.03-4.41,7.86-4.41,6.3,0,9.66,3.99,9.66,11.01s-4.29,11.09-9.87,11.09c-3.78,0-6.38-1.6-7.43-3.7h-.08v11.55h-2.94v-29.41Zm17.18,10.63c0-7.18-3.4-8.61-6.93-8.61-4.24,0-7.56,2.73-7.56,8.44,0,6.01,3.45,8.57,7.44,8.57,3.02,0,7.06-1.47,7.06-8.4Z"/><path class="cls-7" d="m1837.11,2722.92v-1.18h2.94v1.13c0,2.86,2.14,4.5,5.96,4.5s5.8-1.01,5.8-3.78c0-2.06-1.01-2.81-3.86-3.32l-4.62-.84c-3.02-.55-5.54-2.02-5.54-5.5,0-3.15,2.35-6.13,8.4-6.13s8.4,3.02,8.4,7.23v.88h-2.98v-.76c0-3.44-2.14-4.92-5.42-4.92-3.95,0-5.33,1.34-5.33,3.36s1.01,2.86,3.91,3.4l4.03.76c4.12.76,6.09,1.93,6.09,5.59,0,4.58-4.12,6.55-8.78,6.55-7.31,0-8.99-3.28-8.99-6.97Z"/><path class="cls-7" d="m564.83,2664.05c0-12.01,6.76-17.26,14.74-17.26,6.97,0,12.39,3.74,12.39,12.01v.8h-2.86v-.92c0-5.92-3.78-9.24-9.45-9.24-6.72,0-11.76,4.58-11.76,14.32s5.04,14.24,11.72,14.24c5.38,0,9.54-2.86,9.54-9.2v-.59h2.77v.42c0,8.02-5.33,12.01-12.56,12.01-7.98,0-14.53-4.87-14.53-16.59Z"/><path class="cls-7" d="m597.84,2672.71v-13.61h2.94v13.27c0,4.33,2.14,5.71,5.42,5.71,3.74,0,6.55-2.69,6.55-5.63v-13.36h2.94v21h-2.6l-.25-3.36h-.08c-.97,2.02-3.23,3.91-7.23,3.91-4.66,0-7.69-2.52-7.69-7.94Z"/><path class="cls-7" d="m623.04,2659.09h2.6l.29,3.91c1.01-2.14,3.07-4.45,6.76-4.45,1.26,0,2.18.21,3.02.55v3.15c-1.13-.5-2.1-.76-3.4-.76-3.74,0-6.34,2.81-6.34,5.75v12.85h-2.94v-21Z"/><path class="cls-7" d="m637.19,2659.14v-.04h3.36l7.35,17.98h.08l7.1-17.98h3.07v.04l-8.74,20.96h-3.02l-9.2-20.96Z"/><path class="cls-7" d="m678.99,2670.61h-15.96c.17,4.79,2.48,7.48,6.93,7.48,3.82,0,5.67-1.43,5.97-4.83h2.98c-.29,4.24-3.28,7.39-9.03,7.39-7.06,0-9.83-4.66-9.83-10.88s3.23-11.22,10-11.22,8.95,3.99,8.95,10.21v1.85Zm-3.11-2.98c0-4.45-1.72-6.55-5.92-6.55s-6.55,2.65-6.89,6.97h12.81v-.42Z"/><path class="cls-7" d="m683.18,2669.64c0-7.1,4.28-11.09,10.04-11.09,3.7,0,6.22,1.6,7.31,3.74h.04v-14.96h2.94v32.77h-1.97l-.67-3.61h-.08c-1.18,2.31-3.95,4.16-7.77,4.16-6.3,0-9.83-3.99-9.83-11.01Zm17.64-.5c0-5.5-3.36-8.07-7.35-8.07-3.11,0-7.14,1.47-7.14,8.4s3.61,8.61,7.14,8.61c4.24,0,7.35-2.73,7.35-8.95Z"/><path class="cls-7" d="m737.79,2670.61h-15.96c.17,4.79,2.48,7.48,6.93,7.48,3.82,0,5.67-1.43,5.97-4.83h2.98c-.29,4.24-3.28,7.39-9.03,7.39-7.06,0-9.83-4.66-9.83-10.88s3.23-11.22,10-11.22,8.95,3.99,8.95,10.21v1.85Zm-3.11-2.98c0-4.45-1.72-6.55-5.92-6.55s-6.55,2.65-6.89,6.97h12.81v-.42Z"/><path class="cls-7" d="m743.66,2659.09h2.6l.29,3.49c1.01-2.14,3.28-4.03,7.35-4.03,4.75,0,7.77,2.52,7.77,7.94v13.61h-2.94v-13.27c0-4.33-2.14-5.71-5.5-5.71-3.82,0-6.64,2.69-6.64,5.63v13.36h-2.94v-21Z"/><path class="cls-7" d="m780,2677.41v2.6c-.76.21-2.14.59-4.03.59-3.82,0-6.34-1.6-6.34-6.89v-12.18h-4.16v-2.44h4.16v-6.05l2.94-1.43v7.48h5.92v2.44h-5.92v11.8c0,2.81.76,4.58,3.4,4.58,1.6,0,3.23-.29,4.03-.5Z"/><path class="cls-7" d="m784.82,2659.09h2.6l.29,3.91c1.01-2.14,3.07-4.45,6.76-4.45,1.26,0,2.18.21,3.02.55v3.15c-1.13-.5-2.1-.76-3.4-.76-3.74,0-6.34,2.81-6.34,5.75v12.85h-2.94v-21Z"/><path class="cls-7" d="m802.34,2659.09l6.89,17.98h.08l7.14-17.98h3.07v.04l-8.86,20.84-3.11,8.53h-2.98v-.04l3.19-8.36-8.78-20.96v-.04h3.36Z"/><path class="cls-7" d="m831.49,2673.67v-1.18h2.94v1.13c0,2.86,2.14,4.5,5.96,4.5s5.8-1.01,5.8-3.78c0-2.06-1.01-2.81-3.86-3.32l-4.62-.84c-3.02-.55-5.54-2.02-5.54-5.5,0-3.15,2.35-6.13,8.4-6.13s8.4,3.02,8.4,7.23v.88h-2.98v-.76c0-3.44-2.14-4.92-5.42-4.92-3.95,0-5.33,1.34-5.33,3.36s1.01,2.86,3.91,3.4l4.03.76c4.12.76,6.09,1.93,6.09,5.59,0,4.58-4.12,6.55-8.78,6.55-7.31,0-8.99-3.28-8.99-6.97Z"/><path class="cls-7" d="m866.09,2677.41v2.6c-.76.21-2.14.59-4.03.59-3.82,0-6.34-1.6-6.34-6.89v-12.18h-4.16v-2.44h4.16v-6.05l2.94-1.43v7.48h5.92v2.44h-5.92v11.8c0,2.81.76,4.58,3.4,4.58,1.6,0,3.23-.29,4.03-.5Z"/><path class="cls-7" d="m870.92,2659.09h2.6l.29,3.91c1.01-2.14,3.07-4.45,6.76-4.45,1.26,0,2.18.21,3.02.55v3.15c-1.13-.5-2.1-.76-3.4-.76-3.74,0-6.34,2.81-6.34,5.75v12.85h-2.94v-21Z"/><path class="cls-7" d="m885.92,2669.6c0-6.22,3.32-11.05,10.38-11.05,6.59,0,10.25,4.83,10.25,11.05s-3.7,11.05-10.29,11.05c-7.27,0-10.33-4.83-10.33-11.05Zm17.56,0c0-5.33-2.9-8.49-7.22-8.49-4.75,0-7.27,3.15-7.27,8.49s2.56,8.49,7.27,8.49c4.33,0,7.22-3.15,7.22-8.49Z"/><path class="cls-7" d="m911.79,2647.33h2.94v23.23l12.14-11.47h3.65v.04l-8.4,7.86,8.78,13.06v.04h-3.36l-7.39-11.22-5.42,5.04v6.17h-2.94v-32.77Z"/><path class="cls-7" d="m952.15,2670.61h-15.96c.17,4.79,2.48,7.48,6.93,7.48,3.82,0,5.67-1.43,5.97-4.83h2.98c-.29,4.24-3.28,7.39-9.03,7.39-7.06,0-9.83-4.66-9.83-10.88s3.23-11.22,10-11.22,8.95,3.99,8.95,10.21v1.85Zm-3.11-2.98c0-4.45-1.72-6.55-5.92-6.55s-6.55,2.65-6.89,6.97h12.81v-.42Z"/><path class="cls-7" d="m956.14,2673.67v-1.18h2.94v1.13c0,2.86,2.14,4.5,5.96,4.5s5.8-1.01,5.8-3.78c0-2.06-1.01-2.81-3.86-3.32l-4.62-.84c-3.02-.55-5.54-2.02-5.54-5.5,0-3.15,2.35-6.13,8.4-6.13s8.4,3.02,8.4,7.23v.88h-2.98v-.76c0-3.44-2.14-4.92-5.42-4.92-3.95,0-5.33,1.34-5.33,3.36s1.01,2.86,3.91,3.4l4.03.76c4.12.76,6.09,1.93,6.09,5.59,0,4.58-4.12,6.55-8.78,6.55-7.31,0-8.99-3.28-8.99-6.97Z"/><path class="cls-7" d="m587.21,2696.18h2.98v6.51h-2.98v-6.51Zm0,11.76h2.94v21h-2.94v-21Z"/><path class="cls-7" d="m597.54,2707.94h2.6l.29,3.49c1.01-2.14,3.28-4.03,7.35-4.03,4.75,0,7.77,2.52,7.77,7.94v13.61h-2.94v-13.27c0-4.33-2.14-5.71-5.5-5.71-3.82,0-6.64,2.69-6.64,5.63v13.36h-2.94v-21Z"/><path class="cls-7" d="m634.25,2706.64h-3.36v-5.08c0-3.95.88-5.29,3.4-5.97l.67,1.85c-1.76.67-2.06,1.09-2.06,3.78v.34h1.34v5.08Zm5.92,0h-3.36v-5.08c0-3.95.88-5.29,3.4-5.97l.67,1.85c-1.76.67-2.06,1.09-2.06,3.78v.34h1.34v5.08Z"/><path class="cls-7" d="m646.56,2707.94h2.6l.29,3.49c1.01-2.14,3.28-4.03,7.35-4.03,4.75,0,7.77,2.52,7.77,7.94v13.61h-2.94v-13.27c0-4.33-2.14-5.71-5.5-5.71-3.82,0-6.64,2.69-6.64,5.63v13.36h-2.94v-21Z"/><path class="cls-7" d="m668.99,2705.38c1.76-.67,2.06-1.09,2.06-3.78v-.34h-1.34v-5.08h3.36v5.08c0,3.95-.88,5.29-3.4,5.97l-.67-1.85Zm5.92,0c1.76-.67,2.06-1.09,2.06-3.78v-.34h-1.34v-5.08h3.36v5.08c0,3.95-.88,5.29-3.4,5.97l-.67-1.85Z"/><path class="cls-7" d="m681.92,2722.73h3.36v6.22c0,3.95-.88,5.29-3.4,5.96l-.67-1.85c1.76-.67,2.06-1.09,2.06-3.78v-.34h-1.34v-6.22Z"/><path class="cls-7" d="m702.92,2706.64h-3.36v-5.08c0-3.95.88-5.29,3.4-5.97l.67,1.85c-1.76.67-2.06,1.09-2.06,3.78v.34h1.34v5.08Zm5.92,0h-3.36v-5.08c0-3.95.88-5.29,3.4-5.97l.67,1.85c-1.76.67-2.06,1.09-2.06,3.78v.34h1.34v5.08Z"/><path class="cls-7" d="m745.94,2715.33v13.61h-2.94v-13.27c0-4.33-2.14-5.71-4.75-5.71-3.82,0-6.17,2.69-6.17,5.63v13.36h-2.94v-13.27c0-4.33-1.85-5.71-4.83-5.71-3.61,0-6.13,2.69-6.13,5.63v13.36h-2.94v-21h2.6l.29,3.49c1.01-2.02,3.07-4.03,6.93-4.03,2.94,0,5.38,1.39,6.43,4.28,1.22-2.39,3.57-4.28,7.14-4.28,4.29,0,7.31,2.52,7.31,7.94Z"/><path class="cls-7" d="m750.34,2705.38c1.76-.67,2.06-1.09,2.06-3.78v-.34h-1.34v-5.08h3.36v5.08c0,3.95-.88,5.29-3.4,5.97l-.67-1.85Zm5.92,0c1.76-.67,2.06-1.09,2.06-3.78v-.34h-1.34v-5.08h3.36v5.08c0,3.95-.88,5.29-3.4,5.97l-.67-1.85Z"/><path class="cls-7" d="m763.28,2722.73h3.36v6.22c0,3.95-.88,5.29-3.4,5.96l-.67-1.85c1.76-.67,2.06-1.09,2.06-3.78v-.34h-1.34v-6.22Z"/><path class="cls-7" d="m784.28,2706.64h-3.36v-5.08c0-3.95.88-5.29,3.4-5.97l.67,1.85c-1.76.67-2.06,1.09-2.06,3.78v.34h1.34v5.08Zm5.92,0h-3.36v-5.08c0-3.95.88-5.29,3.4-5.97l.67,1.85c-1.76.67-2.06,1.09-2.06,3.78v.34h1.34v5.08Z"/><path class="cls-7" d="m793.43,2707.98v-.04h3.36l7.35,17.98h.08l7.1-17.98h3.07v.04l-8.74,20.96h-3.02l-9.2-20.96Z"/><path class="cls-7" d="m816.91,2705.38c1.76-.67,2.06-1.09,2.06-3.78v-.34h-1.34v-5.08h3.36v5.08c0,3.95-.88,5.29-3.4,5.97l-.67-1.85Zm5.92,0c1.76-.67,2.06-1.09,2.06-3.78v-.34h-1.34v-5.08h3.36v5.08c0,3.95-.88,5.29-3.4,5.97l-.67-1.85Z"/><path class="cls-7" d="m841.19,2723.15c0-3.95,2.23-6.09,7.86-6.09h6.34v-1.72c0-2.98-1.26-5.42-5.46-5.42-3.95,0-5.33,1.51-5.33,4.12v.88h-2.98v-.84c0-5,4.2-6.68,8.32-6.68,5.8,0,8.4,2.86,8.4,8.44v13.11h-2.06l-.55-2.98h-.08c-1.26,1.89-3.7,3.53-7.35,3.53-4.92,0-7.1-2.31-7.1-6.34Zm14.2-1.85v-1.76h-7.01c-2.65,0-4.03.92-4.03,3.61,0,2.35,1.26,3.86,4.5,3.86,4.16,0,6.55-2.14,6.55-5.71Z"/><path class="cls-7" d="m865.67,2707.94h2.6l.29,3.49c1.01-2.14,3.28-4.03,7.35-4.03,4.75,0,7.77,2.52,7.77,7.94v13.61h-2.94v-13.27c0-4.33-2.14-5.71-5.5-5.71-3.82,0-6.64,2.69-6.64,5.63v13.36h-2.94v-21Z"/><path class="cls-7" d="m889.36,2718.49c0-7.1,4.28-11.09,10.04-11.09,3.7,0,6.22,1.6,7.31,3.74h.04v-14.95h2.94v32.77h-1.97l-.67-3.61h-.08c-1.18,2.31-3.95,4.16-7.77,4.16-6.3,0-9.83-3.99-9.83-11.01Zm17.64-.5c0-5.5-3.36-8.07-7.35-8.07-3.11,0-7.14,1.47-7.14,8.4s3.61,8.61,7.14,8.61c4.24,0,7.35-2.73,7.35-8.95Z"/><path class="cls-7" d="m928.38,2706.64h-3.36v-5.08c0-3.95.88-5.29,3.4-5.97l.67,1.85c-1.76.67-2.06,1.09-2.06,3.78v.34h1.34v5.08Zm5.92,0h-3.36v-5.08c0-3.95.88-5.29,3.4-5.97l.67,1.85c-1.76.67-2.06,1.09-2.06,3.78v.34h1.34v5.08Z"/><path class="cls-7" d="m937.95,2707.98v-.04h2.98l5.76,17.47h.08l6.3-17.47h2.69l6.17,17.47h.08l5.75-17.47h2.86v.04l-7.18,20.96h-3.02l-5.96-17.06h-.08l-6.22,17.06h-3.02l-7.18-20.96Z"/><path class="cls-7" d="m973.57,2705.38c1.76-.67,2.06-1.09,2.06-3.78v-.34h-1.34v-5.08h3.36v5.08c0,3.95-.88,5.29-3.4,5.97l-.67-1.85Zm5.92,0c1.76-.67,2.06-1.09,2.06-3.78v-.34h-1.34v-5.08h3.36v5.08c0,3.95-.88,5.29-3.4,5.97l-.67-1.85Z"/><line class="cls-3" x1="889.47" y1="2114.02" x2="889.47" y2="2635.11"/><line class="cls-3" x1="1411.16" y1="2582.61" x2="1411.16" y2="2684.36"/><line class="cls-3" x1="1316.58" y1="2761.26" x2="1316.58" y2="2855.1"/><line class="cls-3" x1="1104.55" y1="3770.74" x2="1104.55" y2="3840.62"/><path class="cls-7" d="m1108.54,3995.05v-2.02h3.02v2.18c0,3.74,2.6,6.05,7.94,6.05s8.44-1.97,8.44-6.22c0-3.32-1.39-5.17-4.92-6.09l-6.64-1.72c-4.33-1.13-7.18-2.98-7.18-8.15s3.78-8.91,10.92-8.91,10.59,3.44,10.59,9.07v2.94h-3.02v-2.81c0-4.62-3.07-6.51-7.56-6.51-5.12,0-7.81,2.14-7.81,6.01,0,3.61,1.76,4.71,5.54,5.71l5.75,1.55c5.12,1.39,7.43,3.74,7.43,8.65,0,6.09-4.33,9.24-11.47,9.24-9.12,0-11.05-4.71-11.05-8.99Z"/><path class="cls-7" d="m1138.24,3970.73h2.94v15.17c1.05-2.1,3.28-3.95,7.31-3.95,4.75,0,7.77,2.52,7.77,7.94v13.61h-2.94v-13.27c0-4.33-2.14-5.71-5.5-5.71-3.82,0-6.64,2.69-6.64,5.63v13.36h-2.94v-32.77Z"/><path class="cls-7" d="m1161.93,3993c0-6.22,3.32-11.05,10.38-11.05,6.59,0,10.25,4.83,10.25,11.05s-3.7,11.05-10.29,11.05c-7.27,0-10.33-4.83-10.33-11.05Zm17.56,0c0-5.33-2.9-8.49-7.22-8.49-4.75,0-7.27,3.15-7.27,8.49s2.56,8.49,7.27,8.49c4.33,0,7.22-3.15,7.22-8.49Z"/><path class="cls-7" d="m1188.43,3982.49h2.6l.29,3.91c1.01-2.14,3.07-4.45,6.76-4.45,1.26,0,2.18.21,3.02.55v3.15c-1.13-.5-2.1-.76-3.4-.76-3.74,0-6.34,2.81-6.34,5.75v12.85h-2.94v-21Z"/><path class="cls-7" d="m1216.7,4000.81v2.6c-.76.21-2.14.59-4.03.59-3.82,0-6.34-1.6-6.34-6.89v-12.18h-4.16v-2.44h4.16v-6.05l2.94-1.43v7.48h5.92v2.44h-5.92v11.8c0,2.81.76,4.58,3.4,4.58,1.6,0,3.23-.29,4.03-.5Z"/><path class="cls-7" d="m1229.92,3997.7c0-3.95,2.23-6.09,7.86-6.09h6.34v-1.72c0-2.98-1.26-5.42-5.46-5.42-3.95,0-5.33,1.51-5.33,4.12v.88h-2.98v-.84c0-5,4.2-6.68,8.32-6.68,5.8,0,8.4,2.86,8.4,8.44v13.11h-2.06l-.55-2.98h-.08c-1.26,1.89-3.7,3.53-7.35,3.53-4.92,0-7.1-2.31-7.1-6.34Zm14.2-1.85v-1.76h-7.01c-2.65,0-4.03.92-4.03,3.61,0,2.35,1.26,3.86,4.5,3.86,4.16,0,6.55-2.14,6.55-5.71Z"/><path class="cls-7" d="m1252.52,3997.07v-1.18h2.94v1.13c0,2.86,2.14,4.5,5.96,4.5s5.8-1.01,5.8-3.78c0-2.06-1.01-2.81-3.86-3.32l-4.62-.84c-3.02-.55-5.54-2.02-5.54-5.5,0-3.15,2.35-6.13,8.4-6.13s8.4,3.02,8.4,7.22v.88h-2.98v-.76c0-3.45-2.14-4.92-5.42-4.92-3.95,0-5.33,1.34-5.33,3.36s1.01,2.86,3.91,3.4l4.03.76c4.12.76,6.09,1.93,6.09,5.59,0,4.58-4.12,6.55-8.78,6.55-7.31,0-8.99-3.28-8.99-6.97Z"/><path class="cls-7" d="m1274.49,3993.16c0-6.38,3.23-11.22,10-11.22s8.95,3.91,8.95,8.95v.42h-3.11v-.63c0-3.82-1.64-6.09-5.84-6.09-4.75,0-7.01,3.11-7.01,8.4,0,5.63,2.39,8.49,6.93,8.49,3.82,0,5.84-1.85,5.92-5.67h3.02c-.08,4.66-3.15,8.23-9.03,8.23-7.22,0-9.83-4.75-9.83-10.88Z"/><path class="cls-7" d="m1316.57,3994h-15.96c.17,4.79,2.48,7.48,6.93,7.48,3.82,0,5.67-1.43,5.97-4.83h2.98c-.29,4.24-3.28,7.39-9.03,7.39-7.06,0-9.83-4.66-9.83-10.88s3.23-11.22,10-11.22,8.95,3.99,8.95,10.21v1.85Zm-3.11-2.98c0-4.45-1.72-6.55-5.92-6.55s-6.55,2.65-6.89,6.97h12.81v-.42Z"/><path class="cls-7" d="m1322.45,3982.49h2.6l.29,3.49c1.01-2.14,3.28-4.03,7.35-4.03,4.75,0,7.77,2.52,7.77,7.94v13.61h-2.94v-13.27c0-4.33-2.14-5.71-5.5-5.71-3.82,0-6.64,2.69-6.64,5.63v13.36h-2.94v-21Z"/><path class="cls-7" d="m1346.14,3993.04c0-7.1,4.28-11.09,10.04-11.09,3.7,0,6.22,1.6,7.31,3.74h.04v-14.95h2.94v32.77h-1.97l-.67-3.61h-.08c-1.18,2.31-3.95,4.16-7.77,4.16-6.3,0-9.83-3.99-9.83-11.01Zm17.64-.5c0-5.5-3.36-8.07-7.35-8.07-3.11,0-7.14,1.47-7.14,8.4s3.61,8.61,7.14,8.61c4.24,0,7.35-2.73,7.35-8.95Z"/><path class="cls-7" d="m1391.08,3994h-15.96c.17,4.79,2.48,7.48,6.93,7.48,3.82,0,5.67-1.43,5.97-4.83h2.98c-.29,4.24-3.28,7.39-9.03,7.39-7.06,0-9.83-4.66-9.83-10.88s3.23-11.22,10-11.22,8.95,3.99,8.95,10.21v1.85Zm-3.11-2.98c0-4.45-1.72-6.55-5.92-6.55s-6.55,2.65-6.89,6.97h12.81v-.42Z"/><path class="cls-7" d="m1396.96,3982.49h2.6l.29,3.91c1.01-2.14,3.07-4.45,6.76-4.45,1.26,0,2.18.21,3.02.55v3.15c-1.13-.5-2.1-.76-3.4-.76-3.74,0-6.34,2.81-6.34,5.75v12.85h-2.94v-21Z"/><path class="cls-7" d="m1423.92,3970.73h2.98v6.51h-2.98v-6.51Zm0,11.76h2.94v21h-2.94v-21Z"/><path class="cls-7" d="m1434.25,3982.49h2.6l.29,3.49c1.01-2.14,3.28-4.03,7.35-4.03,4.75,0,7.77,2.52,7.77,7.94v13.61h-2.94v-13.27c0-4.33-2.14-5.71-5.5-5.71-3.82,0-6.64,2.69-6.64,5.63v13.36h-2.94v-21Z"/><path class="cls-7" d="m1471.17,3970.73l-.42,11.05h-2.31l-.42-11.05h3.15Zm5.59,0l-.42,11.05h-2.31l-.42-11.05h3.15Z"/><path class="cls-7" d="m1479.7,3993.04c0-7.1,4.28-11.09,10.04-11.09,3.7,0,6.22,1.6,7.31,3.74h.04v-14.95h2.94v32.77h-1.97l-.67-3.61h-.08c-1.18,2.31-3.95,4.16-7.77,4.16-6.3,0-9.83-3.99-9.83-11.01Zm17.64-.5c0-5.5-3.36-8.07-7.35-8.07-3.11,0-7.14,1.47-7.14,8.4s3.61,8.61,7.14,8.61c4.24,0,7.35-2.73,7.35-8.95Z"/><path class="cls-7" d="m1509.27,3970.73l-.42,11.05h-2.31l-.42-11.05h3.15Zm5.59,0l-.42,11.05h-2.31l-.42-11.05h3.15Z"/><path class="cls-7" d="m325.9,4986.75v-19.95h2.94v19.95c0,9.41,4.07,10.63,8.86,10.63s8.78-1.01,8.78-10.63v-19.95h2.94v19.62c0,11.64-5.33,13.69-11.76,13.69s-11.76-2.06-11.76-13.36Z"/><path class="cls-7" d="m357.19,4978.56h2.39l.34,3.86h.08c1.13-2.48,4.03-4.41,7.86-4.41,6.3,0,9.66,3.99,9.66,11.01s-4.29,11.09-9.87,11.09c-3.78,0-6.38-1.6-7.43-3.7h-.08v11.55h-2.94v-29.41Zm17.18,10.63c0-7.18-3.4-8.61-6.93-8.61-4.24,0-7.56,2.73-7.56,8.44,0,6.01,3.45,8.57,7.44,8.57,3.02,0,7.06-1.47,7.06-8.4Z"/><path class="cls-7" d="m383.4,4978.56h2.6l.29,3.91c1.01-2.14,3.07-4.45,6.76-4.45,1.26,0,2.18.21,3.02.55v3.15c-1.13-.5-2.1-.76-3.4-.76-3.74,0-6.34,2.81-6.34,5.75v12.85h-2.94v-21Z"/><path class="cls-7" d="m400.71,4966.8h2.98v6.51h-2.98v-6.51Zm0,11.76h2.94v21h-2.94v-21Z"/><path class="cls-7" d="m410.41,5001.37v-.13h3.11v.13c0,2.9,1.93,4.33,6.13,4.33,4.79,0,7.01-2.94,7.01-7.86v-2.1h-.08c-1.09,2.18-3.65,4.08-7.48,4.08-6.3,0-9.75-3.99-9.75-10.71,0-7.1,4.37-11.09,9.96-11.09,3.78,0,6.55,1.81,7.56,4.12h.13l.29-3.57h2.31v19.16c0,5.88-2.81,10.71-10.33,10.71-6.3,0-8.86-2.98-8.86-7.06Zm16.59-12.77c0-5.5-3.36-8.07-7.35-8.07-3.03,0-7.14,1.47-7.14,8.4s3.57,8.32,7.1,8.32c4.24,0,7.39-2.73,7.39-8.65Z"/><path class="cls-7" d="m436.95,4966.8h2.94v15.16c1.05-2.1,3.28-3.95,7.31-3.95,4.75,0,7.77,2.52,7.77,7.94v13.61h-2.94v-13.27c0-4.33-2.14-5.71-5.5-5.71-3.82,0-6.64,2.69-6.64,5.63v13.36h-2.94v-32.77Z"/><path class="cls-7" d="m473.28,4996.87v2.6c-.76.21-2.14.59-4.03.59-3.82,0-6.34-1.6-6.34-6.89v-12.18h-4.16v-2.44h4.16v-6.05l2.94-1.43v7.48h5.92v2.44h-5.92v11.8c0,2.81.76,4.58,3.4,4.58,1.6,0,3.23-.29,4.03-.5Z"/><rect class="cls-9" x="368.87" y="4086.7" width="59.92" height="841.37"/><path class="cls-7" d="m871.72,3221.48c21.35,0,37.64,5.06,52.25,18.54v-7.3c0-7.87,5.06-11.24,12.92-11.24,8.43,0,13.48,3.37,13.48,11.24v102.82c0,25.28,11.24,42.14,31.46,42.14,7.87,0,11.24,5.06,11.24,13.48,0,7.87-3.37,12.92-11.24,12.92-23.6-.56-38.21-7.87-49.44-30.9-14.61,20.23-35.4,30.9-60.68,30.9-20.23,0-37.64-8.43-53.38-24.16-14.61-16.29-21.91-38.21-21.91-66.3,0-58.43,32.59-92.14,75.29-92.14Zm44.95,126.42c4.5-12.92,7.3-33.71,7.3-62.37-9.55-25.28-27.53-37.64-52.25-37.64-27.53,0-49.44,23.04-49.44,65.74s23.6,64.05,49.44,64.05c20.79,0,35.4-10.11,44.95-29.78Z"/><path class="cls-7" d="m1129.6,3403.52c16.86,33.71,30.9,67.42,41.58,98.89,12.36,34.27,17.98,69.67,17.98,107.32,0,83.15-30.9,123.05-70.79,123.05-31.46,0-58.43-32.03-58.43-106.19v-257.89l-1.69-2.25c-15.17,21.35-36.52,37.08-65.74,37.64-7.3,0-10.67-5.06-10.67-12.92,0-8.43,3.37-13.48,10.67-13.48,11.8-.56,21.35-4.5,30.9-11.24,8.99-8.43,21.35-26.41,36.52-53.94v-309.58c0-32.59,6.74-59,20.23-78.66,13.48-20.23,29.78-30.34,47.2-30.34,35.96,0,61.8,30.9,61.8,109,0,35.96-6.18,78.1-19.1,127.54-12.36,48.32-39.89,111.81-84.28,189.35v17.42c8.43,6.18,17.42,17.42,28.09,35.96,10.11,2.81,20.23,4.5,28.09,4.5,7.3,0,10.67,5.06,10.67,13.48,0,7.87-3.37,12.92-10.67,12.92-3.37,0-7.87,0-12.36-.56Zm-43.83-138.78c28.66-54.5,50.01-105.63,59.56-144.4,11.8-44.95,17.98-83.72,17.98-117.43,0-60.12-15.73-82.59-35.96-82.59s-41.58,32.03-41.58,82.59v261.83Zm0,361.84c0,57.31,16.29,80.35,32.59,80.35,25.28-.56,44.95-32.59,44.95-97.2,0-31.46-5.62-64.61-15.73-96.64-10.11-30.9-26.97-70.23-51.69-117.43-2.81-1.12-8.43-2.81-10.11-3.93v234.86Z"/><path class="cls-7" d="m1250.4,3385.54c-10.68-9.55-19.67-20.23-25.28-32.03-20.79,35.4-42.7,50-73.6,50.57-7.3,0-10.67-5.06-10.67-12.92,0-8.43,3.37-13.48,10.67-13.48,11.8-.56,21.35-4.5,30.9-11.24,8.99-8.43,21.35-26.41,36.52-53.94v-309.58c0-32.59,6.74-59,20.23-78.66,13.48-20.23,29.78-30.34,47.2-30.34,35.96,0,61.8,30.9,61.8,109,0,35.96-6.18,78.1-19.1,127.54-12.36,48.32-39.89,111.81-84.28,189.35v3.93c0,12.92,6.18,25.84,17.98,37.08,11.24,11.8,24.16,16.86,38.21,16.86,7.3,0,10.67,5.06,10.67,13.48,0,7.87-3.37,12.92-10.67,12.92-18.54,0-35.96-6.74-50.57-18.54Zm-5.62-120.8c28.66-54.5,50.01-105.63,59.56-144.4,11.8-44.95,17.98-83.72,17.98-117.43,0-60.12-15.73-82.59-35.96-82.59s-41.58,32.03-41.58,82.59v261.83Z"/><path class="cls-7" d="m1385.24,3386.66c-23.6,13.48-51.69,16.86-74.17,17.42-7.3,0-10.67-5.06-10.67-12.92,0-8.43,3.37-12.92,10.67-12.92,17.42-.56,39.89-3.37,55.62-11.24-11.8-17.98-19.1-39.89-19.1-61.24,0-11.8,1.69-23.04,5.06-35.4,10.11-30.34,29.22-46.07,57.31-46.63,32.59,1.12,48.32,19.1,47.2,55.06-1.69,23.04-8.43,44.39-20.23,60.68-9.55,13.48-19.1,23.6-28.09,31.46,8.43,5.06,20.79,7.3,30.9,7.3,25.85,0,46.07-9.55,64.61-33.15,3.93-5.62,10.67-5.62,16.86-.56,6.18,4.5,6.74,11.24,3.37,16.29-21.91,28.66-51.69,43.26-84.84,43.26-16.86,0-37.64-3.37-54.5-17.42Zm3.93-33.71c19.67-15.17,39.89-41.02,42.14-77.54.56-17.42-6.74-25.85-22.47-25.85-14.05.56-25.28,10.11-31.46,30.34-2.81,9.55-3.93,18.54-3.93,26.41,0,17.42,5.06,32.59,15.73,46.63Z"/><path class="cls-9" d="m353.68,3261.37c-14.05,0-28.09,11.8-28.09,35.4,0,32.03,17.42,80.35,84.28,80.35,86.53,0,85.96-128.1,85.96-128.1v-225.87c0-61.24,23.6-80.35,37.64-88.77,6.74-4.49,11.8-1.69,16.29,5.62,3.93,6.74,3.93,12.36-2.81,16.86-9.55,5.62-25.28,19.1-25.28,66.3v84.28c7.3-2.25,16.29-3.37,26.97-3.37,25.28,0,50.01,4.5,70.23,17.98,23.04-19.1,40.45-50.57,40.45-97.76,0-38.77-25.85-103.38-137.09-103.38s-191.03,51.69-191.03,126.42c0,41.02,27.53,74.17,56.75,74.17,24.72,0,52.25-18.54,52.81-71.92,0-7.87,5.06-10.68,13.49-10.68,7.87,0,12.92,2.81,12.92,10.68-1.12,73.6-42.7,98.89-79.22,98.89-42.7,0-82.59-45.51-82.59-101.13,0-90.46,87.09-153.39,216.88-153.39s162.94,81.47,162.94,130.35c0,55.62-19.67,92.71-46.63,116.31,17.42,21.35,28.09,54.5,28.09,104.5,0,95.52,11.8,132.04,60.12,132.04,34.27,0,59-25.85,59-75.85,0-37.08-23.6-47.2-31.46-47.2s-26.41,3.93-26.41,14.05c0,7.87-5.06,10.67-13.48,10.67-7.87,0-12.92-2.81-12.92-10.67,0-29.22,38.21-41.02,52.81-41.02s57.31,15.73,57.31,74.17c0,67.98-35.96,102.82-84.84,102.82-68.55,0-85.96-44.39-85.96-159.01,0-43.26-10.11-71.36-25.28-88.21-21.35,11.8-45.51,16.86-66.86,16.86-10.67,0-19.67-1.69-26.97-4.5v79.78s.56,155.07-111.81,155.07c-87.09,0-110.12-64.05-110.12-107.32s26.41-62.37,53.94-62.37,53.94,23.6,53.94,56.19c0,7.87-5.06,10.68-13.48,10.68-7.87,0-12.92-2.81-12.92-10.68,0-16.86-13.48-29.22-27.53-29.22Zm237.1-122.48c-12.92-5.62-27.53-7.87-42.14-7.87-16.86,0-26.97,2.25-26.97,7.87v.56c.56,3.37,10.67,7.3,26.97,7.3,13.49,0,28.09-2.25,42.14-7.87Z"/><path class="cls-8" d="m1129.6,3403.52c16.86,33.71,30.9,67.42,41.58,98.89,12.36,34.27,17.98,69.67,17.98,107.32,0,83.15-30.9,123.05-70.79,123.05-31.46,0-58.43-32.03-58.43-106.19v-257.89l-1.69-2.25c-15.17,21.35-36.52,37.08-65.74,37.64-7.3,0-10.67-5.06-10.67-12.92,0-8.43,3.37-13.48,10.67-13.48,11.8-.56,21.35-4.5,30.9-11.24,8.99-8.43,21.35-26.41,36.52-53.94v-309.58c0-32.59,6.74-59,20.23-78.66,13.48-20.23,29.78-30.34,47.2-30.34,35.96,0,61.8,30.9,61.8,109,0,35.96-6.18,78.1-19.1,127.54-12.36,48.32-39.89,111.81-84.28,189.35v17.42c8.43,6.18,17.42,17.42,28.09,35.96,10.11,2.81,20.23,4.5,28.09,4.5,7.3,0,10.67,5.06,10.67,13.48,0,7.87-3.37,12.92-10.67,12.92-3.37,0-7.87,0-12.36-.56Zm-43.83-138.78c28.66-54.5,50.01-105.63,59.56-144.4,11.8-44.95,17.98-83.72,17.98-117.43,0-60.12-15.73-82.59-35.96-82.59s-41.58,32.03-41.58,82.59v261.83Zm0,361.84c0,57.31,16.29,80.35,32.59,80.35,25.28-.56,44.95-32.59,44.95-97.2,0-31.46-5.62-64.61-15.73-96.64-10.11-30.9-26.97-70.23-51.69-117.43-2.81-1.12-8.43-2.81-10.11-3.93v234.86Z"/><line class="cls-3" x1="1353.89" y1="4031.88" x2="1353.89" y2="4250.84"/><rect class="cls-9" x="1262.11" y="4190.85" width="183.56" height="183.56" rx="91.78" ry="91.78"/><path class="cls-7" d="m208.48,4456.37c-14.29,0-28.58,12-28.58,36,0,32.58,17.72,81.72,85.72,81.72,88.01,0,87.44-130.3,87.44-130.3v-229.74c0-62.29,24-81.72,38.29-90.29,6.86-4,12-1.14,16.57,5.71,4,6.86,4.57,13.14-2.29,17.14-9.72,5.71-26.29,19.43-26.29,67.44v229.74s.57,157.73-113.73,157.73c-88.58,0-112.01-65.15-112.01-109.15s26.86-63.43,54.86-63.43,54.86,24,54.86,57.15c0,8-5.14,10.86-13.72,10.86-8,0-13.14-2.86-13.14-10.86,0-17.14-13.72-29.72-28-29.72Zm223.45-135.44c69.15-2.86,87.44-66.86,87.44-105.72s-26.29-105.15-139.44-105.15-194.31,52.58-194.31,128.58c0,41.72,28,75.44,57.72,75.44,25.15,0,53.15-18.86,53.72-73.15,0-8,5.14-10.86,13.72-10.86,8,0,13.14,2.86,13.14,10.86-1.14,74.86-43.43,100.58-80.58,100.58-43.43,0-84.01-46.29-84.01-102.87,0-92.01,88.58-156.02,220.59-156.02s165.73,82.87,165.73,132.59c0,35.43-12.57,87.44-53.15,114.87,65.72,18.86,111.44,67.44,111.44,141.16,0,98.3-63.43,130.3-111.44,130.3s-88.01-36.57-88.01-90.29c0-8,5.14-10.86,13.72-10.86,8,0,13.14,2.86,13.14,10.86,0,37.72,26.29,62.86,61.15,62.86,36.58,0,85.15-25.15,85.15-102.87s-66.29-123.44-150.87-123.44c-8,0-10.86-5.14-10.86-13.71,0-8,2.86-13.14,10.86-13.14h5.14Z"/><path class="cls-7" d="m733.67,4418.08c21.72,0,37.72,4.57,52.58,18.29v-7.43c0-7.43,5.14-10.86,13.14-10.86,8.57,0,13.14,3.43,13.14,10.86v104.01c0,25.15,12,42.29,32,42.29,8,0,10.86,4.57,10.86,13.14,0,8-2.86,13.14-10.86,13.14-23.43-.57-38.29-8-49.72-30.86-14.29,20.57-35.43,30.86-61.15,30.86-20.57,0-37.72-8.57-53.15-24-14.86-16.57-22.86-38.86-22.86-67.44,0-58.29,33.15-92.01,76.01-92.01Zm45.15,126.87c5.14-12.57,7.43-33.72,7.43-62.86-9.71-25.15-28-37.72-52.58-37.72-27.43,0-49.72,22.86-49.72,65.72s24,65.15,49.72,65.15c21.15,0,36-10.86,45.15-30.29Z"/><path class="cls-7" d="m1209.15,4544.95c4.57-5.71,10.29-5.71,17.14-1.14,7.43,5.14,8.57,10.86,4.57,16.57-16.57,24-37.15,41.15-68.01,41.15-40.58,0-60.01-29.14-63.43-94.29-1.14-28-4.57-45.72-10.86-53.72-6.29-6.86-13.72-10.86-24-10.86-20.57,0-31.43,15.43-32,42.86v104.58c0,8-5.14,11.43-13.72,11.43-8,0-13.14-3.43-13.14-11.43v-104.58c-.57-27.43-11.43-42.86-32-42.86-14.86,0-29.72,19.43-38.29,64.58-9.71,54.86-40.58,94.29-82.87,94.29-8,0-11.43-5.14-11.43-13.14,0-8.57,3.43-13.72,11.43-13.72,26.86,0,48.58-29.15,56.58-71.44,9.72-59.44,35.43-87.44,64.58-87.44,18.86,0,36,8,45.15,21.72,9.72-13.72,26.86-21.72,45.72-21.72s32,6.29,43.43,18.86c10.86,12.57,17.14,36,18.29,72.01,2.86,46.86,12,68.01,36.58,68.01,19.43,0,33.72-11.43,46.29-29.72Z"/><path class="cls-7" d="m1287.44,4418.08c21.72,0,37.72,4.57,52.58,18.29v-172.59c0-8,5.14-11.43,13.14-11.43,8.57,0,13.14,3.43,13.14,11.43v269.17c0,25.15,12,42.29,32,42.29,8,0,10.86,4.57,10.86,13.14,0,8-2.86,13.14-10.86,13.14-23.43-.57-38.29-8-49.72-30.86-14.29,20.57-35.43,30.86-61.15,30.86-20.57,0-37.72-8.57-53.15-24-14.86-16.57-22.86-38.86-22.86-67.44,0-58.29,33.15-92.01,76.01-92.01Zm45.15,126.87c5.14-12.57,7.43-33.72,7.43-62.86-9.71-25.15-28-37.72-52.58-37.72-27.43,0-49.72,22.86-49.72,65.72s24,65.15,49.72,65.15c21.15,0,36-10.86,45.15-30.29Z"/><path class="cls-7" d="m1480.03,4583.81c-24,13.71-52.58,17.14-75.44,17.71-7.43,0-10.86-5.14-10.86-13.14,0-8.57,3.43-13.14,10.86-13.14,17.72-.57,40.58-3.43,56.58-11.43-12-18.29-19.43-40.58-19.43-62.29,0-12,1.71-23.43,4.57-36,10.86-30.86,30.29-46.86,58.86-47.43,33.15,1.14,49.15,19.43,48,56.01-1.71,23.43-8.57,45.15-21.14,61.72-9.14,13.72-18.86,24-28.57,32,9.14,5.14,21.72,7.43,32,7.43,8,0,10.86,4.57,10.86,13.14,0,8-2.86,13.14-10.86,13.14-17.72,0-38.29-3.43-55.43-17.71Zm4-34.29c19.43-15.43,40.58-41.72,42.86-78.87.57-17.72-6.86-26.29-23.43-26.29-14.29.57-25.15,10.29-31.43,30.86-2.86,9.72-4,18.86-4,26.86,0,17.71,5.14,33.15,16,47.43Z"/><path class="cls-7" d="m1613.76,4571.81c-18.29,17.72-40.58,29.15-72.01,29.72-8,0-11.43-5.14-11.43-13.14,0-8.57,3.43-13.14,11.43-13.14,15.43,0,30.86-5.14,45.15-15.43,27.43-20.57,57.72-77.72,71.44-132.01,1.14-6.29,6.29-9.72,13.14-9.72,6.29,0,10.29,3.43,13.14,10.29,1.71,7.43,14.29,21.14,34.86,40,21.14,20,34.86,44.58,34.86,68.58,0,41.15-26.86,64.58-60.58,64.58-26.29,0-55.43-9.14-80.01-29.72Zm91.44-80.01c-10.86-10.29-21.15-21.15-28-28-10.86,35.43-25.15,62.86-45.72,88.01,19.43,17.14,38.86,23.43,62.29,23.43,18.86,0,33.72-12.57,33.72-38.29,0-14.86-10.29-32.57-22.29-45.15Z"/><g class="cls-5"><path class="cls-8" d="m1398.55,4601.81c-24-.57-38.86-8-50.29-30.86-14.29,20.57-34.86,30.86-61.15,30.86-20,0-37.72-8.57-53.15-24-14.86-16.57-22.29-38.86-22.29-67.44,0-58.29,32.58-92.01,75.44-92.01,21.72,0,38.29,4.57,53.15,18.29v-172.02c0-8,4.57-11.43,13.14-11.43,8,0,13.14,3.43,13.14,11.43v268.6c0,25.15,11.43,42.29,32,42.29,18.86,0,33.15-11.43,45.15-29.72,4.57-5.71,10.86-5.71,17.15-1.14,7.43,5.14,9.14,10.86,4.57,16.57-16.57,23.43-37.15,40.58-66.86,40.58Zm-66.29-56.58c5.14-12.57,8-33.72,8-62.86-10.29-25.15-28-37.72-53.15-37.72-27.43,0-49.15,22.86-49.15,65.72s23.43,65.15,49.15,65.15c21.14,0,36-10.86,45.15-30.29Z"/></g><circle class="cls-9" cx="868.68" cy="2053.09" r="55.2"/><path class="cls-7" d="m535.21,2034.69c23.96,0,58.77,21.11,58.77,75.31,0,65.61-47.93,103.84-101.56,103.84-66.75,0-142.64-59.91-142.64-209.39,0-18.83.57-37.09,2.28-54.2-53.63-33.09-58.2-99.28-58.2-129.52,0-40.51,11.41-62.19,30.81-91.86,4.56-6.28,10.27-5.71,17.12-1.14s9.13,10.27,4.56,16.55c-16.55,25.1-26.25,43.36-26.25,76.45,0,22.25,2.85,67.9,35.37,96.99,19.97-134.08,86.15-221.95,166.6-221.95,23.96,0,91.86,4.56,91.86,90.72s-55.92,183.15-182.01,183.15c-21.11,0-39.37-2.85-54.2-7.42-1.14,13.69-1.71,27.96-1.71,42.22,0,130.09,62.19,182.01,116.39,182.01,39.94,0,75.31-27.96,75.31-76.46,0-34.8-18.83-47.93-32.52-47.93s-25.67,6.28-27.39,16.55c-1.14,7.99-6.85,9.7-15.41,8.56-7.99-1.14-12.55-5.13-11.41-13.12,3.99-23.96,29.67-39.37,54.2-39.37Zm-155.19-101.56c14.26,5.71,30.81,9.13,51.92,9.13,107.83,0,155.76-83.3,155.76-155.76,0-59.91-48.5-63.33-65.61-63.33-69.61,0-126.09,83.3-142.07,209.96Z"/><path class="cls-7" d="m717.21,2196.16c-24.53,13.69-53.63,17.12-75.88,17.69-7.99,0-11.41-5.14-11.41-13.12,0-8.56,3.42-13.69,11.41-13.69,17.69-.57,40.51-3.42,57.06-11.41-12.55-18.26-19.97-40.51-19.97-62.76,0-11.98,1.71-23.96,4.56-35.94,10.84-31.95,30.81-47.93,59.91-48.5,33.09,1.14,49.07,19.97,47.93,56.48-1.71,23.96-8.56,45.64-21.11,62.76-9.13,13.69-19.4,23.96-28.53,32.52,8.56,4.56,21.68,6.85,31.95,6.85,7.99,0,10.84,5.13,10.84,13.69,0,7.99-2.85,13.12-10.84,13.12-17.69,0-38.8-3.42-55.92-17.69Zm3.99-34.8c19.97-15.98,41.08-41.65,42.79-79.31.57-18.26-6.28-26.82-22.82-26.82-14.83.57-25.68,10.27-32.52,30.81-2.85,10.27-3.99,19.4-3.99,27.39,0,17.69,5.13,33.09,16.55,47.93Z"/><path class="cls-7" d="m1049.27,2119.7c2.85,46.79,12.55,67.9,36.52,67.9,7.42,0,10.84,4.56,10.84,13.12,0,7.99-3.42,13.12-10.84,13.12-39.94,0-59.34-28.53-62.76-93.57-1.14-27.39-3.99-44.5-10.84-52.49-6.28-6.85-13.69-10.84-23.39-10.84-20.54,0-31.38,15.41-31.95,42.22v103.84c0,7.42-5.13,10.84-13.12,10.84-8.56,0-13.12-3.42-13.12-10.84v-103.84c-.57-26.82-11.41-42.22-31.95-42.22-14.26,0-29.1,19.4-37.09,63.33-10.27,54.77-41.08,93.57-82.73,93.57-7.42,0-10.84-5.14-10.84-13.12,0-8.56,3.42-13.12,10.84-13.12,26.82,0,48.5-29.1,55.92-70.75,10.27-58.77,35.37-86.15,63.9-86.15,18.83,0,35.37,7.42,45.07,21.11,9.13-13.69,26.25-21.11,45.07-21.11,17.69,0,31.38,5.71,42.79,18.26,10.84,12.55,16.55,35.95,17.69,70.75Z"/><path class="cls-7" d="m1177.64,2196.16c-24.53,13.69-53.63,17.12-75.88,17.69-7.99,0-11.41-5.14-11.41-13.12,0-8.56,3.42-13.69,11.41-13.69,17.69-.57,40.51-3.42,57.06-11.41-12.55-18.26-19.97-40.51-19.97-62.76,0-11.98,1.71-23.96,4.56-35.94,10.84-31.95,30.81-47.93,59.91-48.5,33.09,1.14,49.07,19.97,47.93,56.48-1.71,23.96-8.56,45.64-21.11,62.76-9.13,13.69-19.4,23.96-28.53,32.52,8.56,4.56,21.68,6.85,31.95,6.85,7.99,0,10.84,5.13,10.84,13.69,0,7.99-2.85,13.12-10.84,13.12-17.69,0-38.8-3.42-55.92-17.69Zm3.99-34.8c19.97-15.98,41.08-41.65,42.79-79.31.57-18.26-6.28-26.82-22.82-26.82-14.83.57-25.67,10.27-32.52,30.81-2.85,10.27-3.99,19.4-3.99,27.39,0,17.69,5.13,33.09,16.55,47.93Z"/><path class="cls-7" d="m1412.14,2208.14c-2.85,3.42-7.42,5.71-11.98,5.71-13.12,0-17.12-4.56-13.12-15.41,14.83-25.67,22.25-51.35,25.1-77.03,1.14-8.56,1.14-15.98,1.14-22.25,0-14.26-1.71-23.96-5.71-30.81-4.56-8.56-14.26-13.12-29.1-13.12-5.13,0-13.12,2.28-19.97,4.56-6.28,1.71-9.13,3.42-16.55,3.42-1.14,18.83-5.71,39.37-13.69,62.19-8.56,26.25-20.54,46.79-35.95,63.33-15.4,16.55-33.09,25.1-53.63,25.1-7.99,0-11.41-5.14-11.41-13.12,0-8.56,3.42-13.69,11.41-13.69,19.4,0,37.09-13.69,52.49-42.79,15.41-29.67,23.96-61.05,23.96-91.29v-13.12c0-7.99,5.14-11.41,13.12-11.41,6.28,0,11.41,2.85,13.12,8.56,1.71,0,3.99-1.14,7.42-2.28,8.56-2.28,19.4-6.28,29.67-6.28,43.36,0,64.47,26.25,61.05,83.87-1.14,20.54-6.85,46.79-12.55,62.76h7.42c23.96,0,41.65,11.98,54.77,36.52l37.66-30.24c5.71-4.56,11.41-3.42,16.55,2.85,5.71,6.85,5.71,13.69-.57,18.26l-31.95,25.67-10.27,9.13c7.99,26.25,11.98,59.34,11.98,95.85,0,58.2-6.85,108.98-18.26,149.49-12.55,39.94-34.8,65.04-63.33,65.04-19.4,0-35.94-11.98-48.5-33.09-11.98-20.54-18.26-47.93-18.26-79.31,0-33.09,9.7-71.32,27.96-108.98,17.69-35.95,45.07-70.18,76.46-97.57-7.99-18.26-18.83-26.82-34.23-26.82-9.7,0-18.26,2.85-22.25,6.28Zm65.61,47.93c-25.68,23.39-46.79,50.21-61.62,82.16-16.55,34.23-25.1,65.61-25.1,97,0,49.64,17.69,86.15,39.94,86.15,17.69,0,30.81-18.26,39.94-54.2,10.27-38.23,14.83-83.3,14.83-134.08,0-29.67-2.85-54.77-7.99-77.03Z"/><g class="cls-10"><path class="cls-8" d="m1049.27,2119.7c2.85,46.79,12.55,67.9,36.52,67.9,7.42,0,10.84,4.56,10.84,13.12,0,7.99-3.42,13.12-10.84,13.12-39.94,0-59.34-28.53-62.76-93.57-1.14-27.39-3.99-44.5-10.84-52.49-6.28-6.85-13.69-10.84-23.39-10.84-20.54,0-31.38,15.41-31.95,42.22v103.84c0,7.42-5.13,10.84-13.12,10.84-8.56,0-13.12-3.42-13.12-10.84v-103.84c-.57-26.82-11.41-42.22-31.95-42.22-14.26,0-29.1,19.4-37.09,63.33-10.27,54.77-41.08,93.57-82.73,93.57-7.42,0-10.84-5.14-10.84-13.12,0-8.56,3.42-13.12,10.84-13.12,26.82,0,48.5-29.1,55.92-70.75,10.27-58.77,35.37-86.15,63.9-86.15,18.83,0,35.37,7.42,45.07,21.11,9.13-13.69,26.25-21.11,45.07-21.11,17.69,0,31.38,5.71,42.79,18.26,10.84,12.55,16.55,35.95,17.69,70.75Z"/></g><g class="cls-13"><path class="cls-8" d="m1412.14,2208.14c-2.85,3.42-7.42,5.71-11.98,5.71-13.12,0-17.12-4.56-13.12-15.41,14.83-25.67,22.25-51.35,25.1-77.03,1.14-8.56,1.14-15.98,1.14-22.25,0-14.26-1.71-23.96-5.71-30.81-4.56-8.56-14.26-13.12-29.1-13.12-5.13,0-13.12,2.28-19.97,4.56-6.28,1.71-9.13,3.42-16.55,3.42-1.14,18.83-5.71,39.37-13.69,62.19-8.56,26.25-20.54,46.79-35.95,63.33-15.4,16.55-33.09,25.1-53.63,25.1-7.99,0-11.41-5.14-11.41-13.12,0-8.56,3.42-13.69,11.41-13.69,19.4,0,37.09-13.69,52.49-42.79,15.41-29.67,23.96-61.05,23.96-91.29v-13.12c0-7.99,5.14-11.41,13.12-11.41,6.28,0,11.41,2.85,13.12,8.56,1.71,0,3.99-1.14,7.42-2.28,8.56-2.28,19.4-6.28,29.67-6.28,43.36,0,64.47,26.25,61.05,83.87-1.14,20.54-6.85,46.79-12.55,62.76h7.42c23.96,0,41.65,11.98,54.77,36.52l37.66-30.24c5.71-4.56,11.41-3.42,16.55,2.85,5.71,6.85,5.71,13.69-.57,18.26l-31.95,25.67-10.27,9.13c7.99,26.25,11.98,59.34,11.98,95.85,0,58.2-6.85,108.98-18.26,149.49-12.55,39.94-34.8,65.04-63.33,65.04-19.4,0-35.94-11.98-48.5-33.09-11.98-20.54-18.26-47.93-18.26-79.31,0-33.09,9.7-71.32,27.96-108.98,17.69-35.95,45.07-70.18,76.46-97.57-7.99-18.26-18.83-26.82-34.23-26.82-9.7,0-18.26,2.85-22.25,6.28Zm65.61,47.93c-25.68,23.39-46.79,50.21-61.62,82.16-16.55,34.23-25.1,65.61-25.1,97,0,49.64,17.69,86.15,39.94,86.15,17.69,0,30.81-18.26,39.94-54.2,10.27-38.23,14.83-83.3,14.83-134.08,0-29.67-2.85-54.77-7.99-77.03Z"/></g><path class="cls-7" d="m1129.6,3403.52c16.86,33.71,30.9,67.42,41.58,98.89,12.36,34.27,17.98,69.67,17.98,107.32,0,83.15-30.9,123.05-70.79,123.05-31.46,0-58.43-32.03-58.43-106.19v-257.89l-1.69-2.25c-15.17,21.35-36.52,37.08-65.74,37.64-7.3,0-10.67-5.06-10.67-12.92,0-8.43,3.37-13.48,10.67-13.48,11.8-.56,21.35-4.5,30.9-11.24,8.99-8.43,21.35-26.41,36.52-53.94v-309.58c0-32.59,6.74-59,20.23-78.66,13.48-20.23,29.78-30.34,47.2-30.34,35.96,0,61.8,30.9,61.8,109,0,35.96-6.18,78.1-19.1,127.54-12.36,48.32-39.89,111.81-84.28,189.35v17.42c8.43,6.18,17.42,17.42,28.09,35.96,10.11,2.81,20.23,4.5,28.09,4.5,7.3,0,10.67,5.06,10.67,13.48,0,7.87-3.37,12.92-10.67,12.92-3.37,0-7.87,0-12.36-.56Zm-43.83-138.78c28.66-54.5,50.01-105.63,59.56-144.4,11.8-44.95,17.98-83.72,17.98-117.43,0-60.12-15.73-82.59-35.96-82.59s-41.58,32.03-41.58,82.59v261.83Zm0,361.84c0,57.31,16.29,80.35,32.59,80.35,25.28-.56,44.95-32.59,44.95-97.2,0-31.46-5.62-64.61-15.73-96.64-10.11-30.9-26.97-70.23-51.69-117.43-2.81-1.12-8.43-2.81-10.11-3.93v234.86Z"/><path class="cls-7" d="m1250.4,3385.54c-10.68-9.55-19.67-20.23-25.28-32.03-20.79,35.4-42.7,50-73.6,50.57-7.3,0-10.67-5.06-10.67-12.92,0-8.43,3.37-13.48,10.67-13.48,11.8-.56,21.35-4.5,30.9-11.24,8.99-8.43,21.35-26.41,36.52-53.94v-309.58c0-32.59,6.74-59,20.23-78.66,13.48-20.23,29.78-30.34,47.2-30.34,35.96,0,61.8,30.9,61.8,109,0,35.96-6.18,78.1-19.1,127.54-12.36,48.32-39.89,111.81-84.28,189.35v3.93c0,12.92,6.18,25.84,17.98,37.08,11.24,11.8,24.16,16.86,38.21,16.86,7.3,0,10.67,5.06,10.67,13.48,0,7.87-3.37,12.92-10.67,12.92-18.54,0-35.96-6.74-50.57-18.54Zm-5.62-120.8c28.66-54.5,50.01-105.63,59.56-144.4,11.8-44.95,17.98-83.72,17.98-117.43,0-60.12-15.73-82.59-35.96-82.59s-41.58,32.03-41.58,82.59v261.83Z"/><g class="cls-12"><path class="cls-8" d="m1329.06,3130.46c12.92-49.44,19.1-91.58,19.1-127.54,0-78.1-25.84-109-61.8-109-17.42,0-33.71,10.11-47.2,30.34-13.49,19.67-20.23,46.07-20.23,78.66v309.58c-15.17,27.53-27.53,45.51-36.52,53.94-9.55,6.74-19.1,10.67-30.9,11.24-1.84,0-3.43.32-4.77.93-1.35-.61-2.94-.93-4.77-.93-7.87,0-17.98-1.69-28.09-4.5-10.67-18.54-19.67-29.78-28.09-35.96v-17.42c44.39-77.54,71.92-141.03,84.28-189.35,12.92-49.44,19.1-91.58,19.1-127.54,0-78.1-25.84-109-61.8-109-17.42,0-33.71,10.11-47.2,30.34-13.48,19.67-20.23,46.07-20.23,78.66v309.58c-15.17,27.53-27.53,45.51-36.52,53.94-9.55,6.74-19.1,10.67-30.9,11.24-7.3,0-10.67,5.06-10.67,13.48,0,7.87,3.37,12.92,10.67,12.92,29.22-.56,50.57-16.29,65.74-37.64l1.69,2.25v257.89c0,74.17,26.97,106.19,58.43,106.19,39.89,0,70.79-39.89,70.79-123.05,0-37.64-5.62-73.04-17.98-107.32-10.67-31.46-24.72-65.18-41.58-98.89,4.5.56,8.99.56,12.36.56,1.84,0,3.43-.32,4.77-.93,1.35.6,2.94.93,4.77.93,30.9-.56,52.81-15.17,73.6-50.57,5.62,11.8,14.61,22.47,25.28,32.03,14.61,11.8,32.03,18.54,50.57,18.54,7.3,0,10.67-5.06,10.67-12.92,0-8.43-3.37-13.48-10.67-13.48-14.05,0-26.97-5.06-38.21-16.86-11.8-11.24-17.98-24.16-17.98-37.08v-3.93c44.39-77.54,71.92-141.03,84.28-189.35Zm-84.28-127.54c0-50.57,20.79-82.59,41.58-82.59s35.96,22.47,35.96,82.59c0,33.71-6.18,72.48-17.98,117.43-9.55,38.77-30.9,89.9-59.56,144.4v-261.83Zm-159,0c0-50.57,20.79-82.59,41.58-82.59s35.96,22.47,35.96,82.59c0,33.71-6.18,72.48-17.98,117.43-9.55,38.77-30.9,89.9-59.56,144.4v-261.83Zm61.8,510.17c10.11,32.03,15.73,65.18,15.73,96.64,0,64.61-19.67,96.64-44.95,97.2-16.29,0-32.59-23.04-32.59-80.35v-234.86c1.69,1.12,7.3,2.81,10.11,3.93,24.72,47.2,41.58,86.53,51.69,117.43Z"/></g><path class="cls-7" d="m250.54,3869.29c0-11.72,6.76-16.93,15.46-16.93,7.94,0,14.7,5.21,14.7,16.59,0,12.48-6.76,17.26-15.08,17.26s-15.08-4.79-15.08-16.93Zm27.05,0c0-10.12-5.33-14.24-12.01-14.24s-11.93,4.12-11.93,14.24,5.33,14.2,12.01,14.2,11.93-3.74,11.93-14.2Z"/><path class="cls-7" d="m286.99,3864.67h2.6l.29,3.91c1.01-2.14,3.07-4.45,6.76-4.45,1.26,0,2.18.21,3.02.55v3.15c-1.13-.5-2.1-.76-3.4-.76-3.74,0-6.34,2.81-6.34,5.75v12.85h-2.94v-21Z"/><path class="cls-7" d="m304.3,3864.67h2.6l.29,3.49c1.01-2.14,3.28-4.03,7.35-4.03,4.75,0,7.77,2.52,7.77,7.94v13.61h-2.94v-13.27c0-4.33-2.14-5.71-5.5-5.71-3.82,0-6.64,2.69-6.64,5.63v13.36h-2.94v-21Z"/><path class="cls-7" d="m328.4,3879.87c0-3.95,2.23-6.09,7.86-6.09h6.34v-1.72c0-2.98-1.26-5.42-5.46-5.42-3.95,0-5.33,1.51-5.33,4.12v.88h-2.98v-.84c0-5,4.2-6.68,8.32-6.68,5.8,0,8.4,2.86,8.4,8.44v13.11h-2.06l-.55-2.98h-.08c-1.26,1.89-3.7,3.53-7.35,3.53-4.92,0-7.1-2.31-7.1-6.34Zm14.2-1.85v-1.76h-7.01c-2.65,0-4.03.92-4.03,3.61,0,2.35,1.26,3.87,4.5,3.87,4.16,0,6.55-2.14,6.55-5.71Z"/><path class="cls-7" d="m363.64,3882.98v2.6c-.76.21-2.14.59-4.03.59-3.82,0-6.34-1.6-6.34-6.89v-12.18h-4.16v-2.44h4.16v-6.05l2.94-1.43v7.48h5.92v2.44h-5.92v11.8c0,2.81.76,4.58,3.4,4.58,1.6,0,3.23-.29,4.03-.5Z"/><path class="cls-7" d="m385.11,3876.18h-15.96c.17,4.79,2.48,7.48,6.93,7.48,3.82,0,5.67-1.43,5.97-4.83h2.98c-.29,4.24-3.28,7.39-9.03,7.39-7.06,0-9.83-4.66-9.83-10.88s3.23-11.22,10-11.22,8.95,3.99,8.95,10.21v1.85Zm-3.11-2.98c0-4.45-1.72-6.55-5.92-6.55s-6.55,2.65-6.89,6.97h12.81v-.42Z"/><path class="cls-7" d="m400.22,3878.28v-13.61h2.94v13.27c0,4.33,2.14,5.71,5.42,5.71,3.74,0,6.55-2.69,6.55-5.63v-13.36h2.94v21h-2.6l-.25-3.36h-.08c-.97,2.02-3.23,3.91-7.23,3.91-4.66,0-7.69-2.52-7.69-7.94Z"/><path class="cls-7" d="m425.42,3864.67h2.39l.34,3.87h.08c1.13-2.48,4.03-4.41,7.86-4.41,6.3,0,9.66,3.99,9.66,11.01s-4.29,11.09-9.87,11.09c-3.78,0-6.38-1.6-7.43-3.7h-.08v11.55h-2.94v-29.41Zm17.18,10.63c0-7.18-3.4-8.61-6.93-8.61-4.24,0-7.56,2.73-7.56,8.44,0,6.01,3.45,8.57,7.44,8.57,3.02,0,7.06-1.47,7.06-8.4Z"/><path class="cls-7" d="m451.63,3864.67h2.39l.34,3.87h.08c1.13-2.48,4.03-4.41,7.86-4.41,6.3,0,9.66,3.99,9.66,11.01s-4.29,11.09-9.87,11.09c-3.78,0-6.38-1.6-7.43-3.7h-.08v11.55h-2.94v-29.41Zm17.18,10.63c0-7.18-3.4-8.61-6.93-8.61-4.24,0-7.56,2.73-7.56,8.44,0,6.01,3.45,8.57,7.44,8.57,3.02,0,7.06-1.47,7.06-8.4Z"/><path class="cls-7" d="m495.11,3876.18h-15.96c.17,4.79,2.48,7.48,6.93,7.48,3.82,0,5.67-1.43,5.97-4.83h2.98c-.29,4.24-3.28,7.39-9.03,7.39-7.06,0-9.83-4.66-9.83-10.88s3.23-11.22,10-11.22,8.95,3.99,8.95,10.21v1.85Zm-3.11-2.98c0-4.45-1.72-6.55-5.92-6.55s-6.55,2.65-6.89,6.97h12.81v-.42Z"/><path class="cls-7" d="m500.98,3864.67h2.6l.29,3.91c1.01-2.14,3.07-4.45,6.76-4.45,1.26,0,2.18.21,3.02.55v3.15c-1.13-.5-2.1-.76-3.4-.76-3.74,0-6.34,2.81-6.34,5.75v12.85h-2.94v-21Z"/><path class="cls-7" d="m515.98,3875.33c0-6.38,3.23-11.22,10-11.22s8.95,3.91,8.95,8.95v.42h-3.11v-.63c0-3.82-1.64-6.09-5.84-6.09-4.75,0-7.02,3.11-7.02,8.4,0,5.63,2.39,8.49,6.93,8.49,3.82,0,5.84-1.85,5.92-5.67h3.02c-.08,4.66-3.15,8.23-9.03,8.23-7.22,0-9.83-4.75-9.83-10.88Z"/><path class="cls-7" d="m539.33,3879.87c0-3.95,2.23-6.09,7.86-6.09h6.34v-1.72c0-2.98-1.26-5.42-5.46-5.42-3.95,0-5.33,1.51-5.33,4.12v.88h-2.98v-.84c0-5,4.2-6.68,8.32-6.68,5.8,0,8.4,2.86,8.4,8.44v13.11h-2.06l-.55-2.98h-.08c-1.26,1.89-3.7,3.53-7.35,3.53-4.92,0-7.1-2.31-7.1-6.34Zm14.2-1.85v-1.76h-7.01c-2.65,0-4.03.92-4.03,3.61,0,2.35,1.26,3.87,4.5,3.87,4.16,0,6.55-2.14,6.55-5.71Z"/><path class="cls-7" d="m561.92,3879.24v-1.18h2.94v1.13c0,2.86,2.14,4.5,5.96,4.5s5.8-1.01,5.8-3.78c0-2.06-1.01-2.81-3.86-3.32l-4.62-.84c-3.02-.55-5.54-2.02-5.54-5.5,0-3.15,2.35-6.13,8.4-6.13s8.4,3.02,8.4,7.23v.88h-2.98v-.76c0-3.44-2.14-4.92-5.42-4.92-3.95,0-5.33,1.34-5.33,3.36s1.01,2.86,3.91,3.4l4.03.76c4.12.76,6.09,1.93,6.09,5.59,0,4.58-4.12,6.55-8.78,6.55-7.31,0-8.99-3.28-8.99-6.97Z"/><path class="cls-7" d="m602.83,3876.18h-15.96c.17,4.79,2.48,7.48,6.93,7.48,3.82,0,5.67-1.43,5.97-4.83h2.98c-.29,4.24-3.28,7.39-9.03,7.39-7.06,0-9.83-4.66-9.83-10.88s3.23-11.22,10-11.22,8.95,3.99,8.95,10.21v1.85Zm-3.11-2.98c0-4.45-1.72-6.55-5.92-6.55s-6.55,2.65-6.89,6.97h12.81v-.42Z"/><path class="cls-7" d="m618.37,3852.9h2.94v32.77h-2.94v-32.77Z"/><path class="cls-7" d="m645.93,3876.18h-15.96c.17,4.79,2.48,7.48,6.93,7.48,3.82,0,5.67-1.43,5.97-4.83h2.98c-.29,4.24-3.28,7.39-9.03,7.39-7.06,0-9.83-4.66-9.83-10.88s3.23-11.22,10-11.22,8.95,3.99,8.95,10.21v1.85Zm-3.11-2.98c0-4.45-1.72-6.55-5.92-6.55s-6.55,2.65-6.89,6.97h12.81v-.42Z"/><path class="cls-7" d="m652.39,3879.28v-12.18h-4.16v-2.44h4.16v-6.05l2.94-1.43v7.48h11.85v-6.05l2.94-1.43v7.48h5.92v2.44h-5.92v11.8c0,2.81.76,4.58,3.4,4.58,1.6,0,3.24-.29,4.03-.5v2.6c-.76.21-2.14.59-4.03.59-3.82,0-6.34-1.6-6.34-6.89v-12.18h-11.85v11.8c0,2.81.76,4.58,3.4,4.58,1.6,0,3.23-.29,4.03-.5v2.6c-.76.21-2.14.59-4.03.59-3.82,0-6.34-1.6-6.34-6.89Z"/><path class="cls-7" d="m699.01,3876.18h-15.96c.17,4.79,2.48,7.48,6.93,7.48,3.82,0,5.67-1.43,5.97-4.83h2.98c-.29,4.24-3.28,7.39-9.03,7.39-7.06,0-9.83-4.66-9.83-10.88s3.23-11.22,10-11.22,8.95,3.99,8.95,10.21v1.85Zm-3.11-2.98c0-4.45-1.72-6.55-5.92-6.55s-6.55,2.65-6.89,6.97h12.81v-.42Z"/><path class="cls-7" d="m704.89,3864.67h2.6l.29,3.91c1.01-2.14,3.07-4.45,6.76-4.45,1.26,0,2.18.21,3.02.55v3.15c-1.13-.5-2.1-.76-3.4-.76-3.74,0-6.34,2.81-6.34,5.75v12.85h-2.94v-21Z"/><path class="cls-7" d="m720.09,3879.24v-1.18h2.94v1.13c0,2.86,2.14,4.5,5.96,4.5s5.8-1.01,5.8-3.78c0-2.06-1.01-2.81-3.86-3.32l-4.62-.84c-3.02-.55-5.54-2.02-5.54-5.5,0-3.15,2.35-6.13,8.4-6.13s8.4,3.02,8.4,7.23v.88h-2.98v-.76c0-3.44-2.14-4.92-5.42-4.92-3.95,0-5.33,1.34-5.33,3.36s1.01,2.86,3.91,3.4l4.03.76c4.12.76,6.09,1.93,6.09,5.59,0,4.58-4.12,6.55-8.78,6.55-7.31,0-8.99-3.28-8.99-6.97Z"/><line class="cls-3" x1="581.82" y1="3429.59" x2="581.82" y2="3830.68"/><path class="cls-9" d="m1705.2,4491.8c-10.86-10.29-21.15-21.15-28-28-10.86,35.43-25.15,62.86-45.72,88.01,19.43,17.14,38.86,23.43,62.29,23.43,18.86,0,33.72-12.57,33.72-38.29,0-14.86-10.29-32.57-22.29-45.15Z"/><path class="cls-7" d="m1422.47,5024.43c0-12.01,6.76-17.26,14.74-17.26,6.97,0,12.39,3.74,12.39,12.01v.8h-2.86v-.92c0-5.92-3.78-9.24-9.45-9.24-6.72,0-11.76,4.58-11.76,14.32s5.04,14.24,11.72,14.24c5.38,0,9.54-2.86,9.54-9.2v-.59h2.77v.42c0,8.02-5.33,12.01-12.56,12.01-7.98,0-14.53-4.87-14.53-16.59Z"/><path class="cls-7" d="m1455.9,5007.71h2.94v32.77h-2.94v-32.77Z"/><path class="cls-7" d="m1464.51,5029.98c0-6.22,3.32-11.05,10.38-11.05,6.59,0,10.25,4.83,10.25,11.05s-3.7,11.05-10.29,11.05c-7.27,0-10.33-4.83-10.33-11.05Zm17.56,0c0-5.33-2.9-8.49-7.22-8.49-4.75,0-7.27,3.15-7.27,8.49s2.56,8.49,7.27,8.49c4.33,0,7.22-3.15,7.22-8.49Z"/><path class="cls-7" d="m1489.12,5034.05v-1.18h2.94v1.13c0,2.86,2.14,4.5,5.96,4.5s5.8-1.01,5.8-3.78c0-2.06-1.01-2.81-3.86-3.32l-4.62-.84c-3.02-.55-5.54-2.02-5.54-5.5,0-3.15,2.35-6.13,8.4-6.13s8.4,3.02,8.4,7.23v.88h-2.98v-.76c0-3.44-2.14-4.92-5.42-4.92-3.95,0-5.33,1.34-5.33,3.36s1.01,2.86,3.91,3.4l4.03.76c4.12.76,6.09,1.93,6.09,5.59,0,4.58-4.12,6.55-8.78,6.55-7.31,0-8.99-3.28-8.99-6.97Z"/><path class="cls-7" d="m1530.04,5030.99h-15.96c.17,4.79,2.48,7.48,6.93,7.48,3.82,0,5.67-1.43,5.97-4.83h2.98c-.29,4.24-3.28,7.39-9.03,7.39-7.06,0-9.83-4.66-9.83-10.88s3.23-11.22,10-11.22,8.95,3.99,8.95,10.21v1.85Zm-3.11-2.98c0-4.45-1.72-6.55-5.92-6.55s-6.55,2.65-6.89,6.97h12.81v-.42Z"/><path class="cls-7" d="m1534.23,5030.02c0-7.1,4.28-11.09,10.04-11.09,3.7,0,6.22,1.6,7.31,3.74h.04v-14.96h2.94v32.77h-1.97l-.67-3.61h-.08c-1.18,2.31-3.95,4.16-7.77,4.16-6.3,0-9.83-3.99-9.83-11.01Zm17.64-.5c0-5.5-3.36-8.07-7.35-8.07-3.11,0-7.14,1.47-7.14,8.4s3.61,8.61,7.14,8.61c4.24,0,7.35-2.73,7.35-8.95Z"/><path class="cls-7" d="m1569.68,5034.05v-1.18h2.94v1.13c0,2.86,2.14,4.5,5.96,4.5s5.8-1.01,5.8-3.78c0-2.06-1.01-2.81-3.86-3.32l-4.62-.84c-3.02-.55-5.54-2.02-5.54-5.5,0-3.15,2.35-6.13,8.4-6.13s8.4,3.02,8.4,7.23v.88h-2.98v-.76c0-3.44-2.14-4.92-5.42-4.92-3.95,0-5.33,1.34-5.33,3.36s1.01,2.86,3.91,3.4l4.03.76c4.12.76,6.09,1.93,6.09,5.59,0,4.58-4.12,6.55-8.78,6.55-7.31,0-8.99-3.28-8.99-6.97Z"/><path class="cls-7" d="m1593.33,5007.71h2.94v15.17c1.05-2.1,3.28-3.95,7.31-3.95,4.75,0,7.77,2.52,7.77,7.94v13.61h-2.94v-13.27c0-4.33-2.14-5.71-5.5-5.71-3.82,0-6.64,2.69-6.64,5.63v13.36h-2.94v-32.77Z"/><path class="cls-7" d="m1617.43,5034.68c0-3.95,2.23-6.09,7.86-6.09h6.34v-1.72c0-2.98-1.26-5.42-5.46-5.42-3.95,0-5.33,1.51-5.33,4.12v.88h-2.98v-.84c0-5,4.2-6.68,8.32-6.68,5.8,0,8.4,2.86,8.4,8.44v13.11h-2.06l-.55-2.98h-.08c-1.26,1.89-3.7,3.53-7.35,3.53-4.92,0-7.1-2.31-7.1-6.34Zm14.2-1.85v-1.76h-7.01c-2.65,0-4.03.92-4.03,3.61,0,2.35,1.26,3.87,4.5,3.87,4.16,0,6.55-2.14,6.55-5.71Z"/><path class="cls-7" d="m1641.92,5019.47h2.39l.34,3.87h.08c1.13-2.48,4.03-4.41,7.86-4.41,6.3,0,9.66,3.99,9.66,11.01s-4.29,11.09-9.87,11.09c-3.78,0-6.38-1.6-7.43-3.7h-.08v11.55h-2.94v-29.41Zm17.18,10.63c0-7.18-3.4-8.61-6.93-8.61-4.24,0-7.56,2.73-7.56,8.44,0,6.01,3.45,8.57,7.44,8.57,3.02,0,7.06-1.47,7.06-8.4Z"/><path class="cls-7" d="m1685.39,5030.99h-15.96c.17,4.79,2.48,7.48,6.93,7.48,3.82,0,5.67-1.43,5.97-4.83h2.98c-.29,4.24-3.28,7.39-9.03,7.39-7.06,0-9.83-4.66-9.83-10.88s3.23-11.22,10-11.22,8.95,3.99,8.95,10.21v1.85Zm-3.11-2.98c0-4.45-1.72-6.55-5.92-6.55s-6.55,2.65-6.89,6.97h12.81v-.42Z"/><path class="cls-7" d="m1699.25,5029.98c0-6.22,3.32-11.05,10.38-11.05,6.59,0,10.25,4.83,10.25,11.05s-3.7,11.05-10.29,11.05c-7.27,0-10.33-4.83-10.33-11.05Zm17.56,0c0-5.33-2.9-8.49-7.22-8.49-4.75,0-7.27,3.15-7.27,8.49s2.56,8.49,7.27,8.49c4.33,0,7.22-3.15,7.22-8.49Z"/><path class="cls-7" d="m1729.91,5014.43v5.04h5.92v2.44h-5.92v18.57h-2.94v-18.57h-4.16v-2.44h4.16v-5.42c0-5.29,3.15-6.89,6.38-6.89,1.85,0,2.98.29,3.74.55v2.6c-.71-.21-1.89-.46-3.49-.46-2.65,0-3.7,1.76-3.7,4.58Z"/><path class="cls-7" d="m1751.79,5018.17h-3.36v-5.08c0-3.95.88-5.29,3.4-5.96l.67,1.85c-1.76.67-2.06,1.09-2.06,3.78v.34h1.34v5.08Zm5.92,0h-3.36v-5.08c0-3.95.88-5.29,3.4-5.96l.67,1.85c-1.76.67-2.06,1.09-2.06,3.78v.34h1.34v5.08Z"/><path class="cls-7" d="m1759.68,5034.05v-1.18h2.94v1.13c0,2.86,2.14,4.5,5.96,4.5s5.8-1.01,5.8-3.78c0-2.06-1.01-2.81-3.86-3.32l-4.62-.84c-3.02-.55-5.54-2.02-5.54-5.5,0-3.15,2.35-6.13,8.4-6.13s8.4,3.02,8.4,7.23v.88h-2.98v-.76c0-3.44-2.14-4.92-5.42-4.92-3.95,0-5.33,1.34-5.33,3.36s1.01,2.86,3.91,3.4l4.03.76c4.12.76,6.09,1.93,6.09,5.59,0,4.58-4.12,6.55-8.78,6.55-7.31,0-8.99-3.28-8.99-6.97Z"/><path class="cls-7" d="m1779.76,5016.91c1.76-.67,2.06-1.09,2.06-3.78v-.34h-1.34v-5.08h3.36v5.08c0,3.95-.88,5.29-3.4,5.96l-.67-1.85Zm5.92,0c1.76-.67,2.06-1.09,2.06-3.78v-.34h-1.34v-5.08h3.36v5.08c0,3.95-.88,5.29-3.4,5.96l-.67-1.85Z"/><line class="cls-3" x1="1675.66" y1="4624.4" x2="1675.66" y2="4995.49"/><g class="cls-11"><path class="cls-8" d="m1129.6,3403.52c16.86,33.71,30.9,67.42,41.58,98.89,12.36,34.27,17.98,69.67,17.98,107.32,0,83.15-30.9,123.05-70.79,123.05-31.46,0-58.43-32.03-58.43-106.19v-257.89l-1.69-2.25c-15.17,21.35-36.52,37.08-65.74,37.64-7.3,0-10.67-5.06-10.67-12.92,0-8.43,3.37-13.48,10.67-13.48,11.8-.56,21.35-4.5,30.9-11.24,8.99-8.43,21.35-26.41,36.52-53.94v-309.58c0-32.59,6.74-59,20.23-78.66,13.48-20.23,29.78-30.34,47.2-30.34,35.96,0,61.8,30.9,61.8,109,0,35.96-6.18,78.1-19.1,127.54-12.36,48.32-39.89,111.81-84.28,189.35v17.42c8.43,6.18,17.42,17.42,28.09,35.96,10.11,2.81,20.23,4.5,28.09,4.5,7.3,0,10.67,5.06,10.67,13.48,0,7.87-3.37,12.92-10.67,12.92-3.37,0-7.87,0-12.36-.56Zm-43.83-138.78c28.66-54.5,50.01-105.63,59.56-144.4,11.8-44.95,17.98-83.72,17.98-117.43,0-60.12-15.73-82.59-35.96-82.59s-41.58,32.03-41.58,82.59v261.83Zm0,361.84c0,57.31,16.29,80.35,32.59,80.35,25.28-.56,44.95-32.59,44.95-97.2,0-31.46-5.62-64.61-15.73-96.64-10.11-30.9-26.97-70.23-51.69-117.43-2.81-1.12-8.43-2.81-10.11-3.93v234.86Z"/></g></g></svg>