<?xml version="1.0" encoding="UTF-8"?> <svg xmlns="http://www.w3.org/2000/svg" id="skolsko-rupokisno-pismo" viewBox="0 0 450 335"><defs><style>.cls-1{fill:#fff;}.cls-2{fill:#ececec;}.cls-3{fill:#bca5cf;}.cls-4{fill:#111035;}</style></defs><rect class="cls-1" width="450" height="335"></rect><rect class="cls-2" y="199.03" width="450" height="65.21"></rect><rect class="cls-2" y="70.91" width="450" height="64.73"></rect><rect class="cls-3" x="224.31" y="70.91" width="18.64" height="193.34"></rect><path class="cls-4" d="m96.73,82.13c.76,1.19.79,2.28.08,3.25-.71.98-1.6,1.46-2.68,1.46-.98,0-1.79-.49-2.44-1.46-1.52-2.49-3.33-4.5-5.45-6.02-2.12-1.52-4.26-2.28-6.43-2.28s-4.26.54-6.26,1.63c-2.01,1.09-3.77,2.63-5.29,4.64-1.52,2.01-2.71,4.45-3.58,7.32-.87,2.88-1.3,6.1-1.3,9.68s.51,6.65,1.55,9.52c1.03,2.88,2.36,5.34,3.99,7.4,1.63,2.06,3.5,3.66,5.61,4.8,2.11,1.14,4.31,1.71,6.59,1.71,1.08,0,1.9.33,2.44.98.54.65.81,1.33.81,2.03s-.27,1.38-.81,2.03c-.54.65-1.36.98-2.44.98-3.04,0-5.94.81-8.7,2.44-2.77,1.63-5.23,3.88-7.4,6.75-2.17,2.88-3.9,6.32-5.21,10.33-1.3,4.01-1.95,8.41-1.95,13.18s.65,9.09,1.95,12.93c1.3,3.85,3.01,7.16,5.12,9.92,2.12,2.77,4.58,4.91,7.4,6.43,2.82,1.52,5.75,2.28,8.79,2.28.98,0,1.71.33,2.2.98.49.65.73,1.33.73,2.03s-.24,1.38-.73,2.03-1.22.98-2.2.98c-4.23,0-8.14-.98-11.71-2.93-3.58-1.95-6.67-4.64-9.27-8.05-2.6-3.42-4.64-7.4-6.1-11.96-1.46-4.56-2.2-9.44-2.2-14.64,0-8.03,1.63-15.24,4.88-21.64,3.25-6.4,7.75-11.12,13.5-14.15-3.8-2.49-6.89-6.1-9.27-10.82-2.39-4.72-3.58-9.9-3.58-15.54,0-3.9.54-7.65,1.63-11.23,1.08-3.58,2.6-6.7,4.56-9.36,1.95-2.66,4.31-4.77,7.08-6.35,2.77-1.57,5.83-2.36,9.19-2.36,3.69,0,6.97,1.11,9.84,3.34,2.87,2.22,5.23,4.8,7.08,7.73Zm38.56,58.25l-32.05,46.53c-1.09,1.63-2.41,3.23-3.99,4.8-1.57,1.57-3.34,2.98-5.29,4.23-1.95,1.25-4.01,2.25-6.18,3.01-2.17.76-4.39,1.14-6.67,1.14-.65,0-1.17-.33-1.55-.98-.38-.65-.57-1.36-.57-2.12s.19-1.44.57-2.03c.38-.59.9-.9,1.55-.9,1.95,0,3.88-.41,5.78-1.22,1.9-.81,3.6-1.82,5.12-3.01,1.52-1.19,2.87-2.44,4.07-3.74,1.19-1.3,2.11-2.44,2.77-3.42l32.05-46.21c.98-1.41,1.95-2.11,2.93-2.11s1.68.68,2.11,2.03c.43,1.36.22,2.68-.65,3.99Z"></path><path class="cls-4" d="m161.48,94.99c-.22,3.47-1.22,7.24-3.01,11.31-1.79,4.07-3.96,8.11-6.51,12.12-2.55,4.01-5.23,7.84-8.05,11.47-2.82,3.64-5.37,6.75-7.65,9.36l.16,121.21c0,1.08-.33,1.87-.98,2.36s-1.41.73-2.28.73c-.76,0-1.44-.24-2.03-.73-.6-.49-.89-1.22-.89-2.2v-71.75c-2.6-.33-5.1-.89-7.48-1.71-2.39-.81-4.66-1.82-6.83-3.01-.87-.43-1.38-1.06-1.55-1.87s-.11-1.57.16-2.28c.27-.7.76-1.25,1.46-1.63.71-.38,1.55-.3,2.52.24,1.52.87,3.31,1.68,5.37,2.44,2.06.76,4.17,1.25,6.35,1.46v-93.55c0-5.1,1.3-9.38,3.9-12.85,2.6-3.47,6.4-5.21,11.39-5.21s9.3,1.9,12.28,5.69c2.98,3.8,4.2,9.92,3.66,18.39Zm38.88,56.94c0,4.88-1.82,9.55-5.45,13.99-3.64,4.45-8.44,8.35-14.4,11.71-5.97,3.36-12.83,6.05-20.58,8.05-7.76,2.01-15.76,3.07-24,3.17-1.09,0-1.9-.33-2.44-.98-.54-.65-.81-1.33-.81-2.03s.24-1.38.73-2.03c.49-.65,1.27-.98,2.36-.98,7.27,0,14.4-.87,21.39-2.6,7-1.73,13.26-4.07,18.79-7,5.53-2.93,9.98-6.24,13.34-9.92,3.36-3.69,5.04-7.48,5.04-11.39,0-1.08.27-1.87.81-2.36.54-.49,1.19-.73,1.95-.73.87,0,1.63.27,2.28.81.65.54.98,1.3.98,2.28Zm-44.9-56.94c.43-3.8.41-6.86-.08-9.19-.49-2.33-1.22-4.15-2.2-5.45s-2.17-2.2-3.58-2.68c-1.41-.49-2.82-.73-4.23-.73-3.15.11-5.45,1.25-6.91,3.42-1.46,2.17-2.2,4.99-2.2,8.46v41.33c5.31-6.94,9.71-13.34,13.18-19.2,3.47-5.86,5.48-11.17,6.02-15.94Z"></path><path class="cls-4" d="m200.36,151.93c0,1.09-.3,1.87-.9,2.36-.6.49-1.28.73-2.03.73s-1.46-.27-2.12-.81c-.65-.54-.98-1.3-.98-2.28,0-2.93-.92-5.39-2.77-7.4-1.85-2.01-4.23-2.95-7.16-2.85-3.47,0-6.35,1.06-8.62,3.17-2.28,2.11-4.1,4.66-5.45,7.65-1.36,2.98-2.28,6.18-2.77,9.6s-.73,6.43-.73,9.03.33,5.45.98,8.22c.65,2.77,1.71,5.23,3.17,7.4,1.46,2.17,3.39,3.93,5.78,5.29,2.39,1.36,5.26,2.03,8.62,2.03.98,0,1.73.33,2.28.98.54.65.81,1.33.81,2.03s-.24,1.38-.73,2.03-1.28.98-2.36.98c-4.56,0-8.38-.81-11.47-2.44-3.09-1.63-5.59-3.8-7.48-6.51-1.9-2.71-3.25-5.83-4.07-9.36-.81-3.52-1.33-7.13-1.55-10.82-.11-3.58.22-7.43.98-11.55.76-4.12,2.06-7.94,3.9-11.47,1.84-3.52,4.31-6.45,7.4-8.79,3.09-2.33,6.86-3.5,11.31-3.5s8.49,1.46,11.47,4.39c2.98,2.93,4.47,6.89,4.47,11.88Zm26.03.33c-1.19,5.21-3.01,10.74-5.45,16.6s-5.78,11.55-10.01,17.08c-1.3,1.74-2.79,3.44-4.47,5.12s-3.55,3.2-5.61,4.56c-2.06,1.36-4.37,2.44-6.92,3.25-2.55.81-5.4,1.22-8.54,1.22-.98,0-1.66-.33-2.03-.98-.38-.65-.54-1.33-.49-2.03.05-.7.3-1.38.73-2.03.43-.65,1.03-.98,1.79-.98,2.17,0,4.28-.35,6.35-1.06,2.06-.7,4.04-1.63,5.94-2.77,1.9-1.14,3.6-2.44,5.12-3.91,1.52-1.46,2.77-2.9,3.74-4.31,3.36-4.77,6.02-9.3,7.97-13.59,1.95-4.28,3.47-8.27,4.56-11.96,1.08-3.69,1.87-7.1,2.36-10.25.49-3.14.9-5.91,1.22-8.3.11-1.08.54-1.63,1.3-1.63.54,0,1.08.3,1.63.9.54.6.98,1.55,1.3,2.85.33,1.3.49,2.96.49,4.96s-.33,4.42-.98,7.24Z"></path><path class="cls-4" d="m268.53,139.89l-33.35,22.45c1.73.54,3.28,1.17,4.64,1.87,1.36.71,2.58,1.44,3.66,2.2,1.84,1.19,3.44,2.5,4.8,3.9,1.36,1.41,2.58,2.96,3.66,4.64,1.08,1.68,2.14,3.5,3.17,5.45,1.03,1.95,2.2,4.12,3.5,6.51,1.3,2.5,2.58,4.31,3.82,5.45,1.25,1.14,2.95,1.71,5.12,1.71,1.19,0,2.06.33,2.6.98.54.65.81,1.33.81,2.03s-.3,1.38-.9,2.03c-.6.65-1.44.98-2.52.98-4.01,0-7.02-1.03-9.03-3.09-2.01-2.06-3.8-4.58-5.37-7.57-1.57-2.98-3.28-6.13-5.12-9.44-1.85-3.31-4.56-6.26-8.13-8.87-1.52-.98-3.2-1.9-5.04-2.77-1.85-.87-3.96-1.57-6.35-2.12v30.91c0,.76-.3,1.33-.9,1.71-.6.38-1.28.57-2.03.57-.87,0-1.6-.19-2.2-.57-.6-.38-.89-.95-.89-1.71v-123c0-1.08.3-1.87.89-2.36.59-.49,1.33-.73,2.2-.73.76,0,1.44.24,2.03.73.59.49.9,1.28.9,2.36v85.91l36.61-25.06c.54-.43,1.14-.65,1.79-.65s1.22.22,1.71.65c.49.43.84.92,1.06,1.46.22.54.24,1.14.08,1.79-.16.65-.57,1.19-1.22,1.63Zm36.28,6.35c-.76,2.82-1.71,6.1-2.85,9.84-1.14,3.74-2.5,7.59-4.07,11.55-1.57,3.96-3.36,7.89-5.37,11.8-2.01,3.91-4.26,7.38-6.75,10.41-2.5,3.04-5.26,5.51-8.3,7.4-3.04,1.9-6.35,2.85-9.92,2.85-.98,0-1.68-.33-2.12-.98-.43-.65-.63-1.33-.57-2.03.05-.7.3-1.38.73-2.03.43-.65,1.08-.98,1.95-.98,3.14,0,6.32-1.19,9.52-3.58,3.2-2.38,6.37-6.61,9.52-12.69,1.84-3.58,3.58-7.46,5.21-11.63,1.63-4.17,3.04-8.19,4.23-12.04,1.19-3.85,2.2-7.24,3.01-10.17.81-2.93,1.33-4.88,1.55-5.86.11-1.08.54-1.63,1.3-1.63.87,0,1.76.95,2.68,2.85.92,1.9,1,4.2.24,6.91Z"></path><path class="cls-4" d="m320.76,106.54h-14.32v74.68c0,5.21.57,8.68,1.71,10.41,1.14,1.74,3.12,2.55,5.94,2.44,1.08,0,1.87.3,2.36.9.49.6.7,1.28.65,2.03-.06.76-.33,1.46-.81,2.12s-1.22.98-2.2.98c-2.82,0-5.12-.49-6.91-1.46-1.79-.98-3.17-2.3-4.15-3.99-.98-1.68-1.65-3.66-2.03-5.94-.38-2.28-.57-4.77-.57-7.48v-74.68h-13.02c-.98,0-1.73-.33-2.28-.98-.54-.65-.81-1.33-.81-2.03s.27-1.38.81-2.03c.54-.65,1.3-.98,2.28-.98h13.02v-26.19c0-2.17,1.03-3.25,3.09-3.25.87,0,1.57.3,2.12.9.54.6.81,1.38.81,2.36v26.19h14.32c.98,0,1.73.33,2.28.98.54.65.81,1.33.81,2.03s-.27,1.38-.81,2.03c-.54.65-1.3.98-2.28.98Zm30.59,39.7c-.76,2.82-1.71,6.1-2.85,9.84-1.14,3.74-2.5,7.59-4.07,11.55-1.57,3.96-3.36,7.89-5.37,11.8-2.01,3.91-4.26,7.38-6.75,10.41-2.5,3.04-5.26,5.51-8.3,7.4-3.04,1.9-6.35,2.85-9.92,2.85-.98,0-1.68-.33-2.12-.98-.43-.65-.63-1.33-.57-2.03.05-.7.3-1.38.73-2.03.43-.65,1.08-.98,1.95-.98,3.14,0,6.32-1.19,9.52-3.58,3.2-2.38,6.37-6.61,9.52-12.69,1.84-3.58,3.58-7.46,5.21-11.63,1.63-4.17,3.04-8.19,4.23-12.04,1.19-3.85,2.2-7.24,3.01-10.17.81-2.93,1.33-4.88,1.55-5.86.11-1.08.54-1.63,1.3-1.63.87,0,1.76.95,2.68,2.85.92,1.9,1,4.2.24,6.91Z"></path><path class="cls-4" d="m393.48,246.79c0,1.3-.22,2.93-.65,4.88-.43,1.95-1.22,3.85-2.36,5.69-1.14,1.84-2.68,3.42-4.64,4.72s-4.39,1.95-7.32,1.95c-4.99,0-8.92-1.36-11.8-4.07-2.87-2.71-4.37-7.27-4.47-13.67,0-4.45.79-8.79,2.36-13.02,1.57-4.23,3.58-8.33,6.02-12.28,2.44-3.96,5.15-7.78,8.14-11.47,2.98-3.69,5.88-7.21,8.7-10.58v-11.55c-2.82,4.01-6.08,7.08-9.76,9.19-3.69,2.12-7.32,3.17-10.9,3.17-2.6,0-5.1-.43-7.48-1.3-2.39-.87-4.5-2.17-6.35-3.91-1.85-1.73-3.31-3.88-4.39-6.43-1.09-2.55-1.63-5.45-1.63-8.7v-41c0-.98.27-1.68.81-2.12.54-.43,1.19-.65,1.95-.65.87,0,1.63.22,2.28.65.65.43.98,1.09.98,1.95v41.16c0,4.66,1.35,8.22,4.07,10.66,2.71,2.44,5.91,3.66,9.6,3.66,3.47,0,6.48-.87,9.03-2.6,2.55-1.73,4.72-3.93,6.51-6.59,1.79-2.66,3.12-5.53,3.99-8.62.87-3.09,1.3-5.94,1.3-8.54v-29.12c0-.98.3-1.71.9-2.2.59-.49,1.33-.73,2.2-.73.76,0,1.44.24,2.03.73.59.49.9,1.22.9,2.2v108.52Zm-6.02,0v-38.72c-2.06,2.6-4.23,5.42-6.51,8.46-2.28,3.04-4.37,6.21-6.26,9.52-1.9,3.31-3.44,6.67-4.64,10.09-1.19,3.42-1.79,6.75-1.79,10.01,0,2.82.35,5.02,1.06,6.59.7,1.57,1.57,2.77,2.6,3.58,1.03.81,2.14,1.3,3.34,1.46,1.19.16,2.28.24,3.25.24,2.93,0,5.15-1.22,6.67-3.66,1.52-2.44,2.28-4.96,2.28-7.57Z"></path></svg> 