<?xml version="1.0" encoding="UTF-8"?><svg xmlns="http://www.w3.org/2000/svg" xmlns:xlink="http://www.w3.org/1999/xlink" viewBox="0 0 1920 3706.05"><defs><style>.cls-1{stroke-dasharray:0 0 1.81 18.14;}.cls-1,.cls-2,.cls-3,.cls-4,.cls-5,.cls-6,.cls-7,.cls-8,.cls-9,.cls-10,.cls-11,.cls-12,.cls-13{fill:none;}.cls-1,.cls-3,.cls-4,.cls-5,.cls-6,.cls-7,.cls-8,.cls-9,.cls-10,.cls-11,.cls-12,.cls-13{stroke-miterlimit:10;}.cls-1,.cls-3,.cls-4,.cls-5,.cls-6,.cls-7,.cls-9,.cls-10,.cls-11,.cls-12,.cls-13{stroke:#a797c9;stroke-linecap:round;stroke-width:7px;}.cls-14{clip-path:url(#clippath);}.cls-15{fill:#fff;}.cls-16{fill:#937fbb;}.cls-17{fill:#171c32;}.cls-18{fill:#947fbb;}.cls-19{clip-path:url(#clippath-1);}.cls-20{clip-path:url(#clippath-4);}.cls-21{clip-path:url(#clippath-3);}.cls-22{clip-path:url(#clippath-2);}.cls-4{stroke-dasharray:0 0 1.68 16.81;}.cls-5{stroke-dasharray:0 0 1.78 17.79;}.cls-6{stroke-dasharray:0 0 1.74 17.38;}.cls-7{stroke-dasharray:0 0 1.67 16.69;}.cls-8{stroke:#57678b;stroke-width:3.5px;}.cls-9{stroke-dasharray:0 0 1.76 17.62;}.cls-10{stroke-dasharray:0 0 1.71 17.07;}.cls-11{stroke-dasharray:0 0 1.57 15.68;}.cls-12{stroke-dasharray:0 0 1.8 18;}.cls-13{stroke-dasharray:0 0 1.7 16.97;}</style><clipPath id="clippath"><circle class="cls-2" cx="745.48" cy="631.33" r="138.7"/></clipPath><clipPath id="clippath-1"><circle class="cls-2" cx="745.48" cy="631.33" r="138.7"/></clipPath><clipPath id="clippath-2"><circle class="cls-2" cx="247.97" cy="2917.41" r="106.59"/></clipPath><clipPath id="clippath-3"><circle class="cls-2" cx="462.74" cy="2318.66" r="104.01"/></clipPath><clipPath id="clippath-4"><circle class="cls-2" cx="1272.59" cy="1291.11" r="67.53"/></clipPath></defs><g id="info"><path class="cls-15" d="m847.72,3072.54c-17.12,17.12-37.27,29.71-58.42,37.27-18.63,6.55-38.27,13.09-62.45,13.09-15.11,0-13.6-22.16,0-22.16,21.15,0,36.76-5.04,54.39-12.09l1.51-.5c32.73-11.58,60.43-37.27,79.57-70,27.7-47.84,91.66-82.09,135.47-86.62,24.17-78.06,59.93-163.17,96.69-163.17,22.16,0,32.23,14.6,32.23,40.29,0,52.88-67.99,173.24-135.97,249.28.5,29.71,13.09,42.81,41.29,42.81,21.15,0,36.76-5.04,54.39-12.09,13.09-5.04,22.16,15.61,8.06,21.15-18.63,7.05-38.27,13.09-62.45,13.09-33.24,0-54.39-15.61-60.94-44.32-28.2,27.7-54.89,45.83-75.54,45.83-29.71,0-46.83-18.63-47.84-51.87Zm121.37-22.66c2.01-16.62,9.57-53.38,21.66-95.18-57.41,10.58-120.86,60.43-120.86,114.32,0,23.17,8.06,33.24,25.68,33.24s44.82-21.15,73.53-52.38Zm135.47-241.22c0-15.11-2.52-18.13-10.07-18.13-36.76,0-80.58,150.58-97.2,226.12,54.89-68.99,107.27-162.16,107.27-207.99Z"/></g><g id="palabras"><rect class="cls-17" width="1920" height="3706.05"/><line class="cls-8" x1="-4.67" y1="200.57" x2="1918.07" y2="200.57"/><line class="cls-8" x1="-4.67" y1="373.33" x2="1918.07" y2="373.33"/><line class="cls-8" x1="1918.07" y1="554.2" x2="-4.67" y2="554.2"/><line class="cls-8" x1="-4.67" y1="737.13" x2="1918.07" y2="737.13"/><line class="cls-8" x1="-5.41" y1="1087.54" x2="1917.33" y2="1087.54"/><line class="cls-8" x1="-5.64" y1="1266.06" x2="1917.11" y2="1266.06"/><line class="cls-8" x1="1917.11" y1="1446.94" x2="-5.64" y2="1446.94"/><line class="cls-8" x1="-5.64" y1="1624.86" x2="1917.11" y2="1624.86"/><line class="cls-8" x1="-5.06" y1="1978.97" x2="1917.69" y2="1978.97"/><line class="cls-8" x1="-4.67" y1="2154.48" x2="1918.07" y2="2154.48"/><line class="cls-8" x1="1918.07" y1="2339.36" x2="-4.67" y2="2339.36"/><line class="cls-8" x1="-4.67" y1="2518.28" x2="1918.07" y2="2518.28"/><line class="cls-8" x1="-2.74" y1="2872.74" x2="1920" y2="2872.74"/><line class="cls-8" x1="-5.44" y1="3049.26" x2="1917.3" y2="3049.26"/><line class="cls-8" x1="1917.3" y1="3233.14" x2="-5.44" y2="3233.14"/><line class="cls-8" x1="-7.37" y1="3412.06" x2="1915.37" y2="3412.06"/><line class="cls-3" x1="293.1" y1="1685.16" x2="293.1" y2="1684.29"/><line class="cls-12" x1="293.1" y1="1666.29" x2="293.1" y2="1457.48"/><line class="cls-3" x1="293.1" y1="1448.48" x2="293.1" y2="1447.6"/><line class="cls-3" x1="1544.29" y1="813.24" x2="1544.29" y2="812.36"/><line class="cls-10" x1="1544.29" y1="795.29" x2="1544.29" y2="578.5"/><line class="cls-3" x1="1544.29" y1="569.96" x2="1544.29" y2="569.09"/><line class="cls-3" x1="1271.06" y1="1212.87" x2="1271.06" y2="1212"/><line class="cls-7" x1="1271.06" y1="1195.31" x2="1271.06" y2="1056.8"/><line class="cls-3" x1="1271.06" y1="1048.45" x2="1271.06" y2="1047.58"/><path class="cls-15" d="m1245.36,1930.2v-2.02h3.02v2.18c0,3.74,2.6,6.05,7.94,6.05s8.44-1.97,8.44-6.22c0-3.32-1.39-5.17-4.92-6.09l-6.64-1.72c-4.33-1.13-7.18-2.98-7.18-8.15s3.78-8.91,10.92-8.91,10.59,3.44,10.59,9.07v2.94h-3.03v-2.81c0-4.62-3.07-6.51-7.56-6.51-5.12,0-7.81,2.14-7.81,6.01,0,3.61,1.76,4.71,5.54,5.71l5.75,1.55c5.12,1.39,7.44,3.74,7.44,8.65,0,6.09-4.33,9.24-11.47,9.24-9.12,0-11.05-4.7-11.05-8.99Z"/><path class="cls-15" d="m1286.02,1935.96v2.6c-.76.21-2.14.59-4.03.59-3.82,0-6.34-1.6-6.34-6.89v-12.18h-4.16v-2.44h4.16v-6.05l2.94-1.43v7.48h5.92v2.44h-5.92v11.8c0,2.81.76,4.58,3.4,4.58,1.6,0,3.23-.29,4.03-.5Z"/><path class="cls-15" d="m1307.48,1929.15h-15.96c.17,4.79,2.48,7.48,6.93,7.48,3.82,0,5.67-1.43,5.96-4.83h2.98c-.29,4.24-3.28,7.39-9.03,7.39-7.06,0-9.83-4.66-9.83-10.88s3.23-11.22,10-11.22,8.95,3.99,8.95,10.21v1.85Zm-3.11-2.98c0-4.45-1.72-6.55-5.92-6.55s-6.55,2.65-6.89,6.97h12.81v-.42Z"/><path class="cls-15" d="m1330.63,1929.15h-15.96c.17,4.79,2.48,7.48,6.93,7.48,3.82,0,5.67-1.43,5.96-4.83h2.98c-.29,4.24-3.28,7.39-9.03,7.39-7.06,0-9.83-4.66-9.83-10.88s3.23-11.22,10-11.22,8.95,3.99,8.95,10.21v1.85Zm-3.11-2.98c0-4.45-1.72-6.55-5.92-6.55s-6.55,2.65-6.89,6.97h12.81v-.42Z"/><path class="cls-15" d="m1336.5,1917.64h2.39l.34,3.87h.08c1.13-2.48,4.03-4.41,7.86-4.41,6.3,0,9.66,3.99,9.66,11.01s-4.28,11.09-9.87,11.09c-3.78,0-6.39-1.6-7.44-3.7h-.08v11.55h-2.94v-29.41Zm17.18,10.63c0-7.18-3.4-8.61-6.93-8.61-4.24,0-7.56,2.73-7.56,8.44,0,6.01,3.44,8.57,7.43,8.57,3.03,0,7.06-1.47,7.06-8.4Z"/><path class="cls-15" d="m1370.48,1932.22v-1.18h2.94v1.13c0,2.86,2.14,4.5,5.96,4.5s5.8-1.01,5.8-3.78c0-2.06-1.01-2.81-3.86-3.32l-4.62-.84c-3.02-.55-5.54-2.02-5.54-5.5,0-3.15,2.35-6.13,8.4-6.13s8.4,3.02,8.4,7.23v.88h-2.98v-.76c0-3.44-2.14-4.92-5.42-4.92-3.95,0-5.33,1.34-5.33,3.36s1.01,2.86,3.91,3.4l4.03.76c4.12.76,6.09,1.93,6.09,5.59,0,4.58-4.12,6.55-8.78,6.55-7.31,0-8.99-3.28-8.99-6.97Z"/><path class="cls-15" d="m1394.13,1905.88h2.94v32.77h-2.94v-32.77Z"/><path class="cls-15" d="m1403.16,1932.85c0-3.95,2.23-6.09,7.86-6.09h6.34v-1.72c0-2.98-1.26-5.42-5.46-5.42-3.95,0-5.33,1.51-5.33,4.12v.88h-2.98v-.84c0-5,4.2-6.68,8.32-6.68,5.8,0,8.4,2.86,8.4,8.44v13.11h-2.06l-.55-2.98h-.08c-1.26,1.89-3.7,3.53-7.35,3.53-4.92,0-7.1-2.31-7.1-6.34Zm14.2-1.85v-1.76h-7.01c-2.65,0-4.03.92-4.03,3.61,0,2.35,1.26,3.87,4.5,3.87,4.16,0,6.55-2.14,6.55-5.71Z"/><path class="cls-15" d="m1427.64,1917.64h2.6l.29,3.49c1.01-2.14,3.28-4.03,7.35-4.03,4.75,0,7.77,2.52,7.77,7.94v13.61h-2.94v-13.27c0-4.33-2.14-5.71-5.5-5.71-3.82,0-6.64,2.69-6.64,5.63v13.36h-2.94v-21Z"/><path class="cls-15" d="m1463.97,1935.96v2.6c-.76.21-2.14.59-4.03.59-3.82,0-6.34-1.6-6.34-6.89v-12.18h-4.16v-2.44h4.16v-6.05l2.94-1.43v7.48h5.92v2.44h-5.92v11.8c0,2.81.76,4.58,3.4,4.58,1.6,0,3.23-.29,4.03-.5Z"/><polygon class="cls-18" points="1060.3 2518.82 1112.64 2518.82 1337.5 1979.37 1285.16 1979.37 1060.3 2518.82"/><path class="cls-15" d="m825.17,1712.07h-11.51v-2.6h25.96v2.6h-11.51v30.16h-2.94v-30.16Z"/><path class="cls-15" d="m838.35,1736.44c0-3.95,2.23-6.09,7.86-6.09h6.34v-1.72c0-2.98-1.26-5.42-5.46-5.42-3.95,0-5.33,1.51-5.33,4.12v.88h-2.98v-.84c0-5,4.2-6.68,8.32-6.68,5.8,0,8.4,2.86,8.4,8.44v13.11h-2.06l-.55-2.98h-.08c-1.26,1.89-3.7,3.53-7.35,3.53-4.91,0-7.1-2.31-7.1-6.34Zm14.2-1.85v-1.76h-7.02c-2.65,0-4.03.92-4.03,3.61,0,2.35,1.26,3.86,4.5,3.86,4.16,0,6.55-2.14,6.55-5.71Z"/><path class="cls-15" d="m862.84,1709.47h2.94v32.77h-2.94v-32.77Z"/><path class="cls-15" d="m873.13,1709.47h2.94v32.77h-2.94v-32.77Z"/><path class="cls-15" d="m894.76,1719.93h-3.36v-5.08c0-3.95.88-5.29,3.4-5.97l.67,1.85c-1.76.67-2.06,1.09-2.06,3.78v.34h1.34v5.08Zm5.92,0h-3.36v-5.08c0-3.95.88-5.29,3.4-5.97l.67,1.85c-1.76.67-2.06,1.09-2.06,3.78v.34h1.34v5.08Z"/><path class="cls-15" d="m918.03,1739.54v2.61c-.76.21-2.14.59-4.03.59-3.82,0-6.34-1.6-6.34-6.89v-12.18h-4.16v-2.44h4.16v-6.05l2.94-1.43v7.48h5.92v2.44h-5.92v11.8c0,2.81.76,4.58,3.4,4.58,1.6,0,3.23-.29,4.03-.5Z"/><path class="cls-15" d="m919.92,1718.67c1.76-.67,2.06-1.09,2.06-3.78v-.34h-1.34v-5.08h3.36v5.08c0,3.95-.88,5.29-3.4,5.96l-.67-1.85Zm5.92,0c1.76-.67,2.06-1.09,2.06-3.78v-.34h-1.34v-5.08h3.36v5.08c0,3.95-.88,5.29-3.4,5.96l-.67-1.85Z"/><path class="cls-15" d="m956.42,1739.54v2.61c-.76.21-2.14.59-4.03.59-3.82,0-6.34-1.6-6.34-6.89v-12.18h-4.16v-2.44h4.16v-6.05l2.94-1.43v7.48h5.92v2.44h-5.92v11.8c0,2.81.76,4.58,3.4,4.58,1.6,0,3.23-.29,4.03-.5Z"/><path class="cls-15" d="m961.25,1709.47h2.94v15.16c1.05-2.1,3.28-3.95,7.31-3.95,4.75,0,7.77,2.52,7.77,7.94v13.61h-2.94v-13.28c0-4.33-2.14-5.71-5.5-5.71-3.82,0-6.64,2.69-6.64,5.63v13.36h-2.94v-32.77Z"/><path class="cls-15" d="m985.35,1736.44c0-3.95,2.23-6.09,7.86-6.09h6.34v-1.72c0-2.98-1.26-5.42-5.46-5.42-3.95,0-5.33,1.51-5.33,4.12v.88h-2.98v-.84c0-5,4.2-6.68,8.32-6.68,5.8,0,8.4,2.86,8.4,8.44v13.11h-2.06l-.55-2.98h-.08c-1.26,1.89-3.7,3.53-7.35,3.53-4.91,0-7.1-2.31-7.1-6.34Zm14.2-1.85v-1.76h-7.02c-2.65,0-4.03.92-4.03,3.61,0,2.35,1.26,3.86,4.5,3.86,4.16,0,6.55-2.14,6.55-5.71Z"/><path class="cls-15" d="m1020.59,1739.54v2.61c-.76.21-2.14.59-4.03.59-3.82,0-6.34-1.6-6.34-6.89v-12.18h-4.16v-2.44h4.16v-6.05l2.94-1.43v7.48h5.92v2.44h-5.92v11.8c0,2.81.76,4.58,3.4,4.58,1.6,0,3.23-.29,4.03-.5Z"/><path class="cls-15" d="m1035.08,1721.23h2.61l.29,3.91c1.01-2.14,3.07-4.45,6.76-4.45,1.26,0,2.18.21,3.02.55v3.15c-1.13-.5-2.1-.76-3.4-.76-3.74,0-6.34,2.81-6.34,5.75v12.86h-2.94v-21Z"/><path class="cls-15" d="m1069.02,1732.74h-15.96c.17,4.79,2.48,7.48,6.93,7.48,3.82,0,5.67-1.43,5.96-4.83h2.98c-.29,4.24-3.28,7.39-9.03,7.39-7.06,0-9.83-4.66-9.83-10.88s3.23-11.22,10-11.22,8.95,3.99,8.95,10.21v1.85Zm-3.11-2.98c0-4.45-1.72-6.55-5.92-6.55s-6.55,2.65-6.89,6.97h12.81v-.42Z"/><path class="cls-15" d="m1073.43,1736.44c0-3.95,2.23-6.09,7.86-6.09h6.34v-1.72c0-2.98-1.26-5.42-5.46-5.42-3.95,0-5.34,1.51-5.34,4.12v.88h-2.98v-.84c0-5,4.2-6.68,8.32-6.68,5.8,0,8.4,2.86,8.4,8.44v13.11h-2.06l-.55-2.98h-.08c-1.26,1.89-3.7,3.53-7.35,3.53-4.92,0-7.1-2.31-7.1-6.34Zm14.2-1.85v-1.76h-7.02c-2.65,0-4.03.92-4.03,3.61,0,2.35,1.26,3.86,4.5,3.86,4.16,0,6.55-2.14,6.55-5.71Z"/><path class="cls-15" d="m1096.23,1731.9c0-6.38,3.23-11.22,10-11.22s8.95,3.91,8.95,8.95v.42h-3.11v-.63c0-3.82-1.64-6.09-5.84-6.09-4.75,0-7.02,3.11-7.02,8.4,0,5.63,2.39,8.49,6.93,8.49,3.82,0,5.84-1.85,5.92-5.67h3.03c-.08,4.66-3.15,8.23-9.03,8.23-7.23,0-9.83-4.75-9.83-10.88Z"/><path class="cls-15" d="m1120.43,1709.47h2.94v15.16c1.05-2.1,3.28-3.95,7.31-3.95,4.75,0,7.77,2.52,7.77,7.94v13.61h-2.94v-13.28c0-4.33-2.14-5.71-5.5-5.71-3.82,0-6.64,2.69-6.64,5.63v13.36h-2.94v-32.77Z"/><path class="cls-15" d="m1163.06,1732.74h-15.96c.17,4.79,2.48,7.48,6.93,7.48,3.82,0,5.67-1.43,5.96-4.83h2.98c-.29,4.24-3.28,7.39-9.03,7.39-7.06,0-9.83-4.66-9.83-10.88s3.23-11.22,10-11.22,8.95,3.99,8.95,10.21v1.85Zm-3.11-2.98c0-4.45-1.72-6.55-5.92-6.55s-6.55,2.65-6.89,6.97h12.81v-.42Z"/><path class="cls-15" d="m1167.05,1735.8v-1.18h2.94v1.13c0,2.86,2.14,4.5,5.96,4.5s5.8-1.01,5.8-3.78c0-2.06-1.01-2.81-3.86-3.32l-4.62-.84c-3.03-.55-5.54-2.02-5.54-5.5,0-3.15,2.35-6.13,8.4-6.13s8.4,3.03,8.4,7.23v.88h-2.98v-.76c0-3.44-2.14-4.91-5.42-4.91-3.95,0-5.33,1.34-5.33,3.36s1.01,2.86,3.91,3.4l4.03.76c4.12.76,6.09,1.93,6.09,5.59,0,4.58-4.12,6.55-8.78,6.55-7.31,0-8.99-3.28-8.99-6.97Z"/><path class="cls-15" d="m1199.09,1736.44c0-3.95,2.23-6.09,7.86-6.09h6.34v-1.72c0-2.98-1.26-5.42-5.46-5.42-3.95,0-5.34,1.51-5.34,4.12v.88h-2.98v-.84c0-5,4.2-6.68,8.32-6.68,5.8,0,8.4,2.86,8.4,8.44v13.11h-2.06l-.55-2.98h-.08c-1.26,1.89-3.7,3.53-7.35,3.53-4.92,0-7.1-2.31-7.1-6.34Zm14.2-1.85v-1.76h-7.02c-2.65,0-4.03.92-4.03,3.61,0,2.35,1.26,3.86,4.5,3.86,4.16,0,6.55-2.14,6.55-5.71Z"/><path class="cls-15" d="m1221.69,1735.8v-1.18h2.94v1.13c0,2.86,2.14,4.5,5.96,4.5s5.8-1.01,5.8-3.78c0-2.06-1.01-2.81-3.87-3.32l-4.62-.84c-3.02-.55-5.54-2.02-5.54-5.5,0-3.15,2.35-6.13,8.4-6.13s8.4,3.03,8.4,7.23v.88h-2.98v-.76c0-3.44-2.14-4.91-5.42-4.91-3.95,0-5.33,1.34-5.33,3.36s1.01,2.86,3.91,3.4l4.03.76c4.12.76,6.09,1.93,6.09,5.59,0,4.58-4.12,6.55-8.78,6.55-7.31,0-8.99-3.28-8.99-6.97Z"/><path class="cls-15" d="m1243.65,1731.9c0-6.38,3.23-11.22,10-11.22s8.95,3.91,8.95,8.95v.42h-3.11v-.63c0-3.82-1.64-6.09-5.84-6.09-4.75,0-7.02,3.11-7.02,8.4,0,5.63,2.39,8.49,6.93,8.49,3.82,0,5.84-1.85,5.92-5.67h3.03c-.08,4.66-3.15,8.23-9.03,8.23-7.23,0-9.83-4.75-9.83-10.88Z"/><path class="cls-15" d="m1285.74,1732.74h-15.96c.17,4.79,2.48,7.48,6.93,7.48,3.82,0,5.67-1.43,5.96-4.83h2.98c-.29,4.24-3.28,7.39-9.03,7.39-7.06,0-9.83-4.66-9.83-10.88s3.23-11.22,10-11.22,8.95,3.99,8.95,10.21v1.85Zm-3.11-2.98c0-4.45-1.72-6.55-5.92-6.55s-6.55,2.65-6.89,6.97h12.81v-.42Z"/><path class="cls-15" d="m1291.62,1721.23h2.6l.29,3.49c1.01-2.14,3.28-4.03,7.35-4.03,4.75,0,7.77,2.52,7.77,7.94v13.61h-2.94v-13.28c0-4.33-2.14-5.71-5.5-5.71-3.82,0-6.64,2.69-6.64,5.63v13.36h-2.94v-21Z"/><path class="cls-15" d="m1315.31,1731.77c0-7.1,4.28-11.09,10.04-11.09,3.7,0,6.22,1.6,7.31,3.74h.04v-14.95h2.94v32.77h-1.97l-.67-3.61h-.08c-1.18,2.31-3.95,4.16-7.77,4.16-6.3,0-9.83-3.99-9.83-11.01Zm17.64-.5c0-5.5-3.36-8.06-7.35-8.06-3.11,0-7.14,1.47-7.14,8.4s3.61,8.61,7.14,8.61c4.24,0,7.35-2.73,7.35-8.95Z"/><path class="cls-15" d="m1360.25,1732.74h-15.96c.17,4.79,2.48,7.48,6.93,7.48,3.82,0,5.67-1.43,5.96-4.83h2.98c-.29,4.24-3.28,7.39-9.03,7.39-7.06,0-9.83-4.66-9.83-10.88s3.23-11.22,10-11.22,8.95,3.99,8.95,10.21v1.85Zm-3.11-2.98c0-4.45-1.72-6.55-5.92-6.55s-6.55,2.65-6.89,6.97h12.81v-.42Z"/><path class="cls-15" d="m1366.13,1721.23h2.6l.29,3.91c1.01-2.14,3.07-4.45,6.76-4.45,1.26,0,2.18.21,3.02.55v3.15c-1.13-.5-2.1-.76-3.4-.76-3.74,0-6.34,2.81-6.34,5.75v12.86h-2.94v-21Z"/><path class="cls-15" d="m1393.09,1709.47h2.94v15.16c1.05-2.1,3.28-3.95,7.31-3.95,4.75,0,7.77,2.52,7.77,7.94v13.61h-2.94v-13.28c0-4.33-2.14-5.71-5.5-5.71-3.82,0-6.64,2.69-6.64,5.63v13.36h-2.94v-32.77Z"/><path class="cls-15" d="m1435.72,1732.74h-15.96c.17,4.79,2.48,7.48,6.93,7.48,3.82,0,5.67-1.43,5.96-4.83h2.98c-.29,4.24-3.28,7.39-9.03,7.39-7.06,0-9.83-4.66-9.83-10.88s3.23-11.22,10-11.22,8.95,3.99,8.95,10.21v1.85Zm-3.11-2.98c0-4.45-1.72-6.55-5.92-6.55s-6.55,2.65-6.89,6.97h12.81v-.42Z"/><path class="cls-15" d="m1441.6,1709.47h2.98v6.51h-2.98v-6.51Zm0,11.76h2.94v21h-2.94v-21Z"/><path class="cls-15" d="m1451.3,1744.04v-.13h3.11v.13c0,2.9,1.93,4.33,6.13,4.33,4.79,0,7.01-2.94,7.01-7.86v-2.1h-.08c-1.09,2.18-3.65,4.08-7.48,4.08-6.3,0-9.75-3.99-9.75-10.71,0-7.1,4.37-11.09,9.96-11.09,3.78,0,6.55,1.81,7.56,4.12h.13l.29-3.57h2.31v19.16c0,5.88-2.81,10.71-10.33,10.71-6.3,0-8.86-2.98-8.86-7.06Zm16.59-12.77c0-5.5-3.36-8.06-7.35-8.06-3.02,0-7.14,1.47-7.14,8.4s3.57,8.32,7.1,8.32c4.24,0,7.39-2.73,7.39-8.65Z"/><path class="cls-15" d="m1477.85,1709.47h2.94v15.16c1.05-2.1,3.28-3.95,7.31-3.95,4.75,0,7.77,2.52,7.77,7.94v13.61h-2.94v-13.28c0-4.33-2.14-5.71-5.5-5.71-3.82,0-6.64,2.69-6.64,5.63v13.36h-2.94v-32.77Z"/><path class="cls-15" d="m1514.18,1739.54v2.61c-.76.21-2.14.59-4.03.59-3.82,0-6.34-1.6-6.34-6.89v-12.18h-4.16v-2.44h4.16v-6.05l2.94-1.43v7.48h5.92v2.44h-5.92v11.8c0,2.81.76,4.58,3.4,4.58,1.6,0,3.23-.29,4.03-.5Z"/><path class="cls-15" d="m69.77,1709.47h8.36c11.05,0,17.39,4.54,17.39,16.42s-6.26,16.34-17.18,16.34h-8.57v-32.77Zm8.65,30.12c9.41,0,14.03-3.74,14.03-13.78s-4.49-13.74-14.07-13.74h-5.67v27.51h5.71Z"/><path class="cls-15" d="m101.82,1709.47h2.98v6.51h-2.98v-6.51Zm0,11.76h2.94v21h-2.94v-21Z"/><path class="cls-15" d="m110.26,1735.8v-1.18h2.94v1.13c0,2.86,2.14,4.5,5.96,4.5s5.8-1.01,5.8-3.78c0-2.06-1.01-2.81-3.87-3.32l-4.62-.84c-3.02-.55-5.54-2.02-5.54-5.5,0-3.15,2.35-6.13,8.4-6.13s8.4,3.02,8.4,7.22v.88h-2.98v-.76c0-3.44-2.14-4.91-5.42-4.91-3.95,0-5.33,1.34-5.33,3.36s1.01,2.86,3.91,3.4l4.03.76c4.12.76,6.09,1.93,6.09,5.59,0,4.58-4.12,6.55-8.78,6.55-7.31,0-8.99-3.28-8.99-6.97Z"/><path class="cls-15" d="m144.87,1739.54v2.6c-.76.21-2.14.59-4.03.59-3.82,0-6.34-1.6-6.34-6.89v-12.18h-4.16v-2.44h4.16v-6.05l2.94-1.43v7.48h5.92v2.44h-5.92v11.8c0,2.81.76,4.58,3.4,4.58,1.6,0,3.23-.29,4.03-.5Z"/><path class="cls-15" d="m149.7,1709.47h2.98v6.51h-2.98v-6.51Zm0,11.76h2.94v21h-2.94v-21Z"/><path class="cls-15" d="m160.03,1721.23h2.6l.29,3.49c1.01-2.14,3.28-4.03,7.35-4.03,4.75,0,7.77,2.52,7.77,7.94v13.61h-2.94v-13.27c0-4.33-2.14-5.71-5.5-5.71-3.82,0-6.64,2.69-6.64,5.63v13.36h-2.94v-21Z"/><path class="cls-15" d="m183.72,1731.9c0-6.38,3.23-11.22,10-11.22s8.95,3.91,8.95,8.95v.42h-3.11v-.63c0-3.82-1.64-6.09-5.84-6.09-4.75,0-7.02,3.11-7.02,8.4,0,5.63,2.39,8.49,6.93,8.49,3.82,0,5.84-1.85,5.92-5.67h3.02c-.08,4.66-3.15,8.23-9.03,8.23-7.23,0-9.83-4.75-9.83-10.88Z"/><path class="cls-15" d="m219.5,1739.54v2.6c-.76.21-2.14.59-4.03.59-3.82,0-6.34-1.6-6.34-6.89v-12.18h-4.16v-2.44h4.16v-6.05l2.94-1.43v7.48h5.92v2.44h-5.92v11.8c0,2.81.76,4.58,3.4,4.58,1.6,0,3.23-.29,4.03-.5Z"/><path class="cls-15" d="m224.33,1709.47h2.98v6.51h-2.98v-6.51Zm0,11.76h2.94v21h-2.94v-21Z"/><path class="cls-15" d="m231.51,1721.27v-.04h3.36l7.35,17.98h.08l7.1-17.98h3.07v.04l-8.74,20.96h-3.03l-9.2-20.96Z"/><path class="cls-15" d="m273.31,1732.74h-15.96c.17,4.79,2.48,7.48,6.93,7.48,3.82,0,5.67-1.43,5.96-4.83h2.98c-.29,4.24-3.28,7.39-9.03,7.39-7.06,0-9.83-4.66-9.83-10.88s3.23-11.22,10-11.22,8.95,3.99,8.95,10.21v1.85Zm-3.11-2.98c0-4.45-1.72-6.55-5.92-6.55s-6.55,2.65-6.89,6.97h12.81v-.42Z"/><path class="cls-15" d="m288.42,1734.84v-13.61h2.94v13.27c0,4.33,2.14,5.71,5.42,5.71,3.74,0,6.55-2.69,6.55-5.63v-13.36h2.94v21h-2.6l-.25-3.36h-.08c-.97,2.02-3.23,3.91-7.23,3.91-4.66,0-7.69-2.52-7.69-7.94Z"/><path class="cls-15" d="m313.62,1721.23h2.39l.34,3.86h.08c1.13-2.48,4.03-4.41,7.86-4.41,6.3,0,9.66,3.99,9.66,11.01s-4.29,11.09-9.87,11.09c-3.78,0-6.38-1.6-7.44-3.7h-.08v11.55h-2.94v-29.41Zm17.18,10.63c0-7.18-3.4-8.61-6.93-8.61-4.24,0-7.56,2.73-7.56,8.44,0,6.01,3.44,8.57,7.44,8.57,3.02,0,7.06-1.47,7.06-8.4Z"/><path class="cls-15" d="m339.83,1721.23h2.39l.34,3.86h.08c1.13-2.48,4.03-4.41,7.86-4.41,6.3,0,9.66,3.99,9.66,11.01s-4.29,11.09-9.87,11.09c-3.78,0-6.38-1.6-7.44-3.7h-.08v11.55h-2.94v-29.41Zm17.18,10.63c0-7.18-3.4-8.61-6.93-8.61-4.24,0-7.56,2.73-7.56,8.44,0,6.01,3.44,8.57,7.44,8.57,3.02,0,7.06-1.47,7.06-8.4Z"/><path class="cls-15" d="m383.3,1732.74h-15.96c.17,4.79,2.48,7.48,6.93,7.48,3.82,0,5.67-1.43,5.96-4.83h2.98c-.29,4.24-3.28,7.39-9.03,7.39-7.06,0-9.83-4.66-9.83-10.88s3.23-11.22,10-11.22,8.95,3.99,8.95,10.21v1.85Zm-3.11-2.98c0-4.45-1.72-6.55-5.92-6.55s-6.55,2.65-6.89,6.97h12.81v-.42Z"/><path class="cls-15" d="m389.18,1721.23h2.6l.29,3.91c1.01-2.14,3.07-4.45,6.76-4.45,1.26,0,2.18.21,3.02.55v3.15c-1.13-.5-2.1-.76-3.4-.76-3.74,0-6.34,2.81-6.34,5.75v12.85h-2.94v-21Z"/><path class="cls-15" d="m404.17,1731.9c0-6.38,3.23-11.22,10-11.22s8.95,3.91,8.95,8.95v.42h-3.11v-.63c0-3.82-1.64-6.09-5.84-6.09-4.75,0-7.02,3.11-7.02,8.4,0,5.63,2.39,8.49,6.93,8.49,3.82,0,5.84-1.85,5.92-5.67h3.02c-.08,4.66-3.15,8.23-9.03,8.23-7.23,0-9.83-4.75-9.83-10.88Z"/><path class="cls-15" d="m427.53,1736.44c0-3.95,2.23-6.09,7.86-6.09h6.34v-1.72c0-2.98-1.26-5.42-5.46-5.42-3.95,0-5.33,1.51-5.33,4.12v.88h-2.98v-.84c0-5,4.2-6.68,8.32-6.68,5.8,0,8.4,2.86,8.4,8.44v13.11h-2.06l-.55-2.98h-.08c-1.26,1.89-3.7,3.53-7.35,3.53-4.92,0-7.1-2.31-7.1-6.34Zm14.2-1.85v-1.76h-7.02c-2.65,0-4.03.92-4.03,3.61,0,2.35,1.26,3.86,4.5,3.86,4.16,0,6.55-2.14,6.55-5.71Z"/><path class="cls-15" d="m450.12,1735.8v-1.18h2.94v1.13c0,2.86,2.14,4.5,5.96,4.5s5.8-1.01,5.8-3.78c0-2.06-1.01-2.81-3.86-3.32l-4.62-.84c-3.02-.55-5.54-2.02-5.54-5.5,0-3.15,2.35-6.13,8.4-6.13s8.4,3.02,8.4,7.22v.88h-2.98v-.76c0-3.44-2.14-4.91-5.42-4.91-3.95,0-5.33,1.34-5.33,3.36s1.01,2.86,3.91,3.4l4.03.76c4.12.76,6.09,1.93,6.09,5.59,0,4.58-4.12,6.55-8.78,6.55-7.31,0-8.99-3.28-8.99-6.97Z"/><path class="cls-15" d="m491.03,1732.74h-15.96c.17,4.79,2.48,7.48,6.93,7.48,3.82,0,5.67-1.43,5.96-4.83h2.98c-.29,4.24-3.28,7.39-9.03,7.39-7.06,0-9.83-4.66-9.83-10.88s3.23-11.22,10-11.22,8.95,3.99,8.95,10.21v1.85Zm-3.11-2.98c0-4.45-1.72-6.55-5.92-6.55s-6.55,2.65-6.89,6.97h12.81v-.42Z"/><path class="cls-15" d="m508.25,1719.93h-3.36v-5.08c0-3.95.88-5.29,3.4-5.97l.67,1.85c-1.76.67-2.06,1.09-2.06,3.78v.34h1.34v5.08Zm5.92,0h-3.36v-5.08c0-3.95.88-5.29,3.4-5.97l.67,1.85c-1.76.67-2.06,1.09-2.06,3.78v.34h1.34v5.08Z"/><path class="cls-15" d="m521.61,1709.47h18.86v2.6h-15.92v12.94h12.31v2.6h-12.31v14.62h-2.94v-32.77Z"/><path class="cls-15" d="m543.82,1718.67c1.76-.67,2.06-1.09,2.06-3.78v-.34h-1.34v-5.08h3.36v5.08c0,3.95-.88,5.29-3.4,5.97l-.67-1.85Zm5.92,0c1.76-.67,2.06-1.09,2.06-3.78v-.34h-1.34v-5.08h3.36v5.08c0,3.95-.88,5.29-3.4,5.97l-.67-1.85Z"/><path class="cls-15" d="m568.1,1736.44c0-3.95,2.23-6.09,7.86-6.09h6.34v-1.72c0-2.98-1.26-5.42-5.46-5.42-3.95,0-5.33,1.51-5.33,4.12v.88h-2.98v-.84c0-5,4.2-6.68,8.32-6.68,5.8,0,8.4,2.86,8.4,8.44v13.11h-2.06l-.55-2.98h-.08c-1.26,1.89-3.7,3.53-7.35,3.53-4.92,0-7.1-2.31-7.1-6.34Zm14.2-1.85v-1.76h-7.02c-2.65,0-4.03.92-4.03,3.61,0,2.35,1.26,3.86,4.5,3.86,4.16,0,6.55-2.14,6.55-5.71Z"/><path class="cls-15" d="m592.59,1721.23h2.6l.29,3.49c1.01-2.14,3.28-4.03,7.35-4.03,4.75,0,7.77,2.52,7.77,7.94v13.61h-2.94v-13.27c0-4.33-2.14-5.71-5.5-5.71-3.82,0-6.64,2.69-6.64,5.63v13.36h-2.94v-21Z"/><path class="cls-15" d="m616.27,1731.77c0-7.1,4.28-11.09,10.04-11.09,3.7,0,6.22,1.6,7.31,3.74h.04v-14.95h2.94v32.77h-1.97l-.67-3.61h-.08c-1.18,2.31-3.95,4.16-7.77,4.16-6.3,0-9.83-3.99-9.83-11.01Zm17.64-.5c0-5.5-3.36-8.07-7.35-8.07-3.11,0-7.14,1.47-7.14,8.4s3.61,8.61,7.14,8.61c4.24,0,7.35-2.73,7.35-8.95Z"/><path class="cls-15" d="m655.29,1719.93h-3.36v-5.08c0-3.95.88-5.29,3.4-5.97l.67,1.85c-1.76.67-2.06,1.09-2.06,3.78v.34h1.34v5.08Zm5.92,0h-3.36v-5.08c0-3.95.88-5.29,3.4-5.97l.67,1.85c-1.76.67-2.06,1.09-2.06,3.78v.34h1.34v5.08Z"/><path class="cls-15" d="m666.34,1726.02c0-11.85,6.51-17.1,14.49-17.1,7.56,0,12.64,3.78,12.64,11.47v.5h-2.86v-.63c0-5.33-3.49-8.7-9.7-8.7-6.72,0-11.47,4.58-11.47,14.28s4.75,14.28,11.76,14.28c5.63,0,9.45-2.52,9.45-8.78v-2.73h-9.83v-2.6h12.64v16.21h-2.1l-.67-3.74c-1.6,2.48-5.17,4.29-9.75,4.29-8.32,0-14.62-4.87-14.62-16.76Z"/><path class="cls-15" d="m698.3,1718.67c1.76-.67,2.06-1.09,2.06-3.78v-.34h-1.34v-5.08h3.36v5.08c0,3.95-.88,5.29-3.4,5.97l-.67-1.85Zm5.92,0c1.76-.67,2.06-1.09,2.06-3.78v-.34h-1.34v-5.08h3.36v5.08c0,3.95-.88,5.29-3.4,5.97l-.67-1.85Z"/><path class="cls-15" d="m137.31,1784.65v-1.18h2.94v1.13c0,2.86,2.14,4.5,5.96,4.5s5.8-1.01,5.8-3.78c0-2.06-1.01-2.81-3.87-3.32l-4.62-.84c-3.02-.55-5.54-2.02-5.54-5.5,0-3.15,2.35-6.13,8.4-6.13s8.4,3.02,8.4,7.23v.88h-2.98v-.76c0-3.44-2.14-4.92-5.42-4.92-3.95,0-5.33,1.34-5.33,3.36s1.01,2.86,3.91,3.4l4.03.76c4.12.76,6.09,1.93,6.09,5.59,0,4.58-4.12,6.55-8.78,6.55-7.31,0-8.99-3.28-8.99-6.97Z"/><path class="cls-15" d="m160.95,1758.31h2.98v6.51h-2.98v-6.51Zm0,11.76h2.94v21h-2.94v-21Z"/><path class="cls-15" d="m201.99,1777.47v13.61h-2.94v-13.27c0-4.33-2.14-5.71-4.75-5.71-3.82,0-6.18,2.69-6.18,5.63v13.36h-2.94v-13.27c0-4.33-1.85-5.71-4.83-5.71-3.61,0-6.13,2.69-6.13,5.63v13.36h-2.94v-21h2.6l.29,3.49c1.01-2.02,3.07-4.03,6.93-4.03,2.94,0,5.38,1.39,6.43,4.29,1.22-2.39,3.57-4.29,7.14-4.29,4.28,0,7.31,2.52,7.31,7.94Z"/><path class="cls-15" d="m209.34,1758.31h2.98v6.51h-2.98v-6.51Zm0,11.76h2.94v21h-2.94v-21Z"/><path class="cls-15" d="m219.67,1758.31h2.94v32.77h-2.94v-32.77Z"/><path class="cls-15" d="m228.7,1785.28c0-3.95,2.23-6.09,7.86-6.09h6.34v-1.72c0-2.98-1.26-5.42-5.46-5.42-3.95,0-5.33,1.51-5.33,4.12v.88h-2.98v-.84c0-5,4.2-6.68,8.32-6.68,5.8,0,8.4,2.86,8.4,8.44v13.11h-2.06l-.55-2.98h-.08c-1.26,1.89-3.7,3.53-7.35,3.53-4.92,0-7.1-2.31-7.1-6.34Zm14.2-1.85v-1.76h-7.01c-2.65,0-4.03.92-4.03,3.61,0,2.35,1.26,3.87,4.5,3.87,4.16,0,6.55-2.14,6.55-5.71Z"/><path class="cls-15" d="m253.18,1770.07h2.6l.29,3.91c1.01-2.14,3.07-4.45,6.76-4.45,1.26,0,2.18.21,3.02.55v3.15c-1.13-.5-2.1-.76-3.4-.76-3.74,0-6.34,2.81-6.34,5.75v12.85h-2.94v-21Z"/><path class="cls-15" d="m291.11,1788.39v2.6c-.76.21-2.14.59-4.03.59-3.82,0-6.34-1.6-6.34-6.89v-12.18h-4.16v-2.44h4.16v-6.05l2.94-1.43v7.48h5.92v2.44h-5.92v11.8c0,2.81.76,4.58,3.4,4.58,1.6,0,3.23-.29,4.03-.5Z"/><path class="cls-15" d="m293.63,1780.58c0-6.22,3.32-11.05,10.38-11.05,6.59,0,10.25,4.83,10.25,11.05s-3.7,11.05-10.29,11.05c-7.27,0-10.33-4.83-10.33-11.05Zm17.56,0c0-5.33-2.9-8.49-7.23-8.49-4.75,0-7.27,3.15-7.27,8.49s2.56,8.49,7.27,8.49c4.33,0,7.23-3.15,7.23-8.49Z"/><path class="cls-15" d="m340.76,1788.39v2.6c-.76.21-2.14.59-4.03.59-3.82,0-6.34-1.6-6.34-6.89v-12.18h-4.16v-2.44h4.16v-6.05l2.94-1.43v7.48h5.92v2.44h-5.92v11.8c0,2.81.76,4.58,3.4,4.58,1.6,0,3.23-.29,4.03-.5Z"/><path class="cls-15" d="m345.59,1758.31h2.94v15.17c1.05-2.1,3.28-3.95,7.31-3.95,4.75,0,7.77,2.52,7.77,7.94v13.61h-2.94v-13.27c0-4.33-2.14-5.71-5.5-5.71-3.82,0-6.64,2.69-6.64,5.63v13.36h-2.94v-32.77Z"/><path class="cls-15" d="m388.22,1781.58h-15.96c.17,4.79,2.48,7.48,6.93,7.48,3.82,0,5.67-1.43,5.96-4.83h2.98c-.29,4.24-3.28,7.39-9.03,7.39-7.06,0-9.83-4.66-9.83-10.88s3.23-11.22,10-11.22,8.95,3.99,8.95,10.21v1.85Zm-3.11-2.98c0-4.45-1.72-6.55-5.92-6.55s-6.55,2.65-6.89,6.97h12.81v-.42Z"/><path class="cls-15" d="m404.81,1758.31h8.61c7.94,0,11.64,2.73,11.64,9.62,0,6.43-2.77,10.12-11.13,10.12h-6.13v13.02h-2.98v-32.77Zm9.28,17.22c6.09,0,7.94-2.69,7.94-7.64,0-5.21-2.6-6.97-8.44-6.97h-5.8v14.62h6.3Z"/><path class="cls-15" d="m428.2,1785.28c0-3.95,2.23-6.09,7.86-6.09h6.34v-1.72c0-2.98-1.26-5.42-5.46-5.42-3.95,0-5.33,1.51-5.33,4.12v.88h-2.98v-.84c0-5,4.2-6.68,8.32-6.68,5.8,0,8.4,2.86,8.4,8.44v13.11h-2.06l-.55-2.98h-.08c-1.26,1.89-3.7,3.53-7.35,3.53-4.92,0-7.1-2.31-7.1-6.34Zm14.2-1.85v-1.76h-7.01c-2.65,0-4.03.92-4.03,3.61,0,2.35,1.26,3.87,4.5,3.87,4.16,0,6.55-2.14,6.55-5.71Z"/><path class="cls-15" d="m452.68,1758.31h2.94v32.77h-2.94v-32.77Z"/><path class="cls-15" d="m493.68,1777.47v13.61h-2.94v-13.27c0-4.33-2.14-5.71-4.75-5.71-3.82,0-6.17,2.69-6.17,5.63v13.36h-2.94v-13.27c0-4.33-1.85-5.71-4.83-5.71-3.61,0-6.13,2.69-6.13,5.63v13.36h-2.94v-21h2.6l.29,3.49c1.01-2.02,3.07-4.03,6.93-4.03,2.94,0,5.38,1.39,6.43,4.29,1.22-2.39,3.57-4.29,7.14-4.29,4.29,0,7.31,2.52,7.31,7.94Z"/><path class="cls-15" d="m518.29,1781.58h-15.96c.17,4.79,2.48,7.48,6.93,7.48,3.82,0,5.67-1.43,5.96-4.83h2.98c-.29,4.24-3.28,7.39-9.03,7.39-7.06,0-9.83-4.66-9.83-10.88s3.23-11.22,10-11.22,8.95,3.99,8.95,10.21v1.85Zm-3.11-2.98c0-4.45-1.72-6.55-5.92-6.55s-6.55,2.65-6.89,6.97h12.81v-.42Z"/><path class="cls-15" d="m524.17,1770.07h2.6l.29,3.91c1.01-2.14,3.07-4.45,6.76-4.45,1.26,0,2.18.21,3.02.55v3.15c-1.13-.5-2.1-.76-3.4-.76-3.74,0-6.34,2.81-6.34,5.75v12.85h-2.94v-21Z"/><path class="cls-15" d="m549.24,1784.65v-1.18h2.94v1.13c0,2.86,2.14,4.5,5.96,4.5s5.8-1.01,5.8-3.78c0-2.06-1.01-2.81-3.86-3.32l-4.62-.84c-3.02-.55-5.54-2.02-5.54-5.5,0-3.15,2.35-6.13,8.4-6.13s8.4,3.02,8.4,7.23v.88h-2.98v-.76c0-3.44-2.14-4.92-5.42-4.92-3.95,0-5.33,1.34-5.33,3.36s1.01,2.86,3.91,3.4l4.03.76c4.12.76,6.09,1.93,6.09,5.59,0,4.58-4.12,6.55-8.78,6.55-7.31,0-8.99-3.28-8.99-6.97Z"/><path class="cls-15" d="m583.85,1788.39v2.6c-.76.21-2.14.59-4.03.59-3.82,0-6.34-1.6-6.34-6.89v-12.18h-4.16v-2.44h4.16v-6.05l2.94-1.43v7.48h5.92v2.44h-5.92v11.8c0,2.81.76,4.58,3.4,4.58,1.6,0,3.23-.29,4.03-.5Z"/><path class="cls-15" d="m588.89,1770.07l6.89,17.98h.08l7.14-17.98h3.07v.04l-8.86,20.84-3.11,8.53h-2.98v-.04l3.19-8.36-8.78-20.96v-.04h3.36Z"/><path class="cls-15" d="m610.27,1758.31h2.94v32.77h-2.94v-32.77Z"/><path class="cls-15" d="m637.82,1781.58h-15.96c.17,4.79,2.48,7.48,6.93,7.48,3.82,0,5.67-1.43,5.96-4.83h2.98c-.29,4.24-3.28,7.39-9.03,7.39-7.06,0-9.83-4.66-9.83-10.88s3.23-11.22,10-11.22,8.95,3.99,8.95,10.21v1.85Zm-3.11-2.98c0-4.45-1.72-6.55-5.92-6.55s-6.55,2.65-6.89,6.97h12.81v-.42Z"/><path class="cls-15" d="m531.94,889.2h-3.36v-5.08c0-3.95.88-5.29,3.4-5.97l.67,1.85c-1.76.67-2.06,1.09-2.06,3.78v.34h1.34v5.08Zm5.92,0h-3.36v-5.08c0-3.95.88-5.29,3.4-5.97l.67,1.85c-1.76.67-2.06,1.09-2.06,3.78v.34h1.34v5.08Z"/><path class="cls-15" d="m558.19,908.01h-.08c-1.09,2.14-3.65,4.03-7.48,4.03-6.3,0-9.75-3.99-9.75-11.01s4.37-11.09,9.96-11.09c3.78,0,6.6,1.76,7.65,4.28h.04l.29-3.74h2.31v29.41h-2.94v-11.89Zm.34-7.48c0-5.5-3.36-8.07-7.35-8.07-3.03,0-7.14,1.47-7.14,8.4s3.57,8.61,7.1,8.61c4.24,0,7.39-2.73,7.39-8.95Z"/><path class="cls-15" d="m565.75,887.94c1.76-.67,2.06-1.09,2.06-3.78v-.34h-1.34v-5.08h3.36v5.08c0,3.95-.88,5.29-3.4,5.97l-.67-1.85Zm5.92,0c1.76-.67,2.06-1.09,2.06-3.78v-.34h-1.34v-5.08h3.36v5.08c0,3.95-.88,5.29-3.4,5.97l-.67-1.85Z"/><path class="cls-15" d="m588.55,890.54v-.04h2.98l5.76,17.48h.08l6.3-17.48h2.69l6.17,17.48h.08l5.75-17.48h2.86v.04l-7.18,20.96h-3.02l-5.96-17.06h-.08l-6.22,17.06h-3.02l-7.18-20.96Z"/><path class="cls-15" d="m626.06,878.74h2.98v6.51h-2.98v-6.51Zm0,11.76h2.94v21h-2.94v-21Z"/><path class="cls-15" d="m647.35,908.81v2.6c-.76.21-2.14.59-4.03.59-3.82,0-6.34-1.6-6.34-6.89v-12.18h-4.16v-2.44h4.16v-6.05l2.94-1.43v7.48h5.92v2.44h-5.92v11.8c0,2.81.76,4.58,3.4,4.58,1.6,0,3.23-.29,4.03-.5Z"/><path class="cls-15" d="m652.18,878.74h2.94v15.16c1.05-2.1,3.28-3.95,7.31-3.95,4.75,0,7.77,2.52,7.77,7.94v13.61h-2.94v-13.27c0-4.33-2.14-5.71-5.5-5.71-3.82,0-6.64,2.69-6.64,5.63v13.36h-2.94v-32.77Z"/><path class="cls-15" d="m685.53,901c0-6.22,3.32-11.05,10.38-11.05,6.59,0,10.25,4.83,10.25,11.05s-3.7,11.05-10.29,11.05c-7.27,0-10.33-4.83-10.33-11.05Zm17.56,0c0-5.33-2.9-8.49-7.22-8.49-4.75,0-7.27,3.15-7.27,8.49s2.56,8.49,7.27,8.49c4.33,0,7.22-3.15,7.22-8.49Z"/><path class="cls-15" d="m712.03,890.5h2.39l.34,3.86h.08c1.13-2.48,4.03-4.41,7.86-4.41,6.3,0,9.66,3.99,9.66,11.01s-4.29,11.09-9.87,11.09c-3.78,0-6.38-1.6-7.43-3.7h-.08v11.55h-2.94v-29.41Zm17.18,10.63c0-7.18-3.4-8.61-6.93-8.61-4.24,0-7.56,2.73-7.56,8.44,0,6.01,3.45,8.57,7.44,8.57,3.02,0,7.06-1.47,7.06-8.4Z"/><path class="cls-15" d="m755.5,902.01h-15.96c.17,4.79,2.48,7.48,6.93,7.48,3.82,0,5.67-1.43,5.97-4.83h2.98c-.29,4.24-3.28,7.39-9.03,7.39-7.06,0-9.83-4.66-9.83-10.88s3.23-11.22,10-11.22,8.95,3.99,8.95,10.21v1.85Zm-3.11-2.98c0-4.45-1.72-6.55-5.92-6.55s-6.55,2.65-6.89,6.97h12.81v-.42Z"/><path class="cls-15" d="m761.38,890.5h2.6l.29,3.49c1.01-2.14,3.28-4.03,7.35-4.03,4.75,0,7.77,2.52,7.77,7.94v13.61h-2.94v-13.27c0-4.33-2.14-5.71-5.5-5.71-3.82,0-6.64,2.69-6.64,5.63v13.36h-2.94v-21Z"/><path class="cls-15" d="m796.41,878.74h2.94v23.23l12.14-11.47h3.65v.04l-8.4,7.86,8.78,13.06v.04h-3.36l-7.39-11.22-5.42,5.04v6.18h-2.94v-32.77Z"/><path class="cls-15" d="m820.56,890.5h2.6l.29,3.49c1.01-2.14,3.28-4.03,7.35-4.03,4.75,0,7.77,2.52,7.77,7.94v13.61h-2.94v-13.27c0-4.33-2.14-5.71-5.5-5.71-3.82,0-6.64,2.69-6.64,5.63v13.36h-2.94v-21Z"/><path class="cls-15" d="m844.24,901c0-6.22,3.32-11.05,10.38-11.05,6.59,0,10.25,4.83,10.25,11.05s-3.7,11.05-10.29,11.05c-7.27,0-10.33-4.83-10.33-11.05Zm17.56,0c0-5.33-2.9-8.49-7.22-8.49-4.75,0-7.27,3.15-7.27,8.49s2.56,8.49,7.27,8.49c4.33,0,7.22-3.15,7.22-8.49Z"/><path class="cls-15" d="m881.71,908.81v2.6c-.76.21-2.14.59-4.03.59-3.82,0-6.34-1.6-6.34-6.89v-12.18h-4.16v-2.44h4.16v-6.05l2.94-1.43v7.48h5.92v2.44h-5.92v11.8c0,2.81.76,4.58,3.4,4.58,1.6,0,3.23-.29,4.03-.5Z"/><line class="cls-3" x1="935.11" y1="1677.39" x2="935.11" y2="1676.52"/><line class="cls-4" x1="935.11" y1="1659.7" x2="935.11" y2="1464.66"/><line class="cls-3" x1="935.11" y1="1456.25" x2="935.11" y2="1455.38"/><line class="cls-3" x1="745.48" y1="856.44" x2="745.48" y2="855.57"/><line class="cls-11" x1="745.48" y1="839.89" x2="745.48" y2="778.74"/><line class="cls-3" x1="745.48" y1="770.9" x2="745.48" y2="770.03"/><line class="cls-3" x1="533.19" y1="2586.22" x2="533.19" y2="2585.35"/><line class="cls-9" x1="533.19" y1="2567.73" x2="533.19" y2="2363.37"/><line class="cls-3" x1="533.19" y1="2354.56" x2="533.19" y2="2353.69"/><line class="cls-3" x1="226.87" y1="798.52" x2="226.87" y2="797.65"/><line class="cls-6" x1="226.87" y1="780.27" x2="226.87" y2="578.65"/><line class="cls-3" x1="226.87" y1="569.96" x2="226.87" y2="569.09"/><line class="cls-3" x1="253.98" y1="2857.5" x2="253.98" y2="2856.63"/><line class="cls-1" x1="253.98" y1="2838.49" x2="253.98" y2="2767.76"/><line class="cls-3" x1="253.98" y1="2758.69" x2="253.98" y2="2757.81"/><line class="cls-3" x1="684.31" y1="3492.49" x2="684.31" y2="3491.61"/><line class="cls-13" x1="684.31" y1="3474.64" x2="684.31" y2="3240.44"/><line class="cls-3" x1="684.31" y1="3231.96" x2="684.31" y2="3231.08"/><circle class="cls-18" cx="745.48" cy="631.33" r="138.7"/><circle class="cls-18" cx="463.74" cy="2318.66" r="104.01"/><g class="cls-14"><path class="cls-17" d="m738.73,545.62c0-24,10.66-44.79,29.33-44.79,17.06,0,27.19,13.33,28.79,38.39,17.06-17.06,38.39-43.19,59.72-69.32l20.26-25.06c2.13-2.67,5.33-4.27,8-4.27,4.8,0,8.53,3.2,8.53,8.53,0,2.67-1.07,5.87-3.73,9.06l-20.26,25.06c-17.6,21.86-48.52,58.65-73.58,79.45-7.47,73.05-59.19,169.03-113.58,169.03-21.33,0-31.46-14.93-31.46-37.86.53-28.26,26.13-92.78,59.19-164.76-8,8.53-28.26,24.53-49.06,24.53s-39.99-10.66-39.99-45.86c0-27.19,18.13-58.65,50.66-85.85,17.06-14.93,37.33-27.19,57.05-35.19,16.53-6.93,32.53-10.66,46.39-10.66,10.13,0,19.2,1.07,19.2,9.06,0,2.67-1.07,6.4-3.73,12.8l-19.73,46.92c-28.26,68.25-100.78,197.82-100.78,249.01,0,8,1.07,18.13,12.26,18.13,36.26,0,80.52-70.92,92.78-135.44-2.67,1.07-4.8,1.6-6.4,1.6-18.66,0-29.86-9.6-29.86-32.53Zm32.53-150.9c-25.06,1.6-59.19,17.06-87.45,41.06-13.33,11.73-24.53,24-31.99,36.26-8,12.8-12.26,24.53-12.26,35.73,0,12.8,3.73,27.19,21.33,27.19,35.73,0,79.98-66.65,95.98-105.58l14.4-34.66Zm6.4,160.5c.53-3.2.53-6.4.53-10.13,0-16.53-3.2-24.53-10.13-24.53-5.33,0-10.67,6.93-10.67,24.53,0,11.73,4.27,14.4,11.2,14.4,2.13,0,5.33-1.6,9.06-4.27Z"/></g><path class="cls-15" d="m1461.12,835.65h2.94v32.77h-2.94v-32.77Z"/><path class="cls-15" d="m1483.63,865.73v2.6c-.76.21-2.14.59-4.03.59-3.82,0-6.34-1.6-6.34-6.89v-12.18h-4.16v-2.44h4.16v-6.05l2.94-1.43v7.48h5.92v2.44h-5.92v11.8c0,2.81.76,4.58,3.4,4.58,1.6,0,3.23-.29,4.03-.5Z"/><path class="cls-15" d="m1487.2,862.62c0-3.95,2.23-6.09,7.86-6.09h6.34v-1.72c0-2.98-1.26-5.42-5.46-5.42-3.95,0-5.33,1.51-5.33,4.12v.88h-2.98v-.84c0-5,4.2-6.68,8.32-6.68,5.8,0,8.4,2.86,8.4,8.44v13.11h-2.06l-.55-2.98h-.08c-1.26,1.89-3.7,3.53-7.35,3.53-4.92,0-7.1-2.31-7.1-6.34Zm14.2-1.85v-1.76h-7.01c-2.65,0-4.03.92-4.03,3.61,0,2.35,1.26,3.86,4.5,3.86,4.16,0,6.55-2.14,6.55-5.71Z"/><path class="cls-15" d="m1511.69,835.65h2.94v32.77h-2.94v-32.77Z"/><path class="cls-15" d="m1521.98,835.65h2.98v6.51h-2.98v-6.51Zm0,11.76h2.94v21h-2.94v-21Z"/><path class="cls-15" d="m1530.63,858.08c0-6.38,3.23-11.22,10-11.22s8.95,3.91,8.95,8.95v.42h-3.11v-.63c0-3.82-1.64-6.09-5.84-6.09-4.75,0-7.02,3.11-7.02,8.4,0,5.63,2.39,8.49,6.93,8.49,3.82,0,5.84-1.85,5.92-5.67h3.02c-.08,4.66-3.15,8.23-9.03,8.23-7.22,0-9.83-4.75-9.83-10.88Z"/><path class="cls-15" d="m1563.22,861.99v-1.18h2.94v1.13c0,2.86,2.14,4.5,5.96,4.5s5.8-1.01,5.8-3.78c0-2.06-1.01-2.81-3.86-3.32l-4.62-.84c-3.02-.55-5.54-2.02-5.54-5.5,0-3.15,2.35-6.13,8.4-6.13s8.4,3.02,8.4,7.22v.88h-2.98v-.76c0-3.44-2.14-4.91-5.42-4.91-3.95,0-5.33,1.34-5.33,3.36s1.01,2.86,3.91,3.4l4.03.76c4.12.76,6.09,1.93,6.09,5.59,0,4.58-4.12,6.55-8.78,6.55-7.31,0-8.99-3.28-8.99-6.97Z"/><path class="cls-15" d="m1597.83,865.73v2.6c-.76.21-2.14.59-4.03.59-3.82,0-6.34-1.6-6.34-6.89v-12.18h-4.16v-2.44h4.16v-6.05l2.94-1.43v7.48h5.92v2.44h-5.92v11.8c0,2.81.76,4.58,3.4,4.58,1.6,0,3.23-.29,4.03-.5Z"/><path class="cls-15" d="m1602.87,847.41l6.89,17.98h.08l7.14-17.98h3.07v.04l-8.86,20.84-3.11,8.53h-2.98v-.04l3.19-8.36-8.78-20.96v-.04h3.36Z"/><path class="cls-15" d="m1624.25,835.65h2.94v32.77h-2.94v-32.77Z"/><path class="cls-15" d="m1651.8,858.92h-15.96c.17,4.79,2.48,7.48,6.93,7.48,3.82,0,5.67-1.43,5.97-4.83h2.98c-.29,4.24-3.28,7.39-9.03,7.39-7.06,0-9.83-4.66-9.83-10.88s3.23-11.22,10-11.22,8.95,3.99,8.95,10.21v1.85Zm-3.11-2.98c0-4.45-1.72-6.55-5.92-6.55s-6.55,2.65-6.89,6.97h12.81v-.42Z"/><path class="cls-15" d="m1669.02,846.11h-3.36v-5.08c0-3.95.88-5.29,3.4-5.97l.67,1.85c-1.76.67-2.06,1.09-2.06,3.78v.34h1.34v5.08Zm5.92,0h-3.36v-5.08c0-3.95.88-5.29,3.4-5.97l.67,1.85c-1.76.67-2.06,1.09-2.06,3.78v.34h1.34v5.08Z"/><path class="cls-15" d="m1681.33,847.41h2.6l.29,3.91c1.01-2.14,3.07-4.45,6.76-4.45,1.26,0,2.18.21,3.02.55v3.15c-1.13-.5-2.1-.76-3.4-.76-3.74,0-6.34,2.81-6.34,5.75v12.85h-2.94v-21Z"/><path class="cls-15" d="m1696.74,844.85c1.76-.67,2.06-1.09,2.06-3.78v-.34h-1.34v-5.08h3.36v5.08c0,3.95-.88,5.29-3.4,5.97l-.67-1.85Zm5.92,0c1.76-.67,2.06-1.09,2.06-3.78v-.34h-1.34v-5.08h3.36v5.08c0,3.95-.88,5.29-3.4,5.97l-.67-1.85Z"/><line class="cls-3" x1="276.78" y1="2584.09" x2="276.78" y2="2583.22"/><line class="cls-5" x1="276.78" y1="2565.44" x2="276.78" y2="2183.04"/><line class="cls-3" x1="276.78" y1="2174.15" x2="276.78" y2="2173.28"/><path class="cls-15" d="m106.94,2613.33h-3.36v-5.08c0-3.95.88-5.29,3.4-5.97l.67,1.85c-1.76.67-2.06,1.09-2.06,3.78v.34h1.34v5.08Zm5.92,0h-3.36v-5.08c0-3.95.88-5.29,3.4-5.97l.67,1.85c-1.76.67-2.06,1.09-2.06,3.78v.34h1.34v5.08Z"/><path class="cls-15" d="m136.05,2602.87v2.27l-12.18,30.5h-3.32v-.08l12.18-29.95h-16.84v-2.73h20.16Z"/><path class="cls-15" d="m139.03,2612.07c1.76-.67,2.06-1.09,2.06-3.78v-.34h-1.34v-5.08h3.36v5.08c0,3.95-.88,5.29-3.4,5.97l-.67-1.85Zm5.92,0c1.76-.67,2.06-1.09,2.06-3.78v-.34h-1.34v-5.08h3.36v5.08c0,3.95-.88,5.29-3.4,5.97l-.67-1.85Z"/><path class="cls-15" d="m161.83,2614.67v-.04h2.98l5.75,17.47h.08l6.3-17.47h2.69l6.17,17.47h.08l5.75-17.47h2.86v.04l-7.18,20.96h-3.02l-5.96-17.06h-.08l-6.22,17.06h-3.02l-7.18-20.96Z"/><path class="cls-15" d="m199.34,2602.87h2.98v6.51h-2.98v-6.51Zm0,11.76h2.94v21h-2.94v-21Z"/><path class="cls-15" d="m220.63,2632.95v2.6c-.76.21-2.14.59-4.03.59-3.82,0-6.34-1.6-6.34-6.89v-12.18h-4.16v-2.44h4.16v-6.05l2.94-1.43v7.48h5.92v2.44h-5.92v11.8c0,2.81.76,4.58,3.4,4.58,1.6,0,3.23-.29,4.03-.5Z"/><path class="cls-15" d="m225.46,2602.87h2.94v15.16c1.05-2.1,3.28-3.95,7.31-3.95,4.75,0,7.77,2.52,7.77,7.94v13.61h-2.94v-13.27c0-4.33-2.14-5.71-5.5-5.71-3.82,0-6.64,2.69-6.64,5.63v13.36h-2.94v-32.77Z"/><path class="cls-15" d="m259.23,2629.84c0-3.95,2.23-6.09,7.86-6.09h6.34v-1.72c0-2.98-1.26-5.42-5.46-5.42-3.95,0-5.33,1.51-5.33,4.12v.88h-2.98v-.84c0-5,4.2-6.68,8.32-6.68,5.8,0,8.4,2.86,8.4,8.44v13.11h-2.06l-.55-2.98h-.08c-1.26,1.89-3.7,3.53-7.35,3.53-4.92,0-7.1-2.31-7.1-6.34Zm14.2-1.85v-1.76h-7.01c-2.65,0-4.03.92-4.03,3.61,0,2.35,1.26,3.86,4.5,3.86,4.16,0,6.55-2.14,6.55-5.71Z"/><path class="cls-15" d="m296.19,2632.15h-.08l-.76,3.49h-1.97v-32.77h2.94v15.25h.04c1.26-2.31,4.07-4.03,7.69-4.03,6.3,0,9.66,3.99,9.66,11.01s-4.29,11.09-9.87,11.09c-3.78,0-6.55-1.64-7.65-4.03Zm14.37-6.89c0-7.18-3.4-8.61-6.93-8.61-4.24,0-7.56,2.73-7.56,8.44,0,6.01,3.45,8.57,7.44,8.57,3.02,0,7.06-1.47,7.06-8.4Z"/><path class="cls-15" d="m318.11,2629.84c0-3.95,2.23-6.09,7.86-6.09h6.34v-1.72c0-2.98-1.26-5.42-5.46-5.42-3.95,0-5.33,1.51-5.33,4.12v.88h-2.98v-.84c0-5,4.2-6.68,8.32-6.68,5.8,0,8.4,2.86,8.4,8.44v13.11h-2.06l-.55-2.98h-.08c-1.26,1.89-3.7,3.53-7.35,3.53-4.92,0-7.1-2.31-7.1-6.34Zm14.2-1.85v-1.76h-7.01c-2.65,0-4.03.92-4.03,3.61,0,2.35,1.26,3.86,4.5,3.86,4.16,0,6.55-2.14,6.55-5.71Z"/><path class="cls-15" d="m342.6,2614.63h2.6l.29,3.91c1.01-2.14,3.07-4.45,6.76-4.45,1.26,0,2.18.21,3.02.55v3.15c-1.13-.5-2.1-.76-3.4-.76-3.74,0-6.34,2.81-6.34,5.75v12.85h-2.94v-21Z"/><path class="cls-15" d="m104,2723.4c0-11.72,6.76-16.93,15.46-16.93,7.94,0,14.7,5.21,14.7,16.59,0,12.48-6.76,17.26-15.08,17.26s-15.08-4.79-15.08-16.93Zm27.05,0c0-10.12-5.33-14.24-12.01-14.24s-11.93,4.12-11.93,14.24,5.33,14.2,12.01,14.2,11.93-3.74,11.93-14.2Z"/><path class="cls-15" d="m140.45,2718.78h2.6l.29,3.91c1.01-2.14,3.07-4.45,6.76-4.45,1.26,0,2.18.21,3.02.55v3.15c-1.13-.5-2.1-.76-3.4-.76-3.74,0-6.34,2.81-6.34,5.75v12.85h-2.94v-21Z"/><path class="cls-15" d="m157.76,2718.78h2.6l.29,3.49c1.01-2.14,3.28-4.03,7.35-4.03,4.75,0,7.77,2.52,7.77,7.94v13.61h-2.94v-13.27c0-4.33-2.14-5.71-5.5-5.71-3.82,0-6.64,2.69-6.64,5.63v13.36h-2.94v-21Z"/><path class="cls-15" d="m181.86,2733.99c0-3.95,2.23-6.09,7.86-6.09h6.34v-1.72c0-2.98-1.26-5.42-5.46-5.42-3.95,0-5.33,1.51-5.33,4.12v.88h-2.98v-.84c0-5,4.2-6.68,8.32-6.68,5.8,0,8.4,2.86,8.4,8.44v13.11h-2.06l-.55-2.98h-.08c-1.26,1.89-3.7,3.53-7.35,3.53-4.92,0-7.1-2.31-7.1-6.34Zm14.2-1.85v-1.76h-7.01c-2.65,0-4.03.92-4.03,3.61,0,2.35,1.26,3.87,4.5,3.87,4.16,0,6.55-2.14,6.55-5.71Z"/><path class="cls-15" d="m217.1,2737.1v2.6c-.76.21-2.14.59-4.03.59-3.82,0-6.34-1.6-6.34-6.89v-12.18h-4.16v-2.44h4.16v-6.05l2.94-1.43v7.48h5.92v2.44h-5.92v11.8c0,2.81.76,4.58,3.4,4.58,1.6,0,3.23-.29,4.03-.5Z"/><path class="cls-15" d="m238.57,2730.29h-15.96c.17,4.79,2.48,7.48,6.93,7.48,3.82,0,5.67-1.43,5.97-4.83h2.98c-.29,4.24-3.28,7.39-9.03,7.39-7.06,0-9.83-4.66-9.83-10.88s3.23-11.22,10-11.22,8.95,3.99,8.95,10.21v1.85Zm-3.11-2.98c0-4.45-1.72-6.55-5.92-6.55s-6.55,2.65-6.89,6.97h12.81v-.42Z"/><path class="cls-15" d="m271.37,2730.29h-15.96c.17,4.79,2.48,7.48,6.93,7.48,3.82,0,5.67-1.43,5.97-4.83h2.98c-.29,4.24-3.28,7.39-9.03,7.39-7.06,0-9.83-4.66-9.83-10.88s3.23-11.22,10-11.22,8.95,3.99,8.95,10.21v1.85Zm-3.11-2.98c0-4.45-1.72-6.55-5.92-6.55s-6.55,2.65-6.89,6.97h12.81v-.42Z"/><path class="cls-15" d="m277.25,2718.78h2.6l.29,3.49c1.01-2.14,3.28-4.03,7.35-4.03,4.75,0,7.77,2.52,7.77,7.94v13.61h-2.94v-13.27c0-4.33-2.14-5.71-5.5-5.71-3.82,0-6.64,2.69-6.64,5.63v13.36h-2.94v-21Z"/><path class="cls-15" d="m313.58,2737.1v2.6c-.76.21-2.14.59-4.03.59-3.82,0-6.34-1.6-6.34-6.89v-12.18h-4.16v-2.44h4.16v-6.05l2.94-1.43v7.48h5.92v2.44h-5.92v11.8c0,2.81.76,4.58,3.4,4.58,1.6,0,3.23-.29,4.03-.5Z"/><path class="cls-15" d="m318.4,2718.78h2.6l.29,3.91c1.01-2.14,3.07-4.45,6.76-4.45,1.26,0,2.18.21,3.02.55v3.15c-1.13-.5-2.1-.76-3.4-.76-3.74,0-6.34,2.81-6.34,5.75v12.85h-2.94v-21Z"/><path class="cls-15" d="m335.92,2718.78l6.89,17.98h.08l7.14-17.98h3.07v.04l-8.86,20.84-3.11,8.53h-2.98v-.04l3.19-8.36-8.78-20.96v-.04h3.36Z"/><path class="cls-15" d="m365.07,2733.36v-1.18h2.94v1.13c0,2.86,2.14,4.49,5.96,4.49s5.8-1.01,5.8-3.78c0-2.06-1.01-2.81-3.86-3.32l-4.62-.84c-3.02-.55-5.54-2.02-5.54-5.5,0-3.15,2.35-6.13,8.4-6.13s8.4,3.02,8.4,7.23v.88h-2.98v-.76c0-3.44-2.14-4.91-5.42-4.91-3.95,0-5.33,1.34-5.33,3.36s1.01,2.86,3.91,3.4l4.03.76c4.12.76,6.09,1.93,6.09,5.59,0,4.58-4.12,6.55-8.78,6.55-7.31,0-8.99-3.28-8.99-6.97Z"/><path class="cls-15" d="m399.68,2737.1v2.6c-.76.21-2.14.59-4.03.59-3.82,0-6.34-1.6-6.34-6.89v-12.18h-4.16v-2.44h4.16v-6.05l2.94-1.43v7.48h5.92v2.44h-5.92v11.8c0,2.81.76,4.58,3.4,4.58,1.6,0,3.23-.29,4.03-.5Z"/><path class="cls-15" d="m404.5,2718.78h2.6l.29,3.91c1.01-2.14,3.07-4.45,6.76-4.45,1.26,0,2.18.21,3.02.55v3.15c-1.13-.5-2.1-.76-3.4-.76-3.74,0-6.34,2.81-6.34,5.75v12.85h-2.94v-21Z"/><path class="cls-15" d="m419.5,2729.29c0-6.22,3.32-11.05,10.38-11.05,6.59,0,10.25,4.83,10.25,11.05s-3.7,11.05-10.29,11.05c-7.27,0-10.33-4.83-10.33-11.05Zm17.56,0c0-5.33-2.9-8.49-7.22-8.49-4.75,0-7.27,3.15-7.27,8.49s2.56,8.49,7.27,8.49c4.33,0,7.22-3.15,7.22-8.49Z"/><path class="cls-15" d="m445.37,2707.02h2.94v23.23l12.14-11.47h3.65v.04l-8.4,7.86,8.78,13.06v.04h-3.36l-7.39-11.22-5.42,5.04v6.18h-2.94v-32.77Z"/><path class="cls-15" d="m485.73,2730.29h-15.96c.17,4.79,2.48,7.48,6.93,7.48,3.82,0,5.67-1.43,5.97-4.83h2.98c-.29,4.24-3.28,7.39-9.03,7.39-7.06,0-9.83-4.66-9.83-10.88s3.23-11.22,10-11.22,8.95,3.99,8.95,10.21v1.85Zm-3.11-2.98c0-4.45-1.72-6.55-5.92-6.55s-6.55,2.65-6.89,6.97h12.81v-.42Z"/><path class="cls-15" d="m489.72,2733.36v-1.18h2.94v1.13c0,2.86,2.14,4.49,5.96,4.49s5.8-1.01,5.8-3.78c0-2.06-1.01-2.81-3.86-3.32l-4.62-.84c-3.02-.55-5.54-2.02-5.54-5.5,0-3.15,2.35-6.13,8.4-6.13s8.4,3.02,8.4,7.23v.88h-2.98v-.76c0-3.44-2.14-4.91-5.42-4.91-3.95,0-5.33,1.34-5.33,3.36s1.01,2.86,3.91,3.4l4.03.76c4.12.76,6.09,1.93,6.09,5.59,0,4.58-4.12,6.55-8.78,6.55-7.31,0-8.99-3.28-8.99-6.97Z"/><path class="cls-15" d="m523.03,2707.02h2.98v6.51h-2.98v-6.51Zm0,11.76h2.94v21h-2.94v-21Z"/><path class="cls-15" d="m533.36,2718.78h2.6l.29,3.49c1.01-2.14,3.28-4.03,7.35-4.03,4.75,0,7.77,2.52,7.77,7.94v13.61h-2.94v-13.27c0-4.33-2.14-5.71-5.5-5.71-3.82,0-6.64,2.69-6.64,5.63v13.36h-2.94v-21Z"/><path class="cls-15" d="m567.97,2732.39v-13.61h2.94v13.27c0,4.33,2.14,5.71,5.42,5.71,3.74,0,6.55-2.69,6.55-5.63v-13.36h2.94v21h-2.6l-.25-3.36h-.08c-.97,2.02-3.23,3.91-7.23,3.91-4.66,0-7.69-2.52-7.69-7.94Z"/><path class="cls-15" d="m593.17,2718.78h2.39l.34,3.87h.08c1.13-2.48,4.03-4.41,7.86-4.41,6.3,0,9.66,3.99,9.66,11.01s-4.29,11.09-9.87,11.09c-3.78,0-6.38-1.6-7.43-3.7h-.08v11.55h-2.94v-29.41Zm17.18,10.63c0-7.18-3.4-8.61-6.93-8.61-4.24,0-7.56,2.73-7.56,8.44,0,6.01,3.45,8.57,7.44,8.57,3.02,0,7.06-1.47,7.06-8.4Z"/><path class="cls-15" d="m619.37,2718.78h2.39l.34,3.87h.08c1.13-2.48,4.03-4.41,7.86-4.41,6.3,0,9.66,3.99,9.66,11.01s-4.29,11.09-9.87,11.09c-3.78,0-6.38-1.6-7.43-3.7h-.08v11.55h-2.94v-29.41Zm17.18,10.63c0-7.18-3.4-8.61-6.93-8.61-4.24,0-7.56,2.73-7.56,8.44,0,6.01,3.45,8.57,7.44,8.57,3.02,0,7.06-1.47,7.06-8.4Z"/><path class="cls-15" d="m662.85,2730.29h-15.96c.17,4.79,2.48,7.48,6.93,7.48,3.82,0,5.67-1.43,5.97-4.83h2.98c-.29,4.24-3.28,7.39-9.03,7.39-7.06,0-9.83-4.66-9.83-10.88s3.23-11.22,10-11.22,8.95,3.99,8.95,10.21v1.85Zm-3.11-2.98c0-4.45-1.72-6.55-5.92-6.55s-6.55,2.65-6.89,6.97h12.81v-.42Z"/><path class="cls-15" d="m668.72,2718.78h2.6l.29,3.91c1.01-2.14,3.07-4.45,6.76-4.45,1.26,0,2.18.21,3.02.55v3.15c-1.13-.5-2.1-.76-3.4-.76-3.74,0-6.34,2.81-6.34,5.75v12.85h-2.94v-21Z"/><path class="cls-15" d="m683.72,2729.45c0-6.38,3.23-11.22,10-11.22s8.95,3.91,8.95,8.95v.42h-3.11v-.63c0-3.82-1.64-6.09-5.84-6.09-4.75,0-7.01,3.11-7.01,8.4,0,5.63,2.39,8.49,6.93,8.49,3.82,0,5.84-1.85,5.92-5.67h3.02c-.08,4.66-3.15,8.23-9.03,8.23-7.22,0-9.83-4.75-9.83-10.88Z"/><path class="cls-15" d="m707.07,2733.99c0-3.95,2.23-6.09,7.86-6.09h6.34v-1.72c0-2.98-1.26-5.42-5.46-5.42-3.95,0-5.33,1.51-5.33,4.12v.88h-2.98v-.84c0-5,4.2-6.68,8.32-6.68,5.8,0,8.4,2.86,8.4,8.44v13.11h-2.06l-.55-2.98h-.08c-1.26,1.89-3.7,3.53-7.35,3.53-4.92,0-7.1-2.31-7.1-6.34Zm14.2-1.85v-1.76h-7.01c-2.65,0-4.03.92-4.03,3.61,0,2.35,1.26,3.87,4.5,3.87,4.16,0,6.55-2.14,6.55-5.71Z"/><path class="cls-15" d="m729.67,2733.36v-1.18h2.94v1.13c0,2.86,2.14,4.49,5.96,4.49s5.8-1.01,5.8-3.78c0-2.06-1.01-2.81-3.86-3.32l-4.62-.84c-3.02-.55-5.54-2.02-5.54-5.5,0-3.15,2.35-6.13,8.4-6.13s8.4,3.02,8.4,7.23v.88h-2.98v-.76c0-3.44-2.14-4.91-5.42-4.91-3.95,0-5.33,1.34-5.33,3.36s1.01,2.86,3.91,3.4l4.03.76c4.12.76,6.09,1.93,6.09,5.59,0,4.58-4.12,6.55-8.78,6.55-7.31,0-8.99-3.28-8.99-6.97Z"/><path class="cls-15" d="m770.58,2730.29h-15.96c.17,4.79,2.48,7.48,6.93,7.48,3.82,0,5.67-1.43,5.97-4.83h2.98c-.29,4.24-3.28,7.39-9.03,7.39-7.06,0-9.83-4.66-9.83-10.88s3.23-11.22,10-11.22,8.95,3.99,8.95,10.21v1.85Zm-3.11-2.98c0-4.45-1.72-6.55-5.92-6.55s-6.55,2.65-6.89,6.97h12.81v-.42Z"/><path class="cls-15" d="m786.11,2707.02h2.94v32.77h-2.94v-32.77Z"/><path class="cls-15" d="m813.67,2730.29h-15.96c.17,4.79,2.48,7.48,6.93,7.48,3.82,0,5.67-1.43,5.97-4.83h2.98c-.29,4.24-3.28,7.39-9.03,7.39-7.06,0-9.83-4.66-9.83-10.88s3.23-11.22,10-11.22,8.95,3.99,8.95,10.21v1.85Zm-3.11-2.98c0-4.45-1.72-6.55-5.92-6.55s-6.55,2.65-6.89,6.97h12.81v-.42Z"/><path class="cls-15" d="m820.13,2733.4v-12.18h-4.16v-2.44h4.16v-6.05l2.94-1.43v7.48h11.85v-6.05l2.94-1.43v7.48h5.92v2.44h-5.92v11.8c0,2.81.76,4.58,3.4,4.58,1.6,0,3.24-.29,4.03-.5v2.6c-.76.21-2.14.59-4.03.59-3.82,0-6.34-1.6-6.34-6.89v-12.18h-11.85v11.8c0,2.81.76,4.58,3.4,4.58,1.6,0,3.23-.29,4.03-.5v2.6c-.76.21-2.14.59-4.03.59-3.82,0-6.34-1.6-6.34-6.89Z"/><path class="cls-15" d="m866.76,2730.29h-15.96c.17,4.79,2.48,7.48,6.93,7.48,3.82,0,5.67-1.43,5.97-4.83h2.98c-.29,4.24-3.28,7.39-9.03,7.39-7.06,0-9.83-4.66-9.83-10.88s3.23-11.22,10-11.22,8.95,3.99,8.95,10.21v1.85Zm-3.11-2.98c0-4.45-1.72-6.55-5.92-6.55s-6.55,2.65-6.89,6.97h12.81v-.42Z"/><path class="cls-15" d="m872.63,2718.78h2.6l.29,3.91c1.01-2.14,3.07-4.45,6.76-4.45,1.26,0,2.18.21,3.02.55v3.15c-1.13-.5-2.1-.76-3.4-.76-3.74,0-6.34,2.81-6.34,5.75v12.85h-2.94v-21Z"/><path class="cls-15" d="m887.84,2733.36v-1.18h2.94v1.13c0,2.86,2.14,4.49,5.96,4.49s5.8-1.01,5.8-3.78c0-2.06-1.01-2.81-3.86-3.32l-4.62-.84c-3.02-.55-5.54-2.02-5.54-5.5,0-3.15,2.35-6.13,8.4-6.13s8.4,3.02,8.4,7.23v.88h-2.98v-.76c0-3.44-2.14-4.91-5.42-4.91-3.95,0-5.33,1.34-5.33,3.36s1.01,2.86,3.91,3.4l4.03.76c4.12.76,6.09,1.93,6.09,5.59,0,4.58-4.12,6.55-8.78,6.55-7.31,0-8.99-3.28-8.99-6.97Z"/><path class="cls-15" d="m425.3,3525.78h3.15l17.69,27.6h.04v-27.6h2.94v32.77h-3.07l-17.77-27.93h-.04v27.93h-2.94v-32.77Z"/><path class="cls-15" d="m474.99,3549.05h-15.96c.17,4.79,2.48,7.48,6.93,7.48,3.82,0,5.67-1.43,5.97-4.83h2.98c-.29,4.24-3.28,7.39-9.03,7.39-7.06,0-9.83-4.66-9.83-10.88s3.23-11.22,10-11.22,8.95,3.99,8.95,10.21v1.85Zm-3.11-2.98c0-4.45-1.72-6.55-5.92-6.55s-6.55,2.65-6.89,6.97h12.81v-.42Z"/><path class="cls-15" d="m479.4,3552.75c0-3.95,2.23-6.09,7.86-6.09h6.34v-1.72c0-2.98-1.26-5.42-5.46-5.42-3.95,0-5.33,1.51-5.33,4.12v.88h-2.98v-.84c0-5,4.2-6.68,8.32-6.68,5.8,0,8.4,2.86,8.4,8.44v13.11h-2.06l-.55-2.98h-.08c-1.26,1.89-3.7,3.53-7.35,3.53-4.92,0-7.1-2.31-7.1-6.34Zm14.2-1.85v-1.76h-7.01c-2.65,0-4.03.92-4.03,3.61,0,2.35,1.26,3.86,4.5,3.86,4.16,0,6.55-2.14,6.55-5.71Z"/><path class="cls-15" d="m503.88,3537.54h2.6l.29,3.91c1.01-2.14,3.07-4.45,6.76-4.45,1.26,0,2.18.21,3.02.55v3.15c-1.13-.5-2.1-.76-3.4-.76-3.74,0-6.34,2.81-6.34,5.75v12.85h-2.94v-21Z"/><path class="cls-15" d="m521.19,3525.78h2.94v32.77h-2.94v-32.77Z"/><path class="cls-15" d="m531.48,3537.54l6.89,17.98h.08l7.14-17.98h3.07v.04l-8.86,20.84-3.11,8.53h-2.98v-.04l3.19-8.36-8.78-20.96v-.04h3.36Z"/><path class="cls-15" d="m560.83,3548.21c0-6.38,3.23-11.22,10-11.22s8.95,3.91,8.95,8.95v.42h-3.11v-.63c0-3.82-1.64-6.09-5.84-6.09-4.75,0-7.01,3.11-7.01,8.4,0,5.63,2.39,8.49,6.93,8.49,3.82,0,5.84-1.85,5.92-5.67h3.02c-.08,4.66-3.15,8.23-9.03,8.23-7.22,0-9.83-4.75-9.83-10.88Z"/><path class="cls-15" d="m585.03,3525.78h2.94v32.77h-2.94v-32.77Z"/><path class="cls-15" d="m593.64,3548.04c0-6.22,3.32-11.05,10.38-11.05,6.59,0,10.25,4.83,10.25,11.05s-3.7,11.05-10.29,11.05c-7.27,0-10.33-4.83-10.33-11.05Zm17.56,0c0-5.33-2.9-8.49-7.22-8.49-4.75,0-7.27,3.15-7.27,8.49s2.56,8.49,7.27,8.49c4.33,0,7.22-3.15,7.22-8.49Z"/><path class="cls-15" d="m618.25,3552.12v-1.18h2.94v1.13c0,2.86,2.14,4.5,5.96,4.5s5.8-1.01,5.8-3.78c0-2.06-1.01-2.81-3.86-3.32l-4.62-.84c-3.02-.55-5.54-2.02-5.54-5.5,0-3.15,2.35-6.13,8.4-6.13s8.4,3.02,8.4,7.22v.88h-2.98v-.76c0-3.45-2.14-4.92-5.42-4.92-3.95,0-5.33,1.34-5.33,3.36s1.01,2.86,3.91,3.4l4.03.76c4.12.76,6.09,1.93,6.09,5.59,0,4.58-4.12,6.55-8.78,6.55-7.31,0-8.99-3.28-8.99-6.97Z"/><path class="cls-15" d="m659.16,3549.05h-15.96c.17,4.79,2.48,7.48,6.93,7.48,3.82,0,5.67-1.43,5.97-4.83h2.98c-.29,4.24-3.28,7.39-9.03,7.39-7.06,0-9.83-4.66-9.83-10.88s3.23-11.22,10-11.22,8.95,3.99,8.95,10.21v1.85Zm-3.11-2.98c0-4.45-1.72-6.55-5.92-6.55s-6.55,2.65-6.89,6.97h12.81v-.42Z"/><path class="cls-15" d="m663.35,3548.09c0-7.1,4.28-11.09,10.04-11.09,3.7,0,6.22,1.6,7.31,3.74h.04v-14.95h2.94v32.77h-1.97l-.67-3.61h-.08c-1.18,2.31-3.95,4.16-7.77,4.16-6.3,0-9.83-3.99-9.83-11.01Zm17.64-.5c0-5.5-3.36-8.07-7.35-8.07-3.11,0-7.14,1.47-7.14,8.4s3.61,8.61,7.14,8.61c4.24,0,7.35-2.73,7.35-8.95Z"/><path class="cls-15" d="m703.51,3555.06h-.08l-.76,3.49h-1.97v-32.77h2.94v15.25h.04c1.26-2.31,4.07-4.03,7.69-4.03,6.3,0,9.66,3.99,9.66,11.01s-4.29,11.09-9.87,11.09c-3.78,0-6.55-1.64-7.65-4.03Zm14.37-6.89c0-7.18-3.4-8.61-6.93-8.61-4.24,0-7.56,2.73-7.56,8.44,0,6.01,3.45,8.57,7.44,8.57,3.02,0,7.06-1.47,7.06-8.4Z"/><path class="cls-15" d="m725.22,3548.04c0-6.22,3.32-11.05,10.38-11.05,6.59,0,10.25,4.83,10.25,11.05s-3.7,11.05-10.29,11.05c-7.27,0-10.33-4.83-10.33-11.05Zm17.56,0c0-5.33-2.9-8.49-7.22-8.49-4.75,0-7.27,3.15-7.27,8.49s2.56,8.49,7.27,8.49c4.33,0,7.22-3.15,7.22-8.49Z"/><path class="cls-15" d="m752.31,3552.16v-12.18h-4.16v-2.44h4.16v-6.05l2.94-1.43v7.48h11.85v-6.05l2.94-1.43v7.48h5.92v2.44h-5.92v11.8c0,2.81.76,4.58,3.4,4.58,1.6,0,3.24-.29,4.03-.5v2.6c-.76.21-2.14.59-4.03.59-3.82,0-6.34-1.6-6.34-6.89v-12.18h-11.85v11.8c0,2.81.76,4.58,3.4,4.58,1.6,0,3.23-.29,4.03-.5v2.6c-.76.21-2.14.59-4.03.59-3.82,0-6.34-1.6-6.34-6.89Z"/><path class="cls-15" d="m779.99,3548.04c0-6.22,3.32-11.05,10.38-11.05,6.59,0,10.25,4.83,10.25,11.05s-3.7,11.05-10.29,11.05c-7.27,0-10.33-4.83-10.33-11.05Zm17.56,0c0-5.33-2.9-8.49-7.22-8.49-4.75,0-7.27,3.15-7.27,8.49s2.56,8.49,7.27,8.49c4.33,0,7.22-3.15,7.22-8.49Z"/><path class="cls-15" d="m837.2,3544.94v13.61h-2.94v-13.27c0-4.33-2.14-5.71-4.75-5.71-3.82,0-6.17,2.69-6.17,5.63v13.36h-2.94v-13.27c0-4.33-1.85-5.71-4.83-5.71-3.61,0-6.13,2.69-6.13,5.63v13.36h-2.94v-21h2.6l.29,3.49c1.01-2.02,3.07-4.03,6.93-4.03,2.94,0,5.38,1.39,6.43,4.29,1.22-2.39,3.57-4.29,7.14-4.29,4.29,0,7.31,2.52,7.31,7.94Z"/><path class="cls-15" d="m852.52,3548.04c0-6.22,3.32-11.05,10.38-11.05,6.59,0,10.25,4.83,10.25,11.05s-3.7,11.05-10.29,11.05c-7.27,0-10.33-4.83-10.33-11.05Zm17.56,0c0-5.33-2.9-8.49-7.22-8.49-4.75,0-7.27,3.15-7.27,8.49s2.56,8.49,7.27,8.49c4.33,0,7.22-3.15,7.22-8.49Z"/><path class="cls-15" d="m883.18,3532.5v5.04h5.92v2.44h-5.92v18.57h-2.94v-18.57h-4.16v-2.44h4.16v-5.42c0-5.29,3.15-6.89,6.38-6.89,1.85,0,2.98.29,3.74.55v2.6c-.71-.21-1.89-.46-3.49-.46-2.65,0-3.7,1.77-3.7,4.58Z"/><path class="cls-15" d="m905.06,3536.24h-3.36v-5.08c0-3.95.88-5.29,3.4-5.97l.67,1.85c-1.76.67-2.06,1.09-2.06,3.78v.34h1.34v5.08Zm5.92,0h-3.36v-5.08c0-3.95.88-5.29,3.4-5.97l.67,1.85c-1.76.67-2.06,1.09-2.06,3.78v.34h1.34v5.08Z"/><path class="cls-15" d="m912.96,3552.12v-1.18h2.94v1.13c0,2.86,2.14,4.5,5.96,4.5s5.8-1.01,5.8-3.78c0-2.06-1.01-2.81-3.86-3.32l-4.62-.84c-3.02-.55-5.54-2.02-5.54-5.5,0-3.15,2.35-6.13,8.4-6.13s8.4,3.02,8.4,7.22v.88h-2.98v-.76c0-3.45-2.14-4.92-5.42-4.92-3.95,0-5.33,1.34-5.33,3.36s1.01,2.86,3.91,3.4l4.03.76c4.12.76,6.09,1.93,6.09,5.59,0,4.58-4.12,6.55-8.78,6.55-7.31,0-8.99-3.28-8.99-6.97Z"/><path class="cls-15" d="m933.03,3534.98c1.76-.67,2.06-1.09,2.06-3.78v-.34h-1.34v-5.08h3.36v5.08c0,3.95-.88,5.29-3.4,5.96l-.67-1.85Zm5.92,0c1.76-.67,2.06-1.09,2.06-3.78v-.34h-1.34v-5.08h3.36v5.08c0,3.95-.88,5.29-3.4,5.96l-.67-1.85Z"/><path class="cls-18" d="m760.11,3149.13c0,58.87.83,81.95-58.04,81.95s-93.6-41.18-93.6-100.05c0,0,36.35,5.34,69.17-5.99,28.75-9.92,63.85-57.86,63.85-57.86,0,0,18.62,60.87,18.62,81.95Z"/><path class="cls-15" d="m1151.89,1003.9c0-12.01,6.76-17.27,14.74-17.27,6.97,0,12.39,3.74,12.39,12.01v.8h-2.86v-.92c0-5.92-3.78-9.24-9.45-9.24-6.72,0-11.76,4.58-11.76,14.32s5.04,14.24,11.72,14.24c5.38,0,9.54-2.86,9.54-9.2v-.59h2.77v.42c0,8.02-5.33,12.01-12.56,12.01-7.98,0-14.53-4.87-14.53-16.59Z"/><path class="cls-15" d="m1184.9,1012.55v-13.61h2.94v13.27c0,4.33,2.14,5.71,5.42,5.71,3.74,0,6.55-2.69,6.55-5.63v-13.36h2.94v21h-2.6l-.25-3.36h-.08c-.97,2.02-3.23,3.91-7.23,3.91-4.66,0-7.69-2.52-7.69-7.94Z"/><path class="cls-15" d="m1210.1,998.94h2.6l.29,3.91c1.01-2.14,3.07-4.45,6.76-4.45,1.26,0,2.18.21,3.02.55v3.15c-1.13-.5-2.1-.76-3.4-.76-3.74,0-6.34,2.81-6.34,5.75v12.85h-2.94v-21Z"/><path class="cls-15" d="m1224.25,998.98v-.04h3.36l7.35,17.98h.08l7.1-17.98h3.07v.04l-8.74,20.96h-3.02l-9.2-20.96Z"/><path class="cls-15" d="m1266.05,1010.45h-15.96c.17,4.79,2.48,7.48,6.93,7.48,3.82,0,5.67-1.43,5.97-4.83h2.98c-.29,4.24-3.28,7.39-9.03,7.39-7.06,0-9.83-4.66-9.83-10.88s3.23-11.22,10-11.22,8.95,3.99,8.95,10.21v1.85Zm-3.11-2.98c0-4.45-1.72-6.55-5.92-6.55s-6.55,2.65-6.89,6.97h12.81v-.42Z"/><path class="cls-15" d="m1270.24,1009.48c0-7.1,4.28-11.09,10.04-11.09,3.7,0,6.22,1.6,7.31,3.74h.04v-14.95h2.94v32.77h-1.97l-.67-3.61h-.08c-1.18,2.31-3.95,4.16-7.77,4.16-6.3,0-9.83-3.99-9.83-11.01Zm17.64-.5c0-5.5-3.36-8.07-7.35-8.07-3.11,0-7.14,1.47-7.14,8.4s3.61,8.61,7.14,8.61c4.24,0,7.35-2.73,7.35-8.95Z"/><path class="cls-15" d="m1324.85,1010.45h-15.96c.17,4.79,2.48,7.48,6.93,7.48,3.82,0,5.67-1.43,5.97-4.83h2.98c-.29,4.24-3.28,7.39-9.03,7.39-7.06,0-9.83-4.66-9.83-10.88s3.23-11.22,10-11.22,8.95,3.99,8.95,10.21v1.85Zm-3.11-2.98c0-4.45-1.72-6.55-5.92-6.55s-6.55,2.65-6.89,6.97h12.81v-.42Z"/><path class="cls-15" d="m1330.72,998.94h2.6l.29,3.49c1.01-2.14,3.28-4.03,7.35-4.03,4.75,0,7.77,2.52,7.77,7.94v13.61h-2.94v-13.27c0-4.33-2.14-5.71-5.5-5.71-3.82,0-6.64,2.69-6.64,5.63v13.36h-2.94v-21Z"/><path class="cls-15" d="m1367.05,1017.25v2.6c-.76.21-2.14.59-4.03.59-3.82,0-6.34-1.6-6.34-6.89v-12.18h-4.16v-2.44h4.16v-6.05l2.94-1.43v7.48h5.92v2.44h-5.92v11.8c0,2.81.76,4.58,3.4,4.58,1.6,0,3.23-.29,4.03-.5Z"/><path class="cls-15" d="m1371.88,998.94h2.6l.29,3.91c1.01-2.14,3.07-4.45,6.76-4.45,1.26,0,2.18.21,3.02.55v3.15c-1.13-.5-2.1-.76-3.4-.76-3.74,0-6.34,2.81-6.34,5.75v12.85h-2.94v-21Z"/><path class="cls-15" d="m1389.4,998.94l6.89,17.98h.08l7.14-17.98h3.07v.04l-8.86,20.84-3.11,8.53h-2.98v-.04l3.19-8.36-8.78-20.96v-.04h3.36Z"/><path class="cls-15" d="m1418.54,1013.52v-1.18h2.94v1.13c0,2.86,2.14,4.5,5.96,4.5s5.8-1.01,5.8-3.78c0-2.06-1.01-2.81-3.86-3.32l-4.62-.84c-3.02-.55-5.54-2.02-5.54-5.5,0-3.15,2.35-6.13,8.4-6.13s8.4,3.02,8.4,7.23v.88h-2.98v-.76c0-3.44-2.14-4.91-5.42-4.91-3.95,0-5.33,1.34-5.33,3.36s1.01,2.86,3.91,3.4l4.03.76c4.12.76,6.09,1.93,6.09,5.59,0,4.58-4.12,6.55-8.78,6.55-7.31,0-8.99-3.28-8.99-6.97Z"/><path class="cls-15" d="m1453.15,1017.25v2.6c-.76.21-2.14.59-4.03.59-3.82,0-6.34-1.6-6.34-6.89v-12.18h-4.16v-2.44h4.16v-6.05l2.94-1.43v7.48h5.92v2.44h-5.92v11.8c0,2.81.76,4.58,3.4,4.58,1.6,0,3.23-.29,4.03-.5Z"/><path class="cls-15" d="m1457.98,998.94h2.6l.29,3.91c1.01-2.14,3.07-4.45,6.76-4.45,1.26,0,2.18.21,3.02.55v3.15c-1.13-.5-2.1-.76-3.4-.76-3.74,0-6.34,2.81-6.34,5.75v12.85h-2.94v-21Z"/><path class="cls-15" d="m1472.98,1009.44c0-6.22,3.32-11.05,10.38-11.05,6.59,0,10.25,4.83,10.25,11.05s-3.7,11.05-10.29,11.05c-7.27,0-10.33-4.83-10.33-11.05Zm17.56,0c0-5.33-2.9-8.49-7.22-8.49-4.75,0-7.27,3.15-7.27,8.49s2.56,8.49,7.27,8.49c4.33,0,7.22-3.15,7.22-8.49Z"/><path class="cls-15" d="m1498.85,987.18h2.94v23.23l12.14-11.47h3.65v.04l-8.4,7.86,8.78,13.06v.04h-3.36l-7.39-11.22-5.42,5.04v6.18h-2.94v-32.77Z"/><path class="cls-15" d="m1539.21,1010.45h-15.96c.17,4.79,2.48,7.48,6.93,7.48,3.82,0,5.67-1.43,5.97-4.83h2.98c-.29,4.24-3.28,7.39-9.03,7.39-7.06,0-9.83-4.66-9.83-10.88s3.23-11.22,10-11.22,8.95,3.99,8.95,10.21v1.85Zm-3.11-2.98c0-4.45-1.72-6.55-5.92-6.55s-6.55,2.65-6.89,6.97h12.81v-.42Z"/><path class="cls-15" d="m1554.75,987.18h2.98v6.51h-2.98v-6.51Zm0,11.76h2.94v21h-2.94v-21Z"/><path class="cls-15" d="m1565.08,998.94h2.6l.29,3.49c1.01-2.14,3.28-4.03,7.35-4.03,4.75,0,7.77,2.52,7.77,7.94v13.61h-2.94v-13.27c0-4.33-2.14-5.71-5.5-5.71-3.82,0-6.64,2.69-6.64,5.63v13.36h-2.94v-21Z"/><path class="cls-15" d="m1601.79,997.64h-3.36v-5.08c0-3.95.88-5.29,3.4-5.97l.67,1.85c-1.76.67-2.06,1.09-2.06,3.78v.34h1.34v5.08Zm5.92,0h-3.36v-5.08c0-3.95.88-5.29,3.4-5.97l.67,1.85c-1.76.67-2.06,1.09-2.06,3.78v.34h1.34v5.08Z"/><path class="cls-15" d="m1614.31,998.94l6.89,17.98h.08l7.14-17.98h3.07v.04l-8.86,20.84-3.11,8.53h-2.98v-.04l3.19-8.36-8.78-20.96v-.04h3.36Z"/><path class="cls-15" d="m1633.79,996.38c1.76-.67,2.06-1.09,2.06-3.78v-.34h-1.34v-5.08h3.36v5.08c0,3.95-.88,5.29-3.4,5.97l-.67-1.85Zm5.92,0c1.76-.67,2.06-1.09,2.06-3.78v-.34h-1.34v-5.08h3.36v5.08c0,3.95-.88,5.29-3.4,5.97l-.67-1.85Z"/><path class="cls-15" d="m1658.07,1014.15c0-3.95,2.23-6.09,7.86-6.09h6.34v-1.72c0-2.98-1.26-5.42-5.46-5.42-3.95,0-5.33,1.51-5.33,4.12v.88h-2.98v-.84c0-5,4.2-6.68,8.32-6.68,5.8,0,8.4,2.86,8.4,8.44v13.11h-2.06l-.55-2.98h-.08c-1.26,1.89-3.7,3.53-7.35,3.53-4.92,0-7.1-2.31-7.1-6.34Zm14.2-1.85v-1.76h-7.01c-2.65,0-4.03.92-4.03,3.61,0,2.35,1.26,3.86,4.5,3.86,4.16,0,6.55-2.14,6.55-5.71Z"/><path class="cls-15" d="m1682.56,998.94h2.6l.29,3.49c1.01-2.14,3.28-4.03,7.35-4.03,4.75,0,7.77,2.52,7.77,7.94v13.61h-2.94v-13.27c0-4.33-2.14-5.71-5.5-5.71-3.82,0-6.64,2.69-6.64,5.63v13.36h-2.94v-21Z"/><path class="cls-15" d="m1706.24,1009.48c0-7.1,4.28-11.09,10.04-11.09,3.7,0,6.22,1.6,7.31,3.74h.04v-14.95h2.94v32.77h-1.97l-.67-3.61h-.08c-1.18,2.31-3.95,4.16-7.77,4.16-6.3,0-9.83-3.99-9.83-11.01Zm17.64-.5c0-5.5-3.36-8.07-7.35-8.07-3.11,0-7.14,1.47-7.14,8.4s3.61,8.61,7.14,8.61c4.24,0,7.35-2.73,7.35-8.95Z"/><path class="cls-15" d="m1745.26,997.64h-3.36v-5.08c0-3.95.88-5.29,3.4-5.97l.67,1.85c-1.76.67-2.06,1.09-2.06,3.78v.34h1.34v5.08Zm5.92,0h-3.36v-5.08c0-3.95.88-5.29,3.4-5.97l.67,1.85c-1.76.67-2.06,1.09-2.06,3.78v.34h1.34v5.08Z"/><path class="cls-15" d="m1755.26,1017.38l14.7-15.88h-14.58v-2.56h18.23v2.56l-14.7,15.84h14.66v2.6h-18.31v-2.56Z"/><path class="cls-15" d="m1776.97,996.38c1.76-.67,2.06-1.09,2.06-3.78v-.34h-1.34v-5.08h3.36v5.08c0,3.95-.88,5.29-3.4,5.97l-.67-1.85Zm5.92,0c1.76-.67,2.06-1.09,2.06-3.78v-.34h-1.34v-5.08h3.36v5.08c0,3.95-.88,5.29-3.4,5.97l-.67-1.85Z"/><path class="cls-15" d="m122.02,840.4c0-12.01,6.76-17.27,14.74-17.27,6.97,0,12.39,3.74,12.39,12.01v.8h-2.86v-.92c0-5.92-3.78-9.24-9.45-9.24-6.72,0-11.76,4.58-11.76,14.33s5.04,14.24,11.72,14.24c5.38,0,9.54-2.86,9.54-9.2v-.59h2.77v.42c0,8.02-5.33,12.01-12.56,12.01-7.98,0-14.53-4.87-14.53-16.59Z"/><path class="cls-15" d="m155.03,849.05v-13.61h2.94v13.27c0,4.33,2.14,5.71,5.42,5.71,3.74,0,6.55-2.69,6.55-5.63v-13.36h2.94v21h-2.6l-.25-3.36h-.08c-.97,2.02-3.23,3.91-7.23,3.91-4.66,0-7.69-2.52-7.69-7.94Z"/><path class="cls-15" d="m180.23,835.44h2.6l.29,3.91c1.01-2.14,3.07-4.45,6.76-4.45,1.26,0,2.18.21,3.02.55v3.15c-1.13-.5-2.1-.76-3.4-.76-3.74,0-6.34,2.81-6.34,5.75v12.85h-2.94v-21Z"/><path class="cls-15" d="m195.43,850.02v-1.18h2.94v1.13c0,2.86,2.14,4.5,5.96,4.5s5.8-1.01,5.8-3.78c0-2.06-1.01-2.81-3.86-3.32l-4.62-.84c-3.02-.55-5.54-2.02-5.54-5.5,0-3.15,2.35-6.13,8.4-6.13s8.4,3.02,8.4,7.22v.88h-2.98v-.76c0-3.44-2.14-4.91-5.42-4.91-3.95,0-5.33,1.34-5.33,3.36s1.01,2.86,3.91,3.4l4.03.76c4.12.76,6.09,1.93,6.09,5.59,0,4.58-4.12,6.55-8.78,6.55-7.31,0-8.99-3.28-8.99-6.97Z"/><path class="cls-15" d="m219.08,823.68h2.98v6.51h-2.98v-6.51Zm0,11.76h2.94v21h-2.94v-21Z"/><path class="cls-15" d="m226.26,835.48v-.04h3.36l7.35,17.98h.08l7.1-17.98h3.07v.04l-8.74,20.96h-3.02l-9.2-20.96Z"/><path class="cls-15" d="m268.05,846.95h-15.96c.17,4.79,2.48,7.48,6.93,7.48,3.82,0,5.67-1.43,5.97-4.83h2.98c-.29,4.24-3.28,7.39-9.03,7.39-7.06,0-9.83-4.66-9.83-10.88s3.23-11.22,10-11.22,8.95,3.99,8.95,10.21v1.85Zm-3.11-2.98c0-4.45-1.72-6.55-5.92-6.55s-6.55,2.65-6.89,6.97h12.81v-.42Z"/><path class="cls-15" d="m285.27,834.14h-3.36v-5.08c0-3.95.88-5.29,3.4-5.97l.67,1.85c-1.76.67-2.06,1.09-2.06,3.78v.34h1.34v5.08Zm5.92,0h-3.36v-5.08c0-3.95.88-5.29,3.4-5.97l.67,1.85c-1.76.67-2.06,1.09-2.06,3.78v.34h1.34v5.08Z"/><path class="cls-15" d="m296.32,848.42v-3.66h2.86v3.57c0,4.41,2.6,6.01,6.68,6.01,5.25,0,7.06-2.52,7.06-7.02v-21.04h-14.37v-2.6h17.31v24.03c0,6.8-4.66,9.28-10.12,9.28-5.84,0-9.41-2.44-9.41-8.57Z"/><path class="cls-15" d="m321.94,832.88c1.76-.67,2.06-1.09,2.06-3.78v-.34h-1.34v-5.08h3.36v5.08c0,3.95-.88,5.29-3.4,5.97l-.67-1.85Zm5.92,0c1.76-.67,2.06-1.09,2.06-3.78v-.34h-1.34v-5.08h3.36v5.08c0,3.95-.88,5.29-3.4,5.97l-.67-1.85Z"/><path class="cls-15" d="m50.26,884.33v-.04h2.98l5.75,17.48h.08l6.3-17.48h2.69l6.17,17.48h.08l5.75-17.48h2.86v.04l-7.18,20.96h-3.02l-5.96-17.05h-.08l-6.22,17.05h-3.02l-7.18-20.96Z"/><path class="cls-15" d="m87.77,872.52h2.98v6.51h-2.98v-6.51Zm0,11.76h2.94v21h-2.94v-21Z"/><path class="cls-15" d="m109.06,902.6v2.6c-.76.21-2.14.59-4.03.59-3.82,0-6.34-1.6-6.34-6.89v-12.18h-4.16v-2.44h4.16v-6.05l2.94-1.43v7.48h5.92v2.44h-5.92v11.8c0,2.81.76,4.58,3.4,4.58,1.6,0,3.23-.29,4.03-.5Z"/><path class="cls-15" d="m113.89,872.52h2.94v15.17c1.05-2.1,3.28-3.95,7.31-3.95,4.75,0,7.77,2.52,7.77,7.94v13.61h-2.94v-13.27c0-4.33-2.14-5.71-5.5-5.71-3.82,0-6.64,2.69-6.64,5.63v13.36h-2.94v-32.77Z"/><path class="cls-15" d="m148.92,884.29h2.6l.29,3.49c1.01-2.14,3.28-4.03,7.35-4.03,4.75,0,7.77,2.52,7.77,7.94v13.61h-2.94v-13.27c0-4.33-2.14-5.71-5.5-5.71-3.82,0-6.64,2.69-6.64,5.63v13.36h-2.94v-21Z"/><path class="cls-15" d="m172.6,894.79c0-6.22,3.32-11.05,10.38-11.05,6.59,0,10.25,4.83,10.25,11.05s-3.7,11.05-10.29,11.05c-7.27,0-10.33-4.83-10.33-11.05Zm17.56,0c0-5.33-2.9-8.49-7.22-8.49-4.75,0-7.27,3.15-7.27,8.49s2.56,8.49,7.27,8.49c4.33,0,7.22-3.15,7.22-8.49Z"/><path class="cls-15" d="m207.09,894.83c0-7.1,4.28-11.09,10.04-11.09,3.7,0,6.22,1.6,7.31,3.74h.04v-14.96h2.94v32.77h-1.97l-.67-3.61h-.08c-1.18,2.31-3.95,4.16-7.77,4.16-6.3,0-9.83-3.99-9.83-11.01Zm17.64-.5c0-5.5-3.36-8.07-7.35-8.07-3.11,0-7.14,1.47-7.14,8.4s3.61,8.61,7.14,8.61c4.24,0,7.35-2.73,7.35-8.95Z"/><path class="cls-15" d="m252.03,895.8h-15.96c.17,4.79,2.48,7.48,6.93,7.48,3.82,0,5.67-1.43,5.97-4.83h2.98c-.29,4.24-3.28,7.39-9.03,7.39-7.06,0-9.83-4.66-9.83-10.88s3.23-11.22,10-11.22,8.95,3.99,8.95,10.21v1.85Zm-3.11-2.98c0-4.45-1.72-6.55-5.92-6.55s-6.55,2.65-6.89,6.97h12.81v-.42Z"/><path class="cls-15" d="m256.02,898.86v-1.18h2.94v1.13c0,2.86,2.14,4.5,5.96,4.5s5.8-1.01,5.8-3.78c0-2.06-1.01-2.81-3.86-3.32l-4.62-.84c-3.02-.55-5.54-2.02-5.54-5.5,0-3.15,2.35-6.13,8.4-6.13s8.4,3.02,8.4,7.23v.88h-2.98v-.76c0-3.44-2.14-4.92-5.42-4.92-3.95,0-5.33,1.34-5.33,3.36s1.01,2.86,3.91,3.4l4.03.76c4.12.76,6.09,1.93,6.09,5.59,0,4.58-4.12,6.55-8.78,6.55-7.31,0-8.99-3.28-8.99-6.97Z"/><path class="cls-15" d="m277.98,894.96c0-6.38,3.23-11.22,10-11.22s8.95,3.91,8.95,8.95v.42h-3.11v-.63c0-3.82-1.64-6.09-5.84-6.09-4.75,0-7.01,3.11-7.01,8.4,0,5.63,2.39,8.49,6.93,8.49,3.82,0,5.84-1.85,5.92-5.67h3.02c-.08,4.66-3.15,8.23-9.03,8.23-7.22,0-9.83-4.75-9.83-10.88Z"/><path class="cls-15" d="m320.07,895.8h-15.96c.17,4.79,2.48,7.48,6.93,7.48,3.82,0,5.67-1.43,5.97-4.83h2.98c-.29,4.24-3.28,7.39-9.03,7.39-7.06,0-9.83-4.66-9.83-10.88s3.23-11.22,10-11.22,8.95,3.99,8.95,10.21v1.85Zm-3.11-2.98c0-4.45-1.72-6.55-5.92-6.55s-6.55,2.65-6.89,6.97h12.81v-.42Z"/><path class="cls-15" d="m325.95,884.29h2.6l.29,3.49c1.01-2.14,3.28-4.03,7.35-4.03,4.75,0,7.77,2.52,7.77,7.94v13.61h-2.94v-13.27c0-4.33-2.14-5.71-5.5-5.71-3.82,0-6.64,2.69-6.64,5.63v13.36h-2.94v-21Z"/><path class="cls-15" d="m349.64,894.83c0-7.1,4.28-11.09,10.04-11.09,3.7,0,6.22,1.6,7.31,3.74h.04v-14.96h2.94v32.77h-1.97l-.67-3.61h-.08c-1.18,2.31-3.95,4.16-7.77,4.16-6.3,0-9.83-3.99-9.83-11.01Zm17.64-.5c0-5.5-3.36-8.07-7.35-8.07-3.11,0-7.14,1.47-7.14,8.4s3.61,8.61,7.14,8.61c4.24,0,7.35-2.73,7.35-8.95Z"/><path class="cls-15" d="m394.58,895.8h-15.96c.17,4.79,2.48,7.48,6.93,7.48,3.82,0,5.67-1.43,5.97-4.83h2.98c-.29,4.24-3.28,7.39-9.03,7.39-7.06,0-9.83-4.66-9.83-10.88s3.23-11.22,10-11.22,8.95,3.99,8.95,10.21v1.85Zm-3.11-2.98c0-4.45-1.72-6.55-5.92-6.55s-6.55,2.65-6.89,6.97h12.81v-.42Z"/><path class="cls-15" d="m400.45,884.29h2.6l.29,3.91c1.01-2.14,3.07-4.45,6.76-4.45,1.26,0,2.18.21,3.02.55v3.15c-1.13-.5-2.1-.76-3.4-.76-3.74,0-6.34,2.81-6.34,5.75v12.85h-2.94v-21Z"/><path class="cls-15" d="m466.26,2619.25c0-11.72,6.76-16.93,15.46-16.93,7.94,0,14.7,5.21,14.7,16.59,0,12.48-6.76,17.26-15.08,17.26s-15.08-4.79-15.08-16.93Zm27.05,0c0-10.12-5.33-14.24-12.01-14.24s-11.93,4.12-11.93,14.24,5.33,14.2,12.01,14.2,11.93-3.74,11.93-14.2Z"/><path class="cls-15" d="m502.71,2614.63h2.39l.34,3.87h.08c1.13-2.48,4.03-4.41,7.86-4.41,6.3,0,9.66,3.99,9.66,11.01s-4.29,11.09-9.87,11.09c-3.78,0-6.38-1.6-7.43-3.7h-.08v11.55h-2.94v-29.41Zm17.18,10.63c0-7.18-3.4-8.61-6.93-8.61-4.24,0-7.56,2.73-7.56,8.44,0,6.01,3.45,8.57,7.44,8.57,3.02,0,7.06-1.47,7.06-8.4Z"/><path class="cls-15" d="m546.19,2626.14h-15.96c.17,4.79,2.48,7.48,6.93,7.48,3.82,0,5.67-1.43,5.97-4.83h2.98c-.29,4.24-3.28,7.39-9.03,7.39-7.06,0-9.83-4.66-9.83-10.88s3.23-11.22,10-11.22,8.95,3.99,8.95,10.21v1.85Zm-3.11-2.98c0-4.45-1.72-6.55-5.92-6.55s-6.55,2.65-6.89,6.97h12.81v-.42Z"/><path class="cls-15" d="m552.06,2614.63h2.6l.29,3.49c1.01-2.14,3.28-4.03,7.35-4.03,4.75,0,7.77,2.52,7.77,7.94v13.61h-2.94v-13.27c0-4.33-2.14-5.71-5.5-5.71-3.82,0-6.64,2.69-6.64,5.63v13.36h-2.94v-21Z"/><path class="cls-15" d="m585.41,2625.18c0-7.1,4.28-11.09,10.04-11.09,3.7,0,6.22,1.6,7.31,3.74h.04v-14.96h2.94v32.77h-1.97l-.67-3.61h-.08c-1.18,2.31-3.95,4.16-7.77,4.16-6.3,0-9.83-3.99-9.83-11.01Zm17.64-.5c0-5.5-3.36-8.07-7.35-8.07-3.11,0-7.14,1.47-7.14,8.4s3.61,8.61,7.14,8.61c4.24,0,7.35-2.73,7.35-8.95Z"/><path class="cls-15" d="m613.09,2602.87h2.98v6.51h-2.98v-6.51Zm0,11.76h2.94v21h-2.94v-21Z"/><path class="cls-15" d="m621.53,2629.21v-1.18h2.94v1.13c0,2.86,2.14,4.5,5.96,4.5s5.8-1.01,5.8-3.78c0-2.06-1.01-2.81-3.86-3.32l-4.62-.84c-3.02-.55-5.54-2.02-5.54-5.5,0-3.15,2.35-6.13,8.4-6.13s8.4,3.02,8.4,7.23v.88h-2.98v-.76c0-3.44-2.14-4.92-5.42-4.92-3.95,0-5.33,1.34-5.33,3.36s1.01,2.86,3.91,3.4l4.03.76c4.12.76,6.09,1.93,6.09,5.59,0,4.58-4.12,6.55-8.78,6.55-7.31,0-8.99-3.28-8.99-6.97Z"/><path class="cls-15" d="m643.5,2625.3c0-6.38,3.23-11.22,10-11.22s8.95,3.91,8.95,8.95v.42h-3.11v-.63c0-3.82-1.64-6.09-5.84-6.09-4.75,0-7.01,3.11-7.01,8.4,0,5.63,2.39,8.49,6.93,8.49,3.82,0,5.84-1.85,5.92-5.67h3.02c-.08,4.66-3.15,8.23-9.03,8.23-7.22,0-9.83-4.75-9.83-10.88Z"/><path class="cls-15" d="m666.64,2625.13c0-6.22,3.32-11.05,10.38-11.05,6.59,0,10.25,4.83,10.25,11.05s-3.7,11.05-10.29,11.05c-7.27,0-10.33-4.83-10.33-11.05Zm17.56,0c0-5.33-2.9-8.49-7.22-8.49-4.75,0-7.27,3.15-7.27,8.49s2.56,8.49,7.27,8.49c4.33,0,7.22-3.15,7.22-8.49Z"/><path class="cls-15" d="m693.14,2614.63h2.6l.29,3.49c1.01-2.14,3.28-4.03,7.35-4.03,4.75,0,7.77,2.52,7.77,7.94v13.61h-2.94v-13.27c0-4.33-2.14-5.71-5.5-5.71-3.82,0-6.64,2.69-6.64,5.63v13.36h-2.94v-21Z"/><path class="cls-15" d="m718.51,2614.63h2.6l.29,3.49c1.01-2.14,3.28-4.03,7.35-4.03,4.75,0,7.77,2.52,7.77,7.94v13.61h-2.94v-13.27c0-4.33-2.14-5.71-5.5-5.71-3.82,0-6.64,2.69-6.64,5.63v13.36h-2.94v-21Z"/><path class="cls-15" d="m761.14,2626.14h-15.96c.17,4.79,2.48,7.48,6.93,7.48,3.82,0,5.67-1.43,5.97-4.83h2.98c-.29,4.24-3.28,7.39-9.03,7.39-7.06,0-9.83-4.66-9.83-10.88s3.23-11.22,10-11.22,8.95,3.99,8.95,10.21v1.85Zm-3.11-2.98c0-4.45-1.72-6.55-5.92-6.55s-6.55,2.65-6.89,6.97h12.81v-.42Z"/><path class="cls-15" d="m765.34,2625.3c0-6.38,3.23-11.22,10-11.22s8.95,3.91,8.95,8.95v.42h-3.11v-.63c0-3.82-1.64-6.09-5.84-6.09-4.75,0-7.01,3.11-7.01,8.4,0,5.63,2.39,8.49,6.93,8.49,3.82,0,5.84-1.85,5.92-5.67h3.02c-.08,4.66-3.15,8.23-9.03,8.23-7.22,0-9.83-4.75-9.83-10.88Z"/><path class="cls-15" d="m801.13,2632.95v2.6c-.76.21-2.14.59-4.03.59-3.82,0-6.34-1.6-6.34-6.89v-12.18h-4.16v-2.44h4.16v-6.05l2.94-1.43v7.48h5.92v2.44h-5.92v11.8c0,2.81.76,4.58,3.4,4.58,1.6,0,3.23-.29,4.03-.5Z"/><path class="cls-15" d="m822.59,2626.14h-15.96c.17,4.79,2.48,7.48,6.93,7.48,3.82,0,5.67-1.43,5.97-4.83h2.98c-.29,4.24-3.28,7.39-9.03,7.39-7.06,0-9.83-4.66-9.83-10.88s3.23-11.22,10-11.22,8.95,3.99,8.95,10.21v1.85Zm-3.11-2.98c0-4.45-1.72-6.55-5.92-6.55s-6.55,2.65-6.89,6.97h12.81v-.42Z"/><path class="cls-15" d="m826.79,2625.18c0-7.1,4.28-11.09,10.04-11.09,3.7,0,6.22,1.6,7.31,3.74h.04v-14.96h2.94v32.77h-1.97l-.67-3.61h-.08c-1.18,2.31-3.95,4.16-7.77,4.16-6.3,0-9.83-3.99-9.83-11.01Zm17.64-.5c0-5.5-3.36-8.07-7.35-8.07-3.11,0-7.14,1.47-7.14,8.4s3.61,8.61,7.14,8.61c4.24,0,7.35-2.73,7.35-8.95Z"/><path class="cls-15" d="m866.94,2632.15h-.08l-.76,3.49h-1.97v-32.77h2.94v15.25h.04c1.26-2.31,4.07-4.03,7.69-4.03,6.3,0,9.66,3.99,9.66,11.01s-4.29,11.09-9.87,11.09c-3.78,0-6.55-1.64-7.65-4.03Zm14.37-6.89c0-7.18-3.4-8.61-6.93-8.61-4.24,0-7.56,2.73-7.56,8.44,0,6.01,3.45,8.57,7.44,8.57,3.02,0,7.06-1.47,7.06-8.4Z"/><path class="cls-15" d="m888.65,2625.13c0-6.22,3.32-11.05,10.38-11.05,6.59,0,10.25,4.83,10.25,11.05s-3.7,11.05-10.29,11.05c-7.27,0-10.33-4.83-10.33-11.05Zm17.56,0c0-5.33-2.9-8.49-7.22-8.49-4.75,0-7.27,3.15-7.27,8.49s2.56,8.49,7.27,8.49c4.33,0,7.22-3.15,7.22-8.49Z"/><path class="cls-15" d="m915.74,2629.25v-12.18h-4.16v-2.44h4.16v-6.05l2.94-1.43v7.48h11.85v-6.05l2.94-1.43v7.48h5.92v2.44h-5.92v11.8c0,2.81.76,4.58,3.4,4.58,1.6,0,3.24-.29,4.03-.5v2.6c-.76.21-2.14.59-4.03.59-3.82,0-6.34-1.6-6.34-6.89v-12.18h-11.85v11.8c0,2.81.76,4.58,3.4,4.58,1.6,0,3.23-.29,4.03-.5v2.6c-.76.21-2.14.59-4.03.59-3.82,0-6.34-1.6-6.34-6.89Z"/><path class="cls-15" d="m943.42,2625.13c0-6.22,3.32-11.05,10.38-11.05,6.59,0,10.25,4.83,10.25,11.05s-3.7,11.05-10.29,11.05c-7.27,0-10.33-4.83-10.33-11.05Zm17.56,0c0-5.33-2.9-8.49-7.22-8.49-4.75,0-7.27,3.15-7.27,8.49s2.56,8.49,7.27,8.49c4.33,0,7.22-3.15,7.22-8.49Z"/><path class="cls-15" d="m1000.63,2622.03v13.61h-2.94v-13.27c0-4.33-2.14-5.71-4.75-5.71-3.82,0-6.17,2.69-6.17,5.63v13.36h-2.94v-13.27c0-4.33-1.85-5.71-4.83-5.71-3.61,0-6.13,2.69-6.13,5.63v13.36h-2.94v-21h2.6l.29,3.49c1.01-2.02,3.07-4.03,6.93-4.03,2.94,0,5.38,1.39,6.43,4.29,1.22-2.39,3.57-4.29,7.14-4.29,4.29,0,7.31,2.52,7.31,7.94Z"/><path class="cls-15" d="m1017.63,2602.87h2.94v23.23l12.14-11.47h3.65v.04l-8.4,7.86,8.78,13.06v.04h-3.36l-7.39-11.22-5.42,5.04v6.17h-2.94v-32.77Z"/><path class="cls-15" d="m1041.78,2614.63h2.6l.29,3.49c1.01-2.14,3.28-4.03,7.35-4.03,4.75,0,7.77,2.52,7.77,7.94v13.61h-2.94v-13.27c0-4.33-2.14-5.71-5.5-5.71-3.82,0-6.64,2.69-6.64,5.63v13.36h-2.94v-21Z"/><path class="cls-15" d="m1065.47,2625.13c0-6.22,3.32-11.05,10.38-11.05,6.59,0,10.25,4.83,10.25,11.05s-3.7,11.05-10.29,11.05c-7.27,0-10.33-4.83-10.33-11.05Zm17.56,0c0-5.33-2.9-8.49-7.22-8.49-4.75,0-7.27,3.15-7.27,8.49s2.56,8.49,7.27,8.49c4.33,0,7.22-3.15,7.22-8.49Z"/><path class="cls-15" d="m1102.94,2632.95v2.6c-.76.21-2.14.59-4.03.59-3.82,0-6.34-1.6-6.34-6.89v-12.18h-4.16v-2.44h4.16v-6.05l2.94-1.43v7.48h5.92v2.44h-5.92v11.8c0,2.81.76,4.58,3.4,4.58,1.6,0,3.23-.29,4.03-.5Z"/><path class="cls-15" d="m1117.43,2602.87h2.98v6.51h-2.98v-6.51Zm0,11.76h2.94v21h-2.94v-21Z"/><path class="cls-15" d="m1127.76,2614.63h2.6l.29,3.49c1.01-2.14,3.28-4.03,7.35-4.03,4.75,0,7.77,2.52,7.77,7.94v13.61h-2.94v-13.27c0-4.33-2.14-5.71-5.5-5.71-3.82,0-6.64,2.69-6.64,5.63v13.36h-2.94v-21Z"/><path class="cls-15" d="m1164.47,2613.33h-3.36v-5.08c0-3.95.88-5.29,3.4-5.96l.67,1.85c-1.76.67-2.06,1.09-2.06,3.78v.34h1.34v5.08Zm5.92,0h-3.36v-5.08c0-3.95.88-5.29,3.4-5.96l.67,1.85c-1.76.67-2.06,1.09-2.06,3.78v.34h1.34v5.08Z"/><path class="cls-15" d="m1180.51,2609.59v5.04h5.92v2.44h-5.92v18.57h-2.94v-18.57h-4.16v-2.44h4.16v-5.42c0-5.29,3.15-6.89,6.38-6.89,1.85,0,2.98.29,3.74.55v2.6c-.71-.21-1.89-.46-3.49-.46-2.65,0-3.7,1.76-3.7,4.58Z"/><path class="cls-15" d="m1191.05,2612.07c1.76-.67,2.06-1.09,2.06-3.78v-.34h-1.34v-5.08h3.36v5.08c0,3.95-.88,5.29-3.4,5.96l-.67-1.85Zm5.92,0c1.76-.67,2.06-1.09,2.06-3.78v-.34h-1.34v-5.08h3.36v5.08c0,3.95-.88,5.29-3.4,5.96l-.67-1.85Z"/><circle class="cls-16" cx="1272.59" cy="1291.11" r="67.53"/><path class="cls-18" d="m381.84,1114.81c-2.13,30.93-18.13,70.92-47.46,70.92-14.4,0-22.93-11.73-22.93-27.19,0-43.72,65.05-67.72,109.31-67.72,33.06,0,58.12,20.8,58.12,56.52,0,15.46-2.13,32.53-6.4,50.66,20.79-10.13,48.52-22.93,54.39-22.93,4.8,0,9.6,3.2,9.6,9.06,0,8-11.73,43.19-18.13,68.79-1.6,5.87-5.33,8.53-9.6,8.53s-8.53-2.13-8.53-8c0-6.93,11.73-44.79,14.93-54.39-17.06,6.93-33.06,14.4-48.52,21.86-30.39,103.44-110.38,225.02-177.56,225.02-25.59,0-35.19-17.6-35.19-35.19,0-60.25,68.25-136.5,195.69-201.56,6.93-23.46,10.67-44.26,10.67-61.32,0-23.46-13.86-38.39-39.46-38.39-11.73,0-25.59,2.13-38.92,5.33Zm60.25,118.91c-109.84,59.72-169.56,133.84-169.56,177.03,0,10.66,5.87,16.53,16.53,16.53,57.05,0,122.11-104.51,153.03-193.56Zm-79.98-111.98c-18.13,8.53-31.99,20.8-31.99,37.33,0,4.27,2.13,8,5.33,8,14.93,0,22.93-27.19,26.66-45.32Z"/><path class="cls-15" d="m714.57,1375.55c-29.33,36.79-58.12,70.38-86.38,70.38h-1.6c-16-.53-28.26-9.6-28.26-26.13,0-5.87,1.6-14.4,4.27-20.8-19.73,30.39-47.99,46.92-68.79,46.92s-39.99-10.66-39.99-45.86c0-62.39,93.85-131.7,154.1-131.7,10.13,0,19.2,1.07,19.2,9.06,0,2.67-1.07,6.4-3.73,12.8l-19.73,46.92c-10.13,23.99-26.13,62.39-26.13,75.72,0,8.53,3.73,14.4,10.66,14.4h1.07c15.46-1.07,37.33-22.4,72.52-65.05l20.26-25.06c2.13-2.67,5.33-4.27,8-4.27,4.8,0,8.53,3.2,8.53,8.53,0,2.67-1.07,5.87-3.73,9.06l-20.26,25.06Zm-70.38-88.51c-53.32,3.2-131.71,65.59-131.71,113.04,0,12.8,3.73,27.19,21.33,27.19,35.73,0,79.98-66.65,95.98-105.58l14.4-34.66Z"/><path class="cls-15" d="m761.49,1317.43c-7.46,31.99-12.26,61.32-12.26,82.65,0,23.46,10.13,27.19,17.06,27.19,23.99,0,50.12-31.46,77.32-65.05l20.26-25.06c2.13-2.67,5.33-4.27,8-4.27,4.8,0,8.53,3.2,8.53,8.53,0,2.67-1.07,5.87-3.73,9.06l-20.26,25.06c-31.46,38.92-57.05,70.38-90.11,70.38-25.06,0-35.73-20.8-35.73-45.86,0-11.73,2.13-30.39,6.4-52.26l-2.13,2.67-20.26,25.06c-2.13,2.67-5.33,4.27-8,4.27-4.8,0-8.53-3.2-8.53-8.53,0-2.67,1.07-5.87,3.73-9.06l20.26-25.06c5.87-7.47,13.86-17.06,22.93-27.19,22.93-94.91,69.85-219.15,117.84-219.15,16.53,0,22.93,11.73,22.93,26.66,0,48.52-51.19,110.91-124.24,199.96Zm11.2-40.52c44.79-53.32,95.45-119.97,95.45-159.43,0-5.33-3.2-8.53-6.93-8.53-24.53,0-63.45,84.78-88.51,167.96Z"/><path class="cls-16" d="m956.12,1226.78c-20.26,62.39-41.59,147.7-41.59,173.3,0,18.13,5.33,27.19,22.93,27.19,29.86,0,60.79-27.73,91.18-65.05l20.26-25.06c2.13-2.67,5.33-4.27,8-4.27,4.8,0,8.53,3.2,8.53,8.53,0,2.67-1.07,5.87-3.73,9.06l-20.26,25.06c-26.66,32.53-65.05,70.38-103.98,70.38-30.39,0-41.59-17.06-41.59-45.86,0-33.59,13.86-85.85,27.19-120.51-10.13,21.33-30.39,51.19-46.39,70.92l-20.26,25.06c-2.13,2.67-5.33,4.27-8,4.27-4.8,0-8.53-3.2-8.53-8.53,0-2.67,1.07-5.87,3.73-9.06l20.26-25.06c29.33-36.26,51.19-75.18,68.25-110.38h-41.06c-5.33,0-9.06-2.67-9.06-9.6,0-5.33,3.73-9.06,9.06-9.06h50.12c5.87-12.26,10.66-24.53,15.46-35.19l32.53-75.72c1.6-4.27,4.8-6.4,9.06-6.4,5.33,0,11.73,4.27,8.53,12.26l-33.06,76.78c-3.73,8-7.46,17.6-11.2,28.26h61.32c5.33,0,9.06,2.67,9.06,9.6,0,5.33-3.73,9.06-9.06,9.06h-67.72Z"/><path class="cls-15" d="m1241.93,1375.55c-29.33,36.79-58.12,70.38-86.38,70.38h-1.6c-16-.53-28.26-9.6-28.26-26.13,0-5.87,1.6-14.4,4.27-20.8-19.73,30.39-47.99,46.92-68.79,46.92s-39.99-10.66-39.99-45.86c0-62.39,93.85-131.7,154.1-131.7,10.13,0,19.2,1.07,19.2,9.06,0,2.67-1.07,6.4-3.73,12.8l-19.73,46.92c-10.13,23.99-26.13,62.39-26.13,75.72,0,8.53,3.73,14.4,10.66,14.4h1.07c15.46-1.07,37.33-22.4,72.52-65.05l20.26-25.06c2.13-2.67,5.33-4.27,8-4.27,4.8,0,8.53,3.2,8.53,8.53,0,2.67-1.07,5.87-3.73,9.06l-20.26,25.06Zm-70.38-88.51c-53.32,3.2-131.71,65.59-131.71,113.04,0,12.8,3.73,27.19,21.33,27.19,35.73,0,79.98-66.65,95.98-105.58l14.4-34.66Z"/><path class="cls-15" d="m1314.98,1419.27l-18.13,22.4c-2.13,2.67-5.33,4.27-8,4.27-4.8,0-8.53-3.2-8.53-8.53,0-2.67,1.07-5.87,3.73-9.06l20.26-25.06c31.46-38.92,54.92-69.32,54.92-92.25,0-13.86-7.47-23.99-22.4-23.99-28.79,0-49.06,31.46-74.65,63.45l-20.26,25.06c-2.13,2.67-5.33,4.27-8,4.27-4.8,0-8.53-3.2-8.53-8.53,0-2.67,1.07-5.87,3.73-9.06l20.26-25.06c23.46-28.79,50.66-68.79,87.45-68.79,29.33,0,41.06,18.66,41.06,42.66,0,21.86-18.66,51.19-39.46,78.38,3.73-.53,6.93-1.07,10.13-1.07,24.53,0,38.92,17.06,38.92,40.52v4.8c21.86-19.73,44.79-43.19,67.72-71.45l20.26-25.06c2.13-2.67,5.33-4.27,8-4.27,4.8,0,8.53,3.2,8.53,8.53,0,2.67-1.07,5.87-3.73,9.06l-20.26,25.06c-27.73,34.13-56.52,61.32-84.25,83.72-14.4,65.05-66.12,164.76-124.24,164.76-22.93,0-36.79-14.93-36.79-35.73,0-51.19,63.45-71.45,143.44-137.04,1.6-8,2.67-16,2.67-22.4,0-13.33-5.87-21.86-20.26-21.86-10.13,0-25.59,5.87-33.59,12.26Zm45.32,58.12c-66.12,49.59-118.91,74.65-118.91,110.91,0,9.06,8,17.06,18.13,17.06,44.26,0,83.71-70.92,100.78-127.97Z"/><path class="cls-15" d="m1717.56,1315.3c-36.26,18.66-81.05,35.19-111.44,41.06-17.06,45.86-56.52,89.58-104.51,89.58-31.46,0-48.52-16-48.52-46.39,0-57.05,72.52-131.17,123.17-131.17,26.66,0,38.39,16.53,38.39,44.26,0,7.47-1.07,15.46-2.67,23.46,31.46-7.47,71.98-24,93.31-34.66l16.53-8.53c2.13-1.07,5.33-2.67,8.53-2.67,5.33,0,9.06,3.2,9.06,8.53,0,3.2-1.6,5.87-5.33,8l-16.53,8.53Zm-132.77,43.72h-1.07c-39.46,0-53.32-16.53-53.32-39.46,0-4.27,1.07-10.66,2.67-13.86-23.46,15.46-61.32,56.52-61.32,93.85,0,14.93,8,27.73,29.86,27.73,35.19,0,67.19-31.99,83.18-68.25Zm6.93-19.2c2.67-9.06,4.27-18.13,4.27-27.19,0-17.06-5.87-25.59-18.66-25.59s-28.26,12.8-28.26,32.53c0,13.33,11.2,20.8,34.66,20.8,2.67,0,5.33,0,8-.53Z"/><circle class="cls-18" cx="247.97" cy="2917.11" r="106.59"/><path class="cls-18" d="m496.83,422.98c-50.66,26.13-106.64,31.46-153.57,36.79,10.67,15.46,24,28.26,41.06,36.79,3.73,2.13,4.27,4.27,4.27,8,0,6.4-5.87,9.06-10.13,9.06-1.6,0-3.2-.53-4.27-1.07-19.73-10.13-34.66-24-46.39-40.52-31.99,46.92-69.32,81.58-103.98,81.58-29.33,0-46.39-17.06-46.39-44.26,0-46.39,61.85-54.92,135.97-63.45-22.39-46.92-24.53-102.91-24.53-135.44,0-71.98,30.93-111.98,76.78-111.98,30.93,0,49.06,19.2,49.06,51.19,0,58.65-28.26,124.77-68.25,193.02,43.19-5.33,92.25-9.6,138.1-33.59l16.53-8.53c2.13-1.07,5.33-2.67,8.53-2.67,5.33,0,9.07,3.2,9.07,8.53,0,3.2-1.6,5.87-5.33,8l-16.53,8.53Zm-185.56,40.52c-62.92,7.46-112.51,15.46-113.04,46.39,0,15.46,8,25.06,25.06,25.06,27.19,0,59.19-29.86,87.98-71.45Zm18.13-28.26c36.79-61.32,64.52-137.04,64.52-182.36,0-20.8-9.06-34.66-27.73-34.66-50.66,0-57.05,61.85-57.05,106.64,0,38.92,5.87,78.38,20.26,110.38Z"/><path class="cls-15" d="m641.34,483.23c-29.33,36.79-58.12,70.38-86.38,70.38h-1.6c-16-.53-28.26-9.6-28.26-26.13,0-5.87,1.6-14.4,4.27-20.8-19.73,30.39-47.99,46.92-68.79,46.92s-39.99-10.66-39.99-45.86c0-62.39,93.85-131.7,154.1-131.7,10.13,0,19.2,1.07,19.2,9.06,0,2.67-1.07,6.4-3.73,12.8l-19.73,46.92c-10.13,23.99-26.13,62.39-26.13,75.72,0,8.53,3.73,14.4,10.66,14.4h1.07c15.46-1.07,37.33-22.4,72.52-65.05l20.26-25.06c2.13-2.67,5.33-4.27,8-4.27,4.8,0,8.53,3.2,8.53,8.53,0,2.67-1.07,5.87-3.73,9.06l-20.26,25.06Zm-70.38-88.51c-53.32,3.2-131.71,65.59-131.71,113.04,0,12.8,3.73,27.19,21.33,27.19,35.73,0,79.98-66.65,95.98-105.58l14.4-34.66Z"/><path class="cls-15" d="m738.92,545.62c0-24,10.66-44.79,29.33-44.79,17.06,0,27.19,13.33,28.79,38.39,17.06-17.06,38.39-43.19,59.72-69.32l20.26-25.06c2.13-2.67,5.33-4.27,8-4.27,4.8,0,8.53,3.2,8.53,8.53,0,2.67-1.07,5.87-3.73,9.06l-20.26,25.06c-17.6,21.86-48.52,58.65-73.58,79.45-7.47,73.05-59.19,169.03-113.58,169.03-21.33,0-31.46-14.93-31.46-37.86.53-28.26,26.13-92.78,59.19-164.76-8,8.53-28.26,24.53-49.06,24.53s-39.99-10.66-39.99-45.86c0-27.19,18.13-58.65,50.66-85.85,17.06-14.93,37.33-27.19,57.05-35.19,16.53-6.93,32.53-10.66,46.39-10.66,10.13,0,19.2,1.07,19.2,9.06,0,2.67-1.07,6.4-3.73,12.8l-19.73,46.92c-28.26,68.25-100.78,197.82-100.78,249.01,0,8,1.07,18.13,12.26,18.13,36.26,0,80.52-70.92,92.78-135.44-2.67,1.07-4.8,1.6-6.4,1.6-18.66,0-29.86-9.6-29.86-32.53Zm32.53-150.9c-25.06,1.6-59.19,17.06-87.45,41.06-13.33,11.73-24.53,24-31.99,36.26-8,12.8-12.26,24.53-12.26,35.73,0,12.8,3.73,27.19,21.33,27.19,35.73,0,79.98-66.65,95.98-105.58l14.4-34.66Zm6.4,160.5c.53-3.2.53-6.4.53-10.13,0-16.53-3.2-24.53-10.13-24.53-5.33,0-10.67,6.93-10.67,24.53,0,11.73,4.27,14.4,11.2,14.4,2.13,0,5.33-1.6,9.06-4.27Z"/><path class="cls-15" d="m912.22,534.95c31.99,0,89.05-95.45,121.04-148.23,3.73-6.4,6.93-10.66,12.8-10.66s8,3.73,8,8.53c0,6.93-8,24.53-11.2,31.46-14.4,29.33-34.66,76.25-34.66,98.65,0,16.53,8,20.26,26.13,20.26,5.33,0,9.06,2.67,9.06,9.6,0,5.33-3.73,9.06-9.06,9.06-32.53,0-45.86-9.06-45.86-35.73,0-11.73,5.87-36.26,12.26-50.66-22.93,43.72-60.25,86.38-88.51,86.38-21.33,0-35.19-14.93-35.19-37.33,0-14.93,5.87-37.86,12.8-58.12l-20.26,25.06c-2.13,2.67-5.33,4.27-8,4.27-4.8,0-8.53-3.2-8.53-8.53,0-2.67,1.07-5.87,3.73-9.06l20.26-25.06c36.79-45.32,42.66-68.79,52.26-68.79,5.33,0,8.53,3.73,8.53,8.53,0,9.06-42.12,90.65-42.12,131.71,0,10.66,5.87,18.66,16.53,18.66Z"/><path class="cls-15" d="m1027.39,544.02c0-5.33,3.73-9.06,9.07-9.06,26.13,0,58.12-9.6,87.45-24.53-3.73-12.26-4.8-27.19-4.8-43.19,0-45.86,34.66-91.18,71.45-91.18,26.13,0,38.92,17.06,38.92,41.59,0,34.13-35.73,72.52-81.05,100.25,6.93,10.13,16.53,17.06,31.99,17.06,37.33,0,75.72-44.79,92.25-65.05l20.26-25.06c2.13-2.67,5.33-4.27,8-4.27,4.8,0,8.53,3.2,8.53,8.53,0,2.67-1.07,5.87-3.73,9.06l-20.26,25.06c-17.06,20.8-61.32,70.38-105.04,70.38-24,0-39.46-9.6-49.06-26.13-31.46,16-65.05,26.13-94.91,26.13-5.33,0-9.07-2.67-9.07-9.6Zm114.11-43.19c38.39-22.93,69.32-54.39,69.32-83.18,0-15.46-8.53-22.93-20.26-22.93-22.93,0-52.79,33.59-52.79,72.52,0,11.73.53,23.46,3.73,33.59Z"/><path class="cls-15" d="m1485.96,483.23c-29.33,36.79-58.12,70.38-86.38,70.38h-1.6c-16-.53-28.26-9.6-28.26-26.13,0-5.87,1.6-14.4,4.27-20.8-19.73,30.39-47.99,46.92-68.79,46.92s-39.99-10.66-39.99-45.86c0-62.39,93.85-131.7,154.1-131.7,10.13,0,19.2,1.07,19.2,9.06,0,2.67-1.07,6.4-3.73,12.8l-19.73,46.92c-10.13,23.99-26.13,62.39-26.13,75.72,0,8.53,3.73,14.4,10.66,14.4h1.07c15.46-1.07,37.33-22.4,72.52-65.05l20.26-25.06c2.13-2.67,5.33-4.27,8-4.27,4.8,0,8.53,3.2,8.53,8.53,0,2.67-1.07,5.87-3.73,9.06l-20.26,25.06Zm-70.38-88.51c-53.32,3.2-131.71,65.59-131.71,113.04,0,12.8,3.73,27.19,21.33,27.19,35.73,0,79.98-66.65,95.98-105.58l14.4-34.66Z"/><path class="cls-18" d="m1677.93,385.12c0,36.26,8.53,43.72,23.99,43.72,19.73,0,50.66-11.73,66.65-19.73l16.53-8.53c2.13-1.07,5.33-2.67,8.53-2.67,5.33,0,9.06,3.2,9.06,8.53,0,3.2-1.6,5.87-5.33,8l-16.53,8.53c-23.46,12.26-53.86,24.53-78.92,24.53-30.39,0-42.66-20.26-43.19-46.39-33.59,23.46-72.52,88.51-104.51,141.84-3.73,6.4-6.93,10.66-12.8,10.66s-8-3.73-8-8.53c0-6.93,8-24.53,11.2-31.46,14.4-29.33,38.39-82.12,38.39-107.18,0-8.53-3.73-11.73-9.06-11.73-14.93,0-42.12,31.46-67.72,63.45l-20.26,25.06c-2.13,2.67-5.33,4.27-8,4.27-4.8,0-8.53-3.2-8.53-8.53,0-2.67,1.07-5.87,3.73-9.06l20.26-25.06c23.46-28.79,55.46-68.79,80.52-68.79,20.26,0,29.86,11.2,29.86,30.39,0,14.93-5.87,31.46-13.86,48.52,26.13-41.59,58.12-78.92,81.05-78.92,5.87,0,6.93,3.73,6.93,9.06Z"/><path class="cls-15" d="m138.68,2320.25l102.91-177.03h-59.19c-5.33,0-9.6-3.73-9.6-9.6,0-5.33,4.27-9.06,9.06-9.06h70.92l71.98-123.17h-149.83c-5.87,0-9.6-4.8-9.6-9.6,0-5.33,4.27-9.6,9.6-9.6h166.36c5.33,0,9.06,4.27,9.06,9.07,0,3.2-1.6,6.4-3.73,10.13l-72.52,123.17h41.06c5.33,0,9.06,4.27,9.06,9.6,0,4.8-3.73,9.06-9.06,9.06h-51.72l-110.91,189.29c-2.13,3.2-4.8,4.8-8,4.8-5.33,0-9.06-3.73-9.06-8.53,0-2.67,1.6-5.87,3.2-8.53Z"/><path class="cls-15" d="m451.12,2290.39c0-21.33,11.73-41.06,30.93-41.06s37.86,17.06,41.59,59.72c19.73-11.73,42.12-33.06,60.25-55.46l20.26-25.06c2.13-2.67,5.33-4.27,8-4.27,4.8,0,8.53,3.2,8.53,8.53,0,2.67-1.07,5.87-3.73,9.06l-20.26,25.06c-22.93,28.26-47.99,52.25-72.52,63.45-2.67,68.25-51.72,185.03-102.91,185.03-28.26,0-36.26-17.06-36.26-46.39,0-27.73,21.33-121.04,51.19-218.62l-13.33,16.53c-2.13,2.67-5.33,4.27-8,4.27-4.8,0-8.53-3.2-8.53-8.53,0-2.67,1.07-5.87,3.73-9.07l20.26-25.06c5.33-6.93,12.8-15.46,20.8-24.53,37.86-114.64,84.78-221.82,119.97-221.82,16.53,0,22.93,11.73,22.93,26.66,0,47.99-50.66,110.38-123.17,198.89-35.73,105.58-66.65,220.22-66.65,261.81,0,13.86,2.13,27.19,17.06,27.19,43.19,0,78.38-103.98,83.18-159.96-3.2.53-5.87.53-8.53.53-30.39,0-44.79-23.46-44.79-46.92Zm53.85,27.19c-1.6-38.39-13.86-49.59-22.93-49.59-6.93,0-12.8,7.46-12.8,22.39s8,28.26,26.66,28.26c2.67,0,5.87,0,9.06-1.07Zm-17.06-157.3c42.66-52.26,88.51-114.11,88.51-151.43,0-5.33-3.2-8.53-6.93-8.53-16.53,0-49.59,71.98-81.58,159.97Z"/><path class="cls-15" d="m604.15,2299.99c0-14.93,5.87-37.86,12.8-58.12l-20.26,25.06c-2.13,2.67-5.33,4.27-8,4.27-4.8,0-8.53-3.2-8.53-8.53,0-2.67,1.07-5.87,3.73-9.07l20.26-25.06c36.79-45.32,42.66-68.79,52.26-68.79,5.33,0,8.53,3.73,8.53,8.53,0,9.06-42.12,90.65-42.12,131.71,0,10.66,5.87,18.66,16.53,18.66,21.33,0,47.99-30.39,76.25-65.05l20.26-25.06c2.13-2.67,5.33-4.27,8-4.27,4.8,0,8.53,3.2,8.53,8.53,0,2.67-1.07,5.87-3.73,9.06l-20.26,25.06c-26.66,32.53-61.85,70.38-89.05,70.38-21.33,0-35.19-14.93-35.19-37.33Zm84.78-191.43c0,10.13-8,15.46-14.4,15.46s-12.26-5.87-12.26-12.8c0-9.06,5.87-15.46,14.4-15.46,6.4,0,12.26,5.33,12.26,12.8Z"/><path class="cls-15" d="m951.82,2241.33c0,5.33-3.73,9.06-9.07,9.06-35.19,0-41.06-28.26-41.59-65.59-33.59,23.46-72.52,89.05-104.51,141.84-3.73,6.4-6.93,10.67-12.8,10.67s-8-3.73-8-8.53c0-6.93,8-24.53,11.2-31.46,14.4-29.33,38.39-82.12,38.39-107.18,0-8.53-3.73-11.73-9.06-11.73-14.93,0-42.12,31.46-67.72,63.45l-20.26,25.06c-2.13,2.67-5.33,4.27-8,4.27-4.8,0-8.53-3.2-8.53-8.53,0-2.67,1.07-5.87,3.73-9.07l20.26-25.06c23.46-28.79,55.46-68.79,80.52-68.79,20.26,0,29.86,11.2,29.86,30.39,0,14.93-5.87,31.46-13.86,48.52,26.13-41.59,58.12-78.92,81.05-78.92,5.87,0,6.93,3.73,6.93,9.06,0,47.46,3.73,62.92,22.39,62.92,5.33,0,9.07,2.67,9.07,9.6Z"/><path class="cls-15" d="m942.75,2250.4c-5.33,0-9.06-2.67-9.06-9.6,0-5.33,3.73-9.06,9.06-9.06,50.66,0,70.92-71.98,107.18-71.98,20.26,0,29.86,11.2,29.86,30.39,0,14.93-7.46,35.19-15.46,52.26,22.93-39.46,68.25-82.65,96.51-82.65,21.86,0,32.53,12.8,32.53,30.39,0,14.93-5.87,31.46-13.86,48.52,24.53-35.73,62.92-78.92,97.05-78.92,21.86,0,33.06,14.4,33.06,34.13,0,35.19-38.39,82.12-38.39,111.44,0,6.4,2.67,13.33,11.2,13.33,21.33,0,47.99-30.39,76.25-65.05l20.26-25.06c2.13-2.67,5.33-4.27,8-4.27,4.8,0,8.53,3.2,8.53,8.53,0,2.67-1.07,5.87-3.73,9.06l-20.26,25.06c-26.66,32.53-61.85,70.38-89.05,70.38-19.2,0-29.86-10.13-29.86-30.39,0-38.39,38.39-84.78,38.39-114.11,0-8-5.33-14.4-14.4-14.4-41.59,0-100.78,95.45-132.77,148.23-3.73,6.4-6.93,10.67-12.8,10.67s-8-3.73-8-8.53c0-6.93,8-24.53,11.2-31.46,14.4-29.33,38.39-82.12,38.39-107.18,0-6.93-3.2-11.73-11.73-11.73-34.66,0-98.64,95.45-130.64,148.23-3.73,6.4-6.93,10.67-12.8,10.67s-8-3.73-8-8.53c0-6.93,8-24.53,11.2-31.46,14.4-29.33,38.39-82.12,38.39-107.18,0-8.53-3.73-11.73-9.06-11.73-22.4,0-50.66,71.98-107.18,71.98Z"/><path class="cls-15" d="m1510.63,2328.25c0,5.33-3.73,9.07-9.06,9.07-32.53,0-44.26-14.4-44.26-29.86,0-5.87,1.07-10.66,2.67-17.06-19.73,30.39-47.99,46.92-68.79,46.92s-39.99-10.67-39.99-45.86c0-27.19,18.13-58.65,50.66-85.85,17.06-14.93,37.33-27.19,57.05-35.19,16.53-6.93,32.53-10.66,46.39-10.66,10.13,0,19.2,1.07,19.2,9.06,0,2.67-1.07,6.4-3.73,12.8l-19.73,46.92c-10.13,23.99-23.46,56.52-23.46,70.38,0,10.13,7.46,19.73,24,19.73,5.33,0,9.06,2.67,9.06,9.6Zm-9.06-149.83c-25.06,1.6-59.19,17.06-87.45,41.06-13.33,11.73-24.53,24-31.99,36.26-8,12.8-12.26,24.53-12.26,35.73,0,12.8,3.73,27.19,21.33,27.19,35.73,0,79.98-66.65,95.98-105.58l14.4-34.66Z"/><path class="cls-15" d="m1602.87,2309.58c0-4.8,3.73-8,8-8,10.66,0,27.19,17.6,65.05,17.6,20.26,0,40.52-11.73,40.52-51.72,0-24-5.33-55.99-10.66-78.38-34.13,44.26-117.31,148.24-202.09,148.24-5.33,0-9.07-2.67-9.07-9.6,0-5.33,3.73-9.06,9.07-9.06,73.58,0,164.76-111.44,193.02-147.7,3.73-4.8,8.53-11.2,14.4-11.2,5.33,0,7.46,2.67,8.53,8,7.46,30.93,15.46,66.65,15.46,99.71,0,20.26-4.27,37.33-15.46,49.06,39.99-7.46,65.05-28.79,92.25-62.92l20.26-25.06c2.13-2.67,5.33-4.27,8-4.27,4.8,0,8.53,3.2,8.53,8.53,0,2.67-1.07,5.87-3.73,9.06l-20.26,25.06c-31.46,38.92-61.32,70.38-148.77,70.38-29.33,0-73.05-11.73-73.05-27.73Z"/><path class="cls-15" d="m485.61,2884.49c0,4.27-2.67,11.2-5.87,20.79l-78.38,225.02c44.79-9.6,84.25-25.59,119.44-43.72l16.53-8.53c2.13-1.07,5.33-2.67,8.53-2.67,5.33,0,9.06,3.2,9.06,8.53,0,3.2-1.6,5.87-5.33,8l-16.53,8.53c-50.66,26.13-94.38,42.12-139.17,50.12l-25.59,74.12c-1.6,4.27-4.8,6.4-9.07,6.4-5.33,0-8.53-4.27-9.06-8.53-2.13-19.2-4.8-42.66-9.6-65.05-10.13.53-20.26.53-30.93.53-50.12,0-79.98-8.53-90.65-30.39l-41.06,89.58c-4.8,10.66-9.06,13.86-13.33,13.86s-8.53-2.67-8.53-8c0-2.67.53-5.33,3.2-11.2l92.25-197.29c12.8-27.73,27.19-63.99,27.19-90.65,0-13.86-6.4-22.93-18.13-26.66-3.2,29.33-17.06,74.12-52.26,74.12-15.46,0-31.99-10.66-31.99-37.86s32.53-57.59,69.85-57.59c27.19,0,51.19,14.93,51.19,47.99,0,25.59-16,66.65-30.93,99.18l-14.93,33.06c5.33-1.6,10.67-2.67,17.06-2.67,51.19,0,73.05,39.99,85.31,83.72l26.13-3.2,86.92-249.01c1.6-5.33,4.27-9.06,9.6-9.06s9.06,3.73,9.06,8.53Zm-244.75,11.2c-26.66,2.13-46.39,20.8-46.39,38.93,0,11.2,5.87,18.13,13.86,18.13,15.46,0,28.79-24,32.53-57.05Zm95.45,243.15c-4.27-14.93-10.13-28.79-18.13-40.53-12.26-17.6-27.19-26.13-49.59-26.13s-35.19,14.93-35.19,33.59c0,21.86,22.39,33.59,76.25,33.59,9.06,0,17.6,0,26.66-.53Zm27.73,42.12l9.06-26.66-14.4,1.6c2.13,8.53,3.73,17.06,5.33,25.06Z"/><path class="cls-15" d="m614.12,3143.64c-17.06,45.32-56.52,87.45-103.44,87.45-31.46,0-48.52-16-48.52-46.39,0-28.26,16.53-60.79,44.79-89.05,25.59-26.13,55.99-42.12,78.38-42.12,26.66,0,38.39,16.53,38.39,44.26,0,9.06-1.07,18.13-3.73,27.73h9.07c5.33,0,9.06,2.67,9.06,9.6,0,5.33-3.73,9.07-9.06,9.07s-10.13,0-14.93-.53Zm-18.66-2.67c-31.46-7.47-45.86-25.06-45.86-43.72,0-4.8.53-8.53,2.13-11.73-28.26,12.8-70.92,61.32-70.92,99.18,0,14.93,8,27.73,29.86,27.73,36.26,0,69.32-34.13,84.78-71.45Zm5.87-17.6c2.67-8.53,3.73-17.06,3.73-25.59,0-17.06-5.87-25.59-18.66-25.59-10.66,0-18.13,5.33-18.13,25.06,0,13.86,12.26,22.39,33.06,26.13Z"/><path class="cls-15" d="m846.61,3147.37l20.26-25.06c2.13-2.67,5.33-4.27,8-4.27,4.8,0,8.53,3.2,8.53,8.53,0,2.67-1.07,5.87-3.73,9.06l-20.26,25.06c-31.46,38.92-61.32,70.38-148.77,70.38-29.33,0-73.05-11.73-73.05-27.73,0-4.8,3.73-8,8-8,10.67,0,27.19,17.6,65.05,17.6,20.26,0,40.53-11.73,40.53-51.72,0-23.99-5.87-57.05-11.2-79.45-21.33,34.66-63.99,62.39-110.91,62.39-5.33,0-9.06-2.67-9.06-9.6,0-5.33,3.73-9.06,9.06-9.06,74.12,0,101.84-71.98,116.77-71.98,5.33,0,7.47,2.67,8.53,8,7.46,30.93,15.46,66.65,15.46,99.71,0,20.26-4.27,37.33-15.46,49.06,39.99-7.47,65.05-28.79,92.25-62.92Z"/><path class="cls-15" d="m948.99,3069.52c0,9.6-.53,21.33-1.6,34.66,26.13-30.39,52.79-50.66,75.72-50.66,26.13,0,40.52,20.26,40.52,45.86,0,50.66-45.32,97.58-83.71,111.44,30.39,0,77.32-14.93,116.77-63.45l20.26-25.06c2.13-2.67,5.33-4.27,8-4.27,4.8,0,8.53,3.2,8.53,8.53,0,2.67-1.07,5.87-3.73,9.06l-20.26,25.06c-46.92,58.12-95.45,69.85-181.29,70.38-18.66,89.58-49.59,178.09-87.98,178.09-19.73,0-28.79-12.8-28.79-35.73,0-36.26,53.32-158.37,113.58-240.48,2.67-24,4.8-44.79,4.8-60.25-10.13,15.46-29.86,37.32-50.12,62.92l-20.26,25.06c-2.13,2.67-5.33,4.27-8,4.27-4.8,0-8.53-3.2-8.53-8.53,0-2.67,1.07-5.87,3.73-9.06l20.26-25.06c32.53-39.99,52.79-68.79,69.32-68.79,9.6,0,12.8,4.8,12.8,16Zm-29.86,103.98c-47.99,75.72-89.05,170.63-89.05,199.96,0,11.73,2.67,17.06,10.13,17.06,29.86,0,62.39-118.91,78.92-217.02Zm24.53-36.26c-2.67,22.93-6.4,47.46-11.2,73.05,41.06-6.93,112.51-54.92,112.51-109.84,0-21.33-12.26-28.26-21.86-28.26-22.93,0-51.19,27.19-79.45,65.05Z"/><path class="cls-15" d="m1116.96,3193.76c0-14.93,5.87-37.86,12.8-58.12l-20.26,25.06c-2.13,2.67-5.33,4.27-8,4.27-4.8,0-8.53-3.2-8.53-8.53,0-2.67,1.07-5.87,3.73-9.06l20.26-25.06c36.79-45.32,42.66-68.79,52.26-68.79,5.33,0,8.53,3.73,8.53,8.53,0,9.07-42.12,90.65-42.12,131.71,0,10.66,5.87,18.66,16.53,18.66,21.33,0,47.99-30.39,76.25-65.05l20.26-25.06c2.13-2.67,5.33-4.27,8-4.27,4.8,0,8.53,3.2,8.53,8.53,0,2.67-1.07,5.87-3.73,9.06l-20.26,25.06c-26.66,32.53-61.85,70.38-89.05,70.38-21.33,0-35.19-14.93-35.19-37.33Zm84.78-191.42c0,10.13-8,15.46-14.4,15.46s-12.26-5.87-12.26-12.8c0-9.07,5.87-15.46,14.4-15.46,6.4,0,12.26,5.33,12.26,12.8Z"/><path class="cls-15" d="m1340.91,3011.93c-20.26,62.39-41.59,147.7-41.59,173.29,0,18.13,5.33,27.2,22.93,27.2,29.86,0,60.79-27.73,91.18-65.05l20.26-25.06c2.13-2.67,5.33-4.27,8-4.27,4.8,0,8.53,3.2,8.53,8.53,0,2.67-1.07,5.87-3.73,9.06l-20.26,25.06c-26.66,32.53-65.05,70.38-103.98,70.38-30.39,0-41.59-17.06-41.59-45.86,0-33.59,13.86-85.85,27.19-120.51-10.13,21.33-30.39,51.19-46.39,70.92l-20.26,25.06c-2.13,2.67-5.33,4.27-8,4.27-4.8,0-8.53-3.2-8.53-8.53,0-2.67,1.07-5.87,3.73-9.06l20.26-25.06c29.33-36.26,51.19-75.18,68.25-110.38h-41.06c-5.33,0-9.06-2.67-9.06-9.6,0-5.33,3.73-9.07,9.06-9.07h50.12c5.87-12.26,10.66-24.53,15.46-35.19l32.53-75.72c1.6-4.27,4.8-6.4,9.06-6.4,5.33,0,11.73,4.27,8.53,12.26l-33.06,76.78c-3.73,8-7.47,17.6-11.2,28.26h61.32c5.33,0,9.06,2.67,9.06,9.6,0,5.33-3.73,9.06-9.06,9.06h-67.72Z"/><path class="cls-15" d="m1626.72,3160.7c-29.33,36.79-58.12,70.38-86.38,70.38h-1.6c-16-.53-28.26-9.6-28.26-26.13,0-5.87,1.6-14.4,4.27-20.8-19.73,30.39-47.99,46.92-68.79,46.92s-39.99-10.66-39.99-45.86c0-62.39,93.85-131.7,154.1-131.7,10.13,0,19.2,1.07,19.2,9.06,0,2.67-1.07,6.4-3.73,12.8l-19.73,46.92c-10.13,24-26.13,62.39-26.13,75.72,0,8.53,3.73,14.4,10.66,14.4h1.07c15.46-1.07,37.33-22.4,72.52-65.05l20.26-25.06c2.13-2.67,5.33-4.27,8-4.27,4.8,0,8.53,3.2,8.53,8.53,0,2.67-1.07,5.87-3.73,9.06l-20.26,25.06Zm-70.38-88.51c-53.32,3.2-131.71,65.59-131.71,113.04,0,12.8,3.73,27.2,21.33,27.2,35.73,0,79.98-66.65,95.98-105.58l14.4-34.66Z"/><path class="cls-15" d="m1673.64,3102.58c-7.46,31.99-12.26,61.32-12.26,82.65,0,23.46,10.13,27.2,17.06,27.2,23.99,0,50.12-31.46,77.32-65.05l20.26-25.06c2.13-2.67,5.33-4.27,8-4.27,4.8,0,8.53,3.2,8.53,8.53,0,2.67-1.07,5.87-3.73,9.06l-20.26,25.06c-31.46,38.92-57.05,70.38-90.11,70.38-25.06,0-35.73-20.79-35.73-45.86,0-11.73,2.13-30.39,6.4-52.25l-2.13,2.67-20.26,25.06c-2.13,2.67-5.33,4.27-8,4.27-4.8,0-8.53-3.2-8.53-8.53,0-2.67,1.07-5.87,3.73-9.06l20.26-25.06c5.87-7.47,13.86-17.06,22.93-27.19,22.93-94.91,69.85-219.15,117.84-219.15,16.53,0,22.93,11.73,22.93,26.66,0,48.52-51.19,110.91-124.24,199.96Zm11.2-40.52c44.79-53.32,95.45-119.97,95.45-159.43,0-5.33-3.2-8.53-6.93-8.53-24.53,0-63.45,84.78-88.51,167.96Z"/><g class="cls-19"><path class="cls-17" d="m738.73,545.62c0-24,10.66-44.79,29.33-44.79,17.06,0,27.19,13.33,28.79,38.39,17.06-17.06,38.39-43.19,59.72-69.32l20.26-25.06c2.13-2.67,5.33-4.27,8-4.27,4.8,0,8.53,3.2,8.53,8.53,0,2.67-1.07,5.87-3.73,9.06l-20.26,25.06c-17.6,21.86-48.52,58.65-73.58,79.45-7.47,73.05-59.19,169.03-113.58,169.03-21.33,0-31.46-14.93-31.46-37.86.53-28.26,26.13-92.78,59.19-164.76-8,8.53-28.26,24.53-49.06,24.53s-39.99-10.66-39.99-45.86c0-27.19,18.13-58.65,50.66-85.85,17.06-14.93,37.33-27.19,57.05-35.19,16.53-6.93,32.53-10.66,46.39-10.66,10.13,0,19.2,1.07,19.2,9.06,0,2.67-1.07,6.4-3.73,12.8l-19.73,46.92c-28.26,68.25-100.78,197.82-100.78,249.01,0,8,1.07,18.13,12.26,18.13,36.26,0,80.52-70.92,92.78-135.44-2.67,1.07-4.8,1.6-6.4,1.6-18.66,0-29.86-9.6-29.86-32.53Zm32.53-150.9c-25.06,1.6-59.19,17.06-87.45,41.06-13.33,11.73-24.53,24-31.99,36.26-8,12.8-12.26,24.53-12.26,35.73,0,12.8,3.73,27.19,21.33,27.19,35.73,0,79.98-66.65,95.98-105.58l14.4-34.66Zm6.4,160.5c.53-3.2.53-6.4.53-10.13,0-16.53-3.2-24.53-10.13-24.53-5.33,0-10.67,6.93-10.67,24.53,0,11.73,4.27,14.4,11.2,14.4,2.13,0,5.33-1.6,9.06-4.27Z"/></g><g class="cls-22"><path class="cls-17" d="m485.61,2884.79c0,4.27-2.67,11.2-5.87,20.8l-78.38,225.02c44.79-9.6,84.25-25.59,119.44-43.72l16.53-8.53c2.13-1.07,5.33-2.67,8.53-2.67,5.33,0,9.06,3.2,9.06,8.53,0,3.2-1.6,5.87-5.33,8l-16.53,8.53c-50.66,26.13-94.38,42.12-139.17,50.12l-25.59,74.12c-1.6,4.27-4.8,6.4-9.07,6.4-5.33,0-8.53-4.27-9.06-8.53-2.13-19.2-4.8-42.66-9.6-65.05-10.13.53-20.26.53-30.93.53-50.12,0-79.98-8.53-90.65-30.39l-41.06,89.58c-4.8,10.66-9.06,13.86-13.33,13.86s-8.53-2.67-8.53-8c0-2.67.53-5.33,3.2-11.2l92.25-197.29c12.8-27.73,27.19-63.99,27.19-90.65,0-13.86-6.4-22.93-18.13-26.66-3.2,29.33-17.06,74.12-52.26,74.12-15.46,0-31.99-10.67-31.99-37.86s32.53-57.59,69.85-57.59c27.19,0,51.19,14.93,51.19,47.99,0,25.59-16,66.65-30.93,99.18l-14.93,33.06c5.33-1.6,10.67-2.67,17.06-2.67,51.19,0,73.05,39.99,85.31,83.72l26.13-3.2,86.92-249.01c1.6-5.33,4.27-9.06,9.6-9.06s9.06,3.73,9.06,8.53Zm-244.75,11.2c-26.66,2.13-46.39,20.8-46.39,38.93,0,11.2,5.87,18.13,13.86,18.13,15.46,0,28.79-24,32.53-57.05Zm95.45,243.15c-4.27-14.93-10.13-28.79-18.13-40.53-12.26-17.6-27.19-26.13-49.59-26.13s-35.19,14.93-35.19,33.59c0,21.86,22.39,33.59,76.25,33.59,9.06,0,17.6,0,26.66-.53Zm27.73,42.12l9.06-26.66-14.4,1.6c2.13,8.53,3.73,17.06,5.33,25.06Z"/></g><path class="cls-16" d="m182.2,2143.31h132.01c5.27,0,9.83-4.09,9.83-9.21,0-5.92-4.56-9.55-9.83-9.55h-132.01c-6.64,0-9.83,4.43-9.83,9.55s4.56,9.21,9.83,9.21Z"/><g class="cls-21"><path class="cls-17" d="m451.37,2290.39c0-21.33,11.73-41.06,30.93-41.06s37.86,17.06,41.59,59.72c19.73-11.73,42.12-33.06,60.25-55.45l20.26-25.06c2.13-2.67,5.33-4.27,8-4.27,4.8,0,8.53,3.2,8.53,8.53,0,2.67-1.07,5.87-3.73,9.06l-20.26,25.06c-22.93,28.26-47.99,52.26-72.52,63.45-2.67,68.25-51.72,185.03-102.91,185.03-28.26,0-36.26-17.06-36.26-46.39,0-27.73,21.33-121.04,51.19-218.62l-13.33,16.53c-2.13,2.67-5.33,4.27-8,4.27-4.8,0-8.53-3.2-8.53-8.53,0-2.67,1.07-5.87,3.73-9.06l20.26-25.06c5.33-6.93,12.8-15.46,20.8-24.53,37.86-114.64,84.78-221.82,119.97-221.82,16.53,0,22.93,11.73,22.93,26.66,0,47.99-50.66,110.38-123.17,198.89-35.73,105.58-66.65,220.22-66.65,261.81,0,13.86,2.13,27.19,17.06,27.19,43.19,0,78.38-103.98,83.18-159.96-3.2.53-5.87.53-8.53.53-30.39,0-44.79-23.46-44.79-46.92Zm53.85,27.2c-1.6-38.39-13.86-49.59-22.93-49.59-6.93,0-12.8,7.46-12.8,22.39s8,28.26,26.66,28.26c2.67,0,5.87,0,9.06-1.07Zm-17.06-157.3c42.66-52.25,88.51-114.11,88.51-151.43,0-5.33-3.2-8.53-6.93-8.53-16.53,0-49.59,71.98-81.58,159.97Z"/></g><g class="cls-20"><path class="cls-17" d="m1314.98,1419.27l-18.13,22.4c-2.13,2.67-5.33,4.27-8,4.27-4.8,0-8.53-3.2-8.53-8.53,0-2.67,1.07-5.87,3.73-9.06l20.26-25.06c31.46-38.92,54.92-69.32,54.92-92.25,0-13.86-7.47-23.99-22.4-23.99-28.79,0-49.06,31.46-74.65,63.45l-20.26,25.06c-2.13,2.67-5.33,4.27-8,4.27-4.8,0-8.53-3.2-8.53-8.53,0-2.67,1.07-5.87,3.73-9.06l20.26-25.06c23.46-28.79,50.66-68.79,87.45-68.79,29.33,0,41.06,18.66,41.06,42.66,0,21.86-18.66,51.19-39.46,78.38,3.73-.53,6.93-1.07,10.13-1.07,24.53,0,38.92,17.06,38.92,40.52v4.8c21.86-19.73,44.79-43.19,67.72-71.45l20.26-25.06c2.13-2.67,5.33-4.27,8-4.27,4.8,0,8.53,3.2,8.53,8.53,0,2.67-1.07,5.87-3.73,9.06l-20.26,25.06c-27.73,34.13-56.52,61.32-84.25,83.72-14.4,65.05-66.12,164.76-124.24,164.76-22.93,0-36.79-14.93-36.79-35.73,0-51.19,63.45-71.45,143.44-137.04,1.6-8,2.67-16,2.67-22.4,0-13.33-5.87-21.86-20.26-21.86-10.13,0-25.59,5.87-33.59,12.26Zm45.32,58.12c-66.12,49.59-118.91,74.65-118.91,110.91,0,9.06,8,17.06,18.13,17.06,44.26,0,83.71-70.92,100.78-127.97Z"/></g></g></svg>