<?xml version="1.0" encoding="UTF-8"?><svg id="info" xmlns="http://www.w3.org/2000/svg" xmlns:xlink="http://www.w3.org/1999/xlink" viewBox="0 0 1920 3585"><defs><style>.cls-1,.cls-2,.cls-3,.cls-4,.cls-5,.cls-6,.cls-7,.cls-8,.cls-9,.cls-10,.cls-11,.cls-12,.cls-13{fill:none;}.cls-2{stroke-dasharray:0 0 1.74 17.44;}.cls-2,.cls-3,.cls-4,.cls-5,.cls-6,.cls-7,.cls-8,.cls-9,.cls-10,.cls-11,.cls-12{stroke:#a797c9;stroke-linecap:round;stroke-width:7px;}.cls-2,.cls-3,.cls-4,.cls-5,.cls-6,.cls-7,.cls-8,.cls-9,.cls-10,.cls-11,.cls-12,.cls-13{stroke-miterlimit:10;}.cls-14{clip-path:url(#clippath);}.cls-3{stroke-dasharray:0 0 1.76 17.64;}.cls-15{fill:#fff;}.cls-16{fill:#171c32;}.cls-17{fill:#947fbb;}.cls-4{stroke-dasharray:0 0 1.83 18.28;}.cls-6{stroke-dasharray:0 0 1.71 17.08;}.cls-18{clip-path:url(#clippath-1);}.cls-19{clip-path:url(#clippath-3);}.cls-20{clip-path:url(#clippath-2);}.cls-7{stroke-dasharray:0 0 1.74 17.36;}.cls-8{stroke-dasharray:0 0 1.78 17.82;}.cls-9{stroke-dasharray:0 0 1.79 17.92;}.cls-10{stroke-dasharray:0 0 1.74 17.45;}.cls-11{stroke-dasharray:0 0 1.68 16.84;}.cls-12{stroke-dasharray:0 0 1.78 17.84;}.cls-13{stroke:#57678b;stroke-width:3.5px;}</style><clipPath id="clippath"><circle class="cls-1" cx="1158.06" cy="1270.48" r="63.93"/></clipPath><clipPath id="clippath-1"><circle class="cls-1" cx="1134.31" cy="2123.66" r="69.65"/></clipPath><clipPath id="clippath-2"><circle class="cls-1" cx="723.82" cy="2090.52" r="47.14"/></clipPath><clipPath id="clippath-3"><circle class="cls-1" cx="1388.53" cy="3174.57" r="151.87"/></clipPath></defs><rect class="cls-16" x="-1.57" y=".71" width="1920" height="3585.39"/><line class="cls-13" x1="1.42" y1="203.43" x2="1918.43" y2="203.43"/><line class="cls-13" x1="1.42" y1="364.54" x2="1918.43" y2="364.54"/><line class="cls-13" x1="1918.43" y1="549.42" x2="1.42" y2="549.42"/><line class="cls-13" x1="1.42" y1="713.29" x2="1918.43" y2="713.29"/><line class="cls-13" x1=".43" y1="1063.2" x2="1917.43" y2="1063.2"/><line class="cls-13" x1=".43" y1="1224.32" x2="1917.43" y2="1224.32"/><line class="cls-13" x1="1917.43" y1="1409.2" x2=".43" y2="1409.2"/><line class="cls-13" x1=".43" y1="1573.07" x2="1917.43" y2="1573.07"/><line class="cls-13" x1="-.57" y1="1923.54" x2="1916.43" y2="1923.54"/><line class="cls-13" x1="-.57" y1="2084.66" x2="1916.43" y2="2084.66"/><line class="cls-13" x1="1916.43" y1="2269.54" x2="-.57" y2="2269.54"/><line class="cls-13" x1="-.57" y1="2433.4" x2="1916.43" y2="2433.4"/><line class="cls-13" x1="-1.57" y1="2781.24" x2="1915.43" y2="2781.24"/><line class="cls-13" x1="-1.57" y1="2942.36" x2="1915.43" y2="2942.36"/><line class="cls-13" x1="1915.43" y1="3127.23" x2="-1.57" y2="3127.23"/><line class="cls-13" x1="-1.57" y1="3291.1" x2="1915.43" y2="3291.1"/><circle class="cls-17" cx="1158.06" cy="1270.48" r="63.93"/><path class="cls-16" d="m425.01,2122.32c16.39-.51,43.03-2.05,58.4-10.76,9.22-5.12,17.42,8.71,8.2,14.34,0,0-2.05,1.02-5.12,2.56-21,8.2-40.98,10.25-63.01,10.25-2.05,0-4.1,0-6.15-.51l-56.86,123.46c-4.1,9.73-19.47,3.07-14.86-7.17l54.3-117.83c-32.27-4.1-51.23-9.73-85.04-9.73-17.42,0-48.67,2.05-67.11,5.63-9.73,2.05-13.83-9.22-8.71-14.34,12.29-11.78,24.59-26.64,27.66-30.74,28.18-35.35,65.57-94.26,87.6-159.83,3.59-10.25,18.95-5.12,15.88,5.12-18.44,54.81-60.96,132.17-104.51,181.35,9.22-1.02,37.91-3.59,49.18-3.59,39.45,0,57.89,7.17,92.21,10.76l71.21-153.68c4.1-9.73,19.47-3.07,14.86,7.17l-68.13,147.54Z"/><path class="cls-16" d="m841.49,2209.92c-4.1,5.12-14.86,11.27-26.13,11.27-25.61,0-36.37-21-24.59-53.79,5.63-16.39,15.88-43.54,17.93-50.2,1.54-6.66.51-12.29-7.17-12.29-17.93,0-49.69,45.08-95.8,130.63l-14.34,26.64c-2.56,5.12-7.69,4.61-11.27,3.07-3.07-2.05-6.15-6.66-3.59-11.27l65.06-122.95c2.05-4.61,4.61-10.76,5.63-16.39.51-4.1-.51-9.22-4.61-9.22s-7.68,3.07-14.86,11.27c-7.17,8.71-40.47,53.79-69.16,91.7-3.07,4.1-8.71,4.1-11.78,1.54-3.07-2.05-5.12-7.17-1.54-11.27,13.83-16.91,63.52-84.01,70.18-92.72,7.17-9.22,16.91-15.88,28.18-15.88,8.71,0,17.42,5.12,18.44,17.42,0,3.07-1.02,9.22-2.05,13.83,13.32-18.95,27.15-32.27,43.03-32.27,17.93,0,24.08,14.34,22.54,25.61-.51,5.63-2.56,11.27-4.1,15.88-2.05,5.12-11.78,30.74-15.37,41.5-8.2,24.08-2.05,33.3,9.73,33.3,6.15,0,11.27-3.07,14.86-8.2,3.07-4.1,8.71-4.1,11.78-1.02,3.59,3.59,3.59,8.2-1.03,13.83Z"/><path class="cls-16" d="m971.1,2265.76c-24.59,0-28.69-17.42-24.08-36.88-17.42,18.95-39.45,36.88-60.96,36.88-46.11,0-45.59-35.86-34.83-68.65-3.07,4.1-5.64,7.68-8.2,11.27-6.66,8.71-19.98-1.54-13.32-10.25,34.32-44.57,72.75-112.19,137.29-112.7,20.49,0,32.27,5.12,40.98,11.78l3.59-7.17c5.12-10.25,19.47-2.56,14.34,7.68-3.59,7.68-61.47,114.75-64.55,141.39-.51,6.15,2.56,10.25,9.73,10.25,31.76,0,53.28-29.71,71.21-51.23,6.66-8.71,19.47,1.54,12.81,10.25-22.03,26.64-47.64,57.38-84.02,57.38Zm29.2-153.17c-9.22-9.22-21-10.76-33.3-10.76-32.27,0-62.5,23.05-85.04,64.04-10.25,19.47-43.54,83.5,4.1,83.5,31.25,0,78.38-65.06,91.19-90.67l23.05-46.11Z"/><path class="cls-16" d="m1198.04,2287.28l-28.18,57.38c-23.05,45.59-44.06,85.55-78.89,85.55-56.35,0-63.01-85.04,22.03-121.92,16.9-7.17,44.06-19.47,72.74-33.3l42.52-85.55c-31.25,37.91-71.72,76.84-109.12,76.84-18.44,0-32.27-10.25-32.27-29.71.51-45.08,73.26-102.97,69.67-134.22-26.12,1.02-88.62,90.16-100.92,106.04-7.17,8.71-19.98-1.54-13.32-10.25l43.54-54.81c32.27-41.5,51.23-57.38,71.72-57.38,16.91,0,16.91,18.44,13.32,30.74-12.29,38.42-67.62,87.6-67.62,119.87,0,8.2,4.1,13.32,15.88,13.32,54.81,0,133.2-116.29,158.3-159.83,6.15-9.73,19.47-2.56,14.86,7.68l-81.96,164.96c42.52-21.52,83.5-46.11,97.85-64.04,6.66-8.71,19.47,1.02,12.81,9.73-18.44,24.08-72.23,54.3-122.95,78.89Zm-24.08,11.78c-20.49,9.73-39.96,17.93-54.3,24.59-38.93,16.39-53.28,40.98-54.3,58.91-1.54,18.44,9.22,31.25,25.61,31.25,22.54,0,38.93-26.13,64.04-76.33l18.95-38.42Z"/><path class="cls-16" d="m1450.09,2265.76c-24.59,0-28.69-17.42-24.08-36.88-17.42,18.95-39.45,36.88-60.96,36.88-46.11,0-45.59-35.86-34.84-68.65-3.07,4.1-5.63,7.68-8.2,11.27-6.66,8.71-19.98-1.54-13.32-10.25,34.32-44.57,72.74-112.19,137.29-112.7,20.49,0,32.28,5.12,40.98,11.78l3.59-7.17c5.12-10.25,19.47-2.56,14.34,7.68-3.59,7.68-61.47,114.75-64.55,141.39-.51,6.15,2.56,10.25,9.73,10.25,31.76,0,53.28-29.71,71.21-51.23,6.66-8.71,19.47,1.54,12.81,10.25-22.03,26.64-47.64,57.38-84.01,57.38Zm29.2-153.17c-9.22-9.22-21-10.76-33.3-10.76-32.27,0-62.5,23.05-85.04,64.04-10.24,19.47-43.54,83.5,4.1,83.5,31.25,0,78.38-65.06,91.19-90.67l23.05-46.11Z"/><path class="cls-16" d="m1579.69,2266.27c-36.88,0-63.52-18.44-80.94-66.08-3.59-10.25,11.27-16.39,15.37-6.15,16.39,43.54,34.84,55.84,65.57,55.84s33.3-29.71,27.66-62.5c-3.59-21.52-6.15-38.42-8.71-54.81l-1.54,2.05c-20.49,24.59-63.01,74.28-63.01,74.28-6.66,8.2-19.47-2.56-12.29-10.76,0,0,33.81-40.47,63.52-74.28,2.56-3.07,8.2-8.71,13.83-15.37-1.54-17.42,2.56-30.74,17.93-30.74s12.29,15.37,6.66,24.08c-1.54,3.59-7.69,10.76-10.76,14.86,3.59,25.61,8.2,46.11,11.78,68.13,4.61,29.2,4.1,46.11-5.63,62.5,26.13-11.27,43.54-31.25,56.35-48.67,6.66-8.71,19.47,1.02,13.32,9.73-26.64,36.37-54.3,57.89-109.12,57.89Z"/><line class="cls-5" x1="348.54" y1="765.35" x2="348.54" y2="764.48"/><line class="cls-4" x1="348.54" y1="746.2" x2="348.54" y2="574.35"/><line class="cls-5" x1="348.54" y1="565.21" x2="348.54" y2="564.34"/><line class="cls-5" x1="1163.47" y1="1191.55" x2="1163.47" y2="1190.68"/><line class="cls-2" x1="1163.47" y1="1173.24" x2="1163.47" y2="990.13"/><line class="cls-5" x1="1163.47" y1="981.41" x2="1163.47" y2="980.54"/><line class="cls-5" x1="1578.49" y1="765.35" x2="1578.49" y2="764.48"/><line class="cls-8" x1="1578.49" y1="746.67" x2="1578.49" y2="579.2"/><line class="cls-5" x1="1578.49" y1="570.29" x2="1578.49" y2="569.42"/><path class="cls-15" d="m1259.92,1626.5v-2.02h3.02v2.18c0,3.74,2.6,6.05,7.94,6.05s8.44-1.97,8.44-6.22c0-3.32-1.39-5.17-4.92-6.09l-6.64-1.72c-4.33-1.13-7.18-2.98-7.18-8.15s3.78-8.91,10.92-8.91,10.59,3.44,10.59,9.07v2.94h-3.02v-2.81c0-4.62-3.07-6.51-7.56-6.51-5.12,0-7.81,2.14-7.81,6.01,0,3.61,1.76,4.7,5.54,5.71l5.75,1.55c5.12,1.39,7.44,3.74,7.44,8.65,0,6.09-4.33,9.24-11.47,9.24-9.12,0-11.05-4.7-11.05-8.99Z"/><path class="cls-15" d="m1300.58,1632.25v2.6c-.76.21-2.14.59-4.03.59-3.82,0-6.34-1.6-6.34-6.89v-12.18h-4.16v-2.44h4.16v-6.05l2.94-1.43v7.48h5.92v2.44h-5.92v11.8c0,2.81.76,4.58,3.4,4.58,1.6,0,3.23-.29,4.03-.5Z"/><path class="cls-15" d="m1322.04,1625.45h-15.96c.17,4.79,2.48,7.48,6.93,7.48,3.82,0,5.67-1.43,5.96-4.83h2.98c-.29,4.24-3.28,7.39-9.03,7.39-7.06,0-9.83-4.66-9.83-10.88s3.23-11.22,10-11.22,8.95,3.99,8.95,10.21v1.85Zm-3.11-2.98c0-4.45-1.72-6.55-5.92-6.55s-6.55,2.65-6.89,6.97h12.81v-.42Z"/><path class="cls-15" d="m1345.18,1625.45h-15.96c.17,4.79,2.48,7.48,6.93,7.48,3.82,0,5.67-1.43,5.96-4.83h2.98c-.29,4.24-3.28,7.39-9.03,7.39-7.06,0-9.83-4.66-9.83-10.88s3.23-11.22,10-11.22,8.95,3.99,8.95,10.21v1.85Zm-3.11-2.98c0-4.45-1.72-6.55-5.92-6.55s-6.55,2.65-6.89,6.97h12.81v-.42Z"/><path class="cls-15" d="m1351.06,1613.94h2.39l.34,3.86h.08c1.13-2.48,4.03-4.41,7.86-4.41,6.3,0,9.66,3.99,9.66,11.01s-4.28,11.09-9.87,11.09c-3.78,0-6.38-1.6-7.44-3.7h-.08v11.55h-2.94v-29.4Zm17.18,10.63c0-7.18-3.4-8.61-6.93-8.61-4.24,0-7.56,2.73-7.56,8.44,0,6.01,3.45,8.57,7.44,8.57,3.03,0,7.06-1.47,7.06-8.4Z"/><path class="cls-15" d="m1385.03,1628.51v-1.18h2.94v1.13c0,2.86,2.14,4.5,5.96,4.5s5.8-1.01,5.8-3.78c0-2.06-1.01-2.81-3.87-3.32l-4.62-.84c-3.02-.55-5.54-2.02-5.54-5.5,0-3.15,2.35-6.13,8.4-6.13s8.4,3.02,8.4,7.23v.88h-2.98v-.76c0-3.44-2.14-4.91-5.42-4.91-3.95,0-5.33,1.34-5.33,3.36s1.01,2.86,3.91,3.4l4.03.76c4.12.76,6.09,1.93,6.09,5.59,0,4.58-4.12,6.55-8.78,6.55-7.31,0-8.99-3.28-8.99-6.97Z"/><path class="cls-15" d="m1408.68,1602.18h2.94v32.77h-2.94v-32.77Z"/><path class="cls-15" d="m1417.71,1629.14c0-3.95,2.23-6.09,7.86-6.09h6.34v-1.72c0-2.98-1.26-5.42-5.46-5.42-3.95,0-5.33,1.51-5.33,4.12v.88h-2.98v-.84c0-5,4.2-6.68,8.32-6.68,5.8,0,8.4,2.86,8.4,8.44v13.11h-2.06l-.55-2.98h-.08c-1.26,1.89-3.7,3.53-7.35,3.53-4.91,0-7.1-2.31-7.1-6.34Zm14.2-1.85v-1.76h-7.02c-2.65,0-4.03.92-4.03,3.61,0,2.35,1.26,3.86,4.5,3.86,4.16,0,6.55-2.14,6.55-5.71Z"/><path class="cls-15" d="m1442.2,1613.94h2.6l.29,3.49c1.01-2.14,3.28-4.03,7.35-4.03,4.75,0,7.77,2.52,7.77,7.94v13.61h-2.94v-13.27c0-4.33-2.14-5.71-5.5-5.71-3.82,0-6.64,2.69-6.64,5.63v13.36h-2.94v-21Z"/><path class="cls-15" d="m1478.53,1632.25v2.6c-.76.21-2.14.59-4.03.59-3.82,0-6.34-1.6-6.34-6.89v-12.18h-4.16v-2.44h4.16v-6.05l2.94-1.43v7.48h5.92v2.44h-5.92v11.8c0,2.81.76,4.58,3.4,4.58,1.6,0,3.23-.29,4.03-.5Z"/><polygon class="cls-17" points="1339.69 1573.03 1390.74 1573.03 1640.88 1063.17 1589.83 1063.17 1339.69 1573.03"/><path class="cls-15" d="m146.11,808.63h-3.36v-5.08c0-3.95.88-5.29,3.4-5.97l.67,1.85c-1.76.67-2.06,1.09-2.06,3.78v.34h1.34v5.08Zm5.92,0h-3.36v-5.08c0-3.95.88-5.29,3.4-5.97l.67,1.85c-1.76.67-2.06,1.09-2.06,3.78v.34h1.34v5.08Z"/><path class="cls-15" d="m170.51,831.4c-7.73-.59-13.36-5.54-13.36-16.84s6.76-16.93,15.46-16.93c7.94,0,14.7,5.21,14.7,16.59s-6.13,16.76-13.86,17.22l-.38,7.31h-2.18l-.38-7.35Zm13.7-16.84c0-10.12-5.34-14.24-12.01-14.24s-11.93,4.12-11.93,14.24,5.34,14.2,12.01,14.2,11.93-3.74,11.93-14.2Z"/><path class="cls-15" d="m191.72,807.37c1.76-.67,2.06-1.09,2.06-3.78v-.34h-1.34v-5.08h3.36v5.08c0,3.95-.88,5.29-3.4,5.97l-.67-1.85Zm5.92,0c1.76-.67,2.06-1.09,2.06-3.78v-.34h-1.34v-5.08h3.36v5.08c0,3.95-.88,5.29-3.4,5.97l-.67-1.85Z"/><path class="cls-15" d="m217.26,809.93h2.61l.29,3.91c1.01-2.14,3.07-4.45,6.76-4.45,1.26,0,2.18.21,3.02.55v3.15c-1.13-.5-2.1-.76-3.4-.76-3.74,0-6.34,2.81-6.34,5.75v12.85h-2.94v-21Z"/><path class="cls-15" d="m251.2,821.44h-15.96c.17,4.79,2.48,7.48,6.93,7.48,3.82,0,5.67-1.43,5.96-4.83h2.98c-.29,4.24-3.28,7.39-9.03,7.39-7.06,0-9.83-4.66-9.83-10.88s3.23-11.22,10-11.22,8.95,3.99,8.95,10.21v1.85Zm-3.11-2.98c0-4.45-1.72-6.55-5.92-6.55s-6.55,2.65-6.89,6.97h12.81v-.42Z"/><path class="cls-15" d="m255.18,824.51v-1.18h2.94v1.13c0,2.86,2.14,4.5,5.96,4.5s5.8-1.01,5.8-3.78c0-2.06-1.01-2.81-3.87-3.32l-4.62-.84c-3.02-.55-5.54-2.02-5.54-5.5,0-3.15,2.35-6.13,8.4-6.13s8.4,3.02,8.4,7.23v.88h-2.98v-.76c0-3.44-2.14-4.91-5.42-4.91-3.95,0-5.34,1.34-5.34,3.36s1.01,2.86,3.91,3.4l4.03.76c4.12.76,6.09,1.93,6.09,5.59,0,4.58-4.12,6.55-8.78,6.55-7.31,0-8.99-3.28-8.99-6.97Z"/><path class="cls-15" d="m296.1,821.44h-15.96c.17,4.79,2.48,7.48,6.93,7.48,3.82,0,5.67-1.43,5.96-4.83h2.98c-.29,4.24-3.28,7.39-9.03,7.39-7.06,0-9.83-4.66-9.83-10.88s3.23-11.22,10-11.22,8.95,3.99,8.95,10.21v1.85Zm-3.11-2.98c0-4.45-1.72-6.55-5.92-6.55s-6.55,2.65-6.89,6.97h12.81v-.42Z"/><path class="cls-15" d="m332.68,817.32v13.61h-2.94v-13.27c0-4.33-2.14-5.71-4.75-5.71-3.82,0-6.18,2.69-6.18,5.63v13.36h-2.94v-13.27c0-4.33-1.85-5.71-4.83-5.71-3.61,0-6.13,2.69-6.13,5.63v13.36h-2.94v-21h2.6l.29,3.49c1.01-2.02,3.07-4.03,6.93-4.03,2.94,0,5.38,1.39,6.43,4.28,1.22-2.39,3.57-4.28,7.14-4.28,4.28,0,7.31,2.52,7.31,7.94Z"/><path class="cls-15" d="m342.84,827.45h-.08l-.76,3.49h-1.97v-32.77h2.94v15.25h.04c1.26-2.31,4.08-4.03,7.69-4.03,6.3,0,9.66,3.99,9.66,11.01s-4.28,11.09-9.87,11.09c-3.78,0-6.55-1.64-7.65-4.03Zm14.37-6.89c0-7.18-3.4-8.61-6.93-8.61-4.24,0-7.56,2.73-7.56,8.44,0,6.01,3.44,8.57,7.44,8.57,3.02,0,7.06-1.47,7.06-8.4Z"/><path class="cls-15" d="m365.6,798.17h2.94v32.77h-2.94v-32.77Z"/><path class="cls-15" d="m393.16,821.44h-15.96c.17,4.79,2.48,7.48,6.93,7.48,3.82,0,5.67-1.43,5.96-4.83h2.98c-.29,4.24-3.28,7.39-9.03,7.39-7.06,0-9.83-4.66-9.83-10.88s3.23-11.22,10-11.22,8.95,3.99,8.95,10.21v1.85Zm-3.11-2.98c0-4.45-1.72-6.55-5.92-6.55s-6.55,2.65-6.89,6.97h12.81v-.42Z"/><path class="cls-15" d="m397.14,824.51v-1.18h2.94v1.13c0,2.86,2.14,4.5,5.96,4.5s5.8-1.01,5.8-3.78c0-2.06-1.01-2.81-3.86-3.32l-4.62-.84c-3.03-.55-5.54-2.02-5.54-5.5,0-3.15,2.35-6.13,8.4-6.13s8.4,3.02,8.4,7.23v.88h-2.98v-.76c0-3.44-2.14-4.91-5.42-4.91-3.95,0-5.33,1.34-5.33,3.36s1.01,2.86,3.91,3.4l4.03.76c4.12.76,6.09,1.93,6.09,5.59,0,4.58-4.12,6.55-8.78,6.55-7.31,0-8.99-3.28-8.99-6.97Z"/><path class="cls-15" d="m441.41,828.25v2.6c-.76.21-2.14.59-4.03.59-3.82,0-6.34-1.6-6.34-6.89v-12.18h-4.16v-2.44h4.16v-6.05l2.94-1.43v7.48h5.92v2.44h-5.92v11.8c0,2.81.76,4.58,3.4,4.58,1.6,0,3.23-.29,4.03-.5Z"/><path class="cls-15" d="m446.24,798.17h2.94v15.16c1.05-2.1,3.28-3.95,7.31-3.95,4.75,0,7.77,2.52,7.77,7.94v13.61h-2.94v-13.27c0-4.33-2.14-5.71-5.5-5.71-3.82,0-6.64,2.69-6.64,5.63v13.36h-2.94v-32.77Z"/><path class="cls-15" d="m488.87,821.44h-15.96c.17,4.79,2.48,7.48,6.93,7.48,3.82,0,5.67-1.43,5.96-4.83h2.98c-.29,4.24-3.28,7.39-9.03,7.39-7.06,0-9.83-4.66-9.83-10.88s3.23-11.22,10-11.22,8.95,3.99,8.95,10.21v1.85Zm-3.11-2.98c0-4.45-1.72-6.55-5.92-6.55s-6.55,2.65-6.89,6.97h12.81v-.42Z"/><path class="cls-15" d="m504.41,809.93h2.6l.29,3.49c1.01-2.14,3.28-4.03,7.35-4.03,4.75,0,7.77,2.52,7.77,7.94v13.61h-2.94v-13.27c0-4.33-2.14-5.71-5.5-5.71-3.82,0-6.64,2.69-6.64,5.63v13.36h-2.94v-21Z"/><path class="cls-15" d="m529.15,823.54v-13.61h2.94v13.27c0,4.33,2.14,5.71,5.42,5.71,3.74,0,6.55-2.69,6.55-5.63v-13.36h2.94v21h-2.61l-.25-3.36h-.08c-.97,2.02-3.23,3.91-7.22,3.91-4.66,0-7.69-2.52-7.69-7.94Z"/><path class="cls-15" d="m585.06,817.32v13.61h-2.94v-13.27c0-4.33-2.14-5.71-4.75-5.71-3.82,0-6.17,2.69-6.17,5.63v13.36h-2.94v-13.27c0-4.33-1.85-5.71-4.83-5.71-3.61,0-6.13,2.69-6.13,5.63v13.36h-2.94v-21h2.61l.29,3.49c1.01-2.02,3.07-4.03,6.93-4.03,2.94,0,5.38,1.39,6.43,4.28,1.22-2.39,3.57-4.28,7.14-4.28,4.29,0,7.31,2.52,7.31,7.94Z"/><path class="cls-15" d="m609.67,821.44h-15.96c.17,4.79,2.48,7.48,6.93,7.48,3.82,0,5.67-1.43,5.96-4.83h2.98c-.29,4.24-3.28,7.39-9.03,7.39-7.06,0-9.83-4.66-9.83-10.88s3.23-11.22,10-11.22,8.95,3.99,8.95,10.21v1.85Zm-3.11-2.98c0-4.45-1.72-6.55-5.92-6.55s-6.55,2.65-6.89,6.97h12.81v-.42Z"/><path class="cls-15" d="m615.54,809.93h2.6l.29,3.91c1.01-2.14,3.07-4.45,6.76-4.45,1.26,0,2.19.21,3.03.55v3.15c-1.13-.5-2.1-.76-3.4-.76-3.74,0-6.34,2.81-6.34,5.75v12.85h-2.94v-21Z"/><path class="cls-15" d="m631.17,825.14c0-3.95,2.23-6.09,7.86-6.09h6.34v-1.72c0-2.98-1.26-5.42-5.46-5.42-3.95,0-5.33,1.51-5.33,4.12v.88h-2.98v-.84c0-5,4.2-6.68,8.32-6.68,5.8,0,8.4,2.86,8.4,8.44v13.11h-2.06l-.54-2.98h-.08c-1.26,1.89-3.7,3.53-7.35,3.53-4.92,0-7.1-2.31-7.1-6.34Zm14.2-1.85v-1.76h-7.01c-2.65,0-4.03.92-4.03,3.61,0,2.35,1.26,3.86,4.5,3.86,4.16,0,6.55-2.14,6.55-5.71Z"/><path class="cls-15" d="m655.65,798.17h2.94v32.77h-2.94v-32.77Z"/><path class="cls-15" d="m677.28,808.63h-3.36v-5.08c0-3.95.88-5.29,3.4-5.97l.67,1.85c-1.76.67-2.06,1.09-2.06,3.78v.34h1.34v5.08Zm5.92,0h-3.36v-5.08c0-3.95.88-5.29,3.4-5.97l.67,1.85c-1.76.67-2.06,1.09-2.06,3.78v.34h1.34v5.08Z"/><path class="cls-15" d="m706.94,828.2v2.73h-19.07v-2.35l8.74-10.29c4.92-5.8,6.76-8.02,6.76-12.48,0-4.07-2.77-5.5-6.64-5.5-4.08,0-6.09,2.14-6.09,5.97v1.26h-2.94v-1.26c0-6.26,4.62-8.65,9.37-8.65,5.42,0,9.37,2.35,9.37,7.98,0,5.12-2.81,8.86-7.31,14.03l-7.39,8.57h15.21Z"/><path class="cls-15" d="m710.51,807.37c1.76-.67,2.06-1.09,2.06-3.78v-.34h-1.34v-5.08h3.36v5.08c0,3.95-.88,5.29-3.4,5.97l-.67-1.85Zm5.92,0c1.76-.67,2.06-1.09,2.06-3.78v-.34h-1.34v-5.08h3.36v5.08c0,3.95-.88,5.29-3.4,5.97l-.67-1.85Z"/><line class="cls-5" x1="726.69" y1="2026.91" x2="726.69" y2="2026.03"/><line class="cls-11" x1="726.69" y1="2009.19" x2="726.69" y2="1869.42"/><polyline class="cls-5" points="726.69 1861 726.69 1860.13 727.56 1860.13"/><line class="cls-3" x1="745.19" y1="1860.22" x2="1124.38" y2="1862.26"/><polyline class="cls-5" points="1133.2 1862.31 1134.07 1862.31 1134.07 1863.18"/><line class="cls-9" x1="1134.07" y1="1881.1" x2="1134.07" y2="2029.8"/><line class="cls-5" x1="1134.07" y1="2038.76" x2="1134.07" y2="2039.63"/><line class="cls-5" x1="469.06" y1="2765.35" x2="469.06" y2="2764.48"/><line class="cls-6" x1="469.06" y1="2747.4" x2="469.06" y2="2699.56"/><line class="cls-5" x1="469.06" y1="2691.02" x2="469.06" y2="2690.15"/><line class="cls-5" x1="1448.85" y1="3362.57" x2="1448.85" y2="3361.7"/><line class="cls-12" x1="1448.85" y1="3343.86" x2="1448.85" y2="3156.56"/><line class="cls-5" x1="1448.85" y1="3147.64" x2="1448.85" y2="3146.77"/><path class="cls-15" d="m245.77,2628.38h8.61c7.94,0,11.64,2.73,11.64,9.62,0,6.43-2.77,10.12-11.13,10.12h-6.13v13.02h-2.98v-32.77Zm9.28,17.22c6.09,0,7.94-2.69,7.94-7.65,0-5.21-2.6-6.97-8.44-6.97h-5.8v14.62h6.3Z"/><path class="cls-15" d="m269.16,2655.35c0-3.95,2.23-6.09,7.86-6.09h6.34v-1.72c0-2.98-1.26-5.42-5.46-5.42-3.95,0-5.33,1.51-5.33,4.12v.88h-2.98v-.84c0-5,4.2-6.68,8.32-6.68,5.8,0,8.4,2.86,8.4,8.44v13.11h-2.06l-.55-2.98h-.08c-1.26,1.89-3.7,3.53-7.35,3.53-4.92,0-7.1-2.31-7.1-6.34Zm14.2-1.85v-1.76h-7.01c-2.65,0-4.03.92-4.03,3.61,0,2.35,1.26,3.86,4.5,3.86,4.16,0,6.55-2.14,6.55-5.71Z"/><path class="cls-15" d="m293.65,2628.38h2.94v32.77h-2.94v-32.77Z"/><path class="cls-15" d="m334.64,2647.54v13.61h-2.94v-13.28c0-4.33-2.14-5.71-4.75-5.71-3.82,0-6.17,2.69-6.17,5.63v13.36h-2.94v-13.28c0-4.33-1.85-5.71-4.83-5.71-3.61,0-6.13,2.69-6.13,5.63v13.36h-2.94v-21h2.6l.29,3.49c1.01-2.02,3.07-4.03,6.93-4.03,2.94,0,5.38,1.39,6.43,4.29,1.22-2.39,3.57-4.29,7.14-4.29,4.29,0,7.31,2.52,7.31,7.94Z"/><path class="cls-15" d="m359.25,2651.65h-15.96c.17,4.79,2.48,7.48,6.93,7.48,3.82,0,5.67-1.43,5.97-4.83h2.98c-.29,4.24-3.28,7.39-9.03,7.39-7.06,0-9.83-4.66-9.83-10.88s3.23-11.22,10-11.22,8.95,3.99,8.95,10.21v1.85Zm-3.11-2.98c0-4.45-1.72-6.55-5.92-6.55s-6.55,2.65-6.89,6.97h12.81v-.42Z"/><path class="cls-15" d="m365.13,2640.14h2.6l.29,3.91c1.01-2.14,3.07-4.45,6.76-4.45,1.26,0,2.18.21,3.02.55v3.15c-1.13-.5-2.1-.76-3.4-.76-3.74,0-6.34,2.81-6.34,5.75v12.86h-2.94v-21Z"/><path class="cls-15" d="m379.92,2647.66h10.59v2.81h-10.59v-2.81Z"/><path class="cls-15" d="m394.49,2654.72v-1.18h2.94v1.13c0,2.86,2.14,4.5,5.96,4.5s5.8-1.01,5.8-3.78c0-2.06-1.01-2.81-3.86-3.32l-4.62-.84c-3.02-.55-5.54-2.02-5.54-5.5,0-3.15,2.35-6.13,8.4-6.13s8.4,3.03,8.4,7.23v.88h-2.98v-.76c0-3.44-2.14-4.91-5.42-4.91-3.95,0-5.33,1.34-5.33,3.36s1.01,2.86,3.91,3.4l4.03.76c4.12.76,6.09,1.93,6.09,5.59,0,4.58-4.12,6.55-8.78,6.55-7.31,0-8.99-3.28-8.99-6.97Z"/><path class="cls-15" d="m429.1,2658.46v2.61c-.76.21-2.14.59-4.03.59-3.82,0-6.34-1.6-6.34-6.89v-12.18h-4.16v-2.44h4.16v-6.05l2.94-1.43v7.48h5.92v2.44h-5.92v11.8c0,2.81.76,4.58,3.4,4.58,1.6,0,3.23-.29,4.03-.5Z"/><path class="cls-15" d="m434.14,2640.14l6.89,17.98h.08l7.14-17.98h3.07v.04l-8.86,20.84-3.11,8.53h-2.98v-.04l3.19-8.36-8.78-20.96v-.04h3.36Z"/><path class="cls-15" d="m455.51,2628.38h2.94v32.77h-2.94v-32.77Z"/><path class="cls-15" d="m483.07,2651.65h-15.96c.17,4.79,2.48,7.48,6.93,7.48,3.82,0,5.67-1.43,5.97-4.83h2.98c-.29,4.24-3.28,7.39-9.03,7.39-7.06,0-9.83-4.66-9.83-10.88s3.23-11.22,10-11.22,8.95,3.99,8.95,10.21v1.85Zm-3.11-2.98c0-4.45-1.72-6.55-5.92-6.55s-6.55,2.65-6.89,6.97h12.81v-.42Z"/><path class="cls-15" d="m500.29,2638.84h-3.36v-5.08c0-3.95.88-5.29,3.4-5.97l.67,1.85c-1.76.67-2.06,1.09-2.06,3.78v.34h1.34v5.08Zm5.92,0h-3.36v-5.08c0-3.95.88-5.29,3.4-5.97l.67,1.85c-1.76.67-2.06,1.09-2.06,3.78v.34h1.34v5.08Z"/><path class="cls-15" d="m511.33,2644.93c0-11.85,6.51-17.1,14.49-17.1,7.56,0,12.64,3.78,12.64,11.47v.5h-2.86v-.63c0-5.33-3.49-8.7-9.7-8.7-6.72,0-11.47,4.58-11.47,14.28s4.75,14.28,11.76,14.28c5.63,0,9.45-2.52,9.45-8.78v-2.73h-9.83v-2.6h12.64v16.21h-2.1l-.67-3.74c-1.6,2.48-5.17,4.28-9.75,4.28-8.32,0-14.62-4.87-14.62-16.76Z"/><path class="cls-15" d="m543.29,2637.58c1.76-.67,2.06-1.09,2.06-3.78v-.34h-1.34v-5.08h3.36v5.08c0,3.95-.88,5.29-3.4,5.96l-.67-1.85Zm5.92,0c1.76-.67,2.06-1.09,2.06-3.78v-.34h-1.34v-5.08h3.36v5.08c0,3.95-.88,5.29-3.4,5.96l-.67-1.85Z"/><path class="cls-15" d="m567.57,2655.35c0-3.95,2.23-6.09,7.86-6.09h6.34v-1.72c0-2.98-1.26-5.42-5.46-5.42-3.95,0-5.33,1.51-5.33,4.12v.88h-2.98v-.84c0-5,4.2-6.68,8.32-6.68,5.8,0,8.4,2.86,8.4,8.44v13.11h-2.06l-.55-2.98h-.08c-1.26,1.89-3.7,3.53-7.35,3.53-4.92,0-7.1-2.31-7.1-6.34Zm14.2-1.85v-1.76h-7.01c-2.65,0-4.03.92-4.03,3.61,0,2.35,1.26,3.86,4.5,3.86,4.16,0,6.55-2.14,6.55-5.71Z"/><path class="cls-15" d="m592.05,2640.14h2.6l.29,3.49c1.01-2.14,3.28-4.03,7.35-4.03,4.75,0,7.77,2.52,7.77,7.94v13.61h-2.94v-13.28c0-4.33-2.14-5.71-5.5-5.71-3.82,0-6.64,2.69-6.64,5.63v13.36h-2.94v-21Z"/><path class="cls-15" d="m615.74,2650.69c0-7.1,4.28-11.09,10.04-11.09,3.7,0,6.22,1.6,7.31,3.74h.04v-14.95h2.94v32.77h-1.97l-.67-3.61h-.08c-1.18,2.31-3.95,4.16-7.77,4.16-6.3,0-9.83-3.99-9.83-11.01Zm17.64-.5c0-5.5-3.36-8.06-7.35-8.06-3.11,0-7.14,1.47-7.14,8.4s3.61,8.61,7.14,8.61c4.24,0,7.35-2.73,7.35-8.95Z"/><path class="cls-15" d="m654.76,2638.84h-3.36v-5.08c0-3.95.88-5.29,3.4-5.97l.67,1.85c-1.76.67-2.06,1.09-2.06,3.78v.34h1.34v5.08Zm5.92,0h-3.36v-5.08c0-3.95.88-5.29,3.4-5.97l.67,1.85c-1.76.67-2.06,1.09-2.06,3.78v.34h1.34v5.08Z"/><path class="cls-15" d="m668.11,2628.38h18.86v2.6h-15.92v12.94h12.31v2.6h-12.31v14.62h-2.94v-32.77Z"/><path class="cls-15" d="m690.33,2637.58c1.76-.67,2.06-1.09,2.06-3.78v-.34h-1.34v-5.08h3.36v5.08c0,3.95-.88,5.29-3.4,5.96l-.67-1.85Zm5.92,0c1.76-.67,2.06-1.09,2.06-3.78v-.34h-1.34v-5.08h3.36v5.08c0,3.95-.88,5.29-3.4,5.96l-.67-1.85Z"/><path class="cls-15" d="m1264.63,814.89c0-12.01,6.76-17.27,14.74-17.27,6.97,0,12.39,3.74,12.39,12.01v.8h-2.86v-.92c0-5.92-3.78-9.24-9.45-9.24-6.72,0-11.76,4.58-11.76,14.32s5.04,14.24,11.72,14.24c5.38,0,9.54-2.86,9.54-9.2v-.59h2.77v.42c0,8.02-5.33,12.01-12.56,12.01-7.98,0-14.53-4.87-14.53-16.59Z"/><path class="cls-15" d="m1298.06,798.17h2.94v32.77h-2.94v-32.77Z"/><path class="cls-15" d="m1306.67,820.43c0-6.22,3.32-11.05,10.38-11.05,6.59,0,10.25,4.83,10.25,11.05s-3.7,11.05-10.29,11.05c-7.27,0-10.33-4.83-10.33-11.05Zm17.56,0c0-5.33-2.9-8.49-7.22-8.49-4.75,0-7.27,3.15-7.27,8.49s2.56,8.49,7.27,8.49c4.33,0,7.22-3.15,7.22-8.49Z"/><path class="cls-15" d="m1331.29,824.51v-1.18h2.94v1.13c0,2.86,2.14,4.5,5.96,4.5s5.8-1.01,5.8-3.78c0-2.06-1.01-2.81-3.86-3.32l-4.62-.84c-3.02-.55-5.54-2.02-5.54-5.5,0-3.15,2.35-6.13,8.4-6.13s8.4,3.02,8.4,7.23v.88h-2.98v-.76c0-3.44-2.14-4.91-5.42-4.91-3.95,0-5.33,1.34-5.33,3.36s1.01,2.86,3.91,3.4l4.03.76c4.12.76,6.09,1.93,6.09,5.59,0,4.58-4.12,6.55-8.78,6.55-7.31,0-8.99-3.28-8.99-6.97Z"/><path class="cls-15" d="m1372.2,821.44h-15.96c.17,4.79,2.48,7.48,6.93,7.48,3.82,0,5.67-1.43,5.97-4.83h2.98c-.29,4.24-3.28,7.39-9.03,7.39-7.06,0-9.83-4.66-9.83-10.88s3.23-11.22,10-11.22,8.95,3.99,8.95,10.21v1.85Zm-3.11-2.98c0-4.45-1.72-6.55-5.92-6.55s-6.55,2.65-6.89,6.97h12.81v-.42Z"/><path class="cls-15" d="m1376.39,820.47c0-7.1,4.28-11.09,10.04-11.09,3.7,0,6.22,1.6,7.31,3.74h.04v-14.95h2.94v32.77h-1.97l-.67-3.61h-.08c-1.18,2.31-3.95,4.16-7.77,4.16-6.3,0-9.83-3.99-9.83-11.01Zm17.64-.5c0-5.5-3.36-8.07-7.35-8.07-3.11,0-7.14,1.47-7.14,8.4s3.61,8.61,7.14,8.61c4.24,0,7.35-2.73,7.35-8.95Z"/><path class="cls-15" d="m1412.05,820.6c0-6.38,3.23-11.22,10-11.22s8.95,3.91,8.95,8.95v.42h-3.11v-.63c0-3.82-1.64-6.09-5.84-6.09-4.75,0-7.01,3.11-7.01,8.4,0,5.63,2.39,8.49,6.93,8.49,3.82,0,5.84-1.85,5.92-5.67h3.02c-.08,4.66-3.15,8.23-9.03,8.23-7.22,0-9.83-4.75-9.83-10.88Z"/><path class="cls-15" d="m1435.19,820.43c0-6.22,3.32-11.05,10.38-11.05,6.59,0,10.25,4.83,10.25,11.05s-3.7,11.05-10.29,11.05c-7.27,0-10.33-4.83-10.33-11.05Zm17.56,0c0-5.33-2.9-8.49-7.22-8.49-4.75,0-7.27,3.15-7.27,8.49s2.56,8.49,7.27,8.49c4.33,0,7.22-3.15,7.22-8.49Z"/><path class="cls-15" d="m1461.27,823.54v-13.61h2.94v13.27c0,4.33,2.14,5.71,5.42,5.71,3.74,0,6.55-2.69,6.55-5.63v-13.36h2.94v21h-2.6l-.25-3.36h-.08c-.97,2.02-3.23,3.91-7.23,3.91-4.66,0-7.69-2.52-7.69-7.94Z"/><path class="cls-15" d="m1486.47,809.93h2.6l.29,3.49c1.01-2.14,3.28-4.03,7.35-4.03,4.75,0,7.77,2.52,7.77,7.94v13.61h-2.94v-13.27c0-4.33-2.14-5.71-5.5-5.71-3.82,0-6.64,2.69-6.64,5.63v13.36h-2.94v-21Z"/><path class="cls-15" d="m1522.81,828.25v2.6c-.76.21-2.14.59-4.03.59-3.82,0-6.34-1.6-6.34-6.89v-12.18h-4.16v-2.44h4.16v-6.05l2.94-1.43v7.48h5.92v2.44h-5.92v11.8c0,2.81.76,4.58,3.4,4.58,1.6,0,3.23-.29,4.03-.5Z"/><path class="cls-15" d="m1544.27,821.44h-15.96c.17,4.79,2.48,7.48,6.93,7.48,3.82,0,5.67-1.43,5.97-4.83h2.98c-.29,4.24-3.28,7.39-9.03,7.39-7.06,0-9.83-4.66-9.83-10.88s3.23-11.22,10-11.22,8.95,3.99,8.95,10.21v1.85Zm-3.11-2.98c0-4.45-1.72-6.55-5.92-6.55s-6.55,2.65-6.89,6.97h12.81v-.42Z"/><path class="cls-15" d="m1550.15,809.93h2.6l.29,3.91c1.01-2.14,3.07-4.45,6.76-4.45,1.26,0,2.18.21,3.02.55v3.15c-1.13-.5-2.1-.76-3.4-.76-3.74,0-6.34,2.81-6.34,5.75v12.85h-2.94v-21Z"/><path class="cls-15" d="m1565.35,824.51v-1.18h2.94v1.13c0,2.86,2.14,4.5,5.96,4.5s5.8-1.01,5.8-3.78c0-2.06-1.01-2.81-3.86-3.32l-4.62-.84c-3.02-.55-5.54-2.02-5.54-5.5,0-3.15,2.35-6.13,8.4-6.13s8.4,3.02,8.4,7.23v.88h-2.98v-.76c0-3.44-2.14-4.91-5.42-4.91-3.95,0-5.33,1.34-5.33,3.36s1.01,2.86,3.91,3.4l4.03.76c4.12.76,6.09,1.93,6.09,5.59,0,4.58-4.12,6.55-8.78,6.55-7.31,0-8.99-3.28-8.99-6.97Z"/><path class="cls-15" d="m1598.66,798.17h2.98v6.51h-2.98v-6.51Zm0,11.76h2.94v21h-2.94v-21Z"/><path class="cls-15" d="m1608.99,809.93h2.6l.29,3.49c1.01-2.14,3.28-4.03,7.35-4.03,4.75,0,7.77,2.52,7.77,7.94v13.61h-2.94v-13.27c0-4.33-2.14-5.71-5.5-5.71-3.82,0-6.64,2.69-6.64,5.63v13.36h-2.94v-21Z"/><path class="cls-15" d="m1645.7,808.63h-3.36v-5.08c0-3.95.88-5.29,3.4-5.97l.67,1.85c-1.76.67-2.06,1.09-2.06,3.78v.34h1.34v5.08Zm5.92,0h-3.36v-5.08c0-3.95.88-5.29,3.4-5.97l.67,1.85c-1.76.67-2.06,1.09-2.06,3.78v.34h1.34v5.08Z"/><path class="cls-15" d="m1653.59,824.51v-1.18h2.94v1.13c0,2.86,2.14,4.5,5.96,4.5s5.8-1.01,5.8-3.78c0-2.06-1.01-2.81-3.86-3.32l-4.62-.84c-3.02-.55-5.54-2.02-5.54-5.5,0-3.15,2.35-6.13,8.4-6.13s8.4,3.02,8.4,7.23v.88h-2.98v-.76c0-3.44-2.14-4.91-5.42-4.91-3.95,0-5.33,1.34-5.33,3.36s1.01,2.86,3.91,3.4l4.03.76c4.12.76,6.09,1.93,6.09,5.59,0,4.58-4.12,6.55-8.78,6.55-7.31,0-8.99-3.28-8.99-6.97Z"/><path class="cls-15" d="m1673.67,807.37c1.76-.67,2.06-1.09,2.06-3.78v-.34h-1.34v-5.08h3.36v5.08c0,3.95-.88,5.29-3.4,5.97l-.67-1.85Zm5.92,0c1.76-.67,2.06-1.09,2.06-3.78v-.34h-1.34v-5.08h3.36v5.08c0,3.95-.88,5.29-3.4,5.97l-.67-1.85Z"/><path class="cls-15" d="m1697.95,825.14c0-3.95,2.23-6.09,7.86-6.09h6.34v-1.72c0-2.98-1.26-5.42-5.46-5.42-3.95,0-5.33,1.51-5.33,4.12v.88h-2.98v-.84c0-5,4.2-6.68,8.32-6.68,5.8,0,8.4,2.86,8.4,8.44v13.11h-2.06l-.55-2.98h-.08c-1.26,1.89-3.7,3.53-7.35,3.53-4.92,0-7.1-2.31-7.1-6.34Zm14.2-1.85v-1.76h-7.01c-2.65,0-4.03.92-4.03,3.61,0,2.35,1.26,3.86,4.5,3.86,4.16,0,6.55-2.14,6.55-5.71Z"/><path class="cls-15" d="m1722.43,809.93h2.6l.29,3.49c1.01-2.14,3.28-4.03,7.35-4.03,4.75,0,7.77,2.52,7.77,7.94v13.61h-2.94v-13.27c0-4.33-2.14-5.71-5.5-5.71-3.82,0-6.64,2.69-6.64,5.63v13.36h-2.94v-21Z"/><path class="cls-15" d="m1746.12,820.47c0-7.1,4.28-11.09,10.04-11.09,3.7,0,6.22,1.6,7.31,3.74h.04v-14.95h2.94v32.77h-1.97l-.67-3.61h-.08c-1.18,2.31-3.95,4.16-7.77,4.16-6.3,0-9.83-3.99-9.83-11.01Zm17.64-.5c0-5.5-3.36-8.07-7.35-8.07-3.11,0-7.14,1.47-7.14,8.4s3.61,8.61,7.14,8.61c4.24,0,7.35-2.73,7.35-8.95Z"/><path class="cls-15" d="m1785.14,808.63h-3.36v-5.08c0-3.95.88-5.29,3.4-5.97l.67,1.85c-1.76.67-2.06,1.09-2.06,3.78v.34h1.34v5.08Zm5.92,0h-3.36v-5.08c0-3.95.88-5.29,3.4-5.97l.67,1.85c-1.76.67-2.06,1.09-2.06,3.78v.34h1.34v5.08Z"/><path class="cls-15" d="m1796.6,822.49v-2.02h3.02v2.18c0,3.74,2.6,6.05,7.94,6.05s8.44-1.97,8.44-6.22c0-3.32-1.39-5.17-4.92-6.09l-6.64-1.72c-4.33-1.13-7.18-2.98-7.18-8.15s3.78-8.91,10.92-8.91,10.59,3.44,10.59,9.07v2.94h-3.02v-2.81c0-4.62-3.07-6.51-7.56-6.51-5.12,0-7.81,2.14-7.81,6.01,0,3.61,1.76,4.7,5.54,5.71l5.75,1.55c5.12,1.39,7.43,3.74,7.43,8.65,0,6.09-4.33,9.24-11.47,9.24-9.12,0-11.05-4.7-11.05-8.99Z"/><path class="cls-15" d="m1822.94,807.37c1.76-.67,2.06-1.09,2.06-3.78v-.34h-1.34v-5.08h3.36v5.08c0,3.95-.88,5.29-3.4,5.97l-.67-1.85Zm5.92,0c1.76-.67,2.06-1.09,2.06-3.78v-.34h-1.34v-5.08h3.36v5.08c0,3.95-.88,5.29-3.4,5.97l-.67-1.85Z"/><path class="cls-17" d="m1612.74,397.5l-85.46,92.11s8.65,41.57,42.73,43.23c34.09,1.66,59.69-16.96,59.69-16.96l-16.96-118.38Z"/><path class="cls-15" d="m829.5,924.47h2.94v18.65l17.05-18.65h3.61v.04l-12.31,13.53,13.36,19.16v.04h-3.65l-11.68-17.06-6.38,7.02v10.04h-2.94v-32.77Z"/><path class="cls-15" d="m858.36,936.23h2.6l.29,3.49c1.01-2.14,3.28-4.03,7.35-4.03,4.75,0,7.77,2.52,7.77,7.94v13.61h-2.94v-13.27c0-4.33-2.14-5.71-5.5-5.71-3.82,0-6.64,2.69-6.64,5.63v13.36h-2.94v-21Z"/><path class="cls-15" d="m882.04,946.73c0-6.22,3.32-11.05,10.38-11.05,6.59,0,10.25,4.83,10.25,11.05s-3.7,11.05-10.29,11.05c-7.27,0-10.33-4.83-10.33-11.05Zm17.56,0c0-5.33-2.9-8.49-7.22-8.49-4.75,0-7.27,3.15-7.27,8.49s2.56,8.49,7.27,8.49c4.33,0,7.22-3.15,7.22-8.49Z"/><path class="cls-15" d="m919.51,954.54v2.6c-.76.21-2.14.59-4.03.59-3.82,0-6.34-1.6-6.34-6.89v-12.18h-4.16v-2.44h4.16v-6.05l2.94-1.43v7.48h5.92v2.44h-5.92v11.8c0,2.81.76,4.58,3.4,4.58,1.6,0,3.23-.29,4.03-.5Z"/><path class="cls-15" d="m922.45,950.8v-1.18h2.94v1.13c0,2.86,2.14,4.5,5.96,4.5s5.8-1.01,5.8-3.78c0-2.06-1.01-2.81-3.86-3.32l-4.62-.84c-3.02-.55-5.54-2.02-5.54-5.5,0-3.15,2.35-6.13,8.4-6.13s8.4,3.02,8.4,7.22v.88h-2.98v-.76c0-3.44-2.14-4.91-5.42-4.91-3.95,0-5.33,1.34-5.33,3.36s1.01,2.86,3.91,3.4l4.03.76c4.12.76,6.09,1.93,6.09,5.59,0,4.58-4.12,6.55-8.78,6.55-7.31,0-8.99-3.28-8.99-6.97Z"/><path class="cls-15" d="m955.75,924.47h2.98v6.51h-2.98v-6.51Zm0,11.76h2.94v21h-2.94v-21Z"/><path class="cls-15" d="m966.09,936.23h2.6l.29,3.49c1.01-2.14,3.28-4.03,7.35-4.03,4.75,0,7.77,2.52,7.77,7.94v13.61h-2.94v-13.27c0-4.33-2.14-5.71-5.5-5.71-3.82,0-6.64,2.69-6.64,5.63v13.36h-2.94v-21Z"/><path class="cls-15" d="m1002.79,934.92h-3.36v-5.08c0-3.95.88-5.29,3.4-5.97l.67,1.85c-1.76.67-2.06,1.09-2.06,3.78v.34h1.34v5.08Zm5.92,0h-3.36v-5.08c0-3.95.88-5.29,3.4-5.97l.67,1.85c-1.76.67-2.06,1.09-2.06,3.78v.34h1.34v5.08Z"/><path class="cls-15" d="m1017.91,953.74h-.08l-.76,3.49h-1.97v-32.77h2.94v15.25h.04c1.26-2.31,4.07-4.03,7.69-4.03,6.3,0,9.66,3.99,9.66,11.01s-4.29,11.09-9.87,11.09c-3.78,0-6.55-1.64-7.65-4.03Zm14.37-6.89c0-7.18-3.4-8.61-6.93-8.61-4.24,0-7.56,2.73-7.56,8.44,0,6.01,3.45,8.57,7.44,8.57,3.02,0,7.06-1.47,7.06-8.4Z"/><path class="cls-15" d="m1036.69,933.67c1.76-.67,2.06-1.09,2.06-3.78v-.34h-1.34v-5.08h3.36v5.08c0,3.95-.88,5.29-3.4,5.97l-.67-1.85Zm5.92,0c1.76-.67,2.06-1.09,2.06-3.78v-.34h-1.34v-5.08h3.36v5.08c0,3.95-.88,5.29-3.4,5.97l-.67-1.85Z"/><path class="cls-15" d="m1049.62,951.01h3.36v6.22c0,3.95-.88,5.29-3.4,5.96l-.67-1.85c1.76-.67,2.06-1.09,2.06-3.78v-.34h-1.34v-6.22Z"/><path class="cls-15" d="m1070.62,934.92h-3.36v-5.08c0-3.95.88-5.29,3.4-5.97l.67,1.85c-1.76.67-2.06,1.09-2.06,3.78v.34h1.34v5.08Zm5.92,0h-3.36v-5.08c0-3.95.88-5.29,3.4-5.97l.67,1.85c-1.76.67-2.06,1.09-2.06,3.78v.34h1.34v5.08Z"/><path class="cls-15" d="m1086.67,931.19v5.04h5.92v2.44h-5.92v18.57h-2.94v-18.57h-4.16v-2.44h4.16v-5.42c0-5.29,3.15-6.89,6.38-6.89,1.85,0,2.98.29,3.74.55v2.6c-.71-.21-1.89-.46-3.49-.46-2.65,0-3.7,1.76-3.7,4.58Z"/><path class="cls-15" d="m1097.21,933.67c1.76-.67,2.06-1.09,2.06-3.78v-.34h-1.34v-5.08h3.36v5.08c0,3.95-.88,5.29-3.4,5.97l-.67-1.85Zm5.92,0c1.76-.67,2.06-1.09,2.06-3.78v-.34h-1.34v-5.08h3.36v5.08c0,3.95-.88,5.29-3.4,5.97l-.67-1.85Z"/><path class="cls-15" d="m1110.15,951.01h3.36v6.22c0,3.95-.88,5.29-3.4,5.96l-.67-1.85c1.76-.67,2.06-1.09,2.06-3.78v-.34h-1.34v-6.22Z"/><path class="cls-15" d="m1131.15,934.92h-3.36v-5.08c0-3.95.88-5.29,3.4-5.97l.67,1.85c-1.76.67-2.06,1.09-2.06,3.78v.34h1.34v5.08Zm5.92,0h-3.36v-5.08c0-3.95.88-5.29,3.4-5.97l.67,1.85c-1.76.67-2.06,1.09-2.06,3.78v.34h1.34v5.08Z"/><path class="cls-15" d="m1140.3,936.27v-.04h3.36l7.35,17.98h.08l7.1-17.98h3.07v.04l-8.74,20.96h-3.02l-9.2-20.96Z"/><path class="cls-15" d="m1163.78,933.67c1.76-.67,2.06-1.09,2.06-3.78v-.34h-1.34v-5.08h3.36v5.08c0,3.95-.88,5.29-3.4,5.97l-.67-1.85Zm5.92,0c1.76-.67,2.06-1.09,2.06-3.78v-.34h-1.34v-5.08h3.36v5.08c0,3.95-.88,5.29-3.4,5.97l-.67-1.85Z"/><path class="cls-15" d="m1176.72,951.01h3.36v6.22c0,3.95-.88,5.29-3.4,5.96l-.67-1.85c1.76-.67,2.06-1.09,2.06-3.78v-.34h-1.34v-6.22Z"/><path class="cls-15" d="m1197.72,934.92h-3.36v-5.08c0-3.95.88-5.29,3.4-5.97l.67,1.85c-1.76.67-2.06,1.09-2.06,3.78v.34h1.34v5.08Zm5.92,0h-3.36v-5.08c0-3.95.88-5.29,3.4-5.97l.67,1.85c-1.76.67-2.06,1.09-2.06,3.78v.34h1.34v5.08Z"/><path class="cls-15" d="m1207.29,936.27v-.04h2.98l5.75,17.47h.08l6.3-17.47h2.69l6.17,17.47h.08l5.75-17.47h2.86v.04l-7.18,20.96h-3.02l-5.96-17.06h-.08l-6.22,17.06h-3.02l-7.18-20.96Z"/><path class="cls-15" d="m1242.91,933.67c1.76-.67,2.06-1.09,2.06-3.78v-.34h-1.34v-5.08h3.36v5.08c0,3.95-.88,5.29-3.4,5.97l-.67-1.85Zm5.92,0c1.76-.67,2.06-1.09,2.06-3.78v-.34h-1.34v-5.08h3.36v5.08c0,3.95-.88,5.29-3.4,5.97l-.67-1.85Z"/><path class="cls-15" d="m1267.18,951.43c0-3.95,2.23-6.09,7.86-6.09h6.34v-1.72c0-2.98-1.26-5.42-5.46-5.42-3.95,0-5.33,1.51-5.33,4.12v.88h-2.98v-.84c0-5,4.2-6.68,8.32-6.68,5.8,0,8.4,2.86,8.4,8.44v13.11h-2.06l-.55-2.98h-.08c-1.26,1.89-3.7,3.53-7.35,3.53-4.92,0-7.1-2.31-7.1-6.34Zm14.2-1.85v-1.76h-7.01c-2.65,0-4.03.92-4.03,3.61,0,2.35,1.26,3.86,4.5,3.86,4.16,0,6.55-2.14,6.55-5.71Z"/><path class="cls-15" d="m1291.67,936.23h2.6l.29,3.49c1.01-2.14,3.28-4.03,7.35-4.03,4.75,0,7.77,2.52,7.77,7.94v13.61h-2.94v-13.27c0-4.33-2.14-5.71-5.5-5.71-3.82,0-6.64,2.69-6.64,5.63v13.36h-2.94v-21Z"/><path class="cls-15" d="m1315.36,946.77c0-7.1,4.28-11.09,10.04-11.09,3.7,0,6.22,1.6,7.31,3.74h.04v-14.95h2.94v32.77h-1.97l-.67-3.61h-.08c-1.18,2.31-3.95,4.16-7.77,4.16-6.3,0-9.83-3.99-9.83-11.01Zm17.64-.5c0-5.5-3.36-8.07-7.35-8.07-3.11,0-7.14,1.47-7.14,8.4s3.61,8.61,7.14,8.61c4.24,0,7.35-2.73,7.35-8.95Z"/><path class="cls-15" d="m1354.38,934.92h-3.36v-5.08c0-3.95.88-5.29,3.4-5.97l.67,1.85c-1.76.67-2.06,1.09-2.06,3.78v.34h1.34v5.08Zm5.92,0h-3.36v-5.08c0-3.95.88-5.29,3.4-5.97l.67,1.85c-1.76.67-2.06,1.09-2.06,3.78v.34h1.34v5.08Z"/><path class="cls-15" d="m1363.32,946.73c0-6.22,3.32-11.05,10.38-11.05,6.59,0,10.25,4.83,10.25,11.05s-3.7,11.05-10.29,11.05c-7.27,0-10.33-4.83-10.33-11.05Zm17.56,0c0-5.33-2.9-8.49-7.22-8.49-4.75,0-7.27,3.15-7.27,8.49s2.56,8.49,7.27,8.49c4.33,0,7.22-3.15,7.22-8.49Z"/><path class="cls-15" d="m1385.2,933.67c1.76-.67,2.06-1.09,2.06-3.78v-.34h-1.34v-5.08h3.36v5.08c0,3.95-.88,5.29-3.4,5.97l-.67-1.85Zm5.92,0c1.76-.67,2.06-1.09,2.06-3.78v-.34h-1.34v-5.08h3.36v5.08c0,3.95-.88,5.29-3.4,5.97l-.67-1.85Z"/><circle class="cls-17" cx="1388.53" cy="3174.57" r="151.87"/><path class="cls-15" d="m1212.49,3397.81h3.23l11.51,20.92h.08l11.51-20.92h3.23v32.77h-2.94v-27.85h-.04l-10.75,19.91h-2.06l-10.8-19.91h-.04v27.85h-2.94v-32.77Z"/><path class="cls-15" d="m1250.67,3397.81h2.98v6.51h-2.98v-6.51Zm0,11.76h2.94v21h-2.94v-21Z"/><path class="cls-15" d="m1261,3409.57h2.6l.29,3.91c1.01-2.14,3.07-4.45,6.76-4.45,1.26,0,2.18.21,3.02.55v3.15c-1.13-.5-2.1-.76-3.4-.76-3.74,0-6.34,2.81-6.34,5.75v12.85h-2.94v-21Z"/><path class="cls-15" d="m1278.3,3409.57h2.6l.29,3.91c1.01-2.14,3.07-4.45,6.76-4.45,1.26,0,2.18.21,3.02.55v3.15c-1.13-.5-2.1-.76-3.4-.76-3.74,0-6.34,2.81-6.34,5.75v12.85h-2.94v-21Z"/><path class="cls-15" d="m1293.3,3420.08c0-6.22,3.32-11.05,10.38-11.05,6.59,0,10.25,4.83,10.25,11.05s-3.7,11.05-10.29,11.05c-7.27,0-10.33-4.83-10.33-11.05Zm17.56,0c0-5.33-2.9-8.49-7.22-8.49-4.75,0-7.27,3.15-7.27,8.49s2.56,8.49,7.27,8.49c4.33,0,7.22-3.15,7.22-8.49Z"/><path class="cls-15" d="m1319.8,3409.57h2.6l.29,3.91c1.01-2.14,3.07-4.45,6.76-4.45,1.26,0,2.18.21,3.02.55v3.15c-1.13-.5-2.1-.76-3.4-.76-3.74,0-6.34,2.81-6.34,5.75v12.85h-2.94v-21Z"/><path class="cls-15" d="m1346.76,3397.81h2.94v32.77h-2.94v-32.77Z"/><path class="cls-15" d="m1355.37,3420.08c0-6.22,3.32-11.05,10.38-11.05,6.59,0,10.25,4.83,10.25,11.05s-3.7,11.05-10.29,11.05c-7.27,0-10.33-4.83-10.33-11.05Zm17.56,0c0-5.33-2.9-8.49-7.22-8.49-4.75,0-7.27,3.15-7.27,8.49s2.56,8.49,7.27,8.49c4.33,0,7.22-3.15,7.22-8.49Z"/><path class="cls-15" d="m1380.2,3420.08c0-6.22,3.32-11.05,10.38-11.05,6.59,0,10.25,4.83,10.25,11.05s-3.7,11.05-10.29,11.05c-7.27,0-10.33-4.83-10.33-11.05Zm17.56,0c0-5.33-2.9-8.49-7.22-8.49-4.75,0-7.27,3.15-7.27,8.49s2.56,8.49,7.27,8.49c4.33,0,7.22-3.15,7.22-8.49Z"/><path class="cls-15" d="m1406.7,3409.57h2.39l.34,3.86h.08c1.13-2.48,4.03-4.41,7.86-4.41,6.3,0,9.66,3.99,9.66,11.01s-4.29,11.09-9.87,11.09c-3.78,0-6.38-1.6-7.43-3.7h-.08v11.55h-2.94v-29.41Zm17.18,10.63c0-7.18-3.4-8.61-6.93-8.61-4.24,0-7.56,2.73-7.56,8.44,0,6.01,3.45,8.57,7.44,8.57,3.02,0,7.06-1.47,7.06-8.4Z"/><path class="cls-15" d="m1442.57,3397.81h2.98v6.51h-2.98v-6.51Zm0,11.76h2.94v21h-2.94v-21Z"/><path class="cls-15" d="m1452.9,3409.57h2.6l.29,3.49c1.01-2.14,3.28-4.03,7.35-4.03,4.75,0,7.77,2.52,7.77,7.94v13.61h-2.94v-13.27c0-4.33-2.14-5.71-5.5-5.71-3.82,0-6.64,2.69-6.64,5.63v13.36h-2.94v-21Z"/><path class="cls-15" d="m1489.61,3408.27h-3.36v-5.08c0-3.95.88-5.29,3.4-5.97l.67,1.85c-1.76.67-2.06,1.09-2.06,3.78v.34h1.34v5.08Zm5.92,0h-3.36v-5.08c0-3.95.88-5.29,3.4-5.97l.67,1.85c-1.76.67-2.06,1.09-2.06,3.78v.34h1.34v5.08Z"/><path class="cls-15" d="m1505.65,3404.53v5.04h5.92v2.44h-5.92v18.57h-2.94v-18.57h-4.16v-2.44h4.16v-5.42c0-5.29,3.15-6.89,6.38-6.89,1.85,0,2.98.29,3.74.55v2.6c-.71-.21-1.89-.46-3.49-.46-2.65,0-3.7,1.77-3.7,4.58Z"/><path class="cls-15" d="m1516.19,3407.01c1.76-.67,2.06-1.09,2.06-3.78v-.34h-1.34v-5.08h3.36v5.08c0,3.95-.88,5.29-3.4,5.96l-.67-1.85Zm5.92,0c1.76-.67,2.06-1.09,2.06-3.78v-.34h-1.34v-5.08h3.36v5.08c0,3.95-.88,5.29-3.4,5.96l-.67-1.85Z"/><path class="cls-15" d="m1540.47,3424.78c0-3.95,2.23-6.09,7.86-6.09h6.34v-1.72c0-2.98-1.26-5.42-5.46-5.42-3.95,0-5.33,1.51-5.33,4.12v.88h-2.98v-.84c0-5,4.2-6.68,8.32-6.68,5.8,0,8.4,2.86,8.4,8.44v13.11h-2.06l-.55-2.98h-.08c-1.26,1.89-3.7,3.53-7.35,3.53-4.92,0-7.1-2.31-7.1-6.34Zm14.2-1.85v-1.76h-7.01c-2.65,0-4.03.92-4.03,3.61,0,2.35,1.26,3.86,4.5,3.86,4.16,0,6.55-2.14,6.55-5.71Z"/><path class="cls-15" d="m1564.95,3409.57h2.6l.29,3.49c1.01-2.14,3.28-4.03,7.35-4.03,4.75,0,7.77,2.52,7.77,7.94v13.61h-2.94v-13.27c0-4.33-2.14-5.71-5.5-5.71-3.82,0-6.64,2.69-6.64,5.63v13.36h-2.94v-21Z"/><path class="cls-15" d="m1588.64,3420.12c0-7.1,4.28-11.09,10.04-11.09,3.7,0,6.22,1.6,7.31,3.74h.04v-14.95h2.94v32.77h-1.97l-.67-3.61h-.08c-1.18,2.31-3.95,4.16-7.77,4.16-6.3,0-9.83-3.99-9.83-11.01Zm17.64-.5c0-5.5-3.36-8.07-7.35-8.07-3.11,0-7.14,1.47-7.14,8.4s3.61,8.61,7.14,8.61c4.24,0,7.35-2.73,7.35-8.95Z"/><path class="cls-15" d="m1627.66,3408.27h-3.36v-5.08c0-3.95.88-5.29,3.4-5.97l.67,1.85c-1.76.67-2.06,1.09-2.06,3.78v.34h1.34v5.08Zm5.92,0h-3.36v-5.08c0-3.95.88-5.29,3.4-5.97l.67,1.85c-1.76.67-2.06,1.09-2.06,3.78v.34h1.34v5.08Z"/><path class="cls-15" d="m1653.91,3427.09h-.08c-1.09,2.14-3.65,4.03-7.48,4.03-6.3,0-9.75-3.99-9.75-11.01s4.37-11.09,9.96-11.09c3.78,0,6.6,1.76,7.65,4.29h.04l.29-3.74h2.31v29.41h-2.94v-11.89Zm.34-7.48c0-5.5-3.36-8.07-7.35-8.07-3.03,0-7.14,1.47-7.14,8.4s3.57,8.61,7.1,8.61c4.24,0,7.39-2.73,7.39-8.95Z"/><path class="cls-15" d="m1661.47,3407.01c1.76-.67,2.06-1.09,2.06-3.78v-.34h-1.34v-5.08h3.36v5.08c0,3.95-.88,5.29-3.4,5.96l-.67-1.85Zm5.92,0c1.76-.67,2.06-1.09,2.06-3.78v-.34h-1.34v-5.08h3.36v5.08c0,3.95-.88,5.29-3.4,5.96l-.67-1.85Z"/><path class="cls-15" d="m617.62,1774.1c0-12.01,6.76-17.27,14.74-17.27,6.97,0,12.39,3.74,12.39,12.01v.8h-2.86v-.92c0-5.92-3.78-9.24-9.45-9.24-6.72,0-11.76,4.58-11.76,14.33s5.04,14.24,11.72,14.24c5.38,0,9.54-2.86,9.54-9.2v-.59h2.77v.42c0,8.02-5.33,12.01-12.56,12.01-7.98,0-14.53-4.87-14.53-16.59Z"/><path class="cls-15" d="m650.64,1782.75v-13.61h2.94v13.27c0,4.33,2.14,5.71,5.42,5.71,3.74,0,6.55-2.69,6.55-5.63v-13.36h2.94v21h-2.6l-.25-3.36h-.08c-.97,2.02-3.23,3.91-7.23,3.91-4.66,0-7.69-2.52-7.69-7.94Z"/><path class="cls-15" d="m675.84,1769.14h2.6l.29,3.91c1.01-2.14,3.07-4.45,6.76-4.45,1.26,0,2.18.21,3.02.55v3.15c-1.13-.5-2.1-.76-3.4-.76-3.74,0-6.34,2.81-6.34,5.75v12.85h-2.94v-21Z"/><path class="cls-15" d="m689.99,1769.18v-.04h3.36l7.35,17.98h.08l7.1-17.98h3.07v.04l-8.74,20.96h-3.02l-9.2-20.96Z"/><path class="cls-15" d="m731.78,1780.65h-15.96c.17,4.79,2.48,7.48,6.93,7.48,3.82,0,5.67-1.43,5.97-4.83h2.98c-.29,4.24-3.28,7.39-9.03,7.39-7.06,0-9.83-4.66-9.83-10.88s3.23-11.22,10-11.22,8.95,3.99,8.95,10.21v1.85Zm-3.11-2.98c0-4.45-1.72-6.55-5.92-6.55s-6.55,2.65-6.89,6.97h12.81v-.42Z"/><path class="cls-15" d="m735.98,1779.69c0-7.1,4.28-11.09,10.04-11.09,3.7,0,6.22,1.6,7.31,3.74h.04v-14.95h2.94v32.77h-1.97l-.67-3.61h-.08c-1.18,2.31-3.95,4.16-7.77,4.16-6.3,0-9.83-3.99-9.83-11.01Zm17.64-.5c0-5.5-3.36-8.07-7.35-8.07-3.11,0-7.14,1.47-7.14,8.4s3.61,8.61,7.14,8.61c4.24,0,7.35-2.73,7.35-8.95Z"/><path class="cls-15" d="m790.58,1780.65h-15.96c.17,4.79,2.48,7.48,6.93,7.48,3.82,0,5.67-1.43,5.97-4.83h2.98c-.29,4.24-3.28,7.39-9.03,7.39-7.06,0-9.83-4.66-9.83-10.88s3.23-11.22,10-11.22,8.95,3.99,8.95,10.21v1.85Zm-3.11-2.98c0-4.45-1.72-6.55-5.92-6.55s-6.55,2.65-6.89,6.97h12.81v-.42Z"/><path class="cls-15" d="m796.46,1769.14h2.6l.29,3.49c1.01-2.14,3.28-4.03,7.35-4.03,4.75,0,7.77,2.52,7.77,7.94v13.61h-2.94v-13.27c0-4.33-2.14-5.71-5.5-5.71-3.82,0-6.64,2.69-6.64,5.63v13.36h-2.94v-21Z"/><path class="cls-15" d="m832.79,1787.46v2.6c-.76.21-2.14.59-4.03.59-3.82,0-6.34-1.6-6.34-6.89v-12.18h-4.16v-2.44h4.16v-6.05l2.94-1.43v7.48h5.92v2.44h-5.92v11.8c0,2.81.76,4.58,3.4,4.58,1.6,0,3.23-.29,4.03-.5Z"/><path class="cls-15" d="m837.62,1769.14h2.6l.29,3.91c1.01-2.14,3.07-4.45,6.76-4.45,1.26,0,2.18.21,3.02.55v3.15c-1.13-.5-2.1-.76-3.4-.76-3.74,0-6.34,2.81-6.34,5.75v12.85h-2.94v-21Z"/><path class="cls-15" d="m855.13,1769.14l6.89,17.98h.08l7.14-17.98h3.07v.04l-8.86,20.84-3.11,8.53h-2.98v-.04l3.19-8.36-8.78-20.96v-.04h3.36Z"/><path class="cls-15" d="m884.28,1783.72v-1.18h2.94v1.13c0,2.86,2.14,4.5,5.96,4.5s5.8-1.01,5.8-3.78c0-2.06-1.01-2.81-3.86-3.32l-4.62-.84c-3.02-.55-5.54-2.02-5.54-5.5,0-3.15,2.35-6.13,8.4-6.13s8.4,3.02,8.4,7.22v.88h-2.98v-.76c0-3.44-2.14-4.91-5.42-4.91-3.95,0-5.33,1.34-5.33,3.36s1.01,2.86,3.91,3.4l4.03.76c4.12.76,6.09,1.93,6.09,5.59,0,4.58-4.12,6.55-8.78,6.55-7.31,0-8.99-3.28-8.99-6.97Z"/><path class="cls-15" d="m918.89,1787.46v2.6c-.76.21-2.14.59-4.03.59-3.82,0-6.34-1.6-6.34-6.89v-12.18h-4.16v-2.44h4.16v-6.05l2.94-1.43v7.48h5.92v2.44h-5.92v11.8c0,2.81.76,4.58,3.4,4.58,1.6,0,3.23-.29,4.03-.5Z"/><path class="cls-15" d="m923.72,1769.14h2.6l.29,3.91c1.01-2.14,3.07-4.45,6.76-4.45,1.26,0,2.18.21,3.02.55v3.15c-1.13-.5-2.1-.76-3.4-.76-3.74,0-6.34,2.81-6.34,5.75v12.85h-2.94v-21Z"/><path class="cls-15" d="m938.71,1779.64c0-6.22,3.32-11.05,10.38-11.05,6.59,0,10.25,4.83,10.25,11.05s-3.7,11.05-10.29,11.05c-7.27,0-10.33-4.83-10.33-11.05Zm17.56,0c0-5.33-2.9-8.49-7.22-8.49-4.75,0-7.27,3.15-7.27,8.49s2.56,8.49,7.27,8.49c4.33,0,7.22-3.15,7.22-8.49Z"/><path class="cls-15" d="m964.59,1757.38h2.94v23.23l12.14-11.47h3.65v.04l-8.4,7.86,8.78,13.06v.04h-3.36l-7.39-11.22-5.42,5.04v6.18h-2.94v-32.77Z"/><path class="cls-15" d="m1004.95,1780.65h-15.96c.17,4.79,2.48,7.48,6.93,7.48,3.82,0,5.67-1.43,5.97-4.83h2.98c-.29,4.24-3.28,7.39-9.03,7.39-7.06,0-9.83-4.66-9.83-10.88s3.23-11.22,10-11.22,8.95,3.99,8.95,10.21v1.85Zm-3.11-2.98c0-4.45-1.72-6.55-5.92-6.55s-6.55,2.65-6.89,6.97h12.81v-.42Z"/><path class="cls-15" d="m1008.94,1783.72v-1.18h2.94v1.13c0,2.86,2.14,4.5,5.96,4.5s5.8-1.01,5.8-3.78c0-2.06-1.01-2.81-3.86-3.32l-4.62-.84c-3.02-.55-5.54-2.02-5.54-5.5,0-3.15,2.35-6.13,8.4-6.13s8.4,3.02,8.4,7.22v.88h-2.98v-.76c0-3.44-2.14-4.91-5.42-4.91-3.95,0-5.33,1.34-5.33,3.36s1.01,2.86,3.91,3.4l4.03.76c4.12.76,6.09,1.93,6.09,5.59,0,4.58-4.12,6.55-8.78,6.55-7.31,0-8.99-3.28-8.99-6.97Z"/><path class="cls-15" d="m1042.24,1757.38h2.98v6.51h-2.98v-6.51Zm0,11.76h2.94v21h-2.94v-21Z"/><path class="cls-15" d="m1052.58,1769.14h2.6l.29,3.49c1.01-2.14,3.28-4.03,7.35-4.03,4.75,0,7.77,2.52,7.77,7.94v13.61h-2.94v-13.27c0-4.33-2.14-5.71-5.5-5.71-3.82,0-6.64,2.69-6.64,5.63v13.36h-2.94v-21Z"/><path class="cls-15" d="m1089.28,1767.84h-3.36v-5.08c0-3.95.88-5.29,3.4-5.97l.67,1.85c-1.76.67-2.06,1.09-2.06,3.78v.34h1.34v5.08Zm5.92,0h-3.36v-5.08c0-3.95.88-5.29,3.4-5.97l.67,1.85c-1.76.67-2.06,1.09-2.06,3.78v.34h1.34v5.08Z"/><path class="cls-15" d="m1101.59,1769.14h2.6l.29,3.91c1.01-2.14,3.07-4.45,6.76-4.45,1.26,0,2.18.21,3.02.55v3.15c-1.13-.5-2.1-.76-3.4-.76-3.74,0-6.34,2.81-6.34,5.75v12.85h-2.94v-21Z"/><path class="cls-15" d="m1117,1766.58c1.76-.67,2.06-1.09,2.06-3.78v-.34h-1.34v-5.08h3.36v5.08c0,3.95-.88,5.29-3.4,5.97l-.67-1.85Zm5.92,0c1.76-.67,2.06-1.09,2.06-3.78v-.34h-1.34v-5.08h3.36v5.08c0,3.95-.88,5.29-3.4,5.97l-.67-1.85Z"/><path class="cls-15" d="m1141.28,1784.35c0-3.95,2.23-6.09,7.86-6.09h6.34v-1.72c0-2.98-1.26-5.42-5.46-5.42-3.95,0-5.33,1.51-5.33,4.12v.88h-2.98v-.84c0-5,4.2-6.68,8.32-6.68,5.8,0,8.4,2.86,8.4,8.44v13.11h-2.06l-.55-2.98h-.08c-1.26,1.89-3.7,3.53-7.35,3.53-4.92,0-7.1-2.31-7.1-6.34Zm14.2-1.85v-1.76h-7.01c-2.65,0-4.03.92-4.03,3.61,0,2.35,1.26,3.86,4.5,3.86,4.16,0,6.55-2.14,6.55-5.71Z"/><path class="cls-15" d="m1165.77,1769.14h2.6l.29,3.49c1.01-2.14,3.28-4.03,7.35-4.03,4.75,0,7.77,2.52,7.77,7.94v13.61h-2.94v-13.27c0-4.33-2.14-5.71-5.5-5.71-3.82,0-6.64,2.69-6.64,5.63v13.36h-2.94v-21Z"/><path class="cls-15" d="m1189.45,1779.69c0-7.1,4.28-11.09,10.04-11.09,3.7,0,6.22,1.6,7.31,3.74h.04v-14.95h2.94v32.77h-1.97l-.67-3.61h-.08c-1.18,2.31-3.95,4.16-7.77,4.16-6.3,0-9.83-3.99-9.83-11.01Zm17.64-.5c0-5.5-3.36-8.07-7.35-8.07-3.11,0-7.14,1.47-7.14,8.4s3.61,8.61,7.14,8.61c4.24,0,7.35-2.73,7.35-8.95Z"/><path class="cls-15" d="m1228.47,1767.84h-3.36v-5.08c0-3.95.88-5.29,3.4-5.97l.67,1.85c-1.76.67-2.06,1.09-2.06,3.78v.34h1.34v5.08Zm5.92,0h-3.36v-5.08c0-3.95.88-5.29,3.4-5.97l.67,1.85c-1.76.67-2.06,1.09-2.06,3.78v.34h1.34v5.08Z"/><path class="cls-15" d="m1240.99,1769.14l6.89,17.98h.08l7.14-17.98h3.07v.04l-8.86,20.84-3.11,8.53h-2.98v-.04l3.19-8.36-8.78-20.96v-.04h3.36Z"/><path class="cls-15" d="m1260.48,1766.58c1.76-.67,2.06-1.09,2.06-3.78v-.34h-1.34v-5.08h3.36v5.08c0,3.95-.88,5.29-3.4,5.97l-.67-1.85Zm5.92,0c1.76-.67,2.06-1.09,2.06-3.78v-.34h-1.34v-5.08h3.36v5.08c0,3.95-.88,5.29-3.4,5.97l-.67-1.85Z"/><circle class="cls-17" cx="723.82" cy="2090.52" r="47.14"/><circle class="cls-17" cx="1134.31" cy="2123.66" r="69.65"/><line class="cls-10" x1="939.38" y1="1818.57" x2="939.38" y2="1853.13"/><line class="cls-5" x1="452.48" y1="1614.5" x2="452.48" y2="1613.62"/><line class="cls-7" x1="452.48" y1="1596.26" x2="452.48" y2="1433.04"/><line class="cls-5" x1="452.48" y1="1424.35" x2="452.48" y2="1423.48"/><path class="cls-15" d="m95.81,1669.74h-13.99l-3.74,10.33h-3.07l12.18-32.77h3.32l12.1,32.77h-3.07l-3.74-10.33Zm-.92-2.6l-6.05-16.8h-.04l-6.05,16.8h12.14Z"/><path class="cls-15" d="m106.81,1647.31h2.94v32.77h-2.94v-32.77Z"/><path class="cls-15" d="m117.1,1647.31h2.94v32.77h-2.94v-32.77Z"/><path class="cls-15" d="m136.63,1672.68v-13.61h2.94v13.27c0,4.33,2.14,5.71,5.42,5.71,3.74,0,6.55-2.69,6.55-5.63v-13.36h2.94v21h-2.6l-.25-3.36h-.08c-.97,2.02-3.24,3.91-7.23,3.91-4.66,0-7.69-2.52-7.69-7.94Z"/><path class="cls-15" d="m161.83,1659.07h2.39l.34,3.87h.08c1.13-2.48,4.03-4.41,7.86-4.41,6.3,0,9.66,3.99,9.66,11.01s-4.28,11.09-9.87,11.09c-3.78,0-6.38-1.6-7.44-3.7h-.08v11.55h-2.94v-29.41Zm17.18,10.63c0-7.18-3.4-8.61-6.93-8.61-4.24,0-7.56,2.73-7.56,8.44,0,6.01,3.45,8.57,7.44,8.57,3.03,0,7.06-1.47,7.06-8.4Z"/><path class="cls-15" d="m188.03,1659.07h2.39l.34,3.87h.08c1.13-2.48,4.03-4.41,7.86-4.41,6.3,0,9.66,3.99,9.66,11.01s-4.29,11.09-9.87,11.09c-3.78,0-6.39-1.6-7.44-3.7h-.08v11.55h-2.94v-29.41Zm17.18,10.63c0-7.18-3.4-8.61-6.93-8.61-4.24,0-7.56,2.73-7.56,8.44,0,6.01,3.44,8.57,7.43,8.57,3.02,0,7.06-1.47,7.06-8.4Z"/><path class="cls-15" d="m231.51,1670.58h-15.96c.17,4.79,2.48,7.48,6.93,7.48,3.82,0,5.67-1.43,5.96-4.83h2.98c-.29,4.24-3.28,7.39-9.03,7.39-7.06,0-9.83-4.66-9.83-10.88s3.23-11.22,10-11.22,8.95,3.99,8.95,10.21v1.85Zm-3.11-2.98c0-4.45-1.72-6.55-5.92-6.55s-6.55,2.65-6.89,6.97h12.81v-.42Z"/><path class="cls-15" d="m237.38,1659.07h2.6l.29,3.91c1.01-2.14,3.07-4.45,6.76-4.45,1.26,0,2.18.21,3.02.55v3.15c-1.13-.5-2.1-.76-3.4-.76-3.74,0-6.34,2.81-6.34,5.75v12.85h-2.94v-21Z"/><path class="cls-15" d="m252.38,1669.74c0-6.38,3.23-11.22,10-11.22s8.95,3.91,8.95,8.95v.42h-3.11v-.63c0-3.82-1.64-6.09-5.84-6.09-4.75,0-7.01,3.11-7.01,8.4,0,5.63,2.39,8.49,6.93,8.49,3.82,0,5.84-1.85,5.92-5.67h3.03c-.08,4.66-3.15,8.23-9.03,8.23-7.23,0-9.83-4.75-9.83-10.88Z"/><path class="cls-15" d="m275.73,1674.28c0-3.95,2.23-6.09,7.86-6.09h6.34v-1.72c0-2.98-1.26-5.42-5.46-5.42-3.95,0-5.33,1.51-5.33,4.12v.88h-2.98v-.84c0-5,4.2-6.68,8.32-6.68,5.8,0,8.4,2.86,8.4,8.44v13.11h-2.06l-.54-2.98h-.08c-1.26,1.89-3.7,3.53-7.35,3.53-4.92,0-7.1-2.31-7.1-6.34Zm14.2-1.85v-1.76h-7.01c-2.65,0-4.03.92-4.03,3.61,0,2.35,1.26,3.87,4.5,3.87,4.16,0,6.55-2.14,6.55-5.71Z"/><path class="cls-15" d="m298.33,1673.65v-1.18h2.94v1.13c0,2.86,2.14,4.5,5.96,4.5s5.8-1.01,5.8-3.78c0-2.06-1.01-2.81-3.86-3.32l-4.62-.84c-3.02-.55-5.54-2.02-5.54-5.5,0-3.15,2.35-6.13,8.4-6.13s8.4,3.02,8.4,7.23v.88h-2.98v-.76c0-3.44-2.14-4.92-5.42-4.92-3.95,0-5.33,1.34-5.33,3.36s1.01,2.86,3.91,3.4l4.03.76c4.12.76,6.09,1.93,6.09,5.59,0,4.58-4.12,6.55-8.78,6.55-7.31,0-8.99-3.28-8.99-6.97Z"/><path class="cls-15" d="m339.24,1670.58h-15.96c.17,4.79,2.48,7.48,6.93,7.48,3.82,0,5.67-1.43,5.96-4.83h2.98c-.29,4.24-3.28,7.39-9.03,7.39-7.06,0-9.83-4.66-9.83-10.88s3.23-11.22,10-11.22,8.95,3.99,8.95,10.21v1.85Zm-3.11-2.98c0-4.45-1.72-6.55-5.92-6.55s-6.55,2.65-6.89,6.97h12.81v-.42Z"/><path class="cls-15" d="m354.77,1647.31h2.94v32.77h-2.94v-32.77Z"/><path class="cls-15" d="m382.33,1670.58h-15.96c.17,4.79,2.48,7.48,6.93,7.48,3.82,0,5.67-1.43,5.96-4.83h2.98c-.29,4.24-3.28,7.39-9.03,7.39-7.06,0-9.83-4.66-9.83-10.88s3.23-11.22,10-11.22,8.95,3.99,8.95,10.21v1.85Zm-3.11-2.98c0-4.45-1.72-6.55-5.92-6.55s-6.55,2.65-6.89,6.97h12.81v-.42Z"/><path class="cls-15" d="m388.79,1673.69v-12.18h-4.16v-2.44h4.16v-6.05l2.94-1.43v7.48h11.85v-6.05l2.94-1.43v7.48h5.92v2.44h-5.92v11.8c0,2.81.76,4.58,3.4,4.58,1.6,0,3.23-.29,4.03-.5v2.6c-.76.21-2.14.59-4.03.59-3.82,0-6.34-1.6-6.34-6.89v-12.18h-11.85v11.8c0,2.81.76,4.58,3.4,4.58,1.6,0,3.23-.29,4.03-.5v2.6c-.76.21-2.14.59-4.03.59-3.82,0-6.34-1.6-6.34-6.89Z"/><path class="cls-15" d="m435.42,1670.58h-15.96c.17,4.79,2.48,7.48,6.93,7.48,3.82,0,5.67-1.43,5.96-4.83h2.98c-.29,4.24-3.28,7.39-9.03,7.39-7.06,0-9.83-4.66-9.83-10.88s3.23-11.22,10-11.22,8.95,3.99,8.95,10.21v1.85Zm-3.11-2.98c0-4.45-1.72-6.55-5.92-6.55s-6.55,2.65-6.89,6.97h12.81v-.42Z"/><path class="cls-15" d="m441.29,1659.07h2.6l.29,3.91c1.01-2.14,3.07-4.45,6.76-4.45,1.26,0,2.18.21,3.02.55v3.15c-1.13-.5-2.1-.76-3.4-.76-3.74,0-6.34,2.81-6.34,5.75v12.85h-2.94v-21Z"/><path class="cls-15" d="m456.5,1673.65v-1.18h2.94v1.13c0,2.86,2.14,4.5,5.96,4.5s5.8-1.01,5.8-3.78c0-2.06-1.01-2.81-3.87-3.32l-4.62-.84c-3.02-.55-5.54-2.02-5.54-5.5,0-3.15,2.35-6.13,8.4-6.13s8.4,3.02,8.4,7.23v.88h-2.98v-.76c0-3.44-2.14-4.92-5.42-4.92-3.95,0-5.34,1.34-5.34,3.36s1.01,2.86,3.91,3.4l4.03.76c4.12.76,6.09,1.93,6.09,5.59,0,4.58-4.12,6.55-8.78,6.55-7.31,0-8.99-3.28-8.99-6.97Z"/><path class="cls-15" d="m488.12,1669.74c0-6.38,3.23-11.22,10-11.22s8.95,3.91,8.95,8.95v.42h-3.11v-.63c0-3.82-1.64-6.09-5.84-6.09-4.75,0-7.01,3.11-7.01,8.4,0,5.63,2.39,8.49,6.93,8.49,3.82,0,5.84-1.85,5.92-5.67h3.02c-.08,4.66-3.15,8.23-9.03,8.23-7.22,0-9.83-4.75-9.83-10.88Z"/><path class="cls-15" d="m511.26,1669.57c0-6.22,3.32-11.05,10.38-11.05,6.6,0,10.25,4.83,10.25,11.05s-3.7,11.05-10.29,11.05c-7.27,0-10.33-4.83-10.33-11.05Zm17.56,0c0-5.33-2.9-8.49-7.22-8.49-4.75,0-7.27,3.15-7.27,8.49s2.56,8.49,7.27,8.49c4.33,0,7.22-3.15,7.22-8.49Z"/><path class="cls-15" d="m537.77,1659.07h2.6l.29,3.49c1.01-2.14,3.28-4.03,7.35-4.03,4.75,0,7.77,2.52,7.77,7.94v13.61h-2.94v-13.27c0-4.33-2.14-5.71-5.5-5.71-3.82,0-6.64,2.69-6.64,5.63v13.36h-2.94v-21Z"/><path class="cls-15" d="m563.13,1659.07h2.6l.29,3.49c1.01-2.14,3.28-4.03,7.35-4.03,4.75,0,7.77,2.52,7.77,7.94v13.61h-2.94v-13.27c0-4.33-2.14-5.71-5.5-5.71-3.82,0-6.64,2.69-6.64,5.63v13.36h-2.94v-21Z"/><path class="cls-15" d="m605.77,1670.58h-15.96c.17,4.79,2.48,7.48,6.93,7.48,3.82,0,5.67-1.43,5.96-4.83h2.98c-.29,4.24-3.28,7.39-9.03,7.39-7.06,0-9.83-4.66-9.83-10.88s3.23-11.22,10-11.22,8.95,3.99,8.95,10.21v1.85Zm-3.11-2.98c0-4.45-1.72-6.55-5.92-6.55s-6.55,2.65-6.89,6.97h12.81v-.42Z"/><path class="cls-15" d="m609.96,1669.74c0-6.38,3.23-11.22,10-11.22s8.95,3.91,8.95,8.95v.42h-3.11v-.63c0-3.82-1.64-6.09-5.84-6.09-4.75,0-7.01,3.11-7.01,8.4,0,5.63,2.39,8.49,6.93,8.49,3.82,0,5.84-1.85,5.92-5.67h3.02c-.08,4.66-3.15,8.23-9.03,8.23-7.22,0-9.83-4.75-9.83-10.88Z"/><path class="cls-15" d="m645.75,1677.39v2.6c-.76.21-2.14.59-4.03.59-3.82,0-6.34-1.6-6.34-6.89v-12.18h-4.16v-2.44h4.16v-6.05l2.94-1.43v7.48h5.92v2.44h-5.92v11.8c0,2.81.76,4.58,3.4,4.58,1.6,0,3.23-.29,4.03-.5Z"/><path class="cls-15" d="m671.2,1677.39v2.6c-.76.21-2.14.59-4.03.59-3.82,0-6.34-1.6-6.34-6.89v-12.18h-4.16v-2.44h4.16v-6.05l2.94-1.43v7.48h5.92v2.44h-5.92v11.8c0,2.81.76,4.58,3.4,4.58,1.6,0,3.23-.29,4.03-.5Z"/><path class="cls-15" d="m673.72,1669.57c0-6.22,3.32-11.05,10.38-11.05,6.6,0,10.25,4.83,10.25,11.05s-3.7,11.05-10.29,11.05c-7.27,0-10.33-4.83-10.33-11.05Zm17.56,0c0-5.33-2.9-8.49-7.22-8.49-4.75,0-7.27,3.15-7.27,8.49s2.56,8.49,7.27,8.49c4.33,0,7.22-3.15,7.22-8.49Z"/><path class="cls-15" d="m709.88,1647.31h2.94v32.77h-2.94v-32.77Z"/><path class="cls-15" d="m718.49,1669.57c0-6.22,3.32-11.05,10.38-11.05,6.6,0,10.25,4.83,10.25,11.05s-3.7,11.05-10.29,11.05c-7.27,0-10.33-4.83-10.33-11.05Zm17.56,0c0-5.33-2.9-8.49-7.22-8.49-4.75,0-7.27,3.15-7.27,8.49s2.56,8.49,7.27,8.49c4.33,0,7.22-3.15,7.22-8.49Z"/><path class="cls-15" d="m741.42,1659.11v-.04h2.98l5.75,17.48h.08l6.3-17.48h2.69l6.18,17.48h.08l5.75-17.48h2.86v.04l-7.18,20.96h-3.02l-5.96-17.05h-.08l-6.22,17.05h-3.02l-7.18-20.96Z"/><path class="cls-15" d="m795.35,1670.58h-15.96c.17,4.79,2.48,7.48,6.93,7.48,3.82,0,5.67-1.43,5.96-4.83h2.98c-.29,4.24-3.28,7.39-9.03,7.39-7.06,0-9.83-4.66-9.83-10.88s3.23-11.22,10-11.22,8.95,3.99,8.95,10.21v1.85Zm-3.11-2.98c0-4.45-1.72-6.55-5.92-6.55s-6.55,2.65-6.89,6.97h12.81v-.42Z"/><path class="cls-15" d="m801.23,1659.07h2.6l.29,3.91c1.01-2.14,3.07-4.45,6.76-4.45,1.26,0,2.18.21,3.02.55v3.15c-1.13-.5-2.1-.76-3.4-.76-3.74,0-6.34,2.81-6.34,5.75v12.85h-2.94v-21Z"/><path class="cls-15" d="m816.22,1669.74c0-6.38,3.23-11.22,10-11.22s8.95,3.91,8.95,8.95v.42h-3.11v-.63c0-3.82-1.64-6.09-5.84-6.09-4.75,0-7.02,3.11-7.02,8.4,0,5.63,2.39,8.49,6.93,8.49,3.82,0,5.84-1.85,5.92-5.67h3.02c-.08,4.66-3.15,8.23-9.03,8.23-7.23,0-9.83-4.75-9.83-10.88Z"/><path class="cls-15" d="m839.57,1674.28c0-3.95,2.23-6.09,7.86-6.09h6.34v-1.72c0-2.98-1.26-5.42-5.46-5.42-3.95,0-5.33,1.51-5.33,4.12v.88h-2.98v-.84c0-5,4.2-6.68,8.32-6.68,5.8,0,8.4,2.86,8.4,8.44v13.11h-2.06l-.55-2.98h-.08c-1.26,1.89-3.7,3.53-7.35,3.53-4.91,0-7.1-2.31-7.1-6.34Zm14.2-1.85v-1.76h-7.02c-2.65,0-4.03.92-4.03,3.61,0,2.35,1.26,3.87,4.5,3.87,4.16,0,6.55-2.14,6.55-5.71Z"/><path class="cls-15" d="m862.17,1673.65v-1.18h2.94v1.13c0,2.86,2.14,4.5,5.96,4.5s5.8-1.01,5.8-3.78c0-2.06-1.01-2.81-3.86-3.32l-4.62-.84c-3.03-.55-5.54-2.02-5.54-5.5,0-3.15,2.35-6.13,8.4-6.13s8.4,3.02,8.4,7.23v.88h-2.98v-.76c0-3.44-2.14-4.92-5.42-4.92-3.95,0-5.33,1.34-5.33,3.36s1.01,2.86,3.91,3.4l4.03.76c4.12.76,6.09,1.93,6.09,5.59,0,4.58-4.12,6.55-8.78,6.55-7.31,0-8.99-3.28-8.99-6.97Z"/><path class="cls-15" d="m903.08,1670.58h-15.96c.17,4.79,2.48,7.48,6.93,7.48,3.82,0,5.67-1.43,5.96-4.83h2.98c-.29,4.24-3.28,7.39-9.03,7.39-7.06,0-9.83-4.66-9.83-10.88s3.23-11.22,10-11.22,8.95,3.99,8.95,10.21v1.85Zm-3.11-2.98c0-4.45-1.72-6.55-5.92-6.55s-6.55,2.65-6.89,6.97h12.81v-.42Z"/><path class="cls-17" d="m406.62,547.71c-19.47,0-34.83-8.2-49.18-18.44-22.03,11.78-44.06,18.44-66.08,18.44-73.77,0-80.94-84.53-22.54-84.53,40.98,0,65.57,26.64,89.65,46.62,47.64-29.2,92.72-82.48,115.26-137.29,42.52-103.99,2.05-152.66-54.81-152.66-69.67,0-108.6,21.52-130.63,66.08-4.61,9.73-19.47,2.56-14.86-7.17,25.61-51.74,71.72-75.31,145.49-75.31s114.24,66.6,70.18,175.2c-22.54,54.3-66.6,109.63-116.29,141.39,10.25,6.66,21,11.27,33.81,11.27,39.96,0,64.04-16.91,90.16-51.23,6.66-8.71,19.47,1.02,12.81,9.73-27.66,37.4-55.84,57.89-102.97,57.89Zm-137.8-68.13c-36.88,0-28.18,51.74,22.54,51.74,16.91,0,34.32-4.61,51.74-13.32-21.52-18.44-42.52-38.42-74.28-38.42Z"/><path class="cls-15" d="m721.16,503.65c-22.54,27.15-44.57,44.06-69.16,44.06-42.01,0-30.22-36.37-18.44-60.45-28.69,31.76-63.52,60.45-95.29,60.45-46.11,0-35.86-35.35-24.08-63.01-11.27,14.86-24.08,4.1-16.91-5.12,27.66-34.32,53.79-69.16,75.31-108.09,5.12-9.73,19.47-2.05,14.34,7.68-2.05,4.1-66.08,117.83-66.6,142.42,0,5.63,1.54,9.73,17.93,9.73,54.81,0,133.19-116.29,158.3-159.83,5.63-9.73,19.98-2.05,14.34,7.68l-44.57,82.48c-15.88,29.2-25.61,45.08-27.15,58.91-1.02,7.17,3.59,10.76,12.81,10.76,18.95,0,33.81-11.27,56.35-37.91l11.78-13.83c7.17-8.2,19.47,2.05,12.29,10.76l-11.27,13.32Z"/><path class="cls-15" d="m762.65,547.71c-60.45,0-45.08-73.26-29.71-107.07,27.15-62.5,45.59-76.33,76.33-76.33s30.22,31.76,9.73,52.77c-19.47,19.47-41.5,36.37-63.52,55.84-8.2,7.17-15.88,14.34-19.47,17.93-3.07,22.03,1.02,40.47,26.64,40.47s47.13-19.47,72.74-51.74c6.66-8.2,19.47,2.05,12.81,10.25-19.98,25.1-49.69,57.89-85.55,57.89Zm45.59-169.05c-21.52,0-35.35,7.68-61.99,68.65-5.12,11.27-6.15,14.86-7.68,19.98,56.35-47.64,77.35-64.55,78.38-78.89.51-5.64-3.07-9.73-8.71-9.73Z"/><path class="cls-15" d="m1031.09,491.35c-4.1,5.12-14.86,11.27-26.13,11.27-25.61,0-36.37-21-24.59-53.79,5.63-16.39,15.88-43.54,17.93-50.2,1.54-6.66.51-12.29-7.17-12.29-17.93,0-49.69,45.08-95.8,130.63l-14.34,26.64c-2.56,5.12-7.68,4.61-11.27,3.07-3.07-2.05-6.15-6.66-3.59-11.27l65.06-122.95c2.05-4.61,4.61-10.76,5.64-16.39.51-4.1-.51-9.22-4.61-9.22s-7.68,3.07-14.86,11.27c-7.17,8.71-40.47,53.79-69.16,91.7-3.07,4.1-8.71,4.1-11.78,1.54-3.07-2.05-5.12-7.17-1.54-11.27,13.83-16.91,63.52-84.01,70.18-92.72,7.17-9.22,16.91-15.88,28.17-15.88,8.71,0,17.42,5.12,18.44,17.42,0,3.07-1.02,9.22-2.05,13.83,13.32-18.95,27.15-32.27,43.03-32.27,17.93,0,24.08,14.34,22.54,25.61-.51,5.64-2.56,11.27-4.1,15.88-2.05,5.12-11.78,30.74-15.37,41.5-8.2,24.08-2.05,33.3,9.73,33.3,6.15,0,11.27-3.07,14.86-8.2,3.07-4.1,8.71-4.1,11.78-1.02,3.59,3.59,3.59,8.2-1.02,13.83Z"/><path class="cls-15" d="m1123.81,503.65c-22.54,27.15-44.06,44.06-69.67,44.06-35.86,0-24.08-45.08-16.39-64.55-15.88,19.98-23.05,2.56-18.44-3.59,27.66-34.32,53.79-69.16,75.31-108.09,5.12-9.73,19.47-2.05,14.34,7.68-6.15,12.29-63.52,109.63-64.04,140.88,0,8.71,5.12,11.27,9.22,11.27,20.49,0,34.32-11.27,57.38-37.91l11.27-13.83c7.17-8.2,19.47,2.05,12.81,10.76l-11.78,13.32Zm-4.1-180.32c-9.22,0-14.86-7.68-12.81-16.91,2.05-8.2,10.76-15.37,19.47-15.37,9.73,0,15.37,7.68,12.81,16.91-2.05,8.71-10.76,15.37-19.47,15.37Z"/><path class="cls-15" d="m1278.01,461.13c-14.86,28.69-22.54,48.15-23.56,59.94-1.03,7.17,2.56,10.25,9.73,10.25,30.74,0,52.76-29.71,70.69-51.74,7.17-8.2,19.98,2.05,12.81,10.25-21.52,26.64-50.2,57.89-83.5,57.89-25.1,0-29.2-17.93-24.59-36.88-17.42,18.95-38.93,36.88-60.45,36.88-46.62,0-45.59-36.88-34.84-69.67-3.07,4.1-6.15,8.2-8.71,11.78-6.66,8.71-19.98-1.02-13.32-9.73,34.32-44.57,73.26-113.21,137.8-112.7,19.98,0,31.76,5.12,40.47,11.78l86.58-171.1c5.12-10.25,19.47-3.07,14.34,7.17l-123.46,245.9Zm14.86-67.11c-9.22-8.71-21-10.25-33.3-10.25-32.27,0-62.5,22.54-84.53,64.04-10.25,18.95-44.06,83.5,4.1,83.5,31.25,0,77.87-65.57,90.67-91.19l23.05-46.11Z"/><path class="cls-15" d="m1464.48,509.8c-16.39,21-38.42,37.91-68.13,37.91-40.47,0-49.69-31.76-39.96-68.65-3.07,3.59-5.64,7.17-8.2,10.76-6.66,8.71-19.98-1.02-13.32-9.73,33.3-44.06,72.75-111.68,135.76-112.7,25.1-.51,35.35,16.39,35.35,39.96.51,28.18-14.34,62.5-31.25,88.11,20.49,5.12,38.93-.51,54.3-16.39,7.68-7.68,19.47,3.59,11.78,11.78-22.03,22.54-52.77,27.66-76.33,18.95Zm-34.84-98.36c2.05-6.66,5.12-12.81,8.2-18.44-18.96,10.76-36.37,29.71-50.72,55.33-31.25,57.38-19.98,82.99,9.22,82.99,22.54,0,39.96-12.29,53.79-29.2-23.05-15.88-35.35-48.15-20.49-90.67Zm42.52-27.66c-22.54-.51-54.3,80.94-12.81,105.53,7.68-11.78,13.83-24.08,19.47-35.35,5.12-11.78,10.76-30.74,10.76-46.62,0-12.81-2.56-23.05-17.42-23.56Z"/><path class="cls-15" d="m1586.92,547.71c-36.88,0-63.52-18.44-80.94-66.08-3.59-10.25,11.27-16.39,15.37-6.15,16.39,43.54,34.84,55.84,65.57,55.84s33.3-29.71,27.66-62.5c-3.59-21.52-6.15-38.42-8.71-54.81l-1.54,2.05c-20.49,24.59-63.01,74.28-63.01,74.28-6.66,8.2-19.47-2.56-12.29-10.76,0,0,33.81-40.47,63.52-74.28,2.56-3.07,8.2-8.71,13.83-15.37-1.54-17.42,2.56-30.74,17.93-30.74s12.29,15.37,6.66,24.08c-1.54,3.59-7.68,10.76-10.76,14.86,3.59,25.61,8.2,46.11,11.78,68.13,4.61,29.2,4.1,46.11-5.63,62.5,26.13-11.27,43.54-31.25,56.35-48.67,6.66-8.71,19.47,1.02,13.32,9.73-26.64,36.37-54.3,57.89-109.12,57.89Z"/><path class="cls-17" d="m478.58,1406.65c-59.42,0-96.82-31.25-105.02-64.04-36.88,24.59-73.77,46.62-105.53,63.01-9.73,5.12-17.42-9.22-7.68-14.34,80.94-42.52,202.35-122.95,260.75-194.67-24.08-90.67,1.02-134.22,39.96-134.22,17.42,0,25.61,16.39,24.08,36.37-1.54,31.76-24.08,72.23-46.11,101.43,6.15,21,15.37,44.57,28.18,72.23,13.83,30.22,18.44,85.04-18.96,114.75,42.01-5.64,60.45-19.47,82.48-48.15,6.66-8.71,19.47,1.02,12.81,9.73-44.06,58.91-95.8,57.89-164.96,57.89Zm48.15-191.08c-33.3,38.93-85.04,80.94-138.32,117.31,3.07,41.5,59.94,57.38,90.16,57.38,90.67,0,91.7-71.72,73.77-110.65-10.76-23.56-18.95-44.57-25.61-64.04Zm34.32-136.78c-17.42,0-45.59,23.05-27.15,100.92.51-1.02,1.54-2.56,2.56-4.1,23.05-35.35,31.76-61.47,32.27-77.87,1.02-16.91-5.12-18.95-7.68-18.95Z"/><path class="cls-15" d="m772.12,1406.14c-24.59,0-28.69-17.42-24.08-36.88-17.42,18.95-39.45,36.88-60.96,36.88-46.11,0-45.59-35.86-34.83-68.65-3.07,4.1-5.64,7.68-8.2,11.27-6.66,8.71-19.98-1.54-13.32-10.25,34.32-44.57,72.75-112.19,137.29-112.7,20.49,0,32.27,5.12,40.98,11.78l3.59-7.17c5.12-10.25,19.47-2.56,14.34,7.68-3.59,7.68-61.47,114.75-64.55,141.39-.51,6.15,2.56,10.25,9.73,10.25,31.76,0,53.28-29.71,71.21-51.23,6.66-8.71,19.47,1.54,12.81,10.25-22.03,26.64-47.64,57.38-84.01,57.38Zm29.2-153.17c-9.22-9.22-21-10.76-33.3-10.76-32.27,0-62.5,23.05-85.04,64.04-10.25,19.47-43.54,83.5,4.1,83.5,31.25,0,78.38-65.06,91.19-90.67l23.05-46.11Z"/><path class="cls-15" d="m947.32,1239.65l-45.08,54.3-8.71,17.42c-8.71,16.91-32.27,78.89,8.2,78.89,31.76,0,56.86-28.18,76.84-51.74,6.66-8.2,19.47,2.05,12.29,10.76-23.05,27.66-52.77,57.38-89.14,57.38-42.01,0-43.03-37.91-34.83-70.18l-10.76,12.81c-6.66,8.2-19.47-2.56-12.29-10.76l44.57-53.28,68.65-137.29c12.29-24.59,35.35-85.55,67.62-85.55,36.88,0,29.2,31.25,15.88,54.81-15.88,28.18-49.18,69.67-93.24,122.44Zm77.35-160.86c-19.98,0-45.08,60.96-52.76,76.33l-37.4,74.79.51-.51c8.2-10.25,105.02-121.41,100.41-146.51-.51-4.1-7.68-4.1-10.76-4.1Z"/><path class="cls-15" d="m1198.34,1364.13c-19.98,0-34.32-10.76-41.5-19.47-24.08,29.71-63.52,61.99-102.46,61.99-18.96,0-32.27-10.25-32.27-30.23,0-40.47,70.18-98.87,70.18-128.58,0-4.1-1.54-5.12-3.59-5.12-22.03,0-84.53,89.65-97.33,106.04-7.17,8.71-19.98-1.54-13.32-10.25l43.54-54.81c32.79-41.5,51.23-57.38,71.72-57.38,17.42,0,16.91,18.95,13.83,30.74-11.78,39.96-68.65,86.58-68.65,119.36,0,8.71,4.1,13.83,15.88,13.83,32.27,0,70.18-29.2,92.72-57.38-9.73-12.81-17.42-32.27-17.42-56.86,0-36.88,21-49.69,35.86-49.69,15.88,0,29.2,12.29,29.2,38.42,0,28.69-17.93,54.3-27.66,67.62,5.12,8.71,15.37,16.39,30.74,16.39,6.66,0,14.34-1.02,21.52-10.25,7.17-8.2,19.47,2.05,12.81,10.76-8.2,9.22-20.49,14.86-33.81,14.86Zm-32.79-121.41c-9.73,0-19.98,10.25-19.98,31.25,0,23.05,4.61,36.37,11.27,47.13,8.71-10.25,22.54-32.27,22.54-54.81,0-15.88-6.15-23.56-13.83-23.56Z"/><path class="cls-15" d="m1360.73,1406.14c-24.59,0-28.69-17.42-24.08-36.88-17.42,18.95-39.45,36.88-60.96,36.88-46.11,0-45.59-35.86-34.83-68.65-3.07,4.1-5.64,7.68-8.2,11.27-6.66,8.71-19.98-1.54-13.32-10.25,34.32-44.57,72.75-112.19,137.29-112.7,20.49,0,32.27,5.12,40.98,11.78l3.59-7.17c5.12-10.25,19.47-2.56,14.34,7.68-3.59,7.68-61.47,114.75-64.55,141.39-.51,6.15,2.56,10.25,9.73,10.25,31.76,0,53.28-29.71,71.21-51.23,6.66-8.71,19.47,1.54,12.81,10.25-22.03,26.64-47.64,57.38-84.01,57.38Zm29.2-153.17c-9.22-9.22-21-10.76-33.3-10.76-32.27,0-62.5,23.05-85.04,64.04-10.25,19.47-43.54,83.5,4.1,83.5,31.25,0,78.38-65.06,91.19-90.67l23.05-46.11Z"/><path class="cls-15" d="m1628.14,1350.3c-4.1,5.12-14.86,11.27-26.13,11.27-25.61,0-36.37-21-24.59-53.79,5.63-16.39,15.88-43.54,17.93-50.2,1.54-6.66.51-12.29-7.17-12.29-17.93,0-49.69,45.08-95.8,130.63l-14.34,26.64c-2.56,5.12-7.68,4.61-11.27,3.07-3.07-2.05-6.15-6.66-3.59-11.27l65.06-122.95c2.05-4.61,4.61-10.76,5.64-16.39.51-4.1-.51-9.22-4.61-9.22s-7.68,3.07-14.86,11.27c-7.17,8.71-40.47,53.79-69.16,91.7-3.07,4.1-8.71,4.1-11.78,1.54-3.07-2.05-5.12-7.17-1.54-11.27,13.83-16.91,63.52-84.01,70.18-92.72,7.17-9.22,16.91-15.88,28.17-15.88,8.71,0,17.42,5.12,18.44,17.42,0,3.07-1.02,9.22-2.05,13.83,13.32-18.95,27.15-32.27,43.03-32.27,17.93,0,24.08,14.34,22.54,25.61-.51,5.64-2.56,11.27-4.1,15.88-2.05,5.12-11.78,30.74-15.37,41.5-8.2,24.08-2.05,33.3,9.73,33.3,6.15,0,11.27-3.07,14.86-8.2,3.07-4.1,8.71-4.1,11.78-1.02,3.59,3.59,3.59,8.2-1.02,13.83Z"/><path class="cls-15" d="m425.01,2122.32c16.39-.51,43.03-2.05,58.4-10.76,9.22-5.12,17.42,8.71,8.2,14.34,0,0-2.05,1.02-5.12,2.56-21,8.2-40.98,10.25-63.01,10.25-2.05,0-4.1,0-6.15-.51l-56.86,123.46c-4.1,9.73-19.47,3.07-14.86-7.17l54.3-117.83c-32.27-4.1-51.23-9.73-85.04-9.73-17.42,0-48.67,2.05-67.11,5.63-9.73,2.05-13.83-9.22-8.71-14.34,12.29-11.78,24.59-26.64,27.66-30.74,28.18-35.35,65.57-94.26,87.6-159.83,3.59-10.25,18.95-5.12,15.88,5.12-18.44,54.81-60.96,132.17-104.51,181.35,9.22-1.02,37.91-3.59,49.18-3.59,39.45,0,57.89,7.17,92.21,10.76l71.21-153.68c4.1-9.73,19.47-3.07,14.86,7.17l-68.13,147.54Z"/><path class="cls-15" d="m841.49,2209.92c-4.1,5.12-14.86,11.27-26.13,11.27-25.61,0-36.37-21-24.59-53.79,5.63-16.39,15.88-43.54,17.93-50.2,1.54-6.66.51-12.29-7.17-12.29-17.93,0-49.69,45.08-95.8,130.63l-14.34,26.64c-2.56,5.12-7.69,4.61-11.27,3.07-3.07-2.05-6.15-6.66-3.59-11.27l65.06-122.95c2.05-4.61,4.61-10.76,5.63-16.39.51-4.1-.51-9.22-4.61-9.22s-7.68,3.07-14.86,11.27c-7.17,8.71-40.47,53.79-69.16,91.7-3.07,4.1-8.71,4.1-11.78,1.54-3.07-2.05-5.12-7.17-1.54-11.27,13.83-16.91,63.52-84.01,70.18-92.72,7.17-9.22,16.91-15.88,28.18-15.88,8.71,0,17.42,5.12,18.44,17.42,0,3.07-1.02,9.22-2.05,13.83,13.32-18.95,27.15-32.27,43.03-32.27,17.93,0,24.08,14.34,22.54,25.61-.51,5.63-2.56,11.27-4.1,15.88-2.05,5.12-11.78,30.74-15.37,41.5-8.2,24.08-2.05,33.3,9.73,33.3,6.15,0,11.27-3.07,14.86-8.2,3.07-4.1,8.71-4.1,11.78-1.02,3.59,3.59,3.59,8.2-1.03,13.83Z"/><path class="cls-15" d="m971.1,2265.76c-24.59,0-28.69-17.42-24.08-36.88-17.42,18.95-39.45,36.88-60.96,36.88-46.11,0-45.59-35.86-34.83-68.65-3.07,4.1-5.64,7.68-8.2,11.27-6.66,8.71-19.98-1.54-13.32-10.25,34.32-44.57,72.75-112.19,137.29-112.7,20.49,0,32.27,5.12,40.98,11.78l3.59-7.17c5.12-10.25,19.47-2.56,14.34,7.68-3.59,7.68-61.47,114.75-64.55,141.39-.51,6.15,2.56,10.25,9.73,10.25,31.76,0,53.28-29.71,71.21-51.23,6.66-8.71,19.47,1.54,12.81,10.25-22.03,26.64-47.64,57.38-84.02,57.38Zm29.2-153.17c-9.22-9.22-21-10.76-33.3-10.76-32.27,0-62.5,23.05-85.04,64.04-10.25,19.47-43.54,83.5,4.1,83.5,31.25,0,78.38-65.06,91.19-90.67l23.05-46.11Z"/><path class="cls-15" d="m1198.04,2287.28l-28.18,57.38c-23.05,45.59-44.06,85.55-78.89,85.55-56.35,0-63.01-85.04,22.03-121.92,16.9-7.17,44.06-19.47,72.74-33.3l42.52-85.55c-31.25,37.91-71.72,76.84-109.12,76.84-18.44,0-32.27-10.25-32.27-29.71.51-45.08,73.26-102.97,69.67-134.22-26.12,1.02-88.62,90.16-100.92,106.04-7.17,8.71-19.98-1.54-13.32-10.25l43.54-54.81c32.27-41.5,51.23-57.38,71.72-57.38,16.91,0,16.91,18.44,13.32,30.74-12.29,38.42-67.62,87.6-67.62,119.87,0,8.2,4.1,13.32,15.88,13.32,54.81,0,133.2-116.29,158.3-159.83,6.15-9.73,19.47-2.56,14.86,7.68l-81.96,164.96c42.52-21.52,83.5-46.11,97.85-64.04,6.66-8.71,19.47,1.02,12.81,9.73-18.44,24.08-72.23,54.3-122.95,78.89Zm-24.08,11.78c-20.49,9.73-39.96,17.93-54.3,24.59-38.93,16.39-53.28,40.98-54.3,58.91-1.54,18.44,9.22,31.25,25.61,31.25,22.54,0,38.93-26.13,64.04-76.33l18.95-38.42Z"/><path class="cls-15" d="m1450.09,2265.76c-24.59,0-28.69-17.42-24.08-36.88-17.42,18.95-39.45,36.88-60.96,36.88-46.11,0-45.59-35.86-34.84-68.65-3.07,4.1-5.63,7.68-8.2,11.27-6.66,8.71-19.98-1.54-13.32-10.25,34.32-44.57,72.74-112.19,137.29-112.7,20.49,0,32.28,5.12,40.98,11.78l3.59-7.17c5.12-10.25,19.47-2.56,14.34,7.68-3.59,7.68-61.47,114.75-64.55,141.39-.51,6.15,2.56,10.25,9.73,10.25,31.76,0,53.28-29.71,71.21-51.23,6.66-8.71,19.47,1.54,12.81,10.25-22.03,26.64-47.64,57.38-84.01,57.38Zm29.2-153.17c-9.22-9.22-21-10.76-33.3-10.76-32.27,0-62.5,23.05-85.04,64.04-10.24,19.47-43.54,83.5,4.1,83.5,31.25,0,78.38-65.06,91.19-90.67l23.05-46.11Z"/><path class="cls-15" d="m1579.69,2266.27c-36.88,0-63.52-18.44-80.94-66.08-3.59-10.25,11.27-16.39,15.37-6.15,16.39,43.54,34.84,55.84,65.57,55.84s33.3-29.71,27.66-62.5c-3.59-21.52-6.15-38.42-8.71-54.81l-1.54,2.05c-20.49,24.59-63.01,74.28-63.01,74.28-6.66,8.2-19.47-2.56-12.29-10.76,0,0,33.81-40.47,63.52-74.28,2.56-3.07,8.2-8.71,13.83-15.37-1.54-17.42,2.56-30.74,17.93-30.74s12.29,15.37,6.66,24.08c-1.54,3.59-7.69,10.76-10.76,14.86,3.59,25.61,8.2,46.11,11.78,68.13,4.61,29.2,4.1,46.11-5.63,62.5,26.13-11.27,43.54-31.25,56.35-48.67,6.66-8.71,19.47,1.02,13.32,9.73-26.64,36.37-54.3,57.89-109.12,57.89Z"/><path class="cls-17" d="m427.85,3126.48c-46.11,0-86.58-23.05-103.48-45.59-4.1-5.12-4.61-11.27-.51-14.86,4.1-3.07,8.71-2.05,13.83,4.61,18.44,23.56,53.79,37.91,90.67,37.91,81.45,0,89.14-67.11,97.85-109.63,12.81-59.94,27.66-96.82,27.66-96.82-24.08,29.71-59.42,59.94-109.63,59.94-16.39,0-29.2-3.07-38.42-8.71-65.06,64.04-169.57,136.27-224.89,171.62-8.71,5.63-18.44-8.71-9.73-14.34,1.02-.51,141.9-90.16,221.82-168.54-35.86-46.62,34.32-160.34,73.26-160.34,54.3,0-9.22,107.07-13.32,114.24-7.68,13.83-19.98,29.2-34.83,45.08,6.15,3.07,14.34,4.61,24.59,4.61,91.7,0,134.73-113.21,135.24-114.75,3.59-10.25,18.96-3.59,15.37,7.17-23.05,65.06-34.84,91.7-51.23,161.37-14.34,61.99-20.49,92.72-53.28,109.12,42.01-5.63,74.79-21,96.31-50.2,6.66-8.71,19.98,1.54,13.32,10.25-44.57,58.91-105.53,57.89-170.59,57.89Zm43.03-327.35c0-.51-1.54-1.02-3.07-1.02-23.05,0-88.62,94.26-63.01,132.17,27.15-28.69,60.45-80.94,66.6-119.87,1.02-7.68,0-10.76-.51-11.27Z"/><path class="cls-15" d="m726.51,3125.46c-24.59,0-28.69-17.42-24.08-36.88-17.42,18.95-39.45,36.88-60.96,36.88-46.11,0-45.59-35.86-34.83-68.65-3.07,4.1-5.64,7.68-8.2,11.27-6.66,8.71-19.98-1.54-13.32-10.25,34.32-44.57,72.75-112.19,137.29-112.7,20.49,0,32.27,5.12,40.98,11.78l3.59-7.17c5.12-10.25,19.47-2.56,14.34,7.68-3.59,7.68-61.47,114.75-64.55,141.39-.51,6.15,2.56,10.25,9.73,10.25,31.76,0,53.28-29.71,71.21-51.23,6.66-8.71,19.47,1.54,12.81,10.25-22.03,26.64-47.64,57.38-84.01,57.38Zm29.2-153.17c-9.22-9.22-21-10.76-33.3-10.76-32.27,0-62.5,23.05-85.04,64.04-10.25,19.47-43.54,83.5,4.1,83.5,31.25,0,78.38-65.06,91.19-90.67l23.05-46.11Z"/><path class="cls-15" d="m993.93,3069.62c-4.1,5.12-14.86,11.27-26.13,11.27-25.61,0-36.37-21-24.59-53.79,5.63-16.39,15.88-43.54,17.93-50.2,1.54-6.66.51-12.29-7.17-12.29-17.93,0-49.69,45.08-95.8,130.63l-14.34,26.64c-2.56,5.12-7.68,4.61-11.27,3.07-3.07-2.05-6.15-6.66-3.59-11.27l65.06-122.95c2.05-4.61,4.61-10.76,5.64-16.39.51-4.1-.51-9.22-4.61-9.22s-7.68,3.07-14.86,11.27c-7.17,8.71-40.47,53.79-69.16,91.7-3.07,4.1-8.71,4.1-11.78,1.54-3.07-2.05-5.12-7.17-1.54-11.27,13.83-16.91,63.52-84.01,70.18-92.72,7.17-9.22,16.91-15.88,28.17-15.88,8.71,0,17.42,5.12,18.44,17.42,0,3.07-1.02,9.22-2.05,13.83,13.32-18.95,27.15-32.27,43.03-32.27,17.93,0,24.08,14.34,22.54,25.61-.51,5.63-2.56,11.27-4.1,15.88-2.05,5.12-11.78,30.74-15.37,41.5-8.2,24.08-2.05,33.3,9.73,33.3,6.15,0,11.27-3.07,14.86-8.2,3.07-4.1,8.71-4.1,11.78-1.02,3.59,3.59,3.59,8.2-1.02,13.83Z"/><path class="cls-15" d="m1178.35,3069.62c-4.1,5.12-14.86,11.27-26.13,11.27-25.61,0-36.37-21-24.59-53.79,5.63-16.39,15.88-43.54,17.93-50.2,1.54-6.66.51-12.29-7.17-12.29-17.93,0-49.69,45.08-95.8,130.63l-14.34,26.64c-2.56,5.12-7.68,4.61-11.27,3.07-3.07-2.05-6.15-6.66-3.59-11.27l65.06-122.95c2.05-4.61,4.61-10.76,5.64-16.39.51-4.1-.51-9.22-4.61-9.22s-7.68,3.07-14.86,11.27c-7.17,8.71-40.47,53.79-69.16,91.7-3.07,4.1-8.71,4.1-11.78,1.54-3.07-2.05-5.12-7.17-1.54-11.27,13.83-16.91,63.52-84.01,70.18-92.72,7.17-9.22,16.91-15.88,28.17-15.88,8.71,0,17.42,5.12,18.44,17.42,0,3.07-1.02,9.22-2.05,13.83,13.32-18.95,27.15-32.27,43.03-32.27,17.93,0,24.08,14.34,22.54,25.61-.51,5.63-2.56,11.27-4.1,15.88-2.05,5.12-11.78,30.74-15.37,41.5-8.2,24.08-2.05,33.3,9.73,33.3,6.15,0,11.27-3.07,14.86-8.2,3.07-4.1,8.71-4.1,11.78-1.02,3.59,3.59,3.59,8.2-1.02,13.83Z"/><path class="cls-15" d="m1307.95,3125.46c-24.59,0-28.69-17.42-24.08-36.88-17.42,18.95-39.45,36.88-60.96,36.88-46.11,0-45.59-35.86-34.83-68.65-3.07,4.1-5.64,7.68-8.2,11.27-6.66,8.71-19.98-1.54-13.32-10.25,34.32-44.57,72.75-112.19,137.29-112.7,20.49,0,32.27,5.12,40.98,11.78l3.59-7.17c5.12-10.25,19.47-2.56,14.34,7.68-3.59,7.68-61.47,114.75-64.55,141.39-.51,6.15,2.56,10.25,9.73,10.25,31.76,0,53.28-29.71,71.21-51.23,6.66-8.71,19.47,1.54,12.81,10.25-22.03,26.64-47.64,57.38-84.01,57.38Zm29.2-153.17c-9.22-9.22-21-10.76-33.3-10.76-32.27,0-62.5,23.05-85.04,64.04-10.25,19.47-43.54,83.5,4.1,83.5,31.25,0,78.38-65.06,91.19-90.67l23.05-46.11Z"/><path class="cls-15" d="m1484.69,2958.96l-59.94,70.69c1.54.51,2.56.51,4.1,1.02,19.47,5.64,23.05,28.69,22.54,49.18,12.29,1.02,29.2-4.61,43.54-22.03,7.17-8.2,19.47,2.05,12.81,10.76-13.83,15.88-33.3,28.69-57.89,27.15-.51,3.07-1.02,5.63-1.54,7.68-5.12,24.59-15.37,50.2-23.57,69.16-26.13,55.84-76.84,117.31-113.21,117.31-43.54,0,3.59-82.99,8.71-93.24l64.55-125c-5.64-1.02-10.25-8.2-5.12-13.83l30.74-36.37,78.89-154.2c12.81-24.08,35.35-85.55,67.62-85.55,89.65,0-64.55,168.03-72.23,177.25Zm-76.84,103.99l-72.74,141.39c-2.56,4.61-29.71,58.91-25.61,69.16h2.05c24.59,0,71.21-50.72,98.36-108.09,5.64-12.29,18.96-44.57,23.57-72.75-14.34-5.63-23.05-17.93-25.61-29.71Zm20.49-13.32c-1.54-2.05-3.07-3.07-4.1-3.07-5.12,8.71,0,21,11.27,28.18,0-10.25-2.05-19.47-7.17-25.1Zm128.58-251.53c-19.98,0-45.08,61.47-52.76,76.33l-47.13,91.7,15.37-17.42c13.83-16.91,98.87-115.78,96.31-144.98,0-2.56-1.02-5.63-11.78-5.63Z"/><path class="cls-15" d="m1635.81,3125.46c-24.59,0-28.69-17.42-24.08-36.88-17.42,18.95-39.45,36.88-60.96,36.88-46.11,0-45.59-35.86-34.83-68.65-3.07,4.1-5.64,7.68-8.2,11.27-6.66,8.71-19.98-1.54-13.32-10.25,34.32-44.57,72.75-112.19,137.29-112.7,20.49,0,32.27,5.12,40.98,11.78l3.59-7.17c5.12-10.25,19.47-2.56,14.34,7.68-3.59,7.68-61.47,114.75-64.55,141.39-.51,6.15,2.56,10.25,9.73,10.25,31.76,0,53.28-29.71,71.21-51.23,6.66-8.71,19.47,1.54,12.81,10.25-22.03,26.64-47.64,57.38-84.01,57.38Zm29.2-153.17c-9.22-9.22-21-10.76-33.3-10.76-32.27,0-62.5,23.05-85.04,64.04-10.25,19.47-43.54,83.5,4.1,83.5,31.25,0,78.38-65.06,91.19-90.67l23.05-46.11Z"/><g class="cls-14"><path class="cls-16" d="m1219.34,1338.52c-7.17,9.22-14.86,10.25-21.52,10.25-15.37,0-25.61-7.68-30.74-16.39,9.73-13.32,27.66-38.93,27.66-67.62,0-26.13-13.32-38.42-29.2-38.42-14.86,0-35.86,12.81-35.86,49.69,0,24.59,7.68,44.06,17.42,56.86-22.54,28.18-60.45,57.38-92.72,57.38-11.78,0-15.88-5.12-15.88-13.83,0-20.71,22.68-46.93,42.36-73.5-4.48-2.8-8.96-5.6-13.45-8.4-20.18,27.07-45.3,57.7-45.3,81.91,0,19.98,13.32,30.23,32.27,30.23,38.93,0,78.38-32.27,102.46-61.99,7.17,8.71,21.52,19.47,41.5,19.47,13.32,0,25.61-5.64,33.81-14.86,6.66-8.71-5.63-18.95-12.81-10.76Zm-62.5-17.42c-6.66-10.76-11.27-24.08-11.27-47.13,0-21,10.25-31.25,19.98-31.25,7.68,0,13.83,7.68,13.83,23.56,0,22.54-13.83,44.57-22.54,54.81Z"/></g><g class="cls-18"><path class="cls-16" d="m1198.04,2287.28l-28.18,57.38c-23.05,45.59-44.06,85.55-78.89,85.55-56.35,0-63.01-85.04,22.03-121.92,16.9-7.17,44.06-19.47,72.74-33.3l42.52-85.55c-31.25,37.91-71.72,76.84-109.12,76.84-18.44,0-32.27-10.25-32.27-29.71.51-45.08,73.26-102.97,69.67-134.22-26.12,1.02-88.62,90.16-100.92,106.04-7.17,8.71-19.98-1.54-13.32-10.25l43.54-54.81c32.27-41.5,51.23-57.38,71.72-57.38,16.91,0,16.91,18.44,13.32,30.74-12.29,38.42-67.62,87.6-67.62,119.87,0,8.2,4.1,13.32,15.88,13.32,54.81,0,133.2-116.29,158.3-159.83,6.15-9.73,19.47-2.56,14.86,7.68l-81.96,164.96c42.52-21.52,83.5-46.11,97.85-64.04,6.66-8.71,19.47,1.02,12.81,9.73-18.44,24.08-72.23,54.3-122.95,78.89Zm-24.08,11.78c-20.49,9.73-39.96,17.93-54.3,24.59-38.93,16.39-53.28,40.98-54.3,58.91-1.54,18.44,9.22,31.25,25.61,31.25,22.54,0,38.93-26.13,64.04-76.33l18.95-38.42Z"/></g><g class="cls-20"><path class="cls-16" d="m841.49,2209.92c-4.1,5.12-14.86,11.27-26.13,11.27-25.61,0-36.37-21-24.59-53.79,5.63-16.39,15.88-43.54,17.93-50.2,1.54-6.66.51-12.29-7.17-12.29-17.93,0-49.69,45.08-95.8,130.63l-14.34,26.64c-2.56,5.12-7.69,4.61-11.27,3.07-3.07-2.05-6.15-6.66-3.59-11.27l65.06-122.95c2.05-4.61,4.61-10.76,5.63-16.39.51-4.1-.51-9.22-4.61-9.22s-7.68,3.07-14.86,11.27c-7.17,8.71-40.47,53.79-69.16,91.7-3.07,4.1-8.71,4.1-11.78,1.54-3.07-2.05-5.12-7.17-1.54-11.27,13.83-16.91,63.52-84.01,70.18-92.72,7.17-9.22,16.91-15.88,28.18-15.88,8.71,0,17.42,5.12,18.44,17.42,0,3.07-1.02,9.22-2.05,13.83,13.32-18.95,27.15-32.27,43.03-32.27,17.93,0,24.08,14.34,22.54,25.61-.51,5.63-2.56,11.27-4.1,15.88-2.05,5.12-11.78,30.74-15.37,41.5-8.2,24.08-2.05,33.3,9.73,33.3,6.15,0,11.27-3.07,14.86-8.2,3.07-4.1,8.71-4.1,11.78-1.02,3.59,3.59,3.59,8.2-1.03,13.83Z"/></g><g class="cls-19"><path class="cls-16" d="m1484.69,2958.96l-59.94,70.69c1.54.51,2.56.51,4.1,1.02,19.47,5.64,23.05,28.69,22.54,49.18,12.29,1.02,29.2-4.61,43.54-22.03,7.17-8.2,19.47,2.05,12.81,10.76-13.83,15.88-33.3,28.69-57.89,27.15-.51,3.07-1.02,5.63-1.54,7.68-5.12,24.59-15.37,50.2-23.57,69.16-26.13,55.84-76.84,117.31-113.21,117.31-43.54,0,3.59-82.99,8.71-93.24l64.55-125c-5.64-1.02-10.25-8.2-5.12-13.83l30.74-36.37,78.89-154.2c12.81-24.08,35.35-85.55,67.62-85.55,89.65,0-64.55,168.03-72.23,177.25Zm-76.84,103.99l-72.74,141.39c-2.56,4.61-29.71,58.91-25.61,69.16h2.05c24.59,0,71.21-50.72,98.36-108.09,5.64-12.29,18.96-44.57,23.57-72.75-14.34-5.63-23.05-17.93-25.61-29.71Zm20.49-13.32c-1.54-2.05-3.07-3.07-4.1-3.07-5.12,8.71,0,21,11.27,28.18,0-10.25-2.05-19.47-7.17-25.1Zm128.58-251.53c-19.98,0-45.08,61.47-52.76,76.33l-47.13,91.7,15.37-17.42c13.83-16.91,98.87-115.78,96.31-144.98,0-2.56-1.02-5.63-11.78-5.63Z"/></g><path class="cls-15" d="m847.72,3072.54c-17.12,17.12-37.27,29.71-58.42,37.27-18.63,6.55-38.27,13.09-62.45,13.09-15.11,0-13.6-22.16,0-22.16,21.15,0,36.76-5.04,54.39-12.09l1.51-.5c32.73-11.58,60.43-37.27,79.57-70,27.7-47.84,91.66-82.09,135.47-86.62,24.17-78.06,59.93-163.17,96.69-163.17,22.16,0,32.23,14.6,32.23,40.29,0,52.88-67.99,173.24-135.97,249.28.5,29.71,13.09,42.81,41.29,42.81,21.15,0,36.76-5.04,54.39-12.09,13.09-5.04,22.16,15.61,8.06,21.15-18.63,7.05-38.27,13.09-62.45,13.09-33.24,0-54.39-15.61-60.94-44.32-28.2,27.7-54.89,45.83-75.54,45.83-29.71,0-46.83-18.63-47.84-51.87Zm121.37-22.66c2.01-16.62,9.57-53.38,21.66-95.18-57.41,10.58-120.86,60.43-120.86,114.32,0,23.17,8.06,33.24,25.68,33.24s44.82-21.15,73.53-52.38Zm135.47-241.22c0-15.11-2.52-18.13-10.07-18.13-36.76,0-80.58,150.58-97.2,226.12,54.89-68.99,107.27-162.16,107.27-207.99Z"/></svg>