<?xml version="1.0" encoding="UTF-8"?><svg xmlns="http://www.w3.org/2000/svg" xmlns:xlink="http://www.w3.org/1999/xlink" viewBox="0 0 1920 4588.36"><defs><style>.cls-1,.cls-2,.cls-3,.cls-4,.cls-5,.cls-6,.cls-7,.cls-8,.cls-9,.cls-10,.cls-11,.cls-12{fill:none;}.cls-13{clip-path:url(#clippath);}.cls-2{stroke-dasharray:0 0 1.99 19.9;}.cls-2,.cls-3,.cls-4,.cls-5,.cls-6,.cls-7,.cls-8,.cls-9,.cls-10,.cls-11,.cls-12{stroke-miterlimit:10;}.cls-2,.cls-3,.cls-4,.cls-5,.cls-6,.cls-7,.cls-8,.cls-9,.cls-10,.cls-12{stroke:#a797c9;stroke-linecap:round;stroke-width:7px;}.cls-14{fill:#fff;}.cls-15{fill:#937fbb;}.cls-16{fill:#171c32;}.cls-17{fill:#947fbb;}.cls-3{stroke-dasharray:0 0 1.88 18.81;}.cls-18{clip-path:url(#clippath-1);}.cls-19{clip-path:url(#clippath-2);}.cls-5{stroke-dasharray:0 0 1.71 17.05;}.cls-6{stroke-dasharray:0 0 1.76 17.62;}.cls-7{stroke-dasharray:0 0 1.92 19.25;}.cls-8{stroke-dasharray:0 0 1.75 17.45;}.cls-9{stroke-dasharray:0 0 1.74 17.42;}.cls-10{stroke-dasharray:0 0 1.74 17.45;}.cls-11{stroke:#57678b;stroke-width:3.5px;}.cls-12{stroke-dasharray:0 0 1.67 16.66;}</style><clipPath id="clippath"><path class="cls-1" d="m638.35,473.85l-6.65,15.3,4.47,9.05c.61,1.23,1.61,2.21,2.85,2.78l15.52,7.2,13,39.82,123.12-15.96,21.48-21.48,23.34-10.47,19.37-26.24-51.54-14.96-85.8,12.64-79.14,2.33Z"/></clipPath><clipPath id="clippath-1"><circle class="cls-1" cx="1423.82" cy="509.13" r="62.78"/></clipPath><clipPath id="clippath-2"><circle class="cls-1" cx="1617.83" cy="4166.79" r="164.36"/></clipPath></defs><g id="Background"><rect class="cls-16" width="1920" height="4589.76"/></g><g id="Horizontal_Guides"><line class="cls-11" y1="1306.07" x2="1920" y2="1306.07"/><line class="cls-11" y1="1592.55" x2="1920" y2="1592.55"/><line class="cls-11" x1="1920" y1="1782.7" y2="1782.7"/><line class="cls-11" y1="2067.55" x2="1920" y2="2067.55"/><line class="cls-11" y1="2421.6" x2="1920" y2="2421.6"/><line class="cls-11" y1="2708.08" x2="1920" y2="2708.08"/><line class="cls-11" x1="1920" y1="2898.23" y2="2898.23"/><line class="cls-11" y1="3180.08" x2="1920" y2="3180.08"/><line class="cls-11" y1="3532.84" x2="1920" y2="3532.84"/><line class="cls-11" y1="3819.32" x2="1920" y2="3819.32"/><line class="cls-11" x1="1920" y1="4009.47" y2="4009.47"/><line class="cls-11" y1="4294.32" x2="1920" y2="4294.32"/><line class="cls-11" y1="200.05" x2="1920" y2="200.05"/><line class="cls-11" y1="486.52" x2="1920" y2="486.52"/><line class="cls-11" x1="1920" y1="676.67" y2="676.67"/><line class="cls-11" y1="961.53" x2="1920" y2="961.53"/></g><g id="words"><circle class="cls-15" cx="1617.83" cy="4166.79" r="164.36"/><circle class="cls-15" cx="1654.37" cy="1445.57" r="99.23"/><circle class="cls-15" cx="1423.82" cy="509.13" r="62.78"/><path class="cls-14" d="m352.11,202.72c48.82,0,100.38,21.32,99.7,106.23l-64.63,176.7c-50.19,115.85-106.57,190.8-189.77,190.8-49.16,0-100.73-36.1-100.73-136.14,0-166.73,145.76-337.59,255.43-337.59Zm-154.7,455.86c72.88,0,124.45-67.38,173.27-179.8l63.25-173.27c-.69-68.41-39.19-84.91-81.82-84.91-98.66,0-237.55,162.27-237.55,319.72,0,88.35,41.94,118.26,82.85,118.26Zm774.88-173.61c5.16,0,8.94,4.12,8.94,8.94,0,2.06-.69,4.12-1.72,5.84-29.91,36.78-54.32,66.35-76.32,90.42-61.19,66.69-93.85,86.29-114.48,86.29-18.91,0-28.19-16.16-18.91-46.41,4.81-16.84,30.25-85.26,48.47-136.48-.69,2.41,6.19,9.28,9.28,7.56-10.66,5.5-24.75,18.22-41.25,18.22-20.28,0-36.44-16.84-47.1-16.84s-23.72,24.75-45.04,24.75c-18.56,0-32.32-10.66-46.41-26.13,1.38,1.38,7.22-2.41,7.22-1.38-4.13,117.23-83.2,176.7-128.92,176.7-26.47,0-44.35-18.22-30.25-61.88,38.5-119.29,111.39-310.78,125.48-345.5,18.56-45.38,38.85-66.35,64.63-66.35,27.85,0,38.85,24.41,38.85,47.44,0,42.29-35.75,92.48-70.13,135.45-33,41.25-55.69,64.29-93.51,102.1l-6.19,6.19c-17.88,17.88-176.36,182.55-221.74,182.55-18.22,0-25.1-18.56-16.84-46.41,5.5-18.56,127.88-351.34,152.64-421.47,1.03-3.44,4.47-5.85,8.25-5.85,7.22,0,10.32,6.88,8.59,12.03-24.75,70.48-147.14,402.22-152.29,420.1-4.81,16.16-2.41,23.72-.35,23.72,34.72,0,191.14-159.17,209.36-177.05l6.19-6.19c37.82-37.82,59.82-60.16,92.13-100.73,33.69-42.29,66.01-88.35,66.01-124.45,0-16.85-6.19-29.57-20.97-29.57-16.16,0-31.63,15.13-48.13,55.35-14.1,34.72-86.29,225.52-124.79,344.12-9.97,29.91-2.75,38.5,13.06,38.5,36.78,0,107.6-53.29,111.04-158.83,0-14.09,15.13-20.97,24.41-10.31,12.03,13.41,20.97,19.94,32.66,19.94,13.41,0,23.38-24.75,45.04-24.75,18.91,0,31.28,16.85,47.1,16.85,9.97,0,19.6-9.28,33-16.16,9.97-5.16,19.6,3.44,16.16,14.44-18.91,51.23-43.66,118.95-48.47,135.11-5.5,18.22-3.78,23.72,1.72,23.72,13.75,0,42.97-17.19,101.42-80.79,21.66-23.38,45.72-52.6,75.29-89.38,1.72-2.06,4.12-3.44,6.87-3.44Zm113.79,191.48c-6.53,0-10.31-6.53-8.59-12.03,65.32-181.17,119.29-338.28,143.36-395.69,20.28-46.75,38.16-66.01,64.63-66.01,27.85,0,38.85,24.41,38.85,47.44,0,42.29-35.75,92.48-70.13,135.45-33,41.25-58.44,67.04-93.51,102.1l-6.19,6.19c-18.22,18.56-177.73,182.55-219.67,182.55-18.91,0-28.19-16.16-18.91-46.41,5.16-17.19,32.66-90.41,49.5-138.89,1.03-3.78,4.47-6.19,8.25-6.19,7.22,0,10.31,6.87,8.59,12.03-16.84,48.47-44.35,121.7-49.16,137.86-5.5,18.22-3.78,23.72,1.72,23.72,30.94,0,187.36-157.45,207.3-177.05l6.19-6.19c35.07-35.06,59.82-60.16,92.13-100.73,33.69-42.29,66.01-88.35,66.01-124.45,0-16.85-6.19-29.57-20.97-29.57-16.84,0-29.91,13.06-48.13,55-24.07,57.07-77.69,213.49-143.01,395-1.03,3.44-4.47,5.84-8.25,5.84Zm-106.92-239.27c0-6.88,5.5-12.38,12.38-12.38s12.38,5.5,12.38,12.38-5.5,12.38-12.38,12.38-12.38-5.5-12.38-12.38Zm354.09,106.23c4.81,0,8.59,3.78,8.59,8.59,0,2.06-.69,3.78-1.72,5.16-29.22,37.82-93.51,118.6-138.54,118.6-36.1,0-66.69-46.41-89.73-79.41-1.03-1.37-1.38-3.09-1.38-4.81,0-4.81,3.78-8.94,8.59-8.94,3.09,0,5.5,1.72,7.22,3.78,23.03,33,49.85,72.88,75.29,72.88,34.04,0,95.23-74.6,124.8-112.76,1.72-2.06,4.12-3.09,6.87-3.09Zm-210.39,31.28c-4.81,0-8.94-4.12-8.94-8.94,0-1.72.34-3.44,1.37-4.81,30.25-49.16,70.48-75.97,96.95-75.97,16.16,0,27.5,10.66,27.5,29.91,0,42.29-50.88,71.51-116.54,73.91-4.47,0-9.28-3.78-9.28-8.94,0-4.81,4.12-8.94,8.59-8.94,58.1-2.06,99.35-26.47,99.35-56.04,0-8.94-3.09-12.03-9.63-12.03-19.25,0-54.66,23.38-81.82,67.73-1.72,2.41-4.47,4.12-7.56,4.12Zm286.37-89.73c25.44,0,45.03,19.6,45.03,60.16,0,69.79-56.38,131.32-101.76,131.32-28.19,0-44.35-22-44.35-60.16,0-73.57,58.1-131.32,101.07-131.32Zm-56.73,173.61c35.06,0,83.89-53.29,83.89-113.45,0-30.25-12.04-42.29-27.16-42.29-32.66,0-83.2,50.19-83.2,113.45,0,28.88,9.28,42.29,26.47,42.29Zm234.46-161.58c4.81,0,8.59,3.78,8.59,8.25,0,2.75-1.38,5.5-3.44,6.87-21.66,16.16-56.38,28.19-89.72,28.19-28.54,0-57.07-8.59-75.98-30.6-1.38-1.72-2.07-3.78-2.07-5.84,0-4.81,3.78-8.59,8.59-8.59,2.75,0,4.81,1.03,6.53,3.09,15.13,18.22,38.16,25.44,62.91,25.44,29.91,0,60.5-10.66,79.41-25.1,1.37-1.38,3.09-1.72,5.15-1.72Zm33.69-12.03c25.44,0,45.03,19.6,45.03,60.16,0,69.79-56.38,131.32-101.76,131.32-28.19,0-44.35-22-44.35-60.16,0-73.57,58.1-131.32,101.07-131.32Zm-56.73,173.61c35.06,0,83.89-53.29,83.89-113.45,0-30.25-12.04-42.29-27.16-42.29-32.66,0-83.2,50.19-83.2,113.45,0,28.88,9.28,42.29,26.47,42.29Zm110.01-11.69c0-4.81,3.78-8.94,8.59-8.94,2.75,0,5.5,1.38,7.22,3.78,5.84,8.25,14.44,17.53,29.91,17.53,30.6,0,39.19-38.51,49.16-82.16,7.9-35.75,12.37-54.66,25.09-72.19,6.19-7.91,11-11.69,19.6-20.28,1.03-1.03,12.03,10.31,10.66,11.69-31.28,26.13-68.41,44-110.35,44-28.54,0-57.07-8.59-75.98-30.6-1.38-1.72-2.07-3.78-2.07-5.84,0-4.81,3.78-8.59,8.59-8.59,2.75,0,4.81,1.03,6.53,3.09,15.13,18.22,38.16,25.44,62.91,25.44,37.13,0,69.44-15.13,98.66-40.56,9.63-7.56,22.69,3.78,13.41,13.06-8.59,8.59-12.72,11.69-17.53,18.22-10.66,14.1-14.44,30.25-22.35,66.01-9.97,44.35-20.63,95.23-66.35,95.23-23.38,0-36.78-13.75-44-23.72-1.03-1.37-1.72-3.44-1.72-5.16Z"/><path class="cls-14" d="m1812.49,482.93c-29.22,25.44-61.54,40.56-98.66,40.56-22.74,0-44.02-6.1-59.06-21.21-8.17-11.82-20.27-17.63-34.11-17.63-15.36,0-32.65,7.38-48.53,20.22-18.78,11.04-44.5,18.62-69.73,18.62-22.74,0-44.02-6.1-59.06-21.21-8.17-11.82-20.27-17.63-34.11-17.63-42.97,0-101.07,57.75-101.07,131.32,0,38.16,16.16,60.16,44.35,60.16,45.38,0,101.76-61.54,101.76-131.32,0-5.4-.36-10.42-1.02-15.08,15.01,7.18,32.08,10.26,49.15,10.26,14.53,0,29.31-2.28,43.17-6.2-15.43,22.36-25.98,50.83-25.98,82.17,0,38.16,16.16,60.16,44.35,60.16,45.38,0,101.76-61.54,101.76-131.32,0-5.4-.36-10.42-1.02-15.08,15.01,7.18,32.08,10.26,49.15,10.26,32.33,0,61.79-10.63,87.93-27.46l-.04.03s.06-.04.09-.06c7.75-5,15.22-10.53,22.37-16.51l-.23.17c.49-.41.99-.83,1.51-1.27,10.04-8.46-3.35-19.53-12.97-11.96Zm-459.98,175.33c-17.19,0-26.47-13.41-26.47-42.29,0-63.26,50.53-113.45,83.2-113.45,15.12,0,27.16,12.03,27.16,42.29,0,60.16-48.82,113.45-83.89,113.45Zm211.43,0c-17.19,0-26.47-13.41-26.47-42.29,0-63.26,50.53-113.45,83.2-113.45,15.12,0,27.16,12.03,27.16,42.29,0,60.16-48.82,113.45-83.89,113.45Z"/><path class="cls-14" d="m273.93,1681.45c4.47,0,8.25,3.09,9.28,7.22,11,50.88,56.04,74.26,103.82,74.26,73.22,0,118.95-51.91,118.95-107.26,0-104.51-161.58-124.45-161.58-256.8,0-58.1,51.23-91.79,100.04-91.79,33.35,0,68.07,15.82,91.1,50.88,1.03,1.72,1.37,3.44,1.37,5.16,0,5.16-4.12,9.28-9.28,9.28-3.09,0-5.85-1.72-7.56-4.13-19.25-29.56-47.79-42.63-75.63-42.63-40.57,0-81.48,27.5-81.48,73.22,0,121.7,161.58,140.61,161.58,256.8,0,64.98-53.29,125.82-137.51,125.82-54.32,0-108.98-27.5-122.04-88.7-1.37-5.84,3.09-11.34,8.94-11.34Zm380.56-47.44c5.16,0,8.94,3.78,8.94,8.94,0,2.41-.69,4.47-2.41,6.19-77.69,77.35-138.89,130.64-273.99,132.35-5.16,0-9.28-4.12-9.28-8.94s4.12-8.94,8.94-8.94c128.23-1.72,184.61-50.54,261.62-127.2,1.72-1.72,3.78-2.41,6.19-2.41Zm181.17,142.32c64.29-179.8,121.35-345.16,145.76-402.91,20.28-47.44,38.16-66.35,63.94-66.35,29.22,0,39.54,25.1,39.54,47.1,0,42.63-35.75,92.82-70.13,135.79-33,41.25-55.69,64.29-93.51,102.1l-6.19,6.19c-17.53,17.88-131.67,182.55-222.77,182.55-37.47,0-69.1-26.81-69.1-71.51,0-51.91,43.66-117.23,100.73-117.23,19.94,0,39.54,8.25,55,25.78,1.72,1.38,2.41,3.44,2.41,5.84,0,4.81-4.12,8.94-8.94,8.94-2.75,0-4.81-1.03-6.53-3.09-12.38-13.41-26.81-19.6-41.94-19.6-45.38,0-82.85,55.69-82.85,99.35,0,33.69,22.69,53.63,51.22,53.63,80.45,0,191.49-158.48,210.39-177.05l6.19-6.19c37.82-37.82,59.82-60.16,92.13-100.73,33.69-42.29,66.01-88.35,66.01-124.79,0-16.5-6.19-29.22-21.66-29.22s-29.22,13.06-47.44,55.35c-24.41,57.07-80.79,222.43-145.76,402.22l-16.5-6.19Zm322.81-187.02c5.16,0,8.94,4.12,8.94,8.94,0,2.06-.69,4.12-1.72,5.84-28.54,35.07-56.38,68.76-76.32,90.42-61.19,66.69-93.85,86.29-114.48,86.29-18.91,0-28.19-16.16-18.91-46.41,3.09-11,20.63-58.1,32.32-90.41,2.41-7.22,11-36.78-13.41-36.78-27.16,0-55.69,28.54-85.6,71.51-1.72,2.06-4.47,3.78-7.56,3.78-4.81,0-8.94-4.12-8.94-8.94,0-2.06.69-3.78,1.72-5.16,31.28-44.69,64.29-79.07,100.38-79.07,46.41,0,33,52.94,29.91,60.85-11.69,32.32-28.54,78.73-31.63,89.04-5.5,18.22-3.78,23.72,1.72,23.72,13.75,0,42.97-17.19,101.42-80.79,19.6-20.97,47.1-54.32,75.29-89.38,1.72-2.06,4.12-3.44,6.87-3.44Zm299.43,44.69c5.16,0,9.28,3.78,9.28,8.94,0,2.41-1.03,4.47-2.75,6.19-29.22,29.56-129.95,131.67-171.55,131.67-17.53,0-26.47-18.91-16.5-47.1,41.6-116.54,106.23-302.53,130.64-360.63,20.28-46.75,37.47-66.01,64.63-66.01s38.85,24.41,38.85,47.44c0,42.29-35.75,92.48-70.13,135.45-33,41.25-58.44,67.04-93.51,102.1l-6.19,6.19c-18.22,18.56-177.73,182.55-219.67,182.55-18.91,0-28.19-16.16-18.91-46.75,5.5-18.22,32.66-90.41,49.5-138.54,1.03-3.78,4.47-6.19,8.25-6.19,7.22,0,10.31,6.87,8.59,12.03-16.84,48.47-43.66,119.98-49.16,138.2-5.5,17.88-3.78,23.38,1.72,23.38,30.94,0,187.36-157.45,207.3-177.05l6.19-6.19c35.07-35.06,59.82-60.16,92.13-100.73,33.69-42.29,66.01-88.35,66.01-124.45,0-16.85-6.19-29.57-20.97-29.57-17.53,0-29.91,13.06-48.13,55-24.41,57.41-88.35,243.4-130.64,359.94-5.16,14.78-3.09,23.03,0,23.03,31.97,0,129.61-97.29,158.83-126.51,1.72-1.38,3.78-2.41,6.19-2.41Zm-292.56-92.48c0-6.88,5.5-12.38,12.38-12.38s12.38,5.5,12.38,12.38-5.5,12.38-12.38,12.38-12.38-5.5-12.38-12.38Zm375.41,47.79c25.44,0,52.94,15.13,52.26,51.91l-18.22,51.22c-24.75,45.03-65.67,88.35-107.95,88.35-25.1,0-52.6-15.47-52.6-57.41,0-67.04,71.85-134.07,126.51-134.07Zm-73.91,173.61c32.66,0,68.76-36.44,91.44-78.04l16.84-46.75c-.69-22-16.5-30.94-34.38-30.94-45.03,0-108.63,59.47-108.63,116.2,0,29.57,17.19,39.54,34.72,39.54Zm153.67-36.1c5.16,0,8.94,4.12,8.94,8.94,0,3.09-1.03,5.5-3.44,7.22-28.19,22-48.13,37.82-66.01,37.82-18.91,0-28.19-16.16-18.91-46.41,5.5-18.22,94.89-261.27,117.23-324.53,1.03-3.44,4.47-5.84,8.25-5.84,7.22,0,10.31,6.88,8.59,12.03-22.34,63.6-111.73,305.97-116.88,323.15-5.5,18.22-3.78,23.72,1.72,23.72,11,0,27.5-12.72,55.35-34.04,1.38-1.37,3.1-2.06,5.16-2.06Z"/><path class="cls-14" d="m1549.84,2531.7c1.72-5.16-1.37-12.03-8.59-12.03-3.78,0-7.22,2.41-8.25,5.84-12.35,34.97-45.2,124.89-73.03,201.4-9.85-15.26-27.65-21.94-44.55-21.94-18.42,0-38.79,7.62-57.7,20.28-.63.28-1.23.63-1.77,1.04-67.14,42.54-123.32,87.09-169.74,129.99,17.8-48.96,35.38-97.64,50.45-139.27,1.72-5.5-2.06-12.03-8.59-12.03-3.78,0-7.22,2.41-8.25,5.85-11.17,30.88-23.73,65.61-36.73,101.44-12.94,16.66-23.86,29.28-35.47,40.2-16.5,15.47-37.82,26.12-52.6,26.12-12.03,0-18.56-6.87-15.13-24.41,3.78-17.53,31.97-88.69,49.16-137.17,1.72-5.15-1.38-12.03-8.59-12.03-.18,0-.36.03-.53.04-.28-.02-.56-.04-.84-.04-2.75,0-5.16,1.38-6.88,3.44-25.44,31.97-55.69,68.41-75.29,89.38-58.44,63.6-87.67,80.79-101.42,80.79-5.5,0-7.22-5.5-1.72-23.72,1.66-6,32.36-93.66,61.03-174.98h41.42c4.81,0,8.94-4.13,8.94-8.94s-4.12-8.94-8.94-8.94h-35.12c16.55-46.9,31.61-89.38,38.9-109.67,1.72-5.5-2.06-12.03-8.59-12.03-3.78,0-7.22,2.41-8.25,5.84-7.71,21.23-23.74,66.54-41.08,115.86h-40.05c-4.81,0-8.94,4.12-8.94,8.94s4.12,8.94,8.94,8.94h33.77c-3.12,8.9-6.26,17.85-9.38,26.73-24.82,42.47-69.67,89.28-120.99,124.18-17.16,11.74-37.46,24.24-56.85,33.61,9.37-18.29,14.46-41.82,19.37-63.52,7.91-35.41,11.69-51.57,22.35-65.66,4.81-6.53,9.28-10.32,17.53-18.56,8.94-8.59-2.41-21.66-12.72-14.1-66.93,46.13-135.09,94.05-200.07,153.62,16.04-43.71,32.8-89.56,49.25-134.69,0-.01,0-.03.01-.04,42.63-116.9,83.25-228.99,104.05-286.69,1.72-5.5-2.06-12.03-8.59-12.03-3.78,0-7.22,2.41-8.25,5.84-20.75,57.56-61.17,169.13-103.62,285.59-35.48,64.98-114.77,164.42-180,164.42-30.94,0-40.22-23.03-33.69-50.53,10.66-43.66,108.29-298.75,141.29-393.29,1.72-5.15-1.38-12.03-8.59-12.03-3.78,0-7.22,2.41-8.25,6.19-33,94.2-130.98,350.32-141.64,395-9.28,38.16,7.56,72.54,50.88,72.54,53.39,0,110.92-53.42,153.12-108.65-12.03,32.9-23.92,65.36-35.28,96.28-38.35,37.99-75.31,80.71-109.93,130.28-23.38,33.35-51.91,91.79-51.91,127.54,0,20.28,9.63,35.75,31.63,35.75,25.78,0,43.66-18.22,63.94-66.35,9.52-22.3,42.38-110.43,81.82-217.67,58.73-57.72,120.77-104.35,183.17-148.18-5.13,13.15-8.73,29.12-13.68,51.29-9.97,44-18.56,81.82-49.16,81.82-15.13,0-23.72-8.59-29.91-16.84-1.38-2.41-4.13-3.78-7.22-3.78-4.81,0-8.94,4.13-8.94,8.94,0,2.06.69,3.78,1.72,5.5,7.56,9.97,20.97,24.07,44.35,24.07,5.13,0,9.81-.65,14.11-1.87,31.74-6.69,70.44-29.69,99.34-49.35,34.33-23.7,66.22-52.53,91.56-82-16.29,46.66-28.85,82.9-30.02,86.81-9.28,30.25,0,46.41,18.91,46.41,20.63,0,53.28-19.6,114.48-86.29,12.24-13.29,28.49-32.28,45.18-52.36-14.62,39.38-29.79,79.34-32.46,92.92-6.19,29.22,9.97,45.72,32.32,45.72,20.28,0,45.72-13.41,64.97-30.94,1.95-1.84,3.88-3.74,5.81-5.69-2.99,8.23-5.99,16.45-8.98,24.64-48.68,48.47-84.71,93.66-109.93,129.91-23.38,33.35-51.91,91.79-51.91,127.54,0,20.28,9.63,35.75,31.63,35.75,25.78,0,43.66-18.22,63.94-66.35,14.6-34.21,47.55-123.09,81.96-217.42,36.67-36.22,80.52-74.23,132.5-111.78-10,17.87-16.1,37.4-16.1,56.93,0,41.94,27.5,57.41,52.6,57.41s50.85-15.98,72.21-38.61c-5.48,25.22,3.75,38.61,20.96,38.61s37.82-15.81,66.01-37.82c2.41-1.72,3.44-4.13,3.44-7.22,0-4.82-3.78-8.94-8.94-8.94-2.06,0-3.78.69-5.16,2.06-27.85,21.32-44.35,34.03-55.35,34.03-5.5,0-7.22-5.5-1.72-23.72,5.16-17.19,94.54-259.56,116.88-323.16Zm-1026.87,572.74c-18.22,42.63-31.28,55.35-47.44,55.35-10.31,0-13.75-5.84-13.75-17.88,0-30.94,26.47-85.95,48.47-117.23,25.67-36.73,52.57-69.58,80.37-99.51-32.96,89.39-59.28,159.68-67.64,179.26Zm551.08,0c-18.22,42.63-31.28,55.35-47.44,55.35-10.31,0-13.75-5.84-13.75-17.88,0-30.94,26.47-85.95,48.47-117.23,19.94-28.58,46.41-62.5,80.47-99.14-29.08,79.32-55.31,149.52-67.75,178.9Zm267.46-225.87c-17.53,0-34.72-9.97-34.72-39.53,0-56.73,63.6-116.2,108.63-116.2,17.88,0,33.69,8.94,34.38,30.94l-16.84,46.76c-22.69,41.6-58.79,78.04-91.45,78.04Z"/><path class="cls-14" d="m1245.6,2669.56c6.88,0,12.38-5.5,12.38-12.38s-5.5-12.37-12.38-12.37-12.38,5.5-12.38,12.37,5.5,12.38,12.38,12.38Z"/><path class="cls-14" d="m1138.34,2669.56c6.87,0,12.37-5.5,12.37-12.38s-5.5-12.37-12.37-12.37-12.38,5.5-12.38,12.37,5.5,12.38,12.38,12.38Z"/><polygon class="cls-17" points="217.43 4294.93 279.77 4294.93 553.7 3532.84 491.36 3532.84 217.43 4294.93"/><path class="cls-14" d="m399.91,3467.42h3.23l11.51,20.92h.08l11.51-20.92h3.24v32.77h-2.94v-27.85h-.04l-10.75,19.91h-2.06l-10.8-19.91h-.04v27.85h-2.94v-32.77Z"/><path class="cls-14" d="m436.41,3489.69c0-6.22,3.32-11.05,10.38-11.05,6.59,0,10.25,4.83,10.25,11.05s-3.7,11.05-10.29,11.05c-7.27,0-10.33-4.83-10.33-11.05Zm17.56,0c0-5.33-2.9-8.49-7.23-8.49-4.75,0-7.27,3.15-7.27,8.49s2.56,8.49,7.27,8.49c4.33,0,7.23-3.15,7.23-8.49Z"/><path class="cls-14" d="m461.23,3489.73c0-7.1,4.28-11.09,10.04-11.09,3.7,0,6.22,1.6,7.31,3.74h.04v-14.95h2.94v32.77h-1.97l-.67-3.61h-.08c-1.18,2.31-3.95,4.16-7.77,4.16-6.3,0-9.83-3.99-9.83-11.01Zm17.64-.5c0-5.5-3.36-8.07-7.35-8.07-3.11,0-7.14,1.47-7.14,8.4s3.61,8.61,7.14,8.61c4.24,0,7.35-2.73,7.35-8.95Z"/><path class="cls-14" d="m506.17,3490.69h-15.96c.17,4.79,2.48,7.48,6.93,7.48,3.82,0,5.67-1.43,5.96-4.83h2.98c-.29,4.24-3.28,7.39-9.03,7.39-7.06,0-9.83-4.66-9.83-10.88s3.23-11.22,10-11.22,8.95,3.99,8.95,10.21v1.85Zm-3.11-2.98c0-4.45-1.72-6.55-5.92-6.55s-6.55,2.65-6.89,6.97h12.81v-.42Z"/><path class="cls-14" d="m512.05,3479.18h2.6l.29,3.91c1.01-2.14,3.07-4.45,6.76-4.45,1.26,0,2.18.21,3.02.55v3.15c-1.13-.5-2.1-.76-3.4-.76-3.74,0-6.34,2.81-6.34,5.75v12.85h-2.94v-21Z"/><path class="cls-14" d="m527.68,3494.39c0-3.95,2.23-6.09,7.86-6.09h6.34v-1.72c0-2.98-1.26-5.42-5.46-5.42-3.95,0-5.33,1.51-5.33,4.12v.88h-2.98v-.84c0-5,4.2-6.68,8.32-6.68,5.8,0,8.4,2.86,8.4,8.44v13.11h-2.06l-.55-2.98h-.08c-1.26,1.89-3.7,3.53-7.35,3.53-4.92,0-7.1-2.31-7.1-6.34Zm14.2-1.85v-1.76h-7.02c-2.65,0-4.03.92-4.03,3.61,0,2.35,1.26,3.86,4.5,3.86,4.16,0,6.55-2.14,6.55-5.71Z"/><path class="cls-14" d="m562.92,3497.5v2.6c-.76.21-2.14.59-4.03.59-3.82,0-6.34-1.6-6.34-6.89v-12.18h-4.16v-2.44h4.16v-6.05l2.94-1.43v7.48h5.92v2.44h-5.92v11.8c0,2.81.76,4.58,3.4,4.58,1.6,0,3.23-.29,4.03-.5Z"/><path class="cls-14" d="m584.38,3490.69h-15.96c.17,4.79,2.48,7.48,6.93,7.48,3.82,0,5.67-1.43,5.96-4.83h2.98c-.29,4.24-3.28,7.39-9.03,7.39-7.06,0-9.83-4.66-9.83-10.88s3.23-11.22,10-11.22,8.95,3.99,8.95,10.21v1.85Zm-3.11-2.98c0-4.45-1.72-6.55-5.92-6.55s-6.55,2.65-6.89,6.97h12.81v-.42Z"/><path class="cls-14" d="m598.03,3493.76v-1.18h2.94v1.13c0,2.86,2.14,4.5,5.96,4.5s5.8-1.01,5.8-3.78c0-2.06-1.01-2.81-3.86-3.32l-4.62-.84c-3.02-.55-5.54-2.02-5.54-5.5,0-3.15,2.35-6.13,8.4-6.13s8.4,3.02,8.4,7.22v.88h-2.98v-.76c0-3.44-2.14-4.91-5.42-4.91-3.95,0-5.33,1.34-5.33,3.36s1.01,2.86,3.91,3.4l4.03.76c4.12.76,6.09,1.93,6.09,5.59,0,4.58-4.12,6.55-8.78,6.55-7.31,0-8.99-3.28-8.99-6.97Z"/><path class="cls-14" d="m621.67,3467.42h2.94v32.77h-2.94v-32.77Z"/><path class="cls-14" d="m630.7,3494.39c0-3.95,2.23-6.09,7.86-6.09h6.34v-1.72c0-2.98-1.26-5.42-5.46-5.42-3.95,0-5.33,1.51-5.33,4.12v.88h-2.98v-.84c0-5,4.2-6.68,8.32-6.68,5.8,0,8.4,2.86,8.4,8.44v13.11h-2.06l-.55-2.98h-.08c-1.26,1.89-3.7,3.53-7.35,3.53-4.92,0-7.1-2.31-7.1-6.34Zm14.2-1.85v-1.76h-7.01c-2.65,0-4.03.92-4.03,3.61,0,2.35,1.26,3.86,4.5,3.86,4.16,0,6.55-2.14,6.55-5.71Z"/><path class="cls-14" d="m655.19,3479.18h2.6l.29,3.49c1.01-2.14,3.28-4.03,7.35-4.03,4.75,0,7.77,2.52,7.77,7.94v13.61h-2.94v-13.27c0-4.33-2.14-5.71-5.5-5.71-3.82,0-6.64,2.69-6.64,5.63v13.36h-2.94v-21Z"/><path class="cls-14" d="m691.52,3497.5v2.6c-.76.21-2.14.59-4.03.59-3.82,0-6.34-1.6-6.34-6.89v-12.18h-4.16v-2.44h4.16v-6.05l2.94-1.43v7.48h5.92v2.44h-5.92v11.8c0,2.81.76,4.58,3.4,4.58,1.6,0,3.23-.29,4.03-.5Z"/><line class="cls-4" x1="1160.6" y1="3819.32" x2="1160.6" y2="3818.44"/><line class="cls-5" x1="1160.6" y1="3801.39" x2="1160.6" y2="3491"/><line class="cls-4" x1="1160.6" y1="3482.48" x2="1160.6" y2="3481.6"/><line class="cls-4" x1="1535.14" y1="4386.57" x2="1535.14" y2="4385.7"/><line class="cls-2" x1="1535.14" y1="4365.8" x2="1535.14" y2="4331.98"/><line class="cls-4" x1="1535.14" y1="4322.03" x2="1535.14" y2="4321.16"/><line class="cls-4" x1="939.42" y1="2315.5" x2="939.42" y2="2314.62"/><line class="cls-3" x1="939.42" y1="2295.82" x2="939.42" y2="2284.54"/><line class="cls-4" x1="939.42" y1="2275.13" x2="939.42" y2="2274.26"/><line class="cls-4" x1="209.61" y1="1037.57" x2="209.61" y2="1036.7"/><line class="cls-6" x1="209.61" y1="1019.08" x2="209.61" y2="698.36"/><line class="cls-4" x1="209.61" y1="689.55" x2="209.61" y2="688.67"/><line class="cls-4" x1="433.93" y1="1287.07" x2="433.93" y2="1286.2"/><line class="cls-12" x1="433.93" y1="1269.54" x2="433.93" y2="1186.23"/><line class="cls-4" x1="433.93" y1="1177.9" x2="433.93" y2="1177.03"/><line class="cls-4" x1="1665.7" y1="1334.02" x2="1665.7" y2="1333.15"/><line class="cls-7" x1="1665.7" y1="1313.9" x2="1665.7" y2="1260"/><line class="cls-4" x1="1665.7" y1="1250.37" x2="1665.7" y2="1249.5"/><line class="cls-4" x1="696.74" y1="1037.57" x2="696.74" y2="1036.7"/><line class="cls-9" x1="696.74" y1="1019.27" x2="696.74" y2="548.83"/><line class="cls-4" x1="696.74" y1="540.12" x2="696.74" y2="539.25"/><line class="cls-4" x1="1465.87" y1="1037.57" x2="1465.87" y2="1036.7"/><line class="cls-8" x1="1465.87" y1="1019.25" x2="1465.87" y2="586.47"/><line class="cls-4" x1="1465.87" y1="577.75" x2="1465.87" y2="576.88"/><path class="cls-14" d="m180.31,3607.47c-4.85,0-9.02-3.81-9.02-9.02,0-2.41,1.4-4.85,3.13-6.59,26.34-23.57,68.29-55.48,105.75-55.48,19.08,0,28.44,16.31,19.08,46.82-5.21,18.02-35.39,99.87-52.71,148.06l-100.23,277.05c-1.38,3.47-4.51,5.91-8.32,5.91-6.59,0-10.74-6.59-8.32-12.13l100.23-277.07c17.32-48.2,46.8-129.34,52.01-146.69,5.55-18.38,3.81-23.93-1.74-23.93-30.85,0-69.01,28.44-93.62,50.99-1.74,1.38-3.81,2.08-6.25,2.08Zm293.02,336.7c4.85,0,9.02,3.81,9.02,9.02,0,3.11-1.74,6.23-4.51,7.62-41.97,24.63-92.94,53.41-121.36,53.41-20.12,0-32.61-13.53-22.55-46.82,10.76-37.44,118.59-322.49,127.61-359.24,6.59-27.74-3.11-53.77-33.99-53.77-65.18,0-144.93,101.96-174.77,159.52-1.72,2.77-4.85,4.85-8.32,4.85-4.85,0-9-4.15-9-9.02,0-1.38.68-2.75,1.04-4.15,31.55-60.69,115.47-169.22,191.05-169.22,43.71,0,60.69,37.8,51.33,75.94-9.02,38.14-116.85,323.19-127.61,359.93-5.89,19.42-3.81,23.93,5.21,23.93,23.23,0,71.07-27.04,112.34-50.97,1.38-.7,2.77-1.04,4.51-1.04Zm-3.13,20.12c-4.85,0-9-3.81-9-9.02,0-3.11,1.74-6.25,4.51-7.62,39.52-22.89,117.89-70.39,117.89-95.72,0-5.55-3.47-12.83-21.83-12.83-50.99,0-84.62,58.26-84.62,104.74,0,29.82,13.53,52.35,45.08,52.35,39.18,0,75.94-15.95,125.87-51.31,1.38-1.04,3.11-1.4,5.19-1.4,4.87,0,9.02,3.81,9.02,9.02,0,2.77-1.38,5.55-3.81,7.28-52.01,36.76-92.58,54.44-136.27,54.44s-63.13-32.61-63.13-70.39c0-54.11,39.9-122.76,102.66-122.76,32.93,0,39.88,19.76,39.88,30.85,0,38.16-86,87.73-126.93,111.32-1.38.68-2.77,1.04-4.51,1.04Zm865.52-16.31c4.87,0,8.68,3.81,8.68,8.68,0,3.11-1.74,6.23-4.17,7.62-49.57,28.08-91.19,49.57-112,49.57s-38.14-14.91-54.44-16.98c-18.72-2.77-43.69,8.32-59.99,16.64-7.96,4.17-16.28-4.17-12.13-12.47,12.13-22.19,151.54-123.8,168.88-170.96-.7,2.08,5.89,8.32,8.66,6.92-5.19,2.77-34.67,23.93-62.41,23.59-27.74-.7-47.52-21.85-57.22-21.85-10.4,0-47.86,36.4-67.62,57.92-60.33,66.22-117.91,117.19-140.1,117.19-19.76,0-27.38-16.98-18.72-46.46,4.85-16.98,30.52-86,48.9-137.31-.7,2.08,5.89,8.32,8.66,6.92-10.74,5.55-24.61,18.38-41.25,18.38-20.82,0-36.06-16.98-47.52-16.98-6.59,0-28.42,24.61-55.82,57.9-41.61,50.63-95.36,117.55-143.22,117.55-43.35,0-62.41-32.93-62.41-70.03,0-53.75,39.18-122.42,102.28-122.42,32.59,0,39.54,19.78,39.54,30.52,0,37.8-86.34,87.73-126.91,110.96-1.4,1.04-2.77,1.4-4.17,1.4-4.85,0-9.02-3.81-9.02-8.68,0-3.11,2.1-6.23,4.51-7.62,39.54-22.89,118.25-70.39,118.25-96.06,0-5.89-3.81-13.17-22.19-13.17-50.63,0-84.96,58.26-84.96,105.08,0,30.16,13.53,52.71,45.08,52.71,38.14,0,88.43-60.69,130.04-111.32,27.04-32.93,51.67-64.14,68.99-64.14,19.08,0,31.57,16.98,47.52,16.98,10.4,0,20.1-9.36,33.63-16.28,9.72-4.87,19.08,3.45,15.61,13.87-19.08,52.01-44.05,120.32-48.9,136.61-5.55,18.38-3.81,24.29,2.08,24.29,12.13,0,67.28-45.78,127.61-111.66,19.42-21.16,59.65-63.47,80.11-63.47,18.38,0,33.29,21.16,57.92,21.85,21.49.34,47.5-18.04,54.08-21.49,9.72-4.87,19.08,3.45,15.61,13.87-19.42,53.05-159.16,154.65-170.26,173.71,3.47-6.92-4.17-14.55-10.76-11.1,17-9,46.12-22.19,69.71-18.72,20.8,2.77,37.1,17,52.35,17s54.8-19.78,103.34-47.52c1.4-.7,2.77-1.04,4.15-1.04Zm265.28-50.63c5.21,0,9.02,4.17,9.02,9.02,0,2.08-.7,4.17-2.08,5.91-54.44,65.88-112,101.94-132.82,101.94-19.06,0-28.44-16.31-19.06-46.82,5.55-18.38,34.67-93.96,52.01-142.86,1.04-3.83,4.51-6.25,8.32-6.25,7.28,0,10.4,6.92,8.66,12.13-17.34,49.23-46.46,124.5-51.67,141.82-5.55,18.38-3.81,23.93,1.74,23.93,12.49,0,66.94-32.25,118.95-95.36,1.74-2.08,4.15-3.47,6.92-3.47Zm181.02,22.89c4.85,0,9.02,4.17,9.02,9.02,0,2.41-1.04,4.85-2.77,6.59-84.62,78.37-143.22,128.65-193.85,203.91-19.06,27.74-46.46,83.9-46.46,117.55,0,15.25,3.81,22.53,14.57,22.53,16.28,0,29.48-12.83,47.86-55.82,23.91-56.52,98.47-262.86,147.01-397.06,1.06-3.45,4.51-5.89,8.34-5.89,6.59,0,10.4,6.59,8.66,12.13-48.56,134.19-123.1,340.88-147.37,397.73-20.48,48.56-38.5,66.92-64.5,66.92-22.89,0-32.61-18.02-32.61-40.55,0-38.5,29.48-98.15,49.26-127.97,52.35-76.98,112.7-128.65,196.6-206.66,1.74-1.4,3.81-2.44,6.25-2.44Zm-75.24-99.17c25.67,0,53.41,15.25,52.71,52.37l-18.38,51.65c-24.97,45.42-66.24,89.13-108.89,89.13-25.31,0-53.05-15.61-53.05-57.92,0-67.62,72.47-135.23,127.61-135.23Zm-74.56,175.11c32.95,0,69.35-36.76,92.24-78.71l16.98-47.16c-.7-22.19-16.64-31.21-34.67-31.21-45.42,0-109.59,59.99-109.59,117.21,0,29.82,17.34,39.88,35.03,39.88Z"/><path class="cls-14" d="m1386.05,1061.13h3.15l17.69,27.6h.04v-27.6h2.94v32.77h-3.07l-17.77-27.94h-.04v27.94h-2.94v-32.77Z"/><path class="cls-14" d="m1416.79,1083.39c0-6.22,3.32-11.05,10.38-11.05,6.59,0,10.25,4.83,10.25,11.05s-3.7,11.05-10.29,11.05c-7.27,0-10.33-4.83-10.33-11.05Zm17.56,0c0-5.33-2.9-8.49-7.22-8.49-4.75,0-7.27,3.15-7.27,8.49s2.56,8.49,7.27,8.49c4.33,0,7.22-3.15,7.22-8.49Z"/><path class="cls-14" d="m1452.95,1061.13h2.94v23.23l12.14-11.47h3.65v.04l-8.4,7.86,8.78,13.06v.04h-3.36l-7.39-11.22-5.42,5.04v6.18h-2.94v-32.77Z"/><path class="cls-14" d="m1477.1,1072.89h2.6l.29,3.49c1.01-2.14,3.28-4.03,7.35-4.03,4.75,0,7.77,2.52,7.77,7.94v13.61h-2.94v-13.27c0-4.33-2.14-5.71-5.5-5.71-3.82,0-6.64,2.69-6.64,5.63v13.36h-2.94v-21Z"/><path class="cls-14" d="m1500.79,1083.39c0-6.22,3.32-11.05,10.38-11.05,6.59,0,10.25,4.83,10.25,11.05s-3.7,11.05-10.29,11.05c-7.27,0-10.33-4.83-10.33-11.05Zm17.56,0c0-5.33-2.9-8.49-7.22-8.49-4.75,0-7.27,3.15-7.27,8.49s2.56,8.49,7.27,8.49c4.33,0,7.22-3.15,7.22-8.49Z"/><path class="cls-14" d="m1538.26,1091.21v2.6c-.76.21-2.14.59-4.03.59-3.82,0-6.34-1.6-6.34-6.89v-12.18h-4.16v-2.44h4.16v-6.05l2.94-1.43v7.48h5.92v2.44h-5.92v11.8c0,2.81.76,4.58,3.4,4.58,1.6,0,3.23-.29,4.03-.5Z"/><path class="cls-14" d="m1541.19,1087.47v-1.18h2.94v1.13c0,2.86,2.14,4.5,5.96,4.5s5.8-1.01,5.8-3.78c0-2.06-1.01-2.81-3.86-3.32l-4.62-.84c-3.02-.55-5.54-2.02-5.54-5.5,0-3.15,2.35-6.13,8.4-6.13s8.4,3.02,8.4,7.23v.88h-2.98v-.76c0-3.44-2.14-4.91-5.42-4.91-3.95,0-5.33,1.34-5.33,3.36s1.01,2.86,3.91,3.4l4.03.76c4.12.76,6.09,1.93,6.09,5.59,0,4.58-4.12,6.55-8.78,6.55-7.31,0-8.99-3.28-8.99-6.97Z"/><path class="cls-14" d="m857.01,3433.91c0-12.01,6.76-17.26,14.74-17.26,6.97,0,12.39,3.74,12.39,12.01v.8h-2.86v-.92c0-5.92-3.78-9.24-9.45-9.24-6.72,0-11.76,4.58-11.76,14.33s5.04,14.24,11.72,14.24c5.38,0,9.54-2.86,9.54-9.2v-.59h2.77v.42c0,8.02-5.33,12.01-12.56,12.01-7.98,0-14.53-4.87-14.53-16.59Z"/><path class="cls-14" d="m890.03,3442.57v-13.61h2.94v13.28c0,4.33,2.14,5.71,5.42,5.71,3.74,0,6.55-2.69,6.55-5.63v-13.36h2.94v21h-2.6l-.25-3.36h-.08c-.97,2.02-3.23,3.91-7.23,3.91-4.66,0-7.69-2.52-7.69-7.94Z"/><path class="cls-14" d="m915.23,3428.95h2.6l.29,3.91c1.01-2.14,3.07-4.45,6.76-4.45,1.26,0,2.18.21,3.02.54v3.15c-1.13-.5-2.1-.76-3.4-.76-3.74,0-6.34,2.81-6.34,5.76v12.85h-2.94v-21Z"/><path class="cls-14" d="m929.38,3429v-.04h3.36l7.35,17.98h.08l7.1-17.98h3.07v.04l-8.74,20.96h-3.02l-9.2-20.96Z"/><path class="cls-14" d="m971.17,3440.46h-15.96c.17,4.79,2.48,7.48,6.93,7.48,3.82,0,5.67-1.43,5.97-4.83h2.98c-.29,4.24-3.28,7.39-9.03,7.39-7.06,0-9.83-4.66-9.83-10.88s3.23-11.21,10-11.21,8.95,3.99,8.95,10.21v1.85Zm-3.11-2.98c0-4.45-1.72-6.55-5.92-6.55s-6.55,2.65-6.89,6.97h12.81v-.42Z"/><path class="cls-14" d="m975.37,3439.5c0-7.1,4.28-11.09,10.04-11.09,3.7,0,6.22,1.6,7.31,3.74h.04v-14.96h2.94v32.77h-1.97l-.67-3.61h-.08c-1.18,2.31-3.95,4.16-7.77,4.16-6.3,0-9.83-3.99-9.83-11.01Zm17.64-.5c0-5.5-3.36-8.07-7.35-8.07-3.11,0-7.14,1.47-7.14,8.4s3.61,8.61,7.14,8.61c4.24,0,7.35-2.73,7.35-8.95Z"/><path class="cls-14" d="m1012.71,3417.19h2.94v15.17c1.05-2.1,3.28-3.95,7.31-3.95,4.75,0,7.77,2.52,7.77,7.94v13.61h-2.94v-13.27c0-4.33-2.14-5.71-5.5-5.71-3.82,0-6.64,2.69-6.64,5.63v13.36h-2.94v-32.77Z"/><path class="cls-14" d="m1036.4,3439.46c0-6.22,3.32-11.05,10.38-11.05,6.59,0,10.25,4.83,10.25,11.05s-3.7,11.05-10.29,11.05c-7.27,0-10.33-4.83-10.33-11.05Zm17.56,0c0-5.33-2.9-8.48-7.22-8.48-4.75,0-7.27,3.15-7.27,8.48s2.56,8.49,7.27,8.49c4.33,0,7.22-3.15,7.22-8.49Z"/><path class="cls-14" d="m1062.9,3428.95h2.6l.29,3.91c1.01-2.14,3.07-4.45,6.76-4.45,1.26,0,2.18.21,3.02.54v3.15c-1.13-.5-2.1-.76-3.4-.76-3.74,0-6.34,2.81-6.34,5.76v12.85h-2.94v-21Z"/><path class="cls-14" d="m1080.2,3417.19h2.98v6.51h-2.98v-6.51Zm0,11.76h2.94v21h-2.94v-21Z"/><path class="cls-14" d="m1088.22,3447.4l14.7-15.88h-14.58v-2.56h18.23v2.56l-14.7,15.84h14.66v2.6h-18.31v-2.56Z"/><path class="cls-14" d="m1109.52,3439.46c0-6.22,3.32-11.05,10.38-11.05,6.59,0,10.25,4.83,10.25,11.05s-3.7,11.05-10.29,11.05c-7.27,0-10.33-4.83-10.33-11.05Zm17.56,0c0-5.33-2.9-8.48-7.22-8.48-4.75,0-7.27,3.15-7.27,8.48s2.56,8.49,7.27,8.49c4.33,0,7.22-3.15,7.22-8.49Z"/><path class="cls-14" d="m1136.02,3428.95h2.6l.29,3.49c1.01-2.14,3.28-4.03,7.35-4.03,4.75,0,7.77,2.52,7.77,7.94v13.61h-2.94v-13.27c0-4.33-2.14-5.71-5.5-5.71-3.82,0-6.64,2.69-6.64,5.63v13.36h-2.94v-21Z"/><path class="cls-14" d="m1172.35,3447.27v2.6c-.76.21-2.14.59-4.03.59-3.82,0-6.34-1.6-6.34-6.89v-12.18h-4.16v-2.44h4.16v-6.05l2.94-1.43v7.48h5.92v2.44h-5.92v11.8c0,2.81.76,4.58,3.4,4.58,1.6,0,3.23-.29,4.03-.5Z"/><path class="cls-14" d="m1175.92,3444.16c0-3.95,2.23-6.09,7.86-6.09h6.34v-1.72c0-2.98-1.26-5.42-5.46-5.42-3.95,0-5.33,1.51-5.33,4.12v.88h-2.98v-.84c0-5,4.2-6.68,8.32-6.68,5.8,0,8.4,2.86,8.4,8.44v13.11h-2.06l-.55-2.98h-.08c-1.26,1.89-3.7,3.53-7.35,3.53-4.92,0-7.1-2.31-7.1-6.34Zm14.2-1.85v-1.76h-7.01c-2.65,0-4.03.92-4.03,3.61,0,2.35,1.26,3.87,4.5,3.87,4.16,0,6.55-2.14,6.55-5.71Z"/><path class="cls-14" d="m1200.41,3417.19h2.94v32.77h-2.94v-32.77Z"/><path class="cls-14" d="m1218.47,3443.53v-1.18h2.94v1.13c0,2.86,2.14,4.5,5.96,4.5s5.8-1.01,5.8-3.78c0-2.06-1.01-2.81-3.86-3.32l-4.62-.84c-3.02-.55-5.54-2.02-5.54-5.5,0-3.15,2.35-6.13,8.4-6.13s8.4,3.02,8.4,7.22v.88h-2.98v-.76c0-3.44-2.14-4.92-5.42-4.92-3.95,0-5.33,1.34-5.33,3.36s1.01,2.86,3.91,3.4l4.03.76c4.12.76,6.09,1.93,6.09,5.59,0,4.58-4.12,6.55-8.78,6.55-7.31,0-8.99-3.28-8.99-6.97Z"/><path class="cls-14" d="m1253.08,3447.27v2.6c-.76.21-2.14.59-4.03.59-3.82,0-6.34-1.6-6.34-6.89v-12.18h-4.16v-2.44h4.16v-6.05l2.94-1.43v7.48h5.92v2.44h-5.92v11.8c0,2.81.76,4.58,3.4,4.58,1.6,0,3.23-.29,4.03-.5Z"/><path class="cls-14" d="m1257.9,3428.95h2.6l.29,3.91c1.01-2.14,3.07-4.45,6.76-4.45,1.26,0,2.18.21,3.02.54v3.15c-1.13-.5-2.1-.76-3.4-.76-3.74,0-6.34,2.81-6.34,5.76v12.85h-2.94v-21Z"/><path class="cls-14" d="m1272.9,3439.46c0-6.22,3.32-11.05,10.38-11.05,6.59,0,10.25,4.83,10.25,11.05s-3.7,11.05-10.29,11.05c-7.27,0-10.33-4.83-10.33-11.05Zm17.56,0c0-5.33-2.9-8.48-7.22-8.48-4.75,0-7.27,3.15-7.27,8.48s2.56,8.49,7.27,8.49c4.33,0,7.22-3.15,7.22-8.49Z"/><path class="cls-14" d="m1298.77,3417.19h2.94v23.23l12.14-11.47h3.65v.04l-8.4,7.86,8.78,13.06v.04h-3.36l-7.39-11.21-5.42,5.04v6.17h-2.94v-32.77Z"/><path class="cls-14" d="m1339.13,3440.46h-15.96c.17,4.79,2.48,7.48,6.93,7.48,3.82,0,5.67-1.43,5.97-4.83h2.98c-.29,4.24-3.28,7.39-9.03,7.39-7.06,0-9.83-4.66-9.83-10.88s3.23-11.21,10-11.21,8.95,3.99,8.95,10.21v1.85Zm-3.11-2.98c0-4.45-1.72-6.55-5.92-6.55s-6.55,2.65-6.89,6.97h12.81v-.42Z"/><path class="cls-14" d="m1343.12,3443.53v-1.18h2.94v1.13c0,2.86,2.14,4.5,5.96,4.5s5.8-1.01,5.8-3.78c0-2.06-1.01-2.81-3.86-3.32l-4.62-.84c-3.02-.55-5.54-2.02-5.54-5.5,0-3.15,2.35-6.13,8.4-6.13s8.4,3.02,8.4,7.22v.88h-2.98v-.76c0-3.44-2.14-4.92-5.42-4.92-3.95,0-5.33,1.34-5.33,3.36s1.01,2.86,3.91,3.4l4.03.76c4.12.76,6.09,1.93,6.09,5.59,0,4.58-4.12,6.55-8.78,6.55-7.31,0-8.99-3.28-8.99-6.97Z"/><path class="cls-14" d="m1376.43,3417.19h2.98v6.51h-2.98v-6.51Zm0,11.76h2.94v21h-2.94v-21Z"/><path class="cls-14" d="m1386.76,3428.95h2.6l.29,3.49c1.01-2.14,3.28-4.03,7.35-4.03,4.75,0,7.77,2.52,7.77,7.94v13.61h-2.94v-13.27c0-4.33-2.14-5.71-5.5-5.71-3.82,0-6.64,2.69-6.64,5.63v13.36h-2.94v-21Z"/><path class="cls-14" d="m1423.47,3427.65h-3.36v-5.08c0-3.95.88-5.29,3.4-5.96l.67,1.85c-1.76.67-2.06,1.09-2.06,3.78v.34h1.34v5.08Zm5.92,0h-3.36v-5.08c0-3.95.88-5.29,3.4-5.96l.67,1.85c-1.76.67-2.06,1.09-2.06,3.78v.34h1.34v5.08Z"/><path class="cls-14" d="m1433.46,3447.4l14.7-15.88h-14.58v-2.56h18.23v2.56l-14.7,15.84h14.66v2.6h-18.31v-2.56Z"/><path class="cls-14" d="m1455.18,3426.39c1.76-.67,2.06-1.09,2.06-3.78v-.34h-1.34v-5.08h3.36v5.08c0,3.95-.88,5.29-3.4,5.97l-.67-1.85Zm5.92,0c1.76-.67,2.06-1.09,2.06-3.78v-.34h-1.34v-5.08h3.36v5.08c0,3.95-.88,5.29-3.4,5.97l-.67-1.85Z"/><path class="cls-15" d="m1105.34,3871.05c3.55,3.46,9.18,3.51,12.79.12,16.54-15.54,35.79-32.41,41.4-32.41,9.7,0,29.48,21.16,57.22,21.85,15.46.19,31.45-6.3,43.48-12.56l24.86-11.47c1.39-.64,2.42-1.92,2.64-3.43,1.35-9.19-7.28-15.85-16.21-11.38-6.59,3.45-32.59,21.83-54.08,21.49-24.63-.7-39.54-21.85-57.92-21.85-13.39,0-35.25,18.12-54.2,36.58-3.67,3.58-3.67,9.48,0,13.06h0Z"/><path class="cls-15" d="m1335.71,3947.99c-1.38,0-2.75.34-4.15,1.04-48.54,27.74-87.73,47.52-103.34,47.52s-31.55-14.23-52.35-17c-9.71-1.43-20.44-.31-30.72,2.74-15.59,4.61-40.56,14.62-40.56,14.62-6.73,5.62-4.7,15.52,2.67,17.46,2.01.53,4.28.34,6.52-.83,16.31-8.32,41.27-19.42,59.99-16.64,16.31,2.08,34.69,16.98,54.44,16.98,20.82,0,62.43-21.49,112-49.57,2.44-1.4,4.17-4.51,4.17-7.62,0-4.87-3.81-8.68-8.68-8.68Z"/><path class="cls-14" d="m1455.69,3821.08c-55.12,0-127.61,67.62-127.61,135.23,0,42.31,27.74,57.92,53.07,57.92,42.65,0,83.9-43.71,108.87-89.13l18.38-51.65c.7-37.12-27.04-52.37-52.71-52.37Zm17.68,96.39c-22.87,41.95-59.29,78.71-92.22,78.71-17.7,0-35.03-10.06-35.03-39.88,0-57.22,64.14-117.21,109.57-117.21,18.04,0,33.99,9.02,34.69,31.21l-17,47.16Z"/><path class="cls-15" d="m1360.79,2724.65c5.16,0,8.95,4.13,8.95,8.95,0,3.44-1.72,6.2-4.13,7.57-157.63,100.15-252.96,209.94-304.59,283.94-22.03,31.32-48.53,86.38-48.53,117.36,0,12.05,3.44,17.89,13.77,17.89,16.18,0,29.26-12.73,47.5-55.41,23.75-56.1,97.74-260.88,145.93-394.07,1.03-3.45,4.47-5.85,8.26-5.85,6.54,0,10.32,6.54,8.6,12.05-48.18,133.2-122.18,338.32-146.27,394.76-20.31,48.18-38.2,66.43-64.02,66.43-22.03,0-31.66-15.49-31.66-35.79,0-35.79,28.57-94.3,51.97-127.69,51.97-74.68,149.71-187.23,309.41-288.41,1.37-1.03,3.1-1.72,4.82-1.72Zm-170.36,83.98c4.82,0,8.95,3.79,8.95,8.95,0,2.07-.69,3.79-2.07,5.16-13.42,17.55-25.12,31.32-37.51,43.02-19.27,17.55-44.74,30.98-65.05,30.98-22.37,0-38.55-16.52-32.35-45.78,3.79-19.27,32.7-91.55,49.56-140.07,1.03-3.45,4.47-5.85,8.26-5.85,7.23,0,10.32,6.89,8.6,12.05-17.21,48.53-45.43,119.77-49.22,137.32-3.44,17.55,3.1,24.44,15.14,24.44,14.8,0,36.14-10.67,52.66-26.15,11.7-11.01,22.72-23.75,35.79-40.61,1.72-2.41,4.13-3.44,7.23-3.44Zm-64.7-151.44c0-6.88,5.51-12.39,12.39-12.39s12.39,5.5,12.39,12.39-5.51,12.39-12.39,12.39-12.39-5.5-12.39-12.39Zm107.38,0c0-6.88,5.51-12.39,12.39-12.39s12.39,5.5,12.39,12.39-5.51,12.39-12.39,12.39-12.39-5.5-12.39-12.39Z"/><g class="cls-13"><path class="cls-15" d="m972.29,484.98c-2.75,0-5.16,1.37-6.87,3.44-29.57,36.78-53.63,66.01-75.29,89.38-58.44,63.6-87.67,80.79-101.42,80.79-5.5,0-7.22-5.5-1.72-23.72,4.81-16.16,29.56-83.88,48.47-135.11,3.44-11-6.19-19.59-16.16-14.44-13.41,6.88-23.03,16.16-33,16.16-15.81,0-28.19-16.85-47.1-16.85-21.66,0-31.63,24.75-45.04,24.75-11.69,0-20.63-6.53-32.66-19.94-9.28-10.66-24.41-3.78-24.41,10.31-3.44,105.54-74.26,158.83-111.04,158.83-15.81,0-23.03-8.59-13.06-38.5,12.32-37.94,28.08-83.27,44.29-128.52l3.84-3.84c37.82-37.82,60.51-60.85,93.51-102.1,34.38-42.97,70.13-93.16,70.13-135.45,0-23.03-11-47.44-38.85-47.44-25.78,0-46.07,20.97-64.63,66.35-9.5,23.41-45.73,118.08-80.12,213.83-23.62,23.4-174.01,175.67-207.97,175.67-2.06,0-4.47-7.56.35-23.72,5.16-17.87,127.54-349.62,152.29-420.1,1.72-5.16-1.37-12.03-8.59-12.03-3.78,0-7.22,2.41-8.25,5.85-24.75,70.13-147.14,402.91-152.64,421.47-8.25,27.85-1.38,46.41,16.84,46.41,35.83,0,142.16-102.65,194.13-154.65-11.59,32.92-22.5,64.83-31.52,92.77-14.1,43.66,3.78,61.88,30.25,61.88,44.62,0,120.96-56.63,128.48-168.28,11.85,11.57,24.05,19.08,39.63,19.08,21.32,0,34.04-24.75,45.04-24.75s26.81,16.84,47.1,16.84c9.5,0,18.2-4.22,25.91-8.85-17.37,48.33-38.12,104.5-42.41,119.54-9.28,30.25,0,46.41,18.91,46.41,20.63,0,53.29-19.6,114.48-86.29,22-24.07,46.41-53.63,76.32-90.42,1.03-1.72,1.72-3.78,1.72-5.84,0-4.81-3.78-8.94-8.94-8.94Z"/></g><path class="cls-15" d="m541.17,482.9c-23.62,23.4-174.01,175.67-207.97,175.67-2.06,0-4.47-7.56.34-23.72,5.16-17.87,127.54-349.62,152.29-420.1,1.72-5.16-1.37-12.03-8.59-12.03-3.78,0-7.22,2.41-8.25,5.85-4.46,12.65-12.1,33.84-21.66,60.18-13.48-51.74-55.27-66.03-95.23-66.03-109.66,0-255.43,170.86-255.43,337.59,0,100.04,51.57,136.14,100.73,136.14,52.93,0,95.01-30.34,131.54-82.25-7.03,19.57-11.62,32.58-12.59,35.84-8.25,27.85-1.38,46.41,16.84,46.41,35.83,0,142.16-102.65,194.13-154.65l13.84-38.89Zm-343.76,175.67c-40.91,0-82.85-29.91-82.85-118.26,0-157.45,138.89-319.72,237.55-319.72,42.63,0,81.13,16.5,81.82,84.91l-63.25,173.27c-48.82,112.42-100.38,179.8-173.27,179.8Z"/><path class="cls-15" d="m273.93,1681.45c4.47,0,8.25,3.09,9.28,7.22,11,50.88,56.04,74.26,103.82,74.26,73.22,0,118.95-51.91,118.95-107.26,0-104.51-161.58-124.45-161.58-256.8,0-58.1,51.23-91.79,100.04-91.79,33.35,0,68.07,15.82,91.1,50.88,1.03,1.72,1.37,3.44,1.37,5.16,0,5.16-4.12,9.28-9.28,9.28-3.09,0-5.85-1.72-7.56-4.13-19.25-29.56-47.79-42.63-75.63-42.63-40.57,0-81.48,27.5-81.48,73.22,0,121.7,161.58,140.61,161.58,256.8,0,64.98-53.29,125.82-137.51,125.82-54.32,0-108.98-27.5-122.04-88.7-1.37-5.84,3.09-11.34,8.94-11.34Z"/><path class="cls-14" d="m1541.25,2519.69c-3.78,0-7.22,2.41-8.25,5.84-12.35,34.97-45.2,124.89-73.03,201.4-9.85-15.26-27.65-21.94-44.55-21.94-18.42,0-38.79,7.62-57.7,20.28-.63.28-1.23.63-1.77,1.04-4.67,2.96-15.89,11.68-30.08,26.83-.57.61-1.17,1.2-1.68,1.86-15.07,19.5-19.17,27.15-19.17,27.15-10,17.87-16.1,37.4-16.1,56.93,0,41.94,27.5,57.41,52.6,57.41s50.85-15.98,72.21-38.61c-5.48,25.22,3.75,38.61,20.96,38.61s37.82-15.81,66.01-37.82c2.41-1.72,3.44-4.13,3.44-7.22,0-4.82-3.78-8.94-8.94-8.94-2.06,0-3.78.69-5.16,2.06-27.85,21.32-44.35,34.03-55.35,34.03-5.5,0-7.22-5.5-1.72-23.72,5.16-17.19,94.54-259.56,116.88-323.16,1.72-5.16-1.37-12.03-8.59-12.03Zm-108.29,280.87c-22.69,41.6-58.79,78.04-91.45,78.04-17.53,0-34.72-9.97-34.72-39.53,0-56.73,63.6-116.2,108.63-116.2,17.88,0,33.69,8.94,34.38,30.94l-16.84,46.76Z"/><path class="cls-15" d="m678.8,2817.93c-14.8,12.27-29.5,25.01-44.03,38.33,16.08-43.84,32.89-89.82,49.39-135.08,0-.01,0-.03.01-.04,42.75-117.24,83.48-229.64,104.35-287.51,1.73-5.51-2.07-12.07-8.62-12.07-3.79,0-7.24,2.41-8.27,5.86-20.81,57.72-61.34,169.61-103.91,286.41-35.58,65.17-115.09,164.89-180.51,164.89-31.03,0-40.34-23.1-33.79-50.68,10.69-43.79,108.6-299.6,141.7-394.41,1.72-5.17-1.38-12.07-8.62-12.07-3.79,0-7.24,2.41-8.28,6.21-33.1,94.46-131.35,351.31-142.04,396.13-9.31,38.27,7.59,72.75,51.03,72.75,53.54,0,111.24-53.57,153.55-108.96-12.06,32.99-23.99,65.55-35.38,96.56-38.46,38.1-75.52,80.94-110.24,130.65-23.44,33.44-52.06,92.05-52.06,127.91,0,20.34,9.65,35.86,31.72,35.86,25.86,0,43.79-18.27,64.13-66.54,9.54-22.36,42.5-110.75,82.05-218.29,22.27-21.89,45.02-42.18,68.08-61.34-3.86-4.61-7.41-9.43-10.25-14.57Zm-156.43,287.31c-18.27,42.75-31.37,55.5-47.58,55.5-10.34,0-13.79-5.86-13.79-17.93,0-31.03,26.54-86.19,48.61-117.56,25.74-36.84,52.72-69.78,80.59-99.79-33.05,89.64-59.45,160.13-67.84,179.77Z"/><polyline class="cls-10" points="1195.23 2612.28 1195.23 2331.07 683.6 2331.07 684.93 2410.13"/><g class="cls-18"><path class="cls-16" d="m1812.49,482.93c-29.22,25.44-61.54,40.56-98.66,40.56-22.74,0-44.02-6.1-59.06-21.21-8.17-11.82-20.27-17.63-34.11-17.63-15.36,0-32.65,7.38-48.53,20.22-18.78,11.04-44.5,18.62-69.73,18.62-22.74,0-44.02-6.1-59.06-21.21-8.17-11.82-20.27-17.63-34.11-17.63-42.97,0-101.07,57.75-101.07,131.32,0,38.16,16.16,60.16,44.35,60.16,45.38,0,101.76-61.54,101.76-131.32,0-5.4-.36-10.42-1.02-15.08,15.01,7.18,32.08,10.26,49.15,10.26,14.53,0,29.31-2.28,43.17-6.2-15.43,22.36-25.98,50.83-25.98,82.17,0,38.16,16.16,60.16,44.35,60.16,45.38,0,101.76-61.54,101.76-131.32,0-5.4-.36-10.42-1.02-15.08,15.01,7.18,32.08,10.26,49.15,10.26,32.33,0,61.79-10.63,87.93-27.46l-.04.03s.06-.04.09-.06c7.75-5,15.22-10.53,22.37-16.51l-.23.17c.49-.41.99-.83,1.51-1.27,10.04-8.46-3.35-19.53-12.97-11.96Zm-459.98,175.33c-17.19,0-26.47-13.41-26.47-42.29,0-63.26,50.53-113.45,83.2-113.45,15.12,0,27.16,12.03,27.16,42.29,0,60.16-48.82,113.45-83.89,113.45Z"/></g><path class="cls-16" d="m1629.69,1541.97c19.27-52.87,37.1-101.91,45.48-125.78,1.72-5.16-1.37-12.03-8.59-12.03-3.78,0-7.22,2.41-8.25,5.84-8.37,23.71-26.17,72.67-45.43,125.59,0,0,7.41,3.99,16.79,6.38Z"/><g class="cls-19"><path class="cls-16" d="m1782,3920.25c4.85,0,9.02,4.17,9.02,9.02,0,2.41-1.04,4.85-2.77,6.59-84.62,78.37-143.22,128.65-193.85,203.91-19.06,27.74-46.46,83.9-46.46,117.55,0,15.25,3.81,22.53,14.57,22.53,16.28,0,29.48-12.83,47.86-55.82,23.91-56.52,98.47-262.86,147.01-397.06,1.06-3.45,4.51-5.89,8.34-5.89,6.59,0,10.4,6.59,8.66,12.13-48.56,134.19-123.1,340.88-147.37,397.73-20.48,48.56-38.5,66.92-64.5,66.92-22.89,0-32.61-18.02-32.61-40.55,0-38.5,29.48-98.15,49.26-127.97,52.35-76.98,112.7-128.65,196.6-206.66,1.74-1.4,3.81-2.44,6.25-2.44Z"/></g></g><g id="Capa_4"><path class="cls-14" d="m1322.52,4409.27h2.94v30.12h15.71v2.65h-18.65v-32.77Z"/><path class="cls-14" d="m1344.32,4431.53c0-6.22,3.32-11.05,10.38-11.05,6.6,0,10.25,4.83,10.25,11.05s-3.7,11.05-10.29,11.05c-7.27,0-10.33-4.83-10.33-11.05Zm17.56,0c0-5.33-2.9-8.49-7.23-8.49-4.75,0-7.27,3.15-7.27,8.49s2.56,8.49,7.27,8.49c4.33,0,7.23-3.15,7.23-8.49Z"/><path class="cls-14" d="m1369.14,4431.53c0-6.22,3.32-11.05,10.38-11.05,6.6,0,10.25,4.83,10.25,11.05s-3.7,11.05-10.29,11.05c-7.27,0-10.33-4.83-10.33-11.05Zm17.56,0c0-5.33-2.9-8.49-7.23-8.49-4.75,0-7.27,3.15-7.27,8.49s2.56,8.49,7.27,8.49c4.33,0,7.23-3.15,7.23-8.49Z"/><path class="cls-14" d="m1395.65,4421.03h2.39l.34,3.86h.08c1.13-2.48,4.03-4.41,7.86-4.41,6.3,0,9.66,3.99,9.66,11.01s-4.28,11.09-9.87,11.09c-3.78,0-6.39-1.6-7.44-3.7h-.08v11.55h-2.94v-29.41Zm17.18,10.63c0-7.18-3.4-8.61-6.93-8.61-4.24,0-7.56,2.73-7.56,8.44,0,6.01,3.44,8.57,7.43,8.57,3.03,0,7.06-1.47,7.06-8.4Z"/><path class="cls-14" d="m1439.12,4432.54h-15.96c.17,4.79,2.48,7.48,6.93,7.48,3.82,0,5.67-1.43,5.96-4.83h2.98c-.29,4.24-3.28,7.39-9.03,7.39-7.06,0-9.83-4.66-9.83-10.88s3.23-11.22,10-11.22,8.95,3.99,8.95,10.21v1.85Zm-3.11-2.98c0-4.45-1.72-6.55-5.92-6.55s-6.55,2.65-6.89,6.97h12.81v-.42Z"/><path class="cls-14" d="m1443.32,4431.58c0-7.1,4.28-11.09,10.04-11.09,3.7,0,6.22,1.6,7.31,3.74h.04v-14.95h2.94v32.77h-1.97l-.67-3.61h-.08c-1.18,2.31-3.95,4.16-7.77,4.16-6.3,0-9.83-3.99-9.83-11.01Zm17.64-.5c0-5.5-3.36-8.07-7.35-8.07-3.11,0-7.14,1.47-7.14,8.4s3.61,8.61,7.14,8.61c4.24,0,7.35-2.73,7.35-8.95Z"/><path class="cls-14" d="m1478.97,4431.58c0-7.1,4.28-11.09,10.04-11.09,3.7,0,6.22,1.6,7.31,3.74h.04v-14.95h2.94v32.77h-1.97l-.67-3.61h-.08c-1.18,2.31-3.95,4.16-7.77,4.16-6.3,0-9.83-3.99-9.83-11.01Zm17.64-.5c0-5.5-3.36-8.07-7.35-8.07-3.11,0-7.14,1.47-7.14,8.4s3.61,8.61,7.14,8.61c4.24,0,7.35-2.73,7.35-8.95Z"/><path class="cls-14" d="m1523.92,4432.54h-15.96c.17,4.79,2.48,7.48,6.93,7.48,3.82,0,5.67-1.43,5.96-4.83h2.98c-.29,4.24-3.28,7.39-9.03,7.39-7.06,0-9.83-4.66-9.83-10.88s3.23-11.22,10-11.22,8.95,3.99,8.95,10.21v1.85Zm-3.11-2.98c0-4.45-1.72-6.55-5.92-6.55s-6.55,2.65-6.89,6.97h12.81v-.42Z"/><path class="cls-14" d="m1527.9,4435.61v-1.18h2.94v1.13c0,2.86,2.14,4.5,5.96,4.5s5.8-1.01,5.8-3.78c0-2.06-1.01-2.81-3.87-3.32l-4.62-.84c-3.02-.55-5.54-2.02-5.54-5.5,0-3.15,2.35-6.13,8.4-6.13s8.4,3.02,8.4,7.22v.88h-2.98v-.76c0-3.45-2.14-4.92-5.42-4.92-3.95,0-5.33,1.34-5.33,3.36s1.01,2.86,3.91,3.4l4.03.76c4.12.76,6.09,1.93,6.09,5.59,0,4.58-4.12,6.55-8.78,6.55-7.31,0-8.99-3.28-8.99-6.97Z"/><path class="cls-14" d="m1549.87,4431.7c0-6.38,3.23-11.22,10-11.22s8.95,3.91,8.95,8.95v.42h-3.11v-.63c0-3.82-1.64-6.09-5.84-6.09-4.75,0-7.01,3.11-7.01,8.4,0,5.63,2.39,8.49,6.93,8.49,3.82,0,5.84-1.85,5.92-5.67h3.02c-.08,4.66-3.15,8.23-9.03,8.23-7.22,0-9.83-4.75-9.83-10.88Z"/><path class="cls-14" d="m1591.96,4432.54h-15.96c.17,4.79,2.48,7.48,6.93,7.48,3.82,0,5.67-1.43,5.97-4.83h2.98c-.29,4.24-3.28,7.39-9.03,7.39-7.06,0-9.83-4.66-9.83-10.88s3.23-11.22,10-11.22,8.95,3.99,8.95,10.21v1.85Zm-3.11-2.98c0-4.45-1.72-6.55-5.92-6.55s-6.55,2.65-6.89,6.97h12.81v-.42Z"/><path class="cls-14" d="m1597.83,4421.03h2.6l.29,3.49c1.01-2.14,3.28-4.03,7.35-4.03,4.75,0,7.77,2.52,7.77,7.94v13.61h-2.94v-13.27c0-4.33-2.14-5.71-5.5-5.71-3.82,0-6.64,2.69-6.64,5.63v13.36h-2.94v-21Z"/><path class="cls-14" d="m1621.52,4431.58c0-7.1,4.28-11.09,10.04-11.09,3.7,0,6.22,1.6,7.31,3.74h.04v-14.95h2.94v32.77h-1.97l-.67-3.61h-.08c-1.18,2.31-3.95,4.16-7.77,4.16-6.3,0-9.83-3.99-9.83-11.01Zm17.64-.5c0-5.5-3.36-8.07-7.35-8.07-3.11,0-7.14,1.47-7.14,8.4s3.61,8.61,7.14,8.61c4.24,0,7.35-2.73,7.35-8.95Z"/><path class="cls-14" d="m1666.46,4432.54h-15.96c.17,4.79,2.48,7.48,6.93,7.48,3.82,0,5.67-1.43,5.97-4.83h2.98c-.29,4.24-3.28,7.39-9.03,7.39-7.06,0-9.83-4.66-9.83-10.88s3.23-11.22,10-11.22,8.95,3.99,8.95,10.21v1.85Zm-3.11-2.98c0-4.45-1.72-6.55-5.92-6.55s-6.55,2.65-6.89,6.97h12.81v-.42Z"/><path class="cls-14" d="m1672.34,4421.03h2.6l.29,3.91c1.01-2.14,3.07-4.45,6.76-4.45,1.26,0,2.18.21,3.02.55v3.15c-1.13-.5-2.1-.76-3.4-.76-3.74,0-6.34,2.81-6.34,5.75v12.85h-2.94v-21Z"/><path class="cls-14" d="m1687.54,4435.61v-1.18h2.94v1.13c0,2.86,2.14,4.5,5.96,4.5s5.8-1.01,5.8-3.78c0-2.06-1.01-2.81-3.86-3.32l-4.62-.84c-3.02-.55-5.54-2.02-5.54-5.5,0-3.15,2.35-6.13,8.4-6.13s8.4,3.02,8.4,7.22v.88h-2.98v-.76c0-3.45-2.14-4.92-5.42-4.92-3.95,0-5.33,1.34-5.33,3.36s1.01,2.86,3.91,3.4l4.03.76c4.12.76,6.09,1.93,6.09,5.59,0,4.58-4.12,6.55-8.78,6.55-7.31,0-8.99-3.28-8.99-6.97Z"/><path class="cls-14" d="m1720.85,4409.27h2.98v6.51h-2.98v-6.51Zm0,11.76h2.94v21h-2.94v-21Z"/><path class="cls-14" d="m1731.18,4421.03h2.6l.29,3.49c1.01-2.14,3.28-4.03,7.35-4.03,4.75,0,7.77,2.52,7.77,7.94v13.61h-2.94v-13.27c0-4.33-2.14-5.71-5.5-5.71-3.82,0-6.64,2.69-6.64,5.63v13.36h-2.94v-21Z"/><path class="cls-14" d="m1351.36,4485.09c0-3.95,2.23-6.09,7.86-6.09h6.34v-1.72c0-2.98-1.26-5.42-5.46-5.42-3.95,0-5.33,1.51-5.33,4.12v.88h-2.98v-.84c0-5,4.2-6.68,8.32-6.68,5.8,0,8.4,2.86,8.4,8.44v13.11h-2.06l-.55-2.98h-.08c-1.26,1.89-3.7,3.53-7.35,3.53-4.92,0-7.1-2.31-7.1-6.34Zm14.2-1.85v-1.76h-7.02c-2.65,0-4.03.92-4.03,3.61,0,2.35,1.26,3.86,4.5,3.86,4.16,0,6.55-2.14,6.55-5.71Z"/><path class="cls-14" d="m1375.84,4458.12h2.94v32.77h-2.94v-32.77Z"/><path class="cls-14" d="m1386.13,4458.12h2.94v32.77h-2.94v-32.77Z"/><path class="cls-14" d="m1406.08,4458.12h2.94v32.77h-2.94v-32.77Z"/><path class="cls-14" d="m1433.64,4481.39h-15.96c.17,4.79,2.48,7.48,6.93,7.48,3.82,0,5.67-1.43,5.96-4.83h2.98c-.29,4.24-3.28,7.39-9.03,7.39-7.06,0-9.83-4.66-9.83-10.88s3.23-11.22,10-11.22,8.95,3.99,8.95,10.21v1.85Zm-3.11-2.98c0-4.45-1.72-6.55-5.92-6.55s-6.55,2.65-6.89,6.97h12.81v-.42Z"/><path class="cls-14" d="m1440.1,4484.5v-12.18h-4.16v-2.44h4.16v-6.05l2.94-1.43v7.48h11.85v-6.05l2.94-1.43v7.48h5.92v2.44h-5.92v11.8c0,2.82.76,4.58,3.4,4.58,1.6,0,3.23-.29,4.03-.5v2.6c-.76.21-2.14.59-4.03.59-3.82,0-6.34-1.6-6.34-6.89v-12.18h-11.85v11.8c0,2.82.76,4.58,3.4,4.58,1.6,0,3.23-.29,4.03-.5v2.6c-.76.21-2.14.59-4.03.59-3.82,0-6.34-1.6-6.34-6.89Z"/><path class="cls-14" d="m1486.73,4481.39h-15.96c.17,4.79,2.48,7.48,6.93,7.48,3.82,0,5.67-1.43,5.96-4.83h2.98c-.29,4.24-3.28,7.39-9.03,7.39-7.06,0-9.83-4.66-9.83-10.88s3.23-11.22,10-11.22,8.95,3.99,8.95,10.21v1.85Zm-3.11-2.98c0-4.45-1.72-6.55-5.92-6.55s-6.55,2.65-6.89,6.97h12.81v-.42Z"/><path class="cls-14" d="m1492.6,4469.88h2.6l.29,3.91c1.01-2.14,3.07-4.45,6.76-4.45,1.26,0,2.18.21,3.02.55v3.15c-1.13-.5-2.1-.76-3.4-.76-3.74,0-6.34,2.81-6.34,5.75v12.85h-2.94v-21Z"/><path class="cls-14" d="m1507.81,4484.46v-1.18h2.94v1.13c0,2.86,2.14,4.49,5.96,4.49s5.8-1.01,5.8-3.78c0-2.06-1.01-2.81-3.87-3.32l-4.62-.84c-3.02-.55-5.54-2.02-5.54-5.5,0-3.15,2.35-6.13,8.4-6.13s8.4,3.02,8.4,7.23v.88h-2.98v-.76c0-3.45-2.14-4.92-5.42-4.92-3.95,0-5.33,1.34-5.33,3.36s1.01,2.86,3.91,3.4l4.03.76c4.12.76,6.09,1.93,6.09,5.59,0,4.58-4.12,6.55-8.78,6.55-7.31,0-8.99-3.28-8.99-6.97Z"/><path class="cls-14" d="m1558.38,4481.39h-15.96c.17,4.79,2.48,7.48,6.93,7.48,3.82,0,5.67-1.43,5.97-4.83h2.98c-.29,4.24-3.28,7.39-9.03,7.39-7.06,0-9.83-4.66-9.83-10.88s3.23-11.22,10-11.22,8.95,3.99,8.95,10.21v1.85Zm-3.11-2.98c0-4.45-1.72-6.55-5.92-6.55s-6.55,2.65-6.89,6.97h12.81v-.42Z"/><path class="cls-14" d="m1579.63,4469.92l-8.07,10.5,8.02,10.42v.04h-3.44l-6.34-8.44-6.43,8.44h-3.28v-.04l8.02-10.38-8.07-10.54v-.04h3.44l6.39,8.49,6.43-8.44v-.04h3.32v.04Z"/><path class="cls-14" d="m1581.64,4480.55c0-6.38,3.23-11.22,10-11.22s8.95,3.91,8.95,8.95v.42h-3.11v-.63c0-3.82-1.64-6.09-5.84-6.09-4.75,0-7.02,3.11-7.02,8.4,0,5.63,2.39,8.49,6.93,8.49,3.82,0,5.84-1.85,5.92-5.67h3.02c-.08,4.66-3.15,8.23-9.03,8.23-7.22,0-9.83-4.75-9.83-10.88Z"/><path class="cls-14" d="m1623.73,4481.39h-15.96c.17,4.79,2.48,7.48,6.93,7.48,3.82,0,5.67-1.43,5.97-4.83h2.98c-.29,4.24-3.28,7.39-9.03,7.39-7.06,0-9.83-4.66-9.83-10.88s3.23-11.22,10-11.22,8.95,3.99,8.95,10.21v1.85Zm-3.11-2.98c0-4.45-1.72-6.55-5.92-6.55s-6.55,2.65-6.89,6.97h12.81v-.42Z"/><path class="cls-14" d="m1629.61,4469.88h2.39l.34,3.87h.08c1.13-2.48,4.03-4.41,7.86-4.41,6.3,0,9.66,3.99,9.66,11.01s-4.29,11.09-9.87,11.09c-3.78,0-6.38-1.6-7.43-3.7h-.08v11.55h-2.94v-29.41Zm17.18,10.63c0-7.18-3.4-8.61-6.93-8.61-4.24,0-7.56,2.73-7.56,8.44,0,6.01,3.45,8.57,7.44,8.57,3.02,0,7.06-1.47,7.06-8.4Z"/><path class="cls-14" d="m1666.78,4488.19v2.6c-.76.21-2.14.59-4.03.59-3.82,0-6.34-1.6-6.34-6.89v-12.18h-4.16v-2.44h4.16v-6.05l2.94-1.43v7.48h5.92v2.44h-5.92v11.8c0,2.82.76,4.58,3.4,4.58,1.6,0,3.23-.29,4.03-.5Z"/><path class="cls-14" d="m1682.95,4468.58h-3.36v-5.08c0-3.95.88-5.29,3.4-5.96l.67,1.85c-1.76.67-2.06,1.09-2.06,3.78v.34h1.34v5.08Zm5.92,0h-3.36v-5.08c0-3.95.88-5.29,3.4-5.96l.67,1.85c-1.76.67-2.06,1.09-2.06,3.78v.34h1.34v5.08Z"/><path class="cls-14" d="m1698.99,4464.84v5.04h5.92v2.44h-5.92v18.57h-2.94v-18.57h-4.16v-2.44h4.16v-5.42c0-5.29,3.15-6.89,6.38-6.89,1.85,0,2.98.29,3.74.55v2.6c-.71-.21-1.89-.46-3.49-.46-2.65,0-3.7,1.76-3.7,4.58Z"/><path class="cls-14" d="m1709.53,4467.32c1.76-.67,2.06-1.09,2.06-3.78v-.34h-1.34v-5.08h3.36v5.08c0,3.95-.88,5.29-3.4,5.96l-.67-1.85Zm5.92,0c1.76-.67,2.06-1.09,2.06-3.78v-.34h-1.34v-5.08h3.36v5.08c0,3.95-.88,5.29-3.4,5.96l-.67-1.85Z"/><path class="cls-14" d="m1378,1216.48v-2.02h3.03v2.18c0,3.74,2.6,6.05,7.94,6.05s8.44-1.97,8.44-6.22c0-3.32-1.39-5.17-4.92-6.09l-6.64-1.72c-4.33-1.13-7.18-2.98-7.18-8.15s3.78-8.91,10.92-8.91,10.59,3.44,10.59,9.07v2.94h-3.02v-2.81c0-4.62-3.07-6.51-7.56-6.51-5.12,0-7.81,2.14-7.81,6.01,0,3.61,1.76,4.7,5.54,5.71l5.76,1.55c5.12,1.39,7.43,3.74,7.43,8.65,0,6.09-4.33,9.24-11.47,9.24-9.12,0-11.05-4.7-11.05-8.99Z"/><path class="cls-14" d="m1407.7,1192.16h2.94v15.16c1.05-2.1,3.28-3.95,7.31-3.95,4.75,0,7.77,2.52,7.77,7.94v13.61h-2.94v-13.27c0-4.33-2.14-5.71-5.5-5.71-3.82,0-6.64,2.69-6.64,5.63v13.36h-2.94v-32.77Z"/><path class="cls-14" d="m1431.38,1214.43c0-6.22,3.32-11.05,10.38-11.05,6.6,0,10.25,4.83,10.25,11.05s-3.7,11.05-10.29,11.05c-7.27,0-10.33-4.83-10.33-11.05Zm17.56,0c0-5.33-2.9-8.49-7.22-8.49-4.75,0-7.27,3.15-7.27,8.49s2.56,8.49,7.27,8.49c4.33,0,7.22-3.15,7.22-8.49Z"/><path class="cls-14" d="m1457.89,1203.92h2.6l.29,3.91c1.01-2.14,3.07-4.45,6.76-4.45,1.26,0,2.18.21,3.02.55v3.15c-1.13-.5-2.1-.76-3.4-.76-3.74,0-6.34,2.81-6.34,5.75v12.85h-2.94v-21Z"/><path class="cls-14" d="m1486.15,1222.24v2.6c-.76.21-2.14.59-4.03.59-3.82,0-6.34-1.6-6.34-6.89v-12.18h-4.16v-2.44h4.16v-6.05l2.94-1.43v7.48h5.92v2.44h-5.92v11.8c0,2.81.76,4.58,3.4,4.58,1.6,0,3.23-.29,4.03-.5Z"/><path class="cls-14" d="m1499.38,1219.13c0-3.95,2.23-6.09,7.86-6.09h6.34v-1.72c0-2.98-1.26-5.42-5.46-5.42-3.95,0-5.33,1.51-5.33,4.12v.88h-2.98v-.84c0-5,4.2-6.68,8.32-6.68,5.8,0,8.4,2.86,8.4,8.44v13.11h-2.06l-.55-2.98h-.08c-1.26,1.89-3.7,3.53-7.35,3.53-4.92,0-7.1-2.31-7.1-6.34Zm14.2-1.85v-1.76h-7.01c-2.65,0-4.03.92-4.03,3.61,0,2.35,1.26,3.86,4.49,3.86,4.16,0,6.55-2.14,6.55-5.71Z"/><path class="cls-14" d="m1521.98,1218.5v-1.18h2.94v1.13c0,2.86,2.14,4.5,5.96,4.5s5.8-1.01,5.8-3.78c0-2.06-1.01-2.81-3.86-3.32l-4.62-.84c-3.03-.55-5.54-2.02-5.54-5.5,0-3.15,2.35-6.13,8.4-6.13s8.4,3.02,8.4,7.23v.88h-2.98v-.76c0-3.44-2.14-4.91-5.42-4.91-3.95,0-5.33,1.34-5.33,3.36s1.01,2.86,3.91,3.4l4.03.76c4.12.76,6.09,1.93,6.09,5.59,0,4.58-4.12,6.55-8.78,6.55-7.31,0-8.99-3.28-8.99-6.97Z"/><path class="cls-14" d="m1543.95,1214.59c0-6.38,3.23-11.22,10-11.22s8.95,3.91,8.95,8.95v.42h-3.11v-.63c0-3.82-1.64-6.09-5.84-6.09-4.75,0-7.02,3.11-7.02,8.4,0,5.63,2.39,8.49,6.93,8.49,3.82,0,5.84-1.85,5.92-5.67h3.03c-.08,4.66-3.15,8.23-9.03,8.23-7.22,0-9.83-4.75-9.83-10.88Z"/><path class="cls-14" d="m1586.03,1215.43h-15.96c.17,4.79,2.48,7.48,6.93,7.48,3.82,0,5.67-1.43,5.96-4.83h2.98c-.29,4.24-3.28,7.39-9.03,7.39-7.06,0-9.83-4.66-9.83-10.88s3.23-11.22,10-11.22,8.95,3.99,8.95,10.21v1.85Zm-3.11-2.98c0-4.45-1.72-6.55-5.92-6.55s-6.55,2.65-6.89,6.97h12.81v-.42Z"/><path class="cls-14" d="m1591.91,1203.92h2.6l.29,3.49c1.01-2.14,3.28-4.03,7.35-4.03,4.75,0,7.77,2.52,7.77,7.94v13.61h-2.94v-13.27c0-4.33-2.14-5.71-5.5-5.71-3.82,0-6.64,2.69-6.64,5.63v13.36h-2.94v-21Z"/><path class="cls-14" d="m1615.6,1214.47c0-7.1,4.29-11.09,10.04-11.09,3.7,0,6.22,1.6,7.31,3.74h.04v-14.95h2.94v32.77h-1.97l-.67-3.61h-.08c-1.18,2.31-3.95,4.16-7.77,4.16-6.3,0-9.83-3.99-9.83-11.01Zm17.64-.5c0-5.5-3.36-8.07-7.35-8.07-3.11,0-7.14,1.47-7.14,8.4s3.61,8.61,7.14,8.61c4.24,0,7.35-2.73,7.35-8.95Z"/><path class="cls-14" d="m1660.54,1215.43h-15.96c.17,4.79,2.48,7.48,6.93,7.48,3.82,0,5.67-1.43,5.96-4.83h2.98c-.29,4.24-3.28,7.39-9.03,7.39-7.06,0-9.83-4.66-9.83-10.88s3.23-11.22,10-11.22,8.95,3.99,8.95,10.21v1.85Zm-3.11-2.98c0-4.45-1.72-6.55-5.92-6.55s-6.55,2.65-6.89,6.97h12.81v-.42Z"/><path class="cls-14" d="m1666.42,1203.92h2.61l.29,3.91c1.01-2.14,3.07-4.45,6.76-4.45,1.26,0,2.19.21,3.03.55v3.15c-1.13-.5-2.1-.76-3.4-.76-3.74,0-6.34,2.81-6.34,5.75v12.85h-2.94v-21Z"/><path class="cls-14" d="m1693.38,1192.16h2.98v6.51h-2.98v-6.51Zm0,11.76h2.94v21h-2.94v-21Z"/><path class="cls-14" d="m1703.71,1203.92h2.6l.29,3.49c1.01-2.14,3.28-4.03,7.35-4.03,4.75,0,7.77,2.52,7.77,7.94v13.61h-2.94v-13.27c0-4.33-2.14-5.71-5.5-5.71-3.82,0-6.64,2.69-6.64,5.63v13.36h-2.94v-21Z"/><path class="cls-14" d="m1740.42,1202.62h-3.36v-5.08c0-3.95.88-5.29,3.4-5.97l.67,1.85c-1.76.67-2.06,1.09-2.06,3.78v.34h1.34v5.08Zm5.92,0h-3.36v-5.08c0-3.95.88-5.29,3.4-5.97l.67,1.85c-1.77.67-2.06,1.09-2.06,3.78v.34h1.34v5.08Z"/><path class="cls-14" d="m1749.37,1214.47c0-7.1,4.28-11.09,10.04-11.09,3.7,0,6.22,1.6,7.31,3.74h.04v-14.95h2.94v32.77h-1.97l-.67-3.61h-.08c-1.18,2.31-3.95,4.16-7.77,4.16-6.3,0-9.83-3.99-9.83-11.01Zm17.64-.5c0-5.5-3.36-8.07-7.35-8.07-3.11,0-7.14,1.47-7.14,8.4s3.61,8.61,7.14,8.61c4.24,0,7.35-2.73,7.35-8.95Z"/><path class="cls-14" d="m1775.15,1201.36c1.76-.67,2.06-1.09,2.06-3.78v-.34h-1.34v-5.08h3.36v5.08c0,3.95-.88,5.29-3.4,5.97l-.67-1.85Zm5.92,0c1.76-.67,2.06-1.09,2.06-3.78v-.34h-1.35v-5.08h3.36v5.08c0,3.95-.88,5.29-3.4,5.97l-.67-1.85Z"/><path class="cls-14" d="m628.04,1061.13h18.86v2.6h-15.92v12.94h12.31v2.6h-12.31v14.62h-2.94v-32.77Z"/><path class="cls-14" d="m652.15,1061.13h2.94v32.77h-2.94v-32.77Z"/><path class="cls-14" d="m661.18,1088.1c0-3.95,2.23-6.09,7.86-6.09h6.34v-1.72c0-2.98-1.26-5.42-5.46-5.42-3.95,0-5.33,1.51-5.33,4.12v.88h-2.98v-.84c0-5,4.2-6.68,8.32-6.68,5.8,0,8.4,2.86,8.4,8.44v13.11h-2.06l-.55-2.98h-.08c-1.26,1.89-3.7,3.53-7.35,3.53-4.92,0-7.1-2.31-7.1-6.34Zm14.2-1.85v-1.76h-7.01c-2.65,0-4.03.92-4.03,3.61,0,2.35,1.26,3.86,4.5,3.86,4.16,0,6.55-2.14,6.55-5.71Z"/><path class="cls-14" d="m696.42,1091.21v2.6c-.76.21-2.14.59-4.03.59-3.82,0-6.34-1.6-6.34-6.89v-12.18h-4.16v-2.44h4.16v-6.05l2.94-1.43v7.48h5.92v2.44h-5.92v11.8c0,2.81.76,4.58,3.4,4.58,1.6,0,3.23-.29,4.03-.5Z"/><path class="cls-14" d="m709.23,1083.56c0-6.38,3.23-11.22,10-11.22s8.95,3.91,8.95,8.95v.42h-3.11v-.63c0-3.82-1.64-6.09-5.84-6.09-4.75,0-7.01,3.11-7.01,8.4,0,5.63,2.39,8.49,6.93,8.49,3.82,0,5.84-1.85,5.92-5.67h3.02c-.08,4.66-3.15,8.23-9.03,8.23-7.22,0-9.83-4.75-9.83-10.88Z"/><path class="cls-14" d="m732.37,1083.39c0-6.22,3.32-11.05,10.38-11.05,6.59,0,10.25,4.83,10.25,11.05s-3.7,11.05-10.29,11.05c-7.27,0-10.33-4.83-10.33-11.05Zm17.56,0c0-5.33-2.9-8.49-7.22-8.49-4.75,0-7.27,3.15-7.27,8.49s2.56,8.49,7.27,8.49c4.33,0,7.22-3.15,7.22-8.49Z"/><path class="cls-14" d="m758.87,1072.89h2.6l.29,3.49c1.01-2.14,3.28-4.03,7.35-4.03,4.75,0,7.77,2.52,7.77,7.94v13.61h-2.94v-13.27c0-4.33-2.14-5.71-5.5-5.71-3.82,0-6.64,2.69-6.64,5.63v13.36h-2.94v-21Z"/><path class="cls-14" d="m784.24,1072.89h2.6l.29,3.49c1.01-2.14,3.28-4.03,7.35-4.03,4.75,0,7.77,2.52,7.77,7.94v13.61h-2.94v-13.27c0-4.33-2.14-5.71-5.5-5.71-3.82,0-6.64,2.69-6.64,5.63v13.36h-2.94v-21Z"/><path class="cls-14" d="m826.87,1084.4h-15.96c.17,4.79,2.48,7.48,6.93,7.48,3.82,0,5.67-1.43,5.97-4.83h2.98c-.29,4.24-3.28,7.39-9.03,7.39-7.06,0-9.83-4.66-9.83-10.88s3.23-11.22,10-11.22,8.95,3.99,8.95,10.21v1.85Zm-3.11-2.98c0-4.45-1.72-6.55-5.92-6.55s-6.55,2.65-6.89,6.97h12.81v-.42Z"/><path class="cls-14" d="m831.07,1083.56c0-6.38,3.23-11.22,10-11.22s8.95,3.91,8.95,8.95v.42h-3.11v-.63c0-3.82-1.64-6.09-5.84-6.09-4.75,0-7.01,3.11-7.01,8.4,0,5.63,2.39,8.49,6.93,8.49,3.82,0,5.84-1.85,5.92-5.67h3.02c-.08,4.66-3.15,8.23-9.03,8.23-7.22,0-9.83-4.75-9.83-10.88Z"/><path class="cls-14" d="m866.85,1091.21v2.6c-.76.21-2.14.59-4.03.59-3.82,0-6.34-1.6-6.34-6.89v-12.18h-4.16v-2.44h4.16v-6.05l2.94-1.43v7.48h5.92v2.44h-5.92v11.8c0,2.81.76,4.58,3.4,4.58,1.6,0,3.23-.29,4.03-.5Z"/><path class="cls-14" d="m871.68,1061.13h2.98v6.51h-2.98v-6.51Zm0,11.76h2.94v21h-2.94v-21Z"/><path class="cls-14" d="m880.33,1083.39c0-6.22,3.32-11.05,10.38-11.05,6.59,0,10.25,4.83,10.25,11.05s-3.7,11.05-10.29,11.05c-7.27,0-10.33-4.83-10.33-11.05Zm17.56,0c0-5.33-2.9-8.49-7.22-8.49-4.75,0-7.27,3.15-7.27,8.49s2.56,8.49,7.27,8.49c4.33,0,7.22-3.15,7.22-8.49Z"/><path class="cls-14" d="m906.83,1072.89h2.6l.29,3.49c1.01-2.14,3.28-4.03,7.35-4.03,4.75,0,7.77,2.52,7.77,7.94v13.61h-2.94v-13.27c0-4.33-2.14-5.71-5.5-5.71-3.82,0-6.64,2.69-6.64,5.63v13.36h-2.94v-21Z"/><path class="cls-14" d="m629.8,1139.26h-.08l-.76,3.49h-1.97v-32.77h2.94v15.25h.04c1.26-2.31,4.07-4.03,7.69-4.03,6.3,0,9.66,3.99,9.66,11.01s-4.29,11.09-9.87,11.09c-3.78,0-6.55-1.64-7.65-4.03Zm14.37-6.89c0-7.18-3.4-8.61-6.93-8.61-4.24,0-7.56,2.73-7.56,8.44,0,6.01,3.45,8.57,7.44,8.57,3.02,0,7.06-1.47,7.06-8.4Z"/><path class="cls-14" d="m670.46,1133.25h-15.96c.17,4.79,2.48,7.48,6.93,7.48,3.82,0,5.67-1.43,5.97-4.83h2.98c-.29,4.24-3.28,7.39-9.03,7.39-7.06,0-9.83-4.66-9.83-10.88s3.23-11.22,10-11.22,8.95,3.99,8.95,10.21v1.85Zm-3.11-2.98c0-4.45-1.72-6.55-5.92-6.55s-6.55,2.65-6.89,6.97h12.81v-.42Z"/><path class="cls-14" d="m687.3,1140.05v2.6c-.76.21-2.14.59-4.03.59-3.82,0-6.34-1.6-6.34-6.89v-12.18h-4.16v-2.44h4.16v-6.05l2.94-1.43v7.48h5.92v2.44h-5.92v11.8c0,2.82.76,4.58,3.4,4.58,1.6,0,3.23-.29,4.03-.5Z"/><path class="cls-14" d="m689.4,1121.78v-.04h2.98l5.76,17.48h.08l6.3-17.48h2.69l6.17,17.48h.08l5.75-17.48h2.86v.04l-7.18,20.96h-3.02l-5.96-17.05h-.08l-6.22,17.05h-3.02l-7.18-20.96Z"/><path class="cls-14" d="m743.33,1133.25h-15.96c.17,4.79,2.48,7.48,6.93,7.48,3.82,0,5.67-1.43,5.97-4.83h2.98c-.29,4.24-3.28,7.39-9.03,7.39-7.06,0-9.83-4.66-9.83-10.88s3.23-11.22,10-11.22,8.95,3.99,8.95,10.21v1.85Zm-3.11-2.98c0-4.45-1.72-6.55-5.92-6.55s-6.55,2.65-6.89,6.97h12.81v-.42Z"/><path class="cls-14" d="m766.47,1133.25h-15.96c.17,4.79,2.48,7.48,6.93,7.48,3.82,0,5.67-1.43,5.97-4.83h2.98c-.29,4.24-3.28,7.39-9.03,7.39-7.06,0-9.83-4.66-9.83-10.88s3.23-11.22,10-11.22,8.95,3.99,8.95,10.21v1.85Zm-3.11-2.98c0-4.45-1.72-6.55-5.92-6.55s-6.55,2.65-6.89,6.97h12.81v-.42Z"/><path class="cls-14" d="m772.35,1121.74h2.6l.29,3.49c1.01-2.14,3.28-4.03,7.35-4.03,4.75,0,7.77,2.52,7.77,7.94v13.61h-2.94v-13.27c0-4.33-2.14-5.71-5.5-5.71-3.82,0-6.64,2.69-6.64,5.63v13.36h-2.94v-21Z"/><path class="cls-14" d="m809.06,1120.44h-3.36v-5.08c0-3.95.88-5.29,3.4-5.96l.67,1.85c-1.76.67-2.06,1.09-2.06,3.78v.34h1.34v5.08Zm5.92,0h-3.36v-5.08c0-3.95.88-5.29,3.4-5.96l.67,1.85c-1.76.67-2.06,1.09-2.06,3.78v.34h1.34v5.08Z"/><path class="cls-14" d="m824.18,1139.26h-.08l-.76,3.49h-1.97v-32.77h2.94v15.25h.04c1.26-2.31,4.07-4.03,7.69-4.03,6.3,0,9.66,3.99,9.66,11.01s-4.29,11.09-9.87,11.09c-3.78,0-6.55-1.64-7.65-4.03Zm14.37-6.89c0-7.18-3.4-8.61-6.93-8.61-4.24,0-7.56,2.73-7.56,8.44,0,6.01,3.45,8.57,7.44,8.57,3.02,0,7.06-1.47,7.06-8.4Z"/><path class="cls-14" d="m842.95,1119.18c1.76-.67,2.06-1.09,2.06-3.78v-.34h-1.34v-5.08h3.36v5.08c0,3.95-.88,5.29-3.4,5.96l-.67-1.85Zm5.92,0c1.76-.67,2.06-1.09,2.06-3.78v-.34h-1.34v-5.08h3.36v5.08c0,3.95-.88,5.29-3.4,5.96l-.67-1.85Z"/><path class="cls-14" d="m867.23,1136.95c0-3.95,2.23-6.09,7.86-6.09h6.34v-1.72c0-2.98-1.26-5.42-5.46-5.42-3.95,0-5.33,1.51-5.33,4.12v.88h-2.98v-.84c0-5,4.2-6.68,8.32-6.68,5.8,0,8.4,2.86,8.4,8.44v13.11h-2.06l-.55-2.98h-.08c-1.26,1.89-3.7,3.53-7.35,3.53-4.92,0-7.1-2.31-7.1-6.34Zm14.2-1.85v-1.76h-7.01c-2.65,0-4.03.92-4.03,3.61,0,2.35,1.26,3.86,4.5,3.86,4.16,0,6.55-2.14,6.55-5.71Z"/><path class="cls-14" d="m891.71,1121.74h2.6l.29,3.49c1.01-2.14,3.28-4.03,7.35-4.03,4.75,0,7.77,2.52,7.77,7.94v13.61h-2.94v-13.27c0-4.33-2.14-5.71-5.5-5.71-3.82,0-6.64,2.69-6.64,5.63v13.36h-2.94v-21Z"/><path class="cls-14" d="m915.4,1132.28c0-7.1,4.28-11.09,10.04-11.09,3.7,0,6.22,1.6,7.31,3.74h.04v-14.95h2.94v32.77h-1.97l-.67-3.61h-.08c-1.18,2.31-3.95,4.16-7.77,4.16-6.3,0-9.83-3.99-9.83-11.01Zm17.64-.5c0-5.5-3.36-8.07-7.35-8.07-3.11,0-7.14,1.47-7.14,8.4s3.61,8.61,7.14,8.61c4.24,0,7.35-2.73,7.35-8.95Z"/><path class="cls-14" d="m954.42,1120.44h-3.36v-5.08c0-3.95.88-5.29,3.4-5.96l.67,1.85c-1.76.67-2.06,1.09-2.06,3.78v.34h1.34v5.08Zm5.92,0h-3.36v-5.08c0-3.95.88-5.29,3.4-5.96l.67,1.85c-1.76.67-2.06,1.09-2.06,3.78v.34h1.34v5.08Z"/><path class="cls-14" d="m966.73,1121.74h2.6l.29,3.91c1.01-2.14,3.07-4.45,6.76-4.45,1.26,0,2.18.21,3.02.55v3.15c-1.13-.5-2.1-.76-3.4-.76-3.74,0-6.34,2.81-6.34,5.75v12.85h-2.94v-21Z"/><path class="cls-14" d="m982.14,1119.18c1.76-.67,2.06-1.09,2.06-3.78v-.34h-1.34v-5.08h3.36v5.08c0,3.95-.88,5.29-3.4,5.96l-.67-1.85Zm5.92,0c1.76-.67,2.06-1.09,2.06-3.78v-.34h-1.34v-5.08h3.36v5.08c0,3.95-.88,5.29-3.4,5.96l-.67-1.85Z"/><path class="cls-14" d="m91.71,1061.13h2.94v15.12h17.56v-15.12h2.94v32.77h-2.94v-15h-17.56v15h-2.94v-32.77Z"/><path class="cls-14" d="m123.97,1072.89l6.89,17.98h.08l7.14-17.98h3.07v.04l-8.86,20.84-3.11,8.53h-2.98v-.04l3.19-8.36-8.78-20.96v-.04h3.36Z"/><path class="cls-14" d="m148.16,1090.41h-.08l-.76,3.49h-1.97v-32.77h2.94v15.25h.04c1.26-2.31,4.08-4.03,7.69-4.03,6.3,0,9.66,3.99,9.66,11.01s-4.29,11.09-9.87,11.09c-3.78,0-6.55-1.64-7.65-4.03Zm14.37-6.89c0-7.18-3.4-8.61-6.93-8.61-4.24,0-7.56,2.73-7.56,8.44,0,6.01,3.44,8.57,7.44,8.57,3.02,0,7.06-1.47,7.06-8.4Z"/><path class="cls-14" d="m171.56,1072.89h2.6l.29,3.91c1.01-2.14,3.07-4.45,6.76-4.45,1.26,0,2.18.21,3.02.55v3.15c-1.13-.5-2.1-.76-3.4-.76-3.74,0-6.34,2.81-6.34,5.75v12.85h-2.94v-21Z"/><path class="cls-14" d="m188.86,1061.13h2.98v6.51h-2.98v-6.51Zm0,11.76h2.94v21h-2.94v-21Z"/><path class="cls-14" d="m197.51,1083.44c0-7.1,4.28-11.09,10.04-11.09,3.7,0,6.22,1.6,7.31,3.74h.04v-14.95h2.94v32.77h-1.97l-.67-3.61h-.08c-1.18,2.31-3.95,4.16-7.77,4.16-6.3,0-9.83-3.99-9.83-11.01Zm17.64-.5c0-5.5-3.36-8.07-7.35-8.07-3.11,0-7.14,1.47-7.14,8.4s3.61,8.61,7.14,8.61c4.24,0,7.35-2.73,7.35-8.95Z"/><path class="cls-14" d="m233.17,1083.56c0-6.38,3.23-11.22,10-11.22s8.95,3.91,8.95,8.95v.42h-3.11v-.63c0-3.82-1.64-6.09-5.84-6.09-4.75,0-7.01,3.11-7.01,8.4,0,5.63,2.39,8.49,6.93,8.49,3.82,0,5.84-1.85,5.92-5.67h3.03c-.08,4.66-3.15,8.23-9.03,8.23-7.22,0-9.83-4.75-9.83-10.88Z"/><path class="cls-14" d="m257.57,1086.5v-13.61h2.94v13.27c0,4.33,2.14,5.71,5.42,5.71,3.74,0,6.55-2.69,6.55-5.63v-13.36h2.94v21h-2.6l-.25-3.36h-.08c-.97,2.02-3.24,3.91-7.23,3.91-4.66,0-7.69-2.52-7.69-7.94Z"/><path class="cls-14" d="m282.77,1072.89h2.6l.29,3.91c1.01-2.14,3.07-4.45,6.76-4.45,1.26,0,2.18.21,3.02.55v3.15c-1.13-.5-2.1-.76-3.4-.76-3.74,0-6.34,2.81-6.34,5.75v12.85h-2.94v-21Z"/><path class="cls-14" d="m297.97,1087.47v-1.18h2.94v1.13c0,2.86,2.14,4.5,5.96,4.5s5.8-1.01,5.8-3.78c0-2.06-1.01-2.81-3.87-3.32l-4.62-.84c-3.02-.55-5.54-2.02-5.54-5.5,0-3.15,2.35-6.13,8.4-6.13s8.4,3.02,8.4,7.23v.88h-2.98v-.76c0-3.44-2.14-4.91-5.42-4.91-3.95,0-5.33,1.34-5.33,3.36s1.01,2.86,3.91,3.4l4.03.76c4.12.76,6.09,1.93,6.09,5.59,0,4.58-4.12,6.55-8.78,6.55-7.31,0-8.99-3.28-8.99-6.97Z"/><path class="cls-14" d="m321.62,1061.13h2.98v6.51h-2.98v-6.51Zm0,11.76h2.94v21h-2.94v-21Z"/><path class="cls-14" d="m328.8,1072.93v-.04h3.36l7.35,17.98h.08l7.1-17.98h3.07v.04l-8.74,20.96h-3.02l-9.2-20.96Z"/><path class="cls-14" d="m370.6,1084.4h-15.96c.17,4.79,2.48,7.48,6.93,7.48,3.82,0,5.67-1.43,5.97-4.83h2.98c-.29,4.24-3.28,7.39-9.03,7.39-7.06,0-9.83-4.66-9.83-10.88s3.23-11.22,10-11.22,8.95,3.99,8.95,10.21v1.85Zm-3.11-2.98c0-4.45-1.72-6.55-5.92-6.55s-6.55,2.65-6.89,6.97h12.81v-.42Z"/><path class="cls-14" d="m384.87,1088.1c0-3.95,2.23-6.09,7.86-6.09h6.34v-1.72c0-2.98-1.26-5.42-5.46-5.42-3.95,0-5.33,1.51-5.33,4.12v.88h-2.98v-.84c0-5,4.2-6.68,8.32-6.68,5.8,0,8.4,2.86,8.4,8.44v13.11h-2.06l-.55-2.98h-.08c-1.26,1.89-3.7,3.53-7.35,3.53-4.92,0-7.1-2.31-7.1-6.34Zm14.2-1.85v-1.76h-7.01c-2.65,0-4.03.92-4.03,3.61,0,2.35,1.26,3.86,4.5,3.86,4.16,0,6.55-2.14,6.55-5.71Z"/><path class="cls-14" d="m409.36,1072.89h2.6l.29,3.49c1.01-2.14,3.28-4.03,7.35-4.03,4.75,0,7.77,2.52,7.77,7.94v13.61h-2.94v-13.27c0-4.33-2.14-5.71-5.5-5.71-3.82,0-6.64,2.69-6.64,5.63v13.36h-2.94v-21Z"/><path class="cls-14" d="m433.05,1083.44c0-7.1,4.28-11.09,10.04-11.09,3.7,0,6.22,1.6,7.31,3.74h.04v-14.95h2.94v32.77h-1.97l-.67-3.61h-.08c-1.18,2.31-3.95,4.16-7.77,4.16-6.3,0-9.83-3.99-9.83-11.01Zm17.64-.5c0-5.5-3.36-8.07-7.35-8.07-3.11,0-7.14,1.47-7.14,8.4s3.61,8.61,7.14,8.61c4.24,0,7.35-2.73,7.35-8.95Z"/><path class="cls-14" d="m470.39,1072.89h2.39l.34,3.86h.08c1.13-2.48,4.03-4.41,7.86-4.41,6.3,0,9.66,3.99,9.66,11.01s-4.29,11.09-9.87,11.09c-3.78,0-6.38-1.6-7.43-3.7h-.08v11.55h-2.94v-29.41Zm17.18,10.63c0-7.18-3.4-8.61-6.93-8.61-4.24,0-7.56,2.73-7.56,8.44,0,6.01,3.45,8.57,7.44,8.57,3.02,0,7.06-1.47,7.06-8.4Z"/><path class="cls-14" d="m496.59,1072.89h2.6l.29,3.91c1.01-2.14,3.07-4.45,6.76-4.45,1.26,0,2.18.21,3.02.55v3.15c-1.13-.5-2.1-.76-3.4-.76-3.74,0-6.34,2.81-6.34,5.75v12.85h-2.94v-21Z"/><path class="cls-14" d="m513.9,1061.13h2.98v6.51h-2.98v-6.51Zm0,11.76h2.94v21h-2.94v-21Z"/><path class="cls-14" d="m524.23,1072.89h2.6l.29,3.49c1.01-2.14,3.28-4.03,7.35-4.03,4.75,0,7.77,2.52,7.77,7.94v13.61h-2.94v-13.27c0-4.33-2.14-5.71-5.5-5.71-3.82,0-6.64,2.69-6.64,5.63v13.36h-2.94v-21Z"/><path class="cls-14" d="m560.56,1091.21v2.6c-.76.21-2.14.59-4.03.59-3.82,0-6.34-1.6-6.34-6.89v-12.18h-4.16v-2.44h4.16v-6.05l2.94-1.43v7.48h5.92v2.44h-5.92v11.8c0,2.81.76,4.58,3.4,4.58,1.6,0,3.23-.29,4.03-.5Z"/><path class="cls-14" d="m156.06,1135.35v-13.61h2.94v13.27c0,4.33,2.14,5.71,5.42,5.71,3.74,0,6.55-2.69,6.55-5.63v-13.36h2.94v21h-2.6l-.25-3.36h-.08c-.97,2.02-3.24,3.91-7.23,3.91-4.66,0-7.69-2.52-7.69-7.94Z"/><path class="cls-14" d="m181.26,1121.74h2.39l.34,3.87h.08c1.13-2.48,4.03-4.41,7.86-4.41,6.3,0,9.66,3.99,9.66,11.01s-4.28,11.09-9.87,11.09c-3.78,0-6.39-1.6-7.44-3.7h-.08v11.55h-2.94v-29.41Zm17.18,10.63c0-7.18-3.4-8.61-6.93-8.61-4.24,0-7.56,2.73-7.56,8.44,0,6.01,3.44,8.57,7.43,8.57,3.03,0,7.06-1.47,7.06-8.4Z"/><path class="cls-14" d="m207.47,1121.74h2.39l.34,3.87h.08c1.13-2.48,4.03-4.41,7.86-4.41,6.3,0,9.66,3.99,9.66,11.01s-4.28,11.09-9.87,11.09c-3.78,0-6.39-1.6-7.44-3.7h-.08v11.55h-2.94v-29.41Zm17.18,10.63c0-7.18-3.4-8.61-6.93-8.61-4.24,0-7.56,2.73-7.56,8.44,0,6.01,3.44,8.57,7.43,8.57,3.03,0,7.06-1.47,7.06-8.4Z"/><path class="cls-14" d="m250.94,1133.25h-15.96c.17,4.79,2.48,7.48,6.93,7.48,3.82,0,5.67-1.43,5.96-4.83h2.98c-.29,4.24-3.28,7.39-9.03,7.39-7.06,0-9.83-4.66-9.83-10.88s3.23-11.22,10-11.22,8.95,3.99,8.95,10.21v1.85Zm-3.11-2.98c0-4.45-1.72-6.55-5.92-6.55s-6.55,2.65-6.89,6.97h12.81v-.42Z"/><path class="cls-14" d="m256.82,1121.74h2.6l.29,3.91c1.01-2.14,3.07-4.45,6.76-4.45,1.26,0,2.18.21,3.02.55v3.15c-1.13-.5-2.1-.76-3.4-.76-3.74,0-6.34,2.81-6.34,5.75v12.85h-2.94v-21Z"/><path class="cls-14" d="m271.81,1132.41c0-6.38,3.23-11.22,10-11.22s8.95,3.91,8.95,8.95v.42h-3.11v-.63c0-3.82-1.64-6.09-5.84-6.09-4.75,0-7.02,3.11-7.02,8.4,0,5.63,2.39,8.49,6.93,8.49,3.82,0,5.84-1.85,5.92-5.67h3.02c-.08,4.66-3.15,8.23-9.03,8.23-7.23,0-9.83-4.75-9.83-10.88Z"/><path class="cls-14" d="m295.16,1136.95c0-3.95,2.23-6.09,7.86-6.09h6.34v-1.72c0-2.98-1.26-5.42-5.46-5.42-3.95,0-5.33,1.51-5.33,4.12v.88h-2.98v-.84c0-5,4.2-6.68,8.32-6.68,5.8,0,8.4,2.86,8.4,8.44v13.11h-2.06l-.55-2.98h-.08c-1.26,1.89-3.7,3.53-7.35,3.53-4.92,0-7.1-2.31-7.1-6.34Zm14.2-1.85v-1.76h-7.01c-2.65,0-4.03.92-4.03,3.61,0,2.35,1.26,3.86,4.5,3.86,4.16,0,6.55-2.14,6.55-5.71Z"/><path class="cls-14" d="m317.76,1136.32v-1.18h2.94v1.13c0,2.86,2.14,4.49,5.96,4.49s5.8-1.01,5.8-3.78c0-2.06-1.01-2.81-3.86-3.32l-4.62-.84c-3.02-.55-5.54-2.02-5.54-5.5,0-3.15,2.35-6.13,8.4-6.13s8.4,3.02,8.4,7.23v.88h-2.98v-.76c0-3.45-2.14-4.92-5.42-4.92-3.95,0-5.33,1.34-5.33,3.36s1.01,2.86,3.91,3.4l4.03.76c4.12.76,6.09,1.93,6.09,5.59,0,4.58-4.12,6.55-8.78,6.55-7.31,0-8.99-3.28-8.99-6.97Z"/><path class="cls-14" d="m358.67,1133.25h-15.96c.17,4.79,2.48,7.48,6.93,7.48,3.82,0,5.67-1.43,5.97-4.83h2.98c-.29,4.24-3.28,7.39-9.03,7.39-7.06,0-9.83-4.66-9.83-10.88s3.23-11.22,10-11.22,8.95,3.99,8.95,10.21v1.85Zm-3.11-2.98c0-4.45-1.72-6.55-5.92-6.55s-6.55,2.65-6.89,6.97h12.81v-.42Z"/><path class="cls-14" d="m374.21,1109.98h2.94v32.77h-2.94v-32.77Z"/><path class="cls-14" d="m401.76,1133.25h-15.96c.17,4.79,2.48,7.48,6.93,7.48,3.82,0,5.67-1.43,5.97-4.83h2.98c-.29,4.24-3.28,7.39-9.03,7.39-7.06,0-9.83-4.66-9.83-10.88s3.23-11.22,10-11.22,8.95,3.99,8.95,10.21v1.85Zm-3.11-2.98c0-4.45-1.72-6.55-5.92-6.55s-6.55,2.65-6.89,6.97h12.81v-.42Z"/><path class="cls-14" d="m408.23,1136.36v-12.18h-4.16v-2.44h4.16v-6.05l2.94-1.43v7.48h11.85v-6.05l2.94-1.43v7.48h5.92v2.44h-5.92v11.8c0,2.82.76,4.58,3.4,4.58,1.6,0,3.24-.29,4.03-.5v2.6c-.76.21-2.14.59-4.03.59-3.82,0-6.34-1.6-6.34-6.89v-12.18h-11.85v11.8c0,2.82.76,4.58,3.4,4.58,1.6,0,3.23-.29,4.03-.5v2.6c-.76.21-2.14.59-4.03.59-3.82,0-6.34-1.6-6.34-6.89Z"/><path class="cls-14" d="m454.85,1133.25h-15.96c.17,4.79,2.48,7.48,6.93,7.48,3.82,0,5.67-1.43,5.97-4.83h2.98c-.29,4.24-3.28,7.39-9.03,7.39-7.06,0-9.83-4.66-9.83-10.88s3.23-11.22,10-11.22,8.95,3.99,8.95,10.21v1.85Zm-3.11-2.98c0-4.45-1.72-6.55-5.92-6.55s-6.55,2.65-6.89,6.97h12.81v-.42Z"/><path class="cls-14" d="m460.73,1121.74h2.6l.29,3.91c1.01-2.14,3.07-4.45,6.76-4.45,1.26,0,2.18.21,3.02.55v3.15c-1.13-.5-2.1-.76-3.4-.76-3.74,0-6.34,2.81-6.34,5.75v12.85h-2.94v-21Z"/><path class="cls-14" d="m475.93,1136.32v-1.18h2.94v1.13c0,2.86,2.14,4.49,5.96,4.49s5.8-1.01,5.8-3.78c0-2.06-1.01-2.81-3.86-3.32l-4.62-.84c-3.02-.55-5.54-2.02-5.54-5.5,0-3.15,2.35-6.13,8.4-6.13s8.4,3.02,8.4,7.23v.88h-2.98v-.76c0-3.45-2.14-4.92-5.42-4.92-3.95,0-5.33,1.34-5.33,3.36s1.01,2.86,3.91,3.4l4.03.76c4.12.76,6.09,1.93,6.09,5.59,0,4.58-4.12,6.55-8.78,6.55-7.31,0-8.99-3.28-8.99-6.97Z"/><path class="cls-14" d="m706.49,2172.14h-3.36v-5.08c0-3.95.88-5.29,3.4-5.96l.67,1.85c-1.76.67-2.06,1.09-2.06,3.78v.34h1.34v5.08Zm5.92,0h-3.36v-5.08c0-3.95.88-5.29,3.4-5.96l.67,1.85c-1.76.67-2.06,1.09-2.06,3.78v.34h1.34v5.08Z"/><path class="cls-14" d="m718.79,2161.68h2.98v6.51h-2.98v-6.51Zm0,11.76h2.94v21h-2.94v-21Z"/><path class="cls-14" d="m732.07,2197.47c0,3.53-1.68,5.84-5.04,5.84-1.18,0-2.02-.13-2.94-.38v-2.6c.8.17,1.47.29,2.27.29,1.93,0,2.77-1.26,2.77-3.65v-23.52h2.94v24.03Zm-2.94-35.79h2.98v6.51h-2.98v-6.51Z"/><path class="cls-14" d="m737.57,2170.88c1.76-.67,2.06-1.09,2.06-3.78v-.34h-1.34v-5.08h3.36v5.08c0,3.95-.88,5.29-3.4,5.96l-.67-1.85Zm5.92,0c1.76-.67,2.06-1.09,2.06-3.78v-.34h-1.34v-5.08h3.36v5.08c0,3.95-.88,5.29-3.4,5.96l-.67-1.85Z"/><path class="cls-14" d="m761.42,2183.99c0-7.1,4.28-11.09,10.04-11.09,3.7,0,6.22,1.6,7.31,3.74h.04v-14.95h2.94v32.77h-1.97l-.67-3.61h-.08c-1.18,2.31-3.95,4.16-7.77,4.16-6.3,0-9.83-3.99-9.83-11.01Zm17.64-.5c0-5.5-3.36-8.07-7.35-8.07-3.11,0-7.14,1.47-7.14,8.4s3.61,8.61,7.14,8.61c4.24,0,7.35-2.73,7.35-8.95Z"/><path class="cls-14" d="m789.1,2161.68h2.98v6.51h-2.98v-6.51Zm0,11.76h2.94v21h-2.94v-21Z"/><path class="cls-14" d="m798.8,2196.25v-.13h3.11v.13c0,2.9,1.93,4.33,6.13,4.33,4.79,0,7.01-2.94,7.01-7.86v-2.1h-.08c-1.09,2.18-3.65,4.07-7.48,4.07-6.3,0-9.75-3.99-9.75-10.71,0-7.1,4.37-11.09,9.96-11.09,3.78,0,6.55,1.81,7.56,4.12h.13l.29-3.57h2.31v19.16c0,5.88-2.81,10.71-10.33,10.71-6.3,0-8.86-2.98-8.86-7.06Zm16.59-12.77c0-5.5-3.36-8.07-7.35-8.07-3.03,0-7.14,1.47-7.14,8.4s3.57,8.32,7.1,8.32c4.24,0,7.39-2.73,7.39-8.65Z"/><path class="cls-14" d="m825.35,2173.44h2.6l.29,3.91c1.01-2.14,3.07-4.45,6.76-4.45,1.26,0,2.18.21,3.02.55v3.15c-1.13-.5-2.1-.76-3.4-.76-3.74,0-6.34,2.81-6.34,5.75v12.85h-2.94v-21Z"/><path class="cls-14" d="m840.97,2188.65c0-3.95,2.23-6.09,7.86-6.09h6.34v-1.72c0-2.98-1.26-5.42-5.46-5.42-3.95,0-5.33,1.51-5.33,4.12v.88h-2.98v-.84c0-5,4.2-6.68,8.32-6.68,5.8,0,8.4,2.86,8.4,8.44v13.11h-2.06l-.55-2.98h-.08c-1.26,1.89-3.7,3.53-7.35,3.53-4.92,0-7.1-2.31-7.1-6.34Zm14.2-1.85v-1.76h-7.01c-2.65,0-4.03.92-4.03,3.61,0,2.35,1.26,3.86,4.5,3.86,4.16,0,6.55-2.14,6.55-5.71Z"/><path class="cls-14" d="m865.46,2173.44h2.39l.34,3.87h.08c1.13-2.48,4.03-4.41,7.86-4.41,6.3,0,9.66,3.99,9.66,11.01s-4.29,11.09-9.87,11.09c-3.78,0-6.38-1.6-7.43-3.7h-.08v11.55h-2.94v-29.41Zm17.18,10.63c0-7.18-3.4-8.61-6.93-8.61-4.24,0-7.56,2.73-7.56,8.44,0,6.01,3.45,8.57,7.44,8.57,3.02,0,7.06-1.47,7.06-8.4Z"/><path class="cls-14" d="m891.03,2161.68h2.94v15.16c1.05-2.1,3.28-3.95,7.31-3.95,4.75,0,7.77,2.52,7.77,7.94v13.61h-2.94v-13.27c0-4.33-2.14-5.71-5.5-5.71-3.82,0-6.64,2.69-6.64,5.63v13.36h-2.94v-32.77Z"/><path class="cls-14" d="m926.06,2161.68h2.98v6.51h-2.98v-6.51Zm0,11.76h2.94v21h-2.94v-21Z"/><path class="cls-14" d="m934.5,2188.02v-1.18h2.94v1.13c0,2.86,2.14,4.49,5.96,4.49s5.8-1.01,5.8-3.78c0-2.06-1.01-2.81-3.86-3.32l-4.62-.84c-3.02-.55-5.54-2.02-5.54-5.5,0-3.15,2.35-6.13,8.4-6.13s8.4,3.02,8.4,7.23v.88h-2.98v-.76c0-3.45-2.14-4.92-5.42-4.92-3.95,0-5.33,1.34-5.33,3.36s1.01,2.86,3.91,3.4l4.03.76c4.12.76,6.09,1.93,6.09,5.59,0,4.58-4.12,6.55-8.78,6.55-7.31,0-8.99-3.28-8.99-6.97Z"/><path class="cls-14" d="m967.81,2161.68h2.98v6.51h-2.98v-6.51Zm0,11.76h2.94v21h-2.94v-21Z"/><path class="cls-14" d="m978.14,2173.44h2.6l.29,3.49c1.01-2.14,3.28-4.03,7.35-4.03,4.75,0,7.77,2.52,7.77,7.94v13.61h-2.94v-13.27c0-4.33-2.14-5.71-5.5-5.71-3.82,0-6.64,2.69-6.64,5.63v13.36h-2.94v-21Z"/><path class="cls-14" d="m1001.83,2184.11c0-6.38,3.23-11.22,10-11.22s8.95,3.91,8.95,8.95v.42h-3.11v-.63c0-3.82-1.64-6.09-5.84-6.09-4.75,0-7.01,3.11-7.01,8.4,0,5.63,2.39,8.49,6.93,8.49,3.82,0,5.84-1.85,5.92-5.67h3.02c-.08,4.66-3.15,8.23-9.03,8.23-7.22,0-9.83-4.75-9.83-10.88Z"/><path class="cls-14" d="m1026.02,2161.68h2.94v32.77h-2.94v-32.77Z"/><path class="cls-14" d="m1035.89,2187.05v-13.61h2.94v13.27c0,4.33,2.14,5.71,5.42,5.71,3.74,0,6.55-2.69,6.55-5.63v-13.36h2.94v21h-2.6l-.25-3.36h-.08c-.97,2.02-3.23,3.91-7.23,3.91-4.66,0-7.69-2.52-7.69-7.94Z"/><path class="cls-14" d="m1059.41,2183.99c0-7.1,4.28-11.09,10.04-11.09,3.7,0,6.22,1.6,7.31,3.74h.04v-14.95h2.94v32.77h-1.97l-.67-3.61h-.08c-1.18,2.31-3.95,4.16-7.77,4.16-6.3,0-9.83-3.99-9.83-11.01Zm17.64-.5c0-5.5-3.36-8.07-7.35-8.07-3.11,0-7.14,1.47-7.14,8.4s3.61,8.61,7.14,8.61c4.24,0,7.35-2.73,7.35-8.95Z"/><path class="cls-14" d="m1104.36,2184.95h-15.96c.17,4.79,2.48,7.48,6.93,7.48,3.82,0,5.67-1.43,5.97-4.83h2.98c-.29,4.24-3.28,7.39-9.03,7.39-7.06,0-9.83-4.66-9.83-10.88s3.23-11.22,10-11.22,8.95,3.99,8.95,10.21v1.85Zm-3.11-2.98c0-4.45-1.72-6.55-5.92-6.55s-6.55,2.65-6.89,6.97h12.81v-.42Z"/><path class="cls-14" d="m1108.55,2183.99c0-7.1,4.28-11.09,10.04-11.09,3.7,0,6.22,1.6,7.31,3.74h.04v-14.95h2.94v32.77h-1.97l-.67-3.61h-.08c-1.18,2.31-3.95,4.16-7.77,4.16-6.3,0-9.83-3.99-9.83-11.01Zm17.64-.5c0-5.5-3.36-8.07-7.35-8.07-3.11,0-7.14,1.47-7.14,8.4s3.61,8.61,7.14,8.61c4.24,0,7.35-2.73,7.35-8.95Z"/><path class="cls-14" d="m1145.89,2161.68h2.98v6.51h-2.98v-6.51Zm0,11.76h2.94v21h-2.94v-21Z"/><path class="cls-14" d="m1156.22,2173.44h2.6l.29,3.49c1.01-2.14,3.28-4.03,7.35-4.03,4.75,0,7.77,2.52,7.77,7.94v13.61h-2.94v-13.27c0-4.33-2.14-5.71-5.5-5.71-3.82,0-6.64,2.69-6.64,5.63v13.36h-2.94v-21Z"/><path class="cls-14" d="m599.93,2235.9v-13.61h2.94v13.27c0,4.33,2.14,5.71,5.42,5.71,3.74,0,6.55-2.69,6.55-5.63v-13.36h2.94v21h-2.6l-.25-3.36h-.08c-.97,2.02-3.23,3.91-7.23,3.91-4.66,0-7.69-2.52-7.69-7.94Z"/><path class="cls-14" d="m625.13,2222.29h2.39l.34,3.87h.08c1.13-2.48,4.03-4.41,7.86-4.41,6.3,0,9.66,3.99,9.66,11.01s-4.29,11.09-9.87,11.09c-3.78,0-6.38-1.6-7.43-3.7h-.08v11.55h-2.94v-29.41Zm17.18,10.63c0-7.18-3.4-8.61-6.93-8.61-4.24,0-7.56,2.73-7.56,8.44,0,6.01,3.45,8.57,7.44,8.57,3.02,0,7.06-1.47,7.06-8.4Z"/><path class="cls-14" d="m651.34,2222.29h2.39l.34,3.87h.08c1.13-2.48,4.03-4.41,7.86-4.41,6.3,0,9.66,3.99,9.66,11.01s-4.29,11.09-9.87,11.09c-3.78,0-6.38-1.6-7.43-3.7h-.08v11.55h-2.94v-29.41Zm17.18,10.63c0-7.18-3.4-8.61-6.93-8.61-4.24,0-7.56,2.73-7.56,8.44,0,6.01,3.45,8.57,7.44,8.57,3.02,0,7.06-1.47,7.06-8.4Z"/><path class="cls-14" d="m694.81,2233.8h-15.96c.17,4.79,2.48,7.48,6.93,7.48,3.82,0,5.67-1.43,5.97-4.83h2.98c-.29,4.24-3.28,7.39-9.03,7.39-7.06,0-9.83-4.66-9.83-10.88s3.23-11.22,10-11.22,8.95,3.99,8.95,10.21v1.85Zm-3.11-2.98c0-4.45-1.72-6.55-5.92-6.55s-6.55,2.65-6.89,6.97h12.81v-.42Z"/><path class="cls-14" d="m700.69,2222.29h2.6l.29,3.91c1.01-2.14,3.07-4.45,6.76-4.45,1.26,0,2.18.21,3.02.55v3.15c-1.13-.5-2.1-.76-3.4-.76-3.74,0-6.34,2.81-6.34,5.75v12.85h-2.94v-21Z"/><path class="cls-14" d="m726.39,2237.49c0-3.95,2.23-6.09,7.86-6.09h6.34v-1.72c0-2.98-1.26-5.42-5.46-5.42-3.95,0-5.33,1.51-5.33,4.12v.88h-2.98v-.84c0-5,4.2-6.68,8.32-6.68,5.8,0,8.4,2.86,8.4,8.44v13.11h-2.06l-.55-2.98h-.08c-1.26,1.89-3.7,3.53-7.35,3.53-4.92,0-7.1-2.31-7.1-6.34Zm14.2-1.85v-1.76h-7.01c-2.65,0-4.03.92-4.03,3.61,0,2.35,1.26,3.86,4.5,3.86,4.16,0,6.55-2.14,6.55-5.71Z"/><path class="cls-14" d="m750.88,2222.29h2.6l.29,3.49c1.01-2.14,3.28-4.03,7.35-4.03,4.75,0,7.77,2.52,7.77,7.94v13.61h-2.94v-13.27c0-4.33-2.14-5.71-5.5-5.71-3.82,0-6.64,2.69-6.64,5.63v13.36h-2.94v-21Z"/><path class="cls-14" d="m774.57,2232.83c0-7.1,4.28-11.09,10.04-11.09,3.7,0,6.22,1.6,7.31,3.74h.04v-14.95h2.94v32.77h-1.97l-.67-3.61h-.08c-1.18,2.31-3.95,4.16-7.77,4.16-6.3,0-9.83-3.99-9.83-11.01Zm17.64-.5c0-5.5-3.36-8.07-7.35-8.07-3.11,0-7.14,1.47-7.14,8.4s3.61,8.61,7.14,8.61c4.24,0,7.35-2.73,7.35-8.95Z"/><path class="cls-14" d="m811.91,2210.53h2.94v32.77h-2.94v-32.77Z"/><path class="cls-14" d="m820.52,2232.79c0-6.22,3.32-11.05,10.38-11.05,6.59,0,10.25,4.83,10.25,11.05s-3.7,11.05-10.29,11.05c-7.27,0-10.33-4.83-10.33-11.05Zm17.56,0c0-5.33-2.9-8.49-7.22-8.49-4.75,0-7.27,3.15-7.27,8.49s2.56,8.49,7.27,8.49c4.33,0,7.22-3.15,7.22-8.49Z"/><path class="cls-14" d="m843.45,2222.33v-.04h2.98l5.75,17.48h.08l6.3-17.48h2.69l6.17,17.48h.08l5.75-17.48h2.86v.04l-7.18,20.96h-3.02l-5.96-17.05h-.08l-6.22,17.05h-3.02l-7.18-20.96Z"/><path class="cls-14" d="m897.38,2233.8h-15.96c.17,4.79,2.48,7.48,6.93,7.48,3.82,0,5.67-1.43,5.97-4.83h2.98c-.29,4.24-3.28,7.39-9.03,7.39-7.06,0-9.83-4.66-9.83-10.88s3.23-11.22,10-11.22,8.95,3.99,8.95,10.21v1.85Zm-3.11-2.98c0-4.45-1.72-6.55-5.92-6.55s-6.55,2.65-6.89,6.97h12.81v-.42Z"/><path class="cls-14" d="m901.58,2232.96c0-6.38,3.23-11.22,10-11.22s8.95,3.91,8.95,8.95v.42h-3.11v-.63c0-3.82-1.64-6.09-5.84-6.09-4.75,0-7.01,3.11-7.01,8.4,0,5.63,2.39,8.49,6.93,8.49,3.82,0,5.84-1.85,5.92-5.67h3.02c-.08,4.66-3.15,8.23-9.03,8.23-7.22,0-9.83-4.75-9.83-10.88Z"/><path class="cls-14" d="m924.93,2237.49c0-3.95,2.23-6.09,7.86-6.09h6.34v-1.72c0-2.98-1.26-5.42-5.46-5.42-3.95,0-5.33,1.51-5.33,4.12v.88h-2.98v-.84c0-5,4.2-6.68,8.32-6.68,5.8,0,8.4,2.86,8.4,8.44v13.11h-2.06l-.55-2.98h-.08c-1.26,1.89-3.7,3.53-7.35,3.53-4.92,0-7.1-2.31-7.1-6.34Zm14.2-1.85v-1.76h-7.01c-2.65,0-4.03.92-4.03,3.61,0,2.35,1.26,3.86,4.5,3.86,4.16,0,6.55-2.14,6.55-5.71Z"/><path class="cls-14" d="m947.53,2236.86v-1.18h2.94v1.13c0,2.86,2.14,4.49,5.96,4.49s5.8-1.01,5.8-3.78c0-2.06-1.01-2.81-3.86-3.32l-4.62-.84c-3.02-.55-5.54-2.02-5.54-5.5,0-3.15,2.35-6.13,8.4-6.13s8.4,3.02,8.4,7.23v.88h-2.98v-.76c0-3.45-2.14-4.92-5.42-4.92-3.95,0-5.33,1.34-5.33,3.36s1.01,2.86,3.91,3.4l4.03.76c4.12.76,6.09,1.93,6.09,5.59,0,4.58-4.12,6.55-8.78,6.55-7.31,0-8.99-3.28-8.99-6.97Z"/><path class="cls-14" d="m988.44,2233.8h-15.96c.17,4.79,2.48,7.48,6.93,7.48,3.82,0,5.67-1.43,5.97-4.83h2.98c-.29,4.24-3.28,7.39-9.03,7.39-7.06,0-9.83-4.66-9.83-10.88s3.23-11.22,10-11.22,8.95,3.99,8.95,10.21v1.85Zm-3.11-2.98c0-4.45-1.72-6.55-5.92-6.55s-6.55,2.65-6.89,6.97h12.81v-.42Z"/><path class="cls-14" d="m1002.29,2232.96c0-6.38,3.23-11.22,10-11.22s8.95,3.91,8.95,8.95v.42h-3.11v-.63c0-3.82-1.64-6.09-5.84-6.09-4.75,0-7.02,3.11-7.02,8.4,0,5.63,2.39,8.49,6.93,8.49,3.82,0,5.84-1.85,5.92-5.67h3.02c-.08,4.66-3.15,8.23-9.03,8.23-7.22,0-9.83-4.75-9.83-10.88Z"/><path class="cls-14" d="m1026.48,2210.53h2.94v15.16c1.05-2.1,3.28-3.95,7.31-3.95,4.75,0,7.77,2.52,7.77,7.94v13.61h-2.94v-13.27c0-4.33-2.14-5.71-5.5-5.71-3.82,0-6.64,2.69-6.64,5.63v13.36h-2.94v-32.77Z"/><path class="cls-14" d="m1050.59,2237.49c0-3.95,2.23-6.09,7.86-6.09h6.34v-1.72c0-2.98-1.26-5.42-5.46-5.42-3.95,0-5.33,1.51-5.33,4.12v.88h-2.98v-.84c0-5,4.2-6.68,8.32-6.68,5.8,0,8.4,2.86,8.4,8.44v13.11h-2.06l-.55-2.98h-.08c-1.26,1.89-3.7,3.53-7.35,3.53-4.92,0-7.1-2.31-7.1-6.34Zm14.2-1.85v-1.76h-7.01c-2.65,0-4.03.92-4.03,3.61,0,2.35,1.26,3.86,4.5,3.86,4.16,0,6.55-2.14,6.55-5.71Z"/><path class="cls-14" d="m1075.08,2222.29h2.6l.29,3.91c1.01-2.14,3.07-4.45,6.76-4.45,1.26,0,2.18.21,3.02.55v3.15c-1.13-.5-2.1-.76-3.4-.76-3.74,0-6.34,2.81-6.34,5.75v12.85h-2.94v-21Z"/><path class="cls-14" d="m1090.7,2237.49c0-3.95,2.23-6.09,7.86-6.09h6.34v-1.72c0-2.98-1.26-5.42-5.46-5.42-3.95,0-5.33,1.51-5.33,4.12v.88h-2.98v-.84c0-5,4.2-6.68,8.32-6.68,5.8,0,8.4,2.86,8.4,8.44v13.11h-2.06l-.55-2.98h-.08c-1.26,1.89-3.7,3.53-7.35,3.53-4.92,0-7.1-2.31-7.1-6.34Zm14.2-1.85v-1.76h-7.01c-2.65,0-4.03.92-4.03,3.61,0,2.35,1.26,3.86,4.5,3.86,4.16,0,6.55-2.14,6.55-5.71Z"/><path class="cls-14" d="m1113.51,2232.96c0-6.38,3.23-11.22,10-11.22s8.95,3.91,8.95,8.95v.42h-3.11v-.63c0-3.82-1.64-6.09-5.84-6.09-4.75,0-7.01,3.11-7.01,8.4,0,5.63,2.39,8.49,6.93,8.49,3.82,0,5.84-1.85,5.92-5.67h3.02c-.08,4.66-3.15,8.23-9.03,8.23-7.22,0-9.83-4.75-9.83-10.88Z"/><path class="cls-14" d="m1149.29,2240.6v2.6c-.76.21-2.14.59-4.03.59-3.82,0-6.34-1.6-6.34-6.89v-12.18h-4.16v-2.44h4.16v-6.05l2.94-1.43v7.48h5.92v2.44h-5.92v11.8c0,2.82.76,4.58,3.4,4.58,1.6,0,3.23-.29,4.03-.5Z"/><path class="cls-14" d="m1170.76,2233.8h-15.96c.17,4.79,2.48,7.48,6.93,7.48,3.82,0,5.67-1.43,5.97-4.83h2.98c-.29,4.24-3.28,7.39-9.03,7.39-7.06,0-9.83-4.66-9.83-10.88s3.23-11.22,10-11.22,8.95,3.99,8.95,10.21v1.85Zm-3.11-2.98c0-4.45-1.72-6.55-5.92-6.55s-6.55,2.65-6.89,6.97h12.81v-.42Z"/><path class="cls-14" d="m1176.63,2222.29h2.6l.29,3.91c1.01-2.14,3.07-4.45,6.76-4.45,1.26,0,2.18.21,3.02.55v3.15c-1.13-.5-2.1-.76-3.4-.76-3.74,0-6.34,2.81-6.34,5.75v12.85h-2.94v-21Z"/><path class="cls-14" d="m1201.71,2236.86v-1.18h2.94v1.13c0,2.86,2.14,4.49,5.96,4.49s5.8-1.01,5.8-3.78c0-2.06-1.01-2.81-3.86-3.32l-4.62-.84c-3.02-.55-5.54-2.02-5.54-5.5,0-3.15,2.35-6.13,8.4-6.13s8.4,3.02,8.4,7.23v.88h-2.98v-.76c0-3.45-2.14-4.92-5.42-4.92-3.95,0-5.33,1.34-5.33,3.36s1.01,2.86,3.91,3.4l4.03.76c4.12.76,6.09,1.93,6.09,5.59,0,4.58-4.12,6.55-8.78,6.55-7.31,0-8.99-3.28-8.99-6.97Z"/><path class="cls-14" d="m1242.62,2233.8h-15.96c.17,4.79,2.48,7.48,6.93,7.48,3.82,0,5.67-1.43,5.97-4.83h2.98c-.29,4.24-3.28,7.39-9.03,7.39-7.06,0-9.83-4.66-9.83-10.88s3.23-11.22,10-11.22,8.95,3.99,8.95,10.21v1.85Zm-3.11-2.98c0-4.45-1.72-6.55-5.92-6.55s-6.55,2.65-6.89,6.97h12.81v-.42Z"/><path class="cls-14" d="m1259.46,2240.6v2.6c-.76.21-2.14.59-4.03.59-3.82,0-6.34-1.6-6.34-6.89v-12.18h-4.16v-2.44h4.16v-6.05l2.94-1.43v7.48h5.92v2.44h-5.92v11.8c0,2.82.76,4.58,3.4,4.58,1.6,0,3.23-.29,4.03-.5Z"/><path class="cls-14" d="m1262.4,2236.86v-1.18h2.94v1.13c0,2.86,2.14,4.49,5.96,4.49s5.8-1.01,5.8-3.78c0-2.06-1.01-2.81-3.86-3.32l-4.62-.84c-3.02-.55-5.54-2.02-5.54-5.5,0-3.15,2.35-6.13,8.4-6.13s8.4,3.02,8.4,7.23v.88h-2.98v-.76c0-3.45-2.14-4.92-5.42-4.92-3.95,0-5.33,1.34-5.33,3.36s1.01,2.86,3.91,3.4l4.03.76c4.12.76,6.09,1.93,6.09,5.59,0,4.58-4.12,6.55-8.78,6.55-7.31,0-8.99-3.28-8.99-6.97Z"/></g></svg>