<?xml version="1.0" encoding="UTF-8"?> <svg xmlns="http://www.w3.org/2000/svg" id="Layer_1" viewBox="0 0 450 335"><defs><style>.cls-1{fill:#fff;}.cls-2{fill:#ececec;}.cls-3{fill:#bca5cf;}.cls-4{fill:#111035;}</style></defs><rect class="cls-1" width="450" height="335"></rect><rect class="cls-2" y="199.03" width="450" height="65.21"></rect><rect class="cls-2" y="70.91" width="450" height="64.73"></rect><polygon class="cls-3" points="173.55 264.24 154.92 264.24 189.41 70.91 208.04 70.91 173.55 264.24"></polygon><path class="cls-4" d="m82.39,87.53l-52.39,110.2c-.77,1.16-1.55,1.93-3.29,1.93s-3.29-1.35-3.29-3.29c0-.97.19-1.35.58-2.32l58-120.84c.97-1.93,2.32-2.32,3.29-2.32,1.55,0,3.29,1.35,3.29,3.29l3.09,109.43,52.78-110.78c.58-1.35,1.74-1.93,3.09-1.93,1.16,0,3.09.97,3.29,2.9l8.31,121.22c.19,3.29-1.74,4.64-3.48,4.64-1.55,0-3.29-1.16-3.48-3.48l-7.15-109.43-52.59,110.2c-.97,1.93-2.32,2.71-3.67,2.71-1.74,0-3.48-1.55-3.48-3.48l-2.9-108.66Z"></path><path class="cls-4" d="m192.39,182.08c-.19,1.74-.77,4.83-.77,6.77,0,2.51.58,4.25,2.51,4.25s4.64-2.71,8.89-8.89l26.87-38.67c5.99-8.51,8.51-10.25,12.37-10.25,1.74,0,3.29,1.55,3.29,3.29s-1.55,3.29-3.29,3.29c-1.16,0-2.51.97-6.77,7.15l-26.87,38.67c-5.8,8.51-9.47,11.99-14.69,11.99s-8.89-3.67-8.89-10.05c0-2.51.39-5.99,1.35-11.6l7.35-42.34,10.83-61.87c.39-2.51,2.51-2.9,3.29-2.9,2.13,0,3.48,1.93,3.29,3.48l-18.75,107.69Z"></path><path class="cls-4" d="m246.52,173.96c2.9-5.22,6.77-11.6,10.63-16.82,9.28-12.95,18.95-22.04,27.65-22.04,9.67,0,11.99,6.38,11.99,12.95,0,1.93-.19,4.45-.58,6.77l-4.83,27.65c-.39,2.13-.77,4.64-.77,6.19,0,3.29,1.35,4.45,3.09,4.45,7.93,0,19.33-15.66,24.94-24.17,6.77-10.25,13.34-24.17,15.47-30.74.77-2.32,2.13-2.9,3.48-2.9,1.74,0,3.67,1.55,2.9,4.45-1.93,6.57-9.09,22.04-16.43,33.06-5.61,8.31-17.79,26.87-30.55,26.87-5.22,0-9.47-3.29-9.47-10.25,0-3.29.39-5.61,1.35-11.21l4.25-24.75c.19-1.16.39-3.09.39-4.64,0-4.25-1.35-7.15-5.03-7.15-5.8,0-14.31,8.51-22.43,19.53-8.31,11.41-16.05,26.1-20.11,36.35-.58,1.74-2.13,2.13-3.29,2.13-1.93,0-3.67-1.93-3.29-3.87l7.54-42.92c.58-3.48.97-5.8.97-7.15,0-2.13-.39-3.87-2.13-3.87s-3.29-1.55-3.29-3.29,1.55-3.29,3.29-3.29c6.19,0,8.7,4.64,8.7,10.44,0,2.71-.97,8.12-1.55,11.21l-.97,5.61-2.32,11.41h.39Z"></path><path class="cls-4" d="m333.52,182.46c-.39,2.13-.77,4.64-.77,6.19,0,3.29,1.35,4.45,3.09,4.45,7.93,0,19.33-15.66,24.94-24.17,6.77-10.25,13.34-24.17,15.47-30.74.77-2.32,2.13-2.9,3.48-2.9,1.74,0,3.67,1.55,2.9,4.45-1.93,6.57-9.09,22.04-16.43,33.06-5.61,8.31-17.79,26.87-30.55,26.87-5.22,0-9.47-3.29-9.47-10.25,0-3.29.39-5.61,1.35-11.21l6.77-39.83c.39-2.51,2.32-3.09,3.29-3.09,2.13,0,3.67,1.74,3.29,3.67l-7.35,43.5Zm6.96-72.31c2.9,0,5.41,2.51,5.41,5.41s-2.51,5.41-5.41,5.41-5.41-2.51-5.41-5.41,2.51-5.41,5.41-5.41Z"></path><path class="cls-4" d="m376.44,138.38c.39-2.51,2.32-3.09,3.29-3.09,2.13,0,3.67,1.74,3.29,3.67l-3.09,17.79c-.77,4.25-1.55,9.28-2.51,13.15h.19c2.13-3.87,4.83-8.51,7.73-12.95,8.12-11.99,16.82-21.66,28.03-21.66,9.47,0,13.15,7.73,13.15,17.4,0,15.85-6.96,31.71-19.53,40.02-7.54,5.03-15.85,6.96-25.71,6.96-2.51,0-5.99-.19-8.89-.77l-10.83,62.45c-.39,1.74-1.74,2.9-3.29,2.9-1.93,0-3.48-1.93-3.29-3.48l21.46-122.38Zm36.54,3.67c-6.38,0-13.34,5.99-22.04,18.75-6.96,10.25-13.53,22.81-17.21,31.71,2.51.39,5.22.58,7.93.58,7.35,0,15.08-1.35,21.27-5.8,10.63-7.35,16.82-21.07,16.82-34.03,0-6.38-1.55-11.21-6.77-11.21Z"></path></svg> 