<?xml version="1.0" encoding="UTF-8"?><svg xmlns="http://www.w3.org/2000/svg" viewBox="0 0 1920 3660"><defs><style>.cls-1{fill:#fff;}.cls-2{fill:#937fbb;}.cls-3{fill:#171c32;}.cls-4{fill:#947fbb;}.cls-5,.cls-6,.cls-7,.cls-8,.cls-9,.cls-10{fill:none;stroke-miterlimit:10;}.cls-5,.cls-6,.cls-7,.cls-9,.cls-10{stroke:#a797c9;stroke-linecap:round;stroke-width:7px;}.cls-6{stroke-dasharray:0 0 1.74 17.45;}.cls-7{stroke-dasharray:0 0 1.97 19.66;}.cls-8{stroke:#57678b;stroke-width:3.5px;}.cls-9{stroke-dasharray:0 0 1.78 17.78;}.cls-10{stroke-dasharray:0 0 1.82 18.16;}</style></defs><g id="Background"><rect class="cls-3" width="1920" height="3660"/></g><g id="Horizontal_Guides"><line class="cls-8" y1="204.72" x2="1920" y2="204.72"/><line class="cls-8" y1="370.48" x2="1920" y2="370.48"/><line class="cls-8" x1="1920" y1="560.63" y2="560.63"/><line class="cls-8" y1="731.86" x2="1920" y2="731.86"/><line class="cls-8" y1="1082.43" x2="1920" y2="1082.43"/><line class="cls-8" y1="1248.19" x2="1920" y2="1248.19"/><line class="cls-8" x1="1920" y1="1438.34" y2="1438.34"/><line class="cls-8" y1="1609.57" x2="1920" y2="1609.57"/><line class="cls-8" y1="1959.43" x2="1920" y2="1959.43"/><line class="cls-8" y1="2125.19" x2="1920" y2="2125.19"/><line class="cls-8" x1="1920" y1="2315.34" y2="2315.34"/><line class="cls-8" y1="2486.57" x2="1920" y2="2486.57"/><line class="cls-8" y1="2837.43" x2="1920" y2="2837.43"/><line class="cls-8" y1="3003.19" x2="1920" y2="3003.19"/><line class="cls-8" x1="1920" y1="3193.34" y2="3193.34"/><line class="cls-8" y1="3364.57" x2="1920" y2="3364.57"/></g><g id="Info"><circle class="cls-2" cx="873.71" cy="2163.75" r="59.99"/><circle class="cls-2" cx="533.98" cy="3117.37" r="59.78"/><circle class="cls-2" cx="805.6" cy="2211.19" r="77"/><rect class="cls-4" x="1270" y="1082.43" width="54.23" height="527.14"/><path class="cls-1" d="m794.21,2287.39c-13.35-21.08-21.79-49.9-21.79-77.31,0-59.73,61.14-61.14,61.14,0,0,35.14-7.03,61.14-18.97,78.01,15.46,17.57,38.65,18.27,70.28-21.08,11.24-13.35,17.57-33.03,18.97-51.3-18.97-2.11-35.14-9.84-41.46-16.17-30.92-27.41-19.68-73.09,11.95-73.09,33.73,0,45.68,33.73,47.09,72.39,16.16-1.4,25.3-10.54,33.73-19.68,3.51-3.51,8.43-5.62,11.95-2.81,4.22,2.11,5.62,7.73,3.51,11.24-13.35,18.97-30.22,27.41-49.19,28.82-1.41,21.08-9.84,44.27-23.19,62.55-35.84,47.79-70.28,45.68-93.47,21.78-39.36,37.25-103.31,3.51-103.31-65.36v-82.23c0-16.86-18.27,6.33-37.25,34.44-2.81,4.22-7.73,5.62-11.95,3.51-4.22-2.1-5.62-7.73-3.51-11.95,23.89-40.06,70.28-85.03,70.28-26v82.23c0,57.62,53.41,79.41,75.2,52.01Zm9.84-16.17c7.03-14.06,11.24-34.44,11.24-61.84,0-36.54-24.6-35.84-24.6.7,0,18.97,4.22,42.87,13.35,61.14Zm99.79-73.79c-.7-33.03-11.24-55.52-29.52-54.11-13.35-2.81-21.79,28.81.7,44.98,5.62,3.51,16.87,7.73,28.81,9.14Z"/><path class="cls-1" d="m1061.27,2292.31c-19.68,36.54-78.71,34.44-78.71-12.65v-111.04c-5.62,9.14-9.84,15.46-11.95,18.97-2.81,4.22-7.73,5.62-11.95,3.51-4.22-2.1-5.62-7.73-3.51-11.95,2.81-4.21,27.41-49.19,27.41-49.19v-52.71h-19.68c-4.92,0-8.43-3.51-8.43-8.43s3.51-9.14,8.43-9.14h19.68v-56.22c0-4.92,3.51-9.14,8.43-9.14s8.44,4.22,8.44,9.14v56.22h72.39c4.92,0,8.43,4.22,8.43,9.14s-3.51,8.43-8.43,8.43h-72.39v202.4c0,25.3,30.92,28.82,47.08,3.51,9.84-16.87,56.92-99.79,59.74-104.01,2.11-4.21,7.73-5.62,11.95-2.81,4.22,2.11,5.62,7.73,2.81,11.24-23.19,40.76-49.9,87.15-59.74,104.72Z"/><path class="cls-1" d="m1286.86,2202.36c16.87-1.4,29.52-18.97,31.63-23.19,2.81-4.21,7.73-5.62,11.95-2.81,4.21,2.11,5.62,7.73,3.51,11.24-8.43,14.06-26.71,30.93-46.38,32.33,0,22.49-9.14,42.87-14.76,51.3-18.97,29.52-45.68,44.27-79.41,44.27-47.79,0-95.58-38.65-95.58-97.68,0-73.79,76.6-109.63,142.66-85.74,40.06,14.76,46.38,70.28,46.38,70.28Zm-85.04-62.55c-49.9-2.81-86.44,35.14-86.44,79.41s37.25,78.71,78.01,78.71c44.28,0,76.6-39.36,76.6-75.2-14.06.7-75.9-6.32-75.9-63.25,0-7.03,4.22-14.76,7.73-19.68Zm68.17,65.36c-8.43-40.06-20.38-47.79-28.11-54.11-14.76-12.65-36.54-6.33-28.81,20.38,7.73,25.3,34.44,34.44,56.93,33.73Z"/><path class="cls-1" d="m1390.88,2179.16v128.61c0,4.92-4.22,8.43-8.43,8.43-4.92,0-9.14-3.51-9.14-8.43v-155.31c0-9.14-11.24-11.95-18.27,0,0,0-18.27,31.62-20.38,35.14-2.11,4.22-7.73,5.62-11.95,3.51-4.21-2.1-5.62-7.73-3.51-11.95,2.81-4.21,20.38-35.14,20.38-35.14,16.87-28.81,51.3-19.68,51.3,8.43,0,0,0-1.4,0,1.4,57.63-54.11,130.01-22.49,130.01,23.89v101.2c0,20.38,14.06,31.62,30.22,3.51,23.19-39.36,57.63-99.09,59.74-103.31,2.11-4.21,7.73-5.62,11.95-2.81,4.22,2.11,5.62,7.73,2.81,11.24-2.1,4.22-37.95,66.06-59.73,104.01-22.49,38.65-61.84,30.92-61.84-12.65v-101.2c0-28.81-59.03-63.25-113.15,1.4Z"/><path class="cls-1" d="m1714.16,2297.23l-.7.7c-30.92,26-77.3,26-104.71,0-3.51-3.51-3.51-9.14-.7-12.65,3.51-3.51,9.14-3.51,12.65,0,19.67,18.97,69.58,23.19,91.36-12.65,5.62-9.84,7.03-24.6,5.62-40.06-2.11-40.05-49.9-61.84-68.87-84.33,0,0-20.38,35.84-22.49,39.35-2.81,4.22-7.73,5.62-11.95,3.51-4.21-2.1-5.62-7.73-3.51-11.95,2.81-4.21,35.14-61.14,37.25-65.35,2.81-4.22,8.43-5.62,11.95-2.81,4.22,2.11,5.62,7.73,3.51,11.95-2.81,4.22-5.62,9.84-7.03,11.95,10.54,9.84,73.09,44.98,78.01,96.28.7,3.51.7,10.54-.7,19.68,12.65-15.46,24.6-35.84,40.76-59.03,0,0,4.92-8.43,7.03-12.65,2.81-4.21,8.43-5.62,11.95-2.81,4.21,2.11,5.62,7.73,3.51,11.24-31.63,55.52-63.25,93.47-82.93,109.63Z"/><path class="cls-2" d="m372.24,2007.67v273.58c0,21.14,14.17,32.95,30.8,3.73,23.41-41.04,59.13-102.59,60.98-106.94,3.08-4.35,8.62-6.22,12.32-3.11,4.31,2.49,5.54,8.08,3.7,11.82-2.46,4.35-39.42,68.39-62.21,107.56-22.79,40.42-63.44,32.33-63.44-13.06v-265.5c0-4.97.62-11.19-1.23-16.16-15.4-35.44-107.79-42.28-156.46,18.03v290.37c0,5.6-4.31,9.33-9.24,9.33-4.31,0-8.62-3.73-8.62-9.33v-319.59c0-9.33-11.7-11.81-19.09,0,0,0-18.48,32.96-20.94,36.68-3.08,4.35-8.01,5.6-12.32,3.73-4.31-2.49-5.54-8.08-3.7-12.44,3.08-4.35,20.94-36.68,20.94-36.68,17.25-29.85,52.97-18.65,52.97,8.7v2.49c46.81-46.63,175.55-54.1,175.55,16.79Z"/><path class="cls-1" d="m648.73,2179.16c2.81-4.21,8.44-5.62,11.95-3.51,4.22,2.81,6.33,8.43,3.51,11.95-15.46,22.49-66.76,130.72-138.45,130.72-46.38,0-74.49-36.54-74.49-82.93,0-54.11,32.33-106.82,91.36-106.82,27.41,0,52.01,20.38,52.01,49.9,0,42.16-52.01,66.06-124.39,73.09,0,16.87,18.27,49.2,56.22,49.2,42.17,0,78.01-49.2,122.28-121.58Zm-179.21,54.82c81.52-9.14,107.53-33.03,107.53-56.22,0-16.87-14.76-31.63-34.44-31.63-52.01,0-77.31,56.22-73.09,87.85Z"/><path class="cls-2" d="m237.08,2852.21h-25.3v324.68h25.3c11.24,0,11.24,16.87,0,16.87h-66.76c-11.95,0-11.95-16.87,0-16.87h24.6v-324.68h-24.6c-11.95,0-10.54-16.87,0-16.87h66.76c9.84,0,11.24,16.87,0,16.87Z"/><path class="cls-1" d="m559.12,3057.42c2.11-4.22,7.73-5.62,11.95-2.81,3.51,2.1,4.92,7.73,2.81,11.95-2.81,3.51-10.54,21.08-38.65,66.06-9.14,15.46-37.25,61.14-68.87,61.14-18.27,0-29.52-18.27-29.52-49.9-27.41,39.35-66.76,50.6-90.66,50.6-47.09,0-72.39-37.95-72.39-83.63,0-60.44,42.17-104.71,103.31-104.71,33.73,0,47.79,16.16,59.74,30.22v-191.15c0-4.92,4.22-9.14,9.14-9.14,4.22,0,8.44,3.51,8.44,8.43v300.09c0,15.46,1.4,38.65,21.08,30.22,23.9-10.54,49.2-56.92,83.63-117.36Zm-267.76,53.41c0,36.54,15.46,65.36,59.03,65.36,35.14,0,84.33-35.14,84.33-84.33,0-35.14-17.57-68.17-58.33-68.17-47.79,0-85.04,33.03-85.04,87.14Z"/><path class="cls-1" d="m924.49,3080.61c16.87-1.41,29.52-18.97,31.63-23.19,2.81-4.22,7.73-5.62,11.95-2.81,4.22,2.1,5.62,7.73,3.51,11.24-8.44,14.06-26.71,30.92-46.38,32.33,0,22.49-9.14,42.87-14.76,51.31-18.97,29.52-45.68,44.27-79.41,44.27-47.79,0-95.58-38.65-95.58-97.68,0-73.79,76.6-109.63,142.66-85.74,40.06,14.76,46.38,70.28,46.38,70.28Zm-85.04-62.55c-49.9-2.81-86.44,35.14-86.44,79.41s37.25,78.71,78.01,78.71c44.28,0,76.6-39.35,76.6-75.19-14.06.7-75.9-6.33-75.9-63.25,0-7.03,4.22-14.76,7.73-19.67Zm47.79-90.66l-31.62,47.09c-6.33,9.14-19.68-.7-14.06-9.84l31.62-47.09c5.62-9.14,20.38.7,14.06,9.84Zm20.38,156.02c-8.44-40.06-20.38-47.79-28.11-54.11-14.76-12.65-36.54-6.32-28.81,20.38,7.73,25.3,34.44,34.44,56.93,33.74Z"/><path class="cls-1" d="m982.83,3047.58c-3.51,6.32-7.03,11.95-10.54,18.27-2.81,4.22-7.73,5.62-11.95,3.51-4.22-2.11-5.62-7.73-3.51-11.95,9.14-15.46,17.57-28.11,26-41.46v-116.66c0-33.03,16.87-66.06,47.08-66.06,34.44,1.4,44.98,33.03,44.98,56.22-.7,36.54-35.84,73.79-74.49,131.42v130.72c0,65.36,63.25-22.49,104.01-94.17,2.11-4.22,7.73-5.62,11.95-2.81,4.22,2.1,5.62,7.73,2.81,11.24-30.22,54.11-54.11,83.63-72.39,104.72-23.89,28.11-63.95,35.14-63.95-18.97v-104.01Zm17.57-56.92c32.33-47.09,59.03-80.12,57.63-101.2,0-20.38-7.03-37.95-28.81-39.35-11.95-2.81-28.81,21.78-28.81,49.19v91.36Z"/><path class="cls-1" d="m1284.32,3080.61c16.87-1.41,29.52-18.97,31.63-23.19,2.81-4.22,7.73-5.62,11.95-2.81,4.22,2.1,5.62,7.73,3.51,11.24-8.44,14.06-26.71,30.92-46.38,32.33,0,22.49-9.14,42.87-14.76,51.31-18.97,29.52-45.68,44.27-79.41,44.27-47.79,0-95.58-38.65-95.58-97.68,0-73.79,76.6-109.63,142.66-85.74,40.06,14.76,46.38,70.28,46.38,70.28Zm-85.04-62.55c-49.9-2.81-86.44,35.14-86.44,79.41s37.25,78.71,78.01,78.71c44.28,0,76.6-39.35,76.6-75.19-14.06.7-75.9-6.33-75.9-63.25,0-7.03,4.22-14.76,7.73-19.67Zm68.17,65.36c-8.44-40.06-20.38-47.79-28.11-54.11-14.76-12.65-36.54-6.32-28.81,20.38,7.73,25.3,34.44,34.44,56.93,33.74Z"/><path class="cls-1" d="m1549.98,3057.42c2.81-4.22,8.43-5.62,11.95-2.81,4.21,2.1,5.62,7.73,3.51,11.24-18.97,33.74-54.11,77.3-80.12,115.96v121.58c0,96.98-111.74,70.98-82.93-13.35,9.84-34.44,36.54-73.09,66.06-114.55,0-1.4-.7-30.22-.7-30.22-2.11,4.22-5.62,7.73-9.14,11.95-45.68,48.49-93.47,41.46-118.77,28.11-44.28-23.89-51.3-101.2-11.95-142.66,37.95-38.65,78.01-42.87,108.93-32.33,12.65,4.22,23.19,13.36,30.92,25.3v-21.08c0-5.62,4.22-8.43,9.14-8.43,4.21,0,8.43,4.21,8.43,8.43l-.7,137.04c24.6-33.74,50.6-67.47,65.36-94.17Zm-209.43-2.11c-33.03,30.92-24.6,101.2,7.03,115.26,21.08,9.84,57.62,17.57,98.39-25.3,40.06-40.76,17.57-109.63-14.76-118.77h.7c-26-7.73-56.92-6.32-91.36,28.81Zm127.9,151.8c-22.49,29.52-40.06,60.44-49.2,87.15-14.06,62.55,49.2,77.3,49.2,9.14v-96.28Z"/><path class="cls-1" d="m1730.59,3080.61c16.87-1.41,29.52-18.97,31.63-23.19,2.81-4.22,7.73-5.62,11.95-2.81,4.21,2.1,5.62,7.73,3.51,11.24-8.43,14.06-26.71,30.92-46.38,32.33,0,22.49-9.14,42.87-14.76,51.31-18.97,29.52-45.68,44.27-79.41,44.27-47.79,0-95.58-38.65-95.58-97.68,0-73.79,76.6-109.63,142.67-85.74,40.06,14.76,46.38,70.28,46.38,70.28Zm-85.04-62.55c-49.9-2.81-86.44,35.14-86.44,79.41s37.25,78.71,78.01,78.71c44.28,0,76.6-39.35,76.6-75.19-14.06.7-75.9-6.33-75.9-63.25,0-7.03,4.21-14.76,7.73-19.67Zm68.17,65.36c-8.43-40.06-20.38-47.79-28.11-54.11-14.76-12.65-36.54-6.32-28.81,20.38,7.73,25.3,34.44,34.44,56.92,33.74Z"/><path class="cls-1" d="m1025.44,499.46c-9.13,15.46-37.24,61.14-68.87,61.14-18.27,0-29.52-18.27-29.52-49.9-27.41,39.35-66.76,50.6-90.66,50.6-47.09,0-72.39-37.95-72.39-83.63,0-60.44,42.16-104.71,103.31-104.71,33.73,0,47.79,16.16,59.73,30.22v-21.08c0-4.92,4.22-9.13,9.14-9.13,4.22,0,8.43,4.21,8.43,9.13v129.31c0,15.46,4.92,37.24,21.79,30.22,23.19-10.54,80.11-113.14,82.93-117.36,2.1-4.22,7.73-5.62,11.95-2.81,3.51,2.1,4.92,7.73,2.81,11.24-2.81,4.22-10.54,21.79-38.65,66.77Zm-243.86-21.79c0,36.54,15.46,65.36,59.03,65.36,35.14,0,84.34-35.14,84.34-84.33,0-35.14-17.57-68.17-58.33-68.17-47.79,0-85.04,33.03-85.04,87.15Z"/><path class="cls-1" d="m1258.07,424.26c2.81-4.22,7.73-5.62,11.95-2.81,4.22,2.1,5.62,7.73,3.51,11.24-2.81,4.22-42.87,73.79-42.87,73.79-38.65,70.28-85.04,75.2-85.04,4.92v-85.74c0-40.76-14.76-35.84-57.63-35.84-9.84,21.08-23.89,42.17-23.89,42.87-2.81,4.22-7.73,5.62-11.95,3.51-4.21-2.11-5.62-7.73-3.51-11.95,2.81-4.22,28.11-48.49,33.03-66.06,1.4-4.21,7.03-7.03,11.25-4.92,4.21,1.4,7.03,6.32,4.92,10.54-.7,3.51-.7,6.32-2.11,8.43,45.68,0,66.76-3.51,66.76,53.41v85.74c0,59.73,28.11,26.7,54.82-15.46,0,0,38.65-67.47,40.76-71.68Z"/><path class="cls-4" d="m1292.51,557.79c-3.51,3.51-9.13,3.51-12.65,0-3.51-3.51-3.51-9.14,0-12.65,3.51-2.81,113.14-130.71,113.14-130.71-19.67,4.21-40.06,2.81-59.03-5.62-18.27-7.73-30.22-13.35-37.24-16.87,0,0-21.08,37.24-23.19,40.76-2.81,4.22-7.73,5.62-11.95,3.51-4.21-2.11-5.62-7.73-3.51-11.95,2.81-4.22,28.11-48.49,28.11-48.49,2.81-4.92,7.03-5.62,11.95-2.81,0,0,9.84,5.62,42.87,20.38,29.52,12.65,63.25,5.62,85.04-18.27,3.51-3.51,9.14-3.51,12.65,0s3.51,9.14,0,11.95c-3.51,3.51-113.85,132.82-113.85,132.82,17.57-4.92,36.54-3.51,53.41,7.03,52.71,33.03,51.3,14.06,64.66-1.41,8.43-14.05,56.22-96.98,59.03-101.2,2.11-4.22,7.73-5.62,11.95-2.81,4.21,2.1,5.62,7.73,2.81,11.24-2.11,4.22-50.6,87.15-59.03,101.9-7.03,16.87-35.84,47.79-89.26,7.03-21.08-15.46-57.62-4.21-75.9,16.17Z"/><path class="cls-1" d="m1681.85,447.46c16.87-1.41,29.52-18.97,31.63-23.19,2.81-4.22,7.73-5.62,11.95-2.81,4.21,2.1,5.62,7.73,3.51,11.24-8.43,14.06-26.71,30.92-46.38,32.33,0,22.49-9.14,42.87-14.76,51.31-18.97,29.52-45.68,44.27-79.41,44.27-47.79,0-95.58-38.65-95.58-97.68,0-73.79,76.6-109.63,142.67-85.74,40.06,14.76,46.38,70.28,46.38,70.28Zm-85.04-62.55c-49.9-2.81-86.44,35.14-86.44,79.41s37.25,78.71,78.01,78.71c44.27,0,76.6-39.35,76.6-75.19-14.06.7-75.9-6.33-75.9-63.25,0-7.03,4.21-14.76,7.73-19.67Zm68.17,65.36c-8.43-40.06-20.38-47.79-28.11-54.11-14.76-12.65-36.54-6.32-28.81,20.38,7.73,25.3,34.44,34.44,56.92,33.74Z"/><path class="cls-1" d="m396.09,731.23s0-245.89.6-260.96c-23.29,46.41-59.71,89.19-101.51,89.19-52.55,0-105.09-37.37-105.09-148.26s72.25-209.73,149.87-209.73c44.19,0,73.45,24.71,73.45,59.06v265.77c0,8.44,62.1-70.51,80.61-102.45,1.79-4.22,7.17-5.43,11.35-3.01,4.18,2.41,5.97,7.84,3.58,11.45-21.49,37.37-59.71,78.95-94.94,119.33-.6,64.48,0,178.39,0,178.39,0,8.44-17.91,9.64-17.91,1.21Zm.6-470.69c0-22.9-18.51-42.19-56.73-42.19-62.1,0-133.16,87.99-133.16,192.85s42.99,131.38,88.38,131.38c40.01,0,88.97-66.29,101.51-120.53v-161.51Z"/><path class="cls-1" d="m522.07,504.63v-92.81s-9.55,16.87-11.34,20.49c-2.39,4.22-7.76,6.03-11.94,3.62-4.18-3.01-5.38-7.84-3.59-12.05,2.99-4.22,28.06-47.61,28.06-47.61,4.18-7.24,16.12-4.22,16.12,4.22v124.15c0,71.11,98.52,34.35,123.6-10.25v-115.11c0-10.85,17.32-10.85,17.32,0v144.04c2.39,27.12,18.51,30.74,36.42,3.62h.6l59.71-103.06c2.98-4.82,7.76-5.43,11.94-3.01,4.18,2.41,5.37,7.23,2.98,12.05l-59.71,103.06v-.6c-17.91,39.78-71.05,33.14-69.26-12.06v-1.8c-42.99,42.18-140.92,71.12-140.92-16.87Z"/><path class="cls-1" d="m100.67,1430.65v-345.13c0-6.38,2.84-8.51,8.51-8.51h155.91c12.05,0,12.05,17.01,0,17.01H118.39v156.62h140.32c11.34,0,11.34,17.72,0,17.72H118.39v162.29c0,11.34-17.72,11.34-17.72,0Z"/><path class="cls-1" d="m502.49,1300.25c2.83-4.25,7.79-5.67,12.05-2.83,4.25,2.12,5.67,7.8,3.54,11.34-2.83,4.25-43.23,74.41-43.23,74.41-38.98,70.87-85.75,75.83-85.75,4.96v-86.46c0-41.11-14.88-36.14-58.11-36.14-9.92,21.26-24.1,42.52-24.1,43.23-2.83,4.25-7.8,5.67-12.05,3.54-4.25-2.13-5.67-7.8-3.54-12.05,2.83-4.25,28.35-48.9,33.31-66.62,1.42-4.25,7.09-7.09,11.34-4.96,4.25,1.42,7.09,6.38,4.96,10.63-.71,3.54-.71,6.38-2.12,8.51,46.06,0,67.32-3.54,67.32,53.86v86.46c0,60.24,28.35,26.93,55.28-15.59,0,0,38.98-68.03,41.11-72.29Z"/><path class="cls-1" d="m518.08,1308.76c-2.83,4.25-7.8,5.67-12.05,3.54-4.25-2.13-5.67-7.8-3.54-12.05,2.83-4.25,28.35-47.48,28.35-47.48.71-1.42,2.83-4.25,7.8-4.25,4.25,0,8.5,4.25,8.5,9.21v130.4c0,15.59-2.12,33.31,17.01,33.31,7.09,0,17.01-10.63,26.22-26.22,14.17-24.8,34.02-58.11,54.57-94.96,2.84-4.25,7.8-5.67,12.05-2.83,4.25,2.12,5.67,7.8,3.54,12.05-12.05,20.55-34.02,59.53-53.15,91.42-14.17,24.8-28.35,38.98-45.36,38.98-24.1,0-32.6-21.26-32.6-52.44v-96.38s-9.22,14.17-11.34,17.72Zm7.09-128.27c0-7.09,5.67-12.76,13.46-12.76,7.09,0,13.46,5.67,13.46,12.76,0,7.8-6.38,14.17-13.46,14.17-7.8,0-13.46-6.38-13.46-14.17Z"/><path class="cls-4" d="m738.48,1264.81l56.7,133.23c12.76,31.18,16.3,41.81,63.07-39.69,0,0,31.18-53.86,34.02-58.11,2.13-4.25,7.8-5.67,12.05-2.83,3.54,2.12,4.96,7.8,2.83,11.34-2.12,4.25-34.02,58.82-34.02,58.82-49.61,90.71-72.29,88.58-94.26,37.56l-53.86-128.98-36.85,30.47v122.6c0,12.05-17.72,11.34-17.72,0l.71-139.61c-5.67,11.34-8.51,15.59-10.63,19.14-2.83,4.25-7.8,5.67-12.05,3.54-4.25-2.13-5.67-7.8-3.54-12.05,2.83-4.25,26.22-43.23,26.22-71.58,0-4.96-.71-78.67-.71-83.63s4.25-9.21,9.21-9.21,8.51,4.25,8.51,9.21v138.91s102.76-84.33,106.3-87.88c3.54-2.83,9.22-2.83,12.76,1.42,2.83,3.54,2.12,9.22-1.42,12.05-3.54,2.83-67.33,55.28-67.33,55.28Z"/><path class="cls-1" d="m907.14,1308.76c-2.83,4.25-7.8,5.67-12.05,3.54-4.25-2.13-5.67-7.8-3.54-12.05,2.83-4.25,28.35-47.48,28.35-47.48.71-1.42,2.83-4.25,7.8-4.25,4.25,0,8.5,4.25,8.5,9.21v130.4c0,15.59-2.12,33.31,17.01,33.31,7.09,0,17.01-10.63,26.22-26.22,14.17-24.8,34.02-58.11,54.57-94.96,2.84-4.25,7.8-5.67,12.05-2.83,4.25,2.12,5.67,7.8,3.54,12.05-12.05,20.55-34.02,59.53-53.15,91.42-14.17,24.8-28.35,38.98-45.36,38.98-24.1,0-32.6-21.26-32.6-52.44v-96.38s-9.22,14.17-11.34,17.72Zm7.09-128.27c0-7.09,5.67-12.76,13.46-12.76,7.09,0,13.46,5.67,13.46,12.76,0,7.8-6.38,14.17-13.46,14.17-7.8,0-13.46-6.38-13.46-14.17Z"/><path class="cls-1" d="m1138.17,1419.31l-.71.71c-31.18,26.22-77.96,26.22-105.6,0-3.54-3.54-3.54-9.22-.71-12.76,3.54-3.54,9.21-3.54,12.76,0,19.85,19.14,70.16,23.39,92.13-12.76,5.67-9.92,7.09-24.8,5.67-40.39-2.12-40.4-50.31-62.37-69.45-85.04,0,0-20.55,36.14-22.68,39.69-2.83,4.25-7.8,5.67-12.05,3.54-4.25-2.13-5.67-7.8-3.54-12.05,2.83-4.25,35.43-61.65,37.56-65.91,2.84-4.25,8.51-5.67,12.05-2.83,4.25,2.12,5.67,7.79,3.54,12.05-2.83,4.25-5.67,9.92-7.09,12.05,10.63,9.92,73.7,45.36,78.66,97.09.71,3.54.71,10.63-.71,19.84,12.76-15.59,24.8-36.14,41.1-59.53,0,0,4.96-8.5,7.09-12.76,2.83-4.25,8.5-5.67,12.05-2.83,4.25,2.12,5.67,7.8,3.54,11.34-31.89,55.99-63.78,94.26-83.62,110.55Z"/><path class="cls-1" d="m1269.27,1438.44c-4.25,0-8.5-3.54-8.5-8.5v-156.62c0-9.22-11.34-12.05-18.43,0,0,0-18.43,31.89-20.55,35.43-2.83,4.25-7.8,5.67-12.05,3.54-4.25-2.13-5.67-7.8-3.54-12.05,2.83-4.25,20.55-35.43,20.55-35.43,17.01-29.06,51.74-18.43,51.74,8.51v2.12c46.77-46.07,100.63-29.76,115.51,3.54,56.7-59.53,124.73-26.93,124.73,19.84v102.05c0,20.55,13.46,31.89,29.76,3.54,23.39-39.68,58.11-99.92,60.24-104.18,2.83-4.25,8.5-5.67,12.05-2.83,4.25,2.12,5.67,7.8,3.54,11.34-2.12,4.25-38.97,66.61-60.95,104.89-22.68,38.97-62.36,31.18-62.36-12.76v-102.05c0-29.05-48.19-62.36-102.05,2.13v128.98c0,4.25-4.25,8.5-9.21,8.5-4.25,0-8.51-2.83-8.51-8.5v-131.11c0-29.05-48.9-63.07-102.76,2.84v128.27c0,4.96-4.25,8.5-9.22,8.5Z"/><path class="cls-1" d="m1790.87,1323.64c17.01-1.42,29.76-19.13,31.89-23.39,2.83-4.25,7.8-5.67,12.05-2.83,4.25,2.12,5.67,7.8,3.54,11.34-8.5,14.17-26.93,31.18-46.77,32.6,0,22.68-9.22,43.23-14.88,51.73-19.13,29.77-46.07,44.65-80.08,44.65-48.19,0-96.38-38.98-96.38-98.51,0-74.41,77.25-110.55,143.86-86.46,40.4,14.88,46.77,70.87,46.77,70.87Zm-85.75-63.07c-50.32-2.83-87.17,35.43-87.17,80.08s37.56,79.38,78.66,79.38c44.65,0,77.25-39.69,77.25-75.83-14.17.71-76.54-6.38-76.54-63.78,0-7.09,4.25-14.88,7.8-19.85Zm68.74,65.91c-8.51-40.39-20.55-48.19-28.35-54.57-14.88-12.76-36.85-6.38-29.06,20.55,7.8,25.51,34.73,34.73,57.41,34.02Z"/><path class="cls-4" d="m414.01,551.64c-.6,64.48,0,178.39,0,178.39,0,8.44-17.91,9.64-17.91,1.21,0,0,0-245.89.6-260.96-23.29,46.41-59.71,89.19-101.51,89.19-52.55,0-105.09-37.37-105.09-148.26s72.25-209.73,149.87-209.73c44.19,0,73.45,24.71,73.45,59.06v265.77l.6,25.31Zm-17.32-291.09c0-22.9-18.51-42.19-56.73-42.19-62.1,0-133.16,87.99-133.16,192.85s42.99,131.38,88.38,131.38c40.01,0,88.97-66.29,101.51-120.53v-161.51Z"/><path class="cls-1" d="m120.45,843.34h-3.36v-5.08c0-3.95.88-5.29,3.4-5.97l.67,1.85c-1.76.67-2.06,1.09-2.06,3.78v.34h1.34v5.08Zm5.92,0h-3.36v-5.08c0-3.95.88-5.29,3.4-5.97l.67,1.85c-1.76.67-2.06,1.09-2.06,3.78v.34h1.34v5.08Z"/><path class="cls-1" d="m144.85,866.11c-7.73-.59-13.36-5.54-13.36-16.84s6.76-16.93,15.46-16.93c7.94,0,14.7,5.21,14.7,16.59s-6.13,16.76-13.86,17.22l-.38,7.31h-2.18l-.38-7.35Zm13.69-16.84c0-10.12-5.33-14.24-12.01-14.24s-11.93,4.12-11.93,14.24,5.33,14.2,12.01,14.2,11.93-3.74,11.93-14.2Z"/><path class="cls-1" d="m166.06,842.08c1.76-.67,2.06-1.09,2.06-3.78v-.34h-1.34v-5.08h3.36v5.08c0,3.95-.88,5.29-3.4,5.97l-.67-1.85Zm5.92,0c1.76-.67,2.06-1.09,2.06-3.78v-.34h-1.34v-5.08h3.36v5.08c0,3.95-.88,5.29-3.4,5.97l-.67-1.85Z"/><path class="cls-1" d="m188.87,844.69v-.04h2.98l5.75,17.48h.08l6.3-17.48h2.69l6.17,17.48h.08l5.75-17.48h2.86v.04l-7.18,20.96h-3.02l-5.96-17.06h-.08l-6.22,17.06h-3.02l-7.18-20.96Z"/><path class="cls-1" d="m226.37,832.88h2.98v6.51h-2.98v-6.51Zm0,11.76h2.94v21h-2.94v-21Z"/><path class="cls-1" d="m247.67,862.96v2.6c-.76.21-2.14.59-4.03.59-3.82,0-6.34-1.6-6.34-6.89v-12.18h-4.16v-2.44h4.16v-6.05l2.94-1.43v7.48h5.92v2.44h-5.92v11.8c0,2.81.76,4.58,3.4,4.58,1.6,0,3.23-.29,4.03-.5Z"/><path class="cls-1" d="m252.5,832.88h2.94v15.16c1.05-2.1,3.28-3.95,7.31-3.95,4.75,0,7.77,2.52,7.77,7.94v13.61h-2.94v-13.27c0-4.33-2.14-5.71-5.5-5.71-3.82,0-6.64,2.69-6.64,5.63v13.36h-2.94v-32.77Z"/><path class="cls-1" d="m286.26,859.85c0-3.95,2.23-6.09,7.86-6.09h6.34v-1.72c0-2.98-1.26-5.42-5.46-5.42-3.95,0-5.33,1.51-5.33,4.12v.88h-2.98v-.84c0-5,4.2-6.68,8.32-6.68,5.8,0,8.4,2.86,8.4,8.44v13.11h-2.06l-.55-2.98h-.08c-1.26,1.89-3.7,3.53-7.35,3.53-4.92,0-7.1-2.31-7.1-6.34Zm14.2-1.85v-1.76h-7.01c-2.65,0-4.03.92-4.03,3.61,0,2.35,1.26,3.86,4.5,3.86,4.16,0,6.55-2.14,6.55-5.71Z"/><path class="cls-1" d="m318.52,859.22v-1.18h2.94v1.13c0,2.86,2.14,4.5,5.96,4.5s5.8-1.01,5.8-3.78c0-2.06-1.01-2.81-3.86-3.32l-4.62-.84c-3.02-.55-5.54-2.02-5.54-5.5,0-3.15,2.35-6.13,8.4-6.13s8.4,3.02,8.4,7.23v.88h-2.98v-.76c0-3.44-2.14-4.91-5.42-4.91-3.95,0-5.33,1.34-5.33,3.36s1.01,2.86,3.91,3.4l4.03.76c4.12.76,6.09,1.93,6.09,5.59,0,4.58-4.12,6.55-8.78,6.55-7.31,0-8.99-3.28-8.99-6.97Z"/><path class="cls-1" d="m353.13,862.96v2.6c-.76.21-2.14.59-4.03.59-3.82,0-6.34-1.6-6.34-6.89v-12.18h-4.16v-2.44h4.16v-6.05l2.94-1.43v7.48h5.92v2.44h-5.92v11.8c0,2.81.76,4.58,3.4,4.58,1.6,0,3.23-.29,4.03-.5Z"/><path class="cls-1" d="m357.96,844.64h2.6l.29,3.91c1.01-2.14,3.07-4.45,6.76-4.45,1.26,0,2.18.21,3.02.55v3.15c-1.13-.5-2.1-.76-3.4-.76-3.74,0-6.34,2.81-6.34,5.75v12.85h-2.94v-21Z"/><path class="cls-1" d="m373.58,859.85c0-3.95,2.23-6.09,7.86-6.09h6.34v-1.72c0-2.98-1.26-5.42-5.46-5.42-3.95,0-5.33,1.51-5.33,4.12v.88h-2.98v-.84c0-5,4.2-6.68,8.32-6.68,5.8,0,8.4,2.86,8.4,8.44v13.11h-2.06l-.55-2.98h-.08c-1.26,1.89-3.7,3.53-7.35,3.53-4.92,0-7.1-2.31-7.1-6.34Zm14.2-1.85v-1.76h-7.01c-2.65,0-4.03.92-4.03,3.61,0,2.35,1.26,3.86,4.5,3.86,4.16,0,6.55-2.14,6.55-5.71Z"/><path class="cls-1" d="m398.07,832.88h2.98v6.51h-2.98v-6.51Zm0,11.76h2.94v21h-2.94v-21Z"/><path class="cls-1" d="m407.77,867.45v-.13h3.11v.13c0,2.9,1.93,4.33,6.13,4.33,4.79,0,7.01-2.94,7.01-7.86v-2.1h-.08c-1.09,2.18-3.65,4.07-7.48,4.07-6.3,0-9.75-3.99-9.75-10.71,0-7.1,4.37-11.09,9.96-11.09,3.78,0,6.55,1.81,7.56,4.12h.13l.29-3.57h2.31v19.16c0,5.88-2.81,10.71-10.33,10.71-6.3,0-8.86-2.98-8.86-7.06Zm16.59-12.77c0-5.5-3.36-8.07-7.35-8.07-3.03,0-7.14,1.47-7.14,8.4s3.57,8.32,7.1,8.32c4.24,0,7.39-2.73,7.39-8.65Z"/><path class="cls-1" d="m434.31,832.88h2.94v15.16c1.05-2.1,3.28-3.95,7.31-3.95,4.75,0,7.77,2.52,7.77,7.94v13.61h-2.94v-13.27c0-4.33-2.14-5.71-5.5-5.71-3.82,0-6.64,2.69-6.64,5.63v13.36h-2.94v-32.77Z"/><path class="cls-1" d="m470.65,862.96v2.6c-.76.21-2.14.59-4.03.59-3.82,0-6.34-1.6-6.34-6.89v-12.18h-4.16v-2.44h4.16v-6.05l2.94-1.43v7.48h5.92v2.44h-5.92v11.8c0,2.81.76,4.58,3.4,4.58,1.6,0,3.23-.29,4.03-.5Z"/><path class="cls-1" d="m483.45,855.19c0-7.1,4.28-11.09,10.04-11.09,3.7,0,6.22,1.6,7.31,3.74h.04v-14.95h2.94v32.77h-1.97l-.67-3.61h-.08c-1.18,2.31-3.95,4.16-7.77,4.16-6.3,0-9.83-3.99-9.83-11.01Zm17.64-.5c0-5.5-3.36-8.07-7.35-8.07-3.11,0-7.14,1.47-7.14,8.4s3.61,8.61,7.14,8.61c4.24,0,7.35-2.73,7.35-8.95Z"/><path class="cls-1" d="m528.4,856.15h-15.96c.17,4.79,2.48,7.48,6.93,7.48,3.82,0,5.67-1.43,5.97-4.83h2.98c-.29,4.24-3.28,7.39-9.03,7.39-7.06,0-9.83-4.66-9.83-10.88s3.23-11.22,10-11.22,8.95,3.99,8.95,10.21v1.85Zm-3.11-2.98c0-4.45-1.72-6.55-5.92-6.55s-6.55,2.65-6.89,6.97h12.81v-.42Z"/><path class="cls-1" d="m532.38,859.22v-1.18h2.94v1.13c0,2.86,2.14,4.5,5.96,4.5s5.8-1.01,5.8-3.78c0-2.06-1.01-2.81-3.86-3.32l-4.62-.84c-3.02-.55-5.54-2.02-5.54-5.5,0-3.15,2.35-6.13,8.4-6.13s8.4,3.02,8.4,7.23v.88h-2.98v-.76c0-3.44-2.14-4.91-5.42-4.91-3.95,0-5.33,1.34-5.33,3.36s1.01,2.86,3.91,3.4l4.03.76c4.12.76,6.09,1.93,6.09,5.59,0,4.58-4.12,6.55-8.78,6.55-7.31,0-8.99-3.28-8.99-6.97Z"/><path class="cls-1" d="m554.35,855.31c0-6.38,3.23-11.22,10-11.22s8.95,3.91,8.95,8.95v.42h-3.11v-.63c0-3.82-1.64-6.09-5.84-6.09-4.75,0-7.01,3.11-7.01,8.4,0,5.63,2.39,8.49,6.93,8.49,3.82,0,5.84-1.85,5.92-5.67h3.02c-.08,4.66-3.15,8.23-9.03,8.23-7.22,0-9.83-4.75-9.83-10.88Z"/><path class="cls-1" d="m596.44,856.15h-15.96c.17,4.79,2.48,7.48,6.93,7.48,3.82,0,5.67-1.43,5.97-4.83h2.98c-.29,4.24-3.28,7.39-9.03,7.39-7.06,0-9.83-4.66-9.83-10.88s3.23-11.22,10-11.22,8.95,3.99,8.95,10.21v1.85Zm-3.11-2.98c0-4.45-1.72-6.55-5.92-6.55s-6.55,2.65-6.89,6.97h12.81v-.42Z"/><path class="cls-1" d="m602.31,844.64h2.6l.29,3.49c1.01-2.14,3.28-4.03,7.35-4.03,4.75,0,7.77,2.52,7.77,7.94v13.61h-2.94v-13.27c0-4.33-2.14-5.71-5.5-5.71-3.82,0-6.64,2.69-6.64,5.63v13.36h-2.94v-21Z"/><path class="cls-1" d="m626,855.19c0-7.1,4.28-11.09,10.04-11.09,3.7,0,6.22,1.6,7.31,3.74h.04v-14.95h2.94v32.77h-1.97l-.67-3.61h-.08c-1.18,2.31-3.95,4.16-7.77,4.16-6.3,0-9.83-3.99-9.83-11.01Zm17.64-.5c0-5.5-3.36-8.07-7.35-8.07-3.11,0-7.14,1.47-7.14,8.4s3.61,8.61,7.14,8.61c4.24,0,7.35-2.73,7.35-8.95Z"/><path class="cls-1" d="m670.95,856.15h-15.96c.17,4.79,2.48,7.48,6.93,7.48,3.82,0,5.67-1.43,5.97-4.83h2.98c-.29,4.24-3.28,7.39-9.03,7.39-7.06,0-9.83-4.66-9.83-10.88s3.23-11.22,10-11.22,8.95,3.99,8.95,10.21v1.85Zm-3.11-2.98c0-4.45-1.72-6.55-5.92-6.55s-6.55,2.65-6.89,6.97h12.81v-.42Z"/><path class="cls-1" d="m676.82,844.64h2.6l.29,3.91c1.01-2.14,3.07-4.45,6.76-4.45,1.26,0,2.18.21,3.02.55v3.15c-1.13-.5-2.1-.76-3.4-.76-3.74,0-6.34,2.81-6.34,5.75v12.85h-2.94v-21Z"/><path class="cls-1" d="m1252.12,832.88h2.94v32.77h-2.94v-32.77Z"/><path class="cls-1" d="m1274.63,862.96v2.6c-.76.21-2.14.59-4.03.59-3.82,0-6.34-1.6-6.34-6.89v-12.18h-4.16v-2.44h4.16v-6.05l2.94-1.43v7.48h5.92v2.44h-5.92v11.8c0,2.81.76,4.58,3.4,4.58,1.6,0,3.23-.29,4.03-.5Z"/><path class="cls-1" d="m1278.2,859.85c0-3.95,2.23-6.09,7.86-6.09h6.34v-1.72c0-2.98-1.26-5.42-5.46-5.42-3.95,0-5.33,1.51-5.33,4.12v.88h-2.98v-.84c0-5,4.2-6.68,8.32-6.68,5.8,0,8.4,2.86,8.4,8.44v13.11h-2.06l-.55-2.98h-.08c-1.26,1.89-3.7,3.53-7.35,3.53-4.92,0-7.1-2.31-7.1-6.34Zm14.2-1.85v-1.76h-7.01c-2.65,0-4.03.92-4.03,3.61,0,2.35,1.26,3.86,4.5,3.86,4.16,0,6.55-2.14,6.55-5.71Z"/><path class="cls-1" d="m1302.68,832.88h2.94v32.77h-2.94v-32.77Z"/><path class="cls-1" d="m1312.97,832.88h2.98v6.51h-2.98v-6.51Zm0,11.76h2.94v21h-2.94v-21Z"/><path class="cls-1" d="m1321.63,855.31c0-6.38,3.23-11.22,10-11.22s8.95,3.91,8.95,8.95v.42h-3.11v-.63c0-3.82-1.64-6.09-5.84-6.09-4.75,0-7.02,3.11-7.02,8.4,0,5.63,2.39,8.49,6.93,8.49,3.82,0,5.84-1.85,5.92-5.67h3.02c-.08,4.66-3.15,8.23-9.03,8.23-7.22,0-9.83-4.75-9.83-10.88Z"/><path class="cls-1" d="m1354.22,859.22v-1.18h2.94v1.13c0,2.86,2.14,4.5,5.96,4.5s5.8-1.01,5.8-3.78c0-2.06-1.01-2.81-3.86-3.32l-4.62-.84c-3.02-.55-5.54-2.02-5.54-5.5,0-3.15,2.35-6.13,8.4-6.13s8.4,3.02,8.4,7.23v.88h-2.98v-.76c0-3.44-2.14-4.91-5.42-4.91-3.95,0-5.33,1.34-5.33,3.36s1.01,2.86,3.91,3.4l4.03.76c4.12.76,6.09,1.93,6.09,5.59,0,4.58-4.12,6.55-8.78,6.55-7.31,0-8.99-3.28-8.99-6.97Z"/><path class="cls-1" d="m1388.83,862.96v2.6c-.76.21-2.14.59-4.03.59-3.82,0-6.34-1.6-6.34-6.89v-12.18h-4.16v-2.44h4.16v-6.05l2.94-1.43v7.48h5.92v2.44h-5.92v11.8c0,2.81.76,4.58,3.4,4.58,1.6,0,3.23-.29,4.03-.5Z"/><path class="cls-1" d="m1393.87,844.64l6.89,17.98h.08l7.14-17.98h3.07v.04l-8.86,20.84-3.11,8.53h-2.98v-.04l3.19-8.36-8.78-20.96v-.04h3.36Z"/><path class="cls-1" d="m1415.24,832.88h2.94v32.77h-2.94v-32.77Z"/><path class="cls-1" d="m1442.8,856.15h-15.96c.17,4.79,2.48,7.48,6.93,7.48,3.82,0,5.67-1.43,5.97-4.83h2.98c-.29,4.24-3.28,7.39-9.03,7.39-7.06,0-9.83-4.66-9.83-10.88s3.23-11.22,10-11.22,8.95,3.99,8.95,10.21v1.85Zm-3.11-2.98c0-4.45-1.72-6.55-5.92-6.55s-6.55,2.65-6.89,6.97h12.81v-.42Z"/><path class="cls-1" d="m1460.02,843.34h-3.36v-5.08c0-3.95.88-5.29,3.4-5.97l.67,1.85c-1.76.67-2.06,1.09-2.06,3.78v.34h1.34v5.08Zm5.92,0h-3.36v-5.08c0-3.95.88-5.29,3.4-5.97l.67,1.85c-1.76.67-2.06,1.09-2.06,3.78v.34h1.34v5.08Z"/><path class="cls-1" d="m1470.01,863.08l14.7-15.88h-14.58v-2.56h18.23v2.56l-14.7,15.84h14.66v2.6h-18.31v-2.56Z"/><path class="cls-1" d="m1491.73,842.08c1.76-.67,2.06-1.09,2.06-3.78v-.34h-1.34v-5.08h3.36v5.08c0,3.95-.88,5.29-3.4,5.97l-.67-1.85Zm5.92,0c1.76-.67,2.06-1.09,2.06-3.78v-.34h-1.34v-5.08h3.36v5.08c0,3.95-.88,5.29-3.4,5.97l-.67-1.85Z"/><line class="cls-5" x1="404.69" y1="747.56" x2="404.69" y2="748.43"/><line class="cls-7" x1="404.69" y1="768.09" x2="404.69" y2="801.5"/><line class="cls-5" x1="404.69" y1="811.33" x2="404.69" y2="812.2"/><line class="cls-5" x1="1372.77" y1="577.56" x2="1372.77" y2="578.43"/><line class="cls-9" x1="1372.77" y1="596.21" x2="1372.77" y2="802.44"/><line class="cls-5" x1="1372.77" y1="811.33" x2="1372.77" y2="812.2"/><path class="cls-1" d="m99.58,3495.79v-2.02h3.02v2.18c0,3.74,2.6,6.05,7.94,6.05s8.44-1.97,8.44-6.22c0-3.32-1.39-5.17-4.92-6.09l-6.64-1.72c-4.33-1.13-7.18-2.98-7.18-8.15s3.78-8.91,10.92-8.91,10.59,3.45,10.59,9.07v2.94h-3.02v-2.81c0-4.62-3.07-6.51-7.56-6.51-5.12,0-7.81,2.14-7.81,6.01,0,3.61,1.76,4.7,5.55,5.71l5.75,1.55c5.12,1.39,7.43,3.74,7.43,8.65,0,6.09-4.33,9.24-11.47,9.24-9.12,0-11.05-4.7-11.05-8.99Z"/><path class="cls-1" d="m146.12,3494.74h-15.96c.17,4.79,2.48,7.48,6.93,7.48,3.82,0,5.67-1.43,5.97-4.83h2.98c-.29,4.24-3.28,7.39-9.03,7.39-7.06,0-9.83-4.66-9.83-10.88s3.23-11.22,10-11.22,8.95,3.99,8.95,10.21v1.85Zm-3.11-2.98c0-4.45-1.72-6.55-5.92-6.55s-6.55,2.65-6.89,6.97h12.81v-.42Z"/><path class="cls-1" d="m151.99,3483.23h2.6l.29,3.91c1.01-2.14,3.07-4.45,6.76-4.45,1.26,0,2.18.21,3.02.55v3.15c-1.13-.5-2.1-.76-3.4-.76-3.74,0-6.34,2.81-6.34,5.75v12.85h-2.94v-21Z"/><path class="cls-1" d="m169.29,3471.47h2.98v6.51h-2.98v-6.51Zm0,11.76h2.94v21h-2.94v-21Z"/><path class="cls-1" d="m176.69,3483.23h4.16v-5.42c0-5.29,3.15-6.89,6.38-6.89,1.85,0,2.98.29,3.74.55v2.6c-.71-.21-1.89-.46-3.49-.46-2.65,0-3.7,1.76-3.7,4.58v5.04h11.13v-5.42c0-5.29,3.15-6.89,6.38-6.89,1.85,0,2.98.29,3.74.55v2.6c-.71-.21-1.89-.46-3.49-.46-2.65,0-3.7,1.76-3.7,4.58v5.04h5.92v2.44h-5.92v18.57h-2.94v-18.57h-11.13v18.57h-2.94v-18.57h-4.16v-2.44Z"/><path class="cls-1" d="m224.61,3494.74h-15.96c.17,4.79,2.48,7.48,6.93,7.48,3.82,0,5.67-1.43,5.97-4.83h2.98c-.29,4.24-3.28,7.39-9.03,7.39-7.06,0-9.83-4.66-9.83-10.88s3.23-11.22,10-11.22,8.95,3.99,8.95,10.21v1.85Zm-3.11-2.98c0-4.45-1.72-6.55-5.92-6.55s-6.55,2.65-6.89,6.97h12.81v-.42Z"/><path class="cls-1" d="m228.81,3493.78c0-7.1,4.28-11.09,10.04-11.09,3.7,0,6.22,1.6,7.31,3.74h.04v-14.96h2.94v32.77h-1.97l-.67-3.61h-.08c-1.18,2.31-3.95,4.16-7.77,4.16-6.3,0-9.83-3.99-9.83-11.01Zm17.64-.5c0-5.5-3.36-8.07-7.35-8.07-3.11,0-7.14,1.47-7.14,8.4s3.61,8.61,7.14,8.61c4.24,0,7.35-2.73,7.35-8.95Z"/><path class="cls-1" d="m267.83,3481.93h-3.36v-5.08c0-3.95.88-5.29,3.4-5.96l.67,1.85c-1.76.67-2.06,1.09-2.06,3.78v.34h1.34v5.08Zm5.92,0h-3.36v-5.08c0-3.95.88-5.29,3.4-5.96l.67,1.85c-1.76.67-2.06,1.09-2.06,3.78v.34h1.34v5.08Z"/><path class="cls-1" d="m281.18,3471.47h2.94v32.77h-2.94v-32.77Z"/><path class="cls-1" d="m290.84,3480.67c1.76-.67,2.06-1.09,2.06-3.78v-.34h-1.34v-5.08h3.36v5.08c0,3.95-.88,5.29-3.4,5.97l-.67-1.85Zm5.92,0c1.76-.67,2.06-1.09,2.06-3.78v-.34h-1.34v-5.08h3.36v5.08c0,3.95-.88,5.29-3.4,5.97l-.67-1.85Z"/><line class="cls-5" x1="200.65" y1="3210.15" x2="200.65" y2="3211.02"/><line class="cls-9" x1="200.65" y1="3228.8" x2="200.65" y2="3435.03"/><line class="cls-5" x1="200.65" y1="3443.92" x2="200.65" y2="3444.79"/><path class="cls-1" d="m415.53,1716.41h-3.36v-5.08c0-3.95.88-5.29,3.4-5.96l.67,1.85c-1.76.67-2.06,1.09-2.06,3.78v.34h1.34v5.08Zm5.92,0h-3.36v-5.08c0-3.95.88-5.29,3.4-5.96l.67,1.85c-1.76.67-2.06,1.09-2.06,3.78v.34h1.34v5.08Z"/><path class="cls-1" d="m427.84,1705.95h2.94v23.23l12.14-11.47h3.65v.04l-8.4,7.86,8.78,13.06v.04h-3.36l-7.39-11.22-5.42,5.04v6.17h-2.94v-32.77Z"/><path class="cls-1" d="m450.1,1715.15c1.76-.67,2.06-1.09,2.06-3.78v-.34h-1.34v-5.08h3.36v5.08c0,3.95-.88,5.29-3.4,5.96l-.67-1.85Zm5.92,0c1.76-.67,2.06-1.09,2.06-3.78v-.34h-1.34v-5.08h3.36v5.08c0,3.95-.88,5.29-3.4,5.96l-.67-1.85Z"/><path class="cls-1" d="m472.9,1717.75v-.04h2.98l5.75,17.48h.08l6.3-17.48h2.69l6.17,17.48h.08l5.75-17.48h2.86v.04l-7.18,20.96h-3.02l-5.96-17.05h-.08l-6.22,17.05h-3.02l-7.18-20.96Z"/><path class="cls-1" d="m510.41,1717.71h2.6l.29,3.91c1.01-2.14,3.07-4.45,6.76-4.45,1.26,0,2.18.21,3.02.55v3.15c-1.13-.5-2.1-.76-3.4-.76-3.74,0-6.34,2.81-6.34,5.75v12.85h-2.94v-21Z"/><path class="cls-1" d="m527.71,1705.95h2.98v6.51h-2.98v-6.51Zm0,11.76h2.94v21h-2.94v-21Z"/><path class="cls-1" d="m538.63,1732.33v-12.18h-4.16v-2.44h4.16v-6.05l2.94-1.43v7.48h11.85v-6.05l2.94-1.43v7.48h5.92v2.44h-5.92v11.8c0,2.81.76,4.58,3.4,4.58,1.6,0,3.24-.29,4.03-.5v2.6c-.76.21-2.14.59-4.03.59-3.82,0-6.34-1.6-6.34-6.89v-12.18h-11.85v11.8c0,2.81.76,4.58,3.4,4.58,1.6,0,3.23-.29,4.03-.5v2.6c-.76.21-2.14.59-4.03.59-3.82,0-6.34-1.6-6.34-6.89Z"/><path class="cls-1" d="m585.26,1729.22h-15.96c.17,4.79,2.48,7.48,6.93,7.48,3.82,0,5.67-1.43,5.97-4.83h2.98c-.29,4.24-3.28,7.39-9.03,7.39-7.06,0-9.83-4.66-9.83-10.88s3.23-11.22,10-11.22,8.95,3.99,8.95,10.21v1.85Zm-3.11-2.98c0-4.45-1.72-6.55-5.92-6.55s-6.55,2.65-6.89,6.97h12.81v-.42Z"/><path class="cls-1" d="m591.13,1717.71h2.6l.29,3.49c1.01-2.14,3.28-4.03,7.35-4.03,4.75,0,7.77,2.52,7.77,7.94v13.61h-2.94v-13.27c0-4.33-2.14-5.71-5.5-5.71-3.82,0-6.64,2.69-6.64,5.63v13.36h-2.94v-21Z"/><path class="cls-1" d="m623.43,1717.75v-.04h2.98l5.75,17.48h.08l6.3-17.48h2.69l6.17,17.48h.08l5.75-17.48h2.86v.04l-7.18,20.96h-3.02l-5.96-17.05h-.08l-6.22,17.05h-3.02l-7.18-20.96Z"/><path class="cls-1" d="m660.94,1705.95h2.98v6.51h-2.98v-6.51Zm0,11.76h2.94v21h-2.94v-21Z"/><path class="cls-1" d="m682.23,1736.03v2.6c-.76.21-2.14.59-4.03.59-3.82,0-6.34-1.6-6.34-6.89v-12.18h-4.16v-2.44h4.16v-6.05l2.94-1.43v7.48h5.92v2.44h-5.92v11.8c0,2.81.76,4.58,3.4,4.58,1.6,0,3.23-.29,4.03-.5Z"/><path class="cls-1" d="m687.06,1705.95h2.94v15.17c1.05-2.1,3.28-3.95,7.31-3.95,4.75,0,7.77,2.52,7.77,7.94v13.61h-2.94v-13.27c0-4.33-2.14-5.71-5.5-5.71-3.82,0-6.64,2.69-6.64,5.63v13.36h-2.94v-32.77Z"/><path class="cls-1" d="m733.05,1736.03v2.6c-.76.21-2.14.59-4.03.59-3.82,0-6.34-1.6-6.34-6.89v-12.18h-4.16v-2.44h4.16v-6.05l2.94-1.43v7.48h5.92v2.44h-5.92v11.8c0,2.81.76,4.58,3.4,4.58,1.6,0,3.23-.29,4.03-.5Z"/><path class="cls-1" d="m735.15,1717.75v-.04h2.98l5.75,17.48h.08l6.3-17.48h2.69l6.17,17.48h.08l5.75-17.48h2.86v.04l-7.18,20.96h-3.02l-5.96-17.05h-.08l-6.22,17.05h-3.02l-7.18-20.96Z"/><path class="cls-1" d="m770.14,1728.21c0-6.22,3.32-11.05,10.38-11.05,6.59,0,10.25,4.83,10.25,11.05s-3.7,11.05-10.29,11.05c-7.27,0-10.33-4.83-10.33-11.05Zm17.56,0c0-5.33-2.9-8.49-7.22-8.49-4.75,0-7.27,3.15-7.27,8.49s2.56,8.49,7.27,8.49c4.33,0,7.22-3.15,7.22-8.49Z"/><path class="cls-1" d="m804.41,1732.29v-1.18h2.94v1.13c0,2.86,2.14,4.5,5.96,4.5s5.8-1.01,5.8-3.78c0-2.06-1.01-2.81-3.86-3.32l-4.62-.84c-3.02-.55-5.54-2.02-5.54-5.5,0-3.15,2.35-6.13,8.4-6.13s8.4,3.02,8.4,7.23v.88h-2.98v-.76c0-3.44-2.14-4.92-5.42-4.92-3.95,0-5.33,1.34-5.33,3.36s1.01,2.86,3.91,3.4l4.03.76c4.12.76,6.09,1.93,6.09,5.59,0,4.58-4.12,6.55-8.78,6.55-7.31,0-8.99-3.28-8.99-6.97Z"/><path class="cls-1" d="m839.02,1736.03v2.6c-.76.21-2.14.59-4.03.59-3.82,0-6.34-1.6-6.34-6.89v-12.18h-4.16v-2.44h4.16v-6.05l2.94-1.43v7.48h5.92v2.44h-5.92v11.8c0,2.81.76,4.58,3.4,4.58,1.6,0,3.23-.29,4.03-.5Z"/><path class="cls-1" d="m843.85,1717.71h2.6l.29,3.91c1.01-2.14,3.07-4.45,6.76-4.45,1.26,0,2.18.21,3.02.55v3.15c-1.13-.5-2.1-.76-3.4-.76-3.74,0-6.34,2.81-6.34,5.75v12.85h-2.94v-21Z"/><path class="cls-1" d="m858.84,1728.21c0-6.22,3.32-11.05,10.38-11.05,6.59,0,10.25,4.83,10.25,11.05s-3.7,11.05-10.29,11.05c-7.27,0-10.33-4.83-10.33-11.05Zm17.56,0c0-5.33-2.9-8.49-7.22-8.49-4.75,0-7.27,3.15-7.27,8.49s2.56,8.49,7.27,8.49c4.33,0,7.22-3.15,7.22-8.49Z"/><path class="cls-1" d="m884.71,1705.95h2.94v23.23l12.14-11.47h3.65v.04l-8.4,7.86,8.78,13.06v.04h-3.36l-7.39-11.22-5.42,5.04v6.17h-2.94v-32.77Z"/><path class="cls-1" d="m925.08,1729.22h-15.96c.17,4.79,2.48,7.48,6.93,7.48,3.82,0,5.67-1.43,5.97-4.83h2.98c-.29,4.24-3.28,7.39-9.03,7.39-7.06,0-9.83-4.66-9.83-10.88s3.23-11.22,10-11.22,8.95,3.99,8.95,10.21v1.85Zm-3.11-2.98c0-4.45-1.72-6.55-5.92-6.55s-6.55,2.65-6.89,6.97h12.81v-.42Z"/><path class="cls-1" d="m929.07,1732.29v-1.18h2.94v1.13c0,2.86,2.14,4.5,5.96,4.5s5.8-1.01,5.8-3.78c0-2.06-1.01-2.81-3.86-3.32l-4.62-.84c-3.02-.55-5.54-2.02-5.54-5.5,0-3.15,2.35-6.13,8.4-6.13s8.4,3.02,8.4,7.23v.88h-2.98v-.76c0-3.44-2.14-4.92-5.42-4.92-3.95,0-5.33,1.34-5.33,3.36s1.01,2.86,3.91,3.4l4.03.76c4.12.76,6.09,1.93,6.09,5.59,0,4.58-4.12,6.55-8.78,6.55-7.31,0-8.99-3.28-8.99-6.97Z"/><path class="cls-1" d="m393.44,1766.6v-.04h2.98l5.75,17.47h.08l6.3-17.47h2.69l6.17,17.47h.08l5.75-17.47h2.86v.04l-7.18,20.96h-3.02l-5.96-17.06h-.08l-6.22,17.06h-3.02l-7.18-20.96Z"/><path class="cls-1" d="m430.95,1754.79h2.98v6.51h-2.98v-6.51Zm0,11.76h2.94v21h-2.94v-21Z"/><path class="cls-1" d="m452.24,1784.87v2.6c-.76.21-2.14.59-4.03.59-3.82,0-6.34-1.6-6.34-6.89v-12.18h-4.16v-2.44h4.16v-6.05l2.94-1.43v7.48h5.92v2.44h-5.92v11.8c0,2.81.76,4.58,3.4,4.58,1.6,0,3.23-.29,4.03-.5Z"/><path class="cls-1" d="m457.07,1754.79h2.94v15.16c1.05-2.1,3.28-3.95,7.31-3.95,4.75,0,7.77,2.52,7.77,7.94v13.61h-2.94v-13.27c0-4.33-2.14-5.71-5.5-5.71-3.82,0-6.64,2.69-6.64,5.63v13.36h-2.94v-32.77Z"/><path class="cls-1" d="m492.1,1754.79h2.94v32.77h-2.94v-32.77Z"/><path class="cls-1" d="m500.71,1777.06c0-6.22,3.32-11.05,10.38-11.05,6.59,0,10.25,4.83,10.25,11.05s-3.7,11.05-10.29,11.05c-7.27,0-10.33-4.83-10.33-11.05Zm17.56,0c0-5.33-2.9-8.49-7.22-8.49-4.75,0-7.27,3.15-7.27,8.49s2.56,8.49,7.27,8.49c4.33,0,7.22-3.15,7.22-8.49Z"/><path class="cls-1" d="m525.53,1777.06c0-6.22,3.32-11.05,10.38-11.05,6.59,0,10.25,4.83,10.25,11.05s-3.7,11.05-10.29,11.05c-7.27,0-10.33-4.83-10.33-11.05Zm17.56,0c0-5.33-2.9-8.49-7.22-8.49-4.75,0-7.27,3.15-7.27,8.49s2.56,8.49,7.27,8.49c4.33,0,7.22-3.15,7.22-8.49Z"/><path class="cls-1" d="m552.03,1766.56h2.39l.34,3.86h.08c1.13-2.48,4.03-4.41,7.86-4.41,6.3,0,9.66,3.99,9.66,11.01s-4.29,11.09-9.87,11.09c-3.78,0-6.38-1.6-7.43-3.7h-.08v11.55h-2.94v-29.41Zm17.18,10.63c0-7.18-3.4-8.61-6.93-8.61-4.24,0-7.56,2.73-7.56,8.44,0,6.01,3.45,8.57,7.44,8.57,3.02,0,7.06-1.47,7.06-8.4Z"/><path class="cls-1" d="m577.61,1754.79h2.94v32.77h-2.94v-32.77Z"/><path class="cls-1" d="m605.17,1778.07h-15.96c.17,4.79,2.48,7.48,6.93,7.48,3.82,0,5.67-1.43,5.97-4.83h2.98c-.29,4.24-3.28,7.39-9.03,7.39-7.06,0-9.83-4.66-9.83-10.88s3.23-11.22,10-11.22,8.95,3.99,8.95,10.21v1.85Zm-3.11-2.98c0-4.45-1.72-6.55-5.92-6.55s-6.55,2.65-6.89,6.97h12.81v-.42Z"/><path class="cls-1" d="m609.15,1781.13v-1.18h2.94v1.13c0,2.86,2.14,4.5,5.96,4.5s5.8-1.01,5.8-3.78c0-2.06-1.01-2.81-3.86-3.32l-4.62-.84c-3.02-.55-5.54-2.02-5.54-5.5,0-3.15,2.35-6.13,8.4-6.13s8.4,3.02,8.4,7.22v.88h-2.98v-.76c0-3.44-2.14-4.91-5.42-4.91-3.95,0-5.33,1.34-5.33,3.36s1.01,2.86,3.91,3.4l4.03.76c4.12.76,6.09,1.93,6.09,5.59,0,4.58-4.12,6.55-8.78,6.55-7.31,0-8.99-3.28-8.99-6.97Z"/><path class="cls-1" d="m630.91,1781.13v-1.18h2.94v1.13c0,2.86,2.14,4.5,5.96,4.5s5.8-1.01,5.8-3.78c0-2.06-1.01-2.81-3.86-3.32l-4.62-.84c-3.02-.55-5.54-2.02-5.54-5.5,0-3.15,2.35-6.13,8.4-6.13s8.4,3.02,8.4,7.22v.88h-2.98v-.76c0-3.44-2.14-4.91-5.42-4.91-3.95,0-5.33,1.34-5.33,3.36s1.01,2.86,3.91,3.4l4.03.76c4.12.76,6.09,1.93,6.09,5.59,0,4.58-4.12,6.55-8.78,6.55-7.31,0-8.99-3.28-8.99-6.97Z"/><path class="cls-1" d="m653.29,1781.34h3.36v6.22c0,3.95-.88,5.29-3.4,5.96l-.67-1.85c1.76-.67,2.06-1.09,2.06-3.78v-.34h-1.34v-6.22Z"/><path class="cls-1" d="m670.72,1781.13v-1.18h2.94v1.13c0,2.86,2.14,4.5,5.96,4.5s5.8-1.01,5.8-3.78c0-2.06-1.01-2.81-3.86-3.32l-4.62-.84c-3.02-.55-5.54-2.02-5.54-5.5,0-3.15,2.35-6.13,8.4-6.13s8.4,3.02,8.4,7.22v.88h-2.98v-.76c0-3.44-2.14-4.91-5.42-4.91-3.95,0-5.33,1.34-5.33,3.36s1.01,2.86,3.91,3.4l4.03.76c4.12.76,6.09,1.93,6.09,5.59,0,4.58-4.12,6.55-8.78,6.55-7.31,0-8.99-3.28-8.99-6.97Z"/><path class="cls-1" d="m694.37,1754.79h2.94v15.16c1.05-2.1,3.28-3.95,7.31-3.95,4.75,0,7.77,2.52,7.77,7.94v13.61h-2.94v-13.27c0-4.33-2.14-5.71-5.5-5.71-3.82,0-6.64,2.69-6.64,5.63v13.36h-2.94v-32.77Z"/><path class="cls-1" d="m718.06,1777.06c0-6.22,3.32-11.05,10.38-11.05,6.59,0,10.25,4.83,10.25,11.05s-3.7,11.05-10.29,11.05c-7.27,0-10.33-4.83-10.33-11.05Zm17.56,0c0-5.33-2.9-8.49-7.22-8.49-4.75,0-7.27,3.15-7.27,8.49s2.56,8.49,7.27,8.49c4.33,0,7.22-3.15,7.22-8.49Z"/><path class="cls-1" d="m744.56,1766.56h2.6l.29,3.91c1.01-2.14,3.07-4.45,6.76-4.45,1.26,0,2.18.21,3.02.55v3.15c-1.13-.5-2.1-.76-3.4-.76-3.74,0-6.34,2.81-6.34,5.75v12.85h-2.94v-21Z"/><path class="cls-1" d="m772.83,1784.87v2.6c-.76.21-2.14.59-4.03.59-3.82,0-6.34-1.6-6.34-6.89v-12.18h-4.16v-2.44h4.16v-6.05l2.94-1.43v7.48h5.92v2.44h-5.92v11.8c0,2.81.76,4.58,3.4,4.58,1.6,0,3.23-.29,4.03-.5Z"/><path class="cls-1" d="m786.06,1781.76c0-3.95,2.23-6.09,7.86-6.09h6.34v-1.72c0-2.98-1.26-5.42-5.46-5.42-3.95,0-5.33,1.51-5.33,4.12v.88h-2.98v-.84c0-5,4.2-6.68,8.32-6.68,5.8,0,8.4,2.86,8.4,8.44v13.11h-2.06l-.55-2.98h-.08c-1.26,1.89-3.7,3.53-7.35,3.53-4.92,0-7.1-2.31-7.1-6.34Zm14.2-1.85v-1.76h-7.01c-2.65,0-4.03.92-4.03,3.61,0,2.35,1.26,3.86,4.5,3.86,4.16,0,6.55-2.14,6.55-5.71Z"/><path class="cls-1" d="m808.65,1781.13v-1.18h2.94v1.13c0,2.86,2.14,4.5,5.96,4.5s5.8-1.01,5.8-3.78c0-2.06-1.01-2.81-3.86-3.32l-4.62-.84c-3.02-.55-5.54-2.02-5.54-5.5,0-3.15,2.35-6.13,8.4-6.13s8.4,3.02,8.4,7.22v.88h-2.98v-.76c0-3.44-2.14-4.91-5.42-4.91-3.95,0-5.33,1.34-5.33,3.36s1.01,2.86,3.91,3.4l4.03.76c4.12.76,6.09,1.93,6.09,5.59,0,4.58-4.12,6.55-8.78,6.55-7.31,0-8.99-3.28-8.99-6.97Z"/><path class="cls-1" d="m830.62,1777.23c0-6.38,3.23-11.22,10-11.22s8.95,3.91,8.95,8.95v.42h-3.11v-.63c0-3.82-1.64-6.09-5.84-6.09-4.75,0-7.02,3.11-7.02,8.4,0,5.63,2.39,8.49,6.93,8.49,3.82,0,5.84-1.85,5.92-5.67h3.02c-.08,4.66-3.15,8.23-9.03,8.23-7.22,0-9.83-4.75-9.83-10.88Z"/><path class="cls-1" d="m872.7,1778.07h-15.96c.17,4.79,2.48,7.48,6.93,7.48,3.82,0,5.67-1.43,5.97-4.83h2.98c-.29,4.24-3.28,7.39-9.03,7.39-7.06,0-9.83-4.66-9.83-10.88s3.23-11.22,10-11.22,8.95,3.99,8.95,10.21v1.85Zm-3.11-2.98c0-4.45-1.72-6.55-5.92-6.55s-6.55,2.65-6.89,6.97h12.81v-.42Z"/><path class="cls-1" d="m878.58,1766.56h2.6l.29,3.49c1.01-2.14,3.28-4.03,7.35-4.03,4.75,0,7.77,2.52,7.77,7.94v13.61h-2.94v-13.27c0-4.33-2.14-5.71-5.5-5.71-3.82,0-6.64,2.69-6.64,5.63v13.36h-2.94v-21Z"/><path class="cls-1" d="m902.27,1777.1c0-7.1,4.28-11.09,10.04-11.09,3.7,0,6.22,1.6,7.31,3.74h.04v-14.95h2.94v32.77h-1.97l-.67-3.61h-.08c-1.18,2.31-3.95,4.16-7.77,4.16-6.3,0-9.83-3.99-9.83-11.01Zm17.64-.5c0-5.5-3.36-8.07-7.35-8.07-3.11,0-7.14,1.47-7.14,8.4s3.61,8.61,7.14,8.61c4.24,0,7.35-2.73,7.35-8.95Z"/><path class="cls-1" d="m947.21,1778.07h-15.96c.17,4.79,2.48,7.48,6.93,7.48,3.82,0,5.67-1.43,5.97-4.83h2.98c-.29,4.24-3.28,7.39-9.03,7.39-7.06,0-9.83-4.66-9.83-10.88s3.23-11.22,10-11.22,8.95,3.99,8.95,10.21v1.85Zm-3.11-2.98c0-4.45-1.72-6.55-5.92-6.55s-6.55,2.65-6.89,6.97h12.81v-.42Z"/><path class="cls-1" d="m953.09,1766.56h2.6l.29,3.91c1.01-2.14,3.07-4.45,6.76-4.45,1.26,0,2.18.21,3.02.55v3.15c-1.13-.5-2.1-.76-3.4-.76-3.74,0-6.34,2.81-6.34,5.75v12.85h-2.94v-21Z"/><line class="cls-5" x1="676.72" y1="1450.63" x2="676.72" y2="1451.5"/><line class="cls-9" x1="676.72" y1="1469.28" x2="676.72" y2="1675.51"/><line class="cls-5" x1="676.72" y1="1684.4" x2="676.72" y2="1685.27"/><path class="cls-1" d="m1225.11,1661.65v-19.95h2.94v19.95c0,9.41,4.07,10.63,8.86,10.63s8.78-1.01,8.78-10.63v-19.95h2.94v19.62c0,11.64-5.33,13.69-11.76,13.69s-11.76-2.06-11.76-13.36Z"/><path class="cls-1" d="m1256.39,1653.46h2.39l.34,3.87h.08c1.13-2.48,4.03-4.41,7.86-4.41,6.3,0,9.66,3.99,9.66,11.01s-4.29,11.09-9.87,11.09c-3.78,0-6.38-1.6-7.43-3.7h-.08v11.55h-2.94v-29.41Zm17.18,10.63c0-7.18-3.4-8.61-6.93-8.61-4.24,0-7.56,2.73-7.56,8.44,0,6.01,3.45,8.57,7.44,8.57,3.02,0,7.06-1.47,7.06-8.4Z"/><path class="cls-1" d="m1282.6,1653.46h2.6l.29,3.91c1.01-2.14,3.07-4.45,6.76-4.45,1.26,0,2.18.21,3.02.55v3.15c-1.13-.5-2.1-.76-3.4-.76-3.74,0-6.34,2.81-6.34,5.75v12.85h-2.94v-21Z"/><path class="cls-1" d="m1299.91,1641.7h2.98v6.51h-2.98v-6.51Zm0,11.76h2.94v21h-2.94v-21Z"/><path class="cls-1" d="m1309.61,1676.27v-.13h3.11v.13c0,2.9,1.93,4.33,6.13,4.33,4.79,0,7.01-2.94,7.01-7.86v-2.1h-.08c-1.09,2.18-3.65,4.07-7.48,4.07-6.3,0-9.75-3.99-9.75-10.71,0-7.1,4.37-11.09,9.96-11.09,3.78,0,6.55,1.81,7.56,4.12h.13l.29-3.57h2.31v19.16c0,5.88-2.81,10.71-10.33,10.71-6.3,0-8.86-2.98-8.86-7.06Zm16.59-12.77c0-5.5-3.36-8.07-7.35-8.07-3.03,0-7.14,1.47-7.14,8.4s3.57,8.32,7.1,8.32c4.24,0,7.39-2.73,7.39-8.65Z"/><path class="cls-1" d="m1336.15,1641.7h2.94v15.17c1.05-2.1,3.28-3.95,7.31-3.95,4.75,0,7.77,2.52,7.77,7.94v13.61h-2.94v-13.27c0-4.33-2.14-5.71-5.5-5.71-3.82,0-6.64,2.69-6.64,5.63v13.36h-2.94v-32.77Z"/><path class="cls-1" d="m1372.48,1671.78v2.6c-.76.21-2.14.59-4.03.59-3.82,0-6.34-1.6-6.34-6.89v-12.18h-4.16v-2.44h4.16v-6.05l2.94-1.43v7.48h5.92v2.44h-5.92v11.8c0,2.81.76,4.58,3.4,4.58,1.6,0,3.23-.29,4.03-.5Z"/><path class="cls-1" d="m58.21,2599.92h2.94v32.77h-2.94v-32.77Z"/><path class="cls-1" d="m69.76,2611.69h2.6l.29,3.49c1.01-2.14,3.28-4.03,7.35-4.03,4.75,0,7.77,2.52,7.77,7.94v13.61h-2.94v-13.27c0-4.33-2.14-5.71-5.5-5.71-3.82,0-6.64,2.69-6.64,5.63v13.36h-2.94v-21Z"/><path class="cls-1" d="m93.45,2622.36c0-6.38,3.23-11.22,10-11.22s8.95,3.91,8.95,8.95v.42h-3.11v-.63c0-3.82-1.64-6.09-5.84-6.09-4.75,0-7.02,3.11-7.02,8.4,0,5.63,2.39,8.49,6.93,8.49,3.82,0,5.84-1.85,5.92-5.67h3.02c-.08,4.66-3.15,8.23-9.03,8.23-7.22,0-9.83-4.75-9.83-10.88Z"/><path class="cls-1" d="m117.64,2599.92h2.94v32.77h-2.94v-32.77Z"/><path class="cls-1" d="m127.51,2625.3v-13.61h2.94v13.27c0,4.33,2.14,5.71,5.42,5.71,3.74,0,6.55-2.69,6.55-5.63v-13.36h2.94v21h-2.6l-.25-3.36h-.08c-.97,2.02-3.23,3.91-7.23,3.91-4.66,0-7.69-2.52-7.69-7.94Z"/><path class="cls-1" d="m151.03,2622.23c0-7.1,4.28-11.09,10.04-11.09,3.7,0,6.22,1.6,7.31,3.74h.04v-14.96h2.94v32.77h-1.97l-.67-3.61h-.08c-1.18,2.31-3.95,4.16-7.77,4.16-6.3,0-9.83-3.99-9.83-11.01Zm17.64-.5c0-5.5-3.36-8.07-7.35-8.07-3.11,0-7.14,1.47-7.14,8.4s3.61,8.61,7.14,8.61c4.24,0,7.35-2.73,7.35-8.95Z"/><path class="cls-1" d="m195.98,2623.2h-15.96c.17,4.79,2.48,7.48,6.93,7.48,3.82,0,5.67-1.43,5.97-4.83h2.98c-.29,4.24-3.28,7.39-9.03,7.39-7.06,0-9.83-4.66-9.83-10.88s3.23-11.22,10-11.22,8.95,3.99,8.95,10.21v1.85Zm-3.11-2.98c0-4.45-1.72-6.55-5.92-6.55s-6.55,2.65-6.89,6.97h12.81v-.42Z"/><path class="cls-1" d="m199.96,2626.26v-1.18h2.94v1.13c0,2.86,2.14,4.5,5.96,4.5s5.8-1.01,5.8-3.78c0-2.06-1.01-2.81-3.86-3.32l-4.62-.84c-3.02-.55-5.54-2.02-5.54-5.5,0-3.15,2.35-6.13,8.4-6.13s8.4,3.02,8.4,7.23v.88h-2.98v-.76c0-3.44-2.14-4.92-5.42-4.92-3.95,0-5.33,1.34-5.33,3.36s1.01,2.86,3.91,3.4l4.03.76c4.12.76,6.09,1.93,6.09,5.59,0,4.58-4.12,6.55-8.78,6.55-7.31,0-8.99-3.28-8.99-6.97Z"/><path class="cls-1" d="m233.27,2611.69h2.39l.34,3.87h.08c1.13-2.48,4.03-4.41,7.86-4.41,6.3,0,9.66,3.99,9.66,11.01s-4.29,11.09-9.87,11.09c-3.78,0-6.38-1.6-7.43-3.7h-.08v11.55h-2.94v-29.41Zm17.18,10.63c0-7.18-3.4-8.61-6.93-8.61-4.24,0-7.56,2.73-7.56,8.44,0,6.01,3.45,8.57,7.44,8.57,3.02,0,7.06-1.47,7.06-8.4Z"/><path class="cls-1" d="m259.48,2611.69h2.6l.29,3.91c1.01-2.14,3.07-4.45,6.76-4.45,1.26,0,2.18.21,3.02.55v3.15c-1.13-.5-2.1-.76-3.4-.76-3.74,0-6.34,2.81-6.34,5.75v12.85h-2.94v-21Z"/><path class="cls-1" d="m276.78,2599.92h2.98v6.51h-2.98v-6.51Zm0,11.76h2.94v21h-2.94v-21Z"/><path class="cls-1" d="m287.11,2611.69h2.6l.29,3.49c1.01-2.14,3.28-4.03,7.35-4.03,4.75,0,7.77,2.52,7.77,7.94v13.61h-2.94v-13.27c0-4.33-2.14-5.71-5.5-5.71-3.82,0-6.64,2.69-6.64,5.63v13.36h-2.94v-21Z"/><path class="cls-1" d="m323.45,2630v2.6c-.76.21-2.14.59-4.03.59-3.82,0-6.34-1.6-6.34-6.89v-12.18h-4.16v-2.44h4.16v-6.05l2.94-1.43v7.48h5.92v2.44h-5.92v11.8c0,2.81.76,4.58,3.4,4.58,1.6,0,3.23-.29,4.03-.5Z"/><path class="cls-1" d="m336.04,2626.26v-1.18h2.94v1.13c0,2.86,2.14,4.5,5.96,4.5s5.8-1.01,5.8-3.78c0-2.06-1.01-2.81-3.86-3.32l-4.62-.84c-3.02-.55-5.54-2.02-5.54-5.5,0-3.15,2.35-6.13,8.4-6.13s8.4,3.02,8.4,7.23v.88h-2.98v-.76c0-3.44-2.14-4.92-5.42-4.92-3.95,0-5.33,1.34-5.33,3.36s1.01,2.86,3.91,3.4l4.03.76c4.12.76,6.09,1.93,6.09,5.59,0,4.58-4.12,6.55-8.78,6.55-7.31,0-8.99-3.28-8.99-6.97Z"/><path class="cls-1" d="m370.65,2630v2.6c-.76.21-2.14.59-4.03.59-3.82,0-6.34-1.6-6.34-6.89v-12.18h-4.16v-2.44h4.16v-6.05l2.94-1.43v7.48h5.92v2.44h-5.92v11.8c0,2.81.76,4.58,3.4,4.58,1.6,0,3.23-.29,4.03-.5Z"/><path class="cls-1" d="m375.69,2611.69l6.89,17.98h.08l7.14-17.98h3.07v.04l-8.86,20.84-3.11,8.53h-2.98v-.04l3.19-8.36-8.78-20.96v-.04h3.36Z"/><path class="cls-1" d="m397.07,2599.92h2.94v32.77h-2.94v-32.77Z"/><path class="cls-1" d="m424.62,2623.2h-15.96c.17,4.79,2.48,7.48,6.93,7.48,3.82,0,5.67-1.43,5.97-4.83h2.98c-.29,4.24-3.28,7.39-9.03,7.39-7.06,0-9.83-4.66-9.83-10.88s3.23-11.22,10-11.22,8.95,3.99,8.95,10.21v1.85Zm-3.11-2.98c0-4.45-1.72-6.55-5.92-6.55s-6.55,2.65-6.89,6.97h12.81v-.42Z"/><path class="cls-1" d="m439.74,2625.3v-13.61h2.94v13.27c0,4.33,2.14,5.71,5.42,5.71,3.74,0,6.55-2.69,6.55-5.63v-13.36h2.94v21h-2.6l-.25-3.36h-.08c-.97,2.02-3.23,3.91-7.23,3.91-4.66,0-7.69-2.52-7.69-7.94Z"/><path class="cls-1" d="m464.94,2611.69h2.39l.34,3.87h.08c1.13-2.48,4.03-4.41,7.86-4.41,6.3,0,9.66,3.99,9.66,11.01s-4.29,11.09-9.87,11.09c-3.78,0-6.38-1.6-7.43-3.7h-.08v11.55h-2.94v-29.41Zm17.18,10.63c0-7.18-3.4-8.61-6.93-8.61-4.24,0-7.56,2.73-7.56,8.44,0,6.01,3.45,8.57,7.44,8.57,3.02,0,7.06-1.47,7.06-8.4Z"/><path class="cls-1" d="m491.15,2611.69h2.39l.34,3.87h.08c1.13-2.48,4.03-4.41,7.86-4.41,6.3,0,9.66,3.99,9.66,11.01s-4.29,11.09-9.87,11.09c-3.78,0-6.38-1.6-7.43-3.7h-.08v11.55h-2.94v-29.41Zm17.18,10.63c0-7.18-3.4-8.61-6.93-8.61-4.24,0-7.56,2.73-7.56,8.44,0,6.01,3.45,8.57,7.44,8.57,3.02,0,7.06-1.47,7.06-8.4Z"/><path class="cls-1" d="m534.62,2623.2h-15.96c.17,4.79,2.48,7.48,6.93,7.48,3.82,0,5.67-1.43,5.97-4.83h2.98c-.29,4.24-3.28,7.39-9.03,7.39-7.06,0-9.83-4.66-9.83-10.88s3.23-11.22,10-11.22,8.95,3.99,8.95,10.21v1.85Zm-3.11-2.98c0-4.45-1.72-6.55-5.92-6.55s-6.55,2.65-6.89,6.97h12.81v-.42Z"/><path class="cls-1" d="m540.5,2611.69h2.6l.29,3.91c1.01-2.14,3.07-4.45,6.76-4.45,1.26,0,2.18.21,3.02.55v3.15c-1.13-.5-2.1-.76-3.4-.76-3.74,0-6.34,2.81-6.34,5.75v12.85h-2.94v-21Z"/><path class="cls-1" d="m555.49,2622.36c0-6.38,3.23-11.22,10-11.22s8.95,3.91,8.95,8.95v.42h-3.11v-.63c0-3.82-1.64-6.09-5.84-6.09-4.75,0-7.01,3.11-7.01,8.4,0,5.63,2.39,8.49,6.93,8.49,3.82,0,5.84-1.85,5.92-5.67h3.02c-.08,4.66-3.15,8.23-9.03,8.23-7.22,0-9.83-4.75-9.83-10.88Z"/><path class="cls-1" d="m578.85,2626.89c0-3.95,2.23-6.09,7.86-6.09h6.34v-1.72c0-2.98-1.26-5.42-5.46-5.42-3.95,0-5.33,1.51-5.33,4.12v.88h-2.98v-.84c0-5,4.2-6.68,8.32-6.68,5.8,0,8.4,2.86,8.4,8.44v13.11h-2.06l-.55-2.98h-.08c-1.26,1.89-3.7,3.53-7.35,3.53-4.92,0-7.1-2.31-7.1-6.34Zm14.2-1.85v-1.76h-7.01c-2.65,0-4.03.92-4.03,3.61,0,2.35,1.26,3.87,4.5,3.87,4.16,0,6.55-2.14,6.55-5.71Z"/><path class="cls-1" d="m601.44,2626.26v-1.18h2.94v1.13c0,2.86,2.14,4.5,5.96,4.5s5.8-1.01,5.8-3.78c0-2.06-1.01-2.81-3.86-3.32l-4.62-.84c-3.02-.55-5.54-2.02-5.54-5.5,0-3.15,2.35-6.13,8.4-6.13s8.4,3.02,8.4,7.23v.88h-2.98v-.76c0-3.44-2.14-4.92-5.42-4.92-3.95,0-5.33,1.34-5.33,3.36s1.01,2.86,3.91,3.4l4.03.76c4.12.76,6.09,1.93,6.09,5.59,0,4.58-4.12,6.55-8.78,6.55-7.31,0-8.99-3.28-8.99-6.97Z"/><path class="cls-1" d="m642.35,2623.2h-15.96c.17,4.79,2.48,7.48,6.93,7.48,3.82,0,5.67-1.43,5.97-4.83h2.98c-.29,4.24-3.28,7.39-9.03,7.39-7.06,0-9.83-4.66-9.83-10.88s3.23-11.22,10-11.22,8.95,3.99,8.95,10.21v1.85Zm-3.11-2.98c0-4.45-1.72-6.55-5.92-6.55s-6.55,2.65-6.89,6.97h12.81v-.42Z"/><path class="cls-1" d="m656.63,2626.89c0-3.95,2.23-6.09,7.86-6.09h6.34v-1.72c0-2.98-1.26-5.42-5.46-5.42-3.95,0-5.33,1.51-5.33,4.12v.88h-2.98v-.84c0-5,4.2-6.68,8.32-6.68,5.8,0,8.4,2.86,8.4,8.44v13.11h-2.06l-.55-2.98h-.08c-1.26,1.89-3.7,3.53-7.35,3.53-4.92,0-7.1-2.31-7.1-6.34Zm14.2-1.85v-1.76h-7.01c-2.65,0-4.03.92-4.03,3.61,0,2.35,1.26,3.87,4.5,3.87,4.16,0,6.55-2.14,6.55-5.71Z"/><path class="cls-1" d="m679.23,2626.26v-1.18h2.94v1.13c0,2.86,2.14,4.5,5.96,4.5s5.8-1.01,5.8-3.78c0-2.06-1.01-2.81-3.86-3.32l-4.62-.84c-3.02-.55-5.54-2.02-5.54-5.5,0-3.15,2.35-6.13,8.4-6.13s8.4,3.02,8.4,7.23v.88h-2.98v-.76c0-3.44-2.14-4.92-5.42-4.92-3.95,0-5.33,1.34-5.33,3.36s1.01,2.86,3.91,3.4l4.03.76c4.12.76,6.09,1.93,6.09,5.59,0,4.58-4.12,6.55-8.78,6.55-7.31,0-8.99-3.28-8.99-6.97Z"/><path class="cls-1" d="m55.48,2671.08c0-7.1,4.28-11.09,10.04-11.09,3.7,0,6.22,1.6,7.31,3.74h.04v-14.95h2.94v32.77h-1.97l-.67-3.61h-.08c-1.18,2.31-3.95,4.16-7.77,4.16-6.3,0-9.83-3.99-9.83-11.01Zm17.64-.5c0-5.5-3.36-8.07-7.35-8.07-3.11,0-7.14,1.47-7.14,8.4s3.61,8.61,7.14,8.61c4.24,0,7.35-2.73,7.35-8.95Z"/><path class="cls-1" d="m100.43,2672.04h-15.96c.17,4.79,2.48,7.48,6.93,7.48,3.82,0,5.67-1.43,5.97-4.83h2.98c-.29,4.24-3.28,7.39-9.03,7.39-7.06,0-9.83-4.66-9.83-10.88s3.23-11.22,10-11.22,8.95,3.99,8.95,10.21v1.85Zm-3.11-2.98c0-4.45-1.72-6.55-5.92-6.55s-6.55,2.65-6.89,6.97h12.81v-.42Z"/><path class="cls-1" d="m110.46,2655.49v5.04h5.92v2.44h-5.92v18.57h-2.94v-18.57h-4.16v-2.44h4.16v-5.42c0-5.29,3.15-6.89,6.38-6.89,1.85,0,2.98.29,3.74.55v2.6c-.71-.21-1.89-.46-3.49-.46-2.65,0-3.7,1.76-3.7,4.58Z"/><path class="cls-1" d="m119.11,2675.74c0-3.95,2.23-6.09,7.86-6.09h6.34v-1.72c0-2.98-1.26-5.42-5.46-5.42-3.95,0-5.33,1.51-5.33,4.12v.88h-2.98v-.84c0-5,4.2-6.68,8.32-6.68,5.8,0,8.4,2.86,8.4,8.44v13.11h-2.06l-.55-2.98h-.08c-1.26,1.89-3.7,3.53-7.35,3.53-4.92,0-7.1-2.31-7.1-6.34Zm14.2-1.85v-1.76h-7.01c-2.65,0-4.03.92-4.03,3.61,0,2.35,1.26,3.86,4.5,3.86,4.16,0,6.55-2.14,6.55-5.71Z"/><path class="cls-1" d="m142.88,2674.14v-13.61h2.94v13.27c0,4.33,2.14,5.71,5.42,5.71,3.74,0,6.55-2.69,6.55-5.63v-13.36h2.94v21h-2.6l-.25-3.36h-.08c-.97,2.02-3.23,3.91-7.23,3.91-4.66,0-7.69-2.52-7.69-7.94Z"/><path class="cls-1" d="m168.08,2648.77h2.94v32.77h-2.94v-32.77Z"/><path class="cls-1" d="m189.34,2678.85v2.6c-.76.21-2.14.59-4.03.59-3.82,0-6.34-1.6-6.34-6.89v-12.18h-4.16v-2.44h4.16v-6.05l2.94-1.43v7.48h5.92v2.44h-5.92v11.8c0,2.81.76,4.58,3.4,4.58,1.6,0,3.23-.29,4.03-.5Z"/><path class="cls-1" d="m192.91,2675.32h3.36v6.22c0,3.95-.88,5.29-3.4,5.96l-.67-1.85c1.76-.67,2.06-1.09,2.06-3.78v-.34h-1.34v-6.22Z"/><path class="cls-1" d="m210.97,2675.74c0-3.95,2.23-6.09,7.86-6.09h6.34v-1.72c0-2.98-1.26-5.42-5.46-5.42-3.95,0-5.33,1.51-5.33,4.12v.88h-2.98v-.84c0-5,4.2-6.68,8.32-6.68,5.8,0,8.4,2.86,8.4,8.44v13.11h-2.06l-.55-2.98h-.08c-1.26,1.89-3.7,3.53-7.35,3.53-4.92,0-7.1-2.31-7.1-6.34Zm14.2-1.85v-1.76h-7.01c-2.65,0-4.03.92-4.03,3.61,0,2.35,1.26,3.86,4.5,3.86,4.16,0,6.55-2.14,6.55-5.71Z"/><path class="cls-1" d="m235.45,2660.53h2.6l.29,3.49c1.01-2.14,3.28-4.03,7.35-4.03,4.75,0,7.77,2.52,7.77,7.94v13.61h-2.94v-13.27c0-4.33-2.14-5.71-5.5-5.71-3.82,0-6.64,2.69-6.64,5.63v13.36h-2.94v-21Z"/><path class="cls-1" d="m259.14,2671.08c0-7.1,4.28-11.09,10.04-11.09,3.7,0,6.22,1.6,7.31,3.74h.04v-14.95h2.94v32.77h-1.97l-.67-3.61h-.08c-1.18,2.31-3.95,4.16-7.77,4.16-6.3,0-9.83-3.99-9.83-11.01Zm17.64-.5c0-5.5-3.36-8.07-7.35-8.07-3.11,0-7.14,1.47-7.14,8.4s3.61,8.61,7.14,8.61c4.24,0,7.35-2.73,7.35-8.95Z"/><path class="cls-1" d="m294.8,2671.2c0-6.38,3.23-11.22,10-11.22s8.95,3.91,8.95,8.95v.42h-3.11v-.63c0-3.82-1.64-6.09-5.84-6.09-4.75,0-7.01,3.11-7.01,8.4,0,5.63,2.39,8.49,6.93,8.49,3.82,0,5.84-1.85,5.92-5.67h3.02c-.08,4.66-3.15,8.23-9.03,8.23-7.22,0-9.83-4.75-9.83-10.88Z"/><path class="cls-1" d="m319.2,2674.14v-13.61h2.94v13.27c0,4.33,2.14,5.71,5.42,5.71,3.74,0,6.55-2.69,6.55-5.63v-13.36h2.94v21h-2.6l-.25-3.36h-.08c-.97,2.02-3.23,3.91-7.23,3.91-4.66,0-7.69-2.52-7.69-7.94Z"/><path class="cls-1" d="m344.4,2660.53h2.6l.29,3.91c1.01-2.14,3.07-4.45,6.76-4.45,1.26,0,2.18.21,3.02.55v3.15c-1.13-.5-2.1-.76-3.4-.76-3.74,0-6.34,2.81-6.34,5.75v12.85h-2.94v-21Z"/><path class="cls-1" d="m359.61,2675.11v-1.18h2.94v1.13c0,2.86,2.14,4.5,5.96,4.5s5.8-1.01,5.8-3.78c0-2.06-1.01-2.81-3.86-3.32l-4.62-.84c-3.02-.55-5.54-2.02-5.54-5.5,0-3.15,2.35-6.13,8.4-6.13s8.4,3.02,8.4,7.22v.88h-2.98v-.76c0-3.44-2.14-4.91-5.42-4.91-3.95,0-5.33,1.34-5.33,3.36s1.01,2.86,3.91,3.4l4.03.76c4.12.76,6.09,1.93,6.09,5.59,0,4.58-4.12,6.55-8.78,6.55-7.31,0-8.99-3.28-8.99-6.97Z"/><path class="cls-1" d="m383.25,2648.77h2.98v6.51h-2.98v-6.51Zm0,11.76h2.94v21h-2.94v-21Z"/><path class="cls-1" d="m390.43,2660.57v-.04h3.36l7.35,17.98h.08l7.1-17.98h3.07v.04l-8.74,20.96h-3.02l-9.2-20.96Z"/><path class="cls-1" d="m432.23,2672.04h-15.96c.17,4.79,2.48,7.48,6.93,7.48,3.82,0,5.67-1.43,5.97-4.83h2.98c-.29,4.24-3.28,7.39-9.03,7.39-7.06,0-9.83-4.66-9.83-10.88s3.23-11.22,10-11.22,8.95,3.99,8.95,10.21v1.85Zm-3.11-2.98c0-4.45-1.72-6.55-5.92-6.55s-6.55,2.65-6.89,6.97h12.81v-.42Z"/><path class="cls-1" d="m446.5,2675.74c0-3.95,2.23-6.09,7.86-6.09h6.34v-1.72c0-2.98-1.26-5.42-5.46-5.42-3.95,0-5.33,1.51-5.33,4.12v.88h-2.98v-.84c0-5,4.2-6.68,8.32-6.68,5.8,0,8.4,2.86,8.4,8.44v13.11h-2.06l-.55-2.98h-.08c-1.26,1.89-3.7,3.53-7.35,3.53-4.92,0-7.1-2.31-7.1-6.34Zm14.2-1.85v-1.76h-7.01c-2.65,0-4.03.92-4.03,3.61,0,2.35,1.26,3.86,4.5,3.86,4.16,0,6.55-2.14,6.55-5.71Z"/><path class="cls-1" d="m469.1,2675.11v-1.18h2.94v1.13c0,2.86,2.14,4.5,5.96,4.5s5.8-1.01,5.8-3.78c0-2.06-1.01-2.81-3.86-3.32l-4.62-.84c-3.02-.55-5.54-2.02-5.54-5.5,0-3.15,2.35-6.13,8.4-6.13s8.4,3.02,8.4,7.22v.88h-2.98v-.76c0-3.44-2.14-4.91-5.42-4.91-3.95,0-5.33,1.34-5.33,3.36s1.01,2.86,3.91,3.4l4.03.76c4.12.76,6.09,1.93,6.09,5.59,0,4.58-4.12,6.55-8.78,6.55-7.31,0-8.99-3.28-8.99-6.97Z"/><path class="cls-1" d="m501.15,2675.74c0-3.95,2.23-6.09,7.86-6.09h6.34v-1.72c0-2.98-1.26-5.42-5.46-5.42-3.95,0-5.33,1.51-5.33,4.12v.88h-2.98v-.84c0-5,4.2-6.68,8.32-6.68,5.8,0,8.4,2.86,8.4,8.44v13.11h-2.06l-.55-2.98h-.08c-1.26,1.89-3.7,3.53-7.35,3.53-4.92,0-7.1-2.31-7.1-6.34Zm14.2-1.85v-1.76h-7.01c-2.65,0-4.03.92-4.03,3.61,0,2.35,1.26,3.86,4.5,3.86,4.16,0,6.55-2.14,6.55-5.71Z"/><path class="cls-1" d="m525.63,2648.77h2.94v32.77h-2.94v-32.77Z"/><path class="cls-1" d="m546.88,2678.85v2.6c-.76.21-2.14.59-4.03.59-3.82,0-6.34-1.6-6.34-6.89v-12.18h-4.16v-2.44h4.16v-6.05l2.94-1.43v7.48h5.92v2.44h-5.92v11.8c0,2.81.76,4.58,3.4,4.58,1.6,0,3.23-.29,4.03-.5Z"/><path class="cls-1" d="m568.35,2672.04h-15.96c.17,4.79,2.48,7.48,6.93,7.48,3.82,0,5.67-1.43,5.97-4.83h2.98c-.29,4.24-3.28,7.39-9.03,7.39-7.06,0-9.83-4.66-9.83-10.88s3.23-11.22,10-11.22,8.95,3.99,8.95,10.21v1.85Zm-3.11-2.98c0-4.45-1.72-6.55-5.92-6.55s-6.55,2.65-6.89,6.97h12.81v-.42Z"/><path class="cls-1" d="m574.23,2660.53h2.6l.29,3.91c1.01-2.14,3.07-4.45,6.76-4.45,1.26,0,2.18.21,3.02.55v3.15c-1.13-.5-2.1-.76-3.4-.76-3.74,0-6.34,2.81-6.34,5.75v12.85h-2.94v-21Z"/><path class="cls-1" d="m591.53,2660.53h2.6l.29,3.49c1.01-2.14,3.28-4.03,7.35-4.03,4.75,0,7.77,2.52,7.77,7.94v13.61h-2.94v-13.27c0-4.33-2.14-5.71-5.5-5.71-3.82,0-6.64,2.69-6.64,5.63v13.36h-2.94v-21Z"/><path class="cls-1" d="m615.64,2675.74c0-3.95,2.23-6.09,7.86-6.09h6.34v-1.72c0-2.98-1.26-5.42-5.46-5.42-3.95,0-5.33,1.51-5.33,4.12v.88h-2.98v-.84c0-5,4.2-6.68,8.32-6.68,5.8,0,8.4,2.86,8.4,8.44v13.11h-2.06l-.55-2.98h-.08c-1.26,1.89-3.7,3.53-7.35,3.53-4.92,0-7.1-2.31-7.1-6.34Zm14.2-1.85v-1.76h-7.01c-2.65,0-4.03.92-4.03,3.61,0,2.35,1.26,3.86,4.5,3.86,4.16,0,6.55-2.14,6.55-5.71Z"/><path class="cls-1" d="m650.88,2678.85v2.6c-.76.21-2.14.59-4.03.59-3.82,0-6.34-1.6-6.34-6.89v-12.18h-4.16v-2.44h4.16v-6.05l2.94-1.43v7.48h5.92v2.44h-5.92v11.8c0,2.81.76,4.58,3.4,4.58,1.6,0,3.23-.29,4.03-.5Z"/><path class="cls-1" d="m672.34,2672.04h-15.96c.17,4.79,2.48,7.48,6.93,7.48,3.82,0,5.67-1.43,5.97-4.83h2.98c-.29,4.24-3.28,7.39-9.03,7.39-7.06,0-9.83-4.66-9.83-10.88s3.23-11.22,10-11.22,8.95,3.99,8.95,10.21v1.85Zm-3.11-2.98c0-4.45-1.72-6.55-5.92-6.55s-6.55,2.65-6.89,6.97h12.81v-.42Z"/><line class="cls-6" x1="199.79" y1="2815.58" x2="199.79" y2="2703.26"/><line class="cls-6" x1="274.79" y1="2564.48" x2="274.79" y2="2340.8"/><path class="cls-3" d="m814.62,2288.05c11.93-16.87,18.95-42.85,18.95-77.97,0-61.14-61.14-59.73-61.14,0,0,27.41,8.43,56.22,21.79,77.31-.02.03-.04.05-.06.07,6.37.82,13.23.96,20.47.58Zm-17.71.74-6.21-78.71c0-36.54,24.6-37.24,24.6-.7,0,27.41-4.22,47.79-11.24,61.84-9.14-18.27-13.35-42.17-13.35-61.14Z"/><path class="cls-1" d="m795.61,2600.16h8.36c11.05,0,17.39,4.54,17.39,16.42s-6.26,16.34-17.18,16.34h-8.57v-32.77Zm8.65,30.12c9.41,0,14.03-3.74,14.03-13.78s-4.49-13.74-14.07-13.74h-5.67v27.51h5.71Z"/><path class="cls-1" d="m827.66,2600.16h2.98v6.51h-2.98v-6.51Zm0,11.76h2.94v21h-2.94v-21Z"/><path class="cls-1" d="m836.1,2626.5v-1.18h2.94v1.13c0,2.86,2.14,4.5,5.96,4.5s5.8-1.01,5.8-3.78c0-2.06-1.01-2.81-3.86-3.32l-4.62-.84c-3.02-.55-5.54-2.02-5.54-5.5,0-3.15,2.35-6.13,8.4-6.13s8.4,3.02,8.4,7.23v.88h-2.98v-.76c0-3.44-2.14-4.92-5.42-4.92-3.95,0-5.33,1.34-5.33,3.36s1.01,2.86,3.91,3.4l4.03.76c4.12.76,6.09,1.93,6.09,5.59,0,4.58-4.12,6.55-8.78,6.55-7.31,0-8.99-3.28-8.99-6.97Z"/><path class="cls-1" d="m870.71,2630.24v2.6c-.76.21-2.14.59-4.03.59-3.82,0-6.34-1.6-6.34-6.89v-12.18h-4.16v-2.44h4.16v-6.05l2.94-1.43v7.48h5.92v2.44h-5.92v11.8c0,2.81.76,4.58,3.4,4.58,1.6,0,3.23-.29,4.03-.5Z"/><path class="cls-1" d="m875.54,2600.16h2.98v6.51h-2.98v-6.51Zm0,11.76h2.94v21h-2.94v-21Z"/><path class="cls-1" d="m885.87,2611.92h2.6l.29,3.49c1.01-2.14,3.28-4.03,7.35-4.03,4.75,0,7.77,2.52,7.77,7.94v13.61h-2.94v-13.27c0-4.33-2.14-5.71-5.5-5.71-3.82,0-6.64,2.69-6.64,5.63v13.36h-2.94v-21Z"/><path class="cls-1" d="m909.56,2622.59c0-6.38,3.23-11.22,10-11.22s8.95,3.91,8.95,8.95v.42h-3.11v-.63c0-3.82-1.64-6.09-5.84-6.09-4.75,0-7.01,3.11-7.01,8.4,0,5.63,2.39,8.49,6.93,8.49,3.82,0,5.84-1.85,5.92-5.67h3.02c-.08,4.66-3.15,8.23-9.03,8.23-7.22,0-9.83-4.75-9.83-10.88Z"/><path class="cls-1" d="m945.34,2630.24v2.6c-.76.21-2.14.59-4.03.59-3.82,0-6.34-1.6-6.34-6.89v-12.18h-4.16v-2.44h4.16v-6.05l2.94-1.43v7.48h5.92v2.44h-5.92v11.8c0,2.81.76,4.58,3.4,4.58,1.6,0,3.23-.29,4.03-.5Z"/><path class="cls-1" d="m950.17,2600.16h2.98v6.51h-2.98v-6.51Zm0,11.76h2.94v21h-2.94v-21Z"/><path class="cls-1" d="m957.35,2611.96v-.04h3.36l7.35,17.98h.08l7.1-17.98h3.07v.04l-8.74,20.96h-3.02l-9.2-20.96Z"/><path class="cls-1" d="m999.15,2623.43h-15.96c.17,4.79,2.48,7.48,6.93,7.48,3.82,0,5.67-1.43,5.97-4.83h2.98c-.29,4.24-3.28,7.39-9.03,7.39-7.06,0-9.83-4.66-9.83-10.88s3.23-11.22,10-11.22,8.95,3.99,8.95,10.21v1.85Zm-3.11-2.98c0-4.45-1.72-6.55-5.92-6.55s-6.55,2.65-6.89,6.97h12.81v-.42Z"/><path class="cls-1" d="m792.88,2671.27c0-6.22,3.32-11.05,10.38-11.05,6.59,0,10.25,4.83,10.25,11.05s-3.7,11.05-10.29,11.05c-7.27,0-10.33-4.83-10.33-11.05Zm17.56,0c0-5.33-2.9-8.49-7.22-8.49-4.75,0-7.27,3.15-7.27,8.49s2.56,8.49,7.27,8.49c4.33,0,7.22-3.15,7.22-8.49Z"/><path class="cls-1" d="m819.38,2660.77h2.39l.34,3.86h.08c1.13-2.48,4.03-4.41,7.86-4.41,6.3,0,9.66,3.99,9.66,11.01s-4.29,11.09-9.87,11.09c-3.78,0-6.38-1.6-7.43-3.7h-.08v11.55h-2.94v-29.41Zm17.18,10.63c0-7.18-3.4-8.61-6.93-8.61-4.24,0-7.56,2.73-7.56,8.44,0,6.01,3.45,8.57,7.44,8.57,3.02,0,7.06-1.47,7.06-8.4Z"/><path class="cls-1" d="m862.86,2672.28h-15.96c.17,4.79,2.48,7.48,6.93,7.48,3.82,0,5.67-1.43,5.97-4.83h2.98c-.29,4.24-3.28,7.39-9.03,7.39-7.06,0-9.83-4.66-9.83-10.88s3.23-11.22,10-11.22,8.95,3.99,8.95,10.21v1.85Zm-3.11-2.98c0-4.45-1.72-6.55-5.92-6.55s-6.55,2.65-6.89,6.97h12.81v-.42Z"/><path class="cls-1" d="m868.73,2660.77h2.6l.29,3.49c1.01-2.14,3.28-4.03,7.35-4.03,4.75,0,7.77,2.52,7.77,7.94v13.61h-2.94v-13.27c0-4.33-2.14-5.71-5.5-5.71-3.82,0-6.64,2.69-6.64,5.63v13.36h-2.94v-21Z"/><path class="cls-1" d="m903.76,2649.01h2.94v23.23l12.14-11.47h3.65v.04l-8.4,7.86,8.78,13.06v.04h-3.36l-7.39-11.22-5.42,5.04v6.18h-2.94v-32.77Z"/><path class="cls-1" d="m927.91,2660.77h2.6l.29,3.49c1.01-2.14,3.28-4.03,7.35-4.03,4.75,0,7.77,2.52,7.77,7.94v13.61h-2.94v-13.27c0-4.33-2.14-5.71-5.5-5.71-3.82,0-6.64,2.69-6.64,5.63v13.36h-2.94v-21Z"/><path class="cls-1" d="m951.6,2671.27c0-6.22,3.32-11.05,10.38-11.05,6.59,0,10.25,4.83,10.25,11.05s-3.7,11.05-10.29,11.05c-7.27,0-10.33-4.83-10.33-11.05Zm17.56,0c0-5.33-2.9-8.49-7.22-8.49-4.75,0-7.27,3.15-7.27,8.49s2.56,8.49,7.27,8.49c4.33,0,7.22-3.15,7.22-8.49Z"/><path class="cls-1" d="m989.06,2679.08v2.6c-.76.21-2.14.59-4.03.59-3.82,0-6.34-1.6-6.34-6.89v-12.18h-4.16v-2.44h4.16v-6.05l2.94-1.43v7.48h5.92v2.44h-5.92v11.8c0,2.81.76,4.58,3.4,4.58,1.6,0,3.23-.29,4.03-.5Z"/><path class="cls-1" d="m992,2675.34v-1.18h2.94v1.13c0,2.86,2.14,4.5,5.96,4.5s5.8-1.01,5.8-3.78c0-2.06-1.01-2.81-3.86-3.32l-4.62-.84c-3.02-.55-5.54-2.02-5.54-5.5,0-3.15,2.35-6.13,8.4-6.13s8.4,3.02,8.4,7.22v.88h-2.98v-.76c0-3.44-2.14-4.91-5.42-4.91-3.95,0-5.33,1.34-5.33,3.36s1.01,2.86,3.91,3.4l4.03.76c4.12.76,6.09,1.93,6.09,5.59,0,4.58-4.12,6.55-8.78,6.55-7.31,0-8.99-3.28-8.99-6.97Z"/><path class="cls-1" d="m1025.31,2649.01h2.98v6.51h-2.98v-6.51Zm0,11.76h2.94v21h-2.94v-21Z"/><path class="cls-1" d="m1035.64,2660.77h2.6l.29,3.49c1.01-2.14,3.28-4.03,7.35-4.03,4.75,0,7.77,2.52,7.77,7.94v13.61h-2.94v-13.27c0-4.33-2.14-5.71-5.5-5.71-3.82,0-6.64,2.69-6.64,5.63v13.36h-2.94v-21Z"/><path class="cls-1" d="m1072.35,2659.47h-3.36v-5.08c0-3.95.88-5.29,3.4-5.97l.67,1.85c-1.76.67-2.06,1.09-2.06,3.78v.34h1.34v5.08Zm5.92,0h-3.36v-5.08c0-3.95.88-5.29,3.4-5.97l.67,1.85c-1.76.67-2.06,1.09-2.06,3.78v.34h1.34v5.08Z"/><path class="cls-1" d="m1081.92,2660.81v-.04h2.98l5.75,17.47h.08l6.3-17.47h2.69l6.17,17.47h.08l5.75-17.47h2.86v.04l-7.18,20.96h-3.02l-5.96-17.06h-.08l-6.22,17.06h-3.02l-7.18-20.96Z"/><path class="cls-1" d="m1117.54,2658.21c1.76-.67,2.06-1.09,2.06-3.78v-.34h-1.34v-5.08h3.36v5.08c0,3.95-.88,5.29-3.4,5.97l-.67-1.85Zm5.92,0c1.76-.67,2.06-1.09,2.06-3.78v-.34h-1.34v-5.08h3.36v5.08c0,3.95-.88,5.29-3.4,5.97l-.67-1.85Z"/><line class="cls-5" x1="837.43" y1="2344.84" x2="837.43" y2="2345.71"/><line class="cls-10" x1="837.43" y1="2363.87" x2="837.43" y2="2554.53"/><line class="cls-5" x1="837.43" y1="2563.61" x2="837.43" y2="2564.48"/><path class="cls-3" d="m507.4,3170.95c13.01-13.79,23.03-30.22,27.82-38.33,28.11-44.98,35.84-62.55,38.65-66.06,2.11-4.22.7-9.84-2.81-11.95-4.22-2.81-9.84-1.41-11.95,2.81-26.11,45.83-46.97,83.55-65.94,103.72,0,0,5.18,5.11,14.22,9.81Z"/><path class="cls-3" d="m350.4,3176.19c-43.57,0-59.03-28.81-59.03-65.36,0-54.11,37.25-87.14,85.04-87.14,40.76,0,58.33,33.03,58.33,68.17,0,49.2-49.2,84.33-84.33,84.33Z"/><path class="cls-1" d="m743.88,3057.42c2.81-4.22,8.43-5.62,11.95-3.51,4.22,2.81,6.33,8.43,3.51,11.95-15.46,22.49-66.76,130.72-138.45,130.72-46.38,0-74.49-36.54-74.49-82.93,0-54.11,32.33-106.83,91.36-106.83,27.41,0,52.01,20.38,52.01,49.9,0,42.17-52.01,66.06-124.39,73.09,0,16.87,18.27,49.2,56.22,49.2,42.17,0,78.01-49.2,122.28-121.58Zm-179.21,54.81c81.52-9.13,107.53-33.03,107.53-56.22,0-16.87-14.76-31.63-34.44-31.63-52.01,0-77.31,56.22-73.09,87.85Z"/><path class="cls-1" d="m359.73,3471.47h9.33c6.85,0,10,2.52,10,8.07,0,3.4-1.97,6.64-5.25,7.39v.08c3.78.55,6.85,2.73,6.85,7.9,0,6.3-3.24,9.33-11.72,9.33h-9.2v-32.77Zm8.86,14.53c6.13,0,7.44-2.9,7.44-6.51,0-3.87-2.06-5.42-7.48-5.42h-5.84v11.93h5.88Zm.13,15.63c6.47,0,8.86-1.68,8.86-6.72,0-4.12-1.97-6.38-9.03-6.38h-5.84v13.11h6.01Z"/><path class="cls-1" d="m387.58,3483.23h2.6l.29,3.91c1.01-2.14,3.07-4.45,6.76-4.45,1.26,0,2.18.21,3.02.55v3.15c-1.13-.5-2.1-.76-3.4-.76-3.74,0-6.34,2.81-6.34,5.75v12.85h-2.94v-21Z"/><path class="cls-1" d="m402.57,3493.73c0-6.22,3.32-11.05,10.38-11.05,6.59,0,10.25,4.83,10.25,11.05s-3.7,11.05-10.29,11.05c-7.27,0-10.33-4.83-10.33-11.05Zm17.56,0c0-5.33-2.9-8.49-7.22-8.49-4.75,0-7.27,3.15-7.27,8.49s2.56,8.49,7.27,8.49c4.33,0,7.22-3.15,7.22-8.49Z"/><path class="cls-1" d="m428.44,3471.47h2.94v23.23l12.14-11.47h3.65v.04l-8.4,7.86,8.78,13.06v.04h-3.36l-7.39-11.22-5.42,5.04v6.18h-2.94v-32.77Z"/><path class="cls-1" d="m468.81,3494.74h-15.96c.17,4.79,2.48,7.48,6.93,7.48,3.82,0,5.67-1.43,5.97-4.83h2.98c-.29,4.24-3.28,7.39-9.03,7.39-7.06,0-9.83-4.66-9.83-10.88s3.23-11.22,10-11.22,8.95,3.99,8.95,10.21v1.85Zm-3.11-2.98c0-4.45-1.72-6.55-5.92-6.55s-6.55,2.65-6.89,6.97h12.81v-.42Z"/><path class="cls-1" d="m474.68,3483.23h2.6l.29,3.49c1.01-2.14,3.28-4.03,7.35-4.03,4.75,0,7.77,2.52,7.77,7.94v13.61h-2.94v-13.27c0-4.33-2.14-5.71-5.5-5.71-3.82,0-6.64,2.69-6.64,5.63v13.36h-2.94v-21Z"/><path class="cls-1" d="m508.03,3493.9c0-6.38,3.23-11.22,10-11.22s8.95,3.91,8.95,8.95v.42h-3.11v-.63c0-3.82-1.64-6.09-5.84-6.09-4.75,0-7.01,3.11-7.01,8.4,0,5.63,2.39,8.49,6.93,8.49,3.82,0,5.84-1.85,5.92-5.67h3.02c-.08,4.66-3.15,8.23-9.03,8.23-7.22,0-9.83-4.75-9.83-10.88Z"/><path class="cls-1" d="m531.17,3493.73c0-6.22,3.32-11.05,10.38-11.05,6.59,0,10.25,4.83,10.25,11.05s-3.7,11.05-10.29,11.05c-7.27,0-10.33-4.83-10.33-11.05Zm17.56,0c0-5.33-2.9-8.49-7.22-8.49-4.75,0-7.27,3.15-7.27,8.49s2.56,8.49,7.27,8.49c4.33,0,7.22-3.15,7.22-8.49Z"/><path class="cls-1" d="m557.68,3483.23h2.6l.29,3.49c1.01-2.14,3.28-4.03,7.35-4.03,4.75,0,7.77,2.52,7.77,7.94v13.61h-2.94v-13.27c0-4.33-2.14-5.71-5.5-5.71-3.82,0-6.64,2.69-6.64,5.63v13.36h-2.94v-21Z"/><path class="cls-1" d="m583.04,3483.23h2.6l.29,3.49c1.01-2.14,3.28-4.03,7.35-4.03,4.75,0,7.77,2.52,7.77,7.94v13.61h-2.94v-13.27c0-4.33-2.14-5.71-5.5-5.71-3.82,0-6.64,2.69-6.64,5.63v13.36h-2.94v-21Z"/><path class="cls-1" d="m625.68,3494.74h-15.96c.17,4.79,2.48,7.48,6.93,7.48,3.82,0,5.67-1.43,5.97-4.83h2.98c-.29,4.24-3.28,7.39-9.03,7.39-7.06,0-9.83-4.66-9.83-10.88s3.23-11.22,10-11.22,8.95,3.99,8.95,10.21v1.85Zm-3.11-2.98c0-4.45-1.72-6.55-5.92-6.55s-6.55,2.65-6.89,6.97h12.81v-.42Z"/><path class="cls-1" d="m629.87,3493.9c0-6.38,3.23-11.22,10-11.22s8.95,3.91,8.95,8.95v.42h-3.11v-.63c0-3.82-1.64-6.09-5.84-6.09-4.75,0-7.01,3.11-7.01,8.4,0,5.63,2.39,8.49,6.93,8.49,3.82,0,5.84-1.85,5.92-5.67h3.02c-.08,4.66-3.15,8.23-9.03,8.23-7.22,0-9.83-4.75-9.83-10.88Z"/><path class="cls-1" d="m665.66,3501.55v2.6c-.76.21-2.14.59-4.03.59-3.82,0-6.34-1.6-6.34-6.89v-12.18h-4.16v-2.44h4.16v-6.05l2.94-1.43v7.48h5.92v2.44h-5.92v11.8c0,2.81.76,4.58,3.4,4.58,1.6,0,3.23-.29,4.03-.5Z"/><path class="cls-1" d="m670.49,3471.47h2.98v6.51h-2.98v-6.51Zm0,11.76h2.94v21h-2.94v-21Z"/><path class="cls-1" d="m679.14,3493.73c0-6.22,3.32-11.05,10.38-11.05,6.59,0,10.25,4.83,10.25,11.05s-3.7,11.05-10.29,11.05c-7.27,0-10.33-4.83-10.33-11.05Zm17.56,0c0-5.33-2.9-8.49-7.22-8.49-4.75,0-7.27,3.15-7.27,8.49s2.56,8.49,7.27,8.49c4.33,0,7.22-3.15,7.22-8.49Z"/><path class="cls-1" d="m705.64,3483.23h2.6l.29,3.49c1.01-2.14,3.28-4.03,7.35-4.03,4.75,0,7.77,2.52,7.77,7.94v13.61h-2.94v-13.27c0-4.33-2.14-5.71-5.5-5.71-3.82,0-6.64,2.69-6.64,5.63v13.36h-2.94v-21Z"/><path class="cls-1" d="m751.63,3501.55v2.6c-.76.21-2.14.59-4.03.59-3.82,0-6.34-1.6-6.34-6.89v-12.18h-4.16v-2.44h4.16v-6.05l2.94-1.43v7.48h5.92v2.44h-5.92v11.8c0,2.81.76,4.58,3.4,4.58,1.6,0,3.23-.29,4.03-.5Z"/><path class="cls-1" d="m754.15,3493.73c0-6.22,3.32-11.05,10.38-11.05,6.59,0,10.25,4.83,10.25,11.05s-3.7,11.05-10.29,11.05c-7.27,0-10.33-4.83-10.33-11.05Zm17.56,0c0-5.33-2.9-8.49-7.22-8.49-4.75,0-7.27,3.15-7.27,8.49s2.56,8.49,7.27,8.49c4.33,0,7.22-3.15,7.22-8.49Z"/><path class="cls-1" d="m791.99,3481.93h-3.36v-5.08c0-3.95.88-5.29,3.4-5.96l.67,1.85c-1.76.67-2.06,1.09-2.06,3.78v.34h1.34v5.08Zm5.92,0h-3.36v-5.08c0-3.95.88-5.29,3.4-5.96l.67,1.85c-1.76.67-2.06,1.09-2.06,3.78v.34h1.34v5.08Z"/><path class="cls-1" d="m819.89,3494.74h-15.96c.17,4.79,2.48,7.48,6.93,7.48,3.82,0,5.67-1.43,5.97-4.83h2.98c-.29,4.24-3.28,7.39-9.03,7.39-7.06,0-9.83-4.66-9.83-10.88s3.23-11.22,10-11.22,8.95,3.99,8.95,10.21v1.85Zm-3.11-2.98c0-4.45-1.72-6.55-5.92-6.55s-6.55,2.65-6.89,6.97h12.81v-.42Z"/><path class="cls-1" d="m821.14,3480.67c1.76-.67,2.06-1.09,2.06-3.78v-.34h-1.34v-5.08h3.36v5.08c0,3.95-.88,5.29-3.4,5.97l-.67-1.85Zm5.92,0c1.76-.67,2.06-1.09,2.06-3.78v-.34h-1.34v-5.08h3.36v5.08c0,3.95-.88,5.29-3.4,5.97l-.67-1.85Z"/><line class="cls-5" x1="534.85" y1="3210.15" x2="534.85" y2="3211.02"/><line class="cls-9" x1="534.85" y1="3228.8" x2="534.85" y2="3435.03"/><line class="cls-5" x1="534.85" y1="3443.92" x2="534.85" y2="3444.79"/><path class="cls-3" d="m922.49,2198.71c-.36.04-.71.1-1.07.13-1.41-38.65-13.35-72.39-47.09-72.39-31.62,0-42.87,45.68-11.95,73.08,6.29,6.29,22.3,13.96,41.13,16.13.01,0,.02,0,.04,0,.14,0,.27.02.4.04,3.73-1.89,18.54-16.99,18.54-16.99Zm-47.46-10.41c-22.49-16.17-14.05-47.79-.7-44.98,18.27-1.4,28.81,21.08,29.52,54.11-11.95-1.4-23.19-5.62-28.81-9.14Z"/></g></svg>