<?xml version="1.0" encoding="UTF-8"?><svg xmlns="http://www.w3.org/2000/svg" xmlns:xlink="http://www.w3.org/1999/xlink" viewBox="0 0 1920 4275"><defs><style>.cls-1,.cls-2,.cls-3,.cls-4,.cls-5,.cls-6,.cls-7{fill:none;}.cls-2{stroke-dasharray:0 0 1.71 17.09;}.cls-2,.cls-3,.cls-4,.cls-5,.cls-6{stroke:#a797c9;stroke-linecap:round;stroke-width:7px;}.cls-2,.cls-3,.cls-4,.cls-5,.cls-6,.cls-7{stroke-miterlimit:10;}.cls-8{clip-path:url(#clippath);}.cls-9{fill:#fff;}.cls-10{fill:#171c32;}.cls-11{fill:#947fbb;}.cls-4{stroke-dasharray:0 0 1.75 17.46;}.cls-5{stroke-dasharray:0 0 1.69 16.95;}.cls-12{clip-path:url(#clippath-1);}.cls-6{stroke-dasharray:0 0 1.72 17.15;}.cls-7{stroke:#57678b;stroke-width:3.5px;}</style><clipPath id="clippath"><circle class="cls-1" cx="1605.61" cy="2677.24" r="67.32"/></clipPath><clipPath id="clippath-1"><circle class="cls-1" cx="1553.36" cy="2484.61" r="54.64"/></clipPath></defs><g id="Background"><rect class="cls-10" width="1920" height="4275"/></g><g id="Horizontal_Guides"><line class="cls-7" y1="204.72" x2="1920" y2="204.72"/><line class="cls-7" y1="459.48" x2="1920" y2="459.48"/><line class="cls-7" x1="1920" y1="652.63" y2="652.63"/><line class="cls-7" y1="885.86" x2="1920" y2="885.86"/><line class="cls-7" y1="1236.37" x2="1920" y2="1236.37"/><line class="cls-7" y1="1491.13" x2="1920" y2="1491.13"/><line class="cls-7" x1="1920" y1="1684.28" y2="1684.28"/><line class="cls-7" y1="1917.51" x2="1920" y2="1917.51"/><line class="cls-7" y1="2266.43" x2="1920" y2="2266.43"/><line class="cls-7" y1="2521.19" x2="1920" y2="2521.19"/><line class="cls-7" x1="1920" y1="2714.34" y2="2714.34"/><line class="cls-7" y1="2947.57" x2="1920" y2="2947.57"/><line class="cls-7" y1="3298.43" x2="1920" y2="3298.43"/><line class="cls-7" y1="3553.19" x2="1920" y2="3553.19"/><line class="cls-7" x1="1920" y1="3746.34" y2="3746.34"/><line class="cls-7" y1="3979.57" x2="1920" y2="3979.57"/></g><g id="Info"><circle class="cls-11" cx="1605.61" cy="2677.16" r="67.32"/><circle class="cls-11" cx="1553.36" cy="2484.61" r="54.64"/><circle class="cls-11" cx="1677.65" cy="530.99" r="78.57"/><rect class="cls-11" x="1035.82" y="203.88" width="62.23" height="681.14"/><path class="cls-11" d="m371.76,1616.08c0-72.8,65.1-121.8,128.1-154.7v-195.3c-15.4,6.3-30.1,9.1-42.7,9.1-16.1,0-29.4-3.5-42.7-8.4-11.2-4.2-22.4-7.7-34.3-7.7-38.5,0-62.3,26.6-62.3,62.3,0,42.7,34.3,55.3,68.6,58.8,7.7.7,11.2,6.3,11.2,11.9,0,6.3-3.5,12.6-11.9,12.6-40.6-1.4-92.4-23.1-92.4-83.3,0-53.2,36.4-86.1,84-86.1,13.3,0,25.9,3.5,37.1,7.7,11.9,4.2,25.2,8.4,43.4,8.4,13.3,0,24.5-4.9,33.6-9.1,8.4-4.2,15.4-6.3,20.3-6.3,6.3,0,11.9,3.5,11.9,11.9v200.9c14.7-7.7,44.1-17.5,60.2-22.4,4.2-93.1,22.4-191.1,118.3-191.1,48.3,0,77,31.5,77,75.6,0,86.8-100.1,113.4-172.2,131.6-.7,14-.7,30.8-.7,51.1,0,78.4,9.1,168.7,86.1,168.7,38.5,0,68.6-34.3,86.1-63l5.6-9.1c2.1-3.5,5.6-5.6,9.8-5.6,7,0,12.6,5.6,12.6,12.6,0,2.1-1.4,5.6-2.8,7.7-2.8,4.9-9.8,16.1-19.6,29.4-18.9,25.9-55.3,51.8-91.7,51.8-102.2,0-109.9-117.6-109.9-200.2v-34.3c-14.7,5.6-44.1,16.8-58.8,24.5v81.9c0,51.8-14.7,128.1-84.7,128.1-46.9,0-67.2-32.9-67.2-70Zm128.1-58.8v-67.9c-54.6,29.4-103.6,67.2-103.6,126.7,0,25.2,14.7,46.2,42.7,46.2,52.5,0,60.9-67.9,60.9-105Zm254.8-246.4c0-28.7-19.6-51.8-52.5-51.8-77,0-88.9,80.5-94.5,159.6,87.5-23.1,147-39.9,147-107.8Z"/><path class="cls-9" d="m781.95,1588.08c0-58.1,40.6-98,100.1-98,42.7,0,75.6,21,91,53.9,15.4-4.2,31.5-11.2,45.5-21.7,2.8-2.1,6.3-3.5,9.1-3.5,7.7,0,12.6,6.3,12.6,11.9,0,4.2-2.1,7.7-4.9,9.8-17.5,12.6-36.4,21-55.3,26.6,1.4,6.3,2.1,14,2.1,21,0,58.1-40.6,98-100.1,98s-100.1-39.9-100.1-98Zm175.7,0c0-5.6-.7-11.2-1.4-16.1-7,.7-12.6.7-18.9.7-40.6,0-74.2-17.5-74.2-46.9,0-3.5.7-7,2.8-10.5-36.4,6.3-59.5,34.3-59.5,72.8,0,44.1,30.1,74.2,75.6,74.2s75.6-30.1,75.6-74.2Zm-9.8-39.2c-9.8-16.8-29.4-32.2-51.1-32.2-6.3,0-9.1,2.8-9.1,6.3,0,9.8,18.2,25.9,49.7,25.9h10.5Z"/><path class="cls-9" d="m1061.95,1609.08v-88.9c-7,6.3-15.4,12.6-24.5,18.9-2.1,2.1-7,4.2-9.8,4.2-8.4,0-11.9-6.3-11.9-12.6,0-3.5,1.4-7,6.3-10.5,5.6-3.5,11.9-7.7,18.2-12.6,9.1-7,17.5-14.7,21.7-19.6v-21.7h-33.6c-7,0-12.6-4.9-12.6-11.9s5.6-11.9,12.6-11.9h33.6v-100.1c0-7,4.9-11.9,11.9-11.9s11.9,4.9,11.9,11.9v100.1h68.6c7,0,11.9,4.9,11.9,11.9s-4.9,11.9-11.9,11.9h-68.6v146.3c0,20.3,2.1,49.7,27.3,49.7,33.6,0,60.2-43.4,75.6-68.6l2.1-3.5c2.1-3.5,5.6-5.6,9.8-5.6,7,0,12.6,5.6,12.6,12.6,0,2.1-1.4,5.6-2.8,7.7l-4.2,7c-11.2,16.8-21,31.5-36.4,47.6-15.4,15.4-35,26.6-56.7,26.6-47.6,0-51.1-40.6-51.1-77Z"/><path class="cls-9" d="m1188.65,1602.08c0-45.5,27.3-111.3,80.5-111.3,25.2,0,46.2,13.3,46.2,44.8,0,42.7-49.7,66.5-102.2,72.8,3.5,39.2,30.8,53.9,59.5,53.9,44.1,0,72.1-34.3,93.1-68.6l2.1-3.5c2.1-3.5,5.6-5.6,9.8-5.6,7,0,12.6,5.6,12.6,12.6,0,2.1-1.4,5.6-2.8,7.7l-3.5,6.3c-2.8,4.9-7,11.9-14,21-29.4,37.8-58.8,53.9-93.8,53.9-55.3,0-87.5-32.9-87.5-84Zm102.2-64.4c0-13.3-9.1-23.1-22.4-23.1-25.9,0-49,37.1-54.6,70.7,37.8-4.2,77-18.9,77-47.6Z"/><path class="cls-9" d="m1416.14,1611.18v-53.9c-8.4,15.4-16.8,28.7-28,46.2-2.1,3.5-6.3,5.6-10.5,5.6-7,0-11.9-4.9-11.9-11.9,0-2.1,1.4-6.3,2.8-8.4l21.7-35c7.7-11.9,17.5-29.4,25.9-45.5v-180.6c0-32.9.7-92.4,45.5-92.4,34.3,0,47.6,44.8,47.6,81.2,0,71.4-33.6,140-69.3,205.8v85.4c0,18.2.7,54.6,25.9,54.6,35,0,65.1-49.7,76.3-68.6l2.1-3.5c2.1-3.5,5.6-5.6,9.8-5.6,7,0,12.6,5.6,12.6,12.6,0,2.1-1.4,5.6-2.8,7.7l-3.5,6.3c-4.2,7.7-21.7,34.3-39.2,50.4-16.1,14.7-33.6,24.5-55.3,24.5-46.2,0-49.7-50.4-49.7-74.9Zm68.6-294c0-30.8-8.4-58.1-23.1-58.1-21.7,0-21.7,48.3-21.7,63v149.1c22.4-44.1,44.8-96.6,44.8-154Z"/><path class="cls-9" d="m637.9,2647.35c0-88.9,107.1-127.4,181.3-127.4,7.7,0,11.2,5.6,11.2,11.9v118.3c0,15.4,4.9,41.3,25.2,41.3,37.1,0,61.6-40.6,78.4-68.6l2.1-3.5c2.1-3.5,5.6-5.6,9.8-5.6,7,0,12.6,5.6,12.6,12.6,0,2.1-1.4,5.6-2.8,7.7l-6.3,10.5c-3.5,6.3-9.1,14-15.4,22.4-20.3,26.6-46.9,48.3-78.4,48.3-29.4,0-42-17.5-46.2-44.8-20.3,25.9-54.6,44.8-90.3,44.8-58.8,0-81.2-29.4-81.2-67.9Zm168.7-39.2v-64.4c-56,2.8-144.2,35.7-144.2,103.6,0,24.5,16.1,44.1,58.1,44.1s86.1-38.5,86.1-83.3Z"/><path class="cls-9" d="m1022.2,2702.65v-131.6c0-10.5-.7-21.7-6.3-21.7-4.2,0-8.4,5.6-14,13.3-11.9,16.8-30.8,46.2-42,64.4l-3.5,5.6c-2.1,3.5-6.3,5.6-10.5,5.6-7,0-11.9-4.9-11.9-11.9,0-2.1,1.4-6.3,2.8-8.4l46.2-72.8c12.6-19.6,22.4-25.2,36.4-25.2,25.2,0,26.6,35,26.6,56.7,14.7-27.3,39.9-56.7,71.4-56.7,39.9,0,50.4,31.5,50.4,60.9v64.4c0,21.7,2.1,46.2,28,46.2,32.9,0,63.7-51.1,74.2-68.6l2.1-3.5c2.1-3.5,5.6-5.6,9.8-5.6,7,0,12.6,5.6,12.6,12.6,0,2.1-1.4,5.6-2.8,7.7l-4.2,7c-4.2,7-9.8,16.1-17.5,25.9-21,28-42.7,48.3-74.2,48.3-35.7,0-51.8-24.5-51.8-70v-64.4c0-14.7-4.2-37.1-28-37.1-29.4,0-63,58.1-70,81.2v77.7c0,7-4.2,12.6-11.9,12.6-7,0-11.9-5.6-11.9-12.6Zm43.4-221.2c-9.1-4.2-17.5-7-28.7-7-2.8,0-8.4.7-10.5,2.8-.7,6.3-5.6,11.2-11.9,11.2-7,0-11.9-4.9-11.9-12.6,0-17.5,18.9-25.2,34.3-25.2s25.9,3.5,36.4,8.4c9.1,4.2,17.5,7.7,29.4,7.7,2.8,0,8.4-1.4,10.5-3.5,0-7,4.9-11.9,11.9-11.9s11.9,4.9,11.9,13.3c0,16.1-14.7,25.9-34.3,25.9-16.1,0-26.6-4.2-37.1-9.1Z"/><path class="cls-9" d="m1269.99,2617.25c0-58.1,40.6-98,100.1-98,42.7,0,75.6,21,91,53.9,15.4-4.2,31.5-11.2,45.5-21.7,2.8-2.1,6.3-3.5,9.1-3.5,7.7,0,12.6,6.3,12.6,11.9,0,4.2-2.1,7.7-4.9,9.8-17.5,12.6-36.4,21-55.3,26.6,1.4,6.3,2.1,14,2.1,21,0,58.1-40.6,98-100.1,98s-100.1-39.9-100.1-98Zm175.7,0c0-5.6-.7-11.2-1.4-16.1-7,.7-12.6.7-18.9.7-40.6,0-74.2-17.5-74.2-46.9,0-3.5.7-7,2.8-10.5-36.4,6.3-59.5,34.3-59.5,72.8,0,44.1,30.1,74.2,75.6,74.2s75.6-30.1,75.6-74.2Zm-9.8-39.2c-9.8-16.8-29.4-32.2-51.1-32.2-6.3,0-9.1,2.8-9.1,6.3,0,9.8,18.2,25.9,49.7,25.9h10.5Z"/><path class="cls-9" d="m1552.79,2680.25c0-25.2,25.9-37.8,51.8-37.8,13.3,0,28,3.5,38.5,7.7.7-3.5.7-5.6.7-7.7,0-25.2-26.6-43.4-56-60.9-14-8.4-28.7-18.2-41.3-29.4-6.3,5.6-11.9,9.8-23.8,18.2-2.1,1.4-4.2,2.1-7,2.1-8.4,0-11.9-6.3-11.9-12.6,0-3.5,2.1-8.4,6.3-10.5,5.6-3.5,11.9-7.7,21-14.7-8.4-10.5-13.3-21.7-13.3-32.9,0-17.5,11.9-36.4,33.6-36.4s34.3,15.4,34.3,35c0,14.7-9.8,27.3-20.3,37.8,10.5,9.1,23.1,18.2,37.1,26.6,32.2,19.6,65.8,42,65.8,77,0,2.8,0,5.6-.7,9.8,14,0,26.6-15.4,37.1-32.2,3.5-4.9,7-5.6,9.8-5.6,6.3,0,12.6,4.9,12.6,12.6,0,.7,0,3.5-2.1,6.3-21.7,35-42,43.4-62.3,43.4-9.8,21-28,39.2-63,39.2-18.9,0-46.9-8.4-46.9-35Zm8.4-179.9c0-7-3.5-11.2-9.8-11.2-4.2,0-9.1,4.2-9.1,12.6,0,6.3,2.8,12.6,7,18.9,7.7-7,11.9-14,11.9-20.3Zm76.3,172.2c-7.7-4.2-21.7-7-32.9-7-15.4,0-27.3,4.9-27.3,14.7,0,7.7,9.1,11.9,23.1,11.9s27.3-4.2,37.1-19.6Z"/><path class="cls-11" d="m1281.29,3706.69c0-49,67.9-59.5,106.4-63.7-.7-31.5-16.8-67.2-54.6-67.2-35.7,0-65.1,51.8-80.5,79.1l-5.6,9.8c-2.1,3.5-6.3,5.6-10.5,5.6-7,0-11.9-4.9-11.9-11.9,0-2.1,1.4-6.3,2.8-8.4l22.4-37.1c15.4-25.2,45.5-60.9,83.3-60.9,30.8,0,56,16.1,68.6,46.2,14.7-27.3,41.3-46.2,73.5-46.2,23.8,0,52.5,11.9,52.5,44.8,0,49-72.8,61.6-111.3,67.9,4.9,28,27.3,58.8,62.3,58.8,46.9,0,75.6-29.4,98.7-68.6l2.1-3.5c2.1-3.5,5.6-5.6,9.8-5.6,7,0,12.6,5.6,12.6,12.6,0,2.1-1.4,5.6-2.8,7.7-4.2,7.7-12.6,22.4-21.7,32.9-28.7,34.3-54.6,48.3-98.7,48.3-35,0-63.7-23.1-77-53.9-14,31.5-37.8,53.9-73.5,53.9-23.8,0-46.9-13.3-46.9-40.6Zm103.6-39.2c-25.9,2.8-79.1,11.2-79.1,38.5,0,11.9,10.5,17.5,22.4,17.5,28.7,0,50.4-30.8,56.7-56Zm118.3-70c0-17.5-19.6-21.7-28-21.7-38.5,0-58.8,35-60.9,65.1,23.8-2.1,88.9-14.7,88.9-43.4Z"/><path class="cls-9" d="m318.11,3735.39v-427c0-7,4.9-11.9,11.9-11.9s11.9,4.9,11.9,11.9v181.3h277.2v-181.3c0-7,5.6-11.9,12.6-11.9,6.3,0,11.2,4.9,11.2,11.9v427c0,7-4.9,11.9-11.2,11.9-7,0-12.6-4.9-12.6-11.9v-221.9h-277.2v221.9c0,7-4.9,11.9-11.9,11.9s-11.9-4.9-11.9-11.9Z"/><path class="cls-9" d="m713.6,3663.29c0-45.5,27.3-111.3,80.5-111.3,25.2,0,46.2,13.3,46.2,44.8,0,42.7-49.7,66.5-102.2,72.8,3.5,39.2,30.8,53.9,59.5,53.9,44.1,0,72.1-34.3,93.1-68.6l2.1-3.5c2.1-3.5,5.6-5.6,9.8-5.6,7,0,12.6,5.6,12.6,12.6,0,2.1-1.4,5.6-2.8,7.7l-3.5,6.3c-2.8,4.9-7,11.9-14,21-29.4,37.8-58.8,53.9-93.8,53.9-55.3,0-87.5-32.9-87.5-84Zm102.2-64.4c0-13.3-9.1-23.1-22.4-23.1-25.9,0-49,37.1-54.6,70.7,37.8-4.2,77-18.9,77-47.6Z"/><path class="cls-9" d="m941.1,3672.39v-53.9c-8.4,15.4-16.8,28.7-28,46.2-2.1,3.5-6.3,5.6-10.5,5.6-7,0-11.9-4.9-11.9-11.9,0-2.1,1.4-6.3,2.8-8.4l21.7-35c7.7-11.9,17.5-29.4,25.9-45.5v-180.6c0-32.9.7-92.4,45.5-92.4,34.3,0,47.6,44.8,47.6,81.2,0,71.4-33.6,140-69.3,205.8v85.4c0,18.2.7,54.6,25.9,54.6,35,0,65.1-49.7,76.3-68.6l2.1-3.5c2.1-3.5,5.6-5.6,9.8-5.6,7,0,12.6,5.6,12.6,12.6,0,2.1-1.4,5.6-2.8,7.7l-3.5,6.3c-4.2,7.7-21.7,34.3-39.2,50.4-16.1,14.7-33.6,24.5-55.3,24.5-46.2,0-49.7-50.4-49.7-74.9Zm68.6-294c0-30.8-8.4-58.1-23.1-58.1-21.7,0-21.7,48.3-21.7,63v149.1c22.4-44.1,44.8-96.6,44.8-154Z"/><path class="cls-9" d="m1099.3,3686.39v-37.8l-9.8,16.1c-2.1,3.5-6.3,5.6-10.5,5.6-7,0-11.9-4.9-11.9-11.9,0-2.1,1.4-6.3,2.8-8.4l29.4-49v-37.1c0-7,4.9-11.9,11.9-11.9s11.9,4.9,11.9,11.9v118.3c0,18.2,2.1,42,28,42,32.2,0,58.1-43.4,73.5-69.3l2.1-3.5c2.1-3.5,5.6-5.6,9.8-5.6,7,0,12.6,5.6,12.6,12.6,0,2.1-1.4,5.6-2.8,7.7l-3.5,5.6c-9.8,15.4-21,32.2-34.3,47.6-14,16.8-34.3,28-58.8,28-42,0-50.4-33.6-50.4-60.9Zm-4.9-200.2c0-9.1,7-16.1,16.1-16.1s16.8,7,16.8,16.1-7.7,16.1-16.8,16.1-16.1-7-16.1-16.1Z"/><path class="cls-9" d="m133.32,634.75V222.45c0-7,4.9-11.9,11.9-11.9h105c128.1,0,221.2,94.5,221.2,218.4s-93.1,218.4-221.2,218.4h-105c-7.7,0-11.9-4.2-11.9-12.6Zm116.9-11.2c114.8,0,196.7-84,196.7-194.6s-81.9-194.6-196.7-194.6h-93.1v389.2h93.1Z"/><path class="cls-9" d="m529.51,570.35c0-45.5,27.3-111.3,80.5-111.3,25.2,0,46.2,13.3,46.2,44.8,0,42.7-49.7,66.5-102.2,72.8,3.5,39.2,30.8,53.9,59.5,53.9,44.1,0,72.1-34.3,93.1-68.6l2.1-3.5c2.1-3.5,5.6-5.6,9.8-5.6,7,0,12.6,5.6,12.6,12.6,0,2.1-1.4,5.6-2.8,7.7l-3.5,6.3c-2.8,4.9-7,11.9-14,21-29.4,37.8-58.8,53.9-93.8,53.9-55.3,0-87.5-32.9-87.5-84Zm102.2-64.4c0-13.3-9.1-23.1-22.4-23.1-25.9,0-49,37.1-54.6,70.7,37.8-4.2,77-18.9,77-47.6Z"/><path class="cls-9" d="m755.6,619.35c0-25.2,25.9-38.5,51.8-38.5,14.7,0,28.7,4.2,39.2,7.7v-3.5c0-32.9-49.7-64.4-77.7-77.7-11.9,21.7-23.1,39.2-35.7,58.1l-4.2,6.3c-2.1,3.5-6.3,5.6-10.5,5.6-7,0-11.9-4.9-11.9-11.9,0-2.1,1.4-6.3,2.8-8.4l21.7-35,18.2-28.7c-11.2-11.2-20.3-26.6-20.3-42.7,0-19.6,12.6-32.2,30.1-32.2,20.3,0,32.2,14,32.2,32.2,0,11.9-5.6,23.8-11.2,35,36.4,20.3,91,51.1,91,98.7,0,2.1,0,3.5-.7,7,14.7-2.1,23.1-11.9,37.1-32.9,3.5-4.9,7-5.6,9.8-5.6,6.3,0,12.6,4.9,12.6,12.6,0,.7,0,3.5-2.1,6.3-22.4,37.1-43.4,43.4-63,43.4-9.8,23.8-30.8,39.2-62.3,39.2-18.9,0-46.9-8.4-46.9-35Zm11.2-166.6c0-4.9-1.4-10.5-7-10.5-4.9,0-6.3,4.2-6.3,7.7,0,7.7,4.2,14.7,8.4,20.3,2.1-2.8,4.9-9.8,4.9-17.5Zm74.2,158.2c-9.1-3.5-21.7-6.3-33.6-6.3-15.4,0-27.3,4.9-27.3,14.7,0,7.7,9.1,11.2,23.1,11.2,16.1,0,30.1-5.6,37.8-19.6Z"/><path class="cls-9" d="m905.4,586.45c0-88.9,107.1-127.4,181.3-127.4,7.7,0,11.2,5.6,11.2,11.9v118.3c0,15.4,4.9,41.3,25.2,41.3,37.1,0,61.6-40.6,78.4-68.6l2.1-3.5c2.1-3.5,5.6-5.6,9.8-5.6,7,0,12.6,5.6,12.6,12.6,0,2.1-1.4,5.6-2.8,7.7l-6.3,10.5c-3.5,6.3-9.1,14-15.4,22.4-20.3,26.6-46.9,48.3-78.4,48.3-29.4,0-42-17.5-46.2-44.8-20.3,25.9-54.6,44.8-90.3,44.8-58.8,0-81.2-29.4-81.2-67.9Zm168.7-39.2v-64.4c-56,2.8-144.2,35.7-144.2,103.6,0,24.5,16.1,44.1,58.1,44.1s86.1-38.5,86.1-83.3Z"/><path class="cls-9" d="m1166.5,828.65c0-51.8,46.9-96.6,85.4-131.6v-170.8c-6.3,11.9-19.6,32.9-28,45.5-2.1,3.5-6.3,5.6-10.5,5.6-7,0-11.9-4.9-11.9-11.9,0-2.1,1.4-6.3,2.8-8.4l47.6-76.3v-184.8c0-32.9.7-92.4,45.5-92.4,34.3,0,47.6,44.8,47.6,81.2,0,72.1-33.6,140-69.3,205.8v184.8c37.1-33.6,69.3-70,96.6-113.4l2.1-3.5c2.1-3.5,5.6-5.6,9.8-5.6,7,0,12.6,5.6,12.6,12.6,0,2.1-1.4,5.6-2.8,7.7l-8.4,13.3c-26.6,42-77,90.3-109.9,121.1v109.2c0,37.8-18.2,70-56,70-32.2,0-53.2-26.6-53.2-58.1Zm85.4-11.9v-86.8c-23.1,21.7-60.9,57.4-60.9,95.9,0,22.4,11.2,37.1,28.7,37.1,23.8,0,32.2-21.7,32.2-46.2Zm68.6-531.3c0-30.8-8.4-58.1-23.1-58.1-21.7,0-21.7,48.3-21.7,63v149.1c22.4-44.1,44.8-96.6,44.8-154Z"/><path class="cls-9" d="m1404.49,593.45v-37.8l-9.8,16.1c-2.1,3.5-6.3,5.6-10.5,5.6-7,0-11.9-4.9-11.9-11.9,0-2.1,1.4-6.3,2.8-8.4l29.4-49v-37.1c0-7,4.9-11.9,11.9-11.9s11.9,4.9,11.9,11.9v118.3c0,18.2,2.1,42,28,42,32.2,0,58.1-43.4,73.5-69.3l2.1-3.5c2.1-3.5,5.6-5.6,9.8-5.6,7,0,12.6,5.6,12.6,12.6,0,2.1-1.4,5.6-2.8,7.7l-3.5,5.6c-9.8,15.4-21,32.2-34.3,47.6-14,16.8-34.3,28-58.8,28-42,0-50.4-33.6-50.4-60.9Zm-2.1-177.8c0-2.8,1.4-6.3,3.5-8.4l49.7-53.2c2.1-2.1,4.9-4.2,8.4-4.2,6.3,0,12.6,6.3,12.6,12.6,0,2.8-1.4,6.3-3.5,8.4l-49,53.2c-1.4,1.4-4.2,3.5-9.1,3.5-6.3,0-12.6-5.6-12.6-11.9Z"/><path class="cls-9" d="m1529.78,557.05c0-58.1,40.6-98,100.1-98s100.1,39.9,100.1,97.3c0,13.3-2.1,25.9-6.3,37.1,21.7-.7,37.8-8.4,53.9-34.3,2.1-3.5,5.6-6.3,10.5-6.3,7.7,0,12.6,6.3,12.6,11.9,0,2.1-.7,4.2-1.4,5.6-21.7,37.1-47.6,46.9-79.8,46.9-2.8,0-5.6,0-8.4-.7-17.5,23.8-46.2,37.8-81.2,37.8-59.5,0-100.1-39.9-100.1-97.3Zm156.1,51.8c-25.2-12.6-43.4-38.5-43.4-73.5,0-28.7,12.6-41.3,27.3-42.7-11.2-6.3-24.5-9.8-39.9-9.8-44.8,0-75.6,30.1-75.6,74.2s30.8,73.5,75.6,73.5c23.1,0,42.7-7.7,56-21.7Zm19.6-52.5c0-19.6-6.3-44.8-23.1-44.8-8.4,0-15.4,7.7-15.4,24.5,0,22.4,11.2,44.1,31.5,53.2,4.2-9.8,7-20.3,7-32.9Z"/><path class="cls-9" d="m998.93,937.1v-19.95h2.94v19.95c0,9.41,4.07,10.63,8.86,10.63s8.78-1.01,8.78-10.63v-19.95h2.94v19.62c0,11.64-5.33,13.69-11.76,13.69s-11.76-2.06-11.76-13.36Z"/><path class="cls-9" d="m1030.22,928.91h2.39l.34,3.86h.08c1.13-2.48,4.03-4.41,7.86-4.41,6.3,0,9.66,3.99,9.66,11.01s-4.29,11.09-9.87,11.09c-3.78,0-6.38-1.6-7.44-3.7h-.08v11.55h-2.94v-29.41Zm17.18,10.63c0-7.18-3.4-8.61-6.93-8.61-4.24,0-7.56,2.73-7.56,8.44,0,6.01,3.45,8.57,7.44,8.57,3.02,0,7.06-1.47,7.06-8.4Z"/><path class="cls-9" d="m1056.43,928.91h2.6l.29,3.91c1.01-2.14,3.07-4.45,6.76-4.45,1.26,0,2.18.21,3.02.55v3.15c-1.13-.5-2.1-.76-3.4-.76-3.74,0-6.34,2.81-6.34,5.75v12.85h-2.94v-21Z"/><path class="cls-9" d="m1073.73,917.15h2.98v6.51h-2.98v-6.51Zm0,11.76h2.94v21h-2.94v-21Z"/><path class="cls-9" d="m1083.43,951.72v-.13h3.11v.13c0,2.9,1.93,4.33,6.13,4.33,4.79,0,7.01-2.94,7.01-7.86v-2.1h-.08c-1.09,2.18-3.65,4.07-7.48,4.07-6.3,0-9.75-3.99-9.75-10.71,0-7.1,4.37-11.09,9.96-11.09,3.78,0,6.55,1.81,7.56,4.12h.12l.29-3.57h2.31v19.16c0,5.88-2.81,10.71-10.33,10.71-6.3,0-8.86-2.98-8.86-7.06Zm16.59-12.77c0-5.5-3.36-8.07-7.35-8.07-3.03,0-7.14,1.47-7.14,8.4s3.57,8.32,7.1,8.32c4.24,0,7.39-2.73,7.39-8.65Z"/><path class="cls-9" d="m1109.98,917.15h2.94v15.16c1.05-2.1,3.28-3.95,7.31-3.95,4.75,0,7.77,2.52,7.77,7.94v13.61h-2.94v-13.27c0-4.33-2.14-5.71-5.5-5.71-3.82,0-6.64,2.69-6.64,5.63v13.36h-2.94v-32.77Z"/><path class="cls-9" d="m1146.31,947.23v2.6c-.76.21-2.14.59-4.03.59-3.82,0-6.34-1.6-6.34-6.89v-12.18h-4.16v-2.44h4.16v-6.05l2.94-1.43v7.48h5.92v2.44h-5.92v11.8c0,2.81.76,4.58,3.4,4.58,1.6,0,3.23-.29,4.03-.5Z"/><path class="cls-10" d="m1642.48,535.35c0,34.86,18.35,60.85,43.4,73.5,26.54-7.96,38.12-15.41,38.12-15.41,4.2-11.2,5.97-23.79,5.97-37.09,0-19.28-4.59-36.59-12.94-51.07l-74.56,30.07Zm56,53.9c-20.3-9.1-31.5-30.8-31.5-53.2,0-16.8,7-24.5,15.4-24.5,16.8,0,23.1,25.2,23.1,44.8,0,12.6-2.8,23.1-7,32.9Zm18.56-83.97c-21.52-35.2-76.01-21.78-74.56,30.07"/><path class="cls-9" d="m1391.98,979.45h3.11l10.29,29.49h.08l10.17-29.49h3.11l-11.59,32.77h-3.57l-11.59-32.77Z"/><path class="cls-9" d="m1437.47,1002.73h-15.96c.17,4.79,2.48,7.48,6.93,7.48,3.82,0,5.67-1.43,5.96-4.83h2.98c-.29,4.24-3.28,7.39-9.03,7.39-7.06,0-9.83-4.66-9.83-10.88s3.23-11.22,10-11.22,8.95,3.99,8.95,10.21v1.85Zm-3.11-2.98c0-4.45-1.72-6.55-5.92-6.55s-6.55,2.65-6.89,6.97h12.81v-.42Z"/><path class="cls-9" d="m1443.35,991.22h2.6l.29,3.91c1.01-2.14,3.07-4.45,6.76-4.45,1.26,0,2.18.21,3.02.55v3.15c-1.13-.5-2.1-.76-3.4-.76-3.74,0-6.34,2.81-6.34,5.75v12.85h-2.94v-21Z"/><path class="cls-9" d="m1471.62,1009.53v2.6c-.76.21-2.14.59-4.03.59-3.82,0-6.34-1.6-6.34-6.89v-12.18h-4.16v-2.44h4.16v-6.05l2.94-1.43v7.48h5.92v2.44h-5.92v11.8c0,2.81.76,4.58,3.4,4.58,1.6,0,3.23-.29,4.03-.5Z"/><path class="cls-9" d="m1476.44,979.45h2.98v6.51h-2.98v-6.51Zm0,11.76h2.94v21h-2.94v-21Z"/><path class="cls-9" d="m1485.1,1001.89c0-6.38,3.23-11.22,10-11.22s8.95,3.91,8.95,8.95v.42h-3.11v-.63c0-3.82-1.64-6.09-5.84-6.09-4.75,0-7.01,3.11-7.01,8.4,0,5.63,2.39,8.49,6.93,8.49,3.82,0,5.84-1.85,5.92-5.67h3.03c-.08,4.66-3.15,8.23-9.03,8.23-7.22,0-9.83-4.75-9.83-10.88Z"/><path class="cls-9" d="m1508.45,1006.42c0-3.95,2.23-6.09,7.86-6.09h6.34v-1.72c0-2.98-1.26-5.42-5.46-5.42-3.95,0-5.34,1.51-5.34,4.12v.88h-2.98v-.84c0-5,4.2-6.68,8.32-6.68,5.8,0,8.4,2.86,8.4,8.44v13.11h-2.06l-.55-2.98h-.08c-1.26,1.89-3.7,3.53-7.35,3.53-4.91,0-7.1-2.31-7.1-6.34Zm14.2-1.85v-1.76h-7.02c-2.65,0-4.03.92-4.03,3.61,0,2.35,1.26,3.86,4.5,3.86,4.16,0,6.55-2.14,6.55-5.71Z"/><path class="cls-9" d="m1532.93,979.45h2.94v32.77h-2.94v-32.77Z"/><path class="cls-9" d="m1541.96,1006h3.36v6.22c0,3.95-.88,5.29-3.4,5.96l-.67-1.85c1.76-.67,2.06-1.09,2.06-3.78v-.34h-1.34v-6.22Z"/><path class="cls-9" d="m1559.6,1001.72c0-6.22,3.32-11.05,10.38-11.05,6.59,0,10.25,4.83,10.25,11.05s-3.7,11.05-10.29,11.05c-7.27,0-10.33-4.83-10.33-11.05Zm17.56,0c0-5.33-2.9-8.49-7.22-8.49-4.75,0-7.27,3.15-7.27,8.49s2.56,8.49,7.27,8.49c4.33,0,7.22-3.15,7.22-8.49Z"/><path class="cls-9" d="m1586.11,991.22h2.39l.34,3.86h.08c1.13-2.48,4.03-4.41,7.86-4.41,6.3,0,9.66,3.99,9.66,11.01s-4.29,11.09-9.87,11.09c-3.78,0-6.38-1.6-7.43-3.7h-.09v11.55h-2.94v-29.41Zm17.18,10.63c0-7.18-3.4-8.61-6.93-8.61-4.24,0-7.56,2.73-7.56,8.44,0,6.01,3.45,8.57,7.44,8.57,3.03,0,7.06-1.47,7.06-8.4Z"/><path class="cls-9" d="m1629.58,1002.73h-15.96c.17,4.79,2.48,7.48,6.93,7.48,3.82,0,5.67-1.43,5.96-4.83h2.98c-.29,4.24-3.28,7.39-9.03,7.39-7.06,0-9.83-4.66-9.83-10.88s3.23-11.22,10-11.22,8.95,3.99,8.95,10.21v1.85Zm-3.11-2.98c0-4.45-1.72-6.55-5.92-6.55s-6.55,2.65-6.89,6.97h12.81v-.42Z"/><path class="cls-9" d="m1635.46,991.22h2.61l.29,3.49c1.01-2.14,3.28-4.03,7.35-4.03,4.75,0,7.77,2.52,7.77,7.94v13.61h-2.94v-13.27c0-4.33-2.14-5.71-5.5-5.71-3.82,0-6.64,2.69-6.64,5.63v13.36h-2.94v-21Z"/><path class="cls-9" d="m1670.48,979.45h2.94v23.23l12.14-11.47h3.65v.04l-8.4,7.86,8.78,13.06v.04h-3.36l-7.39-11.22-5.42,5.04v6.18h-2.94v-32.77Z"/><path class="cls-9" d="m1694.63,991.22h2.61l.29,3.49c1.01-2.14,3.28-4.03,7.35-4.03,4.75,0,7.77,2.52,7.77,7.94v13.61h-2.94v-13.27c0-4.33-2.14-5.71-5.5-5.71-3.82,0-6.64,2.69-6.64,5.63v13.36h-2.94v-21Z"/><path class="cls-9" d="m1718.32,1001.72c0-6.22,3.32-11.05,10.38-11.05,6.6,0,10.25,4.83,10.25,11.05s-3.7,11.05-10.29,11.05c-7.27,0-10.33-4.83-10.33-11.05Zm17.56,0c0-5.33-2.9-8.49-7.22-8.49-4.75,0-7.27,3.15-7.27,8.49s2.56,8.49,7.27,8.49c4.33,0,7.22-3.15,7.22-8.49Z"/><path class="cls-9" d="m1755.79,1009.53v2.6c-.76.21-2.14.59-4.03.59-3.82,0-6.34-1.6-6.34-6.89v-12.18h-4.16v-2.44h4.16v-6.05l2.94-1.43v7.48h5.92v2.44h-5.92v11.8c0,2.81.76,4.58,3.4,4.58,1.6,0,3.23-.29,4.03-.5Z"/><path class="cls-9" d="m1770.28,979.45h2.98v6.51h-2.98v-6.51Zm0,11.76h2.94v21h-2.94v-21Z"/><path class="cls-9" d="m1780.61,991.22h2.6l.29,3.49c1.01-2.14,3.28-4.03,7.35-4.03,4.75,0,7.77,2.52,7.77,7.94v13.61h-2.94v-13.27c0-4.33-2.14-5.71-5.5-5.71-3.82,0-6.64,2.69-6.64,5.63v13.36h-2.94v-21Z"/><path class="cls-9" d="m1817.32,989.91h-3.36v-5.08c0-3.95.88-5.29,3.4-5.97l.67,1.85c-1.76.67-2.06,1.09-2.06,3.78v.34h1.34v5.08Zm5.92,0h-3.36v-5.08c0-3.95.88-5.29,3.4-5.97l.67,1.85c-1.76.67-2.06,1.09-2.06,3.78v.34h1.34v5.08Z"/><path class="cls-9" d="m1826.26,1001.72c0-6.22,3.32-11.05,10.38-11.05,6.6,0,10.25,4.83,10.25,11.05s-3.7,11.05-10.29,11.05c-7.27,0-10.33-4.83-10.33-11.05Zm17.56,0c0-5.33-2.9-8.49-7.22-8.49-4.75,0-7.27,3.15-7.27,8.49s2.56,8.49,7.27,8.49c4.33,0,7.22-3.15,7.22-8.49Z"/><path class="cls-9" d="m1848.14,988.65c1.76-.67,2.06-1.09,2.06-3.78v-.34h-1.34v-5.08h3.36v5.08c0,3.95-.88,5.29-3.4,5.97l-.67-1.85Zm5.92,0c1.77-.67,2.06-1.09,2.06-3.78v-.34h-1.34v-5.08h3.36v5.08c0,3.95-.88,5.29-3.4,5.97l-.67-1.85Z"/><line class="cls-3" x1="1717.86" y1="634.13" x2="1717.86" y2="635"/><line class="cls-2" x1="1717.86" y1="652.1" x2="1717.86" y2="944.36"/><line class="cls-3" x1="1717.86" y1="952.9" x2="1717.86" y2="953.78"/><circle class="cls-11" cx="224.51" cy="2589.37" r="72.18"/><path class="cls-9" d="m432.71,2703.35v-109.2c-33.6-2.1-70.7-8.4-102.2-16.1-13.3-3.5-25.9-6.3-36.4-7.7-12.6,28.7-27.3,46.9-50.4,46.9-14.7,0-30.8-10.5-30.8-28,0-28,27.3-47.6,58.1-47.6,2.8,0,5.6,0,8.4.7l19.6-51.1c28-72.1,47.6-128.8,72.8-218.4,1.4-5.6,5.6-8.4,11.9-8.4,7,0,11.2,5.6,11.2,12.6l-.7,3.5c-21,74.2-46.2,151.9-74.2,224l-16.1,42c10.5,2.1,22.4,4.9,35,8.4,25.9,7,57.4,15.4,93.8,15.4v-70.7c0-7,4.9-11.9,11.9-11.9s11.9,4.9,11.9,11.9v70c31.5-4.2,49.7-18.2,56-18.2,7,0,11.9,5.6,11.9,12.6,0,4.9-2.1,7-6.3,9.8-12.6,8.4-38.5,18.2-61.6,20.3v109.2c0,7-4.9,11.9-11.9,11.9s-11.9-4.9-11.9-11.9Zm-162.4-137.2c-23.8,0-32.9,11.9-32.9,19.6,0,3.5,1.4,7.7,7.7,7.7,8.4,0,17.5-7.7,25.2-27.3Z"/><path class="cls-10" d="m295.03,2565.12-15.58-22.89l-.05.13c-2.8-.7-5.6-.7-8.4-.7-30.8,0-58.1,19.6-58.1,47.6,0,17.5,16.1,28,30.8,28,23.1,0,37.8-18.2,50.4-46.9-5.67-14.69-14.65-28.13-14.65-28.13Zm-34.35,51.23c-6.3,0-7.7-4.2-7.7-7.7,0-7.7,9.1-19.6,32.9-19.6-7.7,19.6-16.8,27.3-25.2,27.3Z"/><path class="cls-9" d="m115.25,3055.88c0-11.72,6.76-16.93,15.46-16.93,7.94,0,14.7,5.21,14.7,16.59,0,12.48-6.76,17.26-15.08,17.26s-15.08-4.79-15.08-16.93Zm27.05,0c0-10.12-5.33-14.24-12.01-14.24s-11.93,4.12-11.93,14.24,5.33,14.2,12.01,14.2,11.93-3.74,11.93-14.2Z"/><path class="cls-9" d="m151.71,3051.26h2.39l.34,3.86h.08c1.13-2.48,4.03-4.41,7.86-4.41,6.3,0,9.66,3.99,9.66,11.01s-4.29,11.09-9.87,11.09c-3.78,0-6.38-1.6-7.43-3.7h-.08v11.55h-2.94v-29.41Zm17.18,10.63c0-7.18-3.4-8.61-6.93-8.61-4.24,0-7.56,2.73-7.56,8.44,0,6.01,3.45,8.57,7.44,8.57,3.02,0,7.06-1.47,7.06-8.4Z"/><path class="cls-9" d="m195.18,3062.77h-15.96c.17,4.79,2.48,7.48,6.93,7.48,3.82,0,5.67-1.43,5.97-4.83h2.98c-.29,4.24-3.28,7.39-9.03,7.39-7.06,0-9.83-4.66-9.83-10.88s3.23-11.22,10-11.22,8.95,3.99,8.95,10.21v1.85Zm-3.11-2.98c0-4.45-1.72-6.55-5.92-6.55s-6.55,2.65-6.89,6.97h12.81v-.42Z"/><path class="cls-9" d="m201.05,3051.26h2.6l.29,3.49c1.01-2.14,3.28-4.03,7.35-4.03,4.75,0,7.77,2.52,7.77,7.94v13.61h-2.94v-13.27c0-4.33-2.14-5.71-5.5-5.71-3.82,0-6.64,2.69-6.64,5.63v13.36h-2.94v-21Z"/><path class="cls-9" d="m236.08,3039.5h2.94v23.23l12.14-11.47h3.65v.04l-8.4,7.86,8.78,13.06v.04h-3.36l-7.39-11.22-5.42,5.04v6.18h-2.94v-32.77Z"/><path class="cls-9" d="m260.23,3051.26h2.6l.29,3.49c1.01-2.14,3.28-4.03,7.35-4.03,4.75,0,7.77,2.52,7.77,7.94v13.61h-2.94v-13.27c0-4.33-2.14-5.71-5.5-5.71-3.82,0-6.64,2.69-6.64,5.63v13.36h-2.94v-21Z"/><path class="cls-9" d="m283.92,3061.77c0-6.22,3.32-11.05,10.38-11.05,6.59,0,10.25,4.83,10.25,11.05s-3.7,11.05-10.29,11.05c-7.27,0-10.33-4.83-10.33-11.05Zm17.56,0c0-5.33-2.9-8.49-7.22-8.49-4.75,0-7.27,3.15-7.27,8.49s2.56,8.49,7.27,8.49c4.33,0,7.22-3.15,7.22-8.49Z"/><path class="cls-9" d="m321.39,3069.58v2.6c-.76.21-2.14.59-4.03.59-3.82,0-6.34-1.6-6.34-6.89v-12.18h-4.16v-2.44h4.16v-6.05l2.94-1.43v7.48h5.92v2.44h-5.92v11.8c0,2.81.76,4.58,3.4,4.58,1.6,0,3.23-.29,4.03-.5Z"/><path class="cls-9" d="m335.88,3039.5h2.98v6.51h-2.98v-6.51Zm0,11.76h2.94v21h-2.94v-21Z"/><path class="cls-9" d="m346.21,3051.26h2.6l.29,3.49c1.01-2.14,3.28-4.03,7.35-4.03,4.75,0,7.77,2.52,7.77,7.94v13.61h-2.94v-13.27c0-4.33-2.14-5.71-5.5-5.71-3.82,0-6.64,2.69-6.64,5.63v13.36h-2.94v-21Z"/><path class="cls-9" d="m382.92,3049.96h-3.36v-5.08c0-3.95.88-5.29,3.4-5.97l.67,1.85c-1.76.67-2.06,1.09-2.06,3.78v.34h1.34v5.08Zm5.92,0h-3.36v-5.08c0-3.95.88-5.29,3.4-5.97l.67,1.85c-1.76.67-2.06,1.09-2.06,3.78v.34h1.34v5.08Z"/><path class="cls-9" d="m408.5,3065.13h-17.69v-2.23l16.72-23.36h3.95v22.85h4.96v2.73h-5v7.14h-2.94v-7.14Zm-13.99-2.73h14.03v-19.7l-14.03,19.7Z"/><path class="cls-9" d="m418.32,3048.7c1.76-.67,2.06-1.09,2.06-3.78v-.34h-1.34v-5.08h3.36v5.08c0,3.95-.88,5.29-3.4,5.97l-.67-1.85Zm5.92,0c1.76-.67,2.06-1.09,2.06-3.78v-.34h-1.34v-5.08h3.36v5.08c0,3.95-.88,5.29-3.4,5.97l-.67-1.85Z"/><line class="cls-3" x1="224.9" y1="2674.18" x2="224.9" y2="2675.05"/><line class="cls-6" x1="224.9" y1="2692.21" x2="224.9" y2="3004.38"/><line class="cls-3" x1="224.9" y1="3012.95" x2="224.9" y2="3013.82"/><path class="cls-9" d="m238.82,2008.92h2.94v32.77h-2.94v-32.77Z"/><path class="cls-9" d="m250.37,2020.68h2.6l.29,3.49c1.01-2.14,3.28-4.03,7.35-4.03,4.75,0,7.77,2.52,7.77,7.94v13.61h-2.94v-13.27c0-4.33-2.14-5.71-5.5-5.71-3.82,0-6.64,2.69-6.64,5.63v13.36h-2.94v-21Z"/><path class="cls-9" d="m274.05,2031.35c0-6.38,3.23-11.22,10-11.22s8.95,3.91,8.95,8.95v.42h-3.11v-.63c0-3.82-1.64-6.09-5.84-6.09-4.75,0-7.01,3.11-7.01,8.4,0,5.63,2.39,8.49,6.93,8.49,3.82,0,5.84-1.85,5.92-5.67h3.02c-.08,4.66-3.15,8.23-9.03,8.23-7.22,0-9.83-4.75-9.83-10.88Z"/><path class="cls-9" d="m298.25,2008.92h2.94v32.77h-2.94v-32.77Z"/><path class="cls-9" d="m308.12,2034.29v-13.61h2.94v13.27c0,4.33,2.14,5.71,5.42,5.71,3.74,0,6.55-2.69,6.55-5.63v-13.36h2.94v21h-2.6l-.25-3.36h-.08c-.97,2.02-3.23,3.91-7.23,3.91-4.66,0-7.69-2.52-7.69-7.94Z"/><path class="cls-9" d="m331.64,2031.22c0-7.1,4.28-11.09,10.04-11.09,3.7,0,6.22,1.6,7.31,3.74h.04v-14.96h2.94v32.77h-1.97l-.67-3.61h-.08c-1.18,2.31-3.95,4.16-7.77,4.16-6.3,0-9.83-3.99-9.83-11.01Zm17.64-.5c0-5.5-3.36-8.07-7.35-8.07-3.11,0-7.14,1.47-7.14,8.4s3.61,8.61,7.14,8.61c4.24,0,7.35-2.73,7.35-8.95Z"/><path class="cls-9" d="m376.58,2032.19h-15.96c.17,4.79,2.48,7.48,6.93,7.48,3.82,0,5.67-1.43,5.97-4.83h2.98c-.29,4.24-3.28,7.39-9.03,7.39-7.06,0-9.83-4.66-9.83-10.88s3.23-11.22,10-11.22,8.95,3.99,8.95,10.21v1.85Zm-3.11-2.98c0-4.45-1.72-6.55-5.92-6.55s-6.55,2.65-6.89,6.97h12.81v-.42Z"/><path class="cls-9" d="m380.57,2035.25v-1.18h2.94v1.13c0,2.86,2.14,4.5,5.96,4.5s5.8-1.01,5.8-3.78c0-2.06-1.01-2.81-3.86-3.32l-4.62-.84c-3.02-.55-5.54-2.02-5.54-5.5,0-3.15,2.35-6.13,8.4-6.13s8.4,3.02,8.4,7.23v.88h-2.98v-.76c0-3.44-2.14-4.92-5.42-4.92-3.95,0-5.33,1.34-5.33,3.36s1.01,2.86,3.91,3.4l4.03.76c4.12.76,6.09,1.93,6.09,5.59,0,4.58-4.12,6.55-8.78,6.55-7.31,0-8.99-3.28-8.99-6.97Z"/><path class="cls-9" d="m412.19,2031.35c0-6.38,3.23-11.22,10-11.22s8.95,3.91,8.95,8.95v.42h-3.11v-.63c0-3.82-1.64-6.09-5.84-6.09-4.75,0-7.01,3.11-7.01,8.4,0,5.63,2.39,8.49,6.93,8.49,3.82,0,5.84-1.85,5.92-5.67h3.02c-.08,4.66-3.15,8.23-9.03,8.23-7.22,0-9.83-4.75-9.83-10.88Z"/><path class="cls-9" d="m436.59,2034.29v-13.61h2.94v13.27c0,4.33,2.14,5.71,5.42,5.71,3.74,0,6.55-2.69,6.55-5.63v-13.36h2.94v21h-2.6l-.25-3.36h-.08c-.97,2.02-3.23,3.91-7.23,3.91-4.66,0-7.69-2.52-7.69-7.94Z"/><path class="cls-9" d="m461.79,2020.68h2.6l.29,3.91c1.01-2.14,3.07-4.45,6.76-4.45,1.26,0,2.18.21,3.02.55v3.15c-1.13-.5-2.1-.76-3.4-.76-3.74,0-6.34,2.81-6.34,5.75v12.85h-2.94v-21Z"/><path class="cls-9" d="m477,2035.25v-1.18h2.94v1.13c0,2.86,2.14,4.5,5.96,4.5s5.8-1.01,5.8-3.78c0-2.06-1.01-2.81-3.86-3.32l-4.62-.84c-3.02-.55-5.54-2.02-5.54-5.5,0-3.15,2.35-6.13,8.4-6.13s8.4,3.02,8.4,7.23v.88h-2.98v-.76c0-3.44-2.14-4.92-5.42-4.92-3.95,0-5.33,1.34-5.33,3.36s1.01,2.86,3.91,3.4l4.03.76c4.12.76,6.09,1.93,6.09,5.59,0,4.58-4.12,6.55-8.78,6.55-7.31,0-8.99-3.28-8.99-6.97Z"/><path class="cls-9" d="m500.64,2008.92h2.98v6.51h-2.98v-6.51Zm0,11.76h2.94v21h-2.94v-21Z"/><path class="cls-9" d="m507.83,2020.72v-.04h3.36l7.35,17.98h.08l7.1-17.98h3.07v.04l-8.74,20.96h-3.02l-9.2-20.96Z"/><path class="cls-9" d="m549.62,2032.19h-15.96c.17,4.79,2.48,7.48,6.93,7.48,3.82,0,5.67-1.43,5.97-4.83h2.98c-.29,4.24-3.28,7.39-9.03,7.39-7.06,0-9.83-4.66-9.83-10.88s3.23-11.22,10-11.22,8.95,3.99,8.95,10.21v1.85Zm-3.11-2.98c0-4.45-1.72-6.55-5.92-6.55s-6.55,2.65-6.89,6.97h12.81v-.42Z"/><path class="cls-9" d="m564.74,2034.29v-13.61h2.94v13.27c0,4.33,2.14,5.71,5.42,5.71,3.74,0,6.55-2.69,6.55-5.63v-13.36h2.94v21h-2.6l-.25-3.36h-.08c-.97,2.02-3.23,3.91-7.23,3.91-4.66,0-7.69-2.52-7.69-7.94Z"/><path class="cls-9" d="m589.94,2020.68h2.39l.34,3.87h.08c1.13-2.48,4.03-4.41,7.86-4.41,6.3,0,9.66,3.99,9.66,11.01s-4.29,11.09-9.87,11.09c-3.78,0-6.38-1.6-7.43-3.7h-.08v11.55h-2.94v-29.41Zm17.18,10.63c0-7.18-3.4-8.61-6.93-8.61-4.24,0-7.56,2.73-7.56,8.44,0,6.01,3.45,8.57,7.44,8.57,3.02,0,7.06-1.47,7.06-8.4Z"/><path class="cls-9" d="m616.14,2020.68h2.39l.34,3.87h.08c1.13-2.48,4.03-4.41,7.86-4.41,6.3,0,9.66,3.99,9.66,11.01s-4.29,11.09-9.87,11.09c-3.78,0-6.38-1.6-7.43-3.7h-.08v11.55h-2.94v-29.41Zm17.18,10.63c0-7.18-3.4-8.61-6.93-8.61-4.24,0-7.56,2.73-7.56,8.44,0,6.01,3.45,8.57,7.44,8.57,3.02,0,7.06-1.47,7.06-8.4Z"/><path class="cls-9" d="m659.62,2032.19h-15.96c.17,4.79,2.48,7.48,6.93,7.48,3.82,0,5.67-1.43,5.97-4.83h2.98c-.29,4.24-3.28,7.39-9.03,7.39-7.06,0-9.83-4.66-9.83-10.88s3.23-11.22,10-11.22,8.95,3.99,8.95,10.21v1.85Zm-3.11-2.98c0-4.45-1.72-6.55-5.92-6.55s-6.55,2.65-6.89,6.97h12.81v-.42Z"/><path class="cls-9" d="m665.49,2020.68h2.6l.29,3.91c1.01-2.14,3.07-4.45,6.76-4.45,1.26,0,2.18.21,3.02.55v3.15c-1.13-.5-2.1-.76-3.4-.76-3.74,0-6.34,2.81-6.34,5.75v12.85h-2.94v-21Z"/><path class="cls-9" d="m680.49,2031.35c0-6.38,3.23-11.22,10-11.22s8.95,3.91,8.95,8.95v.42h-3.11v-.63c0-3.82-1.64-6.09-5.84-6.09-4.75,0-7.02,3.11-7.02,8.4,0,5.63,2.39,8.49,6.93,8.49,3.82,0,5.84-1.85,5.92-5.67h3.02c-.08,4.66-3.15,8.23-9.03,8.23-7.22,0-9.83-4.75-9.83-10.88Z"/><path class="cls-9" d="m703.84,2035.88c0-3.95,2.23-6.09,7.86-6.09h6.34v-1.72c0-2.98-1.26-5.42-5.46-5.42-3.95,0-5.33,1.51-5.33,4.12v.88h-2.98v-.84c0-5,4.2-6.68,8.32-6.68,5.8,0,8.4,2.86,8.4,8.44v13.11h-2.06l-.55-2.98h-.08c-1.26,1.89-3.7,3.53-7.35,3.53-4.92,0-7.1-2.31-7.1-6.34Zm14.2-1.85v-1.76h-7.01c-2.65,0-4.03.92-4.03,3.61,0,2.35,1.26,3.87,4.5,3.87,4.16,0,6.55-2.14,6.55-5.71Z"/><path class="cls-9" d="m726.44,2035.25v-1.18h2.94v1.13c0,2.86,2.14,4.5,5.96,4.5s5.8-1.01,5.8-3.78c0-2.06-1.01-2.81-3.86-3.32l-4.62-.84c-3.02-.55-5.54-2.02-5.54-5.5,0-3.15,2.35-6.13,8.4-6.13s8.4,3.02,8.4,7.23v.88h-2.98v-.76c0-3.44-2.14-4.92-5.42-4.92-3.95,0-5.33,1.34-5.33,3.36s1.01,2.86,3.91,3.4l4.03.76c4.12.76,6.09,1.93,6.09,5.59,0,4.58-4.12,6.55-8.78,6.55-7.31,0-8.99-3.28-8.99-6.97Z"/><path class="cls-9" d="m767.35,2032.19h-15.96c.17,4.79,2.48,7.48,6.93,7.48,3.82,0,5.67-1.43,5.97-4.83h2.98c-.29,4.24-3.28,7.39-9.03,7.39-7.06,0-9.83-4.66-9.83-10.88s3.23-11.22,10-11.22,8.95,3.99,8.95,10.21v1.85Zm-3.11-2.98c0-4.45-1.72-6.55-5.92-6.55s-6.55,2.65-6.89,6.97h12.81v-.42Z"/><path class="cls-9" d="m781.62,2035.88c0-3.95,2.23-6.09,7.86-6.09h6.34v-1.72c0-2.98-1.26-5.42-5.46-5.42-3.95,0-5.33,1.51-5.33,4.12v.88h-2.98v-.84c0-5,4.2-6.68,8.32-6.68,5.8,0,8.4,2.86,8.4,8.44v13.11h-2.06l-.55-2.98h-.08c-1.26,1.89-3.7,3.53-7.35,3.53-4.92,0-7.1-2.31-7.1-6.34Zm14.2-1.85v-1.76h-7.01c-2.65,0-4.03.92-4.03,3.61,0,2.35,1.26,3.87,4.5,3.87,4.16,0,6.55-2.14,6.55-5.71Z"/><path class="cls-9" d="m806.11,2008.92h2.94v32.77h-2.94v-32.77Z"/><path class="cls-9" d="m814.51,2035.25v-1.18h2.94v1.13c0,2.86,2.14,4.5,5.96,4.5s5.8-1.01,5.8-3.78c0-2.06-1.01-2.81-3.86-3.32l-4.62-.84c-3.02-.55-5.54-2.02-5.54-5.5,0-3.15,2.35-6.13,8.4-6.13s8.4,3.02,8.4,7.23v.88h-2.98v-.76c0-3.44-2.14-4.92-5.42-4.92-3.95,0-5.33,1.34-5.33,3.36s1.01,2.86,3.91,3.4l4.03.76c4.12.76,6.09,1.93,6.09,5.59,0,4.58-4.12,6.55-8.78,6.55-7.31,0-8.99-3.28-8.99-6.97Z"/><path class="cls-9" d="m836.48,2031.18c0-6.22,3.32-11.05,10.38-11.05,6.59,0,10.25,4.83,10.25,11.05s-3.7,11.05-10.29,11.05c-7.27,0-10.33-4.83-10.33-11.05Zm17.56,0c0-5.33-2.9-8.49-7.22-8.49-4.75,0-7.27,3.15-7.27,8.49s2.56,8.49,7.27,8.49c4.33,0,7.22-3.15,7.22-8.49Z"/><path class="cls-9" d="m861.72,2035.46h3.36v6.22c0,3.95-.88,5.29-3.4,5.96l-.67-1.85c1.76-.67,2.06-1.09,2.06-3.78v-.34h-1.34v-6.22Z"/><path class="cls-9" d="m157.27,2069.57v-.04h2.98l5.76,17.47h.08l6.3-17.47h2.69l6.17,17.47h.08l5.75-17.47h2.86v.04l-7.18,20.96h-3.02l-5.96-17.06h-.08l-6.22,17.06h-3.02l-7.18-20.96Z"/><path class="cls-9" d="m194.78,2057.76h2.98v6.51h-2.98v-6.51Zm0,11.76h2.94v21h-2.94v-21Z"/><path class="cls-9" d="m216.08,2087.84v2.6c-.76.21-2.14.59-4.03.59-3.82,0-6.34-1.6-6.34-6.89v-12.18h-4.16v-2.44h4.16v-6.05l2.94-1.43v7.48h5.92v2.44h-5.92v11.8c0,2.81.76,4.58,3.4,4.58,1.6,0,3.23-.29,4.03-.5Z"/><path class="cls-9" d="m220.9,2057.76h2.94v15.16c1.05-2.1,3.28-3.95,7.31-3.95,4.75,0,7.77,2.52,7.77,7.94v13.61h-2.94v-13.27c0-4.33-2.14-5.71-5.5-5.71-3.82,0-6.64,2.69-6.64,5.63v13.36h-2.94v-32.77Z"/><path class="cls-9" d="m254.25,2080.07c0-7.1,4.28-11.09,10.04-11.09,3.7,0,6.22,1.6,7.31,3.74h.04v-14.95h2.94v32.77h-1.97l-.67-3.61h-.08c-1.18,2.31-3.95,4.16-7.77,4.16-6.3,0-9.83-3.99-9.83-11.01Zm17.64-.5c0-5.5-3.36-8.07-7.35-8.07-3.11,0-7.14,1.47-7.14,8.4s3.61,8.61,7.14,8.61c4.24,0,7.35-2.73,7.35-8.95Z"/><path class="cls-9" d="m299.19,2081.03h-15.96c.17,4.79,2.48,7.48,6.93,7.48,3.82,0,5.67-1.43,5.97-4.83h2.98c-.29,4.24-3.28,7.39-9.03,7.39-7.06,0-9.83-4.66-9.83-10.88s3.23-11.22,10-11.22,8.95,3.99,8.95,10.21v1.85Zm-3.11-2.98c0-4.45-1.72-6.55-5.92-6.55s-6.55,2.65-6.89,6.97h12.81v-.42Z"/><path class="cls-9" d="m303.39,2080.19c0-6.38,3.23-11.22,10-11.22s8.95,3.91,8.95,8.95v.42h-3.11v-.63c0-3.82-1.64-6.09-5.84-6.09-4.75,0-7.02,3.11-7.02,8.4,0,5.63,2.39,8.49,6.93,8.49,3.82,0,5.84-1.85,5.92-5.67h3.02c-.08,4.66-3.15,8.23-9.03,8.23-7.22,0-9.83-4.75-9.83-10.88Z"/><path class="cls-9" d="m326.53,2080.03c0-6.22,3.32-11.05,10.38-11.05,6.59,0,10.25,4.83,10.25,11.05s-3.7,11.05-10.29,11.05c-7.27,0-10.33-4.83-10.33-11.05Zm17.56,0c0-5.33-2.9-8.49-7.22-8.49-4.75,0-7.27,3.15-7.27,8.49s2.56,8.49,7.27,8.49c4.33,0,7.22-3.15,7.22-8.49Z"/><path class="cls-9" d="m353.04,2069.52h2.6l.29,3.91c1.01-2.14,3.07-4.45,6.76-4.45,1.26,0,2.18.21,3.02.55v3.15c-1.13-.5-2.1-.76-3.4-.76-3.74,0-6.34,2.81-6.34,5.75v12.85h-2.94v-21Z"/><path class="cls-9" d="m368.66,2084.73c0-3.95,2.23-6.09,7.86-6.09h6.34v-1.72c0-2.98-1.26-5.42-5.46-5.42-3.95,0-5.33,1.51-5.33,4.12v.88h-2.98v-.84c0-5,4.2-6.68,8.32-6.68,5.8,0,8.4,2.86,8.4,8.44v13.11h-2.06l-.55-2.98h-.08c-1.26,1.89-3.7,3.53-7.35,3.53-4.92,0-7.1-2.31-7.1-6.34Zm14.2-1.85v-1.76h-7.01c-2.65,0-4.03.92-4.03,3.61,0,2.35,1.26,3.86,4.5,3.86,4.16,0,6.55-2.14,6.55-5.71Z"/><path class="cls-9" d="m403.9,2087.84v2.6c-.76.21-2.14.59-4.03.59-3.82,0-6.34-1.6-6.34-6.89v-12.18h-4.16v-2.44h4.16v-6.05l2.94-1.43v7.48h5.92v2.44h-5.92v11.8c0,2.81.76,4.58,3.4,4.58,1.6,0,3.23-.29,4.03-.5Z"/><path class="cls-9" d="m408.73,2057.76h2.98v6.51h-2.98v-6.51Zm0,11.76h2.94v21h-2.94v-21Z"/><path class="cls-9" d="m415.91,2069.57v-.04h3.36l7.35,17.98h.08l7.1-17.98h3.07v.04l-8.74,20.96h-3.02l-9.2-20.96Z"/><path class="cls-9" d="m457.7,2081.03h-15.96c.17,4.79,2.48,7.48,6.93,7.48,3.82,0,5.67-1.43,5.97-4.83h2.98c-.29,4.24-3.28,7.39-9.03,7.39-7.06,0-9.83-4.66-9.83-10.88s3.23-11.22,10-11.22,8.95,3.99,8.95,10.21v1.85Zm-3.11-2.98c0-4.45-1.72-6.55-5.92-6.55s-6.55,2.65-6.89,6.97h12.81v-.42Z"/><path class="cls-9" d="m471.35,2084.1v-1.18h2.94v1.13c0,2.86,2.14,4.5,5.96,4.5s5.8-1.01,5.8-3.78c0-2.06-1.01-2.81-3.86-3.32l-4.62-.84c-3.02-.55-5.54-2.02-5.54-5.5,0-3.15,2.35-6.13,8.4-6.13s8.4,3.02,8.4,7.22v.88h-2.98v-.76c0-3.44-2.14-4.91-5.42-4.91-3.95,0-5.33,1.34-5.33,3.36s1.01,2.86,3.91,3.4l4.03.76c4.12.76,6.09,1.93,6.09,5.59,0,4.58-4.12,6.55-8.78,6.55-7.31,0-8.99-3.28-8.99-6.97Z"/><path class="cls-9" d="m495,2057.76h2.94v15.16c1.05-2.1,3.28-3.95,7.31-3.95,4.75,0,7.77,2.52,7.77,7.94v13.61h-2.94v-13.27c0-4.33-2.14-5.71-5.5-5.71-3.82,0-6.64,2.69-6.64,5.63v13.36h-2.94v-32.77Z"/><path class="cls-9" d="m519.1,2084.73c0-3.95,2.23-6.09,7.86-6.09h6.34v-1.72c0-2.98-1.26-5.42-5.46-5.42-3.95,0-5.33,1.51-5.33,4.12v.88h-2.98v-.84c0-5,4.2-6.68,8.32-6.68,5.8,0,8.4,2.86,8.4,8.44v13.11h-2.06l-.55-2.98h-.08c-1.26,1.89-3.7,3.53-7.35,3.53-4.92,0-7.1-2.31-7.1-6.34Zm14.2-1.85v-1.76h-7.01c-2.65,0-4.03.92-4.03,3.61,0,2.35,1.26,3.86,4.5,3.86,4.16,0,6.55-2.14,6.55-5.71Z"/><path class="cls-9" d="m543.59,2069.52h2.39l.34,3.86h.08c1.13-2.48,4.03-4.41,7.86-4.41,6.3,0,9.66,3.99,9.66,11.01s-4.29,11.09-9.87,11.09c-3.78,0-6.38-1.6-7.43-3.7h-.08v11.55h-2.94v-29.41Zm17.18,10.63c0-7.18-3.4-8.61-6.93-8.61-4.24,0-7.56,2.73-7.56,8.44,0,6.01,3.45,8.57,7.44,8.57,3.02,0,7.06-1.47,7.06-8.4Z"/><path class="cls-9" d="m587.06,2081.03h-15.96c.17,4.79,2.48,7.48,6.93,7.48,3.82,0,5.67-1.43,5.97-4.83h2.98c-.29,4.24-3.28,7.39-9.03,7.39-7.06,0-9.83-4.66-9.83-10.88s3.23-11.22,10-11.22,8.95,3.99,8.95,10.21v1.85Zm-3.11-2.98c0-4.45-1.72-6.55-5.92-6.55s-6.55,2.65-6.89,6.97h12.81v-.42Z"/><path class="cls-9" d="m591.05,2084.1v-1.18h2.94v1.13c0,2.86,2.14,4.5,5.96,4.5s5.8-1.01,5.8-3.78c0-2.06-1.01-2.81-3.86-3.32l-4.62-.84c-3.02-.55-5.54-2.02-5.54-5.5,0-3.15,2.35-6.13,8.4-6.13s8.4,3.02,8.4,7.22v.88h-2.98v-.76c0-3.44-2.14-4.91-5.42-4.91-3.95,0-5.33,1.34-5.33,3.36s1.01,2.86,3.91,3.4l4.03.76c4.12.76,6.09,1.93,6.09,5.59,0,4.58-4.12,6.55-8.78,6.55-7.31,0-8.99-3.28-8.99-6.97Z"/><path class="cls-9" d="m623.09,2084.73c0-3.95,2.23-6.09,7.86-6.09h6.34v-1.72c0-2.98-1.26-5.42-5.46-5.42-3.95,0-5.33,1.51-5.33,4.12v.88h-2.98v-.84c0-5,4.2-6.68,8.32-6.68,5.8,0,8.4,2.86,8.4,8.44v13.11h-2.06l-.55-2.98h-.08c-1.26,1.89-3.7,3.53-7.35,3.53-4.92,0-7.1-2.31-7.1-6.34Zm14.2-1.85v-1.76h-7.01c-2.65,0-4.03.92-4.03,3.61,0,2.35,1.26,3.86,4.5,3.86,4.16,0,6.55-2.14,6.55-5.71Z"/><path class="cls-9" d="m647.58,2069.52h2.6l.29,3.49c1.01-2.14,3.28-4.03,7.35-4.03,4.75,0,7.77,2.52,7.77,7.94v13.61h-2.94v-13.27c0-4.33-2.14-5.71-5.5-5.71-3.82,0-6.64,2.69-6.64,5.63v13.36h-2.94v-21Z"/><path class="cls-9" d="m671.27,2080.07c0-7.1,4.28-11.09,10.04-11.09,3.7,0,6.22,1.6,7.31,3.74h.04v-14.95h2.94v32.77h-1.97l-.67-3.61h-.08c-1.18,2.31-3.95,4.16-7.77,4.16-6.3,0-9.83-3.99-9.83-11.01Zm17.64-.5c0-5.5-3.36-8.07-7.35-8.07-3.11,0-7.14,1.47-7.14,8.4s3.61,8.61,7.14,8.61c4.24,0,7.35-2.73,7.35-8.95Z"/><path class="cls-9" d="m706.72,2084.1v-1.18h2.94v1.13c0,2.86,2.14,4.5,5.96,4.5s5.8-1.01,5.8-3.78c0-2.06-1.01-2.81-3.86-3.32l-4.62-.84c-3.02-.55-5.54-2.02-5.54-5.5,0-3.15,2.35-6.13,8.4-6.13s8.4,3.02,8.4,7.22v.88h-2.98v-.76c0-3.44-2.14-4.91-5.42-4.91-3.95,0-5.33,1.34-5.33,3.36s1.01,2.86,3.91,3.4l4.03.76c4.12.76,6.09,1.93,6.09,5.59,0,4.58-4.12,6.55-8.78,6.55-7.31,0-8.99-3.28-8.99-6.97Z"/><path class="cls-9" d="m747.63,2081.03h-15.96c.17,4.79,2.48,7.48,6.93,7.48,3.82,0,5.67-1.43,5.97-4.83h2.98c-.29,4.24-3.28,7.39-9.03,7.39-7.06,0-9.83-4.66-9.83-10.88s3.23-11.22,10-11.22,8.95,3.99,8.95,10.21v1.85Zm-3.11-2.98c0-4.45-1.72-6.55-5.92-6.55s-6.55,2.65-6.89,6.97h12.81v-.42Z"/><path class="cls-9" d="m784.21,2076.92v13.61h-2.94v-13.27c0-4.33-2.14-5.71-4.75-5.71-3.82,0-6.17,2.69-6.17,5.63v13.36h-2.94v-13.27c0-4.33-1.85-5.71-4.83-5.71-3.61,0-6.13,2.69-6.13,5.63v13.36h-2.94v-21h2.6l.29,3.49c1.01-2.02,3.07-4.03,6.93-4.03,2.94,0,5.38,1.39,6.43,4.28,1.22-2.39,3.57-4.28,7.14-4.28,4.29,0,7.31,2.52,7.31,7.94Z"/><path class="cls-9" d="m791.56,2057.76h2.98v6.51h-2.98v-6.51Zm0,11.76h2.94v21h-2.94v-21Z"/><path class="cls-9" d="m800.21,2077.04h10.59v2.81h-10.59v-2.81Z"/><path class="cls-9" d="m819.61,2093.55c0,3.53-1.68,5.84-5.04,5.84-1.18,0-2.02-.13-2.94-.38v-2.6c.8.17,1.47.29,2.27.29,1.93,0,2.77-1.26,2.77-3.65v-23.52h2.94v24.03Zm-2.94-35.79h2.98v6.51h-2.98v-6.51Z"/><path class="cls-9" d="m825.33,2080.03c0-6.22,3.32-11.05,10.38-11.05,6.59,0,10.25,4.83,10.25,11.05s-3.7,11.05-10.29,11.05c-7.27,0-10.33-4.83-10.33-11.05Zm17.56,0c0-5.33-2.9-8.49-7.22-8.49-4.75,0-7.27,3.15-7.27,8.49s2.56,8.49,7.27,8.49c4.33,0,7.22-3.15,7.22-8.49Z"/><path class="cls-9" d="m851.83,2057.76h2.98v6.51h-2.98v-6.51Zm0,11.76h2.94v21h-2.94v-21Z"/><path class="cls-9" d="m862.16,2069.52h2.6l.29,3.49c1.01-2.14,3.28-4.03,7.35-4.03,4.75,0,7.77,2.52,7.77,7.94v13.61h-2.94v-13.27c0-4.33-2.14-5.71-5.5-5.71-3.82,0-6.64,2.69-6.64,5.63v13.36h-2.94v-21Z"/><path class="cls-9" d="m887.53,2057.76h2.98v6.51h-2.98v-6.51Zm0,11.76h2.94v21h-2.94v-21Z"/><path class="cls-9" d="m897.86,2069.52h2.6l.29,3.49c1.01-2.14,3.28-4.03,7.35-4.03,4.75,0,7.77,2.52,7.77,7.94v13.61h-2.94v-13.27c0-4.33-2.14-5.71-5.5-5.71-3.82,0-6.64,2.69-6.64,5.63v13.36h-2.94v-21Z"/><path class="cls-9" d="m922.6,2092.33v-.13h3.11v.13c0,2.9,1.93,4.33,6.13,4.33,4.79,0,7.01-2.94,7.01-7.86v-2.1h-.08c-1.09,2.18-3.65,4.08-7.48,4.08-6.3,0-9.75-3.99-9.75-10.71,0-7.1,4.37-11.09,9.96-11.09,3.78,0,6.55,1.81,7.56,4.12h.13l.29-3.57h2.31v19.16c0,5.88-2.81,10.71-10.33,10.71-6.3,0-8.86-2.98-8.86-7.06Zm16.59-12.77c0-5.5-3.36-8.07-7.35-8.07-3.03,0-7.14,1.47-7.14,8.4s3.57,8.32,7.1,8.32c4.24,0,7.39-2.73,7.39-8.65Z"/><line class="cls-3" x1="551.15" y1="1703.59" x2="551.15" y2="1704.47"/><line class="cls-5" x1="551.15" y1="1721.41" x2="551.15" y2="1973.89"/><line class="cls-3" x1="551.15" y1="1982.37" x2="551.15" y2="1983.24"/><path class="cls-9" d="m1036.12,4073.17h8.36c11.05,0,17.39,4.54,17.39,16.42s-6.26,16.34-17.18,16.34h-8.57v-32.77Zm8.65,30.12c9.41,0,14.03-3.74,14.03-13.78s-4.49-13.74-14.07-13.74h-5.67v27.51h5.71Z"/><path class="cls-9" d="m1068.17,4073.17h2.98v6.51h-2.98v-6.51Zm0,11.76h2.94v21h-2.94v-21Z"/><path class="cls-9" d="m1076.61,4099.5v-1.18h2.94v1.13c0,2.86,2.14,4.5,5.96,4.5s5.8-1.01,5.8-3.78c0-2.06-1.01-2.81-3.86-3.32l-4.62-.84c-3.03-.55-5.54-2.02-5.54-5.5,0-3.15,2.35-6.13,8.4-6.13s8.4,3.02,8.4,7.23v.88h-2.98v-.76c0-3.44-2.14-4.92-5.42-4.92-3.95,0-5.33,1.34-5.33,3.36s1.01,2.86,3.91,3.4l4.03.76c4.12.76,6.09,1.93,6.09,5.59,0,4.58-4.12,6.55-8.78,6.55-7.31,0-8.99-3.28-8.99-6.97Z"/><path class="cls-9" d="m1111.22,4103.24v2.6c-.76.21-2.14.59-4.03.59-3.82,0-6.34-1.6-6.34-6.89v-12.18h-4.16v-2.44h4.16v-6.05l2.94-1.43v7.48h5.92v2.44h-5.92v11.8c0,2.81.76,4.58,3.4,4.58,1.6,0,3.23-.29,4.03-.5Z"/><path class="cls-9" d="m1116.05,4073.17h2.98v6.51h-2.98v-6.51Zm0,11.76h2.94v21h-2.94v-21Z"/><path class="cls-9" d="m1126.38,4084.93h2.6l.29,3.49c1.01-2.14,3.28-4.03,7.35-4.03,4.75,0,7.77,2.52,7.77,7.94v13.61h-2.94v-13.27c0-4.33-2.14-5.71-5.5-5.71-3.82,0-6.64,2.69-6.64,5.63v13.36h-2.94v-21Z"/><path class="cls-9" d="m1150.07,4095.6c0-6.38,3.23-11.22,10-11.22s8.95,3.91,8.95,8.95v.42h-3.11v-.63c0-3.82-1.64-6.09-5.84-6.09-4.75,0-7.02,3.11-7.02,8.4,0,5.63,2.39,8.49,6.93,8.49,3.82,0,5.84-1.85,5.92-5.67h3.02c-.08,4.66-3.15,8.23-9.03,8.23-7.22,0-9.83-4.75-9.83-10.88Z"/><path class="cls-9" d="m1185.86,4103.24v2.6c-.76.21-2.14.59-4.03.59-3.82,0-6.34-1.6-6.34-6.89v-12.18h-4.16v-2.44h4.16v-6.05l2.94-1.43v7.48h5.92v2.44h-5.92v11.8c0,2.81.76,4.58,3.4,4.58,1.6,0,3.23-.29,4.03-.5Z"/><path class="cls-9" d="m1190.68,4073.17h2.98v6.51h-2.98v-6.51Zm0,11.76h2.94v21h-2.94v-21Z"/><path class="cls-9" d="m1197.87,4084.97v-.04h3.36l7.35,17.98h.08l7.1-17.98h3.07v.04l-8.74,20.96h-3.03l-9.2-20.96Z"/><path class="cls-9" d="m1239.66,4096.44h-15.96c.17,4.79,2.48,7.48,6.93,7.48,3.82,0,5.67-1.43,5.96-4.83h2.98c-.29,4.24-3.28,7.39-9.03,7.39-7.06,0-9.83-4.66-9.83-10.88s3.23-11.22,10-11.22,8.95,3.99,8.95,10.21v1.85Zm-3.11-2.98c0-4.45-1.72-6.55-5.92-6.55s-6.55,2.65-6.89,6.97h12.81v-.42Z"/><path class="cls-9" d="m1256.88,4083.63h-3.36v-5.08c0-3.95.88-5.29,3.4-5.96l.67,1.85c-1.76.67-2.06,1.09-2.06,3.78v.34h1.34v5.08Zm5.92,0h-3.36v-5.08c0-3.95.88-5.29,3.4-5.96l.67,1.85c-1.76.67-2.06,1.09-2.06,3.78v.34h1.34v5.08Z"/><path class="cls-9" d="m1285.4,4084.97l-8.07,10.5,8.02,10.42v.04h-3.44l-6.34-8.44-6.43,8.44h-3.28v-.04l8.02-10.38-8.07-10.54v-.04h3.45l6.38,8.49,6.43-8.44v-.04h3.32v.04Z"/><path class="cls-9" d="m1288.04,4082.37c1.76-.67,2.06-1.09,2.06-3.78v-.34h-1.34v-5.08h3.36v5.08c0,3.95-.88,5.29-3.4,5.96l-.67-1.85Zm5.92,0c1.76-.67,2.06-1.09,2.06-3.78v-.34h-1.35v-5.08h3.36v5.08c0,3.95-.88,5.29-3.4,5.96l-.67-1.85Z"/><path class="cls-9" d="m1310.84,4084.97v-.04h2.98l5.76,17.48h.08l6.3-17.48h2.69l6.17,17.48h.08l5.76-17.48h2.86v.04l-7.18,20.96h-3.03l-5.96-17.05h-.08l-6.22,17.05h-3.03l-7.18-20.96Z"/><path class="cls-9" d="m1348.35,4073.17h2.98v6.51h-2.98v-6.51Zm0,11.76h2.94v21h-2.94v-21Z"/><path class="cls-9" d="m1369.65,4103.24v2.6c-.76.21-2.14.59-4.03.59-3.82,0-6.34-1.6-6.34-6.89v-12.18h-4.16v-2.44h4.16v-6.05l2.94-1.43v7.48h5.92v2.44h-5.92v11.8c0,2.81.76,4.58,3.4,4.58,1.6,0,3.23-.29,4.03-.5Z"/><path class="cls-9" d="m1374.47,4073.17h2.94v15.17c1.05-2.1,3.28-3.95,7.31-3.95,4.75,0,7.77,2.52,7.77,7.94v13.61h-2.94v-13.27c0-4.33-2.14-5.71-5.5-5.71-3.82,0-6.64,2.69-6.64,5.63v13.36h-2.94v-32.77Z"/><path class="cls-9" d="m1407.82,4095.47c0-7.1,4.29-11.09,10.04-11.09,3.7,0,6.22,1.6,7.31,3.74h.04v-14.96h2.94v32.77h-1.97l-.67-3.61h-.08c-1.18,2.31-3.95,4.16-7.77,4.16-6.3,0-9.83-3.99-9.83-11.01Zm17.64-.5c0-5.5-3.36-8.07-7.35-8.07-3.11,0-7.14,1.47-7.14,8.4s3.61,8.61,7.14,8.61c4.24,0,7.35-2.73,7.35-8.95Z"/><path class="cls-9" d="m1433.82,4095.43c0-6.22,3.32-11.05,10.38-11.05,6.59,0,10.25,4.83,10.25,11.05s-3.7,11.05-10.29,11.05c-7.27,0-10.33-4.83-10.33-11.05Zm17.56,0c0-5.33-2.9-8.49-7.22-8.49-4.75,0-7.27,3.15-7.27,8.49s2.56,8.49,7.27,8.49c4.33,0,7.22-3.15,7.22-8.49Z"/><path class="cls-9" d="m1459.9,4098.54v-13.61h2.94v13.27c0,4.33,2.14,5.71,5.42,5.71,3.74,0,6.55-2.69,6.55-5.63v-13.36h2.94v21h-2.6l-.25-3.36h-.08c-.97,2.02-3.23,3.91-7.23,3.91-4.66,0-7.69-2.52-7.69-7.94Z"/><path class="cls-9" d="m1487.92,4102.45h-.08l-.76,3.49h-1.97v-32.77h2.94v15.25h.04c1.26-2.31,4.07-4.03,7.69-4.03,6.3,0,9.66,3.99,9.66,11.01s-4.29,11.09-9.87,11.09c-3.78,0-6.55-1.64-7.64-4.03Zm14.37-6.89c0-7.18-3.4-8.61-6.93-8.61-4.24,0-7.56,2.73-7.56,8.44,0,6.01,3.45,8.57,7.44,8.57,3.03,0,7.06-1.47,7.06-8.4Z"/><path class="cls-9" d="m1510.68,4073.17h2.94v32.77h-2.94v-32.77Z"/><path class="cls-9" d="m1538.24,4096.44h-15.96c.17,4.79,2.48,7.48,6.93,7.48,3.82,0,5.67-1.43,5.96-4.83h2.98c-.29,4.24-3.28,7.39-9.03,7.39-7.06,0-9.83-4.66-9.83-10.88s3.23-11.22,10-11.22,8.95,3.99,8.95,10.21v1.85Zm-3.11-2.98c0-4.45-1.72-6.55-5.92-6.55s-6.55,2.65-6.89,6.97h12.81v-.42Z"/><path class="cls-9" d="m1552.09,4095.43c0-6.22,3.32-11.05,10.38-11.05,6.6,0,10.25,4.83,10.25,11.05s-3.7,11.05-10.29,11.05c-7.27,0-10.33-4.83-10.33-11.05Zm17.56,0c0-5.33-2.9-8.49-7.22-8.49-4.75,0-7.27,3.15-7.27,8.49s2.56,8.49,7.27,8.49c4.33,0,7.22-3.15,7.22-8.49Z"/><path class="cls-9" d="m1578.6,4084.93h2.39l.34,3.87h.08c1.13-2.48,4.03-4.41,7.86-4.41,6.3,0,9.66,3.99,9.66,11.01s-4.29,11.09-9.87,11.09c-3.78,0-6.38-1.6-7.43-3.7h-.09v11.55h-2.94v-29.41Zm17.18,10.63c0-7.18-3.4-8.61-6.93-8.61-4.24,0-7.56,2.73-7.56,8.44,0,6.01,3.45,8.57,7.44,8.57,3.03,0,7.06-1.47,7.06-8.4Z"/><path class="cls-9" d="m1622.07,4096.44h-15.96c.17,4.79,2.48,7.48,6.93,7.48,3.82,0,5.67-1.43,5.97-4.83h2.98c-.29,4.24-3.28,7.39-9.03,7.39-7.06,0-9.83-4.66-9.83-10.88s3.23-11.22,10-11.22,8.95,3.99,8.95,10.21v1.85Zm-3.11-2.98c0-4.45-1.72-6.55-5.92-6.55s-6.55,2.65-6.89,6.97h12.81v-.42Z"/><path class="cls-9" d="m1627.95,4084.93h2.6l.29,3.49c1.01-2.14,3.28-4.03,7.35-4.03,4.75,0,7.77,2.52,7.77,7.94v13.61h-2.94v-13.27c0-4.33-2.14-5.71-5.5-5.71-3.82,0-6.64,2.69-6.64,5.63v13.36h-2.94v-21Z"/><path class="cls-9" d="m1662.97,4073.17h2.94v23.23l12.14-11.47h3.65v.04l-8.4,7.86,8.78,13.06v.04h-3.36l-7.39-11.22-5.42,5.04v6.17h-2.94v-32.77Z"/><path class="cls-9" d="m1687.12,4084.93h2.6l.29,3.49c1.01-2.14,3.28-4.03,7.35-4.03,4.75,0,7.77,2.52,7.77,7.94v13.61h-2.94v-13.27c0-4.33-2.14-5.71-5.5-5.71-3.82,0-6.64,2.69-6.64,5.63v13.36h-2.94v-21Z"/><path class="cls-9" d="m1710.81,4095.43c0-6.22,3.32-11.05,10.38-11.05,6.59,0,10.25,4.83,10.25,11.05s-3.7,11.05-10.29,11.05c-7.27,0-10.33-4.83-10.33-11.05Zm17.56,0c0-5.33-2.9-8.49-7.22-8.49-4.75,0-7.27,3.15-7.27,8.49s2.56,8.49,7.27,8.49c4.33,0,7.22-3.15,7.22-8.49Z"/><path class="cls-9" d="m1748.28,4103.24v2.6c-.76.21-2.14.59-4.03.59-3.82,0-6.34-1.6-6.34-6.89v-12.18h-4.16v-2.44h4.16v-6.05l2.94-1.43v7.48h5.92v2.44h-5.92v11.8c0,2.81.76,4.58,3.4,4.58,1.6,0,3.23-.29,4.03-.5Z"/><path class="cls-9" d="m1751.21,4099.5v-1.18h2.94v1.13c0,2.86,2.14,4.5,5.96,4.5s5.8-1.01,5.8-3.78c0-2.06-1.01-2.81-3.87-3.32l-4.62-.84c-3.02-.55-5.54-2.02-5.54-5.5,0-3.15,2.35-6.13,8.4-6.13s8.4,3.02,8.4,7.23v.88h-2.98v-.76c0-3.44-2.14-4.92-5.42-4.92-3.95,0-5.34,1.34-5.34,3.36s1.01,2.86,3.91,3.4l4.03.76c4.12.76,6.09,1.93,6.09,5.59,0,4.58-4.12,6.55-8.78,6.55-7.31,0-8.99-3.28-8.99-6.97Z"/><line class="cls-3" x1="1401.55" y1="3767.84" x2="1401.55" y2="3768.72"/><line class="cls-5" x1="1401.55" y1="3785.66" x2="1401.55" y2="4038.14"/><line class="cls-3" x1="1401.55" y1="4046.62" x2="1401.55" y2="4047.49"/><g class="cls-8"><path class="cls-10" d="m1552.79,2680.25c0-25.2,25.9-37.8,51.8-37.8,13.3,0,28,3.5,38.5,7.7.7-3.5.7-5.6.7-7.7,0-25.2-26.6-43.4-56-60.9-14-8.4-28.7-18.2-41.3-29.4-6.3,5.6-11.9,9.8-23.8,18.2-2.1,1.4-4.2,2.1-7,2.1-8.4,0-11.9-6.3-11.9-12.6,0-3.5,2.1-8.4,6.3-10.5,5.6-3.5,11.9-7.7,21-14.7-8.4-10.5-13.3-21.7-13.3-32.9,0-17.5,11.9-36.4,33.6-36.4s34.3,15.4,34.3,35c0,14.7-9.8,27.3-20.3,37.8,10.5,9.1,23.1,18.2,37.1,26.6,32.2,19.6,65.8,42,65.8,77,0,2.8,0,5.6-.7,9.8,14,0,26.6-15.4,37.1-32.2,3.5-4.9,7-5.6,9.8-5.6,6.3,0,12.6,4.9,12.6,12.6,0,.7,0,3.5-2.1,6.3-21.7,35-42,43.4-62.3,43.4-9.8,21-28,39.2-63,39.2-18.9,0-46.9-8.4-46.9-35Zm8.4-179.9c0-7-3.5-11.2-9.8-11.2-4.2,0-9.1,4.2-9.1,12.6,0,6.3,2.8,12.6,7,18.9,7.7-7,11.9-14,11.9-20.3Zm76.3,172.2c-7.7-4.2-21.7-7-32.9-7-15.4,0-27.3,4.9-27.3,14.7,0,7.7,9.1,11.9,23.1,11.9s27.3-4.2,37.1-19.6Z"/></g><g class="cls-12"><path class="cls-10" d="m1552.79,2680.25c0-25.2,25.9-37.8,51.8-37.8,13.3,0,28,3.5,38.5,7.7.7-3.5.7-5.6.7-7.7,0-25.2-26.6-43.4-56-60.9-14-8.4-28.7-18.2-41.3-29.4-6.3,5.6-11.9,9.8-23.8,18.2-2.1,1.4-4.2,2.1-7,2.1-8.4,0-11.9-6.3-11.9-12.6,0-3.5,2.1-8.4,6.3-10.5,5.6-3.5,11.9-7.7,21-14.7-8.4-10.5-13.3-21.7-13.3-32.9,0-17.5,11.9-36.4,33.6-36.4s34.3,15.4,34.3,35c0,14.7-9.8,27.3-20.3,37.8,10.5,9.1,23.1,18.2,37.1,26.6,32.2,19.6,65.8,42,65.8,77,0,2.8,0,5.6-.7,9.8,14,0,26.6-15.4,37.1-32.2,3.5-4.9,7-5.6,9.8-5.6,6.3,0,12.6,4.9,12.6,12.6,0,.7,0,3.5-2.1,6.3-21.7,35-42,43.4-62.3,43.4-9.8,21-28,39.2-63,39.2-18.9,0-46.9-8.4-46.9-35Zm8.4-179.9c0-7-3.5-11.2-9.8-11.2-4.2,0-9.1,4.2-9.1,12.6,0,6.3,2.8,12.6,7,18.9,7.7-7,11.9-14,11.9-20.3Zm76.3,172.2c-7.7-4.2-21.7-7-32.9-7-15.4,0-27.3,4.9-27.3,14.7,0,7.7,9.1,11.9,23.1,11.9s27.3-4.2,37.1-19.6Z"/></g><path class="cls-9" d="m1470.8,3044.07h-11.51v-2.6h25.96v2.6h-11.51v30.16h-2.94v-30.16Z"/><path class="cls-9" d="m1483.56,3053.26v-.04h2.98l5.76,17.48h.08l6.3-17.48h2.69l6.18,17.48h.08l5.75-17.48h2.86v.04l-7.18,20.96h-3.02l-5.96-17.05h-.08l-6.22,17.05h-3.02l-7.18-20.96Z"/><path class="cls-9" d="m1518.55,3063.72c0-6.22,3.32-11.05,10.38-11.05,6.6,0,10.25,4.83,10.25,11.05s-3.7,11.05-10.29,11.05c-7.27,0-10.33-4.83-10.33-11.05Zm17.56,0c0-5.33-2.9-8.49-7.22-8.49-4.75,0-7.27,3.15-7.27,8.49s2.56,8.49,7.27,8.49c4.33,0,7.22-3.15,7.22-8.49Z"/><path class="cls-9" d="m1553.03,3063.72c0-6.22,3.32-11.05,10.38-11.05,6.6,0,10.25,4.83,10.25,11.05s-3.7,11.05-10.29,11.05c-7.27,0-10.33-4.83-10.33-11.05Zm17.56,0c0-5.33-2.9-8.49-7.22-8.49-4.75,0-7.27,3.15-7.27,8.49s2.56,8.49,7.27,8.49c4.33,0,7.22-3.15,7.22-8.49Z"/><path class="cls-9" d="m1579.53,3053.22h2.39l.34,3.87h.08c1.13-2.48,4.03-4.41,7.86-4.41,6.3,0,9.66,3.99,9.66,11.01s-4.29,11.09-9.87,11.09c-3.78,0-6.38-1.6-7.44-3.7h-.08v11.55h-2.94v-29.41Zm17.18,10.63c0-7.18-3.4-8.61-6.93-8.61-4.24,0-7.56,2.73-7.56,8.44,0,6.01,3.45,8.57,7.44,8.57,3.02,0,7.06-1.47,7.06-8.4Z"/><path class="cls-9" d="m1623.01,3064.73h-15.96c.17,4.79,2.48,7.48,6.93,7.48,3.82,0,5.67-1.43,5.97-4.83h2.98c-.29,4.24-3.28,7.39-9.03,7.39-7.06,0-9.83-4.66-9.83-10.88s3.23-11.22,10-11.22,8.95,3.99,8.95,10.21v1.85Zm-3.11-2.98c0-4.45-1.72-6.55-5.92-6.55s-6.55,2.65-6.89,6.97h12.81v-.42Z"/><path class="cls-9" d="m1628.88,3053.22h2.6l.29,3.49c1.01-2.14,3.28-4.03,7.35-4.03,4.75,0,7.77,2.52,7.77,7.94v13.61h-2.94v-13.27c0-4.33-2.14-5.71-5.5-5.71-3.82,0-6.64,2.69-6.64,5.63v13.36h-2.94v-21Z"/><path class="cls-9" d="m1663.91,3041.46h2.94v23.23l12.14-11.47h3.65v.04l-8.4,7.86,8.78,13.06v.04h-3.36l-7.39-11.22-5.42,5.04v6.17h-2.94v-32.77Z"/><path class="cls-9" d="m1688.06,3053.22h2.6l.29,3.49c1.01-2.14,3.28-4.03,7.35-4.03,4.75,0,7.77,2.52,7.77,7.94v13.61h-2.94v-13.27c0-4.33-2.14-5.71-5.5-5.71-3.82,0-6.64,2.69-6.64,5.63v13.36h-2.94v-21Z"/><path class="cls-9" d="m1711.75,3063.72c0-6.22,3.32-11.05,10.38-11.05,6.59,0,10.25,4.83,10.25,11.05s-3.7,11.05-10.29,11.05c-7.27,0-10.33-4.83-10.33-11.05Zm17.56,0c0-5.33-2.9-8.49-7.22-8.49-4.75,0-7.27,3.15-7.27,8.49s2.56,8.49,7.27,8.49c4.33,0,7.22-3.15,7.22-8.49Z"/><path class="cls-9" d="m1749.22,3071.54v2.6c-.76.21-2.14.59-4.03.59-3.82,0-6.34-1.6-6.34-6.89v-12.18h-4.16v-2.44h4.16v-6.05l2.94-1.43v7.48h5.92v2.44h-5.92v11.8c0,2.81.76,4.58,3.4,4.58,1.6,0,3.23-.29,4.03-.5Z"/><path class="cls-9" d="m1752.15,3067.8v-1.18h2.94v1.13c0,2.86,2.14,4.5,5.96,4.5s5.8-1.01,5.8-3.78c0-2.06-1.01-2.81-3.86-3.32l-4.62-.84c-3.03-.55-5.54-2.02-5.54-5.5,0-3.15,2.35-6.13,8.4-6.13s8.4,3.02,8.4,7.23v.88h-2.98v-.76c0-3.44-2.14-4.92-5.42-4.92-3.95,0-5.33,1.34-5.33,3.36s1.01,2.86,3.91,3.4l4.03.76c4.12.76,6.09,1.93,6.09,5.59,0,4.58-4.12,6.55-8.78,6.55-7.31,0-8.99-3.28-8.99-6.97Z"/><path class="cls-9" d="m1573.78,3090.31h2.98v6.51h-2.98v-6.51Zm0,11.76h2.94v21h-2.94v-21Z"/><path class="cls-9" d="m1584.11,3102.07h2.61l.29,3.49c1.01-2.14,3.28-4.03,7.35-4.03,4.75,0,7.77,2.52,7.77,7.94v13.61h-2.94v-13.27c0-4.33-2.14-5.71-5.5-5.71-3.82,0-6.64,2.69-6.64,5.63v13.36h-2.94v-21Z"/><path class="cls-9" d="m1620.82,3100.77h-3.36v-5.08c0-3.95.88-5.29,3.4-5.97l.67,1.85c-1.76.67-2.06,1.09-2.06,3.78v.34h1.34v5.08Zm5.92,0h-3.36v-5.08c0-3.95.88-5.29,3.4-5.97l.67,1.85c-1.77.67-2.06,1.09-2.06,3.78v.34h1.34v5.08Z"/><path class="cls-9" d="m1628.72,3116.65v-1.18h2.94v1.13c0,2.86,2.14,4.5,5.96,4.5s5.8-1.01,5.8-3.78c0-2.06-1.01-2.81-3.86-3.32l-4.62-.84c-3.03-.55-5.54-2.02-5.54-5.5,0-3.15,2.35-6.13,8.4-6.13s8.4,3.02,8.4,7.22v.88h-2.98v-.76c0-3.44-2.14-4.91-5.42-4.91-3.95,0-5.33,1.34-5.33,3.36s1.01,2.86,3.91,3.4l4.03.76c4.12.76,6.09,1.93,6.09,5.59,0,4.58-4.12,6.55-8.78,6.55-7.31,0-8.99-3.28-8.99-6.97Z"/><path class="cls-9" d="m1648.79,3099.51c1.76-.67,2.06-1.09,2.06-3.78v-.34h-1.34v-5.08h3.36v5.08c0,3.95-.88,5.29-3.4,5.97l-.67-1.85Zm5.92,0c1.77-.67,2.06-1.09,2.06-3.78v-.34h-1.34v-5.08h3.36v5.08c0,3.95-.88,5.29-3.4,5.97l-.67-1.85Z"/><line class="cls-3" x1="1608.52" y1="2766.14" x2="1608.52" y2="2767.01"/><line class="cls-4" x1="1608.52" y1="2784.47" x2="1608.52" y2="3006.18"/><line class="cls-3" x1="1608.52" y1="3014.91" x2="1608.52" y2="3015.78"/></g></svg>