<?xml version="1.0" encoding="UTF-8"?><svg xmlns="http://www.w3.org/2000/svg" xmlns:xlink="http://www.w3.org/1999/xlink" viewBox="0 0 1920 3810"><defs><style>.cls-1,.cls-2,.cls-3,.cls-4,.cls-5,.cls-6,.cls-7,.cls-8{fill:none;}.cls-2{stroke-dasharray:0 0 1.43 14.34;}.cls-2,.cls-3,.cls-4,.cls-5,.cls-6,.cls-7,.cls-8{stroke-miterlimit:10;}.cls-2,.cls-3,.cls-4,.cls-5,.cls-7,.cls-8{stroke:#a797c9;stroke-linecap:round;stroke-width:7px;}.cls-3{stroke-dasharray:0 0 1.73 17.3;}.cls-9{clip-path:url(#clippath);}.cls-10{fill:#fff;}.cls-11{fill:#171c32;}.cls-12{fill:#947fbb;}.cls-5{stroke-dasharray:0 0 1.82 18.16;}.cls-6{stroke:#57678b;stroke-width:3.5px;}.cls-7{stroke-dasharray:0 0 1.69 16.86;}.cls-8{stroke-dasharray:0 0 1.82 18.16;}</style><clipPath id="clippath"><circle class="cls-1" cx="1017.96" cy="1401.47" r="60.04"/></clipPath></defs><g id="Background"><rect class="cls-11" width="1920" height="3810"/></g><g id="Horizontal_Guides"><line class="cls-6" y1="204.72" x2="1920" y2="204.72"/><line class="cls-6" y1="392.48" x2="1920" y2="392.48"/><line class="cls-6" x1="1920" y1="582.63" y2="582.63"/><line class="cls-6" y1="769.86" x2="1920" y2="769.86"/><line class="cls-6" y1="1119.8" x2="1920" y2="1119.8"/><line class="cls-6" y1="1307.57" x2="1920" y2="1307.57"/><line class="cls-6" x1="1920" y1="1497.72" y2="1497.72"/><line class="cls-6" y1="1684.94" x2="1920" y2="1684.94"/><line class="cls-6" y1="2034.76" x2="1920" y2="2034.76"/><line class="cls-6" y1="2222.53" x2="1920" y2="2222.53"/><line class="cls-6" x1="1920" y1="2412.68" y2="2412.68"/><line class="cls-6" y1="2599.91" x2="1920" y2="2599.91"/><line class="cls-6" y1="2949.86" x2="1920" y2="2949.86"/><line class="cls-6" y1="3137.62" x2="1920" y2="3137.62"/><line class="cls-6" x1="1920" y1="3327.77" y2="3327.77"/><line class="cls-6" y1="3515" x2="1920" y2="3515"/></g><g id="Info"><rect class="cls-12" x="1265.34" y="204.13" width="54.23" height="565.14"/><circle class="cls-12" cx="1442.58" cy="3175.94" r="68.84"/><circle class="cls-12" cx="1017.96" cy="1401.58" r="60.04"/><path class="cls-10" d="m279.61,1317.62h-43.13l-84.01,180.35-17.36-7.28,81.77-173.07h-35.29v-18.48h42.57l75.05-159.07h-170.27l-.56-.56v-17.36h190.99v17.92l-74.49,159.07h34.72v18.48Z"/><path class="cls-10" d="m364.04,1480.6c0,7.84-6.16,14.56-14.56,14.56-7.84,0-14.56-6.72-14.56-14.56s6.72-14.56,14.56-14.56c8.4,0,14.56,6.72,14.56,14.56Z"/><path class="cls-10" d="m721.22,1392.11c0,57.13-45.37,103.06-101.94,103.06h-109.78l.56-373.58h104.74c51.53,0,93.53,42.01,93.53,93.53,0,35.29-19.6,66.65-48.73,82.89,36.41,15.68,61.61,52.09,61.61,94.09Zm-105.86-102.5c41.45,0,74.49-33.05,74.49-74.49s-33.05-74.49-74.49-74.49h-86.81v148.98h86.81Zm-86.81,19.04v168.03h90.17c45.93,0,84.01-38.09,84.01-84.57s-38.09-83.45-84.01-83.45h-90.17Z"/><path class="cls-10" d="m766.02,1367.46l-11.2,20.72-16.24-9.52c23.52-42.01,26.32-44.81,28-70.01h17.92v114.26c0,20.72,5.6,31.92,12.88,40.33,8.4,9.52,18.48,14,30.24,14,17.92,0,35.85-12.88,53.77-40.89,8.4-12.32,14.56-27.44,14.56-41.44v-86.26h19.04v140.02c0,7.84,1.68,16.24,6.72,22.96,3.36,4.48,6.16,6.72,12.88,6.72,10.64,0,19.04-4.48,25.2-15.12l48.17-84.57,16.24,9.52-48.17,84.01c-2.8,6.16-14.56,24.09-41.45,24.09s-39.2-31.37-37.52-49.85c-13.44,21.28-36.41,49.29-69.45,49.29-29.68,0-61.61-24.64-61.61-71.13v-57.13Z"/><path class="cls-10" d="m1084.7,1477.8c20.16,0,42.57-10.64,63.29-25.76,21.84-15.68,39.77-34.72,50.41-50.41l15.68-22.96,16.24,9.52c-5.6,7.84-11.2,16.24-16.8,24.08-21.28,29.13-77.29,84.02-128.82,84.02s-81.78-40.89-81.78-89.05,35.85-100.26,80.65-100.26c47.61,0,67.77,20.17,67.77,52.09-.56,50.97-58.25,60.49-101.38,52.09-10.08-1.68-19.04-3.92-28-5.6-.56,42.01,23.52,72.25,62.73,72.25Zm-29.68-85.13c45.37,7.28,76.73-3.92,77.85-33.61.56-20.16-10.08-34.17-49.29-33.05-24.64,1.12-53.77,33.61-60.49,61.61,9.52,1.12,20.16,3.36,31.92,5.04Z"/><path class="cls-10" d="m1429.72,1378.66c0-18.48-5.04-29.68-12.88-38.09-8.4-9.52-17.93-14-29.68-14-17.93,0-36.41,12.32-54.33,40.33-7.84,12.88-12.88,28-14.56,41.44v86.81h-18.48v-140.02c1.68-19.04-7.28-29.68-16.24-29.68-14.56,0-16.24,2.24-25.76,14.56l-27.44,48.17-16.24-9.52,29.13-50.41c10.64-13.44,19.04-21.28,40.33-21.28,22.4,0,36.96,22.96,33.61,50.41,14-21.84,36.96-49.85,70.01-49.85,29.68,0,61.61,25.2,61.61,71.13v73.37c0,6.72,5.04,26.33,19.61,26.33,11.2,0,19.6-5.04,25.76-15.68l48.17-84.02,16.24,9.52-48.17,84.01c-3.36,5.6-15.12,24.65-42.01,24.65s-38.65-30.24-38.65-44.81v-73.37Z"/><path class="cls-10" d="m1619.58,1496.28c-49.29,0-80.65-37.53-80.65-90.18s38.09-99.14,87.37-99.14c5.6,0,11.2.56,16.8,1.68l-3.92,18.48c-3.92-1.12-8.4-1.68-12.88-1.68-39.21,0-68.89,36.96-68.89,80.65,0,48.17,28,71.69,62.17,71.69,22.41,0,39.21-11.76,50.41-25.2,10.08-12.88,15.12-27.44,16.8-41.45-31.37-18.48-50.97-74.49-34.72-89.61,16.24-15.68,56.57,23.52,54.33,78.41,29.68,13.44,65.53,2.24,78.97-21.28l16.24,9.52c-22.97,39.21-73.93,41.45-97.46,30.24-8.4,43.13-41.44,77.85-84.57,77.85Zm45.93-157.95c-7.84,5.6,10.64,41.45,23.52,52.09-.56-23.52-19.04-55.45-23.52-52.09Z"/><path class="cls-12" d="m380.04,2225.01h-66.65v186.51h-19.04l.56-373.58h104.74c51.53,0,93.53,42.01,93.53,93.53s-42.01,93.53-93.53,93.53l95.77,180.91-16.24,8.96-99.14-189.87Zm20.16-168.03h-86.81v148.98h86.81c41.45,0,74.49-33.05,74.49-74.49s-33.05-74.49-74.49-74.49Z"/><path class="cls-10" d="m678.57,2241.26v127.7c0,7.84,4.48,25.76,19.6,25.76,10.64,0,19.6-4.48,25.76-15.12l48.17-84.57,16.24,9.52-48.17,84.01c-3.36,6.16-15.12,24.65-42.01,24.65s-38.65-29.68-38.09-44.25c-17.92,25.76-47.61,44.25-76.73,44.25-43.69,0-76.73-36.41-76.73-83.45,0-60.49,48.73-106.98,95.22-106.98,25.2,0,44.81,9.52,58.25,28v-9.52h18.48Zm-152.9,86.25c0,40.33,24.08,67.21,55.45,67.21,35.28,0,78.97-33.61,78.97-76.73,0-49.85-21.28-77.29-58.81-77.29-33.61,0-75.61,36.41-75.61,86.81Z"/><path class="cls-12" d="m949.64,2213.81l13.44,11.76-123.78,159.07c21.28-7.28,35.85-1.12,54.89,4.48,17.92,5.6,21.84,6.16,28.57,6.16,35.85,0,70.01-22.96,85.69-49.85l29.68-50.41,15.68,9.52-29.68,50.97c-17.92,30.8-58.25,58.25-101.38,58.25-36.41,0-65.53-29.68-105.86,1.12l-16.24-12.32,123.78-157.94c-9.52,1.68-21.28,2.24-38.09,2.24-15.12,0-37.52-3.36-61.05-12.32-2.8,13.44-24.08,47.05-36.97,70.01l-16.24-9.52c22.4-38.65,38.65-64.41,44.81-84.57,21.28,11.2,48.17,17.92,69.45,17.92,26.33,0,39.77,1.12,61.61-13.44l1.68-1.12Z"/><path class="cls-10" d="m1115.42,2412.65c-49.29,0-80.65-37.53-80.65-90.18s38.09-99.14,87.37-99.14c5.6,0,11.2.56,16.8,1.68l-3.92,18.48c-3.92-1.12-8.4-1.68-12.88-1.68-39.21,0-68.89,36.96-68.89,80.65,0,48.17,28,71.69,62.17,71.69,22.4,0,39.2-11.76,50.41-25.2,10.08-12.88,15.12-27.44,16.8-41.45-31.37-18.48-50.97-74.49-34.73-89.61,16.24-15.68,56.57,23.52,54.33,78.41,29.68,13.44,65.53,2.24,78.97-21.28l16.24,9.52c-22.96,39.21-73.93,41.45-97.46,30.24-8.4,43.13-41.45,77.85-84.57,77.85Zm-15.12-210.03l-9.52-15.68,91.86-55.45,9.52,15.68-91.85,55.45Zm61.05,52.09c-7.84,5.6,10.64,41.45,23.52,52.09-.56-23.52-19.04-55.45-23.52-52.09Z"/><path class="cls-10" d="m1496.83,2295.02c0-18.48-5.04-29.68-12.88-38.09-8.4-9.52-17.92-14-29.68-14-17.92,0-36.41,12.32-54.33,40.33-7.84,12.88-12.88,28-14.56,41.44v86.81h-18.48v-140.02c1.68-19.04-7.28-29.68-16.24-29.68-14.56,0-16.24,2.24-25.76,14.56l-27.44,48.17-16.24-9.52,29.13-50.41c10.64-13.44,19.04-21.28,40.33-21.28,22.4,0,36.96,22.96,33.61,50.41,14-21.84,36.96-49.85,70.01-49.85,29.68,0,61.61,25.2,61.61,71.13v73.37c0,6.72,5.04,26.33,19.6,26.33,11.2,0,19.6-5.04,25.76-15.68l48.17-84.02,16.24,9.52-48.16,84.01c-3.36,5.6-15.12,24.65-42.01,24.65s-38.65-30.24-38.65-44.81v-73.37Z"/><path class="cls-12" d="m340.84,2951.83h56.01v19.04h-18.48v336.06h19.04v18.48h-56.57v-18.48h19.04v-336.06h-19.04v-19.04Z"/><path class="cls-10" d="m450.6,3269.96c10.64,23.52,28.56,38.65,48.17,38.65,34.73,0,57.69-34.73,57.69-72.82,0-28-6.72-38.65-32.48-62.17-13.44-11.76-24.08-22.4-33.61-34.73l-45.37,79.53-16.24-9.52,51.53-89.05h20.16c29.13,47.04,74.49,52.65,74.49,115.94,0,21.84-6.16,42.01-16.8,57.69,7.84-3.36,15.68-7.28,23.52-12.32,24.64-15.68,47.61-37.53,67.21-72.25l15.68,9.52c-34.72,61.61-88.49,96.9-149.54,106.98-3.36.56-10.64,1.68-14.56,1.68-29.13,0-54.33-19.6-66.09-48.73l16.24-8.4Z"/><path class="cls-10" d="m737.36,3293.48l48.17-84.57,16.24,9.52-48.17,84.02c-3.36,6.16-15.12,24.64-42.01,24.64s-38.09-29.68-38.09-44.25l-.56-78.97-7.84,14.56-16.24-9.52,23.52-40.89v-150.67c0-42.01,22.4-67.21,42.01-67.21s35.85,26.32,35.85,62.73c0,60.49-29.68,110.9-58.25,158.51v111.46c0,14.56,10.08,25.77,19.6,25.77,10.64,0,19.6-4.48,25.76-15.13Zm-45.93-157.94c29.68-52.65,40.33-85.69,40.33-122.66,0-29.68-12.32-44.24-17.36-44.24-7.28,0-22.96,16.24-22.96,48.72v118.18Z"/><path class="cls-10" d="m862.26,3308.04c20.16,0,42.57-10.64,63.29-25.76,21.84-15.68,39.77-34.73,50.41-50.41l15.68-22.96,16.24,9.52c-5.6,7.84-11.2,16.24-16.8,24.09-21.28,29.12-77.29,84.01-128.82,84.01s-81.78-40.88-81.78-89.05,35.85-100.25,80.65-100.25c47.61,0,67.77,20.16,67.77,52.09-.56,50.97-58.25,60.49-101.38,52.09-10.08-1.68-19.04-3.92-28-5.6-.56,42.01,23.52,72.25,62.73,72.25Zm-29.68-85.13c45.37,7.28,76.73-3.92,77.85-33.61.56-20.16-10.08-34.17-49.29-33.05-24.64,1.12-53.77,33.61-60.49,61.61,9.52,1.12,20.16,3.36,31.92,5.04Z"/><path class="cls-10" d="m1207.27,3208.91c0-18.49-5.04-29.68-12.88-38.09-8.4-9.52-17.92-14-29.68-14-17.92,0-36.41,12.32-54.33,40.33-7.84,12.88-12.88,28-14.56,41.44v86.82h-18.48v-140.02c1.68-19.04-7.28-29.68-16.24-29.68-14.56,0-16.24,2.24-25.76,14.56l-27.44,48.17-16.24-9.52,29.13-50.41c10.64-13.45,19.04-21.28,40.33-21.28,22.4,0,36.96,22.96,33.61,50.4,14-21.84,36.96-49.85,70.01-49.85,29.68,0,61.61,25.2,61.61,71.13v73.37c0,6.72,5.04,26.32,19.6,26.32,11.2,0,19.6-5.04,25.76-15.68l48.17-84.01,16.24,9.52-48.17,84.02c-3.36,5.6-15.12,24.64-42.01,24.64s-38.65-30.25-38.65-44.81v-73.37Zm-120.42-123.78c11.2-5.6,16.8-7.28,35.85-7.28,20.72,0,32.48,10.64,50.41,10.64,13.44,0,22.4-1.68,34.73-7.84l7.28,16.24c-13.44,8.97-35.29,10.65-43.13,10.65-11.76,0-40.33-11.76-49.85-11.76-8.96,0-19.04,1.12-28.57,6.16l-6.72-16.8Z"/><path class="cls-10" d="m1397.14,3326.53c-49.29,0-80.65-37.53-80.65-90.17s38.09-99.13,87.37-99.13c5.6,0,11.2.56,16.8,1.68l-3.92,18.49c-3.92-1.12-8.4-1.68-12.88-1.68-39.21,0-68.89,36.96-68.89,80.65,0,48.17,28,71.69,62.17,71.69,22.4,0,39.2-11.76,50.41-25.2,10.08-12.88,15.12-27.44,16.8-41.44-31.37-18.48-50.97-74.5-34.73-89.62,16.24-15.68,56.57,23.52,54.33,78.41,29.68,13.44,65.53,2.24,78.97-21.28l16.24,9.52c-22.96,39.21-73.93,41.45-97.46,30.25-8.4,43.13-41.45,77.85-84.57,77.85Zm45.93-157.95c-7.84,5.6,10.64,41.45,23.52,52.09-.56-23.52-19.04-55.45-23.52-52.09Z"/><path class="cls-12" d="m379.81,507.68l14.56,11.2c-25.2,39.21-62.73,64.41-103.62,64.41-76.17,0-137.78-85.13-137.78-189.31s61.6-189.31,137.78-189.31c40.89,0,78.41,24.65,103.62,64.41l-14.56,11.2c-21.85-35.29-53.77-57.13-89.06-57.13-66.09,0-118.73,76.73-118.73,170.83s52.65,170.27,118.73,170.27c35.28,0,67.21-21.84,89.06-56.57Z"/><path class="cls-10" d="m585.34,410.23v127.7c0,7.84,4.48,25.77,19.61,25.77,10.64,0,19.61-4.48,25.77-15.12l48.17-84.57,16.24,9.52-48.17,84.02c-3.37,6.16-15.12,24.64-42.01,24.64s-38.65-29.68-38.09-44.25c-17.93,25.77-47.61,44.25-76.74,44.25-43.68,0-76.73-36.4-76.73-83.45,0-60.49,48.73-106.98,95.21-106.98,25.21,0,44.81,9.52,58.25,28v-9.52h18.48Zm-152.9,86.25c0,40.32,24.08,67.21,55.44,67.21,35.29,0,78.98-33.6,78.98-76.73,0-49.85-21.28-77.29-58.81-77.29-33.6,0-75.61,36.41-75.61,86.82Z"/><path class="cls-12" d="m704.61,769.8c-19.61,0-36.41-26.88-36.41-62.73s7.28-67.21,22.96-93.53c9.53-16.24,20.17-29.13,31.93-42.57-3.92-43.69-9.52-73.37-14-123.22l-14.01,25.76-16.24-9.52,28.01-48.17c-2.8-35.85-7.28-83.45-3.92-143.38,2.24-42.01,22.4-67.21,41.44-67.21s36.41,26.32,36.41,62.73c0,58.25-30.25,109.22-54.89,151.78,2.24,59.37,9.52,91.86,14.56,133.87,24.64-25.21,51.52-50.97,72.81-89.62l16.25,9.52c-24.09,44.25-57.69,72.81-86.82,103.62,2.8,31.36,7.84,72.25,3.92,124.34-2.8,42.57-22.96,68.33-42.01,68.33Zm20.72-172.51c-6.72,7.84-12.88,16.8-18.48,26.32-17.93,29.69-20.17,56.57-20.17,82.89.56,30.25,12.32,44.25,17.93,44.25,7.28,0,20.72-15.68,23.52-49.29,3.92-42.56,0-76.73-2.8-104.18Zm36.96-329.33c0-29.68-12.32-44.25-17.92-44.25-7.28,0-20.17,16.24-22.96,48.73-3.37,44.25-.56,84.57,2.24,114.26,27.44-50.41,39.2-82.9,38.64-118.74Z"/><path class="cls-10" d="m889.99,563.13c20.16,0,42.56-10.64,63.29-25.76,21.84-15.68,39.77-34.73,50.41-50.41l15.68-22.97,16.25,9.52c-5.61,7.84-11.2,16.24-16.8,24.09-21.28,29.12-77.3,84.01-128.82,84.01s-81.78-40.89-81.78-89.06,35.85-100.26,80.65-100.26c47.61,0,67.77,20.16,67.77,52.09-.56,50.97-58.25,60.49-101.38,52.09-10.08-1.68-19.04-3.92-28.01-5.6-.55,42.01,23.52,72.25,62.74,72.25Zm-29.69-85.13c45.36,7.28,76.73-3.92,77.85-33.6.55-20.16-10.08-34.16-49.29-33.05-24.64,1.12-53.76,33.61-60.49,61.61,9.52,1.12,20.16,3.36,31.93,5.04Z"/><path class="cls-10" d="m1035.58,473.52l-16.24-9.52,12.32-21.28c13.44-22.97,14.56-28.56,15.69-48.73h17.92v138.9c0,16.8,8.4,28.56,21.28,31.36,17.36,0,24.09-11.2,34.17-28.56l42.01-71.69,16.24,9.52-44.8,75.61c-13.44,22.4-26.89,33.04-43.13,33.04-12.88,0-23.52-4.48-31.36-13.44-8.4-9.52-12.88-24.64-12.88-36.97v-78.97l-11.2,20.72Zm10.64-101.94l-9.52-15.68,91.85-55.45,9.53,15.68-91.86,55.45Z"/><path class="cls-10" d="m1378.34,463.99c0-18.48-5.04-29.68-12.88-38.08-8.4-9.52-17.93-14-29.69-14-17.93,0-36.41,12.32-54.33,40.33-7.85,12.88-12.88,28-14.56,41.44v86.82h-18.49v-140.02c1.69-19.04-7.28-29.69-16.24-29.69-14.56,0-16.24,2.24-25.77,14.56l-27.44,48.17-16.24-9.52,29.12-50.41c10.64-13.44,19.04-21.28,40.33-21.28,22.4,0,36.97,22.97,33.6,50.41,14-21.85,36.97-49.85,70.01-49.85,29.69,0,61.61,25.2,61.61,71.13v73.37c0,6.72,5.04,26.32,19.6,26.32,11.2,0,19.61-5.04,25.77-15.68l48.17-84.02,16.25,9.52-48.17,84.02c-3.36,5.6-15.12,24.64-42.01,24.64s-38.64-30.24-38.64-44.81v-73.37Z"/><path class="cls-10" d="m1657.24,410.23v127.7c0,7.84,4.48,25.77,19.61,25.77,10.64,0,19.61-4.48,25.77-15.12l48.17-84.57,16.24,9.52-48.17,84.02c-3.37,6.16-15.12,24.64-42.01,24.64s-38.65-29.68-38.09-44.25c-17.93,25.77-47.61,44.25-76.74,44.25-43.68,0-76.73-36.4-76.73-83.45,0-60.49,48.73-106.98,95.22-106.98,25.2,0,44.8,9.52,58.25,28v-9.52h18.48Zm-152.9,86.25c0,40.32,24.08,67.21,55.44,67.21,35.29,0,78.98-33.6,78.98-76.73,0-49.85-21.28-77.29-58.81-77.29-33.6,0-75.61,36.41-75.61,86.82Z"/><path class="cls-10" d="m755.44,2671.42h2.94v32.77h-2.94v-32.77Z"/><path class="cls-10" d="m777.95,2701.49v2.6c-.76.21-2.14.59-4.03.59-3.82,0-6.34-1.6-6.34-6.89v-12.18h-4.16v-2.44h4.16v-6.05l2.94-1.43v7.48h5.92v2.44h-5.92v11.8c0,2.81.76,4.58,3.4,4.58,1.6,0,3.23-.29,4.03-.5Z"/><path class="cls-10" d="m781.52,2698.38c0-3.95,2.23-6.09,7.86-6.09h6.34v-1.72c0-2.98-1.26-5.42-5.46-5.42-3.95,0-5.33,1.51-5.33,4.12v.88h-2.98v-.84c0-5,4.2-6.68,8.32-6.68,5.8,0,8.4,2.86,8.4,8.44v13.11h-2.06l-.55-2.98h-.08c-1.26,1.89-3.7,3.53-7.35,3.53-4.92,0-7.1-2.31-7.1-6.34Zm14.2-1.85v-1.76h-7.01c-2.65,0-4.03.92-4.03,3.61,0,2.35,1.26,3.86,4.5,3.86,4.16,0,6.55-2.14,6.55-5.71Z"/><path class="cls-10" d="m806.01,2671.42h2.94v32.77h-2.94v-32.77Z"/><path class="cls-10" d="m816.3,2671.42h2.98v6.51h-2.98v-6.51Zm0,11.76h2.94v21h-2.94v-21Z"/><path class="cls-10" d="m824.95,2693.85c0-6.38,3.23-11.22,10-11.22s8.95,3.91,8.95,8.95v.42h-3.11v-.63c0-3.82-1.64-6.09-5.84-6.09-4.75,0-7.02,3.11-7.02,8.4,0,5.63,2.39,8.49,6.93,8.49,3.82,0,5.84-1.85,5.92-5.67h3.02c-.08,4.66-3.15,8.23-9.03,8.23-7.22,0-9.83-4.75-9.83-10.88Z"/><path class="cls-10" d="m857.54,2697.75v-1.18h2.94v1.13c0,2.86,2.14,4.5,5.96,4.5s5.8-1.01,5.8-3.78c0-2.06-1.01-2.81-3.86-3.32l-4.62-.84c-3.02-.55-5.54-2.02-5.54-5.5,0-3.15,2.35-6.13,8.4-6.13s8.4,3.02,8.4,7.22v.88h-2.98v-.76c0-3.45-2.14-4.92-5.42-4.92-3.95,0-5.33,1.34-5.33,3.36s1.01,2.86,3.91,3.4l4.03.76c4.12.76,6.09,1.93,6.09,5.59,0,4.58-4.12,6.55-8.78,6.55-7.31,0-8.99-3.28-8.99-6.97Z"/><path class="cls-10" d="m892.15,2701.49v2.6c-.76.21-2.14.59-4.03.59-3.82,0-6.34-1.6-6.34-6.89v-12.18h-4.16v-2.44h4.16v-6.05l2.94-1.43v7.48h5.92v2.44h-5.92v11.8c0,2.81.76,4.58,3.4,4.58,1.6,0,3.23-.29,4.03-.5Z"/><path class="cls-10" d="m897.19,2683.18l6.89,17.98h.08l7.14-17.98h3.07v.04l-8.86,20.84-3.11,8.53h-2.98v-.04l3.19-8.36-8.78-20.96v-.04h3.36Z"/><path class="cls-10" d="m918.57,2671.42h2.94v32.77h-2.94v-32.77Z"/><path class="cls-10" d="m946.12,2694.69h-15.96c.17,4.79,2.48,7.48,6.93,7.48,3.82,0,5.67-1.43,5.97-4.83h2.98c-.29,4.24-3.28,7.39-9.03,7.39-7.06,0-9.83-4.66-9.83-10.88s3.23-11.22,10-11.22,8.95,3.99,8.95,10.21v1.85Zm-3.11-2.98c0-4.45-1.72-6.55-5.92-6.55s-6.55,2.65-6.89,6.97h12.81v-.42Z"/><path class="cls-10" d="m963.34,2681.88h-3.36v-5.08c0-3.95.88-5.29,3.4-5.97l.67,1.85c-1.76.67-2.06,1.09-2.06,3.78v.34h1.34v5.08Zm5.92,0h-3.36v-5.08c0-3.95.88-5.29,3.4-5.97l.67,1.85c-1.76.67-2.06,1.09-2.06,3.78v.34h1.34v5.08Z"/><path class="cls-10" d="m973.34,2701.62l14.7-15.88h-14.58v-2.56h18.23v2.56l-14.7,15.84h14.66v2.6h-18.31v-2.56Z"/><path class="cls-10" d="m995.05,2680.61c1.76-.67,2.06-1.09,2.06-3.78v-.34h-1.34v-5.08h3.36v5.08c0,3.95-.88,5.29-3.4,5.96l-.67-1.85Zm5.92,0c1.76-.67,2.06-1.09,2.06-3.78v-.34h-1.34v-5.08h3.36v5.08c0,3.95-.88,5.29-3.4,5.96l-.67-1.85Z"/><line class="cls-4" x1="879.09" y1="2426.09" x2="879.09" y2="2426.97"/><line class="cls-8" x1="879.09" y1="2445.12" x2="879.09" y2="2635.79"/><line class="cls-4" x1="879.09" y1="2644.87" x2="879.09" y2="2645.74"/><path class="cls-10" d="m181.48,2681.62h-3.36v-5.08c0-3.95.88-5.29,3.4-5.96l.67,1.85c-1.76.67-2.06,1.09-2.06,3.78v.34h1.34v5.08Zm5.92,0h-3.36v-5.08c0-3.95.88-5.29,3.4-5.96l.67,1.85c-1.76.67-2.06,1.09-2.06,3.78v.34h1.34v5.08Z"/><path class="cls-10" d="m194.84,2671.16h8.61c7.94,0,11.64,2.44,11.64,8.86,0,4.58-2.18,7.98-6.76,9.33l7.86,14.53v.04h-3.32l-7.35-14.03c-.67.04-1.34.08-2.1.08h-5.59v13.95h-2.98v-32.77Zm8.74,16.3c6.09,0,8.49-2.81,8.49-7.31,0-4.75-2.6-6.38-8.44-6.38h-5.8v13.69h5.75Z"/><path class="cls-10" d="m219.53,2680.36c1.76-.67,2.06-1.09,2.06-3.78v-.34h-1.34v-5.08h3.36v5.08c0,3.95-.88,5.29-3.4,5.96l-.67-1.85Zm5.92,0c1.76-.67,2.06-1.09,2.06-3.78v-.34h-1.34v-5.08h3.36v5.08c0,3.95-.88,5.29-3.4,5.96l-.67-1.85Z"/><path class="cls-10" d="m242.34,2682.96v-.04h2.98l5.75,17.48h.08l6.3-17.48h2.69l6.17,17.48h.08l5.75-17.48h2.86v.04l-7.18,20.96h-3.02l-5.96-17.05h-.08l-6.22,17.05h-3.02l-7.18-20.96Z"/><path class="cls-10" d="m279.84,2682.92h2.6l.29,3.91c1.01-2.14,3.07-4.45,6.76-4.45,1.26,0,2.18.21,3.02.55v3.15c-1.13-.5-2.1-.76-3.4-.76-3.74,0-6.34,2.81-6.34,5.75v12.85h-2.94v-21Z"/><path class="cls-10" d="m297.15,2671.16h2.98v6.51h-2.98v-6.51Zm0,11.76h2.94v21h-2.94v-21Z"/><path class="cls-10" d="m308.07,2697.54v-12.18h-4.16v-2.44h4.16v-6.05l2.94-1.43v7.48h11.85v-6.05l2.94-1.43v7.48h5.92v2.44h-5.92v11.8c0,2.81.76,4.58,3.4,4.58,1.6,0,3.24-.29,4.03-.5v2.6c-.76.21-2.14.59-4.03.59-3.82,0-6.34-1.6-6.34-6.89v-12.18h-11.85v11.8c0,2.81.76,4.58,3.4,4.58,1.6,0,3.23-.29,4.03-.5v2.6c-.76.21-2.14.59-4.03.59-3.82,0-6.34-1.6-6.34-6.89Z"/><path class="cls-10" d="m354.69,2694.43h-15.96c.17,4.79,2.48,7.48,6.93,7.48,3.82,0,5.67-1.43,5.97-4.83h2.98c-.29,4.24-3.28,7.39-9.03,7.39-7.06,0-9.83-4.66-9.83-10.88s3.23-11.22,10-11.22,8.95,3.99,8.95,10.21v1.85Zm-3.11-2.98c0-4.45-1.72-6.55-5.92-6.55s-6.55,2.65-6.89,6.97h12.81v-.42Z"/><path class="cls-10" d="m360.57,2682.92h2.6l.29,3.49c1.01-2.14,3.28-4.03,7.35-4.03,4.75,0,7.77,2.52,7.77,7.94v13.61h-2.94v-13.27c0-4.33-2.14-5.71-5.5-5.71-3.82,0-6.64,2.69-6.64,5.63v13.36h-2.94v-21Z"/><path class="cls-10" d="m395.18,2696.53v-13.61h2.94v13.27c0,4.33,2.14,5.71,5.42,5.71,3.74,0,6.55-2.69,6.55-5.63v-13.36h2.94v21h-2.6l-.25-3.36h-.08c-.97,2.02-3.23,3.91-7.23,3.91-4.66,0-7.69-2.52-7.69-7.94Z"/><path class="cls-10" d="m418.49,2697.5v-1.18h2.94v1.13c0,2.86,2.14,4.5,5.96,4.5s5.8-1.01,5.8-3.78c0-2.06-1.01-2.81-3.86-3.32l-4.62-.84c-3.02-.55-5.54-2.02-5.54-5.5,0-3.15,2.35-6.13,8.4-6.13s8.4,3.02,8.4,7.23v.88h-2.98v-.76c0-3.44-2.14-4.92-5.42-4.92-3.95,0-5.33,1.34-5.33,3.36s1.01,2.86,3.91,3.4l4.03.76c4.12.76,6.09,1.93,6.09,5.59,0,4.58-4.12,6.55-8.78,6.55-7.31,0-8.99-3.28-8.99-6.97Z"/><path class="cls-10" d="m442.13,2671.16h2.98v6.51h-2.98v-6.51Zm0,11.76h2.94v21h-2.94v-21Z"/><path class="cls-10" d="m452.46,2682.92h2.6l.29,3.49c1.01-2.14,3.28-4.03,7.35-4.03,4.75,0,7.77,2.52,7.77,7.94v13.61h-2.94v-13.27c0-4.33-2.14-5.71-5.5-5.71-3.82,0-6.64,2.69-6.64,5.63v13.36h-2.94v-21Z"/><path class="cls-10" d="m477.2,2705.73v-.13h3.11v.13c0,2.9,1.93,4.33,6.13,4.33,4.79,0,7.01-2.94,7.01-7.86v-2.1h-.08c-1.09,2.18-3.65,4.07-7.48,4.07-6.3,0-9.75-3.99-9.75-10.71,0-7.1,4.37-11.09,9.96-11.09,3.78,0,6.55,1.81,7.56,4.12h.13l.29-3.57h2.31v19.16c0,5.88-2.81,10.71-10.33,10.71-6.3,0-8.86-2.98-8.86-7.06Zm16.59-12.77c0-5.5-3.36-8.07-7.35-8.07-3.03,0-7.14,1.47-7.14,8.4s3.57,8.32,7.1,8.32c4.24,0,7.39-2.73,7.39-8.65Z"/><path class="cls-10" d="m524.37,2701.24v2.6c-.76.21-2.14.59-4.03.59-3.82,0-6.34-1.6-6.34-6.89v-12.18h-4.16v-2.44h4.16v-6.05l2.94-1.43v7.48h5.92v2.44h-5.92v11.8c0,2.81.76,4.58,3.4,4.58,1.6,0,3.23-.29,4.03-.5Z"/><path class="cls-10" d="m529.2,2671.16h2.94v15.17c1.05-2.1,3.28-3.95,7.31-3.95,4.75,0,7.77,2.52,7.77,7.94v13.61h-2.94v-13.27c0-4.33-2.14-5.71-5.5-5.71-3.82,0-6.64,2.69-6.64,5.63v13.36h-2.94v-32.77Z"/><path class="cls-10" d="m554.57,2682.92h2.6l.29,3.91c1.01-2.14,3.07-4.45,6.76-4.45,1.26,0,2.18.21,3.02.55v3.15c-1.13-.5-2.1-.76-3.4-.76-3.74,0-6.34,2.81-6.34,5.75v12.85h-2.94v-21Z"/><path class="cls-10" d="m588.51,2694.43h-15.96c.17,4.79,2.48,7.48,6.93,7.48,3.82,0,5.67-1.43,5.97-4.83h2.98c-.29,4.24-3.28,7.39-9.03,7.39-7.06,0-9.83-4.66-9.83-10.88s3.23-11.22,10-11.22,8.95,3.99,8.95,10.21v1.85Zm-3.11-2.98c0-4.45-1.72-6.55-5.92-6.55s-6.55,2.65-6.89,6.97h12.81v-.42Z"/><path class="cls-10" d="m611.65,2694.43h-15.96c.17,4.79,2.48,7.48,6.93,7.48,3.82,0,5.67-1.43,5.97-4.83h2.98c-.29,4.24-3.28,7.39-9.03,7.39-7.06,0-9.83-4.66-9.83-10.88s3.23-11.22,10-11.22,8.95,3.99,8.95,10.21v1.85Zm-3.11-2.98c0-4.45-1.72-6.55-5.92-6.55s-6.55,2.65-6.89,6.97h12.81v-.42Z"/><path class="cls-10" d="m323.57,2746.35v-1.18h2.94v1.13c0,2.86,2.14,4.5,5.96,4.5s5.8-1.01,5.8-3.78c0-2.06-1.01-2.81-3.86-3.32l-4.62-.84c-3.02-.55-5.54-2.02-5.54-5.5,0-3.15,2.35-6.13,8.4-6.13s8.4,3.02,8.4,7.22v.88h-2.98v-.76c0-3.44-2.14-4.91-5.42-4.91-3.95,0-5.33,1.34-5.33,3.36s1.01,2.86,3.91,3.4l4.03.76c4.12.76,6.09,1.93,6.09,5.59,0,4.58-4.12,6.55-8.78,6.55-7.31,0-8.99-3.28-8.99-6.97Z"/><path class="cls-10" d="m358.18,2750.08v2.6c-.76.21-2.14.59-4.03.59-3.82,0-6.34-1.6-6.34-6.89v-12.18h-4.16v-2.44h4.16v-6.05l2.94-1.43v7.48h5.92v2.44h-5.92v11.8c0,2.81.76,4.58,3.4,4.58,1.6,0,3.23-.29,4.03-.5Z"/><path class="cls-10" d="m363,2731.77h2.6l.29,3.91c1.01-2.14,3.07-4.45,6.76-4.45,1.26,0,2.18.21,3.02.55v3.15c-1.13-.5-2.1-.76-3.4-.76-3.74,0-6.34,2.81-6.34,5.75v12.85h-2.94v-21Z"/><path class="cls-10" d="m378,2742.27c0-6.22,3.32-11.05,10.38-11.05,6.59,0,10.25,4.83,10.25,11.05s-3.7,11.05-10.29,11.05c-7.27,0-10.33-4.83-10.33-11.05Zm17.56,0c0-5.33-2.9-8.49-7.22-8.49-4.75,0-7.27,3.15-7.27,8.49s2.56,8.49,7.27,8.49c4.33,0,7.22-3.15,7.22-8.49Z"/><path class="cls-10" d="m403.87,2720.01h2.94v23.23l12.14-11.47h3.65v.04l-8.4,7.86,8.78,13.06v.04h-3.36l-7.39-11.22-5.42,5.04v6.18h-2.94v-32.77Z"/><path class="cls-10" d="m444.24,2743.28h-15.96c.17,4.79,2.48,7.48,6.93,7.48,3.82,0,5.67-1.43,5.97-4.83h2.98c-.29,4.24-3.28,7.39-9.03,7.39-7.06,0-9.83-4.66-9.83-10.88s3.23-11.22,10-11.22,8.95,3.99,8.95,10.21v1.85Zm-3.11-2.98c0-4.45-1.72-6.55-5.92-6.55s-6.55,2.65-6.89,6.97h12.81v-.42Z"/><path class="cls-10" d="m448.22,2746.35v-1.18h2.94v1.13c0,2.86,2.14,4.5,5.96,4.5s5.8-1.01,5.8-3.78c0-2.06-1.01-2.81-3.86-3.32l-4.62-.84c-3.02-.55-5.54-2.02-5.54-5.5,0-3.15,2.35-6.13,8.4-6.13s8.4,3.02,8.4,7.22v.88h-2.98v-.76c0-3.44-2.14-4.91-5.42-4.91-3.95,0-5.33,1.34-5.33,3.36s1.01,2.86,3.91,3.4l4.03.76c4.12.76,6.09,1.93,6.09,5.59,0,4.58-4.12,6.55-8.78,6.55-7.31,0-8.99-3.28-8.99-6.97Z"/><line class="cls-4" x1="395.1" y1="2425.84" x2="395.1" y2="2426.71"/><line class="cls-8" x1="395.1" y1="2444.87" x2="395.1" y2="2635.53"/><line class="cls-4" x1="395.1" y1="2644.61" x2="395.1" y2="2645.48"/><rect class="cls-12" x="181.6" y="1299.13" width="98.02" height="18.48"/><path class="cls-10" d="m115.91,1780.59v-2.02h3.02v2.18c0,3.74,2.61,6.05,7.94,6.05s8.44-1.97,8.44-6.22c0-3.32-1.38-5.17-4.91-6.09l-6.64-1.72c-4.33-1.13-7.18-2.98-7.18-8.15s3.78-8.91,10.92-8.91,10.59,3.44,10.59,9.07v2.94h-3.03v-2.81c0-4.62-3.07-6.51-7.56-6.51-5.12,0-7.81,2.14-7.81,6.01,0,3.61,1.77,4.71,5.55,5.71l5.75,1.55c5.12,1.39,7.44,3.74,7.44,8.65,0,6.09-4.33,9.24-11.47,9.24-9.12,0-11.05-4.7-11.05-8.99Z"/><path class="cls-10" d="m145.6,1756.27h2.94v15.17c1.05-2.1,3.28-3.95,7.31-3.95,4.75,0,7.77,2.52,7.77,7.94v13.61h-2.94v-13.27c0-4.33-2.14-5.71-5.5-5.71-3.82,0-6.64,2.69-6.64,5.63v13.36h-2.94v-32.77Z"/><path class="cls-10" d="m169.29,1778.53c0-6.22,3.32-11.05,10.38-11.05,6.59,0,10.25,4.83,10.25,11.05s-3.7,11.05-10.29,11.05c-7.27,0-10.33-4.83-10.33-11.05Zm17.56,0c0-5.33-2.9-8.49-7.22-8.49-4.75,0-7.27,3.15-7.27,8.49s2.56,8.49,7.27,8.49c4.33,0,7.22-3.15,7.22-8.49Z"/><path class="cls-10" d="m195.79,1768.03h2.61l.29,3.91c1.01-2.14,3.07-4.45,6.76-4.45,1.26,0,2.19.21,3.03.55v3.15c-1.13-.5-2.1-.76-3.4-.76-3.74,0-6.34,2.81-6.34,5.75v12.85h-2.94v-21Z"/><path class="cls-10" d="m224.06,1786.34v2.6c-.76.21-2.14.59-4.03.59-3.82,0-6.34-1.6-6.34-6.89v-12.18h-4.16v-2.44h4.16v-6.05l2.94-1.43v7.48h5.92v2.44h-5.92v11.8c0,2.81.76,4.58,3.4,4.58,1.6,0,3.23-.29,4.03-.5Z"/><path class="cls-10" d="m241.36,1785.55h-.08l-.76,3.49h-1.97v-32.77h2.94v15.25h.04c1.26-2.31,4.07-4.03,7.69-4.03,6.3,0,9.66,3.99,9.66,11.01s-4.29,11.09-9.87,11.09c-3.78,0-6.55-1.64-7.65-4.03Zm14.37-6.89c0-7.18-3.4-8.61-6.93-8.61-4.24,0-7.56,2.73-7.56,8.44,0,6.01,3.45,8.57,7.44,8.57,3.02,0,7.06-1.47,7.06-8.4Z"/><path class="cls-10" d="m263.29,1783.24c0-3.95,2.23-6.09,7.86-6.09h6.34v-1.72c0-2.98-1.26-5.42-5.46-5.42-3.95,0-5.34,1.51-5.34,4.12v.88h-2.98v-.84c0-5,4.2-6.68,8.32-6.68,5.8,0,8.4,2.86,8.4,8.44v13.11h-2.06l-.55-2.98h-.08c-1.26,1.89-3.7,3.53-7.35,3.53-4.91,0-7.1-2.31-7.1-6.34Zm14.2-1.85v-1.76h-7.02c-2.65,0-4.03.92-4.03,3.61,0,2.35,1.26,3.87,4.5,3.87,4.16,0,6.55-2.14,6.55-5.71Z"/><path class="cls-10" d="m287.77,1768.03h2.61l.29,3.91c1.01-2.14,3.07-4.45,6.76-4.45,1.26,0,2.19.21,3.03.55v3.15c-1.13-.5-2.1-.76-3.4-.76-3.74,0-6.34,2.81-6.34,5.75v12.85h-2.94v-21Z"/><path class="cls-10" d="m314.74,1756.27h2.98v6.51h-2.98v-6.51Zm0,11.76h2.94v21h-2.94v-21Z"/><path class="cls-10" d="m325.07,1768.03h2.6l.29,3.49c1.01-2.14,3.28-4.03,7.35-4.03,4.75,0,7.77,2.52,7.77,7.94v13.61h-2.94v-13.27c0-4.33-2.14-5.71-5.5-5.71-3.82,0-6.64,2.69-6.64,5.63v13.36h-2.94v-21Z"/><path class="cls-10" d="m361.78,1766.73h-3.36v-5.08c0-3.95.88-5.29,3.4-5.96l.67,1.85c-1.76.67-2.06,1.09-2.06,3.78v.34h1.34v5.08Zm5.92,0h-3.36v-5.08c0-3.95.88-5.29,3.4-5.96l.67,1.85c-1.76.67-2.06,1.09-2.06,3.78v.34h1.34v5.08Z"/><path class="cls-10" d="m390.88,1756.27v2.27l-12.18,30.5h-3.32v-.08l12.18-29.95h-16.85v-2.73h20.16Z"/><path class="cls-10" d="m393.86,1765.47c1.76-.67,2.06-1.09,2.06-3.78v-.34h-1.34v-5.08h3.36v5.08c0,3.95-.88,5.29-3.4,5.96l-.67-1.85Zm5.92,0c1.76-.67,2.06-1.09,2.06-3.78v-.34h-1.35v-5.08h3.36v5.08c0,3.95-.88,5.29-3.4,5.96l-.67-1.85Z"/><line class="cls-4" x1="259.83" y1="1330.94" x2="259.83" y2="1331.82"/><line class="cls-3" x1="259.83" y1="1349.12" x2="259.83" y2="1721.07"/><line class="cls-4" x1="259.83" y1="1729.72" x2="259.83" y2="1730.59"/><path class="cls-10" d="m247.01,3593.16h-3.36v-5.08c0-3.95.88-5.29,3.4-5.96l.67,1.85c-1.76.67-2.06,1.09-2.06,3.78v.34h1.34v5.08Zm5.92,0h-3.36v-5.08c0-3.95.88-5.29,3.4-5.96l.67,1.85c-1.76.67-2.06,1.09-2.06,3.78v.34h1.34v5.08Z"/><path class="cls-10" d="m260.36,3582.7h2.94v32.77h-2.94v-32.77Z"/><path class="cls-10" d="m270.02,3591.9c1.76-.67,2.06-1.09,2.06-3.78v-.34h-1.34v-5.08h3.36v5.08c0,3.95-.88,5.29-3.4,5.96l-.67-1.85Zm5.92,0c1.76-.67,2.06-1.09,2.06-3.78v-.34h-1.34v-5.08h3.36v5.08c0,3.95-.88,5.29-3.4,5.96l-.67-1.85Z"/><path class="cls-10" d="m292.83,3594.5v-.04h2.98l5.76,17.48h.08l6.3-17.48h2.69l6.17,17.48h.08l5.75-17.48h2.86v.04l-7.18,20.96h-3.02l-5.96-17.05h-.08l-6.22,17.05h-3.02l-7.18-20.96Z"/><path class="cls-10" d="m330.33,3582.7h2.98v6.51h-2.98v-6.51Zm0,11.76h2.94v21h-2.94v-21Z"/><path class="cls-10" d="m351.63,3612.78v2.6c-.76.21-2.14.59-4.03.59-3.82,0-6.34-1.6-6.34-6.89v-12.18h-4.16v-2.44h4.16v-6.05l2.94-1.43v7.48h5.92v2.44h-5.92v11.8c0,2.81.76,4.58,3.4,4.58,1.6,0,3.23-.29,4.03-.5Z"/><path class="cls-10" d="m356.46,3582.7h2.94v15.17c1.05-2.1,3.28-3.95,7.31-3.95,4.75,0,7.77,2.52,7.77,7.94v13.61h-2.94v-13.27c0-4.33-2.14-5.71-5.5-5.71-3.82,0-6.64,2.69-6.64,5.63v13.36h-2.94v-32.77Z"/><path class="cls-10" d="m389.6,3609.04v-1.18h2.94v1.13c0,2.86,2.14,4.5,5.96,4.5s5.8-1.01,5.8-3.78c0-2.06-1.01-2.81-3.86-3.32l-4.62-.84c-3.02-.55-5.54-2.02-5.54-5.5,0-3.15,2.35-6.13,8.4-6.13s8.4,3.02,8.4,7.23v.88h-2.98v-.76c0-3.44-2.14-4.92-5.42-4.92-3.95,0-5.33,1.34-5.33,3.36s1.01,2.86,3.91,3.4l4.03.76c4.12.76,6.09,1.93,6.09,5.59,0,4.58-4.12,6.55-8.78,6.55-7.31,0-8.99-3.28-8.99-6.97Z"/><path class="cls-10" d="m430.51,3605.97h-15.96c.17,4.79,2.48,7.48,6.93,7.48,3.82,0,5.67-1.43,5.97-4.83h2.98c-.29,4.24-3.28,7.39-9.03,7.39-7.06,0-9.83-4.66-9.83-10.88s3.23-11.22,10-11.22,8.95,3.99,8.95,10.21v1.85Zm-3.11-2.98c0-4.45-1.72-6.55-5.92-6.55s-6.55,2.65-6.89,6.97h12.81v-.42Z"/><path class="cls-10" d="m436.38,3594.46h2.6l.29,3.91c1.01-2.14,3.07-4.45,6.76-4.45,1.26,0,2.18.21,3.02.55v3.15c-1.13-.5-2.1-.76-3.4-.76-3.74,0-6.34,2.81-6.34,5.75v12.85h-2.94v-21Z"/><path class="cls-10" d="m453.69,3582.7h2.98v6.51h-2.98v-6.51Zm0,11.76h2.94v21h-2.94v-21Z"/><path class="cls-10" d="m468.18,3589.42v5.04h5.92v2.44h-5.92v18.57h-2.94v-18.57h-4.16v-2.44h4.16v-5.42c0-5.29,3.15-6.89,6.38-6.89,1.85,0,2.98.29,3.74.55v2.6c-.71-.21-1.89-.46-3.49-.46-2.65,0-3.7,1.76-3.7,4.58Z"/><path class="cls-10" d="m476.2,3609.04v-1.18h2.94v1.13c0,2.86,2.14,4.5,5.96,4.5s5.8-1.01,5.8-3.78c0-2.06-1.01-2.81-3.86-3.32l-4.62-.84c-3.02-.55-5.54-2.02-5.54-5.5,0-3.15,2.35-6.13,8.4-6.13s8.4,3.02,8.4,7.23v.88h-2.98v-.76c0-3.44-2.14-4.92-5.42-4.92-3.95,0-5.33,1.34-5.33,3.36s1.01,2.86,3.91,3.4l4.03.76c4.12.76,6.09,1.93,6.09,5.59,0,4.58-4.12,6.55-8.78,6.55-7.31,0-8.99-3.28-8.99-6.97Z"/><line class="cls-4" x1="369.02" y1="3337.38" x2="369.02" y2="3338.25"/><line class="cls-8" x1="369.02" y1="3356.41" x2="369.02" y2="3547.07"/><line class="cls-4" x1="369.02" y1="3556.15" x2="369.02" y2="3557.02"/><g class="cls-9"><path class="cls-11" d="m766.02,1367.3l-11.2,20.72-16.24-9.52c23.52-42.01,26.32-44.81,28-70.01h17.92v114.26c0,20.72,5.6,31.92,12.88,40.33,8.4,9.52,18.48,14,30.24,14,17.92,0,35.85-12.88,53.77-40.89,8.4-12.32,14.56-27.44,14.56-41.44v-86.26h19.04v140.02c0,7.84,1.68,16.24,6.72,22.96,3.36,4.48,6.16,6.72,12.88,6.72,10.64,0,19.04-4.48,25.2-15.12l48.17-84.57,16.24,9.52-48.17,84.01c-2.8,6.16-14.56,24.09-41.45,24.09s-39.2-31.37-37.52-49.85c-13.44,21.28-36.41,49.29-69.45,49.29-29.68,0-61.61-24.64-61.61-71.13v-57.13Z"/><path class="cls-11" d="m1084.7,1477.64c20.16,0,42.57-10.64,63.29-25.76,21.84-15.68,39.77-34.72,50.41-50.41l15.68-22.96,16.24,9.52c-5.6,7.84-11.2,16.24-16.8,24.08-21.28,29.13-77.29,84.02-128.82,84.02s-81.78-40.89-81.78-89.05,35.85-100.26,80.65-100.26c47.61,0,67.77,20.17,67.77,52.09-.56,50.97-58.25,60.49-101.38,52.09-10.08-1.68-19.04-3.92-28-5.6-.56,42.01,23.52,72.25,62.73,72.25Zm-29.68-85.13c45.37,7.28,76.73-3.92,77.85-33.61.56-20.16-10.08-34.17-49.29-33.05-24.64,1.12-53.77,33.61-60.49,61.61,9.52,1.12,20.16,3.36,31.92,5.04Z"/></g><path class="cls-10" d="m819.43,1755.94h9.33c6.85,0,10,2.52,10,8.07,0,3.4-1.97,6.64-5.25,7.39v.08c3.78.55,6.85,2.73,6.85,7.9,0,6.3-3.24,9.33-11.72,9.33h-9.2v-32.77Zm8.86,14.53c6.13,0,7.44-2.9,7.44-6.51,0-3.87-2.06-5.42-7.48-5.42h-5.84v11.93h5.88Zm.13,15.63c6.47,0,8.86-1.68,8.86-6.72,0-4.12-1.97-6.38-9.03-6.38h-5.84v13.11h6.01Z"/><path class="cls-10" d="m847.28,1767.7h2.6l.29,3.91c1.01-2.14,3.07-4.45,6.76-4.45,1.26,0,2.18.21,3.02.55v3.15c-1.13-.5-2.1-.76-3.4-.76-3.74,0-6.34,2.81-6.34,5.75v12.85h-2.94v-21Z"/><path class="cls-10" d="m862.27,1778.2c0-6.22,3.32-11.05,10.38-11.05,6.59,0,10.25,4.83,10.25,11.05s-3.7,11.05-10.29,11.05c-7.27,0-10.33-4.83-10.33-11.05Zm17.56,0c0-5.33-2.9-8.49-7.22-8.49-4.75,0-7.27,3.15-7.27,8.49s2.56,8.49,7.27,8.49c4.33,0,7.22-3.15,7.22-8.49Z"/><path class="cls-10" d="m888.14,1755.94h2.94v23.23l12.14-11.47h3.65v.04l-8.4,7.86,8.78,13.06v.04h-3.36l-7.39-11.22-5.42,5.04v6.18h-2.94v-32.77Z"/><path class="cls-10" d="m928.51,1779.21h-15.96c.17,4.79,2.48,7.48,6.93,7.48,3.82,0,5.67-1.43,5.97-4.83h2.98c-.29,4.24-3.28,7.39-9.03,7.39-7.06,0-9.83-4.66-9.83-10.88s3.23-11.22,10-11.22,8.95,3.99,8.95,10.21v1.85Zm-3.11-2.98c0-4.45-1.72-6.55-5.92-6.55s-6.55,2.65-6.89,6.97h12.81v-.42Z"/><path class="cls-10" d="m934.39,1767.7h2.6l.29,3.49c1.01-2.14,3.28-4.03,7.35-4.03,4.75,0,7.77,2.52,7.77,7.94v13.61h-2.94v-13.27c0-4.33-2.14-5.71-5.5-5.71-3.82,0-6.64,2.69-6.64,5.63v13.36h-2.94v-21Z"/><path class="cls-10" d="m967.74,1778.37c0-6.38,3.23-11.22,10-11.22s8.95,3.91,8.95,8.95v.42h-3.11v-.63c0-3.82-1.64-6.09-5.84-6.09-4.75,0-7.02,3.11-7.02,8.4,0,5.63,2.39,8.49,6.93,8.49,3.82,0,5.84-1.85,5.92-5.67h3.02c-.08,4.66-3.15,8.23-9.03,8.23-7.22,0-9.83-4.75-9.83-10.88Z"/><path class="cls-10" d="m990.88,1778.2c0-6.22,3.32-11.05,10.38-11.05,6.59,0,10.25,4.83,10.25,11.05s-3.7,11.05-10.29,11.05c-7.27,0-10.33-4.83-10.33-11.05Zm17.56,0c0-5.33-2.9-8.49-7.22-8.49-4.75,0-7.27,3.15-7.27,8.49s2.56,8.49,7.27,8.49c4.33,0,7.22-3.15,7.22-8.49Z"/><path class="cls-10" d="m1017.38,1767.7h2.6l.29,3.49c1.01-2.14,3.28-4.03,7.35-4.03,4.75,0,7.77,2.52,7.77,7.94v13.61h-2.94v-13.27c0-4.33-2.14-5.71-5.5-5.71-3.82,0-6.64,2.69-6.64,5.63v13.36h-2.94v-21Z"/><path class="cls-10" d="m1042.75,1767.7h2.6l.29,3.49c1.01-2.14,3.28-4.03,7.35-4.03,4.75,0,7.77,2.52,7.77,7.94v13.61h-2.94v-13.27c0-4.33-2.14-5.71-5.5-5.71-3.82,0-6.64,2.69-6.64,5.63v13.36h-2.94v-21Z"/><path class="cls-10" d="m1085.38,1779.21h-15.96c.17,4.79,2.48,7.48,6.93,7.48,3.82,0,5.67-1.43,5.97-4.83h2.98c-.29,4.24-3.28,7.39-9.03,7.39-7.06,0-9.83-4.66-9.83-10.88s3.23-11.22,10-11.22,8.95,3.99,8.95,10.21v1.85Zm-3.11-2.98c0-4.45-1.72-6.55-5.92-6.55s-6.55,2.65-6.89,6.97h12.81v-.42Z"/><path class="cls-10" d="m1089.58,1778.37c0-6.38,3.23-11.22,10-11.22s8.95,3.91,8.95,8.95v.42h-3.11v-.63c0-3.82-1.64-6.09-5.84-6.09-4.75,0-7.02,3.11-7.02,8.4,0,5.63,2.39,8.49,6.93,8.49,3.82,0,5.84-1.85,5.92-5.67h3.02c-.08,4.66-3.15,8.23-9.03,8.23-7.22,0-9.83-4.75-9.83-10.88Z"/><path class="cls-10" d="m1125.36,1786.02v2.6c-.76.21-2.14.59-4.03.59-3.82,0-6.34-1.6-6.34-6.89v-12.18h-4.16v-2.44h4.16v-6.05l2.94-1.43v7.48h5.92v2.44h-5.92v11.8c0,2.81.76,4.58,3.4,4.58,1.6,0,3.23-.29,4.03-.5Z"/><path class="cls-10" d="m1130.19,1755.94h2.98v6.51h-2.98v-6.51Zm0,11.76h2.94v21h-2.94v-21Z"/><path class="cls-10" d="m1138.84,1778.2c0-6.22,3.32-11.05,10.38-11.05,6.59,0,10.25,4.83,10.25,11.05s-3.7,11.05-10.29,11.05c-7.27,0-10.33-4.83-10.33-11.05Zm17.56,0c0-5.33-2.9-8.49-7.22-8.49-4.75,0-7.27,3.15-7.27,8.49s2.56,8.49,7.27,8.49c4.33,0,7.22-3.15,7.22-8.49Z"/><path class="cls-10" d="m1165.34,1767.7h2.6l.29,3.49c1.01-2.14,3.28-4.03,7.35-4.03,4.75,0,7.77,2.52,7.77,7.94v13.61h-2.94v-13.27c0-4.33-2.14-5.71-5.5-5.71-3.82,0-6.64,2.69-6.64,5.63v13.36h-2.94v-21Z"/><path class="cls-10" d="m861.66,1804.79h2.94v32.77h-2.94v-32.77Z"/><path class="cls-10" d="m889.22,1828.06h-15.96c.17,4.79,2.48,7.48,6.93,7.48,3.82,0,5.67-1.43,5.97-4.83h2.98c-.29,4.24-3.28,7.39-9.03,7.39-7.06,0-9.83-4.66-9.83-10.88s3.23-11.22,10-11.22,8.95,3.99,8.95,10.21v1.85Zm-3.11-2.98c0-4.45-1.72-6.55-5.92-6.55s-6.55,2.65-6.89,6.97h12.81v-.42Z"/><path class="cls-10" d="m893.63,1831.75c0-3.95,2.23-6.09,7.86-6.09h6.34v-1.72c0-2.98-1.26-5.42-5.46-5.42-3.95,0-5.33,1.51-5.33,4.12v.88h-2.98v-.84c0-5,4.2-6.68,8.32-6.68,5.8,0,8.4,2.86,8.4,8.44v13.11h-2.06l-.55-2.98h-.08c-1.26,1.89-3.7,3.53-7.35,3.53-4.92,0-7.1-2.31-7.1-6.34Zm14.2-1.85v-1.76h-7.01c-2.65,0-4.03.92-4.03,3.61,0,2.35,1.26,3.87,4.5,3.87,4.16,0,6.55-2.14,6.55-5.71Z"/><path class="cls-10" d="m916.43,1827.09c0-7.1,4.28-11.09,10.04-11.09,3.7,0,6.22,1.6,7.31,3.74h.04v-14.96h2.94v32.77h-1.97l-.67-3.61h-.08c-1.18,2.31-3.95,4.16-7.77,4.16-6.3,0-9.83-3.99-9.83-11.01Zm17.64-.5c0-5.5-3.36-8.07-7.35-8.07-3.11,0-7.14,1.47-7.14,8.4s3.61,8.61,7.14,8.61c4.24,0,7.35-2.73,7.35-8.95Z"/><path class="cls-10" d="m944.11,1804.79h2.98v6.51h-2.98v-6.51Zm0,11.76h2.94v21h-2.94v-21Z"/><path class="cls-10" d="m954.44,1816.55h2.6l.29,3.49c1.01-2.14,3.28-4.03,7.35-4.03,4.75,0,7.77,2.52,7.77,7.94v13.61h-2.94v-13.27c0-4.33-2.14-5.71-5.5-5.71-3.82,0-6.64,2.69-6.64,5.63v13.36h-2.94v-21Z"/><path class="cls-10" d="m979.18,1839.36v-.13h3.11v.13c0,2.9,1.93,4.33,6.13,4.33,4.79,0,7.01-2.94,7.01-7.86v-2.1h-.08c-1.09,2.18-3.65,4.07-7.48,4.07-6.3,0-9.75-3.99-9.75-10.71,0-7.1,4.37-11.09,9.96-11.09,3.78,0,6.55,1.81,7.56,4.12h.13l.29-3.57h2.31v19.16c0,5.88-2.81,10.71-10.33,10.71-6.3,0-8.86-2.98-8.86-7.06Zm16.59-12.77c0-5.5-3.36-8.07-7.35-8.07-3.03,0-7.14,1.47-7.14,8.4s3.57,8.32,7.1,8.32c4.24,0,7.39-2.73,7.39-8.65Z"/><path class="cls-10" d="m1015.38,1804.79h2.98v6.51h-2.98v-6.51Zm0,11.76h2.94v21h-2.94v-21Z"/><path class="cls-10" d="m1025.72,1816.55h2.6l.29,3.49c1.01-2.14,3.28-4.03,7.35-4.03,4.75,0,7.77,2.52,7.77,7.94v13.61h-2.94v-13.27c0-4.33-2.14-5.71-5.5-5.71-3.82,0-6.64,2.69-6.64,5.63v13.36h-2.94v-21Z"/><path class="cls-10" d="m1062.05,1834.86v2.6c-.76.21-2.14.59-4.03.59-3.82,0-6.34-1.6-6.34-6.89v-12.18h-4.16v-2.44h4.16v-6.05l2.94-1.43v7.48h5.92v2.44h-5.92v11.8c0,2.81.76,4.58,3.4,4.58,1.6,0,3.23-.29,4.03-.5Z"/><path class="cls-10" d="m1064.57,1827.05c0-6.22,3.32-11.05,10.38-11.05,6.59,0,10.25,4.83,10.25,11.05s-3.7,11.05-10.29,11.05c-7.27,0-10.33-4.83-10.33-11.05Zm17.56,0c0-5.33-2.9-8.49-7.22-8.49-4.75,0-7.27,3.15-7.27,8.49s2.56,8.49,7.27,8.49c4.33,0,7.22-3.15,7.22-8.49Z"/><path class="cls-10" d="m1102.41,1815.25h-3.36v-5.08c0-3.95.88-5.29,3.4-5.96l.67,1.85c-1.76.67-2.06,1.09-2.06,3.78v.34h1.34v5.08Zm5.92,0h-3.36v-5.08c0-3.95.88-5.29,3.4-5.96l.67,1.85c-1.76.67-2.06,1.09-2.06,3.78v.34h1.34v5.08Z"/><path class="cls-10" d="m1130.3,1828.06h-15.96c.17,4.79,2.48,7.48,6.93,7.48,3.82,0,5.67-1.43,5.97-4.83h2.98c-.29,4.24-3.28,7.39-9.03,7.39-7.06,0-9.83-4.66-9.83-10.88s3.23-11.22,10-11.22,8.95,3.99,8.95,10.21v1.85Zm-3.11-2.98c0-4.45-1.72-6.55-5.92-6.55s-6.55,2.65-6.89,6.97h12.81v-.42Z"/><path class="cls-10" d="m1131.56,1813.98c1.76-.67,2.06-1.09,2.06-3.78v-.34h-1.34v-5.08h3.36v5.08c0,3.95-.88,5.29-3.4,5.96l-.67-1.85Zm5.92,0c1.76-.67,2.06-1.09,2.06-3.78v-.34h-1.34v-5.08h3.36v5.08c0,3.95-.88,5.29-3.4,5.96l-.67-1.85Z"/><line class="cls-4" x1="1000.98" y1="1470.62" x2="1000.98" y2="1471.49"/><line class="cls-7" x1="1000.98" y1="1488.35" x2="1000.98" y2="1720.96"/><line class="cls-4" x1="1000.98" y1="1729.39" x2="1000.98" y2="1730.26"/><path class="cls-11" d="m1483.95,3230.19c2.24-54.89-38.09-94.1-54.33-78.41-16.24,15.12,3.36,71.13,34.73,89.62,0,0,4.2-.36,19.6-11.2Zm-40.89-61.61c4.48-3.36,22.96,28.57,23.52,52.09-12.88-10.64-31.37-46.49-23.52-52.09Z"/><path class="cls-10" d="m1223.2,2775.76h19.49v2.65h-16.55v12.22h14.62v2.6h-14.62v12.6h16.55v2.69h-19.49v-32.77Z"/><path class="cls-10" d="m1248.77,2775.76h2.94v32.77h-2.94v-32.77Z"/><path class="cls-10" d="m1257.38,2798.02c0-6.22,3.32-11.05,10.38-11.05,6.59,0,10.25,4.83,10.25,11.05s-3.7,11.05-10.29,11.05c-7.27,0-10.33-4.83-10.33-11.05Zm17.56,0c0-5.33-2.9-8.49-7.22-8.49-4.75,0-7.27,3.15-7.27,8.49s2.56,8.49,7.27,8.49c4.33,0,7.22-3.15,7.22-8.49Z"/><path class="cls-10" d="m1283.88,2787.52h2.6l.29,3.49c1.01-2.14,3.28-4.03,7.35-4.03,4.75,0,7.77,2.52,7.77,7.94v13.61h-2.94v-13.27c0-4.33-2.14-5.71-5.5-5.71-3.82,0-6.64,2.69-6.64,5.63v13.36h-2.94v-21Z"/><path class="cls-10" d="m1308.62,2810.33v-.13h3.11v.13c0,2.9,1.93,4.33,6.13,4.33,4.79,0,7.01-2.94,7.01-7.86v-2.1h-.08c-1.09,2.18-3.65,4.07-7.48,4.07-6.3,0-9.75-3.99-9.75-10.71,0-7.1,4.37-11.09,9.96-11.09,3.78,0,6.55,1.81,7.56,4.12h.13l.29-3.57h2.31v19.16c0,5.88-2.81,10.71-10.33,10.71-6.3,0-8.86-2.98-8.86-7.06Zm16.59-12.77c0-5.5-3.36-8.07-7.35-8.07-3.03,0-7.14,1.47-7.14,8.4s3.57,8.32,7.1,8.32c4.24,0,7.39-2.73,7.39-8.65Z"/><path class="cls-10" d="m1333.91,2802.73c0-3.95,2.23-6.09,7.86-6.09h6.34v-1.72c0-2.98-1.26-5.42-5.46-5.42-3.95,0-5.33,1.51-5.33,4.12v.88h-2.98v-.84c0-5,4.2-6.68,8.32-6.68,5.8,0,8.4,2.86,8.4,8.44v13.11h-2.06l-.55-2.98h-.08c-1.26,1.89-3.7,3.53-7.35,3.53-4.92,0-7.1-2.31-7.1-6.34Zm14.2-1.85v-1.76h-7.01c-2.65,0-4.03.92-4.03,3.61,0,2.35,1.26,3.87,4.5,3.87,4.16,0,6.55-2.14,6.55-5.71Z"/><path class="cls-10" d="m1369.15,2805.84v2.6c-.76.21-2.14.59-4.03.59-3.82,0-6.34-1.6-6.34-6.89v-12.18h-4.16v-2.44h4.16v-6.05l2.94-1.43v7.48h5.92v2.44h-5.92v11.8c0,2.81.76,4.58,3.4,4.58,1.6,0,3.23-.29,4.03-.5Z"/><path class="cls-10" d="m1390.61,2799.03h-15.96c.17,4.79,2.48,7.48,6.93,7.48,3.82,0,5.67-1.43,5.97-4.83h2.98c-.29,4.24-3.28,7.39-9.03,7.39-7.06,0-9.83-4.66-9.83-10.88s3.23-11.22,10-11.22,8.95,3.99,8.95,10.21v1.85Zm-3.11-2.98c0-4.45-1.72-6.55-5.92-6.55s-6.55,2.65-6.89,6.97h12.81v-.42Z"/><path class="cls-10" d="m1394.81,2798.07c0-7.1,4.28-11.09,10.04-11.09,3.7,0,6.22,1.6,7.31,3.74h.04v-14.96h2.94v32.77h-1.97l-.67-3.61h-.08c-1.18,2.31-3.95,4.16-7.77,4.16-6.3,0-9.83-3.99-9.83-11.01Zm17.64-.5c0-5.5-3.36-8.07-7.35-8.07-3.11,0-7.14,1.47-7.14,8.4s3.61,8.61,7.14,8.61c4.24,0,7.35-2.73,7.35-8.95Z"/><path class="cls-10" d="m1430.46,2798.02c0-6.22,3.32-11.05,10.38-11.05,6.59,0,10.25,4.83,10.25,11.05s-3.7,11.05-10.29,11.05c-7.27,0-10.33-4.83-10.33-11.05Zm17.56,0c0-5.33-2.9-8.49-7.22-8.49-4.75,0-7.27,3.15-7.27,8.49s2.56,8.49,7.27,8.49c4.33,0,7.22-3.15,7.22-8.49Z"/><path class="cls-10" d="m1456.97,2787.52h2.39l.34,3.87h.08c1.13-2.48,4.03-4.41,7.86-4.41,6.3,0,9.66,3.99,9.66,11.01s-4.29,11.09-9.87,11.09c-3.78,0-6.38-1.6-7.43-3.7h-.08v11.55h-2.94v-29.41Zm17.18,10.63c0-7.18-3.4-8.61-6.93-8.61-4.24,0-7.56,2.73-7.56,8.44,0,6.01,3.45,8.57,7.44,8.57,3.02,0,7.06-1.47,7.06-8.4Z"/><path class="cls-10" d="m1500.44,2799.03h-15.96c.17,4.79,2.48,7.48,6.93,7.48,3.82,0,5.67-1.43,5.97-4.83h2.98c-.29,4.24-3.28,7.39-9.03,7.39-7.06,0-9.83-4.66-9.83-10.88s3.23-11.22,10-11.22,8.95,3.99,8.95,10.21v1.85Zm-3.11-2.98c0-4.45-1.72-6.55-5.92-6.55s-6.55,2.65-6.89,6.97h12.81v-.42Z"/><path class="cls-10" d="m1506.32,2787.52h2.6l.29,3.49c1.01-2.14,3.28-4.03,7.35-4.03,4.75,0,7.77,2.52,7.77,7.94v13.61h-2.94v-13.27c0-4.33-2.14-5.71-5.5-5.71-3.82,0-6.64,2.69-6.64,5.63v13.36h-2.94v-21Z"/><path class="cls-10" d="m1541.34,2775.76h2.94v23.23l12.14-11.47h3.65v.04l-8.4,7.86,8.78,13.06v.04h-3.36l-7.39-11.22-5.42,5.04v6.17h-2.94v-32.77Z"/><path class="cls-10" d="m1565.49,2787.52h2.6l.29,3.49c1.01-2.14,3.28-4.03,7.35-4.03,4.75,0,7.77,2.52,7.77,7.94v13.61h-2.94v-13.27c0-4.33-2.14-5.71-5.5-5.71-3.82,0-6.64,2.69-6.64,5.63v13.36h-2.94v-21Z"/><path class="cls-10" d="m1589.18,2798.02c0-6.22,3.32-11.05,10.38-11.05,6.59,0,10.25,4.83,10.25,11.05s-3.7,11.05-10.29,11.05c-7.27,0-10.33-4.83-10.33-11.05Zm17.56,0c0-5.33-2.9-8.49-7.22-8.49-4.75,0-7.27,3.15-7.27,8.49s2.56,8.49,7.27,8.49c4.33,0,7.22-3.15,7.22-8.49Z"/><path class="cls-10" d="m1626.65,2805.84v2.6c-.76.21-2.14.59-4.03.59-3.82,0-6.34-1.6-6.34-6.89v-12.18h-4.16v-2.44h4.16v-6.05l2.94-1.43v7.48h5.92v2.44h-5.92v11.8c0,2.81.76,4.58,3.4,4.58,1.6,0,3.23-.29,4.03-.5Z"/><path class="cls-10" d="m1629.59,2802.1v-1.18h2.94v1.13c0,2.86,2.14,4.5,5.96,4.5s5.8-1.01,5.8-3.78c0-2.06-1.01-2.81-3.86-3.32l-4.62-.84c-3.02-.55-5.54-2.02-5.54-5.5,0-3.15,2.35-6.13,8.4-6.13s8.4,3.02,8.4,7.23v.88h-2.98v-.76c0-3.44-2.14-4.92-5.42-4.92-3.95,0-5.33,1.34-5.33,3.36s1.01,2.86,3.91,3.4l4.03.76c4.12.76,6.09,1.93,6.09,5.59,0,4.58-4.12,6.55-8.78,6.55-7.31,0-8.99-3.28-8.99-6.97Z"/><path class="cls-10" d="m1662.89,2775.76h2.98v6.51h-2.98v-6.51Zm0,11.76h2.94v21h-2.94v-21Z"/><path class="cls-10" d="m1673.22,2787.52h2.6l.29,3.49c1.01-2.14,3.28-4.03,7.35-4.03,4.75,0,7.77,2.52,7.77,7.94v13.61h-2.94v-13.27c0-4.33-2.14-5.71-5.5-5.71-3.82,0-6.64,2.69-6.64,5.63v13.36h-2.94v-21Z"/><path class="cls-10" d="m1292.33,2835.07h-3.36v-5.08c0-3.95.88-5.29,3.4-5.97l.67,1.85c-1.76.67-2.06,1.09-2.06,3.78v.34h1.34v5.08Zm5.92,0h-3.36v-5.08c0-3.95.88-5.29,3.4-5.97l.67,1.85c-1.76.67-2.06,1.09-2.06,3.78v.34h1.34v5.08Z"/><path class="cls-10" d="m1301.48,2836.41v-.04h3.36l7.35,17.98h.08l7.1-17.98h3.07v.04l-8.74,20.96h-3.02l-9.2-20.96Z"/><path class="cls-10" d="m1324.96,2833.81c1.76-.67,2.06-1.09,2.06-3.78v-.34h-1.34v-5.08h3.36v5.08c0,3.95-.88,5.29-3.4,5.97l-.67-1.85Zm5.92,0c1.76-.67,2.06-1.09,2.06-3.78v-.34h-1.34v-5.08h3.36v5.08c0,3.95-.88,5.29-3.4,5.97l-.67-1.85Z"/><path class="cls-10" d="m1337.9,2851.16h3.36v6.22c0,3.95-.88,5.29-3.4,5.96l-.67-1.85c1.76-.67,2.06-1.09,2.06-3.78v-.34h-1.34v-6.22Z"/><path class="cls-10" d="m1358.9,2835.07h-3.36v-5.08c0-3.95.88-5.29,3.4-5.97l.67,1.85c-1.76.67-2.06,1.09-2.06,3.78v.34h1.34v5.08Zm5.92,0h-3.36v-5.08c0-3.95.88-5.29,3.4-5.97l.67,1.85c-1.76.67-2.06,1.09-2.06,3.78v.34h1.34v5.08Z"/><path class="cls-10" d="m1368.47,2836.41v-.04h2.98l5.76,17.47h.08l6.3-17.47h2.69l6.17,17.47h.08l5.75-17.47h2.86v.04l-7.18,20.96h-3.02l-5.96-17.06h-.08l-6.22,17.06h-3.02l-7.18-20.96Z"/><path class="cls-10" d="m1404.09,2833.81c1.76-.67,2.06-1.09,2.06-3.78v-.34h-1.34v-5.08h3.36v5.08c0,3.95-.88,5.29-3.4,5.97l-.67-1.85Zm5.92,0c1.76-.67,2.06-1.09,2.06-3.78v-.34h-1.34v-5.08h3.36v5.08c0,3.95-.88,5.29-3.4,5.97l-.67-1.85Z"/><path class="cls-10" d="m1417.02,2851.16h3.36v6.22c0,3.95-.88,5.29-3.4,5.96l-.67-1.85c1.76-.67,2.06-1.09,2.06-3.78v-.34h-1.34v-6.22Z"/><path class="cls-10" d="m1438.03,2835.07h-3.36v-5.08c0-3.95.88-5.29,3.4-5.97l.67,1.85c-1.76.67-2.06,1.09-2.06,3.78v.34h1.34v5.08Zm5.92,0h-3.36v-5.08c0-3.95.88-5.29,3.4-5.97l.67,1.85c-1.76.67-2.06,1.09-2.06,3.78v.34h1.34v5.08Z"/><path class="cls-10" d="m1446.97,2846.87c0-6.22,3.32-11.05,10.38-11.05,6.59,0,10.25,4.83,10.25,11.05s-3.7,11.05-10.29,11.05c-7.27,0-10.33-4.83-10.33-11.05Zm17.56,0c0-5.33-2.9-8.49-7.22-8.49-4.75,0-7.27,3.15-7.27,8.49s2.56,8.49,7.27,8.49c4.33,0,7.22-3.15,7.22-8.49Z"/><path class="cls-10" d="m1468.85,2833.81c1.76-.67,2.06-1.09,2.06-3.78v-.34h-1.34v-5.08h3.36v5.08c0,3.95-.88,5.29-3.4,5.97l-.67-1.85Zm5.92,0c1.76-.67,2.06-1.09,2.06-3.78v-.34h-1.34v-5.08h3.36v5.08c0,3.95-.88,5.29-3.4,5.97l-.67-1.85Z"/><path class="cls-10" d="m1493.13,2851.58c0-3.95,2.23-6.09,7.86-6.09h6.34v-1.72c0-2.98-1.26-5.42-5.46-5.42-3.95,0-5.33,1.51-5.33,4.12v.88h-2.98v-.84c0-5,4.2-6.68,8.32-6.68,5.8,0,8.4,2.86,8.4,8.44v13.11h-2.06l-.55-2.98h-.08c-1.26,1.89-3.7,3.53-7.35,3.53-4.92,0-7.1-2.31-7.1-6.34Zm14.2-1.85v-1.76h-7.01c-2.65,0-4.03.92-4.03,3.61,0,2.35,1.26,3.86,4.5,3.86,4.16,0,6.55-2.14,6.55-5.71Z"/><path class="cls-10" d="m1517.61,2836.37h2.6l.29,3.49c1.01-2.14,3.28-4.03,7.35-4.03,4.75,0,7.77,2.52,7.77,7.94v13.61h-2.94v-13.27c0-4.33-2.14-5.71-5.5-5.71-3.82,0-6.64,2.69-6.64,5.63v13.36h-2.94v-21Z"/><path class="cls-10" d="m1541.3,2846.91c0-7.1,4.28-11.09,10.04-11.09,3.7,0,6.22,1.6,7.31,3.74h.04v-14.95h2.94v32.77h-1.97l-.67-3.61h-.08c-1.18,2.31-3.95,4.16-7.77,4.16-6.3,0-9.83-3.99-9.83-11.01Zm17.64-.5c0-5.5-3.36-8.07-7.35-8.07-3.11,0-7.14,1.47-7.14,8.4s3.61,8.61,7.14,8.61c4.24,0,7.35-2.73,7.35-8.95Z"/><path class="cls-10" d="m1580.32,2835.07h-3.36v-5.08c0-3.95.88-5.29,3.4-5.97l.67,1.85c-1.76.67-2.06,1.09-2.06,3.78v.34h1.34v5.08Zm5.92,0h-3.36v-5.08c0-3.95.88-5.29,3.4-5.97l.67,1.85c-1.76.67-2.06,1.09-2.06,3.78v.34h1.34v5.08Z"/><path class="cls-10" d="m1595.44,2853.89h-.08l-.76,3.49h-1.97v-32.77h2.94v15.25h.04c1.26-2.31,4.07-4.03,7.69-4.03,6.3,0,9.66,3.99,9.66,11.01s-4.29,11.09-9.87,11.09c-3.78,0-6.55-1.64-7.65-4.03Zm14.37-6.89c0-7.18-3.4-8.61-6.93-8.61-4.24,0-7.56,2.73-7.56,8.44,0,6.01,3.45,8.57,7.44,8.57,3.02,0,7.06-1.47,7.06-8.4Z"/><path class="cls-10" d="m1614.21,2833.81c1.76-.67,2.06-1.09,2.06-3.78v-.34h-1.34v-5.08h3.36v5.08c0,3.95-.88,5.29-3.4,5.97l-.67-1.85Zm5.92,0c1.76-.67,2.06-1.09,2.06-3.78v-.34h-1.34v-5.08h3.36v5.08c0,3.95-.88,5.29-3.4,5.97l-.67-1.85Z"/><line class="cls-4" x1="1447.82" y1="2891.09" x2="1447.82" y2="2891.96"/><line class="cls-5" x1="1447.82" y1="2910.12" x2="1447.82" y2="3080.79"/><line class="cls-4" x1="1447.82" y1="3089.86" x2="1447.82" y2="3090.74"/><path class="cls-10" d="m85.9,865.1v-19.95h2.94v19.95c0,9.41,4.07,10.63,8.86,10.63s8.78-1.01,8.78-10.63v-19.95h2.94v19.62c0,11.64-5.33,13.69-11.76,13.69s-11.76-2.06-11.76-13.36Z"/><path class="cls-10" d="m117.61,856.91h2.6l.29,3.49c1.01-2.14,3.28-4.03,7.35-4.03,4.75,0,7.77,2.52,7.77,7.94v13.61h-2.94v-13.27c0-4.33-2.14-5.71-5.5-5.71-3.82,0-6.64,2.69-6.64,5.63v13.36h-2.94v-21Z"/><path class="cls-10" d="m145.92,880.94c0,3.53-1.68,5.84-5.04,5.84-1.18,0-2.02-.13-2.94-.38v-2.6c.8.17,1.47.29,2.27.29,1.93,0,2.77-1.26,2.77-3.65v-23.52h2.94v24.03Zm-2.94-35.79h2.98v6.51h-2.98v-6.51Z"/><path class="cls-10" d="m151.63,867.41c0-6.22,3.32-11.05,10.38-11.05,6.59,0,10.25,4.83,10.25,11.05s-3.7,11.05-10.29,11.05c-7.27,0-10.33-4.83-10.33-11.05Zm17.56,0c0-5.33-2.9-8.49-7.22-8.49-4.75,0-7.27,3.15-7.27,8.49s2.56,8.49,7.27,8.49c4.33,0,7.22-3.15,7.22-8.49Z"/><path class="cls-10" d="m178.13,845.15h2.98v6.51h-2.98v-6.51Zm0,11.76h2.94v21h-2.94v-21Z"/><path class="cls-10" d="m188.46,856.91h2.6l.29,3.49c1.01-2.14,3.28-4.03,7.35-4.03,4.75,0,7.77,2.52,7.77,7.94v13.61h-2.94v-13.27c0-4.33-2.14-5.71-5.5-5.71-3.82,0-6.64,2.69-6.64,5.63v13.36h-2.94v-21Z"/><path class="cls-10" d="m231.1,868.42h-15.96c.17,4.79,2.48,7.48,6.93,7.48,3.82,0,5.67-1.43,5.97-4.83h2.98c-.29,4.24-3.28,7.39-9.03,7.39-7.06,0-9.83-4.66-9.83-10.88s3.23-11.22,10-11.22,8.95,3.99,8.95,10.21v1.85Zm-3.11-2.98c0-4.45-1.72-6.55-5.92-6.55s-6.55,2.65-6.89,6.97h12.81v-.42Z"/><path class="cls-10" d="m235.29,867.45c0-7.1,4.28-11.09,10.04-11.09,3.7,0,6.22,1.6,7.31,3.74h.04v-14.95h2.94v32.77h-1.97l-.67-3.61h-.08c-1.18,2.31-3.95,4.16-7.77,4.16-6.3,0-9.83-3.99-9.83-11.01Zm17.64-.5c0-5.5-3.36-8.07-7.35-8.07-3.11,0-7.14,1.47-7.14,8.4s3.61,8.61,7.14,8.61c4.24,0,7.35-2.73,7.35-8.95Z"/><path class="cls-10" d="m272.21,870.52v-13.61h2.94v13.27c0,4.33,2.14,5.71,5.42,5.71,3.74,0,6.55-2.69,6.55-5.63v-13.36h2.94v21h-2.6l-.25-3.36h-.08c-.97,2.02-3.23,3.91-7.23,3.91-4.66,0-7.69-2.52-7.69-7.94Z"/><path class="cls-10" d="m297.41,856.91h2.39l.34,3.86h.08c1.13-2.48,4.03-4.41,7.86-4.41,6.3,0,9.66,3.99,9.66,11.01s-4.29,11.09-9.87,11.09c-3.78,0-6.38-1.6-7.43-3.7h-.08v11.55h-2.94v-29.41Zm17.18,10.63c0-7.18-3.4-8.61-6.93-8.61-4.24,0-7.56,2.73-7.56,8.44,0,6.01,3.45,8.57,7.44,8.57,3.02,0,7.06-1.47,7.06-8.4Z"/><path class="cls-10" d="m323.62,856.91h2.39l.34,3.86h.08c1.13-2.48,4.03-4.41,7.86-4.41,6.3,0,9.66,3.99,9.66,11.01s-4.29,11.09-9.87,11.09c-3.78,0-6.38-1.6-7.43-3.7h-.08v11.55h-2.94v-29.41Zm17.18,10.63c0-7.18-3.4-8.61-6.93-8.61-4.24,0-7.56,2.73-7.56,8.44,0,6.01,3.45,8.57,7.44,8.57,3.02,0,7.06-1.47,7.06-8.4Z"/><path class="cls-10" d="m367.09,868.42h-15.96c.17,4.79,2.48,7.48,6.93,7.48,3.82,0,5.67-1.43,5.97-4.83h2.98c-.29,4.24-3.28,7.39-9.03,7.39-7.06,0-9.83-4.66-9.83-10.88s3.23-11.22,10-11.22,8.95,3.99,8.95,10.21v1.85Zm-3.11-2.98c0-4.45-1.72-6.55-5.92-6.55s-6.55,2.65-6.89,6.97h12.81v-.42Z"/><path class="cls-10" d="m372.97,856.91h2.6l.29,3.91c1.01-2.14,3.07-4.45,6.76-4.45,1.26,0,2.18.21,3.02.55v3.15c-1.13-.5-2.1-.76-3.4-.76-3.74,0-6.34,2.81-6.34,5.75v12.85h-2.94v-21Z"/><path class="cls-10" d="m387.96,867.58c0-6.38,3.23-11.22,10-11.22s8.95,3.91,8.95,8.95v.42h-3.11v-.63c0-3.82-1.64-6.09-5.84-6.09-4.75,0-7.01,3.11-7.01,8.4,0,5.63,2.39,8.49,6.93,8.49,3.82,0,5.84-1.85,5.92-5.67h3.02c-.08,4.66-3.15,8.23-9.03,8.23-7.22,0-9.83-4.75-9.83-10.88Z"/><path class="cls-10" d="m411.31,872.12c0-3.95,2.23-6.09,7.86-6.09h6.34v-1.72c0-2.98-1.26-5.42-5.46-5.42-3.95,0-5.33,1.51-5.33,4.12v.88h-2.98v-.84c0-5,4.2-6.68,8.32-6.68,5.8,0,8.4,2.86,8.4,8.44v13.11h-2.06l-.55-2.98h-.08c-1.26,1.89-3.7,3.53-7.35,3.53-4.92,0-7.1-2.31-7.1-6.34Zm14.2-1.85v-1.76h-7.01c-2.65,0-4.03.92-4.03,3.61,0,2.35,1.26,3.86,4.5,3.86,4.16,0,6.55-2.14,6.55-5.71Z"/><path class="cls-10" d="m433.91,871.49v-1.18h2.94v1.13c0,2.86,2.14,4.5,5.96,4.5s5.8-1.01,5.8-3.78c0-2.06-1.01-2.81-3.86-3.32l-4.62-.84c-3.02-.55-5.54-2.02-5.54-5.5,0-3.15,2.35-6.13,8.4-6.13s8.4,3.02,8.4,7.23v.88h-2.98v-.76c0-3.44-2.14-4.91-5.42-4.91-3.95,0-5.33,1.34-5.33,3.36s1.01,2.86,3.91,3.4l4.03.76c4.12.76,6.09,1.93,6.09,5.59,0,4.58-4.12,6.55-8.78,6.55-7.31,0-8.99-3.28-8.99-6.97Z"/><path class="cls-10" d="m474.82,868.42h-15.96c.17,4.79,2.48,7.48,6.93,7.48,3.82,0,5.67-1.43,5.97-4.83h2.98c-.29,4.24-3.28,7.39-9.03,7.39-7.06,0-9.83-4.66-9.83-10.88s3.23-11.22,10-11.22,8.95,3.99,8.95,10.21v1.85Zm-3.11-2.98c0-4.45-1.72-6.55-5.92-6.55s-6.55,2.65-6.89,6.97h12.81v-.42Z"/><line class="cls-4" x1="279.59" y1="605.83" x2="279.59" y2="606.7"/><line class="cls-8" x1="279.59" y1="624.86" x2="279.59" y2="815.52"/><line class="cls-4" x1="279.59" y1="824.6" x2="279.59" y2="825.47"/><path class="cls-10" d="m629.38,861.87c0-12.01,6.76-17.27,14.74-17.27,6.97,0,12.39,3.74,12.39,12.01v.8h-2.86v-.92c0-5.92-3.78-9.24-9.45-9.24-6.72,0-11.76,4.58-11.76,14.32s5.04,14.24,11.72,14.24c5.38,0,9.54-2.86,9.54-9.2v-.59h2.77v.42c0,8.02-5.33,12.01-12.56,12.01-7.98,0-14.53-4.87-14.53-16.59Z"/><path class="cls-10" d="m662.39,870.52v-13.61h2.94v13.27c0,4.33,2.14,5.71,5.42,5.71,3.74,0,6.55-2.69,6.55-5.63v-13.36h2.94v21h-2.6l-.25-3.36h-.08c-.97,2.02-3.23,3.91-7.23,3.91-4.66,0-7.69-2.52-7.69-7.94Z"/><path class="cls-10" d="m687.59,856.91h2.6l.29,3.91c1.01-2.14,3.07-4.45,6.76-4.45,1.26,0,2.18.21,3.02.55v3.15c-1.13-.5-2.1-.76-3.4-.76-3.74,0-6.34,2.81-6.34,5.75v12.85h-2.94v-21Z"/><path class="cls-10" d="m701.74,856.95v-.04h3.36l7.35,17.98h.08l7.1-17.98h3.07v.04l-8.74,20.96h-3.02l-9.2-20.96Z"/><path class="cls-10" d="m743.54,868.42h-15.96c.17,4.79,2.48,7.48,6.93,7.48,3.82,0,5.67-1.43,5.97-4.83h2.98c-.29,4.24-3.28,7.39-9.03,7.39-7.06,0-9.83-4.66-9.83-10.88s3.23-11.22,10-11.22,8.95,3.99,8.95,10.21v1.85Zm-3.11-2.98c0-4.45-1.72-6.55-5.92-6.55s-6.55,2.65-6.89,6.97h12.81v-.42Z"/><path class="cls-10" d="m747.73,867.45c0-7.1,4.28-11.09,10.04-11.09,3.7,0,6.22,1.6,7.31,3.74h.04v-14.95h2.94v32.77h-1.97l-.67-3.61h-.08c-1.18,2.31-3.95,4.16-7.77,4.16-6.3,0-9.83-3.99-9.83-11.01Zm17.64-.5c0-5.5-3.36-8.07-7.35-8.07-3.11,0-7.14,1.47-7.14,8.4s3.61,8.61,7.14,8.61c4.24,0,7.35-2.73,7.35-8.95Z"/><path class="cls-10" d="m783.18,871.49v-1.18h2.94v1.13c0,2.86,2.14,4.5,5.96,4.5s5.8-1.01,5.8-3.78c0-2.06-1.01-2.81-3.86-3.32l-4.62-.84c-3.02-.55-5.54-2.02-5.54-5.5,0-3.15,2.35-6.13,8.4-6.13s8.4,3.02,8.4,7.23v.88h-2.98v-.76c0-3.44-2.14-4.91-5.42-4.91-3.95,0-5.33,1.34-5.33,3.36s1.01,2.86,3.91,3.4l4.03.76c4.12.76,6.09,1.93,6.09,5.59,0,4.58-4.12,6.55-8.78,6.55-7.31,0-8.99-3.28-8.99-6.97Z"/><path class="cls-10" d="m817.79,875.23v2.6c-.76.21-2.14.59-4.03.59-3.82,0-6.34-1.6-6.34-6.89v-12.18h-4.16v-2.44h4.16v-6.05l2.94-1.43v7.48h5.92v2.44h-5.92v11.8c0,2.81.76,4.58,3.4,4.58,1.6,0,3.23-.29,4.03-.5Z"/><path class="cls-10" d="m839.25,868.42h-15.96c.17,4.79,2.48,7.48,6.93,7.48,3.82,0,5.67-1.43,5.97-4.83h2.98c-.29,4.24-3.28,7.39-9.03,7.39-7.06,0-9.83-4.66-9.83-10.88s3.23-11.22,10-11.22,8.95,3.99,8.95,10.21v1.85Zm-3.11-2.98c0-4.45-1.72-6.55-5.92-6.55s-6.55,2.65-6.89,6.97h12.81v-.42Z"/><path class="cls-10" d="m875.84,864.3v13.61h-2.94v-13.27c0-4.33-2.14-5.71-4.75-5.71-3.82,0-6.17,2.69-6.17,5.63v13.36h-2.94v-13.27c0-4.33-1.85-5.71-4.83-5.71-3.61,0-6.13,2.69-6.13,5.63v13.36h-2.94v-21h2.6l.29,3.49c1.01-2.02,3.07-4.03,6.93-4.03,2.94,0,5.38,1.39,6.43,4.28,1.22-2.39,3.57-4.28,7.14-4.28,4.29,0,7.31,2.52,7.31,7.94Z"/><path class="cls-10" d="m892.84,845.15h2.98v6.51h-2.98v-6.51Zm0,11.76h2.94v21h-2.94v-21Z"/><path class="cls-10" d="m903.18,856.91h2.6l.29,3.49c1.01-2.14,3.28-4.03,7.35-4.03,4.75,0,7.77,2.52,7.77,7.94v13.61h-2.94v-13.27c0-4.33-2.14-5.71-5.5-5.71-3.82,0-6.64,2.69-6.64,5.63v13.36h-2.94v-21Z"/><path class="cls-10" d="m939.88,855.61h-3.36v-5.08c0-3.95.88-5.29,3.4-5.97l.67,1.85c-1.76.67-2.06,1.09-2.06,3.78v.34h1.34v5.08Zm5.92,0h-3.36v-5.08c0-3.95.88-5.29,3.4-5.97l.67,1.85c-1.76.67-2.06,1.09-2.06,3.78v.34h1.34v5.08Z"/><path class="cls-10" d="m955.93,851.87v5.04h5.92v2.44h-5.92v18.57h-2.94v-18.57h-4.16v-2.44h4.16v-5.42c0-5.29,3.15-6.89,6.38-6.89,1.85,0,2.98.29,3.74.55v2.6c-.71-.21-1.89-.46-3.49-.46-2.65,0-3.7,1.76-3.7,4.58Z"/><path class="cls-10" d="m966.47,854.35c1.76-.67,2.06-1.09,2.06-3.78v-.34h-1.34v-5.08h3.36v5.08c0,3.95-.88,5.29-3.4,5.97l-.67-1.85Zm5.92,0c1.76-.67,2.06-1.09,2.06-3.78v-.34h-1.34v-5.08h3.36v5.08c0,3.95-.88,5.29-3.4,5.97l-.67-1.85Z"/><line class="cls-4" x1="705.27" y1="777.83" x2="705.27" y2="778.7"/><line class="cls-2" x1="705.27" y1="793.04" x2="705.27" y2="817.43"/><line class="cls-4" x1="705.27" y1="824.6" x2="705.27" y2="825.47"/><path class="cls-10" d="m1220.44,821.35v-19.95h2.94v19.95c0,9.41,4.07,10.63,8.86,10.63s8.78-1.01,8.78-10.63v-19.95h2.94v19.62c0,11.64-5.33,13.69-11.76,13.69s-11.76-2.06-11.76-13.36Z"/><path class="cls-10" d="m1251.73,813.16h2.39l.34,3.86h.08c1.13-2.48,4.03-4.41,7.86-4.41,6.3,0,9.66,3.99,9.66,11.01s-4.29,11.09-9.87,11.09c-3.78,0-6.38-1.6-7.43-3.7h-.08v11.55h-2.94v-29.41Zm17.18,10.63c0-7.18-3.4-8.61-6.93-8.61-4.24,0-7.56,2.73-7.56,8.44,0,6.01,3.45,8.57,7.44,8.57,3.02,0,7.06-1.47,7.06-8.4Z"/><path class="cls-10" d="m1277.94,813.16h2.6l.29,3.91c1.01-2.14,3.07-4.45,6.76-4.45,1.26,0,2.18.21,3.02.55v3.15c-1.13-.5-2.1-.76-3.4-.76-3.74,0-6.34,2.81-6.34,5.75v12.85h-2.94v-21Z"/><path class="cls-10" d="m1295.24,801.4h2.98v6.51h-2.98v-6.51Zm0,11.76h2.94v21h-2.94v-21Z"/><path class="cls-10" d="m1304.94,835.97v-.13h3.11v.13c0,2.9,1.93,4.33,6.13,4.33,4.79,0,7.01-2.94,7.01-7.86v-2.1h-.08c-1.09,2.18-3.65,4.07-7.48,4.07-6.3,0-9.75-3.99-9.75-10.71,0-7.1,4.37-11.09,9.96-11.09,3.78,0,6.55,1.81,7.56,4.12h.13l.29-3.57h2.31v19.16c0,5.88-2.81,10.71-10.33,10.71-6.3,0-8.86-2.98-8.86-7.06Zm16.59-12.77c0-5.5-3.36-8.07-7.35-8.07-3.03,0-7.14,1.47-7.14,8.4s3.57,8.32,7.1,8.32c4.24,0,7.39-2.73,7.39-8.65Z"/><path class="cls-10" d="m1331.49,801.4h2.94v15.16c1.05-2.1,3.28-3.95,7.31-3.95,4.75,0,7.77,2.52,7.77,7.94v13.61h-2.94v-13.27c0-4.33-2.14-5.71-5.5-5.71-3.82,0-6.64,2.69-6.64,5.63v13.36h-2.94v-32.77Z"/><path class="cls-10" d="m1367.82,831.48v2.6c-.76.21-2.14.59-4.03.59-3.82,0-6.34-1.6-6.34-6.89v-12.18h-4.16v-2.44h4.16v-6.05l2.94-1.43v7.48h5.92v2.44h-5.92v11.8c0,2.81.76,4.58,3.4,4.58,1.6,0,3.23-.29,4.03-.5Z"/></g></svg>