<?xml version="1.0" encoding="UTF-8"?> <svg xmlns="http://www.w3.org/2000/svg" id="Layer_1" data-name="Layer 1" viewBox="0 0 167.33 167.33"><defs><style> .cls-1 { fill: #1d1d1b; } .cls-1, .cls-2, .cls-3 { stroke-width: 0px; } .cls-2 { fill: #fcecbb; } .cls-3 { fill: #e46054; } </style></defs><path class="cls-2" d="M0,110.64h53.94v-53.94H0v53.94Z"></path><path class="cls-2" d="M0,167.33h53.94v-53.94H0v53.94Z"></path><path class="cls-2" d="M56.69,110.64h53.94v-53.94h-53.94v53.94Z"></path><path class="cls-2" d="M56.69,167.33h53.94v-53.94h-53.94v53.94Z"></path><path class="cls-2" d="M113.39,110.64h53.94v-53.94h-53.94v53.94Z"></path><rect class="cls-2" x="113.39" y="113.39" width="53.94" height="53.94"></rect><rect class="cls-2" x="113.39" y="0" width="53.94" height="53.94"></rect><rect class="cls-2" x="56.69" y="0" width="53.94" height="53.94"></rect><rect class="cls-2" x="0" width="53.94" height="53.94"></rect><path class="cls-1" d="M19.26,31.77l3.09-.48c.48,2.61,1.29,4.2,4.53,4.2,2.22,0,3.96-.84,3.96-3.36s-2.1-3.21-4.5-3.87c-2.94-.84-6.27-1.8-6.27-6.36,0-3.9,2.82-6.18,7.08-6.18,3.78,0,6.51,1.38,6.9,6.18l-3.09.36c-.3-2.25-.81-3.81-3.81-3.81-2.79,0-3.78,1.26-3.78,3.06,0,2.4,2.16,3.09,4.53,3.81,2.97.87,6.3,1.89,6.3,6.33s-3.45,6.54-7.44,6.54-6.99-1.41-7.5-6.42Z"></path><path class="cls-1" d="M19.26,88.46l3.09-.48c.48,2.61,1.29,4.2,4.53,4.2,2.22,0,3.96-.84,3.96-3.36s-2.1-3.21-4.5-3.87c-2.94-.84-6.27-1.8-6.27-6.36,0-3.9,2.82-6.18,7.08-6.18,3.78,0,6.51,1.38,6.9,6.18l-3.09.36c-.3-2.25-.81-3.81-3.81-3.81-2.79,0-3.78,1.26-3.78,3.06,0,2.4,2.16,3.09,4.53,3.81,2.97.87,6.3,1.89,6.3,6.33s-3.45,6.54-7.44,6.54-6.99-1.41-7.5-6.42Z"></path><path class="cls-3" d="M20.61,151.22v-21.72h3.51v18.81h10.59v2.91h-14.1Z"></path><path class="cls-1" d="M77.18,37.83v-21.72h12.93v2.85h-9.42v6.48h8.79v2.82h-8.79v6.72h9.87v2.85h-13.38Z"></path><path class="cls-1" d="M77.18,94.52v-21.72h12.93v2.85h-9.42v6.48h8.79v2.82h-8.79v6.72h9.87v2.85h-13.38Z"></path><path class="cls-3" d="M88.46,151.22l-1.68-6.06h-6.51l-1.65,6.06h-3.6l6.21-21.72h4.5l6.57,21.72h-3.84ZM80.85,142.34h5.31l-2.64-9.66h-.09l-2.58,9.66Z"></path><path class="cls-1" d="M132.92,37.83v-21.72h4.08l7.71,16.5h.12v-16.5h2.97v21.72h-3.72l-8.04-16.98h-.09v16.98h-3.03Z"></path><path class="cls-1" d="M133.73,94.52v-2.67h4.89v-16.38h-4.89v-2.67h13.26v2.67h-4.86v16.38h4.86v2.67h-13.26Z"></path><path class="cls-3" d="M133.31,151.22v-21.72h7.38c5.13,0,6.57,2.34,6.57,5.31s-2.01,4.53-4.32,5.07v.09c3.54.42,5.13,2.34,5.13,5.34,0,4.44-3.39,5.91-8.1,5.91h-6.66ZM136.82,138.86h1.98c2.28,0,4.95-.6,4.95-3.54s-1.86-3.15-5.1-3.15h-1.83v6.69ZM136.82,148.55h2.58c2.88,0,4.98-.48,4.98-3.48,0-3.21-2.52-3.57-5.43-3.57h-2.13v7.05Z"></path></svg> 