<?xml version="1.0" encoding="UTF-8"?> <svg xmlns="http://www.w3.org/2000/svg" id="Layer_1" viewBox="0 0 450 335"><defs><style>.cls-1{fill:#fff;}.cls-2{fill:#ececec;}.cls-3{fill:#bca5cf;}</style></defs><rect class="cls-1" width="450" height="335"></rect><rect class="cls-2" y="199.03" width="450" height="56.84"></rect><rect class="cls-2" x="-.33" y="80.87" width="450" height="54.77"></rect><rect class="cls-3" x="226.31" y="80.87" width="18.64" height="175"></rect><path d="m335.38,166.43c0-3.18.35-6.54,1.94-9.37,3.01-5.66,8.84-15.38,22.27-15.38,11.84,0,24.22,6.72,24.92,19.97v4.77c0,15.03-7.07,28.99-24.39,28.99-14.85,0-24.75-7.42-24.75-28.99Zm-24.57,20.68c-.53.53-.71,1.24-.71,1.77,0,1.59,1.59,2.83,3.18,2.83.71,0,1.41-.35,2.12-1.06,6.19-7.6,10.61-14.49,14.32-20.68,1.24,24.39,15.38,31.11,30.4,31.11,12.9,0,21.21-6.36,25.81-15.2,2.83,8.13,9.55,15.2,20.15,15.2,3.54,0,13.61,0,23.16-10.25.53-.53.71-1.24.71-1.94s-.18-1.59-.88-2.12c-.53-.53-1.24-.88-1.77-.88-3.54,0-6.72,9.55-21.21,9.55-10.25,0-15.91-9.55-15.91-18.38v-15.38l.18-.18-.18-.18v-77.6c0-1.59-1.24-2.83-2.83-2.83s-2.83,1.24-2.83,2.83v62.75c-6.01-7.07-15.91-10.43-24.92-10.43-6.89,0-11.84,1.77-16.09,4.6-12.02,8.13-11.67,20.15-32.7,46.49Zm-111.36-.18c-.53.53-.71,1.24-.71,1.77,0,1.59,1.59,3.18,3.18,3.18.71,0,1.59-.35,2.12-1.06,6.89-8.13,16.09-18.38,22.1-30.05v37.47c0,1.59,1.24,2.83,2.83,2.83s2.83-1.24,2.83-2.83v-28.46c0-13.61,8.66-28.11,22.98-28.11s24.39,16.26,24.39,27.93v5.3c0,11.49,3.36,26.16,16.79,26.16,7.95,0,13.08-2.47,19.44-10.43.35-.53.71-1.24.71-1.77,0-.88-.53-1.59-1.24-2.3-.71-.53-1.24-.71-1.77-.71-3.36,0-5.13,9.55-17.15,9.55-8.84,0-11.14-11.49-11.14-20.51v-5.3c0-14.49-11.84-33.59-30.05-33.59-10.25,0-18.21,5.48-22.98,13.26v-10.43c0-1.77-1.06-2.83-2.83-2.83s-2.83,1.06-2.83,2.83c0,17.68-14.14,33.06-26.69,48.08ZM65.99,86.88h.35c6.01,0,13.79,2.65,18.38,8.13.71.71,1.41,1.06,2.12,1.06,1.59,0,3.18-1.41,3.18-3.01,0-.53-.18-1.41-.71-1.94-5.66-6.89-15.56-10.08-22.98-10.08l-.35.18c-18.38,0-29.34,11.14-29.34,29.17,0,11.67,6.54,21.04,17.68,25.63-13.79,4.6-22.27,15.03-22.27,31.29,0,20.51,15.38,33.76,33.94,33.76,12.9,0,19.44-3.18,26.34-10.08.53-.53.88-1.24.88-1.94,0-1.59-1.59-3.18-3.18-3.18-.71,0-1.41.35-1.94.88-5.48,5.48-10.25,8.66-22.1,8.66-15.2,0-28.28-10.78-28.28-28.11,0-18.91,13.61-28.11,34.29-28.11,1.77,0,2.83-1.06,2.83-2.83s-1.06-2.83-2.83-2.83c-18.74,0-29.7-9.72-29.7-23.16s7.78-23.51,23.69-23.51Zm22.1,100.05c-.53.53-.71,1.41-.71,1.94,0,1.59,1.59,3.01,3.18,3.01.71,0,1.41-.35,2.12-1.06,6.89-8.13,16.09-18.38,22.1-30.05v92.27c0,1.59,1.24,2.83,2.83,2.83s2.83-1.24,2.83-2.83v-83.26c0-13.61,8.66-28.11,22.98-28.11s24.39,16.26,24.39,27.93v5.3c0,11.49,3.36,26.16,16.79,26.16,7.95,0,13.08-2.47,19.44-10.43.35-.53.53-1.06.53-1.77,0-.88-.35-1.77-1.06-2.3s-1.24-.71-1.77-.71c-3.54,0-5.13,9.55-17.15,9.55-8.84,0-11.14-11.49-11.14-20.51v-5.3c0-14.49-11.84-33.59-30.05-33.59-10.25,0-18.21,5.48-22.98,13.26v-10.43c0-1.77-1.06-2.83-2.83-2.83s-2.83,1.06-2.83,2.83c0,17.68-14.14,33.06-26.69,48.08Z"></path></svg> 