<?xml version="1.0" encoding="UTF-8"?> <svg xmlns="http://www.w3.org/2000/svg" id="Layer_1" viewBox="0 0 450 335"><defs><style>.cls-1{fill:#fff;}.cls-2{fill:#ececec;}.cls-3{fill:#bca5cf;}.cls-4{fill:#231f20;}</style></defs><rect class="cls-1" width="450" height="335"></rect><rect class="cls-2" y="199.03" width="450" height="65.21"></rect><rect class="cls-2" y="72.72" width="450" height="62.92"></rect><polygon class="cls-3" points="172.95 264.24 154.31 264.24 216.31 72.91 234.95 72.91 172.95 264.24"></polygon><path class="cls-4" d="m33.65,178.14c1.32,0,2.49.88,2.79,2.2,3.37,11.74,7.48,14.96,12.32,14.96,19.95,0,54.72-71,81.71-119.4,2.49-4.84,8.07-3.52,8.07,1.61l3.37,120.73c0,1.61-1.32,2.93-2.93,2.93s-2.93-1.32-2.93-2.93l-3.37-120.73c0,.29,3.08,1.03,3.08,1.03-26.99,48.41-62.05,122.63-86.99,122.63-7.48,0-13.94-4.84-17.9-19.36-.59-1.61.73-3.67,2.79-3.67Zm103.71-16.14c-1.47,0-2.64-1.03-2.93-2.49-1.61-10.12-13.64-17.31-24.06-18.19-6.01-.44-9.24,1.47-10.27,3.37-5.13,19.07,60.14,39.02,90.95-5.13.44-.88,1.32-1.32,2.35-1.32,1.61,0,2.93,1.32,2.93,2.93,0,.59-.15,1.17-.59,1.61-34.33,49.43-109.87,26.99-101.22-.29,1.91-3.96,7.19-7.77,16.43-7.04,12.18,1.17,27.14,9.53,29.34,23.18.29,1.76-1.17,3.37-2.93,3.37Zm17.31,102.24c-2.05,0-3.37-2.05-2.79-3.81l60.88-187.47c.44-1.17,1.47-2.05,2.79-2.05,2.05,0,3.37,2.05,2.79,3.81l-60.88,187.47c-.44,1.17-1.47,2.05-2.79,2.05Zm32.42-98.87c-1.61,0-2.93-1.32-2.93-2.93,0-.73.29-1.47.73-2.05,9.39-9.97,28.16-24.79,39.31-24.79,12.03,0,10.12,14.08,6.16,27.14l-6.89,22.59c-.29,1.17-1.47,2.05-2.79,2.05-2.05,0-3.37-1.91-2.79-3.81l6.89-22.59c3.52-11.59,4.55-19.51-.59-19.51-8.65,0-26.11,13.64-34.91,23.03-.59.59-1.32.88-2.2.88Zm40.49-6.45c2.05,0,3.37,1.91,2.79,3.81l-6.89,22.59c-2.2,7.19-.59,9.97,1.32,9.97,13.64,0,39.02-59.7,56.77-59.7,6.45,0,10.85,7.04,6.89,17.75l-6.89,18.78c-.44,1.17-1.47,1.91-2.79,1.91-2.2,0-3.37-2.2-2.79-3.96l6.89-18.78c2.49-6.75.73-9.83-1.32-9.83-13.35,0-38.73,59.7-56.77,59.7-6.45,0-10.27-6.75-6.89-17.6l6.89-22.59c.29-1.17,1.47-2.05,2.79-2.05Zm58.09-9.53c2.2,0,3.37,2.2,2.79,3.96l-6.89,18.78c-5.57,14.96-1.47,23.18,5.72,23.18,7.63,0,21.42-8.8,31.39-28.02.59-1.03,1.47-1.61,2.64-1.61,1.61,0,2.93,1.32,2.93,2.93,0,.44-.15.88-.29,1.32-11.15,21.27-26.7,31.24-36.67,31.24-11.74,0-18.19-12.47-11.3-31.1l6.89-18.78c.44-1.17,1.47-1.91,2.79-1.91Zm80.53-16.14c1.61,0,2.93,1.32,2.93,2.93,0,.44-.15,1.03-.29,1.32-19.8,37.11-61.46,67.18-76.72,86.69-16.43,21.12-11.3,34.18-6.6,34.18,3.96,0,8.21-8.51,15.7-30.22,11.3-32.27,16.14-57.8,25.67-90.51.29-1.17,1.47-2.05,2.79-2.05,2.05,0,3.37,2.05,2.79,3.81-9.53,32.42-14.38,57.94-25.67,90.8-7.77,22.59-12.76,34.03-21.27,34.03-10.56,0-17.75-18.34,1.91-43.57,15.84-20.39,57.21-50.17,76.13-85.81.59-1.03,1.47-1.61,2.64-1.61Zm23.47-58.97c2.2,0,3.37,2.2,2.79,3.96-15.26,37.85-51.93,117.06-22,117.06,7.04,0,16.58-5.72,26.26-17.02.44-.59,1.32-1.03,2.2-1.03,1.61,0,2.93,1.32,2.93,2.93,0,.73-.29,1.32-.73,1.91-10.56,12.47-21.56,19.07-30.66,19.07-40.49,0,1.17-86.84,16.43-124.98.44-1.17,1.61-1.91,2.79-1.91Zm23.62,24.64c0,1.61-1.32,2.93-2.93,2.93h-53.98c-1.61,0-2.93-1.32-2.93-2.93s1.32-2.93,2.93-2.93h53.98c1.61,0,2.93,1.32,2.93,2.93Z"></path></svg> 