<?xml version="1.0" encoding="UTF-8"?> <svg xmlns="http://www.w3.org/2000/svg" xmlns:xlink="http://www.w3.org/1999/xlink" viewBox="0 0 1920 3163"><defs><style>.cls-1,.cls-2,.cls-3,.cls-4,.cls-5,.cls-6,.cls-7,.cls-8,.cls-9,.cls-10,.cls-11,.cls-12{fill:none;}.cls-13{clip-path:url(#clippath);}.cls-2{stroke-dasharray:0 0 1.5 14.97;}.cls-2,.cls-3,.cls-4,.cls-5,.cls-6,.cls-7,.cls-8,.cls-9,.cls-10,.cls-11{stroke:#a797c9;stroke-linecap:round;stroke-width:7px;}.cls-2,.cls-3,.cls-4,.cls-5,.cls-6,.cls-7,.cls-8,.cls-9,.cls-10,.cls-11,.cls-12{stroke-miterlimit:10;}.cls-14{fill:#fff;}.cls-15{fill:#937fbb;}.cls-16{fill:#a797c9;}.cls-17{fill:#171c32;}.cls-18{fill:#947fbb;}.cls-3{stroke-dasharray:0 0 1.66 16.57;}.cls-4{stroke-dasharray:0 0 1.8 17.97;}.cls-19{clip-path:url(#clippath-1);}.cls-6{stroke-dasharray:0 0 1.75 17.47;}.cls-7{stroke-dasharray:0 0 1.8 17.99;}.cls-8{stroke-dasharray:0 0 1.8 18.02;}.cls-9{stroke-dasharray:0 0 1.81 18.07;}.cls-10{stroke-dasharray:0 0 1.74 17.45;}.cls-11{stroke-dasharray:0 0 1.95 19.48;}.cls-12{stroke:#57678b;stroke-width:3.5px;}</style><clipPath id="clippath"><circle class="cls-1" cx="1178.99" cy="2467.72" r="95.4"></circle></clipPath><clipPath id="clippath-1"><circle class="cls-1" cx="1290.84" cy="2080.25" r="95.4"></circle></clipPath></defs><g id="Background"><rect class="cls-17" width="1920" height="3163"></rect></g><g id="Horizontal_Guides"><line class="cls-12" y1="202.72" x2="1920" y2="202.72"></line><line class="cls-12" y1="318.48" x2="1920" y2="318.48"></line><line class="cls-12" x1="1920" y1="508.63" y2="508.63"></line><line class="cls-12" y1="602.86" x2="1920" y2="602.86"></line><line class="cls-12" y1="952.72" x2="1920" y2="952.72"></line><line class="cls-12" y1="1068.48" x2="1920" y2="1068.48"></line><line class="cls-12" x1="1920" y1="1258.63" y2="1258.63"></line><line class="cls-12" y1="1352.86" x2="1920" y2="1352.86"></line><line class="cls-12" y1="1696.72" x2="1920" y2="1696.72"></line><line class="cls-12" y1="1812.48" x2="1920" y2="1812.48"></line><line class="cls-12" x1="1920" y1="2002.63" y2="2002.63"></line><line class="cls-12" y1="2096.86" x2="1920" y2="2096.86"></line><line class="cls-12" y1="2444.72" x2="1920" y2="2444.72"></line><line class="cls-12" y1="2560.48" x2="1920" y2="2560.48"></line><line class="cls-12" x1="1920" y1="2750.63" y2="2750.63"></line><line class="cls-12" y1="2844.86" x2="1920" y2="2844.86"></line></g><g id="Layer_1"><circle class="cls-15" cx="1178.99" cy="2467.72" r="95.4"></circle><circle class="cls-15" cx="1290.84" cy="2080.25" r="95.4"></circle><path class="cls-14" d="m1251.33,657.62v-19.95h2.94v19.95c0,9.41,4.07,10.63,8.86,10.63s8.78-1.01,8.78-10.63v-19.95h2.94v19.62c0,11.64-5.33,13.69-11.76,13.69s-11.76-2.06-11.76-13.36Z"></path><path class="cls-14" d="m1282.62,649.43h2.39l.34,3.86h.08c1.13-2.48,4.03-4.41,7.86-4.41,6.3,0,9.66,3.99,9.66,11.01s-4.28,11.09-9.87,11.09c-3.78,0-6.39-1.6-7.44-3.7h-.08v11.55h-2.94v-29.41Zm17.18,10.63c0-7.18-3.4-8.61-6.93-8.61-4.24,0-7.56,2.73-7.56,8.44,0,6.01,3.44,8.57,7.44,8.57,3.02,0,7.06-1.47,7.06-8.4Z"></path><path class="cls-14" d="m1308.83,649.43h2.6l.29,3.91c1.01-2.14,3.07-4.45,6.76-4.45,1.26,0,2.18.21,3.02.55v3.15c-1.13-.5-2.1-.76-3.4-.76-3.74,0-6.34,2.81-6.34,5.75v12.85h-2.94v-21Z"></path><path class="cls-14" d="m1326.13,637.67h2.98v6.51h-2.98v-6.51Zm0,11.76h2.94v21h-2.94v-21Z"></path><path class="cls-14" d="m1335.84,672.24v-.13h3.11v.13c0,2.9,1.93,4.33,6.13,4.33,4.79,0,7.02-2.94,7.02-7.86v-2.1h-.08c-1.09,2.18-3.65,4.07-7.48,4.07-6.3,0-9.75-3.99-9.75-10.71,0-7.1,4.37-11.09,9.96-11.09,3.78,0,6.55,1.81,7.56,4.12h.13l.29-3.57h2.31v19.16c0,5.88-2.81,10.71-10.33,10.71-6.3,0-8.86-2.98-8.86-7.06Zm16.59-12.77c0-5.5-3.36-8.07-7.35-8.07-3.02,0-7.14,1.47-7.14,8.4s3.57,8.32,7.1,8.32c4.24,0,7.39-2.73,7.39-8.65Z"></path><path class="cls-14" d="m1362.38,637.67h2.94v15.16c1.05-2.1,3.28-3.95,7.31-3.95,4.75,0,7.77,2.52,7.77,7.94v13.61h-2.94v-13.27c0-4.33-2.14-5.71-5.5-5.71-3.82,0-6.64,2.69-6.64,5.63v13.36h-2.94v-32.77Z"></path><path class="cls-14" d="m1398.71,667.75v2.6c-.76.21-2.14.59-4.03.59-3.82,0-6.34-1.6-6.34-6.89v-12.18h-4.16v-2.44h4.16v-6.05l2.94-1.43v7.48h5.92v2.44h-5.92v11.8c0,2.81.76,4.58,3.4,4.58,1.6,0,3.23-.29,4.03-.5Z"></path><path class="cls-15" d="m537.16,983.55v276.22h-34.05c1.39-7.57,2.2-18.51,2.46-32.82.25-14.31.38-30.81.38-49.47v-111.62c0-18.66-.13-35.16-.38-49.47-.25-14.31-1.07-25.26-2.46-32.82h34.05Zm-26.49,19.87l26.49-19.87,176.89,257.3-26.49,18.92-176.89-256.35Zm176.89,256.35v-276.22h34.05c-1.26,7.57-2.05,18.51-2.36,32.82-.32,14.32-.47,30.81-.47,49.47v193.92h-31.22Z"></path><path class="cls-14" d="m769.86,957.06h28.38l52.03,52.97,52.03-52.97h28.38l-64.32,81.35h-32.16l-64.32-81.35Zm144.73,121.08l-6.62,33.11c-6.31-3.66-14.26-7.57-23.84-11.73-9.59-4.16-20.24-6.24-31.97-6.24-13.88,0-23.49,2.68-28.85,8.04-5.36,5.36-8.04,10.88-8.04,16.55,0,4.42,1.04,8.17,3.12,11.26,2.08,3.09,6.34,5.96,12.77,8.61,6.43,2.65,16.27,5.49,29.51,8.51,11.47,2.53,21.91,6.05,31.31,10.59,9.39,4.54,16.93,10.59,22.61,18.16,5.68,7.57,8.51,17.22,8.51,28.95s-3.25,21.6-9.74,30.74c-6.5,9.15-15.23,16.4-26.2,21.76-10.97,5.36-23.27,8.04-36.89,8.04-15.26,0-29.36-2.18-42.28-6.53-12.93-4.35-23.11-9.43-30.55-15.23l9.46-34.05c8.58,7.69,18.95,13.88,31.12,18.54,12.17,4.67,23.24,7,33.2,7,11.1,0,20.18-2.62,27.24-7.85,7.06-5.23,10.59-11.13,10.59-17.69,0-4.79-1.39-9.18-4.16-13.15-2.77-3.97-7.92-7.76-15.42-11.35-7.5-3.59-18.32-7.09-32.45-10.5-15.26-3.78-26.93-8.39-35-13.81-8.07-5.42-13.56-11.51-16.46-18.26-2.9-6.75-4.35-14.03-4.35-21.85,0-4.41,1.14-9.77,3.41-16.08,2.27-6.31,6.08-12.58,11.45-18.82,5.36-6.24,12.77-11.45,22.23-15.61,9.46-4.16,21.38-6.24,35.76-6.24s25.64,1.61,35.66,4.82c10.03,3.22,18.32,6.65,24.88,10.31Z"></path><path class="cls-14" d="m968.51,1005.3c0-7.06,2.2-13.08,6.62-18.07,4.41-4.98,10.09-7.47,17.03-7.47s12.93,2.49,17.59,7.47c4.66,4.98,7,11,7,18.07s-2.34,12.93-7,17.97c-4.67,5.05-10.53,7.57-17.59,7.57s-12.61-2.52-17.03-7.57c-4.42-5.04-6.62-11.04-6.62-17.97Zm3.78,61.49h37.84v103.11c0,8.07.16,17.88.47,29.42.31,11.54.76,22.8,1.32,33.77s1.23,19.87,1.99,26.68h-38.78v-100.27c0-18.41-.16-35.98-.47-52.69-.32-16.71-1.11-30.05-2.36-40.01Z"></path><path class="cls-14" d="m1059.33,957.06h28.38l52.03,52.97,52.03-52.97h28.38l-64.32,81.35h-32.16l-64.32-81.35Zm144.73,121.08l-6.62,33.11c-6.31-3.66-14.26-7.57-23.84-11.73-9.59-4.16-20.24-6.24-31.97-6.24-13.88,0-23.49,2.68-28.85,8.04-5.36,5.36-8.04,10.88-8.04,16.55,0,4.42,1.04,8.17,3.12,11.26,2.08,3.09,6.34,5.96,12.77,8.61,6.43,2.65,16.27,5.49,29.51,8.51,11.47,2.53,21.91,6.05,31.31,10.59,9.39,4.54,16.93,10.59,22.61,18.16,5.68,7.57,8.51,17.22,8.51,28.95s-3.25,21.6-9.74,30.74c-6.5,9.15-15.23,16.4-26.2,21.76-10.97,5.36-23.27,8.04-36.89,8.04-15.26,0-29.36-2.18-42.28-6.53-12.93-4.35-23.11-9.43-30.55-15.23l9.46-34.05c8.58,7.69,18.95,13.88,31.12,18.54,12.17,4.67,23.24,7,33.2,7,11.1,0,20.18-2.62,27.24-7.85,7.06-5.23,10.59-11.13,10.59-17.69,0-4.79-1.39-9.18-4.16-13.15-2.77-3.97-7.92-7.76-15.42-11.35-7.5-3.59-18.32-7.09-32.45-10.5-15.26-3.78-26.93-8.39-35-13.81-8.07-5.42-13.56-11.51-16.46-18.26-2.9-6.75-4.35-14.03-4.35-21.85,0-4.41,1.14-9.77,3.41-16.08,2.27-6.31,6.08-12.58,11.45-18.82,5.36-6.24,12.77-11.45,22.23-15.61s21.38-6.24,35.76-6.24,25.64,1.61,35.66,4.82c10.03,3.22,18.32,6.65,24.88,10.31Z"></path><path class="cls-14" d="m1415.76,1168.01h-140.76v-26.49h106.89c0-16.27-4.45-28.69-13.34-37.27-8.89-8.58-20.21-12.86-33.96-12.86-16.53,0-29.48,5.86-38.88,17.59-9.4,11.73-14.09,30.15-14.09,55.24,0,23.34,5.7,40.68,17.12,52.03,11.41,11.35,25.89,17.03,43.42,17.03,12.23,0,24.25-1.42,36.04-4.26,11.79-2.84,23.43-7.73,34.91-14.66l3.78,31.22c-13.37,6.94-26.3,11.82-38.78,14.66s-26.05,4.26-40.68,4.26c-16.02,0-30.93-3.72-44.74-11.16-13.81-7.44-24.94-18.48-33.39-33.11-8.45-14.63-12.68-32.66-12.68-54.11s3.69-39.1,11.07-54.49c7.38-15.39,17.85-27.34,31.41-35.85,13.56-8.51,29.67-12.77,48.34-12.77,15.64,0,28.54,2.65,38.69,7.95,10.15,5.3,18.13,12.36,23.93,21.19,5.8,8.83,9.9,18.57,12.3,29.23,2.39,10.66,3.59,21.28,3.59,31.88v7.28c0,3.22-.07,5.71-.19,7.47Zm-104.81,150.41c0-7.07,2.52-13.09,7.57-18.07,5.04-4.98,11.04-7.47,17.97-7.47s13.08,2.49,18.07,7.47c4.98,4.98,7.47,11,7.47,18.07s-2.49,12.93-7.47,17.97c-4.98,5.04-11,7.57-18.07,7.57s-12.93-2.53-17.97-7.57-7.57-11.04-7.57-17.97Z"></path><path class="cls-14" d="m484.18,2663.81v-103.11c0-18.54-.13-35.79-.38-51.74-.25-15.96-1.07-27.72-2.46-35.28,8.32-.63,20.27-1.1,35.85-1.42,15.58-.31,31.37-.47,47.39-.47,28.12,0,49.82,4.86,65.08,14.57,15.26,9.71,22.89,26.93,22.89,51.65,0,15.89-4.51,28.73-13.53,38.5-9.02,9.77-19.96,17.12-32.82,22.04,9.71,2.53,19.2,6.4,28.47,11.64,9.27,5.23,16.93,12.65,22.99,22.23,6.05,9.59,9.08,22.26,9.08,38.03s-3.41,29.04-10.22,41.34-17.63,22.04-32.45,29.23c-14.82,7.19-34.34,10.78-58.55,10.78-12.74,0-24.91-.09-36.51-.28-11.61-.19-21.6-.44-29.99-.76-8.39-.32-14.28-.6-17.69-.85,1.39-7.57,2.2-19.14,2.46-34.72.25-15.58.38-32.7.38-51.37Zm35.95-161.76v86.08h36.89c20.31,0,35.16-4.13,44.55-12.39,9.39-8.26,14.09-18.95,14.09-32.07,0-14.12-4.07-24.75-12.2-31.88-8.14-7.12-21.73-10.69-40.77-10.69-7.32,0-15.23.09-23.74.28-8.51.19-14.79.41-18.82.66Zm0,115.41v103.11c3.53.13,9.49.32,17.88.57,8.39.25,17.88.38,28.47.38s21.09-1.51,30.74-4.54c9.65-3.03,17.5-8.26,23.55-15.7,6.05-7.44,9.08-17.72,9.08-30.84,0-35.31-21.76-52.97-65.27-52.97h-44.46Z"></path><path class="cls-14" d="m712.16,2654.35c0-21.69,4.19-40.08,12.58-55.15,8.39-15.07,19.55-26.52,33.49-34.34,13.93-7.82,29.16-11.73,45.69-11.73,17.41,0,32.7,3.91,45.88,11.73,13.18,7.82,23.49,19.27,30.93,34.34,7.44,15.07,11.16,33.46,11.16,55.15s-4.19,39.98-12.58,54.87c-8.39,14.88-19.52,26.17-33.39,33.87-13.88,7.69-29.14,11.54-45.78,11.54s-32.54-3.85-45.78-11.54c-13.24-7.69-23.59-18.98-31.03-33.87-7.44-14.88-11.16-33.17-11.16-54.87Zm35,0c0,22.07,5.08,39.26,15.23,51.55,10.15,12.3,23.37,18.45,39.64,18.45,15.26,0,28.22-6.15,38.88-18.45,10.66-12.3,15.99-29.48,15.99-51.55s-5.08-39.57-15.23-52.12c-10.15-12.55-23.37-18.82-39.64-18.82-15.26,0-28.22,6.27-38.88,18.82-10.66,12.55-15.99,29.92-15.99,52.12Zm29.32,154.19c0-7.07,2.52-13.09,7.57-18.07,5.04-4.98,11.04-7.47,17.97-7.47s13.08,2.49,18.07,7.47,7.47,11,7.47,18.07-2.49,12.93-7.47,17.97c-4.98,5.04-11,7.57-18.07,7.57s-12.93-2.53-17.97-7.57c-5.05-5.05-7.57-11.04-7.57-17.97Z"></path><path class="cls-14" d="m927.84,2654.35c0-21.69,4.19-40.08,12.58-55.15,8.39-15.07,19.55-26.52,33.49-34.34,13.93-7.82,29.16-11.73,45.69-11.73,17.41,0,32.7,3.91,45.88,11.73,13.18,7.82,23.49,19.27,30.93,34.34,7.44,15.07,11.16,33.46,11.16,55.15s-4.19,39.98-12.58,54.87c-8.39,14.88-19.52,26.17-33.39,33.87-13.88,7.69-29.14,11.54-45.78,11.54s-32.54-3.85-45.78-11.54c-13.24-7.69-23.59-18.98-31.03-33.87-7.44-14.88-11.16-33.17-11.16-54.87Zm35,0c0,22.07,5.08,39.26,15.23,51.55,10.15,12.3,23.37,18.45,39.64,18.45,15.26,0,28.22-6.15,38.88-18.45,10.66-12.3,15.99-29.48,15.99-51.55s-5.08-39.57-15.23-52.12c-10.15-12.55-23.37-18.82-39.64-18.82-15.26,0-28.22,6.27-38.88,18.82-10.66,12.55-15.99,29.92-15.99,52.12Zm29.32,154.19c0-7.07,2.52-13.09,7.57-18.07,5.04-4.98,11.04-7.47,17.97-7.47s13.08,2.49,18.07,7.47c4.98,4.98,7.47,11,7.47,18.07s-2.49,12.93-7.47,17.97c-4.98,5.04-11,7.57-18.07,7.57s-12.93-2.53-17.97-7.57c-5.05-5.05-7.57-11.04-7.57-17.97Z"></path><path class="cls-14" d="m1196.49,2447.19v212.84c0,8.07.16,17.85.47,29.32.31,11.48.76,22.7,1.32,33.68.57,10.97,1.23,19.93,1.99,26.87h-38.78v-213.79c0-36.96-1.26-66.6-3.78-88.92h38.78Z"></path><path class="cls-14" d="m1438.65,2749.89h-32.16c-1.77-4.41-3.69-10.06-5.77-16.93-2.08-6.87-3.63-13.84-4.64-20.91-11.48,13.88-23.34,24.44-35.57,31.69-12.23,7.25-24.97,10.88-38.22,10.88-40.36,0-60.54-27.12-60.54-81.35v-55.81c0-11.98-.19-22.23-.57-30.74-.38-8.51-1.45-18.45-3.22-29.8h38.78v105c0,21.44,2.36,37.05,7.09,46.82,4.73,9.77,13.08,14.66,25.07,14.66,7.44,0,15.35-2.81,23.74-8.42,8.39-5.61,16.11-12.52,23.18-20.72,7.06-8.2,12.23-16.14,15.51-23.84v-52.97c0-8.32-.07-15.58-.19-21.76-.13-6.18-.47-12.27-1.04-18.26-.57-5.99-1.42-12.83-2.55-20.53h38.78v107.84c0,18.29,1.07,34.4,3.22,48.34,2.14,13.94,5.17,26.2,9.08,36.8Zm-120.33,58.65c0-7.07,2.52-13.09,7.57-18.07,5.04-4.98,11.04-7.47,17.97-7.47s13.08,2.49,18.07,7.47,7.47,11,7.47,18.07-2.49,12.93-7.47,17.97c-4.98,5.04-11,7.57-18.07,7.57s-12.93-2.53-17.97-7.57c-5.05-5.05-7.57-11.04-7.57-17.97Z"></path><path class="cls-15" d="m678.11,1939.83l7.57,36.89c-7.32,6.81-16.24,12.52-26.77,17.12-10.53,4.61-21.44,8.11-32.73,10.5-11.29,2.39-21.73,3.59-31.31,3.59-25.48,0-47.49-5.68-66.03-17.03-18.54-11.35-32.82-27.43-42.85-48.24-10.03-20.81-15.04-45.41-15.04-73.78,0-24.34,3.47-45.69,10.41-64.04,6.93-18.35,16.43-33.64,28.47-45.88,12.04-12.23,25.7-21.41,40.96-27.53,15.26-6.12,31.22-9.18,47.87-9.18,13.5,0,27.53,1.89,42.1,5.68s28.6,10.72,42.1,20.81l-11.35,34.05c-11.86-10.72-24.09-18.13-36.7-22.23-12.61-4.1-24.66-6.15-36.14-6.15-17.53,0-33.14,4.1-46.82,12.3-13.69,8.2-24.44,20.43-32.26,36.7-7.82,16.27-11.73,36.51-11.73,60.73,0,22.58,3.85,42.16,11.54,58.74,7.69,16.59,18.26,29.39,31.69,38.41,13.43,9.02,28.66,13.53,45.69,13.53,14.38,0,28.88-3.18,43.51-9.55,14.63-6.37,27.24-14.85,37.84-25.45Z"></path><path class="cls-14" d="m908.92,2003.21h-33.11c-1.77-4.04-3.31-9.93-4.64-17.69s-2.3-15.77-2.93-24.03c-.63-8.26-.95-15.16-.95-20.72v-15.14c-4.92,12.99-11.23,25.82-18.92,38.5-7.69,12.68-16.71,23.15-27.05,31.41-10.34,8.26-22.14,12.39-35.38,12.39-15.89,0-29.32-7.03-40.3-21.09-10.97-14.06-16.46-34.46-16.46-61.2,0-15.01,2.02-29.61,6.05-43.8,4.04-14.19,10.22-26.96,18.54-38.31,8.32-11.35,18.92-20.37,31.78-27.05,12.86-6.68,28.12-10.03,45.78-10.03,12.23,0,23.77.79,34.62,2.36,10.85,1.58,21.06,3.63,30.65,6.15v87.97c0,23.84,1.14,43.86,3.41,60.07,2.27,16.21,5.23,29.61,8.89,40.2Zm-47.3-139.06v-24.03c-3.15-.76-7.09-1.51-11.82-2.27-4.73-.76-11.82-1.14-21.28-1.14-16.4,0-29.3,4.26-38.69,12.77-9.4,8.51-16.02,19.52-19.87,33.01-3.85,13.5-5.77,27.88-5.77,43.14s2.71,26.65,8.14,36.04c5.42,9.4,11.85,14.09,19.3,14.09,6.68,0,13.37-2.93,20.05-8.8,6.68-5.86,13.02-13.43,19.01-22.7,5.99-9.27,11.29-19.04,15.89-29.32,4.6-10.28,8.26-19.96,10.97-29.04,2.71-9.08,4.07-16.33,4.07-21.76Z"></path><path class="cls-14" d="m1105.68,1878.34v124.87h-35v-107.84c0-15.64-.82-27.46-2.46-35.47-1.64-8.01-4.45-13.4-8.42-16.18-3.97-2.77-9.49-4.16-16.55-4.16-9.21,0-18.29,3.63-27.24,10.88-8.96,7.25-15.96,16.55-21,27.91v124.87h-35v-116.35c0-18.54-1.07-34.31-3.22-47.3-2.15-12.99-4.23-22.77-6.24-29.32h34.05c1.39,3.91,2.58,8.64,3.59,14.19,1.01,5.55,1.83,10.59,2.46,15.14,11.6-13.37,22.45-22.23,32.54-26.58,10.09-4.35,20.56-6.53,31.41-6.53,12.36,0,22.42,3.22,30.18,9.65,7.76,6.43,13.21,13.81,16.37,22.14,11.85-12.74,23.02-21.22,33.49-25.45,10.47-4.23,20.68-6.34,30.65-6.34,19.17,0,32.48,6.15,39.92,18.45,7.44,12.3,11.16,30.11,11.16,53.45v124.87h-35v-104.06c0-16.27-.82-28.69-2.46-37.27-1.64-8.58-4.45-14.44-8.42-17.59-3.97-3.15-9.49-4.73-16.55-4.73-9.21,0-18.16,3.5-26.87,10.5-8.7,7-15.83,16.43-21.38,28.28Z"></path><path class="cls-14" d="m1265.54,1810.23h34.05c1.39,3.15,2.77,7.76,4.16,13.81,1.39,6.05,2.52,13.43,3.41,22.14,8.96-11.73,19.36-21.28,31.22-28.66,11.85-7.38,24.78-11.07,38.78-11.07s26.96,4.1,37.74,12.3c10.78,8.2,19.17,19.49,25.16,33.87,5.99,14.38,8.99,30.84,8.99,49.38,0,21.57-3.88,40.27-11.64,56.1-7.76,15.83-18.13,28.09-31.12,36.8-12.99,8.7-27.43,13.05-43.32,13.05-10.09,0-19.2-1.89-27.34-5.68-8.14-3.78-16.68-8.83-25.64-15.14v44.46c0,15.14.38,27.62,1.14,37.46.76,9.84,1.95,18.79,3.59,26.87h-39.73v-184.46c0-23.58-.5-43.67-1.51-60.26-1.01-16.58-3.66-30.24-7.95-40.96Zm44.46,84.19v59.6c8.7,6.05,15.89,10.72,21.57,14,5.68,3.28,10.88,5.55,15.61,6.81,4.73,1.26,10,1.89,15.8,1.89,8.96,0,17.31-2.77,25.07-8.32,7.76-5.55,14.03-13.5,18.82-23.84,4.79-10.34,7.19-22.64,7.19-36.89,0-21.06-3.85-37.84-11.54-50.32-7.69-12.49-18.35-18.73-31.97-18.73-10.85,0-21.88,4.73-33.11,14.19-11.23,9.46-20.37,23.34-27.43,41.62Z"></path><path class="cls-14" d="m1092.86,2280.79v-2.02h3.02v2.18c0,3.74,2.6,6.05,7.94,6.05s8.44-1.97,8.44-6.22c0-3.32-1.39-5.17-4.92-6.09l-6.64-1.72c-4.33-1.13-7.18-2.98-7.18-8.15s3.78-8.91,10.92-8.91,10.59,3.44,10.59,9.07v2.94h-3.02v-2.81c0-4.62-3.07-6.51-7.56-6.51-5.12,0-7.81,2.14-7.81,6.01,0,3.61,1.76,4.71,5.54,5.71l5.75,1.55c5.12,1.39,7.44,3.74,7.44,8.65,0,6.09-4.33,9.24-11.47,9.24-9.12,0-11.05-4.71-11.05-8.99Z"></path><path class="cls-14" d="m1122.56,2256.47h2.94v15.16c1.05-2.1,3.28-3.95,7.31-3.95,4.75,0,7.77,2.52,7.77,7.94v13.61h-2.94v-13.27c0-4.33-2.14-5.71-5.5-5.71-3.82,0-6.64,2.69-6.64,5.63v13.36h-2.94v-32.77Z"></path><path class="cls-14" d="m1146.25,2278.73c0-6.22,3.32-11.05,10.38-11.05,6.6,0,10.25,4.83,10.25,11.05s-3.7,11.05-10.29,11.05c-7.27,0-10.33-4.83-10.33-11.05Zm17.56,0c0-5.33-2.9-8.49-7.23-8.49-4.75,0-7.27,3.15-7.27,8.49s2.56,8.49,7.27,8.49c4.33,0,7.23-3.15,7.23-8.49Z"></path><path class="cls-14" d="m1172.75,2268.23h2.6l.29,3.91c1.01-2.14,3.07-4.45,6.76-4.45,1.26,0,2.18.21,3.02.55v3.15c-1.13-.5-2.1-.76-3.4-.76-3.74,0-6.34,2.81-6.34,5.75v12.85h-2.94v-21Z"></path><path class="cls-14" d="m1201.02,2286.55v2.6c-.76.21-2.14.59-4.03.59-3.82,0-6.34-1.6-6.34-6.89v-12.18h-4.16v-2.44h4.16v-6.05l2.94-1.43v7.48h5.92v2.44h-5.92v11.8c0,2.82.76,4.58,3.4,4.58,1.6,0,3.23-.29,4.03-.5Z"></path><path class="cls-14" d="m1232.77,2279.74h-15.96c.17,4.79,2.48,7.48,6.93,7.48,3.82,0,5.67-1.43,5.96-4.83h2.98c-.29,4.24-3.28,7.39-9.03,7.39-7.06,0-9.83-4.66-9.83-10.88s3.23-11.22,10-11.22,8.95,3.99,8.95,10.21v1.85Zm-3.11-2.98c0-4.45-1.72-6.55-5.92-6.55s-6.55,2.65-6.89,6.97h12.81v-.42Z"></path><path class="cls-14" d="m1254.02,2268.27l-8.07,10.5,8.02,10.42v.04h-3.44l-6.34-8.44-6.43,8.44h-3.28v-.04l8.02-10.38-8.07-10.54v-.04h3.44l6.39,8.49,6.43-8.44v-.04h3.32v.04Z"></path><path class="cls-14" d="m1269.52,2286.55v2.6c-.76.21-2.14.59-4.03.59-3.82,0-6.34-1.6-6.34-6.89v-12.18h-4.16v-2.44h4.16v-6.05l2.94-1.43v7.48h5.92v2.44h-5.92v11.8c0,2.82.76,4.58,3.4,4.58,1.6,0,3.23-.29,4.03-.5Z"></path><path class="cls-14" d="m1290.98,2279.74h-15.96c.17,4.79,2.48,7.48,6.93,7.48,3.82,0,5.67-1.43,5.96-4.83h2.98c-.29,4.24-3.28,7.39-9.03,7.39-7.06,0-9.83-4.66-9.83-10.88s3.23-11.22,10-11.22,8.95,3.99,8.95,10.21v1.85Zm-3.11-2.98c0-4.45-1.72-6.55-5.92-6.55s-6.55,2.65-6.89,6.97h12.81v-.42Z"></path><path class="cls-14" d="m1296.86,2268.23h2.6l.29,3.49c1.01-2.14,3.28-4.03,7.35-4.03,4.75,0,7.77,2.52,7.77,7.94v13.61h-2.94v-13.27c0-4.33-2.14-5.71-5.5-5.71-3.82,0-6.64,2.69-6.64,5.63v13.36h-2.94v-21Z"></path><path class="cls-14" d="m1320.55,2278.77c0-7.1,4.28-11.09,10.04-11.09,3.7,0,6.22,1.6,7.31,3.74h.04v-14.95h2.94v32.77h-1.97l-.67-3.61h-.08c-1.18,2.31-3.95,4.16-7.77,4.16-6.3,0-9.83-3.99-9.83-11.01Zm17.64-.5c0-5.5-3.36-8.07-7.35-8.07-3.11,0-7.14,1.47-7.14,8.4s3.61,8.61,7.14,8.61c4.24,0,7.35-2.73,7.35-8.95Z"></path><path class="cls-14" d="m1365.49,2279.74h-15.96c.17,4.79,2.48,7.48,6.93,7.48,3.82,0,5.67-1.43,5.96-4.83h2.98c-.29,4.24-3.28,7.39-9.03,7.39-7.06,0-9.83-4.66-9.83-10.88s3.23-11.22,10-11.22,8.95,3.99,8.95,10.21v1.85Zm-3.11-2.98c0-4.45-1.72-6.55-5.92-6.55s-6.55,2.65-6.89,6.97h12.81v-.42Z"></path><path class="cls-14" d="m1371.37,2268.23h2.6l.29,3.91c1.01-2.14,3.07-4.45,6.76-4.45,1.26,0,2.18.21,3.02.55v3.15c-1.13-.5-2.1-.76-3.4-.76-3.74,0-6.34,2.81-6.34,5.75v12.85h-2.94v-21Z"></path><path class="cls-14" d="m1386.57,2282.81v-1.18h2.94v1.13c0,2.86,2.14,4.49,5.96,4.49s5.8-1.01,5.8-3.78c0-2.06-1.01-2.81-3.86-3.32l-4.62-.84c-3.02-.55-5.54-2.02-5.54-5.5,0-3.15,2.35-6.13,8.4-6.13s8.4,3.02,8.4,7.23v.88h-2.98v-.76c0-3.45-2.14-4.92-5.42-4.92-3.95,0-5.33,1.34-5.33,3.36s1.01,2.86,3.91,3.4l4.03.76c4.12.76,6.09,1.93,6.09,5.59,0,4.58-4.12,6.55-8.78,6.55-7.31,0-8.99-3.28-8.99-6.97Z"></path><line class="cls-5" x1="1290.84" y1="2192.12" x2="1290.84" y2="2193"></line><line class="cls-2" x1="1290.84" y1="2207.96" x2="1290.84" y2="2233.41"></line><line class="cls-5" x1="1290.84" y1="2240.9" x2="1290.84" y2="2241.77"></line><line class="cls-5" x1="1178.99" y1="2315" x2="1178.99" y2="2315.87"></line><line class="cls-11" x1="1178.99" y1="2335.35" x2="1178.99" y2="2347.04"></line><line class="cls-5" x1="1178.99" y1="2356.77" x2="1178.99" y2="2357.65"></line><polygon class="cls-15" points="997.19 1820.57 983.63 1755.07 1052.14 1775.65 997.19 1820.57"></polygon><polygon class="cls-15" points="1315.19 1820.57 1301.63 1755.07 1370.14 1775.65 1315.19 1820.57"></polygon><path class="cls-14" d="m1079.89,1517.02h8.36c11.05,0,17.39,4.54,17.39,16.42s-6.26,16.34-17.18,16.34h-8.57v-32.77Zm8.65,30.12c9.41,0,14.03-3.74,14.03-13.78s-4.49-13.74-14.07-13.74h-5.67v27.51h5.71Z"></path><path class="cls-14" d="m1129.2,1540.29h-15.96c.17,4.79,2.48,7.48,6.93,7.48,3.82,0,5.67-1.43,5.96-4.83h2.98c-.29,4.24-3.28,7.39-9.03,7.39-7.06,0-9.83-4.66-9.83-10.88s3.23-11.22,10-11.22,8.95,3.99,8.95,10.21v1.85Zm-3.11-2.98c0-4.45-1.72-6.55-5.92-6.55s-6.55,2.65-6.89,6.97h12.81v-.42Z"></path><path class="cls-14" d="m1152.34,1540.29h-15.96c.17,4.79,2.48,7.48,6.93,7.48,3.82,0,5.67-1.43,5.96-4.83h2.98c-.29,4.24-3.28,7.39-9.03,7.39-7.06,0-9.83-4.66-9.83-10.88s3.23-11.22,10-11.22,8.95,3.99,8.95,10.21v1.85Zm-3.11-2.98c0-4.45-1.72-6.55-5.92-6.55s-6.55,2.65-6.89,6.97h12.81v-.42Z"></path><path class="cls-14" d="m1158.22,1528.78h2.39l.34,3.87h.08c1.13-2.48,4.03-4.41,7.86-4.41,6.3,0,9.66,3.99,9.66,11.01s-4.28,11.09-9.87,11.09c-3.78,0-6.39-1.6-7.44-3.7h-.08v11.55h-2.94v-29.41Zm17.18,10.63c0-7.18-3.4-8.61-6.93-8.61-4.24,0-7.56,2.73-7.56,8.44,0,6.01,3.44,8.57,7.43,8.57,3.03,0,7.06-1.47,7.06-8.4Z"></path><path class="cls-14" d="m1197.03,1552.81c0,3.53-1.68,5.84-5.04,5.84-1.18,0-2.02-.13-2.94-.38v-2.6c.8.17,1.47.29,2.27.29,1.93,0,2.77-1.26,2.77-3.65v-23.52h2.94v24.03Zm-2.94-35.79h2.98v6.51h-2.98v-6.51Z"></path><path class="cls-14" d="m1202.74,1539.28c0-6.22,3.32-11.05,10.38-11.05,6.59,0,10.25,4.83,10.25,11.05s-3.7,11.05-10.29,11.05c-7.27,0-10.33-4.83-10.33-11.05Zm17.56,0c0-5.33-2.9-8.49-7.23-8.49-4.75,0-7.27,3.15-7.27,8.49s2.56,8.49,7.27,8.49c4.33,0,7.23-3.15,7.23-8.49Z"></path><path class="cls-14" d="m1229.24,1517.02h2.98v6.51h-2.98v-6.51Zm0,11.76h2.94v21h-2.94v-21Z"></path><path class="cls-14" d="m1239.57,1528.78h2.6l.29,3.49c1.01-2.14,3.28-4.03,7.35-4.03,4.75,0,7.77,2.52,7.77,7.94v13.61h-2.94v-13.27c0-4.33-2.14-5.71-5.5-5.71-3.82,0-6.64,2.69-6.64,5.63v13.36h-2.94v-21Z"></path><path class="cls-14" d="m1263.05,1543.35v-1.18h2.94v1.13c0,2.86,2.14,4.49,5.96,4.49s5.8-1.01,5.8-3.78c0-2.06-1.01-2.81-3.87-3.32l-4.62-.84c-3.02-.55-5.54-2.02-5.54-5.5,0-3.15,2.35-6.13,8.4-6.13s8.4,3.02,8.4,7.23v.88h-2.98v-.76c0-3.45-2.14-4.92-5.42-4.92-3.95,0-5.33,1.34-5.33,3.36s1.01,2.86,3.91,3.4l4.03.76c4.12.76,6.09,1.93,6.09,5.59,0,4.58-4.12,6.55-8.78,6.55-7.31,0-8.99-3.28-8.99-6.97Z"></path><line class="cls-5" x1="1178.99" y1="1583.88" x2="1178.99" y2="1584.75"></line><line class="cls-6" x1="1178.99" y1="1602.22" x2="1178.99" y2="1631.91"></line><line class="cls-5" x1="1178.99" y1="1640.65" x2="1178.99" y2="1641.52"></line><polyline class="cls-10" points="1331.76 1738.12 1331.76 1660.02 1017.89 1660.02 1017.89 1738.12"></polyline><path class="cls-15" d="m861.62,1864.15v-24.03c-3.15-.76-7.09-1.51-11.82-2.27-4.73-.76-11.82-1.14-21.28-1.14-16.4,0-29.3,4.26-38.69,12.77-9.4,8.51-16.02,19.52-19.87,33.01-3.85,13.5-5.77,27.88-5.77,43.14s2.71,26.65,8.14,36.04c5.42,9.4,11.85,14.09,19.3,14.09,6.68,0,13.37-2.93,20.05-8.8,6.68-5.86,13.02-13.43,19.01-22.7,5.99-9.27,11.29-19.04,15.89-29.32,4.6-10.28,8.26-19.96,10.97-29.04,2.71-9.08,4.07-16.33,4.07-21.76Z"></path><g class="cls-13"><path class="cls-17" d="m1196.49,2447.19v212.84c0,8.07.16,17.85.47,29.32.31,11.48.76,22.7,1.32,33.68.57,10.97,1.23,19.93,1.99,26.87h-38.78v-213.79c0-36.96-1.26-66.6-3.78-88.92h38.78Z"></path></g><g class="cls-19"><path class="cls-17" d="m1310,1987.13v44.46c0,15.14.38,27.62,1.14,37.46.76,9.84,1.95,18.79,3.59,26.87h-39.73v-184.46c0-23.58-.5-43.67-1.51-60.26m141.42-32.45-111.15,5.3,6.24,70.38v59.6c8.7,6.05,15.89,10.72,21.57,14,5.68,3.28,10.88,5.55,15.61,6.81,4.73,1.26,10,1.89,15.8,1.89,8.96,0,17.31-2.77,25.07-8.32,7.76-5.55,14.03-13.5,18.82-23.84,4.79-10.34,7.19-22.64,7.19-36.89,0-21.06-3.85-37.84-11.54-50.32-7.69-12.49-18.35-18.73-31.97-18.73-10.85,0-21.88,4.73-33.11,14.19-11.23,9.46-20.37,23.34-27.43,41.62Z"></path></g><path class="cls-14" d="m135.48,2280.79v-2.02h3.02v2.18c0,3.74,2.6,6.05,7.94,6.05s8.44-1.97,8.44-6.22c0-3.32-1.39-5.17-4.92-6.09l-6.64-1.72c-4.33-1.13-7.18-2.98-7.18-8.15s3.78-8.91,10.92-8.91,10.59,3.44,10.59,9.07v2.94h-3.02v-2.81c0-4.62-3.07-6.51-7.56-6.51-5.12,0-7.81,2.14-7.81,6.01,0,3.61,1.76,4.71,5.54,5.71l5.75,1.55c5.12,1.39,7.44,3.74,7.44,8.65,0,6.09-4.33,9.24-11.47,9.24-9.12,0-11.05-4.71-11.05-8.99Z"></path><path class="cls-14" d="m165.18,2256.47h2.98v6.51h-2.98v-6.51Zm0,11.76h2.94v21h-2.94v-21Z"></path><path class="cls-14" d="m175.51,2268.23h2.6l.29,3.49c1.01-2.14,3.28-4.03,7.35-4.03,4.75,0,7.77,2.52,7.77,7.94v13.61h-2.94v-13.27c0-4.33-2.14-5.71-5.5-5.71-3.82,0-6.64,2.69-6.64,5.63v13.36h-2.94v-21Z"></path><path class="cls-14" d="m200.25,2291.04v-.13h3.11v.13c0,2.9,1.93,4.33,6.13,4.33,4.79,0,7.01-2.94,7.01-7.86v-2.1h-.08c-1.09,2.18-3.65,4.07-7.48,4.07-6.3,0-9.75-3.99-9.75-10.71,0-7.1,4.37-11.09,9.96-11.09,3.78,0,6.55,1.81,7.56,4.12h.13l.29-3.57h2.31v19.16c0,5.88-2.81,10.71-10.33,10.71-6.3,0-8.86-2.98-8.86-7.06Zm16.59-12.77c0-5.5-3.36-8.07-7.35-8.07-3.02,0-7.14,1.47-7.14,8.4s3.57,8.32,7.1,8.32c4.24,0,7.39-2.73,7.39-8.65Z"></path><path class="cls-14" d="m226.79,2256.47h2.94v32.77h-2.94v-32.77Z"></path><path class="cls-14" d="m254.35,2279.74h-15.96c.17,4.79,2.48,7.48,6.93,7.48,3.82,0,5.67-1.43,5.96-4.83h2.98c-.29,4.24-3.28,7.39-9.03,7.39-7.06,0-9.83-4.66-9.83-10.88s3.23-11.22,10-11.22,8.95,3.99,8.95,10.21v1.85Zm-3.11-2.98c0-4.45-1.72-6.55-5.92-6.55s-6.55,2.65-6.89,6.97h12.81v-.42Z"></path><path class="cls-14" d="m258.54,2275.75h10.59v2.81h-10.59v-2.81Z"></path><path class="cls-14" d="m273.12,2282.81v-1.18h2.94v1.13c0,2.86,2.14,4.49,5.96,4.49s5.8-1.01,5.8-3.78c0-2.06-1.01-2.81-3.86-3.32l-4.62-.84c-3.02-.55-5.54-2.02-5.54-5.5,0-3.15,2.35-6.13,8.4-6.13s8.4,3.02,8.4,7.23v.88h-2.98v-.76c0-3.45-2.14-4.92-5.42-4.92-3.95,0-5.33,1.34-5.33,3.36s1.01,2.86,3.91,3.4l4.03.76c4.12.76,6.09,1.93,6.09,5.59,0,4.58-4.12,6.55-8.78,6.55-7.31,0-8.99-3.28-8.99-6.97Z"></path><path class="cls-14" d="m307.73,2286.54v2.6c-.76.21-2.14.59-4.03.59-3.82,0-6.34-1.6-6.34-6.89v-12.18h-4.16v-2.44h4.16v-6.05l2.94-1.43v7.48h5.92v2.44h-5.92v11.8c0,2.82.76,4.58,3.4,4.58,1.6,0,3.23-.29,4.03-.5Z"></path><path class="cls-14" d="m310.25,2278.73c0-6.22,3.32-11.05,10.38-11.05,6.59,0,10.25,4.83,10.25,11.05s-3.7,11.05-10.29,11.05c-7.27,0-10.33-4.83-10.33-11.05Zm17.56,0c0-5.33-2.9-8.49-7.23-8.49-4.75,0-7.27,3.15-7.27,8.49s2.56,8.49,7.27,8.49c4.33,0,7.23-3.15,7.23-8.49Z"></path><path class="cls-14" d="m336.75,2268.23h2.6l.29,3.91c1.01-2.14,3.07-4.45,6.76-4.45,1.26,0,2.18.21,3.02.55v3.15c-1.13-.5-2.1-.76-3.4-.76-3.74,0-6.34,2.81-6.34,5.75v12.85h-2.94v-21Z"></path><path class="cls-14" d="m370.69,2279.74h-15.96c.17,4.79,2.48,7.48,6.93,7.48,3.82,0,5.67-1.43,5.96-4.83h2.98c-.29,4.24-3.28,7.39-9.03,7.39-7.06,0-9.83-4.66-9.83-10.88s3.23-11.22,10-11.22,8.95,3.99,8.95,10.21v1.85Zm-3.11-2.98c0-4.45-1.72-6.55-5.92-6.55s-6.55,2.65-6.89,6.97h12.81v-.42Z"></path><path class="cls-14" d="m375.93,2268.23l6.89,17.98h.08l7.14-17.98h3.07v.04l-8.86,20.84-3.11,8.53h-2.98v-.04l3.19-8.36-8.78-20.96v-.04h3.36Z"></path><path class="cls-14" d="m408.65,2266.93h-3.36v-5.08c0-3.95.88-5.29,3.4-5.96l.67,1.85c-1.76.67-2.06,1.09-2.06,3.78v.34h1.34v5.08Zm5.92,0h-3.36v-5.08c0-3.95.88-5.29,3.4-5.96l.67,1.85c-1.76.67-2.06,1.09-2.06,3.78v.34h1.34v5.08Z"></path><path class="cls-14" d="m418.23,2283.44c0-3.95,2.23-6.09,7.86-6.09h6.34v-1.72c0-2.98-1.26-5.42-5.46-5.42-3.95,0-5.33,1.51-5.33,4.12v.88h-2.98v-.84c0-5,4.2-6.68,8.32-6.68,5.8,0,8.4,2.86,8.4,8.44v13.11h-2.06l-.55-2.98h-.08c-1.26,1.89-3.7,3.53-7.35,3.53-4.91,0-7.1-2.31-7.1-6.34Zm14.2-1.85v-1.76h-7.02c-2.65,0-4.03.92-4.03,3.61,0,2.35,1.26,3.86,4.5,3.86,4.16,0,6.55-2.14,6.55-5.71Z"></path><path class="cls-14" d="m438.3,2265.67c1.76-.67,2.06-1.09,2.06-3.78v-.34h-1.34v-5.08h3.36v5.08c0,3.95-.88,5.29-3.4,5.96l-.67-1.85Zm5.92,0c1.76-.67,2.06-1.09,2.06-3.78v-.34h-1.34v-5.08h3.36v5.08c0,3.95-.88,5.29-3.4,5.96l-.67-1.85Z"></path><path class="cls-14" d="m461.11,2268.27v-.04h2.98l5.75,17.48h.08l6.3-17.48h2.69l6.18,17.48h.08l5.75-17.48h2.86v.04l-7.18,20.96h-3.02l-5.96-17.05h-.08l-6.22,17.05h-3.02l-7.18-20.96Z"></path><path class="cls-14" d="m498.62,2256.47h2.98v6.51h-2.98v-6.51Zm0,11.76h2.94v21h-2.94v-21Z"></path><path class="cls-14" d="m519.91,2286.54v2.6c-.76.21-2.14.59-4.03.59-3.82,0-6.34-1.6-6.34-6.89v-12.18h-4.16v-2.44h4.16v-6.05l2.94-1.43v7.48h5.92v2.44h-5.92v11.8c0,2.82.76,4.58,3.4,4.58,1.6,0,3.23-.29,4.03-.5Z"></path><path class="cls-14" d="m524.74,2256.47h2.94v15.16c1.05-2.1,3.28-3.95,7.31-3.95,4.75,0,7.77,2.52,7.77,7.94v13.61h-2.94v-13.27c0-4.33-2.14-5.71-5.5-5.71-3.82,0-6.64,2.69-6.64,5.63v13.36h-2.94v-32.77Z"></path><path class="cls-14" d="m558.51,2283.44c0-3.95,2.23-6.09,7.86-6.09h6.34v-1.72c0-2.98-1.26-5.42-5.46-5.42-3.95,0-5.33,1.51-5.33,4.12v.88h-2.98v-.84c0-5,4.2-6.68,8.32-6.68,5.8,0,8.4,2.86,8.4,8.44v13.11h-2.06l-.55-2.98h-.08c-1.26,1.89-3.7,3.53-7.35,3.53-4.92,0-7.1-2.31-7.1-6.34Zm14.2-1.85v-1.76h-7.01c-2.65,0-4.03.92-4.03,3.61,0,2.35,1.26,3.86,4.5,3.86,4.16,0,6.55-2.14,6.55-5.71Z"></path><path class="cls-14" d="m582.99,2256.47h2.94v32.77h-2.94v-32.77Z"></path><path class="cls-14" d="m623.99,2275.62v13.61h-2.94v-13.27c0-4.33-2.14-5.71-4.75-5.71-3.82,0-6.18,2.69-6.18,5.63v13.36h-2.94v-13.27c0-4.33-1.85-5.71-4.83-5.71-3.61,0-6.13,2.69-6.13,5.63v13.36h-2.94v-21h2.6l.29,3.49c1.01-2.02,3.07-4.03,6.93-4.03,2.94,0,5.38,1.39,6.43,4.29,1.22-2.39,3.57-4.29,7.14-4.29,4.28,0,7.31,2.52,7.31,7.94Z"></path><path class="cls-14" d="m629.66,2278.73c0-6.22,3.32-11.05,10.38-11.05,6.59,0,10.25,4.83,10.25,11.05s-3.7,11.05-10.29,11.05c-7.27,0-10.33-4.83-10.33-11.05Zm17.56,0c0-5.33-2.9-8.49-7.23-8.49-4.75,0-7.27,3.15-7.27,8.49s2.56,8.49,7.27,8.49c4.33,0,7.23-3.15,7.23-8.49Z"></path><path class="cls-14" d="m656.16,2268.23h2.6l.29,3.49c1.01-2.14,3.28-4.03,7.35-4.03,4.75,0,7.77,2.52,7.77,7.94v13.61h-2.94v-13.27c0-4.33-2.14-5.71-5.5-5.71-3.82,0-6.64,2.69-6.64,5.63v13.36h-2.94v-21Z"></path><path class="cls-14" d="m679.85,2278.77c0-7.1,4.28-11.09,10.04-11.09,3.7,0,6.22,1.6,7.31,3.74h.04v-14.95h2.94v32.77h-1.97l-.67-3.61h-.08c-1.18,2.31-3.95,4.16-7.77,4.16-6.3,0-9.83-3.99-9.83-11.01Zm17.64-.5c0-5.5-3.36-8.07-7.35-8.07-3.11,0-7.14,1.47-7.14,8.4s3.61,8.61,7.14,8.61c4.24,0,7.35-2.73,7.35-8.95Z"></path><path class="cls-14" d="m705.84,2275.75h10.58v2.81h-10.58v-2.81Z"></path><path class="cls-14" d="m720.42,2282.81v-1.18h2.94v1.13c0,2.86,2.14,4.49,5.96,4.49s5.8-1.01,5.8-3.78c0-2.06-1.01-2.81-3.86-3.32l-4.62-.84c-3.02-.55-5.54-2.02-5.54-5.5,0-3.15,2.35-6.13,8.4-6.13s8.4,3.02,8.4,7.23v.88h-2.98v-.76c0-3.45-2.14-4.92-5.42-4.92-3.95,0-5.33,1.34-5.33,3.36s1.01,2.86,3.91,3.4l4.03.76c4.12.76,6.09,1.93,6.09,5.59,0,4.58-4.12,6.55-8.78,6.55-7.31,0-8.99-3.28-8.99-6.97Z"></path><path class="cls-14" d="m744.06,2256.47h2.94v15.16c1.05-2.1,3.28-3.95,7.31-3.95,4.75,0,7.77,2.52,7.77,7.94v13.61h-2.94v-13.27c0-4.33-2.14-5.71-5.5-5.71-3.82,0-6.64,2.69-6.64,5.63v13.36h-2.94v-32.77Z"></path><path class="cls-14" d="m768.17,2283.44c0-3.95,2.23-6.09,7.86-6.09h6.34v-1.72c0-2.98-1.26-5.42-5.46-5.42-3.95,0-5.33,1.51-5.33,4.12v.88h-2.98v-.84c0-5,4.2-6.68,8.32-6.68,5.8,0,8.4,2.86,8.4,8.44v13.11h-2.06l-.55-2.98h-.08c-1.26,1.89-3.7,3.53-7.35,3.53-4.92,0-7.1-2.31-7.1-6.34Zm14.2-1.85v-1.76h-7.01c-2.65,0-4.03.92-4.03,3.61,0,2.35,1.26,3.86,4.5,3.86,4.16,0,6.55-2.14,6.55-5.71Z"></path><path class="cls-14" d="m792.66,2268.23h2.39l.34,3.87h.08c1.13-2.48,4.03-4.41,7.86-4.41,6.3,0,9.66,3.99,9.66,11.01s-4.29,11.09-9.87,11.09c-3.78,0-6.38-1.6-7.44-3.7h-.08v11.55h-2.94v-29.41Zm17.18,10.63c0-7.18-3.4-8.61-6.93-8.61-4.24,0-7.56,2.73-7.56,8.44,0,6.01,3.44,8.57,7.44,8.57,3.02,0,7.06-1.47,7.06-8.4Z"></path><path class="cls-14" d="m836.13,2279.74h-15.96c.17,4.79,2.48,7.48,6.93,7.48,3.82,0,5.67-1.43,5.96-4.83h2.98c-.29,4.24-3.28,7.39-9.03,7.39-7.06,0-9.83-4.66-9.83-10.88s3.23-11.22,10-11.22,8.95,3.99,8.95,10.21v1.85Zm-3.11-2.98c0-4.45-1.72-6.55-5.92-6.55s-6.55,2.65-6.89,6.97h12.81v-.42Z"></path><path class="cls-14" d="m840.33,2278.77c0-7.1,4.29-11.09,10.04-11.09,3.7,0,6.22,1.6,7.31,3.74h.04v-14.95h2.94v32.77h-1.97l-.67-3.61h-.08c-1.18,2.31-3.95,4.16-7.77,4.16-6.3,0-9.83-3.99-9.83-11.01Zm17.64-.5c0-5.5-3.36-8.07-7.35-8.07-3.11,0-7.14,1.47-7.14,8.4s3.61,8.61,7.14,8.61c4.24,0,7.35-2.73,7.35-8.95Z"></path><path class="cls-14" d="m880.48,2285.75h-.08l-.76,3.49h-1.97v-32.77h2.94v15.25h.04c1.26-2.31,4.08-4.03,7.69-4.03,6.3,0,9.66,3.99,9.66,11.01s-4.29,11.09-9.87,11.09c-3.78,0-6.55-1.64-7.65-4.03Zm14.37-6.89c0-7.18-3.4-8.61-6.93-8.61-4.24,0-7.56,2.73-7.56,8.44,0,6.01,3.44,8.57,7.44,8.57,3.02,0,7.06-1.47,7.06-8.4Z"></path><path class="cls-14" d="m902.19,2278.73c0-6.22,3.32-11.05,10.38-11.05,6.59,0,10.25,4.83,10.25,11.05s-3.7,11.05-10.29,11.05c-7.27,0-10.33-4.83-10.33-11.05Zm17.56,0c0-5.33-2.9-8.49-7.22-8.49-4.75,0-7.27,3.15-7.27,8.49s2.56,8.49,7.27,8.49c4.33,0,7.22-3.15,7.22-8.49Z"></path><path class="cls-14" d="m925.12,2268.27v-.04h2.98l5.76,17.48h.08l6.3-17.48h2.69l6.17,17.48h.08l5.75-17.48h2.86v.04l-7.18,20.96h-3.02l-5.96-17.05h-.08l-6.22,17.05h-3.02l-7.18-20.96Z"></path><path class="cls-14" d="m962.63,2256.47h2.94v32.77h-2.94v-32.77Z"></path><line class="cls-5" x1="790.37" y1="2022.98" x2="790.37" y2="2023.85"></line><line class="cls-9" x1="790.37" y1="2041.93" x2="790.37" y2="2231.71"></line><line class="cls-5" x1="790.37" y1="2240.75" x2="790.37" y2="2241.62"></line><polygon class="cls-18" points="1298.89 604.3 1351.22 604.3 1352.16 202.44 1299.82 202.44 1298.89 604.3"></polygon><path class="cls-14" d="m613.31,234.19v276.22h-38.78c1.39-7.57,2.2-18.51,2.46-32.82.25-14.31.38-30.81.38-49.47v-111.62c0-18.66-.13-35.16-.38-49.47-.25-14.31-1.07-25.26-2.46-32.82h38.78Zm105.95,0h45.41l-120.14,136.22-19.87-.95-24.59,7.95,119.19-143.22Zm-108.78,137.16l25.54-23.65,140.95,162.7h-46.35l-120.14-139.06Z"></path><path class="cls-14" d="m821.42,255.95c0-7.06,2.2-13.08,6.62-18.07,4.41-4.98,10.09-7.47,17.03-7.47s12.93,2.49,17.59,7.47c4.66,4.98,7,11,7,18.07s-2.34,12.93-7,17.97c-4.67,5.05-10.53,7.57-17.59,7.57s-12.61-2.52-17.03-7.57c-4.42-5.04-6.62-11.04-6.62-17.97Zm3.78,61.49h37.84v103.11c0,8.07.16,17.88.47,29.42.31,11.54.76,22.8,1.32,33.77s1.23,19.87,1.99,26.68h-38.78v-100.27c0-18.41-.16-35.98-.47-52.69-.32-16.71-1.11-30.05-2.36-40.01Z"></path><path class="cls-15" d="m1165.75,217.17l-8.51,30.27c-10.22-7.57-21.26-11.35-33.11-11.35-9.84,0-17.34,3.44-22.51,10.31-5.17,6.88-7.76,16.05-7.76,27.53v136.22c0,23.84,1.35,43.86,4.07,60.07,2.71,16.21,6.08,29.61,10.12,40.2h-34.05c-1.39-3.28-3.06-8.2-5.01-14.76-1.96-6.56-3.75-13.31-5.39-20.24-8.96,12.74-19.23,22.55-30.84,29.42-11.61,6.87-24.34,10.31-38.22,10.31-15.39,0-28.76-3.78-40.11-11.35-11.35-7.57-20.12-18.26-26.3-32.07-6.18-13.81-9.27-29.92-9.27-48.34,0-22.32,3.97-41.69,11.92-58.08,7.95-16.39,18.7-29.1,32.26-38.12,13.56-9.02,28.79-13.53,45.69-13.53,8.07,0,16.62,1.64,25.64,4.92,9.02,3.28,17.18,7,24.5,11.16v-48.24c0-24.59,6.02-43.67,18.07-57.23,12.04-13.56,27.78-20.34,47.2-20.34,15.26,0,29.14,4.42,41.62,13.24Zm-106.89,217.57v-74.73c-9.34-5.04-17.63-8.67-24.88-10.88-7.25-2.2-15.67-3.31-25.26-3.31s-18.54,2.87-26.87,8.61c-8.32,5.74-15.07,13.97-20.24,24.69-5.17,10.72-7.76,23.59-7.76,38.59,0,21.95,3.78,38.63,11.35,50.04,7.57,11.42,19.55,17.12,35.95,17.12,7.69,0,15.29-2.43,22.8-7.28,7.5-4.85,14.35-11.13,20.53-18.82,6.18-7.69,10.97-15.7,14.38-24.03Z"></path><path class="cls-14" d="m1345.48,510.41h-33.11c-1.77-4.04-3.31-9.93-4.64-17.69-1.32-7.76-2.3-15.77-2.93-24.03-.63-8.26-.95-15.16-.95-20.72v-15.14c-4.92,12.99-11.23,25.82-18.92,38.5-7.69,12.68-16.71,23.15-27.05,31.41-10.34,8.26-22.14,12.39-35.38,12.39-15.89,0-29.32-7.03-40.3-21.09-10.97-14.06-16.46-34.46-16.46-61.2,0-15.01,2.02-29.61,6.05-43.8,4.04-14.19,10.22-26.96,18.54-38.31,8.32-11.35,18.92-20.37,31.78-27.05,12.86-6.68,28.12-10.03,45.78-10.03,12.23,0,23.77.79,34.62,2.36,10.85,1.58,21.06,3.63,30.65,6.15v87.97c0,23.84,1.14,43.86,3.41,60.07,2.27,16.21,5.23,29.61,8.89,40.2Zm-47.3-139.06v-24.03c-3.15-.76-7.09-1.51-11.82-2.27s-11.82-1.14-21.28-1.14c-16.4,0-29.3,4.26-38.69,12.77-9.4,8.51-16.02,19.52-19.87,33.01-3.85,13.5-5.77,27.88-5.77,43.14s2.71,26.65,8.14,36.04c5.42,9.4,11.85,14.09,19.3,14.09,6.68,0,13.37-2.93,20.05-8.8,6.68-5.86,13.02-13.43,19.01-22.7,5.99-9.27,11.29-19.04,15.89-29.32,4.6-10.28,8.26-19.96,10.97-29.04,2.71-9.08,4.07-16.33,4.07-21.76Z"></path><path class="cls-14" d="m788.72,3027.86v-19.95h2.94v19.95c0,9.41,4.07,10.63,8.86,10.63s8.78-1.01,8.78-10.63v-19.95h2.94v19.62c0,11.64-5.33,13.69-11.76,13.69s-11.76-2.06-11.76-13.36Z"></path><path class="cls-14" d="m820.43,3019.67h2.6l.29,3.49c1.01-2.14,3.28-4.03,7.35-4.03,4.75,0,7.77,2.52,7.77,7.94v13.61h-2.94v-13.27c0-4.33-2.14-5.71-5.5-5.71-3.82,0-6.64,2.69-6.64,5.63v13.36h-2.94v-21Z"></path><path class="cls-14" d="m848.74,3043.7c0,3.53-1.68,5.84-5.04,5.84-1.18,0-2.02-.13-2.94-.38v-2.6c.8.17,1.47.29,2.27.29,1.93,0,2.77-1.26,2.77-3.65v-23.52h2.94v24.03Zm-2.94-35.79h2.98v6.51h-2.98v-6.51Z"></path><path class="cls-14" d="m854.45,3030.17c0-6.22,3.32-11.05,10.38-11.05,6.6,0,10.25,4.83,10.25,11.05s-3.7,11.05-10.29,11.05c-7.27,0-10.33-4.83-10.33-11.05Zm17.56,0c0-5.33-2.9-8.49-7.23-8.49-4.75,0-7.27,3.15-7.27,8.49s2.56,8.49,7.27,8.49c4.33,0,7.23-3.15,7.23-8.49Z"></path><path class="cls-14" d="m880.95,3007.91h2.98v6.51h-2.98v-6.51Zm0,11.76h2.94v21h-2.94v-21Z"></path><path class="cls-14" d="m891.28,3019.67h2.6l.29,3.49c1.01-2.14,3.28-4.03,7.35-4.03,4.75,0,7.77,2.52,7.77,7.94v13.61h-2.94v-13.27c0-4.33-2.14-5.71-5.5-5.71-3.82,0-6.64,2.69-6.64,5.63v13.36h-2.94v-21Z"></path><path class="cls-14" d="m933.92,3031.18h-15.96c.17,4.79,2.48,7.48,6.93,7.48,3.82,0,5.67-1.43,5.96-4.83h2.98c-.29,4.24-3.28,7.39-9.03,7.39-7.06,0-9.83-4.66-9.83-10.88s3.23-11.22,10-11.22,8.95,3.99,8.95,10.21v1.85Zm-3.11-2.98c0-4.45-1.72-6.55-5.92-6.55s-6.55,2.65-6.89,6.97h12.81v-.42Z"></path><path class="cls-14" d="m938.11,3030.21c0-7.1,4.28-11.09,10.04-11.09,3.7,0,6.22,1.6,7.31,3.74h.04v-14.95h2.94v32.77h-1.97l-.67-3.61h-.08c-1.18,2.31-3.95,4.16-7.77,4.16-6.3,0-9.83-3.99-9.83-11.01Zm17.64-.5c0-5.5-3.36-8.07-7.35-8.07-3.11,0-7.14,1.47-7.14,8.4s3.61,8.61,7.14,8.61c4.24,0,7.35-2.73,7.35-8.95Z"></path><path class="cls-14" d="m975.45,3007.91h2.94v32.77h-2.94v-32.77Z"></path><path class="cls-14" d="m1003.01,3031.18h-15.96c.17,4.79,2.48,7.48,6.93,7.48,3.82,0,5.67-1.43,5.96-4.83h2.98c-.29,4.24-3.28,7.39-9.03,7.39-7.06,0-9.83-4.66-9.83-10.88s3.23-11.22,10-11.22,8.95,3.99,8.95,10.21v1.85Zm-3.11-2.98c0-4.45-1.72-6.55-5.92-6.55s-6.55,2.65-6.89,6.97h12.81v-.42Z"></path><path class="cls-14" d="m1009.47,3034.29v-12.18h-4.16v-2.44h4.16v-6.05l2.94-1.43v7.48h11.85v-6.05l2.94-1.43v7.48h5.92v2.44h-5.92v11.8c0,2.82.76,4.58,3.4,4.58,1.6,0,3.23-.29,4.03-.5v2.6c-.76.21-2.14.59-4.03.59-3.82,0-6.34-1.6-6.34-6.89v-12.18h-11.85v11.8c0,2.82.76,4.58,3.4,4.58,1.6,0,3.23-.29,4.03-.5v2.6c-.76.21-2.14.59-4.03.59-3.82,0-6.34-1.6-6.34-6.89Z"></path><path class="cls-14" d="m1056.1,3031.18h-15.96c.17,4.79,2.48,7.48,6.93,7.48,3.82,0,5.67-1.43,5.96-4.83h2.98c-.29,4.24-3.28,7.39-9.03,7.39-7.06,0-9.83-4.66-9.83-10.88s3.23-11.22,10-11.22,8.95,3.99,8.95,10.21v1.85Zm-3.11-2.98c0-4.45-1.72-6.55-5.92-6.55s-6.55,2.65-6.89,6.97h12.81v-.42Z"></path><path class="cls-14" d="m1061.97,3019.67h2.6l.29,3.91c1.01-2.14,3.07-4.45,6.76-4.45,1.26,0,2.18.21,3.02.55v3.15c-1.13-.5-2.1-.76-3.4-.76-3.74,0-6.34,2.81-6.34,5.75v12.85h-2.94v-21Z"></path><path class="cls-14" d="m1077.18,3034.25v-1.18h2.94v1.13c0,2.86,2.14,4.49,5.96,4.49s5.8-1.01,5.8-3.78c0-2.06-1.01-2.81-3.86-3.32l-4.62-.84c-3.02-.55-5.54-2.02-5.54-5.5,0-3.15,2.35-6.13,8.4-6.13s8.4,3.02,8.4,7.23v.88h-2.98v-.76c0-3.45-2.14-4.92-5.42-4.92-3.95,0-5.33,1.34-5.33,3.36s1.01,2.86,3.91,3.4l4.03.76c4.12.76,6.09,1.93,6.09,5.59,0,4.58-4.12,6.55-8.78,6.55-7.31,0-8.99-3.28-8.99-6.97Z"></path><line class="cls-5" x1="908.8" y1="2732.87" x2="908.8" y2="2733.74"></line><line class="cls-8" x1="908.8" y1="2751.76" x2="908.8" y2="2980.63"></line><line class="cls-5" x1="908.8" y1="2989.64" x2="908.8" y2="2990.51"></line><path class="cls-14" d="m359.48,1541.34v-2.02h3.02v2.18c0,3.74,2.6,6.05,7.94,6.05s8.44-1.97,8.44-6.22c0-3.32-1.39-5.17-4.92-6.09l-6.64-1.72c-4.33-1.13-7.18-2.98-7.18-8.15s3.78-8.91,10.92-8.91,10.59,3.44,10.59,9.07v2.94h-3.02v-2.81c0-4.62-3.07-6.51-7.56-6.51-5.12,0-7.81,2.14-7.81,6.01,0,3.61,1.76,4.71,5.54,5.71l5.75,1.55c5.12,1.39,7.44,3.74,7.44,8.65,0,6.09-4.33,9.24-11.47,9.24-9.12,0-11.05-4.71-11.05-8.99Z"></path><path class="cls-14" d="m389.17,1517.02h2.94v15.16c1.05-2.1,3.28-3.95,7.31-3.95,4.75,0,7.77,2.52,7.77,7.94v13.61h-2.94v-13.27c0-4.33-2.14-5.71-5.5-5.71-3.82,0-6.64,2.69-6.64,5.63v13.36h-2.94v-32.77Z"></path><path class="cls-14" d="m412.86,1539.28c0-6.22,3.32-11.05,10.38-11.05,6.59,0,10.25,4.83,10.25,11.05s-3.7,11.05-10.29,11.05c-7.27,0-10.33-4.83-10.33-11.05Zm17.56,0c0-5.33-2.9-8.49-7.23-8.49-4.75,0-7.27,3.15-7.27,8.49s2.56,8.49,7.27,8.49c4.33,0,7.23-3.15,7.23-8.49Z"></path><path class="cls-14" d="m439.36,1528.78h2.6l.29,3.91c1.01-2.14,3.07-4.45,6.76-4.45,1.26,0,2.18.21,3.02.55v3.15c-1.13-.5-2.1-.76-3.4-.76-3.74,0-6.34,2.81-6.34,5.75v12.85h-2.94v-21Z"></path><path class="cls-14" d="m467.63,1547.09v2.6c-.76.21-2.14.59-4.03.59-3.82,0-6.34-1.6-6.34-6.89v-12.18h-4.16v-2.44h4.16v-6.05l2.94-1.43v7.48h5.92v2.44h-5.92v11.8c0,2.82.76,4.58,3.4,4.58,1.6,0,3.23-.29,4.03-.5Z"></path><path class="cls-14" d="m481.7,1542.39v-13.61h2.94v13.27c0,4.33,2.14,5.71,5.42,5.71,3.74,0,6.55-2.69,6.55-5.63v-13.36h2.94v21h-2.6l-.25-3.36h-.08c-.97,2.02-3.24,3.91-7.23,3.91-4.66,0-7.69-2.52-7.69-7.94Z"></path><path class="cls-14" d="m506.9,1528.78h2.39l.34,3.87h.08c1.13-2.48,4.03-4.41,7.86-4.41,6.3,0,9.66,3.99,9.66,11.01s-4.29,11.09-9.87,11.09c-3.78,0-6.38-1.6-7.44-3.7h-.08v11.55h-2.94v-29.41Zm17.18,10.63c0-7.18-3.4-8.61-6.93-8.61-4.24,0-7.56,2.73-7.56,8.44,0,6.01,3.44,8.57,7.44,8.57,3.02,0,7.06-1.47,7.06-8.4Z"></path><path class="cls-14" d="m533.11,1528.78h2.39l.34,3.87h.08c1.13-2.48,4.03-4.41,7.86-4.41,6.3,0,9.66,3.99,9.66,11.01s-4.29,11.09-9.87,11.09c-3.78,0-6.38-1.6-7.44-3.7h-.08v11.55h-2.94v-29.41Zm17.18,10.63c0-7.18-3.4-8.61-6.93-8.61-4.24,0-7.56,2.73-7.56,8.44,0,6.01,3.44,8.57,7.44,8.57,3.02,0,7.06-1.47,7.06-8.4Z"></path><path class="cls-14" d="m576.58,1540.29h-15.96c.17,4.79,2.48,7.48,6.93,7.48,3.82,0,5.67-1.43,5.96-4.83h2.98c-.29,4.24-3.28,7.39-9.03,7.39-7.06,0-9.83-4.66-9.83-10.88s3.23-11.22,10-11.22,8.95,3.99,8.95,10.21v1.85Zm-3.11-2.98c0-4.45-1.72-6.55-5.92-6.55s-6.55,2.65-6.89,6.97h12.81v-.42Z"></path><path class="cls-14" d="m582.46,1528.78h2.6l.29,3.91c1.01-2.14,3.07-4.45,6.76-4.45,1.26,0,2.18.21,3.02.55v3.15c-1.13-.5-2.1-.76-3.4-.76-3.74,0-6.34,2.81-6.34,5.75v12.85h-2.94v-21Z"></path><path class="cls-14" d="m597.45,1539.45c0-6.38,3.23-11.22,10-11.22s8.95,3.91,8.95,8.95v.42h-3.11v-.63c0-3.82-1.64-6.09-5.84-6.09-4.75,0-7.02,3.11-7.02,8.4,0,5.63,2.39,8.49,6.93,8.49,3.82,0,5.84-1.85,5.92-5.67h3.02c-.08,4.66-3.15,8.23-9.03,8.23-7.23,0-9.83-4.75-9.83-10.88Z"></path><path class="cls-14" d="m620.8,1543.98c0-3.95,2.23-6.09,7.86-6.09h6.34v-1.72c0-2.98-1.26-5.42-5.46-5.42-3.95,0-5.33,1.51-5.33,4.12v.88h-2.98v-.84c0-5,4.2-6.68,8.32-6.68,5.8,0,8.4,2.86,8.4,8.44v13.11h-2.06l-.55-2.98h-.08c-1.26,1.89-3.7,3.53-7.35,3.53-4.91,0-7.1-2.31-7.1-6.34Zm14.2-1.85v-1.76h-7.02c-2.65,0-4.03.92-4.03,3.61,0,2.35,1.26,3.86,4.5,3.86,4.16,0,6.55-2.14,6.55-5.71Z"></path><path class="cls-14" d="m643.4,1543.35v-1.18h2.94v1.13c0,2.86,2.14,4.49,5.96,4.49s5.8-1.01,5.8-3.78c0-2.06-1.01-2.81-3.86-3.32l-4.62-.84c-3.02-.55-5.54-2.02-5.54-5.5,0-3.15,2.35-6.13,8.4-6.13s8.4,3.02,8.4,7.23v.88h-2.98v-.76c0-3.45-2.14-4.92-5.42-4.92-3.95,0-5.33,1.34-5.33,3.36s1.01,2.86,3.91,3.4l4.03.76c4.12.76,6.09,1.93,6.09,5.59,0,4.58-4.12,6.55-8.78,6.55-7.31,0-8.99-3.28-8.99-6.97Z"></path><path class="cls-14" d="m684.31,1540.29h-15.96c.17,4.79,2.48,7.48,6.93,7.48,3.82,0,5.67-1.43,5.96-4.83h2.98c-.29,4.24-3.28,7.39-9.03,7.39-7.06,0-9.83-4.66-9.83-10.88s3.23-11.22,10-11.22,8.95,3.99,8.95,10.21v1.85Zm-3.11-2.98c0-4.45-1.72-6.55-5.92-6.55s-6.55,2.65-6.89,6.97h12.81v-.42Z"></path><path class="cls-14" d="m699.85,1517.02h2.94v32.77h-2.94v-32.77Z"></path><path class="cls-14" d="m727.4,1540.29h-15.96c.17,4.79,2.48,7.48,6.93,7.48,3.82,0,5.67-1.43,5.96-4.83h2.98c-.29,4.24-3.28,7.39-9.03,7.39-7.06,0-9.83-4.66-9.83-10.88s3.23-11.22,10-11.22,8.95,3.99,8.95,10.21v1.85Zm-3.11-2.98c0-4.45-1.72-6.55-5.92-6.55s-6.55,2.65-6.89,6.97h12.81v-.42Z"></path><path class="cls-14" d="m733.87,1543.4v-12.18h-4.16v-2.44h4.16v-6.05l2.94-1.43v7.48h11.85v-6.05l2.94-1.43v7.48h5.92v2.44h-5.92v11.8c0,2.82.76,4.58,3.4,4.58,1.6,0,3.23-.29,4.03-.5v2.6c-.76.21-2.14.59-4.03.59-3.82,0-6.34-1.6-6.34-6.89v-12.18h-11.85v11.8c0,2.82.76,4.58,3.4,4.58,1.6,0,3.23-.29,4.03-.5v2.6c-.76.21-2.14.59-4.03.59-3.82,0-6.34-1.6-6.34-6.89Z"></path><path class="cls-14" d="m780.49,1540.29h-15.96c.17,4.79,2.48,7.48,6.93,7.48,3.82,0,5.67-1.43,5.96-4.83h2.98c-.29,4.24-3.28,7.39-9.03,7.39-7.06,0-9.83-4.66-9.83-10.88s3.23-11.22,10-11.22,8.95,3.99,8.95,10.21v1.85Zm-3.11-2.98c0-4.45-1.72-6.55-5.92-6.55s-6.55,2.65-6.89,6.97h12.81v-.42Z"></path><path class="cls-14" d="m786.37,1528.78h2.6l.29,3.91c1.01-2.14,3.07-4.45,6.76-4.45,1.26,0,2.18.21,3.02.55v3.15c-1.13-.5-2.1-.76-3.4-.76-3.74,0-6.34,2.81-6.34,5.75v12.85h-2.94v-21Z"></path><path class="cls-14" d="m801.57,1543.35v-1.18h2.94v1.13c0,2.86,2.14,4.49,5.96,4.49s5.8-1.01,5.8-3.78c0-2.06-1.01-2.81-3.86-3.32l-4.62-.84c-3.02-.55-5.54-2.02-5.54-5.5,0-3.15,2.35-6.13,8.4-6.13s8.4,3.02,8.4,7.23v.88h-2.98v-.76c0-3.45-2.14-4.92-5.42-4.92-3.95,0-5.33,1.34-5.33,3.36s1.01,2.86,3.91,3.4l4.03.76c4.12.76,6.09,1.93,6.09,5.59,0,4.58-4.12,6.55-8.78,6.55-7.31,0-8.99-3.28-8.99-6.97Z"></path><line class="cls-5" x1="613.31" y1="1278.57" x2="613.31" y2="1279.44"></line><line class="cls-7" x1="613.31" y1="1297.44" x2="613.31" y2="1486.35"></line><line class="cls-5" x1="613.31" y1="1495.34" x2="613.31" y2="1496.22"></line><line class="cls-5" x1="612.36" y1="1579.26" x2="612.36" y2="1580.13"></line><line class="cls-3" x1="612.36" y1="1596.69" x2="612.36" y2="1697.74"></line><line class="cls-5" x1="612.36" y1="1706.03" x2="612.36" y2="1706.9"></line><line class="cls-5" x1="1255.57" y1="2902.22" x2="1441.06" y2="2902.22"></line><polygon class="cls-16" points="1278.76 2930.85 1283.54 2925.72 1258.25 2902.22 1283.54 2878.72 1278.76 2873.59 1247.98 2902.22 1278.76 2930.85"></polygon><polygon class="cls-16" points="1417.87 2930.85 1413.09 2925.72 1438.38 2902.22 1413.09 2878.72 1417.87 2873.59 1448.65 2902.22 1417.87 2930.85"></polygon><path class="cls-14" d="m1177.42,3005.92h2.9l6.89,29.36h.08l7.81-29.36h3.19l8.19,29.36h.08l6.51-29.36h2.9l-7.6,32.77h-3.53l-8.11-29.07h-.08l-7.77,29.07h-3.53l-7.94-32.77Z"></path><path class="cls-14" d="m1220.22,3005.92h2.98v6.51h-2.98v-6.51Zm0,11.76h2.94v21h-2.94v-21Z"></path><path class="cls-14" d="m1228.87,3028.23c0-7.1,4.28-11.09,10.04-11.09,3.7,0,6.22,1.6,7.31,3.74h.04v-14.95h2.94v32.77h-1.97l-.67-3.61h-.08c-1.18,2.31-3.95,4.16-7.77,4.16-6.3,0-9.83-3.99-9.83-11.01Zm17.64-.5c0-5.5-3.36-8.07-7.35-8.07-3.11,0-7.14,1.47-7.14,8.4s3.61,8.61,7.14,8.61c4.24,0,7.35-2.73,7.35-8.95Z"></path><path class="cls-14" d="m1273.81,3029.19h-15.96c.17,4.79,2.48,7.48,6.93,7.48,3.82,0,5.67-1.43,5.96-4.83h2.98c-.29,4.24-3.28,7.39-9.03,7.39-7.06,0-9.83-4.66-9.83-10.88s3.23-11.22,10-11.22,8.95,3.99,8.95,10.21v1.85Zm-3.11-2.98c0-4.45-1.72-6.55-5.92-6.55s-6.55,2.65-6.89,6.97h12.81v-.42Z"></path><path class="cls-14" d="m1289.35,3017.68h2.39l.34,3.87h.08c1.13-2.48,4.03-4.41,7.86-4.41,6.3,0,9.66,3.99,9.66,11.01s-4.28,11.09-9.87,11.09c-3.78,0-6.39-1.6-7.44-3.7h-.08v11.55h-2.94v-29.41Zm17.18,10.63c0-7.18-3.4-8.61-6.93-8.61-4.24,0-7.56,2.73-7.56,8.44,0,6.01,3.44,8.57,7.44,8.57,3.02,0,7.06-1.47,7.06-8.4Z"></path><path class="cls-14" d="m1315.56,3017.68h2.6l.29,3.91c1.01-2.14,3.07-4.45,6.76-4.45,1.26,0,2.18.21,3.02.55v3.15c-1.13-.5-2.1-.76-3.4-.76-3.74,0-6.34,2.81-6.34,5.75v12.85h-2.94v-21Z"></path><path class="cls-14" d="m1330.55,3028.19c0-6.22,3.32-11.05,10.38-11.05,6.6,0,10.25,4.83,10.25,11.05s-3.7,11.05-10.29,11.05c-7.27,0-10.33-4.83-10.33-11.05Zm17.56,0c0-5.33-2.9-8.49-7.23-8.49-4.75,0-7.27,3.15-7.27,8.49s2.56,8.49,7.27,8.49c4.33,0,7.23-3.15,7.23-8.49Z"></path><path class="cls-14" d="m1357.05,3017.68h2.39l.34,3.87h.08c1.13-2.48,4.03-4.41,7.86-4.41,6.3,0,9.66,3.99,9.66,11.01s-4.28,11.09-9.87,11.09c-3.78,0-6.39-1.6-7.44-3.7h-.08v11.55h-2.94v-29.41Zm17.18,10.63c0-7.18-3.4-8.61-6.93-8.61-4.24,0-7.56,2.73-7.56,8.44,0,6.01,3.44,8.57,7.44,8.57,3.02,0,7.06-1.47,7.06-8.4Z"></path><path class="cls-14" d="m1381.58,3028.19c0-6.22,3.32-11.05,10.38-11.05,6.6,0,10.25,4.83,10.25,11.05s-3.7,11.05-10.29,11.05c-7.27,0-10.33-4.83-10.33-11.05Zm17.56,0c0-5.33-2.9-8.49-7.23-8.49-4.75,0-7.27,3.15-7.27,8.49s2.56,8.49,7.27,8.49c4.33,0,7.23-3.15,7.23-8.49Z"></path><path class="cls-14" d="m1408.08,3017.68h2.6l.29,3.91c1.01-2.14,3.07-4.45,6.76-4.45,1.26,0,2.18.21,3.02.55v3.15c-1.13-.5-2.1-.76-3.4-.76-3.74,0-6.34,2.81-6.34,5.75v12.85h-2.94v-21Z"></path><path class="cls-14" d="m1436.35,3036v2.6c-.76.21-2.14.59-4.03.59-3.82,0-6.34-1.6-6.34-6.89v-12.18h-4.16v-2.44h4.16v-6.05l2.94-1.43v7.48h5.92v2.44h-5.92v11.8c0,2.82.76,4.58,3.4,4.58,1.6,0,3.23-.29,4.03-.5Z"></path><path class="cls-14" d="m1441.18,3005.92h2.98v6.51h-2.98v-6.51Zm0,11.76h2.94v21h-2.94v-21Z"></path><path class="cls-14" d="m1449.83,3028.19c0-6.22,3.32-11.05,10.38-11.05,6.6,0,10.25,4.83,10.25,11.05s-3.7,11.05-10.29,11.05c-7.27,0-10.33-4.83-10.33-11.05Zm17.56,0c0-5.33-2.9-8.49-7.23-8.49-4.75,0-7.27,3.15-7.27,8.49s2.56,8.49,7.27,8.49c4.33,0,7.23-3.15,7.23-8.49Z"></path><path class="cls-14" d="m1476.33,3017.68h2.6l.29,3.49c1.01-2.14,3.28-4.03,7.35-4.03,4.75,0,7.77,2.52,7.77,7.94v13.61h-2.94v-13.27c0-4.33-2.14-5.71-5.5-5.71-3.82,0-6.64,2.69-6.64,5.63v13.36h-2.94v-21Z"></path><path class="cls-14" d="m1499.81,3032.26v-1.18h2.94v1.13c0,2.86,2.14,4.49,5.96,4.49s5.8-1.01,5.8-3.78c0-2.06-1.01-2.81-3.86-3.32l-4.62-.84c-3.02-.55-5.54-2.02-5.54-5.5,0-3.15,2.35-6.13,8.4-6.13s8.4,3.02,8.4,7.23v.88h-2.98v-.76c0-3.45-2.14-4.92-5.42-4.92-3.95,0-5.33,1.34-5.33,3.36s1.01,2.86,3.91,3.4l4.03.76c4.12.76,6.09,1.93,6.09,5.59,0,4.58-4.12,6.55-8.78,6.55-7.31,0-8.99-3.28-8.99-6.97Z"></path><line class="cls-5" x1="1348.31" y1="2924.63" x2="1348.31" y2="2925.5"></line><line class="cls-2" x1="1348.31" y1="2940.47" x2="1348.31" y2="2965.91"></line><line class="cls-5" x1="1348.31" y1="2973.4" x2="1348.31" y2="2974.27"></line><path class="cls-14" d="m716.73,789.3v-2.02h3.02v2.18c0,3.74,2.6,6.05,7.94,6.05s8.44-1.97,8.44-6.22c0-3.32-1.39-5.17-4.92-6.09l-6.64-1.72c-4.33-1.13-7.18-2.98-7.18-8.15s3.78-8.91,10.92-8.91,10.59,3.44,10.59,9.07v2.94h-3.02v-2.81c0-4.62-3.07-6.51-7.56-6.51-5.12,0-7.81,2.14-7.81,6.01,0,3.61,1.76,4.71,5.54,5.71l5.75,1.55c5.12,1.39,7.44,3.74,7.44,8.65,0,6.09-4.33,9.24-11.47,9.24-9.12,0-11.05-4.71-11.05-8.99Z"></path><path class="cls-14" d="m745.79,790.35v-13.61h2.94v13.27c0,4.33,2.14,5.71,5.42,5.71,3.74,0,6.55-2.69,6.55-5.63v-13.36h2.94v21h-2.6l-.25-3.36h-.08c-.97,2.02-3.23,3.91-7.23,3.91-4.66,0-7.69-2.52-7.69-7.94Z"></path><path class="cls-14" d="m770.99,776.74h2.39l.34,3.87h.08c1.13-2.48,4.03-4.41,7.86-4.41,6.3,0,9.66,3.99,9.66,11.01s-4.28,11.09-9.87,11.09c-3.78,0-6.39-1.6-7.44-3.7h-.08v11.55h-2.94v-29.41Zm17.18,10.63c0-7.18-3.4-8.61-6.93-8.61-4.24,0-7.56,2.73-7.56,8.44,0,6.01,3.44,8.57,7.44,8.57,3.02,0,7.06-1.47,7.06-8.4Z"></path><path class="cls-14" d="m797.2,776.74h2.39l.34,3.87h.08c1.13-2.48,4.03-4.41,7.86-4.41,6.3,0,9.66,3.99,9.66,11.01s-4.28,11.09-9.87,11.09c-3.78,0-6.39-1.6-7.44-3.7h-.08v11.55h-2.94v-29.41Zm17.18,10.63c0-7.18-3.4-8.61-6.93-8.61-4.24,0-7.56,2.73-7.56,8.44,0,6.01,3.44,8.57,7.44,8.57,3.02,0,7.06-1.47,7.06-8.4Z"></path><path class="cls-14" d="m821.73,787.24c0-6.22,3.32-11.05,10.38-11.05,6.6,0,10.25,4.83,10.25,11.05s-3.7,11.05-10.29,11.05c-7.27,0-10.33-4.83-10.33-11.05Zm17.56,0c0-5.33-2.9-8.49-7.23-8.49-4.75,0-7.27,3.15-7.27,8.49s2.56,8.49,7.27,8.49c4.33,0,7.23-3.15,7.23-8.49Z"></path><path class="cls-14" d="m848.23,776.74h2.6l.29,3.91c1.01-2.14,3.07-4.45,6.76-4.45,1.26,0,2.18.21,3.02.55v3.15c-1.13-.5-2.1-.76-3.4-.76-3.74,0-6.34,2.81-6.34,5.75v12.85h-2.94v-21Z"></path><path class="cls-14" d="m876.5,795.05v2.6c-.76.21-2.14.59-4.03.59-3.82,0-6.34-1.6-6.34-6.89v-12.18h-4.16v-2.44h4.16v-6.05l2.94-1.43v7.48h5.92v2.44h-5.92v11.8c0,2.82.76,4.58,3.4,4.58,1.6,0,3.23-.29,4.03-.5Z"></path><path class="cls-14" d="m895.14,771.7v5.04h5.92v2.44h-5.92v18.57h-2.94v-18.57h-4.16v-2.44h4.16v-5.42c0-5.29,3.15-6.89,6.38-6.89,1.85,0,2.98.29,3.74.55v2.6c-.71-.21-1.89-.46-3.49-.46-2.65,0-3.7,1.76-3.7,4.58Z"></path><path class="cls-14" d="m902.95,787.24c0-6.22,3.32-11.05,10.38-11.05,6.6,0,10.25,4.83,10.25,11.05s-3.7,11.05-10.29,11.05c-7.27,0-10.33-4.83-10.33-11.05Zm17.56,0c0-5.33-2.9-8.49-7.23-8.49-4.75,0-7.27,3.15-7.27,8.49s2.56,8.49,7.27,8.49c4.33,0,7.23-3.15,7.23-8.49Z"></path><path class="cls-14" d="m929.46,776.74h2.6l.29,3.91c1.01-2.14,3.07-4.45,6.76-4.45,1.26,0,2.18.21,3.02.55v3.15c-1.13-.5-2.1-.76-3.4-.76-3.74,0-6.34,2.81-6.34,5.75v12.85h-2.94v-21Z"></path><path class="cls-14" d="m957.47,764.98h3.15l17.69,27.6h.04v-27.6h2.94v32.77h-3.07l-17.77-27.93h-.04v27.93h-2.94v-32.77Z"></path><path class="cls-14" d="m989.89,764.98h2.98v6.51h-2.98v-6.51Zm0,11.76h2.94v21h-2.94v-21Z"></path><path class="cls-14" d="m999.6,799.55v-.13h3.11v.13c0,2.9,1.93,4.33,6.13,4.33,4.79,0,7.02-2.94,7.02-7.86v-2.1h-.08c-1.09,2.18-3.65,4.07-7.48,4.07-6.3,0-9.75-3.99-9.75-10.71,0-7.1,4.37-11.09,9.96-11.09,3.78,0,6.55,1.81,7.56,4.12h.13l.29-3.57h2.31v19.16c0,5.88-2.81,10.71-10.33,10.71-6.3,0-8.86-2.98-8.86-7.06Zm16.59-12.77c0-5.5-3.36-8.07-7.35-8.07-3.02,0-7.14,1.47-7.14,8.4s3.57,8.32,7.1,8.32c4.24,0,7.39-2.73,7.39-8.65Z"></path><path class="cls-14" d="m1043.41,788.25h-15.96c.17,4.79,2.48,7.48,6.93,7.48,3.82,0,5.67-1.43,5.96-4.83h2.98c-.29,4.24-3.28,7.39-9.03,7.39-7.06,0-9.83-4.66-9.83-10.88s3.23-11.22,10-11.22,8.95,3.99,8.95,10.21v1.85Zm-3.11-2.98c0-4.45-1.72-6.55-5.92-6.55s-6.55,2.65-6.89,6.97h12.81v-.42Z"></path><path class="cls-14" d="m1049.28,776.74h2.6l.29,3.91c1.01-2.14,3.07-4.45,6.76-4.45,1.26,0,2.18.21,3.02.55v3.15c-1.13-.5-2.1-.76-3.4-.76-3.74,0-6.34,2.81-6.34,5.75v12.85h-2.94v-21Z"></path><path class="cls-14" d="m1066.59,764.98h2.98v6.51h-2.98v-6.51Zm0,11.76h2.94v21h-2.94v-21Z"></path><path class="cls-14" d="m1075.66,791.95c0-3.95,2.23-6.09,7.86-6.09h6.34v-1.72c0-2.98-1.26-5.42-5.46-5.42-3.95,0-5.33,1.51-5.33,4.12v.88h-2.98v-.84c0-5,4.2-6.68,8.32-6.68,5.8,0,8.4,2.86,8.4,8.44v13.11h-2.06l-.55-2.98h-.08c-1.26,1.89-3.7,3.53-7.35,3.53-4.92,0-7.1-2.31-7.1-6.34Zm14.2-1.85v-1.76h-7.02c-2.65,0-4.03.92-4.03,3.61,0,2.35,1.26,3.86,4.5,3.86,4.16,0,6.55-2.14,6.55-5.71Z"></path><path class="cls-14" d="m1100.14,776.74h2.6l.29,3.49c1.01-2.14,3.28-4.03,7.35-4.03,4.75,0,7.77,2.52,7.77,7.94v13.61h-2.94v-13.27c0-4.33-2.14-5.71-5.5-5.71-3.82,0-6.64,2.69-6.64,5.63v13.36h-2.94v-21Z"></path><path class="cls-14" d="m1135.17,764.98h2.94v32.77h-2.94v-32.77Z"></path><path class="cls-14" d="m1144.2,791.95c0-3.95,2.23-6.09,7.86-6.09h6.34v-1.72c0-2.98-1.26-5.42-5.46-5.42-3.95,0-5.33,1.51-5.33,4.12v.88h-2.98v-.84c0-5,4.2-6.68,8.32-6.68,5.8,0,8.4,2.86,8.4,8.44v13.11h-2.06l-.55-2.98h-.08c-1.26,1.89-3.7,3.53-7.35,3.53-4.92,0-7.1-2.31-7.1-6.34Zm14.2-1.85v-1.76h-7.02c-2.65,0-4.03.92-4.03,3.61,0,2.35,1.26,3.86,4.5,3.86,4.16,0,6.55-2.14,6.55-5.71Z"></path><path class="cls-14" d="m1168.69,776.74h2.6l.29,3.49c1.01-2.14,3.28-4.03,7.35-4.03,4.75,0,7.77,2.52,7.77,7.94v13.61h-2.94v-13.27c0-4.33-2.14-5.71-5.5-5.71-3.82,0-6.64,2.69-6.64,5.63v13.36h-2.94v-21Z"></path><path class="cls-14" d="m1193.43,799.55v-.13h3.11v.13c0,2.9,1.93,4.33,6.13,4.33,4.79,0,7.02-2.94,7.02-7.86v-2.1h-.08c-1.09,2.18-3.65,4.07-7.48,4.07-6.3,0-9.75-3.99-9.75-10.71,0-7.1,4.37-11.09,9.96-11.09,3.78,0,6.55,1.81,7.56,4.12h.13l.29-3.57h2.31v19.16c0,5.88-2.81,10.71-10.33,10.71-6.3,0-8.86-2.98-8.86-7.06Zm16.59-12.77c0-5.5-3.36-8.07-7.35-8.07-3.02,0-7.14,1.47-7.14,8.4s3.57,8.32,7.1,8.32c4.24,0,7.39-2.73,7.39-8.65Z"></path><path class="cls-14" d="m1219.55,790.35v-13.61h2.94v13.27c0,4.33,2.14,5.71,5.42,5.71,3.74,0,6.55-2.69,6.55-5.63v-13.36h2.94v21h-2.6l-.25-3.36h-.08c-.97,2.02-3.23,3.91-7.23,3.91-4.66,0-7.69-2.52-7.69-7.94Z"></path><path class="cls-14" d="m1243.49,791.95c0-3.95,2.23-6.09,7.86-6.09h6.34v-1.72c0-2.98-1.26-5.42-5.46-5.42-3.95,0-5.33,1.51-5.33,4.12v.88h-2.98v-.84c0-5,4.2-6.68,8.32-6.68,5.8,0,8.4,2.86,8.4,8.44v13.11h-2.06l-.55-2.98h-.08c-1.26,1.89-3.7,3.53-7.35,3.53-4.92,0-7.1-2.31-7.1-6.34Zm14.2-1.85v-1.76h-7.02c-2.65,0-4.03.92-4.03,3.61,0,2.35,1.26,3.86,4.5,3.86,4.16,0,6.55-2.14,6.55-5.71Z"></path><path class="cls-14" d="m1267.35,799.55v-.13h3.11v.13c0,2.9,1.93,4.33,6.13,4.33,4.79,0,7.01-2.94,7.01-7.86v-2.1h-.08c-1.09,2.18-3.65,4.07-7.48,4.07-6.3,0-9.75-3.99-9.75-10.71,0-7.1,4.37-11.09,9.96-11.09,3.78,0,6.55,1.81,7.56,4.12h.13l.29-3.57h2.31v19.16c0,5.88-2.81,10.71-10.33,10.71-6.3,0-8.86-2.98-8.86-7.06Zm16.59-12.77c0-5.5-3.36-8.07-7.35-8.07-3.03,0-7.14,1.47-7.14,8.4s3.57,8.32,7.1,8.32c4.24,0,7.39-2.73,7.39-8.65Z"></path><path class="cls-14" d="m1311.16,788.25h-15.96c.17,4.79,2.48,7.48,6.93,7.48,3.82,0,5.67-1.43,5.97-4.83h2.98c-.29,4.24-3.28,7.39-9.03,7.39-7.06,0-9.83-4.66-9.83-10.88s3.23-11.22,10-11.22,8.95,3.99,8.95,10.21v1.85Zm-3.11-2.98c0-4.45-1.72-6.55-5.92-6.55s-6.55,2.65-6.89,6.97h12.81v-.42Z"></path><path class="cls-14" d="m1315.14,791.32v-1.18h2.94v1.13c0,2.86,2.14,4.49,5.96,4.49s5.8-1.01,5.8-3.78c0-2.06-1.01-2.81-3.86-3.32l-4.62-.84c-3.02-.55-5.54-2.02-5.54-5.5,0-3.15,2.35-6.13,8.4-6.13s8.4,3.02,8.4,7.23v.88h-2.98v-.76c0-3.45-2.14-4.92-5.42-4.92-3.95,0-5.33,1.34-5.33,3.36s1.01,2.86,3.91,3.4l4.03.76c4.12.76,6.09,1.93,6.09,5.59,0,4.58-4.12,6.55-8.78,6.55-7.31,0-8.99-3.28-8.99-6.97Z"></path><line class="cls-5" x1="992.52" y1="539.94" x2="992.52" y2="540.81"></line><line class="cls-4" x1="992.52" y1="558.78" x2="992.52" y2="727.72"></line><line class="cls-5" x1="992.52" y1="736.71" x2="992.52" y2="737.58"></line></g></svg> 