<?xml version="1.0" encoding="UTF-8"?> <svg xmlns="http://www.w3.org/2000/svg" xmlns:xlink="http://www.w3.org/1999/xlink" viewBox="0 0 1920 3756"><defs><style>.cls-1,.cls-2,.cls-3,.cls-4,.cls-5,.cls-6,.cls-7,.cls-8,.cls-9,.cls-10,.cls-11{fill:none;}.cls-12{clip-path:url(#clippath);}.cls-2{stroke-dasharray:0 0 1.88 18.81;}.cls-2,.cls-3,.cls-4,.cls-5,.cls-6,.cls-7,.cls-8,.cls-9,.cls-10,.cls-11{stroke-miterlimit:10;}.cls-2,.cls-3,.cls-4,.cls-5,.cls-6,.cls-7,.cls-8,.cls-9,.cls-11{stroke:#a797c9;stroke-linecap:round;stroke-width:7px;}.cls-3{stroke-dasharray:0 0 1.77 17.74;}.cls-13{fill:#fff;}.cls-14{fill:#937fbb;}.cls-15{fill:#171c32;}.cls-16{fill:#947fbb;}.cls-5{stroke-dasharray:0 0 1.65 16.49;}.cls-6{stroke-dasharray:0 0 1.68 16.83;}.cls-17{clip-path:url(#clippath-1);}.cls-18{clip-path:url(#clippath-4);}.cls-19{clip-path:url(#clippath-3);}.cls-20{clip-path:url(#clippath-2);}.cls-21{clip-path:url(#clippath-6);}.cls-22{clip-path:url(#clippath-5);}.cls-7{stroke-dasharray:0 0 1.87 18.69;}.cls-8{stroke-dasharray:0 0 1.9 19.03;}.cls-9{stroke-dasharray:0 0 1.74 17.45;}.cls-10{stroke:#57678b;stroke-width:3.5px;}.cls-11{stroke-dasharray:0 0 1.71 17.13;}</style><clipPath id="clippath"><circle class="cls-1" cx="1520.97" cy="2089.08" r="118.13"></circle></clipPath><clipPath id="clippath-1"><circle class="cls-1" cx="1033.83" cy="2504.33" r="118.61"></circle></clipPath><clipPath id="clippath-2"><circle class="cls-1" cx="1440.03" cy="1535.29" r="163.45"></circle></clipPath><clipPath id="clippath-3"><circle class="cls-1" cx="1538.97" cy="1197.51" r="99.97"></circle></clipPath><clipPath id="clippath-4"><circle class="cls-1" cx="1665.7" cy="1593.1" r="117.64"></circle></clipPath><clipPath id="clippath-5"><circle class="cls-1" cx="852.17" cy="3139.26" r="82.12"></circle></clipPath><clipPath id="clippath-6"><circle class="cls-1" cx="1324.15" cy="3139.26" r="82.12"></circle></clipPath></defs><g id="Background"><rect class="cls-15" width="1920" height="3756"></rect></g><g id="Horizontal_Guides"><line class="cls-10" y1="2021" x2="1920" y2="2021"></line><line class="cls-10" y1="2203.76" x2="1920" y2="2203.76"></line><line class="cls-10" x1="1920" y1="2396.91" y2="2396.91"></line><line class="cls-10" y1="2574.14" x2="1920" y2="2574.14"></line><circle class="cls-14" cx="1520.97" cy="2089.08" r="118.13"></circle><line class="cls-10" y1="202.72" x2="1920" y2="202.72"></line><line class="cls-10" y1="388.48" x2="1920" y2="388.48"></line><line class="cls-10" x1="1920" y1="578.63" y2="578.63"></line><line class="cls-10" y1="765.86" x2="1920" y2="765.86"></line><line class="cls-10" y1="1115.86" x2="1920" y2="1115.86"></line><line class="cls-10" y1="1301.62" x2="1920" y2="1301.62"></line><line class="cls-10" x1="1920" y1="1490.77" y2="1490.77"></line><line class="cls-10" y1="1671" x2="1920" y2="1671"></line><line class="cls-10" y1="2921" x2="1920" y2="2921"></line><line class="cls-10" y1="3103.76" x2="1920" y2="3103.76"></line><line class="cls-10" x1="1920" y1="3296.91" y2="3296.91"></line><line class="cls-10" y1="3474.14" x2="1920" y2="3474.14"></line><circle class="cls-14" cx="852.17" cy="3139.26" r="82.12"></circle><circle class="cls-14" cx="1324.15" cy="3139.26" r="82.12"></circle><circle class="cls-14" cx="1033.83" cy="2504.33" r="118.61"></circle><path class="cls-13" d="m1182.65,2581.87c-15.62,0-25.71-9.92-25.71-25.29,0-21.91,19.92-54.23,64.58-104.79,18.28-20.69,39.78-43.44,63.87-68.15-.48-.56-.99-1.09-1.54-1.59-14.68-13.67-46.37-4.99-55.73-2.01-.12.04-.23.07-.35.1-7.27,1.98-11.7-1.56-13.3-5.2-2.21-5.04.17-10.86,5.92-14.53,60.8-41.01,103.26-91.09,103.26-121.82,0-15.61-11.77-22.71-22.71-22.71-13.73,0-42.43,11.83-101.19,68.22-32.89,31.56-66.05,68.14-93.47,99.1,5.67,13.33,5.77,31.45.28,54.12-8.3,34.42-27.67,70.85-53.15,99.95-24.45,27.93-50.47,44.6-69.61,44.6-15.86,0-25.71-10.02-25.71-26.14,0-33.68,41.64-80.98,88.02-130.57,6.87-7.36,16.82-18.68,28.34-31.78,3.41-3.88,6.84-7.78,10.28-11.67-4.21-3.69-19.27-13.04-55.51-1.66-.1.03-.21.06-.31.09-7.27,1.98-11.7-1.56-13.3-5.2-2.21-5.04.17-10.86,5.92-14.53,59.84-40.36,103.26-91.04,103.26-120.54,0-16.58-14.85-24-29.57-24-37.01,0-70.55,44.97-102.98,88.46-34.03,45.63-69.22,92.82-112.58,92.82-11.88,0-20.69-3.59-26.19-10.66-6.78-8.72-7.8-21.9-3.12-40.31,5.76-22.36,10.72-40.77,15.92-57.82-15.8,21.33-32.46,40.53-49.2,56.58-35.62,34.15-69.26,52.2-97.27,52.2-17.84,0-31.29-14.56-31.29-33.86,0-21.21,17.84-57.66,34.56-90.17,1.66-3.22,3.14-6.11,4.31-8.44-12.21,3.44-24.81,5.18-37.59,5.18-20.44,0-39.91-5.07-55.08-14.31-18.27,8.73-45.93,17.02-87.53,20.78-10.42,38.23-26.43,67.75-47.82,88.04-22.93,21.75-51.57,32.78-85.13,32.78-41.34,0-69.19-16.6-89.8-30-12.36,20.23-25.58,30-40.06,30s-30.86-8.99-30.86-28.71c0-17.66,11.87-36.43,33.86-36.43,10.64,0,20.34,4.43,30.55,10.59,9.67-20.73,19.23-49.63,28.14-85.59,2.23-9.02,4.37-18.22,6.42-27.52-9.91-9.76-18.06-20.86-24.36-33.16-10.55-20.62-15.89-44.76-15.89-71.74,0-33.47,11.13-60.87,32.19-79.21,17.82-15.52,42.31-24.07,68.95-24.07,11.99,0,53.95,2.22,90.45,30.75,16.95,13.24,30.26,30.25,39.56,50.55,10.7,23.35,16.13,51.22,16.13,82.84,0,17.27-1.48,35.31-4.39,53.63-1.08,6.75-2.31,13.29-3.66,19.63,31.15-3.24,53.03-9.12,68.27-15.28-7.34-8.05-11.35-17.15-11.35-26.27,0-20.69,13.22-35.14,32.14-35.14,20.97,0,33,10.93,33,30,0,6.08-2.21,15.53-12.74,26.02-2.25,2.25-5.09,4.72-8.62,7.29,11.01,4.81,24.02,7.4,37.65,7.4s27.99-2.42,41.23-7.2c.6-.22,1.22-.36,1.85-.44,5.45-.68,8.86,1.18,10.77,2.86,1.83,1.61,4.01,4.57,4.01,9.5,0,3.38-1.28,7.58-3.9,12.83-1.3,2.66-3.21,6.38-5.43,10.69-10.6,20.61-32.67,63.5-32.67,82.33,0,8.31,4.86,16.71,14.14,16.71,23.17,0,53.5-16.85,85.41-47.44,32.24-30.9,64.22-74.11,90.06-121.65.03-.05.06-.11.09-.16,0-.02.02-.04.03-.06,1.91-4.33,6.97-6.3,11.3-4.39,4.33,1.91,6.3,6.97,4.39,11.3-20.54,46.64-29.83,77.36-44.11,132.82-4.03,15.86-2.2,22.65.05,25.54,2.08,2.68,6.34,4.04,12.65,4.04,34.76,0,67.34-43.68,98.84-85.92,34.96-46.88,71.12-95.36,116.73-95.36,12.59,0,24.15,3.79,32.54,10.68,9.14,7.5,14.17,18.32,14.17,30.47,0,13.07-5.89,35.48-33.96,68.01-14.47,16.76-32.9,33.91-53.35,49.74,14.71-1,30.23,1.22,41.48,11.25,76.84-86.3,158.16-170.14,204.82-170.14,19.32,0,39.86,13.97,39.86,39.86,0,13.57-5.89,36.61-33.94,69.28-14.36,16.72-32.83,33.9-53.44,49.83,14.69-.97,30.76,1.23,42.12,11.81.65.6,1.27,1.22,1.87,1.86,24.32-24.74,51.01-51.34,79.46-79.7,25.63-25.55,52.12-51.95,79.47-79.58.31-.73.73-1.44,1.26-2.08l.08-.3c17.85-63.73,31.45-111.14,43.84-140.96,9.57-23.04,22.4-46.58,44.99-46.58,15.07,0,24.43,10.35,24.43,27,0,39.83-57.1,125.52-97.95,169.48l-27.08,96.83c-13.15,46.9-6.15,56.12-3.86,59.16,1.01,1.33,4.09,5.39,14.89,5.39.59,0,.89,0,1.44.12.94.11,10.55.94,29.41-5.53,8.79-3.02,20.5-7.96,35.09-16.04-.25-2.21-.38-4.49-.38-6.84,0-24.99,15.46-61.28,39.38-92.43,26.62-34.68,56.63-54.56,82.33-54.56,14.2,0,24.45,6.09,28.1,16.72,4.1,11.91-.57,27.44-13.88,46.15-13.84,19.45-36.31,41.38-66.81,65.18-17.13,13.42-33.47,24.84-48.93,34.19,5.29,11.46,17.29,17.77,34.66,17.77,23.57,0,47.55-12.41,63.51-22.82,18.56-12.1,32.39-25.53,35.35-29.7,2.74-3.86,8.09-4.78,11.95-2.04,3.86,2.74,4.78,8.09,2.04,11.95-4.42,6.24-19.75,20.96-39.97,34.15-17.91,11.68-45.1,25.6-72.88,25.6-23.57,0-41.24-9.85-49.57-26.39-13.02,7-25.35,12.4-36.92,16.17-19.83,6.46-31.19,5.9-34.53,5.51-12.52-.12-21.93-4.22-27.96-12.17-10.12-13.35-9.82-35.52,1.01-74.14l18.42-65.85c-20.1,20.19-39.71,39.73-58.85,58.81-28.95,28.86-56.92,56.74-82.56,82.91,4.35,12.94,4.03,29.87-.99,50.61-8.17,33.89-27.35,70.08-52.64,99.27-24.56,28.35-50.77,45.28-70.12,45.28Zm109.36-180.4c-68.99,71.18-117.93,128.06-117.93,155.12,0,2.85,0,8.14,8.57,8.14,28.04,0,89.23-61.43,106.09-131.43,2.39-9.88,4.25-21.58,3.27-31.83Zm-199.19-3.02c-1.87,2.13-3.7,4.21-5.5,6.25-11.61,13.21-21.64,24.62-28.69,32.17-31.2,33.35-83.41,89.16-83.41,118.86,0,5.56,1.43,9,8.57,9,28.03,0,89.21-61.43,106.09-131.44,2.63-10.87,4.63-23.93,2.93-34.85Zm-760.22-46.43c19.78,12.92,44.44,28,81.63,28,29.02,0,53.69-9.45,73.33-28.08,18.04-17.11,31.92-42.01,41.45-74.3-10.61.56-21.99.85-34.24.81-34.82-.17-84.67-6.24-124.52-34.18-1.02-.72-2.03-1.44-3.03-2.18-1.46,6.42-2.97,12.77-4.53,19.05-9.61,38.8-19.56,68.94-30.11,90.88Zm-45.22-2.85c-13.22,0-16.71,12.62-16.71,19.29,0,10.74,10.5,11.57,13.71,11.57,8.21,0,16.87-7.67,25.57-22.2-8.42-5.15-15.7-8.65-22.57-8.65Zm942.15,25.76s0,0,0,0t0,0Zm-198.85,0s0,0,0,0t0,0Zm613.54-153.04c-20.03,0-45.73,17.89-68.74,47.86-20.4,26.56-34.42,57.69-35.73,78.84,12.22-7.69,26-17.3,41.33-29.31,28.79-22.46,50.7-43.77,63.4-61.61,13.87-19.5,12.41-28.38,11.64-30.63-1.46-4.26-7.27-5.15-11.89-5.15Zm-1272.89,1.61c2.79,2.35,5.71,4.59,8.78,6.74,36.21,25.39,82.39,30.91,114.74,31.07,14.1.04,26.97-.35,38.73-1.1,1.75-7.6,3.29-15.54,4.62-23.83,2.77-17.42,4.18-34.55,4.18-50.92,0-54.09-16.52-94.43-49.1-119.89-32.19-25.16-69.29-27.11-79.9-27.11-3.86,0-7.65.21-11.37.61-.9,5.38-2.17,14.25-3.81,25.76-5.19,36.27-14.07,98.34-26.87,158.67Zm359.2,33.73h0Zm-90.01-58.06c-11.06,0-15,9.3-15,18,0,5.93,3.84,12.47,10.53,18.27,6.05-3.63,10.06-6.98,12.62-9.53,6.95-6.93,7.7-12.02,7.7-13.88,0-6.22-1.23-12.86-15.86-12.86Zm-256.44-156.39c-10.76,3.35-20.42,8.6-28.38,15.54-17.46,15.21-26.31,37.51-26.31,66.29,0,34.17,9.22,62.42,27.46,84.37,11.46-56.24,19.54-112.71,24.39-146.56,1.12-7.81,2.06-14.42,2.85-19.63Zm1162.43-3.46c-6.6,0-15.89,4.09-29.16,36.02-9.67,23.26-20.25,58.15-33.22,103.74,35.7-45.52,69.66-104.06,69.66-129.91,0-9.86-4.74-9.86-7.29-9.86Zm-612.42,126.85c-13.44,0-23.57-8.84-23.57-20.57s10.35-20.14,23.57-20.14,23.14,8.85,23.14,20.14-10.17,20.57-23.14,20.57Zm0-23.57c-4.16,0-6.43,1.98-6.43,3,0,1.89,2.88,3.43,6.43,3.43,3.25,0,6-1.57,6-3.43,0-1.06-2.28-3-6-3Z"></path><path class="cls-14" d="m551.47,2258.71c1.36-6.34,2.58-12.88,3.66-19.63,2.91-18.32,4.39-36.36,4.39-53.63,0-31.62-5.43-59.49-16.13-82.84-9.3-20.3-22.61-37.31-39.56-50.55-36.51-28.53-78.46-30.75-90.45-30.75-26.64,0-51.13,8.55-68.95,24.07-21.06,18.35-32.19,45.74-32.19,79.21,0,26.98,5.35,51.12,15.89,71.74,6.29,12.31,14.45,23.4,24.36,33.16-2.05,9.29-4.18,18.5-6.42,27.52-8.91,35.95-18.48,64.86-28.14,85.59-10.21-6.16-19.9-10.59-30.55-10.59-21.99,0-33.86,18.77-33.86,36.43,0,19.73,16,28.71,30.86,28.71s27.7-9.77,40.06-30c20.61,13.4,48.46,30,89.8,30,33.56,0,62.2-11.03,85.13-32.78,21.39-20.29,37.41-49.81,47.82-88.04m-262.81,103.67c-3.22,0-13.71-.83-13.71-11.57,0-6.67,3.49-19.29,16.71-19.29,6.87,0,14.15,3.5,22.57,8.65-8.7,14.53-17.36,22.2-25.57,22.2Zm45-255.42c0-28.78,8.85-51.08,26.31-66.29,7.96-6.94,17.62-12.18,28.38-15.54-.79,5.21-1.73,11.82-2.85,19.63-4.84,33.85-12.92,90.32-24.39,146.56-18.24-21.94-27.46-50.2-27.46-84.37Zm199.63,153.04c-9.53,32.29-23.41,57.19-41.45,74.3-19.64,18.63-44.31,28.08-73.33,28.08-37.2,0-61.85-15.09-81.63-28,10.55-21.93,20.49-52.07,30.11-90.88,1.55-6.28,3.06-12.63,4.53-19.05,1,.74,2.01,1.46,3.03,2.18,21.98,15.41,47,24.16,70.87,28.94,1.88-5.44,3.69-10.9,5.4-16.39-22.47-4.29-46.03-12.28-66.43-26.59-3.07-2.15-5.99-4.4-8.78-6.74,12.8-60.33,21.68-122.4,26.87-158.67,1.65-11.51,2.92-20.38,3.81-25.76,3.72-.41,7.52-.61,11.37-.61,10.61,0,47.71,1.96,79.9,27.11,32.58,25.46,49.1,65.8,49.1,119.89,0,16.37-1.41,33.51-4.18,50.92-1.33,8.29-2.87,16.23-4.62,23.83"></path><g class="cls-12"><path class="cls-15" d="m1182.65,2581.87c-15.62,0-25.71-9.92-25.71-25.29,0-21.91,19.92-54.23,64.58-104.79,18.28-20.69,39.78-43.44,63.87-68.15-.48-.56-.99-1.09-1.54-1.59-14.68-13.67-46.37-4.99-55.73-2.01-.12.04-.23.07-.35.1-7.27,1.98-11.7-1.56-13.3-5.2-2.21-5.04.17-10.86,5.92-14.53,60.8-41.01,103.26-91.09,103.26-121.82,0-15.61-11.77-22.71-22.71-22.71-13.73,0-42.43,11.83-101.19,68.22-32.89,31.56-66.05,68.14-93.47,99.1,5.67,13.33,5.77,31.45.28,54.12-8.3,34.42-27.67,70.85-53.15,99.95-24.45,27.93-50.47,44.6-69.61,44.6-15.86,0-25.71-10.02-25.71-26.14,0-33.68,41.64-80.98,88.02-130.57,6.87-7.36,16.82-18.68,28.34-31.78,3.41-3.88,6.84-7.78,10.28-11.67-4.21-3.69-19.27-13.04-55.51-1.66-.1.03-.21.06-.31.09-7.27,1.98-11.7-1.56-13.3-5.2-2.21-5.04.17-10.86,5.92-14.53,59.84-40.36,103.26-91.04,103.26-120.54,0-16.58-14.85-24-29.57-24-37.01,0-70.55,44.97-102.98,88.46-34.03,45.63-69.22,92.82-112.58,92.82-11.88,0-20.69-3.59-26.19-10.66-6.78-8.72-7.8-21.9-3.12-40.31,5.76-22.36,10.72-40.77,15.92-57.82-15.8,21.33-32.46,40.53-49.2,56.58-35.62,34.15-69.26,52.2-97.27,52.2-17.84,0-31.29-14.56-31.29-33.86,0-21.21,17.84-57.66,34.56-90.17,1.66-3.22,3.14-6.11,4.31-8.44-12.21,3.44-24.81,5.18-37.59,5.18-20.44,0-39.91-5.07-55.08-14.31-18.27,8.73-45.93,17.02-87.53,20.78-10.42,38.23-26.43,67.75-47.82,88.04-22.93,21.75-51.57,32.78-85.13,32.78-41.34,0-69.19-16.6-89.8-30-12.36,20.23-25.58,30-40.06,30s-30.86-8.99-30.86-28.71c0-17.66,11.87-36.43,33.86-36.43,10.64,0,20.34,4.43,30.55,10.59,9.67-20.73,19.23-49.63,28.14-85.59,2.23-9.02,4.37-18.22,6.42-27.52-9.91-9.76-18.06-20.86-24.36-33.16-10.55-20.62-15.89-44.76-15.89-71.74,0-33.47,11.13-60.87,32.19-79.21,17.82-15.52,42.31-24.07,68.95-24.07,11.99,0,53.95,2.22,90.45,30.75,16.95,13.24,30.26,30.25,39.56,50.55,10.7,23.35,16.13,51.22,16.13,82.84,0,17.27-1.48,35.31-4.39,53.63-1.08,6.75-2.31,13.29-3.66,19.63,31.15-3.24,53.03-9.12,68.27-15.28-7.34-8.05-11.35-17.15-11.35-26.27,0-20.69,13.22-35.14,32.14-35.14,20.97,0,33,10.93,33,30,0,6.08-2.21,15.53-12.74,26.02-2.25,2.25-5.09,4.72-8.62,7.29,11.01,4.81,24.02,7.4,37.65,7.4s27.99-2.42,41.23-7.2c.6-.22,1.22-.36,1.85-.44,5.45-.68,8.86,1.18,10.77,2.86,1.83,1.61,4.01,4.57,4.01,9.5,0,3.38-1.28,7.58-3.9,12.83-1.3,2.66-3.21,6.38-5.43,10.69-10.6,20.61-32.67,63.5-32.67,82.33,0,8.31,4.86,16.71,14.14,16.71,23.17,0,53.5-16.85,85.41-47.44,32.24-30.9,64.22-74.11,90.06-121.65.03-.05.06-.11.09-.16,0-.02.02-.04.03-.06,1.91-4.33,6.97-6.3,11.3-4.39,4.33,1.91,6.3,6.97,4.39,11.3-20.54,46.64-29.83,77.36-44.11,132.82-4.03,15.86-2.2,22.65.05,25.54,2.08,2.68,6.34,4.04,12.65,4.04,34.76,0,67.34-43.68,98.84-85.92,34.96-46.88,71.12-95.36,116.73-95.36,12.59,0,24.15,3.79,32.54,10.68,9.14,7.5,14.17,18.32,14.17,30.47,0,13.07-5.89,35.48-33.96,68.01-14.47,16.76-32.9,33.91-53.35,49.74,14.71-1,30.23,1.22,41.48,11.25,76.84-86.3,158.16-170.14,204.82-170.14,19.32,0,39.86,13.97,39.86,39.86,0,13.57-5.89,36.61-33.94,69.28-14.36,16.72-32.83,33.9-53.44,49.83,14.69-.97,30.76,1.23,42.12,11.81.65.6,1.27,1.22,1.87,1.86,24.32-24.74,51.01-51.34,79.46-79.7,25.63-25.55,52.12-51.95,79.47-79.58.31-.73.73-1.44,1.26-2.08l.08-.3c17.85-63.73,31.45-111.14,43.84-140.96,9.57-23.04,22.4-46.58,44.99-46.58,15.07,0,24.43,10.35,24.43,27,0,39.83-57.1,125.52-97.95,169.48l-27.08,96.83c-13.15,46.9-6.15,56.12-3.86,59.16,1.01,1.33,4.09,5.39,14.89,5.39.59,0,.89,0,1.44.12.94.11,10.55.94,29.41-5.53,8.79-3.02,20.5-7.96,35.09-16.04-.25-2.21-.38-4.49-.38-6.84,0-24.99,15.46-61.28,39.38-92.43,26.62-34.68,56.63-54.56,82.33-54.56,14.2,0,24.45,6.09,28.1,16.72,4.1,11.91-.57,27.44-13.88,46.15-13.84,19.45-36.31,41.38-66.81,65.18-17.13,13.42-33.47,24.84-48.93,34.19,5.29,11.46,17.29,17.77,34.66,17.77,23.57,0,47.55-12.41,63.51-22.82,18.56-12.1,32.39-25.53,35.35-29.7,2.74-3.86,8.09-4.78,11.95-2.04,3.86,2.74,4.78,8.09,2.04,11.95-4.42,6.24-19.75,20.96-39.97,34.15-17.91,11.68-45.1,25.6-72.88,25.6-23.57,0-41.24-9.85-49.57-26.39-13.02,7-25.35,12.4-36.92,16.17-19.83,6.46-31.19,5.9-34.53,5.51-12.52-.12-21.93-4.22-27.96-12.17-10.12-13.35-9.82-35.52,1.01-74.14l18.42-65.85c-20.1,20.19-39.71,39.73-58.85,58.81-28.95,28.86-56.92,56.74-82.56,82.91,4.35,12.94,4.03,29.87-.99,50.61-8.17,33.89-27.35,70.08-52.64,99.27-24.56,28.35-50.77,45.28-70.12,45.28Zm109.36-180.4c-68.99,71.18-117.93,128.06-117.93,155.12,0,2.85,0,8.14,8.57,8.14,28.04,0,89.23-61.43,106.09-131.43,2.39-9.88,4.25-21.58,3.27-31.83Zm-199.19-3.02c-1.87,2.13-3.7,4.21-5.5,6.25-11.61,13.21-21.64,24.62-28.69,32.17-31.2,33.35-83.41,89.16-83.41,118.86,0,5.56,1.43,9,8.57,9,28.03,0,89.21-61.43,106.09-131.44,2.63-10.87,4.63-23.93,2.93-34.85Zm-760.22-46.43c19.78,12.92,44.44,28,81.63,28,29.02,0,53.69-9.45,73.33-28.08,18.04-17.11,31.92-42.01,41.45-74.3-10.61.56-21.99.85-34.24.81-34.82-.17-84.67-6.24-124.52-34.18-1.02-.72-2.03-1.44-3.03-2.18-1.46,6.42-2.97,12.77-4.53,19.05-9.61,38.8-19.56,68.94-30.11,90.88Zm-45.22-2.85c-13.22,0-16.71,12.62-16.71,19.29,0,10.74,10.5,11.57,13.71,11.57,8.21,0,16.87-7.67,25.57-22.2-8.42-5.15-15.7-8.65-22.57-8.65Zm942.15,25.76s0,0,0,0t0,0Zm-198.85,0s0,0,0,0t0,0Zm613.54-153.04c-20.03,0-45.73,17.89-68.74,47.86-20.4,26.56-34.42,57.69-35.73,78.84,12.22-7.69,26-17.3,41.33-29.31,28.79-22.46,50.7-43.77,63.4-61.61,13.87-19.5,12.41-28.38,11.64-30.63-1.46-4.26-7.27-5.15-11.89-5.15Zm-1272.89,1.61c2.79,2.35,5.71,4.59,8.78,6.74,36.21,25.39,82.39,30.91,114.74,31.07,14.1.04,26.97-.35,38.73-1.1,1.75-7.6,3.29-15.54,4.62-23.83,2.77-17.42,4.18-34.55,4.18-50.92,0-54.09-16.52-94.43-49.1-119.89-32.19-25.16-69.29-27.11-79.9-27.11-3.86,0-7.65.21-11.37.61-.9,5.38-2.17,14.25-3.81,25.76-5.19,36.27-14.07,98.34-26.87,158.67Zm359.2,33.73h0Zm-90.01-58.06c-11.06,0-15,9.3-15,18,0,5.93,3.84,12.47,10.53,18.27,6.05-3.63,10.06-6.98,12.62-9.53,6.95-6.93,7.7-12.02,7.7-13.88,0-6.22-1.23-12.86-15.86-12.86Zm-256.44-156.39c-10.76,3.35-20.42,8.6-28.38,15.54-17.46,15.21-26.31,37.51-26.31,66.29,0,34.17,9.22,62.42,27.46,84.37,11.46-56.24,19.54-112.71,24.39-146.56,1.12-7.81,2.06-14.42,2.85-19.63Zm1162.43-3.46c-6.6,0-15.89,4.09-29.16,36.02-9.67,23.26-20.25,58.15-33.22,103.74,35.7-45.52,69.66-104.06,69.66-129.91,0-9.86-4.74-9.86-7.29-9.86Zm-612.42,126.85c-13.44,0-23.57-8.84-23.57-20.57s10.35-20.14,23.57-20.14,23.14,8.85,23.14,20.14-10.17,20.57-23.14,20.57Zm0-23.57c-4.16,0-6.43,1.98-6.43,3,0,1.89,2.88,3.43,6.43,3.43,3.25,0,6-1.57,6-3.43,0-1.06-2.28-3-6-3Z"></path></g></g><g id="Layer_1"><circle class="cls-14" cx="1665.7" cy="1593.1" r="117.64"></circle><path class="cls-13" d="m1341.16,2729.64h2.94v30.12h15.71v2.65h-18.65v-32.77Z"></path><path class="cls-13" d="m1362.95,2751.91c0-6.22,3.32-11.05,10.38-11.05,6.59,0,10.25,4.83,10.25,11.05s-3.7,11.05-10.29,11.05c-7.27,0-10.33-4.83-10.33-11.05Zm17.56,0c0-5.33-2.9-8.49-7.22-8.49-4.75,0-7.27,3.15-7.27,8.49s2.56,8.49,7.27,8.49c4.33,0,7.22-3.15,7.22-8.49Z"></path><path class="cls-13" d="m1387.77,2751.91c0-6.22,3.32-11.05,10.38-11.05,6.59,0,10.25,4.83,10.25,11.05s-3.7,11.05-10.29,11.05c-7.27,0-10.33-4.83-10.33-11.05Zm17.56,0c0-5.33-2.9-8.49-7.22-8.49-4.75,0-7.27,3.15-7.27,8.49s2.56,8.49,7.27,8.49c4.33,0,7.22-3.15,7.22-8.49Z"></path><path class="cls-13" d="m1414.28,2741.4h2.39l.34,3.86h.08c1.13-2.48,4.03-4.41,7.86-4.41,6.3,0,9.66,3.99,9.66,11.01s-4.29,11.09-9.87,11.09c-3.78,0-6.38-1.6-7.43-3.7h-.08v11.55h-2.94v-29.41Zm17.18,10.63c0-7.18-3.4-8.61-6.93-8.61-4.24,0-7.56,2.73-7.56,8.44,0,6.01,3.45,8.57,7.44,8.57,3.02,0,7.06-1.47,7.06-8.4Z"></path><path class="cls-13" d="m1457.75,2752.91h-15.96c.17,4.79,2.48,7.48,6.93,7.48,3.82,0,5.67-1.43,5.97-4.83h2.98c-.29,4.24-3.28,7.39-9.03,7.39-7.06,0-9.83-4.66-9.83-10.88s3.23-11.22,10-11.22,8.95,3.99,8.95,10.21v1.85Zm-3.11-2.98c0-4.45-1.72-6.55-5.92-6.55s-6.55,2.65-6.89,6.97h12.81v-.42Z"></path><path class="cls-13" d="m1461.95,2751.95c0-7.1,4.28-11.09,10.04-11.09,3.7,0,6.22,1.6,7.31,3.74h.04v-14.95h2.94v32.77h-1.97l-.67-3.61h-.08c-1.18,2.31-3.95,4.16-7.77,4.16-6.3,0-9.83-3.99-9.83-11.01Zm17.64-.5c0-5.5-3.36-8.07-7.35-8.07-3.11,0-7.14,1.47-7.14,8.4s3.61,8.61,7.14,8.61c4.24,0,7.35-2.73,7.35-8.95Z"></path><path class="cls-13" d="m1516.55,2752.91h-15.96c.17,4.79,2.48,7.48,6.93,7.48,3.82,0,5.67-1.43,5.97-4.83h2.98c-.29,4.24-3.28,7.39-9.03,7.39-7.06,0-9.83-4.66-9.83-10.88s3.23-11.22,10-11.22,8.95,3.99,8.95,10.21v1.85Zm-3.11-2.98c0-4.45-1.72-6.55-5.92-6.55s-6.55,2.65-6.89,6.97h12.81v-.42Z"></path><path class="cls-13" d="m1537.8,2741.45l-8.07,10.5,8.02,10.42v.04h-3.44l-6.34-8.44-6.43,8.44h-3.28v-.04l8.02-10.38-8.07-10.54v-.04h3.44l6.39,8.49,6.43-8.44v-.04h3.32v.04Z"></path><path class="cls-13" d="m1553.3,2759.72v2.6c-.76.21-2.14.59-4.03.59-3.82,0-6.34-1.6-6.34-6.89v-12.18h-4.16v-2.44h4.16v-6.05l2.94-1.43v7.48h5.92v2.44h-5.92v11.8c0,2.81.76,4.58,3.4,4.58,1.6,0,3.23-.29,4.03-.5Z"></path><path class="cls-13" d="m1574.76,2752.91h-15.96c.17,4.79,2.48,7.48,6.93,7.48,3.82,0,5.67-1.43,5.97-4.83h2.98c-.29,4.24-3.28,7.39-9.03,7.39-7.06,0-9.83-4.66-9.83-10.88s3.23-11.22,10-11.22,8.95,3.99,8.95,10.21v1.85Zm-3.11-2.98c0-4.45-1.72-6.55-5.92-6.55s-6.55,2.65-6.89,6.97h12.81v-.42Z"></path><path class="cls-13" d="m1580.64,2741.4h2.6l.29,3.49c1.01-2.14,3.28-4.03,7.35-4.03,4.75,0,7.77,2.52,7.77,7.94v13.61h-2.94v-13.27c0-4.33-2.14-5.71-5.5-5.71-3.82,0-6.64,2.69-6.64,5.63v13.36h-2.94v-21Z"></path><path class="cls-13" d="m1604.33,2751.95c0-7.1,4.28-11.09,10.04-11.09,3.7,0,6.22,1.6,7.31,3.74h.04v-14.95h2.94v32.77h-1.97l-.67-3.61h-.08c-1.18,2.31-3.95,4.16-7.77,4.16-6.3,0-9.83-3.99-9.83-11.01Zm17.64-.5c0-5.5-3.36-8.07-7.35-8.07-3.11,0-7.14,1.47-7.14,8.4s3.61,8.61,7.14,8.61c4.24,0,7.35-2.73,7.35-8.95Z"></path><path class="cls-13" d="m1649.27,2752.91h-15.96c.17,4.79,2.48,7.48,6.93,7.48,3.82,0,5.67-1.43,5.97-4.83h2.98c-.29,4.24-3.28,7.39-9.03,7.39-7.06,0-9.83-4.66-9.83-10.88s3.23-11.22,10-11.22,8.95,3.99,8.95,10.21v1.85Zm-3.11-2.98c0-4.45-1.72-6.55-5.92-6.55s-6.55,2.65-6.89,6.97h12.81v-.42Z"></path><path class="cls-13" d="m1655.15,2741.4h2.6l.29,3.91c1.01-2.14,3.07-4.45,6.76-4.45,1.26,0,2.18.21,3.02.55v3.15c-1.13-.5-2.1-.76-3.4-.76-3.74,0-6.34,2.81-6.34,5.75v12.85h-2.94v-21Z"></path><path class="cls-13" d="m1670.35,2755.98v-1.18h2.94v1.13c0,2.86,2.14,4.5,5.96,4.5s5.8-1.01,5.8-3.78c0-2.06-1.01-2.81-3.86-3.32l-4.62-.84c-3.02-.55-5.54-2.02-5.54-5.5,0-3.15,2.35-6.13,8.4-6.13s8.4,3.02,8.4,7.22v.88h-2.98v-.76c0-3.44-2.14-4.91-5.42-4.91-3.95,0-5.33,1.34-5.33,3.36s1.01,2.86,3.91,3.4l4.03.76c4.12.76,6.09,1.93,6.09,5.59,0,4.58-4.12,6.55-8.78,6.55-7.31,0-8.99-3.28-8.99-6.97Z"></path><path class="cls-13" d="m188.85,2753.19c0-12.01,6.76-17.26,14.74-17.26,6.97,0,12.39,3.74,12.39,12.01v.8h-2.86v-.92c0-5.92-3.78-9.24-9.45-9.24-6.72,0-11.76,4.58-11.76,14.32s5.04,14.24,11.72,14.24c5.38,0,9.54-2.86,9.54-9.2v-.59h2.77v.42c0,8.02-5.33,12.01-12.56,12.01-7.98,0-14.53-4.87-14.53-16.59Z"></path><path class="cls-13" d="m221.87,2761.84v-13.61h2.94v13.27c0,4.33,2.14,5.71,5.42,5.71,3.74,0,6.55-2.69,6.55-5.63v-13.36h2.94v21h-2.6l-.25-3.36h-.08c-.97,2.02-3.23,3.91-7.23,3.91-4.66,0-7.69-2.52-7.69-7.94Z"></path><path class="cls-13" d="m247.07,2748.23h2.6l.29,3.91c1.01-2.14,3.07-4.45,6.76-4.45,1.26,0,2.18.21,3.02.55v3.15c-1.13-.5-2.1-.76-3.4-.76-3.74,0-6.34,2.81-6.34,5.75v12.85h-2.94v-21Z"></path><path class="cls-13" d="m262.27,2762.81v-1.18h2.94v1.13c0,2.86,2.14,4.49,5.96,4.49s5.8-1.01,5.8-3.78c0-2.06-1.01-2.81-3.86-3.32l-4.62-.84c-3.02-.55-5.54-2.02-5.54-5.5,0-3.15,2.35-6.13,8.4-6.13s8.4,3.02,8.4,7.23v.88h-2.98v-.76c0-3.45-2.14-4.92-5.42-4.92-3.95,0-5.33,1.34-5.33,3.36s1.01,2.86,3.91,3.4l4.03.76c4.12.76,6.09,1.93,6.09,5.59,0,4.58-4.12,6.55-8.78,6.55-7.31,0-8.99-3.28-8.99-6.97Z"></path><path class="cls-13" d="m285.92,2736.47h2.98v6.51h-2.98v-6.51Zm0,11.76h2.94v21h-2.94v-21Z"></path><path class="cls-13" d="m293.1,2748.27v-.04h3.36l7.35,17.98h.08l7.1-17.98h3.07v.04l-8.74,20.96h-3.02l-9.2-20.96Z"></path><path class="cls-13" d="m334.89,2759.74h-15.96c.17,4.79,2.48,7.48,6.93,7.48,3.82,0,5.67-1.43,5.96-4.83h2.98c-.29,4.24-3.28,7.39-9.03,7.39-7.06,0-9.83-4.66-9.83-10.88s3.23-11.22,10-11.22,8.95,3.99,8.95,10.21v1.85Zm-3.11-2.98c0-4.45-1.72-6.55-5.92-6.55s-6.55,2.65-6.89,6.97h12.81v-.42Z"></path><path class="cls-13" d="m350.01,2761.84v-13.61h2.94v13.27c0,4.33,2.14,5.71,5.42,5.71,3.74,0,6.55-2.69,6.55-5.63v-13.36h2.94v21h-2.6l-.25-3.36h-.08c-.97,2.02-3.23,3.91-7.23,3.91-4.66,0-7.69-2.52-7.69-7.94Z"></path><path class="cls-13" d="m375.21,2748.23h2.39l.34,3.87h.08c1.13-2.48,4.03-4.41,7.86-4.41,6.3,0,9.66,3.99,9.66,11.01s-4.28,11.09-9.87,11.09c-3.78,0-6.39-1.6-7.44-3.7h-.08v11.55h-2.94v-29.41Zm17.18,10.63c0-7.18-3.4-8.61-6.93-8.61-4.24,0-7.56,2.73-7.56,8.44,0,6.01,3.44,8.57,7.44,8.57,3.02,0,7.06-1.47,7.06-8.4Z"></path><path class="cls-13" d="m401.42,2748.23h2.39l.34,3.87h.08c1.13-2.48,4.03-4.41,7.86-4.41,6.3,0,9.66,3.99,9.66,11.01s-4.28,11.09-9.87,11.09c-3.78,0-6.39-1.6-7.44-3.7h-.08v11.55h-2.94v-29.41Zm17.18,10.63c0-7.18-3.4-8.61-6.93-8.61-4.24,0-7.56,2.73-7.56,8.44,0,6.01,3.44,8.57,7.44,8.57,3.02,0,7.06-1.47,7.06-8.4Z"></path><path class="cls-13" d="m444.89,2759.74h-15.96c.17,4.79,2.48,7.48,6.93,7.48,3.82,0,5.67-1.43,5.96-4.83h2.98c-.29,4.24-3.28,7.39-9.03,7.39-7.06,0-9.83-4.66-9.83-10.88s3.23-11.22,10-11.22,8.95,3.99,8.95,10.21v1.85Zm-3.11-2.98c0-4.45-1.72-6.55-5.92-6.55s-6.55,2.65-6.89,6.97h12.81v-.42Z"></path><path class="cls-13" d="m450.77,2748.23h2.6l.29,3.91c1.01-2.14,3.07-4.45,6.76-4.45,1.26,0,2.18.21,3.02.55v3.15c-1.13-.5-2.1-.76-3.4-.76-3.74,0-6.34,2.81-6.34,5.75v12.85h-2.94v-21Z"></path><path class="cls-13" d="m465.76,2758.9c0-6.38,3.23-11.22,10-11.22s8.95,3.91,8.95,8.95v.42h-3.11v-.63c0-3.82-1.64-6.09-5.84-6.09-4.75,0-7.02,3.11-7.02,8.4,0,5.63,2.39,8.49,6.93,8.49,3.82,0,5.84-1.85,5.92-5.67h3.02c-.08,4.66-3.15,8.23-9.03,8.23-7.23,0-9.83-4.75-9.83-10.88Z"></path><path class="cls-13" d="m489.11,2763.44c0-3.95,2.23-6.09,7.86-6.09h6.34v-1.72c0-2.98-1.26-5.42-5.46-5.42-3.95,0-5.33,1.51-5.33,4.12v.88h-2.98v-.84c0-5,4.2-6.68,8.32-6.68,5.8,0,8.4,2.86,8.4,8.44v13.11h-2.06l-.55-2.98h-.08c-1.26,1.89-3.7,3.53-7.35,3.53-4.91,0-7.1-2.31-7.1-6.34Zm14.2-1.85v-1.76h-7.02c-2.65,0-4.03.92-4.03,3.61,0,2.35,1.26,3.86,4.5,3.86,4.16,0,6.55-2.14,6.55-5.71Z"></path><path class="cls-13" d="m511.71,2762.81v-1.18h2.94v1.13c0,2.86,2.14,4.49,5.96,4.49s5.8-1.01,5.8-3.78c0-2.06-1.01-2.81-3.86-3.32l-4.62-.84c-3.02-.55-5.54-2.02-5.54-5.5,0-3.15,2.35-6.13,8.4-6.13s8.4,3.02,8.4,7.23v.88h-2.98v-.76c0-3.45-2.14-4.92-5.42-4.92-3.95,0-5.33,1.34-5.33,3.36s1.01,2.86,3.91,3.4l4.03.76c4.12.76,6.09,1.93,6.09,5.59,0,4.58-4.12,6.55-8.78,6.55-7.31,0-8.99-3.28-8.99-6.97Z"></path><path class="cls-13" d="m552.62,2759.74h-15.96c.17,4.79,2.48,7.48,6.93,7.48,3.82,0,5.67-1.43,5.96-4.83h2.98c-.29,4.24-3.28,7.39-9.03,7.39-7.06,0-9.83-4.66-9.83-10.88s3.23-11.22,10-11.22,8.95,3.99,8.95,10.21v1.85Zm-3.11-2.98c0-4.45-1.72-6.55-5.92-6.55s-6.55,2.65-6.89,6.97h12.81v-.42Z"></path><path class="cls-13" d="m568.16,2736.47h2.94v32.77h-2.94v-32.77Z"></path><path class="cls-13" d="m595.71,2759.74h-15.96c.17,4.79,2.48,7.48,6.93,7.48,3.82,0,5.67-1.43,5.96-4.83h2.98c-.29,4.24-3.28,7.39-9.03,7.39-7.06,0-9.83-4.66-9.83-10.88s3.23-11.22,10-11.22,8.95,3.99,8.95,10.21v1.85Zm-3.11-2.98c0-4.45-1.72-6.55-5.92-6.55s-6.55,2.65-6.89,6.97h12.81v-.42Z"></path><path class="cls-13" d="m602.18,2762.85v-12.18h-4.16v-2.44h4.16v-6.05l2.94-1.43v7.48h11.85v-6.05l2.94-1.43v7.48h5.92v2.44h-5.92v11.8c0,2.82.76,4.58,3.4,4.58,1.6,0,3.23-.29,4.03-.5v2.6c-.76.21-2.14.59-4.03.59-3.82,0-6.34-1.6-6.34-6.89v-12.18h-11.85v11.8c0,2.82.76,4.58,3.4,4.58,1.6,0,3.23-.29,4.03-.5v2.6c-.76.21-2.14.59-4.03.59-3.82,0-6.34-1.6-6.34-6.89Z"></path><path class="cls-13" d="m648.8,2759.74h-15.96c.17,4.79,2.48,7.48,6.93,7.48,3.82,0,5.67-1.43,5.96-4.83h2.98c-.29,4.24-3.28,7.39-9.03,7.39-7.06,0-9.83-4.66-9.83-10.88s3.23-11.22,10-11.22,8.95,3.99,8.95,10.21v1.85Zm-3.11-2.98c0-4.45-1.72-6.55-5.92-6.55s-6.55,2.65-6.89,6.97h12.81v-.42Z"></path><path class="cls-13" d="m654.68,2748.23h2.6l.29,3.91c1.01-2.14,3.07-4.45,6.76-4.45,1.26,0,2.18.21,3.02.55v3.15c-1.13-.5-2.1-.76-3.4-.76-3.74,0-6.34,2.81-6.34,5.75v12.85h-2.94v-21Z"></path><path class="cls-13" d="m669.88,2762.81v-1.18h2.94v1.13c0,2.86,2.14,4.49,5.96,4.49s5.8-1.01,5.8-3.78c0-2.06-1.01-2.81-3.86-3.32l-4.62-.84c-3.02-.55-5.54-2.02-5.54-5.5,0-3.15,2.35-6.13,8.4-6.13s8.4,3.02,8.4,7.23v.88h-2.98v-.76c0-3.45-2.14-4.92-5.42-4.92-3.95,0-5.33,1.34-5.33,3.36s1.01,2.86,3.91,3.4l4.03.76c4.12.76,6.09,1.93,6.09,5.59,0,4.58-4.12,6.55-8.78,6.55-7.31,0-8.99-3.28-8.99-6.97Z"></path><path class="cls-13" d="m392.02,3108.17c0-3.82,2.55-6.8,5.95-8.07,101.58-33.15,189.55-158.95,146.63-158.95-75.65,0-56.95,359.98-162.78,359.98-22.95,0-36.55-17-35.28-35.28,1.28-14.45,12.75-33.15,34.85-33.15,34.85,0,63.33,47.6,118.58,47.6,65.03,0,123.68-65.88,190.4-168.3,1.7-2.12,4.25-3.82,7.23-3.82,4.68,0,8.5,3.82,8.5,8.5,0,1.7-.43,3.4-1.28,4.68-68.43,104.12-131.33,175.95-204.85,175.95-59.5,0-93.5-47.6-118.58-47.6-11.05,0-17.43,9.35-17.85,17-.43,9.78,5.52,17.43,18.28,17.43,86.28,0,67.58-359.98,162.78-359.98,82.03,0-28.05,155.12-141.53,192.1-5.1,1.7-11.05-2.12-11.05-8.08Zm915.03,189.13c-6.38,0-9.78-6.38-8.08-11.47l38.25-105.4c4.25-11.47,6.38-20.82,6.38-30.17,0-16.58-6.38-25.93-19.13-25.93-19.12,0-37.4,27.2-60.35,62.9-32.73,50.15-75.23,114.75-146.63,114.75-35.7,0-54.4-22.1-54.4-50.15,0-50.15,61.62-145.35,121.55-145.35,21.25,0,33.15,11.47,33.15,25.92,0,34-71.4,82.88-119.85,82.88s-79.05-47.18-88.83-96.48c.43,1.7,4.25,3.4,5.95,3.4-.85,0,5.53-2.55,5.95-3.82-15.3,90.1-90.95,178.93-137.7,178.93-14.03,0-27.2-7.65-27.2-36.55,0-40.38,24.23-96.48,24.23-127.93,0-11.47-2.55-15.3-10.2-15.3-24.23,0-50.15,36.55-79.48,78.2-32.73,48.03-69.7,101.58-115.6,101.58-21.68,0-31.88-12.33-31.88-30.6,0-5.52.85-12.75,2.98-19.97,14.45-56.1,23.8-87.55,44.63-134.3,1.28-2.97,4.25-5.1,7.65-5.1,6.38,0,10.2,6.8,7.65,11.9-19.98,45.9-29.33,75.65-43.78,131.75-1.28,6.38-2.12,11.05-2.12,15.72,0,9.78,3.4,13.6,14.88,13.6,36.55,0,69.28-46.75,102-93.93,29.33-42.5,59.08-85.85,93.08-85.85,19.98,0,27.2,14.45,27.2,32.3,0,34.85-24.23,90.95-24.23,127.93,0,16.15,3.4,19.55,10.2,19.55,35.28,0,106.25-80.33,120.7-164.48,1.27-6.8,5.95-10.62,11.05-10.62,5.53,0,9.78,3.82,11.05,10.2,8.08,44.2,35.28,82.88,71.83,82.88,42.08,0,102.85-45.05,102.85-65.88,0-5.1-5.52-8.92-16.15-8.92-48.03,0-104.55,85.85-104.55,128.35,0,19.55,11.9,33.15,37.4,33.15,62.05,0,99.45-56.95,132.18-107.1,23.8-36.55,45.48-70.55,74.8-70.55,23.8,0,36.13,18.7,36.13,42.93,0,11.05-2.98,23.8-7.23,36.12l-38.25,105.4c-1.27,3.4-4.25,5.53-8.07,5.53Zm-596.7-249.48c0-6.38,6.38-11.48,14.87-11.48s14.45,5.1,14.45,11.48c0,6.8-6.38,11.9-14.45,11.9-8.5,0-14.87-5.1-14.87-11.9Zm628.58,163.62c-4.67,0-8.5-3.82-8.5-8.5,0-2.12.85-3.82,1.7-5.1,36.55-45.9,80.33-90.53,113.48-90.53s36.55,39.53,26.78,78.2l-16.15,65.45c-.85,3.83-4.25,6.38-8.07,6.38-5.95,0-9.35-5.53-8.08-10.62l16.15-65.45c8.08-32.73,5.95-56.95-10.62-56.95-24.23,0-64.6,39.53-99.88,83.72-1.7,2.12-4.25,3.4-6.8,3.4Zm133.45-25.92l-16.15,65.45c-5.1,21.25-.85,29.33,10.2,29.33,26.35,0,61.63-39.53,70.55-48.45,1.28-1.7,3.4-2.55,5.95-2.55,4.68,0,8.5,3.82,8.5,8.5,0,2.55-.85,4.67-2.55,5.95-8.92,8.93-47.6,53.55-82.45,53.55-22.1,0-34.85-17.43-26.35-50.58l16.15-65.45,16.15,4.25Z"></path><path class="cls-13" d="m935.17,2731.36h2.94v30.12h15.71v2.65h-18.65v-32.77Z"></path><path class="cls-13" d="m956.97,2753.62c0-6.22,3.32-11.05,10.38-11.05,6.59,0,10.25,4.83,10.25,11.05s-3.7,11.05-10.29,11.05c-7.27,0-10.33-4.83-10.33-11.05Zm17.56,0c0-5.34-2.9-8.49-7.22-8.49-4.75,0-7.27,3.15-7.27,8.49s2.56,8.48,7.27,8.48c4.33,0,7.22-3.15,7.22-8.48Z"></path><path class="cls-13" d="m981.79,2753.62c0-6.22,3.32-11.05,10.38-11.05,6.59,0,10.25,4.83,10.25,11.05s-3.7,11.05-10.29,11.05c-7.27,0-10.33-4.83-10.33-11.05Zm17.56,0c0-5.34-2.9-8.49-7.22-8.49-4.75,0-7.27,3.15-7.27,8.49s2.56,8.48,7.27,8.48c4.33,0,7.22-3.15,7.22-8.48Z"></path><path class="cls-13" d="m1008.29,2743.12h2.39l.34,3.86h.08c1.13-2.48,4.03-4.41,7.86-4.41,6.3,0,9.66,3.99,9.66,11.01s-4.29,11.09-9.87,11.09c-3.78,0-6.38-1.6-7.43-3.7h-.08v11.55h-2.94v-29.4Zm17.18,10.63c0-7.18-3.4-8.61-6.93-8.61-4.24,0-7.56,2.73-7.56,8.44,0,6.01,3.45,8.57,7.44,8.57,3.02,0,7.06-1.47,7.06-8.4Z"></path><path class="cls-13" d="m1051.77,2754.63h-15.96c.17,4.79,2.48,7.48,6.93,7.48,3.82,0,5.67-1.43,5.97-4.83h2.98c-.29,4.24-3.28,7.39-9.03,7.39-7.06,0-9.83-4.66-9.83-10.88s3.23-11.22,10-11.22,8.95,3.99,8.95,10.21v1.85Zm-3.11-2.98c0-4.45-1.72-6.55-5.92-6.55s-6.55,2.65-6.89,6.97h12.81v-.42Z"></path><path class="cls-13" d="m1055.96,2753.67c0-7.1,4.28-11.09,10.04-11.09,3.7,0,6.22,1.6,7.31,3.74h.04v-14.95h2.94v32.77h-1.97l-.67-3.61h-.08c-1.18,2.31-3.95,4.16-7.77,4.16-6.3,0-9.83-3.99-9.83-11.01Zm17.64-.5c0-5.5-3.36-8.06-7.35-8.06-3.11,0-7.14,1.47-7.14,8.4s3.61,8.61,7.14,8.61c4.24,0,7.35-2.73,7.35-8.95Z"></path><path class="cls-13" d="m1094.98,2741.82h-3.36v-5.08c0-3.95.88-5.29,3.4-5.97l.67,1.85c-1.76.67-2.06,1.09-2.06,3.78v.34h1.34v5.08Zm5.92,0h-3.36v-5.08c0-3.95.88-5.29,3.4-5.97l.67,1.85c-1.76.67-2.06,1.09-2.06,3.78v.34h1.34v5.08Z"></path><path class="cls-13" d="m1104.98,2761.56l14.7-15.88h-14.58v-2.56h18.23v2.56l-14.7,15.84h14.66v2.61h-18.31v-2.56Z"></path><path class="cls-13" d="m1126.69,2740.56c1.76-.67,2.06-1.09,2.06-3.78v-.34h-1.34v-5.08h3.36v5.08c0,3.95-.88,5.29-3.4,5.96l-.67-1.85Zm5.92,0c1.76-.67,2.06-1.09,2.06-3.78v-.34h-1.34v-5.08h3.36v5.08c0,3.95-.88,5.29-3.4,5.96l-.67-1.85Z"></path><path class="cls-13" d="m727.3,3610.38c0-12.01,6.76-17.26,14.75-17.26,6.97,0,12.39,3.74,12.39,12.01v.8h-2.86v-.92c0-5.92-3.78-9.24-9.45-9.24-6.72,0-11.76,4.58-11.76,14.32s5.04,14.24,11.72,14.24c5.38,0,9.54-2.86,9.54-9.2v-.59h2.77v.42c0,8.02-5.33,12.01-12.56,12.01-7.98,0-14.54-4.87-14.54-16.59Z"></path><path class="cls-13" d="m760.31,3619.04v-13.61h2.94v13.27c0,4.33,2.14,5.71,5.42,5.71,3.74,0,6.55-2.69,6.55-5.63v-13.36h2.94v21h-2.6l-.25-3.36h-.08c-.97,2.02-3.23,3.91-7.23,3.91-4.66,0-7.69-2.52-7.69-7.94Z"></path><path class="cls-13" d="m785.51,3605.43h2.6l.29,3.91c1.01-2.14,3.07-4.45,6.76-4.45,1.26,0,2.18.21,3.02.55v3.15c-1.13-.5-2.1-.76-3.4-.76-3.74,0-6.34,2.81-6.34,5.75v12.85h-2.94v-21Z"></path><path class="cls-13" d="m799.67,3605.47v-.04h3.36l7.35,17.98h.08l7.1-17.98h3.07v.04l-8.74,20.96h-3.02l-9.2-20.96Z"></path><path class="cls-13" d="m841.46,3616.94h-15.96c.17,4.79,2.48,7.48,6.93,7.48,3.82,0,5.67-1.43,5.96-4.83h2.98c-.29,4.24-3.28,7.39-9.03,7.39-7.06,0-9.83-4.66-9.83-10.88s3.23-11.22,10-11.22,8.95,3.99,8.95,10.21v1.85Zm-3.11-2.98c0-4.45-1.72-6.55-5.92-6.55s-6.55,2.65-6.89,6.97h12.81v-.42Z"></path><path class="cls-13" d="m845.66,3615.97c0-7.1,4.28-11.09,10.04-11.09,3.7,0,6.22,1.6,7.31,3.74h.04v-14.96h2.94v32.77h-1.97l-.67-3.61h-.08c-1.18,2.31-3.95,4.16-7.77,4.16-6.3,0-9.83-3.99-9.83-11.01Zm17.64-.5c0-5.5-3.36-8.07-7.35-8.07-3.11,0-7.14,1.47-7.14,8.4s3.61,8.61,7.14,8.61c4.24,0,7.35-2.73,7.35-8.95Z"></path><path class="cls-13" d="m900.26,3616.94h-15.96c.17,4.79,2.48,7.48,6.93,7.48,3.82,0,5.67-1.43,5.96-4.83h2.98c-.29,4.24-3.28,7.39-9.03,7.39-7.06,0-9.83-4.66-9.83-10.88s3.23-11.22,10-11.22,8.95,3.99,8.95,10.21v1.85Zm-3.11-2.98c0-4.45-1.72-6.55-5.92-6.55s-6.55,2.65-6.89,6.97h12.81v-.42Z"></path><path class="cls-13" d="m906.14,3605.43h2.6l.29,3.49c1.01-2.14,3.28-4.03,7.35-4.03,4.75,0,7.77,2.52,7.77,7.94v13.61h-2.94v-13.27c0-4.33-2.14-5.71-5.5-5.71-3.82,0-6.64,2.69-6.64,5.63v13.36h-2.94v-21Z"></path><path class="cls-13" d="m942.47,3623.74v2.6c-.76.21-2.14.59-4.03.59-3.82,0-6.34-1.6-6.34-6.89v-12.18h-4.16v-2.44h4.16v-6.05l2.94-1.43v7.48h5.92v2.44h-5.92v11.8c0,2.81.76,4.58,3.4,4.58,1.6,0,3.23-.29,4.03-.5Z"></path><path class="cls-13" d="m947.3,3605.43h2.6l.29,3.91c1.01-2.14,3.07-4.45,6.76-4.45,1.26,0,2.18.21,3.02.55v3.15c-1.13-.5-2.1-.76-3.4-.76-3.74,0-6.34,2.81-6.34,5.75v12.85h-2.94v-21Z"></path><path class="cls-13" d="m964.81,3605.43l6.89,17.98h.08l7.14-17.98h3.07v.04l-8.86,20.84-3.11,8.53h-2.98v-.04l3.19-8.36-8.78-20.96v-.04h3.36Z"></path><path class="cls-13" d="m993.96,3620v-1.18h2.94v1.13c0,2.86,2.14,4.5,5.96,4.5s5.8-1.01,5.8-3.78c0-2.06-1.01-2.81-3.86-3.32l-4.62-.84c-3.02-.55-5.54-2.02-5.54-5.5,0-3.15,2.35-6.13,8.4-6.13s8.4,3.02,8.4,7.23v.88h-2.98v-.76c0-3.44-2.14-4.92-5.42-4.92-3.95,0-5.33,1.34-5.33,3.36s1.01,2.86,3.91,3.4l4.03.76c4.12.76,6.09,1.93,6.09,5.59,0,4.58-4.12,6.55-8.78,6.55-7.31,0-8.99-3.28-8.99-6.97Z"></path><path class="cls-13" d="m1028.57,3623.74v2.6c-.76.21-2.14.59-4.03.59-3.82,0-6.34-1.6-6.34-6.89v-12.18h-4.16v-2.44h4.16v-6.05l2.94-1.43v7.48h5.92v2.44h-5.92v11.8c0,2.81.76,4.58,3.4,4.58,1.6,0,3.23-.29,4.03-.5Z"></path><path class="cls-13" d="m1033.4,3605.43h2.6l.29,3.91c1.01-2.14,3.07-4.45,6.76-4.45,1.26,0,2.18.21,3.02.55v3.15c-1.13-.5-2.1-.76-3.4-.76-3.74,0-6.34,2.81-6.34,5.75v12.85h-2.94v-21Z"></path><path class="cls-13" d="m1048.39,3615.93c0-6.22,3.32-11.05,10.38-11.05,6.59,0,10.25,4.83,10.25,11.05s-3.7,11.05-10.29,11.05c-7.27,0-10.33-4.83-10.33-11.05Zm17.56,0c0-5.33-2.9-8.49-7.23-8.49-4.75,0-7.27,3.15-7.27,8.49s2.56,8.49,7.27,8.49c4.33,0,7.23-3.15,7.23-8.49Z"></path><path class="cls-13" d="m1074.26,3593.67h2.94v23.23l12.14-11.47h3.66v.04l-8.4,7.86,8.78,13.06v.04h-3.36l-7.39-11.22-5.42,5.04v6.17h-2.94v-32.77Z"></path><path class="cls-13" d="m1114.63,3616.94h-15.96c.17,4.79,2.48,7.48,6.93,7.48,3.82,0,5.67-1.43,5.96-4.83h2.98c-.29,4.24-3.28,7.39-9.03,7.39-7.06,0-9.83-4.66-9.83-10.88s3.23-11.22,10-11.22,8.95,3.99,8.95,10.21v1.85Zm-3.11-2.98c0-4.45-1.72-6.55-5.92-6.55s-6.55,2.65-6.89,6.97h12.81v-.42Z"></path><path class="cls-13" d="m1118.62,3620v-1.18h2.94v1.13c0,2.86,2.14,4.5,5.96,4.5s5.8-1.01,5.8-3.78c0-2.06-1.01-2.81-3.87-3.32l-4.62-.84c-3.02-.55-5.54-2.02-5.54-5.5,0-3.15,2.35-6.13,8.4-6.13s8.4,3.02,8.4,7.23v.88h-2.98v-.76c0-3.44-2.14-4.92-5.42-4.92-3.95,0-5.33,1.34-5.33,3.36s1.01,2.86,3.91,3.4l4.03.76c4.12.76,6.09,1.93,6.09,5.59,0,4.58-4.12,6.55-8.78,6.55-7.31,0-8.99-3.28-8.99-6.97Z"></path><path class="cls-13" d="m1151.92,3593.67h2.98v6.51h-2.98v-6.51Zm0,11.76h2.94v21h-2.94v-21Z"></path><path class="cls-13" d="m1162.25,3605.43h2.6l.29,3.49c1.01-2.14,3.28-4.03,7.35-4.03,4.75,0,7.77,2.52,7.77,7.94v13.61h-2.94v-13.27c0-4.33-2.14-5.71-5.5-5.71-3.82,0-6.64,2.69-6.64,5.63v13.36h-2.94v-21Z"></path><path class="cls-13" d="m1198.96,3604.13h-3.36v-5.08c0-3.95.88-5.29,3.4-5.96l.67,1.85c-1.76.67-2.06,1.09-2.06,3.78v.34h1.34v5.08Zm5.92,0h-3.36v-5.08c0-3.95.88-5.29,3.4-5.96l.67,1.85c-1.76.67-2.06,1.09-2.06,3.78v.34h1.34v5.08Z"></path><path class="cls-13" d="m1211.27,3605.43h2.6l.29,3.49c1.01-2.14,3.28-4.03,7.35-4.03,4.75,0,7.77,2.52,7.77,7.94v13.61h-2.94v-13.27c0-4.33-2.14-5.71-5.5-5.71-3.82,0-6.64,2.69-6.64,5.63v13.36h-2.94v-21Z"></path><path class="cls-13" d="m1233.7,3602.87c1.76-.67,2.06-1.09,2.06-3.78v-.34h-1.34v-5.08h3.36v5.08c0,3.95-.88,5.29-3.4,5.96l-.67-1.85Zm5.92,0c1.76-.67,2.06-1.09,2.06-3.78v-.34h-1.34v-5.08h3.36v5.08c0,3.95-.88,5.29-3.4,5.96l-.67-1.85Z"></path><path class="cls-13" d="m1246.63,3620.21h3.36v6.22c0,3.95-.88,5.29-3.4,5.96l-.67-1.85c1.76-.67,2.06-1.09,2.06-3.78v-.34h-1.34v-6.22Z"></path><path class="cls-13" d="m1267.63,3604.13h-3.36v-5.08c0-3.95.88-5.29,3.4-5.96l.67,1.85c-1.76.67-2.06,1.09-2.06,3.78v.34h1.34v5.08Zm5.92,0h-3.36v-5.08c0-3.95.88-5.29,3.4-5.96l.67,1.85c-1.76.67-2.06,1.09-2.06,3.78v.34h1.34v5.08Z"></path><path class="cls-13" d="m1310.65,3612.82v13.61h-2.94v-13.27c0-4.33-2.14-5.71-4.75-5.71-3.82,0-6.17,2.69-6.17,5.63v13.36h-2.94v-13.27c0-4.33-1.85-5.71-4.83-5.71-3.61,0-6.13,2.69-6.13,5.63v13.36h-2.94v-21h2.6l.29,3.49c1.01-2.02,3.07-4.03,6.93-4.03,2.94,0,5.38,1.39,6.43,4.29,1.22-2.39,3.57-4.29,7.14-4.29,4.29,0,7.31,2.52,7.31,7.94Z"></path><path class="cls-13" d="m1315.05,3602.87c1.76-.67,2.06-1.09,2.06-3.78v-.34h-1.34v-5.08h3.36v5.08c0,3.95-.88,5.29-3.4,5.96l-.67-1.85Zm5.92,0c1.76-.67,2.06-1.09,2.06-3.78v-.34h-1.34v-5.08h3.36v5.08c0,3.95-.88,5.29-3.4,5.96l-.67-1.85Z"></path><path class="cls-13" d="m1339.33,3620.63c0-3.95,2.23-6.09,7.86-6.09h6.34v-1.72c0-2.98-1.26-5.42-5.46-5.42-3.95,0-5.33,1.51-5.33,4.12v.88h-2.98v-.84c0-5,4.2-6.68,8.32-6.68,5.8,0,8.4,2.86,8.4,8.44v13.11h-2.06l-.55-2.98h-.08c-1.26,1.89-3.7,3.53-7.35,3.53-4.92,0-7.1-2.31-7.1-6.34Zm14.2-1.85v-1.76h-7.01c-2.65,0-4.03.92-4.03,3.61,0,2.35,1.26,3.87,4.5,3.87,4.16,0,6.55-2.14,6.55-5.71Z"></path><path class="cls-13" d="m1363.81,3605.43h2.6l.29,3.49c1.01-2.14,3.28-4.03,7.35-4.03,4.75,0,7.77,2.52,7.77,7.94v13.61h-2.94v-13.27c0-4.33-2.14-5.71-5.5-5.71-3.82,0-6.64,2.69-6.64,5.63v13.36h-2.94v-21Z"></path><path class="cls-13" d="m1387.5,3615.97c0-7.1,4.28-11.09,10.04-11.09,3.7,0,6.22,1.6,7.31,3.74h.04v-14.96h2.94v32.77h-1.97l-.67-3.61h-.08c-1.18,2.31-3.95,4.16-7.77,4.16-6.3,0-9.83-3.99-9.83-11.01Zm17.64-.5c0-5.5-3.36-8.07-7.35-8.07-3.11,0-7.14,1.47-7.14,8.4s3.61,8.61,7.14,8.61c4.24,0,7.35-2.73,7.35-8.95Z"></path><path class="cls-13" d="m1426.52,3604.13h-3.36v-5.08c0-3.95.88-5.29,3.4-5.96l.67,1.85c-1.76.67-2.06,1.09-2.06,3.78v.34h1.34v5.08Zm5.92,0h-3.36v-5.08c0-3.95.88-5.29,3.4-5.96l.67,1.85c-1.76.67-2.06,1.09-2.06,3.78v.34h1.34v5.08Z"></path><path class="cls-13" d="m1435.67,3605.47v-.04h3.36l7.35,17.98h.08l7.1-17.98h3.07v.04l-8.74,20.96h-3.02l-9.2-20.96Z"></path><path class="cls-13" d="m1459.15,3602.87c1.76-.67,2.06-1.09,2.06-3.78v-.34h-1.34v-5.08h3.36v5.08c0,3.95-.88,5.29-3.4,5.96l-.67-1.85Zm5.92,0c1.76-.67,2.06-1.09,2.06-3.78v-.34h-1.34v-5.08h3.36v5.08c0,3.95-.88,5.29-3.4,5.96l-.67-1.85Z"></path><circle class="cls-14" cx="1538.97" cy="1197.51" r="99.97"></circle><circle class="cls-14" cx="1440.03" cy="1535.29" r="163.45"></circle><line class="cls-4" x1="939.62" y1="1519.71" x2="939.62" y2="1520.59"></line><line class="cls-11" x1="939.62" y1="1537.71" x2="939.62" y2="1792.92"></line><line class="cls-4" x1="939.62" y1="1801.49" x2="939.62" y2="1802.36"></line><path class="cls-13" d="m865.03,1846.78c0-11.72,6.76-16.93,15.46-16.93,7.94,0,14.7,5.21,14.7,16.59,0,12.48-6.76,17.26-15.08,17.26s-15.08-4.79-15.08-16.93Zm27.05,0c0-10.12-5.33-14.24-12.01-14.24s-11.93,4.12-11.93,14.24,5.33,14.2,12.01,14.2,11.93-3.74,11.93-14.2Z"></path><path class="cls-13" d="m901.48,1842.16h2.39l.34,3.86h.08c1.13-2.48,4.03-4.41,7.86-4.41,6.3,0,9.66,3.99,9.66,11.01s-4.29,11.09-9.87,11.09c-3.78,0-6.38-1.6-7.43-3.7h-.08v11.55h-2.94v-29.41Zm17.18,10.63c0-7.18-3.4-8.61-6.93-8.61-4.24,0-7.56,2.73-7.56,8.44,0,6.01,3.45,8.57,7.44,8.57,3.02,0,7.06-1.47,7.06-8.4Z"></path><path class="cls-13" d="m944.96,1853.67h-15.96c.17,4.79,2.48,7.48,6.93,7.48,3.82,0,5.67-1.43,5.97-4.83h2.98c-.29,4.24-3.28,7.39-9.03,7.39-7.06,0-9.83-4.66-9.83-10.88s3.23-11.22,10-11.22,8.95,3.99,8.95,10.21v1.85Zm-3.11-2.98c0-4.45-1.72-6.55-5.92-6.55s-6.55,2.65-6.89,6.97h12.81v-.42Z"></path><path class="cls-13" d="m950.83,1842.16h2.6l.29,3.49c1.01-2.14,3.28-4.03,7.35-4.03,4.75,0,7.77,2.52,7.77,7.94v13.61h-2.94v-13.27c0-4.33-2.14-5.71-5.5-5.71-3.82,0-6.64,2.69-6.64,5.63v13.36h-2.94v-21Z"></path><path class="cls-13" d="m987.54,1840.86h-3.36v-5.08c0-3.95.88-5.29,3.4-5.97l.67,1.85c-1.76.67-2.06,1.09-2.06,3.78v.34h1.34v5.08Zm5.92,0h-3.36v-5.08c0-3.95.88-5.29,3.4-5.97l.67,1.85c-1.76.67-2.06,1.09-2.06,3.78v.34h1.34v5.08Z"></path><path class="cls-13" d="m999.85,1842.16h2.39l.34,3.86h.08c1.13-2.48,4.03-4.41,7.86-4.41,6.3,0,9.66,3.99,9.66,11.01s-4.29,11.09-9.87,11.09c-3.78,0-6.38-1.6-7.43-3.7h-.08v11.55h-2.94v-29.41Zm17.18,10.63c0-7.18-3.4-8.61-6.93-8.61-4.24,0-7.56,2.73-7.56,8.44,0,6.01,3.45,8.57,7.44,8.57,3.02,0,7.06-1.47,7.06-8.4Z"></path><path class="cls-13" d="m1021.43,1839.6c1.76-.67,2.06-1.09,2.06-3.78v-.34h-1.34v-5.08h3.36v5.08c0,3.95-.88,5.29-3.4,5.97l-.67-1.85Zm5.92,0c1.76-.67,2.06-1.09,2.06-3.78v-.34h-1.34v-5.08h3.36v5.08c0,3.95-.88,5.29-3.4,5.97l-.67-1.85Z"></path><path class="cls-13" d="m93.99,1425.06c3.82,0,7.22,2.55,8.07,6.38,9.78,34,21.68,43.35,35.7,43.35,57.8,0,158.53-205.7,236.73-345.95,7.23-14.02,23.38-10.2,23.38,4.68l9.78,349.78c0,4.67-3.82,8.5-8.5,8.5s-8.5-3.83-8.5-8.5l-9.78-349.78c0,.85,8.93,2.97,8.93,2.97-78.2,140.25-179.78,355.3-252.03,355.3-21.68,0-40.38-14.02-51.85-56.1-1.7-4.67,2.12-10.62,8.08-10.62Zm303.45-48.45c-3.83,0-7.23-2.55-8.08-6.38-7.65-28.9-43.78-46.33-73.95-46.33-25.5,0-32.3,11.9-32.3,26.35s8.08,27.2,42.5,27.2c82.03,0,154.7-75.65,192.53-75.65,28.05,0,40.38,36.55,25.08,79.05l-38.25,105.4c-1.27,3.4-4.25,5.52-8.07,5.52-6.38,0-9.78-6.38-8.08-11.48l38.25-105.4c11.9-32.73,3.82-56.1-8.93-56.1-28.48,0-107.53,75.65-192.53,75.65-46.75,0-59.5-22.95-59.5-44.2s11.9-43.35,49.3-43.35c35.28,0,80.75,20.83,90.1,59.08,1.28,5.1-2.12,10.62-8.07,10.62Zm136.85,12.75c-4.68,0-8.5-3.82-8.5-8.5,0-2.12.85-4.25,2.12-5.52,38.68-42.93,83.3-73.53,112.63-73.53,35.7,0,43.35,39.52,28.9,79.05l-38.25,105.4c-1.27,3.4-4.25,5.52-8.07,5.52-6.38,0-9.78-6.38-8.07-11.48l38.25-105.4c11.9-31.88,6.38-56.1-12.75-56.1-22.52,0-63.75,27.2-99.88,67.58-1.7,1.7-3.83,2.98-6.38,2.98Zm121.55,12.33c-4.68,0-8.5-3.83-8.5-8.5,0-2.12.85-4.25,2.12-5.52,37.83-42.08,79.05-85.85,112.2-85.85s36.55,39.52,26.78,78.2l-16.15,65.45c-.85,3.83-4.25,6.38-8.07,6.38-5.95,0-9.35-5.52-8.07-10.62l16.15-65.45c8.08-32.73,5.95-56.95-10.62-56.95-24.65,0-62.48,38.68-99.45,79.9-1.7,1.7-3.83,2.98-6.38,2.98Zm132.6-21.68l-16.15,65.45c-5.1,21.25.42,29.33,7.23,29.33,27.63,0,86.28-71.83,137.7-146.2,1.27-2.55,3.82-3.83,6.8-3.83,4.68,0,8.5,3.83,8.5,8.5,0,1.7-.42,3.4-1.7,4.67-50.58,74.38-112.63,153.85-151.3,153.85-18.28,0-31.88-17.43-23.38-50.58l16.15-65.45,16.15,4.25Zm28.05,294.53c-5.95,0-9.77-5.95-8.07-11.05l176.38-543.15c1.27-3.4,4.25-5.95,8.08-5.95,5.95,0,9.77,5.95,8.08,11.05l-176.38,543.15c-1.27,3.4-4.25,5.95-8.08,5.95Zm93.93-286.45c-4.67,0-8.5-3.83-8.5-8.5,0-2.12.85-4.25,2.12-5.95,27.2-28.9,81.6-71.83,113.9-71.83,34.85,0,29.33,40.8,17.85,78.63l-19.98,65.45c-.85,3.4-4.25,5.95-8.08,5.95-5.95,0-9.77-5.52-8.07-11.05l19.98-65.45c10.2-33.58,13.17-56.53-1.7-56.53-25.08,0-75.65,39.53-101.15,66.73-1.7,1.7-3.82,2.55-6.38,2.55Zm125.38-7.65l-19.98,65.45c-6.38,20.83-1.7,28.9,3.83,28.9,23.38,0,84.15-66.73,168.3-168.3,1.27-1.7,3.82-2.98,6.38-2.98,4.67,0,8.5,3.83,8.5,8.5,0,2.12-.85,3.83-2.12,5.53-83.3,100.73-147.05,174.25-181.05,174.25-18.7,0-29.75-19.55-19.98-51l19.98-65.45,16.15,5.1Zm152.58-75.65c41.23-43.35,96.48-125.38,96.48-158.1,0-7.23-2.12-9.77-8.5-9.77-20.4,0-37.83,42.93-72.25,172.55l-35.7,136c-5.1,20.4-2.98,29.33,10.2,29.33,44.2,0,106.68-85.43,146.63-166.18,1.27-2.55,4.25-4.67,7.65-4.67,4.67,0,8.5,3.82,8.5,8.5,0,1.27-.42,2.55-.85,3.82-40.8,81.6-106.68,175.53-161.93,175.53-28.48,0-33.58-23.38-26.35-50.58l35.7-136c34.85-132.6,53.12-185.3,88.4-185.3,18.28,0,25.5,12.75,25.5,26.77,0,39.53-58.65,124.95-101.58,170l-11.9-11.9Zm145.35-2.97c6.38,0,10.2,6.8,7.65,11.9-19.98,45.9-29.33,75.65-43.78,131.75-4.67,19.98-1.27,29.33,8.5,29.33,30.6,0,94.35-67.58,164.05-155.98,1.7-2.12,4.25-3.4,6.8-3.4,4.67,0,8.5,3.82,8.5,8.5,0,2.12-.85,3.82-1.7,5.1-69.7,88.4-136.85,162.78-177.65,162.78-21.67,0-32.73-19.55-24.65-50.58,14.45-56.1,23.8-87.55,44.63-134.3,1.27-2.97,4.25-5.1,7.65-5.1Zm15.73-59.5c0-6.38,6.38-11.48,14.88-11.48s14.45,5.1,14.45,11.48c0,6.8-6.38,11.9-14.45,11.9-8.5,0-14.88-5.1-14.88-11.9Zm126.23,76.08c4.25,0,8.08,3.4,8.5,7.23,5.53,44.2,10.2,99.88,10.2,154.28,0,136.85-43.78,194.65-77.78,194.65-28.05,0-44.2-34.85-26.78-92.65l86.7-285.6c7.23-24.65,42.5-176.38,79.9-176.38,12.33,0,19.98,9.35,19.98,25.5,0,41.23-54.83,141.53-92.23,184.45l-78.2,257.13c-.85,3.4-4.25,5.95-8.08,5.95-5.95,0-9.77-5.52-8.08-11.05l79.05-260.53c35.7-38.68,90.53-139.4,90.53-175.95,0-7.65-.85-8.5-2.97-8.5-17.85,0-56.53,139.83-63.75,164.48l-86.7,285.6c-14.03,47.18-2.98,70.55,10.62,70.55,21.68,0,60.78-50.15,60.78-177.65,0-53.55-4.67-108.38-10.2-151.73-.42-5.1,3.4-9.78,8.5-9.78Zm8.08,2.98c51.85,65.45,107.53-19.55,144.08-19.55,18.7,0,31.45,20.4,19.98,51.43l-19.98,54.4c-1.27,3.4-4.25,5.52-8.08,5.52-6.38,0-9.77-6.38-8.08-11.48l19.98-54.4c7.22-19.55,2.12-28.48-3.83-28.48-20.4,0-96.48,89.68-157.68,13.6l13.6-11.05Zm155.98,20.4c6.38,0,9.78,6.38,8.08,11.48l-19.98,54.4c-16.15,43.35-4.25,67.15,16.58,67.15,22.1,0,62.05-25.5,90.95-81.18,1.7-2.98,4.25-4.67,7.65-4.67,4.67,0,8.5,3.82,8.5,8.5,0,1.27-.42,2.55-.85,3.83-32.3,61.62-77.35,90.53-106.25,90.53-34,0-52.7-36.12-32.73-90.1l19.98-54.4c1.27-3.4,4.25-5.52,8.07-5.52Zm164.48,40.8c4.68,0,8.5,3.82,8.5,8.5,0,2.12-.85,4.25-2.13,5.95-16.57,17.42-105.83,97.33-152.15,161.5-45.48,62.48-32.73,99.03-19.12,99.03,11.48,0,23.8-24.65,45.48-87.55,32.3-92.23,46.75-167.45,74.38-262.23.85-3.4,4.25-5.95,8.07-5.95,5.95,0,9.77,5.95,8.08,11.05-27.63,93.93-42.08,169.15-74.38,263.08-22.53,65.45-36.98,98.6-61.63,98.6-31.03,0-48.88-51.43,5.52-126.23,47.18-65.03,137.28-145.78,153-163.2,1.7-1.7,3.83-2.55,6.38-2.55Z"></path><path class="cls-14" d="m1085.53,1424.05c-30.95,32.28-53.59,50.74-65.89,50.74-5.53,0-10.2-8.08-3.83-28.9l19.98-65.45c11.48-37.83,17-78.63-17.85-78.63-24.55,0-61.88,24.8-90.31,49.4l73.31-225.77c1.7-5.1-2.12-11.05-8.08-11.05-3.83,0-6.8,2.55-8.08,5.95l-176.38,543.15c-1.7,5.1,2.12,11.05,8.07,11.05,3.83,0,6.8-2.55,8.08-5.95l91.78-282.65c.15-.13.3-.26.44-.4,25.5-27.2,76.08-66.73,101.15-66.73,14.88,0,11.9,22.95,1.7,56.53l-19.98,65.45c-9.78,31.45,1.27,51,19.98,51s45.55-21.56,79.79-57.32"></path><path class="cls-13" d="m1379.54,913.16h3.23l11.51,20.92h.08l11.51-20.92h3.23v32.77h-2.94v-27.85h-.04l-10.75,19.91h-2.06l-10.8-19.91h-.04v27.85h-2.94v-32.77Z"></path><path class="cls-13" d="m1417.72,913.16h2.98v6.51h-2.98v-6.51Zm0,11.76h2.94v21h-2.94v-21Z"></path><path class="cls-13" d="m1428.05,924.92h2.6l.29,3.91c1.01-2.14,3.07-4.45,6.76-4.45,1.26,0,2.18.21,3.02.55v3.15c-1.13-.5-2.1-.76-3.4-.76-3.74,0-6.34,2.81-6.34,5.75v12.85h-2.94v-21Z"></path><path class="cls-13" d="m1445.36,924.92h2.6l.29,3.91c1.01-2.14,3.07-4.45,6.76-4.45,1.26,0,2.18.21,3.02.55v3.15c-1.13-.5-2.1-.76-3.4-.76-3.74,0-6.34,2.81-6.34,5.75v12.85h-2.94v-21Z"></path><path class="cls-13" d="m1460.35,935.42c0-6.22,3.32-11.05,10.38-11.05,6.6,0,10.25,4.83,10.25,11.05s-3.7,11.05-10.29,11.05c-7.27,0-10.33-4.83-10.33-11.05Zm17.56,0c0-5.33-2.9-8.49-7.23-8.49-4.75,0-7.27,3.15-7.27,8.49s2.56,8.49,7.27,8.49c4.33,0,7.23-3.15,7.23-8.49Z"></path><path class="cls-13" d="m1486.85,924.92h2.6l.29,3.91c1.01-2.14,3.07-4.45,6.76-4.45,1.26,0,2.18.21,3.02.55v3.15c-1.13-.5-2.1-.76-3.4-.76-3.74,0-6.34,2.81-6.34,5.75v12.85h-2.94v-21Z"></path><path class="cls-13" d="m1520.79,936.43h-15.96c.17,4.79,2.48,7.48,6.93,7.48,3.82,0,5.67-1.43,5.97-4.83h2.98c-.29,4.24-3.28,7.39-9.03,7.39-7.06,0-9.83-4.66-9.83-10.88s3.23-11.22,10-11.22,8.95,3.99,8.95,10.21v1.85Zm-3.11-2.98c0-4.45-1.72-6.55-5.92-6.55s-6.55,2.65-6.89,6.97h12.81v-.42Z"></path><path class="cls-13" d="m1524.99,935.47c0-7.1,4.28-11.09,10.04-11.09,3.7,0,6.22,1.6,7.31,3.74h.04v-14.95h2.94v32.77h-1.97l-.67-3.61h-.08c-1.18,2.31-3.95,4.16-7.77,4.16-6.3,0-9.83-3.99-9.83-11.01Zm17.64-.5c0-5.5-3.36-8.07-7.35-8.07-3.11,0-7.14,1.47-7.14,8.4s3.61,8.61,7.14,8.61c4.24,0,7.35-2.73,7.35-8.95Z"></path><path class="cls-13" d="m1562.33,913.16h2.94v32.77h-2.94v-32.77Z"></path><path class="cls-13" d="m1570.94,935.42c0-6.22,3.32-11.05,10.38-11.05,6.59,0,10.25,4.83,10.25,11.05s-3.7,11.05-10.29,11.05c-7.27,0-10.33-4.83-10.33-11.05Zm17.56,0c0-5.33-2.9-8.49-7.22-8.49-4.75,0-7.27,3.15-7.27,8.49s2.56,8.49,7.27,8.49c4.33,0,7.22-3.15,7.22-8.49Z"></path><path class="cls-13" d="m1595.76,935.42c0-6.22,3.32-11.05,10.38-11.05,6.59,0,10.25,4.83,10.25,11.05s-3.7,11.05-10.29,11.05c-7.27,0-10.33-4.83-10.33-11.05Zm17.56,0c0-5.33-2.9-8.49-7.22-8.49-4.75,0-7.27,3.15-7.27,8.49s2.56,8.49,7.27,8.49c4.33,0,7.22-3.15,7.22-8.49Z"></path><path class="cls-13" d="m1622.26,924.92h2.39l.34,3.86h.08c1.13-2.48,4.03-4.41,7.86-4.41,6.3,0,9.66,3.99,9.66,11.01s-4.29,11.09-9.87,11.09c-3.78,0-6.38-1.6-7.43-3.7h-.08v11.55h-2.94v-29.41Zm17.18,10.63c0-7.18-3.4-8.61-6.93-8.61-4.24,0-7.56,2.73-7.56,8.44,0,6.01,3.45,8.57,7.44,8.57,3.02,0,7.06-1.47,7.06-8.4Z"></path><path class="cls-13" d="m1646.58,939.5v-1.18h2.94v1.13c0,2.86,2.14,4.5,5.96,4.5s5.8-1.01,5.8-3.78c0-2.06-1.01-2.81-3.86-3.32l-4.62-.84c-3.02-.55-5.54-2.02-5.54-5.5,0-3.15,2.35-6.13,8.4-6.13s8.4,3.02,8.4,7.23v.88h-2.98v-.76c0-3.44-2.14-4.91-5.42-4.91-3.95,0-5.33,1.34-5.33,3.36s1.01,2.86,3.91,3.4l4.03.76c4.12.76,6.09,1.93,6.09,5.59,0,4.58-4.12,6.55-8.78,6.55-7.31,0-8.99-3.28-8.99-6.97Z"></path><path class="cls-13" d="m1679.88,913.16h2.98v6.51h-2.98v-6.51Zm0,11.76h2.94v21h-2.94v-21Z"></path><path class="cls-13" d="m1690.21,924.92h2.6l.29,3.49c1.01-2.14,3.28-4.03,7.35-4.03,4.75,0,7.77,2.52,7.77,7.94v13.61h-2.94v-13.27c0-4.33-2.14-5.71-5.5-5.71-3.82,0-6.64,2.69-6.64,5.63v13.36h-2.94v-21Z"></path><path class="cls-13" d="m1726.92,923.62h-3.36v-5.08c0-3.95.88-5.29,3.4-5.97l.67,1.85c-1.76.67-2.06,1.09-2.06,3.78v.34h1.34v5.08Zm5.92,0h-3.36v-5.08c0-3.95.88-5.29,3.4-5.97l.67,1.85c-1.76.67-2.06,1.09-2.06,3.78v.34h1.34v5.08Z"></path><path class="cls-13" d="m1742.97,919.88v5.04h5.92v2.44h-5.92v18.57h-2.94v-18.57h-4.16v-2.44h4.16v-5.42c0-5.29,3.15-6.89,6.38-6.89,1.85,0,2.98.29,3.74.55v2.6c-.71-.21-1.89-.46-3.49-.46-2.65,0-3.7,1.76-3.7,4.58Z"></path><path class="cls-13" d="m1753.51,922.36c1.76-.67,2.06-1.09,2.06-3.78v-.34h-1.34v-5.08h3.36v5.08c0,3.95-.88,5.29-3.4,5.97l-.67-1.85Zm5.92,0c1.76-.67,2.06-1.09,2.06-3.78v-.34h-1.34v-5.08h3.36v5.08c0,3.95-.88,5.29-3.4,5.97l-.67-1.85Z"></path><line class="cls-4" x1="1552.79" y1="976.42" x2="1552.79" y2="977.29"></line><line class="cls-7" x1="1552.79" y1="995.98" x2="1552.79" y2="1068.85"></line><line class="cls-4" x1="1552.79" y1="1078.19" x2="1552.79" y2="1079.06"></line><path class="cls-14" d="m584.88,3264.79c-27.28,20.81-55.22,32.51-84.9,32.51-59.5,0-93.5-47.6-118.58-47.6-11.05,0-17.43,9.35-17.85,17-.43,9.78,5.52,17.43,18.28,17.43,86.28,0,67.58-359.98,162.78-359.98,82.03,0-28.05,155.12-141.53,192.1-5.1,1.7-11.05-2.12-11.05-8.08,0-3.82,2.55-6.8,5.95-8.07,101.58-33.15,189.55-158.95,146.63-158.95-75.65,0-56.95,359.98-162.78,359.98-22.95,0-36.55-17-35.28-35.28,1.28-14.45,12.75-33.15,34.85-33.15,34.85,0,63.33,47.6,118.58,47.6,25.87,0,50.73-10.43,75.49-29.43"></path><line class="cls-4" x1="385.82" y1="2425.37" x2="385.82" y2="2426.25"></line><line class="cls-11" x1="385.82" y1="2443.37" x2="385.82" y2="2698.58"></line><line class="cls-4" x1="385.82" y1="2707.15" x2="385.82" y2="2708.02"></line><line class="cls-4" x1="545.55" y1="2800.61" x2="545.55" y2="2801.48"></line><line class="cls-6" x1="545.55" y1="2818.32" x2="545.55" y2="2883.97"></line><line class="cls-4" x1="545.55" y1="2892.38" x2="545.55" y2="2893.26"></line><g class="cls-17"><path class="cls-15" d="m1459.8,2211.26c4.68,0,8.5,3.83,8.5,8.5,0,2.12-.85,4.25-2.55,5.95-159.8,161.5-293.25,285.6-293.25,331.08,0,6.38,3.4,8.07,8.5,8.07,28.48,0,88.83-62.47,105.4-130.48,16.58-69.28-31.88-61.62-60.35-52.7-14.03,3.83-19.98-11.9-7.65-19.55,56.53-37.83,102.43-88.4,102.43-120.7,0-15.3-11.05-22.53-22.53-22.53-55.68,0-198.05,173.83-240.13,219.3-36.98,39.1-82.88,89.68-82.88,117.73,0,7.23,3.4,8.93,8.5,8.93,27.63,0,88.4-60.78,105.4-130.48,16.58-69.28-31.03-61.62-60.35-52.7-14.02,3.83-19.98-11.9-7.65-19.55,56.1-37.83,102.43-88.83,102.43-119.43,0-14.45-11.9-23.8-29.33-23.8-75.65,0-129.2,179.78-213.78,179.78-29.75,0-36.13-22.1-28.9-50.58,14.45-56.1,23.8-87.55,44.63-134.3,1.28-2.98,4.25-5.1,7.65-5.1,6.38,0,10.2,6.8,7.65,11.9-19.98,45.9-29.33,75.65-43.78,131.75-5.1,21.25-2.55,29.33,12.75,29.33,71.4,0,127.5-179.78,213.78-179.78,25.08,0,46.33,15.3,46.33,40.8,0,39.1-51.85,94.35-110.08,133.88,4.25-2.97-8.5-10.62-6.8-11.05,31.45-9.77,103.7-18.28,81.6,73.1-17.85,75.23-83.3,143.23-121.55,143.23-12.75,0-25.5-7.22-25.5-25.93,0-36.12,50.15-89.68,87.13-129.63,41.23-43.78,186.15-224.4,252.88-224.4,18.27,0,39.53,13.17,39.53,39.53,0,40.8-51.85,95.63-110.08,135.15,4.25-2.97-8.5-10.62-6.8-11.05,31.03-9.77,103.7-18.28,81.6,73.1-17.43,73.1-82.45,143.23-121.55,143.23-13.18,0-25.5-7.65-25.5-25.07,0-55.68,139.4-182.33,298.35-342.98,1.28-1.7,3.4-2.55,5.95-2.55Z"></path></g><line class="cls-4" x1="1035.82" y1="2635.37" x2="1035.82" y2="2636.25"></line><line class="cls-5" x1="1035.82" y1="2652.73" x2="1035.82" y2="2698.9"></line><line class="cls-4" x1="1035.82" y1="2707.15" x2="1035.82" y2="2708.02"></line><path class="cls-13" d="m366.71,804.13h3.23l11.51,20.92h.08l11.51-20.92h3.23v32.77h-2.94v-27.85h-.04l-10.75,19.91h-2.06l-10.8-19.91h-.04v27.85h-2.94v-32.77Z"></path><path class="cls-13" d="m403.2,826.39c0-6.22,3.32-11.05,10.38-11.05,6.6,0,10.25,4.83,10.25,11.05s-3.7,11.05-10.29,11.05c-7.27,0-10.33-4.83-10.33-11.05Zm17.56,0c0-5.33-2.9-8.49-7.23-8.49-4.75,0-7.27,3.15-7.27,8.49s2.56,8.49,7.27,8.49c4.33,0,7.23-3.15,7.23-8.49Z"></path><path class="cls-13" d="m428.03,826.43c0-7.1,4.28-11.09,10.04-11.09,3.7,0,6.22,1.6,7.31,3.74h.04v-14.95h2.94v32.77h-1.97l-.67-3.61h-.08c-1.18,2.31-3.95,4.16-7.77,4.16-6.3,0-9.83-3.99-9.83-11.01Zm17.64-.5c0-5.5-3.36-8.07-7.35-8.07-3.11,0-7.14,1.47-7.14,8.4s3.61,8.61,7.14,8.61c4.24,0,7.35-2.73,7.35-8.95Z"></path><path class="cls-13" d="m472.97,827.4h-15.96c.17,4.79,2.48,7.48,6.93,7.48,3.82,0,5.67-1.43,5.96-4.83h2.98c-.29,4.24-3.28,7.39-9.03,7.39-7.06,0-9.83-4.66-9.83-10.88s3.23-11.22,10-11.22,8.95,3.99,8.95,10.21v1.85Zm-3.11-2.98c0-4.45-1.72-6.55-5.92-6.55s-6.55,2.65-6.89,6.97h12.81v-.42Z"></path><path class="cls-13" d="m478.85,815.89h2.6l.29,3.91c1.01-2.14,3.07-4.45,6.76-4.45,1.26,0,2.18.21,3.02.55v3.15c-1.13-.5-2.1-.76-3.4-.76-3.74,0-6.34,2.81-6.34,5.75v12.85h-2.94v-21Z"></path><path class="cls-13" d="m494.47,831.1c0-3.95,2.23-6.09,7.86-6.09h6.34v-1.72c0-2.98-1.26-5.42-5.46-5.42-3.95,0-5.33,1.51-5.33,4.12v.88h-2.98v-.84c0-5,4.2-6.68,8.32-6.68,5.8,0,8.4,2.86,8.4,8.44v13.11h-2.06l-.55-2.98h-.08c-1.26,1.89-3.7,3.53-7.35,3.53-4.92,0-7.1-2.31-7.1-6.34Zm14.2-1.85v-1.76h-7.02c-2.65,0-4.03.92-4.03,3.61,0,2.35,1.26,3.86,4.5,3.86,4.16,0,6.55-2.14,6.55-5.71Z"></path><path class="cls-13" d="m529.71,834.21v2.6c-.76.21-2.14.59-4.03.59-3.82,0-6.34-1.6-6.34-6.89v-12.18h-4.16v-2.44h4.16v-6.05l2.94-1.43v7.48h5.92v2.44h-5.92v11.8c0,2.81.76,4.58,3.4,4.58,1.6,0,3.23-.29,4.03-.5Z"></path><path class="cls-13" d="m551.17,827.4h-15.96c.17,4.79,2.48,7.48,6.93,7.48,3.82,0,5.67-1.43,5.96-4.83h2.98c-.29,4.24-3.28,7.39-9.03,7.39-7.06,0-9.83-4.66-9.83-10.88s3.23-11.22,10-11.22,8.95,3.99,8.95,10.21v1.85Zm-3.11-2.98c0-4.45-1.72-6.55-5.92-6.55s-6.55,2.65-6.89,6.97h12.81v-.42Z"></path><path class="cls-13" d="m564.82,830.47v-1.18h2.94v1.13c0,2.86,2.14,4.5,5.96,4.5s5.8-1.01,5.8-3.78c0-2.06-1.01-2.81-3.86-3.32l-4.62-.84c-3.02-.55-5.54-2.02-5.54-5.5,0-3.15,2.35-6.13,8.4-6.13s8.4,3.02,8.4,7.23v.88h-2.98v-.76c0-3.44-2.14-4.91-5.42-4.91-3.95,0-5.33,1.34-5.33,3.36s1.01,2.86,3.91,3.4l4.03.76c4.12.76,6.09,1.93,6.09,5.59,0,4.58-4.12,6.55-8.78,6.55-7.31,0-8.99-3.28-8.99-6.97Z"></path><path class="cls-13" d="m588.47,804.13h2.94v32.77h-2.94v-32.77Z"></path><path class="cls-13" d="m597.5,831.1c0-3.95,2.23-6.09,7.86-6.09h6.34v-1.72c0-2.98-1.26-5.42-5.46-5.42-3.95,0-5.33,1.51-5.33,4.12v.88h-2.98v-.84c0-5,4.2-6.68,8.32-6.68,5.8,0,8.4,2.86,8.4,8.44v13.11h-2.06l-.55-2.98h-.08c-1.26,1.89-3.7,3.53-7.35,3.53-4.91,0-7.1-2.31-7.1-6.34Zm14.2-1.85v-1.76h-7.02c-2.65,0-4.03.92-4.03,3.61,0,2.35,1.26,3.86,4.5,3.86,4.16,0,6.55-2.14,6.55-5.71Z"></path><path class="cls-13" d="m621.98,815.89h2.6l.29,3.49c1.01-2.14,3.28-4.03,7.35-4.03,4.75,0,7.77,2.52,7.77,7.94v13.61h-2.94v-13.27c0-4.33-2.14-5.71-5.5-5.71-3.82,0-6.64,2.69-6.64,5.63v13.36h-2.94v-21Z"></path><path class="cls-13" d="m658.31,834.21v2.6c-.76.21-2.14.59-4.03.59-3.82,0-6.34-1.6-6.34-6.89v-12.18h-4.16v-2.44h4.16v-6.05l2.94-1.43v7.48h5.92v2.44h-5.92v11.8c0,2.81.76,4.58,3.4,4.58,1.6,0,3.23-.29,4.03-.5Z"></path><polygon class="cls-16" points="491.05 765.05 543.39 765.05 684.32 203.19 631.99 203.19 491.05 765.05"></polygon><path class="cls-13" d="m672.83,925.34h-3.36v-5.08c0-3.95.88-5.29,3.4-5.97l.67,1.85c-1.76.67-2.06,1.09-2.06,3.78v.34h1.34v5.08Zm5.92,0h-3.36v-5.08c0-3.95.88-5.29,3.4-5.97l.67,1.85c-1.76.67-2.06,1.09-2.06,3.78v.34h1.34v5.08Z"></path><path class="cls-13" d="m696.1,944.96v2.6c-.76.21-2.14.59-4.03.59-3.82,0-6.34-1.6-6.34-6.89v-12.18h-4.16v-2.44h4.16v-6.05l2.94-1.43v7.48h5.92v2.44h-5.92v11.8c0,2.81.76,4.58,3.4,4.58,1.6,0,3.23-.29,4.03-.5Z"></path><path class="cls-13" d="m697.99,924.08c1.76-.67,2.06-1.09,2.06-3.78v-.34h-1.34v-5.08h3.36v5.08c0,3.95-.88,5.29-3.4,5.97l-.67-1.85Zm5.92,0c1.76-.67,2.06-1.09,2.06-3.78v-.34h-1.34v-5.08h3.36v5.08c0,3.95-.88,5.29-3.4,5.97l-.67-1.85Z"></path><path class="cls-13" d="m723.52,926.64h2.6l.29,3.91c1.01-2.14,3.07-4.45,6.76-4.45,1.26,0,2.18.21,3.02.55v3.15c-1.13-.5-2.1-.76-3.4-.76-3.74,0-6.34,2.81-6.34,5.75v12.85h-2.94v-21Z"></path><path class="cls-13" d="m757.46,938.15h-15.96c.17,4.79,2.48,7.48,6.93,7.48,3.82,0,5.67-1.43,5.97-4.83h2.98c-.29,4.24-3.28,7.39-9.03,7.39-7.06,0-9.83-4.66-9.83-10.88s3.23-11.22,10-11.22,8.95,3.99,8.95,10.21v1.85Zm-3.11-2.98c0-4.45-1.72-6.55-5.92-6.55s-6.55,2.65-6.89,6.97h12.81v-.42Z"></path><path class="cls-13" d="m761.87,941.85c0-3.95,2.23-6.09,7.86-6.09h6.34v-1.72c0-2.98-1.26-5.42-5.46-5.42-3.95,0-5.33,1.51-5.33,4.12v.88h-2.98v-.84c0-5,4.2-6.68,8.32-6.68,5.8,0,8.4,2.86,8.4,8.44v13.11h-2.06l-.55-2.98h-.08c-1.26,1.89-3.7,3.53-7.35,3.53-4.92,0-7.1-2.31-7.1-6.34Zm14.2-1.85v-1.76h-7.01c-2.65,0-4.03.92-4.03,3.61,0,2.35,1.26,3.86,4.5,3.86,4.16,0,6.55-2.14,6.55-5.71Z"></path><path class="cls-13" d="m784.68,937.31c0-6.38,3.23-11.22,10-11.22s8.95,3.91,8.95,8.95v.42h-3.11v-.63c0-3.82-1.64-6.09-5.84-6.09-4.75,0-7.01,3.11-7.01,8.4,0,5.63,2.39,8.49,6.93,8.49,3.82,0,5.84-1.85,5.92-5.67h3.02c-.08,4.66-3.15,8.23-9.03,8.23-7.22,0-9.83-4.75-9.83-10.88Z"></path><path class="cls-13" d="m808.87,914.88h2.94v15.16c1.05-2.1,3.28-3.95,7.31-3.95,4.75,0,7.77,2.52,7.77,7.94v13.61h-2.94v-13.27c0-4.33-2.14-5.71-5.5-5.71-3.82,0-6.64,2.69-6.64,5.63v13.36h-2.94v-32.77Z"></path><path class="cls-13" d="m851.5,938.15h-15.96c.17,4.79,2.48,7.48,6.93,7.48,3.82,0,5.67-1.43,5.97-4.83h2.98c-.29,4.24-3.28,7.39-9.03,7.39-7.06,0-9.83-4.66-9.83-10.88s3.23-11.22,10-11.22,8.95,3.99,8.95,10.21v1.85Zm-3.11-2.98c0-4.45-1.72-6.55-5.92-6.55s-6.55,2.65-6.89,6.97h12.81v-.42Z"></path><path class="cls-13" d="m855.49,941.22v-1.18h2.94v1.13c0,2.86,2.14,4.5,5.96,4.5s5.8-1.01,5.8-3.78c0-2.06-1.01-2.81-3.86-3.32l-4.62-.84c-3.02-.55-5.54-2.02-5.54-5.5,0-3.15,2.35-6.13,8.4-6.13s8.4,3.02,8.4,7.23v.88h-2.98v-.76c0-3.44-2.14-4.91-5.42-4.91-3.95,0-5.33,1.34-5.33,3.36s1.01,2.86,3.91,3.4l4.03.76c4.12.76,6.09,1.93,6.09,5.59,0,4.58-4.12,6.55-8.78,6.55-7.31,0-8.99-3.28-8.99-6.97Z"></path><path class="cls-13" d="m899.76,944.96v2.6c-.76.21-2.14.59-4.03.59-3.82,0-6.34-1.6-6.34-6.89v-12.18h-4.16v-2.44h4.16v-6.05l2.94-1.43v7.48h5.92v2.44h-5.92v11.8c0,2.81.76,4.58,3.4,4.58,1.6,0,3.23-.29,4.03-.5Z"></path><path class="cls-13" d="m904.58,914.88h2.94v15.16c1.05-2.1,3.28-3.95,7.31-3.95,4.75,0,7.77,2.52,7.77,7.94v13.61h-2.94v-13.27c0-4.33-2.14-5.71-5.5-5.71-3.82,0-6.64,2.69-6.64,5.63v13.36h-2.94v-32.77Z"></path><path class="cls-13" d="m947.22,938.15h-15.96c.17,4.79,2.48,7.48,6.93,7.48,3.82,0,5.67-1.43,5.97-4.83h2.98c-.29,4.24-3.28,7.39-9.03,7.39-7.06,0-9.83-4.66-9.83-10.88s3.23-11.22,10-11.22,8.95,3.99,8.95,10.21v1.85Zm-3.11-2.98c0-4.45-1.72-6.55-5.92-6.55s-6.55,2.65-6.89,6.97h12.81v-.42Z"></path><path class="cls-13" d="m961.5,941.85c0-3.95,2.23-6.09,7.86-6.09h6.34v-1.72c0-2.98-1.26-5.42-5.46-5.42-3.95,0-5.33,1.51-5.33,4.12v.88h-2.98v-.84c0-5,4.2-6.68,8.32-6.68,5.8,0,8.4,2.86,8.4,8.44v13.11h-2.06l-.55-2.98h-.08c-1.26,1.89-3.7,3.53-7.35,3.53-4.92,0-7.1-2.31-7.1-6.34Zm14.2-1.85v-1.76h-7.01c-2.65,0-4.03.92-4.03,3.61,0,2.35,1.26,3.86,4.5,3.86,4.16,0,6.55-2.14,6.55-5.71Z"></path><path class="cls-13" d="m984.09,941.22v-1.18h2.94v1.13c0,2.86,2.14,4.5,5.96,4.5s5.8-1.01,5.8-3.78c0-2.06-1.01-2.81-3.86-3.32l-4.62-.84c-3.02-.55-5.54-2.02-5.54-5.5,0-3.15,2.35-6.13,8.4-6.13s8.4,3.02,8.4,7.23v.88h-2.98v-.76c0-3.44-2.14-4.91-5.42-4.91-3.95,0-5.33,1.34-5.33,3.36s1.01,2.86,3.91,3.4l4.03.76c4.12.76,6.09,1.93,6.09,5.59,0,4.58-4.12,6.55-8.78,6.55-7.31,0-8.99-3.28-8.99-6.97Z"></path><path class="cls-13" d="m1006.06,937.31c0-6.38,3.23-11.22,10-11.22s8.95,3.91,8.95,8.95v.42h-3.11v-.63c0-3.82-1.64-6.09-5.84-6.09-4.75,0-7.02,3.11-7.02,8.4,0,5.63,2.39,8.49,6.93,8.49,3.82,0,5.84-1.85,5.92-5.67h3.02c-.08,4.66-3.15,8.23-9.03,8.23-7.22,0-9.83-4.75-9.83-10.88Z"></path><path class="cls-13" d="m1048.15,938.15h-15.96c.17,4.79,2.48,7.48,6.93,7.48,3.82,0,5.67-1.43,5.97-4.83h2.98c-.29,4.24-3.28,7.39-9.03,7.39-7.06,0-9.83-4.66-9.83-10.88s3.23-11.22,10-11.22,8.95,3.99,8.95,10.21v1.85Zm-3.11-2.98c0-4.45-1.72-6.55-5.92-6.55s-6.55,2.65-6.89,6.97h12.81v-.42Z"></path><path class="cls-13" d="m1054.02,926.64h2.6l.29,3.49c1.01-2.14,3.28-4.03,7.35-4.03,4.75,0,7.77,2.52,7.77,7.94v13.61h-2.94v-13.27c0-4.33-2.14-5.71-5.5-5.71-3.82,0-6.64,2.69-6.64,5.63v13.36h-2.94v-21Z"></path><path class="cls-13" d="m1077.71,937.18c0-7.1,4.28-11.09,10.04-11.09,3.7,0,6.22,1.6,7.31,3.74h.04v-14.95h2.94v32.77h-1.97l-.67-3.61h-.08c-1.18,2.31-3.95,4.16-7.77,4.16-6.3,0-9.83-3.99-9.83-11.01Zm17.64-.5c0-5.5-3.36-8.07-7.35-8.07-3.11,0-7.14,1.47-7.14,8.4s3.61,8.61,7.14,8.61c4.24,0,7.35-2.73,7.35-8.95Z"></path><path class="cls-13" d="m1122.65,938.15h-15.96c.17,4.79,2.48,7.48,6.93,7.48,3.82,0,5.67-1.43,5.97-4.83h2.98c-.29,4.24-3.28,7.39-9.03,7.39-7.06,0-9.83-4.66-9.83-10.88s3.23-11.22,10-11.22,8.95,3.99,8.95,10.21v1.85Zm-3.11-2.98c0-4.45-1.72-6.55-5.92-6.55s-6.55,2.65-6.89,6.97h12.81v-.42Z"></path><path class="cls-13" d="m1128.53,926.64h2.6l.29,3.91c1.01-2.14,3.07-4.45,6.76-4.45,1.26,0,2.18.21,3.02.55v3.15c-1.13-.5-2.1-.76-3.4-.76-3.74,0-6.34,2.81-6.34,5.75v12.85h-2.94v-21Z"></path><path class="cls-13" d="m1155.49,914.88h2.94v15.16c1.05-2.1,3.28-3.95,7.31-3.95,4.75,0,7.77,2.52,7.77,7.94v13.61h-2.94v-13.27c0-4.33-2.14-5.71-5.5-5.71-3.82,0-6.64,2.69-6.64,5.63v13.36h-2.94v-32.77Z"></path><path class="cls-13" d="m1198.13,938.15h-15.96c.17,4.79,2.48,7.48,6.93,7.48,3.82,0,5.67-1.43,5.97-4.83h2.98c-.29,4.24-3.28,7.39-9.03,7.39-7.06,0-9.83-4.66-9.83-10.88s3.23-11.22,10-11.22,8.95,3.99,8.95,10.21v1.85Zm-3.11-2.98c0-4.45-1.72-6.55-5.92-6.55s-6.55,2.65-6.89,6.97h12.81v-.42Z"></path><path class="cls-13" d="m1204,914.88h2.98v6.51h-2.98v-6.51Zm0,11.76h2.94v21h-2.94v-21Z"></path><path class="cls-13" d="m1213.71,949.45v-.13h3.11v.13c0,2.9,1.93,4.33,6.13,4.33,4.79,0,7.01-2.94,7.01-7.86v-2.1h-.08c-1.09,2.18-3.65,4.07-7.48,4.07-6.3,0-9.75-3.99-9.75-10.71,0-7.1,4.37-11.09,9.96-11.09,3.78,0,6.55,1.81,7.56,4.12h.13l.29-3.57h2.31v19.16c0,5.88-2.81,10.71-10.33,10.71-6.3,0-8.86-2.98-8.86-7.06Zm16.59-12.77c0-5.5-3.36-8.07-7.35-8.07-3.03,0-7.14,1.47-7.14,8.4s3.57,8.32,7.1,8.32c4.24,0,7.39-2.73,7.39-8.65Z"></path><path class="cls-13" d="m1240.25,914.88h2.94v15.16c1.05-2.1,3.28-3.95,7.31-3.95,4.75,0,7.77,2.52,7.77,7.94v13.61h-2.94v-13.27c0-4.33-2.14-5.71-5.5-5.71-3.82,0-6.64,2.69-6.64,5.63v13.36h-2.94v-32.77Z"></path><path class="cls-13" d="m1276.58,944.96v2.6c-.76.21-2.14.59-4.03.59-3.82,0-6.34-1.6-6.34-6.89v-12.18h-4.16v-2.44h4.16v-6.05l2.94-1.43v7.48h5.92v2.44h-5.92v11.8c0,2.81.76,4.58,3.4,4.58,1.6,0,3.23-.29,4.03-.5Z"></path><path class="cls-13" d="m254.71,581.87c-4.68,0-8.5-3.83-8.5-8.5,0-2.97,1.7-5.53,3.82-7.22,211.23-131.33,280.08-257.13,280.08-309.83,0-20.82-9.35-31.02-23.8-31.02-57.38,0-118.15,149.6-118.15,252.88,0,51,14.88,86.7,48.45,86.7,40.38,0,85.85-48.03,136.43-175.1,1.27-3.4,4.67-5.52,8.07-5.52,6.38,0,9.78,6.38,8.07,11.47-53.13,132.6-102.85,186.15-152.58,186.15s-65.45-47.17-65.45-103.7c0-108.38,62.48-269.88,135.15-269.88,24.65,0,40.8,17.85,40.8,48.03,0,59.5-71.4,189.55-287.73,324.28-1.28.85-2.98,1.28-4.68,1.28Zm664.28-138.13c4.68,0,8.5,3.83,8.5,8.5,0,2.55-1.27,5.1-3.4,6.8-37.4,29.33-132.18,122.83-174.68,122.83-18.7,0-31.03-16.15-31.03-33.58,0-27.2,31.45-83.3,39.53-99.88,1.7-3.4,2.12-4.67,2.12-5.1,0,1.27,4.25,4.67,5.53,4.67-16.15,5.53-31.88,7.65-45.9,7.65-45.9,0-80.75-25.5-80.75-52.28,0-14.88,11.48-34.85,39.95-34.85,19.12,0,28.9,9.78,28.9,22.95,0,50.15-186.58,165.75-242.68,256.7-20.83,33.15-31.88,57.38-31.88,75.23,0,16.15,6.8,24.22,14.88,24.22,14.88,0,31.45-25.08,52.7-87.55,34.43-100.3,46.75-182.75,75.23-280.08.85-3.4,4.25-5.95,8.07-5.95,5.95,0,9.78,5.95,8.08,11.05-27.63,95.63-39.95,178.93-75.23,280.93-22.95,65.88-42.08,98.6-68.85,98.6-18.7,0-31.88-16.58-31.88-41.22,0-22.1,12.75-49.73,34.43-84.58,57.8-93.5,240.13-209.95,240.13-247.35,0-3.83-2.55-5.95-11.9-5.95-16.58,0-22.95,9.78-22.95,17.85,0,15.3,25.93,35.28,63.75,35.28,13.18,0,26.78-2.12,41.65-7.23,8.92-1.7,15.73,3.4,15.73,11.9,0,2.55-.85,6.8-3.83,12.75-8.07,16.58-37.83,70.12-37.83,92.23,0,9.78,5.52,16.58,14.02,16.58,33.15,0,125.8-89.25,164.48-119.43,1.28-.85,2.98-1.7,5.1-1.7Zm9.35,138.13c-41.65,0-43.78-48.88-43.78-60.78,0-79.48,85.85-130.48,137.7-130.48,26.35,0,42.5,15.72,31.03,45.47l-14.45,33.58c-17.43,42.08-60.78,112.2-110.5,112.2Zm108.8-152.58c6.8-16.15.85-21.67-14.88-21.67-45.05,0-120.7,45.9-120.7,113.48,0,11.47,1.27,43.78,26.77,43.78,38.68,0,77.78-61.2,95.2-102l13.6-33.58Zm155.98-42.08c4.68,0,8.5,3.83,8.5,8.5,0,1.28-.42,2.98-.85,3.83-70.13,132.6-131.33,182.33-171.28,182.33-22.53,0-44.2-27.62-22.53-78.63l30.6-73.53c1.27-2.97,4.25-5.1,7.65-5.1,6.38,0,10.2,6.8,7.65,11.9l-30.6,73.53c-15.73,37.83-2.98,54.83,7.23,54.83,31.45,0,88.83-45.48,155.98-172.98,1.7-2.97,4.25-4.67,7.65-4.67Zm130.9-101.58c0,4.67-3.83,8.5-8.5,8.5h-156.4c-4.67,0-8.5-3.83-8.5-8.5s3.83-8.5,8.5-8.5h156.4c4.67,0,8.5,3.83,8.5,8.5Zm142.8,256.28c0-4.67,3.83-8.5,8.5-8.5,2.98,0,5.53,1.7,7.23,3.83,8.08,13.17,19.98,27.62,47.6,27.62,54.83,0,39.1-59.5,39.1-116.88,0-19.12.85-37.4,5.1-59.93-.43-1.7,11.05,5.53,9.35,7.65-40.38,37.4-191.68,190.83-264.35,190.83-35.7,0-54.4-22.1-54.4-49.72,0-51.43,65.03-145.78,120.7-145.78,44.2,0,46.75,49.73-52.28,127.08-58.65,45.9-100.73,63.75-128.35,63.75-80.33,0-42.93-149.18,42.5-362.1,1.28-3.4,4.68-5.53,8.08-5.53,6.38,0,9.78,6.38,8.08,11.48-83.73,209.1-113.48,339.15-58.65,339.15,23.38,0,62.05-16.15,118.15-60.35,85-66.3,84.58-96.48,62.48-96.48-44.62,0-103.7,85-103.7,128.78,0,19.12,11.9,32.72,37.4,32.72,63.75,0,212.93-149.6,253.3-186.58,8.5-7.22,20.83-1.28,18.7,8.5-4.25,21.67-5.1,38.25-5.1,56.53,0,54.83,18.28,133.88-56.1,133.88-36.98,0-53.12-21.25-62.05-35.28-.85-1.27-1.27-2.97-1.27-4.67Zm54.83,31.45c0-4.67,3.83-8.5,8.5-8.5,23.38,0,51,1.7,130.48-51,1.27-.85,2.98-1.28,4.68-1.28,4.67,0,8.5,3.83,8.5,8.5,0,2.97-1.7,5.53-3.83,7.22-84.58,56.1-116.45,53.55-139.83,53.55-4.67,0-8.5-3.83-8.5-8.5Z"></path><path class="cls-16" d="m1324.02,285.65c0,4.67-3.83,8.5-8.5,8.5h-156.4c-4.67,0-8.5-3.83-8.5-8.5s3.83-8.5,8.5-8.5h156.4c4.67,0,8.5,3.83,8.5,8.5Z"></path><path class="cls-16" d="m1257.79,548.25c-22.44,11.73-39.92,16.63-52.77,16.63-54.83,0-25.08-130.05,58.65-339.15,1.7-5.1-1.7-11.48-8.08-11.48-3.4,0-6.8,2.12-8.08,5.53-85.43,212.93-122.83,362.1-42.5,362.1,14.79,0,33.72-5.12,57.12-16.92-2.42-5.4-3.79-10.94-4.35-16.71Z"></path><line class="cls-4" x1="1187.86" y1="600.36" x2="1187.86" y2="601.23"></line><line class="cls-3" x1="1187.86" y1="618.97" x2="1187.86" y2="883.26"></line><line class="cls-4" x1="1187.86" y1="892.13" x2="1187.86" y2="893.01"></line><g class="cls-20"><path class="cls-15" d="m1475.68,1318.39c4.25,0,8.08,3.4,8.5,7.23,5.53,44.2,10.2,99.88,10.2,154.28,0,136.85-43.78,194.65-77.78,194.65-28.05,0-44.2-34.85-26.78-92.65l86.7-285.6c7.23-24.65,42.5-176.38,79.9-176.38,12.33,0,19.98,9.35,19.98,25.5,0,41.23-54.83,141.53-92.23,184.45l-78.2,257.13c-.85,3.4-4.25,5.95-8.08,5.95-5.95,0-9.77-5.52-8.08-11.05l79.05-260.53c35.7-38.68,90.53-139.4,90.53-175.95,0-7.65-.85-8.5-2.97-8.5-17.85,0-56.53,139.83-63.75,164.48l-86.7,285.6c-14.03,47.18-2.98,70.55,10.62,70.55,21.68,0,60.78-50.15,60.78-177.65,0-53.55-4.67-108.38-10.2-151.73-.42-5.1,3.4-9.78,8.5-9.78Z"></path><circle class="cls-14" cx="1538.97" cy="1197.51" r="99.97"></circle></g><g class="cls-19"><path class="cls-15" d="m1475.68,1318.39c4.25,0,8.08,3.4,8.5,7.23,5.53,44.2,10.2,99.88,10.2,154.28,0,136.85-43.78,194.65-77.78,194.65-28.05,0-44.2-34.85-26.78-92.65l86.7-285.6c7.23-24.65,42.5-176.38,79.9-176.38,12.33,0,19.98,9.35,19.98,25.5,0,41.23-54.83,141.53-92.23,184.45l-78.2,257.13c-.85,3.4-4.25,5.95-8.08,5.95-5.95,0-9.77-5.52-8.08-11.05l79.05-260.53c35.7-38.68,90.53-139.4,90.53-175.95,0-7.65-.85-8.5-2.97-8.5-17.85,0-56.53,139.83-63.75,164.48l-86.7,285.6c-14.03,47.18-2.98,70.55,10.62,70.55,21.68,0,60.78-50.15,60.78-177.65,0-53.55-4.67-108.38-10.2-151.73-.42-5.1,3.4-9.78,8.5-9.78Z"></path></g><g class="cls-18"><path class="cls-15" d="m1804.2,1382.56c4.68,0,8.5,3.82,8.5,8.5,0,2.12-.85,4.25-2.13,5.95-16.57,17.42-105.83,97.33-152.15,161.5-45.48,62.48-32.73,99.03-19.12,99.03,11.48,0,23.8-24.65,45.48-87.55,32.3-92.23,46.75-167.45,74.38-262.23.85-3.4,4.25-5.95,8.07-5.95,5.95,0,9.77,5.95,8.08,11.05-27.63,93.93-42.08,169.15-74.38,263.08-22.53,65.45-36.98,98.6-61.63,98.6-31.03,0-48.88-51.43,5.52-126.23,47.18-65.03,137.28-145.78,153-163.2,1.7-1.7,3.83-2.55,6.38-2.55Z"></path></g><path class="cls-13" d="m1405.9,1830.4h2.94v30.12h15.71v2.65h-18.65v-32.77Z"></path><path class="cls-13" d="m1427.7,1852.66c0-6.22,3.32-11.05,10.38-11.05,6.6,0,10.25,4.83,10.25,11.05s-3.7,11.05-10.29,11.05c-7.27,0-10.33-4.83-10.33-11.05Zm17.56,0c0-5.33-2.9-8.49-7.23-8.49-4.75,0-7.27,3.15-7.27,8.49s2.56,8.49,7.27,8.49c4.33,0,7.23-3.15,7.23-8.49Z"></path><path class="cls-13" d="m1452.52,1852.66c0-6.22,3.32-11.05,10.38-11.05,6.6,0,10.25,4.83,10.25,11.05s-3.7,11.05-10.29,11.05c-7.27,0-10.33-4.83-10.33-11.05Zm17.56,0c0-5.33-2.9-8.49-7.23-8.49-4.75,0-7.27,3.15-7.27,8.49s2.56,8.49,7.27,8.49c4.33,0,7.23-3.15,7.23-8.49Z"></path><path class="cls-13" d="m1479.02,1842.16h2.39l.34,3.86h.08c1.13-2.48,4.03-4.41,7.86-4.41,6.3,0,9.66,3.99,9.66,11.01s-4.28,11.09-9.87,11.09c-3.78,0-6.39-1.6-7.44-3.7h-.08v11.55h-2.94v-29.41Zm17.18,10.63c0-7.18-3.4-8.61-6.93-8.61-4.24,0-7.56,2.73-7.56,8.44,0,6.01,3.44,8.57,7.44,8.57,3.02,0,7.06-1.47,7.06-8.4Z"></path><path class="cls-13" d="m1522.5,1853.67h-15.96c.17,4.79,2.48,7.48,6.93,7.48,3.82,0,5.67-1.43,5.97-4.83h2.98c-.29,4.24-3.28,7.39-9.03,7.39-7.06,0-9.83-4.66-9.83-10.88s3.23-11.22,10-11.22,8.95,3.99,8.95,10.21v1.85Zm-3.11-2.98c0-4.45-1.72-6.55-5.92-6.55s-6.55,2.65-6.89,6.97h12.81v-.42Z"></path><path class="cls-13" d="m1526.69,1852.7c0-7.1,4.28-11.09,10.04-11.09,3.7,0,6.22,1.6,7.31,3.74h.04v-14.95h2.94v32.77h-1.97l-.67-3.61h-.08c-1.18,2.31-3.95,4.16-7.77,4.16-6.3,0-9.83-3.99-9.83-11.01Zm17.64-.5c0-5.5-3.36-8.07-7.35-8.07-3.11,0-7.14,1.47-7.14,8.4s3.61,8.61,7.14,8.61c4.24,0,7.35-2.73,7.35-8.95Z"></path><path class="cls-13" d="m1581.3,1853.67h-15.96c.17,4.79,2.48,7.48,6.93,7.48,3.82,0,5.67-1.43,5.97-4.83h2.98c-.29,4.24-3.28,7.39-9.03,7.39-7.06,0-9.83-4.66-9.83-10.88s3.23-11.22,10-11.22,8.95,3.99,8.95,10.21v1.85Zm-3.11-2.98c0-4.45-1.72-6.55-5.92-6.55s-6.55,2.65-6.89,6.97h12.81v-.42Z"></path><path class="cls-13" d="m1602.55,1842.2l-8.07,10.5,8.02,10.42v.04h-3.44l-6.34-8.44-6.43,8.44h-3.28v-.04l8.02-10.38-8.07-10.54v-.04h3.44l6.39,8.49,6.43-8.44v-.04h3.32v.04Z"></path><path class="cls-13" d="m1618.05,1860.48v2.6c-.76.21-2.14.59-4.03.59-3.82,0-6.34-1.6-6.34-6.89v-12.18h-4.16v-2.44h4.16v-6.05l2.94-1.43v7.48h5.92v2.44h-5.92v11.8c0,2.81.76,4.58,3.4,4.58,1.6,0,3.23-.29,4.03-.5Z"></path><path class="cls-13" d="m1639.51,1853.67h-15.96c.17,4.79,2.48,7.48,6.93,7.48,3.82,0,5.67-1.43,5.97-4.83h2.98c-.29,4.24-3.28,7.39-9.03,7.39-7.06,0-9.83-4.66-9.83-10.88s3.23-11.22,10-11.22,8.95,3.99,8.95,10.21v1.85Zm-3.11-2.98c0-4.45-1.72-6.55-5.92-6.55s-6.55,2.65-6.89,6.97h12.81v-.42Z"></path><path class="cls-13" d="m1645.39,1842.16h2.6l.29,3.49c1.01-2.14,3.28-4.03,7.35-4.03,4.75,0,7.77,2.52,7.77,7.94v13.61h-2.94v-13.27c0-4.33-2.14-5.71-5.5-5.71-3.82,0-6.64,2.69-6.64,5.63v13.36h-2.94v-21Z"></path><path class="cls-13" d="m1669.07,1852.7c0-7.1,4.28-11.09,10.04-11.09,3.7,0,6.22,1.6,7.31,3.74h.04v-14.95h2.94v32.77h-1.97l-.67-3.61h-.08c-1.18,2.31-3.95,4.16-7.77,4.16-6.3,0-9.83-3.99-9.83-11.01Zm17.64-.5c0-5.5-3.36-8.07-7.35-8.07-3.11,0-7.14,1.47-7.14,8.4s3.61,8.61,7.14,8.61c4.24,0,7.35-2.73,7.35-8.95Z"></path><path class="cls-13" d="m1714.02,1853.67h-15.96c.17,4.79,2.48,7.48,6.93,7.48,3.82,0,5.67-1.43,5.97-4.83h2.98c-.29,4.24-3.28,7.39-9.03,7.39-7.06,0-9.83-4.66-9.83-10.88s3.23-11.22,10-11.22,8.95,3.99,8.95,10.21v1.85Zm-3.11-2.98c0-4.45-1.72-6.55-5.92-6.55s-6.55,2.65-6.89,6.97h12.81v-.42Z"></path><path class="cls-13" d="m1719.89,1842.16h2.6l.29,3.91c1.01-2.14,3.07-4.45,6.76-4.45,1.26,0,2.18.21,3.02.55v3.15c-1.13-.5-2.1-.76-3.4-.76-3.74,0-6.34,2.81-6.34,5.75v12.85h-2.94v-21Z"></path><path class="cls-13" d="m1735.1,1856.74v-1.18h2.94v1.13c0,2.86,2.14,4.5,5.96,4.5s5.8-1.01,5.8-3.78c0-2.06-1.01-2.81-3.86-3.32l-4.62-.84c-3.02-.55-5.54-2.02-5.54-5.5,0-3.15,2.35-6.13,8.4-6.13s8.4,3.02,8.4,7.22v.88h-2.98v-.76c0-3.44-2.14-4.91-5.42-4.91-3.95,0-5.33,1.34-5.33,3.36s1.01,2.86,3.91,3.4l4.03.76c4.12.76,6.09,1.93,6.09,5.59,0,4.58-4.12,6.55-8.78,6.55-7.31,0-8.99-3.28-8.99-6.97Z"></path><line class="cls-4" x1="1688.62" y1="1719.71" x2="1688.62" y2="1720.59"></line><line class="cls-2" x1="1688.62" y1="1739.4" x2="1688.62" y2="1792.08"></line><line class="cls-4" x1="1688.62" y1="1801.49" x2="1688.62" y2="1802.36"></line><line class="cls-4" x1="1520.97" y1="1891.56" x2="1520.97" y2="1892.44"></line><line class="cls-8" x1="1520.97" y1="1911.47" x2="1520.97" y2="1943.82"></line><line class="cls-4" x1="1520.97" y1="1953.34" x2="1520.97" y2="1954.21"></line><polyline class="cls-9" points="824.26 3325.78 824.26 3391.58 1360.61 3391.58 1360.61 3319.78"></polyline><line class="cls-9" x1="1092.43" y1="3409.65" x2="1092.43" y2="3567.77"></line><g class="cls-22"><path class="cls-15" d="m1307.06,3297.29c-6.38,0-9.78-6.38-8.08-11.47l38.25-105.4c4.25-11.47,6.38-20.82,6.38-30.17,0-16.58-6.38-25.93-19.13-25.93-19.12,0-37.4,27.2-60.35,62.9-32.73,50.15-75.23,114.75-146.63,114.75-35.7,0-54.4-22.1-54.4-50.15,0-50.15,61.62-145.35,121.55-145.35,21.25,0,33.15,11.47,33.15,25.92,0,34-71.4,82.88-119.85,82.88s-79.05-47.18-88.83-96.48c.43,1.7,4.25,3.4,5.95,3.4-.85,0,5.53-2.55,5.95-3.82-15.3,90.1-90.95,178.93-137.7,178.93-14.03,0-27.2-7.65-27.2-36.55,0-40.38,24.23-96.48,24.23-127.93,0-11.47-2.55-15.3-10.2-15.3-24.23,0-50.15,36.55-79.48,78.2-32.73,48.03-69.7,101.58-115.6,101.58-21.68,0-31.88-12.33-31.88-30.6,0-5.52.85-12.75,2.98-19.97,14.45-56.1,23.8-87.55,44.63-134.3,1.28-2.97,4.25-5.1,7.65-5.1,6.38,0,10.2,6.8,7.65,11.9-19.98,45.9-29.33,75.65-43.78,131.75-1.28,6.38-2.12,11.05-2.12,15.72,0,9.78,3.4,13.6,14.88,13.6,36.55,0,69.28-46.75,102-93.93,29.33-42.5,59.08-85.85,93.08-85.85,19.98,0,27.2,14.45,27.2,32.3,0,34.85-24.23,90.95-24.23,127.93,0,16.15,3.4,19.55,10.2,19.55,35.28,0,106.25-80.33,120.7-164.48,1.27-6.8,5.95-10.62,11.05-10.62,5.53,0,9.78,3.82,11.05,10.2,8.08,44.2,35.28,82.88,71.83,82.88,42.08,0,102.85-45.05,102.85-65.88,0-5.1-5.52-8.92-16.15-8.92-48.03,0-104.55,85.85-104.55,128.35,0,19.55,11.9,33.15,37.4,33.15,62.05,0,99.45-56.95,132.18-107.1,23.8-36.55,45.48-70.55,74.8-70.55,23.8,0,36.13,18.7,36.13,42.93,0,11.05-2.98,23.8-7.23,36.12l-38.25,105.4c-1.27,3.4-4.25,5.53-8.07,5.53Z"></path></g><g class="cls-21"><path class="cls-15" d="m392.02,3108.17c0-3.82,2.55-6.8,5.95-8.07,101.58-33.15,189.55-158.95,146.63-158.95-75.65,0-56.95,359.98-162.78,359.98-22.95,0-36.55-17-35.28-35.28,1.28-14.45,12.75-33.15,34.85-33.15,34.85,0,63.33,47.6,118.58,47.6,65.03,0,123.68-65.88,190.4-168.3,1.7-2.12,4.25-3.82,7.23-3.82,4.68,0,8.5,3.82,8.5,8.5,0,1.7-.43,3.4-1.28,4.68-68.43,104.12-131.33,175.95-204.85,175.95-59.5,0-93.5-47.6-118.58-47.6-11.05,0-17.43,9.35-17.85,17-.43,9.78,5.52,17.43,18.28,17.43,86.28,0,67.58-359.98,162.78-359.98,82.03,0-28.05,155.12-141.53,192.1-5.1,1.7-11.05-2.12-11.05-8.08Zm915.03,189.13c-6.38,0-9.78-6.38-8.08-11.47l38.25-105.4c4.25-11.47,6.38-20.82,6.38-30.17,0-16.58-6.38-25.93-19.13-25.93-19.12,0-37.4,27.2-60.35,62.9-32.73,50.15-75.23,114.75-146.63,114.75-35.7,0-54.4-22.1-54.4-50.15,0-50.15,61.62-145.35,121.55-145.35,21.25,0,33.15,11.47,33.15,25.92,0,34-71.4,82.88-119.85,82.88s-79.05-47.18-88.83-96.48c.43,1.7,4.25,3.4,5.95,3.4-.85,0,5.53-2.55,5.95-3.82-15.3,90.1-90.95,178.93-137.7,178.93-14.03,0-27.2-7.65-27.2-36.55,0-40.38,24.23-96.48,24.23-127.93,0-11.47-2.55-15.3-10.2-15.3-24.23,0-50.15,36.55-79.48,78.2-32.73,48.03-69.7,101.58-115.6,101.58-21.68,0-31.88-12.33-31.88-30.6,0-5.52.85-12.75,2.98-19.97,14.45-56.1,23.8-87.55,44.63-134.3,1.28-2.97,4.25-5.1,7.65-5.1,6.38,0,10.2,6.8,7.65,11.9-19.98,45.9-29.33,75.65-43.78,131.75-1.28,6.38-2.12,11.05-2.12,15.72,0,9.78,3.4,13.6,14.88,13.6,36.55,0,69.28-46.75,102-93.93,29.33-42.5,59.08-85.85,93.08-85.85,19.98,0,27.2,14.45,27.2,32.3,0,34.85-24.23,90.95-24.23,127.93,0,16.15,3.4,19.55,10.2,19.55,35.28,0,106.25-80.33,120.7-164.48,1.27-6.8,5.95-10.62,11.05-10.62,5.53,0,9.78,3.82,11.05,10.2,8.08,44.2,35.28,82.88,71.83,82.88,42.08,0,102.85-45.05,102.85-65.88,0-5.1-5.52-8.92-16.15-8.92-48.03,0-104.55,85.85-104.55,128.35,0,19.55,11.9,33.15,37.4,33.15,62.05,0,99.45-56.95,132.18-107.1,23.8-36.55,45.48-70.55,74.8-70.55,23.8,0,36.13,18.7,36.13,42.93,0,11.05-2.98,23.8-7.23,36.12l-38.25,105.4c-1.27,3.4-4.25,5.53-8.07,5.53Zm-596.7-249.48c0-6.38,6.38-11.48,14.87-11.48s14.45,5.1,14.45,11.48c0,6.8-6.38,11.9-14.45,11.9-8.5,0-14.87-5.1-14.87-11.9Zm628.58,163.62c-4.67,0-8.5-3.82-8.5-8.5,0-2.12.85-3.82,1.7-5.1,36.55-45.9,80.33-90.53,113.48-90.53s36.55,39.53,26.78,78.2l-16.15,65.45c-.85,3.83-4.25,6.38-8.07,6.38-5.95,0-9.35-5.53-8.08-10.62l16.15-65.45c8.08-32.73,5.95-56.95-10.62-56.95-24.23,0-64.6,39.53-99.88,83.72-1.7,2.12-4.25,3.4-6.8,3.4Zm133.45-25.92l-16.15,65.45c-5.1,21.25-.85,29.33,10.2,29.33,26.35,0,61.63-39.53,70.55-48.45,1.28-1.7,3.4-2.55,5.95-2.55,4.68,0,8.5,3.82,8.5,8.5,0,2.55-.85,4.67-2.55,5.95-8.92,8.93-47.6,53.55-82.45,53.55-22.1,0-34.85-17.43-26.35-50.58l16.15-65.45,16.15,4.25Z"></path></g></g></svg> 