<?xml version="1.0" encoding="UTF-8"?> <svg xmlns="http://www.w3.org/2000/svg" xmlns:xlink="http://www.w3.org/1999/xlink" viewBox="0 0 1920 3587.2"><defs><style>.cls-1,.cls-2,.cls-3,.cls-4,.cls-5,.cls-6{fill:none;}.cls-7{clip-path:url(#clippath);}.cls-2{stroke-dasharray:0 0 1.76 17.61;}.cls-2,.cls-3,.cls-4,.cls-5{stroke:#b3a0cd;stroke-linecap:round;stroke-width:7px;}.cls-2,.cls-3,.cls-4,.cls-5,.cls-6{stroke-miterlimit:10;}.cls-8{fill:#fff;}.cls-9{fill:#937eb9;}.cls-10{fill:#b3a0cd;}.cls-11{fill:#161b31;}.cls-4{stroke-dasharray:0 0 1.42 14.24;}.cls-12{clip-path:url(#clippath-1);}.cls-13{clip-path:url(#clippath-4);}.cls-14{clip-path:url(#clippath-3);}.cls-15{clip-path:url(#clippath-2);}.cls-5{stroke-dasharray:0 0 1.74 17.45;}.cls-6{stroke:#566789;stroke-width:3.5px;}</style><clipPath id="clippath"><rect class="cls-1" x="62.94" y="2992.6" width="171.48" height="171.48" rx="85.74" ry="85.74"></rect></clipPath><clipPath id="clippath-1"><rect class="cls-1" x="630.58" y="2908.68" width="97.77" height="97.77" rx="48.88" ry="48.88"></rect></clipPath><clipPath id="clippath-2"><rect class="cls-1" x="554.42" y="2037.71" width="215.65" height="298.16"></rect></clipPath><clipPath id="clippath-3"><circle class="cls-1" cx="878.68" cy="2384.79" r="74.32"></circle></clipPath><clipPath id="clippath-4"><circle class="cls-1" cx="564.02" cy="3094.28" r="74.54"></circle></clipPath></defs><g id="Capa_2"><rect class="cls-11" y="-3.7" width="1920" height="3590.9"></rect></g><g id="Capa_3"><line class="cls-6" x1="-1.51" y1="2791.69" x2="1918.49" y2="2791.69"></line><line class="cls-6" x1="-1.51" y1="2947.33" x2="1918.49" y2="2947.33"></line><line class="cls-6" x1="1918.49" y1="3137.48" x2="-1.51" y2="3137.48"></line><line class="cls-6" x1="-1.51" y1="3301.63" x2="1918.49" y2="3301.63"></line><line class="cls-6" x1="-1.51" y1="1927.68" x2="1918.49" y2="1927.68"></line><line class="cls-6" x1="-1.51" y1="2083.32" x2="1918.49" y2="2083.32"></line><line class="cls-6" x1="1918.49" y1="2273.47" x2="-1.51" y2="2273.47"></line><line class="cls-6" x1="-1.51" y1="2437.62" x2="1918.49" y2="2437.62"></line><line class="cls-6" x1="-1.51" y1="1064.42" x2="1918.49" y2="1064.42"></line><line class="cls-6" x1="-1.51" y1="1220.07" x2="1918.49" y2="1220.07"></line><line class="cls-6" x1="1918.49" y1="1410.22" x2="-1.51" y2="1410.22"></line><line class="cls-6" x1="-1.51" y1="1574.37" x2="1918.49" y2="1574.37"></line><line class="cls-6" x1="-1.51" y1="205.28" x2="1918.49" y2="205.28"></line><line class="cls-6" x1="-1.51" y1="360.92" x2="1918.49" y2="360.92"></line><line class="cls-6" x1="1918.49" y1="551.07" x2="-1.51" y2="551.07"></line><line class="cls-6" x1="-1.51" y1="712.22" x2="1918.49" y2="712.22"></line></g><g id="info"><circle class="cls-9" cx="878.68" cy="2384.79" r="74.32"></circle><path class="cls-9" d="m974.8,1368.92c-1.51,1.51-2.01,3.52-2.01,5.04,0,4.53,4.53,8.06,9.06,8.06,2.01,0,4.03-1.01,6.04-3.02,17.12-21.65,30.21-41.29,40.28-58.41,3.02,46.83,26.19,88.12,85.6,88.12,66.47,0,83.09-50.86,83.09-96.68,0-4.53,0-8.06-.5-12.09,19.14,15.61,36.76,19.14,55.89,19.14,4.53,0,8.06-3.52,8.06-8.06s-3.52-8.06-8.06-8.06c-71,0-64.46-79.56-143.51-79.56-68.48,0-66.47,61.94-133.95,145.53Z"></path><rect class="cls-9" x="1455.58" y="205.28" width="54.23" height="507.38"></rect><path class="cls-8" d="m1413.66,780.84v-19.95h2.94v19.95c0,9.41,4.07,10.63,8.86,10.63s8.78-1.01,8.78-10.63v-19.95h2.94v19.62c0,11.64-5.33,13.69-11.76,13.69s-11.76-2.06-11.76-13.36Z"></path><path class="cls-8" d="m1444.95,772.65h2.39l.34,3.86h.08c1.13-2.48,4.03-4.41,7.86-4.41,6.3,0,9.66,3.99,9.66,11.01s-4.29,11.09-9.87,11.09c-3.78,0-6.38-1.6-7.43-3.7h-.08v11.55h-2.94v-29.41Zm17.18,10.63c0-7.18-3.4-8.61-6.93-8.61-4.24,0-7.56,2.73-7.56,8.44,0,6.01,3.45,8.57,7.44,8.57,3.02,0,7.06-1.47,7.06-8.4Z"></path><path class="cls-8" d="m1471.16,772.65h2.6l.29,3.91c1.01-2.14,3.07-4.45,6.76-4.45,1.26,0,2.18.21,3.02.55v3.15c-1.13-.5-2.1-.76-3.4-.76-3.74,0-6.34,2.81-6.34,5.75v12.85h-2.94v-21Z"></path><path class="cls-8" d="m1488.46,760.89h2.98v6.51h-2.98v-6.51Zm0,11.76h2.94v21h-2.94v-21Z"></path><path class="cls-8" d="m1498.16,795.46v-.13h3.11v.13c0,2.9,1.93,4.33,6.13,4.33,4.79,0,7.01-2.94,7.01-7.86v-2.1h-.08c-1.09,2.18-3.65,4.07-7.48,4.07-6.3,0-9.75-3.99-9.75-10.71,0-7.1,4.37-11.09,9.96-11.09,3.78,0,6.55,1.81,7.56,4.12h.13l.29-3.57h2.31v19.16c0,5.88-2.81,10.71-10.33,10.71-6.3,0-8.86-2.98-8.86-7.06Zm16.59-12.77c0-5.5-3.36-8.07-7.35-8.07-3.03,0-7.14,1.47-7.14,8.4s3.57,8.32,7.1,8.32c4.24,0,7.39-2.73,7.39-8.65Z"></path><path class="cls-8" d="m1524.71,760.89h2.94v15.16c1.05-2.1,3.28-3.95,7.31-3.95,4.75,0,7.77,2.52,7.77,7.94v13.61h-2.94v-13.27c0-4.33-2.14-5.71-5.5-5.71-3.82,0-6.64,2.69-6.64,5.63v13.36h-2.94v-32.77Z"></path><path class="cls-8" d="m1561.04,790.97v2.6c-.76.21-2.14.59-4.03.59-3.82,0-6.34-1.6-6.34-6.89v-12.18h-4.16v-2.44h4.16v-6.05l2.94-1.43v7.48h5.92v2.44h-5.92v11.8c0,2.81.76,4.58,3.4,4.58,1.6,0,3.23-.29,4.03-.5Z"></path><line class="cls-3" x1="148.68" y1="3180.35" x2="148.68" y2="3181.22"></line><line class="cls-4" x1="148.68" y1="3195.46" x2="148.68" y2="3219.66"></line><polyline class="cls-3" points="148.68 3226.78 148.68 3227.65 149.55 3227.65"></polyline><line class="cls-2" x1="167.15" y1="3227.65" x2="545.67" y2="3227.65"></line><polyline class="cls-3" points="554.47 3227.65 555.34 3227.65 555.34 3226.78"></polyline><line class="cls-4" x1="555.34" y1="3212.54" x2="555.34" y2="3188.34"></line><line class="cls-3" x1="555.34" y1="3181.22" x2="555.34" y2="3180.35"></line><rect class="cls-9" x="62.94" y="2992.6" width="171.48" height="171.48" rx="85.74" ry="85.74"></rect><path class="cls-8" d="m342.33,1242.24h-102.73c19.64-49.33,37.26-101.2,51.36-142.9,14.1,41.7,31.72,93.57,51.36,142.9Zm-51.36-176.97c-3.52,0-7.05,2.54-8.06,6.1-21.15,60.51-41.29,120.01-61.94,170.86h-45.82c-4.53,0-8.06,3.56-8.06,8.14s3.52,8.14,8.06,8.14h38.77c-33.23,79.84-65.97,136.28-96.18,136.28s-51.36-33.05-69.99-74.75c-1.51-3.56-4.53-5.09-7.05-5.09-4.53,0-9.06,4.07-9.06,8.64,0,1.02.5,2.54,1.01,3.56,15.61,35.09,39.78,83.91,85.1,83.91,40.79,0,80.57-70.68,114.81-152.56h116.83c34.24,81.87,74.02,152.56,114.81,152.56,17.62,0,29.21-3.56,54.38-28.99,1.51-1.53,2.01-4.07,2.01-6.1s-.5-4.58-2.01-6.1c-2.01-2.03-3.52-2.54-5.54-2.54-10.07,0-20.14,27.46-48.85,27.46-30.21,0-62.94-56.45-96.18-136.28h42.8c4.53,0,8.06-3.56,8.06-8.14s-3.52-8.14-8.06-8.14h-49.85c-60.43-150.01-56.9-176.97-69.99-176.97Zm215.52,305.62c-1.51,1.53-2.01,3.56-2.01,5.09,0,4.58,4.03,8.14,8.56,8.14,2.01,0,4.53-.51,6.55-3.05,21.15-26.44,46.83-54.41,62.94-85.94v107.81c0,4.58,3.52,8.14,8.06,8.14s8.06-3.56,8.06-8.14v-82.38c0-38.14,24.67-80.35,64.96-80.35,37.26,0,69.99,39.66,69.99,83.4v79.33c0,4.58,3.52,8.14,8.06,8.14s8.06-3.56,8.06-8.14v-79.33c0-45.26,25.68-82.89,64.96-82.89s69.99,39.16,69.99,83.4v12.2c0,33.56,9.06,74.75,48.34,74.75,22.16,0,34.24-6.61,54.38-29.49,1.51-1.53,2.01-3.56,2.01-5.59s-.5-4.58-2.52-6.1c-2.01-1.53-4.03-2.54-5.54-2.54-10.07,0-16.11,27.46-48.34,27.46-25.68,0-32.23-31.53-32.23-58.48v-12.2c0-50.34-34.75-100.18-86.11-100.18-35.25,0-61.94,22.88-74.02,56.45-14.1-32.04-42.3-56.45-77.04-56.45-29.21,0-51.36,16.27-64.96,38.14v-30c0-5.09-3.02-8.14-8.06-8.14s-8.06,3.05-8.06,8.14c0,52.38-41.29,95.6-76.04,138.83Zm1054.45,5.09c0,5.59,4.03,8.64,8.06,8.64,2.52,0,5.54-1.53,7.05-4.07,34.24-53.4,74.02-140.35,134.45-140.35,29.21,0,54.89,23.9,54.89,53.4v109.33c0,4.58,4.03,8.14,8.56,8.14s8.56-3.56,8.56-8.14v-129.17c12.09,11.7,28.7,17.8,45.82,17.8,45.32,0,63.45-37.12,63.45-45.26,0-5.09-4.03-8.64-8.56-8.64-3.52,0-6.55,2.03-8.06,6.1-6.55,20.34-26.19,31.02-46.83,31.02-23.16,0-45.82-14.24-45.82-42.72,0-5.09-3.52-8.14-8.56-8.14s-8.56,3.05-8.56,8.14v17.29c-13.6-15.26-33.74-25.43-54.89-25.43-71,0-113.3,92.55-148.55,147.47-1.01,1.53-1.01,3.05-1.01,4.58Zm-516.65-61.53c0-11.19,1.51-22.38,6.55-32.04,7.05-14.24,23.16-42.21,57.91-42.21s48.34,18.31,60.43,32.55c5.04,6.1,11.08,18.31,11.08,40.68,0,15.26-3.02,30-5.04,37.12-3.02,11.7-12.09,44.24-61.43,44.24-56.4,0-69.49-45.77-69.49-80.35Zm-69.49,56.45c-1.51,1.53-2.01,3.56-2.01,5.09,0,4.58,4.53,8.14,9.06,8.14,2.01,0,4.03-1.02,6.04-3.05,17.12-21.87,30.21-41.7,40.28-58.99,3.02,47.29,26.19,88.99,85.6,88.99,66.47,0,83.09-51.36,83.09-97.64,0-4.58,0-8.14-.5-12.2,19.14,15.76,36.76,19.32,55.89,19.32,4.53,0,8.06-3.56,8.06-8.14s-3.52-8.14-8.06-8.14c-71,0-64.46-80.35-143.51-80.35-68.48,0-66.47,62.55-133.95,146.96Zm268.9-58.48c0,4.58,3.52,8.14,8.06,8.14,30.72,0,54.89-12.71,69.49-33.56v26.95c0,47.29,33.23,97.13,78.05,97.13,36.26,0,61.43-19.32,75.53-46.28,5.04,24.41,17.62,46.28,44.82,46.28,25.18,0,38.27-8.14,55.89-30,1.01-1.53,2.01-3.56,2.01-5.09,0-5.09-5.04-8.64-8.56-8.64-9.57,0-13.6,27.46-49.35,27.46-24.67,0-31.22-34.07-31.22-59.5v-103.23c0-4.58-3.52-8.14-8.06-8.14s-8.06,3.56-8.06,8.14v73.74c0,46.28-24.67,88.99-73.02,88.99-32.73,0-61.94-39.16-61.94-80.86v-81.87c0-5.09-3.02-8.14-8.06-8.14s-8.06,3.05-8.06,8.14c0,40.17-25.68,72.21-69.49,72.21-4.53,0-8.06,3.56-8.06,8.14Z"></path><path class="cls-8" d="m629.93,2084.71c-75.42,0-99.88,83.58-139.12,122.31-2.04,1.53-2.55,3.57-2.55,5.61,0,4.59,4.59,9.17,9.17,9.17,2.04,0,4.08-1.02,5.61-2.55,41.28-40.77,62.17-118.23,126.89-118.23,27.01,0,46.88,25.48,73.89,25.48h2.55l-115.68,131.99c-1.53,2.04-2.55,3.57-2.55,5.61,0,4.59,4.08,8.66,8.66,8.66,2.04,0,4.08-1.02,6.12-3.06,19.37-21.4,31.6-24.46,39.75-24.46,22.93,0,46.37,27.52,88.16,27.52h2.04c18.35,0,29.05-1.53,52.49-30.58,1.53-1.53,2.04-3.57,2.04-5.1,0-4.59-4.59-8.66-9.17-8.66-2.04,0-4.08,1.53-6.12,3.57-19.37,23.95-24.46,23.95-39.24,23.95h-2.04c-37.2,0-59.62-27.52-88.16-27.52h-3.57l114.15-129.95c1.53-1.53,2.55-3.57,2.55-5.61,0-4.59-4.08-8.66-8.66-8.66-2.04,0-4.08,1.02-6.12,3.06-8.66,9.68-22.42,22.42-37.2,22.42-21.4,0-40.77-24.97-73.89-24.97Zm-216.58,171.23c-38.22,0-66.76-35.67-81.54-63.7-1.53-3.06-4.59-4.59-7.13-4.59-4.59,0-9.17,4.08-9.17,8.66,0,1.02.51,2.55,1.02,4.08,5.1,9.68,38.73,71.85,96.83,71.85,51.47,0,97.34-36.69,97.34-92.75,0-65.74-45.86-99.88-97.34-99.88-41.28,0-81.03-22.42-81.03-60.13,0-41.28,27.52-76.44,73.38-76.44,51.98,0,61.15,24.97,78.48,57.08,1.53,3.06,4.08,4.59,6.62,4.59,4.59,0,9.17-4.08,9.17-8.66,0-1.02-1.02-2.55-1.53-4.08-17.33-32.11-30.07-65.23-92.75-65.23-54.53,0-89.69,41.28-89.69,92.75s50.45,77.46,97.34,77.46c41.79,0,81.03,25.99,81.03,82.56,0,45.36-37.71,76.44-81.03,76.44Zm558.02-78.48c0-27.52,8.66-75.93,40.77-75.93,20.89,0,35.16,8.15,35.16,25.99,0,5.61-1.53,11.21-5.61,16.82-2.04,3.06-7.13,8.66-14.27,15.8-13.76,13.76-34.65,32.61-51.98,47.9-2.55-9.68-4.08-20.38-4.08-30.58Zm42.81,94.79h0c20.38,0,47.39-2.04,70.33-24.97,2.55-2.55,6.62-5.61,6.62-10.19s-4.08-8.66-8.66-8.66c-2.55,0-4.59,1.53-6.12,3.06-17.33,19.87-41.28,24.46-62.17,24.46-14.78,0-26.5-18.35-32.61-31.09,18.35-15.8,41.79-37.2,58.1-53,12.74-12.74,24.46-23.95,24.46-44.85,0-27.01-22.93-42.3-51.98-42.3-44.85,0-57.59,58.61-57.59,92.75,0,14.78,2.55,29.56,7.13,42.81-4.08,3.57-7.64,6.62-10.7,9.17-2.04,2.04-4.08,4.08-4.08,7.64,0,4.59,3.57,8.66,8.15,8.66,2.04,0,4.08-1.02,5.61-2.55,2.55-2.04,4.59-4.08,8.15-6.62,8.15,16.31,23.44,35.67,45.36,35.67Zm1.02-347.04v82.56h16.31v-82.56h-16.31Zm443.36,252.26c0-40.26,24.46-76.44,68.29-76.44h3.57c25.48,0,67.78,2.55,69.82,68.8,0,1.02-.51,1.53,0,2.55v25.48c0,25.48-24.46,58.1-73.38,58.1-44.85,0-68.29-37.2-68.29-78.48Zm-71.35-4.08c0,4.59,3.57,8.15,8.15,8.15,21.91,0,36.18-8.66,47.9-20.38-1.02,5.1-1.02,10.7-1.02,16.31,0,48.92,28.54,94.79,84.6,94.79,35.67,0,62.17-14.78,76.95-35.16,6.62,20.89,23.95,35.16,46.88,35.16s34.65-.51,60.13-29.56c1.53-1.53,2.55-4.08,2.55-5.61,0-4.59-4.59-8.15-9.17-8.15-2.04,0-4.08.51-5.61,2.55-20.38,22.93-25.99,24.46-47.9,24.46s-33.12-18.86-33.12-39.75v-123.33c0-4.59-4.08-8.15-8.66-8.15s-8.66,3.57-8.66,8.15v19.37c-18.86-25.48-49.43-27.52-69.82-27.52h-3.57c-77.46,0-77.46,80.52-131.48,80.52-4.59,0-8.15,3.57-8.15,8.15Zm-311.37,59.11c-1.02,1.53-1.53,3.06-1.53,4.59,0,4.59,4.59,8.15,9.17,8.15,2.55,0,4.59-1.02,6.62-3.57,34.65-53.51,74.91-140.65,136.07-140.65,29.56,0,55.55,23.95,55.55,53.51v109.57c0,4.59,4.08,8.15,8.66,8.15s8.66-3.57,8.66-8.15v-146.77c21.4,25.48,59.11,64.21,95.81,64.21,4.59,0,8.15-3.57,8.15-8.15s-3.57-8.15-8.15-8.15c-39.24,0-90.71-67.27-97.84-77.46-1.53-2.55-4.08-3.57-6.62-3.57-4.59,0-8.66,3.57-8.66,8.66v17.33c-13.76-15.8-34.14-25.48-55.55-25.48-71.85,0-114.66,92.75-150.33,147.79Zm-188.05-149.32v-93.77c0-34.14,12.23-46.37,31.09-46.37,19.87,0,24.97,25.99,24.97,39.75,0,14.78-21.91,51.98-56.06,100.39Zm-117.72,153.9c0,4.59,4.59,8.66,9.17,8.66,2.04,0,4.08-1.02,6.12-3.06,20.89-24.97,54.53-65.74,86.12-108.04v120.27c-25.48-3.06-33.12-27.01-42.3-27.01-4.59,0-9.17,4.08-9.17,8.66,0,1.53.51,4.08,2.04,5.61,17.84,20.89,31.6,28.54,49.43,30.07v151.35c0,4.59,3.57,8.66,8.15,8.66s8.15-4.08,8.15-8.66v-151.35c32.61,0,45.36-3.06,72.87-29.05,2.04-1.53,3.06-3.57,3.06-5.61,0-4.59-4.59-9.17-9.17-9.17-2.04,0-3.57,1.02-5.1,2.55-23.95,22.93-32.11,24.46-61.66,24.46v-143.2c39.24-53.51,72.36-106,72.36-129.44,0-31.09-15.29-57.08-41.28-57.08-18.86,0-47.39,10.19-47.39,63.7v117.21c-72.87,98.35-101.41,122.31-101.41,130.46Z"></path><path class="cls-8" d="m1372.15,511.78c-1.53,1.53-2.04,4.08-2.04,5.62,0,4.6,4.6,8.68,9.19,8.68,2.04,0,4.08-1.02,6.13-3.06,19.91-23.49,46.46-53.1,63.82-86.8v266.51c0,4.6,3.57,8.17,8.17,8.17s8.17-3.57,8.17-8.17v-240.47c0-39.31,25.02-81.18,66.37-81.18s70.46,46.97,70.46,80.67v15.32c0,33.19,9.7,75.56,48.5,75.56,22.98,0,37.78-7.15,56.16-30.12,1.02-1.53,1.53-3.06,1.53-5.11,0-2.55-1.02-5.11-3.06-6.64-2.04-1.53-3.57-2.04-5.11-2.04-10.21,0-14.81,27.57-49.52,27.57-25.53,0-32.17-33.19-32.17-59.23v-15.32c0-41.87-34.21-97.01-86.8-97.01-29.61,0-52.59,15.83-66.37,38.29v-30.12c0-5.11-3.06-8.17-8.17-8.17s-8.17,3.06-8.17,8.17c0,51.06-40.84,95.48-77.09,138.87Zm-80.67-61.78v-77.09c0-4.6-4.08-8.17-8.68-8.17s-8.68,3.57-8.68,8.17v18.89c-18.89-25.02-49.52-27.06-69.95-27.06h-3.57c-31.65,0-47.48,11.74-79.65,39.31-22.46,18.89-52.59,46.97-102.11,87.82-2.55,2.04-3.57,4.08-3.57,6.13,0,4.6,4.08,9.19,8.68,9.19,1.53,0,3.57-1.02,5.11-2.04,42.38-35.23,70.46-59.74,90.88-77.61-2.55,9.7-4.08,19.91-4.08,30.12,0,49.01,28.59,94.96,84.75,94.96,35.74,0,62.29-14.81,77.09-35.23,6.64,20.93,24,35.23,46.97,35.23s34.72-.51,60.25-29.61c1.53-1.53,2.55-4.08,2.55-5.62,0-4.6-4.6-8.17-9.19-8.17-2.04,0-4.08.51-5.62,2.55-20.42,22.98-26.04,24.51-47.99,24.51s-33.19-18.89-33.19-39.82v-46.46Zm-90.88-68.93h3.57c28.08,0,67.9,4.08,69.95,68.93v28.08c0,25.53-24.51,58.2-73.52,58.2-44.93,0-68.42-32.17-68.42-78.63,0-40.33,24.51-76.58,68.42-76.58Zm-358.93,136.32c0,4.6,4.6,8.68,9.19,8.68,2.04,0,4.08-1.02,5.62-3.06,18.89-21.44,64.33-75.05,94.45-133.77,29.61,36.76,66.88,42.38,66.88,82.2,0,35.23-26.55,64.84-60.76,64.84-41.87,0-49.52-28.59-58.71-28.59-4.6,0-9.19,4.6-9.19,9.19,0,2.04,1.02,3.57,2.55,5.11,21.44,22.46,38.29,30.63,65.35,30.63,44.42,0,78.12-37.78,78.12-81.18,0-53.61-50.55-58.71-78.63-103.13-1.53-2.55-4.6-4.08-7.15-4.08-3.06,0-6.13,2.04-7.66,5.11-25.02,53.1-66.37,106.71-97.52,142.45-1.53,1.53-2.55,4.08-2.55,5.62Zm-145-109.77h0c1.02-1.02,2.04-2.55,3.06-3.06,1.02-1.02,2.04-2.04,3.06-3.06,12.76-12.25,30.12-19.91,51.06-19.91,24,0,43.91,11.74,52.59,20.42,1.02.51,1.53,1.53,2.04,2.55,3.06,3.57,9.19,3.57,12.76.51,3.06-3.06,3.06-8.17.51-11.74l-3.57-3.57c-11.74-11.74-34.72-25.02-64.33-25.02-27.57,0-47.48,9.19-62.8,24.51-1.53,1.02-2.55,2.55-3.57,3.57l-3.57,3.57c-7.15,8.17-13.27,17.36-18.89,27.06-17.36,28.08-32.68,60.76-59.74,87.82-3.06,3.57-3.06,8.68,0,12.25,3.57,3.06,8.68,3.06,12.25,0,18.89-19.4,32.68-40.84,44.42-60.76,2.04,47.48,42.89,89.86,106.71,89.86,25.53,0,55.14,3.06,87.82-29.1,3.06-3.57,3.06-8.68,0-12.25-3.57-3.06-8.68-3.06-12.25,0-27.57,28.08-49.01,25.02-75.56,25.02-57.18,0-89.86-38.29-89.86-77.09,0-9.19,1.53-18.38,4.08-26.55,3.06-9.7,8.17-17.87,13.79-25.02Zm-384.96,92.41c-11.23,21.44-32.68,36.25-58.2,36.25-21.44,0-40.84-10.72-40.84-27.06s18.89-28.08,40.33-28.08c22.98,0,41.36,8.17,58.71,18.89Zm20.93-6.13c2.55-8.68,4.6-17.87,4.6-27.06v-177.68c0-36.25,29.1-66.37,65.35-66.37s63.31,28.59,63.31,66.37c0,4.6,4.08,8.17,8.68,8.17s8.68-3.57,8.68-8.17c0-46.97-35.74-82.71-80.67-82.71s-82.71,37.27-82.71,82.71v177.68c0,6.13-.51,11.74-2.04,17.36-18.38-11.23-38.29-20.42-64.84-20.42-30.63,0-56.67,18.38-56.67,45.44s25.53,43.4,57.18,43.4,58.2-17.36,72.5-42.89c28.08,19.91,55.14,42.89,98.03,42.89,28.59,0,46.46-10.21,65.35-29.1,1.53-1.53,2.04-4.08,2.04-6.13s-.51-4.6-2.04-6.13c-2.04-2.04-4.08-2.55-5.62-2.55-10.21,0-19.4,27.57-59.74,27.57s-63.31-22.46-91.39-42.38Zm167.46-36.25c0-27.57,8.68-76.07,40.84-76.07,20.93,0,35.23,8.17,35.23,26.04,0,5.62-1.53,11.23-5.62,16.85-2.04,3.06-7.15,8.68-14.3,15.83-13.79,13.79-34.72,32.68-52.08,47.99-2.55-9.7-4.08-20.42-4.08-30.63Zm42.89,94.96h0c20.42,0,47.48-2.04,70.46-25.02,2.55-2.55,6.64-5.62,6.64-10.21s-4.08-8.68-8.68-8.68c-2.55,0-4.6,1.53-6.13,3.06-17.36,19.91-41.36,24.51-62.29,24.51-14.81,0-26.55-18.38-32.68-31.14,18.38-15.83,41.87-37.27,58.2-53.1,12.76-12.76,24.51-24,24.51-44.93,0-27.06-22.98-42.38-52.08-42.38-44.93,0-57.69,58.71-57.69,92.92,0,14.81,2.55,29.61,7.15,42.89-4.08,3.57-7.66,6.64-10.72,9.19-2.04,2.04-4.08,4.08-4.08,7.66,0,4.6,3.57,8.68,8.17,8.68,2.04,0,4.08-1.02,5.62-2.55,2.55-2.04,4.6-4.08,8.17-6.64,8.17,16.34,23.49,35.74,45.44,35.74Z"></path><path class="cls-8" d="m1619.45,3100.87c0,4.61,4.61,8.7,9.21,8.7,2.05,0,4.09-1.02,6.14-3.58,15.86-22.01,27.63-40.43,35.31-55.27v9.72c0,38.89,20.47,76.25,67.04,76.25,31.22,0,50.66-8.19,69.09-30.19,1.54-1.54,1.54-3.58,1.54-5.63,0-7.16-5.12-8.7-8.19-8.7-9.72,0-13.82,27.63-62.43,27.63-40.43,0-50.66-35.31-50.66-59.36v-114.63h40.43c4.61,0,8.7-4.09,8.7-8.7s-4.09-8.7-8.7-8.7h-40.43v-132.03c0-4.61-3.58-8.19-8.19-8.19s-8.19,3.58-8.19,8.19v132.03h-40.43c-4.61,0-8.7,4.09-8.7,8.7s4.09,8.7,8.7,8.7h40.43v39.4c0,59.36-50.66,105.93-50.66,115.65Zm-237.96-59.87c0-43.5,26.1-76.76,68.06-76.76h3.58c28.15,0,68.57,4.09,70.62,69.09v28.15c0,25.59-25.08,58.34-74.2,58.34-45.03,0-68.06-37.36-68.06-78.81Zm-73.18,59.87c0,4.61,4.61,8.7,9.21,8.7,2.05,0,4.09-1.54,6.14-3.58,17.91-22.01,30.7-41.96,40.94-59.36,2.05,47.08,31.22,89.56,84.95,89.56,35.82,0,62.43-14.84,77.27-35.31,6.65,20.98,24.05,35.31,47.08,35.31s34.8-.51,60.39-29.68c1.54-1.54,2.56-4.09,2.56-5.63,0-4.61-4.61-8.19-9.21-8.19-2.05,0-4.09.51-5.63,2.56-20.47,23.03-26.1,24.56-48.1,24.56s-33.78-18.93-33.78-39.92v-46.57l.51-.51-.51-.51v-76.25c0-4.61-3.58-8.19-8.19-8.19s-8.19,3.58-8.19,8.19v18.93c-18.93-25.08-50.15-27.12-70.62-27.12h-3.58c-76.25,0-69.6,62.94-139.19,147.89-1.54,1.54-2.05,3.58-2.05,5.12Zm136.64-313.19v82.9h16.38v-82.9h-16.38Zm-185.76,68.57c0,9.21,7.68,16.89,15.86,16.89,8.7,0,14.33-9.72,14.33-15.35,0-9.21-7.68-17.4-15.86-17.4-8.7,0-14.33,8.19-14.33,15.86Zm-22.52,390.97c0-20.98,13.31-46.06,31.73-72.16v71.64c0,18.42-4.09,30.19-16.89,30.19-9.72,0-14.84-8.19-14.84-29.68Zm-47.59-146.36c0,4.61,4.61,8.7,9.21,8.7,2.05,0,4.09-1.02,6.14-3.07,17.4-20.47,46.06-52.2,63.97-88.02v127.94c-25.08,32.24-49.13,69.6-49.13,100.81,0,39.4,19.45,46.57,32.24,46.57s33.26-6.14,33.26-47.08v-93.65l38.89-46.57c1.54-1.54,2.05-4.09,2.05-5.63,0-4.61-4.61-8.7-9.21-8.7-2.05,0-4.09,1.02-6.14,3.07l-25.59,30.19v-169.9c0-5.12-3.07-8.19-8.19-8.19s-8.19,3.07-8.19,8.19c0,53.73-51.69,109.51-77.27,139.71-1.54,1.54-2.05,4.09-2.05,5.63Zm-71.64,148.41c0-23.03,12.79-48.1,31.22-74.2v67.55c0,23.03-3.07,34.29-15.86,34.29-6.65,0-15.35-2.05-15.35-27.63Zm-201.12-148.41c0,4.61,4.61,8.7,9.21,8.7,2.05,0,4.09-1.02,6.14-3.07,18.93-22.52,46.57-52.71,63.97-87.51v17.91c0,51.17,34.29,99.28,79.32,99.28,32.24,0,57.83-16.89,73.69-41.45v51.69c-25.59,32.75-48.62,69.6-48.62,102.86,0,30.7,13.31,44.52,32.75,44.52,30.7,0,32.75-31.73,32.75-51.17v-89.56l38.89-46.57c1.54-1.54,2.05-4.09,2.05-5.63,0-4.61-4.61-8.7-9.21-8.7-2.05,0-4.09,1.02-6.14,3.07l-25.59,30.7v-170.41c0-5.12-3.07-8.19-8.19-8.19-7.16,0-8.7,2.56-8.7,17.91,0,9.21.51,22.01.51,41.96,0,8.7,0,18.93-.51,30.7-1.02,42.99-29.68,81.37-73.69,81.37-34.8,0-62.43-40.43-62.43-82.39v-81.37c0-5.63-4.61-8.7-8.7-8.7s-8.19,3.07-8.19,8.7c0,56.29-52.71,110.54-77.27,139.71-1.54,1.54-2.05,4.09-2.05,5.63Zm-320.35-5.63c-1.54,1.54-2.05,3.58-2.05,5.12,0,4.61,4.61,9.21,9.21,9.21,2.05,0,4.61-1.02,6.14-3.07,19.96-23.54,46.57-53.22,63.97-87v108.49c0,4.61,3.58,8.19,8.19,8.19s8.19-3.58,8.19-8.19v-82.39c0-39.4,25.08-81.37,66.53-81.37s70.62,47.08,70.62,80.86v15.35c0,33.26,9.72,75.74,48.62,75.74,23.03,0,37.87-7.16,56.29-30.19,1.02-1.54,2.05-3.58,2.05-5.12,0-2.56-1.54-4.61-3.58-6.65-2.05-1.54-3.58-2.05-5.12-2.05-9.72,0-14.84,27.63-49.64,27.63-25.59,0-32.24-33.26-32.24-59.36v-15.35c0-41.96-34.29-97.23-87-97.23-29.68,0-52.71,15.86-66.53,38.38v-30.19c0-5.12-3.07-8.19-8.19-8.19s-8.19,3.07-8.19,8.19c0,51.17-40.94,95.7-77.27,139.19Zm-166.32-128.96h-104.4c19.96-49.64,37.87-101.84,52.2-143.8,14.33,41.96,32.24,94.16,52.2,143.8Zm-52.2-178.09c-3.58,0-7.16,2.56-8.19,6.14-21.49,60.9-41.96,120.77-62.94,171.95h-46.57c-4.61,0-8.19,3.58-8.19,8.19s3.58,8.19,8.19,8.19h39.4c-33.78,80.34-67.04,137.15-97.74,137.15s-52.2-33.26-71.13-75.23c-1.54-3.58-4.61-5.12-7.16-5.12-4.61,0-9.21,4.09-9.21,8.7,0,1.02.51,2.56,1.02,3.58,15.86,35.31,40.43,84.44,86.48,84.44,41.45,0,81.88-71.13,116.68-153.52h118.72c34.8,82.39,75.23,153.52,116.68,153.52,17.91,0,29.68-3.58,55.27-29.17,1.54-1.54,2.05-4.09,2.05-6.14s-.51-4.61-2.05-6.14c-2.05-2.05-3.58-2.56-5.63-2.56-10.23,0-20.47,27.63-49.64,27.63-30.7,0-63.97-56.8-97.74-137.15h43.5c4.61,0,8.19-3.58,8.19-8.19s-3.58-8.19-8.19-8.19h-50.66c-61.41-150.96-57.83-178.09-71.13-178.09Z"></path><path class="cls-8" d="m128.42,1738.22h8.61c7.94,0,11.64,2.73,11.64,9.62,0,6.43-2.77,10.12-11.13,10.12h-6.13v13.02h-2.98v-32.77Zm9.28,17.22c6.09,0,7.94-2.69,7.94-7.65,0-5.21-2.6-6.97-8.44-6.97h-5.8v14.62h6.3Z"></path><path class="cls-8" d="m153.28,1749.98h2.6l.29,3.91c1.01-2.14,3.07-4.45,6.76-4.45,1.26,0,2.18.21,3.02.55v3.15c-1.13-.5-2.1-.76-3.4-.76-3.74,0-6.34,2.81-6.34,5.75v12.85h-2.94v-21Z"></path><path class="cls-8" d="m170.58,1738.22h2.98v6.51h-2.98v-6.51Zm0,11.76h2.94v21h-2.94v-21Z"></path><path class="cls-8" d="m180.92,1749.98h2.6l.29,3.49c1.01-2.14,3.28-4.03,7.35-4.03,4.75,0,7.77,2.52,7.77,7.94v13.61h-2.94v-13.27c0-4.33-2.14-5.71-5.5-5.71-3.82,0-6.64,2.69-6.64,5.63v13.36h-2.94v-21Z"></path><path class="cls-8" d="m217.25,1768.29v2.6c-.76.21-2.14.59-4.03.59-3.82,0-6.34-1.6-6.34-6.89v-12.18h-4.16v-2.44h4.16v-6.05l2.94-1.43v7.48h5.92v2.44h-5.92v11.8c0,2.81.76,4.58,3.4,4.58,1.6,0,3.23-.29,4.03-.5Z"></path><path class="cls-8" d="m229.85,1764.55v-1.18h2.94v1.13c0,2.86,2.14,4.5,5.96,4.5s5.8-1.01,5.8-3.78c0-2.06-1.01-2.81-3.86-3.32l-4.62-.84c-3.02-.55-5.54-2.02-5.54-5.5,0-3.15,2.35-6.13,8.4-6.13s8.4,3.02,8.4,7.23v.88h-2.98v-.76c0-3.44-2.14-4.91-5.42-4.91-3.95,0-5.33,1.34-5.33,3.36s1.01,2.86,3.91,3.4l4.03.76c4.12.76,6.09,1.93,6.09,5.59,0,4.58-4.12,6.55-8.78,6.55-7.31,0-8.99-3.28-8.99-6.97Z"></path><path class="cls-8" d="m264.46,1768.29v2.6c-.76.21-2.14.59-4.03.59-3.82,0-6.34-1.6-6.34-6.89v-12.18h-4.16v-2.44h4.16v-6.05l2.94-1.43v7.48h5.92v2.44h-5.92v11.8c0,2.81.76,4.58,3.4,4.58,1.6,0,3.23-.29,4.03-.5Z"></path><path class="cls-8" d="m269.5,1749.98l6.89,17.98h.08l7.14-17.98h3.07v.04l-8.86,20.84-3.11,8.53h-2.98v-.04l3.19-8.36-8.78-20.96v-.04h3.36Z"></path><path class="cls-8" d="m290.87,1738.22h2.94v32.77h-2.94v-32.77Z"></path><path class="cls-8" d="m318.43,1761.49h-15.96c.17,4.79,2.48,7.48,6.93,7.48,3.82,0,5.67-1.43,5.96-4.83h2.98c-.29,4.24-3.28,7.39-9.03,7.39-7.06,0-9.83-4.66-9.83-10.88s3.23-11.22,10-11.22,8.95,3.99,8.95,10.21v1.85Zm-3.11-2.98c0-4.45-1.72-6.55-5.92-6.55s-6.55,2.65-6.89,6.97h12.81v-.42Z"></path><path class="cls-8" d="m335.65,1748.67h-3.36v-5.08c0-3.95.88-5.29,3.4-5.97l.67,1.85c-1.76.67-2.06,1.09-2.06,3.78v.34h1.34v5.08Zm5.92,0h-3.36v-5.08c0-3.95.88-5.29,3.4-5.97l.67,1.85c-1.76.67-2.06,1.09-2.06,3.78v.34h1.34v5.08Z"></path><path class="cls-8" d="m347.11,1762.54v-2.02h3.02v2.18c0,3.74,2.6,6.05,7.94,6.05s8.44-1.97,8.44-6.22c0-3.32-1.39-5.17-4.92-6.09l-6.64-1.72c-4.33-1.13-7.18-2.98-7.18-8.15s3.78-8.91,10.92-8.91,10.59,3.44,10.59,9.07v2.94h-3.02v-2.81c0-4.62-3.07-6.51-7.56-6.51-5.12,0-7.81,2.14-7.81,6.01,0,3.61,1.76,4.7,5.54,5.71l5.75,1.55c5.12,1.39,7.44,3.74,7.44,8.65,0,6.09-4.33,9.24-11.47,9.24-9.12,0-11.05-4.7-11.05-8.99Z"></path><path class="cls-8" d="m373.44,1747.41c1.76-.67,2.06-1.09,2.06-3.78v-.34h-1.34v-5.08h3.36v5.08c0,3.95-.88,5.29-3.4,5.97l-.67-1.85Zm5.92,0c1.76-.67,2.06-1.09,2.06-3.78v-.34h-1.34v-5.08h3.36v5.08c0,3.95-.88,5.29-3.4,5.97l-.67-1.85Z"></path><path class="cls-8" d="m77.96,3421.94h19.49v2.65h-16.55v12.22h14.62v2.6h-14.62v12.6h16.55v2.69h-19.49v-32.77Z"></path><path class="cls-8" d="m119.75,3433.75l-8.07,10.5,8.02,10.42v.04h-3.44l-6.34-8.44-6.43,8.44h-3.28v-.04l8.02-10.38-8.07-10.54v-.04h3.44l6.39,8.49,6.43-8.44v-.04h3.32v.04Z"></path><path class="cls-8" d="m122.6,3448.91c0-3.95,2.23-6.09,7.86-6.09h6.34v-1.72c0-2.98-1.26-5.42-5.46-5.42-3.95,0-5.33,1.51-5.33,4.12v.88h-2.98v-.84c0-5,4.2-6.68,8.32-6.68,5.8,0,8.4,2.86,8.4,8.44v13.11h-2.06l-.55-2.98h-.08c-1.26,1.89-3.7,3.53-7.35,3.53-4.92,0-7.1-2.31-7.1-6.34Zm14.2-1.85v-1.76h-7.02c-2.65,0-4.03.92-4.03,3.61,0,2.35,1.26,3.86,4.5,3.86,4.16,0,6.55-2.14,6.55-5.71Z"></path><path class="cls-8" d="m146.46,3456.52v-.13h3.11v.13c0,2.9,1.93,4.33,6.13,4.33,4.79,0,7.02-2.94,7.02-7.86v-2.1h-.08c-1.09,2.18-3.65,4.08-7.48,4.08-6.3,0-9.75-3.99-9.75-10.71,0-7.1,4.37-11.09,9.96-11.09,3.78,0,6.55,1.81,7.56,4.12h.13l.29-3.57h2.31v19.16c0,5.88-2.81,10.71-10.33,10.71-6.3,0-8.86-2.98-8.86-7.06Zm16.59-12.77c0-5.5-3.36-8.06-7.35-8.06-3.02,0-7.14,1.47-7.14,8.4s3.57,8.32,7.1,8.32c4.24,0,7.39-2.73,7.39-8.65Z"></path><path class="cls-8" d="m172.38,3456.52v-.13h3.11v.13c0,2.9,1.93,4.33,6.13,4.33,4.79,0,7.02-2.94,7.02-7.86v-2.1h-.08c-1.09,2.18-3.65,4.08-7.48,4.08-6.3,0-9.75-3.99-9.75-10.71,0-7.1,4.37-11.09,9.96-11.09,3.78,0,6.55,1.81,7.56,4.12h.13l.29-3.57h2.31v19.16c0,5.88-2.81,10.71-10.33,10.71-6.3,0-8.86-2.98-8.86-7.06Zm16.59-12.77c0-5.5-3.36-8.06-7.35-8.06-3.02,0-7.14,1.47-7.14,8.4s3.57,8.32,7.1,8.32c4.24,0,7.39-2.73,7.39-8.65Z"></path><path class="cls-8" d="m216.18,3445.22h-15.96c.17,4.79,2.48,7.48,6.93,7.48,3.82,0,5.67-1.43,5.96-4.83h2.98c-.29,4.24-3.28,7.39-9.03,7.39-7.06,0-9.83-4.66-9.83-10.88s3.23-11.22,10-11.22,8.95,3.99,8.95,10.21v1.85Zm-3.11-2.98c0-4.45-1.72-6.55-5.92-6.55s-6.55,2.65-6.89,6.97h12.81v-.42Z"></path><path class="cls-8" d="m222.06,3433.71h2.6l.29,3.91c1.01-2.14,3.07-4.45,6.76-4.45,1.26,0,2.18.21,3.02.55v3.15c-1.13-.5-2.1-.76-3.4-.76-3.74,0-6.34,2.81-6.34,5.75v12.86h-2.94v-21Z"></path><path class="cls-8" d="m237.69,3448.91c0-3.95,2.23-6.09,7.86-6.09h6.34v-1.72c0-2.98-1.26-5.42-5.46-5.42-3.95,0-5.33,1.51-5.33,4.12v.88h-2.98v-.84c0-5,4.2-6.68,8.32-6.68,5.8,0,8.4,2.86,8.4,8.44v13.11h-2.06l-.55-2.98h-.08c-1.26,1.89-3.7,3.53-7.35,3.53-4.92,0-7.1-2.31-7.1-6.34Zm14.2-1.85v-1.76h-7.02c-2.65,0-4.03.92-4.03,3.61,0,2.35,1.26,3.86,4.5,3.86,4.16,0,6.55-2.14,6.55-5.71Z"></path><path class="cls-8" d="m272.93,3452.02v2.61c-.76.21-2.14.59-4.03.59-3.82,0-6.34-1.6-6.34-6.89v-12.18h-4.16v-2.44h4.16v-6.05l2.94-1.43v7.48h5.92v2.44h-5.92v11.8c0,2.81.76,4.58,3.4,4.58,1.6,0,3.23-.29,4.03-.5Z"></path><path class="cls-8" d="m294.39,3445.22h-15.96c.17,4.79,2.48,7.48,6.93,7.48,3.82,0,5.67-1.43,5.96-4.83h2.98c-.29,4.24-3.28,7.39-9.03,7.39-7.06,0-9.83-4.66-9.83-10.88s3.23-11.22,10-11.22,8.95,3.99,8.95,10.21v1.85Zm-3.11-2.98c0-4.45-1.72-6.55-5.92-6.55s-6.55,2.65-6.89,6.97h12.81v-.42Z"></path><path class="cls-8" d="m298.58,3444.25c0-7.1,4.28-11.09,10.04-11.09,3.7,0,6.22,1.6,7.31,3.74h.04v-14.95h2.94v32.77h-1.97l-.67-3.61h-.08c-1.18,2.31-3.95,4.16-7.77,4.16-6.3,0-9.83-3.99-9.83-11.01Zm17.64-.5c0-5.5-3.36-8.06-7.35-8.06-3.11,0-7.14,1.47-7.14,8.4s3.61,8.61,7.14,8.61c4.24,0,7.35-2.73,7.35-8.95Z"></path><path class="cls-8" d="m353.19,3445.22h-15.96c.17,4.79,2.48,7.48,6.93,7.48,3.82,0,5.67-1.43,5.96-4.83h2.98c-.29,4.24-3.28,7.39-9.03,7.39-7.06,0-9.83-4.66-9.83-10.88s3.23-11.22,10-11.22,8.95,3.99,8.95,10.21v1.85Zm-3.11-2.98c0-4.45-1.72-6.55-5.92-6.55s-6.55,2.65-6.89,6.97h12.81v-.42Z"></path><path class="cls-8" d="m359.06,3433.71h2.6l.29,3.49c1.01-2.14,3.28-4.03,7.35-4.03,4.75,0,7.77,2.52,7.77,7.94v13.61h-2.94v-13.28c0-4.33-2.14-5.71-5.5-5.71-3.82,0-6.64,2.69-6.64,5.63v13.36h-2.94v-21Z"></path><path class="cls-8" d="m395.4,3452.02v2.61c-.76.21-2.14.59-4.03.59-3.82,0-6.34-1.6-6.34-6.89v-12.18h-4.16v-2.44h4.16v-6.05l2.94-1.43v7.48h5.92v2.44h-5.92v11.8c0,2.81.76,4.58,3.4,4.58,1.6,0,3.23-.29,4.03-.5Z"></path><path class="cls-8" d="m400.23,3433.71h2.6l.29,3.91c1.01-2.14,3.07-4.45,6.76-4.45,1.26,0,2.18.21,3.02.55v3.15c-1.13-.5-2.1-.76-3.4-.76-3.74,0-6.34,2.81-6.34,5.75v12.86h-2.94v-21Z"></path><path class="cls-8" d="m417.74,3433.71l6.89,17.98h.08l7.14-17.98h3.07v.04l-8.86,20.84-3.11,8.53h-2.98v-.04l3.19-8.36-8.78-20.96v-.04h3.36Z"></path><path class="cls-8" d="m446.89,3448.28v-1.18h2.94v1.13c0,2.86,2.14,4.5,5.96,4.5s5.8-1.01,5.8-3.78c0-2.06-1.01-2.81-3.86-3.32l-4.62-.84c-3.02-.55-5.54-2.02-5.54-5.5,0-3.15,2.35-6.13,8.4-6.13s8.4,3.03,8.4,7.23v.88h-2.98v-.76c0-3.44-2.14-4.91-5.42-4.91-3.95,0-5.33,1.34-5.33,3.36s1.01,2.86,3.91,3.4l4.03.76c4.12.76,6.09,1.93,6.09,5.59,0,4.58-4.12,6.55-8.78,6.55-7.31,0-8.99-3.28-8.99-6.97Z"></path><path class="cls-8" d="m481.5,3452.02v2.61c-.76.21-2.14.59-4.03.59-3.82,0-6.34-1.6-6.34-6.89v-12.18h-4.16v-2.44h4.16v-6.05l2.94-1.43v7.48h5.92v2.44h-5.92v11.8c0,2.81.76,4.58,3.4,4.58,1.6,0,3.23-.29,4.03-.5Z"></path><path class="cls-8" d="m486.33,3433.71h2.6l.29,3.91c1.01-2.14,3.07-4.45,6.76-4.45,1.26,0,2.18.21,3.02.55v3.15c-1.13-.5-2.1-.76-3.4-.76-3.74,0-6.34,2.81-6.34,5.75v12.86h-2.94v-21Z"></path><path class="cls-8" d="m501.32,3444.21c0-6.22,3.32-11.05,10.38-11.05,6.6,0,10.25,4.83,10.25,11.05s-3.7,11.05-10.29,11.05c-7.27,0-10.33-4.83-10.33-11.05Zm17.56,0c0-5.34-2.9-8.49-7.23-8.49-4.75,0-7.27,3.15-7.27,8.49s2.56,8.49,7.27,8.49c4.33,0,7.23-3.15,7.23-8.49Z"></path><path class="cls-8" d="m527.19,3421.94h2.94v23.23l12.14-11.47h3.65v.04l-8.4,7.86,8.78,13.06v.04h-3.36l-7.39-11.22-5.42,5.04v6.18h-2.94v-32.77Z"></path><path class="cls-8" d="m567.56,3445.22h-15.96c.17,4.79,2.48,7.48,6.93,7.48,3.82,0,5.67-1.43,5.96-4.83h2.98c-.29,4.24-3.28,7.39-9.03,7.39-7.06,0-9.83-4.66-9.83-10.88s3.23-11.22,10-11.22,8.95,3.99,8.95,10.21v1.85Zm-3.11-2.98c0-4.45-1.72-6.55-5.92-6.55s-6.55,2.65-6.89,6.97h12.81v-.42Z"></path><path class="cls-8" d="m571.54,3448.28v-1.18h2.94v1.13c0,2.86,2.14,4.5,5.96,4.5s5.8-1.01,5.8-3.78c0-2.06-1.01-2.81-3.86-3.32l-4.62-.84c-3.02-.55-5.54-2.02-5.54-5.5,0-3.15,2.35-6.13,8.4-6.13s8.4,3.03,8.4,7.23v.88h-2.98v-.76c0-3.44-2.14-4.91-5.42-4.91-3.95,0-5.33,1.34-5.33,3.36s1.01,2.86,3.91,3.4l4.03.76c4.12.76,6.09,1.93,6.09,5.59,0,4.58-4.12,6.55-8.78,6.55-7.31,0-8.99-3.28-8.99-6.97Z"></path><path class="cls-8" d="m603.59,3448.91c0-3.95,2.23-6.09,7.86-6.09h6.34v-1.72c0-2.98-1.26-5.42-5.46-5.42-3.95,0-5.33,1.51-5.33,4.12v.88h-2.98v-.84c0-5,4.2-6.68,8.32-6.68,5.8,0,8.4,2.86,8.4,8.44v13.11h-2.06l-.55-2.98h-.08c-1.26,1.89-3.7,3.53-7.35,3.53-4.91,0-7.1-2.31-7.1-6.34Zm14.2-1.85v-1.76h-7.02c-2.65,0-4.03.92-4.03,3.61,0,2.35,1.26,3.86,4.5,3.86,4.16,0,6.55-2.14,6.55-5.71Z"></path><path class="cls-8" d="m628.08,3433.71h2.6l.29,3.49c1.01-2.14,3.28-4.03,7.35-4.03,4.75,0,7.77,2.52,7.77,7.94v13.61h-2.94v-13.28c0-4.33-2.14-5.71-5.5-5.71-3.82,0-6.64,2.69-6.64,5.63v13.36h-2.94v-21Z"></path><path class="cls-8" d="m651.76,3444.25c0-7.1,4.28-11.09,10.04-11.09,3.7,0,6.22,1.6,7.31,3.74h.04v-14.95h2.94v32.77h-1.97l-.67-3.61h-.08c-1.18,2.31-3.95,4.16-7.77,4.16-6.3,0-9.83-3.99-9.83-11.01Zm17.64-.5c0-5.5-3.36-8.06-7.35-8.06-3.11,0-7.14,1.47-7.14,8.4s3.61,8.61,7.14,8.61c4.24,0,7.35-2.73,7.35-8.95Z"></path><path class="cls-8" d="m686.16,3433.71h4.16v-5.42c0-5.29,3.15-6.89,6.38-6.89,1.85,0,2.98.29,3.74.55v2.6c-.71-.21-1.89-.46-3.49-.46-2.65,0-3.7,1.76-3.7,4.58v5.04h14.07v21h-2.94v-18.57h-11.13v18.57h-2.94v-18.57h-4.16v-2.44Zm18.23-11.76h2.98v6.51h-2.98v-6.51Z"></path><path class="cls-8" d="m714.72,3433.71h2.6l.29,3.49c1.01-2.14,3.28-4.03,7.35-4.03,4.75,0,7.77,2.52,7.77,7.94v13.61h-2.94v-13.28c0-4.33-2.14-5.71-5.5-5.71-3.82,0-6.64,2.69-6.64,5.63v13.36h-2.94v-21Z"></path><path class="cls-8" d="m740.09,3421.94h2.98v6.51h-2.98v-6.51Zm0,11.76h2.94v21h-2.94v-21Z"></path><path class="cls-8" d="m749.16,3448.91c0-3.95,2.23-6.09,7.86-6.09h6.34v-1.72c0-2.98-1.26-5.42-5.46-5.42-3.95,0-5.33,1.51-5.33,4.12v.88h-2.98v-.84c0-5,4.2-6.68,8.32-6.68,5.8,0,8.4,2.86,8.4,8.44v13.11h-2.06l-.55-2.98h-.08c-1.26,1.89-3.7,3.53-7.35,3.53-4.91,0-7.1-2.31-7.1-6.34Zm14.2-1.85v-1.76h-7.02c-2.65,0-4.03.92-4.03,3.61,0,2.35,1.26,3.86,4.5,3.86,4.16,0,6.55-2.14,6.55-5.71Z"></path><path class="cls-8" d="m773.65,3421.94h2.94v32.77h-2.94v-32.77Z"></path><path class="cls-8" d="m782.05,3448.28v-1.18h2.94v1.13c0,2.86,2.14,4.5,5.96,4.5s5.8-1.01,5.8-3.78c0-2.06-1.01-2.81-3.86-3.32l-4.62-.84c-3.02-.55-5.54-2.02-5.54-5.5,0-3.15,2.35-6.13,8.4-6.13s8.4,3.03,8.4,7.23v.88h-2.98v-.76c0-3.44-2.14-4.91-5.42-4.91-3.95,0-5.33,1.34-5.33,3.36s1.01,2.86,3.91,3.4l4.03.76c4.12.76,6.09,1.93,6.09,5.59,0,4.58-4.12,6.55-8.78,6.55-7.31,0-8.99-3.28-8.99-6.97Z"></path><path class="cls-8" d="m815.35,3421.94h2.98v6.51h-2.98v-6.51Zm0,11.76h2.94v21h-2.94v-21Z"></path><path class="cls-8" d="m825.69,3433.71h2.6l.29,3.49c1.01-2.14,3.28-4.03,7.35-4.03,4.75,0,7.77,2.52,7.77,7.94v13.61h-2.94v-13.28c0-4.33-2.14-5.71-5.5-5.71-3.82,0-6.64,2.69-6.64,5.63v13.36h-2.94v-21Z"></path><path class="cls-8" d="m862.39,3432.4h-3.36v-5.08c0-3.95.88-5.29,3.4-5.97l.67,1.85c-1.76.67-2.06,1.09-2.06,3.78v.34h1.34v5.08Zm5.92,0h-3.36v-5.08c0-3.95.88-5.29,3.4-5.97l.67,1.85c-1.76.67-2.06,1.09-2.06,3.78v.34h1.34v5.08Z"></path><path class="cls-8" d="m890.45,3444.38h-13.99l-3.74,10.33h-3.07l12.18-32.77h3.32l12.1,32.77h-3.07l-3.74-10.33Zm-.92-2.61l-6.05-16.8h-.04l-6.05,16.8h12.14Z"></path><path class="cls-8" d="m897.88,3431.14c1.76-.67,2.06-1.09,2.06-3.78v-.34h-1.34v-5.08h3.36v5.08c0,3.95-.88,5.29-3.4,5.96l-.67-1.85Zm5.92,0c1.76-.67,2.06-1.09,2.06-3.78v-.34h-1.34v-5.08h3.36v5.08c0,3.95-.88,5.29-3.4,5.96l-.67-1.85Z"></path><path class="cls-8" d="m910.82,3448.49h3.36v6.22c0,3.95-.88,5.29-3.4,5.96l-.67-1.85c1.76-.67,2.06-1.09,2.06-3.78v-.34h-1.34v-6.22Z"></path><path class="cls-8" d="m931.82,3432.4h-3.36v-5.08c0-3.95.88-5.29,3.4-5.97l.67,1.85c-1.76.67-2.06,1.09-2.06,3.78v.34h1.34v5.08Zm5.92,0h-3.36v-5.08c0-3.95.88-5.29,3.4-5.97l.67,1.85c-1.76.67-2.06,1.09-2.06,3.78v.34h1.34v5.08Z"></path><path class="cls-8" d="m945.18,3421.94h9.33c6.85,0,10,2.52,10,8.06,0,3.4-1.97,6.64-5.25,7.39v.08c3.78.55,6.85,2.73,6.85,7.9,0,6.3-3.23,9.33-11.72,9.33h-9.2v-32.77Zm8.86,14.53c6.13,0,7.44-2.9,7.44-6.51,0-3.87-2.06-5.42-7.48-5.42h-5.84v11.93h5.88Zm.13,15.63c6.47,0,8.86-1.68,8.86-6.72,0-4.12-1.97-6.38-9.03-6.38h-5.84v13.11h6.01Z"></path><path class="cls-8" d="m969.87,3431.14c1.76-.67,2.06-1.09,2.06-3.78v-.34h-1.34v-5.08h3.36v5.08c0,3.95-.88,5.29-3.4,5.96l-.67-1.85Zm5.92,0c1.76-.67,2.06-1.09,2.06-3.78v-.34h-1.34v-5.08h3.36v5.08c0,3.95-.88,5.29-3.4,5.96l-.67-1.85Z"></path><path class="cls-8" d="m982.81,3448.49h3.36v6.22c0,3.95-.88,5.29-3.4,5.96l-.67-1.85c1.76-.67,2.06-1.09,2.06-3.78v-.34h-1.34v-6.22Z"></path><path class="cls-8" d="m1003.81,3432.4h-3.36v-5.08c0-3.95.88-5.29,3.4-5.97l.67,1.85c-1.76.67-2.06,1.09-2.06,3.78v.34h1.34v5.08Zm5.92,0h-3.36v-5.08c0-3.95.88-5.29,3.4-5.97l.67,1.85c-1.76.67-2.06,1.09-2.06,3.78v.34h1.34v5.08Z"></path><path class="cls-8" d="m1017.16,3421.94h3.15l17.69,27.6h.04v-27.6h2.94v32.77h-3.07l-17.77-27.94h-.04v27.94h-2.94v-32.77Z"></path><path class="cls-8" d="m1047.7,3431.14c1.76-.67,2.06-1.09,2.06-3.78v-.34h-1.34v-5.08h3.36v5.08c0,3.95-.88,5.29-3.4,5.96l-.67-1.85Zm5.92,0c1.76-.67,2.06-1.09,2.06-3.78v-.34h-1.34v-5.08h3.36v5.08c0,3.95-.88,5.29-3.4,5.96l-.67-1.85Z"></path><g class="cls-7"><path class="cls-11" d="m377.45,2788.19c-3.58,0-7.16,2.56-8.19,6.14-21.49,60.9-41.96,120.77-62.94,171.95h-46.57c-4.61,0-8.19,3.58-8.19,8.19s3.58,8.19,8.19,8.19h39.4c-33.78,80.34-67.04,137.15-97.74,137.15s-52.2-33.26-71.13-75.23c-1.54-3.58-4.61-5.12-7.16-5.12-4.61,0-9.21,4.09-9.21,8.7,0,1.02.51,2.56,1.02,3.58,15.86,35.31,40.43,84.44,86.48,84.44,41.45,0,81.88-71.13,116.68-153.52h118.72c34.8,82.39,75.23,153.52,116.68,153.52,17.91,0,29.68-3.58,55.27-29.17,1.54-1.54,2.05-4.09,2.05-6.14s-.51-4.61-2.05-6.14c-2.05-2.05-3.58-2.56-5.63-2.56-10.23,0-20.47,27.63-49.64,27.63-30.7,0-63.97-56.8-97.74-137.15h43.5c4.61,0,8.19-3.58,8.19-8.19s-3.58-8.19-8.19-8.19h-50.66c-61.41-150.96-57.83-178.09-71.13-178.09Z"></path></g><line class="cls-5" x1="362.35" y1="3396.85" x2="362.35" y2="3231.65"></line><line class="cls-5" x1="626.59" y1="2061.07" x2="626.59" y2="1796.23"></line><line class="cls-5" x1="1389.01" y1="2060.07" x2="1507.55" y2="1796.23"></line><line class="cls-5" x1="1112.27" y1="1703.38" x2="1112.27" y2="1427.7"></line><line class="cls-5" x1="879.77" y1="2510.62" x2="879.77" y2="2468.72"></line><line class="cls-5" x1="1664.02" y1="3396.85" x2="1664.02" y2="3145.42"></line><path class="cls-9" d="m413.35,2255.94c-38.22,0-66.76-35.67-81.54-63.7-1.53-3.06-4.59-4.59-7.13-4.59-4.59,0-9.17,4.08-9.17,8.66,0,1.02.51,2.55,1.02,4.08,5.1,9.68,38.73,71.85,96.83,71.85,51.47,0,97.34-36.69,97.34-92.75,0-65.74-45.86-99.88-97.34-99.88-41.28,0-81.03-22.42-81.03-60.13,0-41.28,27.52-76.44,73.38-76.44,51.98,0,61.15,24.97,78.48,57.08,1.53,3.06,4.08,4.59,6.62,4.59,4.59,0,9.17-4.08,9.17-8.66,0-1.02-1.02-2.55-1.53-4.08-17.33-32.11-30.07-65.23-92.75-65.23-54.53,0-89.69,41.28-89.69,92.75s50.45,77.46,97.34,77.46c41.79,0,81.03,25.99,81.03,82.56,0,45.36-37.71,76.44-81.03,76.44Z"></path><path class="cls-8" d="m988.91,1737.67h8.61c7.94,0,11.64,2.44,11.64,8.86,0,4.58-2.18,7.98-6.76,9.33l7.85,14.53v.04h-3.32l-7.35-14.03c-.67.04-1.34.08-2.1.08h-5.59v13.95h-2.98v-32.77Zm8.74,16.3c6.09,0,8.49-2.81,8.49-7.31,0-4.75-2.6-6.38-8.44-6.38h-5.8v13.69h5.75Z"></path><path class="cls-8" d="m1013.39,1759.93c0-6.22,3.32-11.05,10.38-11.05,6.6,0,10.25,4.83,10.25,11.05s-3.7,11.05-10.29,11.05c-7.27,0-10.33-4.83-10.33-11.05Zm17.56,0c0-5.33-2.9-8.49-7.23-8.49-4.75,0-7.27,3.15-7.27,8.49s2.56,8.49,7.27,8.49c4.33,0,7.23-3.15,7.23-8.49Z"></path><path class="cls-8" d="m1039.47,1763.04v-13.61h2.94v13.27c0,4.33,2.14,5.71,5.42,5.71,3.74,0,6.55-2.69,6.55-5.63v-13.36h2.94v21h-2.6l-.25-3.36h-.08c-.97,2.02-3.23,3.91-7.23,3.91-4.66,0-7.69-2.52-7.69-7.94Z"></path><path class="cls-8" d="m1064.67,1749.43h2.6l.29,3.49c1.01-2.14,3.28-4.03,7.35-4.03,4.75,0,7.77,2.52,7.77,7.94v13.61h-2.94v-13.27c0-4.33-2.14-5.71-5.5-5.71-3.82,0-6.64,2.69-6.64,5.63v13.36h-2.94v-21Z"></path><path class="cls-8" d="m1088.36,1759.98c0-7.1,4.28-11.09,10.04-11.09,3.7,0,6.22,1.6,7.31,3.74h.04v-14.95h2.94v32.77h-1.97l-.67-3.61h-.08c-1.18,2.31-3.95,4.16-7.77,4.16-6.3,0-9.83-3.99-9.83-11.01Zm17.64-.5c0-5.5-3.36-8.07-7.35-8.07-3.11,0-7.14,1.47-7.14,8.4s3.61,8.61,7.14,8.61c4.24,0,7.35-2.73,7.35-8.95Z"></path><path class="cls-8" d="m1128.51,1766.95h-.08l-.76,3.49h-1.97v-32.77h2.94v15.25h.04c1.26-2.31,4.07-4.03,7.69-4.03,6.3,0,9.66,3.99,9.66,11.01s-4.28,11.09-9.87,11.09c-3.78,0-6.55-1.64-7.65-4.03Zm14.37-6.89c0-7.18-3.4-8.61-6.93-8.61-4.24,0-7.56,2.73-7.56,8.44,0,6.01,3.44,8.57,7.44,8.57,3.02,0,7.06-1.47,7.06-8.4Z"></path><path class="cls-8" d="m1150.23,1759.93c0-6.22,3.32-11.05,10.38-11.05,6.6,0,10.25,4.83,10.25,11.05s-3.7,11.05-10.29,11.05c-7.27,0-10.33-4.83-10.33-11.05Zm17.56,0c0-5.33-2.9-8.49-7.23-8.49-4.75,0-7.27,3.15-7.27,8.49s2.56,8.49,7.27,8.49c4.33,0,7.23-3.15,7.23-8.49Z"></path><path class="cls-8" d="m1173.16,1749.47v-.04h2.98l5.75,17.48h.08l6.3-17.48h2.69l6.18,17.48h.08l5.75-17.48h2.86v.04l-7.18,20.96h-3.02l-5.97-17.06h-.08l-6.22,17.06h-3.02l-7.18-20.96Z"></path><path class="cls-8" d="m1210.67,1737.67h2.94v32.77h-2.94v-32.77Z"></path><path class="cls-8" d="m1219.07,1764.01v-1.18h2.94v1.13c0,2.86,2.14,4.5,5.96,4.5s5.8-1.01,5.8-3.78c0-2.06-1.01-2.81-3.86-3.32l-4.62-.84c-3.02-.55-5.54-2.02-5.54-5.5,0-3.15,2.35-6.13,8.4-6.13s8.4,3.02,8.4,7.23v.88h-2.98v-.76c0-3.44-2.14-4.91-5.42-4.91-3.95,0-5.33,1.34-5.33,3.36s1.01,2.86,3.91,3.4l4.03.76c4.12.76,6.09,1.93,6.09,5.59,0,4.58-4.12,6.55-8.78,6.55-7.31,0-8.99-3.28-8.99-6.97Z"></path><path class="cls-8" d="m545.28,1738.22h2.94v32.77h-2.94v-32.77Z"></path><path class="cls-8" d="m567.79,1768.29v2.6c-.76.21-2.14.59-4.03.59-3.82,0-6.34-1.6-6.34-6.89v-12.18h-4.16v-2.44h4.16v-6.05l2.94-1.43v7.48h5.92v2.44h-5.92v11.8c0,2.81.76,4.58,3.4,4.58,1.6,0,3.23-.29,4.03-.5Z"></path><path class="cls-8" d="m571.36,1765.18c0-3.95,2.23-6.09,7.86-6.09h6.34v-1.72c0-2.98-1.26-5.42-5.46-5.42-3.95,0-5.33,1.51-5.33,4.12v.88h-2.98v-.84c0-5,4.2-6.68,8.32-6.68,5.8,0,8.4,2.86,8.4,8.44v13.11h-2.06l-.55-2.98h-.08c-1.26,1.89-3.7,3.53-7.35,3.53-4.92,0-7.1-2.31-7.1-6.34Zm14.2-1.85v-1.76h-7.02c-2.65,0-4.03.92-4.03,3.61,0,2.35,1.26,3.86,4.5,3.86,4.16,0,6.55-2.14,6.55-5.71Z"></path><path class="cls-8" d="m595.85,1738.22h2.94v32.77h-2.94v-32.77Z"></path><path class="cls-8" d="m606.14,1738.22h2.98v6.51h-2.98v-6.51Zm0,11.76h2.94v21h-2.94v-21Z"></path><path class="cls-8" d="m614.79,1760.65c0-6.38,3.23-11.22,10-11.22s8.95,3.91,8.95,8.95v.42h-3.11v-.63c0-3.82-1.64-6.09-5.84-6.09-4.75,0-7.02,3.11-7.02,8.4,0,5.63,2.39,8.49,6.93,8.49,3.82,0,5.84-1.85,5.92-5.67h3.02c-.08,4.66-3.15,8.23-9.03,8.23-7.23,0-9.83-4.75-9.83-10.88Z"></path><path class="cls-8" d="m647.38,1764.55v-1.18h2.94v1.13c0,2.86,2.14,4.5,5.96,4.5s5.8-1.01,5.8-3.78c0-2.06-1.01-2.81-3.86-3.32l-4.62-.84c-3.02-.55-5.54-2.02-5.54-5.5,0-3.15,2.35-6.13,8.4-6.13s8.4,3.02,8.4,7.22v.88h-2.98v-.76c0-3.44-2.14-4.91-5.42-4.91-3.95,0-5.33,1.34-5.33,3.36s1.01,2.86,3.91,3.4l4.03.76c4.12.76,6.09,1.93,6.09,5.59,0,4.58-4.12,6.55-8.78,6.55-7.31,0-8.99-3.28-8.99-6.97Z"></path><path class="cls-8" d="m681.99,1768.29v2.6c-.76.21-2.14.59-4.03.59-3.82,0-6.34-1.6-6.34-6.89v-12.18h-4.16v-2.44h4.16v-6.05l2.94-1.43v7.48h5.92v2.44h-5.92v11.8c0,2.81.76,4.58,3.4,4.58,1.6,0,3.23-.29,4.03-.5Z"></path><path class="cls-8" d="m687.03,1749.98l6.89,17.98h.08l7.14-17.98h3.07v.04l-8.86,20.84-3.11,8.53h-2.98v-.04l3.19-8.36-8.78-20.96v-.04h3.36Z"></path><path class="cls-8" d="m708.41,1738.22h2.94v32.77h-2.94v-32.77Z"></path><path class="cls-8" d="m735.96,1761.49h-15.96c.17,4.79,2.48,7.48,6.93,7.48,3.82,0,5.67-1.43,5.96-4.83h2.98c-.29,4.24-3.28,7.39-9.03,7.39-7.06,0-9.83-4.66-9.83-10.88s3.23-11.22,10-11.22,8.95,3.99,8.95,10.21v1.85Zm-3.11-2.98c0-4.45-1.72-6.55-5.92-6.55s-6.55,2.65-6.89,6.97h12.81v-.42Z"></path><path class="cls-8" d="m753.18,1748.67h-3.36v-5.08c0-3.95.88-5.29,3.4-5.97l.67,1.85c-1.76.67-2.06,1.09-2.06,3.78v.34h1.34v5.08Zm5.92,0h-3.36v-5.08c0-3.95.88-5.29,3.4-5.97l.67,1.85c-1.76.67-2.06,1.09-2.06,3.78v.34h1.34v5.08Z"></path><path class="cls-8" d="m763.17,1768.42l14.7-15.88h-14.58v-2.56h18.23v2.56l-14.7,15.84h14.66v2.6h-18.32v-2.56Z"></path><path class="cls-8" d="m784.89,1747.41c1.76-.67,2.06-1.09,2.06-3.78v-.34h-1.34v-5.08h3.36v5.08c0,3.95-.88,5.29-3.4,5.97l-.67-1.85Zm5.92,0c1.76-.67,2.06-1.09,2.06-3.78v-.34h-1.34v-5.08h3.36v5.08c0,3.95-.88,5.29-3.4,5.97l-.67-1.85Z"></path><path class="cls-8" d="m1452.95,3426.55h-11.51v-2.6h25.96v2.6h-11.51v30.16h-2.94v-30.16Z"></path><path class="cls-8" d="m1466.13,3450.91c0-3.95,2.23-6.09,7.86-6.09h6.34v-1.72c0-2.98-1.26-5.42-5.46-5.42-3.95,0-5.33,1.51-5.33,4.12v.88h-2.98v-.84c0-5,4.2-6.68,8.32-6.68,5.8,0,8.4,2.86,8.4,8.44v13.11h-2.06l-.55-2.98h-.08c-1.26,1.89-3.7,3.53-7.35,3.53-4.92,0-7.1-2.31-7.1-6.34Zm14.2-1.85v-1.76h-7.02c-2.65,0-4.03.92-4.03,3.61,0,2.35,1.26,3.87,4.5,3.87,4.16,0,6.55-2.14,6.55-5.71Z"></path><path class="cls-8" d="m1490.62,3423.94h2.94v32.77h-2.94v-32.77Z"></path><path class="cls-8" d="m1500.91,3423.94h2.94v32.77h-2.94v-32.77Z"></path><path class="cls-8" d="m1519.6,3450.91c0-3.95,2.23-6.09,7.86-6.09h6.34v-1.72c0-2.98-1.26-5.42-5.46-5.42-3.95,0-5.33,1.51-5.33,4.12v.88h-2.98v-.84c0-5,4.2-6.68,8.32-6.68,5.8,0,8.4,2.86,8.4,8.44v13.11h-2.06l-.55-2.98h-.08c-1.26,1.89-3.7,3.53-7.35,3.53-4.92,0-7.1-2.31-7.1-6.34Zm14.2-1.85v-1.76h-7.02c-2.65,0-4.03.92-4.03,3.61,0,2.35,1.26,3.87,4.5,3.87,4.16,0,6.55-2.14,6.55-5.71Z"></path><path class="cls-8" d="m1542.19,3450.28v-1.18h2.94v1.13c0,2.86,2.14,4.5,5.96,4.5s5.8-1.01,5.8-3.78c0-2.06-1.01-2.81-3.86-3.32l-4.62-.84c-3.02-.55-5.54-2.02-5.54-5.5,0-3.15,2.35-6.13,8.4-6.13s8.4,3.02,8.4,7.23v.88h-2.98v-.76c0-3.44-2.14-4.92-5.42-4.92-3.95,0-5.33,1.34-5.33,3.36s1.01,2.86,3.91,3.4l4.03.76c4.12.76,6.09,1.93,6.09,5.59,0,4.58-4.12,6.55-8.78,6.55-7.31,0-8.99-3.28-8.99-6.97Z"></path><path class="cls-8" d="m1564.16,3446.38c0-6.38,3.23-11.22,10-11.22s8.95,3.91,8.95,8.95v.42h-3.11v-.63c0-3.82-1.64-6.09-5.84-6.09-4.75,0-7.02,3.11-7.02,8.4,0,5.63,2.39,8.49,6.93,8.49,3.82,0,5.84-1.85,5.92-5.67h3.02c-.08,4.66-3.15,8.23-9.03,8.23-7.23,0-9.83-4.75-9.83-10.88Z"></path><path class="cls-8" d="m1606.25,3447.22h-15.96c.17,4.79,2.48,7.48,6.93,7.48,3.82,0,5.67-1.43,5.96-4.83h2.98c-.29,4.24-3.28,7.39-9.03,7.39-7.06,0-9.83-4.66-9.83-10.88s3.23-11.22,10-11.22,8.95,3.99,8.95,10.21v1.85Zm-3.11-2.98c0-4.45-1.72-6.55-5.92-6.55s-6.55,2.65-6.89,6.97h12.81v-.42Z"></path><path class="cls-8" d="m1612.13,3435.71h2.6l.29,3.49c1.01-2.14,3.28-4.03,7.35-4.03,4.75,0,7.77,2.52,7.77,7.94v13.61h-2.94v-13.27c0-4.33-2.14-5.71-5.5-5.71-3.82,0-6.64,2.69-6.64,5.63v13.36h-2.94v-21Z"></path><path class="cls-8" d="m1635.81,3446.25c0-7.1,4.28-11.09,10.04-11.09,3.7,0,6.22,1.6,7.31,3.74h.04v-14.96h2.94v32.77h-1.97l-.67-3.61h-.08c-1.18,2.31-3.95,4.16-7.77,4.16-6.3,0-9.83-3.99-9.83-11.01Zm17.64-.5c0-5.5-3.36-8.07-7.35-8.07-3.11,0-7.14,1.47-7.14,8.4s3.61,8.61,7.14,8.61c4.24,0,7.35-2.73,7.35-8.95Z"></path><path class="cls-8" d="m1680.76,3447.22h-15.96c.17,4.79,2.48,7.48,6.93,7.48,3.82,0,5.67-1.43,5.96-4.83h2.98c-.29,4.24-3.28,7.39-9.03,7.39-7.06,0-9.83-4.66-9.83-10.88s3.23-11.22,10-11.22,8.95,3.99,8.95,10.21v1.85Zm-3.11-2.98c0-4.45-1.72-6.55-5.92-6.55s-6.55,2.65-6.89,6.97h12.81v-.42Z"></path><path class="cls-8" d="m1686.63,3435.71h2.6l.29,3.91c1.01-2.14,3.07-4.45,6.76-4.45,1.26,0,2.18.21,3.02.55v3.15c-1.13-.5-2.1-.76-3.4-.76-3.74,0-6.34,2.81-6.34,5.75v12.85h-2.94v-21Z"></path><path class="cls-8" d="m1713.6,3423.94h2.98v6.51h-2.98v-6.51Zm0,11.76h2.94v21h-2.94v-21Z"></path><path class="cls-8" d="m1723.93,3435.71h2.6l.29,3.49c1.01-2.14,3.28-4.03,7.35-4.03,4.75,0,7.77,2.52,7.77,7.94v13.61h-2.94v-13.27c0-4.33-2.14-5.71-5.5-5.71-3.82,0-6.64,2.69-6.64,5.63v13.36h-2.94v-21Z"></path><path class="cls-8" d="m1760.64,3434.4h-3.36v-5.08c0-3.95.88-5.29,3.4-5.96l.67,1.85c-1.76.67-2.06,1.09-2.06,3.78v.34h1.34v5.08Zm5.92,0h-3.36v-5.08c0-3.95.88-5.29,3.4-5.96l.67,1.85c-1.76.67-2.06,1.09-2.06,3.78v.34h1.34v5.08Z"></path><path class="cls-8" d="m1783.91,3454.02v2.6c-.76.21-2.14.59-4.03.59-3.82,0-6.34-1.6-6.34-6.89v-12.18h-4.16v-2.44h4.16v-6.05l2.94-1.43v7.48h5.92v2.44h-5.92v11.8c0,2.81.76,4.58,3.4,4.58,1.6,0,3.23-.29,4.03-.5Z"></path><path class="cls-8" d="m1785.79,3433.14c1.76-.67,2.06-1.09,2.06-3.78v-.34h-1.34v-5.08h3.36v5.08c0,3.95-.88,5.29-3.4,5.96l-.67-1.85Zm5.92,0c1.76-.67,2.06-1.09,2.06-3.78v-.34h-1.34v-5.08h3.36v5.08c0,3.95-.88,5.29-3.4,5.96l-.67-1.85Z"></path><path class="cls-8" d="m627.63,2543.45h-3.36v-5.08c0-3.95.88-5.29,3.4-5.96l.67,1.85c-1.76.67-2.06,1.09-2.06,3.78v.34h1.34v5.08Zm5.92,0h-3.36v-5.08c0-3.95.88-5.29,3.4-5.96l.67,1.85c-1.76.67-2.06,1.09-2.06,3.78v.34h1.34v5.08Z"></path><path class="cls-8" d="m643.68,2539.71v5.04h5.92v2.44h-5.92v18.57h-2.94v-18.57h-4.16v-2.44h4.16v-5.42c0-5.29,3.15-6.89,6.38-6.89,1.85,0,2.98.29,3.74.55v2.6c-.71-.21-1.89-.46-3.49-.46-2.65,0-3.7,1.76-3.7,4.58Z"></path><path class="cls-8" d="m654.22,2542.19c1.76-.67,2.06-1.09,2.06-3.78v-.34h-1.34v-5.08h3.36v5.08c0,3.95-.88,5.29-3.4,5.97l-.67-1.85Zm5.92,0c1.76-.67,2.06-1.09,2.06-3.78v-.34h-1.34v-5.08h3.36v5.08c0,3.95-.88,5.29-3.4,5.97l-.67-1.85Z"></path><path class="cls-8" d="m677.03,2544.79v-.04h2.98l5.75,17.47h.08l6.3-17.47h2.69l6.18,17.47h.08l5.75-17.47h2.86v.04l-7.18,20.96h-3.02l-5.96-17.05h-.08l-6.22,17.05h-3.02l-7.18-20.96Z"></path><path class="cls-8" d="m714.53,2532.99h2.98v6.51h-2.98v-6.51Zm0,11.76h2.94v21h-2.94v-21Z"></path><path class="cls-8" d="m735.83,2563.06v2.6c-.76.21-2.14.59-4.03.59-3.82,0-6.34-1.6-6.34-6.89v-12.18h-4.16v-2.44h4.16v-6.05l2.94-1.43v7.48h5.92v2.44h-5.92v11.8c0,2.81.76,4.58,3.4,4.58,1.6,0,3.23-.29,4.03-.5Z"></path><path class="cls-8" d="m740.66,2532.99h2.94v15.16c1.05-2.1,3.28-3.95,7.31-3.95,4.75,0,7.77,2.52,7.77,7.94v13.61h-2.94v-13.27c0-4.33-2.14-5.71-5.5-5.71-3.82,0-6.64,2.69-6.64,5.63v13.36h-2.94v-32.77Z"></path><path class="cls-8" d="m775.68,2544.75h2.6l.29,3.49c1.01-2.14,3.28-4.03,7.35-4.03,4.75,0,7.77,2.52,7.77,7.94v13.61h-2.94v-13.27c0-4.33-2.14-5.71-5.5-5.71-3.82,0-6.64,2.69-6.64,5.63v13.36h-2.94v-21Z"></path><path class="cls-8" d="m799.37,2555.25c0-6.22,3.32-11.05,10.38-11.05,6.6,0,10.25,4.83,10.25,11.05s-3.7,11.05-10.29,11.05c-7.27,0-10.33-4.83-10.33-11.05Zm17.56,0c0-5.33-2.9-8.49-7.23-8.49-4.75,0-7.27,3.15-7.27,8.49s2.56,8.49,7.27,8.49c4.33,0,7.23-3.15,7.23-8.49Z"></path><path class="cls-8" d="m833.85,2555.29c0-7.1,4.29-11.09,10.04-11.09,3.7,0,6.22,1.6,7.31,3.74h.04v-14.96h2.94v32.77h-1.97l-.67-3.61h-.08c-1.18,2.31-3.95,4.16-7.77,4.16-6.3,0-9.83-3.99-9.83-11.01Zm17.64-.5c0-5.5-3.36-8.07-7.35-8.07-3.11,0-7.14,1.47-7.14,8.4s3.61,8.61,7.14,8.61c4.24,0,7.35-2.73,7.35-8.95Z"></path><path class="cls-8" d="m878.8,2556.26h-15.96c.17,4.79,2.48,7.48,6.93,7.48,3.82,0,5.67-1.43,5.96-4.83h2.98c-.29,4.24-3.28,7.39-9.03,7.39-7.06,0-9.83-4.66-9.83-10.88s3.23-11.22,10-11.22,8.95,3.99,8.95,10.21v1.85Zm-3.11-2.98c0-4.45-1.72-6.55-5.92-6.55s-6.55,2.65-6.89,6.97h12.81v-.42Z"></path><path class="cls-8" d="m882.78,2559.33v-1.18h2.94v1.13c0,2.86,2.14,4.49,5.96,4.49s5.8-1.01,5.8-3.78c0-2.06-1.01-2.81-3.87-3.32l-4.62-.84c-3.02-.55-5.54-2.02-5.54-5.5,0-3.15,2.35-6.13,8.4-6.13s8.4,3.02,8.4,7.23v.88h-2.98v-.76c0-3.44-2.14-4.91-5.42-4.91-3.95,0-5.33,1.34-5.33,3.36s1.01,2.86,3.91,3.4l4.03.76c4.12.76,6.09,1.93,6.09,5.59,0,4.58-4.12,6.55-8.78,6.55-7.31,0-8.99-3.28-8.99-6.97Z"></path><path class="cls-8" d="m904.75,2555.42c0-6.38,3.23-11.22,10-11.22s8.95,3.91,8.95,8.95v.42h-3.11v-.63c0-3.82-1.64-6.09-5.84-6.09-4.75,0-7.01,3.11-7.01,8.4,0,5.63,2.39,8.49,6.93,8.49,3.82,0,5.84-1.85,5.92-5.67h3.03c-.08,4.66-3.15,8.23-9.03,8.23-7.23,0-9.83-4.75-9.83-10.88Z"></path><path class="cls-8" d="m946.84,2556.26h-15.96c.17,4.79,2.48,7.48,6.93,7.48,3.82,0,5.67-1.43,5.96-4.83h2.98c-.29,4.24-3.28,7.39-9.03,7.39-7.06,0-9.83-4.66-9.83-10.88s3.23-11.22,10-11.22,8.95,3.99,8.95,10.21v1.85Zm-3.11-2.98c0-4.45-1.72-6.55-5.92-6.55s-6.55,2.65-6.89,6.97h12.81v-.42Z"></path><path class="cls-8" d="m952.71,2544.75h2.6l.29,3.49c1.01-2.14,3.28-4.03,7.35-4.03,4.75,0,7.77,2.52,7.77,7.94v13.61h-2.94v-13.27c0-4.33-2.14-5.71-5.5-5.71-3.82,0-6.64,2.69-6.64,5.63v13.36h-2.94v-21Z"></path><path class="cls-8" d="m976.4,2555.29c0-7.1,4.29-11.09,10.04-11.09,3.7,0,6.22,1.6,7.31,3.74h.04v-14.96h2.94v32.77h-1.97l-.67-3.61h-.08c-1.18,2.31-3.95,4.16-7.77,4.16-6.3,0-9.83-3.99-9.83-11.01Zm17.64-.5c0-5.5-3.36-8.07-7.35-8.07-3.11,0-7.14,1.47-7.14,8.4s3.61,8.61,7.14,8.61c4.24,0,7.35-2.73,7.35-8.95Z"></path><path class="cls-8" d="m1021.35,2556.26h-15.96c.17,4.79,2.48,7.48,6.93,7.48,3.82,0,5.67-1.43,5.96-4.83h2.98c-.29,4.24-3.28,7.39-9.03,7.39-7.06,0-9.83-4.66-9.83-10.88s3.23-11.22,10-11.22,8.95,3.99,8.95,10.21v1.85Zm-3.11-2.98c0-4.45-1.72-6.55-5.92-6.55s-6.55,2.65-6.89,6.97h12.81v-.42Z"></path><path class="cls-8" d="m1027.22,2544.75h2.6l.29,3.91c1.01-2.14,3.07-4.45,6.76-4.45,1.26,0,2.18.21,3.02.55v3.15c-1.13-.5-2.1-.76-3.4-.76-3.74,0-6.34,2.81-6.34,5.75v12.85h-2.94v-21Z"></path><path class="cls-8" d="m1054.19,2532.99h2.94v32.77h-2.94v-32.77Z"></path><path class="cls-8" d="m1062.8,2555.25c0-6.22,3.32-11.05,10.38-11.05,6.6,0,10.25,4.83,10.25,11.05s-3.7,11.05-10.29,11.05c-7.27,0-10.33-4.83-10.33-11.05Zm17.56,0c0-5.33-2.9-8.49-7.23-8.49-4.75,0-7.27,3.15-7.27,8.49s2.56,8.49,7.27,8.49c4.33,0,7.23-3.15,7.23-8.49Z"></path><path class="cls-8" d="m1087.62,2555.25c0-6.22,3.32-11.05,10.38-11.05,6.59,0,10.25,4.83,10.25,11.05s-3.7,11.05-10.29,11.05c-7.27,0-10.33-4.83-10.33-11.05Zm17.56,0c0-5.33-2.9-8.49-7.23-8.49-4.75,0-7.27,3.15-7.27,8.49s2.56,8.49,7.27,8.49c4.33,0,7.23-3.15,7.23-8.49Z"></path><path class="cls-8" d="m1114.12,2544.75h2.39l.34,3.87h.08c1.13-2.48,4.03-4.41,7.86-4.41,6.3,0,9.66,3.99,9.66,11.01s-4.28,11.09-9.87,11.09c-3.78,0-6.39-1.6-7.44-3.7h-.08v11.55h-2.94v-29.41Zm17.18,10.63c0-7.18-3.4-8.61-6.93-8.61-4.24,0-7.56,2.73-7.56,8.44,0,6.01,3.44,8.57,7.43,8.57,3.03,0,7.06-1.47,7.06-8.4Z"></path><path class="cls-8" d="m1185.07,2636.71h3.11l10.29,29.49h.08l10.17-29.49h3.11l-11.59,32.77h-3.57l-11.59-32.77Z"></path><path class="cls-8" d="m1230.56,2659.98h-15.96c.17,4.79,2.48,7.48,6.93,7.48,3.82,0,5.67-1.43,5.96-4.83h2.98c-.29,4.24-3.28,7.39-9.03,7.39-7.06,0-9.83-4.66-9.83-10.88s3.23-11.22,10-11.22,8.95,3.99,8.95,10.21v1.85Zm-3.11-2.98c0-4.45-1.72-6.55-5.92-6.55s-6.55,2.65-6.89,6.97h12.81v-.42Z"></path><path class="cls-8" d="m1236.43,2648.47h2.6l.29,3.91c1.01-2.14,3.07-4.45,6.76-4.45,1.26,0,2.18.21,3.02.55v3.15c-1.13-.5-2.1-.76-3.4-.76-3.74,0-6.34,2.81-6.34,5.75v12.86h-2.94v-21Z"></path><path class="cls-8" d="m1264.7,2666.78v2.61c-.76.21-2.14.59-4.03.59-3.82,0-6.34-1.6-6.34-6.89v-12.18h-4.16v-2.44h4.16v-6.05l2.94-1.43v7.48h5.92v2.44h-5.92v11.8c0,2.81.76,4.58,3.4,4.58,1.6,0,3.23-.29,4.03-.5Z"></path><path class="cls-8" d="m1269.53,2636.71h2.98v6.51h-2.98v-6.51Zm0,11.76h2.94v21h-2.94v-21Z"></path><path class="cls-8" d="m1278.18,2659.14c0-6.38,3.23-11.22,10-11.22s8.95,3.91,8.95,8.95v.42h-3.11v-.63c0-3.82-1.64-6.09-5.84-6.09-4.75,0-7.02,3.11-7.02,8.4,0,5.63,2.39,8.49,6.93,8.49,3.82,0,5.84-1.85,5.92-5.67h3.02c-.08,4.66-3.15,8.23-9.03,8.23-7.23,0-9.83-4.75-9.83-10.88Z"></path><path class="cls-8" d="m1301.53,2663.68c0-3.95,2.23-6.09,7.86-6.09h6.34v-1.72c0-2.98-1.26-5.42-5.46-5.42-3.95,0-5.33,1.51-5.33,4.12v.88h-2.98v-.84c0-5,4.2-6.68,8.32-6.68,5.8,0,8.4,2.86,8.4,8.44v13.11h-2.06l-.55-2.98h-.08c-1.26,1.89-3.7,3.53-7.35,3.53-4.91,0-7.1-2.31-7.1-6.34Zm14.2-1.85v-1.76h-7.02c-2.65,0-4.03.92-4.03,3.61,0,2.35,1.26,3.86,4.5,3.86,4.16,0,6.55-2.14,6.55-5.71Z"></path><path class="cls-8" d="m1326.02,2636.71h2.94v32.77h-2.94v-32.77Z"></path><path class="cls-8" d="m1344.71,2663.68c0-3.95,2.23-6.09,7.86-6.09h6.34v-1.72c0-2.98-1.26-5.42-5.46-5.42-3.95,0-5.33,1.51-5.33,4.12v.88h-2.98v-.84c0-5,4.2-6.68,8.32-6.68,5.8,0,8.4,2.86,8.4,8.44v13.11h-2.06l-.55-2.98h-.08c-1.26,1.89-3.7,3.53-7.35,3.53-4.91,0-7.1-2.31-7.1-6.34Zm14.2-1.85v-1.76h-7.02c-2.65,0-4.03.92-4.03,3.61,0,2.35,1.26,3.86,4.5,3.86,4.16,0,6.55-2.14,6.55-5.71Z"></path><path class="cls-8" d="m1367.51,2659.14c0-6.38,3.23-11.22,10-11.22s8.95,3.91,8.95,8.95v.42h-3.11v-.63c0-3.82-1.64-6.09-5.84-6.09-4.75,0-7.02,3.11-7.02,8.4,0,5.63,2.39,8.49,6.93,8.49,3.82,0,5.84-1.85,5.92-5.67h3.02c-.08,4.66-3.15,8.23-9.03,8.23-7.23,0-9.83-4.75-9.83-10.88Z"></path><path class="cls-8" d="m1391.92,2662.08v-13.61h2.94v13.27c0,4.33,2.14,5.71,5.42,5.71,3.74,0,6.55-2.69,6.55-5.63v-13.36h2.94v21h-2.6l-.25-3.36h-.08c-.97,2.02-3.23,3.91-7.23,3.91-4.66,0-7.69-2.52-7.69-7.94Z"></path><path class="cls-8" d="m1428.08,2666.78v2.61c-.76.21-2.14.59-4.03.59-3.82,0-6.34-1.6-6.34-6.89v-12.18h-4.16v-2.44h4.16v-6.05l2.94-1.43v7.48h5.92v2.44h-5.92v11.8c0,2.81.76,4.58,3.4,4.58,1.6,0,3.23-.29,4.03-.5Z"></path><path class="cls-8" d="m1449.54,2659.98h-15.96c.17,4.79,2.48,7.48,6.93,7.48,3.82,0,5.67-1.43,5.96-4.83h2.98c-.29,4.24-3.28,7.39-9.03,7.39-7.06,0-9.83-4.66-9.83-10.88s3.23-11.22,10-11.22,8.95,3.99,8.95,10.21v1.85Zm-3.11-2.98c0-4.45-1.72-6.55-5.92-6.55s-6.55,2.65-6.89,6.97h12.81v-.42Z"></path><path class="cls-8" d="m1463.82,2663.68c0-3.95,2.23-6.09,7.86-6.09h6.34v-1.72c0-2.98-1.26-5.42-5.46-5.42-3.95,0-5.33,1.51-5.33,4.12v.88h-2.98v-.84c0-5,4.2-6.68,8.32-6.68,5.8,0,8.4,2.86,8.4,8.44v13.11h-2.06l-.55-2.98h-.08c-1.26,1.89-3.7,3.53-7.35,3.53-4.92,0-7.1-2.31-7.1-6.34Zm14.2-1.85v-1.76h-7.02c-2.65,0-4.03.92-4.03,3.61,0,2.35,1.26,3.86,4.5,3.86,4.16,0,6.55-2.14,6.55-5.71Z"></path><path class="cls-8" d="m1488.31,2648.47h2.6l.29,3.49c1.01-2.14,3.28-4.03,7.35-4.03,4.75,0,7.77,2.52,7.77,7.94v13.61h-2.94v-13.28c0-4.33-2.14-5.71-5.5-5.71-3.82,0-6.64,2.69-6.64,5.63v13.36h-2.94v-21Z"></path><path class="cls-8" d="m1511.99,2659.01c0-7.1,4.28-11.09,10.04-11.09,3.7,0,6.22,1.6,7.31,3.74h.04v-14.95h2.94v32.77h-1.97l-.67-3.61h-.08c-1.18,2.31-3.95,4.16-7.77,4.16-6.3,0-9.83-3.99-9.83-11.01Zm17.64-.5c0-5.5-3.36-8.06-7.35-8.06-3.11,0-7.14,1.47-7.14,8.4s3.61,8.61,7.14,8.61c4.24,0,7.35-2.73,7.35-8.95Z"></path><path class="cls-8" d="m1549.33,2636.71h2.94v15.16c1.05-2.1,3.28-3.95,7.31-3.95,4.75,0,7.77,2.52,7.77,7.94v13.61h-2.94v-13.28c0-4.33-2.14-5.71-5.5-5.71-3.82,0-6.64,2.69-6.64,5.63v13.36h-2.94v-32.77Z"></path><path class="cls-8" d="m1574.07,2662.08v-13.61h2.94v13.27c0,4.33,2.14,5.71,5.42,5.71,3.74,0,6.55-2.69,6.55-5.63v-13.36h2.94v21h-2.6l-.25-3.36h-.08c-.97,2.02-3.23,3.91-7.23,3.91-4.66,0-7.69-2.52-7.69-7.94Z"></path><path class="cls-8" d="m1599.27,2648.47h2.6l.29,3.49c1.01-2.14,3.28-4.03,7.35-4.03,4.75,0,7.77,2.52,7.77,7.94v13.61h-2.94v-13.28c0-4.33-2.14-5.71-5.5-5.71-3.82,0-6.64,2.69-6.64,5.63v13.36h-2.94v-21Z"></path><path class="cls-8" d="m1624.01,2671.28v-.13h3.11v.13c0,2.9,1.93,4.33,6.13,4.33,4.79,0,7.02-2.94,7.02-7.86v-2.1h-.08c-1.09,2.18-3.65,4.08-7.48,4.08-6.3,0-9.75-3.99-9.75-10.71,0-7.1,4.37-11.09,9.96-11.09,3.78,0,6.55,1.81,7.56,4.12h.13l.29-3.57h2.31v19.16c0,5.88-2.81,10.71-10.33,10.71-6.3,0-8.86-2.98-8.86-7.06Zm16.59-12.77c0-5.5-3.36-8.06-7.35-8.06-3.02,0-7.14,1.47-7.14,8.4s3.57,8.32,7.1,8.32c4.24,0,7.39-2.73,7.39-8.65Z"></path><path class="cls-8" d="m1649.29,2663.68c0-3.95,2.23-6.09,7.86-6.09h6.34v-1.72c0-2.98-1.26-5.42-5.46-5.42-3.95,0-5.33,1.51-5.33,4.12v.88h-2.98v-.84c0-5,4.2-6.68,8.32-6.68,5.8,0,8.4,2.86,8.4,8.44v13.11h-2.06l-.55-2.98h-.08c-1.26,1.89-3.7,3.53-7.35,3.53-4.91,0-7.1-2.31-7.1-6.34Zm14.2-1.85v-1.76h-7.02c-2.65,0-4.03.92-4.03,3.61,0,2.35,1.26,3.86,4.5,3.86,4.16,0,6.55-2.14,6.55-5.71Z"></path><path class="cls-8" d="m1673.78,2648.47h2.6l.29,3.91c1.01-2.14,3.07-4.45,6.76-4.45,1.26,0,2.18.21,3.02.55v3.15c-1.13-.5-2.1-.76-3.4-.76-3.74,0-6.34,2.81-6.34,5.75v12.86h-2.94v-21Z"></path><path class="cls-8" d="m1690.66,2662.08v-13.61h2.94v13.27c0,4.33,2.14,5.71,5.42,5.71,3.74,0,6.55-2.69,6.55-5.63v-13.36h2.94v21h-2.6l-.25-3.36h-.08c-.97,2.02-3.23,3.91-7.23,3.91-4.66,0-7.69-2.52-7.69-7.94Z"></path><path class="cls-8" d="m1746.57,2655.86v13.61h-2.94v-13.28c0-4.33-2.14-5.71-4.75-5.71-3.82,0-6.18,2.69-6.18,5.63v13.36h-2.94v-13.28c0-4.33-1.85-5.71-4.83-5.71-3.61,0-6.13,2.69-6.13,5.63v13.36h-2.94v-21h2.6l.29,3.49c1.01-2.02,3.07-4.03,6.93-4.03,2.94,0,5.38,1.39,6.43,4.29,1.22-2.39,3.57-4.29,7.14-4.29,4.28,0,7.31,2.52,7.31,7.94Z"></path><path class="cls-8" d="m1753.91,2636.71h2.94v32.77h-2.94v-32.77Z"></path><path class="cls-8" d="m1762.94,2663.68c0-3.95,2.23-6.09,7.86-6.09h6.34v-1.72c0-2.98-1.26-5.42-5.46-5.42-3.95,0-5.33,1.51-5.33,4.12v.88h-2.98v-.84c0-5,4.2-6.68,8.32-6.68,5.8,0,8.4,2.86,8.4,8.44v13.11h-2.06l-.55-2.98h-.08c-1.26,1.89-3.7,3.53-7.35,3.53-4.92,0-7.1-2.31-7.1-6.34Zm14.2-1.85v-1.76h-7.02c-2.65,0-4.03.92-4.03,3.61,0,2.35,1.26,3.86,4.5,3.86,4.16,0,6.55-2.14,6.55-5.71Z"></path><path class="cls-8" d="m1786.72,2662.08v-13.61h2.94v13.27c0,4.33,2.14,5.71,5.42,5.71,3.74,0,6.55-2.69,6.55-5.63v-13.36h2.94v21h-2.6l-.25-3.36h-.08c-.97,2.02-3.23,3.91-7.23,3.91-4.66,0-7.69-2.52-7.69-7.94Z"></path><path class="cls-8" d="m1822.88,2666.78v2.61c-.76.21-2.14.59-4.03.59-3.82,0-6.34-1.6-6.34-6.89v-12.18h-4.16v-2.44h4.16v-6.05l2.94-1.43v7.48h5.92v2.44h-5.92v11.8c0,2.81.76,4.58,3.4,4.58,1.6,0,3.23-.29,4.03-.5Z"></path><path class="cls-8" d="m1375.23,1753.19c0-11.72,6.76-16.93,15.46-16.93,7.94,0,14.7,5.21,14.7,16.59,0,12.48-6.76,17.26-15.08,17.26s-15.08-4.79-15.08-16.93Zm27.05,0c0-10.12-5.33-14.24-12.01-14.24s-11.93,4.12-11.93,14.24,5.33,14.2,12.01,14.2,11.93-3.74,11.93-14.2Z"></path><path class="cls-8" d="m1410.01,1759.11c0-7.1,4.29-11.09,10.04-11.09,3.7,0,6.22,1.6,7.31,3.74h.04v-14.95h2.94v32.77h-1.97l-.67-3.61h-.08c-1.18,2.31-3.95,4.16-7.77,4.16-6.3,0-9.83-3.99-9.83-11.01Zm17.64-.5c0-5.5-3.36-8.07-7.35-8.07-3.11,0-7.14,1.47-7.14,8.4s3.61,8.61,7.14,8.61c4.24,0,7.35-2.73,7.35-8.95Z"></path><path class="cls-8" d="m1436.01,1759.11c0-7.1,4.29-11.09,10.04-11.09,3.7,0,6.22,1.6,7.31,3.74h.04v-14.95h2.94v32.77h-1.97l-.67-3.61h-.08c-1.18,2.31-3.95,4.16-7.77,4.16-6.3,0-9.83-3.99-9.83-11.01Zm17.64-.5c0-5.5-3.36-8.07-7.35-8.07-3.11,0-7.14,1.47-7.14,8.4s3.61,8.61,7.14,8.61c4.24,0,7.35-2.73,7.35-8.95Z"></path><path class="cls-8" d="m1471.67,1759.11c0-7.1,4.29-11.09,10.04-11.09,3.7,0,6.22,1.6,7.31,3.74h.04v-14.95h2.94v32.77h-1.97l-.67-3.61h-.08c-1.18,2.31-3.95,4.16-7.77,4.16-6.3,0-9.83-3.99-9.83-11.01Zm17.64-.5c0-5.5-3.36-8.07-7.35-8.07-3.11,0-7.14,1.47-7.14,8.4s3.61,8.61,7.14,8.61c4.24,0,7.35-2.73,7.35-8.95Z"></path><path class="cls-8" d="m1516.61,1760.08h-15.96c.17,4.79,2.48,7.48,6.93,7.48,3.82,0,5.67-1.43,5.96-4.83h2.98c-.29,4.24-3.28,7.39-9.03,7.39-7.06,0-9.83-4.66-9.83-10.88s3.23-11.22,10-11.22,8.95,3.99,8.95,10.21v1.85Zm-3.11-2.98c0-4.45-1.72-6.55-5.92-6.55s-6.55,2.65-6.89,6.97h12.81v-.42Z"></path><path class="cls-8" d="m1520.6,1763.15v-1.18h2.94v1.13c0,2.86,2.14,4.5,5.96,4.5s5.8-1.01,5.8-3.78c0-2.06-1.01-2.81-3.87-3.32l-4.62-.84c-3.02-.55-5.54-2.02-5.54-5.5,0-3.15,2.35-6.13,8.4-6.13s8.4,3.02,8.4,7.22v.88h-2.98v-.76c0-3.44-2.14-4.91-5.42-4.91-3.95,0-5.33,1.34-5.33,3.36s1.01,2.86,3.91,3.4l4.03.76c4.12.76,6.09,1.93,6.09,5.59,0,4.58-4.12,6.55-8.78,6.55-7.31,0-8.99-3.28-8.99-6.97Z"></path><path class="cls-8" d="m1544.24,1736.81h2.98v6.51h-2.98v-6.51Zm0,11.76h2.94v21h-2.94v-21Z"></path><path class="cls-8" d="m1553.94,1771.38v-.13h3.11v.13c0,2.9,1.93,4.33,6.13,4.33,4.79,0,7.02-2.94,7.02-7.86v-2.1h-.08c-1.09,2.18-3.65,4.08-7.48,4.08-6.3,0-9.75-3.99-9.75-10.71,0-7.1,4.37-11.09,9.96-11.09,3.78,0,6.55,1.81,7.56,4.12h.13l.29-3.57h2.31v19.16c0,5.88-2.81,10.71-10.33,10.71-6.3,0-8.86-2.98-8.86-7.06Zm16.59-12.77c0-5.5-3.36-8.07-7.35-8.07-3.02,0-7.14,1.47-7.14,8.4s3.57,8.32,7.1,8.32c4.24,0,7.39-2.73,7.39-8.65Z"></path><path class="cls-8" d="m1580.49,1748.57h2.6l.29,3.49c1.01-2.14,3.28-4.03,7.35-4.03,4.75,0,7.77,2.52,7.77,7.94v13.61h-2.94v-13.27c0-4.33-2.14-5.71-5.5-5.71-3.82,0-6.64,2.69-6.64,5.63v13.36h-2.94v-21Z"></path><path class="cls-8" d="m1613.84,1759.07c0-6.22,3.32-11.05,10.38-11.05,6.59,0,10.25,4.83,10.25,11.05s-3.7,11.05-10.29,11.05c-7.27,0-10.33-4.83-10.33-11.05Zm17.56,0c0-5.33-2.9-8.49-7.23-8.49-4.75,0-7.27,3.15-7.27,8.49s2.56,8.49,7.27,8.49c4.33,0,7.23-3.15,7.23-8.49Z"></path><path class="cls-8" d="m1644.5,1743.53v5.04h5.92v2.44h-5.92v18.57h-2.94v-18.57h-4.16v-2.44h4.16v-5.42c0-5.29,3.15-6.89,6.38-6.89,1.85,0,2.98.29,3.74.55v2.6c-.71-.21-1.89-.46-3.49-.46-2.65,0-3.7,1.76-3.7,4.58Z"></path><path class="cls-8" d="m1666.38,1747.27h-3.36v-5.08c0-3.95.88-5.29,3.4-5.97l.67,1.85c-1.76.67-2.06,1.09-2.06,3.78v.34h1.34v5.08Zm5.92,0h-3.36v-5.08c0-3.95.88-5.29,3.4-5.97l.67,1.85c-1.76.67-2.06,1.09-2.06,3.78v.34h1.34v5.08Z"></path><path class="cls-8" d="m1678.68,1748.57h2.6l.29,3.91c1.01-2.14,3.07-4.45,6.76-4.45,1.26,0,2.18.21,3.02.55v3.15c-1.13-.5-2.1-.76-3.4-.76-3.74,0-6.34,2.81-6.34,5.75v12.85h-2.94v-21Z"></path><path class="cls-8" d="m1694.1,1746.01c1.76-.67,2.06-1.09,2.06-3.78v-.34h-1.34v-5.08h3.36v5.08c0,3.95-.88,5.29-3.4,5.97l-.67-1.85Zm5.92,0c1.76-.67,2.06-1.09,2.06-3.78v-.34h-1.34v-5.08h3.36v5.08c0,3.95-.88,5.29-3.4,5.97l-.67-1.85Z"></path><path class="cls-8" d="m324.11,2636.71h8.61c7.94,0,11.64,2.73,11.64,9.62,0,6.43-2.77,10.12-11.13,10.12h-6.13v13.02h-2.98v-32.77Zm9.28,17.22c6.09,0,7.94-2.69,7.94-7.65,0-5.21-2.6-6.97-8.44-6.97h-5.8v14.62h6.3Z"></path><path class="cls-8" d="m347.08,2658.97c0-6.22,3.32-11.05,10.38-11.05,6.6,0,10.25,4.83,10.25,11.05s-3.7,11.05-10.29,11.05c-7.27,0-10.33-4.83-10.33-11.05Zm17.56,0c0-5.34-2.9-8.49-7.23-8.49-4.75,0-7.27,3.15-7.27,8.49s2.56,8.49,7.27,8.49c4.33,0,7.23-3.15,7.23-8.49Z"></path><path class="cls-8" d="m373.59,2636.71h2.98v6.51h-2.98v-6.51Zm0,11.76h2.94v21h-2.94v-21Z"></path><path class="cls-8" d="m383.92,2648.47h2.6l.29,3.49c1.01-2.14,3.28-4.03,7.35-4.03,4.75,0,7.77,2.52,7.77,7.94v13.61h-2.94v-13.28c0-4.33-2.14-5.71-5.5-5.71-3.82,0-6.64,2.69-6.64,5.63v13.36h-2.94v-21Z"></path><path class="cls-8" d="m420.25,2666.78v2.61c-.76.21-2.14.59-4.03.59-3.82,0-6.34-1.6-6.34-6.89v-12.18h-4.16v-2.44h4.16v-6.05l2.94-1.43v7.48h5.92v2.44h-5.92v11.8c0,2.81.76,4.58,3.4,4.58,1.6,0,3.23-.29,4.03-.5Z"></path><path class="cls-8" d="m425.29,2648.47l6.89,17.98h.08l7.14-17.98h3.07v.04l-8.86,20.84-3.11,8.53h-2.98v-.04l3.19-8.36-8.78-20.96v-.04h3.36Z"></path><path class="cls-8" d="m473.59,2659.98h-15.96c.17,4.79,2.48,7.48,6.93,7.48,3.82,0,5.67-1.43,5.96-4.83h2.98c-.29,4.24-3.28,7.39-9.03,7.39-7.06,0-9.83-4.66-9.83-10.88s3.23-11.22,10-11.22,8.95,3.99,8.95,10.21v1.85Zm-3.11-2.98c0-4.45-1.72-6.55-5.92-6.55s-6.55,2.65-6.89,6.97h12.81v-.42Z"></path><path class="cls-8" d="m479.47,2648.47h2.6l.29,3.49c1.01-2.14,3.28-4.03,7.35-4.03,4.75,0,7.77,2.52,7.77,7.94v13.61h-2.94v-13.28c0-4.33-2.14-5.71-5.5-5.71-3.82,0-6.64,2.69-6.64,5.63v13.36h-2.94v-21Z"></path><path class="cls-8" d="m515.8,2666.78v2.61c-.76.21-2.14.59-4.03.59-3.82,0-6.34-1.6-6.34-6.89v-12.18h-4.16v-2.44h4.16v-6.05l2.94-1.43v7.48h5.92v2.44h-5.92v11.8c0,2.81.76,4.58,3.4,4.58,1.6,0,3.23-.29,4.03-.5Z"></path><path class="cls-8" d="m520.63,2648.47h2.6l.29,3.91c1.01-2.14,3.07-4.45,6.76-4.45,1.26,0,2.18.21,3.02.55v3.15c-1.13-.5-2.1-.76-3.4-.76-3.74,0-6.34,2.81-6.34,5.75v12.86h-2.94v-21Z"></path><path class="cls-8" d="m538.14,2648.47l6.89,17.98h.08l7.14-17.98h3.07v.04l-8.86,20.84-3.11,8.53h-2.98v-.04l3.19-8.36-8.78-20.96v-.04h3.36Z"></path><path class="cls-8" d="m567.29,2663.04v-1.18h2.94v1.13c0,2.86,2.14,4.5,5.96,4.5s5.8-1.01,5.8-3.78c0-2.06-1.01-2.81-3.87-3.32l-4.62-.84c-3.02-.55-5.54-2.02-5.54-5.5,0-3.15,2.35-6.13,8.4-6.13s8.4,3.03,8.4,7.23v.88h-2.98v-.76c0-3.44-2.14-4.91-5.42-4.91-3.95,0-5.33,1.34-5.33,3.36s1.01,2.86,3.91,3.4l4.03.76c4.12.76,6.09,1.93,6.09,5.59,0,4.58-4.12,6.55-8.78,6.55-7.31,0-8.99-3.28-8.99-6.97Z"></path><path class="cls-8" d="m601.9,2666.78v2.61c-.76.21-2.14.59-4.03.59-3.82,0-6.34-1.6-6.34-6.89v-12.18h-4.16v-2.44h4.16v-6.05l2.94-1.43v7.48h5.92v2.44h-5.92v11.8c0,2.81.76,4.58,3.4,4.58,1.6,0,3.23-.29,4.03-.5Z"></path><path class="cls-8" d="m606.73,2648.47h2.6l.29,3.91c1.01-2.14,3.07-4.45,6.76-4.45,1.26,0,2.18.21,3.02.55v3.15c-1.13-.5-2.1-.76-3.4-.76-3.74,0-6.34,2.81-6.34,5.75v12.86h-2.94v-21Z"></path><path class="cls-8" d="m621.72,2658.97c0-6.22,3.32-11.05,10.38-11.05,6.6,0,10.25,4.83,10.25,11.05s-3.7,11.05-10.29,11.05c-7.27,0-10.33-4.83-10.33-11.05Zm17.56,0c0-5.34-2.9-8.49-7.23-8.49-4.75,0-7.27,3.15-7.27,8.49s2.56,8.49,7.27,8.49c4.33,0,7.23-3.15,7.23-8.49Z"></path><path class="cls-8" d="m647.59,2636.71h2.94v23.23l12.14-11.47h3.65v.04l-8.4,7.86,8.78,13.06v.04h-3.36l-7.39-11.22-5.42,5.04v6.18h-2.94v-32.77Z"></path><path class="cls-8" d="m687.96,2659.98h-15.96c.17,4.79,2.48,7.48,6.93,7.48,3.82,0,5.67-1.43,5.96-4.83h2.98c-.29,4.24-3.28,7.39-9.03,7.39-7.06,0-9.83-4.66-9.83-10.88s3.23-11.22,10-11.22,8.95,3.99,8.95,10.21v1.85Zm-3.11-2.98c0-4.45-1.72-6.55-5.92-6.55s-6.55,2.65-6.89,6.97h12.81v-.42Z"></path><path class="cls-8" d="m691.95,2663.04v-1.18h2.94v1.13c0,2.86,2.14,4.5,5.96,4.5s5.8-1.01,5.8-3.78c0-2.06-1.01-2.81-3.86-3.32l-4.62-.84c-3.02-.55-5.54-2.02-5.54-5.5,0-3.15,2.35-6.13,8.4-6.13s8.4,3.03,8.4,7.23v.88h-2.98v-.76c0-3.44-2.14-4.91-5.42-4.91-3.95,0-5.33,1.34-5.33,3.36s1.01,2.86,3.91,3.4l4.03.76c4.12.76,6.09,1.93,6.09,5.59,0,4.58-4.12,6.55-8.78,6.55-7.31,0-8.99-3.28-8.99-6.97Z"></path><path class="cls-8" d="m723.57,2658.97c0-6.22,3.32-11.05,10.38-11.05,6.59,0,10.25,4.83,10.25,11.05s-3.7,11.05-10.29,11.05c-7.27,0-10.33-4.83-10.33-11.05Zm17.56,0c0-5.34-2.9-8.49-7.23-8.49-4.75,0-7.27,3.15-7.27,8.49s2.56,8.49,7.27,8.49c4.33,0,7.23-3.15,7.23-8.49Z"></path><path class="cls-8" d="m750.07,2648.47h2.6l.29,3.49c1.01-2.14,3.28-4.03,7.35-4.03,4.75,0,7.77,2.52,7.77,7.94v13.61h-2.94v-13.28c0-4.33-2.14-5.71-5.5-5.71-3.82,0-6.64,2.69-6.64,5.63v13.36h-2.94v-21Z"></path><path class="cls-8" d="m785.1,2636.71h2.94v15.16c1.05-2.1,3.28-3.95,7.31-3.95,4.75,0,7.77,2.52,7.77,7.94v13.61h-2.94v-13.28c0-4.33-2.14-5.71-5.5-5.71-3.82,0-6.64,2.69-6.64,5.63v13.36h-2.94v-32.77Z"></path><path class="cls-8" d="m827.74,2659.98h-15.96c.17,4.79,2.48,7.48,6.93,7.48,3.82,0,5.67-1.43,5.96-4.83h2.98c-.29,4.24-3.28,7.39-9.03,7.39-7.06,0-9.83-4.66-9.83-10.88s3.23-11.22,10-11.22,8.95,3.99,8.95,10.21v1.85Zm-3.11-2.98c0-4.45-1.72-6.55-5.92-6.55s-6.55,2.65-6.89,6.97h12.81v-.42Z"></path><path class="cls-8" d="m833.61,2636.71h2.98v6.51h-2.98v-6.51Zm0,11.76h2.94v21h-2.94v-21Z"></path><path class="cls-8" d="m843.31,2671.28v-.13h3.11v.13c0,2.9,1.93,4.33,6.13,4.33,4.79,0,7.02-2.94,7.02-7.86v-2.1h-.08c-1.09,2.18-3.65,4.08-7.48,4.08-6.3,0-9.75-3.99-9.75-10.71,0-7.1,4.37-11.09,9.96-11.09,3.78,0,6.55,1.81,7.56,4.12h.13l.29-3.57h2.31v19.16c0,5.88-2.81,10.71-10.33,10.71-6.3,0-8.86-2.98-8.86-7.06Zm16.59-12.77c0-5.5-3.36-8.06-7.35-8.06-3.02,0-7.14,1.47-7.14,8.4s3.57,8.32,7.1,8.32c4.24,0,7.39-2.73,7.39-8.65Z"></path><path class="cls-8" d="m869.86,2636.71h2.94v15.16c1.05-2.1,3.28-3.95,7.31-3.95,4.75,0,7.77,2.52,7.77,7.94v13.61h-2.94v-13.28c0-4.33-2.14-5.71-5.5-5.71-3.82,0-6.64,2.69-6.64,5.63v13.36h-2.94v-32.77Z"></path><path class="cls-8" d="m906.19,2666.78v2.61c-.76.21-2.14.59-4.03.59-3.82,0-6.34-1.6-6.34-6.89v-12.18h-4.16v-2.44h4.16v-6.05l2.94-1.43v7.48h5.92v2.44h-5.92v11.8c0,2.81.76,4.58,3.4,4.58,1.6,0,3.23-.29,4.03-.5Z"></path><path class="cls-8" d="m922.36,2647.17h-3.36v-5.08c0-3.95.88-5.29,3.4-5.97l.67,1.85c-1.76.67-2.06,1.09-2.06,3.78v.34h1.34v5.08Zm5.92,0h-3.36v-5.08c0-3.95.88-5.29,3.4-5.97l.67,1.85c-1.76.67-2.06,1.09-2.06,3.78v.34h1.34v5.08Z"></path><path class="cls-8" d="m934.66,2648.47h2.6l.29,3.49c1.01-2.14,3.28-4.03,7.35-4.03,4.75,0,7.77,2.52,7.77,7.94v13.61h-2.94v-13.28c0-4.33-2.14-5.71-5.5-5.71-3.82,0-6.64,2.69-6.64,5.63v13.36h-2.94v-21Z"></path><path class="cls-8" d="m957.09,2645.91c1.76-.67,2.06-1.09,2.06-3.78v-.34h-1.34v-5.08h3.36v5.08c0,3.95-.88,5.29-3.4,5.96l-.67-1.85Zm5.92,0c1.76-.67,2.06-1.09,2.06-3.78v-.34h-1.34v-5.08h3.36v5.08c0,3.95-.88,5.29-3.4,5.96l-.67-1.85Z"></path><path class="cls-8" d="m970.03,2663.25h3.36v6.22c0,3.95-.88,5.29-3.4,5.96l-.67-1.85c1.76-.67,2.06-1.09,2.06-3.78v-.34h-1.34v-6.22Z"></path><path class="cls-8" d="m991.03,2647.17h-3.36v-5.08c0-3.95.88-5.29,3.4-5.97l.67,1.85c-1.76.67-2.06,1.09-2.06,3.78v.34h1.34v5.08Zm5.92,0h-3.36v-5.08c0-3.95.88-5.29,3.4-5.97l.67,1.85c-1.76.67-2.06,1.09-2.06,3.78v.34h1.34v5.08Z"></path><path class="cls-8" d="m1001.65,2662.08v-13.61h2.94v13.27c0,4.33,2.14,5.71,5.42,5.71,3.74,0,6.55-2.69,6.55-5.63v-13.36h2.94v21h-2.6l-.25-3.36h-.08c-.97,2.02-3.23,3.91-7.23,3.91-4.66,0-7.69-2.52-7.69-7.94Z"></path><path class="cls-8" d="m1024.33,2645.91c1.76-.67,2.06-1.09,2.06-3.78v-.34h-1.34v-5.08h3.36v5.08c0,3.95-.88,5.29-3.4,5.96l-.67-1.85Zm5.92,0c1.76-.67,2.06-1.09,2.06-3.78v-.34h-1.34v-5.08h3.36v5.08c0,3.95-.88,5.29-3.4,5.96l-.67-1.85Z"></path><path class="cls-9" d="m1619.45,3100.87c0,4.61,4.61,8.7,9.21,8.7,2.05,0,4.09-1.02,6.14-3.58,15.86-22.01,27.63-40.43,35.31-55.27v9.72c0,38.89,20.47,76.25,67.04,76.25,31.22,0,50.66-8.19,69.09-30.19,1.54-1.54,1.54-3.58,1.54-5.63,0-7.16-5.12-8.7-8.19-8.7-9.72,0-13.82,27.63-62.43,27.63-40.43,0-50.66-35.31-50.66-59.36v-114.63h40.43c4.61,0,8.7-4.09,8.7-8.7s-4.09-8.7-8.7-8.7h-40.43v-132.03c0-4.61-3.58-8.19-8.19-8.19s-8.19,3.58-8.19,8.19v132.03h-40.43c-4.61,0-8.7,4.09-8.7,8.7s4.09,8.7,8.7,8.7h40.43v39.4c0,59.36-50.66,105.93-50.66,115.65Z"></path><path class="cls-9" d="m1075.84,2232.49c-1.02,1.53-1.53,3.06-1.53,4.59,0,4.59,4.59,8.15,9.17,8.15,2.55,0,4.59-1.02,6.62-3.57,34.65-53.51,74.91-140.65,136.07-140.65,29.56,0,55.55,23.95,55.55,53.51v109.57c0,4.59,4.08,8.15,8.66,8.15s8.66-3.57,8.66-8.15v-146.77c21.4,25.48,59.11,64.21,95.81,64.21,4.59,0,8.15-3.57,8.15-8.15s-3.57-8.15-8.15-8.15c-39.24,0-90.71-67.27-97.84-77.46-1.53-2.55-4.08-3.57-6.62-3.57-4.59,0-8.66,3.57-8.66,8.66v17.33c-13.76-15.8-34.14-25.48-55.55-25.48-71.85,0-114.66,92.75-150.33,147.79Z"></path><rect class="cls-9" x="630.58" y="2908.68" width="97.77" height="97.77" rx="48.88" ry="48.88"></rect><g class="cls-12"><path class="cls-11" d="m595.96,3095.24c-1.54,1.54-2.05,3.58-2.05,5.12,0,4.61,4.61,9.21,9.21,9.21,2.05,0,4.61-1.02,6.14-3.07,19.96-23.54,46.57-53.22,63.97-87v108.49c0,4.61,3.58,8.19,8.19,8.19s8.19-3.58,8.19-8.19v-82.39c0-39.4,25.08-81.37,66.53-81.37s70.62,47.08,70.62,80.86v15.35c0,33.26,9.72,75.74,48.62,75.74,23.03,0,37.87-7.16,56.29-30.19,1.02-1.54,2.05-3.58,2.05-5.12,0-2.56-1.54-4.61-3.58-6.65-2.05-1.54-3.58-2.05-5.12-2.05-9.72,0-14.84,27.63-49.64,27.63-25.59,0-32.24-33.26-32.24-59.36v-15.35c0-41.96-34.29-97.23-87-97.23-29.68,0-52.71,15.86-66.53,38.38v-30.19c0-5.12-3.07-8.19-8.19-8.19s-8.19,3.07-8.19,8.19c0,51.17-40.94,95.7-77.27,139.19Z"></path></g><line class="cls-5" x1="682.69" y1="2700.06" x2="682.69" y2="2897.67"></line><line class="cls-5" x1="1452.62" y1="2700.06" x2="1452.62" y2="2771.35"></line><rect class="cls-9" x="1444.95" y="2787.68" width="16.38" height="82.9"></rect><g class="cls-15"><path class="cls-9" d="m629.93,2084.71c-75.42,0-99.88,83.58-139.12,122.31-2.04,1.53-2.55,3.57-2.55,5.61,0,4.59,4.59,9.17,9.17,9.17,2.04,0,4.08-1.02,5.61-2.55,41.28-40.77,62.17-118.23,126.89-118.23,27.01,0,46.88,25.48,73.89,25.48h2.55l-115.68,131.99c-1.53,2.04-2.55,3.57-2.55,5.61,0,4.59,4.08,8.66,8.66,8.66,2.04,0,4.08-1.02,6.12-3.06,19.37-21.4,31.6-24.46,39.75-24.46,22.93,0,46.37,27.52,88.16,27.52h2.04c18.35,0,29.05-1.53,52.49-30.58,1.53-1.53,2.04-3.57,2.04-5.1,0-4.59-4.59-8.66-9.17-8.66-2.04,0-4.08,1.53-6.12,3.57-19.37,23.95-24.46,23.95-39.24,23.95h-2.04c-37.2,0-59.62-27.52-88.16-27.52h-3.57l114.15-129.95c1.53-1.53,2.55-3.57,2.55-5.61,0-4.59-4.08-8.66-8.66-8.66-2.04,0-4.08,1.02-6.12,3.06-8.66,9.68-22.42,22.42-37.2,22.42-21.4,0-40.77-24.97-73.89-24.97Z"></path></g><line class="cls-5" x1="383.44" y1="1905.57" x2="290.96" y2="1796.23"></line><g class="cls-14"><path class="cls-11" d="m770.07,2237.08c0,4.59,4.59,8.66,9.17,8.66,2.04,0,4.08-1.02,6.12-3.06,20.89-24.97,54.53-65.74,86.12-108.04v120.27c-25.48-3.06-33.12-27.01-42.3-27.01-4.59,0-9.17,4.08-9.17,8.66,0,1.53.51,4.08,2.04,5.61,17.84,20.89,31.6,28.54,49.43,30.07v151.35c0,4.59,3.57,8.66,8.15,8.66s8.15-4.08,8.15-8.66v-151.35c32.61,0,45.36-3.06,72.87-29.05,2.04-1.53,3.06-3.57,3.06-5.61,0-4.59-4.59-9.17-9.17-9.17-2.04,0-3.57,1.02-5.1,2.55-23.95,22.93-32.11,24.46-61.66,24.46v-143.2c39.24-53.51,72.36-106,72.36-129.44,0-31.09-15.29-57.08-41.28-57.08-18.86,0-47.39,10.19-47.39,63.7v117.21c-72.87,98.35-101.41,122.31-101.41,130.46Z"></path></g><circle class="cls-9" cx="564.02" cy="3094.28" r="74.54"></circle><g class="cls-13"><path class="cls-11" d="m930.13,3094.21c-2.05-1.54-3.58-2.05-5.12-2.05-9.72,0-14.84,27.63-49.64,27.63-25.59,0-32.24-33.26-32.24-59.36v-15.35c0-41.96-34.29-97.23-87-97.23-29.68,0-52.71,15.86-66.53,38.38v-30.19c0-5.12-3.07-8.19-8.19-8.19s-8.19,3.07-8.19,8.19c0,51.17-40.94,95.7-77.27,139.19-.48.48-.85,1.01-1.15,1.56-8.52,7.87-19.74,23-41.33,23-30.7,0-63.97-56.8-97.74-137.15h43.5c4.61,0,8.19-3.58,8.19-8.19s-3.58-8.19-8.19-8.19h-50.66c-61.41-150.96-57.83-178.09-71.13-178.09-3.58,0-7.16,2.56-8.19,6.14-21.49,60.9-41.96,120.77-62.94,171.95h-46.57c-4.61,0-8.19,3.58-8.19,8.19s3.58,8.19,8.19,8.19h39.4c-33.78,80.34-67.04,137.15-97.74,137.15s-52.2-33.26-71.13-75.23c-1.54-3.58-4.61-5.12-7.16-5.12-4.61,0-9.21,4.09-9.21,8.7,0,1.02.51,2.56,1.02,3.58,15.86,35.31,40.43,84.44,86.48,84.44,41.45,0,81.88-71.13,116.68-153.52h118.72c34.8,82.39,75.23,153.52,116.68,153.52,17.69,0,29.4-3.51,54.35-28.26.53-.4,1.02-.87,1.43-1.42,19.96-23.54,46.57-53.22,63.97-87v108.49c0,4.61,3.58,8.19,8.19,8.19s8.19-3.58,8.19-8.19v-82.39c0-39.4,25.08-81.37,66.53-81.37s70.62,47.08,70.62,80.86v15.35c0,33.26,9.72,75.74,48.62,75.74,23.03,0,37.87-7.16,56.29-30.19,1.02-1.54,2.05-3.58,2.05-5.12,0-2.56-1.54-4.61-3.58-6.65Z"></path></g><line class="cls-3" x1="575.73" y1="1150.8" x2="900.9" y2="1150.8"></line><polygon class="cls-10" points="598.93 1179.43 603.7 1174.3 578.42 1150.8 603.7 1127.3 598.93 1122.17 568.14 1150.8 598.93 1179.43"></polygon><polygon class="cls-10" points="877.71 1179.43 872.93 1174.3 898.21 1150.8 872.93 1127.3 877.71 1122.17 908.49 1150.8 877.71 1179.43"></polygon><path class="cls-8" d="m429.17,872.36h2.9l6.89,29.36h.08l7.81-29.36h3.19l8.19,29.36h.08l6.51-29.36h2.9l-7.6,32.77h-3.53l-8.11-29.07h-.08l-7.77,29.07h-3.53l-7.94-32.77Z"></path><path class="cls-8" d="m471.97,872.36h2.98v6.51h-2.98v-6.51Zm0,11.76h2.94v21h-2.94v-21Z"></path><path class="cls-8" d="m480.62,894.67c0-7.1,4.28-11.09,10.04-11.09,3.7,0,6.22,1.6,7.31,3.74h.04v-14.95h2.94v32.77h-1.97l-.67-3.61h-.08c-1.18,2.31-3.95,4.16-7.77,4.16-6.3,0-9.83-3.99-9.83-11.01Zm17.64-.5c0-5.5-3.36-8.07-7.35-8.07-3.11,0-7.14,1.47-7.14,8.4s3.61,8.61,7.14,8.61c4.24,0,7.35-2.73,7.35-8.95Z"></path><path class="cls-8" d="m525.56,895.63h-15.96c.17,4.79,2.48,7.48,6.93,7.48,3.82,0,5.67-1.43,5.96-4.83h2.98c-.29,4.24-3.28,7.39-9.03,7.39-7.06,0-9.83-4.66-9.83-10.88s3.23-11.22,10-11.22,8.95,3.99,8.95,10.21v1.85Zm-3.11-2.98c0-4.45-1.72-6.55-5.92-6.55s-6.55,2.65-6.89,6.97h12.81v-.42Z"></path><path class="cls-8" d="m541.1,884.12h2.39l.34,3.86h.08c1.13-2.48,4.03-4.41,7.86-4.41,6.3,0,9.66,3.99,9.66,11.01s-4.28,11.09-9.87,11.09c-3.78,0-6.39-1.6-7.44-3.7h-.08v11.55h-2.94v-29.41Zm17.18,10.63c0-7.18-3.4-8.61-6.93-8.61-4.24,0-7.56,2.73-7.56,8.44,0,6.01,3.44,8.57,7.44,8.57,3.02,0,7.06-1.47,7.06-8.4Z"></path><path class="cls-8" d="m567.31,884.12h2.6l.29,3.91c1.01-2.14,3.07-4.45,6.76-4.45,1.26,0,2.18.21,3.02.55v3.15c-1.13-.5-2.1-.76-3.4-.76-3.74,0-6.34,2.81-6.34,5.75v12.85h-2.94v-21Z"></path><path class="cls-8" d="m582.3,894.62c0-6.22,3.32-11.05,10.38-11.05,6.6,0,10.25,4.83,10.25,11.05s-3.7,11.05-10.29,11.05c-7.27,0-10.33-4.83-10.33-11.05Zm17.56,0c0-5.33-2.9-8.49-7.23-8.49-4.75,0-7.27,3.15-7.27,8.49s2.56,8.49,7.27,8.49c4.33,0,7.23-3.15,7.23-8.49Z"></path><path class="cls-8" d="m608.81,884.12h2.39l.34,3.86h.08c1.13-2.48,4.03-4.41,7.86-4.41,6.3,0,9.66,3.99,9.66,11.01s-4.28,11.09-9.87,11.09c-3.78,0-6.39-1.6-7.44-3.7h-.08v11.55h-2.94v-29.41Zm17.18,10.63c0-7.18-3.4-8.61-6.93-8.61-4.24,0-7.56,2.73-7.56,8.44,0,6.01,3.44,8.57,7.44,8.57,3.02,0,7.06-1.47,7.06-8.4Z"></path><path class="cls-8" d="m633.33,894.62c0-6.22,3.32-11.05,10.38-11.05,6.6,0,10.25,4.83,10.25,11.05s-3.7,11.05-10.29,11.05c-7.27,0-10.33-4.83-10.33-11.05Zm17.56,0c0-5.33-2.9-8.49-7.23-8.49-4.75,0-7.27,3.15-7.27,8.49s2.56,8.49,7.27,8.49c4.33,0,7.23-3.15,7.23-8.49Z"></path><path class="cls-8" d="m659.84,884.12h2.6l.29,3.91c1.01-2.14,3.07-4.45,6.76-4.45,1.26,0,2.18.21,3.02.55v3.15c-1.13-.5-2.1-.76-3.4-.76-3.74,0-6.34,2.81-6.34,5.75v12.85h-2.94v-21Z"></path><path class="cls-8" d="m688.1,902.44v2.6c-.76.21-2.14.59-4.03.59-3.82,0-6.34-1.6-6.34-6.89v-12.18h-4.16v-2.44h4.16v-6.05l2.94-1.43v7.48h5.92v2.44h-5.92v11.8c0,2.81.76,4.58,3.4,4.58,1.6,0,3.23-.29,4.03-.5Z"></path><path class="cls-8" d="m692.93,872.36h2.98v6.51h-2.98v-6.51Zm0,11.76h2.94v21h-2.94v-21Z"></path><path class="cls-8" d="m701.58,894.62c0-6.22,3.32-11.05,10.38-11.05,6.6,0,10.25,4.83,10.25,11.05s-3.7,11.05-10.29,11.05c-7.27,0-10.33-4.83-10.33-11.05Zm17.56,0c0-5.33-2.9-8.49-7.23-8.49-4.75,0-7.27,3.15-7.27,8.49s2.56,8.49,7.27,8.49c4.33,0,7.23-3.15,7.23-8.49Z"></path><path class="cls-8" d="m728.09,884.12h2.6l.29,3.49c1.01-2.14,3.28-4.03,7.35-4.03,4.75,0,7.77,2.52,7.77,7.94v13.61h-2.94v-13.27c0-4.33-2.14-5.71-5.5-5.71-3.82,0-6.64,2.69-6.64,5.63v13.36h-2.94v-21Z"></path><path class="cls-8" d="m751.56,898.7v-1.18h2.94v1.13c0,2.86,2.14,4.5,5.96,4.5s5.8-1.01,5.8-3.78c0-2.06-1.01-2.81-3.86-3.32l-4.62-.84c-3.02-.55-5.54-2.02-5.54-5.5,0-3.15,2.35-6.13,8.4-6.13s8.4,3.02,8.4,7.23v.88h-2.98v-.76c0-3.44-2.14-4.91-5.42-4.91-3.95,0-5.33,1.34-5.33,3.36s1.01,2.86,3.91,3.4l4.03.76c4.12.76,6.09,1.93,6.09,5.59,0,4.58-4.12,6.55-8.78,6.55-7.31,0-8.99-3.28-8.99-6.97Z"></path><path class="cls-8" d="m784.87,872.36h2.98v6.51h-2.98v-6.51Zm0,11.76h2.94v21h-2.94v-21Z"></path><path class="cls-8" d="m795.2,884.12h2.6l.29,3.49c1.01-2.14,3.28-4.03,7.35-4.03,4.75,0,7.77,2.52,7.77,7.94v13.61h-2.94v-13.27c0-4.33-2.14-5.71-5.5-5.71-3.82,0-6.64,2.69-6.64,5.63v13.36h-2.94v-21Z"></path><path class="cls-8" d="m831.91,882.82h-3.36v-5.08c0-3.95.88-5.29,3.4-5.97l.67,1.85c-1.76.67-2.06,1.09-2.06,3.78v.34h1.34v5.08Zm5.92,0h-3.36v-5.08c0-3.95.88-5.29,3.4-5.97l.67,1.85c-1.76.67-2.06,1.09-2.06,3.78v.34h1.34v5.08Z"></path><path class="cls-8" d="m847.03,901.64h-.08l-.76,3.49h-1.97v-32.77h2.94v15.25h.04c1.26-2.31,4.07-4.03,7.69-4.03,6.3,0,9.66,3.99,9.66,11.01s-4.28,11.09-9.87,11.09c-3.78,0-6.55-1.64-7.65-4.03Zm14.37-6.89c0-7.18-3.4-8.61-6.93-8.61-4.24,0-7.56,2.73-7.56,8.44,0,6.01,3.44,8.57,7.44,8.57,3.02,0,7.06-1.47,7.06-8.4Z"></path><path class="cls-8" d="m865.8,881.56c1.76-.67,2.06-1.09,2.06-3.78v-.34h-1.34v-5.08h3.36v5.08c0,3.95-.88,5.29-3.4,5.97l-.67-1.85Zm5.92,0c1.76-.67,2.06-1.09,2.06-3.78v-.34h-1.34v-5.08h3.36v5.08c0,3.95-.88,5.29-3.4,5.97l-.67-1.85Z"></path><path class="cls-8" d="m878.74,898.91h3.36v6.22c0,3.95-.88,5.29-3.4,5.96l-.67-1.85c1.76-.67,2.06-1.09,2.06-3.78v-.34h-1.34v-6.22Z"></path><path class="cls-8" d="m899.74,882.82h-3.36v-5.08c0-3.95.88-5.29,3.4-5.97l.67,1.85c-1.76.67-2.06,1.09-2.06,3.78v.34h1.34v5.08Zm5.92,0h-3.36v-5.08c0-3.95.88-5.29,3.4-5.97l.67,1.85c-1.76.67-2.06,1.09-2.06,3.78v.34h1.34v5.08Z"></path><path class="cls-8" d="m942.75,891.52v13.61h-2.94v-13.27c0-4.33-2.14-5.71-4.75-5.71-3.82,0-6.18,2.69-6.18,5.63v13.36h-2.94v-13.27c0-4.33-1.85-5.71-4.83-5.71-3.61,0-6.13,2.69-6.13,5.63v13.36h-2.94v-21h2.6l.29,3.49c1.01-2.02,3.07-4.03,6.93-4.03,2.94,0,5.38,1.39,6.43,4.28,1.22-2.39,3.57-4.28,7.14-4.28,4.28,0,7.31,2.52,7.31,7.94Z"></path><path class="cls-8" d="m947.16,881.56c1.76-.67,2.06-1.09,2.06-3.78v-.34h-1.34v-5.08h3.36v5.08c0,3.95-.88,5.29-3.4,5.97l-.67-1.85Zm5.92,0c1.76-.67,2.06-1.09,2.06-3.78v-.34h-1.34v-5.08h3.36v5.08c0,3.95-.88,5.29-3.4,5.97l-.67-1.85Z"></path><path class="cls-8" d="m960.09,898.91h3.36v6.22c0,3.95-.88,5.29-3.4,5.96l-.67-1.85c1.76-.67,2.06-1.09,2.06-3.78v-.34h-1.34v-6.22Z"></path><path class="cls-8" d="m981.09,882.82h-3.36v-5.08c0-3.95.88-5.29,3.4-5.97l.67,1.85c-1.76.67-2.06,1.09-2.06,3.78v.34h1.34v5.08Zm5.92,0h-3.36v-5.08c0-3.95.88-5.29,3.4-5.97l.67,1.85c-1.76.67-2.06,1.09-2.06,3.78v.34h1.34v5.08Z"></path><path class="cls-8" d="m993.4,884.12h2.6l.29,3.49c1.01-2.14,3.28-4.03,7.35-4.03,4.75,0,7.77,2.52,7.77,7.94v13.61h-2.94v-13.27c0-4.33-2.14-5.71-5.5-5.71-3.82,0-6.64,2.69-6.64,5.63v13.36h-2.94v-21Z"></path><path class="cls-8" d="m1015.83,881.56c1.76-.67,2.06-1.09,2.06-3.78v-.34h-1.34v-5.08h3.36v5.08c0,3.95-.88,5.29-3.4,5.97l-.67-1.85Zm5.92,0c1.76-.67,2.06-1.09,2.06-3.78v-.34h-1.34v-5.08h3.36v5.08c0,3.95-.88,5.29-3.4,5.97l-.67-1.85Z"></path><line class="cls-5" x1="735.53" y1="1123.12" x2="735.53" y2="927.44"></line></g></svg> 