<?xml version="1.0" encoding="UTF-8"?> <svg xmlns="http://www.w3.org/2000/svg" xmlns:xlink="http://www.w3.org/1999/xlink" id="Layer_1" viewBox="0 0 1920 3736"><defs><style>.cls-1,.cls-2,.cls-3,.cls-4,.cls-5,.cls-6,.cls-7,.cls-8{fill:none;}.cls-2{stroke-dasharray:0 0 1.97 19.67;}.cls-2,.cls-3,.cls-4,.cls-5,.cls-6,.cls-7,.cls-8{stroke-miterlimit:10;}.cls-2,.cls-3,.cls-4,.cls-5,.cls-6,.cls-8{stroke:#a797c9;stroke-linecap:round;stroke-width:7px;}.cls-9{clip-path:url(#clippath);}.cls-3{stroke-dasharray:0 0 1.69 16.95;}.cls-10{fill:#fff;}.cls-11{fill:#937fbb;}.cls-12{fill:#171c32;}.cls-13{clip-path:url(#clippath-1);}.cls-5{stroke-dasharray:0 0 1.85 18.54;}.cls-6{stroke-dasharray:0 0 1.74 17.45;}.cls-7{stroke:#57678b;stroke-width:3.5px;}.cls-8{stroke-dasharray:0 0 1.69 16.87;}</style><clipPath id="clippath"><rect class="cls-1" x="941.47" y="582.99" width="110.4" height="110.4" rx="55.2" ry="55.2"></rect></clipPath><clipPath id="clippath-1"><rect class="cls-1" x="538.38" y="1039.76" width="189.55" height="189.55" rx="94.77" ry="94.77"></rect></clipPath></defs><rect class="cls-12" x=".5" width="1920" height="3736"></rect><line class="cls-7" x1=".5" y1="379.56" x2="1920.5" y2="379.56"></line><line class="cls-7" x1=".5" y1="201.47" x2="1920.5" y2="201.47"></line><line class="cls-7" x1="1920.5" y1="567.54" x2=".5" y2="567.54"></line><line class="cls-7" x1=".5" y1="751.56" x2="1920.5" y2="751.56"></line><line class="cls-7" x1=".5" y1="1279.1" x2="1920.5" y2="1279.1"></line><line class="cls-7" x1=".5" y1="1102.01" x2="1920.5" y2="1102.01"></line><line class="cls-7" x1="1920.5" y1="1465.09" x2=".5" y2="1465.09"></line><line class="cls-7" x1=".5" y1="1651.1" x2="1920.5" y2="1651.1"></line><line class="cls-7" x1=".5" y1="2174.12" x2="1920.5" y2="2174.12"></line><line class="cls-7" x1=".5" y1="2002.03" x2="1920.5" y2="2002.03"></line><line class="cls-7" x1="1920.5" y1="2366.11" x2=".5" y2="2366.11"></line><line class="cls-7" x1=".5" y1="2544.12" x2="1920.5" y2="2544.12"></line><line class="cls-7" x1=".5" y1="3068" x2="1920.5" y2="3068"></line><line class="cls-7" x1=".5" y1="2892.92" x2="1920.5" y2="2892.92"></line><line class="cls-7" x1="1920.5" y1="3257.99" x2=".5" y2="3257.99"></line><line class="cls-7" x1=".5" y1="3441" x2="1920.5" y2="3441"></line><path class="cls-10" d="m1281.38,1817.42h-3.36v-5.08c0-3.95.88-5.29,3.4-5.96l.67,1.85c-1.76.67-2.06,1.09-2.06,3.78v.34h1.34v5.08Zm5.92,0h-3.36v-5.08c0-3.95.88-5.29,3.4-5.96l.67,1.85c-1.76.67-2.06,1.09-2.06,3.78v.34h1.34v5.08Z"></path><path class="cls-10" d="m1304.65,1837.04v2.6c-.76.21-2.14.59-4.03.59-3.82,0-6.34-1.6-6.34-6.89v-12.18h-4.16v-2.44h4.16v-6.05l2.94-1.43v7.48h5.92v2.44h-5.92v11.8c0,2.81.76,4.58,3.4,4.58,1.6,0,3.23-.29,4.03-.5Z"></path><path class="cls-10" d="m1306.54,1816.16c1.76-.67,2.06-1.09,2.06-3.78v-.34h-1.34v-5.08h3.36v5.08c0,3.95-.88,5.29-3.4,5.96l-.67-1.85Zm5.92,0c1.76-.67,2.06-1.09,2.06-3.78v-.34h-1.34v-5.08h3.36v5.08c0,3.95-.88,5.29-3.4,5.96l-.67-1.85Z"></path><path class="cls-10" d="m1332.07,1806.96h2.94v15.17c1.05-2.1,3.28-3.95,7.31-3.95,4.75,0,7.77,2.52,7.77,7.94v13.61h-2.94v-13.27c0-4.33-2.14-5.71-5.5-5.71-3.82,0-6.64,2.69-6.64,5.63v13.36h-2.94v-32.77Z"></path><path class="cls-10" d="m1356.18,1833.93c0-3.95,2.23-6.09,7.86-6.09h6.34v-1.72c0-2.98-1.26-5.42-5.46-5.42-3.95,0-5.33,1.51-5.33,4.12v.88h-2.98v-.84c0-5,4.2-6.68,8.32-6.68,5.8,0,8.4,2.86,8.4,8.44v13.11h-2.06l-.55-2.98h-.08c-1.26,1.89-3.7,3.53-7.35,3.53-4.92,0-7.1-2.31-7.1-6.34Zm14.2-1.85v-1.76h-7.01c-2.65,0-4.03.92-4.03,3.61,0,2.35,1.26,3.87,4.5,3.87,4.16,0,6.55-2.14,6.55-5.71Z"></path><path class="cls-10" d="m1378.78,1833.3v-1.18h2.94v1.13c0,2.86,2.14,4.5,5.96,4.5s5.8-1.01,5.8-3.78c0-2.06-1.01-2.81-3.86-3.32l-4.62-.84c-3.02-.55-5.54-2.02-5.54-5.5,0-3.15,2.35-6.13,8.4-6.13s8.4,3.02,8.4,7.23v.88h-2.98v-.76c0-3.44-2.14-4.92-5.42-4.92-3.95,0-5.33,1.34-5.33,3.36s1.01,2.86,3.91,3.4l4.03.76c4.12.76,6.09,1.93,6.09,5.59,0,4.58-4.12,6.55-8.78,6.55-7.31,0-8.99-3.28-8.99-6.97Z"></path><path class="cls-10" d="m1423.05,1837.04v2.6c-.76.21-2.14.59-4.03.59-3.82,0-6.34-1.6-6.34-6.89v-12.18h-4.16v-2.44h4.16v-6.05l2.94-1.43v7.48h5.92v2.44h-5.92v11.8c0,2.81.76,4.58,3.4,4.58,1.6,0,3.23-.29,4.03-.5Z"></path><path class="cls-10" d="m1426.62,1833.93c0-3.95,2.23-6.09,7.86-6.09h6.34v-1.72c0-2.98-1.26-5.42-5.46-5.42-3.95,0-5.33,1.51-5.33,4.12v.88h-2.98v-.84c0-5,4.2-6.68,8.32-6.68,5.8,0,8.4,2.86,8.4,8.44v13.11h-2.06l-.55-2.98h-.08c-1.26,1.89-3.7,3.53-7.35,3.53-4.92,0-7.1-2.31-7.1-6.34Zm14.2-1.85v-1.76h-7.01c-2.65,0-4.03.92-4.03,3.61,0,2.35,1.26,3.87,4.5,3.87,4.16,0,6.55-2.14,6.55-5.71Z"></path><path class="cls-10" d="m1451.1,1806.96h2.94v32.77h-2.94v-32.77Z"></path><path class="cls-10" d="m1461.39,1806.96h2.94v32.77h-2.94v-32.77Z"></path><path class="cls-10" d="m1480.08,1833.93c0-3.95,2.23-6.09,7.86-6.09h6.34v-1.72c0-2.98-1.26-5.42-5.46-5.42-3.95,0-5.33,1.51-5.33,4.12v.88h-2.98v-.84c0-5,4.2-6.68,8.32-6.68,5.8,0,8.4,2.86,8.4,8.44v13.11h-2.06l-.55-2.98h-.08c-1.26,1.89-3.7,3.53-7.35,3.53-4.92,0-7.1-2.31-7.1-6.34Zm14.2-1.85v-1.76h-7.01c-2.65,0-4.03.92-4.03,3.61,0,2.35,1.26,3.87,4.5,3.87,4.16,0,6.55-2.14,6.55-5.71Z"></path><path class="cls-10" d="m1502.68,1833.3v-1.18h2.94v1.13c0,2.86,2.14,4.5,5.96,4.5s5.8-1.01,5.8-3.78c0-2.06-1.01-2.81-3.86-3.32l-4.62-.84c-3.02-.55-5.54-2.02-5.54-5.5,0-3.15,2.35-6.13,8.4-6.13s8.4,3.02,8.4,7.23v.88h-2.98v-.76c0-3.44-2.14-4.92-5.42-4.92-3.95,0-5.33,1.34-5.33,3.36s1.01,2.86,3.91,3.4l4.03.76c4.12.76,6.09,1.93,6.09,5.59,0,4.58-4.12,6.55-8.78,6.55-7.31,0-8.99-3.28-8.99-6.97Z"></path><path class="cls-10" d="m1524.64,1829.39c0-6.38,3.23-11.22,10-11.22s8.95,3.91,8.95,8.95v.42h-3.11v-.63c0-3.82-1.64-6.09-5.84-6.09-4.75,0-7.01,3.11-7.01,8.4,0,5.63,2.39,8.49,6.93,8.49,3.82,0,5.84-1.85,5.92-5.67h3.02c-.08,4.66-3.15,8.23-9.03,8.23-7.22,0-9.83-4.75-9.83-10.88Z"></path><path class="cls-10" d="m1566.73,1830.23h-15.96c.17,4.79,2.48,7.48,6.93,7.48,3.82,0,5.67-1.43,5.97-4.83h2.98c-.29,4.24-3.28,7.39-9.03,7.39-7.06,0-9.83-4.66-9.83-10.88s3.23-11.22,10-11.22,8.95,3.99,8.95,10.21v1.85Zm-3.11-2.98c0-4.45-1.72-6.55-5.92-6.55s-6.55,2.65-6.89,6.97h12.81v-.42Z"></path><path class="cls-10" d="m1572.61,1818.72h2.6l.29,3.49c1.01-2.14,3.28-4.03,7.35-4.03,4.75,0,7.77,2.52,7.77,7.94v13.61h-2.94v-13.27c0-4.33-2.14-5.71-5.5-5.71-3.82,0-6.64,2.69-6.64,5.63v13.36h-2.94v-21Z"></path><path class="cls-10" d="m1596.3,1829.27c0-7.1,4.28-11.09,10.04-11.09,3.7,0,6.22,1.6,7.31,3.74h.04v-14.96h2.94v32.77h-1.97l-.67-3.61h-.08c-1.18,2.31-3.95,4.16-7.77,4.16-6.3,0-9.83-3.99-9.83-11.01Zm17.64-.5c0-5.5-3.36-8.07-7.35-8.07-3.11,0-7.14,1.47-7.14,8.4s3.61,8.61,7.14,8.61c4.24,0,7.35-2.73,7.35-8.95Z"></path><path class="cls-10" d="m1641.24,1830.23h-15.96c.17,4.79,2.48,7.48,6.93,7.48,3.82,0,5.67-1.43,5.97-4.83h2.98c-.29,4.24-3.28,7.39-9.03,7.39-7.06,0-9.83-4.66-9.83-10.88s3.23-11.22,10-11.22,8.95,3.99,8.95,10.21v1.85Zm-3.11-2.98c0-4.45-1.72-6.55-5.92-6.55s-6.55,2.65-6.89,6.97h12.81v-.42Z"></path><path class="cls-10" d="m1647.12,1818.72h2.6l.29,3.91c1.01-2.14,3.07-4.45,6.76-4.45,1.26,0,2.18.21,3.02.55v3.15c-1.13-.5-2.1-.76-3.4-.76-3.74,0-6.34,2.81-6.34,5.75v12.85h-2.94v-21Z"></path><rect class="cls-11" x="538.38" y="1039.76" width="189.55" height="189.55" rx="94.77" ry="94.77"></rect><line class="cls-4" x1="933.14" y1="1782.33" x2="933.14" y2="1781.46"></line><line class="cls-3" x1="933.14" y1="1764.51" x2="933.14" y2="1493.35"></line><line class="cls-4" x1="933.14" y1="1484.87" x2="933.14" y2="1484"></line><line class="cls-4" x1="1006.67" y1="874.44" x2="1006.67" y2="873.57"></line><line class="cls-8" x1="1006.67" y1="856.7" x2="1006.67" y2="716.65"></line><line class="cls-4" x1="1006.67" y1="708.21" x2="1006.67" y2="707.34"></line><line class="cls-4" x1="633.15" y1="1024.76" x2="633.15" y2="1023.88"></line><line class="cls-2" x1="633.15" y1="1004.21" x2="633.15" y2="970.77"></line><line class="cls-4" x1="633.15" y1="960.93" x2="633.15" y2="960.06"></line><line class="cls-4" x1="1469.18" y1="1987.38" x2="1469.18" y2="1986.51"></line><line class="cls-5" x1="1469.18" y1="1967.97" x2="1469.18" y2="1875.27"></line><line class="cls-4" x1="1469.18" y1="1866" x2="1469.18" y2="1865.13"></line><rect class="cls-11" x="705.81" y="2002.34" width="56.94" height="543.78"></rect><path class="cls-10" d="m661.59,2601.14v-19.95h2.94v19.95c0,9.41,4.07,10.63,8.86,10.63s8.78-1.01,8.78-10.63v-19.95h2.94v19.62c0,11.64-5.33,13.69-11.76,13.69s-11.76-2.06-11.76-13.36Z"></path><path class="cls-10" d="m692.88,2592.95h2.39l.34,3.86h.08c1.13-2.48,4.03-4.41,7.86-4.41,6.3,0,9.66,3.99,9.66,11.01s-4.29,11.09-9.87,11.09c-3.78,0-6.38-1.6-7.43-3.7h-.08v11.55h-2.94v-29.41Zm17.18,10.63c0-7.18-3.4-8.61-6.93-8.61-4.24,0-7.56,2.73-7.56,8.44,0,6.01,3.45,8.57,7.44,8.57,3.02,0,7.06-1.47,7.06-8.4Z"></path><path class="cls-10" d="m719.08,2592.95h2.6l.29,3.91c1.01-2.14,3.07-4.45,6.76-4.45,1.26,0,2.18.21,3.02.55v3.15c-1.13-.5-2.1-.76-3.4-.76-3.74,0-6.34,2.81-6.34,5.75v12.85h-2.94v-21Z"></path><path class="cls-10" d="m736.39,2581.19h2.98v6.51h-2.98v-6.51Zm0,11.76h2.94v21h-2.94v-21Z"></path><path class="cls-10" d="m746.09,2615.76v-.13h3.11v.13c0,2.9,1.93,4.33,6.13,4.33,4.79,0,7.01-2.94,7.01-7.86v-2.1h-.08c-1.09,2.18-3.65,4.08-7.48,4.08-6.3,0-9.75-3.99-9.75-10.71,0-7.1,4.37-11.09,9.96-11.09,3.78,0,6.55,1.81,7.56,4.12h.13l.29-3.57h2.31v19.16c0,5.88-2.81,10.71-10.33,10.71-6.3,0-8.86-2.98-8.86-7.06Zm16.59-12.77c0-5.5-3.36-8.07-7.35-8.07-3.03,0-7.14,1.47-7.14,8.4s3.57,8.32,7.1,8.32c4.24,0,7.39-2.73,7.39-8.65Z"></path><path class="cls-10" d="m772.63,2581.19h2.94v15.16c1.05-2.1,3.28-3.95,7.31-3.95,4.75,0,7.77,2.52,7.77,7.94v13.61h-2.94v-13.27c0-4.33-2.14-5.71-5.5-5.71-3.82,0-6.64,2.69-6.64,5.63v13.36h-2.94v-32.77Z"></path><path class="cls-10" d="m808.97,2611.27v2.6c-.76.21-2.14.59-4.03.59-3.82,0-6.34-1.6-6.34-6.89v-12.18h-4.16v-2.44h4.16v-6.05l2.94-1.43v7.48h5.92v2.44h-5.92v11.8c0,2.81.76,4.58,3.4,4.58,1.6,0,3.23-.29,4.03-.5Z"></path><path class="cls-10" d="m236.97,1817.36h-3.36v-5.08c0-3.95.88-5.29,3.4-5.97l.67,1.85c-1.76.67-2.06,1.09-2.06,3.78v.34h1.34v5.08Zm5.92,0h-3.36v-5.08c0-3.95.88-5.29,3.4-5.97l.67,1.85c-1.76.67-2.06,1.09-2.06,3.78v.34h1.34v5.08Z"></path><path class="cls-10" d="m249.28,1806.9h2.94v23.23l12.14-11.47h3.65v.04l-8.4,7.86,8.78,13.06v.04h-3.36l-7.39-11.22-5.42,5.04v6.17h-2.94v-32.77Z"></path><path class="cls-10" d="m271.54,1816.1c1.76-.67,2.06-1.09,2.06-3.78v-.34h-1.34v-5.08h3.36v5.08c0,3.95-.88,5.29-3.4,5.96l-.67-1.85Zm5.92,0c1.76-.67,2.06-1.09,2.06-3.78v-.34h-1.34v-5.08h3.36v5.08c0,3.95-.88,5.29-3.4,5.96l-.67-1.85Z"></path><path class="cls-10" d="m295.81,1833.87c0-3.95,2.23-6.09,7.86-6.09h6.34v-1.72c0-2.98-1.26-5.42-5.46-5.42-3.95,0-5.33,1.51-5.33,4.12v.88h-2.98v-.84c0-5,4.2-6.68,8.32-6.68,5.8,0,8.4,2.86,8.4,8.44v13.11h-2.06l-.55-2.98h-.08c-1.26,1.89-3.7,3.53-7.35,3.53-4.92,0-7.1-2.31-7.1-6.34Zm14.2-1.85v-1.76h-7.01c-2.65,0-4.03.92-4.03,3.61,0,2.35,1.26,3.86,4.5,3.86,4.16,0,6.55-2.14,6.55-5.71Z"></path><path class="cls-10" d="m320.3,1818.66h2.6l.29,3.49c1.01-2.14,3.28-4.03,7.35-4.03,4.75,0,7.77,2.52,7.77,7.94v13.61h-2.94v-13.27c0-4.33-2.14-5.71-5.5-5.71-3.82,0-6.64,2.69-6.64,5.63v13.36h-2.94v-21Z"></path><path class="cls-10" d="m343.99,1829.2c0-7.1,4.28-11.09,10.04-11.09,3.7,0,6.22,1.6,7.31,3.74h.04v-14.95h2.94v32.77h-1.97l-.67-3.61h-.08c-1.18,2.31-3.95,4.16-7.77,4.16-6.3,0-9.83-3.99-9.83-11.01Zm17.64-.5c0-5.5-3.36-8.07-7.35-8.07-3.11,0-7.14,1.47-7.14,8.4s3.61,8.61,7.14,8.61c4.24,0,7.35-2.73,7.35-8.95Z"></path><path class="cls-10" d="m383,1817.36h-3.36v-5.08c0-3.95.88-5.29,3.4-5.97l.67,1.85c-1.76.67-2.06,1.09-2.06,3.78v.34h1.34v5.08Zm5.92,0h-3.36v-5.08c0-3.95.88-5.29,3.4-5.97l.67,1.85c-1.76.67-2.06,1.09-2.06,3.78v.34h1.34v5.08Z"></path><path class="cls-10" d="m396.36,1806.9h2.94v18.65l17.05-18.65h3.61v.04l-12.31,13.53,13.36,19.16v.04h-3.65l-11.68-17.06-6.38,7.02v10.04h-2.94v-32.77Z"></path><path class="cls-10" d="m423.32,1816.1c1.76-.67,2.06-1.09,2.06-3.78v-.34h-1.34v-5.08h3.36v5.08c0,3.95-.88,5.29-3.4,5.96l-.67-1.85Zm5.92,0c1.76-.67,2.06-1.09,2.06-3.78v-.34h-1.34v-5.08h3.36v5.08c0,3.95-.88,5.29-3.4,5.96l-.67-1.85Z"></path><path class="cls-10" d="m447.6,1833.87c0-3.95,2.23-6.09,7.86-6.09h6.34v-1.72c0-2.98-1.26-5.42-5.46-5.42-3.95,0-5.33,1.51-5.33,4.12v.88h-2.98v-.84c0-5,4.2-6.68,8.32-6.68,5.8,0,8.4,2.86,8.4,8.44v13.11h-2.06l-.55-2.98h-.08c-1.26,1.89-3.7,3.53-7.35,3.53-4.92,0-7.1-2.31-7.1-6.34Zm14.2-1.85v-1.76h-7.01c-2.65,0-4.03.92-4.03,3.61,0,2.35,1.26,3.86,4.5,3.86,4.16,0,6.55-2.14,6.55-5.71Z"></path><path class="cls-10" d="m472.08,1818.66h2.6l.29,3.91c1.01-2.14,3.07-4.45,6.76-4.45,1.26,0,2.18.21,3.02.55v3.15c-1.13-.5-2.1-.76-3.4-.76-3.74,0-6.34,2.81-6.34,5.75v12.85h-2.94v-21Z"></path><path class="cls-10" d="m506.02,1830.17h-15.96c.17,4.79,2.48,7.48,6.93,7.48,3.82,0,5.67-1.43,5.97-4.83h2.98c-.29,4.24-3.28,7.39-9.03,7.39-7.06,0-9.83-4.66-9.83-10.88s3.23-11.22,10-11.22,8.95,3.99,8.95,10.21v1.85Zm-3.11-2.98c0-4.45-1.72-6.55-5.92-6.55s-6.55,2.65-6.89,6.97h12.81v-.42Z"></path><path class="cls-10" d="m518.83,1818.7v-.04h2.98l5.76,17.48h.08l6.3-17.48h2.69l6.17,17.48h.08l5.75-17.48h2.86v.04l-7.18,20.96h-3.02l-5.96-17.06h-.08l-6.22,17.06h-3.02l-7.18-20.96Z"></path><path class="cls-10" d="m556.34,1818.66h2.6l.29,3.91c1.01-2.14,3.07-4.45,6.76-4.45,1.26,0,2.18.21,3.02.55v3.15c-1.13-.5-2.1-.76-3.4-.76-3.74,0-6.34,2.81-6.34,5.75v12.85h-2.94v-21Z"></path><path class="cls-10" d="m573.64,1806.9h2.98v6.51h-2.98v-6.51Zm0,11.76h2.94v21h-2.94v-21Z"></path><path class="cls-10" d="m584.56,1833.28v-12.18h-4.16v-2.44h4.16v-6.05l2.94-1.43v7.48h11.85v-6.05l2.94-1.43v7.48h5.92v2.44h-5.92v11.8c0,2.81.76,4.58,3.4,4.58,1.6,0,3.24-.29,4.03-.5v2.6c-.76.21-2.14.59-4.03.59-3.82,0-6.34-1.6-6.34-6.89v-12.18h-11.85v11.8c0,2.81.76,4.58,3.4,4.58,1.6,0,3.23-.29,4.03-.5v2.6c-.76.21-2.14.59-4.03.59-3.82,0-6.34-1.6-6.34-6.89Z"></path><path class="cls-10" d="m631.18,1830.17h-15.96c.17,4.79,2.48,7.48,6.93,7.48,3.82,0,5.67-1.43,5.97-4.83h2.98c-.29,4.24-3.28,7.39-9.03,7.39-7.06,0-9.83-4.66-9.83-10.88s3.23-11.22,10-11.22,8.95,3.99,8.95,10.21v1.85Zm-3.11-2.98c0-4.45-1.72-6.55-5.92-6.55s-6.55,2.65-6.89,6.97h12.81v-.42Z"></path><path class="cls-10" d="m637.06,1818.66h2.6l.29,3.49c1.01-2.14,3.28-4.03,7.35-4.03,4.75,0,7.77,2.52,7.77,7.94v13.61h-2.94v-13.27c0-4.33-2.14-5.71-5.5-5.71-3.82,0-6.64,2.69-6.64,5.63v13.36h-2.94v-21Z"></path><path class="cls-10" d="m669.36,1818.7v-.04h2.98l5.76,17.48h.08l6.3-17.48h2.69l6.17,17.48h.08l5.75-17.48h2.86v.04l-7.18,20.96h-3.02l-5.96-17.06h-.08l-6.22,17.06h-3.02l-7.18-20.96Z"></path><path class="cls-10" d="m706.87,1806.9h2.98v6.51h-2.98v-6.51Zm0,11.76h2.94v21h-2.94v-21Z"></path><path class="cls-10" d="m728.16,1836.97v2.6c-.76.21-2.14.59-4.03.59-3.82,0-6.34-1.6-6.34-6.89v-12.18h-4.16v-2.44h4.16v-6.05l2.94-1.43v7.48h5.92v2.44h-5.92v11.8c0,2.81.76,4.58,3.4,4.58,1.6,0,3.23-.29,4.03-.5Z"></path><path class="cls-10" d="m732.99,1806.9h2.94v15.17c1.05-2.1,3.28-3.95,7.31-3.95,4.75,0,7.77,2.52,7.77,7.94v13.61h-2.94v-13.27c0-4.33-2.14-5.71-5.5-5.71-3.82,0-6.64,2.69-6.64,5.63v13.36h-2.94v-32.77Z"></path><path class="cls-10" d="m778.98,1836.97v2.6c-.76.21-2.14.59-4.03.59-3.82,0-6.34-1.6-6.34-6.89v-12.18h-4.16v-2.44h4.16v-6.05l2.94-1.43v7.48h5.92v2.44h-5.92v11.8c0,2.81.76,4.58,3.4,4.58,1.6,0,3.23-.29,4.03-.5Z"></path><path class="cls-10" d="m783.81,1806.9h2.94v15.17c1.05-2.1,3.28-3.95,7.31-3.95,4.75,0,7.77,2.52,7.77,7.94v13.61h-2.94v-13.27c0-4.33-2.14-5.71-5.5-5.71-3.82,0-6.64,2.69-6.64,5.63v13.36h-2.94v-32.77Z"></path><path class="cls-10" d="m809.18,1818.66h2.6l.29,3.91c1.01-2.14,3.07-4.45,6.76-4.45,1.26,0,2.18.21,3.02.55v3.15c-1.13-.5-2.1-.76-3.4-.76-3.74,0-6.34,2.81-6.34,5.75v12.85h-2.94v-21Z"></path><path class="cls-10" d="m843.12,1830.17h-15.96c.17,4.79,2.48,7.48,6.93,7.48,3.82,0,5.67-1.43,5.97-4.83h2.98c-.29,4.24-3.28,7.39-9.03,7.39-7.06,0-9.83-4.66-9.83-10.88s3.23-11.22,10-11.22,8.95,3.99,8.95,10.21v1.85Zm-3.11-2.98c0-4.45-1.72-6.55-5.92-6.55s-6.55,2.65-6.89,6.97h12.81v-.42Z"></path><path class="cls-10" d="m866.26,1830.17h-15.96c.17,4.79,2.48,7.48,6.93,7.48,3.82,0,5.67-1.43,5.97-4.83h2.98c-.29,4.24-3.28,7.39-9.03,7.39-7.06,0-9.83-4.66-9.83-10.88s3.23-11.22,10-11.22,8.95,3.99,8.95,10.21v1.85Zm-3.11-2.98c0-4.45-1.72-6.55-5.92-6.55s-6.55,2.65-6.89,6.97h12.81v-.42Z"></path><path class="cls-10" d="m879.91,1833.24v-1.18h2.94v1.13c0,2.86,2.14,4.5,5.96,4.5s5.8-1.01,5.8-3.78c0-2.06-1.01-2.81-3.86-3.32l-4.62-.84c-3.02-.55-5.54-2.02-5.54-5.5,0-3.15,2.35-6.13,8.4-6.13s8.4,3.02,8.4,7.22v.88h-2.98v-.76c0-3.45-2.14-4.92-5.42-4.92-3.95,0-5.33,1.34-5.33,3.36s1.01,2.86,3.91,3.4l4.03.76c4.12.76,6.09,1.93,6.09,5.59,0,4.58-4.12,6.55-8.78,6.55-7.31,0-8.99-3.28-8.99-6.97Z"></path><path class="cls-10" d="m914.51,1836.97v2.6c-.76.21-2.14.59-4.03.59-3.82,0-6.34-1.6-6.34-6.89v-12.18h-4.16v-2.44h4.16v-6.05l2.94-1.43v7.48h5.92v2.44h-5.92v11.8c0,2.81.76,4.58,3.4,4.58,1.6,0,3.23-.29,4.03-.5Z"></path><path class="cls-10" d="m919.34,1818.66h2.6l.29,3.91c1.01-2.14,3.07-4.45,6.76-4.45,1.26,0,2.18.21,3.02.55v3.15c-1.13-.5-2.1-.76-3.4-.76-3.74,0-6.34,2.81-6.34,5.75v12.85h-2.94v-21Z"></path><path class="cls-10" d="m934.34,1829.16c0-6.22,3.32-11.05,10.38-11.05,6.59,0,10.25,4.83,10.25,11.05s-3.7,11.05-10.29,11.05c-7.27,0-10.33-4.83-10.33-11.05Zm17.56,0c0-5.33-2.9-8.49-7.22-8.49-4.75,0-7.27,3.15-7.27,8.49s2.56,8.49,7.27,8.49c4.33,0,7.22-3.15,7.22-8.49Z"></path><path class="cls-10" d="m960.21,1806.9h2.94v23.23l12.14-11.47h3.65v.04l-8.4,7.86,8.78,13.06v.04h-3.36l-7.39-11.22-5.42,5.04v6.17h-2.94v-32.77Z"></path><path class="cls-10" d="m1000.57,1830.17h-15.96c.17,4.79,2.48,7.48,6.93,7.48,3.82,0,5.67-1.43,5.97-4.83h2.98c-.29,4.24-3.28,7.39-9.03,7.39-7.06,0-9.83-4.66-9.83-10.88s3.23-11.22,10-11.22,8.95,3.99,8.95,10.21v1.85Zm-3.11-2.98c0-4.45-1.72-6.55-5.92-6.55s-6.55,2.65-6.89,6.97h12.81v-.42Z"></path><path class="cls-10" d="m1004.56,1833.24v-1.18h2.94v1.13c0,2.86,2.14,4.5,5.96,4.5s5.8-1.01,5.8-3.78c0-2.06-1.01-2.81-3.86-3.32l-4.62-.84c-3.02-.55-5.54-2.02-5.54-5.5,0-3.15,2.35-6.13,8.4-6.13s8.4,3.02,8.4,7.22v.88h-2.98v-.76c0-3.45-2.14-4.92-5.42-4.92-3.95,0-5.33,1.34-5.33,3.36s1.01,2.86,3.91,3.4l4.03.76c4.12.76,6.09,1.93,6.09,5.59,0,4.58-4.12,6.55-8.78,6.55-7.31,0-8.99-3.28-8.99-6.97Z"></path><rect class="cls-11" x="941.47" y="583.99" width="110.4" height="110.4" rx="55.2" ry="55.2"></rect><path class="cls-10" d="m902.31,909.04h-3.36v-5.08c0-3.95.88-5.29,3.4-5.97l.67,1.85c-1.76.67-2.06,1.09-2.06,3.78v.34h1.34v5.08Zm5.92,0h-3.36v-5.08c0-3.95.88-5.29,3.4-5.97l.67,1.85c-1.76.67-2.06,1.09-2.06,3.78v.34h1.34v5.08Z"></path><path class="cls-10" d="m928.56,927.86h-.08c-1.09,2.14-3.65,4.03-7.48,4.03-6.3,0-9.75-3.99-9.75-11.01s4.37-11.09,9.96-11.09c3.78,0,6.6,1.76,7.65,4.28h.04l.29-3.74h2.31v29.41h-2.94v-11.89Zm.34-7.48c0-5.5-3.36-8.07-7.35-8.07-3.03,0-7.14,1.47-7.14,8.4s3.57,8.61,7.1,8.61c4.24,0,7.39-2.73,7.39-8.95Z"></path><path class="cls-10" d="m936.12,907.78c1.76-.67,2.06-1.09,2.06-3.78v-.34h-1.34v-5.08h3.36v5.08c0,3.95-.88,5.29-3.4,5.97l-.67-1.85Zm5.92,0c1.76-.67,2.06-1.09,2.06-3.78v-.34h-1.34v-5.08h3.36v5.08c0,3.95-.88,5.29-3.4,5.97l-.67-1.85Z"></path><path class="cls-10" d="m961.65,898.58h2.94v15.16c1.05-2.1,3.28-3.95,7.31-3.95,4.75,0,7.77,2.52,7.77,7.94v13.61h-2.94v-13.27c0-4.33-2.14-5.71-5.5-5.71-3.82,0-6.64,2.69-6.64,5.63v13.36h-2.94v-32.77Z"></path><path class="cls-10" d="m985.76,925.55c0-3.95,2.23-6.09,7.86-6.09h6.34v-1.72c0-2.98-1.26-5.42-5.46-5.42-3.95,0-5.33,1.51-5.33,4.12v.88h-2.98v-.84c0-5,4.2-6.68,8.32-6.68,5.8,0,8.4,2.86,8.4,8.44v13.11h-2.06l-.55-2.98h-.08c-1.26,1.89-3.7,3.53-7.35,3.53-4.92,0-7.1-2.31-7.1-6.34Zm14.2-1.85v-1.76h-7.01c-2.65,0-4.03.92-4.03,3.61,0,2.35,1.26,3.86,4.5,3.86,4.16,0,6.55-2.14,6.55-5.71Z"></path><path class="cls-10" d="m1008.36,924.92v-1.18h2.94v1.13c0,2.86,2.14,4.5,5.96,4.5s5.8-1.01,5.8-3.78c0-2.06-1.01-2.81-3.86-3.32l-4.62-.84c-3.02-.55-5.54-2.02-5.54-5.5,0-3.15,2.35-6.13,8.4-6.13s8.4,3.02,8.4,7.23v.88h-2.98v-.76c0-3.44-2.14-4.91-5.42-4.91-3.95,0-5.33,1.34-5.33,3.36s1.01,2.86,3.91,3.4l4.03.76c4.12.76,6.09,1.93,6.09,5.59,0,4.58-4.12,6.55-8.78,6.55-7.31,0-8.99-3.28-8.99-6.97Z"></path><path class="cls-10" d="m1040.4,925.55c0-3.95,2.23-6.09,7.86-6.09h6.34v-1.72c0-2.98-1.26-5.42-5.46-5.42-3.95,0-5.33,1.51-5.33,4.12v.88h-2.98v-.84c0-5,4.2-6.68,8.32-6.68,5.8,0,8.4,2.86,8.4,8.44v13.11h-2.06l-.55-2.98h-.08c-1.26,1.89-3.7,3.53-7.35,3.53-4.92,0-7.1-2.31-7.1-6.34Zm14.2-1.85v-1.76h-7.01c-2.65,0-4.03.92-4.03,3.61,0,2.35,1.26,3.86,4.5,3.86,4.16,0,6.55-2.14,6.55-5.71Z"></path><path class="cls-10" d="m1064.89,910.34h2.6l.29,3.49c1.01-2.14,3.28-4.03,7.35-4.03,4.75,0,7.77,2.52,7.77,7.94v13.61h-2.94v-13.27c0-4.33-2.14-5.71-5.5-5.71-3.82,0-6.64,2.69-6.64,5.63v13.36h-2.94v-21Z"></path><path class="cls-10" d="m1117.18,921.85h-15.96c.17,4.79,2.48,7.48,6.93,7.48,3.82,0,5.67-1.43,5.97-4.83h2.98c-.29,4.24-3.28,7.39-9.03,7.39-7.06,0-9.83-4.66-9.83-10.88s3.23-11.22,10-11.22,8.95,3.99,8.95,10.21v1.85Zm-3.11-2.98c0-4.45-1.72-6.55-5.92-6.55s-6.55,2.65-6.89,6.97h12.81v-.42Z"></path><path class="cls-10" d="m1138.43,910.38l-8.07,10.5,8.02,10.42v.04h-3.44l-6.34-8.44-6.43,8.44h-3.28v-.04l8.02-10.38-8.07-10.54v-.04h3.44l6.39,8.49,6.43-8.44v-.04h3.32v.04Z"></path><path class="cls-10" d="m1142.97,898.58h2.98v6.51h-2.98v-6.51Zm0,11.76h2.94v21h-2.94v-21Z"></path><path class="cls-10" d="m1164.26,928.66v2.6c-.76.21-2.14.59-4.03.59-3.82,0-6.34-1.6-6.34-6.89v-12.18h-4.16v-2.44h4.16v-6.05l2.94-1.43v7.48h5.92v2.44h-5.92v11.8c0,2.81.76,4.58,3.4,4.58,1.6,0,3.23-.29,4.03-.5Z"></path><path class="cls-10" d="m1176.86,924.92v-1.18h2.94v1.13c0,2.86,2.14,4.5,5.96,4.5s5.8-1.01,5.8-3.78c0-2.06-1.01-2.81-3.86-3.32l-4.62-.84c-3.02-.55-5.54-2.02-5.54-5.5,0-3.15,2.35-6.13,8.4-6.13s8.4,3.02,8.4,7.23v.88h-2.98v-.76c0-3.44-2.14-4.91-5.42-4.91-3.95,0-5.33,1.34-5.33,3.36s1.01,2.86,3.91,3.4l4.03.76c4.12.76,6.09,1.93,6.09,5.59,0,4.58-4.12,6.55-8.78,6.55-7.31,0-8.99-3.28-8.99-6.97Z"></path><path class="cls-10" d="m1211.47,928.66v2.6c-.76.21-2.14.59-4.03.59-3.82,0-6.34-1.6-6.34-6.89v-12.18h-4.16v-2.44h4.16v-6.05l2.94-1.43v7.48h5.92v2.44h-5.92v11.8c0,2.81.76,4.58,3.4,4.58,1.6,0,3.23-.29,4.03-.5Z"></path><path class="cls-10" d="m1216.3,910.34h2.6l.29,3.91c1.01-2.14,3.07-4.45,6.76-4.45,1.26,0,2.18.21,3.02.55v3.15c-1.13-.5-2.1-.76-3.4-.76-3.74,0-6.34,2.81-6.34,5.75v12.85h-2.94v-21Z"></path><path class="cls-10" d="m1231.29,920.84c0-6.22,3.32-11.05,10.38-11.05,6.59,0,10.25,4.83,10.25,11.05s-3.7,11.05-10.29,11.05c-7.27,0-10.33-4.83-10.33-11.05Zm17.56,0c0-5.33-2.9-8.49-7.22-8.49-4.75,0-7.27,3.15-7.27,8.49s2.56,8.49,7.27,8.49c4.33,0,7.22-3.15,7.22-8.49Z"></path><path class="cls-10" d="m1257.17,898.58h2.94v23.23l12.14-11.47h3.65v.04l-8.4,7.86,8.78,13.06v.04h-3.36l-7.39-11.22-5.42,5.04v6.18h-2.94v-32.77Z"></path><path class="cls-10" d="m1297.53,921.85h-15.96c.17,4.79,2.48,7.48,6.93,7.48,3.82,0,5.67-1.43,5.97-4.83h2.98c-.29,4.24-3.28,7.39-9.03,7.39-7.06,0-9.83-4.66-9.83-10.88s3.23-11.22,10-11.22,8.95,3.99,8.95,10.21v1.85Zm-3.11-2.98c0-4.45-1.72-6.55-5.92-6.55s-6.55,2.65-6.89,6.97h12.81v-.42Z"></path><path class="cls-10" d="m830.39,3535.34h8.61c7.94,0,11.64,2.44,11.64,8.86,0,4.58-2.18,7.98-6.76,9.33l7.86,14.53v.04h-3.32l-7.35-14.03c-.67.04-1.34.08-2.1.08h-5.59v13.95h-2.98v-32.77Zm8.74,16.3c6.09,0,8.49-2.81,8.49-7.31,0-4.75-2.6-6.38-8.44-6.38h-5.8v13.69h5.76Z"></path><path class="cls-10" d="m854.88,3557.6c0-6.22,3.32-11.05,10.38-11.05,6.59,0,10.25,4.83,10.25,11.05s-3.7,11.05-10.29,11.05c-7.27,0-10.33-4.83-10.33-11.05Zm17.56,0c0-5.33-2.9-8.49-7.22-8.49-4.75,0-7.27,3.15-7.27,8.49s2.56,8.49,7.27,8.49c4.33,0,7.22-3.15,7.22-8.49Z"></path><path class="cls-10" d="m880.96,3560.71v-13.61h2.94v13.27c0,4.33,2.14,5.71,5.42,5.71,3.74,0,6.55-2.69,6.55-5.63v-13.36h2.94v21h-2.6l-.25-3.36h-.08c-.97,2.02-3.23,3.91-7.23,3.91-4.66,0-7.69-2.52-7.69-7.94Z"></path><path class="cls-10" d="m906.16,3547.1h2.6l.29,3.49c1.01-2.14,3.28-4.03,7.35-4.03,4.75,0,7.77,2.52,7.77,7.94v13.61h-2.94v-13.27c0-4.33-2.14-5.71-5.5-5.71-3.82,0-6.64,2.69-6.64,5.63v13.36h-2.94v-21Z"></path><path class="cls-10" d="m929.85,3557.65c0-7.1,4.28-11.09,10.04-11.09,3.7,0,6.22,1.6,7.31,3.74h.04v-14.96h2.94v32.77h-1.97l-.67-3.61h-.08c-1.18,2.31-3.95,4.16-7.77,4.16-6.3,0-9.83-3.99-9.83-11.01Zm17.64-.5c0-5.5-3.36-8.07-7.35-8.07-3.11,0-7.14,1.47-7.14,8.4s3.61,8.61,7.14,8.61c4.24,0,7.35-2.73,7.35-8.95Z"></path><path class="cls-10" d="m971.34,3542.06v5.04h5.92v2.44h-5.92v18.57h-2.94v-18.57h-4.16v-2.44h4.16v-5.42c0-5.29,3.15-6.89,6.38-6.89,1.85,0,2.98.29,3.74.55v2.6c-.71-.21-1.89-.46-3.49-.46-2.65,0-3.7,1.76-3.7,4.58Z"></path><path class="cls-10" d="m979.15,3557.6c0-6.22,3.32-11.05,10.38-11.05,6.59,0,10.25,4.83,10.25,11.05s-3.7,11.05-10.29,11.05c-7.27,0-10.33-4.83-10.33-11.05Zm17.56,0c0-5.33-2.9-8.49-7.22-8.49-4.75,0-7.27,3.15-7.27,8.49s2.56,8.49,7.27,8.49c4.33,0,7.22-3.15,7.22-8.49Z"></path><path class="cls-10" d="m1005.24,3560.71v-13.61h2.94v13.27c0,4.33,2.14,5.71,5.42,5.71,3.74,0,6.55-2.69,6.55-5.63v-13.36h2.94v21h-2.6l-.25-3.36h-.08c-.97,2.02-3.23,3.91-7.23,3.91-4.66,0-7.69-2.52-7.69-7.94Z"></path><path class="cls-10" d="m1030.44,3547.1h2.6l.29,3.49c1.01-2.14,3.28-4.03,7.35-4.03,4.75,0,7.77,2.52,7.77,7.94v13.61h-2.94v-13.27c0-4.33-2.14-5.71-5.5-5.71-3.82,0-6.64,2.69-6.64,5.63v13.36h-2.94v-21Z"></path><path class="cls-10" d="m1054.12,3557.65c0-7.1,4.28-11.09,10.04-11.09,3.7,0,6.22,1.6,7.31,3.74h.04v-14.96h2.94v32.77h-1.97l-.67-3.61h-.08c-1.18,2.31-3.95,4.16-7.77,4.16-6.3,0-9.83-3.99-9.83-11.01Zm17.64-.5c0-5.5-3.36-8.07-7.35-8.07-3.11,0-7.14,1.47-7.14,8.4s3.61,8.61,7.14,8.61c4.24,0,7.35-2.73,7.35-8.95Z"></path><path class="cls-10" d="m1080.54,3562.31c0-3.95,2.23-6.09,7.86-6.09h6.34v-1.72c0-2.98-1.26-5.42-5.46-5.42-3.95,0-5.33,1.51-5.33,4.12v.88h-2.98v-.84c0-5,4.2-6.68,8.32-6.68,5.8,0,8.4,2.86,8.4,8.44v13.11h-2.06l-.55-2.98h-.08c-1.26,1.89-3.7,3.53-7.35,3.53-4.92,0-7.1-2.31-7.1-6.34Zm14.2-1.85v-1.76h-7.01c-2.65,0-4.03.92-4.03,3.61,0,2.35,1.26,3.87,4.5,3.87,4.16,0,6.55-2.14,6.55-5.71Z"></path><path class="cls-10" d="m1115.78,3565.42v2.6c-.76.21-2.14.59-4.03.59-3.82,0-6.34-1.6-6.34-6.89v-12.18h-4.16v-2.44h4.16v-6.05l2.94-1.43v7.48h5.92v2.44h-5.92v11.8c0,2.81.76,4.58,3.4,4.58,1.6,0,3.23-.29,4.03-.5Z"></path><path class="cls-10" d="m1120.61,3535.34h2.98v6.51h-2.98v-6.51Zm0,11.76h2.94v21h-2.94v-21Z"></path><path class="cls-10" d="m1129.26,3557.6c0-6.22,3.32-11.05,10.38-11.05,6.59,0,10.25,4.83,10.25,11.05s-3.7,11.05-10.29,11.05c-7.27,0-10.33-4.83-10.33-11.05Zm17.56,0c0-5.33-2.9-8.49-7.22-8.49-4.75,0-7.27,3.15-7.27,8.49s2.56,8.49,7.27,8.49c4.33,0,7.22-3.15,7.22-8.49Z"></path><path class="cls-10" d="m1155.76,3547.1h2.6l.29,3.49c1.01-2.14,3.28-4.03,7.35-4.03,4.75,0,7.77,2.52,7.77,7.94v13.61h-2.94v-13.27c0-4.33-2.14-5.71-5.5-5.71-3.82,0-6.64,2.69-6.64,5.63v13.36h-2.94v-21Z"></path><path class="cls-10" d="m1179.87,3562.31c0-3.95,2.23-6.09,7.86-6.09h6.34v-1.72c0-2.98-1.26-5.42-5.46-5.42-3.95,0-5.33,1.51-5.33,4.12v.88h-2.98v-.84c0-5,4.2-6.68,8.32-6.68,5.8,0,8.4,2.86,8.4,8.44v13.11h-2.06l-.55-2.98h-.08c-1.26,1.89-3.7,3.53-7.35,3.53-4.92,0-7.1-2.31-7.1-6.34Zm14.2-1.85v-1.76h-7.01c-2.65,0-4.03.92-4.03,3.61,0,2.35,1.26,3.87,4.5,3.87,4.16,0,6.55-2.14,6.55-5.71Z"></path><path class="cls-10" d="m1204.36,3535.34h2.94v32.77h-2.94v-32.77Z"></path><path class="cls-10" d="m1228.47,3542.06v5.04h5.92v2.44h-5.92v18.57h-2.94v-18.57h-4.16v-2.44h4.16v-5.42c0-5.29,3.15-6.89,6.38-6.89,1.85,0,2.98.29,3.74.55v2.6c-.71-.21-1.89-.46-3.49-.46-2.65,0-3.7,1.76-3.7,4.58Z"></path><path class="cls-10" d="m1236.28,3557.6c0-6.22,3.32-11.05,10.38-11.05,6.59,0,10.25,4.83,10.25,11.05s-3.7,11.05-10.29,11.05c-7.27,0-10.33-4.83-10.33-11.05Zm17.56,0c0-5.33-2.9-8.49-7.22-8.49-4.75,0-7.27,3.15-7.27,8.49s2.56,8.49,7.27,8.49c4.33,0,7.22-3.15,7.22-8.49Z"></path><path class="cls-10" d="m1262.78,3547.1h2.6l.29,3.91c1.01-2.14,3.07-4.45,6.76-4.45,1.26,0,2.18.21,3.02.55v3.15c-1.13-.5-2.1-.76-3.4-.76-3.74,0-6.34,2.81-6.34,5.75v12.85h-2.94v-21Z"></path><path class="cls-10" d="m1310.79,3554.5v13.61h-2.94v-13.27c0-4.33-2.14-5.71-4.75-5.71-3.82,0-6.17,2.69-6.17,5.63v13.36h-2.94v-13.27c0-4.33-1.85-5.71-4.83-5.71-3.61,0-6.13,2.69-6.13,5.63v13.36h-2.94v-21h2.6l.29,3.49c1.01-2.02,3.07-4.03,6.93-4.03,2.94,0,5.38,1.39,6.43,4.29,1.22-2.39,3.57-4.29,7.14-4.29,4.29,0,7.31,2.52,7.31,7.94Z"></path><path class="cls-10" d="m1316.25,3561.68v-1.18h2.94v1.13c0,2.86,2.14,4.5,5.96,4.5s5.8-1.01,5.8-3.78c0-2.06-1.01-2.81-3.86-3.32l-4.62-.84c-3.02-.55-5.54-2.02-5.54-5.5,0-3.15,2.35-6.13,8.4-6.13s8.4,3.02,8.4,7.23v.88h-2.98v-.76c0-3.44-2.14-4.92-5.42-4.92-3.95,0-5.33,1.34-5.33,3.36s1.01,2.86,3.91,3.4l4.03.76c4.12.76,6.09,1.93,6.09,5.59,0,4.58-4.12,6.55-8.78,6.55-7.31,0-8.99-3.28-8.99-6.97Z"></path><rect class="cls-11" x="833.32" y="3090.71" width="143.66" height="143.66" rx="71.83" ry="71.83"></rect><line class="cls-6" x1="899.8" y1="3279.59" x2="899.8" y2="3516.36"></line><line class="cls-6" x1="1098.47" y1="2753.79" x2="1098.47" y2="2873.37"></line><path class="cls-10" d="m202.88,909.44h-3.36v-5.08c0-3.95.88-5.29,3.4-5.97l.67,1.85c-1.76.67-2.06,1.09-2.06,3.78v.34h1.34v5.08Zm5.92,0h-3.36v-5.08c0-3.95.88-5.29,3.4-5.97l.67,1.85c-1.76.67-2.06,1.09-2.06,3.78v.34h1.34v5.08Z"></path><path class="cls-10" d="m213.93,923.72v-3.65h2.86v3.57c0,4.41,2.6,6.01,6.68,6.01,5.25,0,7.06-2.52,7.06-7.02v-21.05h-14.37v-2.6h17.31v24.03c0,6.81-4.66,9.28-10.12,9.28-5.84,0-9.41-2.44-9.41-8.57Z"></path><path class="cls-10" d="m239.55,908.18c1.76-.67,2.06-1.09,2.06-3.78v-.34h-1.34v-5.08h3.36v5.08c0,3.95-.88,5.29-3.4,5.97l-.67-1.85Zm5.92,0c1.76-.67,2.06-1.09,2.06-3.78v-.34h-1.34v-5.08h3.36v5.08c0,3.95-.88,5.29-3.4,5.97l-.67-1.85Z"></path><path class="cls-10" d="m265.08,898.98h2.94v15.16c1.05-2.1,3.28-3.95,7.31-3.95,4.75,0,7.77,2.52,7.77,7.94v13.61h-2.94v-13.27c0-4.33-2.14-5.71-5.5-5.71-3.82,0-6.64,2.69-6.64,5.63v13.36h-2.94v-32.77Z"></path><path class="cls-10" d="m289.19,925.95c0-3.95,2.23-6.09,7.86-6.09h6.34v-1.72c0-2.98-1.26-5.42-5.46-5.42-3.95,0-5.33,1.51-5.33,4.12v.88h-2.98v-.84c0-5,4.2-6.68,8.32-6.68,5.8,0,8.4,2.86,8.4,8.44v13.11h-2.06l-.55-2.98h-.08c-1.26,1.89-3.7,3.53-7.35,3.53-4.92,0-7.1-2.31-7.1-6.34Zm14.2-1.85v-1.76h-7.01c-2.65,0-4.03.92-4.03,3.61,0,2.35,1.26,3.86,4.5,3.86,4.16,0,6.55-2.14,6.55-5.71Z"></path><path class="cls-10" d="m311.79,925.32v-1.18h2.94v1.13c0,2.86,2.14,4.5,5.96,4.5s5.8-1.01,5.8-3.78c0-2.06-1.01-2.81-3.86-3.32l-4.62-.84c-3.02-.55-5.54-2.02-5.54-5.5,0-3.15,2.35-6.13,8.4-6.13s8.4,3.02,8.4,7.23v.88h-2.98v-.76c0-3.44-2.14-4.91-5.42-4.91-3.95,0-5.33,1.34-5.33,3.36s1.01,2.86,3.91,3.4l4.03.76c4.12.76,6.09,1.93,6.09,5.59,0,4.58-4.12,6.55-8.78,6.55-7.31,0-8.99-3.28-8.99-6.97Z"></path><path class="cls-10" d="m343.2,925.32v-1.18h2.94v1.13c0,2.86,2.14,4.5,5.96,4.5s5.8-1.01,5.8-3.78c0-2.06-1.01-2.81-3.86-3.32l-4.62-.84c-3.02-.55-5.54-2.02-5.54-5.5,0-3.15,2.35-6.13,8.4-6.13s8.4,3.02,8.4,7.23v.88h-2.98v-.76c0-3.44-2.14-4.91-5.42-4.91-3.95,0-5.33,1.34-5.33,3.36s1.01,2.86,3.91,3.4l4.03.76c4.12.76,6.09,1.93,6.09,5.59,0,4.58-4.12,6.55-8.78,6.55-7.31,0-8.99-3.28-8.99-6.97Z"></path><path class="cls-10" d="m384.11,922.25h-15.96c.17,4.79,2.48,7.48,6.93,7.48,3.82,0,5.67-1.43,5.97-4.83h2.98c-.29,4.24-3.28,7.39-9.03,7.39-7.06,0-9.83-4.66-9.83-10.88s3.23-11.22,10-11.22,8.95,3.99,8.95,10.21v1.85Zm-3.11-2.98c0-4.45-1.72-6.55-5.92-6.55s-6.55,2.65-6.89,6.97h12.81v-.42Z"></path><path class="cls-10" d="m389.99,910.74h2.6l.29,3.91c1.01-2.14,3.07-4.45,6.76-4.45,1.26,0,2.18.21,3.02.55v3.15c-1.13-.5-2.1-.76-3.4-.76-3.74,0-6.34,2.81-6.34,5.75v12.85h-2.94v-21Z"></path><path class="cls-10" d="m407.29,898.98h2.98v6.51h-2.98v-6.51Zm0,11.76h2.94v21h-2.94v-21Z"></path><path class="cls-10" d="m421.79,905.7v5.04h5.92v2.44h-5.92v18.57h-2.94v-18.57h-4.16v-2.44h4.16v-5.42c0-5.29,3.15-6.89,6.38-6.89,1.85,0,2.98.29,3.74.55v2.6c-.71-.21-1.89-.46-3.49-.46-2.65,0-3.7,1.76-3.7,4.58Z"></path><path class="cls-10" d="m444.8,928.26h-.08l-.76,3.49h-1.97v-32.77h2.94v15.25h.04c1.26-2.31,4.07-4.03,7.69-4.03,6.3,0,9.66,3.99,9.66,11.01s-4.29,11.09-9.87,11.09c-3.78,0-6.55-1.64-7.65-4.03Zm14.37-6.89c0-7.18-3.4-8.61-6.93-8.61-4.24,0-7.56,2.73-7.56,8.44,0,6.01,3.45,8.57,7.44,8.57,3.02,0,7.06-1.47,7.06-8.4Z"></path><path class="cls-10" d="m467.77,924.35v-13.61h2.94v13.27c0,4.33,2.14,5.71,5.42,5.71,3.74,0,6.55-2.69,6.55-5.63v-13.36h2.94v21h-2.6l-.25-3.36h-.08c-.97,2.02-3.23,3.91-7.23,3.91-4.66,0-7.69-2.52-7.69-7.94Z"></path><path class="cls-10" d="m503.94,929.06v2.6c-.76.21-2.14.59-4.03.59-3.82,0-6.34-1.6-6.34-6.89v-12.18h-4.16v-2.44h4.16v-6.05l2.94-1.43v7.48h5.92v2.44h-5.92v11.8c0,2.81.76,4.58,3.4,4.58,1.6,0,3.23-.29,4.03-.5Z"></path><path class="cls-10" d="m518.43,910.74h2.6l.29,3.49c1.01-2.14,3.28-4.03,7.35-4.03,4.75,0,7.77,2.52,7.77,7.94v13.61h-2.94v-13.27c0-4.33-2.14-5.71-5.5-5.71-3.82,0-6.64,2.69-6.64,5.63v13.36h-2.94v-21Z"></path><path class="cls-10" d="m542.12,921.24c0-6.22,3.32-11.05,10.38-11.05,6.59,0,10.25,4.83,10.25,11.05s-3.7,11.05-10.29,11.05c-7.27,0-10.33-4.83-10.33-11.05Zm17.56,0c0-5.33-2.9-8.49-7.22-8.49-4.75,0-7.27,3.15-7.27,8.49s2.56,8.49,7.27,8.49c4.33,0,7.22-3.15,7.22-8.49Z"></path><path class="cls-10" d="m579.58,929.06v2.6c-.76.21-2.14.59-4.03.59-3.82,0-6.34-1.6-6.34-6.89v-12.18h-4.16v-2.44h4.16v-6.05l2.94-1.43v7.48h5.92v2.44h-5.92v11.8c0,2.81.76,4.58,3.4,4.58,1.6,0,3.23-.29,4.03-.5Z"></path><path class="cls-10" d="m605.03,929.06v2.6c-.76.21-2.14.59-4.03.59-3.82,0-6.34-1.6-6.34-6.89v-12.18h-4.16v-2.44h4.16v-6.05l2.94-1.43v7.48h5.92v2.44h-5.92v11.8c0,2.81.76,4.58,3.4,4.58,1.6,0,3.23-.29,4.03-.5Z"></path><path class="cls-10" d="m609.86,898.98h2.94v15.16c1.05-2.1,3.28-3.95,7.31-3.95,4.75,0,7.77,2.52,7.77,7.94v13.61h-2.94v-13.27c0-4.33-2.14-5.71-5.5-5.71-3.82,0-6.64,2.69-6.64,5.63v13.36h-2.94v-32.77Z"></path><path class="cls-10" d="m652.49,922.25h-15.96c.17,4.79,2.48,7.48,6.93,7.48,3.82,0,5.67-1.43,5.97-4.83h2.98c-.29,4.24-3.28,7.39-9.03,7.39-7.06,0-9.83-4.66-9.83-10.88s3.23-11.22,10-11.22,8.95,3.99,8.95,10.21v1.85Zm-3.11-2.98c0-4.45-1.72-6.55-5.92-6.55s-6.55,2.65-6.89,6.97h12.81v-.42Z"></path><path class="cls-10" d="m669.71,909.44h-3.36v-5.08c0-3.95.88-5.29,3.4-5.97l.67,1.85c-1.76.67-2.06,1.09-2.06,3.78v.34h1.34v5.08Zm5.92,0h-3.36v-5.08c0-3.95.88-5.29,3.4-5.97l.67,1.85c-1.76.67-2.06,1.09-2.06,3.78v.34h1.34v5.08Z"></path><path class="cls-10" d="m683.07,898.98h2.94v32.77h-2.94v-32.77Z"></path><path class="cls-10" d="m692.73,908.18c1.76-.67,2.06-1.09,2.06-3.78v-.34h-1.34v-5.08h3.36v5.08c0,3.95-.88,5.29-3.4,5.97l-.67-1.85Zm5.92,0c1.76-.67,2.06-1.09,2.06-3.78v-.34h-1.34v-5.08h3.36v5.08c0,3.95-.88,5.29-3.4,5.97l-.67-1.85Z"></path><path class="cls-10" d="m1035.31,2705.94h-3.36v-5.08c0-3.95.88-5.29,3.4-5.97l.67,1.85c-1.76.67-2.06,1.09-2.06,3.78v.34h1.34v5.08Zm5.92,0h-3.36v-5.08c0-3.95.88-5.29,3.4-5.97l.67,1.85c-1.76.67-2.06,1.09-2.06,3.78v.34h1.34v5.08Z"></path><path class="cls-10" d="m1051.35,2702.2v5.04h5.92v2.44h-5.92v18.57h-2.94v-18.57h-4.16v-2.44h4.16v-5.42c0-5.29,3.15-6.89,6.38-6.89,1.85,0,2.98.29,3.74.55v2.6c-.71-.21-1.89-.46-3.49-.46-2.65,0-3.7,1.76-3.7,4.58Z"></path><path class="cls-10" d="m1061.89,2704.68c1.76-.67,2.06-1.09,2.06-3.78v-.34h-1.34v-5.08h3.36v5.08c0,3.95-.88,5.29-3.4,5.97l-.67-1.85Zm5.92,0c1.76-.67,2.06-1.09,2.06-3.78v-.34h-1.34v-5.08h3.36v5.08c0,3.95-.88,5.29-3.4,5.97l-.67-1.85Z"></path><path class="cls-10" d="m1074.83,2722.03h3.36v6.22c0,3.95-.88,5.29-3.4,5.96l-.67-1.85c1.76-.67,2.06-1.09,2.06-3.78v-.34h-1.34v-6.22Z"></path><path class="cls-10" d="m1095.83,2705.94h-3.36v-5.08c0-3.95.88-5.29,3.4-5.97l.67,1.85c-1.76.67-2.06,1.09-2.06,3.78v.34h1.34v5.08Zm5.92,0h-3.36v-5.08c0-3.95.88-5.29,3.4-5.97l.67,1.85c-1.76.67-2.06,1.09-2.06,3.78v.34h1.34v5.08Z"></path><path class="cls-10" d="m1108.14,2707.24h2.6l.29,3.91c1.01-2.14,3.07-4.45,6.76-4.45,1.26,0,2.18.21,3.02.55v3.15c-1.13-.5-2.1-.76-3.4-.76-3.74,0-6.34,2.81-6.34,5.75v12.85h-2.94v-21Z"></path><path class="cls-10" d="m1123.55,2704.68c1.76-.67,2.06-1.09,2.06-3.78v-.34h-1.34v-5.08h3.36v5.08c0,3.95-.88,5.29-3.4,5.97l-.67-1.85Zm5.92,0c1.76-.67,2.06-1.09,2.06-3.78v-.34h-1.34v-5.08h3.36v5.08c0,3.95-.88,5.29-3.4,5.97l-.67-1.85Z"></path><path class="cls-10" d="m1136.49,2722.03h3.36v6.22c0,3.95-.88,5.29-3.4,5.96l-.67-1.85c1.76-.67,2.06-1.09,2.06-3.78v-.34h-1.34v-6.22Z"></path><path class="cls-10" d="m1157.49,2705.94h-3.36v-5.08c0-3.95.88-5.29,3.4-5.97l.67,1.85c-1.76.67-2.06,1.09-2.06,3.78v.34h1.34v5.08Zm5.92,0h-3.36v-5.08c0-3.95.88-5.29,3.4-5.97l.67,1.85c-1.76.67-2.06,1.09-2.06,3.78v.34h1.34v5.08Z"></path><path class="cls-10" d="m1180.75,2725.55v2.6c-.76.21-2.14.59-4.03.59-3.82,0-6.34-1.6-6.34-6.89v-12.18h-4.16v-2.44h4.16v-6.05l2.94-1.43v7.48h5.92v2.44h-5.92v11.8c0,2.81.76,4.58,3.4,4.58,1.6,0,3.23-.29,4.03-.5Z"></path><path class="cls-10" d="m1182.64,2704.68c1.76-.67,2.06-1.09,2.06-3.78v-.34h-1.34v-5.08h3.36v5.08c0,3.95-.88,5.29-3.4,5.97l-.67-1.85Zm5.92,0c1.76-.67,2.06-1.09,2.06-3.78v-.34h-1.34v-5.08h3.36v5.08c0,3.95-.88,5.29-3.4,5.97l-.67-1.85Z"></path><path class="cls-10" d="m1206.92,2722.45c0-3.95,2.23-6.09,7.86-6.09h6.34v-1.72c0-2.98-1.26-5.42-5.46-5.42-3.95,0-5.33,1.51-5.33,4.12v.88h-2.98v-.84c0-5,4.2-6.68,8.32-6.68,5.8,0,8.4,2.86,8.4,8.44v13.11h-2.06l-.55-2.98h-.08c-1.26,1.89-3.7,3.53-7.35,3.53-4.92,0-7.1-2.31-7.1-6.34Zm14.2-1.85v-1.76h-7.01c-2.65,0-4.03.92-4.03,3.61,0,2.35,1.26,3.86,4.5,3.86,4.16,0,6.55-2.14,6.55-5.71Z"></path><path class="cls-10" d="m1231.41,2707.24h2.6l.29,3.91c1.01-2.14,3.07-4.45,6.76-4.45,1.26,0,2.18.21,3.02.55v3.15c-1.13-.5-2.1-.76-3.4-.76-3.74,0-6.34,2.81-6.34,5.75v12.85h-2.94v-21Z"></path><path class="cls-10" d="m1265.34,2718.75h-15.96c.17,4.79,2.48,7.48,6.93,7.48,3.82,0,5.67-1.43,5.97-4.83h2.98c-.29,4.24-3.28,7.39-9.03,7.39-7.06,0-9.83-4.66-9.83-10.88s3.23-11.22,10-11.22,8.95,3.99,8.95,10.21v1.85Zm-3.11-2.98c0-4.45-1.72-6.55-5.92-6.55s-6.55,2.65-6.89,6.97h12.81v-.42Z"></path><path class="cls-10" d="m1277.73,2707.28v-.04h3.36l7.35,17.98h.08l7.1-17.98h3.07v.04l-8.74,20.96h-3.02l-9.2-20.96Z"></path><path class="cls-10" d="m1319.53,2718.75h-15.96c.17,4.79,2.48,7.48,6.93,7.48,3.82,0,5.67-1.43,5.97-4.83h2.98c-.29,4.24-3.28,7.39-9.03,7.39-7.06,0-9.83-4.66-9.83-10.88s3.23-11.22,10-11.22,8.95,3.99,8.95,10.21v1.85Zm-3.11-2.98c0-4.45-1.72-6.55-5.92-6.55s-6.55,2.65-6.89,6.97h12.81v-.42Z"></path><path class="cls-10" d="m1325.4,2707.24h2.6l.29,3.91c1.01-2.14,3.07-4.45,6.76-4.45,1.26,0,2.18.21,3.02.55v3.15c-1.13-.5-2.1-.76-3.4-.76-3.74,0-6.34,2.81-6.34,5.75v12.85h-2.94v-21Z"></path><path class="cls-10" d="m1342.92,2707.24l6.89,17.98h.08l7.14-17.98h3.07v.04l-8.86,20.84-3.11,8.53h-2.98v-.04l3.19-8.36-8.78-20.96v-.04h3.36Z"></path><path class="cls-10" d="m1373.95,2707.24h2.6l.29,3.49c1.01-2.14,3.28-4.03,7.35-4.03,4.75,0,7.77,2.52,7.77,7.94v13.61h-2.94v-13.27c0-4.33-2.14-5.71-5.5-5.71-3.82,0-6.64,2.69-6.64,5.63v13.36h-2.94v-21Z"></path><path class="cls-10" d="m1398.06,2722.45c0-3.95,2.23-6.09,7.86-6.09h6.34v-1.72c0-2.98-1.26-5.42-5.46-5.42-3.95,0-5.33,1.51-5.33,4.12v.88h-2.98v-.84c0-5,4.2-6.68,8.32-6.68,5.8,0,8.4,2.86,8.4,8.44v13.11h-2.06l-.55-2.98h-.08c-1.26,1.89-3.7,3.53-7.35,3.53-4.92,0-7.1-2.31-7.1-6.34Zm14.2-1.85v-1.76h-7.01c-2.65,0-4.03.92-4.03,3.61,0,2.35,1.26,3.86,4.5,3.86,4.16,0,6.55-2.14,6.55-5.71Z"></path><path class="cls-10" d="m1422.55,2707.24h2.6l.29,3.91c1.01-2.14,3.07-4.45,6.76-4.45,1.26,0,2.18.21,3.02.55v3.15c-1.13-.5-2.1-.76-3.4-.76-3.74,0-6.34,2.81-6.34,5.75v12.85h-2.94v-21Z"></path><path class="cls-10" d="m1439.85,2707.24h2.6l.29,3.91c1.01-2.14,3.07-4.45,6.76-4.45,1.26,0,2.18.21,3.02.55v3.15c-1.13-.5-2.1-.76-3.4-.76-3.74,0-6.34,2.81-6.34,5.75v12.85h-2.94v-21Z"></path><path class="cls-10" d="m1454.85,2717.74c0-6.22,3.32-11.05,10.38-11.05,6.59,0,10.25,4.83,10.25,11.05s-3.7,11.05-10.29,11.05c-7.27,0-10.33-4.83-10.33-11.05Zm17.56,0c0-5.33-2.9-8.49-7.22-8.49-4.75,0-7.27,3.15-7.27,8.49s2.56,8.49,7.27,8.49c4.33,0,7.22-3.15,7.22-8.49Z"></path><path class="cls-10" d="m1477.78,2707.28v-.04h2.98l5.76,17.47h.08l6.3-17.47h2.69l6.17,17.47h.08l5.75-17.47h2.86v.04l-7.18,20.96h-3.02l-5.96-17.06h-.08l-6.22,17.06h-3.02l-7.18-20.96Z"></path><line class="cls-6" x1="461.03" y1="583.99" x2="461.03" y2="879.53"></line><line class="cls-6" x1="1469.18" y1="2385.44" x2="1469.18" y2="2680.05"></line><path class="cls-10" d="m1181.32,289.35v48.03h34.75v-48.03h-34.75Zm204.73,168.62c1.7-24.87,24.87-50.42,60.63-50.76,32.36-.34,56.55,26.57,57.91,50.76h-118.54Zm60.98,113.09c20.44,0,38.49-5.11,54.16-15.67,13.63-8.86,25.21-21.8,33.38-38.83h-36.79c-10.56,15.33-27.25,25.55-50.76,25.55-27.59,0-59.95-19.76-61.66-57.57h153.97c6.13-59.95-37.47-106.96-92.66-106.96s-96.74,44.62-96.74,97.08c0,48.37,37.13,96.4,97.08,96.4Zm-428.53,48.71l-90.27,129.1h-35.77l90.27-129.1h35.77Zm243.22-54.16v-182.24h32.7v26.57c10.56-21.12,29.98-31.68,54.16-32.02v35.77h-2.04c-32.7,0-50.07,17.37-50.07,53.48v98.45h-34.75Zm-80.39-182.24v182.24h35.09v-182.24h-35.09Zm-45.31,0v182.24h-32.7v-28.27c-8.86,18.74-29.3,33.72-62,33.72-58.25-.34-73.58-43.26-73.58-80.73v-106.96h34.75v98.45c0,33.38,12.94,56.55,48.71,56.55,34.41-.34,50.07-22.14,50.07-53.14v-101.85h34.75Zm-213.24,0v365.51h-34.75v-214.27c-8.52,14.99-29.98,36.45-68.81,36.45-54.84,0-91.29-43.26-91.29-94.7,0-56.89,39.17-98.45,93.68-98.45,36.45,0,57.91,19.42,67.45,36.45v-31h33.72Zm-96.4,27.25c-41.9,0-62.68,33.04-62.68,64.72s24.53,63.02,62.68,63.02,63.36-29.98,63.36-63.7c.68-35.43-27.59-64.04-63.36-64.04Zm-301.13,154.99v-182.24h32.7v28.27c8.86-18.74,29.3-33.72,62-33.72,58.25.34,73.58,43.26,73.58,80.73v106.96h-35.43v-99.13c0-32.7-12.6-55.87-48.03-55.87-34.41.34-50.07,22.14-50.07,53.48v101.51h-34.75Z"></path><path class="cls-10" d="m1289.26,1463.11h34.87v-97.23c0-35.88,16.76-52.64,49.29-52.64h2.01v-35.21c-24.48.34-42.92,10.39-53.65,31.52v-26.49h-32.52v180.05Zm-185.08-105.95c1.68-24.48,24.48-49.62,59.68-49.96,31.85-.34,55.66,26.15,57,49.96h-116.68Zm60.02,111.31c20.12,0,37.89-5.03,53.31-15.42,13.41-8.72,24.81-21.46,32.86-38.22h-36.21c-10.39,15.09-26.82,25.15-49.96,25.15-27.16,0-59.01-19.45-60.69-56.66h151.55c6.04-59.01-36.88-105.28-91.2-105.28s-95.22,43.92-95.22,95.56c0,47.61,36.55,94.89,95.56,94.89Zm-594.13-333.94h122.04v-31.52h-122.04v31.52Zm214.92,303.1c-34.53,0-61.69-26.82-61.69-64.04v-.67c0-36.88,27.16-63.7,61.69-63.7s61.69,26.82,61.69,63.7-27.49,64.71-61.69,64.71Zm0,30.51c60.69,0,95.89-46.6,95.89-95.22s-35.21-94.89-95.89-94.89-96.23,46.6-96.23,94.89,35.54,95.22,96.23,95.22Zm-207.21-.67c54.65,0,74.43-44.93,74.43-107.96v-252.13h-35.88v253.14c0,36.55-3.35,73.43-38.56,73.43-32.86,0-37.89-34.87-38.89-69.4l-32.19,3.69c-.67,55.32,17.1,99.24,71.08,99.24Zm337.63-4.36h34.2v-74.77l11.4-10.06,64.71,84.83h41.58l-81.81-106.62,76.11-74.1h-42.92l-69.07,69.4v-248.78h-34.2v360.1Z"></path><path class="cls-10" d="m1042.44,2255.84c1.67-24.41,24.41-49.5,59.53-49.83,31.77-.33,55.52,26.09,56.85,49.83h-116.38Zm59.86,111.03c20.07,0,37.79-5.02,53.17-15.38,13.38-8.7,24.75-21.4,32.77-38.13h-36.12c-10.37,15.05-26.75,25.08-49.83,25.08-27.09,0-58.86-19.4-60.53-56.52h151.16c6.02-58.86-36.79-105.01-90.97-105.01s-94.98,43.81-94.98,95.31c0,47.49,36.45,94.64,95.31,94.64Zm383.59-72.91c0,27.42,2.01,41.8,19.73,41.8,6.02,0,14.05-1,30.1-7.36l6.69,29.1c-18.73,6.69-31.44,9.03-43.14,9.03-28.43,0-47.49-16.72-47.49-72.57v-93.31h-25.08v-28.76h25.08v-169.56h34.11v169.56h47.49v28.76h-47.49v93.31Zm-606.66,238.11l6.69-29.1c16.05,6.35,24.08,7.36,30.1,7.36,17.72,0,19.73-14.38,19.73-41.8v-286.61h34.11v286.61c0,55.85-19.06,72.57-47.49,72.57-11.71,0-24.41-2.34-43.14-9.03Zm56.52-441.78v47.15h34.11v-47.15h-34.11Zm429.07,208.35h35.45c-9.7,38.79-43.81,67.89-88.29,67.89-58.19,0-93.98-45.15-93.98-94.98,0-52.51,39.46-94.64,91.97-94.64,43.14,0,79.93,26.42,90.3,70.56h-35.45c-8.36-24.75-29.43-39.46-53.17-39.8-33.44-.33-58.86,27.09-58.86,63.88s25.42,64.21,58.86,63.88c29.43,0,47.15-19.06,53.17-36.79Zm-658.83,62.87v-359.18h34.11v207.68c16.39-23.41,42.81-33.44,65.55-33.78,47.15-.67,90.97,35.12,90.97,94.98s-41.13,94.98-92.3,94.98c-30.77,0-54.51-14.38-65.55-35.78v31.1h-32.77Zm93.31-26.75c41.13,0,62.2-32.77,62.2-63.54,0-34.78-25.75-62.87-61.2-62.87s-61.54,29.1-61.54,62.87,23.74,63.54,60.53,63.54Zm-420.71-147.82v-.67c0-119.39,58.86-183.94,142.47-183.94s142.8,71.9,143.14,182.93c.33,111.03-55.52,181.26-143.14,181.26s-142.8-72.24-142.47-179.59Zm143.81-148.49c-43.48,0-104.68,25.08-104.68,146.82,0,82.27,37.12,145.14,105.01,145.14s102.34-66.89,102.34-145.14-34.11-146.82-102.67-146.82Z"></path><path class="cls-10" d="m1156.53,3148.21c1.67-24.41,24.41-49.5,59.53-49.83,31.77-.33,55.52,26.09,56.85,49.83h-116.38Zm59.86,111.03c20.07,0,37.79-5.02,53.17-15.38,13.38-8.7,24.75-21.4,32.77-38.13h-36.12c-10.37,15.05-26.75,25.08-49.83,25.08-27.09,0-58.86-19.4-60.53-56.52h151.16c6.02-58.86-36.79-105.01-90.97-105.01s-94.98,43.81-94.98,95.31c0,47.49,36.45,94.64,95.31,94.64Zm-131.77-293.3v99.66h47.49v28.76h-47.49v159.86h-34.11v-159.86h-25.08v-28.76h25.08v-99.66c0-55.85,19.06-72.57,47.49-72.57,11.71,0,24.41,2.34,43.14,9.03l-6.69,29.1c-16.05-6.35-24.08-7.36-30.1-7.36-17.72,0-19.73,14.38-19.73,41.8Zm-83.27,109.69v178.25h-33.78v-31.44c-13.04,23.74-38.13,36.45-66.89,36.45-56.85,0-90.97-44.48-90.97-94.98,0-54.51,39.46-94.64,90.97-94.64,36.45,0,58.19,19.73,66.89,36.79v-30.43h33.78Zm-156.51,88.29v1c0,26.42,17.72,63.21,60.87,63.21,27.76,0,47.15-16.39,55.52-36.79,4.68-8.36,6.35-16.72,6.35-26.42.67-9.36-.67-19.06-5.35-26.75-8.7-20.07-27.76-37.12-56.85-37.12-37.79,0-60.53,29.76-60.53,62.87Zm-303.33-16.39h40.8c4.35,62.54,44.81,73.57,79.26,73.57,52.17,0,81.6-24.75,81.6-65.21,0-45.48-34.78-54.85-100.33-70.9-38.13-9.36-95.31-32.11-95.31-90.63,0-64.88,59.53-99.33,118.39-99.33,48.16,0,108.02,25.08,111.7,96.32h-39.46c-4.35-28.43-14.71-59.53-72.57-59.53-46.49,0-75.92,18.06-75.92,57.86,0,37.46,28.43,44.14,105.01,66.22,47.82,13.71,89.63,41.13,89.63,97.99s-40.8,104.01-120.06,104.01-121.73-44.81-122.74-110.36Z"></path><polygon class="cls-11" points="915.42 1463.11 949.62 1463.11 949.62 1388.34 961.02 1378.28 1025.73 1463.11 1067.3 1463.11 985.49 1356.49 1061.6 1282.39 1018.69 1282.39 949.62 1351.8 949.62 1103.01 915.42 1103.01 915.42 1463.11"></polygon><g class="cls-9"><polygon class="cls-12" points="1018.49 619.78 928.22 748.88 892.45 748.88 982.73 619.78 1018.49 619.78"></polygon></g><path class="cls-11" d="m1485.89,2293.96c0,27.42,2.01,41.8,19.73,41.8,6.02,0,14.05-1,30.1-7.36l6.69,29.1c-18.73,6.69-31.44,9.03-43.14,9.03-28.43,0-47.49-16.72-47.49-72.57v-93.31h-25.08v-28.76h25.08v-169.56h34.11v169.56h47.49v28.76h-47.49v93.31Z"></path><g class="cls-13"><path class="cls-12" d="m692.12,1103.01h-122.04v31.52h46.27v225.98c0,36.55-3.35,73.43-38.56,73.43-32.86,0-37.89-34.87-38.89-69.4l-32.19,3.69c-.67,55.32,17.1,99.24,71.08,99.24s74.43-44.93,74.43-107.96v-224.98h39.9v-31.52Z"></path></g><path class="cls-11" d="m1084.63,2965.94v99.66h47.49v28.76h-47.49v159.86h-34.11v-159.86h-25.08v-28.76h25.08v-99.66c0-55.85,19.06-72.57,47.49-72.57,11.71,0,24.41,2.34,43.14,9.03l-6.69,29.1c-16.05-6.35-24.08-7.36-30.1-7.36-17.72,0-19.73,14.38-19.73,41.8Z"></path><rect class="cls-11" x="442.8" y="200.11" width="36.45" height="365.51"></rect></svg> 