<?xml version="1.0" encoding="UTF-8"?> <svg xmlns="http://www.w3.org/2000/svg" id="Layer_1" viewBox="0 0 450 335"><defs><style>.cls-1{fill:#fff;}.cls-2{fill:#ececec;}.cls-3{fill:#bca5cf;}.cls-4{fill:#231f20;}</style></defs><rect class="cls-1" width="450" height="335"></rect><rect class="cls-2" y="199.03" width="450" height="29.7"></rect><rect class="cls-2" y="97.86" width="450" height="37.79"></rect><rect class="cls-3" x="237.31" y="97.86" width="19.31" height="130.87"></rect><path class="cls-4" d="m123.24,152.96c0,7.51-1.11,14.24-3.32,20.16-2.21,5.93-5.19,10.95-8.92,15.06-3.74,4.11-7.95,7.25-12.65,9.42s-9.55,3.26-14.56,3.26-9.88-1.02-14.5-3.07c-4.61-2.05-8.73-5.05-12.34-9.02-3.61-3.97-6.46-8.84-8.55-14.62-2.09-5.78-3.13-12.43-3.13-19.94s1.11-14.22,3.32-20.13c2.21-5.91,5.21-10.93,8.99-15.06,3.78-4.13,8.04-7.28,12.77-9.46,4.74-2.17,9.63-3.26,14.68-3.26s9.74,1.02,14.31,3.07c4.57,2.05,8.65,5.05,12.24,9.02,3.59,3.97,6.43,8.84,8.52,14.62,2.09,5.78,3.13,12.43,3.13,19.94Zm-12.21,1.57c0-7.72-1.12-14.36-3.35-19.91-2.23-5.55-5.34-9.83-9.33-12.84-3.99-3.01-8.63-4.51-13.93-4.51s-9.92,1.44-13.96,4.32c-4.05,2.88-7.22,6.97-9.52,12.27-2.3,5.3-3.44,11.56-3.44,18.79,0,7.6,1.12,14.19,3.35,19.79,2.23,5.59,5.36,9.9,9.39,12.93,4.03,3.03,8.76,4.54,14.18,4.54,5.13,0,9.71-1.41,13.71-4.23s7.16-6.87,9.46-12.15c2.3-5.28,3.44-11.62,3.44-19.01Zm-35.25,64.18c0-2.34.83-4.33,2.5-5.98,1.67-1.65,3.65-2.47,5.95-2.47s4.33.82,5.98,2.47,2.47,3.64,2.47,5.98-.83,4.28-2.47,5.95c-1.65,1.67-3.64,2.5-5.98,2.5s-4.28-.84-5.95-2.5-2.5-3.65-2.5-5.95Z"></path><path class="cls-4" d="m184.3,102.55l-5.01,9.71c-2.17-1.29-4.23-2.24-6.17-2.85-1.94-.6-4.06-.91-6.36-.91-5.34,0-9.39,1.75-12.15,5.26s-4.13,8.43-4.13,14.78v70.76h-11.58v-68.88c0-10.48,2.35-18.52,7.04-24.14,4.7-5.61,11.95-8.42,21.76-8.42,2.55,0,5.2.32,7.95.97,2.76.65,5.64,1.89,8.64,3.73Zm-8.45,32.88h15.65l-34.38,31.06-9.77-1.63,28.49-29.43Zm-26.93,29.43l6.58-6.89,37.88,41.33h-15.34l-29.12-34.44Z"></path><path class="cls-4" d="m256.62,138.87v58.86c0,7.35-1.36,13.3-4.07,17.85-2.71,4.55-6.2,7.88-10.46,9.99-4.26,2.11-8.7,3.16-13.34,3.16-3.97,0-7.93-.69-11.9-2.07-3.97-1.38-7.62-3.19-10.96-5.45l4.07-9.71c2.96,2.13,5.96,3.86,8.99,5.2,3.03,1.34,6.08,2,9.17,2,2.17,0,4.57-.55,7.2-1.66,2.63-1.11,4.91-3.03,6.83-5.76,1.92-2.73,2.88-6.52,2.88-11.37v-12.84c-3.26,4.09-6.8,7.2-10.65,9.33-3.84,2.13-7.49,3.19-10.96,3.19-3.84,0-7.45-.92-10.83-2.76-3.38-1.84-6.13-4.77-8.23-8.8-2.11-4.03-3.16-9.36-3.16-16,0-4.8.63-9.46,1.88-13.96s3.19-8.57,5.82-12.18c2.63-3.61,6-6.47,10.11-8.58,4.11-2.11,9.03-3.16,14.75-3.16,3.8,0,7.7.5,11.71,1.5s7.72,2.07,11.15,3.19Zm-11.58,35.69v-27.24c-1.96-.75-4.16-1.36-6.61-1.82-2.44-.46-4.62-.69-6.54-.69-4.55,0-8.23,1.19-11.05,3.57s-4.86,5.41-6.14,9.08c-1.27,3.67-1.91,7.49-1.91,11.46,0,5.13.52,9.16,1.57,12.09,1.04,2.92,2.46,4.98,4.26,6.17,1.79,1.19,3.82,1.78,6.07,1.78,3.17,0,6.68-1.25,10.52-3.76,3.84-2.5,7.12-6.05,9.83-10.65Z"></path><path class="cls-4" d="m319.24,199.3v-34.44c0-5.22-.46-9.26-1.38-12.12-.92-2.86-2.3-4.84-4.13-5.95-1.84-1.11-4.17-1.66-7.01-1.66-3.01,0-5.89.9-8.64,2.69-2.76,1.8-5.17,4.06-7.23,6.79-2.07,2.73-3.56,5.52-4.48,8.36v36.32h-11.58v-38.51c0-6.14-.34-11.35-1.03-15.65-.69-4.3-1.39-7.53-2.1-9.71h11.27c.33.88.66,2.09.97,3.63.31,1.55.62,3.11.91,4.7.29,1.59.5,2.88.63,3.88,3.97-4.76,7.97-8.19,12.02-10.3,4.05-2.11,8.29-3.16,12.71-3.16,6.68,0,11.79,2.18,15.34,6.54,3.55,4.36,5.32,10.84,5.32,19.44v39.14h-11.58Zm-25.05-84.22c0-2.34.83-4.33,2.5-5.98,1.67-1.65,3.65-2.47,5.95-2.47s4.33.83,5.98,2.47c1.65,1.65,2.47,3.64,2.47,5.98s-.82,4.28-2.47,5.95c-1.65,1.67-3.64,2.5-5.98,2.5s-4.28-.83-5.95-2.5c-1.67-1.67-2.5-3.65-2.5-5.95Z"></path><path class="cls-4" d="m392.82,102.55l-5.01,9.71c-2.17-1.29-4.23-2.24-6.17-2.85-1.94-.6-4.06-.91-6.36-.91-5.34,0-9.39,1.75-12.15,5.26s-4.13,8.43-4.13,14.78v19.1c2.92-3.84,6.36-7.04,10.3-9.61s8.55-3.85,13.81-3.85c4.22,0,7.95,1.34,11.21,4.01,3.26,2.67,5.8,6.37,7.64,11.08,1.84,4.72,2.76,10.12,2.76,16.22,0,7.14-1.25,13.36-3.76,18.66-2.5,5.3-6.02,9.41-10.55,12.34-4.53,2.92-9.88,4.38-16.06,4.38-5.05,0-9.81-.64-14.28-1.91-4.47-1.27-8.68-2.51-12.65-3.73v-64.81c0-10.48,2.35-18.52,7.04-24.14,4.7-5.61,11.95-8.42,21.76-8.42,2.55,0,5.2.32,7.95.97,2.76.65,5.64,1.89,8.64,3.73Zm-33.81,60.11v25.05c3.09,1.29,5.75,2.19,7.98,2.69,2.23.5,4.69.75,7.36.75,5.55,0,10.12-2.15,13.71-6.45,3.59-4.3,5.39-9.98,5.39-17.03s-1.22-12.47-3.66-16.5c-2.44-4.03-5.92-6.04-10.43-6.04-3.88,0-7.71,1.62-11.49,4.85-3.78,3.24-6.73,7.46-8.86,12.68Z"></path></svg> 