<?xml version="1.0" encoding="UTF-8"?> <svg xmlns="http://www.w3.org/2000/svg" id="Layer_1" viewBox="0 0 450 335"><defs><style>.cls-1{fill:#fff;}.cls-2{fill:#ececec;}.cls-3{fill:#bca5cf;}.cls-4{fill:#231f20;}</style></defs><rect class="cls-1" width="450" height="335"></rect><rect class="cls-2" y="199.03" width="450" height="99.74"></rect><rect class="cls-2" y="35.44" width="450" height="100.2"></rect><rect class="cls-3" x="172.31" y="35.44" width="18.64" height="263.33"></rect><path class="cls-4" d="m142.48,133.9c7.51-.42,13.7,2.01,18.56,7.3,5.39,5.82,7.77,13.7,7.14,23.64-.42,6.66-2.14,12.08-5.16,16.26-3.01,4.18-6.06,7.38-9.12,9.6-7.93,5.71-16.71,8.51-26.34,8.41-9.84-.21-18.19-2.96-25.07-8.25-6.77-5.08-11.79-12.48-15.07-22.21-2.22-6.45-3.65-13.54-4.28-21.26-.63-7.83-.42-15.92.63-24.27.63-6.03,1.9-12.22,3.81-18.56-6.88.85-12.96.53-18.24-.95-6.98-1.9-12.9-4.81-17.77-8.73-4.34-3.49-7.51-7.62-9.52-12.37-3.91-9.2-3.07-18.09,2.54-26.65,5.82-8.88,15.81-14.6,29.98-17.13,11.42-1.9,22.95-1.64,34.59.79,2.64.42,5.24.98,7.77,1.67,2.54.69,5.08,1.4,7.62,2.14,1.37.32,2.75.69,4.12,1.11,1.37.42,2.75.79,4.12,1.11.42,0,.79.05,1.11.16.32.11.69.27,1.11.48,3.6-2.22,8.25-4.49,13.96-6.82,3.17-1.16,6.72-1.75,10.63-1.75,2.11,0,3.91.27,5.39.79,2.22.85,3.54,2.22,3.97,4.12.53,4.02-.95,6.98-4.44,8.88-2.01,1.06-4.87,1.75-8.57,2.06-3.6.21-7.11.08-10.55-.4-3.44-.48-6.69-1.08-9.76-1.82-10.79,6.24-19.78,13.91-26.97,23-5.71,6.98-10.31,14.97-13.8,23.96,2.96-.74,6.03-1.64,9.2-2.7,9.94-3.6,20.36-8.62,31.25-15.07l2.54,4.28c-11.42,6.77-22.16,11.9-32.21,15.39-4.87,1.59-9.1,2.75-12.69,3.49-2.01,6.14-3.49,12.85-4.44,20.15-.95,8.14-1.11,15.86-.48,23.16.53,7.3,1.85,14.07,3.97,20.31,3.07,8.67,7.56,15.28,13.49,19.83,6.03,4.65,13.43,7.03,22.21,7.14,8.57,0,16.29-2.49,23.16-7.46,2.64-1.9,5.29-4.65,7.93-8.25,2.64-3.6,4.12-8.25,4.44-13.96.53-8.57-1.43-15.23-5.87-19.99-3.91-4.12-8.83-6.08-14.75-5.87-7.4.42-12.75,2.96-16.02,7.62-3.49,4.65-4.92,11.11-4.28,19.36l-4.76.32c-.74-9.41.95-16.92,5.08-22.53,4.23-6.03,10.84-9.2,19.83-9.52Zm-72.34-35.06c5.39,1.48,11.63,1.64,18.72.48,3.7-10.47,8.88-19.83,15.55-28.08,6.77-8.46,14.81-15.65,24.11-21.58-1.27-.42-3.17-.95-5.71-1.59-2.43-.74-4.95-1.43-7.54-2.06-2.59-.63-5.1-1.22-7.54-1.75-11.21-2.22-22.16-2.43-32.84-.63-4.44.74-9.23,2.22-14.36,4.44-5.13,2.22-9.23,5.71-12.3,10.47-4.76,7.09-5.5,14.44-2.22,22.05,1.8,4.12,4.55,7.62,8.25,10.47,4.23,3.38,9.52,5.98,15.86,7.77Zm80.12-54.89c-2.86,1.06-5.61,2.27-8.25,3.65,4.76.74,9.2,1.06,13.33.95,2.64-.11,4.76-.58,6.35-1.43,1.48-.85,2.11-2.11,1.9-3.81-.32-.53-1.8-.79-4.44-.79-3.49,0-6.45.48-8.88,1.43Zm17.18,124.39l-2.79-3.85c4.36-3.15,8.66-7.8,12.89-13.94,4.23-6.14,7.53-11.88,9.89-17.22l4.37,1.95c-2.46,5.51-5.91,11.5-10.34,17.99-4.43,6.49-9.11,11.51-14.04,15.06Z"></path><path class="cls-4" d="m247.27,199.1c-3.17.32-5.76.11-7.77-.63-2.54-.95-4.55-2.96-6.03-6.03-1.27-2.54-1.96-6.19-2.06-10.95v-4.12c.11-4.02-.48-7.03-1.75-9.04-3.28,3.07-6.45,4.65-9.52,4.76-2.86,0-4.97-.9-6.35-2.7-1.16-1.37-1.53-3.01-1.11-4.92.11-.53.61-1.48,1.51-2.86.9-1.37,2.56-2.33,5-2.86,3.81-.63,7.14-.05,9.99,1.75,2.22-3.07,3.6-5.71,4.12-7.93.85-4.23.16-7.77-2.06-10.63-2.96-3.38-7.09-4.76-12.37-4.12-3.28.53-6.14,2.04-8.57,4.52-2.43,2.49-4.23,4.63-5.39,6.43-2.22,3.49-4.71,8.51-7.46,15.07-2.75,6.56-4.6,11.79-5.55,15.71v18.56h-4.76v-108.2c0-8.78.42-15.92,1.27-21.42.95-7.09,2.91-13.96,5.87-20.62,2.64-6.03,6.4-10.1,11.26-12.22,5.82-2.54,10.52-1.06,14.12,4.44,2.64,3.91,3.54,10.05,2.7,18.4-1.16,10.58-3.65,20.15-7.46,28.72-3.81,8.57-7.93,17.08-12.37,25.54-1.69,3.17-3.36,6.35-5,9.52-1.64,3.17-3.25,6.45-4.84,9.84-.11.32-.37.9-.79,1.75v30.94c1.37-3.49,2.86-6.9,4.44-10.23s3.12-6.11,4.6-8.33c1.37-2.22,3.54-4.81,6.5-7.77,2.96-2.96,6.56-4.76,10.79-5.39,7.09-.95,12.64,1.01,16.66,5.87,3.17,3.81,4.18,8.67,3.01,14.6-.53,3.07-2.22,6.45-5.08,10.15,0,.11.03.16.08.16h.08c1.69,2.12,2.67,4.28,2.94,6.5.26,2.22.4,4.28.4,6.19-.21,1.16-.21,2.43,0,3.81,0,4.12.53,7.14,1.59,9.04.74,1.9,1.9,3.12,3.49,3.65,1.37.63,3.12.79,5.24.48,2.54-.32,5.21-1,8.01-2.06v-.08c3.86-1.48,7.48-3.25,10.87-5.31l2.54,4.12c-4.23,2.49-8.12,4.39-11.66,5.71-3.44,1.38-6.48,2.11-9.12,2.22Zm-54.1-128.82c-.85,6.35-1.27,13.22-1.27,20.62v32.84c.95-2.11,1.98-4.18,3.09-6.19,1.11-2.01,2.19-4.02,3.25-6.03,4.44-8.25,8.49-16.55,12.14-24.91,3.65-8.36,6.05-17.61,7.22-27.76.74-7.09.11-12.16-1.9-15.23-2.12-3.07-4.87-3.91-8.25-2.54-3.6,1.59-6.5,4.81-8.73,9.68-2.65,5.61-4.5,12.11-5.55,19.51Zm26.81,98.05c1.69-.11,3.65-1.16,5.87-3.17-1.59-.74-3.49-1-5.71-.79-1.38.32-2.27,1.11-2.7,2.38-.32.32-.27.53.16.63.42.63,1.22.95,2.38.95Z"></path><path class="cls-4" d="m315.89,165.31l4.52,1.67c-2.38,6.24-5.21,11.56-8.49,15.94-3.97,5.34-8.49,9.39-13.56,12.14-4.71,2.54-9.49,3.83-14.36,3.89h-.08c-6.14-.05-11.37-2.19-15.71-6.43-3.91-3.81-6.17-8.96-6.78-15.47-.61-6.5-.23-12.43,1.15-17.77,1.59-6.35,4.68-12.06,9.28-17.13,5.45-5.87,11.37-8.81,17.77-8.81,4.23.11,7.32,1.56,9.28,4.36,1.69,2.49,2.43,5.46,2.22,8.92-.21,3.46-.85,6.6-1.9,9.4-2.8,7.83-7.64,15.26-14.52,22.29-4.12,4.23-8.49,7.83-13.09,10.79,3.38,3.28,7.48,4.95,12.3,5,3.97,0,8.01-1.08,12.14-3.25,4.55-2.49,8.54-6.08,11.98-10.79,3.01-4.02,5.63-8.94,7.85-14.75Zm-48.71-4.76c-1.11,3.97-1.59,8.24-1.43,12.81.16,4.57,1.16,8.53,3.01,11.86,4.34-2.8,8.51-6.21,12.53-10.23,6.19-6.35,10.66-13.19,13.41-20.55.85-2.33,1.37-4.84,1.59-7.54.21-2.7-.24-4.84-1.35-6.43-1.06-1.53-2.83-2.3-5.31-2.3-5.71,0-10.58,2.57-14.6,7.69-4.02,5.13-6.64,10.02-7.85,14.68Zm5.95-39.19c1.69-.85,4.12-2.33,7.3-4.44,3.17-2.54,5.39-4.49,6.66-5.87l1.75-1.75,1.59,1.9c3.81,4.23,8.25,7.46,13.33,9.68l-1.9,4.12c-5.18-2.22-9.57-5.24-13.17-9.04-1.16,1.16-3.01,2.7-5.55,4.6-2.12,1.69-4.76,3.33-7.93,4.92l-2.06-4.12Zm23.48-27.76c2.22-1.9,4.92-2.64,8.09-2.22,3.28.53,5.29,2.17,6.03,4.92.32,1.59.29,3.17-.08,4.76-.37,1.59-.77,2.91-1.19,3.97-1.69,3.28-3.65,5.76-5.87,7.46l-2.86-3.33c1.9-1.59,3.38-3.54,4.44-5.87,1.06-2.33,1.43-4.23,1.11-5.71-.21-.95-1.01-1.53-2.38-1.75-1.69-.32-3.12.11-4.28,1.27l-3.01-3.49Z"></path><path class="cls-4" d="m315.65,166.18c3.7-11.16,6.48-22,8.33-32.52l4.76.87c-1.75,10.84-4.6,21.95-8.57,33.32l-4.52-1.67Zm39.74,25.66c-5.18,4.68-10.05,7.02-14.6,7.02-4.34.21-7.64-.48-9.92-2.06-2.27-1.59-3.99-3.62-5.16-6.11-1.16-2.49-1.75-6.48-1.75-11.98v-45.14h4.76v45.14c0,4.87.54,8.22,1.63,10.07,1.08,1.85,2.52,3.2,4.32,4.05,1.8.85,3.46,1.27,5,1.27,5.82,0,11.95-4.39,18.4-13.17,5.13-7.93,10.5-17.77,16.1-29.51v-17.85h2.46v24.11c-8.99,18.09-16.08,29.47-21.26,34.15Zm28.48,7.1c-3.23,0-5.78-1.06-7.66-3.17-1.88-2.11-2.9-4.84-3.05-8.17l-.16-6.43v-47.59h4.76v47.59l.24,5.39c.26,2.27.92,4.12,1.98,5.55,1.06,1.43,2.35,2.14,3.89,2.14,3.97,0,7.98-2.86,12.06-8.57,1.69-2.38,3.46-5.5,5.31-9.36,1.64-3.6,3.17-7.27,4.6-11.03l4.52,1.67c-1.85,4.87-3.44,8.67-4.76,11.42-2.01,4.23-3.94,7.62-5.79,10.15-2.54,3.49-4.97,6.1-7.3,7.81-2.33,1.72-5.21,2.58-8.65,2.58Z"></path></svg> 