<?xml version="1.0" encoding="UTF-8"?> <svg xmlns="http://www.w3.org/2000/svg" id="Layer_1" viewBox="0 0 450 335"><defs><style>.cls-1{fill:#fff;}.cls-2{fill:#ececec;}.cls-3{fill:#bca5cf;}.cls-4{fill:#111035;}</style></defs><rect class="cls-1" width="450" height="335"></rect><rect class="cls-2" y="199.03" width="450" height="68.8"></rect><rect class="cls-2" y="68.98" width="450" height="66.67"></rect><rect class="cls-3" x="229.65" y="68.98" width="18.64" height="198.86"></rect><path class="cls-4" d="m162.8,140.84c-9.46,25.46-21.53,59.64-39.28,59.64-5.67,0-11.64-1.45-18.04-3.49-5.38,2.33-11.64,3.49-18.62,3.49-16.58,0-27.5-2.91-27.5-10.76,0-6.69,8-9.02,18.33-7.13,8.87,1.6,16.73,4.22,23.71,6.4,1.16.44,2.33.73,3.49,1.16,9.46-4.95,14.84-14.11,14.84-26.19,0-14.69-9.02-26.62-22.55-32.58-8,4.36-16.87,6.4-24,6.4-5.82,0-10.48-3.35-10.48-8.15s4.51-8,10.18-8.44c8.58-.58,16.73.58,24,3.2,8.29-5.38,14.69-13.97,14.69-26.04,0-14.69-7.42-23.13-20.22-23.13-18.62,0-36.51,13.82-42.04,32.73v89.03c0,1.89-1.6,3.49-3.49,3.49s-3.49-1.6-3.49-3.49v-112.88c0-6.11-1.6-8.88-3.78-8.88-3.2,0-6.69,3.06-11.78,10.77-1.89,2.76-3.78,6.26-5.96,10.18-.58,1.16-1.74,1.74-3.05,1.74-1.89,0-3.35-1.6-3.35-3.49,0-.58.14-1.02.44-1.6,2.04-3.93,4.07-7.27,6.11-10.33,6.11-9.46,11.49-13.67,17.6-13.67,7.13,0,10.76,6.11,10.76,15.27v8c9.31-13.97,25.31-23.28,42.04-23.28s27.2,11.35,27.2,29.53c0,12.8-6.4,22.4-14.98,28.95,13.97,7.42,23.13,20.66,23.13,36.66,0,12.37-4.95,22.26-13.38,28.66,3.64.87,6.98,1.45,10.18,1.45,12.66,0,23.28-30.11,33.02-55.71.44-1.31,1.6-2.18,3.05-2.18,2.47,0,4.07,2.33,3.2,4.66Zm-75.94,53.24c2.62,0,5.09-.14,7.42-.58-5.67-1.74-11.49-3.35-17.75-4.51-6.55-1.31-10.18-.44-10.18.73,0,2.33,7.13,4.36,20.51,4.36Zm1.45-65.46c-4.66-1.02-9.75-1.31-14.98-1.02-2.33.14-3.64,1.16-3.64,2.04s1.31,1.75,3.49,1.75c4.66,0,10.04-.87,15.13-2.77Z"></path><path class="cls-4" d="m251.55,141.13c-3.49,9.02-7.13,17.6-10.76,25.46-10.91,22.84-19.64,33.9-28.22,33.9-6.84,0-10.62-5.67-10.62-15.13v-14.4c0-21.24-3.05-28.66-10.62-28.66-13.97,0-27.35,22.98-28.22,49.17v5.67c0,1.74-1.45,3.35-3.35,3.35s-3.35-1.6-3.35-3.35v-57.61c0-1.74,1.46-3.35,3.35-3.35s3.35,1.6,3.35,3.35v21.24c6.4-14.69,16.87-24.59,28.22-24.59,11.93,0,16.88,9.31,17.31,31.71v17.46c0,6.11,1.6,9.02,3.93,9.02,4.66,0,12.8-10.62,22.11-30.41,3.93-8.29,7.42-16.87,10.77-25.16.44-1.31,1.6-2.18,3.05-2.18,2.18,0,3.93,2.33,3.05,4.51Z"></path><path class="cls-4" d="m283.12,167.9c0,.87-1.17,3.49-2.91,6.69-2.04,3.78-4.8,8.29-6.26,10.62-6.69,10.04-12.66,15.27-18.18,15.27-6.84,0-10.62-5.67-10.62-15.13v-94.41c0-12.66,6.98-21.97,16.44-21.97,8,0,13.24,6.84,13.24,17.02,0,10.76-9.89,35.06-22.98,55.86v43.5c0,6.11,1.6,9.02,3.93,9.02,2.62,0,7.27-4.51,12.66-12.51,2.91-4.8,5.96-10.18,8.58-15.57.58-1.16,1.46-1.6,2.76-1.6,1.89,0,3.35,1.45,3.35,3.2Zm-31.28-38.69c9.46-17.31,16.29-35.06,16.29-43.21,0-6.84-2.62-10.91-6.55-10.91-5.38,0-9.75,6.69-9.75,15.86v38.26Z"></path><path class="cls-4" d="m363.57,139.67v.14c0,.58-1.02,2.33-2.04,3.49-7.71,8.29-19.06,14.84-30.26,17.46.44,2.47.73,4.95.73,7.56,0,18.62-11.64,32.15-27.78,32.15s-27.79-13.53-27.79-32.15c0-16.15,8.58-28.37,21.82-31.57,1.75-1.74,4.36-2.76,7.57-2.76,9.89,0,19.35,9.02,23.71,20.8,10.77-2.33,21.53-8.87,28.22-17.17.58-.73,1.6-1.16,2.62-1.16,1.74,0,3.2,1.45,3.2,3.2Zm-38.99,22.11c-1.16.14-2.47.14-3.64.14-12.8,0-21.97-6.26-24.73-17.17,0-.29-.15-.44-.15-.73-8.15,3.78-12.95,12.8-12.95,24.29,0,15.42,8.73,26.04,21.09,26.04s21.09-10.62,21.09-26.04c0-2.18-.29-4.36-.73-6.54Zm-18.76-21.68c-2.62,0-3.64,1.17-3.2,3.2,2.18,8.15,8.44,12.51,18.33,12.51h1.89c-3.64-8.88-10.47-15.71-17.02-15.71Z"></path><path class="cls-4" d="m435.58,167.9c0,.58-.29,1.02-.44,1.45-2.76,5.82-6.98,13.82-13.82,20.22-7.71,7.27-16.87,10.91-26.91,10.91-2.76,0-5.96-.44-8.87-.87-2.77.73-5.82,1.16-8.88,1.16-4.22,0-8.15-1.89-8.15-5.09s2.76-4.22,6.11-4.22c1.74,0,4.51.58,7.27,1.16,1.02.29,2.04.44,3.2.58,11.64-3.93,19.78-16.44,19.78-31.57,0-11.78-5.38-19.35-13.67-19.35-14.26,0-26.33,19.2-27.35,43.5v78.7c0,1.74-1.45,3.35-3.35,3.35s-3.35-1.6-3.35-3.35v-124.96c0-1.74,1.45-3.35,3.35-3.35s3.35,1.6,3.35,3.35v17.6c6.11-12.8,16-20.95,27.35-20.95,12.22,0,20.37,10.18,20.37,25.46,0,13.82-5.96,25.75-15.42,32.73,7.86-.44,14.26-3.35,20.51-9.17,5.96-5.82,9.89-13.09,12.66-18.76.58-1.02,1.6-1.75,2.91-1.75,1.89,0,3.35,1.45,3.35,3.2Z"></path></svg> 