<?xml version="1.0" encoding="UTF-8"?> <svg xmlns="http://www.w3.org/2000/svg" id="Layer_1" data-name="Layer 1" viewBox="0 0 450 335"><defs><style>.cls-1{fill:#fff;}.cls-2{fill:#ececec;}.cls-3{fill:#bca5cf;}.cls-4{fill:#111035;}</style></defs><rect class="cls-1" width="450" height="335"></rect><rect class="cls-2" y="199.03" width="450" height="56.85"></rect><rect class="cls-2" y="82.56" width="450" height="53.08"></rect><polygon class="cls-3" points="302.09 255.88 283.46 255.88 360.72 82.56 379.36 82.56 302.09 255.88"></polygon><path class="cls-4" d="M13.88,200.52A2.57,2.57,0,0,1,16.57,198c11,0,38-25.61,61.77-54.54,12.8-15.7,24.58-32.22,32.43-46.06-8.27-2.48-13-8.27-13-16.12,0-9.29,7.44-20.65,17.15-20.65,6.61,0,10.54,5.16,10.54,11.15,0,7.85-3.31,15.49-6.82,21.69,1,0,2.27.21,3.3.21,23.55,0,46.07-6.41,51.44-12.6a2.74,2.74,0,0,1,2.69-1.86c1,0,2.48.62,2.48,2.89,0,7.64-18.18,79.74-55.37,107.22a52.19,52.19,0,0,0,11.37,1.24,45.24,45.24,0,0,0,21.07-5.17c7-3.72,14-10.95,22.93-20.66a2.55,2.55,0,0,1,1.65-.83,2.66,2.66,0,0,1,2.89,2.69,2.54,2.54,0,0,1-.82,1.65C172.33,179,165.93,185.85,158.08,190a50.41,50.41,0,0,1-24,5.79,66,66,0,0,1-16.94-2.27c-7.64,4.34-15.9,7-24,7a30.7,30.7,0,0,1-17.77-5.37c-5.57-3.93-10.74-10.33-10.74-16.32,0-4.75,3.72-7.44,8.06-7.44a16.71,16.71,0,0,1,5.16.83c5,1.24,10.54,3.92,16.53,6.61a140.37,140.37,0,0,0,22.1,8.88c32.64-20.86,50.62-78.7,55.57-99.36-10.33,6-30.57,10.53-50.2,10.53a46.85,46.85,0,0,1-5.78-.41c-8.06,14.67-20.45,32.23-34.09,48.75-24.17,29.54-52.26,56-65.48,56A2.74,2.74,0,0,1,13.88,200.52Zm56-20.66c0,1.86,3.09,7.23,8.47,11.16A25.22,25.22,0,0,0,93,195.36a39.72,39.72,0,0,0,17.35-4.14,179.72,179.72,0,0,1-18-7.64c-6.19-2.89-14.66-7-19.62-7C70.48,176.56,69.87,178.21,69.87,179.86Zm33.05-98.74c0,6.61,4.34,9.91,10.53,11.56,3.31-6.61,7-13.84,7-20.65,0-3.52-2.27-6.2-5.58-6.2C107.67,65.83,102.92,75.33,102.92,81.12Z"></path><path class="cls-4" d="M239.05,191.22c0-6.4,6.19-16.73,10.12-22.93,0,0,5-8.26,7.64-13.84a13.32,13.32,0,0,0,1.45-4.75c0-1.24-.41-2.06-2.89-2.06H251c-2.69,0-5.37-.83-6.41-3.93-5.57,7-12.8,15.5-20.86,24.58a2.24,2.24,0,0,1-1.86.83,2.38,2.38,0,0,1-2.48-2.48,3.36,3.36,0,0,1,.62-1.86c8.06-9.09,15.29-17.76,20.87-24.58,2.89-3.72,5-6,6.61-8.06a3.13,3.13,0,0,1,2.27-1.24,2.41,2.41,0,0,1,2.68,2.28,6.18,6.18,0,0,1-1,2.89c-1.65,3.1-1.86,5-1.86,5.57,0,.83,1.45.83,2.69.83h4.34a6.53,6.53,0,0,1,6.81,6.41c0,5.37-6,15.49-9.91,22.1-4.13,7-9.3,15.49-9.3,20.24a3.26,3.26,0,0,0,3.31,3.31,4.53,4.53,0,0,0,2.68-.83c10.54-7.64,21.49-21.27,29.13-28.92a3.09,3.09,0,0,1,1.86-.83,2.86,2.86,0,0,1,2.68,2.49,3.08,3.08,0,0,1-.82,1.85c-6.61,7.23-20,22.73-30,29.75a10.84,10.84,0,0,1-5.57,1.65A8.37,8.37,0,0,1,239.05,191.22Z"></path><path class="cls-4" d="M273.13,184.41c0-7.23,3.31-15.7,9.5-24.17,16.12-21.69,33.06-24.79,41.73-24.79,3.1,0,7.65,0,7.65,3.3,0,1.86-2.28,2.27-3.31,2.27-1.65,0-3.3-.41-4.34-.41-7.23,0-22.31,2.89-37.6,22.93-6,8.06-8.47,15.29-8.47,20.66,0,5.58,2.9,10.12,8.27,10.12,10.53,0,21.07-11.57,26.44-19.41a184.91,184.91,0,0,0,14.46-25.62c7.65-16.32,15.91-35.33,21.9-49.58,2.48-6.2,4.54-11.36,6.4-15.5a2.7,2.7,0,0,1,2.48-1.65A2.51,2.51,0,0,1,360.72,85a5,5,0,0,1-.41,1.65c-2.69,6-4.13,9.92-6.61,15.91-3.93,9.3-8.89,22.72-20.66,47.1-9.5,20-12.81,33.26-12.81,38.63,0,2.28.41,5.79,2.48,5.79,6,0,21.69-17.36,32.43-29.34a3.33,3.33,0,0,1,2.07-1,2.28,2.28,0,0,1,2.48,2.48,3.6,3.6,0,0,1-.83,2.06c-18.38,20-28.71,31-35.94,31-5.58,0-7.65-6.4-7.65-10.74a41.75,41.75,0,0,1,1.24-9.5c-7.43,9.71-17.76,20.45-29.95,20.45C277.88,199.49,273.13,192.26,273.13,184.41Z"></path><path class="cls-4" d="M329.73,253.41a2.56,2.56,0,0,1,.21-1.24c10.32-23.35,32.22-75.2,43.17-101.23l-14.46,17.35a2.66,2.66,0,0,1-2.07.83,2.38,2.38,0,0,1-2.47-2.48,2.3,2.3,0,0,1,.62-1.65l25.4-30.16A3.06,3.06,0,0,1,382,134a2.6,2.6,0,0,1,2.69,2.69,1.21,1.21,0,0,1-.21.82l-9.29,22.31a104.75,104.75,0,0,1,17.76-18c6.41-5.16,11.36-6.82,14.67-6.82,7,0,9.92,6.41,9.92,13,0,11.57-7,27.47-16.94,38.42A49.21,49.21,0,0,1,388,196.39a35.71,35.71,0,0,0,17.56-6c8.47-5.79,17.56-15.91,26.24-25.62a2.24,2.24,0,0,1,1.86-.83,2.56,2.56,0,0,1,2.48,2.69,2.35,2.35,0,0,1-.62,1.65c-9.92,11.37-18,20.25-27.06,26.24a43.67,43.67,0,0,1-24.17,7.23c-6.61,0-14.26-1.24-18-2.89a2.64,2.64,0,0,1,.83-5.17c1.86,0,3.72,1.45,5.58,1.45,10.53,0,18.8-6.4,24-12.19,10.12-11,15.7-25.61,15.7-34.91,0-3.51-1-7.85-5-7.85-2.06,0-5.78,1-11.36,5.58-11.57,9.09-24.38,25.41-32,40.28l-.41.62c-10.33,24.58-22.11,52.27-28.92,67.55a2.7,2.7,0,0,1-2.48,1.65A2.38,2.38,0,0,1,329.73,253.41Z"></path><path class="cls-4" d="M180.12,191.1c0-9.07,6.8-24.12,11.34-33.6-5.78,6.8-8.37,9.91-10.64,12.18a2.12,2.12,0,0,1-1.65.82,2.69,2.69,0,0,1-2.47-2.68,2.32,2.32,0,0,1,.62-1.65c1-1.23,5.68-7,11.66-13.82l13.4-15.67a2.56,2.56,0,0,1,2.07-1c1.65,0,2.47.83,2.47,2.27a4.47,4.47,0,0,1-.21,1.65c-1.23,2.06-7.42,13.2-13,25.36-4.12,9.28-7.83,19-8.45,25.36,0,2.47.21,4.33,2.27,4.33,1.65,0,3.92-.82,6.39-3.09a370,370,0,0,0,26.18-26.81,2.43,2.43,0,0,1,2.07-.82,2.49,2.49,0,0,1,2.47,2.47,3.08,3.08,0,0,1-.82,1.86c-.21.21-8,9.9-26.6,27-3.3,3.09-6.8,4.53-9.9,4.53C182,199.76,180.12,195.23,180.12,191.1Zm36.49-70.71c-2.89,0-3.92-2.27-3.92-4.74,0-3.3,2.48-6,5.36-6s4.13,2.26,4.13,4.53C222.18,119.15,218.67,120.39,216.61,120.39Z"></path></svg> 