<?xml version="1.0" encoding="UTF-8"?> <svg xmlns="http://www.w3.org/2000/svg" id="Layer_1" data-name="Layer 1" viewBox="0 0 450 335"><defs><style>.cls-1{fill:#fff;}.cls-2{fill:#ececec;}.cls-3{fill:#bca5cf;}.cls-4{fill:#111035;}</style></defs><rect class="cls-1" x="-0.33" width="450" height="335"></rect><rect class="cls-2" x="-0.33" y="199.03" width="450" height="34.2"></rect><rect class="cls-2" x="-0.33" y="101.31" width="450" height="35.12"></rect><polygon class="cls-3" points="160.11 233.04 141.47 233.04 152.02 101.31 170.65 101.31 160.11 233.04"></polygon><path class="cls-4" d="M59.5,184.49a3.94,3.94,0,0,1-.67-2.27,2.85,2.85,0,0,1,2.81-2.94,3.31,3.31,0,0,1,2.81,1.47C69.53,187.3,77,194.39,92,194.39c13.77,0,24.2-7.63,24.2-21.27,0-10.56-6.28-16.18-19.79-25.27l-4.55-3.08c-8.82-6-15.78-13-15.78-22.87,0-11.36,8.69-21.12,23.54-21.12,10.83,0,18.19,3.61,21.53,7a3.71,3.71,0,0,1,1.34,2.67,2.85,2.85,0,0,1-2.94,2.81,2.91,2.91,0,0,1-2.14-.93c-3.48-3-9.1-6.16-17.79-6.16-11.1,0-17.25,6.82-17.25,15.25,0,8.16,5.35,13.11,13,18.32l4.55,3.08c13.77,9.36,22.6,15.78,22.6,29.82,0,17-13.38,27.15-30.36,27.15C74.75,199.74,64.45,191.85,59.5,184.49Z"></path><path class="cls-4" d="M148.69,104.12a3,3,0,0,1,2.95-2.81,3,3,0,0,1,3.07,3.08c0,.13,0,.53-.13,2.14l-4.28,53.76h.13l30.76-23.54a3.15,3.15,0,0,1,1.87-.67A3,3,0,0,1,186,139a2.79,2.79,0,0,1-1.2,2.28l-30,22.73,31.56,29.56a3.4,3.4,0,0,1,1.33,2.67,2.91,2.91,0,0,1-3.07,2.94,3.05,3.05,0,0,1-2.14-.8L149.9,167.77h-.27l-2.14,28.62a2.89,2.89,0,0,1-3.08,2.81,2.81,2.81,0,0,1-2.94-2.94c0-.27,0-.54.14-2.27Z"></path><path class="cls-4" d="M218.23,189.31l25.14-51.62a2.74,2.74,0,0,1,2.54-1.61,3,3,0,0,1,2.94,2.94,7.66,7.66,0,0,1-.93,2.81L220.1,197.6a2.87,2.87,0,0,1-2.81,1.6,2.8,2.8,0,0,1-2.81-2l-15.24-56.44a6.41,6.41,0,0,1-.27-1.6,2.92,2.92,0,0,1,2.94-3.08,3.09,3.09,0,0,1,3.08,2.54l13.11,50.69Z"></path><path class="cls-4" d="M299.4,141.3l.14-.94c.26-1.74,1.2-2.94,2.94-2.94a3,3,0,0,1,3.07,3.07c0,.27,0,.54-.13,2.28l-4.28,53.62a2.89,2.89,0,0,1-3.07,2.81,2.81,2.81,0,0,1-2.95-2.94,20.84,20.84,0,0,1,.14-2.41l1.07-12.3h-.14c-2.94,8-10.16,18.19-21.39,18.19S257,191.18,257,176.33c0-20.59,11.1-40.79,29.29-40.79C292.45,135.54,297,138.09,299.4,141.3Zm-.53,8a12.85,12.85,0,0,0-12.17-8.42c-15.25,0-23.41,17.91-23.41,35.17,0,11,4,18.32,11.77,18.32,12.84,0,21.53-18.06,23-35.31Z"></path><path class="cls-4" d="M361.45,208.3l2.14-26.75h-.14c-3.47,8.42-11.5,18.19-23,18.19s-18.19-8.56-18.19-23.54c0-19.93,11.77-40.66,30.49-40.66,7,0,11.77,2.81,13.91,5.89l.14-1.34a2.92,2.92,0,0,1,2.94-2.67,3,3,0,0,1,3.07,3.07c0,.14,0,.54-.13,2l-5.21,65.8h6a2.68,2.68,0,0,1,2.68,2.67,2.6,2.6,0,0,1-2.68,2.67h-6.41l-1.34,17a2.89,2.89,0,0,1-3.08,2.81,2.81,2.81,0,0,1-2.94-2.94c0-.27,0-.81.13-2.41l1.21-14.45H355.3a2.53,2.53,0,0,1-2.68-2.67,2.6,2.6,0,0,1,2.68-2.67Zm4.54-59a14,14,0,0,0-13-8.42c-15.78,0-24.47,18.45-24.47,35,0,11,4.15,18.46,12.44,18.46,14.44,0,23.13-21,24.2-34.51Z"></path></svg> 