<?xml version="1.0" encoding="UTF-8"?> <svg xmlns="http://www.w3.org/2000/svg" xmlns:xlink="http://www.w3.org/1999/xlink" viewBox="0 0 1920 3702.68"><defs><style>.cls-1,.cls-2,.cls-3,.cls-4,.cls-5{fill:none;}.cls-2{stroke-dasharray:0 0 1.77 17.72;}.cls-2,.cls-3,.cls-4{stroke:#a797c9;stroke-linecap:round;stroke-width:7px;}.cls-2,.cls-3,.cls-4,.cls-5{stroke-miterlimit:10;}.cls-6{clip-path:url(#clippath);}.cls-7{fill:#fff;}.cls-8{fill:#937fbb;}.cls-9{fill:#171c32;}.cls-10{fill:#947fbb;}.cls-11{clip-path:url(#clippath-1);}.cls-4{stroke-dasharray:0 0 1.74 17.45;}.cls-5{stroke:#57678b;stroke-width:3.5px;}</style><clipPath id="clippath"><circle class="cls-1" cx="1183.92" cy="655.42" r="106.33"></circle></clipPath><clipPath id="clippath-1"><circle class="cls-1" cx="1284.45" cy="1271.44" r="50.21"></circle></clipPath></defs><g id="Background"><rect class="cls-9" width="1920" height="3702.68"></rect></g><g id="Horizontal_Guides"><line class="cls-5" y1="2871.71" x2="1920" y2="2871.71"></line><line class="cls-5" y1="3042.52" x2="1920" y2="3042.52"></line><line class="cls-5" x1="1920" y1="3232.67" y2="3232.67"></line><line class="cls-5" y1="3410.36" x2="1920" y2="3410.36"></line><line class="cls-5" y1="1981.86" x2="1920" y2="1981.86"></line><line class="cls-5" y1="2152.67" x2="1920" y2="2152.67"></line><line class="cls-5" x1="1920" y1="2342.82" y2="2342.82"></line><line class="cls-5" y1="2520.51" x2="1920" y2="2520.51"></line><line class="cls-5" y1="1090.68" x2="1920" y2="1090.68"></line><line class="cls-5" y1="1261.48" x2="1920" y2="1261.48"></line><line class="cls-5" x1="1920" y1="1451.63" y2="1451.63"></line><line class="cls-5" y1="1629.33" x2="1920" y2="1629.33"></line><line class="cls-5" y1="202.72" x2="1920" y2="202.72"></line><line class="cls-5" y1="373.52" x2="1920" y2="373.52"></line><line class="cls-5" x1="1920" y1="563.67" y2="563.67"></line><line class="cls-5" y1="741.37" x2="1920" y2="741.37"></line></g><g id="info"><line class="cls-3" x1="1288.91" y1="1724.97" x2="1288.91" y2="1724.1"></line><line class="cls-2" x1="1288.91" y1="1706.37" x2="1288.91" y2="1344.8"></line><line class="cls-3" x1="1288.91" y1="1335.94" x2="1288.91" y2="1335.06"></line><path class="cls-7" d="m680.9,3464.68v-19.95h2.94v19.95c0,9.41,4.07,10.63,8.86,10.63s8.78-1.01,8.78-10.63v-19.95h2.94v19.62c0,11.64-5.33,13.69-11.76,13.69s-11.76-2.06-11.76-13.36Z"></path><path class="cls-7" d="m712.19,3456.49h2.39l.34,3.87h.08c1.13-2.48,4.03-4.41,7.86-4.41,6.3,0,9.66,3.99,9.66,11.01s-4.28,11.09-9.87,11.09c-3.78,0-6.39-1.6-7.44-3.7h-.08v11.55h-2.94v-29.41Zm17.18,10.63c0-7.18-3.4-8.61-6.93-8.61-4.24,0-7.56,2.73-7.56,8.44,0,6.01,3.44,8.57,7.44,8.57,3.02,0,7.06-1.47,7.06-8.4Z"></path><path class="cls-7" d="m738.4,3456.49h2.6l.29,3.91c1.01-2.14,3.07-4.45,6.76-4.45,1.26,0,2.18.21,3.02.55v3.15c-1.13-.5-2.1-.76-3.4-.76-3.74,0-6.34,2.81-6.34,5.75v12.85h-2.94v-21Z"></path><path class="cls-7" d="m755.71,3444.72h2.98v6.51h-2.98v-6.51Zm0,11.76h2.94v21h-2.94v-21Z"></path><path class="cls-7" d="m765.41,3479.3v-.13h3.11v.13c0,2.9,1.93,4.33,6.13,4.33,4.79,0,7.02-2.94,7.02-7.86v-2.1h-.08c-1.09,2.18-3.65,4.07-7.48,4.07-6.3,0-9.75-3.99-9.75-10.71,0-7.1,4.37-11.09,9.96-11.09,3.78,0,6.55,1.81,7.56,4.12h.13l.29-3.57h2.31v19.16c0,5.88-2.81,10.71-10.33,10.71-6.3,0-8.86-2.98-8.86-7.06Zm16.59-12.77c0-5.5-3.36-8.07-7.35-8.07-3.02,0-7.14,1.47-7.14,8.4s3.57,8.32,7.1,8.32c4.24,0,7.39-2.73,7.39-8.65Z"></path><path class="cls-7" d="m791.95,3444.72h2.94v15.17c1.05-2.1,3.28-3.95,7.31-3.95,4.75,0,7.77,2.52,7.77,7.94v13.61h-2.94v-13.27c0-4.33-2.14-5.71-5.5-5.71-3.82,0-6.64,2.69-6.64,5.63v13.36h-2.94v-32.77Z"></path><path class="cls-7" d="m828.28,3474.8v2.6c-.76.21-2.14.59-4.03.59-3.82,0-6.34-1.6-6.34-6.89v-12.18h-4.16v-2.44h4.16v-6.05l2.94-1.43v7.48h5.92v2.44h-5.92v11.8c0,2.81.76,4.58,3.4,4.58,1.6,0,3.23-.29,4.03-.5Z"></path><rect class="cls-10" x="727.97" y="2873.71" width="49.88" height="535.9"></rect><path class="cls-7" d="m239.03,870.94h8.36c11.05,0,17.39,4.54,17.39,16.42s-6.26,16.34-17.18,16.34h-8.57v-32.77Zm8.65,30.12c9.41,0,14.03-3.74,14.03-13.78s-4.49-13.74-14.07-13.74h-5.67v27.51h5.71Z"></path><path class="cls-7" d="m288.34,894.21h-15.96c.17,4.79,2.48,7.48,6.93,7.48,3.82,0,5.67-1.43,5.97-4.83h2.98c-.29,4.24-3.28,7.39-9.03,7.39-7.06,0-9.83-4.66-9.83-10.88s3.23-11.22,10-11.22,8.95,3.99,8.95,10.21v1.85Zm-3.11-2.98c0-4.45-1.72-6.55-5.92-6.55s-6.55,2.65-6.89,6.97h12.81v-.42Z"></path><path class="cls-7" d="m292.54,893.37c0-6.38,3.23-11.22,10-11.22s8.95,3.91,8.95,8.95v.42h-3.11v-.63c0-3.82-1.64-6.09-5.84-6.09-4.75,0-7.02,3.11-7.02,8.4,0,5.63,2.39,8.49,6.93,8.49,3.82,0,5.84-1.85,5.92-5.67h3.02c-.08,4.66-3.15,8.23-9.03,8.23-7.22,0-9.83-4.75-9.83-10.88Z"></path><path class="cls-7" d="m315.68,893.21c0-6.22,3.32-11.05,10.38-11.05,6.59,0,10.25,4.83,10.25,11.05s-3.7,11.05-10.29,11.05c-7.27,0-10.33-4.83-10.33-11.05Zm17.56,0c0-5.33-2.9-8.49-7.22-8.49-4.75,0-7.27,3.15-7.27,8.49s2.56,8.49,7.27,8.49c4.33,0,7.22-3.15,7.22-8.49Z"></path><path class="cls-7" d="m342.18,882.7h2.6l.29,3.91c1.01-2.14,3.07-4.45,6.76-4.45,1.26,0,2.18.21,3.02.55v3.15c-1.13-.5-2.1-.76-3.4-.76-3.74,0-6.34,2.81-6.34,5.75v12.85h-2.94v-21Z"></path><path class="cls-7" d="m357.8,897.91c0-3.95,2.23-6.09,7.86-6.09h6.34v-1.72c0-2.98-1.26-5.42-5.46-5.42-3.95,0-5.33,1.51-5.33,4.12v.88h-2.98v-.84c0-5,4.2-6.68,8.32-6.68,5.8,0,8.4,2.86,8.4,8.44v13.11h-2.06l-.55-2.98h-.08c-1.26,1.89-3.7,3.53-7.35,3.53-4.92,0-7.1-2.31-7.1-6.34Zm14.2-1.85v-1.76h-7.01c-2.65,0-4.03.92-4.03,3.61,0,2.35,1.26,3.86,4.5,3.86,4.16,0,6.55-2.14,6.55-5.71Z"></path><path class="cls-7" d="m393.04,901.02v2.6c-.76.21-2.14.59-4.03.59-3.82,0-6.34-1.6-6.34-6.89v-12.18h-4.16v-2.44h4.16v-6.05l2.94-1.43v7.48h5.92v2.44h-5.92v11.8c0,2.81.76,4.58,3.4,4.58,1.6,0,3.23-.29,4.03-.5Z"></path><path class="cls-7" d="m397.87,870.94h2.98v6.51h-2.98v-6.51Zm0,11.76h2.94v21h-2.94v-21Z"></path><path class="cls-7" d="m405.05,882.75v-.04h3.36l7.35,17.98h.08l7.1-17.98h3.07v.04l-8.74,20.96h-3.02l-9.2-20.96Z"></path><path class="cls-7" d="m446.85,894.21h-15.96c.17,4.79,2.48,7.48,6.93,7.48,3.82,0,5.67-1.43,5.97-4.83h2.98c-.29,4.24-3.28,7.39-9.03,7.39-7.06,0-9.83-4.66-9.83-10.88s3.23-11.22,10-11.22,8.95,3.99,8.95,10.21v1.85Zm-3.11-2.98c0-4.45-1.72-6.55-5.92-6.55s-6.55,2.65-6.89,6.97h12.81v-.42Z"></path><path class="cls-7" d="m461.96,896.31v-13.61h2.94v13.27c0,4.33,2.14,5.71,5.42,5.71,3.74,0,6.55-2.69,6.55-5.63v-13.36h2.94v21h-2.6l-.25-3.36h-.08c-.97,2.02-3.23,3.91-7.23,3.91-4.66,0-7.69-2.52-7.69-7.94Z"></path><path class="cls-7" d="m487.16,882.7h2.39l.34,3.86h.08c1.13-2.48,4.03-4.41,7.86-4.41,6.3,0,9.66,3.99,9.66,11.01s-4.29,11.09-9.87,11.09c-3.78,0-6.38-1.6-7.43-3.7h-.08v11.55h-2.94v-29.41Zm17.18,10.63c0-7.18-3.4-8.61-6.93-8.61-4.24,0-7.56,2.73-7.56,8.44,0,6.01,3.45,8.57,7.44,8.57,3.02,0,7.06-1.47,7.06-8.4Z"></path><path class="cls-7" d="m513.37,882.7h2.39l.34,3.86h.08c1.13-2.48,4.03-4.41,7.86-4.41,6.3,0,9.66,3.99,9.66,11.01s-4.29,11.09-9.87,11.09c-3.78,0-6.38-1.6-7.43-3.7h-.08v11.55h-2.94v-29.41Zm17.18,10.63c0-7.18-3.4-8.61-6.93-8.61-4.24,0-7.56,2.73-7.56,8.44,0,6.01,3.45,8.57,7.44,8.57,3.02,0,7.06-1.47,7.06-8.4Z"></path><path class="cls-7" d="m556.85,894.21h-15.96c.17,4.79,2.48,7.48,6.93,7.48,3.82,0,5.67-1.43,5.97-4.83h2.98c-.29,4.24-3.28,7.39-9.03,7.39-7.06,0-9.83-4.66-9.83-10.88s3.23-11.22,10-11.22,8.95,3.99,8.95,10.21v1.85Zm-3.11-2.98c0-4.45-1.72-6.55-5.92-6.55s-6.55,2.65-6.89,6.97h12.81v-.42Z"></path><path class="cls-7" d="m562.72,882.7h2.6l.29,3.91c1.01-2.14,3.07-4.45,6.76-4.45,1.26,0,2.18.21,3.02.55v3.15c-1.13-.5-2.1-.76-3.4-.76-3.74,0-6.34,2.81-6.34,5.75v12.85h-2.94v-21Z"></path><path class="cls-7" d="m577.72,893.37c0-6.38,3.23-11.22,10-11.22s8.95,3.91,8.95,8.95v.42h-3.11v-.63c0-3.82-1.64-6.09-5.84-6.09-4.75,0-7.02,3.11-7.02,8.4,0,5.63,2.39,8.49,6.93,8.49,3.82,0,5.84-1.85,5.92-5.67h3.02c-.08,4.66-3.15,8.23-9.03,8.23-7.22,0-9.83-4.75-9.83-10.88Z"></path><path class="cls-7" d="m601.07,897.91c0-3.95,2.23-6.09,7.86-6.09h6.34v-1.72c0-2.98-1.26-5.42-5.46-5.42-3.95,0-5.33,1.51-5.33,4.12v.88h-2.98v-.84c0-5,4.2-6.68,8.32-6.68,5.8,0,8.4,2.86,8.4,8.44v13.11h-2.06l-.55-2.98h-.08c-1.26,1.89-3.7,3.53-7.35,3.53-4.92,0-7.1-2.31-7.1-6.34Zm14.2-1.85v-1.76h-7.01c-2.65,0-4.03.92-4.03,3.61,0,2.35,1.26,3.86,4.5,3.86,4.16,0,6.55-2.14,6.55-5.71Z"></path><path class="cls-7" d="m623.67,897.28v-1.18h2.94v1.13c0,2.86,2.14,4.5,5.96,4.5s5.8-1.01,5.8-3.78c0-2.06-1.01-2.81-3.86-3.32l-4.62-.84c-3.02-.55-5.54-2.02-5.54-5.5,0-3.15,2.35-6.13,8.4-6.13s8.4,3.02,8.4,7.22v.88h-2.98v-.76c0-3.44-2.14-4.91-5.42-4.91-3.95,0-5.33,1.34-5.33,3.36s1.01,2.86,3.91,3.4l4.03.76c4.12.76,6.09,1.93,6.09,5.59,0,4.58-4.12,6.55-8.78,6.55-7.31,0-8.99-3.28-8.99-6.97Z"></path><path class="cls-7" d="m664.58,894.21h-15.96c.17,4.79,2.48,7.48,6.93,7.48,3.82,0,5.67-1.43,5.97-4.83h2.98c-.29,4.24-3.28,7.39-9.03,7.39-7.06,0-9.83-4.66-9.83-10.88s3.23-11.22,10-11.22,8.95,3.99,8.95,10.21v1.85Zm-3.11-2.98c0-4.45-1.72-6.55-5.92-6.55s-6.55,2.65-6.89,6.97h12.81v-.42Z"></path><path class="cls-7" d="m680.11,870.94h2.94v32.77h-2.94v-32.77Z"></path><path class="cls-7" d="m707.67,894.21h-15.96c.17,4.79,2.48,7.48,6.93,7.48,3.82,0,5.67-1.43,5.97-4.83h2.98c-.29,4.24-3.28,7.39-9.03,7.39-7.06,0-9.83-4.66-9.83-10.88s3.23-11.22,10-11.22,8.95,3.99,8.95,10.21v1.85Zm-3.11-2.98c0-4.45-1.72-6.55-5.92-6.55s-6.55,2.65-6.89,6.97h12.81v-.42Z"></path><path class="cls-7" d="m714.13,897.32v-12.18h-4.16v-2.44h4.16v-6.05l2.94-1.43v7.48h11.85v-6.05l2.94-1.43v7.48h5.92v2.44h-5.92v11.8c0,2.81.76,4.58,3.4,4.58,1.6,0,3.24-.29,4.03-.5v2.6c-.76.21-2.14.59-4.03.59-3.82,0-6.34-1.6-6.34-6.89v-12.18h-11.85v11.8c0,2.81.76,4.58,3.4,4.58,1.6,0,3.23-.29,4.03-.5v2.6c-.76.21-2.14.59-4.03.59-3.82,0-6.34-1.6-6.34-6.89Z"></path><path class="cls-7" d="m760.76,894.21h-15.96c.17,4.79,2.48,7.48,6.93,7.48,3.82,0,5.67-1.43,5.97-4.83h2.98c-.29,4.24-3.28,7.39-9.03,7.39-7.06,0-9.83-4.66-9.83-10.88s3.23-11.22,10-11.22,8.95,3.99,8.95,10.21v1.85Zm-3.11-2.98c0-4.45-1.72-6.55-5.92-6.55s-6.55,2.65-6.89,6.97h12.81v-.42Z"></path><path class="cls-7" d="m766.63,882.7h2.6l.29,3.91c1.01-2.14,3.07-4.45,6.76-4.45,1.26,0,2.18.21,3.02.55v3.15c-1.13-.5-2.1-.76-3.4-.76-3.74,0-6.34,2.81-6.34,5.75v12.85h-2.94v-21Z"></path><path class="cls-7" d="m781.84,897.28v-1.18h2.94v1.13c0,2.86,2.14,4.5,5.96,4.5s5.8-1.01,5.8-3.78c0-2.06-1.01-2.81-3.86-3.32l-4.62-.84c-3.02-.55-5.54-2.02-5.54-5.5,0-3.15,2.35-6.13,8.4-6.13s8.4,3.02,8.4,7.22v.88h-2.98v-.76c0-3.44-2.14-4.91-5.42-4.91-3.95,0-5.33,1.34-5.33,3.36s1.01,2.86,3.91,3.4l4.03.76c4.12.76,6.09,1.93,6.09,5.59,0,4.58-4.12,6.55-8.78,6.55-7.31,0-8.99-3.28-8.99-6.97Z"></path><path class="cls-7" d="m248.94,949.86v2.6c-.76.21-2.14.59-4.03.59-3.82,0-6.34-1.6-6.34-6.89v-12.18h-4.16v-2.44h4.16v-6.05l2.94-1.43v7.48h5.92v2.44h-5.92v11.8c0,2.81.76,4.58,3.4,4.58,1.6,0,3.23-.29,4.03-.5Z"></path><path class="cls-7" d="m253.77,919.79h2.94v15.17c1.05-2.1,3.28-3.95,7.31-3.95,4.75,0,7.77,2.52,7.77,7.94v13.61h-2.94v-13.27c0-4.33-2.14-5.71-5.5-5.71-3.82,0-6.64,2.69-6.64,5.63v13.36h-2.94v-32.77Z"></path><path class="cls-7" d="m277.88,946.76c0-3.95,2.23-6.09,7.86-6.09h6.34v-1.72c0-2.98-1.26-5.42-5.46-5.42-3.95,0-5.33,1.51-5.33,4.12v.88h-2.98v-.84c0-5,4.2-6.68,8.32-6.68,5.8,0,8.4,2.86,8.4,8.44v13.11h-2.06l-.55-2.98h-.08c-1.26,1.89-3.7,3.53-7.35,3.53-4.92,0-7.1-2.31-7.1-6.34Zm14.2-1.85v-1.76h-7.01c-2.65,0-4.03.92-4.03,3.61,0,2.35,1.26,3.87,4.5,3.87,4.16,0,6.55-2.14,6.55-5.71Z"></path><path class="cls-7" d="m313.12,949.86v2.6c-.76.21-2.14.59-4.03.59-3.82,0-6.34-1.6-6.34-6.89v-12.18h-4.16v-2.44h4.16v-6.05l2.94-1.43v7.48h5.92v2.44h-5.92v11.8c0,2.81.76,4.58,3.4,4.58,1.6,0,3.23-.29,4.03-.5Z"></path><path class="cls-7" d="m327.61,931.55h2.39l.34,3.87h.08c1.13-2.48,4.03-4.41,7.86-4.41,6.3,0,9.66,3.99,9.66,11.01s-4.29,11.09-9.87,11.09c-3.78,0-6.38-1.6-7.43-3.7h-.08v11.55h-2.94v-29.41Zm17.18,10.63c0-7.18-3.4-8.61-6.93-8.61-4.24,0-7.56,2.73-7.56,8.44,0,6.01,3.45,8.57,7.44,8.57,3.02,0,7.06-1.47,7.06-8.4Z"></path><path class="cls-7" d="m352.34,946.76c0-3.95,2.23-6.09,7.86-6.09h6.34v-1.72c0-2.98-1.26-5.42-5.46-5.42-3.95,0-5.33,1.51-5.33,4.12v.88h-2.98v-.84c0-5,4.2-6.68,8.32-6.68,5.8,0,8.4,2.86,8.4,8.44v13.11h-2.06l-.55-2.98h-.08c-1.26,1.89-3.7,3.53-7.35,3.53-4.92,0-7.1-2.31-7.1-6.34Zm14.2-1.85v-1.76h-7.01c-2.65,0-4.03.92-4.03,3.61,0,2.35,1.26,3.87,4.5,3.87,4.16,0,6.55-2.14,6.55-5.71Z"></path><path class="cls-7" d="m376.83,931.55h2.6l.29,3.91c1.01-2.14,3.07-4.45,6.76-4.45,1.26,0,2.18.21,3.02.55v3.15c-1.13-.5-2.1-.76-3.4-.76-3.74,0-6.34,2.81-6.34,5.75v12.85h-2.94v-21Z"></path><path class="cls-7" d="m405.1,949.86v2.6c-.76.21-2.14.59-4.03.59-3.82,0-6.34-1.6-6.34-6.89v-12.18h-4.16v-2.44h4.16v-6.05l2.94-1.43v7.48h5.92v2.44h-5.92v11.8c0,2.81.76,4.58,3.4,4.58,1.6,0,3.23-.29,4.03-.5Z"></path><path class="cls-7" d="m409.93,919.79h2.98v6.51h-2.98v-6.51Zm0,11.76h2.94v21h-2.94v-21Z"></path><path class="cls-7" d="m419,946.76c0-3.95,2.23-6.09,7.86-6.09h6.34v-1.72c0-2.98-1.26-5.42-5.46-5.42-3.95,0-5.33,1.51-5.33,4.12v.88h-2.98v-.84c0-5,4.2-6.68,8.32-6.68,5.8,0,8.4,2.86,8.4,8.44v13.11h-2.06l-.55-2.98h-.08c-1.26,1.89-3.7,3.53-7.35,3.53-4.92,0-7.1-2.31-7.1-6.34Zm14.2-1.85v-1.76h-7.01c-2.65,0-4.03.92-4.03,3.61,0,2.35,1.26,3.87,4.5,3.87,4.16,0,6.55-2.14,6.55-5.71Z"></path><path class="cls-7" d="m443.48,919.79h2.94v32.77h-2.94v-32.77Z"></path><path class="cls-7" d="m453.77,919.79h2.94v32.77h-2.94v-32.77Z"></path><path class="cls-7" d="m464.06,931.55l6.89,17.98h.08l7.14-17.98h3.07v.04l-8.86,20.84-3.11,8.53h-2.98v-.04l3.19-8.36-8.78-20.96v-.04h3.36Z"></path><path class="cls-7" d="m498.04,955.58c0,3.53-1.68,5.84-5.04,5.84-1.18,0-2.02-.13-2.94-.38v-2.6c.8.17,1.47.29,2.27.29,1.93,0,2.77-1.26,2.77-3.66v-23.52h2.94v24.03Zm-2.94-35.79h2.98v6.51h-2.98v-6.51Z"></path><path class="cls-7" d="m503.75,942.05c0-6.22,3.32-11.05,10.38-11.05,6.59,0,10.25,4.83,10.25,11.05s-3.7,11.05-10.29,11.05c-7.27,0-10.33-4.83-10.33-11.05Zm17.56,0c0-5.33-2.9-8.49-7.22-8.49-4.75,0-7.27,3.15-7.27,8.49s2.56,8.49,7.27,8.49c4.33,0,7.22-3.15,7.22-8.49Z"></path><path class="cls-7" d="m530.26,919.79h2.98v6.51h-2.98v-6.51Zm0,11.76h2.94v21h-2.94v-21Z"></path><path class="cls-7" d="m540.59,931.55h2.6l.29,3.49c1.01-2.14,3.28-4.03,7.35-4.03,4.75,0,7.77,2.52,7.77,7.94v13.61h-2.94v-13.27c0-4.33-2.14-5.71-5.5-5.71-3.82,0-6.64,2.69-6.64,5.63v13.36h-2.94v-21Z"></path><path class="cls-7" d="m572.89,931.59v-.04h2.98l5.75,17.48h.08l6.3-17.48h2.69l6.17,17.48h.08l5.75-17.48h2.86v.04l-7.18,20.96h-3.02l-5.96-17.05h-.08l-6.22,17.05h-3.02l-7.18-20.96Z"></path><path class="cls-7" d="m610.39,919.79h2.98v6.51h-2.98v-6.51Zm0,11.76h2.94v21h-2.94v-21Z"></path><path class="cls-7" d="m631.69,949.86v2.6c-.76.21-2.14.59-4.03.59-3.82,0-6.34-1.6-6.34-6.89v-12.18h-4.16v-2.44h4.16v-6.05l2.94-1.43v7.48h5.92v2.44h-5.92v11.8c0,2.81.76,4.58,3.4,4.58,1.6,0,3.23-.29,4.03-.5Z"></path><path class="cls-7" d="m636.52,919.79h2.94v15.17c1.05-2.1,3.28-3.95,7.31-3.95,4.75,0,7.77,2.52,7.77,7.94v13.61h-2.94v-13.27c0-4.33-2.14-5.71-5.5-5.71-3.82,0-6.64,2.69-6.64,5.63v13.36h-2.94v-32.77Z"></path><path class="cls-7" d="m671.54,919.79h2.94v32.77h-2.94v-32.77Z"></path><path class="cls-7" d="m680.16,942.05c0-6.22,3.32-11.05,10.38-11.05,6.59,0,10.25,4.83,10.25,11.05s-3.7,11.05-10.29,11.05c-7.27,0-10.33-4.83-10.33-11.05Zm17.56,0c0-5.33-2.9-8.49-7.22-8.49-4.75,0-7.27,3.15-7.27,8.49s2.56,8.49,7.27,8.49c4.33,0,7.22-3.15,7.22-8.49Z"></path><path class="cls-7" d="m703.09,931.59v-.04h2.98l5.76,17.48h.08l6.3-17.48h2.69l6.17,17.48h.08l5.75-17.48h2.86v.04l-7.18,20.96h-3.02l-5.96-17.05h-.08l-6.22,17.05h-3.02l-7.18-20.96Z"></path><path class="cls-7" d="m757.02,943.06h-15.96c.17,4.79,2.48,7.48,6.93,7.48,3.82,0,5.67-1.43,5.97-4.83h2.98c-.29,4.24-3.28,7.39-9.03,7.39-7.06,0-9.83-4.66-9.83-10.88s3.23-11.22,10-11.22,8.95,3.99,8.95,10.21v1.85Zm-3.11-2.98c0-4.45-1.72-6.55-5.92-6.55s-6.55,2.65-6.89,6.97h12.81v-.42Z"></path><path class="cls-7" d="m762.89,931.55h2.6l.29,3.91c1.01-2.14,3.07-4.45,6.76-4.45,1.26,0,2.18.21,3.02.55v3.15c-1.13-.5-2.1-.76-3.4-.76-3.74,0-6.34,2.81-6.34,5.75v12.85h-2.94v-21Z"></path><path class="cls-7" d="m777.89,942.22c0-6.38,3.23-11.22,10-11.22s8.95,3.91,8.95,8.95v.42h-3.11v-.63c0-3.82-1.64-6.09-5.84-6.09-4.75,0-7.02,3.11-7.02,8.4,0,5.63,2.39,8.49,6.93,8.49,3.82,0,5.84-1.85,5.92-5.67h3.02c-.08,4.66-3.15,8.23-9.03,8.23-7.22,0-9.83-4.75-9.83-10.88Z"></path><path class="cls-7" d="m801.24,946.76c0-3.95,2.23-6.09,7.86-6.09h6.34v-1.72c0-2.98-1.26-5.42-5.46-5.42-3.95,0-5.33,1.51-5.33,4.12v.88h-2.98v-.84c0-5,4.2-6.68,8.32-6.68,5.8,0,8.4,2.86,8.4,8.44v13.11h-2.06l-.55-2.98h-.08c-1.26,1.89-3.7,3.53-7.35,3.53-4.92,0-7.1-2.31-7.1-6.34Zm14.2-1.85v-1.76h-7.01c-2.65,0-4.03.92-4.03,3.61,0,2.35,1.26,3.87,4.5,3.87,4.16,0,6.55-2.14,6.55-5.71Z"></path><path class="cls-7" d="m823.84,946.13v-1.18h2.94v1.13c0,2.86,2.14,4.5,5.96,4.5s5.8-1.01,5.8-3.78c0-2.06-1.01-2.81-3.86-3.32l-4.62-.84c-3.02-.55-5.54-2.02-5.54-5.5,0-3.15,2.35-6.13,8.4-6.13s8.4,3.02,8.4,7.23v.88h-2.98v-.76c0-3.44-2.14-4.92-5.42-4.92-3.95,0-5.33,1.34-5.33,3.36s1.01,2.86,3.91,3.4l4.03.76c4.12.76,6.09,1.93,6.09,5.59,0,4.58-4.12,6.55-8.78,6.55-7.31,0-8.99-3.28-8.99-6.97Z"></path><path class="cls-7" d="m864.75,943.06h-15.96c.17,4.79,2.48,7.48,6.93,7.48,3.82,0,5.67-1.43,5.97-4.83h2.98c-.29,4.24-3.28,7.39-9.03,7.39-7.06,0-9.83-4.66-9.83-10.88s3.23-11.22,10-11.22,8.95,3.99,8.95,10.21v1.85Zm-3.11-2.98c0-4.45-1.72-6.55-5.92-6.55s-6.55,2.65-6.89,6.97h12.81v-.42Z"></path><line class="cls-4" x1="541.14" y1="576.66" x2="541.14" y2="851.73"></line><line class="cls-4" x1="1161.99" y1="769.59" x2="1161.99" y2="849.33"></line><line class="cls-4" x1="428.8" y1="986.17" x2="428.8" y2="1142.71"></line><path class="cls-7" d="m1092.24,1760.99c0-12.01,6.76-17.27,14.74-17.27,6.97,0,12.39,3.74,12.39,12.01v.8h-2.86v-.92c0-5.92-3.78-9.24-9.45-9.24-6.72,0-11.76,4.58-11.76,14.32s5.04,14.24,11.72,14.24c5.38,0,9.54-2.86,9.54-9.2v-.59h2.77v.42c0,8.02-5.33,12.01-12.56,12.01-7.98,0-14.53-4.87-14.53-16.59Z"></path><path class="cls-7" d="m1125.25,1769.64v-13.61h2.94v13.27c0,4.33,2.14,5.71,5.42,5.71,3.74,0,6.55-2.69,6.55-5.63v-13.36h2.94v21h-2.6l-.25-3.36h-.08c-.97,2.02-3.23,3.91-7.23,3.91-4.66,0-7.69-2.52-7.69-7.94Z"></path><path class="cls-7" d="m1150.45,1756.03h2.6l.29,3.91c1.01-2.14,3.07-4.45,6.76-4.45,1.26,0,2.18.21,3.02.55v3.15c-1.13-.5-2.1-.76-3.4-.76-3.74,0-6.34,2.81-6.34,5.75v12.85h-2.94v-21Z"></path><path class="cls-7" d="m1164.6,1756.07v-.04h3.36l7.35,17.98h.08l7.1-17.98h3.07v.04l-8.74,20.96h-3.02l-9.2-20.96Z"></path><path class="cls-7" d="m1206.4,1767.54h-15.96c.17,4.79,2.48,7.48,6.93,7.48,3.82,0,5.67-1.43,5.96-4.83h2.98c-.29,4.24-3.28,7.39-9.03,7.39-7.06,0-9.83-4.66-9.83-10.88s3.23-11.22,10-11.22,8.95,3.99,8.95,10.21v1.85Zm-3.11-2.98c0-4.45-1.72-6.55-5.92-6.55s-6.55,2.65-6.89,6.97h12.81v-.42Z"></path><path class="cls-7" d="m1210.59,1766.57c0-7.1,4.28-11.09,10.04-11.09,3.7,0,6.22,1.6,7.31,3.74h.04v-14.95h2.94v32.77h-1.97l-.67-3.61h-.08c-1.18,2.31-3.95,4.16-7.77,4.16-6.3,0-9.83-3.99-9.83-11.01Zm17.64-.5c0-5.5-3.36-8.07-7.35-8.07-3.11,0-7.14,1.47-7.14,8.4s3.61,8.61,7.14,8.61c4.24,0,7.35-2.73,7.35-8.95Z"></path><path class="cls-7" d="m1246.25,1766.7c0-6.38,3.23-11.22,10-11.22s8.95,3.91,8.95,8.95v.42h-3.11v-.63c0-3.82-1.64-6.09-5.84-6.09-4.75,0-7.02,3.11-7.02,8.4,0,5.63,2.39,8.49,6.93,8.49,3.82,0,5.84-1.85,5.92-5.67h3.02c-.08,4.66-3.15,8.23-9.03,8.23-7.23,0-9.83-4.75-9.83-10.88Z"></path><path class="cls-7" d="m1269.39,1766.53c0-6.22,3.32-11.05,10.38-11.05,6.6,0,10.25,4.83,10.25,11.05s-3.7,11.05-10.29,11.05c-7.27,0-10.33-4.83-10.33-11.05Zm17.56,0c0-5.33-2.9-8.49-7.23-8.49-4.75,0-7.27,3.15-7.27,8.49s2.56,8.49,7.27,8.49c4.33,0,7.23-3.15,7.23-8.49Z"></path><path class="cls-7" d="m1295.89,1756.03h2.6l.29,3.49c1.01-2.14,3.28-4.03,7.35-4.03,4.75,0,7.77,2.52,7.77,7.94v13.61h-2.94v-13.27c0-4.33-2.14-5.71-5.5-5.71-3.82,0-6.64,2.69-6.64,5.63v13.36h-2.94v-21Z"></path><path class="cls-7" d="m1321.26,1756.03h2.6l.29,3.49c1.01-2.14,3.28-4.03,7.35-4.03,4.75,0,7.77,2.52,7.77,7.94v13.61h-2.94v-13.27c0-4.33-2.14-5.71-5.5-5.71-3.82,0-6.64,2.69-6.64,5.63v13.36h-2.94v-21Z"></path><path class="cls-7" d="m1363.9,1767.54h-15.96c.17,4.79,2.48,7.48,6.93,7.48,3.82,0,5.67-1.43,5.96-4.83h2.98c-.29,4.24-3.28,7.39-9.03,7.39-7.06,0-9.83-4.66-9.83-10.88s3.23-11.22,10-11.22,8.95,3.99,8.95,10.21v1.85Zm-3.11-2.98c0-4.45-1.72-6.55-5.92-6.55s-6.55,2.65-6.89,6.97h12.81v-.42Z"></path><path class="cls-7" d="m1368.09,1766.7c0-6.38,3.23-11.22,10-11.22s8.95,3.91,8.95,8.95v.42h-3.11v-.63c0-3.82-1.64-6.09-5.84-6.09-4.75,0-7.02,3.11-7.02,8.4,0,5.63,2.39,8.49,6.93,8.49,3.82,0,5.84-1.85,5.92-5.67h3.02c-.08,4.66-3.15,8.23-9.03,8.23-7.23,0-9.83-4.75-9.83-10.88Z"></path><path class="cls-7" d="m1403.88,1774.34v2.6c-.76.21-2.14.59-4.03.59-3.82,0-6.34-1.6-6.34-6.89v-12.18h-4.16v-2.44h4.16v-6.05l2.94-1.43v7.48h5.92v2.44h-5.92v11.8c0,2.81.76,4.58,3.4,4.58,1.6,0,3.23-.29,4.03-.5Z"></path><path class="cls-7" d="m1408.71,1744.27h2.98v6.51h-2.98v-6.51Zm0,11.76h2.94v21h-2.94v-21Z"></path><path class="cls-7" d="m1419.04,1756.03h2.6l.29,3.49c1.01-2.14,3.28-4.03,7.35-4.03,4.75,0,7.77,2.52,7.77,7.94v13.61h-2.94v-13.27c0-4.33-2.14-5.71-5.5-5.71-3.82,0-6.64,2.69-6.64,5.63v13.36h-2.94v-21Z"></path><path class="cls-7" d="m1443.78,1778.84v-.13h3.11v.13c0,2.9,1.93,4.33,6.13,4.33,4.79,0,7.01-2.94,7.01-7.86v-2.1h-.08c-1.09,2.18-3.65,4.07-7.48,4.07-6.3,0-9.75-3.99-9.75-10.71,0-7.1,4.37-11.09,9.96-11.09,3.78,0,6.55,1.81,7.56,4.12h.13l.29-3.57h2.31v19.16c0,5.88-2.81,10.71-10.33,10.71-6.3,0-8.86-2.98-8.86-7.06Zm16.59-12.77c0-5.5-3.36-8.07-7.35-8.07-3.03,0-7.14,1.47-7.14,8.4s3.57,8.32,7.1,8.32c4.24,0,7.39-2.73,7.39-8.65Z"></path><path class="cls-7" d="m1497.25,1767.54h-15.96c.17,4.79,2.48,7.48,6.93,7.48,3.82,0,5.67-1.43,5.97-4.83h2.98c-.29,4.24-3.28,7.39-9.03,7.39-7.06,0-9.83-4.66-9.83-10.88s3.23-11.22,10-11.22,8.95,3.99,8.95,10.21v1.85Zm-3.11-2.98c0-4.45-1.72-6.55-5.92-6.55s-6.55,2.65-6.89,6.97h12.81v-.42Z"></path><path class="cls-7" d="m1503.12,1756.03h2.6l.29,3.49c1.01-2.14,3.28-4.03,7.35-4.03,4.75,0,7.77,2.52,7.77,7.94v13.61h-2.94v-13.27c0-4.33-2.14-5.71-5.5-5.71-3.82,0-6.64,2.69-6.64,5.63v13.36h-2.94v-21Z"></path><path class="cls-7" d="m1539.45,1774.34v2.6c-.76.21-2.14.59-4.03.59-3.82,0-6.34-1.6-6.34-6.89v-12.18h-4.16v-2.44h4.16v-6.05l2.94-1.43v7.48h5.92v2.44h-5.92v11.8c0,2.81.76,4.58,3.4,4.58,1.6,0,3.23-.29,4.03-.5Z"></path><path class="cls-7" d="m1544.28,1756.03h2.6l.29,3.91c1.01-2.14,3.07-4.45,6.76-4.45,1.26,0,2.18.21,3.02.55v3.15c-1.13-.5-2.1-.76-3.4-.76-3.74,0-6.34,2.81-6.34,5.75v12.85h-2.94v-21Z"></path><path class="cls-7" d="m1561.8,1756.03l6.89,17.98h.08l7.14-17.98h3.07v.04l-8.86,20.84-3.11,8.53h-2.98v-.04l3.19-8.36-8.78-20.96v-.04h3.36Z"></path><path class="cls-7" d="m1590.94,1770.61v-1.18h2.94v1.13c0,2.86,2.14,4.5,5.96,4.5s5.8-1.01,5.8-3.78c0-2.06-1.01-2.81-3.86-3.32l-4.62-.84c-3.02-.55-5.54-2.02-5.54-5.5,0-3.15,2.35-6.13,8.4-6.13s8.4,3.02,8.4,7.23v.88h-2.98v-.76c0-3.44-2.14-4.91-5.42-4.91-3.95,0-5.33,1.34-5.33,3.36s1.01,2.86,3.91,3.4l4.03.76c4.12.76,6.09,1.93,6.09,5.59,0,4.58-4.12,6.55-8.78,6.55-7.31,0-8.99-3.28-8.99-6.97Z"></path><path class="cls-7" d="m1625.55,1774.34v2.6c-.76.21-2.14.59-4.03.59-3.82,0-6.34-1.6-6.34-6.89v-12.18h-4.16v-2.44h4.16v-6.05l2.94-1.43v7.48h5.92v2.44h-5.92v11.8c0,2.81.76,4.58,3.4,4.58,1.6,0,3.23-.29,4.03-.5Z"></path><path class="cls-7" d="m1630.38,1756.03h2.6l.29,3.91c1.01-2.14,3.07-4.45,6.76-4.45,1.26,0,2.18.21,3.02.55v3.15c-1.13-.5-2.1-.76-3.4-.76-3.74,0-6.34,2.81-6.34,5.75v12.85h-2.94v-21Z"></path><path class="cls-7" d="m1645.38,1766.53c0-6.22,3.32-11.05,10.38-11.05,6.59,0,10.25,4.83,10.25,11.05s-3.7,11.05-10.29,11.05c-7.27,0-10.33-4.83-10.33-11.05Zm17.56,0c0-5.33-2.9-8.49-7.22-8.49-4.75,0-7.27,3.15-7.27,8.49s2.56,8.49,7.27,8.49c4.33,0,7.22-3.15,7.22-8.49Z"></path><path class="cls-7" d="m1671.25,1744.27h2.94v23.23l12.14-11.47h3.65v.04l-8.4,7.86,8.78,13.06v.04h-3.36l-7.39-11.22-5.42,5.04v6.18h-2.94v-32.77Z"></path><path class="cls-7" d="m1711.61,1767.54h-15.96c.17,4.79,2.48,7.48,6.93,7.48,3.82,0,5.67-1.43,5.97-4.83h2.98c-.29,4.24-3.28,7.39-9.03,7.39-7.06,0-9.83-4.66-9.83-10.88s3.23-11.22,10-11.22,8.95,3.99,8.95,10.21v1.85Zm-3.11-2.98c0-4.45-1.72-6.55-5.92-6.55s-6.55,2.65-6.89,6.97h12.81v-.42Z"></path><path class="cls-7" d="m1715.6,1770.61v-1.18h2.94v1.13c0,2.86,2.14,4.5,5.96,4.5s5.8-1.01,5.8-3.78c0-2.06-1.01-2.81-3.86-3.32l-4.62-.84c-3.02-.55-5.54-2.02-5.54-5.5,0-3.15,2.35-6.13,8.4-6.13s8.4,3.02,8.4,7.23v.88h-2.98v-.76c0-3.44-2.14-4.91-5.42-4.91-3.95,0-5.33,1.34-5.33,3.36s1.01,2.86,3.91,3.4l4.03.76c4.12.76,6.09,1.93,6.09,5.59,0,4.58-4.12,6.55-8.78,6.55-7.31,0-8.99-3.28-8.99-6.97Z"></path><path class="cls-7" d="m1046.07,2704.08c0-11.72,6.76-16.93,15.46-16.93,7.94,0,14.7,5.21,14.7,16.59,0,12.48-6.76,17.26-15.08,17.26s-15.08-4.79-15.08-16.93Zm27.05,0c0-10.12-5.33-14.24-12.01-14.24s-11.93,4.12-11.93,14.24,5.33,14.2,12.01,14.2,11.93-3.74,11.93-14.2Z"></path><path class="cls-7" d="m1082.52,2699.46h2.39l.34,3.86h.08c1.13-2.48,4.03-4.41,7.86-4.41,6.3,0,9.66,3.99,9.66,11.01s-4.28,11.09-9.87,11.09c-3.78,0-6.39-1.6-7.44-3.7h-.08v11.55h-2.94v-29.41Zm17.18,10.63c0-7.18-3.4-8.61-6.93-8.61-4.24,0-7.56,2.73-7.56,8.44,0,6.01,3.44,8.57,7.44,8.57,3.02,0,7.06-1.47,7.06-8.4Z"></path><path class="cls-7" d="m1126,2710.97h-15.96c.17,4.79,2.48,7.48,6.93,7.48,3.82,0,5.67-1.43,5.96-4.83h2.98c-.29,4.24-3.28,7.39-9.03,7.39-7.06,0-9.83-4.66-9.83-10.88s3.23-11.22,10-11.22,8.95,3.99,8.95,10.21v1.85Zm-3.11-2.98c0-4.45-1.72-6.55-5.92-6.55s-6.55,2.65-6.89,6.97h12.81v-.42Z"></path><path class="cls-7" d="m1131.87,2699.46h2.6l.29,3.49c1.01-2.14,3.28-4.03,7.35-4.03,4.75,0,7.77,2.52,7.77,7.94v13.61h-2.94v-13.27c0-4.33-2.14-5.71-5.5-5.71-3.82,0-6.64,2.69-6.64,5.63v13.36h-2.94v-21Z"></path><path class="cls-7" d="m1165.01,2714.03v-1.18h2.94v1.13c0,2.86,2.14,4.5,5.96,4.5s5.8-1.01,5.8-3.78c0-2.06-1.01-2.81-3.86-3.32l-4.62-.84c-3.02-.55-5.54-2.02-5.54-5.5,0-3.15,2.35-6.13,8.4-6.13s8.4,3.02,8.4,7.22v.88h-2.98v-.76c0-3.45-2.14-4.92-5.42-4.92-3.95,0-5.33,1.34-5.33,3.36s1.01,2.86,3.91,3.4l4.03.76c4.12.76,6.09,1.93,6.09,5.59,0,4.58-4.12,6.55-8.78,6.55-7.31,0-8.99-3.28-8.99-6.97Z"></path><path class="cls-7" d="m1188.66,2687.69h2.94v15.17c1.05-2.1,3.28-3.95,7.31-3.95,4.75,0,7.77,2.52,7.77,7.94v13.61h-2.94v-13.27c0-4.33-2.14-5.71-5.5-5.71-3.82,0-6.64,2.69-6.64,5.63v13.36h-2.94v-32.77Z"></path><path class="cls-7" d="m1212.77,2714.66c0-3.95,2.23-6.09,7.86-6.09h6.34v-1.72c0-2.98-1.26-5.42-5.46-5.42-3.95,0-5.33,1.51-5.33,4.12v.88h-2.98v-.84c0-5,4.2-6.68,8.32-6.68,5.8,0,8.4,2.86,8.4,8.44v13.11h-2.06l-.55-2.98h-.08c-1.26,1.89-3.7,3.53-7.35,3.53-4.91,0-7.1-2.31-7.1-6.34Zm14.2-1.85v-1.76h-7.02c-2.65,0-4.03.92-4.03,3.61,0,2.35,1.26,3.86,4.5,3.86,4.16,0,6.55-2.14,6.55-5.71Z"></path><path class="cls-7" d="m1237.25,2699.46h2.39l.34,3.86h.08c1.13-2.48,4.03-4.41,7.86-4.41,6.3,0,9.66,3.99,9.66,11.01s-4.28,11.09-9.87,11.09c-3.78,0-6.39-1.6-7.44-3.7h-.08v11.55h-2.94v-29.41Zm17.18,10.63c0-7.18-3.4-8.61-6.93-8.61-4.24,0-7.56,2.73-7.56,8.44,0,6.01,3.44,8.57,7.44,8.57,3.02,0,7.06-1.47,7.06-8.4Z"></path><path class="cls-7" d="m1280.72,2710.97h-15.96c.17,4.79,2.48,7.48,6.93,7.48,3.82,0,5.67-1.43,5.96-4.83h2.98c-.29,4.24-3.28,7.39-9.03,7.39-7.06,0-9.83-4.66-9.83-10.88s3.23-11.22,10-11.22,8.95,3.99,8.95,10.21v1.85Zm-3.11-2.98c0-4.45-1.72-6.55-5.92-6.55s-6.55,2.65-6.89,6.97h12.81v-.42Z"></path><path class="cls-7" d="m1284.71,2714.03v-1.18h2.94v1.13c0,2.86,2.14,4.5,5.96,4.5s5.8-1.01,5.8-3.78c0-2.06-1.01-2.81-3.86-3.32l-4.62-.84c-3.02-.55-5.54-2.02-5.54-5.5,0-3.15,2.35-6.13,8.4-6.13s8.4,3.02,8.4,7.22v.88h-2.98v-.76c0-3.45-2.14-4.92-5.42-4.92-3.95,0-5.33,1.34-5.33,3.36s1.01,2.86,3.91,3.4l4.03.76c4.12.76,6.09,1.93,6.09,5.59,0,4.58-4.12,6.55-8.78,6.55-7.31,0-8.99-3.28-8.99-6.97Z"></path><path class="cls-7" d="m1318.02,2687.69h2.98v6.51h-2.98v-6.51Zm0,11.76h2.94v21h-2.94v-21Z"></path><path class="cls-7" d="m1328.35,2699.46h2.6l.29,3.49c1.01-2.14,3.28-4.03,7.35-4.03,4.75,0,7.77,2.52,7.77,7.94v13.61h-2.94v-13.27c0-4.33-2.14-5.71-5.5-5.71-3.82,0-6.64,2.69-6.64,5.63v13.36h-2.94v-21Z"></path><path class="cls-7" d="m1365.06,2698.15h-3.36v-5.08c0-3.95.88-5.29,3.4-5.97l.67,1.85c-1.76.67-2.06,1.09-2.06,3.78v.34h1.34v5.08Zm5.92,0h-3.36v-5.08c0-3.95.88-5.29,3.4-5.97l.67,1.85c-1.76.67-2.06,1.09-2.06,3.78v.34h1.34v5.08Z"></path><path class="cls-7" d="m1372.95,2714.03v-1.18h2.94v1.13c0,2.86,2.14,4.5,5.96,4.5s5.8-1.01,5.8-3.78c0-2.06-1.01-2.81-3.86-3.32l-4.62-.84c-3.02-.55-5.54-2.02-5.54-5.5,0-3.15,2.35-6.13,8.4-6.13s8.4,3.02,8.4,7.22v.88h-2.98v-.76c0-3.45-2.14-4.92-5.42-4.92-3.95,0-5.33,1.34-5.33,3.36s1.01,2.86,3.91,3.4l4.03.76c4.12.76,6.09,1.93,6.09,5.59,0,4.58-4.12,6.55-8.78,6.55-7.31,0-8.99-3.28-8.99-6.97Z"></path><path class="cls-7" d="m1393.03,2696.89c1.76-.67,2.06-1.09,2.06-3.78v-.34h-1.34v-5.08h3.36v5.08c0,3.95-.88,5.29-3.4,5.96l-.67-1.85Zm5.92,0c1.76-.67,2.06-1.09,2.06-3.78v-.34h-1.34v-5.08h3.36v5.08c0,3.95-.88,5.29-3.4,5.96l-.67-1.85Z"></path><path class="cls-7" d="m1417.31,2714.66c0-3.95,2.23-6.09,7.86-6.09h6.34v-1.72c0-2.98-1.26-5.42-5.46-5.42-3.95,0-5.33,1.51-5.33,4.12v.88h-2.98v-.84c0-5,4.2-6.68,8.32-6.68,5.8,0,8.4,2.86,8.4,8.44v13.11h-2.06l-.55-2.98h-.08c-1.26,1.89-3.7,3.53-7.35,3.53-4.92,0-7.1-2.31-7.1-6.34Zm14.2-1.85v-1.76h-7.01c-2.65,0-4.03.92-4.03,3.61,0,2.35,1.26,3.86,4.5,3.86,4.16,0,6.55-2.14,6.55-5.71Z"></path><path class="cls-7" d="m1441.79,2699.46h2.6l.29,3.49c1.01-2.14,3.28-4.03,7.35-4.03,4.75,0,7.77,2.52,7.77,7.94v13.61h-2.94v-13.27c0-4.33-2.14-5.71-5.5-5.71-3.82,0-6.64,2.69-6.64,5.63v13.36h-2.94v-21Z"></path><path class="cls-7" d="m1465.48,2710c0-7.1,4.28-11.09,10.04-11.09,3.7,0,6.22,1.6,7.31,3.74h.04v-14.95h2.94v32.77h-1.97l-.67-3.61h-.08c-1.18,2.31-3.95,4.16-7.77,4.16-6.3,0-9.83-3.99-9.83-11.01Zm17.64-.5c0-5.5-3.36-8.07-7.35-8.07-3.11,0-7.14,1.47-7.14,8.4s3.61,8.61,7.14,8.61c4.24,0,7.35-2.73,7.35-8.95Z"></path><path class="cls-7" d="m1504.5,2698.15h-3.36v-5.08c0-3.95.88-5.29,3.4-5.97l.67,1.85c-1.76.67-2.06,1.09-2.06,3.78v.34h1.34v5.08Zm5.92,0h-3.36v-5.08c0-3.95.88-5.29,3.4-5.97l.67,1.85c-1.76.67-2.06,1.09-2.06,3.78v.34h1.34v5.08Z"></path><path class="cls-7" d="m1516.8,2699.46h2.39l.34,3.86h.08c1.13-2.48,4.03-4.41,7.86-4.41,6.3,0,9.66,3.99,9.66,11.01s-4.29,11.09-9.87,11.09c-3.78,0-6.38-1.6-7.43-3.7h-.08v11.55h-2.94v-29.41Zm17.18,10.63c0-7.18-3.4-8.61-6.93-8.61-4.24,0-7.56,2.73-7.56,8.44,0,6.01,3.45,8.57,7.44,8.57,3.02,0,7.06-1.47,7.06-8.4Z"></path><path class="cls-7" d="m1538.39,2696.89c1.76-.67,2.06-1.09,2.06-3.78v-.34h-1.34v-5.08h3.36v5.08c0,3.95-.88,5.29-3.4,5.96l-.67-1.85Zm5.92,0c1.76-.67,2.06-1.09,2.06-3.78v-.34h-1.34v-5.08h3.36v5.08c0,3.95-.88,5.29-3.4,5.96l-.67-1.85Z"></path><path class="cls-10" d="m1169.39,2162.62l-62.13,117.2c-12.54,23.66-29.75,44.49-50.58,61.23h0s149.59,0,149.59,0c0,0,46.87-5.57,43.26-53.11-1.75-23.08-32.85-56.25-51.88-81.22-20.16-26.47-28.27-44.09-28.27-44.09Z"></path><path class="cls-10" d="m1118.51,3111.33v121.34h127s-14.22-14.48-10.28-79.44c3.94-64.96,3.66-110.71-53.22-104.42-39.91,4.42-63.5,62.52-63.5,62.52Z"></path><line class="cls-4" x1="1145.91" y1="2354.63" x2="1145.91" y2="2669.41"></line><line class="cls-4" x1="503.36" y1="2360.79" x2="503.36" y2="2665.41"></line><line class="cls-4" x1="1195.33" y1="2748.15" x2="1195.33" y2="3030.52"></line><path class="cls-7" d="m625.61,1857.13h-3.36v-5.08c0-3.95.88-5.29,3.4-5.97l.67,1.85c-1.76.67-2.06,1.09-2.06,3.78v.34h1.34v5.08Zm5.92,0h-3.36v-5.08c0-3.95.88-5.29,3.4-5.97l.67,1.85c-1.76.67-2.06,1.09-2.06,3.78v.34h1.34v5.08Z"></path><path class="cls-7" d="m648.88,1876.75v2.6c-.76.21-2.14.59-4.03.59-3.82,0-6.34-1.6-6.34-6.89v-12.18h-4.16v-2.44h4.16v-6.05l2.94-1.43v7.48h5.92v2.44h-5.92v11.8c0,2.81.76,4.58,3.4,4.58,1.6,0,3.23-.29,4.03-.5Z"></path><path class="cls-7" d="m650.77,1855.87c1.76-.67,2.06-1.09,2.06-3.78v-.34h-1.34v-5.08h3.36v5.08c0,3.95-.88,5.29-3.4,5.97l-.67-1.85Zm5.92,0c1.76-.67,2.06-1.09,2.06-3.78v-.34h-1.34v-5.08h3.36v5.08c0,3.95-.88,5.29-3.4,5.97l-.67-1.85Z"></path><path class="cls-7" d="m676.31,1858.44h2.6l.29,3.91c1.01-2.14,3.07-4.45,6.76-4.45,1.26,0,2.18.21,3.02.55v3.15c-1.13-.5-2.1-.76-3.4-.76-3.74,0-6.34,2.81-6.34,5.75v12.85h-2.94v-21Z"></path><path class="cls-7" d="m710.24,1869.95h-15.96c.17,4.79,2.48,7.48,6.93,7.48,3.82,0,5.67-1.43,5.96-4.83h2.98c-.29,4.24-3.28,7.39-9.03,7.39-7.06,0-9.83-4.66-9.83-10.88s3.23-11.22,10-11.22,8.95,3.99,8.95,10.21v1.85Zm-3.11-2.98c0-4.45-1.72-6.55-5.92-6.55s-6.55,2.65-6.89,6.97h12.81v-.42Z"></path><path class="cls-7" d="m714.65,1873.64c0-3.95,2.23-6.09,7.86-6.09h6.34v-1.72c0-2.98-1.26-5.42-5.46-5.42-3.95,0-5.33,1.51-5.33,4.12v.88h-2.98v-.84c0-5,4.2-6.68,8.32-6.68,5.8,0,8.4,2.86,8.4,8.44v13.11h-2.06l-.55-2.98h-.08c-1.26,1.89-3.7,3.53-7.35,3.53-4.92,0-7.1-2.31-7.1-6.34Zm14.2-1.85v-1.76h-7.02c-2.65,0-4.03.92-4.03,3.61,0,2.35,1.26,3.86,4.5,3.86,4.16,0,6.55-2.14,6.55-5.71Z"></path><path class="cls-7" d="m737.46,1869.11c0-6.38,3.23-11.22,10-11.22s8.95,3.91,8.95,8.95v.42h-3.11v-.63c0-3.82-1.64-6.09-5.84-6.09-4.75,0-7.02,3.11-7.02,8.4,0,5.63,2.39,8.49,6.93,8.49,3.82,0,5.84-1.85,5.92-5.67h3.02c-.08,4.66-3.15,8.23-9.03,8.23-7.23,0-9.83-4.75-9.83-10.88Z"></path><path class="cls-7" d="m761.65,1846.67h2.94v15.16c1.05-2.1,3.28-3.95,7.31-3.95,4.75,0,7.77,2.52,7.77,7.94v13.61h-2.94v-13.27c0-4.33-2.14-5.71-5.5-5.71-3.82,0-6.64,2.69-6.64,5.63v13.36h-2.94v-32.77Z"></path><path class="cls-7" d="m804.28,1869.95h-15.96c.17,4.79,2.48,7.48,6.93,7.48,3.82,0,5.67-1.43,5.96-4.83h2.98c-.29,4.24-3.28,7.39-9.03,7.39-7.06,0-9.83-4.66-9.83-10.88s3.23-11.22,10-11.22,8.95,3.99,8.95,10.21v1.85Zm-3.11-2.98c0-4.45-1.72-6.55-5.92-6.55s-6.55,2.65-6.89,6.97h12.81v-.42Z"></path><path class="cls-7" d="m808.27,1873.01v-1.18h2.94v1.13c0,2.86,2.14,4.5,5.96,4.5s5.8-1.01,5.8-3.78c0-2.06-1.01-2.81-3.86-3.32l-4.62-.84c-3.02-.55-5.54-2.02-5.54-5.5,0-3.15,2.35-6.13,8.4-6.13s8.4,3.02,8.4,7.23v.88h-2.98v-.76c0-3.44-2.14-4.91-5.42-4.91-3.95,0-5.33,1.34-5.33,3.36s1.01,2.86,3.91,3.4l4.03.76c4.12.76,6.09,1.93,6.09,5.59,0,4.58-4.12,6.55-8.78,6.55-7.31,0-8.99-3.28-8.99-6.97Z"></path><path class="cls-7" d="m840.32,1873.64c0-3.95,2.23-6.09,7.86-6.09h6.34v-1.72c0-2.98-1.26-5.42-5.46-5.42-3.95,0-5.33,1.51-5.33,4.12v.88h-2.98v-.84c0-5,4.2-6.68,8.32-6.68,5.8,0,8.4,2.86,8.4,8.44v13.11h-2.06l-.55-2.98h-.08c-1.26,1.89-3.7,3.53-7.35,3.53-4.92,0-7.1-2.31-7.1-6.34Zm14.2-1.85v-1.76h-7.02c-2.65,0-4.03.92-4.03,3.61,0,2.35,1.26,3.86,4.5,3.86,4.16,0,6.55-2.14,6.55-5.71Z"></path><path class="cls-7" d="m862.91,1873.01v-1.18h2.94v1.13c0,2.86,2.14,4.5,5.96,4.5s5.8-1.01,5.8-3.78c0-2.06-1.01-2.81-3.86-3.32l-4.62-.84c-3.02-.55-5.54-2.02-5.54-5.5,0-3.15,2.35-6.13,8.4-6.13s8.4,3.02,8.4,7.23v.88h-2.98v-.76c0-3.44-2.14-4.91-5.42-4.91-3.95,0-5.33,1.34-5.33,3.36s1.01,2.86,3.91,3.4l4.03.76c4.12.76,6.09,1.93,6.09,5.59,0,4.58-4.12,6.55-8.78,6.55-7.31,0-8.99-3.28-8.99-6.97Z"></path><path class="cls-7" d="m884.88,1869.11c0-6.38,3.23-11.22,10-11.22s8.95,3.91,8.95,8.95v.42h-3.11v-.63c0-3.82-1.64-6.09-5.84-6.09-4.75,0-7.02,3.11-7.02,8.4,0,5.63,2.39,8.49,6.93,8.49,3.82,0,5.84-1.85,5.92-5.67h3.02c-.08,4.66-3.15,8.23-9.03,8.23-7.23,0-9.83-4.75-9.83-10.88Z"></path><path class="cls-7" d="m926.96,1869.95h-15.96c.17,4.79,2.48,7.48,6.93,7.48,3.82,0,5.67-1.43,5.96-4.83h2.98c-.29,4.24-3.28,7.39-9.03,7.39-7.06,0-9.83-4.66-9.83-10.88s3.23-11.22,10-11.22,8.95,3.99,8.95,10.21v1.85Zm-3.11-2.98c0-4.45-1.72-6.55-5.92-6.55s-6.55,2.65-6.89,6.97h12.81v-.42Z"></path><path class="cls-7" d="m932.84,1858.44h2.6l.29,3.49c1.01-2.14,3.28-4.03,7.35-4.03,4.75,0,7.77,2.52,7.77,7.94v13.61h-2.94v-13.27c0-4.33-2.14-5.71-5.5-5.71-3.82,0-6.64,2.69-6.64,5.63v13.36h-2.94v-21Z"></path><path class="cls-7" d="m956.53,1868.98c0-7.1,4.28-11.09,10.04-11.09,3.7,0,6.22,1.6,7.31,3.74h.04v-14.95h2.94v32.77h-1.97l-.67-3.61h-.08c-1.18,2.31-3.95,4.16-7.77,4.16-6.3,0-9.83-3.99-9.83-11.01Zm17.64-.5c0-5.5-3.36-8.07-7.35-8.07-3.11,0-7.14,1.47-7.14,8.4s3.61,8.61,7.14,8.61c4.24,0,7.35-2.73,7.35-8.95Z"></path><path class="cls-7" d="m1001.47,1869.95h-15.96c.17,4.79,2.48,7.48,6.93,7.48,3.82,0,5.67-1.43,5.97-4.83h2.98c-.29,4.24-3.28,7.39-9.03,7.39-7.06,0-9.83-4.66-9.83-10.88s3.23-11.22,10-11.22,8.95,3.99,8.95,10.21v1.85Zm-3.11-2.98c0-4.45-1.72-6.55-5.92-6.55s-6.55,2.65-6.89,6.97h12.81v-.42Z"></path><path class="cls-7" d="m1007.35,1858.44h2.6l.29,3.91c1.01-2.14,3.07-4.45,6.76-4.45,1.26,0,2.18.21,3.02.55v3.15c-1.13-.5-2.1-.76-3.4-.76-3.74,0-6.34,2.81-6.34,5.75v12.85h-2.94v-21Z"></path><path class="cls-7" d="m1034.31,1846.67h2.94v15.16c1.05-2.1,3.28-3.95,7.31-3.95,4.75,0,7.77,2.52,7.77,7.94v13.61h-2.94v-13.27c0-4.33-2.14-5.71-5.5-5.71-3.82,0-6.64,2.69-6.64,5.63v13.36h-2.94v-32.77Z"></path><path class="cls-7" d="m1076.95,1869.95h-15.96c.17,4.79,2.48,7.48,6.93,7.48,3.82,0,5.67-1.43,5.97-4.83h2.98c-.29,4.24-3.28,7.39-9.03,7.39-7.06,0-9.83-4.66-9.83-10.88s3.23-11.22,10-11.22,8.95,3.99,8.95,10.21v1.85Zm-3.11-2.98c0-4.45-1.72-6.55-5.92-6.55s-6.55,2.65-6.89,6.97h12.81v-.42Z"></path><path class="cls-7" d="m1082.82,1846.67h2.98v6.51h-2.98v-6.51Zm0,11.76h2.94v21h-2.94v-21Z"></path><path class="cls-7" d="m1092.52,1881.25v-.13h3.11v.13c0,2.9,1.93,4.33,6.13,4.33,4.79,0,7.01-2.94,7.01-7.86v-2.1h-.08c-1.09,2.18-3.65,4.07-7.48,4.07-6.3,0-9.75-3.99-9.75-10.71,0-7.1,4.37-11.09,9.96-11.09,3.78,0,6.55,1.81,7.56,4.12h.13l.29-3.57h2.31v19.16c0,5.88-2.81,10.71-10.33,10.71-6.3,0-8.86-2.98-8.86-7.06Zm16.59-12.77c0-5.5-3.36-8.07-7.35-8.07-3.03,0-7.14,1.47-7.14,8.4s3.57,8.32,7.1,8.32c4.24,0,7.39-2.73,7.39-8.65Z"></path><path class="cls-7" d="m1119.07,1846.67h2.94v15.16c1.05-2.1,3.28-3.95,7.31-3.95,4.75,0,7.77,2.52,7.77,7.94v13.61h-2.94v-13.27c0-4.33-2.14-5.71-5.5-5.71-3.82,0-6.64,2.69-6.64,5.63v13.36h-2.94v-32.77Z"></path><path class="cls-7" d="m1155.4,1876.75v2.6c-.76.21-2.14.59-4.03.59-3.82,0-6.34-1.6-6.34-6.89v-12.18h-4.16v-2.44h4.16v-6.05l2.94-1.43v7.48h5.92v2.44h-5.92v11.8c0,2.81.76,4.58,3.4,4.58,1.6,0,3.23-.29,4.03-.5Z"></path><path class="cls-7" d="m356.51,2699.94h-3.36v-5.08c0-3.95.88-5.29,3.4-5.97l.67,1.85c-1.76.67-2.06,1.09-2.06,3.78v.34h1.34v5.08Zm5.92,0h-3.36v-5.08c0-3.95.88-5.29,3.4-5.97l.67,1.85c-1.76.67-2.06,1.09-2.06,3.78v.34h1.34v5.08Z"></path><path class="cls-7" d="m386.16,2719.52v2.73h-19.07v-2.35l8.74-10.29c4.92-5.8,6.76-8.02,6.76-12.48,0-4.07-2.77-5.5-6.64-5.5-4.07,0-6.09,2.14-6.09,5.97v1.26h-2.94v-1.26c0-6.26,4.62-8.65,9.37-8.65,5.42,0,9.37,2.35,9.37,7.98,0,5.12-2.81,8.86-7.31,14.03l-7.39,8.57h15.21Z"></path><path class="cls-7" d="m389.73,2698.68c1.76-.67,2.06-1.09,2.06-3.78v-.34h-1.34v-5.08h3.36v5.08c0,3.95-.88,5.29-3.4,5.97l-.67-1.85Zm5.92,0c1.76-.67,2.06-1.09,2.06-3.78v-.34h-1.34v-5.08h3.36v5.08c0,3.95-.88,5.29-3.4,5.97l-.67-1.85Z"></path><path class="cls-7" d="m414.01,2716.45c0-3.95,2.23-6.09,7.86-6.09h6.34v-1.72c0-2.98-1.26-5.42-5.46-5.42-3.95,0-5.33,1.51-5.33,4.12v.88h-2.98v-.84c0-5,4.2-6.68,8.32-6.68,5.8,0,8.4,2.86,8.4,8.44v13.11h-2.06l-.55-2.98h-.08c-1.26,1.89-3.7,3.53-7.35,3.53-4.91,0-7.1-2.31-7.1-6.34Zm14.2-1.85v-1.76h-7.02c-2.65,0-4.03.92-4.03,3.61,0,2.35,1.26,3.86,4.5,3.86,4.16,0,6.55-2.14,6.55-5.71Z"></path><path class="cls-7" d="m438.49,2701.24h2.6l.29,3.49c1.01-2.14,3.28-4.03,7.35-4.03,4.75,0,7.77,2.52,7.77,7.94v13.61h-2.94v-13.27c0-4.33-2.14-5.71-5.5-5.71-3.82,0-6.64,2.69-6.64,5.63v13.36h-2.94v-21Z"></path><path class="cls-7" d="m462.18,2711.79c0-7.1,4.28-11.09,10.04-11.09,3.7,0,6.22,1.6,7.31,3.74h.04v-14.95h2.94v32.77h-1.97l-.67-3.61h-.08c-1.18,2.31-3.95,4.16-7.77,4.16-6.3,0-9.83-3.99-9.83-11.01Zm17.64-.5c0-5.5-3.36-8.07-7.35-8.07-3.11,0-7.14,1.47-7.14,8.4s3.61,8.61,7.14,8.61c4.24,0,7.35-2.73,7.35-8.95Z"></path><path class="cls-7" d="m501.2,2699.94h-3.36v-5.08c0-3.95.88-5.29,3.4-5.97l.67,1.85c-1.76.67-2.06,1.09-2.06,3.78v.34h1.34v5.08Zm5.92,0h-3.36v-5.08c0-3.95.88-5.29,3.4-5.97l.67,1.85c-1.76.67-2.06,1.09-2.06,3.78v.34h1.34v5.08Z"></path><path class="cls-7" d="m530.31,2689.48v2.27l-12.18,30.5h-3.32v-.08l12.18-29.95h-16.85v-2.73h20.16Z"></path><path class="cls-7" d="m533.29,2698.68c1.76-.67,2.06-1.09,2.06-3.78v-.34h-1.34v-5.08h3.36v5.08c0,3.95-.88,5.29-3.4,5.97l-.67-1.85Zm5.92,0c1.76-.67,2.06-1.09,2.06-3.78v-.34h-1.34v-5.08h3.36v5.08c0,3.95-.88,5.29-3.4,5.97l-.67-1.85Z"></path><path class="cls-7" d="m558.82,2689.48h2.94v15.16c1.05-2.1,3.28-3.95,7.31-3.95,4.75,0,7.77,2.52,7.77,7.94v13.61h-2.94v-13.27c0-4.33-2.14-5.71-5.5-5.71-3.82,0-6.64,2.69-6.64,5.63v13.36h-2.94v-32.77Z"></path><path class="cls-7" d="m582.93,2716.45c0-3.95,2.23-6.09,7.86-6.09h6.34v-1.72c0-2.98-1.26-5.42-5.46-5.42-3.95,0-5.33,1.51-5.33,4.12v.88h-2.98v-.84c0-5,4.2-6.68,8.32-6.68,5.8,0,8.4,2.86,8.4,8.44v13.11h-2.06l-.55-2.98h-.08c-1.26,1.89-3.7,3.53-7.35,3.53-4.92,0-7.1-2.31-7.1-6.34Zm14.2-1.85v-1.76h-7.01c-2.65,0-4.03.92-4.03,3.61,0,2.35,1.26,3.86,4.5,3.86,4.16,0,6.55-2.14,6.55-5.71Z"></path><path class="cls-7" d="m603,2701.29v-.04h3.36l7.35,17.98h.08l7.1-17.98h3.07v.04l-8.74,20.96h-3.02l-9.2-20.96Z"></path><path class="cls-7" d="m644.8,2712.75h-15.96c.17,4.79,2.48,7.48,6.93,7.48,3.82,0,5.67-1.43,5.97-4.83h2.98c-.29,4.24-3.28,7.39-9.03,7.39-7.06,0-9.83-4.66-9.83-10.88s3.23-11.22,10-11.22,8.95,3.99,8.95,10.21v1.85Zm-3.11-2.98c0-4.45-1.72-6.55-5.92-6.55s-6.55,2.65-6.89,6.97h12.81v-.42Z"></path><path class="cls-7" d="m273.14,2750.13v-.04h2.98l5.75,17.48h.08l6.3-17.48h2.69l6.18,17.48h.08l5.75-17.48h2.86v.04l-7.18,20.96h-3.02l-5.96-17.05h-.08l-6.22,17.05h-3.02l-7.18-20.96Z"></path><path class="cls-7" d="m308.54,2765.3c0-3.95,2.23-6.09,7.86-6.09h6.34v-1.72c0-2.98-1.26-5.42-5.46-5.42-3.95,0-5.33,1.51-5.33,4.12v.88h-2.98v-.84c0-5,4.2-6.68,8.32-6.68,5.8,0,8.4,2.86,8.4,8.44v13.11h-2.06l-.55-2.98h-.08c-1.26,1.89-3.7,3.53-7.35,3.53-4.91,0-7.1-2.31-7.1-6.34Zm14.2-1.85v-1.76h-7.02c-2.65,0-4.03.92-4.03,3.61,0,2.35,1.26,3.87,4.5,3.87,4.16,0,6.55-2.14,6.55-5.71Z"></path><path class="cls-7" d="m328.62,2750.13v-.04h3.36l7.35,17.98h.08l7.1-17.98h3.07v.04l-8.74,20.96h-3.02l-9.2-20.96Z"></path><path class="cls-7" d="m354.2,2750.09l6.89,17.98h.08l7.14-17.98h3.07v.04l-8.86,20.84-3.11,8.53h-2.98v-.04l3.19-8.36-8.78-20.96v-.04h3.36Z"></path><path class="cls-7" d="m385.24,2738.33h2.94v15.17c1.05-2.1,3.28-3.95,7.31-3.95,4.75,0,7.77,2.52,7.77,7.94v13.61h-2.94v-13.27c0-4.33-2.14-5.71-5.5-5.71-3.82,0-6.64,2.69-6.64,5.63v13.36h-2.94v-32.77Z"></path><path class="cls-7" d="m408.92,2760.59c0-6.22,3.32-11.05,10.38-11.05,6.6,0,10.25,4.83,10.25,11.05s-3.7,11.05-10.29,11.05c-7.27,0-10.33-4.83-10.33-11.05Zm17.56,0c0-5.33-2.9-8.49-7.23-8.49-4.75,0-7.27,3.15-7.27,8.49s2.56,8.49,7.27,8.49c4.33,0,7.23-3.15,7.23-8.49Z"></path><path class="cls-7" d="m435.43,2750.09h2.6l.29,3.91c1.01-2.14,3.07-4.45,6.76-4.45,1.26,0,2.18.21,3.02.55v3.15c-1.13-.5-2.1-.76-3.4-.76-3.74,0-6.34,2.81-6.34,5.75v12.85h-2.94v-21Z"></path><path class="cls-7" d="m452.73,2738.33h2.98v6.51h-2.98v-6.51Zm0,11.76h2.94v21h-2.94v-21Z"></path><path class="cls-7" d="m460.75,2768.53l14.7-15.88h-14.58v-2.56h18.23v2.56l-14.7,15.84h14.66v2.6h-18.32v-2.56Z"></path><path class="cls-7" d="m482.05,2760.59c0-6.22,3.32-11.05,10.38-11.05,6.6,0,10.25,4.83,10.25,11.05s-3.7,11.05-10.29,11.05c-7.27,0-10.33-4.83-10.33-11.05Zm17.56,0c0-5.33-2.9-8.49-7.23-8.49-4.75,0-7.27,3.15-7.27,8.49s2.56,8.49,7.27,8.49c4.33,0,7.23-3.15,7.23-8.49Z"></path><path class="cls-7" d="m508.55,2750.09h2.6l.29,3.49c1.01-2.14,3.28-4.03,7.35-4.03,4.75,0,7.77,2.52,7.77,7.94v13.61h-2.94v-13.27c0-4.33-2.14-5.71-5.5-5.71-3.82,0-6.64,2.69-6.64,5.63v13.36h-2.94v-21Z"></path><path class="cls-7" d="m544.88,2768.4v2.6c-.76.21-2.14.59-4.03.59-3.82,0-6.34-1.6-6.34-6.89v-12.18h-4.16v-2.44h4.16v-6.05l2.94-1.43v7.48h5.92v2.44h-5.92v11.8c0,2.81.76,4.58,3.4,4.58,1.6,0,3.23-.29,4.03-.5Z"></path><path class="cls-7" d="m548.45,2765.3c0-3.95,2.23-6.09,7.86-6.09h6.34v-1.72c0-2.98-1.26-5.42-5.46-5.42-3.95,0-5.33,1.51-5.33,4.12v.88h-2.98v-.84c0-5,4.2-6.68,8.32-6.68,5.8,0,8.4,2.86,8.4,8.44v13.11h-2.06l-.55-2.98h-.08c-1.26,1.89-3.7,3.53-7.35,3.53-4.92,0-7.1-2.31-7.1-6.34Zm14.2-1.85v-1.76h-7.01c-2.65,0-4.03.92-4.03,3.61,0,2.35,1.26,3.87,4.5,3.87,4.16,0,6.55-2.14,6.55-5.71Z"></path><path class="cls-7" d="m572.93,2738.33h2.94v32.77h-2.94v-32.77Z"></path><path class="cls-7" d="m590.99,2764.67v-1.18h2.94v1.13c0,2.86,2.14,4.5,5.96,4.5s5.8-1.01,5.8-3.78c0-2.06-1.01-2.81-3.86-3.32l-4.62-.84c-3.02-.55-5.54-2.02-5.54-5.5,0-3.15,2.35-6.13,8.4-6.13s8.4,3.02,8.4,7.23v.88h-2.98v-.76c0-3.44-2.14-4.92-5.42-4.92-3.95,0-5.33,1.34-5.33,3.36s1.01,2.86,3.91,3.4l4.03.76c4.12.76,6.09,1.93,6.09,5.59,0,4.58-4.12,6.55-8.78,6.55-7.31,0-8.99-3.28-8.99-6.97Z"></path><path class="cls-7" d="m625.6,2768.4v2.6c-.76.21-2.14.59-4.03.59-3.82,0-6.34-1.6-6.34-6.89v-12.18h-4.16v-2.44h4.16v-6.05l2.94-1.43v7.48h5.92v2.44h-5.92v11.8c0,2.81.76,4.58,3.4,4.58,1.6,0,3.23-.29,4.03-.5Z"></path><path class="cls-7" d="m630.43,2750.09h2.6l.29,3.91c1.01-2.14,3.07-4.45,6.76-4.45,1.26,0,2.18.21,3.02.55v3.15c-1.13-.5-2.1-.76-3.4-.76-3.74,0-6.34,2.81-6.34,5.75v12.85h-2.94v-21Z"></path><path class="cls-7" d="m645.43,2760.59c0-6.22,3.32-11.05,10.38-11.05,6.59,0,10.25,4.83,10.25,11.05s-3.7,11.05-10.29,11.05c-7.27,0-10.33-4.83-10.33-11.05Zm17.56,0c0-5.33-2.9-8.49-7.22-8.49-4.75,0-7.27,3.15-7.27,8.49s2.56,8.49,7.27,8.49c4.33,0,7.22-3.15,7.22-8.49Z"></path><path class="cls-7" d="m671.3,2738.33h2.94v23.23l12.14-11.47h3.65v.04l-8.4,7.86,8.78,13.06v.04h-3.36l-7.39-11.22-5.42,5.04v6.17h-2.94v-32.77Z"></path><path class="cls-7" d="m711.66,2761.6h-15.96c.17,4.79,2.48,7.48,6.93,7.48,3.82,0,5.67-1.43,5.97-4.83h2.98c-.29,4.24-3.28,7.39-9.03,7.39-7.06,0-9.83-4.66-9.83-10.88s3.23-11.22,10-11.22,8.95,3.99,8.95,10.21v1.85Zm-3.11-2.98c0-4.45-1.72-6.55-5.92-6.55s-6.55,2.65-6.89,6.97h12.81v-.42Z"></path><path class="cls-7" d="m715.65,2764.67v-1.18h2.94v1.13c0,2.86,2.14,4.5,5.96,4.5s5.8-1.01,5.8-3.78c0-2.06-1.01-2.81-3.86-3.32l-4.62-.84c-3.02-.55-5.54-2.02-5.54-5.5,0-3.15,2.35-6.13,8.4-6.13s8.4,3.02,8.4,7.23v.88h-2.98v-.76c0-3.44-2.14-4.92-5.42-4.92-3.95,0-5.33,1.34-5.33,3.36s1.01,2.86,3.91,3.4l4.03.76c4.12.76,6.09,1.93,6.09,5.59,0,4.58-4.12,6.55-8.78,6.55-7.31,0-8.99-3.28-8.99-6.97Z"></path><path class="cls-7" d="m1077.89,893.37h-13.99l-3.74,10.33h-3.07l12.18-32.77h3.32l12.1,32.77h-3.07l-3.74-10.33Zm-.92-2.6l-6.05-16.8h-.04l-6.05,16.8h12.14Z"></path><path class="cls-7" d="m1087,897.28v-1.18h2.94v1.13c0,2.86,2.14,4.5,5.96,4.5s5.8-1.01,5.8-3.78c0-2.06-1.01-2.81-3.86-3.32l-4.62-.84c-3.02-.55-5.54-2.02-5.54-5.5,0-3.15,2.35-6.13,8.4-6.13s8.4,3.02,8.4,7.22v.88h-2.98v-.76c0-3.44-2.14-4.91-5.42-4.91-3.95,0-5.33,1.34-5.33,3.36s1.01,2.86,3.91,3.4l4.03.76c4.12.76,6.09,1.93,6.09,5.59,0,4.58-4.12,6.55-8.78,6.55-7.31,0-8.99-3.28-8.99-6.97Z"></path><path class="cls-7" d="m1108.97,893.37c0-6.38,3.23-11.22,10-11.22s8.95,3.91,8.95,8.95v.42h-3.11v-.63c0-3.82-1.64-6.09-5.84-6.09-4.75,0-7.02,3.11-7.02,8.4,0,5.63,2.39,8.49,6.93,8.49,3.82,0,5.84-1.85,5.92-5.67h3.02c-.08,4.66-3.15,8.23-9.03,8.23-7.22,0-9.83-4.75-9.83-10.88Z"></path><path class="cls-7" d="m1151.05,894.21h-15.96c.17,4.79,2.48,7.48,6.93,7.48,3.82,0,5.67-1.43,5.97-4.83h2.98c-.29,4.24-3.28,7.39-9.03,7.39-7.06,0-9.83-4.66-9.83-10.88s3.23-11.22,10-11.22,8.95,3.99,8.95,10.21v1.85Zm-3.11-2.98c0-4.45-1.72-6.55-5.92-6.55s-6.55,2.65-6.89,6.97h12.81v-.42Z"></path><path class="cls-7" d="m1156.93,882.7h2.6l.29,3.49c1.01-2.14,3.28-4.03,7.35-4.03,4.75,0,7.77,2.52,7.77,7.94v13.61h-2.94v-13.27c0-4.33-2.14-5.71-5.5-5.71-3.82,0-6.64,2.69-6.64,5.63v13.36h-2.94v-21Z"></path><path class="cls-7" d="m1180.62,893.25c0-7.1,4.28-11.09,10.04-11.09,3.7,0,6.22,1.6,7.31,3.74h.04v-14.95h2.94v32.77h-1.97l-.67-3.61h-.08c-1.18,2.31-3.95,4.16-7.77,4.16-6.3,0-9.83-3.99-9.83-11.01Zm17.64-.5c0-5.5-3.36-8.07-7.35-8.07-3.11,0-7.14,1.47-7.14,8.4s3.61,8.61,7.14,8.61c4.24,0,7.35-2.73,7.35-8.95Z"></path><path class="cls-7" d="m1225.56,894.21h-15.96c.17,4.79,2.48,7.48,6.93,7.48,3.82,0,5.67-1.43,5.97-4.83h2.98c-.29,4.24-3.28,7.39-9.03,7.39-7.06,0-9.83-4.66-9.83-10.88s3.23-11.22,10-11.22,8.95,3.99,8.95,10.21v1.85Zm-3.11-2.98c0-4.45-1.72-6.55-5.92-6.55s-6.55,2.65-6.89,6.97h12.81v-.42Z"></path><path class="cls-7" d="m1231.44,882.7h2.6l.29,3.91c1.01-2.14,3.07-4.45,6.76-4.45,1.26,0,2.18.21,3.02.55v3.15c-1.13-.5-2.1-.76-3.4-.76-3.74,0-6.34,2.81-6.34,5.75v12.85h-2.94v-21Z"></path><path class="cls-7" d="m1246.64,897.28v-1.18h2.94v1.13c0,2.86,2.14,4.5,5.96,4.5s5.8-1.01,5.8-3.78c0-2.06-1.01-2.81-3.86-3.32l-4.62-.84c-3.02-.55-5.54-2.02-5.54-5.5,0-3.15,2.35-6.13,8.4-6.13s8.4,3.02,8.4,7.22v.88h-2.98v-.76c0-3.44-2.14-4.91-5.42-4.91-3.95,0-5.33,1.34-5.33,3.36s1.01,2.86,3.91,3.4l4.03.76c4.12.76,6.09,1.93,6.09,5.59,0,4.58-4.12,6.55-8.78,6.55-7.31,0-8.99-3.28-8.99-6.97Z"></path><path class="cls-7" d="m1278.69,897.91c0-3.95,2.23-6.09,7.86-6.09h6.34v-1.72c0-2.98-1.26-5.42-5.46-5.42-3.95,0-5.33,1.51-5.33,4.12v.88h-2.98v-.84c0-5,4.2-6.68,8.32-6.68,5.8,0,8.4,2.86,8.4,8.44v13.11h-2.06l-.55-2.98h-.08c-1.26,1.89-3.7,3.53-7.35,3.53-4.92,0-7.1-2.31-7.1-6.34Zm14.2-1.85v-1.76h-7.01c-2.65,0-4.03.92-4.03,3.61,0,2.35,1.26,3.86,4.5,3.86,4.16,0,6.55-2.14,6.55-5.71Z"></path><path class="cls-7" d="m1303.18,882.7h2.6l.29,3.49c1.01-2.14,3.28-4.03,7.35-4.03,4.75,0,7.77,2.52,7.77,7.94v13.61h-2.94v-13.27c0-4.33-2.14-5.71-5.5-5.71-3.82,0-6.64,2.69-6.64,5.63v13.36h-2.94v-21Z"></path><path class="cls-7" d="m1326.86,893.25c0-7.1,4.28-11.09,10.04-11.09,3.7,0,6.22,1.6,7.31,3.74h.04v-14.95h2.94v32.77h-1.97l-.67-3.61h-.08c-1.18,2.31-3.95,4.16-7.77,4.16-6.3,0-9.83-3.99-9.83-11.01Zm17.64-.5c0-5.5-3.36-8.07-7.35-8.07-3.11,0-7.14,1.47-7.14,8.4s3.61,8.61,7.14,8.61c4.24,0,7.35-2.73,7.35-8.95Z"></path><path class="cls-7" d="m1362.52,893.25c0-7.1,4.28-11.09,10.04-11.09,3.7,0,6.22,1.6,7.31,3.74h.04v-14.95h2.94v32.77h-1.97l-.67-3.61h-.08c-1.18,2.31-3.95,4.16-7.77,4.16-6.3,0-9.83-3.99-9.83-11.01Zm17.64-.5c0-5.5-3.36-8.07-7.35-8.07-3.11,0-7.14,1.47-7.14,8.4s3.61,8.61,7.14,8.61c4.24,0,7.35-2.73,7.35-8.95Z"></path><path class="cls-7" d="m1407.46,894.21h-15.96c.17,4.79,2.48,7.48,6.93,7.48,3.82,0,5.67-1.43,5.97-4.83h2.98c-.29,4.24-3.28,7.39-9.03,7.39-7.06,0-9.83-4.66-9.83-10.88s3.23-11.22,10-11.22,8.95,3.99,8.95,10.21v1.85Zm-3.11-2.98c0-4.45-1.72-6.55-5.92-6.55s-6.55,2.65-6.89,6.97h12.81v-.42Z"></path><path class="cls-7" d="m1411.45,897.28v-1.18h2.94v1.13c0,2.86,2.14,4.5,5.96,4.5s5.8-1.01,5.8-3.78c0-2.06-1.01-2.81-3.86-3.32l-4.62-.84c-3.02-.55-5.54-2.02-5.54-5.5,0-3.15,2.35-6.13,8.4-6.13s8.4,3.02,8.4,7.22v.88h-2.98v-.76c0-3.44-2.14-4.91-5.42-4.91-3.95,0-5.33,1.34-5.33,3.36s1.01,2.86,3.91,3.4l4.03.76c4.12.76,6.09,1.93,6.09,5.59,0,4.58-4.12,6.55-8.78,6.55-7.31,0-8.99-3.28-8.99-6.97Z"></path><path class="cls-7" d="m1433.42,893.37c0-6.38,3.23-11.22,10-11.22s8.95,3.91,8.95,8.95v.42h-3.11v-.63c0-3.82-1.64-6.09-5.84-6.09-4.75,0-7.01,3.11-7.01,8.4,0,5.63,2.39,8.49,6.93,8.49,3.82,0,5.84-1.85,5.92-5.67h3.02c-.08,4.66-3.15,8.23-9.03,8.23-7.22,0-9.83-4.75-9.83-10.88Z"></path><path class="cls-7" d="m1475.5,894.21h-15.96c.17,4.79,2.48,7.48,6.93,7.48,3.82,0,5.67-1.43,5.97-4.83h2.98c-.29,4.24-3.28,7.39-9.03,7.39-7.06,0-9.83-4.66-9.83-10.88s3.23-11.22,10-11.22,8.95,3.99,8.95,10.21v1.85Zm-3.11-2.98c0-4.45-1.72-6.55-5.92-6.55s-6.55,2.65-6.89,6.97h12.81v-.42Z"></path><path class="cls-7" d="m1481.38,882.7h2.6l.29,3.49c1.01-2.14,3.28-4.03,7.35-4.03,4.75,0,7.77,2.52,7.77,7.94v13.61h-2.94v-13.27c0-4.33-2.14-5.71-5.5-5.71-3.82,0-6.64,2.69-6.64,5.63v13.36h-2.94v-21Z"></path><path class="cls-7" d="m1505.07,893.25c0-7.1,4.28-11.09,10.04-11.09,3.7,0,6.22,1.6,7.31,3.74h.04v-14.95h2.94v32.77h-1.97l-.67-3.61h-.08c-1.18,2.31-3.95,4.16-7.77,4.16-6.3,0-9.83-3.99-9.83-11.01Zm17.64-.5c0-5.5-3.36-8.07-7.35-8.07-3.11,0-7.14,1.47-7.14,8.4s3.61,8.61,7.14,8.61c4.24,0,7.35-2.73,7.35-8.95Z"></path><path class="cls-7" d="m1550.01,894.21h-15.96c.17,4.79,2.48,7.48,6.93,7.48,3.82,0,5.67-1.43,5.97-4.83h2.98c-.29,4.24-3.28,7.39-9.03,7.39-7.06,0-9.83-4.66-9.83-10.88s3.23-11.22,10-11.22,8.95,3.99,8.95,10.21v1.85Zm-3.11-2.98c0-4.45-1.72-6.55-5.92-6.55s-6.55,2.65-6.89,6.97h12.81v-.42Z"></path><path class="cls-7" d="m1555.89,882.7h2.6l.29,3.91c1.01-2.14,3.07-4.45,6.76-4.45,1.26,0,2.18.21,3.02.55v3.15c-1.13-.5-2.1-.76-3.4-.76-3.74,0-6.34,2.81-6.34,5.75v12.85h-2.94v-21Z"></path><path class="cls-7" d="m1571.09,897.28v-1.18h2.94v1.13c0,2.86,2.14,4.5,5.96,4.5s5.8-1.01,5.8-3.78c0-2.06-1.01-2.81-3.86-3.32l-4.62-.84c-3.02-.55-5.54-2.02-5.54-5.5,0-3.15,2.35-6.13,8.4-6.13s8.4,3.02,8.4,7.22v.88h-2.98v-.76c0-3.44-2.14-4.91-5.42-4.91-3.95,0-5.33,1.34-5.33,3.36s1.01,2.86,3.91,3.4l4.03.76c4.12.76,6.09,1.93,6.09,5.59,0,4.58-4.12,6.55-8.78,6.55-7.31,0-8.99-3.28-8.99-6.97Z"></path><path class="cls-7" d="m1604.4,870.94h2.94v15.16c1.05-2.1,3.28-3.95,7.31-3.95,4.75,0,7.77,2.52,7.77,7.94v13.61h-2.94v-13.27c0-4.33-2.14-5.71-5.5-5.71-3.82,0-6.64,2.69-6.64,5.63v13.36h-2.94v-32.77Z"></path><path class="cls-7" d="m1628.51,897.91c0-3.95,2.23-6.09,7.86-6.09h6.34v-1.72c0-2.98-1.26-5.42-5.46-5.42-3.95,0-5.33,1.51-5.33,4.12v.88h-2.98v-.84c0-5,4.2-6.68,8.32-6.68,5.8,0,8.4,2.86,8.4,8.44v13.11h-2.06l-.55-2.98h-.08c-1.26,1.89-3.7,3.53-7.35,3.53-4.92,0-7.1-2.31-7.1-6.34Zm14.2-1.85v-1.76h-7.01c-2.65,0-4.03.92-4.03,3.61,0,2.35,1.26,3.86,4.5,3.86,4.16,0,6.55-2.14,6.55-5.71Z"></path><path class="cls-7" d="m1648.58,882.75v-.04h3.36l7.35,17.98h.08l7.1-17.98h3.07v.04l-8.74,20.96h-3.02l-9.2-20.96Z"></path><path class="cls-7" d="m1690.38,894.21h-15.96c.17,4.79,2.48,7.48,6.93,7.48,3.82,0,5.67-1.43,5.97-4.83h2.98c-.29,4.24-3.28,7.39-9.03,7.39-7.06,0-9.83-4.66-9.83-10.88s3.23-11.22,10-11.22,8.95,3.99,8.95,10.21v1.85Zm-3.11-2.98c0-4.45-1.72-6.55-5.92-6.55s-6.55,2.65-6.89,6.97h12.81v-.42Z"></path><path class="cls-7" d="m1705.91,870.94h2.94v32.77h-2.94v-32.77Z"></path><path class="cls-7" d="m1714.52,893.21c0-6.22,3.32-11.05,10.38-11.05,6.59,0,10.25,4.83,10.25,11.05s-3.7,11.05-10.29,11.05c-7.27,0-10.33-4.83-10.33-11.05Zm17.56,0c0-5.33-2.9-8.49-7.22-8.49-4.75,0-7.27,3.15-7.27,8.49s2.56,8.49,7.27,8.49c4.33,0,7.22-3.15,7.22-8.49Z"></path><path class="cls-7" d="m1739.35,893.21c0-6.22,3.32-11.05,10.38-11.05,6.59,0,10.25,4.83,10.25,11.05s-3.7,11.05-10.29,11.05c-7.27,0-10.33-4.83-10.33-11.05Zm17.56,0c0-5.33-2.9-8.49-7.22-8.49-4.75,0-7.27,3.15-7.27,8.49s2.56,8.49,7.27,8.49c4.33,0,7.22-3.15,7.22-8.49Z"></path><path class="cls-7" d="m1765.85,882.7h2.39l.34,3.86h.08c1.13-2.48,4.03-4.41,7.86-4.41,6.3,0,9.66,3.99,9.66,11.01s-4.29,11.09-9.87,11.09c-3.78,0-6.38-1.6-7.43-3.7h-.08v11.55h-2.94v-29.41Zm17.18,10.63c0-7.18-3.4-8.61-6.93-8.61-4.24,0-7.56,2.73-7.56,8.44,0,6.01,3.45,8.57,7.44,8.57,3.02,0,7.06-1.47,7.06-8.4Z"></path><path class="cls-7" d="m1790.17,897.28v-1.18h2.94v1.13c0,2.86,2.14,4.5,5.96,4.5s5.8-1.01,5.8-3.78c0-2.06-1.01-2.81-3.86-3.32l-4.62-.84c-3.02-.55-5.54-2.02-5.54-5.5,0-3.15,2.35-6.13,8.4-6.13s8.4,3.02,8.4,7.22v.88h-2.98v-.76c0-3.44-2.14-4.91-5.42-4.91-3.95,0-5.33,1.34-5.33,3.36s1.01,2.86,3.91,3.4l4.03.76c4.12.76,6.09,1.93,6.09,5.59,0,4.58-4.12,6.55-8.78,6.55-7.31,0-8.99-3.28-8.99-6.97Z"></path><path class="cls-7" d="m1077.72,943.06h-15.96c.17,4.79,2.48,7.48,6.93,7.48,3.82,0,5.67-1.43,5.96-4.83h2.98c-.29,4.24-3.28,7.39-9.03,7.39-7.06,0-9.83-4.66-9.83-10.88s3.23-11.22,10-11.22,8.95,3.99,8.95,10.21v1.85Zm-3.11-2.98c0-4.45-1.72-6.55-5.92-6.55s-6.55,2.65-6.89,6.97h12.81v-.42Z"></path><path class="cls-7" d="m1098.97,931.59l-8.07,10.5,8.02,10.42v.04h-3.44l-6.34-8.44-6.43,8.44h-3.28v-.04l8.02-10.38-8.07-10.54v-.04h3.44l6.38,8.49,6.43-8.44v-.04h3.32v.04Z"></path><path class="cls-7" d="m1100.99,942.22c0-6.38,3.23-11.22,10-11.22s8.95,3.91,8.95,8.95v.42h-3.11v-.63c0-3.82-1.64-6.09-5.84-6.09-4.75,0-7.01,3.11-7.01,8.4,0,5.63,2.39,8.49,6.93,8.49,3.82,0,5.84-1.85,5.92-5.67h3.02c-.08,4.66-3.15,8.23-9.03,8.23-7.22,0-9.83-4.75-9.83-10.88Z"></path><path class="cls-7" d="m1143.08,943.06h-15.96c.17,4.79,2.48,7.48,6.93,7.48,3.82,0,5.67-1.43,5.97-4.83h2.98c-.29,4.24-3.28,7.39-9.03,7.39-7.06,0-9.83-4.66-9.83-10.88s3.23-11.22,10-11.22,8.95,3.99,8.95,10.21v1.85Zm-3.11-2.98c0-4.45-1.72-6.55-5.92-6.55s-6.55,2.65-6.89,6.97h12.81v-.42Z"></path><path class="cls-7" d="m1148.95,931.55h2.39l.34,3.87h.08c1.13-2.48,4.03-4.41,7.86-4.41,6.3,0,9.66,3.99,9.66,11.01s-4.29,11.09-9.87,11.09c-3.78,0-6.38-1.6-7.43-3.7h-.08v11.55h-2.94v-29.41Zm17.18,10.63c0-7.18-3.4-8.61-6.93-8.61-4.24,0-7.56,2.73-7.56,8.44,0,6.01,3.45,8.57,7.44,8.57,3.02,0,7.06-1.47,7.06-8.4Z"></path><path class="cls-7" d="m1186.12,949.86v2.6c-.76.21-2.14.59-4.03.59-3.82,0-6.34-1.6-6.34-6.89v-12.18h-4.16v-2.44h4.16v-6.05l2.94-1.43v7.48h5.92v2.44h-5.92v11.8c0,2.81.76,4.58,3.4,4.58,1.6,0,3.23-.29,4.03-.5Z"></path><path class="cls-7" d="m1200.61,919.79h2.98v6.51h-2.98v-6.51Zm0,11.76h2.94v21h-2.94v-21Z"></path><path class="cls-7" d="m1210.94,931.55h2.6l.29,3.49c1.01-2.14,3.28-4.03,7.35-4.03,4.75,0,7.77,2.52,7.77,7.94v13.61h-2.94v-13.27c0-4.33-2.14-5.71-5.5-5.71-3.82,0-6.64,2.69-6.64,5.63v13.36h-2.94v-21Z"></path><path class="cls-7" d="m1245.97,919.79h2.94v32.77h-2.94v-32.77Z"></path><path class="cls-7" d="m1273.53,943.06h-15.96c.17,4.79,2.48,7.48,6.93,7.48,3.82,0,5.67-1.43,5.97-4.83h2.98c-.29,4.24-3.28,7.39-9.03,7.39-7.06,0-9.83-4.66-9.83-10.88s3.23-11.22,10-11.22,8.95,3.99,8.95,10.21v1.85Zm-3.11-2.98c0-4.45-1.72-6.55-5.92-6.55s-6.55,2.65-6.89,6.97h12.81v-.42Z"></path><path class="cls-7" d="m1279.99,946.17v-12.18h-4.16v-2.44h4.16v-6.05l2.94-1.43v7.48h11.85v-6.05l2.94-1.43v7.48h5.92v2.44h-5.92v11.8c0,2.81.76,4.58,3.4,4.58,1.6,0,3.24-.29,4.03-.5v2.6c-.76.21-2.14.59-4.03.59-3.82,0-6.34-1.6-6.34-6.89v-12.18h-11.85v11.8c0,2.81.76,4.58,3.4,4.58,1.6,0,3.23-.29,4.03-.5v2.6c-.76.21-2.14.59-4.03.59-3.82,0-6.34-1.6-6.34-6.89Z"></path><path class="cls-7" d="m1326.62,943.06h-15.96c.17,4.79,2.48,7.48,6.93,7.48,3.82,0,5.67-1.43,5.97-4.83h2.98c-.29,4.24-3.28,7.39-9.03,7.39-7.06,0-9.83-4.66-9.83-10.88s3.23-11.22,10-11.22,8.95,3.99,8.95,10.21v1.85Zm-3.11-2.98c0-4.45-1.72-6.55-5.92-6.55s-6.55,2.65-6.89,6.97h12.81v-.42Z"></path><path class="cls-7" d="m1332.49,931.55h2.6l.29,3.91c1.01-2.14,3.07-4.45,6.76-4.45,1.26,0,2.18.21,3.02.55v3.15c-1.13-.5-2.1-.76-3.4-.76-3.74,0-6.34,2.81-6.34,5.75v12.85h-2.94v-21Z"></path><path class="cls-7" d="m1347.7,946.13v-1.18h2.94v1.13c0,2.86,2.14,4.5,5.96,4.5s5.8-1.01,5.8-3.78c0-2.06-1.01-2.81-3.86-3.32l-4.62-.84c-3.02-.55-5.54-2.02-5.54-5.5,0-3.15,2.35-6.13,8.4-6.13s8.4,3.02,8.4,7.23v.88h-2.98v-.76c0-3.44-2.14-4.92-5.42-4.92-3.95,0-5.33,1.34-5.33,3.36s1.01,2.86,3.91,3.4l4.03.76c4.12.76,6.09,1.93,6.09,5.59,0,4.58-4.12,6.55-8.78,6.55-7.31,0-8.99-3.28-8.99-6.97Z"></path><path class="cls-7" d="m1382.68,930.25h-3.36v-5.08c0-3.95.88-5.29,3.4-5.96l.67,1.85c-1.76.67-2.06,1.09-2.06,3.78v.34h1.34v5.08Zm5.92,0h-3.36v-5.08c0-3.95.88-5.29,3.4-5.96l.67,1.85c-1.76.67-2.06,1.09-2.06,3.78v.34h1.34v5.08Z"></path><path class="cls-7" d="m1398.73,926.51v5.04h5.92v2.44h-5.92v18.57h-2.94v-18.57h-4.16v-2.44h4.16v-5.42c0-5.29,3.15-6.89,6.38-6.89,1.85,0,2.98.29,3.74.55v2.6c-.71-.21-1.89-.46-3.49-.46-2.65,0-3.7,1.76-3.7,4.58Z"></path><path class="cls-7" d="m1409.27,928.99c1.76-.67,2.06-1.09,2.06-3.78v-.34h-1.34v-5.08h3.36v5.08c0,3.95-.88,5.29-3.4,5.96l-.67-1.85Zm5.92,0c1.76-.67,2.06-1.09,2.06-3.78v-.34h-1.34v-5.08h3.36v5.08c0,3.95-.88,5.29-3.4,5.96l-.67-1.85Z"></path><path class="cls-7" d="m1433.54,946.76c0-3.95,2.23-6.09,7.86-6.09h6.34v-1.72c0-2.98-1.26-5.42-5.46-5.42-3.95,0-5.33,1.51-5.33,4.12v.88h-2.98v-.84c0-5,4.2-6.68,8.32-6.68,5.8,0,8.4,2.86,8.4,8.44v13.11h-2.06l-.55-2.98h-.08c-1.26,1.89-3.7,3.53-7.35,3.53-4.92,0-7.1-2.31-7.1-6.34Zm14.2-1.85v-1.76h-7.01c-2.65,0-4.03.92-4.03,3.61,0,2.35,1.26,3.87,4.5,3.87,4.16,0,6.55-2.14,6.55-5.71Z"></path><path class="cls-7" d="m1458.03,931.55h2.6l.29,3.49c1.01-2.14,3.28-4.03,7.35-4.03,4.75,0,7.77,2.52,7.77,7.94v13.61h-2.94v-13.27c0-4.33-2.14-5.71-5.5-5.71-3.82,0-6.64,2.69-6.64,5.63v13.36h-2.94v-21Z"></path><path class="cls-7" d="m1481.72,942.09c0-7.1,4.28-11.09,10.04-11.09,3.7,0,6.22,1.6,7.31,3.74h.04v-14.96h2.94v32.77h-1.97l-.67-3.61h-.08c-1.18,2.31-3.95,4.16-7.77,4.16-6.3,0-9.83-3.99-9.83-11.01Zm17.64-.5c0-5.5-3.36-8.07-7.35-8.07-3.11,0-7.14,1.47-7.14,8.4s3.61,8.61,7.14,8.61c4.24,0,7.35-2.73,7.35-8.95Z"></path><path class="cls-7" d="m1520.74,930.25h-3.36v-5.08c0-3.95.88-5.29,3.4-5.96l.67,1.85c-1.76.67-2.06,1.09-2.06,3.78v.34h1.34v5.08Zm5.92,0h-3.36v-5.08c0-3.95.88-5.29,3.4-5.96l.67,1.85c-1.76.67-2.06,1.09-2.06,3.78v.34h1.34v5.08Z"></path><path class="cls-7" d="m1533.04,931.55h2.39l.34,3.87h.08c1.13-2.48,4.03-4.41,7.86-4.41,6.3,0,9.66,3.99,9.66,11.01s-4.29,11.09-9.87,11.09c-3.78,0-6.38-1.6-7.43-3.7h-.08v11.55h-2.94v-29.41Zm17.18,10.63c0-7.18-3.4-8.61-6.93-8.61-4.24,0-7.56,2.73-7.56,8.44,0,6.01,3.45,8.57,7.44,8.57,3.02,0,7.06-1.47,7.06-8.4Z"></path><path class="cls-7" d="m1554.63,928.99c1.76-.67,2.06-1.09,2.06-3.78v-.34h-1.34v-5.08h3.36v5.08c0,3.95-.88,5.29-3.4,5.96l-.67-1.85Zm5.92,0c1.76-.67,2.06-1.09,2.06-3.78v-.34h-1.34v-5.08h3.36v5.08c0,3.95-.88,5.29-3.4,5.96l-.67-1.85Z"></path></g><g id="word"><circle class="cls-10" cx="1183.92" cy="655.42" r="106.33"></circle><path class="cls-7" d="m463.32,546.51c-25.18,0-34.74,7.05-53.88,19.64-5.54,4.03-10.58-2.01-6.54-7.05,37.76-47.84,75.02-96.18,111.28-145.02h-39.27c-6.55,0-6.55-10.07,0-10.07h46.83c30.22-39.78,59.42-80.57,88.63-120.85-13.09,4.03-25.68,5.54-37.76,5.54-25.18,0-50.36-11.58-76.04-11.58-34.24,0-45.82,39.28-51.36,65.46-1.51,6.54-11.58,3.52-10.07-2.02,7.05-31.72,21.15-73.52,61.43-73.52,25.68,0,52.87,11.58,76.04,11.58,16.11,0,32.73-3.02,49.34-11.08,6.04-3.02,10.07,2.01,6.55,7.55,0,0-63.45,88.62-93.66,128.91h46.32c6.55,0,6.55,10.07,0,10.07h-53.88c-22.66,30.21-71,93.15-99.7,129.41,11.58-5.54,23.16-7.05,35.75-7.05,37.26,0,67.98,20.64,100.2,20.64,50.36,0,101.21-114.3,112.79-148.04l4.53,19.64c-20.14,40.28-61.43,138.47-117.33,138.47-34.24,0-64.95-20.64-100.2-20.64Zm108.77-319.75c-9.06,7.55-20.65,17.62-27.19,24.67-2.01,2.01-5.04,2.01-7.05,0-13.09-14.1-29.7-27.19-43.3-37.77-6.04-4.53,1.51-12.09,6.04-8.06,0,0,7.56,6.04,16.62,13.6,8.05,6.54,17.12,14.6,24.17,21.65,12.09-12.09,26.69-24.17,40.79-35.25,4.53-3.53,11.08,3.52,6.04,8.06,0,0-7.05,5.54-16.11,13.09Zm106.75,90.13c5.04,0,9.07,4.53,9.07,9.57,0,5.54-4.03,9.57-9.07,9.57s-8.56-4.03-8.56-9.57c0-5.04,3.53-9.57,8.56-9.57Zm0,0c5.04,0,9.07,4.53,9.07,9.57,0,5.54-4.03,9.57-9.07,9.57s-8.56-4.03-8.56-9.57c0-5.04,3.53-9.57,8.56-9.57Zm2.02,0c5.04,0,9.06,4.53,9.06,9.57,0,5.54-4.03,9.57-9.06,9.57-4.53,0-8.56-4.03-8.56-9.57,0-5.04,4.03-9.57,8.56-9.57Zm675.25,60.93c28.7,0,50.86,18.13,60.42,43.81l-.5-37.26c0-7.05,9.57-7.55,10.07-1.01.51,2.01,5.54,41.79,30.72,41.79s51.87-42.3,52.37-43.81c3.53-5.54,12.09-.5,8.56,5.04-11.08,19.64-35.75,48.84-60.93,48.84-14.6,0-24.67-10.57-30.21-22.15,1,56.39,1,44.81,1,57.4,0,26.18-9.56,98.19-71.5,98.19-46.83,0-72.01-44.31-72.01-95.67,0-7.55.5-17.62,2.52-23.67-21.65,33.23-47.34,71-72.01,104.74v118.84c0,40.28-22.15,67.47-50.35,67.47-51.87,0-46.33-61.43-34.74-80.06,22.16-36.25,48.34-73.52,75.02-109.27l-.5-112.79c-12.59,29.71-57.91,128.91-99.2,128.91-36.25,0-36.25-61.94-36.25-76.54v-98.7c-15.11,16.62-42.3,31.72-62.94,31.72-11.08,0-22.16-4.03-28.2-15.11,1.01,27.19,1.51,56.9,1.51,63.45,0,63.95-24.17,95.17-66.97,95.17-46.83,0-64.45-37.77-61.43-96.68,1.01-20.14,5.54-50.86,5.54-50.86,3.02-27.7-7.55-33.74-15.61-33.74-21.15,0-35.25,39.28-41.8,57.91-16.61,45.82-42.8,123.37-85.1,123.37-38.77,0-38.77-64.45-38.77-76.54v-108.77c0-6.54,10.07-6.54,10.07,0v108.77c0,10.57,0,66.47,29.21,66.47,33.74,0,59.92-76.04,77.54-121.86,9.07-23.67,22.16-59.42,48.34-59.42,17.12,0,29.71,14.6,26.18,45.32,0,0-4.53,30.21-5.54,49.85-3.02,57.91,16.61,86.11,52.87,86.11s55.39-26.18,55.39-84.6c0-15.61-1.01-44.31-2.52-89.63,0-7.05,7.55-8.06,9.57-1.51,3.53,13.09,10.57,32.23,30.72,32.23s48.84-18.13,59.42-35.25c2.01-2.52,5.04-2.52,7.05-1.51,2.52,0,5.54,1.51,5.54,5.04v108.77c0,12.59,0,66.47,26.18,66.47,34.74,0,90.13-119.34,99.2-147.54v-26.69c0-7.05,10.07-7.05,10.07,0v154.59c29.21-38.77,69.99-104.74,85.6-126.89,14.1-21.65,31.22-32.73,56.4-32.73Zm-281.48-60.93c5.04,0,9.06,4.53,9.06,9.57,0,5.54-4.03,9.57-9.06,9.57-4.53,0-8.56-4.03-8.56-9.57,0-5.04,4.03-9.57,8.56-9.57Zm63.44,348.45c-11.58,19.64-10.58,64.95,26.18,64.95,20.14,0,40.28-19.13,40.28-57.4v-105.24c-23.67,31.72-46.32,64.45-66.46,97.69Zm69.49-348.45c5.04,0,9.06,4.53,9.06,9.57,0,5.54-4.03,9.57-9.06,9.57-4.53,0-8.56-4.03-8.56-9.57,0-5.04,4.03-9.57,8.56-9.57Zm86.61,156.1c0,49.35,23.67,85.6,61.94,85.6s61.94-38.77,61.43-85.1v-.5c-.5-37.26-16.11-85.1-61.43-85.1-38.27,0-61.94,36.25-61.94,85.1Z"></path><path class="cls-7" d="m413.74,1226.21c0,41.39,7.48,97.73,6.48,145.1-.5,28.42-10.97,78.78-57.34,78.78-39.89,0-50.36-31.41-51.36-62.33,0-6.48,9.98-6.98,9.98,0,.99,29.92,10.47,52.36,41.38,52.36,36.4,0,46.87-39.39,47.37-68.81,1-47.37-6.48-104.21-6.48-145.1,0-21.94,5.98-35.4,15.45-54.35,2.99-5.98,11.97-1.5,8.97,3.99-8.97,17.95-14.46,29.92-14.46,50.36Zm-72.3-15.96c0-33.41,35.9-57.34,90.25-57.34s100.23,31.91,100.23,87.26-45.87,78.78-89.26,77.29c-6.98,0-6.48-9.97,0-9.97,40.39,1.49,79.28-18.45,79.28-67.32s-38.39-77.29-90.25-77.29-80.28,22.94-80.28,47.37c0,22.44,5.98,39.39,24.43,53.35,5.48,3.49-.5,11.97-5.98,7.98-21.44-15.96-28.42-36.9-28.42-61.33Zm1330.52,155.08c3.99-6.98,11.97-3.99,8.48,4.99-3.99,10.97-48.86,83.27-105.71,83.27-17.45,0-30.42-17.95-30.42-47.37,0,0,.5-65.82,0-82.27-.99-40.39-14.46-51.86-39.89-51.86-31.42-1-52.36,35.9-56.84,69.31.5,35.4,0,103.72,0,103.72,0,6.48-9.97,6.48-9.97,0,0,0,.5-104.71,0-121.17-1-40.89-13.96-51.86-39.89-51.86-34.9-1-57.34,43.38-57.34,80.28v92.75c0,6.48-9.97,6.48-9.97,0v-140.11c0-28.42-8.48-33.91-16.95-33.91-13.46,0-24.43,14.46-36.4,36.9-12.97,24.43-29.92,62.33-45.38,89.75-12.97,22.94-33.91,52.36-57.34,52.36-32.91,0-41.39-34.9-41.39-75.79v-52.36c-17.95,42.88-52.36,109.2-98.73,124.16-6.49,2.99-13.46,3.99-21.94,3.99-16.46,0-30.42-.5-40.89-15.96-3.99-5.49,3.99-11.47,7.98-5.98,8.48,12.47,19.94,11.97,32.91,11.97,22.93,0,36.9-17.95,36.9-36.4.5-26.93-10.97-44.38-34.41-66.32-17.95-17.45-27.43-36.9-37.4-58.34-10.97,17.45-33.41,40.39-56.35,40.39-14.96,0-24.43-8.97-29.92-18.45,0,18.45.5,37.4.5,55.85.5,50.86-24.43,94.74-70.8,94.74-39.89,0-63.82-32.91-69.81-74.3-15.46,28.92-42.39,72.8-68.31,72.8-32.91,0-41.38-34.41-41.38-75.79v-95.24c-7.48,6.98-16.46,12.97-26.93,12.97-12.47,0-23.94-6.48-32.41-14.96-18.45,63.82-64.82,139.12-93.74,171.53-4.49,4.99-11.97-2-7.48-6.98,29.42-32.91,79.28-111.69,93.74-175.52,1.49-6.48,7.98-5.98,10.47-1,5.98,11.47,21.44,16.95,29.42,16.95,9.47,0,22.44-8.97,27.92-18.45,2-3.99,8.98-2.99,8.98,2.99v107.71c0,43.38,9.47,65.82,31.41,65.82,24.43,0,54.85-56.85,67.32-81.78v-1.5c-.5-50.36,24.43-94.24,70.81-94.24,28.42,0,48.87,16.45,60.33,41.39l-.5-34.9c0-6.98,8.97-7.48,9.97-1,0,1.99,5.48,41.39,30.91,41.39,18.95,0,43.88-26.43,51.36-43.88,2.49-5.49,6.98-5.49,9.47,0,10.47,24.93,17.46,45.87,36.4,64.32,24.43,23.44,40.89,43.38,40.39,73.8,0,6.48-2.49,14.46-4.99,20.44,28.92-17.95,69.31-99.73,78.78-129.64v-27.92c0-6.48,9.97-6.48,9.97,0v107.71c0,43.38,9.48,65.82,31.42,65.82,18.95,0,38.39-28.42,50.36-49.86,16.45-29.92,30.42-68.31,40.89-85.27,14.46-24.43,29.42-43.88,47.87-43.88s26.93,14.96,26.93,43.88v7.48c10.47-35.4,33.91-49.86,57.84-49.86,27.43,0,44.38,11.97,48.37,46.87,10.47-25.43,29.42-47.87,57.84-47.37,32.41.5,48.87,17.45,49.87,61.33.5,16.95,0,82.77,0,82.77,0,28.42,12.47,37.4,20.94,37.4,43.88,0,81.77-50.86,96.73-78.29Zm-850.67-92.75c-37.9,0-60.83,35.9-60.83,84.27s22.93,84.77,60.83,84.77,61.33-35.9,60.84-84.27v-.5c0-36.9-15.46-84.27-60.84-84.27Zm315.63-51.36c-4.99,0-8.48-3.99-8.48-9.47,0-4.99,3.49-9.48,8.48-9.48s8.98,4.49,8.98,9.48c0,5.49-3.99,9.47-8.98,9.47Z"></path><path class="cls-7" d="m383.53,2042.45c44.87,0,77.29,36.9,77.29,80.78,0,59.83-59.34,93.74-99.23,127.15-25.93,21.44-49.87,45.87-64.32,76.79,19.44-8.98,31.41-14.46,54.85-12.47,18.45,1.49,43.88,15.46,67.32,15.46,28.42,0,37.9-1.5,55.85-25.93,4.48-5.98,11.47,1,7.98,5.98-20.45,27.43-32.91,29.92-63.82,29.92-37.9,0-61.33-27.92-102.22-11.47-4.49,2-40.39,22.44-33.91,5.49,19.45-51.36,60.33-82.77,100.23-114.19,37.4-29.42,67.32-55.35,67.32-96.73,0-38.89-28.42-70.81-67.32-70.81-43.88,0-65.82,20.45-74.3,46.87-1.99,6.98-10.97,1.99-9.47-2.99,9.47-31.41,36.9-53.85,83.77-53.85Zm283.72,16.46c-27.42,15.96-49.36,12.96-76.79,1.49-8.47-3.49-15.96-6.98-28.92-6.98-27.92,0-37.9,1.99-55.35,25.93-3.99,5.49-7.98-5.98-7.98-5.98,19.95-27.42,33.41-29.92,63.33-29.92,31.41,0,60.33,28.42,91.75,11.97,17.95-9.47,9.97-7.98,23.93-12.47,5.49-1.5,8.97,2.49,5.98,7.48-19.45,33.91-40.39,75.29-64.82,131.64h43.38c6.48,0,6.48,9.97,0,9.97h-47.87c-18.45,44.88-37.4,95.74-50.86,144.6-2,7.98-11.47,3.99-9.48-2.99,13.46-48.37,30.92-96.74,49.87-141.61h-50.36c-6.98,0-6.98-9.97,0-9.97h54.35c19.95-46.87,41.39-89.76,59.84-123.16Zm1004.75,192.97c3.49-6.98,11.97-3.99,8.48,4.99-3.99,10.97-41.39,83.27-106.21,83.27-44.38,0-69.81-43.38-69.81-94.74,0-17.45,2.99-33.91,8.98-48.37-11.47,6.98-23.94,12.47-37.4,12.47-14.46,0-24.43-10.47-29.92-21.94,1,55.84,1,44.38,1,56.84,0,25.93-9.48,97.23-70.81,97.23-46.37,0-71.3-43.88-71.3-92.75-29.42,58.34-56.85,80.78-77.29,87.26-5.98,2.99-13.46,3.99-21.44,3.99-18.45,0-30.42-.5-41.39-15.96-3.49-5.49,5.49-10.47,8.48-5.98,8.48,12.47,20.45,11.97,32.91,11.97,22.44,0,36.9-17.95,36.9-36.4,0-24.43-9.97-44.38-33.41-66.32-17.95-17.45-29.42-36.4-39.39-58.34-19.45,46.87-53.36,111.2-68.31,133.14-12.96,19.95-28.92,37.9-45.38,37.9-32.91,0-41.38-34.9-41.38-75.79v-51.36c-15.96,36.9-60.34,127.15-109.2,127.15-32.91,0-40.39-35.4-40.39-75.79v-51.36c-21.44,49.86-56.85,96.24-82.27,125.66-4.49,5.49-10.97-2.99-7.48-6.98,28.92-32.41,70.8-87.76,89.75-144.1v-67.82h-36.9c-6.49,0-6.49-9.97,0-9.97h36.9v-121.67c0-6.98,9.97-6.98,9.97,0v121.67h54.85c6.98,0,6.98,9.97,0,9.97h-54.85v144.6c0,42.88,8.48,65.82,30.42,65.82,44.87,0,96.23-104.71,109.2-143.61v-29.92c0-6.48,9.97-6.48,9.97,0v107.71c0,43.38,9.47,65.82,31.41,65.82,12.47,0,25.43-14.96,36.9-32.41,15.46-23.44,54.35-96.24,72.3-142.61,2-4.99,6.98-4.49,8.98.5,9.97,23.93,23.93,47.37,41.88,64.32,24.43,23.44,36.4,43.38,36.4,73.8,0,6.98-2.49,14.46-5.48,20.44,11.47-6.98,46.37-57.84,58.84-90.75,1-14.46,15.46-70.8,69.81-70.8,28.42,0,50.36,17.95,59.84,43.38v-36.9c0-6.98,8.97-7.48,9.47-1,.5,1.99,5.49,41.39,30.42,41.39s40.89-14.96,51.86-28.42c9.98-11.97,26.93-18.95,47.37-18.95,22.94,0,43.38,10.97,57.84,27.92,3.99,4.99-3.99,10.97-7.48,6.48-12.96-15.46-30.91-24.43-50.36-24.43-16.45,0-30.42,6.98-40.89,18.95-12.97,14.96-19.95,37.4-19.95,64.32,0,48.86,23.44,84.77,60.84,84.77,47.37,0,81.78-47.37,96.74-78.29Zm-652.71-140.61c-4.99,0-8.48-3.99-8.48-9.47,0-4.99,3.49-9.48,8.48-9.48s8.97,4.49,8.97,9.48c0,5.49-3.99,9.47-8.97,9.47Zm295.69,135.63c0,48.87,23.44,84.77,61.33,84.77s61.33-38.39,60.83-84.27v-.5c-.5-36.9-15.95-84.27-60.83-84.27-37.9,0-61.33,35.9-61.33,84.27Zm311.65-163.55l-42.88,40.89c-2,2-4.99,2-6.98,0l-37.4-39.39c-4.99-4.99,2.49-11.97,6.98-6.98l34.41,35.9,38.89-37.4c4.49-4.49,11.47,2.49,6.98,6.98Z"></path><path class="cls-7" d="m1326.44,3203.56c-20.44,13.46-37.9,29.92-68.81,29.92-17.95,0-27.42-14.96-27.42-44.38,0,0,.5-67.81,0-84.27-.5-40.39-12.97-51.36-41.39-51.36-33.91,0-65.82,46.88-65.82,81.28,0,90.25-.5,178.01-.5,270.75,0,6.49-9.48,6.49-9.48,0v-302.67c-13.46,32.91-60.83,128.15-99.23,128.15-17.45,0-25.93-13.96-26.42-41.39-11.47,25.43-31.91,42.88-60.84,42.88-46.37,0-71.3-43.88-71.3-94.74,0-7.48,1-14.46,2-21.94-18.45,28.42-21.44,39.39-36.4,61.33-17.95,25.93-40.39,53.85-60.33,53.85-32.91,0-40.39-35.4-40.39-75.79v-52.35c-6.98,17.95-23.93,52.85-43.88,81.77-22.44,32.41-44.87,46.37-77.29,46.37-96.73,0-120.17-127.65-16.45-157.07-26.42-8.48-45.87-22.94-45.87-56.84v-.5c-23.44-7.98-38.4-25.93-38.4-62.33,0-6.48,9.98-6.48,9.98,0,0,29.92,11.47,44.88,28.92,51.86,3.99-35.91,27.42-72.3,70.31-72.3,14.96,0,36.4,8.48,36.4,30.42,0,28.92-29.92,57.85-65.32,57.85-11.47,0-22.44-1-31.91-2.99,1,33.41,23.93,42.88,60.33,50.86,6.48,1.49,5.98,9.48-.5,9.97-119.18,11.97-96.74,141.11-7.48,141.11,29.42,0,49.87-13.96,70.31-44.38,21.44-31.91,45.38-83.77,50.86-101.22v-64.82h-36.4c-6.98,0-6.98-9.97,0-9.97h36.4v-121.67c0-6.98,9.97-6.98,9.97,0v121.67h54.85c6.98,0,6.98,9.97,0,9.97h-54.85v144.6c0,42.88,8.48,65.82,30.42,65.82,15.46,0,36.4-23.94,50.86-46.37,19.94-31.41,32.91-56.35,58.83-97.73,0-.5.5-.5.5-1,11.97-19.44,30.91-32.41,55.84-32.41,28.92,0,49.87,17.45,61.33,43.38v-40.39c0-6.49,9.97-6.49,9.97.5v139.62c0,28.92,7.48,34.41,15.96,34.41,35.4,0,90.25-117.18,99.23-145.6v-26.42c0-6.49,9.97-6.49,9.97,0v51.36c10.97-30.42,37.4-56.85,65.82-56.85,35.4,0,50.86,16.95,51.36,60.84.5,16.95,0,84.77,0,84.77,0,28.42,8.48,34.41,17.45,34.41,28.92,0,44.38-15.96,63.82-28.92-8.97-18.95-12.47-41.38-12.47-58.34,0-49.36,21.44-93.24,60.84-93.24,24.43,0,38.39,14.46,38.39,42.88,0,32.91-29.42,79.78-73.8,111.69,7.98,13.46,18.45,23.44,37.9,23.44,43.88,0,81.77-50.86,96.73-78.29,3.99-6.98,11.97-3.99,8.48,4.99-3.99,10.97-48.87,83.27-105.71,83.27-22.44,0-35.9-11.47-45.38-27.42Zm-719.03-259.79c-37.9,0-57.84,33.41-60.33,65.32,9.48,2.49,19.94,2.99,31.42,2.99,30.42,0,55.35-25.43,55.35-47.87,0-12.96-13.46-20.44-26.43-20.44Zm319.12,109.7c-37.9,0-61.33,35.91-61.33,84.27s23.44,84.77,61.33,84.77,60.84-35.4,60.84-83.77v-1c0-48.37-23.44-84.27-60.84-84.27Zm443.29-.5c-29.92,0-50.86,34.41-50.86,83.27,0,14.46,2.99,35.4,10.97,52.36,41.39-30.42,68.31-74.3,68.31-102.72,0-23.44-10.47-32.91-28.42-32.91Z"></path><path class="cls-8" d="m572.08,226.76c-9.06,7.55-20.65,17.62-27.19,24.67-2.01,2.01-5.04,2.01-7.05,0-13.09-14.1-29.7-27.19-43.3-37.77-6.04-4.53,1.51-12.09,6.04-8.06,0,0,7.56,6.04,16.62,13.6,8.05,6.54,17.12,14.6,24.17,21.65,12.09-12.09,26.69-24.17,40.79-35.25,4.53-3.53,11.08,3.52,6.04,8.06,0,0-7.05,5.54-16.11,13.09Z"></path><path class="cls-8" d="m413.74,1226.21c0,41.39,7.48,97.73,6.48,145.1-.5,28.42-10.97,78.78-57.34,78.78-39.89,0-50.36-31.41-51.36-62.33,0-6.48,9.98-6.98,9.98,0,.99,29.92,10.47,52.36,41.38,52.36,36.4,0,46.87-39.39,47.37-68.81,1-47.37-6.48-104.21-6.48-145.1,0-21.94,5.98-35.4,15.45-54.35,2.99-5.98,11.97-1.5,8.97,3.99-8.97,17.95-14.46,29.92-14.46,50.36Z"></path><path class="cls-8" d="m341.44,1210.25c0-33.41,35.9-57.34,90.25-57.34s100.23,31.91,100.23,87.26-45.87,78.78-89.26,77.29c-6.98,0-6.48-9.97,0-9.97,40.39,1.49,79.28-18.45,79.28-67.32s-38.39-77.29-90.25-77.29-80.28,22.94-80.28,47.37c0,22.44,5.98,39.39,24.43,53.35,5.48,3.49-.5,11.97-5.98,7.98-21.44-15.96-28.42-36.9-28.42-61.33Z"></path><path class="cls-8" d="m674.8,413.28c-13.98,38.12-62.87,143.8-111.28,143.8-32.23,0-62.94-20.64-100.21-20.64-12.59,0-24.17,1.51-35.75,7.05,28.7-36.26,77.04-99.2,99.7-129.41h53.88c6.55,0,6.55-10.07,0-10.07h-46.32c30.21-40.28,93.66-128.91,93.66-128.91,3.52-5.54-.51-10.57-6.55-7.55-16.61,8.06-33.23,11.08-49.34,11.08-23.16,0-50.36-11.58-76.04-11.58-40.28,0-54.38,41.79-61.43,73.52-1.51,5.54,8.56,8.56,10.07,2.02,5.54-26.18,17.12-65.46,51.36-65.46,25.68,0,50.86,11.58,76.04,11.58,12.08,0,24.67-1.51,37.76-5.54-29.21,40.28-58.41,81.07-88.63,120.85h-46.83c-6.55,0-6.55,10.07,0,10.07h39.27c-36.25,48.84-73.52,97.18-111.28,145.02-4.03,5.04,1,11.08,6.54,7.05,19.13-12.59,28.7-19.64,53.88-19.64,35.25,0,65.97,20.64,100.21,20.64,50.79,0,89.52-81.07,111.28-126.1,0,0,0,0,0,0v-27.76Z"></path><path class="cls-10" d="m1015.09,2187.15c-13.28,39.35-64.35,143.01-109,143.01-21.94,0-30.42-22.94-30.42-65.82v-144.6h54.85c6.98,0,6.98-9.97,0-9.97h-54.85v-121.67c0-6.98-9.97-6.98-9.97,0v121.67h-36.9c-6.49,0-6.49,9.97,0,9.97h36.9v67.82c-18.95,56.34-60.84,111.69-89.75,144.1-3.49,3.99,2.99,12.47,7.48,6.98,25.43-29.42,60.83-75.79,82.27-125.66v51.36c0,40.39,7.48,75.79,40.39,75.79,48.66,0,92.87-89.5,109-126.68v-26.3Z"></path><path class="cls-10" d="m1010.81,2101.79c0,3.76,1.64,6.82,4.29,8.37v-16.64c-2.64,1.66-4.29,4.85-4.29,8.27Z"></path><line class="cls-4" x1="870.44" y1="1903.85" x2="870.44" y2="1974.86"></line><path class="cls-10" d="m297.27,2327.17c19.44-8.98,31.41-14.46,54.85-12.47,18.45,1.49,43.88,15.46,67.32,15.46,28.42,0,37.9-1.5,55.85-25.93,4.48-5.98,11.47,1,7.98,5.98-20.45,27.43-32.91,29.92-63.82,29.92-37.9,0-61.33-27.92-102.22-11.47-4.49,2-40.39,22.44-33.91,5.49"></path><g class="cls-6"><path class="cls-9" d="m463.32,546.51c-25.18,0-34.74,7.05-53.88,19.64-5.54,4.03-10.58-2.01-6.54-7.05,37.76-47.84,75.02-96.18,111.28-145.02h-39.27c-6.55,0-6.55-10.07,0-10.07h46.83c30.22-39.78,59.42-80.57,88.63-120.85-13.09,4.03-25.68,5.54-37.76,5.54-25.18,0-50.36-11.58-76.04-11.58-34.24,0-45.82,39.28-51.36,65.46-1.51,6.54-11.58,3.52-10.07-2.02,7.05-31.72,21.15-73.52,61.43-73.52,25.68,0,52.87,11.58,76.04,11.58,16.11,0,32.73-3.02,49.34-11.08,6.04-3.02,10.07,2.01,6.55,7.55,0,0-63.45,88.62-93.66,128.91h46.32c6.55,0,6.55,10.07,0,10.07h-53.88c-22.66,30.21-71,93.15-99.7,129.41,11.58-5.54,23.16-7.05,35.75-7.05,37.26,0,67.98,20.64,100.2,20.64,50.36,0,101.21-114.3,112.79-148.04l4.53,19.64c-20.14,40.28-61.43,138.47-117.33,138.47-34.24,0-64.95-20.64-100.2-20.64Zm108.77-319.75c-9.06,7.55-20.65,17.62-27.19,24.67-2.01,2.01-5.04,2.01-7.05,0-13.09-14.1-29.7-27.19-43.3-37.77-6.04-4.53,1.51-12.09,6.04-8.06,0,0,7.56,6.04,16.62,13.6,8.05,6.54,17.12,14.6,24.17,21.65,12.09-12.09,26.69-24.17,40.79-35.25,4.53-3.53,11.08,3.52,6.04,8.06,0,0-7.05,5.54-16.11,13.09Zm106.75,90.13c5.04,0,9.07,4.53,9.07,9.57,0,5.54-4.03,9.57-9.07,9.57s-8.56-4.03-8.56-9.57c0-5.04,3.53-9.57,8.56-9.57Zm0,0c5.04,0,9.07,4.53,9.07,9.57,0,5.54-4.03,9.57-9.07,9.57s-8.56-4.03-8.56-9.57c0-5.04,3.53-9.57,8.56-9.57Zm2.02,0c5.04,0,9.06,4.53,9.06,9.57,0,5.54-4.03,9.57-9.06,9.57-4.53,0-8.56-4.03-8.56-9.57,0-5.04,4.03-9.57,8.56-9.57Zm675.25,60.93c28.7,0,50.86,18.13,60.42,43.81l-.5-37.26c0-7.05,9.57-7.55,10.07-1.01.51,2.01,5.54,41.79,30.72,41.79s51.87-42.3,52.37-43.81c3.53-5.54,12.09-.5,8.56,5.04-11.08,19.64-35.75,48.84-60.93,48.84-14.6,0-24.67-10.57-30.21-22.15,1,56.39,1,44.81,1,57.4,0,26.18-9.56,98.19-71.5,98.19-46.83,0-72.01-44.31-72.01-95.67,0-7.55.5-17.62,2.52-23.67-21.65,33.23-47.34,71-72.01,104.74v118.84c0,40.28-22.15,67.47-50.35,67.47-51.87,0-46.33-61.43-34.74-80.06,22.16-36.25,48.34-73.52,75.02-109.27l-.5-112.79c-12.59,29.71-57.91,128.91-99.2,128.91-36.25,0-36.25-61.94-36.25-76.54v-98.7c-15.11,16.62-42.3,31.72-62.94,31.72-11.08,0-22.16-4.03-28.2-15.11,1.01,27.19,1.51,56.9,1.51,63.45,0,63.95-24.17,95.17-66.97,95.17-46.83,0-64.45-37.77-61.43-96.68,1.01-20.14,5.54-50.86,5.54-50.86,3.02-27.7-7.55-33.74-15.61-33.74-21.15,0-35.25,39.28-41.8,57.91-16.61,45.82-42.8,123.37-85.1,123.37-38.77,0-38.77-64.45-38.77-76.54v-108.77c0-6.54,10.07-6.54,10.07,0v108.77c0,10.57,0,66.47,29.21,66.47,33.74,0,59.92-76.04,77.54-121.86,9.07-23.67,22.16-59.42,48.34-59.42,17.12,0,29.71,14.6,26.18,45.32,0,0-4.53,30.21-5.54,49.85-3.02,57.91,16.61,86.11,52.87,86.11s55.39-26.18,55.39-84.6c0-15.61-1.01-44.31-2.52-89.63,0-7.05,7.55-8.06,9.57-1.51,3.53,13.09,10.57,32.23,30.72,32.23s48.84-18.13,59.42-35.25c2.01-2.52,5.04-2.52,7.05-1.51,2.52,0,5.54,1.51,5.54,5.04v108.77c0,12.59,0,66.47,26.18,66.47,34.74,0,90.13-119.34,99.2-147.54v-26.69c0-7.05,10.07-7.05,10.07,0v154.59c29.21-38.77,69.99-104.74,85.6-126.89,14.1-21.65,31.22-32.73,56.4-32.73Zm-281.48-60.93c5.04,0,9.06,4.53,9.06,9.57,0,5.54-4.03,9.57-9.06,9.57-4.53,0-8.56-4.03-8.56-9.57,0-5.04,4.03-9.57,8.56-9.57Zm63.44,348.45c-11.58,19.64-10.58,64.95,26.18,64.95,20.14,0,40.28-19.13,40.28-57.4v-105.24c-23.67,31.72-46.32,64.45-66.46,97.69Zm69.49-348.45c5.04,0,9.06,4.53,9.06,9.57,0,5.54-4.03,9.57-9.06,9.57-4.53,0-8.56-4.03-8.56-9.57,0-5.04,4.03-9.57,8.56-9.57Zm86.61,156.1c0,49.35,23.67,85.6,61.94,85.6s61.94-38.77,61.43-85.1v-.5c-.5-37.26-16.11-85.1-61.43-85.1-38.27,0-61.94,36.25-61.94,85.1Z"></path></g><circle class="cls-10" cx="1284.45" cy="1271.44" r="50.21"></circle><g class="cls-11"><path class="cls-9" d="m413.74,1226.21c0,41.39,7.48,97.73,6.48,145.1-.5,28.42-10.97,78.78-57.34,78.78-39.89,0-50.36-31.41-51.36-62.33,0-6.48,9.98-6.98,9.98,0,.99,29.92,10.47,52.36,41.38,52.36,36.4,0,46.87-39.39,47.37-68.81,1-47.37-6.48-104.21-6.48-145.1,0-21.94,5.98-35.4,15.45-54.35,2.99-5.98,11.97-1.5,8.97,3.99-8.97,17.95-14.46,29.92-14.46,50.36Zm-72.3-15.96c0-33.41,35.9-57.34,90.25-57.34s100.23,31.91,100.23,87.26-45.87,78.78-89.26,77.29c-6.98,0-6.48-9.97,0-9.97,40.39,1.49,79.28-18.45,79.28-67.32s-38.39-77.29-90.25-77.29-80.28,22.94-80.28,47.37c0,22.44,5.98,39.39,24.43,53.35,5.48,3.49-.5,11.97-5.98,7.98-21.44-15.96-28.42-36.9-28.42-61.33Zm1330.52,155.08c3.99-6.98,11.97-3.99,8.48,4.99-3.99,10.97-48.86,83.27-105.71,83.27-17.45,0-30.42-17.95-30.42-47.37,0,0,.5-65.82,0-82.27-.99-40.39-14.46-51.86-39.89-51.86-31.42-1-52.36,35.9-56.84,69.31.5,35.4,0,103.72,0,103.72,0,6.48-9.97,6.48-9.97,0,0,0,.5-104.71,0-121.17-1-40.89-13.96-51.86-39.89-51.86-34.9-1-57.34,43.38-57.34,80.28v92.75c0,6.48-9.97,6.48-9.97,0v-140.11c0-28.42-8.48-33.91-16.95-33.91-13.46,0-24.43,14.46-36.4,36.9-12.97,24.43-29.92,62.33-45.38,89.75-12.97,22.94-33.91,52.36-57.34,52.36-32.91,0-41.39-34.9-41.39-75.79v-52.36c-17.95,42.88-52.36,109.2-98.73,124.16-6.49,2.99-13.46,3.99-21.94,3.99-16.46,0-30.42-.5-40.89-15.96-3.99-5.49,3.99-11.47,7.98-5.98,8.48,12.47,19.94,11.97,32.91,11.97,22.93,0,36.9-17.95,36.9-36.4.5-26.93-10.97-44.38-34.41-66.32-17.95-17.45-27.43-36.9-37.4-58.34-10.97,17.45-33.41,40.39-56.35,40.39-14.96,0-24.43-8.97-29.92-18.45,0,18.45.5,37.4.5,55.85.5,50.86-24.43,94.74-70.8,94.74-39.89,0-63.82-32.91-69.81-74.3-15.46,28.92-42.39,72.8-68.31,72.8-32.91,0-41.38-34.41-41.38-75.79v-95.24c-7.48,6.98-16.46,12.97-26.93,12.97-12.47,0-23.94-6.48-32.41-14.96-18.45,63.82-64.82,139.12-93.74,171.53-4.49,4.99-11.97-2-7.48-6.98,29.42-32.91,79.28-111.69,93.74-175.52,1.49-6.48,7.98-5.98,10.47-1,5.98,11.47,21.44,16.95,29.42,16.95,9.47,0,22.44-8.97,27.92-18.45,2-3.99,8.98-2.99,8.98,2.99v107.71c0,43.38,9.47,65.82,31.41,65.82,24.43,0,54.85-56.85,67.32-81.78v-1.5c-.5-50.36,24.43-94.24,70.81-94.24,28.42,0,48.87,16.45,60.33,41.39l-.5-34.9c0-6.98,8.97-7.48,9.97-1,0,1.99,5.48,41.39,30.91,41.39,18.95,0,43.88-26.43,51.36-43.88,2.49-5.49,6.98-5.49,9.47,0,10.47,24.93,17.46,45.87,36.4,64.32,24.43,23.44,40.89,43.38,40.39,73.8,0,6.48-2.49,14.46-4.99,20.44,28.92-17.95,69.31-99.73,78.78-129.64v-27.92c0-6.48,9.97-6.48,9.97,0v107.71c0,43.38,9.48,65.82,31.42,65.82,18.95,0,38.39-28.42,50.36-49.86,16.45-29.92,30.42-68.31,40.89-85.27,14.46-24.43,29.42-43.88,47.87-43.88s26.93,14.96,26.93,43.88v7.48c10.47-35.4,33.91-49.86,57.84-49.86,27.43,0,44.38,11.97,48.37,46.87,10.47-25.43,29.42-47.87,57.84-47.37,32.41.5,48.87,17.45,49.87,61.33.5,16.95,0,82.77,0,82.77,0,28.42,12.47,37.4,20.94,37.4,43.88,0,81.77-50.86,96.73-78.29Zm-850.67-92.75c-37.9,0-60.83,35.9-60.83,84.27s22.93,84.77,60.83,84.77,61.33-35.9,60.84-84.27v-.5c0-36.9-15.46-84.27-60.84-84.27Zm315.63-51.36c-4.99,0-8.48-3.99-8.48-9.47,0-4.99,3.49-9.48,8.48-9.48s8.98,4.49,8.98,9.48c0,5.49-3.99,9.47-8.98,9.47Z"></path></g><path class="cls-10" d="m667.25,2058.9c-27.42,15.96-49.36,12.96-76.79,1.49-8.47-3.49-15.96-6.98-28.92-6.98-27.92,0-37.9,1.99-55.35,25.93-3.99,5.49-7.98-5.98-7.98-5.98,19.95-27.42,33.41-29.92,63.33-29.92,31.41,0,60.33,28.42,91.75,11.97,17.95-9.47,9.97-7.98,23.93-12.47,5.49-1.5,8.97,2.49,5.98,7.48"></path></g></svg> 