<?xml version="1.0" encoding="UTF-8"?> <svg xmlns="http://www.w3.org/2000/svg" id="Layer_1" viewBox="0 0 450 335"><defs><style>.cls-1{fill:#fff;}.cls-2{fill:#ececec;}.cls-3{fill:#bca5cf;}.cls-4{fill:#111035;}</style></defs><rect class="cls-1" width="450" height="335"></rect><rect class="cls-2" y="199.03" width="450" height="57.96"></rect><rect class="cls-2" y="77.38" width="450" height="58.26"></rect><rect class="cls-3" x="266.15" y="77.38" width="18.64" height="179.61"></rect><path class="cls-4" d="m267.05,194.53c8.95-11.99,17.72-23.3,25.83-35.79.34,12.49.68,40.18,17.89,40.18,11.48,0,27.18-29.37,33.42-38.99-.34,2.53-.68,4.9-.68,7.43,0,17.22,8.44,32.07,24.14,32.07,9.79,0,16.71-5.91,20.59-14.52.17,9.28,3.04,14.01,8.95,14.01,19.07,0,34.27-24.48,35.62-28.19,1.18-3.04-1.52-4.05-2.87-1.69-5.06,9.28-17.89,26.5-32.75,26.5-2.87,0-5.57-1.86-5.57-11.65l.17-47.27c0-2.36-3.38-2.36-3.38-.17l-.17,13.67c-3.71-8.78-10.8-14.69-20.59-14.69-8.44,0-14.85,4.39-18.91,10.97,0,.17-4.39,6.92-4.39,7.09-5.06,8.1-23.97,42.03-33.59,42.03-7.77,0-12.49-8.27-13.67-22.45-.51-5.06-.84-11.82-.84-19.58,10.13-16.04,19.58-33.25,24.65-49.8,2.87-9.96,5.91-26.33-10.3-26.33-9.62,0-13.84,9.79-15.19,22.45-2.03,18.23-2.7,37.47-2.7,52.84-7.93,12.66-16.71,24.14-25.49,36.29v-51.65c0-2.19-3.38-2.19-3.38,0v11.48c-3.38-7.93-9.45-13.34-19.41-13.34-16.88,0-27.01,15.19-27.01,32.75,0,16.04,8.44,31.23,24.14,31.23,10.13,0,18.06-6.41,22.28-15.7l-.17,9.79c-9.79,13.5-19.75,27.68-25.15,36.63-4.39,8.1-4.22,26.84,10.97,26.84,10.47,0,17.56-8.95,17.56-22.62v-39.84Zm100.61,1.52c-12.83,0-20.76-12.15-20.76-28.7s7.93-28.53,20.76-28.53,20.59,12.15,20.59,28.53v.34c0,16.37-7.93,28.36-20.59,28.36Zm-71.57-48.78v-.51c.17-14.01.84-30.55,2.53-46.59,1.52-13,5.57-19.41,11.99-19.41,13,0,9.28,14.35,6.92,21.94-4.39,14.69-12.49,30.05-21.44,44.56Zm-54.69,48.78c-12.66,0-20.59-12.15-20.59-28.7s10.97-28.53,23.97-28.53,19.07,11.99,19.07,28.53v.17c0,16.21-9.45,28.53-22.45,28.53Zm8.78,57.56c-12.15,0-12.66-15.19-8.78-21.78,4.9-8.1,13-19.75,22.45-32.58v35.11c0,12.49-6.75,19.24-13.67,19.24Zm-203.41-54.69c10.13,0,15.36-14.85,16.54-22.96.68-5.06.51-13.5,0-21.78,5.06-3.38,9.96-6.41,13.5-8.44,2.87-1.86,6.41-3.88,10.3-6.08v42.03c0,6.41,1.86,17.22,15.02,17.22,17.22,0,27.18-30.38,36.97-47.6,2.19-3.54,6.92-13.17,11.65-13.17,3.04,0,6.75,2.03,5.57,11.31,0,0-1.52,10.3-1.86,17.05-1.01,19.75,6.41,32.41,19.41,32.41,14.69,0,22.96-15.36,23.63-27.85.51-7.77.68-17.56.17-26.33,3.88,4.9,8.95,6.08,12.15,6.08,3.38,0,9.28-2.03,14.35-4.56l18.91-10.8c-12.15,0-22.11,11.99-33.25,11.99-6.41,0-11.99-6.25-13.34-10.8-.51-2.19-3.54-1.69-3.21.68,1.69,15.02,1.52,22.96.84,33.59-.68,11.99-8.27,24.65-20.26,24.65-9.79,0-17.05-9.45-16.04-28.87.34-6.58,1.86-16.71,1.86-16.71,1.18-10.3-3.04-15.19-8.95-15.19-5.4,0-8.61,5.06-10.97,8.95-10.8,17.39-21.94,51.82-37.81,51.82-8.78,0-11.48-7.77-11.48-13.84v-44.23c11.14-7.09,22.79-16.37,22.79-27.01,0-7.26-4.73-12.15-11.48-12.15-10.63,0-14.85,8.1-14.85,17.56v19.58c-7.26,4.56-15.7,9.62-23.8,14.85-.34-5.74-.68-11.14-.68-15.19,0-11.31.34-22.45,2.03-34.94.17-1.35-.68-2.19-2.03-1.86-4.56,1.18-8.27,1.86-12.32,1.86-4.56,0-9.12-1.86-14.35-1.86-12.49,0-14.85,15.87-13.34,22.11.68,2.19,3.88,1.52,3.38-.68-1.52-6.25,1.35-18.06,9.96-18.06,4.9,0,9.62,1.86,14.35,1.86,3.71,0,7.09-.51,10.63-1.35-1.35,11.65-1.69,22.28-1.69,32.92,0,4.05.51,10.63.84,17.39-14.18,9.62-26,20.09-26,31.4,0,7.93,2.87,15.02,12.83,15.02Zm43.55-65.5v-17.56c0-8.44,3.54-14.18,11.48-14.18,4.73,0,8.1,3.21,8.1,8.78,0,5.91-4.22,11.48-10.97,16.88-2.36,1.86-5.23,3.88-8.61,6.08Zm-43.55,62.12c-7.09,0-9.45-4.39-9.45-11.65,0-9.62,11.48-19.58,22.79-27.52.34,7.6.51,15.02-.17,19.24-.84,5.91-5.23,19.92-13.17,19.92Z"></path></svg> 